G75*
%MOIN*%
%OFA0B0*%
%FSLAX25Y25*%
%IPPOS*%
%LPD*%
%AMOC8*
5,1,8,0,0,1.08239X$1,22.5*
%
%ADD10C,0.00000*%
D10*
X0015942Y0021479D02*
X0280916Y0021479D01*
X0280916Y0021478D02*
X0281268Y0021482D01*
X0281621Y0021495D01*
X0281972Y0021516D01*
X0282324Y0021546D01*
X0282674Y0021584D01*
X0283023Y0021631D01*
X0283371Y0021686D01*
X0283718Y0021750D01*
X0284063Y0021822D01*
X0284406Y0021902D01*
X0284748Y0021990D01*
X0285087Y0022087D01*
X0285423Y0022192D01*
X0285757Y0022305D01*
X0286088Y0022426D01*
X0286416Y0022555D01*
X0286741Y0022692D01*
X0287062Y0022836D01*
X0287380Y0022989D01*
X0287694Y0023149D01*
X0288004Y0023316D01*
X0288310Y0023491D01*
X0288612Y0023674D01*
X0288909Y0023863D01*
X0289201Y0024060D01*
X0289489Y0024263D01*
X0289771Y0024474D01*
X0290049Y0024691D01*
X0290321Y0024915D01*
X0290588Y0025146D01*
X0290849Y0025383D01*
X0291104Y0025626D01*
X0291353Y0025875D01*
X0291596Y0026130D01*
X0291833Y0026391D01*
X0292064Y0026658D01*
X0292288Y0026930D01*
X0292505Y0027208D01*
X0292716Y0027490D01*
X0292919Y0027778D01*
X0293116Y0028070D01*
X0293305Y0028367D01*
X0293488Y0028669D01*
X0293663Y0028975D01*
X0293830Y0029285D01*
X0293990Y0029599D01*
X0294143Y0029917D01*
X0294287Y0030238D01*
X0294424Y0030563D01*
X0294553Y0030891D01*
X0294674Y0031222D01*
X0294787Y0031556D01*
X0294892Y0031892D01*
X0294989Y0032231D01*
X0295077Y0032573D01*
X0295157Y0032916D01*
X0295229Y0033261D01*
X0295293Y0033608D01*
X0295348Y0033956D01*
X0295395Y0034305D01*
X0295433Y0034655D01*
X0295463Y0035007D01*
X0295484Y0035358D01*
X0295497Y0035711D01*
X0295501Y0036063D01*
X0295501Y0229508D01*
X0295496Y0229924D01*
X0295481Y0230339D01*
X0295455Y0230754D01*
X0295419Y0231168D01*
X0295374Y0231581D01*
X0295318Y0231993D01*
X0295252Y0232403D01*
X0295176Y0232812D01*
X0295090Y0233218D01*
X0294994Y0233623D01*
X0294888Y0234025D01*
X0294772Y0234424D01*
X0294647Y0234820D01*
X0294511Y0235213D01*
X0294367Y0235603D01*
X0294212Y0235989D01*
X0294049Y0236371D01*
X0293876Y0236748D01*
X0293693Y0237122D01*
X0293502Y0237491D01*
X0293302Y0237855D01*
X0293092Y0238214D01*
X0292874Y0238568D01*
X0292648Y0238916D01*
X0292413Y0239259D01*
X0292169Y0239596D01*
X0291918Y0239927D01*
X0291658Y0240251D01*
X0291391Y0240570D01*
X0291115Y0240881D01*
X0290833Y0241185D01*
X0290542Y0241483D01*
X0290245Y0241773D01*
X0289940Y0242056D01*
X0289629Y0242332D01*
X0289311Y0242599D01*
X0288987Y0242859D01*
X0288656Y0243111D01*
X0288319Y0243354D01*
X0287977Y0243590D01*
X0287628Y0243816D01*
X0287275Y0244035D01*
X0286916Y0244244D01*
X0286552Y0244444D01*
X0286183Y0244636D01*
X0285809Y0244818D01*
X0285431Y0244992D01*
X0285049Y0245155D01*
X0284664Y0245310D01*
X0284274Y0245455D01*
X0283881Y0245590D01*
X0283485Y0245716D01*
X0283086Y0245832D01*
X0282684Y0245938D01*
X0282280Y0246034D01*
X0281873Y0246120D01*
X0281465Y0246196D01*
X0281054Y0246263D01*
X0280642Y0246319D01*
X0280229Y0246365D01*
X0279815Y0246401D01*
X0279400Y0246426D01*
X0278985Y0246442D01*
X0278570Y0246447D01*
X0278569Y0246447D02*
X0213874Y0246476D01*
X0213704Y0246474D01*
X0213533Y0246468D01*
X0213362Y0246458D01*
X0213192Y0246443D01*
X0213022Y0246425D01*
X0212852Y0246402D01*
X0212684Y0246376D01*
X0212515Y0246345D01*
X0212348Y0246310D01*
X0212182Y0246271D01*
X0212016Y0246229D01*
X0211852Y0246182D01*
X0211688Y0246131D01*
X0211526Y0246076D01*
X0211366Y0246018D01*
X0211207Y0245955D01*
X0211049Y0245889D01*
X0210893Y0245819D01*
X0210739Y0245745D01*
X0210587Y0245667D01*
X0210436Y0245586D01*
X0210288Y0245501D01*
X0210142Y0245413D01*
X0209998Y0245321D01*
X0209856Y0245226D01*
X0209716Y0245127D01*
X0209579Y0245025D01*
X0209444Y0244920D01*
X0209312Y0244811D01*
X0209183Y0244699D01*
X0209056Y0244584D01*
X0208933Y0244466D01*
X0208812Y0244346D01*
X0208694Y0244222D01*
X0208579Y0244095D01*
X0208467Y0243966D01*
X0208358Y0243834D01*
X0208253Y0243699D01*
X0208151Y0243562D01*
X0208052Y0243423D01*
X0207957Y0243281D01*
X0207865Y0243137D01*
X0207776Y0242991D01*
X0207691Y0242842D01*
X0207610Y0242692D01*
X0207532Y0242540D01*
X0207459Y0242386D01*
X0207388Y0242230D01*
X0207322Y0242072D01*
X0207259Y0241913D01*
X0207201Y0241752D01*
X0207146Y0241591D01*
X0207095Y0241427D01*
X0207048Y0241263D01*
X0207005Y0241098D01*
X0206966Y0240931D01*
X0206932Y0240764D01*
X0206901Y0240596D01*
X0206874Y0240427D01*
X0206851Y0240257D01*
X0206833Y0240087D01*
X0206818Y0239917D01*
X0206808Y0239746D01*
X0206802Y0239576D01*
X0206800Y0239405D01*
X0206800Y0233550D01*
X0206798Y0233379D01*
X0206792Y0233208D01*
X0206781Y0233038D01*
X0206767Y0232868D01*
X0206748Y0232698D01*
X0206726Y0232528D01*
X0206699Y0232360D01*
X0206668Y0232191D01*
X0206633Y0232024D01*
X0206595Y0231858D01*
X0206552Y0231692D01*
X0206505Y0231528D01*
X0206454Y0231365D01*
X0206399Y0231203D01*
X0206340Y0231043D01*
X0206278Y0230884D01*
X0206212Y0230726D01*
X0206142Y0230570D01*
X0206068Y0230416D01*
X0205990Y0230264D01*
X0205909Y0230114D01*
X0205824Y0229965D01*
X0205736Y0229819D01*
X0205644Y0229675D01*
X0205548Y0229533D01*
X0205450Y0229394D01*
X0205347Y0229257D01*
X0205242Y0229122D01*
X0205133Y0228990D01*
X0205022Y0228861D01*
X0204907Y0228735D01*
X0204789Y0228611D01*
X0204668Y0228490D01*
X0204544Y0228372D01*
X0204418Y0228257D01*
X0204289Y0228146D01*
X0204157Y0228037D01*
X0204022Y0227932D01*
X0203885Y0227829D01*
X0203746Y0227731D01*
X0203604Y0227635D01*
X0203460Y0227543D01*
X0203314Y0227455D01*
X0203165Y0227370D01*
X0203015Y0227289D01*
X0202863Y0227211D01*
X0202709Y0227137D01*
X0202553Y0227067D01*
X0202395Y0227001D01*
X0202236Y0226939D01*
X0202076Y0226880D01*
X0201914Y0226825D01*
X0201751Y0226774D01*
X0201587Y0226727D01*
X0201421Y0226684D01*
X0201255Y0226646D01*
X0201088Y0226611D01*
X0200919Y0226580D01*
X0200751Y0226553D01*
X0200581Y0226531D01*
X0200411Y0226512D01*
X0200241Y0226498D01*
X0200071Y0226487D01*
X0199900Y0226481D01*
X0199729Y0226479D01*
X0173871Y0226479D01*
X0173700Y0226481D01*
X0173529Y0226487D01*
X0173359Y0226498D01*
X0173189Y0226512D01*
X0173019Y0226531D01*
X0172849Y0226553D01*
X0172681Y0226580D01*
X0172512Y0226611D01*
X0172345Y0226646D01*
X0172179Y0226684D01*
X0172013Y0226727D01*
X0171849Y0226774D01*
X0171686Y0226825D01*
X0171524Y0226880D01*
X0171364Y0226939D01*
X0171205Y0227001D01*
X0171047Y0227067D01*
X0170891Y0227137D01*
X0170737Y0227211D01*
X0170585Y0227289D01*
X0170435Y0227370D01*
X0170286Y0227455D01*
X0170140Y0227543D01*
X0169996Y0227635D01*
X0169854Y0227731D01*
X0169715Y0227829D01*
X0169578Y0227932D01*
X0169443Y0228037D01*
X0169311Y0228146D01*
X0169182Y0228257D01*
X0169056Y0228372D01*
X0168932Y0228490D01*
X0168811Y0228611D01*
X0168693Y0228735D01*
X0168578Y0228861D01*
X0168467Y0228990D01*
X0168358Y0229122D01*
X0168253Y0229257D01*
X0168150Y0229394D01*
X0168052Y0229533D01*
X0167956Y0229675D01*
X0167864Y0229819D01*
X0167776Y0229965D01*
X0167691Y0230114D01*
X0167610Y0230264D01*
X0167532Y0230416D01*
X0167458Y0230570D01*
X0167388Y0230726D01*
X0167322Y0230884D01*
X0167260Y0231043D01*
X0167201Y0231203D01*
X0167146Y0231365D01*
X0167095Y0231528D01*
X0167048Y0231692D01*
X0167005Y0231858D01*
X0166967Y0232024D01*
X0166932Y0232191D01*
X0166901Y0232360D01*
X0166874Y0232528D01*
X0166852Y0232698D01*
X0166833Y0232868D01*
X0166819Y0233038D01*
X0166808Y0233208D01*
X0166802Y0233379D01*
X0166800Y0233550D01*
X0166800Y0239408D01*
X0166798Y0239579D01*
X0166792Y0239750D01*
X0166781Y0239920D01*
X0166767Y0240090D01*
X0166748Y0240260D01*
X0166726Y0240430D01*
X0166699Y0240598D01*
X0166668Y0240767D01*
X0166633Y0240934D01*
X0166595Y0241100D01*
X0166552Y0241266D01*
X0166505Y0241430D01*
X0166454Y0241593D01*
X0166399Y0241755D01*
X0166340Y0241915D01*
X0166278Y0242074D01*
X0166212Y0242232D01*
X0166142Y0242388D01*
X0166068Y0242542D01*
X0165990Y0242694D01*
X0165909Y0242844D01*
X0165824Y0242993D01*
X0165736Y0243139D01*
X0165644Y0243283D01*
X0165548Y0243425D01*
X0165450Y0243564D01*
X0165347Y0243701D01*
X0165242Y0243836D01*
X0165133Y0243968D01*
X0165022Y0244097D01*
X0164907Y0244223D01*
X0164789Y0244347D01*
X0164668Y0244468D01*
X0164544Y0244586D01*
X0164418Y0244701D01*
X0164289Y0244812D01*
X0164157Y0244921D01*
X0164022Y0245026D01*
X0163885Y0245129D01*
X0163746Y0245227D01*
X0163604Y0245323D01*
X0163460Y0245415D01*
X0163314Y0245503D01*
X0163165Y0245588D01*
X0163015Y0245669D01*
X0162863Y0245747D01*
X0162709Y0245821D01*
X0162553Y0245891D01*
X0162395Y0245957D01*
X0162236Y0246019D01*
X0162076Y0246078D01*
X0161914Y0246133D01*
X0161751Y0246184D01*
X0161587Y0246231D01*
X0161421Y0246274D01*
X0161255Y0246312D01*
X0161088Y0246347D01*
X0160919Y0246378D01*
X0160751Y0246405D01*
X0160581Y0246427D01*
X0160411Y0246446D01*
X0160241Y0246460D01*
X0160071Y0246471D01*
X0159900Y0246477D01*
X0159729Y0246479D01*
X0143871Y0246479D01*
X0143700Y0246477D01*
X0143529Y0246471D01*
X0143359Y0246460D01*
X0143189Y0246446D01*
X0143019Y0246427D01*
X0142849Y0246405D01*
X0142681Y0246378D01*
X0142512Y0246347D01*
X0142345Y0246312D01*
X0142179Y0246274D01*
X0142013Y0246231D01*
X0141849Y0246184D01*
X0141686Y0246133D01*
X0141524Y0246078D01*
X0141364Y0246019D01*
X0141205Y0245957D01*
X0141047Y0245891D01*
X0140891Y0245821D01*
X0140737Y0245747D01*
X0140585Y0245669D01*
X0140435Y0245588D01*
X0140286Y0245503D01*
X0140140Y0245415D01*
X0139996Y0245323D01*
X0139854Y0245227D01*
X0139715Y0245129D01*
X0139578Y0245026D01*
X0139443Y0244921D01*
X0139311Y0244812D01*
X0139182Y0244701D01*
X0139056Y0244586D01*
X0138932Y0244468D01*
X0138811Y0244347D01*
X0138693Y0244223D01*
X0138578Y0244097D01*
X0138467Y0243968D01*
X0138358Y0243836D01*
X0138253Y0243701D01*
X0138150Y0243564D01*
X0138052Y0243425D01*
X0137956Y0243283D01*
X0137864Y0243139D01*
X0137776Y0242993D01*
X0137691Y0242844D01*
X0137610Y0242694D01*
X0137532Y0242542D01*
X0137458Y0242388D01*
X0137388Y0242232D01*
X0137322Y0242074D01*
X0137260Y0241915D01*
X0137201Y0241755D01*
X0137146Y0241593D01*
X0137095Y0241430D01*
X0137048Y0241266D01*
X0137005Y0241100D01*
X0136967Y0240934D01*
X0136932Y0240767D01*
X0136901Y0240598D01*
X0136874Y0240430D01*
X0136852Y0240260D01*
X0136833Y0240090D01*
X0136819Y0239920D01*
X0136808Y0239750D01*
X0136802Y0239579D01*
X0136800Y0239408D01*
X0136800Y0231479D01*
X0136798Y0231339D01*
X0136792Y0231199D01*
X0136782Y0231059D01*
X0136769Y0230919D01*
X0136751Y0230780D01*
X0136729Y0230641D01*
X0136704Y0230504D01*
X0136675Y0230366D01*
X0136642Y0230230D01*
X0136605Y0230095D01*
X0136564Y0229961D01*
X0136519Y0229828D01*
X0136471Y0229696D01*
X0136419Y0229566D01*
X0136364Y0229437D01*
X0136305Y0229310D01*
X0136242Y0229184D01*
X0136176Y0229060D01*
X0136107Y0228939D01*
X0136034Y0228819D01*
X0135957Y0228701D01*
X0135878Y0228586D01*
X0135795Y0228472D01*
X0135709Y0228362D01*
X0135620Y0228253D01*
X0135528Y0228147D01*
X0135433Y0228044D01*
X0135336Y0227943D01*
X0135235Y0227846D01*
X0135132Y0227751D01*
X0135026Y0227659D01*
X0134917Y0227570D01*
X0134807Y0227484D01*
X0134693Y0227401D01*
X0134578Y0227322D01*
X0134460Y0227245D01*
X0134340Y0227172D01*
X0134219Y0227103D01*
X0134095Y0227037D01*
X0133969Y0226974D01*
X0133842Y0226915D01*
X0133713Y0226860D01*
X0133583Y0226808D01*
X0133451Y0226760D01*
X0133318Y0226715D01*
X0133184Y0226674D01*
X0133049Y0226637D01*
X0132913Y0226604D01*
X0132775Y0226575D01*
X0132638Y0226550D01*
X0132499Y0226528D01*
X0132360Y0226510D01*
X0132220Y0226497D01*
X0132080Y0226487D01*
X0131940Y0226481D01*
X0131800Y0226479D01*
X0101800Y0226479D01*
X0101660Y0226481D01*
X0101520Y0226487D01*
X0101380Y0226497D01*
X0101240Y0226510D01*
X0101101Y0226528D01*
X0100962Y0226550D01*
X0100825Y0226575D01*
X0100687Y0226604D01*
X0100551Y0226637D01*
X0100416Y0226674D01*
X0100282Y0226715D01*
X0100149Y0226760D01*
X0100017Y0226808D01*
X0099887Y0226860D01*
X0099758Y0226915D01*
X0099631Y0226974D01*
X0099505Y0227037D01*
X0099381Y0227103D01*
X0099260Y0227172D01*
X0099140Y0227245D01*
X0099022Y0227322D01*
X0098907Y0227401D01*
X0098793Y0227484D01*
X0098683Y0227570D01*
X0098574Y0227659D01*
X0098468Y0227751D01*
X0098365Y0227846D01*
X0098264Y0227943D01*
X0098167Y0228044D01*
X0098072Y0228147D01*
X0097980Y0228253D01*
X0097891Y0228362D01*
X0097805Y0228472D01*
X0097722Y0228586D01*
X0097643Y0228701D01*
X0097566Y0228819D01*
X0097493Y0228939D01*
X0097424Y0229060D01*
X0097358Y0229184D01*
X0097295Y0229310D01*
X0097236Y0229437D01*
X0097181Y0229566D01*
X0097129Y0229696D01*
X0097081Y0229828D01*
X0097036Y0229961D01*
X0096995Y0230095D01*
X0096958Y0230230D01*
X0096925Y0230366D01*
X0096896Y0230504D01*
X0096871Y0230641D01*
X0096849Y0230780D01*
X0096831Y0230919D01*
X0096818Y0231059D01*
X0096808Y0231199D01*
X0096802Y0231339D01*
X0096800Y0231479D01*
X0096800Y0239396D01*
X0096798Y0239566D01*
X0096792Y0239736D01*
X0096781Y0239906D01*
X0096767Y0240076D01*
X0096749Y0240245D01*
X0096726Y0240414D01*
X0096699Y0240582D01*
X0096669Y0240749D01*
X0096634Y0240916D01*
X0096595Y0241082D01*
X0096553Y0241246D01*
X0096506Y0241410D01*
X0096455Y0241572D01*
X0096401Y0241734D01*
X0096342Y0241893D01*
X0096280Y0242052D01*
X0096214Y0242209D01*
X0096144Y0242364D01*
X0096071Y0242517D01*
X0095993Y0242669D01*
X0095912Y0242819D01*
X0095828Y0242967D01*
X0095740Y0243112D01*
X0095648Y0243256D01*
X0095553Y0243397D01*
X0095455Y0243536D01*
X0095353Y0243672D01*
X0095248Y0243806D01*
X0095140Y0243938D01*
X0095029Y0244066D01*
X0094914Y0244192D01*
X0094797Y0244316D01*
X0094677Y0244436D01*
X0094553Y0244553D01*
X0094427Y0244668D01*
X0094299Y0244779D01*
X0094167Y0244887D01*
X0094033Y0244992D01*
X0093897Y0245094D01*
X0093758Y0245192D01*
X0093617Y0245287D01*
X0093473Y0245379D01*
X0093328Y0245467D01*
X0093180Y0245551D01*
X0093030Y0245632D01*
X0092878Y0245710D01*
X0092725Y0245783D01*
X0092570Y0245853D01*
X0092413Y0245919D01*
X0092254Y0245981D01*
X0092095Y0246040D01*
X0091933Y0246094D01*
X0091771Y0246145D01*
X0091607Y0246192D01*
X0091443Y0246234D01*
X0091277Y0246273D01*
X0091110Y0246308D01*
X0090943Y0246338D01*
X0090775Y0246365D01*
X0090606Y0246388D01*
X0090437Y0246406D01*
X0090267Y0246420D01*
X0090097Y0246431D01*
X0089927Y0246437D01*
X0089757Y0246439D01*
X0015914Y0246439D01*
X0015573Y0246435D01*
X0015232Y0246423D01*
X0014892Y0246402D01*
X0014552Y0246373D01*
X0014213Y0246336D01*
X0013875Y0246291D01*
X0013538Y0246238D01*
X0013202Y0246176D01*
X0012868Y0246106D01*
X0012536Y0246029D01*
X0012206Y0245943D01*
X0011878Y0245850D01*
X0011553Y0245748D01*
X0011229Y0245639D01*
X0010909Y0245522D01*
X0010592Y0245397D01*
X0010277Y0245265D01*
X0009966Y0245125D01*
X0009659Y0244977D01*
X0009355Y0244822D01*
X0009055Y0244660D01*
X0008759Y0244491D01*
X0008467Y0244314D01*
X0008179Y0244131D01*
X0007896Y0243941D01*
X0007618Y0243743D01*
X0007345Y0243540D01*
X0007076Y0243329D01*
X0006813Y0243113D01*
X0006555Y0242889D01*
X0006302Y0242660D01*
X0006055Y0242425D01*
X0005814Y0242184D01*
X0005579Y0241937D01*
X0005350Y0241684D01*
X0005126Y0241426D01*
X0004910Y0241163D01*
X0004699Y0240894D01*
X0004496Y0240621D01*
X0004298Y0240343D01*
X0004108Y0240060D01*
X0003925Y0239772D01*
X0003748Y0239480D01*
X0003579Y0239184D01*
X0003417Y0238884D01*
X0003262Y0238580D01*
X0003114Y0238273D01*
X0002974Y0237962D01*
X0002842Y0237647D01*
X0002717Y0237330D01*
X0002600Y0237010D01*
X0002491Y0236686D01*
X0002389Y0236361D01*
X0002296Y0236033D01*
X0002210Y0235703D01*
X0002133Y0235371D01*
X0002063Y0235037D01*
X0002001Y0234701D01*
X0001948Y0234364D01*
X0001903Y0234026D01*
X0001866Y0233687D01*
X0001837Y0233347D01*
X0001816Y0233007D01*
X0001804Y0232666D01*
X0001800Y0232325D01*
X0001800Y0035621D01*
X0001804Y0035279D01*
X0001817Y0034938D01*
X0001837Y0034597D01*
X0001866Y0034256D01*
X0001903Y0033916D01*
X0001948Y0033578D01*
X0002002Y0033240D01*
X0002063Y0032904D01*
X0002133Y0032569D01*
X0002211Y0032237D01*
X0002297Y0031906D01*
X0002390Y0031577D01*
X0002492Y0031251D01*
X0002602Y0030927D01*
X0002719Y0030606D01*
X0002844Y0030288D01*
X0002977Y0029973D01*
X0003117Y0029662D01*
X0003265Y0029353D01*
X0003420Y0029049D01*
X0003582Y0028748D01*
X0003752Y0028452D01*
X0003929Y0028159D01*
X0004113Y0027871D01*
X0004303Y0027587D01*
X0004501Y0027309D01*
X0004705Y0027035D01*
X0004916Y0026765D01*
X0005133Y0026502D01*
X0005357Y0026243D01*
X0005586Y0025990D01*
X0005822Y0025743D01*
X0006064Y0025501D01*
X0006311Y0025265D01*
X0006564Y0025036D01*
X0006823Y0024812D01*
X0007086Y0024595D01*
X0007356Y0024384D01*
X0007630Y0024180D01*
X0007908Y0023982D01*
X0008192Y0023792D01*
X0008480Y0023608D01*
X0008773Y0023431D01*
X0009069Y0023261D01*
X0009370Y0023099D01*
X0009674Y0022944D01*
X0009983Y0022796D01*
X0010294Y0022656D01*
X0010609Y0022523D01*
X0010927Y0022398D01*
X0011248Y0022281D01*
X0011572Y0022171D01*
X0011898Y0022069D01*
X0012227Y0021976D01*
X0012558Y0021890D01*
X0012890Y0021812D01*
X0013225Y0021742D01*
X0013561Y0021681D01*
X0013899Y0021627D01*
X0014237Y0021582D01*
X0014577Y0021545D01*
X0014918Y0021516D01*
X0015259Y0021496D01*
X0015600Y0021483D01*
X0015942Y0021479D01*
X0064556Y0047109D02*
X0064558Y0047217D01*
X0064564Y0047326D01*
X0064574Y0047434D01*
X0064588Y0047541D01*
X0064606Y0047648D01*
X0064627Y0047755D01*
X0064653Y0047860D01*
X0064683Y0047965D01*
X0064716Y0048068D01*
X0064753Y0048170D01*
X0064794Y0048270D01*
X0064838Y0048369D01*
X0064887Y0048467D01*
X0064938Y0048562D01*
X0064993Y0048655D01*
X0065052Y0048747D01*
X0065114Y0048836D01*
X0065179Y0048923D01*
X0065247Y0049007D01*
X0065318Y0049089D01*
X0065392Y0049168D01*
X0065469Y0049244D01*
X0065549Y0049318D01*
X0065632Y0049388D01*
X0065717Y0049456D01*
X0065804Y0049520D01*
X0065894Y0049581D01*
X0065986Y0049639D01*
X0066080Y0049693D01*
X0066176Y0049744D01*
X0066273Y0049791D01*
X0066373Y0049835D01*
X0066474Y0049875D01*
X0066576Y0049911D01*
X0066679Y0049943D01*
X0066784Y0049972D01*
X0066890Y0049996D01*
X0066996Y0050017D01*
X0067103Y0050034D01*
X0067211Y0050047D01*
X0067319Y0050056D01*
X0067428Y0050061D01*
X0067536Y0050062D01*
X0067645Y0050059D01*
X0067753Y0050052D01*
X0067861Y0050041D01*
X0067968Y0050026D01*
X0068075Y0050007D01*
X0068181Y0049984D01*
X0068286Y0049958D01*
X0068391Y0049927D01*
X0068493Y0049893D01*
X0068595Y0049855D01*
X0068695Y0049813D01*
X0068794Y0049768D01*
X0068891Y0049719D01*
X0068985Y0049666D01*
X0069078Y0049610D01*
X0069169Y0049551D01*
X0069258Y0049488D01*
X0069344Y0049423D01*
X0069428Y0049354D01*
X0069509Y0049282D01*
X0069587Y0049207D01*
X0069663Y0049129D01*
X0069736Y0049048D01*
X0069806Y0048965D01*
X0069872Y0048880D01*
X0069936Y0048792D01*
X0069996Y0048701D01*
X0070053Y0048609D01*
X0070106Y0048514D01*
X0070156Y0048418D01*
X0070202Y0048320D01*
X0070245Y0048220D01*
X0070284Y0048119D01*
X0070319Y0048016D01*
X0070351Y0047913D01*
X0070378Y0047808D01*
X0070402Y0047702D01*
X0070422Y0047595D01*
X0070438Y0047488D01*
X0070450Y0047380D01*
X0070458Y0047272D01*
X0070462Y0047163D01*
X0070462Y0047055D01*
X0070458Y0046946D01*
X0070450Y0046838D01*
X0070438Y0046730D01*
X0070422Y0046623D01*
X0070402Y0046516D01*
X0070378Y0046410D01*
X0070351Y0046305D01*
X0070319Y0046202D01*
X0070284Y0046099D01*
X0070245Y0045998D01*
X0070202Y0045898D01*
X0070156Y0045800D01*
X0070106Y0045704D01*
X0070053Y0045609D01*
X0069996Y0045517D01*
X0069936Y0045426D01*
X0069872Y0045338D01*
X0069806Y0045253D01*
X0069736Y0045170D01*
X0069663Y0045089D01*
X0069587Y0045011D01*
X0069509Y0044936D01*
X0069428Y0044864D01*
X0069344Y0044795D01*
X0069258Y0044730D01*
X0069169Y0044667D01*
X0069078Y0044608D01*
X0068986Y0044552D01*
X0068891Y0044499D01*
X0068794Y0044450D01*
X0068695Y0044405D01*
X0068595Y0044363D01*
X0068493Y0044325D01*
X0068391Y0044291D01*
X0068286Y0044260D01*
X0068181Y0044234D01*
X0068075Y0044211D01*
X0067968Y0044192D01*
X0067861Y0044177D01*
X0067753Y0044166D01*
X0067645Y0044159D01*
X0067536Y0044156D01*
X0067428Y0044157D01*
X0067319Y0044162D01*
X0067211Y0044171D01*
X0067103Y0044184D01*
X0066996Y0044201D01*
X0066890Y0044222D01*
X0066784Y0044246D01*
X0066679Y0044275D01*
X0066576Y0044307D01*
X0066474Y0044343D01*
X0066373Y0044383D01*
X0066273Y0044427D01*
X0066176Y0044474D01*
X0066080Y0044525D01*
X0065986Y0044579D01*
X0065894Y0044637D01*
X0065804Y0044698D01*
X0065717Y0044762D01*
X0065632Y0044830D01*
X0065549Y0044900D01*
X0065469Y0044974D01*
X0065392Y0045050D01*
X0065318Y0045129D01*
X0065247Y0045211D01*
X0065179Y0045295D01*
X0065114Y0045382D01*
X0065052Y0045471D01*
X0064993Y0045563D01*
X0064938Y0045656D01*
X0064887Y0045751D01*
X0064838Y0045849D01*
X0064794Y0045948D01*
X0064753Y0046048D01*
X0064716Y0046150D01*
X0064683Y0046253D01*
X0064653Y0046358D01*
X0064627Y0046463D01*
X0064606Y0046570D01*
X0064588Y0046677D01*
X0064574Y0046784D01*
X0064564Y0046892D01*
X0064558Y0047001D01*
X0064556Y0047109D01*
X0084241Y0066794D02*
X0084243Y0066902D01*
X0084249Y0067011D01*
X0084259Y0067119D01*
X0084273Y0067226D01*
X0084291Y0067333D01*
X0084312Y0067440D01*
X0084338Y0067545D01*
X0084368Y0067650D01*
X0084401Y0067753D01*
X0084438Y0067855D01*
X0084479Y0067955D01*
X0084523Y0068054D01*
X0084572Y0068152D01*
X0084623Y0068247D01*
X0084678Y0068340D01*
X0084737Y0068432D01*
X0084799Y0068521D01*
X0084864Y0068608D01*
X0084932Y0068692D01*
X0085003Y0068774D01*
X0085077Y0068853D01*
X0085154Y0068929D01*
X0085234Y0069003D01*
X0085317Y0069073D01*
X0085402Y0069141D01*
X0085489Y0069205D01*
X0085579Y0069266D01*
X0085671Y0069324D01*
X0085765Y0069378D01*
X0085861Y0069429D01*
X0085958Y0069476D01*
X0086058Y0069520D01*
X0086159Y0069560D01*
X0086261Y0069596D01*
X0086364Y0069628D01*
X0086469Y0069657D01*
X0086575Y0069681D01*
X0086681Y0069702D01*
X0086788Y0069719D01*
X0086896Y0069732D01*
X0087004Y0069741D01*
X0087113Y0069746D01*
X0087221Y0069747D01*
X0087330Y0069744D01*
X0087438Y0069737D01*
X0087546Y0069726D01*
X0087653Y0069711D01*
X0087760Y0069692D01*
X0087866Y0069669D01*
X0087971Y0069643D01*
X0088076Y0069612D01*
X0088178Y0069578D01*
X0088280Y0069540D01*
X0088380Y0069498D01*
X0088479Y0069453D01*
X0088576Y0069404D01*
X0088670Y0069351D01*
X0088763Y0069295D01*
X0088854Y0069236D01*
X0088943Y0069173D01*
X0089029Y0069108D01*
X0089113Y0069039D01*
X0089194Y0068967D01*
X0089272Y0068892D01*
X0089348Y0068814D01*
X0089421Y0068733D01*
X0089491Y0068650D01*
X0089557Y0068565D01*
X0089621Y0068477D01*
X0089681Y0068386D01*
X0089738Y0068294D01*
X0089791Y0068199D01*
X0089841Y0068103D01*
X0089887Y0068005D01*
X0089930Y0067905D01*
X0089969Y0067804D01*
X0090004Y0067701D01*
X0090036Y0067598D01*
X0090063Y0067493D01*
X0090087Y0067387D01*
X0090107Y0067280D01*
X0090123Y0067173D01*
X0090135Y0067065D01*
X0090143Y0066957D01*
X0090147Y0066848D01*
X0090147Y0066740D01*
X0090143Y0066631D01*
X0090135Y0066523D01*
X0090123Y0066415D01*
X0090107Y0066308D01*
X0090087Y0066201D01*
X0090063Y0066095D01*
X0090036Y0065990D01*
X0090004Y0065887D01*
X0089969Y0065784D01*
X0089930Y0065683D01*
X0089887Y0065583D01*
X0089841Y0065485D01*
X0089791Y0065389D01*
X0089738Y0065294D01*
X0089681Y0065202D01*
X0089621Y0065111D01*
X0089557Y0065023D01*
X0089491Y0064938D01*
X0089421Y0064855D01*
X0089348Y0064774D01*
X0089272Y0064696D01*
X0089194Y0064621D01*
X0089113Y0064549D01*
X0089029Y0064480D01*
X0088943Y0064415D01*
X0088854Y0064352D01*
X0088763Y0064293D01*
X0088671Y0064237D01*
X0088576Y0064184D01*
X0088479Y0064135D01*
X0088380Y0064090D01*
X0088280Y0064048D01*
X0088178Y0064010D01*
X0088076Y0063976D01*
X0087971Y0063945D01*
X0087866Y0063919D01*
X0087760Y0063896D01*
X0087653Y0063877D01*
X0087546Y0063862D01*
X0087438Y0063851D01*
X0087330Y0063844D01*
X0087221Y0063841D01*
X0087113Y0063842D01*
X0087004Y0063847D01*
X0086896Y0063856D01*
X0086788Y0063869D01*
X0086681Y0063886D01*
X0086575Y0063907D01*
X0086469Y0063931D01*
X0086364Y0063960D01*
X0086261Y0063992D01*
X0086159Y0064028D01*
X0086058Y0064068D01*
X0085958Y0064112D01*
X0085861Y0064159D01*
X0085765Y0064210D01*
X0085671Y0064264D01*
X0085579Y0064322D01*
X0085489Y0064383D01*
X0085402Y0064447D01*
X0085317Y0064515D01*
X0085234Y0064585D01*
X0085154Y0064659D01*
X0085077Y0064735D01*
X0085003Y0064814D01*
X0084932Y0064896D01*
X0084864Y0064980D01*
X0084799Y0065067D01*
X0084737Y0065156D01*
X0084678Y0065248D01*
X0084623Y0065341D01*
X0084572Y0065436D01*
X0084523Y0065534D01*
X0084479Y0065633D01*
X0084438Y0065733D01*
X0084401Y0065835D01*
X0084368Y0065938D01*
X0084338Y0066043D01*
X0084312Y0066148D01*
X0084291Y0066255D01*
X0084273Y0066362D01*
X0084259Y0066469D01*
X0084249Y0066577D01*
X0084243Y0066686D01*
X0084241Y0066794D01*
X0103926Y0047109D02*
X0103928Y0047217D01*
X0103934Y0047326D01*
X0103944Y0047434D01*
X0103958Y0047541D01*
X0103976Y0047648D01*
X0103997Y0047755D01*
X0104023Y0047860D01*
X0104053Y0047965D01*
X0104086Y0048068D01*
X0104123Y0048170D01*
X0104164Y0048270D01*
X0104208Y0048369D01*
X0104257Y0048467D01*
X0104308Y0048562D01*
X0104363Y0048655D01*
X0104422Y0048747D01*
X0104484Y0048836D01*
X0104549Y0048923D01*
X0104617Y0049007D01*
X0104688Y0049089D01*
X0104762Y0049168D01*
X0104839Y0049244D01*
X0104919Y0049318D01*
X0105002Y0049388D01*
X0105087Y0049456D01*
X0105174Y0049520D01*
X0105264Y0049581D01*
X0105356Y0049639D01*
X0105450Y0049693D01*
X0105546Y0049744D01*
X0105643Y0049791D01*
X0105743Y0049835D01*
X0105844Y0049875D01*
X0105946Y0049911D01*
X0106049Y0049943D01*
X0106154Y0049972D01*
X0106260Y0049996D01*
X0106366Y0050017D01*
X0106473Y0050034D01*
X0106581Y0050047D01*
X0106689Y0050056D01*
X0106798Y0050061D01*
X0106906Y0050062D01*
X0107015Y0050059D01*
X0107123Y0050052D01*
X0107231Y0050041D01*
X0107338Y0050026D01*
X0107445Y0050007D01*
X0107551Y0049984D01*
X0107656Y0049958D01*
X0107761Y0049927D01*
X0107863Y0049893D01*
X0107965Y0049855D01*
X0108065Y0049813D01*
X0108164Y0049768D01*
X0108261Y0049719D01*
X0108355Y0049666D01*
X0108448Y0049610D01*
X0108539Y0049551D01*
X0108628Y0049488D01*
X0108714Y0049423D01*
X0108798Y0049354D01*
X0108879Y0049282D01*
X0108957Y0049207D01*
X0109033Y0049129D01*
X0109106Y0049048D01*
X0109176Y0048965D01*
X0109242Y0048880D01*
X0109306Y0048792D01*
X0109366Y0048701D01*
X0109423Y0048609D01*
X0109476Y0048514D01*
X0109526Y0048418D01*
X0109572Y0048320D01*
X0109615Y0048220D01*
X0109654Y0048119D01*
X0109689Y0048016D01*
X0109721Y0047913D01*
X0109748Y0047808D01*
X0109772Y0047702D01*
X0109792Y0047595D01*
X0109808Y0047488D01*
X0109820Y0047380D01*
X0109828Y0047272D01*
X0109832Y0047163D01*
X0109832Y0047055D01*
X0109828Y0046946D01*
X0109820Y0046838D01*
X0109808Y0046730D01*
X0109792Y0046623D01*
X0109772Y0046516D01*
X0109748Y0046410D01*
X0109721Y0046305D01*
X0109689Y0046202D01*
X0109654Y0046099D01*
X0109615Y0045998D01*
X0109572Y0045898D01*
X0109526Y0045800D01*
X0109476Y0045704D01*
X0109423Y0045609D01*
X0109366Y0045517D01*
X0109306Y0045426D01*
X0109242Y0045338D01*
X0109176Y0045253D01*
X0109106Y0045170D01*
X0109033Y0045089D01*
X0108957Y0045011D01*
X0108879Y0044936D01*
X0108798Y0044864D01*
X0108714Y0044795D01*
X0108628Y0044730D01*
X0108539Y0044667D01*
X0108448Y0044608D01*
X0108356Y0044552D01*
X0108261Y0044499D01*
X0108164Y0044450D01*
X0108065Y0044405D01*
X0107965Y0044363D01*
X0107863Y0044325D01*
X0107761Y0044291D01*
X0107656Y0044260D01*
X0107551Y0044234D01*
X0107445Y0044211D01*
X0107338Y0044192D01*
X0107231Y0044177D01*
X0107123Y0044166D01*
X0107015Y0044159D01*
X0106906Y0044156D01*
X0106798Y0044157D01*
X0106689Y0044162D01*
X0106581Y0044171D01*
X0106473Y0044184D01*
X0106366Y0044201D01*
X0106260Y0044222D01*
X0106154Y0044246D01*
X0106049Y0044275D01*
X0105946Y0044307D01*
X0105844Y0044343D01*
X0105743Y0044383D01*
X0105643Y0044427D01*
X0105546Y0044474D01*
X0105450Y0044525D01*
X0105356Y0044579D01*
X0105264Y0044637D01*
X0105174Y0044698D01*
X0105087Y0044762D01*
X0105002Y0044830D01*
X0104919Y0044900D01*
X0104839Y0044974D01*
X0104762Y0045050D01*
X0104688Y0045129D01*
X0104617Y0045211D01*
X0104549Y0045295D01*
X0104484Y0045382D01*
X0104422Y0045471D01*
X0104363Y0045563D01*
X0104308Y0045656D01*
X0104257Y0045751D01*
X0104208Y0045849D01*
X0104164Y0045948D01*
X0104123Y0046048D01*
X0104086Y0046150D01*
X0104053Y0046253D01*
X0104023Y0046358D01*
X0103997Y0046463D01*
X0103976Y0046570D01*
X0103958Y0046677D01*
X0103944Y0046784D01*
X0103934Y0046892D01*
X0103928Y0047001D01*
X0103926Y0047109D01*
X0215777Y0071085D02*
X0215779Y0071178D01*
X0215785Y0071270D01*
X0215795Y0071362D01*
X0215809Y0071453D01*
X0215826Y0071544D01*
X0215848Y0071634D01*
X0215873Y0071723D01*
X0215902Y0071811D01*
X0215935Y0071897D01*
X0215972Y0071982D01*
X0216012Y0072066D01*
X0216056Y0072147D01*
X0216103Y0072227D01*
X0216153Y0072305D01*
X0216207Y0072380D01*
X0216264Y0072453D01*
X0216324Y0072523D01*
X0216387Y0072591D01*
X0216453Y0072656D01*
X0216521Y0072718D01*
X0216592Y0072778D01*
X0216666Y0072834D01*
X0216742Y0072887D01*
X0216820Y0072936D01*
X0216900Y0072983D01*
X0216982Y0073025D01*
X0217066Y0073065D01*
X0217151Y0073100D01*
X0217238Y0073132D01*
X0217326Y0073161D01*
X0217415Y0073185D01*
X0217505Y0073206D01*
X0217596Y0073222D01*
X0217688Y0073235D01*
X0217780Y0073244D01*
X0217873Y0073249D01*
X0217965Y0073250D01*
X0218058Y0073247D01*
X0218150Y0073240D01*
X0218242Y0073229D01*
X0218333Y0073214D01*
X0218424Y0073196D01*
X0218514Y0073173D01*
X0218602Y0073147D01*
X0218690Y0073117D01*
X0218776Y0073083D01*
X0218860Y0073046D01*
X0218943Y0073004D01*
X0219024Y0072960D01*
X0219104Y0072912D01*
X0219181Y0072861D01*
X0219255Y0072806D01*
X0219328Y0072748D01*
X0219398Y0072688D01*
X0219465Y0072624D01*
X0219529Y0072558D01*
X0219591Y0072488D01*
X0219649Y0072417D01*
X0219704Y0072343D01*
X0219756Y0072266D01*
X0219805Y0072187D01*
X0219851Y0072107D01*
X0219893Y0072024D01*
X0219931Y0071940D01*
X0219966Y0071854D01*
X0219997Y0071767D01*
X0220024Y0071679D01*
X0220047Y0071589D01*
X0220067Y0071499D01*
X0220083Y0071408D01*
X0220095Y0071316D01*
X0220103Y0071224D01*
X0220107Y0071131D01*
X0220107Y0071039D01*
X0220103Y0070946D01*
X0220095Y0070854D01*
X0220083Y0070762D01*
X0220067Y0070671D01*
X0220047Y0070581D01*
X0220024Y0070491D01*
X0219997Y0070403D01*
X0219966Y0070316D01*
X0219931Y0070230D01*
X0219893Y0070146D01*
X0219851Y0070063D01*
X0219805Y0069983D01*
X0219756Y0069904D01*
X0219704Y0069827D01*
X0219649Y0069753D01*
X0219591Y0069682D01*
X0219529Y0069612D01*
X0219465Y0069546D01*
X0219398Y0069482D01*
X0219328Y0069422D01*
X0219255Y0069364D01*
X0219181Y0069309D01*
X0219104Y0069258D01*
X0219025Y0069210D01*
X0218943Y0069166D01*
X0218860Y0069124D01*
X0218776Y0069087D01*
X0218690Y0069053D01*
X0218602Y0069023D01*
X0218514Y0068997D01*
X0218424Y0068974D01*
X0218333Y0068956D01*
X0218242Y0068941D01*
X0218150Y0068930D01*
X0218058Y0068923D01*
X0217965Y0068920D01*
X0217873Y0068921D01*
X0217780Y0068926D01*
X0217688Y0068935D01*
X0217596Y0068948D01*
X0217505Y0068964D01*
X0217415Y0068985D01*
X0217326Y0069009D01*
X0217238Y0069038D01*
X0217151Y0069070D01*
X0217066Y0069105D01*
X0216982Y0069145D01*
X0216900Y0069187D01*
X0216820Y0069234D01*
X0216742Y0069283D01*
X0216666Y0069336D01*
X0216592Y0069392D01*
X0216521Y0069452D01*
X0216453Y0069514D01*
X0216387Y0069579D01*
X0216324Y0069647D01*
X0216264Y0069717D01*
X0216207Y0069790D01*
X0216153Y0069865D01*
X0216103Y0069943D01*
X0216056Y0070023D01*
X0216012Y0070104D01*
X0215972Y0070188D01*
X0215935Y0070273D01*
X0215902Y0070359D01*
X0215873Y0070447D01*
X0215848Y0070536D01*
X0215826Y0070626D01*
X0215809Y0070717D01*
X0215795Y0070808D01*
X0215785Y0070900D01*
X0215779Y0070992D01*
X0215777Y0071085D01*
X0233493Y0071085D02*
X0233495Y0071178D01*
X0233501Y0071270D01*
X0233511Y0071362D01*
X0233525Y0071453D01*
X0233542Y0071544D01*
X0233564Y0071634D01*
X0233589Y0071723D01*
X0233618Y0071811D01*
X0233651Y0071897D01*
X0233688Y0071982D01*
X0233728Y0072066D01*
X0233772Y0072147D01*
X0233819Y0072227D01*
X0233869Y0072305D01*
X0233923Y0072380D01*
X0233980Y0072453D01*
X0234040Y0072523D01*
X0234103Y0072591D01*
X0234169Y0072656D01*
X0234237Y0072718D01*
X0234308Y0072778D01*
X0234382Y0072834D01*
X0234458Y0072887D01*
X0234536Y0072936D01*
X0234616Y0072983D01*
X0234698Y0073025D01*
X0234782Y0073065D01*
X0234867Y0073100D01*
X0234954Y0073132D01*
X0235042Y0073161D01*
X0235131Y0073185D01*
X0235221Y0073206D01*
X0235312Y0073222D01*
X0235404Y0073235D01*
X0235496Y0073244D01*
X0235589Y0073249D01*
X0235681Y0073250D01*
X0235774Y0073247D01*
X0235866Y0073240D01*
X0235958Y0073229D01*
X0236049Y0073214D01*
X0236140Y0073196D01*
X0236230Y0073173D01*
X0236318Y0073147D01*
X0236406Y0073117D01*
X0236492Y0073083D01*
X0236576Y0073046D01*
X0236659Y0073004D01*
X0236740Y0072960D01*
X0236820Y0072912D01*
X0236897Y0072861D01*
X0236971Y0072806D01*
X0237044Y0072748D01*
X0237114Y0072688D01*
X0237181Y0072624D01*
X0237245Y0072558D01*
X0237307Y0072488D01*
X0237365Y0072417D01*
X0237420Y0072343D01*
X0237472Y0072266D01*
X0237521Y0072187D01*
X0237567Y0072107D01*
X0237609Y0072024D01*
X0237647Y0071940D01*
X0237682Y0071854D01*
X0237713Y0071767D01*
X0237740Y0071679D01*
X0237763Y0071589D01*
X0237783Y0071499D01*
X0237799Y0071408D01*
X0237811Y0071316D01*
X0237819Y0071224D01*
X0237823Y0071131D01*
X0237823Y0071039D01*
X0237819Y0070946D01*
X0237811Y0070854D01*
X0237799Y0070762D01*
X0237783Y0070671D01*
X0237763Y0070581D01*
X0237740Y0070491D01*
X0237713Y0070403D01*
X0237682Y0070316D01*
X0237647Y0070230D01*
X0237609Y0070146D01*
X0237567Y0070063D01*
X0237521Y0069983D01*
X0237472Y0069904D01*
X0237420Y0069827D01*
X0237365Y0069753D01*
X0237307Y0069682D01*
X0237245Y0069612D01*
X0237181Y0069546D01*
X0237114Y0069482D01*
X0237044Y0069422D01*
X0236971Y0069364D01*
X0236897Y0069309D01*
X0236820Y0069258D01*
X0236741Y0069210D01*
X0236659Y0069166D01*
X0236576Y0069124D01*
X0236492Y0069087D01*
X0236406Y0069053D01*
X0236318Y0069023D01*
X0236230Y0068997D01*
X0236140Y0068974D01*
X0236049Y0068956D01*
X0235958Y0068941D01*
X0235866Y0068930D01*
X0235774Y0068923D01*
X0235681Y0068920D01*
X0235589Y0068921D01*
X0235496Y0068926D01*
X0235404Y0068935D01*
X0235312Y0068948D01*
X0235221Y0068964D01*
X0235131Y0068985D01*
X0235042Y0069009D01*
X0234954Y0069038D01*
X0234867Y0069070D01*
X0234782Y0069105D01*
X0234698Y0069145D01*
X0234616Y0069187D01*
X0234536Y0069234D01*
X0234458Y0069283D01*
X0234382Y0069336D01*
X0234308Y0069392D01*
X0234237Y0069452D01*
X0234169Y0069514D01*
X0234103Y0069579D01*
X0234040Y0069647D01*
X0233980Y0069717D01*
X0233923Y0069790D01*
X0233869Y0069865D01*
X0233819Y0069943D01*
X0233772Y0070023D01*
X0233728Y0070104D01*
X0233688Y0070188D01*
X0233651Y0070273D01*
X0233618Y0070359D01*
X0233589Y0070447D01*
X0233564Y0070536D01*
X0233542Y0070626D01*
X0233525Y0070717D01*
X0233511Y0070808D01*
X0233501Y0070900D01*
X0233495Y0070992D01*
X0233493Y0071085D01*
M02*
