G75*
%MOIN*%
%OFA0B0*%
%FSLAX25Y25*%
%IPPOS*%
%LPD*%
%AMOC8*
5,1,8,0,0,1.08239X$1,22.5*
%
%ADD10C,0.01000*%
%ADD11R,0.12400X0.00200*%
%ADD12R,0.00200X0.00200*%
%ADD13R,0.11600X0.00200*%
%ADD14R,0.17800X0.00200*%
%ADD15R,0.18200X0.00200*%
%ADD16R,0.06400X0.00200*%
%ADD17R,0.18600X0.00200*%
%ADD18C,0.00600*%
%ADD19C,0.00800*%
%ADD20C,0.00500*%
%ADD21C,0.00300*%
%ADD22C,0.00400*%
%ADD23C,0.00100*%
D10*
X0077300Y0110979D02*
X0095300Y0110979D01*
X0095300Y0121479D01*
X0089300Y0121479D01*
X0089300Y0121979D02*
X0089300Y0142979D01*
X0077300Y0142979D01*
X0077300Y0110979D01*
X0077000Y0135879D02*
X0076661Y0135482D01*
X0076333Y0135077D01*
X0076014Y0134663D01*
X0075706Y0134242D01*
X0075408Y0133814D01*
X0075120Y0133378D01*
X0074844Y0132936D01*
X0074578Y0132487D01*
X0074323Y0132031D01*
X0074080Y0131570D01*
X0073848Y0131102D01*
X0073628Y0130629D01*
X0073419Y0130151D01*
X0073222Y0129668D01*
X0073037Y0129180D01*
X0072864Y0128687D01*
X0072703Y0128191D01*
X0072554Y0127691D01*
X0072418Y0127187D01*
X0072294Y0126680D01*
X0072182Y0126170D01*
X0072083Y0125658D01*
X0071997Y0125143D01*
X0071923Y0124627D01*
X0071862Y0124108D01*
X0071814Y0123589D01*
X0071778Y0123068D01*
X0071755Y0122547D01*
X0071746Y0122025D01*
X0071748Y0121503D01*
X0071764Y0120982D01*
X0071792Y0120461D01*
X0071833Y0119940D01*
X0071887Y0119421D01*
X0071954Y0118904D01*
X0072033Y0118388D01*
X0072125Y0117874D01*
X0072230Y0117363D01*
X0072347Y0116855D01*
X0072476Y0116349D01*
X0072618Y0115847D01*
X0072772Y0115348D01*
X0072938Y0114854D01*
X0073117Y0114363D01*
X0073307Y0113877D01*
X0073509Y0113396D01*
X0073723Y0112920D01*
X0073949Y0112450D01*
X0074186Y0111985D01*
X0074434Y0111526D01*
X0074693Y0111073D01*
X0074964Y0110627D01*
X0075245Y0110187D01*
X0075537Y0109755D01*
X0075840Y0109330D01*
X0076153Y0108912D01*
X0076476Y0108502D01*
X0076809Y0108100D01*
X0077152Y0107707D01*
X0077504Y0107322D01*
X0077866Y0106946D01*
X0078237Y0106579D01*
X0078616Y0106221D01*
X0079005Y0105872D01*
X0079401Y0105533D01*
X0079806Y0105204D01*
X0080219Y0104885D01*
X0080640Y0104576D01*
X0081068Y0104278D01*
X0081503Y0103990D01*
X0081945Y0103713D01*
X0082394Y0103446D01*
X0082849Y0103191D01*
X0083311Y0102947D01*
X0083778Y0102715D01*
X0084251Y0102494D01*
X0084729Y0102285D01*
X0085212Y0102087D01*
X0085700Y0101902D01*
X0086192Y0101728D01*
X0086688Y0101567D01*
X0087188Y0101417D01*
X0087691Y0101281D01*
X0088198Y0101156D01*
X0088708Y0101044D01*
X0089220Y0100944D01*
X0089735Y0100857D01*
X0090251Y0100783D01*
X0090769Y0100722D01*
X0091289Y0100673D01*
X0091810Y0100637D01*
X0092331Y0100613D01*
X0092853Y0100603D01*
X0093374Y0100605D01*
X0093896Y0100620D01*
X0094417Y0100648D01*
X0094937Y0100688D01*
X0095457Y0100742D01*
X0095974Y0100808D01*
X0096490Y0100887D01*
X0097004Y0100978D01*
X0097515Y0101082D01*
X0098024Y0101198D01*
X0098530Y0101327D01*
X0099032Y0101468D01*
X0099531Y0101622D01*
X0100026Y0101788D01*
X0100516Y0101965D01*
X0101002Y0102155D01*
X0101484Y0102357D01*
X0101960Y0102570D01*
X0102431Y0102795D01*
X0102896Y0103032D01*
X0103355Y0103280D01*
X0103808Y0103539D01*
X0104255Y0103809D01*
X0104694Y0104089D01*
X0105127Y0104381D01*
X0105553Y0104683D01*
X0105971Y0104996D01*
X0106381Y0105318D01*
X0106783Y0105651D01*
X0107177Y0105993D01*
X0107562Y0106345D01*
X0107939Y0106706D01*
X0108306Y0107077D01*
X0108665Y0107456D01*
X0109014Y0107844D01*
X0109353Y0108240D01*
X0109683Y0108645D01*
X0110002Y0109058D01*
X0110311Y0109478D01*
X0110610Y0109906D01*
X0110899Y0110341D01*
X0111176Y0110782D01*
X0111443Y0111231D01*
X0111699Y0111686D01*
X0111943Y0112147D01*
X0112176Y0112614D01*
X0112397Y0113087D01*
X0112607Y0113564D01*
X0112805Y0114047D01*
X0112991Y0114535D01*
X0113165Y0115027D01*
X0113327Y0115523D01*
X0113477Y0116023D01*
X0113615Y0116526D01*
X0113740Y0117033D01*
X0113852Y0117542D01*
X0113952Y0118054D01*
X0114040Y0118569D01*
X0114115Y0119085D01*
X0114177Y0119603D01*
X0114226Y0120123D01*
X0114263Y0120643D01*
X0114287Y0121165D01*
X0114298Y0121686D01*
X0114296Y0122208D01*
X0114282Y0122730D01*
X0114255Y0123251D01*
X0114215Y0123771D01*
X0114162Y0124290D01*
X0114096Y0124808D01*
X0114018Y0125324D01*
X0113927Y0125838D01*
X0113824Y0126350D01*
X0113708Y0126858D01*
X0113580Y0127364D01*
X0113439Y0127867D01*
X0113286Y0128366D01*
X0113121Y0128861D01*
X0112944Y0129351D01*
X0112754Y0129838D01*
X0112553Y0130319D01*
X0112340Y0130796D01*
X0112116Y0131267D01*
X0111880Y0131732D01*
X0111633Y0132192D01*
X0111374Y0132645D01*
X0111105Y0133092D01*
X0110824Y0133532D01*
X0110533Y0133965D01*
X0110231Y0134391D01*
X0109919Y0134809D01*
X0109597Y0135220D01*
X0109265Y0135622D01*
X0108923Y0136016D01*
X0108572Y0136402D01*
X0108211Y0136779D01*
X0107841Y0137147D01*
X0107462Y0137506D01*
X0107074Y0137855D01*
X0106678Y0138195D01*
X0106274Y0138525D01*
X0105862Y0138845D01*
X0105442Y0139155D01*
X0105015Y0139454D01*
X0104580Y0139743D01*
X0104138Y0140021D01*
X0103690Y0140288D01*
X0103235Y0140544D01*
X0102775Y0140789D01*
X0102308Y0141023D01*
X0101836Y0141245D01*
X0101358Y0141455D01*
X0100875Y0141654D01*
X0100388Y0141840D01*
X0099896Y0142015D01*
X0099400Y0142177D01*
X0098901Y0142328D01*
X0098397Y0142466D01*
X0097891Y0142591D01*
X0097382Y0142705D01*
X0096870Y0142805D01*
X0096355Y0142893D01*
X0095839Y0142969D01*
X0095321Y0143031D01*
X0094801Y0143081D01*
X0094281Y0143119D01*
X0093760Y0143143D01*
X0093238Y0143155D01*
X0092716Y0143154D01*
X0092194Y0143140D01*
X0091673Y0143113D01*
X0091153Y0143074D01*
X0090634Y0143022D01*
X0090116Y0142957D01*
X0089600Y0142879D01*
D11*
X0083500Y0143079D03*
D12*
X0077400Y0142879D03*
X0077400Y0142679D03*
X0077400Y0142479D03*
X0077400Y0142279D03*
X0077400Y0142079D03*
X0077400Y0141879D03*
X0077400Y0141679D03*
X0077400Y0141479D03*
X0077400Y0141279D03*
X0077400Y0141079D03*
X0077400Y0140879D03*
X0077400Y0140679D03*
X0077400Y0140479D03*
X0077400Y0140279D03*
X0077400Y0140079D03*
X0077400Y0139879D03*
X0077400Y0139679D03*
X0077400Y0139479D03*
X0077400Y0139279D03*
X0077400Y0139079D03*
X0077400Y0138879D03*
X0077400Y0138679D03*
X0077400Y0138479D03*
X0077400Y0138279D03*
X0077400Y0138079D03*
X0077400Y0137879D03*
X0077400Y0137679D03*
X0077400Y0137479D03*
X0077400Y0137279D03*
X0077400Y0137079D03*
X0077400Y0136879D03*
X0077400Y0136679D03*
X0077400Y0136479D03*
X0077400Y0136279D03*
X0077400Y0136079D03*
X0077400Y0135879D03*
X0077400Y0135679D03*
X0077400Y0135479D03*
X0077400Y0135279D03*
X0077400Y0135079D03*
X0077400Y0134879D03*
X0077400Y0134679D03*
X0077400Y0134479D03*
X0077400Y0134279D03*
X0077400Y0134079D03*
X0077400Y0133879D03*
X0077400Y0133679D03*
X0077400Y0133479D03*
X0077400Y0133279D03*
X0077400Y0133079D03*
X0077400Y0132879D03*
X0077400Y0132679D03*
X0077400Y0132479D03*
X0077400Y0132279D03*
X0077400Y0132079D03*
X0077400Y0131879D03*
X0077400Y0131679D03*
X0077400Y0131479D03*
X0077400Y0131279D03*
X0077400Y0131079D03*
X0077400Y0130879D03*
X0077400Y0130679D03*
X0077400Y0130479D03*
X0077400Y0130279D03*
X0077400Y0130079D03*
X0077400Y0129879D03*
X0077400Y0129679D03*
X0077400Y0129479D03*
X0077400Y0129279D03*
X0077400Y0129079D03*
X0077400Y0128879D03*
X0077400Y0128679D03*
X0077400Y0128479D03*
X0077400Y0128279D03*
X0077400Y0128079D03*
X0077400Y0127879D03*
X0077400Y0127679D03*
X0077400Y0127479D03*
X0077400Y0127279D03*
X0077400Y0127079D03*
X0077400Y0126879D03*
X0077400Y0126679D03*
X0077400Y0126479D03*
X0077400Y0126279D03*
X0077400Y0126079D03*
X0077400Y0125879D03*
X0077400Y0125679D03*
X0077400Y0125479D03*
X0077400Y0125279D03*
X0077400Y0125079D03*
X0077400Y0124879D03*
X0077400Y0124679D03*
X0077400Y0124479D03*
X0077400Y0124279D03*
X0077400Y0124079D03*
X0077400Y0123879D03*
X0077400Y0123679D03*
X0077400Y0123479D03*
X0077400Y0123279D03*
X0077400Y0123079D03*
X0077400Y0122879D03*
X0077400Y0122679D03*
X0077400Y0122479D03*
X0077400Y0122279D03*
X0077400Y0122079D03*
X0077400Y0121879D03*
X0077400Y0121679D03*
X0077400Y0121479D03*
X0077400Y0121279D03*
X0077400Y0121079D03*
X0077400Y0120879D03*
X0077400Y0120679D03*
X0077400Y0120479D03*
X0077400Y0120279D03*
X0077400Y0120079D03*
X0077400Y0119879D03*
X0077400Y0119679D03*
X0077400Y0119479D03*
X0077400Y0119279D03*
X0077400Y0119079D03*
X0077400Y0118879D03*
X0077400Y0118679D03*
X0077400Y0118479D03*
X0077400Y0118279D03*
X0077400Y0118079D03*
X0077400Y0117879D03*
X0077400Y0117679D03*
X0077400Y0117479D03*
X0077400Y0117279D03*
X0077400Y0117079D03*
X0077400Y0116879D03*
X0077400Y0116679D03*
X0077400Y0116479D03*
X0077400Y0116279D03*
X0077400Y0116079D03*
X0077400Y0115879D03*
X0077400Y0115679D03*
X0077400Y0115479D03*
X0077400Y0115279D03*
X0077400Y0115079D03*
X0077400Y0114879D03*
X0077400Y0114679D03*
X0077400Y0114479D03*
X0077400Y0114279D03*
X0077400Y0114079D03*
X0077400Y0113879D03*
X0077400Y0113679D03*
X0077400Y0113479D03*
X0077400Y0113279D03*
X0077400Y0113079D03*
X0077400Y0112879D03*
X0077400Y0112679D03*
X0077400Y0112479D03*
X0077400Y0112279D03*
X0077400Y0112079D03*
X0077400Y0111879D03*
X0077400Y0111679D03*
X0077400Y0111479D03*
X0089600Y0122279D03*
X0089600Y0122479D03*
X0089600Y0122679D03*
X0089600Y0122879D03*
X0089600Y0123079D03*
X0089600Y0123279D03*
X0089600Y0123479D03*
X0089600Y0123679D03*
X0089600Y0123879D03*
X0089600Y0124079D03*
X0089600Y0124279D03*
X0089600Y0124479D03*
X0089600Y0124679D03*
X0089600Y0124879D03*
X0089600Y0125079D03*
X0089600Y0125279D03*
X0089600Y0125479D03*
X0089600Y0125679D03*
X0089600Y0125879D03*
X0089600Y0126079D03*
X0089600Y0126279D03*
X0089600Y0126479D03*
X0089600Y0126679D03*
X0089600Y0126879D03*
X0089600Y0127079D03*
X0089600Y0127279D03*
X0089600Y0127479D03*
X0089600Y0127679D03*
X0089600Y0127879D03*
X0089600Y0128079D03*
X0089600Y0128279D03*
X0089600Y0128479D03*
X0089600Y0128679D03*
X0089600Y0128879D03*
X0089600Y0129079D03*
X0089600Y0129279D03*
X0089600Y0129479D03*
X0089600Y0129679D03*
X0089600Y0129879D03*
X0089600Y0130079D03*
X0089600Y0130279D03*
X0089600Y0130479D03*
X0089600Y0130679D03*
X0089600Y0130879D03*
X0089600Y0131079D03*
X0089600Y0131279D03*
X0089600Y0131479D03*
X0089600Y0131679D03*
X0089600Y0131879D03*
X0089600Y0132079D03*
X0089600Y0132279D03*
X0089600Y0132479D03*
X0089600Y0132679D03*
X0089600Y0132879D03*
X0089600Y0133079D03*
X0089600Y0133279D03*
X0089600Y0133479D03*
X0089600Y0133679D03*
X0089600Y0133879D03*
X0089600Y0134079D03*
X0089600Y0134279D03*
X0089600Y0134479D03*
X0089600Y0134679D03*
X0089600Y0134879D03*
X0089600Y0135079D03*
X0089600Y0135279D03*
X0089600Y0135479D03*
X0089600Y0135679D03*
X0089600Y0135879D03*
X0089600Y0136079D03*
X0089600Y0136279D03*
X0089600Y0136479D03*
X0089600Y0136679D03*
X0089600Y0136879D03*
X0089600Y0137079D03*
X0089600Y0137279D03*
X0089600Y0137479D03*
X0089600Y0137679D03*
X0089600Y0137879D03*
X0089600Y0138079D03*
X0089600Y0138279D03*
X0089600Y0138479D03*
X0089600Y0138679D03*
X0089600Y0138879D03*
X0089600Y0139079D03*
X0089600Y0139279D03*
X0089600Y0139479D03*
X0089600Y0139679D03*
X0089600Y0139879D03*
X0089600Y0140079D03*
X0089600Y0140279D03*
X0089600Y0140479D03*
X0089600Y0140679D03*
X0089600Y0140879D03*
X0089600Y0141079D03*
X0089600Y0141279D03*
X0089600Y0141479D03*
X0089600Y0141679D03*
X0089600Y0141879D03*
X0089600Y0142079D03*
X0089600Y0142279D03*
X0089600Y0142479D03*
X0089600Y0142679D03*
X0089600Y0142879D03*
X0095800Y0121679D03*
X0095800Y0121479D03*
X0095800Y0121279D03*
X0095800Y0121079D03*
X0095800Y0120879D03*
X0095800Y0120679D03*
X0095800Y0120479D03*
X0095800Y0120279D03*
X0095800Y0120079D03*
X0095800Y0119879D03*
X0095800Y0119679D03*
X0095800Y0119479D03*
X0095800Y0119279D03*
X0095800Y0119079D03*
X0095800Y0118879D03*
X0095800Y0118679D03*
X0095800Y0118479D03*
X0095800Y0118279D03*
X0095800Y0118079D03*
X0095800Y0117879D03*
X0095800Y0117679D03*
X0095800Y0117479D03*
X0095800Y0117279D03*
X0095800Y0117079D03*
X0095800Y0116879D03*
X0095800Y0116679D03*
X0095800Y0116479D03*
X0095800Y0116279D03*
X0095800Y0116079D03*
X0095800Y0115879D03*
X0095800Y0115679D03*
X0095800Y0115479D03*
X0095800Y0115279D03*
X0095800Y0115079D03*
X0095800Y0114879D03*
X0095800Y0114679D03*
X0095800Y0114479D03*
X0095800Y0114279D03*
X0095800Y0114079D03*
X0095800Y0113879D03*
X0095800Y0113679D03*
X0095800Y0113479D03*
X0095800Y0113279D03*
X0095800Y0113079D03*
X0095800Y0112879D03*
X0095800Y0112679D03*
X0095800Y0112479D03*
X0095800Y0112279D03*
X0095800Y0112079D03*
X0095800Y0111879D03*
X0095800Y0111679D03*
X0095800Y0111479D03*
D13*
X0101900Y0111479D03*
X0101900Y0111679D03*
X0101900Y0111879D03*
X0101900Y0112079D03*
X0101900Y0112279D03*
X0101900Y0112479D03*
X0101900Y0112679D03*
X0101900Y0112879D03*
X0101900Y0113079D03*
X0101900Y0113279D03*
X0101900Y0113479D03*
X0101900Y0113679D03*
X0101900Y0113879D03*
X0101900Y0114079D03*
X0101900Y0114279D03*
X0101900Y0114479D03*
X0101900Y0114679D03*
X0101900Y0114879D03*
X0101900Y0115079D03*
X0101900Y0115279D03*
X0101900Y0115479D03*
X0101900Y0115679D03*
X0101900Y0115879D03*
X0101900Y0116079D03*
X0101900Y0116279D03*
X0101900Y0116479D03*
X0101900Y0116679D03*
X0101900Y0116879D03*
X0101900Y0117079D03*
X0101900Y0117279D03*
X0101900Y0117479D03*
X0101900Y0117679D03*
X0101900Y0117879D03*
X0101900Y0118079D03*
X0101900Y0118279D03*
X0101900Y0118479D03*
X0101900Y0118679D03*
X0101900Y0118879D03*
X0101900Y0119079D03*
X0101900Y0119279D03*
X0101900Y0119479D03*
X0101900Y0119679D03*
X0101900Y0119879D03*
X0101900Y0120079D03*
X0101900Y0120279D03*
X0101900Y0120479D03*
X0101900Y0120679D03*
X0101900Y0120879D03*
X0101900Y0121079D03*
X0101900Y0121279D03*
X0101900Y0121479D03*
X0101900Y0121679D03*
X0101900Y0121879D03*
X0101900Y0111279D03*
X0101900Y0111079D03*
X0101900Y0110879D03*
X0101900Y0110679D03*
X0101900Y0110479D03*
X0101900Y0110279D03*
X0101900Y0110079D03*
X0101900Y0109879D03*
X0101900Y0109679D03*
X0101900Y0109479D03*
X0101900Y0109279D03*
X0101900Y0109079D03*
X0101900Y0108879D03*
X0101900Y0108679D03*
X0101900Y0108479D03*
X0101900Y0108279D03*
X0101900Y0108079D03*
X0101900Y0107879D03*
X0101900Y0107679D03*
X0101900Y0107479D03*
X0101900Y0107279D03*
X0101900Y0107079D03*
X0101900Y0106879D03*
X0101900Y0106679D03*
X0101900Y0106479D03*
X0101900Y0106279D03*
X0101900Y0106079D03*
X0101900Y0105879D03*
X0101900Y0105679D03*
X0101900Y0105479D03*
X0101900Y0105279D03*
X0101900Y0105079D03*
X0101900Y0104879D03*
X0101900Y0104679D03*
X0101900Y0104479D03*
X0101900Y0104279D03*
X0101900Y0104079D03*
X0101900Y0103879D03*
X0101900Y0103679D03*
X0101900Y0103479D03*
X0101900Y0103279D03*
X0101900Y0103079D03*
X0101900Y0102879D03*
X0101900Y0102679D03*
X0101900Y0102479D03*
X0101900Y0102279D03*
X0101900Y0102079D03*
X0101900Y0101879D03*
X0101900Y0101679D03*
X0101900Y0101479D03*
X0101900Y0101279D03*
X0101900Y0101079D03*
X0083500Y0142879D03*
D14*
X0098800Y0132079D03*
X0098800Y0131879D03*
X0098800Y0131679D03*
X0098800Y0131479D03*
X0098800Y0131279D03*
X0098800Y0131079D03*
X0098800Y0130879D03*
X0098800Y0130679D03*
X0098800Y0130479D03*
X0098800Y0130279D03*
X0098800Y0130079D03*
X0098800Y0129879D03*
X0098800Y0129679D03*
X0098800Y0129479D03*
X0098800Y0129279D03*
X0098800Y0129079D03*
X0098800Y0128879D03*
X0098800Y0128679D03*
X0098800Y0128479D03*
X0098800Y0128279D03*
X0098800Y0128079D03*
X0098800Y0127879D03*
X0098800Y0127679D03*
X0098800Y0127479D03*
X0098800Y0127279D03*
X0098800Y0127079D03*
X0098800Y0126879D03*
X0098800Y0126679D03*
X0098800Y0126479D03*
X0098800Y0126279D03*
X0098800Y0126079D03*
X0098800Y0125879D03*
X0098800Y0125679D03*
X0098800Y0125479D03*
X0098800Y0125279D03*
X0098800Y0125079D03*
X0098800Y0124879D03*
X0098800Y0124679D03*
X0098800Y0124479D03*
X0098800Y0124279D03*
X0098800Y0124079D03*
X0098800Y0123879D03*
X0098800Y0123679D03*
X0098800Y0123479D03*
X0098800Y0123279D03*
X0098800Y0123079D03*
X0098800Y0122879D03*
X0098800Y0122679D03*
X0098800Y0122479D03*
X0098800Y0122279D03*
D15*
X0098600Y0122079D03*
D16*
X0092700Y0121879D03*
D17*
X0086600Y0111279D03*
X0086600Y0111079D03*
D18*
X0013297Y0041779D02*
X0012230Y0042846D01*
X0012230Y0044981D01*
X0013297Y0046049D01*
X0014365Y0046049D01*
X0014365Y0041779D01*
X0015432Y0041779D02*
X0013297Y0041779D01*
X0015432Y0041779D02*
X0016500Y0042846D01*
X0016500Y0044981D01*
X0016500Y0048224D02*
X0016500Y0051427D01*
X0015432Y0052495D01*
X0014365Y0051427D01*
X0014365Y0049292D01*
X0013297Y0048224D01*
X0012230Y0049292D01*
X0012230Y0052495D01*
X0012230Y0054670D02*
X0012230Y0057872D01*
X0013297Y0058940D01*
X0015432Y0058940D01*
X0016500Y0057872D01*
X0016500Y0054670D01*
X0010095Y0054670D01*
X0012230Y0081779D02*
X0012230Y0082846D01*
X0013297Y0083914D01*
X0012230Y0084981D01*
X0013297Y0086049D01*
X0016500Y0086049D01*
X0016500Y0083914D02*
X0013297Y0083914D01*
X0012230Y0081779D02*
X0016500Y0081779D01*
X0015432Y0088224D02*
X0011162Y0088224D01*
X0010095Y0089292D01*
X0010095Y0091427D01*
X0011162Y0092495D01*
X0015432Y0092495D01*
X0016500Y0091427D01*
X0016500Y0089292D01*
X0015432Y0088224D01*
X0015432Y0094670D02*
X0013297Y0094670D01*
X0012230Y0095737D01*
X0012230Y0097872D01*
X0013297Y0098940D01*
X0015432Y0098940D01*
X0016500Y0097872D01*
X0016500Y0095737D01*
X0015432Y0094670D01*
X0014365Y0101115D02*
X0014365Y0104318D01*
X0013297Y0105386D01*
X0011162Y0105386D01*
X0010095Y0104318D01*
X0010095Y0101115D01*
X0016500Y0101115D01*
X0015432Y0114006D02*
X0011162Y0114006D01*
X0010095Y0115074D01*
X0010095Y0117209D01*
X0011162Y0118277D01*
X0015432Y0118277D01*
X0016500Y0117209D01*
X0016500Y0115074D01*
X0015432Y0114006D01*
X0015432Y0120452D02*
X0013297Y0120452D01*
X0012230Y0121519D01*
X0012230Y0123654D01*
X0013297Y0124722D01*
X0015432Y0124722D01*
X0016500Y0123654D01*
X0016500Y0121519D01*
X0015432Y0120452D01*
X0053168Y0101049D02*
X0055303Y0101049D01*
X0056370Y0099981D01*
X0056370Y0096779D01*
X0053168Y0096779D01*
X0052100Y0097846D01*
X0053168Y0098914D01*
X0056370Y0098914D01*
X0058545Y0097846D02*
X0059613Y0096779D01*
X0062816Y0096779D01*
X0062816Y0101049D01*
X0064991Y0099981D02*
X0066059Y0101049D01*
X0069261Y0101049D01*
X0069261Y0103184D02*
X0069261Y0096779D01*
X0066059Y0096779D01*
X0064991Y0097846D01*
X0064991Y0099981D01*
X0058545Y0101049D02*
X0058545Y0097846D01*
X0071436Y0096779D02*
X0073572Y0096779D01*
X0072504Y0096779D02*
X0072504Y0101049D01*
X0071436Y0101049D01*
X0072504Y0103184D02*
X0072504Y0104252D01*
X0075733Y0099981D02*
X0076801Y0101049D01*
X0078936Y0101049D01*
X0080004Y0099981D01*
X0080004Y0097846D01*
X0078936Y0096779D01*
X0076801Y0096779D01*
X0075733Y0097846D01*
X0075733Y0099981D01*
X0063406Y0081802D02*
X0063406Y0081794D01*
X0063406Y0081802D02*
X0110981Y0081802D01*
X0110981Y0064294D01*
X0110981Y0055794D02*
X0110981Y0035644D01*
X0099194Y0035644D01*
X0075194Y0035644D01*
X0063406Y0035644D01*
X0063406Y0074294D01*
X0075194Y0035644D02*
X0075194Y0024825D01*
X0099194Y0024825D01*
X0097194Y0022825D01*
X0077194Y0022825D01*
X0075194Y0024825D01*
X0099194Y0024825D02*
X0099194Y0035644D01*
X0127100Y0031049D02*
X0127100Y0026779D01*
X0129235Y0026779D02*
X0129235Y0029981D01*
X0130303Y0031049D01*
X0131370Y0029981D01*
X0131370Y0026779D01*
X0133545Y0026779D02*
X0135681Y0026779D01*
X0134613Y0026779D02*
X0134613Y0031049D01*
X0133545Y0031049D01*
X0134613Y0033184D02*
X0134613Y0034252D01*
X0137842Y0029981D02*
X0138910Y0031049D01*
X0142113Y0031049D01*
X0141045Y0028914D02*
X0138910Y0028914D01*
X0137842Y0029981D01*
X0137842Y0026779D02*
X0141045Y0026779D01*
X0142113Y0027846D01*
X0141045Y0028914D01*
X0144288Y0029981D02*
X0145356Y0031049D01*
X0147491Y0031049D01*
X0148558Y0029981D01*
X0148558Y0027846D01*
X0147491Y0026779D01*
X0145356Y0026779D01*
X0144288Y0027846D01*
X0144288Y0029981D01*
X0152100Y0036779D02*
X0155303Y0036779D01*
X0156370Y0037846D01*
X0155303Y0038914D01*
X0153168Y0038914D01*
X0152100Y0039981D01*
X0153168Y0041049D01*
X0156370Y0041049D01*
X0158545Y0039981D02*
X0158545Y0037846D01*
X0159613Y0036779D01*
X0162816Y0036779D01*
X0164991Y0036779D02*
X0164991Y0043184D01*
X0162816Y0041049D02*
X0159613Y0041049D01*
X0158545Y0039981D01*
X0164991Y0038914D02*
X0168194Y0041049D01*
X0164991Y0038914D02*
X0168194Y0036779D01*
X0129235Y0029981D02*
X0128168Y0031049D01*
X0127100Y0031049D01*
X0212100Y0091779D02*
X0215303Y0091779D01*
X0216370Y0092846D01*
X0216370Y0097117D01*
X0215303Y0098184D01*
X0212100Y0098184D01*
X0212100Y0091779D01*
X0218545Y0094981D02*
X0222816Y0094981D01*
X0220681Y0092846D02*
X0220681Y0097117D01*
X0220303Y0116779D02*
X0218168Y0116779D01*
X0217100Y0117846D01*
X0218168Y0119981D02*
X0220303Y0119981D01*
X0221370Y0118914D01*
X0221370Y0117846D01*
X0220303Y0116779D01*
X0223545Y0116779D02*
X0226748Y0116779D01*
X0227816Y0117846D01*
X0227816Y0122117D01*
X0226748Y0123184D01*
X0223545Y0123184D01*
X0223545Y0116779D01*
X0218168Y0119981D02*
X0217100Y0121049D01*
X0217100Y0122117D01*
X0218168Y0123184D01*
X0220303Y0123184D01*
X0221370Y0122117D01*
X0216800Y0124379D02*
X0249028Y0124379D01*
X0247152Y0122117D02*
X0246085Y0123184D01*
X0243950Y0123184D01*
X0242882Y0122117D01*
X0242882Y0121049D01*
X0243950Y0119981D01*
X0246085Y0119981D01*
X0247152Y0118914D01*
X0247152Y0117846D01*
X0246085Y0116779D01*
X0243950Y0116779D01*
X0242882Y0117846D01*
X0240707Y0117846D02*
X0239639Y0116779D01*
X0237504Y0116779D01*
X0236436Y0117846D01*
X0236436Y0122117D01*
X0237504Y0123184D01*
X0239639Y0123184D01*
X0240707Y0122117D01*
X0234261Y0115711D02*
X0229991Y0115711D01*
X0180242Y0178279D02*
X0175971Y0182549D01*
X0173803Y0182549D02*
X0172735Y0182549D01*
X0170600Y0180414D01*
X0170600Y0178279D02*
X0170600Y0182549D01*
X0175971Y0178279D02*
X0180242Y0182549D01*
X0180397Y0190279D02*
X0184667Y0194549D01*
X0180397Y0194549D02*
X0184667Y0190279D01*
X0178235Y0190279D02*
X0177168Y0191346D01*
X0177168Y0195617D01*
X0178235Y0194549D02*
X0176100Y0194549D01*
X0161099Y0189380D02*
X0161099Y0203577D01*
X0161386Y0218279D02*
X0163521Y0218279D01*
X0164588Y0219346D01*
X0166763Y0218279D02*
X0166763Y0222549D01*
X0168899Y0224684D01*
X0171034Y0222549D01*
X0171034Y0218279D01*
X0173209Y0218279D02*
X0173209Y0224684D01*
X0177479Y0218279D01*
X0177479Y0224684D01*
X0179654Y0224684D02*
X0179654Y0218279D01*
X0183925Y0218279D01*
X0171034Y0221481D02*
X0166763Y0221481D01*
X0164588Y0223617D02*
X0163521Y0224684D01*
X0161386Y0224684D01*
X0160318Y0223617D01*
X0160318Y0219346D01*
X0161386Y0218279D01*
X0141425Y0217779D02*
X0141425Y0224184D01*
X0141425Y0220981D02*
X0137154Y0220981D01*
X0137154Y0217779D02*
X0137154Y0224184D01*
X0134979Y0224184D02*
X0134979Y0217779D01*
X0130709Y0224184D01*
X0130709Y0217779D01*
X0128534Y0217779D02*
X0128534Y0222049D01*
X0126399Y0224184D01*
X0124263Y0222049D01*
X0124263Y0217779D01*
X0122088Y0218846D02*
X0121021Y0217779D01*
X0118886Y0217779D01*
X0117818Y0218846D01*
X0117818Y0223117D01*
X0118886Y0224184D01*
X0121021Y0224184D01*
X0122088Y0223117D01*
X0124263Y0220981D02*
X0128534Y0220981D01*
X0142501Y0203577D02*
X0142501Y0189380D01*
X0120707Y0167117D02*
X0120707Y0166049D01*
X0119639Y0164981D01*
X0120707Y0163914D01*
X0120707Y0162846D01*
X0119639Y0161779D01*
X0117504Y0161779D01*
X0116436Y0162846D01*
X0118572Y0164981D02*
X0119639Y0164981D01*
X0120707Y0167117D02*
X0119639Y0168184D01*
X0117504Y0168184D01*
X0116436Y0167117D01*
X0114261Y0166049D02*
X0112126Y0161779D01*
X0109991Y0166049D01*
X0107816Y0166049D02*
X0106748Y0164981D01*
X0107816Y0163914D01*
X0107816Y0162846D01*
X0106748Y0161779D01*
X0104613Y0161779D01*
X0103545Y0162846D01*
X0105681Y0164981D02*
X0106748Y0164981D01*
X0107816Y0166049D02*
X0107816Y0167117D01*
X0106748Y0168184D01*
X0104613Y0168184D01*
X0103545Y0167117D01*
X0101370Y0164981D02*
X0097100Y0164981D01*
X0099235Y0162846D02*
X0099235Y0167117D01*
X0086099Y0189380D02*
X0086099Y0203577D01*
X0097100Y0208549D02*
X0099235Y0208549D01*
X0098168Y0209617D02*
X0098168Y0205346D01*
X0099235Y0204279D01*
X0101397Y0204279D02*
X0105667Y0208549D01*
X0101397Y0208549D02*
X0105667Y0204279D01*
X0105303Y0196049D02*
X0104235Y0196049D01*
X0102100Y0193914D01*
X0102100Y0191779D02*
X0102100Y0196049D01*
X0107471Y0196049D02*
X0111742Y0191779D01*
X0111742Y0196049D02*
X0107471Y0191779D01*
X0092932Y0220279D02*
X0088662Y0220279D01*
X0087595Y0221346D01*
X0087595Y0223481D01*
X0088662Y0224549D01*
X0089730Y0226724D02*
X0087595Y0228859D01*
X0089730Y0230995D01*
X0094000Y0230995D01*
X0094000Y0233170D02*
X0087595Y0233170D01*
X0094000Y0237440D01*
X0087595Y0237440D01*
X0087595Y0239615D02*
X0094000Y0239615D01*
X0094000Y0243886D01*
X0090797Y0230995D02*
X0090797Y0226724D01*
X0089730Y0226724D02*
X0094000Y0226724D01*
X0092932Y0224549D02*
X0094000Y0223481D01*
X0094000Y0221346D01*
X0092932Y0220279D01*
X0067501Y0203577D02*
X0067501Y0189380D01*
X0061932Y0219497D02*
X0057662Y0219497D01*
X0056595Y0220564D01*
X0056595Y0222699D01*
X0057662Y0223767D01*
X0058730Y0225942D02*
X0056595Y0228077D01*
X0058730Y0230213D01*
X0063000Y0230213D01*
X0063000Y0232388D02*
X0056595Y0232388D01*
X0063000Y0236658D01*
X0056595Y0236658D01*
X0056595Y0238833D02*
X0063000Y0238833D01*
X0059797Y0238833D02*
X0059797Y0243104D01*
X0056595Y0243104D02*
X0063000Y0243104D01*
X0059797Y0230213D02*
X0059797Y0225942D01*
X0058730Y0225942D02*
X0063000Y0225942D01*
X0061932Y0223767D02*
X0063000Y0222699D01*
X0063000Y0220564D01*
X0061932Y0219497D01*
X0017816Y0226779D02*
X0017816Y0229981D01*
X0016748Y0231049D01*
X0013545Y0231049D01*
X0013545Y0226779D01*
X0011370Y0226779D02*
X0011370Y0229981D01*
X0010303Y0231049D01*
X0008168Y0231049D01*
X0008168Y0228914D02*
X0011370Y0228914D01*
X0011370Y0226779D02*
X0008168Y0226779D01*
X0007100Y0227846D01*
X0008168Y0228914D01*
X0253595Y0231779D02*
X0253595Y0234981D01*
X0254662Y0236049D01*
X0255730Y0236049D01*
X0256797Y0234981D01*
X0256797Y0231779D01*
X0253595Y0231779D02*
X0260000Y0231779D01*
X0260000Y0234981D01*
X0258932Y0236049D01*
X0257865Y0236049D01*
X0256797Y0234981D01*
X0253595Y0238224D02*
X0260000Y0238224D01*
X0260000Y0242495D01*
X0284027Y0222846D02*
X0285095Y0222846D01*
X0287230Y0222846D02*
X0291500Y0222846D01*
X0291500Y0221779D02*
X0291500Y0223914D01*
X0290432Y0226076D02*
X0291500Y0227143D01*
X0291500Y0230346D01*
X0292568Y0230346D02*
X0287230Y0230346D01*
X0287230Y0227143D01*
X0288297Y0226076D01*
X0290432Y0226076D01*
X0293635Y0228211D02*
X0293635Y0229278D01*
X0292568Y0230346D01*
X0287230Y0222846D02*
X0287230Y0221779D01*
X0272504Y0039252D02*
X0272504Y0038184D01*
X0272504Y0036049D02*
X0271436Y0036049D01*
X0272504Y0036049D02*
X0272504Y0031779D01*
X0271436Y0031779D02*
X0273572Y0031779D01*
X0269261Y0032846D02*
X0268194Y0033914D01*
X0266059Y0033914D01*
X0264991Y0034981D01*
X0266059Y0036049D01*
X0269261Y0036049D01*
X0269261Y0032846D02*
X0268194Y0031779D01*
X0264991Y0031779D01*
X0262816Y0032846D02*
X0262816Y0034981D01*
X0261748Y0036049D01*
X0259613Y0036049D01*
X0258545Y0034981D01*
X0258545Y0032846D01*
X0259613Y0031779D01*
X0261748Y0031779D01*
X0262816Y0032846D01*
X0256370Y0031779D02*
X0256370Y0034981D01*
X0255303Y0036049D01*
X0254235Y0034981D01*
X0254235Y0031779D01*
X0252100Y0031779D02*
X0252100Y0036049D01*
X0253168Y0036049D01*
X0254235Y0034981D01*
D19*
X0250422Y0059668D02*
X0250422Y0063605D01*
X0250422Y0059668D02*
X0203178Y0059668D01*
X0203178Y0063605D01*
X0211052Y0075416D02*
X0242548Y0075416D01*
X0245735Y0098879D02*
X0244200Y0100413D01*
X0244200Y0103483D01*
X0245735Y0105017D01*
X0250339Y0105017D01*
X0253408Y0103483D02*
X0259546Y0103483D01*
X0250339Y0108087D02*
X0250339Y0098879D01*
X0245735Y0098879D01*
X0191918Y0101479D02*
X0172627Y0101479D01*
X0161997Y0101479D02*
X0150186Y0101479D01*
X0139556Y0101479D02*
X0136800Y0101479D01*
X0136800Y0053841D01*
X0129500Y0055679D02*
X0124100Y0055679D01*
X0124100Y0067279D01*
X0129500Y0067279D01*
X0129500Y0055679D01*
X0143099Y0047935D02*
X0176170Y0047935D01*
X0176170Y0047936D02*
X0176296Y0047931D01*
X0176421Y0047922D01*
X0176546Y0047909D01*
X0176670Y0047892D01*
X0176794Y0047872D01*
X0176917Y0047848D01*
X0177039Y0047820D01*
X0177160Y0047788D01*
X0177280Y0047752D01*
X0177399Y0047713D01*
X0177517Y0047670D01*
X0177633Y0047623D01*
X0177748Y0047573D01*
X0177862Y0047519D01*
X0177973Y0047461D01*
X0178083Y0047401D01*
X0178190Y0047336D01*
X0178296Y0047269D01*
X0178400Y0047198D01*
X0178501Y0047124D01*
X0178600Y0047047D01*
X0178697Y0046967D01*
X0178791Y0046884D01*
X0178882Y0046799D01*
X0178971Y0046710D01*
X0179056Y0046619D01*
X0179139Y0046525D01*
X0179219Y0046428D01*
X0179296Y0046329D01*
X0179370Y0046228D01*
X0179441Y0046124D01*
X0179508Y0046018D01*
X0179573Y0045911D01*
X0179633Y0045801D01*
X0179691Y0045690D01*
X0179745Y0045576D01*
X0179795Y0045461D01*
X0179842Y0045345D01*
X0179885Y0045227D01*
X0179924Y0045108D01*
X0179960Y0044988D01*
X0179992Y0044867D01*
X0180020Y0044745D01*
X0180044Y0044622D01*
X0180064Y0044498D01*
X0180081Y0044374D01*
X0180094Y0044249D01*
X0180103Y0044124D01*
X0180108Y0043998D01*
X0180107Y0043999D02*
X0180101Y0043898D01*
X0180099Y0043798D01*
X0180101Y0043697D01*
X0180107Y0043597D01*
X0180117Y0043497D01*
X0180131Y0043397D01*
X0180149Y0043298D01*
X0180171Y0043200D01*
X0180196Y0043103D01*
X0180225Y0043006D01*
X0180258Y0042911D01*
X0180295Y0042818D01*
X0180336Y0042726D01*
X0180380Y0042635D01*
X0180427Y0042546D01*
X0180478Y0042460D01*
X0180532Y0042375D01*
X0180590Y0042292D01*
X0180650Y0042212D01*
X0180714Y0042135D01*
X0180781Y0042059D01*
X0180851Y0041987D01*
X0180923Y0041917D01*
X0180999Y0041850D01*
X0181076Y0041786D01*
X0181156Y0041726D01*
X0181239Y0041668D01*
X0181324Y0041614D01*
X0181410Y0041563D01*
X0181499Y0041516D01*
X0181590Y0041472D01*
X0181682Y0041431D01*
X0181775Y0041394D01*
X0181870Y0041361D01*
X0181967Y0041332D01*
X0182064Y0041307D01*
X0182162Y0041285D01*
X0182261Y0041267D01*
X0182361Y0041253D01*
X0182461Y0041243D01*
X0182561Y0041237D01*
X0182662Y0041235D01*
X0182762Y0041237D01*
X0182863Y0041243D01*
X0186013Y0041243D01*
X0191918Y0049510D02*
X0191918Y0101479D01*
X0189500Y0115679D02*
X0184100Y0115679D01*
X0184100Y0127279D01*
X0189500Y0127279D01*
X0189500Y0115679D01*
X0179500Y0115679D02*
X0174100Y0115679D01*
X0174100Y0127279D01*
X0179500Y0127279D01*
X0179500Y0115679D01*
X0177200Y0131879D02*
X0181804Y0131879D01*
X0183339Y0133413D01*
X0183339Y0136483D01*
X0181804Y0138017D01*
X0177200Y0138017D01*
X0177200Y0141087D02*
X0177200Y0131879D01*
X0186408Y0133413D02*
X0187942Y0131879D01*
X0191012Y0131879D01*
X0192546Y0133413D01*
X0192546Y0134948D01*
X0191012Y0136483D01*
X0187942Y0136483D01*
X0186408Y0138017D01*
X0186408Y0139552D01*
X0187942Y0141087D01*
X0191012Y0141087D01*
X0192546Y0139552D01*
X0188982Y0146879D02*
X0184378Y0146879D01*
X0185913Y0149948D02*
X0184378Y0151483D01*
X0185913Y0153017D01*
X0190516Y0153017D01*
X0188982Y0149948D02*
X0185913Y0149948D01*
X0188982Y0149948D02*
X0190516Y0148413D01*
X0188982Y0146879D01*
X0181309Y0149948D02*
X0175170Y0149948D01*
X0175170Y0148413D02*
X0175170Y0151483D01*
X0176705Y0153017D01*
X0179774Y0153017D01*
X0181309Y0151483D01*
X0181309Y0149948D01*
X0179774Y0146879D02*
X0176705Y0146879D01*
X0175170Y0148413D01*
X0172101Y0146879D02*
X0172101Y0151483D01*
X0170566Y0153017D01*
X0165962Y0153017D01*
X0165962Y0146879D01*
X0162893Y0146879D02*
X0158289Y0146879D01*
X0156754Y0148413D01*
X0158289Y0149948D01*
X0162893Y0149948D01*
X0162893Y0151483D02*
X0162893Y0146879D01*
X0162893Y0151483D02*
X0161358Y0153017D01*
X0158289Y0153017D01*
X0153685Y0153017D02*
X0150616Y0153017D01*
X0152150Y0154552D02*
X0152150Y0148413D01*
X0153685Y0146879D01*
X0147546Y0148413D02*
X0147546Y0151483D01*
X0146012Y0153017D01*
X0142942Y0153017D01*
X0141408Y0151483D01*
X0141408Y0148413D01*
X0142942Y0146879D01*
X0146012Y0146879D01*
X0147546Y0148413D01*
X0138339Y0146879D02*
X0138339Y0151483D01*
X0136804Y0153017D01*
X0132200Y0153017D01*
X0132200Y0146879D01*
X0144135Y0192579D02*
X0144137Y0192626D01*
X0144143Y0192673D01*
X0144153Y0192720D01*
X0144166Y0192765D01*
X0144184Y0192809D01*
X0144205Y0192851D01*
X0144229Y0192892D01*
X0144257Y0192930D01*
X0144288Y0192966D01*
X0144322Y0192999D01*
X0144358Y0193029D01*
X0144397Y0193056D01*
X0144438Y0193080D01*
X0144481Y0193100D01*
X0144525Y0193116D01*
X0144571Y0193129D01*
X0144617Y0193138D01*
X0144665Y0193143D01*
X0144712Y0193144D01*
X0144759Y0193141D01*
X0144806Y0193134D01*
X0144852Y0193123D01*
X0144897Y0193109D01*
X0144941Y0193090D01*
X0144982Y0193068D01*
X0145022Y0193043D01*
X0145060Y0193014D01*
X0145095Y0192983D01*
X0145128Y0192948D01*
X0145157Y0192911D01*
X0145183Y0192872D01*
X0145206Y0192830D01*
X0145225Y0192787D01*
X0145241Y0192742D01*
X0145253Y0192696D01*
X0145261Y0192650D01*
X0145265Y0192603D01*
X0145265Y0192555D01*
X0145261Y0192508D01*
X0145253Y0192462D01*
X0145241Y0192416D01*
X0145225Y0192371D01*
X0145206Y0192328D01*
X0145183Y0192286D01*
X0145157Y0192247D01*
X0145128Y0192210D01*
X0145095Y0192175D01*
X0145060Y0192144D01*
X0145022Y0192115D01*
X0144983Y0192090D01*
X0144941Y0192068D01*
X0144897Y0192049D01*
X0144852Y0192035D01*
X0144806Y0192024D01*
X0144759Y0192017D01*
X0144712Y0192014D01*
X0144665Y0192015D01*
X0144617Y0192020D01*
X0144571Y0192029D01*
X0144525Y0192042D01*
X0144481Y0192058D01*
X0144438Y0192078D01*
X0144397Y0192102D01*
X0144358Y0192129D01*
X0144322Y0192159D01*
X0144288Y0192192D01*
X0144257Y0192228D01*
X0144229Y0192266D01*
X0144205Y0192307D01*
X0144184Y0192349D01*
X0144166Y0192393D01*
X0144153Y0192438D01*
X0144143Y0192485D01*
X0144137Y0192532D01*
X0144135Y0192579D01*
X0146000Y0218779D02*
X0146000Y0224179D01*
X0157600Y0224179D01*
X0157600Y0218779D01*
X0146000Y0218779D01*
X0191000Y0179179D02*
X0202600Y0179179D01*
X0202600Y0173779D01*
X0191000Y0173779D01*
X0191000Y0179179D01*
X0249100Y0215679D02*
X0254500Y0215679D01*
X0254500Y0227279D01*
X0249100Y0227279D01*
X0249100Y0215679D01*
X0129500Y0087279D02*
X0124100Y0087279D01*
X0124100Y0075679D01*
X0129500Y0075679D01*
X0129500Y0087279D01*
X0056400Y0106879D02*
X0056400Y0111483D01*
X0054865Y0113017D01*
X0053331Y0111483D01*
X0053331Y0108413D01*
X0051796Y0106879D01*
X0050261Y0108413D01*
X0050261Y0113017D01*
X0050261Y0116087D02*
X0054865Y0116087D01*
X0056400Y0117621D01*
X0054865Y0119156D01*
X0056400Y0120691D01*
X0054865Y0122225D01*
X0050261Y0122225D01*
X0051796Y0125294D02*
X0050261Y0126829D01*
X0050261Y0129898D01*
X0051796Y0131433D01*
X0053331Y0131433D01*
X0053331Y0125294D01*
X0054865Y0125294D02*
X0051796Y0125294D01*
X0054865Y0125294D02*
X0056400Y0126829D01*
X0056400Y0129898D01*
X0054865Y0134502D02*
X0051796Y0134502D01*
X0050261Y0136037D01*
X0050261Y0139106D01*
X0051796Y0140641D01*
X0053331Y0140641D01*
X0053331Y0134502D01*
X0054865Y0134502D02*
X0056400Y0136037D01*
X0056400Y0139106D01*
X0054865Y0145245D02*
X0048727Y0145245D01*
X0050261Y0146779D02*
X0050261Y0143710D01*
X0054865Y0145245D02*
X0056400Y0146779D01*
X0069135Y0192579D02*
X0069137Y0192626D01*
X0069143Y0192673D01*
X0069153Y0192720D01*
X0069166Y0192765D01*
X0069184Y0192809D01*
X0069205Y0192851D01*
X0069229Y0192892D01*
X0069257Y0192930D01*
X0069288Y0192966D01*
X0069322Y0192999D01*
X0069358Y0193029D01*
X0069397Y0193056D01*
X0069438Y0193080D01*
X0069481Y0193100D01*
X0069525Y0193116D01*
X0069571Y0193129D01*
X0069617Y0193138D01*
X0069665Y0193143D01*
X0069712Y0193144D01*
X0069759Y0193141D01*
X0069806Y0193134D01*
X0069852Y0193123D01*
X0069897Y0193109D01*
X0069941Y0193090D01*
X0069982Y0193068D01*
X0070022Y0193043D01*
X0070060Y0193014D01*
X0070095Y0192983D01*
X0070128Y0192948D01*
X0070157Y0192911D01*
X0070183Y0192872D01*
X0070206Y0192830D01*
X0070225Y0192787D01*
X0070241Y0192742D01*
X0070253Y0192696D01*
X0070261Y0192650D01*
X0070265Y0192603D01*
X0070265Y0192555D01*
X0070261Y0192508D01*
X0070253Y0192462D01*
X0070241Y0192416D01*
X0070225Y0192371D01*
X0070206Y0192328D01*
X0070183Y0192286D01*
X0070157Y0192247D01*
X0070128Y0192210D01*
X0070095Y0192175D01*
X0070060Y0192144D01*
X0070022Y0192115D01*
X0069983Y0192090D01*
X0069941Y0192068D01*
X0069897Y0192049D01*
X0069852Y0192035D01*
X0069806Y0192024D01*
X0069759Y0192017D01*
X0069712Y0192014D01*
X0069665Y0192015D01*
X0069617Y0192020D01*
X0069571Y0192029D01*
X0069525Y0192042D01*
X0069481Y0192058D01*
X0069438Y0192078D01*
X0069397Y0192102D01*
X0069358Y0192129D01*
X0069322Y0192159D01*
X0069288Y0192192D01*
X0069257Y0192228D01*
X0069229Y0192266D01*
X0069205Y0192307D01*
X0069184Y0192349D01*
X0069166Y0192393D01*
X0069153Y0192438D01*
X0069143Y0192485D01*
X0069137Y0192532D01*
X0069135Y0192579D01*
X0071000Y0218779D02*
X0071000Y0224179D01*
X0082600Y0224179D01*
X0082600Y0218779D01*
X0071000Y0218779D01*
D20*
X0071354Y0243929D02*
X0071354Y0248433D01*
X0073606Y0248433D01*
X0074356Y0247682D01*
X0074356Y0246181D01*
X0073606Y0245430D01*
X0071354Y0245430D01*
X0069002Y0244679D02*
X0069002Y0248433D01*
X0068251Y0248433D02*
X0069753Y0248433D01*
X0069002Y0244679D02*
X0068251Y0243929D01*
X0067501Y0243929D01*
X0066750Y0244679D01*
X0075958Y0243929D02*
X0078960Y0246931D01*
X0078960Y0247682D01*
X0078210Y0248433D01*
X0076708Y0248433D01*
X0075958Y0247682D01*
X0075958Y0243929D02*
X0078960Y0243929D01*
X0141750Y0244679D02*
X0142501Y0243929D01*
X0143251Y0243929D01*
X0144002Y0244679D01*
X0144002Y0248433D01*
X0143251Y0248433D02*
X0144753Y0248433D01*
X0146354Y0248433D02*
X0146354Y0243929D01*
X0146354Y0245430D02*
X0148606Y0245430D01*
X0149356Y0246181D01*
X0149356Y0247682D01*
X0148606Y0248433D01*
X0146354Y0248433D01*
X0150958Y0247682D02*
X0151708Y0248433D01*
X0153210Y0248433D01*
X0153960Y0247682D01*
X0153960Y0246931D01*
X0153210Y0246181D01*
X0153960Y0245430D01*
X0153960Y0244679D01*
X0153210Y0243929D01*
X0151708Y0243929D01*
X0150958Y0244679D01*
X0152459Y0246181D02*
X0153210Y0246181D01*
X0231367Y0231872D02*
X0242391Y0231872D01*
X0242391Y0151557D01*
X0231367Y0151557D01*
X0231367Y0231872D01*
X0231367Y0151557D02*
X0231367Y0140928D01*
X0241209Y0140928D01*
X0242391Y0140928D01*
X0242391Y0151557D01*
X0241997Y0140928D02*
X0241209Y0140928D01*
X0096594Y0076461D02*
X0096594Y0074209D01*
X0095093Y0074209D02*
X0095093Y0076461D01*
X0095844Y0077212D01*
X0096594Y0076461D01*
X0095093Y0076461D02*
X0094342Y0077212D01*
X0093592Y0077212D01*
X0093592Y0074209D01*
X0091990Y0074209D02*
X0091990Y0076461D01*
X0091240Y0077212D01*
X0090489Y0076461D01*
X0090489Y0074209D01*
X0088988Y0074209D02*
X0088988Y0077212D01*
X0089738Y0077212D01*
X0090489Y0076461D01*
X0087386Y0076461D02*
X0087386Y0074960D01*
X0086636Y0074209D01*
X0085134Y0074209D01*
X0084384Y0074960D01*
X0084384Y0076461D02*
X0085885Y0077212D01*
X0086636Y0077212D01*
X0087386Y0076461D01*
X0087386Y0078713D02*
X0084384Y0078713D01*
X0084384Y0076461D01*
X0082816Y0074960D02*
X0082065Y0074960D01*
X0082065Y0074209D01*
X0082816Y0074209D01*
X0082816Y0074960D01*
X0082816Y0074209D02*
X0081315Y0072708D01*
X0079713Y0074960D02*
X0078963Y0074209D01*
X0077461Y0074209D01*
X0076711Y0074960D01*
X0078212Y0076461D02*
X0078963Y0076461D01*
X0079713Y0075710D01*
X0079713Y0074960D01*
X0078963Y0076461D02*
X0079713Y0077212D01*
X0079713Y0077962D01*
X0078963Y0078713D01*
X0077461Y0078713D01*
X0076711Y0077962D01*
X0061944Y0052150D02*
X0061944Y0049148D01*
X0061944Y0050649D02*
X0057440Y0050649D01*
X0058941Y0049148D01*
X0057440Y0047546D02*
X0061944Y0044544D01*
X0061944Y0047546D02*
X0057440Y0044544D01*
X0020101Y0047534D02*
X0014096Y0047534D01*
X0014846Y0046783D02*
X0014846Y0048285D01*
X0015597Y0049035D01*
X0017098Y0048285D02*
X0017098Y0046783D01*
X0016347Y0046033D01*
X0015597Y0046033D01*
X0014846Y0046783D01*
X0014846Y0044431D02*
X0018599Y0044431D01*
X0019350Y0043681D01*
X0019350Y0042179D01*
X0018599Y0041429D01*
X0014846Y0041429D01*
X0018599Y0046033D02*
X0019350Y0046783D01*
X0019350Y0048285D01*
X0018599Y0049035D01*
X0017849Y0049035D01*
X0017098Y0048285D01*
X0016347Y0050637D02*
X0014846Y0052138D01*
X0019350Y0052138D01*
X0019350Y0050637D02*
X0019350Y0053639D01*
D21*
X0166057Y0073912D02*
X0166541Y0073429D01*
X0167508Y0073429D01*
X0167992Y0073912D01*
X0167992Y0076331D01*
X0169003Y0074880D02*
X0170938Y0074880D01*
X0170455Y0073429D02*
X0170455Y0076331D01*
X0169003Y0074880D01*
X0166057Y0073912D02*
X0166057Y0076331D01*
X0236648Y0135999D02*
X0237131Y0135515D01*
X0237615Y0135515D01*
X0238099Y0135999D01*
X0238099Y0138418D01*
X0238582Y0138418D02*
X0237615Y0138418D01*
X0239594Y0137450D02*
X0240562Y0138418D01*
X0240562Y0135515D01*
X0241529Y0135515D02*
X0239594Y0135515D01*
D22*
X0234561Y0094314D02*
X0234561Y0089710D01*
X0236095Y0089710D02*
X0233026Y0089710D01*
X0230724Y0091245D02*
X0228422Y0091245D01*
X0228422Y0089710D02*
X0228422Y0094314D01*
X0230724Y0094314D01*
X0231491Y0093547D01*
X0231491Y0092012D01*
X0230724Y0091245D01*
X0233026Y0092780D02*
X0234561Y0094314D01*
X0226887Y0094314D02*
X0225353Y0094314D01*
X0226120Y0094314D02*
X0226120Y0090478D01*
X0225353Y0089710D01*
X0224585Y0089710D01*
X0223818Y0090478D01*
D23*
X0149324Y0196529D02*
X0148323Y0196529D01*
X0148824Y0196529D02*
X0148824Y0198030D01*
X0148323Y0197530D01*
X0147851Y0198030D02*
X0147851Y0196779D01*
X0147601Y0196529D01*
X0147100Y0196529D01*
X0146850Y0196779D01*
X0146850Y0198030D01*
X0074324Y0197780D02*
X0074074Y0198030D01*
X0073573Y0198030D01*
X0073323Y0197780D01*
X0072851Y0198030D02*
X0072851Y0196779D01*
X0072601Y0196529D01*
X0072100Y0196529D01*
X0071850Y0196779D01*
X0071850Y0198030D01*
X0073323Y0196529D02*
X0074324Y0197530D01*
X0074324Y0197780D01*
X0074324Y0196529D02*
X0073323Y0196529D01*
X0058824Y0097530D02*
X0058824Y0096029D01*
X0059324Y0096029D02*
X0058323Y0096029D01*
X0057851Y0096279D02*
X0057601Y0096029D01*
X0057100Y0096029D01*
X0056850Y0096279D01*
X0056850Y0097280D01*
X0057100Y0097530D01*
X0057601Y0097530D01*
X0057851Y0097280D01*
X0058323Y0097030D02*
X0058824Y0097530D01*
M02*
