G75*
%MOIN*%
%OFA0B0*%
%FSLAX24Y24*%
%IPPOS*%
%LPD*%
%AMOC8*
5,1,8,0,0,1.08239X$1,22.5*
%
%ADD10C,0.0434*%
%ADD11R,0.0434X0.0473*%
%ADD12R,0.0540X0.0290*%
%ADD13R,0.0715X0.0715*%
%ADD14C,0.0715*%
%ADD15R,0.0740X0.1390*%
%ADD16R,0.0473X0.0434*%
%ADD17R,0.0946X0.0237*%
%ADD18R,0.1418X0.1418*%
%ADD19C,0.0394*%
%ADD20R,0.1103X0.1044*%
%ADD21C,0.0985*%
%ADD22R,0.0440X0.0440*%
%ADD23R,0.0740X0.0440*%
%ADD24R,0.0178X0.1540*%
%ADD25R,0.0355X0.0512*%
%ADD26R,0.0512X0.0355*%
%ADD27R,0.0060X0.0720*%
%ADD28R,0.0500X0.0670*%
%ADD29C,0.0640*%
%ADD30OC8,0.0800*%
%ADD31R,0.1600X0.1600*%
%ADD32R,0.1290X0.1290*%
%ADD33R,0.1024X0.1339*%
%ADD34C,0.0355*%
%ADD35R,0.0434X0.0591*%
%ADD36R,0.0640X0.0640*%
%ADD37C,0.0640*%
%ADD38C,0.1240*%
%ADD39C,0.0390*%
%ADD40R,0.0355X0.0355*%
%ADD41R,0.1390X0.0740*%
%ADD42R,0.0290X0.0540*%
%ADD43C,0.0380*%
D10*
X001917Y009614D03*
X001917Y010796D03*
D11*
X004415Y011105D03*
X005085Y011105D03*
X005085Y010405D03*
X004415Y010405D03*
X004415Y009705D03*
X005085Y009705D03*
X005085Y011805D03*
X004415Y011805D03*
X010850Y018120D03*
X010850Y018790D03*
X017665Y013955D03*
X018335Y013955D03*
X019165Y013955D03*
X019835Y013955D03*
X019835Y013205D03*
X019165Y013205D03*
X018335Y013205D03*
X017665Y013205D03*
X022665Y008705D03*
X023335Y008705D03*
X024965Y009455D03*
X025635Y009455D03*
X029565Y010905D03*
X030235Y010905D03*
X033297Y006155D03*
X033966Y006155D03*
X025035Y005705D03*
X024365Y005705D03*
X019585Y005155D03*
X018915Y005155D03*
D12*
X017220Y011739D03*
D13*
X015300Y001205D03*
D14*
X016300Y001205D03*
X017300Y001205D03*
X018300Y001205D03*
X019300Y001205D03*
X020300Y001205D03*
D15*
X024964Y004677D03*
X014450Y004705D03*
D16*
X016600Y006370D03*
X016600Y007040D03*
X017500Y007090D03*
X017500Y006420D03*
X018400Y006540D03*
X018400Y005870D03*
X017250Y005640D03*
X017250Y004970D03*
X017198Y004171D03*
X017198Y003502D03*
X018500Y003370D03*
X018500Y004040D03*
X019500Y004040D03*
X019500Y003370D03*
X020300Y006270D03*
X020300Y006940D03*
X026400Y008420D03*
X026400Y009090D03*
X025750Y012320D03*
X025750Y012990D03*
X020550Y013170D03*
X020550Y013840D03*
X016750Y014040D03*
X016750Y013370D03*
X016150Y015320D03*
X016150Y015990D03*
X015000Y016040D03*
X015000Y015370D03*
X030450Y016870D03*
X030450Y017540D03*
D17*
X031563Y010112D03*
X031563Y009798D03*
X031563Y009483D03*
X031563Y009168D03*
X031563Y008853D03*
D18*
X031484Y007475D03*
X033256Y007475D03*
X033256Y011490D03*
X031484Y011490D03*
D19*
X032370Y010172D03*
X032370Y008794D03*
X010591Y021105D03*
X009409Y021105D03*
D20*
X017500Y017455D03*
X019200Y017455D03*
X019200Y014955D03*
X017500Y014955D03*
D21*
X001500Y019205D03*
D22*
X027050Y009835D03*
X027050Y009085D03*
D23*
X027800Y009460D03*
D24*
X027862Y019233D03*
X027587Y019233D03*
X027311Y019233D03*
X027035Y019233D03*
X026760Y019233D03*
X026484Y019233D03*
X026209Y019233D03*
X025933Y019233D03*
X025657Y019233D03*
X025382Y019233D03*
X025106Y019233D03*
X024831Y019233D03*
X024555Y019233D03*
X024280Y019233D03*
X024004Y019233D03*
X028138Y019233D03*
X028413Y019233D03*
X028689Y019233D03*
X028965Y019233D03*
X029240Y019233D03*
X029516Y019233D03*
X029791Y019233D03*
X030067Y019233D03*
X030343Y019233D03*
X030618Y019233D03*
X030894Y019233D03*
X031169Y019233D03*
X031445Y019233D03*
X031720Y019233D03*
X031996Y019233D03*
D25*
X025354Y018005D03*
X024646Y018005D03*
X024304Y017455D03*
X023596Y017455D03*
X026646Y005205D03*
X027354Y005205D03*
D26*
X024750Y006851D03*
X024750Y007559D03*
X026200Y007759D03*
X026200Y007051D03*
X026450Y010051D03*
X025900Y010051D03*
X025900Y010759D03*
X026450Y010759D03*
X031150Y016851D03*
X031800Y016851D03*
X031800Y017559D03*
X031150Y017559D03*
X026600Y017809D03*
X026600Y017101D03*
D27*
X029100Y017305D03*
D28*
X028800Y017305D03*
X029400Y017305D03*
D29*
X021862Y018127D02*
X021862Y018727D01*
X021062Y017883D02*
X021062Y017283D01*
X020212Y018127D02*
X020212Y018727D01*
X020212Y020883D02*
X020212Y021483D01*
X021862Y021483D02*
X021862Y020883D01*
X021062Y015127D02*
X021062Y014527D01*
D30*
X023500Y003205D03*
X024500Y003205D03*
X025500Y003205D03*
D31*
X030500Y003705D03*
D32*
X027400Y003705D03*
X033600Y003705D03*
D33*
X023500Y011705D03*
X023500Y014705D03*
D34*
X025034Y014091D03*
X022614Y011671D03*
D35*
X022500Y010638D03*
X022126Y009772D03*
X022874Y009772D03*
D36*
X022000Y001205D03*
D37*
X023000Y001205D03*
X024000Y001205D03*
X025000Y001205D03*
X026000Y001205D03*
X027000Y001205D03*
D38*
X007650Y001655D03*
X033500Y001705D03*
X033500Y021205D03*
X001500Y021205D03*
D39*
X016264Y019705D03*
X016736Y019705D03*
D40*
X015950Y021060D03*
X015950Y021650D03*
X015095Y021205D03*
X014505Y021205D03*
X033334Y005023D03*
X033924Y005023D03*
D41*
X027300Y013005D03*
X013450Y021855D03*
X012350Y020405D03*
D42*
X010880Y019605D03*
X010500Y019605D03*
X010150Y019605D03*
D43*
X014000Y019705D03*
M02*
