G75*
G70*
%OFA0B0*%
%FSLAX24Y24*%
%IPPOS*%
%LPD*%
%AMOC8*
5,1,8,0,0,1.08239X$1,22.5*
%
%ADD10C,0.0010*%
%ADD11C,0.0080*%
%ADD12C,0.0050*%
%ADD13C,0.0118*%
%ADD14C,0.0000*%
%ADD15C,0.0090*%
%ADD16C,0.0020*%
%ADD17C,0.0100*%
%ADD18C,0.0110*%
%ADD19C,0.0030*%
%ADD20C,0.0070*%
%ADD21C,0.0079*%
%ADD22C,0.0040*%
%ADD23C,0.0120*%
%ADD24C,0.0060*%
D10*
X032857Y000867D02*
X000857Y000867D01*
X000857Y021067D01*
X032857Y021067D01*
X032857Y000867D01*
D11*
X032027Y001637D02*
X031487Y001637D01*
X031487Y002797D01*
X032027Y002797D01*
X032027Y001637D01*
X032027Y002987D02*
X031487Y002987D01*
X031487Y004147D01*
X032027Y004147D01*
X032027Y002987D01*
X029437Y002787D02*
X029437Y002247D01*
X028277Y002247D01*
X028277Y002787D01*
X029437Y002787D01*
X029437Y002087D02*
X029437Y001547D01*
X028277Y001547D01*
X028277Y002087D01*
X029437Y002087D01*
X027987Y003247D02*
X026827Y003247D01*
X026827Y003787D01*
X027987Y003787D01*
X027987Y003247D01*
X027627Y002647D02*
X027087Y002647D01*
X027087Y001487D01*
X027627Y001487D01*
X027627Y002647D01*
X026487Y003247D02*
X025327Y003247D01*
X025327Y003787D01*
X026487Y003787D01*
X026487Y003247D01*
X023177Y004287D02*
X023177Y005447D01*
X022637Y005447D01*
X022637Y004287D01*
X023177Y004287D01*
X019287Y001787D02*
X019287Y001247D01*
X018127Y001247D01*
X018127Y001787D01*
X019287Y001787D01*
X016637Y001887D02*
X016637Y001347D01*
X015477Y001347D01*
X015477Y001887D01*
X016637Y001887D01*
X015227Y001337D02*
X014687Y001337D01*
X014687Y002497D01*
X015227Y002497D01*
X015227Y001337D01*
X014577Y001337D02*
X014037Y001337D01*
X014037Y002497D01*
X014577Y002497D01*
X014577Y001337D01*
X013927Y001337D02*
X013387Y001337D01*
X013387Y002497D01*
X013927Y002497D01*
X013927Y001337D01*
X013277Y001337D02*
X012737Y001337D01*
X012737Y002497D01*
X013277Y002497D01*
X013277Y001337D01*
X012677Y002387D02*
X012137Y002387D01*
X012137Y003547D01*
X012677Y003547D01*
X012677Y002387D01*
X012027Y002037D02*
X011487Y002037D01*
X011487Y003197D01*
X012027Y003197D01*
X012027Y002037D01*
X011387Y002647D02*
X010227Y002647D01*
X010227Y003187D01*
X011387Y003187D01*
X011387Y002647D01*
X010687Y002537D02*
X010687Y001997D01*
X009527Y001997D01*
X009527Y002537D01*
X010687Y002537D01*
X010137Y002647D02*
X008977Y002647D01*
X008977Y003187D01*
X010137Y003187D01*
X010137Y002647D01*
X010137Y003297D02*
X010137Y003837D01*
X008977Y003837D01*
X008977Y003297D01*
X010137Y003297D01*
X010227Y003297D02*
X010227Y003837D01*
X011387Y003837D01*
X011387Y003297D01*
X010227Y003297D01*
X010037Y004337D02*
X010577Y004337D01*
X010577Y005497D01*
X010037Y005497D01*
X010037Y004337D01*
X011273Y004750D02*
X011273Y004891D01*
X011273Y004821D02*
X011693Y004821D01*
X011693Y004891D02*
X011693Y004750D01*
X011623Y005057D02*
X011343Y005057D01*
X011273Y005127D01*
X011273Y005268D01*
X011343Y005338D01*
X011483Y005518D02*
X011483Y005728D01*
X011553Y005798D01*
X011623Y005798D01*
X011693Y005728D01*
X011693Y005588D01*
X011623Y005518D01*
X011483Y005518D01*
X011343Y005658D01*
X011273Y005798D01*
X011623Y005338D02*
X011693Y005268D01*
X011693Y005127D01*
X011623Y005057D01*
X012787Y005397D02*
X012787Y004237D01*
X013327Y004237D01*
X013327Y005397D01*
X012787Y005397D01*
X012787Y005537D02*
X013327Y005537D01*
X013327Y006697D01*
X012787Y006697D01*
X012787Y005537D01*
X013387Y005537D02*
X013927Y005537D01*
X013927Y006697D01*
X013387Y006697D01*
X013387Y005537D01*
X013977Y005337D02*
X013977Y004797D01*
X015137Y004797D01*
X015137Y005337D01*
X013977Y005337D01*
X014027Y005447D02*
X014027Y005987D01*
X015187Y005987D01*
X015187Y005447D01*
X014027Y005447D01*
X013977Y004687D02*
X015137Y004687D01*
X015137Y004147D01*
X013977Y004147D01*
X013977Y004687D01*
X011577Y007087D02*
X011037Y007087D01*
X011037Y008247D01*
X011577Y008247D01*
X011577Y007087D01*
X010927Y007087D02*
X010387Y007087D01*
X010387Y008247D01*
X010927Y008247D01*
X010927Y007087D01*
X010277Y007087D02*
X009737Y007087D01*
X009737Y008247D01*
X010277Y008247D01*
X010277Y007087D01*
X010277Y006997D02*
X010277Y005837D01*
X009737Y005837D01*
X009737Y006997D01*
X010277Y006997D01*
X009627Y007087D02*
X009087Y007087D01*
X009087Y008247D01*
X009627Y008247D01*
X009627Y007087D01*
X008977Y007087D02*
X008437Y007087D01*
X008437Y008247D01*
X008977Y008247D01*
X008977Y007087D01*
X008327Y007087D02*
X007787Y007087D01*
X007787Y008247D01*
X008327Y008247D01*
X008327Y007087D01*
X007677Y007087D02*
X007137Y007087D01*
X007137Y008247D01*
X007677Y008247D01*
X007677Y007087D01*
X007477Y008347D02*
X007477Y008887D01*
X008637Y008887D01*
X008637Y008347D01*
X007477Y008347D01*
X007287Y008347D02*
X006127Y008347D01*
X006127Y008887D01*
X007287Y008887D01*
X007287Y008347D01*
X006477Y009337D02*
X005937Y009337D01*
X005937Y010497D01*
X006477Y010497D01*
X006477Y009337D01*
X005787Y009797D02*
X004627Y009797D01*
X004627Y010337D01*
X005787Y010337D01*
X005787Y009797D01*
X005787Y010447D02*
X004627Y010447D01*
X004627Y010987D01*
X005787Y010987D01*
X005787Y010447D01*
X005787Y011147D02*
X004627Y011147D01*
X004627Y011687D01*
X005787Y011687D01*
X005787Y011147D01*
X005787Y011797D02*
X004627Y011797D01*
X004627Y012337D01*
X005787Y012337D01*
X005787Y011797D01*
X006787Y011237D02*
X006787Y012397D01*
X007327Y012397D01*
X007327Y011237D01*
X006787Y011237D01*
X007437Y011237D02*
X007437Y012397D01*
X007977Y012397D01*
X007977Y011237D01*
X007437Y011237D01*
X008087Y011237D02*
X008087Y012397D01*
X008627Y012397D01*
X008627Y011237D01*
X008087Y011237D01*
X009127Y011397D02*
X009127Y011937D01*
X010287Y011937D01*
X010287Y011397D01*
X009127Y011397D01*
X008277Y012487D02*
X007737Y012487D01*
X007737Y013647D01*
X008277Y013647D01*
X008277Y012487D01*
X007627Y012487D02*
X007087Y012487D01*
X007087Y013647D01*
X007627Y013647D01*
X007627Y012487D01*
X006977Y012487D02*
X006437Y012487D01*
X006437Y013647D01*
X006977Y013647D01*
X006977Y012487D01*
X005227Y013587D02*
X004687Y013587D01*
X004687Y014747D01*
X005227Y014747D01*
X005227Y013587D01*
X004577Y013587D02*
X004037Y013587D01*
X004037Y014747D01*
X004577Y014747D01*
X004577Y013587D01*
X003927Y013587D02*
X003387Y013587D01*
X003387Y014747D01*
X003927Y014747D01*
X003927Y013587D01*
X003277Y013587D02*
X002737Y013587D01*
X002737Y014747D01*
X003277Y014747D01*
X003277Y013587D01*
X002627Y013587D02*
X002087Y013587D01*
X002087Y014747D01*
X002627Y014747D01*
X002627Y013587D01*
X001977Y013587D02*
X001437Y013587D01*
X001437Y014747D01*
X001977Y014747D01*
X001977Y013587D01*
X006027Y017447D02*
X006027Y017987D01*
X007187Y017987D01*
X007187Y017447D01*
X006027Y017447D01*
X005877Y019087D02*
X005337Y019087D01*
X005337Y020247D01*
X005877Y020247D01*
X005877Y019087D01*
X007137Y019487D02*
X007137Y020647D01*
X007677Y020647D01*
X007677Y019487D01*
X007137Y019487D01*
X005884Y020407D02*
X005670Y020407D01*
X005884Y020620D01*
X005884Y020674D01*
X005830Y020727D01*
X005724Y020727D01*
X005670Y020674D01*
X005516Y020674D02*
X005516Y020460D01*
X005462Y020407D01*
X005355Y020407D01*
X005302Y020460D01*
X005302Y020674D01*
X005355Y020727D01*
X005462Y020727D01*
X005516Y020674D01*
X005409Y020514D02*
X005516Y020407D01*
X008122Y018373D02*
X008175Y018427D01*
X008228Y018427D01*
X008282Y018373D01*
X008335Y018427D01*
X008388Y018427D01*
X008442Y018373D01*
X008442Y018267D01*
X008388Y018213D01*
X008282Y018320D02*
X008282Y018373D01*
X008122Y018373D02*
X008122Y018267D01*
X008175Y018213D01*
X008175Y018058D02*
X008122Y018005D01*
X008122Y017898D01*
X008175Y017845D01*
X008388Y017845D01*
X008442Y017898D01*
X008442Y018005D01*
X008388Y018058D01*
X008442Y017706D02*
X008442Y017599D01*
X008442Y017653D02*
X008122Y017653D01*
X008122Y017706D02*
X008122Y017599D01*
X011796Y019357D02*
X012010Y019357D01*
X012117Y019464D01*
X012010Y019570D01*
X011796Y019570D01*
X011957Y019725D02*
X011903Y019778D01*
X011903Y019939D01*
X011796Y019939D02*
X012117Y019939D01*
X012117Y019778D01*
X012063Y019725D01*
X011957Y019725D01*
X011957Y020093D02*
X011903Y020147D01*
X011903Y020307D01*
X011796Y020307D02*
X012117Y020307D01*
X012117Y020147D01*
X012063Y020093D01*
X011957Y020093D01*
X010687Y019947D02*
X009527Y019947D01*
X009527Y020487D01*
X010687Y020487D01*
X010687Y019947D01*
X015112Y017438D02*
X015112Y017297D01*
X015182Y017227D01*
X015252Y017227D01*
X015322Y017297D01*
X015322Y017438D01*
X015392Y017508D01*
X015462Y017508D01*
X015532Y017438D01*
X015532Y017297D01*
X015462Y017227D01*
X015392Y017227D01*
X015322Y017297D01*
X015322Y017438D02*
X015252Y017508D01*
X015182Y017508D01*
X015112Y017438D01*
X015182Y017047D02*
X015112Y016977D01*
X015112Y016837D01*
X015182Y016767D01*
X015182Y016587D02*
X015112Y016517D01*
X015112Y016377D01*
X015182Y016307D01*
X015462Y016307D01*
X015532Y016377D01*
X015532Y016517D01*
X015462Y016587D01*
X015462Y016767D02*
X015532Y016837D01*
X015532Y016977D01*
X015462Y017047D01*
X015392Y017047D01*
X015322Y016977D01*
X015322Y016907D01*
X015322Y016977D02*
X015252Y017047D01*
X015182Y017047D01*
X017057Y015602D02*
X017057Y015322D01*
X017197Y015462D02*
X016916Y015462D01*
X017537Y014697D02*
X018077Y014697D01*
X018077Y013537D01*
X017537Y013537D01*
X017537Y014697D01*
X017087Y014487D02*
X017087Y013947D01*
X015927Y013947D01*
X015927Y014487D01*
X017087Y014487D01*
X018227Y014737D02*
X018227Y014197D01*
X019387Y014197D01*
X019387Y014737D01*
X018227Y014737D01*
X019477Y014737D02*
X019477Y014197D01*
X020637Y014197D01*
X020637Y014737D01*
X019477Y014737D01*
X019477Y013987D02*
X020637Y013987D01*
X020637Y013447D01*
X019477Y013447D01*
X019477Y013987D01*
X019387Y013987D02*
X019387Y013447D01*
X018227Y013447D01*
X018227Y013987D01*
X019387Y013987D01*
X021077Y013837D02*
X021077Y013297D01*
X022237Y013297D01*
X022237Y013837D01*
X021077Y013837D01*
X021787Y012997D02*
X022327Y012997D01*
X022327Y011837D01*
X021787Y011837D01*
X021787Y012997D01*
X022737Y012997D02*
X023277Y012997D01*
X023277Y011837D01*
X022737Y011837D01*
X022737Y012997D01*
X023687Y012997D02*
X024227Y012997D01*
X024227Y011837D01*
X023687Y011837D01*
X023687Y012997D01*
X022742Y014017D02*
X022462Y014017D01*
X022602Y014157D02*
X022602Y013877D01*
X025777Y014047D02*
X025777Y014587D01*
X026937Y014587D01*
X026937Y014047D01*
X025777Y014047D01*
X025777Y014697D02*
X025777Y015237D01*
X026937Y015237D01*
X026937Y014697D01*
X025777Y014697D01*
X027087Y014597D02*
X027627Y014597D01*
X027627Y013437D01*
X027087Y013437D01*
X027087Y014597D01*
X026637Y016097D02*
X025477Y016097D01*
X025477Y016637D01*
X026637Y016637D01*
X026637Y016097D01*
X027987Y012497D02*
X028527Y012497D01*
X028527Y011337D01*
X027987Y011337D01*
X027987Y012497D01*
X027627Y011997D02*
X027087Y011997D01*
X027087Y010837D01*
X027627Y010837D01*
X027627Y011997D01*
X026927Y011997D02*
X026927Y010837D01*
X026387Y010837D01*
X026387Y011997D01*
X026927Y011997D01*
X028687Y011847D02*
X028687Y010687D01*
X029227Y010687D01*
X029227Y011847D01*
X028687Y011847D01*
X029337Y011847D02*
X029877Y011847D01*
X029877Y010687D01*
X029337Y010687D01*
X029337Y011847D01*
X029337Y010547D02*
X029877Y010547D01*
X029877Y009387D01*
X029337Y009387D01*
X029337Y010547D01*
X031837Y009497D02*
X032377Y009497D01*
X032377Y008337D01*
X031837Y008337D01*
X031837Y009497D01*
X031837Y008347D02*
X032377Y008347D01*
X032377Y007187D01*
X031837Y007187D01*
X031837Y008347D01*
X031237Y006787D02*
X030077Y006787D01*
X030077Y006247D01*
X031237Y006247D01*
X031237Y006787D01*
X031237Y006137D02*
X030077Y006137D01*
X030077Y005597D01*
X031237Y005597D01*
X031237Y006137D01*
X031237Y005487D02*
X030077Y005487D01*
X030077Y004947D01*
X031237Y004947D01*
X031237Y005487D01*
X024227Y010587D02*
X023687Y010587D01*
X023687Y011747D01*
X024227Y011747D01*
X024227Y010587D01*
X023277Y010587D02*
X022737Y010587D01*
X022737Y011747D01*
X023277Y011747D01*
X023277Y010587D01*
X023087Y009987D02*
X023087Y009447D01*
X021927Y009447D01*
X021927Y009987D01*
X023087Y009987D01*
X022827Y009297D02*
X022287Y009297D01*
X022287Y008137D01*
X022827Y008137D01*
X022827Y009297D01*
X022327Y010587D02*
X021787Y010587D01*
X021787Y011747D01*
X022327Y011747D01*
X022327Y010587D01*
X019657Y011974D02*
X019587Y011904D01*
X019447Y011904D01*
X019377Y011974D01*
X019377Y012044D01*
X019447Y012114D01*
X019587Y012114D01*
X019657Y012044D01*
X019657Y011974D01*
X019587Y012114D02*
X019657Y012184D01*
X019657Y012254D01*
X019587Y012324D01*
X019447Y012324D01*
X019377Y012254D01*
X019377Y012184D01*
X019447Y012114D01*
X019196Y012254D02*
X019126Y012324D01*
X018986Y012324D01*
X018916Y012254D01*
X018916Y011974D01*
X018986Y011904D01*
X019126Y011904D01*
X019196Y011974D01*
X018749Y011904D02*
X018609Y011904D01*
X018679Y011904D02*
X018679Y012324D01*
X018609Y012324D02*
X018749Y012324D01*
X017827Y011097D02*
X017287Y011097D01*
X017287Y009937D01*
X017827Y009937D01*
X017827Y011097D01*
X013987Y012997D02*
X013987Y013537D01*
X012827Y013537D01*
X012827Y012997D01*
X013987Y012997D01*
X013987Y013647D02*
X012827Y013647D01*
X012827Y014187D01*
X013987Y014187D01*
X013987Y013647D01*
X012737Y013497D02*
X011577Y013497D01*
X011577Y014037D01*
X012737Y014037D01*
X012737Y013497D01*
X012737Y013387D02*
X012737Y012847D01*
X011577Y012847D01*
X011577Y013387D01*
X012737Y013387D01*
X012827Y012397D02*
X012287Y012397D01*
X012287Y011237D01*
X012827Y011237D01*
X012827Y012397D01*
X012177Y012397D02*
X011637Y012397D01*
X011637Y011237D01*
X012177Y011237D01*
X012177Y012397D01*
X011427Y010647D02*
X010887Y010647D01*
X010887Y009487D01*
X011427Y009487D01*
X011427Y010647D01*
X011887Y010497D02*
X012427Y010497D01*
X012427Y009337D01*
X011887Y009337D01*
X011887Y010497D01*
X010327Y009797D02*
X010327Y008637D01*
X009787Y008637D01*
X009787Y009797D01*
X010327Y009797D01*
X009677Y009797D02*
X009677Y008637D01*
X009137Y008637D01*
X009137Y009797D01*
X009677Y009797D01*
X011065Y009004D02*
X011205Y009004D01*
X011135Y009004D02*
X011135Y008584D01*
X011065Y008584D02*
X011205Y008584D01*
X011372Y008654D02*
X011442Y008584D01*
X011582Y008584D01*
X011652Y008654D01*
X011832Y008584D02*
X012112Y008584D01*
X011972Y008584D02*
X011972Y009004D01*
X011832Y008864D01*
X011652Y008934D02*
X011582Y009004D01*
X011442Y009004D01*
X011372Y008934D01*
X011372Y008654D01*
X012293Y008584D02*
X012573Y008584D01*
X012433Y008584D02*
X012433Y009004D01*
X012293Y008864D01*
X008077Y005497D02*
X007537Y005497D01*
X007537Y004337D01*
X008077Y004337D01*
X008077Y005497D01*
X003427Y006537D02*
X002887Y006537D01*
X002887Y007697D01*
X003427Y007697D01*
X003427Y006537D01*
X009527Y001887D02*
X010687Y001887D01*
X010687Y001347D01*
X009527Y001347D01*
X009527Y001887D01*
X018496Y019202D02*
X018496Y019415D01*
X018496Y019309D02*
X018817Y019309D01*
X018817Y019570D02*
X018496Y019570D01*
X018603Y019677D01*
X018496Y019784D01*
X018817Y019784D01*
X018763Y019938D02*
X018817Y019992D01*
X018817Y020099D01*
X018763Y020152D01*
X018710Y020152D01*
X018657Y020099D01*
X018657Y019992D01*
X018603Y019938D01*
X018550Y019938D01*
X018496Y019992D01*
X018496Y020099D01*
X018550Y020152D01*
D12*
X018350Y017026D02*
X018442Y016934D01*
X018442Y016751D01*
X018350Y016659D01*
X018350Y016474D02*
X018442Y016382D01*
X018442Y016198D01*
X018350Y016107D01*
X018350Y015921D02*
X018442Y015829D01*
X018442Y015646D01*
X018350Y015554D01*
X017983Y015554D01*
X017891Y015646D01*
X017891Y015829D01*
X017983Y015921D01*
X017983Y016107D02*
X017891Y016198D01*
X017891Y016382D01*
X017983Y016474D01*
X018075Y016474D01*
X018167Y016382D01*
X018258Y016474D01*
X018350Y016474D01*
X018167Y016382D02*
X018167Y016290D01*
X017983Y016659D02*
X017891Y016751D01*
X017891Y016934D01*
X017983Y017026D01*
X018075Y017026D01*
X018167Y016934D01*
X018258Y017026D01*
X018350Y017026D01*
X018167Y016934D02*
X018167Y016843D01*
X016002Y012563D02*
X015529Y012563D01*
X015529Y011539D01*
X016002Y011539D01*
X016002Y012563D01*
X015789Y011002D02*
X015881Y010911D01*
X015881Y010819D01*
X015789Y010727D01*
X015881Y010635D01*
X015881Y010544D01*
X015789Y010452D01*
X015606Y010452D01*
X015514Y010544D01*
X015329Y010544D02*
X015237Y010452D01*
X015054Y010452D01*
X014962Y010544D01*
X014962Y010911D01*
X015054Y011002D01*
X015237Y011002D01*
X015329Y010911D01*
X015514Y010911D02*
X015606Y011002D01*
X015789Y011002D01*
X015789Y010727D02*
X015698Y010727D01*
X016067Y010727D02*
X016434Y010727D01*
X016342Y010452D02*
X016342Y011002D01*
X016067Y010727D01*
X014360Y010053D02*
X014360Y008282D01*
X012825Y008282D01*
X012825Y010053D01*
X014360Y010053D01*
X012825Y010053D02*
X012707Y010053D01*
X012707Y008282D01*
X012589Y008282D01*
X012589Y010053D01*
X012707Y010053D01*
X012746Y010014D02*
X012746Y008321D01*
X012785Y008321D02*
X012785Y010014D01*
X012667Y010014D02*
X012667Y008321D01*
X012628Y008321D02*
X012628Y010014D01*
X012707Y008282D02*
X012825Y008282D01*
X012560Y006403D02*
X011025Y006403D01*
X011025Y004632D01*
X010907Y004632D01*
X010907Y006403D01*
X011025Y006403D01*
X010985Y006364D02*
X010985Y004671D01*
X010946Y004671D02*
X010946Y006364D01*
X010907Y006403D02*
X010789Y006403D01*
X010789Y004632D01*
X010907Y004632D01*
X010867Y004671D02*
X010867Y006364D01*
X010828Y006364D02*
X010828Y004671D01*
X011025Y004632D02*
X012560Y004632D01*
X012560Y006403D01*
X009650Y005246D02*
X009650Y004773D01*
X009493Y004773D01*
X009020Y004773D02*
X008863Y004773D01*
X008863Y005246D01*
X009099Y005442D02*
X009414Y005442D01*
X007732Y006209D02*
X007732Y006524D01*
X007535Y006760D02*
X007063Y006760D01*
X007063Y006603D01*
X007063Y006131D02*
X007063Y005973D01*
X007535Y005973D01*
X006550Y007223D02*
X006078Y007223D01*
X005881Y007459D02*
X005881Y007774D01*
X006078Y008010D02*
X006550Y008010D01*
X006550Y007853D01*
X006550Y007381D02*
X006550Y007223D01*
X005250Y007288D02*
X005250Y007760D01*
X005093Y007760D01*
X004620Y007760D02*
X004463Y007760D01*
X004463Y007288D01*
X004699Y007091D02*
X005014Y007091D01*
X001576Y008799D02*
X001576Y008957D01*
X001576Y008799D02*
X000907Y008799D01*
X000907Y011634D01*
X001576Y011634D01*
X001576Y011477D01*
X005578Y014821D02*
X005657Y014821D01*
X005657Y016514D01*
X005735Y016514D01*
X005735Y014821D01*
X005657Y014821D01*
X005735Y014821D02*
X005814Y014821D01*
X005814Y016514D01*
X005893Y016514D01*
X005893Y014821D01*
X005814Y014821D01*
X005893Y014821D02*
X008019Y014821D01*
X008019Y016514D01*
X005893Y016514D01*
X005814Y016514D02*
X005735Y016514D01*
X005657Y016514D02*
X005578Y016514D01*
X005578Y014821D01*
X008278Y014821D02*
X008278Y016514D01*
X008357Y016514D01*
X008357Y014821D01*
X008278Y014821D01*
X008357Y014821D02*
X008435Y014821D01*
X008435Y016514D01*
X008514Y016514D01*
X008514Y014821D01*
X008435Y014821D01*
X008514Y014821D02*
X008593Y014821D01*
X008593Y016514D01*
X010719Y016514D01*
X010719Y014821D01*
X008593Y014821D01*
X009532Y013340D02*
X009453Y013262D01*
X009453Y012159D01*
X009532Y012081D01*
X010792Y012081D01*
X010870Y012159D01*
X010870Y013262D01*
X010792Y013340D01*
X009532Y013340D01*
X010555Y012317D02*
X010557Y012335D01*
X010563Y012352D01*
X010573Y012368D01*
X010587Y012380D01*
X010603Y012390D01*
X010620Y012395D01*
X010639Y012396D01*
X010657Y012393D01*
X010673Y012385D01*
X010688Y012374D01*
X010700Y012360D01*
X010708Y012344D01*
X010712Y012326D01*
X010712Y012308D01*
X010708Y012290D01*
X010700Y012274D01*
X010688Y012260D01*
X010674Y012249D01*
X010657Y012241D01*
X010639Y012238D01*
X010620Y012239D01*
X010603Y012244D01*
X010587Y012254D01*
X010573Y012266D01*
X010563Y012282D01*
X010557Y012299D01*
X010555Y012317D01*
X008593Y016514D02*
X008514Y016514D01*
X008435Y016514D02*
X008357Y016514D01*
X008534Y017521D02*
X008062Y017521D01*
X008062Y018544D01*
X008534Y018544D01*
X008534Y017521D01*
X009691Y018046D02*
X009691Y018229D01*
X009783Y018321D01*
X009783Y018507D02*
X009691Y018598D01*
X009691Y018782D01*
X009783Y018874D01*
X009875Y018874D01*
X010242Y018507D01*
X010242Y018874D01*
X010242Y019059D02*
X010150Y019059D01*
X009783Y019426D01*
X009691Y019426D01*
X009691Y019059D01*
X010150Y018321D02*
X010242Y018229D01*
X010242Y018046D01*
X010150Y017954D01*
X009783Y017954D01*
X009691Y018046D01*
X000925Y016894D02*
X000925Y015476D01*
X000925Y016894D02*
X000925Y020712D01*
X025321Y011849D02*
X025321Y011666D01*
X025413Y011574D01*
X025504Y011574D01*
X025596Y011666D01*
X025596Y011941D01*
X025413Y011941D02*
X025321Y011849D01*
X025413Y011941D02*
X025780Y011941D01*
X025871Y011849D01*
X025871Y011666D01*
X025780Y011574D01*
X025780Y011389D02*
X025871Y011297D01*
X025871Y011114D01*
X025780Y011022D01*
X025413Y011022D01*
X025321Y011114D01*
X025321Y011297D01*
X025413Y011389D01*
X030157Y009612D02*
X030157Y007250D01*
X031456Y007250D02*
X031456Y009612D01*
X031400Y011373D02*
X031243Y011373D01*
X031400Y011373D02*
X031400Y011846D01*
X031164Y012042D02*
X030849Y012042D01*
X030613Y011846D02*
X030613Y011373D01*
X030770Y011373D01*
X031052Y004266D02*
X028690Y004266D01*
X028690Y002967D02*
X031052Y002967D01*
X030728Y002651D02*
X030728Y002572D01*
X030728Y002651D02*
X030098Y002651D01*
X030098Y002572D01*
X030098Y002218D02*
X030098Y001903D01*
X030098Y001824D01*
X030098Y001509D02*
X030098Y001470D01*
X030728Y001470D01*
X030728Y001509D01*
X024750Y003473D02*
X024750Y003631D01*
X024750Y003473D02*
X024278Y003473D01*
X024081Y003709D02*
X024081Y004024D01*
X024278Y004260D02*
X024750Y004260D01*
X024750Y004103D01*
X009100Y002160D02*
X009100Y001688D01*
X008864Y001491D02*
X008549Y001491D01*
X008313Y001688D02*
X008313Y002160D01*
X008470Y002160D01*
X008943Y002160D02*
X009100Y002160D01*
X007700Y002160D02*
X007700Y001688D01*
X007464Y001491D02*
X007149Y001491D01*
X006913Y001688D02*
X006913Y002160D01*
X007070Y002160D01*
X007543Y002160D02*
X007700Y002160D01*
X007843Y003223D02*
X008000Y003223D01*
X008000Y003696D01*
X007764Y003892D02*
X007449Y003892D01*
X007213Y003696D02*
X007213Y003223D01*
X007370Y003223D01*
D13*
X002106Y016894D02*
X002106Y019295D01*
X000925Y019295D02*
X000925Y016894D01*
D14*
X003110Y017405D02*
X003112Y017432D01*
X003118Y017458D01*
X003128Y017484D01*
X003142Y017507D01*
X003159Y017528D01*
X003180Y017546D01*
X003202Y017560D01*
X003227Y017572D01*
X003253Y017579D01*
X003280Y017582D01*
X003307Y017581D01*
X003334Y017576D01*
X003359Y017567D01*
X003383Y017554D01*
X003405Y017537D01*
X003424Y017518D01*
X003439Y017495D01*
X003451Y017471D01*
X003459Y017445D01*
X003463Y017419D01*
X003463Y017391D01*
X003459Y017365D01*
X003451Y017339D01*
X003439Y017315D01*
X003424Y017292D01*
X003405Y017273D01*
X003383Y017256D01*
X003359Y017243D01*
X003334Y017234D01*
X003307Y017229D01*
X003280Y017228D01*
X003253Y017231D01*
X003227Y017238D01*
X003202Y017250D01*
X003180Y017264D01*
X003159Y017282D01*
X003142Y017303D01*
X003128Y017326D01*
X003118Y017352D01*
X003112Y017378D01*
X003110Y017405D01*
X003110Y018783D02*
X003112Y018810D01*
X003118Y018836D01*
X003128Y018862D01*
X003142Y018885D01*
X003159Y018906D01*
X003180Y018924D01*
X003202Y018938D01*
X003227Y018950D01*
X003253Y018957D01*
X003280Y018960D01*
X003307Y018959D01*
X003334Y018954D01*
X003359Y018945D01*
X003383Y018932D01*
X003405Y018915D01*
X003424Y018896D01*
X003439Y018873D01*
X003451Y018849D01*
X003459Y018823D01*
X003463Y018797D01*
X003463Y018769D01*
X003459Y018743D01*
X003451Y018717D01*
X003439Y018693D01*
X003424Y018670D01*
X003405Y018651D01*
X003383Y018634D01*
X003359Y018621D01*
X003334Y018612D01*
X003307Y018607D01*
X003280Y018606D01*
X003253Y018609D01*
X003227Y018616D01*
X003202Y018628D01*
X003180Y018642D01*
X003159Y018660D01*
X003142Y018681D01*
X003128Y018704D01*
X003118Y018730D01*
X003112Y018756D01*
X003110Y018783D01*
X002127Y010807D02*
X002129Y010835D01*
X002135Y010863D01*
X002145Y010889D01*
X002158Y010914D01*
X002175Y010936D01*
X002195Y010956D01*
X002217Y010973D01*
X002242Y010986D01*
X002268Y010996D01*
X002296Y011002D01*
X002324Y011004D01*
X002352Y011002D01*
X002380Y010996D01*
X002406Y010986D01*
X002431Y010973D01*
X002453Y010956D01*
X002473Y010936D01*
X002490Y010914D01*
X002503Y010889D01*
X002513Y010863D01*
X002519Y010835D01*
X002521Y010807D01*
X002519Y010779D01*
X002513Y010751D01*
X002503Y010725D01*
X002490Y010700D01*
X002473Y010678D01*
X002453Y010658D01*
X002431Y010641D01*
X002406Y010628D01*
X002380Y010618D01*
X002352Y010612D01*
X002324Y010610D01*
X002296Y010612D01*
X002268Y010618D01*
X002242Y010628D01*
X002217Y010641D01*
X002195Y010658D01*
X002175Y010678D01*
X002158Y010700D01*
X002145Y010725D01*
X002135Y010751D01*
X002129Y010779D01*
X002127Y010807D01*
X002127Y009626D02*
X002129Y009654D01*
X002135Y009682D01*
X002145Y009708D01*
X002158Y009733D01*
X002175Y009755D01*
X002195Y009775D01*
X002217Y009792D01*
X002242Y009805D01*
X002268Y009815D01*
X002296Y009821D01*
X002324Y009823D01*
X002352Y009821D01*
X002380Y009815D01*
X002406Y009805D01*
X002431Y009792D01*
X002453Y009775D01*
X002473Y009755D01*
X002490Y009733D01*
X002503Y009708D01*
X002513Y009682D01*
X002519Y009654D01*
X002521Y009626D01*
X002519Y009598D01*
X002513Y009570D01*
X002503Y009544D01*
X002490Y009519D01*
X002473Y009497D01*
X002453Y009477D01*
X002431Y009460D01*
X002406Y009447D01*
X002380Y009437D01*
X002352Y009431D01*
X002324Y009429D01*
X002296Y009431D01*
X002268Y009437D01*
X002242Y009447D01*
X002217Y009460D01*
X002195Y009477D01*
X002175Y009497D01*
X002158Y009519D01*
X002145Y009544D01*
X002135Y009570D01*
X002129Y009598D01*
X002127Y009626D01*
D15*
X001762Y004525D02*
X001762Y004251D01*
X001762Y004388D02*
X001351Y004388D01*
X001488Y004251D01*
X001420Y004064D02*
X001351Y004064D01*
X001420Y004064D02*
X001557Y003928D01*
X001762Y003928D01*
X001557Y003928D02*
X001420Y003791D01*
X001351Y003791D01*
X001762Y003604D02*
X001762Y003331D01*
X001351Y003331D01*
X001420Y003144D02*
X001557Y003144D01*
X001625Y003075D01*
X001625Y002870D01*
X001762Y002870D02*
X001351Y002870D01*
X001351Y003075D01*
X001420Y003144D01*
X001625Y003007D02*
X001762Y003144D01*
X014944Y012687D02*
X015081Y012687D01*
X015013Y012687D02*
X015013Y013097D01*
X015081Y013097D02*
X014944Y013097D01*
X015251Y013029D02*
X015251Y012755D01*
X015320Y012687D01*
X015456Y012687D01*
X015525Y012755D01*
X015712Y012687D02*
X015985Y012687D01*
X015848Y012687D02*
X015848Y013097D01*
X015712Y012960D01*
X015525Y013029D02*
X015456Y013097D01*
X015320Y013097D01*
X015251Y013029D01*
X016172Y013029D02*
X016240Y013097D01*
X016377Y013097D01*
X016446Y013029D01*
X016446Y012960D01*
X016377Y012892D01*
X016446Y012823D01*
X016446Y012755D01*
X016377Y012687D01*
X016240Y012687D01*
X016172Y012755D01*
X016309Y012892D02*
X016377Y012892D01*
X011962Y015920D02*
X011962Y016057D01*
X011962Y015988D02*
X011551Y015988D01*
X011551Y015920D02*
X011551Y016057D01*
X011620Y016227D02*
X011893Y016227D01*
X011962Y016295D01*
X011962Y016432D01*
X011893Y016500D01*
X011962Y016687D02*
X011962Y016961D01*
X011962Y016824D02*
X011551Y016824D01*
X011688Y016687D01*
X011620Y016500D02*
X011551Y016432D01*
X011551Y016295D01*
X011620Y016227D01*
X011620Y017147D02*
X011551Y017216D01*
X011551Y017353D01*
X011620Y017421D01*
X011688Y017421D01*
X011962Y017147D01*
X011962Y017421D01*
X010149Y015359D02*
X010013Y015359D01*
X009944Y015291D01*
X009944Y015018D01*
X010218Y015291D01*
X010218Y015018D01*
X010149Y014949D01*
X010013Y014949D01*
X009944Y015018D01*
X009757Y014949D02*
X009484Y014949D01*
X009621Y014949D02*
X009621Y015359D01*
X009484Y015223D01*
X009297Y015291D02*
X009229Y015359D01*
X009092Y015359D01*
X009024Y015291D01*
X009024Y015018D01*
X009092Y014949D01*
X009229Y014949D01*
X009297Y015018D01*
X008853Y014949D02*
X008717Y014949D01*
X008785Y014949D02*
X008785Y015359D01*
X008717Y015359D02*
X008853Y015359D01*
X010149Y015359D02*
X010218Y015291D01*
X007057Y015291D02*
X007057Y015018D01*
X006989Y014949D01*
X006852Y014949D01*
X006784Y015018D01*
X006852Y015154D02*
X007057Y015154D01*
X007057Y015291D02*
X006989Y015359D01*
X006852Y015359D01*
X006784Y015291D01*
X006784Y015223D01*
X006852Y015154D01*
X006597Y015018D02*
X006529Y014949D01*
X006392Y014949D01*
X006324Y015018D01*
X006324Y015291D01*
X006392Y015359D01*
X006529Y015359D01*
X006597Y015291D01*
X006153Y015359D02*
X006017Y015359D01*
X006085Y015359D02*
X006085Y014949D01*
X006017Y014949D02*
X006153Y014949D01*
X001626Y017045D02*
X001558Y016976D01*
X001626Y017045D02*
X001626Y017181D01*
X001558Y017250D01*
X001489Y017250D01*
X001421Y017181D01*
X001421Y017045D01*
X001353Y016976D01*
X001284Y016976D01*
X001216Y017045D01*
X001216Y017181D01*
X001284Y017250D01*
X001216Y017437D02*
X001489Y017437D01*
X001626Y017573D01*
X001489Y017710D01*
X001216Y017710D01*
X001353Y017897D02*
X001216Y018034D01*
X001626Y018034D01*
X001626Y017897D02*
X001626Y018171D01*
X023302Y016038D02*
X023302Y015764D01*
X023370Y015696D01*
X023507Y015696D01*
X023575Y015764D01*
X023762Y015764D02*
X023830Y015696D01*
X023967Y015696D01*
X024036Y015764D01*
X024036Y015833D01*
X023967Y015901D01*
X023899Y015901D01*
X023967Y015901D02*
X024036Y015970D01*
X024036Y016038D01*
X023967Y016106D01*
X023830Y016106D01*
X023762Y016038D01*
X023575Y016038D02*
X023507Y016106D01*
X023370Y016106D01*
X023302Y016038D01*
X024222Y016106D02*
X024496Y016106D01*
X024496Y016038D01*
X024222Y015764D01*
X024222Y015696D01*
X031651Y018699D02*
X031720Y018631D01*
X031788Y018631D01*
X031857Y018699D01*
X031857Y018836D01*
X031925Y018904D01*
X031993Y018904D01*
X032062Y018836D01*
X032062Y018699D01*
X031993Y018631D01*
X031651Y018699D02*
X031651Y018836D01*
X031720Y018904D01*
X031651Y019091D02*
X031925Y019091D01*
X032062Y019228D01*
X031925Y019365D01*
X031651Y019365D01*
X031720Y019551D02*
X031651Y019620D01*
X031651Y019756D01*
X031720Y019825D01*
X031788Y019825D01*
X031857Y019756D01*
X031925Y019825D01*
X031993Y019825D01*
X032062Y019756D01*
X032062Y019620D01*
X031993Y019551D01*
X031857Y019688D02*
X031857Y019756D01*
D16*
X026447Y016517D02*
X026447Y016470D01*
X026260Y016283D01*
X026260Y016237D01*
X026171Y016237D02*
X026078Y016330D01*
X026124Y016330D02*
X025984Y016330D01*
X025984Y016237D02*
X025984Y016517D01*
X026124Y016517D01*
X026171Y016470D01*
X026171Y016377D01*
X026124Y016330D01*
X026260Y016517D02*
X026447Y016517D01*
X026313Y015097D02*
X026220Y015097D01*
X026173Y015050D01*
X026173Y015004D01*
X026220Y014957D01*
X026360Y014957D01*
X026360Y015050D02*
X026313Y015097D01*
X026360Y015050D02*
X026360Y014863D01*
X026313Y014817D01*
X026220Y014817D01*
X026173Y014863D01*
X026084Y014863D02*
X026084Y015050D01*
X026037Y015097D01*
X025897Y015097D01*
X025897Y014817D01*
X026037Y014817D01*
X026084Y014863D01*
X026037Y014447D02*
X025897Y014447D01*
X025897Y014167D01*
X025897Y014260D02*
X026037Y014260D01*
X026084Y014307D01*
X026084Y014400D01*
X026037Y014447D01*
X026173Y014447D02*
X026173Y014307D01*
X026266Y014354D01*
X026313Y014354D01*
X026360Y014307D01*
X026360Y014213D01*
X026313Y014167D01*
X026220Y014167D01*
X026173Y014213D01*
X026084Y014167D02*
X025990Y014260D01*
X026173Y014447D02*
X026360Y014447D01*
X026449Y014447D02*
X026449Y014307D01*
X026543Y014354D01*
X026589Y014354D01*
X026636Y014307D01*
X026636Y014213D01*
X026589Y014167D01*
X026496Y014167D01*
X026449Y014213D01*
X026449Y014447D02*
X026636Y014447D01*
X027226Y014249D02*
X027273Y014296D01*
X027320Y014296D01*
X027367Y014249D01*
X027413Y014296D01*
X027460Y014296D01*
X027507Y014249D01*
X027507Y014156D01*
X027460Y014109D01*
X027367Y014020D02*
X027367Y013833D01*
X027226Y013973D01*
X027507Y013973D01*
X027507Y013744D02*
X027413Y013650D01*
X027413Y013697D02*
X027413Y013557D01*
X027507Y013557D02*
X027226Y013557D01*
X027226Y013697D01*
X027273Y013744D01*
X027367Y013744D01*
X027413Y013697D01*
X027273Y014109D02*
X027226Y014156D01*
X027226Y014249D01*
X027367Y014249D02*
X027367Y014203D01*
X028126Y012196D02*
X028173Y012196D01*
X028360Y012009D01*
X028407Y012009D01*
X028360Y011920D02*
X028407Y011873D01*
X028407Y011780D01*
X028360Y011733D01*
X028267Y011733D02*
X028220Y011826D01*
X028220Y011873D01*
X028267Y011920D01*
X028360Y011920D01*
X028267Y011733D02*
X028126Y011733D01*
X028126Y011920D01*
X028126Y012009D02*
X028126Y012196D01*
X028173Y011644D02*
X028267Y011644D01*
X028313Y011597D01*
X028313Y011457D01*
X028313Y011550D02*
X028407Y011644D01*
X028407Y011457D02*
X028126Y011457D01*
X028126Y011597D01*
X028173Y011644D01*
X028806Y011657D02*
X028806Y011471D01*
X028947Y011471D01*
X028900Y011564D01*
X028900Y011611D01*
X028947Y011657D01*
X029040Y011657D01*
X029087Y011611D01*
X029087Y011517D01*
X029040Y011471D01*
X029040Y011381D02*
X029087Y011334D01*
X029087Y011241D01*
X029040Y011194D01*
X028853Y011194D01*
X028806Y011241D01*
X028806Y011334D01*
X028853Y011381D01*
X029456Y011334D02*
X029456Y011241D01*
X029503Y011194D01*
X029690Y011194D01*
X029737Y011241D01*
X029737Y011334D01*
X029690Y011381D01*
X029597Y011471D02*
X029597Y011657D01*
X029737Y011611D02*
X029456Y011611D01*
X029597Y011471D01*
X029503Y011381D02*
X029456Y011334D01*
X029503Y010357D02*
X029550Y010357D01*
X029597Y010311D01*
X029643Y010357D01*
X029690Y010357D01*
X029737Y010311D01*
X029737Y010217D01*
X029690Y010171D01*
X029737Y010081D02*
X029643Y009988D01*
X029643Y010034D02*
X029643Y009894D01*
X029737Y009894D02*
X029456Y009894D01*
X029456Y010034D01*
X029503Y010081D01*
X029597Y010081D01*
X029643Y010034D01*
X029503Y010171D02*
X029456Y010217D01*
X029456Y010311D01*
X029503Y010357D01*
X029597Y010311D02*
X029597Y010264D01*
X027507Y011003D02*
X027507Y011097D01*
X027460Y011144D01*
X027507Y011233D02*
X027320Y011420D01*
X027273Y011420D01*
X027226Y011373D01*
X027226Y011280D01*
X027273Y011233D01*
X027273Y011144D02*
X027226Y011097D01*
X027226Y011003D01*
X027273Y010957D01*
X027460Y010957D01*
X027507Y011003D01*
X027507Y011233D02*
X027507Y011420D01*
X027460Y011509D02*
X027507Y011556D01*
X027507Y011649D01*
X027460Y011696D01*
X027413Y011696D01*
X027367Y011649D01*
X027367Y011509D01*
X027460Y011509D01*
X027367Y011509D02*
X027273Y011603D01*
X027226Y011696D01*
X026807Y011373D02*
X026807Y011280D01*
X026760Y011233D01*
X026713Y011233D01*
X026667Y011280D01*
X026667Y011373D01*
X026713Y011420D01*
X026760Y011420D01*
X026807Y011373D01*
X026667Y011373D02*
X026620Y011420D01*
X026573Y011420D01*
X026526Y011373D01*
X026526Y011280D01*
X026573Y011233D01*
X026620Y011233D01*
X026667Y011280D01*
X026760Y011144D02*
X026807Y011097D01*
X026807Y011003D01*
X026760Y010957D01*
X026573Y010957D01*
X026526Y011003D01*
X026526Y011097D01*
X026573Y011144D01*
X024107Y011170D02*
X024107Y010983D01*
X023920Y011170D01*
X023873Y011170D01*
X023826Y011123D01*
X023826Y011030D01*
X023873Y010983D01*
X023873Y010894D02*
X023967Y010894D01*
X024013Y010847D01*
X024013Y010707D01*
X024013Y010800D02*
X024107Y010894D01*
X024107Y010707D02*
X023826Y010707D01*
X023826Y010847D01*
X023873Y010894D01*
X023826Y011259D02*
X023967Y011259D01*
X023920Y011353D01*
X023920Y011399D01*
X023967Y011446D01*
X024060Y011446D01*
X024107Y011399D01*
X024107Y011306D01*
X024060Y011259D01*
X023826Y011259D02*
X023826Y011446D01*
X023826Y011957D02*
X023826Y012097D01*
X023873Y012144D01*
X024060Y012144D01*
X024107Y012097D01*
X024107Y011957D01*
X023826Y011957D01*
X023826Y012233D02*
X023967Y012233D01*
X023920Y012326D01*
X023920Y012373D01*
X023967Y012420D01*
X024060Y012420D01*
X024107Y012373D01*
X024107Y012280D01*
X024060Y012233D01*
X023826Y012233D02*
X023826Y012420D01*
X023157Y012373D02*
X022876Y012373D01*
X023017Y012233D01*
X023017Y012420D01*
X023110Y012144D02*
X022923Y012144D01*
X022876Y012097D01*
X022876Y011957D01*
X023157Y011957D01*
X023157Y012097D01*
X023110Y012144D01*
X023017Y011446D02*
X023017Y011259D01*
X022876Y011399D01*
X023157Y011399D01*
X023157Y011170D02*
X023157Y010983D01*
X022970Y011170D01*
X022923Y011170D01*
X022876Y011123D01*
X022876Y011030D01*
X022923Y010983D01*
X022923Y010894D02*
X023017Y010894D01*
X023063Y010847D01*
X023063Y010707D01*
X023063Y010800D02*
X023157Y010894D01*
X023157Y010707D02*
X022876Y010707D01*
X022876Y010847D01*
X022923Y010894D01*
X022207Y010894D02*
X022113Y010800D01*
X022113Y010847D02*
X022113Y010707D01*
X022207Y010707D02*
X021926Y010707D01*
X021926Y010847D01*
X021973Y010894D01*
X022067Y010894D01*
X022113Y010847D01*
X022207Y010983D02*
X022020Y011170D01*
X021973Y011170D01*
X021926Y011123D01*
X021926Y011030D01*
X021973Y010983D01*
X022207Y010983D02*
X022207Y011170D01*
X022160Y011259D02*
X022207Y011306D01*
X022207Y011399D01*
X022160Y011446D01*
X022113Y011446D01*
X022067Y011399D01*
X022067Y011259D01*
X022160Y011259D01*
X022067Y011259D02*
X021973Y011353D01*
X021926Y011446D01*
X021926Y011957D02*
X021926Y012097D01*
X021973Y012144D01*
X022160Y012144D01*
X022207Y012097D01*
X022207Y011957D01*
X021926Y011957D01*
X022067Y012233D02*
X022067Y012373D01*
X022113Y012420D01*
X022160Y012420D01*
X022207Y012373D01*
X022207Y012280D01*
X022160Y012233D01*
X022067Y012233D01*
X021973Y012326D01*
X021926Y012420D01*
X021889Y013417D02*
X021889Y013697D01*
X021749Y013557D01*
X021936Y013557D01*
X021660Y013557D02*
X021473Y013557D01*
X021613Y013697D01*
X021613Y013417D01*
X021384Y013463D02*
X021337Y013417D01*
X021243Y013417D01*
X021197Y013463D01*
X021197Y013650D01*
X021243Y013697D01*
X021337Y013697D01*
X021384Y013650D01*
X020447Y013633D02*
X020401Y013587D01*
X020307Y013587D01*
X020260Y013633D01*
X020171Y013587D02*
X019984Y013587D01*
X020078Y013587D02*
X020078Y013867D01*
X019984Y013774D01*
X019895Y013820D02*
X019848Y013867D01*
X019755Y013867D01*
X019708Y013820D01*
X019708Y013633D01*
X019755Y013587D01*
X019848Y013587D01*
X019895Y013633D01*
X020260Y013774D02*
X020307Y013727D01*
X020447Y013727D01*
X020447Y013820D02*
X020447Y013633D01*
X020447Y013820D02*
X020401Y013867D01*
X020307Y013867D01*
X020260Y013820D01*
X020260Y013774D01*
X020336Y014317D02*
X020149Y014317D01*
X020336Y014504D01*
X020336Y014550D01*
X020289Y014597D01*
X020196Y014597D01*
X020149Y014550D01*
X020060Y014597D02*
X019873Y014597D01*
X019873Y014457D01*
X019966Y014504D01*
X020013Y014504D01*
X020060Y014457D01*
X020060Y014363D01*
X020013Y014317D01*
X019920Y014317D01*
X019873Y014363D01*
X019784Y014317D02*
X019690Y014410D01*
X019737Y014410D02*
X019597Y014410D01*
X019597Y014317D02*
X019597Y014597D01*
X019737Y014597D01*
X019784Y014550D01*
X019784Y014457D01*
X019737Y014410D01*
X019086Y014410D02*
X019086Y014363D01*
X019039Y014317D01*
X018946Y014317D01*
X018899Y014363D01*
X018810Y014363D02*
X018763Y014317D01*
X018670Y014317D01*
X018623Y014363D01*
X018623Y014457D02*
X018716Y014504D01*
X018763Y014504D01*
X018810Y014457D01*
X018810Y014363D01*
X018993Y014457D02*
X019039Y014457D01*
X019086Y014410D01*
X019039Y014457D02*
X019086Y014504D01*
X019086Y014550D01*
X019039Y014597D01*
X018946Y014597D01*
X018899Y014550D01*
X018810Y014597D02*
X018623Y014597D01*
X018623Y014457D01*
X018534Y014457D02*
X018534Y014550D01*
X018487Y014597D01*
X018347Y014597D01*
X018347Y014317D01*
X018347Y014410D02*
X018487Y014410D01*
X018534Y014457D01*
X018440Y014410D02*
X018534Y014317D01*
X017957Y014349D02*
X017676Y014349D01*
X017817Y014209D01*
X017817Y014396D01*
X017817Y014120D02*
X017910Y014120D01*
X017957Y014073D01*
X017957Y013980D01*
X017910Y013933D01*
X017817Y013933D02*
X017770Y014026D01*
X017770Y014073D01*
X017817Y014120D01*
X017676Y014120D02*
X017676Y013933D01*
X017817Y013933D01*
X017817Y013844D02*
X017863Y013797D01*
X017863Y013657D01*
X017863Y013750D02*
X017957Y013844D01*
X017817Y013844D02*
X017723Y013844D01*
X017676Y013797D01*
X017676Y013657D01*
X017957Y013657D01*
X018458Y013633D02*
X018505Y013587D01*
X018598Y013587D01*
X018645Y013633D01*
X018734Y013587D02*
X018921Y013587D01*
X018828Y013587D02*
X018828Y013867D01*
X018734Y013774D01*
X018645Y013820D02*
X018598Y013867D01*
X018505Y013867D01*
X018458Y013820D01*
X018458Y013633D01*
X019010Y013633D02*
X019057Y013587D01*
X019151Y013587D01*
X019197Y013633D01*
X019197Y013680D01*
X019151Y013727D01*
X019057Y013727D01*
X019010Y013774D01*
X019010Y013820D01*
X019057Y013867D01*
X019151Y013867D01*
X019197Y013820D01*
X019197Y013774D01*
X019151Y013727D01*
X019057Y013727D02*
X019010Y013680D01*
X019010Y013633D01*
X016786Y014113D02*
X016739Y014067D01*
X016646Y014067D01*
X016599Y014113D01*
X016510Y014067D02*
X016323Y014067D01*
X016510Y014254D01*
X016510Y014300D01*
X016463Y014347D01*
X016370Y014347D01*
X016323Y014300D01*
X016234Y014300D02*
X016234Y014207D01*
X016187Y014160D01*
X016047Y014160D01*
X016140Y014160D02*
X016234Y014067D01*
X016047Y014067D02*
X016047Y014347D01*
X016187Y014347D01*
X016234Y014300D01*
X016599Y014300D02*
X016646Y014347D01*
X016739Y014347D01*
X016786Y014300D01*
X016786Y014254D01*
X016739Y014207D01*
X016786Y014160D01*
X016786Y014113D01*
X016739Y014207D02*
X016693Y014207D01*
X013797Y013417D02*
X013610Y013417D01*
X013610Y013277D01*
X013704Y013324D01*
X013751Y013324D01*
X013797Y013277D01*
X013797Y013183D01*
X013751Y013137D01*
X013657Y013137D01*
X013610Y013183D01*
X013521Y013183D02*
X013474Y013137D01*
X013381Y013137D01*
X013334Y013183D01*
X013245Y013137D02*
X013151Y013230D01*
X013198Y013230D02*
X013058Y013230D01*
X013058Y013137D02*
X013058Y013417D01*
X013198Y013417D01*
X013245Y013370D01*
X013245Y013277D01*
X013198Y013230D01*
X013334Y013370D02*
X013381Y013417D01*
X013474Y013417D01*
X013521Y013370D01*
X013521Y013324D01*
X013474Y013277D01*
X013521Y013230D01*
X013521Y013183D01*
X013474Y013277D02*
X013428Y013277D01*
X013363Y013767D02*
X013363Y014047D01*
X013223Y013907D01*
X013410Y013907D01*
X013499Y014000D02*
X013546Y014047D01*
X013639Y014047D01*
X013686Y014000D01*
X013686Y013954D01*
X013499Y013767D01*
X013686Y013767D01*
X013134Y013813D02*
X013087Y013767D01*
X012993Y013767D01*
X012947Y013813D01*
X012947Y014000D01*
X012993Y014047D01*
X013087Y014047D01*
X013134Y014000D01*
X012436Y013617D02*
X012249Y013617D01*
X012343Y013617D02*
X012343Y013897D01*
X012249Y013804D01*
X012160Y013757D02*
X012160Y013663D01*
X012113Y013617D01*
X012020Y013617D01*
X011973Y013663D01*
X011973Y013757D02*
X012066Y013804D01*
X012113Y013804D01*
X012160Y013757D01*
X012160Y013897D02*
X011973Y013897D01*
X011973Y013757D01*
X011884Y013757D02*
X011837Y013710D01*
X011697Y013710D01*
X011790Y013710D02*
X011884Y013617D01*
X011884Y013757D02*
X011884Y013850D01*
X011837Y013897D01*
X011697Y013897D01*
X011697Y013617D01*
X011697Y013247D02*
X011837Y013247D01*
X011884Y013200D01*
X011884Y013107D01*
X011837Y013060D01*
X011697Y013060D01*
X011790Y013060D02*
X011884Y012967D01*
X011973Y013107D02*
X012160Y013107D01*
X012249Y013154D02*
X012296Y013107D01*
X012436Y013107D01*
X012436Y013200D02*
X012436Y013013D01*
X012389Y012967D01*
X012296Y012967D01*
X012249Y013013D01*
X012249Y013154D02*
X012249Y013200D01*
X012296Y013247D01*
X012389Y013247D01*
X012436Y013200D01*
X012113Y013247D02*
X011973Y013107D01*
X012113Y012967D02*
X012113Y013247D01*
X011697Y013247D02*
X011697Y012967D01*
X011803Y012207D02*
X011756Y012161D01*
X011756Y012067D01*
X011803Y012021D01*
X011803Y011931D02*
X011850Y011931D01*
X011897Y011884D01*
X011943Y011931D01*
X011990Y011931D01*
X012037Y011884D01*
X012037Y011791D01*
X011990Y011744D01*
X012037Y011655D02*
X011943Y011561D01*
X011943Y011608D02*
X011943Y011468D01*
X012037Y011468D02*
X011756Y011468D01*
X011756Y011608D01*
X011803Y011655D01*
X011897Y011655D01*
X011943Y011608D01*
X011803Y011744D02*
X011756Y011791D01*
X011756Y011884D01*
X011803Y011931D01*
X011897Y011884D02*
X011897Y011838D01*
X011990Y012021D02*
X012037Y012067D01*
X012037Y012161D01*
X011990Y012207D01*
X011943Y012207D01*
X011897Y012161D01*
X011897Y012114D01*
X011897Y012161D02*
X011850Y012207D01*
X011803Y012207D01*
X012406Y012161D02*
X012453Y012207D01*
X012640Y012021D01*
X012687Y012067D01*
X012687Y012161D01*
X012640Y012207D01*
X012453Y012207D01*
X012406Y012161D02*
X012406Y012067D01*
X012453Y012021D01*
X012640Y012021D01*
X012547Y011931D02*
X012547Y011744D01*
X012406Y011884D01*
X012687Y011884D01*
X012640Y011655D02*
X012687Y011608D01*
X012687Y011515D01*
X012640Y011468D01*
X012453Y011468D01*
X012406Y011515D01*
X012406Y011608D01*
X012453Y011655D01*
X012147Y010307D02*
X012147Y010121D01*
X012006Y010261D01*
X012287Y010261D01*
X012287Y010031D02*
X012287Y009844D01*
X012100Y010031D01*
X012053Y010031D01*
X012006Y009984D01*
X012006Y009891D01*
X012053Y009844D01*
X012053Y009755D02*
X012006Y009708D01*
X012006Y009615D01*
X012053Y009568D01*
X012240Y009568D01*
X012287Y009615D01*
X012287Y009708D01*
X012240Y009755D01*
X011307Y009747D02*
X011260Y009794D01*
X011307Y009747D02*
X011307Y009653D01*
X011260Y009607D01*
X011073Y009607D01*
X011026Y009653D01*
X011026Y009747D01*
X011073Y009794D01*
X011167Y009883D02*
X011026Y010023D01*
X011307Y010023D01*
X011260Y010159D02*
X011307Y010206D01*
X011307Y010299D01*
X011260Y010346D01*
X011167Y010346D01*
X011120Y010299D01*
X011120Y010253D01*
X011167Y010159D01*
X011026Y010159D01*
X011026Y010346D01*
X011167Y010070D02*
X011167Y009883D01*
X010207Y009496D02*
X010207Y009309D01*
X010020Y009496D01*
X009973Y009496D01*
X009926Y009449D01*
X009926Y009356D01*
X009973Y009309D01*
X010067Y009220D02*
X010067Y009033D01*
X009926Y009173D01*
X010207Y009173D01*
X010207Y008944D02*
X010113Y008850D01*
X010113Y008897D02*
X010113Y008757D01*
X010207Y008757D02*
X009926Y008757D01*
X009926Y008897D01*
X009973Y008944D01*
X010067Y008944D01*
X010113Y008897D01*
X009557Y008944D02*
X009463Y008850D01*
X009463Y008897D02*
X009463Y008757D01*
X009557Y008757D02*
X009276Y008757D01*
X009276Y008897D01*
X009323Y008944D01*
X009417Y008944D01*
X009463Y008897D01*
X009417Y009033D02*
X009417Y009220D01*
X009370Y009309D02*
X009276Y009403D01*
X009557Y009403D01*
X009557Y009496D02*
X009557Y009309D01*
X009557Y009173D02*
X009276Y009173D01*
X009417Y009033D01*
X008447Y008487D02*
X008260Y008487D01*
X008171Y008487D02*
X007984Y008487D01*
X008171Y008674D01*
X008171Y008720D01*
X008124Y008767D01*
X008031Y008767D01*
X007984Y008720D01*
X007895Y008720D02*
X007895Y008627D01*
X007848Y008580D01*
X007708Y008580D01*
X007708Y008487D02*
X007708Y008767D01*
X007848Y008767D01*
X007895Y008720D01*
X007801Y008580D02*
X007895Y008487D01*
X008260Y008674D02*
X008354Y008767D01*
X008354Y008487D01*
X008556Y008057D02*
X008603Y007964D01*
X008697Y007871D01*
X008697Y008011D01*
X008743Y008057D01*
X008790Y008057D01*
X008837Y008011D01*
X008837Y007917D01*
X008790Y007871D01*
X008697Y007871D01*
X008837Y007781D02*
X008837Y007594D01*
X008837Y007505D02*
X008743Y007411D01*
X008743Y007458D02*
X008743Y007318D01*
X008837Y007318D02*
X008556Y007318D01*
X008556Y007458D01*
X008603Y007505D01*
X008697Y007505D01*
X008743Y007458D01*
X008650Y007594D02*
X008556Y007688D01*
X008837Y007688D01*
X009226Y007576D02*
X009320Y007483D01*
X009273Y007394D02*
X009226Y007347D01*
X009226Y007253D01*
X009273Y007207D01*
X009460Y007207D01*
X009507Y007253D01*
X009507Y007347D01*
X009460Y007394D01*
X009507Y007483D02*
X009507Y007670D01*
X009507Y007576D02*
X009226Y007576D01*
X009367Y007759D02*
X009367Y007899D01*
X009413Y007946D01*
X009460Y007946D01*
X009507Y007899D01*
X009507Y007806D01*
X009460Y007759D01*
X009367Y007759D01*
X009273Y007853D01*
X009226Y007946D01*
X009876Y007946D02*
X009876Y007759D01*
X009923Y007670D02*
X009970Y007670D01*
X010017Y007623D01*
X010063Y007670D01*
X010110Y007670D01*
X010157Y007623D01*
X010157Y007530D01*
X010110Y007483D01*
X010157Y007394D02*
X010063Y007300D01*
X010063Y007347D02*
X010063Y007207D01*
X010157Y007207D02*
X009876Y007207D01*
X009876Y007347D01*
X009923Y007394D01*
X010017Y007394D01*
X010063Y007347D01*
X009923Y007483D02*
X009876Y007530D01*
X009876Y007623D01*
X009923Y007670D01*
X010017Y007623D02*
X010017Y007576D01*
X010110Y007759D02*
X010157Y007759D01*
X010110Y007759D02*
X009923Y007946D01*
X009876Y007946D01*
X010526Y007946D02*
X010526Y007759D01*
X010526Y007576D02*
X010807Y007576D01*
X010807Y007483D02*
X010807Y007670D01*
X010807Y007759D02*
X010760Y007759D01*
X010573Y007946D01*
X010526Y007946D01*
X010526Y007576D02*
X010620Y007483D01*
X010667Y007394D02*
X010713Y007347D01*
X010713Y007207D01*
X010713Y007300D02*
X010807Y007394D01*
X010667Y007394D02*
X010573Y007394D01*
X010526Y007347D01*
X010526Y007207D01*
X010807Y007207D01*
X011176Y007207D02*
X011176Y007347D01*
X011223Y007394D01*
X011317Y007394D01*
X011363Y007347D01*
X011363Y007207D01*
X011363Y007300D02*
X011457Y007394D01*
X011410Y007483D02*
X011457Y007530D01*
X011457Y007623D01*
X011410Y007670D01*
X011363Y007670D01*
X011317Y007623D01*
X011317Y007576D01*
X011317Y007623D02*
X011270Y007670D01*
X011223Y007670D01*
X011176Y007623D01*
X011176Y007530D01*
X011223Y007483D01*
X011176Y007207D02*
X011457Y007207D01*
X011410Y007759D02*
X011457Y007806D01*
X011457Y007899D01*
X011410Y007946D01*
X011363Y007946D01*
X011317Y007899D01*
X011317Y007759D01*
X011410Y007759D01*
X011317Y007759D02*
X011223Y007853D01*
X011176Y007946D01*
X010110Y006696D02*
X010157Y006649D01*
X010157Y006556D01*
X010110Y006509D01*
X010063Y006509D01*
X010017Y006556D01*
X010017Y006649D01*
X010063Y006696D01*
X010110Y006696D01*
X010017Y006649D02*
X009970Y006696D01*
X009923Y006696D01*
X009876Y006649D01*
X009876Y006556D01*
X009923Y006509D01*
X009970Y006509D01*
X010017Y006556D01*
X010063Y006420D02*
X010110Y006420D01*
X010157Y006373D01*
X010157Y006280D01*
X010110Y006233D01*
X010157Y006144D02*
X010063Y006050D01*
X010063Y006097D02*
X010063Y005957D01*
X010157Y005957D02*
X009876Y005957D01*
X009876Y006097D01*
X009923Y006144D01*
X010017Y006144D01*
X010063Y006097D01*
X009923Y006233D02*
X009876Y006280D01*
X009876Y006373D01*
X009923Y006420D01*
X009970Y006420D01*
X010017Y006373D01*
X010063Y006420D01*
X010017Y006373D02*
X010017Y006326D01*
X010457Y005196D02*
X010457Y005009D01*
X010457Y004920D02*
X010457Y004733D01*
X010270Y004920D01*
X010223Y004920D01*
X010176Y004873D01*
X010176Y004780D01*
X010223Y004733D01*
X010223Y004644D02*
X010176Y004597D01*
X010176Y004503D01*
X010223Y004457D01*
X010410Y004457D01*
X010457Y004503D01*
X010457Y004597D01*
X010410Y004644D01*
X010270Y005009D02*
X010176Y005103D01*
X010457Y005103D01*
X010487Y003697D02*
X010347Y003697D01*
X010347Y003417D01*
X010347Y003510D02*
X010487Y003510D01*
X010534Y003557D01*
X010534Y003650D01*
X010487Y003697D01*
X010623Y003650D02*
X010670Y003697D01*
X010763Y003697D01*
X010810Y003650D01*
X010810Y003604D01*
X010763Y003557D01*
X010810Y003510D01*
X010810Y003463D01*
X010763Y003417D01*
X010670Y003417D01*
X010623Y003463D01*
X010534Y003417D02*
X010440Y003510D01*
X010716Y003557D02*
X010763Y003557D01*
X010899Y003650D02*
X010946Y003697D01*
X011039Y003697D01*
X011086Y003650D01*
X010899Y003463D01*
X010946Y003417D01*
X011039Y003417D01*
X011086Y003463D01*
X011086Y003650D01*
X010899Y003650D02*
X010899Y003463D01*
X010993Y003047D02*
X010993Y002767D01*
X011086Y002767D02*
X010899Y002767D01*
X010810Y002813D02*
X010763Y002767D01*
X010670Y002767D01*
X010623Y002813D01*
X010534Y002767D02*
X010440Y002860D01*
X010487Y002860D02*
X010347Y002860D01*
X010347Y002767D02*
X010347Y003047D01*
X010487Y003047D01*
X010534Y003000D01*
X010534Y002907D01*
X010487Y002860D01*
X010623Y003000D02*
X010670Y003047D01*
X010763Y003047D01*
X010810Y003000D01*
X010810Y002954D01*
X010763Y002907D01*
X010810Y002860D01*
X010810Y002813D01*
X010763Y002907D02*
X010716Y002907D01*
X010899Y002954D02*
X010993Y003047D01*
X011606Y002961D02*
X011606Y002867D01*
X011653Y002821D01*
X011840Y002821D01*
X011653Y003007D01*
X011840Y003007D01*
X011887Y002961D01*
X011887Y002867D01*
X011840Y002821D01*
X011887Y002731D02*
X011887Y002544D01*
X011887Y002638D02*
X011606Y002638D01*
X011700Y002544D01*
X011653Y002455D02*
X011606Y002408D01*
X011606Y002315D01*
X011653Y002268D01*
X011840Y002268D01*
X011887Y002315D01*
X011887Y002408D01*
X011840Y002455D01*
X012256Y002894D02*
X012256Y003034D01*
X012303Y003081D01*
X012397Y003081D01*
X012443Y003034D01*
X012443Y002894D01*
X012537Y002894D02*
X012256Y002894D01*
X012443Y002988D02*
X012537Y003081D01*
X012490Y003171D02*
X012537Y003217D01*
X012537Y003311D01*
X012490Y003357D01*
X012303Y003357D01*
X012256Y003311D01*
X012256Y003217D01*
X012303Y003171D01*
X012350Y003171D01*
X012397Y003217D01*
X012397Y003357D01*
X011653Y003007D02*
X011606Y002961D01*
X010497Y002370D02*
X010451Y002417D01*
X010357Y002417D01*
X010310Y002370D01*
X010497Y002370D02*
X010497Y002324D01*
X010310Y002137D01*
X010497Y002137D01*
X010221Y002137D02*
X010034Y002137D01*
X010128Y002137D02*
X010128Y002417D01*
X010034Y002324D01*
X009945Y002370D02*
X009898Y002417D01*
X009805Y002417D01*
X009758Y002370D01*
X009758Y002183D01*
X009805Y002137D01*
X009898Y002137D01*
X009945Y002183D01*
X009898Y001767D02*
X009758Y001767D01*
X009758Y001487D01*
X009758Y001580D02*
X009898Y001580D01*
X009945Y001627D01*
X009945Y001720D01*
X009898Y001767D01*
X010034Y001674D02*
X010128Y001767D01*
X010128Y001487D01*
X010221Y001487D02*
X010034Y001487D01*
X009945Y001487D02*
X009851Y001580D01*
X010310Y001487D02*
X010497Y001674D01*
X010497Y001720D01*
X010451Y001767D01*
X010357Y001767D01*
X010310Y001720D01*
X010310Y001487D02*
X010497Y001487D01*
X009836Y002767D02*
X009649Y002767D01*
X009560Y002767D02*
X009373Y002767D01*
X009284Y002767D02*
X009190Y002860D01*
X009237Y002860D02*
X009097Y002860D01*
X009097Y002767D02*
X009097Y003047D01*
X009237Y003047D01*
X009284Y003000D01*
X009284Y002907D01*
X009237Y002860D01*
X009373Y002954D02*
X009466Y003047D01*
X009466Y002767D01*
X009649Y002954D02*
X009743Y003047D01*
X009743Y002767D01*
X009760Y003437D02*
X009947Y003437D01*
X009854Y003437D02*
X009854Y003717D01*
X009760Y003624D01*
X009578Y003717D02*
X009578Y003437D01*
X009671Y003437D02*
X009484Y003437D01*
X009395Y003483D02*
X009348Y003437D01*
X009255Y003437D01*
X009208Y003483D01*
X009208Y003670D01*
X009255Y003717D01*
X009348Y003717D01*
X009395Y003670D01*
X009484Y003624D02*
X009578Y003717D01*
X007937Y004568D02*
X007656Y004568D01*
X007656Y004708D01*
X007703Y004755D01*
X007797Y004755D01*
X007843Y004708D01*
X007843Y004568D01*
X007843Y004661D02*
X007937Y004755D01*
X007797Y004844D02*
X007797Y005031D01*
X007890Y005121D02*
X007703Y005307D01*
X007890Y005307D01*
X007937Y005261D01*
X007937Y005167D01*
X007890Y005121D01*
X007703Y005121D01*
X007656Y005167D01*
X007656Y005261D01*
X007703Y005307D01*
X007656Y004984D02*
X007797Y004844D01*
X007937Y004984D02*
X007656Y004984D01*
X007926Y007207D02*
X007926Y007347D01*
X007973Y007394D01*
X008067Y007394D01*
X008113Y007347D01*
X008113Y007207D01*
X008113Y007300D02*
X008207Y007394D01*
X008207Y007483D02*
X008207Y007670D01*
X008207Y007576D02*
X007926Y007576D01*
X008020Y007483D01*
X008067Y007759D02*
X008020Y007853D01*
X008020Y007899D01*
X008067Y007946D01*
X008160Y007946D01*
X008207Y007899D01*
X008207Y007806D01*
X008160Y007759D01*
X008067Y007759D02*
X007926Y007759D01*
X007926Y007946D01*
X007537Y007917D02*
X007490Y007871D01*
X007537Y007917D02*
X007537Y008011D01*
X007490Y008057D01*
X007397Y008057D01*
X007350Y008011D01*
X007350Y007964D01*
X007397Y007871D01*
X007256Y007871D01*
X007256Y008057D01*
X006939Y008467D02*
X006846Y008467D01*
X006799Y008513D01*
X006986Y008700D01*
X006986Y008513D01*
X006939Y008467D01*
X006799Y008513D02*
X006799Y008700D01*
X006846Y008747D01*
X006939Y008747D01*
X006986Y008700D01*
X006710Y008700D02*
X006710Y008654D01*
X006523Y008467D01*
X006710Y008467D01*
X006434Y008467D02*
X006340Y008560D01*
X006387Y008560D02*
X006247Y008560D01*
X006247Y008467D02*
X006247Y008747D01*
X006387Y008747D01*
X006434Y008700D01*
X006434Y008607D01*
X006387Y008560D01*
X006523Y008700D02*
X006570Y008747D01*
X006663Y008747D01*
X006710Y008700D01*
X006290Y009568D02*
X006337Y009615D01*
X006337Y009708D01*
X006290Y009755D01*
X006337Y009844D02*
X006150Y010031D01*
X006103Y010031D01*
X006056Y009984D01*
X006056Y009891D01*
X006103Y009844D01*
X006103Y009755D02*
X006056Y009708D01*
X006056Y009615D01*
X006103Y009568D01*
X006290Y009568D01*
X006337Y009844D02*
X006337Y010031D01*
X006290Y010121D02*
X006337Y010167D01*
X006337Y010261D01*
X006290Y010307D01*
X006243Y010307D01*
X006197Y010261D01*
X006197Y010214D01*
X006197Y010261D02*
X006150Y010307D01*
X006103Y010307D01*
X006056Y010261D01*
X006056Y010167D01*
X006103Y010121D01*
X005486Y010197D02*
X005393Y010150D01*
X005299Y010057D01*
X005439Y010057D01*
X005486Y010010D01*
X005486Y009963D01*
X005439Y009917D01*
X005346Y009917D01*
X005299Y009963D01*
X005299Y010057D01*
X005210Y010104D02*
X005163Y010057D01*
X005210Y010010D01*
X005210Y009963D01*
X005163Y009917D01*
X005070Y009917D01*
X005023Y009963D01*
X004934Y009963D02*
X004887Y009917D01*
X004793Y009917D01*
X004747Y009963D01*
X004747Y010150D01*
X004793Y010197D01*
X004887Y010197D01*
X004934Y010150D01*
X005023Y010150D02*
X005070Y010197D01*
X005163Y010197D01*
X005210Y010150D01*
X005210Y010104D01*
X005163Y010057D02*
X005116Y010057D01*
X005070Y010567D02*
X005023Y010613D01*
X005070Y010567D02*
X005163Y010567D01*
X005210Y010613D01*
X005210Y010660D01*
X005163Y010707D01*
X005116Y010707D01*
X005163Y010707D02*
X005210Y010754D01*
X005210Y010800D01*
X005163Y010847D01*
X005070Y010847D01*
X005023Y010800D01*
X004934Y010800D02*
X004887Y010847D01*
X004793Y010847D01*
X004747Y010800D01*
X004747Y010613D01*
X004793Y010567D01*
X004887Y010567D01*
X004934Y010613D01*
X005299Y010613D02*
X005346Y010567D01*
X005439Y010567D01*
X005486Y010613D01*
X005486Y010707D01*
X005439Y010754D01*
X005393Y010754D01*
X005299Y010707D01*
X005299Y010847D01*
X005486Y010847D01*
X005439Y011267D02*
X005346Y011267D01*
X005299Y011313D01*
X005210Y011313D02*
X005163Y011267D01*
X005070Y011267D01*
X005023Y011313D01*
X004934Y011313D02*
X004887Y011267D01*
X004793Y011267D01*
X004747Y011313D01*
X004747Y011500D01*
X004793Y011547D01*
X004887Y011547D01*
X004934Y011500D01*
X005023Y011500D02*
X005070Y011547D01*
X005163Y011547D01*
X005210Y011500D01*
X005210Y011454D01*
X005163Y011407D01*
X005210Y011360D01*
X005210Y011313D01*
X005163Y011407D02*
X005116Y011407D01*
X005299Y011454D02*
X005346Y011407D01*
X005486Y011407D01*
X005486Y011500D02*
X005439Y011547D01*
X005346Y011547D01*
X005299Y011500D01*
X005299Y011454D01*
X005486Y011500D02*
X005486Y011313D01*
X005439Y011267D01*
X005439Y011917D02*
X005346Y011917D01*
X005299Y011963D01*
X005486Y012150D01*
X005486Y011963D01*
X005439Y011917D01*
X005299Y011963D02*
X005299Y012150D01*
X005346Y012197D01*
X005439Y012197D01*
X005486Y012150D01*
X005210Y012150D02*
X005163Y012197D01*
X005070Y012197D01*
X005023Y012150D01*
X004934Y012150D02*
X004887Y012197D01*
X004793Y012197D01*
X004747Y012150D01*
X004747Y011963D01*
X004793Y011917D01*
X004887Y011917D01*
X004934Y011963D01*
X005023Y011917D02*
X005210Y012104D01*
X005210Y012150D01*
X005210Y011917D02*
X005023Y011917D01*
X006576Y012653D02*
X006623Y012607D01*
X006810Y012607D01*
X006857Y012653D01*
X006857Y012747D01*
X006810Y012794D01*
X006717Y012883D02*
X006717Y013070D01*
X006810Y013159D02*
X006857Y013206D01*
X006857Y013299D01*
X006810Y013346D01*
X006763Y013346D01*
X006717Y013299D01*
X006717Y013253D01*
X006717Y013299D02*
X006670Y013346D01*
X006623Y013346D01*
X006576Y013299D01*
X006576Y013206D01*
X006623Y013159D01*
X006576Y013023D02*
X006717Y012883D01*
X006623Y012794D02*
X006576Y012747D01*
X006576Y012653D01*
X006576Y013023D02*
X006857Y013023D01*
X007206Y013041D02*
X007206Y013134D01*
X007253Y013181D01*
X007300Y013181D01*
X007347Y013134D01*
X007393Y013181D01*
X007440Y013181D01*
X007487Y013134D01*
X007487Y013041D01*
X007440Y012994D01*
X007487Y012905D02*
X007393Y012811D01*
X007393Y012858D02*
X007393Y012718D01*
X007487Y012718D02*
X007206Y012718D01*
X007206Y012858D01*
X007253Y012905D01*
X007347Y012905D01*
X007393Y012858D01*
X007253Y012994D02*
X007206Y013041D01*
X007347Y013088D02*
X007347Y013134D01*
X007253Y013271D02*
X007206Y013317D01*
X007206Y013411D01*
X007253Y013457D01*
X007300Y013457D01*
X007487Y013271D01*
X007487Y013457D01*
X007856Y013411D02*
X007856Y013317D01*
X007903Y013271D01*
X007950Y013271D01*
X007997Y013317D01*
X007997Y013411D01*
X008043Y013457D01*
X008090Y013457D01*
X008137Y013411D01*
X008137Y013317D01*
X008090Y013271D01*
X008043Y013271D01*
X007997Y013317D01*
X007997Y013411D02*
X007950Y013457D01*
X007903Y013457D01*
X007856Y013411D01*
X007997Y013181D02*
X007997Y012994D01*
X007856Y013134D01*
X008137Y013134D01*
X008137Y012905D02*
X008043Y012811D01*
X008043Y012858D02*
X008043Y012718D01*
X008137Y012718D02*
X007856Y012718D01*
X007856Y012858D01*
X007903Y012905D01*
X007997Y012905D01*
X008043Y012858D01*
X007837Y012161D02*
X007556Y012161D01*
X007697Y012021D01*
X007697Y012207D01*
X007743Y011931D02*
X007790Y011931D01*
X007837Y011884D01*
X007837Y011791D01*
X007790Y011744D01*
X007837Y011655D02*
X007743Y011561D01*
X007743Y011608D02*
X007743Y011468D01*
X007837Y011468D02*
X007556Y011468D01*
X007556Y011608D01*
X007603Y011655D01*
X007697Y011655D01*
X007743Y011608D01*
X007603Y011744D02*
X007556Y011791D01*
X007556Y011884D01*
X007603Y011931D01*
X007650Y011931D01*
X007697Y011884D01*
X007743Y011931D01*
X007697Y011884D02*
X007697Y011838D01*
X007207Y011773D02*
X007207Y011680D01*
X007160Y011633D01*
X007067Y011633D02*
X007020Y011726D01*
X007020Y011773D01*
X007067Y011820D01*
X007160Y011820D01*
X007207Y011773D01*
X007160Y011909D02*
X006973Y011909D01*
X006926Y011956D01*
X006926Y012049D01*
X006973Y012096D01*
X007160Y011909D01*
X007207Y011956D01*
X007207Y012049D01*
X007160Y012096D01*
X006973Y012096D01*
X006926Y011820D02*
X006926Y011633D01*
X007067Y011633D01*
X007067Y011544D02*
X007113Y011497D01*
X007113Y011357D01*
X007113Y011450D02*
X007207Y011544D01*
X007067Y011544D02*
X006973Y011544D01*
X006926Y011497D01*
X006926Y011357D01*
X007207Y011357D01*
X008206Y011515D02*
X008253Y011468D01*
X008440Y011468D01*
X008487Y011515D01*
X008487Y011608D01*
X008440Y011655D01*
X008347Y011744D02*
X008347Y011931D01*
X008300Y012021D02*
X008206Y012114D01*
X008487Y012114D01*
X008487Y012021D02*
X008487Y012207D01*
X008487Y011884D02*
X008206Y011884D01*
X008347Y011744D01*
X008253Y011655D02*
X008206Y011608D01*
X008206Y011515D01*
X009247Y011563D02*
X009293Y011517D01*
X009387Y011517D01*
X009434Y011563D01*
X009523Y011517D02*
X009710Y011704D01*
X009710Y011750D01*
X009663Y011797D01*
X009570Y011797D01*
X009523Y011750D01*
X009434Y011750D02*
X009387Y011797D01*
X009293Y011797D01*
X009247Y011750D01*
X009247Y011563D01*
X009523Y011517D02*
X009710Y011517D01*
X009799Y011517D02*
X009986Y011704D01*
X009986Y011750D01*
X009939Y011797D01*
X009846Y011797D01*
X009799Y011750D01*
X009799Y011517D02*
X009986Y011517D01*
X005087Y013818D02*
X004806Y013818D01*
X004806Y013958D01*
X004853Y014005D01*
X004947Y014005D01*
X004993Y013958D01*
X004993Y013818D01*
X004993Y013911D02*
X005087Y014005D01*
X004947Y014094D02*
X004947Y014281D01*
X004947Y014371D02*
X004900Y014464D01*
X004900Y014511D01*
X004947Y014557D01*
X005040Y014557D01*
X005087Y014511D01*
X005087Y014417D01*
X005040Y014371D01*
X004947Y014371D02*
X004806Y014371D01*
X004806Y014557D01*
X004437Y014511D02*
X004437Y014417D01*
X004390Y014371D01*
X004437Y014281D02*
X004437Y014094D01*
X004250Y014281D01*
X004203Y014281D01*
X004156Y014234D01*
X004156Y014141D01*
X004203Y014094D01*
X004203Y014005D02*
X004297Y014005D01*
X004343Y013958D01*
X004343Y013818D01*
X004343Y013911D02*
X004437Y014005D01*
X004437Y013818D02*
X004156Y013818D01*
X004156Y013958D01*
X004203Y014005D01*
X003787Y014005D02*
X003693Y013911D01*
X003693Y013958D02*
X003693Y013818D01*
X003787Y013818D02*
X003506Y013818D01*
X003506Y013958D01*
X003553Y014005D01*
X003647Y014005D01*
X003693Y013958D01*
X003787Y014094D02*
X003600Y014281D01*
X003553Y014281D01*
X003506Y014234D01*
X003506Y014141D01*
X003553Y014094D01*
X003787Y014094D02*
X003787Y014281D01*
X003787Y014371D02*
X003740Y014371D01*
X003553Y014557D01*
X003506Y014557D01*
X003506Y014371D01*
X003137Y014371D02*
X003137Y014557D01*
X003137Y014371D02*
X002950Y014557D01*
X002903Y014557D01*
X002856Y014511D01*
X002856Y014417D01*
X002903Y014371D01*
X002903Y014281D02*
X002856Y014234D01*
X002856Y014141D01*
X002903Y014094D01*
X002903Y014005D02*
X002997Y014005D01*
X003043Y013958D01*
X003043Y013818D01*
X003043Y013911D02*
X003137Y014005D01*
X003137Y014094D02*
X002950Y014281D01*
X002903Y014281D01*
X003137Y014281D02*
X003137Y014094D01*
X002903Y014005D02*
X002856Y013958D01*
X002856Y013818D01*
X003137Y013818D01*
X002487Y013818D02*
X002206Y013818D01*
X002206Y013958D01*
X002253Y014005D01*
X002347Y014005D01*
X002393Y013958D01*
X002393Y013818D01*
X002393Y013911D02*
X002487Y014005D01*
X002487Y014094D02*
X002300Y014281D01*
X002253Y014281D01*
X002206Y014234D01*
X002206Y014141D01*
X002253Y014094D01*
X002487Y014094D02*
X002487Y014281D01*
X002440Y014371D02*
X002393Y014371D01*
X002347Y014417D01*
X002347Y014511D01*
X002393Y014557D01*
X002440Y014557D01*
X002487Y014511D01*
X002487Y014417D01*
X002440Y014371D01*
X002347Y014417D02*
X002300Y014371D01*
X002253Y014371D01*
X002206Y014417D01*
X002206Y014511D01*
X002253Y014557D01*
X002300Y014557D01*
X002347Y014511D01*
X001837Y014511D02*
X001837Y014417D01*
X001790Y014371D01*
X001697Y014371D01*
X001697Y014511D01*
X001743Y014557D01*
X001790Y014557D01*
X001837Y014511D01*
X001697Y014371D02*
X001603Y014464D01*
X001556Y014557D01*
X001697Y014281D02*
X001697Y014094D01*
X001556Y014234D01*
X001837Y014234D01*
X001837Y014005D02*
X001743Y013911D01*
X001743Y013958D02*
X001743Y013818D01*
X001837Y013818D02*
X001556Y013818D01*
X001556Y013958D01*
X001603Y014005D01*
X001697Y014005D01*
X001743Y013958D01*
X004156Y014417D02*
X004203Y014371D01*
X004250Y014371D01*
X004297Y014417D01*
X004297Y014557D01*
X004390Y014557D02*
X004203Y014557D01*
X004156Y014511D01*
X004156Y014417D01*
X004390Y014557D02*
X004437Y014511D01*
X004806Y014234D02*
X004947Y014094D01*
X005087Y014234D02*
X004806Y014234D01*
X006305Y017587D02*
X006398Y017587D01*
X006445Y017633D01*
X006534Y017727D02*
X006721Y017727D01*
X006810Y017727D02*
X006951Y017727D01*
X006997Y017680D01*
X006997Y017633D01*
X006951Y017587D01*
X006857Y017587D01*
X006810Y017633D01*
X006810Y017727D01*
X006904Y017820D01*
X006997Y017867D01*
X006674Y017867D02*
X006534Y017727D01*
X006445Y017820D02*
X006398Y017867D01*
X006305Y017867D01*
X006258Y017820D01*
X006258Y017633D01*
X006305Y017587D01*
X006674Y017587D02*
X006674Y017867D01*
X005710Y019207D02*
X005757Y019253D01*
X005757Y019347D01*
X005710Y019394D01*
X005757Y019483D02*
X005757Y019670D01*
X005757Y019576D02*
X005476Y019576D01*
X005570Y019483D01*
X005523Y019394D02*
X005476Y019347D01*
X005476Y019253D01*
X005523Y019207D01*
X005710Y019207D01*
X007256Y019718D02*
X007256Y019858D01*
X007303Y019905D01*
X007397Y019905D01*
X007443Y019858D01*
X007443Y019718D01*
X007443Y019811D02*
X007537Y019905D01*
X007490Y019994D02*
X007537Y020041D01*
X007537Y020134D01*
X007490Y020181D01*
X007397Y020181D01*
X007350Y020134D01*
X007350Y020088D01*
X007397Y019994D01*
X007256Y019994D01*
X007256Y020181D01*
X007303Y020271D02*
X007350Y020271D01*
X007397Y020317D01*
X007397Y020411D01*
X007443Y020457D01*
X007490Y020457D01*
X007537Y020411D01*
X007537Y020317D01*
X007490Y020271D01*
X007443Y020271D01*
X007397Y020317D01*
X007397Y020411D02*
X007350Y020457D01*
X007303Y020457D01*
X007256Y020411D01*
X007256Y020317D01*
X007303Y020271D01*
X007256Y019718D02*
X007537Y019718D01*
X009647Y020067D02*
X009647Y020347D01*
X009787Y020347D01*
X009834Y020300D01*
X009834Y020207D01*
X009787Y020160D01*
X009647Y020160D01*
X009740Y020160D02*
X009834Y020067D01*
X009923Y020113D02*
X009970Y020067D01*
X010063Y020067D01*
X010110Y020113D01*
X010110Y020207D01*
X010063Y020254D01*
X010016Y020254D01*
X009923Y020207D01*
X009923Y020347D01*
X010110Y020347D01*
X010199Y020207D02*
X010339Y020207D01*
X010386Y020160D01*
X010386Y020113D01*
X010339Y020067D01*
X010246Y020067D01*
X010199Y020113D01*
X010199Y020207D01*
X010293Y020300D01*
X010386Y020347D01*
X017426Y010796D02*
X017473Y010796D01*
X017660Y010609D01*
X017707Y010609D01*
X017707Y010473D02*
X017426Y010473D01*
X017567Y010333D01*
X017567Y010520D01*
X017426Y010609D02*
X017426Y010796D01*
X017473Y010244D02*
X017567Y010244D01*
X017613Y010197D01*
X017613Y010057D01*
X017613Y010150D02*
X017707Y010244D01*
X017707Y010057D02*
X017426Y010057D01*
X017426Y010197D01*
X017473Y010244D01*
X022047Y009847D02*
X022047Y009567D01*
X022047Y009660D02*
X022187Y009660D01*
X022234Y009707D01*
X022234Y009800D01*
X022187Y009847D01*
X022047Y009847D01*
X022140Y009660D02*
X022234Y009567D01*
X022323Y009613D02*
X022370Y009567D01*
X022463Y009567D01*
X022510Y009613D01*
X022510Y009707D01*
X022463Y009754D01*
X022416Y009754D01*
X022323Y009707D01*
X022323Y009847D01*
X022510Y009847D01*
X022599Y009800D02*
X022599Y009754D01*
X022646Y009707D01*
X022786Y009707D01*
X022786Y009800D02*
X022739Y009847D01*
X022646Y009847D01*
X022599Y009800D01*
X022599Y009613D02*
X022646Y009567D01*
X022739Y009567D01*
X022786Y009613D01*
X022786Y009800D01*
X022707Y008996D02*
X022707Y008809D01*
X022520Y008996D01*
X022473Y008996D01*
X022426Y008949D01*
X022426Y008856D01*
X022473Y008809D01*
X022473Y008720D02*
X022520Y008720D01*
X022567Y008673D01*
X022613Y008720D01*
X022660Y008720D01*
X022707Y008673D01*
X022707Y008580D01*
X022660Y008533D01*
X022660Y008444D02*
X022707Y008397D01*
X022707Y008303D01*
X022660Y008257D01*
X022473Y008257D01*
X022426Y008303D01*
X022426Y008397D01*
X022473Y008444D01*
X022473Y008533D02*
X022426Y008580D01*
X022426Y008673D01*
X022473Y008720D01*
X022567Y008673D02*
X022567Y008626D01*
X023057Y005146D02*
X023057Y004959D01*
X023057Y005053D02*
X022776Y005053D01*
X022870Y004959D01*
X022870Y004870D02*
X022917Y004823D01*
X022963Y004870D01*
X023010Y004870D01*
X023057Y004823D01*
X023057Y004730D01*
X023010Y004683D01*
X023010Y004594D02*
X023057Y004547D01*
X023057Y004453D01*
X023010Y004407D01*
X022823Y004407D01*
X022776Y004453D01*
X022776Y004547D01*
X022823Y004594D01*
X022823Y004683D02*
X022776Y004730D01*
X022776Y004823D01*
X022823Y004870D01*
X022870Y004870D01*
X022917Y004823D02*
X022917Y004776D01*
X025447Y003647D02*
X025447Y003367D01*
X025447Y003460D02*
X025587Y003460D01*
X025634Y003507D01*
X025634Y003600D01*
X025587Y003647D01*
X025447Y003647D01*
X025540Y003460D02*
X025634Y003367D01*
X025723Y003413D02*
X025723Y003460D01*
X025770Y003507D01*
X025863Y003507D01*
X025910Y003460D01*
X025910Y003413D01*
X025863Y003367D01*
X025770Y003367D01*
X025723Y003413D01*
X025770Y003507D02*
X025723Y003554D01*
X025723Y003600D01*
X025770Y003647D01*
X025863Y003647D01*
X025910Y003600D01*
X025910Y003554D01*
X025863Y003507D01*
X026947Y003600D02*
X026947Y003413D01*
X026993Y003367D01*
X027087Y003367D01*
X027134Y003413D01*
X027223Y003367D02*
X027410Y003554D01*
X027410Y003600D01*
X027363Y003647D01*
X027270Y003647D01*
X027223Y003600D01*
X027134Y003600D02*
X027087Y003647D01*
X026993Y003647D01*
X026947Y003600D01*
X027223Y003367D02*
X027410Y003367D01*
X027499Y003413D02*
X027546Y003367D01*
X027639Y003367D01*
X027686Y003413D01*
X027686Y003507D01*
X027639Y003554D01*
X027593Y003554D01*
X027499Y003507D01*
X027499Y003647D01*
X027686Y003647D01*
X027253Y002457D02*
X027440Y002271D01*
X027487Y002271D01*
X027487Y002134D02*
X027206Y002134D01*
X027347Y001994D01*
X027347Y002181D01*
X027206Y002271D02*
X027206Y002457D01*
X027253Y002457D01*
X027253Y001905D02*
X027206Y001858D01*
X027206Y001765D01*
X027253Y001718D01*
X027440Y001718D01*
X027487Y001765D01*
X027487Y001858D01*
X027440Y001905D01*
X028397Y001900D02*
X028397Y001713D01*
X028443Y001667D01*
X028537Y001667D01*
X028584Y001713D01*
X028673Y001713D02*
X028720Y001667D01*
X028813Y001667D01*
X028860Y001713D01*
X028860Y001760D01*
X028813Y001807D01*
X028766Y001807D01*
X028813Y001807D02*
X028860Y001854D01*
X028860Y001900D01*
X028813Y001947D01*
X028720Y001947D01*
X028673Y001900D01*
X028584Y001900D02*
X028537Y001947D01*
X028443Y001947D01*
X028397Y001900D01*
X028784Y002387D02*
X028784Y002667D01*
X028924Y002667D01*
X028971Y002620D01*
X028971Y002527D01*
X028924Y002480D01*
X028784Y002480D01*
X028878Y002480D02*
X028971Y002387D01*
X029060Y002387D02*
X029247Y002574D01*
X029247Y002620D01*
X029201Y002667D01*
X029107Y002667D01*
X029060Y002620D01*
X029060Y002387D02*
X029247Y002387D01*
X031626Y002173D02*
X031626Y002080D01*
X031673Y002033D01*
X031673Y001944D02*
X031626Y001897D01*
X031626Y001803D01*
X031673Y001757D01*
X031860Y001757D01*
X031907Y001803D01*
X031907Y001897D01*
X031860Y001944D01*
X031907Y002033D02*
X031720Y002220D01*
X031673Y002220D01*
X031626Y002173D01*
X031907Y002220D02*
X031907Y002033D01*
X031907Y003107D02*
X031626Y003107D01*
X031626Y003247D01*
X031673Y003294D01*
X031767Y003294D01*
X031813Y003247D01*
X031813Y003107D01*
X031813Y003200D02*
X031907Y003294D01*
X031907Y003383D02*
X031907Y003570D01*
X031907Y003476D02*
X031626Y003476D01*
X031720Y003383D01*
X031001Y005087D02*
X031001Y005367D01*
X030860Y005227D01*
X031047Y005227D01*
X030771Y005227D02*
X030724Y005180D01*
X030584Y005180D01*
X030584Y005087D02*
X030584Y005367D01*
X030724Y005367D01*
X030771Y005320D01*
X030771Y005227D01*
X030678Y005180D02*
X030771Y005087D01*
X030771Y005737D02*
X030678Y005830D01*
X030724Y005830D02*
X030584Y005830D01*
X030584Y005737D02*
X030584Y006017D01*
X030724Y006017D01*
X030771Y005970D01*
X030771Y005877D01*
X030724Y005830D01*
X030860Y005783D02*
X030907Y005737D01*
X031001Y005737D01*
X031047Y005783D01*
X031047Y005877D01*
X031001Y005924D01*
X030954Y005924D01*
X030860Y005877D01*
X030860Y006017D01*
X031047Y006017D01*
X030660Y006413D02*
X030660Y006460D01*
X030613Y006507D01*
X030473Y006507D01*
X030473Y006413D01*
X030520Y006367D01*
X030613Y006367D01*
X030660Y006413D01*
X030566Y006600D02*
X030473Y006507D01*
X030384Y006507D02*
X030337Y006460D01*
X030197Y006460D01*
X030290Y006460D02*
X030384Y006367D01*
X030384Y006507D02*
X030384Y006600D01*
X030337Y006647D01*
X030197Y006647D01*
X030197Y006367D01*
X030566Y006600D02*
X030660Y006647D01*
X031956Y007741D02*
X032003Y007694D01*
X032190Y007694D01*
X032237Y007741D01*
X032237Y007834D01*
X032190Y007881D01*
X032190Y007971D02*
X032237Y008017D01*
X032237Y008111D01*
X032190Y008157D01*
X032143Y008157D01*
X032097Y008111D01*
X032097Y007971D01*
X032190Y007971D01*
X032097Y007971D02*
X032003Y008064D01*
X031956Y008157D01*
X032003Y007881D02*
X031956Y007834D01*
X031956Y007741D01*
X032023Y008457D02*
X032210Y008457D01*
X032257Y008503D01*
X032257Y008597D01*
X032210Y008644D01*
X032210Y008733D02*
X032257Y008733D01*
X032210Y008733D02*
X032023Y008920D01*
X031976Y008920D01*
X031976Y008733D01*
X032023Y008644D02*
X031976Y008597D01*
X031976Y008503D01*
X032023Y008457D01*
X019097Y001620D02*
X018910Y001433D01*
X018957Y001387D01*
X019051Y001387D01*
X019097Y001433D01*
X019097Y001620D01*
X019051Y001667D01*
X018957Y001667D01*
X018910Y001620D01*
X018910Y001433D01*
X018821Y001433D02*
X018774Y001387D01*
X018681Y001387D01*
X018634Y001433D01*
X018545Y001433D02*
X018498Y001387D01*
X018405Y001387D01*
X018358Y001433D01*
X018358Y001620D01*
X018405Y001667D01*
X018498Y001667D01*
X018545Y001620D01*
X018634Y001620D02*
X018681Y001667D01*
X018774Y001667D01*
X018821Y001620D01*
X018821Y001574D01*
X018774Y001527D01*
X018821Y001480D01*
X018821Y001433D01*
X018774Y001527D02*
X018728Y001527D01*
X016336Y001513D02*
X016289Y001467D01*
X016196Y001467D01*
X016149Y001513D01*
X016149Y001560D01*
X016196Y001607D01*
X016289Y001607D01*
X016336Y001560D01*
X016336Y001513D01*
X016289Y001607D02*
X016336Y001654D01*
X016336Y001700D01*
X016289Y001747D01*
X016196Y001747D01*
X016149Y001700D01*
X016149Y001654D01*
X016196Y001607D01*
X016060Y001654D02*
X015873Y001467D01*
X016060Y001467D01*
X016060Y001654D02*
X016060Y001700D01*
X016013Y001747D01*
X015920Y001747D01*
X015873Y001700D01*
X015784Y001700D02*
X015737Y001747D01*
X015643Y001747D01*
X015597Y001700D01*
X015597Y001513D01*
X015643Y001467D01*
X015737Y001467D01*
X015784Y001513D01*
X015087Y001615D02*
X015087Y001708D01*
X015040Y001755D01*
X015087Y001844D02*
X015087Y002031D01*
X015087Y001938D02*
X014806Y001938D01*
X014900Y001844D01*
X014853Y001755D02*
X014806Y001708D01*
X014806Y001615D01*
X014853Y001568D01*
X015040Y001568D01*
X015087Y001615D01*
X015040Y002121D02*
X015087Y002167D01*
X015087Y002261D01*
X015040Y002307D01*
X014993Y002307D01*
X014947Y002261D01*
X014947Y002214D01*
X014947Y002261D02*
X014900Y002307D01*
X014853Y002307D01*
X014806Y002261D01*
X014806Y002167D01*
X014853Y002121D01*
X014437Y002031D02*
X014437Y001844D01*
X014437Y001755D02*
X014343Y001661D01*
X014343Y001708D02*
X014343Y001568D01*
X014437Y001568D02*
X014156Y001568D01*
X014156Y001708D01*
X014203Y001755D01*
X014297Y001755D01*
X014343Y001708D01*
X014250Y001844D02*
X014156Y001938D01*
X014437Y001938D01*
X014297Y002121D02*
X014297Y002307D01*
X014437Y002261D02*
X014156Y002261D01*
X014297Y002121D01*
X013807Y002149D02*
X013807Y002056D01*
X013760Y002009D01*
X013807Y001920D02*
X013807Y001733D01*
X013807Y001644D02*
X013713Y001550D01*
X013713Y001597D02*
X013713Y001457D01*
X013807Y001457D02*
X013526Y001457D01*
X013526Y001597D01*
X013573Y001644D01*
X013667Y001644D01*
X013713Y001597D01*
X013620Y001733D02*
X013526Y001826D01*
X013807Y001826D01*
X013573Y002009D02*
X013526Y002056D01*
X013526Y002149D01*
X013573Y002196D01*
X013620Y002196D01*
X013667Y002149D01*
X013713Y002196D01*
X013760Y002196D01*
X013807Y002149D01*
X013667Y002149D02*
X013667Y002103D01*
X013157Y002149D02*
X013157Y002056D01*
X013110Y002009D01*
X012923Y002196D01*
X013110Y002196D01*
X013157Y002149D01*
X013110Y002009D02*
X012923Y002009D01*
X012876Y002056D01*
X012876Y002149D01*
X012923Y002196D01*
X013157Y001920D02*
X013157Y001733D01*
X013157Y001644D02*
X013063Y001550D01*
X013063Y001597D02*
X013063Y001457D01*
X013157Y001457D02*
X012876Y001457D01*
X012876Y001597D01*
X012923Y001644D01*
X013017Y001644D01*
X013063Y001597D01*
X012970Y001733D02*
X012876Y001826D01*
X013157Y001826D01*
X013113Y004357D02*
X013113Y004497D01*
X013067Y004544D01*
X012973Y004544D01*
X012926Y004497D01*
X012926Y004357D01*
X013207Y004357D01*
X013113Y004450D02*
X013207Y004544D01*
X013207Y004633D02*
X013207Y004820D01*
X013207Y004726D02*
X012926Y004726D01*
X013020Y004633D01*
X013020Y004909D02*
X013067Y004956D01*
X013067Y005096D01*
X013160Y005096D02*
X012973Y005096D01*
X012926Y005049D01*
X012926Y004956D01*
X012973Y004909D01*
X013020Y004909D01*
X013160Y004909D02*
X013207Y004956D01*
X013207Y005049D01*
X013160Y005096D01*
X014097Y005010D02*
X014237Y005010D01*
X014284Y005057D01*
X014284Y005150D01*
X014237Y005197D01*
X014097Y005197D01*
X014097Y004917D01*
X014190Y005010D02*
X014284Y004917D01*
X014373Y005057D02*
X014560Y005057D01*
X014649Y005057D02*
X014836Y005057D01*
X014789Y005197D02*
X014649Y005057D01*
X014513Y004917D02*
X014513Y005197D01*
X014373Y005057D01*
X014789Y004917D02*
X014789Y005197D01*
X014746Y005567D02*
X014839Y005567D01*
X014886Y005613D01*
X014886Y005800D01*
X014839Y005847D01*
X014746Y005847D01*
X014699Y005800D01*
X014699Y005754D01*
X014746Y005707D01*
X014886Y005707D01*
X014746Y005567D02*
X014699Y005613D01*
X014610Y005613D02*
X014563Y005567D01*
X014470Y005567D01*
X014423Y005613D01*
X014334Y005567D02*
X014240Y005660D01*
X014287Y005660D02*
X014147Y005660D01*
X014147Y005567D02*
X014147Y005847D01*
X014287Y005847D01*
X014334Y005800D01*
X014334Y005707D01*
X014287Y005660D01*
X014423Y005800D02*
X014470Y005847D01*
X014563Y005847D01*
X014610Y005800D01*
X014610Y005754D01*
X014563Y005707D01*
X014610Y005660D01*
X014610Y005613D01*
X014563Y005707D02*
X014516Y005707D01*
X013807Y005703D02*
X013807Y005797D01*
X013760Y005844D01*
X013807Y005933D02*
X013807Y006120D01*
X013807Y006209D02*
X013760Y006209D01*
X013573Y006396D01*
X013526Y006396D01*
X013526Y006209D01*
X013526Y006026D02*
X013807Y006026D01*
X013620Y005933D02*
X013526Y006026D01*
X013573Y005844D02*
X013526Y005797D01*
X013526Y005703D01*
X013573Y005657D01*
X013760Y005657D01*
X013807Y005703D01*
X013207Y005657D02*
X012926Y005657D01*
X012926Y005797D01*
X012973Y005844D01*
X013067Y005844D01*
X013113Y005797D01*
X013113Y005657D01*
X013113Y005750D02*
X013207Y005844D01*
X013207Y005933D02*
X013207Y006120D01*
X013207Y006026D02*
X012926Y006026D01*
X013020Y005933D01*
X013020Y006209D02*
X012973Y006209D01*
X012926Y006256D01*
X012926Y006349D01*
X012973Y006396D01*
X013020Y006396D01*
X013067Y006349D01*
X013067Y006256D01*
X013020Y006209D01*
X013067Y006256D02*
X013113Y006209D01*
X013160Y006209D01*
X013207Y006256D01*
X013207Y006349D01*
X013160Y006396D01*
X013113Y006396D01*
X013067Y006349D01*
X014255Y004567D02*
X014208Y004520D01*
X014208Y004333D01*
X014255Y004287D01*
X014348Y004287D01*
X014395Y004333D01*
X014484Y004287D02*
X014671Y004474D01*
X014671Y004520D01*
X014624Y004567D01*
X014531Y004567D01*
X014484Y004520D01*
X014395Y004520D02*
X014348Y004567D01*
X014255Y004567D01*
X014484Y004287D02*
X014671Y004287D01*
X014760Y004333D02*
X014807Y004287D01*
X014901Y004287D01*
X014947Y004333D01*
X014947Y004520D01*
X014901Y004567D01*
X014807Y004567D01*
X014760Y004520D01*
X014760Y004474D01*
X014807Y004427D01*
X014947Y004427D01*
X008207Y007207D02*
X007926Y007207D01*
X007537Y007365D02*
X007537Y007458D01*
X007490Y007505D01*
X007537Y007594D02*
X007537Y007781D01*
X007537Y007688D02*
X007256Y007688D01*
X007350Y007594D01*
X007303Y007505D02*
X007256Y007458D01*
X007256Y007365D01*
X007303Y007318D01*
X007490Y007318D01*
X007537Y007365D01*
X003307Y007349D02*
X003026Y007349D01*
X003167Y007209D01*
X003167Y007396D01*
X003307Y007120D02*
X003307Y006933D01*
X003307Y007026D02*
X003026Y007026D01*
X003120Y006933D01*
X003073Y006844D02*
X003026Y006797D01*
X003026Y006703D01*
X003073Y006657D01*
X003260Y006657D01*
X003307Y006703D01*
X003307Y006797D01*
X003260Y006844D01*
D17*
X002632Y006667D02*
X002632Y007567D01*
X002057Y007567D01*
X001657Y007567D02*
X001082Y007567D01*
X001082Y006667D01*
X001657Y006667D01*
X002057Y006667D02*
X002632Y006667D01*
X001051Y006186D02*
X001051Y001147D01*
X006563Y001147D01*
X006563Y006186D01*
X001051Y006186D01*
X004182Y008467D02*
X004182Y009367D01*
X004757Y009367D01*
X005157Y009367D02*
X005732Y009367D01*
X005732Y008467D01*
X005157Y008467D01*
X004757Y008467D02*
X004182Y008467D01*
X007087Y009367D02*
X007087Y010567D01*
X007187Y010567D01*
X007196Y010557D02*
X007196Y009376D01*
X007187Y009367D02*
X007087Y009367D01*
X007096Y009376D02*
X007096Y010557D01*
X007207Y010167D02*
X007307Y010167D01*
X007407Y010167D01*
X007407Y009767D01*
X007307Y009767D01*
X007207Y009767D01*
X007207Y010067D01*
X007307Y010067D01*
X007307Y010167D01*
X007307Y009767D01*
X008297Y009376D02*
X008297Y010557D01*
X005232Y012567D02*
X005232Y013467D01*
X004657Y013467D01*
X004257Y013467D02*
X003682Y013467D01*
X003682Y012567D01*
X004257Y012567D01*
X004657Y012567D02*
X005232Y012567D01*
X003282Y012567D02*
X003282Y013467D01*
X002707Y013467D01*
X002307Y013467D02*
X001732Y013467D01*
X001732Y012567D01*
X002307Y012567D01*
X002707Y012567D02*
X003282Y012567D01*
X005257Y018057D02*
X005257Y018777D01*
X006557Y018777D01*
X006557Y018057D01*
X005257Y018057D01*
X007107Y018767D02*
X008107Y018767D01*
X008107Y020367D01*
X008107Y020467D01*
X008107Y020567D01*
X008107Y020667D01*
X007107Y020667D01*
X007107Y020567D01*
X007107Y020467D01*
X007107Y018767D01*
X007107Y020667D02*
X007107Y020767D01*
X008107Y020767D01*
X008107Y020667D01*
X012307Y020217D02*
X012307Y019217D01*
X018307Y019217D01*
X018307Y020217D01*
X012307Y020217D01*
X012357Y016217D02*
X012257Y016217D01*
X012257Y015217D01*
X012357Y015217D01*
X012457Y015217D01*
X014157Y015217D01*
X014157Y016217D01*
X012557Y016217D01*
X012457Y016217D01*
X012357Y016217D01*
X012257Y016217D02*
X012157Y016217D01*
X012157Y015217D01*
X012257Y015217D01*
X016957Y013042D02*
X016957Y012467D01*
X016957Y012067D02*
X016957Y011492D01*
X017857Y011492D01*
X017857Y012067D01*
X017857Y012467D02*
X017857Y013042D01*
X016957Y013042D01*
X018057Y012533D02*
X018057Y010801D01*
X018156Y010801D01*
X018156Y012533D01*
X018254Y012533D01*
X018254Y010801D01*
X021168Y010801D01*
X021168Y012533D01*
X018353Y012533D01*
X018353Y010801D01*
X018254Y010801D02*
X018156Y010801D01*
X018156Y012533D02*
X018057Y012533D01*
X018254Y012533D02*
X018353Y012533D01*
X020097Y015478D02*
X020132Y015513D01*
X019896Y015902D02*
X019899Y015959D01*
X019906Y016015D01*
X019919Y016071D01*
X019937Y016125D01*
X019960Y016177D01*
X019987Y016227D01*
X020019Y016274D01*
X020055Y016318D01*
X020094Y016359D01*
X020138Y016396D01*
X020184Y016428D01*
X020233Y016457D01*
X020285Y016481D01*
X020339Y016500D01*
X020394Y016514D01*
X020450Y016523D01*
X020507Y016527D01*
X020564Y016526D01*
X020620Y016519D01*
X020676Y016508D01*
X020730Y016491D01*
X020783Y016469D01*
X020833Y016443D01*
X020881Y016413D01*
X020926Y016378D01*
X020968Y016339D01*
X021006Y016296D01*
X021040Y016251D01*
X021069Y016202D01*
X021094Y016151D01*
X021115Y016098D01*
X021130Y016043D01*
X021140Y015987D01*
X021145Y015930D01*
X021145Y015874D01*
X021140Y015817D01*
X021130Y015761D01*
X021115Y015706D01*
X021094Y015653D01*
X021069Y015602D01*
X021040Y015553D01*
X021006Y015508D01*
X020968Y015465D01*
X020926Y015426D01*
X020881Y015391D01*
X020834Y015361D01*
X020783Y015335D01*
X020730Y015313D01*
X020676Y015296D01*
X020620Y015285D01*
X020564Y015278D01*
X020507Y015277D01*
X020450Y015281D01*
X020394Y015290D01*
X020339Y015304D01*
X020285Y015323D01*
X020233Y015347D01*
X020184Y015376D01*
X020138Y015408D01*
X020094Y015445D01*
X020055Y015486D01*
X020019Y015530D01*
X019987Y015577D01*
X019960Y015627D01*
X019937Y015679D01*
X019919Y015733D01*
X019906Y015789D01*
X019899Y015845D01*
X019896Y015902D01*
X020910Y016291D02*
X020946Y016326D01*
X019357Y016917D02*
X032357Y016917D01*
X032357Y020517D01*
X019357Y020517D01*
X019357Y016917D01*
X025332Y013917D02*
X025332Y013017D01*
X025907Y013017D01*
X026307Y013017D02*
X026882Y013017D01*
X026882Y013917D01*
X026307Y013917D01*
X025907Y013917D02*
X025332Y013917D01*
X021613Y008273D02*
X021613Y002761D01*
X016101Y002761D01*
X016101Y008273D01*
X021613Y008273D01*
X016494Y003548D02*
X016496Y003588D01*
X016502Y003627D01*
X016512Y003666D01*
X016526Y003703D01*
X016544Y003739D01*
X016565Y003773D01*
X016589Y003805D01*
X016617Y003834D01*
X016647Y003860D01*
X016680Y003882D01*
X016714Y003902D01*
X016751Y003917D01*
X016789Y003929D01*
X016828Y003937D01*
X016868Y003941D01*
X016908Y003941D01*
X016948Y003937D01*
X016987Y003929D01*
X017025Y003917D01*
X017062Y003902D01*
X017096Y003882D01*
X017129Y003860D01*
X017159Y003834D01*
X017187Y003805D01*
X017211Y003773D01*
X017232Y003739D01*
X017250Y003703D01*
X017264Y003666D01*
X017274Y003627D01*
X017280Y003588D01*
X017282Y003548D01*
X017280Y003508D01*
X017274Y003469D01*
X017264Y003430D01*
X017250Y003393D01*
X017232Y003357D01*
X017211Y003323D01*
X017187Y003291D01*
X017159Y003262D01*
X017129Y003236D01*
X017096Y003214D01*
X017062Y003194D01*
X017025Y003179D01*
X016987Y003167D01*
X016948Y003159D01*
X016908Y003155D01*
X016868Y003155D01*
X016828Y003159D01*
X016789Y003167D01*
X016751Y003179D01*
X016714Y003194D01*
X016680Y003214D01*
X016647Y003236D01*
X016617Y003262D01*
X016589Y003291D01*
X016565Y003323D01*
X016544Y003357D01*
X016526Y003393D01*
X016512Y003430D01*
X016502Y003469D01*
X016496Y003508D01*
X016494Y003548D01*
X025032Y002267D02*
X025032Y001367D01*
X025607Y001367D01*
X026007Y001367D02*
X026582Y001367D01*
X026582Y002267D01*
X026007Y002267D01*
X025607Y002267D02*
X025032Y002267D01*
X006169Y002879D02*
X006169Y004454D01*
X005381Y004454D01*
X005381Y002879D01*
X006169Y002879D01*
D18*
X019636Y006518D02*
X019636Y006735D01*
X019636Y006626D02*
X020286Y006626D01*
X020286Y006518D02*
X020286Y006735D01*
X020178Y006984D02*
X020286Y007093D01*
X020286Y007310D01*
X020178Y007418D01*
X020286Y007684D02*
X020286Y008118D01*
X020286Y007901D02*
X019636Y007901D01*
X019853Y007684D01*
X019744Y007418D02*
X019636Y007310D01*
X019636Y007093D01*
X019744Y006984D01*
X020178Y006984D01*
X017846Y018522D02*
X017716Y018522D01*
X017651Y018587D01*
X017651Y018717D02*
X017781Y018782D01*
X017846Y018782D01*
X017911Y018717D01*
X017911Y018587D01*
X017846Y018522D01*
X017651Y018717D02*
X017651Y018912D01*
X017911Y018912D01*
X017451Y018912D02*
X017451Y018652D01*
X017321Y018522D01*
X017191Y018652D01*
X017191Y018912D01*
X016991Y018847D02*
X016926Y018912D01*
X016796Y018912D01*
X016731Y018847D01*
X016731Y018782D01*
X016796Y018717D01*
X016926Y018717D01*
X016991Y018652D01*
X016991Y018587D01*
X016926Y018522D01*
X016796Y018522D01*
X016731Y018587D01*
D19*
X020311Y015883D02*
X020424Y015996D01*
X020499Y015996D01*
X020575Y015920D01*
X020575Y015845D01*
X020461Y015732D01*
X020537Y015656D02*
X020311Y015883D01*
X020234Y015806D02*
X020083Y015655D01*
X020158Y015730D02*
X020385Y015504D01*
X020727Y015922D02*
X020803Y015922D01*
X020878Y015997D01*
X020878Y016073D01*
X020840Y016110D01*
X020765Y016110D01*
X020652Y015997D01*
X020727Y015922D01*
X020652Y015997D02*
X020652Y016148D01*
X020689Y016261D01*
X030255Y008683D02*
X030502Y008312D01*
X030746Y008312D02*
X030746Y008683D01*
X030623Y008683D02*
X030870Y008683D01*
X030991Y008621D02*
X031053Y008683D01*
X031177Y008683D01*
X031238Y008621D01*
X031238Y008559D01*
X030991Y008312D01*
X031238Y008312D01*
X030502Y008683D02*
X030255Y008312D01*
X030022Y004177D02*
X030022Y003930D01*
X030022Y004054D02*
X029652Y004054D01*
X029776Y003930D01*
X029652Y003809D02*
X029652Y003562D01*
X029652Y003441D02*
X030022Y003194D01*
X030022Y003441D02*
X029652Y003194D01*
X029652Y003686D02*
X030022Y003686D01*
D20*
X031342Y001497D02*
X031452Y001497D01*
X031397Y001497D02*
X031397Y001167D01*
X031342Y001167D02*
X031452Y001167D01*
X031587Y001222D02*
X031642Y001167D01*
X031752Y001167D01*
X031807Y001222D01*
X031956Y001332D02*
X032176Y001332D01*
X032121Y001167D02*
X032121Y001497D01*
X031956Y001332D01*
X031807Y001442D02*
X031752Y001497D01*
X031642Y001497D01*
X031587Y001442D01*
X031587Y001222D01*
X025175Y003219D02*
X024955Y002999D01*
X024955Y002944D01*
X024807Y002999D02*
X024752Y002944D01*
X024642Y002944D01*
X024587Y002999D01*
X024587Y003219D01*
X024642Y003274D01*
X024752Y003274D01*
X024807Y003219D01*
X024955Y003274D02*
X025175Y003274D01*
X025175Y003219D01*
X024451Y003274D02*
X024341Y003274D01*
X024396Y003274D02*
X024396Y002944D01*
X024341Y002944D02*
X024451Y002944D01*
X030084Y011116D02*
X030084Y011281D01*
X030139Y011336D01*
X030359Y011336D01*
X030414Y011281D01*
X030414Y011116D01*
X030084Y011116D01*
X030139Y011484D02*
X030194Y011484D01*
X030249Y011539D01*
X030249Y011649D01*
X030304Y011704D01*
X030359Y011704D01*
X030414Y011649D01*
X030414Y011539D01*
X030359Y011484D01*
X030304Y011484D01*
X030249Y011539D01*
X030249Y011649D02*
X030194Y011704D01*
X030139Y011704D01*
X030084Y011649D01*
X030084Y011539D01*
X030139Y011484D01*
X030563Y013471D02*
X030635Y013471D01*
X030707Y013542D01*
X030707Y013686D01*
X030778Y013758D01*
X030850Y013758D01*
X030922Y013686D01*
X030922Y013542D01*
X030850Y013471D01*
X030563Y013471D02*
X030491Y013542D01*
X030491Y013686D01*
X030563Y013758D01*
X030491Y013931D02*
X030922Y013931D01*
X030778Y014074D01*
X030922Y014218D01*
X030491Y014218D01*
X030635Y014391D02*
X030491Y014535D01*
X030922Y014535D01*
X030922Y014678D02*
X030922Y014391D01*
X026109Y015461D02*
X025889Y015461D01*
X025999Y015351D02*
X025999Y015572D01*
X023462Y012169D02*
X023462Y011949D01*
X023352Y012059D02*
X023572Y012059D01*
X022622Y012059D02*
X022402Y012059D01*
X022512Y011949D02*
X022512Y012169D01*
X021672Y012059D02*
X021452Y012059D01*
X021562Y011949D02*
X021562Y012169D01*
X010033Y013619D02*
X009813Y013619D01*
X009978Y013784D01*
X009978Y013454D01*
X009665Y013454D02*
X009444Y013454D01*
X009555Y013454D02*
X009555Y013784D01*
X009444Y013674D01*
X009296Y013729D02*
X009241Y013784D01*
X009131Y013784D01*
X009076Y013729D01*
X009076Y013509D01*
X009131Y013454D01*
X009241Y013454D01*
X009296Y013509D01*
X008941Y013454D02*
X008831Y013454D01*
X008886Y013454D02*
X008886Y013784D01*
X008831Y013784D02*
X008941Y013784D01*
X006867Y010336D02*
X006922Y010281D01*
X006922Y010171D01*
X006867Y010116D01*
X006757Y010116D02*
X006702Y010226D01*
X006702Y010281D01*
X006757Y010336D01*
X006867Y010336D01*
X006757Y010116D02*
X006591Y010116D01*
X006591Y010336D01*
X006646Y009967D02*
X006591Y009912D01*
X006591Y009802D01*
X006646Y009747D01*
X006867Y009747D01*
X006922Y009802D01*
X006922Y009912D01*
X006867Y009967D01*
X006922Y009612D02*
X006922Y009502D01*
X006922Y009557D02*
X006591Y009557D01*
X006591Y009502D02*
X006591Y009612D01*
X004329Y007935D02*
X004329Y007825D01*
X004274Y007770D01*
X004274Y007621D02*
X004054Y007621D01*
X003999Y007566D01*
X003999Y007401D01*
X004329Y007401D01*
X004329Y007566D01*
X004274Y007621D01*
X004054Y007770D02*
X003999Y007825D01*
X003999Y007935D01*
X004054Y007990D01*
X004109Y007990D01*
X004164Y007935D01*
X004219Y007990D01*
X004274Y007990D01*
X004329Y007935D01*
X004164Y007935D02*
X004164Y007880D01*
X005587Y006640D02*
X005752Y006640D01*
X005807Y006585D01*
X005807Y006365D01*
X005752Y006309D01*
X005587Y006309D01*
X005587Y006640D01*
X005956Y006530D02*
X006066Y006640D01*
X006066Y006309D01*
X005956Y006309D02*
X006176Y006309D01*
X006324Y006365D02*
X006544Y006585D01*
X006544Y006365D01*
X006489Y006309D01*
X006379Y006309D01*
X006324Y006365D01*
X006324Y006585D01*
X006379Y006640D01*
X006489Y006640D01*
X006544Y006585D01*
X006524Y006809D02*
X006744Y007030D01*
X006744Y007085D01*
X006689Y007140D01*
X006579Y007140D01*
X006524Y007085D01*
X006376Y007085D02*
X006376Y006865D01*
X006321Y006809D01*
X006156Y006809D01*
X006156Y007140D01*
X006321Y007140D01*
X006376Y007085D01*
X006524Y006809D02*
X006744Y006809D01*
X008701Y006230D02*
X009031Y006230D01*
X009031Y006120D02*
X009031Y006340D01*
X008811Y006120D02*
X008701Y006230D01*
X008756Y005971D02*
X008701Y005916D01*
X008701Y005751D01*
X009031Y005751D01*
X009031Y005916D01*
X008976Y005971D01*
X008756Y005971D01*
D21*
X024365Y005680D02*
X024365Y005089D01*
X024956Y005089D01*
X028105Y005089D02*
X028696Y005089D01*
X028696Y005680D01*
X028696Y008829D02*
X028696Y009420D01*
X028105Y009420D01*
X027993Y008907D02*
X027995Y008932D01*
X028001Y008956D01*
X028011Y008978D01*
X028025Y008999D01*
X028041Y009017D01*
X028061Y009033D01*
X028083Y009044D01*
X028106Y009052D01*
X028131Y009056D01*
X028155Y009056D01*
X028180Y009052D01*
X028203Y009044D01*
X028225Y009033D01*
X028245Y009017D01*
X028261Y008999D01*
X028275Y008978D01*
X028285Y008956D01*
X028291Y008932D01*
X028293Y008907D01*
X028291Y008882D01*
X028285Y008858D01*
X028275Y008836D01*
X028261Y008815D01*
X028245Y008797D01*
X028225Y008781D01*
X028203Y008770D01*
X028180Y008762D01*
X028155Y008758D01*
X028131Y008758D01*
X028106Y008762D01*
X028083Y008770D01*
X028061Y008781D01*
X028041Y008797D01*
X028025Y008815D01*
X028011Y008836D01*
X028001Y008858D01*
X027995Y008882D01*
X027993Y008907D01*
X024956Y009420D02*
X024365Y009420D01*
X024365Y008829D01*
D22*
X027355Y008877D02*
X027508Y009030D01*
X027508Y008570D01*
X027355Y008570D02*
X027662Y008570D01*
X027584Y008227D02*
X027507Y008227D01*
X027431Y008150D01*
X027431Y007996D01*
X027507Y007920D01*
X027507Y007766D02*
X027431Y007689D01*
X027431Y007536D01*
X027507Y007459D01*
X027814Y007459D01*
X027891Y007536D01*
X027891Y007689D01*
X027814Y007766D01*
X027891Y007920D02*
X027584Y008227D01*
X027891Y008227D02*
X027891Y007920D01*
X027891Y007306D02*
X027891Y007152D01*
X027891Y007229D02*
X027431Y007229D01*
X027431Y007152D02*
X027431Y007306D01*
X026392Y002021D02*
X026085Y002021D01*
X025932Y001945D02*
X025932Y001791D01*
X025855Y001715D01*
X025625Y001715D01*
X025625Y001561D02*
X025625Y002021D01*
X025855Y002021D01*
X025932Y001945D01*
X026085Y001638D02*
X026085Y001561D01*
X026085Y001638D02*
X026392Y001945D01*
X026392Y002021D01*
X025471Y002021D02*
X025165Y002021D01*
X025318Y002021D02*
X025318Y001561D01*
X017151Y011568D02*
X017151Y011875D01*
X017151Y012028D02*
X017151Y012258D01*
X017227Y012335D01*
X017381Y012335D01*
X017458Y012258D01*
X017458Y012028D01*
X017611Y012028D02*
X017151Y012028D01*
X017151Y011721D02*
X017611Y011721D01*
X017611Y012488D02*
X017611Y012795D01*
X017611Y012642D02*
X017151Y012642D01*
X017304Y012488D01*
X025465Y013671D02*
X025771Y013671D01*
X025618Y013671D02*
X025618Y013211D01*
X025925Y013211D02*
X025925Y013671D01*
X026155Y013671D01*
X026232Y013595D01*
X026232Y013441D01*
X026155Y013365D01*
X025925Y013365D01*
X026385Y013365D02*
X026462Y013441D01*
X026615Y013441D01*
X026692Y013365D01*
X026692Y013288D01*
X026615Y013211D01*
X026462Y013211D01*
X026385Y013288D01*
X026385Y013365D01*
X026462Y013441D02*
X026385Y013518D01*
X026385Y013595D01*
X026462Y013671D01*
X026615Y013671D01*
X026692Y013595D01*
X026692Y013518D01*
X026615Y013441D01*
X006114Y018187D02*
X005807Y018187D01*
X005960Y018187D02*
X005960Y018647D01*
X005807Y018494D01*
X005654Y018647D02*
X005654Y018263D01*
X005577Y018187D01*
X005423Y018187D01*
X005347Y018263D01*
X005347Y018647D01*
X004965Y013221D02*
X004735Y012991D01*
X005042Y012991D01*
X004965Y012761D02*
X004965Y013221D01*
X004582Y013145D02*
X004582Y012991D01*
X004505Y012915D01*
X004275Y012915D01*
X004275Y012761D02*
X004275Y013221D01*
X004505Y013221D01*
X004582Y013145D01*
X004121Y013221D02*
X003815Y013221D01*
X003968Y013221D02*
X003968Y012761D01*
X003092Y012838D02*
X003015Y012761D01*
X002862Y012761D01*
X002785Y012838D01*
X002785Y012991D02*
X002939Y013068D01*
X003015Y013068D01*
X003092Y012991D01*
X003092Y012838D01*
X002785Y012991D02*
X002785Y013221D01*
X003092Y013221D01*
X002632Y013145D02*
X002632Y012991D01*
X002555Y012915D01*
X002325Y012915D01*
X002325Y012761D02*
X002325Y013221D01*
X002555Y013221D01*
X002632Y013145D01*
X002171Y013221D02*
X001865Y013221D01*
X002018Y013221D02*
X002018Y012761D01*
X001505Y011182D02*
X001505Y010875D01*
X001198Y011182D01*
X001121Y011182D01*
X001044Y011106D01*
X001044Y010952D01*
X001121Y010875D01*
X001044Y010722D02*
X001351Y010722D01*
X001505Y010569D01*
X001351Y010415D01*
X001044Y010415D01*
X001121Y010262D02*
X001044Y010185D01*
X001044Y010031D01*
X001121Y009955D01*
X001198Y009955D01*
X001275Y010031D01*
X001275Y010185D01*
X001351Y010262D01*
X001428Y010262D01*
X001505Y010185D01*
X001505Y010031D01*
X001428Y009955D01*
X004315Y009121D02*
X004621Y009121D01*
X004468Y009121D02*
X004468Y008661D01*
X004775Y008661D02*
X004775Y009121D01*
X005005Y009121D01*
X005082Y009045D01*
X005082Y008891D01*
X005005Y008815D01*
X004775Y008815D01*
X005235Y008738D02*
X005312Y008661D01*
X005465Y008661D01*
X005542Y008738D01*
X005542Y008815D01*
X005465Y008891D01*
X005389Y008891D01*
X005465Y008891D02*
X005542Y008968D01*
X005542Y009045D01*
X005465Y009121D01*
X005312Y009121D01*
X005235Y009045D01*
X002442Y007245D02*
X002365Y007321D01*
X002212Y007321D01*
X002135Y007245D01*
X001982Y007245D02*
X001982Y007091D01*
X001905Y007015D01*
X001675Y007015D01*
X001675Y006861D02*
X001675Y007321D01*
X001905Y007321D01*
X001982Y007245D01*
X001521Y007321D02*
X001215Y007321D01*
X001368Y007321D02*
X001368Y006861D01*
X002135Y006861D02*
X002442Y007168D01*
X002442Y007245D01*
X002442Y006861D02*
X002135Y006861D01*
D23*
X014837Y010067D02*
X014837Y011377D01*
X016777Y011377D01*
X016777Y010067D01*
X014837Y010067D01*
X022189Y014033D02*
X022662Y013718D01*
X025024Y013718D01*
X025024Y014623D01*
X025024Y015410D02*
X025024Y016316D01*
X022662Y016316D01*
X022622Y016316D02*
X022189Y016001D01*
X022189Y015410D01*
X022189Y014623D02*
X022189Y014033D01*
X024947Y012837D02*
X026257Y012837D01*
X026257Y010897D01*
X024947Y010897D01*
X024947Y012837D01*
X028188Y012694D02*
X032125Y012694D01*
X032125Y013107D01*
X032125Y013851D02*
X032125Y014894D01*
X032125Y015627D02*
X032125Y016040D01*
X028188Y016040D01*
X028188Y015627D01*
X028188Y014894D02*
X028188Y013851D01*
X028188Y013107D02*
X028188Y012694D01*
X018817Y015347D02*
X017507Y015347D01*
X017507Y017287D01*
X018817Y017287D01*
X018817Y015347D01*
X017356Y015522D02*
X017041Y015049D01*
X016450Y015049D01*
X015663Y015049D02*
X015072Y015049D01*
X014757Y015483D01*
X014757Y015522D02*
X014757Y017884D01*
X015663Y017884D01*
X016450Y017884D02*
X017356Y017884D01*
X017356Y015522D01*
X010617Y017747D02*
X009307Y017747D01*
X009307Y019687D01*
X010617Y019687D01*
X010617Y017747D01*
D24*
X007434Y004762D02*
X007434Y004569D01*
X007434Y004665D02*
X007144Y004665D01*
X007241Y004569D01*
X007193Y004440D02*
X007386Y004440D01*
X007434Y004391D01*
X007434Y004295D01*
X007386Y004246D01*
X007193Y004246D01*
X007144Y004295D01*
X007144Y004391D01*
X007193Y004440D01*
X007338Y004343D02*
X007434Y004440D01*
X008294Y003438D02*
X008584Y003438D01*
X008584Y003534D02*
X008584Y003341D01*
X008584Y003212D02*
X008584Y003019D01*
X008584Y003115D02*
X008294Y003115D01*
X008391Y003019D01*
X008343Y002890D02*
X008294Y002841D01*
X008294Y002696D01*
X008584Y002696D01*
X008584Y002841D01*
X008536Y002890D01*
X008343Y002890D01*
X008102Y002729D02*
X008102Y002681D01*
X007909Y002487D01*
X007909Y002439D01*
X007780Y002487D02*
X007780Y002681D01*
X007731Y002729D01*
X007586Y002729D01*
X007586Y002439D01*
X007731Y002439D01*
X007780Y002487D01*
X007909Y002729D02*
X008102Y002729D01*
X008391Y003341D02*
X008294Y003438D01*
M02*
