G75*
G70*
%OFA0B0*%
%FSLAX24Y24*%
%IPPOS*%
%LPD*%
%AMOC8*
5,1,8,0,0,1.08239X$1,22.5*
%
%ADD10C,0.0090*%
%ADD11C,0.0675*%
%ADD12C,0.0945*%
%ADD13C,0.0317*%
%ADD14C,0.1181*%
%ADD15C,0.0080*%
%ADD16C,0.0240*%
D10*
X032015Y017772D02*
X031741Y017772D01*
X031741Y017567D01*
X031878Y017635D01*
X031946Y017635D01*
X032015Y017567D01*
X032015Y017430D01*
X031946Y017362D01*
X031809Y017362D01*
X031741Y017430D01*
X031554Y017362D02*
X031281Y017362D01*
X031418Y017362D02*
X031418Y017772D01*
X031281Y017635D01*
X031094Y017567D02*
X031026Y017635D01*
X030889Y017635D01*
X030820Y017567D01*
X030820Y017430D01*
X030889Y017362D01*
X031026Y017362D01*
X031094Y017499D02*
X030820Y017499D01*
X030650Y017635D02*
X030514Y017635D01*
X030582Y017704D02*
X030582Y017430D01*
X030650Y017362D01*
X030327Y017362D02*
X030327Y017635D01*
X030053Y017635D02*
X030053Y017430D01*
X030122Y017362D01*
X030327Y017362D01*
X029866Y017430D02*
X029866Y017567D01*
X029798Y017635D01*
X029661Y017635D01*
X029593Y017567D01*
X029593Y017430D01*
X029661Y017362D01*
X029798Y017362D01*
X029866Y017430D01*
X029414Y017635D02*
X029346Y017635D01*
X029209Y017499D01*
X029209Y017635D02*
X029209Y017362D01*
X031094Y017499D02*
X031094Y017567D01*
D11*
X030357Y018217D03*
X029357Y018217D03*
X028357Y018217D03*
X027357Y018217D03*
X026357Y018217D03*
X025357Y018217D03*
X024357Y018217D03*
X023357Y018217D03*
X022357Y018217D03*
X021357Y018217D03*
X021357Y019217D03*
X022357Y019217D03*
X023357Y019217D03*
X024357Y019217D03*
X025357Y019217D03*
X026357Y019217D03*
X027357Y019217D03*
X028357Y019217D03*
X029357Y019217D03*
X030357Y019217D03*
X017807Y019717D03*
X016807Y019717D03*
X015807Y019717D03*
X014807Y019717D03*
X013807Y019717D03*
X012807Y019717D03*
D12*
X020521Y015902D03*
D13*
X003707Y002717D03*
X002557Y002917D03*
X003107Y003917D03*
X002707Y004617D03*
X004707Y004367D03*
X005207Y004767D03*
X006307Y005567D03*
X007007Y005117D03*
X007107Y005767D03*
X006257Y006117D03*
X005257Y006517D03*
X003807Y007067D03*
X003707Y008067D03*
X004107Y008417D03*
X003657Y009117D03*
X004407Y010067D03*
X003957Y011167D03*
X003957Y011917D03*
X005807Y012767D03*
X005557Y013417D03*
X005757Y013817D03*
X005357Y013817D03*
X004957Y014867D03*
X004307Y014917D03*
X003707Y014917D03*
X003057Y014917D03*
X001807Y014967D03*
X001307Y013017D03*
X005207Y015767D03*
X006007Y016317D03*
X006607Y015967D03*
X007307Y015517D03*
X007707Y015067D03*
X008357Y015067D03*
X008257Y015467D03*
X008757Y016167D03*
X008357Y016317D03*
X007957Y016317D03*
X009557Y015667D03*
X010107Y015767D03*
X011107Y015767D03*
X011907Y015617D03*
X013007Y015417D03*
X013407Y015817D03*
X013907Y015767D03*
X014457Y015617D03*
X014457Y014067D03*
X014307Y013567D03*
X014107Y012867D03*
X013257Y012667D03*
X012707Y012617D03*
X013507Y011767D03*
X013957Y011967D03*
X013157Y011017D03*
X012557Y010917D03*
X010707Y011867D03*
X010407Y012767D03*
X010957Y013567D03*
X010307Y013817D03*
X011157Y014517D03*
X011607Y014367D03*
X011957Y014767D03*
X008007Y013917D03*
X007457Y013917D03*
X006557Y011617D03*
X006507Y011017D03*
X006957Y011017D03*
X008457Y011017D03*
X009307Y011267D03*
X009457Y010717D03*
X010057Y010867D03*
X009307Y010117D03*
X008457Y010167D03*
X008457Y009667D03*
X006507Y009167D03*
X005957Y008817D03*
X008207Y006917D03*
X008507Y006567D03*
X008207Y005817D03*
X009407Y005867D03*
X009457Y006367D03*
X010757Y005767D03*
X011957Y005067D03*
X012407Y005067D03*
X013007Y004067D03*
X013457Y003817D03*
X013957Y003817D03*
X013857Y003367D03*
X014507Y003667D03*
X016007Y002567D03*
X017557Y003217D03*
X016357Y004017D03*
X016807Y004817D03*
X016507Y005517D03*
X017457Y005717D03*
X018157Y005017D03*
X018707Y004417D03*
X019657Y005117D03*
X020907Y005267D03*
X021357Y004717D03*
X020857Y004117D03*
X021157Y003817D03*
X020957Y003167D03*
X019807Y003017D03*
X019107Y002967D03*
X019907Y001567D03*
X017807Y001567D03*
X022857Y002167D03*
X023032Y002591D03*
X023457Y002767D03*
X023881Y002591D03*
X024057Y002167D03*
X023881Y001743D03*
X023457Y001567D03*
X023032Y001743D03*
X025557Y003017D03*
X025857Y004017D03*
X026707Y004117D03*
X027107Y004017D03*
X028057Y003017D03*
X029857Y003067D03*
X029657Y004367D03*
X029007Y004367D03*
X028857Y004967D03*
X029607Y005567D03*
X029607Y006267D03*
X029857Y007567D03*
X028257Y007717D03*
X027107Y007967D03*
X026307Y008317D03*
X026507Y008667D03*
X026157Y008967D03*
X025457Y008967D03*
X025007Y008967D03*
X024157Y009767D03*
X023307Y009917D03*
X023007Y010417D03*
X022507Y010367D03*
X021907Y010367D03*
X021357Y009967D03*
X022007Y008667D03*
X023207Y008667D03*
X023557Y008917D03*
X024857Y008167D03*
X025007Y007767D03*
X025757Y007167D03*
X026057Y007467D03*
X025507Y006767D03*
X024957Y006517D03*
X025307Y006167D03*
X025757Y006417D03*
X026357Y006267D03*
X026707Y006017D03*
X027307Y006317D03*
X027357Y005817D03*
X027907Y005767D03*
X027007Y007067D03*
X025307Y005717D03*
X024557Y004867D03*
X024007Y004817D03*
X023407Y005017D03*
X023057Y005617D03*
X022657Y005967D03*
X022757Y006367D03*
X022607Y007167D03*
X022807Y007517D03*
X021407Y007517D03*
X021007Y007267D03*
X020557Y007417D03*
X020807Y007817D03*
X019357Y007917D03*
X018157Y007367D03*
X017457Y007467D03*
X016907Y008167D03*
X017257Y009167D03*
X016857Y009317D03*
X016407Y009267D03*
X016857Y010367D03*
X018107Y009917D03*
X018057Y011517D03*
X018007Y012117D03*
X016857Y013117D03*
X017257Y013617D03*
X017807Y013217D03*
X016357Y013867D03*
X017307Y014617D03*
X016607Y015117D03*
X017307Y015967D03*
X018157Y016317D03*
X019107Y016917D03*
X016707Y017267D03*
X016557Y016867D03*
X014457Y018117D03*
X013307Y018767D03*
X012557Y018467D03*
X012381Y018891D03*
X011957Y019067D03*
X011532Y018891D03*
X011357Y018467D03*
X010857Y018417D03*
X011532Y018043D03*
X011957Y017867D03*
X012381Y018043D03*
X009757Y018667D03*
X007807Y019367D03*
X007307Y019217D03*
X007507Y018867D03*
X007007Y018217D03*
X005407Y017867D03*
X004957Y017767D03*
X004857Y017367D03*
X004457Y017067D03*
X005307Y016767D03*
X002957Y018117D03*
X002557Y018217D03*
X002607Y017617D03*
X001907Y018417D03*
X001607Y018817D03*
X002707Y018767D03*
X005007Y019117D03*
X009307Y020217D03*
X010957Y020217D03*
X011557Y020217D03*
X011607Y020567D03*
X016057Y018617D03*
X016357Y020517D03*
X021557Y016117D03*
X022257Y015867D03*
X024607Y015567D03*
X025007Y015867D03*
X026357Y015467D03*
X027057Y015417D03*
X028307Y015867D03*
X029107Y016117D03*
X030557Y016517D03*
X030957Y016717D03*
X031557Y018117D03*
X029907Y020167D03*
X027307Y017467D03*
X025157Y017367D03*
X023357Y020017D03*
X030607Y015217D03*
X029807Y015067D03*
X028957Y014567D03*
X030007Y013367D03*
X030657Y012667D03*
X029857Y012317D03*
X028757Y012067D03*
X027357Y012317D03*
X027307Y012867D03*
X025407Y014267D03*
X024307Y014367D03*
X024607Y013517D03*
X023207Y014167D03*
X022557Y013267D03*
X021257Y014117D03*
X021057Y012167D03*
X021507Y011817D03*
X019757Y011817D03*
X023507Y011767D03*
X025407Y010467D03*
X026007Y010367D03*
X026307Y010667D03*
X027307Y010617D03*
X028307Y009617D03*
X028707Y010317D03*
X030207Y010517D03*
X031507Y011367D03*
X031557Y012667D03*
X031607Y014117D03*
X031657Y014617D03*
X032307Y014617D03*
X032357Y009917D03*
X031457Y008417D03*
X031507Y006917D03*
X031657Y006517D03*
X032357Y006917D03*
X032457Y005817D03*
X031507Y005817D03*
X031557Y005167D03*
X032207Y004417D03*
X026857Y001467D03*
X023507Y004017D03*
X022657Y004067D03*
X021107Y006017D03*
X019607Y006017D03*
X018657Y006117D03*
X017507Y006617D03*
X016857Y006667D03*
X016507Y007017D03*
X015157Y007267D03*
X014507Y007067D03*
X013957Y007017D03*
X013857Y007417D03*
X013457Y007317D03*
X012957Y007267D03*
X014257Y006267D03*
X013757Y005067D03*
X011807Y003317D03*
X011307Y002567D03*
X010907Y002417D03*
X011157Y002017D03*
X011807Y001867D03*
X012407Y002217D03*
X012657Y001267D03*
X009257Y002117D03*
X007857Y002217D03*
X006907Y003067D03*
X006807Y003517D03*
X006907Y004367D03*
X008557Y004717D03*
X008957Y004017D03*
X010107Y004117D03*
X010657Y004067D03*
X006407Y001967D03*
X005107Y002617D03*
X002107Y007817D03*
X002557Y010167D03*
X010557Y008867D03*
X011157Y009267D03*
X012157Y008367D03*
X012757Y008667D03*
X013507Y009217D03*
X013857Y008917D03*
X015157Y007667D03*
X027357Y008917D03*
D14*
X023457Y002167D03*
X011957Y018467D03*
D15*
X011507Y019417D02*
X010857Y018767D01*
X010857Y018417D01*
X010257Y017817D02*
X005457Y017817D01*
X005407Y017867D01*
X005257Y017467D02*
X004957Y017767D01*
X005257Y017467D02*
X006157Y017467D01*
X006307Y017617D01*
X010007Y017617D01*
X010807Y016817D01*
X012907Y016817D01*
X013707Y017617D01*
X020057Y017617D01*
X020857Y016817D01*
X030257Y016817D01*
X030557Y016517D01*
X030957Y016717D02*
X030657Y017017D01*
X020907Y017017D01*
X020107Y017817D01*
X013407Y017817D01*
X012607Y017017D01*
X011057Y017017D01*
X010257Y017817D01*
X008957Y018867D02*
X010307Y020217D01*
X010957Y020217D01*
X011507Y019417D02*
X012407Y019417D01*
X012657Y019167D01*
X015507Y019167D01*
X016057Y018617D01*
X016707Y017267D02*
X013957Y017267D01*
X013307Y016617D01*
X006307Y016617D01*
X006007Y016317D01*
X005357Y015617D02*
X006907Y015617D01*
X007157Y015867D01*
X009357Y015867D01*
X009557Y015667D01*
X008907Y016317D02*
X008757Y016167D01*
X008907Y016317D02*
X018157Y016317D01*
X017307Y015967D02*
X019507Y015967D01*
X020157Y016617D01*
X029207Y016617D01*
X030607Y015217D01*
X029107Y016117D02*
X028807Y016417D01*
X021857Y016417D01*
X021557Y016117D01*
X022257Y015867D02*
X022857Y015267D01*
X025207Y015267D01*
X025507Y015567D01*
X026207Y015567D01*
X026357Y015417D01*
X026357Y015467D01*
X025407Y014267D02*
X025557Y014117D01*
X031607Y014117D01*
X028957Y014567D02*
X024507Y014567D01*
X024307Y014367D01*
X023957Y014017D02*
X025157Y014017D01*
X026107Y013067D01*
X027107Y013067D01*
X027307Y012867D01*
X028757Y012067D02*
X029007Y011817D01*
X031857Y011817D01*
X032057Y011617D01*
X032057Y008317D01*
X031907Y008167D01*
X031657Y007917D01*
X031007Y007917D01*
X030757Y008167D01*
X028057Y008167D01*
X027857Y007967D01*
X027107Y007967D01*
X026907Y007767D02*
X027507Y007167D01*
X031207Y007167D01*
X031357Y007317D01*
X031757Y007317D01*
X032007Y007067D01*
X032007Y006867D01*
X031657Y006517D01*
X031507Y006167D02*
X031057Y006617D01*
X028157Y006617D01*
X027357Y005817D01*
X026307Y005467D02*
X029507Y005467D01*
X029607Y005567D01*
X029357Y004667D02*
X028607Y004667D01*
X028207Y005067D01*
X025407Y005067D01*
X025207Y005267D01*
X024307Y005267D01*
X024007Y004967D01*
X024007Y004817D01*
X023407Y005017D02*
X023407Y005167D01*
X023807Y005567D01*
X025157Y005567D01*
X025307Y005717D01*
X025307Y006167D02*
X025607Y006167D01*
X026307Y005467D01*
X026207Y004467D02*
X027057Y004467D01*
X027157Y004367D01*
X029007Y004367D01*
X029357Y004667D02*
X029657Y004367D01*
X031507Y006167D02*
X032207Y006167D01*
X032357Y006317D01*
X032357Y006917D01*
X031507Y006917D02*
X031407Y006817D01*
X027857Y006817D01*
X027757Y006717D01*
X026057Y006717D01*
X025757Y006417D01*
X024957Y006517D02*
X024207Y006517D01*
X024057Y006667D01*
X021257Y006667D01*
X021107Y006517D01*
X021107Y006017D01*
X019607Y007567D02*
X018657Y007567D01*
X018107Y008117D01*
X017257Y008117D01*
X017007Y007867D01*
X016557Y007867D01*
X016407Y008017D01*
X016407Y009267D01*
X015857Y009617D02*
X015407Y009167D01*
X014657Y009167D01*
X014057Y008567D01*
X013357Y008567D01*
X012907Y009017D01*
X012907Y010567D01*
X012557Y010917D01*
X013157Y011017D02*
X024957Y011017D01*
X025407Y010567D01*
X025407Y010467D01*
X025757Y010117D02*
X024607Y010117D01*
X023907Y010817D01*
X022607Y010817D01*
X022507Y010717D01*
X022507Y010367D01*
X023007Y010417D02*
X023107Y010317D01*
X024057Y010317D01*
X024507Y009867D01*
X026157Y009867D01*
X026607Y010317D01*
X028707Y010317D01*
X027307Y010617D02*
X026707Y011217D01*
X013407Y011217D01*
X013257Y011367D01*
X010357Y011367D01*
X010057Y011067D01*
X010057Y010867D01*
X009307Y010117D02*
X011807Y010117D01*
X012707Y009217D01*
X012707Y008717D01*
X012757Y008667D01*
X013507Y009217D02*
X013857Y009567D01*
X015257Y009567D01*
X015707Y010017D01*
X017407Y010017D01*
X017807Y009617D01*
X023507Y009617D01*
X023657Y009767D01*
X024157Y009767D01*
X024457Y009417D02*
X024707Y009667D01*
X025457Y009667D01*
X025807Y009317D01*
X026157Y008967D01*
X025807Y009317D02*
X025707Y009417D01*
X025457Y009317D02*
X025457Y008967D01*
X025507Y008967D01*
X025457Y009317D02*
X025357Y009417D01*
X024757Y009417D01*
X024557Y009217D01*
X017657Y009217D01*
X017257Y009617D01*
X015857Y009617D01*
X015807Y009817D02*
X017357Y009817D01*
X017757Y009417D01*
X024457Y009417D01*
X024207Y008667D02*
X026507Y008667D01*
X026307Y008317D02*
X025157Y008317D01*
X025007Y008467D01*
X024307Y008467D01*
X023957Y008117D01*
X020157Y008117D01*
X019607Y007567D01*
X020807Y007817D02*
X024457Y007817D01*
X024857Y007417D01*
X025507Y007417D01*
X025657Y007567D01*
X025957Y007567D01*
X026057Y007467D01*
X025757Y007167D02*
X025157Y007167D01*
X024857Y006867D01*
X018507Y006867D01*
X017857Y006217D01*
X014907Y006217D01*
X014507Y006617D01*
X010657Y006617D01*
X009607Y005567D01*
X008457Y005567D01*
X008207Y005817D01*
X008457Y006517D02*
X008507Y006567D01*
X008457Y006517D02*
X005257Y006517D01*
X006257Y006117D02*
X009157Y006117D01*
X009407Y005867D01*
X008557Y004717D02*
X011607Y004717D01*
X011957Y005067D01*
X011757Y005417D02*
X013307Y005417D01*
X013657Y005067D01*
X013757Y005067D01*
X013007Y004067D02*
X011907Y004067D01*
X011807Y003967D01*
X011807Y003317D01*
X011807Y003967D02*
X010757Y003967D01*
X010657Y004067D01*
X011457Y005117D02*
X011757Y005417D01*
X011307Y005317D02*
X012257Y006267D01*
X014257Y006267D01*
X016807Y004817D02*
X017257Y004367D01*
X018057Y004367D01*
X018357Y004067D01*
X019507Y004067D01*
X019907Y004467D01*
X021157Y004467D01*
X021307Y004317D01*
X022407Y004317D01*
X022507Y004417D01*
X026157Y004417D01*
X026207Y004467D01*
X026707Y004117D02*
X026257Y003667D01*
X023007Y003667D01*
X021207Y001867D01*
X015557Y001867D01*
X014907Y002517D01*
X011357Y002517D01*
X011307Y002567D01*
X011457Y005117D02*
X007007Y005117D01*
X007557Y005317D02*
X011307Y005317D01*
X007557Y005317D02*
X007107Y005767D01*
X013857Y008917D02*
X013857Y008967D01*
X014257Y009367D01*
X015357Y009367D01*
X015807Y009817D01*
X017107Y008317D02*
X023857Y008317D01*
X024207Y008667D01*
X025007Y007767D02*
X026907Y007767D01*
X025757Y010117D02*
X026007Y010367D01*
X024957Y011417D02*
X023957Y012417D01*
X021307Y012417D01*
X021057Y012167D01*
X023207Y011467D02*
X023507Y011767D01*
X023207Y011467D02*
X018107Y011467D01*
X018057Y011517D01*
X017857Y011967D02*
X018007Y012117D01*
X017857Y011967D02*
X013957Y011967D01*
X013257Y012667D02*
X013257Y012817D01*
X012957Y013117D01*
X001407Y013117D01*
X001307Y013017D01*
X003057Y014267D02*
X003207Y014117D01*
X007257Y014117D01*
X007457Y013917D01*
X008007Y014867D02*
X008457Y014417D01*
X011057Y014417D01*
X011157Y014517D01*
X010557Y014067D02*
X010307Y013817D01*
X010557Y014067D02*
X014457Y014067D01*
X014107Y013367D02*
X013607Y013867D01*
X010807Y013867D01*
X010457Y013517D01*
X006057Y013517D01*
X005757Y013817D01*
X004957Y014867D02*
X007507Y014867D01*
X007707Y015067D01*
X007457Y015217D02*
X007657Y015417D01*
X007907Y015417D01*
X008007Y015317D01*
X008007Y014867D01*
X008357Y015067D02*
X008407Y015117D01*
X016607Y015117D01*
X016257Y015317D02*
X016457Y015517D01*
X016707Y015517D01*
X017057Y015167D01*
X017057Y014867D01*
X017307Y014617D01*
X016257Y015317D02*
X014257Y015317D01*
X014157Y015417D01*
X013007Y015417D01*
X012307Y015617D02*
X012807Y016117D01*
X016707Y016117D01*
X017307Y015517D01*
X019707Y015517D01*
X020057Y015167D01*
X022557Y015167D01*
X023057Y014667D01*
X023307Y014667D01*
X023957Y014017D01*
X024507Y013617D02*
X024607Y013517D01*
X024507Y013617D02*
X017257Y013617D01*
X014107Y013367D02*
X014107Y012867D01*
X010707Y011867D02*
X010457Y011617D01*
X006557Y011617D01*
X003057Y014267D02*
X003057Y014917D01*
X002057Y015217D02*
X007457Y015217D01*
X005357Y015617D02*
X005207Y015767D01*
X002057Y015217D02*
X001807Y014967D01*
X007507Y018867D02*
X008957Y018867D01*
X011907Y015617D02*
X012307Y015617D01*
X018107Y009917D02*
X018557Y010367D01*
X021907Y010367D01*
X024957Y011417D02*
X031407Y011417D01*
X031457Y011367D01*
X031507Y011367D01*
X023507Y004017D02*
X023407Y003917D01*
X023007Y003917D01*
X022807Y003717D01*
X022557Y003717D01*
X022157Y004117D01*
X020857Y004117D01*
X016907Y008117D02*
X016907Y008167D01*
X016907Y008117D02*
X017107Y008317D01*
X018107Y009867D02*
X018057Y009917D01*
X018107Y009917D02*
X018107Y009867D01*
D16*
X021057Y017367D02*
X025157Y017367D01*
X021057Y017367D02*
X020257Y018167D01*
X015407Y018167D01*
X014807Y018767D01*
X013307Y018767D01*
X013157Y018117D02*
X014457Y018117D01*
X013157Y018117D02*
X012457Y017417D01*
X011207Y017417D01*
X010507Y018117D01*
X007107Y018117D01*
X007007Y018217D01*
M02*
