G75*
G70*
%OFA0B0*%
%FSLAX24Y24*%
%IPPOS*%
%LPD*%
%AMOC8*
5,1,8,0,0,1.08239X$1,22.5*
%
%ADD10C,0.0090*%
%ADD11C,0.0675*%
%ADD12C,0.0945*%
%ADD13C,0.0080*%
%ADD14C,0.0317*%
%ADD15C,0.1181*%
D10*
X022965Y020154D02*
X022896Y020222D01*
X022760Y020222D01*
X022691Y020154D01*
X022504Y020017D02*
X022504Y019949D01*
X022231Y019949D01*
X022231Y020017D02*
X022299Y020085D01*
X022436Y020085D01*
X022504Y020017D01*
X022436Y019812D02*
X022299Y019812D01*
X022231Y019880D01*
X022231Y020017D01*
X022061Y020085D02*
X021924Y020085D01*
X021992Y020154D02*
X021992Y019880D01*
X022061Y019812D01*
X021737Y019812D02*
X021737Y020085D01*
X021464Y020085D02*
X021464Y019880D01*
X021532Y019812D01*
X021737Y019812D01*
X021277Y019880D02*
X021277Y020017D01*
X021208Y020085D01*
X021072Y020085D01*
X021003Y020017D01*
X021003Y019880D01*
X021072Y019812D01*
X021208Y019812D01*
X021277Y019880D01*
X020825Y020085D02*
X020756Y020085D01*
X020620Y019949D01*
X020620Y020085D02*
X020620Y019812D01*
X022691Y019812D02*
X022965Y020085D01*
X022965Y020154D01*
X022965Y019812D02*
X022691Y019812D01*
D11*
X022357Y019217D03*
X023357Y019217D03*
X024357Y019217D03*
X025357Y019217D03*
X026357Y019217D03*
X027357Y019217D03*
X028357Y019217D03*
X029357Y019217D03*
X030357Y019217D03*
X030357Y018217D03*
X029357Y018217D03*
X028357Y018217D03*
X027357Y018217D03*
X026357Y018217D03*
X025357Y018217D03*
X024357Y018217D03*
X023357Y018217D03*
X022357Y018217D03*
X021357Y018217D03*
X021357Y019217D03*
X017807Y019717D03*
X016807Y019717D03*
X015807Y019717D03*
X014807Y019717D03*
X013807Y019717D03*
X012807Y019717D03*
D12*
X020521Y015902D03*
D13*
X032607Y001117D02*
X001107Y001117D01*
X001107Y012668D01*
X001227Y012618D01*
X001386Y012618D01*
X001533Y012679D01*
X001645Y012791D01*
X001705Y012937D01*
X001705Y013096D01*
X001645Y013243D01*
X001533Y013355D01*
X001386Y013415D01*
X001227Y013415D01*
X001107Y013365D01*
X001107Y020817D01*
X032607Y020817D01*
X032607Y007231D01*
X032583Y007255D01*
X032436Y007315D01*
X032277Y007315D01*
X032131Y007255D01*
X032019Y007143D01*
X031958Y006996D01*
X031958Y006837D01*
X032019Y006691D01*
X032131Y006579D01*
X032277Y006518D01*
X032436Y006518D01*
X032583Y006579D01*
X032607Y006603D01*
X032607Y001117D01*
X032607Y001181D02*
X001107Y001181D01*
X001107Y001259D02*
X032607Y001259D01*
X032607Y001338D02*
X001107Y001338D01*
X001107Y001417D02*
X032607Y001417D01*
X032607Y001495D02*
X001107Y001495D01*
X001107Y001574D02*
X006314Y001574D01*
X006327Y001568D02*
X006486Y001568D01*
X006633Y001629D01*
X006745Y001741D01*
X006805Y001887D01*
X006805Y002046D01*
X006745Y002193D01*
X006633Y002305D01*
X006486Y002365D01*
X006327Y002365D01*
X006181Y002305D01*
X006069Y002193D01*
X006008Y002046D01*
X006008Y001887D01*
X006069Y001741D01*
X006181Y001629D01*
X006327Y001568D01*
X006500Y001574D02*
X032607Y001574D01*
X032607Y001652D02*
X011318Y001652D01*
X011383Y001679D02*
X011495Y001791D01*
X011555Y001937D01*
X011555Y002096D01*
X011505Y002217D01*
X011533Y002229D01*
X011645Y002341D01*
X011705Y002487D01*
X011705Y002646D01*
X011645Y002793D01*
X011533Y002905D01*
X011386Y002965D01*
X011227Y002965D01*
X011081Y002905D01*
X010969Y002793D01*
X010908Y002646D01*
X010908Y002487D01*
X010958Y002366D01*
X010931Y002355D01*
X010819Y002243D01*
X010758Y002096D01*
X010758Y001937D01*
X010819Y001791D01*
X010931Y001679D01*
X011077Y001618D01*
X011236Y001618D01*
X011383Y001679D01*
X011435Y001731D02*
X032607Y001731D01*
X032607Y001809D02*
X011502Y001809D01*
X011535Y001888D02*
X012172Y001888D01*
X012181Y001879D02*
X012327Y001818D01*
X012486Y001818D01*
X012633Y001879D01*
X012745Y001991D01*
X012805Y002137D01*
X012805Y002296D01*
X012745Y002443D01*
X012633Y002555D01*
X012486Y002615D01*
X012327Y002615D01*
X012181Y002555D01*
X012069Y002443D01*
X012008Y002296D01*
X012008Y002137D01*
X012069Y001991D01*
X012181Y001879D01*
X012093Y001966D02*
X011555Y001966D01*
X011555Y002045D02*
X012046Y002045D01*
X012014Y002123D02*
X011544Y002123D01*
X011512Y002202D02*
X012008Y002202D01*
X012008Y002281D02*
X011584Y002281D01*
X011652Y002359D02*
X012034Y002359D01*
X012067Y002438D02*
X011685Y002438D01*
X011705Y002516D02*
X012142Y002516D01*
X012277Y002595D02*
X011705Y002595D01*
X011694Y002673D02*
X015619Y002673D01*
X015608Y002646D02*
X015669Y002793D01*
X015781Y002905D01*
X015927Y002965D01*
X016086Y002965D01*
X016233Y002905D01*
X016345Y002793D01*
X016405Y002646D01*
X016405Y002487D01*
X016345Y002341D01*
X016233Y002229D01*
X016086Y002168D01*
X015927Y002168D01*
X015781Y002229D01*
X015669Y002341D01*
X015608Y002487D01*
X015608Y002646D01*
X015608Y002595D02*
X012536Y002595D01*
X012671Y002516D02*
X015608Y002516D01*
X015629Y002438D02*
X012747Y002438D01*
X012779Y002359D02*
X015661Y002359D01*
X015729Y002281D02*
X012805Y002281D01*
X012805Y002202D02*
X015845Y002202D01*
X016168Y002202D02*
X032607Y002202D01*
X032607Y002123D02*
X012800Y002123D01*
X012767Y002045D02*
X032607Y002045D01*
X032607Y001966D02*
X012720Y001966D01*
X012642Y001888D02*
X032607Y001888D01*
X032607Y002281D02*
X016284Y002281D01*
X016352Y002359D02*
X032607Y002359D01*
X032607Y002438D02*
X016385Y002438D01*
X016405Y002516D02*
X032607Y002516D01*
X032607Y002595D02*
X019250Y002595D01*
X019186Y002568D02*
X019333Y002629D01*
X019445Y002741D01*
X019505Y002887D01*
X019505Y003046D01*
X019445Y003193D01*
X019333Y003305D01*
X019186Y003365D01*
X019027Y003365D01*
X018881Y003305D01*
X018769Y003193D01*
X018708Y003046D01*
X018708Y002887D01*
X018769Y002741D01*
X018881Y002629D01*
X019027Y002568D01*
X019186Y002568D01*
X019377Y002673D02*
X032607Y002673D01*
X032607Y002752D02*
X019449Y002752D01*
X019482Y002830D02*
X020729Y002830D01*
X020731Y002829D02*
X020877Y002768D01*
X021036Y002768D01*
X021183Y002829D01*
X021295Y002941D01*
X021355Y003087D01*
X021355Y003246D01*
X021295Y003393D01*
X021183Y003505D01*
X021036Y003565D01*
X020877Y003565D01*
X020731Y003505D01*
X020619Y003393D01*
X020558Y003246D01*
X020558Y003087D01*
X020619Y002941D01*
X020731Y002829D01*
X020651Y002909D02*
X019505Y002909D01*
X019505Y002987D02*
X020599Y002987D01*
X020567Y003066D02*
X019497Y003066D01*
X019465Y003145D02*
X020558Y003145D01*
X020558Y003223D02*
X019414Y003223D01*
X019336Y003302D02*
X020581Y003302D01*
X020614Y003380D02*
X017921Y003380D01*
X017895Y003443D02*
X017783Y003555D01*
X017636Y003615D01*
X017477Y003615D01*
X017331Y003555D01*
X017219Y003443D01*
X017158Y003296D01*
X017158Y003137D01*
X017219Y002991D01*
X017331Y002879D01*
X017477Y002818D01*
X017636Y002818D01*
X017783Y002879D01*
X017895Y002991D01*
X017955Y003137D01*
X017955Y003296D01*
X017895Y003443D01*
X017879Y003459D02*
X020685Y003459D01*
X020809Y003537D02*
X017800Y003537D01*
X017953Y003302D02*
X018878Y003302D01*
X018799Y003223D02*
X017955Y003223D01*
X017955Y003145D02*
X018749Y003145D01*
X018716Y003066D02*
X017926Y003066D01*
X017891Y002987D02*
X018708Y002987D01*
X018708Y002909D02*
X017813Y002909D01*
X017666Y002830D02*
X018732Y002830D01*
X018764Y002752D02*
X016362Y002752D01*
X016394Y002673D02*
X018836Y002673D01*
X018963Y002595D02*
X016405Y002595D01*
X016307Y002830D02*
X017448Y002830D01*
X017301Y002909D02*
X016223Y002909D01*
X015791Y002909D02*
X011523Y002909D01*
X011581Y002979D02*
X011727Y002918D01*
X011886Y002918D01*
X012033Y002979D01*
X012145Y003091D01*
X012205Y003237D01*
X012205Y003396D01*
X012145Y003543D01*
X012033Y003655D01*
X011886Y003715D01*
X011727Y003715D01*
X011581Y003655D01*
X011469Y003543D01*
X011408Y003396D01*
X011408Y003237D01*
X011469Y003091D01*
X011581Y002979D01*
X011572Y002987D02*
X007305Y002987D01*
X007305Y003146D01*
X007245Y003293D01*
X007133Y003405D01*
X006986Y003465D01*
X006827Y003465D01*
X006681Y003405D01*
X006569Y003293D01*
X006508Y003146D01*
X006508Y002987D01*
X004000Y002987D01*
X004045Y002943D02*
X003933Y003055D01*
X003786Y003115D01*
X003627Y003115D01*
X003481Y003055D01*
X003369Y002943D01*
X003308Y002796D01*
X003308Y002637D01*
X003369Y002491D01*
X003481Y002379D01*
X003627Y002318D01*
X003786Y002318D01*
X003933Y002379D01*
X004045Y002491D01*
X004105Y002637D01*
X004105Y002796D01*
X004045Y002943D01*
X004059Y002909D02*
X006540Y002909D01*
X006569Y002841D02*
X006508Y002987D01*
X006508Y003066D02*
X003905Y003066D01*
X004091Y002830D02*
X006579Y002830D01*
X006569Y002841D02*
X006681Y002729D01*
X006827Y002668D01*
X006986Y002668D01*
X007133Y002729D01*
X007245Y002841D01*
X007305Y002987D01*
X007305Y003066D02*
X011494Y003066D01*
X011446Y003145D02*
X007305Y003145D01*
X007274Y003223D02*
X011414Y003223D01*
X011408Y003302D02*
X007236Y003302D01*
X007157Y003380D02*
X011408Y003380D01*
X011434Y003459D02*
X007002Y003459D01*
X006811Y003459D02*
X001107Y003459D01*
X001107Y003537D02*
X011466Y003537D01*
X011542Y003616D02*
X001107Y003616D01*
X001107Y003694D02*
X010514Y003694D01*
X010577Y003668D02*
X010736Y003668D01*
X010883Y003729D01*
X010995Y003841D01*
X011055Y003987D01*
X011055Y004146D01*
X010995Y004293D01*
X010883Y004405D01*
X010736Y004465D01*
X010577Y004465D01*
X010431Y004405D01*
X010407Y004381D01*
X010333Y004455D01*
X010186Y004515D01*
X010027Y004515D01*
X009881Y004455D01*
X009769Y004343D01*
X009708Y004196D01*
X009708Y004037D01*
X009769Y003891D01*
X009881Y003779D01*
X010027Y003718D01*
X010186Y003718D01*
X010333Y003779D01*
X010357Y003803D01*
X010431Y003729D01*
X010577Y003668D01*
X010387Y003773D02*
X010318Y003773D01*
X009895Y003773D02*
X001107Y003773D01*
X001107Y003851D02*
X009808Y003851D01*
X009752Y003930D02*
X001107Y003930D01*
X001107Y004009D02*
X004530Y004009D01*
X004481Y004029D02*
X004627Y003968D01*
X004786Y003968D01*
X004933Y004029D01*
X005045Y004141D01*
X005105Y004287D01*
X005105Y004446D01*
X005045Y004593D01*
X004933Y004705D01*
X004786Y004765D01*
X004627Y004765D01*
X004481Y004705D01*
X004369Y004593D01*
X004308Y004446D01*
X004308Y004287D01*
X004369Y004141D01*
X004481Y004029D01*
X004423Y004087D02*
X001107Y004087D01*
X001107Y004166D02*
X004358Y004166D01*
X004326Y004244D02*
X002849Y004244D01*
X002786Y004218D02*
X002933Y004279D01*
X003045Y004391D01*
X003105Y004537D01*
X003105Y004696D01*
X003045Y004843D01*
X002933Y004955D01*
X002786Y005015D01*
X002627Y005015D01*
X002481Y004955D01*
X002369Y004843D01*
X002308Y004696D01*
X002308Y004537D01*
X002369Y004391D01*
X002481Y004279D01*
X002627Y004218D01*
X002786Y004218D01*
X002976Y004323D02*
X004308Y004323D01*
X004308Y004401D02*
X003049Y004401D01*
X003081Y004480D02*
X004322Y004480D01*
X004354Y004558D02*
X003105Y004558D01*
X003105Y004637D02*
X004413Y004637D01*
X004506Y004715D02*
X003097Y004715D01*
X003065Y004794D02*
X006766Y004794D01*
X006781Y004779D02*
X006927Y004718D01*
X007086Y004718D01*
X007233Y004779D01*
X007345Y004891D01*
X007405Y005037D01*
X007405Y005196D01*
X007345Y005343D01*
X007280Y005407D01*
X007333Y005429D01*
X007445Y005541D01*
X007505Y005687D01*
X007505Y005846D01*
X007445Y005993D01*
X007333Y006105D01*
X007186Y006165D01*
X007027Y006165D01*
X006881Y006105D01*
X006769Y005993D01*
X006708Y005846D01*
X006708Y005687D01*
X006769Y005541D01*
X006833Y005476D01*
X006781Y005455D01*
X006669Y005343D01*
X006608Y005196D01*
X006608Y005037D01*
X006669Y004891D01*
X006781Y004779D01*
X006687Y004872D02*
X003015Y004872D01*
X002936Y004951D02*
X006644Y004951D01*
X006611Y005030D02*
X001107Y005030D01*
X001107Y005108D02*
X006608Y005108D01*
X006608Y005187D02*
X006431Y005187D01*
X006386Y005168D02*
X006533Y005229D01*
X006645Y005341D01*
X006705Y005487D01*
X006705Y005646D01*
X006645Y005793D01*
X006571Y005867D01*
X006595Y005891D01*
X006655Y006037D01*
X006655Y006196D01*
X006595Y006343D01*
X006483Y006455D01*
X006336Y006515D01*
X006177Y006515D01*
X006031Y006455D01*
X005919Y006343D01*
X005858Y006196D01*
X005858Y006037D01*
X005919Y005891D01*
X005993Y005817D01*
X005969Y005793D01*
X005908Y005646D01*
X005908Y005487D01*
X005969Y005341D01*
X006081Y005229D01*
X006227Y005168D01*
X006386Y005168D01*
X006182Y005187D02*
X001107Y005187D01*
X001107Y005265D02*
X006044Y005265D01*
X005967Y005344D02*
X001107Y005344D01*
X001107Y005422D02*
X005935Y005422D01*
X005908Y005501D02*
X001107Y005501D01*
X001107Y005579D02*
X005908Y005579D01*
X005913Y005658D02*
X001107Y005658D01*
X001107Y005736D02*
X005945Y005736D01*
X005991Y005815D02*
X001107Y005815D01*
X001107Y005894D02*
X005918Y005894D01*
X005885Y005972D02*
X001107Y005972D01*
X001107Y006051D02*
X005858Y006051D01*
X005858Y006129D02*
X005363Y006129D01*
X005336Y006118D02*
X005483Y006179D01*
X005595Y006291D01*
X005655Y006437D01*
X005655Y006596D01*
X005595Y006743D01*
X005483Y006855D01*
X005336Y006915D01*
X005177Y006915D01*
X005031Y006855D01*
X004919Y006743D01*
X004858Y006596D01*
X004858Y006437D01*
X004919Y006291D01*
X005031Y006179D01*
X005177Y006118D01*
X005336Y006118D01*
X005150Y006129D02*
X001107Y006129D01*
X001107Y006208D02*
X005002Y006208D01*
X004923Y006286D02*
X001107Y006286D01*
X001107Y006365D02*
X004888Y006365D01*
X004858Y006443D02*
X001107Y006443D01*
X001107Y006522D02*
X004858Y006522D01*
X004860Y006600D02*
X001107Y006600D01*
X001107Y006679D02*
X004892Y006679D01*
X004934Y006758D02*
X001107Y006758D01*
X001107Y006836D02*
X005012Y006836D01*
X005175Y006915D02*
X001107Y006915D01*
X001107Y006993D02*
X013216Y006993D01*
X013231Y006979D02*
X013377Y006918D01*
X013536Y006918D01*
X013562Y006929D01*
X013619Y006791D01*
X013731Y006679D01*
X013877Y006618D01*
X014036Y006618D01*
X014183Y006679D01*
X014401Y006679D01*
X014427Y006668D02*
X014586Y006668D01*
X014733Y006729D01*
X014845Y006841D01*
X014896Y006964D01*
X014931Y006929D01*
X015077Y006868D01*
X015236Y006868D01*
X015383Y006929D01*
X015495Y007041D01*
X015555Y007187D01*
X015555Y007346D01*
X015505Y007467D01*
X015555Y007587D01*
X015555Y007746D01*
X015495Y007893D01*
X015383Y008005D01*
X015236Y008065D01*
X015077Y008065D01*
X014931Y008005D01*
X014819Y007893D01*
X014758Y007746D01*
X014758Y007587D01*
X014808Y007467D01*
X014768Y007370D01*
X014733Y007405D01*
X014586Y007465D01*
X014427Y007465D01*
X014281Y007405D01*
X014207Y007331D01*
X014183Y007355D01*
X014036Y007415D01*
X013877Y007415D01*
X013852Y007405D01*
X013795Y007543D01*
X013683Y007655D01*
X013536Y007715D01*
X013377Y007715D01*
X013231Y007655D01*
X013119Y007543D01*
X002397Y007543D01*
X002445Y007591D02*
X002505Y007737D01*
X002505Y007896D01*
X002445Y008043D01*
X002333Y008155D01*
X002186Y008215D01*
X002027Y008215D01*
X001881Y008155D01*
X001769Y008043D01*
X001708Y007896D01*
X001708Y007737D01*
X001769Y007591D01*
X001881Y007479D01*
X002027Y007418D01*
X002186Y007418D01*
X002333Y007479D01*
X002445Y007591D01*
X002457Y007621D02*
X013198Y007621D01*
X013119Y007543D02*
X013058Y007396D01*
X013058Y007237D01*
X013119Y007091D01*
X013231Y006979D01*
X013138Y007072D02*
X001107Y007072D01*
X001107Y007150D02*
X013094Y007150D01*
X013062Y007229D02*
X001107Y007229D01*
X001107Y007307D02*
X013058Y007307D01*
X013058Y007386D02*
X001107Y007386D01*
X001107Y007464D02*
X001915Y007464D01*
X001817Y007543D02*
X001107Y007543D01*
X001107Y007621D02*
X001756Y007621D01*
X001723Y007700D02*
X001107Y007700D01*
X001107Y007779D02*
X001708Y007779D01*
X001708Y007857D02*
X001107Y007857D01*
X001107Y007936D02*
X001724Y007936D01*
X001757Y008014D02*
X001107Y008014D01*
X001107Y008093D02*
X001819Y008093D01*
X001921Y008171D02*
X001107Y008171D01*
X001107Y008250D02*
X003744Y008250D01*
X003769Y008191D02*
X003881Y008079D01*
X004027Y008018D01*
X004186Y008018D01*
X004333Y008079D01*
X004445Y008191D01*
X004505Y008337D01*
X004505Y008496D01*
X004445Y008643D01*
X004333Y008755D01*
X004186Y008815D01*
X004027Y008815D01*
X003881Y008755D01*
X003769Y008643D01*
X003708Y008496D01*
X003708Y008337D01*
X003769Y008191D01*
X003788Y008171D02*
X002293Y008171D01*
X002395Y008093D02*
X003867Y008093D01*
X003712Y008328D02*
X001107Y008328D01*
X001107Y008407D02*
X003708Y008407D01*
X003708Y008485D02*
X001107Y008485D01*
X001107Y008564D02*
X003736Y008564D01*
X003769Y008643D02*
X001107Y008643D01*
X001107Y008721D02*
X003847Y008721D01*
X003989Y008800D02*
X001107Y008800D01*
X001107Y008878D02*
X005558Y008878D01*
X005558Y008896D02*
X005619Y009043D01*
X005731Y009155D01*
X005877Y009215D01*
X006036Y009215D01*
X006183Y009155D01*
X006295Y009043D01*
X006355Y008896D01*
X006355Y008737D01*
X006295Y008591D01*
X006183Y008479D01*
X006036Y008418D01*
X005877Y008418D01*
X005731Y008479D01*
X005619Y008591D01*
X005558Y008737D01*
X005558Y008896D01*
X005583Y008957D02*
X001107Y008957D01*
X001107Y009035D02*
X005616Y009035D01*
X005690Y009114D02*
X001107Y009114D01*
X001107Y009192D02*
X002230Y009192D01*
X002237Y009189D02*
X002411Y009189D01*
X002571Y009256D01*
X002694Y009379D01*
X002761Y009539D01*
X002761Y009713D01*
X002694Y009874D01*
X002571Y009997D01*
X002411Y010063D01*
X002237Y010063D01*
X002077Y009997D01*
X001954Y009874D01*
X001887Y009713D01*
X001887Y009539D01*
X001954Y009379D01*
X002077Y009256D01*
X002237Y009189D01*
X002418Y009192D02*
X005822Y009192D01*
X006092Y009192D02*
X010758Y009192D01*
X010758Y009187D02*
X010819Y009041D01*
X010931Y008929D01*
X011077Y008868D01*
X011236Y008868D01*
X011383Y008929D01*
X011495Y009041D01*
X011555Y009187D01*
X011555Y009346D01*
X011495Y009493D01*
X011383Y009605D01*
X011236Y009665D01*
X011077Y009665D01*
X010931Y009605D01*
X010819Y009493D01*
X010758Y009346D01*
X010758Y009187D01*
X010788Y009114D02*
X006223Y009114D01*
X006298Y009035D02*
X010824Y009035D01*
X010903Y008957D02*
X006330Y008957D01*
X006355Y008878D02*
X011053Y008878D01*
X011260Y008878D02*
X012413Y008878D01*
X012419Y008893D02*
X012358Y008746D01*
X012358Y008587D01*
X012419Y008441D01*
X012531Y008329D01*
X012677Y008268D01*
X012836Y008268D01*
X012983Y008329D01*
X013095Y008441D01*
X013155Y008587D01*
X013155Y008746D01*
X013095Y008893D01*
X012983Y009005D01*
X012836Y009065D01*
X012677Y009065D01*
X012531Y009005D01*
X012419Y008893D01*
X012483Y008957D02*
X011411Y008957D01*
X011489Y009035D02*
X012604Y009035D01*
X012909Y009035D02*
X013150Y009035D01*
X013169Y008991D02*
X013108Y009137D01*
X013108Y009296D01*
X013169Y009443D01*
X013281Y009555D01*
X013427Y009615D01*
X013586Y009615D01*
X013733Y009555D01*
X013845Y009443D01*
X013897Y009315D01*
X013936Y009315D01*
X014083Y009255D01*
X014195Y009143D01*
X014255Y008996D01*
X014255Y008837D01*
X014195Y008691D01*
X014083Y008579D01*
X013936Y008518D01*
X013777Y008518D01*
X013631Y008579D01*
X013519Y008691D01*
X013466Y008818D01*
X013427Y008818D01*
X013281Y008879D01*
X013169Y008991D01*
X013203Y008957D02*
X013031Y008957D01*
X013101Y008878D02*
X013282Y008878D01*
X013133Y008800D02*
X013474Y008800D01*
X013506Y008721D02*
X013155Y008721D01*
X013155Y008643D02*
X013567Y008643D01*
X013666Y008564D02*
X013146Y008564D01*
X013113Y008485D02*
X016662Y008485D01*
X016681Y008505D02*
X016569Y008393D01*
X016508Y008246D01*
X016508Y008087D01*
X016569Y007941D01*
X016681Y007829D01*
X016827Y007768D01*
X016986Y007768D01*
X017133Y007829D01*
X017245Y007941D01*
X017305Y008087D01*
X017305Y008246D01*
X017245Y008393D01*
X017133Y008505D01*
X016986Y008565D01*
X016827Y008565D01*
X016681Y008505D01*
X016583Y008407D02*
X013061Y008407D01*
X012982Y008328D02*
X016542Y008328D01*
X016510Y008250D02*
X004469Y008250D01*
X004502Y008328D02*
X012532Y008328D01*
X012453Y008407D02*
X004505Y008407D01*
X004505Y008485D02*
X005724Y008485D01*
X005646Y008564D02*
X004477Y008564D01*
X004445Y008643D02*
X005597Y008643D01*
X005565Y008721D02*
X004366Y008721D01*
X004224Y008800D02*
X005558Y008800D01*
X006189Y008485D02*
X012400Y008485D01*
X012368Y008564D02*
X006268Y008564D01*
X006316Y008643D02*
X012358Y008643D01*
X012358Y008721D02*
X006349Y008721D01*
X006355Y008800D02*
X012380Y008800D01*
X013118Y009114D02*
X011525Y009114D01*
X011555Y009192D02*
X013108Y009192D01*
X013108Y009271D02*
X011555Y009271D01*
X011554Y009349D02*
X013130Y009349D01*
X013163Y009428D02*
X011521Y009428D01*
X011481Y009507D02*
X013233Y009507D01*
X013354Y009585D02*
X011402Y009585D01*
X011240Y009664D02*
X016323Y009664D01*
X016327Y009665D02*
X016181Y009605D01*
X016069Y009493D01*
X016008Y009346D01*
X016008Y009187D01*
X016069Y009041D01*
X016181Y008929D01*
X016327Y008868D01*
X016486Y008868D01*
X016633Y008929D01*
X016667Y008964D01*
X016777Y008918D01*
X016936Y008918D01*
X016940Y008920D01*
X017031Y008829D01*
X017177Y008768D01*
X017336Y008768D01*
X017483Y008829D01*
X017595Y008941D01*
X017655Y009087D01*
X017655Y009246D01*
X017595Y009393D01*
X017483Y009505D01*
X017336Y009565D01*
X017177Y009565D01*
X017173Y009564D01*
X017083Y009655D01*
X016936Y009715D01*
X016777Y009715D01*
X016631Y009655D01*
X016596Y009620D01*
X016486Y009665D01*
X016327Y009665D01*
X016490Y009664D02*
X016652Y009664D01*
X017061Y009664D02*
X017796Y009664D01*
X017769Y009691D02*
X017881Y009579D01*
X018027Y009518D01*
X018186Y009518D01*
X018333Y009579D01*
X018445Y009691D01*
X018505Y009837D01*
X018505Y009996D01*
X018445Y010143D01*
X018333Y010255D01*
X018186Y010315D01*
X018027Y010315D01*
X017881Y010255D01*
X017769Y010143D01*
X017708Y009996D01*
X017708Y009837D01*
X017769Y009691D01*
X017747Y009742D02*
X009444Y009742D01*
X009386Y009718D02*
X009533Y009779D01*
X009645Y009891D01*
X009705Y010037D01*
X009705Y010196D01*
X009645Y010343D01*
X009533Y010455D01*
X009386Y010515D01*
X009227Y010515D01*
X009081Y010455D01*
X008969Y010343D01*
X008908Y010196D01*
X008908Y010037D01*
X008969Y009891D01*
X009081Y009779D01*
X009227Y009718D01*
X009386Y009718D01*
X009574Y009821D02*
X017715Y009821D01*
X017708Y009899D02*
X009648Y009899D01*
X009681Y009978D02*
X017708Y009978D01*
X017733Y010056D02*
X009705Y010056D01*
X009705Y010135D02*
X017765Y010135D01*
X017839Y010213D02*
X009698Y010213D01*
X009666Y010292D02*
X017971Y010292D01*
X018243Y010292D02*
X021118Y010292D01*
X021131Y010305D02*
X021019Y010193D01*
X020958Y010046D01*
X020958Y009887D01*
X021019Y009741D01*
X021131Y009629D01*
X021277Y009568D01*
X021436Y009568D01*
X021583Y009629D01*
X021695Y009741D01*
X021755Y009887D01*
X021755Y009998D01*
X021827Y009968D01*
X021986Y009968D01*
X022133Y010029D01*
X022207Y010103D01*
X022281Y010029D01*
X022427Y009968D01*
X022586Y009968D01*
X022733Y010029D01*
X022782Y010078D01*
X022927Y010018D01*
X023086Y010018D01*
X023233Y010079D01*
X023345Y010191D01*
X023405Y010337D01*
X023405Y010496D01*
X023345Y010643D01*
X023233Y010755D01*
X023086Y010815D01*
X022927Y010815D01*
X022781Y010755D01*
X022731Y010705D01*
X022586Y010765D01*
X022427Y010765D01*
X022281Y010705D01*
X022207Y010631D01*
X022133Y010705D01*
X021986Y010765D01*
X021827Y010765D01*
X021681Y010705D01*
X021569Y010593D01*
X021508Y010446D01*
X021508Y010336D01*
X021436Y010365D01*
X021277Y010365D01*
X021131Y010305D01*
X021039Y010213D02*
X018374Y010213D01*
X018448Y010135D02*
X020995Y010135D01*
X020962Y010056D02*
X018480Y010056D01*
X018505Y009978D02*
X020958Y009978D01*
X020958Y009899D02*
X018505Y009899D01*
X018498Y009821D02*
X020986Y009821D01*
X021018Y009742D02*
X018466Y009742D01*
X018417Y009664D02*
X021096Y009664D01*
X021236Y009585D02*
X018339Y009585D01*
X017874Y009585D02*
X017152Y009585D01*
X017478Y009507D02*
X023853Y009507D01*
X023819Y009541D02*
X023931Y009429D01*
X024077Y009368D01*
X024236Y009368D01*
X024383Y009429D01*
X024495Y009541D01*
X024555Y009687D01*
X024555Y009846D01*
X024495Y009993D01*
X024383Y010105D01*
X024236Y010165D01*
X024077Y010165D01*
X023931Y010105D01*
X023819Y009993D01*
X023758Y009846D01*
X023758Y009687D01*
X023819Y009541D01*
X023800Y009585D02*
X021477Y009585D01*
X021617Y009664D02*
X023768Y009664D01*
X023758Y009742D02*
X021695Y009742D01*
X021728Y009821D02*
X023758Y009821D01*
X023780Y009899D02*
X021755Y009899D01*
X021755Y009978D02*
X021804Y009978D01*
X022010Y009978D02*
X022404Y009978D01*
X022253Y010056D02*
X022160Y010056D01*
X022610Y009978D02*
X023813Y009978D01*
X023882Y010056D02*
X023178Y010056D01*
X023289Y010135D02*
X024004Y010135D01*
X024310Y010135D02*
X025175Y010135D01*
X025181Y010129D02*
X025327Y010068D01*
X025486Y010068D01*
X025633Y010129D01*
X025662Y010158D01*
X025669Y010141D01*
X025781Y010029D01*
X025927Y009968D01*
X026086Y009968D01*
X026233Y010029D01*
X026345Y010141D01*
X026400Y010274D01*
X026533Y010329D01*
X026645Y010441D01*
X026705Y010587D01*
X026705Y010746D01*
X026645Y010893D01*
X026533Y011005D01*
X026386Y011065D01*
X026227Y011065D01*
X026081Y011005D01*
X025969Y010893D01*
X025914Y010760D01*
X025781Y010705D01*
X025752Y010676D01*
X025745Y010693D01*
X025633Y010805D01*
X025486Y010865D01*
X025327Y010865D01*
X025181Y010805D01*
X025069Y010693D01*
X025008Y010546D01*
X025008Y010387D01*
X025069Y010241D01*
X025181Y010129D01*
X025096Y010213D02*
X023354Y010213D01*
X023387Y010292D02*
X025047Y010292D01*
X025015Y010371D02*
X023405Y010371D01*
X023405Y010449D02*
X025008Y010449D01*
X025008Y010528D02*
X023392Y010528D01*
X023360Y010606D02*
X025033Y010606D01*
X025065Y010685D02*
X023303Y010685D01*
X023212Y010763D02*
X025139Y010763D01*
X025270Y010842D02*
X013516Y010842D01*
X013495Y010791D02*
X013555Y010937D01*
X013555Y011096D01*
X013495Y011243D01*
X013383Y011355D01*
X013236Y011415D01*
X013077Y011415D01*
X012931Y011355D01*
X012819Y011243D01*
X012812Y011226D01*
X012783Y011255D01*
X012636Y011315D01*
X012477Y011315D01*
X012331Y011255D01*
X012219Y011143D01*
X012158Y010996D01*
X012158Y010837D01*
X012219Y010691D01*
X012331Y010579D01*
X012477Y010518D01*
X012636Y010518D01*
X012783Y010579D01*
X012895Y010691D01*
X012902Y010708D01*
X012931Y010679D01*
X013077Y010618D01*
X013236Y010618D01*
X013383Y010679D01*
X013495Y010791D01*
X013467Y010763D02*
X021822Y010763D01*
X021991Y010763D02*
X022422Y010763D01*
X022591Y010763D02*
X022801Y010763D01*
X022261Y010685D02*
X022153Y010685D01*
X021661Y010685D02*
X013388Y010685D01*
X012925Y010685D02*
X012888Y010685D01*
X012810Y010606D02*
X021582Y010606D01*
X021542Y010528D02*
X012659Y010528D01*
X012454Y010528D02*
X010280Y010528D01*
X010283Y010529D02*
X010395Y010641D01*
X010455Y010787D01*
X010455Y010946D01*
X010395Y011093D01*
X010283Y011205D01*
X010136Y011265D01*
X009977Y011265D01*
X009831Y011205D01*
X009719Y011093D01*
X009658Y010946D01*
X009658Y010787D01*
X009719Y010641D01*
X009831Y010529D01*
X009977Y010468D01*
X010136Y010468D01*
X010283Y010529D01*
X010360Y010606D02*
X012303Y010606D01*
X012225Y010685D02*
X010413Y010685D01*
X010445Y010763D02*
X012189Y010763D01*
X012158Y010842D02*
X010455Y010842D01*
X010455Y010920D02*
X012158Y010920D01*
X012159Y010999D02*
X010434Y010999D01*
X010401Y011077D02*
X012192Y011077D01*
X012232Y011156D02*
X010331Y011156D01*
X010211Y011234D02*
X012311Y011234D01*
X012471Y011313D02*
X009705Y011313D01*
X009705Y011346D02*
X009645Y011493D01*
X009533Y011605D01*
X009386Y011665D01*
X009227Y011665D01*
X009081Y011605D01*
X008969Y011493D01*
X008908Y011346D01*
X008908Y011187D01*
X008969Y011041D01*
X009081Y010929D01*
X009227Y010868D01*
X009386Y010868D01*
X009533Y010929D01*
X009645Y011041D01*
X009705Y011187D01*
X009705Y011346D01*
X009687Y011392D02*
X013020Y011392D01*
X012889Y011313D02*
X012642Y011313D01*
X012803Y011234D02*
X012815Y011234D01*
X013294Y011392D02*
X017677Y011392D01*
X017658Y011437D02*
X017719Y011291D01*
X017831Y011179D01*
X017977Y011118D01*
X018136Y011118D01*
X018283Y011179D01*
X018395Y011291D01*
X018455Y011437D01*
X018455Y011596D01*
X018395Y011743D01*
X018296Y011842D01*
X018345Y011891D01*
X018405Y012037D01*
X018405Y012196D01*
X018345Y012343D01*
X018233Y012455D01*
X018086Y012515D01*
X017927Y012515D01*
X017781Y012455D01*
X017669Y012343D01*
X017608Y012196D01*
X017608Y012037D01*
X017669Y011891D01*
X017768Y011792D01*
X017719Y011743D01*
X017658Y011596D01*
X017658Y011437D01*
X017658Y011470D02*
X010791Y011470D01*
X010786Y011468D02*
X010933Y011529D01*
X011045Y011641D01*
X011105Y011787D01*
X011105Y011946D01*
X011045Y012093D01*
X010933Y012205D01*
X010786Y012265D01*
X010627Y012265D01*
X010481Y012205D01*
X010369Y012093D01*
X010308Y011946D01*
X010308Y011787D01*
X010369Y011641D01*
X010481Y011529D01*
X010627Y011468D01*
X010786Y011468D01*
X010622Y011470D02*
X009654Y011470D01*
X009589Y011549D02*
X010461Y011549D01*
X010382Y011627D02*
X009478Y011627D01*
X009135Y011627D02*
X006955Y011627D01*
X006955Y011696D02*
X006895Y011843D01*
X006783Y011955D01*
X006636Y012015D01*
X006477Y012015D01*
X006331Y011955D01*
X006219Y011843D01*
X006158Y011696D01*
X006158Y011537D01*
X006219Y011391D01*
X006268Y011342D01*
X006169Y011243D01*
X006108Y011096D01*
X006108Y010937D01*
X006169Y010791D01*
X006281Y010679D01*
X006427Y010618D01*
X006586Y010618D01*
X006732Y010678D01*
X006877Y010618D01*
X007036Y010618D01*
X007183Y010679D01*
X007295Y010791D01*
X007355Y010937D01*
X007355Y011096D01*
X007295Y011243D01*
X007183Y011355D01*
X007036Y011415D01*
X006905Y011415D01*
X006955Y011537D01*
X006955Y011696D01*
X006951Y011706D02*
X010342Y011706D01*
X010309Y011784D02*
X006919Y011784D01*
X006874Y011863D02*
X010308Y011863D01*
X010308Y011941D02*
X006796Y011941D01*
X006955Y011549D02*
X009025Y011549D01*
X008959Y011470D02*
X006927Y011470D01*
X007094Y011392D02*
X008320Y011392D01*
X008377Y011415D02*
X008231Y011355D01*
X008119Y011243D01*
X008058Y011096D01*
X008058Y010937D01*
X008119Y010791D01*
X008231Y010679D01*
X008377Y010618D01*
X008536Y010618D01*
X008683Y010679D01*
X008795Y010791D01*
X008855Y010937D01*
X008855Y011096D01*
X008795Y011243D01*
X008683Y011355D01*
X008536Y011415D01*
X008377Y011415D01*
X008189Y011313D02*
X007224Y011313D01*
X007298Y011234D02*
X008115Y011234D01*
X008083Y011156D02*
X007331Y011156D01*
X007355Y011077D02*
X008058Y011077D01*
X008058Y010999D02*
X007355Y010999D01*
X007348Y010920D02*
X008065Y010920D01*
X008098Y010842D02*
X007316Y010842D01*
X007267Y010763D02*
X008146Y010763D01*
X008225Y010685D02*
X007188Y010685D01*
X006275Y010685D02*
X002746Y010685D01*
X002761Y010720D02*
X002761Y010894D01*
X002694Y011055D01*
X002571Y011178D01*
X002411Y011244D01*
X002237Y011244D01*
X002077Y011178D01*
X001954Y011055D01*
X001887Y010894D01*
X001887Y010720D01*
X001954Y010560D01*
X002077Y010437D01*
X002237Y010370D01*
X002411Y010370D01*
X002571Y010437D01*
X002694Y010560D01*
X002761Y010720D01*
X002761Y010763D02*
X006196Y010763D01*
X006148Y010842D02*
X004196Y010842D01*
X004183Y010829D02*
X004295Y010941D01*
X004355Y011087D01*
X004355Y011246D01*
X004295Y011393D01*
X004183Y011505D01*
X004036Y011565D01*
X003877Y011565D01*
X003731Y011505D01*
X003619Y011393D01*
X003558Y011246D01*
X003558Y011087D01*
X003619Y010941D01*
X003731Y010829D01*
X003877Y010768D01*
X004036Y010768D01*
X004183Y010829D01*
X004274Y010920D02*
X006115Y010920D01*
X006108Y010999D02*
X004319Y010999D01*
X004351Y011077D02*
X006108Y011077D01*
X006133Y011156D02*
X004355Y011156D01*
X004355Y011234D02*
X006165Y011234D01*
X006239Y011313D02*
X004328Y011313D01*
X004295Y011392D02*
X006218Y011392D01*
X006186Y011470D02*
X004217Y011470D01*
X004077Y011549D02*
X006158Y011549D01*
X006158Y011627D02*
X001107Y011627D01*
X001107Y011549D02*
X003837Y011549D01*
X003696Y011470D02*
X001107Y011470D01*
X001107Y011392D02*
X003618Y011392D01*
X003586Y011313D02*
X001107Y011313D01*
X001107Y011234D02*
X002214Y011234D01*
X002055Y011156D02*
X001107Y011156D01*
X001107Y011077D02*
X001976Y011077D01*
X001931Y010999D02*
X001107Y010999D01*
X001107Y010920D02*
X001898Y010920D01*
X001887Y010842D02*
X001107Y010842D01*
X001107Y010763D02*
X001887Y010763D01*
X001902Y010685D02*
X001107Y010685D01*
X001107Y010606D02*
X001934Y010606D01*
X001986Y010528D02*
X001107Y010528D01*
X001107Y010449D02*
X002064Y010449D01*
X002237Y010371D02*
X001107Y010371D01*
X001107Y010292D02*
X004068Y010292D01*
X004069Y010293D02*
X004008Y010146D01*
X004008Y009987D01*
X004069Y009841D01*
X004181Y009729D01*
X004327Y009668D01*
X004486Y009668D01*
X004633Y009729D01*
X004745Y009841D01*
X004805Y009987D01*
X004805Y010146D01*
X004745Y010293D01*
X004633Y010405D01*
X004486Y010465D01*
X004327Y010465D01*
X004181Y010405D01*
X004069Y010293D01*
X004036Y010213D02*
X001107Y010213D01*
X001107Y010135D02*
X004008Y010135D01*
X004008Y010056D02*
X002427Y010056D01*
X002590Y009978D02*
X004012Y009978D01*
X004044Y009899D02*
X002669Y009899D01*
X002716Y009821D02*
X004089Y009821D01*
X004167Y009742D02*
X002749Y009742D01*
X002761Y009664D02*
X008058Y009664D01*
X008058Y009587D02*
X008119Y009441D01*
X008231Y009329D01*
X008377Y009268D01*
X008536Y009268D01*
X008683Y009329D01*
X008795Y009441D01*
X008855Y009587D01*
X008855Y009746D01*
X008795Y009893D01*
X008683Y010005D01*
X008536Y010065D01*
X008377Y010065D01*
X008231Y010005D01*
X008119Y009893D01*
X008058Y009746D01*
X008058Y009587D01*
X008059Y009585D02*
X002761Y009585D01*
X002747Y009507D02*
X008091Y009507D01*
X008132Y009428D02*
X002715Y009428D01*
X002665Y009349D02*
X008210Y009349D01*
X008370Y009271D02*
X002586Y009271D01*
X002061Y009271D02*
X001107Y009271D01*
X001107Y009349D02*
X001983Y009349D01*
X001933Y009428D02*
X001107Y009428D01*
X001107Y009507D02*
X001901Y009507D01*
X001887Y009585D02*
X001107Y009585D01*
X001107Y009664D02*
X001887Y009664D01*
X001899Y009742D02*
X001107Y009742D01*
X001107Y009821D02*
X001932Y009821D01*
X001979Y009899D02*
X001107Y009899D01*
X001107Y009978D02*
X002058Y009978D01*
X002221Y010056D02*
X001107Y010056D01*
X002411Y010371D02*
X004147Y010371D01*
X004288Y010449D02*
X002584Y010449D01*
X002662Y010528D02*
X009834Y010528D01*
X009753Y010606D02*
X002714Y010606D01*
X002761Y010842D02*
X003718Y010842D01*
X003639Y010920D02*
X002750Y010920D01*
X002718Y010999D02*
X003595Y010999D01*
X003562Y011077D02*
X002672Y011077D01*
X002593Y011156D02*
X003558Y011156D01*
X003558Y011234D02*
X002434Y011234D01*
X001107Y011706D02*
X006162Y011706D01*
X006195Y011784D02*
X001107Y011784D01*
X001107Y011863D02*
X006239Y011863D01*
X006317Y011941D02*
X001107Y011941D01*
X001107Y012020D02*
X010339Y012020D01*
X010375Y012098D02*
X001107Y012098D01*
X001107Y012177D02*
X010453Y012177D01*
X010603Y012256D02*
X001107Y012256D01*
X001107Y012334D02*
X012425Y012334D01*
X012481Y012279D02*
X012369Y012391D01*
X012308Y012537D01*
X012308Y012696D01*
X012369Y012843D01*
X012481Y012955D01*
X012627Y013015D01*
X012786Y013015D01*
X012933Y012955D01*
X012957Y012931D01*
X013031Y013005D01*
X013177Y013065D01*
X013336Y013065D01*
X013483Y013005D01*
X013595Y012893D01*
X013655Y012746D01*
X013655Y012587D01*
X013595Y012441D01*
X013483Y012329D01*
X013336Y012268D01*
X013177Y012268D01*
X013031Y012329D01*
X013007Y012353D01*
X012933Y012279D01*
X012786Y012218D01*
X012627Y012218D01*
X012481Y012279D01*
X012537Y012256D02*
X010810Y012256D01*
X010960Y012177D02*
X013612Y012177D01*
X013619Y012193D02*
X013558Y012046D01*
X013558Y011887D01*
X013619Y011741D01*
X013731Y011629D01*
X013877Y011568D01*
X014036Y011568D01*
X014183Y011629D01*
X014295Y011741D01*
X014355Y011887D01*
X014355Y012046D01*
X014295Y012193D01*
X014183Y012305D01*
X014036Y012365D01*
X013877Y012365D01*
X013731Y012305D01*
X013619Y012193D01*
X013682Y012256D02*
X012877Y012256D01*
X012988Y012334D02*
X013025Y012334D01*
X013488Y012334D02*
X013802Y012334D01*
X013881Y012529D02*
X013769Y012641D01*
X013708Y012787D01*
X013708Y012946D01*
X013769Y013093D01*
X013881Y013205D01*
X014027Y013265D01*
X014186Y013265D01*
X014333Y013205D01*
X014445Y013093D01*
X014505Y012946D01*
X014505Y012787D01*
X014445Y012641D01*
X014333Y012529D01*
X014186Y012468D01*
X014027Y012468D01*
X013881Y012529D01*
X013840Y012570D02*
X013648Y012570D01*
X013655Y012648D02*
X013766Y012648D01*
X013733Y012727D02*
X013655Y012727D01*
X013631Y012805D02*
X013708Y012805D01*
X013708Y012884D02*
X013598Y012884D01*
X013525Y012962D02*
X013715Y012962D01*
X013747Y013041D02*
X013395Y013041D01*
X013118Y013041D02*
X006096Y013041D01*
X006145Y012993D02*
X006033Y013105D01*
X005886Y013165D01*
X005727Y013165D01*
X005581Y013105D01*
X005469Y012993D01*
X005408Y012846D01*
X005408Y012687D01*
X005469Y012541D01*
X005581Y012429D01*
X005727Y012368D01*
X005886Y012368D01*
X006033Y012429D01*
X006145Y012541D01*
X006205Y012687D01*
X006205Y012846D01*
X006145Y012993D01*
X006157Y012962D02*
X012499Y012962D01*
X012410Y012884D02*
X006190Y012884D01*
X006205Y012805D02*
X012353Y012805D01*
X012321Y012727D02*
X006205Y012727D01*
X006189Y012648D02*
X012308Y012648D01*
X012308Y012570D02*
X006157Y012570D01*
X006095Y012491D02*
X012327Y012491D01*
X012360Y012413D02*
X005994Y012413D01*
X005620Y012413D02*
X001107Y012413D01*
X001107Y012491D02*
X005518Y012491D01*
X005457Y012570D02*
X001107Y012570D01*
X001107Y012648D02*
X001154Y012648D01*
X001459Y012648D02*
X005424Y012648D01*
X005408Y012727D02*
X001581Y012727D01*
X001651Y012805D02*
X005408Y012805D01*
X005424Y012884D02*
X001683Y012884D01*
X001705Y012962D02*
X005456Y012962D01*
X005517Y013041D02*
X001705Y013041D01*
X001696Y013120D02*
X005616Y013120D01*
X005997Y013120D02*
X013796Y013120D01*
X013874Y013198D02*
X011108Y013198D01*
X011036Y013168D02*
X011183Y013229D01*
X011295Y013341D01*
X011355Y013487D01*
X011355Y013646D01*
X011295Y013793D01*
X011183Y013905D01*
X011036Y013965D01*
X010877Y013965D01*
X010731Y013905D01*
X010705Y013879D01*
X010705Y013896D01*
X010645Y014043D01*
X010533Y014155D01*
X010386Y014215D01*
X010227Y014215D01*
X010081Y014155D01*
X009969Y014043D01*
X009908Y013896D01*
X009908Y013737D01*
X009969Y013591D01*
X008245Y013591D01*
X008233Y013579D02*
X008345Y013691D01*
X008405Y013837D01*
X008405Y013996D01*
X008345Y014143D01*
X008233Y014255D01*
X008086Y014315D01*
X007927Y014315D01*
X007781Y014255D01*
X007732Y014206D01*
X007683Y014255D01*
X007536Y014315D01*
X007377Y014315D01*
X007231Y014255D01*
X007119Y014143D01*
X007058Y013996D01*
X007058Y013837D01*
X007119Y013691D01*
X007231Y013579D01*
X007377Y013518D01*
X007536Y013518D01*
X007683Y013579D01*
X007732Y013628D01*
X007781Y013579D01*
X007927Y013518D01*
X008086Y013518D01*
X008233Y013579D01*
X008323Y013669D02*
X009936Y013669D01*
X009908Y013748D02*
X008368Y013748D01*
X008401Y013826D02*
X009908Y013826D01*
X009912Y013905D02*
X008405Y013905D01*
X008405Y013984D02*
X009944Y013984D01*
X009988Y014062D02*
X008378Y014062D01*
X008346Y014141D02*
X010067Y014141D01*
X010547Y014141D02*
X011023Y014141D01*
X011077Y014118D02*
X011236Y014118D01*
X011383Y014179D01*
X011495Y014291D01*
X011555Y014437D01*
X011555Y014596D01*
X011495Y014743D01*
X011383Y014855D01*
X011236Y014915D01*
X011077Y014915D01*
X010931Y014855D01*
X010819Y014743D01*
X010758Y014596D01*
X010758Y014437D01*
X010819Y014291D01*
X010931Y014179D01*
X011077Y014118D01*
X010890Y014219D02*
X008268Y014219D01*
X008129Y014298D02*
X010816Y014298D01*
X010783Y014376D02*
X001107Y014376D01*
X001107Y014298D02*
X007334Y014298D01*
X007195Y014219D02*
X001107Y014219D01*
X001107Y014141D02*
X005117Y014141D01*
X005131Y014155D02*
X005019Y014043D01*
X004958Y013896D01*
X004958Y013737D01*
X005019Y013591D01*
X001107Y013591D01*
X001107Y013669D02*
X004986Y013669D01*
X004958Y013748D02*
X001107Y013748D01*
X001107Y013826D02*
X004958Y013826D01*
X004962Y013905D02*
X001107Y013905D01*
X001107Y013984D02*
X004994Y013984D01*
X005038Y014062D02*
X001107Y014062D01*
X001107Y014455D02*
X010758Y014455D01*
X010758Y014533D02*
X005187Y014533D01*
X005183Y014529D02*
X005295Y014641D01*
X005355Y014787D01*
X005355Y014946D01*
X005295Y015093D01*
X005183Y015205D01*
X005036Y015265D01*
X004877Y015265D01*
X004731Y015205D01*
X004652Y015126D01*
X004645Y015143D01*
X004533Y015255D01*
X004386Y015315D01*
X004227Y015315D01*
X004081Y015255D01*
X004007Y015181D01*
X003933Y015255D01*
X003786Y015315D01*
X003627Y015315D01*
X003481Y015255D01*
X003382Y015156D01*
X003283Y015255D01*
X003136Y015315D01*
X002977Y015315D01*
X002831Y015255D01*
X002719Y015143D01*
X002658Y014996D01*
X002658Y014837D01*
X002719Y014691D01*
X002831Y014579D01*
X002977Y014518D01*
X003136Y014518D01*
X003283Y014579D01*
X003382Y014678D01*
X003481Y014579D01*
X003627Y014518D01*
X003786Y014518D01*
X003933Y014579D01*
X004007Y014653D01*
X004081Y014579D01*
X004227Y014518D01*
X004386Y014518D01*
X004533Y014579D01*
X004612Y014658D01*
X004619Y014641D01*
X004731Y014529D01*
X004877Y014468D01*
X005036Y014468D01*
X005183Y014529D01*
X005266Y014612D02*
X010765Y014612D01*
X010797Y014690D02*
X008490Y014690D01*
X008436Y014668D02*
X008583Y014729D01*
X008695Y014841D01*
X008755Y014987D01*
X008755Y015146D01*
X008695Y015293D01*
X008583Y015405D01*
X008436Y015465D01*
X008277Y015465D01*
X008131Y015405D01*
X008032Y015306D01*
X007933Y015405D01*
X007786Y015465D01*
X007705Y015465D01*
X007705Y015596D01*
X007645Y015743D01*
X007533Y015855D01*
X007386Y015915D01*
X007227Y015915D01*
X007081Y015855D01*
X006969Y015743D01*
X006908Y015596D01*
X006908Y015437D01*
X006969Y015291D01*
X007081Y015179D01*
X007227Y015118D01*
X007308Y015118D01*
X007308Y014987D01*
X007369Y014841D01*
X007481Y014729D01*
X007627Y014668D01*
X007786Y014668D01*
X007933Y014729D01*
X008032Y014828D01*
X008131Y014729D01*
X008277Y014668D01*
X008436Y014668D01*
X008623Y014769D02*
X010845Y014769D01*
X010924Y014847D02*
X008697Y014847D01*
X008730Y014926D02*
X011591Y014926D01*
X011619Y014993D02*
X011558Y014846D01*
X011558Y014687D01*
X011619Y014541D01*
X011731Y014429D01*
X011877Y014368D01*
X012036Y014368D01*
X012183Y014429D01*
X012295Y014541D01*
X012355Y014687D01*
X012355Y014846D01*
X012295Y014993D01*
X012183Y015105D01*
X012036Y015165D01*
X011877Y015165D01*
X011731Y015105D01*
X011619Y014993D01*
X011631Y015005D02*
X008755Y015005D01*
X008755Y015083D02*
X011709Y015083D01*
X011774Y015240D02*
X008716Y015240D01*
X008749Y015162D02*
X011868Y015162D01*
X011827Y015218D02*
X011986Y015218D01*
X012133Y015279D01*
X012245Y015391D01*
X012305Y015537D01*
X012305Y015696D01*
X012245Y015843D01*
X012133Y015955D01*
X011986Y016015D01*
X011827Y016015D01*
X011681Y015955D01*
X011569Y015843D01*
X011508Y015696D01*
X011508Y015537D01*
X011569Y015391D01*
X011681Y015279D01*
X011827Y015218D01*
X011641Y015319D02*
X009758Y015319D01*
X009783Y015329D02*
X009636Y015268D01*
X009477Y015268D01*
X009331Y015329D01*
X009219Y015441D01*
X009158Y015587D01*
X009158Y015746D01*
X009219Y015893D01*
X009331Y016005D01*
X009477Y016065D01*
X009636Y016065D01*
X009783Y016005D01*
X009895Y015893D01*
X009955Y015746D01*
X009955Y015587D01*
X009895Y015441D01*
X009783Y015329D01*
X009851Y015397D02*
X011566Y015397D01*
X011533Y015476D02*
X009909Y015476D01*
X009942Y015554D02*
X011508Y015554D01*
X011508Y015633D02*
X009955Y015633D01*
X009955Y015711D02*
X011514Y015711D01*
X011547Y015790D02*
X009937Y015790D01*
X009905Y015869D02*
X011595Y015869D01*
X011673Y015947D02*
X009840Y015947D01*
X009732Y016026D02*
X016908Y016026D01*
X016908Y016046D02*
X016908Y015887D01*
X016969Y015741D01*
X017081Y015629D01*
X017227Y015568D01*
X017386Y015568D01*
X017533Y015629D01*
X017645Y015741D01*
X017705Y015887D01*
X017705Y016046D01*
X017645Y016193D01*
X017533Y016305D01*
X017386Y016365D01*
X017227Y016365D01*
X017081Y016305D01*
X016969Y016193D01*
X016908Y016046D01*
X016932Y016104D02*
X009155Y016104D01*
X009155Y016087D02*
X009155Y016246D01*
X009095Y016393D01*
X008983Y016505D01*
X008836Y016565D01*
X008677Y016565D01*
X008673Y016564D01*
X008583Y016655D01*
X008436Y016715D01*
X008277Y016715D01*
X008157Y016665D01*
X008036Y016715D01*
X007877Y016715D01*
X007731Y016655D01*
X007619Y016543D01*
X007558Y016396D01*
X007558Y016237D01*
X007619Y016091D01*
X007731Y015979D01*
X007877Y015918D01*
X008036Y015918D01*
X008157Y015968D01*
X008277Y015918D01*
X008436Y015918D01*
X008440Y015920D01*
X008531Y015829D01*
X008677Y015768D01*
X008836Y015768D01*
X008983Y015829D01*
X009095Y015941D01*
X009155Y016087D01*
X009130Y016026D02*
X009381Y016026D01*
X009273Y015947D02*
X009097Y015947D01*
X009022Y015869D02*
X009209Y015869D01*
X009176Y015790D02*
X008889Y015790D01*
X008624Y015790D02*
X007597Y015790D01*
X007658Y015711D02*
X009158Y015711D01*
X009158Y015633D02*
X007690Y015633D01*
X007705Y015554D02*
X009172Y015554D01*
X009204Y015476D02*
X007705Y015476D01*
X007940Y015397D02*
X008123Y015397D01*
X008045Y015319D02*
X008019Y015319D01*
X007973Y014769D02*
X008091Y014769D01*
X008223Y014690D02*
X007840Y014690D01*
X007573Y014690D02*
X005315Y014690D01*
X005348Y014769D02*
X007441Y014769D01*
X007366Y014847D02*
X005355Y014847D01*
X005355Y014926D02*
X007333Y014926D01*
X007308Y015005D02*
X005331Y015005D01*
X005299Y015083D02*
X007308Y015083D01*
X007122Y015162D02*
X005226Y015162D01*
X005097Y015240D02*
X007019Y015240D01*
X006957Y015319D02*
X001999Y015319D01*
X002033Y015305D02*
X001886Y015365D01*
X001727Y015365D01*
X001581Y015305D01*
X001469Y015193D01*
X001408Y015046D01*
X001408Y014887D01*
X001469Y014741D01*
X001581Y014629D01*
X001727Y014568D01*
X001886Y014568D01*
X002033Y014629D01*
X002145Y014741D01*
X002205Y014887D01*
X002205Y015046D01*
X002145Y015193D01*
X002033Y015305D01*
X002097Y015240D02*
X002816Y015240D01*
X002738Y015162D02*
X002158Y015162D01*
X002190Y015083D02*
X002694Y015083D01*
X002661Y015005D02*
X002205Y015005D01*
X002205Y014926D02*
X002658Y014926D01*
X002658Y014847D02*
X002189Y014847D01*
X002156Y014769D02*
X002686Y014769D01*
X002719Y014690D02*
X002094Y014690D01*
X001992Y014612D02*
X002798Y014612D01*
X002940Y014533D02*
X001107Y014533D01*
X001107Y014612D02*
X001622Y014612D01*
X001519Y014690D02*
X001107Y014690D01*
X001107Y014769D02*
X001457Y014769D01*
X001424Y014847D02*
X001107Y014847D01*
X001107Y014926D02*
X001408Y014926D01*
X001408Y015005D02*
X001107Y015005D01*
X001107Y015083D02*
X001423Y015083D01*
X001456Y015162D02*
X001107Y015162D01*
X001107Y015240D02*
X001516Y015240D01*
X001615Y015319D02*
X001107Y015319D01*
X001107Y015397D02*
X005057Y015397D01*
X005127Y015368D02*
X004981Y015429D01*
X004869Y015541D01*
X004808Y015687D01*
X004808Y015846D01*
X004869Y015993D01*
X004981Y016105D01*
X005127Y016165D01*
X005286Y016165D01*
X005433Y016105D01*
X005545Y015993D01*
X005605Y015846D01*
X005605Y015687D01*
X005545Y015541D01*
X005433Y015429D01*
X005286Y015368D01*
X005127Y015368D01*
X004934Y015476D02*
X001107Y015476D01*
X001107Y015554D02*
X004863Y015554D01*
X004831Y015633D02*
X001107Y015633D01*
X001107Y015711D02*
X004808Y015711D01*
X004808Y015790D02*
X001107Y015790D01*
X001107Y015869D02*
X004817Y015869D01*
X004850Y015947D02*
X001107Y015947D01*
X001107Y016026D02*
X004902Y016026D01*
X004980Y016104D02*
X001107Y016104D01*
X001107Y016183D02*
X005631Y016183D01*
X005608Y016237D02*
X005669Y016091D01*
X005781Y015979D01*
X005927Y015918D01*
X006086Y015918D01*
X006208Y015969D01*
X006208Y015887D01*
X006269Y015741D01*
X006381Y015629D01*
X006527Y015568D01*
X006686Y015568D01*
X006833Y015629D01*
X006945Y015741D01*
X007005Y015887D01*
X007005Y016046D01*
X006945Y016193D01*
X006833Y016305D01*
X006686Y016365D01*
X006527Y016365D01*
X006405Y016315D01*
X006405Y016396D01*
X006345Y016543D01*
X006233Y016655D01*
X006086Y016715D01*
X005927Y016715D01*
X005781Y016655D01*
X005669Y016543D01*
X005608Y016396D01*
X005608Y016237D01*
X005608Y016261D02*
X001107Y016261D01*
X001107Y016340D02*
X005608Y016340D01*
X005617Y016418D02*
X005507Y016418D01*
X005533Y016429D02*
X005645Y016541D01*
X005705Y016687D01*
X005705Y016846D01*
X005645Y016993D01*
X005533Y017105D01*
X005386Y017165D01*
X005227Y017165D01*
X005081Y017105D01*
X004969Y016993D01*
X004908Y016846D01*
X004908Y016687D01*
X004969Y016541D01*
X005081Y016429D01*
X005227Y016368D01*
X005386Y016368D01*
X005533Y016429D01*
X005601Y016497D02*
X005650Y016497D01*
X005659Y016575D02*
X005701Y016575D01*
X005691Y016654D02*
X005780Y016654D01*
X005705Y016733D02*
X018751Y016733D01*
X018769Y016691D02*
X018708Y016837D01*
X018708Y016996D01*
X018769Y017143D01*
X018881Y017255D01*
X019027Y017315D01*
X019186Y017315D01*
X019333Y017255D01*
X019445Y017143D01*
X019505Y016996D01*
X019505Y016837D01*
X019445Y016691D01*
X019333Y016579D01*
X019186Y016518D01*
X019027Y016518D01*
X018881Y016579D01*
X018769Y016691D01*
X018806Y016654D02*
X018383Y016654D01*
X018383Y016655D02*
X018236Y016715D01*
X018077Y016715D01*
X017931Y016655D01*
X017819Y016543D01*
X017758Y016396D01*
X017758Y016237D01*
X017819Y016091D01*
X017931Y015979D01*
X018077Y015918D01*
X018236Y015918D01*
X018383Y015979D01*
X018495Y016091D01*
X018555Y016237D01*
X018555Y016396D01*
X018495Y016543D01*
X018383Y016655D01*
X018462Y016575D02*
X018889Y016575D01*
X018719Y016811D02*
X005705Y016811D01*
X005687Y016890D02*
X016575Y016890D01*
X016627Y016868D02*
X016786Y016868D01*
X016933Y016929D01*
X017045Y017041D01*
X017105Y017187D01*
X017105Y017346D01*
X017045Y017493D01*
X016933Y017605D01*
X016786Y017665D01*
X016627Y017665D01*
X016481Y017605D01*
X016369Y017493D01*
X016308Y017346D01*
X016308Y017187D01*
X016369Y017041D01*
X016481Y016929D01*
X016627Y016868D01*
X016441Y016968D02*
X005655Y016968D01*
X005591Y017047D02*
X016366Y017047D01*
X016334Y017125D02*
X005483Y017125D01*
X005130Y017125D02*
X004855Y017125D01*
X004855Y017146D02*
X004795Y017293D01*
X004683Y017405D01*
X004536Y017465D01*
X004377Y017465D01*
X004231Y017405D01*
X004119Y017293D01*
X004058Y017146D01*
X004058Y016987D01*
X004119Y016841D01*
X004231Y016729D01*
X004377Y016668D01*
X004536Y016668D01*
X004683Y016729D01*
X004795Y016841D01*
X004855Y016987D01*
X004855Y017146D01*
X004831Y017204D02*
X016308Y017204D01*
X016308Y017282D02*
X004799Y017282D01*
X004726Y017361D02*
X016314Y017361D01*
X016347Y017439D02*
X005193Y017439D01*
X005183Y017429D02*
X005253Y017499D01*
X005327Y017468D01*
X005486Y017468D01*
X005633Y017529D01*
X005745Y017641D01*
X005805Y017787D01*
X005805Y017946D01*
X005745Y018093D01*
X005633Y018205D01*
X005486Y018265D01*
X005327Y018265D01*
X005181Y018205D01*
X005111Y018135D01*
X005036Y018165D01*
X004877Y018165D01*
X004731Y018105D01*
X004619Y017993D01*
X004558Y017846D01*
X004558Y017687D01*
X004619Y017541D01*
X004731Y017429D01*
X004877Y017368D01*
X005036Y017368D01*
X005183Y017429D01*
X005606Y017518D02*
X016394Y017518D01*
X016473Y017596D02*
X005700Y017596D01*
X005759Y017675D02*
X024901Y017675D01*
X024931Y017705D02*
X024819Y017593D01*
X024758Y017446D01*
X024758Y017287D01*
X024819Y017141D01*
X024931Y017029D01*
X025077Y016968D01*
X019505Y016968D01*
X019505Y016890D02*
X030415Y016890D01*
X030477Y016915D02*
X030331Y016855D01*
X030219Y016743D01*
X030158Y016596D01*
X030158Y016437D01*
X030219Y016291D01*
X030331Y016179D01*
X030477Y016118D01*
X030636Y016118D01*
X030783Y016179D01*
X030895Y016291D01*
X030906Y016318D01*
X031036Y016318D01*
X031183Y016379D01*
X031295Y016491D01*
X031355Y016637D01*
X031355Y016796D01*
X031295Y016943D01*
X031183Y017055D01*
X031036Y017115D01*
X030877Y017115D01*
X030731Y017055D01*
X030619Y016943D01*
X030607Y016915D01*
X030477Y016915D01*
X030644Y016968D02*
X025236Y016968D01*
X025383Y017029D01*
X025495Y017141D01*
X025555Y017287D01*
X025555Y017446D01*
X025495Y017593D01*
X025383Y017705D01*
X025299Y017739D01*
X025317Y017739D01*
X025317Y018177D01*
X025397Y018177D01*
X025397Y018257D01*
X025834Y018257D01*
X025834Y018312D01*
X025761Y018487D01*
X025627Y018622D01*
X025528Y018663D01*
X025684Y018727D01*
X025846Y018890D01*
X025857Y018915D01*
X025867Y018890D01*
X026030Y018727D01*
X026185Y018663D01*
X026086Y018622D01*
X025952Y018487D01*
X025879Y018312D01*
X025879Y018257D01*
X026316Y018257D01*
X026316Y018177D01*
X025879Y018177D01*
X025879Y018122D01*
X025952Y017946D01*
X026086Y017812D01*
X026262Y017739D01*
X026317Y017739D01*
X026317Y018177D01*
X026397Y018177D01*
X026397Y018257D01*
X026834Y018257D01*
X026834Y018312D01*
X026761Y018487D01*
X026627Y018622D01*
X026528Y018663D01*
X026684Y018727D01*
X026846Y018890D01*
X026857Y018915D01*
X026867Y018890D01*
X027030Y018727D01*
X027185Y018663D01*
X027086Y018622D01*
X026952Y018487D01*
X026879Y018312D01*
X026879Y018257D01*
X027316Y018257D01*
X027316Y018177D01*
X026879Y018177D01*
X026879Y018122D01*
X026952Y017946D01*
X027086Y017812D01*
X027092Y017809D01*
X027081Y017805D01*
X026969Y017693D01*
X026908Y017546D01*
X026908Y017387D01*
X026969Y017241D01*
X027081Y017129D01*
X027227Y017068D01*
X027386Y017068D01*
X027533Y017129D01*
X027645Y017241D01*
X027705Y017387D01*
X027705Y017546D01*
X027645Y017693D01*
X027555Y017782D01*
X027627Y017812D01*
X027761Y017946D01*
X027834Y018122D01*
X027834Y018177D01*
X027397Y018177D01*
X027397Y018257D01*
X027834Y018257D01*
X027834Y018312D01*
X027761Y018487D01*
X027627Y018622D01*
X027528Y018663D01*
X027684Y018727D01*
X027846Y018890D01*
X027857Y018915D01*
X027867Y018890D01*
X028030Y018727D01*
X028185Y018663D01*
X028086Y018622D01*
X027952Y018487D01*
X027879Y018312D01*
X027879Y018257D01*
X028316Y018257D01*
X028316Y018177D01*
X027879Y018177D01*
X027879Y018122D01*
X027952Y017946D01*
X028086Y017812D01*
X028262Y017739D01*
X028317Y017739D01*
X028317Y018177D01*
X028397Y018177D01*
X028397Y018257D01*
X028834Y018257D01*
X028834Y018312D01*
X028761Y018487D01*
X028627Y018622D01*
X028528Y018663D01*
X028684Y018727D01*
X028846Y018890D01*
X028857Y018915D01*
X028867Y018890D01*
X029030Y018727D01*
X029185Y018663D01*
X029086Y018622D01*
X028952Y018487D01*
X028879Y018312D01*
X028879Y018257D01*
X029316Y018257D01*
X029316Y018177D01*
X028879Y018177D01*
X028879Y018122D01*
X028952Y017946D01*
X029086Y017812D01*
X029262Y017739D01*
X029317Y017739D01*
X029317Y018177D01*
X029397Y018177D01*
X029397Y017739D01*
X029452Y017739D01*
X029627Y017812D01*
X029761Y017946D01*
X029803Y018045D01*
X029867Y017890D01*
X030030Y017727D01*
X030242Y017639D01*
X030472Y017639D01*
X030684Y017727D01*
X030846Y017890D01*
X030934Y018102D01*
X030934Y018332D01*
X030846Y018544D01*
X030684Y018706D01*
X030659Y018717D01*
X030684Y018727D01*
X030846Y018890D01*
X030934Y019102D01*
X030934Y019332D01*
X030846Y019544D01*
X030684Y019706D01*
X030472Y019794D01*
X030242Y019794D01*
X030030Y019706D01*
X029867Y019544D01*
X029857Y019519D01*
X029846Y019544D01*
X029684Y019706D01*
X029472Y019794D01*
X029242Y019794D01*
X029030Y019706D01*
X028867Y019544D01*
X028857Y019519D01*
X028846Y019544D01*
X028684Y019706D01*
X028472Y019794D01*
X028242Y019794D01*
X028030Y019706D01*
X027867Y019544D01*
X027857Y019519D01*
X027846Y019544D01*
X027684Y019706D01*
X027472Y019794D01*
X027242Y019794D01*
X027030Y019706D01*
X026867Y019544D01*
X026857Y019519D01*
X026846Y019544D01*
X026684Y019706D01*
X026472Y019794D01*
X026242Y019794D01*
X026030Y019706D01*
X025867Y019544D01*
X025857Y019519D01*
X025846Y019544D01*
X025684Y019706D01*
X025472Y019794D01*
X025242Y019794D01*
X025030Y019706D01*
X024867Y019544D01*
X024857Y019519D01*
X024846Y019544D01*
X024684Y019706D01*
X024472Y019794D01*
X024242Y019794D01*
X024030Y019706D01*
X023867Y019544D01*
X023857Y019519D01*
X023846Y019544D01*
X023684Y019706D01*
X023472Y019794D01*
X023250Y019794D01*
X023250Y019930D01*
X023231Y019949D01*
X023250Y019967D01*
X023250Y020036D01*
X023250Y020272D01*
X023181Y020340D01*
X023014Y020507D01*
X022878Y020507D01*
X022641Y020507D01*
X022505Y020370D01*
X022318Y020370D01*
X022181Y020370D01*
X022180Y020369D01*
X022179Y020370D01*
X022110Y020439D01*
X021874Y020439D01*
X021806Y020370D01*
X021619Y020370D01*
X021600Y020352D01*
X021582Y020370D01*
X021345Y020370D01*
X021336Y020361D01*
X021326Y020370D01*
X021190Y020370D01*
X020954Y020370D01*
X020948Y020365D01*
X020943Y020370D01*
X020638Y020370D01*
X020501Y020370D01*
X020335Y020203D01*
X020335Y020067D01*
X020335Y019830D01*
X020335Y019694D01*
X020501Y019527D01*
X020738Y019527D01*
X020846Y019635D01*
X020902Y019579D01*
X020867Y019544D01*
X020779Y019332D01*
X020779Y019102D01*
X020867Y018890D01*
X021030Y018727D01*
X021185Y018663D01*
X021086Y018622D01*
X020952Y018487D01*
X020879Y018312D01*
X020879Y018257D01*
X021316Y018257D01*
X021316Y018177D01*
X020879Y018177D01*
X020879Y018122D01*
X020952Y017946D01*
X021086Y017812D01*
X021262Y017739D01*
X021317Y017739D01*
X021317Y018177D01*
X021397Y018177D01*
X021397Y018257D01*
X021834Y018257D01*
X021834Y018312D01*
X021761Y018487D01*
X021627Y018622D01*
X021528Y018663D01*
X021684Y018727D01*
X021846Y018890D01*
X021857Y018915D01*
X021867Y018890D01*
X022030Y018727D01*
X022185Y018663D01*
X022086Y018622D01*
X021952Y018487D01*
X021879Y018312D01*
X021879Y018257D01*
X022316Y018257D01*
X022316Y018177D01*
X021879Y018177D01*
X021879Y018122D01*
X021952Y017946D01*
X022086Y017812D01*
X022262Y017739D01*
X022317Y017739D01*
X022317Y018177D01*
X022397Y018177D01*
X022397Y018257D01*
X022834Y018257D01*
X022834Y018312D01*
X022761Y018487D01*
X022627Y018622D01*
X022528Y018663D01*
X022684Y018727D01*
X022846Y018890D01*
X022857Y018915D01*
X022867Y018890D01*
X023030Y018727D01*
X023185Y018663D01*
X023086Y018622D01*
X022952Y018487D01*
X022879Y018312D01*
X022879Y018257D01*
X023316Y018257D01*
X023316Y018177D01*
X022879Y018177D01*
X022879Y018122D01*
X022952Y017946D01*
X023086Y017812D01*
X023262Y017739D01*
X023317Y017739D01*
X023317Y018177D01*
X023397Y018177D01*
X023397Y018257D01*
X023834Y018257D01*
X023834Y018312D01*
X023761Y018487D01*
X023627Y018622D01*
X023528Y018663D01*
X023684Y018727D01*
X023846Y018890D01*
X023857Y018915D01*
X023867Y018890D01*
X024030Y018727D01*
X024185Y018663D01*
X024086Y018622D01*
X023952Y018487D01*
X023879Y018312D01*
X023879Y018257D01*
X024316Y018257D01*
X024316Y018177D01*
X023879Y018177D01*
X023879Y018122D01*
X023952Y017946D01*
X024086Y017812D01*
X024262Y017739D01*
X024317Y017739D01*
X024317Y018177D01*
X024397Y018177D01*
X024397Y018257D01*
X024834Y018257D01*
X024834Y018312D01*
X024761Y018487D01*
X024627Y018622D01*
X024528Y018663D01*
X024684Y018727D01*
X024846Y018890D01*
X024857Y018915D01*
X024867Y018890D01*
X025030Y018727D01*
X025185Y018663D01*
X025086Y018622D01*
X024952Y018487D01*
X024879Y018312D01*
X024879Y018257D01*
X025316Y018257D01*
X025316Y018177D01*
X024879Y018177D01*
X024879Y018122D01*
X024952Y017946D01*
X025086Y017812D01*
X025198Y017765D01*
X025077Y017765D01*
X024931Y017705D01*
X025049Y017754D02*
X024486Y017754D01*
X024452Y017739D02*
X024627Y017812D01*
X024761Y017946D01*
X024834Y018122D01*
X024834Y018177D01*
X024397Y018177D01*
X024397Y017739D01*
X024452Y017739D01*
X024397Y017754D02*
X024317Y017754D01*
X024317Y017832D02*
X024397Y017832D01*
X024397Y017911D02*
X024317Y017911D01*
X024317Y017989D02*
X024397Y017989D01*
X024397Y018068D02*
X024317Y018068D01*
X024317Y018146D02*
X024397Y018146D01*
X024397Y018225D02*
X025316Y018225D01*
X025317Y018146D02*
X025397Y018146D01*
X025397Y018177D02*
X025397Y017739D01*
X025452Y017739D01*
X025627Y017812D01*
X025761Y017946D01*
X025834Y018122D01*
X025834Y018177D01*
X025397Y018177D01*
X025397Y018225D02*
X026316Y018225D01*
X026317Y018146D02*
X026397Y018146D01*
X026397Y018177D02*
X026397Y017739D01*
X026452Y017739D01*
X026627Y017812D01*
X026761Y017946D01*
X026834Y018122D01*
X026834Y018177D01*
X026397Y018177D01*
X026397Y018225D02*
X027316Y018225D01*
X027397Y018225D02*
X028316Y018225D01*
X028317Y018146D02*
X028397Y018146D01*
X028397Y018177D02*
X028397Y017739D01*
X028452Y017739D01*
X028627Y017812D01*
X028761Y017946D01*
X028834Y018122D01*
X028834Y018177D01*
X028397Y018177D01*
X028397Y018225D02*
X029316Y018225D01*
X029317Y018146D02*
X029397Y018146D01*
X029397Y018068D02*
X029317Y018068D01*
X029317Y017989D02*
X029397Y017989D01*
X029397Y017911D02*
X029317Y017911D01*
X029317Y017832D02*
X029397Y017832D01*
X029397Y017754D02*
X029317Y017754D01*
X029227Y017754D02*
X028486Y017754D01*
X028397Y017754D02*
X028317Y017754D01*
X028317Y017832D02*
X028397Y017832D01*
X028397Y017911D02*
X028317Y017911D01*
X028317Y017989D02*
X028397Y017989D01*
X028397Y018068D02*
X028317Y018068D01*
X028066Y017832D02*
X027647Y017832D01*
X027584Y017754D02*
X028227Y017754D01*
X027987Y017911D02*
X027726Y017911D01*
X027779Y017989D02*
X027934Y017989D01*
X027902Y018068D02*
X027812Y018068D01*
X027834Y018146D02*
X027879Y018146D01*
X027879Y018303D02*
X027834Y018303D01*
X027805Y018382D02*
X027908Y018382D01*
X027941Y018460D02*
X027773Y018460D01*
X027710Y018539D02*
X028004Y018539D01*
X028082Y018618D02*
X027631Y018618D01*
X027609Y018696D02*
X028105Y018696D01*
X027982Y018775D02*
X027731Y018775D01*
X027810Y018853D02*
X027904Y018853D01*
X028609Y018696D02*
X029105Y018696D01*
X029082Y018618D02*
X028631Y018618D01*
X028710Y018539D02*
X029004Y018539D01*
X028941Y018460D02*
X028773Y018460D01*
X028805Y018382D02*
X028908Y018382D01*
X028879Y018303D02*
X028834Y018303D01*
X028834Y018146D02*
X028879Y018146D01*
X028902Y018068D02*
X028812Y018068D01*
X028779Y017989D02*
X028934Y017989D01*
X028987Y017911D02*
X028726Y017911D01*
X028647Y017832D02*
X029066Y017832D01*
X029486Y017754D02*
X030003Y017754D01*
X029925Y017832D02*
X029647Y017832D01*
X029726Y017911D02*
X029858Y017911D01*
X029826Y017989D02*
X029779Y017989D01*
X030155Y017675D02*
X027652Y017675D01*
X027685Y017596D02*
X032607Y017596D01*
X032607Y017518D02*
X027705Y017518D01*
X027705Y017439D02*
X032607Y017439D01*
X032607Y017361D02*
X027694Y017361D01*
X027662Y017282D02*
X032607Y017282D01*
X032607Y017204D02*
X027608Y017204D01*
X027524Y017125D02*
X032607Y017125D01*
X032607Y017047D02*
X031191Y017047D01*
X031269Y016968D02*
X032607Y016968D01*
X032607Y016890D02*
X031317Y016890D01*
X031349Y016811D02*
X032607Y016811D01*
X032607Y016733D02*
X031355Y016733D01*
X031355Y016654D02*
X032607Y016654D01*
X032607Y016575D02*
X031330Y016575D01*
X031297Y016497D02*
X032607Y016497D01*
X032607Y016418D02*
X031222Y016418D01*
X031089Y016340D02*
X032607Y016340D01*
X032607Y016261D02*
X030865Y016261D01*
X030786Y016183D02*
X032607Y016183D01*
X032607Y016104D02*
X029505Y016104D01*
X029505Y016037D02*
X029505Y016196D01*
X029445Y016343D01*
X029333Y016455D01*
X029186Y016515D01*
X029027Y016515D01*
X028881Y016455D01*
X028769Y016343D01*
X028708Y016196D01*
X028708Y016037D01*
X028769Y015891D01*
X028881Y015779D01*
X029027Y015718D01*
X029186Y015718D01*
X029333Y015779D01*
X029445Y015891D01*
X029505Y016037D01*
X029500Y016026D02*
X032607Y016026D01*
X032607Y015947D02*
X029468Y015947D01*
X029422Y015869D02*
X032607Y015869D01*
X032607Y015790D02*
X029344Y015790D01*
X029505Y016183D02*
X030327Y016183D01*
X030248Y016261D02*
X029478Y016261D01*
X029446Y016340D02*
X030198Y016340D01*
X030166Y016418D02*
X029369Y016418D01*
X029231Y016497D02*
X030158Y016497D01*
X030158Y016575D02*
X019325Y016575D01*
X019408Y016654D02*
X030182Y016654D01*
X030214Y016733D02*
X019462Y016733D01*
X019494Y016811D02*
X030287Y016811D01*
X030723Y017047D02*
X025400Y017047D01*
X025479Y017125D02*
X027089Y017125D01*
X027006Y017204D02*
X025521Y017204D01*
X025553Y017282D02*
X026951Y017282D01*
X026919Y017361D02*
X025555Y017361D01*
X025555Y017439D02*
X026908Y017439D01*
X026908Y017518D02*
X025526Y017518D01*
X025491Y017596D02*
X026929Y017596D01*
X026961Y017675D02*
X025412Y017675D01*
X025397Y017754D02*
X025317Y017754D01*
X025317Y017832D02*
X025397Y017832D01*
X025397Y017911D02*
X025317Y017911D01*
X025317Y017989D02*
X025397Y017989D01*
X025397Y018068D02*
X025317Y018068D01*
X025066Y017832D02*
X024647Y017832D01*
X024726Y017911D02*
X024987Y017911D01*
X024934Y017989D02*
X024779Y017989D01*
X024812Y018068D02*
X024902Y018068D01*
X024879Y018146D02*
X024834Y018146D01*
X024834Y018303D02*
X024879Y018303D01*
X024908Y018382D02*
X024805Y018382D01*
X024773Y018460D02*
X024941Y018460D01*
X025004Y018539D02*
X024710Y018539D01*
X024631Y018618D02*
X025082Y018618D01*
X025105Y018696D02*
X024609Y018696D01*
X024731Y018775D02*
X024982Y018775D01*
X024904Y018853D02*
X024810Y018853D01*
X024105Y018696D02*
X023609Y018696D01*
X023631Y018618D02*
X024082Y018618D01*
X024004Y018539D02*
X023710Y018539D01*
X023773Y018460D02*
X023941Y018460D01*
X023908Y018382D02*
X023805Y018382D01*
X023834Y018303D02*
X023879Y018303D01*
X023834Y018177D02*
X023397Y018177D01*
X023397Y017739D01*
X023452Y017739D01*
X023627Y017812D01*
X023761Y017946D01*
X023834Y018122D01*
X023834Y018177D01*
X023834Y018146D02*
X023879Y018146D01*
X023902Y018068D02*
X023812Y018068D01*
X023779Y017989D02*
X023934Y017989D01*
X023987Y017911D02*
X023726Y017911D01*
X023647Y017832D02*
X024066Y017832D01*
X024227Y017754D02*
X023486Y017754D01*
X023397Y017754D02*
X023317Y017754D01*
X023317Y017832D02*
X023397Y017832D01*
X023397Y017911D02*
X023317Y017911D01*
X023317Y017989D02*
X023397Y017989D01*
X023397Y018068D02*
X023317Y018068D01*
X023317Y018146D02*
X023397Y018146D01*
X023397Y018225D02*
X024316Y018225D01*
X023982Y018775D02*
X023731Y018775D01*
X023810Y018853D02*
X023904Y018853D01*
X023105Y018696D02*
X022609Y018696D01*
X022631Y018618D02*
X023082Y018618D01*
X023004Y018539D02*
X022710Y018539D01*
X022773Y018460D02*
X022941Y018460D01*
X022908Y018382D02*
X022805Y018382D01*
X022834Y018303D02*
X022879Y018303D01*
X022834Y018177D02*
X022397Y018177D01*
X022397Y017739D01*
X022452Y017739D01*
X022627Y017812D01*
X022761Y017946D01*
X022834Y018122D01*
X022834Y018177D01*
X022834Y018146D02*
X022879Y018146D01*
X022902Y018068D02*
X022812Y018068D01*
X022779Y017989D02*
X022934Y017989D01*
X022987Y017911D02*
X022726Y017911D01*
X022647Y017832D02*
X023066Y017832D01*
X023227Y017754D02*
X022486Y017754D01*
X022397Y017754D02*
X022317Y017754D01*
X022317Y017832D02*
X022397Y017832D01*
X022397Y017911D02*
X022317Y017911D01*
X022317Y017989D02*
X022397Y017989D01*
X022397Y018068D02*
X022317Y018068D01*
X022317Y018146D02*
X022397Y018146D01*
X022397Y018225D02*
X023316Y018225D01*
X022982Y018775D02*
X022731Y018775D01*
X022810Y018853D02*
X022904Y018853D01*
X022105Y018696D02*
X021609Y018696D01*
X021631Y018618D02*
X022082Y018618D01*
X022004Y018539D02*
X021710Y018539D01*
X021773Y018460D02*
X021941Y018460D01*
X021908Y018382D02*
X021805Y018382D01*
X021834Y018303D02*
X021879Y018303D01*
X021834Y018177D02*
X021397Y018177D01*
X021397Y017739D01*
X021452Y017739D01*
X021627Y017812D01*
X021761Y017946D01*
X021834Y018122D01*
X021834Y018177D01*
X021834Y018146D02*
X021879Y018146D01*
X021902Y018068D02*
X021812Y018068D01*
X021779Y017989D02*
X021934Y017989D01*
X021987Y017911D02*
X021726Y017911D01*
X021647Y017832D02*
X022066Y017832D01*
X022227Y017754D02*
X021486Y017754D01*
X021397Y017754D02*
X021317Y017754D01*
X021317Y017832D02*
X021397Y017832D01*
X021397Y017911D02*
X021317Y017911D01*
X021317Y017989D02*
X021397Y017989D01*
X021397Y018068D02*
X021317Y018068D01*
X021317Y018146D02*
X021397Y018146D01*
X021397Y018225D02*
X022316Y018225D01*
X021982Y018775D02*
X021731Y018775D01*
X021810Y018853D02*
X021904Y018853D01*
X021105Y018696D02*
X016455Y018696D01*
X016395Y018843D01*
X016283Y018955D01*
X016136Y019015D01*
X015977Y019015D01*
X015831Y018955D01*
X015719Y018843D01*
X015658Y018696D01*
X015658Y018537D01*
X015719Y018391D01*
X015831Y018279D01*
X015977Y018218D01*
X016136Y018218D01*
X016283Y018279D01*
X016395Y018391D01*
X016455Y018537D01*
X016455Y018696D01*
X016455Y018618D02*
X021082Y018618D01*
X021004Y018539D02*
X016455Y018539D01*
X016424Y018460D02*
X020941Y018460D01*
X020908Y018382D02*
X016386Y018382D01*
X016307Y018303D02*
X020879Y018303D01*
X020879Y018146D02*
X014855Y018146D01*
X014855Y018196D02*
X014795Y018343D01*
X014683Y018455D01*
X014536Y018515D01*
X014377Y018515D01*
X014231Y018455D01*
X014119Y018343D01*
X014058Y018196D01*
X014058Y018037D01*
X014119Y017891D01*
X014231Y017779D01*
X014377Y017718D01*
X014536Y017718D01*
X014683Y017779D01*
X014795Y017891D01*
X014855Y018037D01*
X014855Y018196D01*
X014844Y018225D02*
X015961Y018225D01*
X015806Y018303D02*
X014811Y018303D01*
X014755Y018382D02*
X015728Y018382D01*
X015690Y018460D02*
X014669Y018460D01*
X014245Y018460D02*
X013564Y018460D01*
X013533Y018429D02*
X013645Y018541D01*
X013705Y018687D01*
X013705Y018846D01*
X013645Y018993D01*
X013533Y019105D01*
X013386Y019165D01*
X013227Y019165D01*
X013081Y019105D01*
X012969Y018993D01*
X012908Y018846D01*
X012908Y018687D01*
X012969Y018541D01*
X013081Y018429D01*
X013227Y018368D01*
X013386Y018368D01*
X013533Y018429D01*
X013420Y018382D02*
X014158Y018382D01*
X014102Y018303D02*
X011241Y018303D01*
X011255Y018337D02*
X011255Y018496D01*
X011195Y018643D01*
X011083Y018755D01*
X010936Y018815D01*
X010777Y018815D01*
X010631Y018755D01*
X010519Y018643D01*
X010458Y018496D01*
X010458Y018337D01*
X010519Y018191D01*
X010631Y018079D01*
X010777Y018018D01*
X010936Y018018D01*
X011083Y018079D01*
X011195Y018191D01*
X011255Y018337D01*
X011255Y018382D02*
X013194Y018382D01*
X013049Y018460D02*
X011255Y018460D01*
X011238Y018539D02*
X012971Y018539D01*
X012937Y018618D02*
X011205Y018618D01*
X011141Y018696D02*
X012908Y018696D01*
X012908Y018775D02*
X011035Y018775D01*
X010679Y018775D02*
X007900Y018775D01*
X007905Y018787D02*
X007905Y018946D01*
X007895Y018972D01*
X008033Y019029D01*
X008145Y019141D01*
X008205Y019287D01*
X008205Y019446D01*
X008145Y019593D01*
X008033Y019705D01*
X007886Y019765D01*
X007727Y019765D01*
X007581Y019705D01*
X007469Y019593D01*
X007465Y019583D01*
X007386Y019615D01*
X007227Y019615D01*
X007081Y019555D01*
X006969Y019443D01*
X006908Y019296D01*
X006908Y019137D01*
X006969Y018991D01*
X007081Y018879D01*
X007108Y018868D01*
X007108Y018787D01*
X007169Y018641D01*
X007281Y018529D01*
X007427Y018468D01*
X007586Y018468D01*
X007733Y018529D01*
X007845Y018641D01*
X007905Y018787D01*
X007905Y018853D02*
X012911Y018853D01*
X012943Y018932D02*
X007905Y018932D01*
X007988Y019010D02*
X012986Y019010D01*
X013065Y019089D02*
X008093Y019089D01*
X008156Y019167D02*
X012624Y019167D01*
X012692Y019139D02*
X012480Y019227D01*
X012317Y019390D01*
X012229Y019602D01*
X012229Y019832D01*
X012317Y020044D01*
X012480Y020206D01*
X012692Y020294D01*
X012922Y020294D01*
X013134Y020206D01*
X013296Y020044D01*
X013361Y019888D01*
X013402Y019987D01*
X013536Y020122D01*
X013712Y020194D01*
X013767Y020194D01*
X013767Y019757D01*
X013847Y019757D01*
X013847Y020194D01*
X013902Y020194D01*
X014077Y020122D01*
X014211Y019987D01*
X014253Y019888D01*
X014317Y020044D01*
X014480Y020206D01*
X014692Y020294D01*
X014922Y020294D01*
X015134Y020206D01*
X015296Y020044D01*
X015307Y020019D01*
X015317Y020044D01*
X015480Y020206D01*
X015692Y020294D01*
X015922Y020294D01*
X016134Y020206D01*
X016296Y020044D01*
X016307Y020019D01*
X016317Y020044D01*
X016480Y020206D01*
X016692Y020294D01*
X016922Y020294D01*
X017134Y020206D01*
X017296Y020044D01*
X017307Y020019D01*
X017317Y020044D01*
X017480Y020206D01*
X017692Y020294D01*
X017922Y020294D01*
X018134Y020206D01*
X018296Y020044D01*
X018384Y019832D01*
X018384Y019602D01*
X018296Y019390D01*
X018134Y019227D01*
X017922Y019139D01*
X017692Y019139D01*
X017480Y019227D01*
X017317Y019390D01*
X017307Y019415D01*
X017296Y019390D01*
X017134Y019227D01*
X016922Y019139D01*
X016692Y019139D01*
X016480Y019227D01*
X016317Y019390D01*
X016307Y019415D01*
X016296Y019390D01*
X016134Y019227D01*
X015922Y019139D01*
X015692Y019139D01*
X015480Y019227D01*
X015317Y019390D01*
X015307Y019415D01*
X015296Y019390D01*
X015134Y019227D01*
X014922Y019139D01*
X014692Y019139D01*
X014480Y019227D01*
X014317Y019390D01*
X014253Y019545D01*
X014211Y019446D01*
X014077Y019312D01*
X013902Y019239D01*
X013847Y019239D01*
X013847Y019677D01*
X013767Y019677D01*
X013767Y019239D01*
X013712Y019239D01*
X013536Y019312D01*
X013402Y019446D01*
X013361Y019545D01*
X013296Y019390D01*
X013134Y019227D01*
X012922Y019139D01*
X012692Y019139D01*
X012461Y019246D02*
X008188Y019246D01*
X008205Y019324D02*
X012382Y019324D01*
X012312Y019403D02*
X008205Y019403D01*
X008191Y019482D02*
X012279Y019482D01*
X012246Y019560D02*
X008158Y019560D01*
X008099Y019639D02*
X012229Y019639D01*
X012229Y019717D02*
X008003Y019717D01*
X007611Y019717D02*
X001107Y019717D01*
X001107Y019639D02*
X007515Y019639D01*
X007094Y019560D02*
X001107Y019560D01*
X001107Y019482D02*
X007008Y019482D01*
X006952Y019403D02*
X001107Y019403D01*
X001107Y019324D02*
X006920Y019324D01*
X006908Y019246D02*
X001107Y019246D01*
X001107Y019167D02*
X003124Y019167D01*
X003051Y019137D02*
X003204Y019200D01*
X003370Y019200D01*
X003523Y019137D01*
X003641Y019020D01*
X003704Y018866D01*
X003704Y018700D01*
X003641Y018547D01*
X003523Y018430D01*
X003370Y018366D01*
X003204Y018366D01*
X003051Y018430D01*
X002933Y018547D01*
X002870Y018700D01*
X002870Y018866D01*
X002933Y019020D01*
X003051Y019137D01*
X003003Y019089D02*
X001107Y019089D01*
X001107Y019010D02*
X002929Y019010D01*
X002897Y018932D02*
X001107Y018932D01*
X001107Y018853D02*
X002870Y018853D01*
X002870Y018775D02*
X001107Y018775D01*
X001107Y018696D02*
X002872Y018696D01*
X002904Y018618D02*
X001107Y018618D01*
X001107Y018539D02*
X002941Y018539D01*
X003020Y018460D02*
X001107Y018460D01*
X001107Y018382D02*
X003166Y018382D01*
X003408Y018382D02*
X006644Y018382D01*
X006669Y018443D02*
X006608Y018296D01*
X006608Y018137D01*
X006669Y017991D01*
X006781Y017879D01*
X006927Y017818D01*
X007086Y017818D01*
X007233Y017879D01*
X007345Y017991D01*
X007405Y018137D01*
X007405Y018296D01*
X007345Y018443D01*
X007233Y018555D01*
X007086Y018615D01*
X006927Y018615D01*
X006781Y018555D01*
X006669Y018443D01*
X006687Y018460D02*
X003554Y018460D01*
X003633Y018539D02*
X006765Y018539D01*
X006611Y018303D02*
X001107Y018303D01*
X001107Y018225D02*
X005229Y018225D01*
X005122Y018146D02*
X005082Y018146D01*
X004831Y018146D02*
X001107Y018146D01*
X001107Y018068D02*
X004694Y018068D01*
X004617Y017989D02*
X001107Y017989D01*
X001107Y017911D02*
X004585Y017911D01*
X004558Y017832D02*
X001107Y017832D01*
X001107Y017754D02*
X003045Y017754D01*
X003051Y017759D02*
X002933Y017642D01*
X002870Y017488D01*
X002870Y017322D01*
X002933Y017169D01*
X003051Y017052D01*
X003204Y016988D01*
X003370Y016988D01*
X003523Y017052D01*
X003641Y017169D01*
X003704Y017322D01*
X003704Y017488D01*
X003641Y017642D01*
X003523Y017759D01*
X003370Y017822D01*
X003204Y017822D01*
X003051Y017759D01*
X002967Y017675D02*
X001107Y017675D01*
X001107Y017596D02*
X002915Y017596D01*
X002882Y017518D02*
X001107Y017518D01*
X001107Y017439D02*
X002870Y017439D01*
X002870Y017361D02*
X001107Y017361D01*
X001107Y017282D02*
X002886Y017282D01*
X002919Y017204D02*
X001107Y017204D01*
X001107Y017125D02*
X002977Y017125D01*
X003063Y017047D02*
X001107Y017047D01*
X001107Y016968D02*
X004066Y016968D01*
X004058Y017047D02*
X003511Y017047D01*
X003597Y017125D02*
X004058Y017125D01*
X004082Y017204D02*
X003655Y017204D01*
X003688Y017282D02*
X004114Y017282D01*
X004187Y017361D02*
X003704Y017361D01*
X003704Y017439D02*
X004314Y017439D01*
X004599Y017439D02*
X004720Y017439D01*
X004642Y017518D02*
X003692Y017518D01*
X003659Y017596D02*
X004596Y017596D01*
X004563Y017675D02*
X003607Y017675D01*
X003529Y017754D02*
X004558Y017754D01*
X004855Y017047D02*
X005023Y017047D01*
X004959Y016968D02*
X004847Y016968D01*
X004815Y016890D02*
X004926Y016890D01*
X004908Y016811D02*
X004765Y016811D01*
X004686Y016733D02*
X004908Y016733D01*
X004922Y016654D02*
X001107Y016654D01*
X001107Y016733D02*
X004227Y016733D01*
X004149Y016811D02*
X001107Y016811D01*
X001107Y016890D02*
X004098Y016890D01*
X004954Y016575D02*
X001107Y016575D01*
X001107Y016497D02*
X005013Y016497D01*
X005106Y016418D02*
X001107Y016418D01*
X003297Y015240D02*
X003466Y015240D01*
X003388Y015162D02*
X003376Y015162D01*
X003947Y015240D02*
X004066Y015240D01*
X004547Y015240D02*
X004816Y015240D01*
X004688Y015162D02*
X004626Y015162D01*
X005357Y015397D02*
X006925Y015397D01*
X006908Y015476D02*
X005480Y015476D01*
X005550Y015554D02*
X006908Y015554D01*
X006923Y015633D02*
X006837Y015633D01*
X006915Y015711D02*
X006956Y015711D01*
X006965Y015790D02*
X007016Y015790D01*
X006998Y015869D02*
X007114Y015869D01*
X007005Y015947D02*
X007807Y015947D01*
X007684Y016026D02*
X007005Y016026D01*
X006981Y016104D02*
X007613Y016104D01*
X007581Y016183D02*
X006949Y016183D01*
X006876Y016261D02*
X007558Y016261D01*
X007558Y016340D02*
X006748Y016340D01*
X006465Y016340D02*
X006405Y016340D01*
X006396Y016418D02*
X007567Y016418D01*
X007600Y016497D02*
X006364Y016497D01*
X006312Y016575D02*
X007651Y016575D01*
X007730Y016654D02*
X006233Y016654D01*
X005663Y016104D02*
X005433Y016104D01*
X005512Y016026D02*
X005734Y016026D01*
X005857Y015947D02*
X005564Y015947D01*
X005596Y015869D02*
X006216Y015869D01*
X006208Y015947D02*
X006156Y015947D01*
X006248Y015790D02*
X005605Y015790D01*
X005605Y015711D02*
X006298Y015711D01*
X006377Y015633D02*
X005583Y015633D01*
X004648Y014612D02*
X004566Y014612D01*
X004423Y014533D02*
X004726Y014533D01*
X004190Y014533D02*
X003823Y014533D01*
X003966Y014612D02*
X004048Y014612D01*
X003590Y014533D02*
X003173Y014533D01*
X003316Y014612D02*
X003448Y014612D01*
X005131Y014155D02*
X005277Y014215D01*
X005436Y014215D01*
X005557Y014165D01*
X005677Y014215D01*
X005836Y014215D01*
X005983Y014155D01*
X006095Y014043D01*
X006155Y013896D01*
X006155Y013737D01*
X006095Y013591D01*
X005983Y013479D01*
X005836Y013418D01*
X005677Y013418D01*
X005557Y013468D01*
X005436Y013418D01*
X005277Y013418D01*
X005131Y013479D01*
X005019Y013591D01*
X005097Y013512D02*
X001107Y013512D01*
X001107Y013434D02*
X005240Y013434D01*
X005474Y013434D02*
X005640Y013434D01*
X005874Y013434D02*
X010190Y013434D01*
X010227Y013418D02*
X010386Y013418D01*
X010533Y013479D01*
X010558Y013504D01*
X010558Y013487D01*
X010619Y013341D01*
X010731Y013229D01*
X010877Y013168D01*
X011036Y013168D01*
X011230Y013277D02*
X017036Y013277D01*
X017031Y013279D02*
X017177Y013218D01*
X017336Y013218D01*
X017483Y013279D01*
X017595Y013391D01*
X017655Y013537D01*
X017655Y013696D01*
X017595Y013843D01*
X017483Y013955D01*
X017336Y014015D01*
X017177Y014015D01*
X017031Y013955D01*
X016919Y013843D01*
X016858Y013696D01*
X016858Y013537D01*
X016919Y013391D01*
X017031Y013279D01*
X016954Y013355D02*
X011301Y013355D01*
X011333Y013434D02*
X016901Y013434D01*
X016868Y013512D02*
X011355Y013512D01*
X011355Y013591D02*
X016858Y013591D01*
X016858Y013669D02*
X014539Y013669D01*
X014536Y013668D02*
X014683Y013729D01*
X014795Y013841D01*
X014855Y013987D01*
X014855Y014146D01*
X014795Y014293D01*
X014683Y014405D01*
X014536Y014465D01*
X014377Y014465D01*
X014231Y014405D01*
X014119Y014293D01*
X014058Y014146D01*
X014058Y013987D01*
X014119Y013841D01*
X014231Y013729D01*
X014377Y013668D01*
X014536Y013668D01*
X014374Y013669D02*
X011346Y013669D01*
X011313Y013748D02*
X014212Y013748D01*
X014133Y013826D02*
X011261Y013826D01*
X011182Y013905D02*
X014092Y013905D01*
X014060Y013984D02*
X010669Y013984D01*
X010702Y013905D02*
X010731Y013905D01*
X010625Y014062D02*
X014058Y014062D01*
X014058Y014141D02*
X011290Y014141D01*
X011423Y014219D02*
X014088Y014219D01*
X014124Y014298D02*
X011497Y014298D01*
X011530Y014376D02*
X011858Y014376D01*
X011705Y014455D02*
X011555Y014455D01*
X011555Y014533D02*
X011626Y014533D01*
X011589Y014612D02*
X011549Y014612D01*
X011558Y014690D02*
X011516Y014690D01*
X011558Y014769D02*
X011468Y014769D01*
X011390Y014847D02*
X011559Y014847D01*
X012045Y015162D02*
X012698Y015162D01*
X012669Y015191D02*
X012781Y015079D01*
X012927Y015018D01*
X013086Y015018D01*
X013233Y015079D01*
X013345Y015191D01*
X013405Y015337D01*
X013405Y015496D01*
X013345Y015643D01*
X013233Y015755D01*
X013086Y015815D01*
X012927Y015815D01*
X012781Y015755D01*
X012669Y015643D01*
X012608Y015496D01*
X012608Y015337D01*
X012669Y015191D01*
X012648Y015240D02*
X012039Y015240D01*
X012173Y015319D02*
X012616Y015319D01*
X012608Y015397D02*
X012247Y015397D01*
X012280Y015476D02*
X012608Y015476D01*
X012632Y015554D02*
X012305Y015554D01*
X012305Y015633D02*
X012665Y015633D01*
X012738Y015711D02*
X012299Y015711D01*
X012266Y015790D02*
X012866Y015790D01*
X013147Y015790D02*
X014097Y015790D01*
X014119Y015843D02*
X014058Y015696D01*
X014058Y015537D01*
X014119Y015391D01*
X014231Y015279D01*
X014377Y015218D01*
X014536Y015218D01*
X014683Y015279D01*
X014795Y015391D01*
X014855Y015537D01*
X014855Y015696D01*
X014795Y015843D01*
X014683Y015955D01*
X014536Y016015D01*
X014377Y016015D01*
X014231Y015955D01*
X014119Y015843D01*
X014145Y015869D02*
X012219Y015869D01*
X012140Y015947D02*
X014223Y015947D01*
X014064Y015711D02*
X013276Y015711D01*
X013349Y015633D02*
X014058Y015633D01*
X014058Y015554D02*
X013381Y015554D01*
X013405Y015476D02*
X014083Y015476D01*
X014116Y015397D02*
X013405Y015397D01*
X013398Y015319D02*
X014191Y015319D01*
X014324Y015240D02*
X013365Y015240D01*
X013315Y015162D02*
X016208Y015162D01*
X016208Y015196D02*
X016269Y015343D01*
X016381Y015455D01*
X016527Y015515D01*
X016686Y015515D01*
X016833Y015455D01*
X016945Y015343D01*
X017005Y015196D01*
X017005Y015037D01*
X016945Y014891D01*
X016833Y014779D01*
X016686Y014718D01*
X016527Y014718D01*
X016381Y014779D01*
X016269Y014891D01*
X016208Y015037D01*
X016208Y015196D01*
X016226Y015240D02*
X014589Y015240D01*
X014723Y015319D02*
X016259Y015319D01*
X016323Y015397D02*
X014797Y015397D01*
X014830Y015476D02*
X016432Y015476D01*
X016782Y015476D02*
X020152Y015476D01*
X020116Y015441D02*
X020174Y015383D01*
X020399Y015290D01*
X020643Y015290D01*
X020868Y015383D01*
X020926Y015441D01*
X020521Y015845D01*
X020116Y015441D01*
X020160Y015397D02*
X016890Y015397D01*
X016955Y015319D02*
X020329Y015319D01*
X020230Y015554D02*
X020117Y015554D01*
X020060Y015497D02*
X020465Y015902D01*
X020521Y015845D01*
X020578Y015902D01*
X020983Y015497D01*
X021041Y015555D01*
X021134Y015780D01*
X021134Y016024D01*
X021041Y016249D01*
X020983Y016307D01*
X020578Y015902D01*
X020521Y015959D01*
X020465Y015902D01*
X020060Y016307D01*
X020002Y016249D01*
X019909Y016024D01*
X019909Y015780D01*
X020002Y015555D01*
X020060Y015497D01*
X020003Y015554D02*
X014855Y015554D01*
X014855Y015633D02*
X017077Y015633D01*
X016998Y015711D02*
X014849Y015711D01*
X014816Y015790D02*
X016948Y015790D01*
X016916Y015869D02*
X014769Y015869D01*
X014690Y015947D02*
X016908Y015947D01*
X016965Y016183D02*
X009155Y016183D01*
X009149Y016261D02*
X017037Y016261D01*
X017165Y016340D02*
X009117Y016340D01*
X009069Y016418D02*
X017767Y016418D01*
X017758Y016340D02*
X017448Y016340D01*
X017576Y016261D02*
X017758Y016261D01*
X017781Y016183D02*
X017649Y016183D01*
X017681Y016104D02*
X017813Y016104D01*
X017884Y016026D02*
X017705Y016026D01*
X017705Y015947D02*
X018007Y015947D01*
X018306Y015947D02*
X019909Y015947D01*
X019909Y015869D02*
X017698Y015869D01*
X017665Y015790D02*
X019909Y015790D01*
X019937Y015711D02*
X017615Y015711D01*
X017537Y015633D02*
X019970Y015633D01*
X020196Y015633D02*
X020309Y015633D01*
X020274Y015711D02*
X020387Y015711D01*
X020353Y015790D02*
X020466Y015790D01*
X020498Y015869D02*
X020431Y015869D01*
X020420Y015947D02*
X020509Y015947D01*
X020521Y015959D02*
X020116Y016363D01*
X020174Y016421D01*
X020399Y016515D01*
X020643Y016515D01*
X020868Y016421D01*
X020926Y016363D01*
X020521Y015959D01*
X020533Y015947D02*
X020623Y015947D01*
X020611Y015869D02*
X020544Y015869D01*
X020577Y015790D02*
X020690Y015790D01*
X020655Y015711D02*
X020768Y015711D01*
X020734Y015633D02*
X020847Y015633D01*
X020812Y015554D02*
X020926Y015554D01*
X020891Y015476D02*
X022159Y015476D01*
X022177Y015468D02*
X022336Y015468D01*
X022483Y015529D01*
X022595Y015641D01*
X022655Y015787D01*
X022655Y015946D01*
X022595Y016093D01*
X022483Y016205D01*
X022336Y016265D01*
X022177Y016265D01*
X022031Y016205D01*
X021955Y016129D01*
X021955Y016196D01*
X021895Y016343D01*
X021783Y016455D01*
X021636Y016515D01*
X021477Y016515D01*
X021331Y016455D01*
X021219Y016343D01*
X021158Y016196D01*
X021158Y016037D01*
X021219Y015891D01*
X021331Y015779D01*
X021477Y015718D01*
X021636Y015718D01*
X021783Y015779D01*
X021858Y015854D01*
X021858Y015787D01*
X021919Y015641D01*
X022031Y015529D01*
X022177Y015468D01*
X022355Y015476D02*
X024909Y015476D01*
X024927Y015468D02*
X025086Y015468D01*
X025233Y015529D01*
X025345Y015641D01*
X025405Y015787D01*
X025405Y015946D01*
X025345Y016093D01*
X025233Y016205D01*
X025086Y016265D01*
X024927Y016265D01*
X024781Y016205D01*
X024669Y016093D01*
X024608Y015946D01*
X024608Y015787D01*
X024669Y015641D01*
X024781Y015529D01*
X024927Y015468D01*
X025105Y015476D02*
X025958Y015476D01*
X025958Y015546D02*
X026019Y015693D01*
X026131Y015805D01*
X026277Y015865D01*
X026436Y015865D01*
X026583Y015805D01*
X026695Y015693D01*
X026755Y015546D01*
X026755Y015387D01*
X026695Y015241D01*
X026583Y015129D01*
X026436Y015068D01*
X026277Y015068D01*
X026131Y015129D01*
X026019Y015241D01*
X025958Y015387D01*
X025958Y015546D01*
X025961Y015554D02*
X025258Y015554D01*
X025337Y015633D02*
X025994Y015633D01*
X026038Y015711D02*
X025374Y015711D01*
X025405Y015790D02*
X026116Y015790D01*
X025958Y015397D02*
X020883Y015397D01*
X020713Y015319D02*
X025986Y015319D01*
X026019Y015240D02*
X016987Y015240D01*
X017005Y015162D02*
X026098Y015162D01*
X026241Y015083D02*
X017005Y015083D01*
X016992Y015005D02*
X017201Y015005D01*
X017227Y015015D02*
X017081Y014955D01*
X016969Y014843D01*
X016908Y014696D01*
X016908Y014537D01*
X016969Y014391D01*
X017081Y014279D01*
X017227Y014218D01*
X017386Y014218D01*
X017533Y014279D01*
X017645Y014391D01*
X017705Y014537D01*
X017705Y014696D01*
X017645Y014843D01*
X017533Y014955D01*
X017386Y015015D01*
X017227Y015015D01*
X017412Y015005D02*
X030263Y015005D01*
X030269Y014991D02*
X030381Y014879D01*
X030527Y014818D01*
X030686Y014818D01*
X030833Y014879D01*
X030945Y014991D01*
X031005Y015137D01*
X031005Y015296D01*
X030945Y015443D01*
X030833Y015555D01*
X030686Y015615D01*
X030527Y015615D01*
X030381Y015555D01*
X030269Y015443D01*
X030208Y015296D01*
X030208Y015137D01*
X030269Y014991D01*
X030334Y014926D02*
X029131Y014926D01*
X029183Y014905D02*
X029036Y014965D01*
X028877Y014965D01*
X028731Y014905D01*
X028619Y014793D01*
X028558Y014646D01*
X028558Y014487D01*
X028619Y014341D01*
X028731Y014229D01*
X028877Y014168D01*
X029036Y014168D01*
X029183Y014229D01*
X029295Y014341D01*
X029355Y014487D01*
X029355Y014646D01*
X029295Y014793D01*
X029183Y014905D01*
X029240Y014847D02*
X030456Y014847D01*
X030757Y014847D02*
X032607Y014847D01*
X032607Y014769D02*
X029304Y014769D01*
X029337Y014690D02*
X032607Y014690D01*
X032607Y014612D02*
X029355Y014612D01*
X029355Y014533D02*
X032607Y014533D01*
X032607Y014455D02*
X031833Y014455D01*
X031686Y014515D01*
X031527Y014515D01*
X031381Y014455D01*
X029342Y014455D01*
X029309Y014376D02*
X031302Y014376D01*
X031269Y014343D02*
X031208Y014196D01*
X031208Y014037D01*
X031269Y013891D01*
X031381Y013779D01*
X031527Y013718D01*
X031686Y013718D01*
X031833Y013779D01*
X031945Y013891D01*
X032005Y014037D01*
X032005Y014196D01*
X031945Y014343D01*
X031833Y014455D01*
X031911Y014376D02*
X032607Y014376D01*
X032607Y014298D02*
X031963Y014298D01*
X031996Y014219D02*
X032607Y014219D01*
X032607Y014141D02*
X032005Y014141D01*
X032005Y014062D02*
X032607Y014062D01*
X032607Y013984D02*
X031983Y013984D01*
X031950Y013905D02*
X032607Y013905D01*
X032607Y013826D02*
X031880Y013826D01*
X031758Y013748D02*
X032607Y013748D01*
X032607Y013669D02*
X024975Y013669D01*
X025005Y013596D02*
X024945Y013743D01*
X024833Y013855D01*
X024686Y013915D01*
X024527Y013915D01*
X024381Y013855D01*
X024269Y013743D01*
X024208Y013596D01*
X024208Y013437D01*
X024269Y013291D01*
X024381Y013179D01*
X024527Y013118D01*
X024686Y013118D01*
X024833Y013179D01*
X024945Y013291D01*
X025005Y013437D01*
X025005Y013596D01*
X025005Y013591D02*
X032607Y013591D01*
X032607Y013512D02*
X025005Y013512D01*
X025004Y013434D02*
X032607Y013434D01*
X032607Y013355D02*
X024971Y013355D01*
X024930Y013277D02*
X032607Y013277D01*
X032607Y013198D02*
X027539Y013198D01*
X027533Y013205D02*
X027386Y013265D01*
X027227Y013265D01*
X027081Y013205D01*
X026969Y013093D01*
X026908Y012946D01*
X026908Y012787D01*
X026969Y012641D01*
X027081Y012529D01*
X027227Y012468D01*
X027386Y012468D01*
X027533Y012529D01*
X027645Y012641D01*
X027705Y012787D01*
X027705Y012946D01*
X027645Y013093D01*
X027533Y013205D01*
X027618Y013120D02*
X032607Y013120D01*
X032607Y013041D02*
X031695Y013041D01*
X031636Y013065D02*
X031477Y013065D01*
X031331Y013005D01*
X031219Y012893D01*
X031158Y012746D01*
X031158Y012587D01*
X031219Y012441D01*
X031331Y012329D01*
X031477Y012268D01*
X031636Y012268D01*
X031783Y012329D01*
X031895Y012441D01*
X031955Y012587D01*
X031955Y012746D01*
X031895Y012893D01*
X031783Y013005D01*
X031636Y013065D01*
X031825Y012962D02*
X032607Y012962D01*
X032607Y012884D02*
X031898Y012884D01*
X031931Y012805D02*
X032607Y012805D01*
X032607Y012727D02*
X031955Y012727D01*
X031955Y012648D02*
X032607Y012648D01*
X032607Y012570D02*
X031948Y012570D01*
X031916Y012491D02*
X032607Y012491D01*
X032607Y012413D02*
X031866Y012413D01*
X031788Y012334D02*
X032607Y012334D01*
X032607Y012256D02*
X029110Y012256D01*
X029095Y012293D02*
X028983Y012405D01*
X028836Y012465D01*
X028677Y012465D01*
X028531Y012405D01*
X028419Y012293D01*
X028358Y012146D01*
X028358Y011987D01*
X028419Y011841D01*
X028531Y011729D01*
X028677Y011668D01*
X028836Y011668D01*
X028983Y011729D01*
X029095Y011841D01*
X029155Y011987D01*
X029155Y012146D01*
X029095Y012293D01*
X029053Y012334D02*
X030425Y012334D01*
X030431Y012329D02*
X030577Y012268D01*
X030736Y012268D01*
X030883Y012329D01*
X030995Y012441D01*
X031055Y012587D01*
X031055Y012746D01*
X030995Y012893D01*
X030883Y013005D01*
X030736Y013065D01*
X030577Y013065D01*
X030431Y013005D01*
X030319Y012893D01*
X030258Y012746D01*
X030258Y012587D01*
X030319Y012441D01*
X030431Y012329D01*
X030347Y012413D02*
X028964Y012413D01*
X029143Y012177D02*
X032607Y012177D01*
X032607Y012098D02*
X029155Y012098D01*
X029155Y012020D02*
X032607Y012020D01*
X032607Y011941D02*
X029136Y011941D01*
X029104Y011863D02*
X032607Y011863D01*
X032607Y011784D02*
X029038Y011784D01*
X028927Y011706D02*
X031283Y011706D01*
X031281Y011705D02*
X031169Y011593D01*
X031108Y011446D01*
X031108Y011287D01*
X031169Y011141D01*
X031281Y011029D01*
X031427Y010968D01*
X031586Y010968D01*
X031733Y011029D01*
X031845Y011141D01*
X031905Y011287D01*
X031905Y011446D01*
X031845Y011593D01*
X031733Y011705D01*
X031586Y011765D01*
X031427Y011765D01*
X031281Y011705D01*
X031203Y011627D02*
X023880Y011627D01*
X023905Y011687D02*
X023905Y011846D01*
X023845Y011993D01*
X023733Y012105D01*
X023586Y012165D01*
X023427Y012165D01*
X023281Y012105D01*
X023169Y011993D01*
X023108Y011846D01*
X023108Y011687D01*
X023169Y011541D01*
X023281Y011429D01*
X023427Y011368D01*
X023586Y011368D01*
X023733Y011429D01*
X023845Y011541D01*
X023905Y011687D01*
X023905Y011706D02*
X028586Y011706D01*
X028475Y011784D02*
X023905Y011784D01*
X023898Y011863D02*
X028410Y011863D01*
X028377Y011941D02*
X023866Y011941D01*
X023817Y012020D02*
X028358Y012020D01*
X028358Y012098D02*
X023739Y012098D01*
X023275Y012098D02*
X021789Y012098D01*
X021845Y012043D02*
X021733Y012155D01*
X021586Y012215D01*
X021455Y012215D01*
X021455Y012246D01*
X021395Y012393D01*
X021283Y012505D01*
X021136Y012565D01*
X020977Y012565D01*
X020831Y012505D01*
X020719Y012393D01*
X020658Y012246D01*
X020658Y012087D01*
X020719Y011941D01*
X020831Y011829D01*
X020977Y011768D01*
X021108Y011768D01*
X021108Y011737D01*
X021169Y011591D01*
X021281Y011479D01*
X021427Y011418D01*
X021586Y011418D01*
X021733Y011479D01*
X021845Y011591D01*
X021905Y011737D01*
X021905Y011896D01*
X021845Y012043D01*
X021854Y012020D02*
X023196Y012020D01*
X023147Y011941D02*
X021887Y011941D01*
X021905Y011863D02*
X023115Y011863D01*
X023108Y011784D02*
X021905Y011784D01*
X021892Y011706D02*
X023108Y011706D01*
X023133Y011627D02*
X021860Y011627D01*
X021802Y011549D02*
X023165Y011549D01*
X023239Y011470D02*
X021712Y011470D01*
X021302Y011470D02*
X018455Y011470D01*
X018455Y011549D02*
X021211Y011549D01*
X021154Y011627D02*
X018443Y011627D01*
X018410Y011706D02*
X021121Y011706D01*
X020938Y011784D02*
X018353Y011784D01*
X018317Y011863D02*
X020797Y011863D01*
X020718Y011941D02*
X018366Y011941D01*
X018398Y012020D02*
X020686Y012020D01*
X020658Y012098D02*
X018405Y012098D01*
X018405Y012177D02*
X020658Y012177D01*
X020662Y012256D02*
X018381Y012256D01*
X018348Y012334D02*
X020694Y012334D01*
X020739Y012413D02*
X018275Y012413D01*
X018145Y012491D02*
X020817Y012491D01*
X021296Y012491D02*
X027171Y012491D01*
X027040Y012570D02*
X014374Y012570D01*
X014448Y012648D02*
X026966Y012648D01*
X026933Y012727D02*
X014480Y012727D01*
X014505Y012805D02*
X026908Y012805D01*
X026908Y012884D02*
X014505Y012884D01*
X014499Y012962D02*
X026915Y012962D01*
X026947Y013041D02*
X014466Y013041D01*
X014418Y013120D02*
X024524Y013120D01*
X024690Y013120D02*
X026996Y013120D01*
X027074Y013198D02*
X024852Y013198D01*
X024361Y013198D02*
X014339Y013198D01*
X014702Y013748D02*
X016879Y013748D01*
X016912Y013826D02*
X014780Y013826D01*
X014821Y013905D02*
X016981Y013905D01*
X017100Y013984D02*
X014854Y013984D01*
X014855Y014062D02*
X024048Y014062D01*
X024081Y014029D02*
X023969Y014141D01*
X023908Y014287D01*
X023908Y014446D01*
X023969Y014593D01*
X024081Y014705D01*
X024227Y014765D01*
X024386Y014765D01*
X024533Y014705D01*
X024645Y014593D01*
X024705Y014446D01*
X024705Y014287D01*
X024645Y014141D01*
X024533Y014029D01*
X024386Y013968D01*
X024227Y013968D01*
X024081Y014029D01*
X024190Y013984D02*
X017413Y013984D01*
X017532Y013905D02*
X024502Y013905D01*
X024423Y013984D02*
X025126Y013984D01*
X025181Y013929D02*
X025327Y013868D01*
X025486Y013868D01*
X025633Y013929D01*
X025745Y014041D01*
X025805Y014187D01*
X025805Y014346D01*
X025745Y014493D01*
X025633Y014605D01*
X025486Y014665D01*
X025327Y014665D01*
X025181Y014605D01*
X025069Y014493D01*
X025008Y014346D01*
X025008Y014187D01*
X025069Y014041D01*
X025181Y013929D01*
X025238Y013905D02*
X024711Y013905D01*
X024861Y013826D02*
X031333Y013826D01*
X031263Y013905D02*
X025575Y013905D01*
X025687Y013984D02*
X031230Y013984D01*
X031208Y014062D02*
X025753Y014062D01*
X025786Y014141D02*
X031208Y014141D01*
X031218Y014219D02*
X029159Y014219D01*
X029251Y014298D02*
X031250Y014298D01*
X031269Y014343D02*
X031381Y014455D01*
X030880Y014926D02*
X032607Y014926D01*
X032607Y015005D02*
X030950Y015005D01*
X030983Y015083D02*
X032607Y015083D01*
X032607Y015162D02*
X031005Y015162D01*
X031005Y015240D02*
X032607Y015240D01*
X032607Y015319D02*
X030996Y015319D01*
X030963Y015397D02*
X032607Y015397D01*
X032607Y015476D02*
X030911Y015476D01*
X030833Y015554D02*
X032607Y015554D01*
X032607Y015633D02*
X028637Y015633D01*
X028645Y015641D02*
X028705Y015787D01*
X028705Y015946D01*
X028645Y016093D01*
X028533Y016205D01*
X028386Y016265D01*
X028227Y016265D01*
X028081Y016205D01*
X027969Y016093D01*
X027908Y015946D01*
X027908Y015787D01*
X027969Y015641D01*
X028081Y015529D01*
X028227Y015468D01*
X028386Y015468D01*
X028533Y015529D01*
X028645Y015641D01*
X028674Y015711D02*
X032607Y015711D01*
X030380Y015554D02*
X028558Y015554D01*
X028405Y015476D02*
X030302Y015476D01*
X030250Y015397D02*
X026755Y015397D01*
X026755Y015476D02*
X028209Y015476D01*
X028055Y015554D02*
X026752Y015554D01*
X026719Y015633D02*
X027977Y015633D01*
X027939Y015711D02*
X026676Y015711D01*
X026597Y015790D02*
X027908Y015790D01*
X027908Y015869D02*
X025405Y015869D01*
X025405Y015947D02*
X027908Y015947D01*
X027941Y016026D02*
X025372Y016026D01*
X025333Y016104D02*
X027980Y016104D01*
X028059Y016183D02*
X025255Y016183D01*
X025096Y016261D02*
X028217Y016261D01*
X028396Y016261D02*
X028735Y016261D01*
X028708Y016183D02*
X028555Y016183D01*
X028633Y016104D02*
X028708Y016104D01*
X028713Y016026D02*
X028672Y016026D01*
X028705Y015947D02*
X028745Y015947D01*
X028705Y015869D02*
X028791Y015869D01*
X028870Y015790D02*
X028705Y015790D01*
X028768Y016340D02*
X021896Y016340D01*
X021928Y016261D02*
X022167Y016261D01*
X022009Y016183D02*
X021955Y016183D01*
X021819Y016418D02*
X028844Y016418D01*
X028983Y016497D02*
X021681Y016497D01*
X021433Y016497D02*
X020686Y016497D01*
X020871Y016418D02*
X021294Y016418D01*
X021218Y016340D02*
X020902Y016340D01*
X020937Y016261D02*
X020824Y016261D01*
X020858Y016183D02*
X020745Y016183D01*
X020780Y016104D02*
X020667Y016104D01*
X020701Y016026D02*
X020588Y016026D01*
X020454Y016026D02*
X020341Y016026D01*
X020376Y016104D02*
X020263Y016104D01*
X020297Y016183D02*
X020184Y016183D01*
X020219Y016261D02*
X020106Y016261D01*
X020140Y016340D02*
X018555Y016340D01*
X018555Y016261D02*
X020014Y016261D01*
X019975Y016183D02*
X018533Y016183D01*
X018500Y016104D02*
X019942Y016104D01*
X019909Y016026D02*
X018429Y016026D01*
X018546Y016418D02*
X020171Y016418D01*
X020357Y016497D02*
X018514Y016497D01*
X018708Y016890D02*
X016838Y016890D01*
X016972Y016968D02*
X018708Y016968D01*
X018729Y017047D02*
X017047Y017047D01*
X017080Y017125D02*
X018761Y017125D01*
X018830Y017204D02*
X017105Y017204D01*
X017105Y017282D02*
X018947Y017282D01*
X019266Y017282D02*
X024760Y017282D01*
X024758Y017361D02*
X017099Y017361D01*
X017067Y017439D02*
X024758Y017439D01*
X024788Y017518D02*
X017019Y017518D01*
X016941Y017596D02*
X024823Y017596D01*
X024793Y017204D02*
X019384Y017204D01*
X019452Y017125D02*
X024834Y017125D01*
X024913Y017047D02*
X019484Y017047D01*
X017930Y016654D02*
X008583Y016654D01*
X008662Y016575D02*
X017851Y016575D01*
X017800Y016497D02*
X008990Y016497D01*
X008491Y015869D02*
X007499Y015869D01*
X008106Y015947D02*
X008207Y015947D01*
X008590Y015397D02*
X009262Y015397D01*
X009355Y015319D02*
X008669Y015319D01*
X007884Y014298D02*
X007579Y014298D01*
X007718Y014219D02*
X007745Y014219D01*
X007118Y014141D02*
X005997Y014141D01*
X006075Y014062D02*
X007085Y014062D01*
X007058Y013984D02*
X006119Y013984D01*
X006152Y013905D02*
X007058Y013905D01*
X007063Y013826D02*
X006155Y013826D01*
X006155Y013748D02*
X007095Y013748D01*
X007140Y013669D02*
X006127Y013669D01*
X006095Y013591D02*
X007219Y013591D01*
X007695Y013591D02*
X007769Y013591D01*
X006016Y013512D02*
X010047Y013512D01*
X010081Y013479D02*
X010227Y013418D01*
X010081Y013479D02*
X009969Y013591D01*
X010424Y013434D02*
X010580Y013434D01*
X010613Y013355D02*
X001532Y013355D01*
X001611Y013277D02*
X010683Y013277D01*
X010805Y013198D02*
X001663Y013198D01*
X004526Y010449D02*
X009075Y010449D01*
X008997Y010371D02*
X004667Y010371D01*
X004745Y010292D02*
X008948Y010292D01*
X008915Y010213D02*
X004778Y010213D01*
X004805Y010135D02*
X008908Y010135D01*
X008908Y010056D02*
X008558Y010056D01*
X008709Y009978D02*
X008933Y009978D01*
X008965Y009899D02*
X008788Y009899D01*
X008824Y009821D02*
X009039Y009821D01*
X009169Y009742D02*
X008855Y009742D01*
X008855Y009664D02*
X011073Y009664D01*
X010911Y009585D02*
X008854Y009585D01*
X008822Y009507D02*
X010833Y009507D01*
X010792Y009428D02*
X008782Y009428D01*
X008703Y009349D02*
X010759Y009349D01*
X010758Y009271D02*
X008543Y009271D01*
X008058Y009742D02*
X004646Y009742D01*
X004724Y009821D02*
X008089Y009821D01*
X008125Y009899D02*
X004769Y009899D01*
X004801Y009978D02*
X008204Y009978D01*
X008355Y010056D02*
X004805Y010056D01*
X004425Y008171D02*
X016508Y008171D01*
X016508Y008093D02*
X004347Y008093D01*
X005338Y006915D02*
X008305Y006915D01*
X008281Y006905D02*
X008427Y006965D01*
X008586Y006965D01*
X008733Y006905D01*
X008845Y006793D01*
X008905Y006646D01*
X008905Y006487D01*
X008845Y006341D01*
X008733Y006229D01*
X008586Y006168D01*
X008427Y006168D01*
X008281Y006229D01*
X008169Y006341D01*
X008108Y006487D01*
X008108Y006646D01*
X008169Y006793D01*
X008281Y006905D01*
X008212Y006836D02*
X005501Y006836D01*
X005580Y006758D02*
X008154Y006758D01*
X008122Y006679D02*
X005621Y006679D01*
X005654Y006600D02*
X008108Y006600D01*
X008108Y006522D02*
X005655Y006522D01*
X005655Y006443D02*
X006019Y006443D01*
X005941Y006365D02*
X005625Y006365D01*
X005590Y006286D02*
X005895Y006286D01*
X005863Y006208D02*
X005511Y006208D01*
X006494Y006443D02*
X008126Y006443D01*
X008159Y006365D02*
X006572Y006365D01*
X006618Y006286D02*
X008223Y006286D01*
X008286Y006215D02*
X008127Y006215D01*
X007981Y006155D01*
X007869Y006043D01*
X007808Y005896D01*
X007808Y005737D01*
X007869Y005591D01*
X007981Y005479D01*
X008127Y005418D01*
X008286Y005418D01*
X008433Y005479D01*
X008545Y005591D01*
X008605Y005737D01*
X008605Y005736D02*
X009029Y005736D01*
X009008Y005787D02*
X009069Y005641D01*
X009181Y005529D01*
X009327Y005468D01*
X009486Y005468D01*
X009633Y005529D01*
X009745Y005641D01*
X009805Y005787D01*
X009805Y005946D01*
X009745Y006091D01*
X009795Y006141D01*
X009855Y006287D01*
X009855Y006446D01*
X009795Y006593D01*
X009683Y006705D01*
X009536Y006765D01*
X009377Y006765D01*
X009231Y006705D01*
X009119Y006593D01*
X009058Y006446D01*
X009058Y006287D01*
X009118Y006142D01*
X009069Y006093D01*
X009008Y005946D01*
X009008Y005787D01*
X009008Y005815D02*
X008605Y005815D01*
X008605Y005737D02*
X008605Y005896D01*
X008545Y006043D01*
X008433Y006155D01*
X008286Y006215D01*
X008305Y006208D02*
X008332Y006208D01*
X008458Y006129D02*
X009105Y006129D01*
X009091Y006208D02*
X008682Y006208D01*
X008790Y006286D02*
X009058Y006286D01*
X009058Y006365D02*
X008855Y006365D01*
X008887Y006443D02*
X009058Y006443D01*
X009089Y006522D02*
X008905Y006522D01*
X008905Y006600D02*
X009126Y006600D01*
X009205Y006679D02*
X008892Y006679D01*
X008859Y006758D02*
X009358Y006758D01*
X009555Y006758D02*
X013652Y006758D01*
X013600Y006836D02*
X008801Y006836D01*
X008709Y006915D02*
X013567Y006915D01*
X013731Y006679D02*
X009708Y006679D01*
X009787Y006600D02*
X014026Y006600D01*
X014031Y006605D02*
X013919Y006493D01*
X013858Y006346D01*
X013858Y006187D01*
X013919Y006041D01*
X014031Y005929D01*
X014177Y005868D01*
X014336Y005868D01*
X014483Y005929D01*
X014595Y006041D01*
X014655Y006187D01*
X014655Y006346D01*
X014595Y006493D01*
X014483Y006605D01*
X014336Y006665D01*
X014177Y006665D01*
X014031Y006605D01*
X013948Y006522D02*
X009824Y006522D01*
X009855Y006443D02*
X013898Y006443D01*
X013866Y006365D02*
X009855Y006365D01*
X009855Y006286D02*
X013858Y006286D01*
X013858Y006208D02*
X009822Y006208D01*
X009783Y006129D02*
X013882Y006129D01*
X013915Y006051D02*
X009762Y006051D01*
X009795Y005972D02*
X013987Y005972D01*
X014116Y005894D02*
X009805Y005894D01*
X009805Y005815D02*
X017066Y005815D01*
X017058Y005796D02*
X017119Y005943D01*
X017231Y006055D01*
X017377Y006115D01*
X017536Y006115D01*
X017683Y006055D01*
X017795Y005943D01*
X017855Y005796D01*
X017855Y005637D01*
X017795Y005491D01*
X017683Y005379D01*
X017536Y005318D01*
X017377Y005318D01*
X017231Y005379D01*
X017119Y005491D01*
X017058Y005637D01*
X017058Y005796D01*
X017058Y005736D02*
X009784Y005736D01*
X009752Y005658D02*
X017058Y005658D01*
X017082Y005579D02*
X009683Y005579D01*
X009565Y005501D02*
X017115Y005501D01*
X017187Y005422D02*
X013940Y005422D01*
X013983Y005405D02*
X013836Y005465D01*
X013677Y005465D01*
X013531Y005405D01*
X013419Y005293D01*
X013358Y005146D01*
X013358Y004987D01*
X013419Y004841D01*
X013531Y004729D01*
X013677Y004668D01*
X013836Y004668D01*
X013983Y004729D01*
X014095Y004841D01*
X014155Y004987D01*
X014155Y005146D01*
X014095Y005293D01*
X013983Y005405D01*
X014044Y005344D02*
X017315Y005344D01*
X017598Y005344D02*
X017920Y005344D01*
X017931Y005355D02*
X017819Y005243D01*
X017758Y005096D01*
X017758Y004937D01*
X017819Y004791D01*
X017931Y004679D01*
X018077Y004618D01*
X018236Y004618D01*
X018383Y004679D01*
X018495Y004791D01*
X018555Y004937D01*
X018555Y005096D01*
X018495Y005243D01*
X018383Y005355D01*
X018236Y005415D01*
X018077Y005415D01*
X017931Y005355D01*
X017841Y005265D02*
X014106Y005265D01*
X014139Y005187D02*
X016658Y005187D01*
X016727Y005215D02*
X016581Y005155D01*
X016469Y005043D01*
X016408Y004896D01*
X016408Y004737D01*
X016469Y004591D01*
X016581Y004479D01*
X016727Y004418D01*
X016886Y004418D01*
X017033Y004479D01*
X017145Y004591D01*
X017205Y004737D01*
X017205Y004896D01*
X017145Y005043D01*
X017033Y005155D01*
X016886Y005215D01*
X016727Y005215D01*
X016534Y005108D02*
X014155Y005108D01*
X014155Y005030D02*
X016463Y005030D01*
X016431Y004951D02*
X014140Y004951D01*
X014108Y004872D02*
X016408Y004872D01*
X016408Y004794D02*
X014048Y004794D01*
X013950Y004715D02*
X016417Y004715D01*
X016450Y004637D02*
X008955Y004637D01*
X008955Y004796D01*
X008895Y004943D01*
X008783Y005055D01*
X008636Y005115D01*
X008477Y005115D01*
X008331Y005055D01*
X008219Y004943D01*
X008158Y004796D01*
X008158Y004637D01*
X005000Y004637D01*
X005059Y004558D02*
X008191Y004558D01*
X008219Y004491D02*
X008331Y004379D01*
X008477Y004318D01*
X008636Y004318D01*
X008783Y004379D01*
X008895Y004491D01*
X008955Y004637D01*
X008955Y004715D02*
X011763Y004715D01*
X011731Y004729D02*
X011877Y004668D01*
X012036Y004668D01*
X012182Y004728D01*
X012327Y004668D01*
X012486Y004668D01*
X012633Y004729D01*
X012745Y004841D01*
X012805Y004987D01*
X012805Y005146D01*
X012745Y005293D01*
X012633Y005405D01*
X012486Y005465D01*
X012327Y005465D01*
X012182Y005405D01*
X012036Y005465D01*
X011877Y005465D01*
X011731Y005405D01*
X011619Y005293D01*
X011558Y005146D01*
X011558Y004987D01*
X011619Y004841D01*
X011731Y004729D01*
X011666Y004794D02*
X008955Y004794D01*
X008924Y004872D02*
X011606Y004872D01*
X011573Y004951D02*
X008886Y004951D01*
X008808Y005030D02*
X011558Y005030D01*
X011558Y005108D02*
X008654Y005108D01*
X008460Y005108D02*
X007405Y005108D01*
X007402Y005030D02*
X008306Y005030D01*
X008227Y004951D02*
X007370Y004951D01*
X007326Y004872D02*
X008190Y004872D01*
X008158Y004794D02*
X007248Y004794D01*
X007405Y005187D02*
X011575Y005187D01*
X011607Y005265D02*
X007377Y005265D01*
X007344Y005344D02*
X011670Y005344D01*
X011773Y005422D02*
X008296Y005422D01*
X008455Y005501D02*
X009248Y005501D01*
X009130Y005579D02*
X008533Y005579D01*
X008572Y005658D02*
X009062Y005658D01*
X009008Y005894D02*
X008605Y005894D01*
X008574Y005972D02*
X009019Y005972D01*
X009051Y006051D02*
X008537Y006051D01*
X008109Y006208D02*
X006651Y006208D01*
X006655Y006129D02*
X006940Y006129D01*
X006827Y006051D02*
X006655Y006051D01*
X006628Y005972D02*
X006760Y005972D01*
X006728Y005894D02*
X006596Y005894D01*
X006622Y005815D02*
X006708Y005815D01*
X006708Y005736D02*
X006668Y005736D01*
X006701Y005658D02*
X006720Y005658D01*
X006705Y005579D02*
X006753Y005579D01*
X006705Y005501D02*
X006809Y005501D01*
X006748Y005422D02*
X006678Y005422D01*
X006670Y005344D02*
X006646Y005344D01*
X006637Y005265D02*
X006569Y005265D01*
X007317Y005422D02*
X008117Y005422D01*
X007959Y005501D02*
X007405Y005501D01*
X007461Y005579D02*
X007880Y005579D01*
X007841Y005658D02*
X007493Y005658D01*
X007505Y005736D02*
X007808Y005736D01*
X007808Y005815D02*
X007505Y005815D01*
X007486Y005894D02*
X007808Y005894D01*
X007839Y005972D02*
X007453Y005972D01*
X007387Y006051D02*
X007877Y006051D01*
X007955Y006129D02*
X007274Y006129D01*
X008158Y004715D02*
X004907Y004715D01*
X005091Y004480D02*
X008230Y004480D01*
X008219Y004491D02*
X008158Y004637D01*
X008308Y004401D02*
X005105Y004401D01*
X005105Y004323D02*
X008466Y004323D01*
X008647Y004323D02*
X009760Y004323D01*
X009728Y004244D02*
X005087Y004244D01*
X005055Y004166D02*
X009708Y004166D01*
X009708Y004087D02*
X004991Y004087D01*
X004884Y004009D02*
X009720Y004009D01*
X009827Y004401D02*
X008805Y004401D01*
X008884Y004480D02*
X009941Y004480D01*
X010272Y004480D02*
X016580Y004480D01*
X016501Y004558D02*
X008923Y004558D01*
X010386Y004401D02*
X010427Y004401D01*
X010886Y004401D02*
X012777Y004401D01*
X012781Y004405D02*
X012669Y004293D01*
X012608Y004146D01*
X012608Y003987D01*
X012669Y003841D01*
X012781Y003729D01*
X012927Y003668D01*
X013086Y003668D01*
X013233Y003729D01*
X013345Y003841D01*
X013405Y003987D01*
X013405Y004146D01*
X013345Y004293D01*
X013233Y004405D01*
X013086Y004465D01*
X012927Y004465D01*
X012781Y004405D01*
X012699Y004323D02*
X010965Y004323D01*
X011015Y004244D02*
X012649Y004244D01*
X012616Y004166D02*
X011047Y004166D01*
X011055Y004087D02*
X012608Y004087D01*
X012608Y004009D02*
X011055Y004009D01*
X011032Y003930D02*
X012632Y003930D01*
X012664Y003851D02*
X010999Y003851D01*
X010927Y003773D02*
X012737Y003773D01*
X012864Y003694D02*
X011937Y003694D01*
X012071Y003616D02*
X014108Y003616D01*
X014108Y003587D02*
X014169Y003441D01*
X014281Y003329D01*
X014427Y003268D01*
X014586Y003268D01*
X014733Y003329D01*
X014845Y003441D01*
X014905Y003587D01*
X014905Y003746D01*
X014845Y003893D01*
X014733Y004005D01*
X014586Y004065D01*
X014427Y004065D01*
X014281Y004005D01*
X014169Y003893D01*
X014108Y003746D01*
X014108Y003587D01*
X014129Y003537D02*
X012147Y003537D01*
X012179Y003459D02*
X014161Y003459D01*
X014229Y003380D02*
X012205Y003380D01*
X012205Y003302D02*
X014346Y003302D01*
X014667Y003302D02*
X017160Y003302D01*
X017158Y003223D02*
X012199Y003223D01*
X012167Y003145D02*
X017158Y003145D01*
X017188Y003066D02*
X012120Y003066D01*
X012041Y002987D02*
X017222Y002987D01*
X017193Y003380D02*
X014784Y003380D01*
X014852Y003459D02*
X017235Y003459D01*
X017313Y003537D02*
X014885Y003537D01*
X014905Y003616D02*
X032607Y003616D01*
X032607Y003694D02*
X027348Y003694D01*
X027333Y003679D02*
X027445Y003791D01*
X027505Y003937D01*
X027505Y004096D01*
X027445Y004243D01*
X027333Y004355D01*
X027186Y004415D01*
X027027Y004415D01*
X026988Y004399D01*
X026933Y004455D01*
X026786Y004515D01*
X026627Y004515D01*
X026481Y004455D01*
X026369Y004343D01*
X026308Y004196D01*
X026308Y004037D01*
X026369Y003891D01*
X026481Y003779D01*
X026627Y003718D01*
X026786Y003718D01*
X026825Y003734D01*
X026881Y003679D01*
X027027Y003618D01*
X027186Y003618D01*
X027333Y003679D01*
X027427Y003773D02*
X032607Y003773D01*
X032607Y003851D02*
X027470Y003851D01*
X027502Y003930D02*
X032607Y003930D01*
X032607Y004009D02*
X029834Y004009D01*
X029883Y004029D02*
X029736Y003968D01*
X029577Y003968D01*
X029431Y004029D01*
X029332Y004128D01*
X029233Y004029D01*
X029086Y003968D01*
X028927Y003968D01*
X028781Y004029D01*
X028669Y004141D01*
X028608Y004287D01*
X028608Y004446D01*
X028669Y004593D01*
X028683Y004607D01*
X028631Y004629D01*
X028519Y004741D01*
X028458Y004887D01*
X028458Y005046D01*
X028519Y005193D01*
X028631Y005305D01*
X028777Y005365D01*
X028936Y005365D01*
X029083Y005305D01*
X029195Y005193D01*
X029255Y005046D01*
X029255Y004887D01*
X029195Y004741D01*
X029180Y004726D01*
X029233Y004705D01*
X029332Y004606D01*
X029431Y004705D01*
X029577Y004765D01*
X029736Y004765D01*
X029883Y004705D01*
X029995Y004593D01*
X030055Y004446D01*
X030055Y004287D01*
X029995Y004141D01*
X029883Y004029D01*
X029941Y004087D02*
X032607Y004087D01*
X032607Y004166D02*
X030005Y004166D01*
X030037Y004244D02*
X032607Y004244D01*
X032607Y004323D02*
X030055Y004323D01*
X030055Y004401D02*
X032607Y004401D01*
X032607Y004480D02*
X030041Y004480D01*
X030009Y004558D02*
X032607Y004558D01*
X032607Y004637D02*
X029950Y004637D01*
X029857Y004715D02*
X032607Y004715D01*
X032607Y004794D02*
X031699Y004794D01*
X031636Y004768D02*
X031783Y004829D01*
X031895Y004941D01*
X031955Y005087D01*
X031955Y005246D01*
X031895Y005393D01*
X031783Y005505D01*
X031766Y005512D01*
X031845Y005591D01*
X031905Y005737D01*
X031905Y005736D02*
X032607Y005736D01*
X032607Y005658D02*
X031872Y005658D01*
X031905Y005737D02*
X031905Y005896D01*
X031845Y006043D01*
X031759Y006128D01*
X031883Y006179D01*
X031995Y006291D01*
X032055Y006437D01*
X032055Y006596D01*
X031995Y006743D01*
X031904Y006834D01*
X031905Y006837D01*
X031905Y006996D01*
X031845Y007143D01*
X031733Y007255D01*
X031586Y007315D01*
X031427Y007315D01*
X031281Y007255D01*
X031169Y007143D01*
X031108Y006996D01*
X031108Y006837D01*
X031169Y006691D01*
X031260Y006600D01*
X031258Y006596D01*
X031258Y006437D01*
X031319Y006291D01*
X031404Y006206D01*
X031281Y006155D01*
X031169Y006043D01*
X031108Y005896D01*
X031108Y005737D01*
X031169Y005591D01*
X031281Y005479D01*
X031298Y005472D01*
X031219Y005393D01*
X031158Y005246D01*
X031158Y005087D01*
X031219Y004941D01*
X031331Y004829D01*
X031477Y004768D01*
X031636Y004768D01*
X031826Y004872D02*
X032607Y004872D01*
X032607Y004951D02*
X031899Y004951D01*
X031931Y005030D02*
X032607Y005030D01*
X032607Y005108D02*
X031955Y005108D01*
X031955Y005187D02*
X032607Y005187D01*
X032607Y005265D02*
X031947Y005265D01*
X031915Y005344D02*
X032607Y005344D01*
X032607Y005422D02*
X031865Y005422D01*
X031786Y005501D02*
X032607Y005501D01*
X032607Y005579D02*
X031833Y005579D01*
X031905Y005815D02*
X032607Y005815D01*
X032607Y005894D02*
X031905Y005894D01*
X031874Y005972D02*
X032607Y005972D01*
X032607Y006051D02*
X031837Y006051D01*
X031763Y006129D02*
X032607Y006129D01*
X032607Y006208D02*
X031911Y006208D01*
X031990Y006286D02*
X032607Y006286D01*
X032607Y006365D02*
X032025Y006365D01*
X032055Y006443D02*
X032607Y006443D01*
X032607Y006522D02*
X032445Y006522D01*
X032268Y006522D02*
X032055Y006522D01*
X032054Y006600D02*
X032109Y006600D01*
X032031Y006679D02*
X032021Y006679D01*
X031991Y006758D02*
X031980Y006758D01*
X031959Y006836D02*
X031905Y006836D01*
X031905Y006915D02*
X031958Y006915D01*
X031958Y006993D02*
X031905Y006993D01*
X031874Y007072D02*
X031989Y007072D01*
X032026Y007150D02*
X031837Y007150D01*
X031759Y007229D02*
X032105Y007229D01*
X032258Y007307D02*
X031606Y007307D01*
X031408Y007307D02*
X027330Y007307D01*
X027345Y007293D02*
X027233Y007405D01*
X027086Y007465D01*
X026927Y007465D01*
X026781Y007405D01*
X026669Y007293D01*
X026608Y007146D01*
X026608Y006987D01*
X026669Y006841D01*
X026781Y006729D01*
X026927Y006668D01*
X027086Y006668D01*
X027233Y006729D01*
X027345Y006841D01*
X027405Y006987D01*
X027405Y007146D01*
X027345Y007293D01*
X027371Y007229D02*
X031255Y007229D01*
X031176Y007150D02*
X027404Y007150D01*
X027405Y007072D02*
X031139Y007072D01*
X031108Y006993D02*
X027405Y006993D01*
X027375Y006915D02*
X031108Y006915D01*
X031109Y006836D02*
X027340Y006836D01*
X027261Y006758D02*
X031141Y006758D01*
X031181Y006679D02*
X027474Y006679D01*
X027533Y006655D02*
X027386Y006715D01*
X027227Y006715D01*
X027081Y006655D01*
X026969Y006543D01*
X026908Y006396D01*
X026908Y006365D01*
X026786Y006415D01*
X026727Y006415D01*
X026695Y006493D01*
X026583Y006605D01*
X026436Y006665D01*
X026277Y006665D01*
X026131Y006605D01*
X026116Y006590D01*
X026095Y006643D01*
X025983Y006755D01*
X025905Y006787D01*
X025905Y006797D01*
X025983Y006829D01*
X026095Y006941D01*
X026150Y007074D01*
X026283Y007129D01*
X026395Y007241D01*
X026455Y007387D01*
X026455Y007546D01*
X026395Y007693D01*
X026283Y007805D01*
X026136Y007865D01*
X025977Y007865D01*
X025831Y007805D01*
X025719Y007693D01*
X025664Y007560D01*
X025531Y007505D01*
X025419Y007393D01*
X025358Y007246D01*
X025358Y007137D01*
X025281Y007105D01*
X025169Y006993D01*
X021297Y006993D01*
X021345Y007041D02*
X021377Y007118D01*
X021486Y007118D01*
X021633Y007179D01*
X021745Y007291D01*
X021805Y007437D01*
X021805Y007596D01*
X021745Y007743D01*
X021633Y007855D01*
X021486Y007915D01*
X021327Y007915D01*
X021205Y007865D01*
X021205Y007896D01*
X021145Y008043D01*
X021033Y008155D01*
X020886Y008215D01*
X020727Y008215D01*
X020581Y008155D01*
X020469Y008043D01*
X020408Y007896D01*
X020408Y007787D01*
X020331Y007755D01*
X020219Y007643D01*
X020158Y007496D01*
X020158Y007337D01*
X020219Y007191D01*
X020331Y007079D01*
X020477Y007018D01*
X020636Y007018D01*
X020675Y007034D01*
X020781Y006929D01*
X020927Y006868D01*
X021086Y006868D01*
X021233Y006929D01*
X021345Y007041D01*
X021357Y007072D02*
X025248Y007072D01*
X025169Y006993D02*
X025122Y006880D01*
X025036Y006915D01*
X024877Y006915D01*
X024731Y006855D01*
X024619Y006743D01*
X024558Y006596D01*
X024558Y006437D01*
X024619Y006291D01*
X024731Y006179D01*
X024877Y006118D01*
X024908Y006118D01*
X024908Y006087D01*
X024968Y005942D01*
X024908Y005796D01*
X024908Y005637D01*
X024969Y005491D01*
X025081Y005379D01*
X025227Y005318D01*
X025386Y005318D01*
X025533Y005379D01*
X025645Y005491D01*
X025705Y005637D01*
X025705Y005796D01*
X025645Y005942D01*
X025677Y006018D01*
X025836Y006018D01*
X025983Y006079D01*
X025997Y006093D01*
X026019Y006041D01*
X026131Y005929D01*
X026277Y005868D01*
X026337Y005868D01*
X026369Y005791D01*
X026481Y005679D01*
X026627Y005618D01*
X026786Y005618D01*
X026933Y005679D01*
X026968Y005714D01*
X027019Y005591D01*
X027131Y005479D01*
X027277Y005418D01*
X027436Y005418D01*
X027583Y005479D01*
X027607Y005503D01*
X027681Y005429D01*
X027827Y005368D01*
X027986Y005368D01*
X028133Y005429D01*
X028245Y005541D01*
X028305Y005687D01*
X028305Y005846D01*
X028245Y005993D01*
X028133Y006105D01*
X027986Y006165D01*
X027827Y006165D01*
X027681Y006105D01*
X027657Y006081D01*
X027645Y006092D01*
X027705Y006237D01*
X027705Y006396D01*
X027645Y006543D01*
X027533Y006655D01*
X027587Y006600D02*
X029376Y006600D01*
X029381Y006605D02*
X029269Y006493D01*
X029208Y006346D01*
X029208Y006187D01*
X029269Y006041D01*
X029381Y005929D01*
X029410Y005917D01*
X029381Y005905D01*
X029269Y005793D01*
X029208Y005646D01*
X029208Y005487D01*
X029269Y005341D01*
X029381Y005229D01*
X029527Y005168D01*
X029686Y005168D01*
X029833Y005229D01*
X029945Y005341D01*
X030005Y005487D01*
X030005Y005646D01*
X029945Y005793D01*
X029833Y005905D01*
X029804Y005917D01*
X029833Y005929D01*
X029945Y006041D01*
X030005Y006187D01*
X030005Y006346D01*
X029945Y006493D01*
X029833Y006605D01*
X029686Y006665D01*
X029527Y006665D01*
X029381Y006605D01*
X029298Y006522D02*
X027653Y006522D01*
X027686Y006443D02*
X029248Y006443D01*
X029216Y006365D02*
X027705Y006365D01*
X027705Y006286D02*
X029208Y006286D01*
X029208Y006208D02*
X027693Y006208D01*
X027661Y006129D02*
X027740Y006129D01*
X028074Y006129D02*
X029232Y006129D01*
X029265Y006051D02*
X028187Y006051D01*
X028253Y005972D02*
X029337Y005972D01*
X029370Y005894D02*
X028286Y005894D01*
X028305Y005815D02*
X029291Y005815D01*
X029245Y005736D02*
X028305Y005736D01*
X028293Y005658D02*
X029213Y005658D01*
X029208Y005579D02*
X028261Y005579D01*
X028205Y005501D02*
X029208Y005501D01*
X029235Y005422D02*
X028117Y005422D01*
X027696Y005422D02*
X027446Y005422D01*
X027605Y005501D02*
X027609Y005501D01*
X027267Y005422D02*
X025576Y005422D01*
X025649Y005501D02*
X027109Y005501D01*
X027030Y005579D02*
X025681Y005579D01*
X025705Y005658D02*
X026531Y005658D01*
X026423Y005736D02*
X025705Y005736D01*
X025698Y005815D02*
X026359Y005815D01*
X026216Y005894D02*
X025665Y005894D01*
X025658Y005972D02*
X026087Y005972D01*
X026015Y006051D02*
X025915Y006051D01*
X025677Y006018D02*
X025677Y006018D01*
X024956Y005972D02*
X023055Y005972D01*
X023055Y006046D02*
X023055Y005887D01*
X022995Y005741D01*
X022883Y005629D01*
X022736Y005568D01*
X022577Y005568D01*
X022431Y005629D01*
X022319Y005741D01*
X022258Y005887D01*
X022258Y006046D01*
X022319Y006193D01*
X022374Y006248D01*
X022358Y006287D01*
X022358Y006446D01*
X022419Y006593D01*
X022531Y006705D01*
X022677Y006765D01*
X022836Y006765D01*
X022983Y006705D01*
X023095Y006593D01*
X023155Y006446D01*
X023155Y006287D01*
X023095Y006141D01*
X023039Y006085D01*
X023055Y006046D01*
X023054Y006051D02*
X024923Y006051D01*
X024850Y006129D02*
X023083Y006129D01*
X023122Y006208D02*
X024702Y006208D01*
X024623Y006286D02*
X023155Y006286D01*
X023155Y006365D02*
X024588Y006365D01*
X024558Y006443D02*
X023155Y006443D01*
X023124Y006522D02*
X024558Y006522D01*
X024560Y006600D02*
X023087Y006600D01*
X023008Y006679D02*
X024592Y006679D01*
X024634Y006758D02*
X022855Y006758D01*
X022658Y006758D02*
X017880Y006758D01*
X017905Y006696D02*
X017845Y006843D01*
X017733Y006955D01*
X017586Y007015D01*
X017427Y007015D01*
X017281Y006955D01*
X017202Y006876D01*
X017195Y006893D01*
X017083Y007005D01*
X016936Y007065D01*
X016905Y007065D01*
X016905Y007096D01*
X016845Y007243D01*
X016733Y007355D01*
X016586Y007415D01*
X016427Y007415D01*
X016281Y007355D01*
X016169Y007243D01*
X016108Y007096D01*
X016108Y006937D01*
X016169Y006791D01*
X016281Y006679D01*
X016427Y006618D01*
X016458Y006618D01*
X016458Y006587D01*
X016519Y006441D01*
X016631Y006329D01*
X016777Y006268D01*
X016936Y006268D01*
X017083Y006329D01*
X017162Y006408D01*
X017169Y006391D01*
X017281Y006279D01*
X017427Y006218D01*
X017586Y006218D01*
X017733Y006279D01*
X017845Y006391D01*
X017905Y006537D01*
X017905Y006696D01*
X017905Y006679D02*
X022505Y006679D01*
X022426Y006600D02*
X017905Y006600D01*
X017899Y006522D02*
X022389Y006522D01*
X022358Y006443D02*
X017866Y006443D01*
X017819Y006365D02*
X020905Y006365D01*
X020881Y006355D02*
X020769Y006243D01*
X020708Y006096D01*
X020708Y005937D01*
X020769Y005791D01*
X020881Y005679D01*
X020913Y005665D01*
X020827Y005665D01*
X020681Y005605D01*
X020569Y005493D01*
X020508Y005346D01*
X020508Y005187D01*
X018518Y005187D01*
X018550Y005108D02*
X020541Y005108D01*
X020569Y005041D02*
X020681Y004929D01*
X020827Y004868D01*
X020986Y004868D01*
X020988Y004869D01*
X020958Y004796D01*
X020958Y004637D01*
X019047Y004637D01*
X019045Y004643D02*
X018933Y004755D01*
X018786Y004815D01*
X018627Y004815D01*
X018481Y004755D01*
X018369Y004643D01*
X018308Y004496D01*
X018308Y004337D01*
X018369Y004191D01*
X018481Y004079D01*
X018627Y004018D01*
X018786Y004018D01*
X018933Y004079D01*
X019045Y004191D01*
X019105Y004337D01*
X019105Y004496D01*
X019045Y004643D01*
X019080Y004558D02*
X020991Y004558D01*
X020936Y004515D02*
X020777Y004515D01*
X020631Y004455D01*
X020519Y004343D01*
X020458Y004196D01*
X020458Y004037D01*
X020519Y003891D01*
X020631Y003779D01*
X020777Y003718D01*
X020936Y003718D01*
X021083Y003779D01*
X021195Y003891D01*
X021255Y004037D01*
X021255Y004196D01*
X021195Y004343D01*
X021178Y004359D01*
X021277Y004318D01*
X021436Y004318D01*
X021583Y004379D01*
X021695Y004491D01*
X021755Y004637D01*
X023282Y004637D01*
X023327Y004618D02*
X023486Y004618D01*
X023632Y004679D01*
X023669Y004591D01*
X023781Y004479D01*
X023927Y004418D01*
X024086Y004418D01*
X024233Y004479D01*
X024307Y004553D01*
X024331Y004529D01*
X024477Y004468D01*
X024636Y004468D01*
X024783Y004529D01*
X024895Y004641D01*
X024955Y004787D01*
X024955Y004946D01*
X024895Y005093D01*
X024783Y005205D01*
X024636Y005265D01*
X024477Y005265D01*
X023722Y005265D01*
X023745Y005243D02*
X023633Y005355D01*
X023486Y005415D01*
X023327Y005415D01*
X023181Y005355D01*
X023069Y005243D01*
X023008Y005096D01*
X023008Y004937D01*
X023069Y004791D01*
X023181Y004679D01*
X023327Y004618D01*
X023531Y004637D02*
X023650Y004637D01*
X023701Y004558D02*
X021723Y004558D01*
X021755Y004637D02*
X021755Y004796D01*
X021695Y004943D01*
X021583Y005055D01*
X021436Y005115D01*
X021277Y005115D01*
X021275Y005115D01*
X021305Y005187D01*
X023046Y005187D01*
X023013Y005108D02*
X021454Y005108D01*
X021305Y005187D02*
X021305Y005346D01*
X021245Y005493D01*
X021133Y005605D01*
X021100Y005618D01*
X021186Y005618D01*
X021333Y005679D01*
X021445Y005791D01*
X021505Y005937D01*
X021505Y006096D01*
X021445Y006243D01*
X021333Y006355D01*
X021186Y006415D01*
X021027Y006415D01*
X020881Y006355D01*
X020812Y006286D02*
X017740Y006286D01*
X017687Y006051D02*
X020708Y006051D01*
X020708Y005972D02*
X017765Y005972D01*
X017815Y005894D02*
X020726Y005894D01*
X020759Y005815D02*
X017848Y005815D01*
X017855Y005736D02*
X020823Y005736D01*
X020809Y005658D02*
X017855Y005658D01*
X017831Y005579D02*
X020655Y005579D01*
X020577Y005501D02*
X017799Y005501D01*
X017726Y005422D02*
X020540Y005422D01*
X020508Y005344D02*
X018394Y005344D01*
X018472Y005265D02*
X020508Y005265D01*
X020508Y005187D02*
X020569Y005041D01*
X020580Y005030D02*
X018555Y005030D01*
X018555Y004951D02*
X020659Y004951D01*
X020817Y004872D02*
X018528Y004872D01*
X018496Y004794D02*
X018575Y004794D01*
X018441Y004715D02*
X018419Y004715D01*
X018366Y004637D02*
X018281Y004637D01*
X018334Y004558D02*
X017112Y004558D01*
X017164Y004637D02*
X018032Y004637D01*
X017894Y004715D02*
X017196Y004715D01*
X017205Y004794D02*
X017817Y004794D01*
X017785Y004872D02*
X017205Y004872D01*
X017183Y004951D02*
X017758Y004951D01*
X017758Y005030D02*
X017150Y005030D01*
X017079Y005108D02*
X017763Y005108D01*
X017796Y005187D02*
X016956Y005187D01*
X017034Y004480D02*
X018308Y004480D01*
X018308Y004401D02*
X013236Y004401D01*
X013315Y004323D02*
X018314Y004323D01*
X018347Y004244D02*
X013365Y004244D01*
X013397Y004166D02*
X018394Y004166D01*
X018473Y004087D02*
X013405Y004087D01*
X013405Y004009D02*
X014290Y004009D01*
X014206Y003930D02*
X013382Y003930D01*
X013349Y003851D02*
X014152Y003851D01*
X014119Y003773D02*
X013277Y003773D01*
X013149Y003694D02*
X014108Y003694D01*
X014724Y004009D02*
X020470Y004009D01*
X020458Y004087D02*
X018941Y004087D01*
X019019Y004166D02*
X020458Y004166D01*
X020478Y004244D02*
X019067Y004244D01*
X019099Y004323D02*
X020510Y004323D01*
X020577Y004401D02*
X019105Y004401D01*
X019105Y004480D02*
X020691Y004480D01*
X020936Y004515D02*
X021035Y004474D01*
X021019Y004491D01*
X020958Y004637D01*
X020958Y004715D02*
X018972Y004715D01*
X018838Y004794D02*
X020958Y004794D01*
X021022Y004480D02*
X021030Y004480D01*
X021203Y004323D02*
X021266Y004323D01*
X021236Y004244D02*
X022299Y004244D01*
X022319Y004293D02*
X022258Y004146D01*
X022258Y003987D01*
X022319Y003841D01*
X022431Y003729D01*
X022577Y003668D01*
X022736Y003668D01*
X022883Y003729D01*
X022995Y003841D01*
X023055Y003987D01*
X023055Y004146D01*
X022995Y004293D01*
X022883Y004405D01*
X022736Y004465D01*
X022577Y004465D01*
X022431Y004405D01*
X022319Y004293D01*
X022349Y004323D02*
X021447Y004323D01*
X021605Y004401D02*
X022427Y004401D01*
X022266Y004166D02*
X021255Y004166D01*
X021255Y004087D02*
X022258Y004087D01*
X022258Y004009D02*
X021243Y004009D01*
X021211Y003930D02*
X022282Y003930D01*
X022314Y003851D02*
X021155Y003851D01*
X021068Y003773D02*
X022387Y003773D01*
X022514Y003694D02*
X014905Y003694D01*
X014894Y003773D02*
X020645Y003773D01*
X020558Y003851D02*
X014862Y003851D01*
X014807Y003930D02*
X020502Y003930D01*
X021104Y003537D02*
X032607Y003537D01*
X032607Y003459D02*
X021229Y003459D01*
X021300Y003380D02*
X032607Y003380D01*
X032607Y003302D02*
X021332Y003302D01*
X021355Y003223D02*
X032607Y003223D01*
X032607Y003145D02*
X021355Y003145D01*
X021346Y003066D02*
X032607Y003066D01*
X032607Y002987D02*
X021314Y002987D01*
X021263Y002909D02*
X032607Y002909D01*
X032607Y002830D02*
X021184Y002830D01*
X022799Y003694D02*
X023265Y003694D01*
X023281Y003679D02*
X023169Y003791D01*
X023108Y003937D01*
X023108Y004096D01*
X023169Y004243D01*
X023281Y004355D01*
X023427Y004415D01*
X023586Y004415D01*
X023733Y004355D01*
X023845Y004243D01*
X023905Y004096D01*
X023905Y003937D01*
X023845Y003791D01*
X023733Y003679D01*
X023586Y003618D01*
X023427Y003618D01*
X023281Y003679D01*
X023187Y003773D02*
X022927Y003773D01*
X022999Y003851D02*
X023144Y003851D01*
X023111Y003930D02*
X023032Y003930D01*
X023055Y004009D02*
X023108Y004009D01*
X023108Y004087D02*
X023055Y004087D01*
X023047Y004166D02*
X023137Y004166D01*
X023170Y004244D02*
X023015Y004244D01*
X022965Y004323D02*
X023249Y004323D01*
X023393Y004401D02*
X022886Y004401D01*
X023144Y004715D02*
X021755Y004715D01*
X021755Y004794D02*
X023067Y004794D01*
X023035Y004872D02*
X021724Y004872D01*
X021686Y004951D02*
X023008Y004951D01*
X023008Y005030D02*
X021608Y005030D01*
X021305Y005265D02*
X023091Y005265D01*
X023170Y005344D02*
X021305Y005344D01*
X021274Y005422D02*
X025037Y005422D01*
X024965Y005501D02*
X021236Y005501D01*
X021158Y005579D02*
X022550Y005579D01*
X022402Y005658D02*
X021282Y005658D01*
X021390Y005736D02*
X022323Y005736D01*
X022288Y005815D02*
X021455Y005815D01*
X021487Y005894D02*
X022258Y005894D01*
X022258Y005972D02*
X021505Y005972D01*
X021505Y006051D02*
X022260Y006051D01*
X022292Y006129D02*
X021492Y006129D01*
X021459Y006208D02*
X022334Y006208D01*
X022358Y006286D02*
X021401Y006286D01*
X021308Y006365D02*
X022358Y006365D01*
X023055Y005894D02*
X024948Y005894D01*
X024916Y005815D02*
X023025Y005815D01*
X022990Y005736D02*
X024908Y005736D01*
X024908Y005658D02*
X022912Y005658D01*
X022763Y005579D02*
X024932Y005579D01*
X025165Y005344D02*
X023644Y005344D01*
X023745Y005243D02*
X023781Y005155D01*
X023927Y005215D01*
X024086Y005215D01*
X024233Y005155D01*
X024257Y005131D01*
X024331Y005205D01*
X024477Y005265D01*
X024637Y005265D02*
X028591Y005265D01*
X028516Y005187D02*
X024801Y005187D01*
X024879Y005108D02*
X028484Y005108D01*
X028458Y005030D02*
X024921Y005030D01*
X024953Y004951D02*
X028458Y004951D01*
X028464Y004872D02*
X024955Y004872D01*
X024955Y004794D02*
X028497Y004794D01*
X028544Y004715D02*
X024926Y004715D01*
X024891Y004637D02*
X028623Y004637D01*
X028654Y004558D02*
X024812Y004558D01*
X024664Y004480D02*
X026541Y004480D01*
X026427Y004401D02*
X025970Y004401D01*
X025936Y004415D02*
X026083Y004355D01*
X026195Y004243D01*
X026255Y004096D01*
X026255Y003937D01*
X026195Y003791D01*
X026083Y003679D01*
X025936Y003618D01*
X025777Y003618D01*
X025631Y003679D01*
X025519Y003791D01*
X025458Y003937D01*
X025458Y004096D01*
X025519Y004243D01*
X025631Y004355D01*
X025777Y004415D01*
X025936Y004415D01*
X025743Y004401D02*
X023620Y004401D01*
X023765Y004323D02*
X025599Y004323D01*
X025520Y004244D02*
X023843Y004244D01*
X023877Y004166D02*
X025487Y004166D01*
X025458Y004087D02*
X023905Y004087D01*
X023905Y004009D02*
X025458Y004009D01*
X025461Y003930D02*
X023902Y003930D01*
X023870Y003851D02*
X025494Y003851D01*
X025537Y003773D02*
X023827Y003773D01*
X023748Y003694D02*
X025615Y003694D01*
X026098Y003694D02*
X026865Y003694D01*
X026495Y003773D02*
X026177Y003773D01*
X026220Y003851D02*
X026408Y003851D01*
X026352Y003930D02*
X026252Y003930D01*
X026255Y004009D02*
X026320Y004009D01*
X026308Y004087D02*
X026255Y004087D01*
X026227Y004166D02*
X026308Y004166D01*
X026328Y004244D02*
X026193Y004244D01*
X026115Y004323D02*
X026360Y004323D01*
X026872Y004480D02*
X028622Y004480D01*
X028608Y004401D02*
X027220Y004401D01*
X027365Y004323D02*
X028608Y004323D01*
X028626Y004244D02*
X027443Y004244D01*
X027477Y004166D02*
X028658Y004166D01*
X028723Y004087D02*
X027505Y004087D01*
X027505Y004009D02*
X028830Y004009D01*
X029184Y004009D02*
X029480Y004009D01*
X029373Y004087D02*
X029291Y004087D01*
X029300Y004637D02*
X029363Y004637D01*
X029456Y004715D02*
X029207Y004715D01*
X029217Y004794D02*
X031415Y004794D01*
X031287Y004872D02*
X029249Y004872D01*
X029255Y004951D02*
X031214Y004951D01*
X031182Y005030D02*
X029255Y005030D01*
X029230Y005108D02*
X031158Y005108D01*
X031158Y005187D02*
X029731Y005187D01*
X029869Y005265D02*
X031166Y005265D01*
X031198Y005344D02*
X029946Y005344D01*
X029978Y005422D02*
X031248Y005422D01*
X031259Y005501D02*
X030005Y005501D01*
X030005Y005579D02*
X031180Y005579D01*
X031141Y005658D02*
X030001Y005658D01*
X029968Y005736D02*
X031108Y005736D01*
X031108Y005815D02*
X029922Y005815D01*
X029844Y005894D02*
X031108Y005894D01*
X031139Y005972D02*
X029876Y005972D01*
X029949Y006051D02*
X031177Y006051D01*
X031255Y006129D02*
X029981Y006129D01*
X030005Y006208D02*
X031402Y006208D01*
X031323Y006286D02*
X030005Y006286D01*
X029998Y006365D02*
X031288Y006365D01*
X031258Y006443D02*
X029965Y006443D01*
X029915Y006522D02*
X031258Y006522D01*
X031259Y006600D02*
X029837Y006600D01*
X028595Y007491D02*
X028655Y007637D01*
X028655Y007796D01*
X028595Y007943D01*
X028483Y008055D01*
X028336Y008115D01*
X028177Y008115D01*
X028031Y008055D01*
X027919Y007943D01*
X027858Y007796D01*
X027858Y007637D01*
X027919Y007491D01*
X028031Y007379D01*
X028177Y007318D01*
X028336Y007318D01*
X028483Y007379D01*
X028595Y007491D01*
X028568Y007464D02*
X032607Y007464D01*
X032607Y007386D02*
X028490Y007386D01*
X028616Y007543D02*
X032607Y007543D01*
X032607Y007621D02*
X028649Y007621D01*
X028655Y007700D02*
X032607Y007700D01*
X032607Y007779D02*
X028655Y007779D01*
X028630Y007857D02*
X032607Y007857D01*
X032607Y007936D02*
X028598Y007936D01*
X028523Y008014D02*
X032607Y008014D01*
X032607Y008093D02*
X028391Y008093D01*
X028123Y008093D02*
X027486Y008093D01*
X027505Y008046D02*
X027445Y008193D01*
X027333Y008305D01*
X027186Y008365D01*
X027027Y008365D01*
X026881Y008305D01*
X026769Y008193D01*
X026708Y008046D01*
X026708Y007887D01*
X026769Y007741D01*
X026881Y007629D01*
X027027Y007568D01*
X027186Y007568D01*
X027333Y007629D01*
X027445Y007741D01*
X027505Y007887D01*
X027505Y008046D01*
X027505Y008014D02*
X027990Y008014D01*
X027916Y007936D02*
X027505Y007936D01*
X027493Y007857D02*
X027883Y007857D01*
X027858Y007779D02*
X027460Y007779D01*
X027404Y007700D02*
X027858Y007700D01*
X027865Y007621D02*
X027315Y007621D01*
X027251Y007386D02*
X028024Y007386D01*
X027945Y007464D02*
X027089Y007464D01*
X026925Y007464D02*
X026455Y007464D01*
X026455Y007386D02*
X026762Y007386D01*
X026683Y007307D02*
X026422Y007307D01*
X026383Y007229D02*
X026642Y007229D01*
X026610Y007150D02*
X026304Y007150D01*
X026149Y007072D02*
X026608Y007072D01*
X026608Y006993D02*
X026116Y006993D01*
X026068Y006915D02*
X026638Y006915D01*
X026674Y006836D02*
X025990Y006836D01*
X025976Y006758D02*
X026752Y006758D01*
X026901Y006679D02*
X026058Y006679D01*
X026112Y006600D02*
X026126Y006600D01*
X026587Y006600D02*
X027026Y006600D01*
X026960Y006522D02*
X026665Y006522D01*
X026715Y006443D02*
X026928Y006443D01*
X027112Y006679D02*
X027139Y006679D01*
X026991Y005658D02*
X026882Y005658D01*
X025448Y005344D02*
X028725Y005344D01*
X028988Y005344D02*
X029267Y005344D01*
X029344Y005265D02*
X029122Y005265D01*
X029197Y005187D02*
X029482Y005187D01*
X026993Y004401D02*
X026986Y004401D01*
X024449Y004480D02*
X024234Y004480D01*
X023780Y004480D02*
X021684Y004480D01*
X023768Y005187D02*
X023858Y005187D01*
X024156Y005187D02*
X024313Y005187D01*
X024712Y006836D02*
X017847Y006836D01*
X017773Y006915D02*
X020815Y006915D01*
X020716Y006993D02*
X018297Y006993D01*
X018236Y006968D02*
X018383Y007029D01*
X018495Y007141D01*
X018555Y007287D01*
X018555Y007446D01*
X018495Y007593D01*
X018383Y007705D01*
X018236Y007765D01*
X018077Y007765D01*
X017931Y007705D01*
X017819Y007593D01*
X017758Y007446D01*
X017758Y007287D01*
X017819Y007141D01*
X017931Y007029D01*
X018077Y006968D01*
X018236Y006968D01*
X018425Y007072D02*
X020348Y007072D01*
X020259Y007150D02*
X018499Y007150D01*
X018531Y007229D02*
X020203Y007229D01*
X020170Y007307D02*
X018555Y007307D01*
X018555Y007386D02*
X020158Y007386D01*
X020158Y007464D02*
X018548Y007464D01*
X018515Y007543D02*
X019217Y007543D01*
X019277Y007518D02*
X019131Y007579D01*
X019019Y007691D01*
X018958Y007837D01*
X018958Y007996D01*
X019019Y008143D01*
X019131Y008255D01*
X019277Y008315D01*
X019436Y008315D01*
X019583Y008255D01*
X019695Y008143D01*
X019755Y007996D01*
X019755Y007837D01*
X019695Y007691D01*
X019583Y007579D01*
X019436Y007518D01*
X019277Y007518D01*
X019088Y007621D02*
X018466Y007621D01*
X018387Y007700D02*
X019015Y007700D01*
X018982Y007779D02*
X017011Y007779D01*
X017161Y007857D02*
X018958Y007857D01*
X018958Y007936D02*
X017239Y007936D01*
X017275Y008014D02*
X018965Y008014D01*
X018998Y008093D02*
X017305Y008093D01*
X017305Y008171D02*
X019047Y008171D01*
X019126Y008250D02*
X017304Y008250D01*
X017271Y008328D02*
X021782Y008328D01*
X021781Y008329D02*
X021927Y008268D01*
X022086Y008268D01*
X022233Y008329D01*
X022345Y008441D01*
X022405Y008587D01*
X022405Y008746D01*
X022345Y008893D01*
X022233Y009005D01*
X022086Y009065D01*
X021927Y009065D01*
X021781Y009005D01*
X021669Y008893D01*
X021608Y008746D01*
X021608Y008587D01*
X021669Y008441D01*
X021781Y008329D01*
X021703Y008407D02*
X017230Y008407D01*
X017152Y008485D02*
X021650Y008485D01*
X021618Y008564D02*
X016990Y008564D01*
X016824Y008564D02*
X014047Y008564D01*
X014146Y008643D02*
X021608Y008643D01*
X021608Y008721D02*
X014207Y008721D01*
X014240Y008800D02*
X017101Y008800D01*
X016981Y008878D02*
X016510Y008878D01*
X016660Y008957D02*
X016684Y008957D01*
X016303Y008878D02*
X014255Y008878D01*
X014255Y008957D02*
X016153Y008957D01*
X016074Y009035D02*
X014239Y009035D01*
X014207Y009114D02*
X016038Y009114D01*
X016008Y009192D02*
X014145Y009192D01*
X014044Y009271D02*
X016008Y009271D01*
X016009Y009349D02*
X013883Y009349D01*
X013851Y009428D02*
X016042Y009428D01*
X016083Y009507D02*
X013781Y009507D01*
X013659Y009585D02*
X016161Y009585D01*
X017412Y008800D02*
X021630Y008800D01*
X021663Y008878D02*
X017532Y008878D01*
X017601Y008957D02*
X021733Y008957D01*
X021854Y009035D02*
X017634Y009035D01*
X017655Y009114D02*
X023207Y009114D01*
X023219Y009143D02*
X023187Y009065D01*
X023127Y009065D01*
X022981Y009005D01*
X022869Y008893D01*
X022808Y008746D01*
X022808Y008587D01*
X022869Y008441D01*
X022981Y008329D01*
X023127Y008268D01*
X023286Y008268D01*
X023433Y008329D01*
X023545Y008441D01*
X023577Y008518D01*
X023636Y008518D01*
X023783Y008579D01*
X023895Y008691D01*
X023955Y008837D01*
X023955Y008996D01*
X023895Y009143D01*
X023783Y009255D01*
X023636Y009315D01*
X023477Y009315D01*
X023331Y009255D01*
X023219Y009143D01*
X023268Y009192D02*
X017655Y009192D01*
X017645Y009271D02*
X023370Y009271D01*
X023744Y009271D02*
X024747Y009271D01*
X024781Y009305D02*
X024669Y009193D01*
X024608Y009046D01*
X024608Y008887D01*
X024669Y008741D01*
X024781Y008629D01*
X024927Y008568D01*
X025086Y008568D01*
X025232Y008628D01*
X025377Y008568D01*
X025536Y008568D01*
X025683Y008629D01*
X025795Y008741D01*
X025807Y008770D01*
X025819Y008741D01*
X025931Y008629D01*
X026019Y008592D01*
X025969Y008543D01*
X025908Y008396D01*
X025908Y008237D01*
X025969Y008091D01*
X026081Y007979D01*
X026227Y007918D01*
X026386Y007918D01*
X026533Y007979D01*
X026645Y008091D01*
X026705Y008237D01*
X026705Y008318D01*
X026733Y008329D01*
X026845Y008441D01*
X026905Y008587D01*
X026905Y008746D01*
X026845Y008893D01*
X026733Y009005D01*
X026586Y009065D01*
X026547Y009065D01*
X026495Y009193D01*
X026383Y009305D01*
X026236Y009365D01*
X026077Y009365D01*
X025931Y009305D01*
X025819Y009193D01*
X025807Y009164D01*
X025795Y009193D01*
X025683Y009305D01*
X025536Y009365D01*
X025377Y009365D01*
X025232Y009305D01*
X025086Y009365D01*
X024927Y009365D01*
X024781Y009305D01*
X024889Y009349D02*
X017613Y009349D01*
X017559Y009428D02*
X023933Y009428D01*
X023845Y009192D02*
X024669Y009192D01*
X024636Y009114D02*
X023907Y009114D01*
X023939Y009035D02*
X024608Y009035D01*
X024608Y008957D02*
X023955Y008957D01*
X023955Y008878D02*
X024612Y008878D01*
X024644Y008800D02*
X023940Y008800D01*
X023907Y008721D02*
X024688Y008721D01*
X024767Y008643D02*
X023846Y008643D01*
X023747Y008564D02*
X024774Y008564D01*
X024777Y008565D02*
X024631Y008505D01*
X024519Y008393D01*
X024458Y008246D01*
X024458Y008087D01*
X024519Y007941D01*
X024610Y007850D01*
X024608Y007846D01*
X024608Y007687D01*
X024669Y007541D01*
X024781Y007429D01*
X024927Y007368D01*
X025086Y007368D01*
X025233Y007429D01*
X025345Y007541D01*
X025405Y007687D01*
X025405Y007846D01*
X025345Y007993D01*
X025254Y008084D01*
X025255Y008087D01*
X025255Y008246D01*
X025195Y008393D01*
X025083Y008505D01*
X024936Y008565D01*
X024777Y008565D01*
X024940Y008564D02*
X025990Y008564D01*
X025945Y008485D02*
X025102Y008485D01*
X025180Y008407D02*
X025912Y008407D01*
X025908Y008328D02*
X025221Y008328D01*
X025254Y008250D02*
X025908Y008250D01*
X025935Y008171D02*
X025255Y008171D01*
X025255Y008093D02*
X025968Y008093D01*
X026045Y008014D02*
X025323Y008014D01*
X025368Y007936D02*
X026185Y007936D01*
X026156Y007857D02*
X026721Y007857D01*
X026708Y007936D02*
X026429Y007936D01*
X026568Y008014D02*
X026708Y008014D01*
X026727Y008093D02*
X026645Y008093D01*
X026678Y008171D02*
X026760Y008171D01*
X026705Y008250D02*
X026826Y008250D01*
X026732Y008328D02*
X026938Y008328D01*
X026811Y008407D02*
X032607Y008407D01*
X032607Y008485D02*
X026863Y008485D01*
X026896Y008564D02*
X027166Y008564D01*
X027131Y008579D02*
X027277Y008518D01*
X027436Y008518D01*
X027583Y008579D01*
X027695Y008691D01*
X027755Y008837D01*
X027755Y008996D01*
X027695Y009143D01*
X027583Y009255D01*
X027436Y009315D01*
X027277Y009315D01*
X027131Y009255D01*
X027019Y009143D01*
X026958Y008996D01*
X026958Y008837D01*
X027019Y008691D01*
X027131Y008579D01*
X027067Y008643D02*
X026905Y008643D01*
X026905Y008721D02*
X027006Y008721D01*
X026974Y008800D02*
X026883Y008800D01*
X026851Y008878D02*
X026958Y008878D01*
X026958Y008957D02*
X026781Y008957D01*
X026659Y009035D02*
X026974Y009035D01*
X027007Y009114D02*
X026527Y009114D01*
X026495Y009192D02*
X027068Y009192D01*
X027170Y009271D02*
X026416Y009271D01*
X026275Y009349D02*
X028010Y009349D01*
X027969Y009391D02*
X028081Y009279D01*
X028227Y009218D01*
X028386Y009218D01*
X028533Y009279D01*
X028645Y009391D01*
X028705Y009537D01*
X028705Y009696D01*
X028645Y009843D01*
X028533Y009955D01*
X028386Y010015D01*
X028227Y010015D01*
X028081Y009955D01*
X027969Y009843D01*
X027908Y009696D01*
X027908Y009537D01*
X027969Y009391D01*
X027953Y009428D02*
X024381Y009428D01*
X024460Y009507D02*
X027921Y009507D01*
X027908Y009585D02*
X024513Y009585D01*
X024546Y009664D02*
X027908Y009664D01*
X027927Y009742D02*
X024555Y009742D01*
X024555Y009821D02*
X027960Y009821D01*
X028025Y009899D02*
X024533Y009899D01*
X024501Y009978D02*
X025904Y009978D01*
X025753Y010056D02*
X024431Y010056D01*
X025543Y010842D02*
X025948Y010842D01*
X025915Y010763D02*
X025674Y010763D01*
X025748Y010685D02*
X025761Y010685D01*
X025996Y010920D02*
X013548Y010920D01*
X013555Y010999D02*
X026075Y010999D01*
X026538Y010999D02*
X027187Y010999D01*
X027227Y011015D02*
X027081Y010955D01*
X026969Y010843D01*
X026908Y010696D01*
X026908Y010537D01*
X026969Y010391D01*
X027081Y010279D01*
X027227Y010218D01*
X027386Y010218D01*
X027533Y010279D01*
X027645Y010391D01*
X027705Y010537D01*
X027705Y010696D01*
X027645Y010843D01*
X027533Y010955D01*
X027386Y011015D01*
X027227Y011015D01*
X027426Y010999D02*
X031353Y010999D01*
X031232Y011077D02*
X013555Y011077D01*
X013531Y011156D02*
X017886Y011156D01*
X017775Y011234D02*
X013498Y011234D01*
X013424Y011313D02*
X017709Y011313D01*
X017658Y011549D02*
X010952Y011549D01*
X011031Y011627D02*
X013735Y011627D01*
X013654Y011706D02*
X011072Y011706D01*
X011104Y011784D02*
X013601Y011784D01*
X013568Y011863D02*
X011105Y011863D01*
X011105Y011941D02*
X013558Y011941D01*
X013558Y012020D02*
X011075Y012020D01*
X011039Y012098D02*
X013580Y012098D01*
X013566Y012413D02*
X017739Y012413D01*
X017665Y012334D02*
X014112Y012334D01*
X014232Y012256D02*
X017633Y012256D01*
X017608Y012177D02*
X014301Y012177D01*
X014334Y012098D02*
X017608Y012098D01*
X017615Y012020D02*
X014355Y012020D01*
X014355Y011941D02*
X017648Y011941D01*
X017697Y011863D02*
X014345Y011863D01*
X014313Y011784D02*
X017760Y011784D01*
X017703Y011706D02*
X014260Y011706D01*
X014179Y011627D02*
X017671Y011627D01*
X018227Y011156D02*
X031162Y011156D01*
X031130Y011234D02*
X018338Y011234D01*
X018404Y011313D02*
X031108Y011313D01*
X031108Y011392D02*
X023643Y011392D01*
X023774Y011470D02*
X031118Y011470D01*
X031150Y011549D02*
X023848Y011549D01*
X023371Y011392D02*
X018436Y011392D01*
X017869Y012491D02*
X014242Y012491D01*
X013971Y012491D02*
X013616Y012491D01*
X012989Y012962D02*
X012914Y012962D01*
X014825Y014219D02*
X017225Y014219D01*
X017389Y014219D02*
X023936Y014219D01*
X023908Y014298D02*
X017551Y014298D01*
X017630Y014376D02*
X023908Y014376D01*
X023912Y014455D02*
X017671Y014455D01*
X017704Y014533D02*
X023944Y014533D01*
X023988Y014612D02*
X017705Y014612D01*
X017705Y014690D02*
X024066Y014690D01*
X024547Y014690D02*
X028576Y014690D01*
X028558Y014612D02*
X025615Y014612D01*
X025704Y014533D02*
X028558Y014533D01*
X028571Y014455D02*
X025760Y014455D01*
X025793Y014376D02*
X028604Y014376D01*
X028662Y014298D02*
X025805Y014298D01*
X025805Y014219D02*
X028754Y014219D01*
X028609Y014769D02*
X017675Y014769D01*
X017640Y014847D02*
X028674Y014847D01*
X028782Y014926D02*
X017561Y014926D01*
X017052Y014926D02*
X016959Y014926D01*
X016974Y014847D02*
X016901Y014847D01*
X016938Y014769D02*
X016809Y014769D01*
X016908Y014690D02*
X012355Y014690D01*
X012355Y014769D02*
X016404Y014769D01*
X016312Y014847D02*
X012355Y014847D01*
X012322Y014926D02*
X016254Y014926D01*
X016222Y015005D02*
X012283Y015005D01*
X012204Y015083D02*
X012776Y015083D01*
X013237Y015083D02*
X016208Y015083D01*
X016908Y014612D02*
X012324Y014612D01*
X012287Y014533D02*
X016910Y014533D01*
X016942Y014455D02*
X014562Y014455D01*
X014711Y014376D02*
X016983Y014376D01*
X017062Y014298D02*
X014790Y014298D01*
X014855Y014141D02*
X023969Y014141D01*
X024352Y013826D02*
X017601Y013826D01*
X017634Y013748D02*
X024274Y013748D01*
X024238Y013669D02*
X017655Y013669D01*
X017655Y013591D02*
X024208Y013591D01*
X024208Y013512D02*
X017645Y013512D01*
X017612Y013434D02*
X024209Y013434D01*
X024242Y013355D02*
X017559Y013355D01*
X017477Y013277D02*
X024283Y013277D01*
X024939Y013748D02*
X031455Y013748D01*
X031418Y013041D02*
X030795Y013041D01*
X030925Y012962D02*
X031289Y012962D01*
X031215Y012884D02*
X030998Y012884D01*
X031031Y012805D02*
X031183Y012805D01*
X031158Y012727D02*
X031055Y012727D01*
X031055Y012648D02*
X031158Y012648D01*
X031165Y012570D02*
X031048Y012570D01*
X031016Y012491D02*
X031198Y012491D01*
X031247Y012413D02*
X030966Y012413D01*
X030888Y012334D02*
X031325Y012334D01*
X031730Y011706D02*
X032607Y011706D01*
X032607Y011627D02*
X031810Y011627D01*
X031863Y011549D02*
X032607Y011549D01*
X032607Y011470D02*
X031895Y011470D01*
X031905Y011392D02*
X032607Y011392D01*
X032607Y011313D02*
X031905Y011313D01*
X031883Y011234D02*
X032607Y011234D01*
X032607Y011156D02*
X031851Y011156D01*
X031781Y011077D02*
X032607Y011077D01*
X032607Y010999D02*
X031660Y010999D01*
X032607Y010920D02*
X027567Y010920D01*
X027645Y010842D02*
X032607Y010842D01*
X032607Y010763D02*
X027678Y010763D01*
X027705Y010685D02*
X028553Y010685D01*
X028481Y010655D02*
X028369Y010543D01*
X028308Y010396D01*
X028308Y010237D01*
X028369Y010091D01*
X028481Y009979D01*
X028627Y009918D01*
X028786Y009918D01*
X028933Y009979D01*
X029045Y010091D01*
X029105Y010237D01*
X029105Y010396D01*
X029045Y010543D01*
X028933Y010655D01*
X028786Y010715D01*
X028627Y010715D01*
X028481Y010655D01*
X028432Y010606D02*
X027705Y010606D01*
X027701Y010528D02*
X028362Y010528D01*
X028330Y010449D02*
X027669Y010449D01*
X027624Y010371D02*
X028308Y010371D01*
X028308Y010292D02*
X027546Y010292D01*
X027068Y010292D02*
X026444Y010292D01*
X026375Y010213D02*
X028318Y010213D01*
X028350Y010135D02*
X026339Y010135D01*
X026260Y010056D02*
X028403Y010056D01*
X028477Y009978D02*
X028483Y009978D01*
X028588Y009899D02*
X032607Y009899D01*
X032607Y009821D02*
X028654Y009821D01*
X028686Y009742D02*
X032607Y009742D01*
X032607Y009664D02*
X028705Y009664D01*
X028705Y009585D02*
X032607Y009585D01*
X032607Y009507D02*
X028693Y009507D01*
X028660Y009428D02*
X032607Y009428D01*
X032607Y009349D02*
X028603Y009349D01*
X028514Y009271D02*
X032607Y009271D01*
X032607Y009192D02*
X027645Y009192D01*
X027707Y009114D02*
X032607Y009114D01*
X032607Y009035D02*
X027739Y009035D01*
X027755Y008957D02*
X032607Y008957D01*
X032607Y008878D02*
X027755Y008878D01*
X027740Y008800D02*
X032607Y008800D01*
X032607Y008721D02*
X027707Y008721D01*
X027646Y008643D02*
X032607Y008643D01*
X032607Y008564D02*
X027547Y008564D01*
X027387Y008250D02*
X032607Y008250D01*
X032607Y008328D02*
X027276Y008328D01*
X027454Y008171D02*
X032607Y008171D01*
X032607Y007307D02*
X032456Y007307D01*
X032604Y006600D02*
X032607Y006600D01*
X028100Y009271D02*
X027544Y009271D01*
X028136Y009978D02*
X026110Y009978D01*
X025675Y010135D02*
X025639Y010135D01*
X026574Y010371D02*
X026989Y010371D01*
X026945Y010449D02*
X026648Y010449D01*
X026681Y010528D02*
X026912Y010528D01*
X026908Y010606D02*
X026705Y010606D01*
X026705Y010685D02*
X026908Y010685D01*
X026936Y010763D02*
X026698Y010763D01*
X026666Y010842D02*
X026968Y010842D01*
X027046Y010920D02*
X026617Y010920D01*
X028371Y012177D02*
X021679Y012177D01*
X021451Y012256D02*
X028403Y012256D01*
X028460Y012334D02*
X021419Y012334D01*
X021375Y012413D02*
X028550Y012413D01*
X027680Y012727D02*
X030258Y012727D01*
X030258Y012648D02*
X027648Y012648D01*
X027574Y012570D02*
X030265Y012570D01*
X030298Y012491D02*
X027442Y012491D01*
X027705Y012805D02*
X030283Y012805D01*
X030315Y012884D02*
X027705Y012884D01*
X027699Y012962D02*
X030389Y012962D01*
X030518Y013041D02*
X027666Y013041D01*
X025060Y014062D02*
X024566Y014062D01*
X024644Y014141D02*
X025027Y014141D01*
X025008Y014219D02*
X024677Y014219D01*
X024705Y014298D02*
X025008Y014298D01*
X025020Y014376D02*
X024705Y014376D01*
X024702Y014455D02*
X025053Y014455D01*
X025109Y014533D02*
X024669Y014533D01*
X024625Y014612D02*
X025198Y014612D01*
X024755Y015554D02*
X022508Y015554D01*
X022587Y015633D02*
X024677Y015633D01*
X024639Y015711D02*
X022624Y015711D01*
X022655Y015790D02*
X024608Y015790D01*
X024608Y015869D02*
X022655Y015869D01*
X022655Y015947D02*
X024608Y015947D01*
X024641Y016026D02*
X022622Y016026D01*
X022583Y016104D02*
X024680Y016104D01*
X024759Y016183D02*
X022505Y016183D01*
X022346Y016261D02*
X024917Y016261D01*
X025077Y016968D02*
X025236Y016968D01*
X025486Y017754D02*
X026227Y017754D01*
X026317Y017754D02*
X026397Y017754D01*
X026397Y017832D02*
X026317Y017832D01*
X026317Y017911D02*
X026397Y017911D01*
X026397Y017989D02*
X026317Y017989D01*
X026317Y018068D02*
X026397Y018068D01*
X026647Y017832D02*
X027066Y017832D01*
X027030Y017754D02*
X026486Y017754D01*
X026726Y017911D02*
X026987Y017911D01*
X026934Y017989D02*
X026779Y017989D01*
X026812Y018068D02*
X026902Y018068D01*
X026879Y018146D02*
X026834Y018146D01*
X026834Y018303D02*
X026879Y018303D01*
X026908Y018382D02*
X026805Y018382D01*
X026773Y018460D02*
X026941Y018460D01*
X027004Y018539D02*
X026710Y018539D01*
X026631Y018618D02*
X027082Y018618D01*
X027105Y018696D02*
X026609Y018696D01*
X026731Y018775D02*
X026982Y018775D01*
X026904Y018853D02*
X026810Y018853D01*
X026105Y018696D02*
X025609Y018696D01*
X025631Y018618D02*
X026082Y018618D01*
X026004Y018539D02*
X025710Y018539D01*
X025773Y018460D02*
X025941Y018460D01*
X025908Y018382D02*
X025805Y018382D01*
X025834Y018303D02*
X025879Y018303D01*
X025879Y018146D02*
X025834Y018146D01*
X025812Y018068D02*
X025902Y018068D01*
X025934Y017989D02*
X025779Y017989D01*
X025726Y017911D02*
X025987Y017911D01*
X026066Y017832D02*
X025647Y017832D01*
X025731Y018775D02*
X025982Y018775D01*
X025904Y018853D02*
X025810Y018853D01*
X025830Y019560D02*
X025883Y019560D01*
X025962Y019639D02*
X025752Y019639D01*
X025658Y019717D02*
X026056Y019717D01*
X026658Y019717D02*
X027056Y019717D01*
X026962Y019639D02*
X026752Y019639D01*
X026830Y019560D02*
X026883Y019560D01*
X027658Y019717D02*
X028056Y019717D01*
X027962Y019639D02*
X027752Y019639D01*
X027830Y019560D02*
X027883Y019560D01*
X028658Y019717D02*
X029056Y019717D01*
X028962Y019639D02*
X028752Y019639D01*
X028830Y019560D02*
X028883Y019560D01*
X029658Y019717D02*
X030056Y019717D01*
X029962Y019639D02*
X029752Y019639D01*
X029830Y019560D02*
X029883Y019560D01*
X030658Y019717D02*
X032607Y019717D01*
X032607Y019639D02*
X030752Y019639D01*
X030830Y019560D02*
X032607Y019560D01*
X032607Y019482D02*
X030872Y019482D01*
X030905Y019403D02*
X032607Y019403D01*
X032607Y019324D02*
X030934Y019324D01*
X030934Y019246D02*
X032607Y019246D01*
X032607Y019167D02*
X030934Y019167D01*
X030929Y019089D02*
X032607Y019089D01*
X032607Y019010D02*
X030896Y019010D01*
X030864Y018932D02*
X032607Y018932D01*
X032607Y018853D02*
X030810Y018853D01*
X030731Y018775D02*
X032607Y018775D01*
X032607Y018696D02*
X030694Y018696D01*
X030773Y018618D02*
X032607Y018618D01*
X032607Y018539D02*
X030848Y018539D01*
X030881Y018460D02*
X032607Y018460D01*
X032607Y018382D02*
X030913Y018382D01*
X030934Y018303D02*
X032607Y018303D01*
X032607Y018225D02*
X030934Y018225D01*
X030934Y018146D02*
X032607Y018146D01*
X032607Y018068D02*
X030920Y018068D01*
X030887Y017989D02*
X032607Y017989D01*
X032607Y017911D02*
X030855Y017911D01*
X030789Y017832D02*
X032607Y017832D01*
X032607Y017754D02*
X030710Y017754D01*
X030558Y017675D02*
X032607Y017675D01*
X032607Y019796D02*
X023250Y019796D01*
X023250Y019874D02*
X032607Y019874D01*
X032607Y019953D02*
X023235Y019953D01*
X023250Y020031D02*
X032607Y020031D01*
X032607Y020110D02*
X023250Y020110D01*
X023250Y020188D02*
X032607Y020188D01*
X032607Y020267D02*
X023250Y020267D01*
X023176Y020346D02*
X032607Y020346D01*
X032607Y020424D02*
X023097Y020424D01*
X023019Y020503D02*
X032607Y020503D01*
X032607Y020581D02*
X011119Y020581D01*
X011183Y020555D02*
X011036Y020615D01*
X010877Y020615D01*
X010731Y020555D01*
X010619Y020443D01*
X010558Y020296D01*
X010558Y020137D01*
X010619Y019991D01*
X010731Y019879D01*
X010877Y019818D01*
X011036Y019818D01*
X011183Y019879D01*
X011295Y019991D01*
X011355Y020137D01*
X011355Y020296D01*
X011295Y020443D01*
X011183Y020555D01*
X011235Y020503D02*
X022637Y020503D01*
X022558Y020424D02*
X022125Y020424D01*
X021860Y020424D02*
X011302Y020424D01*
X011335Y020346D02*
X020477Y020346D01*
X020398Y020267D02*
X017987Y020267D01*
X018152Y020188D02*
X020335Y020188D01*
X020335Y020110D02*
X018230Y020110D01*
X018301Y020031D02*
X020335Y020031D01*
X020335Y019953D02*
X018334Y019953D01*
X018367Y019874D02*
X020335Y019874D01*
X020335Y019796D02*
X018384Y019796D01*
X018384Y019717D02*
X020335Y019717D01*
X020390Y019639D02*
X018384Y019639D01*
X018367Y019560D02*
X020468Y019560D01*
X020771Y019560D02*
X020883Y019560D01*
X020841Y019482D02*
X018334Y019482D01*
X018302Y019403D02*
X020809Y019403D01*
X020779Y019324D02*
X018231Y019324D01*
X018153Y019246D02*
X020779Y019246D01*
X020779Y019167D02*
X017989Y019167D01*
X017624Y019167D02*
X016989Y019167D01*
X017153Y019246D02*
X017461Y019246D01*
X017382Y019324D02*
X017231Y019324D01*
X017302Y019403D02*
X017312Y019403D01*
X017301Y020031D02*
X017312Y020031D01*
X017383Y020110D02*
X017230Y020110D01*
X017152Y020188D02*
X017462Y020188D01*
X017626Y020267D02*
X016987Y020267D01*
X016626Y020267D02*
X015987Y020267D01*
X016152Y020188D02*
X016462Y020188D01*
X016383Y020110D02*
X016230Y020110D01*
X016301Y020031D02*
X016312Y020031D01*
X016302Y019403D02*
X016312Y019403D01*
X016382Y019324D02*
X016231Y019324D01*
X016153Y019246D02*
X016461Y019246D01*
X016624Y019167D02*
X015989Y019167D01*
X015965Y019010D02*
X013627Y019010D01*
X013670Y018932D02*
X015808Y018932D01*
X015729Y018853D02*
X013702Y018853D01*
X013705Y018775D02*
X015691Y018775D01*
X015658Y018696D02*
X013705Y018696D01*
X013676Y018618D02*
X015658Y018618D01*
X015658Y018539D02*
X013643Y018539D01*
X014070Y018225D02*
X011209Y018225D01*
X011150Y018146D02*
X014058Y018146D01*
X014058Y018068D02*
X011056Y018068D01*
X010657Y018068D02*
X007376Y018068D01*
X007405Y018146D02*
X010563Y018146D01*
X010505Y018225D02*
X007405Y018225D01*
X007402Y018303D02*
X010472Y018303D01*
X010458Y018382D02*
X007370Y018382D01*
X007327Y018460D02*
X010458Y018460D01*
X010476Y018539D02*
X007743Y018539D01*
X007821Y018618D02*
X010508Y018618D01*
X010572Y018696D02*
X007868Y018696D01*
X007271Y018539D02*
X007248Y018539D01*
X007192Y018618D02*
X003670Y018618D01*
X003702Y018696D02*
X007146Y018696D01*
X007113Y018775D02*
X003704Y018775D01*
X003704Y018853D02*
X007108Y018853D01*
X007028Y018932D02*
X003677Y018932D01*
X003645Y019010D02*
X006961Y019010D01*
X006928Y019089D02*
X003571Y019089D01*
X003450Y019167D02*
X006908Y019167D01*
X006608Y018225D02*
X005584Y018225D01*
X005691Y018146D02*
X006608Y018146D01*
X006637Y018068D02*
X005755Y018068D01*
X005788Y017989D02*
X006670Y017989D01*
X006749Y017911D02*
X005805Y017911D01*
X005805Y017832D02*
X006893Y017832D01*
X007120Y017832D02*
X014177Y017832D01*
X014110Y017911D02*
X007264Y017911D01*
X007343Y017989D02*
X014078Y017989D01*
X014292Y017754D02*
X005791Y017754D01*
X008969Y019991D02*
X009081Y019879D01*
X009227Y019818D01*
X009386Y019818D01*
X009533Y019879D01*
X009645Y019991D01*
X009705Y020137D01*
X009705Y020296D01*
X009645Y020443D01*
X009533Y020555D01*
X009386Y020615D01*
X009227Y020615D01*
X009081Y020555D01*
X008969Y020443D01*
X008908Y020296D01*
X008908Y020137D01*
X008969Y019991D01*
X008952Y020031D02*
X001107Y020031D01*
X001107Y019953D02*
X009007Y019953D01*
X009092Y019874D02*
X001107Y019874D01*
X001107Y019796D02*
X012229Y019796D01*
X012247Y019874D02*
X011172Y019874D01*
X011257Y019953D02*
X012279Y019953D01*
X012312Y020031D02*
X011311Y020031D01*
X011344Y020110D02*
X012383Y020110D01*
X012462Y020188D02*
X011355Y020188D01*
X011355Y020267D02*
X012626Y020267D01*
X012987Y020267D02*
X014626Y020267D01*
X014462Y020188D02*
X013916Y020188D01*
X013847Y020188D02*
X013767Y020188D01*
X013698Y020188D02*
X013152Y020188D01*
X013230Y020110D02*
X013524Y020110D01*
X013446Y020031D02*
X013301Y020031D01*
X013334Y019953D02*
X013388Y019953D01*
X013767Y019953D02*
X013847Y019953D01*
X013847Y020031D02*
X013767Y020031D01*
X013767Y020110D02*
X013847Y020110D01*
X013847Y019874D02*
X013767Y019874D01*
X013767Y019796D02*
X013847Y019796D01*
X013847Y019639D02*
X013767Y019639D01*
X013767Y019560D02*
X013847Y019560D01*
X013847Y019482D02*
X013767Y019482D01*
X013767Y019403D02*
X013847Y019403D01*
X013847Y019324D02*
X013767Y019324D01*
X013767Y019246D02*
X013847Y019246D01*
X013918Y019246D02*
X014461Y019246D01*
X014382Y019324D02*
X014090Y019324D01*
X014168Y019403D02*
X014312Y019403D01*
X014279Y019482D02*
X014226Y019482D01*
X014624Y019167D02*
X012989Y019167D01*
X013153Y019246D02*
X013696Y019246D01*
X013524Y019324D02*
X013231Y019324D01*
X013302Y019403D02*
X013445Y019403D01*
X013387Y019482D02*
X013334Y019482D01*
X013548Y019089D02*
X020785Y019089D01*
X020817Y019010D02*
X016149Y019010D01*
X016306Y018932D02*
X020850Y018932D01*
X020904Y018853D02*
X016384Y018853D01*
X016423Y018775D02*
X020982Y018775D01*
X021316Y018225D02*
X016152Y018225D01*
X014855Y018068D02*
X020902Y018068D01*
X020934Y017989D02*
X014835Y017989D01*
X014803Y017911D02*
X020987Y017911D01*
X021066Y017832D02*
X014736Y017832D01*
X014622Y017754D02*
X021227Y017754D01*
X021185Y016261D02*
X021028Y016261D01*
X021068Y016183D02*
X021158Y016183D01*
X021158Y016104D02*
X021101Y016104D01*
X021133Y016026D02*
X021163Y016026D01*
X021134Y015947D02*
X021195Y015947D01*
X021241Y015869D02*
X021134Y015869D01*
X021134Y015790D02*
X021320Y015790D01*
X021105Y015711D02*
X021889Y015711D01*
X021858Y015790D02*
X021794Y015790D01*
X021927Y015633D02*
X021073Y015633D01*
X021040Y015554D02*
X022005Y015554D01*
X026472Y015083D02*
X030230Y015083D01*
X030208Y015162D02*
X026615Y015162D01*
X026694Y015240D02*
X030208Y015240D01*
X030217Y015319D02*
X026727Y015319D01*
X028731Y018775D02*
X028982Y018775D01*
X028904Y018853D02*
X028810Y018853D01*
X025056Y019717D02*
X024658Y019717D01*
X024752Y019639D02*
X024962Y019639D01*
X024883Y019560D02*
X024830Y019560D01*
X024056Y019717D02*
X023658Y019717D01*
X023752Y019639D02*
X023962Y019639D01*
X023883Y019560D02*
X023830Y019560D01*
X015624Y019167D02*
X014989Y019167D01*
X015153Y019246D02*
X015461Y019246D01*
X015382Y019324D02*
X015231Y019324D01*
X015302Y019403D02*
X015312Y019403D01*
X015301Y020031D02*
X015312Y020031D01*
X015383Y020110D02*
X015230Y020110D01*
X015152Y020188D02*
X015462Y020188D01*
X015626Y020267D02*
X014987Y020267D01*
X014383Y020110D02*
X014089Y020110D01*
X014167Y020031D02*
X014312Y020031D01*
X014279Y019953D02*
X014226Y019953D01*
X010795Y020581D02*
X009469Y020581D01*
X009585Y020503D02*
X010679Y020503D01*
X010611Y020424D02*
X009652Y020424D01*
X009685Y020346D02*
X010578Y020346D01*
X010558Y020267D02*
X009705Y020267D01*
X009705Y020188D02*
X010558Y020188D01*
X010569Y020110D02*
X009694Y020110D01*
X009661Y020031D02*
X010602Y020031D01*
X010657Y019953D02*
X009607Y019953D01*
X009522Y019874D02*
X010742Y019874D01*
X009145Y020581D02*
X001107Y020581D01*
X001107Y020503D02*
X009029Y020503D01*
X008961Y020424D02*
X001107Y020424D01*
X001107Y020346D02*
X008928Y020346D01*
X008908Y020267D02*
X001107Y020267D01*
X001107Y020188D02*
X008908Y020188D01*
X008919Y020110D02*
X001107Y020110D01*
X001107Y020660D02*
X032607Y020660D01*
X032607Y020738D02*
X001107Y020738D01*
X012056Y014376D02*
X014202Y014376D01*
X014352Y014455D02*
X012209Y014455D01*
X008927Y011392D02*
X008594Y011392D01*
X008724Y011313D02*
X008908Y011313D01*
X008908Y011234D02*
X008798Y011234D01*
X008831Y011156D02*
X008921Y011156D01*
X008954Y011077D02*
X008855Y011077D01*
X008855Y010999D02*
X009011Y010999D01*
X009101Y010920D02*
X008848Y010920D01*
X008816Y010842D02*
X009658Y010842D01*
X009658Y010920D02*
X009512Y010920D01*
X009603Y010999D02*
X009680Y010999D01*
X009660Y011077D02*
X009712Y011077D01*
X009692Y011156D02*
X009782Y011156D01*
X009705Y011234D02*
X009903Y011234D01*
X009668Y010763D02*
X008767Y010763D01*
X008688Y010685D02*
X009701Y010685D01*
X009538Y010449D02*
X021509Y010449D01*
X021508Y010371D02*
X009617Y010371D01*
X013340Y007700D02*
X002490Y007700D01*
X002505Y007779D02*
X014771Y007779D01*
X014758Y007700D02*
X013573Y007700D01*
X013716Y007621D02*
X014758Y007621D01*
X014776Y007543D02*
X013794Y007543D01*
X013827Y007464D02*
X014425Y007464D01*
X014589Y007464D02*
X014807Y007464D01*
X014774Y007386D02*
X014751Y007386D01*
X014262Y007386D02*
X014107Y007386D01*
X014804Y007857D02*
X002505Y007857D01*
X002489Y007936D02*
X014862Y007936D01*
X014954Y008014D02*
X002456Y008014D01*
X002298Y007464D02*
X013086Y007464D01*
X014183Y006679D02*
X014257Y006753D01*
X014281Y006729D01*
X014427Y006668D01*
X014487Y006600D02*
X016458Y006600D01*
X016485Y006522D02*
X014565Y006522D01*
X014615Y006443D02*
X016518Y006443D01*
X016595Y006365D02*
X014648Y006365D01*
X014655Y006286D02*
X016733Y006286D01*
X016980Y006286D02*
X017273Y006286D01*
X017195Y006365D02*
X017119Y006365D01*
X017227Y006051D02*
X014599Y006051D01*
X014631Y006129D02*
X020722Y006129D01*
X020754Y006208D02*
X014655Y006208D01*
X014526Y005972D02*
X017148Y005972D01*
X017098Y005894D02*
X014398Y005894D01*
X013573Y005422D02*
X012590Y005422D01*
X012694Y005344D02*
X013470Y005344D01*
X013407Y005265D02*
X012756Y005265D01*
X012789Y005187D02*
X013375Y005187D01*
X013358Y005108D02*
X012805Y005108D01*
X012805Y005030D02*
X013358Y005030D01*
X013373Y004951D02*
X012790Y004951D01*
X012758Y004872D02*
X013406Y004872D01*
X013466Y004794D02*
X012698Y004794D01*
X012600Y004715D02*
X013563Y004715D01*
X012213Y004715D02*
X012150Y004715D01*
X012140Y005422D02*
X012223Y005422D01*
X014612Y006679D02*
X016281Y006679D01*
X016202Y006758D02*
X014761Y006758D01*
X014840Y006836D02*
X016150Y006836D01*
X016117Y006915D02*
X015348Y006915D01*
X015447Y006993D02*
X016108Y006993D01*
X016108Y007072D02*
X015507Y007072D01*
X015540Y007150D02*
X016130Y007150D01*
X016163Y007229D02*
X015555Y007229D01*
X015555Y007307D02*
X016233Y007307D01*
X016356Y007386D02*
X015539Y007386D01*
X015506Y007464D02*
X017766Y007464D01*
X017758Y007386D02*
X016657Y007386D01*
X016780Y007307D02*
X017758Y007307D01*
X017782Y007229D02*
X016850Y007229D01*
X016883Y007150D02*
X017815Y007150D01*
X017888Y007072D02*
X016905Y007072D01*
X017094Y006993D02*
X017374Y006993D01*
X017241Y006915D02*
X017173Y006915D01*
X017640Y006993D02*
X018017Y006993D01*
X017798Y007543D02*
X015537Y007543D01*
X015555Y007621D02*
X017848Y007621D01*
X017926Y007700D02*
X015555Y007700D01*
X015542Y007779D02*
X016802Y007779D01*
X016652Y007857D02*
X015509Y007857D01*
X015452Y007936D02*
X016574Y007936D01*
X016538Y008014D02*
X015360Y008014D01*
X014965Y006915D02*
X014875Y006915D01*
X019496Y007543D02*
X020177Y007543D01*
X020210Y007621D02*
X019625Y007621D01*
X019698Y007700D02*
X020276Y007700D01*
X020388Y007779D02*
X019731Y007779D01*
X019755Y007857D02*
X020408Y007857D01*
X020424Y007936D02*
X019755Y007936D01*
X019748Y008014D02*
X020457Y008014D01*
X020519Y008093D02*
X019715Y008093D01*
X019666Y008171D02*
X020621Y008171D01*
X020993Y008171D02*
X024458Y008171D01*
X024458Y008093D02*
X021095Y008093D01*
X021156Y008014D02*
X024488Y008014D01*
X024524Y007936D02*
X021189Y007936D01*
X021627Y007857D02*
X022587Y007857D01*
X022581Y007855D02*
X022469Y007743D01*
X022408Y007596D01*
X022408Y007437D01*
X022469Y007291D01*
X022581Y007179D01*
X022727Y007118D01*
X022886Y007118D01*
X023033Y007179D01*
X023145Y007291D01*
X023205Y007437D01*
X023205Y007596D01*
X023145Y007743D01*
X023033Y007855D01*
X022886Y007915D01*
X022727Y007915D01*
X022581Y007855D01*
X022505Y007779D02*
X021709Y007779D01*
X021762Y007700D02*
X022451Y007700D01*
X022419Y007621D02*
X021795Y007621D01*
X021805Y007543D02*
X022408Y007543D01*
X022408Y007464D02*
X021805Y007464D01*
X021784Y007386D02*
X022429Y007386D01*
X022462Y007307D02*
X021751Y007307D01*
X021683Y007229D02*
X022531Y007229D01*
X022650Y007150D02*
X021564Y007150D01*
X021198Y006915D02*
X024875Y006915D01*
X025038Y006915D02*
X025136Y006915D01*
X025358Y007150D02*
X022964Y007150D01*
X023083Y007229D02*
X025358Y007229D01*
X025383Y007307D02*
X023151Y007307D01*
X023184Y007386D02*
X024884Y007386D01*
X024745Y007464D02*
X023205Y007464D01*
X023205Y007543D02*
X024668Y007543D01*
X024635Y007621D02*
X023195Y007621D01*
X023162Y007700D02*
X024608Y007700D01*
X024608Y007779D02*
X023109Y007779D01*
X023027Y007857D02*
X024602Y007857D01*
X024460Y008250D02*
X019587Y008250D01*
X022232Y008328D02*
X022982Y008328D01*
X022903Y008407D02*
X022311Y008407D01*
X022363Y008485D02*
X022850Y008485D01*
X022818Y008564D02*
X022396Y008564D01*
X022405Y008643D02*
X022808Y008643D01*
X022808Y008721D02*
X022405Y008721D01*
X022383Y008800D02*
X022830Y008800D01*
X022863Y008878D02*
X022351Y008878D01*
X022281Y008957D02*
X022933Y008957D01*
X023054Y009035D02*
X022159Y009035D01*
X023432Y008328D02*
X024492Y008328D01*
X024533Y008407D02*
X023511Y008407D01*
X023563Y008485D02*
X024612Y008485D01*
X025125Y009349D02*
X025339Y009349D01*
X025575Y009349D02*
X026039Y009349D01*
X025897Y009271D02*
X025716Y009271D01*
X025795Y009192D02*
X025819Y009192D01*
X025838Y008721D02*
X025775Y008721D01*
X025696Y008643D02*
X025917Y008643D01*
X025957Y007857D02*
X025401Y007857D01*
X025405Y007779D02*
X025805Y007779D01*
X025726Y007700D02*
X025405Y007700D01*
X025378Y007621D02*
X025689Y007621D01*
X025623Y007543D02*
X025346Y007543D01*
X025268Y007464D02*
X025490Y007464D01*
X025416Y007386D02*
X025129Y007386D01*
X026309Y007779D02*
X026753Y007779D01*
X026810Y007700D02*
X026387Y007700D01*
X026424Y007621D02*
X026898Y007621D01*
X026455Y007543D02*
X027897Y007543D01*
X028930Y009978D02*
X032607Y009978D01*
X032607Y010056D02*
X029010Y010056D01*
X029063Y010135D02*
X032607Y010135D01*
X032607Y010213D02*
X029095Y010213D01*
X029105Y010292D02*
X032607Y010292D01*
X032607Y010371D02*
X029105Y010371D01*
X029083Y010449D02*
X032607Y010449D01*
X032607Y010528D02*
X029051Y010528D01*
X028981Y010606D02*
X032607Y010606D01*
X032607Y010685D02*
X028860Y010685D01*
X022835Y010056D02*
X022760Y010056D01*
X015706Y002830D02*
X011607Y002830D01*
X011662Y002752D02*
X015652Y002752D01*
X012657Y001567D02*
X012657Y001267D01*
X012657Y001567D02*
X012607Y001617D01*
X010995Y001652D02*
X006656Y001652D01*
X006735Y001731D02*
X009147Y001731D01*
X009177Y001718D02*
X009336Y001718D01*
X009483Y001779D01*
X009595Y001891D01*
X009655Y002037D01*
X009655Y002196D01*
X009595Y002343D01*
X009483Y002455D01*
X009336Y002515D01*
X009177Y002515D01*
X009031Y002455D01*
X008919Y002343D01*
X008858Y002196D01*
X008858Y002037D01*
X008919Y001891D01*
X009031Y001779D01*
X009177Y001718D01*
X009367Y001731D02*
X010879Y001731D01*
X010811Y001809D02*
X009513Y001809D01*
X009592Y001888D02*
X010779Y001888D01*
X010758Y001966D02*
X009626Y001966D01*
X009655Y002045D02*
X010758Y002045D01*
X010769Y002123D02*
X009655Y002123D01*
X009653Y002202D02*
X010802Y002202D01*
X010857Y002281D02*
X009620Y002281D01*
X009578Y002359D02*
X010941Y002359D01*
X010929Y002438D02*
X009500Y002438D01*
X009014Y002438D02*
X003991Y002438D01*
X004055Y002516D02*
X010908Y002516D01*
X010908Y002595D02*
X004088Y002595D01*
X004105Y002673D02*
X006815Y002673D01*
X006658Y002752D02*
X004105Y002752D01*
X003885Y002359D02*
X006312Y002359D01*
X006157Y002281D02*
X001107Y002281D01*
X001107Y002359D02*
X003528Y002359D01*
X003422Y002438D02*
X001107Y002438D01*
X001107Y002516D02*
X003358Y002516D01*
X003326Y002595D02*
X002799Y002595D01*
X002783Y002579D02*
X002895Y002691D01*
X002955Y002837D01*
X002955Y002996D01*
X002895Y003143D01*
X002783Y003255D01*
X002636Y003315D01*
X002477Y003315D01*
X002331Y003255D01*
X002219Y003143D01*
X002158Y002996D01*
X002158Y002837D01*
X002219Y002691D01*
X002331Y002579D01*
X002477Y002518D01*
X002636Y002518D01*
X002783Y002579D01*
X002877Y002673D02*
X003308Y002673D01*
X003308Y002752D02*
X002920Y002752D01*
X002952Y002830D02*
X003322Y002830D01*
X003355Y002909D02*
X002955Y002909D01*
X002955Y002987D02*
X003414Y002987D01*
X003508Y003066D02*
X002926Y003066D01*
X002893Y003145D02*
X006508Y003145D01*
X006540Y003223D02*
X002814Y003223D01*
X002669Y003302D02*
X006578Y003302D01*
X006656Y003380D02*
X001107Y003380D01*
X001107Y003302D02*
X002444Y003302D01*
X002299Y003223D02*
X001107Y003223D01*
X001107Y003145D02*
X002221Y003145D01*
X002187Y003066D02*
X001107Y003066D01*
X001107Y002987D02*
X002158Y002987D01*
X002158Y002909D02*
X001107Y002909D01*
X001107Y002830D02*
X002161Y002830D01*
X002193Y002752D02*
X001107Y002752D01*
X001107Y002673D02*
X002236Y002673D01*
X002315Y002595D02*
X001107Y002595D01*
X001107Y002202D02*
X006078Y002202D01*
X006040Y002123D02*
X001107Y002123D01*
X001107Y002045D02*
X006008Y002045D01*
X006008Y001966D02*
X001107Y001966D01*
X001107Y001888D02*
X006008Y001888D01*
X006040Y001809D02*
X001107Y001809D01*
X001107Y001731D02*
X006079Y001731D01*
X006157Y001652D02*
X001107Y001652D01*
X001107Y004244D02*
X002564Y004244D01*
X002437Y004323D02*
X001107Y004323D01*
X001107Y004401D02*
X002364Y004401D01*
X002332Y004480D02*
X001107Y004480D01*
X001107Y004558D02*
X002308Y004558D01*
X002308Y004637D02*
X001107Y004637D01*
X001107Y004715D02*
X002316Y004715D01*
X002349Y004794D02*
X001107Y004794D01*
X001107Y004872D02*
X002399Y004872D01*
X002477Y004951D02*
X001107Y004951D01*
X006501Y002359D02*
X008935Y002359D01*
X008893Y002281D02*
X006657Y002281D01*
X006735Y002202D02*
X008860Y002202D01*
X008858Y002123D02*
X006773Y002123D01*
X006805Y002045D02*
X008858Y002045D01*
X008887Y001966D02*
X006805Y001966D01*
X006805Y001888D02*
X008922Y001888D01*
X009000Y001809D02*
X006773Y001809D01*
X006999Y002673D02*
X010919Y002673D01*
X010952Y002752D02*
X007156Y002752D01*
X007234Y002830D02*
X011006Y002830D01*
X011091Y002909D02*
X007273Y002909D01*
X010799Y003694D02*
X011676Y003694D01*
D14*
X011807Y003317D03*
X011307Y002567D03*
X010907Y002417D03*
X011157Y002017D03*
X011807Y001867D03*
X012407Y002217D03*
X012657Y001267D03*
X013857Y003367D03*
X013957Y003817D03*
X013457Y003817D03*
X013007Y004067D03*
X012407Y005067D03*
X011957Y005067D03*
X010757Y005767D03*
X009457Y006367D03*
X009407Y005867D03*
X008507Y006567D03*
X008207Y006917D03*
X008207Y005817D03*
X007107Y005767D03*
X007007Y005117D03*
X006307Y005567D03*
X006257Y006117D03*
X005257Y006517D03*
X003807Y007067D03*
X003707Y008067D03*
X004107Y008417D03*
X003657Y009117D03*
X004407Y010067D03*
X003957Y011167D03*
X003957Y011917D03*
X005807Y012767D03*
X005557Y013417D03*
X005757Y013817D03*
X005357Y013817D03*
X004957Y014867D03*
X004307Y014917D03*
X003707Y014917D03*
X003057Y014917D03*
X001807Y014967D03*
X001307Y013017D03*
X005207Y015767D03*
X006007Y016317D03*
X006607Y015967D03*
X007307Y015517D03*
X007707Y015067D03*
X008357Y015067D03*
X008257Y015467D03*
X008757Y016167D03*
X008357Y016317D03*
X007957Y016317D03*
X009557Y015667D03*
X010107Y015767D03*
X011107Y015767D03*
X011907Y015617D03*
X013007Y015417D03*
X013407Y015817D03*
X013907Y015767D03*
X014457Y015617D03*
X014457Y014067D03*
X014307Y013567D03*
X014107Y012867D03*
X013257Y012667D03*
X012707Y012617D03*
X013507Y011767D03*
X013957Y011967D03*
X013157Y011017D03*
X012557Y010917D03*
X010707Y011867D03*
X010407Y012767D03*
X010957Y013567D03*
X010307Y013817D03*
X011157Y014517D03*
X011607Y014367D03*
X011957Y014767D03*
X008007Y013917D03*
X007457Y013917D03*
X006557Y011617D03*
X006507Y011017D03*
X006957Y011017D03*
X008457Y011017D03*
X009307Y011267D03*
X009457Y010717D03*
X010057Y010867D03*
X009307Y010117D03*
X008457Y010167D03*
X008457Y009667D03*
X006507Y009167D03*
X005957Y008817D03*
X002557Y010167D03*
X002107Y007817D03*
X005207Y004767D03*
X004707Y004367D03*
X003107Y003917D03*
X002707Y004617D03*
X002557Y002917D03*
X003707Y002717D03*
X005107Y002617D03*
X006407Y001967D03*
X007857Y002217D03*
X006907Y003067D03*
X006807Y003517D03*
X006907Y004367D03*
X008557Y004717D03*
X008957Y004017D03*
X010107Y004117D03*
X010657Y004067D03*
X009257Y002117D03*
X013757Y005067D03*
X014257Y006267D03*
X013957Y007017D03*
X013857Y007417D03*
X013457Y007317D03*
X012957Y007267D03*
X012157Y008367D03*
X012757Y008667D03*
X013507Y009217D03*
X013857Y008917D03*
X015157Y007667D03*
X015157Y007267D03*
X014507Y007067D03*
X016507Y007017D03*
X016857Y006667D03*
X017507Y006617D03*
X017457Y007467D03*
X018157Y007367D03*
X016907Y008167D03*
X017257Y009167D03*
X016857Y009317D03*
X016407Y009267D03*
X016857Y010367D03*
X018107Y009917D03*
X018057Y011517D03*
X018007Y012117D03*
X016857Y013117D03*
X017257Y013617D03*
X017807Y013217D03*
X016357Y013867D03*
X017307Y014617D03*
X016607Y015117D03*
X017307Y015967D03*
X018157Y016317D03*
X019107Y016917D03*
X016707Y017267D03*
X016557Y016867D03*
X014457Y018117D03*
X013307Y018767D03*
X012557Y018467D03*
X012381Y018891D03*
X011957Y019067D03*
X011532Y018891D03*
X011357Y018467D03*
X010857Y018417D03*
X011532Y018043D03*
X011957Y017867D03*
X012381Y018043D03*
X009757Y018667D03*
X007807Y019367D03*
X007307Y019217D03*
X007507Y018867D03*
X007007Y018217D03*
X005407Y017867D03*
X004957Y017767D03*
X004857Y017367D03*
X004457Y017067D03*
X005307Y016767D03*
X002957Y018117D03*
X002557Y018217D03*
X002607Y017617D03*
X001907Y018417D03*
X001607Y018817D03*
X002707Y018767D03*
X005007Y019117D03*
X009307Y020217D03*
X010957Y020217D03*
X011557Y020217D03*
X011607Y020567D03*
X016057Y018617D03*
X016357Y020517D03*
X021557Y016117D03*
X022257Y015867D03*
X024607Y015567D03*
X025007Y015867D03*
X026357Y015467D03*
X027057Y015417D03*
X028307Y015867D03*
X029107Y016117D03*
X030557Y016517D03*
X030957Y016717D03*
X031557Y018117D03*
X029907Y020167D03*
X027307Y017467D03*
X025157Y017367D03*
X023357Y020017D03*
X030607Y015217D03*
X029807Y015067D03*
X028957Y014567D03*
X030007Y013367D03*
X030657Y012667D03*
X029857Y012317D03*
X028757Y012067D03*
X027357Y012317D03*
X027307Y012867D03*
X025407Y014267D03*
X024307Y014367D03*
X024607Y013517D03*
X023207Y014167D03*
X022557Y013267D03*
X021257Y014117D03*
X021057Y012167D03*
X021507Y011817D03*
X019757Y011817D03*
X021907Y010367D03*
X022507Y010367D03*
X023007Y010417D03*
X023307Y009917D03*
X024157Y009767D03*
X023557Y008917D03*
X023207Y008667D03*
X022007Y008667D03*
X020807Y007817D03*
X020557Y007417D03*
X021007Y007267D03*
X021407Y007517D03*
X022607Y007167D03*
X022807Y007517D03*
X022757Y006367D03*
X022657Y005967D03*
X023057Y005617D03*
X023407Y005017D03*
X024007Y004817D03*
X024557Y004867D03*
X023507Y004017D03*
X022657Y004067D03*
X021357Y004717D03*
X020907Y005267D03*
X021107Y006017D03*
X019607Y006017D03*
X018657Y006117D03*
X017457Y005717D03*
X016507Y005517D03*
X016807Y004817D03*
X016357Y004017D03*
X017557Y003217D03*
X019107Y002967D03*
X019807Y003017D03*
X020957Y003167D03*
X021157Y003817D03*
X020857Y004117D03*
X019657Y005117D03*
X018707Y004417D03*
X018157Y005017D03*
X014507Y003667D03*
X016007Y002567D03*
X017807Y001567D03*
X019907Y001567D03*
X022857Y002167D03*
X023032Y002591D03*
X023457Y002767D03*
X023881Y002591D03*
X024057Y002167D03*
X023881Y001743D03*
X023457Y001567D03*
X023032Y001743D03*
X025557Y003017D03*
X025857Y004017D03*
X026707Y004117D03*
X027107Y004017D03*
X028057Y003017D03*
X029857Y003067D03*
X029657Y004367D03*
X029007Y004367D03*
X028857Y004967D03*
X029607Y005567D03*
X029607Y006267D03*
X029857Y007567D03*
X028257Y007717D03*
X027107Y007967D03*
X026307Y008317D03*
X026507Y008667D03*
X026157Y008967D03*
X025457Y008967D03*
X025007Y008967D03*
X024857Y008167D03*
X025007Y007767D03*
X025757Y007167D03*
X026057Y007467D03*
X025507Y006767D03*
X024957Y006517D03*
X025307Y006167D03*
X025757Y006417D03*
X026357Y006267D03*
X026707Y006017D03*
X027307Y006317D03*
X027357Y005817D03*
X027907Y005767D03*
X027007Y007067D03*
X025307Y005717D03*
X027357Y008917D03*
X028307Y009617D03*
X028707Y010317D03*
X030207Y010517D03*
X031507Y011367D03*
X031557Y012667D03*
X031607Y014117D03*
X031657Y014617D03*
X032307Y014617D03*
X027307Y010617D03*
X026307Y010667D03*
X026007Y010367D03*
X025407Y010467D03*
X023507Y011767D03*
X021357Y009967D03*
X019357Y007917D03*
X011157Y009267D03*
X010557Y008867D03*
X026857Y001467D03*
X032207Y004417D03*
X031557Y005167D03*
X031507Y005817D03*
X031657Y006517D03*
X031507Y006917D03*
X032357Y006917D03*
X032457Y005817D03*
X031457Y008417D03*
X032357Y009917D03*
D15*
X023457Y002167D03*
X011957Y018467D03*
M02*
