G75*
G70*
%OFA0B0*%
%FSLAX24Y24*%
%IPPOS*%
%LPD*%
%AMOC8*
5,1,8,0,0,1.08239X$1,22.5*
%
%ADD10C,0.1340*%
%ADD11C,0.0198*%
%ADD12R,0.1025X0.1025*%
%ADD13R,0.0630X0.1480*%
%ADD14R,0.0592X0.0710*%
%ADD15R,0.0740X0.0400*%
%ADD16R,0.0840X0.0400*%
%ADD17R,0.0552X0.0552*%
%ADD18R,0.0710X0.0540*%
%ADD19R,0.0720X0.0060*%
%ADD20R,0.0710X0.0592*%
%ADD21R,0.0513X0.0474*%
%ADD22R,0.0474X0.0474*%
%ADD23R,0.0592X0.0671*%
%ADD24R,0.0474X0.0513*%
%ADD25C,0.0680*%
%ADD26R,0.0552X0.0297*%
%ADD27R,0.0395X0.0395*%
%ADD28R,0.0671X0.0671*%
%ADD29R,0.0710X0.0395*%
%ADD30R,0.2167X0.1025*%
%ADD31C,0.0671*%
%ADD32C,0.0500*%
%ADD33R,0.0390X0.0430*%
%ADD34C,0.0640*%
%ADD35R,0.0789X0.0710*%
%ADD36R,0.0671X0.0237*%
%ADD37R,0.0671X0.0592*%
%ADD38C,0.0434*%
%ADD39R,0.1064X0.0867*%
%ADD40R,0.1379X0.0867*%
%ADD41R,0.1300X0.0277*%
%ADD42R,0.0880X0.0340*%
%ADD43R,0.0297X0.0552*%
%ADD44C,0.0740*%
%ADD45R,0.0430X0.0390*%
%ADD46R,0.2080X0.0980*%
%ADD47R,0.0474X0.0631*%
%ADD48R,0.1261X0.1064*%
%ADD49R,0.1104X0.0710*%
%ADD50R,0.0710X0.0474*%
%ADD51R,0.1064X0.1261*%
%ADD52R,0.2180X0.0840*%
%ADD53OC8,0.0930*%
%ADD54C,0.0580*%
%ADD55C,0.0631*%
%ADD56R,0.0316X0.0434*%
%ADD57R,0.0434X0.0316*%
%ADD58C,0.0476*%
D10*
X033971Y001305D03*
X010271Y022705D03*
D11*
X017794Y015945D02*
X017794Y015453D01*
X017991Y015453D02*
X017991Y015945D01*
X018188Y015945D02*
X018188Y015453D01*
X018385Y015453D02*
X018385Y015945D01*
X018582Y015945D02*
X018582Y015453D01*
X018778Y015453D02*
X018778Y015945D01*
X018975Y015945D02*
X018975Y015453D01*
X019172Y015453D02*
X019172Y015945D01*
X019369Y015945D02*
X019369Y015453D01*
X019566Y015453D02*
X019566Y015945D01*
X019763Y015945D02*
X019763Y015453D01*
X019960Y015453D02*
X019960Y015945D01*
X020156Y015945D02*
X020156Y015453D01*
X020353Y015453D02*
X020353Y015945D01*
X020550Y015945D02*
X020550Y015453D01*
X020747Y015453D02*
X020747Y015945D01*
X021269Y014932D02*
X021761Y014932D01*
X021761Y014735D02*
X021269Y014735D01*
X021269Y014538D02*
X021761Y014538D01*
X021761Y014341D02*
X021269Y014341D01*
X021269Y014144D02*
X021761Y014144D01*
X021761Y013947D02*
X021269Y013947D01*
X021269Y013751D02*
X021761Y013751D01*
X021761Y013554D02*
X021269Y013554D01*
X021269Y013357D02*
X021761Y013357D01*
X021761Y013160D02*
X021269Y013160D01*
X021269Y012963D02*
X021761Y012963D01*
X021761Y012766D02*
X021269Y012766D01*
X021269Y012570D02*
X021761Y012570D01*
X021761Y012373D02*
X021269Y012373D01*
X021269Y012176D02*
X021761Y012176D01*
X021761Y011979D02*
X021269Y011979D01*
X020747Y011457D02*
X020747Y010965D01*
X020550Y010965D02*
X020550Y011457D01*
X020353Y011457D02*
X020353Y010965D01*
X020156Y010965D02*
X020156Y011457D01*
X019960Y011457D02*
X019960Y010965D01*
X019763Y010965D02*
X019763Y011457D01*
X019566Y011457D02*
X019566Y010965D01*
X019369Y010965D02*
X019369Y011457D01*
X019172Y011457D02*
X019172Y010965D01*
X018975Y010965D02*
X018975Y011457D01*
X018778Y011457D02*
X018778Y010965D01*
X018582Y010965D02*
X018582Y011457D01*
X018385Y011457D02*
X018385Y010965D01*
X018188Y010965D02*
X018188Y011457D01*
X017991Y011457D02*
X017991Y010965D01*
X017794Y010965D02*
X017794Y011457D01*
X017272Y011979D02*
X016780Y011979D01*
X016780Y012176D02*
X017272Y012176D01*
X017272Y012373D02*
X016780Y012373D01*
X016780Y012570D02*
X017272Y012570D01*
X017272Y012766D02*
X016780Y012766D01*
X016780Y012963D02*
X017272Y012963D01*
X017272Y013160D02*
X016780Y013160D01*
X016780Y013357D02*
X017272Y013357D01*
X017272Y013554D02*
X016780Y013554D01*
X016780Y013751D02*
X017272Y013751D01*
X017272Y013947D02*
X016780Y013947D01*
X016780Y014144D02*
X017272Y014144D01*
X017272Y014341D02*
X016780Y014341D01*
X016780Y014538D02*
X017272Y014538D01*
X017272Y014735D02*
X016780Y014735D01*
X016780Y014932D02*
X017272Y014932D01*
D12*
X031971Y008971D03*
X031971Y007239D03*
X020637Y003205D03*
X018904Y003205D03*
X009687Y003455D03*
X007954Y003455D03*
D13*
X023191Y003655D03*
X025351Y003655D03*
D14*
X027747Y006205D03*
X028495Y006205D03*
X028547Y007005D03*
X029295Y007005D03*
X026864Y009005D03*
X026077Y009005D03*
X024814Y010455D03*
X024027Y010455D03*
X019764Y010055D03*
X018977Y010055D03*
X017014Y009505D03*
X016227Y009505D03*
X016014Y008755D03*
X015227Y008755D03*
X015177Y007105D03*
X015964Y007105D03*
X017127Y006455D03*
X017914Y006455D03*
X011164Y012205D03*
X010377Y012205D03*
X012477Y013955D03*
X013264Y013955D03*
X014477Y013955D03*
X015264Y013955D03*
X014564Y016355D03*
X013777Y016355D03*
X014527Y019905D03*
X015314Y019905D03*
X019527Y019805D03*
X020314Y019805D03*
X020127Y017005D03*
X020914Y017005D03*
D15*
X024521Y016955D03*
X024521Y016455D03*
X024521Y015955D03*
X024521Y015455D03*
X024521Y014955D03*
X024521Y014455D03*
X024521Y013955D03*
X024521Y013455D03*
X024521Y012955D03*
X024521Y012455D03*
X024521Y011955D03*
X030221Y011955D03*
X030221Y012455D03*
X030221Y012955D03*
X030221Y013455D03*
X030221Y013955D03*
X030221Y014455D03*
X030221Y014955D03*
X030221Y015455D03*
X030221Y015955D03*
X030221Y016455D03*
X030221Y016955D03*
X030221Y017455D03*
X030221Y017955D03*
X030221Y018455D03*
X030221Y018955D03*
X030221Y019955D03*
X024521Y019955D03*
X024521Y019455D03*
X024521Y018955D03*
X024521Y018455D03*
X024521Y017955D03*
X024521Y017455D03*
D16*
X030271Y019455D03*
D17*
X033107Y015705D03*
X033934Y015705D03*
X033934Y014705D03*
X033107Y014705D03*
X005434Y011455D03*
X004607Y011455D03*
X004607Y010755D03*
X005434Y010755D03*
X005434Y009555D03*
X004607Y009555D03*
D18*
X011471Y006805D03*
X011471Y006205D03*
X013571Y005705D03*
X013571Y005105D03*
X023671Y014155D03*
X023671Y014755D03*
X022871Y014855D03*
X022871Y015455D03*
X023671Y015405D03*
X023671Y016005D03*
X009171Y015605D03*
X009171Y015005D03*
X009171Y016455D03*
X009171Y017055D03*
X008871Y021655D03*
X008871Y022255D03*
D19*
X008871Y021955D03*
X009171Y016755D03*
X009171Y015305D03*
X022871Y015155D03*
X023671Y015705D03*
X023671Y014455D03*
X011471Y006505D03*
X013571Y005405D03*
D20*
X012271Y005399D03*
X012271Y004612D03*
X010771Y003849D03*
X010771Y003062D03*
X009571Y008112D03*
X009571Y008899D03*
X008771Y012812D03*
X008771Y013599D03*
X016471Y019762D03*
X016471Y020549D03*
X022771Y013949D03*
X022771Y013162D03*
X029471Y008579D03*
X029471Y007831D03*
X032521Y016812D03*
X032521Y017599D03*
X032521Y019812D03*
X032521Y020599D03*
D21*
X032271Y016090D03*
X032271Y015421D03*
X032021Y014040D03*
X032021Y013371D03*
X014471Y020771D03*
X014471Y021440D03*
X013271Y018740D03*
X013271Y018071D03*
X012271Y018221D03*
X012271Y018890D03*
X013921Y012290D03*
X013921Y011621D03*
X010921Y008790D03*
X010921Y008121D03*
X012271Y006840D03*
X012871Y006840D03*
X012871Y006171D03*
X012271Y006171D03*
X012771Y003790D03*
X011771Y003790D03*
X011771Y003121D03*
X012771Y003121D03*
X004471Y003121D03*
X004471Y003790D03*
D22*
X032521Y018312D03*
X032521Y019099D03*
D23*
X029305Y021705D03*
X028636Y021705D03*
X026455Y021705D03*
X025786Y021705D03*
X009205Y011555D03*
X008536Y011555D03*
X006755Y011455D03*
X006086Y011455D03*
X007686Y009355D03*
X008355Y009355D03*
X009386Y009755D03*
X010055Y009755D03*
X014786Y006255D03*
X015455Y006255D03*
X023986Y008655D03*
X024655Y008655D03*
X027686Y004955D03*
X028355Y004955D03*
X027355Y003955D03*
X026686Y003955D03*
X027186Y002955D03*
X027855Y002955D03*
D24*
X016555Y011155D03*
X015886Y011155D03*
X008855Y008455D03*
X008186Y008455D03*
X005655Y016605D03*
X004986Y016605D03*
X016686Y021455D03*
X017355Y021455D03*
X018186Y021455D03*
X018855Y021455D03*
X020786Y021455D03*
X021455Y021455D03*
D25*
X004771Y002005D02*
X004771Y001405D01*
X005771Y001405D02*
X005771Y002005D01*
X006771Y002005D02*
X006771Y001405D01*
X007771Y001405D02*
X007771Y002005D01*
X008771Y002005D02*
X008771Y001405D01*
X009771Y001405D02*
X009771Y002005D01*
X010771Y002005D02*
X010771Y001405D01*
X011771Y001405D02*
X011771Y002005D01*
X012771Y002005D02*
X012771Y001405D01*
X013771Y001405D02*
X013771Y002005D01*
X014771Y002005D02*
X014771Y001405D01*
X015771Y001405D02*
X015771Y002005D01*
X016771Y002005D02*
X016771Y001405D01*
X017771Y001405D02*
X017771Y002005D01*
X018771Y002005D02*
X018771Y001405D01*
X019771Y001405D02*
X019771Y002005D01*
X020771Y002005D02*
X020771Y001405D01*
X021771Y001405D02*
X021771Y002005D01*
X022771Y002005D02*
X022771Y001405D01*
X023771Y001405D02*
X023771Y002005D01*
X024771Y002005D02*
X024771Y001405D01*
X025771Y001405D02*
X025771Y002005D01*
X026771Y002005D02*
X026771Y001405D01*
X027771Y001405D02*
X027771Y002005D01*
X028771Y002005D02*
X028771Y001405D01*
X029771Y001405D02*
X029771Y002005D01*
X030771Y002005D02*
X030771Y001405D01*
X031771Y001405D02*
X031771Y002005D01*
X031881Y003125D02*
X031881Y003725D01*
X033661Y003725D02*
X033661Y003125D01*
X033661Y005685D02*
X033661Y006285D01*
X031881Y006285D02*
X031881Y005685D01*
X033221Y007705D02*
X033821Y007705D01*
X033821Y008705D02*
X033221Y008705D01*
X032771Y022405D02*
X032771Y023005D01*
X033771Y023005D02*
X033771Y022405D01*
X031771Y022405D02*
X031771Y023005D01*
X030771Y023005D02*
X030771Y022405D01*
X029771Y022405D02*
X029771Y023005D01*
X028771Y023005D02*
X028771Y022405D01*
X027771Y022405D02*
X027771Y023005D01*
X026771Y023005D02*
X026771Y022405D01*
X025771Y022405D02*
X025771Y023005D01*
X024771Y023005D02*
X024771Y022405D01*
X023771Y022405D02*
X023771Y023005D01*
X022771Y023005D02*
X022771Y022405D01*
X021771Y022405D02*
X021771Y023005D01*
X020771Y023005D02*
X020771Y022405D01*
X019771Y022405D02*
X019771Y023005D01*
X018771Y023005D02*
X018771Y022405D01*
X017771Y022405D02*
X017771Y023005D01*
X016771Y023005D02*
X016771Y022405D01*
X015771Y022405D02*
X015771Y023005D01*
X014771Y023005D02*
X014771Y022405D01*
X013771Y022405D02*
X013771Y023005D01*
X012771Y023005D02*
X012771Y022405D01*
X011771Y022405D02*
X011771Y023005D01*
X007771Y023005D02*
X007771Y022405D01*
X006771Y022405D02*
X006771Y023005D01*
X005771Y023005D02*
X005771Y022405D01*
X004771Y022405D02*
X004771Y023005D01*
D26*
X017259Y020529D03*
X017259Y020155D03*
X017259Y019781D03*
X018282Y019781D03*
X018282Y020529D03*
D27*
X025471Y019955D03*
X025471Y019463D03*
X025471Y018971D03*
X025471Y018479D03*
X025471Y017987D03*
X025471Y017495D03*
X025471Y017003D03*
X025471Y016510D03*
X025471Y016018D03*
X025471Y014444D03*
X025471Y013951D03*
X025471Y013459D03*
X025471Y012967D03*
X025471Y012475D03*
X025471Y011983D03*
X025471Y011491D03*
X025471Y010999D03*
X025471Y010507D03*
X031376Y010507D03*
X031376Y010999D03*
X031376Y011491D03*
X031376Y011983D03*
X031376Y012475D03*
X031376Y012967D03*
X031376Y013459D03*
X031376Y013951D03*
X031376Y014444D03*
X031376Y016018D03*
X031376Y016510D03*
X031376Y017003D03*
X031376Y017495D03*
X031376Y017987D03*
X031376Y018479D03*
X031376Y018971D03*
X031376Y019955D03*
D28*
X031376Y015231D03*
X025471Y015231D03*
D29*
X031534Y019463D03*
D30*
X028423Y020782D03*
X028423Y009680D03*
D31*
X033771Y021455D03*
X009221Y020605D03*
X006721Y003455D03*
D32*
X006365Y003455D02*
X006367Y003492D01*
X006373Y003529D01*
X006382Y003565D01*
X006396Y003600D01*
X006413Y003633D01*
X006433Y003664D01*
X006456Y003693D01*
X006483Y003720D01*
X006512Y003743D01*
X006543Y003763D01*
X006576Y003780D01*
X006611Y003794D01*
X006647Y003803D01*
X006684Y003809D01*
X006721Y003811D01*
X006758Y003809D01*
X006795Y003803D01*
X006831Y003794D01*
X006866Y003780D01*
X006899Y003763D01*
X006930Y003743D01*
X006959Y003720D01*
X006986Y003693D01*
X007009Y003664D01*
X007029Y003633D01*
X007046Y003600D01*
X007060Y003565D01*
X007069Y003529D01*
X007075Y003492D01*
X007077Y003455D01*
X007075Y003418D01*
X007069Y003381D01*
X007060Y003345D01*
X007046Y003310D01*
X007029Y003277D01*
X007009Y003246D01*
X006986Y003217D01*
X006959Y003190D01*
X006930Y003167D01*
X006899Y003147D01*
X006866Y003130D01*
X006831Y003116D01*
X006795Y003107D01*
X006758Y003101D01*
X006721Y003099D01*
X006684Y003101D01*
X006647Y003107D01*
X006611Y003116D01*
X006576Y003130D01*
X006543Y003147D01*
X006512Y003167D01*
X006483Y003190D01*
X006456Y003217D01*
X006433Y003246D01*
X006413Y003277D01*
X006396Y003310D01*
X006382Y003345D01*
X006373Y003381D01*
X006367Y003418D01*
X006365Y003455D01*
X008865Y020605D02*
X008867Y020642D01*
X008873Y020679D01*
X008882Y020715D01*
X008896Y020750D01*
X008913Y020783D01*
X008933Y020814D01*
X008956Y020843D01*
X008983Y020870D01*
X009012Y020893D01*
X009043Y020913D01*
X009076Y020930D01*
X009111Y020944D01*
X009147Y020953D01*
X009184Y020959D01*
X009221Y020961D01*
X009258Y020959D01*
X009295Y020953D01*
X009331Y020944D01*
X009366Y020930D01*
X009399Y020913D01*
X009430Y020893D01*
X009459Y020870D01*
X009486Y020843D01*
X009509Y020814D01*
X009529Y020783D01*
X009546Y020750D01*
X009560Y020715D01*
X009569Y020679D01*
X009575Y020642D01*
X009577Y020605D01*
X009575Y020568D01*
X009569Y020531D01*
X009560Y020495D01*
X009546Y020460D01*
X009529Y020427D01*
X009509Y020396D01*
X009486Y020367D01*
X009459Y020340D01*
X009430Y020317D01*
X009399Y020297D01*
X009366Y020280D01*
X009331Y020266D01*
X009295Y020257D01*
X009258Y020251D01*
X009221Y020249D01*
X009184Y020251D01*
X009147Y020257D01*
X009111Y020266D01*
X009076Y020280D01*
X009043Y020297D01*
X009012Y020317D01*
X008983Y020340D01*
X008956Y020367D01*
X008933Y020396D01*
X008913Y020427D01*
X008896Y020460D01*
X008882Y020495D01*
X008873Y020531D01*
X008867Y020568D01*
X008865Y020605D01*
X033415Y021455D02*
X033417Y021492D01*
X033423Y021529D01*
X033432Y021565D01*
X033446Y021600D01*
X033463Y021633D01*
X033483Y021664D01*
X033506Y021693D01*
X033533Y021720D01*
X033562Y021743D01*
X033593Y021763D01*
X033626Y021780D01*
X033661Y021794D01*
X033697Y021803D01*
X033734Y021809D01*
X033771Y021811D01*
X033808Y021809D01*
X033845Y021803D01*
X033881Y021794D01*
X033916Y021780D01*
X033949Y021763D01*
X033980Y021743D01*
X034009Y021720D01*
X034036Y021693D01*
X034059Y021664D01*
X034079Y021633D01*
X034096Y021600D01*
X034110Y021565D01*
X034119Y021529D01*
X034125Y021492D01*
X034127Y021455D01*
X034125Y021418D01*
X034119Y021381D01*
X034110Y021345D01*
X034096Y021310D01*
X034079Y021277D01*
X034059Y021246D01*
X034036Y021217D01*
X034009Y021190D01*
X033980Y021167D01*
X033949Y021147D01*
X033916Y021130D01*
X033881Y021116D01*
X033845Y021107D01*
X033808Y021101D01*
X033771Y021099D01*
X033734Y021101D01*
X033697Y021107D01*
X033661Y021116D01*
X033626Y021130D01*
X033593Y021147D01*
X033562Y021167D01*
X033533Y021190D01*
X033506Y021217D01*
X033483Y021246D01*
X033463Y021277D01*
X033446Y021310D01*
X033432Y021345D01*
X033423Y021381D01*
X033417Y021418D01*
X033415Y021455D01*
D33*
X013161Y017505D03*
X012401Y017505D03*
X012781Y016705D03*
X009161Y010905D03*
X008401Y010905D03*
X008781Y010105D03*
X029981Y006905D03*
X030741Y006905D03*
X030361Y007705D03*
D34*
X023401Y020105D02*
X022841Y020105D01*
X022841Y021105D02*
X023401Y021105D01*
X012771Y020925D02*
X012771Y021485D01*
X011771Y021485D02*
X011771Y020925D01*
X007771Y020925D02*
X007771Y021485D01*
X006771Y021485D02*
X006771Y020925D01*
X008491Y007205D02*
X009051Y007205D01*
X009991Y007205D02*
X010551Y007205D01*
X010551Y006205D02*
X009991Y006205D01*
X009051Y006205D02*
X008491Y006205D01*
X008491Y005205D02*
X009051Y005205D01*
X009991Y005205D02*
X010551Y005205D01*
D35*
X005371Y004007D03*
X005371Y002904D03*
D36*
X004843Y012542D03*
X004843Y012798D03*
X004843Y013054D03*
X004843Y013310D03*
X004843Y013566D03*
X004843Y013821D03*
X004843Y014077D03*
X004843Y014333D03*
X004843Y014589D03*
X004843Y014845D03*
X004843Y015101D03*
X004843Y015357D03*
X004843Y015613D03*
X004843Y015869D03*
X007698Y015869D03*
X007698Y015613D03*
X007698Y015357D03*
X007698Y015101D03*
X007698Y014845D03*
X007698Y014589D03*
X007698Y014333D03*
X007698Y014077D03*
X007698Y013821D03*
X007698Y013566D03*
X007698Y013310D03*
X007698Y013054D03*
X007698Y012798D03*
X007698Y012542D03*
D37*
X007621Y011190D03*
X007621Y010521D03*
X009071Y018521D03*
X009071Y019190D03*
X021821Y010490D03*
X021821Y009821D03*
X030771Y006290D03*
X030771Y005621D03*
X030771Y004040D03*
X030771Y003371D03*
X029771Y003371D03*
X029771Y004040D03*
X028771Y004040D03*
X028771Y003371D03*
D38*
X005521Y005839D03*
X005521Y007571D03*
D39*
X004339Y008457D03*
X004339Y004953D03*
D40*
X006662Y004953D03*
X006662Y008457D03*
D41*
X006702Y007335D03*
X006702Y007020D03*
X006702Y006705D03*
X006702Y006390D03*
X006702Y006075D03*
D42*
X019311Y005955D03*
X019311Y005455D03*
X019311Y004955D03*
X019311Y004455D03*
X021731Y004455D03*
X021731Y004955D03*
X021731Y005455D03*
X021731Y005955D03*
X021731Y006455D03*
X021731Y006955D03*
X021731Y007455D03*
X021731Y007955D03*
X019311Y007955D03*
X019311Y007455D03*
X019311Y006955D03*
X019311Y006455D03*
X008131Y017205D03*
X008131Y017705D03*
X008131Y018205D03*
X008131Y018705D03*
X005711Y018705D03*
X005711Y018205D03*
X005711Y017705D03*
X005711Y017205D03*
D43*
X029147Y005967D03*
X029521Y005967D03*
X029895Y005967D03*
X029895Y004944D03*
X029147Y004944D03*
D44*
X033191Y010455D02*
X033851Y010455D01*
X033851Y011955D02*
X033191Y011955D01*
X033191Y013455D02*
X033851Y013455D01*
D45*
X030921Y009025D03*
X030121Y008645D03*
X030921Y008265D03*
X023321Y009965D03*
X022521Y009585D03*
X022521Y010345D03*
D46*
X034011Y016715D03*
X034011Y018455D03*
X034011Y020195D03*
D47*
X027995Y008238D03*
X027247Y008238D03*
X027621Y007372D03*
D48*
X026099Y006505D03*
X023343Y006505D03*
X017649Y004205D03*
X014893Y004205D03*
D49*
X016562Y007955D03*
X017979Y007955D03*
D50*
X015021Y014705D03*
X015021Y015705D03*
D51*
X012521Y015205D03*
D52*
X016391Y018385D03*
X020191Y018385D03*
D53*
X010271Y021005D03*
X005671Y021205D03*
D54*
X028671Y007805D03*
X026371Y003105D03*
D55*
X006671Y010120D03*
X006671Y019569D03*
D56*
X012183Y008349D03*
X012498Y008349D03*
X012813Y008349D03*
X013128Y008349D03*
X013443Y008349D03*
X013758Y008349D03*
X013758Y007562D03*
X013443Y007562D03*
X013128Y007562D03*
X012813Y007562D03*
X012498Y007562D03*
X012183Y007562D03*
D57*
X012183Y007955D03*
X013758Y007955D03*
D58*
X014601Y006905D03*
X016271Y006255D03*
X015171Y005705D03*
X013371Y003805D03*
X007671Y007705D03*
X011571Y009205D03*
X015371Y008105D03*
X016871Y008905D03*
X017371Y008805D03*
X018021Y009155D03*
X018771Y009305D03*
X018621Y008555D03*
X021521Y008405D03*
X022221Y008505D03*
X024771Y006605D03*
X023171Y010905D03*
X023571Y011305D03*
X022871Y011705D03*
X022521Y012085D03*
X022571Y012585D03*
X022171Y013105D03*
X020871Y013755D03*
X020521Y014855D03*
X019771Y014805D03*
X019071Y015105D03*
X018521Y015105D03*
X017671Y014305D03*
X018771Y013505D03*
X017771Y012705D03*
X018821Y011855D03*
X019121Y012255D03*
X019521Y011955D03*
X020021Y012155D03*
X020371Y011755D03*
X020671Y012605D03*
X021171Y010705D03*
X017471Y011225D03*
X016171Y011955D03*
X015871Y015305D03*
X016671Y015305D03*
X019271Y016405D03*
X019521Y016905D03*
X020021Y016305D03*
X018471Y017605D03*
X017271Y019405D03*
X015271Y021005D03*
X010821Y020255D03*
X024071Y021205D03*
X024671Y021655D03*
X032171Y009705D03*
M02*
