G75*
G70*
%OFA0B0*%
%FSLAX24Y24*%
%IPPOS*%
%LPD*%
%AMOC8*
5,1,8,0,0,1.08239X$1,22.5*
%
%ADD10C,0.0080*%
D10*
X005896Y002504D02*
X006959Y002504D01*
X005896Y002504D02*
X004242Y005182D01*
X004242Y008095D01*
X005896Y010772D01*
X006959Y010772D01*
X009321Y010772D02*
X010227Y010772D01*
X010227Y010773D02*
X010294Y010771D01*
X010360Y010764D01*
X010427Y010754D01*
X010492Y010740D01*
X010557Y010723D01*
X010621Y010702D01*
X010683Y010677D01*
X010744Y010649D01*
X010803Y010617D01*
X010861Y010582D01*
X010916Y010544D01*
X010969Y010502D01*
X011019Y010458D01*
X011067Y010411D01*
X011112Y010361D01*
X011154Y010309D01*
X011193Y010255D01*
X011229Y010198D01*
X011262Y010140D01*
X011292Y010079D01*
X011317Y010017D01*
X011340Y009954D01*
X011358Y009889D01*
X011373Y009824D01*
X011385Y009758D01*
X011392Y009691D01*
X011396Y009624D01*
X011395Y009557D01*
X011391Y009490D01*
X011384Y009423D01*
X011372Y009357D01*
X011357Y009292D01*
X011338Y009228D01*
X011315Y009164D01*
X011289Y009103D01*
X011259Y009042D01*
X011226Y008984D01*
X011190Y008928D01*
X011150Y008873D01*
X011108Y008821D01*
X011062Y008772D01*
X011014Y008725D01*
X011054Y008764D02*
X010954Y008668D01*
X010858Y008567D01*
X010768Y008462D01*
X010682Y008352D01*
X010602Y008238D01*
X010528Y008121D01*
X010460Y008000D01*
X010397Y007876D01*
X010340Y007749D01*
X010290Y007620D01*
X010246Y007488D01*
X010208Y007354D01*
X010177Y007219D01*
X010152Y007082D01*
X010134Y006944D01*
X010123Y006806D01*
X010118Y006667D01*
X010120Y006528D01*
X010129Y006389D01*
X010144Y006251D01*
X010166Y006114D01*
X010195Y005978D01*
X010230Y005844D01*
X010272Y005711D01*
X010320Y005581D01*
X010374Y005453D01*
X010435Y005328D01*
X010501Y005205D01*
X010573Y005087D01*
X010651Y004972D01*
X010734Y004860D01*
X010823Y004753D01*
X010916Y004650D01*
X011015Y004552D01*
X011014Y004552D02*
X011063Y004505D01*
X011110Y004457D01*
X011154Y004405D01*
X011195Y004351D01*
X011233Y004295D01*
X011267Y004236D01*
X011298Y004176D01*
X011326Y004114D01*
X011349Y004051D01*
X011369Y003986D01*
X011386Y003920D01*
X011398Y003853D01*
X011407Y003786D01*
X011411Y003719D01*
X011412Y003651D01*
X011409Y003583D01*
X011401Y003516D01*
X011390Y003449D01*
X011375Y003383D01*
X011357Y003318D01*
X011334Y003254D01*
X011308Y003191D01*
X011278Y003130D01*
X011245Y003071D01*
X011208Y003014D01*
X011169Y002959D01*
X011126Y002907D01*
X011080Y002857D01*
X011031Y002810D01*
X010980Y002766D01*
X010926Y002725D01*
X010870Y002687D01*
X010811Y002652D01*
X010751Y002621D01*
X010689Y002593D01*
X010626Y002569D01*
X010561Y002549D01*
X010496Y002532D01*
X010429Y002520D01*
X010362Y002511D01*
X010294Y002506D01*
X010227Y002505D01*
X010227Y002504D02*
X009321Y002504D01*
X016178Y005965D02*
X017123Y005965D01*
X016178Y005965D02*
X016178Y008012D01*
X017083Y008012D01*
X019190Y008638D02*
X019263Y008607D01*
X019335Y008572D01*
X019405Y008535D01*
X019473Y008494D01*
X019540Y008450D01*
X019605Y008403D01*
X019667Y008353D01*
X019727Y008301D01*
X019785Y008246D01*
X019840Y008188D01*
X020240Y007488D02*
X020263Y007406D01*
X020281Y007323D01*
X020296Y007239D01*
X020306Y007154D01*
X020312Y007069D01*
X020314Y006983D01*
X020312Y006898D01*
X020306Y006813D01*
X020295Y006728D01*
X020281Y006644D01*
X020262Y006560D01*
X020240Y006478D01*
X020213Y006397D01*
X020183Y006317D01*
X020149Y006239D01*
X020111Y006162D01*
X020069Y006088D01*
X020024Y006015D01*
X019975Y005945D01*
X019923Y005878D01*
X019868Y005812D01*
X019809Y005750D01*
X019748Y005691D01*
X019684Y005634D01*
X019617Y005581D01*
X019548Y005531D01*
X019476Y005484D01*
X019403Y005441D01*
X019327Y005402D01*
X019249Y005366D01*
X019170Y005335D01*
X017340Y005688D02*
X017291Y005739D01*
X017245Y005792D01*
X017202Y005848D01*
X017161Y005905D01*
X017122Y005964D01*
X017084Y008011D02*
X017138Y008080D01*
X017196Y008147D01*
X017256Y008210D01*
X017319Y008271D01*
X017385Y008329D01*
X017454Y008384D01*
X017525Y008435D01*
X017598Y008483D01*
X017673Y008528D01*
X017751Y008570D01*
X017830Y008607D01*
X017911Y008641D01*
M02*
