G75*
G70*
%OFA0B0*%
%FSLAX24Y24*%
%IPPOS*%
%LPD*%
%AMOC8*
5,1,8,0,0,1.08239X$1,22.5*
%
%ADD10R,0.5000X0.2000*%
%ADD11R,0.4000X0.2000*%
%ADD12R,0.5000X0.2500*%
%ADD13R,0.5000X0.0500*%
%ADD14C,0.0600*%
%ADD15R,0.2000X0.2000*%
%ADD16R,0.1600X0.1600*%
%ADD17R,0.0984X0.1260*%
%ADD18C,0.0740*%
%ADD19C,0.0200*%
%ADD20C,0.0070*%
%ADD21C,0.0100*%
%ADD22C,0.0160*%
%ADD23C,0.0600*%
%ADD24C,0.0120*%
D10*
X008340Y011688D03*
D11*
X007840Y001688D03*
D12*
X008340Y001438D03*
X008340Y011938D03*
D13*
X008340Y010438D03*
X008340Y002938D03*
D14*
X003640Y003688D02*
X003040Y003688D01*
X003040Y004688D02*
X003640Y004688D01*
X003640Y005688D02*
X003040Y005688D01*
X003040Y006688D02*
X003640Y006688D01*
X003640Y007688D02*
X003040Y007688D01*
X003040Y008688D02*
X003640Y008688D01*
D15*
X008140Y011688D03*
X008140Y001588D03*
D16*
X008140Y006638D03*
D17*
X018540Y005414D03*
X018540Y008563D03*
D18*
X004840Y011188D03*
X003840Y011188D03*
X002840Y011188D03*
X002840Y001688D03*
X003840Y001688D03*
X004840Y001688D03*
D19*
X003840Y001688D02*
X003840Y000688D01*
X007840Y000688D01*
X003840Y000688D02*
X002840Y000688D01*
X001840Y001438D01*
X001840Y005688D01*
X003340Y005688D01*
X001840Y005688D02*
X001840Y012188D01*
X003840Y012188D01*
X003840Y011188D01*
D20*
X017340Y012188D02*
X018540Y010988D01*
X018540Y008563D01*
X018540Y005414D02*
X018540Y001888D01*
X017540Y000888D01*
X011490Y000888D01*
X008140Y000988D02*
X008140Y001588D01*
X008140Y000988D02*
X007840Y000688D01*
D21*
X003840Y012188D02*
X017340Y012188D01*
D22*
X001130Y001175D02*
X001211Y000926D01*
X001365Y000714D01*
X001578Y000560D01*
X001827Y000479D01*
X001958Y000468D01*
X002500Y000468D01*
X001650Y001106D01*
X001625Y001116D01*
X001590Y001151D01*
X001552Y001180D01*
X001537Y001203D01*
X001518Y001223D01*
X001499Y001268D01*
X001474Y001310D01*
X001471Y001337D01*
X001460Y001363D01*
X001460Y001411D01*
X001453Y001459D01*
X001460Y001486D01*
X001460Y005764D01*
X001460Y012113D01*
X001460Y012264D01*
X001518Y012404D01*
X001625Y012510D01*
X001764Y012568D01*
X003764Y012568D01*
X003916Y012568D01*
X004036Y012518D01*
X005310Y012518D01*
X005310Y012908D01*
X002014Y012908D01*
X001988Y012908D01*
X001958Y012908D01*
X001827Y012898D01*
X001578Y012817D01*
X001365Y012663D01*
X001211Y012451D01*
X001130Y012201D01*
X001120Y012070D01*
X001120Y001362D01*
X001120Y001349D01*
X001120Y001306D01*
X001130Y001175D01*
X001142Y001141D02*
X001600Y001141D01*
X001481Y001299D02*
X001121Y001299D01*
X001120Y001458D02*
X001453Y001458D01*
X001460Y001616D02*
X001120Y001616D01*
X001120Y001775D02*
X001460Y001775D01*
X001460Y001933D02*
X001120Y001933D01*
X001120Y002092D02*
X001460Y002092D01*
X001460Y002251D02*
X001120Y002251D01*
X001120Y002409D02*
X001460Y002409D01*
X001460Y002568D02*
X001120Y002568D01*
X001120Y002726D02*
X001460Y002726D01*
X001460Y002885D02*
X001120Y002885D01*
X001120Y003043D02*
X001460Y003043D01*
X001460Y003202D02*
X001120Y003202D01*
X001120Y003360D02*
X001460Y003360D01*
X001460Y003519D02*
X001120Y003519D01*
X001120Y003677D02*
X001460Y003677D01*
X001460Y003836D02*
X001120Y003836D01*
X001120Y003994D02*
X001460Y003994D01*
X001460Y004153D02*
X001120Y004153D01*
X001120Y004312D02*
X001460Y004312D01*
X001460Y004470D02*
X001120Y004470D01*
X001120Y004629D02*
X001460Y004629D01*
X001460Y004787D02*
X001120Y004787D01*
X001120Y004946D02*
X001460Y004946D01*
X001460Y005104D02*
X001120Y005104D01*
X001120Y005263D02*
X001460Y005263D01*
X001460Y005421D02*
X001120Y005421D01*
X001120Y005580D02*
X001460Y005580D01*
X001460Y005738D02*
X001120Y005738D01*
X001120Y005897D02*
X001460Y005897D01*
X001460Y006056D02*
X001120Y006056D01*
X001120Y006214D02*
X001460Y006214D01*
X001460Y006373D02*
X001120Y006373D01*
X001120Y006531D02*
X001460Y006531D01*
X001460Y006690D02*
X001120Y006690D01*
X001120Y006848D02*
X001460Y006848D01*
X001460Y007007D02*
X001120Y007007D01*
X001120Y007165D02*
X001460Y007165D01*
X001460Y007324D02*
X001120Y007324D01*
X001120Y007482D02*
X001460Y007482D01*
X001460Y007641D02*
X001120Y007641D01*
X001120Y007800D02*
X001460Y007800D01*
X001460Y007958D02*
X001120Y007958D01*
X001120Y008117D02*
X001460Y008117D01*
X001460Y008275D02*
X001120Y008275D01*
X001120Y008434D02*
X001460Y008434D01*
X001460Y008592D02*
X001120Y008592D01*
X001120Y008751D02*
X001460Y008751D01*
X001460Y008909D02*
X001120Y008909D01*
X001120Y009068D02*
X001460Y009068D01*
X001460Y009226D02*
X001120Y009226D01*
X001120Y009385D02*
X001460Y009385D01*
X001460Y009544D02*
X001120Y009544D01*
X001120Y009702D02*
X001460Y009702D01*
X001460Y009861D02*
X001120Y009861D01*
X001120Y010019D02*
X001460Y010019D01*
X001460Y010178D02*
X001120Y010178D01*
X001120Y010336D02*
X001460Y010336D01*
X001460Y010495D02*
X001120Y010495D01*
X001120Y010653D02*
X001460Y010653D01*
X001460Y010812D02*
X001120Y010812D01*
X001120Y010970D02*
X001460Y010970D01*
X001460Y011129D02*
X001120Y011129D01*
X001120Y011287D02*
X001460Y011287D01*
X001460Y011446D02*
X001120Y011446D01*
X001120Y011605D02*
X001460Y011605D01*
X001460Y011763D02*
X001120Y011763D01*
X001120Y011922D02*
X001460Y011922D01*
X001460Y012080D02*
X001121Y012080D01*
X001142Y012239D02*
X001460Y012239D01*
X001515Y012397D02*
X001194Y012397D01*
X001288Y012556D02*
X001734Y012556D01*
X001436Y012714D02*
X005310Y012714D01*
X005310Y012873D02*
X001750Y012873D01*
X002220Y011808D02*
X002638Y011808D01*
X002472Y011739D01*
X002289Y011557D01*
X002220Y011390D01*
X002220Y011808D01*
X002220Y011763D02*
X002529Y011763D01*
X002337Y011605D02*
X002220Y011605D01*
X002220Y011446D02*
X002243Y011446D01*
X002220Y010987D02*
X002289Y010820D01*
X002472Y010637D01*
X002711Y010538D01*
X002969Y010538D01*
X003208Y010637D01*
X003340Y010769D01*
X003472Y010637D01*
X003711Y010538D01*
X003969Y010538D01*
X004208Y010637D01*
X004391Y010820D01*
X004404Y010852D01*
X004420Y010830D01*
X004482Y010769D01*
X004552Y010718D01*
X004629Y010679D01*
X004711Y010652D01*
X004797Y010638D01*
X004820Y010638D01*
X004820Y011168D01*
X004860Y011168D01*
X004860Y010638D01*
X004883Y010638D01*
X004969Y010652D01*
X005051Y010679D01*
X005128Y010718D01*
X005198Y010769D01*
X005259Y010830D01*
X005310Y010900D01*
X005310Y009933D01*
X005353Y009830D01*
X005431Y009751D01*
X005534Y009708D01*
X011196Y009708D01*
X011299Y009751D01*
X011377Y009830D01*
X011420Y009933D01*
X011420Y011858D01*
X017224Y011858D01*
X018225Y010858D01*
X018225Y009473D01*
X017992Y009473D01*
X017889Y009430D01*
X017811Y009352D01*
X017768Y009249D01*
X017768Y007878D01*
X017811Y007775D01*
X017889Y007696D01*
X017992Y007653D01*
X019088Y007653D01*
X019191Y007696D01*
X019269Y007775D01*
X019312Y007878D01*
X019312Y009249D01*
X019269Y009352D01*
X019191Y009430D01*
X019088Y009473D01*
X018855Y009473D01*
X018855Y010926D01*
X018855Y011051D01*
X018807Y011167D01*
X017635Y012339D01*
X017620Y012375D01*
X017527Y012468D01*
X017406Y012518D01*
X011420Y012518D01*
X011420Y012908D01*
X019222Y012908D01*
X019353Y012898D01*
X019602Y012817D01*
X019815Y012663D01*
X019969Y012451D01*
X020050Y012201D01*
X020060Y012070D01*
X020060Y001306D01*
X020050Y001175D01*
X019969Y000926D01*
X019815Y000714D01*
X019602Y000560D01*
X019353Y000479D01*
X019222Y000468D01*
X019175Y000468D01*
X019166Y000468D01*
X011890Y000468D01*
X011982Y000560D01*
X011987Y000573D01*
X017477Y000573D01*
X017603Y000573D01*
X017718Y000621D01*
X018410Y001313D01*
X018410Y001303D01*
X018514Y001053D01*
X018705Y000862D01*
X018955Y000758D01*
X019225Y000758D01*
X019475Y000862D01*
X019666Y001053D01*
X019770Y001303D01*
X019770Y001574D01*
X019666Y001824D01*
X019475Y002015D01*
X019225Y002118D01*
X018955Y002118D01*
X018855Y002077D01*
X018855Y004504D01*
X019088Y004504D01*
X019191Y004546D01*
X019269Y004625D01*
X019312Y004728D01*
X019312Y006099D01*
X019269Y006202D01*
X019191Y006281D01*
X019088Y006323D01*
X017992Y006323D01*
X017889Y006281D01*
X017811Y006202D01*
X017768Y006099D01*
X017768Y004728D01*
X017811Y004625D01*
X017889Y004546D01*
X017992Y004504D01*
X018225Y004504D01*
X018225Y002019D01*
X017409Y001203D01*
X011987Y001203D01*
X011982Y001217D01*
X011819Y001380D01*
X011620Y001462D01*
X011620Y003133D01*
X011620Y003744D01*
X011577Y003847D01*
X011499Y003926D01*
X011396Y003968D01*
X005284Y003968D01*
X005181Y003926D01*
X005103Y003847D01*
X005060Y003744D01*
X005060Y003133D01*
X005060Y002301D01*
X004969Y002338D01*
X004711Y002338D01*
X004472Y002239D01*
X004340Y002108D01*
X004208Y002239D01*
X003969Y002338D01*
X003711Y002338D01*
X003472Y002239D01*
X003289Y002057D01*
X003276Y002024D01*
X003259Y002047D01*
X003198Y002108D01*
X003128Y002159D01*
X003051Y002198D01*
X002969Y002225D01*
X002883Y002238D01*
X002860Y002238D01*
X002860Y001709D01*
X002820Y001709D01*
X002820Y002238D01*
X002797Y002238D01*
X002711Y002225D01*
X002629Y002198D01*
X002552Y002159D01*
X002482Y002108D01*
X002420Y002047D01*
X002370Y001977D01*
X002330Y001899D01*
X002304Y001817D01*
X002290Y001732D01*
X002290Y001708D01*
X002820Y001708D01*
X002820Y001668D01*
X002290Y001668D01*
X002290Y001645D01*
X002302Y001566D01*
X002220Y001628D01*
X002220Y005308D01*
X002600Y005308D01*
X002711Y005197D01*
X002732Y005188D01*
X002711Y005180D01*
X002548Y005017D01*
X002460Y004804D01*
X002460Y004573D01*
X002548Y004360D01*
X002711Y004197D01*
X002861Y004135D01*
X002856Y004133D01*
X002788Y004099D01*
X002727Y004054D01*
X002674Y004001D01*
X002629Y003940D01*
X002595Y003873D01*
X002572Y003801D01*
X002560Y003726D01*
X002560Y003708D01*
X003320Y003708D01*
X003320Y003668D01*
X003360Y003668D01*
X003360Y003208D01*
X003678Y003208D01*
X003752Y003220D01*
X003824Y003244D01*
X003892Y003278D01*
X003953Y003322D01*
X004006Y003376D01*
X004051Y003437D01*
X004085Y003504D01*
X004108Y003576D01*
X004120Y003651D01*
X004120Y003668D01*
X003360Y003668D01*
X003360Y003708D01*
X004120Y003708D01*
X004120Y003726D01*
X004108Y003801D01*
X004085Y003873D01*
X004051Y003940D01*
X004006Y004001D01*
X003953Y004054D01*
X003892Y004099D01*
X003824Y004133D01*
X003819Y004135D01*
X003969Y004197D01*
X004132Y004360D01*
X004220Y004573D01*
X004220Y004804D01*
X004132Y005017D01*
X003969Y005180D01*
X003948Y005188D01*
X003969Y005197D01*
X004132Y005360D01*
X004220Y005573D01*
X004220Y005804D01*
X004132Y006017D01*
X003969Y006180D01*
X003948Y006188D01*
X003969Y006197D01*
X004132Y006360D01*
X004220Y006573D01*
X004220Y006804D01*
X004132Y007017D01*
X003969Y007180D01*
X003948Y007188D01*
X003969Y007197D01*
X004132Y007360D01*
X004220Y007573D01*
X004220Y007804D01*
X004132Y008017D01*
X003969Y008180D01*
X003948Y008188D01*
X003969Y008197D01*
X004132Y008360D01*
X004220Y008573D01*
X004220Y008804D01*
X004132Y009017D01*
X003969Y009180D01*
X003755Y009268D01*
X002925Y009268D01*
X002711Y009180D01*
X002548Y009017D01*
X002460Y008804D01*
X002460Y008573D01*
X002548Y008360D01*
X002711Y008197D01*
X002732Y008188D01*
X002711Y008180D01*
X002548Y008017D01*
X002460Y007804D01*
X002460Y007573D01*
X002548Y007360D01*
X002711Y007197D01*
X002732Y007188D01*
X002711Y007180D01*
X002548Y007017D01*
X002460Y006804D01*
X002460Y006573D01*
X002548Y006360D01*
X002711Y006197D01*
X002732Y006188D01*
X002711Y006180D01*
X002600Y006068D01*
X002220Y006068D01*
X002220Y010987D01*
X002220Y010970D02*
X002227Y010970D01*
X002220Y010812D02*
X002297Y010812D01*
X002220Y010653D02*
X002456Y010653D01*
X002220Y010495D02*
X005310Y010495D01*
X005310Y010653D02*
X004973Y010653D01*
X004860Y010653D02*
X004820Y010653D01*
X004707Y010653D02*
X004224Y010653D01*
X004383Y010812D02*
X004439Y010812D01*
X004820Y010812D02*
X004860Y010812D01*
X004860Y010970D02*
X004820Y010970D01*
X004820Y011129D02*
X004860Y011129D01*
X004860Y011209D02*
X004820Y011209D01*
X004820Y011738D01*
X004797Y011738D01*
X004711Y011725D01*
X004629Y011698D01*
X004552Y011659D01*
X004482Y011608D01*
X004420Y011547D01*
X004404Y011524D01*
X004391Y011557D01*
X004220Y011728D01*
X004220Y011858D01*
X005310Y011858D01*
X005310Y011477D01*
X005259Y011547D01*
X005198Y011608D01*
X005128Y011659D01*
X005051Y011698D01*
X004969Y011725D01*
X004883Y011738D01*
X004860Y011738D01*
X004860Y011209D01*
X004860Y011287D02*
X004820Y011287D01*
X004820Y011446D02*
X004860Y011446D01*
X004860Y011605D02*
X004820Y011605D01*
X004478Y011605D02*
X004343Y011605D01*
X004220Y011763D02*
X005310Y011763D01*
X005310Y011605D02*
X005202Y011605D01*
X005241Y010812D02*
X005310Y010812D01*
X005310Y010336D02*
X002220Y010336D01*
X002220Y010178D02*
X005310Y010178D01*
X005310Y010019D02*
X002220Y010019D01*
X002220Y009861D02*
X005340Y009861D01*
X004081Y009068D02*
X013500Y009068D01*
X013500Y009119D02*
X013500Y008866D01*
X013550Y008744D01*
X013569Y008725D01*
X013550Y008707D01*
X013500Y008585D01*
X013500Y008454D01*
X013550Y008333D01*
X013617Y008266D01*
X013550Y008199D01*
X013500Y008078D01*
X013500Y008025D01*
X013479Y008033D01*
X013348Y008033D01*
X013227Y007983D01*
X013224Y007980D01*
X013220Y007983D01*
X013099Y008033D01*
X012972Y008033D01*
X012841Y008033D01*
X012720Y007983D01*
X012500Y007764D01*
X012450Y007642D01*
X012450Y007511D01*
X012450Y007389D01*
X012450Y007258D01*
X012500Y007136D01*
X012583Y007054D01*
X012500Y006972D01*
X012450Y006851D01*
X012450Y006339D01*
X012482Y006262D01*
X012450Y006185D01*
X012450Y006054D01*
X012500Y005933D01*
X012567Y005866D01*
X012500Y005800D01*
X012450Y005678D01*
X012450Y005547D01*
X012482Y005470D01*
X012450Y005394D01*
X012450Y004755D01*
X012500Y004634D01*
X012593Y004541D01*
X012714Y004491D01*
X012846Y004491D01*
X013500Y004491D01*
X013500Y004368D01*
X013500Y004114D01*
X013550Y003993D01*
X013569Y003974D01*
X013550Y003955D01*
X013538Y003925D01*
X013519Y003897D01*
X013513Y003865D01*
X013500Y003834D01*
X013500Y003801D01*
X013494Y003768D01*
X013500Y003736D01*
X013500Y003703D01*
X013513Y003672D01*
X013519Y003639D01*
X013538Y003612D01*
X013550Y003582D01*
X013574Y003558D01*
X013592Y003530D01*
X013616Y003514D01*
X013550Y003448D01*
X013500Y003327D01*
X013500Y003196D01*
X013550Y003075D01*
X013596Y003028D01*
X013180Y003028D01*
X013180Y003256D01*
X013128Y003381D01*
X013033Y003477D01*
X012908Y003528D01*
X012772Y003528D01*
X012647Y003477D01*
X012552Y003381D01*
X012500Y003256D01*
X012500Y002756D01*
X012500Y002621D01*
X012552Y002496D01*
X012647Y002400D01*
X012772Y002348D01*
X014772Y002348D01*
X014908Y002348D01*
X015033Y002400D01*
X015128Y002496D01*
X015180Y002621D01*
X015180Y003256D01*
X015128Y003381D01*
X015033Y003477D01*
X014908Y003528D01*
X014817Y003528D01*
X014870Y003582D01*
X014921Y003703D01*
X014921Y003834D01*
X014889Y003911D01*
X014921Y003988D01*
X014921Y004119D01*
X014870Y004240D01*
X014804Y004307D01*
X014870Y004373D01*
X014921Y004495D01*
X014921Y004626D01*
X014889Y004703D01*
X014921Y004779D01*
X014921Y004911D01*
X014870Y005032D01*
X014778Y005125D01*
X014656Y005175D01*
X014160Y005175D01*
X014160Y005307D01*
X014656Y005307D01*
X014778Y005357D01*
X014870Y005450D01*
X014921Y005571D01*
X014921Y005703D01*
X014870Y005824D01*
X014778Y005917D01*
X014656Y005967D01*
X014160Y005967D01*
X014160Y006145D01*
X014271Y006099D01*
X014403Y006099D01*
X014529Y006099D01*
X014651Y006149D01*
X014744Y006242D01*
X014870Y006369D01*
X014921Y006490D01*
X014921Y006621D01*
X014921Y006875D01*
X014870Y006996D01*
X014851Y007015D01*
X014870Y007034D01*
X014921Y007155D01*
X014921Y007535D01*
X014921Y007667D01*
X014870Y007788D01*
X014744Y007915D01*
X014725Y007934D01*
X014778Y007986D01*
X014870Y008079D01*
X014921Y008200D01*
X014921Y008332D01*
X014870Y008453D01*
X014725Y008599D01*
X014744Y008617D01*
X014744Y008618D01*
X014870Y008744D01*
X014921Y008866D01*
X014921Y008997D01*
X014921Y009119D01*
X014921Y009250D01*
X014870Y009372D01*
X014851Y009390D01*
X014870Y009409D01*
X014921Y009531D01*
X014921Y009662D01*
X014921Y009854D01*
X015033Y009900D01*
X015128Y009996D01*
X015180Y010121D01*
X015180Y010756D01*
X015128Y010881D01*
X015033Y010977D01*
X014908Y011028D01*
X014772Y011028D01*
X012772Y011028D01*
X012647Y010977D01*
X012552Y010881D01*
X012500Y010756D01*
X012500Y010621D01*
X012500Y010121D01*
X012552Y009996D01*
X012647Y009900D01*
X012772Y009848D01*
X012908Y009848D01*
X013033Y009900D01*
X013128Y009996D01*
X013180Y010121D01*
X013180Y010348D01*
X013608Y010348D01*
X013550Y010290D01*
X013500Y010169D01*
X013500Y009531D01*
X013550Y009409D01*
X013569Y009390D01*
X013550Y009372D01*
X013500Y009250D01*
X013500Y009119D01*
X013500Y009226D02*
X003856Y009226D01*
X004176Y008909D02*
X013500Y008909D01*
X013548Y008751D02*
X004220Y008751D01*
X004220Y008592D02*
X013503Y008592D01*
X013508Y008434D02*
X004162Y008434D01*
X004047Y008275D02*
X013608Y008275D01*
X013516Y008117D02*
X004032Y008117D01*
X004156Y007958D02*
X012695Y007958D01*
X012536Y007800D02*
X004220Y007800D01*
X004220Y007641D02*
X012450Y007641D01*
X012450Y007482D02*
X009114Y007482D01*
X009120Y007462D02*
X009108Y007508D01*
X009084Y007549D01*
X009051Y007582D01*
X009009Y007606D01*
X008964Y007618D01*
X008220Y007618D01*
X008220Y006718D01*
X009120Y006718D01*
X009120Y007462D01*
X009120Y007324D02*
X012450Y007324D01*
X012488Y007165D02*
X009120Y007165D01*
X009120Y007007D02*
X012535Y007007D01*
X012450Y006848D02*
X009120Y006848D01*
X009120Y006558D02*
X008220Y006558D01*
X008220Y005658D01*
X008964Y005658D01*
X009009Y005671D01*
X009051Y005694D01*
X009084Y005728D01*
X009108Y005769D01*
X009120Y005815D01*
X009120Y006558D01*
X009120Y006531D02*
X012450Y006531D01*
X012450Y006373D02*
X009120Y006373D01*
X009120Y006214D02*
X012462Y006214D01*
X012450Y006056D02*
X009120Y006056D01*
X009120Y005897D02*
X012536Y005897D01*
X012475Y005738D02*
X009090Y005738D01*
X008220Y005738D02*
X008060Y005738D01*
X008060Y005658D02*
X008060Y006558D01*
X008220Y006558D01*
X008220Y006718D01*
X008060Y006718D01*
X008060Y006558D01*
X007160Y006558D01*
X007160Y005815D01*
X007172Y005769D01*
X007196Y005728D01*
X007229Y005694D01*
X007271Y005671D01*
X007316Y005658D01*
X008060Y005658D01*
X008060Y005897D02*
X008220Y005897D01*
X008220Y006056D02*
X008060Y006056D01*
X008060Y006214D02*
X008220Y006214D01*
X008220Y006373D02*
X008060Y006373D01*
X008060Y006531D02*
X008220Y006531D01*
X008220Y006690D02*
X012450Y006690D01*
X014160Y006056D02*
X017768Y006056D01*
X017768Y005897D02*
X014797Y005897D01*
X014906Y005738D02*
X017768Y005738D01*
X017768Y005580D02*
X014921Y005580D01*
X014842Y005421D02*
X017768Y005421D01*
X017768Y005263D02*
X014160Y005263D01*
X013500Y005263D02*
X013110Y005263D01*
X013110Y005283D02*
X013226Y005283D01*
X013353Y005283D01*
X013474Y005333D01*
X013500Y005359D01*
X013500Y005151D01*
X013110Y005151D01*
X013110Y005283D01*
X012450Y005263D02*
X004035Y005263D01*
X004044Y005104D02*
X012450Y005104D01*
X012450Y004946D02*
X004161Y004946D01*
X004220Y004787D02*
X012450Y004787D01*
X012506Y004629D02*
X004220Y004629D01*
X004177Y004470D02*
X013500Y004470D01*
X013500Y004312D02*
X004083Y004312D01*
X003863Y004153D02*
X013500Y004153D01*
X013550Y003994D02*
X004011Y003994D01*
X004097Y003836D02*
X005098Y003836D01*
X005060Y003677D02*
X003360Y003677D01*
X003320Y003677D02*
X002220Y003677D01*
X002220Y003519D02*
X002590Y003519D01*
X002595Y003504D02*
X002629Y003437D01*
X002674Y003376D01*
X002727Y003322D01*
X002788Y003278D01*
X002856Y003244D01*
X002928Y003220D01*
X003002Y003208D01*
X003320Y003208D01*
X003320Y003668D01*
X002560Y003668D01*
X002560Y003651D01*
X002572Y003576D01*
X002595Y003504D01*
X002689Y003360D02*
X002220Y003360D01*
X002220Y003202D02*
X005060Y003202D01*
X005060Y003043D02*
X002220Y003043D01*
X002220Y002885D02*
X005060Y002885D01*
X005060Y002726D02*
X002220Y002726D01*
X002220Y002568D02*
X005060Y002568D01*
X005060Y002409D02*
X002220Y002409D01*
X002220Y002251D02*
X003499Y002251D01*
X003324Y002092D02*
X003214Y002092D01*
X002860Y002092D02*
X002820Y002092D01*
X002820Y001933D02*
X002860Y001933D01*
X002860Y001775D02*
X002820Y001775D01*
X002466Y002092D02*
X002220Y002092D01*
X002220Y001933D02*
X002348Y001933D01*
X002297Y001775D02*
X002220Y001775D01*
X002236Y001616D02*
X002295Y001616D01*
X002873Y001138D02*
X002883Y001138D01*
X002969Y001152D01*
X003051Y001179D01*
X003128Y001218D01*
X003198Y001269D01*
X003259Y001330D01*
X003276Y001352D01*
X003289Y001320D01*
X003460Y001149D01*
X003460Y001068D01*
X002967Y001068D01*
X002873Y001138D01*
X002898Y001141D02*
X003460Y001141D01*
X003310Y001299D02*
X003229Y001299D01*
X004220Y001149D02*
X004220Y001068D01*
X004638Y001068D01*
X004472Y001137D01*
X004340Y001269D01*
X004220Y001149D01*
X004220Y001141D02*
X004468Y001141D01*
X005042Y001068D02*
X005060Y001076D01*
X005060Y001068D01*
X005042Y001068D01*
X004499Y002251D02*
X004181Y002251D01*
X003991Y003360D02*
X005060Y003360D01*
X005060Y003519D02*
X004090Y003519D01*
X003360Y003519D02*
X003320Y003519D01*
X003320Y003360D02*
X003360Y003360D01*
X002583Y003836D02*
X002220Y003836D01*
X002220Y003994D02*
X002669Y003994D01*
X002817Y004153D02*
X002220Y004153D01*
X002220Y004312D02*
X002597Y004312D01*
X002503Y004470D02*
X002220Y004470D01*
X002220Y004629D02*
X002460Y004629D01*
X002460Y004787D02*
X002220Y004787D01*
X002220Y004946D02*
X002519Y004946D01*
X002636Y005104D02*
X002220Y005104D01*
X002220Y005263D02*
X002645Y005263D01*
X002694Y006214D02*
X002220Y006214D01*
X002220Y006373D02*
X002543Y006373D01*
X002477Y006531D02*
X002220Y006531D01*
X002220Y006690D02*
X002460Y006690D01*
X002478Y006848D02*
X002220Y006848D01*
X002220Y007007D02*
X002544Y007007D01*
X002697Y007165D02*
X002220Y007165D01*
X002220Y007324D02*
X002584Y007324D01*
X002497Y007482D02*
X002220Y007482D01*
X002220Y007641D02*
X002460Y007641D01*
X002460Y007800D02*
X002220Y007800D01*
X002220Y007958D02*
X002524Y007958D01*
X002648Y008117D02*
X002220Y008117D01*
X002220Y008275D02*
X002633Y008275D01*
X002518Y008434D02*
X002220Y008434D01*
X002220Y008592D02*
X002460Y008592D01*
X002460Y008751D02*
X002220Y008751D01*
X002220Y008909D02*
X002504Y008909D01*
X002599Y009068D02*
X002220Y009068D01*
X002220Y009226D02*
X002824Y009226D01*
X002220Y009385D02*
X013564Y009385D01*
X013500Y009544D02*
X002220Y009544D01*
X002220Y009702D02*
X013500Y009702D01*
X013500Y009861D02*
X012937Y009861D01*
X012743Y009861D02*
X011390Y009861D01*
X011420Y010019D02*
X012542Y010019D01*
X012500Y010178D02*
X011420Y010178D01*
X011420Y010336D02*
X012500Y010336D01*
X012500Y010495D02*
X011420Y010495D01*
X011420Y010653D02*
X012500Y010653D01*
X012523Y010812D02*
X011420Y010812D01*
X011420Y010970D02*
X012641Y010970D01*
X013180Y010336D02*
X013596Y010336D01*
X013504Y010178D02*
X013180Y010178D01*
X013138Y010019D02*
X013500Y010019D01*
X014052Y010348D02*
X014369Y010348D01*
X014311Y010290D01*
X014265Y010180D01*
X014155Y010180D01*
X014110Y010290D01*
X014052Y010348D01*
X014064Y010336D02*
X014357Y010336D01*
X014937Y009861D02*
X018225Y009861D01*
X018225Y010019D02*
X015138Y010019D01*
X015180Y010178D02*
X018225Y010178D01*
X018225Y010336D02*
X015180Y010336D01*
X015180Y010495D02*
X018225Y010495D01*
X018225Y010653D02*
X015180Y010653D01*
X015157Y010812D02*
X018225Y010812D01*
X018112Y010970D02*
X015039Y010970D01*
X014921Y009702D02*
X018225Y009702D01*
X018225Y009544D02*
X014921Y009544D01*
X014857Y009385D02*
X017844Y009385D01*
X017768Y009226D02*
X014921Y009226D01*
X014921Y009068D02*
X017768Y009068D01*
X017768Y008909D02*
X014921Y008909D01*
X014873Y008751D02*
X017768Y008751D01*
X017768Y008592D02*
X014731Y008592D01*
X014878Y008434D02*
X017768Y008434D01*
X017768Y008275D02*
X014921Y008275D01*
X014886Y008117D02*
X017768Y008117D01*
X017768Y007958D02*
X014749Y007958D01*
X014859Y007800D02*
X017800Y007800D01*
X019280Y007800D02*
X020060Y007800D01*
X020060Y007958D02*
X019312Y007958D01*
X019312Y008117D02*
X020060Y008117D01*
X020060Y008275D02*
X019312Y008275D01*
X019312Y008434D02*
X020060Y008434D01*
X020060Y008592D02*
X019312Y008592D01*
X019312Y008751D02*
X020060Y008751D01*
X020060Y008909D02*
X019312Y008909D01*
X019312Y009068D02*
X020060Y009068D01*
X020060Y009226D02*
X019312Y009226D01*
X019236Y009385D02*
X020060Y009385D01*
X020060Y009544D02*
X018855Y009544D01*
X018855Y009702D02*
X020060Y009702D01*
X020060Y009861D02*
X018855Y009861D01*
X018855Y010019D02*
X020060Y010019D01*
X020060Y010178D02*
X018855Y010178D01*
X018855Y010336D02*
X020060Y010336D01*
X020060Y010495D02*
X018855Y010495D01*
X018855Y010653D02*
X020060Y010653D01*
X020060Y010812D02*
X018855Y010812D01*
X018855Y010970D02*
X020060Y010970D01*
X020060Y011129D02*
X018823Y011129D01*
X018884Y011287D02*
X018686Y011287D01*
X018705Y011362D02*
X018955Y011258D01*
X019225Y011258D01*
X019475Y011362D01*
X019666Y011553D01*
X019770Y011803D01*
X019770Y012074D01*
X019666Y012324D01*
X019475Y012515D01*
X019225Y012618D01*
X018955Y012618D01*
X018705Y012515D01*
X018514Y012324D01*
X018410Y012074D01*
X018410Y011803D01*
X018514Y011553D01*
X018705Y011362D01*
X018621Y011446D02*
X018528Y011446D01*
X018492Y011605D02*
X018369Y011605D01*
X018427Y011763D02*
X018211Y011763D01*
X018052Y011922D02*
X018410Y011922D01*
X018413Y012080D02*
X017894Y012080D01*
X017735Y012239D02*
X018478Y012239D01*
X018587Y012397D02*
X017598Y012397D01*
X017320Y011763D02*
X011420Y011763D01*
X011420Y011605D02*
X017478Y011605D01*
X017637Y011446D02*
X011420Y011446D01*
X011420Y011287D02*
X017795Y011287D01*
X017954Y011129D02*
X011420Y011129D01*
X011420Y012556D02*
X018804Y012556D01*
X019376Y012556D02*
X019892Y012556D01*
X019986Y012397D02*
X019593Y012397D01*
X019702Y012239D02*
X020038Y012239D01*
X020059Y012080D02*
X019767Y012080D01*
X019770Y011922D02*
X020060Y011922D01*
X020060Y011763D02*
X019753Y011763D01*
X019688Y011605D02*
X020060Y011605D01*
X020060Y011446D02*
X019559Y011446D01*
X019296Y011287D02*
X020060Y011287D01*
X019744Y012714D02*
X011420Y012714D01*
X011420Y012873D02*
X019430Y012873D01*
X020060Y007641D02*
X014921Y007641D01*
X014921Y007482D02*
X020060Y007482D01*
X020060Y007324D02*
X014921Y007324D01*
X014921Y007165D02*
X020060Y007165D01*
X020060Y007007D02*
X014860Y007007D01*
X014921Y006848D02*
X020060Y006848D01*
X020060Y006690D02*
X014921Y006690D01*
X014921Y006531D02*
X020060Y006531D01*
X020060Y006373D02*
X014872Y006373D01*
X014716Y006214D02*
X017823Y006214D01*
X019257Y006214D02*
X020060Y006214D01*
X020060Y006056D02*
X019312Y006056D01*
X019312Y005897D02*
X020060Y005897D01*
X020060Y005738D02*
X019312Y005738D01*
X019312Y005580D02*
X020060Y005580D01*
X020060Y005421D02*
X019312Y005421D01*
X019312Y005263D02*
X020060Y005263D01*
X020060Y005104D02*
X019312Y005104D01*
X019312Y004946D02*
X020060Y004946D01*
X020060Y004787D02*
X019312Y004787D01*
X019271Y004629D02*
X020060Y004629D01*
X020060Y004470D02*
X018855Y004470D01*
X018855Y004312D02*
X020060Y004312D01*
X020060Y004153D02*
X018855Y004153D01*
X018855Y003994D02*
X020060Y003994D01*
X020060Y003836D02*
X018855Y003836D01*
X018855Y003677D02*
X020060Y003677D01*
X020060Y003519D02*
X018855Y003519D01*
X018855Y003360D02*
X020060Y003360D01*
X020060Y003202D02*
X018855Y003202D01*
X018855Y003043D02*
X020060Y003043D01*
X020060Y002885D02*
X018855Y002885D01*
X018855Y002726D02*
X020060Y002726D01*
X020060Y002568D02*
X018855Y002568D01*
X018855Y002409D02*
X020060Y002409D01*
X020060Y002251D02*
X018855Y002251D01*
X018855Y002092D02*
X018891Y002092D01*
X019289Y002092D02*
X020060Y002092D01*
X020060Y001933D02*
X019557Y001933D01*
X019687Y001775D02*
X020060Y001775D01*
X020060Y001616D02*
X019752Y001616D01*
X019770Y001458D02*
X020060Y001458D01*
X020059Y001299D02*
X019768Y001299D01*
X019703Y001141D02*
X020038Y001141D01*
X019987Y000982D02*
X019595Y000982D01*
X019383Y000824D02*
X019894Y000824D01*
X019748Y000665D02*
X017762Y000665D01*
X017921Y000824D02*
X018797Y000824D01*
X018584Y000982D02*
X018079Y000982D01*
X018238Y001141D02*
X018477Y001141D01*
X018412Y001299D02*
X018396Y001299D01*
X017823Y001616D02*
X011620Y001616D01*
X011620Y001775D02*
X017981Y001775D01*
X018140Y001933D02*
X011620Y001933D01*
X011620Y002092D02*
X018225Y002092D01*
X018225Y002251D02*
X011620Y002251D01*
X011620Y002409D02*
X012638Y002409D01*
X012522Y002568D02*
X011620Y002568D01*
X011620Y002726D02*
X012500Y002726D01*
X012500Y002885D02*
X011620Y002885D01*
X011620Y003043D02*
X012500Y003043D01*
X012500Y003202D02*
X011620Y003202D01*
X011620Y003360D02*
X012543Y003360D01*
X012750Y003519D02*
X011620Y003519D01*
X011620Y003677D02*
X013511Y003677D01*
X013501Y003836D02*
X011582Y003836D01*
X012930Y003519D02*
X013610Y003519D01*
X013514Y003360D02*
X013137Y003360D01*
X013180Y003202D02*
X013500Y003202D01*
X013582Y003043D02*
X013180Y003043D01*
X014930Y003519D02*
X018225Y003519D01*
X018225Y003677D02*
X014910Y003677D01*
X014920Y003836D02*
X018225Y003836D01*
X018225Y003994D02*
X014921Y003994D01*
X014906Y004153D02*
X018225Y004153D01*
X018225Y004312D02*
X014808Y004312D01*
X014910Y004470D02*
X018225Y004470D01*
X017809Y004629D02*
X014920Y004629D01*
X014921Y004787D02*
X017768Y004787D01*
X017768Y004946D02*
X014906Y004946D01*
X014798Y005104D02*
X017768Y005104D01*
X018225Y003360D02*
X015137Y003360D01*
X015180Y003202D02*
X018225Y003202D01*
X018225Y003043D02*
X015180Y003043D01*
X015180Y002885D02*
X018225Y002885D01*
X018225Y002726D02*
X015180Y002726D01*
X015158Y002568D02*
X018225Y002568D01*
X018225Y002409D02*
X015041Y002409D01*
X017505Y001299D02*
X011899Y001299D01*
X011631Y001458D02*
X017664Y001458D01*
X019439Y000507D02*
X011928Y000507D01*
X012462Y005421D02*
X004157Y005421D01*
X004220Y005580D02*
X012450Y005580D01*
X008220Y006848D02*
X008060Y006848D01*
X008060Y006718D02*
X008060Y007618D01*
X007316Y007618D01*
X007271Y007606D01*
X007229Y007582D01*
X007196Y007549D01*
X007172Y007508D01*
X007160Y007462D01*
X007160Y006718D01*
X008060Y006718D01*
X008060Y006690D02*
X004220Y006690D01*
X004202Y006848D02*
X007160Y006848D01*
X007160Y007007D02*
X004136Y007007D01*
X003983Y007165D02*
X007160Y007165D01*
X007160Y007324D02*
X004096Y007324D01*
X004182Y007482D02*
X007166Y007482D01*
X008060Y007482D02*
X008220Y007482D01*
X008220Y007324D02*
X008060Y007324D01*
X008060Y007165D02*
X008220Y007165D01*
X008220Y007007D02*
X008060Y007007D01*
X007160Y006531D02*
X004203Y006531D01*
X004137Y006373D02*
X007160Y006373D01*
X007160Y006214D02*
X003986Y006214D01*
X004093Y006056D02*
X007160Y006056D01*
X007160Y005897D02*
X004181Y005897D01*
X004220Y005738D02*
X007190Y005738D01*
X001815Y000982D02*
X001193Y000982D01*
X001286Y000824D02*
X002026Y000824D01*
X002238Y000665D02*
X001432Y000665D01*
X001741Y000507D02*
X002449Y000507D01*
X003224Y010653D02*
X003456Y010653D01*
X003340Y011608D02*
X003460Y011728D01*
X003460Y011808D01*
X003042Y011808D01*
X003208Y011739D01*
X003340Y011608D01*
X003460Y011763D02*
X003151Y011763D01*
X003946Y012556D02*
X005310Y012556D01*
D23*
X011490Y000888D03*
D24*
X012340Y002188D02*
X015340Y002188D01*
X015340Y011188D01*
X012340Y011188D01*
X012340Y002188D01*
X012340Y002283D02*
X015340Y002283D01*
X015340Y002402D02*
X012340Y002402D01*
X012340Y002520D02*
X015340Y002520D01*
X015340Y002639D02*
X014960Y002639D01*
X014960Y003238D01*
X014890Y003308D01*
X014790Y003308D01*
X014720Y003238D01*
X014720Y002808D01*
X012960Y002808D01*
X012960Y003238D01*
X012890Y003308D01*
X012790Y003308D01*
X012720Y003238D01*
X012720Y002738D01*
X012720Y002639D01*
X012340Y002639D01*
X012340Y002757D02*
X012720Y002757D01*
X012720Y002639D02*
X012790Y002568D01*
X014790Y002568D01*
X014890Y002568D01*
X014960Y002639D01*
X014960Y002757D02*
X015340Y002757D01*
X015340Y002876D02*
X014960Y002876D01*
X014960Y002994D02*
X015340Y002994D01*
X015340Y003113D02*
X014960Y003113D01*
X014960Y003231D02*
X015340Y003231D01*
X015340Y003350D02*
X014658Y003350D01*
X014661Y003347D02*
X014636Y003371D01*
X014624Y003371D01*
X014193Y003659D01*
X014636Y003659D01*
X014701Y003723D01*
X014701Y003814D01*
X014636Y003879D01*
X013863Y003879D01*
X013853Y003885D01*
X013819Y003879D01*
X013784Y003879D01*
X013776Y003870D01*
X013764Y003867D01*
X013745Y003839D01*
X013720Y003814D01*
X013720Y003802D01*
X013713Y003792D01*
X013720Y003758D01*
X013720Y003723D01*
X013729Y003714D01*
X013731Y003702D01*
X013760Y003683D01*
X013784Y003659D01*
X013797Y003659D01*
X014227Y003371D01*
X013784Y003371D01*
X013720Y003307D01*
X013720Y003216D01*
X013784Y003151D01*
X014557Y003151D01*
X014567Y003145D01*
X014602Y003151D01*
X014636Y003151D01*
X014645Y003160D01*
X014657Y003163D01*
X014676Y003191D01*
X014701Y003216D01*
X014701Y003228D01*
X014707Y003238D01*
X014701Y003272D01*
X014701Y003307D01*
X014692Y003316D01*
X014690Y003328D01*
X014661Y003347D01*
X014703Y003231D02*
X014720Y003231D01*
X014720Y003113D02*
X012960Y003113D01*
X012960Y003231D02*
X013720Y003231D01*
X013763Y003350D02*
X012340Y003350D01*
X012340Y003469D02*
X014082Y003469D01*
X013904Y003587D02*
X012340Y003587D01*
X012340Y003706D02*
X013730Y003706D01*
X013730Y003824D02*
X012340Y003824D01*
X012340Y003943D02*
X015340Y003943D01*
X015340Y004061D02*
X014701Y004061D01*
X014701Y004099D02*
X014636Y004163D01*
X014002Y004163D01*
X013940Y004226D01*
X013940Y004388D01*
X014002Y004450D01*
X014636Y004450D01*
X014701Y004515D01*
X014701Y004606D01*
X014636Y004670D01*
X013911Y004670D01*
X013847Y004606D01*
X013720Y004479D01*
X013720Y004388D01*
X013720Y004134D01*
X013784Y004070D01*
X013911Y003943D01*
X014002Y003943D01*
X014636Y003943D01*
X014701Y004008D01*
X014701Y004099D01*
X014691Y003824D02*
X015340Y003824D01*
X015340Y003706D02*
X014683Y003706D01*
X014478Y003469D02*
X015340Y003469D01*
X015340Y003587D02*
X014300Y003587D01*
X013793Y004061D02*
X012340Y004061D01*
X012340Y004180D02*
X013720Y004180D01*
X013720Y004298D02*
X012340Y004298D01*
X012340Y004417D02*
X013720Y004417D01*
X013776Y004535D02*
X012340Y004535D01*
X012340Y004654D02*
X013895Y004654D01*
X013876Y004735D02*
X014636Y004735D01*
X014701Y004800D01*
X014701Y004891D01*
X014636Y004955D01*
X013940Y004955D01*
X013940Y005398D01*
X013876Y005462D01*
X013784Y005462D01*
X013720Y005398D01*
X013720Y004800D01*
X013784Y004735D01*
X013876Y004735D01*
X013747Y004773D02*
X013648Y004773D01*
X013651Y004775D02*
X013651Y004866D01*
X013586Y004931D01*
X012890Y004931D01*
X012890Y005374D01*
X012826Y005438D01*
X012734Y005438D01*
X012670Y005374D01*
X012670Y004775D01*
X012734Y004711D01*
X012826Y004711D01*
X013586Y004711D01*
X013651Y004775D01*
X013626Y004891D02*
X013720Y004891D01*
X013720Y005010D02*
X012890Y005010D01*
X012890Y005128D02*
X013720Y005128D01*
X013720Y005247D02*
X012890Y005247D01*
X012890Y005365D02*
X013720Y005365D01*
X013784Y005527D02*
X013720Y005591D01*
X013720Y006190D01*
X013784Y006254D01*
X013876Y006254D01*
X013940Y006190D01*
X013940Y005747D01*
X014636Y005747D01*
X014701Y005683D01*
X014701Y005591D01*
X014636Y005527D01*
X013876Y005527D01*
X013784Y005527D01*
X013720Y005602D02*
X013432Y005602D01*
X013333Y005503D02*
X013586Y005756D01*
X013651Y005821D01*
X013651Y005912D01*
X013397Y006165D01*
X013333Y006230D01*
X013206Y006230D01*
X013115Y006230D01*
X012734Y006230D01*
X012670Y006165D01*
X012670Y006074D01*
X012734Y006010D01*
X013050Y006010D01*
X013050Y005723D01*
X012734Y005723D01*
X012670Y005658D01*
X012670Y005567D01*
X012734Y005503D01*
X013115Y005503D01*
X013206Y005503D01*
X013241Y005503D01*
X013333Y005503D01*
X013270Y005751D02*
X013270Y005981D01*
X013385Y005866D01*
X013270Y005751D01*
X013270Y005839D02*
X013358Y005839D01*
X013293Y005958D02*
X013270Y005958D01*
X013050Y005958D02*
X012340Y005958D01*
X012340Y006076D02*
X012670Y006076D01*
X012700Y006195D02*
X012340Y006195D01*
X012340Y006314D02*
X012715Y006314D01*
X012734Y006295D02*
X012670Y006359D01*
X012670Y006830D01*
X012734Y006895D01*
X012861Y007022D01*
X012952Y007022D01*
X013079Y007022D01*
X013144Y006957D01*
X013160Y006940D01*
X013241Y007022D01*
X013333Y007022D01*
X013459Y007022D01*
X013524Y006957D01*
X013651Y006830D01*
X013651Y006739D01*
X013651Y006359D01*
X013586Y006295D01*
X013495Y006295D01*
X013206Y006295D01*
X013115Y006295D01*
X012826Y006295D01*
X012734Y006295D01*
X012670Y006432D02*
X012340Y006432D01*
X012340Y006551D02*
X012670Y006551D01*
X012670Y006669D02*
X012340Y006669D01*
X012340Y006788D02*
X012670Y006788D01*
X012746Y006906D02*
X012340Y006906D01*
X012340Y007025D02*
X013890Y007025D01*
X013911Y007046D02*
X013784Y006919D01*
X013720Y006855D01*
X013720Y006601D01*
X013720Y006510D01*
X013911Y006319D01*
X014002Y006319D01*
X014067Y006383D01*
X014067Y006474D01*
X013940Y006601D01*
X013940Y006764D01*
X014002Y006826D01*
X014038Y006826D01*
X014100Y006764D01*
X014100Y006510D01*
X014165Y006446D01*
X014291Y006319D01*
X014383Y006319D01*
X014509Y006319D01*
X014574Y006383D01*
X014701Y006510D01*
X014701Y006601D01*
X014701Y006855D01*
X014636Y006919D01*
X014509Y007046D01*
X014418Y007046D01*
X014354Y006981D01*
X014354Y006890D01*
X014481Y006764D01*
X014481Y006601D01*
X014418Y006539D01*
X014383Y006539D01*
X014320Y006601D01*
X014320Y006764D01*
X014320Y006855D01*
X014194Y006981D01*
X014129Y007046D01*
X014002Y007046D01*
X013911Y007046D01*
X013784Y007111D02*
X013720Y007175D01*
X013720Y007266D01*
X013784Y007331D01*
X013974Y007331D01*
X013974Y007647D01*
X014038Y007711D01*
X014165Y007838D01*
X014256Y007838D01*
X014509Y007838D01*
X014574Y007773D01*
X014701Y007647D01*
X014701Y007555D01*
X014701Y007175D01*
X014636Y007111D01*
X014545Y007111D01*
X014129Y007111D01*
X014038Y007111D01*
X013784Y007111D01*
X013752Y007143D02*
X013516Y007143D01*
X013524Y007151D02*
X013651Y007278D01*
X013651Y007369D01*
X013651Y007622D01*
X013586Y007687D01*
X013459Y007813D01*
X013368Y007813D01*
X013304Y007749D01*
X013304Y007658D01*
X013431Y007531D01*
X013431Y007369D01*
X013368Y007306D01*
X013333Y007306D01*
X013270Y007369D01*
X013270Y007531D01*
X013270Y007622D01*
X013144Y007749D01*
X013079Y007813D01*
X012952Y007813D01*
X012861Y007813D01*
X012670Y007622D01*
X012670Y007531D01*
X012670Y007369D01*
X012670Y007278D01*
X012861Y007086D01*
X012952Y007086D01*
X013017Y007151D01*
X013017Y007242D01*
X012890Y007369D01*
X012890Y007531D01*
X012952Y007594D01*
X012988Y007594D01*
X013050Y007531D01*
X013050Y007278D01*
X013115Y007213D01*
X013241Y007086D01*
X013333Y007086D01*
X013459Y007086D01*
X013524Y007151D01*
X013635Y007262D02*
X013720Y007262D01*
X013651Y007380D02*
X013974Y007380D01*
X013974Y007499D02*
X013651Y007499D01*
X013651Y007618D02*
X013974Y007618D01*
X014063Y007736D02*
X013537Y007736D01*
X013344Y007618D02*
X013270Y007618D01*
X013270Y007499D02*
X013431Y007499D01*
X013431Y007380D02*
X013270Y007380D01*
X013050Y007380D02*
X012890Y007380D01*
X012890Y007499D02*
X013050Y007499D01*
X013156Y007736D02*
X013304Y007736D01*
X013720Y007967D02*
X013784Y007903D01*
X014165Y007903D01*
X014256Y007903D01*
X014291Y007903D01*
X014383Y007903D01*
X014636Y008156D01*
X014701Y008221D01*
X014701Y008312D01*
X014447Y008565D01*
X014383Y008630D01*
X014256Y008630D01*
X014165Y008630D01*
X013784Y008630D01*
X013720Y008565D01*
X013720Y008474D01*
X013784Y008410D01*
X014100Y008410D01*
X014100Y008123D01*
X013784Y008123D01*
X013720Y008058D01*
X013720Y007967D01*
X013720Y007973D02*
X012340Y007973D01*
X012340Y007855D02*
X015340Y007855D01*
X015340Y007973D02*
X014453Y007973D01*
X014572Y008092D02*
X015340Y008092D01*
X015340Y008210D02*
X014690Y008210D01*
X014683Y008329D02*
X015340Y008329D01*
X015340Y008447D02*
X014565Y008447D01*
X014446Y008566D02*
X015340Y008566D01*
X015340Y008684D02*
X012340Y008684D01*
X012340Y008566D02*
X013721Y008566D01*
X013747Y008447D02*
X012340Y008447D01*
X012340Y008329D02*
X014100Y008329D01*
X014100Y008210D02*
X012340Y008210D01*
X012340Y008092D02*
X013754Y008092D01*
X014320Y008151D02*
X014320Y008381D01*
X014435Y008266D01*
X014320Y008151D01*
X014320Y008210D02*
X014379Y008210D01*
X014372Y008329D02*
X014320Y008329D01*
X014509Y008694D02*
X014002Y008694D01*
X013911Y008694D01*
X013784Y008821D01*
X013720Y008886D01*
X013720Y009139D01*
X013720Y009230D01*
X013911Y009421D01*
X014002Y009421D01*
X014067Y009357D01*
X014067Y009266D01*
X013940Y009139D01*
X013940Y008977D01*
X014002Y008914D01*
X014418Y008914D01*
X014481Y008977D01*
X014481Y009139D01*
X014354Y009266D01*
X014354Y009357D01*
X014418Y009421D01*
X014509Y009421D01*
X014701Y009230D01*
X014701Y009139D01*
X014701Y008977D01*
X014701Y008886D01*
X014574Y008759D01*
X014574Y008759D01*
X014509Y008694D01*
X014618Y008803D02*
X015340Y008803D01*
X015340Y008922D02*
X014701Y008922D01*
X014701Y009040D02*
X015340Y009040D01*
X015340Y009159D02*
X014701Y009159D01*
X014654Y009277D02*
X015340Y009277D01*
X015340Y009396D02*
X014535Y009396D01*
X014636Y009486D02*
X014701Y009551D01*
X014701Y009642D01*
X014701Y010149D01*
X014636Y010213D01*
X014545Y010213D01*
X014481Y010149D01*
X014481Y009706D01*
X014320Y009706D01*
X014320Y009895D01*
X014256Y009960D01*
X014165Y009960D01*
X014100Y009895D01*
X014100Y009706D01*
X013940Y009706D01*
X013940Y010149D01*
X013876Y010213D01*
X013784Y010213D01*
X013720Y010149D01*
X013720Y009551D01*
X013784Y009486D01*
X013876Y009486D01*
X014165Y009486D01*
X014256Y009486D01*
X014636Y009486D01*
X014664Y009514D02*
X015340Y009514D01*
X015340Y009633D02*
X014701Y009633D01*
X014701Y009751D02*
X015340Y009751D01*
X015340Y009870D02*
X014701Y009870D01*
X014701Y009988D02*
X015340Y009988D01*
X015340Y010107D02*
X014928Y010107D01*
X014960Y010139D02*
X014960Y010738D01*
X014890Y010808D01*
X014790Y010808D01*
X012790Y010808D01*
X012720Y010738D01*
X012720Y010639D01*
X012720Y010139D01*
X012790Y010068D01*
X012890Y010068D01*
X012960Y010139D01*
X012960Y010568D01*
X014720Y010568D01*
X014720Y010139D01*
X014790Y010068D01*
X014890Y010068D01*
X014960Y010139D01*
X014960Y010226D02*
X015340Y010226D01*
X015340Y010344D02*
X014960Y010344D01*
X014960Y010463D02*
X015340Y010463D01*
X015340Y010581D02*
X014960Y010581D01*
X014960Y010700D02*
X015340Y010700D01*
X015340Y010818D02*
X012340Y010818D01*
X012340Y010700D02*
X012720Y010700D01*
X012720Y010581D02*
X012340Y010581D01*
X012340Y010463D02*
X012720Y010463D01*
X012720Y010344D02*
X012340Y010344D01*
X012340Y010226D02*
X012720Y010226D01*
X012752Y010107D02*
X012340Y010107D01*
X012340Y009988D02*
X013720Y009988D01*
X013720Y009870D02*
X012340Y009870D01*
X012340Y009751D02*
X013720Y009751D01*
X013720Y009633D02*
X012340Y009633D01*
X012340Y009514D02*
X013756Y009514D01*
X013885Y009396D02*
X012340Y009396D01*
X012340Y009277D02*
X013767Y009277D01*
X013720Y009159D02*
X012340Y009159D01*
X012340Y009040D02*
X013720Y009040D01*
X013720Y008922D02*
X012340Y008922D01*
X012340Y008803D02*
X013803Y008803D01*
X013995Y008922D02*
X014425Y008922D01*
X014481Y009040D02*
X013940Y009040D01*
X013959Y009159D02*
X014461Y009159D01*
X014354Y009277D02*
X014067Y009277D01*
X014028Y009396D02*
X014393Y009396D01*
X014320Y009751D02*
X014481Y009751D01*
X014481Y009870D02*
X014320Y009870D01*
X014481Y009988D02*
X013940Y009988D01*
X013940Y009870D02*
X014100Y009870D01*
X014100Y009751D02*
X013940Y009751D01*
X013940Y010107D02*
X014481Y010107D01*
X014701Y010107D02*
X014752Y010107D01*
X014720Y010226D02*
X012960Y010226D01*
X012960Y010344D02*
X014720Y010344D01*
X014720Y010463D02*
X012960Y010463D01*
X012928Y010107D02*
X013720Y010107D01*
X012340Y010937D02*
X015340Y010937D01*
X015340Y011055D02*
X012340Y011055D01*
X012340Y011174D02*
X015340Y011174D01*
X015340Y007736D02*
X014611Y007736D01*
X014701Y007618D02*
X015340Y007618D01*
X015340Y007499D02*
X014701Y007499D01*
X014701Y007380D02*
X015340Y007380D01*
X015340Y007262D02*
X014701Y007262D01*
X014669Y007143D02*
X015340Y007143D01*
X015340Y007025D02*
X014530Y007025D01*
X014397Y007025D02*
X014150Y007025D01*
X014269Y006906D02*
X014354Y006906D01*
X014320Y006788D02*
X014456Y006788D01*
X014481Y006669D02*
X014320Y006669D01*
X014371Y006551D02*
X014430Y006551D01*
X014623Y006432D02*
X015340Y006432D01*
X015340Y006314D02*
X013605Y006314D01*
X013651Y006432D02*
X013798Y006432D01*
X013720Y006551D02*
X013651Y006551D01*
X013651Y006669D02*
X013720Y006669D01*
X013720Y006788D02*
X013651Y006788D01*
X013575Y006906D02*
X013772Y006906D01*
X013964Y006788D02*
X014076Y006788D01*
X014100Y006669D02*
X013940Y006669D01*
X013990Y006551D02*
X014100Y006551D01*
X014067Y006432D02*
X014178Y006432D01*
X013935Y006195D02*
X015340Y006195D01*
X015340Y006076D02*
X013940Y006076D01*
X013940Y005958D02*
X015340Y005958D01*
X015340Y005839D02*
X013940Y005839D01*
X013720Y005839D02*
X013651Y005839D01*
X013604Y005958D02*
X013720Y005958D01*
X013720Y006076D02*
X013486Y006076D01*
X013367Y006195D02*
X013725Y006195D01*
X013431Y006515D02*
X013270Y006515D01*
X013270Y006739D01*
X013333Y006802D01*
X013368Y006802D01*
X013431Y006739D01*
X013431Y006515D01*
X013431Y006551D02*
X013270Y006551D01*
X013270Y006669D02*
X013431Y006669D01*
X013382Y006788D02*
X013319Y006788D01*
X013050Y006739D02*
X013050Y006515D01*
X012890Y006515D01*
X012890Y006739D01*
X012952Y006802D01*
X012988Y006802D01*
X013050Y006739D01*
X013002Y006788D02*
X012938Y006788D01*
X012890Y006669D02*
X013050Y006669D01*
X013050Y006551D02*
X012890Y006551D01*
X012804Y007143D02*
X012340Y007143D01*
X012340Y007262D02*
X012686Y007262D01*
X012670Y007380D02*
X012340Y007380D01*
X012340Y007499D02*
X012670Y007499D01*
X012670Y007618D02*
X012340Y007618D01*
X012340Y007736D02*
X012784Y007736D01*
X012997Y007262D02*
X013066Y007262D01*
X013009Y007143D02*
X013185Y007143D01*
X014194Y007331D02*
X014194Y007555D01*
X014256Y007618D01*
X014418Y007618D01*
X014481Y007555D01*
X014481Y007331D01*
X014194Y007331D01*
X014194Y007380D02*
X014481Y007380D01*
X014481Y007499D02*
X014194Y007499D01*
X014256Y007618D02*
X014419Y007618D01*
X014649Y006906D02*
X015340Y006906D01*
X015340Y006788D02*
X014701Y006788D01*
X014701Y006669D02*
X015340Y006669D01*
X015340Y006551D02*
X014701Y006551D01*
X014662Y005721D02*
X015340Y005721D01*
X015340Y005602D02*
X014701Y005602D01*
X015340Y005484D02*
X012340Y005484D01*
X012340Y005602D02*
X012670Y005602D01*
X012733Y005721D02*
X012340Y005721D01*
X012340Y005839D02*
X013050Y005839D01*
X013551Y005721D02*
X013720Y005721D01*
X013940Y005365D02*
X015340Y005365D01*
X015340Y005247D02*
X013940Y005247D01*
X013940Y005128D02*
X015340Y005128D01*
X015340Y005010D02*
X013940Y005010D01*
X013969Y004417D02*
X015340Y004417D01*
X015340Y004535D02*
X014701Y004535D01*
X014653Y004654D02*
X015340Y004654D01*
X015340Y004773D02*
X014674Y004773D01*
X014700Y004891D02*
X015340Y004891D01*
X015340Y004298D02*
X013940Y004298D01*
X013986Y004180D02*
X015340Y004180D01*
X014720Y002994D02*
X012960Y002994D01*
X012960Y002876D02*
X014720Y002876D01*
X012720Y002876D02*
X012340Y002876D01*
X012340Y002994D02*
X012720Y002994D01*
X012720Y003113D02*
X012340Y003113D01*
X012340Y003231D02*
X012720Y003231D01*
X012673Y004773D02*
X012340Y004773D01*
X012340Y004891D02*
X012670Y004891D01*
X012670Y005010D02*
X012340Y005010D01*
X012340Y005128D02*
X012670Y005128D01*
X012670Y005247D02*
X012340Y005247D01*
X012340Y005365D02*
X012670Y005365D01*
M02*
