%
M48
M72
T01C0.0240
T02C0.0440
T03C0.0800
T04C0.1300
%
T01
X14600Y35850
X17100Y35850
X14650Y26050
X17150Y26050
X7550Y21200
X5050Y21200
X7500Y31000
X5000Y31000
T02
X20100Y34850
X20100Y33850
X20100Y32850
X11850Y33800
X11850Y30800
X17100Y33850
X20150Y25050
X20150Y24050
X20150Y23050
X11900Y24000
X11900Y21000
X17150Y24050
X2050Y22200
X2050Y23200
X2050Y24200
X10550Y23200
X10550Y26200
X5050Y23200
X2000Y32000
X2000Y33000
X2000Y34000
X10500Y33000
X10500Y36000
X5000Y33000
T03
X19550Y30100
X19600Y20100
X2650Y26950
X2650Y36850
T04
X27000Y33850
X27050Y24050
X-4850Y23200
X-4900Y33000
M30
