G75*
G70*
%OFA0B0*%
%FSLAX24Y24*%
%IPPOS*%
%LPD*%
%AMOC8*
5,1,8,0,0,1.08239X$1,22.5*
%
%ADD10C,0.0110*%
%ADD11C,0.0000*%
%ADD12C,0.0050*%
%ADD13C,0.0020*%
%ADD14R,0.0250X0.0300*%
%ADD15R,0.1100X0.0500*%
%ADD16C,0.0070*%
%ADD17C,0.0010*%
%ADD18C,0.0040*%
%ADD19C,0.0080*%
D10*
X018316Y001823D02*
X018316Y002414D01*
X018709Y001823D01*
X018709Y002414D01*
X018960Y002414D02*
X018960Y001921D01*
X019059Y001823D01*
X019256Y001823D01*
X019354Y001921D01*
X019354Y002414D01*
X019605Y002414D02*
X019605Y001823D01*
X019999Y001823D01*
X020249Y001823D02*
X020643Y001823D01*
X020894Y001921D02*
X020992Y001823D01*
X021189Y001823D01*
X021288Y001921D01*
X021288Y002020D01*
X021189Y002118D01*
X020992Y002118D01*
X020894Y002217D01*
X020894Y002315D01*
X020992Y002414D01*
X021189Y002414D01*
X021288Y002315D01*
X021538Y002414D02*
X021834Y002414D01*
X021932Y002315D01*
X021932Y002118D01*
X021834Y002020D01*
X021538Y002020D01*
X021538Y001823D02*
X021538Y002414D01*
X022183Y002217D02*
X022380Y002414D01*
X022577Y002217D01*
X022577Y001823D01*
X022827Y001921D02*
X022926Y001823D01*
X023123Y001823D01*
X023221Y001921D01*
X023472Y001823D02*
X023866Y001823D01*
X024117Y001823D02*
X024510Y001823D01*
X024761Y001823D02*
X024761Y002217D01*
X024958Y002414D01*
X025155Y002217D01*
X025155Y001823D01*
X025406Y001823D02*
X025701Y001823D01*
X025799Y001921D01*
X025799Y002020D01*
X025701Y002118D01*
X025406Y002118D01*
X025155Y002118D02*
X024761Y002118D01*
X024117Y002414D02*
X024117Y001823D01*
X023669Y002118D02*
X023472Y002118D01*
X023472Y001823D02*
X023472Y002414D01*
X023866Y002414D01*
X023221Y002315D02*
X023123Y002414D01*
X022926Y002414D01*
X022827Y002315D01*
X022827Y001921D01*
X022577Y002118D02*
X022183Y002118D01*
X022183Y002217D02*
X022183Y001823D01*
X020249Y001823D02*
X020249Y002414D01*
X025406Y002414D02*
X025406Y001823D01*
X025701Y002118D02*
X025799Y002217D01*
X025799Y002315D01*
X025701Y002414D01*
X025406Y002414D01*
X026050Y002315D02*
X026050Y002217D01*
X026149Y002118D01*
X026345Y002118D01*
X026444Y002020D01*
X026444Y001921D01*
X026345Y001823D01*
X026149Y001823D01*
X026050Y001921D01*
X026050Y002315D02*
X026149Y002414D01*
X026345Y002414D01*
X026444Y002315D01*
X016274Y020673D02*
X016078Y020673D01*
X015979Y020771D01*
X016078Y020968D02*
X015979Y021067D01*
X015979Y021165D01*
X016078Y021264D01*
X016274Y021264D01*
X016373Y021165D01*
X016274Y020968D02*
X016373Y020870D01*
X016373Y020771D01*
X016274Y020673D01*
X015728Y020771D02*
X015630Y020673D01*
X015335Y020673D01*
X015335Y021264D01*
X015630Y021264D01*
X015728Y021165D01*
X015728Y021067D01*
X015630Y020968D01*
X015335Y020968D01*
X015084Y020968D02*
X014690Y020968D01*
X014690Y021067D02*
X014887Y021264D01*
X015084Y021067D01*
X015084Y020673D01*
X014690Y020673D02*
X014690Y021067D01*
X014439Y020673D02*
X014046Y020673D01*
X014046Y021264D01*
X013795Y021264D02*
X013401Y021264D01*
X013401Y020673D01*
X013795Y020673D01*
X013598Y020968D02*
X013401Y020968D01*
X013150Y020771D02*
X013052Y020673D01*
X012855Y020673D01*
X012757Y020771D01*
X012757Y021165D01*
X012855Y021264D01*
X013052Y021264D01*
X013150Y021165D01*
X012506Y021067D02*
X012506Y020673D01*
X012112Y020673D02*
X012112Y021067D01*
X012309Y021264D01*
X012506Y021067D01*
X012506Y020968D02*
X012112Y020968D01*
X011861Y020968D02*
X011763Y020870D01*
X011468Y020870D01*
X011468Y020673D02*
X011468Y021264D01*
X011763Y021264D01*
X011861Y021165D01*
X011861Y020968D01*
X011217Y020870D02*
X011217Y020771D01*
X011118Y020673D01*
X010921Y020673D01*
X010823Y020771D01*
X010921Y020968D02*
X010823Y021067D01*
X010823Y021165D01*
X010921Y021264D01*
X011118Y021264D01*
X011217Y021165D01*
X011118Y020968D02*
X011217Y020870D01*
X011118Y020968D02*
X010921Y020968D01*
X010572Y020673D02*
X010179Y020673D01*
X010179Y021264D01*
X009534Y021264D02*
X009534Y020673D01*
X009928Y020673D01*
X009283Y020771D02*
X009185Y020673D01*
X008988Y020673D01*
X008889Y020771D01*
X008889Y021264D01*
X008639Y021264D02*
X008639Y020673D01*
X008245Y021264D01*
X008245Y020673D01*
X009283Y020771D02*
X009283Y021264D01*
X015630Y020968D02*
X015728Y020870D01*
X015728Y020771D01*
X016078Y020968D02*
X016274Y020968D01*
D11*
X007790Y021618D02*
X027190Y021618D01*
X027190Y001718D01*
X007790Y001718D01*
X007790Y021618D01*
X000840Y016118D02*
X000842Y016168D01*
X000848Y016218D01*
X000858Y016268D01*
X000871Y016316D01*
X000888Y016364D01*
X000909Y016410D01*
X000933Y016454D01*
X000961Y016496D01*
X000992Y016536D01*
X001026Y016573D01*
X001063Y016608D01*
X001102Y016639D01*
X001143Y016668D01*
X001187Y016693D01*
X001233Y016715D01*
X001280Y016733D01*
X001328Y016747D01*
X001377Y016758D01*
X001427Y016765D01*
X001477Y016768D01*
X001528Y016767D01*
X001578Y016762D01*
X001628Y016753D01*
X001676Y016741D01*
X001724Y016724D01*
X001770Y016704D01*
X001815Y016681D01*
X001858Y016654D01*
X001898Y016624D01*
X001936Y016591D01*
X001971Y016555D01*
X002004Y016516D01*
X002033Y016475D01*
X002059Y016432D01*
X002082Y016387D01*
X002101Y016340D01*
X002116Y016292D01*
X002128Y016243D01*
X002136Y016193D01*
X002140Y016143D01*
X002140Y016093D01*
X002136Y016043D01*
X002128Y015993D01*
X002116Y015944D01*
X002101Y015896D01*
X002082Y015849D01*
X002059Y015804D01*
X002033Y015761D01*
X002004Y015720D01*
X001971Y015681D01*
X001936Y015645D01*
X001898Y015612D01*
X001858Y015582D01*
X001815Y015555D01*
X001770Y015532D01*
X001724Y015512D01*
X001676Y015495D01*
X001628Y015483D01*
X001578Y015474D01*
X001528Y015469D01*
X001477Y015468D01*
X001427Y015471D01*
X001377Y015478D01*
X001328Y015489D01*
X001280Y015503D01*
X001233Y015521D01*
X001187Y015543D01*
X001143Y015568D01*
X001102Y015597D01*
X001063Y015628D01*
X001026Y015663D01*
X000992Y015700D01*
X000961Y015740D01*
X000933Y015782D01*
X000909Y015826D01*
X000888Y015872D01*
X000871Y015920D01*
X000858Y015968D01*
X000848Y016018D01*
X000842Y016068D01*
X000840Y016118D01*
X000890Y006318D02*
X000892Y006368D01*
X000898Y006418D01*
X000908Y006468D01*
X000921Y006516D01*
X000938Y006564D01*
X000959Y006610D01*
X000983Y006654D01*
X001011Y006696D01*
X001042Y006736D01*
X001076Y006773D01*
X001113Y006808D01*
X001152Y006839D01*
X001193Y006868D01*
X001237Y006893D01*
X001283Y006915D01*
X001330Y006933D01*
X001378Y006947D01*
X001427Y006958D01*
X001477Y006965D01*
X001527Y006968D01*
X001578Y006967D01*
X001628Y006962D01*
X001678Y006953D01*
X001726Y006941D01*
X001774Y006924D01*
X001820Y006904D01*
X001865Y006881D01*
X001908Y006854D01*
X001948Y006824D01*
X001986Y006791D01*
X002021Y006755D01*
X002054Y006716D01*
X002083Y006675D01*
X002109Y006632D01*
X002132Y006587D01*
X002151Y006540D01*
X002166Y006492D01*
X002178Y006443D01*
X002186Y006393D01*
X002190Y006343D01*
X002190Y006293D01*
X002186Y006243D01*
X002178Y006193D01*
X002166Y006144D01*
X002151Y006096D01*
X002132Y006049D01*
X002109Y006004D01*
X002083Y005961D01*
X002054Y005920D01*
X002021Y005881D01*
X001986Y005845D01*
X001948Y005812D01*
X001908Y005782D01*
X001865Y005755D01*
X001820Y005732D01*
X001774Y005712D01*
X001726Y005695D01*
X001678Y005683D01*
X001628Y005674D01*
X001578Y005669D01*
X001527Y005668D01*
X001477Y005671D01*
X001427Y005678D01*
X001378Y005689D01*
X001330Y005703D01*
X001283Y005721D01*
X001237Y005743D01*
X001193Y005768D01*
X001152Y005797D01*
X001113Y005828D01*
X001076Y005863D01*
X001042Y005900D01*
X001011Y005940D01*
X000983Y005982D01*
X000959Y006026D01*
X000938Y006072D01*
X000921Y006120D01*
X000908Y006168D01*
X000898Y006218D01*
X000892Y006268D01*
X000890Y006318D01*
X032790Y007168D02*
X032792Y007218D01*
X032798Y007268D01*
X032808Y007318D01*
X032821Y007366D01*
X032838Y007414D01*
X032859Y007460D01*
X032883Y007504D01*
X032911Y007546D01*
X032942Y007586D01*
X032976Y007623D01*
X033013Y007658D01*
X033052Y007689D01*
X033093Y007718D01*
X033137Y007743D01*
X033183Y007765D01*
X033230Y007783D01*
X033278Y007797D01*
X033327Y007808D01*
X033377Y007815D01*
X033427Y007818D01*
X033478Y007817D01*
X033528Y007812D01*
X033578Y007803D01*
X033626Y007791D01*
X033674Y007774D01*
X033720Y007754D01*
X033765Y007731D01*
X033808Y007704D01*
X033848Y007674D01*
X033886Y007641D01*
X033921Y007605D01*
X033954Y007566D01*
X033983Y007525D01*
X034009Y007482D01*
X034032Y007437D01*
X034051Y007390D01*
X034066Y007342D01*
X034078Y007293D01*
X034086Y007243D01*
X034090Y007193D01*
X034090Y007143D01*
X034086Y007093D01*
X034078Y007043D01*
X034066Y006994D01*
X034051Y006946D01*
X034032Y006899D01*
X034009Y006854D01*
X033983Y006811D01*
X033954Y006770D01*
X033921Y006731D01*
X033886Y006695D01*
X033848Y006662D01*
X033808Y006632D01*
X033765Y006605D01*
X033720Y006582D01*
X033674Y006562D01*
X033626Y006545D01*
X033578Y006533D01*
X033528Y006524D01*
X033478Y006519D01*
X033427Y006518D01*
X033377Y006521D01*
X033327Y006528D01*
X033278Y006539D01*
X033230Y006553D01*
X033183Y006571D01*
X033137Y006593D01*
X033093Y006618D01*
X033052Y006647D01*
X033013Y006678D01*
X032976Y006713D01*
X032942Y006750D01*
X032911Y006790D01*
X032883Y006832D01*
X032859Y006876D01*
X032838Y006922D01*
X032821Y006970D01*
X032808Y007018D01*
X032798Y007068D01*
X032792Y007118D01*
X032790Y007168D01*
X032740Y016968D02*
X032742Y017018D01*
X032748Y017068D01*
X032758Y017118D01*
X032771Y017166D01*
X032788Y017214D01*
X032809Y017260D01*
X032833Y017304D01*
X032861Y017346D01*
X032892Y017386D01*
X032926Y017423D01*
X032963Y017458D01*
X033002Y017489D01*
X033043Y017518D01*
X033087Y017543D01*
X033133Y017565D01*
X033180Y017583D01*
X033228Y017597D01*
X033277Y017608D01*
X033327Y017615D01*
X033377Y017618D01*
X033428Y017617D01*
X033478Y017612D01*
X033528Y017603D01*
X033576Y017591D01*
X033624Y017574D01*
X033670Y017554D01*
X033715Y017531D01*
X033758Y017504D01*
X033798Y017474D01*
X033836Y017441D01*
X033871Y017405D01*
X033904Y017366D01*
X033933Y017325D01*
X033959Y017282D01*
X033982Y017237D01*
X034001Y017190D01*
X034016Y017142D01*
X034028Y017093D01*
X034036Y017043D01*
X034040Y016993D01*
X034040Y016943D01*
X034036Y016893D01*
X034028Y016843D01*
X034016Y016794D01*
X034001Y016746D01*
X033982Y016699D01*
X033959Y016654D01*
X033933Y016611D01*
X033904Y016570D01*
X033871Y016531D01*
X033836Y016495D01*
X033798Y016462D01*
X033758Y016432D01*
X033715Y016405D01*
X033670Y016382D01*
X033624Y016362D01*
X033576Y016345D01*
X033528Y016333D01*
X033478Y016324D01*
X033428Y016319D01*
X033377Y016318D01*
X033327Y016321D01*
X033277Y016328D01*
X033228Y016339D01*
X033180Y016353D01*
X033133Y016371D01*
X033087Y016393D01*
X033043Y016418D01*
X033002Y016447D01*
X032963Y016478D01*
X032926Y016513D01*
X032892Y016550D01*
X032861Y016590D01*
X032833Y016632D01*
X032809Y016676D01*
X032788Y016722D01*
X032771Y016770D01*
X032758Y016818D01*
X032748Y016868D01*
X032742Y016918D01*
X032740Y016968D01*
D12*
X000940Y004268D02*
X000190Y004268D01*
X000190Y008368D01*
X000940Y008368D01*
X000940Y008018D01*
X001540Y008018D01*
X001540Y008368D01*
X006440Y008368D01*
X006440Y004268D01*
X001540Y004268D01*
X001540Y004618D01*
X000940Y004618D01*
X000940Y004268D01*
X002475Y004707D02*
X002588Y004593D01*
X002815Y004593D01*
X002645Y004593D02*
X002645Y004820D01*
X002588Y004820D02*
X002815Y004820D01*
X002815Y004952D02*
X002815Y005179D01*
X002815Y005066D02*
X002475Y005066D01*
X002588Y004952D01*
X002588Y004820D02*
X002475Y004707D01*
X002475Y005311D02*
X002475Y005538D01*
X002531Y005538D01*
X002758Y005311D01*
X002815Y005311D01*
X002928Y005670D02*
X002815Y005784D01*
X002815Y005727D01*
X002758Y005727D01*
X002758Y005784D01*
X002815Y005784D01*
X002758Y005910D02*
X002815Y005966D01*
X002815Y006080D01*
X002758Y006137D01*
X002645Y006137D01*
X002588Y006080D01*
X002588Y006023D01*
X002645Y005910D01*
X002475Y005910D01*
X002475Y006137D01*
X002588Y006269D02*
X002588Y006326D01*
X002645Y006382D01*
X002588Y006439D01*
X002645Y006496D01*
X002815Y006496D01*
X002815Y006382D02*
X002645Y006382D01*
X002588Y006269D02*
X002815Y006269D01*
X002815Y006628D02*
X002588Y006628D01*
X002588Y006685D01*
X002645Y006741D01*
X002588Y006798D01*
X002645Y006855D01*
X002815Y006855D01*
X002815Y006741D02*
X002645Y006741D01*
X000830Y006318D02*
X000832Y006371D01*
X000838Y006424D01*
X000848Y006476D01*
X000862Y006527D01*
X000879Y006577D01*
X000900Y006626D01*
X000925Y006673D01*
X000953Y006718D01*
X000985Y006761D01*
X001020Y006801D01*
X001057Y006838D01*
X001097Y006873D01*
X001140Y006905D01*
X001185Y006933D01*
X001232Y006958D01*
X001281Y006979D01*
X001331Y006996D01*
X001382Y007010D01*
X001434Y007020D01*
X001487Y007026D01*
X001540Y007028D01*
X001593Y007026D01*
X001646Y007020D01*
X001698Y007010D01*
X001749Y006996D01*
X001799Y006979D01*
X001848Y006958D01*
X001895Y006933D01*
X001940Y006905D01*
X001983Y006873D01*
X002023Y006838D01*
X002060Y006801D01*
X002095Y006761D01*
X002127Y006718D01*
X002155Y006673D01*
X002180Y006626D01*
X002201Y006577D01*
X002218Y006527D01*
X002232Y006476D01*
X002242Y006424D01*
X002248Y006371D01*
X002250Y006318D01*
X002248Y006265D01*
X002242Y006212D01*
X002232Y006160D01*
X002218Y006109D01*
X002201Y006059D01*
X002180Y006010D01*
X002155Y005963D01*
X002127Y005918D01*
X002095Y005875D01*
X002060Y005835D01*
X002023Y005798D01*
X001983Y005763D01*
X001940Y005731D01*
X001895Y005703D01*
X001848Y005678D01*
X001799Y005657D01*
X001749Y005640D01*
X001698Y005626D01*
X001646Y005616D01*
X001593Y005610D01*
X001540Y005608D01*
X001487Y005610D01*
X001434Y005616D01*
X001382Y005626D01*
X001331Y005640D01*
X001281Y005657D01*
X001232Y005678D01*
X001185Y005703D01*
X001140Y005731D01*
X001097Y005763D01*
X001057Y005798D01*
X001020Y005835D01*
X000985Y005875D01*
X000953Y005918D01*
X000925Y005963D01*
X000900Y006010D01*
X000879Y006059D01*
X000862Y006109D01*
X000848Y006160D01*
X000838Y006212D01*
X000832Y006265D01*
X000830Y006318D01*
X009185Y006938D02*
X009260Y006863D01*
X009410Y006863D01*
X009485Y006938D01*
X009485Y007238D01*
X009410Y007313D01*
X009260Y007313D01*
X009185Y007238D01*
X009185Y006938D01*
X009645Y006938D02*
X009720Y006863D01*
X009870Y006863D01*
X009946Y006938D01*
X009946Y007313D01*
X009995Y007424D02*
X009995Y008212D01*
X011885Y008212D01*
X011885Y007424D01*
X009995Y007424D01*
X010106Y007313D02*
X010406Y007313D01*
X010256Y007313D02*
X010256Y006863D01*
X010566Y006863D02*
X010566Y007313D01*
X010791Y007313D01*
X010866Y007238D01*
X010866Y007088D01*
X010791Y007013D01*
X010566Y007013D01*
X011026Y006938D02*
X011101Y006863D01*
X011251Y006863D01*
X011327Y006938D01*
X011327Y007313D01*
X011487Y007313D02*
X011787Y007313D01*
X011637Y007313D02*
X011637Y006863D01*
X011947Y006788D02*
X012247Y006788D01*
X012407Y006863D02*
X012407Y007163D01*
X012558Y007313D01*
X012708Y007163D01*
X012708Y006863D01*
X012868Y006863D02*
X013168Y007163D01*
X013168Y007238D01*
X013093Y007313D01*
X012943Y007313D01*
X012868Y007238D01*
X012708Y007088D02*
X012407Y007088D01*
X012868Y006863D02*
X013168Y006863D01*
X012995Y007424D02*
X012995Y008212D01*
X014885Y008212D01*
X014885Y007424D01*
X012995Y007424D01*
X011026Y007313D02*
X011026Y006938D01*
X009645Y006938D02*
X009645Y007313D01*
X009995Y008924D02*
X009995Y009712D01*
X011885Y009712D01*
X011885Y008924D01*
X009995Y008924D01*
X009945Y011724D02*
X009945Y012512D01*
X011835Y012512D01*
X011835Y011724D01*
X009945Y011724D01*
X010284Y013173D02*
X009496Y013173D01*
X009496Y015063D01*
X010284Y015063D01*
X010284Y013173D01*
X013945Y013412D02*
X013945Y012624D01*
X015835Y012624D01*
X015835Y013412D01*
X013945Y013412D01*
X013945Y013724D02*
X013945Y014512D01*
X015835Y014512D01*
X015835Y013724D01*
X013945Y013724D01*
X015635Y014180D02*
X016085Y014180D01*
X016085Y014480D01*
X016085Y014640D02*
X015635Y014640D01*
X016085Y014940D01*
X015635Y014940D01*
X015785Y015100D02*
X015635Y015250D01*
X015785Y015401D01*
X016085Y015401D01*
X016085Y015561D02*
X016085Y015786D01*
X016010Y015861D01*
X015935Y015861D01*
X015860Y015786D01*
X015860Y015561D01*
X015860Y015401D02*
X015860Y015100D01*
X015785Y015100D02*
X016085Y015100D01*
X016085Y015561D02*
X015635Y015561D01*
X015635Y015786D01*
X015710Y015861D01*
X015785Y015861D01*
X015860Y015786D01*
X015635Y016021D02*
X016085Y016021D01*
X016085Y016321D01*
X016085Y016481D02*
X016085Y016782D01*
X016160Y016942D02*
X016160Y017242D01*
X016085Y017402D02*
X015785Y017402D01*
X015635Y017552D01*
X015785Y017702D01*
X016085Y017702D01*
X016010Y017862D02*
X016085Y017937D01*
X016085Y018088D01*
X016010Y018163D01*
X015935Y018163D01*
X015860Y018088D01*
X015860Y018013D01*
X015860Y018088D02*
X015785Y018163D01*
X015710Y018163D01*
X015635Y018088D01*
X015635Y017937D01*
X015710Y017862D01*
X015860Y017702D02*
X015860Y017402D01*
X015635Y016782D02*
X015635Y016481D01*
X016085Y016481D01*
X015860Y016481D02*
X015860Y016631D01*
X014835Y017224D02*
X012945Y017224D01*
X012945Y018012D01*
X014835Y018012D01*
X014835Y017224D01*
X013118Y017038D02*
X013118Y016963D01*
X013043Y016888D01*
X013118Y016813D01*
X013118Y016738D01*
X013043Y016663D01*
X012893Y016663D01*
X012818Y016738D01*
X012658Y016663D02*
X012658Y016963D01*
X012508Y017113D01*
X012357Y016963D01*
X012357Y016663D01*
X012197Y016588D02*
X011897Y016588D01*
X011587Y016663D02*
X011587Y017113D01*
X011437Y017113D02*
X011737Y017113D01*
X011835Y017224D02*
X009945Y017224D01*
X009945Y018012D01*
X011835Y018012D01*
X011835Y017224D01*
X011277Y017113D02*
X011277Y016738D01*
X011201Y016663D01*
X011051Y016663D01*
X010976Y016738D01*
X010976Y017113D01*
X010816Y017038D02*
X010816Y016888D01*
X010741Y016813D01*
X010516Y016813D01*
X010516Y016663D02*
X010516Y017113D01*
X010741Y017113D01*
X010816Y017038D01*
X010356Y017113D02*
X010056Y017113D01*
X010206Y017113D02*
X010206Y016663D01*
X009896Y016738D02*
X009896Y017113D01*
X009595Y017113D02*
X009595Y016738D01*
X009670Y016663D01*
X009820Y016663D01*
X009896Y016738D01*
X009435Y016738D02*
X009435Y017038D01*
X009360Y017113D01*
X009210Y017113D01*
X009135Y017038D01*
X009135Y016738D01*
X009210Y016663D01*
X009360Y016663D01*
X009435Y016738D01*
X012357Y016888D02*
X012658Y016888D01*
X012818Y017038D02*
X012893Y017113D01*
X013043Y017113D01*
X013118Y017038D01*
X013043Y016888D02*
X012968Y016888D01*
X011835Y018724D02*
X009945Y018724D01*
X009945Y019512D01*
X011835Y019512D01*
X011835Y018724D01*
X006390Y018168D02*
X001490Y018168D01*
X001490Y017818D01*
X000890Y017818D01*
X000890Y018168D01*
X000140Y018168D01*
X000140Y014068D01*
X000890Y014068D01*
X000890Y014418D01*
X001490Y014418D01*
X001490Y014068D01*
X006390Y014068D01*
X006390Y018168D01*
X002765Y016655D02*
X002595Y016655D01*
X002538Y016598D01*
X002595Y016541D01*
X002765Y016541D01*
X002765Y016428D02*
X002538Y016428D01*
X002538Y016485D01*
X002595Y016541D01*
X002595Y016296D02*
X002765Y016296D01*
X002765Y016182D02*
X002595Y016182D01*
X002538Y016239D01*
X002595Y016296D01*
X002595Y016182D02*
X002538Y016126D01*
X002538Y016069D01*
X002765Y016069D01*
X002708Y015937D02*
X002765Y015880D01*
X002765Y015766D01*
X002708Y015710D01*
X002595Y015710D02*
X002538Y015823D01*
X002538Y015880D01*
X002595Y015937D01*
X002708Y015937D01*
X002595Y015710D02*
X002425Y015710D01*
X002425Y015937D01*
X002708Y015584D02*
X002708Y015527D01*
X002765Y015527D01*
X002765Y015584D01*
X002708Y015584D01*
X002765Y015584D02*
X002878Y015470D01*
X002708Y015111D02*
X002481Y015338D01*
X002425Y015338D01*
X002425Y015111D01*
X002425Y014866D02*
X002765Y014866D01*
X002765Y014979D02*
X002765Y014752D01*
X002765Y014620D02*
X002538Y014620D01*
X002425Y014507D01*
X002538Y014393D01*
X002765Y014393D01*
X002595Y014393D02*
X002595Y014620D01*
X002538Y014752D02*
X002425Y014866D01*
X002708Y015111D02*
X002765Y015111D01*
X000780Y016118D02*
X000782Y016171D01*
X000788Y016224D01*
X000798Y016276D01*
X000812Y016327D01*
X000829Y016377D01*
X000850Y016426D01*
X000875Y016473D01*
X000903Y016518D01*
X000935Y016561D01*
X000970Y016601D01*
X001007Y016638D01*
X001047Y016673D01*
X001090Y016705D01*
X001135Y016733D01*
X001182Y016758D01*
X001231Y016779D01*
X001281Y016796D01*
X001332Y016810D01*
X001384Y016820D01*
X001437Y016826D01*
X001490Y016828D01*
X001543Y016826D01*
X001596Y016820D01*
X001648Y016810D01*
X001699Y016796D01*
X001749Y016779D01*
X001798Y016758D01*
X001845Y016733D01*
X001890Y016705D01*
X001933Y016673D01*
X001973Y016638D01*
X002010Y016601D01*
X002045Y016561D01*
X002077Y016518D01*
X002105Y016473D01*
X002130Y016426D01*
X002151Y016377D01*
X002168Y016327D01*
X002182Y016276D01*
X002192Y016224D01*
X002198Y016171D01*
X002200Y016118D01*
X002198Y016065D01*
X002192Y016012D01*
X002182Y015960D01*
X002168Y015909D01*
X002151Y015859D01*
X002130Y015810D01*
X002105Y015763D01*
X002077Y015718D01*
X002045Y015675D01*
X002010Y015635D01*
X001973Y015598D01*
X001933Y015563D01*
X001890Y015531D01*
X001845Y015503D01*
X001798Y015478D01*
X001749Y015457D01*
X001699Y015440D01*
X001648Y015426D01*
X001596Y015416D01*
X001543Y015410D01*
X001490Y015408D01*
X001437Y015410D01*
X001384Y015416D01*
X001332Y015426D01*
X001281Y015440D01*
X001231Y015457D01*
X001182Y015478D01*
X001135Y015503D01*
X001090Y015531D01*
X001047Y015563D01*
X001007Y015598D01*
X000970Y015635D01*
X000935Y015675D01*
X000903Y015718D01*
X000875Y015763D01*
X000850Y015810D01*
X000829Y015859D01*
X000812Y015909D01*
X000798Y015960D01*
X000788Y016012D01*
X000782Y016065D01*
X000780Y016118D01*
X015635Y014480D02*
X015635Y014180D01*
X015860Y014180D02*
X015860Y014330D01*
X019045Y014763D02*
X019495Y014763D01*
X019495Y015063D01*
X019495Y015223D02*
X019045Y015223D01*
X019495Y015524D01*
X019045Y015524D01*
X019195Y015684D02*
X019045Y015834D01*
X019195Y015984D01*
X019495Y015984D01*
X019495Y016144D02*
X019045Y016144D01*
X019045Y016369D01*
X019120Y016444D01*
X019195Y016444D01*
X019270Y016369D01*
X019270Y016144D01*
X019270Y015984D02*
X019270Y015684D01*
X019195Y015684D02*
X019495Y015684D01*
X019495Y016144D02*
X019495Y016369D01*
X019420Y016444D01*
X019345Y016444D01*
X019270Y016369D01*
X019045Y016605D02*
X019495Y016605D01*
X019495Y016905D01*
X019495Y017065D02*
X019045Y017065D01*
X019045Y017365D01*
X019270Y017215D02*
X019270Y017065D01*
X019495Y017065D02*
X019495Y017365D01*
X019570Y017525D02*
X019570Y017825D01*
X019495Y017986D02*
X019195Y017986D01*
X019045Y018136D01*
X019195Y018286D01*
X019495Y018286D01*
X019270Y018286D02*
X019270Y017986D01*
X019045Y018574D02*
X019045Y019362D01*
X020935Y019362D01*
X020935Y018574D01*
X019045Y018574D01*
X019045Y019674D02*
X019045Y020462D01*
X020935Y020462D01*
X020935Y019674D01*
X019045Y019674D01*
X023045Y020574D02*
X023045Y021362D01*
X024935Y021362D01*
X024935Y020574D01*
X023045Y020574D01*
X024596Y019913D02*
X025384Y019913D01*
X025384Y018023D01*
X024596Y018023D01*
X024596Y019913D01*
X028490Y019018D02*
X033390Y019018D01*
X033390Y018668D01*
X033990Y018668D01*
X033990Y019018D01*
X034740Y019018D01*
X034740Y014918D01*
X033990Y014918D01*
X033990Y015268D01*
X033390Y015268D01*
X033390Y014918D01*
X028490Y014918D01*
X028490Y019018D01*
X032115Y017893D02*
X032115Y017666D01*
X032285Y017666D01*
X032228Y017779D01*
X032228Y017836D01*
X032285Y017893D01*
X032398Y017893D01*
X032455Y017836D01*
X032455Y017722D01*
X032398Y017666D01*
X032398Y017540D02*
X032398Y017483D01*
X032455Y017483D01*
X032455Y017540D01*
X032398Y017540D01*
X032455Y017540D02*
X032568Y017426D01*
X032455Y017067D02*
X032398Y017067D01*
X032171Y017294D01*
X032115Y017294D01*
X032115Y017067D01*
X032115Y016822D02*
X032455Y016822D01*
X032455Y016935D02*
X032455Y016708D01*
X032455Y016576D02*
X032228Y016576D01*
X032115Y016463D01*
X032228Y016349D01*
X032455Y016349D01*
X032285Y016349D02*
X032285Y016576D01*
X032228Y016708D02*
X032115Y016822D01*
X032680Y016968D02*
X032682Y017021D01*
X032688Y017074D01*
X032698Y017126D01*
X032712Y017177D01*
X032729Y017227D01*
X032750Y017276D01*
X032775Y017323D01*
X032803Y017368D01*
X032835Y017411D01*
X032870Y017451D01*
X032907Y017488D01*
X032947Y017523D01*
X032990Y017555D01*
X033035Y017583D01*
X033082Y017608D01*
X033131Y017629D01*
X033181Y017646D01*
X033232Y017660D01*
X033284Y017670D01*
X033337Y017676D01*
X033390Y017678D01*
X033443Y017676D01*
X033496Y017670D01*
X033548Y017660D01*
X033599Y017646D01*
X033649Y017629D01*
X033698Y017608D01*
X033745Y017583D01*
X033790Y017555D01*
X033833Y017523D01*
X033873Y017488D01*
X033910Y017451D01*
X033945Y017411D01*
X033977Y017368D01*
X034005Y017323D01*
X034030Y017276D01*
X034051Y017227D01*
X034068Y017177D01*
X034082Y017126D01*
X034092Y017074D01*
X034098Y017021D01*
X034100Y016968D01*
X034098Y016915D01*
X034092Y016862D01*
X034082Y016810D01*
X034068Y016759D01*
X034051Y016709D01*
X034030Y016660D01*
X034005Y016613D01*
X033977Y016568D01*
X033945Y016525D01*
X033910Y016485D01*
X033873Y016448D01*
X033833Y016413D01*
X033790Y016381D01*
X033745Y016353D01*
X033698Y016328D01*
X033649Y016307D01*
X033599Y016290D01*
X033548Y016276D01*
X033496Y016266D01*
X033443Y016260D01*
X033390Y016258D01*
X033337Y016260D01*
X033284Y016266D01*
X033232Y016276D01*
X033181Y016290D01*
X033131Y016307D01*
X033082Y016328D01*
X033035Y016353D01*
X032990Y016381D01*
X032947Y016413D01*
X032907Y016448D01*
X032870Y016485D01*
X032835Y016525D01*
X032803Y016568D01*
X032775Y016613D01*
X032750Y016660D01*
X032729Y016709D01*
X032712Y016759D01*
X032698Y016810D01*
X032688Y016862D01*
X032682Y016915D01*
X032680Y016968D01*
X032455Y018025D02*
X032228Y018025D01*
X032228Y018082D01*
X032285Y018138D01*
X032228Y018195D01*
X032285Y018252D01*
X032455Y018252D01*
X032455Y018138D02*
X032285Y018138D01*
X032228Y018384D02*
X032228Y018441D01*
X032285Y018497D01*
X032228Y018554D01*
X032285Y018611D01*
X032455Y018611D01*
X032455Y018497D02*
X032285Y018497D01*
X032228Y018384D02*
X032455Y018384D01*
X025635Y016273D02*
X025635Y015973D01*
X025635Y016198D02*
X025334Y016198D01*
X025334Y016273D02*
X025484Y016423D01*
X025635Y016273D01*
X025334Y016273D02*
X025334Y015973D01*
X025174Y015898D02*
X024874Y015898D01*
X024935Y015862D02*
X024935Y015074D01*
X023045Y015074D01*
X023045Y015862D01*
X024935Y015862D01*
X024564Y015973D02*
X024564Y016423D01*
X024414Y016423D02*
X024714Y016423D01*
X024253Y016423D02*
X024253Y016048D01*
X024178Y015973D01*
X024028Y015973D01*
X023953Y016048D01*
X023953Y016423D01*
X023793Y016348D02*
X023793Y016198D01*
X023718Y016123D01*
X023493Y016123D01*
X023493Y015973D02*
X023493Y016423D01*
X023718Y016423D01*
X023793Y016348D01*
X023333Y016423D02*
X023033Y016423D01*
X023183Y016423D02*
X023183Y015973D01*
X022872Y016048D02*
X022872Y016423D01*
X022572Y016423D02*
X022572Y016048D01*
X022647Y015973D01*
X022797Y015973D01*
X022872Y016048D01*
X022412Y016048D02*
X022412Y016348D01*
X022337Y016423D01*
X022187Y016423D01*
X022112Y016348D01*
X022112Y016048D01*
X022187Y015973D01*
X022337Y015973D01*
X022412Y016048D01*
X021935Y015862D02*
X021935Y015074D01*
X020045Y015074D01*
X020045Y015862D01*
X021935Y015862D01*
X023045Y014362D02*
X024935Y014362D01*
X024935Y013574D01*
X023045Y013574D01*
X023045Y014362D01*
X019270Y014763D02*
X019270Y014913D01*
X019045Y015063D02*
X019045Y014763D01*
X023095Y011562D02*
X024985Y011562D01*
X024985Y010774D01*
X023095Y010774D01*
X023095Y011562D01*
X024646Y010113D02*
X025434Y010113D01*
X025434Y008223D01*
X024646Y008223D01*
X024646Y010113D01*
X020985Y009874D02*
X020985Y010662D01*
X019095Y010662D01*
X019095Y009874D01*
X020985Y009874D01*
X020985Y009562D02*
X020985Y008774D01*
X019095Y008774D01*
X019095Y009562D01*
X020985Y009562D01*
X019545Y008946D02*
X019545Y008646D01*
X019545Y008796D02*
X019095Y008796D01*
X019245Y008646D01*
X019245Y008486D02*
X019545Y008486D01*
X019320Y008486D02*
X019320Y008186D01*
X019245Y008186D02*
X019095Y008336D01*
X019245Y008486D01*
X019245Y008186D02*
X019545Y008186D01*
X019620Y008025D02*
X019620Y007725D01*
X019545Y007565D02*
X019545Y007265D01*
X019095Y007265D01*
X019095Y007565D01*
X019320Y007415D02*
X019320Y007265D01*
X019545Y007105D02*
X019545Y006805D01*
X019095Y006805D01*
X019170Y006644D02*
X019245Y006644D01*
X019320Y006569D01*
X019320Y006344D01*
X019320Y006184D02*
X019320Y005884D01*
X019245Y005884D02*
X019095Y006034D01*
X019245Y006184D01*
X019545Y006184D01*
X019545Y006344D02*
X019095Y006344D01*
X019095Y006569D01*
X019170Y006644D01*
X019320Y006569D02*
X019395Y006644D01*
X019470Y006644D01*
X019545Y006569D01*
X019545Y006344D01*
X019545Y005884D02*
X019245Y005884D01*
X019095Y005724D02*
X019545Y005724D01*
X019095Y005423D01*
X019545Y005423D01*
X019545Y005263D02*
X019545Y004963D01*
X019095Y004963D01*
X019095Y005263D01*
X019320Y005113D02*
X019320Y004963D01*
X020095Y005274D02*
X020095Y006062D01*
X021985Y006062D01*
X021985Y005274D01*
X020095Y005274D01*
X021701Y006248D02*
X021776Y006173D01*
X021927Y006173D01*
X022002Y006248D01*
X022002Y006548D01*
X021927Y006623D01*
X021776Y006623D01*
X021701Y006548D01*
X021701Y006248D01*
X022162Y006248D02*
X022237Y006173D01*
X022387Y006173D01*
X022462Y006248D01*
X022462Y006623D01*
X022622Y006623D02*
X022922Y006623D01*
X022772Y006623D02*
X022772Y006173D01*
X023082Y006173D02*
X023082Y006623D01*
X023308Y006623D01*
X023383Y006548D01*
X023383Y006398D01*
X023308Y006323D01*
X023082Y006323D01*
X023095Y006062D02*
X024985Y006062D01*
X024985Y005274D01*
X023095Y005274D01*
X023095Y006062D01*
X023543Y006248D02*
X023618Y006173D01*
X023768Y006173D01*
X023843Y006248D01*
X023843Y006623D01*
X024003Y006623D02*
X024303Y006623D01*
X024153Y006623D02*
X024153Y006173D01*
X024464Y006098D02*
X024764Y006098D01*
X024924Y006173D02*
X024924Y006473D01*
X025074Y006623D01*
X025224Y006473D01*
X025224Y006173D01*
X025384Y006173D02*
X025684Y006173D01*
X025534Y006173D02*
X025534Y006623D01*
X025384Y006473D01*
X025224Y006398D02*
X024924Y006398D01*
X023543Y006248D02*
X023543Y006623D01*
X022162Y006623D02*
X022162Y006248D01*
X023095Y004562D02*
X024985Y004562D01*
X024985Y003774D01*
X023095Y003774D01*
X023095Y004562D01*
X028540Y005118D02*
X033440Y005118D01*
X033440Y005468D01*
X034040Y005468D01*
X034040Y005118D01*
X034790Y005118D01*
X034790Y009218D01*
X034040Y009218D01*
X034040Y008868D01*
X033440Y008868D01*
X033440Y009218D01*
X028540Y009218D01*
X028540Y005118D01*
X032165Y006663D02*
X032278Y006776D01*
X032505Y006776D01*
X032505Y006908D02*
X032505Y007135D01*
X032505Y007022D02*
X032165Y007022D01*
X032278Y006908D01*
X032335Y006776D02*
X032335Y006549D01*
X032278Y006549D02*
X032165Y006663D01*
X032278Y006549D02*
X032505Y006549D01*
X032730Y007168D02*
X032732Y007221D01*
X032738Y007274D01*
X032748Y007326D01*
X032762Y007377D01*
X032779Y007427D01*
X032800Y007476D01*
X032825Y007523D01*
X032853Y007568D01*
X032885Y007611D01*
X032920Y007651D01*
X032957Y007688D01*
X032997Y007723D01*
X033040Y007755D01*
X033085Y007783D01*
X033132Y007808D01*
X033181Y007829D01*
X033231Y007846D01*
X033282Y007860D01*
X033334Y007870D01*
X033387Y007876D01*
X033440Y007878D01*
X033493Y007876D01*
X033546Y007870D01*
X033598Y007860D01*
X033649Y007846D01*
X033699Y007829D01*
X033748Y007808D01*
X033795Y007783D01*
X033840Y007755D01*
X033883Y007723D01*
X033923Y007688D01*
X033960Y007651D01*
X033995Y007611D01*
X034027Y007568D01*
X034055Y007523D01*
X034080Y007476D01*
X034101Y007427D01*
X034118Y007377D01*
X034132Y007326D01*
X034142Y007274D01*
X034148Y007221D01*
X034150Y007168D01*
X034148Y007115D01*
X034142Y007062D01*
X034132Y007010D01*
X034118Y006959D01*
X034101Y006909D01*
X034080Y006860D01*
X034055Y006813D01*
X034027Y006768D01*
X033995Y006725D01*
X033960Y006685D01*
X033923Y006648D01*
X033883Y006613D01*
X033840Y006581D01*
X033795Y006553D01*
X033748Y006528D01*
X033699Y006507D01*
X033649Y006490D01*
X033598Y006476D01*
X033546Y006466D01*
X033493Y006460D01*
X033440Y006458D01*
X033387Y006460D01*
X033334Y006466D01*
X033282Y006476D01*
X033231Y006490D01*
X033181Y006507D01*
X033132Y006528D01*
X033085Y006553D01*
X033040Y006581D01*
X032997Y006613D01*
X032957Y006648D01*
X032920Y006685D01*
X032885Y006725D01*
X032853Y006768D01*
X032825Y006813D01*
X032800Y006860D01*
X032779Y006909D01*
X032762Y006959D01*
X032748Y007010D01*
X032738Y007062D01*
X032732Y007115D01*
X032730Y007168D01*
X032505Y007267D02*
X032448Y007267D01*
X032221Y007494D01*
X032165Y007494D01*
X032165Y007267D01*
X032448Y007683D02*
X032505Y007683D01*
X032505Y007740D01*
X032448Y007740D01*
X032448Y007683D01*
X032505Y007740D02*
X032618Y007626D01*
X032448Y007866D02*
X032505Y007922D01*
X032505Y008036D01*
X032448Y008093D01*
X032335Y008093D01*
X032278Y008036D01*
X032278Y007979D01*
X032335Y007866D01*
X032165Y007866D01*
X032165Y008093D01*
X032278Y008225D02*
X032278Y008282D01*
X032335Y008338D01*
X032278Y008395D01*
X032335Y008452D01*
X032505Y008452D01*
X032505Y008338D02*
X032335Y008338D01*
X032278Y008225D02*
X032505Y008225D01*
X032505Y008584D02*
X032278Y008584D01*
X032278Y008641D01*
X032335Y008697D01*
X032278Y008754D01*
X032335Y008811D01*
X032505Y008811D01*
X032505Y008697D02*
X032335Y008697D01*
X016210Y007442D02*
X016210Y007142D01*
X016135Y006982D02*
X016135Y006681D01*
X015685Y006681D01*
X015685Y006982D01*
X015910Y006831D02*
X015910Y006681D01*
X016135Y006521D02*
X016135Y006221D01*
X015685Y006221D01*
X015760Y006061D02*
X015685Y005986D01*
X015685Y005761D01*
X016135Y005761D01*
X016135Y005986D01*
X016060Y006061D01*
X015985Y006061D01*
X015910Y005986D01*
X015910Y005761D01*
X015910Y005601D02*
X015910Y005300D01*
X015835Y005300D02*
X015685Y005450D01*
X015835Y005601D01*
X016135Y005601D01*
X015910Y005986D02*
X015835Y006061D01*
X015760Y006061D01*
X015835Y005300D02*
X016135Y005300D01*
X016135Y005140D02*
X015685Y005140D01*
X015685Y004840D02*
X016135Y005140D01*
X016135Y004840D02*
X015685Y004840D01*
X015685Y004680D02*
X015685Y004380D01*
X016135Y004380D01*
X016135Y004680D01*
X015885Y004712D02*
X015885Y003924D01*
X013995Y003924D01*
X013995Y004712D01*
X015885Y004712D01*
X015910Y004530D02*
X015910Y004380D01*
X015885Y003612D02*
X015885Y002824D01*
X013995Y002824D01*
X013995Y003612D01*
X015885Y003612D01*
X011885Y002712D02*
X011885Y001924D01*
X009995Y001924D01*
X009995Y002712D01*
X011885Y002712D01*
X010334Y003373D02*
X009546Y003373D01*
X009546Y005263D01*
X010334Y005263D01*
X010334Y003373D01*
X015685Y007752D02*
X015835Y007602D01*
X016135Y007602D01*
X015910Y007602D02*
X015910Y007902D01*
X015835Y007902D02*
X016135Y007902D01*
X016135Y008062D02*
X015835Y008363D01*
X015760Y008363D01*
X015685Y008288D01*
X015685Y008137D01*
X015760Y008062D01*
X015835Y007902D02*
X015685Y007752D01*
X016135Y008062D02*
X016135Y008363D01*
D13*
X006190Y008118D02*
X006190Y004518D01*
X002940Y004518D01*
X002940Y008118D01*
X006190Y008118D01*
X006140Y014318D02*
X002890Y014318D01*
X002890Y017918D01*
X006140Y017918D01*
X006140Y014318D01*
X028740Y015168D02*
X031990Y015168D01*
X031990Y018768D01*
X028740Y018768D01*
X028740Y015168D01*
X028790Y008968D02*
X032040Y008968D01*
X032040Y005368D01*
X028790Y005368D01*
X028790Y008968D01*
D14*
X027315Y008168D03*
X027315Y007168D03*
X027315Y006168D03*
X027265Y015968D03*
X027265Y016968D03*
X027265Y017968D03*
X007615Y017118D03*
X007615Y016118D03*
X007615Y015118D03*
X007665Y007318D03*
X007665Y006318D03*
X007665Y005318D03*
D15*
X006990Y005318D03*
X006990Y006318D03*
X006990Y007318D03*
X006940Y015118D03*
X006940Y016118D03*
X006940Y017118D03*
X027940Y016968D03*
X027940Y015968D03*
X027940Y017968D03*
X027990Y008168D03*
X027990Y007168D03*
X027990Y006168D03*
D16*
X031124Y007519D02*
X031229Y007414D01*
X031650Y007414D01*
X031755Y007519D01*
X031755Y007729D01*
X031650Y007834D01*
X031229Y007834D01*
X031124Y007729D01*
X031124Y007519D01*
X031545Y007624D02*
X031755Y007834D01*
X031650Y008059D02*
X031755Y008164D01*
X031755Y008374D01*
X031650Y008479D01*
X031545Y008479D01*
X031440Y008374D01*
X031440Y008269D01*
X031440Y008374D02*
X031335Y008479D01*
X031229Y008479D01*
X031124Y008374D01*
X031124Y008164D01*
X031229Y008059D01*
X031179Y017214D02*
X031074Y017319D01*
X031074Y017529D01*
X031179Y017634D01*
X031600Y017634D01*
X031705Y017529D01*
X031705Y017319D01*
X031600Y017214D01*
X031179Y017214D01*
X031495Y017424D02*
X031705Y017634D01*
X031705Y017859D02*
X031705Y018279D01*
X031705Y018069D02*
X031074Y018069D01*
X031285Y017859D01*
X003855Y005813D02*
X003855Y005603D01*
X003750Y005498D01*
X003540Y005498D02*
X003435Y005708D01*
X003435Y005813D01*
X003540Y005918D01*
X003750Y005918D01*
X003855Y005813D01*
X003540Y005498D02*
X003224Y005498D01*
X003224Y005918D01*
X003329Y005273D02*
X003750Y005273D01*
X003855Y005168D01*
X003855Y004958D01*
X003750Y004853D01*
X003329Y004853D01*
X003224Y004958D01*
X003224Y005168D01*
X003329Y005273D01*
X003645Y005063D02*
X003855Y005273D01*
X003700Y014653D02*
X003279Y014653D01*
X003174Y014758D01*
X003174Y014968D01*
X003279Y015073D01*
X003700Y015073D01*
X003805Y014968D01*
X003805Y014758D01*
X003700Y014653D01*
X003595Y014863D02*
X003805Y015073D01*
X003805Y015298D02*
X003700Y015298D01*
X003279Y015718D01*
X003174Y015718D01*
X003174Y015298D01*
D17*
X010395Y014201D02*
X010395Y014151D01*
X010420Y014126D01*
X010420Y014079D02*
X010395Y014054D01*
X010395Y014003D01*
X010420Y013978D01*
X010420Y013931D02*
X010470Y013931D01*
X010495Y013906D01*
X010495Y013831D01*
X010545Y013831D02*
X010395Y013831D01*
X010395Y013906D01*
X010420Y013931D01*
X010495Y013881D02*
X010545Y013931D01*
X010545Y013978D02*
X010445Y014079D01*
X010420Y014079D01*
X010395Y014201D02*
X010420Y014226D01*
X010445Y014226D01*
X010545Y014126D01*
X010545Y014226D01*
X010545Y014079D02*
X010545Y013978D01*
X010695Y011573D02*
X010770Y011573D01*
X010795Y011548D01*
X010795Y011498D01*
X010770Y011473D01*
X010695Y011473D01*
X010695Y011423D02*
X010695Y011573D01*
X010745Y011473D02*
X010795Y011423D01*
X010842Y011423D02*
X010942Y011523D01*
X010942Y011548D01*
X010917Y011573D01*
X010867Y011573D01*
X010842Y011548D01*
X010842Y011423D02*
X010942Y011423D01*
X010990Y011448D02*
X011015Y011423D01*
X011065Y011423D01*
X011090Y011448D01*
X011090Y011473D01*
X011065Y011498D01*
X011040Y011498D01*
X011065Y011498D02*
X011090Y011523D01*
X011090Y011548D01*
X011065Y011573D01*
X011015Y011573D01*
X010990Y011548D01*
X014745Y012323D02*
X014745Y012473D01*
X014820Y012473D01*
X014845Y012448D01*
X014845Y012398D01*
X014820Y012373D01*
X014745Y012373D01*
X014795Y012373D02*
X014845Y012323D01*
X014892Y012323D02*
X014992Y012423D01*
X014992Y012448D01*
X014967Y012473D01*
X014917Y012473D01*
X014892Y012448D01*
X014892Y012323D02*
X014992Y012323D01*
X015040Y012348D02*
X015065Y012323D01*
X015115Y012323D01*
X015140Y012348D01*
X015140Y012373D01*
X015115Y012398D01*
X015040Y012398D01*
X015040Y012348D01*
X015040Y012398D02*
X015090Y012448D01*
X015140Y012473D01*
X016650Y012488D02*
X016675Y012463D01*
X016725Y012463D01*
X016750Y012488D01*
X016798Y012538D02*
X016873Y012613D01*
X016873Y012463D01*
X016898Y012538D02*
X016798Y012538D01*
X016750Y012588D02*
X016725Y012613D01*
X016675Y012613D01*
X016650Y012588D01*
X016650Y012488D01*
X016365Y014173D02*
X016315Y014173D01*
X016290Y014198D01*
X016290Y014223D01*
X016315Y014248D01*
X016365Y014248D01*
X016390Y014223D01*
X016390Y014198D01*
X016365Y014173D01*
X016365Y014248D02*
X016390Y014273D01*
X016390Y014298D01*
X016365Y014323D01*
X016315Y014323D01*
X016290Y014298D01*
X016290Y014273D01*
X016315Y014248D01*
X016242Y014273D02*
X016242Y014298D01*
X016217Y014323D01*
X016167Y014323D01*
X016142Y014298D01*
X016095Y014298D02*
X016095Y014248D01*
X016070Y014223D01*
X015995Y014223D01*
X015995Y014173D02*
X015995Y014323D01*
X016070Y014323D01*
X016095Y014298D01*
X016045Y014223D02*
X016095Y014173D01*
X016142Y014173D02*
X016242Y014273D01*
X016242Y014173D02*
X016142Y014173D01*
X019550Y015663D02*
X019550Y015813D01*
X019625Y015813D01*
X019650Y015788D01*
X019650Y015738D01*
X019625Y015713D01*
X019550Y015713D01*
X019600Y015713D02*
X019650Y015663D01*
X019698Y015663D02*
X019798Y015763D01*
X019798Y015788D01*
X019773Y015813D01*
X019723Y015813D01*
X019698Y015788D01*
X019698Y015663D02*
X019798Y015663D01*
X022600Y015413D02*
X022600Y015263D01*
X022600Y015313D02*
X022675Y015313D01*
X022700Y015338D01*
X022700Y015388D01*
X022675Y015413D01*
X022600Y015413D01*
X022650Y015313D02*
X022700Y015263D01*
X022748Y015288D02*
X022773Y015263D01*
X022823Y015263D01*
X022848Y015288D01*
X022848Y015313D01*
X022823Y015338D01*
X022748Y015338D01*
X022748Y015288D01*
X022748Y015338D02*
X022798Y015388D01*
X022848Y015413D01*
X023650Y014663D02*
X023725Y014663D01*
X023750Y014638D01*
X023750Y014588D01*
X023725Y014563D01*
X023650Y014563D01*
X023650Y014513D02*
X023650Y014663D01*
X023700Y014563D02*
X023750Y014513D01*
X023798Y014513D02*
X023898Y014513D01*
X023848Y014513D02*
X023848Y014663D01*
X023798Y014613D01*
X023950Y011863D02*
X024025Y011863D01*
X024050Y011838D01*
X024050Y011788D01*
X024025Y011763D01*
X023950Y011763D01*
X023950Y011713D02*
X023950Y011863D01*
X024000Y011763D02*
X024050Y011713D01*
X024098Y011738D02*
X024123Y011713D01*
X024173Y011713D01*
X024198Y011738D01*
X024198Y011838D01*
X024173Y011863D01*
X024123Y011863D01*
X024098Y011838D01*
X024098Y011813D01*
X024123Y011788D01*
X024198Y011788D01*
X024410Y009271D02*
X024435Y009271D01*
X024460Y009245D01*
X024460Y009195D01*
X024435Y009170D01*
X024410Y009170D01*
X024385Y009195D01*
X024385Y009245D01*
X024410Y009271D01*
X024460Y009245D02*
X024485Y009271D01*
X024510Y009271D01*
X024535Y009245D01*
X024535Y009195D01*
X024510Y009170D01*
X024485Y009170D01*
X024460Y009195D01*
X024460Y009123D02*
X024485Y009098D01*
X024485Y009023D01*
X024535Y009023D02*
X024385Y009023D01*
X024385Y009098D01*
X024410Y009123D01*
X024460Y009123D01*
X024485Y009073D02*
X024535Y009123D01*
X020148Y010813D02*
X020048Y010813D01*
X020148Y010913D01*
X020148Y010938D01*
X020123Y010963D01*
X020073Y010963D01*
X020048Y010938D01*
X019950Y010963D02*
X019950Y010813D01*
X019900Y010813D02*
X020000Y010813D01*
X019900Y010913D02*
X019950Y010963D01*
X019853Y010938D02*
X019853Y010888D01*
X019828Y010863D01*
X019753Y010863D01*
X019753Y010813D02*
X019753Y010963D01*
X019828Y010963D01*
X019853Y010938D01*
X019803Y010863D02*
X019853Y010813D01*
X018492Y010623D02*
X018392Y010623D01*
X018442Y010623D02*
X018442Y010773D01*
X018392Y010723D01*
X018345Y010748D02*
X018320Y010773D01*
X018270Y010773D01*
X018245Y010748D01*
X018245Y010648D01*
X018270Y010623D01*
X018320Y010623D01*
X018345Y010648D01*
X018503Y009113D02*
X018578Y009113D01*
X018603Y009088D01*
X018603Y009038D01*
X018578Y009013D01*
X018503Y009013D01*
X018503Y008963D02*
X018503Y009113D01*
X018553Y009013D02*
X018603Y008963D01*
X018650Y008963D02*
X018750Y008963D01*
X018700Y008963D02*
X018700Y009113D01*
X018650Y009063D01*
X018798Y009038D02*
X018898Y009038D01*
X018873Y008963D02*
X018873Y009113D01*
X018798Y009038D01*
X015490Y007598D02*
X015490Y007573D01*
X015465Y007548D01*
X015415Y007548D01*
X015390Y007573D01*
X015390Y007598D01*
X015415Y007623D01*
X015465Y007623D01*
X015490Y007598D01*
X015465Y007548D02*
X015490Y007523D01*
X015490Y007498D01*
X015465Y007473D01*
X015415Y007473D01*
X015390Y007498D01*
X015390Y007523D01*
X015415Y007548D01*
X015342Y007473D02*
X015242Y007473D01*
X015195Y007473D02*
X015145Y007523D01*
X015170Y007523D02*
X015095Y007523D01*
X015095Y007473D02*
X015095Y007623D01*
X015170Y007623D01*
X015195Y007598D01*
X015195Y007548D01*
X015170Y007523D01*
X015242Y007573D02*
X015292Y007623D01*
X015292Y007473D01*
X012440Y007898D02*
X012415Y007873D01*
X012365Y007873D01*
X012340Y007898D01*
X012440Y007998D01*
X012440Y007898D01*
X012440Y007998D02*
X012415Y008023D01*
X012365Y008023D01*
X012340Y007998D01*
X012340Y007898D01*
X012292Y007873D02*
X012192Y007873D01*
X012292Y007973D01*
X012292Y007998D01*
X012267Y008023D01*
X012217Y008023D01*
X012192Y007998D01*
X012145Y007998D02*
X012145Y007948D01*
X012120Y007923D01*
X012045Y007923D01*
X012045Y007873D02*
X012045Y008023D01*
X012120Y008023D01*
X012145Y007998D01*
X012095Y007923D02*
X012145Y007873D01*
X011290Y008623D02*
X011290Y008648D01*
X011390Y008748D01*
X011390Y008773D01*
X011290Y008773D01*
X011192Y008773D02*
X011192Y008623D01*
X011142Y008623D02*
X011242Y008623D01*
X011142Y008723D02*
X011192Y008773D01*
X011095Y008748D02*
X011095Y008698D01*
X011070Y008673D01*
X010995Y008673D01*
X010995Y008623D02*
X010995Y008773D01*
X011070Y008773D01*
X011095Y008748D01*
X011045Y008673D02*
X011095Y008623D01*
X010570Y004426D02*
X010595Y004401D01*
X010595Y004351D01*
X010570Y004326D01*
X010520Y004326D02*
X010495Y004376D01*
X010495Y004401D01*
X010520Y004426D01*
X010570Y004426D01*
X010520Y004326D02*
X010445Y004326D01*
X010445Y004426D01*
X010445Y004229D02*
X010595Y004229D01*
X010595Y004279D02*
X010595Y004178D01*
X010595Y004131D02*
X010545Y004081D01*
X010545Y004106D02*
X010545Y004031D01*
X010595Y004031D02*
X010445Y004031D01*
X010445Y004106D01*
X010470Y004131D01*
X010520Y004131D01*
X010545Y004106D01*
X010495Y004178D02*
X010445Y004229D01*
X010845Y002973D02*
X010920Y002973D01*
X010945Y002948D01*
X010945Y002898D01*
X010920Y002873D01*
X010845Y002873D01*
X010845Y002823D02*
X010845Y002973D01*
X010895Y002873D02*
X010945Y002823D01*
X010992Y002823D02*
X011092Y002823D01*
X011042Y002823D02*
X011042Y002973D01*
X010992Y002923D01*
X011140Y002898D02*
X011215Y002898D01*
X011240Y002873D01*
X011240Y002848D01*
X011215Y002823D01*
X011165Y002823D01*
X011140Y002848D01*
X011140Y002898D01*
X011190Y002948D01*
X011240Y002973D01*
X014795Y002673D02*
X014795Y002523D01*
X014795Y002573D02*
X014870Y002573D01*
X014895Y002598D01*
X014895Y002648D01*
X014870Y002673D01*
X014795Y002673D01*
X014845Y002573D02*
X014895Y002523D01*
X014942Y002523D02*
X015042Y002523D01*
X014992Y002523D02*
X014992Y002673D01*
X014942Y002623D01*
X015090Y002623D02*
X015115Y002598D01*
X015190Y002598D01*
X015190Y002548D02*
X015190Y002648D01*
X015165Y002673D01*
X015115Y002673D01*
X015090Y002648D01*
X015090Y002623D01*
X015090Y002548D02*
X015115Y002523D01*
X015165Y002523D01*
X015190Y002548D01*
X016700Y002688D02*
X016725Y002663D01*
X016775Y002663D01*
X016800Y002688D01*
X016848Y002688D02*
X016873Y002663D01*
X016923Y002663D01*
X016948Y002688D01*
X016948Y002713D01*
X016923Y002738D01*
X016898Y002738D01*
X016923Y002738D02*
X016948Y002763D01*
X016948Y002788D01*
X016923Y002813D01*
X016873Y002813D01*
X016848Y002788D01*
X016800Y002788D02*
X016775Y002813D01*
X016725Y002813D01*
X016700Y002788D01*
X016700Y002688D01*
X016440Y004373D02*
X016340Y004373D01*
X016292Y004373D02*
X016192Y004373D01*
X016292Y004473D01*
X016292Y004498D01*
X016267Y004523D01*
X016217Y004523D01*
X016192Y004498D01*
X016145Y004498D02*
X016145Y004448D01*
X016120Y004423D01*
X016045Y004423D01*
X016045Y004373D02*
X016045Y004523D01*
X016120Y004523D01*
X016145Y004498D01*
X016095Y004423D02*
X016145Y004373D01*
X016340Y004473D02*
X016390Y004523D01*
X016390Y004373D01*
X019453Y005863D02*
X019453Y006013D01*
X019528Y006013D01*
X019553Y005988D01*
X019553Y005938D01*
X019528Y005913D01*
X019453Y005913D01*
X019503Y005913D02*
X019553Y005863D01*
X019600Y005863D02*
X019700Y005863D01*
X019748Y005863D02*
X019848Y005863D01*
X019798Y005863D02*
X019798Y006013D01*
X019748Y005963D01*
X019650Y006013D02*
X019650Y005863D01*
X019600Y005963D02*
X019650Y006013D01*
X022503Y005613D02*
X022503Y005463D01*
X022503Y005513D02*
X022578Y005513D01*
X022603Y005538D01*
X022603Y005588D01*
X022578Y005613D01*
X022503Y005613D01*
X022553Y005513D02*
X022603Y005463D01*
X022650Y005463D02*
X022750Y005463D01*
X022700Y005463D02*
X022700Y005613D01*
X022650Y005563D01*
X022798Y005588D02*
X022823Y005613D01*
X022873Y005613D01*
X022898Y005588D01*
X022898Y005563D01*
X022873Y005538D01*
X022898Y005513D01*
X022898Y005488D01*
X022873Y005463D01*
X022823Y005463D01*
X022798Y005488D01*
X022848Y005538D02*
X022873Y005538D01*
X023553Y004863D02*
X023628Y004863D01*
X023653Y004838D01*
X023653Y004788D01*
X023628Y004763D01*
X023553Y004763D01*
X023553Y004713D02*
X023553Y004863D01*
X023603Y004763D02*
X023653Y004713D01*
X023700Y004713D02*
X023800Y004713D01*
X023750Y004713D02*
X023750Y004863D01*
X023700Y004813D01*
X023848Y004838D02*
X023873Y004863D01*
X023923Y004863D01*
X023948Y004838D01*
X023848Y004738D01*
X023873Y004713D01*
X023923Y004713D01*
X023948Y004738D01*
X023948Y004838D01*
X023848Y004838D02*
X023848Y004738D01*
X015415Y017273D02*
X015365Y017273D01*
X015340Y017298D01*
X015340Y017348D02*
X015390Y017373D01*
X015415Y017373D01*
X015440Y017348D01*
X015440Y017298D01*
X015415Y017273D01*
X015340Y017348D02*
X015340Y017423D01*
X015440Y017423D01*
X015292Y017398D02*
X015267Y017423D01*
X015217Y017423D01*
X015192Y017398D01*
X015145Y017398D02*
X015145Y017348D01*
X015120Y017323D01*
X015045Y017323D01*
X015045Y017273D02*
X015045Y017423D01*
X015120Y017423D01*
X015145Y017398D01*
X015095Y017323D02*
X015145Y017273D01*
X015192Y017273D02*
X015292Y017373D01*
X015292Y017398D01*
X015292Y017273D02*
X015192Y017273D01*
X012390Y017798D02*
X012290Y017698D01*
X012290Y017673D01*
X012242Y017673D02*
X012142Y017673D01*
X012242Y017773D01*
X012242Y017798D01*
X012217Y017823D01*
X012167Y017823D01*
X012142Y017798D01*
X012095Y017798D02*
X012095Y017748D01*
X012070Y017723D01*
X011995Y017723D01*
X011995Y017673D02*
X011995Y017823D01*
X012070Y017823D01*
X012095Y017798D01*
X012045Y017723D02*
X012095Y017673D01*
X012290Y017823D02*
X012390Y017823D01*
X012390Y017798D01*
X011315Y018423D02*
X011315Y018573D01*
X011240Y018498D01*
X011340Y018498D01*
X011192Y018523D02*
X011192Y018548D01*
X011167Y018573D01*
X011117Y018573D01*
X011092Y018548D01*
X011045Y018548D02*
X011045Y018498D01*
X011020Y018473D01*
X010945Y018473D01*
X010945Y018423D02*
X010945Y018573D01*
X011020Y018573D01*
X011045Y018548D01*
X010995Y018473D02*
X011045Y018423D01*
X011092Y018423D02*
X011192Y018523D01*
X011192Y018423D02*
X011092Y018423D01*
X018195Y020448D02*
X018220Y020423D01*
X018270Y020423D01*
X018295Y020448D01*
X018342Y020423D02*
X018442Y020523D01*
X018442Y020548D01*
X018417Y020573D01*
X018367Y020573D01*
X018342Y020548D01*
X018295Y020548D02*
X018270Y020573D01*
X018220Y020573D01*
X018195Y020548D01*
X018195Y020448D01*
X018342Y020423D02*
X018442Y020423D01*
X019850Y020613D02*
X019850Y020763D01*
X019925Y020763D01*
X019950Y020738D01*
X019950Y020688D01*
X019925Y020663D01*
X019850Y020663D01*
X019900Y020663D02*
X019950Y020613D01*
X019998Y020638D02*
X020023Y020613D01*
X020073Y020613D01*
X020098Y020638D01*
X020098Y020663D01*
X020073Y020688D01*
X020048Y020688D01*
X020073Y020688D02*
X020098Y020713D01*
X020098Y020738D01*
X020073Y020763D01*
X020023Y020763D01*
X019998Y020738D01*
X018848Y018913D02*
X018848Y018888D01*
X018748Y018788D01*
X018748Y018763D01*
X018700Y018763D02*
X018650Y018813D01*
X018675Y018813D02*
X018600Y018813D01*
X018600Y018763D02*
X018600Y018913D01*
X018675Y018913D01*
X018700Y018888D01*
X018700Y018838D01*
X018675Y018813D01*
X018748Y018913D02*
X018848Y018913D01*
X023850Y020313D02*
X023850Y020463D01*
X023925Y020463D01*
X023950Y020438D01*
X023950Y020388D01*
X023925Y020363D01*
X023850Y020363D01*
X023900Y020363D02*
X023950Y020313D01*
X023998Y020338D02*
X024023Y020313D01*
X024073Y020313D01*
X024098Y020338D01*
X024098Y020388D01*
X024073Y020413D01*
X024048Y020413D01*
X023998Y020388D01*
X023998Y020463D01*
X024098Y020463D01*
X024410Y019071D02*
X024410Y018970D01*
X024335Y019045D01*
X024485Y019045D01*
X024485Y018923D02*
X024435Y018873D01*
X024435Y018898D02*
X024435Y018823D01*
X024485Y018823D02*
X024335Y018823D01*
X024335Y018898D01*
X024360Y018923D01*
X024410Y018923D01*
X024435Y018898D01*
D18*
X024027Y019338D02*
X023720Y019338D01*
X024027Y019645D01*
X024027Y019722D01*
X023950Y019798D01*
X023797Y019798D01*
X023720Y019722D01*
X023567Y019722D02*
X023567Y019415D01*
X023490Y019338D01*
X023337Y019338D01*
X023260Y019415D01*
X023260Y019722D01*
X023337Y019798D01*
X023490Y019798D01*
X023567Y019722D01*
X023413Y019492D02*
X023567Y019338D01*
X021880Y017718D02*
X020100Y017718D01*
X020360Y017888D02*
X020590Y017888D01*
X020667Y017965D01*
X020667Y018272D01*
X020590Y018348D01*
X020360Y018348D01*
X020360Y017888D01*
X020820Y017888D02*
X021127Y018195D01*
X021127Y018272D01*
X021050Y018348D01*
X020897Y018348D01*
X020820Y018272D01*
X020820Y017888D02*
X021127Y017888D01*
X021880Y016218D02*
X020100Y016218D01*
X019600Y014718D02*
X021380Y014718D01*
X021860Y014898D02*
X022090Y014898D01*
X022167Y014822D01*
X022167Y014515D01*
X022090Y014438D01*
X021860Y014438D01*
X021860Y014898D01*
X022320Y014745D02*
X022474Y014898D01*
X022474Y014438D01*
X022627Y014438D02*
X022320Y014438D01*
X021380Y013218D02*
X019600Y013218D01*
X019538Y013078D02*
X019768Y013078D01*
X019845Y013002D01*
X019845Y012925D01*
X019768Y012848D01*
X019538Y012848D01*
X019384Y012848D02*
X019077Y012848D01*
X019077Y012925D02*
X019231Y013078D01*
X019384Y012925D01*
X019384Y012618D01*
X019538Y012618D02*
X019768Y012618D01*
X019845Y012695D01*
X019845Y012772D01*
X019768Y012848D01*
X019538Y012618D02*
X019538Y013078D01*
X019077Y012925D02*
X019077Y012618D01*
X018924Y012695D02*
X018847Y012618D01*
X018694Y012618D01*
X018617Y012695D01*
X018694Y012848D02*
X018847Y012848D01*
X018924Y012772D01*
X018924Y012695D01*
X018694Y012848D02*
X018617Y012925D01*
X018617Y013002D01*
X018694Y013078D01*
X018847Y013078D01*
X018924Y013002D01*
X018464Y013078D02*
X018310Y013078D01*
X018387Y013078D02*
X018387Y012618D01*
X018310Y012618D02*
X018464Y012618D01*
X018157Y012695D02*
X018157Y013002D01*
X018080Y013078D01*
X017850Y013078D01*
X017850Y012618D01*
X018080Y012618D01*
X018157Y012695D01*
X019998Y012618D02*
X020305Y012618D01*
X020459Y012618D02*
X020765Y012618D01*
X020919Y012541D02*
X021226Y012541D01*
X021379Y012618D02*
X021379Y012925D01*
X021533Y013078D01*
X021686Y012925D01*
X021686Y012618D01*
X021686Y012848D02*
X021379Y012848D01*
X020765Y013078D02*
X020459Y013078D01*
X020459Y012618D01*
X020459Y012848D02*
X020612Y012848D01*
X019998Y013078D02*
X019998Y012618D01*
X017677Y010542D02*
X017600Y010618D01*
X017446Y010618D01*
X017370Y010542D01*
X017216Y010465D02*
X017216Y010158D01*
X017370Y010158D02*
X017677Y010465D01*
X017677Y010542D01*
X017216Y010465D02*
X017063Y010618D01*
X016909Y010465D01*
X016909Y010158D01*
X016756Y010081D02*
X016449Y010081D01*
X016295Y010158D02*
X015989Y010158D01*
X015989Y010618D01*
X016295Y010618D01*
X016142Y010388D02*
X015989Y010388D01*
X015835Y010158D02*
X015528Y010158D01*
X015528Y010618D01*
X015375Y010542D02*
X015375Y010465D01*
X015298Y010388D01*
X015068Y010388D01*
X014914Y010388D02*
X014608Y010388D01*
X014608Y010465D02*
X014761Y010618D01*
X014914Y010465D01*
X014914Y010158D01*
X015068Y010158D02*
X015298Y010158D01*
X015375Y010235D01*
X015375Y010312D01*
X015298Y010388D01*
X015375Y010542D02*
X015298Y010618D01*
X015068Y010618D01*
X015068Y010158D01*
X015330Y010068D02*
X013550Y010068D01*
X013610Y010158D02*
X013687Y010235D01*
X013687Y010542D01*
X013610Y010618D01*
X013380Y010618D01*
X013380Y010158D01*
X013610Y010158D01*
X013840Y010158D02*
X013994Y010158D01*
X013917Y010158D02*
X013917Y010618D01*
X013840Y010618D02*
X013994Y010618D01*
X014147Y010542D02*
X014147Y010465D01*
X014224Y010388D01*
X014377Y010388D01*
X014454Y010312D01*
X014454Y010235D01*
X014377Y010158D01*
X014224Y010158D01*
X014147Y010235D01*
X014608Y010158D02*
X014608Y010465D01*
X014454Y010542D02*
X014377Y010618D01*
X014224Y010618D01*
X014147Y010542D01*
X012956Y008848D02*
X012650Y008848D01*
X012650Y008618D01*
X012803Y008695D01*
X012880Y008695D01*
X012956Y008618D01*
X012956Y008465D01*
X012880Y008388D01*
X012726Y008388D01*
X012650Y008465D01*
X012496Y008465D02*
X012496Y008772D01*
X012419Y008848D01*
X012189Y008848D01*
X012189Y008388D01*
X012419Y008388D01*
X012496Y008465D01*
X013550Y008568D02*
X015330Y008568D01*
X014830Y007068D02*
X013050Y007068D01*
X013050Y005568D02*
X014830Y005568D01*
X014456Y005398D02*
X014303Y005322D01*
X014150Y005168D01*
X014380Y005168D01*
X014456Y005092D01*
X014456Y005015D01*
X014380Y004938D01*
X014226Y004938D01*
X014150Y005015D01*
X014150Y005168D01*
X013996Y005015D02*
X013996Y005322D01*
X013919Y005398D01*
X013689Y005398D01*
X013689Y004938D01*
X013919Y004938D01*
X013996Y005015D01*
X011556Y003948D02*
X011403Y003872D01*
X011250Y003718D01*
X011480Y003718D01*
X011556Y003642D01*
X011556Y003565D01*
X011480Y003488D01*
X011326Y003488D01*
X011250Y003565D01*
X011250Y003718D01*
X011096Y003565D02*
X011019Y003488D01*
X010866Y003488D01*
X010789Y003565D01*
X010789Y003872D01*
X010866Y003948D01*
X011019Y003948D01*
X011096Y003872D01*
X011096Y003565D01*
X011096Y003488D02*
X010943Y003642D01*
X017439Y003278D02*
X017439Y002818D01*
X017670Y002818D01*
X017746Y002895D01*
X017746Y003202D01*
X017670Y003278D01*
X017439Y003278D01*
X017900Y003278D02*
X018053Y003278D01*
X017977Y003278D02*
X017977Y002818D01*
X018053Y002818D02*
X017900Y002818D01*
X018207Y002895D02*
X018283Y002818D01*
X018437Y002818D01*
X018514Y002895D01*
X018514Y002972D01*
X018437Y003048D01*
X018283Y003048D01*
X018207Y003125D01*
X018207Y003202D01*
X018283Y003278D01*
X018437Y003278D01*
X018514Y003202D01*
X018667Y003125D02*
X018821Y003278D01*
X018974Y003125D01*
X018974Y002818D01*
X019127Y002818D02*
X019358Y002818D01*
X019434Y002895D01*
X019434Y002972D01*
X019358Y003048D01*
X019127Y003048D01*
X018974Y003048D02*
X018667Y003048D01*
X018667Y003125D02*
X018667Y002818D01*
X019127Y002818D02*
X019127Y003278D01*
X019358Y003278D01*
X019434Y003202D01*
X019434Y003125D01*
X019358Y003048D01*
X019588Y002818D02*
X019895Y002818D01*
X020048Y002818D02*
X020355Y002818D01*
X020509Y002741D02*
X020815Y002741D01*
X020969Y002818D02*
X020969Y003125D01*
X021122Y003278D01*
X021276Y003125D01*
X021276Y002818D01*
X021429Y002818D02*
X021736Y002818D01*
X021583Y002818D02*
X021583Y003278D01*
X021429Y003125D01*
X021276Y003048D02*
X020969Y003048D01*
X021430Y003418D02*
X019650Y003418D01*
X019588Y003278D02*
X019588Y002818D01*
X020048Y002818D02*
X020048Y003278D01*
X020355Y003278D01*
X020202Y003048D02*
X020048Y003048D01*
X021910Y004638D02*
X022140Y004638D01*
X022217Y004715D01*
X022217Y005022D01*
X022140Y005098D01*
X021910Y005098D01*
X021910Y004638D01*
X022370Y004715D02*
X022447Y004638D01*
X022600Y004638D01*
X022677Y004715D01*
X022677Y004792D01*
X022600Y004868D01*
X022524Y004868D01*
X022600Y004868D02*
X022677Y004945D01*
X022677Y005022D01*
X022600Y005098D01*
X022447Y005098D01*
X022370Y005022D01*
X021430Y004918D02*
X019650Y004918D01*
X020150Y006418D02*
X021930Y006418D01*
X021930Y007918D02*
X020150Y007918D01*
X020410Y008088D02*
X020640Y008088D01*
X020717Y008165D01*
X020717Y008472D01*
X020640Y008548D01*
X020410Y008548D01*
X020410Y008088D01*
X020870Y008318D02*
X021177Y008318D01*
X021100Y008088D02*
X021100Y008548D01*
X020870Y008318D01*
X023310Y009615D02*
X023310Y009922D01*
X023387Y009998D01*
X023540Y009998D01*
X023617Y009922D01*
X023617Y009615D01*
X023540Y009538D01*
X023387Y009538D01*
X023310Y009615D01*
X023463Y009692D02*
X023617Y009538D01*
X023770Y009768D02*
X024077Y009768D01*
X024000Y009538D02*
X024000Y009998D01*
X023770Y009768D01*
X017677Y010158D02*
X017370Y010158D01*
X017216Y010388D02*
X016909Y010388D01*
X011506Y013365D02*
X011430Y013288D01*
X011276Y013288D01*
X011200Y013365D01*
X011200Y013442D01*
X011276Y013518D01*
X011430Y013518D01*
X011506Y013442D01*
X011506Y013365D01*
X011430Y013518D02*
X011506Y013595D01*
X011506Y013672D01*
X011430Y013748D01*
X011276Y013748D01*
X011200Y013672D01*
X011200Y013595D01*
X011276Y013518D01*
X011046Y013365D02*
X010969Y013288D01*
X010816Y013288D01*
X010739Y013365D01*
X010739Y013672D01*
X010816Y013748D01*
X010969Y013748D01*
X011046Y013672D01*
X011046Y013365D01*
X011046Y013288D02*
X010893Y013442D01*
X013000Y015368D02*
X014780Y015368D01*
X014406Y015122D02*
X014406Y015045D01*
X014330Y014968D01*
X014176Y014968D01*
X014100Y015045D01*
X014100Y015122D01*
X014176Y015198D01*
X014330Y015198D01*
X014406Y015122D01*
X014330Y014968D02*
X014406Y014892D01*
X014406Y014815D01*
X014330Y014738D01*
X014176Y014738D01*
X014100Y014815D01*
X014100Y014892D01*
X014176Y014968D01*
X013946Y014815D02*
X013946Y015122D01*
X013869Y015198D01*
X013639Y015198D01*
X013639Y014738D01*
X013869Y014738D01*
X013946Y014815D01*
X014780Y016868D02*
X013000Y016868D01*
X012600Y018188D02*
X012600Y018265D01*
X012906Y018572D01*
X012906Y018648D01*
X012600Y018648D01*
X012446Y018572D02*
X012369Y018648D01*
X012139Y018648D01*
X012139Y018188D01*
X012369Y018188D01*
X012446Y018265D01*
X012446Y018572D01*
X013500Y018368D02*
X015280Y018368D01*
X015280Y019868D02*
X013500Y019868D01*
X013560Y019958D02*
X013637Y020035D01*
X013637Y020342D01*
X013560Y020418D01*
X013330Y020418D01*
X013330Y019958D01*
X013560Y019958D01*
X013790Y019958D02*
X013944Y019958D01*
X013867Y019958D02*
X013867Y020418D01*
X013790Y020418D02*
X013944Y020418D01*
X014097Y020342D02*
X014097Y020265D01*
X014174Y020188D01*
X014327Y020188D01*
X014404Y020112D01*
X014404Y020035D01*
X014327Y019958D01*
X014174Y019958D01*
X014097Y020035D01*
X014097Y020342D02*
X014174Y020418D01*
X014327Y020418D01*
X014404Y020342D01*
X014558Y020265D02*
X014711Y020418D01*
X014864Y020265D01*
X014864Y019958D01*
X015018Y019958D02*
X015248Y019958D01*
X015325Y020035D01*
X015325Y020112D01*
X015248Y020188D01*
X015018Y020188D01*
X014864Y020188D02*
X014558Y020188D01*
X014558Y020265D02*
X014558Y019958D01*
X015018Y019958D02*
X015018Y020418D01*
X015248Y020418D01*
X015325Y020342D01*
X015325Y020265D01*
X015248Y020188D01*
X015478Y019958D02*
X015785Y019958D01*
X015939Y019958D02*
X016245Y019958D01*
X016399Y019881D02*
X016706Y019881D01*
X016859Y019958D02*
X016859Y020265D01*
X017013Y020418D01*
X017166Y020265D01*
X017166Y019958D01*
X017320Y020035D02*
X017396Y019958D01*
X017550Y019958D01*
X017627Y020035D01*
X017627Y020112D01*
X017550Y020188D01*
X017473Y020188D01*
X017550Y020188D02*
X017627Y020265D01*
X017627Y020342D01*
X017550Y020418D01*
X017396Y020418D01*
X017320Y020342D01*
X017166Y020188D02*
X016859Y020188D01*
X016245Y020418D02*
X015939Y020418D01*
X015939Y019958D01*
X015939Y020188D02*
X016092Y020188D01*
X015478Y020418D02*
X015478Y019958D01*
D19*
X014677Y019512D02*
X014677Y018724D01*
X014677Y019118D02*
X014137Y019512D01*
X014137Y018724D01*
X014677Y019118D01*
X016640Y018618D02*
X017140Y018618D01*
X017140Y019618D02*
X016640Y019618D01*
X017990Y017418D02*
X018490Y017418D01*
X017140Y016618D02*
X016640Y016618D01*
X016640Y015618D02*
X017140Y015618D01*
X017990Y016418D02*
X018490Y016418D01*
X020703Y016574D02*
X020703Y017362D01*
X020703Y016968D02*
X021243Y017362D01*
X021243Y016574D01*
X020703Y016968D01*
X023240Y016468D02*
X023740Y016468D01*
X023740Y017468D02*
X023240Y017468D01*
X020743Y014362D02*
X020743Y013574D01*
X020203Y013968D01*
X020743Y014362D01*
X020203Y014362D02*
X020203Y013574D01*
X018490Y013418D02*
X017990Y013418D01*
X017990Y014418D02*
X018490Y014418D01*
X014177Y015724D02*
X014177Y016512D01*
X014177Y016118D02*
X013637Y016512D01*
X013637Y015724D01*
X014177Y016118D01*
X011640Y015618D02*
X011140Y015618D01*
X011140Y016618D02*
X011640Y016618D01*
X016690Y009818D02*
X017190Y009818D01*
X017190Y008818D02*
X016690Y008818D01*
X018040Y007618D02*
X018540Y007618D01*
X018540Y006618D02*
X018040Y006618D01*
X017190Y006818D02*
X016690Y006818D01*
X016690Y005818D02*
X017190Y005818D01*
X018040Y004618D02*
X018540Y004618D01*
X018540Y003618D02*
X018040Y003618D01*
X020253Y003774D02*
X020253Y004562D01*
X020253Y004168D02*
X020793Y003774D01*
X020793Y004562D01*
X020253Y004168D01*
X023290Y006668D02*
X023790Y006668D01*
X023790Y007668D02*
X023290Y007668D01*
X021293Y007562D02*
X021293Y006774D01*
X020753Y007168D01*
X021293Y007562D01*
X020753Y007562D02*
X020753Y006774D01*
X014727Y008924D02*
X014727Y009712D01*
X014727Y009318D02*
X014187Y009712D01*
X014187Y008924D01*
X014727Y009318D01*
X011690Y006818D02*
X011190Y006818D01*
X011190Y005818D02*
X011690Y005818D01*
X013687Y005924D02*
X013687Y006712D01*
X014227Y006318D01*
X013687Y005924D01*
X014227Y005924D02*
X014227Y006712D01*
M02*
