%
M48
M72
T01C0.0020
T02C0.0060
T03C0.0140
T04C0.0320
%
T01
X6630Y4232
X5640Y4037
X5840Y3442
X5840Y3247
X5445Y3637
X5645Y3637
X6013Y3637
X6035Y3242
X6235Y3247
X6269Y3572
T02
X5135Y2737
X4385Y1737
X7335Y1737
X7085Y2637
X5885Y2137
X3335Y1737
X1385Y1737
X8285Y1737
X9285Y1737
X7125Y4257
X5635Y4737
X2315Y6277
X4140Y3512
X4140Y3242
T03
X5136Y3632
T04
X8825Y1367
X7825Y1367
X6825Y1367
X5825Y1367
X4825Y1367
X3825Y1367
X2825Y1367
X1825Y1367
X825Y1367
M30
