G75*
%MOIN*%
%OFA0B0*%
%FSLAX25Y25*%
%IPPOS*%
%LPD*%
%AMOC8*
5,1,8,0,0,1.08239X$1,22.5*
%
%ADD10C,0.00000*%
%ADD11R,0.08674X0.02375*%
%ADD12R,0.08280X0.07887*%
%ADD13C,0.05600*%
%ADD14C,0.03600*%
%ADD15C,0.02800*%
%ADD16C,0.02400*%
%ADD17R,0.02800X0.02800*%
D10*
X0001351Y0007367D02*
X0096351Y0007367D01*
X0096351Y0067367D01*
X0001351Y0067367D01*
X0001351Y0007367D01*
D11*
X0076561Y0035771D03*
X0076561Y0038330D03*
X0076561Y0040889D03*
X0076561Y0043448D03*
X0076561Y0046007D03*
D12*
X0088175Y0056637D03*
X0088175Y0025141D03*
D13*
X0088251Y0016067D02*
X0088251Y0011267D01*
X0078251Y0011267D02*
X0078251Y0016067D01*
X0068251Y0016067D02*
X0068251Y0011267D01*
X0058251Y0011267D02*
X0058251Y0016067D01*
X0048251Y0016067D02*
X0048251Y0011267D01*
X0038251Y0011267D02*
X0038251Y0016067D01*
X0028251Y0016067D02*
X0028251Y0011267D01*
X0018251Y0011267D02*
X0018251Y0016067D01*
X0008251Y0016067D02*
X0008251Y0011267D01*
D14*
X0051357Y0036322D03*
D15*
X0051351Y0027367D03*
X0058851Y0021367D03*
X0070851Y0026367D03*
X0073351Y0017367D03*
X0082851Y0017367D03*
X0092851Y0017367D03*
X0071251Y0042567D03*
X0056351Y0047367D03*
X0043851Y0017367D03*
X0033351Y0017367D03*
X0013851Y0017367D03*
D16*
X0054451Y0036367D03*
X0056451Y0036367D03*
X0058401Y0034417D03*
X0058401Y0032467D03*
X0060351Y0032417D03*
X0062351Y0032467D03*
X0062695Y0035724D03*
X0060130Y0036368D03*
X0056401Y0040367D03*
X0066301Y0042317D03*
D17*
X0041401Y0035117D03*
X0041401Y0032417D03*
X0023151Y0062767D03*
M02*
