G75*
%MOIN*%
%OFA0B0*%
%FSLAX25Y25*%
%IPPOS*%
%LPD*%
%AMOC8*
5,1,8,0,0,1.08239X$1,22.5*
%
%ADD10C,0.00800*%
%ADD11C,0.00400*%
%ADD12C,0.00100*%
%ADD13R,0.01600X0.02800*%
%ADD14C,0.01600*%
%ADD15C,0.00600*%
%ADD16C,0.00500*%
D10*
X0028320Y0029156D02*
X0028320Y0030967D01*
X0027100Y0030046D01*
X0028320Y0030967D02*
X0028320Y0032778D01*
X0027100Y0031827D02*
X0028259Y0031067D01*
X0026704Y0040812D02*
X0012704Y0040812D01*
X0012704Y0066612D01*
X0026704Y0066612D01*
X0026704Y0040812D01*
X0050498Y0048495D02*
X0055223Y0048495D01*
X0054559Y0046619D02*
X0052000Y0046619D01*
X0052000Y0044060D01*
X0054559Y0046619D01*
X0054435Y0046494D02*
X0052000Y0046494D01*
X0051902Y0046815D02*
X0051902Y0027918D01*
X0070800Y0027918D01*
X0070800Y0046815D01*
X0051902Y0046815D01*
X0052000Y0045695D02*
X0053636Y0045695D01*
X0052838Y0044897D02*
X0052000Y0044897D01*
X0052000Y0044098D02*
X0052039Y0044098D01*
X0050498Y0061093D02*
X0055223Y0061093D01*
X0077970Y0031448D02*
X0083482Y0031448D01*
X0083482Y0026330D01*
X0077970Y0026330D01*
X0083482Y0026330D02*
X0085056Y0026330D01*
X0085056Y0031448D02*
X0083482Y0031448D01*
D11*
X0076768Y0048830D02*
X0073698Y0048830D01*
X0075233Y0048830D02*
X0075233Y0053434D01*
X0073698Y0051899D01*
X0072164Y0052666D02*
X0071396Y0053434D01*
X0069862Y0053434D01*
X0069094Y0052666D01*
X0069094Y0049597D01*
X0069862Y0048830D01*
X0071396Y0048830D01*
X0072164Y0049597D01*
X0067560Y0048830D02*
X0066025Y0048830D01*
X0066793Y0048830D02*
X0066793Y0053434D01*
X0067560Y0053434D02*
X0066025Y0053434D01*
X0036541Y0050699D02*
X0036541Y0048830D01*
X0034672Y0050699D01*
X0034205Y0050699D01*
X0033738Y0050232D01*
X0033738Y0049298D01*
X0034205Y0048830D01*
X0036504Y0042187D02*
X0036504Y0040319D01*
X0036504Y0041253D02*
X0033701Y0041253D01*
X0034635Y0040319D01*
X0034168Y0057930D02*
X0033701Y0058398D01*
X0033701Y0059332D01*
X0034168Y0059799D01*
X0034635Y0059799D01*
X0035102Y0059332D01*
X0035569Y0059799D01*
X0036036Y0059799D01*
X0036504Y0059332D01*
X0036504Y0058398D01*
X0036036Y0057930D01*
X0035102Y0058865D02*
X0035102Y0059332D01*
X0009504Y0062813D02*
X0006701Y0062813D01*
X0008102Y0061412D01*
X0008102Y0063280D01*
X0007800Y0045607D02*
X0007800Y0042538D01*
X0004731Y0045607D01*
X0003963Y0045607D01*
X0003196Y0044840D01*
X0003196Y0043305D01*
X0003963Y0042538D01*
X0003963Y0041003D02*
X0003196Y0040236D01*
X0003196Y0038701D01*
X0003963Y0037934D01*
X0007033Y0037934D01*
X0007800Y0038701D01*
X0007800Y0040236D01*
X0007033Y0041003D01*
X0007800Y0036399D02*
X0007800Y0034865D01*
X0007800Y0035632D02*
X0003196Y0035632D01*
X0003196Y0034865D02*
X0003196Y0036399D01*
D12*
X0013671Y0035153D02*
X0013671Y0033652D01*
X0013671Y0034153D02*
X0014421Y0034153D01*
X0014671Y0034403D01*
X0014671Y0034903D01*
X0014421Y0035153D01*
X0013671Y0035153D01*
X0014171Y0034153D02*
X0014671Y0033652D01*
X0015144Y0033902D02*
X0015394Y0033652D01*
X0015894Y0033652D01*
X0016145Y0033902D01*
X0016145Y0034903D01*
X0015894Y0035153D01*
X0015394Y0035153D01*
X0015144Y0034903D01*
X0015144Y0034653D01*
X0015394Y0034403D01*
X0016145Y0034403D01*
X0024891Y0035095D02*
X0024891Y0033594D01*
X0025892Y0033594D01*
X0026365Y0033594D02*
X0027365Y0033594D01*
X0027838Y0033594D02*
X0028589Y0033594D01*
X0028839Y0033844D01*
X0028839Y0034845D01*
X0028589Y0035095D01*
X0027838Y0035095D01*
X0027838Y0033594D01*
X0026865Y0034344D02*
X0026365Y0034344D01*
X0026365Y0033594D02*
X0026365Y0035095D01*
X0027365Y0035095D01*
X0029311Y0034595D02*
X0029812Y0035095D01*
X0029812Y0033594D01*
X0030312Y0033594D02*
X0029311Y0033594D01*
X0029279Y0036909D02*
X0029279Y0037660D01*
X0029029Y0037910D01*
X0028529Y0037910D01*
X0028278Y0037660D01*
X0028278Y0036909D01*
X0029780Y0036909D01*
X0029279Y0037409D02*
X0029780Y0037910D01*
X0029529Y0038382D02*
X0029780Y0038633D01*
X0029780Y0039133D01*
X0029529Y0039383D01*
X0029279Y0039383D01*
X0029029Y0039133D01*
X0029029Y0038883D01*
X0029029Y0039133D02*
X0028779Y0039383D01*
X0028529Y0039383D01*
X0028278Y0039133D01*
X0028278Y0038633D01*
X0028529Y0038382D01*
X0040760Y0046292D02*
X0040760Y0047293D01*
X0041010Y0047543D01*
X0041510Y0047543D01*
X0041761Y0047293D01*
X0042233Y0047293D02*
X0042483Y0047543D01*
X0042984Y0047543D01*
X0043234Y0047293D01*
X0043234Y0047042D01*
X0042984Y0046792D01*
X0042483Y0046792D01*
X0042233Y0047042D01*
X0042233Y0047293D01*
X0042483Y0046792D02*
X0042233Y0046542D01*
X0042233Y0046292D01*
X0042483Y0046041D01*
X0042984Y0046041D01*
X0043234Y0046292D01*
X0043234Y0046542D01*
X0042984Y0046792D01*
X0041761Y0046292D02*
X0041510Y0046041D01*
X0041010Y0046041D01*
X0040760Y0046292D01*
X0045625Y0046191D02*
X0045875Y0045941D01*
X0046375Y0045941D01*
X0046626Y0046191D01*
X0047098Y0046191D02*
X0047348Y0045941D01*
X0047849Y0045941D01*
X0048099Y0046191D01*
X0048099Y0046441D01*
X0047849Y0046692D01*
X0047098Y0046692D01*
X0047098Y0046191D01*
X0047098Y0046692D02*
X0047598Y0047192D01*
X0048099Y0047442D01*
X0046626Y0047192D02*
X0046375Y0047442D01*
X0045875Y0047442D01*
X0045625Y0047192D01*
X0045625Y0046191D01*
X0040614Y0053987D02*
X0040113Y0053987D01*
X0039863Y0054237D01*
X0039391Y0054237D02*
X0039141Y0053987D01*
X0038640Y0053987D01*
X0038390Y0054237D01*
X0038390Y0055238D01*
X0038640Y0055488D01*
X0039141Y0055488D01*
X0039391Y0055238D01*
X0039863Y0055488D02*
X0039863Y0054737D01*
X0040364Y0054988D01*
X0040614Y0054988D01*
X0040864Y0054737D01*
X0040864Y0054237D01*
X0040614Y0053987D01*
X0040864Y0055488D02*
X0039863Y0055488D01*
X0042228Y0065220D02*
X0041978Y0065471D01*
X0041978Y0066471D01*
X0042228Y0066722D01*
X0042729Y0066722D01*
X0042979Y0066471D01*
X0043451Y0066471D02*
X0043701Y0066722D01*
X0044202Y0066722D01*
X0044452Y0066471D01*
X0044452Y0066221D01*
X0043451Y0065220D01*
X0044452Y0065220D01*
X0042979Y0065471D02*
X0042729Y0065220D01*
X0042228Y0065220D01*
X0064074Y0063674D02*
X0065575Y0063674D01*
X0065575Y0064174D02*
X0065575Y0063173D01*
X0065325Y0062701D02*
X0065575Y0062451D01*
X0065575Y0061950D01*
X0065325Y0061700D01*
X0064324Y0061700D01*
X0064074Y0061950D01*
X0064074Y0062451D01*
X0064324Y0062701D01*
X0064574Y0063173D02*
X0064074Y0063674D01*
X0066078Y0059734D02*
X0066078Y0058733D01*
X0066078Y0058260D02*
X0065577Y0057760D01*
X0065827Y0058260D02*
X0064826Y0058260D01*
X0064576Y0058010D01*
X0064576Y0057510D01*
X0064826Y0057259D01*
X0065827Y0057259D01*
X0066078Y0057510D01*
X0066078Y0058010D01*
X0065827Y0058260D01*
X0065077Y0058733D02*
X0064576Y0059233D01*
X0066078Y0059233D01*
X0086879Y0048072D02*
X0087129Y0048323D01*
X0087379Y0048323D01*
X0087630Y0048072D01*
X0087880Y0048323D01*
X0088130Y0048323D01*
X0088380Y0048072D01*
X0088380Y0047572D01*
X0088130Y0047322D01*
X0088130Y0046849D02*
X0088380Y0046599D01*
X0088380Y0046099D01*
X0088130Y0045849D01*
X0087129Y0045849D01*
X0086879Y0046099D01*
X0086879Y0046599D01*
X0087129Y0046849D01*
X0087129Y0047322D02*
X0086879Y0047572D01*
X0086879Y0048072D01*
X0087630Y0048072D02*
X0087630Y0047822D01*
X0087740Y0039906D02*
X0088741Y0038905D01*
X0088991Y0038905D01*
X0088991Y0038433D02*
X0088490Y0037932D01*
X0088490Y0038183D02*
X0088490Y0037432D01*
X0088991Y0037432D02*
X0087489Y0037432D01*
X0087489Y0038183D01*
X0087740Y0038433D01*
X0088240Y0038433D01*
X0088490Y0038183D01*
X0087489Y0038905D02*
X0087489Y0039906D01*
X0087740Y0039906D01*
X0083496Y0039075D02*
X0083496Y0038825D01*
X0083246Y0038574D01*
X0082745Y0038574D01*
X0082495Y0038825D01*
X0082495Y0039075D01*
X0082745Y0039325D01*
X0083246Y0039325D01*
X0083496Y0039075D01*
X0083246Y0038574D02*
X0083496Y0038324D01*
X0083496Y0038074D01*
X0083246Y0037824D01*
X0082745Y0037824D01*
X0082495Y0038074D01*
X0082495Y0038324D01*
X0082745Y0038574D01*
X0082023Y0038574D02*
X0081773Y0038324D01*
X0081022Y0038324D01*
X0081022Y0037824D02*
X0081022Y0039325D01*
X0081773Y0039325D01*
X0082023Y0039075D01*
X0082023Y0038574D01*
X0081522Y0038324D02*
X0082023Y0037824D01*
X0077935Y0033569D02*
X0077935Y0032068D01*
X0078435Y0032068D02*
X0077434Y0032068D01*
X0076962Y0032318D02*
X0076962Y0033319D01*
X0076712Y0033569D01*
X0075961Y0033569D01*
X0075961Y0032068D01*
X0076712Y0032068D01*
X0076962Y0032318D01*
X0077434Y0033069D02*
X0077935Y0033569D01*
X0087822Y0033552D02*
X0088072Y0033301D01*
X0089073Y0033301D01*
X0089323Y0033552D01*
X0089323Y0034052D01*
X0089073Y0034302D01*
X0088572Y0034775D02*
X0088572Y0035775D01*
X0087822Y0035525D02*
X0088572Y0034775D01*
X0088072Y0034302D02*
X0087822Y0034052D01*
X0087822Y0033552D01*
X0087822Y0035525D02*
X0089323Y0035525D01*
X0090996Y0027284D02*
X0090746Y0027034D01*
X0090746Y0026033D01*
X0090996Y0025782D01*
X0091497Y0025782D01*
X0091747Y0026033D01*
X0092220Y0026033D02*
X0092470Y0025782D01*
X0092970Y0025782D01*
X0093220Y0026033D01*
X0093220Y0027034D01*
X0092970Y0027284D01*
X0092470Y0027284D01*
X0092220Y0027034D01*
X0092220Y0026783D01*
X0092470Y0026533D01*
X0093220Y0026533D01*
X0091747Y0027034D02*
X0091497Y0027284D01*
X0090996Y0027284D01*
X0041649Y0021085D02*
X0040648Y0021085D01*
X0041149Y0021085D02*
X0041149Y0022587D01*
X0040648Y0022086D01*
X0040176Y0022587D02*
X0040176Y0021336D01*
X0039926Y0021085D01*
X0039425Y0021085D01*
X0039175Y0021336D01*
X0039175Y0022587D01*
X0030792Y0021883D02*
X0029791Y0021883D01*
X0030542Y0022634D01*
X0030542Y0021133D01*
X0029319Y0021133D02*
X0028818Y0021633D01*
X0029069Y0021633D02*
X0028318Y0021633D01*
X0028318Y0021133D02*
X0028318Y0022634D01*
X0029069Y0022634D01*
X0029319Y0022384D01*
X0029319Y0021883D01*
X0029069Y0021633D01*
X0015516Y0022861D02*
X0014515Y0021860D01*
X0014515Y0021610D01*
X0014043Y0021860D02*
X0013793Y0021610D01*
X0013292Y0021610D01*
X0013042Y0021860D01*
X0013042Y0022861D01*
X0013292Y0023111D01*
X0013793Y0023111D01*
X0014043Y0022861D01*
X0014515Y0023111D02*
X0015516Y0023111D01*
X0015516Y0022861D01*
D13*
X0017651Y0031167D03*
X0029307Y0025382D03*
X0034351Y0037867D03*
X0082463Y0038664D03*
X0082419Y0042874D03*
D14*
X0082406Y0047332D02*
X0082406Y0047572D01*
X0082633Y0034489D02*
X0082633Y0034249D01*
X0089226Y0023569D02*
X0089226Y0023329D01*
X0046971Y0041367D02*
X0046731Y0041367D01*
X0041971Y0041267D02*
X0041731Y0041267D01*
X0017101Y0025487D02*
X0017101Y0025247D01*
X0039093Y0060327D02*
X0039333Y0060327D01*
X0045891Y0062744D02*
X0045891Y0062984D01*
X0059191Y0062889D02*
X0059191Y0062649D01*
D15*
X0062251Y0018667D02*
X0054251Y0018667D01*
X0053251Y0017667D01*
X0052251Y0018667D01*
X0044251Y0018667D01*
X0043251Y0017667D01*
X0042251Y0018667D01*
X0034251Y0018667D01*
X0033251Y0017667D01*
X0032251Y0018667D01*
X0024251Y0018667D01*
X0023251Y0017667D01*
X0022251Y0018667D01*
X0014251Y0018667D01*
X0013251Y0017667D01*
X0012251Y0018667D01*
X0003251Y0018667D01*
X0003251Y0008667D01*
X0012251Y0008667D01*
X0013251Y0009667D01*
X0014251Y0008667D01*
X0022251Y0008667D01*
X0023251Y0009667D01*
X0024251Y0008667D01*
X0032251Y0008667D01*
X0033251Y0009667D01*
X0034251Y0008667D01*
X0042251Y0008667D01*
X0043251Y0009667D01*
X0044251Y0008667D01*
X0052251Y0008667D01*
X0053251Y0009667D01*
X0054251Y0008667D01*
X0062251Y0008667D01*
X0063251Y0009667D01*
X0064251Y0008667D01*
X0072251Y0008667D01*
X0073251Y0009667D01*
X0074251Y0008667D01*
X0082251Y0008667D01*
X0083251Y0009667D01*
X0084251Y0008667D01*
X0093251Y0008667D01*
X0093251Y0018667D01*
X0084251Y0018667D01*
X0083251Y0017667D01*
X0082251Y0018667D01*
X0074251Y0018667D01*
X0073251Y0017667D01*
X0072251Y0018667D01*
X0064251Y0018667D01*
X0063251Y0017667D01*
X0062251Y0018667D01*
D16*
X0006648Y0002917D02*
X0005897Y0003667D01*
X0006648Y0002917D02*
X0008149Y0002917D01*
X0008899Y0003667D01*
X0008899Y0006670D01*
X0008149Y0007420D01*
X0006648Y0007420D01*
X0005897Y0006670D01*
X0005897Y0005919D01*
X0006648Y0005169D01*
X0008899Y0005169D01*
X0038701Y0023605D02*
X0038701Y0023999D01*
X0038701Y0023605D02*
X0045000Y0023605D01*
X0045000Y0023999D01*
X0045000Y0026754D02*
X0045000Y0031479D01*
X0045000Y0034235D02*
X0045000Y0034628D01*
X0038701Y0034628D01*
X0038701Y0034235D01*
X0038701Y0031479D02*
X0038701Y0030691D01*
X0038701Y0027542D02*
X0038701Y0026754D01*
X0057479Y0023798D02*
X0057479Y0023048D01*
X0058230Y0022297D01*
X0059731Y0022297D01*
X0060482Y0021547D01*
X0060482Y0020796D01*
X0059731Y0020045D01*
X0058230Y0020045D01*
X0057479Y0020796D01*
X0062083Y0021547D02*
X0063585Y0020045D01*
X0065086Y0021547D01*
X0065086Y0024549D01*
X0066687Y0023798D02*
X0067438Y0024549D01*
X0068939Y0024549D01*
X0069690Y0023798D01*
X0069690Y0023048D01*
X0066687Y0020045D01*
X0069690Y0020045D01*
X0062083Y0021547D02*
X0062083Y0024549D01*
X0060482Y0023798D02*
X0059731Y0024549D01*
X0058230Y0024549D01*
X0057479Y0023798D01*
X0085897Y0005919D02*
X0087398Y0007420D01*
X0087398Y0002917D01*
X0085897Y0002917D02*
X0088899Y0002917D01*
M02*
