G75*
%MOIN*%
%OFA0B0*%
%FSLAX24Y24*%
%IPPOS*%
%LPD*%
%AMOC8*
5,1,8,0,0,1.08239X$1,22.5*
%
%ADD10C,0.1615*%
%ADD11C,0.0640*%
%ADD12OC8,0.0560*%
%ADD13C,0.0112*%
D10*
X014089Y009652D03*
X037711Y009652D03*
X037711Y037211D03*
X014089Y037211D03*
D11*
X025022Y020889D02*
X025022Y020289D01*
X026022Y020289D02*
X026022Y020889D01*
X027022Y020889D02*
X027022Y020289D01*
X028022Y020289D02*
X028022Y020889D01*
X029022Y020889D02*
X029022Y020289D01*
X030022Y020289D02*
X030022Y020889D01*
D12*
X025900Y002278D03*
X025900Y001278D03*
X002778Y025400D03*
X001778Y025400D03*
X025900Y048522D03*
X025900Y049522D03*
X049022Y025400D03*
X050022Y025400D03*
D13*
X008146Y009284D02*
X008202Y009340D01*
X008192Y009155D01*
X008055Y009031D01*
X007870Y009041D01*
X007746Y009178D01*
X007756Y009363D01*
X007893Y009487D01*
X008078Y009477D01*
X008202Y009340D01*
X008116Y009310D01*
X008110Y009194D01*
X008025Y009117D01*
X007909Y009123D01*
X007832Y009208D01*
X007838Y009324D01*
X007923Y009401D01*
X008039Y009395D01*
X008116Y009310D01*
X008031Y009279D01*
X008028Y009233D01*
X007994Y009202D01*
X007948Y009205D01*
X007917Y009239D01*
X007920Y009285D01*
X007954Y009316D01*
X008000Y009313D01*
X008031Y009279D01*
X008889Y009953D02*
X008945Y010009D01*
X008935Y009824D01*
X008798Y009700D01*
X008613Y009710D01*
X008489Y009847D01*
X008499Y010032D01*
X008636Y010156D01*
X008821Y010146D01*
X008945Y010009D01*
X008859Y009979D01*
X008853Y009863D01*
X008768Y009786D01*
X008652Y009792D01*
X008575Y009877D01*
X008581Y009993D01*
X008666Y010070D01*
X008782Y010064D01*
X008859Y009979D01*
X008774Y009948D01*
X008771Y009902D01*
X008737Y009871D01*
X008691Y009874D01*
X008660Y009908D01*
X008663Y009954D01*
X008697Y009985D01*
X008743Y009982D01*
X008774Y009948D01*
X007373Y011810D02*
X007429Y011866D01*
X007400Y011682D01*
X007251Y011574D01*
X007067Y011603D01*
X006959Y011752D01*
X006988Y011936D01*
X007137Y012044D01*
X007321Y012015D01*
X007429Y011866D01*
X007340Y011845D01*
X007322Y011730D01*
X007230Y011663D01*
X007115Y011681D01*
X007048Y011773D01*
X007066Y011888D01*
X007158Y011955D01*
X007273Y011937D01*
X007340Y011845D01*
X007252Y011823D01*
X007245Y011778D01*
X007208Y011751D01*
X007163Y011758D01*
X007136Y011795D01*
X007143Y011840D01*
X007180Y011867D01*
X007225Y011860D01*
X007252Y011823D01*
X006564Y011222D02*
X006620Y011278D01*
X006591Y011094D01*
X006442Y010986D01*
X006258Y011015D01*
X006150Y011164D01*
X006179Y011348D01*
X006328Y011456D01*
X006512Y011427D01*
X006620Y011278D01*
X006531Y011257D01*
X006513Y011142D01*
X006421Y011075D01*
X006306Y011093D01*
X006239Y011185D01*
X006257Y011300D01*
X006349Y011367D01*
X006464Y011349D01*
X006531Y011257D01*
X006443Y011235D01*
X006436Y011190D01*
X006399Y011163D01*
X006354Y011170D01*
X006327Y011207D01*
X006334Y011252D01*
X006371Y011279D01*
X006416Y011272D01*
X006443Y011235D01*
X005193Y013315D02*
X005249Y013371D01*
X005201Y013192D01*
X005042Y013100D01*
X004863Y013148D01*
X004771Y013307D01*
X004819Y013486D01*
X004978Y013578D01*
X005157Y013530D01*
X005249Y013371D01*
X005159Y013359D01*
X005129Y013247D01*
X005030Y013190D01*
X004918Y013220D01*
X004861Y013319D01*
X004891Y013431D01*
X004990Y013488D01*
X005102Y013458D01*
X005159Y013359D01*
X005069Y013347D01*
X005057Y013303D01*
X005018Y013280D01*
X004974Y013292D01*
X004951Y013331D01*
X004963Y013375D01*
X005002Y013398D01*
X005046Y013386D01*
X005069Y013347D01*
X006059Y013815D02*
X006115Y013871D01*
X006067Y013692D01*
X005908Y013600D01*
X005729Y013648D01*
X005637Y013807D01*
X005685Y013986D01*
X005844Y014078D01*
X006023Y014030D01*
X006115Y013871D01*
X006025Y013859D01*
X005995Y013747D01*
X005896Y013690D01*
X005784Y013720D01*
X005727Y013819D01*
X005757Y013931D01*
X005856Y013988D01*
X005968Y013958D01*
X006025Y013859D01*
X005935Y013847D01*
X005923Y013803D01*
X005884Y013780D01*
X005840Y013792D01*
X005817Y013831D01*
X005829Y013875D01*
X005868Y013898D01*
X005912Y013886D01*
X005935Y013847D01*
X004049Y015540D02*
X004105Y015596D01*
X004038Y015422D01*
X003870Y015347D01*
X003696Y015414D01*
X003621Y015582D01*
X003688Y015756D01*
X003856Y015831D01*
X004030Y015764D01*
X004105Y015596D01*
X004014Y015593D01*
X003972Y015485D01*
X003867Y015438D01*
X003759Y015480D01*
X003712Y015585D01*
X003754Y015693D01*
X003859Y015740D01*
X003967Y015698D01*
X004014Y015593D01*
X003923Y015590D01*
X003906Y015548D01*
X003864Y015529D01*
X003822Y015546D01*
X003803Y015588D01*
X003820Y015630D01*
X003862Y015649D01*
X003904Y015632D01*
X003923Y015590D01*
X004963Y015946D02*
X005019Y016002D01*
X004952Y015828D01*
X004784Y015753D01*
X004610Y015820D01*
X004535Y015988D01*
X004602Y016162D01*
X004770Y016237D01*
X004944Y016170D01*
X005019Y016002D01*
X004928Y015999D01*
X004886Y015891D01*
X004781Y015844D01*
X004673Y015886D01*
X004626Y015991D01*
X004668Y016099D01*
X004773Y016146D01*
X004881Y016104D01*
X004928Y015999D01*
X004837Y015996D01*
X004820Y015954D01*
X004778Y015935D01*
X004736Y015952D01*
X004717Y015994D01*
X004734Y016036D01*
X004776Y016055D01*
X004818Y016038D01*
X004837Y015996D01*
X004095Y018293D02*
X004151Y018237D01*
X004066Y018071D01*
X003892Y018014D01*
X003726Y018099D01*
X003669Y018273D01*
X003754Y018439D01*
X003928Y018496D01*
X004094Y018411D01*
X004151Y018237D01*
X004060Y018245D01*
X004007Y018140D01*
X003900Y018105D01*
X003795Y018158D01*
X003760Y018265D01*
X003813Y018370D01*
X003920Y018405D01*
X004025Y018352D01*
X004060Y018245D01*
X003970Y018251D01*
X003949Y018209D01*
X003906Y018195D01*
X003864Y018216D01*
X003850Y018259D01*
X003871Y018301D01*
X003914Y018315D01*
X003956Y018294D01*
X003970Y018251D01*
X003144Y017984D02*
X003200Y017928D01*
X003115Y017762D01*
X002941Y017705D01*
X002775Y017790D01*
X002718Y017964D01*
X002803Y018130D01*
X002977Y018187D01*
X003143Y018102D01*
X003200Y017928D01*
X003109Y017936D01*
X003056Y017831D01*
X002949Y017796D01*
X002844Y017849D01*
X002809Y017956D01*
X002862Y018061D01*
X002969Y018096D01*
X003074Y018043D01*
X003109Y017936D01*
X003019Y017942D01*
X002998Y017900D01*
X002955Y017886D01*
X002913Y017907D01*
X002899Y017950D01*
X002920Y017992D01*
X002963Y018006D01*
X003005Y017985D01*
X003019Y017942D01*
X002487Y020398D02*
X002543Y020342D01*
X002441Y020186D01*
X002262Y020147D01*
X002106Y020249D01*
X002067Y020428D01*
X002169Y020584D01*
X002348Y020623D01*
X002504Y020521D01*
X002543Y020342D01*
X002453Y020359D01*
X002389Y020260D01*
X002279Y020237D01*
X002180Y020301D01*
X002157Y020411D01*
X002221Y020510D01*
X002331Y020533D01*
X002430Y020469D01*
X002453Y020359D01*
X002364Y020375D01*
X002339Y020336D01*
X002295Y020326D01*
X002256Y020351D01*
X002246Y020395D01*
X002271Y020434D01*
X002315Y020444D01*
X002354Y020419D01*
X002364Y020375D01*
X003465Y020606D02*
X003521Y020550D01*
X003419Y020394D01*
X003240Y020355D01*
X003084Y020457D01*
X003045Y020636D01*
X003147Y020792D01*
X003326Y020831D01*
X003482Y020729D01*
X003521Y020550D01*
X003431Y020567D01*
X003367Y020468D01*
X003257Y020445D01*
X003158Y020509D01*
X003135Y020619D01*
X003199Y020718D01*
X003309Y020741D01*
X003408Y020677D01*
X003431Y020567D01*
X003342Y020583D01*
X003317Y020544D01*
X003273Y020534D01*
X003234Y020559D01*
X003224Y020603D01*
X003249Y020642D01*
X003293Y020652D01*
X003332Y020627D01*
X003342Y020583D01*
X003081Y022971D02*
X003137Y022915D01*
X003019Y022770D01*
X002837Y022751D01*
X002692Y022869D01*
X002673Y023051D01*
X002791Y023196D01*
X002973Y023215D01*
X003118Y023097D01*
X003137Y022915D01*
X003050Y022941D01*
X002976Y022850D01*
X002863Y022838D01*
X002772Y022912D01*
X002760Y023025D01*
X002834Y023116D01*
X002947Y023128D01*
X003038Y023054D01*
X003050Y022941D01*
X002963Y022966D01*
X002933Y022930D01*
X002888Y022925D01*
X002852Y022955D01*
X002847Y023000D01*
X002877Y023036D01*
X002922Y023041D01*
X002958Y023011D01*
X002963Y022966D01*
X002086Y022867D02*
X002142Y022811D01*
X002024Y022666D01*
X001842Y022647D01*
X001697Y022765D01*
X001678Y022947D01*
X001796Y023092D01*
X001978Y023111D01*
X002123Y022993D01*
X002142Y022811D01*
X002055Y022837D01*
X001981Y022746D01*
X001868Y022734D01*
X001777Y022808D01*
X001765Y022921D01*
X001839Y023012D01*
X001952Y023024D01*
X002043Y022950D01*
X002055Y022837D01*
X001968Y022862D01*
X001938Y022826D01*
X001893Y022821D01*
X001857Y022851D01*
X001852Y022896D01*
X001882Y022932D01*
X001927Y022937D01*
X001963Y022907D01*
X001968Y022862D01*
X003062Y027759D02*
X003118Y027703D01*
X002973Y027585D01*
X002791Y027604D01*
X002673Y027749D01*
X002692Y027931D01*
X002837Y028049D01*
X003019Y028030D01*
X003137Y027885D01*
X003118Y027703D01*
X003038Y027746D01*
X002947Y027672D01*
X002834Y027684D01*
X002760Y027775D01*
X002772Y027888D01*
X002863Y027962D01*
X002976Y027950D01*
X003050Y027859D01*
X003038Y027746D01*
X002958Y027789D01*
X002922Y027759D01*
X002877Y027764D01*
X002847Y027800D01*
X002852Y027845D01*
X002888Y027875D01*
X002933Y027870D01*
X002963Y027834D01*
X002958Y027789D01*
X002067Y027863D02*
X002123Y027807D01*
X001978Y027689D01*
X001796Y027708D01*
X001678Y027853D01*
X001697Y028035D01*
X001842Y028153D01*
X002024Y028134D01*
X002142Y027989D01*
X002123Y027807D01*
X002043Y027850D01*
X001952Y027776D01*
X001839Y027788D01*
X001765Y027879D01*
X001777Y027992D01*
X001868Y028066D01*
X001981Y028054D01*
X002055Y027963D01*
X002043Y027850D01*
X001963Y027893D01*
X001927Y027863D01*
X001882Y027868D01*
X001852Y027904D01*
X001857Y027949D01*
X001893Y027979D01*
X001938Y027974D01*
X001968Y027938D01*
X001963Y027893D01*
X003426Y030127D02*
X003482Y030071D01*
X003326Y029969D01*
X003147Y030008D01*
X003045Y030164D01*
X003084Y030343D01*
X003240Y030445D01*
X003419Y030406D01*
X003521Y030250D01*
X003482Y030071D01*
X003408Y030123D01*
X003309Y030059D01*
X003199Y030082D01*
X003135Y030181D01*
X003158Y030291D01*
X003257Y030355D01*
X003367Y030332D01*
X003431Y030233D01*
X003408Y030123D01*
X003332Y030173D01*
X003293Y030148D01*
X003249Y030158D01*
X003224Y030197D01*
X003234Y030241D01*
X003273Y030266D01*
X003317Y030256D01*
X003342Y030217D01*
X003332Y030173D01*
X002448Y030335D02*
X002504Y030279D01*
X002348Y030177D01*
X002169Y030216D01*
X002067Y030372D01*
X002106Y030551D01*
X002262Y030653D01*
X002441Y030614D01*
X002543Y030458D01*
X002504Y030279D01*
X002430Y030331D01*
X002331Y030267D01*
X002221Y030290D01*
X002157Y030389D01*
X002180Y030499D01*
X002279Y030563D01*
X002389Y030540D01*
X002453Y030441D01*
X002430Y030331D01*
X002354Y030381D01*
X002315Y030356D01*
X002271Y030366D01*
X002246Y030405D01*
X002256Y030449D01*
X002295Y030474D01*
X002339Y030464D01*
X002364Y030425D01*
X002354Y030381D01*
X003087Y032754D02*
X003143Y032698D01*
X002977Y032613D01*
X002803Y032670D01*
X002718Y032836D01*
X002775Y033010D01*
X002941Y033095D01*
X003115Y033038D01*
X003200Y032872D01*
X003143Y032698D01*
X003074Y032757D01*
X002969Y032704D01*
X002862Y032739D01*
X002809Y032844D01*
X002844Y032951D01*
X002949Y033004D01*
X003056Y032969D01*
X003109Y032864D01*
X003074Y032757D01*
X003005Y032815D01*
X002963Y032794D01*
X002920Y032808D01*
X002899Y032850D01*
X002913Y032893D01*
X002955Y032914D01*
X002998Y032900D01*
X003019Y032858D01*
X003005Y032815D01*
X004038Y032445D02*
X004094Y032389D01*
X003928Y032304D01*
X003754Y032361D01*
X003669Y032527D01*
X003726Y032701D01*
X003892Y032786D01*
X004066Y032729D01*
X004151Y032563D01*
X004094Y032389D01*
X004025Y032448D01*
X003920Y032395D01*
X003813Y032430D01*
X003760Y032535D01*
X003795Y032642D01*
X003900Y032695D01*
X004007Y032660D01*
X004060Y032555D01*
X004025Y032448D01*
X003956Y032506D01*
X003914Y032485D01*
X003871Y032499D01*
X003850Y032541D01*
X003864Y032584D01*
X003906Y032605D01*
X003949Y032591D01*
X003970Y032549D01*
X003956Y032506D01*
X004888Y034686D02*
X004944Y034630D01*
X004770Y034563D01*
X004602Y034638D01*
X004535Y034812D01*
X004610Y034980D01*
X004784Y035047D01*
X004952Y034972D01*
X005019Y034798D01*
X004944Y034630D01*
X004881Y034696D01*
X004773Y034654D01*
X004668Y034701D01*
X004626Y034809D01*
X004673Y034914D01*
X004781Y034956D01*
X004886Y034909D01*
X004928Y034801D01*
X004881Y034696D01*
X004818Y034762D01*
X004776Y034745D01*
X004734Y034764D01*
X004717Y034806D01*
X004736Y034848D01*
X004778Y034865D01*
X004820Y034846D01*
X004837Y034804D01*
X004818Y034762D01*
X003974Y035092D02*
X004030Y035036D01*
X003856Y034969D01*
X003688Y035044D01*
X003621Y035218D01*
X003696Y035386D01*
X003870Y035453D01*
X004038Y035378D01*
X004105Y035204D01*
X004030Y035036D01*
X003967Y035102D01*
X003859Y035060D01*
X003754Y035107D01*
X003712Y035215D01*
X003759Y035320D01*
X003867Y035362D01*
X003972Y035315D01*
X004014Y035207D01*
X003967Y035102D01*
X003904Y035168D01*
X003862Y035151D01*
X003820Y035170D01*
X003803Y035212D01*
X003822Y035254D01*
X003864Y035271D01*
X003906Y035252D01*
X003923Y035210D01*
X003904Y035168D01*
X005101Y037326D02*
X005157Y037270D01*
X004978Y037222D01*
X004819Y037314D01*
X004771Y037493D01*
X004863Y037652D01*
X005042Y037700D01*
X005201Y037608D01*
X005249Y037429D01*
X005157Y037270D01*
X005102Y037342D01*
X004990Y037312D01*
X004891Y037369D01*
X004861Y037481D01*
X004918Y037580D01*
X005030Y037610D01*
X005129Y037553D01*
X005159Y037441D01*
X005102Y037342D01*
X005046Y037414D01*
X005002Y037402D01*
X004963Y037425D01*
X004951Y037469D01*
X004974Y037508D01*
X005018Y037520D01*
X005057Y037497D01*
X005069Y037453D01*
X005046Y037414D01*
X005967Y036826D02*
X006023Y036770D01*
X005844Y036722D01*
X005685Y036814D01*
X005637Y036993D01*
X005729Y037152D01*
X005908Y037200D01*
X006067Y037108D01*
X006115Y036929D01*
X006023Y036770D01*
X005968Y036842D01*
X005856Y036812D01*
X005757Y036869D01*
X005727Y036981D01*
X005784Y037080D01*
X005896Y037110D01*
X005995Y037053D01*
X006025Y036941D01*
X005968Y036842D01*
X005912Y036914D01*
X005868Y036902D01*
X005829Y036925D01*
X005817Y036969D01*
X005840Y037008D01*
X005884Y037020D01*
X005923Y036997D01*
X005935Y036953D01*
X005912Y036914D01*
X007265Y038841D02*
X007321Y038785D01*
X007137Y038756D01*
X006988Y038864D01*
X006959Y039048D01*
X007067Y039197D01*
X007251Y039226D01*
X007400Y039118D01*
X007429Y038934D01*
X007321Y038785D01*
X007273Y038863D01*
X007158Y038845D01*
X007066Y038912D01*
X007048Y039027D01*
X007115Y039119D01*
X007230Y039137D01*
X007322Y039070D01*
X007340Y038955D01*
X007273Y038863D01*
X007225Y038940D01*
X007180Y038933D01*
X007143Y038960D01*
X007136Y039005D01*
X007163Y039042D01*
X007208Y039049D01*
X007245Y039022D01*
X007252Y038977D01*
X007225Y038940D01*
X006456Y039429D02*
X006512Y039373D01*
X006328Y039344D01*
X006179Y039452D01*
X006150Y039636D01*
X006258Y039785D01*
X006442Y039814D01*
X006591Y039706D01*
X006620Y039522D01*
X006512Y039373D01*
X006464Y039451D01*
X006349Y039433D01*
X006257Y039500D01*
X006239Y039615D01*
X006306Y039707D01*
X006421Y039725D01*
X006513Y039658D01*
X006531Y039543D01*
X006464Y039451D01*
X006416Y039528D01*
X006371Y039521D01*
X006334Y039548D01*
X006327Y039593D01*
X006354Y039630D01*
X006399Y039637D01*
X006436Y039610D01*
X006443Y039565D01*
X006416Y039528D01*
X008022Y041379D02*
X008078Y041323D01*
X007893Y041313D01*
X007756Y041437D01*
X007746Y041622D01*
X007870Y041759D01*
X008055Y041769D01*
X008192Y041645D01*
X008202Y041460D01*
X008078Y041323D01*
X008039Y041405D01*
X007923Y041399D01*
X007838Y041476D01*
X007832Y041592D01*
X007909Y041677D01*
X008025Y041683D01*
X008110Y041606D01*
X008116Y041490D01*
X008039Y041405D01*
X008000Y041487D01*
X007954Y041484D01*
X007920Y041515D01*
X007917Y041561D01*
X007948Y041595D01*
X007994Y041598D01*
X008028Y041567D01*
X008031Y041521D01*
X008000Y041487D01*
X008765Y040710D02*
X008821Y040654D01*
X008636Y040644D01*
X008499Y040768D01*
X008489Y040953D01*
X008613Y041090D01*
X008798Y041100D01*
X008935Y040976D01*
X008945Y040791D01*
X008821Y040654D01*
X008782Y040736D01*
X008666Y040730D01*
X008581Y040807D01*
X008575Y040923D01*
X008652Y041008D01*
X008768Y041014D01*
X008853Y040937D01*
X008859Y040821D01*
X008782Y040736D01*
X008743Y040818D01*
X008697Y040815D01*
X008663Y040846D01*
X008660Y040892D01*
X008691Y040926D01*
X008737Y040929D01*
X008771Y040898D01*
X008774Y040852D01*
X008743Y040818D01*
X010453Y042411D02*
X010509Y042355D01*
X010324Y042365D01*
X010200Y042502D01*
X010210Y042687D01*
X010347Y042811D01*
X010532Y042801D01*
X010656Y042664D01*
X010646Y042479D01*
X010509Y042355D01*
X010479Y042441D01*
X010363Y042447D01*
X010286Y042532D01*
X010292Y042648D01*
X010377Y042725D01*
X010493Y042719D01*
X010570Y042634D01*
X010564Y042518D01*
X010479Y042441D01*
X010448Y042526D01*
X010402Y042529D01*
X010371Y042563D01*
X010374Y042609D01*
X010408Y042640D01*
X010454Y042637D01*
X010485Y042603D01*
X010482Y042557D01*
X010448Y042526D01*
X009784Y043154D02*
X009840Y043098D01*
X009655Y043108D01*
X009531Y043245D01*
X009541Y043430D01*
X009678Y043554D01*
X009863Y043544D01*
X009987Y043407D01*
X009977Y043222D01*
X009840Y043098D01*
X009810Y043184D01*
X009694Y043190D01*
X009617Y043275D01*
X009623Y043391D01*
X009708Y043468D01*
X009824Y043462D01*
X009901Y043377D01*
X009895Y043261D01*
X009810Y043184D01*
X009779Y043269D01*
X009733Y043272D01*
X009702Y043306D01*
X009705Y043352D01*
X009739Y043383D01*
X009785Y043380D01*
X009816Y043346D01*
X009813Y043300D01*
X009779Y043269D01*
X011722Y044736D02*
X011778Y044680D01*
X011594Y044709D01*
X011486Y044858D01*
X011515Y045042D01*
X011664Y045150D01*
X011848Y045121D01*
X011956Y044972D01*
X011927Y044788D01*
X011778Y044680D01*
X011757Y044769D01*
X011642Y044787D01*
X011575Y044879D01*
X011593Y044994D01*
X011685Y045061D01*
X011800Y045043D01*
X011867Y044951D01*
X011849Y044836D01*
X011757Y044769D01*
X011735Y044857D01*
X011690Y044864D01*
X011663Y044901D01*
X011670Y044946D01*
X011707Y044973D01*
X011752Y044966D01*
X011779Y044929D01*
X011772Y044884D01*
X011735Y044857D01*
X012310Y043927D02*
X012366Y043871D01*
X012182Y043900D01*
X012074Y044049D01*
X012103Y044233D01*
X012252Y044341D01*
X012436Y044312D01*
X012544Y044163D01*
X012515Y043979D01*
X012366Y043871D01*
X012345Y043960D01*
X012230Y043978D01*
X012163Y044070D01*
X012181Y044185D01*
X012273Y044252D01*
X012388Y044234D01*
X012455Y044142D01*
X012437Y044027D01*
X012345Y043960D01*
X012323Y044048D01*
X012278Y044055D01*
X012251Y044092D01*
X012258Y044137D01*
X012295Y044164D01*
X012340Y044157D01*
X012367Y044120D01*
X012360Y044075D01*
X012323Y044048D01*
X014315Y045241D02*
X014371Y045185D01*
X014192Y045233D01*
X014100Y045392D01*
X014148Y045571D01*
X014307Y045663D01*
X014486Y045615D01*
X014578Y045456D01*
X014530Y045277D01*
X014371Y045185D01*
X014359Y045275D01*
X014247Y045305D01*
X014190Y045404D01*
X014220Y045516D01*
X014319Y045573D01*
X014431Y045543D01*
X014488Y045444D01*
X014458Y045332D01*
X014359Y045275D01*
X014347Y045365D01*
X014303Y045377D01*
X014280Y045416D01*
X014292Y045460D01*
X014331Y045483D01*
X014375Y045471D01*
X014398Y045432D01*
X014386Y045388D01*
X014347Y045365D01*
X013815Y046107D02*
X013871Y046051D01*
X013692Y046099D01*
X013600Y046258D01*
X013648Y046437D01*
X013807Y046529D01*
X013986Y046481D01*
X014078Y046322D01*
X014030Y046143D01*
X013871Y046051D01*
X013859Y046141D01*
X013747Y046171D01*
X013690Y046270D01*
X013720Y046382D01*
X013819Y046439D01*
X013931Y046409D01*
X013988Y046310D01*
X013958Y046198D01*
X013859Y046141D01*
X013847Y046231D01*
X013803Y046243D01*
X013780Y046282D01*
X013792Y046326D01*
X013831Y046349D01*
X013875Y046337D01*
X013898Y046298D01*
X013886Y046254D01*
X013847Y046231D01*
X016040Y047251D02*
X016096Y047195D01*
X015922Y047262D01*
X015847Y047430D01*
X015914Y047604D01*
X016082Y047679D01*
X016256Y047612D01*
X016331Y047444D01*
X016264Y047270D01*
X016096Y047195D01*
X016093Y047286D01*
X015985Y047328D01*
X015938Y047433D01*
X015980Y047541D01*
X016085Y047588D01*
X016193Y047546D01*
X016240Y047441D01*
X016198Y047333D01*
X016093Y047286D01*
X016090Y047377D01*
X016048Y047394D01*
X016029Y047436D01*
X016046Y047478D01*
X016088Y047497D01*
X016130Y047480D01*
X016149Y047438D01*
X016132Y047396D01*
X016090Y047377D01*
X016446Y046337D02*
X016502Y046281D01*
X016328Y046348D01*
X016253Y046516D01*
X016320Y046690D01*
X016488Y046765D01*
X016662Y046698D01*
X016737Y046530D01*
X016670Y046356D01*
X016502Y046281D01*
X016499Y046372D01*
X016391Y046414D01*
X016344Y046519D01*
X016386Y046627D01*
X016491Y046674D01*
X016599Y046632D01*
X016646Y046527D01*
X016604Y046419D01*
X016499Y046372D01*
X016496Y046463D01*
X016454Y046480D01*
X016435Y046522D01*
X016452Y046564D01*
X016494Y046583D01*
X016536Y046566D01*
X016555Y046524D01*
X016538Y046482D01*
X016496Y046463D01*
X018484Y048156D02*
X018428Y048100D01*
X018262Y048185D01*
X018205Y048359D01*
X018290Y048525D01*
X018464Y048582D01*
X018630Y048497D01*
X018687Y048323D01*
X018602Y048157D01*
X018428Y048100D01*
X018436Y048191D01*
X018331Y048244D01*
X018296Y048351D01*
X018349Y048456D01*
X018456Y048491D01*
X018561Y048438D01*
X018596Y048331D01*
X018543Y048226D01*
X018436Y048191D01*
X018442Y048281D01*
X018400Y048302D01*
X018386Y048345D01*
X018407Y048387D01*
X018450Y048401D01*
X018492Y048380D01*
X018506Y048337D01*
X018485Y048295D01*
X018442Y048281D01*
X018793Y047205D02*
X018737Y047149D01*
X018571Y047234D01*
X018514Y047408D01*
X018599Y047574D01*
X018773Y047631D01*
X018939Y047546D01*
X018996Y047372D01*
X018911Y047206D01*
X018737Y047149D01*
X018745Y047240D01*
X018640Y047293D01*
X018605Y047400D01*
X018658Y047505D01*
X018765Y047540D01*
X018870Y047487D01*
X018905Y047380D01*
X018852Y047275D01*
X018745Y047240D01*
X018751Y047330D01*
X018709Y047351D01*
X018695Y047394D01*
X018716Y047436D01*
X018759Y047450D01*
X018801Y047429D01*
X018815Y047386D01*
X018794Y047344D01*
X018751Y047330D01*
X020898Y048813D02*
X020842Y048757D01*
X020686Y048859D01*
X020647Y049038D01*
X020749Y049194D01*
X020928Y049233D01*
X021084Y049131D01*
X021123Y048952D01*
X021021Y048796D01*
X020842Y048757D01*
X020859Y048847D01*
X020760Y048911D01*
X020737Y049021D01*
X020801Y049120D01*
X020911Y049143D01*
X021010Y049079D01*
X021033Y048969D01*
X020969Y048870D01*
X020859Y048847D01*
X020875Y048936D01*
X020836Y048961D01*
X020826Y049005D01*
X020851Y049044D01*
X020895Y049054D01*
X020934Y049029D01*
X020944Y048985D01*
X020919Y048946D01*
X020875Y048936D01*
X021106Y047835D02*
X021050Y047779D01*
X020894Y047881D01*
X020855Y048060D01*
X020957Y048216D01*
X021136Y048255D01*
X021292Y048153D01*
X021331Y047974D01*
X021229Y047818D01*
X021050Y047779D01*
X021067Y047869D01*
X020968Y047933D01*
X020945Y048043D01*
X021009Y048142D01*
X021119Y048165D01*
X021218Y048101D01*
X021241Y047991D01*
X021177Y047892D01*
X021067Y047869D01*
X021083Y047958D01*
X021044Y047983D01*
X021034Y048027D01*
X021059Y048066D01*
X021103Y048076D01*
X021142Y048051D01*
X021152Y048007D01*
X021127Y047968D01*
X021083Y047958D01*
X023471Y048219D02*
X023415Y048163D01*
X023270Y048281D01*
X023251Y048463D01*
X023369Y048608D01*
X023551Y048627D01*
X023696Y048509D01*
X023715Y048327D01*
X023597Y048182D01*
X023415Y048163D01*
X023441Y048250D01*
X023350Y048324D01*
X023338Y048437D01*
X023412Y048528D01*
X023525Y048540D01*
X023616Y048466D01*
X023628Y048353D01*
X023554Y048262D01*
X023441Y048250D01*
X023466Y048337D01*
X023430Y048367D01*
X023425Y048412D01*
X023455Y048448D01*
X023500Y048453D01*
X023536Y048423D01*
X023541Y048378D01*
X023511Y048342D01*
X023466Y048337D01*
X023367Y049214D02*
X023311Y049158D01*
X023166Y049276D01*
X023147Y049458D01*
X023265Y049603D01*
X023447Y049622D01*
X023592Y049504D01*
X023611Y049322D01*
X023493Y049177D01*
X023311Y049158D01*
X023337Y049245D01*
X023246Y049319D01*
X023234Y049432D01*
X023308Y049523D01*
X023421Y049535D01*
X023512Y049461D01*
X023524Y049348D01*
X023450Y049257D01*
X023337Y049245D01*
X023362Y049332D01*
X023326Y049362D01*
X023321Y049407D01*
X023351Y049443D01*
X023396Y049448D01*
X023432Y049418D01*
X023437Y049373D01*
X023407Y049337D01*
X023362Y049332D01*
X028259Y048238D02*
X028203Y048182D01*
X028085Y048327D01*
X028104Y048509D01*
X028249Y048627D01*
X028431Y048608D01*
X028549Y048463D01*
X028530Y048281D01*
X028385Y048163D01*
X028203Y048182D01*
X028246Y048262D01*
X028172Y048353D01*
X028184Y048466D01*
X028275Y048540D01*
X028388Y048528D01*
X028462Y048437D01*
X028450Y048324D01*
X028359Y048250D01*
X028246Y048262D01*
X028289Y048342D01*
X028259Y048378D01*
X028264Y048423D01*
X028300Y048453D01*
X028345Y048448D01*
X028375Y048412D01*
X028370Y048367D01*
X028334Y048337D01*
X028289Y048342D01*
X028363Y049233D02*
X028307Y049177D01*
X028189Y049322D01*
X028208Y049504D01*
X028353Y049622D01*
X028535Y049603D01*
X028653Y049458D01*
X028634Y049276D01*
X028489Y049158D01*
X028307Y049177D01*
X028350Y049257D01*
X028276Y049348D01*
X028288Y049461D01*
X028379Y049535D01*
X028492Y049523D01*
X028566Y049432D01*
X028554Y049319D01*
X028463Y049245D01*
X028350Y049257D01*
X028393Y049337D01*
X028363Y049373D01*
X028368Y049418D01*
X028404Y049448D01*
X028449Y049443D01*
X028479Y049407D01*
X028474Y049362D01*
X028438Y049332D01*
X028393Y049337D01*
X030627Y047874D02*
X030571Y047818D01*
X030469Y047974D01*
X030508Y048153D01*
X030664Y048255D01*
X030843Y048216D01*
X030945Y048060D01*
X030906Y047881D01*
X030750Y047779D01*
X030571Y047818D01*
X030623Y047892D01*
X030559Y047991D01*
X030582Y048101D01*
X030681Y048165D01*
X030791Y048142D01*
X030855Y048043D01*
X030832Y047933D01*
X030733Y047869D01*
X030623Y047892D01*
X030673Y047968D01*
X030648Y048007D01*
X030658Y048051D01*
X030697Y048076D01*
X030741Y048066D01*
X030766Y048027D01*
X030756Y047983D01*
X030717Y047958D01*
X030673Y047968D01*
X030835Y048852D02*
X030779Y048796D01*
X030677Y048952D01*
X030716Y049131D01*
X030872Y049233D01*
X031051Y049194D01*
X031153Y049038D01*
X031114Y048859D01*
X030958Y048757D01*
X030779Y048796D01*
X030831Y048870D01*
X030767Y048969D01*
X030790Y049079D01*
X030889Y049143D01*
X030999Y049120D01*
X031063Y049021D01*
X031040Y048911D01*
X030941Y048847D01*
X030831Y048870D01*
X030881Y048946D01*
X030856Y048985D01*
X030866Y049029D01*
X030905Y049054D01*
X030949Y049044D01*
X030974Y049005D01*
X030964Y048961D01*
X030925Y048936D01*
X030881Y048946D01*
X032945Y047262D02*
X032889Y047206D01*
X032804Y047372D01*
X032861Y047546D01*
X033027Y047631D01*
X033201Y047574D01*
X033286Y047408D01*
X033229Y047234D01*
X033063Y047149D01*
X032889Y047206D01*
X032948Y047275D01*
X032895Y047380D01*
X032930Y047487D01*
X033035Y047540D01*
X033142Y047505D01*
X033195Y047400D01*
X033160Y047293D01*
X033055Y047240D01*
X032948Y047275D01*
X033006Y047344D01*
X032985Y047386D01*
X032999Y047429D01*
X033041Y047450D01*
X033084Y047436D01*
X033105Y047394D01*
X033091Y047351D01*
X033049Y047330D01*
X033006Y047344D01*
X033254Y048213D02*
X033198Y048157D01*
X033113Y048323D01*
X033170Y048497D01*
X033336Y048582D01*
X033510Y048525D01*
X033595Y048359D01*
X033538Y048185D01*
X033372Y048100D01*
X033198Y048157D01*
X033257Y048226D01*
X033204Y048331D01*
X033239Y048438D01*
X033344Y048491D01*
X033451Y048456D01*
X033504Y048351D01*
X033469Y048244D01*
X033364Y048191D01*
X033257Y048226D01*
X033315Y048295D01*
X033294Y048337D01*
X033308Y048380D01*
X033350Y048401D01*
X033393Y048387D01*
X033414Y048345D01*
X033400Y048302D01*
X033358Y048281D01*
X033315Y048295D01*
X035186Y046412D02*
X035130Y046356D01*
X035063Y046530D01*
X035138Y046698D01*
X035312Y046765D01*
X035480Y046690D01*
X035547Y046516D01*
X035472Y046348D01*
X035298Y046281D01*
X035130Y046356D01*
X035196Y046419D01*
X035154Y046527D01*
X035201Y046632D01*
X035309Y046674D01*
X035414Y046627D01*
X035456Y046519D01*
X035409Y046414D01*
X035301Y046372D01*
X035196Y046419D01*
X035262Y046482D01*
X035245Y046524D01*
X035264Y046566D01*
X035306Y046583D01*
X035348Y046564D01*
X035365Y046522D01*
X035346Y046480D01*
X035304Y046463D01*
X035262Y046482D01*
X035592Y047326D02*
X035536Y047270D01*
X035469Y047444D01*
X035544Y047612D01*
X035718Y047679D01*
X035886Y047604D01*
X035953Y047430D01*
X035878Y047262D01*
X035704Y047195D01*
X035536Y047270D01*
X035602Y047333D01*
X035560Y047441D01*
X035607Y047546D01*
X035715Y047588D01*
X035820Y047541D01*
X035862Y047433D01*
X035815Y047328D01*
X035707Y047286D01*
X035602Y047333D01*
X035668Y047396D01*
X035651Y047438D01*
X035670Y047480D01*
X035712Y047497D01*
X035754Y047478D01*
X035771Y047436D01*
X035752Y047394D01*
X035710Y047377D01*
X035668Y047396D01*
X037826Y046199D02*
X037770Y046143D01*
X037722Y046322D01*
X037814Y046481D01*
X037993Y046529D01*
X038152Y046437D01*
X038200Y046258D01*
X038108Y046099D01*
X037929Y046051D01*
X037770Y046143D01*
X037842Y046198D01*
X037812Y046310D01*
X037869Y046409D01*
X037981Y046439D01*
X038080Y046382D01*
X038110Y046270D01*
X038053Y046171D01*
X037941Y046141D01*
X037842Y046198D01*
X037914Y046254D01*
X037902Y046298D01*
X037925Y046337D01*
X037969Y046349D01*
X038008Y046326D01*
X038020Y046282D01*
X037997Y046243D01*
X037953Y046231D01*
X037914Y046254D01*
X037326Y045333D02*
X037270Y045277D01*
X037222Y045456D01*
X037314Y045615D01*
X037493Y045663D01*
X037652Y045571D01*
X037700Y045392D01*
X037608Y045233D01*
X037429Y045185D01*
X037270Y045277D01*
X037342Y045332D01*
X037312Y045444D01*
X037369Y045543D01*
X037481Y045573D01*
X037580Y045516D01*
X037610Y045404D01*
X037553Y045305D01*
X037441Y045275D01*
X037342Y045332D01*
X037414Y045388D01*
X037402Y045432D01*
X037425Y045471D01*
X037469Y045483D01*
X037508Y045460D01*
X037520Y045416D01*
X037497Y045377D01*
X037453Y045365D01*
X037414Y045388D01*
X039341Y044035D02*
X039285Y043979D01*
X039256Y044163D01*
X039364Y044312D01*
X039548Y044341D01*
X039697Y044233D01*
X039726Y044049D01*
X039618Y043900D01*
X039434Y043871D01*
X039285Y043979D01*
X039363Y044027D01*
X039345Y044142D01*
X039412Y044234D01*
X039527Y044252D01*
X039619Y044185D01*
X039637Y044070D01*
X039570Y043978D01*
X039455Y043960D01*
X039363Y044027D01*
X039440Y044075D01*
X039433Y044120D01*
X039460Y044157D01*
X039505Y044164D01*
X039542Y044137D01*
X039549Y044092D01*
X039522Y044055D01*
X039477Y044048D01*
X039440Y044075D01*
X039929Y044844D02*
X039873Y044788D01*
X039844Y044972D01*
X039952Y045121D01*
X040136Y045150D01*
X040285Y045042D01*
X040314Y044858D01*
X040206Y044709D01*
X040022Y044680D01*
X039873Y044788D01*
X039951Y044836D01*
X039933Y044951D01*
X040000Y045043D01*
X040115Y045061D01*
X040207Y044994D01*
X040225Y044879D01*
X040158Y044787D01*
X040043Y044769D01*
X039951Y044836D01*
X040028Y044884D01*
X040021Y044929D01*
X040048Y044966D01*
X040093Y044973D01*
X040130Y044946D01*
X040137Y044901D01*
X040110Y044864D01*
X040065Y044857D01*
X040028Y044884D01*
X041879Y043278D02*
X041823Y043222D01*
X041813Y043407D01*
X041937Y043544D01*
X042122Y043554D01*
X042259Y043430D01*
X042269Y043245D01*
X042145Y043108D01*
X041960Y043098D01*
X041823Y043222D01*
X041905Y043261D01*
X041899Y043377D01*
X041976Y043462D01*
X042092Y043468D01*
X042177Y043391D01*
X042183Y043275D01*
X042106Y043190D01*
X041990Y043184D01*
X041905Y043261D01*
X041987Y043300D01*
X041984Y043346D01*
X042015Y043380D01*
X042061Y043383D01*
X042095Y043352D01*
X042098Y043306D01*
X042067Y043272D01*
X042021Y043269D01*
X041987Y043300D01*
X041210Y042535D02*
X041154Y042479D01*
X041144Y042664D01*
X041268Y042801D01*
X041453Y042811D01*
X041590Y042687D01*
X041600Y042502D01*
X041476Y042365D01*
X041291Y042355D01*
X041154Y042479D01*
X041236Y042518D01*
X041230Y042634D01*
X041307Y042719D01*
X041423Y042725D01*
X041508Y042648D01*
X041514Y042532D01*
X041437Y042447D01*
X041321Y042441D01*
X041236Y042518D01*
X041318Y042557D01*
X041315Y042603D01*
X041346Y042637D01*
X041392Y042640D01*
X041426Y042609D01*
X041429Y042563D01*
X041398Y042529D01*
X041352Y042526D01*
X041318Y042557D01*
X042911Y040847D02*
X042855Y040791D01*
X042865Y040976D01*
X043002Y041100D01*
X043187Y041090D01*
X043311Y040953D01*
X043301Y040768D01*
X043164Y040644D01*
X042979Y040654D01*
X042855Y040791D01*
X042941Y040821D01*
X042947Y040937D01*
X043032Y041014D01*
X043148Y041008D01*
X043225Y040923D01*
X043219Y040807D01*
X043134Y040730D01*
X043018Y040736D01*
X042941Y040821D01*
X043026Y040852D01*
X043029Y040898D01*
X043063Y040929D01*
X043109Y040926D01*
X043140Y040892D01*
X043137Y040846D01*
X043103Y040815D01*
X043057Y040818D01*
X043026Y040852D01*
X043654Y041516D02*
X043598Y041460D01*
X043608Y041645D01*
X043745Y041769D01*
X043930Y041759D01*
X044054Y041622D01*
X044044Y041437D01*
X043907Y041313D01*
X043722Y041323D01*
X043598Y041460D01*
X043684Y041490D01*
X043690Y041606D01*
X043775Y041683D01*
X043891Y041677D01*
X043968Y041592D01*
X043962Y041476D01*
X043877Y041399D01*
X043761Y041405D01*
X043684Y041490D01*
X043769Y041521D01*
X043772Y041567D01*
X043806Y041598D01*
X043852Y041595D01*
X043883Y041561D01*
X043880Y041515D01*
X043846Y041484D01*
X043800Y041487D01*
X043769Y041521D01*
X045236Y039578D02*
X045180Y039522D01*
X045209Y039706D01*
X045358Y039814D01*
X045542Y039785D01*
X045650Y039636D01*
X045621Y039452D01*
X045472Y039344D01*
X045288Y039373D01*
X045180Y039522D01*
X045269Y039543D01*
X045287Y039658D01*
X045379Y039725D01*
X045494Y039707D01*
X045561Y039615D01*
X045543Y039500D01*
X045451Y039433D01*
X045336Y039451D01*
X045269Y039543D01*
X045357Y039565D01*
X045364Y039610D01*
X045401Y039637D01*
X045446Y039630D01*
X045473Y039593D01*
X045466Y039548D01*
X045429Y039521D01*
X045384Y039528D01*
X045357Y039565D01*
X044427Y038990D02*
X044371Y038934D01*
X044400Y039118D01*
X044549Y039226D01*
X044733Y039197D01*
X044841Y039048D01*
X044812Y038864D01*
X044663Y038756D01*
X044479Y038785D01*
X044371Y038934D01*
X044460Y038955D01*
X044478Y039070D01*
X044570Y039137D01*
X044685Y039119D01*
X044752Y039027D01*
X044734Y038912D01*
X044642Y038845D01*
X044527Y038863D01*
X044460Y038955D01*
X044548Y038977D01*
X044555Y039022D01*
X044592Y039049D01*
X044637Y039042D01*
X044664Y039005D01*
X044657Y038960D01*
X044620Y038933D01*
X044575Y038940D01*
X044548Y038977D01*
X045741Y036985D02*
X045685Y036929D01*
X045733Y037108D01*
X045892Y037200D01*
X046071Y037152D01*
X046163Y036993D01*
X046115Y036814D01*
X045956Y036722D01*
X045777Y036770D01*
X045685Y036929D01*
X045775Y036941D01*
X045805Y037053D01*
X045904Y037110D01*
X046016Y037080D01*
X046073Y036981D01*
X046043Y036869D01*
X045944Y036812D01*
X045832Y036842D01*
X045775Y036941D01*
X045865Y036953D01*
X045877Y036997D01*
X045916Y037020D01*
X045960Y037008D01*
X045983Y036969D01*
X045971Y036925D01*
X045932Y036902D01*
X045888Y036914D01*
X045865Y036953D01*
X046607Y037485D02*
X046551Y037429D01*
X046599Y037608D01*
X046758Y037700D01*
X046937Y037652D01*
X047029Y037493D01*
X046981Y037314D01*
X046822Y037222D01*
X046643Y037270D01*
X046551Y037429D01*
X046641Y037441D01*
X046671Y037553D01*
X046770Y037610D01*
X046882Y037580D01*
X046939Y037481D01*
X046909Y037369D01*
X046810Y037312D01*
X046698Y037342D01*
X046641Y037441D01*
X046731Y037453D01*
X046743Y037497D01*
X046782Y037520D01*
X046826Y037508D01*
X046849Y037469D01*
X046837Y037425D01*
X046798Y037402D01*
X046754Y037414D01*
X046731Y037453D01*
X047751Y035260D02*
X047695Y035204D01*
X047762Y035378D01*
X047930Y035453D01*
X048104Y035386D01*
X048179Y035218D01*
X048112Y035044D01*
X047944Y034969D01*
X047770Y035036D01*
X047695Y035204D01*
X047786Y035207D01*
X047828Y035315D01*
X047933Y035362D01*
X048041Y035320D01*
X048088Y035215D01*
X048046Y035107D01*
X047941Y035060D01*
X047833Y035102D01*
X047786Y035207D01*
X047877Y035210D01*
X047894Y035252D01*
X047936Y035271D01*
X047978Y035254D01*
X047997Y035212D01*
X047980Y035170D01*
X047938Y035151D01*
X047896Y035168D01*
X047877Y035210D01*
X046837Y034854D02*
X046781Y034798D01*
X046848Y034972D01*
X047016Y035047D01*
X047190Y034980D01*
X047265Y034812D01*
X047198Y034638D01*
X047030Y034563D01*
X046856Y034630D01*
X046781Y034798D01*
X046872Y034801D01*
X046914Y034909D01*
X047019Y034956D01*
X047127Y034914D01*
X047174Y034809D01*
X047132Y034701D01*
X047027Y034654D01*
X046919Y034696D01*
X046872Y034801D01*
X046963Y034804D01*
X046980Y034846D01*
X047022Y034865D01*
X047064Y034848D01*
X047083Y034806D01*
X047066Y034764D01*
X047024Y034745D01*
X046982Y034762D01*
X046963Y034804D01*
X047705Y032507D02*
X047649Y032563D01*
X047734Y032729D01*
X047908Y032786D01*
X048074Y032701D01*
X048131Y032527D01*
X048046Y032361D01*
X047872Y032304D01*
X047706Y032389D01*
X047649Y032563D01*
X047740Y032555D01*
X047793Y032660D01*
X047900Y032695D01*
X048005Y032642D01*
X048040Y032535D01*
X047987Y032430D01*
X047880Y032395D01*
X047775Y032448D01*
X047740Y032555D01*
X047830Y032549D01*
X047851Y032591D01*
X047894Y032605D01*
X047936Y032584D01*
X047950Y032541D01*
X047929Y032499D01*
X047886Y032485D01*
X047844Y032506D01*
X047830Y032549D01*
X048656Y032816D02*
X048600Y032872D01*
X048685Y033038D01*
X048859Y033095D01*
X049025Y033010D01*
X049082Y032836D01*
X048997Y032670D01*
X048823Y032613D01*
X048657Y032698D01*
X048600Y032872D01*
X048691Y032864D01*
X048744Y032969D01*
X048851Y033004D01*
X048956Y032951D01*
X048991Y032844D01*
X048938Y032739D01*
X048831Y032704D01*
X048726Y032757D01*
X048691Y032864D01*
X048781Y032858D01*
X048802Y032900D01*
X048845Y032914D01*
X048887Y032893D01*
X048901Y032850D01*
X048880Y032808D01*
X048837Y032794D01*
X048795Y032815D01*
X048781Y032858D01*
X049313Y030402D02*
X049257Y030458D01*
X049359Y030614D01*
X049538Y030653D01*
X049694Y030551D01*
X049733Y030372D01*
X049631Y030216D01*
X049452Y030177D01*
X049296Y030279D01*
X049257Y030458D01*
X049347Y030441D01*
X049411Y030540D01*
X049521Y030563D01*
X049620Y030499D01*
X049643Y030389D01*
X049579Y030290D01*
X049469Y030267D01*
X049370Y030331D01*
X049347Y030441D01*
X049436Y030425D01*
X049461Y030464D01*
X049505Y030474D01*
X049544Y030449D01*
X049554Y030405D01*
X049529Y030366D01*
X049485Y030356D01*
X049446Y030381D01*
X049436Y030425D01*
X048335Y030194D02*
X048279Y030250D01*
X048381Y030406D01*
X048560Y030445D01*
X048716Y030343D01*
X048755Y030164D01*
X048653Y030008D01*
X048474Y029969D01*
X048318Y030071D01*
X048279Y030250D01*
X048369Y030233D01*
X048433Y030332D01*
X048543Y030355D01*
X048642Y030291D01*
X048665Y030181D01*
X048601Y030082D01*
X048491Y030059D01*
X048392Y030123D01*
X048369Y030233D01*
X048458Y030217D01*
X048483Y030256D01*
X048527Y030266D01*
X048566Y030241D01*
X048576Y030197D01*
X048551Y030158D01*
X048507Y030148D01*
X048468Y030173D01*
X048458Y030217D01*
X049714Y027933D02*
X049658Y027989D01*
X049776Y028134D01*
X049958Y028153D01*
X050103Y028035D01*
X050122Y027853D01*
X050004Y027708D01*
X049822Y027689D01*
X049677Y027807D01*
X049658Y027989D01*
X049745Y027963D01*
X049819Y028054D01*
X049932Y028066D01*
X050023Y027992D01*
X050035Y027879D01*
X049961Y027788D01*
X049848Y027776D01*
X049757Y027850D01*
X049745Y027963D01*
X049832Y027938D01*
X049862Y027974D01*
X049907Y027979D01*
X049943Y027949D01*
X049948Y027904D01*
X049918Y027868D01*
X049873Y027863D01*
X049837Y027893D01*
X049832Y027938D01*
X048719Y027829D02*
X048663Y027885D01*
X048781Y028030D01*
X048963Y028049D01*
X049108Y027931D01*
X049127Y027749D01*
X049009Y027604D01*
X048827Y027585D01*
X048682Y027703D01*
X048663Y027885D01*
X048750Y027859D01*
X048824Y027950D01*
X048937Y027962D01*
X049028Y027888D01*
X049040Y027775D01*
X048966Y027684D01*
X048853Y027672D01*
X048762Y027746D01*
X048750Y027859D01*
X048837Y027834D01*
X048867Y027870D01*
X048912Y027875D01*
X048948Y027845D01*
X048953Y027800D01*
X048923Y027764D01*
X048878Y027759D01*
X048842Y027789D01*
X048837Y027834D01*
X048738Y023041D02*
X048682Y023097D01*
X048827Y023215D01*
X049009Y023196D01*
X049127Y023051D01*
X049108Y022869D01*
X048963Y022751D01*
X048781Y022770D01*
X048663Y022915D01*
X048682Y023097D01*
X048762Y023054D01*
X048853Y023128D01*
X048966Y023116D01*
X049040Y023025D01*
X049028Y022912D01*
X048937Y022838D01*
X048824Y022850D01*
X048750Y022941D01*
X048762Y023054D01*
X048842Y023011D01*
X048878Y023041D01*
X048923Y023036D01*
X048953Y023000D01*
X048948Y022955D01*
X048912Y022925D01*
X048867Y022930D01*
X048837Y022966D01*
X048842Y023011D01*
X049733Y022937D02*
X049677Y022993D01*
X049822Y023111D01*
X050004Y023092D01*
X050122Y022947D01*
X050103Y022765D01*
X049958Y022647D01*
X049776Y022666D01*
X049658Y022811D01*
X049677Y022993D01*
X049757Y022950D01*
X049848Y023024D01*
X049961Y023012D01*
X050035Y022921D01*
X050023Y022808D01*
X049932Y022734D01*
X049819Y022746D01*
X049745Y022837D01*
X049757Y022950D01*
X049837Y022907D01*
X049873Y022937D01*
X049918Y022932D01*
X049948Y022896D01*
X049943Y022851D01*
X049907Y022821D01*
X049862Y022826D01*
X049832Y022862D01*
X049837Y022907D01*
X049352Y020465D02*
X049296Y020521D01*
X049452Y020623D01*
X049631Y020584D01*
X049733Y020428D01*
X049694Y020249D01*
X049538Y020147D01*
X049359Y020186D01*
X049257Y020342D01*
X049296Y020521D01*
X049370Y020469D01*
X049469Y020533D01*
X049579Y020510D01*
X049643Y020411D01*
X049620Y020301D01*
X049521Y020237D01*
X049411Y020260D01*
X049347Y020359D01*
X049370Y020469D01*
X049446Y020419D01*
X049485Y020444D01*
X049529Y020434D01*
X049554Y020395D01*
X049544Y020351D01*
X049505Y020326D01*
X049461Y020336D01*
X049436Y020375D01*
X049446Y020419D01*
X048374Y020673D02*
X048318Y020729D01*
X048474Y020831D01*
X048653Y020792D01*
X048755Y020636D01*
X048716Y020457D01*
X048560Y020355D01*
X048381Y020394D01*
X048279Y020550D01*
X048318Y020729D01*
X048392Y020677D01*
X048491Y020741D01*
X048601Y020718D01*
X048665Y020619D01*
X048642Y020509D01*
X048543Y020445D01*
X048433Y020468D01*
X048369Y020567D01*
X048392Y020677D01*
X048468Y020627D01*
X048507Y020652D01*
X048551Y020642D01*
X048576Y020603D01*
X048566Y020559D01*
X048527Y020534D01*
X048483Y020544D01*
X048458Y020583D01*
X048468Y020627D01*
X047762Y018355D02*
X047706Y018411D01*
X047872Y018496D01*
X048046Y018439D01*
X048131Y018273D01*
X048074Y018099D01*
X047908Y018014D01*
X047734Y018071D01*
X047649Y018237D01*
X047706Y018411D01*
X047775Y018352D01*
X047880Y018405D01*
X047987Y018370D01*
X048040Y018265D01*
X048005Y018158D01*
X047900Y018105D01*
X047793Y018140D01*
X047740Y018245D01*
X047775Y018352D01*
X047844Y018294D01*
X047886Y018315D01*
X047929Y018301D01*
X047950Y018259D01*
X047936Y018216D01*
X047894Y018195D01*
X047851Y018209D01*
X047830Y018251D01*
X047844Y018294D01*
X048713Y018046D02*
X048657Y018102D01*
X048823Y018187D01*
X048997Y018130D01*
X049082Y017964D01*
X049025Y017790D01*
X048859Y017705D01*
X048685Y017762D01*
X048600Y017928D01*
X048657Y018102D01*
X048726Y018043D01*
X048831Y018096D01*
X048938Y018061D01*
X048991Y017956D01*
X048956Y017849D01*
X048851Y017796D01*
X048744Y017831D01*
X048691Y017936D01*
X048726Y018043D01*
X048795Y017985D01*
X048837Y018006D01*
X048880Y017992D01*
X048901Y017950D01*
X048887Y017907D01*
X048845Y017886D01*
X048802Y017900D01*
X048781Y017942D01*
X048795Y017985D01*
X047826Y015708D02*
X047770Y015764D01*
X047944Y015831D01*
X048112Y015756D01*
X048179Y015582D01*
X048104Y015414D01*
X047930Y015347D01*
X047762Y015422D01*
X047695Y015596D01*
X047770Y015764D01*
X047833Y015698D01*
X047941Y015740D01*
X048046Y015693D01*
X048088Y015585D01*
X048041Y015480D01*
X047933Y015438D01*
X047828Y015485D01*
X047786Y015593D01*
X047833Y015698D01*
X047896Y015632D01*
X047938Y015649D01*
X047980Y015630D01*
X047997Y015588D01*
X047978Y015546D01*
X047936Y015529D01*
X047894Y015548D01*
X047877Y015590D01*
X047896Y015632D01*
X046912Y016114D02*
X046856Y016170D01*
X047030Y016237D01*
X047198Y016162D01*
X047265Y015988D01*
X047190Y015820D01*
X047016Y015753D01*
X046848Y015828D01*
X046781Y016002D01*
X046856Y016170D01*
X046919Y016104D01*
X047027Y016146D01*
X047132Y016099D01*
X047174Y015991D01*
X047127Y015886D01*
X047019Y015844D01*
X046914Y015891D01*
X046872Y015999D01*
X046919Y016104D01*
X046982Y016038D01*
X047024Y016055D01*
X047066Y016036D01*
X047083Y015994D01*
X047064Y015952D01*
X047022Y015935D01*
X046980Y015954D01*
X046963Y015996D01*
X046982Y016038D01*
X045833Y013974D02*
X045777Y014030D01*
X045956Y014078D01*
X046115Y013986D01*
X046163Y013807D01*
X046071Y013648D01*
X045892Y013600D01*
X045733Y013692D01*
X045685Y013871D01*
X045777Y014030D01*
X045832Y013958D01*
X045944Y013988D01*
X046043Y013931D01*
X046073Y013819D01*
X046016Y013720D01*
X045904Y013690D01*
X045805Y013747D01*
X045775Y013859D01*
X045832Y013958D01*
X045888Y013886D01*
X045932Y013898D01*
X045971Y013875D01*
X045983Y013831D01*
X045960Y013792D01*
X045916Y013780D01*
X045877Y013803D01*
X045865Y013847D01*
X045888Y013886D01*
X046699Y013474D02*
X046643Y013530D01*
X046822Y013578D01*
X046981Y013486D01*
X047029Y013307D01*
X046937Y013148D01*
X046758Y013100D01*
X046599Y013192D01*
X046551Y013371D01*
X046643Y013530D01*
X046698Y013458D01*
X046810Y013488D01*
X046909Y013431D01*
X046939Y013319D01*
X046882Y013220D01*
X046770Y013190D01*
X046671Y013247D01*
X046641Y013359D01*
X046698Y013458D01*
X046754Y013386D01*
X046798Y013398D01*
X046837Y013375D01*
X046849Y013331D01*
X046826Y013292D01*
X046782Y013280D01*
X046743Y013303D01*
X046731Y013347D01*
X046754Y013386D01*
X045344Y011371D02*
X045288Y011427D01*
X045472Y011456D01*
X045621Y011348D01*
X045650Y011164D01*
X045542Y011015D01*
X045358Y010986D01*
X045209Y011094D01*
X045180Y011278D01*
X045288Y011427D01*
X045336Y011349D01*
X045451Y011367D01*
X045543Y011300D01*
X045561Y011185D01*
X045494Y011093D01*
X045379Y011075D01*
X045287Y011142D01*
X045269Y011257D01*
X045336Y011349D01*
X045384Y011272D01*
X045429Y011279D01*
X045466Y011252D01*
X045473Y011207D01*
X045446Y011170D01*
X045401Y011163D01*
X045364Y011190D01*
X045357Y011235D01*
X045384Y011272D01*
X044535Y011959D02*
X044479Y012015D01*
X044663Y012044D01*
X044812Y011936D01*
X044841Y011752D01*
X044733Y011603D01*
X044549Y011574D01*
X044400Y011682D01*
X044371Y011866D01*
X044479Y012015D01*
X044527Y011937D01*
X044642Y011955D01*
X044734Y011888D01*
X044752Y011773D01*
X044685Y011681D01*
X044570Y011663D01*
X044478Y011730D01*
X044460Y011845D01*
X044527Y011937D01*
X044575Y011860D01*
X044620Y011867D01*
X044657Y011840D01*
X044664Y011795D01*
X044637Y011758D01*
X044592Y011751D01*
X044555Y011778D01*
X044548Y011823D01*
X044575Y011860D01*
X043035Y010090D02*
X042979Y010146D01*
X043164Y010156D01*
X043301Y010032D01*
X043311Y009847D01*
X043187Y009710D01*
X043002Y009700D01*
X042865Y009824D01*
X042855Y010009D01*
X042979Y010146D01*
X043018Y010064D01*
X043134Y010070D01*
X043219Y009993D01*
X043225Y009877D01*
X043148Y009792D01*
X043032Y009786D01*
X042947Y009863D01*
X042941Y009979D01*
X043018Y010064D01*
X043057Y009982D01*
X043103Y009985D01*
X043137Y009954D01*
X043140Y009908D01*
X043109Y009874D01*
X043063Y009871D01*
X043029Y009902D01*
X043026Y009948D01*
X043057Y009982D01*
X043778Y009421D02*
X043722Y009477D01*
X043907Y009487D01*
X044044Y009363D01*
X044054Y009178D01*
X043930Y009041D01*
X043745Y009031D01*
X043608Y009155D01*
X043598Y009340D01*
X043722Y009477D01*
X043761Y009395D01*
X043877Y009401D01*
X043962Y009324D01*
X043968Y009208D01*
X043891Y009123D01*
X043775Y009117D01*
X043690Y009194D01*
X043684Y009310D01*
X043761Y009395D01*
X043800Y009313D01*
X043846Y009316D01*
X043880Y009285D01*
X043883Y009239D01*
X043852Y009205D01*
X043806Y009202D01*
X043772Y009233D01*
X043769Y009279D01*
X043800Y009313D01*
X042016Y007646D02*
X041960Y007702D01*
X042145Y007692D01*
X042269Y007555D01*
X042259Y007370D01*
X042122Y007246D01*
X041937Y007256D01*
X041813Y007393D01*
X041823Y007578D01*
X041960Y007702D01*
X041990Y007616D01*
X042106Y007610D01*
X042183Y007525D01*
X042177Y007409D01*
X042092Y007332D01*
X041976Y007338D01*
X041899Y007423D01*
X041905Y007539D01*
X041990Y007616D01*
X042021Y007531D01*
X042067Y007528D01*
X042098Y007494D01*
X042095Y007448D01*
X042061Y007417D01*
X042015Y007420D01*
X041984Y007454D01*
X041987Y007500D01*
X042021Y007531D01*
X041347Y008389D02*
X041291Y008445D01*
X041476Y008435D01*
X041600Y008298D01*
X041590Y008113D01*
X041453Y007989D01*
X041268Y007999D01*
X041144Y008136D01*
X041154Y008321D01*
X041291Y008445D01*
X041321Y008359D01*
X041437Y008353D01*
X041514Y008268D01*
X041508Y008152D01*
X041423Y008075D01*
X041307Y008081D01*
X041230Y008166D01*
X041236Y008282D01*
X041321Y008359D01*
X041352Y008274D01*
X041398Y008271D01*
X041429Y008237D01*
X041426Y008191D01*
X041392Y008160D01*
X041346Y008163D01*
X041315Y008197D01*
X041318Y008243D01*
X041352Y008274D01*
X039490Y006873D02*
X039434Y006929D01*
X039618Y006900D01*
X039726Y006751D01*
X039697Y006567D01*
X039548Y006459D01*
X039364Y006488D01*
X039256Y006637D01*
X039285Y006821D01*
X039434Y006929D01*
X039455Y006840D01*
X039570Y006822D01*
X039637Y006730D01*
X039619Y006615D01*
X039527Y006548D01*
X039412Y006566D01*
X039345Y006658D01*
X039363Y006773D01*
X039455Y006840D01*
X039477Y006752D01*
X039522Y006745D01*
X039549Y006708D01*
X039542Y006663D01*
X039505Y006636D01*
X039460Y006643D01*
X039433Y006680D01*
X039440Y006725D01*
X039477Y006752D01*
X040078Y006064D02*
X040022Y006120D01*
X040206Y006091D01*
X040314Y005942D01*
X040285Y005758D01*
X040136Y005650D01*
X039952Y005679D01*
X039844Y005828D01*
X039873Y006012D01*
X040022Y006120D01*
X040043Y006031D01*
X040158Y006013D01*
X040225Y005921D01*
X040207Y005806D01*
X040115Y005739D01*
X040000Y005757D01*
X039933Y005849D01*
X039951Y005964D01*
X040043Y006031D01*
X040065Y005943D01*
X040110Y005936D01*
X040137Y005899D01*
X040130Y005854D01*
X040093Y005827D01*
X040048Y005834D01*
X040021Y005871D01*
X040028Y005916D01*
X040065Y005943D01*
X037985Y004693D02*
X037929Y004749D01*
X038108Y004701D01*
X038200Y004542D01*
X038152Y004363D01*
X037993Y004271D01*
X037814Y004319D01*
X037722Y004478D01*
X037770Y004657D01*
X037929Y004749D01*
X037941Y004659D01*
X038053Y004629D01*
X038110Y004530D01*
X038080Y004418D01*
X037981Y004361D01*
X037869Y004391D01*
X037812Y004490D01*
X037842Y004602D01*
X037941Y004659D01*
X037953Y004569D01*
X037997Y004557D01*
X038020Y004518D01*
X038008Y004474D01*
X037969Y004451D01*
X037925Y004463D01*
X037902Y004502D01*
X037914Y004546D01*
X037953Y004569D01*
X037485Y005559D02*
X037429Y005615D01*
X037608Y005567D01*
X037700Y005408D01*
X037652Y005229D01*
X037493Y005137D01*
X037314Y005185D01*
X037222Y005344D01*
X037270Y005523D01*
X037429Y005615D01*
X037441Y005525D01*
X037553Y005495D01*
X037610Y005396D01*
X037580Y005284D01*
X037481Y005227D01*
X037369Y005257D01*
X037312Y005356D01*
X037342Y005468D01*
X037441Y005525D01*
X037453Y005435D01*
X037497Y005423D01*
X037520Y005384D01*
X037508Y005340D01*
X037469Y005317D01*
X037425Y005329D01*
X037402Y005368D01*
X037414Y005412D01*
X037453Y005435D01*
X035760Y003549D02*
X035704Y003605D01*
X035878Y003538D01*
X035953Y003370D01*
X035886Y003196D01*
X035718Y003121D01*
X035544Y003188D01*
X035469Y003356D01*
X035536Y003530D01*
X035704Y003605D01*
X035707Y003514D01*
X035815Y003472D01*
X035862Y003367D01*
X035820Y003259D01*
X035715Y003212D01*
X035607Y003254D01*
X035560Y003359D01*
X035602Y003467D01*
X035707Y003514D01*
X035710Y003423D01*
X035752Y003406D01*
X035771Y003364D01*
X035754Y003322D01*
X035712Y003303D01*
X035670Y003320D01*
X035651Y003362D01*
X035668Y003404D01*
X035710Y003423D01*
X035354Y004463D02*
X035298Y004519D01*
X035472Y004452D01*
X035547Y004284D01*
X035480Y004110D01*
X035312Y004035D01*
X035138Y004102D01*
X035063Y004270D01*
X035130Y004444D01*
X035298Y004519D01*
X035301Y004428D01*
X035409Y004386D01*
X035456Y004281D01*
X035414Y004173D01*
X035309Y004126D01*
X035201Y004168D01*
X035154Y004273D01*
X035196Y004381D01*
X035301Y004428D01*
X035304Y004337D01*
X035346Y004320D01*
X035365Y004278D01*
X035348Y004236D01*
X035306Y004217D01*
X035264Y004234D01*
X035245Y004276D01*
X035262Y004318D01*
X035304Y004337D01*
X033007Y003595D02*
X033063Y003651D01*
X033229Y003566D01*
X033286Y003392D01*
X033201Y003226D01*
X033027Y003169D01*
X032861Y003254D01*
X032804Y003428D01*
X032889Y003594D01*
X033063Y003651D01*
X033055Y003560D01*
X033160Y003507D01*
X033195Y003400D01*
X033142Y003295D01*
X033035Y003260D01*
X032930Y003313D01*
X032895Y003420D01*
X032948Y003525D01*
X033055Y003560D01*
X033049Y003470D01*
X033091Y003449D01*
X033105Y003406D01*
X033084Y003364D01*
X033041Y003350D01*
X032999Y003371D01*
X032985Y003414D01*
X033006Y003456D01*
X033049Y003470D01*
X033316Y002644D02*
X033372Y002700D01*
X033538Y002615D01*
X033595Y002441D01*
X033510Y002275D01*
X033336Y002218D01*
X033170Y002303D01*
X033113Y002477D01*
X033198Y002643D01*
X033372Y002700D01*
X033364Y002609D01*
X033469Y002556D01*
X033504Y002449D01*
X033451Y002344D01*
X033344Y002309D01*
X033239Y002362D01*
X033204Y002469D01*
X033257Y002574D01*
X033364Y002609D01*
X033358Y002519D01*
X033400Y002498D01*
X033414Y002455D01*
X033393Y002413D01*
X033350Y002399D01*
X033308Y002420D01*
X033294Y002463D01*
X033315Y002505D01*
X033358Y002519D01*
X030902Y001987D02*
X030958Y002043D01*
X031114Y001941D01*
X031153Y001762D01*
X031051Y001606D01*
X030872Y001567D01*
X030716Y001669D01*
X030677Y001848D01*
X030779Y002004D01*
X030958Y002043D01*
X030941Y001953D01*
X031040Y001889D01*
X031063Y001779D01*
X030999Y001680D01*
X030889Y001657D01*
X030790Y001721D01*
X030767Y001831D01*
X030831Y001930D01*
X030941Y001953D01*
X030925Y001864D01*
X030964Y001839D01*
X030974Y001795D01*
X030949Y001756D01*
X030905Y001746D01*
X030866Y001771D01*
X030856Y001815D01*
X030881Y001854D01*
X030925Y001864D01*
X030694Y002965D02*
X030750Y003021D01*
X030906Y002919D01*
X030945Y002740D01*
X030843Y002584D01*
X030664Y002545D01*
X030508Y002647D01*
X030469Y002826D01*
X030571Y002982D01*
X030750Y003021D01*
X030733Y002931D01*
X030832Y002867D01*
X030855Y002757D01*
X030791Y002658D01*
X030681Y002635D01*
X030582Y002699D01*
X030559Y002809D01*
X030623Y002908D01*
X030733Y002931D01*
X030717Y002842D01*
X030756Y002817D01*
X030766Y002773D01*
X030741Y002734D01*
X030697Y002724D01*
X030658Y002749D01*
X030648Y002793D01*
X030673Y002832D01*
X030717Y002842D01*
X028329Y002581D02*
X028385Y002637D01*
X028530Y002519D01*
X028549Y002337D01*
X028431Y002192D01*
X028249Y002173D01*
X028104Y002291D01*
X028085Y002473D01*
X028203Y002618D01*
X028385Y002637D01*
X028359Y002550D01*
X028450Y002476D01*
X028462Y002363D01*
X028388Y002272D01*
X028275Y002260D01*
X028184Y002334D01*
X028172Y002447D01*
X028246Y002538D01*
X028359Y002550D01*
X028334Y002463D01*
X028370Y002433D01*
X028375Y002388D01*
X028345Y002352D01*
X028300Y002347D01*
X028264Y002377D01*
X028259Y002422D01*
X028289Y002458D01*
X028334Y002463D01*
X028433Y001586D02*
X028489Y001642D01*
X028634Y001524D01*
X028653Y001342D01*
X028535Y001197D01*
X028353Y001178D01*
X028208Y001296D01*
X028189Y001478D01*
X028307Y001623D01*
X028489Y001642D01*
X028463Y001555D01*
X028554Y001481D01*
X028566Y001368D01*
X028492Y001277D01*
X028379Y001265D01*
X028288Y001339D01*
X028276Y001452D01*
X028350Y001543D01*
X028463Y001555D01*
X028438Y001468D01*
X028474Y001438D01*
X028479Y001393D01*
X028449Y001357D01*
X028404Y001352D01*
X028368Y001382D01*
X028363Y001427D01*
X028393Y001463D01*
X028438Y001468D01*
X023541Y002562D02*
X023597Y002618D01*
X023715Y002473D01*
X023696Y002291D01*
X023551Y002173D01*
X023369Y002192D01*
X023251Y002337D01*
X023270Y002519D01*
X023415Y002637D01*
X023597Y002618D01*
X023554Y002538D01*
X023628Y002447D01*
X023616Y002334D01*
X023525Y002260D01*
X023412Y002272D01*
X023338Y002363D01*
X023350Y002476D01*
X023441Y002550D01*
X023554Y002538D01*
X023511Y002458D01*
X023541Y002422D01*
X023536Y002377D01*
X023500Y002347D01*
X023455Y002352D01*
X023425Y002388D01*
X023430Y002433D01*
X023466Y002463D01*
X023511Y002458D01*
X023437Y001567D02*
X023493Y001623D01*
X023611Y001478D01*
X023592Y001296D01*
X023447Y001178D01*
X023265Y001197D01*
X023147Y001342D01*
X023166Y001524D01*
X023311Y001642D01*
X023493Y001623D01*
X023450Y001543D01*
X023524Y001452D01*
X023512Y001339D01*
X023421Y001265D01*
X023308Y001277D01*
X023234Y001368D01*
X023246Y001481D01*
X023337Y001555D01*
X023450Y001543D01*
X023407Y001463D01*
X023437Y001427D01*
X023432Y001382D01*
X023396Y001352D01*
X023351Y001357D01*
X023321Y001393D01*
X023326Y001438D01*
X023362Y001468D01*
X023407Y001463D01*
X021173Y002926D02*
X021229Y002982D01*
X021331Y002826D01*
X021292Y002647D01*
X021136Y002545D01*
X020957Y002584D01*
X020855Y002740D01*
X020894Y002919D01*
X021050Y003021D01*
X021229Y002982D01*
X021177Y002908D01*
X021241Y002809D01*
X021218Y002699D01*
X021119Y002635D01*
X021009Y002658D01*
X020945Y002757D01*
X020968Y002867D01*
X021067Y002931D01*
X021177Y002908D01*
X021127Y002832D01*
X021152Y002793D01*
X021142Y002749D01*
X021103Y002724D01*
X021059Y002734D01*
X021034Y002773D01*
X021044Y002817D01*
X021083Y002842D01*
X021127Y002832D01*
X020965Y001948D02*
X021021Y002004D01*
X021123Y001848D01*
X021084Y001669D01*
X020928Y001567D01*
X020749Y001606D01*
X020647Y001762D01*
X020686Y001941D01*
X020842Y002043D01*
X021021Y002004D01*
X020969Y001930D01*
X021033Y001831D01*
X021010Y001721D01*
X020911Y001657D01*
X020801Y001680D01*
X020737Y001779D01*
X020760Y001889D01*
X020859Y001953D01*
X020969Y001930D01*
X020919Y001854D01*
X020944Y001815D01*
X020934Y001771D01*
X020895Y001746D01*
X020851Y001756D01*
X020826Y001795D01*
X020836Y001839D01*
X020875Y001864D01*
X020919Y001854D01*
X018855Y003538D02*
X018911Y003594D01*
X018996Y003428D01*
X018939Y003254D01*
X018773Y003169D01*
X018599Y003226D01*
X018514Y003392D01*
X018571Y003566D01*
X018737Y003651D01*
X018911Y003594D01*
X018852Y003525D01*
X018905Y003420D01*
X018870Y003313D01*
X018765Y003260D01*
X018658Y003295D01*
X018605Y003400D01*
X018640Y003507D01*
X018745Y003560D01*
X018852Y003525D01*
X018794Y003456D01*
X018815Y003414D01*
X018801Y003371D01*
X018759Y003350D01*
X018716Y003364D01*
X018695Y003406D01*
X018709Y003449D01*
X018751Y003470D01*
X018794Y003456D01*
X018546Y002587D02*
X018602Y002643D01*
X018687Y002477D01*
X018630Y002303D01*
X018464Y002218D01*
X018290Y002275D01*
X018205Y002441D01*
X018262Y002615D01*
X018428Y002700D01*
X018602Y002643D01*
X018543Y002574D01*
X018596Y002469D01*
X018561Y002362D01*
X018456Y002309D01*
X018349Y002344D01*
X018296Y002449D01*
X018331Y002556D01*
X018436Y002609D01*
X018543Y002574D01*
X018485Y002505D01*
X018506Y002463D01*
X018492Y002420D01*
X018450Y002399D01*
X018407Y002413D01*
X018386Y002455D01*
X018400Y002498D01*
X018442Y002519D01*
X018485Y002505D01*
X016614Y004388D02*
X016670Y004444D01*
X016737Y004270D01*
X016662Y004102D01*
X016488Y004035D01*
X016320Y004110D01*
X016253Y004284D01*
X016328Y004452D01*
X016502Y004519D01*
X016670Y004444D01*
X016604Y004381D01*
X016646Y004273D01*
X016599Y004168D01*
X016491Y004126D01*
X016386Y004173D01*
X016344Y004281D01*
X016391Y004386D01*
X016499Y004428D01*
X016604Y004381D01*
X016538Y004318D01*
X016555Y004276D01*
X016536Y004234D01*
X016494Y004217D01*
X016452Y004236D01*
X016435Y004278D01*
X016454Y004320D01*
X016496Y004337D01*
X016538Y004318D01*
X016208Y003474D02*
X016264Y003530D01*
X016331Y003356D01*
X016256Y003188D01*
X016082Y003121D01*
X015914Y003196D01*
X015847Y003370D01*
X015922Y003538D01*
X016096Y003605D01*
X016264Y003530D01*
X016198Y003467D01*
X016240Y003359D01*
X016193Y003254D01*
X016085Y003212D01*
X015980Y003259D01*
X015938Y003367D01*
X015985Y003472D01*
X016093Y003514D01*
X016198Y003467D01*
X016132Y003404D01*
X016149Y003362D01*
X016130Y003320D01*
X016088Y003303D01*
X016046Y003322D01*
X016029Y003364D01*
X016048Y003406D01*
X016090Y003423D01*
X016132Y003404D01*
X014474Y005467D02*
X014530Y005523D01*
X014578Y005344D01*
X014486Y005185D01*
X014307Y005137D01*
X014148Y005229D01*
X014100Y005408D01*
X014192Y005567D01*
X014371Y005615D01*
X014530Y005523D01*
X014458Y005468D01*
X014488Y005356D01*
X014431Y005257D01*
X014319Y005227D01*
X014220Y005284D01*
X014190Y005396D01*
X014247Y005495D01*
X014359Y005525D01*
X014458Y005468D01*
X014386Y005412D01*
X014398Y005368D01*
X014375Y005329D01*
X014331Y005317D01*
X014292Y005340D01*
X014280Y005384D01*
X014303Y005423D01*
X014347Y005435D01*
X014386Y005412D01*
X013974Y004601D02*
X014030Y004657D01*
X014078Y004478D01*
X013986Y004319D01*
X013807Y004271D01*
X013648Y004363D01*
X013600Y004542D01*
X013692Y004701D01*
X013871Y004749D01*
X014030Y004657D01*
X013958Y004602D01*
X013988Y004490D01*
X013931Y004391D01*
X013819Y004361D01*
X013720Y004418D01*
X013690Y004530D01*
X013747Y004629D01*
X013859Y004659D01*
X013958Y004602D01*
X013886Y004546D01*
X013898Y004502D01*
X013875Y004463D01*
X013831Y004451D01*
X013792Y004474D01*
X013780Y004518D01*
X013803Y004557D01*
X013847Y004569D01*
X013886Y004546D01*
X012459Y006765D02*
X012515Y006821D01*
X012544Y006637D01*
X012436Y006488D01*
X012252Y006459D01*
X012103Y006567D01*
X012074Y006751D01*
X012182Y006900D01*
X012366Y006929D01*
X012515Y006821D01*
X012437Y006773D01*
X012455Y006658D01*
X012388Y006566D01*
X012273Y006548D01*
X012181Y006615D01*
X012163Y006730D01*
X012230Y006822D01*
X012345Y006840D01*
X012437Y006773D01*
X012360Y006725D01*
X012367Y006680D01*
X012340Y006643D01*
X012295Y006636D01*
X012258Y006663D01*
X012251Y006708D01*
X012278Y006745D01*
X012323Y006752D01*
X012360Y006725D01*
X011871Y005956D02*
X011927Y006012D01*
X011956Y005828D01*
X011848Y005679D01*
X011664Y005650D01*
X011515Y005758D01*
X011486Y005942D01*
X011594Y006091D01*
X011778Y006120D01*
X011927Y006012D01*
X011849Y005964D01*
X011867Y005849D01*
X011800Y005757D01*
X011685Y005739D01*
X011593Y005806D01*
X011575Y005921D01*
X011642Y006013D01*
X011757Y006031D01*
X011849Y005964D01*
X011772Y005916D01*
X011779Y005871D01*
X011752Y005834D01*
X011707Y005827D01*
X011670Y005854D01*
X011663Y005899D01*
X011690Y005936D01*
X011735Y005943D01*
X011772Y005916D01*
X009921Y007522D02*
X009977Y007578D01*
X009987Y007393D01*
X009863Y007256D01*
X009678Y007246D01*
X009541Y007370D01*
X009531Y007555D01*
X009655Y007692D01*
X009840Y007702D01*
X009977Y007578D01*
X009895Y007539D01*
X009901Y007423D01*
X009824Y007338D01*
X009708Y007332D01*
X009623Y007409D01*
X009617Y007525D01*
X009694Y007610D01*
X009810Y007616D01*
X009895Y007539D01*
X009813Y007500D01*
X009816Y007454D01*
X009785Y007420D01*
X009739Y007417D01*
X009705Y007448D01*
X009702Y007494D01*
X009733Y007528D01*
X009779Y007531D01*
X009813Y007500D01*
X010590Y008265D02*
X010646Y008321D01*
X010656Y008136D01*
X010532Y007999D01*
X010347Y007989D01*
X010210Y008113D01*
X010200Y008298D01*
X010324Y008435D01*
X010509Y008445D01*
X010646Y008321D01*
X010564Y008282D01*
X010570Y008166D01*
X010493Y008081D01*
X010377Y008075D01*
X010292Y008152D01*
X010286Y008268D01*
X010363Y008353D01*
X010479Y008359D01*
X010564Y008282D01*
X010482Y008243D01*
X010485Y008197D01*
X010454Y008163D01*
X010408Y008160D01*
X010374Y008191D01*
X010371Y008237D01*
X010402Y008271D01*
X010448Y008274D01*
X010482Y008243D01*
M02*
