%
M48
M72
T01C0.0120
T02C0.0200
T03C0.0320
T04C0.0400
T05C0.1575
%
T01
X29400Y29900
T02
X28150Y28650
X27800Y28100
X26800Y28150
X25400Y27650
X23650Y28650
X21650Y26400
X28400Y24650
X18400Y17700
X17900Y17150
X14650Y22650
X13650Y22900
T03
X7974Y9259
X8717Y9928
X7194Y11809
X6385Y11221
X5010Y13339
X5876Y13839
X3863Y15589
X4777Y15995
X3910Y18255
X2959Y17946
X2305Y20385
X3283Y20593
X2905Y22983
X1910Y22879
X1778Y25400
X2778Y25400
X2905Y27817
X1910Y27921
X3283Y30207
X2305Y30415
X2959Y32854
X3910Y32545
X4777Y34805
X3863Y35211
X5010Y37461
X5876Y36961
X7194Y38991
X6385Y39579
X7974Y41541
X8717Y40872
X10428Y42583
X9759Y43326
X11721Y44915
X12309Y44106
X14339Y45424
X13839Y46290
X16089Y47437
X16495Y46523
X18446Y48341
X18755Y47390
X20885Y48995
X21093Y48017
X23483Y48395
X23379Y49390
X25900Y49522
X25900Y48522
X28317Y48395
X28421Y49390
X30707Y48017
X30915Y48995
X33045Y47390
X33354Y48341
X35305Y46523
X35711Y47437
X37961Y46290
X37461Y45424
X39491Y44106
X40079Y44915
X42041Y43326
X41372Y42583
X43083Y40872
X43826Y41541
X45415Y39579
X44606Y38991
X45924Y36961
X46790Y37461
X47937Y35211
X47023Y34805
X47890Y32545
X48841Y32854
X49495Y30415
X48517Y30207
X49890Y27921
X48895Y27817
X49022Y25400
X50022Y25400
X49890Y22879
X48895Y22983
X48517Y20593
X49495Y20385
X47890Y18255
X48841Y17946
X47937Y15589
X47023Y15995
X45924Y13839
X46790Y13339
X45415Y11221
X44606Y11809
X43083Y9928
X43826Y9259
X42041Y7474
X41372Y8217
X39491Y6694
X40079Y5885
X37961Y4510
X37461Y5376
X35711Y3363
X35305Y4277
X33045Y3410
X33354Y2459
X30915Y1805
X30707Y2783
X28317Y2405
X28421Y1410
X25900Y1278
X25900Y2278
X23483Y2405
X23379Y1410
X21093Y2783
X20885Y1805
X18755Y3410
X18446Y2459
X16089Y3363
X16495Y4277
X14339Y5376
X13839Y4510
X11721Y5885
X12309Y6694
X10428Y8217
X9759Y7474
T04
X23000Y20650
X25022Y20589
X26022Y20589
X27022Y20589
X28022Y20589
X29022Y20589
X30022Y20589
X29900Y12650
X27500Y12650
X27250Y33650
X28650Y34400
X24650Y36650
T05
X14089Y37211
X37711Y37211
X37711Y9652
X14089Y9652
M30
