%
M48
M72
T01C0.0236
T02C0.0315
T03C0.0320
T04C0.0360
T05C0.0394
T06C0.0400
T07C0.0470
T08C0.0500
T09C0.0512
T10C0.0551
T11C0.0590
T12C0.0787
T13C0.0790
T14C0.0866
T15C0.1102
T16C0.1260
T17C0.1500
T18C0.2500
%
T01
X11680Y22911
X21680Y37911
T02
X29680Y31911
X29680Y28911
X29680Y26911
X29680Y23911
X21680Y26411
X21680Y29411
X7180Y8023
X6430Y8023
X5680Y8023
T03
X3180Y9911
X3180Y10911
X4680Y11773
X3180Y12286
X3180Y15286
X7180Y17911
X9180Y17911
X10680Y17911
X12680Y17911
X14680Y17911
X16680Y17911
X16180Y20911
X16180Y21911
X16180Y22911
X16180Y23911
X19180Y23911
X19180Y22911
X19180Y21911
X19180Y20911
X20430Y21911
X21680Y22911
X20430Y23911
X21680Y24911
X20430Y29786
X19180Y29911
X19180Y30911
X19180Y31911
X19180Y32911
X20430Y31786
X16180Y31911
X16180Y30911
X16180Y29911
X16180Y32911
X11680Y32911
X10680Y32911
X9680Y32911
X8680Y32911
X7680Y32911
X6680Y32911
X5680Y32911
X4430Y32536
X2680Y33411
X2680Y35411
X4430Y30536
X5680Y29911
X6680Y29911
X7680Y29911
X8680Y29911
X9680Y29911
X10680Y29911
X11680Y29911
X11680Y28161
X10680Y28161
X9680Y28161
X8680Y28161
X7680Y28161
X6680Y28161
X5680Y28161
X4430Y27786
X3305Y28161
X2055Y28161
X4430Y25786
X3305Y25161
X2055Y25161
X4180Y23911
X4180Y22911
X5180Y22911
X5180Y21911
X5180Y23911
X5680Y25161
X6680Y25161
X7680Y25161
X8680Y25161
X9680Y25161
X10680Y25161
X11680Y25161
X8180Y23911
X8180Y22911
X8180Y21911
X18305Y15036
X19555Y15036
X19555Y12036
X18305Y12036
X17430Y10911
X17430Y9911
X20430Y9911
X20430Y10911
X6680Y11773
X30680Y27411
X31680Y27411
X31680Y34411
X30680Y34411
X54430Y33411
X54430Y36411
X54430Y25411
X54430Y22411
T04
X22680Y14036
X22680Y13036
T05
X21555Y35911
X20555Y35911
X19555Y35911
T06
X16055Y34911
X16055Y36911
X15930Y27911
X15930Y25911
X6180Y19411
X4180Y19411
X7180Y16161
X8180Y16161
X9180Y16161
X12680Y16161
X13680Y16161
X14680Y16161
T07
X31055Y16161
X31055Y18161
X31055Y12161
X31055Y10161
T08
X40180Y42286
X45180Y42286
T09
X13180Y35911
X4180Y35911
T10
X3680Y42411
X26680Y42411
T11
X34030Y34611
X34030Y32411
X34030Y30211
X34030Y27611
X34030Y25411
X34030Y23211
X56180Y22411
X56180Y28411
X56180Y30911
X56180Y36911
T12
X5430Y7023
X7430Y7023
X30305Y45411
X34055Y45411
T13
X48680Y36911
X48680Y32911
X48680Y25911
X48680Y21911
T14
X46436Y13625
X43680Y13625
X40924Y13625
T15
X44680Y29411
X42680Y45411
X6430Y10023
T16
X12680Y9449
X12680Y11850
T17
X1680Y7661
X1680Y45411
X58180Y45411
X58180Y7661
T18
X51555Y9811
X35805Y9811
M30
