G75*
G70*
%OFA0B0*%
%FSLAX24Y24*%
%IPPOS*%
%LPD*%
%AMOC8*
5,1,8,0,0,1.08239X$1,22.5*
%
%ADD10C,0.1182*%
%ADD11C,0.0867*%
%ADD12C,0.1580*%
%ADD13C,0.2580*%
%ADD14OC8,0.0600*%
%ADD15C,0.0600*%
%ADD16C,0.1080*%
%ADD17OC8,0.1080*%
%ADD18C,0.0595*%
%ADD19C,0.0965*%
%ADD20C,0.1890*%
%ADD21OC8,0.1890*%
%ADD22C,0.0680*%
%ADD23C,0.1346*%
%ADD24C,0.0830*%
%ADD25C,0.0907*%
%ADD26C,0.1740*%
%ADD27R,0.0848X0.0848*%
%ADD28OC8,0.2080*%
%ADD29C,0.0640*%
%ADD30R,0.0595X0.0595*%
%ADD31C,0.0785*%
%ADD32C,0.0674*%
%ADD33R,0.0476X0.0476*%
%ADD34C,0.0476*%
D10*
X006430Y010023D03*
D11*
X005430Y007023D03*
X007430Y007023D03*
D12*
X001680Y007661D03*
X001680Y045411D03*
X032755Y045411D03*
X036505Y045411D03*
X063180Y045411D03*
X063180Y007661D03*
D13*
X051555Y009811D03*
X035805Y009811D03*
D14*
X020430Y009911D03*
X020430Y010911D03*
X019555Y012036D03*
X018305Y012036D03*
X017430Y010911D03*
X017430Y009911D03*
X018305Y015036D03*
X019555Y015036D03*
X016680Y017911D03*
X014680Y017911D03*
X012680Y017911D03*
X010680Y017911D03*
X009180Y017911D03*
X007180Y017911D03*
X003180Y015286D03*
X003180Y012286D03*
X003180Y010911D03*
X003180Y009911D03*
X004680Y011773D03*
X006680Y011773D03*
X005180Y021911D03*
X005180Y022911D03*
X004180Y022911D03*
X004180Y023911D03*
X005180Y023911D03*
X004430Y025786D03*
X004430Y027786D03*
X004430Y030536D03*
X004430Y032536D03*
X002680Y033411D03*
X002680Y035411D03*
X008180Y023911D03*
X008180Y022911D03*
X008180Y021911D03*
X020430Y021911D03*
X021680Y022911D03*
X020430Y023911D03*
X021680Y024911D03*
X020430Y029786D03*
X020430Y031786D03*
X030680Y034411D03*
X031680Y034411D03*
X031680Y027411D03*
X030680Y027411D03*
X057380Y025911D03*
X057380Y021911D03*
X057380Y032911D03*
X057380Y036911D03*
D15*
X019440Y032911D02*
X018920Y032911D01*
X018920Y031911D02*
X019440Y031911D01*
X019440Y030911D02*
X018920Y030911D01*
X018920Y029911D02*
X019440Y029911D01*
X016440Y029911D02*
X015920Y029911D01*
X015920Y030911D02*
X016440Y030911D01*
X016440Y031911D02*
X015920Y031911D01*
X015920Y032911D02*
X016440Y032911D01*
X011680Y032651D02*
X011680Y033171D01*
X010680Y033171D02*
X010680Y032651D01*
X009680Y032651D02*
X009680Y033171D01*
X008680Y033171D02*
X008680Y032651D01*
X007680Y032651D02*
X007680Y033171D01*
X006680Y033171D02*
X006680Y032651D01*
X005680Y032651D02*
X005680Y033171D01*
X005680Y030171D02*
X005680Y029651D01*
X006680Y029651D02*
X006680Y030171D01*
X007680Y030171D02*
X007680Y029651D01*
X008680Y029651D02*
X008680Y030171D01*
X009680Y030171D02*
X009680Y029651D01*
X010680Y029651D02*
X010680Y030171D01*
X011680Y030171D02*
X011680Y029651D01*
X011680Y028421D02*
X011680Y027901D01*
X010680Y027901D02*
X010680Y028421D01*
X009680Y028421D02*
X009680Y027901D01*
X008680Y027901D02*
X008680Y028421D01*
X007680Y028421D02*
X007680Y027901D01*
X006680Y027901D02*
X006680Y028421D01*
X005680Y028421D02*
X005680Y027901D01*
X003305Y027901D02*
X003305Y028421D01*
X002055Y028421D02*
X002055Y027901D01*
X002055Y025421D02*
X002055Y024901D01*
X003305Y024901D02*
X003305Y025421D01*
X005680Y025421D02*
X005680Y024901D01*
X006680Y024901D02*
X006680Y025421D01*
X007680Y025421D02*
X007680Y024901D01*
X008680Y024901D02*
X008680Y025421D01*
X009680Y025421D02*
X009680Y024901D01*
X010680Y024901D02*
X010680Y025421D01*
X011680Y025421D02*
X011680Y024901D01*
X015920Y023911D02*
X016440Y023911D01*
X016440Y022911D02*
X015920Y022911D01*
X015920Y021911D02*
X016440Y021911D01*
X016440Y020911D02*
X015920Y020911D01*
X018920Y020911D02*
X019440Y020911D01*
X019440Y021911D02*
X018920Y021911D01*
X018920Y022911D02*
X019440Y022911D01*
X019440Y023911D02*
X018920Y023911D01*
D16*
X015930Y025911D03*
X006180Y019411D03*
X016055Y034911D03*
D17*
X016055Y036911D03*
X015930Y027911D03*
X004180Y019411D03*
D18*
X021423Y026411D02*
X021937Y026411D01*
X021937Y029411D02*
X021423Y029411D01*
X029423Y028911D02*
X029937Y028911D01*
X029937Y026911D02*
X029423Y026911D01*
X029423Y023911D02*
X029937Y023911D01*
X029937Y031911D02*
X029423Y031911D01*
D19*
X033588Y032411D02*
X034473Y032411D01*
X034473Y030211D02*
X033588Y030211D01*
X033588Y027611D02*
X034473Y027611D01*
X034473Y025411D02*
X033588Y025411D01*
X033588Y023211D02*
X034473Y023211D01*
X034473Y034611D02*
X033588Y034611D01*
X059130Y036469D02*
X059130Y037354D01*
X059130Y031354D02*
X059130Y030469D01*
X059130Y028854D02*
X059130Y027969D01*
X059130Y022854D02*
X059130Y021969D01*
D20*
X051630Y025911D03*
X051630Y036911D03*
D21*
X051630Y032911D03*
X051630Y021911D03*
D22*
X014680Y016461D02*
X014680Y015861D01*
X013680Y015861D02*
X013680Y016461D01*
X012680Y016461D02*
X012680Y015861D01*
X009180Y015861D02*
X009180Y016461D01*
X008180Y016461D02*
X008180Y015861D01*
X007180Y015861D02*
X007180Y016461D01*
D23*
X040924Y014258D02*
X040924Y012992D01*
X043680Y012992D02*
X043680Y014258D01*
X046436Y014258D02*
X046436Y012992D01*
D24*
X047630Y041911D02*
X047630Y042661D01*
X042630Y042661D02*
X042630Y041911D01*
D25*
X026680Y041998D02*
X026680Y042825D01*
X003680Y042825D02*
X003680Y041998D01*
D26*
X011850Y011850D02*
X013510Y011850D01*
X013510Y009449D02*
X011850Y009449D01*
D27*
X013180Y035911D03*
X004180Y035911D03*
D28*
X045130Y045411D03*
X047130Y029411D03*
D29*
X022460Y014036D02*
X021900Y014036D01*
X021900Y013036D02*
X022460Y013036D01*
D30*
X007180Y008023D03*
X006430Y008023D03*
X005680Y008023D03*
D31*
X030703Y010161D02*
X031408Y010161D01*
X031408Y012161D02*
X030703Y012161D01*
X030703Y016161D02*
X031408Y016161D01*
X031408Y018161D02*
X030703Y018161D01*
D32*
X021555Y035614D02*
X021555Y036208D01*
X020555Y036208D02*
X020555Y035614D01*
X019555Y035614D02*
X019555Y036208D01*
D33*
X021680Y037911D03*
D34*
X013180Y022911D03*
M02*
