G75*
G70*
%OFA0B0*%
%FSLAX24Y24*%
%IPPOS*%
%LPD*%
%AMOC8*
5,1,8,0,0,1.08239X$1,22.5*
%
%ADD10R,0.0866X0.0236*%
%ADD11R,0.0394X0.0433*%
%ADD12R,0.0433X0.0394*%
%ADD13OC8,0.1250*%
%ADD14C,0.0100*%
%ADD15C,0.0080*%
D10*
X003622Y003896D03*
X003622Y004396D03*
X003622Y004896D03*
X003622Y005396D03*
X005669Y005396D03*
X005669Y004896D03*
X005669Y004396D03*
X005669Y003896D03*
D11*
X005480Y002146D03*
X004811Y002146D03*
X002146Y004311D03*
X002146Y004981D03*
X001146Y004981D03*
X001146Y004311D03*
D12*
X001146Y005811D03*
X001146Y006481D03*
X003361Y002146D03*
X004030Y002146D03*
D13*
X001146Y001996D03*
X001146Y007496D03*
X007146Y002146D03*
X008046Y004396D03*
X008046Y006246D03*
D14*
X006696Y004896D01*
X005669Y004896D01*
X005669Y004396D02*
X008046Y004396D01*
X007146Y002146D02*
X005480Y002146D01*
X004811Y002146D02*
X004030Y002146D01*
X004646Y002146D02*
X004811Y002146D01*
X004646Y002146D02*
X004646Y004146D01*
X004396Y004396D01*
X003622Y004396D01*
X002230Y004396D01*
X002146Y004311D01*
X002230Y004896D02*
X003622Y004896D01*
X002230Y004896D02*
X002146Y004981D01*
X001146Y004981D01*
X001146Y005811D01*
X001146Y006481D02*
X001146Y007496D01*
D15*
X000586Y001474D02*
X000586Y000586D01*
X009076Y000586D01*
X009076Y008202D01*
X001521Y008202D01*
X001911Y007813D01*
X001911Y007179D01*
X001485Y006753D01*
X001502Y006736D01*
X001502Y006226D01*
X001422Y006146D01*
X001502Y006066D01*
X001502Y005557D01*
X001420Y005475D01*
X001336Y005475D01*
X001336Y005337D01*
X001401Y005337D01*
X001482Y005255D01*
X001482Y005171D01*
X001809Y005171D01*
X001809Y005255D01*
X001891Y005337D01*
X002401Y005337D01*
X002482Y005255D01*
X002482Y005086D01*
X003063Y005086D01*
X003123Y005146D01*
X003049Y005220D01*
X003049Y005572D01*
X003131Y005654D01*
X004113Y005654D01*
X004195Y005572D01*
X004195Y005220D01*
X004121Y005146D01*
X004195Y005072D01*
X004195Y004720D01*
X004121Y004646D01*
X004181Y004586D01*
X004317Y004586D01*
X004474Y004586D01*
X004724Y004336D01*
X004836Y004225D01*
X004836Y002503D01*
X005066Y002503D01*
X005146Y002423D01*
X005225Y002503D01*
X005735Y002503D01*
X005817Y002421D01*
X005817Y002336D01*
X006381Y002336D01*
X006381Y002463D01*
X006829Y002911D01*
X007463Y002911D01*
X007911Y002463D01*
X007911Y001829D01*
X007463Y001381D01*
X006829Y001381D01*
X006381Y001829D01*
X006381Y001956D01*
X005817Y001956D01*
X005817Y001872D01*
X005735Y001790D01*
X005225Y001790D01*
X005146Y001869D01*
X005066Y001790D01*
X004556Y001790D01*
X004474Y001872D01*
X004474Y001956D01*
X004387Y001956D01*
X004387Y001891D01*
X004305Y001809D01*
X003756Y001809D01*
X003694Y001871D01*
X003690Y001863D01*
X003664Y001837D01*
X003632Y001819D01*
X003596Y001809D01*
X003401Y001809D01*
X003401Y002106D01*
X003321Y002106D01*
X003321Y001809D01*
X003126Y001809D01*
X003090Y001819D01*
X003059Y001837D01*
X003032Y001863D01*
X003014Y001895D01*
X003004Y001931D01*
X003004Y002106D01*
X003321Y002106D01*
X003321Y002186D01*
X003004Y002186D01*
X003004Y002361D01*
X003014Y002397D01*
X003032Y002429D01*
X003059Y002455D01*
X003090Y002473D01*
X003126Y002483D01*
X003321Y002483D01*
X003321Y002186D01*
X003401Y002186D01*
X003401Y002483D01*
X003596Y002483D01*
X003632Y002473D01*
X003664Y002455D01*
X003690Y002429D01*
X003694Y002421D01*
X003756Y002483D01*
X004305Y002483D01*
X004387Y002401D01*
X004387Y002336D01*
X004456Y002336D01*
X004456Y004067D01*
X004317Y004206D01*
X004181Y004206D01*
X004116Y004141D01*
X004141Y004126D01*
X004167Y004100D01*
X004186Y004068D01*
X004195Y004033D01*
X004195Y003915D01*
X003641Y003915D01*
X003641Y003877D01*
X003641Y003638D01*
X004074Y003638D01*
X004109Y003648D01*
X004141Y003666D01*
X004167Y003692D01*
X004186Y003724D01*
X004195Y003760D01*
X004195Y003877D01*
X003641Y003877D01*
X003603Y003877D01*
X003603Y003638D01*
X003171Y003638D01*
X003135Y003648D01*
X003103Y003666D01*
X003077Y003692D01*
X003059Y003724D01*
X003049Y003760D01*
X003049Y003877D01*
X003603Y003877D01*
X003603Y003915D01*
X003049Y003915D01*
X003049Y004033D01*
X003059Y004068D01*
X003077Y004100D01*
X003103Y004126D01*
X003128Y004141D01*
X003063Y004206D01*
X002482Y004206D01*
X002482Y004037D01*
X002401Y003955D01*
X001891Y003955D01*
X001809Y004037D01*
X001809Y004586D01*
X001869Y004646D01*
X001809Y004706D01*
X001809Y004791D01*
X001482Y004791D01*
X001482Y004706D01*
X001421Y004644D01*
X001428Y004640D01*
X001455Y004614D01*
X001473Y004582D01*
X001482Y004546D01*
X001482Y004351D01*
X001186Y004351D01*
X001186Y004272D01*
X001482Y004272D01*
X001482Y004076D01*
X001473Y004041D01*
X001455Y004009D01*
X001428Y003983D01*
X001397Y003964D01*
X001361Y003955D01*
X001186Y003955D01*
X001186Y004271D01*
X001106Y004271D01*
X001106Y003955D01*
X000930Y003955D01*
X000895Y003964D01*
X000863Y003983D01*
X000837Y004009D01*
X000818Y004041D01*
X000809Y004076D01*
X000809Y004272D01*
X001106Y004272D01*
X001106Y004351D01*
X000809Y004351D01*
X000809Y004546D01*
X000818Y004582D01*
X000837Y004614D01*
X000863Y004640D01*
X000871Y004644D01*
X000809Y004706D01*
X000809Y005255D01*
X000891Y005337D01*
X000956Y005337D01*
X000956Y005475D01*
X000871Y005475D01*
X000789Y005557D01*
X000789Y006066D01*
X000869Y006146D01*
X000789Y006226D01*
X000789Y006736D01*
X000807Y006753D01*
X000586Y006974D01*
X000586Y002518D01*
X000829Y002761D01*
X001106Y002761D01*
X001186Y002761D01*
X001186Y002036D01*
X001911Y002036D01*
X001911Y002313D01*
X001463Y002761D01*
X004456Y002761D01*
X004456Y002839D02*
X000586Y002839D01*
X000586Y002761D02*
X000829Y002761D01*
X000750Y002682D02*
X000586Y002682D01*
X000586Y002604D02*
X000672Y002604D01*
X000593Y002525D02*
X000586Y002525D01*
X000586Y002918D02*
X004456Y002918D01*
X004456Y002997D02*
X000586Y002997D01*
X000586Y003075D02*
X004456Y003075D01*
X004456Y003154D02*
X000586Y003154D01*
X000586Y003232D02*
X004456Y003232D01*
X004456Y003311D02*
X000586Y003311D01*
X000586Y003389D02*
X004456Y003389D01*
X004456Y003468D02*
X000586Y003468D01*
X000586Y003546D02*
X004456Y003546D01*
X004456Y003625D02*
X000586Y003625D01*
X000586Y003703D02*
X003070Y003703D01*
X003049Y003782D02*
X000586Y003782D01*
X000586Y003861D02*
X003049Y003861D01*
X003049Y003939D02*
X000586Y003939D01*
X000586Y004018D02*
X000832Y004018D01*
X000809Y004096D02*
X000586Y004096D01*
X000586Y004175D02*
X000809Y004175D01*
X000809Y004253D02*
X000586Y004253D01*
X000586Y004332D02*
X001106Y004332D01*
X001106Y004253D02*
X001186Y004253D01*
X001186Y004175D02*
X001106Y004175D01*
X001106Y004096D02*
X001186Y004096D01*
X001186Y004018D02*
X001106Y004018D01*
X001459Y004018D02*
X001828Y004018D01*
X001809Y004096D02*
X001482Y004096D01*
X001482Y004175D02*
X001809Y004175D01*
X001809Y004253D02*
X001482Y004253D01*
X001482Y004410D02*
X001809Y004410D01*
X001809Y004332D02*
X001186Y004332D01*
X001482Y004489D02*
X001809Y004489D01*
X001809Y004567D02*
X001477Y004567D01*
X001422Y004646D02*
X001869Y004646D01*
X001809Y004724D02*
X001482Y004724D01*
X001482Y005196D02*
X001809Y005196D01*
X001828Y005274D02*
X001464Y005274D01*
X001336Y005353D02*
X003049Y005353D01*
X003049Y005431D02*
X001336Y005431D01*
X001455Y005510D02*
X003049Y005510D01*
X003065Y005588D02*
X001502Y005588D01*
X001502Y005667D02*
X007198Y005667D01*
X007276Y005746D02*
X001502Y005746D01*
X001502Y005824D02*
X007355Y005824D01*
X007370Y005840D02*
X006617Y005086D01*
X006228Y005086D01*
X006168Y005146D01*
X006242Y005220D01*
X006242Y005572D01*
X006160Y005654D01*
X005178Y005654D01*
X005096Y005572D01*
X005096Y005220D01*
X005170Y005146D01*
X005096Y005072D01*
X005096Y004720D01*
X005170Y004646D01*
X004121Y004646D01*
X004195Y004724D02*
X005096Y004724D01*
X005096Y004803D02*
X004195Y004803D01*
X004195Y004882D02*
X005096Y004882D01*
X005096Y004960D02*
X004195Y004960D01*
X004195Y005039D02*
X005096Y005039D01*
X005141Y005117D02*
X004150Y005117D01*
X004171Y005196D02*
X005120Y005196D01*
X005096Y005274D02*
X004195Y005274D01*
X004195Y005353D02*
X005096Y005353D01*
X005096Y005431D02*
X004195Y005431D01*
X004195Y005510D02*
X005096Y005510D01*
X005112Y005588D02*
X004179Y005588D01*
X005170Y004646D02*
X005096Y004572D01*
X005096Y004220D01*
X005170Y004146D01*
X005096Y004072D01*
X005096Y003720D01*
X005178Y003638D01*
X006160Y003638D01*
X006242Y003720D01*
X006242Y004072D01*
X006168Y004146D01*
X006228Y004206D01*
X007281Y004206D01*
X007281Y004079D01*
X007729Y003631D01*
X008363Y003631D01*
X008811Y004079D01*
X008811Y004713D01*
X008363Y005161D01*
X007729Y005161D01*
X007281Y004713D01*
X007281Y004586D01*
X006228Y004586D01*
X006168Y004646D01*
X006228Y004706D01*
X006617Y004706D01*
X006774Y004706D01*
X007639Y005571D01*
X007729Y005481D01*
X008363Y005481D01*
X008811Y005929D01*
X008811Y006563D01*
X008363Y007011D01*
X007729Y007011D01*
X007281Y006563D01*
X007281Y005929D01*
X007370Y005840D01*
X007307Y005903D02*
X001502Y005903D01*
X001502Y005981D02*
X007281Y005981D01*
X007281Y006060D02*
X001502Y006060D01*
X001430Y006138D02*
X007281Y006138D01*
X007281Y006217D02*
X001493Y006217D01*
X001502Y006295D02*
X007281Y006295D01*
X007281Y006374D02*
X001502Y006374D01*
X001502Y006452D02*
X007281Y006452D01*
X007281Y006531D02*
X001502Y006531D01*
X001502Y006610D02*
X007327Y006610D01*
X007406Y006688D02*
X001502Y006688D01*
X001498Y006767D02*
X007484Y006767D01*
X007563Y006845D02*
X001576Y006845D01*
X001655Y006924D02*
X007641Y006924D01*
X007720Y007002D02*
X001734Y007002D01*
X001812Y007081D02*
X009076Y007081D01*
X009076Y007159D02*
X001891Y007159D01*
X001911Y007238D02*
X009076Y007238D01*
X009076Y007316D02*
X001911Y007316D01*
X001911Y007395D02*
X009076Y007395D01*
X009076Y007474D02*
X001911Y007474D01*
X001911Y007552D02*
X009076Y007552D01*
X009076Y007631D02*
X001911Y007631D01*
X001911Y007709D02*
X009076Y007709D01*
X009076Y007788D02*
X001911Y007788D01*
X001857Y007866D02*
X009076Y007866D01*
X009076Y007945D02*
X001779Y007945D01*
X001700Y008023D02*
X009076Y008023D01*
X009076Y008102D02*
X001622Y008102D01*
X001543Y008180D02*
X009076Y008180D01*
X009076Y007002D02*
X008371Y007002D01*
X008450Y006924D02*
X009076Y006924D01*
X009076Y006845D02*
X008528Y006845D01*
X008607Y006767D02*
X009076Y006767D01*
X009076Y006688D02*
X008686Y006688D01*
X008764Y006610D02*
X009076Y006610D01*
X009076Y006531D02*
X008811Y006531D01*
X008811Y006452D02*
X009076Y006452D01*
X009076Y006374D02*
X008811Y006374D01*
X008811Y006295D02*
X009076Y006295D01*
X009076Y006217D02*
X008811Y006217D01*
X008811Y006138D02*
X009076Y006138D01*
X009076Y006060D02*
X008811Y006060D01*
X008811Y005981D02*
X009076Y005981D01*
X009076Y005903D02*
X008784Y005903D01*
X008705Y005824D02*
X009076Y005824D01*
X009076Y005746D02*
X008627Y005746D01*
X008548Y005667D02*
X009076Y005667D01*
X009076Y005588D02*
X008470Y005588D01*
X008391Y005510D02*
X009076Y005510D01*
X009076Y005431D02*
X007500Y005431D01*
X007578Y005510D02*
X007700Y005510D01*
X007421Y005353D02*
X009076Y005353D01*
X009076Y005274D02*
X007342Y005274D01*
X007264Y005196D02*
X009076Y005196D01*
X009076Y005117D02*
X008406Y005117D01*
X008485Y005039D02*
X009076Y005039D01*
X009076Y004960D02*
X008564Y004960D01*
X008642Y004882D02*
X009076Y004882D01*
X009076Y004803D02*
X008721Y004803D01*
X008799Y004724D02*
X009076Y004724D01*
X009076Y004646D02*
X008811Y004646D01*
X008811Y004567D02*
X009076Y004567D01*
X009076Y004489D02*
X008811Y004489D01*
X008811Y004410D02*
X009076Y004410D01*
X009076Y004332D02*
X008811Y004332D01*
X008811Y004253D02*
X009076Y004253D01*
X009076Y004175D02*
X008811Y004175D01*
X008811Y004096D02*
X009076Y004096D01*
X009076Y004018D02*
X008749Y004018D01*
X008670Y003939D02*
X009076Y003939D01*
X009076Y003861D02*
X008592Y003861D01*
X008513Y003782D02*
X009076Y003782D01*
X009076Y003703D02*
X008435Y003703D01*
X009076Y003625D02*
X004836Y003625D01*
X004836Y003703D02*
X005113Y003703D01*
X005096Y003782D02*
X004836Y003782D01*
X004836Y003861D02*
X005096Y003861D01*
X005096Y003939D02*
X004836Y003939D01*
X004836Y004018D02*
X005096Y004018D01*
X005120Y004096D02*
X004836Y004096D01*
X004836Y004175D02*
X005142Y004175D01*
X005096Y004253D02*
X004807Y004253D01*
X004729Y004332D02*
X005096Y004332D01*
X005096Y004410D02*
X004650Y004410D01*
X004572Y004489D02*
X005096Y004489D01*
X005096Y004567D02*
X004493Y004567D01*
X004348Y004175D02*
X004150Y004175D01*
X004169Y004096D02*
X004427Y004096D01*
X004456Y004018D02*
X004195Y004018D01*
X004195Y003939D02*
X004456Y003939D01*
X004456Y003861D02*
X004195Y003861D01*
X004195Y003782D02*
X004456Y003782D01*
X004456Y003703D02*
X004174Y003703D01*
X003641Y003703D02*
X003603Y003703D01*
X003603Y003782D02*
X003641Y003782D01*
X003641Y003861D02*
X003603Y003861D01*
X003049Y004018D02*
X002463Y004018D01*
X002482Y004096D02*
X003075Y004096D01*
X003094Y004175D02*
X002482Y004175D01*
X002482Y005117D02*
X003094Y005117D01*
X003073Y005196D02*
X002482Y005196D01*
X002464Y005274D02*
X003049Y005274D01*
X004836Y003546D02*
X009076Y003546D01*
X009076Y003468D02*
X004836Y003468D01*
X004836Y003389D02*
X009076Y003389D01*
X009076Y003311D02*
X004836Y003311D01*
X004836Y003232D02*
X009076Y003232D01*
X009076Y003154D02*
X004836Y003154D01*
X004836Y003075D02*
X009076Y003075D01*
X009076Y002997D02*
X004836Y002997D01*
X004836Y002918D02*
X009076Y002918D01*
X009076Y002839D02*
X007534Y002839D01*
X007613Y002761D02*
X009076Y002761D01*
X009076Y002682D02*
X007691Y002682D01*
X007770Y002604D02*
X009076Y002604D01*
X009076Y002525D02*
X007848Y002525D01*
X007911Y002447D02*
X009076Y002447D01*
X009076Y002368D02*
X007911Y002368D01*
X007911Y002290D02*
X009076Y002290D01*
X009076Y002211D02*
X007911Y002211D01*
X007911Y002133D02*
X009076Y002133D01*
X009076Y002054D02*
X007911Y002054D01*
X007911Y001975D02*
X009076Y001975D01*
X009076Y001897D02*
X007911Y001897D01*
X007900Y001818D02*
X009076Y001818D01*
X009076Y001740D02*
X007821Y001740D01*
X007743Y001661D02*
X009076Y001661D01*
X009076Y001583D02*
X007664Y001583D01*
X007586Y001504D02*
X009076Y001504D01*
X009076Y001426D02*
X007507Y001426D01*
X006784Y001426D02*
X001657Y001426D01*
X001736Y001504D02*
X006706Y001504D01*
X006627Y001583D02*
X001814Y001583D01*
X001893Y001661D02*
X006549Y001661D01*
X006470Y001740D02*
X001911Y001740D01*
X001911Y001679D02*
X001911Y001956D01*
X001186Y001956D01*
X001186Y002036D01*
X001106Y002036D01*
X001106Y002761D01*
X001106Y002682D02*
X001186Y002682D01*
X001186Y002604D02*
X001106Y002604D01*
X001106Y002525D02*
X001186Y002525D01*
X001186Y002447D02*
X001106Y002447D01*
X001106Y002368D02*
X001186Y002368D01*
X001186Y002290D02*
X001106Y002290D01*
X001106Y002211D02*
X001186Y002211D01*
X001186Y002133D02*
X001106Y002133D01*
X001106Y002054D02*
X001186Y002054D01*
X001186Y001975D02*
X003004Y001975D01*
X003014Y001897D02*
X001911Y001897D01*
X001911Y001818D02*
X003092Y001818D01*
X003321Y001818D02*
X003401Y001818D01*
X003401Y001897D02*
X003321Y001897D01*
X003321Y001975D02*
X003401Y001975D01*
X003401Y002054D02*
X003321Y002054D01*
X003321Y002133D02*
X001911Y002133D01*
X001911Y002211D02*
X003004Y002211D01*
X003004Y002290D02*
X001911Y002290D01*
X001855Y002368D02*
X003006Y002368D01*
X003050Y002447D02*
X001777Y002447D01*
X001698Y002525D02*
X004456Y002525D01*
X004456Y002447D02*
X004341Y002447D01*
X004387Y002368D02*
X004456Y002368D01*
X004456Y002604D02*
X001620Y002604D01*
X001541Y002682D02*
X004456Y002682D01*
X004836Y002682D02*
X006600Y002682D01*
X006521Y002604D02*
X004836Y002604D01*
X004836Y002525D02*
X006443Y002525D01*
X006381Y002447D02*
X005791Y002447D01*
X005817Y002368D02*
X006381Y002368D01*
X006679Y002761D02*
X004836Y002761D01*
X004836Y002839D02*
X006757Y002839D01*
X006381Y001897D02*
X005817Y001897D01*
X005764Y001818D02*
X006392Y001818D01*
X005197Y001818D02*
X005095Y001818D01*
X004527Y001818D02*
X004314Y001818D01*
X004387Y001897D02*
X004474Y001897D01*
X003747Y001818D02*
X003630Y001818D01*
X003401Y002211D02*
X003321Y002211D01*
X003321Y002290D02*
X003401Y002290D01*
X003401Y002368D02*
X003321Y002368D01*
X003321Y002447D02*
X003401Y002447D01*
X003672Y002447D02*
X003720Y002447D01*
X003004Y002054D02*
X001911Y002054D01*
X001911Y001679D02*
X001463Y001231D01*
X001186Y001231D01*
X001186Y001956D01*
X001106Y001956D01*
X001106Y001231D01*
X000829Y001231D01*
X000586Y001474D01*
X000586Y001426D02*
X000634Y001426D01*
X000586Y001347D02*
X000713Y001347D01*
X000791Y001269D02*
X000586Y001269D01*
X000586Y001190D02*
X009076Y001190D01*
X009076Y001111D02*
X000586Y001111D01*
X000586Y001033D02*
X009076Y001033D01*
X009076Y000954D02*
X000586Y000954D01*
X000586Y000876D02*
X009076Y000876D01*
X009076Y000797D02*
X000586Y000797D01*
X000586Y000719D02*
X009076Y000719D01*
X009076Y000640D02*
X000586Y000640D01*
X001106Y001269D02*
X001186Y001269D01*
X001186Y001347D02*
X001106Y001347D01*
X001106Y001426D02*
X001186Y001426D01*
X001186Y001504D02*
X001106Y001504D01*
X001106Y001583D02*
X001186Y001583D01*
X001186Y001661D02*
X001106Y001661D01*
X001106Y001740D02*
X001186Y001740D01*
X001186Y001818D02*
X001106Y001818D01*
X001106Y001897D02*
X001186Y001897D01*
X001579Y001347D02*
X009076Y001347D01*
X009076Y001269D02*
X001500Y001269D01*
X001463Y002761D02*
X001186Y002761D01*
X000809Y004410D02*
X000586Y004410D01*
X000586Y004489D02*
X000809Y004489D01*
X000814Y004567D02*
X000586Y004567D01*
X000586Y004646D02*
X000869Y004646D01*
X000809Y004724D02*
X000586Y004724D01*
X000586Y004803D02*
X000809Y004803D01*
X000809Y004882D02*
X000586Y004882D01*
X000586Y004960D02*
X000809Y004960D01*
X000809Y005039D02*
X000586Y005039D01*
X000586Y005117D02*
X000809Y005117D01*
X000809Y005196D02*
X000586Y005196D01*
X000586Y005274D02*
X000828Y005274D01*
X000956Y005353D02*
X000586Y005353D01*
X000586Y005431D02*
X000956Y005431D01*
X000836Y005510D02*
X000586Y005510D01*
X000586Y005588D02*
X000789Y005588D01*
X000789Y005667D02*
X000586Y005667D01*
X000586Y005746D02*
X000789Y005746D01*
X000789Y005824D02*
X000586Y005824D01*
X000586Y005903D02*
X000789Y005903D01*
X000789Y005981D02*
X000586Y005981D01*
X000586Y006060D02*
X000789Y006060D01*
X000861Y006138D02*
X000586Y006138D01*
X000586Y006217D02*
X000798Y006217D01*
X000789Y006295D02*
X000586Y006295D01*
X000586Y006374D02*
X000789Y006374D01*
X000789Y006452D02*
X000586Y006452D01*
X000586Y006531D02*
X000789Y006531D01*
X000789Y006610D02*
X000586Y006610D01*
X000586Y006688D02*
X000789Y006688D01*
X000793Y006767D02*
X000586Y006767D01*
X000586Y006845D02*
X000715Y006845D01*
X000636Y006924D02*
X000586Y006924D01*
X005122Y002447D02*
X005170Y002447D01*
X006226Y003703D02*
X007656Y003703D01*
X007578Y003782D02*
X006242Y003782D01*
X006242Y003861D02*
X007499Y003861D01*
X007421Y003939D02*
X006242Y003939D01*
X006242Y004018D02*
X007342Y004018D01*
X007281Y004096D02*
X006218Y004096D01*
X006197Y004175D02*
X007281Y004175D01*
X007281Y004646D02*
X006169Y004646D01*
X006197Y005117D02*
X006648Y005117D01*
X006727Y005196D02*
X006218Y005196D01*
X006242Y005274D02*
X006805Y005274D01*
X006884Y005353D02*
X006242Y005353D01*
X006242Y005431D02*
X006962Y005431D01*
X007041Y005510D02*
X006242Y005510D01*
X006226Y005588D02*
X007119Y005588D01*
X007185Y005117D02*
X007685Y005117D01*
X007606Y005039D02*
X007107Y005039D01*
X007028Y004960D02*
X007528Y004960D01*
X007449Y004882D02*
X006950Y004882D01*
X006871Y004803D02*
X007371Y004803D01*
X007292Y004724D02*
X006793Y004724D01*
M02*
