G75*
G70*
%OFA0B0*%
%FSLAX24Y24*%
%IPPOS*%
%LPD*%
%AMOC8*
5,1,8,0,0,1.08239X$1,22.5*
%
%ADD10R,0.0866X0.0236*%
%ADD11R,0.0394X0.0433*%
%ADD12R,0.0433X0.0394*%
%ADD13OC8,0.1250*%
%ADD14C,0.0100*%
%ADD15C,0.0080*%
D10*
X003662Y004936D03*
X005710Y004936D03*
X003662Y005436D03*
X003662Y004436D03*
X003662Y003936D03*
X005710Y005436D03*
X005710Y004436D03*
X005710Y003936D03*
D11*
X005521Y002186D03*
X004851Y002186D03*
X002186Y004352D03*
X002186Y005021D03*
X001186Y004352D03*
X001186Y005021D03*
D12*
X001186Y006521D03*
X001186Y005852D03*
X003401Y002186D03*
X004071Y002186D03*
D13*
X008086Y006286D03*
X001186Y002036D03*
X007186Y002186D03*
X001186Y007536D03*
X008086Y004436D03*
D14*
X002186Y004352D02*
X002271Y004436D01*
X003662Y004436D01*
X004436Y004436D01*
X004686Y004186D01*
X004686Y002186D01*
X004851Y002186D01*
X004071Y002186D01*
X002186Y005021D02*
X001186Y005021D01*
X001186Y005852D01*
X002186Y005021D02*
X002271Y004936D01*
X003662Y004936D01*
X005521Y002186D02*
X007186Y002186D01*
X005710Y004936D02*
X006736Y004936D01*
X008086Y006286D01*
X001186Y006521D02*
X001186Y007536D01*
X005710Y004436D02*
X008086Y004436D01*
D15*
X007951Y001870D02*
X007951Y002503D01*
X007503Y002951D01*
X006869Y002951D01*
X006421Y002503D01*
X006421Y002376D01*
X005857Y002376D01*
X005857Y002461D01*
X005775Y002543D01*
X005266Y002543D01*
X005186Y002463D01*
X005106Y002543D01*
X004876Y002543D01*
X004876Y004265D01*
X004765Y004376D01*
X004515Y004626D01*
X004357Y004626D01*
X004222Y004626D01*
X004161Y004686D01*
X004235Y004760D01*
X004235Y005113D01*
X004161Y005186D01*
X004235Y005260D01*
X004235Y005613D01*
X004153Y005695D01*
X003171Y005695D01*
X003089Y005613D01*
X003089Y005260D01*
X003163Y005186D01*
X003103Y005126D01*
X002523Y005126D01*
X002523Y005296D01*
X002441Y005378D01*
X001931Y005378D01*
X001849Y005296D01*
X001849Y005211D01*
X001523Y005211D01*
X001523Y005296D01*
X001441Y005378D01*
X001376Y005378D01*
X001376Y005515D01*
X001461Y005515D01*
X001542Y005597D01*
X001542Y006107D01*
X001463Y006186D01*
X001542Y006266D01*
X001542Y006776D01*
X001525Y006794D01*
X001951Y007220D01*
X001951Y007853D01*
X001562Y008243D01*
X009116Y008243D01*
X009116Y000626D01*
X000626Y000626D01*
X000626Y001515D01*
X000869Y001271D01*
X001146Y001271D01*
X001146Y001996D01*
X001226Y001996D01*
X001226Y001271D01*
X001503Y001271D01*
X001951Y001720D01*
X001951Y001996D01*
X001226Y001996D01*
X001226Y002076D01*
X001951Y002076D01*
X001951Y002353D01*
X001503Y002801D01*
X001226Y002801D01*
X001226Y002077D01*
X001146Y002077D01*
X001146Y002801D01*
X000869Y002801D01*
X000626Y002558D01*
X000626Y007015D01*
X000847Y006794D01*
X000829Y006776D01*
X000829Y006266D01*
X000909Y006186D01*
X000829Y006107D01*
X000829Y005597D01*
X000911Y005515D01*
X000996Y005515D01*
X000996Y005378D01*
X000931Y005378D01*
X000849Y005296D01*
X000849Y004747D01*
X000911Y004685D01*
X000903Y004680D01*
X000877Y004654D01*
X000859Y004622D01*
X000849Y004587D01*
X000849Y004392D01*
X001146Y004392D01*
X001146Y004312D01*
X000849Y004312D01*
X000849Y004117D01*
X000859Y004081D01*
X000877Y004049D01*
X000903Y004023D01*
X000935Y004005D01*
X000971Y003995D01*
X001146Y003995D01*
X001146Y004312D01*
X001226Y004312D01*
X001226Y003995D01*
X001401Y003995D01*
X001437Y004005D01*
X001469Y004023D01*
X001495Y004049D01*
X001513Y004081D01*
X001523Y004117D01*
X001523Y004312D01*
X001226Y004312D01*
X001226Y004392D01*
X001523Y004392D01*
X001523Y004587D01*
X001513Y004622D01*
X001495Y004654D01*
X001469Y004680D01*
X001461Y004685D01*
X001523Y004747D01*
X001523Y004831D01*
X001849Y004831D01*
X001849Y004747D01*
X001909Y004686D01*
X001849Y004626D01*
X001849Y004077D01*
X001931Y003995D01*
X002441Y003995D01*
X002523Y004077D01*
X002523Y004246D01*
X003103Y004246D01*
X003169Y004181D01*
X003143Y004167D01*
X003117Y004141D01*
X003099Y004109D01*
X003089Y004073D01*
X003089Y003956D01*
X003643Y003956D01*
X003643Y003917D01*
X003089Y003917D01*
X003089Y003800D01*
X003099Y003764D01*
X003117Y003732D01*
X003143Y003706D01*
X003175Y003688D01*
X003211Y003678D01*
X003643Y003678D01*
X003643Y003917D01*
X003681Y003917D01*
X003681Y003678D01*
X004114Y003678D01*
X004149Y003688D01*
X004181Y003706D01*
X004207Y003732D01*
X004226Y003764D01*
X004235Y003800D01*
X004235Y003917D01*
X003682Y003917D01*
X003682Y003956D01*
X004235Y003956D01*
X004235Y004073D01*
X004226Y004109D01*
X004207Y004141D01*
X004181Y004167D01*
X004156Y004181D01*
X004222Y004246D01*
X004357Y004246D01*
X004496Y004108D01*
X004496Y002376D01*
X004427Y002376D01*
X004427Y002441D01*
X004345Y002523D01*
X003796Y002523D01*
X003734Y002461D01*
X003730Y002469D01*
X003704Y002495D01*
X003672Y002514D01*
X003636Y002523D01*
X003441Y002523D01*
X003441Y002227D01*
X003361Y002227D01*
X003361Y002523D01*
X003166Y002523D01*
X003131Y002514D01*
X003099Y002495D01*
X003073Y002469D01*
X003054Y002437D01*
X003045Y002402D01*
X003045Y002226D01*
X003361Y002226D01*
X003361Y002146D01*
X003045Y002146D01*
X003045Y001971D01*
X003054Y001936D01*
X003073Y001904D01*
X003099Y001878D01*
X003131Y001859D01*
X003166Y001850D01*
X003361Y001850D01*
X003361Y002146D01*
X003441Y002146D01*
X003441Y001850D01*
X003636Y001850D01*
X003672Y001859D01*
X003704Y001878D01*
X003730Y001904D01*
X003734Y001911D01*
X003796Y001850D01*
X004345Y001850D01*
X004427Y001932D01*
X004427Y001996D01*
X004514Y001996D01*
X004514Y001912D01*
X004596Y001830D01*
X005106Y001830D01*
X005186Y001910D01*
X005266Y001830D01*
X005775Y001830D01*
X005857Y001912D01*
X005857Y001996D01*
X006421Y001996D01*
X006421Y001870D01*
X006869Y001421D01*
X007503Y001421D01*
X007951Y001870D01*
X008851Y004120D02*
X008851Y004753D01*
X008403Y005201D01*
X007769Y005201D01*
X007321Y004753D01*
X007321Y004626D01*
X006269Y004626D01*
X006209Y004686D01*
X006269Y004746D01*
X006657Y004746D01*
X006815Y004746D01*
X007679Y005611D01*
X007769Y005521D01*
X008403Y005521D01*
X008851Y005970D01*
X008851Y006603D01*
X008403Y007051D01*
X007769Y007051D01*
X007321Y006603D01*
X007321Y005970D01*
X007411Y005880D01*
X006657Y005126D01*
X006269Y005126D01*
X006209Y005186D01*
X006283Y005260D01*
X006283Y005613D01*
X006201Y005695D01*
X005219Y005695D01*
X005137Y005613D01*
X005137Y005260D01*
X005210Y005186D01*
X005137Y005113D01*
X005137Y004760D01*
X005210Y004686D01*
X005137Y004613D01*
X005137Y004260D01*
X005210Y004186D01*
X005137Y004113D01*
X005137Y003760D01*
X005219Y003678D01*
X006201Y003678D01*
X006283Y003760D01*
X006283Y004113D01*
X006209Y004186D01*
X006269Y004246D01*
X007321Y004246D01*
X007321Y004120D01*
X007769Y003671D01*
X008403Y003671D01*
X008851Y004120D01*
X009116Y000681D02*
X000626Y000681D01*
X000626Y000759D02*
X009116Y000759D01*
X009116Y000838D02*
X000626Y000838D01*
X000626Y000916D02*
X009116Y000916D01*
X009116Y000995D02*
X000626Y000995D01*
X000626Y001073D02*
X009116Y001073D01*
X009116Y001152D02*
X000626Y001152D01*
X000626Y001230D02*
X009116Y001230D01*
X000832Y001309D02*
X000626Y001309D01*
X001146Y001309D02*
X001226Y001309D01*
X001540Y001309D02*
X009116Y001309D01*
X000753Y001387D02*
X000626Y001387D01*
X001146Y001387D02*
X001226Y001387D01*
X001619Y001387D02*
X009116Y001387D01*
X000675Y001466D02*
X000626Y001466D01*
X001146Y001466D02*
X001226Y001466D01*
X001697Y001466D02*
X006825Y001466D01*
X007547Y001466D02*
X009116Y001466D01*
X001226Y001545D02*
X001146Y001545D01*
X001776Y001545D02*
X006746Y001545D01*
X007626Y001545D02*
X009116Y001545D01*
X001226Y001623D02*
X001146Y001623D01*
X001854Y001623D02*
X006667Y001623D01*
X007704Y001623D02*
X009116Y001623D01*
X001226Y001702D02*
X001146Y001702D01*
X001933Y001702D02*
X006589Y001702D01*
X007783Y001702D02*
X009116Y001702D01*
X001226Y001780D02*
X001146Y001780D01*
X001951Y001780D02*
X006510Y001780D01*
X007862Y001780D02*
X009116Y001780D01*
X001226Y001859D02*
X001146Y001859D01*
X001951Y001859D02*
X003132Y001859D01*
X003361Y001859D02*
X003441Y001859D01*
X003670Y001859D02*
X003787Y001859D01*
X004354Y001859D02*
X004568Y001859D01*
X005135Y001859D02*
X005237Y001859D01*
X005804Y001859D02*
X006432Y001859D01*
X007940Y001859D02*
X009116Y001859D01*
X001226Y001937D02*
X001146Y001937D01*
X001951Y001937D02*
X003054Y001937D01*
X003361Y001937D02*
X003441Y001937D01*
X004427Y001937D02*
X004514Y001937D01*
X005857Y001937D02*
X006421Y001937D01*
X007951Y001937D02*
X009116Y001937D01*
X003045Y002016D02*
X001226Y002016D01*
X003361Y002016D02*
X003441Y002016D01*
X007951Y002016D02*
X009116Y002016D01*
X001226Y002094D02*
X001146Y002094D01*
X001951Y002094D02*
X003045Y002094D01*
X003361Y002094D02*
X003441Y002094D01*
X007951Y002094D02*
X009116Y002094D01*
X001226Y002173D02*
X001146Y002173D01*
X001951Y002173D02*
X003361Y002173D01*
X007951Y002173D02*
X009116Y002173D01*
X001226Y002251D02*
X001146Y002251D01*
X001951Y002251D02*
X003045Y002251D01*
X003361Y002251D02*
X003441Y002251D01*
X007951Y002251D02*
X009116Y002251D01*
X001226Y002330D02*
X001146Y002330D01*
X001951Y002330D02*
X003045Y002330D01*
X003361Y002330D02*
X003441Y002330D01*
X007951Y002330D02*
X009116Y002330D01*
X001226Y002409D02*
X001146Y002409D01*
X001896Y002409D02*
X003047Y002409D01*
X003361Y002409D02*
X003441Y002409D01*
X004427Y002409D02*
X004496Y002409D01*
X005857Y002409D02*
X006421Y002409D01*
X007951Y002409D02*
X009116Y002409D01*
X001226Y002487D02*
X001146Y002487D01*
X001817Y002487D02*
X003091Y002487D01*
X003361Y002487D02*
X003441Y002487D01*
X003712Y002487D02*
X003760Y002487D01*
X004381Y002487D02*
X004496Y002487D01*
X005162Y002487D02*
X005210Y002487D01*
X005831Y002487D02*
X006421Y002487D01*
X007951Y002487D02*
X009116Y002487D01*
X000633Y002566D02*
X000626Y002566D01*
X001146Y002566D02*
X001226Y002566D01*
X001739Y002566D02*
X004496Y002566D01*
X004876Y002566D02*
X006483Y002566D01*
X007889Y002566D02*
X009116Y002566D01*
X000712Y002644D02*
X000626Y002644D01*
X001146Y002644D02*
X001226Y002644D01*
X001660Y002644D02*
X004496Y002644D01*
X004876Y002644D02*
X006562Y002644D01*
X007810Y002644D02*
X009116Y002644D01*
X000790Y002723D02*
X000626Y002723D01*
X001146Y002723D02*
X001226Y002723D01*
X001582Y002723D02*
X004496Y002723D01*
X004876Y002723D02*
X006640Y002723D01*
X007732Y002723D02*
X009116Y002723D01*
X000869Y002801D02*
X000626Y002801D01*
X001146Y002801D02*
X001226Y002801D01*
X001503Y002801D02*
X004496Y002801D01*
X004876Y002801D02*
X006719Y002801D01*
X007653Y002801D02*
X009116Y002801D01*
X004496Y002880D02*
X000626Y002880D01*
X004876Y002880D02*
X006797Y002880D01*
X007574Y002880D02*
X009116Y002880D01*
X004496Y002958D02*
X000626Y002958D01*
X004876Y002958D02*
X009116Y002958D01*
X004496Y003037D02*
X000626Y003037D01*
X004876Y003037D02*
X009116Y003037D01*
X004496Y003115D02*
X000626Y003115D01*
X004876Y003115D02*
X009116Y003115D01*
X004496Y003194D02*
X000626Y003194D01*
X004876Y003194D02*
X009116Y003194D01*
X004496Y003272D02*
X000626Y003272D01*
X004876Y003272D02*
X009116Y003272D01*
X004496Y003351D02*
X000626Y003351D01*
X004876Y003351D02*
X009116Y003351D01*
X004496Y003430D02*
X000626Y003430D01*
X004876Y003430D02*
X009116Y003430D01*
X004496Y003508D02*
X000626Y003508D01*
X004876Y003508D02*
X009116Y003508D01*
X004496Y003587D02*
X000626Y003587D01*
X004876Y003587D02*
X009116Y003587D01*
X004496Y003665D02*
X000626Y003665D01*
X004876Y003665D02*
X009116Y003665D01*
X003111Y003744D02*
X000626Y003744D01*
X003643Y003744D02*
X003681Y003744D01*
X004214Y003744D02*
X004496Y003744D01*
X004876Y003744D02*
X005153Y003744D01*
X006266Y003744D02*
X007697Y003744D01*
X008475Y003744D02*
X009116Y003744D01*
X003089Y003822D02*
X000626Y003822D01*
X003643Y003822D02*
X003681Y003822D01*
X004235Y003822D02*
X004496Y003822D01*
X004876Y003822D02*
X005137Y003822D01*
X006283Y003822D02*
X007618Y003822D01*
X008554Y003822D02*
X009116Y003822D01*
X003089Y003901D02*
X000626Y003901D01*
X003643Y003901D02*
X003681Y003901D01*
X004235Y003901D02*
X004496Y003901D01*
X004876Y003901D02*
X005137Y003901D01*
X006283Y003901D02*
X007540Y003901D01*
X008632Y003901D02*
X009116Y003901D01*
X003089Y003979D02*
X000626Y003979D01*
X004235Y003979D02*
X004496Y003979D01*
X004876Y003979D02*
X005137Y003979D01*
X006283Y003979D02*
X007461Y003979D01*
X008711Y003979D02*
X009116Y003979D01*
X000872Y004058D02*
X000626Y004058D01*
X001146Y004058D02*
X001226Y004058D01*
X001500Y004058D02*
X001868Y004058D01*
X002503Y004058D02*
X003089Y004058D01*
X004235Y004058D02*
X004496Y004058D01*
X004876Y004058D02*
X005137Y004058D01*
X006283Y004058D02*
X007383Y004058D01*
X008789Y004058D02*
X009116Y004058D01*
X000849Y004136D02*
X000626Y004136D01*
X001146Y004136D02*
X001226Y004136D01*
X001523Y004136D02*
X001849Y004136D01*
X002523Y004136D02*
X003115Y004136D01*
X004210Y004136D02*
X004467Y004136D01*
X004876Y004136D02*
X005160Y004136D01*
X006259Y004136D02*
X007321Y004136D01*
X008851Y004136D02*
X009116Y004136D01*
X000849Y004215D02*
X000626Y004215D01*
X001146Y004215D02*
X001226Y004215D01*
X001523Y004215D02*
X001849Y004215D01*
X002523Y004215D02*
X003135Y004215D01*
X004190Y004215D02*
X004389Y004215D01*
X004876Y004215D02*
X005182Y004215D01*
X006237Y004215D02*
X007321Y004215D01*
X008851Y004215D02*
X009116Y004215D01*
X000849Y004294D02*
X000626Y004294D01*
X001146Y004294D02*
X001226Y004294D01*
X001523Y004294D02*
X001849Y004294D01*
X004848Y004294D02*
X005137Y004294D01*
X008851Y004294D02*
X009116Y004294D01*
X001146Y004372D02*
X000626Y004372D01*
X001226Y004372D02*
X001849Y004372D01*
X004769Y004372D02*
X005137Y004372D01*
X008851Y004372D02*
X009116Y004372D01*
X000849Y004451D02*
X000626Y004451D01*
X001523Y004451D02*
X001849Y004451D01*
X004690Y004451D02*
X005137Y004451D01*
X008851Y004451D02*
X009116Y004451D01*
X000849Y004529D02*
X000626Y004529D01*
X001523Y004529D02*
X001849Y004529D01*
X004612Y004529D02*
X005137Y004529D01*
X008851Y004529D02*
X009116Y004529D01*
X000855Y004608D02*
X000626Y004608D01*
X001517Y004608D02*
X001849Y004608D01*
X004533Y004608D02*
X005137Y004608D01*
X008851Y004608D02*
X009116Y004608D01*
X000909Y004686D02*
X000626Y004686D01*
X001462Y004686D02*
X001909Y004686D01*
X004162Y004686D02*
X005210Y004686D01*
X006209Y004686D02*
X007321Y004686D01*
X008851Y004686D02*
X009116Y004686D01*
X000849Y004765D02*
X000626Y004765D01*
X001523Y004765D02*
X001849Y004765D01*
X004235Y004765D02*
X005137Y004765D01*
X006833Y004765D02*
X007332Y004765D01*
X008839Y004765D02*
X009116Y004765D01*
X000849Y004843D02*
X000626Y004843D01*
X004235Y004843D02*
X005137Y004843D01*
X006912Y004843D02*
X007411Y004843D01*
X008761Y004843D02*
X009116Y004843D01*
X000849Y004922D02*
X000626Y004922D01*
X004235Y004922D02*
X005137Y004922D01*
X006990Y004922D02*
X007490Y004922D01*
X008682Y004922D02*
X009116Y004922D01*
X000849Y005000D02*
X000626Y005000D01*
X004235Y005000D02*
X005137Y005000D01*
X007069Y005000D02*
X007568Y005000D01*
X008604Y005000D02*
X009116Y005000D01*
X000849Y005079D02*
X000626Y005079D01*
X004235Y005079D02*
X005137Y005079D01*
X007147Y005079D02*
X007647Y005079D01*
X008525Y005079D02*
X009116Y005079D01*
X000849Y005158D02*
X000626Y005158D01*
X002523Y005158D02*
X003134Y005158D01*
X004190Y005158D02*
X005182Y005158D01*
X006238Y005158D02*
X006688Y005158D01*
X007226Y005158D02*
X007725Y005158D01*
X008447Y005158D02*
X009116Y005158D01*
X000849Y005236D02*
X000626Y005236D01*
X001523Y005236D02*
X001849Y005236D01*
X002523Y005236D02*
X003114Y005236D01*
X004211Y005236D02*
X005161Y005236D01*
X006258Y005236D02*
X006767Y005236D01*
X007304Y005236D02*
X009116Y005236D01*
X000868Y005315D02*
X000626Y005315D01*
X001504Y005315D02*
X001868Y005315D01*
X002504Y005315D02*
X003089Y005315D01*
X004235Y005315D02*
X005137Y005315D01*
X006283Y005315D02*
X006845Y005315D01*
X007383Y005315D02*
X009116Y005315D01*
X000996Y005393D02*
X000626Y005393D01*
X001376Y005393D02*
X003089Y005393D01*
X004235Y005393D02*
X005137Y005393D01*
X006283Y005393D02*
X006924Y005393D01*
X007461Y005393D02*
X009116Y005393D01*
X000996Y005472D02*
X000626Y005472D01*
X001376Y005472D02*
X003089Y005472D01*
X004235Y005472D02*
X005137Y005472D01*
X006283Y005472D02*
X007003Y005472D01*
X007540Y005472D02*
X009116Y005472D01*
X000876Y005550D02*
X000626Y005550D01*
X001496Y005550D02*
X003089Y005550D01*
X004235Y005550D02*
X005137Y005550D01*
X006283Y005550D02*
X007081Y005550D01*
X007618Y005550D02*
X007740Y005550D01*
X008432Y005550D02*
X009116Y005550D01*
X000829Y005629D02*
X000626Y005629D01*
X001542Y005629D02*
X003106Y005629D01*
X004219Y005629D02*
X005153Y005629D01*
X006266Y005629D02*
X007160Y005629D01*
X008510Y005629D02*
X009116Y005629D01*
X000829Y005707D02*
X000626Y005707D01*
X001542Y005707D02*
X007238Y005707D01*
X008589Y005707D02*
X009116Y005707D01*
X000829Y005786D02*
X000626Y005786D01*
X001542Y005786D02*
X007317Y005786D01*
X008667Y005786D02*
X009116Y005786D01*
X000829Y005864D02*
X000626Y005864D01*
X001542Y005864D02*
X007395Y005864D01*
X008746Y005864D02*
X009116Y005864D01*
X000829Y005943D02*
X000626Y005943D01*
X001542Y005943D02*
X007348Y005943D01*
X008824Y005943D02*
X009116Y005943D01*
X000829Y006021D02*
X000626Y006021D01*
X001542Y006021D02*
X007321Y006021D01*
X008851Y006021D02*
X009116Y006021D01*
X000829Y006100D02*
X000626Y006100D01*
X001542Y006100D02*
X007321Y006100D01*
X008851Y006100D02*
X009116Y006100D01*
X000901Y006179D02*
X000626Y006179D01*
X001471Y006179D02*
X007321Y006179D01*
X008851Y006179D02*
X009116Y006179D01*
X000839Y006257D02*
X000626Y006257D01*
X001533Y006257D02*
X007321Y006257D01*
X008851Y006257D02*
X009116Y006257D01*
X000829Y006336D02*
X000626Y006336D01*
X001542Y006336D02*
X007321Y006336D01*
X008851Y006336D02*
X009116Y006336D01*
X000829Y006414D02*
X000626Y006414D01*
X001542Y006414D02*
X007321Y006414D01*
X008851Y006414D02*
X009116Y006414D01*
X000829Y006493D02*
X000626Y006493D01*
X001542Y006493D02*
X007321Y006493D01*
X008851Y006493D02*
X009116Y006493D01*
X000829Y006571D02*
X000626Y006571D01*
X001542Y006571D02*
X007321Y006571D01*
X008851Y006571D02*
X009116Y006571D01*
X000829Y006650D02*
X000626Y006650D01*
X001542Y006650D02*
X007368Y006650D01*
X008804Y006650D02*
X009116Y006650D01*
X000829Y006728D02*
X000626Y006728D01*
X001542Y006728D02*
X007446Y006728D01*
X008726Y006728D02*
X009116Y006728D01*
X000834Y006807D02*
X000626Y006807D01*
X001538Y006807D02*
X007525Y006807D01*
X008647Y006807D02*
X009116Y006807D01*
X000755Y006885D02*
X000626Y006885D01*
X001617Y006885D02*
X007603Y006885D01*
X008569Y006885D02*
X009116Y006885D01*
X000677Y006964D02*
X000626Y006964D01*
X001695Y006964D02*
X007682Y006964D01*
X008490Y006964D02*
X009116Y006964D01*
X007760Y007043D02*
X001774Y007043D01*
X008412Y007043D02*
X009116Y007043D01*
X009116Y007121D02*
X001852Y007121D01*
X001931Y007200D02*
X009116Y007200D01*
X009116Y007278D02*
X001951Y007278D01*
X001951Y007357D02*
X009116Y007357D01*
X009116Y007435D02*
X001951Y007435D01*
X001951Y007514D02*
X009116Y007514D01*
X009116Y007592D02*
X001951Y007592D01*
X001951Y007671D02*
X009116Y007671D01*
X009116Y007749D02*
X001951Y007749D01*
X001951Y007828D02*
X009116Y007828D01*
X009116Y007907D02*
X001898Y007907D01*
X001819Y007985D02*
X009116Y007985D01*
X009116Y008064D02*
X001741Y008064D01*
X001662Y008142D02*
X009116Y008142D01*
X009116Y008221D02*
X001584Y008221D01*
M02*
