G75*
G70*
%OFA0B0*%
%FSLAX24Y24*%
%IPPOS*%
%LPD*%
%AMOC8*
5,1,8,0,0,1.08239X$1,22.5*
%
%ADD10R,0.0866X0.0236*%
%ADD11OC8,0.0560*%
%ADD12OC8,0.0630*%
%ADD13OC8,0.0850*%
%ADD14R,0.0394X0.0433*%
%ADD15R,0.0433X0.0394*%
%ADD16C,0.0080*%
%ADD17C,0.0160*%
%ADD18C,0.0000*%
D10*
X005245Y004261D03*
X007292Y004261D03*
X005245Y004761D03*
X005245Y003761D03*
X005245Y003261D03*
X007292Y004761D03*
X007292Y003761D03*
X007292Y003261D03*
X011142Y003761D03*
X009095Y003761D03*
X011142Y003261D03*
X011142Y004261D03*
X011142Y004761D03*
X009095Y003261D03*
X009095Y004261D03*
X009095Y004761D03*
D11*
X005268Y005511D03*
X006218Y004236D03*
X006193Y002436D03*
X006193Y003336D03*
X006193Y001536D03*
X006218Y006211D03*
D12*
X007468Y005511D03*
X004018Y005886D03*
X004018Y002136D03*
D13*
X008268Y001711D03*
X007268Y002461D03*
X012093Y006036D03*
X010868Y006036D03*
X001143Y003386D03*
X001143Y004636D03*
X013318Y001711D03*
X013368Y002961D03*
X010393Y001711D03*
X009718Y005986D03*
D14*
X003643Y003677D03*
X003643Y004346D03*
X006059Y005511D03*
X006728Y005511D03*
X001934Y002011D03*
X002603Y002011D03*
X001809Y005886D03*
X002478Y005886D03*
X013528Y004736D03*
X012859Y004736D03*
X012859Y003886D03*
X013528Y003886D03*
D15*
X002978Y004511D03*
X002309Y004511D03*
X002309Y003511D03*
X002978Y003511D03*
X009578Y002511D03*
X008909Y002511D03*
X012118Y003177D03*
X012118Y003846D03*
D16*
X014354Y000921D02*
X000303Y000921D01*
X000303Y001945D01*
X000803Y002445D01*
X000803Y002578D01*
X000710Y002671D01*
X000577Y002671D01*
X000303Y002398D01*
X000303Y005625D01*
X000577Y005351D01*
X000710Y005351D01*
X000803Y005445D01*
X000803Y005578D01*
X000303Y006078D01*
X000303Y006848D01*
X014354Y006851D01*
X014354Y000921D01*
X013428Y006309D02*
X013428Y005589D01*
X013465Y005500D01*
X013532Y005433D01*
X013621Y005396D01*
X013716Y005396D01*
X013804Y005433D01*
X013872Y005500D01*
X013908Y005589D01*
X013908Y006309D01*
X013872Y006397D01*
X013804Y006465D01*
X013716Y006501D01*
X013621Y006501D01*
X013532Y006465D01*
X013465Y006397D01*
X013428Y006309D01*
X006633Y001354D02*
X006633Y001719D01*
X006376Y001976D01*
X006011Y001976D01*
X005753Y001719D01*
X005753Y001354D01*
X006011Y001096D01*
X006376Y001096D01*
X006633Y001354D01*
X011859Y005471D02*
X012053Y005471D01*
X012053Y005996D01*
X012133Y005996D01*
X012133Y005471D01*
X012327Y005471D01*
X012658Y005802D01*
X012658Y005996D01*
X012134Y005996D01*
X012134Y006076D01*
X012658Y006076D01*
X012658Y006270D01*
X012327Y006601D01*
X012133Y006601D01*
X012133Y006077D01*
X012053Y006077D01*
X012053Y006601D01*
X011859Y006601D01*
X011528Y006270D01*
X011528Y006076D01*
X012053Y006076D01*
X012053Y005996D01*
X011528Y005996D01*
X011528Y005802D01*
X011859Y005471D01*
X013568Y004243D02*
X013568Y003927D01*
X013488Y003927D01*
X013488Y004243D01*
X013313Y004243D01*
X013277Y004233D01*
X013245Y004215D01*
X013219Y004189D01*
X013211Y004174D01*
X013122Y004263D01*
X012731Y004263D01*
X012826Y004360D01*
X013122Y004360D01*
X013211Y004449D01*
X013219Y004434D01*
X013245Y004408D01*
X013277Y004389D01*
X013313Y004380D01*
X013488Y004380D01*
X013488Y004696D01*
X013568Y004696D01*
X013568Y004380D01*
X013743Y004380D01*
X013779Y004389D01*
X013811Y004408D01*
X013837Y004434D01*
X013855Y004466D01*
X013865Y004501D01*
X013865Y004696D01*
X013568Y004696D01*
X013568Y004776D01*
X013865Y004776D01*
X013865Y004971D01*
X013855Y005007D01*
X013837Y005039D01*
X013811Y005065D01*
X013779Y005083D01*
X013743Y005093D01*
X013568Y005093D01*
X013568Y004777D01*
X013488Y004777D01*
X013488Y005093D01*
X013313Y005093D01*
X013277Y005083D01*
X013245Y005065D01*
X013219Y005039D01*
X013211Y005024D01*
X013122Y005113D01*
X012596Y005113D01*
X012502Y005019D01*
X012502Y004715D01*
X012293Y004501D01*
X011680Y004501D01*
X011654Y004527D01*
X011661Y004531D01*
X011687Y004557D01*
X011706Y004589D01*
X011715Y004625D01*
X011715Y004742D01*
X011161Y004742D01*
X011161Y004780D01*
X011715Y004780D01*
X011715Y004898D01*
X011706Y004934D01*
X011687Y004965D01*
X011661Y004992D01*
X011629Y005010D01*
X011594Y005019D01*
X011161Y005019D01*
X011161Y004781D01*
X011123Y004781D01*
X011123Y005019D01*
X010691Y005019D01*
X010655Y005010D01*
X010623Y004992D01*
X010597Y004965D01*
X010579Y004934D01*
X010569Y004898D01*
X010569Y004780D01*
X011123Y004780D01*
X011123Y004742D01*
X010569Y004742D01*
X010569Y004625D01*
X010579Y004589D01*
X010597Y004557D01*
X010623Y004531D01*
X010630Y004527D01*
X010605Y004501D01*
X010596Y004501D01*
X010521Y004501D01*
X010295Y004408D01*
X010295Y004408D01*
X010122Y004235D01*
X010122Y004235D01*
X010122Y004235D01*
X010028Y004009D01*
X010028Y004009D01*
X010028Y003934D01*
X010028Y002886D01*
X010026Y002860D01*
X010006Y002811D01*
X009968Y002774D01*
X009955Y002768D01*
X009955Y002775D01*
X009861Y002868D01*
X009295Y002868D01*
X009243Y002816D01*
X009192Y002868D01*
X008626Y002868D01*
X008532Y002775D01*
X008532Y002751D01*
X008518Y002751D01*
X008492Y002754D01*
X008443Y002774D01*
X008406Y002811D01*
X008386Y002860D01*
X008383Y002886D01*
X008383Y002925D01*
X008383Y002934D01*
X008383Y003559D01*
X008383Y003559D01*
X008383Y003609D01*
X008383Y003609D01*
X008309Y003789D01*
X008309Y003789D01*
X008171Y003927D01*
X008171Y003927D01*
X007991Y004001D01*
X007991Y004001D01*
X007941Y004001D01*
X007941Y004001D01*
X007894Y004001D01*
X007893Y004001D01*
X007846Y004001D01*
X007830Y004001D01*
X007819Y004011D01*
X007829Y004021D01*
X008191Y004021D01*
X008279Y004058D01*
X008347Y004125D01*
X008383Y004214D01*
X008383Y004309D01*
X008383Y004896D01*
X008502Y004896D01*
X008502Y004577D01*
X008567Y004511D01*
X008502Y004446D01*
X008502Y004077D01*
X008567Y004011D01*
X008502Y003946D01*
X008502Y003577D01*
X008567Y003511D01*
X008502Y003446D01*
X008502Y003077D01*
X008595Y002983D01*
X009594Y002983D01*
X009632Y003021D01*
X009696Y003021D01*
X009791Y003021D01*
X009879Y003058D01*
X009947Y003125D01*
X009983Y003214D01*
X009983Y005089D01*
X009983Y005424D01*
X010303Y005744D01*
X010303Y005771D01*
X010306Y005771D01*
X010626Y005451D01*
X011111Y005451D01*
X011453Y005794D01*
X011453Y006279D01*
X011111Y006621D01*
X010626Y006621D01*
X010283Y006279D01*
X010283Y006251D01*
X010281Y006251D01*
X009961Y006571D01*
X009476Y006571D01*
X009133Y006229D01*
X009133Y005744D01*
X009476Y005401D01*
X009503Y005401D01*
X009503Y005376D01*
X008096Y005376D01*
X008007Y005340D01*
X007940Y005272D01*
X007903Y005184D01*
X007903Y005089D01*
X007903Y004501D01*
X007829Y004501D01*
X007819Y004511D01*
X007885Y004577D01*
X007885Y004946D01*
X007791Y005039D01*
X007668Y005039D01*
X007943Y005315D01*
X007943Y005708D01*
X007665Y005986D01*
X007272Y005986D01*
X007082Y005797D01*
X006991Y005888D01*
X006517Y005888D01*
X006658Y006029D01*
X006658Y006394D01*
X006401Y006651D01*
X006036Y006651D01*
X005778Y006394D01*
X005778Y006029D01*
X005920Y005888D01*
X005796Y005888D01*
X005702Y005794D01*
X005702Y005751D01*
X005651Y005751D01*
X005451Y005951D01*
X005086Y005951D01*
X004828Y005694D01*
X004828Y005329D01*
X005086Y005071D01*
X005451Y005071D01*
X005651Y005271D01*
X005702Y005271D01*
X005702Y005229D01*
X005796Y005135D01*
X005819Y005135D01*
X005819Y005001D01*
X005782Y005001D01*
X005744Y005039D01*
X004745Y005039D01*
X004652Y004946D01*
X004652Y004577D01*
X004717Y004511D01*
X004707Y004501D01*
X004000Y004501D01*
X004000Y004629D01*
X003907Y004723D01*
X003883Y004723D01*
X003883Y005411D01*
X004215Y005411D01*
X004493Y005690D01*
X004493Y006083D01*
X004215Y006361D01*
X003822Y006361D01*
X003543Y006083D01*
X003543Y006028D01*
X003490Y006192D01*
X003490Y006192D01*
X003267Y006455D01*
X003267Y006455D01*
X003267Y006455D01*
X002959Y006612D01*
X002959Y006612D01*
X002825Y006623D01*
X002816Y006626D01*
X002778Y006626D01*
X002740Y006629D01*
X002731Y006626D01*
X001721Y006626D01*
X001632Y006590D01*
X001565Y006522D01*
X001528Y006434D01*
X001528Y006339D01*
X001528Y006251D01*
X001471Y006251D01*
X001396Y006251D01*
X001396Y006251D01*
X001170Y006158D01*
X001170Y006158D01*
X000997Y005985D01*
X000997Y005985D01*
X000903Y005759D01*
X000903Y005759D01*
X000903Y005684D01*
X000903Y005221D01*
X000901Y005221D01*
X000558Y004879D01*
X000558Y004394D01*
X000901Y004051D01*
X001386Y004051D01*
X001728Y004394D01*
X001728Y004879D01*
X001386Y005221D01*
X001383Y005221D01*
X001383Y005636D01*
X001386Y005663D01*
X001406Y005711D01*
X001443Y005749D01*
X001452Y005752D01*
X001452Y005604D01*
X001528Y005527D01*
X001528Y005434D01*
X001528Y005339D01*
X001565Y005250D01*
X001632Y005183D01*
X001721Y005146D01*
X002403Y005146D01*
X002403Y004964D01*
X002440Y004875D01*
X002467Y004848D01*
X002349Y004848D01*
X002349Y004552D01*
X002269Y004552D01*
X002269Y004848D01*
X002074Y004848D01*
X002038Y004839D01*
X002006Y004820D01*
X001980Y004794D01*
X001962Y004762D01*
X001952Y004727D01*
X001952Y004551D01*
X002269Y004551D01*
X002269Y004471D01*
X001952Y004471D01*
X001952Y004296D01*
X001962Y004261D01*
X001980Y004229D01*
X002006Y004203D01*
X002038Y004184D01*
X002074Y004175D01*
X002269Y004175D01*
X002269Y004471D01*
X002349Y004471D01*
X002349Y004175D01*
X002544Y004175D01*
X002579Y004184D01*
X002611Y004203D01*
X002629Y004221D01*
X002695Y004155D01*
X003261Y004155D01*
X003287Y004180D01*
X003287Y004063D01*
X003338Y004011D01*
X003287Y003960D01*
X003287Y003842D01*
X003261Y003868D01*
X002695Y003868D01*
X002629Y003802D01*
X002611Y003820D01*
X002579Y003839D01*
X002544Y003848D01*
X002349Y003848D01*
X002349Y003552D01*
X002269Y003552D01*
X002269Y003848D01*
X002074Y003848D01*
X002038Y003839D01*
X002006Y003820D01*
X001980Y003794D01*
X001962Y003762D01*
X001952Y003727D01*
X001952Y003551D01*
X002269Y003551D01*
X002269Y003471D01*
X001952Y003471D01*
X001952Y003296D01*
X001962Y003261D01*
X001980Y003229D01*
X002006Y003203D01*
X002038Y003184D01*
X002074Y003175D01*
X002269Y003175D01*
X002269Y003471D01*
X002349Y003471D01*
X002349Y003175D01*
X002467Y003175D01*
X002440Y003147D01*
X002403Y003059D01*
X002403Y002751D01*
X001721Y002751D01*
X001632Y002715D01*
X001565Y002647D01*
X001528Y002559D01*
X001528Y002464D01*
X001528Y002251D01*
X001518Y002251D01*
X001492Y002254D01*
X001443Y002274D01*
X001443Y002274D01*
X001406Y002311D01*
X001386Y002360D01*
X001383Y002386D01*
X001383Y002434D01*
X001383Y002801D01*
X001386Y002801D01*
X001728Y003144D01*
X001728Y003629D01*
X001386Y003971D01*
X000901Y003971D01*
X000558Y003629D01*
X000558Y003144D01*
X000901Y002801D01*
X000903Y002801D01*
X000903Y002434D01*
X000903Y002386D01*
X000903Y002264D01*
X000903Y002264D01*
X000997Y002038D01*
X000997Y002038D01*
X001170Y001865D01*
X001396Y001771D01*
X001471Y001771D01*
X001528Y001771D01*
X001528Y001559D01*
X001528Y001464D01*
X001565Y001375D01*
X001632Y001308D01*
X001721Y001271D01*
X002754Y001271D01*
X002889Y001255D01*
X002889Y001255D01*
X003179Y001336D01*
X003179Y001336D01*
X003415Y001521D01*
X003416Y001521D01*
X003416Y001521D01*
X003563Y001783D01*
X003563Y001783D01*
X003578Y001900D01*
X003579Y001904D01*
X003822Y001661D01*
X004215Y001661D01*
X004493Y001940D01*
X004493Y002333D01*
X004215Y002611D01*
X003883Y002611D01*
X003883Y003300D01*
X003907Y003300D01*
X004000Y003394D01*
X004000Y003521D01*
X004707Y003521D01*
X004733Y003496D01*
X004726Y003492D01*
X004700Y003465D01*
X004681Y003434D01*
X004672Y003398D01*
X004672Y003280D01*
X005226Y003280D01*
X005226Y003242D01*
X004672Y003242D01*
X004672Y003125D01*
X004681Y003089D01*
X004700Y003057D01*
X004726Y003031D01*
X004758Y003013D01*
X004793Y003003D01*
X005226Y003003D01*
X005226Y003242D01*
X005264Y003242D01*
X005264Y003003D01*
X005696Y003003D01*
X005732Y003013D01*
X005764Y003031D01*
X005790Y003057D01*
X005808Y003089D01*
X005810Y003097D01*
X006011Y002896D01*
X006376Y002896D01*
X006633Y003154D01*
X006633Y003519D01*
X006376Y003776D01*
X006011Y003776D01*
X005838Y003603D01*
X005838Y003946D01*
X005772Y004011D01*
X005797Y004036D01*
X006036Y003796D01*
X006401Y003796D01*
X006658Y004054D01*
X006658Y004419D01*
X006401Y004676D01*
X006283Y004676D01*
X006299Y004714D01*
X006299Y005135D01*
X006322Y005135D01*
X006393Y005206D01*
X006465Y005135D01*
X006488Y005135D01*
X006488Y004714D01*
X006525Y004625D01*
X006592Y004558D01*
X006680Y004521D01*
X006755Y004521D01*
X006765Y004511D01*
X006699Y004446D01*
X006699Y004077D01*
X006765Y004011D01*
X006699Y003946D01*
X006699Y003577D01*
X006765Y003511D01*
X006699Y003446D01*
X006699Y003077D01*
X006793Y002983D01*
X006963Y002983D01*
X006683Y002704D01*
X006683Y002219D01*
X007026Y001876D01*
X007511Y001876D01*
X007853Y002219D01*
X007853Y002704D01*
X007574Y002983D01*
X007791Y002983D01*
X007885Y003077D01*
X007885Y003446D01*
X007819Y003511D01*
X007830Y003521D01*
X007846Y003521D01*
X007893Y003521D01*
X007895Y003521D01*
X007899Y003520D01*
X007902Y003517D01*
X007903Y003513D01*
X007903Y003511D01*
X007903Y002934D01*
X007903Y002925D01*
X007903Y002839D01*
X007903Y002764D01*
X007903Y002764D01*
X007997Y002538D01*
X007997Y002538D01*
X008170Y002365D01*
X008170Y002365D01*
X008336Y002296D01*
X008026Y002296D01*
X007683Y001954D01*
X007683Y001469D01*
X008026Y001126D01*
X008511Y001126D01*
X008853Y001469D01*
X008853Y001471D01*
X008861Y001471D01*
X008957Y001471D01*
X009045Y001508D01*
X009112Y001575D01*
X009149Y001664D01*
X009149Y002155D01*
X009192Y002155D01*
X009243Y002206D01*
X009278Y002171D01*
X009278Y001809D01*
X009278Y001714D01*
X009315Y001625D01*
X009382Y001558D01*
X009471Y001521D01*
X009808Y001521D01*
X009808Y001469D01*
X010151Y001126D01*
X010636Y001126D01*
X010978Y001469D01*
X010978Y001954D01*
X010636Y002296D01*
X010151Y002296D01*
X009856Y002001D01*
X009758Y002001D01*
X009758Y002155D01*
X009861Y002155D01*
X009955Y002248D01*
X009955Y002271D01*
X010016Y002271D01*
X010016Y002271D01*
X010242Y002365D01*
X010242Y002365D01*
X010415Y002538D01*
X010415Y002538D01*
X010508Y002764D01*
X010508Y002764D01*
X010508Y002839D01*
X010508Y003887D01*
X010511Y003913D01*
X010531Y003961D01*
X010568Y003999D01*
X010610Y004016D01*
X010615Y004011D01*
X010549Y003946D01*
X010549Y003577D01*
X010615Y003511D01*
X010549Y003446D01*
X010549Y003077D01*
X010643Y002983D01*
X011641Y002983D01*
X011680Y003021D01*
X011742Y003021D01*
X011742Y002914D01*
X011836Y002820D01*
X011903Y002820D01*
X011903Y002089D01*
X011904Y002089D01*
X011904Y002004D01*
X011904Y002004D01*
X012005Y001760D01*
X012005Y001760D01*
X012192Y001573D01*
X012192Y001573D01*
X012436Y001471D01*
X012436Y001471D01*
X012521Y001471D01*
X012521Y001471D01*
X012733Y001471D01*
X012733Y001469D01*
X013076Y001126D01*
X013561Y001126D01*
X013903Y001469D01*
X013903Y001954D01*
X013561Y002296D01*
X013076Y002296D01*
X012733Y001954D01*
X012733Y001951D01*
X012568Y001951D01*
X012532Y001955D01*
X012466Y001983D01*
X012415Y002034D01*
X012387Y002100D01*
X012383Y002136D01*
X012383Y002820D01*
X012401Y002820D01*
X012495Y002914D01*
X012495Y003440D01*
X012423Y003511D01*
X012495Y003583D01*
X012495Y003646D01*
X012502Y003646D01*
X012502Y003604D01*
X012596Y003510D01*
X012653Y003510D01*
X012653Y003434D01*
X012653Y003339D01*
X012690Y003250D01*
X012757Y003183D01*
X012783Y003172D01*
X012783Y002719D01*
X013126Y002376D01*
X013611Y002376D01*
X013953Y002719D01*
X013953Y003204D01*
X013627Y003530D01*
X013743Y003530D01*
X013779Y003539D01*
X013811Y003558D01*
X013837Y003584D01*
X013855Y003616D01*
X013865Y003651D01*
X013865Y003846D01*
X013568Y003846D01*
X013568Y003926D01*
X013865Y003926D01*
X013865Y004121D01*
X013855Y004157D01*
X013837Y004189D01*
X013811Y004215D01*
X013779Y004233D01*
X013743Y004243D01*
X013568Y004243D01*
X006633Y002254D02*
X006633Y002619D01*
X006376Y002876D01*
X006011Y002876D01*
X005753Y002619D01*
X005753Y002254D01*
X006011Y001996D01*
X006376Y001996D01*
X006633Y002254D01*
X000303Y000955D02*
X014354Y000955D01*
X014354Y001033D02*
X000303Y001033D01*
X000303Y001112D02*
X005996Y001112D01*
X006391Y001112D02*
X014354Y001112D01*
X005917Y001190D02*
X000303Y001190D01*
X006470Y001190D02*
X007962Y001190D01*
X008575Y001190D02*
X010087Y001190D01*
X010700Y001190D02*
X013012Y001190D01*
X013625Y001190D02*
X014354Y001190D01*
X002774Y001269D02*
X000303Y001269D01*
X002939Y001269D02*
X005839Y001269D01*
X006548Y001269D02*
X007884Y001269D01*
X008653Y001269D02*
X010009Y001269D01*
X010778Y001269D02*
X012934Y001269D01*
X013703Y001269D02*
X014354Y001269D01*
X001593Y001347D02*
X000303Y001347D01*
X003194Y001347D02*
X005760Y001347D01*
X006627Y001347D02*
X007805Y001347D01*
X008732Y001347D02*
X009930Y001347D01*
X010857Y001347D02*
X012855Y001347D01*
X013782Y001347D02*
X014354Y001347D01*
X001544Y001426D02*
X000303Y001426D01*
X003294Y001426D02*
X005753Y001426D01*
X006633Y001426D02*
X007727Y001426D01*
X008810Y001426D02*
X009852Y001426D01*
X010935Y001426D02*
X012777Y001426D01*
X013860Y001426D02*
X014354Y001426D01*
X001528Y001505D02*
X000303Y001505D01*
X003394Y001505D02*
X005753Y001505D01*
X006633Y001505D02*
X007683Y001505D01*
X009036Y001505D02*
X009808Y001505D01*
X010978Y001505D02*
X012356Y001505D01*
X013903Y001505D02*
X014354Y001505D01*
X001528Y001583D02*
X000303Y001583D01*
X003451Y001583D02*
X005753Y001583D01*
X006633Y001583D02*
X007683Y001583D01*
X009115Y001583D02*
X009357Y001583D01*
X010978Y001583D02*
X012181Y001583D01*
X013903Y001583D02*
X014354Y001583D01*
X001528Y001662D02*
X000303Y001662D01*
X003495Y001662D02*
X003821Y001662D01*
X004215Y001662D02*
X005753Y001662D01*
X006633Y001662D02*
X007683Y001662D01*
X009148Y001662D02*
X009300Y001662D01*
X010978Y001662D02*
X012103Y001662D01*
X013903Y001662D02*
X014354Y001662D01*
X001528Y001740D02*
X000303Y001740D01*
X003539Y001740D02*
X003743Y001740D01*
X004294Y001740D02*
X005775Y001740D01*
X006612Y001740D02*
X007683Y001740D01*
X009149Y001740D02*
X009278Y001740D01*
X010978Y001740D02*
X012024Y001740D01*
X013903Y001740D02*
X014354Y001740D01*
X001282Y001819D02*
X000303Y001819D01*
X003568Y001819D02*
X003664Y001819D01*
X004372Y001819D02*
X005854Y001819D01*
X006533Y001819D02*
X007683Y001819D01*
X009149Y001819D02*
X009278Y001819D01*
X010978Y001819D02*
X011980Y001819D01*
X013903Y001819D02*
X014354Y001819D01*
X001138Y001897D02*
X000303Y001897D01*
X003577Y001897D02*
X003586Y001897D01*
X004451Y001897D02*
X005932Y001897D01*
X006455Y001897D02*
X007005Y001897D01*
X007532Y001897D02*
X007683Y001897D01*
X009149Y001897D02*
X009278Y001897D01*
X010978Y001897D02*
X011948Y001897D01*
X013903Y001897D02*
X014354Y001897D01*
X001059Y001976D02*
X000334Y001976D01*
X004493Y001976D02*
X006011Y001976D01*
X006376Y001976D02*
X006927Y001976D01*
X007610Y001976D02*
X007706Y001976D01*
X009149Y001976D02*
X009278Y001976D01*
X010956Y001976D02*
X011915Y001976D01*
X012482Y001976D02*
X012756Y001976D01*
X013881Y001976D02*
X014354Y001976D01*
X000990Y002054D02*
X000413Y002054D01*
X004493Y002054D02*
X005953Y002054D01*
X006434Y002054D02*
X006848Y002054D01*
X007689Y002054D02*
X007784Y002054D01*
X009149Y002054D02*
X009278Y002054D01*
X009758Y002054D02*
X009909Y002054D01*
X010878Y002054D02*
X011904Y002054D01*
X012406Y002054D02*
X012834Y002054D01*
X013803Y002054D02*
X014354Y002054D01*
X000958Y002133D02*
X000491Y002133D01*
X004493Y002133D02*
X005875Y002133D01*
X006512Y002133D02*
X006770Y002133D01*
X007767Y002133D02*
X007863Y002133D01*
X009149Y002133D02*
X009278Y002133D01*
X009758Y002133D02*
X009988Y002133D01*
X010799Y002133D02*
X011903Y002133D01*
X012384Y002133D02*
X012913Y002133D01*
X013724Y002133D02*
X014354Y002133D01*
X000925Y002211D02*
X000570Y002211D01*
X004493Y002211D02*
X005796Y002211D01*
X006591Y002211D02*
X006691Y002211D01*
X007846Y002211D02*
X007941Y002211D01*
X009918Y002211D02*
X010066Y002211D01*
X010721Y002211D02*
X011903Y002211D01*
X012383Y002211D02*
X012991Y002211D01*
X013646Y002211D02*
X014354Y002211D01*
X000903Y002290D02*
X000648Y002290D01*
X001428Y002290D02*
X001528Y002290D01*
X004493Y002290D02*
X005753Y002290D01*
X006633Y002290D02*
X006683Y002290D01*
X007853Y002290D02*
X008020Y002290D01*
X010061Y002290D02*
X010145Y002290D01*
X010642Y002290D02*
X011903Y002290D01*
X012383Y002290D02*
X013070Y002290D01*
X013567Y002290D02*
X014354Y002290D01*
X000903Y002369D02*
X000727Y002369D01*
X001385Y002369D02*
X001528Y002369D01*
X004458Y002369D02*
X005753Y002369D01*
X006633Y002369D02*
X006683Y002369D01*
X007853Y002369D02*
X008167Y002369D01*
X010245Y002369D02*
X011903Y002369D01*
X012383Y002369D02*
X014354Y002369D01*
X000353Y002447D02*
X000303Y002447D01*
X000803Y002447D02*
X000903Y002447D01*
X001383Y002447D02*
X001528Y002447D01*
X004380Y002447D02*
X005753Y002447D01*
X006633Y002447D02*
X006683Y002447D01*
X007853Y002447D02*
X008088Y002447D01*
X010324Y002447D02*
X011903Y002447D01*
X012383Y002447D02*
X013056Y002447D01*
X013681Y002447D02*
X014354Y002447D01*
X000431Y002526D02*
X000303Y002526D01*
X000803Y002526D02*
X000903Y002526D01*
X001383Y002526D02*
X001528Y002526D01*
X004301Y002526D02*
X005753Y002526D01*
X006633Y002526D02*
X006683Y002526D01*
X007853Y002526D02*
X008010Y002526D01*
X010402Y002526D02*
X011903Y002526D01*
X012383Y002526D02*
X012977Y002526D01*
X013760Y002526D02*
X014354Y002526D01*
X000510Y002604D02*
X000303Y002604D01*
X000777Y002604D02*
X000903Y002604D01*
X001383Y002604D02*
X001547Y002604D01*
X004222Y002604D02*
X005753Y002604D01*
X006633Y002604D02*
X006683Y002604D01*
X007853Y002604D02*
X007970Y002604D01*
X010442Y002604D02*
X011903Y002604D01*
X012383Y002604D02*
X012898Y002604D01*
X013838Y002604D02*
X014354Y002604D01*
X000903Y002683D02*
X000303Y002683D01*
X001383Y002683D02*
X001600Y002683D01*
X003883Y002683D02*
X005818Y002683D01*
X006569Y002683D02*
X006683Y002683D01*
X007853Y002683D02*
X007937Y002683D01*
X010475Y002683D02*
X011903Y002683D01*
X012383Y002683D02*
X012820Y002683D01*
X013917Y002683D02*
X014354Y002683D01*
X000903Y002761D02*
X000303Y002761D01*
X001383Y002761D02*
X002403Y002761D01*
X003883Y002761D02*
X005896Y002761D01*
X006491Y002761D02*
X006741Y002761D01*
X007796Y002761D02*
X007905Y002761D01*
X008475Y002761D02*
X008532Y002761D01*
X010507Y002761D02*
X011903Y002761D01*
X012383Y002761D02*
X012783Y002761D01*
X013953Y002761D02*
X014354Y002761D01*
X000863Y002840D02*
X000303Y002840D01*
X001424Y002840D02*
X002403Y002840D01*
X003883Y002840D02*
X005975Y002840D01*
X006412Y002840D02*
X006820Y002840D01*
X007717Y002840D02*
X007903Y002840D01*
X008394Y002840D02*
X008598Y002840D01*
X009220Y002840D02*
X009267Y002840D01*
X009889Y002840D02*
X010017Y002840D01*
X010508Y002840D02*
X011816Y002840D01*
X012421Y002840D02*
X012783Y002840D01*
X013953Y002840D02*
X014354Y002840D01*
X000784Y002918D02*
X000303Y002918D01*
X001503Y002918D02*
X002403Y002918D01*
X003883Y002918D02*
X005989Y002918D01*
X006398Y002918D02*
X006898Y002918D01*
X007639Y002918D02*
X007903Y002918D01*
X008383Y002918D02*
X010028Y002918D01*
X010508Y002918D02*
X011742Y002918D01*
X012495Y002918D02*
X012783Y002918D01*
X013953Y002918D02*
X014354Y002918D01*
X000706Y002997D02*
X000303Y002997D01*
X001581Y002997D02*
X002403Y002997D01*
X003883Y002997D02*
X005911Y002997D01*
X006476Y002997D02*
X006779Y002997D01*
X007805Y002997D02*
X007903Y002997D01*
X008383Y002997D02*
X008582Y002997D01*
X009608Y002997D02*
X010028Y002997D01*
X010508Y002997D02*
X010629Y002997D01*
X011655Y002997D02*
X011742Y002997D01*
X012495Y002997D02*
X012783Y002997D01*
X013953Y002997D02*
X014354Y002997D01*
X000627Y003075D02*
X000303Y003075D01*
X001660Y003075D02*
X002410Y003075D01*
X003883Y003075D02*
X004689Y003075D01*
X005226Y003075D02*
X005264Y003075D01*
X005800Y003075D02*
X005832Y003075D01*
X006555Y003075D02*
X006701Y003075D01*
X007884Y003075D02*
X007903Y003075D01*
X008383Y003075D02*
X008503Y003075D01*
X009897Y003075D02*
X010028Y003075D01*
X010508Y003075D02*
X010551Y003075D01*
X012495Y003075D02*
X012783Y003075D01*
X013953Y003075D02*
X014354Y003075D01*
X000558Y003154D02*
X000303Y003154D01*
X001728Y003154D02*
X002447Y003154D01*
X003883Y003154D02*
X004672Y003154D01*
X005226Y003154D02*
X005264Y003154D01*
X006633Y003154D02*
X006699Y003154D01*
X007885Y003154D02*
X007903Y003154D01*
X008383Y003154D02*
X008502Y003154D01*
X009959Y003154D02*
X010028Y003154D01*
X010508Y003154D02*
X010549Y003154D01*
X012495Y003154D02*
X012783Y003154D01*
X013953Y003154D02*
X014354Y003154D01*
X000558Y003232D02*
X000303Y003232D01*
X001728Y003232D02*
X001978Y003232D01*
X002269Y003232D02*
X002349Y003232D01*
X003883Y003232D02*
X004672Y003232D01*
X005226Y003232D02*
X005264Y003232D01*
X006633Y003232D02*
X006699Y003232D01*
X007885Y003232D02*
X007903Y003232D01*
X008383Y003232D02*
X008502Y003232D01*
X009983Y003232D02*
X010028Y003232D01*
X010508Y003232D02*
X010549Y003232D01*
X012495Y003232D02*
X012708Y003232D01*
X013925Y003232D02*
X014354Y003232D01*
X000558Y003311D02*
X000303Y003311D01*
X001728Y003311D02*
X001952Y003311D01*
X002269Y003311D02*
X002349Y003311D01*
X003917Y003311D02*
X004672Y003311D01*
X006633Y003311D02*
X006699Y003311D01*
X007885Y003311D02*
X007903Y003311D01*
X008383Y003311D02*
X008502Y003311D01*
X009983Y003311D02*
X010028Y003311D01*
X010508Y003311D02*
X010549Y003311D01*
X012495Y003311D02*
X012665Y003311D01*
X013846Y003311D02*
X014354Y003311D01*
X000558Y003390D02*
X000303Y003390D01*
X001728Y003390D02*
X001952Y003390D01*
X002269Y003390D02*
X002349Y003390D01*
X003996Y003390D02*
X004672Y003390D01*
X006633Y003390D02*
X006699Y003390D01*
X007885Y003390D02*
X007903Y003390D01*
X008383Y003390D02*
X008502Y003390D01*
X009983Y003390D02*
X010028Y003390D01*
X010508Y003390D02*
X010549Y003390D01*
X012495Y003390D02*
X012653Y003390D01*
X013768Y003390D02*
X014354Y003390D01*
X000558Y003468D02*
X000303Y003468D01*
X001728Y003468D02*
X001952Y003468D01*
X002269Y003468D02*
X002349Y003468D01*
X004000Y003468D02*
X004702Y003468D01*
X006633Y003468D02*
X006721Y003468D01*
X007863Y003468D02*
X007903Y003468D01*
X008383Y003468D02*
X008524Y003468D01*
X009983Y003468D02*
X010028Y003468D01*
X010508Y003468D02*
X010571Y003468D01*
X012467Y003468D02*
X012653Y003468D01*
X013689Y003468D02*
X014354Y003468D01*
X000558Y003547D02*
X000303Y003547D01*
X001728Y003547D02*
X002269Y003547D01*
X006605Y003547D02*
X006729Y003547D01*
X008383Y003547D02*
X008532Y003547D01*
X009983Y003547D02*
X010028Y003547D01*
X010508Y003547D02*
X010579Y003547D01*
X012459Y003547D02*
X012559Y003547D01*
X013791Y003547D02*
X014354Y003547D01*
X000558Y003625D02*
X000303Y003625D01*
X001728Y003625D02*
X001952Y003625D01*
X002269Y003625D02*
X002349Y003625D01*
X005838Y003625D02*
X005860Y003625D01*
X006527Y003625D02*
X006699Y003625D01*
X008377Y003625D02*
X008502Y003625D01*
X009983Y003625D02*
X010028Y003625D01*
X010508Y003625D02*
X010549Y003625D01*
X012495Y003625D02*
X012502Y003625D01*
X013858Y003625D02*
X014354Y003625D01*
X000634Y003704D02*
X000303Y003704D01*
X001653Y003704D02*
X001952Y003704D01*
X002269Y003704D02*
X002349Y003704D01*
X005838Y003704D02*
X005939Y003704D01*
X006448Y003704D02*
X006699Y003704D01*
X008344Y003704D02*
X008502Y003704D01*
X009983Y003704D02*
X010028Y003704D01*
X010508Y003704D02*
X010549Y003704D01*
X013865Y003704D02*
X014354Y003704D01*
X000712Y003782D02*
X000303Y003782D01*
X001575Y003782D02*
X001973Y003782D01*
X002269Y003782D02*
X002349Y003782D01*
X005838Y003782D02*
X006699Y003782D01*
X008312Y003782D02*
X008502Y003782D01*
X009983Y003782D02*
X010028Y003782D01*
X010508Y003782D02*
X010549Y003782D01*
X013865Y003782D02*
X014354Y003782D01*
X000791Y003861D02*
X000303Y003861D01*
X001496Y003861D02*
X002688Y003861D01*
X003268Y003861D02*
X003287Y003861D01*
X005838Y003861D02*
X005972Y003861D01*
X006465Y003861D02*
X006699Y003861D01*
X008237Y003861D02*
X008502Y003861D01*
X009983Y003861D02*
X010028Y003861D01*
X010508Y003861D02*
X010549Y003861D01*
X013568Y003861D02*
X014354Y003861D01*
X000869Y003939D02*
X000303Y003939D01*
X001418Y003939D02*
X003287Y003939D01*
X005838Y003939D02*
X005893Y003939D01*
X006544Y003939D02*
X006699Y003939D01*
X008141Y003939D02*
X008502Y003939D01*
X009983Y003939D02*
X010028Y003939D01*
X010522Y003939D02*
X010549Y003939D01*
X013488Y003939D02*
X013568Y003939D01*
X013865Y003939D02*
X014354Y003939D01*
X003332Y004018D02*
X000303Y004018D01*
X005779Y004018D02*
X005815Y004018D01*
X006622Y004018D02*
X006758Y004018D01*
X007826Y004018D02*
X008561Y004018D01*
X009983Y004018D02*
X010032Y004018D01*
X013488Y004018D02*
X013568Y004018D01*
X013865Y004018D02*
X014354Y004018D01*
X000856Y004096D02*
X000303Y004096D01*
X001431Y004096D02*
X003287Y004096D01*
X006658Y004096D02*
X006699Y004096D01*
X008318Y004096D02*
X008502Y004096D01*
X009983Y004096D02*
X010065Y004096D01*
X013488Y004096D02*
X013568Y004096D01*
X013865Y004096D02*
X014354Y004096D01*
X000778Y004175D02*
X000303Y004175D01*
X001509Y004175D02*
X002072Y004175D01*
X002269Y004175D02*
X002349Y004175D01*
X002545Y004175D02*
X002675Y004175D01*
X003281Y004175D02*
X003287Y004175D01*
X006658Y004175D02*
X006699Y004175D01*
X008367Y004175D02*
X008502Y004175D01*
X009983Y004175D02*
X010097Y004175D01*
X013210Y004175D02*
X013211Y004175D01*
X013488Y004175D02*
X013568Y004175D01*
X013845Y004175D02*
X014354Y004175D01*
X000699Y004254D02*
X000303Y004254D01*
X001588Y004254D02*
X001966Y004254D01*
X002269Y004254D02*
X002349Y004254D01*
X006658Y004254D02*
X006699Y004254D01*
X008383Y004254D02*
X008502Y004254D01*
X009983Y004254D02*
X010141Y004254D01*
X013131Y004254D02*
X014354Y004254D01*
X000620Y004332D02*
X000303Y004332D01*
X001666Y004332D02*
X001952Y004332D01*
X002269Y004332D02*
X002349Y004332D01*
X006658Y004332D02*
X006699Y004332D01*
X008383Y004332D02*
X008502Y004332D01*
X009983Y004332D02*
X010219Y004332D01*
X012799Y004332D02*
X014354Y004332D01*
X000558Y004411D02*
X000303Y004411D01*
X001728Y004411D02*
X001952Y004411D01*
X002269Y004411D02*
X002349Y004411D01*
X006658Y004411D02*
X006699Y004411D01*
X008383Y004411D02*
X008502Y004411D01*
X009983Y004411D02*
X010302Y004411D01*
X013173Y004411D02*
X013242Y004411D01*
X013488Y004411D02*
X013568Y004411D01*
X013814Y004411D02*
X014354Y004411D01*
X000558Y004489D02*
X000303Y004489D01*
X001728Y004489D02*
X002269Y004489D01*
X006588Y004489D02*
X006742Y004489D01*
X008383Y004489D02*
X008545Y004489D01*
X009983Y004489D02*
X010492Y004489D01*
X013488Y004489D02*
X013568Y004489D01*
X013862Y004489D02*
X014354Y004489D01*
X000558Y004568D02*
X000303Y004568D01*
X001728Y004568D02*
X001952Y004568D01*
X002269Y004568D02*
X002349Y004568D01*
X004000Y004568D02*
X004661Y004568D01*
X006509Y004568D02*
X006582Y004568D01*
X007876Y004568D02*
X007903Y004568D01*
X008383Y004568D02*
X008511Y004568D01*
X009983Y004568D02*
X010591Y004568D01*
X011693Y004568D02*
X012358Y004568D01*
X013488Y004568D02*
X013568Y004568D01*
X013865Y004568D02*
X014354Y004568D01*
X000558Y004646D02*
X000303Y004646D01*
X001728Y004646D02*
X001952Y004646D01*
X002269Y004646D02*
X002349Y004646D01*
X003983Y004646D02*
X004652Y004646D01*
X006431Y004646D02*
X006516Y004646D01*
X007885Y004646D02*
X007903Y004646D01*
X008383Y004646D02*
X008502Y004646D01*
X009983Y004646D02*
X010569Y004646D01*
X011715Y004646D02*
X012435Y004646D01*
X013488Y004646D02*
X013568Y004646D01*
X013865Y004646D02*
X014354Y004646D01*
X000558Y004725D02*
X000303Y004725D01*
X001728Y004725D02*
X001952Y004725D01*
X002269Y004725D02*
X002349Y004725D01*
X003883Y004725D02*
X004652Y004725D01*
X006299Y004725D02*
X006488Y004725D01*
X007885Y004725D02*
X007903Y004725D01*
X008383Y004725D02*
X008502Y004725D01*
X009983Y004725D02*
X010569Y004725D01*
X011715Y004725D02*
X012502Y004725D01*
X013568Y004725D02*
X014354Y004725D01*
X000558Y004803D02*
X000303Y004803D01*
X001728Y004803D02*
X001989Y004803D01*
X002269Y004803D02*
X002349Y004803D01*
X003883Y004803D02*
X004652Y004803D01*
X006299Y004803D02*
X006488Y004803D01*
X007885Y004803D02*
X007903Y004803D01*
X008383Y004803D02*
X008502Y004803D01*
X009983Y004803D02*
X010569Y004803D01*
X011123Y004803D02*
X011161Y004803D01*
X011715Y004803D02*
X012502Y004803D01*
X013488Y004803D02*
X013568Y004803D01*
X013865Y004803D02*
X014354Y004803D01*
X000562Y004882D02*
X000303Y004882D01*
X001725Y004882D02*
X002437Y004882D01*
X003883Y004882D02*
X004652Y004882D01*
X006299Y004882D02*
X006488Y004882D01*
X007885Y004882D02*
X007903Y004882D01*
X008383Y004882D02*
X008502Y004882D01*
X009983Y004882D02*
X010569Y004882D01*
X011123Y004882D02*
X011161Y004882D01*
X011715Y004882D02*
X012502Y004882D01*
X013488Y004882D02*
X013568Y004882D01*
X013865Y004882D02*
X014354Y004882D01*
X000640Y004960D02*
X000303Y004960D01*
X001647Y004960D02*
X002405Y004960D01*
X003883Y004960D02*
X004666Y004960D01*
X006299Y004960D02*
X006488Y004960D01*
X007870Y004960D02*
X007903Y004960D01*
X009983Y004960D02*
X010594Y004960D01*
X011123Y004960D02*
X011161Y004960D01*
X011690Y004960D02*
X012502Y004960D01*
X013488Y004960D02*
X013568Y004960D01*
X013865Y004960D02*
X014354Y004960D01*
X000719Y005039D02*
X000303Y005039D01*
X001568Y005039D02*
X002403Y005039D01*
X003883Y005039D02*
X004745Y005039D01*
X005745Y005039D02*
X005819Y005039D01*
X006299Y005039D02*
X006488Y005039D01*
X007792Y005039D02*
X007903Y005039D01*
X009983Y005039D02*
X012522Y005039D01*
X013196Y005039D02*
X013219Y005039D01*
X013488Y005039D02*
X013568Y005039D01*
X013837Y005039D02*
X014354Y005039D01*
X000797Y005118D02*
X000303Y005118D01*
X001490Y005118D02*
X002403Y005118D01*
X003883Y005118D02*
X005040Y005118D01*
X005497Y005118D02*
X005819Y005118D01*
X006299Y005118D02*
X006488Y005118D01*
X007746Y005118D02*
X007903Y005118D01*
X009983Y005118D02*
X014354Y005118D01*
X000876Y005196D02*
X000303Y005196D01*
X001411Y005196D02*
X001619Y005196D01*
X003883Y005196D02*
X004962Y005196D01*
X005575Y005196D02*
X005734Y005196D01*
X006383Y005196D02*
X006404Y005196D01*
X007825Y005196D02*
X007908Y005196D01*
X009983Y005196D02*
X014354Y005196D01*
X000903Y005275D02*
X000303Y005275D01*
X001383Y005275D02*
X001555Y005275D01*
X003883Y005275D02*
X004883Y005275D01*
X007903Y005275D02*
X007942Y005275D01*
X009983Y005275D02*
X014354Y005275D01*
X000575Y005353D02*
X000303Y005353D01*
X000711Y005353D02*
X000903Y005353D01*
X001383Y005353D02*
X001528Y005353D01*
X003883Y005353D02*
X004828Y005353D01*
X007943Y005353D02*
X008040Y005353D01*
X009983Y005353D02*
X014354Y005353D01*
X000497Y005432D02*
X000303Y005432D01*
X000790Y005432D02*
X000903Y005432D01*
X001383Y005432D02*
X001528Y005432D01*
X004235Y005432D02*
X004828Y005432D01*
X007943Y005432D02*
X009446Y005432D01*
X009991Y005432D02*
X013536Y005432D01*
X013801Y005432D02*
X014354Y005432D01*
X000418Y005510D02*
X000303Y005510D01*
X000803Y005510D02*
X000903Y005510D01*
X001383Y005510D02*
X001528Y005510D01*
X004314Y005510D02*
X004828Y005510D01*
X007943Y005510D02*
X009367Y005510D01*
X010070Y005510D02*
X010567Y005510D01*
X011170Y005510D02*
X011821Y005510D01*
X012053Y005510D02*
X012133Y005510D01*
X012366Y005510D02*
X013461Y005510D01*
X013876Y005510D02*
X014354Y005510D01*
X000340Y005589D02*
X000303Y005589D01*
X000792Y005589D02*
X000903Y005589D01*
X001383Y005589D02*
X001467Y005589D01*
X004393Y005589D02*
X004828Y005589D01*
X007943Y005589D02*
X009289Y005589D01*
X010148Y005589D02*
X010489Y005589D01*
X011248Y005589D02*
X011742Y005589D01*
X012053Y005589D02*
X012133Y005589D01*
X012445Y005589D02*
X013428Y005589D01*
X013908Y005589D02*
X014354Y005589D01*
X000903Y005667D02*
X000714Y005667D01*
X001388Y005667D02*
X001452Y005667D01*
X004471Y005667D02*
X004828Y005667D01*
X007943Y005667D02*
X009210Y005667D01*
X010227Y005667D02*
X010410Y005667D01*
X011327Y005667D02*
X011664Y005667D01*
X012053Y005667D02*
X012133Y005667D01*
X012523Y005667D02*
X013428Y005667D01*
X013908Y005667D02*
X014354Y005667D01*
X000903Y005746D02*
X000635Y005746D01*
X001441Y005746D02*
X001452Y005746D01*
X004493Y005746D02*
X004881Y005746D01*
X007906Y005746D02*
X009133Y005746D01*
X010303Y005746D02*
X010332Y005746D01*
X011405Y005746D02*
X011585Y005746D01*
X012053Y005746D02*
X012133Y005746D01*
X012602Y005746D02*
X013428Y005746D01*
X013908Y005746D02*
X014354Y005746D01*
X000931Y005824D02*
X000557Y005824D01*
X004493Y005824D02*
X004959Y005824D01*
X005578Y005824D02*
X005732Y005824D01*
X007055Y005824D02*
X007110Y005824D01*
X007827Y005824D02*
X009133Y005824D01*
X011453Y005824D02*
X011528Y005824D01*
X012053Y005824D02*
X012133Y005824D01*
X012658Y005824D02*
X013428Y005824D01*
X013908Y005824D02*
X014354Y005824D01*
X000963Y005903D02*
X000478Y005903D01*
X004493Y005903D02*
X005038Y005903D01*
X005499Y005903D02*
X005905Y005903D01*
X006532Y005903D02*
X007188Y005903D01*
X007749Y005903D02*
X009133Y005903D01*
X011453Y005903D02*
X011528Y005903D01*
X012053Y005903D02*
X012133Y005903D01*
X012658Y005903D02*
X013428Y005903D01*
X013908Y005903D02*
X014354Y005903D01*
X000996Y005981D02*
X000400Y005981D01*
X004493Y005981D02*
X005826Y005981D01*
X006611Y005981D02*
X007267Y005981D01*
X007670Y005981D02*
X009133Y005981D01*
X011453Y005981D02*
X011528Y005981D01*
X012053Y005981D02*
X012133Y005981D01*
X012658Y005981D02*
X013428Y005981D01*
X013908Y005981D02*
X014354Y005981D01*
X001072Y006060D02*
X000321Y006060D01*
X003533Y006060D02*
X003543Y006060D01*
X004493Y006060D02*
X005778Y006060D01*
X006658Y006060D02*
X009133Y006060D01*
X011453Y006060D02*
X012053Y006060D01*
X012134Y006060D02*
X013428Y006060D01*
X013908Y006060D02*
X014354Y006060D01*
X001151Y006139D02*
X000303Y006139D01*
X003508Y006139D02*
X003599Y006139D01*
X004438Y006139D02*
X005778Y006139D01*
X006658Y006139D02*
X009133Y006139D01*
X011453Y006139D02*
X011528Y006139D01*
X012053Y006139D02*
X012133Y006139D01*
X012658Y006139D02*
X013428Y006139D01*
X013908Y006139D02*
X014354Y006139D01*
X001313Y006217D02*
X000303Y006217D01*
X003469Y006217D02*
X003677Y006217D01*
X004359Y006217D02*
X005778Y006217D01*
X006658Y006217D02*
X009133Y006217D01*
X011453Y006217D02*
X011528Y006217D01*
X012053Y006217D02*
X012133Y006217D01*
X012658Y006217D02*
X013428Y006217D01*
X013908Y006217D02*
X014354Y006217D01*
X001528Y006296D02*
X000303Y006296D01*
X003402Y006296D02*
X003756Y006296D01*
X004281Y006296D02*
X005778Y006296D01*
X006658Y006296D02*
X009200Y006296D01*
X010236Y006296D02*
X010300Y006296D01*
X011436Y006296D02*
X011554Y006296D01*
X012053Y006296D02*
X012133Y006296D01*
X012633Y006296D02*
X013428Y006296D01*
X013908Y006296D02*
X014354Y006296D01*
X001528Y006374D02*
X000303Y006374D01*
X003335Y006374D02*
X005778Y006374D01*
X006658Y006374D02*
X009279Y006374D01*
X010158Y006374D02*
X010379Y006374D01*
X011358Y006374D02*
X011632Y006374D01*
X012053Y006374D02*
X012133Y006374D01*
X012555Y006374D02*
X013455Y006374D01*
X013881Y006374D02*
X014354Y006374D01*
X001536Y006453D02*
X000303Y006453D01*
X003268Y006453D02*
X005838Y006453D01*
X006599Y006453D02*
X009358Y006453D01*
X010079Y006453D02*
X010458Y006453D01*
X011279Y006453D02*
X011711Y006453D01*
X012053Y006453D02*
X012133Y006453D01*
X012476Y006453D02*
X013520Y006453D01*
X013816Y006453D02*
X014354Y006453D01*
X001574Y006531D02*
X000303Y006531D01*
X003117Y006531D02*
X005916Y006531D01*
X006521Y006531D02*
X009436Y006531D01*
X010001Y006531D02*
X010536Y006531D01*
X011201Y006531D02*
X011789Y006531D01*
X012053Y006531D02*
X012133Y006531D01*
X012398Y006531D02*
X014354Y006531D01*
X001681Y006610D02*
X000303Y006610D01*
X002963Y006610D02*
X005995Y006610D01*
X006442Y006610D02*
X010615Y006610D01*
X011122Y006610D02*
X014354Y006610D01*
X014354Y006688D02*
X000303Y006688D01*
X000303Y006767D02*
X014354Y006767D01*
X014354Y006845D02*
X000303Y006845D01*
D17*
X007292Y004761D02*
X006728Y004761D01*
X006728Y005511D01*
X006768Y005511D01*
X007468Y005511D01*
X007292Y003261D02*
X007393Y003238D01*
X007268Y002461D02*
X007268Y003261D01*
X007292Y003261D01*
X002978Y003511D02*
X003603Y003511D01*
X003643Y003677D01*
X005245Y003761D02*
X003728Y003761D01*
X003643Y003677D01*
X003643Y002511D01*
X004018Y002136D01*
X002603Y002011D02*
X002768Y002011D01*
X002795Y002013D01*
X002822Y002018D01*
X002848Y002027D01*
X002873Y002039D01*
X002896Y002054D01*
X002916Y002073D01*
X002935Y002093D01*
X002950Y002116D01*
X002962Y002141D01*
X002971Y002167D01*
X002976Y002194D01*
X002978Y002221D01*
X002978Y003511D01*
X007292Y004261D02*
X008143Y004261D01*
X009095Y003261D02*
X009743Y003261D01*
X009743Y005136D01*
X009718Y005986D02*
X009768Y006011D01*
X008143Y004261D02*
X008143Y005136D01*
X009743Y005136D01*
X009743Y005761D01*
X009718Y005986D01*
X009768Y006011D02*
X010518Y006011D01*
X010868Y006036D01*
X003018Y004511D02*
X003603Y004511D01*
X003643Y004346D01*
X003643Y004386D01*
X003643Y005511D02*
X004018Y005886D01*
X002478Y005886D02*
X002768Y005886D01*
X002798Y005884D01*
X002828Y005879D01*
X002857Y005870D01*
X002884Y005857D01*
X002910Y005842D01*
X002934Y005823D01*
X002955Y005802D01*
X002974Y005778D01*
X002989Y005752D01*
X003002Y005725D01*
X003011Y005696D01*
X003016Y005666D01*
X003018Y005636D01*
X003018Y004511D01*
X002978Y004511D01*
X003643Y005511D02*
X003643Y004386D01*
X003645Y004366D01*
X003649Y004347D01*
X003657Y004329D01*
X003667Y004313D01*
X003680Y004298D01*
X003695Y004285D01*
X003711Y004275D01*
X003729Y004267D01*
X003748Y004263D01*
X003768Y004261D01*
X004893Y004261D01*
X001934Y002011D02*
X001518Y002011D01*
X001481Y002013D01*
X001445Y002018D01*
X001409Y002027D01*
X001374Y002040D01*
X001341Y002055D01*
X001310Y002074D01*
X001280Y002096D01*
X001253Y002121D01*
X001228Y002148D01*
X001206Y002178D01*
X001187Y002209D01*
X001172Y002242D01*
X001159Y002277D01*
X001150Y002313D01*
X001145Y002349D01*
X001143Y002386D01*
X001143Y003386D01*
X001809Y005886D02*
X001768Y006011D01*
X001768Y005386D01*
X001768Y006011D02*
X001518Y006011D01*
X001481Y006009D01*
X001445Y006004D01*
X001409Y005995D01*
X001374Y005982D01*
X001341Y005967D01*
X001310Y005948D01*
X001280Y005926D01*
X001253Y005901D01*
X001228Y005874D01*
X001206Y005844D01*
X001187Y005813D01*
X001172Y005780D01*
X001159Y005745D01*
X001150Y005709D01*
X001145Y005673D01*
X001143Y005636D01*
X001143Y004636D01*
X001768Y006011D02*
X001768Y006386D01*
X001768Y005386D02*
X002518Y005386D01*
X001768Y006386D02*
X002768Y006386D01*
X002817Y006380D01*
X002865Y006370D01*
X002913Y006357D01*
X002959Y006340D01*
X003003Y006319D01*
X003046Y006295D01*
X003087Y006268D01*
X003126Y006237D01*
X003162Y006204D01*
X003195Y006168D01*
X003226Y006129D01*
X003253Y006088D01*
X003277Y006045D01*
X003298Y006000D01*
X003315Y005954D01*
X003328Y005907D01*
X003337Y005858D01*
X003343Y005809D01*
X003345Y005760D01*
X003343Y005711D01*
X003343Y004961D01*
X002643Y005261D02*
X002641Y005281D01*
X002637Y005300D01*
X002629Y005318D01*
X002619Y005334D01*
X002606Y005349D01*
X002591Y005362D01*
X002575Y005372D01*
X002557Y005380D01*
X002538Y005384D01*
X002518Y005386D01*
X002643Y005261D02*
X002643Y005011D01*
X005268Y005511D02*
X006059Y005511D01*
X005245Y004761D02*
X006059Y004761D01*
X006059Y005511D01*
X012118Y003177D02*
X012126Y003176D01*
X012133Y003172D01*
X012138Y003167D01*
X012142Y003160D01*
X012143Y003152D01*
X012143Y002136D02*
X012145Y002097D01*
X012150Y002058D01*
X012159Y002020D01*
X012172Y001982D01*
X012188Y001947D01*
X012207Y001912D01*
X012229Y001880D01*
X012254Y001850D01*
X012282Y001822D01*
X012312Y001797D01*
X012344Y001775D01*
X012379Y001756D01*
X012414Y001740D01*
X012452Y001727D01*
X012490Y001718D01*
X012529Y001713D01*
X012568Y001711D01*
X013318Y001711D01*
X012143Y003152D02*
X012142Y003160D01*
X012138Y003167D01*
X012133Y003172D01*
X012126Y003176D01*
X012118Y003177D01*
X012143Y003152D02*
X012143Y002136D01*
X011142Y003261D02*
X012118Y003261D01*
X012118Y003177D01*
X011142Y004261D02*
X012393Y004261D01*
X012859Y004736D01*
X009578Y002511D02*
X009893Y002511D01*
X009930Y002513D01*
X009966Y002518D01*
X010002Y002527D01*
X010037Y002540D01*
X010070Y002555D01*
X010101Y002574D01*
X010131Y002596D01*
X010158Y002621D01*
X010183Y002648D01*
X010205Y002678D01*
X010224Y002709D01*
X010239Y002742D01*
X010252Y002777D01*
X010261Y002813D01*
X010266Y002849D01*
X010268Y002886D01*
X010268Y003886D01*
X010270Y003923D01*
X010275Y003959D01*
X010284Y003995D01*
X010297Y004030D01*
X010312Y004063D01*
X010331Y004094D01*
X010353Y004124D01*
X010378Y004151D01*
X010405Y004176D01*
X010435Y004198D01*
X010466Y004217D01*
X010499Y004232D01*
X010534Y004245D01*
X010570Y004254D01*
X010606Y004259D01*
X010643Y004261D01*
X011142Y004261D01*
X009578Y002511D02*
X009518Y002511D01*
X009518Y001761D01*
X010393Y001761D01*
X010393Y001711D01*
X007292Y003761D02*
X007893Y003761D01*
X007923Y003759D01*
X007953Y003754D01*
X007982Y003745D01*
X008009Y003732D01*
X008035Y003717D01*
X008059Y003698D01*
X008080Y003677D01*
X008099Y003653D01*
X008114Y003627D01*
X008127Y003600D01*
X008136Y003571D01*
X008141Y003541D01*
X008143Y003511D01*
X008143Y002886D01*
X008145Y002849D01*
X008150Y002813D01*
X008159Y002777D01*
X008172Y002742D01*
X008187Y002709D01*
X008206Y002678D01*
X008228Y002648D01*
X008253Y002621D01*
X008280Y002596D01*
X008310Y002574D01*
X008341Y002555D01*
X008374Y002540D01*
X008409Y002527D01*
X008445Y002518D01*
X008481Y002513D01*
X008518Y002511D01*
X008909Y002511D01*
X008268Y001711D02*
X008909Y001711D01*
X008909Y002511D01*
X012018Y003886D02*
X012118Y003846D01*
X011142Y003761D02*
X011893Y003761D01*
X012118Y003846D01*
X012018Y003886D02*
X012859Y003886D01*
X012893Y003636D01*
X012893Y003386D01*
X012943Y003386D01*
X013368Y002961D01*
X013668Y005636D02*
X013668Y006261D01*
X001768Y001886D02*
X001768Y002511D01*
X002518Y002511D01*
X002643Y002636D01*
X002643Y003011D01*
X001768Y002011D02*
X001768Y001511D01*
X002768Y001511D01*
X002769Y001512D02*
X002811Y001508D01*
X002854Y001508D01*
X002896Y001512D01*
X002938Y001519D01*
X002980Y001530D01*
X003020Y001544D01*
X003059Y001561D01*
X003096Y001581D01*
X003132Y001605D01*
X003166Y001631D01*
X003197Y001660D01*
X003226Y001692D01*
X003252Y001725D01*
X003275Y001761D01*
X003295Y001799D01*
X003312Y001838D01*
X003326Y001878D01*
X003336Y001919D01*
X003343Y001962D01*
X003343Y001961D02*
X003343Y003061D01*
D18*
X000643Y005511D02*
X000143Y006011D01*
X000643Y002511D02*
X000143Y002011D01*
M02*
