G75*
G70*
%OFA0B0*%
%FSLAX24Y24*%
%IPPOS*%
%LPD*%
%AMOC8*
5,1,8,0,0,1.08239X$1,22.5*
%
%ADD10C,0.0000*%
D10*
X001158Y002277D02*
X001158Y008742D01*
X001159Y008742D02*
X001161Y008816D01*
X001167Y008890D01*
X001176Y008963D01*
X001190Y009036D01*
X001207Y009108D01*
X001228Y009179D01*
X001253Y009249D01*
X001281Y009317D01*
X001313Y009384D01*
X001348Y009449D01*
X001387Y009512D01*
X001429Y009573D01*
X001474Y009632D01*
X001522Y009688D01*
X001573Y009742D01*
X001627Y009793D01*
X001683Y009841D01*
X001742Y009886D01*
X001803Y009928D01*
X001866Y009967D01*
X001931Y010002D01*
X001998Y010034D01*
X002066Y010062D01*
X002136Y010087D01*
X002207Y010108D01*
X002279Y010125D01*
X002352Y010139D01*
X002425Y010148D01*
X002499Y010154D01*
X002573Y010156D01*
X005568Y010156D01*
X005834Y010150D01*
X006099Y010131D01*
X006364Y010099D01*
X006626Y010055D01*
X006886Y009998D01*
X007143Y009930D01*
X007396Y009849D01*
X007646Y009756D01*
X007890Y009651D01*
X008129Y009535D01*
X008363Y009407D01*
X008590Y009269D01*
X008811Y009119D01*
X009024Y008960D01*
X009229Y008791D01*
X009426Y008612D01*
X009614Y008424D01*
X009793Y008227D01*
X009962Y008022D01*
X010121Y007809D01*
X010271Y007588D01*
X010409Y007361D01*
X010537Y007127D01*
X010653Y006888D01*
X010758Y006644D01*
X010851Y006394D01*
X010932Y006141D01*
X011000Y005884D01*
X011057Y005624D01*
X011101Y005362D01*
X011133Y005097D01*
X011152Y004832D01*
X011158Y004566D01*
X011159Y004566D02*
X011154Y004356D01*
X011139Y004147D01*
X011114Y003938D01*
X011079Y003731D01*
X011035Y003526D01*
X010980Y003324D01*
X010916Y003124D01*
X010843Y002927D01*
X010760Y002734D01*
X010669Y002545D01*
X010568Y002361D01*
X010459Y002182D01*
X010341Y002008D01*
X010215Y001840D01*
X010082Y001678D01*
X009941Y001523D01*
X009792Y001374D01*
X009637Y001233D01*
X009475Y001100D01*
X009307Y000974D01*
X009133Y000856D01*
X008954Y000747D01*
X008770Y000646D01*
X008581Y000555D01*
X008388Y000472D01*
X008191Y000399D01*
X007991Y000335D01*
X007789Y000280D01*
X007584Y000236D01*
X007377Y000201D01*
X007168Y000176D01*
X006959Y000161D01*
X006749Y000156D01*
X003280Y000156D01*
X003179Y000158D01*
X003078Y000166D01*
X002978Y000178D01*
X002879Y000194D01*
X002780Y000216D01*
X002682Y000242D01*
X002586Y000273D01*
X002492Y000308D01*
X002399Y000348D01*
X002308Y000392D01*
X002219Y000440D01*
X002133Y000493D01*
X002050Y000549D01*
X001969Y000610D01*
X001891Y000674D01*
X001816Y000742D01*
X001745Y000813D01*
X001677Y000888D01*
X001613Y000966D01*
X001552Y001047D01*
X001496Y001130D01*
X001443Y001217D01*
X001395Y001305D01*
X001351Y001396D01*
X001311Y001489D01*
X001276Y001583D01*
X001245Y001679D01*
X001219Y001777D01*
X001197Y001876D01*
X001181Y001975D01*
X001169Y002075D01*
X001161Y002176D01*
X001159Y002277D01*
M02*
