G75*
G70*
%OFA0B0*%
%FSLAX24Y24*%
%IPPOS*%
%LPD*%
%AMOC8*
5,1,8,0,0,1.08239X$1,22.5*
%
%ADD10R,0.4280X0.1080*%
%ADD11C,0.1095*%
%ADD12R,0.1600X0.1600*%
%ADD13OC8,0.1000*%
%ADD14C,0.0100*%
%ADD15C,0.1650*%
D10*
X004298Y001116D03*
X004338Y009176D03*
D11*
X004706Y009290D02*
X003611Y009290D01*
X003611Y001022D02*
X004706Y001022D01*
D12*
X004158Y005156D03*
D13*
X008958Y006586D03*
X008958Y003626D03*
D14*
X002028Y001182D02*
X001865Y001388D01*
X001702Y001725D01*
X001619Y002090D01*
X001608Y002277D01*
X001608Y002356D01*
X001608Y002367D01*
X001608Y008742D01*
X001617Y008867D01*
X001682Y009111D01*
X001808Y009329D01*
X001986Y009506D01*
X002068Y009554D01*
X002068Y008582D01*
X002145Y008506D01*
X006532Y008506D01*
X006608Y008582D01*
X006608Y009589D01*
X006768Y009564D01*
X007535Y009314D01*
X008254Y008948D01*
X008907Y008474D01*
X009477Y007904D01*
X009951Y007251D01*
X001608Y007251D01*
X001608Y007153D02*
X008635Y007153D01*
X008697Y007216D02*
X008328Y006847D01*
X008328Y006325D01*
X008697Y005956D01*
X009219Y005956D01*
X009588Y006325D01*
X009588Y006847D01*
X009219Y007216D01*
X008697Y007216D01*
X008536Y007054D02*
X001608Y007054D01*
X001608Y006956D02*
X008437Y006956D01*
X008339Y006857D02*
X001608Y006857D01*
X001608Y006759D02*
X008328Y006759D01*
X008328Y006660D02*
X001608Y006660D01*
X001608Y006561D02*
X008328Y006561D01*
X008328Y006463D02*
X001608Y006463D01*
X001608Y006364D02*
X008328Y006364D01*
X008387Y006266D02*
X001608Y006266D01*
X001608Y006167D02*
X008486Y006167D01*
X008584Y006069D02*
X005057Y006069D01*
X005051Y006076D02*
X005016Y006095D01*
X004978Y006106D01*
X004208Y006106D01*
X004208Y005206D01*
X004108Y005206D01*
X004108Y005106D01*
X003208Y005106D01*
X003208Y004336D01*
X003219Y004298D01*
X003238Y004264D01*
X003266Y004236D01*
X003301Y004216D01*
X003339Y004206D01*
X004108Y004206D01*
X004108Y005106D01*
X004208Y005106D01*
X004208Y004206D01*
X004978Y004206D01*
X005016Y004216D01*
X005051Y004236D01*
X005078Y004264D01*
X005098Y004298D01*
X005108Y004336D01*
X005108Y005106D01*
X004209Y005106D01*
X004209Y005206D01*
X005108Y005206D01*
X005108Y005975D01*
X005098Y006014D01*
X005078Y006048D01*
X005051Y006076D01*
X005108Y005970D02*
X008683Y005970D01*
X009234Y005970D02*
X010500Y005970D01*
X010532Y005872D02*
X005108Y005872D01*
X005108Y005773D02*
X010564Y005773D01*
X010566Y005766D02*
X010693Y004969D01*
X010708Y004566D01*
X010693Y004220D01*
X010574Y003541D01*
X010337Y002892D01*
X009992Y002294D01*
X009549Y001765D01*
X009020Y001322D01*
X008422Y000977D01*
X007773Y000741D01*
X007094Y000621D01*
X006749Y000606D01*
X006568Y000606D01*
X006568Y001710D01*
X006492Y001786D01*
X002105Y001786D01*
X002028Y001710D01*
X002028Y001182D01*
X002028Y001240D02*
X001982Y001240D01*
X002028Y001339D02*
X001904Y001339D01*
X001841Y001437D02*
X002028Y001437D01*
X002028Y001536D02*
X001793Y001536D01*
X001746Y001634D02*
X002028Y001634D01*
X002052Y001733D02*
X001700Y001733D01*
X001678Y001831D02*
X009604Y001831D01*
X009687Y001930D02*
X001655Y001930D01*
X001633Y002029D02*
X009769Y002029D01*
X009852Y002127D02*
X001617Y002127D01*
X001611Y002226D02*
X009935Y002226D01*
X010010Y002324D02*
X001608Y002324D01*
X001608Y002423D02*
X010066Y002423D01*
X010123Y002521D02*
X001608Y002521D01*
X001608Y002620D02*
X010180Y002620D01*
X010237Y002718D02*
X001608Y002718D01*
X001608Y002817D02*
X010294Y002817D01*
X010346Y002915D02*
X001608Y002915D01*
X001608Y003014D02*
X008651Y003014D01*
X008689Y002976D02*
X008308Y003356D01*
X008308Y003576D01*
X008908Y003576D01*
X008908Y003676D01*
X008308Y003676D01*
X008308Y003895D01*
X008689Y004276D01*
X008908Y004276D01*
X008908Y003676D01*
X009008Y003676D01*
X009008Y004276D01*
X009228Y004276D01*
X009608Y003895D01*
X009608Y003676D01*
X009009Y003676D01*
X009009Y003576D01*
X009608Y003576D01*
X009608Y003356D01*
X009228Y002976D01*
X009008Y002976D01*
X009008Y003576D01*
X008908Y003576D01*
X008908Y002976D01*
X008689Y002976D01*
X008552Y003112D02*
X001608Y003112D01*
X001608Y003211D02*
X008454Y003211D01*
X008355Y003310D02*
X001608Y003310D01*
X001608Y003408D02*
X008308Y003408D01*
X008308Y003507D02*
X001608Y003507D01*
X001608Y003605D02*
X008908Y003605D01*
X008908Y003507D02*
X009008Y003507D01*
X009009Y003605D02*
X010585Y003605D01*
X010602Y003704D02*
X009608Y003704D01*
X009608Y003802D02*
X010620Y003802D01*
X010637Y003901D02*
X009603Y003901D01*
X009504Y003999D02*
X010654Y003999D01*
X010672Y004098D02*
X009405Y004098D01*
X009307Y004196D02*
X010689Y004196D01*
X010697Y004295D02*
X005096Y004295D01*
X005108Y004394D02*
X010701Y004394D01*
X010705Y004492D02*
X005108Y004492D01*
X005108Y004591D02*
X010707Y004591D01*
X010704Y004689D02*
X005108Y004689D01*
X005108Y004788D02*
X010700Y004788D01*
X010696Y004886D02*
X005108Y004886D01*
X005108Y004985D02*
X010690Y004985D01*
X010674Y005083D02*
X005108Y005083D01*
X005108Y005280D02*
X010643Y005280D01*
X010659Y005182D02*
X004209Y005182D01*
X004208Y005280D02*
X004108Y005280D01*
X004108Y005206D02*
X004108Y006106D01*
X003339Y006106D01*
X003301Y006095D01*
X003266Y006076D01*
X003238Y006048D01*
X003219Y006014D01*
X003208Y005975D01*
X003208Y005206D01*
X004108Y005206D01*
X004108Y005182D02*
X001608Y005182D01*
X001608Y005280D02*
X003208Y005280D01*
X003208Y005379D02*
X001608Y005379D01*
X001608Y005478D02*
X003208Y005478D01*
X003208Y005576D02*
X001608Y005576D01*
X001608Y005675D02*
X003208Y005675D01*
X003208Y005773D02*
X001608Y005773D01*
X001608Y005872D02*
X003208Y005872D01*
X003208Y005970D02*
X001608Y005970D01*
X001608Y006069D02*
X003259Y006069D01*
X004108Y006069D02*
X004208Y006069D01*
X004208Y005970D02*
X004108Y005970D01*
X004108Y005872D02*
X004208Y005872D01*
X004208Y005773D02*
X004108Y005773D01*
X004108Y005675D02*
X004208Y005675D01*
X004208Y005576D02*
X004108Y005576D01*
X004108Y005478D02*
X004208Y005478D01*
X004208Y005379D02*
X004108Y005379D01*
X004108Y005083D02*
X004208Y005083D01*
X004208Y004985D02*
X004108Y004985D01*
X004108Y004886D02*
X004208Y004886D01*
X004208Y004788D02*
X004108Y004788D01*
X004108Y004689D02*
X004208Y004689D01*
X004208Y004591D02*
X004108Y004591D01*
X004108Y004492D02*
X004208Y004492D01*
X004208Y004394D02*
X004108Y004394D01*
X004108Y004295D02*
X004208Y004295D01*
X003220Y004295D02*
X001608Y004295D01*
X001608Y004196D02*
X008610Y004196D01*
X008511Y004098D02*
X001608Y004098D01*
X001608Y003999D02*
X008413Y003999D01*
X008314Y003901D02*
X001608Y003901D01*
X001608Y003802D02*
X008308Y003802D01*
X008308Y003704D02*
X001608Y003704D01*
X001608Y004394D02*
X003208Y004394D01*
X003208Y004492D02*
X001608Y004492D01*
X001608Y004591D02*
X003208Y004591D01*
X003208Y004689D02*
X001608Y004689D01*
X001608Y004788D02*
X003208Y004788D01*
X003208Y004886D02*
X001608Y004886D01*
X001608Y004985D02*
X003208Y004985D01*
X003208Y005083D02*
X001608Y005083D01*
X001608Y007350D02*
X009879Y007350D01*
X009808Y007448D02*
X001608Y007448D01*
X001608Y007547D02*
X009736Y007547D01*
X009665Y007645D02*
X001608Y007645D01*
X001608Y007744D02*
X009593Y007744D01*
X009521Y007843D02*
X001608Y007843D01*
X001608Y007941D02*
X009440Y007941D01*
X009341Y008040D02*
X001608Y008040D01*
X001608Y008138D02*
X009243Y008138D01*
X009144Y008237D02*
X001608Y008237D01*
X001608Y008335D02*
X009045Y008335D01*
X008947Y008434D02*
X001608Y008434D01*
X001608Y008532D02*
X002118Y008532D01*
X002068Y008631D02*
X001608Y008631D01*
X001608Y008729D02*
X002068Y008729D01*
X002068Y008828D02*
X001614Y008828D01*
X001632Y008927D02*
X002068Y008927D01*
X002068Y009025D02*
X001659Y009025D01*
X001689Y009124D02*
X002068Y009124D01*
X002068Y009222D02*
X001746Y009222D01*
X001803Y009321D02*
X002068Y009321D01*
X002068Y009419D02*
X001898Y009419D01*
X002005Y009518D02*
X002068Y009518D01*
X005108Y005675D02*
X010581Y005675D01*
X010566Y005766D02*
X010317Y006533D01*
X009951Y007251D01*
X010001Y007153D02*
X009282Y007153D01*
X009381Y007054D02*
X010051Y007054D01*
X010102Y006956D02*
X009479Y006956D01*
X009578Y006857D02*
X010152Y006857D01*
X010202Y006759D02*
X009588Y006759D01*
X009588Y006660D02*
X010252Y006660D01*
X010302Y006561D02*
X009588Y006561D01*
X009588Y006463D02*
X010340Y006463D01*
X010372Y006364D02*
X009588Y006364D01*
X009529Y006266D02*
X010404Y006266D01*
X010436Y006167D02*
X009431Y006167D01*
X009332Y006069D02*
X010468Y006069D01*
X010596Y005576D02*
X005108Y005576D01*
X005108Y005478D02*
X010612Y005478D01*
X010628Y005379D02*
X005108Y005379D01*
X006559Y008532D02*
X008826Y008532D01*
X008691Y008631D02*
X006608Y008631D01*
X006608Y008729D02*
X008555Y008729D01*
X008420Y008828D02*
X006608Y008828D01*
X006608Y008927D02*
X008284Y008927D01*
X008103Y009025D02*
X006608Y009025D01*
X006608Y009124D02*
X007910Y009124D01*
X007716Y009222D02*
X006608Y009222D01*
X006608Y009321D02*
X007516Y009321D01*
X007213Y009419D02*
X006608Y009419D01*
X006608Y009518D02*
X006910Y009518D01*
X008908Y004196D02*
X009008Y004196D01*
X009008Y004098D02*
X008908Y004098D01*
X008908Y003999D02*
X009008Y003999D01*
X009008Y003901D02*
X008908Y003901D01*
X008908Y003802D02*
X009008Y003802D01*
X009008Y003704D02*
X008908Y003704D01*
X008908Y003408D02*
X009008Y003408D01*
X009008Y003310D02*
X008908Y003310D01*
X008908Y003211D02*
X009008Y003211D01*
X009008Y003112D02*
X008908Y003112D01*
X008908Y003014D02*
X009008Y003014D01*
X009266Y003014D02*
X010382Y003014D01*
X010418Y003112D02*
X009364Y003112D01*
X009463Y003211D02*
X010454Y003211D01*
X010489Y003310D02*
X009561Y003310D01*
X009608Y003408D02*
X010525Y003408D01*
X010561Y003507D02*
X009608Y003507D01*
X009510Y001733D02*
X006545Y001733D01*
X006568Y001634D02*
X009392Y001634D01*
X009275Y001536D02*
X006568Y001536D01*
X006568Y001437D02*
X009157Y001437D01*
X009040Y001339D02*
X006568Y001339D01*
X006568Y001240D02*
X008878Y001240D01*
X008708Y001142D02*
X006568Y001142D01*
X006568Y001043D02*
X008537Y001043D01*
X008334Y000945D02*
X006568Y000945D01*
X006568Y000846D02*
X008063Y000846D01*
X007792Y000747D02*
X006568Y000747D01*
X006568Y000649D02*
X007253Y000649D01*
D15*
X008158Y001656D03*
M02*
