%
M48
M72
T01C0.0236
T02C0.0300
T03C0.0400
T04C0.0472
T05C0.1250
T06C0.1300
%
T01
X2347Y7151
X6847Y9151
X17347Y17651
X18847Y18651
T02
X8331Y17151
X8331Y16151
X8331Y15151
X8331Y14151
X8331Y13151
X8331Y12151
X6362Y12151
X6362Y13151
X6362Y14151
X6362Y15151
X6362Y16151
X6362Y17151
T03
X1847Y1151
X2847Y1151
X3847Y1151
X4847Y1151
X5847Y1151
X6847Y1151
X10847Y2151
X11847Y2151
X13847Y2151
X14847Y2151
X15847Y2151
X16847Y2151
X16847Y3151
X17847Y3151
X18847Y3151
X20847Y3151
X21847Y3151
X22847Y3151
X23847Y3151
X24847Y3151
X25847Y3151
X26847Y3151
X27847Y3151
X28847Y2151
X29847Y2151
X30847Y2151
X31847Y2151
X31847Y3151
X30847Y3151
X29847Y3151
X26847Y2151
X25847Y2151
X32847Y3151
X33847Y3151
X34847Y3151
X35847Y3151
X36847Y3151
X37847Y5151
X38847Y5151
X38847Y6151
X37847Y6151
X37847Y7151
X38847Y7151
X38847Y8151
X37847Y8151
X37847Y9151
X38847Y9151
X38847Y10151
X37847Y10151
X37847Y11151
X38847Y11151
X38847Y12151
X37847Y12151
X37847Y13151
X38847Y13151
X38847Y14151
X37847Y14151
X37847Y15151
X38847Y15151
X38847Y16151
X37847Y16151
X37847Y17151
X38847Y17151
X38847Y18151
X37847Y18151
X37847Y19151
X38847Y19151
X38847Y20151
X37847Y20151
X37847Y21151
X38847Y21151
X38847Y22151
X37847Y22151
X34847Y22151
X33847Y22151
X32847Y22151
X31847Y22151
X30847Y22151
X29847Y22151
X28847Y22151
X27847Y22151
X28347Y23151
X29347Y23151
X30347Y23151
X32347Y23151
X33347Y23151
X27347Y23151
X25847Y22151
X24847Y22151
X23847Y22151
X22847Y22151
X21847Y22151
X20847Y22151
X19847Y22151
X18847Y22151
X17247Y22151
X16247Y22151
X15247Y22151
X14247Y22151
X13247Y22151
X12247Y22151
X11247Y22151
X10247Y22151
X12347Y23151
X13347Y23151
X14347Y23151
X15347Y23151
X17347Y23151
X18347Y23151
X18347Y15151
X17347Y15151
X16347Y15151
X15347Y15151
X14347Y15151
X13347Y15151
X12347Y15151
X11347Y15151
X10347Y15151
X10847Y10151
X11847Y10151
X12847Y10151
X13847Y10151
X14847Y10151
X15847Y10151
X16847Y10151
X17847Y10151
X18847Y10151
X24847Y10151
X25847Y10151
X26847Y10151
X27847Y10151
X28847Y10151
X29847Y10151
X30847Y10151
X31847Y10151
X32847Y10151
X33847Y10151
X34347Y15151
X33347Y15151
X32347Y15151
X31347Y15151
X30347Y15151
X29347Y15151
X28347Y15151
X27347Y15151
X26347Y15151
X25347Y15151
X19347Y15151
X9847Y10151
X13847Y3151
X14847Y3151
X15847Y3151
T04
X3996Y8450
X3996Y9828
X3996Y11206
X3996Y12584
X3996Y13962
X3996Y15340
X3996Y16718
X3996Y18096
X3996Y19474
X3996Y20852
X3996Y22230
X3996Y23608
T05
X6847Y22151
X36347Y22151
X38847Y3151
X6847Y3151
T06
X4267Y3451
X5447Y5421
X3087Y5421
X8847Y6151
X20347Y6151
X23847Y6151
X35347Y6151
X35347Y19151
X23847Y19151
X20347Y19151
X8847Y19151
M30
