G75*
G70*
%OFA0B0*%
%FSLAX24Y24*%
%IPPOS*%
%LPD*%
%AMOC8*
5,1,8,0,0,1.08239X$1,22.5*
%
%ADD10R,0.0197X0.0866*%
%ADD11R,0.0512X0.0630*%
%ADD12R,0.0591X0.0591*%
%ADD13R,0.0709X0.0630*%
%ADD14R,0.0472X0.0315*%
%ADD15R,0.0315X0.0472*%
%ADD16R,0.1063X0.1004*%
%ADD17R,0.0300X0.0600*%
%ADD18R,0.0272X0.0390*%
%ADD19R,0.0276X0.0669*%
%ADD20R,0.0236X0.0197*%
%ADD21R,0.0800X0.2000*%
%ADD22R,0.0512X0.0512*%
%ADD23R,0.0472X0.0492*%
D10*
X001942Y003956D03*
X002442Y003956D03*
X002942Y003956D03*
X003442Y003956D03*
X003442Y006439D03*
X002946Y006439D03*
X002446Y006439D03*
X001946Y006439D03*
D11*
X005598Y001077D03*
X006386Y001077D03*
X006098Y009617D03*
X006886Y009617D03*
D12*
X005781Y007797D03*
X004403Y007797D03*
X005763Y015517D03*
X007141Y015517D03*
X002401Y015537D03*
X001023Y015537D03*
D13*
X004352Y005729D03*
X004352Y004626D03*
D14*
X007112Y010803D03*
X007112Y011512D03*
X001252Y009812D03*
X001252Y009103D03*
D15*
X001837Y001077D03*
X002546Y001077D03*
D16*
X006352Y003989D03*
X006352Y006486D03*
D17*
X004891Y010051D03*
X004891Y012051D03*
X003391Y012051D03*
X003391Y010051D03*
D18*
X002446Y010706D03*
X002072Y010706D03*
X001698Y010706D03*
X001698Y011729D03*
X002072Y011729D03*
X002446Y011729D03*
X005698Y011709D03*
X006072Y011709D03*
X006446Y011709D03*
X006446Y010686D03*
X006072Y010686D03*
X005698Y010686D03*
D19*
X003164Y007517D03*
X002692Y007517D03*
X002219Y007517D03*
D20*
X001856Y009301D03*
X001856Y009694D03*
X002368Y009497D03*
D21*
X002681Y013617D03*
X001463Y013617D03*
X005463Y013657D03*
X006681Y013657D03*
D22*
X004072Y014126D03*
D23*
X004466Y015120D03*
X003678Y015120D03*
M02*
