G75*
G70*
%OFA0B0*%
%FSLAX24Y24*%
%IPPOS*%
%LPD*%
%AMOC8*
5,1,8,0,0,1.08239X$1,22.5*
%
%ADD10R,0.0197X0.0866*%
%ADD11R,0.0512X0.0630*%
%ADD12R,0.0591X0.0591*%
%ADD13R,0.0709X0.0630*%
%ADD14R,0.0472X0.0315*%
%ADD15R,0.0315X0.0472*%
%ADD16C,0.0640*%
%ADD17R,0.1063X0.1004*%
%ADD18R,0.0300X0.0600*%
%ADD19R,0.0272X0.0390*%
%ADD20R,0.0276X0.0669*%
%ADD21C,0.0984*%
%ADD22R,0.0236X0.0197*%
%ADD23R,0.0800X0.2000*%
%ADD24R,0.0512X0.0512*%
%ADD25R,0.0472X0.0492*%
%ADD26C,0.0120*%
%ADD27C,0.0100*%
%ADD28C,0.0160*%
D10*
X003442Y006439D03*
X002946Y006439D03*
X002446Y006439D03*
X001946Y006439D03*
X003442Y003956D03*
X002942Y003956D03*
X002442Y003956D03*
X001942Y003956D03*
D11*
X006098Y009617D03*
X006886Y009617D03*
X005598Y001077D03*
X006386Y001077D03*
D12*
X004403Y007797D03*
X005781Y007797D03*
X002401Y015537D03*
X001023Y015537D03*
X007141Y015517D03*
X005763Y015517D03*
D13*
X004352Y004626D03*
X004352Y005729D03*
D14*
X007112Y010803D03*
X007112Y011512D03*
X001252Y009103D03*
X001252Y009812D03*
D15*
X001837Y001077D03*
X002546Y001077D03*
D16*
X001552Y001977D02*
X001552Y002617D01*
X002552Y002617D02*
X002552Y001977D01*
X003552Y001977D02*
X003552Y002617D01*
X004552Y002617D02*
X004552Y001977D01*
X005552Y001977D02*
X005552Y002617D01*
X006552Y002617D02*
X006552Y001977D01*
D17*
X006352Y003989D03*
X006352Y006486D03*
D18*
X004891Y012051D03*
X004891Y010051D03*
X003391Y012051D03*
X003391Y010051D03*
D19*
X001698Y010706D03*
X002072Y010706D03*
X002446Y010706D03*
X002446Y011729D03*
X002072Y011729D03*
X001698Y011729D03*
X005698Y010686D03*
X006072Y010686D03*
X006446Y010686D03*
X006446Y011709D03*
X006072Y011709D03*
X005698Y011709D03*
D20*
X002219Y007517D03*
X002692Y007517D03*
X003164Y007517D03*
D21*
X004072Y001157D03*
X004072Y016118D03*
D22*
X002368Y009497D03*
X001856Y009694D03*
X001856Y009301D03*
D23*
X005463Y013657D03*
X006681Y013657D03*
X001463Y013617D03*
X002681Y013617D03*
D24*
X004072Y014126D03*
D25*
X004466Y015120D03*
X003678Y015120D03*
D26*
X003442Y003956D02*
X003432Y003946D01*
X003432Y003557D01*
X005781Y007797D02*
X006098Y008115D01*
X006098Y009617D01*
X001492Y008077D02*
X001492Y005517D01*
X001872Y005137D01*
X003232Y005137D01*
X003442Y004927D01*
X003442Y003956D01*
X004752Y005177D02*
X003732Y005177D01*
X003482Y004927D01*
X003442Y004927D01*
X006052Y002997D02*
X005792Y003257D01*
X005652Y003257D01*
X005572Y003337D01*
X005572Y005777D01*
X005912Y006117D01*
X004466Y015120D02*
X004466Y015724D01*
X004072Y016118D01*
X006052Y002997D02*
X006052Y001637D01*
X005992Y001577D01*
X005598Y001077D01*
X004752Y005177D02*
X004952Y004977D01*
X004952Y002917D01*
X004572Y002537D02*
X004552Y002517D01*
X004552Y002297D01*
X004952Y002917D02*
X004572Y002537D01*
X004552Y002537D01*
X004552Y001917D01*
X005392Y001077D01*
X005598Y001077D01*
X001492Y008077D02*
X001856Y008441D01*
X001856Y009301D01*
X000708Y015062D02*
X000797Y015062D01*
X000788Y015053D01*
X000708Y014974D01*
X000708Y015062D01*
X007435Y011804D02*
X007410Y011818D01*
X007369Y011829D01*
X007131Y011829D01*
X007131Y011531D01*
X007093Y011531D01*
X007093Y011829D01*
X006925Y011829D01*
X007435Y012307D01*
X007435Y011804D01*
X006752Y012350D02*
X006752Y012477D01*
X006915Y012477D01*
X006735Y012308D01*
X006752Y012350D01*
X000512Y016937D02*
X000520Y016937D01*
X000512Y016929D01*
X000512Y016937D01*
X000512Y000257D02*
X000512Y000346D01*
X000599Y000258D01*
X000512Y000257D01*
X007702Y016937D02*
X007702Y016844D01*
X007692Y016869D01*
X007692Y016869D01*
X007623Y016937D01*
X007702Y016937D01*
X007702Y000337D02*
X007622Y000337D01*
X007691Y000406D01*
X007692Y000406D01*
X007692Y000406D01*
X007702Y000431D01*
X007702Y000337D01*
X001558Y009441D02*
X001482Y009441D01*
X001482Y009454D01*
X001558Y009454D01*
X001558Y009441D01*
X001563Y008766D02*
X001616Y008819D01*
X001616Y008540D01*
X001356Y008280D01*
X001352Y008276D01*
X001352Y008766D01*
X001563Y008766D01*
X003132Y004897D02*
X003202Y004828D01*
X003202Y004502D01*
X003192Y004492D01*
X003115Y004569D01*
X002769Y004569D01*
X002692Y004492D01*
X002615Y004569D01*
X002269Y004569D01*
X002192Y004492D01*
X002172Y004512D01*
X002172Y004585D01*
X002135Y004673D01*
X001911Y004897D01*
X003132Y004897D01*
X005052Y001878D02*
X005052Y002678D01*
X005052Y002678D01*
X005052Y001878D01*
X005128Y001694D01*
X005259Y001563D01*
X005252Y001557D01*
X005016Y001792D01*
X005052Y001878D01*
X006300Y001567D02*
X006368Y001533D01*
X006439Y001509D01*
X006445Y001508D01*
X006445Y001138D01*
X006326Y001138D01*
X006326Y001552D01*
X006276Y001552D01*
X006286Y001577D01*
X006300Y001567D01*
X002154Y009867D02*
X002104Y009917D01*
X002206Y009917D01*
X002206Y009825D01*
X002154Y009849D01*
X002154Y009867D01*
X005221Y009677D02*
X005221Y010426D01*
X005201Y010446D01*
X005382Y010446D01*
X005382Y010416D01*
X005458Y010340D01*
X005458Y010245D01*
X005458Y010150D01*
X005494Y010061D01*
X005562Y009994D01*
X005650Y009957D01*
X005662Y009957D01*
X005662Y009228D01*
X005768Y009123D01*
X005858Y009123D01*
X005858Y008273D01*
X005411Y008273D01*
X005332Y008194D01*
X005332Y008310D01*
X005332Y008405D01*
X005295Y008493D01*
X005131Y008657D01*
X005131Y009587D01*
X005221Y009677D01*
X004852Y008258D02*
X004852Y008194D01*
X004773Y008273D01*
X004033Y008273D01*
X004022Y008261D01*
X004022Y008502D01*
X004651Y009132D01*
X004651Y008510D01*
X004688Y008422D01*
X004755Y008355D01*
X004852Y008258D01*
X005411Y007322D02*
X005762Y007322D01*
X005762Y007167D01*
X005746Y007167D01*
X005640Y007062D01*
X005640Y006185D01*
X005452Y005997D01*
X005452Y007010D01*
X005452Y007105D01*
X005415Y007193D01*
X005332Y007277D01*
X005332Y007401D01*
X005411Y007322D01*
X004972Y006958D02*
X004972Y005297D01*
X004955Y005313D01*
X004955Y005313D01*
X004888Y005381D01*
X004886Y005382D01*
X004886Y006118D01*
X004781Y006224D01*
X004592Y006224D01*
X004592Y007322D01*
X004773Y007322D01*
X004852Y007401D01*
X004852Y007130D01*
X004888Y007041D01*
X004956Y006974D01*
X004972Y006958D01*
X005452Y003117D02*
X005452Y003117D01*
X005452Y003117D01*
X005452Y003118D01*
X005452Y003117D01*
X003092Y010413D02*
X003081Y010372D01*
X003081Y010066D01*
X003376Y010066D01*
X003376Y010036D01*
X003081Y010036D01*
X003081Y009730D01*
X003092Y009689D01*
X003113Y009653D01*
X003143Y009623D01*
X003179Y009602D01*
X003220Y009591D01*
X003376Y009591D01*
X003376Y010036D01*
X003406Y010036D01*
X003406Y009591D01*
X003562Y009591D01*
X003603Y009602D01*
X003639Y009623D01*
X003669Y009653D01*
X003690Y009689D01*
X003701Y009730D01*
X003701Y010036D01*
X003406Y010036D01*
X003406Y010066D01*
X003701Y010066D01*
X003701Y010372D01*
X003690Y010413D01*
X003671Y010446D01*
X004581Y010446D01*
X004561Y010426D01*
X004561Y009692D01*
X003562Y008693D01*
X003562Y008502D01*
X003562Y007213D01*
X003482Y007133D01*
X003482Y007927D01*
X003377Y008032D01*
X002952Y008032D01*
X002910Y007990D01*
X002891Y008001D01*
X002851Y008012D01*
X002701Y008012D01*
X002701Y007527D01*
X002683Y007527D01*
X002683Y008012D01*
X002533Y008012D01*
X002492Y008001D01*
X002473Y007990D01*
X002432Y008032D01*
X002007Y008032D01*
X001902Y007927D01*
X001902Y007108D01*
X001978Y007032D01*
X001946Y007032D01*
X001946Y006440D01*
X001946Y006440D01*
X001946Y007032D01*
X001826Y007032D01*
X001786Y007021D01*
X001749Y007000D01*
X001732Y006983D01*
X001732Y007977D01*
X001992Y008237D01*
X002059Y008305D01*
X002096Y008393D01*
X002096Y009070D01*
X002154Y009128D01*
X002154Y009240D01*
X002175Y009219D01*
X002560Y009219D01*
X002666Y009324D01*
X002666Y009401D01*
X002686Y009450D01*
X002686Y009545D01*
X002686Y010205D01*
X002686Y010360D01*
X002762Y010436D01*
X002762Y010446D01*
X003111Y010446D01*
X003092Y010413D01*
X004033Y007322D02*
X004112Y007322D01*
X004112Y006224D01*
X003923Y006224D01*
X003817Y006118D01*
X003817Y005417D01*
X003780Y005417D01*
X003684Y005417D01*
X003596Y005381D01*
X003462Y005247D01*
X003368Y005341D01*
X003280Y005377D01*
X003184Y005377D01*
X001971Y005377D01*
X001732Y005617D01*
X001732Y005895D01*
X001749Y005878D01*
X001786Y005857D01*
X001826Y005846D01*
X001946Y005846D01*
X001946Y006439D01*
X001946Y006439D01*
X001946Y005846D01*
X002065Y005846D01*
X002106Y005857D01*
X002142Y005878D01*
X002172Y005908D01*
X002179Y005920D01*
X002273Y005826D01*
X002619Y005826D01*
X002696Y005903D01*
X002773Y005826D01*
X003119Y005826D01*
X003194Y005901D01*
X003269Y005826D01*
X003615Y005826D01*
X003720Y005932D01*
X003720Y006721D01*
X003887Y006887D01*
X004022Y007022D01*
X004022Y007333D01*
X004033Y007322D01*
X003323Y003343D02*
X003384Y003317D01*
X003480Y003317D01*
X003540Y003343D01*
X003615Y003343D01*
X003720Y003448D01*
X003720Y004463D01*
X003682Y004502D01*
X003682Y004788D01*
X003685Y004791D01*
X003817Y004924D01*
X003817Y004237D01*
X003923Y004131D01*
X004112Y004131D01*
X004112Y003697D01*
X003532Y003117D01*
X003452Y003117D01*
X003431Y003109D01*
X003320Y003343D01*
X003323Y003343D01*
X004592Y004131D02*
X004712Y004131D01*
X004712Y003092D01*
X004651Y003117D01*
X004452Y003117D01*
X004269Y003041D01*
X004128Y002901D01*
X004052Y002717D01*
X004052Y001878D01*
X004128Y001694D01*
X004132Y001690D01*
X004132Y001217D01*
X004012Y001217D01*
X004012Y001781D01*
X004052Y001878D01*
X004052Y002717D01*
X003981Y002887D01*
X004555Y003461D01*
X004592Y003550D01*
X004592Y003645D01*
X004592Y004131D01*
X002701Y007023D02*
X002743Y007023D01*
X002696Y006975D01*
X002648Y007023D01*
X002683Y007023D01*
X002683Y007508D01*
X002701Y007508D01*
X002701Y007023D01*
X003636Y013795D02*
X003741Y013690D01*
X004402Y013690D01*
X004508Y013795D01*
X004508Y013866D01*
X004883Y013866D01*
X004883Y012583D01*
X004935Y012531D01*
X004667Y012531D01*
X004561Y012426D01*
X004561Y011677D01*
X004667Y011571D01*
X005116Y011571D01*
X005221Y011677D01*
X005221Y012426D01*
X005169Y012477D01*
X005692Y012477D01*
X005628Y012413D01*
X005494Y012279D01*
X005458Y012191D01*
X005458Y012096D01*
X005458Y012054D01*
X005382Y011979D01*
X005382Y011440D01*
X005487Y011334D01*
X005908Y011334D01*
X005928Y011354D01*
X006064Y011354D01*
X006064Y011701D01*
X006080Y011701D01*
X006080Y011354D01*
X006215Y011354D01*
X006235Y011334D01*
X006656Y011334D01*
X006716Y011394D01*
X006716Y011333D01*
X006726Y011293D01*
X006748Y011256D01*
X006777Y011226D01*
X006814Y011205D01*
X006854Y011194D01*
X007093Y011194D01*
X007093Y011493D01*
X007131Y011493D01*
X007131Y011194D01*
X007369Y011194D01*
X007410Y011205D01*
X007435Y011220D01*
X007435Y011128D01*
X007423Y011141D01*
X006801Y011141D01*
X006704Y011043D01*
X006674Y011043D01*
X006656Y011061D01*
X006235Y011061D01*
X006215Y011041D01*
X006080Y011041D01*
X006080Y010694D01*
X006064Y010694D01*
X006064Y011041D01*
X005928Y011041D01*
X005908Y011061D01*
X005487Y011061D01*
X005382Y010955D01*
X005382Y010926D01*
X002762Y010926D01*
X002762Y010975D01*
X002656Y011081D01*
X002235Y011081D01*
X002215Y011061D01*
X002080Y011061D01*
X002080Y010714D01*
X002064Y010714D01*
X002064Y011061D01*
X001928Y011061D01*
X001908Y011081D01*
X001487Y011081D01*
X001382Y010975D01*
X001382Y010436D01*
X001452Y010366D01*
X001452Y010149D01*
X000941Y010149D01*
X000836Y010044D01*
X000836Y009580D01*
X000941Y009474D01*
X001022Y009474D01*
X001022Y009441D01*
X000941Y009441D01*
X000836Y009335D01*
X000836Y008871D01*
X000872Y008835D01*
X000872Y005310D01*
X000908Y005221D01*
X000976Y005154D01*
X001665Y004465D01*
X001663Y004463D01*
X001663Y003608D01*
X001416Y003361D01*
X001416Y003361D01*
X001348Y003293D01*
X001312Y003205D01*
X001312Y003059D01*
X001269Y003041D01*
X001128Y002901D01*
X001052Y002717D01*
X001052Y001878D01*
X001128Y001694D01*
X001269Y001554D01*
X001452Y001477D01*
X001651Y001477D01*
X001835Y001554D01*
X001976Y001694D01*
X002052Y001878D01*
X002052Y002717D01*
X001976Y002901D01*
X001835Y003041D01*
X001793Y003059D01*
X002076Y003343D01*
X002115Y003343D01*
X002192Y003420D01*
X002192Y002965D01*
X002128Y002901D01*
X002052Y002717D01*
X002052Y001878D01*
X002128Y001694D01*
X002269Y001554D01*
X002306Y001538D01*
X002306Y001486D01*
X002209Y001388D01*
X002209Y000767D01*
X002314Y000661D01*
X002778Y000661D01*
X002884Y000767D01*
X002884Y001388D01*
X002786Y001486D01*
X002786Y001533D01*
X002835Y001554D01*
X002976Y001694D01*
X003052Y001878D01*
X003052Y002717D01*
X002976Y002901D01*
X002835Y003041D01*
X002672Y003109D01*
X002672Y003400D01*
X002692Y003420D01*
X002769Y003343D01*
X002788Y003343D01*
X003068Y002756D01*
X003052Y002717D01*
X003052Y001878D01*
X003128Y001694D01*
X003269Y001554D01*
X003452Y001477D01*
X003504Y001477D01*
X003486Y001446D01*
X003453Y001367D01*
X003431Y001285D01*
X003422Y001217D01*
X004012Y001217D01*
X004012Y001097D01*
X003422Y001097D01*
X003431Y001030D01*
X003453Y000947D01*
X003486Y000868D01*
X003528Y000794D01*
X003580Y000726D01*
X003641Y000666D01*
X003709Y000614D01*
X003783Y000571D01*
X003862Y000538D01*
X003944Y000516D01*
X004012Y000507D01*
X004012Y001097D01*
X004132Y001097D01*
X004132Y000507D01*
X004199Y000516D01*
X004282Y000538D01*
X004361Y000571D01*
X004435Y000614D01*
X004503Y000666D01*
X004563Y000726D01*
X004615Y000794D01*
X004658Y000868D01*
X004691Y000947D01*
X004713Y001030D01*
X004722Y001097D01*
X004132Y001097D01*
X004132Y001217D01*
X004722Y001217D01*
X004713Y001285D01*
X004691Y001367D01*
X004658Y001446D01*
X004640Y001477D01*
X004651Y001477D01*
X004652Y001478D01*
X005162Y000968D01*
X005162Y000688D01*
X005268Y000583D01*
X005929Y000583D01*
X006006Y000660D01*
X006031Y000634D01*
X006068Y000613D01*
X006109Y000603D01*
X006326Y000603D01*
X006326Y001017D01*
X006445Y001017D01*
X006445Y000603D01*
X006662Y000603D01*
X006703Y000613D01*
X006740Y000634D01*
X006769Y000664D01*
X006790Y000701D01*
X006801Y000741D01*
X006801Y001018D01*
X006446Y001018D01*
X006446Y001137D01*
X006801Y001137D01*
X006801Y001414D01*
X006790Y001454D01*
X006769Y001491D01*
X006740Y001520D01*
X006725Y001529D01*
X006736Y001533D01*
X006803Y001567D01*
X006864Y001611D01*
X006918Y001665D01*
X006962Y001726D01*
X006997Y001793D01*
X007020Y001865D01*
X007032Y001940D01*
X007032Y002257D01*
X006592Y002257D01*
X006592Y002337D01*
X007032Y002337D01*
X007032Y002655D01*
X007020Y002730D01*
X006997Y002802D01*
X006962Y002869D01*
X006918Y002930D01*
X006864Y002984D01*
X006803Y003028D01*
X006736Y003062D01*
X006664Y003086D01*
X006592Y003097D01*
X006592Y002338D01*
X006512Y002338D01*
X006512Y003097D01*
X006439Y003086D01*
X006368Y003062D01*
X006300Y003028D01*
X006292Y003022D01*
X006292Y003045D01*
X006255Y003133D01*
X006061Y003327D01*
X006292Y003327D01*
X006292Y003929D01*
X006412Y003929D01*
X006412Y003327D01*
X006904Y003327D01*
X006945Y003338D01*
X006982Y003359D01*
X007011Y003389D01*
X007032Y003426D01*
X007043Y003466D01*
X007043Y003929D01*
X006412Y003929D01*
X006412Y004049D01*
X007043Y004049D01*
X007043Y004512D01*
X007032Y004553D01*
X007011Y004590D01*
X006982Y004619D01*
X006945Y004640D01*
X006904Y004651D01*
X006412Y004651D01*
X006412Y004050D01*
X006292Y004050D01*
X006292Y004651D01*
X005812Y004651D01*
X005812Y005678D01*
X005937Y005804D01*
X006958Y005804D01*
X007063Y005909D01*
X007063Y007062D01*
X006958Y007167D01*
X006222Y007167D01*
X006222Y007393D01*
X006256Y007428D01*
X006256Y007933D01*
X006302Y007979D01*
X006338Y008067D01*
X006338Y009123D01*
X006429Y009123D01*
X006506Y009200D01*
X006531Y009174D01*
X006568Y009153D01*
X006609Y009143D01*
X006826Y009143D01*
X006826Y009557D01*
X006945Y009557D01*
X006945Y009143D01*
X007162Y009143D01*
X007203Y009153D01*
X007240Y009174D01*
X007269Y009204D01*
X007290Y009241D01*
X007301Y009281D01*
X007301Y009558D01*
X006946Y009558D01*
X006946Y009677D01*
X007301Y009677D01*
X007301Y009954D01*
X007290Y009994D01*
X007269Y010031D01*
X007240Y010060D01*
X007203Y010081D01*
X007162Y010092D01*
X006945Y010092D01*
X006945Y009678D01*
X006826Y009678D01*
X006826Y010092D01*
X006668Y010092D01*
X006692Y010150D01*
X006692Y010346D01*
X006762Y010416D01*
X006762Y010505D01*
X006801Y010466D01*
X007423Y010466D01*
X007435Y010478D01*
X007435Y000791D01*
X007429Y000729D01*
X007381Y000613D01*
X007293Y000525D01*
X007178Y000477D01*
X007115Y000471D01*
X001028Y000471D01*
X000966Y000477D01*
X000851Y000525D01*
X000762Y000613D01*
X000715Y000729D01*
X000708Y000791D01*
X000708Y000849D01*
X000708Y000866D01*
X000708Y012221D01*
X001382Y011548D01*
X001382Y011460D01*
X001487Y011354D01*
X001908Y011354D01*
X001928Y011374D01*
X002064Y011374D01*
X002064Y011721D01*
X002080Y011721D01*
X002080Y011374D01*
X002215Y011374D01*
X002235Y011354D01*
X002656Y011354D01*
X002762Y011460D01*
X002762Y011999D01*
X002706Y012055D01*
X002706Y012437D01*
X003106Y012437D01*
X003092Y012413D01*
X003081Y012372D01*
X003081Y012066D01*
X003376Y012066D01*
X003376Y012036D01*
X003081Y012036D01*
X003081Y011730D01*
X003092Y011689D01*
X003113Y011653D01*
X003143Y011623D01*
X003179Y011602D01*
X003220Y011591D01*
X003376Y011591D01*
X003376Y012036D01*
X003406Y012036D01*
X003406Y011591D01*
X003562Y011591D01*
X003603Y011602D01*
X003639Y011623D01*
X003669Y011653D01*
X003690Y011689D01*
X003701Y011730D01*
X003701Y012036D01*
X003406Y012036D01*
X003406Y012066D01*
X003701Y012066D01*
X003701Y012372D01*
X003690Y012413D01*
X003669Y012449D01*
X003639Y012479D01*
X003603Y012500D01*
X003562Y012511D01*
X003406Y012511D01*
X003406Y012066D01*
X003376Y012066D01*
X003376Y012511D01*
X003229Y012511D01*
X003261Y012543D01*
X003261Y014401D01*
X003636Y014026D01*
X003636Y013795D01*
X001856Y001474D02*
X001856Y001096D01*
X001819Y001096D01*
X001819Y001474D01*
X001659Y001474D01*
X001618Y001463D01*
X001582Y001442D01*
X001552Y001412D01*
X001531Y001375D01*
X001520Y001335D01*
X001520Y001096D01*
X001818Y001096D01*
X001818Y001059D01*
X001520Y001059D01*
X001520Y000820D01*
X001531Y000779D01*
X001552Y000743D01*
X001582Y000713D01*
X001618Y000692D01*
X001659Y000681D01*
X001819Y000681D01*
X001819Y001058D01*
X001856Y001058D01*
X001856Y000681D01*
X002016Y000681D01*
X002057Y000692D01*
X002093Y000713D01*
X002123Y000743D01*
X002144Y000779D01*
X002155Y000820D01*
X002155Y001059D01*
X001856Y001059D01*
X001856Y001096D01*
X002155Y001096D01*
X002155Y001335D01*
X002144Y001375D01*
X002123Y001412D01*
X002093Y001442D01*
X002057Y001463D01*
X002016Y001474D01*
X001856Y001474D01*
X002544Y016057D02*
X002589Y016013D01*
X002031Y016013D01*
X001926Y015907D01*
X001926Y015402D01*
X001681Y015157D01*
X001488Y015157D01*
X001498Y015168D01*
X001498Y015645D01*
X001911Y016057D01*
X002544Y016057D01*
X005393Y015042D02*
X005503Y015042D01*
X005503Y014837D01*
X004988Y014837D01*
X004883Y014732D01*
X004883Y014386D01*
X004508Y014386D01*
X004508Y014456D01*
X004402Y014562D01*
X004252Y014562D01*
X004179Y014694D01*
X004776Y014694D01*
X004882Y014799D01*
X004882Y015440D01*
X004776Y015546D01*
X004705Y015546D01*
X004705Y015676D01*
X004705Y015772D01*
X004681Y015832D01*
X004744Y015984D01*
X004744Y016251D01*
X004642Y016499D01*
X004453Y016688D01*
X004206Y016790D01*
X003938Y016790D01*
X003691Y016688D01*
X003502Y016499D01*
X003400Y016251D01*
X003400Y015984D01*
X003502Y015737D01*
X003691Y015548D01*
X003696Y015546D01*
X003367Y015546D01*
X003332Y015510D01*
X003332Y015846D01*
X003332Y015949D01*
X003292Y016045D01*
X002872Y016465D01*
X002799Y016538D01*
X002704Y016577D01*
X001855Y016577D01*
X001751Y016577D01*
X001656Y016538D01*
X001319Y016201D01*
X001319Y016370D01*
X001246Y016544D01*
X001113Y016678D01*
X000938Y016751D01*
X000852Y016751D01*
X000966Y016798D01*
X001028Y016804D01*
X001079Y016804D01*
X001103Y016804D01*
X007115Y016804D01*
X007178Y016798D01*
X007293Y016750D01*
X007381Y016662D01*
X007429Y016546D01*
X007435Y016484D01*
X007435Y016458D01*
X007435Y016409D01*
X007435Y015993D01*
X006771Y015993D01*
X006666Y015887D01*
X006666Y015148D01*
X006771Y015042D01*
X007112Y015042D01*
X007112Y014837D01*
X006206Y014837D01*
X006101Y014732D01*
X006101Y012583D01*
X006166Y012517D01*
X005977Y012517D01*
X006043Y012583D01*
X006043Y014732D01*
X006023Y014752D01*
X006023Y015042D01*
X006133Y015042D01*
X006238Y015148D01*
X006238Y015887D01*
X006133Y015993D01*
X005393Y015993D01*
X005288Y015887D01*
X005288Y015148D01*
X005393Y015042D01*
X002101Y012543D02*
X002186Y012458D01*
X002186Y012084D01*
X002080Y012084D01*
X002080Y011737D01*
X002064Y011737D01*
X002064Y012084D01*
X001928Y012084D01*
X001908Y012104D01*
X001505Y012104D01*
X001171Y012437D01*
X001937Y012437D01*
X002043Y012543D01*
X002043Y014341D01*
X002101Y014399D01*
X002101Y012543D01*
X000518Y000339D02*
X000512Y000339D01*
X007625Y000339D02*
X007702Y000339D01*
X003773Y000577D02*
X000799Y000577D01*
X004012Y000577D02*
X004132Y000577D01*
X004370Y000577D02*
X007345Y000577D01*
X001613Y000695D02*
X000729Y000695D01*
X001819Y000695D02*
X001856Y000695D01*
X002062Y000695D02*
X002280Y000695D01*
X002812Y000695D02*
X003612Y000695D01*
X004012Y000695D02*
X004132Y000695D01*
X004532Y000695D02*
X005162Y000695D01*
X006326Y000695D02*
X006445Y000695D01*
X006787Y000695D02*
X007415Y000695D01*
X001522Y000814D02*
X000708Y000814D01*
X001819Y000814D02*
X001856Y000814D01*
X002153Y000814D02*
X002209Y000814D01*
X002884Y000814D02*
X003517Y000814D01*
X004012Y000814D02*
X004132Y000814D01*
X004626Y000814D02*
X005162Y000814D01*
X006326Y000814D02*
X006445Y000814D01*
X006801Y000814D02*
X007435Y000814D01*
X001520Y000932D02*
X000708Y000932D01*
X001819Y000932D02*
X001856Y000932D01*
X002155Y000932D02*
X002209Y000932D01*
X002884Y000932D02*
X003459Y000932D01*
X004012Y000932D02*
X004132Y000932D01*
X004684Y000932D02*
X005162Y000932D01*
X006326Y000932D02*
X006445Y000932D01*
X006801Y000932D02*
X007435Y000932D01*
X001520Y001051D02*
X000708Y001051D01*
X001819Y001051D02*
X001856Y001051D01*
X002155Y001051D02*
X002209Y001051D01*
X002884Y001051D02*
X003428Y001051D01*
X004012Y001051D02*
X004132Y001051D01*
X004716Y001051D02*
X005079Y001051D01*
X006446Y001051D02*
X007435Y001051D01*
X001520Y001169D02*
X000708Y001169D01*
X001819Y001169D02*
X001856Y001169D01*
X002155Y001169D02*
X002209Y001169D01*
X002884Y001169D02*
X004012Y001169D01*
X004132Y001169D02*
X004961Y001169D01*
X006326Y001169D02*
X006445Y001169D01*
X006801Y001169D02*
X007435Y001169D01*
X001520Y001288D02*
X000708Y001288D01*
X001819Y001288D02*
X001856Y001288D01*
X002155Y001288D02*
X002209Y001288D01*
X002884Y001288D02*
X003432Y001288D01*
X004012Y001288D02*
X004132Y001288D01*
X004712Y001288D02*
X004842Y001288D01*
X006326Y001288D02*
X006445Y001288D01*
X006801Y001288D02*
X007435Y001288D01*
X001549Y001406D02*
X000708Y001406D01*
X001819Y001406D02*
X001856Y001406D01*
X002126Y001406D02*
X002227Y001406D01*
X002865Y001406D02*
X003469Y001406D01*
X004012Y001406D02*
X004132Y001406D01*
X004674Y001406D02*
X004724Y001406D01*
X006326Y001406D02*
X006445Y001406D01*
X006801Y001406D02*
X007435Y001406D01*
X001338Y001525D02*
X000708Y001525D01*
X001766Y001525D02*
X002306Y001525D01*
X002786Y001525D02*
X003338Y001525D01*
X004012Y001525D02*
X004132Y001525D01*
X006326Y001525D02*
X006391Y001525D01*
X006732Y001525D02*
X007435Y001525D01*
X001179Y001643D02*
X000708Y001643D01*
X001925Y001643D02*
X002179Y001643D01*
X002925Y001643D02*
X003179Y001643D01*
X004012Y001643D02*
X004132Y001643D01*
X005165Y001643D02*
X005179Y001643D01*
X006897Y001643D02*
X007435Y001643D01*
X001100Y001762D02*
X000708Y001762D01*
X002004Y001762D02*
X002100Y001762D01*
X003004Y001762D02*
X003100Y001762D01*
X004012Y001762D02*
X004100Y001762D01*
X005047Y001762D02*
X005100Y001762D01*
X006981Y001762D02*
X007435Y001762D01*
X001052Y001881D02*
X000708Y001881D01*
X002052Y001881D02*
X002052Y001881D01*
X003052Y001881D02*
X003052Y001881D01*
X004052Y001881D02*
X004052Y001881D01*
X005052Y001881D02*
X005052Y001881D01*
X007022Y001881D02*
X007435Y001881D01*
X001052Y001999D02*
X000708Y001999D01*
X002052Y001999D02*
X002052Y001999D01*
X003052Y001999D02*
X003052Y001999D01*
X004052Y001999D02*
X004052Y001999D01*
X005052Y001999D02*
X005052Y001999D01*
X007032Y001999D02*
X007435Y001999D01*
X001052Y002118D02*
X000708Y002118D01*
X002052Y002118D02*
X002052Y002118D01*
X003052Y002118D02*
X003052Y002118D01*
X004052Y002118D02*
X004052Y002118D01*
X005052Y002118D02*
X005052Y002118D01*
X007032Y002118D02*
X007435Y002118D01*
X001052Y002236D02*
X000708Y002236D01*
X002052Y002236D02*
X002052Y002236D01*
X003052Y002236D02*
X003052Y002236D01*
X004052Y002236D02*
X004052Y002236D01*
X005052Y002236D02*
X005052Y002236D01*
X007032Y002236D02*
X007435Y002236D01*
X001052Y002355D02*
X000708Y002355D01*
X002052Y002355D02*
X002052Y002355D01*
X003052Y002355D02*
X003052Y002355D01*
X004052Y002355D02*
X004052Y002355D01*
X005052Y002355D02*
X005052Y002355D01*
X006512Y002355D02*
X006592Y002355D01*
X007032Y002355D02*
X007435Y002355D01*
X001052Y002473D02*
X000708Y002473D01*
X002052Y002473D02*
X002052Y002473D01*
X003052Y002473D02*
X003052Y002473D01*
X004052Y002473D02*
X004052Y002473D01*
X005052Y002473D02*
X005052Y002473D01*
X006512Y002473D02*
X006592Y002473D01*
X007032Y002473D02*
X007435Y002473D01*
X001052Y002592D02*
X000708Y002592D01*
X002052Y002592D02*
X002052Y002592D01*
X003052Y002592D02*
X003052Y002592D01*
X004052Y002592D02*
X004052Y002592D01*
X005052Y002592D02*
X005052Y002592D01*
X006512Y002592D02*
X006592Y002592D01*
X007032Y002592D02*
X007435Y002592D01*
X001052Y002710D02*
X000708Y002710D01*
X002052Y002710D02*
X002052Y002710D01*
X003052Y002710D02*
X003052Y002710D01*
X004052Y002710D02*
X004052Y002710D01*
X006512Y002710D02*
X006592Y002710D01*
X007023Y002710D02*
X007435Y002710D01*
X001098Y002829D02*
X000708Y002829D01*
X002005Y002829D02*
X002098Y002829D01*
X003005Y002829D02*
X003033Y002829D01*
X004005Y002829D02*
X004098Y002829D01*
X006512Y002829D02*
X006592Y002829D01*
X006983Y002829D02*
X007435Y002829D01*
X001175Y002947D02*
X000708Y002947D01*
X001929Y002947D02*
X002175Y002947D01*
X002929Y002947D02*
X002976Y002947D01*
X004041Y002947D02*
X004175Y002947D01*
X006512Y002947D02*
X006592Y002947D01*
X006901Y002947D02*
X007435Y002947D01*
X001312Y003066D02*
X000708Y003066D01*
X001800Y003066D02*
X002192Y003066D01*
X002776Y003066D02*
X002920Y003066D01*
X004160Y003066D02*
X004328Y003066D01*
X006283Y003066D02*
X006379Y003066D01*
X006512Y003066D02*
X006592Y003066D01*
X006725Y003066D02*
X007435Y003066D01*
X001312Y003184D02*
X000708Y003184D01*
X001918Y003184D02*
X002192Y003184D01*
X002672Y003184D02*
X002864Y003184D01*
X003395Y003184D02*
X003599Y003184D01*
X004278Y003184D02*
X004712Y003184D01*
X006204Y003184D02*
X007435Y003184D01*
X001358Y003303D02*
X000708Y003303D01*
X002037Y003303D02*
X002192Y003303D01*
X002672Y003303D02*
X002807Y003303D01*
X003339Y003303D02*
X003718Y003303D01*
X004397Y003303D02*
X004712Y003303D01*
X006086Y003303D02*
X007435Y003303D01*
X001477Y003422D02*
X000708Y003422D01*
X003694Y003422D02*
X003837Y003422D01*
X004515Y003422D02*
X004712Y003422D01*
X006292Y003422D02*
X006412Y003422D01*
X007030Y003422D02*
X007435Y003422D01*
X001595Y003540D02*
X000708Y003540D01*
X003720Y003540D02*
X003955Y003540D01*
X004588Y003540D02*
X004712Y003540D01*
X006292Y003540D02*
X006412Y003540D01*
X007043Y003540D02*
X007435Y003540D01*
X001663Y003659D02*
X000708Y003659D01*
X003720Y003659D02*
X004074Y003659D01*
X004592Y003659D02*
X004712Y003659D01*
X006292Y003659D02*
X006412Y003659D01*
X007043Y003659D02*
X007435Y003659D01*
X001663Y003777D02*
X000708Y003777D01*
X003720Y003777D02*
X004112Y003777D01*
X004592Y003777D02*
X004712Y003777D01*
X006292Y003777D02*
X006412Y003777D01*
X007043Y003777D02*
X007435Y003777D01*
X001663Y003896D02*
X000708Y003896D01*
X003720Y003896D02*
X004112Y003896D01*
X004592Y003896D02*
X004712Y003896D01*
X006292Y003896D02*
X006412Y003896D01*
X007043Y003896D02*
X007435Y003896D01*
X001663Y004014D02*
X000708Y004014D01*
X003720Y004014D02*
X004112Y004014D01*
X004592Y004014D02*
X004712Y004014D01*
X006412Y004014D02*
X007435Y004014D01*
X001663Y004133D02*
X000708Y004133D01*
X003720Y004133D02*
X003921Y004133D01*
X006292Y004133D02*
X006412Y004133D01*
X007043Y004133D02*
X007435Y004133D01*
X001663Y004251D02*
X000708Y004251D01*
X003720Y004251D02*
X003817Y004251D01*
X006292Y004251D02*
X006412Y004251D01*
X007043Y004251D02*
X007435Y004251D01*
X001663Y004370D02*
X000708Y004370D01*
X003720Y004370D02*
X003817Y004370D01*
X006292Y004370D02*
X006412Y004370D01*
X007043Y004370D02*
X007435Y004370D01*
X001641Y004488D02*
X000708Y004488D01*
X003695Y004488D02*
X003817Y004488D01*
X006292Y004488D02*
X006412Y004488D01*
X007043Y004488D02*
X007435Y004488D01*
X001523Y004607D02*
X000708Y004607D01*
X002163Y004607D02*
X003202Y004607D01*
X003682Y004607D02*
X003817Y004607D01*
X006292Y004607D02*
X006412Y004607D01*
X006994Y004607D02*
X007435Y004607D01*
X001404Y004726D02*
X000708Y004726D01*
X002083Y004726D02*
X003202Y004726D01*
X003682Y004726D02*
X003817Y004726D01*
X005812Y004726D02*
X007435Y004726D01*
X001286Y004844D02*
X000708Y004844D01*
X001965Y004844D02*
X003186Y004844D01*
X003738Y004844D02*
X003817Y004844D01*
X005812Y004844D02*
X007435Y004844D01*
X001167Y004963D02*
X000708Y004963D01*
X005812Y004963D02*
X007435Y004963D01*
X001049Y005081D02*
X000708Y005081D01*
X005812Y005081D02*
X007435Y005081D01*
X000930Y005200D02*
X000708Y005200D01*
X005812Y005200D02*
X007435Y005200D01*
X000872Y005318D02*
X000708Y005318D01*
X003390Y005318D02*
X003533Y005318D01*
X004950Y005318D02*
X004972Y005318D01*
X005812Y005318D02*
X007435Y005318D01*
X000872Y005437D02*
X000708Y005437D01*
X001912Y005437D02*
X003817Y005437D01*
X004886Y005437D02*
X004972Y005437D01*
X005812Y005437D02*
X007435Y005437D01*
X000872Y005555D02*
X000708Y005555D01*
X001793Y005555D02*
X003817Y005555D01*
X004886Y005555D02*
X004972Y005555D01*
X005812Y005555D02*
X007435Y005555D01*
X000872Y005674D02*
X000708Y005674D01*
X001732Y005674D02*
X003817Y005674D01*
X004886Y005674D02*
X004972Y005674D01*
X005812Y005674D02*
X007435Y005674D01*
X000872Y005792D02*
X000708Y005792D01*
X001732Y005792D02*
X003817Y005792D01*
X004886Y005792D02*
X004972Y005792D01*
X005926Y005792D02*
X007435Y005792D01*
X000872Y005911D02*
X000708Y005911D01*
X001946Y005911D02*
X001946Y005911D01*
X002174Y005911D02*
X002188Y005911D01*
X003700Y005911D02*
X003817Y005911D01*
X004886Y005911D02*
X004972Y005911D01*
X007063Y005911D02*
X007435Y005911D01*
X000872Y006030D02*
X000708Y006030D01*
X001946Y006030D02*
X001946Y006030D01*
X003720Y006030D02*
X003817Y006030D01*
X004886Y006030D02*
X004972Y006030D01*
X005452Y006030D02*
X005484Y006030D01*
X007063Y006030D02*
X007435Y006030D01*
X000872Y006148D02*
X000708Y006148D01*
X001946Y006148D02*
X001946Y006148D01*
X003720Y006148D02*
X003847Y006148D01*
X004856Y006148D02*
X004972Y006148D01*
X005452Y006148D02*
X005603Y006148D01*
X007063Y006148D02*
X007435Y006148D01*
X000872Y006267D02*
X000708Y006267D01*
X001946Y006267D02*
X001946Y006267D01*
X003720Y006267D02*
X004112Y006267D01*
X004592Y006267D02*
X004972Y006267D01*
X005452Y006267D02*
X005640Y006267D01*
X007063Y006267D02*
X007435Y006267D01*
X000872Y006385D02*
X000708Y006385D01*
X001946Y006385D02*
X001946Y006385D01*
X003720Y006385D02*
X004112Y006385D01*
X004592Y006385D02*
X004972Y006385D01*
X005452Y006385D02*
X005640Y006385D01*
X007063Y006385D02*
X007435Y006385D01*
X000872Y006504D02*
X000708Y006504D01*
X001946Y006504D02*
X001946Y006504D01*
X003720Y006504D02*
X004112Y006504D01*
X004592Y006504D02*
X004972Y006504D01*
X005452Y006504D02*
X005640Y006504D01*
X007063Y006504D02*
X007435Y006504D01*
X000872Y006622D02*
X000708Y006622D01*
X001946Y006622D02*
X001946Y006622D01*
X003720Y006622D02*
X004112Y006622D01*
X004592Y006622D02*
X004972Y006622D01*
X005452Y006622D02*
X005640Y006622D01*
X007063Y006622D02*
X007435Y006622D01*
X000872Y006741D02*
X000708Y006741D01*
X001946Y006741D02*
X001946Y006741D01*
X003740Y006741D02*
X004112Y006741D01*
X004592Y006741D02*
X004972Y006741D01*
X005452Y006741D02*
X005640Y006741D01*
X007063Y006741D02*
X007435Y006741D01*
X000872Y006859D02*
X000708Y006859D01*
X001946Y006859D02*
X001946Y006859D01*
X003859Y006859D02*
X004112Y006859D01*
X004592Y006859D02*
X004972Y006859D01*
X005452Y006859D02*
X005640Y006859D01*
X007063Y006859D02*
X007435Y006859D01*
X000872Y006978D02*
X000708Y006978D01*
X001946Y006978D02*
X001946Y006978D01*
X002693Y006978D02*
X002698Y006978D01*
X003977Y006978D02*
X004112Y006978D01*
X004592Y006978D02*
X004952Y006978D01*
X005452Y006978D02*
X005640Y006978D01*
X007063Y006978D02*
X007435Y006978D01*
X000872Y007096D02*
X000708Y007096D01*
X001732Y007096D02*
X001913Y007096D01*
X002683Y007096D02*
X002701Y007096D01*
X004022Y007096D02*
X004112Y007096D01*
X004592Y007096D02*
X004866Y007096D01*
X005452Y007096D02*
X005675Y007096D01*
X007029Y007096D02*
X007435Y007096D01*
X000872Y007215D02*
X000708Y007215D01*
X001732Y007215D02*
X001902Y007215D01*
X002683Y007215D02*
X002701Y007215D01*
X003482Y007215D02*
X003562Y007215D01*
X004022Y007215D02*
X004112Y007215D01*
X004592Y007215D02*
X004852Y007215D01*
X005394Y007215D02*
X005762Y007215D01*
X006222Y007215D02*
X007435Y007215D01*
X000872Y007334D02*
X000708Y007334D01*
X001732Y007334D02*
X001902Y007334D01*
X002683Y007334D02*
X002701Y007334D01*
X003482Y007334D02*
X003562Y007334D01*
X004784Y007334D02*
X004852Y007334D01*
X005332Y007334D02*
X005400Y007334D01*
X006222Y007334D02*
X007435Y007334D01*
X000872Y007452D02*
X000708Y007452D01*
X001732Y007452D02*
X001902Y007452D01*
X002683Y007452D02*
X002701Y007452D01*
X003482Y007452D02*
X003562Y007452D01*
X006256Y007452D02*
X007435Y007452D01*
X000872Y007571D02*
X000708Y007571D01*
X001732Y007571D02*
X001902Y007571D01*
X002683Y007571D02*
X002701Y007571D01*
X003482Y007571D02*
X003562Y007571D01*
X006256Y007571D02*
X007435Y007571D01*
X000872Y007689D02*
X000708Y007689D01*
X001732Y007689D02*
X001902Y007689D01*
X002683Y007689D02*
X002701Y007689D01*
X003482Y007689D02*
X003562Y007689D01*
X006256Y007689D02*
X007435Y007689D01*
X000872Y007808D02*
X000708Y007808D01*
X001732Y007808D02*
X001902Y007808D01*
X002683Y007808D02*
X002701Y007808D01*
X003482Y007808D02*
X003562Y007808D01*
X006256Y007808D02*
X007435Y007808D01*
X000872Y007926D02*
X000708Y007926D01*
X001732Y007926D02*
X001902Y007926D01*
X002683Y007926D02*
X002701Y007926D01*
X003482Y007926D02*
X003562Y007926D01*
X006256Y007926D02*
X007435Y007926D01*
X000872Y008045D02*
X000708Y008045D01*
X001799Y008045D02*
X003562Y008045D01*
X006329Y008045D02*
X007435Y008045D01*
X000872Y008163D02*
X000708Y008163D01*
X001918Y008163D02*
X003562Y008163D01*
X006338Y008163D02*
X007435Y008163D01*
X000872Y008282D02*
X000708Y008282D01*
X001352Y008282D02*
X001358Y008282D01*
X002037Y008282D02*
X003562Y008282D01*
X004022Y008282D02*
X004828Y008282D01*
X005332Y008282D02*
X005858Y008282D01*
X006338Y008282D02*
X007435Y008282D01*
X000872Y008400D02*
X000708Y008400D01*
X001352Y008400D02*
X001476Y008400D01*
X002096Y008400D02*
X003562Y008400D01*
X004022Y008400D02*
X004709Y008400D01*
X005332Y008400D02*
X005858Y008400D01*
X006338Y008400D02*
X007435Y008400D01*
X000872Y008519D02*
X000708Y008519D01*
X001352Y008519D02*
X001595Y008519D01*
X002096Y008519D02*
X003562Y008519D01*
X004038Y008519D02*
X004651Y008519D01*
X005270Y008519D02*
X005858Y008519D01*
X006338Y008519D02*
X007435Y008519D01*
X000872Y008637D02*
X000708Y008637D01*
X001352Y008637D02*
X001616Y008637D01*
X002096Y008637D02*
X003562Y008637D01*
X004157Y008637D02*
X004651Y008637D01*
X005151Y008637D02*
X005858Y008637D01*
X006338Y008637D02*
X007435Y008637D01*
X000872Y008756D02*
X000708Y008756D01*
X001352Y008756D02*
X001616Y008756D01*
X002096Y008756D02*
X003625Y008756D01*
X004276Y008756D02*
X004651Y008756D01*
X005131Y008756D02*
X005858Y008756D01*
X006338Y008756D02*
X007435Y008756D01*
X000836Y008875D02*
X000708Y008875D01*
X002096Y008875D02*
X003744Y008875D01*
X004394Y008875D02*
X004651Y008875D01*
X005131Y008875D02*
X005858Y008875D01*
X006338Y008875D02*
X007435Y008875D01*
X000836Y008993D02*
X000708Y008993D01*
X002096Y008993D02*
X003862Y008993D01*
X004513Y008993D02*
X004651Y008993D01*
X005131Y008993D02*
X005858Y008993D01*
X006338Y008993D02*
X007435Y008993D01*
X000836Y009112D02*
X000708Y009112D01*
X002138Y009112D02*
X003981Y009112D01*
X004631Y009112D02*
X004651Y009112D01*
X005131Y009112D02*
X005858Y009112D01*
X006338Y009112D02*
X007435Y009112D01*
X000836Y009230D02*
X000708Y009230D01*
X002154Y009230D02*
X002164Y009230D01*
X002571Y009230D02*
X004099Y009230D01*
X005131Y009230D02*
X005662Y009230D01*
X006826Y009230D02*
X006945Y009230D01*
X007284Y009230D02*
X007435Y009230D01*
X000849Y009349D02*
X000708Y009349D01*
X002666Y009349D02*
X004218Y009349D01*
X005131Y009349D02*
X005662Y009349D01*
X006826Y009349D02*
X006945Y009349D01*
X007301Y009349D02*
X007435Y009349D01*
X001022Y009467D02*
X000708Y009467D01*
X002686Y009467D02*
X004336Y009467D01*
X005131Y009467D02*
X005662Y009467D01*
X006826Y009467D02*
X006945Y009467D01*
X007301Y009467D02*
X007435Y009467D01*
X000836Y009586D02*
X000708Y009586D01*
X002686Y009586D02*
X004455Y009586D01*
X005131Y009586D02*
X005662Y009586D01*
X006946Y009586D02*
X007435Y009586D01*
X000836Y009704D02*
X000708Y009704D01*
X002686Y009704D02*
X003088Y009704D01*
X003376Y009704D02*
X003406Y009704D01*
X003694Y009704D02*
X004561Y009704D01*
X005221Y009704D02*
X005662Y009704D01*
X006826Y009704D02*
X006945Y009704D01*
X007301Y009704D02*
X007435Y009704D01*
X000836Y009823D02*
X000708Y009823D01*
X002686Y009823D02*
X003081Y009823D01*
X003376Y009823D02*
X003406Y009823D01*
X003701Y009823D02*
X004561Y009823D01*
X005221Y009823D02*
X005662Y009823D01*
X006826Y009823D02*
X006945Y009823D01*
X007301Y009823D02*
X007435Y009823D01*
X000836Y009941D02*
X000708Y009941D01*
X002686Y009941D02*
X003081Y009941D01*
X003376Y009941D02*
X003406Y009941D01*
X003701Y009941D02*
X004561Y009941D01*
X005221Y009941D02*
X005662Y009941D01*
X006826Y009941D02*
X006945Y009941D01*
X007301Y009941D02*
X007435Y009941D01*
X000852Y010060D02*
X000708Y010060D01*
X002686Y010060D02*
X003376Y010060D01*
X003406Y010060D02*
X004561Y010060D01*
X005221Y010060D02*
X005496Y010060D01*
X006826Y010060D02*
X006945Y010060D01*
X007240Y010060D02*
X007435Y010060D01*
X001452Y010179D02*
X000708Y010179D01*
X002686Y010179D02*
X003081Y010179D01*
X003701Y010179D02*
X004561Y010179D01*
X005221Y010179D02*
X005458Y010179D01*
X006692Y010179D02*
X007435Y010179D01*
X001452Y010297D02*
X000708Y010297D01*
X002686Y010297D02*
X003081Y010297D01*
X003701Y010297D02*
X004561Y010297D01*
X005221Y010297D02*
X005458Y010297D01*
X006692Y010297D02*
X007435Y010297D01*
X001403Y010416D02*
X000708Y010416D01*
X002741Y010416D02*
X003094Y010416D01*
X003689Y010416D02*
X004561Y010416D01*
X005221Y010416D02*
X005383Y010416D01*
X006761Y010416D02*
X007435Y010416D01*
X001382Y010534D02*
X000708Y010534D01*
X000708Y010653D02*
X001382Y010653D01*
X001382Y010771D02*
X000708Y010771D01*
X002064Y010771D02*
X002080Y010771D01*
X006064Y010771D02*
X006080Y010771D01*
X001382Y010890D02*
X000708Y010890D01*
X002064Y010890D02*
X002080Y010890D01*
X006064Y010890D02*
X006080Y010890D01*
X001415Y011008D02*
X000708Y011008D01*
X002064Y011008D02*
X002080Y011008D01*
X002728Y011008D02*
X005435Y011008D01*
X006064Y011008D02*
X006080Y011008D01*
X006787Y011127D02*
X000708Y011127D01*
X000708Y011245D02*
X006758Y011245D01*
X007093Y011245D02*
X007131Y011245D01*
X001478Y011364D02*
X000708Y011364D01*
X001918Y011364D02*
X002226Y011364D01*
X002666Y011364D02*
X005458Y011364D01*
X006064Y011364D02*
X006080Y011364D01*
X006686Y011364D02*
X006716Y011364D01*
X007093Y011364D02*
X007131Y011364D01*
X001382Y011483D02*
X000708Y011483D01*
X002064Y011483D02*
X002080Y011483D01*
X002762Y011483D02*
X005382Y011483D01*
X006064Y011483D02*
X006080Y011483D01*
X007093Y011483D02*
X007131Y011483D01*
X001329Y011601D02*
X000708Y011601D01*
X002064Y011601D02*
X002080Y011601D01*
X002762Y011601D02*
X003183Y011601D01*
X003376Y011601D02*
X003406Y011601D01*
X003599Y011601D02*
X004637Y011601D01*
X005146Y011601D02*
X005382Y011601D01*
X006064Y011601D02*
X006080Y011601D01*
X007093Y011601D02*
X007131Y011601D01*
X001210Y011720D02*
X000708Y011720D01*
X002064Y011720D02*
X002080Y011720D01*
X002762Y011720D02*
X003084Y011720D01*
X003376Y011720D02*
X003406Y011720D01*
X003698Y011720D02*
X004561Y011720D01*
X005221Y011720D02*
X005382Y011720D01*
X007093Y011720D02*
X007131Y011720D01*
X001092Y011838D02*
X000708Y011838D01*
X002064Y011838D02*
X002080Y011838D01*
X002762Y011838D02*
X003081Y011838D01*
X003376Y011838D02*
X003406Y011838D01*
X003701Y011838D02*
X004561Y011838D01*
X005221Y011838D02*
X005382Y011838D01*
X006935Y011838D02*
X007435Y011838D01*
X000973Y011957D02*
X000708Y011957D01*
X002064Y011957D02*
X002080Y011957D01*
X002762Y011957D02*
X003081Y011957D01*
X003376Y011957D02*
X003406Y011957D01*
X003701Y011957D02*
X004561Y011957D01*
X005221Y011957D02*
X005382Y011957D01*
X007061Y011957D02*
X007435Y011957D01*
X000855Y012075D02*
X000708Y012075D01*
X002064Y012075D02*
X002080Y012075D01*
X002706Y012075D02*
X003081Y012075D01*
X003376Y012075D02*
X003406Y012075D01*
X003701Y012075D02*
X004561Y012075D01*
X005221Y012075D02*
X005458Y012075D01*
X007188Y012075D02*
X007435Y012075D01*
X000736Y012194D02*
X000708Y012194D01*
X001415Y012194D02*
X002186Y012194D01*
X002706Y012194D02*
X003081Y012194D01*
X003376Y012194D02*
X003406Y012194D01*
X003701Y012194D02*
X004561Y012194D01*
X005221Y012194D02*
X005459Y012194D01*
X007314Y012194D02*
X007435Y012194D01*
X002186Y012312D02*
X001296Y012312D01*
X002706Y012312D02*
X003081Y012312D01*
X003376Y012312D02*
X003406Y012312D01*
X003701Y012312D02*
X004561Y012312D01*
X005221Y012312D02*
X005527Y012312D01*
X006736Y012312D02*
X006739Y012312D01*
X002186Y012431D02*
X001178Y012431D01*
X002706Y012431D02*
X003103Y012431D01*
X003376Y012431D02*
X003406Y012431D01*
X003680Y012431D02*
X004566Y012431D01*
X005216Y012431D02*
X005646Y012431D01*
X006752Y012431D02*
X006865Y012431D01*
X002101Y012549D02*
X002043Y012549D01*
X003261Y012549D02*
X004916Y012549D01*
X006009Y012549D02*
X006134Y012549D01*
X002101Y012668D02*
X002043Y012668D01*
X003261Y012668D02*
X004883Y012668D01*
X006043Y012668D02*
X006101Y012668D01*
X002101Y012786D02*
X002043Y012786D01*
X003261Y012786D02*
X004883Y012786D01*
X006043Y012786D02*
X006101Y012786D01*
X002101Y012905D02*
X002043Y012905D01*
X003261Y012905D02*
X004883Y012905D01*
X006043Y012905D02*
X006101Y012905D01*
X002101Y013024D02*
X002043Y013024D01*
X003261Y013024D02*
X004883Y013024D01*
X006043Y013024D02*
X006101Y013024D01*
X002101Y013142D02*
X002043Y013142D01*
X003261Y013142D02*
X004883Y013142D01*
X006043Y013142D02*
X006101Y013142D01*
X002101Y013261D02*
X002043Y013261D01*
X003261Y013261D02*
X004883Y013261D01*
X006043Y013261D02*
X006101Y013261D01*
X002101Y013379D02*
X002043Y013379D01*
X003261Y013379D02*
X004883Y013379D01*
X006043Y013379D02*
X006101Y013379D01*
X002101Y013498D02*
X002043Y013498D01*
X003261Y013498D02*
X004883Y013498D01*
X006043Y013498D02*
X006101Y013498D01*
X002101Y013616D02*
X002043Y013616D01*
X003261Y013616D02*
X004883Y013616D01*
X006043Y013616D02*
X006101Y013616D01*
X002101Y013735D02*
X002043Y013735D01*
X003261Y013735D02*
X003696Y013735D01*
X004447Y013735D02*
X004883Y013735D01*
X006043Y013735D02*
X006101Y013735D01*
X002101Y013853D02*
X002043Y013853D01*
X003261Y013853D02*
X003636Y013853D01*
X004508Y013853D02*
X004883Y013853D01*
X006043Y013853D02*
X006101Y013853D01*
X002101Y013972D02*
X002043Y013972D01*
X003261Y013972D02*
X003636Y013972D01*
X006043Y013972D02*
X006101Y013972D01*
X002101Y014090D02*
X002043Y014090D01*
X003261Y014090D02*
X003571Y014090D01*
X006043Y014090D02*
X006101Y014090D01*
X002101Y014209D02*
X002043Y014209D01*
X003261Y014209D02*
X003453Y014209D01*
X006043Y014209D02*
X006101Y014209D01*
X002101Y014328D02*
X002043Y014328D01*
X003261Y014328D02*
X003334Y014328D01*
X006043Y014328D02*
X006101Y014328D01*
X004883Y014446D02*
X004508Y014446D01*
X006043Y014446D02*
X006101Y014446D01*
X004883Y014565D02*
X004251Y014565D01*
X006043Y014565D02*
X006101Y014565D01*
X004883Y014683D02*
X004185Y014683D01*
X006043Y014683D02*
X006101Y014683D01*
X004953Y014802D02*
X004882Y014802D01*
X006023Y014802D02*
X006171Y014802D01*
X005503Y014920D02*
X004882Y014920D01*
X006023Y014920D02*
X007112Y014920D01*
X000774Y015039D02*
X000708Y015039D01*
X004882Y015039D02*
X005503Y015039D01*
X006023Y015039D02*
X007112Y015039D01*
X005288Y015157D02*
X004882Y015157D01*
X006238Y015157D02*
X006666Y015157D01*
X001800Y015276D02*
X001498Y015276D01*
X004882Y015276D02*
X005288Y015276D01*
X006238Y015276D02*
X006666Y015276D01*
X001918Y015394D02*
X001498Y015394D01*
X004882Y015394D02*
X005288Y015394D01*
X006238Y015394D02*
X006666Y015394D01*
X001926Y015513D02*
X001498Y015513D01*
X003332Y015513D02*
X003335Y015513D01*
X004809Y015513D02*
X005288Y015513D01*
X006238Y015513D02*
X006666Y015513D01*
X001926Y015632D02*
X001498Y015632D01*
X003332Y015632D02*
X003608Y015632D01*
X004705Y015632D02*
X005288Y015632D01*
X006238Y015632D02*
X006666Y015632D01*
X001926Y015750D02*
X001603Y015750D01*
X003332Y015750D02*
X003497Y015750D01*
X004705Y015750D02*
X005288Y015750D01*
X006238Y015750D02*
X006666Y015750D01*
X001926Y015869D02*
X001722Y015869D01*
X003332Y015869D02*
X003447Y015869D01*
X004696Y015869D02*
X005288Y015869D01*
X006238Y015869D02*
X006666Y015869D01*
X002005Y015987D02*
X001840Y015987D01*
X003316Y015987D02*
X003400Y015987D01*
X004744Y015987D02*
X005387Y015987D01*
X006138Y015987D02*
X006765Y015987D01*
X003400Y016106D02*
X003231Y016106D01*
X004744Y016106D02*
X007435Y016106D01*
X001342Y016224D02*
X001319Y016224D01*
X003113Y016224D02*
X003400Y016224D01*
X004744Y016224D02*
X007435Y016224D01*
X001461Y016343D02*
X001319Y016343D01*
X002994Y016343D02*
X003438Y016343D01*
X004706Y016343D02*
X007435Y016343D01*
X001579Y016461D02*
X001281Y016461D01*
X002876Y016461D02*
X003487Y016461D01*
X004657Y016461D02*
X007435Y016461D01*
X003583Y016580D02*
X001211Y016580D01*
X004560Y016580D02*
X007415Y016580D01*
X003717Y016698D02*
X001064Y016698D01*
X004426Y016698D02*
X007344Y016698D01*
X000519Y016936D02*
X000512Y016936D01*
X007625Y016936D02*
X007702Y016936D01*
X002446Y006439D02*
X002432Y006453D01*
X002432Y006797D01*
X002219Y007010D01*
X002219Y007517D01*
X002946Y006439D02*
X002952Y006445D01*
X002952Y006797D01*
X003164Y007010D01*
X003164Y007517D01*
X004403Y007797D02*
X004352Y007746D01*
X004352Y005729D01*
X001942Y003956D02*
X001932Y004377D01*
X001932Y004537D01*
X001112Y005357D01*
X001112Y008963D01*
X001252Y009103D01*
X001942Y003956D02*
X001942Y003547D01*
X001552Y003157D01*
X001552Y002297D01*
X001252Y009812D02*
X001252Y009694D01*
X001856Y009694D01*
X002446Y010686D02*
X002446Y010157D01*
X001692Y010157D01*
X001692Y010706D01*
X002446Y010703D02*
X002446Y010686D01*
X005698Y010686D01*
X005698Y010197D01*
X006452Y010197D01*
X006452Y010686D01*
X006446Y010686D01*
X006452Y010686D02*
X006569Y010803D01*
X007112Y010803D01*
X002446Y010157D02*
X002446Y009497D01*
X002368Y009497D01*
X002442Y003956D02*
X002432Y003946D01*
X002432Y002297D01*
X002552Y002297D01*
X002546Y001077D02*
X002546Y002292D01*
X002552Y002297D01*
X002942Y003956D02*
X002952Y003956D01*
X002952Y003557D01*
X003459Y002492D01*
X003552Y002297D01*
X004352Y004626D02*
X004352Y003597D01*
X003459Y002705D01*
X003459Y002492D01*
X004891Y010051D02*
X004892Y010051D01*
X005212Y002877D02*
X005552Y002537D01*
X005552Y002297D01*
X005212Y002877D02*
X005212Y007057D01*
X005092Y007177D01*
X005092Y008357D01*
X004891Y008558D01*
X004891Y010051D01*
X005698Y011709D02*
X005698Y012143D01*
X005832Y012277D01*
X006392Y012277D01*
X006512Y012397D01*
X006512Y013369D01*
X006681Y013657D01*
X006446Y011709D02*
X007352Y012557D01*
X007352Y015306D01*
X007141Y015517D01*
X001698Y011729D02*
X001540Y011729D01*
X000752Y012517D01*
X000752Y014677D01*
X000992Y014917D01*
X001781Y014917D01*
X002401Y015537D01*
D27*
X005912Y006117D02*
X005912Y006417D01*
X005980Y006486D01*
X006352Y006486D01*
X005980Y006486D02*
X005992Y006497D01*
X005992Y007737D01*
X005932Y007797D01*
X005781Y007797D01*
X004072Y016118D02*
X004072Y016057D01*
X004072Y015937D01*
X001252Y009812D02*
X001252Y009103D01*
X001856Y009694D02*
X001859Y009697D01*
X001932Y009697D01*
X002368Y009497D01*
X003442Y006439D02*
X003442Y006797D01*
X003472Y006797D01*
X003792Y007117D01*
X003792Y008597D01*
X004891Y009697D01*
X004891Y010051D01*
X003678Y015120D02*
X004092Y014377D01*
X004072Y014126D01*
D28*
X001698Y010706D02*
X001692Y010706D01*
X002446Y010706D02*
X002446Y010703D01*
X002447Y010700D01*
X002449Y010698D01*
X002452Y010697D01*
X002446Y011729D02*
X002446Y013383D01*
X002681Y013617D01*
X005463Y014126D02*
X005463Y013917D01*
X005463Y013657D01*
X005463Y014126D02*
X004072Y014126D01*
X005763Y015517D02*
X005763Y013917D01*
X005463Y013917D01*
X004072Y014126D02*
X003904Y014126D01*
X003072Y014957D01*
X003072Y015897D01*
X002652Y016317D01*
X001803Y016317D01*
X001023Y015537D01*
X001463Y013617D02*
X001463Y014129D01*
X002272Y014937D01*
X003052Y014937D01*
X003072Y014957D01*
M02*
