G75*
G70*
%OFA0B0*%
%FSLAX24Y24*%
%IPPOS*%
%LPD*%
%AMOC8*
5,1,8,0,0,1.08239X$1,22.5*
%
%ADD10R,0.0197X0.0866*%
%ADD11R,0.0512X0.0630*%
%ADD12R,0.0591X0.0591*%
%ADD13R,0.0630X0.0709*%
%ADD14R,0.0472X0.0315*%
%ADD15R,0.0315X0.0472*%
%ADD16R,0.0551X0.0630*%
%ADD17R,0.1063X0.1004*%
%ADD18R,0.0300X0.0600*%
%ADD19R,0.0276X0.0669*%
%ADD20R,0.0390X0.0272*%
%ADD21R,0.0197X0.0236*%
%ADD22R,0.1000X0.3500*%
D10*
G36*
X002881Y005655D02*
X003020Y005516D01*
X002409Y004905D01*
X002270Y005044D01*
X002881Y005655D01*
G37*
G36*
X003234Y005301D02*
X003373Y005162D01*
X002762Y004551D01*
X002623Y004690D01*
X003234Y005301D01*
G37*
G36*
X002527Y006008D02*
X002666Y005869D01*
X002055Y005258D01*
X001916Y005397D01*
X002527Y006008D01*
G37*
G36*
X002174Y006362D02*
X002313Y006223D01*
X001702Y005612D01*
X001563Y005751D01*
X002174Y006362D01*
G37*
G36*
X003932Y008115D02*
X004071Y007976D01*
X003460Y007365D01*
X003321Y007504D01*
X003932Y008115D01*
G37*
G36*
X004286Y007761D02*
X004425Y007622D01*
X003814Y007011D01*
X003675Y007150D01*
X004286Y007761D01*
G37*
G36*
X004640Y007408D02*
X004779Y007269D01*
X004168Y006658D01*
X004029Y006797D01*
X004640Y007408D01*
G37*
G36*
X004990Y007057D02*
X005129Y006918D01*
X004518Y006307D01*
X004379Y006446D01*
X004990Y007057D01*
G37*
D11*
X006178Y009709D03*
X006966Y009709D03*
D12*
X002661Y008629D03*
X001283Y008629D03*
D13*
X001321Y007849D03*
X002423Y007849D03*
D14*
X002092Y009374D03*
X002092Y010083D03*
X001172Y010474D03*
X001172Y011183D03*
D15*
X001397Y003909D03*
X002106Y003909D03*
D16*
X005941Y011089D03*
X007043Y011089D03*
D17*
X006552Y006617D03*
X006552Y004120D03*
D18*
X004891Y010362D03*
X004891Y012362D03*
X003391Y012362D03*
X003391Y010362D03*
D19*
G36*
X004486Y008002D02*
X004291Y008197D01*
X004762Y008668D01*
X004957Y008473D01*
X004486Y008002D01*
G37*
G36*
X004820Y007668D02*
X004625Y007863D01*
X005096Y008334D01*
X005291Y008139D01*
X004820Y007668D01*
G37*
G36*
X005154Y007334D02*
X004959Y007529D01*
X005430Y008000D01*
X005625Y007805D01*
X005154Y007334D01*
G37*
D20*
X002524Y011714D03*
X002524Y012089D03*
X002524Y012463D03*
X001500Y012463D03*
X001500Y012089D03*
X001500Y011714D03*
D21*
X001835Y010573D03*
X002032Y011084D03*
X002229Y010573D03*
D22*
X001763Y014769D03*
X002981Y014769D03*
X005163Y014769D03*
X006381Y014769D03*
M02*
