G75*
G70*
%OFA0B0*%
%FSLAX24Y24*%
%IPPOS*%
%LPD*%
%AMOC8*
5,1,8,0,0,1.08239X$1,22.5*
%
%ADD10C,0.0197*%
%ADD11C,0.0079*%
%ADD12C,0.0787*%
%ADD13R,0.0709X0.0709*%
%ADD14OC8,0.0709*%
%ADD15R,0.1969X0.1969*%
%ADD16R,0.0394X0.0630*%
%ADD17R,0.0630X0.0394*%
%ADD18R,0.0709X0.1339*%
%ADD19R,0.0518X0.0661*%
%ADD20R,0.0984X0.0630*%
%ADD21R,0.0256X0.0630*%
%ADD22R,0.0550X0.0137*%
%ADD23R,0.0394X0.1811*%
%ADD24R,0.0630X0.1339*%
%ADD25R,0.0197X0.0984*%
%ADD26R,0.0787X0.0984*%
%ADD27C,0.0000*%
%ADD28C,0.0290*%
%ADD29C,0.0315*%
%ADD30C,0.0396*%
%ADD31C,0.0080*%
%ADD32R,0.0290X0.0290*%
%ADD33C,0.0160*%
%ADD34R,0.1581X0.1581*%
D10*
X003754Y004379D02*
X003754Y004941D01*
X002941Y005754D01*
X002941Y006226D01*
X001941Y007379D02*
X001969Y007407D01*
X005037Y004593D02*
X005843Y004593D01*
X006441Y005191D01*
X007229Y005191D01*
X007254Y006941D02*
X008567Y006941D01*
X007941Y008879D02*
X006691Y008879D01*
X012707Y003254D02*
X012879Y003426D01*
X012879Y004379D01*
X012879Y005101D01*
X012851Y005129D01*
X012879Y004379D02*
X012851Y004379D01*
X014032Y005129D02*
X014032Y003398D01*
X014176Y003254D01*
X014032Y005129D02*
X016004Y005129D01*
X016913Y006038D01*
X018441Y006038D01*
X018976Y006038D01*
X019226Y006288D01*
X019226Y007441D01*
X019317Y007532D01*
X019317Y008317D01*
X019317Y008941D01*
X018817Y008317D02*
X018817Y007879D01*
X018441Y007504D01*
X018441Y007220D01*
X017504Y005435D02*
X017264Y005435D01*
X017264Y004504D01*
X017504Y005435D02*
X020004Y005435D01*
X020407Y005798D01*
X020407Y007441D01*
X020317Y007532D01*
X020317Y008317D01*
X018817Y010004D02*
X018817Y010567D01*
X018817Y010004D02*
X015754Y006941D01*
X014004Y006941D01*
X014004Y008254D02*
X014004Y009504D01*
X013379Y008879D02*
X014629Y008879D01*
X016004Y005129D02*
X016004Y004504D01*
X020441Y013094D02*
X020407Y013129D01*
D11*
X020407Y014004D01*
X020407Y015191D01*
X019504Y014004D02*
X019817Y013691D01*
X019817Y010567D01*
X020317Y010567D02*
X020913Y010567D01*
X020941Y010594D01*
X020941Y009413D02*
X020941Y008629D01*
X019317Y010567D02*
X019317Y011254D01*
X019282Y011288D01*
X019129Y011288D01*
X018317Y011288D01*
X018317Y012469D02*
X018317Y012941D01*
X018317Y013413D01*
X017844Y013413D01*
X017504Y013754D01*
X011067Y013754D01*
X010567Y014254D01*
X010567Y017754D01*
X009879Y018441D01*
X009601Y018441D01*
X010782Y018441D02*
X010782Y014351D01*
X011129Y014004D01*
X019226Y014004D01*
X019504Y014004D01*
X019226Y013129D02*
X019129Y013032D01*
X019129Y012469D01*
X020441Y012441D02*
X020441Y013094D01*
X019226Y015191D02*
X018629Y015191D01*
X018317Y014879D01*
X018317Y014594D01*
X016319Y004504D02*
X016319Y002194D01*
X015754Y001629D01*
X014441Y001629D01*
X014349Y001721D01*
X011708Y001721D01*
X011708Y001465D02*
X016028Y001465D01*
X016634Y002071D01*
X016526Y001250D02*
X008547Y001250D01*
X008433Y001324D01*
X008355Y001691D01*
X008978Y002237D02*
X009037Y002257D01*
X008391Y002629D02*
X007932Y002629D01*
X007262Y002602D02*
X007209Y002629D01*
X007249Y002589D01*
X007249Y001780D01*
X007249Y001741D01*
X007199Y001691D01*
X007249Y001741D02*
X007288Y001780D01*
X007249Y001780D02*
X007121Y001691D01*
X008391Y004004D02*
X008391Y004035D01*
X008378Y004047D01*
X008960Y004047D02*
X008978Y004029D01*
X009018Y004260D02*
X008978Y004285D01*
X009175Y005175D02*
X009191Y005191D01*
X009817Y003769D02*
X009817Y003754D01*
X010461Y004029D02*
X010543Y003947D01*
X011022Y003001D02*
X010817Y002754D01*
X010817Y002441D01*
X011708Y002745D02*
X013870Y002745D01*
X013879Y002695D01*
X013870Y002745D02*
X013870Y002948D01*
X014176Y003254D01*
X013879Y002754D02*
X013870Y002745D01*
X012524Y004024D02*
X011708Y004024D01*
X011857Y001981D02*
X011878Y001963D01*
D12*
X000504Y002317D02*
X000504Y030066D01*
X000505Y030066D02*
X000507Y030155D01*
X000514Y030244D01*
X000525Y030332D01*
X000540Y030420D01*
X000559Y030506D01*
X000583Y030592D01*
X000611Y030677D01*
X000643Y030760D01*
X000679Y030841D01*
X000719Y030920D01*
X000763Y030998D01*
X000810Y031073D01*
X000862Y031146D01*
X000916Y031216D01*
X000974Y031283D01*
X001036Y031347D01*
X001100Y031409D01*
X001168Y031467D01*
X001238Y031521D01*
X001310Y031573D01*
X001386Y031620D01*
X001463Y031664D01*
X001542Y031704D01*
X001624Y031740D01*
X001707Y031772D01*
X001791Y031800D01*
X001877Y031824D01*
X001964Y031843D01*
X002051Y031858D01*
X002139Y031869D01*
X002228Y031876D01*
X002317Y031878D01*
X002317Y031879D02*
X020191Y031879D01*
X020191Y031880D02*
X020277Y031878D01*
X020363Y031872D01*
X020449Y031862D01*
X020534Y031847D01*
X020618Y031829D01*
X020702Y031807D01*
X020784Y031780D01*
X020865Y031750D01*
X020944Y031716D01*
X021022Y031678D01*
X021097Y031637D01*
X021171Y031592D01*
X021243Y031544D01*
X021312Y031492D01*
X021378Y031437D01*
X021442Y031379D01*
X021503Y031318D01*
X021561Y031254D01*
X021616Y031188D01*
X021668Y031119D01*
X021716Y031047D01*
X021761Y030973D01*
X021802Y030898D01*
X021840Y030820D01*
X021874Y030741D01*
X021904Y030660D01*
X021931Y030578D01*
X021953Y030494D01*
X021971Y030410D01*
X021986Y030325D01*
X021996Y030239D01*
X022002Y030153D01*
X022004Y030067D01*
X022004Y030066D02*
X022004Y002317D01*
X022002Y002231D01*
X021996Y002145D01*
X021986Y002059D01*
X021971Y001974D01*
X021953Y001890D01*
X021931Y001806D01*
X021904Y001724D01*
X021874Y001643D01*
X021840Y001564D01*
X021802Y001486D01*
X021761Y001411D01*
X021716Y001337D01*
X021668Y001265D01*
X021616Y001196D01*
X021561Y001130D01*
X021503Y001066D01*
X021442Y001005D01*
X021378Y000947D01*
X021312Y000892D01*
X021243Y000840D01*
X021171Y000792D01*
X021098Y000747D01*
X021022Y000706D01*
X020944Y000668D01*
X020865Y000634D01*
X020784Y000604D01*
X020702Y000577D01*
X020618Y000555D01*
X020534Y000537D01*
X020449Y000522D01*
X020363Y000512D01*
X020277Y000506D01*
X020191Y000504D01*
X002317Y000504D01*
X002231Y000506D01*
X002145Y000512D01*
X002059Y000522D01*
X001974Y000537D01*
X001890Y000555D01*
X001806Y000577D01*
X001724Y000604D01*
X001643Y000634D01*
X001564Y000668D01*
X001486Y000706D01*
X001410Y000747D01*
X001337Y000792D01*
X001265Y000840D01*
X001196Y000892D01*
X001130Y000947D01*
X001066Y001005D01*
X001005Y001066D01*
X000947Y001130D01*
X000892Y001196D01*
X000840Y001265D01*
X000792Y001337D01*
X000747Y001411D01*
X000706Y001486D01*
X000668Y001564D01*
X000634Y001643D01*
X000604Y001724D01*
X000577Y001806D01*
X000555Y001890D01*
X000537Y001974D01*
X000522Y002059D01*
X000512Y002145D01*
X000506Y002231D01*
X000504Y002317D01*
D13*
X001941Y004379D03*
D14*
X001941Y005379D03*
X001941Y006379D03*
X001941Y007379D03*
D15*
X007254Y006941D03*
X014004Y006941D03*
D16*
X014032Y005129D03*
X012851Y005129D03*
X008410Y005191D03*
X008391Y004004D03*
X008391Y002629D03*
X007209Y002629D03*
X007209Y004004D03*
X007229Y005191D03*
X009601Y018441D03*
X010782Y018441D03*
X019226Y015191D03*
X019226Y014004D03*
X019226Y013129D03*
X020407Y013129D03*
X020407Y014004D03*
X020407Y015191D03*
X020407Y007441D03*
X019226Y007441D03*
D17*
X018441Y007219D03*
X018441Y006038D03*
X020941Y009413D03*
X020941Y010594D03*
X019129Y011288D03*
X018317Y011288D03*
X018317Y012469D03*
X018317Y013413D03*
X018317Y014594D03*
X019129Y012469D03*
X002941Y007407D03*
X002941Y006226D03*
D18*
X005037Y004593D03*
X005037Y001915D03*
D19*
X007121Y001691D03*
X008355Y001691D03*
D20*
X012707Y003254D03*
X014176Y003254D03*
D21*
X018817Y008317D03*
X019317Y008317D03*
X019817Y008317D03*
X020317Y008317D03*
X020317Y010567D03*
X019817Y010567D03*
X019317Y010567D03*
X018817Y010567D03*
D22*
X011857Y004796D03*
X011857Y004541D03*
X011857Y004285D03*
X011857Y004029D03*
X011857Y003773D03*
X011857Y003517D03*
X011857Y003261D03*
X011857Y003005D03*
X011857Y002749D03*
X011857Y002493D03*
X011857Y002237D03*
X011857Y001981D03*
X011857Y001726D03*
X011857Y001470D03*
X008978Y001470D03*
X008978Y001726D03*
X008978Y001981D03*
X008978Y002237D03*
X008978Y002493D03*
X008978Y002749D03*
X008978Y003005D03*
X008978Y003261D03*
X008978Y003517D03*
X008978Y003773D03*
X008978Y004029D03*
X008978Y004285D03*
X008978Y004541D03*
X008978Y004796D03*
D23*
X019008Y021252D03*
X019795Y021252D03*
D24*
X020740Y019205D03*
X018063Y019205D03*
D25*
X017256Y004441D03*
X016941Y004441D03*
X016626Y004441D03*
X016311Y004441D03*
X015996Y004441D03*
D26*
X014854Y004441D03*
X014854Y002276D03*
X018398Y002276D03*
X018398Y004441D03*
D27*
X017315Y003457D02*
X017317Y003483D01*
X017323Y003509D01*
X017333Y003534D01*
X017346Y003557D01*
X017362Y003577D01*
X017382Y003595D01*
X017404Y003610D01*
X017427Y003622D01*
X017453Y003630D01*
X017479Y003634D01*
X017505Y003634D01*
X017531Y003630D01*
X017557Y003622D01*
X017581Y003610D01*
X017602Y003595D01*
X017622Y003577D01*
X017638Y003557D01*
X017651Y003534D01*
X017661Y003509D01*
X017667Y003483D01*
X017669Y003457D01*
X017667Y003431D01*
X017661Y003405D01*
X017651Y003380D01*
X017638Y003357D01*
X017622Y003337D01*
X017602Y003319D01*
X017580Y003304D01*
X017557Y003292D01*
X017531Y003284D01*
X017505Y003280D01*
X017479Y003280D01*
X017453Y003284D01*
X017427Y003292D01*
X017403Y003304D01*
X017382Y003319D01*
X017362Y003337D01*
X017346Y003357D01*
X017333Y003380D01*
X017323Y003405D01*
X017317Y003431D01*
X017315Y003457D01*
X015583Y003457D02*
X015585Y003483D01*
X015591Y003509D01*
X015601Y003534D01*
X015614Y003557D01*
X015630Y003577D01*
X015650Y003595D01*
X015672Y003610D01*
X015695Y003622D01*
X015721Y003630D01*
X015747Y003634D01*
X015773Y003634D01*
X015799Y003630D01*
X015825Y003622D01*
X015849Y003610D01*
X015870Y003595D01*
X015890Y003577D01*
X015906Y003557D01*
X015919Y003534D01*
X015929Y003509D01*
X015935Y003483D01*
X015937Y003457D01*
X015935Y003431D01*
X015929Y003405D01*
X015919Y003380D01*
X015906Y003357D01*
X015890Y003337D01*
X015870Y003319D01*
X015848Y003304D01*
X015825Y003292D01*
X015799Y003284D01*
X015773Y003280D01*
X015747Y003280D01*
X015721Y003284D01*
X015695Y003292D01*
X015671Y003304D01*
X015650Y003319D01*
X015630Y003337D01*
X015614Y003357D01*
X015601Y003380D01*
X015591Y003405D01*
X015585Y003431D01*
X015583Y003457D01*
D28*
X013879Y002695D03*
X012879Y004379D03*
X010543Y003947D03*
X010144Y004457D03*
X009817Y003754D03*
X010144Y002257D03*
X010543Y001963D03*
X007932Y002629D03*
X008567Y006941D03*
X017504Y005435D03*
X019817Y004879D03*
X019817Y006817D03*
X019317Y008941D03*
X020441Y012441D03*
X018317Y012941D03*
D29*
X016646Y012709D02*
X016646Y009165D01*
X015071Y007591D01*
X014004Y007591D01*
X014004Y006941D01*
X009691Y006941D01*
X008469Y005719D01*
X008410Y005191D01*
X008129Y005191D01*
X007567Y004629D01*
X006965Y004629D01*
X005037Y002702D01*
X005037Y002504D01*
X003754Y004379D01*
X001941Y004379D01*
X001969Y007407D02*
X002941Y007407D01*
X004788Y007407D01*
X005018Y006941D01*
X005018Y004593D01*
X005037Y004593D01*
X005037Y002504D02*
X005037Y001915D01*
X005018Y006941D02*
X007254Y006941D01*
X007254Y007197D01*
X007197Y007197D01*
X007197Y007591D01*
X007984Y007591D01*
X010740Y010346D01*
X015858Y010346D01*
X015858Y012709D01*
X015858Y015858D02*
X019795Y015858D01*
X019795Y020583D01*
X019008Y020583D02*
X019008Y016646D01*
X016646Y016646D01*
D30*
X016646Y016646D03*
X015858Y015858D03*
X015858Y012709D03*
X016646Y012709D03*
D31*
X019817Y008317D02*
X019817Y006817D01*
X020317Y008317D02*
X020629Y008317D01*
X020941Y008629D01*
X019817Y004879D02*
X019817Y004147D01*
X018634Y002965D01*
X017886Y002965D01*
X017650Y002728D01*
X017650Y002295D01*
X016526Y001250D01*
X016634Y002071D02*
X016634Y004504D01*
X012879Y004379D02*
X012524Y004024D01*
X011708Y004024D02*
X011024Y004024D01*
X010817Y003817D01*
X010817Y003254D01*
X011063Y003007D01*
X011022Y003001D02*
X011783Y003001D01*
X011708Y002233D02*
X011024Y002233D01*
X010817Y002441D01*
X010543Y001963D02*
X011878Y001963D01*
X010817Y003254D02*
X010813Y003257D01*
X010811Y003260D02*
X007591Y003260D01*
X007288Y003562D01*
X007209Y004004D01*
X008378Y004047D02*
X008960Y004047D01*
X008978Y004029D02*
X010461Y004029D01*
X010144Y004457D02*
X009972Y004285D01*
X008978Y004285D01*
X009175Y004792D02*
X009175Y005175D01*
X009175Y003769D02*
X009817Y003769D01*
X010144Y002257D02*
X009037Y002257D01*
X011708Y004024D02*
X011708Y004280D01*
D32*
X009191Y005191D03*
D33*
X018441Y007220D02*
X018441Y007219D01*
D34*
X020191Y002317D03*
X002317Y002317D03*
X002317Y030067D03*
X020191Y030067D03*
M02*
