G75*
G70*
%OFA0B0*%
%FSLAX24Y24*%
%IPPOS*%
%LPD*%
%AMOC8*
5,1,8,0,0,1.08239X$1,22.5*
%
%ADD10R,0.0591X0.0984*%
%ADD11R,0.0394X0.0630*%
%ADD12R,0.0630X0.0394*%
%ADD13R,0.0276X0.0433*%
%ADD14R,0.0433X0.0276*%
%ADD15R,0.0984X0.0787*%
%ADD16R,0.0940X0.0940*%
%ADD17R,0.1043X0.2874*%
%ADD18R,0.0787X0.0827*%
%ADD19R,0.0630X0.0256*%
%ADD20R,0.1140X0.0940*%
%ADD21R,0.0256X0.0630*%
%ADD22R,0.0518X0.0661*%
%ADD23R,0.0600X0.0600*%
%ADD24R,0.0441X0.0630*%
%ADD25R,0.0315X0.0315*%
%ADD26R,0.1400X0.0750*%
%ADD27R,0.0728X0.0380*%
%ADD28R,0.0600X0.0280*%
%ADD29R,0.0600X0.1650*%
%ADD30R,0.0394X0.0551*%
%ADD31R,0.0394X0.0197*%
D10*
X004379Y005832D03*
X004379Y007488D03*
X007504Y005650D03*
X007504Y003608D03*
D11*
X006282Y003004D03*
X005101Y003004D03*
X007226Y006629D03*
X007226Y007441D03*
X008407Y007441D03*
X008407Y006629D03*
X005157Y010254D03*
X003976Y010254D03*
X007539Y014941D03*
X008720Y014941D03*
X011163Y017754D03*
X011163Y018629D03*
X011163Y019504D03*
X012344Y019504D03*
X012344Y018629D03*
X012344Y017754D03*
X016476Y011879D03*
X016476Y011067D03*
X017657Y011067D03*
X017657Y011879D03*
X016782Y003629D03*
X015601Y003629D03*
X015594Y002691D03*
X014413Y002691D03*
X016726Y001629D03*
X017907Y001629D03*
D12*
X003629Y003788D03*
X003629Y004969D03*
X005817Y004907D03*
X005817Y003726D03*
X005941Y006476D03*
X005941Y007657D03*
X005254Y008288D03*
X004379Y008288D03*
X003504Y008288D03*
X003504Y009469D03*
X004379Y009469D03*
X005254Y009469D03*
X009754Y011038D03*
X010317Y010219D03*
X010317Y009038D03*
X009754Y012219D03*
X014317Y007032D03*
X014317Y005851D03*
X014317Y005032D03*
X014317Y003851D03*
X012691Y003976D03*
X012691Y005157D03*
X011817Y003969D03*
X011817Y002788D03*
X016191Y009163D03*
X016191Y010344D03*
X017067Y010344D03*
X017067Y009163D03*
X017941Y009163D03*
X017941Y010344D03*
X015754Y013351D03*
X015754Y014532D03*
X014941Y014532D03*
X014941Y013351D03*
X012504Y026539D03*
X012504Y027720D03*
X012504Y028413D03*
X012504Y029594D03*
X009754Y029594D03*
X009754Y028413D03*
X009754Y027720D03*
X009754Y026539D03*
D13*
X005129Y004941D03*
X004378Y004941D03*
X004379Y003941D03*
X004754Y003941D03*
X005128Y003941D03*
D14*
X011254Y020317D03*
X011254Y020692D03*
X011254Y021067D03*
X012254Y021067D03*
X012254Y020317D03*
X016941Y008441D03*
X016941Y007691D03*
X017941Y007691D03*
X017941Y008066D03*
X017941Y008441D03*
D15*
X019817Y007942D03*
X019817Y005692D03*
X011129Y012067D03*
X011129Y014317D03*
D16*
X009289Y013817D03*
X007459Y013817D03*
X019817Y010799D03*
X019817Y008969D03*
D17*
X018379Y005691D03*
X016379Y005691D03*
X013441Y009754D03*
X011441Y009754D03*
X008629Y011567D03*
X006629Y011567D03*
D18*
X005628Y011567D03*
X003378Y011567D03*
D19*
X006504Y009629D03*
X006504Y009129D03*
X006504Y008629D03*
X006504Y008129D03*
X008754Y008129D03*
X008754Y008629D03*
X008754Y009129D03*
X008754Y009629D03*
D20*
X002067Y009179D03*
X002067Y011579D03*
D21*
X012441Y012067D03*
X012941Y012067D03*
X013441Y012067D03*
X013941Y012067D03*
X013941Y014317D03*
X013441Y014317D03*
X012941Y014317D03*
X012441Y014317D03*
D22*
X014387Y001629D03*
X015621Y001629D03*
D23*
X015129Y016629D03*
X016129Y016629D03*
X017129Y016629D03*
X017879Y017679D03*
X017879Y018679D03*
X017879Y019679D03*
X017879Y020679D03*
X016779Y021429D03*
X015779Y021429D03*
X014779Y021429D03*
X013779Y021429D03*
X013079Y020679D03*
X013079Y019679D03*
X013079Y018679D03*
X013079Y017679D03*
X014129Y016629D03*
X008629Y017679D03*
X008629Y018679D03*
X008629Y019679D03*
X008629Y020679D03*
X007529Y021429D03*
X006529Y021429D03*
X005529Y021429D03*
X004529Y021429D03*
X003829Y020679D03*
X003829Y019679D03*
X003829Y018679D03*
X003829Y017679D03*
X004879Y016629D03*
X005879Y016629D03*
X006879Y016629D03*
X007879Y016629D03*
D24*
X010629Y015941D03*
X011129Y015941D03*
X011629Y015941D03*
X002879Y015941D03*
X002379Y015941D03*
X001879Y015941D03*
X007504Y002504D03*
X008004Y002504D03*
X008504Y002504D03*
D25*
X008896Y021941D03*
X008896Y022504D03*
X008896Y023067D03*
X009487Y023067D03*
X009487Y022504D03*
X009487Y021941D03*
X010583Y022317D03*
X011174Y022317D03*
X011146Y021879D03*
X011737Y021879D03*
X014083Y022191D03*
X014674Y022191D03*
X015044Y022191D03*
X014673Y022646D03*
X014673Y023237D03*
X014674Y023879D03*
X014673Y024271D03*
X014673Y024862D03*
X014191Y025271D03*
X014191Y025862D03*
X013691Y025862D03*
X013691Y025271D03*
X013191Y025271D03*
X013191Y025862D03*
X012362Y025941D03*
X011771Y025941D03*
X010674Y025941D03*
X010083Y025941D03*
X009317Y025549D03*
X009317Y024959D03*
X008817Y024959D03*
X008817Y025549D03*
X007709Y024174D03*
X007709Y023583D03*
X007709Y023174D03*
X007709Y022583D03*
X007709Y022191D03*
X008299Y022191D03*
X008317Y023209D03*
X008317Y023799D03*
X006529Y024021D03*
X006386Y023629D03*
X006529Y023237D03*
X006529Y022646D03*
X005795Y023629D03*
X006529Y024612D03*
X006529Y024959D03*
X006529Y025549D03*
X006669Y026067D03*
X007260Y026067D03*
X007258Y028379D03*
X006667Y028379D03*
X006529Y028834D03*
X006529Y029424D03*
X008254Y028987D03*
X008254Y028396D03*
X008941Y028396D03*
X008941Y028987D03*
X013317Y028987D03*
X013317Y028396D03*
X014004Y028396D03*
X014004Y028987D03*
X015044Y028379D03*
X015635Y028379D03*
X015779Y028834D03*
X015779Y029424D03*
X015921Y026067D03*
X015779Y025549D03*
X015779Y024959D03*
X015779Y024612D03*
X015779Y024021D03*
X015921Y023629D03*
X015779Y023237D03*
X015779Y022646D03*
X015635Y022191D03*
X016512Y023629D03*
X016512Y026067D03*
X014083Y023879D03*
D26*
X014663Y027191D03*
X005413Y027191D03*
D27*
X006465Y027191D03*
X015715Y027191D03*
D28*
X015779Y026601D03*
X015779Y027782D03*
X006529Y027782D03*
X006529Y026601D03*
D29*
X006529Y030541D03*
X015779Y030541D03*
D30*
X011171Y004629D03*
X010462Y004629D03*
X010817Y003763D03*
X011046Y002941D03*
X010691Y002075D03*
X010337Y002941D03*
D31*
X010004Y022827D03*
X010004Y023083D03*
X010004Y023339D03*
X010004Y023594D03*
X010004Y023850D03*
X010004Y024106D03*
X010004Y024362D03*
X010004Y024618D03*
X010004Y024874D03*
X010004Y025130D03*
X012287Y025130D03*
X012287Y024874D03*
X012287Y024618D03*
X012287Y024362D03*
X012287Y024106D03*
X012287Y023850D03*
X012287Y023594D03*
X012287Y023339D03*
X012287Y023083D03*
X012287Y022827D03*
M02*
