G75*
G70*
%OFA0B0*%
%FSLAX24Y24*%
%IPPOS*%
%LPD*%
%AMOC8*
5,1,8,0,0,1.08239X$1,22.5*
%
%ADD10C,0.0080*%
%ADD11R,0.0600X0.0250*%
%ADD12R,0.0125X0.0625*%
%ADD13C,0.0787*%
%ADD14C,0.0090*%
%ADD15C,0.0236*%
%ADD16R,0.0600X0.0866*%
%ADD17R,0.0600X0.1181*%
%ADD18R,0.0600X0.0394*%
%ADD19R,0.0600X0.1260*%
%ADD20R,0.0630X0.0630*%
%ADD21OC8,0.0630*%
%ADD22R,0.0591X0.0984*%
%ADD23R,0.0394X0.0630*%
%ADD24R,0.0630X0.0394*%
%ADD25R,0.0276X0.0433*%
%ADD26R,0.0433X0.0276*%
%ADD27R,0.0984X0.0787*%
%ADD28R,0.0940X0.0940*%
%ADD29R,0.1043X0.2874*%
%ADD30R,0.0787X0.0827*%
%ADD31R,0.0630X0.0256*%
%ADD32R,0.1140X0.0940*%
%ADD33R,0.0256X0.0630*%
%ADD34R,0.0518X0.0661*%
%ADD35R,0.0600X0.0600*%
%ADD36R,0.0441X0.0630*%
%ADD37R,0.0315X0.0315*%
%ADD38R,0.1400X0.0750*%
%ADD39R,0.0728X0.0380*%
%ADD40R,0.0600X0.0280*%
%ADD41C,0.0825*%
%ADD42R,0.0600X0.1650*%
%ADD43R,0.0394X0.0551*%
%ADD44R,0.0394X0.0197*%
%ADD45C,0.0276*%
%ADD46C,0.0197*%
%ADD47C,0.0315*%
%ADD48R,0.0290X0.0290*%
%ADD49C,0.0290*%
%ADD50C,0.0100*%
%ADD51C,0.0600*%
%ADD52R,0.1581X0.1581*%
%ADD53C,0.0380*%
D10*
X005129Y004941D02*
X005782Y004941D01*
X005817Y004907D01*
X006504Y004879D02*
X006504Y005567D01*
X006504Y004879D02*
X006754Y004629D01*
X008567Y004629D01*
X009191Y004004D01*
X009941Y003754D02*
X010740Y003754D01*
X010740Y003763D01*
X010817Y003763D01*
X010941Y003638D01*
X010941Y003046D01*
X011046Y002941D01*
X011074Y002913D01*
X011441Y002691D02*
X011254Y002504D01*
X010441Y002504D01*
X010337Y002608D01*
X010337Y002941D01*
X010740Y003754D02*
X010807Y003754D01*
X011191Y003754D01*
X011407Y003969D01*
X011817Y003969D01*
X011171Y004629D02*
X012504Y004629D01*
X012691Y004441D01*
X013317Y005067D01*
X013317Y007191D01*
X014567Y008441D01*
X014567Y011504D01*
X014441Y011629D01*
X014129Y011356D02*
X014129Y008379D01*
X013067Y007317D01*
X013067Y005879D01*
X012691Y005504D01*
X009441Y005504D01*
X009191Y005754D01*
X009191Y007067D01*
X008004Y006191D02*
X007567Y006629D01*
X007226Y006629D01*
X005941Y007379D02*
X005941Y007657D01*
X005941Y007379D02*
X005629Y007067D01*
X003476Y009441D02*
X003504Y009469D01*
X003476Y009441D02*
X002941Y009441D01*
X002067Y009179D02*
X001941Y009054D01*
X002004Y012504D02*
X002941Y012504D01*
X003317Y014191D02*
X002879Y014629D01*
X002879Y015941D01*
X002644Y016376D02*
X002644Y016699D01*
X002573Y016769D01*
X002184Y016769D01*
X002114Y016699D01*
X002114Y016376D01*
X002109Y016376D01*
X001609Y016376D01*
X001538Y016306D01*
X001538Y015577D01*
X001609Y015506D01*
X001614Y015506D01*
X001138Y015506D01*
X001138Y015504D02*
X001138Y029940D01*
X001138Y029940D01*
X001138Y030066D01*
X001145Y030198D01*
X001204Y030456D01*
X001319Y030694D01*
X001406Y030803D01*
X001406Y029226D01*
X001476Y029156D01*
X003157Y029156D01*
X003227Y029226D01*
X003227Y030907D01*
X003157Y030977D01*
X001580Y030977D01*
X001689Y031064D01*
X001927Y031179D01*
X002185Y031238D01*
X002316Y031245D01*
X002369Y031245D01*
X002443Y031245D01*
X005057Y031245D01*
X005056Y031244D01*
X005017Y031166D01*
X004990Y031083D01*
X004976Y030997D01*
X004976Y030541D01*
X004976Y030085D01*
X004990Y029999D01*
X005017Y029917D01*
X005056Y029839D01*
X005107Y029769D01*
X005169Y029707D01*
X005239Y029656D01*
X005317Y029617D01*
X005399Y029590D01*
X005485Y029576D01*
X005529Y029576D01*
X005572Y029576D01*
X005658Y029590D01*
X005741Y029617D01*
X005818Y029656D01*
X005889Y029707D01*
X005950Y029769D01*
X006001Y029839D01*
X006041Y029917D01*
X006068Y029999D01*
X006081Y030085D01*
X006081Y030541D01*
X005529Y030541D01*
X005529Y029576D01*
X005529Y030541D01*
X005529Y030541D01*
X005529Y030541D01*
X006081Y030541D01*
X006081Y030997D01*
X006068Y031083D01*
X006041Y031166D01*
X006001Y031244D01*
X006000Y031245D01*
X006109Y031245D01*
X006109Y030713D01*
X006107Y030711D01*
X006107Y029352D01*
X006109Y029350D01*
X006109Y029216D01*
X006179Y029146D01*
X006878Y029146D01*
X006949Y029216D01*
X006949Y029565D01*
X009714Y029565D01*
X009714Y029555D02*
X009299Y029555D01*
X009299Y029379D01*
X009309Y029344D01*
X009327Y029312D01*
X009353Y029286D01*
X009385Y029267D01*
X009421Y029258D01*
X009714Y029258D01*
X009714Y029554D01*
X009794Y029554D01*
X009794Y029258D01*
X010087Y029258D01*
X010123Y029267D01*
X010155Y029286D01*
X010181Y029312D01*
X010199Y029344D01*
X010209Y029379D01*
X010209Y029555D01*
X009794Y029555D01*
X009794Y029634D01*
X010209Y029634D01*
X010209Y029810D01*
X010199Y029845D01*
X010181Y029877D01*
X010155Y029903D01*
X010123Y029922D01*
X010087Y029931D01*
X009794Y029931D01*
X009794Y029635D01*
X009714Y029635D01*
X009714Y029931D01*
X009421Y029931D01*
X009385Y029922D01*
X009353Y029903D01*
X009327Y029877D01*
X009309Y029845D01*
X009299Y029810D01*
X009299Y029634D01*
X009714Y029634D01*
X009714Y029555D01*
X009754Y029594D02*
X011379Y029594D01*
X011379Y027191D01*
X011129Y027191D01*
X009754Y027113D01*
X008004Y027191D01*
X008004Y025379D01*
X007691Y025379D01*
X007691Y024174D01*
X008004Y024174D01*
X008006Y024213D02*
X008006Y024350D01*
X007997Y024386D01*
X007978Y024417D01*
X007952Y024444D01*
X007920Y024462D01*
X007885Y024471D01*
X007747Y024471D01*
X007747Y024213D01*
X007670Y024213D01*
X007670Y024471D01*
X007533Y024471D01*
X007497Y024462D01*
X007465Y024444D01*
X007439Y024417D01*
X007421Y024386D01*
X007411Y024350D01*
X007411Y024213D01*
X007670Y024213D01*
X007670Y024135D01*
X007747Y024135D01*
X007747Y023877D01*
X007885Y023877D01*
X007920Y023886D01*
X007952Y023904D01*
X007978Y023931D01*
X007997Y023962D01*
X008006Y023998D01*
X008006Y024135D01*
X007748Y024135D01*
X007748Y024213D01*
X008006Y024213D01*
X008006Y024224D02*
X008186Y024224D01*
X008157Y024195D02*
X008157Y024077D01*
X008109Y024077D01*
X008039Y024006D01*
X008039Y023592D01*
X008109Y023522D01*
X008524Y023522D01*
X008594Y023592D01*
X008594Y023416D01*
X008524Y023486D01*
X008109Y023486D01*
X008039Y023416D01*
X008039Y023334D01*
X007986Y023334D01*
X007986Y023639D01*
X007986Y023791D01*
X007916Y023861D01*
X007764Y023861D01*
X007653Y023861D01*
X007501Y023861D01*
X007431Y023791D01*
X007431Y023639D01*
X007431Y023119D01*
X007431Y022967D01*
X007501Y022897D01*
X007653Y022897D01*
X007764Y022897D01*
X007916Y022897D01*
X007986Y022967D01*
X007986Y023014D01*
X008039Y023014D01*
X008039Y023001D01*
X008109Y022931D01*
X008524Y022931D01*
X008594Y023001D01*
X008594Y023375D01*
X008657Y023312D01*
X008619Y023274D01*
X008619Y022859D01*
X008686Y022792D01*
X008685Y022792D01*
X008653Y022773D01*
X008627Y022747D01*
X008608Y022715D01*
X008599Y022680D01*
X008599Y022543D01*
X008857Y022543D01*
X008857Y022789D01*
X008935Y022789D01*
X008935Y022543D01*
X008857Y022543D01*
X008857Y022465D01*
X008599Y022465D01*
X008599Y022328D01*
X008608Y022292D01*
X008627Y022260D01*
X008597Y022260D01*
X008627Y022260D02*
X008653Y022234D01*
X008673Y022223D01*
X008653Y022211D01*
X008627Y022185D01*
X008608Y022153D01*
X008599Y022117D01*
X008599Y021980D01*
X008857Y021980D01*
X008857Y021903D01*
X008599Y021903D01*
X008599Y021765D01*
X008608Y021730D01*
X008627Y021698D01*
X008653Y021672D01*
X008685Y021653D01*
X008720Y021644D01*
X008857Y021644D01*
X008857Y021902D01*
X008935Y021902D01*
X008935Y021644D01*
X009072Y021644D01*
X009108Y021653D01*
X009139Y021672D01*
X009166Y021698D01*
X009184Y021730D01*
X009194Y021765D01*
X009194Y021903D01*
X008935Y021903D01*
X008935Y021980D01*
X009194Y021980D01*
X009194Y022117D01*
X009184Y022153D01*
X009166Y022185D01*
X009139Y022211D01*
X009119Y022223D01*
X009139Y022234D01*
X009166Y022260D01*
X009245Y022260D01*
X009279Y022226D02*
X009327Y022226D01*
X009327Y022219D01*
X009279Y022219D01*
X009209Y022149D01*
X009209Y021734D01*
X009279Y021664D01*
X009694Y021664D01*
X009764Y021734D01*
X009764Y022149D01*
X009694Y022219D01*
X009647Y022219D01*
X009647Y022226D01*
X009694Y022226D01*
X009764Y022297D01*
X009764Y022608D01*
X010250Y022608D01*
X010321Y022679D01*
X010321Y022975D01*
X010321Y023231D01*
X010321Y023390D01*
X010359Y023390D01*
X010789Y023390D01*
X010854Y023325D01*
X010951Y023285D01*
X010996Y023285D01*
X010423Y022712D01*
X010423Y022594D01*
X010376Y022594D01*
X010306Y022524D01*
X010306Y022109D01*
X010345Y022071D01*
X009069Y020795D01*
X009069Y020998D01*
X009059Y021033D01*
X009041Y021065D01*
X009015Y021091D01*
X008983Y021110D01*
X008947Y021119D01*
X008669Y021119D01*
X008669Y020719D01*
X009031Y020719D01*
X009031Y020639D01*
X008669Y020639D01*
X008669Y020719D01*
X008589Y020719D01*
X008589Y021119D01*
X008310Y021119D01*
X008275Y021110D01*
X008243Y021091D01*
X008217Y021065D01*
X008198Y021033D01*
X008189Y020998D01*
X008189Y020851D01*
X008063Y020851D01*
X007969Y020758D01*
X007969Y020612D01*
X008063Y020519D01*
X008189Y020519D01*
X008189Y020361D01*
X008198Y020325D01*
X008217Y020293D01*
X008243Y020267D01*
X008275Y020249D01*
X008310Y020239D01*
X008589Y020239D01*
X008589Y020639D01*
X008669Y020639D01*
X008669Y020239D01*
X008947Y020239D01*
X008983Y020249D01*
X009015Y020267D01*
X009031Y020284D01*
X009031Y020074D01*
X009015Y020091D01*
X008983Y020110D01*
X008947Y020119D01*
X008669Y020119D01*
X008669Y019719D01*
X009031Y019719D01*
X009031Y019639D01*
X008669Y019639D01*
X008669Y019719D01*
X008589Y019719D01*
X008589Y020119D01*
X008310Y020119D01*
X008275Y020110D01*
X008243Y020091D01*
X008217Y020065D01*
X008198Y020033D01*
X008189Y019998D01*
X008189Y019719D01*
X008589Y019719D01*
X008589Y019639D01*
X008669Y019639D01*
X008669Y019239D01*
X008947Y019239D01*
X008983Y019249D01*
X009015Y019267D01*
X009031Y019284D01*
X009031Y019074D01*
X009015Y019091D01*
X008983Y019110D01*
X008947Y019119D01*
X008669Y019119D01*
X008669Y018719D01*
X008589Y018719D01*
X008589Y019119D01*
X008310Y019119D01*
X008275Y019110D01*
X008243Y019091D01*
X008217Y019065D01*
X008198Y019033D01*
X008189Y018998D01*
X008189Y018851D01*
X008063Y018851D01*
X007969Y018758D01*
X007969Y018612D01*
X008063Y018519D01*
X008189Y018519D01*
X008189Y018361D01*
X008198Y018325D01*
X008217Y018293D01*
X008243Y018267D01*
X008275Y018249D01*
X008310Y018239D01*
X008589Y018239D01*
X008589Y018639D01*
X008669Y018639D01*
X008669Y018239D01*
X008947Y018239D01*
X008983Y018249D01*
X009015Y018267D01*
X009031Y018284D01*
X009031Y018074D01*
X009015Y018091D01*
X008983Y018110D01*
X008947Y018119D01*
X008669Y018119D01*
X008669Y017719D01*
X009031Y017719D01*
X009031Y017639D01*
X008669Y017639D01*
X008669Y017719D01*
X008589Y017719D01*
X008589Y018119D01*
X008310Y018119D01*
X008275Y018110D01*
X008243Y018091D01*
X008217Y018065D01*
X008198Y018033D01*
X008189Y017998D01*
X008189Y017719D01*
X008589Y017719D01*
X008589Y017639D01*
X008669Y017639D01*
X008669Y017239D01*
X008947Y017239D01*
X008983Y017249D01*
X009015Y017267D01*
X009031Y017284D01*
X009031Y015883D01*
X008653Y015504D01*
X007980Y015504D01*
X007976Y015508D01*
X007883Y015601D01*
X006070Y015601D01*
X006039Y015633D01*
X006039Y015864D01*
X006073Y015864D01*
X006144Y015934D01*
X006144Y016209D01*
X006228Y016209D01*
X006299Y016279D01*
X006299Y016979D01*
X006228Y017049D01*
X005529Y017049D01*
X005459Y016979D01*
X005459Y016279D01*
X005529Y016209D01*
X005614Y016209D01*
X005614Y015934D01*
X005684Y015864D01*
X005719Y015864D01*
X005719Y015504D01*
X003039Y015504D01*
X003039Y015506D01*
X005719Y015506D01*
X005719Y015584D02*
X003219Y015584D01*
X003219Y015577D02*
X003219Y016306D01*
X003149Y016376D01*
X002644Y016376D01*
X002644Y016448D02*
X004439Y016448D01*
X004439Y016370D02*
X003155Y016370D01*
X003219Y016291D02*
X004444Y016291D01*
X004448Y016275D02*
X004467Y016243D01*
X004493Y016217D01*
X004525Y016199D01*
X004560Y016189D01*
X004839Y016189D01*
X004839Y016589D01*
X004919Y016589D01*
X004919Y016669D01*
X005319Y016669D01*
X005319Y016948D01*
X005309Y016983D01*
X005291Y017015D01*
X005265Y017041D01*
X005233Y017060D01*
X005197Y017069D01*
X004919Y017069D01*
X004919Y016669D01*
X004839Y016669D01*
X004839Y017069D01*
X004560Y017069D01*
X004525Y017060D01*
X004493Y017041D01*
X004467Y017015D01*
X004448Y016983D01*
X004439Y016948D01*
X004439Y016669D01*
X004839Y016669D01*
X004839Y016589D01*
X004439Y016589D01*
X004439Y016311D01*
X004448Y016275D01*
X004501Y016213D02*
X003219Y016213D01*
X003219Y016134D02*
X005614Y016134D01*
X005614Y016056D02*
X003219Y016056D01*
X003219Y015977D02*
X005614Y015977D01*
X005650Y015898D02*
X003219Y015898D01*
X003219Y015820D02*
X005719Y015820D01*
X005719Y015741D02*
X003219Y015741D01*
X003219Y015663D02*
X005719Y015663D01*
X005879Y015567D02*
X006004Y015441D01*
X007817Y015441D01*
X008191Y015067D01*
X008191Y013316D01*
X007879Y013004D01*
X007879Y011879D01*
X007459Y013817D02*
X007539Y013896D01*
X007539Y014941D01*
X007978Y015506D02*
X008655Y015506D01*
X008733Y015584D02*
X007900Y015584D01*
X007919Y016189D02*
X008197Y016189D01*
X008233Y016199D01*
X008265Y016217D01*
X008291Y016243D01*
X008309Y016275D01*
X008319Y016311D01*
X008319Y016589D01*
X007919Y016589D01*
X007919Y016669D01*
X008319Y016669D01*
X008319Y016948D01*
X008309Y016983D01*
X008291Y017015D01*
X008265Y017041D01*
X008233Y017060D01*
X008197Y017069D01*
X007919Y017069D01*
X007919Y016669D01*
X007839Y016669D01*
X007839Y017069D01*
X007560Y017069D01*
X007525Y017060D01*
X007493Y017041D01*
X007467Y017015D01*
X007448Y016983D01*
X007439Y016948D01*
X007439Y016669D01*
X007839Y016669D01*
X007839Y016589D01*
X007919Y016589D01*
X007919Y016189D01*
X007919Y016213D02*
X007839Y016213D01*
X007839Y016189D02*
X007560Y016189D01*
X007525Y016199D01*
X007493Y016217D01*
X007467Y016243D01*
X007448Y016275D01*
X007439Y016311D01*
X007439Y016589D01*
X007839Y016589D01*
X007839Y016189D01*
X007879Y016254D02*
X007879Y016629D01*
X008567Y016629D01*
X008629Y016691D01*
X008629Y017679D01*
X008629Y017691D01*
X008754Y017691D01*
X009004Y017691D01*
X009031Y017705D02*
X008669Y017705D01*
X008629Y017691D02*
X008629Y018191D01*
X008629Y018679D01*
X008629Y019191D01*
X008629Y019691D01*
X009004Y019691D01*
X009031Y019669D02*
X008669Y019669D01*
X008629Y019691D02*
X008629Y020191D01*
X008629Y020679D01*
X009004Y020679D01*
X009031Y020690D02*
X008669Y020690D01*
X008629Y020679D02*
X008129Y020679D01*
X008129Y020691D01*
X007969Y020690D02*
X003869Y020690D01*
X003869Y020719D02*
X004269Y020719D01*
X004269Y020989D01*
X004489Y020989D01*
X004489Y021389D01*
X004569Y021389D01*
X004569Y020989D01*
X004847Y020989D01*
X004883Y020999D01*
X004915Y021017D01*
X004941Y021043D01*
X004959Y021075D01*
X004969Y021111D01*
X004969Y021176D01*
X005089Y021176D01*
X005089Y021111D01*
X005098Y021075D01*
X005117Y021043D01*
X005143Y021017D01*
X005175Y020999D01*
X005210Y020989D01*
X005489Y020989D01*
X005489Y021389D01*
X005569Y021389D01*
X005569Y021469D01*
X005969Y021469D01*
X005969Y021748D01*
X005959Y021783D01*
X005941Y021815D01*
X005915Y021841D01*
X005883Y021860D01*
X005847Y021869D01*
X005569Y021869D01*
X005569Y021469D01*
X005489Y021469D01*
X005489Y021869D01*
X005210Y021869D01*
X005175Y021860D01*
X005143Y021841D01*
X005117Y021815D01*
X005098Y021783D01*
X005089Y021748D01*
X005089Y021706D01*
X004969Y021706D01*
X004969Y021748D01*
X004959Y021783D01*
X004941Y021815D01*
X004915Y021841D01*
X004883Y021860D01*
X004847Y021869D01*
X004569Y021869D01*
X004569Y021469D01*
X004489Y021469D01*
X004489Y021869D01*
X004210Y021869D01*
X004175Y021860D01*
X004143Y021841D01*
X004117Y021815D01*
X004098Y021783D01*
X004089Y021748D01*
X004089Y021469D01*
X004489Y021469D01*
X004489Y021389D01*
X004089Y021389D01*
X004089Y021119D01*
X003869Y021119D01*
X003869Y020719D01*
X003869Y020639D01*
X004269Y020639D01*
X004269Y020361D01*
X004259Y020325D01*
X004241Y020293D01*
X004215Y020267D01*
X004183Y020249D01*
X004147Y020239D01*
X003869Y020239D01*
X003869Y020639D01*
X003789Y020639D01*
X003789Y020239D01*
X003510Y020239D01*
X003475Y020249D01*
X003443Y020267D01*
X003417Y020293D01*
X003398Y020325D01*
X003389Y020361D01*
X003389Y020639D01*
X003789Y020639D01*
X003789Y020719D01*
X003789Y021119D01*
X003510Y021119D01*
X003475Y021110D01*
X003443Y021091D01*
X003417Y021065D01*
X003398Y021033D01*
X003389Y020998D01*
X003389Y020719D01*
X003789Y020719D01*
X003869Y020719D01*
X003869Y020768D02*
X003789Y020768D01*
X003789Y020690D02*
X001138Y020690D01*
X001138Y020768D02*
X003389Y020768D01*
X003389Y020847D02*
X001138Y020847D01*
X001138Y020925D02*
X003389Y020925D01*
X003390Y021004D02*
X001138Y021004D01*
X001138Y021082D02*
X003434Y021082D01*
X003789Y021082D02*
X003869Y021082D01*
X003869Y021004D02*
X003789Y021004D01*
X003789Y020925D02*
X003869Y020925D01*
X003869Y020847D02*
X003789Y020847D01*
X003829Y020679D02*
X003441Y020679D01*
X003389Y020611D02*
X001138Y020611D01*
X001138Y020532D02*
X003389Y020532D01*
X003389Y020454D02*
X001138Y020454D01*
X001138Y020375D02*
X003389Y020375D01*
X003415Y020297D02*
X001138Y020297D01*
X001138Y020218D02*
X009031Y020218D01*
X009031Y020140D02*
X001138Y020140D01*
X001138Y020061D02*
X003441Y020061D01*
X003409Y020029D02*
X003409Y019956D01*
X003184Y019956D01*
X003114Y019886D01*
X003114Y019497D01*
X003184Y019426D01*
X003409Y019426D01*
X003409Y019329D01*
X003479Y019259D01*
X004178Y019259D01*
X004249Y019329D01*
X004249Y020029D01*
X004178Y020099D01*
X003479Y020099D01*
X003409Y020029D01*
X003409Y019983D02*
X001138Y019983D01*
X001138Y019904D02*
X003132Y019904D01*
X003114Y019826D02*
X001138Y019826D01*
X001138Y019747D02*
X003114Y019747D01*
X003114Y019669D02*
X001138Y019669D01*
X001138Y019590D02*
X003114Y019590D01*
X003114Y019511D02*
X001138Y019511D01*
X001138Y019433D02*
X003177Y019433D01*
X003409Y019354D02*
X001138Y019354D01*
X001138Y019276D02*
X003462Y019276D01*
X003509Y019119D02*
X001138Y019119D01*
X001138Y019197D02*
X009031Y019197D01*
X009031Y019119D02*
X008949Y019119D01*
X009023Y019276D02*
X009031Y019276D01*
X008669Y019276D02*
X008589Y019276D01*
X008589Y019239D02*
X008589Y019639D01*
X008189Y019639D01*
X008189Y019361D01*
X008198Y019325D01*
X008217Y019293D01*
X008243Y019267D01*
X008275Y019249D01*
X008310Y019239D01*
X008589Y019239D01*
X008589Y019354D02*
X008669Y019354D01*
X008669Y019433D02*
X008589Y019433D01*
X008589Y019511D02*
X008669Y019511D01*
X008669Y019590D02*
X008589Y019590D01*
X008589Y019669D02*
X004249Y019669D01*
X004249Y019747D02*
X008189Y019747D01*
X008189Y019826D02*
X004249Y019826D01*
X004249Y019904D02*
X008189Y019904D01*
X008189Y019983D02*
X004249Y019983D01*
X004216Y020061D02*
X008214Y020061D01*
X008215Y020297D02*
X004243Y020297D01*
X004269Y020375D02*
X008189Y020375D01*
X008189Y020454D02*
X004269Y020454D01*
X004269Y020532D02*
X008049Y020532D01*
X007971Y020611D02*
X004269Y020611D01*
X004379Y020679D02*
X004379Y020879D01*
X004504Y021004D01*
X004504Y021429D01*
X004504Y021817D01*
X004489Y021789D02*
X004569Y021789D01*
X004569Y021711D02*
X004489Y021711D01*
X004489Y021632D02*
X004569Y021632D01*
X004569Y021554D02*
X004489Y021554D01*
X004489Y021475D02*
X004569Y021475D01*
X004504Y021429D02*
X003941Y021429D01*
X003941Y021254D01*
X003829Y021254D01*
X003829Y020679D01*
X004379Y020679D01*
X004269Y020768D02*
X007980Y020768D01*
X008058Y020847D02*
X004269Y020847D01*
X004269Y020925D02*
X008189Y020925D01*
X008190Y021004D02*
X007892Y021004D01*
X007883Y020999D02*
X007915Y021017D01*
X007941Y021043D01*
X007959Y021075D01*
X007969Y021111D01*
X007969Y021389D01*
X007569Y021389D01*
X007569Y021469D01*
X007969Y021469D01*
X007969Y021748D01*
X007959Y021783D01*
X007941Y021815D01*
X007915Y021841D01*
X007883Y021860D01*
X007847Y021869D01*
X007569Y021869D01*
X007569Y021469D01*
X007489Y021469D01*
X007489Y021869D01*
X007210Y021869D01*
X007175Y021860D01*
X007143Y021841D01*
X007117Y021815D01*
X007098Y021783D01*
X007089Y021748D01*
X007089Y021469D01*
X007489Y021469D01*
X007489Y021389D01*
X007569Y021389D01*
X007569Y020989D01*
X007847Y020989D01*
X007883Y020999D01*
X007961Y021082D02*
X008234Y021082D01*
X007969Y021161D02*
X009435Y021161D01*
X009513Y021239D02*
X007969Y021239D01*
X007969Y021318D02*
X009592Y021318D01*
X009670Y021396D02*
X007569Y021396D01*
X007529Y021441D02*
X008299Y021441D01*
X008299Y021459D01*
X008317Y021441D01*
X008629Y021441D01*
X008879Y021441D01*
X008896Y021441D01*
X008896Y021459D01*
X008879Y021441D01*
X008896Y021441D02*
X009504Y021441D01*
X009749Y021475D02*
X007969Y021475D01*
X007969Y021554D02*
X009827Y021554D01*
X009906Y021632D02*
X007969Y021632D01*
X007969Y021711D02*
X008619Y021711D01*
X008599Y021789D02*
X007956Y021789D01*
X007852Y021868D02*
X008599Y021868D01*
X008543Y021922D02*
X008569Y021948D01*
X008587Y021980D01*
X008597Y022015D01*
X008597Y022153D01*
X008338Y022153D01*
X008338Y022230D01*
X008597Y022230D01*
X008597Y022367D01*
X008587Y022403D01*
X008569Y022435D01*
X008543Y022461D01*
X008511Y022479D01*
X008475Y022489D01*
X008338Y022489D01*
X008338Y022230D01*
X008260Y022230D01*
X008260Y022153D01*
X008002Y022153D01*
X008002Y022015D01*
X008011Y021980D01*
X008030Y021948D01*
X008056Y021922D01*
X008088Y021903D01*
X008123Y021894D01*
X008260Y021894D01*
X008260Y022152D01*
X008338Y022152D01*
X008338Y021894D01*
X008475Y021894D01*
X008511Y021903D01*
X008543Y021922D01*
X008567Y021946D02*
X008857Y021946D01*
X008857Y021980D02*
X008857Y022206D01*
X008857Y022465D01*
X008935Y022465D01*
X008935Y022543D01*
X009194Y022543D01*
X009194Y022680D01*
X009184Y022715D01*
X009166Y022747D01*
X009139Y022773D01*
X009108Y022792D01*
X009106Y022792D01*
X009174Y022859D01*
X009174Y023274D01*
X009146Y023302D01*
X009167Y023302D01*
X009209Y023260D01*
X009209Y022859D01*
X009279Y022789D01*
X009327Y022789D01*
X009327Y022781D01*
X009279Y022781D01*
X009209Y022711D01*
X009209Y022297D01*
X009279Y022226D01*
X009243Y022182D02*
X009167Y022182D01*
X009166Y022260D02*
X009184Y022292D01*
X009194Y022328D01*
X009194Y022465D01*
X008935Y022465D01*
X008935Y022206D01*
X008935Y021980D01*
X008857Y021980D01*
X008857Y022025D02*
X008935Y022025D01*
X008935Y022103D02*
X008857Y022103D01*
X008857Y022182D02*
X008935Y022182D01*
X008935Y022260D02*
X008857Y022260D01*
X008857Y022339D02*
X008935Y022339D01*
X008935Y022418D02*
X008857Y022418D01*
X008857Y022496D02*
X007986Y022496D01*
X008030Y022435D02*
X008011Y022403D01*
X008002Y022367D01*
X008002Y022230D01*
X008260Y022230D01*
X008260Y022489D01*
X008123Y022489D01*
X008088Y022479D01*
X008056Y022461D01*
X008030Y022435D01*
X008020Y022418D02*
X007986Y022418D01*
X007986Y022339D02*
X008002Y022339D01*
X008002Y022260D02*
X007986Y022260D01*
X008004Y022191D02*
X008299Y022191D01*
X008299Y021459D01*
X008299Y021441D02*
X008317Y021441D01*
X008338Y021946D02*
X008260Y021946D01*
X008260Y022025D02*
X008338Y022025D01*
X008338Y022103D02*
X008260Y022103D01*
X008260Y022182D02*
X007986Y022182D01*
X007986Y022136D02*
X007986Y022622D01*
X007986Y022791D01*
X007916Y022861D01*
X007501Y022861D01*
X007431Y022791D01*
X007431Y022622D01*
X007431Y022136D01*
X007431Y021984D01*
X007501Y021914D01*
X007653Y021914D01*
X007764Y021914D01*
X007916Y021914D01*
X007986Y021984D01*
X007986Y022136D01*
X007986Y022103D02*
X008002Y022103D01*
X008002Y022025D02*
X007986Y022025D01*
X007948Y021946D02*
X008031Y021946D01*
X008299Y022191D02*
X008567Y022191D01*
X008625Y022182D02*
X008338Y022182D01*
X008299Y022191D02*
X008299Y022504D01*
X008260Y022418D02*
X008338Y022418D01*
X008338Y022339D02*
X008260Y022339D01*
X008260Y022260D02*
X008338Y022260D01*
X008597Y022339D02*
X008599Y022339D01*
X008599Y022418D02*
X008579Y022418D01*
X008629Y022504D02*
X008896Y022504D01*
X009191Y022504D01*
X009209Y022496D02*
X008935Y022496D01*
X008896Y022504D02*
X008896Y022760D01*
X008857Y022732D02*
X008935Y022732D01*
X008935Y022653D02*
X008857Y022653D01*
X008857Y022575D02*
X008935Y022575D01*
X008896Y022504D02*
X008896Y021941D01*
X009191Y021941D01*
X009209Y021946D02*
X008935Y021946D01*
X008896Y021941D02*
X008629Y021941D01*
X008597Y022025D02*
X008599Y022025D01*
X008597Y022103D02*
X008599Y022103D01*
X008896Y021941D02*
X008896Y021459D01*
X008857Y021711D02*
X008935Y021711D01*
X008935Y021789D02*
X008857Y021789D01*
X008857Y021868D02*
X008935Y021868D01*
X009194Y021868D02*
X009209Y021868D01*
X009209Y021789D02*
X009194Y021789D01*
X009173Y021711D02*
X009233Y021711D01*
X009209Y022025D02*
X009194Y022025D01*
X009194Y022103D02*
X009209Y022103D01*
X009194Y022339D02*
X009209Y022339D01*
X009209Y022418D02*
X009194Y022418D01*
X009194Y022575D02*
X009209Y022575D01*
X009209Y022653D02*
X009194Y022653D01*
X009175Y022732D02*
X009230Y022732D01*
X009258Y022810D02*
X009124Y022810D01*
X009174Y022889D02*
X009209Y022889D01*
X009209Y022967D02*
X009174Y022967D01*
X009174Y023046D02*
X009209Y023046D01*
X009209Y023124D02*
X009174Y023124D01*
X009174Y023203D02*
X009209Y023203D01*
X009187Y023281D02*
X009166Y023281D01*
X009331Y023364D02*
X009129Y023567D01*
X009331Y023364D02*
X010050Y023364D01*
X010004Y023364D01*
X010004Y023339D01*
X010050Y023108D02*
X009528Y023108D01*
X009487Y023067D01*
X009487Y022504D01*
X009487Y021941D01*
X009764Y021946D02*
X010220Y021946D01*
X010141Y021868D02*
X009764Y021868D01*
X009764Y021789D02*
X010063Y021789D01*
X009984Y021711D02*
X009741Y021711D01*
X009764Y022025D02*
X010299Y022025D01*
X010312Y022103D02*
X009764Y022103D01*
X009731Y022182D02*
X010306Y022182D01*
X010306Y022260D02*
X009728Y022260D01*
X009764Y022339D02*
X010306Y022339D01*
X010306Y022418D02*
X009764Y022418D01*
X009764Y022496D02*
X010306Y022496D01*
X010357Y022575D02*
X009764Y022575D01*
X010295Y022653D02*
X010423Y022653D01*
X010443Y022732D02*
X010321Y022732D01*
X010321Y022810D02*
X010521Y022810D01*
X010600Y022889D02*
X010321Y022889D01*
X010321Y022967D02*
X010679Y022967D01*
X010757Y023046D02*
X010321Y023046D01*
X010321Y023124D02*
X010836Y023124D01*
X010914Y023203D02*
X010321Y023203D01*
X010321Y023281D02*
X010993Y023281D01*
X010819Y023360D02*
X010321Y023360D01*
X010293Y023550D02*
X010248Y023594D01*
X010004Y023594D01*
X010004Y023581D01*
X010004Y023594D02*
X010050Y023620D01*
X010293Y023550D02*
X011004Y023550D01*
X010629Y023839D02*
X010626Y023876D01*
X009694Y023876D01*
X009567Y024004D01*
X008941Y024004D01*
X008754Y023817D01*
X008754Y023441D01*
X008896Y023299D01*
X008896Y023067D01*
X008619Y023046D02*
X008594Y023046D01*
X008594Y023124D02*
X008619Y023124D01*
X008619Y023203D02*
X008594Y023203D01*
X008594Y023281D02*
X008626Y023281D01*
X008609Y023360D02*
X008594Y023360D01*
X008594Y023439D02*
X008571Y023439D01*
X008594Y023517D02*
X007986Y023517D01*
X007986Y023439D02*
X008062Y023439D01*
X008039Y023360D02*
X007986Y023360D01*
X007986Y023596D02*
X008039Y023596D01*
X008039Y023674D02*
X007986Y023674D01*
X007986Y023753D02*
X008039Y023753D01*
X008039Y023831D02*
X007945Y023831D01*
X007957Y023910D02*
X008039Y023910D01*
X008039Y023988D02*
X008004Y023988D01*
X008006Y024067D02*
X008100Y024067D01*
X008157Y024145D02*
X007748Y024145D01*
X007691Y024174D02*
X007691Y023879D01*
X007670Y023877D02*
X007670Y024135D01*
X007411Y024135D01*
X007411Y023998D01*
X007421Y023962D01*
X007439Y023931D01*
X007465Y023904D01*
X007497Y023886D01*
X007533Y023877D01*
X007670Y023877D01*
X007670Y023910D02*
X007747Y023910D01*
X007747Y023988D02*
X007670Y023988D01*
X007670Y024067D02*
X007747Y024067D01*
X007670Y024145D02*
X006949Y024145D01*
X006949Y024067D02*
X007411Y024067D01*
X007414Y023988D02*
X006949Y023988D01*
X006949Y023910D02*
X007460Y023910D01*
X007472Y023831D02*
X006947Y023831D01*
X006947Y023880D02*
X006949Y023882D01*
X006949Y024231D01*
X006878Y024301D01*
X006179Y024301D01*
X006109Y024231D01*
X006109Y024099D01*
X006107Y024097D01*
X006107Y023131D01*
X006109Y023129D01*
X006109Y023029D01*
X006179Y022958D01*
X006878Y022958D01*
X006949Y023029D01*
X006949Y023378D01*
X006947Y023380D01*
X006947Y023880D01*
X006947Y023753D02*
X007431Y023753D01*
X007431Y023674D02*
X006947Y023674D01*
X006947Y023596D02*
X007431Y023596D01*
X007431Y023517D02*
X006947Y023517D01*
X006947Y023439D02*
X007431Y023439D01*
X007431Y023360D02*
X006949Y023360D01*
X006949Y023281D02*
X007431Y023281D01*
X007431Y023203D02*
X006949Y023203D01*
X006949Y023124D02*
X007431Y023124D01*
X007431Y023046D02*
X006949Y023046D01*
X006887Y022967D02*
X007431Y022967D01*
X007451Y022810D02*
X006949Y022810D01*
X006949Y022856D02*
X006878Y022927D01*
X006179Y022927D01*
X006109Y022856D01*
X006109Y022642D01*
X006107Y022640D01*
X006107Y021675D01*
X006109Y021673D01*
X006109Y021079D01*
X006179Y021009D01*
X006444Y021009D01*
X006445Y021009D01*
X006612Y021009D01*
X006613Y021009D01*
X006878Y021009D01*
X006949Y021079D01*
X006949Y021779D01*
X006947Y021781D01*
X006947Y022505D01*
X006949Y022507D01*
X006949Y022856D01*
X006916Y022889D02*
X008619Y022889D01*
X008619Y022967D02*
X008560Y022967D01*
X008668Y022810D02*
X007966Y022810D01*
X007986Y022732D02*
X008618Y022732D01*
X008599Y022653D02*
X007986Y022653D01*
X007986Y022575D02*
X008599Y022575D01*
X008317Y023174D02*
X008282Y023174D01*
X007709Y023174D01*
X007986Y022967D02*
X008073Y022967D01*
X008282Y023174D02*
X008317Y023209D01*
X008317Y023174D01*
X008317Y023799D02*
X008317Y024129D01*
X008567Y024379D01*
X009254Y024379D01*
X009519Y024644D01*
X009953Y024644D01*
X010004Y024618D01*
X010050Y024644D02*
X009953Y024644D01*
X009994Y024865D02*
X009667Y024865D01*
X009667Y024804D01*
X009614Y024804D01*
X009614Y024920D01*
X009356Y024920D01*
X009356Y024997D01*
X009614Y024997D01*
X009614Y025135D01*
X009604Y025170D01*
X009586Y025202D01*
X009560Y025228D01*
X009528Y025247D01*
X009492Y025256D01*
X009355Y025256D01*
X009355Y024998D01*
X009278Y024998D01*
X009278Y025256D01*
X009141Y025256D01*
X009105Y025247D01*
X009073Y025228D01*
X009066Y025222D01*
X009060Y025228D01*
X009028Y025247D01*
X008992Y025256D01*
X008855Y025256D01*
X008855Y024998D01*
X008778Y024998D01*
X008778Y025256D01*
X008641Y025256D01*
X008605Y025247D01*
X008573Y025228D01*
X008547Y025202D01*
X008529Y025170D01*
X008519Y025135D01*
X008519Y024997D01*
X008778Y024997D01*
X008778Y024920D01*
X008855Y024920D01*
X008855Y024661D01*
X008992Y024661D01*
X009028Y024671D01*
X009060Y024689D01*
X009066Y024696D01*
X009073Y024689D01*
X009105Y024671D01*
X009141Y024661D01*
X009278Y024661D01*
X009278Y024920D01*
X009355Y024920D01*
X009355Y024707D01*
X009188Y024539D01*
X008633Y024539D01*
X008500Y024539D01*
X008250Y024289D01*
X008157Y024195D01*
X008264Y024303D02*
X008006Y024303D01*
X007998Y024381D02*
X008343Y024381D01*
X008421Y024460D02*
X007924Y024460D01*
X007747Y024460D02*
X007670Y024460D01*
X007670Y024381D02*
X007747Y024381D01*
X007747Y024303D02*
X007670Y024303D01*
X007670Y024224D02*
X007747Y024224D01*
X007691Y024174D02*
X007129Y024174D01*
X007129Y024067D01*
X006949Y024224D02*
X007411Y024224D01*
X007411Y024303D02*
X001138Y024303D01*
X001138Y024381D02*
X006131Y024381D01*
X006109Y024403D02*
X006179Y024333D01*
X006878Y024333D01*
X006949Y024403D01*
X006949Y024753D01*
X006947Y024755D01*
X006947Y024816D01*
X006949Y024818D01*
X006949Y025168D01*
X006878Y025238D01*
X006179Y025238D01*
X006109Y025168D01*
X006109Y025004D01*
X006107Y025002D01*
X006107Y024509D01*
X006109Y024507D01*
X006109Y024403D01*
X006109Y024460D02*
X001138Y024460D01*
X001138Y024538D02*
X006107Y024538D01*
X006107Y024617D02*
X001138Y024617D01*
X001138Y024695D02*
X006107Y024695D01*
X006107Y024774D02*
X001138Y024774D01*
X001138Y024852D02*
X006107Y024852D01*
X006107Y024931D02*
X001138Y024931D01*
X001138Y025009D02*
X006109Y025009D01*
X006109Y025088D02*
X001138Y025088D01*
X001138Y025167D02*
X006109Y025167D01*
X006179Y025271D02*
X006878Y025271D01*
X006949Y025341D01*
X006949Y025690D01*
X006947Y025692D01*
X006947Y025859D01*
X006947Y026274D01*
X006947Y026409D01*
X006949Y026411D01*
X006949Y026790D01*
X006947Y026792D01*
X006947Y026853D01*
X006912Y026888D01*
X006915Y026889D01*
X006941Y026915D01*
X006959Y026947D01*
X006969Y026983D01*
X006969Y027151D01*
X006505Y027151D01*
X006505Y027231D01*
X006969Y027231D01*
X006969Y027400D01*
X006959Y027435D01*
X006941Y027467D01*
X006915Y027493D01*
X006905Y027499D01*
X006947Y027541D01*
X006947Y027590D01*
X006949Y027592D01*
X006949Y027972D01*
X006947Y027974D01*
X006947Y028690D01*
X006949Y028692D01*
X006949Y029042D01*
X006878Y029112D01*
X006179Y029112D01*
X006109Y029042D01*
X006109Y028902D01*
X006107Y028900D01*
X006107Y027706D01*
X005452Y027706D01*
X005452Y027231D01*
X005373Y027231D01*
X005372Y027231D02*
X005372Y027151D01*
X004573Y027151D01*
X004573Y026798D01*
X004582Y026762D01*
X004601Y026730D01*
X004627Y026704D01*
X004659Y026686D01*
X004694Y026676D01*
X005373Y026676D01*
X005373Y027151D01*
X005452Y027151D01*
X005452Y026676D01*
X006107Y026676D01*
X006107Y025572D01*
X006109Y025570D01*
X006109Y025341D01*
X006179Y025271D01*
X006126Y025324D02*
X001138Y025324D01*
X001138Y025402D02*
X006109Y025402D01*
X006109Y025481D02*
X001138Y025481D01*
X001138Y025559D02*
X006109Y025559D01*
X006107Y025638D02*
X001138Y025638D01*
X001138Y025716D02*
X006107Y025716D01*
X006107Y025795D02*
X001138Y025795D01*
X001138Y025873D02*
X006107Y025873D01*
X006107Y025952D02*
X001138Y025952D01*
X001138Y026031D02*
X006107Y026031D01*
X006107Y026109D02*
X001138Y026109D01*
X001138Y026188D02*
X006107Y026188D01*
X006107Y026266D02*
X001138Y026266D01*
X001138Y026345D02*
X006107Y026345D01*
X006107Y026423D02*
X001138Y026423D01*
X001138Y026502D02*
X006107Y026502D01*
X006107Y026580D02*
X001138Y026580D01*
X001138Y026659D02*
X006107Y026659D01*
X006238Y027151D02*
X006424Y027151D01*
X006424Y027231D01*
X006238Y027231D01*
X006238Y027151D01*
X006254Y027191D02*
X006465Y027191D01*
X006505Y027209D02*
X014622Y027209D01*
X014622Y027231D02*
X014622Y027151D01*
X013823Y027151D01*
X013823Y026798D01*
X013832Y026762D01*
X013851Y026730D01*
X013877Y026704D01*
X013909Y026686D01*
X013944Y026676D01*
X014623Y026676D01*
X014623Y027151D01*
X014702Y027151D01*
X014702Y026676D01*
X015359Y026676D01*
X015359Y025572D01*
X015359Y025341D01*
X015429Y025271D01*
X016128Y025271D01*
X016199Y025341D01*
X016199Y025572D01*
X016199Y025859D01*
X016199Y026274D01*
X016199Y026853D01*
X016163Y026888D01*
X016165Y026889D01*
X016191Y026915D01*
X016209Y026947D01*
X016219Y026983D01*
X016219Y027151D01*
X015755Y027151D01*
X015755Y027231D01*
X016219Y027231D01*
X016219Y027400D01*
X016209Y027435D01*
X016191Y027467D01*
X016165Y027493D01*
X016156Y027498D01*
X016199Y027541D01*
X016199Y028900D01*
X016199Y029040D01*
X016128Y029110D01*
X015987Y029110D01*
X015986Y029111D01*
X015572Y029111D01*
X015570Y029110D01*
X015429Y029110D01*
X015359Y029040D01*
X015359Y028900D01*
X015359Y028587D01*
X015357Y028586D01*
X015357Y028172D01*
X015359Y028170D01*
X015359Y027706D01*
X014702Y027706D01*
X014702Y027231D01*
X014623Y027231D01*
X014622Y027231D02*
X013823Y027231D01*
X013823Y027585D01*
X013832Y027620D01*
X013851Y027652D01*
X013877Y027678D01*
X013909Y027697D01*
X013944Y027706D01*
X014623Y027706D01*
X014623Y027231D01*
X014623Y027287D02*
X014702Y027287D01*
X014703Y027231D02*
X015124Y027231D01*
X015124Y027151D01*
X014703Y027151D01*
X014703Y027231D01*
X014703Y027209D02*
X015124Y027209D01*
X015004Y027191D02*
X014379Y027191D01*
X013817Y027191D01*
X013691Y027067D01*
X013691Y025862D01*
X013691Y025629D01*
X013653Y025638D02*
X013730Y025638D01*
X013730Y025564D02*
X013730Y025823D01*
X013653Y025823D01*
X013653Y025564D01*
X013515Y025564D01*
X013480Y025574D01*
X013448Y025592D01*
X013441Y025599D01*
X013435Y025592D01*
X013403Y025574D01*
X013367Y025564D01*
X013230Y025564D01*
X013230Y025823D01*
X013153Y025823D01*
X013153Y025564D01*
X013015Y025564D01*
X012980Y025574D01*
X012948Y025592D01*
X012922Y025618D01*
X012903Y025650D01*
X012894Y025686D01*
X012894Y025823D01*
X013152Y025823D01*
X013152Y025901D01*
X013153Y025901D02*
X013153Y026159D01*
X013015Y026159D01*
X012980Y026150D01*
X012948Y026131D01*
X012922Y026105D01*
X012903Y026073D01*
X012894Y026038D01*
X012894Y025901D01*
X013152Y025901D01*
X013153Y025901D02*
X013230Y025901D01*
X013230Y026159D01*
X013367Y026159D01*
X013403Y026150D01*
X013435Y026131D01*
X013441Y026125D01*
X013448Y026131D01*
X013480Y026150D01*
X013515Y026159D01*
X013653Y026159D01*
X013653Y025901D01*
X013730Y025901D01*
X013730Y026159D01*
X013867Y026159D01*
X013903Y026150D01*
X013935Y026131D01*
X013941Y026125D01*
X013948Y026131D01*
X013980Y026150D01*
X014015Y026159D01*
X014153Y026159D01*
X014153Y025901D01*
X014230Y025901D01*
X014230Y026159D01*
X014367Y026159D01*
X014403Y026150D01*
X014435Y026131D01*
X014461Y026105D01*
X014479Y026073D01*
X014489Y026038D01*
X014489Y025901D01*
X014230Y025901D01*
X014230Y025823D01*
X014230Y025564D01*
X014367Y025564D01*
X014403Y025574D01*
X014435Y025592D01*
X014461Y025618D01*
X014479Y025650D01*
X014489Y025686D01*
X014489Y025823D01*
X014230Y025823D01*
X014153Y025823D01*
X014153Y025564D01*
X014015Y025564D01*
X013980Y025574D01*
X013948Y025592D01*
X013941Y025599D01*
X013935Y025592D01*
X013903Y025574D01*
X013867Y025564D01*
X013730Y025564D01*
X013730Y025716D02*
X013653Y025716D01*
X013653Y025795D02*
X013730Y025795D01*
X013730Y025823D02*
X013730Y025901D01*
X013894Y025901D01*
X014152Y025901D01*
X014152Y025823D01*
X013894Y025823D01*
X013730Y025823D01*
X013730Y025873D02*
X014152Y025873D01*
X014191Y025862D02*
X014191Y026129D01*
X014153Y026109D02*
X014230Y026109D01*
X014230Y026031D02*
X014153Y026031D01*
X014153Y025952D02*
X014230Y025952D01*
X014230Y025873D02*
X015359Y025873D01*
X015359Y025795D02*
X014489Y025795D01*
X014489Y025716D02*
X015359Y025716D01*
X015359Y025638D02*
X014472Y025638D01*
X014399Y025549D02*
X013984Y025549D01*
X013941Y025506D01*
X013899Y025549D01*
X013484Y025549D01*
X013441Y025506D01*
X013399Y025549D01*
X012984Y025549D01*
X012914Y025478D01*
X012914Y025431D01*
X012865Y025431D01*
X012601Y025696D01*
X012639Y025734D01*
X012639Y026149D01*
X012569Y026219D01*
X012155Y026219D01*
X012084Y026149D01*
X012084Y025734D01*
X012155Y025664D01*
X012202Y025664D01*
X012202Y025642D01*
X012496Y025348D01*
X012064Y025348D01*
X012041Y025404D01*
X011967Y025479D01*
X011869Y025519D01*
X011764Y025519D01*
X011666Y025479D01*
X011592Y025404D01*
X011552Y025307D01*
X011552Y025201D01*
X011592Y025104D01*
X011629Y025066D01*
X011592Y025029D01*
X011552Y024931D01*
X010834Y024931D01*
X010834Y025009D02*
X011584Y025009D01*
X011608Y025088D02*
X010834Y025088D01*
X010834Y025167D02*
X011566Y025167D01*
X011552Y025245D02*
X010834Y025245D01*
X010834Y025324D02*
X011559Y025324D01*
X011591Y025402D02*
X010834Y025402D01*
X010834Y025481D02*
X011672Y025481D01*
X011564Y025664D02*
X011978Y025664D01*
X012049Y025734D01*
X012049Y026149D01*
X011978Y026219D01*
X011564Y026219D01*
X011494Y026149D01*
X011494Y026101D01*
X010951Y026101D01*
X010951Y026149D01*
X010881Y026219D01*
X010467Y026219D01*
X010397Y026149D01*
X010397Y025734D01*
X010467Y025664D01*
X010514Y025664D01*
X010514Y024740D01*
X010321Y024548D01*
X010321Y024703D01*
X010331Y024722D01*
X010341Y024757D01*
X010341Y024865D01*
X010013Y024865D01*
X010013Y024883D01*
X010341Y024883D01*
X010341Y024991D01*
X010331Y025026D01*
X010321Y025045D01*
X010321Y025278D01*
X010250Y025348D01*
X010210Y025348D01*
X010210Y025462D01*
X010116Y025556D01*
X010056Y025615D01*
X010056Y025615D01*
X010008Y025664D01*
X010291Y025664D01*
X010361Y025734D01*
X010361Y026149D01*
X010291Y026219D01*
X009876Y026219D01*
X009806Y026149D01*
X009806Y026101D01*
X009008Y026101D01*
X008875Y026101D01*
X008750Y025976D01*
X008657Y025883D01*
X008657Y025827D01*
X008609Y025827D01*
X008539Y025756D01*
X008539Y025342D01*
X008609Y025272D01*
X009024Y025272D01*
X009066Y025315D01*
X009109Y025272D01*
X009524Y025272D01*
X009594Y025342D01*
X009594Y025389D01*
X009830Y025389D01*
X009871Y025348D01*
X009757Y025348D01*
X009687Y025278D01*
X009687Y025045D01*
X009677Y025026D01*
X009667Y024991D01*
X009667Y024883D01*
X009994Y024883D01*
X009994Y024865D01*
X010004Y024874D02*
X009953Y024900D01*
X010441Y024900D01*
X010441Y024941D01*
X010514Y024931D02*
X010341Y024931D01*
X010341Y024852D02*
X010514Y024852D01*
X010514Y024774D02*
X010341Y024774D01*
X010321Y024695D02*
X010469Y024695D01*
X010390Y024617D02*
X010321Y024617D01*
X010321Y024548D02*
X010321Y024548D01*
X010388Y024388D02*
X009700Y024388D01*
X009567Y024254D01*
X009567Y024004D01*
X010004Y024106D02*
X010050Y024132D01*
X011189Y024132D01*
X011379Y023941D01*
X011379Y023441D01*
X010583Y022646D01*
X010583Y022317D01*
X010583Y022083D01*
X009191Y020691D01*
X009191Y015817D01*
X008720Y015344D01*
X008720Y014941D01*
X008720Y014469D01*
X008567Y014317D01*
X008567Y013817D01*
X009289Y013817D02*
X009289Y014539D01*
X009879Y015129D01*
X011254Y015129D01*
X011629Y015504D01*
X011629Y015941D01*
X011969Y016306D02*
X011899Y016376D01*
X011359Y016376D01*
X011289Y016376D01*
X011289Y016883D01*
X011195Y016976D01*
X010789Y017383D01*
X010789Y020000D01*
X010918Y020129D01*
X010988Y020059D01*
X011520Y020059D01*
X011590Y020129D01*
X011590Y020482D01*
X011601Y020500D01*
X011610Y020535D01*
X011610Y020663D01*
X011283Y020663D01*
X011283Y020721D01*
X011610Y020721D01*
X011610Y020848D01*
X011601Y020884D01*
X011590Y020902D01*
X011590Y021239D01*
X011617Y021266D01*
X011664Y021312D01*
X011664Y021313D01*
X011850Y021499D01*
X011897Y021546D01*
X011897Y021601D01*
X011944Y021601D01*
X012014Y021672D01*
X012014Y022086D01*
X011944Y022156D01*
X011897Y022156D01*
X011897Y023108D01*
X011951Y023162D01*
X011951Y023092D01*
X012278Y023092D01*
X012278Y023073D01*
X011951Y023073D01*
X011951Y022966D01*
X011960Y022930D01*
X011971Y022912D01*
X011971Y022679D01*
X012041Y022608D01*
X012534Y022608D01*
X012604Y022679D01*
X012604Y022912D01*
X012615Y022930D01*
X012624Y022966D01*
X012624Y023073D01*
X012297Y023073D01*
X012297Y023092D01*
X012624Y023092D01*
X012624Y023200D01*
X012615Y023235D01*
X012604Y023253D01*
X012604Y023424D01*
X012615Y023442D01*
X012624Y023478D01*
X012624Y023585D01*
X012297Y023585D01*
X012297Y023604D01*
X012624Y023604D01*
X012624Y023711D01*
X012622Y023719D01*
X013806Y023719D01*
X013806Y023672D01*
X013876Y023601D01*
X014291Y023601D01*
X014361Y023672D01*
X014361Y024086D01*
X014291Y024156D01*
X013876Y024156D01*
X013806Y024086D01*
X013806Y024039D01*
X013452Y024039D01*
X014258Y024844D01*
X014351Y024938D01*
X014351Y024994D01*
X014376Y024994D01*
X014376Y024901D01*
X014634Y024901D01*
X014634Y025159D01*
X014497Y025159D01*
X014469Y025152D01*
X014469Y025478D01*
X014399Y025549D01*
X014466Y025481D02*
X015359Y025481D01*
X015359Y025559D02*
X012737Y025559D01*
X012659Y025638D02*
X012911Y025638D01*
X012894Y025716D02*
X012621Y025716D01*
X012639Y025795D02*
X012894Y025795D01*
X012896Y025862D02*
X013191Y025862D01*
X013191Y025567D01*
X013153Y025638D02*
X013230Y025638D01*
X013230Y025716D02*
X013153Y025716D01*
X013153Y025795D02*
X013230Y025795D01*
X013230Y025823D02*
X013230Y025901D01*
X013489Y025901D01*
X013652Y025901D01*
X013652Y025823D01*
X013489Y025823D01*
X013230Y025823D01*
X013230Y025873D02*
X013652Y025873D01*
X013691Y025862D02*
X013191Y025862D01*
X013191Y026129D01*
X013153Y026109D02*
X013230Y026109D01*
X013230Y026031D02*
X013153Y026031D01*
X013153Y025952D02*
X013230Y025952D01*
X013152Y025873D02*
X012639Y025873D01*
X012639Y025952D02*
X012894Y025952D01*
X012894Y026031D02*
X012639Y026031D01*
X012639Y026109D02*
X012926Y026109D01*
X012869Y026222D02*
X012886Y026239D01*
X013199Y026239D01*
X013269Y026309D01*
X013269Y026699D01*
X013199Y026769D01*
X012939Y026769D01*
X012939Y026785D01*
X012869Y026855D01*
X012139Y026855D01*
X012069Y026785D01*
X012069Y026292D01*
X012139Y026222D01*
X012869Y026222D01*
X013226Y026266D02*
X015359Y026266D01*
X015359Y026188D02*
X012600Y026188D01*
X012538Y026504D02*
X012504Y026539D01*
X012362Y025941D02*
X012362Y025709D01*
X012799Y025271D01*
X013191Y025271D01*
X013691Y025271D01*
X013691Y024941D01*
X013138Y024388D01*
X012333Y024388D01*
X012287Y024618D02*
X012783Y024618D01*
X012833Y024668D01*
X013319Y024132D02*
X014191Y025004D01*
X014191Y025271D01*
X014469Y025245D02*
X021370Y025245D01*
X021370Y025167D02*
X016198Y025167D01*
X016199Y025166D02*
X016128Y025236D01*
X015986Y025236D01*
X015572Y025236D01*
X015429Y025236D01*
X015359Y025166D01*
X015359Y024816D01*
X015359Y024753D01*
X015359Y024403D01*
X015429Y024333D01*
X016128Y024333D01*
X016199Y024403D01*
X016199Y024753D01*
X016199Y024816D01*
X016199Y025166D01*
X016199Y025088D02*
X021370Y025088D01*
X021370Y025009D02*
X016199Y025009D01*
X016199Y024931D02*
X021370Y024931D01*
X021370Y024852D02*
X016199Y024852D01*
X016199Y024774D02*
X021370Y024774D01*
X021370Y024695D02*
X016199Y024695D01*
X016199Y024617D02*
X021370Y024617D01*
X021370Y024538D02*
X016199Y024538D01*
X016199Y024460D02*
X021370Y024460D01*
X021370Y024381D02*
X016176Y024381D01*
X016128Y024298D02*
X015987Y024298D01*
X015986Y024299D01*
X015572Y024299D01*
X015570Y024298D01*
X015429Y024298D01*
X015359Y024227D01*
X015359Y023878D01*
X015359Y023378D01*
X015359Y023029D01*
X015429Y022958D01*
X016128Y022958D01*
X016199Y023029D01*
X016199Y023378D01*
X016199Y023878D01*
X016199Y024227D01*
X016128Y024298D01*
X016199Y024224D02*
X021370Y024224D01*
X021370Y024145D02*
X016199Y024145D01*
X016199Y024067D02*
X021370Y024067D01*
X021370Y023988D02*
X016199Y023988D01*
X016199Y023910D02*
X016289Y023910D01*
X016300Y023917D02*
X016268Y023898D01*
X016242Y023872D01*
X016224Y023840D01*
X016214Y023805D01*
X016214Y023667D01*
X016473Y023667D01*
X016473Y023590D01*
X016214Y023590D01*
X016214Y023453D01*
X016224Y023417D01*
X016242Y023385D01*
X016268Y023359D01*
X016300Y023341D01*
X016336Y023331D01*
X016473Y023331D01*
X016473Y023590D01*
X016551Y023590D01*
X016551Y023667D01*
X016809Y023667D01*
X016809Y023805D01*
X016800Y023840D01*
X016781Y023872D01*
X016755Y023898D01*
X016723Y023917D01*
X016688Y023926D01*
X016551Y023926D01*
X016551Y023668D01*
X016473Y023668D01*
X016473Y023926D01*
X016336Y023926D01*
X016300Y023917D01*
X016221Y023831D02*
X016199Y023831D01*
X016199Y023753D02*
X016214Y023753D01*
X016214Y023674D02*
X016199Y023674D01*
X016254Y023629D02*
X016496Y023629D01*
X016512Y023629D01*
X016754Y023629D01*
X016809Y023590D02*
X016551Y023590D01*
X016551Y023331D01*
X016688Y023331D01*
X016723Y023341D01*
X016755Y023359D01*
X016781Y023385D01*
X016800Y023417D01*
X016809Y023453D01*
X016809Y023590D01*
X016809Y023517D02*
X021370Y023517D01*
X021370Y023439D02*
X016805Y023439D01*
X016756Y023360D02*
X021370Y023360D01*
X021370Y023281D02*
X016199Y023281D01*
X016199Y023203D02*
X021370Y023203D01*
X021370Y023124D02*
X016199Y023124D01*
X016199Y023046D02*
X021370Y023046D01*
X021370Y022967D02*
X016137Y022967D01*
X016128Y022927D02*
X015429Y022927D01*
X015359Y022856D01*
X015359Y022640D01*
X015359Y022400D01*
X015357Y022399D01*
X015357Y021984D01*
X015359Y021983D01*
X015359Y021675D01*
X015359Y021674D01*
X015359Y021079D01*
X015429Y021009D01*
X016129Y021009D01*
X016199Y021079D01*
X016199Y021779D01*
X016199Y021779D01*
X016199Y022640D01*
X016199Y022856D01*
X016128Y022927D01*
X016166Y022889D02*
X021370Y022889D01*
X021370Y022810D02*
X016199Y022810D01*
X016199Y022732D02*
X021370Y022732D01*
X021370Y022653D02*
X016199Y022653D01*
X016199Y022575D02*
X021370Y022575D01*
X021370Y022496D02*
X016199Y022496D01*
X016199Y022418D02*
X021370Y022418D01*
X021370Y022339D02*
X016199Y022339D01*
X016199Y022260D02*
X021370Y022260D01*
X021370Y022182D02*
X016199Y022182D01*
X016199Y022103D02*
X021370Y022103D01*
X021370Y022025D02*
X016199Y022025D01*
X016199Y021946D02*
X021370Y021946D01*
X021370Y021868D02*
X017103Y021868D01*
X017098Y021869D02*
X017133Y021860D01*
X017165Y021841D01*
X017191Y021815D01*
X017210Y021783D01*
X017219Y021748D01*
X017219Y021469D01*
X016819Y021469D01*
X016819Y021389D01*
X016819Y020989D01*
X017098Y020989D01*
X017133Y020999D01*
X017165Y021017D01*
X017191Y021043D01*
X017210Y021075D01*
X017219Y021111D01*
X017219Y021389D01*
X016819Y021389D01*
X016739Y021389D01*
X016739Y020989D01*
X016461Y020989D01*
X016425Y020999D01*
X016393Y021017D01*
X016367Y021043D01*
X016349Y021075D01*
X016339Y021111D01*
X016339Y021389D01*
X016739Y021389D01*
X016739Y021469D01*
X016339Y021469D01*
X016339Y021748D01*
X016349Y021783D01*
X016367Y021815D01*
X016393Y021841D01*
X016425Y021860D01*
X016461Y021869D01*
X016739Y021869D01*
X016739Y021469D01*
X016819Y021469D01*
X016819Y021869D01*
X017098Y021869D01*
X017206Y021789D02*
X021370Y021789D01*
X021370Y021711D02*
X017219Y021711D01*
X017219Y021632D02*
X021370Y021632D01*
X021370Y021554D02*
X017219Y021554D01*
X017219Y021475D02*
X021370Y021475D01*
X021370Y021396D02*
X016819Y021396D01*
X016779Y021441D02*
X016379Y021441D01*
X016339Y021475D02*
X016199Y021475D01*
X016199Y021554D02*
X016339Y021554D01*
X016339Y021632D02*
X016199Y021632D01*
X016199Y021711D02*
X016339Y021711D01*
X016352Y021789D02*
X016199Y021789D01*
X016199Y021868D02*
X016456Y021868D01*
X016691Y021941D02*
X016691Y022567D01*
X017441Y022567D01*
X017441Y024254D01*
X016879Y024254D01*
X016879Y025567D01*
X017441Y025567D01*
X017441Y026067D01*
X017441Y026504D01*
X016879Y026504D01*
X016379Y026504D01*
X016379Y026817D01*
X016379Y027191D01*
X016379Y027567D01*
X016379Y028004D01*
X016379Y028441D01*
X016379Y028941D01*
X016379Y029441D01*
X016779Y029441D01*
X016779Y030541D01*
X016779Y029576D01*
X016822Y029576D01*
X016908Y029590D01*
X016991Y029617D01*
X017068Y029656D01*
X017139Y029707D01*
X017200Y029769D01*
X017251Y029839D01*
X017291Y029917D01*
X017318Y029999D01*
X017331Y030085D01*
X017331Y030541D01*
X016779Y030541D01*
X016779Y030541D01*
X016779Y030541D01*
X017331Y030541D01*
X017331Y030997D01*
X017318Y031083D01*
X017291Y031166D01*
X017251Y031244D01*
X017250Y031245D01*
X020198Y031245D01*
X020323Y031238D01*
X020581Y031179D01*
X020819Y031065D01*
X020929Y030977D01*
X019351Y030977D01*
X019281Y030907D01*
X019281Y029226D01*
X019351Y029156D01*
X021032Y029156D01*
X021102Y029226D01*
X021102Y030804D01*
X021190Y030694D01*
X021304Y030456D01*
X021363Y030199D01*
X021370Y030067D01*
X021370Y015504D01*
X017980Y015504D01*
X017945Y015539D01*
X017883Y015539D01*
X011931Y015539D01*
X011969Y015577D01*
X011969Y016306D01*
X011969Y016291D02*
X013694Y016291D01*
X013699Y016275D02*
X013717Y016243D01*
X013743Y016217D01*
X013775Y016199D01*
X013811Y016189D01*
X014089Y016189D01*
X014089Y016589D01*
X014169Y016589D01*
X014169Y016189D01*
X014448Y016189D01*
X014483Y016199D01*
X014515Y016217D01*
X014541Y016243D01*
X014560Y016275D01*
X014569Y016311D01*
X014569Y016589D01*
X014169Y016589D01*
X014169Y016669D01*
X014569Y016669D01*
X014569Y016948D01*
X014560Y016983D01*
X014541Y017015D01*
X014515Y017041D01*
X014483Y017060D01*
X014448Y017069D01*
X014169Y017069D01*
X014169Y016669D01*
X014089Y016669D01*
X014089Y016589D01*
X013689Y016589D01*
X013689Y016311D01*
X013699Y016275D01*
X013751Y016213D02*
X011969Y016213D01*
X011969Y016134D02*
X014864Y016134D01*
X014864Y016209D02*
X014864Y015934D01*
X014934Y015864D01*
X015324Y015864D01*
X015394Y015934D01*
X015394Y016209D01*
X015479Y016209D01*
X015549Y016279D01*
X015549Y016979D01*
X015479Y017049D01*
X014779Y017049D01*
X014709Y016979D01*
X014709Y016279D01*
X014779Y016209D01*
X014864Y016209D01*
X014776Y016213D02*
X014507Y016213D01*
X014564Y016291D02*
X014709Y016291D01*
X014709Y016370D02*
X014569Y016370D01*
X014569Y016448D02*
X014709Y016448D01*
X014709Y016527D02*
X014569Y016527D01*
X014569Y016684D02*
X014709Y016684D01*
X014709Y016762D02*
X014569Y016762D01*
X014569Y016841D02*
X014709Y016841D01*
X014709Y016919D02*
X014569Y016919D01*
X014551Y016998D02*
X014728Y016998D01*
X014709Y016605D02*
X014169Y016605D01*
X014129Y016629D02*
X014129Y016254D01*
X014089Y016291D02*
X014169Y016291D01*
X014169Y016213D02*
X014089Y016213D01*
X014089Y016370D02*
X014169Y016370D01*
X014169Y016448D02*
X014089Y016448D01*
X014089Y016527D02*
X014169Y016527D01*
X014129Y016629D02*
X014129Y017129D01*
X014089Y017069D02*
X013811Y017069D01*
X013775Y017060D01*
X013743Y017041D01*
X013717Y017015D01*
X013699Y016983D01*
X013689Y016948D01*
X013689Y016669D01*
X014089Y016669D01*
X014089Y017069D01*
X014089Y016998D02*
X014169Y016998D01*
X014169Y016919D02*
X014089Y016919D01*
X014089Y016841D02*
X014169Y016841D01*
X014169Y016762D02*
X014089Y016762D01*
X014089Y016684D02*
X014169Y016684D01*
X014129Y016629D02*
X013629Y016629D01*
X013067Y016629D01*
X013067Y017191D01*
X011504Y017191D01*
X011163Y017532D01*
X011163Y017754D01*
X010879Y017754D01*
X010827Y017794D02*
X011123Y017794D01*
X011123Y017714D01*
X010827Y017714D01*
X010827Y017421D01*
X010836Y017385D01*
X010854Y017353D01*
X010881Y017327D01*
X010912Y017309D01*
X010948Y017299D01*
X011123Y017299D01*
X011123Y017714D01*
X011203Y017714D01*
X011203Y017299D01*
X011379Y017299D01*
X011414Y017309D01*
X011446Y017327D01*
X011472Y017353D01*
X011491Y017385D01*
X011500Y017421D01*
X011500Y017714D01*
X011204Y017714D01*
X011204Y017794D01*
X011500Y017794D01*
X011500Y018087D01*
X011491Y018123D01*
X011472Y018155D01*
X011446Y018181D01*
X011428Y018191D01*
X011446Y018202D01*
X011472Y018228D01*
X011491Y018260D01*
X011500Y018295D01*
X011500Y018589D01*
X011204Y018589D01*
X011204Y018669D01*
X011500Y018669D01*
X011500Y018962D01*
X011491Y018998D01*
X011472Y019030D01*
X011446Y019056D01*
X011415Y019074D01*
X011480Y019139D01*
X011480Y019344D01*
X011570Y019344D01*
X011664Y019438D01*
X011914Y019688D01*
X011914Y019820D01*
X011914Y020062D01*
X011949Y020098D01*
X011988Y020059D01*
X012520Y020059D01*
X012590Y020129D01*
X012590Y020504D01*
X012520Y020574D01*
X011988Y020574D01*
X011917Y020504D01*
X011917Y020476D01*
X011875Y020476D01*
X011688Y020289D01*
X011594Y020195D01*
X011594Y019820D01*
X011480Y019706D01*
X011480Y019869D01*
X011410Y019939D01*
X010917Y019939D01*
X010847Y019869D01*
X010847Y019139D01*
X010912Y019074D01*
X010881Y019056D01*
X010854Y019030D01*
X010836Y018998D01*
X010827Y018962D01*
X010827Y018669D01*
X011123Y018669D01*
X011123Y018589D01*
X010827Y018589D01*
X010827Y018295D01*
X010836Y018260D01*
X010854Y018228D01*
X010881Y018202D01*
X010899Y018191D01*
X010881Y018181D01*
X010854Y018155D01*
X010836Y018123D01*
X010827Y018087D01*
X010827Y017794D01*
X010789Y017783D02*
X011123Y017783D01*
X011123Y017794D02*
X011123Y018209D01*
X011123Y018589D01*
X011203Y018589D01*
X011203Y018209D01*
X011203Y017794D01*
X011123Y017794D01*
X011163Y017754D02*
X011441Y017754D01*
X011500Y017705D02*
X012028Y017705D01*
X012028Y017783D02*
X011204Y017783D01*
X011163Y017754D02*
X011163Y018629D01*
X011163Y019038D01*
X011123Y019040D02*
X011203Y019040D01*
X011203Y019069D02*
X011203Y018669D01*
X011123Y018669D01*
X011123Y019069D01*
X011203Y019069D01*
X011203Y018962D02*
X011123Y018962D01*
X011123Y018883D02*
X011203Y018883D01*
X011203Y018805D02*
X011123Y018805D01*
X011123Y018726D02*
X011203Y018726D01*
X011204Y018647D02*
X012028Y018647D01*
X012028Y018569D02*
X011500Y018569D01*
X011500Y018490D02*
X012028Y018490D01*
X012028Y018412D02*
X011500Y018412D01*
X011500Y018333D02*
X012028Y018333D01*
X012028Y018264D02*
X012098Y018194D01*
X012184Y018194D01*
X012184Y018189D01*
X012098Y018189D01*
X012028Y018119D01*
X012028Y017389D01*
X012098Y017319D01*
X012591Y017319D01*
X012639Y017367D01*
X012639Y017361D01*
X012649Y017325D01*
X012667Y017293D01*
X012693Y017267D01*
X012725Y017249D01*
X012761Y017239D01*
X013039Y017239D01*
X013039Y017639D01*
X013119Y017639D01*
X013119Y017239D01*
X013398Y017239D01*
X013433Y017249D01*
X013465Y017267D01*
X013491Y017293D01*
X013510Y017325D01*
X013519Y017361D01*
X013519Y017639D01*
X013119Y017639D01*
X013119Y017719D01*
X013039Y017719D01*
X012661Y017719D01*
X012661Y017639D01*
X013039Y017639D01*
X013039Y017719D01*
X013039Y018119D01*
X012761Y018119D01*
X012725Y018110D01*
X012693Y018091D01*
X012667Y018065D01*
X012661Y018055D01*
X012661Y018119D01*
X012591Y018189D01*
X012504Y018189D01*
X012504Y018194D01*
X012591Y018194D01*
X012661Y018264D01*
X012661Y018303D01*
X012667Y018293D01*
X012693Y018267D01*
X012725Y018249D01*
X012761Y018239D01*
X013039Y018239D01*
X013039Y018639D01*
X013119Y018639D01*
X013119Y018239D01*
X013398Y018239D01*
X013433Y018249D01*
X013465Y018267D01*
X013491Y018293D01*
X013510Y018325D01*
X013519Y018361D01*
X013519Y018639D01*
X013119Y018639D01*
X013119Y018719D01*
X013039Y018719D01*
X012661Y018719D01*
X012661Y018639D01*
X013039Y018639D01*
X013039Y018719D01*
X013039Y019119D01*
X012761Y019119D01*
X012725Y019110D01*
X012693Y019091D01*
X012667Y019065D01*
X012649Y019033D01*
X012643Y019012D01*
X012591Y019064D01*
X012504Y019064D01*
X012504Y019069D01*
X012591Y019069D01*
X012661Y019139D01*
X012661Y019327D01*
X012729Y019259D01*
X013429Y019259D01*
X013499Y019329D01*
X013499Y020029D01*
X013429Y020099D01*
X012729Y020099D01*
X012659Y020029D01*
X012659Y019871D01*
X012591Y019939D01*
X012098Y019939D01*
X012028Y019869D01*
X012028Y019139D01*
X012098Y019069D01*
X012184Y019069D01*
X012184Y019064D01*
X012098Y019064D01*
X012028Y018993D01*
X012028Y018264D01*
X012037Y018255D02*
X011488Y018255D01*
X011451Y018176D02*
X012085Y018176D01*
X012028Y018098D02*
X011497Y018098D01*
X011500Y018019D02*
X012028Y018019D01*
X012028Y017941D02*
X011500Y017941D01*
X011500Y017862D02*
X012028Y017862D01*
X012028Y017626D02*
X011500Y017626D01*
X011500Y017548D02*
X012028Y017548D01*
X012028Y017469D02*
X011500Y017469D01*
X011492Y017391D02*
X012028Y017391D01*
X012344Y017754D02*
X012344Y018629D01*
X012344Y019504D01*
X012344Y019679D01*
X013079Y019679D01*
X013499Y019669D02*
X017839Y019669D01*
X017839Y019639D02*
X017439Y019639D01*
X017439Y019361D01*
X017449Y019325D01*
X017467Y019293D01*
X017493Y019267D01*
X017525Y019249D01*
X017561Y019239D01*
X017839Y019239D01*
X017839Y019639D01*
X017919Y019639D01*
X017919Y019239D01*
X018198Y019239D01*
X018233Y019249D01*
X018265Y019267D01*
X018291Y019293D01*
X018310Y019325D01*
X018319Y019361D01*
X018319Y019639D01*
X017919Y019639D01*
X017919Y019719D01*
X018319Y019719D01*
X018319Y019998D01*
X018310Y020033D01*
X018291Y020065D01*
X018265Y020091D01*
X018233Y020110D01*
X018198Y020119D01*
X017919Y020119D01*
X017919Y019719D01*
X017839Y019719D01*
X017839Y019639D01*
X017839Y019590D02*
X017919Y019590D01*
X017919Y019669D02*
X021370Y019669D01*
X021370Y019747D02*
X018319Y019747D01*
X018319Y019826D02*
X021370Y019826D01*
X021370Y019904D02*
X018319Y019904D01*
X018319Y019983D02*
X021370Y019983D01*
X021370Y020061D02*
X018293Y020061D01*
X018233Y020249D02*
X018198Y020239D01*
X017919Y020239D01*
X017919Y020639D01*
X017839Y020639D01*
X017839Y020239D01*
X017561Y020239D01*
X017525Y020249D01*
X017493Y020267D01*
X017467Y020293D01*
X017449Y020325D01*
X017439Y020361D01*
X017439Y020519D01*
X017312Y020519D01*
X017219Y020612D01*
X017219Y020758D01*
X017312Y020851D01*
X017439Y020851D01*
X017439Y020998D01*
X017449Y021033D01*
X017467Y021065D01*
X017493Y021091D01*
X017525Y021110D01*
X017561Y021119D01*
X017839Y021119D01*
X017839Y020719D01*
X017919Y020719D01*
X018319Y020719D01*
X018319Y020998D01*
X018310Y021033D01*
X018291Y021065D01*
X018265Y021091D01*
X018233Y021110D01*
X018198Y021119D01*
X017919Y021119D01*
X017919Y020719D01*
X017919Y020639D01*
X018319Y020639D01*
X018319Y020361D01*
X018310Y020325D01*
X018291Y020293D01*
X018265Y020267D01*
X018233Y020249D01*
X018293Y020297D02*
X021370Y020297D01*
X021370Y020375D02*
X018319Y020375D01*
X018319Y020454D02*
X021370Y020454D01*
X021370Y020532D02*
X018319Y020532D01*
X018319Y020611D02*
X021370Y020611D01*
X021370Y020690D02*
X017919Y020690D01*
X017879Y020691D02*
X017879Y021191D01*
X017879Y021441D01*
X017317Y021441D01*
X016779Y021441D01*
X016779Y021941D01*
X016691Y021941D01*
X016739Y021868D02*
X016819Y021868D01*
X016819Y021789D02*
X016739Y021789D01*
X016739Y021711D02*
X016819Y021711D01*
X016819Y021632D02*
X016739Y021632D01*
X016739Y021554D02*
X016819Y021554D01*
X016819Y021475D02*
X016739Y021475D01*
X016779Y021441D02*
X016779Y020879D01*
X016754Y020879D01*
X016754Y020504D01*
X016567Y020504D01*
X016254Y020817D01*
X015754Y020817D01*
X015317Y020817D01*
X015004Y020504D01*
X014754Y020504D01*
X014754Y020941D01*
X014779Y020941D01*
X014779Y021429D01*
X014254Y021429D01*
X014254Y021441D01*
X014254Y021429D02*
X013779Y021429D01*
X013779Y023041D01*
X013254Y023567D01*
X013254Y023620D01*
X011941Y023620D01*
X011951Y023604D02*
X012278Y023604D01*
X012278Y023585D01*
X011951Y023585D01*
X011951Y023524D01*
X011860Y023524D01*
X011767Y023430D01*
X011577Y023240D01*
X011577Y023108D01*
X011577Y022156D01*
X011529Y022156D01*
X011459Y022086D01*
X011459Y021672D01*
X011515Y021616D01*
X011438Y021539D01*
X010851Y021539D01*
X010853Y021541D01*
X010894Y021639D01*
X010894Y021646D01*
X010939Y021601D01*
X011353Y021601D01*
X011424Y021672D01*
X011424Y022081D01*
X011451Y022109D01*
X011451Y022524D01*
X011381Y022594D01*
X010967Y022594D01*
X010897Y022524D01*
X010897Y022114D01*
X010869Y022086D01*
X010869Y022039D01*
X010817Y022039D01*
X010750Y022039D01*
X010743Y022032D01*
X010743Y022039D01*
X010791Y022039D01*
X010861Y022109D01*
X010861Y022524D01*
X010791Y022594D01*
X010758Y022594D01*
X011539Y023375D01*
X011539Y023508D01*
X011539Y023941D01*
X011539Y024007D01*
X011539Y024008D01*
X011499Y024048D01*
X011349Y024198D01*
X011295Y024251D01*
X011255Y024292D01*
X011188Y024292D01*
X011122Y024292D01*
X010518Y024292D01*
X010548Y024321D01*
X010834Y024608D01*
X010834Y024740D01*
X010834Y025664D01*
X010881Y025664D01*
X010951Y025734D01*
X010951Y025781D01*
X011494Y025781D01*
X011494Y025734D01*
X011564Y025664D01*
X011512Y025716D02*
X010934Y025716D01*
X010834Y025638D02*
X012206Y025638D01*
X012285Y025559D02*
X010834Y025559D01*
X010514Y025559D02*
X010112Y025559D01*
X010116Y025556D02*
X010116Y025556D01*
X010191Y025481D02*
X010514Y025481D01*
X010514Y025402D02*
X010210Y025402D01*
X010275Y025324D02*
X010514Y025324D01*
X010514Y025245D02*
X010321Y025245D01*
X010321Y025167D02*
X010514Y025167D01*
X010514Y025088D02*
X010321Y025088D01*
X010336Y025009D02*
X010514Y025009D01*
X010674Y024674D02*
X010388Y024388D01*
X010529Y024303D02*
X011971Y024303D01*
X011971Y024381D02*
X010607Y024381D01*
X010686Y024460D02*
X011971Y024460D01*
X011971Y024470D02*
X011971Y024214D01*
X011971Y023958D01*
X011971Y023765D01*
X011960Y023747D01*
X011951Y023711D01*
X011951Y023604D01*
X011951Y023674D02*
X011539Y023674D01*
X011539Y023596D02*
X012278Y023596D01*
X012297Y023596D02*
X014396Y023596D01*
X014396Y023674D02*
X014361Y023674D01*
X014361Y023753D02*
X014396Y023753D01*
X014396Y023831D02*
X014361Y023831D01*
X014361Y023910D02*
X014396Y023910D01*
X014396Y023934D02*
X014396Y023181D01*
X014396Y023029D01*
X014466Y022959D01*
X014618Y022959D01*
X014728Y022959D01*
X014880Y022959D01*
X014951Y023029D01*
X014951Y023181D01*
X014951Y023671D01*
X014951Y023672D01*
X014951Y024086D01*
X014951Y024087D01*
X014951Y024478D01*
X014880Y024549D01*
X014466Y024549D01*
X014396Y024478D01*
X014396Y024064D01*
X014397Y024063D01*
X014397Y023936D01*
X014396Y023934D01*
X014397Y023988D02*
X014361Y023988D01*
X014361Y024067D02*
X014396Y024067D01*
X014396Y024145D02*
X014301Y024145D01*
X014396Y024224D02*
X013638Y024224D01*
X013716Y024303D02*
X014396Y024303D01*
X014396Y024381D02*
X013795Y024381D01*
X013873Y024460D02*
X014396Y024460D01*
X014456Y024538D02*
X013952Y024538D01*
X014030Y024617D02*
X014405Y024617D01*
X014404Y024618D02*
X014430Y024592D01*
X014462Y024574D01*
X014497Y024564D01*
X014634Y024564D01*
X014634Y024823D01*
X014376Y024823D01*
X014376Y024686D01*
X014385Y024650D01*
X014404Y024618D01*
X014376Y024695D02*
X014109Y024695D01*
X014187Y024774D02*
X014376Y024774D01*
X014379Y024817D02*
X014379Y024862D01*
X014673Y024862D01*
X014941Y024862D01*
X014971Y024901D02*
X014971Y025038D01*
X014961Y025073D01*
X014943Y025105D01*
X014917Y025131D01*
X014885Y025150D01*
X014849Y025159D01*
X014712Y025159D01*
X014712Y024901D01*
X014634Y024901D01*
X014634Y024823D01*
X014712Y024823D01*
X014712Y024901D01*
X014971Y024901D01*
X014971Y024931D02*
X015359Y024931D01*
X015359Y025009D02*
X014971Y025009D01*
X014953Y025088D02*
X015359Y025088D01*
X015359Y025167D02*
X014469Y025167D01*
X014469Y025324D02*
X015376Y025324D01*
X015359Y025402D02*
X014469Y025402D01*
X014230Y025638D02*
X014153Y025638D01*
X014191Y025629D02*
X014191Y025862D01*
X014673Y025862D01*
X014673Y024862D01*
X014673Y024567D01*
X014712Y024564D02*
X014849Y024564D01*
X014885Y024574D01*
X014917Y024592D01*
X014943Y024618D01*
X014961Y024650D01*
X014971Y024686D01*
X014971Y024823D01*
X014712Y024823D01*
X014712Y024564D01*
X014712Y024617D02*
X014634Y024617D01*
X014634Y024695D02*
X014712Y024695D01*
X014712Y024774D02*
X014634Y024774D01*
X014634Y024852D02*
X014266Y024852D01*
X014345Y024931D02*
X014376Y024931D01*
X014634Y024931D02*
X014712Y024931D01*
X014712Y025009D02*
X014634Y025009D01*
X014634Y025088D02*
X014712Y025088D01*
X014712Y024852D02*
X015359Y024852D01*
X015359Y024774D02*
X014971Y024774D01*
X014971Y024695D02*
X015359Y024695D01*
X015359Y024617D02*
X014941Y024617D01*
X014891Y024538D02*
X015359Y024538D01*
X015359Y024460D02*
X014951Y024460D01*
X014951Y024381D02*
X015381Y024381D01*
X015359Y024224D02*
X014951Y024224D01*
X014951Y024145D02*
X015359Y024145D01*
X015359Y024067D02*
X014951Y024067D01*
X014951Y023988D02*
X015359Y023988D01*
X015359Y023910D02*
X014951Y023910D01*
X014951Y023831D02*
X015359Y023831D01*
X015359Y023753D02*
X014951Y023753D01*
X014951Y023674D02*
X015359Y023674D01*
X015359Y023596D02*
X014951Y023596D01*
X014951Y023517D02*
X015359Y023517D01*
X015359Y023439D02*
X014951Y023439D01*
X014951Y023360D02*
X015359Y023360D01*
X015359Y023281D02*
X014951Y023281D01*
X014951Y023203D02*
X015359Y023203D01*
X015359Y023124D02*
X014951Y023124D01*
X014951Y023046D02*
X015359Y023046D01*
X015420Y022967D02*
X014889Y022967D01*
X014880Y022924D02*
X014466Y022924D01*
X014396Y022853D01*
X014396Y022439D01*
X014416Y022418D01*
X014397Y022399D01*
X014397Y022247D01*
X014397Y022136D01*
X014397Y021984D01*
X014467Y021914D01*
X014619Y021914D01*
X015099Y021914D01*
X015251Y021914D01*
X015322Y021984D01*
X015322Y022136D01*
X015322Y022247D01*
X015322Y022399D01*
X015251Y022469D01*
X015099Y022469D01*
X014951Y022469D01*
X014951Y022853D01*
X014880Y022924D01*
X014915Y022889D02*
X015391Y022889D01*
X015359Y022810D02*
X014951Y022810D01*
X014951Y022732D02*
X015359Y022732D01*
X015359Y022653D02*
X014951Y022653D01*
X014951Y022575D02*
X015359Y022575D01*
X015359Y022496D02*
X014951Y022496D01*
X014674Y022646D02*
X014674Y022191D01*
X014739Y021869D02*
X014461Y021869D01*
X014425Y021860D01*
X014393Y021841D01*
X014367Y021815D01*
X014349Y021783D01*
X014339Y021748D01*
X014339Y021469D01*
X014739Y021469D01*
X014739Y021389D01*
X014819Y021389D01*
X014819Y020989D01*
X015098Y020989D01*
X015133Y020999D01*
X015165Y021017D01*
X015191Y021043D01*
X015210Y021075D01*
X015219Y021111D01*
X015219Y021389D01*
X014819Y021389D01*
X014819Y021469D01*
X015219Y021469D01*
X015219Y021748D01*
X015210Y021783D01*
X015191Y021815D01*
X015165Y021841D01*
X015133Y021860D01*
X015098Y021869D01*
X014819Y021869D01*
X014819Y021469D01*
X014739Y021469D01*
X014739Y021869D01*
X014739Y021868D02*
X014819Y021868D01*
X014817Y021879D02*
X014817Y021429D01*
X015191Y021429D01*
X015219Y021475D02*
X015359Y021475D01*
X015359Y021554D02*
X015219Y021554D01*
X015219Y021632D02*
X015359Y021632D01*
X015359Y021711D02*
X015219Y021711D01*
X015206Y021789D02*
X015359Y021789D01*
X015359Y021868D02*
X015103Y021868D01*
X015284Y021946D02*
X015359Y021946D01*
X015357Y022025D02*
X015322Y022025D01*
X015322Y022103D02*
X015357Y022103D01*
X015357Y022182D02*
X015322Y022182D01*
X015322Y022260D02*
X015357Y022260D01*
X015357Y022339D02*
X015322Y022339D01*
X015303Y022418D02*
X015359Y022418D01*
X015635Y022191D02*
X015779Y022335D01*
X015754Y021429D02*
X015779Y021429D01*
X016199Y021396D02*
X016739Y021396D01*
X016739Y021318D02*
X016819Y021318D01*
X016819Y021239D02*
X016739Y021239D01*
X016739Y021161D02*
X016819Y021161D01*
X016819Y021082D02*
X016739Y021082D01*
X016739Y021004D02*
X016819Y021004D01*
X017142Y021004D02*
X017441Y021004D01*
X017439Y020925D02*
X013519Y020925D01*
X013519Y020989D02*
X013739Y020989D01*
X013739Y021389D01*
X013819Y021389D01*
X013819Y020989D01*
X014098Y020989D01*
X014133Y020999D01*
X014165Y021017D01*
X014191Y021043D01*
X014210Y021075D01*
X014219Y021111D01*
X014219Y021389D01*
X013819Y021389D01*
X013819Y021469D01*
X014219Y021469D01*
X014219Y021748D01*
X014210Y021783D01*
X014191Y021815D01*
X014165Y021841D01*
X014133Y021860D01*
X014098Y021869D01*
X013819Y021869D01*
X013819Y021469D01*
X013739Y021469D01*
X013739Y021389D01*
X013339Y021389D01*
X013339Y021119D01*
X013119Y021119D01*
X013119Y020719D01*
X013519Y020719D01*
X013519Y020989D01*
X013519Y020847D02*
X017308Y020847D01*
X017229Y020768D02*
X013519Y020768D01*
X013519Y020639D02*
X013119Y020639D01*
X013119Y020239D01*
X013398Y020239D01*
X013433Y020249D01*
X013465Y020267D01*
X013491Y020293D01*
X013510Y020325D01*
X013519Y020361D01*
X013519Y020639D01*
X013519Y020611D02*
X017220Y020611D01*
X017219Y020690D02*
X013119Y020690D01*
X013119Y020719D02*
X013119Y020639D01*
X013039Y020639D01*
X013039Y020239D01*
X012761Y020239D01*
X012725Y020249D01*
X012693Y020267D01*
X012667Y020293D01*
X012649Y020325D01*
X012639Y020361D01*
X012639Y020639D01*
X013039Y020639D01*
X013039Y020719D01*
X012639Y020719D01*
X012639Y020998D01*
X012649Y021033D01*
X012667Y021065D01*
X012693Y021091D01*
X012725Y021110D01*
X012761Y021119D01*
X013039Y021119D01*
X013039Y020719D01*
X013119Y020719D01*
X013119Y020768D02*
X013039Y020768D01*
X013039Y020690D02*
X011283Y020690D01*
X011254Y020691D02*
X011754Y020691D01*
X013067Y020691D01*
X013079Y020679D01*
X013629Y020679D01*
X013629Y020879D01*
X014004Y020879D01*
X014004Y020191D01*
X014004Y019691D01*
X014004Y019129D01*
X014004Y018691D01*
X013629Y018691D01*
X013079Y018691D01*
X013067Y018691D01*
X012691Y018691D01*
X012661Y018647D02*
X013039Y018647D01*
X013079Y018679D02*
X013067Y018691D01*
X013067Y018191D01*
X013067Y017691D01*
X012691Y017691D01*
X012661Y017705D02*
X013039Y017705D01*
X013067Y017691D02*
X013067Y017679D01*
X013067Y017191D01*
X013039Y017312D02*
X013119Y017312D01*
X013119Y017391D02*
X013039Y017391D01*
X013039Y017469D02*
X013119Y017469D01*
X013119Y017548D02*
X013039Y017548D01*
X013039Y017626D02*
X013119Y017626D01*
X013079Y017679D02*
X013067Y017691D01*
X013629Y017691D01*
X013519Y017719D02*
X013519Y017998D01*
X013510Y018033D01*
X013491Y018065D01*
X013465Y018091D01*
X013433Y018110D01*
X013398Y018119D01*
X013119Y018119D01*
X013119Y017719D01*
X013519Y017719D01*
X013519Y017783D02*
X017439Y017783D01*
X017439Y017719D02*
X017839Y017719D01*
X017839Y017639D01*
X017919Y017639D01*
X017919Y017239D01*
X018198Y017239D01*
X018233Y017249D01*
X018265Y017267D01*
X018291Y017293D01*
X018310Y017325D01*
X018319Y017361D01*
X018319Y017639D01*
X017919Y017639D01*
X017919Y017719D01*
X018319Y017719D01*
X018319Y017998D01*
X018310Y018033D01*
X018291Y018065D01*
X018265Y018091D01*
X018233Y018110D01*
X018198Y018119D01*
X017919Y018119D01*
X017919Y017719D01*
X017839Y017719D01*
X017839Y018119D01*
X017561Y018119D01*
X017525Y018110D01*
X017493Y018091D01*
X017467Y018065D01*
X017449Y018033D01*
X017439Y017998D01*
X017439Y017719D01*
X017379Y017691D02*
X017879Y017691D01*
X017879Y017679D01*
X017879Y016941D01*
X017567Y016629D01*
X017754Y016629D01*
X018629Y015754D01*
X019629Y015754D01*
X020504Y015754D01*
X021254Y015754D01*
X021254Y016754D01*
X021254Y017754D01*
X021254Y018754D01*
X021254Y019754D01*
X021254Y020754D01*
X021254Y021754D01*
X021254Y022754D01*
X021254Y023754D01*
X021254Y024754D01*
X021254Y025754D01*
X021254Y026754D01*
X021254Y027754D01*
X021254Y028754D01*
X021370Y028780D02*
X016199Y028780D01*
X016199Y028858D02*
X021370Y028858D01*
X021370Y028937D02*
X016199Y028937D01*
X016199Y029015D02*
X021370Y029015D01*
X021370Y029094D02*
X016145Y029094D01*
X016128Y029146D02*
X016199Y029216D01*
X016199Y029312D01*
X016199Y030672D01*
X016199Y031245D01*
X016307Y031245D01*
X016306Y031244D01*
X016267Y031166D01*
X016240Y031083D01*
X016226Y030997D01*
X016226Y030541D01*
X016226Y030085D01*
X016240Y029999D01*
X016267Y029917D01*
X016306Y029839D01*
X016357Y029769D01*
X016419Y029707D01*
X016489Y029656D01*
X016567Y029617D01*
X016649Y029590D01*
X016735Y029576D01*
X016779Y029576D01*
X016779Y030541D01*
X016778Y030541D02*
X016226Y030541D01*
X016778Y030541D01*
X016778Y030541D01*
X016779Y030507D02*
X016779Y030507D01*
X016779Y030429D02*
X016779Y030429D01*
X016779Y030350D02*
X016779Y030350D01*
X016779Y030272D02*
X016779Y030272D01*
X016779Y030193D02*
X016779Y030193D01*
X016779Y030115D02*
X016779Y030115D01*
X016779Y030036D02*
X016779Y030036D01*
X016779Y029958D02*
X016779Y029958D01*
X016779Y029879D02*
X016779Y029879D01*
X016779Y029801D02*
X016779Y029801D01*
X016779Y029722D02*
X016779Y029722D01*
X016779Y029644D02*
X016779Y029644D01*
X017044Y029644D02*
X019281Y029644D01*
X019281Y029722D02*
X017154Y029722D01*
X017223Y029801D02*
X019281Y029801D01*
X019281Y029879D02*
X017272Y029879D01*
X017304Y029958D02*
X019281Y029958D01*
X019281Y030036D02*
X017324Y030036D01*
X017331Y030115D02*
X019281Y030115D01*
X019281Y030193D02*
X017331Y030193D01*
X017331Y030272D02*
X019281Y030272D01*
X019281Y030350D02*
X017331Y030350D01*
X017331Y030429D02*
X019281Y030429D01*
X019281Y030507D02*
X017331Y030507D01*
X017331Y030586D02*
X019281Y030586D01*
X019281Y030665D02*
X017331Y030665D01*
X017331Y030743D02*
X019281Y030743D01*
X019281Y030822D02*
X017331Y030822D01*
X017331Y030900D02*
X019281Y030900D01*
X019281Y029565D02*
X016199Y029565D01*
X016199Y029644D02*
X016514Y029644D01*
X016404Y029722D02*
X016199Y029722D01*
X016199Y029801D02*
X016334Y029801D01*
X016286Y029879D02*
X016199Y029879D01*
X016199Y029958D02*
X016253Y029958D01*
X016234Y030036D02*
X016199Y030036D01*
X016199Y030115D02*
X016226Y030115D01*
X016226Y030193D02*
X016199Y030193D01*
X016199Y030272D02*
X016226Y030272D01*
X016226Y030350D02*
X016199Y030350D01*
X016199Y030429D02*
X016226Y030429D01*
X016226Y030507D02*
X016199Y030507D01*
X016199Y030586D02*
X016226Y030586D01*
X016226Y030665D02*
X016199Y030665D01*
X016199Y030743D02*
X016226Y030743D01*
X016226Y030822D02*
X016199Y030822D01*
X016199Y030900D02*
X016226Y030900D01*
X016226Y030979D02*
X016199Y030979D01*
X016199Y031057D02*
X016236Y031057D01*
X016257Y031136D02*
X016199Y031136D01*
X016199Y031214D02*
X016291Y031214D01*
X015359Y031214D02*
X015266Y031214D01*
X015251Y031244D02*
X015250Y031245D01*
X015359Y031245D01*
X015359Y030672D01*
X015359Y029312D01*
X015359Y029216D01*
X015429Y029146D01*
X016128Y029146D01*
X016155Y029172D02*
X019335Y029172D01*
X019281Y029251D02*
X016199Y029251D01*
X016199Y029329D02*
X019281Y029329D01*
X019281Y029408D02*
X016199Y029408D01*
X016199Y029486D02*
X019281Y029486D01*
X020427Y031214D02*
X017266Y031214D01*
X017301Y031136D02*
X020671Y031136D01*
X020828Y031057D02*
X017322Y031057D01*
X017331Y030979D02*
X020926Y030979D01*
X021102Y030743D02*
X021150Y030743D01*
X021102Y030665D02*
X021204Y030665D01*
X021241Y030586D02*
X021102Y030586D01*
X021102Y030507D02*
X021279Y030507D01*
X021310Y030429D02*
X021102Y030429D01*
X021102Y030350D02*
X021328Y030350D01*
X021346Y030272D02*
X021102Y030272D01*
X021102Y030193D02*
X021363Y030193D01*
X021368Y030115D02*
X021102Y030115D01*
X021102Y030036D02*
X021370Y030036D01*
X021370Y029958D02*
X021102Y029958D01*
X021102Y029879D02*
X021370Y029879D01*
X021370Y029801D02*
X021102Y029801D01*
X021102Y029722D02*
X021370Y029722D01*
X021370Y029644D02*
X021102Y029644D01*
X021102Y029565D02*
X021370Y029565D01*
X021370Y029486D02*
X021102Y029486D01*
X021102Y029408D02*
X021370Y029408D01*
X021370Y029329D02*
X021102Y029329D01*
X021102Y029251D02*
X021370Y029251D01*
X021370Y029172D02*
X021048Y029172D01*
X021370Y028701D02*
X016199Y028701D01*
X016199Y028622D02*
X021370Y028622D01*
X021370Y028544D02*
X016199Y028544D01*
X016199Y028465D02*
X021370Y028465D01*
X021370Y028387D02*
X016199Y028387D01*
X016199Y028308D02*
X021370Y028308D01*
X021370Y028230D02*
X016199Y028230D01*
X016199Y028151D02*
X021370Y028151D01*
X021370Y028073D02*
X016199Y028073D01*
X016199Y027994D02*
X021370Y027994D01*
X021370Y027916D02*
X016199Y027916D01*
X016199Y027837D02*
X021370Y027837D01*
X021370Y027758D02*
X016199Y027758D01*
X016199Y027680D02*
X021370Y027680D01*
X021370Y027601D02*
X016199Y027601D01*
X016181Y027523D02*
X021370Y027523D01*
X021370Y027444D02*
X016204Y027444D01*
X016219Y027366D02*
X021370Y027366D01*
X021370Y027287D02*
X016219Y027287D01*
X016219Y027130D02*
X021370Y027130D01*
X021370Y027052D02*
X016219Y027052D01*
X016216Y026973D02*
X021370Y026973D01*
X021370Y026894D02*
X016170Y026894D01*
X016199Y026816D02*
X021370Y026816D01*
X021370Y026737D02*
X016199Y026737D01*
X016199Y026659D02*
X021370Y026659D01*
X021370Y026580D02*
X016199Y026580D01*
X016199Y026502D02*
X021370Y026502D01*
X021370Y026423D02*
X016199Y026423D01*
X016199Y026345D02*
X016283Y026345D01*
X016268Y026336D02*
X016242Y026310D01*
X016224Y026278D01*
X016214Y026242D01*
X016214Y026105D01*
X016473Y026105D01*
X016473Y026028D01*
X016214Y026028D01*
X016214Y025891D01*
X016224Y025855D01*
X016242Y025823D01*
X016268Y025797D01*
X016300Y025779D01*
X016336Y025769D01*
X016473Y025769D01*
X016473Y026028D01*
X016551Y026028D01*
X016551Y026105D01*
X016809Y026105D01*
X016809Y026242D01*
X016800Y026278D01*
X016781Y026310D01*
X016755Y026336D01*
X016723Y026354D01*
X016688Y026364D01*
X016551Y026364D01*
X016551Y026106D01*
X016473Y026106D01*
X016473Y026364D01*
X016336Y026364D01*
X016300Y026354D01*
X016268Y026336D01*
X016221Y026266D02*
X016199Y026266D01*
X016199Y026188D02*
X016214Y026188D01*
X016214Y026109D02*
X016199Y026109D01*
X016254Y026067D02*
X016504Y026067D01*
X016504Y023637D01*
X016496Y023629D01*
X016504Y023637D02*
X016512Y023629D01*
X016512Y023387D01*
X016473Y023360D02*
X016551Y023360D01*
X016551Y023439D02*
X016473Y023439D01*
X016473Y023517D02*
X016551Y023517D01*
X016551Y023596D02*
X021370Y023596D01*
X021370Y023674D02*
X016809Y023674D01*
X016809Y023753D02*
X021370Y023753D01*
X021370Y023831D02*
X016802Y023831D01*
X016735Y023910D02*
X021370Y023910D01*
X021370Y024303D02*
X014951Y024303D01*
X014674Y024271D02*
X014673Y024271D01*
X014674Y024271D02*
X014674Y023879D01*
X014673Y023879D01*
X014396Y023517D02*
X012624Y023517D01*
X012613Y023439D02*
X014396Y023439D01*
X014396Y023360D02*
X012604Y023360D01*
X012604Y023281D02*
X014396Y023281D01*
X014396Y023203D02*
X012623Y023203D01*
X012624Y023124D02*
X014396Y023124D01*
X014396Y023046D02*
X012624Y023046D01*
X012624Y022967D02*
X014458Y022967D01*
X014431Y022889D02*
X012604Y022889D01*
X012604Y022810D02*
X014396Y022810D01*
X014396Y022732D02*
X012604Y022732D01*
X012579Y022653D02*
X014396Y022653D01*
X014396Y022575D02*
X011897Y022575D01*
X011897Y022653D02*
X011996Y022653D01*
X011971Y022732D02*
X011897Y022732D01*
X011897Y022810D02*
X011971Y022810D01*
X011971Y022889D02*
X011897Y022889D01*
X011897Y022967D02*
X011951Y022967D01*
X011951Y023046D02*
X011897Y023046D01*
X011913Y023124D02*
X011951Y023124D01*
X012004Y023108D02*
X013254Y023108D01*
X013254Y023567D01*
X013481Y024067D02*
X013806Y024067D01*
X013866Y024145D02*
X013559Y024145D01*
X013319Y024132D02*
X012333Y024132D01*
X012287Y024106D01*
X012333Y023879D02*
X012333Y023876D01*
X012333Y023879D02*
X014083Y023879D01*
X013806Y023674D02*
X012624Y023674D01*
X012333Y023364D02*
X012315Y023364D01*
X012287Y023339D01*
X012315Y023364D02*
X011927Y023364D01*
X011737Y023174D01*
X011737Y021879D01*
X011737Y021612D01*
X011504Y021379D01*
X010317Y021379D01*
X009379Y020441D01*
X009379Y015678D01*
X009165Y015465D01*
X009165Y015093D01*
X009191Y015067D01*
X009629Y015379D02*
X009629Y016277D01*
X009668Y016317D01*
X009539Y016581D02*
X009539Y020375D01*
X009739Y020575D01*
X009739Y020309D01*
X009809Y020239D01*
X009844Y020239D01*
X009844Y016581D01*
X009539Y016581D01*
X009539Y016605D02*
X009844Y016605D01*
X009844Y016684D02*
X009539Y016684D01*
X009539Y016762D02*
X009844Y016762D01*
X009844Y016841D02*
X009539Y016841D01*
X009539Y016919D02*
X009844Y016919D01*
X009844Y016998D02*
X009539Y016998D01*
X009539Y017077D02*
X009844Y017077D01*
X009844Y017155D02*
X009539Y017155D01*
X009539Y017234D02*
X009844Y017234D01*
X009844Y017312D02*
X009539Y017312D01*
X009539Y017391D02*
X009844Y017391D01*
X009844Y017469D02*
X009539Y017469D01*
X009539Y017548D02*
X009844Y017548D01*
X009844Y017626D02*
X009539Y017626D01*
X009539Y017705D02*
X009844Y017705D01*
X009844Y017783D02*
X009539Y017783D01*
X009539Y017862D02*
X009844Y017862D01*
X009844Y017941D02*
X009539Y017941D01*
X009539Y018019D02*
X009844Y018019D01*
X009844Y018098D02*
X009539Y018098D01*
X009539Y018176D02*
X009844Y018176D01*
X009844Y018255D02*
X009539Y018255D01*
X009539Y018333D02*
X009844Y018333D01*
X009844Y018412D02*
X009539Y018412D01*
X009539Y018490D02*
X009844Y018490D01*
X009844Y018569D02*
X009539Y018569D01*
X009539Y018647D02*
X009844Y018647D01*
X009844Y018726D02*
X009539Y018726D01*
X009539Y018805D02*
X009844Y018805D01*
X009844Y018883D02*
X009539Y018883D01*
X009539Y018962D02*
X009844Y018962D01*
X009844Y019040D02*
X009539Y019040D01*
X009539Y019119D02*
X009844Y019119D01*
X009844Y019197D02*
X009539Y019197D01*
X009539Y019276D02*
X009844Y019276D01*
X009844Y019354D02*
X009539Y019354D01*
X009539Y019433D02*
X009844Y019433D01*
X009844Y019511D02*
X009539Y019511D01*
X009539Y019590D02*
X009844Y019590D01*
X009844Y019669D02*
X009539Y019669D01*
X009539Y019747D02*
X009844Y019747D01*
X009844Y019826D02*
X009539Y019826D01*
X009539Y019904D02*
X009844Y019904D01*
X009844Y019983D02*
X009539Y019983D01*
X009539Y020061D02*
X009844Y020061D01*
X009844Y020140D02*
X009539Y020140D01*
X009539Y020218D02*
X009844Y020218D01*
X009751Y020297D02*
X009539Y020297D01*
X009539Y020375D02*
X009739Y020375D01*
X009739Y020454D02*
X009618Y020454D01*
X009696Y020532D02*
X009739Y020532D01*
X010004Y020504D02*
X010567Y021067D01*
X011254Y021067D01*
X011590Y021082D02*
X011917Y021082D01*
X011917Y021004D02*
X011590Y021004D01*
X011590Y020925D02*
X011917Y020925D01*
X011917Y020879D02*
X011988Y020809D01*
X012520Y020809D01*
X012590Y020879D01*
X012590Y021254D01*
X012520Y021325D01*
X011988Y021325D01*
X011917Y021254D01*
X011917Y020879D01*
X011950Y020847D02*
X011610Y020847D01*
X011610Y020768D02*
X012639Y020768D01*
X012639Y020847D02*
X012558Y020847D01*
X012590Y020925D02*
X012639Y020925D01*
X012641Y021004D02*
X012590Y021004D01*
X012590Y021082D02*
X012684Y021082D01*
X012590Y021161D02*
X013339Y021161D01*
X013339Y021239D02*
X012590Y021239D01*
X012527Y021318D02*
X013339Y021318D01*
X013339Y021469D02*
X013739Y021469D01*
X013739Y021869D01*
X013461Y021869D01*
X013425Y021860D01*
X013393Y021841D01*
X013367Y021815D01*
X013349Y021783D01*
X013339Y021748D01*
X013339Y021469D01*
X013339Y021475D02*
X011826Y021475D01*
X011897Y021546D02*
X011897Y021546D01*
X011897Y021546D01*
X011897Y021554D02*
X013339Y021554D01*
X013339Y021632D02*
X011975Y021632D01*
X012014Y021711D02*
X013339Y021711D01*
X013352Y021789D02*
X012014Y021789D01*
X012014Y021868D02*
X013456Y021868D01*
X013079Y022191D02*
X013079Y021254D01*
X013079Y020679D01*
X013067Y020691D02*
X012879Y020879D01*
X013039Y020847D02*
X013119Y020847D01*
X013119Y020925D02*
X013039Y020925D01*
X013039Y021004D02*
X013119Y021004D01*
X013119Y021082D02*
X013039Y021082D01*
X013079Y021254D02*
X013191Y021254D01*
X013191Y021429D01*
X013779Y021429D01*
X013779Y021004D01*
X013754Y021004D01*
X013739Y021004D02*
X013819Y021004D01*
X013819Y021082D02*
X013739Y021082D01*
X013739Y021161D02*
X013819Y021161D01*
X013819Y021239D02*
X013739Y021239D01*
X013739Y021318D02*
X013819Y021318D01*
X013819Y021396D02*
X014739Y021396D01*
X014739Y021389D02*
X014339Y021389D01*
X014339Y021111D01*
X014349Y021075D01*
X014367Y021043D01*
X014393Y021017D01*
X014425Y020999D01*
X014461Y020989D01*
X014739Y020989D01*
X014739Y021389D01*
X014779Y021429D02*
X014817Y021429D01*
X014819Y021396D02*
X015359Y021396D01*
X015359Y021318D02*
X015219Y021318D01*
X015219Y021239D02*
X015359Y021239D01*
X015359Y021161D02*
X015219Y021161D01*
X015211Y021082D02*
X015359Y021082D01*
X015142Y021004D02*
X016416Y021004D01*
X016347Y021082D02*
X016199Y021082D01*
X016199Y021161D02*
X016339Y021161D01*
X016339Y021239D02*
X016199Y021239D01*
X016199Y021318D02*
X016339Y021318D01*
X017219Y021318D02*
X021370Y021318D01*
X021370Y021239D02*
X017219Y021239D01*
X017219Y021161D02*
X021370Y021161D01*
X021370Y021082D02*
X018274Y021082D01*
X018317Y021004D02*
X021370Y021004D01*
X021370Y020925D02*
X018319Y020925D01*
X018319Y020847D02*
X021370Y020847D01*
X021370Y020768D02*
X018319Y020768D01*
X018254Y020691D02*
X017879Y020691D01*
X017879Y020679D01*
X017879Y020191D01*
X017879Y019691D01*
X017879Y019191D01*
X017879Y018691D01*
X017879Y018679D01*
X017879Y018191D01*
X017879Y017691D01*
X018004Y017691D01*
X018254Y017691D01*
X018319Y017626D02*
X018364Y017626D01*
X018364Y017699D02*
X018364Y017309D01*
X018434Y017239D01*
X018823Y017239D01*
X018894Y017309D01*
X018894Y017699D01*
X018823Y017769D01*
X018434Y017769D01*
X018364Y017699D01*
X018370Y017705D02*
X017919Y017705D01*
X017879Y017679D02*
X018004Y017691D01*
X017919Y017626D02*
X017839Y017626D01*
X017839Y017639D02*
X017839Y017239D01*
X017561Y017239D01*
X017525Y017249D01*
X017493Y017267D01*
X017467Y017293D01*
X017449Y017325D01*
X017439Y017361D01*
X017439Y017639D01*
X017839Y017639D01*
X017839Y017705D02*
X013119Y017705D01*
X013079Y017679D02*
X013067Y017679D01*
X013039Y017783D02*
X013119Y017783D01*
X013119Y017862D02*
X013039Y017862D01*
X013039Y017941D02*
X013119Y017941D01*
X013119Y018019D02*
X013039Y018019D01*
X013039Y018098D02*
X013119Y018098D01*
X013119Y018255D02*
X013039Y018255D01*
X013039Y018333D02*
X013119Y018333D01*
X013119Y018412D02*
X013039Y018412D01*
X013039Y018490D02*
X013119Y018490D01*
X013119Y018569D02*
X013039Y018569D01*
X013119Y018647D02*
X017219Y018647D01*
X017219Y018612D02*
X017312Y018519D01*
X017439Y018519D01*
X017439Y018361D01*
X017449Y018325D01*
X017467Y018293D01*
X017493Y018267D01*
X017525Y018249D01*
X017561Y018239D01*
X017839Y018239D01*
X017839Y018639D01*
X017919Y018639D01*
X017919Y018239D01*
X018198Y018239D01*
X018233Y018249D01*
X018265Y018267D01*
X018291Y018293D01*
X018310Y018325D01*
X018319Y018361D01*
X018319Y018639D01*
X017919Y018639D01*
X017919Y018719D01*
X018319Y018719D01*
X018319Y018998D01*
X018310Y019033D01*
X018291Y019065D01*
X018265Y019091D01*
X018233Y019110D01*
X018198Y019119D01*
X017919Y019119D01*
X017919Y018719D01*
X017839Y018719D01*
X017839Y019119D01*
X017561Y019119D01*
X017525Y019110D01*
X017493Y019091D01*
X017467Y019065D01*
X017449Y019033D01*
X017439Y018998D01*
X017439Y018851D01*
X017312Y018851D01*
X017219Y018758D01*
X017219Y018612D01*
X017262Y018569D02*
X013519Y018569D01*
X013519Y018490D02*
X017439Y018490D01*
X017439Y018412D02*
X013519Y018412D01*
X013512Y018333D02*
X017446Y018333D01*
X017515Y018255D02*
X013444Y018255D01*
X013454Y018098D02*
X017504Y018098D01*
X017445Y018019D02*
X013513Y018019D01*
X013519Y017941D02*
X017439Y017941D01*
X017439Y017862D02*
X013519Y017862D01*
X013519Y017626D02*
X017439Y017626D01*
X017439Y017548D02*
X013519Y017548D01*
X013519Y017469D02*
X017439Y017469D01*
X017439Y017391D02*
X013519Y017391D01*
X013502Y017312D02*
X017456Y017312D01*
X017448Y017069D02*
X017169Y017069D01*
X017169Y016669D01*
X017569Y016669D01*
X017569Y016948D01*
X017560Y016983D01*
X017541Y017015D01*
X017515Y017041D01*
X017483Y017060D01*
X017448Y017069D01*
X017551Y016998D02*
X021370Y016998D01*
X021370Y016919D02*
X017569Y016919D01*
X017569Y016841D02*
X021370Y016841D01*
X021370Y016762D02*
X017569Y016762D01*
X017569Y016684D02*
X021370Y016684D01*
X021370Y016605D02*
X017169Y016605D01*
X017169Y016589D02*
X017169Y016669D01*
X017089Y016669D01*
X017089Y016589D01*
X017169Y016589D01*
X017169Y016189D01*
X017448Y016189D01*
X017483Y016199D01*
X017515Y016217D01*
X017541Y016243D01*
X017560Y016275D01*
X017569Y016311D01*
X017569Y016589D01*
X017169Y016589D01*
X017129Y016629D02*
X017567Y016629D01*
X017569Y016527D02*
X021370Y016527D01*
X021370Y016448D02*
X017569Y016448D01*
X017569Y016370D02*
X021370Y016370D01*
X021370Y016291D02*
X017564Y016291D01*
X017507Y016213D02*
X021370Y016213D01*
X021370Y016134D02*
X015394Y016134D01*
X015394Y016056D02*
X021370Y016056D01*
X021370Y015977D02*
X015394Y015977D01*
X015358Y015898D02*
X021370Y015898D01*
X021370Y015820D02*
X011969Y015820D01*
X011969Y015898D02*
X014900Y015898D01*
X014864Y015977D02*
X011969Y015977D01*
X011969Y016056D02*
X014864Y016056D01*
X015129Y016129D02*
X015129Y016629D01*
X015482Y016213D02*
X015751Y016213D01*
X015743Y016217D02*
X015775Y016199D01*
X015811Y016189D01*
X016089Y016189D01*
X016089Y016589D01*
X016169Y016589D01*
X016169Y016189D01*
X016448Y016189D01*
X016483Y016199D01*
X016515Y016217D01*
X016541Y016243D01*
X016560Y016275D01*
X016569Y016311D01*
X016569Y016589D01*
X016169Y016589D01*
X016169Y016669D01*
X016569Y016669D01*
X016569Y016948D01*
X016560Y016983D01*
X016541Y017015D01*
X016515Y017041D01*
X016483Y017060D01*
X016448Y017069D01*
X016169Y017069D01*
X016169Y016669D01*
X016089Y016669D01*
X016089Y016589D01*
X015689Y016589D01*
X015689Y016311D01*
X015699Y016275D01*
X015717Y016243D01*
X015743Y016217D01*
X015694Y016291D02*
X015549Y016291D01*
X015549Y016370D02*
X015689Y016370D01*
X015689Y016448D02*
X015549Y016448D01*
X015549Y016527D02*
X015689Y016527D01*
X015689Y016669D02*
X016089Y016669D01*
X016089Y017069D01*
X015811Y017069D01*
X015775Y017060D01*
X015743Y017041D01*
X015717Y017015D01*
X015699Y016983D01*
X015689Y016948D01*
X015689Y016669D01*
X015689Y016684D02*
X015549Y016684D01*
X015549Y016762D02*
X015689Y016762D01*
X015689Y016841D02*
X015549Y016841D01*
X015549Y016919D02*
X015689Y016919D01*
X015707Y016998D02*
X015530Y016998D01*
X015549Y016605D02*
X016089Y016605D01*
X016129Y016629D02*
X016129Y016191D01*
X016089Y016213D02*
X016169Y016213D01*
X016169Y016291D02*
X016089Y016291D01*
X016089Y016370D02*
X016169Y016370D01*
X016169Y016448D02*
X016089Y016448D01*
X016089Y016527D02*
X016169Y016527D01*
X016169Y016605D02*
X017089Y016605D01*
X017089Y016589D02*
X016689Y016589D01*
X016689Y016311D01*
X016699Y016275D01*
X016717Y016243D01*
X016743Y016217D01*
X016775Y016199D01*
X016811Y016189D01*
X017089Y016189D01*
X017089Y016589D01*
X017129Y016629D02*
X017129Y016191D01*
X017089Y016213D02*
X017169Y016213D01*
X017169Y016291D02*
X017089Y016291D01*
X017089Y016370D02*
X017169Y016370D01*
X017169Y016448D02*
X017089Y016448D01*
X017089Y016527D02*
X017169Y016527D01*
X017129Y016629D02*
X017129Y017129D01*
X017089Y017069D02*
X017089Y016669D01*
X016689Y016669D01*
X016689Y016948D01*
X016699Y016983D01*
X016717Y017015D01*
X016743Y017041D01*
X016775Y017060D01*
X016811Y017069D01*
X017089Y017069D01*
X017089Y016998D02*
X017169Y016998D01*
X017169Y016919D02*
X017089Y016919D01*
X017089Y016841D02*
X017169Y016841D01*
X017169Y016762D02*
X017089Y016762D01*
X017089Y016684D02*
X017169Y016684D01*
X017129Y016629D02*
X016629Y016629D01*
X016129Y016629D01*
X016129Y017129D01*
X016089Y016998D02*
X016169Y016998D01*
X016169Y016919D02*
X016089Y016919D01*
X016089Y016841D02*
X016169Y016841D01*
X016169Y016762D02*
X016089Y016762D01*
X016089Y016684D02*
X016169Y016684D01*
X016569Y016684D02*
X016689Y016684D01*
X016689Y016762D02*
X016569Y016762D01*
X016569Y016841D02*
X016689Y016841D01*
X016689Y016919D02*
X016569Y016919D01*
X016551Y016998D02*
X016707Y016998D01*
X016689Y016527D02*
X016569Y016527D01*
X016569Y016448D02*
X016689Y016448D01*
X016689Y016370D02*
X016569Y016370D01*
X016564Y016291D02*
X016694Y016291D01*
X016751Y016213D02*
X016507Y016213D01*
X015379Y015191D02*
X015754Y014817D01*
X015754Y014532D01*
X015844Y014441D01*
X017129Y014441D01*
X017629Y014941D01*
X017879Y015379D02*
X011757Y015379D01*
X011291Y014913D01*
X010538Y014913D01*
X009997Y014372D01*
X009997Y014254D01*
X009629Y015379D02*
X010441Y015379D01*
X010629Y015567D01*
X010629Y015941D01*
X010288Y016306D02*
X010359Y016376D01*
X010899Y016376D01*
X010969Y016376D01*
X010969Y016750D01*
X010469Y017250D01*
X010469Y017383D01*
X010469Y020000D01*
X010469Y020000D01*
X010469Y020066D01*
X010469Y020133D01*
X010469Y020133D01*
X010518Y020182D01*
X010562Y020226D01*
X010563Y020226D01*
X010764Y020428D01*
X010813Y020477D01*
X010813Y020477D01*
X010813Y020477D01*
X010880Y020477D01*
X010917Y020477D01*
X010917Y020482D01*
X010907Y020500D01*
X010897Y020535D01*
X010897Y020663D01*
X011225Y020663D01*
X011225Y020721D01*
X010897Y020721D01*
X010897Y020848D01*
X010907Y020884D01*
X010917Y020902D01*
X010917Y020907D01*
X010633Y020907D01*
X010269Y020543D01*
X010269Y020309D01*
X010199Y020239D01*
X010164Y020239D01*
X010164Y016206D01*
X010199Y016206D01*
X010269Y016136D01*
X010269Y015747D01*
X010199Y015676D01*
X009809Y015676D01*
X009789Y015697D01*
X009789Y015644D01*
X009823Y015644D01*
X009894Y015573D01*
X009894Y015539D01*
X010326Y015539D01*
X010288Y015577D01*
X010288Y016306D01*
X010288Y016291D02*
X010164Y016291D01*
X010164Y016213D02*
X010288Y016213D01*
X010288Y016134D02*
X010269Y016134D01*
X010269Y016056D02*
X010288Y016056D01*
X010288Y015977D02*
X010269Y015977D01*
X010269Y015898D02*
X010288Y015898D01*
X010288Y015820D02*
X010269Y015820D01*
X010264Y015741D02*
X010288Y015741D01*
X010288Y015663D02*
X009789Y015663D01*
X009883Y015584D02*
X010288Y015584D01*
X010004Y015941D02*
X010004Y020504D01*
X010269Y020532D02*
X010898Y020532D01*
X010897Y020611D02*
X010337Y020611D01*
X010416Y020690D02*
X011225Y020690D01*
X011254Y020691D02*
X011254Y020692D01*
X011254Y020691D02*
X010879Y020691D01*
X010897Y020768D02*
X010494Y020768D01*
X010573Y020847D02*
X010897Y020847D01*
X010790Y020454D02*
X010269Y020454D01*
X010269Y020375D02*
X010712Y020375D01*
X010633Y020297D02*
X010257Y020297D01*
X010164Y020218D02*
X010554Y020218D01*
X010476Y020140D02*
X010164Y020140D01*
X010164Y020061D02*
X010469Y020061D01*
X010469Y020133D02*
X010469Y020133D01*
X010469Y019983D02*
X010164Y019983D01*
X010164Y019904D02*
X010469Y019904D01*
X010469Y019826D02*
X010164Y019826D01*
X010164Y019747D02*
X010469Y019747D01*
X010469Y019669D02*
X010164Y019669D01*
X010164Y019590D02*
X010469Y019590D01*
X010469Y019511D02*
X010164Y019511D01*
X010164Y019433D02*
X010469Y019433D01*
X010469Y019354D02*
X010164Y019354D01*
X010164Y019276D02*
X010469Y019276D01*
X010469Y019197D02*
X010164Y019197D01*
X010164Y019119D02*
X010469Y019119D01*
X010469Y019040D02*
X010164Y019040D01*
X010164Y018962D02*
X010469Y018962D01*
X010469Y018883D02*
X010164Y018883D01*
X010164Y018805D02*
X010469Y018805D01*
X010469Y018726D02*
X010164Y018726D01*
X010164Y018647D02*
X010469Y018647D01*
X010469Y018569D02*
X010164Y018569D01*
X010164Y018490D02*
X010469Y018490D01*
X010469Y018412D02*
X010164Y018412D01*
X010164Y018333D02*
X010469Y018333D01*
X010469Y018255D02*
X010164Y018255D01*
X010164Y018176D02*
X010469Y018176D01*
X010469Y018098D02*
X010164Y018098D01*
X010164Y018019D02*
X010469Y018019D01*
X010469Y017941D02*
X010164Y017941D01*
X010164Y017862D02*
X010469Y017862D01*
X010469Y017783D02*
X010164Y017783D01*
X010164Y017705D02*
X010469Y017705D01*
X010469Y017626D02*
X010164Y017626D01*
X010164Y017548D02*
X010469Y017548D01*
X010469Y017469D02*
X010164Y017469D01*
X010164Y017391D02*
X010469Y017391D01*
X010469Y017312D02*
X010164Y017312D01*
X010164Y017234D02*
X010485Y017234D01*
X010564Y017155D02*
X010164Y017155D01*
X010164Y017077D02*
X010642Y017077D01*
X010721Y016998D02*
X010164Y016998D01*
X010164Y016919D02*
X010799Y016919D01*
X010878Y016841D02*
X010164Y016841D01*
X010164Y016762D02*
X010957Y016762D01*
X010969Y016684D02*
X010164Y016684D01*
X010164Y016605D02*
X010969Y016605D01*
X010969Y016527D02*
X010164Y016527D01*
X010164Y016448D02*
X010969Y016448D01*
X011129Y016817D02*
X011129Y015941D01*
X011289Y016448D02*
X013689Y016448D01*
X013689Y016370D02*
X011905Y016370D01*
X011969Y015741D02*
X021370Y015741D01*
X021370Y015663D02*
X011969Y015663D01*
X011969Y015584D02*
X021370Y015584D01*
X021370Y015506D02*
X017978Y015506D01*
X017945Y015539D02*
X017945Y015539D01*
X017945Y015539D01*
X017879Y015379D02*
X018129Y015129D01*
X018129Y012504D01*
X017657Y012913D02*
X017657Y011879D01*
X016817Y012441D02*
X017129Y012754D01*
X017129Y013441D01*
X016629Y013941D01*
X016220Y013351D02*
X016629Y012941D01*
X016817Y012441D02*
X015879Y012441D01*
X015441Y012879D01*
X014754Y012879D01*
X014941Y013351D02*
X015754Y013351D01*
X016220Y013351D01*
X015379Y015191D02*
X012374Y015191D01*
X011983Y014800D01*
X012941Y014691D02*
X012941Y014317D01*
X012941Y014691D02*
X013067Y014817D01*
X013817Y014817D01*
X013941Y014941D01*
X014817Y014941D01*
X014941Y014817D01*
X014941Y014532D01*
X013941Y014691D02*
X013941Y014317D01*
X013941Y014691D02*
X013817Y014817D01*
X013689Y016527D02*
X011289Y016527D01*
X011289Y016605D02*
X014089Y016605D01*
X013689Y016684D02*
X011289Y016684D01*
X011289Y016762D02*
X013689Y016762D01*
X013689Y016841D02*
X011289Y016841D01*
X011252Y016919D02*
X013689Y016919D01*
X013707Y016998D02*
X011173Y016998D01*
X011095Y017077D02*
X021370Y017077D01*
X021370Y017155D02*
X011016Y017155D01*
X010938Y017234D02*
X021370Y017234D01*
X021370Y017312D02*
X018894Y017312D01*
X018894Y017391D02*
X021370Y017391D01*
X021370Y017469D02*
X018894Y017469D01*
X018894Y017548D02*
X021370Y017548D01*
X021370Y017626D02*
X018894Y017626D01*
X018887Y017705D02*
X021370Y017705D01*
X021370Y017783D02*
X018319Y017783D01*
X018319Y017862D02*
X021370Y017862D01*
X021370Y017941D02*
X018319Y017941D01*
X018313Y018019D02*
X021370Y018019D01*
X021370Y018098D02*
X018254Y018098D01*
X018244Y018255D02*
X021370Y018255D01*
X021370Y018333D02*
X018312Y018333D01*
X018319Y018412D02*
X021370Y018412D01*
X021370Y018490D02*
X018319Y018490D01*
X018319Y018569D02*
X021370Y018569D01*
X021370Y018647D02*
X017919Y018647D01*
X017879Y018679D02*
X017379Y018679D01*
X017379Y018691D01*
X017266Y018805D02*
X013519Y018805D01*
X013519Y018883D02*
X017439Y018883D01*
X017439Y018962D02*
X013519Y018962D01*
X013519Y018998D02*
X013510Y019033D01*
X013491Y019065D01*
X013465Y019091D01*
X013433Y019110D01*
X013398Y019119D01*
X013119Y019119D01*
X013119Y018719D01*
X013519Y018719D01*
X013519Y018998D01*
X013506Y019040D02*
X017453Y019040D01*
X017559Y019119D02*
X013399Y019119D01*
X013445Y019276D02*
X017484Y019276D01*
X017441Y019354D02*
X013499Y019354D01*
X013499Y019433D02*
X017439Y019433D01*
X017439Y019511D02*
X013499Y019511D01*
X013499Y019590D02*
X017439Y019590D01*
X017379Y019691D02*
X017879Y019691D01*
X018254Y019691D01*
X018319Y019590D02*
X021370Y019590D01*
X021370Y019511D02*
X018319Y019511D01*
X018319Y019433D02*
X021370Y019433D01*
X021370Y019354D02*
X018317Y019354D01*
X018274Y019276D02*
X021370Y019276D01*
X021370Y019197D02*
X012661Y019197D01*
X012661Y019276D02*
X012713Y019276D01*
X012759Y019119D02*
X012641Y019119D01*
X012653Y019040D02*
X012615Y019040D01*
X013039Y019040D02*
X013119Y019040D01*
X013119Y018962D02*
X013039Y018962D01*
X013039Y018883D02*
X013119Y018883D01*
X013119Y018805D02*
X013039Y018805D01*
X013039Y018726D02*
X013119Y018726D01*
X013079Y018691D02*
X013079Y018679D01*
X013039Y019119D02*
X013119Y019119D01*
X013499Y019747D02*
X017439Y019747D01*
X017439Y019719D02*
X017839Y019719D01*
X017839Y020119D01*
X017561Y020119D01*
X017525Y020110D01*
X017493Y020091D01*
X017467Y020065D01*
X017449Y020033D01*
X017439Y019998D01*
X017439Y019719D01*
X017439Y019826D02*
X013499Y019826D01*
X013499Y019904D02*
X017439Y019904D01*
X017439Y019983D02*
X013499Y019983D01*
X013467Y020061D02*
X017465Y020061D01*
X017465Y020297D02*
X013493Y020297D01*
X013519Y020375D02*
X017439Y020375D01*
X017439Y020454D02*
X013519Y020454D01*
X013519Y020532D02*
X017299Y020532D01*
X017379Y020679D02*
X017379Y020691D01*
X017379Y020679D01*
X017879Y020679D01*
X017839Y020611D02*
X017919Y020611D01*
X017919Y020532D02*
X017839Y020532D01*
X017839Y020454D02*
X017919Y020454D01*
X017919Y020375D02*
X017839Y020375D01*
X017839Y020297D02*
X017919Y020297D01*
X017919Y020061D02*
X017839Y020061D01*
X017839Y019983D02*
X017919Y019983D01*
X017919Y019904D02*
X017839Y019904D01*
X017839Y019826D02*
X017919Y019826D01*
X017919Y019747D02*
X017839Y019747D01*
X017839Y019511D02*
X017919Y019511D01*
X017919Y019433D02*
X017839Y019433D01*
X017839Y019354D02*
X017919Y019354D01*
X017919Y019276D02*
X017839Y019276D01*
X017839Y019119D02*
X017919Y019119D01*
X017919Y019040D02*
X017839Y019040D01*
X017839Y018962D02*
X017919Y018962D01*
X017919Y018883D02*
X017839Y018883D01*
X017839Y018805D02*
X017919Y018805D01*
X017919Y018726D02*
X017839Y018726D01*
X017879Y018691D02*
X018254Y018691D01*
X018319Y018726D02*
X021370Y018726D01*
X021370Y018805D02*
X018319Y018805D01*
X018319Y018883D02*
X021370Y018883D01*
X021370Y018962D02*
X018319Y018962D01*
X018306Y019040D02*
X021370Y019040D01*
X021370Y019119D02*
X018199Y019119D01*
X017919Y018569D02*
X017839Y018569D01*
X017839Y018490D02*
X017919Y018490D01*
X017919Y018412D02*
X017839Y018412D01*
X017839Y018333D02*
X017919Y018333D01*
X017919Y018255D02*
X017839Y018255D01*
X017839Y018098D02*
X017919Y018098D01*
X017919Y018019D02*
X017839Y018019D01*
X017839Y017941D02*
X017919Y017941D01*
X017919Y017862D02*
X017839Y017862D01*
X017839Y017783D02*
X017919Y017783D01*
X017919Y017548D02*
X017839Y017548D01*
X017839Y017469D02*
X017919Y017469D01*
X017919Y017391D02*
X017839Y017391D01*
X017839Y017312D02*
X017919Y017312D01*
X018302Y017312D02*
X018364Y017312D01*
X018364Y017391D02*
X018319Y017391D01*
X018319Y017469D02*
X018364Y017469D01*
X018364Y017548D02*
X018319Y017548D01*
X017219Y018726D02*
X013519Y018726D01*
X012715Y018255D02*
X012652Y018255D01*
X012604Y018176D02*
X021370Y018176D01*
X021370Y020140D02*
X012590Y020140D01*
X012590Y020218D02*
X021370Y020218D01*
X017919Y020768D02*
X017839Y020768D01*
X017839Y020847D02*
X017919Y020847D01*
X017919Y020925D02*
X017839Y020925D01*
X017839Y021004D02*
X017919Y021004D01*
X017919Y021082D02*
X017839Y021082D01*
X017484Y021082D02*
X017211Y021082D01*
X016268Y023360D02*
X016199Y023360D01*
X016199Y023439D02*
X016218Y023439D01*
X016214Y023517D02*
X016199Y023517D01*
X016199Y023596D02*
X016473Y023596D01*
X016473Y023674D02*
X016551Y023674D01*
X016551Y023753D02*
X016473Y023753D01*
X016473Y023831D02*
X016551Y023831D01*
X016551Y023910D02*
X016473Y023910D01*
X015779Y024567D02*
X015638Y024567D01*
X016181Y025324D02*
X021370Y025324D01*
X021370Y025402D02*
X016199Y025402D01*
X016199Y025481D02*
X021370Y025481D01*
X021370Y025559D02*
X016199Y025559D01*
X016199Y025638D02*
X021370Y025638D01*
X021370Y025716D02*
X016199Y025716D01*
X016199Y025795D02*
X016272Y025795D01*
X016219Y025873D02*
X016199Y025873D01*
X016199Y025952D02*
X016214Y025952D01*
X016199Y026031D02*
X016473Y026031D01*
X016504Y026067D02*
X016512Y026067D01*
X016512Y026317D01*
X016504Y026317D01*
X016504Y026067D01*
X016512Y026067D02*
X016941Y026067D01*
X017441Y026067D01*
X016809Y026028D02*
X016809Y025891D01*
X016800Y025855D01*
X016781Y025823D01*
X016755Y025797D01*
X016723Y025779D01*
X016688Y025769D01*
X016551Y025769D01*
X016551Y026028D01*
X016809Y026028D01*
X016809Y025952D02*
X021370Y025952D01*
X021370Y026031D02*
X016551Y026031D01*
X016551Y026109D02*
X016473Y026109D01*
X016473Y026188D02*
X016551Y026188D01*
X016551Y026266D02*
X016473Y026266D01*
X016473Y026345D02*
X016551Y026345D01*
X016740Y026345D02*
X021370Y026345D01*
X021370Y026266D02*
X016803Y026266D01*
X016809Y026188D02*
X021370Y026188D01*
X021370Y026109D02*
X016809Y026109D01*
X016805Y025873D02*
X021370Y025873D01*
X021370Y025795D02*
X016752Y025795D01*
X016551Y025795D02*
X016473Y025795D01*
X016473Y025873D02*
X016551Y025873D01*
X016551Y025952D02*
X016473Y025952D01*
X015896Y026067D02*
X015779Y026067D01*
X015359Y026031D02*
X014489Y026031D01*
X014489Y025952D02*
X015359Y025952D01*
X015359Y026109D02*
X014457Y026109D01*
X014191Y025862D02*
X013691Y025862D01*
X013653Y025952D02*
X013730Y025952D01*
X013730Y026031D02*
X013653Y026031D01*
X013653Y026109D02*
X013730Y026109D01*
X014153Y025795D02*
X014230Y025795D01*
X014230Y025716D02*
X014153Y025716D01*
X013846Y026737D02*
X013230Y026737D01*
X013269Y026659D02*
X015359Y026659D01*
X015359Y026580D02*
X013269Y026580D01*
X013269Y026502D02*
X015359Y026502D01*
X015359Y026423D02*
X013269Y026423D01*
X013269Y026345D02*
X015359Y026345D01*
X015489Y027151D02*
X015674Y027151D01*
X015674Y027231D01*
X015489Y027231D01*
X015489Y027151D01*
X015504Y027191D02*
X015004Y027191D01*
X014702Y027130D02*
X014623Y027130D01*
X014623Y027052D02*
X014702Y027052D01*
X014702Y026973D02*
X014623Y026973D01*
X014623Y026894D02*
X014702Y026894D01*
X014702Y026816D02*
X014623Y026816D01*
X014623Y026737D02*
X014702Y026737D01*
X014702Y027366D02*
X014623Y027366D01*
X014623Y027444D02*
X014702Y027444D01*
X014702Y027523D02*
X014623Y027523D01*
X014623Y027601D02*
X014702Y027601D01*
X014702Y027680D02*
X014623Y027680D01*
X014837Y028101D02*
X015251Y028101D01*
X015322Y028172D01*
X015322Y028586D01*
X015251Y028656D01*
X014837Y028656D01*
X014778Y028597D01*
X014281Y028597D01*
X014281Y028603D01*
X014211Y028674D01*
X013797Y028674D01*
X013726Y028603D01*
X013726Y028556D01*
X013594Y028556D01*
X013594Y028603D01*
X013524Y028674D01*
X013109Y028674D01*
X013039Y028603D01*
X013039Y028556D01*
X012939Y028556D01*
X012939Y028660D01*
X012869Y028730D01*
X012139Y028730D01*
X012069Y028660D01*
X012069Y028167D01*
X012139Y028097D01*
X012286Y028097D01*
X012286Y028036D01*
X012139Y028036D01*
X012069Y027966D01*
X012069Y027473D01*
X012139Y027403D01*
X012869Y027403D01*
X012939Y027473D01*
X012939Y027966D01*
X012869Y028036D01*
X012722Y028036D01*
X012722Y028097D01*
X012869Y028097D01*
X012939Y028167D01*
X012939Y028236D01*
X013039Y028236D01*
X013039Y028189D01*
X013109Y028119D01*
X013524Y028119D01*
X013594Y028189D01*
X013594Y028236D01*
X013726Y028236D01*
X013726Y028189D01*
X013797Y028119D01*
X014211Y028119D01*
X014253Y028160D01*
X014778Y028160D01*
X014837Y028101D01*
X014787Y028151D02*
X014244Y028151D01*
X014004Y028379D02*
X014004Y028396D01*
X013317Y028396D01*
X012504Y028396D01*
X012504Y028413D01*
X012722Y028073D02*
X015359Y028073D01*
X015359Y028151D02*
X015301Y028151D01*
X015322Y028230D02*
X015357Y028230D01*
X015357Y028308D02*
X015322Y028308D01*
X015322Y028387D02*
X015357Y028387D01*
X015357Y028465D02*
X015322Y028465D01*
X015322Y028544D02*
X015357Y028544D01*
X015359Y028622D02*
X015285Y028622D01*
X015359Y028701D02*
X014219Y028701D01*
X014215Y028699D02*
X014247Y028717D01*
X014273Y028743D01*
X014292Y028775D01*
X014301Y028811D01*
X014301Y028948D01*
X014043Y028948D01*
X014043Y029025D01*
X014301Y029025D01*
X014301Y029163D01*
X014292Y029198D01*
X014273Y029230D01*
X014247Y029256D01*
X014215Y029275D01*
X014180Y029284D01*
X014043Y029284D01*
X014043Y029026D01*
X013965Y029026D01*
X013965Y029284D01*
X013828Y029284D01*
X013792Y029275D01*
X013760Y029256D01*
X013734Y029230D01*
X013716Y029198D01*
X013706Y029163D01*
X013706Y029025D01*
X013965Y029025D01*
X013965Y028948D01*
X013706Y028948D01*
X013706Y028811D01*
X013716Y028775D01*
X013734Y028743D01*
X013760Y028717D01*
X013792Y028699D01*
X013828Y028689D01*
X013965Y028689D01*
X013965Y028948D01*
X014043Y028948D01*
X014043Y028689D01*
X014180Y028689D01*
X014215Y028699D01*
X014262Y028622D02*
X014803Y028622D01*
X014779Y028987D02*
X014004Y028987D01*
X014004Y028691D01*
X013965Y028701D02*
X014043Y028701D01*
X014043Y028780D02*
X013965Y028780D01*
X013965Y028858D02*
X014043Y028858D01*
X014043Y028937D02*
X013965Y028937D01*
X014004Y028987D02*
X014004Y029254D01*
X013965Y029251D02*
X014043Y029251D01*
X014043Y029172D02*
X013965Y029172D01*
X013965Y029094D02*
X014043Y029094D01*
X014043Y029015D02*
X015359Y029015D01*
X015359Y028937D02*
X014301Y028937D01*
X014301Y028858D02*
X015359Y028858D01*
X015359Y028780D02*
X014293Y028780D01*
X014301Y029094D02*
X015413Y029094D01*
X015403Y029172D02*
X014299Y029172D01*
X014253Y029251D02*
X015359Y029251D01*
X015359Y029329D02*
X012941Y029329D01*
X012949Y029344D02*
X012959Y029379D01*
X012959Y029555D01*
X012544Y029555D01*
X012544Y029634D01*
X012959Y029634D01*
X012959Y029810D01*
X012949Y029845D01*
X012931Y029877D01*
X012905Y029903D01*
X012873Y029922D01*
X012837Y029931D01*
X012544Y029931D01*
X012544Y029635D01*
X012464Y029635D01*
X012464Y029931D01*
X012171Y029931D01*
X012135Y029922D01*
X012103Y029903D01*
X012077Y029877D01*
X012059Y029845D01*
X012049Y029810D01*
X012049Y029634D01*
X012464Y029634D01*
X012464Y029555D01*
X012049Y029555D01*
X012049Y029379D01*
X012059Y029344D01*
X012077Y029312D01*
X012103Y029286D01*
X012135Y029267D01*
X012171Y029258D01*
X012464Y029258D01*
X012464Y029554D01*
X012544Y029554D01*
X012544Y029258D01*
X012837Y029258D01*
X012873Y029267D01*
X012905Y029286D01*
X012931Y029312D01*
X012949Y029344D01*
X012959Y029408D02*
X015359Y029408D01*
X015359Y029486D02*
X012959Y029486D01*
X012959Y029644D02*
X014514Y029644D01*
X014489Y029656D02*
X014567Y029617D01*
X014649Y029590D01*
X014735Y029576D01*
X014779Y029576D01*
X014822Y029576D01*
X014908Y029590D01*
X014991Y029617D01*
X015068Y029656D01*
X015139Y029707D01*
X015200Y029769D01*
X015251Y029839D01*
X015291Y029917D01*
X015318Y029999D01*
X015331Y030085D01*
X015331Y030541D01*
X014779Y030541D01*
X014779Y029576D01*
X014779Y030541D01*
X014779Y030541D01*
X014779Y030541D01*
X015331Y030541D01*
X015331Y030997D01*
X015318Y031083D01*
X015291Y031166D01*
X015251Y031244D01*
X015301Y031136D02*
X015359Y031136D01*
X015359Y031057D02*
X015322Y031057D01*
X015331Y030979D02*
X015359Y030979D01*
X015359Y030900D02*
X015331Y030900D01*
X015331Y030822D02*
X015359Y030822D01*
X015359Y030743D02*
X015331Y030743D01*
X015331Y030665D02*
X015359Y030665D01*
X015359Y030586D02*
X015331Y030586D01*
X015331Y030507D02*
X015359Y030507D01*
X015359Y030429D02*
X015331Y030429D01*
X015331Y030350D02*
X015359Y030350D01*
X015359Y030272D02*
X015331Y030272D01*
X015331Y030193D02*
X015359Y030193D01*
X015359Y030115D02*
X015331Y030115D01*
X015324Y030036D02*
X015359Y030036D01*
X015359Y029958D02*
X015304Y029958D01*
X015272Y029879D02*
X015359Y029879D01*
X015359Y029801D02*
X015223Y029801D01*
X015154Y029722D02*
X015359Y029722D01*
X015359Y029644D02*
X015044Y029644D01*
X014779Y029644D02*
X014779Y029644D01*
X014779Y029722D02*
X014779Y029722D01*
X014779Y029801D02*
X014779Y029801D01*
X014779Y029879D02*
X014779Y029879D01*
X014779Y029958D02*
X014779Y029958D01*
X014779Y030036D02*
X014779Y030036D01*
X014779Y030115D02*
X014779Y030115D01*
X014779Y030193D02*
X014779Y030193D01*
X014779Y030272D02*
X014779Y030272D01*
X014779Y030350D02*
X014779Y030350D01*
X014779Y030429D02*
X014779Y030429D01*
X014779Y030507D02*
X014779Y030507D01*
X014778Y030541D02*
X014226Y030541D01*
X014226Y030085D01*
X014240Y029999D01*
X014267Y029917D01*
X014306Y029839D01*
X014357Y029769D01*
X014419Y029707D01*
X014489Y029656D01*
X014404Y029722D02*
X012959Y029722D01*
X012959Y029801D02*
X014334Y029801D01*
X014286Y029879D02*
X012929Y029879D01*
X012544Y029879D02*
X012464Y029879D01*
X012504Y029879D02*
X012504Y029594D01*
X011379Y029594D01*
X012049Y029644D02*
X010209Y029644D01*
X010209Y029722D02*
X012049Y029722D01*
X012049Y029801D02*
X010209Y029801D01*
X010179Y029879D02*
X012079Y029879D01*
X012049Y029486D02*
X010209Y029486D01*
X010209Y029408D02*
X012049Y029408D01*
X012067Y029329D02*
X010191Y029329D01*
X009794Y029329D02*
X009714Y029329D01*
X009754Y029317D02*
X009754Y029594D01*
X009754Y029879D01*
X009714Y029879D02*
X009794Y029879D01*
X009794Y029801D02*
X009714Y029801D01*
X009714Y029722D02*
X009794Y029722D01*
X009794Y029644D02*
X009714Y029644D01*
X009754Y029594D02*
X008941Y029594D01*
X008941Y028987D01*
X008941Y028754D01*
X008903Y028780D02*
X008980Y028780D01*
X008980Y028858D02*
X008903Y028858D01*
X008903Y028937D02*
X008980Y028937D01*
X008980Y028948D02*
X008980Y028689D01*
X009117Y028689D01*
X009153Y028699D01*
X009185Y028717D01*
X009211Y028743D01*
X009229Y028775D01*
X009239Y028811D01*
X009239Y028948D01*
X008980Y028948D01*
X008980Y029025D01*
X009239Y029025D01*
X009239Y029163D01*
X009229Y029198D01*
X009211Y029230D01*
X009185Y029256D01*
X009153Y029275D01*
X009117Y029284D01*
X008980Y029284D01*
X008980Y029026D01*
X008903Y029026D01*
X008903Y029284D01*
X008765Y029284D01*
X008730Y029275D01*
X008698Y029256D01*
X008672Y029230D01*
X008653Y029198D01*
X008644Y029163D01*
X008644Y029025D01*
X008902Y029025D01*
X008902Y028948D01*
X008644Y028948D01*
X008644Y028811D01*
X008653Y028775D01*
X008672Y028743D01*
X008698Y028717D01*
X008730Y028699D01*
X008765Y028689D01*
X008903Y028689D01*
X008903Y028948D01*
X008980Y028948D01*
X008941Y028987D02*
X009191Y028987D01*
X009239Y028937D02*
X013019Y028937D01*
X013019Y028948D02*
X013019Y028811D01*
X013029Y028775D01*
X013047Y028743D01*
X013073Y028717D01*
X013105Y028699D01*
X013141Y028689D01*
X013278Y028689D01*
X013278Y028948D01*
X013355Y028948D01*
X013355Y028689D01*
X013492Y028689D01*
X013528Y028699D01*
X013560Y028717D01*
X013586Y028743D01*
X013604Y028775D01*
X013614Y028811D01*
X013614Y028948D01*
X013356Y028948D01*
X013356Y029025D01*
X013614Y029025D01*
X013614Y029163D01*
X013604Y029198D01*
X013586Y029230D01*
X013560Y029256D01*
X013528Y029275D01*
X013492Y029284D01*
X013355Y029284D01*
X013355Y029026D01*
X013278Y029026D01*
X013278Y029284D01*
X013141Y029284D01*
X013105Y029275D01*
X013073Y029256D01*
X013047Y029230D01*
X013029Y029198D01*
X013019Y029163D01*
X013019Y029025D01*
X013278Y029025D01*
X013278Y028948D01*
X013019Y028948D01*
X013067Y028987D02*
X013317Y028987D01*
X013317Y028754D01*
X013278Y028780D02*
X013355Y028780D01*
X013355Y028858D02*
X013278Y028858D01*
X013278Y028937D02*
X013355Y028937D01*
X013317Y028987D02*
X013317Y029594D01*
X013317Y029754D01*
X013941Y029754D01*
X013755Y029251D02*
X013565Y029251D01*
X013611Y029172D02*
X013709Y029172D01*
X013706Y029094D02*
X013614Y029094D01*
X013614Y028937D02*
X013706Y028937D01*
X013706Y028858D02*
X013614Y028858D01*
X013606Y028780D02*
X013715Y028780D01*
X013788Y028701D02*
X013532Y028701D01*
X013575Y028622D02*
X013746Y028622D01*
X013726Y028230D02*
X013594Y028230D01*
X013556Y028151D02*
X013764Y028151D01*
X013879Y027680D02*
X012939Y027680D01*
X012939Y027758D02*
X015359Y027758D01*
X015359Y027837D02*
X012939Y027837D01*
X012939Y027916D02*
X015359Y027916D01*
X015359Y027994D02*
X012911Y027994D01*
X012923Y028151D02*
X013077Y028151D01*
X013039Y028230D02*
X012939Y028230D01*
X012939Y028622D02*
X013058Y028622D01*
X013101Y028701D02*
X012898Y028701D01*
X013027Y028780D02*
X009230Y028780D01*
X009239Y028858D02*
X013019Y028858D01*
X013019Y029094D02*
X009239Y029094D01*
X009236Y029172D02*
X013022Y029172D01*
X013068Y029251D02*
X009190Y029251D01*
X009317Y029329D02*
X006949Y029329D01*
X006949Y029251D02*
X008005Y029251D01*
X008010Y029256D02*
X007984Y029230D01*
X007966Y029198D01*
X007956Y029163D01*
X007956Y029025D01*
X008215Y029025D01*
X008215Y028948D01*
X007956Y028948D01*
X007956Y028811D01*
X007966Y028775D01*
X007984Y028743D01*
X008010Y028717D01*
X008042Y028699D01*
X008078Y028689D01*
X008215Y028689D01*
X008215Y028948D01*
X008293Y028948D01*
X008293Y029025D01*
X008551Y029025D01*
X008551Y029163D01*
X008542Y029198D01*
X008523Y029230D01*
X008497Y029256D01*
X008465Y029275D01*
X008430Y029284D01*
X008293Y029284D01*
X008293Y029026D01*
X008215Y029026D01*
X008215Y029284D01*
X008078Y029284D01*
X008042Y029275D01*
X008010Y029256D01*
X007959Y029172D02*
X006905Y029172D01*
X006897Y029094D02*
X007956Y029094D01*
X007956Y028937D02*
X006949Y028937D01*
X006949Y029015D02*
X008215Y029015D01*
X008254Y028987D02*
X008254Y028754D01*
X008215Y028780D02*
X008293Y028780D01*
X008293Y028858D02*
X008215Y028858D01*
X008215Y028937D02*
X008293Y028937D01*
X008293Y028948D02*
X008293Y028689D01*
X008430Y028689D01*
X008465Y028699D01*
X008497Y028717D01*
X008523Y028743D01*
X008542Y028775D01*
X008551Y028811D01*
X008551Y028948D01*
X008293Y028948D01*
X008254Y028987D02*
X008254Y029254D01*
X008215Y029251D02*
X008293Y029251D01*
X008293Y029172D02*
X008215Y029172D01*
X008215Y029094D02*
X008293Y029094D01*
X008293Y029015D02*
X008902Y029015D01*
X008941Y028987D02*
X008254Y028987D01*
X007529Y028987D01*
X007465Y028656D02*
X007051Y028656D01*
X006980Y028586D01*
X006980Y028172D01*
X007051Y028101D01*
X007465Y028101D01*
X007535Y028172D01*
X007535Y028178D01*
X007988Y028178D01*
X008047Y028119D01*
X008461Y028119D01*
X008520Y028178D01*
X008675Y028178D01*
X008734Y028119D01*
X009149Y028119D01*
X009219Y028189D01*
X009219Y028195D01*
X009319Y028195D01*
X009319Y028167D01*
X009389Y028097D01*
X009536Y028097D01*
X009536Y028036D01*
X009389Y028036D01*
X009319Y027966D01*
X009319Y027473D01*
X009389Y027403D01*
X010119Y027403D01*
X010189Y027473D01*
X010189Y027966D01*
X010119Y028036D01*
X009972Y028036D01*
X009972Y028097D01*
X010119Y028097D01*
X010189Y028167D01*
X010189Y028660D01*
X010119Y028730D01*
X009389Y028730D01*
X009319Y028660D01*
X009319Y028632D01*
X009190Y028632D01*
X009149Y028674D01*
X008734Y028674D01*
X008675Y028614D01*
X008520Y028614D01*
X008461Y028674D01*
X008047Y028674D01*
X007988Y028614D01*
X007507Y028614D01*
X007465Y028656D01*
X007499Y028622D02*
X007996Y028622D01*
X008038Y028701D02*
X006949Y028701D01*
X006949Y028780D02*
X007965Y028780D01*
X007956Y028858D02*
X006949Y028858D01*
X006947Y028622D02*
X007017Y028622D01*
X006980Y028544D02*
X006947Y028544D01*
X006947Y028465D02*
X006980Y028465D01*
X006980Y028387D02*
X006947Y028387D01*
X006947Y028308D02*
X006980Y028308D01*
X006980Y028230D02*
X006947Y028230D01*
X006947Y028151D02*
X007001Y028151D01*
X006947Y028073D02*
X009536Y028073D01*
X009347Y027994D02*
X006947Y027994D01*
X006949Y027916D02*
X009319Y027916D01*
X009319Y027837D02*
X006949Y027837D01*
X006949Y027758D02*
X009319Y027758D01*
X009319Y027680D02*
X006949Y027680D01*
X006949Y027601D02*
X009319Y027601D01*
X009319Y027523D02*
X006929Y027523D01*
X006954Y027444D02*
X009348Y027444D01*
X009389Y026855D02*
X009319Y026785D01*
X009319Y026769D01*
X009059Y026769D01*
X008989Y026699D01*
X008989Y026309D01*
X009059Y026239D01*
X009372Y026239D01*
X009389Y026222D01*
X010119Y026222D01*
X010189Y026292D01*
X010189Y026785D01*
X010119Y026855D01*
X009389Y026855D01*
X009350Y026816D02*
X006947Y026816D01*
X006949Y026737D02*
X009028Y026737D01*
X008989Y026659D02*
X006949Y026659D01*
X006949Y026580D02*
X008989Y026580D01*
X008989Y026502D02*
X006949Y026502D01*
X006949Y026423D02*
X008989Y026423D01*
X008989Y026345D02*
X007488Y026345D01*
X007503Y026336D02*
X007471Y026354D01*
X007436Y026364D01*
X007299Y026364D01*
X007299Y026106D01*
X007221Y026106D01*
X007221Y026364D01*
X007084Y026364D01*
X007048Y026354D01*
X007016Y026336D01*
X006990Y026310D01*
X006972Y026278D01*
X006962Y026242D01*
X006962Y026105D01*
X007221Y026105D01*
X007221Y026028D01*
X006962Y026028D01*
X006962Y025891D01*
X006972Y025855D01*
X006990Y025823D01*
X007016Y025797D01*
X007048Y025779D01*
X007084Y025769D01*
X007221Y025769D01*
X007221Y026028D01*
X007299Y026028D01*
X007299Y026105D01*
X007557Y026105D01*
X007557Y026242D01*
X007548Y026278D01*
X007529Y026310D01*
X007503Y026336D01*
X007551Y026266D02*
X009032Y026266D01*
X008804Y026031D02*
X007299Y026031D01*
X007299Y026028D02*
X007557Y026028D01*
X007557Y025891D01*
X007548Y025855D01*
X007529Y025823D01*
X007503Y025797D01*
X007471Y025779D01*
X007436Y025769D01*
X007299Y025769D01*
X007299Y026028D01*
X007260Y026067D02*
X007260Y025629D01*
X007260Y025612D01*
X007260Y025629D02*
X007129Y025629D01*
X006949Y025638D02*
X008539Y025638D01*
X008539Y025716D02*
X006947Y025716D01*
X006947Y025795D02*
X007020Y025795D01*
X006967Y025873D02*
X006947Y025873D01*
X006947Y025952D02*
X006962Y025952D01*
X006947Y026031D02*
X007221Y026031D01*
X007260Y026067D02*
X007004Y026067D01*
X006962Y026109D02*
X006947Y026109D01*
X006947Y026188D02*
X006962Y026188D01*
X006969Y026266D02*
X006947Y026266D01*
X006947Y026345D02*
X007031Y026345D01*
X007129Y026504D02*
X007260Y026504D01*
X007260Y026067D01*
X007504Y026067D01*
X007557Y026109D02*
X009806Y026109D01*
X009845Y026188D02*
X007557Y026188D01*
X007557Y025952D02*
X008726Y025952D01*
X008657Y025873D02*
X007553Y025873D01*
X007500Y025795D02*
X008578Y025795D01*
X008539Y025559D02*
X006949Y025559D01*
X006949Y025481D02*
X008539Y025481D01*
X008539Y025402D02*
X006949Y025402D01*
X006931Y025324D02*
X008557Y025324D01*
X008602Y025245D02*
X001138Y025245D01*
X001254Y024754D02*
X001254Y025754D01*
X001254Y026754D01*
X001254Y027754D01*
X002317Y027754D01*
X003379Y027754D01*
X004629Y027754D01*
X004629Y028754D01*
X005191Y028754D01*
X005529Y028754D01*
X005529Y029504D01*
X005529Y029644D02*
X005529Y029644D01*
X005529Y029722D02*
X005529Y029722D01*
X005529Y029801D02*
X005529Y029801D01*
X005529Y029879D02*
X005529Y029879D01*
X005529Y029958D02*
X005529Y029958D01*
X005529Y030036D02*
X005529Y030036D01*
X005529Y030115D02*
X005529Y030115D01*
X005529Y030193D02*
X005529Y030193D01*
X005529Y030272D02*
X005529Y030272D01*
X005529Y030350D02*
X005529Y030350D01*
X005529Y030429D02*
X005529Y030429D01*
X005529Y030507D02*
X005529Y030507D01*
X005528Y030541D02*
X004976Y030541D01*
X005528Y030541D01*
X005528Y030541D01*
X004976Y030507D02*
X003227Y030507D01*
X003227Y030429D02*
X004976Y030429D01*
X004976Y030350D02*
X003227Y030350D01*
X003227Y030272D02*
X004976Y030272D01*
X004976Y030193D02*
X003227Y030193D01*
X003227Y030115D02*
X004976Y030115D01*
X004984Y030036D02*
X003227Y030036D01*
X003227Y029958D02*
X005003Y029958D01*
X005036Y029879D02*
X003227Y029879D01*
X003227Y029801D02*
X005084Y029801D01*
X005154Y029722D02*
X003227Y029722D01*
X003227Y029644D02*
X005264Y029644D01*
X005794Y029644D02*
X006107Y029644D01*
X006107Y029722D02*
X005904Y029722D01*
X005973Y029801D02*
X006107Y029801D01*
X006107Y029879D02*
X006022Y029879D01*
X006054Y029958D02*
X006107Y029958D01*
X006107Y030036D02*
X006074Y030036D01*
X006081Y030115D02*
X006107Y030115D01*
X006107Y030193D02*
X006081Y030193D01*
X006081Y030272D02*
X006107Y030272D01*
X006107Y030350D02*
X006081Y030350D01*
X006081Y030429D02*
X006107Y030429D01*
X006107Y030507D02*
X006081Y030507D01*
X006081Y030586D02*
X006107Y030586D01*
X006107Y030665D02*
X006081Y030665D01*
X006081Y030743D02*
X006109Y030743D01*
X006109Y030822D02*
X006081Y030822D01*
X006081Y030900D02*
X006109Y030900D01*
X006109Y030979D02*
X006081Y030979D01*
X006072Y031057D02*
X006109Y031057D01*
X006109Y031136D02*
X006051Y031136D01*
X006016Y031214D02*
X006109Y031214D01*
X006949Y031214D02*
X007041Y031214D01*
X007056Y031244D02*
X007017Y031166D01*
X006990Y031083D01*
X006976Y030997D01*
X006976Y030541D01*
X006976Y030085D01*
X006990Y029999D01*
X007017Y029917D01*
X007056Y029839D01*
X007107Y029769D01*
X007169Y029707D01*
X007239Y029656D01*
X007317Y029617D01*
X007399Y029590D01*
X007485Y029576D01*
X007529Y029576D01*
X007572Y029576D01*
X007658Y029590D01*
X007741Y029617D01*
X007818Y029656D01*
X007889Y029707D01*
X007950Y029769D01*
X008001Y029839D01*
X008041Y029917D01*
X008068Y029999D01*
X008081Y030085D01*
X008081Y030541D01*
X007529Y030541D01*
X007529Y029576D01*
X007529Y030541D01*
X007529Y030541D01*
X007529Y030541D01*
X008081Y030541D01*
X008081Y030997D01*
X008068Y031083D01*
X008041Y031166D01*
X008001Y031244D01*
X008000Y031245D01*
X014307Y031245D01*
X014306Y031244D01*
X014267Y031166D01*
X014240Y031083D01*
X014226Y030997D01*
X014226Y030541D01*
X014778Y030541D01*
X014778Y030541D01*
X014226Y030507D02*
X008081Y030507D01*
X008081Y030429D02*
X014226Y030429D01*
X014226Y030350D02*
X008081Y030350D01*
X008081Y030272D02*
X014226Y030272D01*
X014226Y030193D02*
X008081Y030193D01*
X008081Y030115D02*
X014226Y030115D01*
X014234Y030036D02*
X008074Y030036D01*
X008054Y029958D02*
X014253Y029958D01*
X014226Y030586D02*
X008081Y030586D01*
X008081Y030665D02*
X014226Y030665D01*
X014226Y030743D02*
X008081Y030743D01*
X008081Y030822D02*
X014226Y030822D01*
X014226Y030900D02*
X008081Y030900D01*
X008081Y030979D02*
X014226Y030979D01*
X014236Y031057D02*
X008072Y031057D01*
X008051Y031136D02*
X014257Y031136D01*
X014291Y031214D02*
X008016Y031214D01*
X007528Y030541D02*
X007528Y030541D01*
X006976Y030541D01*
X007528Y030541D01*
X007529Y030507D02*
X007529Y030507D01*
X007529Y030429D02*
X007529Y030429D01*
X007529Y030350D02*
X007529Y030350D01*
X007529Y030272D02*
X007529Y030272D01*
X007529Y030193D02*
X007529Y030193D01*
X007529Y030115D02*
X007529Y030115D01*
X007529Y030036D02*
X007529Y030036D01*
X007529Y029958D02*
X007529Y029958D01*
X007529Y029879D02*
X007529Y029879D01*
X007529Y029801D02*
X007529Y029801D01*
X007529Y029722D02*
X007529Y029722D01*
X007529Y029644D02*
X007529Y029644D01*
X007794Y029644D02*
X009299Y029644D01*
X009299Y029722D02*
X007904Y029722D01*
X007973Y029801D02*
X009299Y029801D01*
X009329Y029879D02*
X008022Y029879D01*
X008503Y029251D02*
X008693Y029251D01*
X008646Y029172D02*
X008549Y029172D01*
X008551Y029094D02*
X008644Y029094D01*
X008644Y028937D02*
X008551Y028937D01*
X008551Y028858D02*
X008644Y028858D01*
X008652Y028780D02*
X008543Y028780D01*
X008469Y028701D02*
X008726Y028701D01*
X008683Y028622D02*
X008512Y028622D01*
X008293Y028701D02*
X008215Y028701D01*
X008014Y028151D02*
X007515Y028151D01*
X007258Y028379D02*
X007258Y028396D01*
X006667Y028379D02*
X006529Y028379D01*
X006107Y028387D02*
X001138Y028387D01*
X001138Y028465D02*
X006107Y028465D01*
X006107Y028544D02*
X001138Y028544D01*
X001138Y028622D02*
X006107Y028622D01*
X006107Y028701D02*
X001138Y028701D01*
X001138Y028780D02*
X006107Y028780D01*
X006107Y028858D02*
X001138Y028858D01*
X001138Y028937D02*
X006109Y028937D01*
X006109Y029015D02*
X001138Y029015D01*
X001138Y029094D02*
X006161Y029094D01*
X006153Y029172D02*
X003173Y029172D01*
X003227Y029251D02*
X006109Y029251D01*
X006109Y029329D02*
X003227Y029329D01*
X003227Y029408D02*
X006107Y029408D01*
X006107Y029486D02*
X003227Y029486D01*
X003227Y029565D02*
X006107Y029565D01*
X006947Y029567D02*
X006947Y029665D01*
X006949Y029667D01*
X006949Y031245D01*
X007057Y031245D01*
X007056Y031244D01*
X007007Y031136D02*
X006949Y031136D01*
X006949Y031057D02*
X006986Y031057D01*
X006976Y030979D02*
X006949Y030979D01*
X006949Y030900D02*
X006976Y030900D01*
X006976Y030822D02*
X006949Y030822D01*
X006949Y030743D02*
X006976Y030743D01*
X006976Y030665D02*
X006949Y030665D01*
X006949Y030586D02*
X006976Y030586D01*
X006976Y030507D02*
X006949Y030507D01*
X006949Y030429D02*
X006976Y030429D01*
X006976Y030350D02*
X006949Y030350D01*
X006949Y030272D02*
X006976Y030272D01*
X006976Y030193D02*
X006949Y030193D01*
X006949Y030115D02*
X006976Y030115D01*
X006984Y030036D02*
X006949Y030036D01*
X006949Y029958D02*
X007003Y029958D01*
X007036Y029879D02*
X006949Y029879D01*
X006949Y029801D02*
X007084Y029801D01*
X007154Y029722D02*
X006949Y029722D01*
X006947Y029644D02*
X007264Y029644D01*
X006949Y029565D02*
X006947Y029567D01*
X006949Y029486D02*
X009299Y029486D01*
X009299Y029408D02*
X006949Y029408D01*
X006107Y028308D02*
X001138Y028308D01*
X001138Y028230D02*
X006107Y028230D01*
X006107Y028151D02*
X001138Y028151D01*
X001138Y028073D02*
X006107Y028073D01*
X006107Y027994D02*
X001138Y027994D01*
X001138Y027916D02*
X006107Y027916D01*
X006107Y027837D02*
X001138Y027837D01*
X001138Y027758D02*
X006107Y027758D01*
X006238Y027209D02*
X006424Y027209D01*
X006254Y027191D02*
X005754Y027191D01*
X005413Y027191D01*
X005191Y027191D01*
X004504Y027191D01*
X004573Y027231D02*
X005372Y027231D01*
X005373Y027231D02*
X005373Y027706D01*
X004694Y027706D01*
X004659Y027697D01*
X004627Y027678D01*
X004601Y027652D01*
X004582Y027620D01*
X004573Y027585D01*
X004573Y027231D01*
X004573Y027287D02*
X001138Y027287D01*
X001138Y027209D02*
X005372Y027209D01*
X005373Y027287D02*
X005452Y027287D01*
X005453Y027231D02*
X005873Y027231D01*
X005873Y027151D01*
X005453Y027151D01*
X005453Y027231D01*
X005453Y027209D02*
X005873Y027209D01*
X005452Y027130D02*
X005373Y027130D01*
X005373Y027052D02*
X005452Y027052D01*
X005452Y026973D02*
X005373Y026973D01*
X005373Y026894D02*
X005452Y026894D01*
X005452Y026816D02*
X005373Y026816D01*
X005373Y026737D02*
X005452Y026737D01*
X005452Y027366D02*
X005373Y027366D01*
X005373Y027444D02*
X005452Y027444D01*
X005452Y027523D02*
X005373Y027523D01*
X005373Y027601D02*
X005452Y027601D01*
X005452Y027680D02*
X005373Y027680D01*
X004629Y027680D02*
X001138Y027680D01*
X001138Y027601D02*
X004577Y027601D01*
X004573Y027523D02*
X001138Y027523D01*
X001138Y027444D02*
X004573Y027444D01*
X004573Y027366D02*
X001138Y027366D01*
X001138Y027130D02*
X004573Y027130D01*
X004573Y027052D02*
X001138Y027052D01*
X001138Y026973D02*
X004573Y026973D01*
X004573Y026894D02*
X001138Y026894D01*
X001138Y026816D02*
X004573Y026816D01*
X004596Y026737D02*
X001138Y026737D01*
X001254Y027754D02*
X001254Y028754D01*
X001138Y029172D02*
X001460Y029172D01*
X001406Y029251D02*
X001138Y029251D01*
X001138Y029329D02*
X001406Y029329D01*
X001406Y029408D02*
X001138Y029408D01*
X001138Y029486D02*
X001406Y029486D01*
X001406Y029565D02*
X001138Y029565D01*
X001138Y029644D02*
X001406Y029644D01*
X001406Y029722D02*
X001138Y029722D01*
X001138Y029801D02*
X001406Y029801D01*
X001406Y029879D02*
X001138Y029879D01*
X001138Y029958D02*
X001406Y029958D01*
X001406Y030036D02*
X001138Y030036D01*
X001140Y030115D02*
X001406Y030115D01*
X001406Y030193D02*
X001145Y030193D01*
X001145Y030198D02*
X001145Y030198D01*
X001162Y030272D02*
X001406Y030272D01*
X001406Y030350D02*
X001180Y030350D01*
X001198Y030429D02*
X001406Y030429D01*
X001406Y030507D02*
X001229Y030507D01*
X001267Y030586D02*
X001406Y030586D01*
X001406Y030665D02*
X001305Y030665D01*
X001358Y030743D02*
X001406Y030743D01*
X001582Y030979D02*
X004976Y030979D01*
X004976Y030900D02*
X003227Y030900D01*
X003227Y030822D02*
X004976Y030822D01*
X004976Y030743D02*
X003227Y030743D01*
X003227Y030665D02*
X004976Y030665D01*
X004976Y030586D02*
X003227Y030586D01*
X002083Y031214D02*
X005041Y031214D01*
X005007Y031136D02*
X001838Y031136D01*
X001680Y031057D02*
X004986Y031057D01*
X006969Y027366D02*
X013823Y027366D01*
X013823Y027444D02*
X012910Y027444D01*
X012939Y027523D02*
X013823Y027523D01*
X013827Y027601D02*
X012939Y027601D01*
X012908Y026816D02*
X013823Y026816D01*
X013823Y026894D02*
X006920Y026894D01*
X006966Y026973D02*
X013823Y026973D01*
X013823Y027052D02*
X006969Y027052D01*
X006969Y027130D02*
X013823Y027130D01*
X013823Y027287D02*
X006969Y027287D01*
X007129Y027191D02*
X008004Y027191D01*
X008494Y028151D02*
X008702Y028151D01*
X008941Y028396D02*
X008941Y028413D01*
X008903Y028701D02*
X008980Y028701D01*
X009157Y028701D02*
X009360Y028701D01*
X008980Y029015D02*
X013278Y029015D01*
X013317Y028987D02*
X014004Y028987D01*
X013965Y029015D02*
X013356Y029015D01*
X013355Y029094D02*
X013278Y029094D01*
X013278Y029172D02*
X013355Y029172D01*
X013355Y029251D02*
X013278Y029251D01*
X013317Y029594D02*
X012504Y029594D01*
X012504Y029317D01*
X012464Y029329D02*
X012544Y029329D01*
X012544Y029408D02*
X012464Y029408D01*
X012464Y029486D02*
X012544Y029486D01*
X012544Y029565D02*
X015359Y029565D01*
X015629Y028379D02*
X015779Y028379D01*
X015755Y027209D02*
X021370Y027209D01*
X016379Y027191D02*
X015941Y027191D01*
X015504Y027191D01*
X015489Y027209D02*
X015674Y027209D01*
X013355Y028701D02*
X013278Y028701D01*
X012464Y029565D02*
X009794Y029565D01*
X009794Y029486D02*
X009714Y029486D01*
X009714Y029408D02*
X009794Y029408D01*
X010148Y028701D02*
X012110Y028701D01*
X012069Y028622D02*
X010189Y028622D01*
X010189Y028544D02*
X012069Y028544D01*
X012069Y028465D02*
X010189Y028465D01*
X010189Y028387D02*
X012069Y028387D01*
X012069Y028308D02*
X010189Y028308D01*
X010189Y028230D02*
X012069Y028230D01*
X012085Y028151D02*
X010173Y028151D01*
X010161Y027994D02*
X012097Y027994D01*
X012069Y027916D02*
X010189Y027916D01*
X010189Y027837D02*
X012069Y027837D01*
X012069Y027758D02*
X010189Y027758D01*
X010189Y027680D02*
X012069Y027680D01*
X012069Y027601D02*
X010189Y027601D01*
X010189Y027523D02*
X012069Y027523D01*
X012098Y027444D02*
X010160Y027444D01*
X010158Y026816D02*
X012100Y026816D01*
X012069Y026737D02*
X010189Y026737D01*
X010189Y026659D02*
X012069Y026659D01*
X012069Y026580D02*
X010189Y026580D01*
X010189Y026502D02*
X012069Y026502D01*
X012069Y026423D02*
X010189Y026423D01*
X010189Y026345D02*
X012069Y026345D01*
X012095Y026266D02*
X010163Y026266D01*
X010322Y026188D02*
X010436Y026188D01*
X010397Y026109D02*
X010361Y026109D01*
X010361Y026031D02*
X010397Y026031D01*
X010397Y025952D02*
X010361Y025952D01*
X010361Y025873D02*
X010397Y025873D01*
X010397Y025795D02*
X010361Y025795D01*
X010343Y025716D02*
X010414Y025716D01*
X010514Y025638D02*
X010034Y025638D01*
X009896Y025549D02*
X010050Y025396D01*
X010050Y025156D01*
X010004Y025130D01*
X009953Y024900D02*
X009376Y024900D01*
X009317Y024959D01*
X009317Y024754D01*
X009355Y024774D02*
X009278Y024774D01*
X009278Y024852D02*
X009355Y024852D01*
X009356Y024931D02*
X009667Y024931D01*
X009667Y024852D02*
X009614Y024852D01*
X009614Y025009D02*
X009672Y025009D01*
X009687Y025088D02*
X009614Y025088D01*
X009605Y025167D02*
X009687Y025167D01*
X009687Y025245D02*
X009531Y025245D01*
X009576Y025324D02*
X009733Y025324D01*
X009896Y025549D02*
X009317Y025549D01*
X008817Y025549D01*
X008817Y025817D01*
X008941Y025941D01*
X010083Y025941D01*
X009719Y026504D02*
X009754Y026539D01*
X010674Y025941D02*
X010674Y024674D01*
X010834Y024695D02*
X011625Y024695D01*
X011592Y024729D02*
X011666Y024654D01*
X011764Y024614D01*
X011869Y024614D01*
X011967Y024654D01*
X011971Y024658D01*
X011971Y024470D01*
X011971Y024538D02*
X010764Y024538D01*
X010834Y024617D02*
X011757Y024617D01*
X011876Y024617D02*
X011971Y024617D01*
X011817Y024879D02*
X011837Y024900D01*
X012333Y024900D01*
X012287Y024874D01*
X012333Y024644D02*
X012287Y024618D01*
X012333Y024644D02*
X012348Y024629D01*
X012287Y025130D02*
X012333Y025156D01*
X011915Y025156D01*
X011817Y025254D01*
X011961Y025481D02*
X012363Y025481D01*
X012442Y025402D02*
X012042Y025402D01*
X012031Y025716D02*
X012102Y025716D01*
X012084Y025795D02*
X012049Y025795D01*
X012049Y025873D02*
X012084Y025873D01*
X012084Y025952D02*
X012049Y025952D01*
X012049Y026031D02*
X012084Y026031D01*
X012084Y026109D02*
X012049Y026109D01*
X012010Y026188D02*
X012123Y026188D01*
X011771Y025941D02*
X010674Y025941D01*
X010951Y026109D02*
X011494Y026109D01*
X011533Y026188D02*
X010912Y026188D01*
X010834Y024852D02*
X011552Y024852D01*
X011552Y024826D02*
X011592Y024729D01*
X011573Y024774D02*
X010834Y024774D01*
X011122Y024292D02*
X011122Y024292D01*
X011255Y024292D02*
X011255Y024292D01*
X011255Y024292D01*
X011323Y024224D02*
X011971Y024224D01*
X011971Y024145D02*
X011401Y024145D01*
X011349Y024198D02*
X011349Y024198D01*
X011479Y024067D02*
X011971Y024067D01*
X011971Y023988D02*
X011539Y023988D01*
X011539Y024008D02*
X011539Y024008D01*
X011539Y023910D02*
X011971Y023910D01*
X011971Y023831D02*
X011539Y023831D01*
X011539Y023753D02*
X011963Y023753D01*
X011853Y023517D02*
X011539Y023517D01*
X011539Y023439D02*
X011775Y023439D01*
X011696Y023360D02*
X011524Y023360D01*
X011445Y023281D02*
X011618Y023281D01*
X011577Y023203D02*
X011367Y023203D01*
X011288Y023124D02*
X011577Y023124D01*
X011577Y023046D02*
X011209Y023046D01*
X011131Y022967D02*
X011577Y022967D01*
X011577Y022889D02*
X011052Y022889D01*
X010974Y022810D02*
X011577Y022810D01*
X011577Y022732D02*
X010895Y022732D01*
X010817Y022653D02*
X011577Y022653D01*
X011577Y022575D02*
X011401Y022575D01*
X011451Y022496D02*
X011577Y022496D01*
X011577Y022418D02*
X011451Y022418D01*
X011451Y022339D02*
X011577Y022339D01*
X011577Y022260D02*
X011451Y022260D01*
X011451Y022182D02*
X011577Y022182D01*
X011477Y022103D02*
X011445Y022103D01*
X011459Y022025D02*
X011424Y022025D01*
X011424Y021946D02*
X011459Y021946D01*
X011459Y021868D02*
X011424Y021868D01*
X011424Y021789D02*
X011459Y021789D01*
X011459Y021711D02*
X011424Y021711D01*
X011384Y021632D02*
X011499Y021632D01*
X011452Y021554D02*
X010858Y021554D01*
X010891Y021632D02*
X010908Y021632D01*
X010817Y021879D02*
X010629Y021691D01*
X010817Y021879D02*
X011146Y021879D01*
X011174Y021907D01*
X011174Y022317D01*
X010897Y022339D02*
X010861Y022339D01*
X010861Y022418D02*
X010897Y022418D01*
X010897Y022496D02*
X010861Y022496D01*
X010810Y022575D02*
X010947Y022575D01*
X010897Y022260D02*
X010861Y022260D01*
X010861Y022182D02*
X010897Y022182D01*
X010886Y022103D02*
X010855Y022103D01*
X010750Y022039D02*
X010750Y022039D01*
X010750Y022039D01*
X011591Y021239D02*
X011917Y021239D01*
X011917Y021161D02*
X011590Y021161D01*
X011669Y021318D02*
X011981Y021318D01*
X011748Y021396D02*
X013739Y021396D01*
X013739Y021475D02*
X013819Y021475D01*
X013819Y021554D02*
X013739Y021554D01*
X013739Y021632D02*
X013819Y021632D01*
X013819Y021711D02*
X013739Y021711D01*
X013739Y021789D02*
X013819Y021789D01*
X013819Y021868D02*
X013739Y021868D01*
X013816Y021946D02*
X012014Y021946D01*
X012014Y022025D02*
X013786Y022025D01*
X013786Y022015D02*
X013786Y022153D01*
X014044Y022153D01*
X014044Y022230D01*
X013786Y022230D01*
X013786Y022367D01*
X013796Y022403D01*
X013814Y022435D01*
X013840Y022461D01*
X013872Y022479D01*
X013908Y022489D01*
X014045Y022489D01*
X014045Y022230D01*
X014122Y022230D01*
X014122Y022489D01*
X014259Y022489D01*
X014295Y022479D01*
X014327Y022461D01*
X014353Y022435D01*
X014371Y022403D01*
X014381Y022367D01*
X014381Y022230D01*
X014122Y022230D01*
X014122Y022153D01*
X014381Y022153D01*
X014381Y022015D01*
X014371Y021980D01*
X014353Y021948D01*
X014327Y021922D01*
X014295Y021903D01*
X014259Y021894D01*
X014122Y021894D01*
X014122Y022152D01*
X014045Y022152D01*
X014045Y021894D01*
X013908Y021894D01*
X013872Y021903D01*
X013840Y021922D01*
X013814Y021948D01*
X013796Y021980D01*
X013786Y022015D01*
X013786Y022103D02*
X011997Y022103D01*
X011897Y022182D02*
X014044Y022182D01*
X014083Y022191D02*
X014083Y022441D01*
X014045Y022418D02*
X014122Y022418D01*
X014122Y022339D02*
X014045Y022339D01*
X014045Y022260D02*
X014122Y022260D01*
X014122Y022182D02*
X014397Y022182D01*
X014397Y022260D02*
X014381Y022260D01*
X014381Y022339D02*
X014397Y022339D01*
X014416Y022418D02*
X014363Y022418D01*
X014396Y022496D02*
X011897Y022496D01*
X011897Y022418D02*
X013804Y022418D01*
X013786Y022339D02*
X011897Y022339D01*
X011897Y022260D02*
X013786Y022260D01*
X014045Y022103D02*
X014122Y022103D01*
X014122Y022025D02*
X014045Y022025D01*
X014045Y021946D02*
X014122Y021946D01*
X014083Y021941D02*
X014083Y022191D01*
X014317Y022191D01*
X014381Y022103D02*
X014397Y022103D01*
X014397Y022025D02*
X014381Y022025D01*
X014351Y021946D02*
X014434Y021946D01*
X014456Y021868D02*
X014103Y021868D01*
X014206Y021789D02*
X014352Y021789D01*
X014339Y021711D02*
X014219Y021711D01*
X014219Y021632D02*
X014339Y021632D01*
X014339Y021554D02*
X014219Y021554D01*
X014219Y021475D02*
X014339Y021475D01*
X014339Y021318D02*
X014219Y021318D01*
X014219Y021239D02*
X014339Y021239D01*
X014339Y021161D02*
X014219Y021161D01*
X014211Y021082D02*
X014347Y021082D01*
X014416Y021004D02*
X014142Y021004D01*
X014739Y021004D02*
X014819Y021004D01*
X014819Y021082D02*
X014739Y021082D01*
X014739Y021161D02*
X014819Y021161D01*
X014819Y021239D02*
X014739Y021239D01*
X014739Y021318D02*
X014819Y021318D01*
X014819Y021475D02*
X014739Y021475D01*
X014739Y021554D02*
X014819Y021554D01*
X014819Y021632D02*
X014739Y021632D01*
X014739Y021711D02*
X014819Y021711D01*
X014819Y021789D02*
X014739Y021789D01*
X014674Y022646D02*
X014673Y022646D01*
X014083Y022191D02*
X013079Y022191D01*
X013039Y020611D02*
X013119Y020611D01*
X013119Y020532D02*
X013039Y020532D01*
X013039Y020454D02*
X013119Y020454D01*
X013119Y020375D02*
X013039Y020375D01*
X013039Y020297D02*
X013119Y020297D01*
X012665Y020297D02*
X012590Y020297D01*
X012590Y020375D02*
X012639Y020375D01*
X012639Y020454D02*
X012590Y020454D01*
X012562Y020532D02*
X012639Y020532D01*
X012639Y020611D02*
X011610Y020611D01*
X011610Y020532D02*
X011946Y020532D01*
X011853Y020454D02*
X011590Y020454D01*
X011590Y020375D02*
X011774Y020375D01*
X011696Y020297D02*
X011590Y020297D01*
X011590Y020218D02*
X011617Y020218D01*
X011594Y020140D02*
X011590Y020140D01*
X011594Y020061D02*
X011522Y020061D01*
X011594Y019983D02*
X010789Y019983D01*
X010789Y019904D02*
X010882Y019904D01*
X010847Y019826D02*
X010789Y019826D01*
X010789Y019747D02*
X010847Y019747D01*
X010847Y019669D02*
X010789Y019669D01*
X010789Y019590D02*
X010847Y019590D01*
X010847Y019511D02*
X010789Y019511D01*
X010789Y019433D02*
X010847Y019433D01*
X010847Y019354D02*
X010789Y019354D01*
X010789Y019276D02*
X010847Y019276D01*
X010847Y019197D02*
X010789Y019197D01*
X010789Y019119D02*
X010867Y019119D01*
X010865Y019040D02*
X010789Y019040D01*
X010789Y018962D02*
X010827Y018962D01*
X010827Y018883D02*
X010789Y018883D01*
X010789Y018805D02*
X010827Y018805D01*
X010827Y018726D02*
X010789Y018726D01*
X010789Y018647D02*
X011123Y018647D01*
X011163Y018629D02*
X010879Y018629D01*
X010827Y018569D02*
X010789Y018569D01*
X010789Y018490D02*
X010827Y018490D01*
X010827Y018412D02*
X010789Y018412D01*
X010789Y018333D02*
X010827Y018333D01*
X010839Y018255D02*
X010789Y018255D01*
X010789Y018176D02*
X010876Y018176D01*
X010829Y018098D02*
X010789Y018098D01*
X010789Y018019D02*
X010827Y018019D01*
X010827Y017941D02*
X010789Y017941D01*
X010789Y017862D02*
X010827Y017862D01*
X010827Y017705D02*
X010789Y017705D01*
X010789Y017626D02*
X010827Y017626D01*
X010827Y017548D02*
X010789Y017548D01*
X010789Y017469D02*
X010827Y017469D01*
X010834Y017391D02*
X010789Y017391D01*
X010859Y017312D02*
X010906Y017312D01*
X011123Y017312D02*
X011203Y017312D01*
X011203Y017391D02*
X011123Y017391D01*
X011123Y017469D02*
X011203Y017469D01*
X011203Y017548D02*
X011123Y017548D01*
X011123Y017626D02*
X011203Y017626D01*
X011203Y017705D02*
X011123Y017705D01*
X011123Y017862D02*
X011203Y017862D01*
X011203Y017941D02*
X011123Y017941D01*
X011123Y018019D02*
X011203Y018019D01*
X011203Y018098D02*
X011123Y018098D01*
X011123Y018176D02*
X011203Y018176D01*
X011203Y018255D02*
X011123Y018255D01*
X011123Y018333D02*
X011203Y018333D01*
X011203Y018412D02*
X011123Y018412D01*
X011123Y018490D02*
X011203Y018490D01*
X011203Y018569D02*
X011123Y018569D01*
X011163Y018629D02*
X011441Y018629D01*
X011500Y018726D02*
X012028Y018726D01*
X012028Y018805D02*
X011500Y018805D01*
X011500Y018883D02*
X012028Y018883D01*
X012028Y018962D02*
X011500Y018962D01*
X011462Y019040D02*
X012074Y019040D01*
X012048Y019119D02*
X011460Y019119D01*
X011480Y019197D02*
X012028Y019197D01*
X012028Y019276D02*
X011480Y019276D01*
X011581Y019354D02*
X012028Y019354D01*
X012028Y019433D02*
X011659Y019433D01*
X011738Y019511D02*
X012028Y019511D01*
X012028Y019590D02*
X011816Y019590D01*
X011895Y019669D02*
X012028Y019669D01*
X012028Y019747D02*
X011914Y019747D01*
X011914Y019826D02*
X012028Y019826D01*
X012063Y019904D02*
X011914Y019904D01*
X011914Y019983D02*
X012659Y019983D01*
X012659Y019904D02*
X012626Y019904D01*
X012692Y020061D02*
X012523Y020061D01*
X012254Y020317D02*
X011942Y020317D01*
X011754Y020129D01*
X011754Y019754D01*
X011504Y019504D01*
X011163Y019504D01*
X011445Y019904D02*
X011594Y019904D01*
X011594Y019826D02*
X011480Y019826D01*
X011480Y019747D02*
X011521Y019747D01*
X011914Y020061D02*
X011985Y020061D01*
X011254Y020317D02*
X010880Y020317D01*
X010629Y020067D01*
X010629Y017317D01*
X011129Y016817D01*
X011421Y017312D02*
X012656Y017312D01*
X012661Y018098D02*
X012704Y018098D01*
X010986Y020061D02*
X010850Y020061D01*
X009356Y021082D02*
X009024Y021082D01*
X009067Y021004D02*
X009278Y021004D01*
X009199Y020925D02*
X009069Y020925D01*
X009069Y020847D02*
X009120Y020847D01*
X008669Y020847D02*
X008589Y020847D01*
X008589Y020925D02*
X008669Y020925D01*
X008669Y021004D02*
X008589Y021004D01*
X008589Y021082D02*
X008669Y021082D01*
X008669Y020768D02*
X008589Y020768D01*
X008629Y020679D02*
X008629Y021441D01*
X008589Y020611D02*
X008669Y020611D01*
X008669Y020532D02*
X008589Y020532D01*
X008589Y020454D02*
X008669Y020454D01*
X008669Y020375D02*
X008589Y020375D01*
X008589Y020297D02*
X008669Y020297D01*
X008669Y020061D02*
X008589Y020061D01*
X008589Y019983D02*
X008669Y019983D01*
X008669Y019904D02*
X008589Y019904D01*
X008589Y019826D02*
X008669Y019826D01*
X008669Y019747D02*
X008589Y019747D01*
X008629Y019691D02*
X008090Y019691D01*
X008189Y019590D02*
X004249Y019590D01*
X004249Y019511D02*
X008189Y019511D01*
X008189Y019433D02*
X004249Y019433D01*
X004249Y019354D02*
X008190Y019354D01*
X008234Y019276D02*
X004195Y019276D01*
X004149Y019119D02*
X008309Y019119D01*
X008202Y019040D02*
X004255Y019040D01*
X004259Y019033D02*
X004241Y019065D01*
X004215Y019091D01*
X004183Y019110D01*
X004147Y019119D01*
X003869Y019119D01*
X003869Y018719D01*
X004269Y018719D01*
X004269Y018998D01*
X004259Y019033D01*
X004269Y018962D02*
X008189Y018962D01*
X008189Y018883D02*
X004269Y018883D01*
X004269Y018805D02*
X008016Y018805D01*
X007969Y018726D02*
X004269Y018726D01*
X004269Y018639D02*
X003869Y018639D01*
X003869Y018719D01*
X003789Y018719D01*
X003789Y019119D01*
X003510Y019119D01*
X003475Y019110D01*
X003443Y019091D01*
X003417Y019065D01*
X003398Y019033D01*
X003389Y018998D01*
X003389Y018719D01*
X003789Y018719D01*
X003789Y018639D01*
X003869Y018639D01*
X003869Y018239D01*
X004147Y018239D01*
X004183Y018249D01*
X004215Y018267D01*
X004241Y018293D01*
X004259Y018325D01*
X004269Y018361D01*
X004269Y018639D01*
X004269Y018569D02*
X008013Y018569D01*
X007969Y018647D02*
X003869Y018647D01*
X003829Y018679D02*
X003817Y018691D01*
X003441Y018691D01*
X003389Y018726D02*
X001138Y018726D01*
X001138Y018647D02*
X003789Y018647D01*
X003789Y018639D02*
X003389Y018639D01*
X003389Y018361D01*
X003398Y018325D01*
X003417Y018293D01*
X003443Y018267D01*
X003475Y018249D01*
X003510Y018239D01*
X003789Y018239D01*
X003789Y018639D01*
X003829Y018679D02*
X003829Y018691D01*
X003817Y018691D01*
X003817Y018191D01*
X003817Y017691D01*
X003441Y017691D01*
X003389Y017719D02*
X003789Y017719D01*
X003789Y018119D01*
X003510Y018119D01*
X003475Y018110D01*
X003443Y018091D01*
X003417Y018065D01*
X003398Y018033D01*
X003389Y017998D01*
X003389Y017719D01*
X003389Y017783D02*
X001138Y017783D01*
X001138Y017705D02*
X003789Y017705D01*
X003789Y017719D02*
X003789Y017639D01*
X003869Y017639D01*
X003869Y017719D01*
X004269Y017719D01*
X004269Y017998D01*
X004259Y018033D01*
X004241Y018065D01*
X004215Y018091D01*
X004183Y018110D01*
X004147Y018119D01*
X003869Y018119D01*
X003869Y017719D01*
X003789Y017719D01*
X003817Y017691D02*
X003817Y017679D01*
X003817Y016629D01*
X004879Y016629D01*
X004879Y016254D01*
X004839Y016291D02*
X004919Y016291D01*
X004919Y016213D02*
X004839Y016213D01*
X004919Y016189D02*
X005197Y016189D01*
X005233Y016199D01*
X005265Y016217D01*
X005291Y016243D01*
X005309Y016275D01*
X005319Y016311D01*
X005319Y016589D01*
X004919Y016589D01*
X004919Y016189D01*
X004919Y016370D02*
X004839Y016370D01*
X004839Y016448D02*
X004919Y016448D01*
X004919Y016527D02*
X004839Y016527D01*
X004839Y016605D02*
X002644Y016605D01*
X002644Y016527D02*
X004439Y016527D01*
X004439Y016684D02*
X002644Y016684D01*
X002580Y016762D02*
X004439Y016762D01*
X004439Y016841D02*
X001138Y016841D01*
X001138Y016919D02*
X004439Y016919D01*
X004457Y016998D02*
X001138Y016998D01*
X001138Y017077D02*
X009031Y017077D01*
X009031Y017155D02*
X001138Y017155D01*
X001138Y017234D02*
X009031Y017234D01*
X009031Y016998D02*
X008301Y016998D01*
X008319Y016919D02*
X009031Y016919D01*
X009031Y016841D02*
X008319Y016841D01*
X008319Y016762D02*
X009031Y016762D01*
X009031Y016684D02*
X008319Y016684D01*
X008319Y016527D02*
X009031Y016527D01*
X009031Y016605D02*
X007919Y016605D01*
X007879Y016629D02*
X007879Y017129D01*
X007504Y017129D01*
X007457Y016998D02*
X007301Y016998D01*
X007309Y016983D02*
X007291Y017015D01*
X007265Y017041D01*
X007233Y017060D01*
X007197Y017069D01*
X006919Y017069D01*
X006919Y016669D01*
X007319Y016669D01*
X007319Y016948D01*
X007309Y016983D01*
X007319Y016919D02*
X007439Y016919D01*
X007439Y016841D02*
X007319Y016841D01*
X007319Y016762D02*
X007439Y016762D01*
X007439Y016684D02*
X007319Y016684D01*
X007379Y016629D02*
X007879Y016629D01*
X007839Y016605D02*
X006919Y016605D01*
X006919Y016589D02*
X006919Y016669D01*
X006839Y016669D01*
X006839Y017069D01*
X006560Y017069D01*
X006525Y017060D01*
X006493Y017041D01*
X006467Y017015D01*
X006448Y016983D01*
X006439Y016948D01*
X006439Y016669D01*
X006839Y016669D01*
X006839Y016589D01*
X006919Y016589D01*
X007319Y016589D01*
X007319Y016311D01*
X007309Y016275D01*
X007291Y016243D01*
X007265Y016217D01*
X007233Y016199D01*
X007197Y016189D01*
X006919Y016189D01*
X006919Y016589D01*
X006879Y016629D02*
X006879Y016254D01*
X006839Y016291D02*
X006919Y016291D01*
X006919Y016213D02*
X006839Y016213D01*
X006839Y016189D02*
X006560Y016189D01*
X006525Y016199D01*
X006493Y016217D01*
X006467Y016243D01*
X006448Y016275D01*
X006439Y016311D01*
X006439Y016589D01*
X006839Y016589D01*
X006839Y016189D01*
X006839Y016370D02*
X006919Y016370D01*
X006919Y016448D02*
X006839Y016448D01*
X006839Y016527D02*
X006919Y016527D01*
X006879Y016629D02*
X007379Y016629D01*
X007319Y016527D02*
X007439Y016527D01*
X007439Y016448D02*
X007319Y016448D01*
X007319Y016370D02*
X007439Y016370D01*
X007444Y016291D02*
X007313Y016291D01*
X007257Y016213D02*
X007501Y016213D01*
X007839Y016291D02*
X007919Y016291D01*
X007919Y016370D02*
X007839Y016370D01*
X007839Y016448D02*
X007919Y016448D01*
X007919Y016527D02*
X007839Y016527D01*
X007839Y016684D02*
X007919Y016684D01*
X007919Y016762D02*
X007839Y016762D01*
X007839Y016841D02*
X007919Y016841D01*
X007919Y016919D02*
X007839Y016919D01*
X007839Y016998D02*
X007919Y016998D01*
X008217Y017293D02*
X008243Y017267D01*
X008275Y017249D01*
X008310Y017239D01*
X008589Y017239D01*
X008589Y017639D01*
X008189Y017639D01*
X008189Y017361D01*
X008198Y017325D01*
X008217Y017293D01*
X008206Y017312D02*
X004252Y017312D01*
X004259Y017325D02*
X004269Y017361D01*
X004269Y017639D01*
X003869Y017639D01*
X003869Y017239D01*
X004147Y017239D01*
X004183Y017249D01*
X004215Y017267D01*
X004241Y017293D01*
X004259Y017325D01*
X004269Y017391D02*
X008189Y017391D01*
X008189Y017469D02*
X004269Y017469D01*
X004269Y017548D02*
X008189Y017548D01*
X008189Y017626D02*
X004269Y017626D01*
X004379Y017691D02*
X003817Y017691D01*
X003829Y017679D01*
X003817Y017679D01*
X003789Y017639D02*
X003389Y017639D01*
X003389Y017361D01*
X003398Y017325D01*
X003417Y017293D01*
X003443Y017267D01*
X003475Y017249D01*
X003510Y017239D01*
X003789Y017239D01*
X003789Y017639D01*
X003789Y017626D02*
X003869Y017626D01*
X003869Y017548D02*
X003789Y017548D01*
X003789Y017469D02*
X003869Y017469D01*
X003869Y017391D02*
X003789Y017391D01*
X003789Y017312D02*
X003869Y017312D01*
X003869Y017705D02*
X008589Y017705D01*
X008629Y017691D02*
X007504Y017691D01*
X006879Y017567D02*
X006879Y017129D01*
X006879Y016629D01*
X006839Y016605D02*
X006299Y016605D01*
X006299Y016527D02*
X006439Y016527D01*
X006439Y016448D02*
X006299Y016448D01*
X006299Y016370D02*
X006439Y016370D01*
X006444Y016291D02*
X006299Y016291D01*
X006232Y016213D02*
X006501Y016213D01*
X006144Y016134D02*
X009031Y016134D01*
X009031Y016056D02*
X006144Y016056D01*
X006144Y015977D02*
X009031Y015977D01*
X009031Y015898D02*
X006108Y015898D01*
X006039Y015820D02*
X008969Y015820D01*
X008890Y015741D02*
X006039Y015741D01*
X006039Y015663D02*
X008812Y015663D01*
X009031Y016213D02*
X008257Y016213D01*
X008313Y016291D02*
X009031Y016291D01*
X009031Y016370D02*
X008319Y016370D01*
X008319Y016448D02*
X009031Y016448D01*
X008669Y017312D02*
X008589Y017312D01*
X008589Y017391D02*
X008669Y017391D01*
X008669Y017469D02*
X008589Y017469D01*
X008589Y017548D02*
X008669Y017548D01*
X008669Y017626D02*
X008589Y017626D01*
X008629Y017679D02*
X008754Y017691D01*
X008669Y017783D02*
X008589Y017783D01*
X008589Y017862D02*
X008669Y017862D01*
X008669Y017941D02*
X008589Y017941D01*
X008589Y018019D02*
X008669Y018019D01*
X008669Y018098D02*
X008589Y018098D01*
X008589Y018255D02*
X008669Y018255D01*
X008669Y018333D02*
X008589Y018333D01*
X008589Y018412D02*
X008669Y018412D01*
X008669Y018490D02*
X008589Y018490D01*
X008589Y018569D02*
X008669Y018569D01*
X008629Y018679D02*
X008129Y018679D01*
X008129Y018691D01*
X008189Y018490D02*
X004269Y018490D01*
X004269Y018412D02*
X008189Y018412D01*
X008196Y018333D02*
X004261Y018333D01*
X004193Y018255D02*
X008264Y018255D01*
X008254Y018098D02*
X004203Y018098D01*
X004263Y018019D02*
X008195Y018019D01*
X008189Y017941D02*
X004269Y017941D01*
X004269Y017862D02*
X008189Y017862D01*
X008189Y017783D02*
X004269Y017783D01*
X003869Y017783D02*
X003789Y017783D01*
X003789Y017862D02*
X003869Y017862D01*
X003869Y017941D02*
X003789Y017941D01*
X003789Y018019D02*
X003869Y018019D01*
X003869Y018098D02*
X003789Y018098D01*
X003789Y018255D02*
X003869Y018255D01*
X003869Y018333D02*
X003789Y018333D01*
X003789Y018412D02*
X003869Y018412D01*
X003869Y018490D02*
X003789Y018490D01*
X003789Y018569D02*
X003869Y018569D01*
X003829Y018691D02*
X004379Y018691D01*
X004754Y018691D01*
X004754Y019129D01*
X004754Y019691D01*
X004754Y020191D01*
X004754Y020879D01*
X004379Y020879D01*
X004489Y021004D02*
X004569Y021004D01*
X004569Y021082D02*
X004489Y021082D01*
X004489Y021161D02*
X004569Y021161D01*
X004569Y021239D02*
X004489Y021239D01*
X004489Y021318D02*
X004569Y021318D01*
X004489Y021396D02*
X001138Y021396D01*
X001138Y021318D02*
X004089Y021318D01*
X004089Y021239D02*
X001138Y021239D01*
X001138Y021161D02*
X004089Y021161D01*
X004089Y021475D02*
X001138Y021475D01*
X001138Y021554D02*
X004089Y021554D01*
X004089Y021632D02*
X001138Y021632D01*
X001138Y021711D02*
X004089Y021711D01*
X004102Y021789D02*
X001138Y021789D01*
X001138Y021868D02*
X004205Y021868D01*
X004489Y021868D02*
X004569Y021868D01*
X004852Y021868D02*
X005205Y021868D01*
X005102Y021789D02*
X004956Y021789D01*
X004969Y021711D02*
X005089Y021711D01*
X005004Y021441D02*
X005004Y021429D01*
X005504Y021429D01*
X005529Y021429D01*
X005991Y021429D01*
X005969Y021389D02*
X005569Y021389D01*
X005569Y020989D01*
X005847Y020989D01*
X005883Y020999D01*
X005915Y021017D01*
X005941Y021043D01*
X005959Y021075D01*
X005969Y021111D01*
X005969Y021389D01*
X005969Y021318D02*
X006109Y021318D01*
X006109Y021396D02*
X005569Y021396D01*
X005529Y021429D02*
X005529Y021941D01*
X005941Y021941D01*
X005941Y022379D01*
X005941Y022754D01*
X005795Y022754D01*
X005795Y023629D01*
X005504Y023629D01*
X005498Y023667D02*
X005756Y023667D01*
X005756Y023590D01*
X005498Y023590D01*
X005498Y023453D01*
X005507Y023417D01*
X005526Y023385D01*
X005552Y023359D01*
X005584Y023341D01*
X005619Y023331D01*
X005756Y023331D01*
X005756Y023590D01*
X005834Y023590D01*
X005834Y023667D01*
X006093Y023667D01*
X006093Y023805D01*
X006083Y023840D01*
X006065Y023872D01*
X006039Y023898D01*
X006007Y023917D01*
X005971Y023926D01*
X005834Y023926D01*
X005834Y023668D01*
X005756Y023668D01*
X005756Y023926D01*
X005619Y023926D01*
X005584Y023917D01*
X005552Y023898D01*
X005526Y023872D01*
X005507Y023840D01*
X005498Y023805D01*
X005498Y023667D01*
X005498Y023674D02*
X001138Y023674D01*
X001138Y023596D02*
X005756Y023596D01*
X005795Y023629D02*
X006067Y023629D01*
X006093Y023590D02*
X005834Y023590D01*
X005834Y023331D01*
X005971Y023331D01*
X006007Y023341D01*
X006039Y023359D01*
X006065Y023385D01*
X006083Y023417D01*
X006093Y023453D01*
X006093Y023590D01*
X006107Y023596D02*
X005834Y023596D01*
X005795Y023629D02*
X005795Y023941D01*
X005817Y023941D01*
X005834Y023910D02*
X005756Y023910D01*
X005756Y023831D02*
X005834Y023831D01*
X005834Y023753D02*
X005756Y023753D01*
X005756Y023674D02*
X005834Y023674D01*
X005834Y023517D02*
X005756Y023517D01*
X005756Y023439D02*
X005834Y023439D01*
X005834Y023360D02*
X005756Y023360D01*
X005551Y023360D02*
X001138Y023360D01*
X001138Y023281D02*
X006107Y023281D01*
X006107Y023203D02*
X001138Y023203D01*
X001138Y023124D02*
X006109Y023124D01*
X006109Y023046D02*
X001138Y023046D01*
X001138Y022967D02*
X006170Y022967D01*
X006141Y022889D02*
X001138Y022889D01*
X001138Y022810D02*
X006109Y022810D01*
X006109Y022732D02*
X001138Y022732D01*
X001138Y022653D02*
X006109Y022653D01*
X006107Y022575D02*
X001138Y022575D01*
X001138Y022496D02*
X006107Y022496D01*
X006107Y022418D02*
X001138Y022418D01*
X001138Y022339D02*
X006107Y022339D01*
X006107Y022260D02*
X001138Y022260D01*
X001138Y022182D02*
X006107Y022182D01*
X006107Y022103D02*
X001138Y022103D01*
X001138Y022025D02*
X006107Y022025D01*
X006107Y021946D02*
X001138Y021946D01*
X001254Y021754D02*
X001254Y022754D01*
X001254Y023754D01*
X002317Y023754D01*
X003379Y023754D01*
X004379Y023754D01*
X005191Y023754D01*
X005191Y024129D01*
X005504Y024129D01*
X005941Y024129D01*
X005941Y024629D01*
X005941Y025129D01*
X005941Y025629D01*
X005941Y026067D01*
X006529Y026067D02*
X006669Y026067D01*
X007221Y026109D02*
X007299Y026109D01*
X007299Y026188D02*
X007221Y026188D01*
X007221Y026266D02*
X007299Y026266D01*
X007299Y026345D02*
X007221Y026345D01*
X007221Y025952D02*
X007299Y025952D01*
X007299Y025873D02*
X007221Y025873D01*
X007221Y025795D02*
X007299Y025795D01*
X006949Y025167D02*
X008528Y025167D01*
X008519Y025088D02*
X006949Y025088D01*
X006949Y025009D02*
X008519Y025009D01*
X008519Y024920D02*
X008519Y024783D01*
X008529Y024747D01*
X008547Y024715D01*
X008573Y024689D01*
X008605Y024671D01*
X008641Y024661D01*
X008778Y024661D01*
X008778Y024920D01*
X008519Y024920D01*
X008519Y024852D02*
X006949Y024852D01*
X006947Y024774D02*
X008521Y024774D01*
X008567Y024695D02*
X006949Y024695D01*
X006949Y024617D02*
X009266Y024617D01*
X009278Y024695D02*
X009344Y024695D01*
X009278Y024920D02*
X009019Y024920D01*
X008856Y024920D01*
X008856Y024997D01*
X009019Y024997D01*
X009278Y024997D01*
X009278Y024920D01*
X009278Y024931D02*
X008856Y024931D01*
X008817Y024959D02*
X008817Y024754D01*
X008855Y024774D02*
X008778Y024774D01*
X008778Y024852D02*
X008855Y024852D01*
X008778Y024931D02*
X006949Y024931D01*
X006949Y024538D02*
X008500Y024538D01*
X008778Y024695D02*
X008855Y024695D01*
X009066Y024695D02*
X009067Y024695D01*
X008817Y024959D02*
X009317Y024959D01*
X009317Y025254D01*
X009355Y025245D02*
X009278Y025245D01*
X009278Y025167D02*
X009355Y025167D01*
X009355Y025088D02*
X009278Y025088D01*
X009278Y025009D02*
X009355Y025009D01*
X009102Y025245D02*
X009031Y025245D01*
X008855Y025245D02*
X008778Y025245D01*
X008817Y025191D02*
X008817Y024959D01*
X008424Y024959D01*
X008004Y025379D01*
X007493Y024460D02*
X006949Y024460D01*
X006926Y024381D02*
X007420Y024381D01*
X006109Y024224D02*
X001138Y024224D01*
X001138Y024145D02*
X006109Y024145D01*
X006107Y024067D02*
X001138Y024067D01*
X001138Y023988D02*
X006107Y023988D01*
X006107Y023910D02*
X006019Y023910D01*
X006086Y023831D02*
X006107Y023831D01*
X006107Y023753D02*
X006093Y023753D01*
X006093Y023674D02*
X006107Y023674D01*
X006093Y023517D02*
X006107Y023517D01*
X006107Y023439D02*
X006089Y023439D01*
X006107Y023360D02*
X006040Y023360D01*
X005502Y023439D02*
X001138Y023439D01*
X001138Y023517D02*
X005498Y023517D01*
X005498Y023753D02*
X001138Y023753D01*
X001138Y023831D02*
X005505Y023831D01*
X005572Y023910D02*
X001138Y023910D01*
X001254Y023754D02*
X001254Y024754D01*
X001254Y021754D02*
X001254Y020754D01*
X001254Y019754D01*
X001254Y018754D01*
X001254Y018504D01*
X002129Y018504D01*
X001254Y018504D02*
X001254Y017754D01*
X001254Y016754D01*
X001254Y015754D01*
X001138Y015741D02*
X001538Y015741D01*
X001538Y015663D02*
X001138Y015663D01*
X001138Y015584D02*
X001538Y015584D01*
X001614Y015506D02*
X001614Y015504D01*
X001138Y015504D01*
X001138Y015820D02*
X001538Y015820D01*
X001538Y015898D02*
X001138Y015898D01*
X001138Y015977D02*
X001538Y015977D01*
X001538Y016056D02*
X001138Y016056D01*
X001138Y016134D02*
X001538Y016134D01*
X001538Y016213D02*
X001138Y016213D01*
X001138Y016291D02*
X001538Y016291D01*
X001602Y016370D02*
X001138Y016370D01*
X001138Y016448D02*
X002114Y016448D01*
X002114Y016527D02*
X001138Y016527D01*
X001138Y016605D02*
X002114Y016605D01*
X002114Y016684D02*
X001138Y016684D01*
X001138Y016762D02*
X002178Y016762D01*
X002379Y016504D02*
X002379Y015941D01*
X001879Y015941D02*
X001879Y015379D01*
X003039Y015506D02*
X003149Y015506D01*
X003219Y015577D01*
X003406Y017312D02*
X001138Y017312D01*
X001138Y017391D02*
X003389Y017391D01*
X003389Y017469D02*
X001138Y017469D01*
X001138Y017548D02*
X003389Y017548D01*
X003389Y017626D02*
X001138Y017626D01*
X001138Y017862D02*
X003389Y017862D01*
X003389Y017941D02*
X001138Y017941D01*
X001138Y018019D02*
X003395Y018019D01*
X003454Y018098D02*
X001138Y018098D01*
X001138Y018176D02*
X009031Y018176D01*
X009031Y018098D02*
X009003Y018098D01*
X008993Y018255D02*
X009031Y018255D01*
X008669Y018726D02*
X008589Y018726D01*
X008589Y018805D02*
X008669Y018805D01*
X008669Y018883D02*
X008589Y018883D01*
X008589Y018962D02*
X008669Y018962D01*
X008669Y019040D02*
X008589Y019040D01*
X008589Y019119D02*
X008669Y019119D01*
X007504Y020504D02*
X007504Y020879D01*
X007529Y020879D01*
X007529Y021441D01*
X007529Y021854D01*
X007504Y021879D01*
X007489Y021868D02*
X007569Y021868D01*
X007569Y021789D02*
X007489Y021789D01*
X007489Y021711D02*
X007569Y021711D01*
X007569Y021632D02*
X007489Y021632D01*
X007489Y021554D02*
X007569Y021554D01*
X007569Y021475D02*
X007489Y021475D01*
X007529Y021441D02*
X007129Y021441D01*
X007089Y021475D02*
X006949Y021475D01*
X006949Y021554D02*
X007089Y021554D01*
X007089Y021632D02*
X006949Y021632D01*
X006949Y021711D02*
X007089Y021711D01*
X007102Y021789D02*
X006947Y021789D01*
X006947Y021868D02*
X007205Y021868D01*
X006947Y021946D02*
X007469Y021946D01*
X007431Y022025D02*
X006947Y022025D01*
X006947Y022103D02*
X007431Y022103D01*
X007431Y022182D02*
X006947Y022182D01*
X006947Y022260D02*
X007431Y022260D01*
X007431Y022339D02*
X006947Y022339D01*
X006947Y022418D02*
X007431Y022418D01*
X007431Y022496D02*
X006947Y022496D01*
X006949Y022575D02*
X007431Y022575D01*
X007431Y022653D02*
X006949Y022653D01*
X006949Y022732D02*
X007431Y022732D01*
X007691Y022583D02*
X007709Y022567D01*
X007489Y021396D02*
X006949Y021396D01*
X006949Y021318D02*
X007089Y021318D01*
X007089Y021389D02*
X007089Y021111D01*
X007098Y021075D01*
X007117Y021043D01*
X007143Y021017D01*
X007175Y020999D01*
X007210Y020989D01*
X007489Y020989D01*
X007489Y021389D01*
X007089Y021389D01*
X007089Y021239D02*
X006949Y021239D01*
X006949Y021161D02*
X007089Y021161D01*
X007096Y021082D02*
X006949Y021082D01*
X007166Y021004D02*
X005892Y021004D01*
X005961Y021082D02*
X006109Y021082D01*
X006109Y021161D02*
X005969Y021161D01*
X005969Y021239D02*
X006109Y021239D01*
X006109Y021475D02*
X005969Y021475D01*
X005969Y021554D02*
X006109Y021554D01*
X006109Y021632D02*
X005969Y021632D01*
X005969Y021711D02*
X006107Y021711D01*
X006107Y021789D02*
X005956Y021789D01*
X005852Y021868D02*
X006107Y021868D01*
X005569Y021868D02*
X005489Y021868D01*
X005489Y021789D02*
X005569Y021789D01*
X005569Y021711D02*
X005489Y021711D01*
X005489Y021632D02*
X005569Y021632D01*
X005569Y021554D02*
X005489Y021554D01*
X005489Y021475D02*
X005569Y021475D01*
X005567Y021467D02*
X005529Y021429D01*
X005504Y021379D01*
X005504Y021429D01*
X005504Y021379D02*
X005504Y020879D01*
X005504Y020504D01*
X006067Y020504D01*
X006067Y020817D01*
X006567Y020817D01*
X007004Y020817D01*
X007004Y020504D01*
X007504Y020504D01*
X007489Y021004D02*
X007569Y021004D01*
X007569Y021082D02*
X007489Y021082D01*
X007489Y021161D02*
X007569Y021161D01*
X007569Y021239D02*
X007489Y021239D01*
X007489Y021318D02*
X007569Y021318D01*
X005569Y021318D02*
X005489Y021318D01*
X005489Y021239D02*
X005569Y021239D01*
X005569Y021161D02*
X005489Y021161D01*
X005489Y021082D02*
X005569Y021082D01*
X005569Y021004D02*
X005489Y021004D01*
X005166Y021004D02*
X004892Y021004D01*
X004961Y021082D02*
X005096Y021082D01*
X005089Y021161D02*
X004969Y021161D01*
X005004Y021429D02*
X004504Y021429D01*
X005004Y021441D02*
X005004Y021429D01*
X003869Y020611D02*
X003789Y020611D01*
X003789Y020532D02*
X003869Y020532D01*
X003869Y020454D02*
X003789Y020454D01*
X003789Y020375D02*
X003869Y020375D01*
X003869Y020297D02*
X003789Y020297D01*
X003817Y019691D02*
X003829Y019679D01*
X003654Y019679D01*
X003654Y019691D01*
X003817Y019691D01*
X003829Y019679D02*
X003829Y019679D01*
X003654Y019691D02*
X003379Y019691D01*
X003789Y019119D02*
X003869Y019119D01*
X003869Y019040D02*
X003789Y019040D01*
X003789Y018962D02*
X003869Y018962D01*
X003869Y018883D02*
X003789Y018883D01*
X003789Y018805D02*
X003869Y018805D01*
X003869Y018726D02*
X003789Y018726D01*
X003389Y018805D02*
X001138Y018805D01*
X001138Y018883D02*
X003389Y018883D01*
X003389Y018962D02*
X001138Y018962D01*
X001138Y019040D02*
X003402Y019040D01*
X003389Y018569D02*
X001138Y018569D01*
X001138Y018490D02*
X003389Y018490D01*
X003389Y018412D02*
X001138Y018412D01*
X001138Y018333D02*
X003396Y018333D01*
X003464Y018255D02*
X001138Y018255D01*
X004879Y017567D02*
X004879Y017129D01*
X004879Y016629D01*
X004919Y016605D02*
X005459Y016605D01*
X005459Y016527D02*
X005319Y016527D01*
X005319Y016448D02*
X005459Y016448D01*
X005459Y016370D02*
X005319Y016370D01*
X005313Y016291D02*
X005459Y016291D01*
X005526Y016213D02*
X005257Y016213D01*
X005319Y016684D02*
X005459Y016684D01*
X005459Y016762D02*
X005319Y016762D01*
X005319Y016841D02*
X005459Y016841D01*
X005459Y016919D02*
X005319Y016919D01*
X005301Y016998D02*
X005478Y016998D01*
X005879Y016629D02*
X005879Y016129D01*
X005879Y015567D01*
X005879Y016129D02*
X005878Y016130D01*
X006299Y016684D02*
X006439Y016684D01*
X006439Y016762D02*
X006299Y016762D01*
X006299Y016841D02*
X006439Y016841D01*
X006439Y016919D02*
X006299Y016919D01*
X006279Y016998D02*
X006457Y016998D01*
X006839Y016998D02*
X006919Y016998D01*
X006919Y016919D02*
X006839Y016919D01*
X006839Y016841D02*
X006919Y016841D01*
X006919Y016762D02*
X006839Y016762D01*
X006839Y016684D02*
X006919Y016684D01*
X006879Y017567D02*
X006567Y017567D01*
X006567Y018129D01*
X006254Y018129D01*
X005504Y018129D01*
X005191Y018129D01*
X005191Y017567D01*
X004879Y017567D01*
X004839Y016998D02*
X004919Y016998D01*
X004919Y016919D02*
X004839Y016919D01*
X004839Y016841D02*
X004919Y016841D01*
X004919Y016762D02*
X004839Y016762D01*
X004839Y016684D02*
X004919Y016684D01*
X009754Y011038D02*
X010157Y011038D01*
X010317Y010879D01*
X010317Y010219D01*
X010317Y009817D01*
X009754Y009254D01*
X009754Y008691D01*
X010817Y007629D01*
X011504Y007629D01*
X012254Y006879D01*
X012254Y005817D01*
X012691Y005817D01*
X012879Y006004D01*
X012879Y007254D01*
X012441Y007691D01*
X012567Y006941D02*
X011629Y007879D01*
X011067Y007879D01*
X010317Y008629D01*
X010317Y009038D01*
X012567Y006941D02*
X012567Y006129D01*
X012254Y005817D02*
X010567Y005817D01*
X010629Y005129D02*
X010462Y004962D01*
X010462Y004629D01*
X010629Y005129D02*
X011941Y005129D01*
X012663Y005129D01*
X012691Y005157D01*
X012691Y004441D02*
X012691Y003976D01*
X013317Y003441D02*
X012004Y002129D01*
X012004Y001879D01*
X012379Y001504D01*
X014262Y001504D01*
X014387Y001629D01*
X014413Y002691D02*
X014317Y002788D01*
X014317Y003851D01*
X013317Y003441D02*
X013317Y004754D01*
X013504Y004941D01*
X013504Y007004D01*
X015004Y008504D01*
X015004Y011333D01*
X015754Y009754D02*
X015629Y009629D01*
X015629Y008191D01*
X014817Y007379D01*
X014817Y006754D01*
X014317Y006254D01*
X014317Y005851D01*
X014317Y005032D01*
X015621Y001629D02*
X016726Y001629D01*
X017907Y001629D02*
X017907Y002407D01*
X018941Y003441D01*
X019629Y004567D02*
X020441Y004567D01*
X021254Y005379D01*
X021254Y011504D01*
X019629Y013129D01*
X017657Y012913D02*
X017629Y012941D01*
X010817Y003763D02*
X010807Y003754D01*
X011441Y002691D02*
X011719Y002691D01*
X011817Y002788D01*
X010352Y016370D02*
X010164Y016370D01*
X011552Y024826D02*
X011552Y024931D01*
X012816Y025481D02*
X012916Y025481D01*
X012286Y028073D02*
X009972Y028073D01*
X009335Y028151D02*
X009181Y028151D01*
X008980Y029094D02*
X008903Y029094D01*
X008903Y029172D02*
X008980Y029172D01*
X008980Y029251D02*
X008903Y029251D01*
X008855Y025167D02*
X008778Y025167D01*
X008778Y025088D02*
X008855Y025088D01*
X008855Y025009D02*
X008778Y025009D01*
X012464Y029644D02*
X012544Y029644D01*
X012544Y029722D02*
X012464Y029722D01*
X012464Y029801D02*
X012544Y029801D01*
D11*
X015779Y029391D03*
X015779Y028865D03*
X015779Y025516D03*
X015779Y024991D03*
X015779Y024578D03*
X015779Y024053D03*
X015779Y023203D03*
X015779Y022682D03*
X006529Y022682D03*
X006529Y023203D03*
X006529Y024056D03*
X006529Y024578D03*
X006529Y024993D03*
X006529Y025516D03*
X006529Y028867D03*
X006529Y029391D03*
D12*
X006056Y027191D03*
X015307Y027191D03*
D13*
X000504Y030066D02*
X000504Y002317D01*
X000506Y002231D01*
X000512Y002145D01*
X000522Y002059D01*
X000537Y001974D01*
X000555Y001890D01*
X000577Y001806D01*
X000604Y001724D01*
X000634Y001643D01*
X000668Y001564D01*
X000706Y001486D01*
X000747Y001411D01*
X000792Y001337D01*
X000840Y001265D01*
X000892Y001196D01*
X000947Y001130D01*
X001005Y001066D01*
X001066Y001005D01*
X001130Y000947D01*
X001196Y000892D01*
X001265Y000840D01*
X001337Y000792D01*
X001410Y000747D01*
X001486Y000706D01*
X001564Y000668D01*
X001643Y000634D01*
X001724Y000604D01*
X001806Y000577D01*
X001890Y000555D01*
X001974Y000537D01*
X002059Y000522D01*
X002145Y000512D01*
X002231Y000506D01*
X002317Y000504D01*
X020191Y000504D01*
X020277Y000506D01*
X020363Y000512D01*
X020449Y000522D01*
X020534Y000537D01*
X020618Y000555D01*
X020702Y000577D01*
X020784Y000604D01*
X020865Y000634D01*
X020944Y000668D01*
X021022Y000706D01*
X021098Y000747D01*
X021171Y000792D01*
X021243Y000840D01*
X021312Y000892D01*
X021378Y000947D01*
X021442Y001005D01*
X021503Y001066D01*
X021561Y001130D01*
X021616Y001196D01*
X021668Y001265D01*
X021716Y001337D01*
X021761Y001411D01*
X021802Y001486D01*
X021840Y001564D01*
X021874Y001643D01*
X021904Y001724D01*
X021931Y001806D01*
X021953Y001890D01*
X021971Y001974D01*
X021986Y002059D01*
X021996Y002145D01*
X022002Y002231D01*
X022004Y002317D01*
X022004Y030066D01*
X022004Y030067D02*
X022002Y030153D01*
X021996Y030239D01*
X021986Y030325D01*
X021971Y030410D01*
X021953Y030494D01*
X021931Y030578D01*
X021904Y030660D01*
X021874Y030741D01*
X021840Y030820D01*
X021802Y030898D01*
X021761Y030973D01*
X021716Y031047D01*
X021668Y031119D01*
X021616Y031188D01*
X021561Y031254D01*
X021503Y031318D01*
X021442Y031379D01*
X021378Y031437D01*
X021312Y031492D01*
X021243Y031544D01*
X021171Y031592D01*
X021097Y031637D01*
X021022Y031678D01*
X020944Y031716D01*
X020865Y031750D01*
X020784Y031780D01*
X020702Y031807D01*
X020618Y031829D01*
X020534Y031847D01*
X020449Y031862D01*
X020363Y031872D01*
X020277Y031878D01*
X020191Y031880D01*
X020191Y031879D02*
X002317Y031879D01*
X002317Y031878D02*
X002228Y031876D01*
X002139Y031869D01*
X002051Y031858D01*
X001964Y031843D01*
X001877Y031824D01*
X001791Y031800D01*
X001707Y031772D01*
X001624Y031740D01*
X001542Y031704D01*
X001463Y031664D01*
X001386Y031620D01*
X001310Y031573D01*
X001238Y031521D01*
X001168Y031467D01*
X001100Y031409D01*
X001036Y031347D01*
X000974Y031283D01*
X000916Y031216D01*
X000862Y031146D01*
X000810Y031073D01*
X000763Y030998D01*
X000719Y030920D01*
X000679Y030841D01*
X000643Y030760D01*
X000611Y030677D01*
X000583Y030592D01*
X000559Y030506D01*
X000540Y030420D01*
X000525Y030332D01*
X000514Y030244D01*
X000507Y030155D01*
X000505Y030066D01*
D14*
X001736Y013668D02*
X002149Y013668D01*
X001943Y013668D02*
X001943Y013049D01*
X002389Y013152D02*
X002492Y013049D01*
X002698Y013049D01*
X002802Y013152D01*
X002802Y013565D01*
X002698Y013668D01*
X002492Y013668D01*
X002389Y013565D01*
X002389Y013152D01*
X003041Y013049D02*
X003041Y013668D01*
X003351Y013668D01*
X003454Y013565D01*
X003454Y013359D01*
X003351Y013255D01*
X003041Y013255D01*
D15*
X009379Y008129D03*
X016067Y014941D03*
D16*
X015779Y022157D03*
X015779Y023693D03*
X006527Y023614D03*
X006527Y022157D03*
D17*
X006527Y026213D03*
X015779Y026213D03*
D18*
X015779Y024717D03*
X006527Y024756D03*
D19*
X006527Y028220D03*
X006527Y030031D03*
X015779Y029992D03*
X015779Y028220D03*
D20*
X001941Y004379D03*
D21*
X001941Y005379D03*
X001941Y006379D03*
X001941Y007379D03*
X016629Y012941D03*
X016629Y013941D03*
X016629Y014941D03*
X017629Y014941D03*
X017629Y013941D03*
X017629Y012941D03*
D22*
X007504Y005650D03*
X007504Y003608D03*
X004379Y005832D03*
X004379Y007488D03*
D23*
X003976Y010254D03*
X005157Y010254D03*
X007226Y007441D03*
X007226Y006629D03*
X008407Y006629D03*
X008407Y007441D03*
X006282Y003004D03*
X005101Y003004D03*
X007539Y014941D03*
X008720Y014941D03*
X011163Y017754D03*
X011163Y018629D03*
X011163Y019504D03*
X012344Y019504D03*
X012344Y018629D03*
X012344Y017754D03*
X016476Y011879D03*
X016476Y011067D03*
X017657Y011067D03*
X017657Y011879D03*
X016782Y003629D03*
X015601Y003629D03*
X015594Y002691D03*
X014413Y002691D03*
X016726Y001629D03*
X017907Y001629D03*
D24*
X014317Y003851D03*
X014317Y005032D03*
X014317Y005851D03*
X014317Y007032D03*
X012691Y005157D03*
X012691Y003976D03*
X011817Y003969D03*
X011817Y002788D03*
X010317Y009038D03*
X010317Y010219D03*
X009754Y011038D03*
X009754Y012219D03*
X005941Y007657D03*
X005254Y008288D03*
X004379Y008288D03*
X003504Y008288D03*
X003504Y009469D03*
X004379Y009469D03*
X005254Y009469D03*
X005941Y006476D03*
X005817Y004907D03*
X005817Y003726D03*
X003629Y003788D03*
X003629Y004969D03*
X014941Y013351D03*
X014941Y014532D03*
X015754Y014532D03*
X015754Y013351D03*
X016191Y010344D03*
X016191Y009163D03*
X017067Y009163D03*
X017067Y010344D03*
X017941Y010344D03*
X017941Y009163D03*
X012504Y026539D03*
X012504Y027720D03*
X012504Y028413D03*
X012504Y029594D03*
X009754Y029594D03*
X009754Y028413D03*
X009754Y027720D03*
X009754Y026539D03*
D25*
X005129Y004941D03*
X004378Y004941D03*
X004379Y003941D03*
X004754Y003941D03*
X005128Y003941D03*
D26*
X011254Y020317D03*
X011254Y020692D03*
X011254Y021067D03*
X012254Y021067D03*
X012254Y020317D03*
X016941Y008441D03*
X016941Y007691D03*
X017941Y007691D03*
X017941Y008066D03*
X017941Y008441D03*
D27*
X019817Y007942D03*
X019817Y005692D03*
X011129Y012067D03*
X011129Y014317D03*
D28*
X009289Y013817D03*
X007459Y013817D03*
X019817Y010799D03*
X019817Y008969D03*
D29*
X018379Y005691D03*
X016379Y005691D03*
X013441Y009754D03*
X011441Y009754D03*
X008629Y011567D03*
X006629Y011567D03*
D30*
X005628Y011567D03*
X003378Y011567D03*
D31*
X006504Y009629D03*
X006504Y009129D03*
X006504Y008629D03*
X006504Y008129D03*
X008754Y008129D03*
X008754Y008629D03*
X008754Y009129D03*
X008754Y009629D03*
D32*
X002067Y009179D03*
X002067Y011579D03*
D33*
X012441Y012067D03*
X012941Y012067D03*
X013441Y012067D03*
X013941Y012067D03*
X013941Y014317D03*
X013441Y014317D03*
X012941Y014317D03*
X012441Y014317D03*
D34*
X014387Y001629D03*
X015621Y001629D03*
D35*
X015129Y016629D03*
X016129Y016629D03*
X017129Y016629D03*
X017879Y017679D03*
X017879Y018679D03*
X017879Y019679D03*
X017879Y020679D03*
X016779Y021429D03*
X015779Y021429D03*
X014779Y021429D03*
X013779Y021429D03*
X013079Y020679D03*
X013079Y019679D03*
X013079Y018679D03*
X013079Y017679D03*
X014129Y016629D03*
X008629Y017679D03*
X008629Y018679D03*
X008629Y019679D03*
X008629Y020679D03*
X007529Y021429D03*
X006529Y021429D03*
X005529Y021429D03*
X004529Y021429D03*
X003829Y020679D03*
X003829Y019679D03*
X003829Y018679D03*
X003829Y017679D03*
X004879Y016629D03*
X005879Y016629D03*
X006879Y016629D03*
X007879Y016629D03*
D36*
X010629Y015941D03*
X011129Y015941D03*
X011629Y015941D03*
X002879Y015941D03*
X002379Y015941D03*
X001879Y015941D03*
X007504Y002504D03*
X008004Y002504D03*
X008504Y002504D03*
D37*
X008896Y021941D03*
X008896Y022504D03*
X008896Y023067D03*
X009487Y023067D03*
X009487Y022504D03*
X009487Y021941D03*
X010583Y022317D03*
X011174Y022317D03*
X011146Y021879D03*
X011737Y021879D03*
X014083Y022191D03*
X014674Y022191D03*
X015044Y022191D03*
X014673Y022646D03*
X014673Y023237D03*
X014674Y023879D03*
X014673Y024271D03*
X014673Y024862D03*
X014191Y025271D03*
X014191Y025862D03*
X013691Y025862D03*
X013691Y025271D03*
X013191Y025271D03*
X013191Y025862D03*
X012362Y025941D03*
X011771Y025941D03*
X010674Y025941D03*
X010083Y025941D03*
X009317Y025549D03*
X009317Y024959D03*
X008817Y024959D03*
X008817Y025549D03*
X007709Y024174D03*
X007709Y023583D03*
X007709Y023174D03*
X007709Y022583D03*
X007709Y022191D03*
X008299Y022191D03*
X008317Y023209D03*
X008317Y023799D03*
X006529Y024021D03*
X006386Y023629D03*
X006529Y023237D03*
X006529Y022646D03*
X005795Y023629D03*
X006529Y024612D03*
X006529Y024959D03*
X006529Y025549D03*
X006669Y026067D03*
X007260Y026067D03*
X007258Y028379D03*
X006667Y028379D03*
X006529Y028834D03*
X006529Y029424D03*
X008254Y028987D03*
X008254Y028396D03*
X008941Y028396D03*
X008941Y028987D03*
X013317Y028987D03*
X013317Y028396D03*
X014004Y028396D03*
X014004Y028987D03*
X015044Y028379D03*
X015635Y028379D03*
X015779Y028834D03*
X015779Y029424D03*
X015921Y026067D03*
X015779Y025549D03*
X015779Y024959D03*
X015779Y024612D03*
X015779Y024021D03*
X015921Y023629D03*
X015779Y023237D03*
X015779Y022646D03*
X015635Y022191D03*
X016512Y023629D03*
X016512Y026067D03*
X014083Y023879D03*
D38*
X014663Y027191D03*
X005413Y027191D03*
D39*
X006465Y027191D03*
X015715Y027191D03*
D40*
X015779Y026601D03*
X015779Y027782D03*
X006529Y027782D03*
X006529Y026601D03*
D41*
X007529Y030129D02*
X007529Y030954D01*
X005529Y030954D02*
X005529Y030129D01*
X014779Y030129D02*
X014779Y030954D01*
X016779Y030954D02*
X016779Y030129D01*
D42*
X015779Y030541D03*
X006529Y030541D03*
D43*
X010462Y004629D03*
X011171Y004629D03*
X010817Y003763D03*
X011046Y002941D03*
X010691Y002075D03*
X010337Y002941D03*
D44*
X010004Y022827D03*
X010004Y023083D03*
X010004Y023339D03*
X010004Y023594D03*
X010004Y023850D03*
X010004Y024106D03*
X010004Y024362D03*
X010004Y024618D03*
X010004Y024874D03*
X010004Y025130D03*
X012287Y025130D03*
X012287Y024874D03*
X012287Y024618D03*
X012287Y024362D03*
X012287Y024106D03*
X012287Y023850D03*
X012287Y023594D03*
X012287Y023339D03*
X012287Y023083D03*
X012287Y022827D03*
D45*
X016941Y008441D02*
X016941Y007691D01*
X016941Y007191D01*
X016379Y006629D01*
X017941Y007067D02*
X018379Y006629D01*
X017941Y007067D02*
X017941Y007691D01*
D46*
X017941Y008441D02*
X017941Y009163D01*
X017067Y009163D01*
X016191Y009163D01*
X015317Y008379D02*
X014317Y007379D01*
X014317Y007032D01*
X014317Y006754D01*
X013754Y006191D01*
X013754Y004691D01*
X013629Y004567D01*
X013629Y003067D01*
X015601Y002698D02*
X015601Y003629D01*
X016129Y004629D02*
X016379Y004879D01*
X016379Y005691D01*
X016379Y006629D01*
X016379Y004879D02*
X016379Y004629D01*
X016782Y004226D01*
X016782Y003629D01*
X017817Y002879D02*
X018817Y003879D01*
X019191Y004254D01*
X019191Y004754D01*
X019504Y005067D01*
X020191Y005067D01*
X021004Y005879D01*
X021004Y007781D01*
X019817Y008969D01*
X019817Y007942D01*
X018379Y006629D02*
X018379Y005691D01*
X019816Y005691D02*
X019817Y005692D01*
X020361Y010254D02*
X020379Y010254D01*
X015504Y010817D02*
X015317Y010629D01*
X015317Y008379D01*
X015504Y010817D02*
X015504Y011691D01*
X015129Y012067D01*
X013941Y012067D01*
X013941Y014317D01*
X013441Y014317D02*
X013441Y013629D01*
X013004Y013191D01*
X011254Y013191D01*
X010441Y012379D01*
X010441Y011629D01*
X008691Y011629D01*
X008629Y011567D01*
X008629Y010629D01*
X009317Y009941D01*
X009317Y008754D01*
X009191Y008629D01*
X008754Y008629D01*
X008754Y008129D01*
X008754Y008629D02*
X008254Y008629D01*
X008004Y008379D01*
X008004Y007567D01*
X008129Y007441D01*
X008407Y007441D01*
X008407Y006629D01*
X008407Y005788D01*
X009567Y004629D01*
X009567Y003504D01*
X009379Y003317D01*
X009379Y002629D01*
X009933Y002075D01*
X010691Y002075D01*
X010004Y001441D02*
X009567Y001879D01*
X008691Y001879D01*
X008504Y002067D01*
X008504Y002504D01*
X008004Y002504D02*
X008004Y002067D01*
X007754Y001817D01*
X005629Y001817D01*
X005101Y002344D01*
X005101Y003004D01*
X004691Y003004D01*
X004379Y003317D01*
X004379Y003941D01*
X004754Y003941D02*
X004754Y004441D01*
X005504Y004441D01*
X005817Y004129D01*
X005817Y003726D01*
X005817Y003129D01*
X005941Y003004D01*
X006282Y003004D01*
X005101Y003004D02*
X005101Y003914D01*
X005128Y003941D01*
X004754Y004441D02*
X003941Y004441D01*
X003629Y004129D01*
X003629Y003788D01*
X003657Y004941D02*
X003629Y004969D01*
X003657Y004941D02*
X004378Y004941D01*
X004379Y004942D01*
X004379Y005832D01*
X005644Y005832D01*
X005941Y006129D01*
X006504Y005567D01*
X005941Y006129D02*
X005941Y006476D01*
X005941Y007657D02*
X005413Y007657D01*
X005254Y007817D01*
X005254Y008288D01*
X004379Y008288D01*
X004379Y007488D01*
X004379Y008288D02*
X003504Y008288D01*
X002957Y008288D01*
X002067Y009179D01*
X001941Y009054D02*
X001941Y007379D01*
X003504Y009469D02*
X003941Y009469D01*
X004379Y009469D01*
X003941Y009469D02*
X003941Y010219D01*
X003976Y010254D01*
X003976Y010969D01*
X003378Y011567D01*
X002079Y011567D01*
X002067Y011579D01*
X004629Y011441D02*
X004817Y011441D01*
X005754Y010504D01*
X005754Y009941D01*
X006067Y009629D01*
X006409Y009629D01*
X007004Y009629D01*
X007129Y009504D01*
X007129Y008754D01*
X007004Y008629D01*
X006504Y008629D01*
X006504Y008129D02*
X006067Y008129D01*
X005817Y008379D01*
X005817Y009317D01*
X005663Y009469D01*
X005254Y009469D01*
X005157Y009567D01*
X005157Y010254D01*
X005344Y009560D02*
X005254Y009469D01*
X006629Y010691D02*
X006629Y011567D01*
X005628Y011567D01*
X006629Y010691D02*
X008191Y009129D01*
X008754Y009129D01*
X008754Y009629D02*
X008254Y009629D01*
X007459Y010424D01*
X007459Y013817D01*
X007459Y013817D01*
X006191Y013817D01*
X004629Y012254D01*
X004629Y011441D01*
X007004Y008629D02*
X007226Y008407D01*
X007226Y007441D01*
X007226Y006629D01*
X007317Y006538D01*
X007317Y005837D01*
X007504Y005650D01*
X007226Y007441D02*
X006817Y007441D01*
X006601Y007657D01*
X005941Y007657D01*
X007504Y003608D02*
X008400Y003608D01*
X008691Y003317D01*
X009379Y003317D01*
X010004Y001441D02*
X011567Y001441D01*
X007504Y002504D02*
X007504Y003608D01*
X011441Y009754D02*
X011441Y010629D01*
X010441Y011629D01*
X011129Y012067D02*
X011192Y012067D01*
X011817Y012691D01*
X013317Y012691D01*
X013441Y012567D01*
X013441Y012067D01*
X013441Y009754D01*
X012754Y011254D02*
X012067Y011254D01*
X011441Y010629D01*
X012754Y011254D02*
X012941Y011441D01*
X012941Y012067D01*
X012441Y014317D02*
X011130Y014317D01*
X011129Y014317D01*
X010567Y014317D01*
X010067Y013817D01*
X009289Y013817D01*
X009754Y013351D01*
X009754Y012219D01*
X009719Y026504D02*
X009254Y026504D01*
X009754Y027720D02*
X009754Y028413D01*
X008941Y028413D01*
X008941Y028396D02*
X008254Y028396D01*
X007258Y028396D01*
X007529Y028987D02*
X007529Y030541D01*
X008317Y030541D01*
X005529Y030541D02*
X005529Y029504D01*
X005529Y030541D02*
X004817Y030541D01*
X012504Y028396D02*
X012504Y027720D01*
X012538Y026504D02*
X013004Y026504D01*
X014004Y028379D02*
X015039Y028379D01*
X014779Y028987D02*
X014779Y030541D01*
X014067Y030541D01*
X016779Y030541D02*
X017504Y030541D01*
D47*
X014673Y023879D02*
X014673Y023237D01*
X014674Y022191D02*
X015044Y022191D01*
X018629Y015754D02*
X018629Y011067D01*
X017657Y011067D01*
X017657Y011879D01*
X016754Y011067D02*
X017067Y010754D01*
X017067Y010344D01*
X017941Y010344D01*
X018441Y010344D01*
X019817Y008969D01*
X020361Y010254D02*
X019817Y010799D01*
X018896Y010799D01*
X018629Y011067D01*
X018254Y009754D02*
X016441Y009754D01*
X016191Y010004D01*
X016191Y010344D01*
X016476Y011067D02*
X016754Y011067D01*
X016476Y011067D02*
X016476Y011879D01*
X015817Y011879D01*
X015254Y012441D01*
X014629Y012441D01*
X014379Y012691D01*
X014379Y014567D01*
X018254Y009754D02*
X018504Y009504D01*
X018504Y008254D01*
X018316Y008066D01*
X019441Y006941D01*
X020629Y006941D01*
X019816Y005691D02*
X018379Y005691D01*
X017441Y007504D02*
X017441Y007879D01*
X017628Y008066D01*
X017941Y008066D01*
X018316Y008066D01*
X017441Y007504D02*
X017441Y003379D01*
X016760Y002698D01*
X015601Y002698D01*
X015594Y002691D01*
X015191Y002691D01*
X015067Y003254D02*
X015067Y004004D01*
X015691Y004629D01*
X016129Y004629D01*
X015067Y003254D02*
X014504Y002691D01*
X014413Y002691D01*
X013067Y002691D01*
X012441Y002067D01*
X011567Y002067D02*
X010700Y002067D01*
X010691Y002075D01*
X010337Y002941D02*
X009941Y002941D01*
X009254Y001441D02*
X005254Y001441D01*
X003629Y003067D01*
X003629Y003788D01*
X003094Y003788D01*
X002629Y004254D01*
X002629Y006691D01*
X001941Y007379D01*
X001254Y008067D01*
X001254Y014629D01*
X001254Y015754D01*
X007709Y022191D02*
X007709Y022567D01*
X007709Y023174D02*
X007709Y023583D01*
D48*
X007129Y023629D03*
X007129Y023191D03*
X007129Y022754D03*
X007129Y024067D03*
X007129Y024504D03*
X007129Y024879D03*
X007129Y025254D03*
X007129Y025629D03*
X007129Y026504D03*
X007129Y026817D03*
X007129Y027191D03*
X007129Y027567D03*
X007129Y028004D03*
X007129Y028754D03*
X007129Y029067D03*
X007129Y029441D03*
X007754Y028754D03*
X008067Y029441D03*
X008317Y029754D03*
X008317Y030254D03*
X008317Y030754D03*
X009191Y029754D03*
X009754Y029004D03*
X010317Y029754D03*
X010317Y030754D03*
X011129Y030754D03*
X011129Y029754D03*
X011941Y029754D03*
X012504Y029004D03*
X013067Y029754D03*
X013941Y029754D03*
X014317Y029441D03*
X013941Y030254D03*
X013941Y030754D03*
X012941Y030754D03*
X011941Y030754D03*
X011129Y028129D03*
X011879Y027754D03*
X012504Y027129D03*
X013004Y026504D03*
X013941Y026629D03*
X013817Y027191D03*
X014379Y027191D03*
X013941Y027754D03*
X013254Y027567D03*
X014629Y027879D03*
X015191Y027879D03*
X015191Y028817D03*
X015191Y029441D03*
X016379Y029441D03*
X016379Y028941D03*
X016379Y028441D03*
X016379Y028004D03*
X016379Y027567D03*
X016379Y027191D03*
X016379Y026817D03*
X016379Y026504D03*
X015941Y027191D03*
X015504Y027191D03*
X015004Y027191D03*
X015191Y026504D03*
X015191Y026067D03*
X015191Y025629D03*
X015191Y025129D03*
X015191Y024629D03*
X015191Y024129D03*
X015191Y023691D03*
X015191Y023254D03*
X015191Y022817D03*
X016379Y022817D03*
X016379Y022441D03*
X016379Y022004D03*
X016754Y020879D03*
X016754Y020504D03*
X016254Y020817D03*
X015754Y020817D03*
X015317Y020817D03*
X015754Y020191D03*
X016254Y019691D03*
X016941Y019191D03*
X017379Y018691D03*
X016941Y018317D03*
X017379Y017691D03*
X017129Y017129D03*
X017567Y016629D03*
X017629Y015754D03*
X018629Y015754D03*
X019254Y016754D03*
X018629Y017504D03*
X018629Y018254D03*
X017879Y018191D03*
X017879Y019191D03*
X017379Y019691D03*
X017879Y020191D03*
X017379Y020691D03*
X017879Y021191D03*
X018254Y021754D03*
X018629Y021254D03*
X019254Y021754D03*
X019254Y022754D03*
X019254Y023754D03*
X019254Y024754D03*
X019254Y025754D03*
X019254Y026754D03*
X019254Y027754D03*
X019254Y028754D03*
X018817Y029754D03*
X018254Y029754D03*
X017567Y029754D03*
X017441Y029191D03*
X016941Y028691D03*
X017441Y028254D03*
X016941Y027754D03*
X017441Y027254D03*
X016879Y026504D03*
X016941Y026067D03*
X016879Y025629D03*
X017441Y025254D03*
X017441Y024254D03*
X016941Y023629D03*
X016817Y023254D03*
X016379Y023254D03*
X016379Y024067D03*
X016817Y024067D03*
X016379Y024629D03*
X016379Y025129D03*
X016379Y025629D03*
X014629Y025629D03*
X014629Y026504D03*
X014129Y024379D03*
X012629Y021817D03*
X012083Y021504D03*
X010691Y020606D03*
X010317Y020067D03*
X010004Y020504D03*
X009691Y020067D03*
X010317Y019067D03*
X009691Y017004D03*
X009668Y016317D03*
X010004Y015941D03*
X009629Y015379D03*
X010317Y016691D03*
X008567Y016629D03*
X008527Y015872D03*
X007879Y015754D03*
X007379Y016629D03*
X007504Y017129D03*
X007504Y017691D03*
X006879Y017129D03*
X006567Y017567D03*
X006254Y018129D03*
X006004Y018691D03*
X006504Y019191D03*
X006004Y019879D03*
X005504Y020504D03*
X005504Y020879D03*
X006067Y020817D03*
X006567Y020817D03*
X007004Y020817D03*
X007504Y020879D03*
X007504Y020504D03*
X007129Y019879D03*
X006567Y020317D03*
X007504Y019191D03*
X007129Y018567D03*
X008090Y019691D03*
X008629Y019191D03*
X008129Y018691D03*
X008629Y018191D03*
X008629Y020191D03*
X008129Y020691D03*
X008090Y021129D03*
X005941Y021941D03*
X005941Y022379D03*
X005941Y022754D03*
X005941Y023191D03*
X005504Y023191D03*
X005191Y022754D03*
X005191Y023754D03*
X005504Y024129D03*
X005941Y024129D03*
X005941Y024629D03*
X005941Y025129D03*
X005941Y025629D03*
X005941Y026067D03*
X005941Y026504D03*
X005754Y027191D03*
X006254Y027191D03*
X006691Y027191D03*
X005941Y027879D03*
X005941Y028317D03*
X005941Y028691D03*
X005941Y029067D03*
X005941Y029441D03*
X005191Y028754D03*
X005004Y029441D03*
X004691Y029754D03*
X004691Y030254D03*
X004691Y030754D03*
X003691Y029754D03*
X003567Y030754D03*
X003379Y028754D03*
X003379Y027754D03*
X003379Y026754D03*
X003379Y025754D03*
X003379Y024754D03*
X003379Y023754D03*
X003379Y022754D03*
X004379Y022754D03*
X004379Y022004D03*
X003941Y021254D03*
X004379Y020879D03*
X004754Y020191D03*
X004754Y019691D03*
X004754Y019129D03*
X004379Y018691D03*
X003817Y018191D03*
X004379Y017691D03*
X004879Y017129D03*
X005191Y017567D03*
X005504Y018129D03*
X005504Y019191D03*
X005028Y021441D03*
X003379Y021567D03*
X002317Y021567D03*
X002317Y020629D03*
X002317Y019691D03*
X002129Y018504D03*
X001254Y018754D03*
X001254Y017754D03*
X001254Y016754D03*
X001879Y016504D03*
X002379Y016504D03*
X002879Y016504D03*
X002879Y017191D03*
X002254Y017441D03*
X003129Y018691D03*
X003379Y019691D03*
X001254Y019754D03*
X001254Y020754D03*
X001254Y021754D03*
X001254Y022754D03*
X001254Y023754D03*
X001254Y024754D03*
X001254Y025754D03*
X001254Y026754D03*
X001254Y027754D03*
X001254Y028754D03*
X002317Y028691D03*
X002317Y027754D03*
X002317Y026754D03*
X002317Y025754D03*
X002317Y024754D03*
X002317Y023754D03*
X002317Y022754D03*
X004379Y023754D03*
X004379Y024754D03*
X004379Y025754D03*
X004629Y026629D03*
X004504Y027191D03*
X004629Y027754D03*
X005191Y027879D03*
X005191Y027191D03*
X005191Y026504D03*
X005191Y025754D03*
X005191Y024754D03*
X007754Y026067D03*
X008129Y025629D03*
X008504Y026067D03*
X008504Y026817D03*
X007754Y026817D03*
X007754Y027754D03*
X008504Y027754D03*
X009191Y027754D03*
X009754Y027113D03*
X009254Y026504D03*
X010379Y027754D03*
X011129Y027191D03*
X011254Y025254D03*
X011254Y024504D03*
X011691Y023879D03*
X013629Y020879D03*
X014004Y020191D03*
X014004Y019691D03*
X014004Y019129D03*
X013629Y018691D03*
X013629Y017691D03*
X014129Y017129D03*
X014754Y017691D03*
X015129Y017129D03*
X015129Y016129D03*
X015567Y015754D03*
X016629Y015754D03*
X016629Y016629D03*
X016129Y017129D03*
X016254Y017691D03*
X015567Y018129D03*
X016254Y018691D03*
X015567Y019191D03*
X014754Y018754D03*
X014754Y019691D03*
X014754Y020504D03*
X014754Y020941D03*
X017317Y021441D03*
X017441Y022254D03*
X018254Y022754D03*
X018254Y023754D03*
X018254Y024754D03*
X018254Y025754D03*
X018254Y026754D03*
X018254Y027754D03*
X018254Y028754D03*
X017567Y030254D03*
X017567Y030754D03*
X018254Y030754D03*
X018941Y030754D03*
X020254Y028691D03*
X020254Y027754D03*
X020254Y026754D03*
X020254Y025754D03*
X020254Y024754D03*
X020254Y023754D03*
X020254Y022754D03*
X020254Y021754D03*
X020254Y020754D03*
X020254Y019754D03*
X021254Y019754D03*
X021254Y020754D03*
X021254Y021754D03*
X021254Y022754D03*
X021254Y023754D03*
X021254Y024754D03*
X021254Y025754D03*
X021254Y026754D03*
X021254Y027754D03*
X021254Y028754D03*
X019254Y020754D03*
X018629Y020254D03*
X019254Y019754D03*
X018629Y019254D03*
X019254Y018754D03*
X019254Y017754D03*
X020254Y017754D03*
X020254Y018754D03*
X021254Y018754D03*
X021254Y017754D03*
X021254Y016754D03*
X020567Y016754D03*
X020504Y015754D03*
X021254Y015754D03*
X019629Y015754D03*
X020379Y010254D03*
X020629Y006941D03*
X019629Y004567D03*
X018817Y003879D03*
X018941Y003441D03*
X017817Y002879D03*
X015191Y002691D03*
X013629Y003067D03*
X013629Y004567D03*
X012567Y006129D03*
X012254Y005817D03*
X011941Y005129D03*
X010567Y005817D03*
X009191Y005754D03*
X009191Y007067D03*
X008004Y006191D03*
X006504Y005567D03*
X005629Y007067D03*
X002941Y009441D03*
X004629Y011441D03*
X002941Y012504D03*
X002004Y012504D03*
X003317Y014191D03*
X003691Y015754D03*
X004254Y015754D03*
X004879Y015754D03*
X005567Y015754D03*
X005879Y016129D03*
X006317Y015754D03*
X007129Y015754D03*
X006191Y013817D03*
X007879Y011879D03*
X008567Y013817D03*
X010317Y009817D03*
X012441Y007691D03*
X009941Y003754D03*
X009941Y002941D03*
X009191Y004004D03*
X009254Y001441D03*
X011567Y001441D03*
X011567Y002067D03*
X012441Y002067D03*
X017441Y007504D03*
X015754Y009754D03*
X014379Y014567D03*
X014254Y016067D03*
X012379Y015817D03*
X012317Y016254D03*
X011941Y016691D03*
X011879Y017754D03*
X011879Y018629D03*
X011983Y014800D03*
X008129Y024504D03*
X008129Y024941D03*
X004379Y028754D03*
X009317Y030754D03*
X001254Y015754D03*
X001879Y015379D03*
X001254Y014629D03*
D49*
X009191Y015067D03*
X009997Y014254D03*
X010067Y013817D03*
X013004Y015817D03*
X013629Y016629D03*
X013067Y017191D03*
X013067Y018191D03*
X011754Y020691D03*
X010629Y021691D03*
X009504Y021441D03*
X009129Y023567D03*
X010629Y023839D03*
X011004Y023550D03*
X011817Y024879D03*
X011817Y025254D03*
X012833Y024668D03*
X013254Y023567D03*
X019629Y013129D03*
X018129Y012504D03*
X015004Y011333D03*
X014441Y011629D03*
X014129Y011356D03*
X014754Y012879D03*
D50*
X017629Y014941D02*
X017629Y014941D01*
X008754Y009629D02*
X008754Y009629D01*
X008754Y009129D02*
X008754Y009129D01*
X006629Y011567D02*
X006629Y011567D01*
X006504Y009629D02*
X006409Y009629D01*
X006409Y009629D01*
X007504Y005650D02*
X007504Y005650D01*
X007539Y013817D02*
X007539Y013896D01*
X007539Y013817D02*
X007459Y013817D01*
D51*
X006529Y021429D02*
X006529Y021429D01*
D52*
X002317Y030067D03*
X020191Y030067D03*
X020191Y002317D03*
X002317Y002317D03*
D53*
X006691Y027191D02*
X007129Y027191D01*
M02*
