G75*
G70*
%OFA0B0*%
%FSLAX24Y24*%
%IPPOS*%
%LPD*%
%AMOC8*
5,1,8,0,0,1.08239X$1,22.5*
%
%ADD10C,0.0160*%
%ADD11C,0.0050*%
%ADD12C,0.0080*%
%ADD13C,0.0060*%
%ADD14C,0.0040*%
%ADD15R,0.0160X0.0340*%
%ADD16R,0.0340X0.0160*%
%ADD17R,0.0374X0.0197*%
%ADD18R,0.0197X0.0374*%
D10*
X048183Y043184D02*
X048177Y043422D01*
X048160Y043659D01*
X048132Y043896D01*
X048093Y044130D01*
X048042Y044363D01*
X047980Y044593D01*
X047908Y044819D01*
X047825Y045042D01*
X047731Y045261D01*
X047627Y045475D01*
X047513Y045684D01*
X047389Y045887D01*
X047256Y046084D01*
X047113Y046275D01*
X046962Y046458D01*
X046802Y046634D01*
X046633Y046803D01*
X046457Y046963D01*
X046274Y047114D01*
X046083Y047257D01*
X045886Y047390D01*
X045683Y047514D01*
X045474Y047628D01*
X045260Y047732D01*
X045041Y047826D01*
X044818Y047909D01*
X044592Y047981D01*
X044362Y048043D01*
X044129Y048094D01*
X043895Y048133D01*
X043658Y048161D01*
X043421Y048178D01*
X043183Y048184D01*
X038683Y048184D01*
X038623Y048186D01*
X038562Y048191D01*
X038503Y048200D01*
X038444Y048213D01*
X038385Y048229D01*
X038328Y048249D01*
X038273Y048272D01*
X038218Y048299D01*
X038166Y048328D01*
X038115Y048361D01*
X038066Y048397D01*
X038020Y048435D01*
X037976Y048477D01*
X037934Y048521D01*
X037896Y048567D01*
X037860Y048616D01*
X037827Y048667D01*
X037798Y048719D01*
X037771Y048774D01*
X037748Y048829D01*
X037728Y048886D01*
X037712Y048945D01*
X037699Y049004D01*
X037690Y049063D01*
X037685Y049124D01*
X037683Y049184D01*
X037681Y049244D01*
X037676Y049305D01*
X037667Y049364D01*
X037654Y049423D01*
X037638Y049482D01*
X037618Y049539D01*
X037595Y049594D01*
X037568Y049649D01*
X037539Y049701D01*
X037506Y049752D01*
X037470Y049801D01*
X037432Y049847D01*
X037390Y049891D01*
X037346Y049933D01*
X037300Y049971D01*
X037251Y050007D01*
X037200Y050040D01*
X037148Y050069D01*
X037093Y050096D01*
X037038Y050119D01*
X036981Y050139D01*
X036922Y050155D01*
X036863Y050168D01*
X036804Y050177D01*
X036743Y050182D01*
X036683Y050184D01*
X023683Y050184D01*
X023534Y050042D01*
X023378Y049907D01*
X023216Y049780D01*
X023047Y049661D01*
X022874Y049550D01*
X022694Y049448D01*
X022511Y049355D01*
X022323Y049271D01*
X022131Y049196D01*
X021935Y049130D01*
X021737Y049074D01*
X021536Y049028D01*
X021333Y048991D01*
X021129Y048964D01*
X020923Y048948D01*
X020717Y048941D01*
X020511Y048944D01*
X020306Y048958D01*
X020101Y048981D01*
X019897Y049014D01*
X019696Y049057D01*
X019497Y049110D01*
X019300Y049173D01*
X019107Y049245D01*
X018918Y049326D01*
X018732Y049416D01*
X018552Y049515D01*
X018376Y049623D01*
X018206Y049739D01*
X018041Y049864D01*
X017883Y049996D01*
X017732Y050136D01*
X017587Y050282D01*
X017450Y050436D01*
X017320Y050596D01*
X017199Y050763D01*
X017085Y050935D01*
X016980Y051112D01*
X016884Y051295D01*
X016797Y051481D01*
X016719Y051672D01*
X016650Y051866D01*
X016591Y052064D01*
X016541Y052264D01*
X016501Y052466D01*
X016471Y052670D01*
X016451Y052875D01*
X016441Y053081D01*
X016441Y053287D01*
X016451Y053493D01*
X016471Y053698D01*
X016501Y053902D01*
X016541Y054104D01*
X016591Y054304D01*
X016650Y054502D01*
X016719Y054696D01*
X016797Y054887D01*
X016884Y055073D01*
X016980Y055256D01*
X017085Y055433D01*
X017199Y055605D01*
X017320Y055772D01*
X017450Y055932D01*
X017587Y056086D01*
X017732Y056232D01*
X017883Y056372D01*
X018041Y056504D01*
X018206Y056629D01*
X018376Y056745D01*
X018552Y056853D01*
X018732Y056952D01*
X018918Y057042D01*
X019107Y057123D01*
X019300Y057195D01*
X019497Y057258D01*
X019696Y057311D01*
X019897Y057354D01*
X020101Y057387D01*
X020306Y057410D01*
X020511Y057424D01*
X020717Y057427D01*
X020923Y057420D01*
X021129Y057404D01*
X021333Y057377D01*
X021536Y057340D01*
X021737Y057294D01*
X021935Y057238D01*
X022131Y057172D01*
X022323Y057097D01*
X022511Y057013D01*
X022694Y056920D01*
X022874Y056818D01*
X023047Y056707D01*
X023216Y056588D01*
X023378Y056461D01*
X023534Y056326D01*
X023683Y056184D01*
X036683Y056184D01*
X036743Y056186D01*
X036804Y056191D01*
X036863Y056200D01*
X036922Y056213D01*
X036981Y056229D01*
X037038Y056249D01*
X037093Y056272D01*
X037148Y056299D01*
X037200Y056328D01*
X037251Y056361D01*
X037300Y056397D01*
X037346Y056435D01*
X037390Y056477D01*
X037432Y056521D01*
X037470Y056567D01*
X037506Y056616D01*
X037539Y056667D01*
X037568Y056719D01*
X037595Y056774D01*
X037618Y056829D01*
X037638Y056886D01*
X037654Y056945D01*
X037667Y057004D01*
X037676Y057063D01*
X037681Y057124D01*
X037683Y057184D01*
X037685Y057244D01*
X037690Y057305D01*
X037699Y057364D01*
X037712Y057423D01*
X037728Y057482D01*
X037748Y057539D01*
X037771Y057594D01*
X037798Y057649D01*
X037827Y057701D01*
X037860Y057752D01*
X037896Y057801D01*
X037934Y057847D01*
X037976Y057891D01*
X038020Y057933D01*
X038066Y057971D01*
X038115Y058007D01*
X038166Y058040D01*
X038218Y058069D01*
X038273Y058096D01*
X038328Y058119D01*
X038385Y058139D01*
X038444Y058155D01*
X038503Y058168D01*
X038562Y058177D01*
X038623Y058182D01*
X038683Y058184D01*
X043183Y058184D01*
X043421Y058190D01*
X043658Y058207D01*
X043895Y058235D01*
X044129Y058274D01*
X044362Y058325D01*
X044592Y058387D01*
X044818Y058459D01*
X045041Y058542D01*
X045260Y058636D01*
X045474Y058740D01*
X045683Y058854D01*
X045886Y058978D01*
X046083Y059111D01*
X046274Y059254D01*
X046457Y059405D01*
X046633Y059565D01*
X046802Y059734D01*
X046962Y059910D01*
X047113Y060093D01*
X047256Y060284D01*
X047389Y060481D01*
X047513Y060684D01*
X047627Y060893D01*
X047731Y061107D01*
X047825Y061326D01*
X047908Y061549D01*
X047980Y061775D01*
X048042Y062005D01*
X048093Y062238D01*
X048132Y062472D01*
X048160Y062709D01*
X048177Y062946D01*
X048183Y063184D01*
X048183Y067684D01*
X048185Y067744D01*
X048190Y067805D01*
X048199Y067864D01*
X048212Y067923D01*
X048228Y067982D01*
X048248Y068039D01*
X048271Y068094D01*
X048298Y068149D01*
X048327Y068201D01*
X048360Y068252D01*
X048396Y068301D01*
X048434Y068347D01*
X048476Y068391D01*
X048520Y068433D01*
X048566Y068471D01*
X048615Y068507D01*
X048666Y068540D01*
X048718Y068569D01*
X048773Y068596D01*
X048828Y068619D01*
X048885Y068639D01*
X048944Y068655D01*
X049003Y068668D01*
X049062Y068677D01*
X049123Y068682D01*
X049183Y068684D01*
X049243Y068686D01*
X049304Y068691D01*
X049363Y068700D01*
X049422Y068713D01*
X049481Y068729D01*
X049538Y068749D01*
X049593Y068772D01*
X049648Y068799D01*
X049700Y068828D01*
X049751Y068861D01*
X049800Y068897D01*
X049846Y068935D01*
X049890Y068977D01*
X049932Y069021D01*
X049970Y069067D01*
X050006Y069116D01*
X050039Y069167D01*
X050068Y069219D01*
X050095Y069274D01*
X050118Y069329D01*
X050138Y069386D01*
X050154Y069445D01*
X050167Y069504D01*
X050176Y069563D01*
X050181Y069624D01*
X050183Y069684D01*
X050183Y082684D01*
X050041Y082833D01*
X049906Y082989D01*
X049779Y083151D01*
X049660Y083320D01*
X049549Y083493D01*
X049447Y083673D01*
X049354Y083856D01*
X049270Y084044D01*
X049195Y084236D01*
X049129Y084432D01*
X049073Y084630D01*
X049027Y084831D01*
X048990Y085034D01*
X048963Y085238D01*
X048947Y085444D01*
X048940Y085650D01*
X048943Y085856D01*
X048957Y086061D01*
X048980Y086266D01*
X049013Y086470D01*
X049056Y086671D01*
X049109Y086870D01*
X049172Y087067D01*
X049244Y087260D01*
X049325Y087449D01*
X049415Y087635D01*
X049514Y087815D01*
X049622Y087991D01*
X049738Y088161D01*
X049863Y088326D01*
X049995Y088484D01*
X050135Y088635D01*
X050281Y088780D01*
X050435Y088917D01*
X050595Y089047D01*
X050762Y089168D01*
X050934Y089282D01*
X051111Y089387D01*
X051294Y089483D01*
X051480Y089570D01*
X051671Y089648D01*
X051865Y089717D01*
X052063Y089776D01*
X052263Y089826D01*
X052465Y089866D01*
X052669Y089896D01*
X052874Y089916D01*
X053080Y089926D01*
X053286Y089926D01*
X053492Y089916D01*
X053697Y089896D01*
X053901Y089866D01*
X054103Y089826D01*
X054303Y089776D01*
X054501Y089717D01*
X054695Y089648D01*
X054886Y089570D01*
X055072Y089483D01*
X055255Y089387D01*
X055432Y089282D01*
X055604Y089168D01*
X055771Y089047D01*
X055931Y088917D01*
X056085Y088780D01*
X056231Y088635D01*
X056371Y088484D01*
X056503Y088326D01*
X056628Y088161D01*
X056744Y087991D01*
X056852Y087815D01*
X056951Y087635D01*
X057041Y087449D01*
X057122Y087260D01*
X057194Y087067D01*
X057257Y086870D01*
X057310Y086671D01*
X057353Y086470D01*
X057386Y086266D01*
X057409Y086061D01*
X057423Y085856D01*
X057426Y085650D01*
X057419Y085444D01*
X057403Y085238D01*
X057376Y085034D01*
X057339Y084831D01*
X057293Y084630D01*
X057237Y084432D01*
X057171Y084236D01*
X057096Y084044D01*
X057012Y083856D01*
X056919Y083673D01*
X056817Y083493D01*
X056706Y083320D01*
X056587Y083151D01*
X056460Y082989D01*
X056325Y082833D01*
X056183Y082684D01*
X056183Y069684D01*
X056185Y069624D01*
X056190Y069563D01*
X056199Y069504D01*
X056212Y069445D01*
X056228Y069386D01*
X056248Y069329D01*
X056271Y069274D01*
X056298Y069219D01*
X056327Y069167D01*
X056360Y069116D01*
X056396Y069067D01*
X056434Y069021D01*
X056476Y068977D01*
X056520Y068935D01*
X056566Y068897D01*
X056615Y068861D01*
X056666Y068828D01*
X056718Y068799D01*
X056773Y068772D01*
X056828Y068749D01*
X056885Y068729D01*
X056944Y068713D01*
X057003Y068700D01*
X057062Y068691D01*
X057123Y068686D01*
X057183Y068684D01*
X057243Y068682D01*
X057304Y068677D01*
X057363Y068668D01*
X057422Y068655D01*
X057481Y068639D01*
X057538Y068619D01*
X057593Y068596D01*
X057648Y068569D01*
X057700Y068540D01*
X057751Y068507D01*
X057800Y068471D01*
X057846Y068433D01*
X057890Y068391D01*
X057932Y068347D01*
X057970Y068301D01*
X058006Y068252D01*
X058039Y068201D01*
X058068Y068149D01*
X058095Y068094D01*
X058118Y068039D01*
X058138Y067982D01*
X058154Y067923D01*
X058167Y067864D01*
X058176Y067805D01*
X058181Y067744D01*
X058183Y067684D01*
X058183Y063184D01*
X058189Y062946D01*
X058206Y062709D01*
X058234Y062472D01*
X058273Y062238D01*
X058324Y062005D01*
X058386Y061775D01*
X058458Y061549D01*
X058541Y061326D01*
X058635Y061107D01*
X058739Y060893D01*
X058853Y060684D01*
X058977Y060481D01*
X059110Y060284D01*
X059253Y060093D01*
X059404Y059910D01*
X059564Y059734D01*
X059733Y059565D01*
X059909Y059405D01*
X060092Y059254D01*
X060283Y059111D01*
X060480Y058978D01*
X060683Y058854D01*
X060892Y058740D01*
X061106Y058636D01*
X061325Y058542D01*
X061548Y058459D01*
X061774Y058387D01*
X062004Y058325D01*
X062237Y058274D01*
X062471Y058235D01*
X062708Y058207D01*
X062945Y058190D01*
X063183Y058184D01*
X067683Y058184D01*
X067743Y058182D01*
X067804Y058177D01*
X067863Y058168D01*
X067922Y058155D01*
X067981Y058139D01*
X068038Y058119D01*
X068093Y058096D01*
X068148Y058069D01*
X068200Y058040D01*
X068251Y058007D01*
X068300Y057971D01*
X068346Y057933D01*
X068390Y057891D01*
X068432Y057847D01*
X068470Y057801D01*
X068506Y057752D01*
X068539Y057701D01*
X068568Y057649D01*
X068595Y057594D01*
X068618Y057539D01*
X068638Y057482D01*
X068654Y057423D01*
X068667Y057364D01*
X068676Y057305D01*
X068681Y057244D01*
X068683Y057184D01*
X068685Y057124D01*
X068690Y057063D01*
X068699Y057004D01*
X068712Y056945D01*
X068728Y056886D01*
X068748Y056829D01*
X068771Y056774D01*
X068798Y056719D01*
X068827Y056667D01*
X068860Y056616D01*
X068896Y056567D01*
X068934Y056521D01*
X068976Y056477D01*
X069020Y056435D01*
X069066Y056397D01*
X069115Y056361D01*
X069166Y056328D01*
X069218Y056299D01*
X069273Y056272D01*
X069328Y056249D01*
X069385Y056229D01*
X069444Y056213D01*
X069503Y056200D01*
X069562Y056191D01*
X069623Y056186D01*
X069683Y056184D01*
X082683Y056184D01*
X082834Y056328D01*
X082991Y056464D01*
X083155Y056592D01*
X083326Y056712D01*
X083502Y056823D01*
X083683Y056926D01*
X083869Y057020D01*
X084059Y057104D01*
X084254Y057179D01*
X084451Y057244D01*
X084652Y057300D01*
X084855Y057345D01*
X085060Y057381D01*
X085267Y057407D01*
X085475Y057422D01*
X085683Y057427D01*
X085891Y057422D01*
X086099Y057407D01*
X086306Y057381D01*
X086511Y057345D01*
X086714Y057300D01*
X086915Y057244D01*
X087112Y057179D01*
X087307Y057104D01*
X087497Y057020D01*
X087683Y056926D01*
X087864Y056823D01*
X088040Y056712D01*
X088211Y056592D01*
X088375Y056464D01*
X088532Y056328D01*
X088683Y056184D01*
X088827Y056033D01*
X088963Y055876D01*
X089091Y055712D01*
X089211Y055541D01*
X089322Y055365D01*
X089425Y055184D01*
X089519Y054998D01*
X089603Y054808D01*
X089678Y054613D01*
X089743Y054416D01*
X089799Y054215D01*
X089844Y054012D01*
X089880Y053807D01*
X089906Y053600D01*
X089921Y053392D01*
X089926Y053184D01*
X089921Y052976D01*
X089906Y052768D01*
X089880Y052561D01*
X089844Y052356D01*
X089799Y052153D01*
X089743Y051952D01*
X089678Y051755D01*
X089603Y051560D01*
X089519Y051370D01*
X089425Y051184D01*
X089322Y051003D01*
X089211Y050827D01*
X089091Y050656D01*
X088963Y050492D01*
X088827Y050335D01*
X088683Y050184D01*
X088532Y050040D01*
X088375Y049904D01*
X088211Y049776D01*
X088040Y049656D01*
X087864Y049545D01*
X087683Y049442D01*
X087497Y049348D01*
X087307Y049264D01*
X087112Y049189D01*
X086915Y049124D01*
X086714Y049068D01*
X086511Y049023D01*
X086306Y048987D01*
X086099Y048961D01*
X085891Y048946D01*
X085683Y048941D01*
X085475Y048946D01*
X085267Y048961D01*
X085060Y048987D01*
X084855Y049023D01*
X084652Y049068D01*
X084451Y049124D01*
X084254Y049189D01*
X084059Y049264D01*
X083869Y049348D01*
X083683Y049442D01*
X083502Y049545D01*
X083326Y049656D01*
X083155Y049776D01*
X082991Y049904D01*
X082834Y050040D01*
X082683Y050184D01*
X069683Y050184D01*
X069623Y050182D01*
X069562Y050177D01*
X069503Y050168D01*
X069444Y050155D01*
X069385Y050139D01*
X069328Y050119D01*
X069273Y050096D01*
X069218Y050069D01*
X069166Y050040D01*
X069115Y050007D01*
X069066Y049971D01*
X069020Y049933D01*
X068976Y049891D01*
X068934Y049847D01*
X068896Y049801D01*
X068860Y049752D01*
X068827Y049701D01*
X068798Y049649D01*
X068771Y049594D01*
X068748Y049539D01*
X068728Y049482D01*
X068712Y049423D01*
X068699Y049364D01*
X068690Y049305D01*
X068685Y049244D01*
X068683Y049184D01*
X068681Y049124D01*
X068676Y049063D01*
X068667Y049004D01*
X068654Y048945D01*
X068638Y048886D01*
X068618Y048829D01*
X068595Y048774D01*
X068568Y048719D01*
X068539Y048667D01*
X068506Y048616D01*
X068470Y048567D01*
X068432Y048521D01*
X068390Y048477D01*
X068346Y048435D01*
X068300Y048397D01*
X068251Y048361D01*
X068200Y048328D01*
X068148Y048299D01*
X068093Y048272D01*
X068038Y048249D01*
X067981Y048229D01*
X067922Y048213D01*
X067863Y048200D01*
X067804Y048191D01*
X067743Y048186D01*
X067683Y048184D01*
X063183Y048184D01*
X062945Y048178D01*
X062708Y048161D01*
X062471Y048133D01*
X062237Y048094D01*
X062004Y048043D01*
X061774Y047981D01*
X061548Y047909D01*
X061325Y047826D01*
X061106Y047732D01*
X060892Y047628D01*
X060683Y047514D01*
X060480Y047390D01*
X060283Y047257D01*
X060092Y047114D01*
X059909Y046963D01*
X059733Y046803D01*
X059564Y046634D01*
X059404Y046458D01*
X059253Y046275D01*
X059110Y046084D01*
X058977Y045887D01*
X058853Y045684D01*
X058739Y045475D01*
X058635Y045261D01*
X058541Y045042D01*
X058458Y044819D01*
X058386Y044593D01*
X058324Y044363D01*
X058273Y044130D01*
X058234Y043896D01*
X058206Y043659D01*
X058189Y043422D01*
X058183Y043184D01*
X058183Y038684D01*
X058181Y038624D01*
X058176Y038563D01*
X058167Y038504D01*
X058154Y038445D01*
X058138Y038386D01*
X058118Y038329D01*
X058095Y038274D01*
X058068Y038219D01*
X058039Y038167D01*
X058006Y038116D01*
X057970Y038067D01*
X057932Y038021D01*
X057890Y037977D01*
X057846Y037935D01*
X057800Y037897D01*
X057751Y037861D01*
X057700Y037828D01*
X057648Y037799D01*
X057593Y037772D01*
X057538Y037749D01*
X057481Y037729D01*
X057422Y037713D01*
X057363Y037700D01*
X057304Y037691D01*
X057243Y037686D01*
X057183Y037684D01*
X057120Y037682D01*
X057058Y037676D01*
X056996Y037666D01*
X056934Y037653D01*
X056874Y037635D01*
X056815Y037614D01*
X056757Y037589D01*
X056701Y037560D01*
X056647Y037528D01*
X056595Y037493D01*
X056546Y037455D01*
X056498Y037413D01*
X056454Y037369D01*
X056412Y037321D01*
X056374Y037272D01*
X056339Y037220D01*
X056307Y037166D01*
X056278Y037110D01*
X056253Y037052D01*
X056232Y036993D01*
X056214Y036933D01*
X056201Y036871D01*
X056191Y036809D01*
X056185Y036747D01*
X056183Y036684D01*
X056183Y023684D01*
X056325Y023535D01*
X056460Y023379D01*
X056587Y023217D01*
X056706Y023048D01*
X056817Y022875D01*
X056919Y022695D01*
X057012Y022512D01*
X057096Y022324D01*
X057171Y022132D01*
X057237Y021936D01*
X057293Y021738D01*
X057339Y021537D01*
X057376Y021334D01*
X057403Y021130D01*
X057419Y020924D01*
X057426Y020718D01*
X057423Y020512D01*
X057409Y020307D01*
X057386Y020102D01*
X057353Y019898D01*
X057310Y019697D01*
X057257Y019498D01*
X057194Y019301D01*
X057122Y019108D01*
X057041Y018919D01*
X056951Y018733D01*
X056852Y018553D01*
X056744Y018377D01*
X056628Y018207D01*
X056503Y018042D01*
X056371Y017884D01*
X056231Y017733D01*
X056085Y017588D01*
X055931Y017451D01*
X055771Y017321D01*
X055604Y017200D01*
X055432Y017086D01*
X055255Y016981D01*
X055072Y016885D01*
X054886Y016798D01*
X054695Y016720D01*
X054501Y016651D01*
X054303Y016592D01*
X054103Y016542D01*
X053901Y016502D01*
X053697Y016472D01*
X053492Y016452D01*
X053286Y016442D01*
X053080Y016442D01*
X052874Y016452D01*
X052669Y016472D01*
X052465Y016502D01*
X052263Y016542D01*
X052063Y016592D01*
X051865Y016651D01*
X051671Y016720D01*
X051480Y016798D01*
X051294Y016885D01*
X051111Y016981D01*
X050934Y017086D01*
X050762Y017200D01*
X050595Y017321D01*
X050435Y017451D01*
X050281Y017588D01*
X050135Y017733D01*
X049995Y017884D01*
X049863Y018042D01*
X049738Y018207D01*
X049622Y018377D01*
X049514Y018553D01*
X049415Y018733D01*
X049325Y018919D01*
X049244Y019108D01*
X049172Y019301D01*
X049109Y019498D01*
X049056Y019697D01*
X049013Y019898D01*
X048980Y020102D01*
X048957Y020307D01*
X048943Y020512D01*
X048940Y020718D01*
X048947Y020924D01*
X048963Y021130D01*
X048990Y021334D01*
X049027Y021537D01*
X049073Y021738D01*
X049129Y021936D01*
X049195Y022132D01*
X049270Y022324D01*
X049354Y022512D01*
X049447Y022695D01*
X049549Y022875D01*
X049660Y023048D01*
X049779Y023217D01*
X049906Y023379D01*
X050041Y023535D01*
X050183Y023684D01*
X050183Y036684D01*
X050181Y036747D01*
X050175Y036809D01*
X050165Y036871D01*
X050152Y036933D01*
X050134Y036993D01*
X050113Y037052D01*
X050088Y037110D01*
X050059Y037166D01*
X050027Y037220D01*
X049992Y037272D01*
X049954Y037321D01*
X049912Y037369D01*
X049868Y037413D01*
X049820Y037455D01*
X049771Y037493D01*
X049719Y037528D01*
X049665Y037560D01*
X049609Y037589D01*
X049551Y037614D01*
X049492Y037635D01*
X049432Y037653D01*
X049370Y037666D01*
X049308Y037676D01*
X049246Y037682D01*
X049183Y037684D01*
X049120Y037686D01*
X049058Y037692D01*
X048996Y037702D01*
X048934Y037715D01*
X048874Y037733D01*
X048815Y037754D01*
X048757Y037779D01*
X048701Y037808D01*
X048647Y037840D01*
X048595Y037875D01*
X048546Y037913D01*
X048498Y037955D01*
X048454Y037999D01*
X048412Y038047D01*
X048374Y038096D01*
X048339Y038148D01*
X048307Y038202D01*
X048278Y038258D01*
X048253Y038316D01*
X048232Y038375D01*
X048214Y038435D01*
X048201Y038497D01*
X048191Y038559D01*
X048185Y038621D01*
X048183Y038684D01*
X048183Y043184D01*
D11*
X049984Y044476D02*
X049984Y040893D01*
X056382Y040893D01*
X056382Y044476D01*
X049984Y044476D01*
X050240Y044220D02*
X050240Y041149D01*
X056126Y041149D01*
X056126Y044220D01*
X050240Y044220D01*
X055742Y041405D02*
X055744Y041427D01*
X055750Y041449D01*
X055759Y041469D01*
X055772Y041487D01*
X055788Y041503D01*
X055806Y041516D01*
X055826Y041525D01*
X055848Y041531D01*
X055870Y041533D01*
X055892Y041531D01*
X055914Y041525D01*
X055934Y041516D01*
X055952Y041503D01*
X055968Y041487D01*
X055981Y041469D01*
X055990Y041449D01*
X055996Y041427D01*
X055998Y041405D01*
X055996Y041383D01*
X055990Y041361D01*
X055981Y041341D01*
X055968Y041323D01*
X055952Y041307D01*
X055934Y041294D01*
X055914Y041285D01*
X055892Y041279D01*
X055870Y041277D01*
X055848Y041279D01*
X055826Y041285D01*
X055806Y041294D01*
X055788Y041307D01*
X055772Y041323D01*
X055759Y041341D01*
X055750Y041361D01*
X055744Y041383D01*
X055742Y041405D01*
X061892Y049986D02*
X065474Y049986D01*
X065474Y056383D01*
X061892Y056383D01*
X061892Y049986D01*
X062148Y050241D02*
X065219Y050241D01*
X065219Y056127D01*
X062148Y056127D01*
X062148Y050241D01*
X064835Y055871D02*
X064837Y055893D01*
X064843Y055915D01*
X064852Y055935D01*
X064865Y055953D01*
X064881Y055969D01*
X064899Y055982D01*
X064919Y055991D01*
X064941Y055997D01*
X064963Y055999D01*
X064985Y055997D01*
X065007Y055991D01*
X065027Y055982D01*
X065045Y055969D01*
X065061Y055953D01*
X065074Y055935D01*
X065083Y055915D01*
X065089Y055893D01*
X065091Y055871D01*
X065089Y055849D01*
X065083Y055827D01*
X065074Y055807D01*
X065061Y055789D01*
X065045Y055773D01*
X065027Y055760D01*
X065007Y055751D01*
X064985Y055745D01*
X064963Y055743D01*
X064941Y055745D01*
X064919Y055751D01*
X064899Y055760D01*
X064881Y055773D01*
X064865Y055789D01*
X064852Y055807D01*
X064843Y055827D01*
X064837Y055849D01*
X064835Y055871D01*
X056382Y061893D02*
X056382Y065476D01*
X049984Y065476D01*
X049984Y061893D01*
X056382Y061893D01*
X056126Y062149D02*
X056126Y065220D01*
X050240Y065220D01*
X050240Y062149D01*
X056126Y062149D01*
X050368Y064964D02*
X050370Y064986D01*
X050376Y065008D01*
X050385Y065028D01*
X050398Y065046D01*
X050414Y065062D01*
X050432Y065075D01*
X050452Y065084D01*
X050474Y065090D01*
X050496Y065092D01*
X050518Y065090D01*
X050540Y065084D01*
X050560Y065075D01*
X050578Y065062D01*
X050594Y065046D01*
X050607Y065028D01*
X050616Y065008D01*
X050622Y064986D01*
X050624Y064964D01*
X050622Y064942D01*
X050616Y064920D01*
X050607Y064900D01*
X050594Y064882D01*
X050578Y064866D01*
X050560Y064853D01*
X050540Y064844D01*
X050518Y064838D01*
X050496Y064836D01*
X050474Y064838D01*
X050452Y064844D01*
X050432Y064853D01*
X050414Y064866D01*
X050398Y064882D01*
X050385Y064900D01*
X050376Y064920D01*
X050370Y064942D01*
X050368Y064964D01*
X044474Y056383D02*
X040892Y056383D01*
X040892Y049986D01*
X044474Y049986D01*
X044474Y056383D01*
X044219Y056127D02*
X041148Y056127D01*
X041148Y050241D01*
X044219Y050241D01*
X044219Y056127D01*
X041276Y050497D02*
X041278Y050519D01*
X041284Y050541D01*
X041293Y050561D01*
X041306Y050579D01*
X041322Y050595D01*
X041340Y050608D01*
X041360Y050617D01*
X041382Y050623D01*
X041404Y050625D01*
X041426Y050623D01*
X041448Y050617D01*
X041468Y050608D01*
X041486Y050595D01*
X041502Y050579D01*
X041515Y050561D01*
X041524Y050541D01*
X041530Y050519D01*
X041532Y050497D01*
X041530Y050475D01*
X041524Y050453D01*
X041515Y050433D01*
X041502Y050415D01*
X041486Y050399D01*
X041468Y050386D01*
X041448Y050377D01*
X041426Y050371D01*
X041404Y050369D01*
X041382Y050371D01*
X041360Y050377D01*
X041340Y050386D01*
X041322Y050399D01*
X041306Y050415D01*
X041293Y050433D01*
X041284Y050453D01*
X041278Y050475D01*
X041276Y050497D01*
D12*
X049794Y049352D02*
X052285Y046862D01*
X056832Y046862D01*
X059322Y049352D01*
X059322Y059747D01*
X049794Y059747D01*
X049794Y049352D01*
D13*
X051258Y051805D02*
X057486Y051805D01*
X057486Y053894D02*
X051258Y053894D01*
X045573Y049354D02*
X045573Y049014D01*
X045293Y049014D02*
X045293Y049354D01*
X044573Y049354D02*
X044573Y049014D01*
X044293Y049014D02*
X044293Y049354D01*
X043573Y049354D02*
X043573Y049014D01*
X043293Y049014D02*
X043293Y049354D01*
X042573Y049354D02*
X042573Y049014D01*
X042293Y049014D02*
X042293Y049354D01*
X041573Y049354D02*
X041573Y049014D01*
X041293Y049014D02*
X041293Y049354D01*
X040573Y049354D02*
X040573Y049014D01*
X040293Y049014D02*
X040293Y049354D01*
X038853Y051669D02*
X038513Y051669D01*
X038513Y051950D02*
X038853Y051950D01*
X038853Y052669D02*
X038513Y052669D01*
X038513Y052950D02*
X038853Y052950D01*
X038853Y053669D02*
X038513Y053669D01*
X038513Y053950D02*
X038853Y053950D01*
X039793Y057014D02*
X039793Y057354D01*
X040073Y057354D02*
X040073Y057014D01*
X040793Y057014D02*
X040793Y057354D01*
X041073Y057354D02*
X041073Y057014D01*
X049013Y060794D02*
X049353Y060794D01*
X049353Y061075D02*
X049013Y061075D01*
X049013Y061794D02*
X049353Y061794D01*
X049353Y062075D02*
X049013Y062075D01*
X049013Y062794D02*
X049353Y062794D01*
X049353Y063075D02*
X049013Y063075D01*
X049013Y063794D02*
X049353Y063794D01*
X049353Y064075D02*
X049013Y064075D01*
X049013Y064794D02*
X049353Y064794D01*
X049353Y065075D02*
X049013Y065075D01*
X049013Y065794D02*
X049353Y065794D01*
X049353Y066075D02*
X049013Y066075D01*
X051668Y067514D02*
X051668Y067854D01*
X051948Y067854D02*
X051948Y067514D01*
X052668Y067514D02*
X052668Y067854D01*
X052948Y067854D02*
X052948Y067514D01*
X053668Y067514D02*
X053668Y067854D01*
X053948Y067854D02*
X053948Y067514D01*
X057013Y066575D02*
X057353Y066575D01*
X057353Y066294D02*
X057013Y066294D01*
X057013Y065575D02*
X057353Y065575D01*
X057353Y065294D02*
X057013Y065294D01*
X060793Y057354D02*
X060793Y057014D01*
X061073Y057014D02*
X061073Y057354D01*
X061793Y057354D02*
X061793Y057014D01*
X062073Y057014D02*
X062073Y057354D01*
X062793Y057354D02*
X062793Y057014D01*
X063073Y057014D02*
X063073Y057354D01*
X063793Y057354D02*
X063793Y057014D01*
X064073Y057014D02*
X064073Y057354D01*
X064793Y057354D02*
X064793Y057014D01*
X065073Y057014D02*
X065073Y057354D01*
X065793Y057354D02*
X065793Y057014D01*
X066073Y057014D02*
X066073Y057354D01*
X067513Y054700D02*
X067853Y054700D01*
X067853Y054419D02*
X067513Y054419D01*
X067513Y053700D02*
X067853Y053700D01*
X067853Y053419D02*
X067513Y053419D01*
X067513Y052700D02*
X067853Y052700D01*
X067853Y052419D02*
X067513Y052419D01*
X066573Y049354D02*
X066573Y049014D01*
X066293Y049014D02*
X066293Y049354D01*
X065573Y049354D02*
X065573Y049014D01*
X065293Y049014D02*
X065293Y049354D01*
X057353Y045575D02*
X057013Y045575D01*
X057013Y045294D02*
X057353Y045294D01*
X057353Y044575D02*
X057013Y044575D01*
X057013Y044294D02*
X057353Y044294D01*
X057353Y043575D02*
X057013Y043575D01*
X057013Y043294D02*
X057353Y043294D01*
X057353Y042575D02*
X057013Y042575D01*
X057013Y042294D02*
X057353Y042294D01*
X057353Y041575D02*
X057013Y041575D01*
X057013Y041294D02*
X057353Y041294D01*
X057353Y040575D02*
X057013Y040575D01*
X057013Y040294D02*
X057353Y040294D01*
X054698Y038854D02*
X054698Y038514D01*
X054418Y038514D02*
X054418Y038854D01*
X053698Y038854D02*
X053698Y038514D01*
X053418Y038514D02*
X053418Y038854D01*
X052698Y038854D02*
X052698Y038514D01*
X052418Y038514D02*
X052418Y038854D01*
X049353Y039794D02*
X049013Y039794D01*
X049013Y040075D02*
X049353Y040075D01*
X049353Y040794D02*
X049013Y040794D01*
X049013Y041075D02*
X049353Y041075D01*
D14*
X049323Y041769D02*
X049043Y041769D01*
X049043Y042104D02*
X049323Y042104D01*
X049323Y042769D02*
X049043Y042769D01*
X049043Y043104D02*
X049323Y043104D01*
X049323Y043769D02*
X049043Y043769D01*
X049043Y044104D02*
X049323Y044104D01*
X049323Y044769D02*
X049043Y044769D01*
X049043Y045104D02*
X049323Y045104D01*
X049323Y038854D02*
X049043Y038854D01*
X049043Y038519D02*
X049323Y038519D01*
X050388Y038544D02*
X050388Y038825D01*
X050723Y038825D02*
X050723Y038544D01*
X057043Y039269D02*
X057323Y039269D01*
X057323Y039604D02*
X057043Y039604D01*
X061263Y049044D02*
X061263Y049325D01*
X061598Y049325D02*
X061598Y049044D01*
X062263Y049044D02*
X062263Y049325D01*
X062598Y049325D02*
X062598Y049044D01*
X063263Y049044D02*
X063263Y049325D01*
X063598Y049325D02*
X063598Y049044D01*
X064263Y049044D02*
X064263Y049325D01*
X064598Y049325D02*
X064598Y049044D01*
X067513Y049044D02*
X067513Y049325D01*
X067848Y049325D02*
X067848Y049044D01*
X067823Y050389D02*
X067543Y050389D01*
X067543Y050724D02*
X067823Y050724D01*
X067098Y057044D02*
X067098Y057325D01*
X066763Y057325D02*
X066763Y057044D01*
X057403Y053148D02*
X057497Y052770D01*
X057497Y052578D01*
X057475Y052556D01*
X057403Y052501D01*
X057343Y052479D01*
X056482Y052479D01*
X056449Y052485D01*
X056384Y052507D01*
X056296Y052562D01*
X056247Y052633D01*
X056181Y052764D01*
X056164Y052825D01*
X056055Y053313D01*
X056044Y053400D01*
X056044Y053455D01*
X056060Y053516D01*
X056088Y053554D01*
X056131Y053587D01*
X056175Y053598D01*
X057261Y053598D01*
X057338Y053411D01*
X057266Y053422D01*
X056477Y053422D01*
X056455Y053406D01*
X056449Y053368D01*
X056460Y053335D01*
X056504Y053148D01*
X057403Y053148D01*
X057031Y052978D02*
X056559Y052978D01*
X056554Y052973D01*
X056592Y052748D01*
X056608Y052704D01*
X056630Y052666D01*
X056663Y052649D01*
X057053Y052649D01*
X057074Y052655D01*
X057091Y052671D01*
X057091Y052743D01*
X057031Y052978D01*
X056038Y052770D02*
X055945Y053148D01*
X055046Y053148D01*
X055002Y053335D01*
X054991Y053368D01*
X054997Y053406D01*
X055019Y053422D01*
X055808Y053422D01*
X055879Y053411D01*
X055803Y053598D01*
X054717Y053598D01*
X054673Y053587D01*
X054629Y053554D01*
X054602Y053516D01*
X054586Y053455D01*
X054586Y053400D01*
X054596Y053313D01*
X054706Y052825D01*
X054723Y052764D01*
X054788Y052633D01*
X054838Y052562D01*
X054925Y052507D01*
X054991Y052485D01*
X055024Y052479D01*
X055885Y052479D01*
X055945Y052501D01*
X056016Y052556D01*
X056038Y052578D01*
X056038Y052770D01*
X055633Y052743D02*
X055572Y052978D01*
X055101Y052978D01*
X055095Y052973D01*
X055134Y052748D01*
X055150Y052704D01*
X055172Y052666D01*
X055205Y052649D01*
X055594Y052649D01*
X055616Y052655D01*
X055633Y052671D01*
X055633Y052743D01*
X054629Y052375D02*
X054564Y052649D01*
X054542Y052704D01*
X054459Y052786D01*
X054394Y052814D01*
X054306Y052836D01*
X054196Y052836D01*
X054355Y052858D01*
X054470Y052912D01*
X054476Y052923D01*
X054476Y053071D01*
X054416Y053313D01*
X054377Y053373D01*
X054366Y053439D01*
X054284Y053532D01*
X054218Y053565D01*
X054114Y053598D01*
X052212Y053598D01*
X052245Y053537D01*
X052245Y053499D01*
X052069Y053066D01*
X051614Y053510D01*
X051565Y053598D01*
X051241Y053598D01*
X051378Y053499D01*
X052014Y052902D01*
X051702Y052139D01*
X051642Y052079D01*
X052245Y052079D01*
X052245Y052112D01*
X052228Y052145D01*
X052245Y052172D01*
X052245Y052200D01*
X052382Y052545D01*
X052771Y052161D01*
X052793Y052134D01*
X052809Y052101D01*
X052815Y052079D01*
X053160Y052079D01*
X053089Y052129D01*
X053034Y052167D01*
X052957Y052233D01*
X052442Y052715D01*
X052749Y053472D01*
X052837Y053592D01*
X052853Y053592D01*
X052886Y053559D01*
X052930Y053428D01*
X052996Y053181D01*
X053072Y052869D01*
X053215Y052288D01*
X053237Y052189D01*
X053237Y052079D01*
X054481Y052079D01*
X054547Y052096D01*
X054591Y052123D01*
X054624Y052183D01*
X054646Y052238D01*
X054646Y052331D01*
X054629Y052375D01*
X054213Y052381D02*
X054136Y052671D01*
X054120Y052710D01*
X054087Y052732D01*
X053538Y052732D01*
X053654Y052266D01*
X054158Y052266D01*
X054207Y052293D01*
X054213Y052381D01*
X053999Y052929D02*
X054043Y052945D01*
X054070Y052984D01*
X054070Y053000D01*
X053988Y053324D01*
X053966Y053357D01*
X053928Y053400D01*
X053906Y053411D01*
X053374Y053411D01*
X053500Y052929D01*
X053999Y052929D01*
X054810Y054201D02*
X054860Y054228D01*
X055057Y054228D01*
X055216Y054245D01*
X055326Y054310D01*
X055353Y054360D01*
X055353Y054382D01*
X055331Y054431D01*
X055298Y054469D01*
X055232Y054513D01*
X054991Y054634D01*
X054865Y054683D01*
X054766Y054705D01*
X054734Y054711D01*
X054695Y054711D01*
X054679Y054760D01*
X054646Y054859D01*
X054618Y054946D01*
X054596Y054985D01*
X054586Y055007D01*
X054564Y055018D01*
X054536Y055001D01*
X054514Y054968D01*
X054514Y054930D01*
X054525Y054886D01*
X054575Y054782D01*
X054607Y054705D01*
X054618Y054634D01*
X054635Y054568D01*
X054662Y054480D01*
X054690Y054415D01*
X054717Y054371D01*
X054673Y054371D01*
X054673Y054278D01*
X054723Y054278D01*
X054766Y054245D01*
X054810Y054201D01*
X054865Y054338D02*
X054854Y054365D01*
X054755Y054568D01*
X054821Y054568D01*
X054865Y054563D01*
X054936Y054535D01*
X055035Y054508D01*
X055106Y054459D01*
X055194Y054415D01*
X055221Y054393D01*
X055227Y054376D01*
X055211Y054365D01*
X055145Y054338D01*
X054865Y054338D01*
X055550Y054305D02*
X055556Y054272D01*
X055589Y054239D01*
X055649Y054217D01*
X055720Y054190D01*
X056038Y054190D01*
X056104Y054206D01*
X056181Y054234D01*
X056225Y054261D01*
X056263Y054305D01*
X056274Y054332D01*
X056247Y054382D01*
X056247Y054426D01*
X056203Y054469D01*
X056142Y054508D01*
X056022Y054563D01*
X055907Y054634D01*
X055852Y054667D01*
X055934Y054749D01*
X056038Y054820D01*
X056115Y054881D01*
X056159Y054935D01*
X056181Y054990D01*
X056186Y055023D01*
X056170Y055056D01*
X056153Y055062D01*
X056110Y055029D01*
X055896Y054859D01*
X055693Y054722D01*
X055655Y054722D01*
X055644Y054760D01*
X055605Y054870D01*
X055572Y054968D01*
X055550Y055023D01*
X055550Y055056D01*
X055490Y055001D01*
X055485Y054919D01*
X055496Y054864D01*
X055545Y054689D01*
X055572Y054590D01*
X055633Y054453D01*
X055671Y054382D01*
X055687Y054343D01*
X055649Y054338D01*
X055605Y054371D01*
X055605Y054365D01*
X055589Y054343D01*
X055561Y054327D01*
X055550Y054305D01*
X055841Y054321D02*
X055835Y054376D01*
X055731Y054563D01*
X055797Y054530D01*
X055879Y054513D01*
X055951Y054475D01*
X056027Y054431D01*
X056082Y054376D01*
X056121Y054365D01*
X056104Y054332D01*
X056038Y054321D01*
X055841Y054321D01*
X056444Y054574D02*
X056592Y054426D01*
X056800Y054250D01*
X056916Y054190D01*
X056921Y054190D02*
X056976Y054212D01*
X057014Y054256D01*
X057020Y054283D01*
X057096Y054305D01*
X057206Y054382D01*
X057299Y054459D01*
X057327Y054563D01*
X057316Y054634D01*
X057255Y054744D01*
X057151Y054826D01*
X057074Y054903D01*
X056932Y054935D01*
X056828Y055001D01*
X056669Y055023D01*
X056543Y055023D01*
X056449Y054963D01*
X056395Y054859D01*
X056400Y054749D01*
X056428Y054617D01*
X056444Y054574D01*
X056565Y054656D02*
X056658Y054530D01*
X056800Y054420D01*
X056861Y054376D01*
X056998Y054376D01*
X057064Y054398D01*
X057184Y054524D01*
X057184Y054656D01*
X057074Y054733D01*
X056959Y054798D01*
X056822Y054842D01*
X056691Y054892D01*
X056559Y054897D01*
X056510Y054870D01*
X056515Y054815D01*
X056565Y054656D01*
X057043Y061264D02*
X057323Y061264D01*
X057323Y061599D02*
X057043Y061599D01*
X057043Y062264D02*
X057323Y062264D01*
X057323Y062599D02*
X057043Y062599D01*
X057043Y063264D02*
X057323Y063264D01*
X057323Y063599D02*
X057043Y063599D01*
X057043Y064264D02*
X057323Y064264D01*
X057323Y064599D02*
X057043Y064599D01*
X057043Y067514D02*
X057323Y067514D01*
X057323Y067849D02*
X057043Y067849D01*
X055978Y067825D02*
X055978Y067544D01*
X055643Y067544D02*
X055643Y067825D01*
X049323Y067099D02*
X049043Y067099D01*
X049043Y066764D02*
X049323Y066764D01*
X045103Y057325D02*
X045103Y057044D01*
X044768Y057044D02*
X044768Y057325D01*
X044103Y057325D02*
X044103Y057044D01*
X043768Y057044D02*
X043768Y057325D01*
X043103Y057325D02*
X043103Y057044D01*
X042768Y057044D02*
X042768Y057325D01*
X042103Y057325D02*
X042103Y057044D01*
X041768Y057044D02*
X041768Y057325D01*
X038853Y057325D02*
X038853Y057044D01*
X038518Y057044D02*
X038518Y057325D01*
X038543Y055979D02*
X038823Y055979D01*
X038823Y055644D02*
X038543Y055644D01*
X039268Y049325D02*
X039268Y049044D01*
X039603Y049044D02*
X039603Y049325D01*
D15*
X038933Y051809D03*
X038433Y051809D03*
X038433Y052809D03*
X038933Y052809D03*
X038933Y053809D03*
X038433Y053809D03*
X048933Y060934D03*
X049433Y060934D03*
X049433Y061934D03*
X048933Y061934D03*
X048933Y062934D03*
X049433Y062934D03*
X049433Y063934D03*
X048933Y063934D03*
X048933Y064934D03*
X049433Y064934D03*
X049433Y065934D03*
X048933Y065934D03*
X056933Y065434D03*
X057433Y065434D03*
X057433Y066434D03*
X056933Y066434D03*
X067433Y054559D03*
X067933Y054559D03*
X067933Y053559D03*
X067433Y053559D03*
X067433Y052559D03*
X067933Y052559D03*
X057433Y045434D03*
X056933Y045434D03*
X056933Y044434D03*
X057433Y044434D03*
X057433Y043434D03*
X056933Y043434D03*
X056933Y042434D03*
X057433Y042434D03*
X057433Y041434D03*
X056933Y041434D03*
X056933Y040434D03*
X057433Y040434D03*
X049433Y039934D03*
X048933Y039934D03*
X048933Y040934D03*
X049433Y040934D03*
D16*
X052558Y038934D03*
X052558Y038434D03*
X053558Y038434D03*
X053558Y038934D03*
X054558Y038934D03*
X054558Y038434D03*
X045433Y048934D03*
X045433Y049434D03*
X044433Y049434D03*
X044433Y048934D03*
X043433Y048934D03*
X043433Y049434D03*
X042433Y049434D03*
X042433Y048934D03*
X041433Y048934D03*
X041433Y049434D03*
X040433Y049434D03*
X040433Y048934D03*
X039933Y056934D03*
X039933Y057434D03*
X040933Y057434D03*
X040933Y056934D03*
X051808Y067434D03*
X051808Y067934D03*
X052808Y067934D03*
X052808Y067434D03*
X053808Y067434D03*
X053808Y067934D03*
X060933Y057434D03*
X060933Y056934D03*
X061933Y056934D03*
X061933Y057434D03*
X062933Y057434D03*
X062933Y056934D03*
X063933Y056934D03*
X063933Y057434D03*
X064933Y057434D03*
X064933Y056934D03*
X065933Y056934D03*
X065933Y057434D03*
X065433Y049434D03*
X065433Y048934D03*
X066433Y048934D03*
X066433Y049434D03*
D17*
X067681Y049416D03*
X067681Y048956D03*
X064431Y048956D03*
X064431Y049416D03*
X063431Y049416D03*
X063431Y048956D03*
X062431Y048956D03*
X062431Y049416D03*
X061431Y049416D03*
X061431Y048956D03*
X066931Y056956D03*
X066931Y057416D03*
X055810Y067453D03*
X055810Y067913D03*
X044935Y057413D03*
X044935Y056953D03*
X043935Y056953D03*
X043935Y057413D03*
X042935Y057413D03*
X042935Y056953D03*
X041935Y056953D03*
X041935Y057413D03*
X038685Y057413D03*
X038685Y056953D03*
X039435Y049413D03*
X039435Y048953D03*
X050556Y038916D03*
X050556Y038456D03*
D18*
X049415Y038686D03*
X048955Y038686D03*
X048955Y041936D03*
X049415Y041936D03*
X049415Y042936D03*
X048955Y042936D03*
X048955Y043936D03*
X049415Y043936D03*
X049415Y044936D03*
X048955Y044936D03*
X056955Y039436D03*
X057415Y039436D03*
X067452Y050557D03*
X067912Y050557D03*
X057412Y061432D03*
X056952Y061432D03*
X056952Y062432D03*
X057412Y062432D03*
X057412Y063432D03*
X056952Y063432D03*
X056952Y064432D03*
X057412Y064432D03*
X057412Y067682D03*
X056952Y067682D03*
X049412Y066932D03*
X048952Y066932D03*
X038915Y055811D03*
X038455Y055811D03*
M02*
