G75*
G70*
%OFA0B0*%
%FSLAX24Y24*%
%IPPOS*%
%LPD*%
%AMOC8*
5,1,8,0,0,1.08239X$1,22.5*
%
%ADD10R,0.0634X0.0634*%
%ADD11C,0.0634*%
%ADD12C,0.0595*%
%ADD13R,0.0474X0.0513*%
%ADD14R,0.0513X0.0474*%
%ADD15R,0.0789X0.0749*%
%ADD16R,0.0710X0.0789*%
%ADD17R,0.1261X0.0631*%
%ADD18R,0.0789X0.1340*%
%ADD19R,0.0867X0.0867*%
%ADD20R,0.0749X0.0789*%
%ADD21R,0.0631X0.1261*%
%ADD22R,0.0789X0.0710*%
%ADD23R,0.1340X0.0789*%
%ADD24OC8,0.0680*%
%ADD25R,0.0560X0.0960*%
%ADD26R,0.1497X0.0946*%
%ADD27C,0.0640*%
%ADD28C,0.0437*%
%ADD29R,0.0437X0.0437*%
%ADD30C,0.1370*%
D10*
X053683Y057434D03*
D11*
X053683Y056434D03*
X053683Y055434D03*
X053683Y054434D03*
X053683Y053434D03*
X053683Y052434D03*
X053683Y051434D03*
X053683Y050434D03*
X059683Y050434D03*
X059683Y051434D03*
X059683Y052434D03*
X059683Y053434D03*
X059683Y054434D03*
X059683Y055434D03*
X059683Y056434D03*
X059683Y057434D03*
D12*
X058889Y056478D03*
X058889Y055690D03*
X058889Y054903D03*
X058889Y054116D03*
X058889Y053328D03*
X058889Y052541D03*
X058889Y051753D03*
X058889Y050966D03*
X058889Y050179D03*
X058889Y049391D03*
X050227Y049391D03*
X050227Y050179D03*
X050227Y050966D03*
X050227Y051753D03*
X050227Y052541D03*
X050227Y053328D03*
X050227Y054116D03*
X050227Y054903D03*
X050227Y055690D03*
X050227Y056478D03*
D13*
X051683Y056644D03*
X051683Y055975D03*
X049518Y058434D03*
X048849Y058434D03*
X048268Y058434D03*
X047599Y058434D03*
X047599Y053434D03*
X048268Y053434D03*
X048268Y051434D03*
X047599Y051434D03*
X047599Y050434D03*
X048268Y050434D03*
X051099Y048434D03*
X051768Y048434D03*
X049518Y042934D03*
X048849Y042934D03*
X048849Y040934D03*
X049518Y040934D03*
X049518Y038684D03*
X048849Y038684D03*
X039018Y050184D03*
X038349Y050184D03*
X038349Y051184D03*
X039018Y051184D03*
X039018Y054684D03*
X038349Y054684D03*
X038849Y055684D03*
X039518Y055684D03*
X039933Y056850D03*
X039933Y057519D03*
X055933Y057600D03*
X055933Y058269D03*
X056849Y063434D03*
X057518Y063434D03*
X057518Y065434D03*
X056849Y065434D03*
X056849Y067684D03*
X057518Y067684D03*
X067349Y056184D03*
X068018Y056184D03*
X068018Y055184D03*
X067349Y055184D03*
X067349Y051684D03*
X068018Y051684D03*
X067518Y050684D03*
X066849Y050684D03*
X066433Y049519D03*
X066433Y048850D03*
D14*
X065433Y048850D03*
X065433Y049519D03*
X063433Y049519D03*
X063433Y048850D03*
X067683Y048850D03*
X067683Y049519D03*
X056183Y039019D03*
X056183Y038350D03*
X055183Y038350D03*
X055183Y039019D03*
X051683Y039019D03*
X051683Y038350D03*
X050683Y038850D03*
X050683Y039519D03*
X049518Y039934D03*
X048849Y039934D03*
X049849Y048434D03*
X050518Y048434D03*
X049518Y049434D03*
X048849Y049434D03*
X048849Y050434D03*
X049518Y050434D03*
X049518Y051434D03*
X048849Y051434D03*
X048849Y053434D03*
X049518Y053434D03*
X042933Y056850D03*
X042933Y057519D03*
X040933Y057519D03*
X040933Y056850D03*
X038683Y056850D03*
X038683Y057519D03*
X050183Y067350D03*
X050183Y068019D03*
X051183Y068019D03*
X051183Y067350D03*
X054683Y067350D03*
X054683Y068019D03*
X055683Y067519D03*
X055683Y066850D03*
X056849Y066434D03*
X057518Y066434D03*
D15*
X055365Y059434D03*
X053751Y059434D03*
X063376Y051684D03*
X064990Y051684D03*
X042990Y054684D03*
X041376Y054684D03*
D16*
X041882Y055684D03*
X042984Y055684D03*
X053757Y058434D03*
X054859Y058434D03*
X054632Y056684D03*
X055734Y056684D03*
X055632Y051809D03*
X056734Y051809D03*
X063382Y050684D03*
X064484Y050684D03*
D17*
X065128Y055184D03*
X063238Y055184D03*
X043128Y051184D03*
X041238Y051184D03*
D18*
X041581Y053184D03*
X043786Y053184D03*
X062581Y053184D03*
X064786Y053184D03*
D19*
X061058Y053184D03*
X061058Y055434D03*
X059183Y058434D03*
X056683Y059184D03*
X053183Y061059D03*
X050933Y061059D03*
X045308Y053184D03*
X045308Y050934D03*
X053183Y045309D03*
X055433Y045309D03*
D20*
X051683Y042991D03*
X051683Y041377D03*
X054683Y063377D03*
X054683Y064991D03*
D21*
X051183Y065129D03*
X051183Y063240D03*
X055183Y043129D03*
X055183Y041240D03*
D22*
X050683Y041883D03*
X050683Y042986D03*
X055683Y063383D03*
X055683Y064486D03*
D23*
X053183Y064787D03*
X053183Y062582D03*
X053183Y043787D03*
X053183Y041582D03*
D24*
X046683Y047434D03*
X046683Y048434D03*
X046683Y049434D03*
X046683Y050434D03*
X046683Y051434D03*
X046683Y052434D03*
X046683Y053434D03*
X046683Y054434D03*
X046683Y055434D03*
X046683Y056434D03*
X046683Y057434D03*
X046683Y058434D03*
X051683Y054934D03*
X051683Y053934D03*
X052683Y053434D03*
X052683Y052434D03*
X052683Y051434D03*
X052683Y050434D03*
X052683Y049434D03*
X052683Y048434D03*
X052683Y047434D03*
X052683Y054434D03*
X052683Y055434D03*
X052683Y056434D03*
X052683Y057434D03*
X052683Y058434D03*
D25*
X054648Y055279D03*
X055558Y055279D03*
X056468Y055279D03*
D26*
X055558Y052839D03*
D27*
X057653Y058184D02*
X058213Y058184D01*
X058213Y059184D02*
X057653Y059184D01*
D28*
X056933Y060559D03*
X055558Y060684D03*
X055058Y060684D03*
X052808Y059684D03*
X050183Y060684D03*
X049183Y061434D03*
X049183Y062434D03*
X050808Y064184D03*
X050683Y064684D03*
X052433Y064184D03*
X053933Y064184D03*
X054683Y064184D03*
X055683Y065059D03*
X056433Y065934D03*
X057183Y065934D03*
X057183Y063934D03*
X057183Y062934D03*
X054933Y066684D03*
X054433Y066684D03*
X053933Y066684D03*
X052308Y067684D03*
X050808Y066809D03*
X050183Y066809D03*
X049183Y066434D03*
X056308Y067684D03*
X056558Y067059D03*
X057058Y067059D03*
X057558Y067059D03*
X048308Y057809D03*
X048933Y057309D03*
X047308Y055934D03*
X045683Y055559D03*
X045683Y055059D03*
X043433Y057184D03*
X042433Y057184D03*
X041308Y055684D03*
X040433Y056434D03*
X040433Y057184D03*
X039308Y057059D03*
X039308Y056559D03*
X038683Y056309D03*
X039683Y054934D03*
X039683Y054434D03*
X039683Y053934D03*
X038683Y052309D03*
X039558Y050809D03*
X039558Y050184D03*
X039933Y049184D03*
X041683Y050684D03*
X042183Y050809D03*
X042183Y052434D03*
X042183Y053934D03*
X042183Y054684D03*
X039308Y057559D03*
X045683Y050184D03*
X044933Y049184D03*
X043933Y049184D03*
X048308Y048559D03*
X050808Y045684D03*
X051308Y045684D03*
X049183Y043434D03*
X049183Y042434D03*
X050683Y041309D03*
X049933Y040434D03*
X049183Y040434D03*
X049308Y039309D03*
X048808Y039309D03*
X049808Y039309D03*
X050058Y038684D03*
X051433Y039684D03*
X051933Y039684D03*
X052433Y039684D03*
X054058Y038684D03*
X055558Y039559D03*
X056183Y039559D03*
X057183Y039934D03*
X055683Y041684D03*
X055558Y042184D03*
X053933Y042184D03*
X052433Y042184D03*
X051683Y042184D03*
X056183Y045684D03*
X057183Y044934D03*
X057183Y043934D03*
X059933Y048684D03*
X060558Y048684D03*
X060683Y050809D03*
X060683Y051309D03*
X062933Y049184D03*
X063933Y049184D03*
X065058Y050684D03*
X065933Y049934D03*
X065933Y049184D03*
X067058Y049309D03*
X067058Y048809D03*
X067058Y049809D03*
X067683Y050059D03*
X066683Y051434D03*
X066683Y051934D03*
X066683Y052434D03*
X067683Y054059D03*
X066808Y055559D03*
X066808Y056184D03*
X066433Y057184D03*
X064683Y055684D03*
X064183Y055559D03*
X064183Y053934D03*
X064183Y052434D03*
X064183Y051684D03*
X060683Y056184D03*
X061433Y057184D03*
X062433Y057184D03*
X047933Y052184D03*
D29*
X045683Y052559D03*
X045683Y053809D03*
X043183Y053434D03*
X043183Y052934D03*
X042683Y052934D03*
X042683Y053434D03*
X052558Y060684D03*
X053808Y060684D03*
X053433Y063184D03*
X052933Y063184D03*
X052933Y063684D03*
X053433Y063684D03*
X060683Y053809D03*
X060683Y052559D03*
X063183Y052934D03*
X063683Y052934D03*
X063683Y053434D03*
X063183Y053434D03*
X053808Y045684D03*
X052558Y045684D03*
X052933Y043184D03*
X052933Y042684D03*
X053433Y042684D03*
X053433Y043184D03*
D30*
X053183Y023744D03*
X053183Y020684D03*
X050123Y020684D03*
X053183Y017624D03*
X056243Y020684D03*
X085683Y050124D03*
X085683Y053184D03*
X082623Y053184D03*
X085683Y056244D03*
X088743Y053184D03*
X056243Y085684D03*
X053183Y085684D03*
X050123Y085684D03*
X053183Y082624D03*
X053183Y088744D03*
X020683Y056244D03*
X020683Y053184D03*
X020683Y050124D03*
X017623Y053184D03*
X023743Y053184D03*
M02*
