G75*
%MOIN*%
%OFA0B0*%
%FSLAX24Y24*%
%IPPOS*%
%LPD*%
%AMOC8*
5,1,8,0,0,1.08239X$1,22.5*
%
%ADD10C,0.0000*%
%ADD11C,0.0050*%
%ADD12C,0.0040*%
%ADD13C,0.0060*%
%ADD14C,0.0030*%
%ADD15R,0.0394X0.0087*%
%ADD16R,0.0087X0.0394*%
%ADD17C,0.0080*%
%ADD18C,0.0020*%
%ADD19C,0.0100*%
%ADD20C,0.0120*%
%ADD21R,0.0059X0.0945*%
%ADD22R,0.0187X0.1673*%
%ADD23C,0.0400*%
%ADD24R,0.0374X0.0118*%
%ADD25R,0.0374X0.0118*%
%ADD26R,0.0118X0.0374*%
%ADD27R,0.0118X0.0374*%
%ADD28R,0.0197X0.0374*%
%ADD29C,0.0028*%
%ADD30R,0.0236X0.0709*%
%ADD31R,0.0236X0.0433*%
%ADD32R,0.0394X0.0551*%
%ADD33R,0.0433X0.0551*%
%ADD34C,0.0010*%
%ADD35C,0.0197*%
%ADD36R,0.0197X0.0118*%
%ADD37R,0.0091X0.0138*%
%ADD38R,0.0157X0.0089*%
%ADD39R,0.0098X0.0089*%
%ADD40C,0.0220*%
%ADD41R,0.0374X0.0197*%
%ADD42R,0.0089X0.0157*%
%ADD43R,0.0089X0.0098*%
%ADD44C,0.0039*%
%ADD45R,0.0197X0.0197*%
%ADD46R,0.0200X0.0200*%
D10*
X001624Y000310D02*
X035178Y000310D01*
X035249Y000312D01*
X035320Y000318D01*
X035391Y000327D01*
X035460Y000341D01*
X035530Y000358D01*
X035598Y000379D01*
X035664Y000403D01*
X035730Y000431D01*
X035793Y000463D01*
X035855Y000498D01*
X035915Y000536D01*
X035973Y000578D01*
X036029Y000623D01*
X036082Y000670D01*
X036132Y000720D01*
X036179Y000773D01*
X036224Y000829D01*
X036266Y000887D01*
X036304Y000947D01*
X036339Y001009D01*
X036371Y001072D01*
X036399Y001138D01*
X036423Y001204D01*
X036444Y001272D01*
X036461Y001342D01*
X036475Y001411D01*
X036484Y001482D01*
X036490Y001553D01*
X036492Y001624D01*
X036492Y021261D01*
X034900Y021810D02*
X034902Y021859D01*
X034908Y021907D01*
X034918Y021955D01*
X034932Y022002D01*
X034949Y022048D01*
X034970Y022092D01*
X034995Y022134D01*
X035023Y022174D01*
X035055Y022212D01*
X035089Y022247D01*
X035126Y022279D01*
X035165Y022308D01*
X035207Y022334D01*
X035251Y022356D01*
X035296Y022374D01*
X035343Y022389D01*
X035390Y022400D01*
X035439Y022407D01*
X035488Y022410D01*
X035537Y022409D01*
X035585Y022404D01*
X035634Y022395D01*
X035681Y022382D01*
X035727Y022365D01*
X035771Y022345D01*
X035814Y022321D01*
X035855Y022294D01*
X035893Y022263D01*
X035929Y022230D01*
X035961Y022194D01*
X035991Y022155D01*
X036018Y022114D01*
X036041Y022070D01*
X036060Y022025D01*
X036076Y021979D01*
X036088Y021932D01*
X036096Y021883D01*
X036100Y021834D01*
X036100Y021786D01*
X036096Y021737D01*
X036088Y021688D01*
X036076Y021641D01*
X036060Y021595D01*
X036041Y021550D01*
X036018Y021506D01*
X035991Y021465D01*
X035961Y021426D01*
X035929Y021390D01*
X035893Y021357D01*
X035855Y021326D01*
X035814Y021299D01*
X035771Y021275D01*
X035727Y021255D01*
X035681Y021238D01*
X035634Y021225D01*
X035585Y021216D01*
X035537Y021211D01*
X035488Y021210D01*
X035439Y021213D01*
X035390Y021220D01*
X035343Y021231D01*
X035296Y021246D01*
X035251Y021264D01*
X035207Y021286D01*
X035165Y021312D01*
X035126Y021341D01*
X035089Y021373D01*
X035055Y021408D01*
X035023Y021446D01*
X034995Y021486D01*
X034970Y021528D01*
X034949Y021572D01*
X034932Y021618D01*
X034918Y021665D01*
X034908Y021713D01*
X034902Y021761D01*
X034900Y021810D01*
X035073Y022680D02*
X035147Y022678D01*
X035221Y022672D01*
X035295Y022663D01*
X035368Y022649D01*
X035440Y022632D01*
X035511Y022611D01*
X035582Y022586D01*
X035650Y022557D01*
X035717Y022525D01*
X035783Y022490D01*
X035846Y022451D01*
X035907Y022409D01*
X035966Y022364D01*
X036022Y022316D01*
X036076Y022264D01*
X036128Y022210D01*
X036176Y022154D01*
X036221Y022095D01*
X036263Y022034D01*
X036302Y021971D01*
X036337Y021905D01*
X036369Y021838D01*
X036398Y021770D01*
X036423Y021699D01*
X036444Y021628D01*
X036461Y021556D01*
X036475Y021483D01*
X036484Y021409D01*
X036490Y021335D01*
X036492Y021261D01*
X035073Y022680D02*
X001617Y022680D01*
X001552Y022678D01*
X001487Y022672D01*
X001423Y022663D01*
X001359Y022650D01*
X001297Y022633D01*
X001235Y022613D01*
X001175Y022589D01*
X001116Y022561D01*
X001059Y022530D01*
X001003Y022496D01*
X000950Y022459D01*
X000899Y022419D01*
X000850Y022375D01*
X000805Y022330D01*
X000761Y022281D01*
X000721Y022230D01*
X000684Y022177D01*
X000650Y022122D01*
X000619Y022064D01*
X000591Y022005D01*
X000567Y021945D01*
X000547Y021883D01*
X000530Y021821D01*
X000517Y021757D01*
X000508Y021693D01*
X000502Y021628D01*
X000500Y021563D01*
X000500Y001434D01*
X000502Y001369D01*
X000508Y001304D01*
X000517Y001239D01*
X000530Y001175D01*
X000547Y001112D01*
X000568Y001050D01*
X000592Y000989D01*
X000620Y000930D01*
X000651Y000872D01*
X000685Y000816D01*
X000722Y000763D01*
X000763Y000712D01*
X000806Y000663D01*
X000853Y000616D01*
X000902Y000573D01*
X000953Y000532D01*
X001006Y000495D01*
X001062Y000461D01*
X001120Y000430D01*
X001179Y000402D01*
X001240Y000378D01*
X001302Y000357D01*
X001365Y000340D01*
X001429Y000327D01*
X001494Y000318D01*
X001559Y000312D01*
X001624Y000310D01*
X006900Y001810D02*
X006902Y001859D01*
X006908Y001907D01*
X006918Y001955D01*
X006932Y002002D01*
X006949Y002048D01*
X006970Y002092D01*
X006995Y002134D01*
X007023Y002174D01*
X007055Y002212D01*
X007089Y002247D01*
X007126Y002279D01*
X007165Y002308D01*
X007207Y002334D01*
X007251Y002356D01*
X007296Y002374D01*
X007343Y002389D01*
X007390Y002400D01*
X007439Y002407D01*
X007488Y002410D01*
X007537Y002409D01*
X007585Y002404D01*
X007634Y002395D01*
X007681Y002382D01*
X007727Y002365D01*
X007771Y002345D01*
X007814Y002321D01*
X007855Y002294D01*
X007893Y002263D01*
X007929Y002230D01*
X007961Y002194D01*
X007991Y002155D01*
X008018Y002114D01*
X008041Y002070D01*
X008060Y002025D01*
X008076Y001979D01*
X008088Y001932D01*
X008096Y001883D01*
X008100Y001834D01*
X008100Y001786D01*
X008096Y001737D01*
X008088Y001688D01*
X008076Y001641D01*
X008060Y001595D01*
X008041Y001550D01*
X008018Y001506D01*
X007991Y001465D01*
X007961Y001426D01*
X007929Y001390D01*
X007893Y001357D01*
X007855Y001326D01*
X007814Y001299D01*
X007771Y001275D01*
X007727Y001255D01*
X007681Y001238D01*
X007634Y001225D01*
X007585Y001216D01*
X007537Y001211D01*
X007488Y001210D01*
X007439Y001213D01*
X007390Y001220D01*
X007343Y001231D01*
X007296Y001246D01*
X007251Y001264D01*
X007207Y001286D01*
X007165Y001312D01*
X007126Y001341D01*
X007089Y001373D01*
X007055Y001408D01*
X007023Y001446D01*
X006995Y001486D01*
X006970Y001528D01*
X006949Y001572D01*
X006932Y001618D01*
X006918Y001665D01*
X006908Y001713D01*
X006902Y001761D01*
X006900Y001810D01*
X001720Y009719D02*
X001722Y009746D01*
X001728Y009773D01*
X001737Y009799D01*
X001750Y009823D01*
X001766Y009846D01*
X001785Y009865D01*
X001807Y009882D01*
X001831Y009896D01*
X001856Y009906D01*
X001883Y009913D01*
X001910Y009916D01*
X001938Y009915D01*
X001965Y009910D01*
X001991Y009902D01*
X002015Y009890D01*
X002038Y009874D01*
X002059Y009856D01*
X002076Y009835D01*
X002091Y009811D01*
X002102Y009786D01*
X002110Y009760D01*
X002114Y009733D01*
X002114Y009705D01*
X002110Y009678D01*
X002102Y009652D01*
X002091Y009627D01*
X002076Y009603D01*
X002059Y009582D01*
X002038Y009564D01*
X002016Y009548D01*
X001991Y009536D01*
X001965Y009528D01*
X001938Y009523D01*
X001910Y009522D01*
X001883Y009525D01*
X001856Y009532D01*
X001831Y009542D01*
X001807Y009556D01*
X001785Y009573D01*
X001766Y009592D01*
X001750Y009615D01*
X001737Y009639D01*
X001728Y009665D01*
X001722Y009692D01*
X001720Y009719D01*
X001720Y010901D02*
X001722Y010928D01*
X001728Y010955D01*
X001737Y010981D01*
X001750Y011005D01*
X001766Y011028D01*
X001785Y011047D01*
X001807Y011064D01*
X001831Y011078D01*
X001856Y011088D01*
X001883Y011095D01*
X001910Y011098D01*
X001938Y011097D01*
X001965Y011092D01*
X001991Y011084D01*
X002015Y011072D01*
X002038Y011056D01*
X002059Y011038D01*
X002076Y011017D01*
X002091Y010993D01*
X002102Y010968D01*
X002110Y010942D01*
X002114Y010915D01*
X002114Y010887D01*
X002110Y010860D01*
X002102Y010834D01*
X002091Y010809D01*
X002076Y010785D01*
X002059Y010764D01*
X002038Y010746D01*
X002016Y010730D01*
X001991Y010718D01*
X001965Y010710D01*
X001938Y010705D01*
X001910Y010704D01*
X001883Y010707D01*
X001856Y010714D01*
X001831Y010724D01*
X001807Y010738D01*
X001785Y010755D01*
X001766Y010774D01*
X001750Y010797D01*
X001737Y010821D01*
X001728Y010847D01*
X001722Y010874D01*
X001720Y010901D01*
X000900Y021310D02*
X000902Y021359D01*
X000908Y021407D01*
X000918Y021455D01*
X000932Y021502D01*
X000949Y021548D01*
X000970Y021592D01*
X000995Y021634D01*
X001023Y021674D01*
X001055Y021712D01*
X001089Y021747D01*
X001126Y021779D01*
X001165Y021808D01*
X001207Y021834D01*
X001251Y021856D01*
X001296Y021874D01*
X001343Y021889D01*
X001390Y021900D01*
X001439Y021907D01*
X001488Y021910D01*
X001537Y021909D01*
X001585Y021904D01*
X001634Y021895D01*
X001681Y021882D01*
X001727Y021865D01*
X001771Y021845D01*
X001814Y021821D01*
X001855Y021794D01*
X001893Y021763D01*
X001929Y021730D01*
X001961Y021694D01*
X001991Y021655D01*
X002018Y021614D01*
X002041Y021570D01*
X002060Y021525D01*
X002076Y021479D01*
X002088Y021432D01*
X002096Y021383D01*
X002100Y021334D01*
X002100Y021286D01*
X002096Y021237D01*
X002088Y021188D01*
X002076Y021141D01*
X002060Y021095D01*
X002041Y021050D01*
X002018Y021006D01*
X001991Y020965D01*
X001961Y020926D01*
X001929Y020890D01*
X001893Y020857D01*
X001855Y020826D01*
X001814Y020799D01*
X001771Y020775D01*
X001727Y020755D01*
X001681Y020738D01*
X001634Y020725D01*
X001585Y020716D01*
X001537Y020711D01*
X001488Y020710D01*
X001439Y020713D01*
X001390Y020720D01*
X001343Y020731D01*
X001296Y020746D01*
X001251Y020764D01*
X001207Y020786D01*
X001165Y020812D01*
X001126Y020841D01*
X001089Y020873D01*
X001055Y020908D01*
X001023Y020946D01*
X000995Y020986D01*
X000970Y021028D01*
X000949Y021072D01*
X000932Y021118D01*
X000918Y021165D01*
X000908Y021213D01*
X000902Y021261D01*
X000900Y021310D01*
X024457Y011776D02*
X024459Y011801D01*
X024465Y011825D01*
X024474Y011847D01*
X024487Y011868D01*
X024503Y011887D01*
X024522Y011903D01*
X024543Y011916D01*
X024565Y011925D01*
X024589Y011931D01*
X024614Y011933D01*
X024639Y011931D01*
X024663Y011925D01*
X024685Y011916D01*
X024706Y011903D01*
X024725Y011887D01*
X024741Y011868D01*
X024754Y011847D01*
X024763Y011825D01*
X024769Y011801D01*
X024771Y011776D01*
X024769Y011751D01*
X024763Y011727D01*
X024754Y011705D01*
X024741Y011684D01*
X024725Y011665D01*
X024706Y011649D01*
X024685Y011636D01*
X024663Y011627D01*
X024639Y011621D01*
X024614Y011619D01*
X024589Y011621D01*
X024565Y011627D01*
X024543Y011636D01*
X024522Y011649D01*
X024503Y011665D01*
X024487Y011684D01*
X024474Y011705D01*
X024465Y011727D01*
X024459Y011751D01*
X024457Y011776D01*
X026877Y014196D02*
X026879Y014221D01*
X026885Y014245D01*
X026894Y014267D01*
X026907Y014288D01*
X026923Y014307D01*
X026942Y014323D01*
X026963Y014336D01*
X026985Y014345D01*
X027009Y014351D01*
X027034Y014353D01*
X027059Y014351D01*
X027083Y014345D01*
X027105Y014336D01*
X027126Y014323D01*
X027145Y014307D01*
X027161Y014288D01*
X027174Y014267D01*
X027183Y014245D01*
X027189Y014221D01*
X027191Y014196D01*
X027189Y014171D01*
X027183Y014147D01*
X027174Y014125D01*
X027161Y014104D01*
X027145Y014085D01*
X027126Y014069D01*
X027105Y014056D01*
X027083Y014047D01*
X027059Y014041D01*
X027034Y014039D01*
X027009Y014041D01*
X026985Y014047D01*
X026963Y014056D01*
X026942Y014069D01*
X026923Y014085D01*
X026907Y014104D01*
X026894Y014125D01*
X026885Y014147D01*
X026879Y014171D01*
X026877Y014196D01*
X035823Y014219D02*
X035825Y014245D01*
X035831Y014271D01*
X035841Y014296D01*
X035854Y014319D01*
X035870Y014339D01*
X035890Y014357D01*
X035912Y014372D01*
X035935Y014384D01*
X035961Y014392D01*
X035987Y014396D01*
X036013Y014396D01*
X036039Y014392D01*
X036065Y014384D01*
X036089Y014372D01*
X036110Y014357D01*
X036130Y014339D01*
X036146Y014319D01*
X036159Y014296D01*
X036169Y014271D01*
X036175Y014245D01*
X036177Y014219D01*
X036175Y014193D01*
X036169Y014167D01*
X036159Y014142D01*
X036146Y014119D01*
X036130Y014099D01*
X036110Y014081D01*
X036088Y014066D01*
X036065Y014054D01*
X036039Y014046D01*
X036013Y014042D01*
X035987Y014042D01*
X035961Y014046D01*
X035935Y014054D01*
X035911Y014066D01*
X035890Y014081D01*
X035870Y014099D01*
X035854Y014119D01*
X035841Y014142D01*
X035831Y014167D01*
X035825Y014193D01*
X035823Y014219D01*
X035823Y015401D02*
X035825Y015427D01*
X035831Y015453D01*
X035841Y015478D01*
X035854Y015501D01*
X035870Y015521D01*
X035890Y015539D01*
X035912Y015554D01*
X035935Y015566D01*
X035961Y015574D01*
X035987Y015578D01*
X036013Y015578D01*
X036039Y015574D01*
X036065Y015566D01*
X036089Y015554D01*
X036110Y015539D01*
X036130Y015521D01*
X036146Y015501D01*
X036159Y015478D01*
X036169Y015453D01*
X036175Y015427D01*
X036177Y015401D01*
X036175Y015375D01*
X036169Y015349D01*
X036159Y015324D01*
X036146Y015301D01*
X036130Y015281D01*
X036110Y015263D01*
X036088Y015248D01*
X036065Y015236D01*
X036039Y015228D01*
X036013Y015224D01*
X035987Y015224D01*
X035961Y015228D01*
X035935Y015236D01*
X035911Y015248D01*
X035890Y015263D01*
X035870Y015281D01*
X035854Y015301D01*
X035841Y015324D01*
X035831Y015349D01*
X035825Y015375D01*
X035823Y015401D01*
X034900Y001810D02*
X034902Y001859D01*
X034908Y001907D01*
X034918Y001955D01*
X034932Y002002D01*
X034949Y002048D01*
X034970Y002092D01*
X034995Y002134D01*
X035023Y002174D01*
X035055Y002212D01*
X035089Y002247D01*
X035126Y002279D01*
X035165Y002308D01*
X035207Y002334D01*
X035251Y002356D01*
X035296Y002374D01*
X035343Y002389D01*
X035390Y002400D01*
X035439Y002407D01*
X035488Y002410D01*
X035537Y002409D01*
X035585Y002404D01*
X035634Y002395D01*
X035681Y002382D01*
X035727Y002365D01*
X035771Y002345D01*
X035814Y002321D01*
X035855Y002294D01*
X035893Y002263D01*
X035929Y002230D01*
X035961Y002194D01*
X035991Y002155D01*
X036018Y002114D01*
X036041Y002070D01*
X036060Y002025D01*
X036076Y001979D01*
X036088Y001932D01*
X036096Y001883D01*
X036100Y001834D01*
X036100Y001786D01*
X036096Y001737D01*
X036088Y001688D01*
X036076Y001641D01*
X036060Y001595D01*
X036041Y001550D01*
X036018Y001506D01*
X035991Y001465D01*
X035961Y001426D01*
X035929Y001390D01*
X035893Y001357D01*
X035855Y001326D01*
X035814Y001299D01*
X035771Y001275D01*
X035727Y001255D01*
X035681Y001238D01*
X035634Y001225D01*
X035585Y001216D01*
X035537Y001211D01*
X035488Y001210D01*
X035439Y001213D01*
X035390Y001220D01*
X035343Y001231D01*
X035296Y001246D01*
X035251Y001264D01*
X035207Y001286D01*
X035165Y001312D01*
X035126Y001341D01*
X035089Y001373D01*
X035055Y001408D01*
X035023Y001446D01*
X034995Y001486D01*
X034970Y001528D01*
X034949Y001572D01*
X034932Y001618D01*
X034918Y001665D01*
X034908Y001713D01*
X034902Y001761D01*
X034900Y001810D01*
D11*
X032921Y001653D02*
X032921Y001613D01*
X032291Y001613D01*
X032291Y001653D01*
X032291Y001967D02*
X032291Y002361D01*
X032291Y002716D02*
X032291Y002794D01*
X032921Y002794D01*
X032921Y002716D01*
X032795Y003160D02*
X030433Y003160D01*
X030433Y004460D02*
X032795Y004460D01*
X034826Y005207D02*
X036174Y005207D01*
X036174Y007413D01*
X034826Y007413D01*
X034826Y005207D01*
X035500Y005404D02*
X035500Y007255D01*
X034821Y007010D02*
X034821Y006610D01*
X034646Y006610D01*
X034300Y006610D02*
X034171Y006610D01*
X034171Y007010D01*
X034300Y007010D01*
X034655Y007010D02*
X034821Y007010D01*
X033630Y006286D02*
X033630Y008334D01*
X034878Y008471D02*
X034878Y008944D01*
X035429Y008944D01*
X035429Y010676D01*
X034878Y010676D01*
X034878Y011149D01*
X036571Y011149D01*
X036571Y008471D01*
X034878Y008471D01*
X036571Y008471D02*
X036846Y008471D01*
X036846Y008629D01*
X037004Y008629D01*
X037004Y008628D02*
X037021Y008629D01*
X037038Y008632D01*
X037054Y008639D01*
X037069Y008649D01*
X037081Y008661D01*
X037091Y008675D01*
X037099Y008690D01*
X037103Y008707D01*
X037102Y008708D02*
X037102Y010893D01*
X037103Y010893D02*
X037102Y010910D01*
X037099Y010927D01*
X037092Y010943D01*
X037082Y010958D01*
X037070Y010970D01*
X037056Y010980D01*
X037041Y010988D01*
X037024Y010992D01*
X037024Y010991D02*
X036846Y010991D01*
X036846Y011149D01*
X036571Y011149D01*
X033400Y012110D02*
X031600Y012110D01*
X031600Y014510D01*
X033400Y014510D01*
X033400Y012110D01*
X031130Y012034D02*
X029870Y012034D01*
X029870Y012586D01*
X031130Y012586D01*
X031130Y012034D01*
X029200Y011981D02*
X028800Y011981D01*
X028400Y011981D01*
X028400Y012110D01*
X028400Y011981D01*
X028000Y011981D01*
X028000Y012110D01*
X028000Y011981D01*
X027600Y011981D01*
X027600Y012110D01*
X027600Y012465D02*
X027600Y012631D01*
X028000Y012631D01*
X028400Y012631D01*
X028800Y012631D01*
X028800Y012456D01*
X028800Y012465D02*
X028800Y012631D01*
X029200Y012631D01*
X029200Y012456D01*
X029200Y012110D02*
X029200Y011981D01*
X028800Y011981D02*
X028800Y012110D01*
X028800Y011981D01*
X028400Y012456D02*
X028400Y012631D01*
X028400Y012465D01*
X028000Y012465D02*
X028000Y012631D01*
X028000Y012456D01*
X030150Y013410D02*
X030150Y014210D01*
X031909Y015469D02*
X031909Y016151D01*
X031911Y016181D01*
X031916Y016211D01*
X031925Y016240D01*
X031938Y016267D01*
X031953Y016293D01*
X031972Y016317D01*
X031993Y016338D01*
X032017Y016357D01*
X032043Y016372D01*
X032070Y016385D01*
X032099Y016394D01*
X032129Y016399D01*
X032159Y016401D01*
X032841Y016401D01*
X032871Y016399D01*
X032901Y016394D01*
X032930Y016385D01*
X032957Y016372D01*
X032983Y016357D01*
X033007Y016338D01*
X033028Y016317D01*
X033047Y016293D01*
X033062Y016267D01*
X033075Y016240D01*
X033084Y016211D01*
X033089Y016181D01*
X033091Y016151D01*
X033091Y015469D01*
X033089Y015439D01*
X033084Y015409D01*
X033075Y015380D01*
X033062Y015353D01*
X033047Y015327D01*
X033028Y015303D01*
X033007Y015282D01*
X032983Y015263D01*
X032957Y015248D01*
X032930Y015235D01*
X032901Y015226D01*
X032871Y015221D01*
X032841Y015219D01*
X032159Y015219D01*
X032129Y015221D01*
X032099Y015226D01*
X032070Y015235D01*
X032043Y015248D01*
X032017Y015263D01*
X031993Y015282D01*
X031972Y015303D01*
X031953Y015327D01*
X031938Y015353D01*
X031925Y015380D01*
X031916Y015409D01*
X031911Y015439D01*
X031909Y015469D01*
X028450Y016989D02*
X028050Y016989D01*
X028050Y017164D01*
X028050Y017510D02*
X028050Y017639D01*
X028450Y017639D01*
X028450Y017510D01*
X028450Y017155D02*
X028450Y016989D01*
X026780Y017360D02*
X018220Y017360D01*
X018220Y021637D01*
X026780Y021637D01*
X026780Y017360D01*
X029755Y019814D02*
X030227Y019814D01*
X030227Y020837D01*
X029755Y020837D01*
X029755Y019814D01*
X032800Y019639D02*
X033200Y019639D01*
X033200Y019510D01*
X032800Y019510D02*
X032800Y019639D01*
X032800Y019164D02*
X032800Y018989D01*
X033200Y018989D01*
X033200Y019155D01*
X027756Y022464D02*
X027756Y014881D01*
X017244Y014881D01*
X017243Y022464D01*
X027756Y022464D01*
X015321Y019510D02*
X015321Y019110D01*
X015146Y019110D01*
X014800Y019110D02*
X014671Y019110D01*
X014671Y019510D01*
X014800Y019510D01*
X015155Y019510D02*
X015321Y019510D01*
X014745Y018806D02*
X014273Y018806D01*
X014273Y017783D01*
X014745Y017783D01*
X014745Y018806D01*
X012245Y019306D02*
X012245Y018283D01*
X011773Y018283D01*
X011773Y019306D01*
X012245Y019306D01*
X010472Y020141D02*
X010111Y020141D01*
X010382Y020411D01*
X010382Y019870D01*
X009928Y019870D02*
X009567Y019870D01*
X009748Y019870D02*
X009748Y020411D01*
X009567Y020231D01*
X009384Y020321D02*
X009023Y019960D01*
X009114Y019870D01*
X009294Y019870D01*
X009384Y019960D01*
X009384Y020321D01*
X009294Y020411D01*
X009114Y020411D01*
X009023Y020321D01*
X009023Y019960D01*
X008840Y019870D02*
X008480Y019870D01*
X008840Y020231D01*
X008840Y020321D01*
X008750Y020411D01*
X008570Y020411D01*
X008480Y020321D01*
X007753Y020141D02*
X007753Y020050D01*
X007392Y020050D01*
X007392Y019960D02*
X007392Y020141D01*
X007482Y020231D01*
X007663Y020231D01*
X007753Y020141D01*
X007663Y019870D02*
X007482Y019870D01*
X007392Y019960D01*
X007209Y019870D02*
X007209Y020141D01*
X007119Y020231D01*
X006848Y020231D01*
X006848Y019870D01*
X006665Y019960D02*
X006575Y019870D01*
X006395Y019870D01*
X006305Y019960D01*
X006305Y020321D01*
X006395Y020411D01*
X006575Y020411D01*
X006665Y020321D01*
X006665Y019960D01*
X006122Y020231D02*
X006032Y020231D01*
X005851Y020050D01*
X005851Y019870D02*
X005851Y020231D01*
X005668Y020141D02*
X005668Y020050D01*
X005308Y020050D01*
X005308Y019960D02*
X005308Y020141D01*
X005398Y020231D01*
X005578Y020231D01*
X005668Y020141D01*
X005578Y019870D02*
X005398Y019870D01*
X005308Y019960D01*
X005125Y019870D02*
X004854Y019870D01*
X004764Y019960D01*
X004764Y020231D01*
X004581Y020141D02*
X004581Y019870D01*
X004310Y019870D01*
X004220Y019960D01*
X004310Y020050D01*
X004581Y020050D01*
X004581Y020141D02*
X004491Y020231D01*
X004310Y020231D01*
X003948Y020411D02*
X003948Y019870D01*
X003858Y019870D02*
X004038Y019870D01*
X004944Y019690D02*
X005034Y019690D01*
X005125Y019780D01*
X005125Y020231D01*
X003948Y020411D02*
X003858Y020411D01*
X008818Y017903D02*
X008818Y017536D01*
X008910Y017444D01*
X009093Y017444D01*
X009185Y017536D01*
X009370Y017536D02*
X009462Y017444D01*
X009646Y017444D01*
X009737Y017536D01*
X009737Y017627D01*
X009646Y017719D01*
X009554Y017719D01*
X009646Y017719D02*
X009737Y017811D01*
X009737Y017903D01*
X009646Y017994D01*
X009462Y017994D01*
X009370Y017903D01*
X009185Y017903D02*
X009093Y017994D01*
X008910Y017994D01*
X008818Y017903D01*
X009923Y017903D02*
X010015Y017994D01*
X010198Y017994D01*
X010290Y017903D01*
X010290Y017811D01*
X010198Y017719D01*
X010290Y017627D01*
X010290Y017536D01*
X010198Y017444D01*
X010015Y017444D01*
X009923Y017536D01*
X010106Y017719D02*
X010198Y017719D01*
X011136Y016762D02*
X011412Y016487D01*
X011412Y016854D01*
X011687Y016762D02*
X011136Y016762D01*
X011228Y016301D02*
X011136Y016209D01*
X011136Y016026D01*
X011228Y015934D01*
X011228Y015749D02*
X011136Y015657D01*
X011136Y015473D01*
X011228Y015382D01*
X011595Y015382D01*
X011687Y015473D01*
X011687Y015657D01*
X011595Y015749D01*
X011595Y015934D02*
X011687Y016026D01*
X011687Y016209D01*
X011595Y016301D01*
X011503Y016301D01*
X011412Y016209D01*
X011412Y016118D01*
X011412Y016209D02*
X011320Y016301D01*
X011228Y016301D01*
X010862Y016357D02*
X010862Y014664D01*
X008736Y014664D01*
X008736Y016357D01*
X010862Y016357D01*
X008736Y016357D02*
X008657Y016357D01*
X008657Y014664D01*
X008579Y014664D01*
X008579Y016357D01*
X008657Y016357D01*
X008579Y016357D02*
X008500Y016357D01*
X008500Y014664D01*
X008421Y014664D01*
X008421Y016357D01*
X008500Y016357D01*
X007862Y016357D02*
X007862Y014664D01*
X005736Y014664D01*
X005736Y016357D01*
X007862Y016357D01*
X005736Y016357D02*
X005657Y016357D01*
X005657Y014664D01*
X005579Y014664D01*
X005579Y016357D01*
X005657Y016357D01*
X005579Y016357D02*
X005500Y016357D01*
X005500Y014664D01*
X005421Y014664D01*
X005421Y016357D01*
X005500Y016357D01*
X005500Y014664D02*
X005579Y014664D01*
X005657Y014664D02*
X005736Y014664D01*
X008500Y014664D02*
X008579Y014664D01*
X008657Y014664D02*
X008736Y014664D01*
X008925Y012834D02*
X008846Y012755D01*
X008846Y011653D01*
X008925Y011574D01*
X010185Y011574D01*
X010264Y011653D01*
X010264Y012755D01*
X010185Y012834D01*
X008925Y012834D01*
X009949Y011810D02*
X009951Y011828D01*
X009957Y011844D01*
X009966Y011859D01*
X009979Y011872D01*
X009994Y011881D01*
X010010Y011887D01*
X010028Y011889D01*
X010046Y011887D01*
X010062Y011881D01*
X010077Y011872D01*
X010090Y011859D01*
X010099Y011844D01*
X010105Y011828D01*
X010107Y011810D01*
X010105Y011792D01*
X010099Y011776D01*
X010090Y011761D01*
X010077Y011748D01*
X010062Y011739D01*
X010046Y011733D01*
X010028Y011731D01*
X010010Y011733D01*
X009994Y011739D01*
X009979Y011748D01*
X009966Y011761D01*
X009957Y011776D01*
X009951Y011792D01*
X009949Y011810D01*
X012882Y009897D02*
X013000Y009897D01*
X013000Y008125D01*
X012882Y008125D01*
X012882Y009897D01*
X012921Y009857D02*
X012921Y008164D01*
X012961Y008164D02*
X012961Y009857D01*
X013000Y009897D02*
X013118Y009897D01*
X013118Y008125D01*
X013000Y008125D01*
X013039Y008164D02*
X013039Y009857D01*
X013079Y009857D02*
X013079Y008164D01*
X013118Y008125D02*
X014654Y008125D01*
X014654Y009897D01*
X013118Y009897D01*
X016650Y009431D02*
X016650Y009265D01*
X016650Y009431D02*
X017050Y009431D01*
X017050Y009256D01*
X017050Y008910D02*
X017050Y008781D01*
X016650Y008781D01*
X016650Y008910D01*
X017171Y008510D02*
X017171Y008110D01*
X017300Y008110D01*
X017646Y008110D02*
X017821Y008110D01*
X017821Y008510D01*
X017655Y008510D01*
X017300Y008510D02*
X017171Y008510D01*
X017858Y007952D02*
X023142Y007952D01*
X023142Y002664D01*
X017858Y002664D01*
X017858Y007952D01*
X020300Y009489D02*
X020700Y009489D01*
X020700Y009655D01*
X020700Y010010D02*
X020700Y010139D01*
X020300Y010139D01*
X020300Y010010D01*
X020300Y009664D02*
X020300Y009489D01*
X022700Y007910D02*
X022700Y002710D01*
X023645Y002505D02*
X023795Y002505D01*
X023720Y002505D02*
X023720Y002130D01*
X023645Y002055D01*
X023570Y002055D01*
X023495Y002130D01*
X023955Y002055D02*
X023955Y002505D01*
X024181Y002505D01*
X024256Y002430D01*
X024256Y002280D01*
X024181Y002205D01*
X023955Y002205D01*
X024416Y002280D02*
X024716Y002280D01*
X024641Y002055D02*
X024641Y002505D01*
X024416Y002280D01*
X024300Y002610D02*
X024171Y002610D01*
X024171Y003010D01*
X024300Y003010D01*
X024345Y003210D02*
X024179Y003210D01*
X024179Y003610D01*
X024354Y003610D01*
X024700Y003610D02*
X024829Y003610D01*
X024829Y003210D01*
X024700Y003210D01*
X024655Y003010D02*
X024821Y003010D01*
X024821Y002610D01*
X024646Y002610D01*
X023200Y001631D02*
X022800Y001631D01*
X022800Y001465D01*
X023200Y001456D02*
X023200Y001631D01*
X023200Y001110D02*
X023200Y000981D01*
X022800Y000981D01*
X022800Y001110D01*
X024121Y004060D02*
X024121Y004460D01*
X024250Y004460D01*
X024300Y004760D02*
X024171Y004760D01*
X024171Y005160D01*
X024300Y005160D01*
X024300Y005110D02*
X024171Y005110D01*
X024171Y005510D01*
X024300Y005510D01*
X024300Y005610D02*
X024171Y005610D01*
X024171Y006010D01*
X024300Y006010D01*
X024655Y006010D02*
X024821Y006010D01*
X024821Y005610D01*
X024646Y005610D01*
X024655Y005510D02*
X024821Y005510D01*
X024821Y005110D01*
X024646Y005110D01*
X024655Y005160D02*
X024821Y005160D01*
X024821Y004760D01*
X024646Y004760D01*
X024605Y004460D02*
X024771Y004460D01*
X024771Y004060D01*
X024596Y004060D01*
X024250Y004060D02*
X024121Y004060D01*
X026250Y004989D02*
X026650Y004989D01*
X026650Y005155D01*
X026800Y005164D02*
X026800Y004989D01*
X027200Y004989D01*
X027200Y005155D01*
X027300Y005164D02*
X027300Y004989D01*
X027700Y004989D01*
X027700Y005155D01*
X027800Y005164D02*
X027800Y004989D01*
X028200Y004989D01*
X028200Y005155D01*
X028300Y005164D02*
X028300Y004989D01*
X028700Y004989D01*
X028700Y005155D01*
X028700Y005510D02*
X028700Y005639D01*
X028300Y005639D01*
X028300Y005510D01*
X028200Y005510D02*
X028200Y005639D01*
X027800Y005639D01*
X027800Y005510D01*
X027700Y005510D02*
X027700Y005639D01*
X027300Y005639D01*
X027300Y005510D01*
X027200Y005510D02*
X027200Y005639D01*
X026800Y005639D01*
X026800Y005510D01*
X026650Y005510D02*
X026650Y005639D01*
X026250Y005639D01*
X026250Y005510D01*
X026250Y005164D02*
X026250Y004989D01*
X025579Y005916D02*
X025106Y005916D01*
X025106Y006074D01*
X025106Y006546D02*
X025106Y006704D01*
X025579Y006704D01*
X025776Y006467D02*
X025776Y006153D01*
X024621Y009110D02*
X024446Y009110D01*
X024621Y009110D02*
X024621Y009510D01*
X024455Y009510D01*
X024671Y009610D02*
X024671Y010010D01*
X024800Y010010D01*
X024800Y010110D02*
X024671Y010110D01*
X024671Y010510D01*
X024800Y010510D01*
X024800Y010610D02*
X024671Y010610D01*
X024671Y011010D01*
X024800Y011010D01*
X024800Y011110D02*
X024671Y011110D01*
X024671Y011510D01*
X024800Y011510D01*
X025155Y011510D02*
X025321Y011510D01*
X025321Y011110D01*
X025146Y011110D01*
X025155Y011010D02*
X025321Y011010D01*
X025321Y010610D01*
X025146Y010610D01*
X025155Y010510D02*
X025321Y010510D01*
X025321Y010110D01*
X025146Y010110D01*
X025155Y010010D02*
X025321Y010010D01*
X025321Y009610D01*
X025146Y009610D01*
X024800Y009610D02*
X024671Y009610D01*
X024100Y009510D02*
X023971Y009510D01*
X023971Y009110D01*
X024100Y009110D01*
X030800Y009981D02*
X031200Y009981D01*
X031200Y010110D01*
X031200Y010456D02*
X031200Y010631D01*
X030800Y010631D01*
X030800Y010465D01*
X030800Y010110D02*
X030800Y009981D01*
X032370Y008334D02*
X032370Y006286D01*
X031300Y006310D02*
X031300Y006181D01*
X030900Y006181D01*
X030900Y006310D01*
X030900Y006665D02*
X030900Y006831D01*
X031300Y006831D01*
X031300Y006656D01*
X016921Y003010D02*
X016921Y002610D01*
X016746Y002610D01*
X016400Y002610D02*
X016271Y002610D01*
X016271Y003010D01*
X016400Y003010D01*
X016755Y003010D02*
X016921Y003010D01*
X015321Y004110D02*
X015321Y004510D01*
X015155Y004510D01*
X015146Y004610D02*
X015321Y004610D01*
X015321Y005010D01*
X015155Y005010D01*
X015146Y005110D02*
X015321Y005110D01*
X015321Y005510D01*
X015155Y005510D01*
X014800Y005510D02*
X014671Y005510D01*
X014671Y005110D01*
X014800Y005110D01*
X014800Y005010D02*
X014671Y005010D01*
X014671Y004610D01*
X014800Y004610D01*
X014800Y004510D02*
X014671Y004510D01*
X014671Y004110D01*
X014800Y004110D01*
X015146Y004110D02*
X015321Y004110D01*
X015671Y005110D02*
X015671Y005510D01*
X015800Y005510D01*
X016155Y005510D02*
X016321Y005510D01*
X016321Y005110D01*
X016146Y005110D01*
X015800Y005110D02*
X015671Y005110D01*
X012154Y004625D02*
X010618Y004625D01*
X010618Y006397D01*
X012154Y006397D01*
X012154Y004625D01*
X010618Y004625D02*
X010500Y004625D01*
X010500Y006397D01*
X010618Y006397D01*
X010579Y006357D02*
X010579Y004664D01*
X010539Y004664D02*
X010539Y006357D01*
X010500Y006397D02*
X010382Y006397D01*
X010382Y004625D01*
X010500Y004625D01*
X010461Y004664D02*
X010461Y006357D01*
X010421Y006357D02*
X010421Y004664D01*
X008894Y004889D02*
X008894Y004416D01*
X008736Y004416D01*
X008264Y004416D02*
X008106Y004416D01*
X008106Y004889D01*
X008343Y005086D02*
X008657Y005086D01*
X007394Y004889D02*
X007394Y004416D01*
X007236Y004416D01*
X006764Y004416D02*
X006606Y004416D01*
X006606Y004889D01*
X006843Y005086D02*
X007157Y005086D01*
X007106Y005916D02*
X007106Y006074D01*
X007106Y005916D02*
X007579Y005916D01*
X007776Y006153D02*
X007776Y006467D01*
X007579Y006704D02*
X007106Y006704D01*
X007106Y006546D01*
X004894Y006916D02*
X004894Y007074D01*
X004894Y006916D02*
X004421Y006916D01*
X004224Y007153D02*
X004224Y007467D01*
X004421Y007704D02*
X004894Y007704D01*
X004894Y007546D01*
X002694Y007746D02*
X002694Y007904D01*
X002221Y007904D01*
X002024Y007667D02*
X002024Y007353D01*
X002221Y007116D02*
X002694Y007116D01*
X002694Y007274D01*
X001169Y008893D02*
X000500Y008893D01*
X000500Y011727D01*
X001169Y011727D01*
X001169Y011570D01*
X001169Y009050D02*
X001169Y008893D01*
X006843Y003586D02*
X007157Y003586D01*
X007394Y003389D02*
X007394Y002916D01*
X007236Y002916D01*
X006764Y002916D02*
X006606Y002916D01*
X006606Y003389D01*
X010224Y001467D02*
X010224Y001153D01*
X010421Y000916D02*
X010894Y000916D01*
X010894Y001074D01*
X010894Y001546D02*
X010894Y001704D01*
X010421Y001704D01*
X014273Y015783D02*
X014745Y015783D01*
X014745Y016806D01*
X014273Y016806D01*
X014273Y015783D01*
D12*
X007858Y017983D02*
X005142Y017983D01*
X005142Y019637D01*
X007858Y019637D01*
X007858Y017983D01*
X006337Y017889D02*
X006337Y017812D01*
X006030Y017505D01*
X006030Y017428D01*
X005877Y017505D02*
X005800Y017428D01*
X005646Y017428D01*
X005570Y017505D01*
X005416Y017505D02*
X005340Y017428D01*
X005186Y017428D01*
X005109Y017505D01*
X005109Y017812D01*
X005186Y017889D01*
X005340Y017889D01*
X005416Y017812D01*
X005570Y017812D02*
X005646Y017889D01*
X005800Y017889D01*
X005877Y017812D01*
X005877Y017735D01*
X005800Y017658D01*
X005877Y017582D01*
X005877Y017505D01*
X005800Y017658D02*
X005723Y017658D01*
X006030Y017889D02*
X006337Y017889D01*
X003858Y017983D02*
X001142Y017983D01*
X001142Y019637D01*
X003858Y019637D01*
X003858Y017983D01*
X002260Y019766D02*
X002106Y019766D01*
X002029Y019842D01*
X002029Y019919D01*
X002106Y019996D01*
X002260Y019996D01*
X002336Y019919D01*
X002336Y019842D01*
X002260Y019766D01*
X002260Y019996D02*
X002336Y020072D01*
X002336Y020149D01*
X002260Y020226D01*
X002106Y020226D01*
X002029Y020149D01*
X002029Y020072D01*
X002106Y019996D01*
X001876Y020072D02*
X001799Y019996D01*
X001876Y019919D01*
X001876Y019842D01*
X001799Y019766D01*
X001646Y019766D01*
X001569Y019842D01*
X001415Y019842D02*
X001339Y019766D01*
X001185Y019766D01*
X001109Y019842D01*
X001109Y020149D01*
X001185Y020226D01*
X001339Y020226D01*
X001415Y020149D01*
X001569Y020149D02*
X001646Y020226D01*
X001799Y020226D01*
X001876Y020149D01*
X001876Y020072D01*
X001799Y019996D02*
X001722Y019996D01*
X001133Y015908D02*
X001210Y015832D01*
X001210Y015678D01*
X001133Y015602D01*
X000980Y015755D02*
X000980Y015832D01*
X001057Y015908D01*
X001133Y015908D01*
X000980Y015832D02*
X000903Y015908D01*
X000827Y015908D01*
X000750Y015832D01*
X000750Y015678D01*
X000827Y015602D01*
X000827Y015448D02*
X000750Y015371D01*
X000750Y015141D01*
X001210Y015141D01*
X001057Y015141D02*
X001057Y015371D01*
X000980Y015448D01*
X000827Y015448D01*
X000750Y014988D02*
X000750Y014681D01*
X000750Y014834D02*
X001210Y014834D01*
X002940Y015125D02*
X003247Y015125D01*
X003094Y015125D02*
X003094Y014664D01*
X003401Y014664D02*
X003401Y015125D01*
X003631Y015125D01*
X003708Y015048D01*
X003708Y014894D01*
X003631Y014818D01*
X003401Y014818D01*
X003861Y014894D02*
X004168Y014894D01*
X004091Y014664D02*
X004091Y015125D01*
X003861Y014894D01*
X003872Y014059D02*
X003565Y014059D01*
X003872Y013752D01*
X003949Y013828D01*
X003949Y013982D01*
X003872Y014059D01*
X003565Y014059D02*
X003488Y013982D01*
X003488Y013828D01*
X003565Y013752D01*
X003872Y013752D01*
X003949Y013598D02*
X003949Y013291D01*
X003642Y013598D01*
X003565Y013598D01*
X003488Y013522D01*
X003488Y013368D01*
X003565Y013291D01*
X003565Y013138D02*
X003488Y013061D01*
X003488Y012908D01*
X003565Y012831D01*
X003872Y012831D01*
X003949Y012908D01*
X003949Y013061D01*
X003872Y013138D01*
X004249Y012999D02*
X004249Y012846D01*
X004325Y012769D01*
X004632Y012769D01*
X004709Y012846D01*
X004709Y012999D01*
X004632Y013076D01*
X004632Y013229D02*
X004709Y013306D01*
X004709Y013460D01*
X004632Y013536D01*
X004556Y013536D01*
X004479Y013460D01*
X004479Y013383D01*
X004479Y013460D02*
X004402Y013536D01*
X004325Y013536D01*
X004249Y013460D01*
X004249Y013306D01*
X004325Y013229D01*
X004325Y013076D02*
X004249Y012999D01*
X004249Y013690D02*
X004479Y013690D01*
X004402Y013843D01*
X004402Y013920D01*
X004479Y013997D01*
X004632Y013997D01*
X004709Y013920D01*
X004709Y013767D01*
X004632Y013690D01*
X004249Y013690D02*
X004249Y013997D01*
X002591Y004401D02*
X001409Y004401D01*
X001409Y004223D01*
X001409Y004401D02*
X001587Y004401D01*
X001409Y004401D02*
X001409Y003219D01*
X001596Y003219D01*
X001409Y003219D02*
X001409Y003406D01*
X001409Y003219D02*
X002591Y003219D01*
X002591Y003406D01*
X002591Y003219D02*
X002404Y003219D01*
X002591Y003219D02*
X002591Y004401D01*
X002404Y004401D01*
X002591Y004401D02*
X002591Y004214D01*
X023620Y002640D02*
X023620Y002180D01*
X023620Y002333D02*
X023850Y002333D01*
X023927Y002410D01*
X023927Y002564D01*
X023850Y002640D01*
X023620Y002640D01*
X024080Y002487D02*
X024234Y002640D01*
X024234Y002180D01*
X024387Y002180D02*
X024080Y002180D01*
X026862Y004015D02*
X026862Y004605D01*
X027138Y004605D01*
X027138Y004015D01*
X026862Y004015D01*
X026882Y004133D02*
X027118Y004133D01*
X027138Y004231D02*
X027138Y004389D01*
X027118Y004487D02*
X026882Y004487D01*
X026862Y004389D02*
X026862Y004231D01*
X030070Y006780D02*
X030070Y007240D01*
X030300Y007240D01*
X030377Y007164D01*
X030377Y007010D01*
X030300Y006933D01*
X030070Y006933D01*
X030530Y006780D02*
X030837Y006780D01*
X030684Y006780D02*
X030684Y007240D01*
X030530Y007087D01*
X032681Y009553D02*
X032681Y010014D01*
X032912Y010014D01*
X032988Y009937D01*
X032988Y009783D01*
X032912Y009707D01*
X032681Y009707D01*
X032835Y009707D02*
X032988Y009553D01*
X033142Y009630D02*
X033142Y009707D01*
X033218Y009783D01*
X033372Y009783D01*
X033449Y009707D01*
X033449Y009630D01*
X033372Y009553D01*
X033218Y009553D01*
X033142Y009630D01*
X033218Y009783D02*
X033142Y009860D01*
X033142Y009937D01*
X033218Y010014D01*
X033372Y010014D01*
X033449Y009937D01*
X033449Y009860D01*
X033372Y009783D01*
X033144Y010578D02*
X033144Y010655D01*
X033451Y010962D01*
X033451Y011039D01*
X033144Y011039D01*
X032990Y010962D02*
X032990Y010809D01*
X032914Y010732D01*
X032683Y010732D01*
X032683Y010578D02*
X032683Y011039D01*
X032914Y011039D01*
X032990Y010962D01*
X032837Y010732D02*
X032990Y010578D01*
X033750Y012120D02*
X033750Y012427D01*
X033596Y012273D02*
X033903Y012273D01*
X033750Y013870D02*
X033750Y014177D01*
X034360Y015145D02*
X034640Y015145D01*
X034640Y015480D02*
X034360Y015480D01*
X035360Y016145D02*
X035640Y016145D01*
X035640Y016480D02*
X035360Y016480D01*
X032140Y018140D02*
X031860Y018140D01*
X031860Y018475D02*
X032140Y018475D01*
X029140Y018475D02*
X028860Y018475D01*
X028860Y018140D02*
X029140Y018140D01*
X031860Y021145D02*
X032140Y021145D01*
X032140Y021480D02*
X031860Y021480D01*
X031921Y021672D02*
X032079Y021672D01*
X032177Y021692D02*
X032177Y021928D01*
X032079Y021948D02*
X031921Y021948D01*
X031823Y021928D02*
X031823Y021692D01*
X031705Y021672D02*
X031705Y021948D01*
X032295Y021948D01*
X032295Y021672D01*
X031705Y021672D01*
X031165Y021670D02*
X031165Y021950D01*
X030830Y021950D02*
X030830Y021670D01*
X031705Y022172D02*
X031705Y022448D01*
X032295Y022448D01*
X032295Y022172D01*
X031705Y022172D01*
X031823Y022192D02*
X031823Y022428D01*
X031921Y022448D02*
X032079Y022448D01*
X032177Y022428D02*
X032177Y022192D01*
X032079Y022172D02*
X031921Y022172D01*
X033360Y022145D02*
X033640Y022145D01*
X033640Y022480D02*
X033360Y022480D01*
X035360Y019975D02*
X035640Y019975D01*
X035640Y019640D02*
X035360Y019640D01*
X030640Y012480D02*
X030360Y012480D01*
X030360Y012145D02*
X030640Y012145D01*
X030621Y001013D02*
X030693Y001013D01*
X030693Y000580D01*
X030621Y000580D02*
X030765Y000580D01*
X030911Y000652D02*
X030983Y000724D01*
X031199Y000724D01*
X031199Y000796D02*
X031199Y000580D01*
X030983Y000580D01*
X030911Y000652D01*
X030983Y000868D02*
X031127Y000868D01*
X031199Y000796D01*
X031346Y000868D02*
X031346Y000652D01*
X031418Y000580D01*
X031634Y000580D01*
X031634Y000508D02*
X031562Y000435D01*
X031490Y000435D01*
X031634Y000508D02*
X031634Y000868D01*
X031781Y000796D02*
X031853Y000868D01*
X031997Y000868D01*
X032069Y000796D01*
X032069Y000724D01*
X031781Y000724D01*
X031781Y000652D02*
X031781Y000796D01*
X031781Y000652D02*
X031853Y000580D01*
X031997Y000580D01*
X032216Y000580D02*
X032216Y000868D01*
X032216Y000724D02*
X032360Y000868D01*
X032432Y000868D01*
X032578Y000796D02*
X032578Y000652D01*
X032651Y000580D01*
X032795Y000580D01*
X032867Y000652D01*
X032867Y000796D01*
X032795Y000868D01*
X032651Y000868D01*
X032578Y000796D01*
X033013Y000868D02*
X033013Y000580D01*
X033013Y000868D02*
X033230Y000868D01*
X033302Y000796D01*
X033302Y000580D01*
X033448Y000652D02*
X033448Y000796D01*
X033521Y000868D01*
X033665Y000868D01*
X033737Y000796D01*
X033737Y000724D01*
X033448Y000724D01*
X033448Y000652D02*
X033521Y000580D01*
X033665Y000580D01*
X033883Y000580D02*
X033956Y000580D01*
X033956Y000652D01*
X033883Y000652D01*
X033883Y000580D01*
X034101Y000652D02*
X034173Y000580D01*
X034317Y000580D01*
X034390Y000652D01*
X034390Y000796D01*
X034317Y000868D01*
X034173Y000868D01*
X034101Y000796D01*
X034101Y000652D01*
X034536Y000724D02*
X034680Y000868D01*
X034752Y000868D01*
X034899Y000796D02*
X034899Y000652D01*
X034971Y000580D01*
X035187Y000580D01*
X035187Y000508D02*
X035187Y000868D01*
X034971Y000868D01*
X034899Y000796D01*
X034536Y000868D02*
X034536Y000580D01*
X035043Y000435D02*
X035115Y000435D01*
X035187Y000508D01*
X030475Y000580D02*
X030403Y000580D01*
X030403Y000652D01*
X030475Y000652D01*
X030475Y000580D01*
X030257Y000652D02*
X030257Y000868D01*
X030257Y000652D02*
X030185Y000580D01*
X030113Y000652D01*
X030040Y000580D01*
X029968Y000652D01*
X029968Y000868D01*
X029822Y000868D02*
X029822Y000652D01*
X029750Y000580D01*
X029678Y000652D01*
X029605Y000580D01*
X029533Y000652D01*
X029533Y000868D01*
X029387Y000868D02*
X029387Y000652D01*
X029315Y000580D01*
X029243Y000652D01*
X029170Y000580D01*
X029098Y000652D01*
X029098Y000868D01*
D13*
X028618Y002874D02*
X028382Y002874D01*
X028382Y003346D02*
X028618Y003346D01*
X029914Y005092D02*
X029914Y005328D01*
X030386Y005328D02*
X030386Y005092D01*
X032740Y004750D02*
X032740Y005870D01*
X033260Y005870D01*
X033260Y004750D01*
X032740Y004750D01*
X034440Y003570D02*
X035560Y003570D01*
X035560Y003050D01*
X034440Y003050D01*
X034440Y003570D01*
X034882Y004074D02*
X035118Y004074D01*
X035118Y004546D02*
X034882Y004546D01*
X032236Y006692D02*
X032236Y006928D01*
X031764Y006928D02*
X031764Y006692D01*
X031764Y007692D02*
X031764Y007928D01*
X032236Y007928D02*
X032236Y007692D01*
X029969Y007038D02*
X029772Y006841D01*
X026228Y006841D01*
X026031Y007038D01*
X026031Y010582D01*
X026228Y010779D01*
X029772Y010779D01*
X029969Y010582D01*
X029969Y007038D01*
X029969Y010582D01*
X029772Y010779D01*
X026228Y010779D01*
X026031Y010582D01*
X026031Y007038D01*
X026228Y006841D01*
X029772Y006841D01*
X029969Y007038D01*
X029221Y007432D02*
X029223Y007457D01*
X029229Y007481D01*
X029238Y007503D01*
X029251Y007524D01*
X029267Y007543D01*
X029286Y007559D01*
X029307Y007572D01*
X029329Y007581D01*
X029353Y007587D01*
X029378Y007589D01*
X029403Y007587D01*
X029427Y007581D01*
X029449Y007572D01*
X029470Y007559D01*
X029489Y007543D01*
X029505Y007524D01*
X029518Y007503D01*
X029527Y007481D01*
X029533Y007457D01*
X029535Y007432D01*
X029533Y007407D01*
X029527Y007383D01*
X029518Y007361D01*
X029505Y007340D01*
X029489Y007321D01*
X029470Y007305D01*
X029449Y007292D01*
X029427Y007283D01*
X029403Y007277D01*
X029378Y007275D01*
X029353Y007277D01*
X029329Y007283D01*
X029307Y007292D01*
X029286Y007305D01*
X029267Y007321D01*
X029251Y007340D01*
X029238Y007361D01*
X029229Y007383D01*
X029223Y007407D01*
X029221Y007432D01*
X029223Y007457D01*
X029229Y007481D01*
X029238Y007503D01*
X029251Y007524D01*
X029267Y007543D01*
X029286Y007559D01*
X029307Y007572D01*
X029329Y007581D01*
X029353Y007587D01*
X029378Y007589D01*
X029403Y007587D01*
X029427Y007581D01*
X029449Y007572D01*
X029470Y007559D01*
X029489Y007543D01*
X029505Y007524D01*
X029518Y007503D01*
X029527Y007481D01*
X029533Y007457D01*
X029535Y007432D01*
X029533Y007407D01*
X029527Y007383D01*
X029518Y007361D01*
X029505Y007340D01*
X029489Y007321D01*
X029470Y007305D01*
X029449Y007292D01*
X029427Y007283D01*
X029403Y007277D01*
X029378Y007275D01*
X029353Y007277D01*
X029329Y007283D01*
X029307Y007292D01*
X029286Y007305D01*
X029267Y007321D01*
X029251Y007340D01*
X029238Y007361D01*
X029229Y007383D01*
X029223Y007407D01*
X029221Y007432D01*
X025086Y007228D02*
X025086Y006992D01*
X024614Y006992D02*
X024614Y007228D01*
X030382Y011574D02*
X030618Y011574D01*
X030618Y012046D02*
X030382Y012046D01*
X027336Y015592D02*
X027336Y015828D01*
X026864Y015828D02*
X026864Y015592D01*
X024902Y013727D02*
X024098Y013727D01*
X024098Y012893D01*
X024902Y012893D01*
X024902Y013727D01*
X029940Y017050D02*
X031060Y017050D01*
X031060Y017570D01*
X029940Y017570D01*
X029940Y017050D01*
X032661Y016971D02*
X032661Y018649D01*
X034339Y018649D01*
X034339Y016971D01*
X032661Y016971D01*
X032890Y017200D02*
X032890Y018420D01*
X034110Y018420D01*
X034110Y017200D01*
X032890Y017200D01*
X033600Y016810D02*
X033600Y015810D01*
X033602Y015793D01*
X033606Y015776D01*
X033613Y015760D01*
X033623Y015746D01*
X033636Y015733D01*
X033650Y015723D01*
X033666Y015716D01*
X033683Y015712D01*
X033700Y015710D01*
X034300Y015710D01*
X034317Y015712D01*
X034334Y015716D01*
X034350Y015723D01*
X034364Y015733D01*
X034377Y015746D01*
X034387Y015760D01*
X034394Y015776D01*
X034398Y015793D01*
X034400Y015810D01*
X034400Y016810D01*
X034398Y016827D01*
X034394Y016844D01*
X034387Y016860D01*
X034377Y016874D01*
X034364Y016887D01*
X034350Y016897D01*
X034334Y016904D01*
X034317Y016908D01*
X034300Y016910D01*
X033700Y016910D01*
X033683Y016908D01*
X033666Y016904D01*
X033650Y016897D01*
X033636Y016887D01*
X033623Y016874D01*
X033613Y016860D01*
X033606Y016844D01*
X033602Y016827D01*
X033600Y016810D01*
X028736Y019692D02*
X028736Y019928D01*
X028264Y019928D02*
X028264Y019692D01*
X015950Y020008D02*
X015523Y020008D01*
X015523Y019901D02*
X015523Y020115D01*
X015630Y020222D01*
X015843Y020222D01*
X015950Y020115D01*
X015950Y020008D01*
X015843Y019795D02*
X015630Y019795D01*
X015523Y019901D01*
X015306Y019901D02*
X015306Y020115D01*
X015199Y020222D01*
X014879Y020222D01*
X014879Y019581D01*
X014879Y019795D02*
X015199Y019795D01*
X015306Y019901D01*
X014661Y019795D02*
X014341Y019795D01*
X014234Y019901D01*
X014234Y020222D01*
X014018Y020222D02*
X013804Y020222D01*
X013911Y020328D02*
X013911Y019901D01*
X014018Y019795D01*
X013587Y019901D02*
X013587Y020115D01*
X013480Y020222D01*
X013267Y020222D01*
X013160Y020115D01*
X013160Y019901D01*
X013267Y019795D01*
X013480Y019795D01*
X013587Y019901D01*
X012944Y019795D02*
X012837Y019901D01*
X012837Y020328D01*
X012730Y020222D02*
X012944Y020222D01*
X012513Y020115D02*
X012406Y020222D01*
X012192Y020222D01*
X012086Y020115D01*
X012086Y019901D01*
X012192Y019795D01*
X012406Y019795D01*
X012513Y019901D01*
X012513Y020115D01*
X011869Y020222D02*
X011762Y020222D01*
X011548Y020008D01*
X011548Y019795D02*
X011548Y020222D01*
X011331Y020115D02*
X011331Y019901D01*
X011224Y019795D01*
X010904Y019795D01*
X010904Y019581D02*
X010904Y020222D01*
X011224Y020222D01*
X011331Y020115D01*
X014448Y019581D02*
X014554Y019581D01*
X014661Y019688D01*
X014661Y020222D01*
X023500Y001560D02*
X023500Y001060D01*
D14*
X001344Y000852D02*
X001344Y001122D01*
X001479Y001122D01*
X001524Y001077D01*
X001524Y000987D01*
X001479Y000942D01*
X001344Y000942D01*
X001434Y000942D02*
X001524Y000852D01*
X001621Y000852D02*
X001621Y001122D01*
X001621Y000852D02*
X001801Y000852D01*
X001987Y000852D02*
X001987Y000987D01*
X002077Y001077D01*
X002077Y001122D01*
X002173Y001032D02*
X002263Y001122D01*
X002263Y000852D01*
X002173Y000852D02*
X002353Y000852D01*
X001987Y000987D02*
X001897Y001077D01*
X001897Y001122D01*
X001108Y003352D02*
X001108Y003443D01*
X001108Y003398D02*
X000837Y003398D01*
X000837Y003443D02*
X000837Y003352D01*
X000882Y003537D02*
X001063Y003537D01*
X001108Y003582D01*
X001108Y003672D01*
X001063Y003717D01*
X001108Y003813D02*
X001108Y003993D01*
X001108Y003903D02*
X000837Y003903D01*
X000928Y003813D01*
X000882Y003717D02*
X000837Y003672D01*
X000837Y003582D01*
X000882Y003537D01*
X000882Y004089D02*
X000837Y004134D01*
X000837Y004224D01*
X000882Y004269D01*
X000928Y004269D01*
X001108Y004089D01*
X001108Y004269D01*
X001212Y004225D02*
X001212Y004410D01*
X001150Y004472D01*
X001026Y004472D01*
X000965Y004410D01*
X000965Y004225D01*
X001335Y004225D01*
X001335Y004593D02*
X001335Y004840D01*
X001335Y004717D02*
X000965Y004717D01*
X001088Y004593D01*
X001416Y006676D02*
X001663Y006676D01*
X001724Y006738D01*
X001724Y006861D01*
X001663Y006923D01*
X001663Y007044D02*
X001724Y007106D01*
X001724Y007229D01*
X001663Y007291D01*
X001601Y007291D01*
X001539Y007229D01*
X001539Y007168D01*
X001539Y007229D02*
X001477Y007291D01*
X001416Y007291D01*
X001354Y007229D01*
X001354Y007106D01*
X001416Y007044D01*
X001416Y006923D02*
X001354Y006861D01*
X001354Y006738D01*
X001416Y006676D01*
X001416Y007413D02*
X001477Y007413D01*
X001539Y007474D01*
X001539Y007659D01*
X001416Y007659D02*
X001663Y007659D01*
X001724Y007598D01*
X001724Y007474D01*
X001663Y007413D01*
X001416Y007413D02*
X001354Y007474D01*
X001354Y007598D01*
X001416Y007659D01*
X001493Y008407D02*
X001313Y008407D01*
X001493Y008588D01*
X001493Y008633D01*
X001448Y008678D01*
X001358Y008678D01*
X001313Y008633D01*
X001217Y008678D02*
X001217Y008498D01*
X001126Y008407D01*
X001036Y008498D01*
X001036Y008678D01*
X000940Y008633D02*
X000895Y008678D01*
X000805Y008678D01*
X000760Y008633D01*
X000760Y008588D01*
X000805Y008543D01*
X000895Y008543D01*
X000940Y008498D01*
X000940Y008453D01*
X000895Y008407D01*
X000805Y008407D01*
X000760Y008453D01*
X002371Y007057D02*
X002506Y007057D01*
X002551Y007012D01*
X002551Y006832D01*
X002506Y006787D01*
X002371Y006787D01*
X002371Y007057D01*
X002647Y007012D02*
X002692Y007057D01*
X002782Y007057D01*
X002827Y007012D01*
X002827Y006967D01*
X002782Y006922D01*
X002827Y006877D01*
X002827Y006832D01*
X002782Y006787D01*
X002692Y006787D01*
X002647Y006832D01*
X002737Y006922D02*
X002782Y006922D01*
X004541Y006829D02*
X004541Y006558D01*
X004676Y006558D01*
X004721Y006604D01*
X004721Y006784D01*
X004676Y006829D01*
X004541Y006829D01*
X004817Y006784D02*
X004862Y006829D01*
X004952Y006829D01*
X004997Y006784D01*
X004997Y006739D01*
X004817Y006558D01*
X004997Y006558D01*
X006185Y005490D02*
X006185Y005243D01*
X006185Y005367D02*
X005815Y005367D01*
X005938Y005243D01*
X005876Y005122D02*
X006000Y005122D01*
X006062Y005060D01*
X006062Y004875D01*
X006185Y004875D02*
X005815Y004875D01*
X005815Y005060D01*
X005876Y005122D01*
X006673Y005532D02*
X006808Y005532D01*
X006853Y005577D01*
X006853Y005757D01*
X006808Y005802D01*
X006673Y005802D01*
X006673Y005532D01*
X006949Y005532D02*
X007129Y005532D01*
X007039Y005532D02*
X007039Y005802D01*
X006949Y005712D01*
X007225Y005757D02*
X007270Y005802D01*
X007360Y005802D01*
X007405Y005757D01*
X007225Y005577D01*
X007270Y005532D01*
X007360Y005532D01*
X007405Y005577D01*
X007405Y005757D01*
X007225Y005757D02*
X007225Y005577D01*
X007735Y004707D02*
X008005Y004707D01*
X008005Y004617D02*
X008005Y004797D01*
X007825Y004617D02*
X007735Y004707D01*
X007780Y004521D02*
X007735Y004476D01*
X007735Y004341D01*
X008005Y004341D01*
X008005Y004476D01*
X007960Y004521D01*
X007780Y004521D01*
X006755Y004365D02*
X006755Y004185D01*
X006755Y004275D02*
X006485Y004275D01*
X006575Y004185D01*
X006530Y004088D02*
X006710Y004088D01*
X006755Y004043D01*
X006755Y003953D01*
X006710Y003908D01*
X006530Y003908D01*
X006485Y003953D01*
X006485Y004043D01*
X006530Y004088D01*
X006665Y003998D02*
X006755Y004088D01*
X006539Y002720D02*
X006494Y002720D01*
X006494Y002540D01*
X006539Y002444D02*
X006494Y002399D01*
X006494Y002264D01*
X006765Y002264D01*
X006765Y002399D01*
X006720Y002444D01*
X006539Y002444D01*
X006720Y002540D02*
X006765Y002540D01*
X006720Y002540D02*
X006539Y002720D01*
X009993Y004642D02*
X009993Y004732D01*
X009993Y004687D02*
X010264Y004687D01*
X010264Y004642D02*
X010264Y004732D01*
X010219Y004827D02*
X010264Y004872D01*
X010264Y004962D01*
X010219Y005007D01*
X010219Y005103D02*
X010264Y005148D01*
X010264Y005238D01*
X010219Y005283D01*
X010173Y005283D01*
X010128Y005238D01*
X010128Y005103D01*
X010219Y005103D01*
X010128Y005103D02*
X010038Y005193D01*
X009993Y005283D01*
X010038Y005007D02*
X009993Y004962D01*
X009993Y004872D01*
X010038Y004827D01*
X010219Y004827D01*
X013019Y007120D02*
X013109Y007120D01*
X013064Y007120D02*
X013064Y007390D01*
X013019Y007390D02*
X013109Y007390D01*
X013203Y007345D02*
X013203Y007165D01*
X013248Y007120D01*
X013338Y007120D01*
X013383Y007165D01*
X013479Y007120D02*
X013660Y007120D01*
X013569Y007120D02*
X013569Y007390D01*
X013479Y007300D01*
X013383Y007345D02*
X013338Y007390D01*
X013248Y007390D01*
X013203Y007345D01*
X013756Y007300D02*
X013846Y007390D01*
X013846Y007120D01*
X013756Y007120D02*
X013936Y007120D01*
X020415Y008875D02*
X020415Y009060D01*
X020476Y009122D01*
X020600Y009122D01*
X020662Y009060D01*
X020662Y008875D01*
X020785Y008875D02*
X020415Y008875D01*
X020538Y009243D02*
X020415Y009367D01*
X020785Y009367D01*
X020785Y009490D02*
X020785Y009243D01*
X023968Y010038D02*
X023968Y010128D01*
X023968Y010083D02*
X024238Y010083D01*
X024238Y010038D02*
X024238Y010128D01*
X024193Y010222D02*
X024238Y010267D01*
X024238Y010357D01*
X024193Y010402D01*
X024193Y010498D02*
X024148Y010498D01*
X024103Y010543D01*
X024103Y010633D01*
X024148Y010678D01*
X024193Y010678D01*
X024238Y010633D01*
X024238Y010543D01*
X024193Y010498D01*
X024103Y010543D02*
X024058Y010498D01*
X024013Y010498D01*
X023968Y010543D01*
X023968Y010633D01*
X024013Y010678D01*
X024058Y010678D01*
X024103Y010633D01*
X024013Y010402D02*
X023968Y010357D01*
X023968Y010267D01*
X024013Y010222D01*
X024193Y010222D01*
X029915Y012725D02*
X030095Y012725D01*
X030191Y012725D02*
X030371Y012725D01*
X030281Y012725D02*
X030281Y012995D01*
X030191Y012905D01*
X029915Y012995D02*
X029915Y012725D01*
X030281Y011470D02*
X030236Y011425D01*
X030236Y011245D01*
X030281Y011200D01*
X030371Y011200D01*
X030416Y011245D01*
X030513Y011245D02*
X030558Y011200D01*
X030648Y011200D01*
X030693Y011245D01*
X030693Y011335D01*
X030648Y011380D01*
X030603Y011380D01*
X030513Y011335D01*
X030513Y011470D01*
X030693Y011470D01*
X030789Y011425D02*
X030834Y011470D01*
X030924Y011470D01*
X030969Y011425D01*
X030969Y011380D01*
X030789Y011200D01*
X030969Y011200D01*
X030416Y011425D02*
X030371Y011470D01*
X030281Y011470D01*
X030767Y008934D02*
X030902Y008934D01*
X030947Y008889D01*
X030947Y008799D01*
X030902Y008754D01*
X030767Y008754D01*
X030857Y008754D02*
X030947Y008664D01*
X031043Y008709D02*
X031088Y008664D01*
X031178Y008664D01*
X031223Y008709D01*
X031223Y008754D01*
X031178Y008799D01*
X031043Y008799D01*
X031043Y008709D01*
X031043Y008799D02*
X031133Y008889D01*
X031223Y008934D01*
X030767Y008934D02*
X030767Y008664D01*
X031408Y008116D02*
X031543Y007981D01*
X031543Y008161D01*
X031678Y008116D02*
X031408Y008116D01*
X031408Y007885D02*
X031408Y007705D01*
X031543Y007705D01*
X031498Y007795D01*
X031498Y007840D01*
X031543Y007885D01*
X031633Y007885D01*
X031678Y007840D01*
X031678Y007750D01*
X031633Y007705D01*
X031633Y007609D02*
X031678Y007564D01*
X031678Y007474D01*
X031633Y007429D01*
X031453Y007429D01*
X031408Y007474D01*
X031408Y007564D01*
X031453Y007609D01*
X031440Y007071D02*
X031485Y007071D01*
X031530Y007026D01*
X031575Y007071D01*
X031620Y007071D01*
X031665Y007026D01*
X031665Y006936D01*
X031620Y006891D01*
X031620Y006795D02*
X031530Y006795D01*
X031485Y006749D01*
X031485Y006704D01*
X031530Y006614D01*
X031395Y006614D01*
X031395Y006795D01*
X031440Y006891D02*
X031395Y006936D01*
X031395Y007026D01*
X031440Y007071D01*
X031530Y007026D02*
X031530Y006981D01*
X031620Y006795D02*
X031665Y006749D01*
X031665Y006659D01*
X031620Y006614D01*
X031620Y006518D02*
X031665Y006473D01*
X031665Y006383D01*
X031620Y006338D01*
X031440Y006338D01*
X031395Y006383D01*
X031395Y006473D01*
X031440Y006518D01*
X030275Y006549D02*
X030275Y006594D01*
X030230Y006639D01*
X030140Y006639D01*
X030095Y006594D01*
X029999Y006594D02*
X029954Y006639D01*
X029863Y006639D01*
X029818Y006594D01*
X029818Y006414D01*
X029863Y006369D01*
X029954Y006369D01*
X029999Y006414D01*
X030095Y006369D02*
X030275Y006549D01*
X030275Y006369D02*
X030095Y006369D01*
X029724Y006369D02*
X029634Y006369D01*
X029679Y006369D02*
X029679Y006639D01*
X029634Y006639D02*
X029724Y006639D01*
X026372Y006200D02*
X026326Y006200D01*
X026146Y006380D01*
X026101Y006380D01*
X026101Y006200D01*
X026146Y006104D02*
X026101Y006059D01*
X026101Y005969D01*
X026146Y005924D01*
X026326Y005924D01*
X026372Y005969D01*
X026372Y006059D01*
X026326Y006104D01*
X026372Y005830D02*
X026372Y005740D01*
X026372Y005785D02*
X026101Y005785D01*
X026101Y005740D02*
X026101Y005830D01*
X029215Y004036D02*
X029350Y003901D01*
X029350Y004081D01*
X029485Y004036D02*
X029215Y004036D01*
X029260Y003805D02*
X029215Y003760D01*
X029215Y003625D01*
X029485Y003625D01*
X029395Y003625D02*
X029395Y003760D01*
X029350Y003805D01*
X029260Y003805D01*
X029395Y003715D02*
X029485Y003805D01*
X029800Y003788D02*
X030070Y003788D01*
X030070Y003602D02*
X029800Y003422D01*
X029800Y003602D02*
X030070Y003422D01*
X029800Y003698D02*
X029800Y003878D01*
X029890Y003974D02*
X029800Y004064D01*
X030070Y004064D01*
X030070Y003974D02*
X030070Y004154D01*
X033643Y004517D02*
X033643Y004652D01*
X033688Y004698D01*
X033868Y004698D01*
X033913Y004652D01*
X033913Y004517D01*
X033643Y004517D01*
X033778Y004794D02*
X033778Y004974D01*
X033643Y004929D02*
X033778Y004794D01*
X033913Y004929D02*
X033643Y004929D01*
X033715Y005268D02*
X034023Y005268D01*
X034085Y005330D01*
X034085Y005454D01*
X034023Y005515D01*
X033715Y005515D01*
X033838Y005637D02*
X033715Y005760D01*
X034085Y005760D01*
X034085Y005637D02*
X034085Y005884D01*
X035394Y004945D02*
X035574Y004945D01*
X035670Y004855D02*
X035760Y004945D01*
X035760Y004675D01*
X035670Y004675D02*
X035850Y004675D01*
X035888Y004379D02*
X035843Y004334D01*
X035843Y004289D01*
X035888Y004244D01*
X036023Y004244D01*
X036023Y004334D02*
X035978Y004379D01*
X035888Y004379D01*
X036023Y004334D02*
X036023Y004153D01*
X035978Y004108D01*
X035888Y004108D01*
X035843Y004153D01*
X035747Y004153D02*
X035702Y004108D01*
X035612Y004108D01*
X035567Y004153D01*
X035567Y004334D01*
X035612Y004379D01*
X035702Y004379D01*
X035747Y004334D01*
X035394Y004675D02*
X035394Y004945D01*
X035394Y004810D02*
X035484Y004810D01*
X035653Y003342D02*
X035788Y003342D01*
X035833Y003297D01*
X035833Y003117D01*
X035788Y003072D01*
X035653Y003072D01*
X035653Y003342D01*
X035929Y003342D02*
X035929Y003207D01*
X036020Y003252D01*
X036065Y003252D01*
X036110Y003207D01*
X036110Y003117D01*
X036065Y003072D01*
X035975Y003072D01*
X035929Y003117D01*
X035929Y003342D02*
X036110Y003342D01*
X033737Y002168D02*
X033467Y002168D01*
X033602Y002033D01*
X033602Y002213D01*
X033512Y001937D02*
X033467Y001892D01*
X033467Y001802D01*
X033512Y001757D01*
X033692Y001757D01*
X033737Y001802D01*
X033737Y001892D01*
X033692Y001937D01*
X033737Y001663D02*
X033737Y001573D01*
X033737Y001618D02*
X033467Y001618D01*
X033467Y001573D02*
X033467Y001663D01*
X033736Y007617D02*
X033781Y007617D01*
X033871Y007707D01*
X034007Y007707D01*
X033871Y007707D02*
X033781Y007797D01*
X033736Y007797D01*
X033826Y007893D02*
X033736Y007983D01*
X034007Y007983D01*
X034007Y007893D02*
X034007Y008073D01*
X034118Y011847D02*
X034208Y011847D01*
X034253Y011892D01*
X034253Y012117D01*
X034349Y012072D02*
X034349Y012027D01*
X034394Y011982D01*
X034484Y011982D01*
X034529Y011937D01*
X034529Y011892D01*
X034484Y011847D01*
X034394Y011847D01*
X034349Y011892D01*
X034349Y012072D02*
X034394Y012117D01*
X034484Y012117D01*
X034529Y012072D01*
X034625Y012117D02*
X034625Y011847D01*
X034760Y011847D01*
X034805Y011892D01*
X034805Y011937D01*
X034760Y011982D01*
X034625Y011982D01*
X034760Y011982D02*
X034805Y012027D01*
X034805Y012072D01*
X034760Y012117D01*
X034625Y012117D01*
X034901Y011982D02*
X035081Y011982D01*
X035178Y011847D02*
X035178Y012117D01*
X035268Y012027D01*
X035358Y012117D01*
X035358Y011847D01*
X035454Y011847D02*
X035544Y011847D01*
X035499Y011847D02*
X035499Y012117D01*
X035454Y012117D02*
X035544Y012117D01*
X035638Y012072D02*
X035638Y011892D01*
X035683Y011847D01*
X035773Y011847D01*
X035818Y011892D01*
X035914Y011847D02*
X035914Y012117D01*
X036049Y012117D01*
X036094Y012072D01*
X036094Y011982D01*
X036049Y011937D01*
X035914Y011937D01*
X036004Y011937D02*
X036094Y011847D01*
X036190Y011892D02*
X036190Y012072D01*
X036235Y012117D01*
X036326Y012117D01*
X036371Y012072D01*
X036371Y011892D01*
X036326Y011847D01*
X036235Y011847D01*
X036190Y011892D01*
X035818Y012072D02*
X035773Y012117D01*
X035683Y012117D01*
X035638Y012072D01*
X034118Y011847D02*
X034073Y011892D01*
X034073Y012117D01*
X029748Y014414D02*
X029703Y014369D01*
X029613Y014369D01*
X029567Y014414D01*
X029567Y014504D02*
X029658Y014549D01*
X029703Y014549D01*
X029748Y014504D01*
X029748Y014414D01*
X029567Y014504D02*
X029567Y014639D01*
X029748Y014639D01*
X029471Y014639D02*
X029291Y014639D01*
X029291Y014504D01*
X029381Y014549D01*
X029426Y014549D01*
X029471Y014504D01*
X029471Y014414D01*
X029426Y014369D01*
X029336Y014369D01*
X029291Y014414D01*
X029195Y014414D02*
X029150Y014369D01*
X029060Y014369D01*
X029015Y014414D01*
X029015Y014594D01*
X029060Y014639D01*
X029150Y014639D01*
X029195Y014594D01*
X027842Y014565D02*
X027842Y014520D01*
X027797Y014475D01*
X027707Y014475D01*
X027662Y014520D01*
X027566Y014520D02*
X027566Y014745D01*
X027662Y014700D02*
X027707Y014745D01*
X027797Y014745D01*
X027842Y014700D01*
X027842Y014655D01*
X027797Y014610D01*
X027842Y014565D01*
X027797Y014610D02*
X027752Y014610D01*
X027566Y014520D02*
X027521Y014475D01*
X027430Y014475D01*
X027385Y014520D01*
X027385Y014745D01*
X024650Y016093D02*
X024470Y016093D01*
X024605Y016229D01*
X024605Y015958D01*
X024374Y016003D02*
X024374Y016229D01*
X024194Y016229D02*
X024194Y016003D01*
X024239Y015958D01*
X024329Y015958D01*
X024374Y016003D01*
X025744Y018238D02*
X025744Y018508D01*
X025879Y018508D01*
X025924Y018463D01*
X025924Y018373D01*
X025879Y018328D01*
X025744Y018328D01*
X025834Y018328D02*
X025924Y018238D01*
X026020Y018283D02*
X026065Y018238D01*
X026155Y018238D01*
X026200Y018283D01*
X026200Y018328D01*
X026155Y018373D01*
X026020Y018373D01*
X026020Y018283D01*
X026020Y018373D02*
X026110Y018463D01*
X026200Y018508D01*
X026296Y018373D02*
X026477Y018373D01*
X026431Y018238D02*
X026431Y018508D01*
X026296Y018373D01*
X026209Y019247D02*
X026119Y019247D01*
X026074Y019292D01*
X026074Y019382D01*
X026209Y019382D01*
X026254Y019337D01*
X026254Y019292D01*
X026209Y019247D01*
X026350Y019292D02*
X026395Y019247D01*
X026485Y019247D01*
X026530Y019292D01*
X026530Y019337D01*
X026485Y019382D01*
X026440Y019382D01*
X026485Y019382D02*
X026530Y019427D01*
X026530Y019472D01*
X026485Y019517D01*
X026395Y019517D01*
X026350Y019472D01*
X026254Y019517D02*
X026164Y019472D01*
X026074Y019382D01*
X025978Y019382D02*
X025933Y019337D01*
X025797Y019337D01*
X025797Y019247D02*
X025797Y019517D01*
X025933Y019517D01*
X025978Y019472D01*
X025978Y019382D01*
X025887Y019337D02*
X025978Y019247D01*
X025969Y020247D02*
X025879Y020337D01*
X025924Y020337D02*
X025788Y020337D01*
X025788Y020247D02*
X025788Y020517D01*
X025924Y020517D01*
X025969Y020472D01*
X025969Y020382D01*
X025924Y020337D01*
X026065Y020382D02*
X026200Y020382D01*
X026245Y020337D01*
X026245Y020292D01*
X026200Y020247D01*
X026110Y020247D01*
X026065Y020292D01*
X026065Y020382D01*
X026155Y020472D01*
X026245Y020517D01*
X026341Y020472D02*
X026386Y020517D01*
X026476Y020517D01*
X026521Y020472D01*
X026521Y020427D01*
X026341Y020247D01*
X026521Y020247D01*
X026468Y020920D02*
X026287Y020920D01*
X026378Y020920D02*
X026378Y021190D01*
X026287Y021100D01*
X026191Y021010D02*
X026146Y021055D01*
X026011Y021055D01*
X026011Y020965D01*
X026056Y020920D01*
X026146Y020920D01*
X026191Y020965D01*
X026191Y021010D01*
X026101Y021145D02*
X026011Y021055D01*
X025915Y021055D02*
X025870Y021010D01*
X025735Y021010D01*
X025735Y020920D02*
X025735Y021190D01*
X025870Y021190D01*
X025915Y021145D01*
X025915Y021055D01*
X025825Y021010D02*
X025915Y020920D01*
X026101Y021145D02*
X026191Y021190D01*
X027974Y020973D02*
X027974Y020726D01*
X028036Y020665D01*
X028159Y020665D01*
X028221Y020726D01*
X028342Y020665D02*
X028589Y020912D01*
X028589Y020973D01*
X028527Y021035D01*
X028404Y021035D01*
X028342Y020973D01*
X028221Y020973D02*
X028159Y021035D01*
X028036Y021035D01*
X027974Y020973D01*
X028342Y020665D02*
X028589Y020665D01*
X028711Y020665D02*
X028711Y020726D01*
X028957Y020973D01*
X028957Y021035D01*
X028711Y021035D01*
X030412Y021669D02*
X030457Y021624D01*
X030637Y021624D01*
X030682Y021669D01*
X030682Y021759D01*
X030637Y021804D01*
X030637Y021900D02*
X030682Y021945D01*
X030682Y022035D01*
X030637Y022080D01*
X030547Y022080D01*
X030502Y022035D01*
X030502Y021990D01*
X030547Y021900D01*
X030412Y021900D01*
X030412Y022080D01*
X030457Y022176D02*
X030502Y022176D01*
X030547Y022221D01*
X030547Y022311D01*
X030592Y022357D01*
X030637Y022357D01*
X030682Y022311D01*
X030682Y022221D01*
X030637Y022176D01*
X030592Y022176D01*
X030547Y022221D01*
X030547Y022311D02*
X030502Y022357D01*
X030457Y022357D01*
X030412Y022311D01*
X030412Y022221D01*
X030457Y022176D01*
X030457Y021804D02*
X030412Y021759D01*
X030412Y021669D01*
X031426Y020979D02*
X031426Y020799D01*
X031471Y020754D01*
X031561Y020754D01*
X031606Y020799D01*
X031702Y020799D02*
X031747Y020754D01*
X031837Y020754D01*
X031882Y020799D01*
X031882Y020889D01*
X031837Y020934D01*
X031792Y020934D01*
X031702Y020889D01*
X031702Y021024D01*
X031882Y021024D01*
X031978Y021024D02*
X032158Y021024D01*
X032158Y020979D01*
X031978Y020799D01*
X031978Y020754D01*
X031606Y020979D02*
X031561Y021024D01*
X031471Y021024D01*
X031426Y020979D01*
X031430Y019946D02*
X031565Y019946D01*
X031610Y019901D01*
X031610Y019811D01*
X031565Y019766D01*
X031430Y019766D01*
X031520Y019766D02*
X031610Y019676D01*
X031707Y019676D02*
X031887Y019856D01*
X031887Y019901D01*
X031842Y019946D01*
X031752Y019946D01*
X031707Y019901D01*
X031707Y019676D02*
X031887Y019676D01*
X031983Y019811D02*
X032163Y019811D01*
X032118Y019946D02*
X031983Y019811D01*
X032118Y019676D02*
X032118Y019946D01*
X031430Y019946D02*
X031430Y019676D01*
X031438Y018989D02*
X031573Y018989D01*
X031618Y018944D01*
X031618Y018853D01*
X031573Y018808D01*
X031438Y018808D01*
X031528Y018808D02*
X031618Y018718D01*
X031714Y018718D02*
X031894Y018899D01*
X031894Y018944D01*
X031849Y018989D01*
X031759Y018989D01*
X031714Y018944D01*
X031714Y018718D02*
X031894Y018718D01*
X031990Y018763D02*
X032035Y018718D01*
X032125Y018718D01*
X032170Y018763D01*
X032170Y018853D01*
X032125Y018899D01*
X032080Y018899D01*
X031990Y018853D01*
X031990Y018989D01*
X032170Y018989D01*
X031438Y018989D02*
X031438Y018718D01*
X031898Y018008D02*
X031853Y017963D01*
X031853Y017782D01*
X031898Y017737D01*
X031988Y017737D01*
X032033Y017782D01*
X032129Y017782D02*
X032174Y017737D01*
X032264Y017737D01*
X032309Y017782D01*
X032309Y017828D01*
X032264Y017873D01*
X032129Y017873D01*
X032129Y017782D01*
X032129Y017873D02*
X032219Y017963D01*
X032309Y018008D01*
X032405Y017963D02*
X032450Y018008D01*
X032540Y018008D01*
X032585Y017963D01*
X032585Y017918D01*
X032540Y017873D01*
X032585Y017828D01*
X032585Y017782D01*
X032540Y017737D01*
X032450Y017737D01*
X032405Y017782D01*
X032495Y017873D02*
X032540Y017873D01*
X032033Y017963D02*
X031988Y018008D01*
X031898Y018008D01*
X030973Y016897D02*
X030973Y016716D01*
X030838Y016852D01*
X031108Y016852D01*
X031108Y016620D02*
X031018Y016530D01*
X031108Y016485D02*
X031063Y016440D01*
X030883Y016440D01*
X030838Y016485D01*
X030838Y016575D01*
X030883Y016620D01*
X031063Y016620D01*
X031108Y016575D01*
X031108Y016485D01*
X031582Y015885D02*
X031537Y015840D01*
X031537Y015750D01*
X031582Y015705D01*
X031582Y015885D02*
X031627Y015885D01*
X031807Y015705D01*
X031807Y015885D01*
X031807Y015609D02*
X031807Y015428D01*
X031537Y015428D01*
X034848Y015785D02*
X034893Y015740D01*
X034984Y015740D01*
X035029Y015785D01*
X035125Y015785D02*
X035170Y015740D01*
X035260Y015740D01*
X035305Y015785D01*
X035305Y015830D01*
X035260Y015875D01*
X035125Y015875D01*
X035125Y015785D01*
X035125Y015875D02*
X035215Y015965D01*
X035305Y016010D01*
X035401Y015920D02*
X035491Y016010D01*
X035491Y015740D01*
X035401Y015740D02*
X035581Y015740D01*
X035029Y015965D02*
X034984Y016010D01*
X034893Y016010D01*
X034848Y015965D01*
X034848Y015785D01*
X035694Y016675D02*
X035694Y016945D01*
X035829Y016945D01*
X035874Y016900D01*
X035874Y016810D01*
X035829Y016765D01*
X035694Y016765D01*
X035784Y016765D02*
X035874Y016675D01*
X035970Y016720D02*
X036015Y016675D01*
X036105Y016675D01*
X036150Y016720D01*
X036150Y016810D01*
X036105Y016855D01*
X036060Y016855D01*
X035970Y016810D01*
X035970Y016945D01*
X036150Y016945D01*
X036246Y016945D02*
X036246Y016810D01*
X036336Y016855D01*
X036381Y016855D01*
X036426Y016810D01*
X036426Y016720D01*
X036381Y016675D01*
X036291Y016675D01*
X036246Y016720D01*
X036246Y016945D02*
X036426Y016945D01*
X036277Y017675D02*
X036187Y017675D01*
X036142Y017720D01*
X036322Y017900D01*
X036322Y017720D01*
X036277Y017675D01*
X036142Y017720D02*
X036142Y017900D01*
X036187Y017945D01*
X036277Y017945D01*
X036322Y017900D01*
X036046Y017945D02*
X035956Y017900D01*
X035866Y017810D01*
X036001Y017810D01*
X036046Y017765D01*
X036046Y017720D01*
X036001Y017675D01*
X035911Y017675D01*
X035866Y017720D01*
X035866Y017810D01*
X035770Y017810D02*
X035725Y017765D01*
X035590Y017765D01*
X035590Y017675D02*
X035590Y017945D01*
X035725Y017945D01*
X035770Y017900D01*
X035770Y017810D01*
X035680Y017765D02*
X035770Y017675D01*
X034742Y017675D02*
X034742Y017585D01*
X034697Y017540D01*
X034516Y017540D01*
X034471Y017585D01*
X034471Y017675D01*
X034516Y017720D01*
X034562Y017816D02*
X034471Y017906D01*
X034742Y017906D01*
X034742Y017816D02*
X034742Y017996D01*
X034697Y017720D02*
X034742Y017675D01*
X034742Y017446D02*
X034742Y017356D01*
X034742Y017401D02*
X034471Y017401D01*
X034471Y017356D02*
X034471Y017446D01*
X034537Y018642D02*
X034537Y018912D01*
X034402Y018777D01*
X034582Y018777D01*
X034678Y018687D02*
X034723Y018642D01*
X034813Y018642D01*
X034858Y018687D01*
X034858Y018732D01*
X034813Y018777D01*
X034768Y018777D01*
X034813Y018777D02*
X034858Y018822D01*
X034858Y018867D01*
X034813Y018912D01*
X034723Y018912D01*
X034678Y018867D01*
X034306Y018867D02*
X034306Y018777D01*
X034261Y018732D01*
X034126Y018732D01*
X034216Y018732D02*
X034306Y018642D01*
X034126Y018642D02*
X034126Y018912D01*
X034261Y018912D01*
X034306Y018867D01*
X035364Y019284D02*
X035409Y019239D01*
X035499Y019239D01*
X035544Y019284D01*
X035640Y019284D02*
X035685Y019239D01*
X035775Y019239D01*
X035820Y019284D01*
X035820Y019329D01*
X035775Y019374D01*
X035640Y019374D01*
X035640Y019284D01*
X035640Y019374D02*
X035730Y019465D01*
X035820Y019510D01*
X035916Y019465D02*
X035961Y019510D01*
X036052Y019510D01*
X036097Y019465D01*
X035916Y019284D01*
X035961Y019239D01*
X036052Y019239D01*
X036097Y019284D01*
X036097Y019465D01*
X035916Y019465D02*
X035916Y019284D01*
X035544Y019465D02*
X035499Y019510D01*
X035409Y019510D01*
X035364Y019465D01*
X035364Y019284D01*
X035425Y020154D02*
X035425Y020424D01*
X035560Y020424D01*
X035605Y020379D01*
X035605Y020289D01*
X035560Y020244D01*
X035425Y020244D01*
X035515Y020244D02*
X035605Y020154D01*
X035701Y020154D02*
X035882Y020334D01*
X035882Y020379D01*
X035837Y020424D01*
X035746Y020424D01*
X035701Y020379D01*
X035701Y020154D02*
X035882Y020154D01*
X035978Y020199D02*
X036023Y020154D01*
X036113Y020154D01*
X036158Y020199D01*
X036158Y020244D01*
X036113Y020289D01*
X035978Y020289D01*
X035978Y020199D01*
X035978Y020289D02*
X036068Y020379D01*
X036158Y020424D01*
X034228Y021058D02*
X034048Y020878D01*
X034048Y020833D01*
X033952Y020878D02*
X033907Y020833D01*
X033817Y020833D01*
X033772Y020878D01*
X033676Y020878D02*
X033676Y021103D01*
X033772Y021058D02*
X033817Y021103D01*
X033907Y021103D01*
X033952Y021058D01*
X033907Y020968D02*
X033817Y020968D01*
X033772Y021013D01*
X033772Y021058D01*
X033862Y021148D02*
X033862Y020788D01*
X033952Y020878D02*
X033952Y020923D01*
X033907Y020968D01*
X034048Y021103D02*
X034228Y021103D01*
X034228Y021058D01*
X033676Y020878D02*
X033631Y020833D01*
X033541Y020833D01*
X033496Y020878D01*
X033496Y021103D01*
X033476Y021725D02*
X033386Y021725D01*
X033341Y021770D01*
X033341Y021860D02*
X033431Y021905D01*
X033476Y021905D01*
X033521Y021860D01*
X033521Y021770D01*
X033476Y021725D01*
X033617Y021770D02*
X033663Y021725D01*
X033753Y021725D01*
X033798Y021770D01*
X033798Y021950D01*
X033753Y021995D01*
X033663Y021995D01*
X033617Y021950D01*
X033617Y021905D01*
X033663Y021860D01*
X033798Y021860D01*
X033521Y021995D02*
X033341Y021995D01*
X033341Y021860D01*
X033245Y021770D02*
X033200Y021725D01*
X033110Y021725D01*
X033065Y021770D01*
X033065Y021950D01*
X033110Y021995D01*
X033200Y021995D01*
X033245Y021950D01*
X029883Y019632D02*
X029883Y019587D01*
X029838Y019542D01*
X029883Y019497D01*
X029883Y019452D01*
X029838Y019407D01*
X029748Y019407D01*
X029703Y019452D01*
X029607Y019452D02*
X029562Y019407D01*
X029472Y019407D01*
X029427Y019452D01*
X029427Y019632D01*
X029472Y019678D01*
X029562Y019678D01*
X029607Y019632D01*
X029703Y019632D02*
X029748Y019678D01*
X029838Y019678D01*
X029883Y019632D01*
X029838Y019542D02*
X029793Y019542D01*
X029333Y019407D02*
X029243Y019407D01*
X029288Y019407D02*
X029288Y019678D01*
X029243Y019678D02*
X029333Y019678D01*
X029124Y018845D02*
X028989Y018710D01*
X029169Y018710D01*
X029124Y018575D02*
X029124Y018845D01*
X028893Y018845D02*
X028803Y018800D01*
X028713Y018710D01*
X028848Y018710D01*
X028893Y018665D01*
X028893Y018620D01*
X028848Y018575D01*
X028758Y018575D01*
X028713Y018620D01*
X028713Y018710D01*
X028616Y018620D02*
X028571Y018575D01*
X028481Y018575D01*
X028436Y018620D01*
X028436Y018800D01*
X028481Y018845D01*
X028571Y018845D01*
X028616Y018800D01*
X015801Y018592D02*
X015801Y018502D01*
X015756Y018457D01*
X015666Y018457D01*
X015666Y018592D01*
X015711Y018637D01*
X015756Y018637D01*
X015801Y018592D01*
X015666Y018457D02*
X015576Y018547D01*
X015531Y018637D01*
X015576Y018361D02*
X015756Y018181D01*
X015801Y018226D01*
X015801Y018316D01*
X015756Y018361D01*
X015576Y018361D01*
X015531Y018316D01*
X015531Y018226D01*
X015576Y018181D01*
X015756Y018181D01*
X015801Y018085D02*
X015801Y017905D01*
X015801Y017995D02*
X015531Y017995D01*
X015621Y017905D01*
X015576Y017809D02*
X015531Y017764D01*
X015531Y017673D01*
X015576Y017628D01*
X015756Y017628D01*
X015801Y017673D01*
X015801Y017764D01*
X015756Y017809D01*
X015801Y017534D02*
X015801Y017444D01*
X015801Y017489D02*
X015531Y017489D01*
X015531Y017444D02*
X015531Y017534D01*
X015549Y016598D02*
X015594Y016598D01*
X015639Y016553D01*
X015684Y016598D01*
X015729Y016598D01*
X015774Y016553D01*
X015774Y016463D01*
X015729Y016418D01*
X015774Y016322D02*
X015774Y016142D01*
X015774Y016232D02*
X015504Y016232D01*
X015594Y016142D01*
X015549Y016046D02*
X015504Y016001D01*
X015504Y015911D01*
X015549Y015865D01*
X015729Y015865D01*
X015774Y015911D01*
X015774Y016001D01*
X015729Y016046D01*
X015774Y015771D02*
X015774Y015681D01*
X015774Y015726D02*
X015504Y015726D01*
X015504Y015681D02*
X015504Y015771D01*
X015549Y016418D02*
X015504Y016463D01*
X015504Y016553D01*
X015549Y016598D01*
X015639Y016553D02*
X015639Y016508D01*
X011322Y014894D02*
X011322Y014804D01*
X011277Y014759D01*
X011097Y014939D01*
X011277Y014939D01*
X011322Y014894D01*
X011277Y014759D02*
X011097Y014759D01*
X011052Y014804D01*
X011052Y014894D01*
X011097Y014939D01*
X011322Y014663D02*
X011322Y014483D01*
X011322Y014573D02*
X011052Y014573D01*
X011142Y014483D01*
X011097Y014387D02*
X011052Y014342D01*
X011052Y014252D01*
X011097Y014206D01*
X011277Y014206D01*
X011322Y014252D01*
X011322Y014342D01*
X011277Y014387D01*
X011322Y014112D02*
X011322Y014022D01*
X011322Y014067D02*
X011052Y014067D01*
X011052Y014022D02*
X011052Y014112D01*
X010999Y012585D02*
X010999Y012405D01*
X010864Y012540D01*
X011134Y012540D01*
X011134Y012309D02*
X011134Y012128D01*
X011134Y012218D02*
X010864Y012218D01*
X010954Y012128D01*
X010909Y012032D02*
X010864Y011987D01*
X010864Y011897D01*
X010909Y011852D01*
X011089Y011852D01*
X011134Y011897D01*
X011134Y011987D01*
X011089Y012032D01*
X011134Y011758D02*
X011134Y011668D01*
X011134Y011713D02*
X010864Y011713D01*
X010864Y011668D02*
X010864Y011758D01*
X007759Y011608D02*
X007579Y011608D01*
X007579Y011473D01*
X007669Y011518D01*
X007714Y011518D01*
X007759Y011473D01*
X007759Y011382D01*
X007714Y011337D01*
X007624Y011337D01*
X007579Y011382D01*
X007483Y011382D02*
X007438Y011337D01*
X007348Y011337D01*
X007303Y011382D01*
X007303Y011563D01*
X007348Y011608D01*
X007438Y011608D01*
X007483Y011563D01*
X007209Y011608D02*
X007119Y011608D01*
X007164Y011608D02*
X007164Y011337D01*
X007119Y011337D02*
X007209Y011337D01*
X003459Y009155D02*
X003459Y008908D01*
X003212Y009155D01*
X003150Y009155D01*
X003089Y009094D01*
X003089Y008970D01*
X003150Y008908D01*
X003150Y008787D02*
X003274Y008787D01*
X003336Y008725D01*
X003336Y008540D01*
X003459Y008540D02*
X003089Y008540D01*
X003089Y008725D01*
X003150Y008787D01*
X003089Y008419D02*
X003089Y008172D01*
X003089Y008295D02*
X003459Y008295D01*
X007977Y014682D02*
X007977Y014772D01*
X007977Y014727D02*
X008247Y014727D01*
X008247Y014682D02*
X008247Y014772D01*
X008202Y014866D02*
X008022Y014866D01*
X007977Y014911D01*
X007977Y015001D01*
X008022Y015046D01*
X008022Y015142D02*
X008067Y015142D01*
X008112Y015187D01*
X008112Y015322D01*
X008202Y015322D02*
X008022Y015322D01*
X007977Y015277D01*
X007977Y015187D01*
X008022Y015142D01*
X008202Y015142D02*
X008247Y015187D01*
X008247Y015277D01*
X008202Y015322D01*
X008202Y015046D02*
X008247Y015001D01*
X008247Y014911D01*
X008202Y014866D01*
X011410Y019396D02*
X011500Y019396D01*
X011455Y019396D02*
X011455Y019666D01*
X011410Y019666D02*
X011500Y019666D01*
X011594Y019621D02*
X011594Y019441D01*
X011639Y019396D01*
X011729Y019396D01*
X011774Y019441D01*
X011871Y019396D02*
X012051Y019396D01*
X011961Y019396D02*
X011961Y019666D01*
X011871Y019576D01*
X011774Y019621D02*
X011729Y019666D01*
X011639Y019666D01*
X011594Y019621D01*
X012147Y019621D02*
X012147Y019441D01*
X012327Y019621D01*
X012327Y019441D01*
X012282Y019396D01*
X012192Y019396D01*
X012147Y019441D01*
X012147Y019621D02*
X012192Y019666D01*
X012282Y019666D01*
X012327Y019621D01*
X012423Y019666D02*
X012423Y019531D01*
X012513Y019576D01*
X012558Y019576D01*
X012603Y019531D01*
X012603Y019441D01*
X012558Y019396D01*
X012468Y019396D01*
X012423Y019441D01*
X012423Y019666D02*
X012603Y019666D01*
X017243Y002359D02*
X017243Y002134D01*
X017288Y002089D01*
X017378Y002089D01*
X017423Y002134D01*
X017423Y002359D01*
X017519Y002314D02*
X017565Y002359D01*
X017655Y002359D01*
X017700Y002314D01*
X017700Y002269D01*
X017519Y002089D01*
X017700Y002089D01*
X016295Y001616D02*
X016295Y001526D01*
X016250Y001481D01*
X016160Y001481D02*
X016115Y001571D01*
X016115Y001616D01*
X016160Y001661D01*
X016250Y001661D01*
X016295Y001616D01*
X016160Y001481D02*
X016024Y001481D01*
X016024Y001661D01*
X016024Y001385D02*
X016205Y001385D01*
X016295Y001295D01*
X016205Y001205D01*
X016024Y001205D01*
X016069Y001109D02*
X016024Y001064D01*
X016024Y000974D01*
X016069Y000929D01*
X016115Y000929D01*
X016160Y000974D01*
X016160Y001064D01*
X016205Y001109D01*
X016250Y001109D01*
X016295Y001064D01*
X016295Y000974D01*
X016250Y000929D01*
X011234Y000496D02*
X011054Y000496D01*
X011144Y000496D02*
X011144Y000767D01*
X011054Y000677D01*
X010957Y000496D02*
X010777Y000496D01*
X010867Y000496D02*
X010867Y000767D01*
X010777Y000677D01*
X010681Y000722D02*
X010636Y000767D01*
X010501Y000767D01*
X010501Y000496D01*
X010636Y000496D01*
X010681Y000541D01*
X010681Y000722D01*
D15*
X025835Y007334D03*
X025835Y007530D03*
X025835Y007727D03*
X025835Y007924D03*
X025835Y008121D03*
X025835Y008318D03*
X025835Y008515D03*
X025835Y008712D03*
X025835Y008908D03*
X025835Y009105D03*
X025835Y009302D03*
X025835Y009499D03*
X025835Y009696D03*
X025835Y009893D03*
X025835Y010090D03*
X025835Y010286D03*
X030165Y010286D03*
X030165Y010090D03*
X030165Y009893D03*
X030165Y009696D03*
X030165Y009499D03*
X030165Y009302D03*
X030165Y009105D03*
X030165Y008908D03*
X030165Y008712D03*
X030165Y008515D03*
X030165Y008318D03*
X030165Y008121D03*
X030165Y007924D03*
X030165Y007727D03*
X030165Y007530D03*
X030165Y007334D03*
D16*
X029476Y006645D03*
X029280Y006645D03*
X029083Y006645D03*
X028886Y006645D03*
X028689Y006645D03*
X028492Y006645D03*
X028295Y006645D03*
X028098Y006645D03*
X027902Y006645D03*
X027705Y006645D03*
X027508Y006645D03*
X027311Y006645D03*
X027114Y006645D03*
X026917Y006645D03*
X026720Y006645D03*
X026524Y006645D03*
X026524Y010975D03*
X026720Y010975D03*
X026917Y010975D03*
X027114Y010975D03*
X027311Y010975D03*
X027508Y010975D03*
X027705Y010975D03*
X027902Y010975D03*
X028098Y010975D03*
X028295Y010975D03*
X028492Y010975D03*
X028689Y010975D03*
X028886Y010975D03*
X029083Y010975D03*
X029280Y010975D03*
X029476Y010975D03*
D17*
X031420Y011080D02*
X031420Y010540D01*
X032580Y010540D01*
X032580Y011080D01*
X031420Y011080D01*
X031420Y010080D02*
X032580Y010080D01*
X032580Y009540D01*
X031420Y009540D01*
X031420Y010080D01*
X031420Y009080D02*
X032580Y009080D01*
X032580Y008540D01*
X031420Y008540D01*
X031420Y009080D01*
X033170Y009080D02*
X033170Y008540D01*
X034330Y008540D01*
X034330Y009080D01*
X033170Y009080D01*
X034878Y008944D02*
X034878Y008471D01*
X035508Y008471D01*
X035429Y008944D02*
X034878Y008944D01*
X035429Y008944D02*
X035429Y010676D01*
X034878Y010676D01*
X034878Y011149D01*
X035508Y011149D01*
X036571Y011149D02*
X036571Y008471D01*
X036846Y008471D02*
X037083Y008235D01*
X033039Y005861D02*
X032724Y005861D01*
X032724Y005625D01*
X032724Y004995D02*
X032724Y004759D01*
X033039Y004759D01*
X033230Y004390D02*
X033770Y004390D01*
X033770Y003230D01*
X033230Y003230D01*
X033230Y004390D01*
X032080Y004540D02*
X032080Y005080D01*
X030920Y005080D01*
X030920Y004540D01*
X032080Y004540D01*
X032080Y005540D02*
X030920Y005540D01*
X030920Y006080D01*
X032080Y006080D01*
X032080Y005540D01*
X034449Y003586D02*
X034449Y003271D01*
X034449Y003586D02*
X034685Y003586D01*
X035315Y003586D02*
X035551Y003586D01*
X035551Y003271D01*
X031580Y003080D02*
X031580Y002540D01*
X030420Y002540D01*
X030420Y003080D01*
X031580Y003080D01*
X031580Y002080D02*
X030420Y002080D01*
X030420Y001540D01*
X031580Y001540D01*
X031580Y002080D01*
X029080Y002040D02*
X029080Y002580D01*
X027920Y002580D01*
X027920Y002040D01*
X029080Y002040D01*
X029070Y003530D02*
X028530Y003530D01*
X028530Y004690D01*
X029070Y004690D01*
X029070Y003530D01*
X028270Y003730D02*
X027730Y003730D01*
X027730Y004890D01*
X028270Y004890D01*
X028270Y003730D01*
X026580Y003540D02*
X025420Y003540D01*
X025420Y004080D01*
X026580Y004080D01*
X026580Y003540D01*
X026080Y003080D02*
X026080Y002540D01*
X024920Y002540D01*
X024920Y003080D01*
X026080Y003080D01*
X025970Y004530D02*
X025430Y004530D01*
X025430Y005690D01*
X025970Y005690D01*
X025970Y004530D01*
X023220Y002590D02*
X017780Y002590D01*
X017780Y008030D01*
X023220Y008030D01*
X023220Y002590D01*
X016270Y003230D02*
X015730Y003230D01*
X015730Y004390D01*
X016270Y004390D01*
X016270Y003230D01*
X015270Y002730D02*
X015270Y003890D01*
X014730Y003890D01*
X014730Y002730D01*
X015270Y002730D01*
X014770Y002390D02*
X014770Y001230D01*
X014230Y001230D01*
X014230Y002390D01*
X014770Y002390D01*
X013580Y002580D02*
X013580Y002040D01*
X012420Y002040D01*
X012420Y002580D01*
X013580Y002580D01*
X013580Y003040D02*
X012420Y003040D01*
X012420Y003580D01*
X013580Y003580D01*
X013580Y003040D01*
X012270Y001890D02*
X012270Y000730D01*
X011730Y000730D01*
X011730Y001890D01*
X012270Y001890D01*
X011770Y002230D02*
X011230Y002230D01*
X011230Y003390D01*
X011770Y003390D01*
X011770Y002230D01*
X010770Y002230D02*
X010230Y002230D01*
X010230Y003390D01*
X010770Y003390D01*
X010770Y002230D01*
X009580Y002080D02*
X009580Y001540D01*
X008420Y001540D01*
X008420Y002080D01*
X009580Y002080D01*
X009580Y002540D02*
X009580Y003080D01*
X008420Y003080D01*
X008420Y002540D01*
X009580Y002540D01*
X008270Y002730D02*
X007730Y002730D01*
X007730Y003890D01*
X008270Y003890D01*
X008270Y002730D01*
X008420Y001080D02*
X008420Y000540D01*
X009580Y000540D01*
X009580Y001080D01*
X008420Y001080D01*
X012420Y001040D02*
X012420Y001580D01*
X013580Y001580D01*
X013580Y001040D01*
X012420Y001040D01*
X012730Y004230D02*
X013270Y004230D01*
X013270Y005390D01*
X012730Y005390D01*
X012730Y004230D01*
X013730Y004230D02*
X014270Y004230D01*
X014270Y005390D01*
X013730Y005390D01*
X013730Y004230D01*
X013730Y005730D02*
X014270Y005730D01*
X014270Y006890D01*
X013730Y006890D01*
X013730Y005730D01*
X013270Y005730D02*
X012730Y005730D01*
X012730Y006890D01*
X013270Y006890D01*
X013270Y005730D01*
X012270Y007230D02*
X011730Y007230D01*
X011730Y008390D01*
X012270Y008390D01*
X012270Y007230D01*
X011270Y007230D02*
X010730Y007230D01*
X010730Y008390D01*
X011270Y008390D01*
X011270Y007230D01*
X010270Y007230D02*
X009730Y007230D01*
X009730Y008390D01*
X010270Y008390D01*
X010270Y007230D01*
X010080Y006580D02*
X010080Y006040D01*
X008920Y006040D01*
X008920Y006580D01*
X010080Y006580D01*
X009270Y007230D02*
X008730Y007230D01*
X008730Y008390D01*
X009270Y008390D01*
X009270Y007230D01*
X008770Y006890D02*
X008230Y006890D01*
X008230Y005730D01*
X008770Y005730D01*
X008770Y006890D01*
X008270Y007230D02*
X007730Y007230D01*
X007730Y008390D01*
X008270Y008390D01*
X008270Y007230D01*
X007270Y007230D02*
X006730Y007230D01*
X006730Y008390D01*
X007270Y008390D01*
X007270Y007230D01*
X006270Y007230D02*
X005730Y007230D01*
X005730Y008390D01*
X006270Y008390D01*
X006270Y007230D01*
X006420Y008540D02*
X006420Y009080D01*
X007580Y009080D01*
X007580Y008540D01*
X006420Y008540D01*
X006080Y008540D02*
X004920Y008540D01*
X004920Y009080D01*
X006080Y009080D01*
X006080Y008540D01*
X004670Y010030D02*
X004130Y010030D01*
X004130Y011190D01*
X004670Y011190D01*
X004670Y010030D01*
X006230Y010230D02*
X006230Y011390D01*
X006770Y011390D01*
X006770Y010230D01*
X006230Y010230D01*
X004670Y011530D02*
X004130Y011530D01*
X004130Y012690D01*
X004670Y012690D01*
X004670Y011530D01*
X003970Y011530D02*
X003430Y011530D01*
X003430Y012690D01*
X003970Y012690D01*
X003970Y011530D01*
X004920Y013040D02*
X004920Y013580D01*
X006080Y013580D01*
X006080Y013040D01*
X004920Y013040D01*
X006230Y012890D02*
X006770Y012890D01*
X006770Y011730D01*
X006230Y011730D01*
X006230Y012890D01*
X006420Y013040D02*
X006420Y013580D01*
X007580Y013580D01*
X007580Y013040D01*
X006420Y013040D01*
X007230Y012890D02*
X007770Y012890D01*
X007770Y011730D01*
X007230Y011730D01*
X007230Y012890D01*
X007920Y013040D02*
X007920Y013580D01*
X009080Y013580D01*
X009080Y013040D01*
X007920Y013040D01*
X009420Y013040D02*
X009420Y013580D01*
X010580Y013580D01*
X010580Y013040D01*
X009420Y013040D01*
X011730Y012390D02*
X012270Y012390D01*
X012270Y011230D01*
X011730Y011230D01*
X011730Y012390D01*
X011920Y012540D02*
X011920Y013080D01*
X013080Y013080D01*
X013080Y012540D01*
X011920Y012540D01*
X012730Y012390D02*
X013270Y012390D01*
X013270Y011230D01*
X012730Y011230D01*
X012730Y012390D01*
X013730Y012390D02*
X014270Y012390D01*
X014270Y011230D01*
X013730Y011230D01*
X013730Y012390D01*
X014530Y013230D02*
X014530Y014390D01*
X015070Y014390D01*
X015070Y013230D01*
X014530Y013230D01*
X015230Y013230D02*
X015770Y013230D01*
X015770Y014390D01*
X015230Y014390D01*
X015230Y013230D01*
X016230Y013230D02*
X016770Y013230D01*
X016770Y014390D01*
X016230Y014390D01*
X016230Y013230D01*
X017230Y013230D02*
X017770Y013230D01*
X017770Y014390D01*
X017230Y014390D01*
X017230Y013230D01*
X018230Y013230D02*
X018770Y013230D01*
X018770Y014390D01*
X018230Y014390D01*
X018230Y013230D01*
X019230Y013230D02*
X019770Y013230D01*
X019770Y014390D01*
X019230Y014390D01*
X019230Y013230D01*
X021420Y013040D02*
X021420Y013580D01*
X022580Y013580D01*
X022580Y013040D01*
X021420Y013040D01*
X020270Y011390D02*
X019730Y011390D01*
X019730Y010230D01*
X020270Y010230D01*
X020270Y011390D01*
X018920Y011390D02*
X018380Y011390D01*
X018380Y010230D01*
X018920Y010230D01*
X018920Y011390D01*
X018270Y011390D02*
X018270Y010230D01*
X017730Y010230D01*
X017730Y011390D01*
X018270Y011390D01*
X016580Y011540D02*
X015420Y011540D01*
X015420Y012080D01*
X016580Y012080D01*
X016580Y011540D01*
X016580Y011080D02*
X016580Y010540D01*
X015420Y010540D01*
X015420Y011080D01*
X016580Y011080D01*
X017320Y010080D02*
X018480Y010080D01*
X018480Y009540D01*
X017320Y009540D01*
X017320Y010080D01*
X018920Y010080D02*
X018920Y009540D01*
X020080Y009540D01*
X020080Y010080D01*
X018920Y010080D01*
X016270Y006890D02*
X015730Y006890D01*
X015730Y005730D01*
X016270Y005730D01*
X016270Y006890D01*
X012270Y008730D02*
X011730Y008730D01*
X011730Y009890D01*
X012270Y009890D01*
X012270Y008730D01*
X011270Y008730D02*
X010730Y008730D01*
X010730Y009890D01*
X011270Y009890D01*
X011270Y008730D01*
X010270Y008730D02*
X009730Y008730D01*
X009730Y009890D01*
X010270Y009890D01*
X010270Y008730D01*
X009270Y008730D02*
X008730Y008730D01*
X008730Y009890D01*
X009270Y009890D01*
X009270Y008730D01*
X008920Y010540D02*
X008920Y011080D01*
X010080Y011080D01*
X010080Y010540D01*
X008920Y010540D01*
X011920Y013540D02*
X011920Y014080D01*
X013080Y014080D01*
X013080Y013540D01*
X011920Y013540D01*
X011920Y014540D02*
X011920Y015080D01*
X013080Y015080D01*
X013080Y014540D01*
X011920Y014540D01*
X012220Y017540D02*
X012220Y018080D01*
X013380Y018080D01*
X013380Y017540D01*
X012220Y017540D01*
X016230Y018230D02*
X016770Y018230D01*
X016770Y019390D01*
X016230Y019390D01*
X016230Y018230D01*
X016230Y019730D02*
X016770Y019730D01*
X016770Y020890D01*
X016230Y020890D01*
X016230Y019730D01*
X016020Y021230D02*
X015480Y021230D01*
X015480Y022390D01*
X016020Y022390D01*
X016020Y021230D01*
X018488Y021507D02*
X018488Y016310D01*
X020417Y016310D01*
X021480Y016310D02*
X022661Y016310D01*
X023724Y016310D02*
X024000Y016310D01*
X024000Y021074D01*
X024420Y021280D02*
X024420Y020740D01*
X025580Y020740D01*
X025580Y021280D01*
X024420Y021280D01*
X024420Y020580D02*
X024420Y020040D01*
X025580Y020040D01*
X025580Y020580D01*
X024420Y020580D01*
X024420Y019580D02*
X024420Y019040D01*
X025580Y019040D01*
X025580Y019580D01*
X024420Y019580D01*
X024420Y018580D02*
X024420Y018040D01*
X025580Y018040D01*
X025580Y018580D01*
X024420Y018580D01*
X027530Y019230D02*
X027530Y020390D01*
X028070Y020390D01*
X028070Y019230D01*
X027530Y019230D01*
X028980Y017640D02*
X029520Y017640D01*
X029520Y016480D01*
X028980Y016480D01*
X028980Y017640D01*
X029949Y017349D02*
X029949Y017034D01*
X030185Y017034D01*
X030815Y017034D02*
X031051Y017034D01*
X031051Y017349D01*
X031230Y017890D02*
X031230Y016730D01*
X031770Y016730D01*
X031770Y017890D01*
X031230Y017890D01*
X031080Y018040D02*
X031080Y018580D01*
X029920Y018580D01*
X029920Y018040D01*
X031080Y018040D01*
X031420Y019040D02*
X031420Y019580D01*
X032580Y019580D01*
X032580Y019040D01*
X031420Y019040D01*
X031420Y020040D02*
X031420Y020580D01*
X032580Y020580D01*
X032580Y020040D01*
X031420Y020040D01*
X033420Y019580D02*
X033420Y019040D01*
X034580Y019040D01*
X034580Y019580D01*
X033420Y019580D01*
X034920Y020540D02*
X034920Y021080D01*
X036080Y021080D01*
X036080Y020540D01*
X034920Y020540D01*
X034920Y018580D02*
X036080Y018580D01*
X036080Y018040D01*
X034920Y018040D01*
X034920Y018580D01*
X034920Y017580D02*
X034920Y017040D01*
X036080Y017040D01*
X036080Y017580D01*
X034920Y017580D01*
X030770Y016390D02*
X030770Y015230D01*
X030230Y015230D01*
X030230Y016390D01*
X030770Y016390D01*
X031024Y014282D02*
X030394Y014282D01*
X031024Y014282D02*
X031181Y014125D01*
X031181Y013495D01*
X031024Y013338D01*
X030394Y013338D01*
X029606Y013338D02*
X028819Y013338D01*
X028819Y014282D01*
X029606Y014282D01*
X025770Y013890D02*
X025770Y012730D01*
X025230Y012730D01*
X025230Y013890D01*
X025770Y013890D01*
X036846Y011149D02*
X037083Y011385D01*
X023370Y021664D02*
X020063Y021664D01*
X020025Y021667D01*
X019987Y021673D01*
X019950Y021683D01*
X019914Y021697D01*
X019879Y021713D01*
X019847Y021733D01*
X019816Y021756D01*
X019787Y021782D01*
X019761Y021811D01*
X019738Y021842D01*
X019718Y021874D01*
X019702Y021909D01*
X019688Y021945D01*
X019678Y021982D01*
X019672Y022020D01*
X019669Y022058D01*
X019670Y022090D01*
X019666Y022121D01*
X019659Y022152D01*
X019648Y022182D01*
X019634Y022210D01*
X019616Y022236D01*
X019595Y022260D01*
X019571Y022281D01*
X019545Y022299D01*
X019517Y022313D01*
X019487Y022324D01*
X019456Y022331D01*
X019425Y022335D01*
X019393Y022334D01*
X019394Y022334D02*
X019079Y022334D01*
X011020Y022390D02*
X011020Y021230D01*
X010480Y021230D01*
X010480Y022390D01*
X011020Y022390D01*
X004080Y022330D02*
X004080Y021790D01*
X002920Y021790D01*
X002920Y022330D01*
X004080Y022330D01*
X002580Y017580D02*
X001420Y017580D01*
X001420Y017040D01*
X002580Y017040D01*
X002580Y017580D01*
X002580Y016580D02*
X001420Y016580D01*
X001420Y016040D01*
X002580Y016040D01*
X002580Y016580D01*
X002730Y016390D02*
X003270Y016390D01*
X003270Y015230D01*
X002730Y015230D01*
X002730Y016390D01*
X003730Y016390D02*
X004270Y016390D01*
X004270Y015230D01*
X003730Y015230D01*
X003730Y016390D01*
X004730Y016390D02*
X005270Y016390D01*
X005270Y015230D01*
X004730Y015230D01*
X004730Y016390D01*
X002580Y015580D02*
X002580Y015040D01*
X001420Y015040D01*
X001420Y015580D01*
X002580Y015580D01*
X003230Y007890D02*
X003770Y007890D01*
X003770Y006730D01*
X003230Y006730D01*
X003230Y007890D01*
X001270Y007890D02*
X001270Y006730D01*
X000730Y006730D01*
X000730Y007890D01*
X001270Y007890D01*
X009230Y005390D02*
X009230Y004230D01*
X009770Y004230D01*
X009770Y005390D01*
X009230Y005390D01*
D18*
X008929Y005457D02*
X008883Y005410D01*
X008789Y005410D01*
X008742Y005457D01*
X008929Y005644D01*
X008929Y005457D01*
X008742Y005457D02*
X008742Y005644D01*
X008789Y005690D01*
X008883Y005690D01*
X008929Y005644D01*
X008653Y005550D02*
X008466Y005550D01*
X008606Y005690D01*
X008606Y005410D01*
X008377Y005410D02*
X008283Y005503D01*
X008330Y005503D02*
X008190Y005503D01*
X008190Y005410D02*
X008190Y005690D01*
X008330Y005690D01*
X008377Y005644D01*
X008377Y005550D01*
X008330Y005503D01*
X009301Y005680D02*
X009301Y005960D01*
X009441Y005960D01*
X009488Y005914D01*
X009488Y005820D01*
X009441Y005773D01*
X009301Y005773D01*
X009395Y005773D02*
X009488Y005680D01*
X009578Y005727D02*
X009624Y005680D01*
X009718Y005680D01*
X009764Y005727D01*
X009764Y005773D01*
X009718Y005820D01*
X009671Y005820D01*
X009718Y005820D02*
X009764Y005867D01*
X009764Y005914D01*
X009718Y005960D01*
X009624Y005960D01*
X009578Y005914D01*
X009854Y005914D02*
X009854Y005867D01*
X009900Y005820D01*
X009994Y005820D01*
X010041Y005773D01*
X010041Y005727D01*
X009994Y005680D01*
X009900Y005680D01*
X009854Y005727D01*
X009854Y005773D01*
X009900Y005820D01*
X009994Y005820D02*
X010041Y005867D01*
X010041Y005914D01*
X009994Y005960D01*
X009900Y005960D01*
X009854Y005914D01*
X009583Y007161D02*
X009630Y007208D01*
X009630Y007301D01*
X009583Y007348D01*
X009630Y007438D02*
X009630Y007624D01*
X009630Y007531D02*
X009350Y007531D01*
X009443Y007438D01*
X009396Y007348D02*
X009350Y007301D01*
X009350Y007208D01*
X009396Y007161D01*
X009583Y007161D01*
X009583Y007714D02*
X009630Y007760D01*
X009630Y007854D01*
X009583Y007901D01*
X009537Y007901D01*
X009490Y007854D01*
X009490Y007714D01*
X009583Y007714D01*
X009490Y007714D02*
X009396Y007807D01*
X009350Y007901D01*
X008612Y007919D02*
X008565Y007966D01*
X008519Y007966D01*
X008472Y007919D01*
X008472Y007779D01*
X008565Y007779D01*
X008612Y007826D01*
X008612Y007919D01*
X008472Y007779D02*
X008379Y007873D01*
X008332Y007966D01*
X008332Y007596D02*
X008612Y007596D01*
X008612Y007503D02*
X008612Y007690D01*
X008425Y007503D02*
X008332Y007596D01*
X008379Y007414D02*
X008472Y007414D01*
X008519Y007367D01*
X008519Y007227D01*
X008612Y007227D02*
X008332Y007227D01*
X008332Y007367D01*
X008379Y007414D01*
X008519Y007320D02*
X008612Y007414D01*
X007277Y007142D02*
X007090Y007142D01*
X007090Y007001D01*
X007183Y007048D01*
X007230Y007048D01*
X007277Y007001D01*
X007277Y006908D01*
X007230Y006861D01*
X007136Y006861D01*
X007090Y006908D01*
X007000Y006861D02*
X006814Y006861D01*
X006724Y006861D02*
X006631Y006955D01*
X006677Y006955D02*
X006537Y006955D01*
X006537Y006861D02*
X006537Y007142D01*
X006677Y007142D01*
X006724Y007095D01*
X006724Y007001D01*
X006677Y006955D01*
X006814Y007048D02*
X006907Y007142D01*
X006907Y006861D01*
X006329Y006907D02*
X006283Y006860D01*
X006189Y006860D01*
X006142Y006907D01*
X006142Y007000D02*
X006236Y007047D01*
X006283Y007047D01*
X006329Y007000D01*
X006329Y006907D01*
X006142Y007000D02*
X006142Y007140D01*
X006329Y007140D01*
X005960Y007140D02*
X005960Y006860D01*
X006053Y006860D02*
X005866Y006860D01*
X005777Y006907D02*
X005730Y006860D01*
X005637Y006860D01*
X005590Y006907D01*
X005590Y007094D01*
X005637Y007140D01*
X005730Y007140D01*
X005777Y007094D01*
X005866Y007047D02*
X005960Y007140D01*
X003805Y006583D02*
X003618Y006583D01*
X003758Y006723D01*
X003758Y006443D01*
X003529Y006443D02*
X003342Y006443D01*
X003436Y006443D02*
X003436Y006723D01*
X003342Y006630D01*
X003253Y006677D02*
X003206Y006723D01*
X003113Y006723D01*
X003066Y006677D01*
X003066Y006490D01*
X003113Y006443D01*
X003206Y006443D01*
X003253Y006490D01*
X004951Y009180D02*
X004951Y009460D01*
X005091Y009460D01*
X005138Y009414D01*
X005138Y009320D01*
X005091Y009273D01*
X004951Y009273D01*
X005045Y009273D02*
X005138Y009180D01*
X005228Y009180D02*
X005414Y009367D01*
X005414Y009414D01*
X005368Y009460D01*
X005274Y009460D01*
X005228Y009414D01*
X005228Y009180D02*
X005414Y009180D01*
X005504Y009227D02*
X005691Y009414D01*
X005691Y009227D01*
X005644Y009180D01*
X005550Y009180D01*
X005504Y009227D01*
X005504Y009414D01*
X005550Y009460D01*
X005644Y009460D01*
X005691Y009414D01*
X006290Y009490D02*
X006290Y009210D01*
X006290Y009303D02*
X006430Y009303D01*
X006477Y009350D01*
X006477Y009444D01*
X006430Y009490D01*
X006290Y009490D01*
X006383Y009303D02*
X006477Y009210D01*
X006566Y009210D02*
X006753Y009397D01*
X006753Y009444D01*
X006706Y009490D01*
X006613Y009490D01*
X006566Y009444D01*
X006566Y009210D02*
X006753Y009210D01*
X006842Y009210D02*
X007029Y009210D01*
X006936Y009210D02*
X006936Y009490D01*
X006842Y009397D01*
X006014Y010398D02*
X006061Y010445D01*
X006061Y010538D01*
X006014Y010585D01*
X006061Y010674D02*
X005874Y010861D01*
X005827Y010861D01*
X005781Y010814D01*
X005781Y010721D01*
X005827Y010674D01*
X005827Y010585D02*
X005781Y010538D01*
X005781Y010445D01*
X005827Y010398D01*
X006014Y010398D01*
X006061Y010674D02*
X006061Y010861D01*
X006014Y010951D02*
X006061Y010997D01*
X006061Y011091D01*
X006014Y011137D01*
X005967Y011137D01*
X005921Y011091D01*
X005921Y011044D01*
X005921Y011091D02*
X005874Y011137D01*
X005827Y011137D01*
X005781Y011091D01*
X005781Y010997D01*
X005827Y010951D01*
X005076Y010883D02*
X005030Y010930D01*
X004983Y010930D01*
X004936Y010883D01*
X004936Y010743D01*
X005030Y010743D01*
X005076Y010789D01*
X005076Y010883D01*
X004936Y010743D02*
X004843Y010836D01*
X004796Y010930D01*
X004843Y010653D02*
X004890Y010653D01*
X004936Y010607D01*
X004983Y010653D01*
X005030Y010653D01*
X005076Y010607D01*
X005076Y010513D01*
X005030Y010467D01*
X005030Y010377D02*
X005076Y010330D01*
X005076Y010237D01*
X005030Y010190D01*
X004843Y010190D01*
X004796Y010237D01*
X004796Y010330D01*
X004843Y010377D01*
X004843Y010467D02*
X004796Y010513D01*
X004796Y010607D01*
X004843Y010653D01*
X004936Y010607D02*
X004936Y010560D01*
X005861Y011789D02*
X005861Y011929D01*
X005908Y011976D01*
X006002Y011976D01*
X006048Y011929D01*
X006048Y011789D01*
X006048Y011882D02*
X006142Y011976D01*
X006095Y012065D02*
X006142Y012112D01*
X006142Y012205D01*
X006095Y012252D01*
X006048Y012252D01*
X006002Y012205D01*
X006002Y012159D01*
X006002Y012205D02*
X005955Y012252D01*
X005908Y012252D01*
X005861Y012205D01*
X005861Y012112D01*
X005908Y012065D01*
X005861Y011789D02*
X006142Y011789D01*
X006002Y012341D02*
X006002Y012528D01*
X006142Y012482D02*
X005861Y012482D01*
X006002Y012341D01*
X007733Y012337D02*
X007873Y012197D01*
X007873Y012383D01*
X007826Y012473D02*
X007733Y012566D01*
X008013Y012566D01*
X008013Y012473D02*
X008013Y012660D01*
X008013Y012337D02*
X007733Y012337D01*
X007780Y012107D02*
X007733Y012061D01*
X007733Y011967D01*
X007780Y011920D01*
X007966Y011920D01*
X008013Y011967D01*
X008013Y012061D01*
X007966Y012107D01*
X010170Y011043D02*
X010170Y010949D01*
X010216Y010902D01*
X010216Y010813D02*
X010170Y010766D01*
X010170Y010673D01*
X010216Y010626D01*
X010216Y010537D02*
X010170Y010490D01*
X010170Y010397D01*
X010216Y010350D01*
X010403Y010350D01*
X010450Y010397D01*
X010450Y010490D01*
X010403Y010537D01*
X010450Y010626D02*
X010263Y010813D01*
X010216Y010813D01*
X010450Y010813D02*
X010450Y010626D01*
X010450Y010902D02*
X010263Y011089D01*
X010216Y011089D01*
X010170Y011043D01*
X010450Y011089D02*
X010450Y010902D01*
X011902Y010837D02*
X011902Y010744D01*
X011948Y010697D01*
X011948Y010608D02*
X012042Y010608D01*
X012089Y010561D01*
X012089Y010421D01*
X012182Y010421D02*
X011902Y010421D01*
X011902Y010561D01*
X011948Y010608D01*
X012089Y010514D02*
X012182Y010608D01*
X012135Y010697D02*
X012182Y010744D01*
X012182Y010837D01*
X012135Y010884D01*
X012089Y010884D01*
X012042Y010837D01*
X012042Y010791D01*
X012042Y010837D02*
X011995Y010884D01*
X011948Y010884D01*
X011902Y010837D01*
X011948Y010973D02*
X011902Y011020D01*
X011902Y011114D01*
X011948Y011160D01*
X011995Y011160D01*
X012042Y011114D01*
X012089Y011160D01*
X012135Y011160D01*
X012182Y011114D01*
X012182Y011020D01*
X012135Y010973D01*
X012042Y011067D02*
X012042Y011114D01*
X013385Y011087D02*
X013385Y010993D01*
X013431Y010946D01*
X013618Y010946D01*
X013665Y010993D01*
X013665Y011087D01*
X013618Y011133D01*
X013525Y011223D02*
X013525Y011409D01*
X013618Y011499D02*
X013431Y011686D01*
X013618Y011686D01*
X013665Y011639D01*
X013665Y011546D01*
X013618Y011499D01*
X013431Y011499D01*
X013385Y011546D01*
X013385Y011639D01*
X013431Y011686D01*
X013385Y011363D02*
X013525Y011223D01*
X013431Y011133D02*
X013385Y011087D01*
X013385Y011363D02*
X013665Y011363D01*
X014370Y011316D02*
X014510Y011176D01*
X014510Y011363D01*
X014416Y011452D02*
X014370Y011499D01*
X014370Y011593D01*
X014416Y011639D01*
X014463Y011639D01*
X014650Y011452D01*
X014650Y011639D01*
X014650Y011316D02*
X014370Y011316D01*
X014416Y011087D02*
X014370Y011040D01*
X014370Y010947D01*
X014416Y010900D01*
X014603Y010900D01*
X014650Y010947D01*
X014650Y011040D01*
X014603Y011087D01*
X013474Y012535D02*
X013194Y012535D01*
X013194Y012675D01*
X013241Y012722D01*
X013334Y012722D01*
X013381Y012675D01*
X013381Y012535D01*
X013381Y012628D02*
X013474Y012722D01*
X013428Y012811D02*
X013474Y012858D01*
X013474Y012951D01*
X013428Y012998D01*
X013334Y012998D01*
X013288Y012951D01*
X013288Y012905D01*
X013334Y012811D01*
X013194Y012811D01*
X013194Y012998D01*
X013288Y013087D02*
X013194Y013181D01*
X013474Y013181D01*
X013474Y013274D02*
X013474Y013087D01*
X014147Y013225D02*
X014147Y013365D01*
X014194Y013412D01*
X014287Y013412D01*
X014334Y013365D01*
X014334Y013225D01*
X014427Y013225D02*
X014147Y013225D01*
X014334Y013318D02*
X014427Y013412D01*
X014380Y013501D02*
X014427Y013548D01*
X014427Y013641D01*
X014380Y013688D01*
X014287Y013688D01*
X014240Y013641D01*
X014240Y013595D01*
X014287Y013501D01*
X014147Y013501D01*
X014147Y013688D01*
X014287Y013778D02*
X014147Y013918D01*
X014427Y013918D01*
X014287Y013964D02*
X014287Y013778D01*
X013475Y013857D02*
X013195Y013857D01*
X013335Y013717D01*
X013335Y013904D01*
X013288Y013994D02*
X013335Y014040D01*
X013335Y014180D01*
X013242Y014180D02*
X013195Y014134D01*
X013195Y014040D01*
X013242Y013994D01*
X013288Y013994D01*
X013428Y013994D02*
X013475Y014040D01*
X013475Y014134D01*
X013428Y014180D01*
X013242Y014180D01*
X013270Y014450D02*
X013270Y014590D01*
X013316Y014637D01*
X013410Y014637D01*
X013457Y014590D01*
X013457Y014450D01*
X013550Y014450D02*
X013270Y014450D01*
X013457Y014543D02*
X013550Y014637D01*
X013503Y014726D02*
X013550Y014773D01*
X013550Y014866D01*
X013503Y014913D01*
X013457Y014913D01*
X013410Y014866D01*
X013410Y014820D01*
X013410Y014866D02*
X013363Y014913D01*
X013316Y014913D01*
X013270Y014866D01*
X013270Y014773D01*
X013316Y014726D01*
X013270Y015002D02*
X013410Y015002D01*
X013363Y015096D01*
X013363Y015143D01*
X013410Y015189D01*
X013503Y015189D01*
X013550Y015143D01*
X013550Y015049D01*
X013503Y015002D01*
X013270Y015002D02*
X013270Y015189D01*
X013242Y013628D02*
X013335Y013628D01*
X013382Y013581D01*
X013382Y013441D01*
X013475Y013441D02*
X013195Y013441D01*
X013195Y013581D01*
X013242Y013628D01*
X013382Y013534D02*
X013475Y013628D01*
X015798Y013593D02*
X016078Y013593D01*
X016078Y013500D02*
X016078Y013686D01*
X016031Y013776D02*
X015984Y013776D01*
X015938Y013823D01*
X015938Y013916D01*
X015984Y013963D01*
X016031Y013963D01*
X016078Y013916D01*
X016078Y013823D01*
X016031Y013776D01*
X015938Y013823D02*
X015891Y013776D01*
X015844Y013776D01*
X015798Y013823D01*
X015798Y013916D01*
X015844Y013963D01*
X015891Y013963D01*
X015938Y013916D01*
X015798Y013593D02*
X015891Y013500D01*
X015844Y013410D02*
X015798Y013363D01*
X015798Y013270D01*
X015844Y013223D01*
X016031Y013223D01*
X016078Y013270D01*
X016078Y013363D01*
X016031Y013410D01*
X016846Y013449D02*
X016986Y013449D01*
X016939Y013542D01*
X016939Y013589D01*
X016986Y013636D01*
X017079Y013636D01*
X017126Y013589D01*
X017126Y013496D01*
X017079Y013449D01*
X017126Y013360D02*
X017032Y013266D01*
X017032Y013313D02*
X017032Y013173D01*
X017126Y013173D02*
X016846Y013173D01*
X016846Y013313D01*
X016892Y013360D01*
X016986Y013360D01*
X017032Y013313D01*
X016846Y013449D02*
X016846Y013636D01*
X016892Y013725D02*
X016846Y013772D01*
X016846Y013865D01*
X016892Y013912D01*
X016939Y013912D01*
X016986Y013865D01*
X017032Y013912D01*
X017079Y013912D01*
X017126Y013865D01*
X017126Y013772D01*
X017079Y013725D01*
X016986Y013819D02*
X016986Y013865D01*
X017861Y013836D02*
X017908Y013789D01*
X017955Y013789D01*
X018001Y013836D01*
X018001Y013976D01*
X017908Y013976D02*
X017861Y013929D01*
X017861Y013836D01*
X017908Y013976D02*
X018095Y013976D01*
X018141Y013929D01*
X018141Y013836D01*
X018095Y013789D01*
X018141Y013700D02*
X018141Y013513D01*
X018141Y013606D02*
X017861Y013606D01*
X017955Y013513D01*
X017908Y013424D02*
X017861Y013377D01*
X017861Y013283D01*
X017908Y013237D01*
X018095Y013237D01*
X018141Y013283D01*
X018141Y013377D01*
X018095Y013424D01*
X018880Y013428D02*
X019020Y013428D01*
X018973Y013521D01*
X018973Y013568D01*
X019020Y013615D01*
X019113Y013615D01*
X019160Y013568D01*
X019160Y013475D01*
X019113Y013428D01*
X019160Y013339D02*
X019067Y013245D01*
X019067Y013292D02*
X019067Y013152D01*
X019160Y013152D02*
X018880Y013152D01*
X018880Y013292D01*
X018927Y013339D01*
X019020Y013339D01*
X019067Y013292D01*
X018880Y013428D02*
X018880Y013615D01*
X018927Y013704D02*
X018880Y013751D01*
X018880Y013844D01*
X018927Y013891D01*
X018973Y013891D01*
X019160Y013704D01*
X019160Y013891D01*
X019876Y013856D02*
X019970Y013762D01*
X019970Y013673D02*
X020017Y013626D01*
X020063Y013673D01*
X020110Y013673D01*
X020157Y013626D01*
X020157Y013533D01*
X020110Y013486D01*
X020110Y013397D02*
X020157Y013350D01*
X020157Y013257D01*
X020110Y013210D01*
X019923Y013210D01*
X019876Y013257D01*
X019876Y013350D01*
X019923Y013397D01*
X019923Y013486D02*
X019876Y013533D01*
X019876Y013626D01*
X019923Y013673D01*
X019970Y013673D01*
X020017Y013626D02*
X020017Y013580D01*
X020157Y013762D02*
X020157Y013949D01*
X020157Y013856D02*
X019876Y013856D01*
X021401Y013924D02*
X021401Y013737D01*
X021448Y013690D01*
X021541Y013690D01*
X021588Y013737D01*
X021677Y013830D02*
X021864Y013830D01*
X021953Y013830D02*
X022094Y013970D01*
X022094Y013690D01*
X022140Y013830D02*
X021953Y013830D01*
X021817Y013690D02*
X021817Y013970D01*
X021677Y013830D01*
X021588Y013924D02*
X021541Y013970D01*
X021448Y013970D01*
X021401Y013924D01*
X023689Y013245D02*
X023725Y013281D01*
X023761Y013281D01*
X023797Y013245D01*
X023833Y013281D01*
X023869Y013281D01*
X023905Y013245D01*
X023905Y013173D01*
X023869Y013137D01*
X023869Y013064D02*
X023725Y013064D01*
X023689Y013028D01*
X023689Y012956D01*
X023725Y012919D01*
X023869Y012919D01*
X023905Y012956D01*
X023905Y013028D01*
X023869Y013064D01*
X023905Y013064D02*
X023833Y012992D01*
X023725Y013137D02*
X023689Y013173D01*
X023689Y013245D01*
X023797Y013245D02*
X023797Y013209D01*
X025921Y013202D02*
X025921Y013261D01*
X025951Y013291D01*
X025980Y013291D01*
X026010Y013261D01*
X026039Y013291D01*
X026069Y013291D01*
X026098Y013261D01*
X026098Y013202D01*
X026069Y013173D01*
X026098Y013109D02*
X026039Y013050D01*
X026039Y013080D02*
X026039Y012991D01*
X026098Y012991D02*
X025921Y012991D01*
X025921Y013080D01*
X025951Y013109D01*
X026010Y013109D01*
X026039Y013080D01*
X025951Y013173D02*
X025921Y013202D01*
X026010Y013232D02*
X026010Y013261D01*
X025980Y013354D02*
X025921Y013413D01*
X026098Y013413D01*
X026098Y013354D02*
X026098Y013472D01*
X026069Y013535D02*
X026098Y013565D01*
X026098Y013624D01*
X026069Y013653D01*
X025951Y013653D01*
X025921Y013624D01*
X025921Y013565D01*
X025951Y013535D01*
X025980Y013535D01*
X026010Y013565D01*
X026010Y013653D01*
X026559Y015272D02*
X026530Y015301D01*
X026530Y015360D01*
X026559Y015390D01*
X026530Y015453D02*
X026618Y015453D01*
X026589Y015512D01*
X026589Y015542D01*
X026618Y015571D01*
X026677Y015571D01*
X026707Y015542D01*
X026707Y015483D01*
X026677Y015453D01*
X026677Y015390D02*
X026707Y015360D01*
X026707Y015301D01*
X026677Y015272D01*
X026559Y015272D01*
X026530Y015453D02*
X026530Y015571D01*
X026589Y015634D02*
X026530Y015693D01*
X026707Y015693D01*
X026707Y015634D02*
X026707Y015752D01*
X028572Y016446D02*
X028572Y016587D01*
X028618Y016633D01*
X028712Y016633D01*
X028759Y016587D01*
X028759Y016446D01*
X028852Y016446D02*
X028572Y016446D01*
X028759Y016540D02*
X028852Y016633D01*
X028805Y016723D02*
X028852Y016769D01*
X028852Y016863D01*
X028805Y016910D01*
X028712Y016910D01*
X028665Y016863D01*
X028665Y016816D01*
X028712Y016723D01*
X028572Y016723D01*
X028572Y016910D01*
X028572Y016999D02*
X028572Y017186D01*
X028618Y017186D01*
X028805Y016999D01*
X028852Y016999D01*
X029820Y015839D02*
X029866Y015746D01*
X029960Y015652D01*
X029960Y015793D01*
X030007Y015839D01*
X030053Y015839D01*
X030100Y015793D01*
X030100Y015699D01*
X030053Y015652D01*
X029960Y015652D01*
X029960Y015563D02*
X029960Y015376D01*
X029820Y015516D01*
X030100Y015516D01*
X030053Y015287D02*
X030100Y015240D01*
X030100Y015147D01*
X030053Y015100D01*
X029866Y015100D01*
X029820Y015147D01*
X029820Y015240D01*
X029866Y015287D01*
X031870Y016750D02*
X031870Y016890D01*
X031916Y016937D01*
X032010Y016937D01*
X032057Y016890D01*
X032057Y016750D01*
X032150Y016750D02*
X031870Y016750D01*
X032057Y016843D02*
X032150Y016937D01*
X032103Y017026D02*
X032150Y017073D01*
X032150Y017166D01*
X032103Y017213D01*
X032010Y017213D01*
X031963Y017166D01*
X031963Y017120D01*
X032010Y017026D01*
X031870Y017026D01*
X031870Y017213D01*
X031916Y017302D02*
X031963Y017302D01*
X032010Y017349D01*
X032010Y017443D01*
X032057Y017489D01*
X032103Y017489D01*
X032150Y017443D01*
X032150Y017349D01*
X032103Y017302D01*
X032057Y017302D01*
X032010Y017349D01*
X032010Y017443D02*
X031963Y017489D01*
X031916Y017489D01*
X031870Y017443D01*
X031870Y017349D01*
X031916Y017302D01*
X033255Y016300D02*
X033255Y016241D01*
X033285Y016211D01*
X033285Y016148D02*
X033344Y016148D01*
X033373Y016119D01*
X033373Y016030D01*
X033432Y016030D02*
X033255Y016030D01*
X033255Y016119D01*
X033285Y016148D01*
X033255Y016300D02*
X033285Y016329D01*
X033314Y016329D01*
X033432Y016211D01*
X033432Y016329D01*
X033255Y015967D02*
X033255Y015908D01*
X033255Y015937D02*
X033403Y015937D01*
X033432Y015908D01*
X033432Y015878D01*
X033403Y015849D01*
X034010Y015080D02*
X033964Y015033D01*
X033964Y014846D01*
X034010Y014799D01*
X034104Y014799D01*
X034150Y014846D01*
X034240Y014846D02*
X034286Y014799D01*
X034380Y014799D01*
X034427Y014846D01*
X034427Y014893D01*
X034380Y014940D01*
X034240Y014940D01*
X034240Y014846D01*
X034240Y014940D02*
X034333Y015033D01*
X034427Y015080D01*
X034516Y015033D02*
X034563Y015080D01*
X034656Y015080D01*
X034703Y015033D01*
X034703Y014986D01*
X034516Y014799D01*
X034703Y014799D01*
X034150Y015033D02*
X034104Y015080D01*
X034010Y015080D01*
X030633Y018760D02*
X030679Y018807D01*
X030679Y018853D01*
X030633Y018900D01*
X030492Y018900D01*
X030492Y018807D01*
X030539Y018760D01*
X030633Y018760D01*
X030492Y018900D02*
X030586Y018994D01*
X030679Y019040D01*
X030403Y019040D02*
X030216Y019040D01*
X030216Y018900D01*
X030310Y018947D01*
X030356Y018947D01*
X030403Y018900D01*
X030403Y018807D01*
X030356Y018760D01*
X030263Y018760D01*
X030216Y018807D01*
X030127Y018760D02*
X030033Y018853D01*
X030080Y018853D02*
X029940Y018853D01*
X029940Y018760D02*
X029940Y019040D01*
X030080Y019040D01*
X030127Y018994D01*
X030127Y018900D01*
X030080Y018853D01*
X029019Y019262D02*
X029019Y019321D01*
X028989Y019350D01*
X028989Y019414D02*
X029019Y019443D01*
X029019Y019502D01*
X028989Y019532D01*
X028930Y019532D01*
X028901Y019502D01*
X028901Y019473D01*
X028930Y019414D01*
X028842Y019414D01*
X028842Y019532D01*
X028871Y019595D02*
X028842Y019625D01*
X028842Y019684D01*
X028871Y019713D01*
X028989Y019595D01*
X029019Y019625D01*
X029019Y019684D01*
X028989Y019713D01*
X028871Y019713D01*
X028871Y019595D02*
X028989Y019595D01*
X028871Y019350D02*
X028842Y019321D01*
X028842Y019262D01*
X028871Y019232D01*
X028989Y019232D01*
X029019Y019262D01*
X028146Y019014D02*
X028146Y018920D01*
X028099Y018873D01*
X028006Y018873D01*
X028006Y019014D01*
X028053Y019060D01*
X028099Y019060D01*
X028146Y019014D01*
X028006Y018873D02*
X027912Y018967D01*
X027866Y019060D01*
X027912Y018784D02*
X027866Y018737D01*
X027866Y018644D01*
X027912Y018597D01*
X027912Y018508D02*
X027866Y018461D01*
X027866Y018368D01*
X027912Y018321D01*
X028099Y018321D01*
X028146Y018368D01*
X028146Y018461D01*
X028099Y018508D01*
X028146Y018597D02*
X027959Y018784D01*
X027912Y018784D01*
X028146Y018784D02*
X028146Y018597D01*
X031285Y021715D02*
X031465Y021715D01*
X031465Y021835D01*
X031465Y021899D02*
X031465Y022019D01*
X031465Y022083D02*
X031465Y022173D01*
X031435Y022203D01*
X031315Y022203D01*
X031285Y022173D01*
X031285Y022083D01*
X031465Y022083D01*
X031375Y021959D02*
X031375Y021899D01*
X031285Y021899D02*
X031465Y021899D01*
X031285Y021899D02*
X031285Y022019D01*
X031315Y022268D02*
X031285Y022298D01*
X031285Y022358D01*
X031315Y022388D01*
X031345Y022388D01*
X031465Y022268D01*
X031465Y022388D01*
X032555Y022449D02*
X032735Y022449D01*
X032735Y022389D02*
X032735Y022509D01*
X032615Y022389D02*
X032555Y022449D01*
X032585Y022325D02*
X032555Y022295D01*
X032555Y022205D01*
X032735Y022205D01*
X032735Y022295D01*
X032705Y022325D01*
X032585Y022325D01*
X032555Y022140D02*
X032555Y022020D01*
X032735Y022020D01*
X032735Y022140D01*
X032645Y022080D02*
X032645Y022020D01*
X032735Y021956D02*
X032735Y021836D01*
X032555Y021836D01*
X017052Y020543D02*
X017052Y020423D01*
X016932Y020543D01*
X016902Y020543D01*
X016872Y020513D01*
X016872Y020453D01*
X016902Y020423D01*
X016902Y020359D02*
X017022Y020239D01*
X017052Y020269D01*
X017052Y020329D01*
X017022Y020359D01*
X016902Y020359D01*
X016872Y020329D01*
X016872Y020269D01*
X016902Y020239D01*
X017022Y020239D01*
X017052Y020175D02*
X017052Y020055D01*
X017052Y020115D02*
X016872Y020115D01*
X016932Y020055D01*
X016902Y019991D02*
X016962Y019991D01*
X016992Y019961D01*
X016992Y019871D01*
X016992Y019931D02*
X017052Y019991D01*
X017052Y019871D02*
X016872Y019871D01*
X016872Y019961D01*
X016902Y019991D01*
X016946Y018801D02*
X016993Y018801D01*
X017040Y018754D01*
X017087Y018801D01*
X017133Y018801D01*
X017180Y018754D01*
X017180Y018660D01*
X017133Y018614D01*
X017180Y018524D02*
X017180Y018338D01*
X016993Y018524D01*
X016946Y018524D01*
X016900Y018478D01*
X016900Y018384D01*
X016946Y018338D01*
X016946Y018248D02*
X016900Y018201D01*
X016900Y018061D01*
X017180Y018061D01*
X017087Y018061D02*
X017087Y018201D01*
X017040Y018248D01*
X016946Y018248D01*
X017087Y018155D02*
X017180Y018248D01*
X016946Y018614D02*
X016900Y018660D01*
X016900Y018754D01*
X016946Y018801D01*
X017040Y018754D02*
X017040Y018707D01*
X016467Y021560D02*
X016187Y021560D01*
X016187Y021700D01*
X016234Y021747D01*
X016327Y021747D01*
X016374Y021700D01*
X016374Y021560D01*
X016374Y021654D02*
X016467Y021747D01*
X016467Y021836D02*
X016420Y021836D01*
X016234Y022023D01*
X016187Y022023D01*
X016187Y021836D01*
X016280Y022113D02*
X016187Y022206D01*
X016467Y022206D01*
X016467Y022113D02*
X016467Y022299D01*
X011436Y021944D02*
X011436Y021851D01*
X011389Y021804D01*
X011202Y021991D01*
X011389Y021991D01*
X011436Y021944D01*
X011389Y021804D02*
X011202Y021804D01*
X011155Y021851D01*
X011155Y021944D01*
X011202Y021991D01*
X011202Y021715D02*
X011389Y021528D01*
X011436Y021528D01*
X011436Y021439D02*
X011342Y021345D01*
X011342Y021392D02*
X011342Y021252D01*
X011436Y021252D02*
X011155Y021252D01*
X011155Y021392D01*
X011202Y021439D01*
X011296Y021439D01*
X011342Y021392D01*
X011155Y021528D02*
X011155Y021715D01*
X011202Y021715D01*
X004438Y021641D02*
X004438Y021454D01*
X004392Y021407D01*
X004298Y021407D01*
X004251Y021454D01*
X004162Y021454D02*
X004162Y021500D01*
X004115Y021547D01*
X003975Y021547D01*
X003975Y021454D01*
X004022Y021407D01*
X004115Y021407D01*
X004162Y021454D01*
X004298Y021547D02*
X004251Y021594D01*
X004251Y021641D01*
X004298Y021687D01*
X004392Y021687D01*
X004438Y021641D01*
X004438Y021547D02*
X004298Y021547D01*
X004162Y021687D02*
X004069Y021641D01*
X003975Y021547D01*
X003886Y021547D02*
X003839Y021500D01*
X003699Y021500D01*
X003699Y021407D02*
X003699Y021687D01*
X003839Y021687D01*
X003886Y021641D01*
X003886Y021547D01*
X003792Y021500D02*
X003886Y021407D01*
X001858Y018005D02*
X001764Y017958D01*
X001671Y017865D01*
X001811Y017865D01*
X001858Y017818D01*
X001858Y017771D01*
X001811Y017724D01*
X001718Y017724D01*
X001671Y017771D01*
X001671Y017865D01*
X001582Y017865D02*
X001395Y017865D01*
X001535Y018005D01*
X001535Y017724D01*
X001305Y017724D02*
X001212Y017818D01*
X001259Y017818D02*
X001119Y017818D01*
X001119Y017724D02*
X001119Y018005D01*
X001259Y018005D01*
X001305Y017958D01*
X001305Y017865D01*
X001259Y017818D01*
X001237Y016751D02*
X001283Y016751D01*
X001330Y016704D01*
X001330Y016610D01*
X001283Y016564D01*
X001237Y016564D01*
X001190Y016610D01*
X001190Y016704D01*
X001237Y016751D01*
X001190Y016704D02*
X001143Y016751D01*
X001096Y016751D01*
X001050Y016704D01*
X001050Y016610D01*
X001096Y016564D01*
X001143Y016564D01*
X001190Y016610D01*
X001143Y016474D02*
X001330Y016288D01*
X001330Y016474D01*
X001143Y016474D02*
X001096Y016474D01*
X001050Y016428D01*
X001050Y016334D01*
X001096Y016288D01*
X001096Y016198D02*
X001190Y016198D01*
X001237Y016151D01*
X001237Y016011D01*
X001330Y016011D02*
X001050Y016011D01*
X001050Y016151D01*
X001096Y016198D01*
X001237Y016105D02*
X001330Y016198D01*
X002950Y016511D02*
X002950Y016651D01*
X002996Y016698D01*
X003090Y016698D01*
X003137Y016651D01*
X003137Y016511D01*
X003230Y016511D02*
X002950Y016511D01*
X003137Y016605D02*
X003230Y016698D01*
X003230Y016787D02*
X003043Y016974D01*
X002996Y016974D01*
X002950Y016928D01*
X002950Y016834D01*
X002996Y016787D01*
X003230Y016787D02*
X003230Y016974D01*
X003230Y017064D02*
X003183Y017064D01*
X002996Y017250D01*
X002950Y017250D01*
X002950Y017064D01*
X003774Y017088D02*
X003820Y017042D01*
X003867Y017042D01*
X003914Y017088D01*
X003914Y017229D01*
X004007Y017229D02*
X003820Y017229D01*
X003774Y017182D01*
X003774Y017088D01*
X003820Y016952D02*
X003774Y016906D01*
X003774Y016812D01*
X003820Y016766D01*
X003820Y016676D02*
X003914Y016676D01*
X003960Y016629D01*
X003960Y016489D01*
X003960Y016583D02*
X004054Y016676D01*
X004054Y016766D02*
X003867Y016952D01*
X003820Y016952D01*
X004007Y017042D02*
X004054Y017088D01*
X004054Y017182D01*
X004007Y017229D01*
X004054Y016952D02*
X004054Y016766D01*
X003820Y016676D02*
X003774Y016629D01*
X003774Y016489D01*
X004054Y016489D01*
X004675Y016438D02*
X004675Y016578D01*
X004721Y016625D01*
X004815Y016625D01*
X004861Y016578D01*
X004861Y016438D01*
X004861Y016532D02*
X004955Y016625D01*
X004815Y016714D02*
X004815Y016901D01*
X004815Y016991D02*
X004768Y017084D01*
X004768Y017131D01*
X004815Y017177D01*
X004908Y017177D01*
X004955Y017131D01*
X004955Y017037D01*
X004908Y016991D01*
X004815Y016991D02*
X004675Y016991D01*
X004675Y017177D01*
X004675Y016854D02*
X004815Y016714D01*
X004955Y016854D02*
X004675Y016854D01*
X004675Y016438D02*
X004955Y016438D01*
X002541Y014914D02*
X002494Y014960D01*
X002400Y014960D01*
X002354Y014914D01*
X002264Y014914D02*
X002218Y014960D01*
X002124Y014960D01*
X002078Y014914D01*
X001988Y014914D02*
X001988Y014820D01*
X001941Y014773D01*
X001801Y014773D01*
X001801Y014680D02*
X001801Y014960D01*
X001941Y014960D01*
X001988Y014914D01*
X001895Y014773D02*
X001988Y014680D01*
X002078Y014680D02*
X002264Y014867D01*
X002264Y014914D01*
X002264Y014680D02*
X002078Y014680D01*
X002354Y014680D02*
X002541Y014867D01*
X002541Y014914D01*
X002541Y014680D02*
X002354Y014680D01*
X002274Y012909D02*
X002087Y012909D01*
X002087Y012769D01*
X002181Y012816D01*
X002228Y012816D01*
X002274Y012769D01*
X002274Y012676D01*
X002228Y012629D01*
X002134Y012629D01*
X002087Y012676D01*
X001998Y012769D02*
X001951Y012722D01*
X001811Y012722D01*
X001811Y012629D02*
X001811Y012909D01*
X001951Y012909D01*
X001998Y012862D01*
X001998Y012769D01*
X001722Y012909D02*
X001535Y012909D01*
X001628Y012909D02*
X001628Y012629D01*
X005140Y013707D02*
X005187Y013660D01*
X005280Y013660D01*
X005327Y013707D01*
X005416Y013800D02*
X005556Y013940D01*
X005556Y013660D01*
X005692Y013707D02*
X005739Y013660D01*
X005833Y013660D01*
X005879Y013707D01*
X005879Y013753D01*
X005833Y013800D01*
X005786Y013800D01*
X005833Y013800D02*
X005879Y013847D01*
X005879Y013894D01*
X005833Y013940D01*
X005739Y013940D01*
X005692Y013894D01*
X005603Y013800D02*
X005416Y013800D01*
X005327Y013894D02*
X005280Y013940D01*
X005187Y013940D01*
X005140Y013894D01*
X005140Y013707D01*
X006640Y013753D02*
X006780Y013753D01*
X006827Y013800D01*
X006827Y013894D01*
X006780Y013940D01*
X006640Y013940D01*
X006640Y013660D01*
X006733Y013753D02*
X006827Y013660D01*
X006916Y013707D02*
X006963Y013660D01*
X007056Y013660D01*
X007103Y013707D01*
X007103Y013753D01*
X007056Y013800D01*
X007010Y013800D01*
X007056Y013800D02*
X007103Y013847D01*
X007103Y013894D01*
X007056Y013940D01*
X006963Y013940D01*
X006916Y013894D01*
X007192Y013894D02*
X007239Y013940D01*
X007333Y013940D01*
X007379Y013894D01*
X007379Y013847D01*
X007192Y013660D01*
X007379Y013660D01*
X008101Y013680D02*
X008101Y013960D01*
X008241Y013960D01*
X008288Y013914D01*
X008288Y013820D01*
X008241Y013773D01*
X008101Y013773D01*
X008195Y013773D02*
X008288Y013680D01*
X008378Y013820D02*
X008564Y013820D01*
X008654Y013773D02*
X008700Y013820D01*
X008794Y013820D01*
X008841Y013773D01*
X008841Y013727D01*
X008794Y013680D01*
X008700Y013680D01*
X008654Y013727D01*
X008654Y013773D01*
X008700Y013820D02*
X008654Y013867D01*
X008654Y013914D01*
X008700Y013960D01*
X008794Y013960D01*
X008841Y013914D01*
X008841Y013867D01*
X008794Y013820D01*
X008518Y013680D02*
X008518Y013960D01*
X008378Y013820D01*
X009650Y013778D02*
X009790Y013778D01*
X009837Y013825D01*
X009837Y013918D01*
X009790Y013965D01*
X009650Y013965D01*
X009650Y013685D01*
X009743Y013778D02*
X009837Y013685D01*
X009926Y013732D02*
X009973Y013685D01*
X010066Y013685D01*
X010113Y013732D01*
X010113Y013825D01*
X010066Y013872D01*
X010020Y013872D01*
X009926Y013825D01*
X009926Y013965D01*
X010113Y013965D01*
X010202Y013918D02*
X010249Y013965D01*
X010342Y013965D01*
X010389Y013918D01*
X010202Y013732D01*
X010249Y013685D01*
X010342Y013685D01*
X010389Y013732D01*
X010389Y013918D01*
X010202Y013918D02*
X010202Y013732D01*
X016770Y012193D02*
X016770Y012099D01*
X016816Y012052D01*
X016863Y012052D01*
X016910Y012099D01*
X016910Y012239D01*
X017003Y012239D02*
X016816Y012239D01*
X016770Y012193D01*
X016816Y011963D02*
X016863Y011963D01*
X016910Y011916D01*
X016957Y011963D01*
X017003Y011963D01*
X017050Y011916D01*
X017050Y011823D01*
X017003Y011776D01*
X017050Y011687D02*
X016957Y011593D01*
X016957Y011640D02*
X016957Y011500D01*
X017050Y011500D02*
X016770Y011500D01*
X016770Y011640D01*
X016816Y011687D01*
X016910Y011687D01*
X016957Y011640D01*
X016816Y011776D02*
X016770Y011823D01*
X016770Y011916D01*
X016816Y011963D01*
X016910Y011916D02*
X016910Y011870D01*
X017003Y012052D02*
X017050Y012099D01*
X017050Y012193D01*
X017003Y012239D01*
X017869Y012266D02*
X017869Y012173D01*
X017916Y012126D01*
X017916Y012037D02*
X017963Y012037D01*
X018009Y011990D01*
X018056Y012037D01*
X018103Y012037D01*
X018150Y011990D01*
X018150Y011896D01*
X018103Y011850D01*
X018103Y011760D02*
X018150Y011714D01*
X018150Y011620D01*
X018103Y011573D01*
X017916Y011573D01*
X017869Y011620D01*
X017869Y011714D01*
X017916Y011760D01*
X017916Y011850D02*
X017869Y011896D01*
X017869Y011990D01*
X017916Y012037D01*
X018009Y011990D02*
X018009Y011943D01*
X018150Y012126D02*
X017963Y012313D01*
X017916Y012313D01*
X017869Y012266D01*
X018150Y012313D02*
X018150Y012126D01*
X018517Y012123D02*
X018694Y012123D01*
X018694Y012064D02*
X018694Y012182D01*
X018576Y012064D02*
X018517Y012123D01*
X018517Y011941D02*
X018694Y011941D01*
X018694Y011882D02*
X018694Y012000D01*
X018576Y011882D02*
X018517Y011941D01*
X018547Y011819D02*
X018517Y011790D01*
X018517Y011731D01*
X018547Y011701D01*
X018547Y011638D02*
X018517Y011608D01*
X018517Y011549D01*
X018547Y011520D01*
X018665Y011520D01*
X018694Y011549D01*
X018694Y011608D01*
X018665Y011638D01*
X018694Y011701D02*
X018576Y011819D01*
X018547Y011819D01*
X018694Y011819D02*
X018694Y011701D01*
X019350Y011351D02*
X019350Y011164D01*
X019350Y011028D02*
X019490Y010888D01*
X019490Y011074D01*
X019583Y011164D02*
X019630Y011164D01*
X019583Y011164D02*
X019396Y011351D01*
X019350Y011351D01*
X019350Y011028D02*
X019630Y011028D01*
X019630Y010798D02*
X019537Y010705D01*
X019537Y010751D02*
X019537Y010611D01*
X019630Y010611D02*
X019350Y010611D01*
X019350Y010751D01*
X019396Y010798D01*
X019490Y010798D01*
X019537Y010751D01*
X019564Y009410D02*
X019378Y009410D01*
X019378Y009270D01*
X019471Y009317D01*
X019518Y009317D01*
X019564Y009270D01*
X019564Y009177D01*
X019518Y009130D01*
X019424Y009130D01*
X019378Y009177D01*
X019288Y009130D02*
X019195Y009223D01*
X019241Y009223D02*
X019101Y009223D01*
X019101Y009130D02*
X019101Y009410D01*
X019241Y009410D01*
X019288Y009364D01*
X019288Y009270D01*
X019241Y009223D01*
X019654Y009177D02*
X019700Y009130D01*
X019794Y009130D01*
X019841Y009177D01*
X019841Y009364D01*
X019794Y009410D01*
X019700Y009410D01*
X019654Y009364D01*
X019654Y009317D01*
X019700Y009270D01*
X019841Y009270D01*
X018403Y009316D02*
X018357Y009270D01*
X018263Y009270D01*
X018217Y009316D01*
X018217Y009363D01*
X018263Y009410D01*
X018357Y009410D01*
X018403Y009363D01*
X018403Y009316D01*
X018357Y009270D02*
X018403Y009223D01*
X018403Y009176D01*
X018357Y009130D01*
X018263Y009130D01*
X018217Y009176D01*
X018217Y009223D01*
X018263Y009270D01*
X018127Y009316D02*
X018127Y009363D01*
X018080Y009410D01*
X017987Y009410D01*
X017940Y009363D01*
X017851Y009363D02*
X017804Y009410D01*
X017711Y009410D01*
X017664Y009363D01*
X017664Y009176D01*
X017711Y009130D01*
X017804Y009130D01*
X017851Y009176D01*
X017940Y009130D02*
X018127Y009316D01*
X018127Y009130D02*
X017940Y009130D01*
X017000Y010450D02*
X016720Y010450D01*
X016720Y010590D01*
X016766Y010637D01*
X016860Y010637D01*
X016907Y010590D01*
X016907Y010450D01*
X016907Y010543D02*
X017000Y010637D01*
X016860Y010726D02*
X016860Y010913D01*
X016860Y011002D02*
X016860Y011189D01*
X017000Y011143D02*
X016720Y011143D01*
X016860Y011002D01*
X017000Y010866D02*
X016720Y010866D01*
X016860Y010726D01*
X012600Y009393D02*
X012320Y009393D01*
X012460Y009252D01*
X012460Y009439D01*
X012413Y009163D02*
X012366Y009163D01*
X012320Y009116D01*
X012320Y009023D01*
X012366Y008976D01*
X012366Y008887D02*
X012320Y008840D01*
X012320Y008747D01*
X012366Y008700D01*
X012553Y008700D01*
X012600Y008747D01*
X012600Y008840D01*
X012553Y008887D01*
X012600Y008976D02*
X012413Y009163D01*
X012600Y009163D02*
X012600Y008976D01*
X011680Y009078D02*
X011400Y009078D01*
X011540Y008938D01*
X011540Y009124D01*
X011540Y009214D02*
X011493Y009307D01*
X011493Y009354D01*
X011540Y009401D01*
X011633Y009401D01*
X011680Y009354D01*
X011680Y009260D01*
X011633Y009214D01*
X011540Y009214D02*
X011400Y009214D01*
X011400Y009401D01*
X010680Y009451D02*
X010680Y009264D01*
X010493Y009451D01*
X010446Y009451D01*
X010400Y009404D01*
X010400Y009310D01*
X010446Y009264D01*
X010540Y009174D02*
X010540Y008988D01*
X010400Y009128D01*
X010680Y009128D01*
X010680Y008898D02*
X010587Y008805D01*
X010587Y008851D02*
X010587Y008711D01*
X010680Y008711D02*
X010400Y008711D01*
X010400Y008851D01*
X010446Y008898D01*
X010540Y008898D01*
X010587Y008851D01*
X011400Y008801D02*
X011400Y008708D01*
X011446Y008661D01*
X011633Y008661D01*
X011680Y008708D01*
X011680Y008801D01*
X011633Y008848D01*
X011446Y008848D02*
X011400Y008801D01*
X011373Y007971D02*
X011560Y007784D01*
X011607Y007784D01*
X011607Y007694D02*
X011607Y007508D01*
X011607Y007418D02*
X011513Y007325D01*
X011513Y007371D02*
X011513Y007231D01*
X011607Y007231D02*
X011327Y007231D01*
X011327Y007371D01*
X011373Y007418D01*
X011467Y007418D01*
X011513Y007371D01*
X011420Y007508D02*
X011327Y007601D01*
X011607Y007601D01*
X011327Y007784D02*
X011327Y007971D01*
X011373Y007971D01*
X010617Y007728D02*
X010571Y007728D01*
X010384Y007915D01*
X010337Y007915D01*
X010337Y007728D01*
X010384Y007639D02*
X010337Y007592D01*
X010337Y007498D01*
X010384Y007452D01*
X010384Y007362D02*
X010477Y007362D01*
X010524Y007316D01*
X010524Y007175D01*
X010617Y007175D02*
X010337Y007175D01*
X010337Y007316D01*
X010384Y007362D01*
X010524Y007269D02*
X010617Y007362D01*
X010571Y007452D02*
X010617Y007498D01*
X010617Y007592D01*
X010571Y007639D01*
X010524Y007639D01*
X010477Y007592D01*
X010477Y007545D01*
X010477Y007592D02*
X010430Y007639D01*
X010384Y007639D01*
X009650Y008700D02*
X009370Y008700D01*
X009370Y008840D01*
X009416Y008887D01*
X009510Y008887D01*
X009557Y008840D01*
X009557Y008700D01*
X009557Y008793D02*
X009650Y008887D01*
X009510Y008976D02*
X009510Y009163D01*
X009463Y009252D02*
X009370Y009346D01*
X009650Y009346D01*
X009650Y009439D02*
X009650Y009252D01*
X009650Y009116D02*
X009370Y009116D01*
X009510Y008976D01*
X012348Y007954D02*
X012395Y007861D01*
X012488Y007767D01*
X012488Y007908D01*
X012535Y007954D01*
X012582Y007954D01*
X012628Y007908D01*
X012628Y007814D01*
X012582Y007767D01*
X012488Y007767D01*
X012442Y007678D02*
X012488Y007631D01*
X012535Y007678D01*
X012582Y007678D01*
X012628Y007631D01*
X012628Y007538D01*
X012582Y007491D01*
X012628Y007402D02*
X012535Y007308D01*
X012535Y007355D02*
X012535Y007215D01*
X012628Y007215D02*
X012348Y007215D01*
X012348Y007355D01*
X012395Y007402D01*
X012488Y007402D01*
X012535Y007355D01*
X012395Y007491D02*
X012348Y007538D01*
X012348Y007631D01*
X012395Y007678D01*
X012442Y007678D01*
X012488Y007631D02*
X012488Y007585D01*
X012507Y006689D02*
X012553Y006689D01*
X012600Y006643D01*
X012600Y006549D01*
X012553Y006502D01*
X012507Y006502D01*
X012460Y006549D01*
X012460Y006643D01*
X012507Y006689D01*
X012460Y006643D02*
X012413Y006689D01*
X012366Y006689D01*
X012320Y006643D01*
X012320Y006549D01*
X012366Y006502D01*
X012413Y006502D01*
X012460Y006549D01*
X012600Y006413D02*
X012600Y006226D01*
X012600Y006137D02*
X012507Y006043D01*
X012507Y006090D02*
X012507Y005950D01*
X012600Y005950D02*
X012320Y005950D01*
X012320Y006090D01*
X012366Y006137D01*
X012460Y006137D01*
X012507Y006090D01*
X012413Y006226D02*
X012320Y006320D01*
X012600Y006320D01*
X013366Y004989D02*
X013320Y004943D01*
X013320Y004849D01*
X013366Y004802D01*
X013413Y004802D01*
X013460Y004849D01*
X013460Y004989D01*
X013553Y004989D02*
X013366Y004989D01*
X013553Y004989D02*
X013600Y004943D01*
X013600Y004849D01*
X013553Y004802D01*
X013600Y004713D02*
X013600Y004526D01*
X013600Y004437D02*
X013507Y004343D01*
X013507Y004390D02*
X013507Y004250D01*
X013600Y004250D02*
X013320Y004250D01*
X013320Y004390D01*
X013366Y004437D01*
X013460Y004437D01*
X013507Y004390D01*
X013413Y004526D02*
X013320Y004620D01*
X013600Y004620D01*
X014370Y004570D02*
X014650Y004570D01*
X014650Y004663D02*
X014650Y004476D01*
X014603Y004387D02*
X014650Y004340D01*
X014650Y004247D01*
X014603Y004200D01*
X014416Y004200D01*
X014370Y004247D01*
X014370Y004340D01*
X014416Y004387D01*
X014463Y004476D02*
X014370Y004570D01*
X014416Y004752D02*
X014370Y004799D01*
X014370Y004893D01*
X014416Y004939D01*
X014603Y004752D01*
X014650Y004799D01*
X014650Y004893D01*
X014603Y004939D01*
X014416Y004939D01*
X014416Y004752D02*
X014603Y004752D01*
X014603Y005900D02*
X014650Y005947D01*
X014650Y006040D01*
X014603Y006087D01*
X014650Y006176D02*
X014650Y006363D01*
X014650Y006452D02*
X014603Y006452D01*
X014416Y006639D01*
X014370Y006639D01*
X014370Y006452D01*
X014370Y006270D02*
X014650Y006270D01*
X014463Y006176D02*
X014370Y006270D01*
X014416Y006087D02*
X014370Y006040D01*
X014370Y005947D01*
X014416Y005900D01*
X014603Y005900D01*
X016353Y005996D02*
X016399Y005949D01*
X016586Y005949D01*
X016633Y005996D01*
X016633Y006089D01*
X016586Y006136D01*
X016633Y006225D02*
X016446Y006412D01*
X016399Y006412D01*
X016353Y006365D01*
X016353Y006272D01*
X016399Y006225D01*
X016399Y006136D02*
X016353Y006089D01*
X016353Y005996D01*
X016633Y006225D02*
X016633Y006412D01*
X016586Y006502D02*
X016633Y006548D01*
X016633Y006642D01*
X016586Y006688D01*
X016399Y006688D01*
X016353Y006642D01*
X016353Y006548D01*
X016399Y006502D01*
X016446Y006502D01*
X016493Y006548D01*
X016493Y006688D01*
X014411Y003499D02*
X014271Y003359D01*
X014458Y003359D01*
X014411Y003219D02*
X014411Y003499D01*
X014088Y003499D02*
X014088Y003219D01*
X014181Y003219D02*
X013994Y003219D01*
X013905Y003219D02*
X013812Y003312D01*
X013858Y003312D02*
X013718Y003312D01*
X013718Y003219D02*
X013718Y003499D01*
X013858Y003499D01*
X013905Y003452D01*
X013905Y003359D01*
X013858Y003312D01*
X013994Y003406D02*
X014088Y003499D01*
X014029Y002742D02*
X014029Y002462D01*
X014122Y002462D02*
X013935Y002462D01*
X013846Y002508D02*
X013799Y002462D01*
X013706Y002462D01*
X013659Y002508D01*
X013659Y002695D01*
X013706Y002742D01*
X013799Y002742D01*
X013846Y002695D01*
X013935Y002648D02*
X014029Y002742D01*
X014212Y002695D02*
X014258Y002742D01*
X014352Y002742D01*
X014398Y002695D01*
X014398Y002648D01*
X014352Y002602D01*
X014398Y002555D01*
X014398Y002508D01*
X014352Y002462D01*
X014258Y002462D01*
X014212Y002508D01*
X014305Y002602D02*
X014352Y002602D01*
X014912Y002004D02*
X014912Y001911D01*
X014959Y001864D01*
X014912Y002004D02*
X014959Y002051D01*
X015006Y002051D01*
X015192Y001864D01*
X015192Y002051D01*
X015192Y001774D02*
X015192Y001588D01*
X015192Y001498D02*
X015099Y001405D01*
X015099Y001452D02*
X015099Y001311D01*
X015192Y001311D02*
X014912Y001311D01*
X014912Y001452D01*
X014959Y001498D01*
X015052Y001498D01*
X015099Y001452D01*
X015006Y001588D02*
X014912Y001681D01*
X015192Y001681D01*
X013669Y000861D02*
X013669Y000815D01*
X013622Y000768D01*
X013669Y000721D01*
X013669Y000675D01*
X013622Y000628D01*
X013529Y000628D01*
X013482Y000675D01*
X013393Y000628D02*
X013206Y000628D01*
X013117Y000628D02*
X013023Y000721D01*
X013070Y000721D02*
X012930Y000721D01*
X012930Y000628D02*
X012930Y000908D01*
X013070Y000908D01*
X013117Y000861D01*
X013117Y000768D01*
X013070Y000721D01*
X013206Y000815D02*
X013299Y000908D01*
X013299Y000628D01*
X013482Y000861D02*
X013529Y000908D01*
X013622Y000908D01*
X013669Y000861D01*
X013622Y000768D02*
X013576Y000768D01*
X012179Y000544D02*
X012133Y000590D01*
X012039Y000590D01*
X011992Y000544D01*
X012179Y000544D02*
X012179Y000497D01*
X011992Y000310D01*
X012179Y000310D01*
X011903Y000310D02*
X011716Y000310D01*
X011810Y000310D02*
X011810Y000590D01*
X011716Y000497D01*
X011627Y000544D02*
X011580Y000590D01*
X011487Y000590D01*
X011440Y000544D01*
X011440Y000357D01*
X011487Y000310D01*
X011580Y000310D01*
X011627Y000357D01*
X009110Y001244D02*
X009063Y001197D01*
X008970Y001197D01*
X008923Y001244D01*
X009110Y001431D01*
X009110Y001244D01*
X009110Y001431D02*
X009063Y001477D01*
X008970Y001477D01*
X008923Y001431D01*
X008923Y001244D01*
X008834Y001244D02*
X008787Y001197D01*
X008694Y001197D01*
X008647Y001244D01*
X008558Y001197D02*
X008464Y001291D01*
X008511Y001291D02*
X008371Y001291D01*
X008371Y001197D02*
X008371Y001477D01*
X008511Y001477D01*
X008558Y001431D01*
X008558Y001337D01*
X008511Y001291D01*
X008647Y001431D02*
X008694Y001477D01*
X008787Y001477D01*
X008834Y001431D01*
X008834Y001384D01*
X008787Y001337D01*
X008834Y001291D01*
X008834Y001244D01*
X008787Y001337D02*
X008740Y001337D01*
X008289Y000798D02*
X008289Y000517D01*
X008382Y000517D02*
X008195Y000517D01*
X008106Y000517D02*
X007919Y000517D01*
X008013Y000517D02*
X008013Y000798D01*
X007919Y000704D01*
X007830Y000751D02*
X007783Y000798D01*
X007690Y000798D01*
X007643Y000751D01*
X007643Y000564D01*
X007690Y000517D01*
X007783Y000517D01*
X007830Y000564D01*
X008195Y000704D02*
X008289Y000798D01*
X008293Y002425D02*
X008293Y002705D01*
X008200Y002612D01*
X008200Y002425D02*
X008386Y002425D01*
X008110Y002425D02*
X007923Y002425D01*
X007834Y002425D02*
X007740Y002518D01*
X007787Y002518D02*
X007647Y002518D01*
X007647Y002425D02*
X007647Y002705D01*
X007787Y002705D01*
X007834Y002658D01*
X007834Y002565D01*
X007787Y002518D01*
X007923Y002612D02*
X008017Y002705D01*
X008017Y002425D01*
X008498Y003180D02*
X008451Y003227D01*
X008451Y003414D01*
X008498Y003460D01*
X008591Y003460D01*
X008638Y003414D01*
X008728Y003414D02*
X008774Y003460D01*
X008868Y003460D01*
X008914Y003414D01*
X008914Y003367D01*
X008728Y003180D01*
X008914Y003180D01*
X009004Y003180D02*
X009191Y003180D01*
X009097Y003180D02*
X009097Y003460D01*
X009004Y003367D01*
X008638Y003227D02*
X008591Y003180D01*
X008498Y003180D01*
X009206Y003852D02*
X009206Y004132D01*
X009346Y004132D01*
X009393Y004085D01*
X009393Y003992D01*
X009346Y003945D01*
X009206Y003945D01*
X009299Y003945D02*
X009393Y003852D01*
X009482Y003899D02*
X009529Y003852D01*
X009622Y003852D01*
X009669Y003899D01*
X009669Y003945D01*
X009622Y003992D01*
X009575Y003992D01*
X009622Y003992D02*
X009669Y004039D01*
X009669Y004085D01*
X009622Y004132D01*
X009529Y004132D01*
X009482Y004085D01*
X009758Y004039D02*
X009852Y004132D01*
X009852Y003852D01*
X009945Y003852D02*
X009758Y003852D01*
X010842Y002890D02*
X010888Y002937D01*
X011075Y002750D01*
X011122Y002797D01*
X011122Y002890D01*
X011075Y002937D01*
X010888Y002937D01*
X010842Y002890D02*
X010842Y002797D01*
X010888Y002750D01*
X011075Y002750D01*
X011122Y002661D02*
X011122Y002474D01*
X011122Y002385D02*
X011029Y002291D01*
X011029Y002338D02*
X011029Y002198D01*
X011122Y002198D02*
X010842Y002198D01*
X010842Y002338D01*
X010888Y002385D01*
X010982Y002385D01*
X011029Y002338D01*
X010935Y002474D02*
X010842Y002568D01*
X011122Y002568D01*
X011879Y002541D02*
X011925Y002494D01*
X011972Y002494D01*
X012019Y002541D01*
X012019Y002681D01*
X012112Y002681D02*
X011925Y002681D01*
X011879Y002634D01*
X011879Y002541D01*
X011925Y002404D02*
X011879Y002358D01*
X011879Y002218D01*
X012159Y002218D01*
X012066Y002218D02*
X012066Y002358D01*
X012019Y002404D01*
X011925Y002404D01*
X012066Y002311D02*
X012159Y002404D01*
X012112Y002494D02*
X012159Y002541D01*
X012159Y002634D01*
X012112Y002681D01*
X024325Y006633D02*
X024355Y006603D01*
X024473Y006603D01*
X024502Y006633D01*
X024502Y006692D01*
X024473Y006721D01*
X024414Y006784D02*
X024414Y006902D01*
X024384Y006966D02*
X024414Y006995D01*
X024414Y007084D01*
X024473Y007084D02*
X024355Y007084D01*
X024325Y007054D01*
X024325Y006995D01*
X024355Y006966D01*
X024384Y006966D01*
X024473Y006966D02*
X024502Y006995D01*
X024502Y007054D01*
X024473Y007084D01*
X024502Y006873D02*
X024325Y006873D01*
X024414Y006784D01*
X024355Y006721D02*
X024325Y006692D01*
X024325Y006633D01*
X025058Y005016D02*
X025058Y004829D01*
X025198Y004829D01*
X025151Y004923D01*
X025151Y004970D01*
X025198Y005016D01*
X025291Y005016D01*
X025338Y004970D01*
X025338Y004876D01*
X025291Y004829D01*
X025338Y004740D02*
X025244Y004647D01*
X025244Y004693D02*
X025244Y004553D01*
X025338Y004553D02*
X025058Y004553D01*
X025058Y004693D01*
X025104Y004740D01*
X025198Y004740D01*
X025244Y004693D01*
X025266Y004180D02*
X025313Y004133D01*
X025313Y004040D01*
X025266Y003993D01*
X025079Y004180D01*
X025266Y004180D01*
X025079Y004180D02*
X025033Y004133D01*
X025033Y004040D01*
X025079Y003993D01*
X025266Y003993D01*
X025266Y003904D02*
X025313Y003857D01*
X025313Y003764D01*
X025266Y003717D01*
X025266Y003627D02*
X025313Y003581D01*
X025313Y003487D01*
X025266Y003441D01*
X025079Y003441D01*
X025033Y003487D01*
X025033Y003581D01*
X025079Y003627D01*
X025079Y003717D02*
X025033Y003764D01*
X025033Y003857D01*
X025079Y003904D01*
X025126Y003904D01*
X025173Y003857D01*
X025219Y003904D01*
X025266Y003904D01*
X025173Y003857D02*
X025173Y003810D01*
X026819Y003722D02*
X026866Y003768D01*
X026912Y003768D01*
X026959Y003722D01*
X027006Y003768D01*
X027053Y003768D01*
X027099Y003722D01*
X027099Y003628D01*
X027053Y003582D01*
X027053Y003492D02*
X026866Y003492D01*
X026819Y003445D01*
X026819Y003305D01*
X027099Y003305D01*
X027099Y003445D01*
X027053Y003492D01*
X026959Y003675D02*
X026959Y003722D01*
X026819Y003722D02*
X026819Y003628D01*
X026866Y003582D01*
X026819Y003216D02*
X026819Y003029D01*
X027099Y003029D01*
X027099Y003216D01*
X026959Y003123D02*
X026959Y003029D01*
X027099Y002940D02*
X027099Y002753D01*
X026819Y002753D01*
X025703Y002434D02*
X025703Y002316D01*
X025674Y002286D01*
X025615Y002286D01*
X025585Y002316D01*
X025522Y002316D02*
X025493Y002286D01*
X025434Y002286D01*
X025404Y002316D01*
X025522Y002434D01*
X025522Y002316D01*
X025585Y002404D02*
X025615Y002375D01*
X025703Y002375D01*
X025703Y002434D02*
X025674Y002463D01*
X025615Y002463D01*
X025585Y002434D01*
X025585Y002404D01*
X025522Y002434D02*
X025493Y002463D01*
X025434Y002463D01*
X025404Y002434D01*
X025404Y002316D01*
X025341Y002286D02*
X025223Y002286D01*
X025341Y002404D01*
X025341Y002434D01*
X025311Y002463D01*
X025252Y002463D01*
X025223Y002434D01*
X025160Y002434D02*
X025130Y002463D01*
X025071Y002463D01*
X025042Y002434D01*
X025042Y002316D01*
X025071Y002286D01*
X025130Y002286D01*
X025160Y002316D01*
X027367Y003640D02*
X027367Y003780D01*
X027414Y003827D01*
X027507Y003827D01*
X027554Y003780D01*
X027554Y003640D01*
X027647Y003640D02*
X027367Y003640D01*
X027554Y003733D02*
X027647Y003827D01*
X027601Y003916D02*
X027647Y003963D01*
X027647Y004056D01*
X027601Y004103D01*
X027554Y004103D01*
X027507Y004056D01*
X027507Y003916D01*
X027601Y003916D01*
X027507Y003916D02*
X027414Y004010D01*
X027367Y004103D01*
X027367Y004192D02*
X027507Y004192D01*
X027461Y004286D01*
X027461Y004333D01*
X027507Y004379D01*
X027601Y004379D01*
X027647Y004333D01*
X027647Y004239D01*
X027601Y004192D01*
X027367Y004192D02*
X027367Y004379D01*
X029194Y003350D02*
X029241Y003397D01*
X029288Y003397D01*
X029334Y003350D01*
X029334Y003257D01*
X029288Y003210D01*
X029241Y003210D01*
X029194Y003257D01*
X029194Y003350D01*
X029334Y003350D02*
X029381Y003397D01*
X029428Y003397D01*
X029474Y003350D01*
X029474Y003257D01*
X029428Y003210D01*
X029381Y003210D01*
X029334Y003257D01*
X029334Y003121D02*
X029334Y002934D01*
X029194Y003074D01*
X029474Y003074D01*
X029428Y002844D02*
X029474Y002798D01*
X029474Y002704D01*
X029428Y002658D01*
X029241Y002658D01*
X029194Y002704D01*
X029194Y002798D01*
X029241Y002844D01*
X030044Y002851D02*
X030090Y002805D01*
X030044Y002851D02*
X030044Y002945D01*
X030090Y002992D01*
X030137Y002992D01*
X030324Y002805D01*
X030324Y002992D01*
X030324Y002715D02*
X030230Y002622D01*
X030230Y002669D02*
X030230Y002529D01*
X030324Y002529D02*
X030044Y002529D01*
X030044Y002669D01*
X030090Y002715D01*
X030184Y002715D01*
X030230Y002669D01*
X028691Y001960D02*
X028504Y001960D01*
X028504Y001820D01*
X028597Y001867D01*
X028644Y001867D01*
X028691Y001820D01*
X028691Y001727D01*
X028644Y001680D01*
X028550Y001680D01*
X028504Y001727D01*
X028414Y001680D02*
X028228Y001680D01*
X028414Y001867D01*
X028414Y001914D01*
X028368Y001960D01*
X028274Y001960D01*
X028228Y001914D01*
X028138Y001914D02*
X028091Y001960D01*
X027998Y001960D01*
X027951Y001914D01*
X027951Y001727D01*
X027998Y001680D01*
X028091Y001680D01*
X028138Y001727D01*
X030801Y001344D02*
X030801Y001157D01*
X030848Y001110D01*
X030941Y001110D01*
X030988Y001157D01*
X031078Y001251D02*
X031264Y001251D01*
X031354Y001157D02*
X031354Y001110D01*
X031354Y001157D02*
X031541Y001344D01*
X031541Y001391D01*
X031354Y001391D01*
X031218Y001391D02*
X031078Y001251D01*
X030988Y001344D02*
X030941Y001391D01*
X030848Y001391D01*
X030801Y001344D01*
X031218Y001391D02*
X031218Y001110D01*
X033899Y003274D02*
X033946Y003227D01*
X034133Y003227D01*
X034180Y003274D01*
X034180Y003367D01*
X034133Y003414D01*
X034180Y003504D02*
X033993Y003690D01*
X033946Y003690D01*
X033899Y003644D01*
X033899Y003550D01*
X033946Y003504D01*
X033946Y003414D02*
X033899Y003367D01*
X033899Y003274D01*
X034180Y003504D02*
X034180Y003690D01*
X032431Y004554D02*
X032151Y004554D01*
X032151Y004694D01*
X032198Y004741D01*
X032291Y004741D01*
X032338Y004694D01*
X032338Y004554D01*
X032338Y004647D02*
X032431Y004741D01*
X032431Y004830D02*
X032431Y005017D01*
X032431Y004923D02*
X032151Y004923D01*
X032244Y004830D01*
X032229Y005588D02*
X032416Y005588D01*
X032463Y005634D01*
X032463Y005728D01*
X032416Y005775D01*
X032416Y005864D02*
X032463Y005911D01*
X032463Y006004D01*
X032416Y006051D01*
X032369Y006051D01*
X032323Y006004D01*
X032323Y005957D01*
X032323Y006004D02*
X032276Y006051D01*
X032229Y006051D01*
X032183Y006004D01*
X032183Y005911D01*
X032229Y005864D01*
X032229Y005775D02*
X032183Y005728D01*
X032183Y005634D01*
X032229Y005588D01*
X030342Y005859D02*
X030342Y005888D01*
X030312Y005918D01*
X030224Y005918D01*
X030224Y005859D01*
X030253Y005829D01*
X030312Y005829D01*
X030342Y005859D01*
X030283Y005977D02*
X030224Y005918D01*
X030161Y005918D02*
X030161Y005859D01*
X030131Y005829D01*
X030072Y005829D01*
X030043Y005859D01*
X030043Y005918D02*
X030102Y005947D01*
X030131Y005947D01*
X030161Y005918D01*
X030161Y006006D02*
X030043Y006006D01*
X030043Y005918D01*
X029979Y005977D02*
X029950Y006006D01*
X029891Y006006D01*
X029861Y005977D01*
X029861Y005859D01*
X029891Y005829D01*
X029950Y005829D01*
X029979Y005859D01*
X030283Y005977D02*
X030342Y006006D01*
X033971Y007338D02*
X034158Y007338D01*
X034247Y007338D02*
X034247Y007058D01*
X034247Y007151D02*
X034387Y007151D01*
X034434Y007198D01*
X034434Y007292D01*
X034387Y007338D01*
X034247Y007338D01*
X034064Y007338D02*
X034064Y007058D01*
X034523Y007105D02*
X034523Y007151D01*
X034570Y007198D01*
X034663Y007198D01*
X034710Y007151D01*
X034710Y007105D01*
X034663Y007058D01*
X034570Y007058D01*
X034523Y007105D01*
X034570Y007198D02*
X034523Y007245D01*
X034523Y007292D01*
X034570Y007338D01*
X034663Y007338D01*
X034710Y007292D01*
X034710Y007245D01*
X034663Y007198D01*
X034312Y009191D02*
X034125Y009191D01*
X034219Y009191D02*
X034219Y009472D01*
X034125Y009378D01*
X034036Y009425D02*
X033989Y009472D01*
X033896Y009472D01*
X033849Y009425D01*
X033849Y009238D01*
X033896Y009191D01*
X033989Y009191D01*
X034036Y009238D01*
D19*
X034140Y006460D02*
X034860Y006460D01*
X034860Y005160D01*
X034140Y005160D01*
X034140Y006460D01*
X023811Y009944D02*
X023811Y011676D01*
X020996Y011676D01*
X020996Y009944D01*
X023811Y009944D01*
X020996Y009944D02*
X020898Y009944D01*
X020898Y011676D01*
X020996Y011676D01*
X020898Y011676D02*
X020799Y011676D01*
X020799Y009944D01*
X020898Y009944D01*
X020799Y009944D02*
X020701Y009944D01*
X020701Y011676D01*
X020799Y011676D01*
X008091Y010901D02*
X008091Y009719D01*
X007200Y010110D02*
X007200Y010510D01*
X007100Y010510D01*
X007100Y010410D01*
X007000Y010410D01*
X007000Y010110D01*
X007100Y010110D01*
X007200Y010110D01*
X007100Y010110D02*
X007100Y010410D01*
X007100Y010510D02*
X007000Y010510D01*
X006989Y010901D02*
X006989Y009719D01*
X006980Y009710D02*
X006880Y009710D01*
X006880Y010910D01*
X006980Y010910D01*
X006889Y010901D02*
X006889Y009719D01*
X004450Y009585D02*
X004450Y009010D01*
X004450Y008610D02*
X004450Y008035D01*
X003550Y008035D01*
X003550Y008610D01*
X003550Y009010D02*
X003550Y009585D01*
X004450Y009585D01*
X006256Y006330D02*
X000744Y006330D01*
X000744Y001290D01*
X006256Y001290D01*
X006256Y006330D01*
X005862Y004597D02*
X005075Y004597D01*
X005075Y003023D01*
X005862Y003023D01*
X005862Y004597D01*
X016500Y001810D02*
X016500Y000810D01*
X022500Y000810D01*
X022500Y001810D01*
X016500Y001810D01*
X003450Y013035D02*
X002550Y013035D01*
X002550Y013610D01*
X002450Y013610D02*
X002450Y013035D01*
X001550Y013035D01*
X001550Y013610D01*
X001450Y013610D02*
X001450Y013035D01*
X000550Y013035D01*
X000550Y013610D01*
X000550Y014010D02*
X000550Y014585D01*
X001450Y014585D01*
X001450Y014010D01*
X001550Y014010D02*
X001550Y014585D01*
X002450Y014585D01*
X002450Y014010D01*
X002550Y014010D02*
X002550Y014585D01*
X003450Y014585D01*
X003450Y014010D01*
X003450Y013610D02*
X003450Y013035D01*
D20*
X008530Y018150D02*
X008530Y019460D01*
X010470Y019460D01*
X010470Y018150D01*
X008530Y018150D01*
X011850Y017280D02*
X013160Y017280D01*
X013160Y015340D01*
X011850Y015340D01*
X011850Y017280D01*
X028030Y021150D02*
X028030Y022460D01*
X029970Y022460D01*
X029970Y021150D01*
X028030Y021150D01*
X032975Y020845D02*
X032977Y020857D01*
X032982Y020868D01*
X032991Y020877D01*
X033002Y020882D01*
X033014Y020884D01*
X033026Y020882D01*
X033037Y020877D01*
X033046Y020868D01*
X033051Y020857D01*
X033053Y020845D01*
X033051Y020833D01*
X033046Y020822D01*
X033037Y020813D01*
X033026Y020808D01*
X033014Y020806D01*
X033002Y020808D01*
X032991Y020813D01*
X032982Y020822D01*
X032977Y020833D01*
X032975Y020845D01*
D21*
X007907Y018810D03*
X005093Y018810D03*
X003907Y018810D03*
X001093Y018810D03*
D22*
X003647Y018810D03*
X007647Y018810D03*
D23*
X023400Y002410D03*
D24*
X023423Y002948D03*
X023423Y003341D03*
X023423Y003735D03*
X023423Y004129D03*
X023423Y004523D03*
X023423Y004916D03*
X023423Y005310D03*
X023423Y005704D03*
X023423Y006097D03*
X023423Y006491D03*
X023423Y006885D03*
X023423Y007279D03*
X023423Y007672D03*
X017577Y007672D03*
X017577Y007279D03*
X017577Y006885D03*
X017577Y006491D03*
X017577Y006097D03*
X017577Y005704D03*
X017577Y005310D03*
X017577Y004916D03*
X017577Y004523D03*
X017577Y004129D03*
X017577Y003735D03*
X017577Y003341D03*
X017577Y002948D03*
D25*
X017577Y003145D03*
X017577Y003538D03*
X017577Y003932D03*
X017577Y004326D03*
X017577Y004719D03*
X017577Y005113D03*
X017577Y005507D03*
X017577Y005901D03*
X017577Y006294D03*
X017577Y006688D03*
X017577Y007082D03*
X017577Y007475D03*
X023423Y007475D03*
X023423Y007082D03*
X023423Y006688D03*
X023423Y006294D03*
X023423Y005901D03*
X023423Y005507D03*
X023423Y005113D03*
X023423Y004719D03*
X023423Y004326D03*
X023423Y003932D03*
X023423Y003538D03*
X023423Y003145D03*
D26*
X022862Y002387D03*
X022469Y002387D03*
X022075Y002387D03*
X021681Y002387D03*
X021287Y002387D03*
X020894Y002387D03*
X020500Y002387D03*
X020106Y002387D03*
X019713Y002387D03*
X019319Y002387D03*
X018925Y002387D03*
X018531Y002387D03*
X018138Y002387D03*
X018138Y008233D03*
X018531Y008233D03*
X018925Y008233D03*
X019319Y008233D03*
X019713Y008233D03*
X020106Y008233D03*
X020500Y008233D03*
X020894Y008233D03*
X021287Y008233D03*
X021681Y008233D03*
X022075Y008233D03*
X022469Y008233D03*
X022862Y008233D03*
D27*
X022665Y008233D03*
X022272Y008233D03*
X021878Y008233D03*
X021484Y008233D03*
X021091Y008233D03*
X020697Y008233D03*
X020303Y008233D03*
X019909Y008233D03*
X019516Y008233D03*
X019122Y008233D03*
X018728Y008233D03*
X018335Y008233D03*
X018335Y002387D03*
X018728Y002387D03*
X019122Y002387D03*
X019516Y002387D03*
X019909Y002387D03*
X020303Y002387D03*
X020697Y002387D03*
X021091Y002387D03*
X021484Y002387D03*
X021878Y002387D03*
X022272Y002387D03*
X022665Y002387D03*
D28*
X030268Y012312D03*
X030728Y012312D03*
X034268Y015312D03*
X034728Y015312D03*
X035268Y016312D03*
X035728Y016312D03*
X032232Y018308D03*
X031772Y018308D03*
X029232Y018308D03*
X028772Y018308D03*
X031768Y021312D03*
X032228Y021312D03*
X033268Y022312D03*
X033728Y022312D03*
X035272Y019808D03*
X035732Y019808D03*
D29*
X035815Y006940D02*
X035185Y006940D01*
X035185Y005680D01*
X035815Y005680D01*
X035815Y006940D01*
D30*
X035500Y006310D03*
D31*
X035500Y006290D03*
D32*
X024500Y012877D03*
D33*
X024126Y013743D03*
X024874Y013743D03*
D34*
X012104Y017570D02*
X012104Y017620D01*
X012079Y017645D01*
X012104Y017692D02*
X012004Y017792D01*
X011979Y017792D01*
X011954Y017767D01*
X011954Y017717D01*
X011979Y017692D01*
X011979Y017645D02*
X011954Y017620D01*
X011954Y017570D01*
X011979Y017545D01*
X012079Y017545D01*
X012104Y017570D01*
X012104Y017692D02*
X012104Y017792D01*
X012079Y017840D02*
X011979Y017940D01*
X012079Y017940D01*
X012104Y017915D01*
X012104Y017865D01*
X012079Y017840D01*
X011979Y017840D01*
X011954Y017865D01*
X011954Y017915D01*
X011979Y017940D01*
X012029Y017987D02*
X012029Y018062D01*
X012054Y018087D01*
X012079Y018087D01*
X012104Y018062D01*
X012104Y018012D01*
X012079Y017987D01*
X012029Y017987D01*
X011979Y018037D01*
X011954Y018087D01*
X015518Y004062D02*
X015493Y004037D01*
X015493Y003986D01*
X015518Y003961D01*
X015493Y003864D02*
X015643Y003864D01*
X015643Y003814D02*
X015643Y003914D01*
X015643Y003961D02*
X015543Y004062D01*
X015518Y004062D01*
X015643Y004062D02*
X015643Y003961D01*
X015543Y003814D02*
X015493Y003864D01*
X015518Y003767D02*
X015493Y003742D01*
X015493Y003692D01*
X015518Y003667D01*
X015518Y003620D02*
X015493Y003595D01*
X015493Y003545D01*
X015518Y003519D01*
X015618Y003519D01*
X015643Y003545D01*
X015643Y003595D01*
X015618Y003620D01*
X015586Y003593D02*
X015586Y003493D01*
X015586Y003446D02*
X015586Y003346D01*
X015486Y003446D01*
X015461Y003446D01*
X015436Y003421D01*
X015436Y003371D01*
X015461Y003346D01*
X015461Y003298D02*
X015436Y003273D01*
X015436Y003223D01*
X015461Y003198D01*
X015561Y003198D01*
X015586Y003223D01*
X015586Y003273D01*
X015561Y003298D01*
X015486Y003493D02*
X015436Y003543D01*
X015586Y003543D01*
X015561Y003640D02*
X015461Y003740D01*
X015561Y003740D01*
X015586Y003715D01*
X015586Y003665D01*
X015561Y003640D01*
X015461Y003640D01*
X015436Y003665D01*
X015436Y003715D01*
X015461Y003740D01*
X015518Y003767D02*
X015543Y003767D01*
X015643Y003667D01*
X015643Y003767D01*
D35*
X032516Y018794D03*
D36*
X032988Y018204D03*
X032988Y018007D03*
X032988Y017810D03*
X032988Y017613D03*
X032988Y017416D03*
X034012Y017416D03*
X034012Y017613D03*
X034012Y017810D03*
X034012Y018007D03*
X034012Y018204D03*
D37*
X033598Y018351D03*
X033402Y018351D03*
X033402Y017269D03*
X033598Y017269D03*
D38*
X031921Y021923D03*
X031921Y022423D03*
D39*
X031951Y022423D03*
X031951Y021923D03*
D40*
X032000Y021322D02*
X032000Y021298D01*
X031012Y021810D02*
X030988Y021810D01*
X033500Y022298D02*
X033500Y022322D01*
X035500Y019822D02*
X035500Y019798D01*
X032000Y018322D02*
X032000Y018298D01*
X029000Y018298D02*
X029000Y018322D01*
X034500Y015322D02*
X034500Y015298D01*
X035500Y016298D02*
X035500Y016322D01*
D41*
X030998Y021578D03*
X030998Y022038D03*
D42*
X027113Y004389D03*
D43*
X027113Y004359D03*
D44*
X032909Y019916D02*
X032909Y020704D01*
X034091Y020704D01*
X034091Y019916D01*
X032909Y019916D01*
D45*
X001508Y004302D03*
D46*
X024000Y001310D03*
X025000Y001310D03*
X026000Y001310D03*
X027000Y001310D03*
X028000Y001310D03*
X029000Y001310D03*
X030000Y001310D03*
M02*
