G75*
%MOIN*%
%OFA0B0*%
%FSLAX24Y24*%
%IPPOS*%
%LPD*%
%AMOC8*
5,1,8,0,0,1.08239X$1,22.5*
%
%ADD10C,0.0000*%
%ADD11C,0.0434*%
%ADD12R,0.0540X0.0290*%
%ADD13R,0.0715X0.0715*%
%ADD14C,0.0715*%
%ADD15R,0.0540X0.1040*%
%ADD16R,0.0946X0.0237*%
%ADD17R,0.1418X0.1418*%
%ADD18R,0.0178X0.1540*%
%ADD19R,0.0355X0.0512*%
%ADD20R,0.0512X0.0355*%
%ADD21R,0.0060X0.0720*%
%ADD22R,0.0500X0.0670*%
%ADD23R,0.0434X0.0473*%
%ADD24C,0.0640*%
%ADD25R,0.1600X0.1600*%
%ADD26R,0.1290X0.1290*%
%ADD27R,0.1024X0.1339*%
%ADD28C,0.0355*%
%ADD29C,0.1240*%
%ADD30C,0.0390*%
%ADD31R,0.0740X0.1390*%
%ADD32R,0.0631X0.0316*%
%ADD33R,0.0276X0.0434*%
%ADD34R,0.0355X0.0434*%
%ADD35C,0.0394*%
%ADD36C,0.0380*%
%ADD37R,0.0316X0.0434*%
%ADD38R,0.0316X0.0276*%
%ADD39R,0.0290X0.0540*%
%ADD40C,0.0700*%
D10*
X001624Y000310D02*
X035178Y000310D01*
X035249Y000312D01*
X035320Y000318D01*
X035391Y000327D01*
X035460Y000341D01*
X035530Y000358D01*
X035598Y000379D01*
X035664Y000403D01*
X035730Y000431D01*
X035793Y000463D01*
X035855Y000498D01*
X035915Y000536D01*
X035973Y000578D01*
X036029Y000623D01*
X036082Y000670D01*
X036132Y000720D01*
X036179Y000773D01*
X036224Y000829D01*
X036266Y000887D01*
X036304Y000947D01*
X036339Y001009D01*
X036371Y001072D01*
X036399Y001138D01*
X036423Y001204D01*
X036444Y001272D01*
X036461Y001342D01*
X036475Y001411D01*
X036484Y001482D01*
X036490Y001553D01*
X036492Y001624D01*
X036492Y021261D01*
X034900Y021810D02*
X034902Y021859D01*
X034908Y021907D01*
X034918Y021955D01*
X034932Y022002D01*
X034949Y022048D01*
X034970Y022092D01*
X034995Y022134D01*
X035023Y022174D01*
X035055Y022212D01*
X035089Y022247D01*
X035126Y022279D01*
X035165Y022308D01*
X035207Y022334D01*
X035251Y022356D01*
X035296Y022374D01*
X035343Y022389D01*
X035390Y022400D01*
X035439Y022407D01*
X035488Y022410D01*
X035537Y022409D01*
X035585Y022404D01*
X035634Y022395D01*
X035681Y022382D01*
X035727Y022365D01*
X035771Y022345D01*
X035814Y022321D01*
X035855Y022294D01*
X035893Y022263D01*
X035929Y022230D01*
X035961Y022194D01*
X035991Y022155D01*
X036018Y022114D01*
X036041Y022070D01*
X036060Y022025D01*
X036076Y021979D01*
X036088Y021932D01*
X036096Y021883D01*
X036100Y021834D01*
X036100Y021786D01*
X036096Y021737D01*
X036088Y021688D01*
X036076Y021641D01*
X036060Y021595D01*
X036041Y021550D01*
X036018Y021506D01*
X035991Y021465D01*
X035961Y021426D01*
X035929Y021390D01*
X035893Y021357D01*
X035855Y021326D01*
X035814Y021299D01*
X035771Y021275D01*
X035727Y021255D01*
X035681Y021238D01*
X035634Y021225D01*
X035585Y021216D01*
X035537Y021211D01*
X035488Y021210D01*
X035439Y021213D01*
X035390Y021220D01*
X035343Y021231D01*
X035296Y021246D01*
X035251Y021264D01*
X035207Y021286D01*
X035165Y021312D01*
X035126Y021341D01*
X035089Y021373D01*
X035055Y021408D01*
X035023Y021446D01*
X034995Y021486D01*
X034970Y021528D01*
X034949Y021572D01*
X034932Y021618D01*
X034918Y021665D01*
X034908Y021713D01*
X034902Y021761D01*
X034900Y021810D01*
X035073Y022680D02*
X035147Y022678D01*
X035221Y022672D01*
X035295Y022663D01*
X035368Y022649D01*
X035440Y022632D01*
X035511Y022611D01*
X035582Y022586D01*
X035650Y022557D01*
X035717Y022525D01*
X035783Y022490D01*
X035846Y022451D01*
X035907Y022409D01*
X035966Y022364D01*
X036022Y022316D01*
X036076Y022264D01*
X036128Y022210D01*
X036176Y022154D01*
X036221Y022095D01*
X036263Y022034D01*
X036302Y021971D01*
X036337Y021905D01*
X036369Y021838D01*
X036398Y021770D01*
X036423Y021699D01*
X036444Y021628D01*
X036461Y021556D01*
X036475Y021483D01*
X036484Y021409D01*
X036490Y021335D01*
X036492Y021261D01*
X035073Y022680D02*
X001617Y022680D01*
X001552Y022678D01*
X001487Y022672D01*
X001423Y022663D01*
X001359Y022650D01*
X001297Y022633D01*
X001235Y022613D01*
X001175Y022589D01*
X001116Y022561D01*
X001059Y022530D01*
X001003Y022496D01*
X000950Y022459D01*
X000899Y022419D01*
X000850Y022375D01*
X000805Y022330D01*
X000761Y022281D01*
X000721Y022230D01*
X000684Y022177D01*
X000650Y022122D01*
X000619Y022064D01*
X000591Y022005D01*
X000567Y021945D01*
X000547Y021883D01*
X000530Y021821D01*
X000517Y021757D01*
X000508Y021693D01*
X000502Y021628D01*
X000500Y021563D01*
X000500Y001434D01*
X000502Y001369D01*
X000508Y001304D01*
X000517Y001239D01*
X000530Y001175D01*
X000547Y001112D01*
X000568Y001050D01*
X000592Y000989D01*
X000620Y000930D01*
X000651Y000872D01*
X000685Y000816D01*
X000722Y000763D01*
X000763Y000712D01*
X000806Y000663D01*
X000853Y000616D01*
X000902Y000573D01*
X000953Y000532D01*
X001006Y000495D01*
X001062Y000461D01*
X001120Y000430D01*
X001179Y000402D01*
X001240Y000378D01*
X001302Y000357D01*
X001365Y000340D01*
X001429Y000327D01*
X001494Y000318D01*
X001559Y000312D01*
X001624Y000310D01*
X006900Y001810D02*
X006902Y001859D01*
X006908Y001907D01*
X006918Y001955D01*
X006932Y002002D01*
X006949Y002048D01*
X006970Y002092D01*
X006995Y002134D01*
X007023Y002174D01*
X007055Y002212D01*
X007089Y002247D01*
X007126Y002279D01*
X007165Y002308D01*
X007207Y002334D01*
X007251Y002356D01*
X007296Y002374D01*
X007343Y002389D01*
X007390Y002400D01*
X007439Y002407D01*
X007488Y002410D01*
X007537Y002409D01*
X007585Y002404D01*
X007634Y002395D01*
X007681Y002382D01*
X007727Y002365D01*
X007771Y002345D01*
X007814Y002321D01*
X007855Y002294D01*
X007893Y002263D01*
X007929Y002230D01*
X007961Y002194D01*
X007991Y002155D01*
X008018Y002114D01*
X008041Y002070D01*
X008060Y002025D01*
X008076Y001979D01*
X008088Y001932D01*
X008096Y001883D01*
X008100Y001834D01*
X008100Y001786D01*
X008096Y001737D01*
X008088Y001688D01*
X008076Y001641D01*
X008060Y001595D01*
X008041Y001550D01*
X008018Y001506D01*
X007991Y001465D01*
X007961Y001426D01*
X007929Y001390D01*
X007893Y001357D01*
X007855Y001326D01*
X007814Y001299D01*
X007771Y001275D01*
X007727Y001255D01*
X007681Y001238D01*
X007634Y001225D01*
X007585Y001216D01*
X007537Y001211D01*
X007488Y001210D01*
X007439Y001213D01*
X007390Y001220D01*
X007343Y001231D01*
X007296Y001246D01*
X007251Y001264D01*
X007207Y001286D01*
X007165Y001312D01*
X007126Y001341D01*
X007089Y001373D01*
X007055Y001408D01*
X007023Y001446D01*
X006995Y001486D01*
X006970Y001528D01*
X006949Y001572D01*
X006932Y001618D01*
X006918Y001665D01*
X006908Y001713D01*
X006902Y001761D01*
X006900Y001810D01*
X001720Y009719D02*
X001722Y009746D01*
X001728Y009773D01*
X001737Y009799D01*
X001750Y009823D01*
X001766Y009846D01*
X001785Y009865D01*
X001807Y009882D01*
X001831Y009896D01*
X001856Y009906D01*
X001883Y009913D01*
X001910Y009916D01*
X001938Y009915D01*
X001965Y009910D01*
X001991Y009902D01*
X002015Y009890D01*
X002038Y009874D01*
X002059Y009856D01*
X002076Y009835D01*
X002091Y009811D01*
X002102Y009786D01*
X002110Y009760D01*
X002114Y009733D01*
X002114Y009705D01*
X002110Y009678D01*
X002102Y009652D01*
X002091Y009627D01*
X002076Y009603D01*
X002059Y009582D01*
X002038Y009564D01*
X002016Y009548D01*
X001991Y009536D01*
X001965Y009528D01*
X001938Y009523D01*
X001910Y009522D01*
X001883Y009525D01*
X001856Y009532D01*
X001831Y009542D01*
X001807Y009556D01*
X001785Y009573D01*
X001766Y009592D01*
X001750Y009615D01*
X001737Y009639D01*
X001728Y009665D01*
X001722Y009692D01*
X001720Y009719D01*
X001720Y010901D02*
X001722Y010928D01*
X001728Y010955D01*
X001737Y010981D01*
X001750Y011005D01*
X001766Y011028D01*
X001785Y011047D01*
X001807Y011064D01*
X001831Y011078D01*
X001856Y011088D01*
X001883Y011095D01*
X001910Y011098D01*
X001938Y011097D01*
X001965Y011092D01*
X001991Y011084D01*
X002015Y011072D01*
X002038Y011056D01*
X002059Y011038D01*
X002076Y011017D01*
X002091Y010993D01*
X002102Y010968D01*
X002110Y010942D01*
X002114Y010915D01*
X002114Y010887D01*
X002110Y010860D01*
X002102Y010834D01*
X002091Y010809D01*
X002076Y010785D01*
X002059Y010764D01*
X002038Y010746D01*
X002016Y010730D01*
X001991Y010718D01*
X001965Y010710D01*
X001938Y010705D01*
X001910Y010704D01*
X001883Y010707D01*
X001856Y010714D01*
X001831Y010724D01*
X001807Y010738D01*
X001785Y010755D01*
X001766Y010774D01*
X001750Y010797D01*
X001737Y010821D01*
X001728Y010847D01*
X001722Y010874D01*
X001720Y010901D01*
X000900Y021310D02*
X000902Y021359D01*
X000908Y021407D01*
X000918Y021455D01*
X000932Y021502D01*
X000949Y021548D01*
X000970Y021592D01*
X000995Y021634D01*
X001023Y021674D01*
X001055Y021712D01*
X001089Y021747D01*
X001126Y021779D01*
X001165Y021808D01*
X001207Y021834D01*
X001251Y021856D01*
X001296Y021874D01*
X001343Y021889D01*
X001390Y021900D01*
X001439Y021907D01*
X001488Y021910D01*
X001537Y021909D01*
X001585Y021904D01*
X001634Y021895D01*
X001681Y021882D01*
X001727Y021865D01*
X001771Y021845D01*
X001814Y021821D01*
X001855Y021794D01*
X001893Y021763D01*
X001929Y021730D01*
X001961Y021694D01*
X001991Y021655D01*
X002018Y021614D01*
X002041Y021570D01*
X002060Y021525D01*
X002076Y021479D01*
X002088Y021432D01*
X002096Y021383D01*
X002100Y021334D01*
X002100Y021286D01*
X002096Y021237D01*
X002088Y021188D01*
X002076Y021141D01*
X002060Y021095D01*
X002041Y021050D01*
X002018Y021006D01*
X001991Y020965D01*
X001961Y020926D01*
X001929Y020890D01*
X001893Y020857D01*
X001855Y020826D01*
X001814Y020799D01*
X001771Y020775D01*
X001727Y020755D01*
X001681Y020738D01*
X001634Y020725D01*
X001585Y020716D01*
X001537Y020711D01*
X001488Y020710D01*
X001439Y020713D01*
X001390Y020720D01*
X001343Y020731D01*
X001296Y020746D01*
X001251Y020764D01*
X001207Y020786D01*
X001165Y020812D01*
X001126Y020841D01*
X001089Y020873D01*
X001055Y020908D01*
X001023Y020946D01*
X000995Y020986D01*
X000970Y021028D01*
X000949Y021072D01*
X000932Y021118D01*
X000918Y021165D01*
X000908Y021213D01*
X000902Y021261D01*
X000900Y021310D01*
X024457Y011776D02*
X024459Y011801D01*
X024465Y011825D01*
X024474Y011847D01*
X024487Y011868D01*
X024503Y011887D01*
X024522Y011903D01*
X024543Y011916D01*
X024565Y011925D01*
X024589Y011931D01*
X024614Y011933D01*
X024639Y011931D01*
X024663Y011925D01*
X024685Y011916D01*
X024706Y011903D01*
X024725Y011887D01*
X024741Y011868D01*
X024754Y011847D01*
X024763Y011825D01*
X024769Y011801D01*
X024771Y011776D01*
X024769Y011751D01*
X024763Y011727D01*
X024754Y011705D01*
X024741Y011684D01*
X024725Y011665D01*
X024706Y011649D01*
X024685Y011636D01*
X024663Y011627D01*
X024639Y011621D01*
X024614Y011619D01*
X024589Y011621D01*
X024565Y011627D01*
X024543Y011636D01*
X024522Y011649D01*
X024503Y011665D01*
X024487Y011684D01*
X024474Y011705D01*
X024465Y011727D01*
X024459Y011751D01*
X024457Y011776D01*
X026877Y014196D02*
X026879Y014221D01*
X026885Y014245D01*
X026894Y014267D01*
X026907Y014288D01*
X026923Y014307D01*
X026942Y014323D01*
X026963Y014336D01*
X026985Y014345D01*
X027009Y014351D01*
X027034Y014353D01*
X027059Y014351D01*
X027083Y014345D01*
X027105Y014336D01*
X027126Y014323D01*
X027145Y014307D01*
X027161Y014288D01*
X027174Y014267D01*
X027183Y014245D01*
X027189Y014221D01*
X027191Y014196D01*
X027189Y014171D01*
X027183Y014147D01*
X027174Y014125D01*
X027161Y014104D01*
X027145Y014085D01*
X027126Y014069D01*
X027105Y014056D01*
X027083Y014047D01*
X027059Y014041D01*
X027034Y014039D01*
X027009Y014041D01*
X026985Y014047D01*
X026963Y014056D01*
X026942Y014069D01*
X026923Y014085D01*
X026907Y014104D01*
X026894Y014125D01*
X026885Y014147D01*
X026879Y014171D01*
X026877Y014196D01*
X035823Y014219D02*
X035825Y014245D01*
X035831Y014271D01*
X035841Y014296D01*
X035854Y014319D01*
X035870Y014339D01*
X035890Y014357D01*
X035912Y014372D01*
X035935Y014384D01*
X035961Y014392D01*
X035987Y014396D01*
X036013Y014396D01*
X036039Y014392D01*
X036065Y014384D01*
X036089Y014372D01*
X036110Y014357D01*
X036130Y014339D01*
X036146Y014319D01*
X036159Y014296D01*
X036169Y014271D01*
X036175Y014245D01*
X036177Y014219D01*
X036175Y014193D01*
X036169Y014167D01*
X036159Y014142D01*
X036146Y014119D01*
X036130Y014099D01*
X036110Y014081D01*
X036088Y014066D01*
X036065Y014054D01*
X036039Y014046D01*
X036013Y014042D01*
X035987Y014042D01*
X035961Y014046D01*
X035935Y014054D01*
X035911Y014066D01*
X035890Y014081D01*
X035870Y014099D01*
X035854Y014119D01*
X035841Y014142D01*
X035831Y014167D01*
X035825Y014193D01*
X035823Y014219D01*
X035823Y015401D02*
X035825Y015427D01*
X035831Y015453D01*
X035841Y015478D01*
X035854Y015501D01*
X035870Y015521D01*
X035890Y015539D01*
X035912Y015554D01*
X035935Y015566D01*
X035961Y015574D01*
X035987Y015578D01*
X036013Y015578D01*
X036039Y015574D01*
X036065Y015566D01*
X036089Y015554D01*
X036110Y015539D01*
X036130Y015521D01*
X036146Y015501D01*
X036159Y015478D01*
X036169Y015453D01*
X036175Y015427D01*
X036177Y015401D01*
X036175Y015375D01*
X036169Y015349D01*
X036159Y015324D01*
X036146Y015301D01*
X036130Y015281D01*
X036110Y015263D01*
X036088Y015248D01*
X036065Y015236D01*
X036039Y015228D01*
X036013Y015224D01*
X035987Y015224D01*
X035961Y015228D01*
X035935Y015236D01*
X035911Y015248D01*
X035890Y015263D01*
X035870Y015281D01*
X035854Y015301D01*
X035841Y015324D01*
X035831Y015349D01*
X035825Y015375D01*
X035823Y015401D01*
X034900Y001810D02*
X034902Y001859D01*
X034908Y001907D01*
X034918Y001955D01*
X034932Y002002D01*
X034949Y002048D01*
X034970Y002092D01*
X034995Y002134D01*
X035023Y002174D01*
X035055Y002212D01*
X035089Y002247D01*
X035126Y002279D01*
X035165Y002308D01*
X035207Y002334D01*
X035251Y002356D01*
X035296Y002374D01*
X035343Y002389D01*
X035390Y002400D01*
X035439Y002407D01*
X035488Y002410D01*
X035537Y002409D01*
X035585Y002404D01*
X035634Y002395D01*
X035681Y002382D01*
X035727Y002365D01*
X035771Y002345D01*
X035814Y002321D01*
X035855Y002294D01*
X035893Y002263D01*
X035929Y002230D01*
X035961Y002194D01*
X035991Y002155D01*
X036018Y002114D01*
X036041Y002070D01*
X036060Y002025D01*
X036076Y001979D01*
X036088Y001932D01*
X036096Y001883D01*
X036100Y001834D01*
X036100Y001786D01*
X036096Y001737D01*
X036088Y001688D01*
X036076Y001641D01*
X036060Y001595D01*
X036041Y001550D01*
X036018Y001506D01*
X035991Y001465D01*
X035961Y001426D01*
X035929Y001390D01*
X035893Y001357D01*
X035855Y001326D01*
X035814Y001299D01*
X035771Y001275D01*
X035727Y001255D01*
X035681Y001238D01*
X035634Y001225D01*
X035585Y001216D01*
X035537Y001211D01*
X035488Y001210D01*
X035439Y001213D01*
X035390Y001220D01*
X035343Y001231D01*
X035296Y001246D01*
X035251Y001264D01*
X035207Y001286D01*
X035165Y001312D01*
X035126Y001341D01*
X035089Y001373D01*
X035055Y001408D01*
X035023Y001446D01*
X034995Y001486D01*
X034970Y001528D01*
X034949Y001572D01*
X034932Y001618D01*
X034918Y001665D01*
X034908Y001713D01*
X034902Y001761D01*
X034900Y001810D01*
D11*
X001917Y009719D03*
X001917Y010901D03*
D12*
X018500Y007310D03*
X020500Y003310D03*
X022000Y011310D03*
D13*
X017000Y001310D03*
D14*
X018000Y001310D03*
X019000Y001310D03*
X020000Y001310D03*
X021000Y001310D03*
X022000Y001310D03*
D15*
X018500Y004810D03*
D16*
X033713Y009208D03*
X033713Y009523D03*
X033713Y009838D03*
X033713Y010153D03*
X033713Y010467D03*
D17*
X033634Y011845D03*
X035406Y011845D03*
X035406Y007830D03*
X033634Y007830D03*
D18*
X026496Y020338D03*
X026220Y020338D03*
X025945Y020338D03*
X025669Y020338D03*
X025394Y020338D03*
X025118Y020338D03*
X024843Y020338D03*
X024567Y020338D03*
X024291Y020338D03*
X024016Y020338D03*
X023740Y020338D03*
X023465Y020338D03*
X023189Y020338D03*
X022913Y020338D03*
X022638Y020338D03*
X022362Y020338D03*
X022087Y020338D03*
X021811Y020338D03*
X021535Y020338D03*
X021260Y020338D03*
X020984Y020338D03*
X020709Y020338D03*
X020433Y020338D03*
X020157Y020338D03*
X019882Y020338D03*
X019606Y020338D03*
X019331Y020338D03*
X019055Y020338D03*
X018780Y020338D03*
X018504Y020338D03*
D19*
X018854Y018310D03*
X019346Y018310D03*
X020054Y018310D03*
X018146Y018310D03*
D20*
X021000Y018456D03*
X021000Y019164D03*
X025500Y017164D03*
X025500Y016456D03*
X026000Y017956D03*
X026000Y018664D03*
D21*
X023500Y018310D03*
D22*
X023800Y018310D03*
X023200Y018310D03*
D23*
X024465Y018410D03*
X025135Y018410D03*
D24*
X014678Y020822D02*
X014078Y020822D01*
X011922Y020822D02*
X011322Y020822D01*
X010178Y020822D02*
X009578Y020822D01*
X007422Y020822D02*
X006822Y020822D01*
X006178Y020798D02*
X005578Y020798D01*
X003422Y020798D02*
X002822Y020798D01*
D25*
X032500Y003310D03*
D26*
X029400Y003310D03*
X035600Y003310D03*
D27*
X025500Y011810D03*
X025500Y014810D03*
D28*
X027034Y014196D03*
X024614Y011776D03*
D29*
X035500Y021810D03*
X035500Y001810D03*
X007500Y001810D03*
X001500Y021310D03*
D30*
X033500Y018046D03*
X033500Y017574D03*
D31*
X035500Y018310D03*
X029500Y018810D03*
D32*
X035311Y015696D03*
X035311Y014515D03*
X035311Y013924D03*
D33*
X036394Y013373D03*
X036394Y016247D03*
D34*
X035567Y016247D03*
X035567Y013373D03*
D35*
X036000Y014219D03*
X036000Y015401D03*
D36*
X033500Y020310D03*
D37*
X032106Y009515D03*
D38*
X032894Y009436D03*
X032894Y010184D03*
X032106Y010184D03*
D39*
X028900Y007310D03*
X027950Y007060D03*
X029500Y013310D03*
D40*
X029000Y001310D03*
X028000Y001310D03*
X027000Y001310D03*
X026000Y001310D03*
X025000Y001310D03*
X024000Y001310D03*
X030000Y001310D03*
M02*
