G75*
G70*
%OFA0B0*%
%FSLAX24Y24*%
%IPPOS*%
%LPD*%
%AMOC8*
5,1,8,0,0,1.08239X$1,22.5*
%
%ADD10R,0.0866X0.0236*%
%ADD11R,0.0630X0.0709*%
%ADD12R,0.0709X0.0630*%
%ADD13R,0.1004X0.1063*%
%ADD14R,0.0800X0.0260*%
%ADD15R,0.0846X0.2480*%
%ADD16R,0.0850X0.1080*%
%ADD17R,0.0358X0.0480*%
D10*
X009743Y004982D03*
X009743Y005482D03*
X009743Y005982D03*
X009743Y006482D03*
X009743Y006982D03*
X009743Y007482D03*
X009743Y007982D03*
X009743Y008482D03*
X013365Y008482D03*
X013365Y007982D03*
X013365Y007482D03*
X013365Y006982D03*
X013365Y006482D03*
X013365Y005982D03*
X013365Y005482D03*
X013365Y004982D03*
D11*
X014753Y005482D03*
X015855Y005482D03*
X015855Y006732D03*
X014753Y006732D03*
X014753Y007982D03*
X015855Y007982D03*
X015605Y009232D03*
X014503Y009232D03*
X008355Y008232D03*
X007253Y008232D03*
X007253Y006982D03*
X007253Y005982D03*
X008355Y005982D03*
X008355Y006982D03*
X008355Y004732D03*
X007253Y004732D03*
X014753Y004232D03*
X015855Y004232D03*
D12*
X006679Y001306D03*
X006679Y002408D03*
X015304Y002408D03*
X015304Y001306D03*
X015804Y013431D03*
X015804Y014533D03*
X011304Y014533D03*
X011304Y013431D03*
D13*
X010052Y015232D03*
X007556Y015232D03*
X015556Y011232D03*
X018052Y011232D03*
D14*
X014764Y012982D03*
X014764Y013482D03*
X014764Y013982D03*
X014764Y014482D03*
X012344Y014482D03*
X012344Y013982D03*
X012344Y013482D03*
X012344Y012982D03*
D15*
X012237Y011232D03*
X013871Y011232D03*
D16*
X010924Y012482D03*
X009184Y012482D03*
D17*
X012910Y015232D03*
X014198Y015232D03*
M02*
