%FSLAX25Y25*%
%MOIN*%
G70*
G01*
G75*
%ADD10C,0.01200*%
%ADD11R,0.03150X0.05512*%
G04:AMPARAMS|DCode=12|XSize=78.74mil|YSize=149.61mil|CornerRadius=0mil|HoleSize=0mil|Usage=FLASHONLY|Rotation=0.000|XOffset=0mil|YOffset=0mil|HoleType=Round|Shape=Octagon|*
%AMOCTAGOND12*
4,1,8,-0.01969,0.07480,0.01969,0.07480,0.03937,0.05512,0.03937,-0.05512,0.01969,-0.07480,-0.01969,-0.07480,-0.03937,-0.05512,-0.03937,0.05512,-0.01969,0.07480,0.0*
%
%ADD12OCTAGOND12*%

%ADD13R,0.03937X0.07299*%
%ADD14R,0.03600X0.05000*%
%ADD15R,0.03600X0.03600*%
%ADD16O,0.02400X0.08000*%
%ADD17R,0.13000X0.07000*%
%ADD18R,0.01600X0.07500*%
%ADD19R,0.07500X0.01600*%
%ADD20O,0.01600X0.10000*%
%ADD21O,0.10000X0.01600*%
%ADD22R,0.10000X0.08000*%
%ADD23R,0.10000X0.09000*%
%ADD24R,0.06000X0.06000*%
%ADD25R,0.06000X0.06000*%
%ADD26C,0.02800*%
%ADD27C,0.01600*%
%ADD28C,0.02400*%
%ADD29C,0.01400*%
%ADD30C,0.01000*%
%ADD31C,0.00800*%
%ADD32C,0.20000*%
%ADD33O,0.07000X0.08500*%
%ADD34C,0.07000*%
%ADD35R,0.07000X0.07000*%
%ADD36C,0.08000*%
%ADD37C,0.06200*%
%ADD38R,0.06200X0.06200*%
%ADD39O,0.07000X0.06000*%
%ADD40R,0.07000X0.06000*%
%ADD41C,0.05000*%
%ADD42C,0.00787*%
D10*
X3006000Y562000D02*
X3068000D01*
X3006000Y508000D02*
Y562000D01*
Y508000D02*
X3068000D01*
Y562000D01*
X3159500Y514000D02*
Y518500D01*
X3148000Y514000D02*
Y518500D01*
X3157500D02*
X3159500D01*
X3153500Y509500D02*
X3154000D01*
X3148000Y518500D02*
X3150000D01*
X3126500Y549500D02*
X3128500Y547500D01*
X3111500D02*
X3113500Y549500D01*
X3111500Y523500D02*
Y532000D01*
X3128500Y523500D02*
Y532000D01*
X3113500Y549500D02*
X3126500D01*
X3111500Y523500D02*
X3128500D01*
X3111500Y540500D02*
Y547500D01*
X3128500Y540500D02*
Y547500D01*
X3321500Y461000D02*
Y476000D01*
X3286500Y461000D02*
X3321500D01*
X3286500D02*
Y476000D01*
X3321500D01*
X3279500Y424000D02*
X3281500Y426000D01*
X3279500Y378000D02*
Y383000D01*
X3326500Y379000D02*
Y383000D01*
Y421000D02*
Y426000D01*
X3279500Y421000D02*
Y424000D01*
Y378000D02*
X3283500D01*
X3321500Y379000D02*
X3326500D01*
X3321500Y426000D02*
X3326500D01*
X3281500D02*
X3284000D01*
X3247000Y437000D02*
X3257000D01*
Y447000D01*
X3267000Y417000D02*
Y447000D01*
X3247000Y417000D02*
X3267000D01*
X3247000D02*
Y447000D01*
X3267000D01*
X3095000Y525000D02*
Y532500D01*
X3109000Y525000D02*
Y532500D01*
Y541000D02*
Y548500D01*
X3095000Y541000D02*
Y548500D01*
Y525000D02*
X3109000D01*
X3095000Y548500D02*
X3109000D01*
X3389000Y568500D02*
Y578500D01*
X3365500Y568500D02*
Y578500D01*
X3381500D02*
X3389000D01*
X3381500Y568500D02*
X3389000D01*
X3365500D02*
X3373000D01*
X3365500Y578500D02*
X3373000D01*
X3243000Y390500D02*
X3258000D01*
Y355500D02*
Y390500D01*
X3243000Y355500D02*
X3258000D01*
X3243000D02*
Y390500D01*
X3135500Y509000D02*
X3143000D01*
X3135500Y519000D02*
X3143000D01*
X3119500D02*
X3127000D01*
X3119500Y509000D02*
X3127000D01*
X3143000D02*
Y519000D01*
X3119500Y509000D02*
Y519000D01*
X3157500Y495000D02*
X3165000D01*
X3157500Y505000D02*
X3165000D01*
X3141500D02*
X3149000D01*
X3141500Y495000D02*
X3149000D01*
X3165000D02*
Y505000D01*
X3141500Y495000D02*
Y505000D01*
X3157500Y481000D02*
X3165000D01*
X3157500Y491000D02*
X3165000D01*
X3141500D02*
X3149000D01*
X3141500Y481000D02*
X3149000D01*
X3165000D02*
Y491000D01*
X3141500Y481000D02*
Y491000D01*
X3240000Y437500D02*
Y445000D01*
X3230000Y437500D02*
Y445000D01*
Y421500D02*
Y429000D01*
X3240000Y421500D02*
Y429000D01*
X3230000Y445000D02*
X3240000D01*
X3230000Y421500D02*
X3240000D01*
X3331000Y539500D02*
Y547000D01*
X3341000Y539500D02*
Y547000D01*
Y555500D02*
Y563000D01*
X3331000Y555500D02*
Y563000D01*
Y539500D02*
X3341000D01*
X3331000Y563000D02*
X3341000D01*
X3343000Y539500D02*
Y547000D01*
X3353000Y539500D02*
Y547000D01*
Y555500D02*
Y563000D01*
X3343000Y555500D02*
Y563000D01*
Y539500D02*
X3353000D01*
X3343000Y563000D02*
X3353000D01*
X3298000Y477500D02*
Y487500D01*
X3321500Y477500D02*
Y487500D01*
X3298000Y477500D02*
X3305500D01*
X3298000Y487500D02*
X3305500D01*
X3314000D02*
X3321500D01*
X3314000Y477500D02*
X3321500D01*
X3240000Y553000D02*
Y560500D01*
X3230000Y553000D02*
Y560500D01*
Y537000D02*
Y544500D01*
X3240000Y537000D02*
Y544500D01*
X3230000Y560500D02*
X3240000D01*
X3230000Y537000D02*
X3240000D01*
X3252000Y553000D02*
Y560500D01*
X3242000Y553000D02*
Y560500D01*
Y537000D02*
Y544500D01*
X3252000Y537000D02*
Y544500D01*
X3242000Y560500D02*
X3252000D01*
X3242000Y537000D02*
X3252000D01*
X3254000Y536500D02*
Y544000D01*
X3264000Y536500D02*
Y544000D01*
Y552500D02*
Y560000D01*
X3254000Y552500D02*
Y560000D01*
Y536500D02*
X3264000D01*
X3254000Y560000D02*
X3264000D01*
X3305000Y511500D02*
X3312500D01*
X3305000Y501500D02*
X3312500D01*
X3321000D02*
X3328500D01*
X3321000Y511500D02*
X3328500D01*
X3305000Y501500D02*
Y511500D01*
X3328500Y501500D02*
Y511500D01*
X3139000Y497500D02*
Y505000D01*
X3129000Y497500D02*
Y505000D01*
Y481500D02*
Y489000D01*
X3139000Y481500D02*
Y489000D01*
X3129000Y505000D02*
X3139000D01*
X3129000Y481500D02*
X3139000D01*
X3333500Y351000D02*
X3341000D01*
X3333500Y361000D02*
X3341000D01*
X3317500D02*
X3325000D01*
X3317500Y351000D02*
X3325000D01*
X3341000D02*
Y361000D01*
X3317500Y351000D02*
Y361000D01*
X3224500Y437500D02*
Y445000D01*
X3214500Y437500D02*
Y445000D01*
Y421500D02*
Y429000D01*
X3224500Y421500D02*
Y429000D01*
X3214500Y445000D02*
X3224500D01*
X3214500Y421500D02*
X3224500D01*
X3314000Y459000D02*
X3321500D01*
X3314000Y449000D02*
X3321500D01*
X3330000D02*
X3337500D01*
X3330000Y459000D02*
X3337500D01*
X3314000Y449000D02*
Y459000D01*
X3337500Y449000D02*
Y459000D01*
X3274500Y562500D02*
X3282000D01*
X3274500Y572500D02*
X3282000D01*
X3258500D02*
X3266000D01*
X3258500Y562500D02*
X3266000D01*
X3282000D02*
Y572500D01*
X3258500Y562500D02*
Y572500D01*
X3196000Y503000D02*
Y510500D01*
X3186000Y503000D02*
Y510500D01*
Y487000D02*
Y494500D01*
X3196000Y487000D02*
Y494500D01*
X3186000Y510500D02*
X3196000D01*
X3186000Y487000D02*
X3196000D01*
X3231000Y378500D02*
Y386000D01*
X3241000Y378500D02*
Y386000D01*
Y394500D02*
Y402000D01*
X3231000Y394500D02*
Y402000D01*
Y378500D02*
X3241000D01*
X3231000Y402000D02*
X3241000D01*
X3219500Y378500D02*
Y386000D01*
X3229500Y378500D02*
Y386000D01*
Y394500D02*
Y402000D01*
X3219500Y394500D02*
Y402000D01*
Y378500D02*
X3229500D01*
X3219500Y402000D02*
X3229500D01*
X3093000Y541500D02*
Y549000D01*
X3083000Y541500D02*
Y549000D01*
Y525500D02*
Y533000D01*
X3093000Y525500D02*
Y533000D01*
X3083000Y549000D02*
X3093000D01*
X3083000Y525500D02*
X3093000D01*
X3214500Y500500D02*
Y508000D01*
X3224500Y500500D02*
Y508000D01*
Y516500D02*
Y524000D01*
X3214500Y516500D02*
Y524000D01*
Y500500D02*
X3224500D01*
X3214500Y524000D02*
X3224500D01*
X3289000Y459000D02*
X3296500D01*
X3289000Y449000D02*
X3296500D01*
X3305000D02*
X3312500D01*
X3305000Y459000D02*
X3312500D01*
X3289000Y449000D02*
Y459000D01*
X3312500Y449000D02*
Y459000D01*
X3333000Y477000D02*
Y484500D01*
X3323000Y477000D02*
Y484500D01*
Y461000D02*
Y468500D01*
X3333000Y461000D02*
Y468500D01*
X3323000Y484500D02*
X3333000D01*
X3323000Y461000D02*
X3333000D01*
X3266000Y536500D02*
Y544000D01*
X3276000Y536500D02*
Y544000D01*
Y552500D02*
Y560000D01*
X3266000Y552500D02*
Y560000D01*
Y536500D02*
X3276000D01*
X3266000Y560000D02*
X3276000D01*
X3305000Y499500D02*
X3312500D01*
X3305000Y489500D02*
X3312500D01*
X3321000D02*
X3328500D01*
X3321000Y499500D02*
X3328500D01*
X3305000Y489500D02*
Y499500D01*
X3328500Y489500D02*
Y499500D01*
X3165500Y534500D02*
Y541500D01*
X3182500Y534500D02*
Y541500D01*
X3165500Y558500D02*
X3182500D01*
X3167500Y532500D02*
X3180500D01*
X3165500Y550000D02*
Y558500D01*
X3182500Y550000D02*
Y558500D01*
X3180500Y532500D02*
X3182500Y534500D01*
X3165500D02*
X3167500Y532500D01*
D27*
X3022003Y545000D02*
X3028667D01*
X3030000Y543667D01*
Y541001D01*
X3028667Y539668D01*
X3022003D01*
X3023335Y531671D02*
X3022003Y533004D01*
Y535670D01*
X3023335Y537003D01*
X3024668D01*
X3026001Y535670D01*
Y533004D01*
X3027334Y531671D01*
X3028667D01*
X3030000Y533004D01*
Y535670D01*
X3028667Y537003D01*
X3022003Y529005D02*
X3030000D01*
Y525006D01*
X3028667Y523674D01*
X3027334D01*
X3026001Y525006D01*
Y529005D01*
Y525006D01*
X3024668Y523674D01*
X3023335D01*
X3022003Y525006D01*
Y529005D01*
X3450835Y479668D02*
X3449503Y481001D01*
Y483667D01*
X3450835Y485000D01*
X3456167D01*
X3457500Y483667D01*
Y481001D01*
X3456167Y479668D01*
X3453501D01*
Y482334D01*
X3457500Y477003D02*
X3449503D01*
Y473004D01*
X3450835Y471671D01*
X3453501D01*
X3454834Y473004D01*
Y477003D01*
X3449503Y469005D02*
Y466339D01*
Y467672D01*
X3457500D01*
Y469005D01*
Y466339D01*
X3449503Y462341D02*
X3457500D01*
Y458342D01*
X3456167Y457009D01*
X3454834D01*
X3453501Y458342D01*
Y462341D01*
Y458342D01*
X3452168Y457009D01*
X3450835D01*
X3449503Y458342D01*
Y462341D01*
D30*
X3309500Y551000D02*
G03*
X3309500Y556000I0J2500D01*
G01*
X3110856Y484679D02*
G03*
X3085144Y484679I-12856J15321D01*
G01*
X3381500Y355000D02*
G03*
X3376500Y355000I-2500J0D01*
G01*
X3381500Y465000D02*
G03*
X3376500Y465000I-2500J0D01*
G01*
X3309500Y548500D02*
Y551000D01*
Y556000D02*
Y558500D01*
X3329500D01*
Y548500D02*
Y558500D01*
X3309500Y548500D02*
X3329500D01*
X3246000Y522900D02*
X3252900D01*
X3246000Y516000D02*
Y522900D01*
Y480900D02*
X3252900D01*
X3246000D02*
Y487800D01*
X3281100Y480900D02*
X3288000D01*
Y487800D01*
Y516000D02*
Y519300D01*
X3284400Y522900D02*
X3288000Y519300D01*
X3281100Y522900D02*
X3284400D01*
X3085000Y484500D02*
X3110712D01*
X3389000Y355000D02*
Y455000D01*
X3369000D02*
X3389000D01*
X3369000Y355000D02*
Y455000D01*
Y355000D02*
X3376500D01*
X3381500D02*
X3389000D01*
X3381500Y465000D02*
X3389000D01*
X3369000D02*
X3376500D01*
X3369000D02*
Y565000D01*
X3389000D01*
Y465000D02*
Y565000D01*
X3024332Y569998D02*
X3022666D01*
X3023499D01*
Y565833D01*
X3022666Y565000D01*
X3021833D01*
X3021000Y565833D01*
X3025998Y565000D02*
X3027665D01*
X3026831D01*
Y569998D01*
X3025998Y569165D01*
X3148032Y553133D02*
Y556465D01*
X3147199Y557298D01*
X3145533D01*
X3144700Y556465D01*
Y553133D01*
X3145533Y552300D01*
X3147199D01*
X3146366Y553966D02*
X3148032Y552300D01*
X3147199D02*
X3148032Y553133D01*
X3153031Y552300D02*
X3149698D01*
X3153031Y555632D01*
Y556465D01*
X3152198Y557298D01*
X3150531D01*
X3149698Y556465D01*
X3165332Y509333D02*
Y512665D01*
X3164499Y513498D01*
X3162833D01*
X3162000Y512665D01*
Y509333D01*
X3162833Y508500D01*
X3164499D01*
X3163666Y510166D02*
X3165332Y508500D01*
X3164499D02*
X3165332Y509333D01*
X3166998Y512665D02*
X3167831Y513498D01*
X3169498D01*
X3170331Y512665D01*
Y511832D01*
X3169498Y510999D01*
X3168665D01*
X3169498D01*
X3170331Y510166D01*
Y509333D01*
X3169498Y508500D01*
X3167831D01*
X3166998Y509333D01*
X3310000Y576498D02*
X3311666D01*
X3310833D01*
Y571500D01*
X3310000D01*
X3311666D01*
X3317498Y575665D02*
X3316665Y576498D01*
X3314998D01*
X3314165Y575665D01*
Y572333D01*
X3314998Y571500D01*
X3316665D01*
X3317498Y572333D01*
X3322496Y571500D02*
X3319164D01*
X3322496Y574832D01*
Y575665D01*
X3321663Y576498D01*
X3319997D01*
X3319164Y575665D01*
X3120335Y554832D02*
X3119502Y553999D01*
Y552333D01*
X3120335Y551500D01*
X3123667D01*
X3124500Y552333D01*
Y553999D01*
X3123667Y554832D01*
X3124500Y556498D02*
Y558165D01*
Y557331D01*
X3119502D01*
X3120335Y556498D01*
X3419332Y582998D02*
X3417666D01*
X3418499D01*
Y578833D01*
X3417666Y578000D01*
X3416833D01*
X3416000Y578833D01*
X3424331Y578000D02*
X3420998D01*
X3424331Y581332D01*
Y582165D01*
X3423498Y582998D01*
X3421832D01*
X3420998Y582165D01*
X3274000Y470498D02*
X3277332Y465500D01*
Y470498D02*
X3274000Y465500D01*
X3278999D02*
X3280664D01*
X3279831D01*
Y470498D01*
X3278999Y469665D01*
X3277800Y436398D02*
X3279466D01*
X3278633D01*
Y431400D01*
X3277800D01*
X3279466D01*
X3285298Y435565D02*
X3284465Y436398D01*
X3282798D01*
X3281965Y435565D01*
Y432233D01*
X3282798Y431400D01*
X3284465D01*
X3285298Y432233D01*
X3286964Y435565D02*
X3287797Y436398D01*
X3289463D01*
X3290296Y435565D01*
Y434732D01*
X3289463Y433899D01*
X3288630D01*
X3289463D01*
X3290296Y433066D01*
Y432233D01*
X3289463Y431400D01*
X3287797D01*
X3286964Y432233D01*
X3244400Y533498D02*
X3246066D01*
X3245233D01*
Y528500D01*
X3244400D01*
X3246066D01*
X3251897Y532665D02*
X3251065Y533498D01*
X3249398D01*
X3248565Y532665D01*
Y529333D01*
X3249398Y528500D01*
X3251065D01*
X3251897Y529333D01*
X3253564Y528500D02*
X3255230D01*
X3254397D01*
Y533498D01*
X3253564Y532665D01*
X3068500Y492498D02*
Y487500D01*
X3070999D01*
X3071832Y488333D01*
Y491665D01*
X3070999Y492498D01*
X3068500D01*
X3073498Y487500D02*
X3075164D01*
X3074331D01*
Y492498D01*
X3073498Y491665D01*
X3250732Y454765D02*
X3249899Y455598D01*
X3248233D01*
X3247400Y454765D01*
Y451433D01*
X3248233Y450600D01*
X3249899D01*
X3250732Y451433D01*
X3252398Y450600D02*
Y455598D01*
X3255730Y450600D01*
Y455598D01*
X3257397Y450600D02*
X3259063D01*
X3258230D01*
Y455598D01*
X3257397Y454765D01*
X3361500Y463498D02*
X3363166D01*
X3362333D01*
Y458500D01*
X3361500D01*
X3363166D01*
X3368998Y462665D02*
X3368164Y463498D01*
X3366499D01*
X3365665Y462665D01*
Y459333D01*
X3366499Y458500D01*
X3368164D01*
X3368998Y459333D01*
X3373996Y463498D02*
X3370664D01*
Y460999D01*
X3372330Y461832D01*
X3373163D01*
X3373996Y460999D01*
Y459333D01*
X3373163Y458500D01*
X3371497D01*
X3370664Y459333D01*
X3361500Y573498D02*
X3363166D01*
X3362333D01*
Y568500D01*
X3361500D01*
X3363166D01*
X3368998Y572665D02*
X3368164Y573498D01*
X3366499D01*
X3365665Y572665D01*
Y569333D01*
X3366499Y568500D01*
X3368164D01*
X3368998Y569333D01*
X3373163Y568500D02*
Y573498D01*
X3370664Y570999D01*
X3373996D01*
X3101002Y551500D02*
X3106000D01*
Y554832D01*
Y556498D02*
Y558165D01*
Y557331D01*
X3101002D01*
X3101835Y556498D01*
X3243400Y399098D02*
X3246732Y394100D01*
Y399098D02*
X3243400Y394100D01*
X3251731D02*
X3248399D01*
X3251731Y397432D01*
Y398265D01*
X3250898Y399098D01*
X3249231D01*
X3248399Y398265D01*
X3130000Y521500D02*
Y526498D01*
X3132499D01*
X3133332Y525665D01*
Y523999D01*
X3132499Y523166D01*
X3130000D01*
X3131666D02*
X3133332Y521500D01*
X3134998D02*
X3136665D01*
X3135831D01*
Y526498D01*
X3134998Y525665D01*
X3139164Y522333D02*
X3139997Y521500D01*
X3141663D01*
X3142496Y522333D01*
Y525665D01*
X3141663Y526498D01*
X3139997D01*
X3139164Y525665D01*
Y524832D01*
X3139997Y523999D01*
X3142496D01*
X3167000Y492500D02*
Y497498D01*
X3169499D01*
X3170332Y496665D01*
Y494999D01*
X3169499Y494166D01*
X3167000D01*
X3168666D02*
X3170332Y492500D01*
X3171998D02*
X3173664D01*
X3172831D01*
Y497498D01*
X3171998Y496665D01*
X3176164D02*
X3176997Y497498D01*
X3178663D01*
X3179496Y496665D01*
Y495832D01*
X3178663Y494999D01*
X3179496Y494166D01*
Y493333D01*
X3178663Y492500D01*
X3176997D01*
X3176164Y493333D01*
Y494166D01*
X3176997Y494999D01*
X3176164Y495832D01*
Y496665D01*
X3176997Y494999D02*
X3178663D01*
X3167500Y481500D02*
Y486498D01*
X3169999D01*
X3170832Y485665D01*
Y483999D01*
X3169999Y483166D01*
X3167500D01*
X3169166D02*
X3170832Y481500D01*
X3172498D02*
X3174165D01*
X3173331D01*
Y486498D01*
X3172498Y485665D01*
X3176664Y486498D02*
X3179996D01*
Y485665D01*
X3176664Y482333D01*
Y481500D01*
X3232000Y448500D02*
X3227002D01*
Y450999D01*
X3227835Y451832D01*
X3229501D01*
X3230334Y450999D01*
Y448500D01*
Y450166D02*
X3232000Y451832D01*
Y453498D02*
Y455164D01*
Y454331D01*
X3227002D01*
X3227835Y453498D01*
X3227002Y460996D02*
Y457664D01*
X3229501D01*
X3228668Y459330D01*
Y460163D01*
X3229501Y460996D01*
X3231167D01*
X3232000Y460163D01*
Y458497D01*
X3231167Y457664D01*
X3339000Y565000D02*
X3334002D01*
Y567499D01*
X3334835Y568332D01*
X3336501D01*
X3337334Y567499D01*
Y565000D01*
Y566666D02*
X3339000Y568332D01*
Y569998D02*
Y571664D01*
Y570831D01*
X3334002D01*
X3334835Y569998D01*
Y574164D02*
X3334002Y574997D01*
Y576663D01*
X3334835Y577496D01*
X3335668D01*
X3336501Y576663D01*
Y575830D01*
Y576663D01*
X3337334Y577496D01*
X3338167D01*
X3339000Y576663D01*
Y574997D01*
X3338167Y574164D01*
X3351000Y565000D02*
X3346001D01*
Y567499D01*
X3346835Y568332D01*
X3348501D01*
X3349334Y567499D01*
Y565000D01*
Y566666D02*
X3351000Y568332D01*
Y569998D02*
Y571664D01*
Y570831D01*
X3346001D01*
X3346835Y569998D01*
X3351000Y577496D02*
Y574164D01*
X3347668Y577496D01*
X3346835D01*
X3346001Y576663D01*
Y574997D01*
X3346835Y574164D01*
X3339500Y479500D02*
Y484498D01*
X3341999D01*
X3342832Y483665D01*
Y481999D01*
X3341999Y481166D01*
X3339500D01*
X3341166D02*
X3342832Y479500D01*
X3347831Y484498D02*
X3346164Y483665D01*
X3344498Y481999D01*
Y480333D01*
X3345332Y479500D01*
X3346997D01*
X3347831Y480333D01*
Y481166D01*
X3346997Y481999D01*
X3344498D01*
X3234500Y567000D02*
X3229502D01*
Y569499D01*
X3230335Y570332D01*
X3232001D01*
X3232834Y569499D01*
Y567000D01*
Y568666D02*
X3234500Y570332D01*
X3229502Y575331D02*
Y571998D01*
X3232001D01*
X3231168Y573665D01*
Y574498D01*
X3232001Y575331D01*
X3233667D01*
X3234500Y574498D01*
Y572831D01*
X3233667Y571998D01*
X3242000Y567000D02*
X3237001D01*
Y569499D01*
X3237835Y570332D01*
X3239501D01*
X3240334Y569499D01*
Y567000D01*
Y568666D02*
X3242000Y570332D01*
Y574498D02*
X3237001D01*
X3239501Y571998D01*
Y575331D01*
X3249000Y567000D02*
X3244002D01*
Y569499D01*
X3244835Y570332D01*
X3246501D01*
X3247334Y569499D01*
Y567000D01*
Y568666D02*
X3249000Y570332D01*
X3244835Y571998D02*
X3244002Y572831D01*
Y574498D01*
X3244835Y575331D01*
X3245668D01*
X3246501Y574498D01*
Y573665D01*
Y574498D01*
X3247334Y575331D01*
X3248167D01*
X3249000Y574498D01*
Y572831D01*
X3248167Y571998D01*
X3339500Y503500D02*
Y508498D01*
X3341999D01*
X3342832Y507665D01*
Y505999D01*
X3341999Y505166D01*
X3339500D01*
X3341166D02*
X3342832Y503500D01*
X3347831D02*
X3344498D01*
X3347831Y506832D01*
Y507665D01*
X3346997Y508498D01*
X3345332D01*
X3344498Y507665D01*
X3122335Y486832D02*
X3121502Y485999D01*
Y484333D01*
X3122335Y483500D01*
X3125667D01*
X3126500Y484333D01*
Y485999D01*
X3125667Y486832D01*
X3121502Y488498D02*
X3126500D01*
Y490998D01*
X3125667Y491831D01*
X3124834D01*
X3124001Y490998D01*
Y488498D01*
Y490998D01*
X3123168Y491831D01*
X3122335D01*
X3121502Y490998D01*
Y488498D01*
Y496829D02*
X3122335Y495163D01*
X3124001Y493497D01*
X3125667D01*
X3126500Y494330D01*
Y495996D01*
X3125667Y496829D01*
X3124834D01*
X3124001Y495996D01*
Y493497D01*
X3321232Y368765D02*
X3320399Y369598D01*
X3318733D01*
X3317900Y368765D01*
Y365433D01*
X3318733Y364600D01*
X3320399D01*
X3321232Y365433D01*
X3322898Y369598D02*
Y364600D01*
X3325397D01*
X3326231Y365433D01*
Y366266D01*
X3325397Y367099D01*
X3322898D01*
X3325397D01*
X3326231Y367932D01*
Y368765D01*
X3325397Y369598D01*
X3322898D01*
X3331229D02*
X3327897D01*
Y367099D01*
X3329563Y367932D01*
X3330396D01*
X3331229Y367099D01*
Y365433D01*
X3330396Y364600D01*
X3328730D01*
X3327897Y365433D01*
X3218835Y451832D02*
X3218002Y450999D01*
Y449333D01*
X3218835Y448500D01*
X3222167D01*
X3223000Y449333D01*
Y450999D01*
X3222167Y451832D01*
X3218002Y453498D02*
X3223000D01*
Y455998D01*
X3222167Y456831D01*
X3221334D01*
X3220501Y455998D01*
Y453498D01*
Y455998D01*
X3219668Y456831D01*
X3218835D01*
X3218002Y455998D01*
Y453498D01*
X3223000Y460996D02*
X3218002D01*
X3220501Y458497D01*
Y461829D01*
X3319332Y444165D02*
X3318499Y444998D01*
X3316833D01*
X3316000Y444165D01*
Y440833D01*
X3316833Y440000D01*
X3318499D01*
X3319332Y440833D01*
X3320998Y444998D02*
Y440000D01*
X3323498D01*
X3324331Y440833D01*
Y441666D01*
X3323498Y442499D01*
X3320998D01*
X3323498D01*
X3324331Y443332D01*
Y444165D01*
X3323498Y444998D01*
X3320998D01*
X3325997Y444165D02*
X3326830Y444998D01*
X3328496D01*
X3329329Y444165D01*
Y443332D01*
X3328496Y442499D01*
X3327663D01*
X3328496D01*
X3329329Y441666D01*
Y440833D01*
X3328496Y440000D01*
X3326830D01*
X3325997Y440833D01*
X3262232Y580265D02*
X3261399Y581098D01*
X3259733D01*
X3258900Y580265D01*
Y576933D01*
X3259733Y576100D01*
X3261399D01*
X3262232Y576933D01*
X3263898Y581098D02*
Y576100D01*
X3266397D01*
X3267231Y576933D01*
Y577766D01*
X3266397Y578599D01*
X3263898D01*
X3266397D01*
X3267231Y579432D01*
Y580265D01*
X3266397Y581098D01*
X3263898D01*
X3272229Y576100D02*
X3268897D01*
X3272229Y579432D01*
Y580265D01*
X3271396Y581098D01*
X3269730D01*
X3268897Y580265D01*
X3179835Y502332D02*
X3179002Y501499D01*
Y499833D01*
X3179835Y499000D01*
X3183167D01*
X3184000Y499833D01*
Y501499D01*
X3183167Y502332D01*
X3179002Y503998D02*
X3184000D01*
Y506498D01*
X3183167Y507331D01*
X3182334D01*
X3181501Y506498D01*
Y503998D01*
Y506498D01*
X3180668Y507331D01*
X3179835D01*
X3179002Y506498D01*
Y503998D01*
X3184000Y508997D02*
Y510663D01*
Y509830D01*
X3179002D01*
X3179835Y508997D01*
X3234835Y366332D02*
X3234002Y365499D01*
Y363833D01*
X3234835Y363000D01*
X3238167D01*
X3239000Y363833D01*
Y365499D01*
X3238167Y366332D01*
X3239000Y367998D02*
Y369665D01*
Y368831D01*
X3234002D01*
X3234835Y367998D01*
X3239000Y372164D02*
Y373830D01*
Y372997D01*
X3234002D01*
X3234835Y372164D01*
X3223335Y366332D02*
X3222502Y365499D01*
Y363833D01*
X3223335Y363000D01*
X3226667D01*
X3227500Y363833D01*
Y365499D01*
X3226667Y366332D01*
X3227500Y367998D02*
Y369665D01*
Y368831D01*
X3222502D01*
X3223335Y367998D01*
Y372164D02*
X3222502Y372997D01*
Y374663D01*
X3223335Y375496D01*
X3226667D01*
X3227500Y374663D01*
Y372997D01*
X3226667Y372164D01*
X3223335D01*
X3087335Y554832D02*
X3086502Y553999D01*
Y552333D01*
X3087335Y551500D01*
X3090667D01*
X3091500Y552333D01*
Y553999D01*
X3090667Y554832D01*
Y556498D02*
X3091500Y557331D01*
Y558998D01*
X3090667Y559831D01*
X3087335D01*
X3086502Y558998D01*
Y557331D01*
X3087335Y556498D01*
X3088168D01*
X3089001Y557331D01*
Y559831D01*
X3206835Y503832D02*
X3206002Y502999D01*
Y501333D01*
X3206835Y500500D01*
X3210167D01*
X3211000Y501333D01*
Y502999D01*
X3210167Y503832D01*
X3206835Y505498D02*
X3206002Y506331D01*
Y507998D01*
X3206835Y508831D01*
X3207668D01*
X3208501Y507998D01*
X3209334Y508831D01*
X3210167D01*
X3211000Y507998D01*
Y506331D01*
X3210167Y505498D01*
X3209334D01*
X3208501Y506331D01*
X3207668Y505498D01*
X3206835D01*
X3208501Y506331D02*
Y507998D01*
X3294332Y443665D02*
X3293499Y444498D01*
X3291833D01*
X3291000Y443665D01*
Y440333D01*
X3291833Y439500D01*
X3293499D01*
X3294332Y440333D01*
X3299331Y444498D02*
X3297665Y443665D01*
X3295998Y441999D01*
Y440333D01*
X3296832Y439500D01*
X3298498D01*
X3299331Y440333D01*
Y441166D01*
X3298498Y441999D01*
X3295998D01*
X3336335Y469332D02*
X3335501Y468499D01*
Y466833D01*
X3336335Y466000D01*
X3339667D01*
X3340500Y466833D01*
Y468499D01*
X3339667Y469332D01*
X3335501Y474331D02*
Y470998D01*
X3338001D01*
X3337168Y472664D01*
Y473498D01*
X3338001Y474331D01*
X3339667D01*
X3340500Y473498D01*
Y471831D01*
X3339667Y470998D01*
X3290835Y527332D02*
X3290002Y526499D01*
Y524833D01*
X3290835Y524000D01*
X3294167D01*
X3295000Y524833D01*
Y526499D01*
X3294167Y527332D01*
X3295000Y531498D02*
X3290002D01*
X3292501Y528998D01*
Y532331D01*
X3342832Y495165D02*
X3341999Y495998D01*
X3340333D01*
X3339500Y495165D01*
Y491833D01*
X3340333Y491000D01*
X3341999D01*
X3342832Y491833D01*
X3344498Y495165D02*
X3345332Y495998D01*
X3346997D01*
X3347831Y495165D01*
Y494332D01*
X3346997Y493499D01*
X3346164D01*
X3346997D01*
X3347831Y492666D01*
Y491833D01*
X3346997Y491000D01*
X3345332D01*
X3344498Y491833D01*
X3169232Y566265D02*
X3168399Y567098D01*
X3166733D01*
X3165900Y566265D01*
Y562933D01*
X3166733Y562100D01*
X3168399D01*
X3169232Y562933D01*
X3174231Y562100D02*
X3170898D01*
X3174231Y565432D01*
Y566265D01*
X3173398Y567098D01*
X3171731D01*
X3170898Y566265D01*
X3060000Y580998D02*
Y576000D01*
X3061000Y575000D01*
X3062999D01*
X3063999Y576000D01*
Y580998D01*
X3069997Y579998D02*
X3068997Y580998D01*
X3066998D01*
X3065998Y579998D01*
Y578999D01*
X3066998Y577999D01*
X3068997D01*
X3069997Y576999D01*
Y576000D01*
X3068997Y575000D01*
X3066998D01*
X3065998Y576000D01*
X3071996Y580998D02*
Y575000D01*
X3074995D01*
X3075995Y576000D01*
Y576999D01*
X3074995Y577999D01*
X3071996D01*
X3074995D01*
X3075995Y578999D01*
Y579998D01*
X3074995Y580998D01*
X3071996D01*
X3086991Y575000D02*
X3083992Y577999D01*
X3086991Y580998D01*
X3089990Y577999D02*
X3093989D01*
X3095988Y575000D02*
X3098987Y577999D01*
X3095988Y580998D01*
X3110983Y579998D02*
X3109984Y580998D01*
X3107985D01*
X3106985Y579998D01*
Y576000D01*
X3107985Y575000D01*
X3109984D01*
X3110983Y576000D01*
Y577999D01*
X3108984D01*
X3112983Y575000D02*
Y580998D01*
X3115982D01*
X3116982Y579998D01*
Y577999D01*
X3115982Y576999D01*
X3112983D01*
X3118981Y580998D02*
X3120980D01*
X3119981D01*
Y575000D01*
X3118981D01*
X3120980D01*
X3123979Y580998D02*
Y575000D01*
X3126978D01*
X3127978Y576000D01*
Y576999D01*
X3126978Y577999D01*
X3123979D01*
X3126978D01*
X3127978Y578999D01*
Y579998D01*
X3126978Y580998D01*
X3123979D01*
D31*
X3482000Y389250D02*
G03*
X3482000Y389250I-2500J0D01*
G01*
Y538000D02*
G03*
X3482000Y538000I-2500J0D01*
G01*
X3475167Y420750D02*
X3509167D01*
Y459083D01*
X3475167D02*
X3509167D01*
X3475167Y467583D02*
X3509167D01*
Y505750D01*
X3475167D02*
X3509167D01*
X3483667Y391083D02*
X3505000D01*
Y395250D01*
X3475167D02*
X3505000D01*
X3483667Y535583D02*
X3505000D01*
Y531250D02*
Y535583D01*
X3475167Y531250D02*
X3505000D01*
X3475167Y539750D02*
X3513500Y578083D01*
X3517667Y573750D01*
X3483667Y539750D02*
X3517667Y573750D01*
X3475167Y386750D02*
X3513500Y348583D01*
X3517667Y352750D01*
X3483667Y386750D02*
X3517667Y352750D01*
X3475167Y399583D02*
X3517667D01*
Y527083D01*
X3475167D02*
X3517667D01*
X3458167Y352750D02*
Y365583D01*
X3462500D01*
Y378250D01*
X3458167D02*
X3462500D01*
X3458167D02*
Y548250D01*
X3462500D01*
Y561083D01*
X3458167D02*
X3462500D01*
X3458167D02*
Y573750D01*
X3432667Y403750D02*
X3458167D01*
X3432667Y522750D02*
X3458167D01*
X3415667Y403750D02*
X3432667D01*
X3415667Y522750D02*
X3432667D01*
X3415667Y352750D02*
X3475167D01*
X3415667D02*
Y403750D01*
X3428500Y412250D02*
Y514250D01*
X3415667Y522750D02*
Y573750D01*
X3475167D01*
Y352750D02*
Y573750D01*
X3172500Y537999D02*
Y536000D01*
X3171500Y535000D01*
X3170501Y536000D01*
Y537999D01*
X3169501D02*
Y535000D01*
X3168002D01*
X3167502Y535500D01*
Y536000D01*
X3168002Y536500D01*
X3169501D01*
X3168002D01*
X3167502Y536999D01*
Y537499D01*
X3168002Y537999D01*
X3169501D01*
X3166502D02*
Y535500D01*
X3166002Y535000D01*
X3165002D01*
X3164503Y535500D01*
Y537999D01*
X3161504Y537499D02*
X3162003Y537999D01*
X3163003D01*
X3163503Y537499D01*
Y536999D01*
X3163003Y536500D01*
X3162003D01*
X3161504Y536000D01*
Y535500D01*
X3162003Y535000D01*
X3163003D01*
X3163503Y535500D01*
X3160504Y534500D02*
X3158504D01*
X3155506Y537499D02*
X3156005Y537999D01*
X3157005D01*
X3157505Y537499D01*
Y536999D01*
X3157005Y536500D01*
X3156005D01*
X3155506Y536000D01*
Y535500D01*
X3156005Y535000D01*
X3157005D01*
X3157505Y535500D01*
X3154506Y537999D02*
Y535000D01*
X3153506Y536000D01*
X3152506Y535000D01*
Y537999D01*
X3230000Y502500D02*
Y505499D01*
X3228500D01*
X3228001Y504999D01*
Y504000D01*
X3228500Y503500D01*
X3230000D01*
X3229000D02*
X3228001Y502500D01*
X3227001Y505499D02*
X3225002Y502500D01*
Y505499D02*
X3227001Y502500D01*
X3222002Y505499D02*
X3224002D01*
Y504000D01*
X3223002D01*
X3224002D01*
Y502500D01*
X3220503D02*
Y505499D01*
X3219503D02*
Y502500D01*
X3221003Y504499D02*
X3219503D01*
X3219004D01*
X3221003Y503500D02*
X3219004D01*
X3227000Y525000D02*
Y527999D01*
X3225500D01*
X3225001Y527499D01*
Y526500D01*
X3225500Y526000D01*
X3227000D01*
X3224001Y527999D02*
Y525000D01*
X3223001Y526000D01*
X3222002Y525000D01*
Y527999D01*
X3221002Y525000D02*
Y527999D01*
X3219502D01*
X3219003Y527499D01*
Y526500D01*
X3219502Y526000D01*
X3221002D01*
X3220002D02*
X3219003Y525000D01*
X3216003Y527999D02*
X3218003D01*
Y525000D01*
X3216003D01*
X3218003Y526500D02*
X3217003D01*
X3215004Y525000D02*
Y527999D01*
X3213005Y525000D01*
Y527999D01*
X3330000Y550666D02*
X3329333Y550000D01*
X3328001D01*
X3327334Y550666D01*
Y553332D01*
X3328001Y553999D01*
X3329333D01*
X3330000Y553332D01*
Y552666D01*
X3329333Y551999D01*
X3327334D01*
X3326001Y553332D02*
X3325335Y553999D01*
X3324002D01*
X3323336Y553332D01*
Y552666D01*
X3324002Y551999D01*
X3324669D01*
X3324002D01*
X3323336Y551333D01*
Y550666D01*
X3324002Y550000D01*
X3325335D01*
X3326001Y550666D01*
X3319337Y553332D02*
X3320003Y553999D01*
X3321336D01*
X3322002Y553332D01*
Y550666D01*
X3321336Y550000D01*
X3320003D01*
X3319337Y550666D01*
X3316005Y550000D02*
Y553999D01*
X3318004Y551999D01*
X3315338D01*
X3311340Y553999D02*
X3312672Y553332D01*
X3314005Y551999D01*
Y550666D01*
X3313339Y550000D01*
X3312006D01*
X3311340Y550666D01*
Y551333D01*
X3312006Y551999D01*
X3314005D01*
X3407500Y360499D02*
X3405501D01*
X3406500D01*
Y357500D01*
X3402502Y360499D02*
X3404501D01*
Y357500D01*
X3402502D01*
X3404501Y358999D02*
X3403501D01*
X3287334Y508999D02*
X3290000D01*
Y506999D01*
X3288667D01*
X3290000D01*
Y505000D01*
X3286001Y508999D02*
X3283335D01*
X3284668D01*
Y505000D01*
X3279337D02*
X3282003D01*
X3279337Y507666D01*
Y508332D01*
X3280003Y508999D01*
X3281336D01*
X3282003Y508332D01*
X3276004Y505000D02*
Y508999D01*
X3278004Y506999D01*
X3275338D01*
X3271339Y508999D02*
X3274005D01*
Y506999D01*
X3272672Y507666D01*
X3272006D01*
X3271339Y506999D01*
Y505666D01*
X3272006Y505000D01*
X3273339D01*
X3274005Y505666D01*
X3279000Y438999D02*
Y437000D01*
X3278000Y436000D01*
X3277001Y437000D01*
Y438999D01*
X3276001D02*
X3274002D01*
X3275001D01*
Y436000D01*
X3271003Y438499D02*
X3271502Y438999D01*
X3272502D01*
X3273002Y438499D01*
Y436500D01*
X3272502Y436000D01*
X3271502D01*
X3271003Y436500D01*
Y437500D01*
X3272002D01*
X3277000Y430000D02*
Y432999D01*
X3276000Y431999D01*
X3275001Y432999D01*
Y430000D01*
X3272501Y432999D02*
X3273501D01*
X3274001Y432499D01*
Y430500D01*
X3273501Y430000D01*
X3272501D01*
X3272002Y430500D01*
Y432499D01*
X3272501Y432999D01*
X3269003Y432499D02*
X3269502Y432999D01*
X3270502D01*
X3271002Y432499D01*
Y431999D01*
X3270502Y431499D01*
X3269502D01*
X3269003Y431000D01*
Y430500D01*
X3269502Y430000D01*
X3270502D01*
X3271002Y430500D01*
X3268003Y432999D02*
X3267003D01*
X3267503D01*
Y430000D01*
X3268003D01*
X3267003D01*
X3275001Y419499D02*
X3275500Y419999D01*
X3276500D01*
X3277000Y419499D01*
Y417500D01*
X3276500Y417000D01*
X3275500D01*
X3275001Y417500D01*
Y418500D01*
X3276000D01*
X3274001Y417000D02*
Y419999D01*
X3272002Y417000D01*
Y419999D01*
X3271002D02*
Y417000D01*
X3269502D01*
X3269003Y417500D01*
Y419499D01*
X3269502Y419999D01*
X3271002D01*
X3244000Y440000D02*
Y442999D01*
X3243000Y441999D01*
X3242001Y442999D01*
Y440000D01*
X3241001Y442999D02*
X3240001D01*
X3240501D01*
Y440000D01*
X3241001D01*
X3240001D01*
X3236502Y442499D02*
X3237002Y442999D01*
X3238002D01*
X3238502Y442499D01*
Y441999D01*
X3238002Y441500D01*
X3237002D01*
X3236502Y441000D01*
Y440500D01*
X3237002Y440000D01*
X3238002D01*
X3238502Y440500D01*
X3234003Y442999D02*
X3235003D01*
X3235503Y442499D01*
Y440500D01*
X3235003Y440000D01*
X3234003D01*
X3233503Y440500D01*
Y442499D01*
X3234003Y442999D01*
X3242001Y432499D02*
X3242501Y432999D01*
X3243500D01*
X3244000Y432499D01*
Y431999D01*
X3243500Y431499D01*
X3242501D01*
X3242001Y431000D01*
Y430500D01*
X3242501Y430000D01*
X3243500D01*
X3244000Y430500D01*
X3239001Y432499D02*
X3239502Y432999D01*
X3240501D01*
X3241001Y432499D01*
Y430500D01*
X3240501Y430000D01*
X3239502D01*
X3239001Y430500D01*
X3238002Y432999D02*
Y430000D01*
Y431000D01*
X3236003Y432999D01*
X3237502Y431499D01*
X3236003Y430000D01*
X3244000Y417000D02*
Y419999D01*
X3242501D01*
X3242001Y419499D01*
Y418500D01*
X3242501Y418000D01*
X3244000D01*
X3243000D02*
X3242001Y417000D01*
X3239001Y419499D02*
X3239502Y419999D01*
X3240501D01*
X3241001Y419499D01*
Y418999D01*
X3240501Y418500D01*
X3239502D01*
X3239001Y418000D01*
Y417500D01*
X3239502Y417000D01*
X3240501D01*
X3241001Y417500D01*
X3238002Y419999D02*
X3236003D01*
X3237002D01*
Y417000D01*
X3271502Y467500D02*
Y465501D01*
Y466500D01*
X3277500D01*
Y467500D01*
Y465501D01*
X3272502Y458503D02*
X3271502Y459503D01*
Y461502D01*
X3272502Y462502D01*
X3273501D01*
X3274501Y461502D01*
Y459503D01*
X3275500Y458503D01*
X3276500D01*
X3277500Y459503D01*
Y461502D01*
X3276500Y462502D01*
X3277500Y456504D02*
X3271502D01*
Y453505D01*
X3272502Y452505D01*
X3274501D01*
X3275500Y453505D01*
Y456504D01*
X3320500Y401000D02*
Y403666D01*
X3319167Y404999D01*
X3317834Y403666D01*
Y401000D01*
Y402999D01*
X3320500D01*
X3316501Y404999D02*
X3313836D01*
X3315168D01*
Y401000D01*
X3312503Y401666D02*
X3311836Y401000D01*
X3310503D01*
X3309837Y401666D01*
Y404332D01*
X3310503Y404999D01*
X3311836D01*
X3312503Y404332D01*
Y403666D01*
X3311836Y402999D01*
X3309837D01*
X3308504Y404332D02*
X3307837Y404999D01*
X3306504D01*
X3305838Y404332D01*
Y401666D01*
X3306504Y401000D01*
X3307837D01*
X3308504Y401666D01*
Y404332D01*
X3301839D02*
X3302506Y404999D01*
X3303839D01*
X3304505Y404332D01*
Y403666D01*
X3303839Y402999D01*
X3302506D01*
X3301839Y402333D01*
Y401666D01*
X3302506Y401000D01*
X3303839D01*
X3304505Y401666D01*
X3300507Y404332D02*
X3299840Y404999D01*
X3298507D01*
X3297840Y404332D01*
Y403666D01*
X3298507Y402999D01*
X3297840Y402333D01*
Y401666D01*
X3298507Y401000D01*
X3299840D01*
X3300507Y401666D01*
Y402333D01*
X3299840Y402999D01*
X3300507Y403666D01*
Y404332D01*
X3299840Y402999D02*
X3298507D01*
X3293842Y404999D02*
X3296508D01*
Y402999D01*
X3295175Y403666D01*
X3294508D01*
X3293842Y402999D01*
Y401666D01*
X3294508Y401000D01*
X3295841D01*
X3296508Y401666D01*
X3292509Y401000D02*
X3291176D01*
X3291843D01*
Y404999D01*
X3292509Y404332D01*
X3286511Y404999D02*
X3289177D01*
Y402999D01*
X3287844Y403666D01*
X3287177D01*
X3286511Y402999D01*
Y401666D01*
X3287177Y401000D01*
X3288510D01*
X3289177Y401666D01*
X3378001Y535000D02*
Y532334D01*
X3378668D01*
X3381334Y535000D01*
X3382000D01*
X3378001Y528336D02*
Y531001D01*
X3380001D01*
X3379334Y529668D01*
Y529002D01*
X3380001Y528336D01*
X3381334D01*
X3382000Y529002D01*
Y530335D01*
X3381334Y531001D01*
X3382000Y527003D02*
Y525670D01*
Y526336D01*
X3378001D01*
X3378668Y527003D01*
X3378001Y521004D02*
X3378668Y522337D01*
X3380001Y523670D01*
X3381334D01*
X3382000Y523004D01*
Y521671D01*
X3381334Y521004D01*
X3380667D01*
X3380001Y521671D01*
Y523670D01*
X3378668Y519672D02*
X3378001Y519005D01*
Y517672D01*
X3378668Y517006D01*
X3381334D01*
X3382000Y517672D01*
Y519005D01*
X3381334Y519672D01*
X3378668D01*
X3378001Y425500D02*
Y422834D01*
X3378668D01*
X3381334Y425500D01*
X3382000D01*
X3378001Y418835D02*
Y421501D01*
X3380001D01*
X3379334Y420168D01*
Y419502D01*
X3380001Y418835D01*
X3381334D01*
X3382000Y419502D01*
Y420835D01*
X3381334Y421501D01*
X3382000Y417503D02*
Y416170D01*
Y416836D01*
X3378001D01*
X3378668Y417503D01*
X3378001Y411505D02*
X3378668Y412837D01*
X3380001Y414170D01*
X3381334D01*
X3382000Y413504D01*
Y412171D01*
X3381334Y411505D01*
X3380667D01*
X3380001Y412171D01*
Y414170D01*
X3382000Y410172D02*
Y408839D01*
Y409505D01*
X3378001D01*
X3378668Y410172D01*
X3236500Y448000D02*
X3237833D01*
X3237166D01*
Y451999D01*
X3236500Y451332D01*
X3100000Y553999D02*
Y552000D01*
X3101000Y551000D01*
X3101999Y552000D01*
Y553999D01*
X3102999D02*
Y551000D01*
X3104498D01*
X3104998Y551500D01*
Y552000D01*
X3104498Y552499D01*
X3102999D01*
X3104498D01*
X3104998Y552999D01*
Y553499D01*
X3104498Y553999D01*
X3102999D01*
X3105998D02*
Y551500D01*
X3106498Y551000D01*
X3107498D01*
X3107997Y551500D01*
Y553999D01*
X3110996Y553499D02*
X3110497Y553999D01*
X3109497D01*
X3108997Y553499D01*
Y552999D01*
X3109497Y552499D01*
X3110497D01*
X3110996Y552000D01*
Y551500D01*
X3110497Y551000D01*
X3109497D01*
X3108997Y551500D01*
X3060000Y495000D02*
Y498999D01*
X3061999D01*
X3062666Y498332D01*
Y496999D01*
X3061999Y496333D01*
X3060000D01*
X3063999Y498999D02*
Y495000D01*
X3065332Y496333D01*
X3066665Y495000D01*
Y498999D01*
X3067997Y495000D02*
Y498999D01*
X3069997D01*
X3070663Y498332D01*
Y496999D01*
X3069997Y496333D01*
X3067997D01*
X3069330D02*
X3070663Y495000D01*
X3075995Y498999D02*
Y495000D01*
X3078661D01*
X3082659Y498999D02*
X3079993D01*
Y495000D01*
X3082659D01*
X3079993Y496999D02*
X3081326D01*
X3083992Y498999D02*
Y495000D01*
X3085992D01*
X3086658Y495666D01*
Y498332D01*
X3085992Y498999D01*
X3083992D01*
X3060000Y571499D02*
Y567500D01*
X3061999D01*
X3062666Y568166D01*
Y568833D01*
X3061999Y569499D01*
X3060000D01*
X3061999D01*
X3062666Y570166D01*
Y570832D01*
X3061999Y571499D01*
X3060000D01*
X3063999Y567500D02*
Y568166D01*
X3064665D01*
Y567500D01*
X3063999D01*
X3073996Y570832D02*
X3073329Y571499D01*
X3071996D01*
X3071330Y570832D01*
Y568166D01*
X3071996Y567500D01*
X3073329D01*
X3073996Y568166D01*
Y569499D01*
X3072663D01*
X3075328Y567500D02*
X3076661D01*
X3075995D01*
Y571499D01*
X3075328D01*
X3079327Y570166D02*
X3080660D01*
X3081326Y569499D01*
Y567500D01*
X3079327D01*
X3078661Y568166D01*
X3079327Y568833D01*
X3081326D01*
X3082659Y570166D02*
X3085325D01*
X3082659Y567500D01*
X3085325D01*
X3087325Y570166D02*
X3088657D01*
X3089324Y569499D01*
Y567500D01*
X3087325D01*
X3086658Y568166D01*
X3087325Y568833D01*
X3089324D01*
X3090657Y570166D02*
Y567500D01*
Y568833D01*
X3091323Y569499D01*
X3091990Y570166D01*
X3092656D01*
X3095322Y566834D02*
X3095988Y567500D01*
Y568166D01*
X3095322D01*
Y567500D01*
X3095988D01*
X3095322Y566834D01*
X3094655Y566167D01*
X3105319Y571499D02*
X3102653D01*
Y569499D01*
X3103986D01*
X3102653D01*
Y567500D01*
X3109317Y571499D02*
X3106652D01*
Y567500D01*
X3109317D01*
X3106652Y569499D02*
X3107985D01*
X3111317Y566834D02*
X3111983Y567500D01*
Y568166D01*
X3111317D01*
Y567500D01*
X3111983D01*
X3111317Y566834D01*
X3110650Y566167D01*
X3118648Y571499D02*
Y567500D01*
X3121314D01*
X3122647D02*
Y571499D01*
X3124646D01*
X3125312Y570832D01*
Y569499D01*
X3124646Y568833D01*
X3122647D01*
X3129311Y570832D02*
X3128645Y571499D01*
X3127312D01*
X3126645Y570832D01*
Y570166D01*
X3127312Y569499D01*
X3128645D01*
X3129311Y568833D01*
Y568166D01*
X3128645Y567500D01*
X3127312D01*
X3126645Y568166D01*
X3132643Y571499D02*
X3131310D01*
X3130644Y570832D01*
Y568166D01*
X3131310Y567500D01*
X3132643D01*
X3133310Y568166D01*
Y570832D01*
X3132643Y571499D01*
X3135309Y566834D02*
X3135975Y567500D01*
Y568166D01*
X3135309D01*
Y567500D01*
X3135975D01*
X3135309Y566834D01*
X3134643Y566167D01*
X3145306Y567500D02*
X3142640D01*
X3145306Y570166D01*
Y570832D01*
X3144639Y571499D01*
X3143307D01*
X3142640Y570832D01*
X3146639D02*
X3147305Y571499D01*
X3148638D01*
X3149305Y570832D01*
Y568166D01*
X3148638Y567500D01*
X3147305D01*
X3146639Y568166D01*
Y570832D01*
X3150637D02*
X3151304Y571499D01*
X3152637D01*
X3153303Y570832D01*
Y568166D01*
X3152637Y567500D01*
X3151304D01*
X3150637Y568166D01*
Y570832D01*
X3154636D02*
X3155303Y571499D01*
X3156635D01*
X3157302Y570832D01*
Y570166D01*
X3156635Y569499D01*
X3155969D01*
X3156635D01*
X3157302Y568833D01*
Y568166D01*
X3156635Y567500D01*
X3155303D01*
X3154636Y568166D01*
X3162634Y571499D02*
Y568833D01*
X3163967Y567500D01*
X3165299Y568833D01*
Y571499D01*
X3166632Y567500D02*
X3167965D01*
X3167299D01*
Y571499D01*
X3166632Y570832D01*
X3169964Y567500D02*
Y568166D01*
X3170631D01*
Y567500D01*
X3169964D01*
X3173297D02*
X3174630D01*
X3173963D01*
Y571499D01*
X3173297Y570832D01*
D42*
X3144063Y548866D02*
X3163748D01*
X3144063Y522882D02*
X3163748D01*
X3144063D02*
Y548866D01*
X3163748Y522882D02*
Y548866D01*
M02*
