%FSLAX25Y25*%
%MOIN*%
G70*
G01*
G75*
G04 Layer_Physical_Order=3*
G04 Layer_Color=16711680*
%ADD10C,0.01200*%
%ADD11R,0.03150X0.05512*%
G04:AMPARAMS|DCode=12|XSize=78.74mil|YSize=149.61mil|CornerRadius=0mil|HoleSize=0mil|Usage=FLASHONLY|Rotation=0.000|XOffset=0mil|YOffset=0mil|HoleType=Round|Shape=Octagon|*
%AMOCTAGOND12*
4,1,8,-0.01969,0.07480,0.01969,0.07480,0.03937,0.05512,0.03937,-0.05512,0.01969,-0.07480,-0.01969,-0.07480,-0.03937,-0.05512,-0.03937,0.05512,-0.01969,0.07480,0.0*
%
%ADD12OCTAGOND12*%

%ADD13R,0.03937X0.07299*%
%ADD14R,0.03600X0.05000*%
%ADD15R,0.03600X0.03600*%
%ADD16O,0.02400X0.08000*%
%ADD17R,0.13000X0.07000*%
%ADD18R,0.01600X0.07500*%
%ADD19R,0.07500X0.01600*%
%ADD20O,0.01600X0.10000*%
%ADD21O,0.10000X0.01600*%
%ADD22R,0.10000X0.08000*%
%ADD23R,0.10000X0.09000*%
%ADD24R,0.06000X0.06000*%
%ADD25R,0.06000X0.06000*%
%ADD26C,0.02800*%
%ADD27C,0.01600*%
%ADD28C,0.02400*%
%ADD29C,0.01400*%
%ADD30C,0.01000*%
%ADD31C,0.00800*%
%ADD32C,0.20000*%
%ADD33O,0.07000X0.08500*%
%ADD34C,0.07000*%
%ADD35R,0.07000X0.07000*%
%ADD36C,0.08000*%
%ADD37C,0.06200*%
%ADD38R,0.06200X0.06200*%
%ADD39O,0.07000X0.06000*%
%ADD40R,0.07000X0.06000*%
%ADD41C,0.05000*%
D10*
X3225818Y418501D02*
G03*
X3234300Y417500I4182J-1001D01*
G01*
X3225600Y419500D02*
G03*
X3225818Y418501I2400J0D01*
G01*
X3225600Y419500D02*
G03*
X3225818Y418501I2400J0D01*
G01*
X3234300Y417500D02*
G03*
X3230400Y421781I-4300J0D01*
G01*
X3240303Y420303D02*
G03*
X3242000Y419600I1697J1697D01*
G01*
X3240303Y420303D02*
G03*
X3242000Y419600I1697J1697D01*
G01*
X3248742Y378000D02*
G03*
X3248742Y368000I1758J-5000D01*
G01*
D02*
G03*
X3255800Y363000I1758J-5000D01*
G01*
D02*
G03*
X3252258Y368000I-5300J0D01*
G01*
D02*
G03*
X3255800Y373000I-1758J5000D01*
G01*
D02*
G03*
X3252258Y378000I-5300J0D01*
G01*
X3255800Y383000D02*
G03*
X3248742Y378000I-5300J0D01*
G01*
X3252258D02*
G03*
X3255800Y383000I-1758J5000D01*
G01*
X3247728Y419600D02*
G03*
X3256900Y422000I4272J2400D01*
G01*
D02*
G03*
X3247728Y424400I-4900J0D01*
G01*
X3266900Y422000D02*
G03*
X3266900Y422000I-4900J0D01*
G01*
X3256900Y432000D02*
G03*
X3256900Y432000I-4900J0D01*
G01*
X3257994Y434821D02*
G03*
X3266900Y432000I4006J-2821D01*
G01*
X3257303Y435303D02*
G03*
X3257994Y434821I1697J1697D01*
G01*
X3266900Y432000D02*
G03*
X3266153Y434600I-4900J0D01*
G01*
X3257303Y435303D02*
G03*
X3257994Y434821I1697J1697D01*
G01*
X3262300Y446891D02*
G03*
X3259400Y446153I-300J-4891D01*
G01*
X3266349Y439744D02*
G03*
X3266900Y442000I-4350J2256D01*
G01*
D02*
G03*
X3266887Y442361I-4900J0D01*
G01*
X3255303Y456197D02*
G03*
X3254600Y454500I1697J-1697D01*
G01*
X3255303Y456197D02*
G03*
X3254600Y454500I1697J-1697D01*
G01*
X3234400Y463837D02*
G03*
X3257800Y466000I11600J2163D01*
G01*
D02*
G03*
X3234400Y468163I-11800J0D01*
G01*
X3208800Y475000D02*
G03*
X3206500Y477300I-2300J0D01*
G01*
X3208800Y475000D02*
G03*
X3206500Y477300I-2300J0D01*
G01*
X3276326Y381720D02*
G03*
X3279800Y377500I-826J-4220D01*
G01*
D02*
G03*
X3279720Y378326I-4300J0D01*
G01*
X3291300Y371500D02*
G03*
X3287826Y367280I-4300J0D01*
G01*
X3271300Y397500D02*
G03*
X3271224Y398304I-4300J0D01*
G01*
X3267848Y401716D02*
G03*
X3271300Y397500I-848J-4216D01*
G01*
X3285500Y389900D02*
G03*
X3283803Y389197I0J-2400D01*
G01*
X3285500Y389900D02*
G03*
X3283803Y389197I0J-2400D01*
G01*
X3304803Y350303D02*
G03*
X3306500Y349600I1697J1697D01*
G01*
X3304803Y350303D02*
G03*
X3306500Y349600I1697J1697D01*
G01*
X3291220Y370674D02*
G03*
X3291300Y371500I-4220J826D01*
G01*
X3335100Y406068D02*
G03*
X3341800Y402500I2400J-3568D01*
G01*
X3267000Y434600D02*
G03*
X3268697Y435303I0J2400D01*
G01*
X3267000Y434600D02*
G03*
X3268697Y435303I0J2400D01*
G01*
X3267763Y443237D02*
G03*
X3268700Y445500I-2263J2263D01*
G01*
X3267760Y443234D02*
G03*
X3268700Y445500I-2260J2266D01*
G01*
X3285500Y457900D02*
G03*
X3283803Y457197I0J-2400D01*
G01*
X3285500Y457900D02*
G03*
X3283803Y457197I0J-2400D01*
G01*
X3299087Y469988D02*
G03*
X3298913Y466512I-5087J-1488D01*
G01*
X3316688Y443294D02*
G03*
X3317400Y445000I-1688J1706D01*
G01*
X3316688Y443294D02*
G03*
X3317400Y445000I-1688J1706D01*
G01*
X3335803Y439197D02*
G03*
X3335100Y437500I1697J-1697D01*
G01*
X3335803Y439197D02*
G03*
X3335100Y437500I1697J-1697D01*
G01*
X3298913Y466512D02*
G03*
X3309087Y466512I5087J1488D01*
G01*
X3308913Y469988D02*
G03*
X3299087Y469988I-4913J-1988D01*
G01*
X3317400Y455500D02*
G03*
X3315000Y457900I-2400J0D01*
G01*
X3317400Y455500D02*
G03*
X3315000Y457900I-2400J0D01*
G01*
X3309087Y466512D02*
G03*
X3319300Y468500I4913J1988D01*
G01*
D02*
G03*
X3308913Y469988I-5300J0D01*
G01*
X3058300Y511000D02*
G03*
X3058300Y511000I-11800J0D01*
G01*
X3095061Y500000D02*
G03*
X3103800Y495000I2939J-5000D01*
G01*
X3051700Y529250D02*
G03*
X3061000Y525773I5300J0D01*
G01*
X3103800Y505000D02*
G03*
X3095061Y500000I-5800J0D01*
G01*
X3061000Y525773D02*
G03*
X3069700Y526800I4000J3477D01*
G01*
X3053833Y535000D02*
G03*
X3051700Y530750I3167J-4250D01*
G01*
X3061000Y534227D02*
G03*
X3060167Y535000I-4000J-3477D01*
G01*
X3061833D02*
G03*
X3061000Y534227I3167J-4250D01*
G01*
X3069700Y533200D02*
G03*
X3068167Y535000I-4700J-2450D01*
G01*
X3051700Y539250D02*
G03*
X3053833Y535000I5300J0D01*
G01*
X3060167D02*
G03*
X3061000Y535773I-3167J4250D01*
G01*
D02*
G03*
X3061833Y535000I4000J3477D01*
G01*
X3068167D02*
G03*
X3070037Y537600I-3167J4250D01*
G01*
X3072128Y526800D02*
G03*
X3079300Y530000I2872J3200D01*
G01*
D02*
G03*
X3072128Y533200I-4300J0D01*
G01*
X3093697Y541697D02*
G03*
X3092000Y542400I-1697J-1697D01*
G01*
X3093697Y541697D02*
G03*
X3092000Y542400I-1697J-1697D01*
G01*
X3103800Y495000D02*
G03*
X3100939Y500000I-5800J0D01*
G01*
D02*
G03*
X3103800Y505000I-2939J5000D01*
G01*
X3111303Y517303D02*
G03*
X3112986Y516600I1697J1697D01*
G01*
X3111303Y517303D02*
G03*
X3112986Y516600I1697J1697D01*
G01*
X3195686Y520914D02*
G03*
X3196197Y521303I-1186J2086D01*
G01*
X3195686Y520914D02*
G03*
X3196197Y521303I-1186J2086D01*
G01*
X3197986Y516100D02*
G03*
X3199697Y516803I14J2400D01*
G01*
X3197986Y516100D02*
G03*
X3199697Y516803I14J2400D01*
G01*
X3174768Y534294D02*
G03*
X3179294Y529768I232J-4294D01*
G01*
X3055413Y545807D02*
G03*
X3051700Y540750I1587J-5057D01*
G01*
X3058300Y559000D02*
G03*
X3058300Y559000I-11800J0D01*
G01*
X3070037Y542400D02*
G03*
X3061000Y544227I-5037J-1650D01*
G01*
X3062500Y551900D02*
G03*
X3060803Y551197I0J-2400D01*
G01*
X3062500Y551900D02*
G03*
X3060803Y551197I0J-2400D01*
G01*
X3094697D02*
G03*
X3093000Y551900I-1697J-1697D01*
G01*
X3094697Y551197D02*
G03*
X3093000Y551900I-1697J-1697D01*
G01*
X3226258Y492651D02*
G03*
X3225600Y491000I1742J-1651D01*
G01*
X3226258Y492651D02*
G03*
X3225600Y491000I1742J-1651D01*
G01*
X3242600Y504691D02*
G03*
X3234704Y501561I-3700J-2191D01*
G01*
X3238187Y498259D02*
G03*
X3242600Y500309I713J4241D01*
G01*
X3228600Y520000D02*
G03*
X3229303Y518303I2400J0D01*
G01*
X3228600Y520000D02*
G03*
X3229303Y518303I2400J0D01*
G01*
X3235300Y527000D02*
G03*
X3228600Y523432I-4300J0D01*
G01*
X3233400D02*
G03*
X3235300Y527000I-2400J3568D01*
G01*
X3244300D02*
G03*
X3240826Y522780I-4300J0D01*
G01*
X3246697Y496803D02*
G03*
X3247400Y498500I-1697J1697D01*
G01*
X3246697Y496803D02*
G03*
X3247400Y498500I-1697J1697D01*
G01*
Y506000D02*
G03*
X3246697Y507697I-2400J0D01*
G01*
X3247400Y506000D02*
G03*
X3246697Y507697I-2400J0D01*
G01*
X3332128Y496800D02*
G03*
X3339300Y500000I2872J3200D01*
G01*
D02*
G03*
X3332128Y503200I-4300J0D01*
G01*
X3244220Y526174D02*
G03*
X3244300Y527000I-4220J826D01*
G01*
X3249800Y524000D02*
G03*
X3250737Y521737I3200J0D01*
G01*
X3249800Y524000D02*
G03*
X3250740Y521735I3200J0D01*
G01*
X3268700Y511500D02*
G03*
X3267763Y513763I-3200J0D01*
G01*
X3268700Y511500D02*
G03*
X3267760Y513765I-3200J0D01*
G01*
X3221712Y546818D02*
G03*
X3221780Y545674I4288J-318D01*
G01*
X3225174Y542280D02*
G03*
X3230300Y546500I826J4220D01*
G01*
D02*
G03*
X3225682Y550788I-4300J0D01*
G01*
X3226500Y584700D02*
G03*
X3224237Y583763I0J-3200D01*
G01*
X3226500Y584700D02*
G03*
X3224234Y583760I0J-3200D01*
G01*
X3234174Y559280D02*
G03*
X3239300Y563500I826J4220D01*
G01*
D02*
G03*
X3230780Y562674I-4300J0D01*
G01*
X3257300Y572500D02*
G03*
X3249800Y569628I-4300J0D01*
G01*
X3256200D02*
G03*
X3257300Y572500I-3200J2872D01*
G01*
X3363500Y364800D02*
G03*
X3363500Y355200I0J-4800D01*
G01*
X3363076Y374781D02*
G03*
X3363500Y365200I424J-4781D01*
G01*
X3364500Y355200D02*
G03*
X3369300Y360000I0J4800D01*
G01*
Y370000D02*
G03*
X3364924Y374781I-4800J0D01*
G01*
X3345000Y385100D02*
G03*
X3346697Y385803I0J2400D01*
G01*
X3345000Y385100D02*
G03*
X3346697Y385803I0J2400D01*
G01*
X3356697Y395803D02*
G03*
X3357400Y397500I-1697J1697D01*
G01*
X3356697Y395803D02*
G03*
X3357400Y397500I-1697J1697D01*
G01*
X3341800Y402500D02*
G03*
X3339900Y406068I-4300J0D01*
G01*
X3364924Y374781D02*
G03*
X3369300Y380000I-924J5219D01*
G01*
X3362242Y385000D02*
G03*
X3363076Y374781I1758J-5000D01*
G01*
X3369300Y380000D02*
G03*
X3365758Y385000I-5300J0D01*
G01*
D02*
G03*
X3369300Y390000I-1758J5000D01*
G01*
X3362242Y395000D02*
G03*
X3362242Y385000I1758J-5000D01*
G01*
Y405000D02*
G03*
X3362242Y395000I1758J-5000D01*
G01*
X3369300Y390000D02*
G03*
X3365758Y395000I-5300J0D01*
G01*
D02*
G03*
X3369300Y400000I-1758J5000D01*
G01*
D02*
G03*
X3365758Y405000I-5300J0D01*
G01*
X3369300Y360000D02*
G03*
X3369246Y360720I-4800J0D01*
G01*
X3374763Y366237D02*
G03*
X3375700Y368500I-2263J2263D01*
G01*
X3374760Y366234D02*
G03*
X3375700Y368500I-2260J2266D01*
G01*
X3386000Y349600D02*
G03*
X3387697Y350303I0J2400D01*
G01*
X3386000Y349600D02*
G03*
X3387697Y350303I0J2400D01*
G01*
X3384100Y367500D02*
G03*
X3384803Y365803I2400J0D01*
G01*
X3384100Y367500D02*
G03*
X3384803Y365803I2400J0D01*
G01*
X3392242Y385000D02*
G03*
X3388900Y381442I1758J-5000D01*
G01*
Y388558D02*
G03*
X3392242Y385000I5100J1442D01*
G01*
Y395000D02*
G03*
X3388900Y391442I1758J-5000D01*
G01*
Y398558D02*
G03*
X3392242Y395000I5100J1442D01*
G01*
Y405000D02*
G03*
X3388900Y401442I1758J-5000D01*
G01*
X3362242Y415000D02*
G03*
X3362242Y405000I1758J-5000D01*
G01*
X3365758D02*
G03*
X3369300Y410000I-1758J5000D01*
G01*
D02*
G03*
X3365758Y415000I-5300J0D01*
G01*
X3362242Y425000D02*
G03*
X3362242Y415000I1758J-5000D01*
G01*
X3365758D02*
G03*
X3369300Y420000I-1758J5000D01*
G01*
D02*
G03*
X3365758Y425000I-5300J0D01*
G01*
D02*
G03*
X3369300Y430000I-1758J5000D01*
G01*
X3362242Y435000D02*
G03*
X3362242Y425000I1758J-5000D01*
G01*
X3369300Y430000D02*
G03*
X3365758Y435000I-5300J0D01*
G01*
X3353303Y442697D02*
G03*
X3352600Y441000I1697J-1697D01*
G01*
X3353303Y442697D02*
G03*
X3352600Y441000I1697J-1697D01*
G01*
X3351697Y448303D02*
G03*
X3352400Y450000I-1697J1697D01*
G01*
X3351697Y448303D02*
G03*
X3352400Y450000I-1697J1697D01*
G01*
X3358926Y441532D02*
G03*
X3362242Y435000I5074J-1532D01*
G01*
X3369300Y450000D02*
G03*
X3358961Y448356I-5300J0D01*
G01*
X3365758Y435000D02*
G03*
X3369300Y440000I-1758J5000D01*
G01*
D02*
G03*
X3365758Y445000I-5300J0D01*
G01*
D02*
G03*
X3369300Y450000I-1758J5000D01*
G01*
X3391930Y365464D02*
G03*
X3393500Y365200I1570J4536D01*
G01*
X3394500D02*
G03*
X3399300Y370000I0J4800D01*
G01*
X3393076Y374781D02*
G03*
X3388900Y371371I424J-4781D01*
G01*
Y378558D02*
G03*
X3393076Y374781I5100J1442D01*
G01*
X3399300Y370000D02*
G03*
X3394924Y374781I-4800J0D01*
G01*
D02*
G03*
X3399300Y380000I-924J5219D01*
G01*
D02*
G03*
X3399038Y381644I-5300J0D01*
G01*
X3399074Y388468D02*
G03*
X3399300Y390000I-5074J1532D01*
G01*
D02*
G03*
X3399038Y391644I-5300J0D01*
G01*
X3399074Y398468D02*
G03*
X3399300Y400000I-5074J1532D01*
G01*
D02*
G03*
X3399038Y401644I-5300J0D01*
G01*
X3388900Y408558D02*
G03*
X3392242Y405000I5100J1442D01*
G01*
Y415000D02*
G03*
X3388900Y411442I1758J-5000D01*
G01*
X3399074Y408468D02*
G03*
X3399300Y410000I-5074J1532D01*
G01*
D02*
G03*
X3399038Y411644I-5300J0D01*
G01*
X3388900Y418558D02*
G03*
X3392242Y415000I5100J1442D01*
G01*
X3399074Y418468D02*
G03*
X3399300Y420000I-5074J1532D01*
G01*
X3440300Y371083D02*
G03*
X3440300Y371083I-11800J0D01*
G01*
X3415197Y397803D02*
G03*
X3415900Y399500I-1697J1697D01*
G01*
X3415197Y397803D02*
G03*
X3415900Y399500I-1697J1697D01*
G01*
X3416833Y420750D02*
G03*
X3415900Y419859I3167J-4250D01*
G01*
Y413141D02*
G03*
X3425300Y416500I4100J3359D01*
G01*
D02*
G03*
X3423167Y420750I-5300J0D01*
G01*
X3433833D02*
G03*
X3442300Y416500I3167J-4250D01*
G01*
D02*
G03*
X3440166Y420750I-5300J0D01*
G01*
X3392242Y425000D02*
G03*
X3388900Y421442I1758J-5000D01*
G01*
Y428558D02*
G03*
X3392242Y425000I5100J1442D01*
G01*
X3399300Y420000D02*
G03*
X3399038Y421644I-5300J0D01*
G01*
X3392242Y435000D02*
G03*
X3388900Y431442I1758J-5000D01*
G01*
X3397100Y434299D02*
G03*
X3395758Y435000I-3100J-4299D01*
G01*
X3388900Y438558D02*
G03*
X3392242Y435000I5100J1442D01*
G01*
X3395758D02*
G03*
X3397100Y435701I-1758J5000D01*
G01*
X3392242Y445000D02*
G03*
X3388900Y441442I1758J-5000D01*
G01*
X3397100Y444299D02*
G03*
X3395758Y445000I-3100J-4299D01*
G01*
X3388900Y448558D02*
G03*
X3392242Y445000I5100J1442D01*
G01*
X3395758D02*
G03*
X3397100Y445701I-1758J5000D01*
G01*
X3415900Y421641D02*
G03*
X3416833Y420750I4100J3359D01*
G01*
X3423167D02*
G03*
X3423988Y421510I-3167J4250D01*
G01*
X3416833Y429250D02*
G03*
X3415900Y428359I3167J-4250D01*
G01*
Y430141D02*
G03*
X3416833Y429250I4100J3359D01*
G01*
X3423988Y428490D02*
G03*
X3423167Y429250I-3988J-3490D01*
G01*
X3423988Y421510D02*
G03*
X3430800Y425000I2512J3490D01*
G01*
X3425846Y429250D02*
G03*
X3423988Y428490I654J-4250D01*
G01*
X3423167Y429250D02*
G03*
X3423988Y430010I-3167J4250D01*
G01*
Y436990D02*
G03*
X3423167Y437750I-3988J-3490D01*
G01*
X3423988Y430010D02*
G03*
X3425846Y429250I2512J3490D01*
G01*
X3414703Y441809D02*
G03*
X3414962Y440356I5297J191D01*
G01*
X3423167Y437750D02*
G03*
X3425300Y442000I-3167J4250D01*
G01*
D02*
G03*
X3423167Y446250I-5300J0D01*
G01*
D02*
G03*
X3425300Y450500I-3167J4250D01*
G01*
X3430800Y433500D02*
G03*
X3423988Y436990I-4300J0D01*
G01*
X3397100Y454299D02*
G03*
X3388900Y451442I-3100J-4299D01*
G01*
X3397803Y457197D02*
G03*
X3397100Y455500I1697J-1697D01*
G01*
X3397803Y457197D02*
G03*
X3397100Y455500I1697J-1697D01*
G01*
X3414703Y450309D02*
G03*
X3414962Y448856I5297J191D01*
G01*
X3425300Y450500D02*
G03*
X3423167Y454750I-5300J0D01*
G01*
D02*
G03*
X3425300Y459000I-3167J4250D01*
G01*
X3414703Y458809D02*
G03*
X3414962Y457356I5297J191D01*
G01*
X3425300Y459000D02*
G03*
X3423167Y463250I-5300J0D01*
G01*
X3430800Y425000D02*
G03*
X3427154Y429250I-4300J0D01*
G01*
X3433833D02*
G03*
X3433833Y420750I3167J-4250D01*
G01*
X3440166D02*
G03*
X3442300Y425000I-3167J4250D01*
G01*
D02*
G03*
X3440166Y429250I-5300J0D01*
G01*
X3427154D02*
G03*
X3430800Y433500I-654J4250D01*
G01*
X3433833Y437750D02*
G03*
X3433833Y429250I3167J-4250D01*
G01*
X3440166D02*
G03*
X3442300Y433500I-3167J4250D01*
G01*
X3433833Y446250D02*
G03*
X3433833Y437750I3167J-4250D01*
G01*
Y454750D02*
G03*
X3433833Y446250I3167J-4250D01*
G01*
Y463250D02*
G03*
X3433833Y454750I3167J-4250D01*
G01*
X3442300Y433500D02*
G03*
X3440166Y437750I-5300J0D01*
G01*
D02*
G03*
X3442300Y442000I-3167J4250D01*
G01*
D02*
G03*
X3440166Y446250I-5300J0D01*
G01*
D02*
G03*
X3442300Y450500I-3167J4250D01*
G01*
D02*
G03*
X3440166Y454750I-5300J0D01*
G01*
D02*
G03*
X3442300Y459000I-3167J4250D01*
G01*
D02*
G03*
X3440166Y463250I-5300J0D01*
G01*
X3362242Y485000D02*
G03*
X3362242Y475000I1758J-5000D01*
G01*
D02*
G03*
X3364725Y464750I1758J-5000D01*
G01*
X3369250Y469275D02*
G03*
X3369300Y470000I-5250J725D01*
G01*
D02*
G03*
X3369250Y470725I-5300J0D01*
G01*
X3362242Y495000D02*
G03*
X3362242Y485000I1758J-5000D01*
G01*
X3369300Y480000D02*
G03*
X3365758Y485000I-5300J0D01*
G01*
D02*
G03*
X3369300Y490000I-1758J5000D01*
G01*
D02*
G03*
X3365758Y495000I-5300J0D01*
G01*
X3362242Y505000D02*
G03*
X3362242Y495000I1758J-5000D01*
G01*
Y515000D02*
G03*
X3362242Y505000I1758J-5000D01*
G01*
X3365758Y495000D02*
G03*
X3369300Y500000I-1758J5000D01*
G01*
D02*
G03*
X3365758Y505000I-5300J0D01*
G01*
D02*
G03*
X3369300Y510000I-1758J5000D01*
G01*
D02*
G03*
X3365758Y515000I-5300J0D01*
G01*
D02*
G03*
X3369300Y520000I-1758J5000D01*
G01*
X3375700Y461500D02*
G03*
X3374763Y463763I-3200J0D01*
G01*
X3375700Y461500D02*
G03*
X3374760Y463765I-3200J0D01*
G01*
X3384803Y464197D02*
G03*
X3384100Y462500I1697J-1697D01*
G01*
X3384803Y464197D02*
G03*
X3384100Y462500I1697J-1697D01*
G01*
X3375763Y477237D02*
G03*
X3376700Y479500I-2263J2263D01*
G01*
X3375760Y477235D02*
G03*
X3376700Y479500I-2260J2266D01*
G01*
X3393076Y484781D02*
G03*
X3393500Y475200I424J-4781D01*
G01*
X3388961Y491644D02*
G03*
X3393076Y484781I5038J-1644D01*
G01*
X3394500Y475200D02*
G03*
X3399300Y480000I0J4800D01*
G01*
D02*
G03*
X3394924Y484781I-4800J0D01*
G01*
D02*
G03*
X3399300Y490000I-924J5219D01*
G01*
D02*
G03*
X3395758Y495000I-5300J0D01*
G01*
X3384600Y497000D02*
G03*
X3385303Y495303I2400J0D01*
G01*
X3384600Y497000D02*
G03*
X3385303Y495303I2400J0D01*
G01*
X3392242Y505000D02*
G03*
X3389400Y502633I1758J-5000D01*
G01*
Y507368D02*
G03*
X3392242Y505000I4600J2633D01*
G01*
X3395758Y495000D02*
G03*
X3399300Y500000I-1758J5000D01*
G01*
D02*
G03*
X3395758Y505000I-5300J0D01*
G01*
D02*
G03*
X3399300Y510000I-1758J5000D01*
G01*
X3393076Y515219D02*
G03*
X3389400Y512633I924J-5219D01*
G01*
X3399300Y510000D02*
G03*
X3394924Y515219I-5300J0D01*
G01*
X3389400Y517504D02*
G03*
X3393076Y515219I4100J2496D01*
G01*
X3394924D02*
G03*
X3398657Y517600I-424J4781D01*
G01*
X3401697Y521697D02*
G03*
X3400000Y522400I-1697J-1697D01*
G01*
X3401697Y521697D02*
G03*
X3400000Y522400I-1697J-1697D01*
G01*
X3362242Y525000D02*
G03*
X3362242Y515000I1758J-5000D01*
G01*
Y535000D02*
G03*
X3362242Y525000I1758J-5000D01*
G01*
Y545000D02*
G03*
X3362242Y535000I1758J-5000D01*
G01*
X3358926Y551532D02*
G03*
X3362242Y545000I5074J-1532D01*
G01*
X3369300Y520000D02*
G03*
X3365758Y525000I-5300J0D01*
G01*
D02*
G03*
X3369300Y530000I-1758J5000D01*
G01*
D02*
G03*
X3365758Y535000I-5300J0D01*
G01*
D02*
G03*
X3369300Y540000I-1758J5000D01*
G01*
D02*
G03*
X3365758Y545000I-5300J0D01*
G01*
D02*
G03*
X3369300Y550000I-1758J5000D01*
G01*
X3348303Y547697D02*
G03*
X3347600Y546000I1697J-1697D01*
G01*
X3348303Y547697D02*
G03*
X3347600Y546000I1697J-1697D01*
G01*
X3364265Y583760D02*
G03*
X3362000Y584700I-2266J-2260D01*
G01*
X3364263Y583763D02*
G03*
X3362000Y584700I-2263J-2263D01*
G01*
X3369300Y550000D02*
G03*
X3365758Y555000I-5300J0D01*
G01*
D02*
G03*
X3369300Y560000I-1758J5000D01*
G01*
D02*
G03*
X3358961Y558356I-5300J0D01*
G01*
X3376700Y570000D02*
G03*
X3375763Y572263I-3200J0D01*
G01*
X3376700Y570000D02*
G03*
X3375760Y572265I-3200J0D01*
G01*
X3393500Y524800D02*
G03*
X3389400Y522496I0J-4800D01*
G01*
Y527504D02*
G03*
X3393500Y525200I4100J2496D01*
G01*
X3393076Y534781D02*
G03*
X3389400Y532496I424J-4781D01*
G01*
Y537367D02*
G03*
X3393076Y534781I4600J2633D01*
G01*
X3398657Y522400D02*
G03*
X3394500Y524800I-4157J-2400D01*
G01*
Y525200D02*
G03*
X3398657Y527600I0J4800D01*
G01*
X3401697Y531697D02*
G03*
X3400000Y532400I-1697J-1697D01*
G01*
X3401697Y531697D02*
G03*
X3400000Y532400I-1697J-1697D01*
G01*
X3398657D02*
G03*
X3394924Y534781I-4157J-2400D01*
G01*
D02*
G03*
X3398726Y537600I-924J5219D01*
G01*
Y542400D02*
G03*
X3394924Y545219I-4725J-2400D01*
G01*
X3401697Y541697D02*
G03*
X3400000Y542400I-1697J-1697D01*
G01*
X3401697Y541697D02*
G03*
X3400000Y542400I-1697J-1697D01*
G01*
X3385303Y553197D02*
G03*
X3384600Y551500I1697J-1697D01*
G01*
X3385303Y553197D02*
G03*
X3384600Y551500I1697J-1697D01*
G01*
X3389587Y557220D02*
G03*
X3388803Y556697I913J-2220D01*
G01*
X3389587Y557220D02*
G03*
X3388803Y556697I913J-2220D01*
G01*
X3393076Y545219D02*
G03*
X3389400Y542632I924J-5219D01*
G01*
Y547504D02*
G03*
X3393076Y545219I4100J2496D01*
G01*
X3394924D02*
G03*
X3398657Y547600I-424J4781D01*
G01*
X3401697Y551697D02*
G03*
X3400000Y552400I-1697J-1697D01*
G01*
X3401697Y551697D02*
G03*
X3400000Y552400I-1697J-1697D01*
G01*
X3393500Y564800D02*
G03*
X3389587Y557220I0J-4800D01*
G01*
X3398535Y557400D02*
G03*
X3399300Y560000I-4035J2600D01*
G01*
D02*
G03*
X3394500Y564800I-4800J0D01*
G01*
X3414703Y467309D02*
G03*
X3414962Y465856I5297J191D01*
G01*
X3423167Y463250D02*
G03*
X3425300Y467500I-3167J4250D01*
G01*
D02*
G03*
X3423167Y471750I-5300J0D01*
G01*
X3416833Y480250D02*
G03*
X3414962Y474356I3167J-4250D01*
G01*
Y486144D02*
G03*
X3416833Y480250I5038J-1644D01*
G01*
X3423167Y471750D02*
G03*
X3425300Y476000I-3167J4250D01*
G01*
D02*
G03*
X3423167Y480250I-5300J0D01*
G01*
D02*
G03*
X3425300Y484500I-3167J4250D01*
G01*
X3405600Y496500D02*
G03*
X3406303Y494803I2400J0D01*
G01*
X3405600Y496500D02*
G03*
X3406303Y494803I2400J0D01*
G01*
X3425300Y484500D02*
G03*
X3423167Y488750I-5300J0D01*
G01*
D02*
G03*
X3425300Y493000I-3167J4250D01*
G01*
X3414962Y494644D02*
G03*
X3414703Y493191I5038J-1644D01*
G01*
X3423603Y496887D02*
G03*
X3423167Y497250I-3603J-3887D01*
G01*
D02*
G03*
X3423600Y497610I-3167J4250D01*
G01*
X3433833Y471750D02*
G03*
X3433833Y463250I3167J-4250D01*
G01*
X3429846Y480250D02*
G03*
X3433012Y472510I654J-4250D01*
G01*
Y479490D02*
G03*
X3431154Y480250I-2512J-3490D01*
G01*
X3433012Y472510D02*
G03*
X3433833Y471750I3988J3490D01*
G01*
Y480250D02*
G03*
X3433012Y479490I3167J-4250D01*
G01*
Y487990D02*
G03*
X3429846Y480250I-2512J-3490D01*
G01*
X3431154D02*
G03*
X3433012Y481010I-654J4250D01*
G01*
D02*
G03*
X3433833Y480250I3988J3490D01*
G01*
Y488750D02*
G03*
X3433012Y487990I3167J-4250D01*
G01*
X3440166Y463250D02*
G03*
X3442300Y467500I-3167J4250D01*
G01*
D02*
G03*
X3440166Y471750I-5300J0D01*
G01*
D02*
G03*
X3442300Y476000I-3167J4250D01*
G01*
D02*
G03*
X3440166Y480250I-5300J0D01*
G01*
D02*
G03*
X3442300Y484500I-3167J4250D01*
G01*
D02*
G03*
X3440166Y488750I-5300J0D01*
G01*
X3428303Y491303D02*
G03*
X3430000Y490600I1697J1697D01*
G01*
X3428303Y491303D02*
G03*
X3430000Y490600I1697J1697D01*
G01*
X3425300Y493000D02*
G03*
X3425074Y494532I-5300J0D01*
G01*
X3432275Y490600D02*
G03*
X3433833Y488750I4725J2400D01*
G01*
Y497250D02*
G03*
X3432275Y495400I3167J-4250D01*
G01*
X3429846Y505750D02*
G03*
X3428400Y505252I654J-4250D01*
G01*
X3428875Y497519D02*
G03*
X3433012Y498010I1625J3981D01*
G01*
Y504990D02*
G03*
X3431154Y505750I-2512J-3490D01*
G01*
X3428400Y506248D02*
G03*
X3429846Y505750I2100J3752D01*
G01*
X3433012Y513490D02*
G03*
X3428400Y513752I-2512J-3490D01*
G01*
X3433012Y498010D02*
G03*
X3433833Y497250I3988J3490D01*
G01*
Y505750D02*
G03*
X3433012Y504990I3167J-4250D01*
G01*
X3431154Y505750D02*
G03*
X3433012Y506510I-654J4250D01*
G01*
D02*
G03*
X3433833Y505750I3988J3490D01*
G01*
X3440166Y488750D02*
G03*
X3442300Y493000I-3167J4250D01*
G01*
D02*
G03*
X3440166Y497250I-5300J0D01*
G01*
D02*
G03*
X3442300Y501500I-3167J4250D01*
G01*
D02*
G03*
X3440166Y505750I-5300J0D01*
G01*
D02*
G03*
X3442300Y510000I-3167J4250D01*
G01*
D02*
G03*
X3433012Y513490I-5300J0D01*
G01*
X3416900Y525500D02*
G03*
X3416197Y527197I-2400J0D01*
G01*
X3408197Y556697D02*
G03*
X3406500Y557400I-1697J-1697D01*
G01*
X3408197Y556697D02*
G03*
X3406500Y557400I-1697J-1697D01*
G01*
X3416900Y525500D02*
G03*
X3416197Y527197I-2400J0D01*
G01*
X3422400Y530000D02*
G03*
X3421697Y531697I-2400J0D01*
G01*
X3422400Y530000D02*
G03*
X3421697Y531697I-2400J0D01*
G01*
X3428400Y535500D02*
G03*
X3427697Y537197I-2400J0D01*
G01*
X3428400Y535500D02*
G03*
X3427697Y537197I-2400J0D01*
G01*
X3440300Y555417D02*
G03*
X3440300Y555417I-11800J0D01*
G01*
X3267000Y397500D02*
X3315000Y445000D01*
Y455500D01*
X3285500D02*
X3315000D01*
X3267000Y437000D02*
X3285500Y455500D01*
X3259000Y437000D02*
X3267000D01*
X3257000Y439000D02*
X3259000Y437000D01*
X3257000Y439000D02*
Y454500D01*
X3260500Y458000D01*
Y506500D01*
X3240000Y527000D02*
X3260500Y506500D01*
X3252500Y572000D02*
X3253000Y572500D01*
X3420000Y433500D02*
X3426500D01*
X3242000Y422000D02*
X3252000D01*
X3232000Y432000D02*
X3242000Y422000D01*
X3232000Y432000D02*
Y485500D01*
X3386000Y352000D02*
X3394000Y360000D01*
X3306500Y352000D02*
X3386000D01*
X3287000Y371500D02*
X3306500Y352000D01*
X3386500Y367500D02*
X3394000Y360000D01*
X3386500Y367500D02*
Y462500D01*
X3394000Y470000D01*
X3355000Y441000D02*
X3364000Y450000D01*
X3355000Y397500D02*
Y441000D01*
X3345000Y387500D02*
X3355000Y397500D01*
X3285500Y387500D02*
X3345000D01*
X3275500Y377500D02*
X3285500Y387500D01*
X3228000Y419500D02*
X3230000Y417500D01*
X3228000Y419500D02*
Y491000D01*
X3238900Y502500D01*
X3394000Y400000D02*
X3406500Y412500D01*
Y445500D01*
X3420000Y459000D01*
X3394000Y390000D02*
X3410000Y406000D01*
Y440500D01*
X3420000Y450500D01*
X3394000Y380000D02*
X3413500Y399500D01*
Y435500D01*
X3420000Y442000D01*
Y416500D02*
X3437000D01*
X3428500Y408000D02*
X3437000Y416500D01*
X3428500Y371083D02*
Y408000D01*
X3219500Y404000D02*
X3250500Y373000D01*
X3219500Y404000D02*
Y412500D01*
X3275000Y422000D02*
X3300500Y447500D01*
X3262000Y422000D02*
X3275000D01*
X3257000Y427000D02*
X3262000Y422000D01*
X3246000Y427000D02*
X3257000D01*
X3246000D02*
Y466000D01*
X3219500Y412500D02*
X3252500D01*
X3262000Y422000D01*
X3428500Y542500D02*
Y555417D01*
Y542500D02*
X3444000Y527000D01*
Y474500D02*
Y527000D01*
X3437000Y467500D02*
X3444000Y474500D01*
X3215000Y417000D02*
X3219500Y412500D01*
X3215000Y417000D02*
Y476500D01*
X3196500Y495000D02*
X3215000Y476500D01*
X3098000Y495000D02*
X3196500D01*
X3057000Y527000D02*
Y530000D01*
Y527000D02*
X3064000Y520000D01*
X3075000D01*
X3388000Y560000D02*
X3394000D01*
X3384500Y556500D02*
X3388000Y560000D01*
X3384500Y480500D02*
Y556500D01*
Y480500D02*
X3390000Y475000D01*
X3400000D01*
Y465500D02*
Y475000D01*
X3394000Y459500D02*
X3400000Y465500D01*
X3394000Y450000D02*
Y459500D01*
Y420000D02*
X3399500Y425500D01*
Y455500D01*
X3420000Y476000D01*
X3394000Y410000D02*
X3403000Y419000D01*
Y450500D01*
X3420000Y467500D01*
X3198000Y518500D02*
X3226000Y546500D01*
X3113000Y519000D02*
X3198000Y518500D01*
X3092000Y540000D02*
X3113000Y519000D01*
X3065000Y540000D02*
X3092000D01*
X3194500Y523000D02*
X3235000Y563500D01*
X3119500Y523000D02*
X3194500D01*
X3093000Y549500D02*
X3119500Y523000D01*
X3062500Y549500D02*
X3093000D01*
X3057000Y544000D02*
X3062500Y549500D01*
X3057000Y540000D02*
Y544000D01*
X3430500Y484500D02*
X3437000D01*
X3430000Y493000D02*
X3437000D01*
X3426000Y497000D02*
X3430000Y493000D01*
X3426000Y497000D02*
Y535500D01*
X3406500Y555000D02*
X3426000Y535500D01*
X3390500Y555000D02*
X3406500D01*
X3387000Y551500D02*
X3390500Y555000D01*
X3387000Y497000D02*
Y551500D01*
Y497000D02*
X3394000Y490000D01*
X3430500Y501500D02*
X3437000D01*
X3408000Y496500D02*
X3420000Y484500D01*
X3408000Y496500D02*
Y512000D01*
X3400000Y520000D02*
X3408000Y512000D01*
X3394000Y520000D02*
X3400000D01*
X3412000Y501000D02*
X3420000Y493000D01*
X3412000Y501000D02*
Y518000D01*
X3400000Y530000D02*
X3412000Y518000D01*
X3394000Y530000D02*
X3400000D01*
X3394000Y540000D02*
X3400000D01*
X3414500Y525500D01*
Y503500D02*
Y525500D01*
Y503500D02*
X3416500Y501500D01*
X3420000D01*
X3394000Y550000D02*
X3400000D01*
X3420000Y530000D01*
Y510000D02*
Y530000D01*
Y425000D02*
X3426500D01*
X3337500Y402500D02*
Y437500D01*
X3350000Y450000D01*
Y546000D01*
X3364000Y560000D01*
X3231000Y520000D02*
Y527000D01*
Y520000D02*
X3245000Y506000D01*
Y498500D02*
Y506000D01*
X3232000Y485500D02*
X3245000Y498500D01*
X3208800Y414000D02*
X3227502D01*
X3225600Y347300D02*
Y419500D01*
X3208800Y362400D02*
X3245234D01*
X3208800Y417600D02*
X3225701D01*
X3208800Y418800D02*
X3225704D01*
X3208800Y415200D02*
X3226367D01*
X3208800Y416400D02*
X3225843D01*
X3228000Y347300D02*
Y413693D01*
X3226800Y347300D02*
Y414628D01*
X3230400Y347300D02*
Y413219D01*
X3229200Y347300D02*
Y413275D01*
X3231600Y347300D02*
Y413509D01*
X3232800Y347300D02*
Y414237D01*
X3234000Y347300D02*
Y415922D01*
X3208800Y420000D02*
X3225600D01*
X3234000Y419078D02*
Y426606D01*
X3208800Y421200D02*
X3225600D01*
X3232800Y420763D02*
Y427806D01*
X3233499Y420000D02*
X3240673D01*
X3230400Y430206D02*
X3240303Y420303D01*
X3236400Y347300D02*
Y424206D01*
X3235200Y347300D02*
Y425406D01*
X3238800Y347300D02*
Y421806D01*
X3237600Y347300D02*
Y423006D01*
X3241200Y347300D02*
Y419737D01*
X3240000Y347300D02*
Y420606D01*
X3242400Y347300D02*
Y419600D01*
X3208800Y361200D02*
X3245515D01*
X3208800Y363600D02*
X3245234D01*
X3208800Y358800D02*
X3247268D01*
X3208800Y360000D02*
X3246131D01*
X3208800Y364800D02*
X3245515D01*
X3208800Y366000D02*
X3246131D01*
X3208800Y367200D02*
X3247268D01*
X3208800Y368400D02*
X3247868D01*
X3208800Y372000D02*
X3245295D01*
X3208800Y373200D02*
X3245204D01*
X3208800Y369600D02*
X3246434D01*
X3208800Y370800D02*
X3245678D01*
X3208800Y374400D02*
X3245388D01*
X3208800Y375600D02*
X3245882D01*
X3208800Y376800D02*
X3246806D01*
X3208800Y378000D02*
X3248742D01*
X3208800Y379200D02*
X3246806D01*
X3208800Y381600D02*
X3245388D01*
X3208800Y382800D02*
X3245204D01*
X3208800Y380400D02*
X3245882D01*
X3208800Y384000D02*
X3245295D01*
X3208800Y385200D02*
X3245678D01*
X3208800Y386400D02*
X3246434D01*
X3208800Y387600D02*
X3247868D01*
X3208800Y393600D02*
X3265189D01*
X3208800Y396000D02*
X3262970D01*
X3208800Y397200D02*
X3262711D01*
X3208800Y394800D02*
X3263654D01*
X3208800Y398400D02*
X3262795D01*
X3234099Y418800D02*
X3248289D01*
X3242000Y419600D02*
X3247728D01*
X3208800Y399600D02*
X3263248D01*
X3208800Y400800D02*
X3264243D01*
X3234299Y417600D02*
X3249844D01*
X3208800Y422400D02*
X3225600D01*
X3208800Y423600D02*
X3225600D01*
X3208800Y424800D02*
X3225600D01*
X3208800Y426000D02*
X3225600D01*
X3208800Y427200D02*
X3225600D01*
X3208800Y428400D02*
X3225600D01*
X3208800Y429600D02*
X3225600D01*
X3208800Y430800D02*
X3225600D01*
X3230400Y421781D02*
Y430206D01*
Y421781D02*
Y430206D01*
Y428400D02*
X3232206D01*
X3231600Y421491D02*
Y429006D01*
X3208800Y432000D02*
X3225600D01*
X3208800Y433200D02*
X3225600D01*
X3230400Y429600D02*
X3231006D01*
X3208800Y434400D02*
X3225600D01*
X3208800Y435600D02*
X3225600D01*
X3208800Y436800D02*
X3225600D01*
X3208800Y438000D02*
X3225600D01*
X3208800Y439200D02*
X3225600D01*
X3208800Y440400D02*
X3225600D01*
X3208800Y441600D02*
X3225600D01*
X3208800Y442800D02*
X3225600D01*
X3208800Y444000D02*
X3225600D01*
X3208800Y445200D02*
X3225600D01*
X3208800Y446400D02*
X3225600D01*
X3208800Y447600D02*
X3225600D01*
X3208800Y448800D02*
X3225600D01*
X3208800Y450000D02*
X3225600D01*
X3208800Y451200D02*
X3225600D01*
X3208800Y452400D02*
X3225600D01*
X3208800Y453600D02*
X3225600D01*
X3208800Y454800D02*
X3225600D01*
X3208800Y456000D02*
X3225600D01*
X3230400Y422400D02*
X3238206D01*
X3230400Y423600D02*
X3237006D01*
X3232191Y421200D02*
X3239406D01*
X3234400Y432994D02*
X3242994Y424400D01*
X3230400Y426000D02*
X3234606D01*
X3230400Y427200D02*
X3233406D01*
X3230400Y424800D02*
X3235806D01*
X3234400Y433200D02*
X3247249D01*
X3238994Y428400D02*
X3248676D01*
X3237794Y429600D02*
X3247728D01*
X3241394Y426000D02*
X3249170D01*
X3240194Y427200D02*
X3251015D01*
X3236594Y430800D02*
X3247249D01*
X3235394Y432000D02*
X3247100D01*
X3234400Y434400D02*
X3247728D01*
X3234400Y435600D02*
X3248676D01*
X3234400Y436800D02*
X3251015D01*
X3234400Y438000D02*
X3247100D01*
X3234400Y439200D02*
X3247100D01*
X3234400Y440400D02*
X3247100D01*
X3234400Y441600D02*
X3247100D01*
X3234400Y442800D02*
X3247100D01*
X3234400Y444000D02*
X3247100D01*
X3234400Y445200D02*
X3247100D01*
X3234400Y446400D02*
X3247100D01*
X3241200Y426194D02*
Y455220D01*
X3240000Y427394D02*
Y455839D01*
X3234400Y447600D02*
X3254600D01*
X3234400Y448800D02*
X3254600D01*
X3234400Y450000D02*
X3254600D01*
X3234400Y454800D02*
X3242285D01*
X3234400Y451200D02*
X3254600D01*
X3234400Y452400D02*
X3254600D01*
X3234400Y453600D02*
X3254600D01*
X3247200Y347300D02*
Y358853D01*
X3246000Y347300D02*
Y360200D01*
X3249600Y347300D02*
Y357777D01*
X3248400Y347300D02*
Y358134D01*
X3247200Y367147D02*
Y368853D01*
X3246000Y365800D02*
Y370200D01*
X3250800Y347300D02*
Y357709D01*
X3252000Y347300D02*
Y357917D01*
X3253200Y347300D02*
Y358439D01*
X3254400Y347300D02*
Y359411D01*
X3253200Y367561D02*
Y368439D01*
X3254400Y366589D02*
Y369411D01*
X3255600Y347300D02*
Y361558D01*
Y364442D02*
Y371558D01*
X3243600Y347300D02*
Y419600D01*
X3244800Y347300D02*
Y419600D01*
X3247200Y377147D02*
Y378853D01*
X3246000Y375800D02*
Y380200D01*
Y385800D02*
Y419600D01*
X3243600Y424400D02*
Y454447D01*
X3247200Y387147D02*
Y419600D01*
X3242994Y424400D02*
X3247728D01*
X3253200Y377561D02*
Y378439D01*
X3254400Y376589D02*
Y379411D01*
X3255600Y374442D02*
Y381558D01*
X3254400Y386589D02*
Y417728D01*
X3249600Y388223D02*
Y417728D01*
X3248400Y387866D02*
Y418676D01*
X3252000Y388083D02*
Y417100D01*
X3250800Y388292D02*
Y417249D01*
X3253200Y387561D02*
Y417249D01*
X3259200Y347300D02*
Y417979D01*
X3254156Y417600D02*
X3259843D01*
X3261600Y347300D02*
Y417116D01*
X3260400Y347300D02*
Y417369D01*
X3264000Y347300D02*
Y394419D01*
X3262800Y347300D02*
Y396578D01*
Y398422D02*
Y417166D01*
X3264000Y400581D02*
Y417527D01*
X3266400Y347300D02*
Y393242D01*
X3265200Y347300D02*
Y393595D01*
Y401405D02*
Y418289D01*
X3255600Y384442D02*
Y418676D01*
X3256800Y347300D02*
Y421015D01*
X3255711Y418800D02*
X3258289D01*
X3256834Y421200D02*
X3257166D01*
X3256473Y420000D02*
X3257527D01*
X3256631Y423600D02*
X3257368D01*
X3258000Y347300D02*
Y419170D01*
X3266400Y401758D02*
Y419844D01*
X3256800Y422985D02*
Y431015D01*
X3266400Y424156D02*
Y429844D01*
X3242594Y424800D02*
X3247979D01*
X3247200Y424400D02*
Y431015D01*
X3249600Y426272D02*
Y427728D01*
X3248400Y425324D02*
Y428676D01*
X3247200Y432985D02*
Y437100D01*
X3248400Y435324D02*
Y437100D01*
X3250800Y426751D02*
Y427249D01*
X3253200Y426751D02*
Y427249D01*
X3254400Y426272D02*
Y427728D01*
X3255600Y425324D02*
Y428676D01*
X3256751Y430800D02*
X3257249D01*
X3255600Y435324D02*
Y437006D01*
X3252985Y436800D02*
X3255806D01*
X3256751Y433200D02*
X3257249D01*
X3255324Y435600D02*
X3257006D01*
X3256800Y432985D02*
Y435806D01*
X3244800Y424400D02*
Y454261D01*
X3242400Y424994D02*
Y454763D01*
X3247100Y437100D02*
X3255506D01*
X3246000Y424400D02*
Y454200D01*
X3247100Y437100D02*
Y446900D01*
X3247200D02*
Y454261D01*
X3247100Y446900D02*
X3254600D01*
X3248400D02*
Y454447D01*
X3249600Y436272D02*
Y437100D01*
X3250800Y436751D02*
Y437100D01*
X3253200Y436751D02*
Y437100D01*
X3254400Y436272D02*
Y437100D01*
X3249600Y446900D02*
Y454763D01*
X3250800Y446900D02*
Y455220D01*
X3254600Y446900D02*
Y454500D01*
X3249715Y454800D02*
X3254619D01*
X3252000Y446900D02*
Y455839D01*
X3256021Y424800D02*
X3257979D01*
X3254830Y426000D02*
X3259170D01*
X3252985Y427200D02*
X3261015D01*
X3256272Y429600D02*
X3257728D01*
X3256272Y434400D02*
X3257728D01*
X3255324Y428400D02*
X3258676D01*
X3259200Y426021D02*
Y427979D01*
X3258000Y424830D02*
Y429170D01*
X3264000Y426473D02*
Y427527D01*
X3265200Y425711D02*
Y428289D01*
X3262800Y426834D02*
Y427166D01*
X3260400Y426631D02*
Y427369D01*
X3266400Y434156D02*
Y434600D01*
X3266153D02*
X3267000D01*
X3255506Y437100D02*
X3257303Y435303D01*
X3259400Y446400D02*
X3259843D01*
X3259400Y447600D02*
X3262300D01*
X3259400Y448800D02*
X3262300D01*
X3259400Y450000D02*
X3262300D01*
X3259400Y451200D02*
X3262300D01*
X3259400Y446153D02*
Y453506D01*
X3266631Y440400D02*
X3267006D01*
X3260400Y446631D02*
Y454506D01*
X3261600Y446884D02*
Y455706D01*
X3259400Y452400D02*
X3262300D01*
X3259494Y453600D02*
X3262300D01*
X3260694Y454800D02*
X3262300D01*
X3038400Y477300D02*
Y502419D01*
X3037200Y477300D02*
Y503737D01*
X3040800Y477300D02*
Y500668D01*
X3039600Y477300D02*
Y501428D01*
X3043200Y477300D02*
Y499671D01*
X3042000Y477300D02*
Y500092D01*
X3045600Y477300D02*
Y499234D01*
X3044400Y477300D02*
Y499388D01*
X3046800Y477300D02*
Y499204D01*
X3048000Y477300D02*
Y499296D01*
X3049200Y477300D02*
Y499513D01*
X3050400Y477300D02*
Y499863D01*
X3051600Y477300D02*
Y500359D01*
X3052800Y477300D02*
Y501022D01*
X3054000Y477300D02*
Y501890D01*
X3055200Y477300D02*
Y503028D01*
X3019300Y477300D02*
Y584700D01*
X3020400Y477300D02*
Y584700D01*
X3021600Y477300D02*
Y584700D01*
X3022800Y477300D02*
Y584700D01*
X3024000Y477300D02*
Y584700D01*
X3025200Y477300D02*
Y584700D01*
X3026400Y477300D02*
Y584700D01*
X3027600Y477300D02*
Y584700D01*
X3028800Y477300D02*
Y584700D01*
X3030000Y477300D02*
Y584700D01*
X3031200Y477300D02*
Y584700D01*
X3032400Y477300D02*
Y584700D01*
X3034800Y477300D02*
Y509467D01*
X3033600Y477300D02*
Y584700D01*
X3056400Y477300D02*
Y504579D01*
X3036000Y477300D02*
Y505616D01*
X3057600Y477300D02*
Y506996D01*
X3058800Y477300D02*
Y524265D01*
X3060000Y477300D02*
Y524881D01*
X3019300Y477300D02*
X3206500D01*
X3061200D02*
Y525555D01*
X3063600Y477300D02*
Y524138D01*
X3062400Y477300D02*
Y524632D01*
X3064800Y477300D02*
Y523954D01*
X3066000Y477300D02*
Y524045D01*
X3067200Y477300D02*
Y524428D01*
X3068400Y477300D02*
Y525184D01*
X3074400Y477300D02*
Y525742D01*
X3075600Y477300D02*
Y525742D01*
X3093600Y477300D02*
Y491221D01*
X3092400Y477300D02*
Y493490D01*
X3097200Y477300D02*
Y489255D01*
X3094800Y477300D02*
Y490163D01*
X3096000Y477300D02*
Y489556D01*
X3069600Y477300D02*
Y526617D01*
X3070800Y477300D02*
Y526800D01*
X3073200Y477300D02*
Y526095D01*
X3072000Y477300D02*
Y526800D01*
X3076800Y477300D02*
Y526095D01*
X3078000Y477300D02*
Y526919D01*
X3079200Y477300D02*
Y529078D01*
X3080400Y477300D02*
Y537600D01*
X3081600Y477300D02*
Y537600D01*
X3082800Y477300D02*
Y537600D01*
X3084000Y477300D02*
Y537600D01*
X3085200Y477300D02*
Y537600D01*
X3086400Y477300D02*
Y537600D01*
X3087600Y477300D02*
Y537600D01*
X3091200Y477300D02*
Y537406D01*
X3088800Y477300D02*
Y537600D01*
X3090000Y477300D02*
Y537600D01*
X3098400Y477300D02*
Y489214D01*
X3099600Y477300D02*
Y489425D01*
X3100800Y477300D02*
Y489921D01*
X3102000Y477300D02*
Y490800D01*
X3103200Y477300D02*
Y492431D01*
X3112800Y477300D02*
Y516608D01*
X3114000Y477300D02*
Y516594D01*
X3115200Y477300D02*
Y516587D01*
X3116400Y477300D02*
Y516580D01*
X3117600Y477300D02*
Y516573D01*
X3118800Y477300D02*
Y516566D01*
X3120000Y477300D02*
Y516559D01*
X3121200Y477300D02*
Y516552D01*
X3122400Y477300D02*
Y516545D01*
X3123600Y477300D02*
Y516538D01*
X3124800Y477300D02*
Y516531D01*
X3126000Y477300D02*
Y516524D01*
X3105600Y477300D02*
Y523006D01*
X3104400Y477300D02*
Y524206D01*
X3108000Y477300D02*
Y520606D01*
X3106800Y477300D02*
Y521806D01*
X3110400Y477300D02*
Y518206D01*
X3109200Y477300D02*
Y519406D01*
X3127200Y477300D02*
Y516516D01*
X3111600Y477300D02*
Y517051D01*
X3128400Y477300D02*
Y516509D01*
X3129600Y477300D02*
Y516502D01*
X3130800Y477300D02*
Y516495D01*
X3132000Y477300D02*
Y516488D01*
X3133200Y477300D02*
Y516481D01*
X3134400Y477300D02*
Y516474D01*
X3135600Y477300D02*
Y516467D01*
X3136800Y477300D02*
Y516460D01*
X3138000Y477300D02*
Y516453D01*
X3152400Y477300D02*
Y516368D01*
X3153600Y477300D02*
Y516361D01*
X3154800Y477300D02*
Y516354D01*
X3156000Y477300D02*
Y516347D01*
X3157200Y477300D02*
Y516340D01*
X3158400Y477300D02*
Y516333D01*
X3019300Y477600D02*
X3225600D01*
X3159600Y477300D02*
Y516326D01*
X3160800Y477300D02*
Y516319D01*
X3162000Y477300D02*
Y516312D01*
X3163200Y477300D02*
Y516305D01*
X3164400Y477300D02*
Y516298D01*
X3165600Y477300D02*
Y516291D01*
X3166800Y477300D02*
Y516284D01*
X3168000Y477300D02*
Y516276D01*
X3169200Y477300D02*
Y516269D01*
X3170400Y477300D02*
Y516262D01*
X3139200Y477300D02*
Y516446D01*
X3140400Y477300D02*
Y516439D01*
X3141600Y477300D02*
Y516432D01*
X3142800Y477300D02*
Y516425D01*
X3144000Y477300D02*
Y516418D01*
X3145200Y477300D02*
Y516410D01*
X3146400Y477300D02*
Y516403D01*
X3147600Y477300D02*
Y516396D01*
X3148800Y477300D02*
Y516389D01*
X3150000Y477300D02*
Y516382D01*
X3171600Y477300D02*
Y516255D01*
X3151200Y477300D02*
Y516375D01*
X3172800Y477300D02*
Y516248D01*
X3174000Y477300D02*
Y516241D01*
X3175200Y477300D02*
Y516234D01*
X3176400Y477300D02*
Y516227D01*
X3177600Y477300D02*
Y516220D01*
X3208800Y457200D02*
X3225600D01*
X3208800Y458400D02*
X3225600D01*
X3208800Y459600D02*
X3225600D01*
X3208800Y460800D02*
X3225600D01*
X3208800Y462000D02*
X3225600D01*
X3208800Y463200D02*
X3225600D01*
X3208800Y464400D02*
X3225600D01*
X3208800Y465600D02*
X3225600D01*
X3234400Y432994D02*
Y463837D01*
X3208800Y347300D02*
Y475000D01*
X3234400Y459600D02*
X3236086D01*
X3235200Y432194D02*
Y461246D01*
X3208800Y466800D02*
X3225600D01*
X3208800Y468000D02*
X3225600D01*
X3234400Y460800D02*
X3235408D01*
X3208800Y469200D02*
X3225600D01*
X3234400Y462000D02*
X3234899D01*
X3208800Y347300D02*
Y475000D01*
X3210000Y347300D02*
Y527106D01*
X3211200Y347300D02*
Y528306D01*
X3212400Y347300D02*
Y529506D01*
X3213600Y347300D02*
Y530706D01*
X3214800Y347300D02*
Y531906D01*
X3216000Y347300D02*
Y533106D01*
X3217200Y347300D02*
Y534306D01*
X3218400Y347300D02*
Y535506D01*
X3219600Y347300D02*
Y536706D01*
X3220800Y347300D02*
Y537906D01*
X3222000Y347300D02*
Y539106D01*
X3223200Y347300D02*
Y540306D01*
X3224400Y347300D02*
Y541506D01*
X3234400Y468163D02*
Y484506D01*
X3225600Y419500D02*
Y491000D01*
Y419500D02*
Y491000D01*
X3237600Y429794D02*
Y457713D01*
X3236400Y430994D02*
Y459138D01*
X3238800Y428594D02*
Y456651D01*
X3253200Y446900D02*
Y456651D01*
X3234400Y457200D02*
X3238139D01*
X3234400Y458400D02*
X3236974D01*
X3234400Y456000D02*
X3239736D01*
X3252264D02*
X3255127D01*
X3254400Y446900D02*
Y457713D01*
X3262300Y446891D02*
Y456413D01*
X3259400Y453506D02*
X3262197Y456303D01*
X3253861Y457200D02*
X3256306D01*
X3261894Y456000D02*
X3262300D01*
X3255027Y458400D02*
X3257506D01*
X3255303Y456197D02*
X3258100Y458994D01*
X3255600Y456494D02*
Y459138D01*
X3255914Y459600D02*
X3258100D01*
X3256593Y460800D02*
X3258100D01*
X3256800Y457694D02*
Y461246D01*
X3258000Y458894D02*
Y505606D01*
X3257101Y462000D02*
X3258100D01*
Y458994D02*
Y505506D01*
X3257463Y463200D02*
X3258100D01*
X3257691Y464400D02*
X3258100D01*
X3257793Y465600D02*
X3258100D01*
X3257773Y466800D02*
X3258100D01*
X3257629Y468000D02*
X3258100D01*
X3178800Y477300D02*
Y516213D01*
X3180000Y477300D02*
Y516206D01*
X3181200Y477300D02*
Y516199D01*
X3182400Y477300D02*
Y516192D01*
X3183600Y477300D02*
Y516185D01*
X3184800Y477300D02*
Y516178D01*
X3186000Y477300D02*
Y516171D01*
X3187200Y477300D02*
Y516163D01*
X3208800Y470400D02*
X3225600D01*
X3208800Y471600D02*
X3225600D01*
X3208800Y472800D02*
X3225600D01*
X3208800Y474000D02*
X3225600D01*
X3188400Y477300D02*
Y516156D01*
X3208791Y475200D02*
X3225600D01*
X3208325Y476400D02*
X3225600D01*
X3189600Y477300D02*
Y516149D01*
X3190800Y477300D02*
Y516142D01*
X3192000Y477300D02*
Y516135D01*
X3193200Y477300D02*
Y516128D01*
X3194400Y477300D02*
Y516121D01*
X3195600Y477300D02*
Y516114D01*
X3196800Y477300D02*
Y516107D01*
X3198000Y477300D02*
Y516100D01*
X3199200Y477300D02*
Y516422D01*
X3200400Y477300D02*
Y517506D01*
X3207600Y477020D02*
Y524706D01*
X3208800Y475000D02*
Y525906D01*
X3201600Y477300D02*
Y518706D01*
X3202800Y477300D02*
Y519906D01*
X3204000Y477300D02*
Y521106D01*
X3205200Y477300D02*
Y522306D01*
X3206400Y477300D02*
Y523506D01*
X3234400Y470400D02*
X3235051D01*
X3235200Y470754D02*
Y485306D01*
X3234400Y471600D02*
X3235614D01*
X3234400Y472800D02*
X3236356D01*
X3234400Y474000D02*
X3237326D01*
X3234400Y475200D02*
X3238611D01*
X3234400Y476400D02*
X3240425D01*
X3234400Y477600D02*
X3243837D01*
X3257358Y469200D02*
X3258100D01*
X3236400Y472861D02*
Y486506D01*
X3256949Y470400D02*
X3258100D01*
X3256387Y471600D02*
X3258100D01*
X3255643Y472800D02*
X3258100D01*
X3254674Y474000D02*
X3258100D01*
X3253389Y475200D02*
X3258100D01*
X3248163Y477600D02*
X3258100D01*
X3251575Y476400D02*
X3258100D01*
X3237600Y474287D02*
Y487706D01*
X3238800Y475349D02*
Y488906D01*
X3240000Y476161D02*
Y490106D01*
X3241200Y476780D02*
Y491306D01*
X3242400Y477237D02*
Y492506D01*
X3243600Y477553D02*
Y493706D01*
X3244800Y477739D02*
Y494906D01*
X3246000Y477800D02*
Y496106D01*
X3254400Y474287D02*
Y509206D01*
X3253200Y475349D02*
Y510406D01*
X3256800Y470754D02*
Y506806D01*
X3255600Y472861D02*
Y508006D01*
X3247200Y477739D02*
Y497541D01*
X3248400Y477553D02*
Y515206D01*
X3252000Y476161D02*
Y511606D01*
X3249600Y477237D02*
Y514006D01*
X3250800Y476780D02*
Y512806D01*
X3255322Y370800D02*
X3282758D01*
X3272400Y347300D02*
Y374520D01*
X3253133Y368400D02*
X3284020D01*
X3254566Y369600D02*
X3283142D01*
X3255612Y374400D02*
X3272520D01*
X3255119Y375600D02*
X3271643D01*
X3255705Y372000D02*
X3282729D01*
X3255796Y373200D02*
X3275500D01*
X3274800Y347300D02*
Y373257D01*
X3273600Y347300D02*
Y373642D01*
X3276000Y347300D02*
Y373229D01*
X3277200Y347300D02*
Y373550D01*
X3278400Y347300D02*
Y374325D01*
X3279600Y347300D02*
Y376204D01*
X3283200Y347300D02*
Y369488D01*
X3275500Y373200D02*
X3283050D01*
X3267600Y347300D02*
Y393242D01*
X3268800Y347300D02*
Y393595D01*
X3254195Y376800D02*
X3271257D01*
X3270000Y347300D02*
Y394419D01*
X3252258Y378000D02*
X3271229D01*
X3254195Y379200D02*
X3271550D01*
X3255119Y380400D02*
X3272325D01*
X3255612Y381600D02*
X3274204D01*
X3271200Y347300D02*
Y377500D01*
X3280800Y347300D02*
Y379406D01*
X3282000Y347300D02*
Y380606D01*
X3271200Y377500D02*
Y396578D01*
X3272400Y380480D02*
Y399467D01*
X3273600Y381358D02*
Y400655D01*
X3283200Y373513D02*
Y381806D01*
X3208800Y347300D02*
X3472200D01*
X3208800Y350400D02*
X3304706D01*
X3208800Y348000D02*
X3472200D01*
X3208800Y349200D02*
X3472200D01*
X3208800Y354000D02*
X3301106D01*
X3208800Y355200D02*
X3299906D01*
X3208800Y351600D02*
X3303506D01*
X3208800Y352800D02*
X3302306D01*
X3253733Y358800D02*
X3296306D01*
X3254869Y360000D02*
X3295106D01*
X3208800Y356400D02*
X3298706D01*
X3208800Y357600D02*
X3297506D01*
X3255485Y364800D02*
X3290306D01*
X3254869Y366000D02*
X3289106D01*
X3255485Y361200D02*
X3293906D01*
X3255766Y362400D02*
X3292706D01*
X3255766Y363600D02*
X3291506D01*
X3278480Y374400D02*
X3283825D01*
X3279358Y375600D02*
X3285704D01*
X3253733Y367200D02*
X3287000D01*
X3279742Y376800D02*
X3359775D01*
X3280594Y379200D02*
X3358761D01*
X3279720Y378326D02*
X3286494Y385100D01*
X3279771Y378000D02*
X3359092D01*
X3281794Y380400D02*
X3358715D01*
X3285600Y347300D02*
Y367434D01*
X3284400Y347300D02*
Y368075D01*
X3286800Y347300D02*
Y367205D01*
X3287826Y367280D02*
X3304803Y350303D01*
X3284400Y374925D02*
Y383006D01*
X3285600Y375566D02*
Y384206D01*
X3287000Y367200D02*
X3287906D01*
X3286800Y375795D02*
Y385100D01*
X3255796Y382800D02*
X3277406D01*
X3255322Y385200D02*
X3279806D01*
X3254566Y386400D02*
X3281006D01*
X3253133Y387600D02*
X3282206D01*
X3208800Y402000D02*
X3268135D01*
X3208800Y403200D02*
X3269348D01*
X3208800Y388800D02*
X3283406D01*
X3208800Y404400D02*
X3270560D01*
X3274800Y381743D02*
Y401842D01*
X3276000Y381771D02*
Y403030D01*
X3276326Y381720D02*
X3283803Y389197D01*
X3277200Y382594D02*
Y404217D01*
X3255705Y384000D02*
X3278606D01*
X3278400Y383794D02*
Y405405D01*
X3208800Y405600D02*
X3271773D01*
X3208800Y406800D02*
X3272986D01*
X3208800Y408000D02*
X3274199D01*
X3208800Y409200D02*
X3275411D01*
X3208800Y410400D02*
X3276624D01*
X3208800Y411600D02*
X3277836D01*
X3208800Y412800D02*
X3279049D01*
X3232498Y414000D02*
X3280262D01*
X3279600Y384994D02*
Y406592D01*
X3280800Y386194D02*
Y407780D01*
X3282000Y387394D02*
Y408967D01*
X3283200Y388594D02*
Y410155D01*
X3233633Y415200D02*
X3281474D01*
X3234157Y416400D02*
X3282687D01*
X3284400Y389633D02*
Y411342D01*
X3264156Y417600D02*
X3283900D01*
X3265711Y418800D02*
X3285112D01*
X3208800Y390000D02*
X3344106D01*
X3208800Y391200D02*
X3345306D01*
X3208800Y392400D02*
X3346506D01*
X3268811Y393600D02*
X3347706D01*
X3270346Y394800D02*
X3348906D01*
X3271321Y398400D02*
X3336204D01*
X3271030Y396000D02*
X3350106D01*
X3271289Y397200D02*
X3351306D01*
X3282994Y381600D02*
X3358947D01*
X3286494Y385100D02*
X3345000D01*
X3284194Y382800D02*
X3359500D01*
X3285394Y384000D02*
X3360523D01*
X3274960Y402000D02*
X3333229D01*
X3285500Y389900D02*
X3344006D01*
X3272534Y399600D02*
X3334325D01*
X3273747Y400800D02*
X3333550D01*
X3276172Y403200D02*
X3333257D01*
X3266473Y420000D02*
X3286325D01*
X3277385Y404400D02*
X3333643D01*
X3278597Y405600D02*
X3334520D01*
X3266834Y421200D02*
X3287537D01*
X3266884Y422400D02*
X3288750D01*
X3266631Y423600D02*
X3289963D01*
X3266021Y424800D02*
X3291175D01*
X3285600Y389900D02*
Y412530D01*
X3286800Y389900D02*
Y413717D01*
X3279810Y406800D02*
X3335100D01*
X3281023Y408000D02*
X3335100D01*
X3282235Y409200D02*
X3335100D01*
X3283448Y410400D02*
X3335100D01*
X3284660Y411600D02*
X3335100D01*
X3285873Y412800D02*
X3335100D01*
X3287086Y414000D02*
X3335100D01*
X3300000Y347300D02*
Y355106D01*
X3298800Y347300D02*
Y356306D01*
X3302400Y347300D02*
Y352706D01*
X3301200Y347300D02*
Y353906D01*
X3304800Y347300D02*
Y350306D01*
X3303600Y347300D02*
Y351506D01*
X3306000Y347300D02*
Y349653D01*
X3307200Y347300D02*
Y349600D01*
X3308400Y347300D02*
Y349600D01*
X3309600Y347300D02*
Y349600D01*
X3310800Y347300D02*
Y349600D01*
X3312000Y347300D02*
Y349600D01*
X3313200Y347300D02*
Y349600D01*
X3314400Y347300D02*
Y349600D01*
X3315600Y347300D02*
Y349600D01*
X3289200Y347300D02*
Y365906D01*
X3288000Y347300D02*
Y367106D01*
X3291600Y347300D02*
Y363506D01*
X3290400Y347300D02*
Y364706D01*
X3294000Y347300D02*
Y361106D01*
X3292800Y347300D02*
Y362306D01*
X3295200Y347300D02*
Y359906D01*
X3291220Y370674D02*
X3307494Y354400D01*
X3297600Y347300D02*
Y357506D01*
X3296400Y347300D02*
Y358706D01*
X3308400Y354400D02*
Y385100D01*
X3309600Y354400D02*
Y385100D01*
X3310800Y354400D02*
Y385100D01*
X3312000Y354400D02*
Y385100D01*
X3313200Y354400D02*
Y385100D01*
X3314400Y354400D02*
Y385100D01*
X3315600Y354400D02*
Y385100D01*
X3316800Y347300D02*
Y349600D01*
X3318000Y347300D02*
Y349600D01*
X3319200Y347300D02*
Y349600D01*
X3320400Y347300D02*
Y349600D01*
X3321600Y347300D02*
Y349600D01*
X3322800Y347300D02*
Y349600D01*
X3324000Y347300D02*
Y349600D01*
X3325200Y347300D02*
Y349600D01*
X3326400Y347300D02*
Y349600D01*
X3327600Y347300D02*
Y349600D01*
X3328800Y347300D02*
Y349600D01*
X3330000Y347300D02*
Y349600D01*
X3331200Y347300D02*
Y349600D01*
X3332400Y347300D02*
Y349600D01*
X3333600Y347300D02*
Y349600D01*
X3334800Y347300D02*
Y349600D01*
X3336000Y347300D02*
Y349600D01*
X3316800Y354400D02*
Y385100D01*
X3318000Y354400D02*
Y385100D01*
X3306500Y349600D02*
X3386000D01*
X3307494Y354400D02*
X3385006D01*
X3319200D02*
Y385100D01*
X3320400Y354400D02*
Y385100D01*
X3321600Y354400D02*
Y385100D01*
X3322800Y354400D02*
Y385100D01*
X3324000Y354400D02*
Y385100D01*
X3325200Y354400D02*
Y385100D01*
X3337200Y347300D02*
Y349600D01*
X3338400Y347300D02*
Y349600D01*
X3326400Y354400D02*
Y385100D01*
X3327600Y354400D02*
Y385100D01*
X3328800Y354400D02*
Y385100D01*
X3330000Y354400D02*
Y385100D01*
X3331200Y354400D02*
Y385100D01*
X3291600Y370294D02*
Y385100D01*
X3292800Y369094D02*
Y385100D01*
X3294000Y367894D02*
Y385100D01*
X3295200Y366694D02*
Y385100D01*
X3288000Y375682D02*
Y385100D01*
X3289200Y375195D02*
Y385100D01*
X3290400Y374132D02*
Y385100D01*
X3302400Y359494D02*
Y385100D01*
X3303600Y358294D02*
Y385100D01*
X3304800Y357094D02*
Y385100D01*
X3306000Y355894D02*
Y385100D01*
X3296400Y365494D02*
Y385100D01*
X3297600Y364294D02*
Y385100D01*
X3298800Y363094D02*
Y385100D01*
X3300000Y361894D02*
Y385100D01*
X3301200Y360694D02*
Y385100D01*
X3288000Y389900D02*
Y414905D01*
X3289200Y389900D02*
Y416092D01*
X3290400Y389900D02*
Y417280D01*
X3291600Y389900D02*
Y418467D01*
X3292800Y389900D02*
Y419655D01*
X3294000Y389900D02*
Y420842D01*
X3288298Y415200D02*
X3335100D01*
X3295200Y389900D02*
Y422030D01*
X3307200Y354694D02*
Y385100D01*
X3332400Y354400D02*
Y385100D01*
X3333600Y354400D02*
Y385100D01*
X3334800Y354400D02*
Y385100D01*
X3296400Y389900D02*
Y423217D01*
X3297600Y389900D02*
Y424405D01*
X3334800Y389900D02*
Y399153D01*
X3298800Y389900D02*
Y425592D01*
X3333600Y389900D02*
Y400689D01*
X3293494Y368400D02*
X3358974D01*
X3292294Y369600D02*
X3358717D01*
X3295894Y366000D02*
X3360847D01*
X3294694Y367200D02*
X3359601D01*
X3291243Y370800D02*
X3358767D01*
X3291271Y372000D02*
X3359137D01*
X3290950Y373200D02*
X3359922D01*
X3290175Y374400D02*
X3361582D01*
X3304294Y357600D02*
X3359343D01*
X3303094Y358800D02*
X3358852D01*
X3306694Y355200D02*
X3363500D01*
X3305494Y356400D02*
X3360325D01*
X3301894Y360000D02*
X3358700D01*
X3300694Y361200D02*
X3358852D01*
X3299494Y362400D02*
X3359343D01*
X3297094Y364800D02*
X3363500D01*
X3298294Y363600D02*
X3360325D01*
X3289511Y416400D02*
X3335100D01*
X3290723Y417600D02*
X3335100D01*
X3288296Y375600D02*
X3361045D01*
X3291936Y418800D02*
X3335100D01*
X3293149Y420000D02*
X3335100D01*
X3294361Y421200D02*
X3335100D01*
X3295574Y422400D02*
X3335100D01*
X3296787Y423600D02*
X3335100D01*
X3336000Y354400D02*
Y385100D01*
Y389900D02*
Y398470D01*
X3337200Y354400D02*
Y385100D01*
X3338400Y354400D02*
Y385100D01*
X3337200Y389900D02*
Y398211D01*
X3298000Y424800D02*
X3335100D01*
X3338400Y389900D02*
Y398295D01*
X3338796Y398400D02*
X3352506D01*
X3267600Y401758D02*
Y434676D01*
Y440994D02*
Y443075D01*
X3266884Y441600D02*
X3268206D01*
X3266887Y442361D02*
X3267760Y443234D01*
X3267326Y442800D02*
X3269406D01*
X3268327Y444000D02*
X3270606D01*
X3268800Y402658D02*
Y435406D01*
X3270000Y403845D02*
Y436606D01*
X3271200Y405033D02*
Y437806D01*
X3272400Y406220D02*
Y439006D01*
X3273600Y407408D02*
Y440206D01*
X3274800Y408595D02*
Y441406D01*
X3276000Y409783D02*
Y442606D01*
X3277200Y410970D02*
Y443806D01*
X3266349Y439744D02*
X3283803Y457197D01*
X3268800Y442194D02*
Y496800D01*
X3268686Y445200D02*
X3271806D01*
X3268700Y445500D02*
Y496800D01*
Y446400D02*
X3273006D01*
X3268700Y447600D02*
X3274206D01*
X3278400Y412158D02*
Y445006D01*
X3279600Y413345D02*
Y446206D01*
X3280800Y414533D02*
Y447406D01*
X3282000Y415720D02*
Y448606D01*
X3270000Y443394D02*
Y496800D01*
X3271200Y444594D02*
Y496800D01*
X3283200Y416908D02*
Y449806D01*
X3272400Y445794D02*
Y496800D01*
X3273600Y446994D02*
Y496800D01*
X3264830Y426000D02*
X3292388D01*
X3262985Y427200D02*
X3293600D01*
X3265324Y428400D02*
X3294813D01*
X3266272Y429600D02*
X3296026D01*
X3266751Y430800D02*
X3297239D01*
X3266900Y432000D02*
X3298451D01*
X3266751Y433200D02*
X3299664D01*
X3266272Y434400D02*
X3300876D01*
X3268994Y435600D02*
X3302089D01*
X3270194Y436800D02*
X3303302D01*
X3271394Y438000D02*
X3304514D01*
X3271224Y398304D02*
X3316688Y443294D01*
X3272594Y439200D02*
X3305727D01*
X3273794Y440400D02*
X3306939D01*
X3274994Y441600D02*
X3308152D01*
X3276194Y442800D02*
X3309365D01*
X3277394Y444000D02*
X3310577D01*
X3284400Y418095D02*
Y451006D01*
X3285600Y419283D02*
Y452206D01*
X3267848Y401716D02*
X3312600Y446001D01*
X3286800Y420470D02*
Y453100D01*
X3268697Y435303D02*
X3286494Y453100D01*
X3288000Y421658D02*
Y453100D01*
X3278594Y445200D02*
X3311790D01*
X3279794Y446400D02*
X3312600D01*
X3289200Y422845D02*
Y453100D01*
X3290400Y424033D02*
Y453100D01*
X3291600Y425220D02*
Y453100D01*
X3292800Y426408D02*
Y453100D01*
X3294000Y427595D02*
Y453100D01*
X3295200Y428783D02*
Y453100D01*
X3296400Y429970D02*
Y453100D01*
X3297600Y431158D02*
Y453100D01*
X3298800Y432345D02*
Y453100D01*
X3268700Y448800D02*
X3275406D01*
X3268700Y450000D02*
X3276606D01*
X3268700Y451200D02*
X3277806D01*
X3268700Y452400D02*
X3279006D01*
X3268700Y453600D02*
X3280206D01*
X3268700Y454800D02*
X3281406D01*
X3268700Y456000D02*
X3282606D01*
X3268700Y457200D02*
X3283806D01*
X3290400Y457900D02*
Y464610D01*
X3289200Y457900D02*
Y466253D01*
X3268700Y468000D02*
X3288724D01*
X3268700Y469200D02*
X3288746D01*
X3268700Y464400D02*
X3290641D01*
X3268700Y465600D02*
X3289564D01*
X3268700Y466800D02*
X3288980D01*
X3274800Y448194D02*
Y496800D01*
X3276000Y449394D02*
Y496800D01*
X3277200Y450594D02*
Y496800D01*
X3278400Y451794D02*
Y496800D01*
X3268700Y470400D02*
X3289052D01*
X3279600Y452994D02*
Y496800D01*
X3268700Y471600D02*
X3289701D01*
X3268700Y472800D02*
X3290902D01*
X3280800Y454194D02*
Y496800D01*
X3282000Y455394D02*
Y496800D01*
X3283200Y456594D02*
Y496800D01*
X3284400Y457633D02*
Y496800D01*
X3285600Y457900D02*
Y496800D01*
X3286800Y457900D02*
Y496800D01*
X3288000Y457900D02*
Y496800D01*
X3289200Y470747D02*
Y496800D01*
X3290400Y472390D02*
Y496800D01*
X3280994Y447600D02*
X3312600D01*
X3282194Y448800D02*
X3312600D01*
X3283394Y450000D02*
X3312600D01*
X3268700Y458400D02*
X3347600D01*
X3268700Y459600D02*
X3347600D01*
X3268700Y463200D02*
X3294000D01*
X3268700Y460800D02*
X3347600D01*
X3268700Y462000D02*
X3347600D01*
X3284594Y451200D02*
X3312600D01*
X3285794Y452400D02*
X3312600D01*
X3286494Y453100D02*
X3312600D01*
X3285500Y457900D02*
X3315000D01*
X3292800D02*
Y463338D01*
X3291600Y457900D02*
Y463774D01*
X3294000Y457900D02*
Y463200D01*
X3301753D01*
X3295200Y457900D02*
Y463338D01*
X3291600Y473225D02*
Y496800D01*
X3292800Y473662D02*
Y496800D01*
X3294000Y473800D02*
Y496800D01*
X3268700Y474000D02*
X3347600D01*
X3295200Y473662D02*
Y496800D01*
X3268700Y475200D02*
X3347600D01*
X3268700Y476400D02*
X3347600D01*
X3296400Y457900D02*
Y463774D01*
X3297600Y457900D02*
Y464610D01*
X3297359Y464400D02*
X3300110D01*
X3298800Y457900D02*
Y466253D01*
X3296400Y473225D02*
Y496800D01*
X3297600Y472390D02*
Y496800D01*
X3298436Y465600D02*
X3299274D01*
X3297099Y472800D02*
X3301753D01*
X3298299Y471600D02*
X3300110D01*
X3300000Y389900D02*
Y426780D01*
X3301200Y389900D02*
Y427967D01*
X3302400Y389900D02*
Y429155D01*
X3303600Y389900D02*
Y430342D01*
X3304800Y389900D02*
Y431530D01*
X3306000Y389900D02*
Y432717D01*
X3307200Y389900D02*
Y433905D01*
X3308400Y389900D02*
Y435092D01*
X3309600Y389900D02*
Y436280D01*
X3310800Y389900D02*
Y437467D01*
X3312000Y389900D02*
Y438655D01*
X3313200Y389900D02*
Y439842D01*
X3314400Y389900D02*
Y441030D01*
X3315600Y389900D02*
Y442217D01*
X3316800Y389900D02*
Y443413D01*
X3300000Y433533D02*
Y453100D01*
X3301200Y434720D02*
Y453100D01*
X3302400Y435908D02*
Y453100D01*
X3303600Y437095D02*
Y453100D01*
X3304800Y438283D02*
Y453100D01*
X3306000Y439470D02*
Y453100D01*
X3307200Y440658D02*
Y453100D01*
X3308400Y441845D02*
Y453100D01*
X3318000Y389900D02*
Y465023D01*
X3319200Y389900D02*
Y467475D01*
X3320400Y389900D02*
Y496800D01*
X3321600Y389900D02*
Y496800D01*
X3309600Y443033D02*
Y453100D01*
X3310800Y444220D02*
Y453100D01*
X3312000Y445408D02*
Y453100D01*
X3317400Y445000D02*
Y455500D01*
X3322800Y389900D02*
Y496800D01*
X3299212Y426000D02*
X3335100D01*
X3300425Y427200D02*
X3335100D01*
X3301637Y428400D02*
X3335100D01*
X3302850Y429600D02*
X3335100D01*
X3304063Y430800D02*
X3335100D01*
X3305275Y432000D02*
X3335100D01*
X3306488Y433200D02*
X3335100D01*
X3307700Y434400D02*
X3335100D01*
X3308913Y435600D02*
X3335100D01*
Y406068D02*
Y437500D01*
X3310126Y436800D02*
X3335100D01*
X3311338Y438000D02*
X3335153D01*
X3312551Y439200D02*
X3335806D01*
X3313763Y440400D02*
X3337006D01*
X3314976Y441600D02*
X3338206D01*
X3324000Y389900D02*
Y496800D01*
X3325200Y389900D02*
Y496800D01*
X3326400Y389900D02*
Y496800D01*
X3327600Y389900D02*
Y496800D01*
X3316189Y442800D02*
X3339406D01*
X3328800Y389900D02*
Y496800D01*
X3317182Y444000D02*
X3340606D01*
X3317400Y445200D02*
X3341806D01*
X3330000Y389900D02*
Y496800D01*
X3331200Y389900D02*
Y496800D01*
X3333600Y404311D02*
Y495934D01*
X3332400Y389900D02*
Y496575D01*
X3334800Y405847D02*
Y495705D01*
X3336000Y439394D02*
Y495818D01*
X3335803Y439197D02*
X3347600Y450994D01*
X3337200Y440594D02*
Y496305D01*
X3338400Y441794D02*
Y497367D01*
X3301200Y457900D02*
Y463500D01*
X3300000Y457900D02*
Y464523D01*
X3302400Y457900D02*
Y462947D01*
X3303600Y457900D02*
Y462715D01*
X3298948Y470400D02*
X3299274D01*
X3304800Y457900D02*
Y462761D01*
X3306000Y457900D02*
Y463092D01*
X3307200Y457900D02*
Y463775D01*
X3312600Y446001D02*
Y453100D01*
X3308400Y457900D02*
Y465045D01*
X3309600Y457900D02*
Y465545D01*
X3308725Y465600D02*
X3309564D01*
X3312000Y457900D02*
Y463592D01*
X3307890Y464400D02*
X3310641D01*
X3310800Y457900D02*
Y464275D01*
X3298800Y470747D02*
Y496800D01*
X3300000Y471477D02*
Y496800D01*
X3301200Y472500D02*
Y496800D01*
X3302400Y473053D02*
Y496800D01*
X3303600Y473285D02*
Y496800D01*
X3304800Y473239D02*
Y496800D01*
X3308725Y470400D02*
X3309052D01*
X3308400Y470955D02*
Y496800D01*
X3307890Y471600D02*
X3309701D01*
X3309600Y471455D02*
Y496800D01*
X3306000Y472908D02*
Y496800D01*
X3307200Y472225D02*
Y496800D01*
X3306247Y472800D02*
X3310902D01*
X3310800Y472725D02*
Y496800D01*
X3312000Y473408D02*
Y496800D01*
X3313200Y457900D02*
Y463261D01*
X3316694Y457200D02*
X3347600D01*
X3306247Y463200D02*
X3314000D01*
X3314400Y457900D02*
Y463215D01*
X3314000Y463200D02*
X3347600D01*
X3315600Y457824D02*
Y463447D01*
X3317400Y446400D02*
X3343006D01*
X3317400Y447600D02*
X3344206D01*
X3317400Y448800D02*
X3345406D01*
X3317400Y450000D02*
X3346606D01*
X3317400Y451200D02*
X3347600D01*
X3317400Y452400D02*
X3347600D01*
X3317400Y453600D02*
X3347600D01*
X3317400Y454800D02*
X3347600D01*
X3317347Y456000D02*
X3347600D01*
X3316800Y457087D02*
Y464000D01*
Y473000D02*
Y496800D01*
X3313200Y473739D02*
Y496800D01*
X3314400Y473785D02*
Y496800D01*
X3317098Y472800D02*
X3347600D01*
X3315600Y473553D02*
Y496800D01*
X3317359Y464400D02*
X3347600D01*
X3318436Y465600D02*
X3347600D01*
X3319020Y466800D02*
X3347600D01*
X3319276Y468000D02*
X3347600D01*
X3318000Y471977D02*
Y496800D01*
X3319200Y469525D02*
Y496800D01*
X3319254Y469200D02*
X3347600D01*
X3318299Y471600D02*
X3347600D01*
X3318948Y470400D02*
X3347600D01*
X3019300Y501600D02*
X3039367D01*
X3019300Y502800D02*
X3038015D01*
X3019300Y499200D02*
X3046500D01*
X3019300Y500400D02*
X3041315D01*
X3019300Y506400D02*
X3035633D01*
X3019300Y507600D02*
X3035200D01*
X3019300Y504000D02*
X3037000D01*
X3019300Y505200D02*
X3036224D01*
X3019300Y508800D02*
X3034907D01*
X3019300Y510000D02*
X3034743D01*
X3019300Y511200D02*
X3034702D01*
X3019300Y512400D02*
X3034783D01*
X3019300Y513600D02*
X3034990D01*
X3019300Y514800D02*
X3035329D01*
X3019300Y516000D02*
X3035812D01*
X3019300Y517200D02*
X3036460D01*
X3019300Y518400D02*
X3037309D01*
X3019300Y519600D02*
X3038420D01*
X3019300Y520800D02*
X3039927D01*
X3019300Y522000D02*
X3042229D01*
X3019300Y524400D02*
X3054863D01*
X3056400Y517421D02*
Y523984D01*
X3057600Y515004D02*
Y523984D01*
X3019300Y525600D02*
X3053157D01*
X3052800Y520977D02*
Y526017D01*
X3055200Y518972D02*
Y524265D01*
X3054000Y520110D02*
Y524881D01*
X3019300Y492000D02*
X3093036D01*
X3019300Y493200D02*
X3092486D01*
X3019300Y489600D02*
X3095883D01*
X3019300Y490800D02*
X3094000D01*
X3019300Y494400D02*
X3092231D01*
X3019300Y495600D02*
X3092231D01*
X3019300Y496800D02*
X3092486D01*
X3019300Y498000D02*
X3093036D01*
X3046500Y499200D02*
X3094000D01*
X3092400Y496510D02*
Y503490D01*
X3056000Y504000D02*
X3092287D01*
X3056776Y505200D02*
X3092204D01*
X3051685Y500400D02*
X3094467D01*
X3053633Y501600D02*
X3093301D01*
X3054985Y502800D02*
X3092633D01*
X3057367Y506400D02*
X3092372D01*
X3054580Y519600D02*
X3109006D01*
X3056540Y517200D02*
X3111412D01*
X3055691Y518400D02*
X3110206D01*
X3019300Y523200D02*
X3105406D01*
X3053073Y520800D02*
X3107806D01*
X3050771Y522000D02*
X3106606D01*
X3057800Y507600D02*
X3092815D01*
X3092400Y506510D02*
Y536206D01*
X3058093Y508800D02*
X3093618D01*
X3059137Y524400D02*
X3062863D01*
X3058257Y510000D02*
X3095061D01*
X3067137Y524400D02*
X3104206D01*
X3091006Y537600D02*
X3111303Y517303D01*
X3019300Y529200D02*
X3051700D01*
X3019300Y530400D02*
X3051700D01*
X3019300Y526800D02*
X3052300D01*
X3019300Y528000D02*
X3051850D01*
X3019300Y531600D02*
X3051769D01*
X3019300Y532800D02*
X3052113D01*
X3019300Y534000D02*
X3052813D01*
X3019300Y535200D02*
X3053581D01*
X3051700Y529250D02*
Y530750D01*
X3060843Y525600D02*
X3061157D01*
X3060419Y535200D02*
X3061581D01*
X3068400Y534816D02*
Y535184D01*
X3019300Y538800D02*
X3051719D01*
X3019300Y540000D02*
X3051700D01*
X3019300Y536400D02*
X3052531D01*
X3019300Y537600D02*
X3051963D01*
X3019300Y541200D02*
X3051719D01*
X3019300Y542400D02*
X3051963D01*
X3019300Y543600D02*
X3052531D01*
X3019300Y544800D02*
X3053581D01*
X3052800Y533983D02*
Y536017D01*
X3061200Y534445D02*
Y535555D01*
X3069600Y533383D02*
Y536618D01*
X3051700Y539250D02*
Y540750D01*
X3061200Y544445D02*
Y544806D01*
X3061194Y544800D02*
X3061581D01*
X3069700Y526800D02*
X3072128D01*
X3069700D02*
X3072128D01*
X3068843Y525600D02*
X3103006D01*
X3069700Y533200D02*
X3072128D01*
X3069187Y534000D02*
X3073422D01*
X3068419Y535200D02*
X3093406D01*
X3069468Y536400D02*
X3092206D01*
X3079225Y529200D02*
X3099406D01*
X3077872Y526800D02*
X3101806D01*
X3078807Y528000D02*
X3100606D01*
X3076578Y534000D02*
X3094606D01*
X3079281Y530400D02*
X3098206D01*
X3078263Y532800D02*
X3095806D01*
X3078991Y531600D02*
X3097006D01*
X3070800Y533200D02*
Y537600D01*
X3072000Y533200D02*
Y537600D01*
X3070037D02*
X3091006D01*
X3070037D02*
X3091006D01*
X3070037Y542400D02*
X3092000D01*
X3070037D02*
X3092000D01*
X3069468Y543600D02*
X3095506D01*
X3068419Y544800D02*
X3094306D01*
X3073200Y533905D02*
Y537600D01*
X3076800Y533905D02*
Y537600D01*
X3078000Y533081D02*
Y537600D01*
X3079200Y530922D02*
Y537600D01*
X3074400Y534258D02*
Y537600D01*
X3075600Y534258D02*
Y537600D01*
X3092000Y542400D02*
X3096706D01*
X3103200Y497569D02*
Y502431D01*
X3094800Y499837D02*
Y500163D01*
X3093600Y498779D02*
Y501221D01*
X3102000Y499200D02*
Y500800D01*
X3114000Y521394D02*
X3117734Y521372D01*
X3114000Y521394D02*
Y525106D01*
X3115200Y521387D02*
Y523906D01*
X3110994Y524400D02*
X3114706D01*
X3113394Y522000D02*
X3117106D01*
X3112194Y523200D02*
X3115906D01*
X3116400Y521380D02*
Y522706D01*
X3094800Y509837D02*
Y533806D01*
X3093600Y508779D02*
Y535006D01*
X3100800Y510079D02*
Y527806D01*
X3096000Y510444D02*
Y532606D01*
X3098400Y510786D02*
Y530206D01*
X3097200Y510745D02*
Y531406D01*
X3099600Y510575D02*
Y529006D01*
X3093697Y541697D02*
X3114000Y521394D01*
X3103200Y507569D02*
Y525406D01*
X3102000Y509200D02*
Y526606D01*
X3112800Y522594D02*
Y526306D01*
X3111600Y523794D02*
Y527506D01*
X3109794Y525600D02*
X3113506D01*
X3110400Y524994D02*
Y528706D01*
X3174000Y525400D02*
Y525818D01*
X3171600Y525400D02*
Y527367D01*
X3172800Y525400D02*
Y526305D01*
X3112986Y516600D02*
X3197986Y516100D01*
X3195686Y520914D02*
X3197012Y520906D01*
X3120494Y525400D02*
X3193506D01*
X3175200D02*
Y525705D01*
X3196800Y520907D02*
Y521906D01*
X3120294Y525600D02*
X3193706D01*
X3196894Y522000D02*
X3198106D01*
X3198000Y521894D02*
Y523106D01*
X3198094Y523200D02*
X3199306D01*
X3199200Y523094D02*
Y524306D01*
X3199294Y524400D02*
X3200506D01*
X3200400Y524294D02*
Y525506D01*
X3200494Y525600D02*
X3201706D01*
X3176400Y525400D02*
Y525934D01*
X3177600Y525400D02*
Y526575D01*
X3178800Y525400D02*
Y527987D01*
X3180000Y525400D02*
Y530475D01*
X3181200Y525400D02*
Y531674D01*
X3182400Y525400D02*
Y532874D01*
X3183600Y525400D02*
Y534074D01*
X3184800Y525400D02*
Y535275D01*
X3186000Y525400D02*
Y536475D01*
X3187200Y525400D02*
Y537675D01*
X3188400Y525400D02*
Y538874D01*
X3189600Y525400D02*
Y540074D01*
X3190800Y525400D02*
Y541274D01*
X3201600Y525494D02*
Y526706D01*
X3192000Y525400D02*
Y542475D01*
X3193200Y525400D02*
Y543675D01*
X3106800Y528594D02*
Y532306D01*
X3105600Y529794D02*
Y533506D01*
X3107394Y528000D02*
X3111106D01*
X3106194Y529200D02*
X3109906D01*
X3102594Y532800D02*
X3106306D01*
X3101394Y534000D02*
X3105106D01*
X3104994Y530400D02*
X3108706D01*
X3103794Y531600D02*
X3107506D01*
X3109200Y526194D02*
Y529906D01*
X3108000Y527394D02*
Y531106D01*
X3108594Y526800D02*
X3112306D01*
X3119094D02*
X3172128D01*
X3116694Y529200D02*
X3170775D01*
X3115494Y530400D02*
X3170719D01*
X3117894Y528000D02*
X3171193D01*
X3113094Y532800D02*
X3171737D01*
X3114294Y531600D02*
X3171009D01*
X3098400Y536994D02*
Y540706D01*
X3097200Y538194D02*
Y541906D01*
X3097794Y537600D02*
X3101506D01*
X3096594Y538800D02*
X3100306D01*
X3096000Y539394D02*
Y543106D01*
X3094800Y540594D02*
Y544306D01*
X3095394Y540000D02*
X3099106D01*
X3094194Y541200D02*
X3097906D01*
X3103200Y532194D02*
Y535906D01*
X3102000Y533394D02*
Y537106D01*
X3111894Y534000D02*
X3173422D01*
X3104400Y530994D02*
Y534706D01*
X3100800Y534594D02*
Y538306D01*
X3099600Y535794D02*
Y539506D01*
X3100194Y535200D02*
X3103906D01*
X3098994Y536400D02*
X3102706D01*
X3110694Y535200D02*
X3175674D01*
X3177872Y526800D02*
X3194906D01*
X3178807Y528000D02*
X3196106D01*
X3201694Y526800D02*
X3202906D01*
X3202800Y526694D02*
Y527906D01*
X3179225Y529200D02*
X3197306D01*
X3179926Y530400D02*
X3198506D01*
X3181125Y531600D02*
X3199706D01*
X3182326Y532800D02*
X3200906D01*
X3202894Y528000D02*
X3204106D01*
X3204000Y527894D02*
Y529106D01*
X3204094Y529200D02*
X3205306D01*
X3205200Y529094D02*
Y530306D01*
X3205294Y530400D02*
X3206506D01*
X3206400Y530294D02*
Y531506D01*
X3206494Y531600D02*
X3207706D01*
X3207600Y531494D02*
Y532706D01*
X3207694Y532800D02*
X3208906D01*
X3109494Y536400D02*
X3176875D01*
X3108294Y537600D02*
X3178074D01*
X3183525Y534000D02*
X3202106D01*
X3107094Y538800D02*
X3179275D01*
X3105894Y540000D02*
X3180474D01*
X3104694Y541200D02*
X3181675D01*
X3103494Y542400D02*
X3182874D01*
X3102294Y543600D02*
X3184075D01*
X3208800Y532694D02*
Y533906D01*
X3184726Y535200D02*
X3203306D01*
X3208894Y534000D02*
X3210106D01*
X3210000Y533894D02*
Y535106D01*
X3185925Y536400D02*
X3204506D01*
X3187126Y537600D02*
X3205706D01*
X3188326Y538800D02*
X3206906D01*
X3189525Y540000D02*
X3208106D01*
X3190726Y541200D02*
X3209306D01*
X3042000Y521908D02*
Y548092D01*
X3040800Y521332D02*
Y548668D01*
X3044400Y522612D02*
Y547388D01*
X3043200Y522329D02*
Y547671D01*
X3045600Y522766D02*
Y547234D01*
X3019300Y548400D02*
X3041315D01*
X3019300Y546000D02*
X3055606D01*
X3019300Y547200D02*
X3046500D01*
X3048000Y522704D02*
Y547296D01*
X3049200Y522487D02*
Y547513D01*
X3050400Y522137D02*
Y547863D01*
X3051600Y521641D02*
Y548359D01*
X3046800Y522796D02*
Y547204D01*
X3046500Y547200D02*
X3056806D01*
X3051685Y548400D02*
X3058006D01*
X3036000Y516384D02*
Y553616D01*
X3034800Y512533D02*
Y557467D01*
X3038400Y519581D02*
Y550419D01*
X3037200Y518263D02*
Y551737D01*
X3019300Y550800D02*
X3038015D01*
X3019300Y552000D02*
X3037000D01*
X3019300Y549600D02*
X3039367D01*
X3052800Y543983D02*
Y549022D01*
X3039600Y520572D02*
Y549428D01*
X3054000Y545119D02*
Y549890D01*
X3055200Y545735D02*
Y551028D01*
X3056400Y546794D02*
Y552579D01*
X3053633Y549600D02*
X3059206D01*
X3057600Y547994D02*
Y554996D01*
X3058800Y549194D02*
Y584700D01*
X3062400Y545368D02*
Y546006D01*
X3060819Y544425D02*
X3063494Y547100D01*
X3063600Y545862D02*
Y547100D01*
X3062394Y546000D02*
X3064274D01*
X3064800Y546046D02*
Y547100D01*
X3065726Y546000D02*
X3093106D01*
X3066000Y545955D02*
Y547100D01*
X3070800Y542400D02*
Y547100D01*
X3072000Y542400D02*
Y547100D01*
X3073200Y542400D02*
Y547100D01*
X3074400Y542400D02*
Y547100D01*
X3067200Y545572D02*
Y547100D01*
X3068400Y544816D02*
Y547100D01*
X3069600Y543383D02*
Y547100D01*
X3075600Y542400D02*
Y547100D01*
X3076800Y542400D02*
Y547100D01*
X3054985Y550800D02*
X3060406D01*
X3060000Y550394D02*
Y584700D01*
X3055413Y545807D02*
X3060803Y551197D01*
X3061200Y551517D02*
Y584700D01*
X3062400Y551898D02*
Y584700D01*
X3056000Y552000D02*
X3192475D01*
X3078000Y542400D02*
Y547100D01*
X3079200Y542400D02*
Y547100D01*
X3080400Y542400D02*
Y547100D01*
X3081600Y542400D02*
Y547100D01*
X3082800Y542400D02*
Y547100D01*
X3063600Y551900D02*
Y584700D01*
X3084000Y542400D02*
Y547100D01*
X3062500Y551900D02*
X3093000D01*
X3063494Y547100D02*
X3092006D01*
X3019300Y555600D02*
X3035200D01*
X3019300Y556800D02*
X3034907D01*
X3019300Y553200D02*
X3036224D01*
X3019300Y554400D02*
X3035633D01*
X3019300Y558000D02*
X3034743D01*
X3019300Y559200D02*
X3034702D01*
X3019300Y560400D02*
X3034783D01*
X3019300Y561600D02*
X3034990D01*
X3019300Y562800D02*
X3035329D01*
X3019300Y564000D02*
X3035812D01*
X3019300Y565200D02*
X3036460D01*
X3019300Y566400D02*
X3037309D01*
X3019300Y567600D02*
X3038420D01*
X3019300Y568800D02*
X3039927D01*
X3019300Y570000D02*
X3042229D01*
X3034800Y560533D02*
Y584700D01*
X3036000Y564384D02*
Y584700D01*
X3037200Y566263D02*
Y584700D01*
X3038400Y567581D02*
Y584700D01*
X3039600Y568572D02*
Y584700D01*
X3040800Y569332D02*
Y584700D01*
X3042000Y569908D02*
Y584700D01*
X3043200Y570329D02*
Y584700D01*
X3050400Y570137D02*
Y584700D01*
X3051600Y569641D02*
Y584700D01*
X3052800Y568977D02*
Y584700D01*
X3054000Y568110D02*
Y584700D01*
X3044400Y570612D02*
Y584700D01*
X3045600Y570766D02*
Y584700D01*
X3046800Y570796D02*
Y584700D01*
X3048000Y570704D02*
Y584700D01*
X3049200Y570487D02*
Y584700D01*
X3056400Y565421D02*
Y584700D01*
X3056776Y553200D02*
X3193674D01*
X3056540Y565200D02*
X3205674D01*
X3055691Y566400D02*
X3206874D01*
X3055200Y566972D02*
Y584700D01*
X3054580Y567600D02*
X3208075D01*
X3053073Y568800D02*
X3209275D01*
X3057367Y554400D02*
X3194875D01*
X3057800Y555600D02*
X3196074D01*
X3058093Y556800D02*
X3197275D01*
X3058257Y558000D02*
X3198475D01*
X3058298Y559200D02*
X3199674D01*
X3058217Y560400D02*
X3200874D01*
X3058010Y561600D02*
X3202074D01*
X3057188Y564000D02*
X3204475D01*
X3057671Y562800D02*
X3203275D01*
X3064800Y551900D02*
Y584700D01*
X3066000Y551900D02*
Y584700D01*
X3067200Y551900D02*
Y584700D01*
X3068400Y551900D02*
Y584700D01*
X3057600Y563004D02*
Y584700D01*
X3069600Y551900D02*
Y584700D01*
X3070800Y551900D02*
Y584700D01*
X3072000Y551900D02*
Y584700D01*
X3073200Y551900D02*
Y584700D01*
X3074400Y551900D02*
Y584700D01*
X3075600Y551900D02*
Y584700D01*
X3076800Y551900D02*
Y584700D01*
X3078000Y551900D02*
Y584700D01*
X3079200Y551900D02*
Y584700D01*
X3080400Y551900D02*
Y584700D01*
X3081600Y551900D02*
Y584700D01*
X3082800Y551900D02*
Y584700D01*
X3114000Y531894D02*
Y584700D01*
X3115200Y530694D02*
Y584700D01*
X3092006Y547100D02*
X3117734Y521372D01*
X3094697Y551197D02*
X3120494Y525400D01*
X3109200Y536694D02*
Y584700D01*
X3110400Y535494D02*
Y584700D01*
X3111600Y534294D02*
Y584700D01*
X3112800Y533094D02*
Y584700D01*
X3121200Y525400D02*
Y584700D01*
X3122400Y525400D02*
Y584700D01*
X3123600Y525400D02*
Y584700D01*
X3124800Y525400D02*
Y584700D01*
X3116400Y529494D02*
Y584700D01*
X3117600Y528294D02*
Y584700D01*
X3118800Y527094D02*
Y584700D01*
X3120000Y525894D02*
Y584700D01*
X3126000Y525400D02*
Y584700D01*
X3127200Y525400D02*
Y584700D01*
X3128400Y525400D02*
Y584700D01*
X3129600Y525400D02*
Y584700D01*
X3130800Y525400D02*
Y584700D01*
X3132000Y525400D02*
Y584700D01*
X3133200Y525400D02*
Y584700D01*
X3134400Y525400D02*
Y584700D01*
X3135600Y525400D02*
Y584700D01*
X3136800Y525400D02*
Y584700D01*
X3138000Y525400D02*
Y584700D01*
X3139200Y525400D02*
Y584700D01*
X3140400Y525400D02*
Y584700D01*
X3141600Y525400D02*
Y584700D01*
X3142800Y525400D02*
Y584700D01*
X3144000Y525400D02*
Y584700D01*
X3145200Y525400D02*
Y584700D01*
X3146400Y525400D02*
Y584700D01*
X3147600Y525400D02*
Y584700D01*
X3148800Y525400D02*
Y584700D01*
X3150000Y525400D02*
Y584700D01*
X3151200Y525400D02*
Y584700D01*
X3152400Y525400D02*
Y584700D01*
X3153600Y525400D02*
Y584700D01*
X3154800Y525400D02*
Y584700D01*
X3156000Y525400D02*
Y584700D01*
X3194400Y526294D02*
Y544874D01*
X3195600Y527494D02*
Y546074D01*
X3196800Y528694D02*
Y547274D01*
X3198000Y529894D02*
Y548475D01*
X3199200Y531094D02*
Y549675D01*
X3200400Y532294D02*
Y550875D01*
X3201600Y533494D02*
Y552074D01*
X3202800Y534694D02*
Y553274D01*
X3204000Y535894D02*
Y554474D01*
X3157200Y525400D02*
Y584700D01*
X3158400Y525400D02*
Y584700D01*
X3159600Y525400D02*
Y584700D01*
X3160800Y525400D02*
Y584700D01*
X3162000Y525400D02*
Y584700D01*
X3163200Y525400D02*
Y584700D01*
X3164400Y525400D02*
Y584700D01*
X3165600Y525400D02*
Y584700D01*
X3166800Y525400D02*
Y584700D01*
X3168000Y525400D02*
Y584700D01*
X3169200Y525400D02*
Y584700D01*
X3170400Y525400D02*
Y584700D01*
X3171600Y532632D02*
Y584700D01*
X3172800Y533695D02*
Y584700D01*
X3174000Y534182D02*
Y584700D01*
X3175200Y534726D02*
Y584700D01*
X3176400Y535925D02*
Y584700D01*
X3085200Y542400D02*
Y547100D01*
X3086400Y542400D02*
Y547100D01*
X3087600Y542400D02*
Y547100D01*
X3088800Y542400D02*
Y547100D01*
X3084000Y551900D02*
Y584700D01*
X3085200Y551900D02*
Y584700D01*
X3086400Y551900D02*
Y584700D01*
X3087600Y551900D02*
Y584700D01*
X3090000Y542400D02*
Y547100D01*
X3091200Y542400D02*
Y547100D01*
X3093600Y541789D02*
Y545506D01*
X3092400Y542366D02*
Y546706D01*
X3088800Y551900D02*
Y584700D01*
X3090000Y551900D02*
Y584700D01*
X3091200Y551900D02*
Y584700D01*
X3097200Y548694D02*
Y584700D01*
X3098400Y547494D02*
Y584700D01*
X3099600Y546294D02*
Y584700D01*
X3100800Y545094D02*
Y584700D01*
X3092400Y551900D02*
Y584700D01*
X3093600Y551824D02*
Y584700D01*
X3094800Y551094D02*
Y584700D01*
X3096000Y549894D02*
Y584700D01*
X3106800Y539094D02*
Y584700D01*
X3108000Y537894D02*
Y584700D01*
X3177600Y537125D02*
Y584700D01*
X3178800Y538326D02*
Y584700D01*
X3102000Y543894D02*
Y584700D01*
X3103200Y542694D02*
Y584700D01*
X3104400Y541494D02*
Y584700D01*
X3105600Y540294D02*
Y584700D01*
X3180000Y539526D02*
Y584700D01*
X3181200Y540726D02*
Y584700D01*
X3182400Y541925D02*
Y584700D01*
X3101094Y544800D02*
X3185275D01*
X3099894Y546000D02*
X3186474D01*
X3098694Y547200D02*
X3187675D01*
X3097494Y548400D02*
X3188874D01*
X3096294Y549600D02*
X3190075D01*
X3095094Y550800D02*
X3191274D01*
X3205200Y537094D02*
Y555675D01*
X3206400Y538294D02*
Y556875D01*
X3207600Y539494D02*
Y558075D01*
X3208800Y540694D02*
Y559274D01*
X3183600Y543125D02*
Y584700D01*
X3184800Y544325D02*
Y584700D01*
X3186000Y545526D02*
Y584700D01*
X3187200Y546726D02*
Y584700D01*
X3188400Y547926D02*
Y584700D01*
X3189600Y549125D02*
Y584700D01*
X3190800Y550325D02*
Y584700D01*
X3192000Y551525D02*
Y584700D01*
X3193200Y552726D02*
Y584700D01*
X3194400Y553926D02*
Y584700D01*
X3195600Y555126D02*
Y584700D01*
X3196800Y556325D02*
Y584700D01*
X3198000Y557525D02*
Y584700D01*
X3199200Y558726D02*
Y584700D01*
X3200400Y559926D02*
Y584700D01*
X3201600Y561126D02*
Y584700D01*
X3202800Y562325D02*
Y584700D01*
X3204000Y563525D02*
Y584700D01*
X3205200Y564725D02*
Y584700D01*
X3206400Y565926D02*
Y584700D01*
X3207600Y567126D02*
Y584700D01*
X3208800Y568326D02*
Y584700D01*
X3019300Y478800D02*
X3225600D01*
X3019300Y480000D02*
X3225600D01*
X3019300Y481200D02*
X3225600D01*
X3019300Y482400D02*
X3225600D01*
X3019300Y483600D02*
X3225600D01*
X3019300Y484800D02*
X3225600D01*
X3019300Y486000D02*
X3225600D01*
X3019300Y487200D02*
X3225600D01*
X3019300Y488400D02*
X3225600D01*
X3230400Y487294D02*
Y490043D01*
Y488400D02*
X3231506D01*
X3230400Y487294D02*
Y490043D01*
X3100117Y489600D02*
X3225600D01*
X3102000Y490800D02*
X3225600D01*
X3230400Y489600D02*
X3232706D01*
X3231600Y488494D02*
Y491309D01*
X3102964Y492000D02*
X3225818D01*
X3103514Y493200D02*
X3226778D01*
X3103769Y494400D02*
X3227916D01*
X3103769Y495600D02*
X3229053D01*
X3103514Y496800D02*
X3230191D01*
X3102964Y498000D02*
X3231328D01*
X3102000Y499200D02*
X3232465D01*
X3101533Y500400D02*
X3233603D01*
X3232800Y489694D02*
Y492575D01*
X3226800Y493223D02*
Y526078D01*
X3229200Y495755D02*
Y518413D01*
X3228000Y494489D02*
Y523919D01*
X3232800Y499553D02*
Y514806D01*
X3230400Y497021D02*
Y517206D01*
X3231600Y498287D02*
Y516006D01*
X3234400Y478800D02*
X3258100D01*
X3234400Y480000D02*
X3258100D01*
X3234400Y481200D02*
X3258100D01*
X3234400Y482400D02*
X3258100D01*
X3231117Y490800D02*
X3233906D01*
X3234000Y490894D02*
Y493842D01*
X3232254Y492000D02*
X3235106D01*
X3233392Y493200D02*
X3236306D01*
X3234400Y483600D02*
X3258100D01*
X3234694Y484800D02*
X3258100D01*
X3235894Y486000D02*
X3258100D01*
X3237094Y487200D02*
X3258100D01*
X3234529Y494400D02*
X3237506D01*
X3235200Y492094D02*
Y495108D01*
X3238294Y488400D02*
X3258100D01*
X3235667Y495600D02*
X3238706D01*
X3239494Y489600D02*
X3258100D01*
X3230400Y490043D02*
X3238187Y498259D01*
X3226258Y492651D02*
X3234704Y501561D01*
X3234400Y484506D02*
X3246697Y496803D01*
X3230400Y487294D02*
X3242600Y499494D01*
X3103367Y502800D02*
X3234610D01*
X3234000Y500819D02*
Y513606D01*
X3102699Y501600D02*
X3234695D01*
X3103713Y504000D02*
X3234870D01*
X3236400Y493294D02*
Y496374D01*
X3237600Y494494D02*
Y497640D01*
X3236804Y496800D02*
X3239906D01*
X3238800Y495694D02*
Y498201D01*
X3240000Y496894D02*
Y498343D01*
X3235200Y504691D02*
Y512406D01*
X3237941Y498000D02*
X3241106D01*
X3058010Y513600D02*
X3234006D01*
X3057671Y514800D02*
X3232806D01*
X3103797Y505200D02*
X3235553D01*
X3058217Y512400D02*
X3235206D01*
X3201294Y518400D02*
X3229211D01*
X3202494Y519600D02*
X3228633D01*
X3057188Y516000D02*
X3231606D01*
X3200094Y517200D02*
X3230406D01*
X3228600Y520000D02*
Y523432D01*
X3234000Y520394D02*
Y523919D01*
X3203694Y520800D02*
X3228600D01*
X3207294Y524400D02*
X3227575D01*
X3204894Y522000D02*
X3228600D01*
X3206094Y523200D02*
X3228600D01*
X3233400Y520994D02*
Y523432D01*
X3208494Y525600D02*
X3226934D01*
X3209694Y526800D02*
X3226705D01*
X3210894Y528000D02*
X3226818D01*
X3212094Y529200D02*
X3227305D01*
X3210094Y535200D02*
X3211306D01*
X3211200Y535094D02*
Y536306D01*
X3211294Y536400D02*
X3212506D01*
X3212400Y536294D02*
Y537506D01*
X3235200Y519194D02*
Y526078D01*
X3235295Y526800D02*
X3235705D01*
X3212494Y537600D02*
X3213706D01*
X3213600Y537494D02*
Y538706D01*
X3235182Y528000D02*
X3235818D01*
X3213294Y530400D02*
X3228368D01*
X3213694Y538800D02*
X3214906D01*
X3103629Y506400D02*
X3237089D01*
X3103185Y507600D02*
X3240006D01*
X3229303Y518303D02*
X3242600Y505006D01*
X3233400Y520994D02*
X3246697Y507697D01*
X3100939Y510000D02*
X3237606D01*
X3058298Y511200D02*
X3236406D01*
X3102382Y508800D02*
X3238806D01*
X3233594Y520800D02*
X3242806D01*
X3237600Y506599D02*
Y510006D01*
X3236400Y505999D02*
Y511206D01*
X3240000Y506657D02*
Y507606D01*
X3238800Y506799D02*
Y508806D01*
X3235994Y518400D02*
X3245206D01*
X3234794Y519600D02*
X3244006D01*
X3239594Y514800D02*
X3248806D01*
X3237194Y517200D02*
X3246406D01*
X3238394Y516000D02*
X3247606D01*
X3233400Y522000D02*
X3241606D01*
X3214494Y531600D02*
X3249800D01*
X3215694Y532800D02*
X3249800D01*
X3216894Y534000D02*
X3249800D01*
X3218094Y535200D02*
X3249800D01*
X3219294Y536400D02*
X3249800D01*
X3220494Y537600D02*
X3249800D01*
X3221694Y538800D02*
X3249800D01*
X3237600Y516794D02*
Y523432D01*
X3236400Y517994D02*
Y524648D01*
X3238800Y515594D02*
Y522871D01*
X3235066Y525600D02*
X3235934D01*
X3234695Y529200D02*
X3236305D01*
X3233400Y523200D02*
X3237988D01*
X3233633Y530400D02*
X3237368D01*
X3234425Y524400D02*
X3236575D01*
X3240694Y490800D02*
X3258100D01*
X3241894Y492000D02*
X3258100D01*
X3243094Y493200D02*
X3258100D01*
X3244294Y494400D02*
X3258100D01*
X3241200Y498094D02*
Y498867D01*
X3241657Y499200D02*
X3242306D01*
X3242400Y499294D02*
Y500002D01*
X3242600Y499494D02*
Y500309D01*
X3245494Y495600D02*
X3258100D01*
X3246694Y496800D02*
X3258100D01*
X3247347Y498000D02*
X3258100D01*
X3247400Y499200D02*
X3258100D01*
X3247400Y500400D02*
X3258100D01*
X3247400Y501600D02*
X3258100D01*
X3247400Y502800D02*
X3258100D01*
X3242600Y504691D02*
Y505006D01*
X3240826Y522780D02*
X3258100Y505506D01*
X3240711Y506400D02*
X3241206D01*
X3246000Y508394D02*
Y517606D01*
X3245594Y508800D02*
X3254806D01*
X3244220Y526174D02*
X3262197Y508197D01*
X3247400Y498500D02*
Y506000D01*
X3247366Y506400D02*
X3257206D01*
X3247400Y504000D02*
X3258100D01*
X3247400Y505200D02*
X3258100D01*
X3246789Y507600D02*
X3256006D01*
X3247200Y506959D02*
Y516406D01*
X3261594Y508800D02*
X3262300D01*
X3261600Y508794D02*
Y510875D01*
X3262300Y508087D02*
Y510175D01*
X3268700Y477600D02*
X3347600D01*
X3268700Y478800D02*
X3347600D01*
X3268700Y480000D02*
X3347600D01*
X3268700Y481200D02*
X3347600D01*
X3268700Y482400D02*
X3347600D01*
X3268700Y483600D02*
X3347600D01*
X3268700Y484800D02*
X3347600D01*
X3268700Y486000D02*
X3347600D01*
X3268700Y487200D02*
X3347600D01*
X3268700Y488400D02*
X3347600D01*
X3268700Y489600D02*
X3347600D01*
X3268700Y490800D02*
X3347600D01*
X3268700Y492000D02*
X3347600D01*
X3268700Y496800D02*
X3332128D01*
X3268700Y493200D02*
X3347600D01*
X3268700Y494400D02*
X3347600D01*
X3268700Y495600D02*
X3347600D01*
X3268700Y496800D02*
X3332128D01*
X3268700Y503200D02*
Y511500D01*
Y503200D02*
X3332128D01*
X3268700Y504000D02*
X3333422D01*
X3268700Y505200D02*
X3347600D01*
X3268700Y506400D02*
X3347600D01*
X3268700Y507600D02*
X3347600D01*
X3268700Y508800D02*
X3347600D01*
X3337872Y496800D02*
X3347600D01*
X3338807Y498000D02*
X3347600D01*
X3339225Y499200D02*
X3347600D01*
X3339281Y500400D02*
X3347600D01*
X3338991Y501600D02*
X3347600D01*
X3336578Y504000D02*
X3347600D01*
X3338263Y502800D02*
X3347600D01*
X3244800Y509594D02*
Y518806D01*
X3243600Y510794D02*
Y520006D01*
X3244394Y510000D02*
X3253606D01*
X3243194Y511200D02*
X3252406D01*
X3241994Y512400D02*
X3251206D01*
X3240794Y513600D02*
X3250006D01*
X3251994Y518400D02*
X3254074D01*
X3250794Y519600D02*
X3252874D01*
X3255594Y514800D02*
X3257674D01*
X3256800Y513594D02*
Y515674D01*
X3256794Y513600D02*
X3258875D01*
X3258000Y512394D02*
Y514474D01*
X3254400Y515994D02*
Y518075D01*
X3253200Y517194D02*
Y519275D01*
X3254394Y516000D02*
X3256475D01*
X3253194Y517200D02*
X3255275D01*
X3255600Y514794D02*
Y516875D01*
X3241200Y513194D02*
Y522406D01*
X3240000Y514394D02*
Y522700D01*
X3242400Y511994D02*
Y521206D01*
X3244295Y526800D02*
X3249800D01*
X3244182Y528000D02*
X3249800D01*
X3243695Y529200D02*
X3249800D01*
X3242633Y530400D02*
X3249800D01*
X3250800Y519594D02*
Y521674D01*
X3252000Y518394D02*
Y520474D01*
X3249594Y520800D02*
X3251675D01*
X3245994Y524400D02*
X3249800D01*
X3244794Y525600D02*
X3249800D01*
X3248394Y522000D02*
X3250502D01*
X3247194Y523200D02*
X3249902D01*
X3260400Y509994D02*
Y512075D01*
X3259200Y511194D02*
Y513274D01*
X3260394Y510000D02*
X3262300D01*
X3259194Y511200D02*
X3261274D01*
X3257994Y512400D02*
X3260075D01*
X3263126Y518400D02*
X3347600D01*
X3261926Y519600D02*
X3347600D01*
X3260725Y520800D02*
X3347600D01*
X3268700Y510000D02*
X3347600D01*
X3268700Y511200D02*
X3347600D01*
X3268571Y512400D02*
X3347600D01*
X3267915Y513600D02*
X3347600D01*
X3266726Y514800D02*
X3347600D01*
X3264325Y517200D02*
X3347600D01*
X3265525Y516000D02*
X3347600D01*
X3250740Y521735D02*
X3262300Y510175D01*
X3256200Y525325D02*
X3267760Y513765D01*
X3256200Y525600D02*
X3347600D01*
X3256200Y526800D02*
X3347600D01*
X3256200Y528000D02*
X3347600D01*
X3256200Y529200D02*
X3347600D01*
X3256200Y530400D02*
X3347600D01*
X3256200Y531600D02*
X3347600D01*
X3259526Y522000D02*
X3347600D01*
X3258326Y523200D02*
X3347600D01*
X3257125Y524400D02*
X3347600D01*
X3256200Y532800D02*
X3347600D01*
X3256200Y534000D02*
X3347600D01*
X3256200Y535200D02*
X3347600D01*
X3256200Y536400D02*
X3347600D01*
X3256200Y537600D02*
X3347600D01*
X3256200Y538800D02*
X3347600D01*
X3214800Y538694D02*
Y539906D01*
X3214894Y540000D02*
X3216106D01*
X3197012Y520906D02*
X3221780Y545674D01*
X3196197Y521303D02*
X3221712Y546818D01*
X3191925Y542400D02*
X3210506D01*
X3193126Y543600D02*
X3211706D01*
X3194325Y544800D02*
X3212906D01*
X3195526Y546000D02*
X3214106D01*
X3216000Y539894D02*
Y541106D01*
X3217200Y541094D02*
Y542306D01*
X3216094Y541200D02*
X3217306D01*
X3218400Y542294D02*
Y543506D01*
X3217294Y542400D02*
X3218506D01*
X3219600Y543494D02*
Y544706D01*
X3218494Y543600D02*
X3219706D01*
X3219694Y544800D02*
X3220906D01*
X3220800Y544694D02*
Y545906D01*
X3210000Y541894D02*
Y560474D01*
X3211200Y543094D02*
Y561674D01*
X3196725Y547200D02*
X3215306D01*
X3197926Y548400D02*
X3216506D01*
X3199125Y549600D02*
X3217706D01*
X3200325Y550800D02*
X3218906D01*
X3201525Y552000D02*
X3220106D01*
X3202726Y553200D02*
X3221306D01*
X3212400Y544294D02*
Y562875D01*
X3213600Y545494D02*
Y564075D01*
X3214800Y546694D02*
Y565274D01*
X3216000Y547894D02*
Y566474D01*
X3217200Y549094D02*
Y567674D01*
X3218400Y550294D02*
Y568875D01*
X3219600Y551494D02*
Y570075D01*
X3220800Y552694D02*
Y571275D01*
X3199697Y516803D02*
X3225174Y542280D01*
X3225600Y491000D02*
Y542219D01*
X3222894Y540000D02*
X3249800D01*
X3226800Y527922D02*
Y542275D01*
X3220894Y546000D02*
X3221729D01*
X3225694Y550800D02*
X3226000D01*
X3224094Y541200D02*
X3249800D01*
X3228000Y530081D02*
Y542693D01*
X3229200Y530905D02*
Y543628D01*
X3227296Y542400D02*
X3249800D01*
X3229175Y543600D02*
X3249800D01*
X3229950Y544800D02*
X3249800D01*
X3230271Y546000D02*
X3249800D01*
X3230243Y547200D02*
X3249800D01*
X3228980Y549600D02*
X3249800D01*
X3229858Y548400D02*
X3249800D01*
X3179294Y529768D02*
X3227826Y578300D01*
X3174768Y534294D02*
X3224234Y583760D01*
X3193506Y525400D02*
X3230780Y562674D01*
X3203925Y554400D02*
X3222506D01*
X3222000Y553894D02*
Y572474D01*
X3226000Y550800D02*
X3249800D01*
X3225682Y550788D02*
X3234174Y559280D01*
X3230400Y531258D02*
Y555506D01*
X3231600Y531258D02*
Y556706D01*
X3232800Y530905D02*
Y557906D01*
X3234000Y530081D02*
Y559106D01*
X3226800Y550725D02*
Y551906D01*
X3228000Y550307D02*
Y553106D01*
X3226894Y552000D02*
X3249800D01*
X3228094Y553200D02*
X3249800D01*
X3229200Y549372D02*
Y554306D01*
X3019300Y571200D02*
X3211674D01*
X3019300Y572400D02*
X3212875D01*
X3019300Y573600D02*
X3214074D01*
X3019300Y574800D02*
X3215274D01*
X3019300Y576000D02*
X3216475D01*
X3019300Y577200D02*
X3217675D01*
X3019300Y578400D02*
X3218874D01*
X3019300Y579600D02*
X3220074D01*
X3205125Y555600D02*
X3223706D01*
X3223200Y555094D02*
Y573674D01*
X3206326Y556800D02*
X3224906D01*
X3224400Y556294D02*
Y574874D01*
X3050771Y570000D02*
X3210474D01*
X3019300Y580800D02*
X3221275D01*
X3207526Y558000D02*
X3226106D01*
X3019300Y582000D02*
X3222475D01*
X3225600Y557494D02*
Y576075D01*
X3210000Y569525D02*
Y584700D01*
X3211200Y570725D02*
Y584700D01*
X3212400Y571925D02*
Y584700D01*
X3213600Y573126D02*
Y584700D01*
X3214800Y574326D02*
Y584700D01*
X3216000Y575526D02*
Y584700D01*
X3019300Y583200D02*
X3223674D01*
X3019300Y584400D02*
X3225147D01*
X3217200Y576725D02*
Y584700D01*
X3218400Y577925D02*
Y584700D01*
X3219600Y579125D02*
Y584700D01*
X3220800Y580326D02*
Y584700D01*
X3222000Y581526D02*
Y584700D01*
X3223200Y582725D02*
Y584700D01*
X3224400Y583915D02*
Y584700D01*
X3208725Y559200D02*
X3227306D01*
X3209925Y560400D02*
X3228506D01*
X3211126Y561600D02*
X3229706D01*
X3212326Y562800D02*
X3230758D01*
X3213525Y564000D02*
X3230729D01*
X3214725Y565200D02*
X3231050D01*
X3215926Y566400D02*
X3231825D01*
X3217125Y567600D02*
X3233704D01*
X3229294Y554400D02*
X3249800D01*
X3230494Y555600D02*
X3249800D01*
X3231694Y556800D02*
X3249800D01*
X3232894Y558000D02*
X3249800D01*
X3234094Y559200D02*
X3235000D01*
X3218325Y568800D02*
X3249800D01*
X3219526Y570000D02*
X3249501D01*
X3220726Y571200D02*
X3248901D01*
X3221925Y572400D02*
X3248701D01*
X3223125Y573600D02*
X3248843D01*
X3224326Y574800D02*
X3249367D01*
X3225526Y576000D02*
X3250502D01*
X3019300Y584700D02*
X3226500D01*
X3362000D01*
X3226500D02*
X3362000D01*
X3226800Y558694D02*
Y577275D01*
X3228000Y559894D02*
Y578300D01*
X3229200Y561094D02*
Y578300D01*
X3230400Y562294D02*
Y578300D01*
X3231600Y566132D02*
Y578300D01*
X3232800Y567195D02*
Y578300D01*
X3226725Y577200D02*
X3361774D01*
X3227826Y578300D02*
X3360675D01*
X3234000Y567682D02*
Y578300D01*
X3262800Y518725D02*
Y578300D01*
X3264000Y517525D02*
Y578300D01*
X3265200Y516326D02*
Y578300D01*
X3266400Y515126D02*
Y578300D01*
X3249600Y520794D02*
Y569868D01*
X3248400Y521994D02*
Y578300D01*
X3260400Y521126D02*
Y578300D01*
X3261600Y519925D02*
Y578300D01*
X3268800Y503200D02*
Y578300D01*
X3270000Y503200D02*
Y578300D01*
X3271200Y503200D02*
Y578300D01*
X3272400Y503200D02*
Y578300D01*
X3267600Y513926D02*
Y578300D01*
X3273600Y503200D02*
Y578300D01*
X3274800Y503200D02*
Y578300D01*
X3276000Y503200D02*
Y578300D01*
X3277200Y503200D02*
Y578300D01*
X3278400Y503200D02*
Y578300D01*
X3279600Y503200D02*
Y578300D01*
X3280800Y503200D02*
Y578300D01*
X3282000Y503200D02*
Y578300D01*
X3283200Y503200D02*
Y578300D01*
X3284400Y503200D02*
Y578300D01*
X3285600Y503200D02*
Y578300D01*
X3286800Y503200D02*
Y578300D01*
X3288000Y503200D02*
Y578300D01*
X3289200Y503200D02*
Y578300D01*
X3290400Y503200D02*
Y578300D01*
X3291600Y503200D02*
Y578300D01*
X3292800Y503200D02*
Y578300D01*
X3294000Y503200D02*
Y578300D01*
X3295200Y503200D02*
Y578300D01*
X3296400Y503200D02*
Y578300D01*
X3297600Y503200D02*
Y578300D01*
X3298800Y503200D02*
Y578300D01*
X3300000Y503200D02*
Y578300D01*
X3301200Y503200D02*
Y578300D01*
X3302400Y503200D02*
Y578300D01*
X3303600Y503200D02*
Y578300D01*
X3304800Y503200D02*
Y578300D01*
X3306000Y503200D02*
Y578300D01*
X3307200Y503200D02*
Y578300D01*
X3308400Y503200D02*
Y578300D01*
X3309600Y503200D02*
Y578300D01*
X3310800Y503200D02*
Y578300D01*
X3312000Y503200D02*
Y578300D01*
X3313200Y503200D02*
Y578300D01*
X3314400Y503200D02*
Y578300D01*
X3315600Y503200D02*
Y578300D01*
X3316800Y503200D02*
Y578300D01*
X3318000Y503200D02*
Y578300D01*
X3319200Y503200D02*
Y578300D01*
X3320400Y503200D02*
Y578300D01*
X3321600Y503200D02*
Y578300D01*
X3322800Y503200D02*
Y578300D01*
X3324000Y503200D02*
Y578300D01*
X3325200Y503200D02*
Y578300D01*
X3326400Y503200D02*
Y578300D01*
X3327600Y503200D02*
Y578300D01*
X3328800Y503200D02*
Y578300D01*
X3330000Y503200D02*
Y578300D01*
X3331200Y503200D02*
Y578300D01*
X3338400Y502633D02*
Y578300D01*
X3332400Y503425D02*
Y578300D01*
X3333600Y504066D02*
Y578300D01*
X3334800Y504295D02*
Y578300D01*
X3336000Y504182D02*
Y578300D01*
X3337200Y503695D02*
Y578300D01*
X3235200Y527922D02*
Y559205D01*
X3236400Y529352D02*
Y559434D01*
X3235000Y559200D02*
X3249800D01*
X3237600Y530568D02*
Y560075D01*
X3237980Y560400D02*
X3249800D01*
X3235200Y567795D02*
Y578300D01*
X3238175Y566400D02*
X3249800D01*
X3236296Y567600D02*
X3249800D01*
X3238800Y531129D02*
Y561487D01*
X3249800Y524000D02*
Y569628D01*
X3256200Y525325D02*
Y569628D01*
X3256800Y524725D02*
Y570487D01*
X3238858Y561600D02*
X3249800D01*
X3239243Y562800D02*
X3249800D01*
X3239271Y564000D02*
X3249800D01*
X3238950Y565200D02*
X3249800D01*
X3240000Y531300D02*
Y578300D01*
X3242400Y530568D02*
Y578300D01*
X3243600Y529352D02*
Y578300D01*
X3244800Y525594D02*
Y578300D01*
X3236400Y567566D02*
Y578300D01*
X3237600Y566925D02*
Y578300D01*
X3238800Y565513D02*
Y578300D01*
X3241200Y531129D02*
Y578300D01*
X3246000Y524394D02*
Y578300D01*
X3247200Y523194D02*
Y578300D01*
X3249600Y575133D02*
Y578300D01*
X3256800Y574512D02*
Y578300D01*
X3250800Y576195D02*
Y578300D01*
X3252000Y576682D02*
Y578300D01*
X3253200Y576795D02*
Y578300D01*
X3254400Y576566D02*
Y578300D01*
X3255600Y575925D02*
Y578300D01*
X3256200Y540000D02*
X3347600D01*
X3256200Y541200D02*
X3347600D01*
X3256200Y542400D02*
X3347600D01*
X3256200Y543600D02*
X3347600D01*
X3256200Y544800D02*
X3347600D01*
X3256200Y546000D02*
X3347600D01*
X3256200Y547200D02*
X3347921D01*
X3256200Y548400D02*
X3349006D01*
X3256200Y549600D02*
X3350206D01*
X3256200Y550800D02*
X3351406D01*
X3256200Y552000D02*
X3352606D01*
X3256200Y553200D02*
X3353806D01*
X3256200Y554400D02*
X3355006D01*
X3256200Y555600D02*
X3356206D01*
X3256200Y556800D02*
X3357406D01*
X3256200Y558000D02*
X3358606D01*
X3256200Y559200D02*
X3358761D01*
X3256200Y560400D02*
X3358715D01*
X3256200Y561600D02*
X3358947D01*
X3256200Y562800D02*
X3359500D01*
X3256200Y564000D02*
X3360523D01*
X3256200Y565200D02*
X3362975D01*
X3255498Y576000D02*
X3362975D01*
X3256200Y566400D02*
X3370300D01*
X3256200Y567600D02*
X3370300D01*
X3258000Y523525D02*
Y578300D01*
X3256200Y568800D02*
X3370174D01*
X3259200Y522326D02*
Y578300D01*
X3257157Y573600D02*
X3365374D01*
X3256633Y574800D02*
X3364175D01*
X3256499Y570000D02*
X3368975D01*
X3257099Y571200D02*
X3367775D01*
X3257299Y572400D02*
X3366574D01*
X3339600Y347300D02*
Y349600D01*
X3340800Y347300D02*
Y349600D01*
X3342000Y347300D02*
Y349600D01*
X3343200Y347300D02*
Y349600D01*
X3344400Y347300D02*
Y349600D01*
X3345600Y347300D02*
Y349600D01*
X3346800Y347300D02*
Y349600D01*
X3348000Y347300D02*
Y349600D01*
X3349200Y347300D02*
Y349600D01*
X3350400Y347300D02*
Y349600D01*
X3351600Y347300D02*
Y349600D01*
X3352800Y347300D02*
Y349600D01*
X3354000Y347300D02*
Y349600D01*
X3355200Y347300D02*
Y349600D01*
X3356400Y347300D02*
Y349600D01*
X3357600Y347300D02*
Y349600D01*
X3339600Y354400D02*
Y385100D01*
X3340800Y354400D02*
Y385100D01*
X3342000Y354400D02*
Y385100D01*
X3343200Y354400D02*
Y385100D01*
X3344400Y354400D02*
Y385100D01*
X3345600Y354400D02*
Y385176D01*
X3346800Y354400D02*
Y385906D01*
X3348000Y354400D02*
Y387106D01*
X3349200Y354400D02*
Y388306D01*
X3350400Y354400D02*
Y389506D01*
X3358800Y347300D02*
Y349600D01*
X3351600Y354400D02*
Y390706D01*
X3352800Y354400D02*
Y391906D01*
X3354000Y354400D02*
Y393106D01*
X3358800Y354400D02*
Y359025D01*
X3355200Y354400D02*
Y394306D01*
X3356400Y354400D02*
Y395506D01*
X3360000Y347300D02*
Y349600D01*
X3361200Y347300D02*
Y349600D01*
X3362400Y347300D02*
Y349600D01*
X3363600Y347300D02*
Y349600D01*
X3362400Y354400D02*
Y355328D01*
X3361200Y354400D02*
Y355787D01*
X3363600Y354400D02*
Y355200D01*
X3363500D02*
X3364500D01*
X3364800Y347300D02*
Y349600D01*
Y354400D02*
Y355209D01*
X3366000Y347300D02*
Y349600D01*
X3367200Y347300D02*
Y349600D01*
X3363500Y355200D02*
X3364500D01*
X3366000Y354400D02*
Y355440D01*
X3364500Y355200D02*
X3385806D01*
X3367200Y354400D02*
Y356031D01*
X3367675Y356400D02*
X3387006D01*
X3360000Y354400D02*
Y356715D01*
X3358800Y360975D02*
Y369025D01*
X3360000Y363285D02*
Y366715D01*
Y373285D02*
Y376523D01*
X3358800Y370975D02*
Y378975D01*
X3361200Y364213D02*
Y365787D01*
X3363500Y364800D02*
X3364275D01*
X3362400Y364672D02*
Y365328D01*
X3363500Y364800D02*
X3364275D01*
X3363600D02*
Y365200D01*
X3363500D02*
X3364500D01*
X3364275Y364800D02*
X3364678Y365203D01*
X3367200Y373969D02*
Y375775D01*
X3348494Y387600D02*
X3359275D01*
X3346697Y385803D02*
X3356697Y395803D01*
X3344006Y389900D02*
X3352600Y398494D01*
X3339600Y389900D02*
Y398748D01*
X3349694Y388800D02*
X3358838D01*
X3350894Y390000D02*
X3358700D01*
X3358800Y381025D02*
Y388975D01*
X3352094Y391200D02*
X3358838D01*
X3360000Y383477D02*
Y386523D01*
X3353294Y392400D02*
X3359275D01*
X3360000Y393477D02*
Y396523D01*
X3357381Y397200D02*
X3359500D01*
X3357400Y398400D02*
X3358947D01*
X3340800Y389900D02*
Y399743D01*
X3340675Y399600D02*
X3352600D01*
X3341450Y400800D02*
X3352600D01*
X3341357Y404400D02*
X3352600D01*
X3340480Y405600D02*
X3352600D01*
X3339900Y406800D02*
X3352600D01*
X3339900Y408000D02*
X3352600D01*
X3358800Y391025D02*
Y398975D01*
X3341771Y402000D02*
X3352600D01*
X3357400Y399600D02*
X3358715D01*
X3357400Y400800D02*
X3358761D01*
X3357400Y402000D02*
X3359092D01*
X3341743Y403200D02*
X3352600D01*
X3357400D02*
X3359775D01*
X3357400Y408000D02*
X3359092D01*
X3360000Y403477D02*
Y406523D01*
X3361200Y374213D02*
Y375500D01*
Y384500D02*
Y385500D01*
X3347294Y386400D02*
X3360110D01*
X3354494Y393600D02*
X3360110D01*
X3345686Y385200D02*
X3361753D01*
X3355694Y394800D02*
X3361753D01*
X3366418Y374400D02*
X3369300D01*
X3366000Y374560D02*
Y375092D01*
X3366955Y375600D02*
X3369300D01*
X3367477Y384000D02*
X3369300D01*
X3367200Y384225D02*
Y385775D01*
X3366247Y385200D02*
X3369300D01*
X3367890Y386400D02*
X3369300D01*
X3361200Y394500D02*
Y395500D01*
X3356873Y396000D02*
X3360523D01*
X3357400Y404400D02*
X3361045D01*
X3357400Y406800D02*
X3359775D01*
X3361200Y404500D02*
Y405500D01*
X3357400Y405600D02*
X3361045D01*
X3367200Y394225D02*
Y395775D01*
X3366247Y394800D02*
X3369300D01*
X3367477Y396000D02*
X3369300D01*
X3367200Y404225D02*
Y405775D01*
X3366955Y404400D02*
X3369300D01*
X3366955Y405600D02*
X3369300D01*
X3368400Y347300D02*
Y349600D01*
X3369600Y347300D02*
Y349600D01*
X3370800Y347300D02*
Y349600D01*
X3372000Y347300D02*
Y349600D01*
X3368400Y354400D02*
Y357202D01*
X3373200Y347300D02*
Y349600D01*
X3369600Y354400D02*
Y361074D01*
X3374400Y347300D02*
Y349600D01*
X3375600Y347300D02*
Y349600D01*
X3376800Y347300D02*
Y349600D01*
X3378000Y347300D02*
Y349600D01*
X3379200Y347300D02*
Y349600D01*
X3380400Y347300D02*
Y349600D01*
X3381600Y347300D02*
Y349600D01*
X3382800Y347300D02*
Y349600D01*
X3384000Y347300D02*
Y349600D01*
X3370800Y354400D02*
Y362275D01*
X3369300Y370000D02*
Y380000D01*
X3372000Y354400D02*
Y363474D01*
X3369246Y360720D02*
X3374760Y366234D01*
X3368864Y372000D02*
X3369300D01*
X3368400Y372798D02*
Y377045D01*
X3368078Y373200D02*
X3369300D01*
X3368225Y376800D02*
X3369300D01*
X3373200Y354400D02*
Y364674D01*
X3374400Y354400D02*
Y365875D01*
X3375600Y354400D02*
Y367706D01*
X3375424Y367200D02*
X3384119D01*
X3375698Y368400D02*
X3384100D01*
X3375700Y369600D02*
X3384100D01*
X3375700Y370800D02*
X3384100D01*
X3385200Y347300D02*
Y349600D01*
X3368657Y357600D02*
X3388206D01*
X3385006Y354400D02*
X3388700Y358094D01*
X3369147Y358800D02*
X3388700D01*
X3370926Y362400D02*
X3388206D01*
X3372126Y363600D02*
X3387006D01*
X3369300Y360000D02*
X3388700D01*
X3369725Y361200D02*
X3388700D01*
X3386400Y347300D02*
Y349634D01*
X3387600Y347300D02*
Y350211D01*
X3388800Y347300D02*
Y351406D01*
X3390000Y347300D02*
Y352606D01*
X3391200Y347300D02*
Y353806D01*
X3387600Y356994D02*
Y363006D01*
X3388700Y358094D02*
Y361906D01*
X3374525Y366000D02*
X3384626D01*
X3373325Y364800D02*
X3385806D01*
X3375700Y372000D02*
X3384100D01*
X3375700Y373200D02*
X3384100D01*
X3375700Y374400D02*
X3384100D01*
X3375700Y375600D02*
X3384100D01*
X3386400Y355794D02*
Y364206D01*
X3385200Y354594D02*
Y365406D01*
X3384803Y365803D02*
X3388700Y361906D01*
X3388900Y371371D02*
Y378558D01*
Y373200D02*
X3389922D01*
X3390000Y373285D02*
Y376523D01*
X3388900Y374400D02*
X3391582D01*
X3388900Y375600D02*
X3391045D01*
X3391200Y374213D02*
Y375500D01*
X3375700Y376800D02*
X3384100D01*
X3368908Y378000D02*
X3369300D01*
X3375700D02*
X3384100D01*
X3375700Y379200D02*
X3384100D01*
X3368400Y382955D02*
Y387045D01*
X3369300Y380000D02*
Y390000D01*
X3368500Y382800D02*
X3369300D01*
X3368726Y387600D02*
X3369300D01*
X3375700Y380400D02*
X3384100D01*
X3375700Y381600D02*
X3384100D01*
X3375700Y382800D02*
X3384100D01*
X3375700Y384000D02*
X3384100D01*
X3375700Y385200D02*
X3384100D01*
X3375700Y386400D02*
X3384100D01*
X3375700Y387600D02*
X3384100D01*
X3375700Y388800D02*
X3384100D01*
X3375700Y390000D02*
X3384100D01*
X3368726Y392400D02*
X3369300D01*
X3368400Y392955D02*
Y397045D01*
X3367890Y393600D02*
X3369300D01*
X3368500Y397200D02*
X3369300D01*
X3368908Y402000D02*
X3369300D01*
X3368400Y402955D02*
Y407045D01*
X3368225Y403200D02*
X3369300D01*
X3368225Y406800D02*
X3369300D01*
X3375700Y391200D02*
X3384100D01*
X3369300Y390000D02*
Y400000D01*
X3375700Y392400D02*
X3384100D01*
X3375700Y393600D02*
X3384100D01*
X3375700Y394800D02*
X3384100D01*
X3375700Y396000D02*
X3384100D01*
X3375700Y397200D02*
X3384100D01*
X3375700Y398400D02*
X3384100D01*
X3375700Y399600D02*
X3384100D01*
X3388900Y382800D02*
X3389500D01*
X3388900Y381442D02*
Y388558D01*
Y376800D02*
X3389775D01*
X3388900Y386400D02*
X3390110D01*
X3388900Y387600D02*
X3389275D01*
X3388900Y384000D02*
X3390523D01*
X3388900Y385200D02*
X3391753D01*
X3391200Y384500D02*
Y385500D01*
X3390000Y383477D02*
Y386523D01*
X3388900Y392400D02*
X3389275D01*
X3388900Y393600D02*
X3390110D01*
X3388900Y394800D02*
X3391753D01*
X3388900Y396000D02*
X3390523D01*
X3391200Y394500D02*
Y395500D01*
X3375700Y400800D02*
X3384100D01*
X3375700Y402000D02*
X3384100D01*
X3388900Y397200D02*
X3389500D01*
X3388900Y391442D02*
Y398558D01*
X3375700Y403200D02*
X3384100D01*
X3375700Y404400D02*
X3384100D01*
X3375700Y405600D02*
X3384100D01*
X3375700Y406800D02*
X3384100D01*
X3390000Y393477D02*
Y396523D01*
X3388900Y403200D02*
X3389775D01*
X3388900Y406800D02*
X3389775D01*
X3390000Y403477D02*
Y406523D01*
X3388900Y404400D02*
X3391045D01*
X3388900Y405600D02*
X3391045D01*
X3391200Y404500D02*
Y405500D01*
X3339900Y409200D02*
X3352600D01*
X3339900Y410400D02*
X3352600D01*
X3339900Y411600D02*
X3352600D01*
X3339900Y412800D02*
X3352600D01*
X3339900Y414000D02*
X3352600D01*
X3339900Y415200D02*
X3352600D01*
X3339900Y416400D02*
X3352600D01*
X3339900Y417600D02*
X3352600D01*
X3339900Y418800D02*
X3352600D01*
X3339900Y420000D02*
X3352600D01*
X3339900Y421200D02*
X3352600D01*
X3339900Y422400D02*
X3352600D01*
X3339900Y423600D02*
X3352600D01*
X3339900Y424800D02*
X3352600D01*
X3339900Y426000D02*
X3352600D01*
X3339900Y427200D02*
X3352600D01*
X3340800Y405257D02*
Y437406D01*
X3342000Y389900D02*
Y438606D01*
X3343200Y389900D02*
Y439806D01*
X3344400Y390294D02*
Y441006D01*
X3339900Y428400D02*
X3352600D01*
X3339900Y406068D02*
Y436506D01*
Y429600D02*
X3352600D01*
X3339900Y430800D02*
X3352600D01*
X3345600Y391494D02*
Y442206D01*
X3346800Y392694D02*
Y443406D01*
X3357600Y354400D02*
Y440206D01*
X3348000Y393894D02*
Y444606D01*
X3349200Y395094D02*
Y445806D01*
X3350400Y396294D02*
Y447006D01*
X3357400Y397500D02*
Y440006D01*
X3351600Y397494D02*
Y448206D01*
X3352600Y398494D02*
Y441000D01*
X3357400Y409200D02*
X3358761D01*
X3357400Y410400D02*
X3358715D01*
X3357400Y411600D02*
X3358947D01*
X3357400Y412800D02*
X3359500D01*
X3357400Y416400D02*
X3360110D01*
X3357400Y417600D02*
X3359275D01*
X3357400Y414000D02*
X3360523D01*
X3357400Y415200D02*
X3361753D01*
X3358800Y401025D02*
Y408975D01*
Y411025D02*
Y418975D01*
X3357400Y420000D02*
X3358700D01*
X3361200Y414500D02*
Y415500D01*
X3357400Y418800D02*
X3358838D01*
X3360000Y413477D02*
Y416523D01*
X3357400Y421200D02*
X3358838D01*
X3357400Y422400D02*
X3359275D01*
X3357400Y423600D02*
X3360110D01*
X3357400Y424800D02*
X3361753D01*
X3357400Y428400D02*
X3358947D01*
X3357400Y429600D02*
X3358715D01*
X3357400Y426000D02*
X3360523D01*
X3357400Y427200D02*
X3359500D01*
X3358800Y421025D02*
Y428975D01*
X3361200Y424500D02*
Y425500D01*
X3360000Y423477D02*
Y426523D01*
X3339900Y432000D02*
X3352600D01*
X3339900Y433200D02*
X3352600D01*
X3339900Y434400D02*
X3352600D01*
X3339900Y435600D02*
X3352600D01*
X3340194Y436800D02*
X3352600D01*
X3341394Y438000D02*
X3352600D01*
X3342594Y439200D02*
X3352600D01*
X3343794Y440400D02*
X3352600D01*
X3344994Y441600D02*
X3352676D01*
X3357400Y430800D02*
X3358761D01*
X3346194Y442800D02*
X3353406D01*
X3347394Y444000D02*
X3354606D01*
X3348594Y445200D02*
X3355806D01*
X3349794Y446400D02*
X3357006D01*
X3350994Y447600D02*
X3358206D01*
X3339600Y442994D02*
Y578300D01*
X3340800Y444194D02*
Y578300D01*
X3339900Y436506D02*
X3351697Y448303D01*
X3342000Y445394D02*
Y578300D01*
X3343200Y446594D02*
Y578300D01*
X3344400Y447794D02*
Y578300D01*
X3345600Y448994D02*
Y578300D01*
X3346800Y450194D02*
Y578300D01*
X3352800Y441959D02*
Y545406D01*
X3354000Y443394D02*
Y546606D01*
X3355200Y444594D02*
Y547806D01*
X3356400Y445794D02*
Y549006D01*
X3347600Y450994D02*
Y546000D01*
X3352400Y450000D02*
Y545006D01*
X3357600Y446994D02*
Y550206D01*
X3357400Y432000D02*
X3359092D01*
X3357400Y433200D02*
X3359775D01*
X3357400Y434400D02*
X3361045D01*
X3357400Y435600D02*
X3361045D01*
X3357400Y438000D02*
X3359092D01*
X3353303Y442697D02*
X3358961Y448356D01*
X3357400Y436800D02*
X3359775D01*
X3352079Y448800D02*
X3358838D01*
X3360000Y433477D02*
Y436523D01*
X3358800Y431025D02*
Y438975D01*
X3361200Y434500D02*
Y435500D01*
X3357400Y439200D02*
X3358761D01*
X3357794Y440400D02*
X3358715D01*
X3358800Y441025D02*
Y441406D01*
X3357400Y440006D02*
X3358926Y441532D01*
X3358800Y448194D02*
Y448975D01*
X3352400Y450000D02*
X3358700D01*
X3352400Y451200D02*
X3358838D01*
X3352400Y452400D02*
X3359275D01*
X3352400Y453600D02*
X3360110D01*
X3352400Y454800D02*
X3361753D01*
X3352400Y456000D02*
X3369300D01*
X3352400Y457200D02*
X3369300D01*
X3352400Y458400D02*
X3369300D01*
X3360000Y453477D02*
Y466523D01*
X3358800Y451025D02*
Y468975D01*
X3361200Y454500D02*
Y465500D01*
X3363600Y455285D02*
Y464715D01*
X3362400Y455053D02*
Y464947D01*
X3352400Y459600D02*
X3369300D01*
X3364800Y455239D02*
Y464675D01*
X3364725Y464750D02*
X3369300Y460175D01*
X3367200Y414225D02*
Y415775D01*
X3368400Y412955D02*
Y417045D01*
X3368500Y412800D02*
X3369300D01*
X3367477Y414000D02*
X3369300D01*
X3366247Y415200D02*
X3369300D01*
X3367890Y416400D02*
X3369300D01*
X3368726Y417600D02*
X3369300D01*
X3367890Y423600D02*
X3369300D01*
X3368908Y408000D02*
X3369300D01*
Y400000D02*
Y410000D01*
X3375700Y408000D02*
X3384100D01*
X3375700Y409200D02*
X3384100D01*
X3369300Y410000D02*
Y420000D01*
X3368726Y422400D02*
X3369300D01*
X3375700Y410400D02*
X3384100D01*
X3375700Y411600D02*
X3384100D01*
X3375700Y412800D02*
X3384100D01*
X3367200Y424225D02*
Y425775D01*
X3368400Y422955D02*
Y427045D01*
X3366247Y424800D02*
X3369300D01*
Y420000D02*
Y430000D01*
X3367477Y426000D02*
X3369300D01*
X3368500Y427200D02*
X3369300D01*
X3368908Y432000D02*
X3369300D01*
Y430000D02*
Y440000D01*
X3376800Y354400D02*
Y584700D01*
X3378000Y354400D02*
Y584700D01*
X3379200Y354400D02*
Y584700D01*
X3380400Y354400D02*
Y584700D01*
X3375700Y368500D02*
Y461500D01*
X3381600Y354400D02*
Y584700D01*
X3384100Y367500D02*
Y462500D01*
X3382800Y354400D02*
Y584700D01*
X3384000Y354400D02*
Y584700D01*
X3375700Y414000D02*
X3384100D01*
X3375700Y415200D02*
X3384100D01*
X3375700Y416400D02*
X3384100D01*
X3375700Y417600D02*
X3384100D01*
X3375700Y418800D02*
X3384100D01*
X3375700Y420000D02*
X3384100D01*
X3375700Y421200D02*
X3384100D01*
X3375700Y422400D02*
X3384100D01*
X3388900Y401442D02*
Y408558D01*
Y411442D02*
Y418558D01*
Y412800D02*
X3389500D01*
X3390000Y413477D02*
Y416523D01*
X3388900Y416400D02*
X3390110D01*
X3388900Y417600D02*
X3389275D01*
X3388900Y414000D02*
X3390523D01*
X3388900Y415200D02*
X3391753D01*
X3391200Y414500D02*
Y415500D01*
X3375700Y423600D02*
X3384100D01*
X3375700Y424800D02*
X3384100D01*
X3375700Y426000D02*
X3384100D01*
X3375700Y427200D02*
X3384100D01*
X3375700Y428400D02*
X3384100D01*
X3375700Y429600D02*
X3384100D01*
X3375700Y430800D02*
X3384100D01*
X3375700Y432000D02*
X3384100D01*
X3388900Y422400D02*
X3389275D01*
X3388900Y421442D02*
Y428558D01*
Y423600D02*
X3390110D01*
X3390000Y423477D02*
Y426523D01*
X3388900Y427200D02*
X3389500D01*
X3388900Y431442D02*
Y438558D01*
Y424800D02*
X3391753D01*
X3388900Y426000D02*
X3390523D01*
X3391200Y424500D02*
Y425500D01*
X3367200Y434225D02*
Y435775D01*
X3368400Y432955D02*
Y437045D01*
X3368225Y433200D02*
X3369300D01*
X3366955Y434400D02*
X3369300D01*
X3366955Y435600D02*
X3369300D01*
X3368225Y436800D02*
X3369300D01*
X3368500Y442800D02*
X3369300D01*
X3375700Y433200D02*
X3384100D01*
X3375700Y434400D02*
X3384100D01*
X3375700Y435600D02*
X3384100D01*
X3375700Y436800D02*
X3384100D01*
X3368908Y438000D02*
X3369300D01*
X3375700D02*
X3384100D01*
X3375700Y439200D02*
X3384100D01*
X3375700Y440400D02*
X3384100D01*
X3375700Y441600D02*
X3384100D01*
X3367200Y444225D02*
Y445775D01*
X3367477Y444000D02*
X3369300D01*
X3367200Y454225D02*
Y462275D01*
X3366000Y454908D02*
Y463475D01*
X3366247Y445200D02*
X3369300D01*
X3366247Y454800D02*
X3369300D01*
X3368400Y442955D02*
Y447045D01*
X3369300Y440000D02*
Y450000D01*
X3375700Y442800D02*
X3384100D01*
X3367890Y446400D02*
X3369300D01*
X3368726Y447600D02*
X3369300D01*
X3368400Y452955D02*
Y461074D01*
X3368726Y452400D02*
X3369300D01*
X3367890Y453600D02*
X3369300D01*
Y450000D02*
Y460175D01*
X3388900Y433200D02*
X3389775D01*
X3388900Y436800D02*
X3389775D01*
X3388900Y434400D02*
X3391045D01*
X3388900Y435600D02*
X3391045D01*
X3375700Y444000D02*
X3384100D01*
X3375700Y445200D02*
X3384100D01*
X3375700Y446400D02*
X3384100D01*
X3375700Y447600D02*
X3384100D01*
X3390000Y433477D02*
Y436523D01*
X3388900Y442800D02*
X3389500D01*
X3391200Y434500D02*
Y435500D01*
X3390000Y443477D02*
Y446523D01*
X3388900Y446400D02*
X3390110D01*
X3388900Y447600D02*
X3389275D01*
X3388900Y444000D02*
X3390523D01*
X3388900Y445200D02*
X3391753D01*
X3391200Y444500D02*
Y445500D01*
X3375700Y448800D02*
X3384100D01*
X3375700Y450000D02*
X3384100D01*
X3375700Y451200D02*
X3384100D01*
X3375700Y452400D02*
X3384100D01*
X3375700Y453600D02*
X3384100D01*
X3375700Y454800D02*
X3384100D01*
X3375700Y456000D02*
X3384100D01*
X3375700Y457200D02*
X3384100D01*
X3388900Y441442D02*
Y448558D01*
Y451442D02*
Y461506D01*
Y452400D02*
X3389275D01*
X3390000Y453477D02*
Y462606D01*
X3375700Y458400D02*
X3384100D01*
X3375700Y459600D02*
X3384100D01*
X3388900Y453600D02*
X3390110D01*
X3388900Y454800D02*
X3391753D01*
X3391200Y454500D02*
Y463806D01*
X3392400Y347300D02*
Y355006D01*
X3387697Y350303D02*
X3392594Y355200D01*
X3399300D01*
X3392594D02*
X3399300D01*
X3393500Y365200D02*
X3394500D01*
X3391930Y365464D02*
X3392594Y364800D01*
X3399300D01*
X3392594D02*
X3399300D01*
X3393600Y347300D02*
Y355200D01*
X3394800Y347300D02*
Y355200D01*
X3396000Y347300D02*
Y355200D01*
X3397200Y347300D02*
Y355200D01*
X3393600Y364800D02*
Y365200D01*
X3394800Y364800D02*
Y365209D01*
X3398400Y347300D02*
Y355200D01*
X3399300D02*
Y364800D01*
X3392400Y364994D02*
Y365328D01*
X3396000Y364800D02*
Y365440D01*
X3397200Y364800D02*
Y366031D01*
X3399600Y347300D02*
Y382206D01*
X3400800Y347300D02*
Y383406D01*
X3402000Y347300D02*
Y384606D01*
X3396000Y374560D02*
Y375092D01*
X3397200Y373969D02*
Y375775D01*
X3398400Y364800D02*
Y367202D01*
Y372798D02*
Y377045D01*
X3387794Y350400D02*
X3472200D01*
X3388994Y351600D02*
X3472200D01*
X3390194Y352800D02*
X3472200D01*
X3391394Y354000D02*
X3472200D01*
X3398399Y367200D02*
X3417357D01*
X3399025Y368400D02*
X3417009D01*
X3399300Y355200D02*
X3472200D01*
X3397153Y366000D02*
X3417851D01*
X3399300Y356400D02*
X3472200D01*
X3399300Y360000D02*
X3424451D01*
X3399300Y357600D02*
X3472200D01*
X3399300Y358800D02*
X3472200D01*
X3399300Y364800D02*
X3418512D01*
X3399283Y369600D02*
X3416793D01*
X3399300Y361200D02*
X3422054D01*
X3399300Y362400D02*
X3420510D01*
X3399300Y363600D02*
X3419376D01*
X3398864Y372000D02*
X3416736D01*
X3398078Y373200D02*
X3416891D01*
X3396418Y374400D02*
X3417176D01*
X3396955Y375600D02*
X3417599D01*
X3398225Y376800D02*
X3418177D01*
X3399038Y381644D02*
X3415197Y397803D01*
X3398908Y378000D02*
X3418940D01*
X3399053Y381600D02*
X3423148D01*
X3403200Y347300D02*
Y385806D01*
X3404400Y347300D02*
Y387006D01*
X3405600Y347300D02*
Y388206D01*
X3406800Y347300D02*
Y389406D01*
X3399233Y370800D02*
X3416703D01*
X3399239Y379200D02*
X3419935D01*
X3399285Y380400D02*
X3421259D01*
X3400194Y382800D02*
X3427100D01*
X3401394Y384000D02*
X3472200D01*
X3399300Y390000D02*
X3400606D01*
X3399162Y391200D02*
X3401806D01*
X3399285Y399600D02*
X3400206D01*
X3399239Y400800D02*
X3401406D01*
X3399600Y388994D02*
Y392206D01*
X3400800Y390194D02*
Y393406D01*
X3399794Y392400D02*
X3403006D01*
X3402000Y391394D02*
Y394606D01*
X3399600Y398994D02*
Y402206D01*
X3400800Y400194D02*
Y403406D01*
X3403200Y392594D02*
Y395806D01*
X3399394Y402000D02*
X3402606D01*
X3402000Y401394D02*
Y404606D01*
X3399053Y411600D02*
X3402206D01*
X3399074Y418468D02*
X3400600Y419994D01*
X3399239Y409200D02*
X3399806D01*
X3399600Y408994D02*
Y412206D01*
X3403200Y402594D02*
Y405806D01*
X3399285Y410400D02*
X3401006D01*
X3399300Y420000D02*
X3400600D01*
X3399162Y421200D02*
X3400600D01*
X3400800Y410194D02*
Y413406D01*
X3402000Y411394D02*
Y414606D01*
X3403200Y412594D02*
Y415806D01*
X3399074Y388468D02*
X3411100Y400494D01*
X3399038Y391644D02*
X3411100Y403706D01*
X3402594Y385200D02*
X3472200D01*
X3403794Y386400D02*
X3472200D01*
X3400994Y393600D02*
X3404206D01*
X3400594Y403200D02*
X3403806D01*
X3402194Y394800D02*
X3405406D01*
X3403394Y396000D02*
X3406606D01*
X3404994Y387600D02*
X3472200D01*
X3404400Y393794D02*
Y397006D01*
X3406194Y388800D02*
X3472200D01*
X3407394Y390000D02*
X3472200D01*
X3405600Y394994D02*
Y398206D01*
X3406800Y396194D02*
Y399406D01*
X3404594Y397200D02*
X3407806D01*
X3405794Y398400D02*
X3409006D01*
X3406994Y399600D02*
X3410206D01*
X3401794Y404400D02*
X3405006D01*
X3399074Y408468D02*
X3404100Y413494D01*
X3399074Y398468D02*
X3407600Y406994D01*
X3399038Y401644D02*
X3407600Y410206D01*
X3400194Y412800D02*
X3403406D01*
X3399038Y411644D02*
X3404100Y416706D01*
X3401394Y414000D02*
X3404100D01*
X3402594Y415200D02*
X3404100D01*
X3404400Y403794D02*
Y407006D01*
X3405600Y404994D02*
Y408206D01*
X3402994Y405600D02*
X3406206D01*
X3406800Y406194D02*
Y409406D01*
X3403794Y416400D02*
X3404100D01*
Y413494D02*
Y416706D01*
X3404194Y406800D02*
X3407406D01*
X3405394Y408000D02*
X3407600D01*
X3406594Y409200D02*
X3407600D01*
X3418800Y347300D02*
Y364364D01*
X3417600Y347300D02*
Y366563D01*
X3421200Y347300D02*
Y361812D01*
X3420000Y347300D02*
Y362899D01*
X3423600Y347300D02*
Y360349D01*
X3422400Y347300D02*
Y360982D01*
X3424800Y347300D02*
Y359878D01*
X3427200Y347300D02*
Y359355D01*
X3426000Y347300D02*
Y359551D01*
X3428400Y347300D02*
Y359284D01*
X3429600Y347300D02*
Y359335D01*
X3430800Y347300D02*
Y359510D01*
X3432000Y347300D02*
Y359814D01*
X3433200Y347300D02*
Y360260D01*
X3408000Y347300D02*
Y390606D01*
X3409200Y347300D02*
Y391806D01*
X3410400Y347300D02*
Y393006D01*
X3411600Y347300D02*
Y394206D01*
X3412800Y347300D02*
Y395406D01*
X3414000Y347300D02*
Y396606D01*
X3415200Y347300D02*
Y397806D01*
X3416400Y347300D02*
Y412610D01*
X3418800Y377803D02*
Y411338D01*
X3417600Y375603D02*
Y411774D01*
X3420000Y379268D02*
Y411200D01*
X3421200Y380354D02*
Y411338D01*
X3422400Y381184D02*
Y411774D01*
X3423600Y381818D02*
Y412610D01*
X3424800Y382288D02*
Y414253D01*
X3426000Y382615D02*
Y420729D01*
X3432000Y382352D02*
Y414742D01*
X3434400Y347300D02*
Y360864D01*
X3435600Y347300D02*
Y361658D01*
X3432550Y360000D02*
X3472200D01*
X3436800Y347300D02*
Y362696D01*
X3434946Y361200D02*
X3472200D01*
X3436490Y362400D02*
X3472200D01*
X3437624Y363600D02*
X3472200D01*
X3438000Y347300D02*
Y364084D01*
X3439200Y347300D02*
Y366108D01*
X3438488Y364800D02*
X3472200D01*
X3439149Y366000D02*
X3472200D01*
X3439643Y367200D02*
X3472200D01*
X3439991Y368400D02*
X3472200D01*
X3440207Y369600D02*
X3472200D01*
X3440264Y372000D02*
X3472200D01*
X3440297Y370800D02*
X3472200D01*
X3435600Y380508D02*
Y411388D01*
X3436800Y379471D02*
Y411204D01*
X3437065Y379200D02*
X3472200D01*
X3434400Y381302D02*
Y411882D01*
X3433200Y381907D02*
Y412805D01*
X3435741Y380400D02*
X3472200D01*
X3433852Y381600D02*
X3472200D01*
X3440400Y347300D02*
Y412434D01*
X3441600Y347300D02*
Y413868D01*
X3440108Y373200D02*
X3472200D01*
X3439824Y374400D02*
X3472200D01*
X3438000Y378083D02*
Y411295D01*
X3439200Y376058D02*
Y411678D01*
X3439401Y375600D02*
X3472200D01*
X3438060Y378000D02*
X3472200D01*
X3438823Y376800D02*
X3472200D01*
X3408000Y397394D02*
Y400606D01*
X3409200Y398594D02*
Y401806D01*
X3410400Y399794D02*
Y403006D01*
X3411100Y400494D02*
Y403706D01*
X3408194Y400800D02*
X3411100D01*
X3407600Y406994D02*
Y410206D01*
X3409394Y402000D02*
X3411100D01*
X3410594Y403200D02*
X3411100D01*
X3415900Y411600D02*
X3417980D01*
X3415900Y399500D02*
Y413141D01*
Y412800D02*
X3416205D01*
X3423795D02*
X3433205D01*
X3424673Y414000D02*
X3432327D01*
X3425138Y415200D02*
X3431862D01*
X3416400Y420390D02*
Y421110D01*
X3415900Y421200D02*
X3416306D01*
X3423600Y420390D02*
Y421110D01*
X3423695Y421200D02*
X3424488D01*
X3427200Y382812D02*
Y420757D01*
X3428400Y382883D02*
Y421142D01*
X3425299Y416400D02*
X3431701D01*
X3425185Y417600D02*
X3431815D01*
X3424775Y418800D02*
X3432225D01*
X3424800Y418747D02*
Y421050D01*
X3423980Y420000D02*
X3433020D01*
X3428513Y421200D02*
X3433305D01*
X3433200Y420195D02*
Y421305D01*
X3408594Y391200D02*
X3472200D01*
X3409794Y392400D02*
X3472200D01*
X3410994Y393600D02*
X3472200D01*
X3412194Y394800D02*
X3472200D01*
X3413394Y396000D02*
X3472200D01*
X3414594Y397200D02*
X3472200D01*
X3415633Y398400D02*
X3472200D01*
X3415900Y399600D02*
X3472200D01*
X3429900Y382800D02*
X3472200D01*
X3415900Y400800D02*
X3472200D01*
X3415900Y402000D02*
X3472200D01*
X3415900Y403200D02*
X3472200D01*
X3415900Y404400D02*
X3472200D01*
X3415900Y405600D02*
X3472200D01*
X3415900Y406800D02*
X3472200D01*
X3415900Y408000D02*
X3472200D01*
X3415900Y409200D02*
X3472200D01*
X3422020Y411600D02*
X3434980D01*
X3415900Y410400D02*
X3472200D01*
X3439020Y411600D02*
X3472200D01*
X3440795Y412800D02*
X3472200D01*
X3441673Y414000D02*
X3472200D01*
X3442138Y415200D02*
X3472200D01*
X3442299Y416400D02*
X3472200D01*
X3442184Y417600D02*
X3472200D01*
X3440400Y420566D02*
Y420934D01*
X3441775Y418800D02*
X3472200D01*
X3440694Y421200D02*
X3472200D01*
X3440980Y420000D02*
X3472200D01*
X3397100Y434299D02*
Y435701D01*
X3399600Y418994D02*
Y422206D01*
X3400600Y419994D02*
Y423206D01*
X3399794Y422400D02*
X3400600D01*
X3399038Y421644D02*
X3400600Y423206D01*
X3412400Y437794D02*
Y439506D01*
X3412800Y438194D02*
Y439906D01*
X3412400Y439200D02*
X3413806D01*
X3412400Y437794D02*
X3414962Y440356D01*
X3408900Y444000D02*
X3410106D01*
X3408900Y442794D02*
Y444506D01*
X3397100Y444299D02*
Y445701D01*
X3396247Y445200D02*
X3397100D01*
X3409200Y443094D02*
Y444806D01*
X3410400Y444294D02*
Y446006D01*
X3414000Y439394D02*
Y441106D01*
X3412400Y439506D02*
X3414703Y441809D01*
X3409594Y445200D02*
X3411306D01*
X3411600Y445494D02*
Y447206D01*
X3410794Y446400D02*
X3412506D01*
X3411994Y447600D02*
X3413706D01*
X3412800Y446694D02*
Y448406D01*
X3415900Y419859D02*
Y421641D01*
X3416400Y428890D02*
Y429610D01*
X3415900Y428359D02*
Y430141D01*
Y429600D02*
X3416411D01*
X3423600Y428890D02*
Y429610D01*
X3423589Y429600D02*
X3424689D01*
X3424800Y428950D02*
Y429550D01*
X3413294Y440400D02*
X3414947D01*
X3423477Y438000D02*
X3433523D01*
X3408900Y442794D02*
X3414962Y448856D01*
X3408900Y444506D02*
X3414703Y450309D01*
X3423600Y437390D02*
Y438110D01*
X3424800Y437450D02*
Y439753D01*
X3424500Y439200D02*
X3432500D01*
X3423600Y445890D02*
Y446610D01*
X3424800Y444247D02*
Y448253D01*
X3424908Y444000D02*
X3432092D01*
X3423359Y446400D02*
X3433641D01*
X3424225Y445200D02*
X3432775D01*
X3401900Y452794D02*
Y454506D01*
X3402000Y452894D02*
Y454606D01*
X3396247Y454800D02*
X3397100D01*
Y454299D02*
Y455500D01*
X3401900Y453600D02*
X3402706D01*
X3388900Y456000D02*
X3397153D01*
X3405400Y447794D02*
Y449506D01*
X3405600Y447994D02*
Y449706D01*
X3405400Y448800D02*
X3406406D01*
X3406800Y449194D02*
Y450906D01*
X3402194Y454800D02*
X3403906D01*
X3403200Y454094D02*
Y455806D01*
X3405894Y450000D02*
X3407606D01*
X3403394Y456000D02*
X3405106D01*
X3404400Y455294D02*
Y457006D01*
X3392400Y455053D02*
Y465006D01*
X3393600Y455285D02*
Y465200D01*
X3394800Y455239D02*
Y465200D01*
X3396000Y454908D02*
Y465200D01*
X3388900Y457200D02*
X3397806D01*
X3388900Y458400D02*
X3399006D01*
X3388900Y459600D02*
X3400206D01*
X3397200Y456186D02*
Y465200D01*
X3404594Y457200D02*
X3406306D01*
X3405600Y456494D02*
Y458206D01*
X3398400Y457794D02*
Y465200D01*
X3399600Y458994D02*
Y517006D01*
X3405794Y458400D02*
X3407506D01*
X3400800Y460194D02*
Y515806D01*
X3406800Y457694D02*
Y459406D01*
X3407094Y451200D02*
X3408806D01*
X3408000Y450394D02*
Y452106D01*
X3413194Y448800D02*
X3414906D01*
X3409200Y451594D02*
Y453306D01*
X3408294Y452400D02*
X3410006D01*
X3410400Y452794D02*
Y454506D01*
X3409494Y453600D02*
X3411206D01*
X3410694Y454800D02*
X3412406D01*
X3414000Y447894D02*
Y449606D01*
X3424436Y447600D02*
X3432564D01*
X3425020Y448800D02*
X3431980D01*
X3414394Y450000D02*
X3414724D01*
X3423600Y454390D02*
Y455110D01*
X3424299Y453600D02*
X3432701D01*
X3423233Y454800D02*
X3433767D01*
X3411600Y453994D02*
Y455706D01*
X3405400Y447794D02*
X3414962Y457356D01*
X3405400Y449506D02*
X3414703Y458809D01*
X3401900Y452794D02*
X3414962Y465856D01*
X3406994Y459600D02*
X3408706D01*
X3408000Y458894D02*
Y460606D01*
X3401900Y454506D02*
X3414703Y467309D01*
X3397803Y457197D02*
X3414962Y474356D01*
X3411894Y456000D02*
X3413606D01*
X3412800Y455194D02*
Y456906D01*
X3424369Y456000D02*
X3432631D01*
X3413094Y457200D02*
X3414806D01*
X3414000Y456394D02*
Y458106D01*
X3414294Y458400D02*
X3414734D01*
X3429600Y382832D02*
Y422020D01*
X3430795Y424800D02*
X3431704D01*
X3429925Y422400D02*
X3432381D01*
X3430566Y423600D02*
X3431888D01*
X3428400Y428858D02*
Y429642D01*
X3430194Y427200D02*
X3432178D01*
X3429132Y428400D02*
X3432934D01*
X3432000Y418258D02*
Y423242D01*
X3430800Y382657D02*
Y425000D01*
X3441600Y419133D02*
Y422367D01*
X3430682Y426000D02*
X3431795D01*
X3429600Y427980D02*
Y430520D01*
X3430800Y425000D02*
Y433500D01*
X3428311Y429600D02*
X3433411D01*
X3430790Y433200D02*
X3431709D01*
X3430800Y433500D02*
Y471710D01*
X3429847Y430800D02*
X3432439D01*
X3430530Y432000D02*
X3431917D01*
X3441600Y427633D02*
Y430867D01*
X3432000Y426758D02*
Y431742D01*
X3442800Y347300D02*
Y584700D01*
X3444000Y347300D02*
Y584700D01*
X3433200Y428695D02*
Y429805D01*
X3440400Y429066D02*
Y429434D01*
X3441618Y422400D02*
X3472200D01*
X3442112Y423600D02*
X3472200D01*
X3442296Y424800D02*
X3472200D01*
X3441822Y427200D02*
X3472200D01*
X3441066Y428400D02*
X3472200D01*
X3440589Y429600D02*
X3472200D01*
X3441561Y430800D02*
X3472200D01*
X3442083Y432000D02*
X3472200D01*
X3445200Y347300D02*
Y584700D01*
X3446400Y347300D02*
Y584700D01*
X3447600Y347300D02*
Y584700D01*
X3448800Y347300D02*
Y584700D01*
X3450000Y347300D02*
Y584700D01*
X3451200Y347300D02*
Y584700D01*
X3442205Y426000D02*
X3472200D01*
X3442292Y433200D02*
X3472200D01*
X3452400Y347300D02*
Y584700D01*
X3453600Y347300D02*
Y584700D01*
X3454800Y347300D02*
Y584700D01*
X3456000Y347300D02*
Y584700D01*
X3457200Y347300D02*
Y584700D01*
X3458400Y347300D02*
Y584700D01*
X3459600Y347300D02*
Y584700D01*
X3460800Y347300D02*
Y584700D01*
X3462000Y347300D02*
Y584700D01*
X3463200Y347300D02*
Y584700D01*
X3464400Y347300D02*
Y584700D01*
X3465600Y347300D02*
Y584700D01*
X3466800Y347300D02*
Y584700D01*
X3468000Y347300D02*
Y584700D01*
X3469200Y347300D02*
Y584700D01*
X3470400Y347300D02*
Y584700D01*
X3471600Y347300D02*
Y584700D01*
X3472200Y347300D02*
Y584700D01*
X3430705Y434400D02*
X3431777D01*
X3430252Y435600D02*
X3432134D01*
X3429257Y436800D02*
X3432853D01*
X3425285Y441600D02*
X3431715D01*
X3425277Y450000D02*
X3431724D01*
X3425053Y440400D02*
X3431947D01*
X3425239Y442800D02*
X3431761D01*
X3433200Y437195D02*
Y438305D01*
X3432000Y435258D02*
Y440242D01*
X3441600Y436132D02*
Y439367D01*
X3433200Y445695D02*
Y446805D01*
X3432000Y443758D02*
Y448742D01*
X3440400Y437566D02*
Y437934D01*
Y446066D02*
Y446434D01*
X3427200Y437743D02*
Y473243D01*
X3426000Y437771D02*
Y493606D01*
X3425254Y451200D02*
X3431746D01*
X3424948Y452400D02*
X3432052D01*
X3424800Y452747D02*
Y456753D01*
X3425266Y458400D02*
X3431734D01*
X3424985Y457200D02*
X3432015D01*
X3425266Y459600D02*
X3431734D01*
X3429600Y436480D02*
Y471795D01*
X3428400Y437358D02*
Y472248D01*
X3433200Y454195D02*
Y455305D01*
X3432000Y452258D02*
Y457242D01*
X3440400Y454566D02*
Y454934D01*
X3441147Y436800D02*
X3472200D01*
X3440477Y438000D02*
X3472200D01*
X3441500Y439200D02*
X3472200D01*
X3440359Y446400D02*
X3472200D01*
X3442223Y434400D02*
X3472200D01*
X3441866Y435600D02*
X3472200D01*
X3442053Y440400D02*
X3472200D01*
X3442285Y441600D02*
X3472200D01*
X3442239Y442800D02*
X3472200D01*
X3441600Y444632D02*
Y447867D01*
X3441908Y444000D02*
X3472200D01*
X3441225Y445200D02*
X3472200D01*
X3441436Y447600D02*
X3472200D01*
X3441299Y453600D02*
X3472200D01*
X3440233Y454800D02*
X3472200D01*
X3442020Y448800D02*
X3472200D01*
X3442276Y450000D02*
X3472200D01*
X3442253Y451200D02*
X3472200D01*
X3441948Y452400D02*
X3472200D01*
X3441369Y456000D02*
X3472200D01*
X3441600Y453132D02*
Y456367D01*
X3441985Y457200D02*
X3472200D01*
X3442266Y458400D02*
X3472200D01*
X3442266Y459600D02*
X3472200D01*
X3352400Y468000D02*
X3359092D01*
X3352400Y469200D02*
X3358761D01*
X3352400Y465600D02*
X3361045D01*
X3352400Y466800D02*
X3359775D01*
X3352400Y470400D02*
X3358715D01*
X3352400Y471600D02*
X3358947D01*
X3352400Y472800D02*
X3359500D01*
X3352400Y474000D02*
X3360523D01*
X3360000Y473477D02*
Y476523D01*
X3358800Y471025D02*
Y478975D01*
X3352400Y475200D02*
X3361753D01*
X3361200Y474500D02*
Y475500D01*
X3352400Y478800D02*
X3358838D01*
X3352400Y480000D02*
X3358700D01*
X3352400Y476400D02*
X3360110D01*
X3352400Y477600D02*
X3359275D01*
X3352400Y481200D02*
X3358838D01*
X3352400Y482400D02*
X3359275D01*
X3352400Y483600D02*
X3360110D01*
X3352400Y484800D02*
X3361753D01*
X3352400Y488400D02*
X3358947D01*
X3352400Y489600D02*
X3358715D01*
X3352400Y486000D02*
X3360523D01*
X3352400Y487200D02*
X3359500D01*
X3360000Y483477D02*
Y486523D01*
X3358800Y481025D02*
Y488975D01*
X3361200Y484500D02*
Y485500D01*
X3352400Y490800D02*
X3358761D01*
X3358800Y491025D02*
Y498975D01*
X3352400Y492000D02*
X3359092D01*
X3352400Y493200D02*
X3359775D01*
X3360000Y493477D02*
Y496523D01*
X3352400Y462000D02*
X3367474D01*
X3352400Y463200D02*
X3366275D01*
X3352400Y460800D02*
X3368674D01*
X3369250Y469275D02*
X3374760Y463765D01*
X3352400Y464400D02*
X3365075D01*
X3369162Y481200D02*
X3370300D01*
X3368726Y482400D02*
X3370300D01*
X3369600Y468926D02*
Y471074D01*
X3370525Y468000D02*
X3388606D01*
X3369326Y469200D02*
X3388700D01*
X3369297Y479822D02*
X3370300Y480826D01*
X3369285Y470400D02*
X3388700D01*
X3369250Y470725D02*
X3375760Y477235D01*
X3370126Y471600D02*
X3388700D01*
X3367200Y484225D02*
Y485775D01*
X3366247Y484800D02*
X3370300D01*
X3367200Y494225D02*
Y495775D01*
X3367477Y486000D02*
X3370300D01*
X3367890Y483600D02*
X3370300D01*
X3368400Y482955D02*
Y487045D01*
X3368500Y487200D02*
X3370300D01*
X3369053Y488400D02*
X3370300D01*
X3369285Y489600D02*
X3370300D01*
X3368400Y492955D02*
Y497045D01*
X3369239Y490800D02*
X3370300D01*
X3368225Y493200D02*
X3370300D01*
X3368908Y492000D02*
X3370300D01*
X3352400Y496800D02*
X3359775D01*
X3352400Y498000D02*
X3359092D01*
X3352400Y494400D02*
X3361045D01*
X3352400Y495600D02*
X3361045D01*
X3352400Y499200D02*
X3358761D01*
X3352400Y500400D02*
X3358715D01*
X3352400Y501600D02*
X3358947D01*
X3352400Y502800D02*
X3359500D01*
X3360000Y503477D02*
Y506523D01*
X3358800Y501025D02*
Y508975D01*
X3361200Y494500D02*
Y495500D01*
X3352400Y506400D02*
X3360110D01*
X3352400Y507600D02*
X3359275D01*
X3352400Y504000D02*
X3360523D01*
X3352400Y505200D02*
X3361753D01*
X3361200Y504500D02*
Y505500D01*
X3352400Y508800D02*
X3358838D01*
X3352400Y510000D02*
X3358700D01*
X3352400Y511200D02*
X3358838D01*
X3352400Y512400D02*
X3359275D01*
X3352400Y513600D02*
X3360110D01*
X3352400Y517200D02*
X3359500D01*
X3352400Y514800D02*
X3361753D01*
X3352400Y516000D02*
X3360523D01*
X3360000Y513477D02*
Y516523D01*
X3358800Y511025D02*
Y518975D01*
X3361200Y514500D02*
Y515500D01*
X3352400Y519600D02*
X3358715D01*
X3352400Y520800D02*
X3358761D01*
X3352400Y518400D02*
X3358947D01*
X3352400Y522000D02*
X3359092D01*
X3352400Y523200D02*
X3359775D01*
X3366955Y494400D02*
X3370300D01*
X3366955Y495600D02*
X3370300D01*
X3367477Y504000D02*
X3370300D01*
X3367200Y504225D02*
Y505775D01*
X3366247Y505200D02*
X3370300D01*
X3367890Y506400D02*
X3370300D01*
X3368225Y496800D02*
X3370300D01*
X3368908Y498000D02*
X3370300D01*
X3369239Y499200D02*
X3370300D01*
X3369285Y500400D02*
X3370300D01*
X3369053Y501600D02*
X3370300D01*
X3368400Y502955D02*
Y507045D01*
X3368500Y502800D02*
X3370300D01*
X3368726Y507600D02*
X3370300D01*
X3369162Y508800D02*
X3370300D01*
X3367200Y514225D02*
Y515775D01*
X3367890Y513600D02*
X3370300D01*
X3366247Y514800D02*
X3370300D01*
X3367477Y516000D02*
X3370300D01*
X3368225Y523200D02*
X3370300D01*
X3369300Y510000D02*
X3370300D01*
X3368400Y512955D02*
Y517045D01*
X3369162Y511200D02*
X3370300D01*
X3368726Y512400D02*
X3370300D01*
X3368500Y517200D02*
X3370300D01*
X3369053Y518400D02*
X3370300D01*
X3369285Y519600D02*
X3370300D01*
X3368908Y522000D02*
X3370300D01*
X3369239Y520800D02*
X3370300D01*
X3372000Y466526D02*
Y473475D01*
X3373200Y465325D02*
Y474675D01*
X3374126Y464400D02*
X3385006D01*
X3372926Y465600D02*
X3386206D01*
X3371725Y466800D02*
X3387406D01*
X3370800Y467726D02*
Y472274D01*
X3371326Y472800D02*
X3388700D01*
X3372525Y474000D02*
X3388700D01*
X3375700Y460800D02*
X3384100D01*
X3375661Y462000D02*
X3384100D01*
X3375211Y463200D02*
X3384204D01*
X3384803Y464197D02*
X3388700Y468094D01*
Y474800D01*
X3374400Y464125D02*
Y475875D01*
X3375600Y462294D02*
Y477074D01*
X3376622Y478800D02*
X3388852D01*
X3376700Y480000D02*
X3388700D01*
X3376075Y477600D02*
X3389343D01*
X3376700Y481200D02*
X3388852D01*
X3386400Y465794D02*
Y494206D01*
X3385200Y464594D02*
Y495413D01*
X3388800Y474800D02*
Y479025D01*
X3387600Y466994D02*
Y493006D01*
X3388800Y480975D02*
Y488975D01*
X3376700Y489600D02*
X3388715D01*
X3376700Y482400D02*
X3389343D01*
X3376700Y488400D02*
X3388947D01*
X3376700Y490800D02*
X3388761D01*
X3388900Y461506D02*
X3392594Y465200D01*
X3388700Y474800D02*
X3399300D01*
X3388900Y460800D02*
X3401406D01*
X3389394Y462000D02*
X3402606D01*
X3374926Y476400D02*
X3390325D01*
X3390000Y474800D02*
Y476715D01*
X3373726Y475200D02*
X3393500D01*
X3391200Y474800D02*
Y475787D01*
X3392400Y474800D02*
Y475328D01*
X3393600Y474800D02*
Y475200D01*
X3392594Y465200D02*
X3399300D01*
Y474800D01*
X3393500Y475200D02*
X3394500D01*
X3393500D02*
X3394500D01*
X3394800Y474800D02*
Y475209D01*
X3396000Y474800D02*
Y475440D01*
X3397200Y474800D02*
Y476031D01*
X3376700Y483600D02*
X3390325D01*
X3390000Y483285D02*
Y486523D01*
X3391200Y484213D02*
Y485500D01*
X3376700Y486000D02*
X3390523D01*
X3376700Y487200D02*
X3389500D01*
X3376700Y484800D02*
X3392975D01*
X3398400Y474800D02*
Y477202D01*
X3402000Y461394D02*
Y514606D01*
X3396000Y484560D02*
Y485092D01*
X3397200Y483969D02*
Y485775D01*
X3398400Y482798D02*
Y487045D01*
X3376700Y494400D02*
X3386206D01*
X3376700Y495600D02*
X3385051D01*
X3376700Y492000D02*
X3388606D01*
X3376700Y493200D02*
X3387406D01*
X3376700Y496800D02*
X3384608D01*
X3376700Y498000D02*
X3384600D01*
X3376700Y499200D02*
X3384600D01*
X3376700Y500400D02*
X3384600D01*
X3388800Y491025D02*
Y491806D01*
X3385303Y495303D02*
X3388961Y491644D01*
X3376700Y501600D02*
X3384600D01*
X3376700Y502800D02*
X3384600D01*
X3376700Y504000D02*
X3384600D01*
X3376700Y505200D02*
X3384600D01*
X3376700Y506400D02*
X3384600D01*
X3376700Y507600D02*
X3384600D01*
X3376700Y508800D02*
X3384600D01*
X3376700Y510000D02*
X3384600D01*
X3376700Y511200D02*
X3384600D01*
X3376700Y512400D02*
X3384600D01*
X3376700Y513600D02*
X3384600D01*
X3376700Y514800D02*
X3384600D01*
X3376700Y516000D02*
X3384600D01*
X3376700Y517200D02*
X3384600D01*
X3376700Y518400D02*
X3384600D01*
X3389400Y502633D02*
Y507368D01*
Y512633D02*
Y517504D01*
X3376700Y519600D02*
X3384600D01*
X3376700Y520800D02*
X3384600D01*
X3376700Y522000D02*
X3384600D01*
X3376700Y523200D02*
X3384600D01*
X3389400D02*
X3389922D01*
X3389400Y504000D02*
X3390523D01*
X3390000Y503477D02*
Y506523D01*
X3389400Y506400D02*
X3390110D01*
X3389400Y513600D02*
X3390110D01*
X3389400Y505200D02*
X3391753D01*
X3389400Y514800D02*
X3391753D01*
X3397200Y494225D02*
Y495775D01*
X3398400Y492955D02*
Y497045D01*
X3391200Y504500D02*
Y505500D01*
X3397200Y504225D02*
Y505775D01*
X3398400Y502955D02*
Y507045D01*
X3397890Y513600D02*
X3403006D01*
X3391200Y514500D02*
Y515787D01*
X3390000Y513477D02*
Y516715D01*
X3389400Y516000D02*
X3390847D01*
X3396000Y514908D02*
Y515440D01*
X3397200Y514225D02*
Y516031D01*
X3398400Y512955D02*
Y517202D01*
X3396247Y514800D02*
X3401806D01*
X3397153Y516000D02*
X3400606D01*
X3398399Y517200D02*
X3399406D01*
X3398657Y517600D02*
X3399006D01*
X3398657Y522400D02*
X3400000D01*
X3352400Y526800D02*
X3359775D01*
X3352400Y528000D02*
X3359092D01*
X3352400Y524400D02*
X3361045D01*
X3352400Y525600D02*
X3361045D01*
X3352400Y529200D02*
X3358761D01*
X3352400Y530400D02*
X3358715D01*
X3352400Y531600D02*
X3358947D01*
X3352400Y532800D02*
X3359500D01*
X3360000Y523477D02*
Y526523D01*
X3358800Y521025D02*
Y528975D01*
X3367200Y524225D02*
Y525775D01*
X3361200Y524500D02*
Y525500D01*
X3352400Y534000D02*
X3360523D01*
X3352400Y535200D02*
X3361753D01*
X3352400Y538800D02*
X3358838D01*
X3352400Y540000D02*
X3358700D01*
X3352400Y536400D02*
X3360110D01*
X3352400Y537600D02*
X3359275D01*
X3352400Y541200D02*
X3358838D01*
X3352400Y542400D02*
X3359275D01*
X3352400Y543600D02*
X3360110D01*
X3352400Y544800D02*
X3361753D01*
X3360000Y533477D02*
Y536523D01*
X3358800Y531025D02*
Y538975D01*
X3361200Y534500D02*
Y535500D01*
X3358800Y541025D02*
Y548975D01*
X3352400Y545006D02*
X3358926Y551532D01*
X3361200Y544500D02*
Y545500D01*
X3360000Y543477D02*
Y546523D01*
X3368400Y522955D02*
Y527045D01*
X3366955Y524400D02*
X3370300D01*
X3366955Y525600D02*
X3370300D01*
X3368225Y526800D02*
X3370300D01*
X3367477Y534000D02*
X3370300D01*
X3376700Y524400D02*
X3384600D01*
X3368908Y528000D02*
X3370300D01*
X3376700Y525600D02*
X3384600D01*
X3376700Y526800D02*
X3384600D01*
X3369239Y529200D02*
X3370300D01*
X3369285Y530400D02*
X3370300D01*
X3376700Y528000D02*
X3384600D01*
X3368500Y532800D02*
X3370300D01*
X3369053Y531600D02*
X3370300D01*
X3367200Y534225D02*
Y535775D01*
X3366247Y535200D02*
X3370300D01*
X3367890Y536400D02*
X3370300D01*
X3367200Y544225D02*
Y545775D01*
X3367890Y543600D02*
X3370300D01*
X3368400Y532955D02*
Y537045D01*
X3369600Y480126D02*
Y569375D01*
X3368726Y537600D02*
X3370300D01*
Y480826D02*
Y568675D01*
X3369162Y538800D02*
X3370300D01*
X3368400Y542955D02*
Y547045D01*
X3369300Y540000D02*
X3370300D01*
X3368726Y542400D02*
X3370300D01*
X3369162Y541200D02*
X3370300D01*
X3353394Y546000D02*
X3360523D01*
X3354594Y547200D02*
X3359500D01*
X3356994Y549600D02*
X3358715D01*
X3358194Y550800D02*
X3358761D01*
X3355794Y548400D02*
X3358947D01*
X3348303Y547697D02*
X3358961Y558356D01*
X3358800Y551025D02*
Y551406D01*
Y558194D02*
Y558975D01*
X3367200Y554225D02*
Y555775D01*
Y564225D02*
Y571774D01*
X3362400Y565053D02*
Y576575D01*
X3361200Y564500D02*
Y577774D01*
X3366000Y564908D02*
Y572974D01*
X3363600Y565285D02*
Y575375D01*
X3364800Y565239D02*
Y574174D01*
X3348000Y547327D02*
Y578300D01*
X3349200Y548594D02*
Y578300D01*
X3350400Y549794D02*
Y578300D01*
X3351600Y550994D02*
Y578300D01*
X3352800Y552194D02*
Y578300D01*
X3354000Y553394D02*
Y578300D01*
X3355200Y554594D02*
Y578300D01*
X3356400Y555794D02*
Y578300D01*
X3357600Y556994D02*
Y578300D01*
X3358800Y561025D02*
Y578300D01*
X3360000Y563477D02*
Y578300D01*
X3367200Y580826D02*
Y584700D01*
X3363600Y584271D02*
Y584700D01*
X3364800Y583225D02*
Y584700D01*
X3366000Y582025D02*
Y584700D01*
X3366247Y544800D02*
X3370300D01*
X3367477Y546000D02*
X3370300D01*
X3368225Y553200D02*
X3370300D01*
X3366955Y554400D02*
X3370300D01*
X3366955Y555600D02*
X3370300D01*
X3368225Y556800D02*
X3370300D01*
X3368500Y547200D02*
X3370300D01*
X3369053Y548400D02*
X3370300D01*
X3369285Y549600D02*
X3370300D01*
X3369239Y550800D02*
X3370300D01*
X3368908Y552000D02*
X3370300D01*
X3368400Y552955D02*
Y557045D01*
X3368908Y558000D02*
X3370300D01*
X3369239Y559200D02*
X3370300D01*
X3369285Y560400D02*
X3370300D01*
X3368400Y562955D02*
Y570575D01*
X3368500Y562800D02*
X3370300D01*
X3367477Y564000D02*
X3370300D01*
X3365025Y565200D02*
X3370300D01*
X3368400Y579626D02*
Y584700D01*
X3360675Y578300D02*
X3370300Y568675D01*
X3364265Y583760D02*
X3375760Y572265D01*
X3369053Y561600D02*
X3370300D01*
X3375600Y572426D02*
Y584700D01*
X3369600Y578426D02*
Y584700D01*
X3370800Y577225D02*
Y584700D01*
X3372000Y576025D02*
Y584700D01*
X3373200Y574825D02*
Y584700D01*
X3374400Y573626D02*
Y584700D01*
X3389400Y524400D02*
X3391582D01*
X3376700Y529200D02*
X3384600D01*
X3389400Y525600D02*
X3391582D01*
X3376700Y530400D02*
X3384600D01*
X3376700Y531600D02*
X3384600D01*
X3376700Y532800D02*
X3384600D01*
X3376700Y534000D02*
X3384600D01*
X3390000Y523285D02*
Y526715D01*
X3389400Y522496D02*
Y527504D01*
X3392400Y524672D02*
Y525328D01*
X3391200Y524213D02*
Y525787D01*
X3393600Y524800D02*
Y525200D01*
X3389400Y526800D02*
X3389922D01*
X3393500Y524800D02*
X3394500D01*
X3393500Y525200D02*
X3394500D01*
X3376700Y535200D02*
X3384600D01*
X3376700Y479500D02*
Y570000D01*
Y536400D02*
X3384600D01*
X3376700Y537600D02*
X3384600D01*
X3376700Y538800D02*
X3384600D01*
X3376700Y540000D02*
X3384600D01*
X3376700Y541200D02*
X3384600D01*
X3376700Y542400D02*
X3384600D01*
X3389400Y532496D02*
Y537367D01*
X3384600Y497000D02*
Y551500D01*
X3390000Y533285D02*
Y536523D01*
X3389400Y534000D02*
X3390847D01*
X3389400Y536400D02*
X3390110D01*
X3389400Y535200D02*
X3391753D01*
X3391200Y534213D02*
Y535500D01*
X3396000Y524560D02*
Y525440D01*
X3397200Y523969D02*
Y526031D01*
X3396418Y524400D02*
X3402206D01*
X3394800Y524791D02*
Y525209D01*
X3396418Y525600D02*
X3401006D01*
X3397153Y534000D02*
X3402606D01*
X3399600Y522400D02*
Y527006D01*
X3398400Y522798D02*
Y527202D01*
X3402000Y521394D02*
Y524606D01*
X3400800Y522263D02*
Y525806D01*
X3398078Y526800D02*
X3399806D01*
X3398657Y527600D02*
X3399006D01*
X3398657Y532400D02*
X3400000D01*
X3396000Y534560D02*
Y535092D01*
X3397200Y533969D02*
Y535775D01*
X3398400Y532798D02*
Y537045D01*
X3396247Y535200D02*
X3401406D01*
X3397890Y536400D02*
X3400206D01*
X3400800Y532263D02*
Y535806D01*
X3399600Y532400D02*
Y537006D01*
X3402000Y531394D02*
Y534606D01*
Y541394D02*
Y544606D01*
X3398726Y542400D02*
X3400000D01*
X3398726D02*
X3400000D01*
X3400800Y542263D02*
Y545806D01*
X3376700Y543600D02*
X3384600D01*
X3376700Y544800D02*
X3384600D01*
X3376700Y546000D02*
X3384600D01*
X3376700Y547200D02*
X3384600D01*
X3376700Y548400D02*
X3384600D01*
X3376700Y549600D02*
X3384600D01*
X3376700Y550800D02*
X3384600D01*
X3376700Y552000D02*
X3384653D01*
X3390000Y543477D02*
Y546715D01*
X3389400Y542632D02*
Y547504D01*
Y543600D02*
X3390110D01*
X3391200Y544500D02*
Y545787D01*
X3389400Y546000D02*
X3390847D01*
X3376700Y553200D02*
X3385306D01*
X3376700Y554400D02*
X3386506D01*
X3376700Y555600D02*
X3387706D01*
X3376700Y556800D02*
X3388913D01*
X3376700Y558000D02*
X3389137D01*
X3376700Y559200D02*
X3388767D01*
X3376700Y560400D02*
X3388717D01*
X3376700Y561600D02*
X3388974D01*
X3376700Y562800D02*
X3389601D01*
X3376700Y564000D02*
X3390847D01*
X3385200Y553087D02*
Y584700D01*
X3386400Y554294D02*
Y584700D01*
X3385303Y553197D02*
X3388803Y556697D01*
X3387600Y555494D02*
Y584700D01*
X3388800Y556694D02*
Y559025D01*
Y560975D02*
Y584700D01*
X3390000Y563285D02*
Y584700D01*
X3389400Y544800D02*
X3391753D01*
X3396000Y544908D02*
Y545440D01*
X3397200Y544225D02*
Y546031D01*
X3396247Y544800D02*
X3401806D01*
X3397153Y546000D02*
X3400606D01*
X3398400Y542955D02*
Y547202D01*
X3398657Y547600D02*
X3399006D01*
X3399600Y542400D02*
Y547006D01*
X3398399Y547200D02*
X3399406D01*
X3398657Y552400D02*
X3400000D01*
X3400800Y552263D02*
Y552600D01*
X3402000Y551394D02*
Y552600D01*
X3391200Y564213D02*
Y584700D01*
X3392400Y564672D02*
Y584700D01*
X3393500Y564800D02*
X3394500D01*
X3393600D02*
Y584700D01*
X3399600Y557400D02*
Y584700D01*
X3400800Y557400D02*
Y584700D01*
X3402000Y557400D02*
Y584700D01*
X3394800Y564791D02*
Y584700D01*
X3396000Y564560D02*
Y584700D01*
X3397200Y563969D02*
Y584700D01*
X3398400Y562798D02*
Y584700D01*
X3408194Y460800D02*
X3409906D01*
X3409200Y460094D02*
Y461806D01*
X3409394Y462000D02*
X3411106D01*
X3410400Y461294D02*
Y463006D01*
X3390594Y463200D02*
X3403806D01*
X3391794Y464400D02*
X3405006D01*
X3399300Y465600D02*
X3406206D01*
X3399300Y466800D02*
X3407406D01*
X3410594Y463200D02*
X3412306D01*
X3411600Y462494D02*
Y464206D01*
X3411794Y464400D02*
X3413506D01*
X3412800Y463694D02*
Y465406D01*
X3412994Y465600D02*
X3414706D01*
X3414000Y464894D02*
Y466606D01*
X3414194Y466800D02*
X3414746D01*
X3399300Y468000D02*
X3408606D01*
X3403200Y462594D02*
Y513406D01*
X3399300Y469200D02*
X3409806D01*
X3399300Y470400D02*
X3411006D01*
X3399300Y471600D02*
X3412206D01*
X3399300Y472800D02*
X3413406D01*
X3399300Y474000D02*
X3414606D01*
X3394500Y475200D02*
X3414761D01*
X3405600Y464994D02*
Y496500D01*
X3404400Y463794D02*
Y512206D01*
X3408000Y467394D02*
Y493106D01*
X3406800Y466194D02*
Y494306D01*
X3410400Y469794D02*
Y490706D01*
X3409200Y468594D02*
Y491906D01*
X3414000Y473394D02*
Y487106D01*
X3411600Y470994D02*
Y489506D01*
X3412800Y472194D02*
Y488306D01*
X3423600Y462890D02*
Y463610D01*
X3424369Y462000D02*
X3432631D01*
X3423233Y463200D02*
X3433767D01*
X3423600Y471390D02*
Y472110D01*
X3424299Y464400D02*
X3432701D01*
X3423359Y471600D02*
X3433641D01*
X3424800Y461247D02*
Y465253D01*
X3425254Y466800D02*
X3431746D01*
X3424985Y460800D02*
X3432015D01*
X3424948Y465600D02*
X3432052D01*
X3424225Y472800D02*
X3427628D01*
X3424800Y469747D02*
Y473753D01*
X3425277Y468000D02*
X3431724D01*
X3424436Y470400D02*
X3432564D01*
X3425020Y469200D02*
X3431980D01*
X3397675Y476400D02*
X3414715D01*
X3398657Y477600D02*
X3414947D01*
X3415200Y478247D02*
Y482253D01*
X3399147Y478800D02*
X3415500D01*
X3416400Y479890D02*
Y480610D01*
X3399300Y480000D02*
X3416523D01*
X3424908Y474000D02*
X3426693D01*
X3425239Y475200D02*
X3426275D01*
X3423600Y479890D02*
Y480610D01*
X3424800Y478247D02*
Y482253D01*
X3424500Y478800D02*
X3427237D01*
X3423477Y480000D02*
X3428922D01*
X3398908Y492000D02*
X3409106D01*
X3398225Y493200D02*
X3407906D01*
X3399053Y488400D02*
X3412706D01*
X3399285Y489600D02*
X3411506D01*
X3396955Y495600D02*
X3405775D01*
X3398225Y496800D02*
X3405600D01*
X3396955Y494400D02*
X3406706D01*
X3398908Y498000D02*
X3405600D01*
X3399239Y490800D02*
X3410306D01*
X3412800Y495094D02*
Y496806D01*
X3399239Y499200D02*
X3405600D01*
X3410400Y497494D02*
Y499206D01*
X3411600Y496294D02*
Y498006D01*
X3410400Y498000D02*
X3411606D01*
X3410400Y497494D02*
Y499206D01*
X3399285Y500400D02*
X3405600D01*
X3399053Y501600D02*
X3405600D01*
X3398500Y502800D02*
X3405600D01*
X3397477Y504000D02*
X3405600D01*
X3396247Y505200D02*
X3405600D01*
X3398726Y512400D02*
X3404206D01*
X3397890Y506400D02*
X3405600D01*
X3398726Y507600D02*
X3405600D01*
Y496500D02*
Y511006D01*
Y496500D02*
Y511006D01*
X3399162Y508800D02*
X3405600D01*
X3399300Y510000D02*
X3405600D01*
X3399162Y511200D02*
X3405406D01*
X3406194Y517200D02*
X3409406D01*
X3408594Y514800D02*
X3409600D01*
X3407394Y516000D02*
X3409600D01*
Y513794D02*
Y517006D01*
X3398657Y482400D02*
X3415134D01*
X3397675Y483600D02*
X3414777D01*
X3399147Y481200D02*
X3415853D01*
X3395025Y484800D02*
X3414708D01*
X3398500Y487200D02*
X3413906D01*
X3397477Y486000D02*
X3414917D01*
X3413494Y494400D02*
X3414888D01*
X3424866Y482400D02*
X3426748D01*
X3424800Y486747D02*
Y490753D01*
X3424147Y481200D02*
X3427743D01*
X3424561Y487200D02*
X3427153D01*
X3423600Y488390D02*
Y489110D01*
X3423589Y488400D02*
X3428689D01*
X3424066Y489600D02*
X3432934D01*
X3424822Y490800D02*
X3429041D01*
X3406303Y494803D02*
X3414962Y486144D01*
X3414000Y493894D02*
Y495606D01*
X3410400Y497494D02*
X3414703Y493191D01*
X3412294Y495600D02*
X3414006D01*
X3411094Y496800D02*
X3412806D01*
X3410400Y499206D02*
X3414962Y494644D01*
X3416900Y515300D02*
X3417600D01*
X3423600Y496890D02*
Y497610D01*
Y497000D02*
Y497610D01*
X3416900Y516000D02*
X3417600D01*
X3416900Y517200D02*
X3417600D01*
X3422400Y515300D02*
X3423600D01*
X3422400Y516000D02*
X3423600D01*
X3422400Y517200D02*
X3423600D01*
X3432000Y460758D02*
Y465742D01*
Y469258D02*
Y471970D01*
X3425285Y476400D02*
X3426219D01*
X3425053Y477600D02*
X3426509D01*
X3432000Y480030D02*
Y480470D01*
X3433200Y462695D02*
Y463805D01*
X3440400Y463066D02*
Y463434D01*
X3441600Y461632D02*
Y464867D01*
X3433200Y471195D02*
Y472305D01*
X3432078Y480000D02*
X3433523D01*
X3440400Y471566D02*
Y471934D01*
X3427200Y478757D02*
Y481743D01*
X3425223Y483600D02*
X3426295D01*
X3428400Y479752D02*
Y480748D01*
X3425291Y484800D02*
X3426210D01*
X3425083Y486000D02*
X3426470D01*
X3428400Y488252D02*
Y491211D01*
X3427200Y487257D02*
Y492406D01*
X3433200Y479695D02*
Y480805D01*
X3440400Y480066D02*
Y480434D01*
X3433200Y488195D02*
Y489305D01*
X3432000Y488530D02*
Y490600D01*
X3432311Y488400D02*
X3433411D01*
X3440400Y488566D02*
Y488934D01*
X3441369Y462000D02*
X3472200D01*
X3440233Y463200D02*
X3472200D01*
X3441299Y464400D02*
X3472200D01*
X3441436Y470400D02*
X3472200D01*
X3440359Y471600D02*
X3472200D01*
X3441985Y460800D02*
X3472200D01*
X3441948Y465600D02*
X3472200D01*
X3442253Y466800D02*
X3472200D01*
X3442276Y468000D02*
X3472200D01*
X3442020Y469200D02*
X3472200D01*
X3441600Y470132D02*
Y473368D01*
X3441225Y472800D02*
X3472200D01*
X3441908Y474000D02*
X3472200D01*
X3442239Y475200D02*
X3472200D01*
X3441500Y478800D02*
X3472200D01*
X3440477Y480000D02*
X3472200D01*
X3441147Y481200D02*
X3472200D01*
X3440589Y488400D02*
X3472200D01*
X3442285Y476400D02*
X3472200D01*
X3441600Y478632D02*
Y481868D01*
X3442053Y477600D02*
X3472200D01*
X3441866Y482400D02*
X3472200D01*
X3442223Y483600D02*
X3472200D01*
X3441600Y487133D02*
Y490368D01*
X3442292Y484800D02*
X3472200D01*
X3441561Y487200D02*
X3472200D01*
X3442083Y486000D02*
X3472200D01*
X3429600Y488705D02*
Y490634D01*
X3425074Y494532D02*
X3428303Y491303D01*
X3425296Y493200D02*
X3426406D01*
X3425205Y492000D02*
X3427606D01*
X3428875Y497519D02*
X3430994Y495400D01*
X3430800Y488790D02*
Y490600D01*
X3430000D02*
X3432275D01*
X3430794Y495600D02*
X3432381D01*
X3429600Y496794D02*
Y497295D01*
X3430800Y495594D02*
Y497211D01*
X3430994Y495400D02*
X3432275D01*
X3429594Y496800D02*
X3433305D01*
X3428400Y505252D02*
Y506248D01*
Y505252D02*
Y506248D01*
Y514800D02*
X3434753D01*
X3432000Y495400D02*
Y497470D01*
X3433200Y496695D02*
Y497805D01*
X3432691Y505200D02*
X3433205D01*
X3432000Y505530D02*
Y505970D01*
X3433200Y505195D02*
Y506305D01*
X3441066Y489600D02*
X3472200D01*
X3441618Y495600D02*
X3472200D01*
X3440400Y497066D02*
Y497434D01*
X3440694Y496800D02*
X3472200D01*
X3440980Y498000D02*
X3472200D01*
X3441822Y490800D02*
X3472200D01*
X3442205Y492000D02*
X3472200D01*
X3442296Y493200D02*
X3472200D01*
X3442112Y494400D02*
X3472200D01*
X3441600Y495633D02*
Y498868D01*
X3441775Y499200D02*
X3472200D01*
X3442184Y500400D02*
X3472200D01*
X3442299Y501600D02*
X3472200D01*
X3442138Y502800D02*
X3472200D01*
X3440400Y505566D02*
Y505934D01*
X3440795Y505200D02*
X3472200D01*
X3439247Y514800D02*
X3472200D01*
X3428400Y516000D02*
X3472200D01*
X3428400Y517200D02*
X3472200D01*
X3441673Y504000D02*
X3472200D01*
X3441600Y504133D02*
Y507368D01*
X3440890Y506400D02*
X3472200D01*
X3441726Y507600D02*
X3472200D01*
X3442162Y508800D02*
X3472200D01*
X3442300Y510000D02*
X3472200D01*
X3442162Y511200D02*
X3472200D01*
X3440890Y513600D02*
X3472200D01*
X3441726Y512400D02*
X3472200D01*
X3399006Y517600D02*
X3405600Y511006D01*
X3403794Y519600D02*
X3407006D01*
X3401697Y521697D02*
X3409600Y513794D01*
X3399006Y527600D02*
X3409600Y517006D01*
X3398078Y523200D02*
X3403406D01*
X3403200Y520194D02*
Y523406D01*
X3402594Y520800D02*
X3405806D01*
X3401327Y522000D02*
X3404606D01*
X3406800Y516594D02*
Y519806D01*
X3405600Y517794D02*
Y521006D01*
X3409200Y514194D02*
Y517406D01*
X3408000Y515394D02*
Y518606D01*
X3404994Y518400D02*
X3408206D01*
X3404400Y518994D02*
Y522206D01*
X3409200Y524194D02*
Y527406D01*
X3405394Y528000D02*
X3408606D01*
X3408000Y525394D02*
Y528606D01*
X3404400Y528994D02*
Y532206D01*
X3403200Y530194D02*
Y533406D01*
X3404194Y529200D02*
X3407406D01*
X3402994Y530400D02*
X3406206D01*
X3398399Y532800D02*
X3403806D01*
X3403200Y540194D02*
Y543406D01*
X3401794Y531600D02*
X3405006D01*
X3403394Y540000D02*
X3406606D01*
X3406800Y526594D02*
Y529806D01*
X3405600Y527794D02*
Y531006D01*
X3409200Y534194D02*
Y537406D01*
X3408000Y535394D02*
Y538606D01*
X3405600Y537794D02*
Y541006D01*
X3404400Y538994D02*
Y542206D01*
X3405794Y537600D02*
X3409006D01*
X3404594Y538800D02*
X3407806D01*
X3406800Y536594D02*
Y539806D01*
X3410400Y522994D02*
Y526206D01*
X3401697Y531697D02*
X3412100Y521294D01*
X3411394Y522000D02*
X3412100D01*
X3410194Y523200D02*
X3412100D01*
X3407794Y525600D02*
X3411006D01*
X3406594Y526800D02*
X3409806D01*
X3408994Y524400D02*
X3412100D01*
X3410594Y532800D02*
X3413806D01*
X3412100Y521294D02*
Y524506D01*
X3411600Y521794D02*
Y525006D01*
X3415200Y528194D02*
Y531406D01*
X3411794Y531600D02*
X3415006D01*
X3414000Y529394D02*
Y532606D01*
X3415394Y528000D02*
X3417600D01*
X3412994Y530400D02*
X3416206D01*
X3414194Y529200D02*
X3417406D01*
X3399006Y537600D02*
X3412100Y524506D01*
X3401697Y541697D02*
X3416197Y527197D01*
X3399006Y547600D02*
X3417600Y529006D01*
X3401697Y551697D02*
X3421697Y531697D01*
X3408194Y535200D02*
X3411406D01*
X3406994Y536400D02*
X3410206D01*
X3405506Y552600D02*
X3423600Y534506D01*
X3408197Y556697D02*
X3427697Y537197D01*
X3411600Y531794D02*
Y535006D01*
X3410400Y532994D02*
Y536206D01*
X3412800Y530594D02*
Y533806D01*
X3409394Y534000D02*
X3412606D01*
X3415200Y538194D02*
Y542906D01*
X3414000Y539394D02*
Y544106D01*
X3415794Y537600D02*
X3420506D01*
X3413394Y540000D02*
X3418106D01*
X3414594Y538800D02*
X3419306D01*
X3400000Y542400D02*
X3404206D01*
X3397890Y543600D02*
X3403006D01*
X3402194Y541200D02*
X3405406D01*
X3406194Y547200D02*
X3410906D01*
X3402594Y550800D02*
X3407306D01*
X3401327Y552000D02*
X3406106D01*
X3404994Y548400D02*
X3409706D01*
X3403794Y549600D02*
X3408506D01*
X3411600Y541794D02*
Y546506D01*
X3410400Y542994D02*
Y547706D01*
X3409794Y543600D02*
X3414506D01*
X3412800Y540594D02*
Y545306D01*
X3408000Y545394D02*
Y550106D01*
X3406800Y546594D02*
Y551306D01*
X3408594Y544800D02*
X3413306D01*
X3407394Y546000D02*
X3412106D01*
X3409200Y544194D02*
Y548906D01*
X3403200Y550194D02*
Y552600D01*
X3404400Y548994D02*
Y552600D01*
X3398535D02*
X3405506D01*
X3405600Y547794D02*
Y552506D01*
X3403200Y557400D02*
Y584700D01*
X3404400Y557400D02*
Y584700D01*
X3398535Y557400D02*
X3406500D01*
X3405600D02*
Y584700D01*
X3410400Y554494D02*
Y584700D01*
X3411600Y553294D02*
Y584700D01*
X3412800Y552094D02*
Y584700D01*
X3414000Y550894D02*
Y584700D01*
X3406800Y557381D02*
Y584700D01*
X3408000Y556874D02*
Y584700D01*
X3409200Y555694D02*
Y584700D01*
X3398864Y558000D02*
X3416986D01*
X3399233Y559200D02*
X3417323D01*
X3399283Y560400D02*
X3417804D01*
X3399025Y561600D02*
X3418450D01*
X3398399Y562800D02*
X3419296D01*
X3397153Y564000D02*
X3420403D01*
X3376700Y565200D02*
X3421902D01*
X3376700Y566400D02*
X3424187D01*
X3412194Y541200D02*
X3416906D01*
X3410994Y542400D02*
X3415706D01*
X3415294Y549600D02*
X3418233D01*
X3414094Y550800D02*
X3417641D01*
X3410494Y554400D02*
X3416744D01*
X3409294Y555600D02*
X3416702D01*
X3412894Y552000D02*
X3417205D01*
X3408088Y556800D02*
X3416781D01*
X3411694Y553200D02*
X3416910D01*
X3370826Y577200D02*
X3472200D01*
X3369625Y578400D02*
X3472200D01*
X3368425Y579600D02*
X3472200D01*
X3367226Y580800D02*
X3472200D01*
X3366026Y582000D02*
X3472200D01*
X3364825Y583200D02*
X3472200D01*
X3363353Y584400D02*
X3472200D01*
X3362000Y584700D02*
X3472200D01*
X3376700Y567600D02*
X3472200D01*
X3415200Y549694D02*
Y584700D01*
X3376700Y568800D02*
X3472200D01*
X3376700Y570000D02*
X3472200D01*
X3376466Y571200D02*
X3472200D01*
X3375626Y572400D02*
X3472200D01*
X3374426Y573600D02*
X3472200D01*
X3372026Y576000D02*
X3472200D01*
X3373225Y574800D02*
X3472200D01*
X3416900Y518400D02*
X3417600D01*
X3416900Y515300D02*
Y525500D01*
Y519600D02*
X3417600D01*
X3416900Y520800D02*
X3417600D01*
X3416900Y522000D02*
X3417600D01*
X3416900Y523200D02*
X3417600D01*
X3416900Y524400D02*
X3417600D01*
X3416517Y526800D02*
X3417600D01*
X3422400Y518400D02*
X3423600D01*
X3422400Y519600D02*
X3423600D01*
X3422400Y520800D02*
X3423600D01*
X3422400Y522000D02*
X3423600D01*
X3422400Y523200D02*
X3423600D01*
X3416898Y525600D02*
X3417600D01*
X3422400Y524400D02*
X3423600D01*
X3422400Y525600D02*
X3423600D01*
X3422400Y526800D02*
X3423600D01*
X3416400Y526966D02*
Y530206D01*
X3417600Y515300D02*
Y529006D01*
Y515300D02*
Y529006D01*
X3420000Y533394D02*
Y538106D01*
X3418800Y534594D02*
Y539306D01*
X3418194Y535200D02*
X3422906D01*
X3421200Y532194D02*
Y536906D01*
X3422400Y515300D02*
Y530000D01*
Y515300D02*
Y530000D01*
X3423600Y515300D02*
Y534506D01*
Y515300D02*
Y534506D01*
X3422400Y528000D02*
X3423600D01*
X3422400Y529200D02*
X3423600D01*
X3422400Y530000D02*
Y535706D01*
X3428400Y518400D02*
X3472200D01*
X3428400Y519600D02*
X3472200D01*
X3428400Y520800D02*
X3472200D01*
X3428400Y522000D02*
X3472200D01*
X3422366Y530400D02*
X3423600D01*
X3421789Y531600D02*
X3423600D01*
X3420594Y532800D02*
X3423600D01*
X3419394Y534000D02*
X3423600D01*
X3428400Y523200D02*
X3472200D01*
X3428400Y524400D02*
X3472200D01*
X3428400Y525600D02*
X3472200D01*
X3428400Y526800D02*
X3472200D01*
X3428400Y528000D02*
X3472200D01*
X3428400Y529200D02*
X3472200D01*
X3428400Y530400D02*
X3472200D01*
X3428400Y531600D02*
X3472200D01*
X3428400Y532800D02*
X3472200D01*
X3428400Y513752D02*
Y535500D01*
Y513752D02*
Y535500D01*
X3429600Y514205D02*
Y543668D01*
X3430800Y514290D02*
Y543843D01*
X3428400Y534000D02*
X3472200D01*
X3428400Y535200D02*
X3472200D01*
X3432000Y514030D02*
Y544148D01*
X3433200Y513695D02*
Y544593D01*
X3440400Y514066D02*
Y584700D01*
X3441600Y512633D02*
Y584700D01*
X3434400Y514618D02*
Y545197D01*
X3435600Y515112D02*
Y545992D01*
X3436800Y515296D02*
Y547029D01*
X3438000Y515205D02*
Y548417D01*
X3439200Y514822D02*
Y550442D01*
X3417600Y535794D02*
Y540506D01*
X3416400Y536994D02*
Y541706D01*
X3416994Y536400D02*
X3421706D01*
X3418894Y546000D02*
X3421389D01*
X3418800Y546094D02*
Y548697D01*
X3417600Y547294D02*
Y550897D01*
X3417694Y547200D02*
X3420031D01*
X3416494Y548400D02*
X3419013D01*
X3426000Y538894D02*
Y543885D01*
X3424800Y540094D02*
Y544212D01*
X3427200Y537694D02*
Y543688D01*
X3428400Y535500D02*
Y543617D01*
X3421200Y543694D02*
Y546146D01*
X3420000Y544894D02*
Y547232D01*
X3423600Y541294D02*
Y544682D01*
X3420094Y544800D02*
X3423349D01*
X3422400Y542494D02*
Y545316D01*
X3416400Y548494D02*
Y584700D01*
X3417600Y559937D02*
Y584700D01*
X3418800Y562136D02*
Y584700D01*
X3420000Y563601D02*
Y584700D01*
X3421200Y564687D02*
Y584700D01*
X3422400Y565518D02*
Y584700D01*
X3423600Y566151D02*
Y584700D01*
X3424800Y566621D02*
Y584700D01*
X3432000Y566686D02*
Y584700D01*
X3426000Y566949D02*
Y584700D01*
X3427200Y567145D02*
Y584700D01*
X3428400Y567216D02*
Y584700D01*
X3429600Y567165D02*
Y584700D01*
X3430800Y566990D02*
Y584700D01*
X3428225Y536400D02*
X3472200D01*
X3427294Y537600D02*
X3472200D01*
X3426094Y538800D02*
X3472200D01*
X3424894Y540000D02*
X3472200D01*
X3423694Y541200D02*
X3472200D01*
X3422494Y542400D02*
X3472200D01*
X3421294Y543600D02*
X3472200D01*
X3433651Y544800D02*
X3472200D01*
X3435611Y546000D02*
X3472200D01*
X3436969Y547200D02*
X3472200D01*
X3437987Y548400D02*
X3472200D01*
X3438767Y549600D02*
X3472200D01*
X3439359Y550800D02*
X3472200D01*
X3439795Y552000D02*
X3472200D01*
X3440090Y553200D02*
X3472200D01*
X3440256Y554400D02*
X3472200D01*
X3435600Y564842D02*
Y584700D01*
X3436800Y563804D02*
Y584700D01*
X3436597Y564000D02*
X3472200D01*
X3433200Y566240D02*
Y584700D01*
X3434400Y565636D02*
Y584700D01*
X3435098Y565200D02*
X3472200D01*
X3432813Y566400D02*
X3472200D01*
X3440298Y555600D02*
X3472200D01*
X3440219Y556800D02*
X3472200D01*
X3440014Y558000D02*
X3472200D01*
X3439677Y559200D02*
X3472200D01*
X3438000Y562416D02*
Y584700D01*
X3439200Y560392D02*
Y584700D01*
X3439196Y560400D02*
X3472200D01*
X3437704Y562800D02*
X3472200D01*
X3438550Y561600D02*
X3472200D01*
D26*
X3364000Y360000D02*
X3372500Y368500D01*
Y461500D01*
X3364000Y470000D02*
X3372500Y461500D01*
X3364000Y470000D02*
X3373500Y479500D01*
Y570000D01*
X3362000Y581500D02*
X3373500Y570000D01*
X3226500Y581500D02*
X3362000D01*
X3175000Y530000D02*
X3226500Y581500D01*
X3262000Y442000D02*
X3265500Y445500D01*
X3253000Y524000D02*
X3265500Y511500D01*
X3253000Y524000D02*
Y572500D01*
X3065000Y530000D02*
X3075000D01*
X3265500Y445500D02*
Y500000D01*
Y511500D01*
Y500000D02*
X3335000D01*
D27*
X3022003Y545000D02*
X3028667D01*
X3030000Y543667D01*
Y541001D01*
X3028667Y539668D01*
X3022003D01*
X3023335Y531671D02*
X3022003Y533004D01*
Y535670D01*
X3023335Y537003D01*
X3024668D01*
X3026001Y535670D01*
Y533004D01*
X3027334Y531671D01*
X3028667D01*
X3030000Y533004D01*
Y535670D01*
X3028667Y537003D01*
X3022003Y529005D02*
X3030000D01*
Y525006D01*
X3028667Y523674D01*
X3027334D01*
X3026001Y525006D01*
Y529005D01*
Y525006D01*
X3024668Y523674D01*
X3023335D01*
X3022003Y525006D01*
Y529005D01*
X3450835Y479668D02*
X3449503Y481001D01*
Y483667D01*
X3450835Y485000D01*
X3456167D01*
X3457500Y483667D01*
Y481001D01*
X3456167Y479668D01*
X3453501D01*
Y482334D01*
X3457500Y477003D02*
X3449503D01*
Y473004D01*
X3450835Y471671D01*
X3453501D01*
X3454834Y473004D01*
Y477003D01*
X3449503Y469005D02*
Y466339D01*
Y467672D01*
X3457500D01*
Y469005D01*
Y466339D01*
X3449503Y462341D02*
X3457500D01*
Y458342D01*
X3456167Y457009D01*
X3454834D01*
X3453501Y458342D01*
Y462341D01*
Y458342D01*
X3452168Y457009D01*
X3450835D01*
X3449503Y458342D01*
Y462341D01*
D30*
X3245800Y373000D02*
X3250500D01*
X3255200D01*
X3262000Y417700D02*
Y422000D01*
X3257700D02*
X3262000D01*
X3266300D01*
X3262000D02*
Y426300D01*
X3246000Y454800D02*
Y466000D01*
X3257200D01*
X3246000D02*
Y477200D01*
X3304000Y463300D02*
Y468000D01*
Y472700D01*
X3046500Y499800D02*
Y511000D01*
X3035300D02*
X3046500D01*
X3057700D01*
X3046500D02*
Y522200D01*
X3057000Y524550D02*
Y530000D01*
X3092800Y495000D02*
X3098000D01*
X3052300Y530000D02*
X3057000D01*
X3098000Y489800D02*
Y495000D01*
X3103200D01*
X3046500Y547800D02*
Y559000D01*
X3035300D02*
X3046500D01*
Y570200D01*
Y559000D02*
X3057700D01*
X3417300Y371083D02*
X3428500D01*
Y359883D02*
Y371083D01*
Y382283D01*
Y371083D02*
X3439700D01*
X3420000Y411800D02*
Y416500D01*
X3424700D01*
X3437000Y411800D02*
Y416500D01*
X3432300D02*
X3437000D01*
X3441700D01*
X3394000Y450000D02*
Y454700D01*
X3432300Y425000D02*
X3437000D01*
X3441700D01*
X3432300Y433500D02*
X3437000D01*
X3441700D01*
X3432300Y442000D02*
X3437000D01*
X3432300Y450500D02*
X3437000D01*
X3432300Y459000D02*
X3437000D01*
Y442000D02*
X3441700D01*
X3437000Y450500D02*
X3441700D01*
X3437000Y459000D02*
X3441700D01*
X3389300Y560000D02*
X3394000D01*
X3398700D01*
X3394000D02*
Y564200D01*
X3432300Y467500D02*
X3437000D01*
X3441700D01*
X3417300Y555417D02*
X3428500D01*
Y544217D02*
Y555417D01*
Y566617D01*
Y555417D02*
X3439700D01*
X3060000Y580998D02*
Y576000D01*
X3061000Y575000D01*
X3062999D01*
X3063999Y576000D01*
Y580998D01*
X3069997Y579998D02*
X3068997Y580998D01*
X3066998D01*
X3065998Y579998D01*
Y578999D01*
X3066998Y577999D01*
X3068997D01*
X3069997Y576999D01*
Y576000D01*
X3068997Y575000D01*
X3066998D01*
X3065998Y576000D01*
X3071996Y580998D02*
Y575000D01*
X3074995D01*
X3075995Y576000D01*
Y576999D01*
X3074995Y577999D01*
X3071996D01*
X3074995D01*
X3075995Y578999D01*
Y579998D01*
X3074995Y580998D01*
X3071996D01*
X3086991Y575000D02*
X3083992Y577999D01*
X3086991Y580998D01*
X3089990Y577999D02*
X3093989D01*
X3095988Y575000D02*
X3098987Y577999D01*
X3095988Y580998D01*
X3110983Y579998D02*
X3109984Y580998D01*
X3107985D01*
X3106985Y579998D01*
Y576000D01*
X3107985Y575000D01*
X3109984D01*
X3110983Y576000D01*
Y577999D01*
X3108984D01*
X3112983Y575000D02*
Y580998D01*
X3115982D01*
X3116982Y579998D01*
Y577999D01*
X3115982Y576999D01*
X3112983D01*
X3118981Y580998D02*
X3120980D01*
X3119981D01*
Y575000D01*
X3118981D01*
X3120980D01*
X3123979Y580998D02*
Y575000D01*
X3126978D01*
X3127978Y576000D01*
Y576999D01*
X3126978Y577999D01*
X3123979D01*
X3126978D01*
X3127978Y578999D01*
Y579998D01*
X3126978Y580998D01*
X3123979D01*
D31*
X3172500Y537999D02*
Y536000D01*
X3171500Y535000D01*
X3170501Y536000D01*
Y537999D01*
X3169501D02*
Y535000D01*
X3168002D01*
X3167502Y535500D01*
Y536000D01*
X3168002Y536500D01*
X3169501D01*
X3168002D01*
X3167502Y536999D01*
Y537499D01*
X3168002Y537999D01*
X3169501D01*
X3166502D02*
Y535500D01*
X3166002Y535000D01*
X3165002D01*
X3164503Y535500D01*
Y537999D01*
X3161504Y537499D02*
X3162003Y537999D01*
X3163003D01*
X3163503Y537499D01*
Y536999D01*
X3163003Y536500D01*
X3162003D01*
X3161504Y536000D01*
Y535500D01*
X3162003Y535000D01*
X3163003D01*
X3163503Y535500D01*
X3160504Y534500D02*
X3158504D01*
X3155506Y537499D02*
X3156005Y537999D01*
X3157005D01*
X3157505Y537499D01*
Y536999D01*
X3157005Y536500D01*
X3156005D01*
X3155506Y536000D01*
Y535500D01*
X3156005Y535000D01*
X3157005D01*
X3157505Y535500D01*
X3154506Y537999D02*
Y535000D01*
X3153506Y536000D01*
X3152506Y535000D01*
Y537999D01*
X3230000Y502500D02*
Y505499D01*
X3228500D01*
X3228001Y504999D01*
Y504000D01*
X3228500Y503500D01*
X3230000D01*
X3229000D02*
X3228001Y502500D01*
X3227001Y505499D02*
X3225002Y502500D01*
Y505499D02*
X3227001Y502500D01*
X3222002Y505499D02*
X3224002D01*
Y504000D01*
X3223002D01*
X3224002D01*
Y502500D01*
X3220503D02*
Y505499D01*
X3219503D02*
Y502500D01*
X3221003Y504499D02*
X3219503D01*
X3219004D01*
X3221003Y503500D02*
X3219004D01*
X3227000Y525000D02*
Y527999D01*
X3225500D01*
X3225001Y527499D01*
Y526500D01*
X3225500Y526000D01*
X3227000D01*
X3224001Y527999D02*
Y525000D01*
X3223001Y526000D01*
X3222002Y525000D01*
Y527999D01*
X3221002Y525000D02*
Y527999D01*
X3219502D01*
X3219003Y527499D01*
Y526500D01*
X3219502Y526000D01*
X3221002D01*
X3220002D02*
X3219003Y525000D01*
X3216003Y527999D02*
X3218003D01*
Y525000D01*
X3216003D01*
X3218003Y526500D02*
X3217003D01*
X3215004Y525000D02*
Y527999D01*
X3213005Y525000D01*
Y527999D01*
X3330000Y550666D02*
X3329333Y550000D01*
X3328001D01*
X3327334Y550666D01*
Y553332D01*
X3328001Y553999D01*
X3329333D01*
X3330000Y553332D01*
Y552666D01*
X3329333Y551999D01*
X3327334D01*
X3326001Y553332D02*
X3325335Y553999D01*
X3324002D01*
X3323336Y553332D01*
Y552666D01*
X3324002Y551999D01*
X3324669D01*
X3324002D01*
X3323336Y551333D01*
Y550666D01*
X3324002Y550000D01*
X3325335D01*
X3326001Y550666D01*
X3319337Y553332D02*
X3320003Y553999D01*
X3321336D01*
X3322002Y553332D01*
Y550666D01*
X3321336Y550000D01*
X3320003D01*
X3319337Y550666D01*
X3316005Y550000D02*
Y553999D01*
X3318004Y551999D01*
X3315338D01*
X3311340Y553999D02*
X3312672Y553332D01*
X3314005Y551999D01*
Y550666D01*
X3313339Y550000D01*
X3312006D01*
X3311340Y550666D01*
Y551333D01*
X3312006Y551999D01*
X3314005D01*
X3407500Y360499D02*
X3405501D01*
X3406500D01*
Y357500D01*
X3402502Y360499D02*
X3404501D01*
Y357500D01*
X3402502D01*
X3404501Y358999D02*
X3403501D01*
X3287334Y508999D02*
X3290000D01*
Y506999D01*
X3288667D01*
X3290000D01*
Y505000D01*
X3286001Y508999D02*
X3283335D01*
X3284668D01*
Y505000D01*
X3279337D02*
X3282003D01*
X3279337Y507666D01*
Y508332D01*
X3280003Y508999D01*
X3281336D01*
X3282003Y508332D01*
X3276004Y505000D02*
Y508999D01*
X3278004Y506999D01*
X3275338D01*
X3271339Y508999D02*
X3274005D01*
Y506999D01*
X3272672Y507666D01*
X3272006D01*
X3271339Y506999D01*
Y505666D01*
X3272006Y505000D01*
X3273339D01*
X3274005Y505666D01*
X3279000Y438999D02*
Y437000D01*
X3278000Y436000D01*
X3277001Y437000D01*
Y438999D01*
X3276001D02*
X3274002D01*
X3275001D01*
Y436000D01*
X3271003Y438499D02*
X3271502Y438999D01*
X3272502D01*
X3273002Y438499D01*
Y436500D01*
X3272502Y436000D01*
X3271502D01*
X3271003Y436500D01*
Y437500D01*
X3272002D01*
X3277000Y430000D02*
Y432999D01*
X3276000Y431999D01*
X3275001Y432999D01*
Y430000D01*
X3272501Y432999D02*
X3273501D01*
X3274001Y432499D01*
Y430500D01*
X3273501Y430000D01*
X3272501D01*
X3272002Y430500D01*
Y432499D01*
X3272501Y432999D01*
X3269003Y432499D02*
X3269502Y432999D01*
X3270502D01*
X3271002Y432499D01*
Y431999D01*
X3270502Y431499D01*
X3269502D01*
X3269003Y431000D01*
Y430500D01*
X3269502Y430000D01*
X3270502D01*
X3271002Y430500D01*
X3268003Y432999D02*
X3267003D01*
X3267503D01*
Y430000D01*
X3268003D01*
X3267003D01*
X3275001Y419499D02*
X3275500Y419999D01*
X3276500D01*
X3277000Y419499D01*
Y417500D01*
X3276500Y417000D01*
X3275500D01*
X3275001Y417500D01*
Y418500D01*
X3276000D01*
X3274001Y417000D02*
Y419999D01*
X3272002Y417000D01*
Y419999D01*
X3271002D02*
Y417000D01*
X3269502D01*
X3269003Y417500D01*
Y419499D01*
X3269502Y419999D01*
X3271002D01*
X3244000Y440000D02*
Y442999D01*
X3243000Y441999D01*
X3242001Y442999D01*
Y440000D01*
X3241001Y442999D02*
X3240001D01*
X3240501D01*
Y440000D01*
X3241001D01*
X3240001D01*
X3236502Y442499D02*
X3237002Y442999D01*
X3238002D01*
X3238502Y442499D01*
Y441999D01*
X3238002Y441500D01*
X3237002D01*
X3236502Y441000D01*
Y440500D01*
X3237002Y440000D01*
X3238002D01*
X3238502Y440500D01*
X3234003Y442999D02*
X3235003D01*
X3235503Y442499D01*
Y440500D01*
X3235003Y440000D01*
X3234003D01*
X3233503Y440500D01*
Y442499D01*
X3234003Y442999D01*
X3242001Y432499D02*
X3242501Y432999D01*
X3243500D01*
X3244000Y432499D01*
Y431999D01*
X3243500Y431499D01*
X3242501D01*
X3242001Y431000D01*
Y430500D01*
X3242501Y430000D01*
X3243500D01*
X3244000Y430500D01*
X3239001Y432499D02*
X3239502Y432999D01*
X3240501D01*
X3241001Y432499D01*
Y430500D01*
X3240501Y430000D01*
X3239502D01*
X3239001Y430500D01*
X3238002Y432999D02*
Y430000D01*
Y431000D01*
X3236003Y432999D01*
X3237502Y431499D01*
X3236003Y430000D01*
X3244000Y417000D02*
Y419999D01*
X3242501D01*
X3242001Y419499D01*
Y418500D01*
X3242501Y418000D01*
X3244000D01*
X3243000D02*
X3242001Y417000D01*
X3239001Y419499D02*
X3239502Y419999D01*
X3240501D01*
X3241001Y419499D01*
Y418999D01*
X3240501Y418500D01*
X3239502D01*
X3239001Y418000D01*
Y417500D01*
X3239502Y417000D01*
X3240501D01*
X3241001Y417500D01*
X3238002Y419999D02*
X3236003D01*
X3237002D01*
Y417000D01*
X3271502Y467500D02*
Y465501D01*
Y466500D01*
X3277500D01*
Y467500D01*
Y465501D01*
X3272502Y458503D02*
X3271502Y459503D01*
Y461502D01*
X3272502Y462502D01*
X3273501D01*
X3274501Y461502D01*
Y459503D01*
X3275500Y458503D01*
X3276500D01*
X3277500Y459503D01*
Y461502D01*
X3276500Y462502D01*
X3277500Y456504D02*
X3271502D01*
Y453505D01*
X3272502Y452505D01*
X3274501D01*
X3275500Y453505D01*
Y456504D01*
X3320500Y401000D02*
Y403666D01*
X3319167Y404999D01*
X3317834Y403666D01*
Y401000D01*
Y402999D01*
X3320500D01*
X3316501Y404999D02*
X3313836D01*
X3315168D01*
Y401000D01*
X3312503Y401666D02*
X3311836Y401000D01*
X3310503D01*
X3309837Y401666D01*
Y404332D01*
X3310503Y404999D01*
X3311836D01*
X3312503Y404332D01*
Y403666D01*
X3311836Y402999D01*
X3309837D01*
X3308504Y404332D02*
X3307837Y404999D01*
X3306504D01*
X3305838Y404332D01*
Y401666D01*
X3306504Y401000D01*
X3307837D01*
X3308504Y401666D01*
Y404332D01*
X3301839D02*
X3302506Y404999D01*
X3303839D01*
X3304505Y404332D01*
Y403666D01*
X3303839Y402999D01*
X3302506D01*
X3301839Y402333D01*
Y401666D01*
X3302506Y401000D01*
X3303839D01*
X3304505Y401666D01*
X3300507Y404332D02*
X3299840Y404999D01*
X3298507D01*
X3297840Y404332D01*
Y403666D01*
X3298507Y402999D01*
X3297840Y402333D01*
Y401666D01*
X3298507Y401000D01*
X3299840D01*
X3300507Y401666D01*
Y402333D01*
X3299840Y402999D01*
X3300507Y403666D01*
Y404332D01*
X3299840Y402999D02*
X3298507D01*
X3293842Y404999D02*
X3296508D01*
Y402999D01*
X3295175Y403666D01*
X3294508D01*
X3293842Y402999D01*
Y401666D01*
X3294508Y401000D01*
X3295841D01*
X3296508Y401666D01*
X3292509Y401000D02*
X3291176D01*
X3291843D01*
Y404999D01*
X3292509Y404332D01*
X3286511Y404999D02*
X3289177D01*
Y402999D01*
X3287844Y403666D01*
X3287177D01*
X3286511Y402999D01*
Y401666D01*
X3287177Y401000D01*
X3288510D01*
X3289177Y401666D01*
X3378001Y535000D02*
Y532334D01*
X3378668D01*
X3381334Y535000D01*
X3382000D01*
X3378001Y528336D02*
Y531001D01*
X3380001D01*
X3379334Y529668D01*
Y529002D01*
X3380001Y528336D01*
X3381334D01*
X3382000Y529002D01*
Y530335D01*
X3381334Y531001D01*
X3382000Y527003D02*
Y525670D01*
Y526336D01*
X3378001D01*
X3378668Y527003D01*
X3378001Y521004D02*
X3378668Y522337D01*
X3380001Y523670D01*
X3381334D01*
X3382000Y523004D01*
Y521671D01*
X3381334Y521004D01*
X3380667D01*
X3380001Y521671D01*
Y523670D01*
X3378668Y519672D02*
X3378001Y519005D01*
Y517672D01*
X3378668Y517006D01*
X3381334D01*
X3382000Y517672D01*
Y519005D01*
X3381334Y519672D01*
X3378668D01*
X3378001Y425500D02*
Y422834D01*
X3378668D01*
X3381334Y425500D01*
X3382000D01*
X3378001Y418835D02*
Y421501D01*
X3380001D01*
X3379334Y420168D01*
Y419502D01*
X3380001Y418835D01*
X3381334D01*
X3382000Y419502D01*
Y420835D01*
X3381334Y421501D01*
X3382000Y417503D02*
Y416170D01*
Y416836D01*
X3378001D01*
X3378668Y417503D01*
X3378001Y411505D02*
X3378668Y412837D01*
X3380001Y414170D01*
X3381334D01*
X3382000Y413504D01*
Y412171D01*
X3381334Y411505D01*
X3380667D01*
X3380001Y412171D01*
Y414170D01*
X3382000Y410172D02*
Y408839D01*
Y409505D01*
X3378001D01*
X3378668Y410172D01*
X3236500Y448000D02*
X3237833D01*
X3237166D01*
Y451999D01*
X3236500Y451332D01*
X3100000Y553999D02*
Y552000D01*
X3101000Y551000D01*
X3101999Y552000D01*
Y553999D01*
X3102999D02*
Y551000D01*
X3104498D01*
X3104998Y551500D01*
Y552000D01*
X3104498Y552499D01*
X3102999D01*
X3104498D01*
X3104998Y552999D01*
Y553499D01*
X3104498Y553999D01*
X3102999D01*
X3105998D02*
Y551500D01*
X3106498Y551000D01*
X3107498D01*
X3107997Y551500D01*
Y553999D01*
X3110996Y553499D02*
X3110497Y553999D01*
X3109497D01*
X3108997Y553499D01*
Y552999D01*
X3109497Y552499D01*
X3110497D01*
X3110996Y552000D01*
Y551500D01*
X3110497Y551000D01*
X3109497D01*
X3108997Y551500D01*
X3060000Y495000D02*
Y498999D01*
X3061999D01*
X3062666Y498332D01*
Y496999D01*
X3061999Y496333D01*
X3060000D01*
X3063999Y498999D02*
Y495000D01*
X3065332Y496333D01*
X3066665Y495000D01*
Y498999D01*
X3067997Y495000D02*
Y498999D01*
X3069997D01*
X3070663Y498332D01*
Y496999D01*
X3069997Y496333D01*
X3067997D01*
X3069330D02*
X3070663Y495000D01*
X3075995Y498999D02*
Y495000D01*
X3078661D01*
X3082659Y498999D02*
X3079993D01*
Y495000D01*
X3082659D01*
X3079993Y496999D02*
X3081326D01*
X3083992Y498999D02*
Y495000D01*
X3085992D01*
X3086658Y495666D01*
Y498332D01*
X3085992Y498999D01*
X3083992D01*
X3060000Y571499D02*
Y567500D01*
X3061999D01*
X3062666Y568166D01*
Y568833D01*
X3061999Y569499D01*
X3060000D01*
X3061999D01*
X3062666Y570166D01*
Y570832D01*
X3061999Y571499D01*
X3060000D01*
X3063999Y567500D02*
Y568166D01*
X3064665D01*
Y567500D01*
X3063999D01*
X3073996Y570832D02*
X3073329Y571499D01*
X3071996D01*
X3071330Y570832D01*
Y568166D01*
X3071996Y567500D01*
X3073329D01*
X3073996Y568166D01*
Y569499D01*
X3072663D01*
X3075328Y567500D02*
X3076661D01*
X3075995D01*
Y571499D01*
X3075328D01*
X3079327Y570166D02*
X3080660D01*
X3081326Y569499D01*
Y567500D01*
X3079327D01*
X3078661Y568166D01*
X3079327Y568833D01*
X3081326D01*
X3082659Y570166D02*
X3085325D01*
X3082659Y567500D01*
X3085325D01*
X3087325Y570166D02*
X3088657D01*
X3089324Y569499D01*
Y567500D01*
X3087325D01*
X3086658Y568166D01*
X3087325Y568833D01*
X3089324D01*
X3090657Y570166D02*
Y567500D01*
Y568833D01*
X3091323Y569499D01*
X3091990Y570166D01*
X3092656D01*
X3095322Y566834D02*
X3095988Y567500D01*
Y568166D01*
X3095322D01*
Y567500D01*
X3095988D01*
X3095322Y566834D01*
X3094655Y566167D01*
X3105319Y571499D02*
X3102653D01*
Y569499D01*
X3103986D01*
X3102653D01*
Y567500D01*
X3109317Y571499D02*
X3106652D01*
Y567500D01*
X3109317D01*
X3106652Y569499D02*
X3107985D01*
X3111317Y566834D02*
X3111983Y567500D01*
Y568166D01*
X3111317D01*
Y567500D01*
X3111983D01*
X3111317Y566834D01*
X3110650Y566167D01*
X3118648Y571499D02*
Y567500D01*
X3121314D01*
X3122647D02*
Y571499D01*
X3124646D01*
X3125312Y570832D01*
Y569499D01*
X3124646Y568833D01*
X3122647D01*
X3129311Y570832D02*
X3128645Y571499D01*
X3127312D01*
X3126645Y570832D01*
Y570166D01*
X3127312Y569499D01*
X3128645D01*
X3129311Y568833D01*
Y568166D01*
X3128645Y567500D01*
X3127312D01*
X3126645Y568166D01*
X3132643Y571499D02*
X3131310D01*
X3130644Y570832D01*
Y568166D01*
X3131310Y567500D01*
X3132643D01*
X3133310Y568166D01*
Y570832D01*
X3132643Y571499D01*
X3135309Y566834D02*
X3135975Y567500D01*
Y568166D01*
X3135309D01*
Y567500D01*
X3135975D01*
X3135309Y566834D01*
X3134643Y566167D01*
X3145306Y567500D02*
X3142640D01*
X3145306Y570166D01*
Y570832D01*
X3144639Y571499D01*
X3143307D01*
X3142640Y570832D01*
X3146639D02*
X3147305Y571499D01*
X3148638D01*
X3149305Y570832D01*
Y568166D01*
X3148638Y567500D01*
X3147305D01*
X3146639Y568166D01*
Y570832D01*
X3150637D02*
X3151304Y571499D01*
X3152637D01*
X3153303Y570832D01*
Y568166D01*
X3152637Y567500D01*
X3151304D01*
X3150637Y568166D01*
Y570832D01*
X3154636D02*
X3155303Y571499D01*
X3156635D01*
X3157302Y570832D01*
Y570166D01*
X3156635Y569499D01*
X3155969D01*
X3156635D01*
X3157302Y568833D01*
Y568166D01*
X3156635Y567500D01*
X3155303D01*
X3154636Y568166D01*
X3162634Y571499D02*
Y568833D01*
X3163967Y567500D01*
X3165299Y568833D01*
Y571499D01*
X3166632Y567500D02*
X3167965D01*
X3167299D01*
Y571499D01*
X3166632Y570832D01*
X3169964Y567500D02*
Y568166D01*
X3170631D01*
Y567500D01*
X3169964D01*
X3173297D02*
X3174630D01*
X3173963D01*
Y571499D01*
X3173297Y570832D01*
D32*
X3046500Y511000D02*
D03*
Y559000D02*
D03*
X3428500Y371083D02*
D03*
Y555417D02*
D03*
X3246000Y466000D02*
D03*
D33*
X3057000Y530000D02*
D03*
Y540000D02*
D03*
X3065000D02*
D03*
Y530000D02*
D03*
D34*
X3437000Y416500D02*
D03*
Y425000D02*
D03*
Y433500D02*
D03*
Y442000D02*
D03*
Y450500D02*
D03*
Y459000D02*
D03*
Y467500D02*
D03*
Y476000D02*
D03*
Y484500D02*
D03*
Y493000D02*
D03*
Y501500D02*
D03*
Y510000D02*
D03*
X3420000Y416500D02*
D03*
Y425000D02*
D03*
Y433500D02*
D03*
Y442000D02*
D03*
Y450500D02*
D03*
Y459000D02*
D03*
Y467500D02*
D03*
Y476000D02*
D03*
Y484500D02*
D03*
Y493000D02*
D03*
Y501500D02*
D03*
X3314000Y468500D02*
D03*
X3294000D02*
D03*
X3364000Y380000D02*
D03*
Y390000D02*
D03*
Y400000D02*
D03*
Y410000D02*
D03*
Y420000D02*
D03*
Y430000D02*
D03*
Y440000D02*
D03*
Y450000D02*
D03*
X3394000D02*
D03*
Y440000D02*
D03*
Y430000D02*
D03*
Y420000D02*
D03*
Y410000D02*
D03*
Y400000D02*
D03*
Y390000D02*
D03*
Y380000D02*
D03*
X3364000Y480000D02*
D03*
Y490000D02*
D03*
Y500000D02*
D03*
Y510000D02*
D03*
Y520000D02*
D03*
Y530000D02*
D03*
Y540000D02*
D03*
Y550000D02*
D03*
Y560000D02*
D03*
X3394000Y490000D02*
D03*
Y500000D02*
D03*
Y510000D02*
D03*
Y540000D02*
D03*
X3364000Y470000D02*
D03*
X3250500Y383000D02*
D03*
Y363000D02*
D03*
X3304000Y468000D02*
D03*
X3250500Y373000D02*
D03*
D35*
X3420000Y510000D02*
D03*
D36*
X3098000Y505000D02*
D03*
Y495000D02*
D03*
D37*
X3262000Y422000D02*
D03*
X3252000D02*
D03*
X3262000Y432000D02*
D03*
X3252000D02*
D03*
X3262000Y442000D02*
D03*
D38*
X3252000D02*
D03*
D39*
X3364000Y370000D02*
D03*
Y360000D02*
D03*
X3394000Y370000D02*
D03*
Y480000D02*
D03*
Y520000D02*
D03*
Y530000D02*
D03*
Y550000D02*
D03*
Y560000D02*
D03*
D40*
Y360000D02*
D03*
Y470000D02*
D03*
D41*
X3337500Y402500D02*
D03*
X3426500Y433500D02*
D03*
X3430500Y476000D02*
D03*
Y484500D02*
D03*
Y510000D02*
D03*
Y501500D02*
D03*
X3287000Y371500D02*
D03*
X3226000Y546500D02*
D03*
X3335000Y500000D02*
D03*
X3275500Y377500D02*
D03*
X3267000Y397500D02*
D03*
X3235000Y563500D02*
D03*
X3300500Y447500D02*
D03*
X3230000Y417500D02*
D03*
X3238900Y502500D02*
D03*
X3219500Y412500D02*
D03*
X3253000Y572500D02*
D03*
X3175000Y530000D02*
D03*
X3240000Y527000D02*
D03*
X3075000Y530000D02*
D03*
Y520000D02*
D03*
X3426500Y425000D02*
D03*
X3231000Y527000D02*
D03*
M02*
