G75*
G70*
%OFA0B0*%
%FSLAX24Y24*%
%IPPOS*%
%LPD*%
%AMOC8*
5,1,8,0,0,1.08239X$1,22.5*
%
%ADD10C,0.0640*%
%ADD11OC8,0.0640*%
%ADD12OC8,0.0600*%
%ADD13C,0.0100*%
D10*
X008656Y001486D02*
X008656Y002126D01*
X009656Y002126D02*
X009656Y001486D01*
X010656Y001486D02*
X010656Y002126D01*
X011656Y002126D02*
X011656Y001486D01*
X012656Y001486D02*
X012656Y002126D01*
X013656Y002126D02*
X013656Y001486D01*
X015656Y001486D02*
X015656Y002126D01*
X016656Y002126D02*
X016656Y001486D01*
X017656Y001486D02*
X017656Y002126D01*
X018656Y002126D02*
X018656Y001486D01*
X019656Y001486D02*
X019656Y002126D01*
X020656Y002126D02*
X020656Y001486D01*
X021656Y001486D02*
X021656Y002126D01*
X022656Y002126D02*
X022656Y001486D01*
X024656Y001486D02*
X024656Y002126D01*
X025656Y002126D02*
X025656Y001486D01*
X026656Y001486D02*
X026656Y002126D01*
X027656Y002126D02*
X027656Y001486D01*
X028656Y001486D02*
X028656Y002126D01*
X029656Y002126D02*
X029656Y001486D01*
X030656Y001486D02*
X030656Y002126D01*
X031656Y002126D02*
X031656Y001486D01*
X029656Y020486D02*
X029656Y021126D01*
X028656Y021126D02*
X028656Y020486D01*
X027656Y020486D02*
X027656Y021126D01*
X026656Y021126D02*
X026656Y020486D01*
X025656Y020486D02*
X025656Y021126D01*
X024656Y021126D02*
X024656Y020486D01*
X023656Y020486D02*
X023656Y021126D01*
X022656Y021126D02*
X022656Y020486D01*
X020656Y020486D02*
X020656Y021126D01*
X019656Y021126D02*
X019656Y020486D01*
X018656Y020486D02*
X018656Y021126D01*
X017656Y021126D02*
X017656Y020486D01*
X016656Y020486D02*
X016656Y021126D01*
X015656Y021126D02*
X015656Y020486D01*
X014656Y020486D02*
X014656Y021126D01*
X013656Y021126D02*
X013656Y020486D01*
X012156Y020486D02*
X012156Y021126D01*
X011156Y021126D02*
X011156Y020486D01*
X010156Y020486D02*
X010156Y021126D01*
X009156Y021126D02*
X009156Y020486D01*
X008156Y020486D02*
X008156Y021126D01*
X007156Y021126D02*
X007156Y020486D01*
X006156Y020486D02*
X006156Y021126D01*
X005156Y021126D02*
X005156Y020486D01*
D11*
X032656Y020806D03*
X033656Y020806D03*
X033656Y019806D03*
X032656Y019806D03*
X032656Y018806D03*
X033656Y018806D03*
X033656Y017806D03*
X032656Y017806D03*
X032656Y016806D03*
X033656Y016806D03*
X033656Y015806D03*
X032656Y015806D03*
X032656Y014806D03*
X033656Y014806D03*
X033656Y013806D03*
X032656Y013806D03*
X032656Y012806D03*
X033656Y012806D03*
X033656Y011806D03*
X032656Y011806D03*
X032656Y010806D03*
X033656Y010806D03*
X033656Y009806D03*
X032656Y009806D03*
X032656Y008806D03*
X033656Y008806D03*
X033656Y007806D03*
X032656Y007806D03*
X032656Y006806D03*
X033656Y006806D03*
X033656Y005806D03*
X032656Y005806D03*
X032656Y004806D03*
X033656Y004806D03*
X033656Y003806D03*
X032656Y003806D03*
D12*
X028156Y006806D03*
X027156Y006806D03*
X026156Y006806D03*
X025156Y006806D03*
X024156Y006806D03*
X023156Y006806D03*
X022156Y006806D03*
X021156Y006806D03*
X020156Y006806D03*
X019156Y006806D03*
X018156Y006806D03*
X017156Y006806D03*
X016156Y006806D03*
X015156Y006806D03*
X014156Y006806D03*
X013156Y006806D03*
X012156Y006806D03*
X012156Y007806D03*
X013156Y007806D03*
X014156Y007806D03*
X015156Y007806D03*
X016156Y007806D03*
X017156Y007806D03*
X018156Y007806D03*
X019156Y007806D03*
X020156Y007806D03*
X021156Y007806D03*
X022156Y007806D03*
X023156Y007806D03*
X024156Y007806D03*
X025156Y007806D03*
X026156Y007806D03*
X027156Y007806D03*
X028156Y007806D03*
X028156Y014806D03*
X027156Y014806D03*
X026156Y014806D03*
X025156Y014806D03*
X024156Y014806D03*
X023156Y014806D03*
X022156Y014806D03*
X021156Y014806D03*
X020156Y014806D03*
X019156Y014806D03*
X018156Y014806D03*
X017156Y014806D03*
X016156Y014806D03*
X015156Y014806D03*
X014156Y014806D03*
X013156Y014806D03*
X012156Y014806D03*
X011156Y014806D03*
X010156Y014806D03*
X009156Y014806D03*
X008156Y014806D03*
X007156Y014806D03*
X006156Y014806D03*
X005156Y014806D03*
X004156Y014806D03*
X004156Y015806D03*
X005156Y015806D03*
X006156Y015806D03*
X007156Y015806D03*
X008156Y015806D03*
X009156Y015806D03*
X010156Y015806D03*
X011156Y015806D03*
X012156Y015806D03*
X013156Y015806D03*
X014156Y015806D03*
X015156Y015806D03*
X016156Y015806D03*
X017156Y015806D03*
X018156Y015806D03*
X019156Y015806D03*
X020156Y015806D03*
X021156Y015806D03*
X022156Y015806D03*
X023156Y015806D03*
X024156Y015806D03*
X025156Y015806D03*
X026156Y015806D03*
X027156Y015806D03*
X028156Y015806D03*
D13*
X000326Y021636D02*
X000326Y000976D01*
X034486Y000976D01*
X034486Y001377D01*
X034586Y001476D01*
X035486Y002377D01*
X035486Y015736D01*
X034586Y016636D01*
X034586Y016636D01*
X034486Y016736D01*
X034486Y020736D01*
X033586Y021636D01*
X000326Y021636D01*
X000326Y021599D02*
X001479Y021599D01*
X001497Y021606D02*
X001203Y021484D01*
X000978Y021259D01*
X000856Y020965D01*
X000856Y020647D01*
X000978Y020353D01*
X001203Y020128D01*
X001497Y020006D01*
X001815Y020006D01*
X002109Y020128D01*
X002334Y020353D01*
X002456Y020647D01*
X002456Y020965D01*
X002334Y021259D01*
X002109Y021484D01*
X001815Y021606D01*
X001497Y021606D01*
X001242Y021500D02*
X000326Y021500D01*
X000326Y021402D02*
X001120Y021402D01*
X001022Y021303D02*
X000326Y021303D01*
X000326Y021205D02*
X000955Y021205D01*
X000914Y021106D02*
X000326Y021106D01*
X000326Y021008D02*
X000874Y021008D01*
X000856Y020909D02*
X000326Y020909D01*
X000326Y020811D02*
X000856Y020811D01*
X000856Y020712D02*
X000326Y020712D01*
X000326Y020614D02*
X000870Y020614D01*
X000911Y020515D02*
X000326Y020515D01*
X000326Y020416D02*
X000952Y020416D01*
X001013Y020318D02*
X000326Y020318D01*
X000326Y020219D02*
X001112Y020219D01*
X001221Y020121D02*
X000326Y020121D01*
X000326Y020022D02*
X001459Y020022D01*
X001853Y020022D02*
X004996Y020022D01*
X005059Y019996D02*
X005254Y019996D01*
X005434Y020071D01*
X005571Y020209D01*
X005646Y020389D01*
X005646Y021224D01*
X005571Y021404D01*
X005434Y021542D01*
X005254Y021616D01*
X005059Y021616D01*
X004878Y021542D01*
X004741Y021404D01*
X004666Y021224D01*
X004666Y020389D01*
X004741Y020209D01*
X004878Y020071D01*
X005059Y019996D01*
X005316Y020022D02*
X006081Y020022D01*
X006106Y020022D02*
X006206Y020022D01*
X006206Y020018D02*
X006266Y020028D01*
X006336Y020051D01*
X006402Y020084D01*
X006462Y020128D01*
X006515Y020180D01*
X006558Y020240D01*
X006592Y020306D01*
X006614Y020376D01*
X006626Y020449D01*
X006626Y020756D01*
X006206Y020756D01*
X006206Y020018D01*
X006231Y020022D02*
X006996Y020022D01*
X007059Y019996D02*
X007254Y019996D01*
X007434Y020071D01*
X007571Y020209D01*
X007646Y020389D01*
X007646Y021224D01*
X007571Y021404D01*
X007434Y021542D01*
X007254Y021616D01*
X007059Y021616D01*
X006878Y021542D01*
X006741Y021404D01*
X006666Y021224D01*
X006666Y020389D01*
X006741Y020209D01*
X006878Y020071D01*
X007059Y019996D01*
X007316Y020022D02*
X007996Y020022D01*
X008059Y019996D02*
X008254Y019996D01*
X008434Y020071D01*
X008571Y020209D01*
X008646Y020389D01*
X008646Y021224D01*
X008571Y021404D01*
X008434Y021542D01*
X008254Y021616D01*
X008059Y021616D01*
X007878Y021542D01*
X007741Y021404D01*
X007666Y021224D01*
X007666Y020389D01*
X007741Y020209D01*
X007878Y020071D01*
X008059Y019996D01*
X008316Y020022D02*
X008996Y020022D01*
X009042Y020003D02*
X008936Y019897D01*
X005436Y016397D01*
X005436Y016215D01*
X005436Y016191D01*
X005351Y016276D01*
X004961Y016276D01*
X004686Y016001D01*
X004686Y015612D01*
X004961Y015336D01*
X005351Y015336D01*
X005436Y015422D01*
X005436Y015397D01*
X005315Y015276D01*
X004961Y015276D01*
X004686Y015001D01*
X004686Y014612D01*
X004961Y014336D01*
X005351Y014336D01*
X005626Y014612D01*
X005626Y014965D01*
X005747Y015086D01*
X005876Y015215D01*
X005876Y015422D01*
X005961Y015336D01*
X006351Y015336D01*
X006436Y015422D01*
X006436Y015397D01*
X006315Y015276D01*
X005961Y015276D01*
X005686Y015001D01*
X005686Y014612D01*
X005961Y014336D01*
X006351Y014336D01*
X006626Y014612D01*
X006626Y014965D01*
X006747Y015086D01*
X006876Y015215D01*
X006876Y015422D01*
X006961Y015336D01*
X007351Y015336D01*
X007436Y015422D01*
X007436Y015397D01*
X007315Y015276D01*
X006961Y015276D01*
X006686Y015001D01*
X006686Y014612D01*
X006961Y014336D01*
X007351Y014336D01*
X007626Y014612D01*
X007626Y014965D01*
X007747Y015086D01*
X007876Y015215D01*
X007876Y015422D01*
X007961Y015336D01*
X008351Y015336D01*
X008436Y015422D01*
X008436Y015397D01*
X008315Y015276D01*
X007961Y015276D01*
X007686Y015001D01*
X007686Y014612D01*
X007961Y014336D01*
X008351Y014336D01*
X008626Y014612D01*
X008626Y014965D01*
X008747Y015086D01*
X008876Y015215D01*
X008876Y015422D01*
X008961Y015336D01*
X009351Y015336D01*
X009436Y015422D01*
X009436Y015397D01*
X009315Y015276D01*
X008961Y015276D01*
X008686Y015001D01*
X008686Y014612D01*
X008961Y014336D01*
X009351Y014336D01*
X009626Y014612D01*
X009626Y014965D01*
X009747Y015086D01*
X009876Y015215D01*
X009876Y015422D01*
X009961Y015336D01*
X010351Y015336D01*
X010626Y015612D01*
X010626Y016001D01*
X010351Y016276D01*
X009961Y016276D01*
X009876Y016191D01*
X009876Y016215D01*
X011247Y017586D01*
X032183Y017586D01*
X032243Y017526D01*
X012565Y017526D01*
X012436Y017397D01*
X011436Y016397D01*
X011436Y016215D01*
X011436Y016191D01*
X011351Y016276D01*
X010961Y016276D01*
X010686Y016001D01*
X010686Y015612D01*
X010961Y015336D01*
X011351Y015336D01*
X011436Y015422D01*
X011436Y015397D01*
X011315Y015276D01*
X010961Y015276D01*
X010686Y015001D01*
X010686Y014612D01*
X010961Y014336D01*
X011351Y014336D01*
X011626Y014612D01*
X011626Y014965D01*
X011747Y015086D01*
X011876Y015215D01*
X011876Y015422D01*
X011961Y015336D01*
X012351Y015336D01*
X012436Y015422D01*
X012436Y015397D01*
X012315Y015276D01*
X011961Y015276D01*
X011686Y015001D01*
X011686Y014612D01*
X011961Y014336D01*
X012351Y014336D01*
X012626Y014612D01*
X012626Y014965D01*
X012747Y015086D01*
X012876Y015215D01*
X012876Y015422D01*
X012961Y015336D01*
X013351Y015336D01*
X013436Y015422D01*
X013436Y015397D01*
X013315Y015276D01*
X012961Y015276D01*
X012686Y015001D01*
X012686Y014612D01*
X012961Y014336D01*
X013351Y014336D01*
X013626Y014612D01*
X013626Y014965D01*
X013747Y015086D01*
X013876Y015215D01*
X013876Y015422D01*
X013961Y015336D01*
X014351Y015336D01*
X014626Y015612D01*
X014626Y016001D01*
X014541Y016086D01*
X014771Y016086D01*
X014686Y016001D01*
X014686Y015612D01*
X014771Y015526D01*
X014565Y015526D01*
X014436Y015397D01*
X014315Y015276D01*
X013961Y015276D01*
X013686Y015001D01*
X013686Y014612D01*
X013961Y014336D01*
X014351Y014336D01*
X014626Y014612D01*
X014626Y014965D01*
X014747Y015086D01*
X014771Y015086D01*
X014686Y015001D01*
X014686Y014612D01*
X014936Y014362D01*
X014936Y011397D01*
X014936Y011215D01*
X016065Y010086D01*
X016247Y010086D01*
X032243Y010086D01*
X032166Y010009D01*
X032166Y009603D01*
X032453Y009316D01*
X032859Y009316D01*
X033146Y009603D01*
X033146Y010009D01*
X033069Y010086D01*
X033243Y010086D01*
X033166Y010009D01*
X033166Y009603D01*
X033453Y009316D01*
X033859Y009316D01*
X034146Y009603D01*
X034146Y010009D01*
X033859Y010296D01*
X033457Y010296D01*
X033477Y010316D01*
X033859Y010316D01*
X034146Y010603D01*
X034146Y011009D01*
X033859Y011296D01*
X033457Y011296D01*
X033477Y011316D01*
X033859Y011316D01*
X034146Y011603D01*
X034146Y012009D01*
X033859Y012296D01*
X033453Y012296D01*
X033166Y012009D01*
X033166Y011627D01*
X033146Y011607D01*
X033146Y012009D01*
X032859Y012296D01*
X032453Y012296D01*
X032166Y012009D01*
X032166Y011603D01*
X032243Y011526D01*
X018747Y011526D01*
X018376Y011897D01*
X018376Y014362D01*
X018626Y014612D01*
X018626Y015001D01*
X018541Y015086D01*
X018771Y015086D01*
X018686Y015001D01*
X018686Y014612D01*
X018961Y014336D01*
X019351Y014336D01*
X019626Y014612D01*
X019626Y015001D01*
X019541Y015086D01*
X019771Y015086D01*
X019686Y015001D01*
X019686Y014612D01*
X019961Y014336D01*
X020351Y014336D01*
X020626Y014612D01*
X020626Y015001D01*
X020541Y015086D01*
X020771Y015086D01*
X020686Y015001D01*
X020686Y014612D01*
X020961Y014336D01*
X021351Y014336D01*
X021626Y014612D01*
X021626Y015001D01*
X021541Y015086D01*
X021771Y015086D01*
X021686Y015001D01*
X021686Y014612D01*
X021961Y014336D01*
X022351Y014336D01*
X022626Y014612D01*
X022626Y015001D01*
X022541Y015086D01*
X022771Y015086D01*
X022686Y015001D01*
X022686Y014612D01*
X022961Y014336D01*
X023351Y014336D01*
X023626Y014612D01*
X023626Y015001D01*
X023541Y015086D01*
X023771Y015086D01*
X023686Y015001D01*
X023686Y014612D01*
X023961Y014336D01*
X024351Y014336D01*
X024626Y014612D01*
X024626Y015001D01*
X024541Y015086D01*
X024771Y015086D01*
X024686Y015001D01*
X024686Y014612D01*
X024961Y014336D01*
X025351Y014336D01*
X025626Y014612D01*
X025626Y015001D01*
X025541Y015086D01*
X025771Y015086D01*
X025686Y015001D01*
X025686Y014612D01*
X025961Y014336D01*
X026351Y014336D01*
X026626Y014612D01*
X026626Y015001D01*
X026541Y015086D01*
X026771Y015086D01*
X026686Y015001D01*
X026686Y014612D01*
X026961Y014336D01*
X027351Y014336D01*
X027626Y014612D01*
X027626Y015001D01*
X027541Y015086D01*
X027771Y015086D01*
X027686Y015001D01*
X027686Y014612D01*
X027961Y014336D01*
X028351Y014336D01*
X028626Y014612D01*
X028626Y015001D01*
X028541Y015086D01*
X032065Y015086D01*
X032243Y015086D01*
X032166Y015009D01*
X032166Y014603D01*
X032453Y014316D01*
X032859Y014316D01*
X033146Y014603D01*
X033146Y015009D01*
X032859Y015296D01*
X032457Y015296D01*
X032477Y015316D01*
X032859Y015316D01*
X033146Y015603D01*
X033146Y016009D01*
X033069Y016086D01*
X033243Y016086D01*
X033166Y016009D01*
X033166Y015603D01*
X033453Y015316D01*
X033859Y015316D01*
X034146Y015603D01*
X034146Y016009D01*
X033859Y016296D01*
X033457Y016296D01*
X033477Y016316D01*
X033859Y016316D01*
X034146Y016603D01*
X034146Y017009D01*
X033859Y017296D01*
X033457Y017296D01*
X033477Y017316D01*
X033859Y017316D01*
X034146Y017603D01*
X034146Y018009D01*
X033859Y018296D01*
X033457Y018296D01*
X033477Y018316D01*
X033859Y018316D01*
X034146Y018603D01*
X034146Y019009D01*
X033859Y019296D01*
X033453Y019296D01*
X033166Y019009D01*
X033166Y018627D01*
X033146Y018607D01*
X033146Y019009D01*
X032859Y019296D01*
X032457Y019296D01*
X032477Y019316D01*
X032859Y019316D01*
X033146Y019603D01*
X033146Y020005D01*
X033166Y019985D01*
X033166Y019603D01*
X033453Y019316D01*
X033859Y019316D01*
X034146Y019603D01*
X034146Y020009D01*
X033859Y020296D01*
X033477Y020296D01*
X033457Y020316D01*
X033859Y020316D01*
X034146Y020603D01*
X034146Y021009D01*
X033859Y021296D01*
X033453Y021296D01*
X033166Y021009D01*
X033166Y020603D01*
X033243Y020526D01*
X033069Y020526D01*
X033146Y020603D01*
X033146Y021009D01*
X032859Y021296D01*
X032453Y021296D01*
X032166Y021009D01*
X032166Y020603D01*
X032243Y020526D01*
X032065Y020526D01*
X031936Y020397D01*
X031565Y020026D01*
X031363Y020026D01*
X031609Y020128D01*
X031834Y020353D01*
X031956Y020647D01*
X031956Y020965D01*
X031834Y021259D01*
X031609Y021484D01*
X031315Y021606D01*
X030997Y021606D01*
X030703Y021484D01*
X030478Y021259D01*
X030356Y020965D01*
X030356Y020647D01*
X030478Y020353D01*
X030703Y020128D01*
X030949Y020026D01*
X029826Y020026D01*
X029934Y020071D01*
X030071Y020209D01*
X030146Y020389D01*
X030146Y021224D01*
X030071Y021404D01*
X029934Y021542D01*
X029754Y021616D01*
X029559Y021616D01*
X029378Y021542D01*
X029241Y021404D01*
X029166Y021224D01*
X029166Y020389D01*
X029241Y020209D01*
X029378Y020071D01*
X029486Y020026D01*
X028826Y020026D01*
X028934Y020071D01*
X029071Y020209D01*
X029146Y020389D01*
X029146Y021224D01*
X029071Y021404D01*
X028934Y021542D01*
X028754Y021616D01*
X028559Y021616D01*
X028378Y021542D01*
X028241Y021404D01*
X028166Y021224D01*
X028166Y020389D01*
X028241Y020209D01*
X028378Y020071D01*
X028486Y020026D01*
X027826Y020026D01*
X027934Y020071D01*
X028071Y020209D01*
X028146Y020389D01*
X028146Y021224D01*
X028071Y021404D01*
X027934Y021542D01*
X027754Y021616D01*
X027559Y021616D01*
X027378Y021542D01*
X027241Y021404D01*
X027166Y021224D01*
X027166Y020389D01*
X027241Y020209D01*
X027378Y020071D01*
X027486Y020026D01*
X026826Y020026D01*
X026934Y020071D01*
X027071Y020209D01*
X027146Y020389D01*
X027146Y021224D01*
X027071Y021404D01*
X026934Y021542D01*
X026754Y021616D01*
X026559Y021616D01*
X026378Y021542D01*
X026241Y021404D01*
X026166Y021224D01*
X026166Y020389D01*
X026241Y020209D01*
X026378Y020071D01*
X026486Y020026D01*
X025826Y020026D01*
X025934Y020071D01*
X026071Y020209D01*
X026146Y020389D01*
X026146Y021224D01*
X026071Y021404D01*
X025934Y021542D01*
X025754Y021616D01*
X025559Y021616D01*
X025378Y021542D01*
X025241Y021404D01*
X025166Y021224D01*
X025166Y020389D01*
X025241Y020209D01*
X025378Y020071D01*
X025486Y020026D01*
X024826Y020026D01*
X024934Y020071D01*
X025071Y020209D01*
X025146Y020389D01*
X025146Y021224D01*
X025071Y021404D01*
X024934Y021542D01*
X024754Y021616D01*
X024559Y021616D01*
X024378Y021542D01*
X024241Y021404D01*
X024166Y021224D01*
X024166Y020389D01*
X024241Y020209D01*
X024378Y020071D01*
X024486Y020026D01*
X023826Y020026D01*
X023934Y020071D01*
X024071Y020209D01*
X024146Y020389D01*
X024146Y021224D01*
X024071Y021404D01*
X023934Y021542D01*
X023754Y021616D01*
X023559Y021616D01*
X023378Y021542D01*
X023241Y021404D01*
X023166Y021224D01*
X023166Y020389D01*
X023241Y020209D01*
X023378Y020071D01*
X023486Y020026D01*
X022826Y020026D01*
X022934Y020071D01*
X023071Y020209D01*
X023146Y020389D01*
X023146Y021224D01*
X023071Y021404D01*
X022934Y021542D01*
X022754Y021616D01*
X022559Y021616D01*
X022378Y021542D01*
X022241Y021404D01*
X022166Y021224D01*
X022166Y020389D01*
X022241Y020209D01*
X022378Y020071D01*
X022486Y020026D01*
X020826Y020026D01*
X020934Y020071D01*
X021071Y020209D01*
X021146Y020389D01*
X021146Y021224D01*
X021071Y021404D01*
X020934Y021542D01*
X020754Y021616D01*
X020559Y021616D01*
X020378Y021542D01*
X020241Y021404D01*
X020166Y021224D01*
X020166Y020389D01*
X020241Y020209D01*
X020378Y020071D01*
X020486Y020026D01*
X019826Y020026D01*
X019934Y020071D01*
X020071Y020209D01*
X020146Y020389D01*
X020146Y021224D01*
X020071Y021404D01*
X019934Y021542D01*
X019754Y021616D01*
X019559Y021616D01*
X019378Y021542D01*
X019241Y021404D01*
X019166Y021224D01*
X019166Y020389D01*
X019241Y020209D01*
X019378Y020071D01*
X019486Y020026D01*
X018826Y020026D01*
X018934Y020071D01*
X019071Y020209D01*
X019146Y020389D01*
X019146Y021224D01*
X019071Y021404D01*
X018934Y021542D01*
X018754Y021616D01*
X018559Y021616D01*
X018378Y021542D01*
X018241Y021404D01*
X018166Y021224D01*
X018166Y020389D01*
X018241Y020209D01*
X018378Y020071D01*
X018486Y020026D01*
X017826Y020026D01*
X017934Y020071D01*
X018071Y020209D01*
X018146Y020389D01*
X018146Y021224D01*
X018071Y021404D01*
X017934Y021542D01*
X017754Y021616D01*
X017559Y021616D01*
X017378Y021542D01*
X017241Y021404D01*
X017166Y021224D01*
X017166Y020389D01*
X017241Y020209D01*
X017378Y020071D01*
X017486Y020026D01*
X016826Y020026D01*
X016934Y020071D01*
X017071Y020209D01*
X017146Y020389D01*
X017146Y021224D01*
X017071Y021404D01*
X016934Y021542D01*
X016754Y021616D01*
X016559Y021616D01*
X016378Y021542D01*
X016241Y021404D01*
X016166Y021224D01*
X016166Y020389D01*
X016241Y020209D01*
X016378Y020071D01*
X016486Y020026D01*
X015826Y020026D01*
X015934Y020071D01*
X016071Y020209D01*
X016146Y020389D01*
X016146Y021224D01*
X016071Y021404D01*
X015934Y021542D01*
X015754Y021616D01*
X015559Y021616D01*
X015378Y021542D01*
X015241Y021404D01*
X015166Y021224D01*
X015166Y020389D01*
X015241Y020209D01*
X015378Y020071D01*
X015486Y020026D01*
X014826Y020026D01*
X014934Y020071D01*
X015071Y020209D01*
X015146Y020389D01*
X015146Y021224D01*
X015071Y021404D01*
X014934Y021542D01*
X014754Y021616D01*
X014559Y021616D01*
X014378Y021542D01*
X014241Y021404D01*
X014166Y021224D01*
X014166Y020389D01*
X014241Y020209D01*
X014378Y020071D01*
X014486Y020026D01*
X013826Y020026D01*
X013934Y020071D01*
X014071Y020209D01*
X014146Y020389D01*
X014146Y021224D01*
X014071Y021404D01*
X013934Y021542D01*
X013754Y021616D01*
X013559Y021616D01*
X013378Y021542D01*
X013241Y021404D01*
X013166Y021224D01*
X013166Y020389D01*
X013241Y020209D01*
X013378Y020071D01*
X013486Y020026D01*
X012326Y020026D01*
X012434Y020071D01*
X012571Y020209D01*
X012646Y020389D01*
X012646Y021224D01*
X012571Y021404D01*
X012434Y021542D01*
X012254Y021616D01*
X012059Y021616D01*
X011878Y021542D01*
X011741Y021404D01*
X011666Y021224D01*
X011666Y020389D01*
X011741Y020209D01*
X011878Y020071D01*
X011986Y020026D01*
X011326Y020026D01*
X011434Y020071D01*
X011571Y020209D01*
X011646Y020389D01*
X011646Y021224D01*
X011571Y021404D01*
X011434Y021542D01*
X011254Y021616D01*
X011059Y021616D01*
X010878Y021542D01*
X010741Y021404D01*
X010666Y021224D01*
X010666Y020389D01*
X010741Y020209D01*
X010878Y020071D01*
X010986Y020026D01*
X010326Y020026D01*
X010434Y020071D01*
X010571Y020209D01*
X010646Y020389D01*
X010646Y021224D01*
X010571Y021404D01*
X010434Y021542D01*
X010254Y021616D01*
X010059Y021616D01*
X009878Y021542D01*
X009741Y021404D01*
X009666Y021224D01*
X009666Y020389D01*
X009741Y020209D01*
X009878Y020071D01*
X009986Y020026D01*
X009326Y020026D01*
X009434Y020071D01*
X009571Y020209D01*
X009646Y020389D01*
X009646Y021224D01*
X009571Y021404D01*
X009434Y021542D01*
X009254Y021616D01*
X009059Y021616D01*
X008878Y021542D01*
X008741Y021404D01*
X008666Y021224D01*
X008666Y020389D01*
X008741Y020209D01*
X008878Y020071D01*
X009042Y020003D01*
X008962Y019924D02*
X000326Y019924D01*
X000326Y019825D02*
X008864Y019825D01*
X008765Y019727D02*
X000326Y019727D01*
X000326Y019628D02*
X008667Y019628D01*
X008568Y019530D02*
X000326Y019530D01*
X000326Y019431D02*
X008470Y019431D01*
X008371Y019332D02*
X000326Y019332D01*
X000326Y019234D02*
X008273Y019234D01*
X008174Y019135D02*
X000326Y019135D01*
X000326Y019037D02*
X008075Y019037D01*
X007977Y018938D02*
X000326Y018938D01*
X000326Y018840D02*
X007878Y018840D01*
X007780Y018741D02*
X000326Y018741D01*
X000326Y018643D02*
X007681Y018643D01*
X007583Y018544D02*
X000326Y018544D01*
X000326Y018446D02*
X007484Y018446D01*
X007386Y018347D02*
X000326Y018347D01*
X000326Y018248D02*
X007287Y018248D01*
X007189Y018150D02*
X000326Y018150D01*
X000326Y018051D02*
X007090Y018051D01*
X006991Y017953D02*
X000326Y017953D01*
X000326Y017854D02*
X006893Y017854D01*
X006794Y017756D02*
X000326Y017756D01*
X000326Y017657D02*
X006696Y017657D01*
X006597Y017559D02*
X000326Y017559D01*
X000326Y017460D02*
X006499Y017460D01*
X006400Y017362D02*
X000326Y017362D01*
X000326Y017263D02*
X006302Y017263D01*
X006203Y017164D02*
X000326Y017164D01*
X000326Y017066D02*
X006105Y017066D01*
X006006Y016967D02*
X000326Y016967D01*
X000326Y016869D02*
X005908Y016869D01*
X005809Y016770D02*
X000326Y016770D01*
X000326Y016672D02*
X005710Y016672D01*
X005612Y016573D02*
X000326Y016573D01*
X000326Y016475D02*
X005513Y016475D01*
X005436Y016376D02*
X000326Y016376D01*
X000326Y016278D02*
X005436Y016278D01*
X005656Y016306D02*
X009156Y019806D01*
X031656Y019806D01*
X032156Y020306D01*
X033156Y020306D01*
X033656Y019806D01*
X033166Y019825D02*
X033146Y019825D01*
X033146Y019727D02*
X033166Y019727D01*
X033166Y019628D02*
X033146Y019628D01*
X033072Y019530D02*
X033240Y019530D01*
X033338Y019431D02*
X032974Y019431D01*
X032875Y019332D02*
X033437Y019332D01*
X033391Y019234D02*
X032921Y019234D01*
X033020Y019135D02*
X033292Y019135D01*
X033194Y019037D02*
X033118Y019037D01*
X033146Y018938D02*
X033166Y018938D01*
X033166Y018840D02*
X033146Y018840D01*
X033146Y018741D02*
X033166Y018741D01*
X033166Y018643D02*
X033146Y018643D01*
X033156Y018306D02*
X033656Y018806D01*
X034020Y019135D02*
X034486Y019135D01*
X034486Y019037D02*
X034118Y019037D01*
X034146Y018938D02*
X034486Y018938D01*
X034486Y018840D02*
X034146Y018840D01*
X034146Y018741D02*
X034486Y018741D01*
X034486Y018643D02*
X034146Y018643D01*
X034087Y018544D02*
X034486Y018544D01*
X034486Y018446D02*
X033988Y018446D01*
X033890Y018347D02*
X034486Y018347D01*
X034486Y018248D02*
X033907Y018248D01*
X034005Y018150D02*
X034486Y018150D01*
X034486Y018051D02*
X034104Y018051D01*
X034146Y017953D02*
X034486Y017953D01*
X034486Y017854D02*
X034146Y017854D01*
X034146Y017756D02*
X034486Y017756D01*
X034486Y017657D02*
X034146Y017657D01*
X034101Y017559D02*
X034486Y017559D01*
X034486Y017460D02*
X034003Y017460D01*
X033904Y017362D02*
X034486Y017362D01*
X034486Y017263D02*
X033892Y017263D01*
X033991Y017164D02*
X034486Y017164D01*
X034486Y017066D02*
X034089Y017066D01*
X034146Y016967D02*
X034486Y016967D01*
X034486Y016869D02*
X034146Y016869D01*
X034146Y016770D02*
X034486Y016770D01*
X034550Y016672D02*
X034146Y016672D01*
X034116Y016573D02*
X034649Y016573D01*
X034747Y016475D02*
X034017Y016475D01*
X033919Y016376D02*
X034846Y016376D01*
X034944Y016278D02*
X033878Y016278D01*
X033976Y016179D02*
X035043Y016179D01*
X035141Y016081D02*
X034075Y016081D01*
X034146Y015982D02*
X035240Y015982D01*
X035339Y015883D02*
X034146Y015883D01*
X034146Y015785D02*
X035437Y015785D01*
X035486Y015686D02*
X034146Y015686D01*
X034130Y015588D02*
X035486Y015588D01*
X035486Y015489D02*
X034032Y015489D01*
X033933Y015391D02*
X035486Y015391D01*
X035486Y015292D02*
X033863Y015292D01*
X033859Y015296D02*
X033453Y015296D01*
X033166Y015009D01*
X033166Y014603D01*
X033453Y014316D01*
X033859Y014316D01*
X034146Y014603D01*
X034146Y015009D01*
X033859Y015296D01*
X033962Y015194D02*
X035486Y015194D01*
X035486Y015095D02*
X034060Y015095D01*
X034146Y014997D02*
X035486Y014997D01*
X035486Y014898D02*
X034146Y014898D01*
X034146Y014799D02*
X035486Y014799D01*
X035486Y014701D02*
X034146Y014701D01*
X034145Y014602D02*
X035486Y014602D01*
X035486Y014504D02*
X034046Y014504D01*
X033948Y014405D02*
X035486Y014405D01*
X035486Y014307D02*
X018376Y014307D01*
X018376Y014208D02*
X032365Y014208D01*
X032453Y014296D02*
X032166Y014009D01*
X032166Y013603D01*
X032453Y013316D01*
X032859Y013316D01*
X033146Y013603D01*
X033146Y014009D01*
X032859Y014296D01*
X032453Y014296D01*
X032364Y014405D02*
X028420Y014405D01*
X028518Y014504D02*
X032266Y014504D01*
X032167Y014602D02*
X028617Y014602D01*
X028626Y014701D02*
X032166Y014701D01*
X032166Y014799D02*
X028626Y014799D01*
X028626Y014898D02*
X032166Y014898D01*
X032166Y014997D02*
X028626Y014997D01*
X027686Y014997D02*
X027626Y014997D01*
X027626Y014898D02*
X027686Y014898D01*
X027686Y014799D02*
X027626Y014799D01*
X027626Y014701D02*
X027686Y014701D01*
X027695Y014602D02*
X027617Y014602D01*
X027518Y014504D02*
X027794Y014504D01*
X027892Y014405D02*
X027420Y014405D01*
X026892Y014405D02*
X026420Y014405D01*
X026518Y014504D02*
X026794Y014504D01*
X026695Y014602D02*
X026617Y014602D01*
X026626Y014701D02*
X026686Y014701D01*
X026686Y014799D02*
X026626Y014799D01*
X026626Y014898D02*
X026686Y014898D01*
X026686Y014997D02*
X026626Y014997D01*
X025892Y014405D02*
X025420Y014405D01*
X025518Y014504D02*
X025794Y014504D01*
X025695Y014602D02*
X025617Y014602D01*
X025626Y014701D02*
X025686Y014701D01*
X025686Y014799D02*
X025626Y014799D01*
X025626Y014898D02*
X025686Y014898D01*
X025686Y014997D02*
X025626Y014997D01*
X024686Y014997D02*
X024626Y014997D01*
X024626Y014898D02*
X024686Y014898D01*
X024686Y014799D02*
X024626Y014799D01*
X024626Y014701D02*
X024686Y014701D01*
X024695Y014602D02*
X024617Y014602D01*
X024518Y014504D02*
X024794Y014504D01*
X024892Y014405D02*
X024420Y014405D01*
X023892Y014405D02*
X023420Y014405D01*
X023518Y014504D02*
X023794Y014504D01*
X023695Y014602D02*
X023617Y014602D01*
X023626Y014701D02*
X023686Y014701D01*
X023686Y014799D02*
X023626Y014799D01*
X023626Y014898D02*
X023686Y014898D01*
X023686Y014997D02*
X023626Y014997D01*
X022892Y014405D02*
X022420Y014405D01*
X022518Y014504D02*
X022794Y014504D01*
X022695Y014602D02*
X022617Y014602D01*
X022626Y014701D02*
X022686Y014701D01*
X022686Y014799D02*
X022626Y014799D01*
X022626Y014898D02*
X022686Y014898D01*
X022686Y014997D02*
X022626Y014997D01*
X021686Y014997D02*
X021626Y014997D01*
X021626Y014898D02*
X021686Y014898D01*
X021686Y014799D02*
X021626Y014799D01*
X021626Y014701D02*
X021686Y014701D01*
X021695Y014602D02*
X021617Y014602D01*
X021518Y014504D02*
X021794Y014504D01*
X021892Y014405D02*
X021420Y014405D01*
X020892Y014405D02*
X020420Y014405D01*
X020518Y014504D02*
X020794Y014504D01*
X020695Y014602D02*
X020617Y014602D01*
X020626Y014701D02*
X020686Y014701D01*
X020686Y014799D02*
X020626Y014799D01*
X020626Y014898D02*
X020686Y014898D01*
X020686Y014997D02*
X020626Y014997D01*
X019892Y014405D02*
X019420Y014405D01*
X019518Y014504D02*
X019794Y014504D01*
X019695Y014602D02*
X019617Y014602D01*
X019626Y014701D02*
X019686Y014701D01*
X019686Y014799D02*
X019626Y014799D01*
X019626Y014898D02*
X019686Y014898D01*
X019686Y014997D02*
X019626Y014997D01*
X018892Y014405D02*
X018420Y014405D01*
X018518Y014504D02*
X018794Y014504D01*
X018695Y014602D02*
X018617Y014602D01*
X018626Y014701D02*
X018686Y014701D01*
X018686Y014799D02*
X018626Y014799D01*
X018626Y014898D02*
X018686Y014898D01*
X018686Y014997D02*
X018626Y014997D01*
X018156Y014806D02*
X018156Y011806D01*
X018656Y011306D01*
X033156Y011306D01*
X033656Y011806D01*
X033992Y011449D02*
X035486Y011449D01*
X035486Y011548D02*
X034090Y011548D01*
X034146Y011646D02*
X035486Y011646D01*
X035486Y011745D02*
X034146Y011745D01*
X034146Y011843D02*
X035486Y011843D01*
X035486Y011942D02*
X034146Y011942D01*
X034115Y012040D02*
X035486Y012040D01*
X035486Y012139D02*
X034016Y012139D01*
X033918Y012237D02*
X035486Y012237D01*
X035486Y012336D02*
X033879Y012336D01*
X033859Y012316D02*
X034146Y012603D01*
X034146Y013009D01*
X033859Y013296D01*
X033453Y013296D01*
X033166Y013009D01*
X033166Y012603D01*
X033453Y012316D01*
X033859Y012316D01*
X033977Y012434D02*
X035486Y012434D01*
X035486Y012533D02*
X034076Y012533D01*
X034146Y012631D02*
X035486Y012631D01*
X035486Y012730D02*
X034146Y012730D01*
X034146Y012829D02*
X035486Y012829D01*
X035486Y012927D02*
X034146Y012927D01*
X034130Y013026D02*
X035486Y013026D01*
X035486Y013124D02*
X034031Y013124D01*
X033932Y013223D02*
X035486Y013223D01*
X035486Y013321D02*
X033864Y013321D01*
X033859Y013316D02*
X034146Y013603D01*
X034146Y014009D01*
X033859Y014296D01*
X033453Y014296D01*
X033166Y014009D01*
X033166Y013603D01*
X033453Y013316D01*
X033859Y013316D01*
X033963Y013420D02*
X035486Y013420D01*
X035486Y013518D02*
X034061Y013518D01*
X034146Y013617D02*
X035486Y013617D01*
X035486Y013715D02*
X034146Y013715D01*
X034146Y013814D02*
X035486Y013814D01*
X035486Y013913D02*
X034146Y013913D01*
X034144Y014011D02*
X035486Y014011D01*
X035486Y014110D02*
X034046Y014110D01*
X033947Y014208D02*
X035486Y014208D01*
X033448Y013321D02*
X032864Y013321D01*
X032859Y013296D02*
X032453Y013296D01*
X032166Y013009D01*
X032166Y012603D01*
X032453Y012316D01*
X032859Y012316D01*
X033146Y012603D01*
X033146Y013009D01*
X032859Y013296D01*
X032932Y013223D02*
X033380Y013223D01*
X033281Y013124D02*
X033031Y013124D01*
X033130Y013026D02*
X033183Y013026D01*
X033166Y012927D02*
X033146Y012927D01*
X033146Y012829D02*
X033166Y012829D01*
X033166Y012730D02*
X033146Y012730D01*
X033146Y012631D02*
X033166Y012631D01*
X033236Y012533D02*
X033076Y012533D01*
X032977Y012434D02*
X033335Y012434D01*
X033434Y012336D02*
X032879Y012336D01*
X032918Y012237D02*
X033394Y012237D01*
X033296Y012139D02*
X033016Y012139D01*
X033115Y012040D02*
X033197Y012040D01*
X033166Y011942D02*
X033146Y011942D01*
X033146Y011843D02*
X033166Y011843D01*
X033166Y011745D02*
X033146Y011745D01*
X033146Y011646D02*
X033166Y011646D01*
X033893Y011350D02*
X035486Y011350D01*
X035486Y011252D02*
X033903Y011252D01*
X034002Y011153D02*
X035486Y011153D01*
X035486Y011055D02*
X034100Y011055D01*
X034146Y010956D02*
X035486Y010956D01*
X035486Y010858D02*
X034146Y010858D01*
X034146Y010759D02*
X035486Y010759D01*
X035486Y010661D02*
X034146Y010661D01*
X034105Y010562D02*
X035486Y010562D01*
X035486Y010464D02*
X034006Y010464D01*
X033908Y010365D02*
X035486Y010365D01*
X035486Y010266D02*
X033889Y010266D01*
X033987Y010168D02*
X035486Y010168D01*
X035486Y010069D02*
X034086Y010069D01*
X034146Y009971D02*
X035486Y009971D01*
X035486Y009872D02*
X034146Y009872D01*
X034146Y009774D02*
X035486Y009774D01*
X035486Y009675D02*
X034146Y009675D01*
X034119Y009577D02*
X035486Y009577D01*
X035486Y009478D02*
X034021Y009478D01*
X033922Y009380D02*
X035486Y009380D01*
X035486Y009281D02*
X033874Y009281D01*
X033859Y009296D02*
X033453Y009296D01*
X033166Y009009D01*
X033166Y008603D01*
X033453Y008316D01*
X033859Y008316D01*
X034146Y008603D01*
X034146Y009009D01*
X033859Y009296D01*
X033973Y009182D02*
X035486Y009182D01*
X035486Y009084D02*
X034071Y009084D01*
X034146Y008985D02*
X035486Y008985D01*
X035486Y008887D02*
X034146Y008887D01*
X034146Y008788D02*
X035486Y008788D01*
X035486Y008690D02*
X034146Y008690D01*
X034134Y008591D02*
X035486Y008591D01*
X035486Y008493D02*
X034035Y008493D01*
X033937Y008394D02*
X035486Y008394D01*
X035486Y008296D02*
X033860Y008296D01*
X033859Y008296D02*
X033453Y008296D01*
X033166Y008009D01*
X033166Y007603D01*
X033453Y007316D01*
X033859Y007316D01*
X034146Y007603D01*
X034146Y008009D01*
X033859Y008296D01*
X033958Y008197D02*
X035486Y008197D01*
X035486Y008099D02*
X034057Y008099D01*
X034146Y008000D02*
X035486Y008000D01*
X035486Y007901D02*
X034146Y007901D01*
X034146Y007803D02*
X035486Y007803D01*
X035486Y007704D02*
X034146Y007704D01*
X034146Y007606D02*
X035486Y007606D01*
X035486Y007507D02*
X034050Y007507D01*
X033951Y007409D02*
X035486Y007409D01*
X035486Y007310D02*
X000326Y007310D01*
X000326Y007212D02*
X011897Y007212D01*
X011961Y007276D02*
X011686Y007001D01*
X011686Y006612D01*
X011961Y006336D01*
X012351Y006336D01*
X012626Y006612D01*
X012626Y007001D01*
X012351Y007276D01*
X011961Y007276D01*
X011961Y007336D02*
X012351Y007336D01*
X012626Y007612D01*
X012626Y008001D01*
X012351Y008276D01*
X011961Y008276D01*
X011686Y008001D01*
X011686Y007612D01*
X011961Y007336D01*
X011889Y007409D02*
X000326Y007409D01*
X000326Y007507D02*
X011790Y007507D01*
X011692Y007606D02*
X000326Y007606D01*
X000326Y007704D02*
X011686Y007704D01*
X011686Y007803D02*
X000326Y007803D01*
X000326Y007901D02*
X011686Y007901D01*
X011686Y008000D02*
X000326Y008000D01*
X000326Y008099D02*
X011784Y008099D01*
X011882Y008197D02*
X000326Y008197D01*
X000326Y008296D02*
X032452Y008296D01*
X032453Y008296D02*
X032166Y008009D01*
X032166Y007603D01*
X032453Y007316D01*
X032859Y007316D01*
X033146Y007603D01*
X033146Y008009D01*
X032859Y008296D01*
X032453Y008296D01*
X032453Y008316D02*
X032859Y008316D01*
X033146Y008603D01*
X033146Y009009D01*
X032859Y009296D01*
X032453Y009296D01*
X032166Y009009D01*
X032166Y008603D01*
X032453Y008316D01*
X032375Y008394D02*
X000326Y008394D01*
X000326Y008493D02*
X032277Y008493D01*
X032178Y008591D02*
X000326Y008591D01*
X000326Y008690D02*
X032166Y008690D01*
X032166Y008788D02*
X000326Y008788D01*
X000326Y008887D02*
X032166Y008887D01*
X032166Y008985D02*
X000326Y008985D01*
X000326Y009084D02*
X032241Y009084D01*
X032339Y009182D02*
X000326Y009182D01*
X000326Y009281D02*
X032438Y009281D01*
X032390Y009380D02*
X000326Y009380D01*
X000326Y009478D02*
X032291Y009478D01*
X032193Y009577D02*
X000326Y009577D01*
X000326Y009675D02*
X032166Y009675D01*
X032166Y009774D02*
X000326Y009774D01*
X000326Y009872D02*
X032166Y009872D01*
X032166Y009971D02*
X000326Y009971D01*
X000326Y010069D02*
X032226Y010069D01*
X032656Y010806D02*
X017656Y010806D01*
X017156Y011306D01*
X017156Y014806D01*
X018376Y014110D02*
X032266Y014110D01*
X032168Y014011D02*
X018376Y014011D01*
X018376Y013913D02*
X032166Y013913D01*
X032166Y013814D02*
X018376Y013814D01*
X018376Y013715D02*
X032166Y013715D01*
X032166Y013617D02*
X018376Y013617D01*
X018376Y013518D02*
X032251Y013518D01*
X032350Y013420D02*
X018376Y013420D01*
X018376Y013321D02*
X032448Y013321D01*
X032380Y013223D02*
X018376Y013223D01*
X018376Y013124D02*
X032281Y013124D01*
X032183Y013026D02*
X018376Y013026D01*
X018376Y012927D02*
X032166Y012927D01*
X032166Y012829D02*
X018376Y012829D01*
X018376Y012730D02*
X032166Y012730D01*
X032166Y012631D02*
X018376Y012631D01*
X018376Y012533D02*
X032236Y012533D01*
X032335Y012434D02*
X018376Y012434D01*
X018376Y012336D02*
X032434Y012336D01*
X032394Y012237D02*
X018376Y012237D01*
X018376Y012139D02*
X032296Y012139D01*
X032197Y012040D02*
X018376Y012040D01*
X018376Y011942D02*
X032166Y011942D01*
X032166Y011843D02*
X018430Y011843D01*
X018529Y011745D02*
X032166Y011745D01*
X032166Y011646D02*
X018627Y011646D01*
X018726Y011548D02*
X032222Y011548D01*
X033156Y010306D02*
X033656Y010806D01*
X033156Y010306D02*
X016156Y010306D01*
X015156Y011306D01*
X015156Y014806D01*
X014794Y014504D02*
X014518Y014504D01*
X014420Y014405D02*
X014892Y014405D01*
X014936Y014307D02*
X000326Y014307D01*
X000326Y014405D02*
X003892Y014405D01*
X003961Y014336D02*
X003686Y014612D01*
X003686Y015001D01*
X003961Y015276D01*
X004351Y015276D01*
X004626Y015001D01*
X004626Y014612D01*
X004351Y014336D01*
X003961Y014336D01*
X003794Y014504D02*
X000326Y014504D01*
X000326Y014602D02*
X003695Y014602D01*
X003686Y014701D02*
X000326Y014701D01*
X000326Y014799D02*
X003686Y014799D01*
X003686Y014898D02*
X000326Y014898D01*
X000326Y014997D02*
X003686Y014997D01*
X003780Y015095D02*
X000326Y015095D01*
X000326Y015194D02*
X003879Y015194D01*
X003961Y015336D02*
X004351Y015336D01*
X004626Y015612D01*
X004626Y016001D01*
X004351Y016276D01*
X003961Y016276D01*
X003686Y016001D01*
X003686Y015612D01*
X003961Y015336D01*
X003907Y015391D02*
X000326Y015391D01*
X000326Y015489D02*
X003808Y015489D01*
X003710Y015588D02*
X000326Y015588D01*
X000326Y015686D02*
X003686Y015686D01*
X003686Y015785D02*
X000326Y015785D01*
X000326Y015883D02*
X003686Y015883D01*
X003686Y015982D02*
X000326Y015982D01*
X000326Y016081D02*
X003766Y016081D01*
X003864Y016179D02*
X000326Y016179D01*
X000326Y015292D02*
X005331Y015292D01*
X005405Y015391D02*
X005429Y015391D01*
X005656Y015306D02*
X005656Y016306D01*
X004864Y016179D02*
X004448Y016179D01*
X004546Y016081D02*
X004766Y016081D01*
X004686Y015982D02*
X004626Y015982D01*
X004626Y015883D02*
X004686Y015883D01*
X004686Y015785D02*
X004626Y015785D01*
X004626Y015686D02*
X004686Y015686D01*
X004710Y015588D02*
X004602Y015588D01*
X004504Y015489D02*
X004808Y015489D01*
X004907Y015391D02*
X004405Y015391D01*
X004433Y015194D02*
X004879Y015194D01*
X004780Y015095D02*
X004532Y015095D01*
X004626Y014997D02*
X004686Y014997D01*
X004686Y014898D02*
X004626Y014898D01*
X004626Y014799D02*
X004686Y014799D01*
X004686Y014701D02*
X004626Y014701D01*
X004617Y014602D02*
X004695Y014602D01*
X004794Y014504D02*
X004518Y014504D01*
X004420Y014405D02*
X004892Y014405D01*
X005156Y014806D02*
X005656Y015306D01*
X005876Y015292D02*
X006331Y015292D01*
X006405Y015391D02*
X006429Y015391D01*
X006656Y015306D02*
X006656Y016306D01*
X009656Y019306D01*
X032156Y019306D01*
X032656Y019806D01*
X033146Y019924D02*
X033166Y019924D01*
X033861Y020318D02*
X034486Y020318D01*
X034486Y020416D02*
X033959Y020416D01*
X034058Y020515D02*
X034486Y020515D01*
X034486Y020614D02*
X034146Y020614D01*
X034146Y020712D02*
X034486Y020712D01*
X034411Y020811D02*
X034146Y020811D01*
X034146Y020909D02*
X034313Y020909D01*
X034214Y021008D02*
X034146Y021008D01*
X034116Y021106D02*
X034049Y021106D01*
X034017Y021205D02*
X033950Y021205D01*
X033919Y021303D02*
X031790Y021303D01*
X031857Y021205D02*
X032362Y021205D01*
X032263Y021106D02*
X031898Y021106D01*
X031938Y021008D02*
X032166Y021008D01*
X032166Y020909D02*
X031956Y020909D01*
X031956Y020811D02*
X032166Y020811D01*
X032166Y020712D02*
X031956Y020712D01*
X031942Y020614D02*
X032166Y020614D01*
X032054Y020515D02*
X031901Y020515D01*
X031860Y020416D02*
X031955Y020416D01*
X031857Y020318D02*
X031799Y020318D01*
X031758Y020219D02*
X031700Y020219D01*
X031659Y020121D02*
X031591Y020121D01*
X030721Y020121D02*
X029984Y020121D01*
X030076Y020219D02*
X030612Y020219D01*
X030513Y020318D02*
X030117Y020318D01*
X030146Y020416D02*
X030452Y020416D01*
X030411Y020515D02*
X030146Y020515D01*
X030146Y020614D02*
X030370Y020614D01*
X030356Y020712D02*
X030146Y020712D01*
X030146Y020811D02*
X030356Y020811D01*
X030356Y020909D02*
X030146Y020909D01*
X030146Y021008D02*
X030374Y021008D01*
X030414Y021106D02*
X030146Y021106D01*
X030146Y021205D02*
X030455Y021205D01*
X030522Y021303D02*
X030113Y021303D01*
X030072Y021402D02*
X030620Y021402D01*
X030742Y021500D02*
X029975Y021500D01*
X029795Y021599D02*
X030979Y021599D01*
X031333Y021599D02*
X033623Y021599D01*
X033722Y021500D02*
X031571Y021500D01*
X031692Y021402D02*
X033820Y021402D01*
X033362Y021205D02*
X032950Y021205D01*
X033049Y021106D02*
X033263Y021106D01*
X033166Y021008D02*
X033146Y021008D01*
X033146Y020909D02*
X033166Y020909D01*
X033166Y020811D02*
X033146Y020811D01*
X033146Y020712D02*
X033166Y020712D01*
X033166Y020614D02*
X033146Y020614D01*
X033936Y020219D02*
X034486Y020219D01*
X034486Y020121D02*
X034034Y020121D01*
X034133Y020022D02*
X034486Y020022D01*
X034486Y019924D02*
X034146Y019924D01*
X034146Y019825D02*
X034486Y019825D01*
X034486Y019727D02*
X034146Y019727D01*
X034146Y019628D02*
X034486Y019628D01*
X034486Y019530D02*
X034072Y019530D01*
X033974Y019431D02*
X034486Y019431D01*
X034486Y019332D02*
X033875Y019332D01*
X033921Y019234D02*
X034486Y019234D01*
X033156Y018306D02*
X010656Y018306D01*
X008656Y016306D01*
X008656Y015306D01*
X008156Y014806D01*
X008626Y014799D02*
X008686Y014799D01*
X008686Y014701D02*
X008626Y014701D01*
X008617Y014602D02*
X008695Y014602D01*
X008794Y014504D02*
X008518Y014504D01*
X008420Y014405D02*
X008892Y014405D01*
X009156Y014806D02*
X009656Y015306D01*
X009656Y016306D01*
X011156Y017806D01*
X032656Y017806D01*
X032211Y017559D02*
X011220Y017559D01*
X011121Y017460D02*
X012499Y017460D01*
X012400Y017362D02*
X011022Y017362D01*
X010924Y017263D02*
X012302Y017263D01*
X012203Y017164D02*
X010825Y017164D01*
X010727Y017066D02*
X012105Y017066D01*
X012006Y016967D02*
X010628Y016967D01*
X010530Y016869D02*
X011908Y016869D01*
X011809Y016770D02*
X010431Y016770D01*
X010333Y016672D02*
X011710Y016672D01*
X011612Y016573D02*
X010234Y016573D01*
X010136Y016475D02*
X011513Y016475D01*
X011436Y016376D02*
X010037Y016376D01*
X009938Y016278D02*
X011436Y016278D01*
X011656Y016306D02*
X012656Y017306D01*
X033156Y017306D01*
X033656Y017806D01*
X033656Y016806D02*
X033156Y016306D01*
X013656Y016306D01*
X013656Y015306D01*
X013156Y014806D01*
X012686Y014799D02*
X012626Y014799D01*
X012626Y014701D02*
X012686Y014701D01*
X012695Y014602D02*
X012617Y014602D01*
X012518Y014504D02*
X012794Y014504D01*
X012892Y014405D02*
X012420Y014405D01*
X012156Y014806D02*
X012656Y015306D01*
X012656Y016306D01*
X013156Y016806D01*
X032656Y016806D01*
X033075Y016081D02*
X033237Y016081D01*
X033166Y015982D02*
X033146Y015982D01*
X033146Y015883D02*
X033166Y015883D01*
X033166Y015785D02*
X033146Y015785D01*
X033146Y015686D02*
X033166Y015686D01*
X033182Y015588D02*
X033130Y015588D01*
X033032Y015489D02*
X033280Y015489D01*
X033379Y015391D02*
X032933Y015391D01*
X032863Y015292D02*
X033449Y015292D01*
X033350Y015194D02*
X032962Y015194D01*
X033060Y015095D02*
X033252Y015095D01*
X033166Y014997D02*
X033146Y014997D01*
X033146Y014898D02*
X033166Y014898D01*
X033166Y014799D02*
X033146Y014799D01*
X033146Y014701D02*
X033166Y014701D01*
X033167Y014602D02*
X033145Y014602D01*
X033046Y014504D02*
X033266Y014504D01*
X033364Y014405D02*
X032948Y014405D01*
X032947Y014208D02*
X033365Y014208D01*
X033266Y014110D02*
X033046Y014110D01*
X033144Y014011D02*
X033168Y014011D01*
X033166Y013913D02*
X033146Y013913D01*
X033146Y013814D02*
X033166Y013814D01*
X033166Y013715D02*
X033146Y013715D01*
X033146Y013617D02*
X033166Y013617D01*
X033251Y013518D02*
X033061Y013518D01*
X032963Y013420D02*
X033350Y013420D01*
X032156Y015306D02*
X032656Y015806D01*
X032156Y015306D02*
X014656Y015306D01*
X014156Y014806D01*
X013686Y014799D02*
X013626Y014799D01*
X013626Y014701D02*
X013686Y014701D01*
X013695Y014602D02*
X013617Y014602D01*
X013518Y014504D02*
X013794Y014504D01*
X013892Y014405D02*
X013420Y014405D01*
X013626Y014898D02*
X013686Y014898D01*
X013686Y014997D02*
X013657Y014997D01*
X013756Y015095D02*
X013780Y015095D01*
X013854Y015194D02*
X013879Y015194D01*
X013876Y015292D02*
X014331Y015292D01*
X014405Y015391D02*
X014429Y015391D01*
X014504Y015489D02*
X014528Y015489D01*
X014602Y015588D02*
X014710Y015588D01*
X014686Y015686D02*
X014626Y015686D01*
X014626Y015785D02*
X014686Y015785D01*
X014686Y015883D02*
X014626Y015883D01*
X014626Y015982D02*
X014686Y015982D01*
X014766Y016081D02*
X014546Y016081D01*
X013907Y015391D02*
X013876Y015391D01*
X013429Y015391D02*
X013405Y015391D01*
X013331Y015292D02*
X012876Y015292D01*
X012879Y015194D02*
X012854Y015194D01*
X012780Y015095D02*
X012756Y015095D01*
X012686Y014997D02*
X012657Y014997D01*
X012626Y014898D02*
X012686Y014898D01*
X012331Y015292D02*
X011876Y015292D01*
X011879Y015194D02*
X011854Y015194D01*
X011780Y015095D02*
X011756Y015095D01*
X011686Y014997D02*
X011657Y014997D01*
X011626Y014898D02*
X011686Y014898D01*
X011686Y014799D02*
X011626Y014799D01*
X011626Y014701D02*
X011686Y014701D01*
X011695Y014602D02*
X011617Y014602D01*
X011518Y014504D02*
X011794Y014504D01*
X011892Y014405D02*
X011420Y014405D01*
X011156Y014806D02*
X011656Y015306D01*
X011656Y016306D01*
X010864Y016179D02*
X010448Y016179D01*
X010546Y016081D02*
X010766Y016081D01*
X010686Y015982D02*
X010626Y015982D01*
X010626Y015883D02*
X010686Y015883D01*
X010686Y015785D02*
X010626Y015785D01*
X010626Y015686D02*
X010686Y015686D01*
X010710Y015588D02*
X010602Y015588D01*
X010504Y015489D02*
X010808Y015489D01*
X010907Y015391D02*
X010405Y015391D01*
X010351Y015276D02*
X009961Y015276D01*
X009686Y015001D01*
X009686Y014612D01*
X009961Y014336D01*
X010351Y014336D01*
X010626Y014612D01*
X010626Y015001D01*
X010351Y015276D01*
X010433Y015194D02*
X010879Y015194D01*
X010780Y015095D02*
X010532Y015095D01*
X010626Y014997D02*
X010686Y014997D01*
X010686Y014898D02*
X010626Y014898D01*
X010626Y014799D02*
X010686Y014799D01*
X010686Y014701D02*
X010626Y014701D01*
X010617Y014602D02*
X010695Y014602D01*
X010794Y014504D02*
X010518Y014504D01*
X010420Y014405D02*
X010892Y014405D01*
X011331Y015292D02*
X009876Y015292D01*
X009879Y015194D02*
X009854Y015194D01*
X009780Y015095D02*
X009756Y015095D01*
X009686Y014997D02*
X009657Y014997D01*
X009626Y014898D02*
X009686Y014898D01*
X009686Y014799D02*
X009626Y014799D01*
X009626Y014701D02*
X009686Y014701D01*
X009695Y014602D02*
X009617Y014602D01*
X009518Y014504D02*
X009794Y014504D01*
X009892Y014405D02*
X009420Y014405D01*
X008686Y014898D02*
X008626Y014898D01*
X008657Y014997D02*
X008686Y014997D01*
X008756Y015095D02*
X008780Y015095D01*
X008854Y015194D02*
X008879Y015194D01*
X008876Y015292D02*
X009331Y015292D01*
X009405Y015391D02*
X009429Y015391D01*
X009876Y015391D02*
X009907Y015391D01*
X008907Y015391D02*
X008876Y015391D01*
X008429Y015391D02*
X008405Y015391D01*
X008331Y015292D02*
X007876Y015292D01*
X007879Y015194D02*
X007854Y015194D01*
X007780Y015095D02*
X007756Y015095D01*
X007686Y014997D02*
X007657Y014997D01*
X007626Y014898D02*
X007686Y014898D01*
X007686Y014799D02*
X007626Y014799D01*
X007626Y014701D02*
X007686Y014701D01*
X007695Y014602D02*
X007617Y014602D01*
X007518Y014504D02*
X007794Y014504D01*
X007892Y014405D02*
X007420Y014405D01*
X007156Y014806D02*
X007656Y015306D01*
X007656Y016306D01*
X010156Y018806D01*
X032656Y018806D01*
X029329Y020121D02*
X028984Y020121D01*
X029076Y020219D02*
X029236Y020219D01*
X029195Y020318D02*
X029117Y020318D01*
X029146Y020416D02*
X029166Y020416D01*
X029166Y020515D02*
X029146Y020515D01*
X029146Y020614D02*
X029166Y020614D01*
X029166Y020712D02*
X029146Y020712D01*
X029146Y020811D02*
X029166Y020811D01*
X029166Y020909D02*
X029146Y020909D01*
X029146Y021008D02*
X029166Y021008D01*
X029166Y021106D02*
X029146Y021106D01*
X029146Y021205D02*
X029166Y021205D01*
X029199Y021303D02*
X029113Y021303D01*
X029072Y021402D02*
X029240Y021402D01*
X029337Y021500D02*
X028975Y021500D01*
X028795Y021599D02*
X029517Y021599D01*
X028517Y021599D02*
X027795Y021599D01*
X027975Y021500D02*
X028337Y021500D01*
X028240Y021402D02*
X028072Y021402D01*
X028113Y021303D02*
X028199Y021303D01*
X028166Y021205D02*
X028146Y021205D01*
X028146Y021106D02*
X028166Y021106D01*
X028166Y021008D02*
X028146Y021008D01*
X028146Y020909D02*
X028166Y020909D01*
X028166Y020811D02*
X028146Y020811D01*
X028146Y020712D02*
X028166Y020712D01*
X028166Y020614D02*
X028146Y020614D01*
X028146Y020515D02*
X028166Y020515D01*
X028166Y020416D02*
X028146Y020416D01*
X028117Y020318D02*
X028195Y020318D01*
X028236Y020219D02*
X028076Y020219D01*
X027984Y020121D02*
X028329Y020121D01*
X027329Y020121D02*
X026984Y020121D01*
X027076Y020219D02*
X027236Y020219D01*
X027195Y020318D02*
X027117Y020318D01*
X027146Y020416D02*
X027166Y020416D01*
X027166Y020515D02*
X027146Y020515D01*
X027146Y020614D02*
X027166Y020614D01*
X027166Y020712D02*
X027146Y020712D01*
X027146Y020811D02*
X027166Y020811D01*
X027166Y020909D02*
X027146Y020909D01*
X027146Y021008D02*
X027166Y021008D01*
X027166Y021106D02*
X027146Y021106D01*
X027146Y021205D02*
X027166Y021205D01*
X027199Y021303D02*
X027113Y021303D01*
X027072Y021402D02*
X027240Y021402D01*
X027337Y021500D02*
X026975Y021500D01*
X026795Y021599D02*
X027517Y021599D01*
X026517Y021599D02*
X025795Y021599D01*
X025975Y021500D02*
X026337Y021500D01*
X026240Y021402D02*
X026072Y021402D01*
X026113Y021303D02*
X026199Y021303D01*
X026166Y021205D02*
X026146Y021205D01*
X026146Y021106D02*
X026166Y021106D01*
X026166Y021008D02*
X026146Y021008D01*
X026146Y020909D02*
X026166Y020909D01*
X026166Y020811D02*
X026146Y020811D01*
X026146Y020712D02*
X026166Y020712D01*
X026166Y020614D02*
X026146Y020614D01*
X026146Y020515D02*
X026166Y020515D01*
X026166Y020416D02*
X026146Y020416D01*
X026117Y020318D02*
X026195Y020318D01*
X026236Y020219D02*
X026076Y020219D01*
X025984Y020121D02*
X026329Y020121D01*
X025329Y020121D02*
X024984Y020121D01*
X025076Y020219D02*
X025236Y020219D01*
X025195Y020318D02*
X025117Y020318D01*
X025146Y020416D02*
X025166Y020416D01*
X025166Y020515D02*
X025146Y020515D01*
X025146Y020614D02*
X025166Y020614D01*
X025166Y020712D02*
X025146Y020712D01*
X025146Y020811D02*
X025166Y020811D01*
X025166Y020909D02*
X025146Y020909D01*
X025146Y021008D02*
X025166Y021008D01*
X025166Y021106D02*
X025146Y021106D01*
X025146Y021205D02*
X025166Y021205D01*
X025199Y021303D02*
X025113Y021303D01*
X025072Y021402D02*
X025240Y021402D01*
X025337Y021500D02*
X024975Y021500D01*
X024795Y021599D02*
X025517Y021599D01*
X024517Y021599D02*
X023795Y021599D01*
X023975Y021500D02*
X024337Y021500D01*
X024240Y021402D02*
X024072Y021402D01*
X024113Y021303D02*
X024199Y021303D01*
X024166Y021205D02*
X024146Y021205D01*
X024146Y021106D02*
X024166Y021106D01*
X024166Y021008D02*
X024146Y021008D01*
X024146Y020909D02*
X024166Y020909D01*
X024166Y020811D02*
X024146Y020811D01*
X024146Y020712D02*
X024166Y020712D01*
X024166Y020614D02*
X024146Y020614D01*
X024146Y020515D02*
X024166Y020515D01*
X024166Y020416D02*
X024146Y020416D01*
X024117Y020318D02*
X024195Y020318D01*
X024236Y020219D02*
X024076Y020219D01*
X023984Y020121D02*
X024329Y020121D01*
X023329Y020121D02*
X022984Y020121D01*
X023076Y020219D02*
X023236Y020219D01*
X023195Y020318D02*
X023117Y020318D01*
X023146Y020416D02*
X023166Y020416D01*
X023166Y020515D02*
X023146Y020515D01*
X023146Y020614D02*
X023166Y020614D01*
X023166Y020712D02*
X023146Y020712D01*
X023146Y020811D02*
X023166Y020811D01*
X023166Y020909D02*
X023146Y020909D01*
X023146Y021008D02*
X023166Y021008D01*
X023166Y021106D02*
X023146Y021106D01*
X023146Y021205D02*
X023166Y021205D01*
X023199Y021303D02*
X023113Y021303D01*
X023072Y021402D02*
X023240Y021402D01*
X023337Y021500D02*
X022975Y021500D01*
X022795Y021599D02*
X023517Y021599D01*
X022517Y021599D02*
X020795Y021599D01*
X020975Y021500D02*
X022337Y021500D01*
X022240Y021402D02*
X021072Y021402D01*
X021113Y021303D02*
X022199Y021303D01*
X022166Y021205D02*
X021146Y021205D01*
X021146Y021106D02*
X022166Y021106D01*
X022166Y021008D02*
X021146Y021008D01*
X021146Y020909D02*
X022166Y020909D01*
X022166Y020811D02*
X021146Y020811D01*
X021146Y020712D02*
X022166Y020712D01*
X022166Y020614D02*
X021146Y020614D01*
X021146Y020515D02*
X022166Y020515D01*
X022166Y020416D02*
X021146Y020416D01*
X021117Y020318D02*
X022195Y020318D01*
X022236Y020219D02*
X021076Y020219D01*
X020984Y020121D02*
X022329Y020121D01*
X020329Y020121D02*
X019984Y020121D01*
X020076Y020219D02*
X020236Y020219D01*
X020195Y020318D02*
X020117Y020318D01*
X020146Y020416D02*
X020166Y020416D01*
X020166Y020515D02*
X020146Y020515D01*
X020146Y020614D02*
X020166Y020614D01*
X020166Y020712D02*
X020146Y020712D01*
X020146Y020811D02*
X020166Y020811D01*
X020166Y020909D02*
X020146Y020909D01*
X020146Y021008D02*
X020166Y021008D01*
X020166Y021106D02*
X020146Y021106D01*
X020146Y021205D02*
X020166Y021205D01*
X020199Y021303D02*
X020113Y021303D01*
X020072Y021402D02*
X020240Y021402D01*
X020337Y021500D02*
X019975Y021500D01*
X019795Y021599D02*
X020517Y021599D01*
X019517Y021599D02*
X018795Y021599D01*
X018975Y021500D02*
X019337Y021500D01*
X019240Y021402D02*
X019072Y021402D01*
X019113Y021303D02*
X019199Y021303D01*
X019166Y021205D02*
X019146Y021205D01*
X019146Y021106D02*
X019166Y021106D01*
X019166Y021008D02*
X019146Y021008D01*
X019146Y020909D02*
X019166Y020909D01*
X019166Y020811D02*
X019146Y020811D01*
X019146Y020712D02*
X019166Y020712D01*
X019166Y020614D02*
X019146Y020614D01*
X019146Y020515D02*
X019166Y020515D01*
X019166Y020416D02*
X019146Y020416D01*
X019117Y020318D02*
X019195Y020318D01*
X019236Y020219D02*
X019076Y020219D01*
X018984Y020121D02*
X019329Y020121D01*
X018329Y020121D02*
X017984Y020121D01*
X018076Y020219D02*
X018236Y020219D01*
X018195Y020318D02*
X018117Y020318D01*
X018146Y020416D02*
X018166Y020416D01*
X018166Y020515D02*
X018146Y020515D01*
X018146Y020614D02*
X018166Y020614D01*
X018166Y020712D02*
X018146Y020712D01*
X018146Y020811D02*
X018166Y020811D01*
X018166Y020909D02*
X018146Y020909D01*
X018146Y021008D02*
X018166Y021008D01*
X018166Y021106D02*
X018146Y021106D01*
X018146Y021205D02*
X018166Y021205D01*
X018199Y021303D02*
X018113Y021303D01*
X018072Y021402D02*
X018240Y021402D01*
X018337Y021500D02*
X017975Y021500D01*
X017795Y021599D02*
X018517Y021599D01*
X017517Y021599D02*
X016795Y021599D01*
X016975Y021500D02*
X017337Y021500D01*
X017240Y021402D02*
X017072Y021402D01*
X017113Y021303D02*
X017199Y021303D01*
X017166Y021205D02*
X017146Y021205D01*
X017146Y021106D02*
X017166Y021106D01*
X017166Y021008D02*
X017146Y021008D01*
X017146Y020909D02*
X017166Y020909D01*
X017166Y020811D02*
X017146Y020811D01*
X017146Y020712D02*
X017166Y020712D01*
X017166Y020614D02*
X017146Y020614D01*
X017146Y020515D02*
X017166Y020515D01*
X017166Y020416D02*
X017146Y020416D01*
X017117Y020318D02*
X017195Y020318D01*
X017236Y020219D02*
X017076Y020219D01*
X016984Y020121D02*
X017329Y020121D01*
X016329Y020121D02*
X015984Y020121D01*
X016076Y020219D02*
X016236Y020219D01*
X016195Y020318D02*
X016117Y020318D01*
X016146Y020416D02*
X016166Y020416D01*
X016166Y020515D02*
X016146Y020515D01*
X016146Y020614D02*
X016166Y020614D01*
X016166Y020712D02*
X016146Y020712D01*
X016146Y020811D02*
X016166Y020811D01*
X016166Y020909D02*
X016146Y020909D01*
X016146Y021008D02*
X016166Y021008D01*
X016166Y021106D02*
X016146Y021106D01*
X016146Y021205D02*
X016166Y021205D01*
X016199Y021303D02*
X016113Y021303D01*
X016072Y021402D02*
X016240Y021402D01*
X016337Y021500D02*
X015975Y021500D01*
X015795Y021599D02*
X016517Y021599D01*
X015517Y021599D02*
X014795Y021599D01*
X014975Y021500D02*
X015337Y021500D01*
X015240Y021402D02*
X015072Y021402D01*
X015113Y021303D02*
X015199Y021303D01*
X015166Y021205D02*
X015146Y021205D01*
X015146Y021106D02*
X015166Y021106D01*
X015166Y021008D02*
X015146Y021008D01*
X015146Y020909D02*
X015166Y020909D01*
X015166Y020811D02*
X015146Y020811D01*
X015146Y020712D02*
X015166Y020712D01*
X015166Y020614D02*
X015146Y020614D01*
X015146Y020515D02*
X015166Y020515D01*
X015166Y020416D02*
X015146Y020416D01*
X015117Y020318D02*
X015195Y020318D01*
X015236Y020219D02*
X015076Y020219D01*
X014984Y020121D02*
X015329Y020121D01*
X014329Y020121D02*
X013984Y020121D01*
X014076Y020219D02*
X014236Y020219D01*
X014195Y020318D02*
X014117Y020318D01*
X014146Y020416D02*
X014166Y020416D01*
X014166Y020515D02*
X014146Y020515D01*
X014146Y020614D02*
X014166Y020614D01*
X014166Y020712D02*
X014146Y020712D01*
X014146Y020811D02*
X014166Y020811D01*
X014166Y020909D02*
X014146Y020909D01*
X014146Y021008D02*
X014166Y021008D01*
X014166Y021106D02*
X014146Y021106D01*
X014146Y021205D02*
X014166Y021205D01*
X014199Y021303D02*
X014113Y021303D01*
X014072Y021402D02*
X014240Y021402D01*
X014337Y021500D02*
X013975Y021500D01*
X013795Y021599D02*
X014517Y021599D01*
X013517Y021599D02*
X012295Y021599D01*
X012475Y021500D02*
X013337Y021500D01*
X013240Y021402D02*
X012572Y021402D01*
X012613Y021303D02*
X013199Y021303D01*
X013166Y021205D02*
X012646Y021205D01*
X012646Y021106D02*
X013166Y021106D01*
X013166Y021008D02*
X012646Y021008D01*
X012646Y020909D02*
X013166Y020909D01*
X013166Y020811D02*
X012646Y020811D01*
X012646Y020712D02*
X013166Y020712D01*
X013166Y020614D02*
X012646Y020614D01*
X012646Y020515D02*
X013166Y020515D01*
X013166Y020416D02*
X012646Y020416D01*
X012617Y020318D02*
X013195Y020318D01*
X013236Y020219D02*
X012576Y020219D01*
X012484Y020121D02*
X013329Y020121D01*
X011829Y020121D02*
X011484Y020121D01*
X011576Y020219D02*
X011736Y020219D01*
X011695Y020318D02*
X011617Y020318D01*
X011646Y020416D02*
X011666Y020416D01*
X011666Y020515D02*
X011646Y020515D01*
X011646Y020614D02*
X011666Y020614D01*
X011666Y020712D02*
X011646Y020712D01*
X011646Y020811D02*
X011666Y020811D01*
X011666Y020909D02*
X011646Y020909D01*
X011646Y021008D02*
X011666Y021008D01*
X011666Y021106D02*
X011646Y021106D01*
X011646Y021205D02*
X011666Y021205D01*
X011699Y021303D02*
X011613Y021303D01*
X011572Y021402D02*
X011740Y021402D01*
X011837Y021500D02*
X011475Y021500D01*
X011295Y021599D02*
X012017Y021599D01*
X011017Y021599D02*
X010295Y021599D01*
X010475Y021500D02*
X010837Y021500D01*
X010740Y021402D02*
X010572Y021402D01*
X010613Y021303D02*
X010699Y021303D01*
X010666Y021205D02*
X010646Y021205D01*
X010646Y021106D02*
X010666Y021106D01*
X010666Y021008D02*
X010646Y021008D01*
X010646Y020909D02*
X010666Y020909D01*
X010666Y020811D02*
X010646Y020811D01*
X010646Y020712D02*
X010666Y020712D01*
X010666Y020614D02*
X010646Y020614D01*
X010646Y020515D02*
X010666Y020515D01*
X010666Y020416D02*
X010646Y020416D01*
X010617Y020318D02*
X010695Y020318D01*
X010736Y020219D02*
X010576Y020219D01*
X010484Y020121D02*
X010829Y020121D01*
X009829Y020121D02*
X009484Y020121D01*
X009576Y020219D02*
X009736Y020219D01*
X009695Y020318D02*
X009617Y020318D01*
X009646Y020416D02*
X009666Y020416D01*
X009666Y020515D02*
X009646Y020515D01*
X009646Y020614D02*
X009666Y020614D01*
X009666Y020712D02*
X009646Y020712D01*
X009646Y020811D02*
X009666Y020811D01*
X009666Y020909D02*
X009646Y020909D01*
X009646Y021008D02*
X009666Y021008D01*
X009666Y021106D02*
X009646Y021106D01*
X009646Y021205D02*
X009666Y021205D01*
X009699Y021303D02*
X009613Y021303D01*
X009572Y021402D02*
X009740Y021402D01*
X009837Y021500D02*
X009475Y021500D01*
X009295Y021599D02*
X010017Y021599D01*
X009017Y021599D02*
X008295Y021599D01*
X008475Y021500D02*
X008837Y021500D01*
X008740Y021402D02*
X008572Y021402D01*
X008613Y021303D02*
X008699Y021303D01*
X008666Y021205D02*
X008646Y021205D01*
X008646Y021106D02*
X008666Y021106D01*
X008666Y021008D02*
X008646Y021008D01*
X008646Y020909D02*
X008666Y020909D01*
X008666Y020811D02*
X008646Y020811D01*
X008646Y020712D02*
X008666Y020712D01*
X008666Y020614D02*
X008646Y020614D01*
X008646Y020515D02*
X008666Y020515D01*
X008666Y020416D02*
X008646Y020416D01*
X008617Y020318D02*
X008695Y020318D01*
X008736Y020219D02*
X008576Y020219D01*
X008484Y020121D02*
X008829Y020121D01*
X007829Y020121D02*
X007484Y020121D01*
X007576Y020219D02*
X007736Y020219D01*
X007695Y020318D02*
X007617Y020318D01*
X007646Y020416D02*
X007666Y020416D01*
X007666Y020515D02*
X007646Y020515D01*
X007646Y020614D02*
X007666Y020614D01*
X007666Y020712D02*
X007646Y020712D01*
X007646Y020811D02*
X007666Y020811D01*
X007666Y020909D02*
X007646Y020909D01*
X007646Y021008D02*
X007666Y021008D01*
X007666Y021106D02*
X007646Y021106D01*
X007646Y021205D02*
X007666Y021205D01*
X007699Y021303D02*
X007613Y021303D01*
X007572Y021402D02*
X007740Y021402D01*
X007837Y021500D02*
X007475Y021500D01*
X007295Y021599D02*
X008017Y021599D01*
X007017Y021599D02*
X005295Y021599D01*
X005475Y021500D02*
X005871Y021500D01*
X005850Y021485D02*
X005798Y021432D01*
X005754Y021373D01*
X005721Y021307D01*
X005698Y021236D01*
X005686Y021163D01*
X005686Y020856D01*
X006106Y020856D01*
X006106Y020756D01*
X006206Y020756D01*
X006206Y020856D01*
X006626Y020856D01*
X006626Y021163D01*
X006614Y021236D01*
X006592Y021307D01*
X006558Y021373D01*
X006515Y021432D01*
X006462Y021485D01*
X006402Y021528D01*
X006336Y021562D01*
X006266Y021585D01*
X006206Y021594D01*
X006206Y020856D01*
X006106Y020856D01*
X006106Y021594D01*
X006046Y021585D01*
X005976Y021562D01*
X005910Y021528D01*
X005850Y021485D01*
X005775Y021402D02*
X005572Y021402D01*
X005613Y021303D02*
X005719Y021303D01*
X005693Y021205D02*
X005646Y021205D01*
X005646Y021106D02*
X005686Y021106D01*
X005686Y021008D02*
X005646Y021008D01*
X005646Y020909D02*
X005686Y020909D01*
X005646Y020811D02*
X006106Y020811D01*
X006106Y020756D02*
X005686Y020756D01*
X005686Y020449D01*
X005698Y020376D01*
X005721Y020306D01*
X005754Y020240D01*
X005798Y020180D01*
X005850Y020128D01*
X005910Y020084D01*
X005976Y020051D01*
X006046Y020028D01*
X006106Y020018D01*
X006106Y020756D01*
X006106Y020712D02*
X006206Y020712D01*
X006206Y020614D02*
X006106Y020614D01*
X006106Y020515D02*
X006206Y020515D01*
X006206Y020416D02*
X006106Y020416D01*
X006106Y020318D02*
X006206Y020318D01*
X006206Y020219D02*
X006106Y020219D01*
X006106Y020121D02*
X006206Y020121D01*
X006453Y020121D02*
X006829Y020121D01*
X006736Y020219D02*
X006543Y020219D01*
X006595Y020318D02*
X006695Y020318D01*
X006666Y020416D02*
X006621Y020416D01*
X006626Y020515D02*
X006666Y020515D01*
X006666Y020614D02*
X006626Y020614D01*
X006626Y020712D02*
X006666Y020712D01*
X006666Y020811D02*
X006206Y020811D01*
X006206Y020909D02*
X006106Y020909D01*
X006106Y021008D02*
X006206Y021008D01*
X006206Y021106D02*
X006106Y021106D01*
X006106Y021205D02*
X006206Y021205D01*
X006206Y021303D02*
X006106Y021303D01*
X006106Y021402D02*
X006206Y021402D01*
X006206Y021500D02*
X006106Y021500D01*
X006441Y021500D02*
X006837Y021500D01*
X006740Y021402D02*
X006537Y021402D01*
X006593Y021303D02*
X006699Y021303D01*
X006666Y021205D02*
X006619Y021205D01*
X006626Y021106D02*
X006666Y021106D01*
X006666Y021008D02*
X006626Y021008D01*
X006626Y020909D02*
X006666Y020909D01*
X005686Y020712D02*
X005646Y020712D01*
X005646Y020614D02*
X005686Y020614D01*
X005686Y020515D02*
X005646Y020515D01*
X005646Y020416D02*
X005691Y020416D01*
X005717Y020318D02*
X005617Y020318D01*
X005576Y020219D02*
X005769Y020219D01*
X005860Y020121D02*
X005484Y020121D01*
X004829Y020121D02*
X002091Y020121D01*
X002200Y020219D02*
X004736Y020219D01*
X004695Y020318D02*
X002299Y020318D01*
X002360Y020416D02*
X004666Y020416D01*
X004666Y020515D02*
X002401Y020515D01*
X002442Y020614D02*
X004666Y020614D01*
X004666Y020712D02*
X002456Y020712D01*
X002456Y020811D02*
X004666Y020811D01*
X004666Y020909D02*
X002456Y020909D01*
X002438Y021008D02*
X004666Y021008D01*
X004666Y021106D02*
X002398Y021106D01*
X002357Y021205D02*
X004666Y021205D01*
X004699Y021303D02*
X002290Y021303D01*
X002192Y021402D02*
X004740Y021402D01*
X004837Y021500D02*
X002071Y021500D01*
X001833Y021599D02*
X005017Y021599D01*
X005876Y015391D02*
X005907Y015391D01*
X005879Y015194D02*
X005854Y015194D01*
X005780Y015095D02*
X005756Y015095D01*
X005686Y014997D02*
X005657Y014997D01*
X005626Y014898D02*
X005686Y014898D01*
X005686Y014799D02*
X005626Y014799D01*
X005626Y014701D02*
X005686Y014701D01*
X005695Y014602D02*
X005617Y014602D01*
X005518Y014504D02*
X005794Y014504D01*
X005892Y014405D02*
X005420Y014405D01*
X006156Y014806D02*
X006656Y015306D01*
X006876Y015292D02*
X007331Y015292D01*
X007405Y015391D02*
X007429Y015391D01*
X007876Y015391D02*
X007907Y015391D01*
X006907Y015391D02*
X006876Y015391D01*
X006879Y015194D02*
X006854Y015194D01*
X006780Y015095D02*
X006756Y015095D01*
X006747Y015086D02*
X006747Y015086D01*
X006686Y014997D02*
X006657Y014997D01*
X006626Y014898D02*
X006686Y014898D01*
X006686Y014799D02*
X006626Y014799D01*
X006626Y014701D02*
X006686Y014701D01*
X006695Y014602D02*
X006617Y014602D01*
X006518Y014504D02*
X006794Y014504D01*
X006892Y014405D02*
X006420Y014405D01*
X011405Y015391D02*
X011429Y015391D01*
X011876Y015391D02*
X011907Y015391D01*
X012405Y015391D02*
X012429Y015391D01*
X012876Y015391D02*
X012907Y015391D01*
X014626Y014898D02*
X014686Y014898D01*
X014686Y014997D02*
X014657Y014997D01*
X014626Y014799D02*
X014686Y014799D01*
X014686Y014701D02*
X014626Y014701D01*
X014617Y014602D02*
X014695Y014602D01*
X014936Y014208D02*
X000326Y014208D01*
X000326Y014110D02*
X014936Y014110D01*
X014936Y014011D02*
X000326Y014011D01*
X000326Y013913D02*
X014936Y013913D01*
X014936Y013814D02*
X000326Y013814D01*
X000326Y013715D02*
X014936Y013715D01*
X014936Y013617D02*
X000326Y013617D01*
X000326Y013518D02*
X014936Y013518D01*
X014936Y013420D02*
X000326Y013420D01*
X000326Y013321D02*
X014936Y013321D01*
X014936Y013223D02*
X000326Y013223D01*
X000326Y013124D02*
X014936Y013124D01*
X014936Y013026D02*
X000326Y013026D01*
X000326Y012927D02*
X014936Y012927D01*
X014936Y012829D02*
X000326Y012829D01*
X000326Y012730D02*
X014936Y012730D01*
X014936Y012631D02*
X000326Y012631D01*
X000326Y012533D02*
X014936Y012533D01*
X014936Y012434D02*
X000326Y012434D01*
X000326Y012336D02*
X014936Y012336D01*
X014936Y012237D02*
X000326Y012237D01*
X000326Y012139D02*
X014936Y012139D01*
X014936Y012040D02*
X000326Y012040D01*
X000326Y011942D02*
X014936Y011942D01*
X014936Y011843D02*
X000326Y011843D01*
X000326Y011745D02*
X014936Y011745D01*
X014936Y011646D02*
X000326Y011646D01*
X000326Y011548D02*
X014936Y011548D01*
X014936Y011449D02*
X000326Y011449D01*
X000326Y011350D02*
X014936Y011350D01*
X014936Y011252D02*
X000326Y011252D01*
X000326Y011153D02*
X014998Y011153D01*
X015096Y011055D02*
X000326Y011055D01*
X000326Y010956D02*
X015195Y010956D01*
X015294Y010858D02*
X000326Y010858D01*
X000326Y010759D02*
X015392Y010759D01*
X015491Y010661D02*
X000326Y010661D01*
X000326Y010562D02*
X015589Y010562D01*
X015688Y010464D02*
X000326Y010464D01*
X000326Y010365D02*
X015786Y010365D01*
X015885Y010266D02*
X000326Y010266D01*
X000326Y010168D02*
X015983Y010168D01*
X015961Y008276D02*
X015686Y008001D01*
X015686Y007612D01*
X015961Y007336D01*
X016351Y007336D01*
X016626Y007612D01*
X016626Y008001D01*
X016351Y008276D01*
X015961Y008276D01*
X015882Y008197D02*
X015430Y008197D01*
X015351Y008276D02*
X015626Y008001D01*
X015626Y007612D01*
X015351Y007336D01*
X014961Y007336D01*
X014686Y007612D01*
X014686Y008001D01*
X014961Y008276D01*
X015351Y008276D01*
X015528Y008099D02*
X015784Y008099D01*
X015686Y008000D02*
X015626Y008000D01*
X015626Y007901D02*
X015686Y007901D01*
X015686Y007803D02*
X015626Y007803D01*
X015626Y007704D02*
X015686Y007704D01*
X015692Y007606D02*
X015620Y007606D01*
X015522Y007507D02*
X015790Y007507D01*
X015889Y007409D02*
X015423Y007409D01*
X015351Y007276D02*
X014961Y007276D01*
X014686Y007001D01*
X014686Y006612D01*
X014961Y006336D01*
X015351Y006336D01*
X015626Y006612D01*
X015626Y007001D01*
X015351Y007276D01*
X015415Y007212D02*
X015925Y007212D01*
X015970Y007256D02*
X015706Y006993D01*
X015706Y006846D01*
X016116Y006846D01*
X016116Y006766D01*
X016196Y006766D01*
X016196Y006356D01*
X016342Y006356D01*
X016606Y006620D01*
X016606Y006766D01*
X016196Y006766D01*
X016196Y006846D01*
X016606Y006846D01*
X016606Y006993D01*
X016342Y007256D01*
X016196Y007256D01*
X016196Y006847D01*
X016116Y006847D01*
X016116Y007256D01*
X015970Y007256D01*
X016116Y007212D02*
X016196Y007212D01*
X016196Y007113D02*
X016116Y007113D01*
X016116Y007015D02*
X016196Y007015D01*
X016196Y006916D02*
X016116Y006916D01*
X016116Y006817D02*
X015626Y006817D01*
X015706Y006766D02*
X015706Y006620D01*
X015970Y006356D01*
X016116Y006356D01*
X016116Y006766D01*
X015706Y006766D01*
X015706Y006719D02*
X015626Y006719D01*
X015626Y006620D02*
X015706Y006620D01*
X015804Y006522D02*
X015536Y006522D01*
X015438Y006423D02*
X015903Y006423D01*
X016116Y006423D02*
X016196Y006423D01*
X016196Y006522D02*
X016116Y006522D01*
X016116Y006620D02*
X016196Y006620D01*
X016196Y006719D02*
X016116Y006719D01*
X016196Y006817D02*
X016686Y006817D01*
X016686Y006719D02*
X016606Y006719D01*
X016606Y006620D02*
X016686Y006620D01*
X016686Y006612D02*
X016961Y006336D01*
X017351Y006336D01*
X017626Y006612D01*
X017626Y007001D01*
X017351Y007276D01*
X016961Y007276D01*
X016686Y007001D01*
X016686Y006612D01*
X016776Y006522D02*
X016508Y006522D01*
X016409Y006423D02*
X016874Y006423D01*
X016686Y006916D02*
X016606Y006916D01*
X016584Y007015D02*
X016700Y007015D01*
X016798Y007113D02*
X016486Y007113D01*
X016387Y007212D02*
X016897Y007212D01*
X016970Y007356D02*
X017116Y007356D01*
X017116Y007766D01*
X017196Y007766D01*
X017196Y007356D01*
X017342Y007356D01*
X017606Y007620D01*
X017606Y007766D01*
X017196Y007766D01*
X017196Y007846D01*
X017606Y007846D01*
X017606Y007993D01*
X017342Y008256D01*
X017196Y008256D01*
X017196Y007847D01*
X017116Y007847D01*
X017116Y008256D01*
X016970Y008256D01*
X016706Y007993D01*
X016706Y007846D01*
X017116Y007846D01*
X017116Y007766D01*
X016706Y007766D01*
X016706Y007620D01*
X016970Y007356D01*
X016917Y007409D02*
X016423Y007409D01*
X016522Y007507D02*
X016819Y007507D01*
X016720Y007606D02*
X016620Y007606D01*
X016626Y007704D02*
X016706Y007704D01*
X016626Y007803D02*
X017116Y007803D01*
X017196Y007803D02*
X017686Y007803D01*
X017686Y007901D02*
X017606Y007901D01*
X017599Y008000D02*
X017686Y008000D01*
X017686Y008001D02*
X017686Y007612D01*
X017961Y007336D01*
X018351Y007336D01*
X018626Y007612D01*
X018626Y008001D01*
X018351Y008276D01*
X017961Y008276D01*
X017686Y008001D01*
X017784Y008099D02*
X017500Y008099D01*
X017402Y008197D02*
X017882Y008197D01*
X017686Y007704D02*
X017606Y007704D01*
X017592Y007606D02*
X017692Y007606D01*
X017790Y007507D02*
X017493Y007507D01*
X017395Y007409D02*
X017889Y007409D01*
X017961Y007276D02*
X017686Y007001D01*
X017686Y006612D01*
X017961Y006336D01*
X018351Y006336D01*
X018626Y006612D01*
X018626Y007001D01*
X018351Y007276D01*
X017961Y007276D01*
X017897Y007212D02*
X017415Y007212D01*
X017514Y007113D02*
X017798Y007113D01*
X017700Y007015D02*
X017612Y007015D01*
X017626Y006916D02*
X017686Y006916D01*
X017686Y006817D02*
X017626Y006817D01*
X017626Y006719D02*
X017686Y006719D01*
X017686Y006620D02*
X017626Y006620D01*
X017536Y006522D02*
X017776Y006522D01*
X017874Y006423D02*
X017438Y006423D01*
X018438Y006423D02*
X018874Y006423D01*
X018961Y006336D02*
X019351Y006336D01*
X019626Y006612D01*
X019626Y007001D01*
X019351Y007276D01*
X018961Y007276D01*
X018686Y007001D01*
X018686Y006612D01*
X018961Y006336D01*
X018776Y006522D02*
X018536Y006522D01*
X018626Y006620D02*
X018686Y006620D01*
X018686Y006719D02*
X018626Y006719D01*
X018626Y006817D02*
X018686Y006817D01*
X018686Y006916D02*
X018626Y006916D01*
X018612Y007015D02*
X018700Y007015D01*
X018798Y007113D02*
X018514Y007113D01*
X018415Y007212D02*
X018897Y007212D01*
X018961Y007336D02*
X019351Y007336D01*
X019626Y007612D01*
X019626Y008001D01*
X019351Y008276D01*
X018961Y008276D01*
X018686Y008001D01*
X018686Y007612D01*
X018961Y007336D01*
X018889Y007409D02*
X018423Y007409D01*
X018522Y007507D02*
X018790Y007507D01*
X018692Y007606D02*
X018620Y007606D01*
X018626Y007704D02*
X018686Y007704D01*
X018686Y007803D02*
X018626Y007803D01*
X018626Y007901D02*
X018686Y007901D01*
X018686Y008000D02*
X018626Y008000D01*
X018528Y008099D02*
X018784Y008099D01*
X018882Y008197D02*
X018430Y008197D01*
X019430Y008197D02*
X019882Y008197D01*
X019961Y008276D02*
X019686Y008001D01*
X019686Y007612D01*
X019961Y007336D01*
X020351Y007336D01*
X020626Y007612D01*
X020626Y008001D01*
X020351Y008276D01*
X019961Y008276D01*
X019784Y008099D02*
X019528Y008099D01*
X019626Y008000D02*
X019686Y008000D01*
X019686Y007901D02*
X019626Y007901D01*
X019626Y007803D02*
X019686Y007803D01*
X019686Y007704D02*
X019626Y007704D01*
X019620Y007606D02*
X019692Y007606D01*
X019790Y007507D02*
X019522Y007507D01*
X019423Y007409D02*
X019889Y007409D01*
X019961Y007276D02*
X019686Y007001D01*
X019686Y006612D01*
X019961Y006336D01*
X020351Y006336D01*
X020626Y006612D01*
X020626Y007001D01*
X020351Y007276D01*
X019961Y007276D01*
X019897Y007212D02*
X019415Y007212D01*
X019514Y007113D02*
X019798Y007113D01*
X019700Y007015D02*
X019612Y007015D01*
X019626Y006916D02*
X019686Y006916D01*
X019686Y006817D02*
X019626Y006817D01*
X019626Y006719D02*
X019686Y006719D01*
X019686Y006620D02*
X019626Y006620D01*
X019536Y006522D02*
X019776Y006522D01*
X019874Y006423D02*
X019438Y006423D01*
X020438Y006423D02*
X020874Y006423D01*
X020961Y006336D02*
X020686Y006612D01*
X020686Y007001D01*
X020961Y007276D01*
X021351Y007276D01*
X021626Y007001D01*
X021626Y006612D01*
X021351Y006336D01*
X020961Y006336D01*
X020776Y006522D02*
X020536Y006522D01*
X020626Y006620D02*
X020686Y006620D01*
X020686Y006719D02*
X020626Y006719D01*
X020626Y006817D02*
X020686Y006817D01*
X020686Y006916D02*
X020626Y006916D01*
X020612Y007015D02*
X020700Y007015D01*
X020798Y007113D02*
X020514Y007113D01*
X020415Y007212D02*
X020897Y007212D01*
X020961Y007336D02*
X021351Y007336D01*
X021626Y007612D01*
X021626Y008001D01*
X021351Y008276D01*
X020961Y008276D01*
X020686Y008001D01*
X020686Y007612D01*
X020961Y007336D01*
X020889Y007409D02*
X020423Y007409D01*
X020522Y007507D02*
X020790Y007507D01*
X020692Y007606D02*
X020620Y007606D01*
X020626Y007704D02*
X020686Y007704D01*
X020686Y007803D02*
X020626Y007803D01*
X020626Y007901D02*
X020686Y007901D01*
X020686Y008000D02*
X020626Y008000D01*
X020528Y008099D02*
X020784Y008099D01*
X020882Y008197D02*
X020430Y008197D01*
X021430Y008197D02*
X021882Y008197D01*
X021961Y008276D02*
X021686Y008001D01*
X021686Y007612D01*
X021961Y007336D01*
X022351Y007336D01*
X022626Y007612D01*
X022626Y008001D01*
X022351Y008276D01*
X021961Y008276D01*
X021784Y008099D02*
X021528Y008099D01*
X021626Y008000D02*
X021686Y008000D01*
X021686Y007901D02*
X021626Y007901D01*
X021626Y007803D02*
X021686Y007803D01*
X021686Y007704D02*
X021626Y007704D01*
X021620Y007606D02*
X021692Y007606D01*
X021790Y007507D02*
X021522Y007507D01*
X021423Y007409D02*
X021889Y007409D01*
X021961Y007276D02*
X021686Y007001D01*
X021686Y006612D01*
X021961Y006336D01*
X022351Y006336D01*
X022626Y006612D01*
X022626Y007001D01*
X022351Y007276D01*
X021961Y007276D01*
X021897Y007212D02*
X021415Y007212D01*
X021514Y007113D02*
X021798Y007113D01*
X021700Y007015D02*
X021612Y007015D01*
X021626Y006916D02*
X021686Y006916D01*
X021686Y006817D02*
X021626Y006817D01*
X021626Y006719D02*
X021686Y006719D01*
X021686Y006620D02*
X021626Y006620D01*
X021536Y006522D02*
X021776Y006522D01*
X021874Y006423D02*
X021438Y006423D01*
X022438Y006423D02*
X022874Y006423D01*
X022961Y006336D02*
X023351Y006336D01*
X023626Y006612D01*
X023626Y007001D01*
X023351Y007276D01*
X022961Y007276D01*
X022686Y007001D01*
X022686Y006612D01*
X022961Y006336D01*
X022776Y006522D02*
X022536Y006522D01*
X022626Y006620D02*
X022686Y006620D01*
X022686Y006719D02*
X022626Y006719D01*
X022626Y006817D02*
X022686Y006817D01*
X022686Y006916D02*
X022626Y006916D01*
X022612Y007015D02*
X022700Y007015D01*
X022798Y007113D02*
X022514Y007113D01*
X022415Y007212D02*
X022897Y007212D01*
X022961Y007336D02*
X023351Y007336D01*
X023626Y007612D01*
X023626Y008001D01*
X023351Y008276D01*
X022961Y008276D01*
X022686Y008001D01*
X022686Y007612D01*
X022961Y007336D01*
X022889Y007409D02*
X022423Y007409D01*
X022522Y007507D02*
X022790Y007507D01*
X022692Y007606D02*
X022620Y007606D01*
X022626Y007704D02*
X022686Y007704D01*
X022686Y007803D02*
X022626Y007803D01*
X022626Y007901D02*
X022686Y007901D01*
X022686Y008000D02*
X022626Y008000D01*
X022528Y008099D02*
X022784Y008099D01*
X022882Y008197D02*
X022430Y008197D01*
X023430Y008197D02*
X023882Y008197D01*
X023961Y008276D02*
X023686Y008001D01*
X023686Y007612D01*
X023961Y007336D01*
X024351Y007336D01*
X024626Y007612D01*
X024626Y008001D01*
X024351Y008276D01*
X023961Y008276D01*
X023784Y008099D02*
X023528Y008099D01*
X023626Y008000D02*
X023686Y008000D01*
X023686Y007901D02*
X023626Y007901D01*
X023626Y007803D02*
X023686Y007803D01*
X023686Y007704D02*
X023626Y007704D01*
X023620Y007606D02*
X023692Y007606D01*
X023790Y007507D02*
X023522Y007507D01*
X023423Y007409D02*
X023889Y007409D01*
X023961Y007276D02*
X023686Y007001D01*
X023686Y006612D01*
X023961Y006336D01*
X024351Y006336D01*
X024626Y006612D01*
X024626Y007001D01*
X024351Y007276D01*
X023961Y007276D01*
X023897Y007212D02*
X023415Y007212D01*
X023514Y007113D02*
X023798Y007113D01*
X023700Y007015D02*
X023612Y007015D01*
X023626Y006916D02*
X023686Y006916D01*
X023686Y006817D02*
X023626Y006817D01*
X023626Y006719D02*
X023686Y006719D01*
X023686Y006620D02*
X023626Y006620D01*
X023536Y006522D02*
X023776Y006522D01*
X023874Y006423D02*
X023438Y006423D01*
X024438Y006423D02*
X024903Y006423D01*
X024970Y006356D02*
X024706Y006620D01*
X024706Y006766D01*
X025116Y006766D01*
X025196Y006766D01*
X025196Y006356D01*
X025342Y006356D01*
X025606Y006620D01*
X025606Y006766D01*
X025196Y006766D01*
X025196Y006846D01*
X025606Y006846D01*
X025606Y006993D01*
X025342Y007256D01*
X025196Y007256D01*
X025196Y006847D01*
X025116Y006847D01*
X025116Y007256D01*
X024970Y007256D01*
X024706Y006993D01*
X024706Y006846D01*
X025116Y006846D01*
X025116Y006766D01*
X025116Y006356D01*
X024970Y006356D01*
X025116Y006423D02*
X025196Y006423D01*
X025196Y006522D02*
X025116Y006522D01*
X025116Y006620D02*
X025196Y006620D01*
X025196Y006719D02*
X025116Y006719D01*
X025116Y006817D02*
X024626Y006817D01*
X024626Y006719D02*
X024706Y006719D01*
X024706Y006620D02*
X024626Y006620D01*
X024536Y006522D02*
X024804Y006522D01*
X025196Y006817D02*
X025686Y006817D01*
X025686Y006719D02*
X025606Y006719D01*
X025606Y006620D02*
X025686Y006620D01*
X025686Y006612D02*
X025961Y006336D01*
X026351Y006336D01*
X026626Y006612D01*
X026626Y007001D01*
X026351Y007276D01*
X025961Y007276D01*
X025686Y007001D01*
X025686Y006612D01*
X025776Y006522D02*
X025508Y006522D01*
X025409Y006423D02*
X025874Y006423D01*
X025686Y006916D02*
X025606Y006916D01*
X025584Y007015D02*
X025700Y007015D01*
X025798Y007113D02*
X025486Y007113D01*
X025387Y007212D02*
X025897Y007212D01*
X025970Y007356D02*
X026116Y007356D01*
X026116Y007766D01*
X026196Y007766D01*
X026196Y007356D01*
X026342Y007356D01*
X026606Y007620D01*
X026606Y007766D01*
X026196Y007766D01*
X026196Y007846D01*
X026606Y007846D01*
X026606Y007993D01*
X026342Y008256D01*
X026196Y008256D01*
X026196Y007847D01*
X026116Y007847D01*
X026116Y008256D01*
X025970Y008256D01*
X025706Y007993D01*
X025706Y007846D01*
X026116Y007846D01*
X026116Y007766D01*
X025706Y007766D01*
X025706Y007620D01*
X025970Y007356D01*
X025917Y007409D02*
X025423Y007409D01*
X025351Y007336D02*
X025626Y007612D01*
X025626Y008001D01*
X025351Y008276D01*
X024961Y008276D01*
X024686Y008001D01*
X024686Y007612D01*
X024961Y007336D01*
X025351Y007336D01*
X025196Y007212D02*
X025116Y007212D01*
X025116Y007113D02*
X025196Y007113D01*
X025196Y007015D02*
X025116Y007015D01*
X025116Y006916D02*
X025196Y006916D01*
X024925Y007212D02*
X024415Y007212D01*
X024514Y007113D02*
X024826Y007113D01*
X024728Y007015D02*
X024612Y007015D01*
X024626Y006916D02*
X024706Y006916D01*
X024889Y007409D02*
X024423Y007409D01*
X024522Y007507D02*
X024790Y007507D01*
X024692Y007606D02*
X024620Y007606D01*
X024626Y007704D02*
X024686Y007704D01*
X024686Y007803D02*
X024626Y007803D01*
X024626Y007901D02*
X024686Y007901D01*
X024686Y008000D02*
X024626Y008000D01*
X024528Y008099D02*
X024784Y008099D01*
X024882Y008197D02*
X024430Y008197D01*
X025430Y008197D02*
X025910Y008197D01*
X025812Y008099D02*
X025528Y008099D01*
X025626Y008000D02*
X025713Y008000D01*
X025706Y007901D02*
X025626Y007901D01*
X025626Y007803D02*
X026116Y007803D01*
X026196Y007803D02*
X026686Y007803D01*
X026686Y007901D02*
X026606Y007901D01*
X026599Y008000D02*
X026686Y008000D01*
X026686Y008001D02*
X026686Y007612D01*
X026961Y007336D01*
X027351Y007336D01*
X027626Y007612D01*
X027626Y008001D01*
X027351Y008276D01*
X026961Y008276D01*
X026686Y008001D01*
X026784Y008099D02*
X026500Y008099D01*
X026402Y008197D02*
X026882Y008197D01*
X027430Y008197D02*
X027882Y008197D01*
X027961Y008276D02*
X027686Y008001D01*
X027686Y007612D01*
X027961Y007336D01*
X028351Y007336D01*
X028626Y007612D01*
X028626Y008001D01*
X028351Y008276D01*
X027961Y008276D01*
X027784Y008099D02*
X027528Y008099D01*
X027626Y008000D02*
X027686Y008000D01*
X027686Y007901D02*
X027626Y007901D01*
X027626Y007803D02*
X027686Y007803D01*
X027686Y007704D02*
X027626Y007704D01*
X027620Y007606D02*
X027692Y007606D01*
X027790Y007507D02*
X027522Y007507D01*
X027423Y007409D02*
X027889Y007409D01*
X027961Y007276D02*
X027686Y007001D01*
X027686Y006612D01*
X027961Y006336D01*
X028351Y006336D01*
X028626Y006612D01*
X028626Y007001D01*
X028351Y007276D01*
X027961Y007276D01*
X027897Y007212D02*
X027415Y007212D01*
X027351Y007276D02*
X026961Y007276D01*
X026686Y007001D01*
X026686Y006612D01*
X026961Y006336D01*
X027351Y006336D01*
X027626Y006612D01*
X027626Y007001D01*
X027351Y007276D01*
X027514Y007113D02*
X027798Y007113D01*
X027700Y007015D02*
X027612Y007015D01*
X027626Y006916D02*
X027686Y006916D01*
X027686Y006817D02*
X027626Y006817D01*
X027626Y006719D02*
X027686Y006719D01*
X027686Y006620D02*
X027626Y006620D01*
X027536Y006522D02*
X027776Y006522D01*
X027874Y006423D02*
X027438Y006423D01*
X026874Y006423D02*
X026438Y006423D01*
X026536Y006522D02*
X026776Y006522D01*
X026686Y006620D02*
X026626Y006620D01*
X026626Y006719D02*
X026686Y006719D01*
X026686Y006817D02*
X026626Y006817D01*
X026626Y006916D02*
X026686Y006916D01*
X026700Y007015D02*
X026612Y007015D01*
X026514Y007113D02*
X026798Y007113D01*
X026897Y007212D02*
X026415Y007212D01*
X026395Y007409D02*
X026889Y007409D01*
X026790Y007507D02*
X026493Y007507D01*
X026592Y007606D02*
X026692Y007606D01*
X026686Y007704D02*
X026606Y007704D01*
X026196Y007704D02*
X026116Y007704D01*
X026116Y007606D02*
X026196Y007606D01*
X026196Y007507D02*
X026116Y007507D01*
X026116Y007409D02*
X026196Y007409D01*
X025819Y007507D02*
X025522Y007507D01*
X025620Y007606D02*
X025720Y007606D01*
X025706Y007704D02*
X025626Y007704D01*
X026116Y007901D02*
X026196Y007901D01*
X026196Y008000D02*
X026116Y008000D01*
X026116Y008099D02*
X026196Y008099D01*
X026196Y008197D02*
X026116Y008197D01*
X028430Y008197D02*
X032354Y008197D01*
X032255Y008099D02*
X028528Y008099D01*
X028626Y008000D02*
X032166Y008000D01*
X032166Y007901D02*
X028626Y007901D01*
X028626Y007803D02*
X032166Y007803D01*
X032166Y007704D02*
X028626Y007704D01*
X028620Y007606D02*
X032166Y007606D01*
X032262Y007507D02*
X028522Y007507D01*
X028423Y007409D02*
X032361Y007409D01*
X032453Y007296D02*
X032166Y007009D01*
X032166Y006603D01*
X032453Y006316D01*
X032859Y006316D01*
X033146Y006603D01*
X033146Y007009D01*
X032859Y007296D01*
X032453Y007296D01*
X032368Y007212D02*
X028415Y007212D01*
X028514Y007113D02*
X032270Y007113D01*
X032171Y007015D02*
X028612Y007015D01*
X028626Y006916D02*
X032166Y006916D01*
X032166Y006817D02*
X028626Y006817D01*
X028626Y006719D02*
X032166Y006719D01*
X032166Y006620D02*
X028626Y006620D01*
X028536Y006522D02*
X032248Y006522D01*
X032346Y006423D02*
X028438Y006423D01*
X032166Y006009D02*
X032166Y005603D01*
X032453Y005316D01*
X032859Y005316D01*
X033146Y005603D01*
X033146Y006009D01*
X032859Y006296D01*
X032453Y006296D01*
X032166Y006009D01*
X032186Y006029D02*
X000326Y006029D01*
X000326Y005931D02*
X032166Y005931D01*
X032166Y005832D02*
X000326Y005832D01*
X000326Y005733D02*
X032166Y005733D01*
X032166Y005635D02*
X000326Y005635D01*
X000326Y005536D02*
X032233Y005536D01*
X032332Y005438D02*
X000326Y005438D01*
X000326Y005339D02*
X032430Y005339D01*
X032453Y005296D02*
X032166Y005009D01*
X032166Y004603D01*
X032453Y004316D01*
X032859Y004316D01*
X033146Y004603D01*
X033146Y005009D01*
X032859Y005296D01*
X032453Y005296D01*
X032398Y005241D02*
X000326Y005241D01*
X000326Y005142D02*
X032299Y005142D01*
X032201Y005044D02*
X000326Y005044D01*
X000326Y004945D02*
X032166Y004945D01*
X032166Y004847D02*
X000326Y004847D01*
X000326Y004748D02*
X032166Y004748D01*
X032166Y004649D02*
X000326Y004649D01*
X000326Y004551D02*
X032218Y004551D01*
X032317Y004452D02*
X000326Y004452D01*
X000326Y004354D02*
X032416Y004354D01*
X032461Y004276D02*
X032186Y004001D01*
X032186Y003856D01*
X032606Y003856D01*
X032606Y003756D01*
X032706Y003756D01*
X032706Y003336D01*
X032851Y003336D01*
X033126Y003612D01*
X033126Y003756D01*
X032706Y003756D01*
X032706Y003856D01*
X033126Y003856D01*
X033126Y004001D01*
X032851Y004276D01*
X032706Y004276D01*
X032706Y003856D01*
X032606Y003856D01*
X032606Y004276D01*
X032461Y004276D01*
X032440Y004255D02*
X000326Y004255D01*
X000326Y004157D02*
X032342Y004157D01*
X032243Y004058D02*
X000326Y004058D01*
X000326Y003960D02*
X032186Y003960D01*
X032186Y003861D02*
X000326Y003861D01*
X000326Y003763D02*
X032606Y003763D01*
X032606Y003756D02*
X032186Y003756D01*
X032186Y003612D01*
X032461Y003336D01*
X032606Y003336D01*
X032606Y003756D01*
X032606Y003664D02*
X032706Y003664D01*
X032706Y003566D02*
X032606Y003566D01*
X032606Y003467D02*
X032706Y003467D01*
X032706Y003368D02*
X032606Y003368D01*
X032429Y003368D02*
X000326Y003368D01*
X000326Y003270D02*
X035486Y003270D01*
X035486Y003368D02*
X033883Y003368D01*
X033851Y003336D02*
X034126Y003612D01*
X034126Y003756D01*
X033706Y003756D01*
X033706Y003336D01*
X033851Y003336D01*
X033706Y003368D02*
X033606Y003368D01*
X033606Y003336D02*
X033606Y003756D01*
X033706Y003756D01*
X033706Y003856D01*
X034126Y003856D01*
X034126Y004001D01*
X033851Y004276D01*
X033706Y004276D01*
X033706Y003856D01*
X033606Y003856D01*
X033606Y003756D01*
X033186Y003756D01*
X033186Y003612D01*
X033461Y003336D01*
X033606Y003336D01*
X033606Y003467D02*
X033706Y003467D01*
X033706Y003566D02*
X033606Y003566D01*
X033606Y003664D02*
X033706Y003664D01*
X033706Y003763D02*
X035486Y003763D01*
X035486Y003861D02*
X034126Y003861D01*
X034126Y003960D02*
X035486Y003960D01*
X035486Y004058D02*
X034069Y004058D01*
X033970Y004157D02*
X035486Y004157D01*
X035486Y004255D02*
X033872Y004255D01*
X033859Y004316D02*
X034146Y004603D01*
X034146Y005009D01*
X033859Y005296D01*
X033453Y005296D01*
X033166Y005009D01*
X033166Y004603D01*
X033453Y004316D01*
X033859Y004316D01*
X033897Y004354D02*
X035486Y004354D01*
X035486Y004452D02*
X033995Y004452D01*
X034094Y004551D02*
X035486Y004551D01*
X035486Y004649D02*
X034146Y004649D01*
X034146Y004748D02*
X035486Y004748D01*
X035486Y004847D02*
X034146Y004847D01*
X034146Y004945D02*
X035486Y004945D01*
X035486Y005044D02*
X034112Y005044D01*
X034013Y005142D02*
X035486Y005142D01*
X035486Y005241D02*
X033914Y005241D01*
X033859Y005316D02*
X033453Y005316D01*
X033166Y005603D01*
X033166Y006009D01*
X033453Y006296D01*
X033859Y006296D01*
X034146Y006009D01*
X034146Y005603D01*
X033859Y005316D01*
X033882Y005339D02*
X035486Y005339D01*
X035486Y005438D02*
X033981Y005438D01*
X034079Y005536D02*
X035486Y005536D01*
X035486Y005635D02*
X034146Y005635D01*
X034146Y005733D02*
X035486Y005733D01*
X035486Y005832D02*
X034146Y005832D01*
X034146Y005931D02*
X035486Y005931D01*
X035486Y006029D02*
X034126Y006029D01*
X034028Y006128D02*
X035486Y006128D01*
X035486Y006226D02*
X033929Y006226D01*
X033859Y006316D02*
X034146Y006603D01*
X034146Y007009D01*
X033859Y007296D01*
X033453Y007296D01*
X033166Y007009D01*
X033166Y006603D01*
X033453Y006316D01*
X033859Y006316D01*
X033867Y006325D02*
X035486Y006325D01*
X035486Y006423D02*
X033966Y006423D01*
X034064Y006522D02*
X035486Y006522D01*
X035486Y006620D02*
X034146Y006620D01*
X034146Y006719D02*
X035486Y006719D01*
X035486Y006817D02*
X034146Y006817D01*
X034146Y006916D02*
X035486Y006916D01*
X035486Y007015D02*
X034141Y007015D01*
X034042Y007113D02*
X035486Y007113D01*
X035486Y007212D02*
X033944Y007212D01*
X033368Y007212D02*
X032944Y007212D01*
X033042Y007113D02*
X033270Y007113D01*
X033171Y007015D02*
X033141Y007015D01*
X033146Y006916D02*
X033166Y006916D01*
X033166Y006817D02*
X033146Y006817D01*
X033146Y006719D02*
X033166Y006719D01*
X033166Y006620D02*
X033146Y006620D01*
X033064Y006522D02*
X033248Y006522D01*
X033346Y006423D02*
X032966Y006423D01*
X032867Y006325D02*
X033445Y006325D01*
X033383Y006226D02*
X032929Y006226D01*
X033028Y006128D02*
X033284Y006128D01*
X033186Y006029D02*
X033126Y006029D01*
X033146Y005931D02*
X033166Y005931D01*
X033166Y005832D02*
X033146Y005832D01*
X033146Y005733D02*
X033166Y005733D01*
X033166Y005635D02*
X033146Y005635D01*
X033079Y005536D02*
X033233Y005536D01*
X033332Y005438D02*
X032981Y005438D01*
X032882Y005339D02*
X033430Y005339D01*
X033398Y005241D02*
X032914Y005241D01*
X033013Y005142D02*
X033299Y005142D01*
X033201Y005044D02*
X033112Y005044D01*
X033146Y004945D02*
X033166Y004945D01*
X033166Y004847D02*
X033146Y004847D01*
X033146Y004748D02*
X033166Y004748D01*
X033166Y004649D02*
X033146Y004649D01*
X033094Y004551D02*
X033218Y004551D01*
X033317Y004452D02*
X032995Y004452D01*
X032897Y004354D02*
X033416Y004354D01*
X033461Y004276D02*
X033186Y004001D01*
X033186Y003856D01*
X033606Y003856D01*
X033606Y004276D01*
X033461Y004276D01*
X033440Y004255D02*
X032872Y004255D01*
X032970Y004157D02*
X033342Y004157D01*
X033243Y004058D02*
X033069Y004058D01*
X033126Y003960D02*
X033186Y003960D01*
X033186Y003861D02*
X033126Y003861D01*
X033126Y003664D02*
X033186Y003664D01*
X033232Y003566D02*
X033080Y003566D01*
X032981Y003467D02*
X033331Y003467D01*
X033429Y003368D02*
X032883Y003368D01*
X032331Y003467D02*
X000326Y003467D01*
X000326Y003566D02*
X032232Y003566D01*
X032186Y003664D02*
X000326Y003664D01*
X000326Y003171D02*
X035486Y003171D01*
X035486Y003073D02*
X000326Y003073D01*
X000326Y002974D02*
X035486Y002974D01*
X035486Y002876D02*
X000326Y002876D01*
X000326Y002777D02*
X035486Y002777D01*
X035486Y002679D02*
X000326Y002679D01*
X000326Y002580D02*
X008471Y002580D01*
X008559Y002616D02*
X008378Y002542D01*
X008241Y002404D01*
X008166Y002224D01*
X008166Y001389D01*
X008241Y001209D01*
X008378Y001071D01*
X008559Y000996D01*
X008754Y000996D01*
X008934Y001071D01*
X009071Y001209D01*
X009146Y001389D01*
X009146Y002224D01*
X009071Y002404D01*
X008934Y002542D01*
X008754Y002616D01*
X008559Y002616D01*
X008318Y002482D02*
X000326Y002482D01*
X000326Y002383D02*
X008232Y002383D01*
X008191Y002284D02*
X000326Y002284D01*
X000326Y002186D02*
X008166Y002186D01*
X008166Y002087D02*
X000326Y002087D01*
X000326Y001989D02*
X008166Y001989D01*
X008166Y001890D02*
X000326Y001890D01*
X000326Y001792D02*
X008166Y001792D01*
X008166Y001693D02*
X000326Y001693D01*
X000326Y001595D02*
X008166Y001595D01*
X008166Y001496D02*
X000326Y001496D01*
X000326Y001398D02*
X008166Y001398D01*
X008203Y001299D02*
X000326Y001299D01*
X000326Y001200D02*
X008249Y001200D01*
X008347Y001102D02*
X000326Y001102D01*
X000326Y001003D02*
X008541Y001003D01*
X008771Y001003D02*
X009541Y001003D01*
X009559Y000996D02*
X009378Y001071D01*
X009241Y001209D01*
X009166Y001389D01*
X009166Y002224D01*
X009241Y002404D01*
X009378Y002542D01*
X009559Y002616D01*
X009754Y002616D01*
X009934Y002542D01*
X010071Y002404D01*
X010146Y002224D01*
X010146Y001389D01*
X010071Y001209D01*
X009934Y001071D01*
X009754Y000996D01*
X009559Y000996D01*
X009771Y001003D02*
X010541Y001003D01*
X010559Y000996D02*
X010754Y000996D01*
X010934Y001071D01*
X011071Y001209D01*
X011146Y001389D01*
X011146Y002224D01*
X011071Y002404D01*
X010934Y002542D01*
X010754Y002616D01*
X010559Y002616D01*
X010378Y002542D01*
X010241Y002404D01*
X010166Y002224D01*
X010166Y001389D01*
X010241Y001209D01*
X010378Y001071D01*
X010559Y000996D01*
X010771Y001003D02*
X012541Y001003D01*
X012559Y000996D02*
X012754Y000996D01*
X012934Y001071D01*
X013071Y001209D01*
X013146Y001389D01*
X013146Y002224D01*
X013071Y002404D01*
X012934Y002542D01*
X012754Y002616D01*
X012559Y002616D01*
X012378Y002542D01*
X012241Y002404D01*
X012166Y002224D01*
X012166Y001389D01*
X012241Y001209D01*
X012378Y001071D01*
X012559Y000996D01*
X012771Y001003D02*
X013541Y001003D01*
X013559Y000996D02*
X013754Y000996D01*
X013934Y001071D01*
X014071Y001209D01*
X014146Y001389D01*
X014146Y002224D01*
X014071Y002404D01*
X013934Y002542D01*
X013754Y002616D01*
X013559Y002616D01*
X013378Y002542D01*
X013241Y002404D01*
X013166Y002224D01*
X013166Y001389D01*
X013241Y001209D01*
X013378Y001071D01*
X013559Y000996D01*
X013771Y001003D02*
X015541Y001003D01*
X015559Y000996D02*
X015754Y000996D01*
X015934Y001071D01*
X016071Y001209D01*
X016146Y001389D01*
X016146Y002224D01*
X016071Y002404D01*
X015934Y002542D01*
X015754Y002616D01*
X015559Y002616D01*
X015378Y002542D01*
X015241Y002404D01*
X015166Y002224D01*
X015166Y001389D01*
X015241Y001209D01*
X015378Y001071D01*
X015559Y000996D01*
X015771Y001003D02*
X016541Y001003D01*
X016559Y000996D02*
X016754Y000996D01*
X016934Y001071D01*
X017071Y001209D01*
X017146Y001389D01*
X017146Y002224D01*
X017071Y002404D01*
X016934Y002542D01*
X016754Y002616D01*
X016559Y002616D01*
X016378Y002542D01*
X016241Y002404D01*
X016166Y002224D01*
X016166Y001389D01*
X016241Y001209D01*
X016378Y001071D01*
X016559Y000996D01*
X016771Y001003D02*
X017541Y001003D01*
X017559Y000996D02*
X017754Y000996D01*
X017934Y001071D01*
X018071Y001209D01*
X018146Y001389D01*
X018146Y002224D01*
X018071Y002404D01*
X017934Y002542D01*
X017754Y002616D01*
X017559Y002616D01*
X017378Y002542D01*
X017241Y002404D01*
X017166Y002224D01*
X017166Y001389D01*
X017241Y001209D01*
X017378Y001071D01*
X017559Y000996D01*
X017771Y001003D02*
X018541Y001003D01*
X018559Y000996D02*
X018754Y000996D01*
X018934Y001071D01*
X019071Y001209D01*
X019146Y001389D01*
X019146Y002224D01*
X019071Y002404D01*
X018934Y002542D01*
X018754Y002616D01*
X018559Y002616D01*
X018378Y002542D01*
X018241Y002404D01*
X018166Y002224D01*
X018166Y001389D01*
X018241Y001209D01*
X018378Y001071D01*
X018559Y000996D01*
X018771Y001003D02*
X019541Y001003D01*
X019559Y000996D02*
X019754Y000996D01*
X019934Y001071D01*
X020071Y001209D01*
X020146Y001389D01*
X020146Y002224D01*
X020071Y002404D01*
X019934Y002542D01*
X019754Y002616D01*
X019559Y002616D01*
X019378Y002542D01*
X019241Y002404D01*
X019166Y002224D01*
X019166Y001389D01*
X019241Y001209D01*
X019378Y001071D01*
X019559Y000996D01*
X019771Y001003D02*
X020541Y001003D01*
X020559Y000996D02*
X020754Y000996D01*
X020934Y001071D01*
X021071Y001209D01*
X021146Y001389D01*
X021146Y002224D01*
X021071Y002404D01*
X020934Y002542D01*
X020754Y002616D01*
X020559Y002616D01*
X020378Y002542D01*
X020241Y002404D01*
X020166Y002224D01*
X020166Y001389D01*
X020241Y001209D01*
X020378Y001071D01*
X020559Y000996D01*
X020771Y001003D02*
X021541Y001003D01*
X021559Y000996D02*
X021754Y000996D01*
X021934Y001071D01*
X022071Y001209D01*
X022146Y001389D01*
X022146Y002224D01*
X022071Y002404D01*
X021934Y002542D01*
X021754Y002616D01*
X021559Y002616D01*
X021378Y002542D01*
X021241Y002404D01*
X021166Y002224D01*
X021166Y001389D01*
X021241Y001209D01*
X021378Y001071D01*
X021559Y000996D01*
X021771Y001003D02*
X022541Y001003D01*
X022559Y000996D02*
X022754Y000996D01*
X022934Y001071D01*
X023071Y001209D01*
X023146Y001389D01*
X023146Y002224D01*
X023071Y002404D01*
X022934Y002542D01*
X022754Y002616D01*
X022559Y002616D01*
X022378Y002542D01*
X022241Y002404D01*
X022166Y002224D01*
X022166Y001389D01*
X022241Y001209D01*
X022378Y001071D01*
X022559Y000996D01*
X022771Y001003D02*
X024541Y001003D01*
X024559Y000996D02*
X024754Y000996D01*
X024934Y001071D01*
X025071Y001209D01*
X025146Y001389D01*
X025146Y002224D01*
X025071Y002404D01*
X024934Y002542D01*
X024754Y002616D01*
X024559Y002616D01*
X024378Y002542D01*
X024241Y002404D01*
X024166Y002224D01*
X024166Y001389D01*
X024241Y001209D01*
X024378Y001071D01*
X024559Y000996D01*
X024771Y001003D02*
X025541Y001003D01*
X025559Y000996D02*
X025754Y000996D01*
X025934Y001071D01*
X026071Y001209D01*
X026146Y001389D01*
X026146Y002224D01*
X026071Y002404D01*
X025934Y002542D01*
X025754Y002616D01*
X025559Y002616D01*
X025378Y002542D01*
X025241Y002404D01*
X025166Y002224D01*
X025166Y001389D01*
X025241Y001209D01*
X025378Y001071D01*
X025559Y000996D01*
X025771Y001003D02*
X026541Y001003D01*
X026559Y000996D02*
X026754Y000996D01*
X026934Y001071D01*
X027071Y001209D01*
X027146Y001389D01*
X027146Y002224D01*
X027071Y002404D01*
X026934Y002542D01*
X026754Y002616D01*
X026559Y002616D01*
X026378Y002542D01*
X026241Y002404D01*
X026166Y002224D01*
X026166Y001389D01*
X026241Y001209D01*
X026378Y001071D01*
X026559Y000996D01*
X026771Y001003D02*
X027541Y001003D01*
X027559Y000996D02*
X027754Y000996D01*
X027934Y001071D01*
X028071Y001209D01*
X028146Y001389D01*
X028146Y002224D01*
X028071Y002404D01*
X027934Y002542D01*
X027754Y002616D01*
X027559Y002616D01*
X027378Y002542D01*
X027241Y002404D01*
X027166Y002224D01*
X027166Y001389D01*
X027241Y001209D01*
X027378Y001071D01*
X027559Y000996D01*
X027771Y001003D02*
X028541Y001003D01*
X028559Y000996D02*
X028754Y000996D01*
X028934Y001071D01*
X029071Y001209D01*
X029146Y001389D01*
X029146Y002224D01*
X029071Y002404D01*
X028934Y002542D01*
X028754Y002616D01*
X028559Y002616D01*
X028378Y002542D01*
X028241Y002404D01*
X028166Y002224D01*
X028166Y001389D01*
X028241Y001209D01*
X028378Y001071D01*
X028559Y000996D01*
X028771Y001003D02*
X029541Y001003D01*
X029559Y000996D02*
X029754Y000996D01*
X029934Y001071D01*
X030071Y001209D01*
X030146Y001389D01*
X030146Y002224D01*
X030071Y002404D01*
X029934Y002542D01*
X029754Y002616D01*
X029559Y002616D01*
X029378Y002542D01*
X029241Y002404D01*
X029166Y002224D01*
X029166Y001389D01*
X029241Y001209D01*
X029378Y001071D01*
X029559Y000996D01*
X029771Y001003D02*
X030541Y001003D01*
X030559Y000996D02*
X030754Y000996D01*
X030934Y001071D01*
X031071Y001209D01*
X031146Y001389D01*
X031146Y002224D01*
X031071Y002404D01*
X030934Y002542D01*
X030754Y002616D01*
X030559Y002616D01*
X030378Y002542D01*
X030241Y002404D01*
X030166Y002224D01*
X030166Y001389D01*
X030241Y001209D01*
X030378Y001071D01*
X030559Y000996D01*
X030771Y001003D02*
X031541Y001003D01*
X031559Y000996D02*
X031754Y000996D01*
X031934Y001071D01*
X032071Y001209D01*
X032146Y001389D01*
X032146Y002224D01*
X032071Y002404D01*
X031934Y002542D01*
X031754Y002616D01*
X031559Y002616D01*
X031378Y002542D01*
X031241Y002404D01*
X031166Y002224D01*
X031166Y001389D01*
X031241Y001209D01*
X031378Y001071D01*
X031559Y000996D01*
X031771Y001003D02*
X034486Y001003D01*
X034486Y001102D02*
X034046Y001102D01*
X034109Y001128D02*
X034334Y001353D01*
X034456Y001647D01*
X034456Y001965D01*
X034334Y002259D01*
X034109Y002484D01*
X033815Y002606D01*
X033497Y002606D01*
X033203Y002484D01*
X032978Y002259D01*
X032856Y001965D01*
X032856Y001647D01*
X032978Y001353D01*
X033203Y001128D01*
X033497Y001006D01*
X033815Y001006D01*
X034109Y001128D01*
X034181Y001200D02*
X034486Y001200D01*
X034486Y001299D02*
X034280Y001299D01*
X034353Y001398D02*
X034507Y001398D01*
X034605Y001496D02*
X034393Y001496D01*
X034434Y001595D02*
X034704Y001595D01*
X034803Y001693D02*
X034456Y001693D01*
X034456Y001792D02*
X034901Y001792D01*
X035000Y001890D02*
X034456Y001890D01*
X034446Y001989D02*
X035098Y001989D01*
X035197Y002087D02*
X034405Y002087D01*
X034365Y002186D02*
X035295Y002186D01*
X035394Y002284D02*
X034309Y002284D01*
X034211Y002383D02*
X035486Y002383D01*
X035486Y002482D02*
X034112Y002482D01*
X033878Y002580D02*
X035486Y002580D01*
X035486Y003467D02*
X033981Y003467D01*
X034080Y003566D02*
X035486Y003566D01*
X035486Y003664D02*
X034126Y003664D01*
X033706Y003861D02*
X033606Y003861D01*
X033606Y003763D02*
X032706Y003763D01*
X032706Y003861D02*
X032606Y003861D01*
X032606Y003960D02*
X032706Y003960D01*
X032706Y004058D02*
X032606Y004058D01*
X032606Y004157D02*
X032706Y004157D01*
X032706Y004255D02*
X032606Y004255D01*
X033606Y004255D02*
X033706Y004255D01*
X033706Y004157D02*
X033606Y004157D01*
X033606Y004058D02*
X033706Y004058D01*
X033706Y003960D02*
X033606Y003960D01*
X033434Y002580D02*
X031841Y002580D01*
X031994Y002482D02*
X033200Y002482D01*
X033101Y002383D02*
X032080Y002383D01*
X032121Y002284D02*
X033003Y002284D01*
X032947Y002186D02*
X032146Y002186D01*
X032146Y002087D02*
X032907Y002087D01*
X032866Y001989D02*
X032146Y001989D01*
X032146Y001890D02*
X032856Y001890D01*
X032856Y001792D02*
X032146Y001792D01*
X032146Y001693D02*
X032856Y001693D01*
X032878Y001595D02*
X032146Y001595D01*
X032146Y001496D02*
X032919Y001496D01*
X032959Y001398D02*
X032146Y001398D01*
X032109Y001299D02*
X033032Y001299D01*
X033131Y001200D02*
X032063Y001200D01*
X031965Y001102D02*
X033266Y001102D01*
X031347Y001102D02*
X030965Y001102D01*
X031063Y001200D02*
X031249Y001200D01*
X031203Y001299D02*
X031109Y001299D01*
X031146Y001398D02*
X031166Y001398D01*
X031166Y001496D02*
X031146Y001496D01*
X031146Y001595D02*
X031166Y001595D01*
X031166Y001693D02*
X031146Y001693D01*
X031146Y001792D02*
X031166Y001792D01*
X031166Y001890D02*
X031146Y001890D01*
X031146Y001989D02*
X031166Y001989D01*
X031166Y002087D02*
X031146Y002087D01*
X031146Y002186D02*
X031166Y002186D01*
X031191Y002284D02*
X031121Y002284D01*
X031080Y002383D02*
X031232Y002383D01*
X031318Y002482D02*
X030994Y002482D01*
X030841Y002580D02*
X031471Y002580D01*
X030471Y002580D02*
X029841Y002580D01*
X029994Y002482D02*
X030318Y002482D01*
X030232Y002383D02*
X030080Y002383D01*
X030121Y002284D02*
X030191Y002284D01*
X030166Y002186D02*
X030146Y002186D01*
X030146Y002087D02*
X030166Y002087D01*
X030166Y001989D02*
X030146Y001989D01*
X030146Y001890D02*
X030166Y001890D01*
X030166Y001792D02*
X030146Y001792D01*
X030146Y001693D02*
X030166Y001693D01*
X030166Y001595D02*
X030146Y001595D01*
X030146Y001496D02*
X030166Y001496D01*
X030166Y001398D02*
X030146Y001398D01*
X030109Y001299D02*
X030203Y001299D01*
X030249Y001200D02*
X030063Y001200D01*
X029965Y001102D02*
X030347Y001102D01*
X029347Y001102D02*
X028965Y001102D01*
X029063Y001200D02*
X029249Y001200D01*
X029203Y001299D02*
X029109Y001299D01*
X029146Y001398D02*
X029166Y001398D01*
X029166Y001496D02*
X029146Y001496D01*
X029146Y001595D02*
X029166Y001595D01*
X029166Y001693D02*
X029146Y001693D01*
X029146Y001792D02*
X029166Y001792D01*
X029166Y001890D02*
X029146Y001890D01*
X029146Y001989D02*
X029166Y001989D01*
X029166Y002087D02*
X029146Y002087D01*
X029146Y002186D02*
X029166Y002186D01*
X029191Y002284D02*
X029121Y002284D01*
X029080Y002383D02*
X029232Y002383D01*
X029318Y002482D02*
X028994Y002482D01*
X028841Y002580D02*
X029471Y002580D01*
X028471Y002580D02*
X027841Y002580D01*
X027994Y002482D02*
X028318Y002482D01*
X028232Y002383D02*
X028080Y002383D01*
X028121Y002284D02*
X028191Y002284D01*
X028166Y002186D02*
X028146Y002186D01*
X028146Y002087D02*
X028166Y002087D01*
X028166Y001989D02*
X028146Y001989D01*
X028146Y001890D02*
X028166Y001890D01*
X028166Y001792D02*
X028146Y001792D01*
X028146Y001693D02*
X028166Y001693D01*
X028166Y001595D02*
X028146Y001595D01*
X028146Y001496D02*
X028166Y001496D01*
X028166Y001398D02*
X028146Y001398D01*
X028109Y001299D02*
X028203Y001299D01*
X028249Y001200D02*
X028063Y001200D01*
X027965Y001102D02*
X028347Y001102D01*
X027347Y001102D02*
X026965Y001102D01*
X027063Y001200D02*
X027249Y001200D01*
X027203Y001299D02*
X027109Y001299D01*
X027146Y001398D02*
X027166Y001398D01*
X027166Y001496D02*
X027146Y001496D01*
X027146Y001595D02*
X027166Y001595D01*
X027166Y001693D02*
X027146Y001693D01*
X027146Y001792D02*
X027166Y001792D01*
X027166Y001890D02*
X027146Y001890D01*
X027146Y001989D02*
X027166Y001989D01*
X027166Y002087D02*
X027146Y002087D01*
X027146Y002186D02*
X027166Y002186D01*
X027191Y002284D02*
X027121Y002284D01*
X027080Y002383D02*
X027232Y002383D01*
X027318Y002482D02*
X026994Y002482D01*
X026841Y002580D02*
X027471Y002580D01*
X026471Y002580D02*
X025841Y002580D01*
X025994Y002482D02*
X026318Y002482D01*
X026232Y002383D02*
X026080Y002383D01*
X026121Y002284D02*
X026191Y002284D01*
X026166Y002186D02*
X026146Y002186D01*
X026146Y002087D02*
X026166Y002087D01*
X026166Y001989D02*
X026146Y001989D01*
X026146Y001890D02*
X026166Y001890D01*
X026166Y001792D02*
X026146Y001792D01*
X026146Y001693D02*
X026166Y001693D01*
X026166Y001595D02*
X026146Y001595D01*
X026146Y001496D02*
X026166Y001496D01*
X026166Y001398D02*
X026146Y001398D01*
X026109Y001299D02*
X026203Y001299D01*
X026249Y001200D02*
X026063Y001200D01*
X025965Y001102D02*
X026347Y001102D01*
X025347Y001102D02*
X024965Y001102D01*
X025063Y001200D02*
X025249Y001200D01*
X025203Y001299D02*
X025109Y001299D01*
X025146Y001398D02*
X025166Y001398D01*
X025166Y001496D02*
X025146Y001496D01*
X025146Y001595D02*
X025166Y001595D01*
X025166Y001693D02*
X025146Y001693D01*
X025146Y001792D02*
X025166Y001792D01*
X025166Y001890D02*
X025146Y001890D01*
X025146Y001989D02*
X025166Y001989D01*
X025166Y002087D02*
X025146Y002087D01*
X025146Y002186D02*
X025166Y002186D01*
X025191Y002284D02*
X025121Y002284D01*
X025080Y002383D02*
X025232Y002383D01*
X025318Y002482D02*
X024994Y002482D01*
X024841Y002580D02*
X025471Y002580D01*
X024471Y002580D02*
X022841Y002580D01*
X022994Y002482D02*
X024318Y002482D01*
X024232Y002383D02*
X023080Y002383D01*
X023121Y002284D02*
X024191Y002284D01*
X024166Y002186D02*
X023146Y002186D01*
X023146Y002087D02*
X024166Y002087D01*
X024166Y001989D02*
X023146Y001989D01*
X023146Y001890D02*
X024166Y001890D01*
X024166Y001792D02*
X023146Y001792D01*
X023146Y001693D02*
X024166Y001693D01*
X024166Y001595D02*
X023146Y001595D01*
X023146Y001496D02*
X024166Y001496D01*
X024166Y001398D02*
X023146Y001398D01*
X023109Y001299D02*
X024203Y001299D01*
X024249Y001200D02*
X023063Y001200D01*
X022965Y001102D02*
X024347Y001102D01*
X022347Y001102D02*
X021965Y001102D01*
X022063Y001200D02*
X022249Y001200D01*
X022203Y001299D02*
X022109Y001299D01*
X022146Y001398D02*
X022166Y001398D01*
X022166Y001496D02*
X022146Y001496D01*
X022146Y001595D02*
X022166Y001595D01*
X022166Y001693D02*
X022146Y001693D01*
X022146Y001792D02*
X022166Y001792D01*
X022166Y001890D02*
X022146Y001890D01*
X022146Y001989D02*
X022166Y001989D01*
X022166Y002087D02*
X022146Y002087D01*
X022146Y002186D02*
X022166Y002186D01*
X022191Y002284D02*
X022121Y002284D01*
X022080Y002383D02*
X022232Y002383D01*
X022318Y002482D02*
X021994Y002482D01*
X021841Y002580D02*
X022471Y002580D01*
X021471Y002580D02*
X020841Y002580D01*
X020994Y002482D02*
X021318Y002482D01*
X021232Y002383D02*
X021080Y002383D01*
X021121Y002284D02*
X021191Y002284D01*
X021166Y002186D02*
X021146Y002186D01*
X021146Y002087D02*
X021166Y002087D01*
X021166Y001989D02*
X021146Y001989D01*
X021146Y001890D02*
X021166Y001890D01*
X021166Y001792D02*
X021146Y001792D01*
X021146Y001693D02*
X021166Y001693D01*
X021166Y001595D02*
X021146Y001595D01*
X021146Y001496D02*
X021166Y001496D01*
X021166Y001398D02*
X021146Y001398D01*
X021109Y001299D02*
X021203Y001299D01*
X021249Y001200D02*
X021063Y001200D01*
X020965Y001102D02*
X021347Y001102D01*
X020347Y001102D02*
X019965Y001102D01*
X020063Y001200D02*
X020249Y001200D01*
X020203Y001299D02*
X020109Y001299D01*
X020146Y001398D02*
X020166Y001398D01*
X020166Y001496D02*
X020146Y001496D01*
X020146Y001595D02*
X020166Y001595D01*
X020166Y001693D02*
X020146Y001693D01*
X020146Y001792D02*
X020166Y001792D01*
X020166Y001890D02*
X020146Y001890D01*
X020146Y001989D02*
X020166Y001989D01*
X020166Y002087D02*
X020146Y002087D01*
X020146Y002186D02*
X020166Y002186D01*
X020191Y002284D02*
X020121Y002284D01*
X020080Y002383D02*
X020232Y002383D01*
X020318Y002482D02*
X019994Y002482D01*
X019841Y002580D02*
X020471Y002580D01*
X019471Y002580D02*
X018841Y002580D01*
X018994Y002482D02*
X019318Y002482D01*
X019232Y002383D02*
X019080Y002383D01*
X019121Y002284D02*
X019191Y002284D01*
X019166Y002186D02*
X019146Y002186D01*
X019146Y002087D02*
X019166Y002087D01*
X019166Y001989D02*
X019146Y001989D01*
X019146Y001890D02*
X019166Y001890D01*
X019166Y001792D02*
X019146Y001792D01*
X019146Y001693D02*
X019166Y001693D01*
X019166Y001595D02*
X019146Y001595D01*
X019146Y001496D02*
X019166Y001496D01*
X019166Y001398D02*
X019146Y001398D01*
X019109Y001299D02*
X019203Y001299D01*
X019249Y001200D02*
X019063Y001200D01*
X018965Y001102D02*
X019347Y001102D01*
X018347Y001102D02*
X017965Y001102D01*
X018063Y001200D02*
X018249Y001200D01*
X018203Y001299D02*
X018109Y001299D01*
X018146Y001398D02*
X018166Y001398D01*
X018166Y001496D02*
X018146Y001496D01*
X018146Y001595D02*
X018166Y001595D01*
X018166Y001693D02*
X018146Y001693D01*
X018146Y001792D02*
X018166Y001792D01*
X018166Y001890D02*
X018146Y001890D01*
X018146Y001989D02*
X018166Y001989D01*
X018166Y002087D02*
X018146Y002087D01*
X018146Y002186D02*
X018166Y002186D01*
X018191Y002284D02*
X018121Y002284D01*
X018080Y002383D02*
X018232Y002383D01*
X018318Y002482D02*
X017994Y002482D01*
X017841Y002580D02*
X018471Y002580D01*
X017471Y002580D02*
X016841Y002580D01*
X016994Y002482D02*
X017318Y002482D01*
X017232Y002383D02*
X017080Y002383D01*
X017121Y002284D02*
X017191Y002284D01*
X017166Y002186D02*
X017146Y002186D01*
X017146Y002087D02*
X017166Y002087D01*
X017166Y001989D02*
X017146Y001989D01*
X017146Y001890D02*
X017166Y001890D01*
X017166Y001792D02*
X017146Y001792D01*
X017146Y001693D02*
X017166Y001693D01*
X017166Y001595D02*
X017146Y001595D01*
X017146Y001496D02*
X017166Y001496D01*
X017166Y001398D02*
X017146Y001398D01*
X017109Y001299D02*
X017203Y001299D01*
X017249Y001200D02*
X017063Y001200D01*
X016965Y001102D02*
X017347Y001102D01*
X016347Y001102D02*
X015965Y001102D01*
X016063Y001200D02*
X016249Y001200D01*
X016203Y001299D02*
X016109Y001299D01*
X016146Y001398D02*
X016166Y001398D01*
X016166Y001496D02*
X016146Y001496D01*
X016146Y001595D02*
X016166Y001595D01*
X016166Y001693D02*
X016146Y001693D01*
X016146Y001792D02*
X016166Y001792D01*
X016166Y001890D02*
X016146Y001890D01*
X016146Y001989D02*
X016166Y001989D01*
X016166Y002087D02*
X016146Y002087D01*
X016146Y002186D02*
X016166Y002186D01*
X016191Y002284D02*
X016121Y002284D01*
X016080Y002383D02*
X016232Y002383D01*
X016318Y002482D02*
X015994Y002482D01*
X015841Y002580D02*
X016471Y002580D01*
X015471Y002580D02*
X013841Y002580D01*
X013994Y002482D02*
X015318Y002482D01*
X015232Y002383D02*
X014080Y002383D01*
X014121Y002284D02*
X015191Y002284D01*
X015166Y002186D02*
X014146Y002186D01*
X014146Y002087D02*
X015166Y002087D01*
X015166Y001989D02*
X014146Y001989D01*
X014146Y001890D02*
X015166Y001890D01*
X015166Y001792D02*
X014146Y001792D01*
X014146Y001693D02*
X015166Y001693D01*
X015166Y001595D02*
X014146Y001595D01*
X014146Y001496D02*
X015166Y001496D01*
X015166Y001398D02*
X014146Y001398D01*
X014109Y001299D02*
X015203Y001299D01*
X015249Y001200D02*
X014063Y001200D01*
X013965Y001102D02*
X015347Y001102D01*
X013347Y001102D02*
X012965Y001102D01*
X013063Y001200D02*
X013249Y001200D01*
X013203Y001299D02*
X013109Y001299D01*
X013146Y001398D02*
X013166Y001398D01*
X013166Y001496D02*
X013146Y001496D01*
X013146Y001595D02*
X013166Y001595D01*
X013166Y001693D02*
X013146Y001693D01*
X013146Y001792D02*
X013166Y001792D01*
X013166Y001890D02*
X013146Y001890D01*
X013146Y001989D02*
X013166Y001989D01*
X013166Y002087D02*
X013146Y002087D01*
X013146Y002186D02*
X013166Y002186D01*
X013191Y002284D02*
X013121Y002284D01*
X013080Y002383D02*
X013232Y002383D01*
X013318Y002482D02*
X012994Y002482D01*
X012841Y002580D02*
X013471Y002580D01*
X012471Y002580D02*
X011780Y002580D01*
X011766Y002585D02*
X011836Y002562D01*
X011902Y002528D01*
X011962Y002485D01*
X012015Y002432D01*
X012058Y002373D01*
X012092Y002307D01*
X012114Y002236D01*
X012126Y002163D01*
X012126Y001856D01*
X011706Y001856D01*
X011706Y001756D01*
X011706Y001018D01*
X011766Y001028D01*
X011836Y001051D01*
X011902Y001084D01*
X011962Y001128D01*
X012015Y001180D01*
X012058Y001240D01*
X012092Y001306D01*
X012114Y001376D01*
X012126Y001449D01*
X012126Y001756D01*
X011706Y001756D01*
X011606Y001756D01*
X011606Y001018D01*
X011546Y001028D01*
X011476Y001051D01*
X011410Y001084D01*
X011350Y001128D01*
X011298Y001180D01*
X011254Y001240D01*
X011221Y001306D01*
X011198Y001376D01*
X011186Y001449D01*
X011186Y001756D01*
X011606Y001756D01*
X011606Y001856D01*
X011186Y001856D01*
X011186Y002163D01*
X011198Y002236D01*
X011221Y002307D01*
X011254Y002373D01*
X011298Y002432D01*
X011350Y002485D01*
X011410Y002528D01*
X011476Y002562D01*
X011546Y002585D01*
X011606Y002594D01*
X011606Y001856D01*
X011706Y001856D01*
X011706Y002594D01*
X011766Y002585D01*
X011706Y002580D02*
X011606Y002580D01*
X011532Y002580D02*
X010841Y002580D01*
X010994Y002482D02*
X011347Y002482D01*
X011262Y002383D02*
X011080Y002383D01*
X011121Y002284D02*
X011213Y002284D01*
X011190Y002186D02*
X011146Y002186D01*
X011146Y002087D02*
X011186Y002087D01*
X011186Y001989D02*
X011146Y001989D01*
X011146Y001890D02*
X011186Y001890D01*
X011146Y001792D02*
X011606Y001792D01*
X011606Y001890D02*
X011706Y001890D01*
X011706Y001792D02*
X012166Y001792D01*
X012166Y001890D02*
X012126Y001890D01*
X012126Y001989D02*
X012166Y001989D01*
X012166Y002087D02*
X012126Y002087D01*
X012122Y002186D02*
X012166Y002186D01*
X012191Y002284D02*
X012099Y002284D01*
X012050Y002383D02*
X012232Y002383D01*
X012318Y002482D02*
X011965Y002482D01*
X011706Y002482D02*
X011606Y002482D01*
X011606Y002383D02*
X011706Y002383D01*
X011706Y002284D02*
X011606Y002284D01*
X011606Y002186D02*
X011706Y002186D01*
X011706Y002087D02*
X011606Y002087D01*
X011606Y001989D02*
X011706Y001989D01*
X011706Y001693D02*
X011606Y001693D01*
X011606Y001595D02*
X011706Y001595D01*
X011706Y001496D02*
X011606Y001496D01*
X011606Y001398D02*
X011706Y001398D01*
X011706Y001299D02*
X011606Y001299D01*
X011606Y001200D02*
X011706Y001200D01*
X011706Y001102D02*
X011606Y001102D01*
X011385Y001102D02*
X010965Y001102D01*
X011063Y001200D02*
X011283Y001200D01*
X011224Y001299D02*
X011109Y001299D01*
X011146Y001398D02*
X011194Y001398D01*
X011186Y001496D02*
X011146Y001496D01*
X011146Y001595D02*
X011186Y001595D01*
X011186Y001693D02*
X011146Y001693D01*
X012029Y001200D02*
X012249Y001200D01*
X012203Y001299D02*
X012088Y001299D01*
X012118Y001398D02*
X012166Y001398D01*
X012166Y001496D02*
X012126Y001496D01*
X012126Y001595D02*
X012166Y001595D01*
X012166Y001693D02*
X012126Y001693D01*
X011927Y001102D02*
X012347Y001102D01*
X010347Y001102D02*
X009965Y001102D01*
X010063Y001200D02*
X010249Y001200D01*
X010203Y001299D02*
X010109Y001299D01*
X010146Y001398D02*
X010166Y001398D01*
X010166Y001496D02*
X010146Y001496D01*
X010146Y001595D02*
X010166Y001595D01*
X010166Y001693D02*
X010146Y001693D01*
X010146Y001792D02*
X010166Y001792D01*
X010166Y001890D02*
X010146Y001890D01*
X010146Y001989D02*
X010166Y001989D01*
X010166Y002087D02*
X010146Y002087D01*
X010146Y002186D02*
X010166Y002186D01*
X010191Y002284D02*
X010121Y002284D01*
X010080Y002383D02*
X010232Y002383D01*
X010318Y002482D02*
X009994Y002482D01*
X009841Y002580D02*
X010471Y002580D01*
X009471Y002580D02*
X008841Y002580D01*
X008994Y002482D02*
X009318Y002482D01*
X009232Y002383D02*
X009080Y002383D01*
X009121Y002284D02*
X009191Y002284D01*
X009166Y002186D02*
X009146Y002186D01*
X009146Y002087D02*
X009166Y002087D01*
X009166Y001989D02*
X009146Y001989D01*
X009146Y001890D02*
X009166Y001890D01*
X009166Y001792D02*
X009146Y001792D01*
X009146Y001693D02*
X009166Y001693D01*
X009166Y001595D02*
X009146Y001595D01*
X009146Y001496D02*
X009166Y001496D01*
X009166Y001398D02*
X009146Y001398D01*
X009109Y001299D02*
X009203Y001299D01*
X009249Y001200D02*
X009063Y001200D01*
X008965Y001102D02*
X009347Y001102D01*
X012961Y006336D02*
X013351Y006336D01*
X013626Y006612D01*
X013626Y007001D01*
X013351Y007276D01*
X012961Y007276D01*
X012686Y007001D01*
X012686Y006612D01*
X012961Y006336D01*
X012874Y006423D02*
X012438Y006423D01*
X012536Y006522D02*
X012776Y006522D01*
X012686Y006620D02*
X012626Y006620D01*
X012626Y006719D02*
X012686Y006719D01*
X012686Y006817D02*
X012626Y006817D01*
X012626Y006916D02*
X012686Y006916D01*
X012700Y007015D02*
X012612Y007015D01*
X012514Y007113D02*
X012798Y007113D01*
X012897Y007212D02*
X012415Y007212D01*
X012423Y007409D02*
X012889Y007409D01*
X012961Y007336D02*
X013351Y007336D01*
X013626Y007612D01*
X013626Y008001D01*
X013351Y008276D01*
X012961Y008276D01*
X012686Y008001D01*
X012686Y007612D01*
X012961Y007336D01*
X012790Y007507D02*
X012522Y007507D01*
X012620Y007606D02*
X012692Y007606D01*
X012686Y007704D02*
X012626Y007704D01*
X012626Y007803D02*
X012686Y007803D01*
X012686Y007901D02*
X012626Y007901D01*
X012626Y008000D02*
X012686Y008000D01*
X012784Y008099D02*
X012528Y008099D01*
X012430Y008197D02*
X012882Y008197D01*
X013430Y008197D02*
X013882Y008197D01*
X013961Y008276D02*
X013686Y008001D01*
X013686Y007612D01*
X013961Y007336D01*
X014351Y007336D01*
X014626Y007612D01*
X014626Y008001D01*
X014351Y008276D01*
X013961Y008276D01*
X013784Y008099D02*
X013528Y008099D01*
X013626Y008000D02*
X013686Y008000D01*
X013686Y007901D02*
X013626Y007901D01*
X013626Y007803D02*
X013686Y007803D01*
X013686Y007704D02*
X013626Y007704D01*
X013620Y007606D02*
X013692Y007606D01*
X013790Y007507D02*
X013522Y007507D01*
X013423Y007409D02*
X013889Y007409D01*
X013961Y007276D02*
X013686Y007001D01*
X013686Y006612D01*
X013961Y006336D01*
X014351Y006336D01*
X014626Y006612D01*
X014626Y007001D01*
X014351Y007276D01*
X013961Y007276D01*
X013897Y007212D02*
X013415Y007212D01*
X013514Y007113D02*
X013798Y007113D01*
X013700Y007015D02*
X013612Y007015D01*
X013626Y006916D02*
X013686Y006916D01*
X013686Y006817D02*
X013626Y006817D01*
X013626Y006719D02*
X013686Y006719D01*
X013686Y006620D02*
X013626Y006620D01*
X013536Y006522D02*
X013776Y006522D01*
X013874Y006423D02*
X013438Y006423D01*
X014438Y006423D02*
X014874Y006423D01*
X014776Y006522D02*
X014536Y006522D01*
X014626Y006620D02*
X014686Y006620D01*
X014686Y006719D02*
X014626Y006719D01*
X014626Y006817D02*
X014686Y006817D01*
X014686Y006916D02*
X014626Y006916D01*
X014612Y007015D02*
X014700Y007015D01*
X014798Y007113D02*
X014514Y007113D01*
X014415Y007212D02*
X014897Y007212D01*
X014889Y007409D02*
X014423Y007409D01*
X014522Y007507D02*
X014790Y007507D01*
X014692Y007606D02*
X014620Y007606D01*
X014626Y007704D02*
X014686Y007704D01*
X014686Y007803D02*
X014626Y007803D01*
X014626Y007901D02*
X014686Y007901D01*
X014686Y008000D02*
X014626Y008000D01*
X014528Y008099D02*
X014784Y008099D01*
X014882Y008197D02*
X014430Y008197D01*
X015514Y007113D02*
X015826Y007113D01*
X015728Y007015D02*
X015612Y007015D01*
X015626Y006916D02*
X015706Y006916D01*
X016626Y007901D02*
X016706Y007901D01*
X016713Y008000D02*
X016626Y008000D01*
X016528Y008099D02*
X016812Y008099D01*
X016910Y008197D02*
X016430Y008197D01*
X017116Y008197D02*
X017196Y008197D01*
X017196Y008099D02*
X017116Y008099D01*
X017116Y008000D02*
X017196Y008000D01*
X017196Y007901D02*
X017116Y007901D01*
X017116Y007704D02*
X017196Y007704D01*
X017196Y007606D02*
X017116Y007606D01*
X017116Y007507D02*
X017196Y007507D01*
X017196Y007409D02*
X017116Y007409D01*
X011798Y007113D02*
X000326Y007113D01*
X000326Y007015D02*
X011700Y007015D01*
X011686Y006916D02*
X000326Y006916D01*
X000326Y006817D02*
X011686Y006817D01*
X011686Y006719D02*
X000326Y006719D01*
X000326Y006620D02*
X011686Y006620D01*
X011776Y006522D02*
X000326Y006522D01*
X000326Y006423D02*
X011874Y006423D01*
X000326Y006325D02*
X032445Y006325D01*
X032383Y006226D02*
X000326Y006226D01*
X000326Y006128D02*
X032284Y006128D01*
X032951Y007409D02*
X033361Y007409D01*
X033262Y007507D02*
X033050Y007507D01*
X033146Y007606D02*
X033166Y007606D01*
X033166Y007704D02*
X033146Y007704D01*
X033146Y007803D02*
X033166Y007803D01*
X033166Y007901D02*
X033146Y007901D01*
X033146Y008000D02*
X033166Y008000D01*
X033255Y008099D02*
X033057Y008099D01*
X032958Y008197D02*
X033354Y008197D01*
X033452Y008296D02*
X032860Y008296D01*
X032937Y008394D02*
X033375Y008394D01*
X033277Y008493D02*
X033035Y008493D01*
X033134Y008591D02*
X033178Y008591D01*
X033166Y008690D02*
X033146Y008690D01*
X033146Y008788D02*
X033166Y008788D01*
X033166Y008887D02*
X033146Y008887D01*
X033146Y008985D02*
X033166Y008985D01*
X033241Y009084D02*
X033071Y009084D01*
X032973Y009182D02*
X033339Y009182D01*
X033438Y009281D02*
X032874Y009281D01*
X032922Y009380D02*
X033390Y009380D01*
X033291Y009478D02*
X033021Y009478D01*
X033119Y009577D02*
X033193Y009577D01*
X033166Y009675D02*
X033146Y009675D01*
X033146Y009774D02*
X033166Y009774D01*
X033166Y009872D02*
X033146Y009872D01*
X033146Y009971D02*
X033166Y009971D01*
X033226Y010069D02*
X033086Y010069D01*
M02*
