G75*
G70*
%OFA0B0*%
%FSLAX24Y24*%
%IPPOS*%
%LPD*%
%AMOC8*
5,1,8,0,0,1.08239X$1,22.5*
%
%ADD10C,0.1340*%
%ADD11C,0.0720*%
%ADD12OC8,0.0720*%
%ADD13OC8,0.0680*%
D10*
X006151Y020806D03*
X035651Y020806D03*
X038151Y001806D03*
D11*
X013151Y001486D02*
X013151Y002126D01*
X014151Y002126D02*
X014151Y001486D01*
X015151Y001486D02*
X015151Y002126D01*
X016151Y002126D02*
X016151Y001486D01*
X017151Y001486D02*
X017151Y002126D01*
X018151Y002126D02*
X018151Y001486D01*
X020151Y001486D02*
X020151Y002126D01*
X021151Y002126D02*
X021151Y001486D01*
X022151Y001486D02*
X022151Y002126D01*
X023151Y002126D02*
X023151Y001486D01*
X024151Y001486D02*
X024151Y002126D01*
X025151Y002126D02*
X025151Y001486D01*
X026151Y001486D02*
X026151Y002126D01*
X027151Y002126D02*
X027151Y001486D01*
X029151Y001486D02*
X029151Y002126D01*
X030151Y002126D02*
X030151Y001486D01*
X031151Y001486D02*
X031151Y002126D01*
X032151Y002126D02*
X032151Y001486D01*
X033151Y001486D02*
X033151Y002126D01*
X034151Y002126D02*
X034151Y001486D01*
X035151Y001486D02*
X035151Y002126D01*
X036151Y002126D02*
X036151Y001486D01*
X034151Y020486D02*
X034151Y021126D01*
X033151Y021126D02*
X033151Y020486D01*
X032151Y020486D02*
X032151Y021126D01*
X031151Y021126D02*
X031151Y020486D01*
X030151Y020486D02*
X030151Y021126D01*
X029151Y021126D02*
X029151Y020486D01*
X028151Y020486D02*
X028151Y021126D01*
X027151Y021126D02*
X027151Y020486D01*
X025151Y020486D02*
X025151Y021126D01*
X024151Y021126D02*
X024151Y020486D01*
X023151Y020486D02*
X023151Y021126D01*
X022151Y021126D02*
X022151Y020486D01*
X021151Y020486D02*
X021151Y021126D01*
X020151Y021126D02*
X020151Y020486D01*
X019151Y020486D02*
X019151Y021126D01*
X018151Y021126D02*
X018151Y020486D01*
X016651Y020486D02*
X016651Y021126D01*
X015651Y021126D02*
X015651Y020486D01*
X014651Y020486D02*
X014651Y021126D01*
X013651Y021126D02*
X013651Y020486D01*
X012651Y020486D02*
X012651Y021126D01*
X011651Y021126D02*
X011651Y020486D01*
X010651Y020486D02*
X010651Y021126D01*
X009651Y021126D02*
X009651Y020486D01*
D12*
X037151Y020806D03*
X038151Y020806D03*
X038151Y019806D03*
X037151Y019806D03*
X037151Y018806D03*
X038151Y018806D03*
X038151Y017806D03*
X037151Y017806D03*
X037151Y016806D03*
X038151Y016806D03*
X038151Y015806D03*
X037151Y015806D03*
X037151Y014806D03*
X038151Y014806D03*
X038151Y013806D03*
X037151Y013806D03*
X037151Y012806D03*
X038151Y012806D03*
X038151Y011806D03*
X037151Y011806D03*
X037151Y010806D03*
X038151Y010806D03*
X038151Y009806D03*
X037151Y009806D03*
X037151Y008806D03*
X038151Y008806D03*
X038151Y007806D03*
X037151Y007806D03*
X037151Y006806D03*
X038151Y006806D03*
X038151Y005806D03*
X037151Y005806D03*
X037151Y004806D03*
X038151Y004806D03*
X038151Y003806D03*
X037151Y003806D03*
D13*
X032651Y006806D03*
X031651Y006806D03*
X030651Y006806D03*
X029651Y006806D03*
X028651Y006806D03*
X027651Y006806D03*
X026651Y006806D03*
X025651Y006806D03*
X024651Y006806D03*
X023651Y006806D03*
X022651Y006806D03*
X021651Y006806D03*
X020651Y006806D03*
X019651Y006806D03*
X018651Y006806D03*
X017651Y006806D03*
X016651Y006806D03*
X016651Y007806D03*
X017651Y007806D03*
X018651Y007806D03*
X019651Y007806D03*
X020651Y007806D03*
X021651Y007806D03*
X022651Y007806D03*
X023651Y007806D03*
X024651Y007806D03*
X025651Y007806D03*
X026651Y007806D03*
X027651Y007806D03*
X028651Y007806D03*
X029651Y007806D03*
X030651Y007806D03*
X031651Y007806D03*
X032651Y007806D03*
X032651Y014806D03*
X031651Y014806D03*
X030651Y014806D03*
X029651Y014806D03*
X028651Y014806D03*
X027651Y014806D03*
X026651Y014806D03*
X025651Y014806D03*
X024651Y014806D03*
X023651Y014806D03*
X022651Y014806D03*
X021651Y014806D03*
X020651Y014806D03*
X019651Y014806D03*
X018651Y014806D03*
X017651Y014806D03*
X016651Y014806D03*
X015651Y014806D03*
X014651Y014806D03*
X013651Y014806D03*
X012651Y014806D03*
X011651Y014806D03*
X010651Y014806D03*
X009651Y014806D03*
X008651Y014806D03*
X008651Y015806D03*
X009651Y015806D03*
X010651Y015806D03*
X011651Y015806D03*
X012651Y015806D03*
X013651Y015806D03*
X014651Y015806D03*
X015651Y015806D03*
X016651Y015806D03*
X017651Y015806D03*
X018651Y015806D03*
X019651Y015806D03*
X020651Y015806D03*
X021651Y015806D03*
X022651Y015806D03*
X023651Y015806D03*
X024651Y015806D03*
X025651Y015806D03*
X026651Y015806D03*
X027651Y015806D03*
X028651Y015806D03*
X029651Y015806D03*
X030651Y015806D03*
X031651Y015806D03*
X032651Y015806D03*
M02*
