G75*
G70*
%OFA0B0*%
%FSLAX24Y24*%
%IPPOS*%
%LPD*%
%AMOC8*
5,1,8,0,0,1.08239X$1,22.5*
%
%ADD10C,0.0640*%
%ADD11OC8,0.0640*%
%ADD12OC8,0.0630*%
%ADD13C,0.0120*%
%ADD14C,0.0140*%
D10*
X008666Y001486D02*
X008666Y002126D01*
X009666Y002126D02*
X009666Y001486D01*
X010666Y001486D02*
X010666Y002126D01*
X011666Y002126D02*
X011666Y001486D01*
X012666Y001486D02*
X012666Y002126D01*
X013666Y002126D02*
X013666Y001486D01*
X015666Y001486D02*
X015666Y002126D01*
X016666Y002126D02*
X016666Y001486D01*
X017666Y001486D02*
X017666Y002126D01*
X018666Y002126D02*
X018666Y001486D01*
X019666Y001486D02*
X019666Y002126D01*
X020666Y002126D02*
X020666Y001486D01*
X021666Y001486D02*
X021666Y002126D01*
X022666Y002126D02*
X022666Y001486D01*
X024666Y001486D02*
X024666Y002126D01*
X025666Y002126D02*
X025666Y001486D01*
X026666Y001486D02*
X026666Y002126D01*
X027666Y002126D02*
X027666Y001486D01*
X028666Y001486D02*
X028666Y002126D01*
X029666Y002126D02*
X029666Y001486D01*
X030666Y001486D02*
X030666Y002126D01*
X031666Y002126D02*
X031666Y001486D01*
X029666Y020486D02*
X029666Y021126D01*
X028666Y021126D02*
X028666Y020486D01*
X027666Y020486D02*
X027666Y021126D01*
X026666Y021126D02*
X026666Y020486D01*
X025666Y020486D02*
X025666Y021126D01*
X024666Y021126D02*
X024666Y020486D01*
X023666Y020486D02*
X023666Y021126D01*
X022666Y021126D02*
X022666Y020486D01*
X020666Y020486D02*
X020666Y021126D01*
X019666Y021126D02*
X019666Y020486D01*
X018666Y020486D02*
X018666Y021126D01*
X017666Y021126D02*
X017666Y020486D01*
X016666Y020486D02*
X016666Y021126D01*
X015666Y021126D02*
X015666Y020486D01*
X014666Y020486D02*
X014666Y021126D01*
X013666Y021126D02*
X013666Y020486D01*
X012166Y020486D02*
X012166Y021126D01*
X011166Y021126D02*
X011166Y020486D01*
X010166Y020486D02*
X010166Y021126D01*
X009166Y021126D02*
X009166Y020486D01*
X008166Y020486D02*
X008166Y021126D01*
X007166Y021126D02*
X007166Y020486D01*
X006166Y020486D02*
X006166Y021126D01*
X005166Y021126D02*
X005166Y020486D01*
D11*
X032666Y020806D03*
X033666Y020806D03*
X033666Y019806D03*
X032666Y019806D03*
X032666Y018806D03*
X033666Y018806D03*
X033666Y017806D03*
X032666Y017806D03*
X032666Y016806D03*
X033666Y016806D03*
X033666Y015806D03*
X032666Y015806D03*
X032666Y014806D03*
X033666Y014806D03*
X033666Y013806D03*
X032666Y013806D03*
X032666Y012806D03*
X033666Y012806D03*
X033666Y011806D03*
X032666Y011806D03*
X032666Y010806D03*
X033666Y010806D03*
X033666Y009806D03*
X032666Y009806D03*
X032666Y008806D03*
X033666Y008806D03*
X033666Y007806D03*
X032666Y007806D03*
X032666Y006806D03*
X033666Y006806D03*
X033666Y005806D03*
X032666Y005806D03*
X032666Y004806D03*
X033666Y004806D03*
X033666Y003806D03*
X032666Y003806D03*
D12*
X028166Y006806D03*
X027166Y006806D03*
X026166Y006806D03*
X025166Y006806D03*
X024166Y006806D03*
X023166Y006806D03*
X022166Y006806D03*
X021166Y006806D03*
X020166Y006806D03*
X019166Y006806D03*
X018166Y006806D03*
X017166Y006806D03*
X016166Y006806D03*
X015166Y006806D03*
X014166Y006806D03*
X013166Y006806D03*
X012166Y006806D03*
X012166Y007806D03*
X013166Y007806D03*
X014166Y007806D03*
X015166Y007806D03*
X016166Y007806D03*
X017166Y007806D03*
X018166Y007806D03*
X019166Y007806D03*
X020166Y007806D03*
X021166Y007806D03*
X022166Y007806D03*
X023166Y007806D03*
X024166Y007806D03*
X025166Y007806D03*
X026166Y007806D03*
X027166Y007806D03*
X028166Y007806D03*
X028166Y014806D03*
X027166Y014806D03*
X026166Y014806D03*
X025166Y014806D03*
X024166Y014806D03*
X023166Y014806D03*
X022166Y014806D03*
X021166Y014806D03*
X020166Y014806D03*
X019166Y014806D03*
X018166Y014806D03*
X017166Y014806D03*
X016166Y014806D03*
X015166Y014806D03*
X014166Y014806D03*
X013166Y014806D03*
X012166Y014806D03*
X011166Y014806D03*
X010166Y014806D03*
X009166Y014806D03*
X008166Y014806D03*
X007166Y014806D03*
X006166Y014806D03*
X005166Y014806D03*
X004166Y014806D03*
X004166Y015806D03*
X005166Y015806D03*
X006166Y015806D03*
X007166Y015806D03*
X008166Y015806D03*
X009166Y015806D03*
X010166Y015806D03*
X011166Y015806D03*
X012166Y015806D03*
X013166Y015806D03*
X014166Y015806D03*
X015166Y015806D03*
X016166Y015806D03*
X017166Y015806D03*
X018166Y015806D03*
X019166Y015806D03*
X020166Y015806D03*
X021166Y015806D03*
X022166Y015806D03*
X023166Y015806D03*
X024166Y015806D03*
X025166Y015806D03*
X026166Y015806D03*
X027166Y015806D03*
X028166Y015806D03*
D13*
X000356Y021616D02*
X000356Y000996D01*
X008517Y000996D01*
X008377Y001054D01*
X008234Y001197D01*
X008156Y001385D01*
X008156Y002228D01*
X008234Y002415D01*
X008377Y002559D01*
X008565Y002636D01*
X008768Y002636D01*
X008955Y002559D01*
X009098Y002415D01*
X009166Y002252D01*
X009234Y002415D01*
X009377Y002559D01*
X009565Y002636D01*
X009768Y002636D01*
X009955Y002559D01*
X010098Y002415D01*
X010166Y002252D01*
X010234Y002415D01*
X010377Y002559D01*
X010565Y002636D01*
X010768Y002636D01*
X010955Y002559D01*
X011098Y002415D01*
X011176Y002228D01*
X011176Y001385D01*
X011098Y001197D01*
X010955Y001054D01*
X010816Y000996D01*
X012517Y000996D01*
X012377Y001054D01*
X012234Y001197D01*
X012156Y001385D01*
X012156Y002228D01*
X012234Y002415D01*
X012377Y002559D01*
X012565Y002636D01*
X012768Y002636D01*
X012955Y002559D01*
X013098Y002415D01*
X013166Y002252D01*
X013234Y002415D01*
X013377Y002559D01*
X013565Y002636D01*
X013768Y002636D01*
X013955Y002559D01*
X014098Y002415D01*
X014176Y002228D01*
X014176Y001385D01*
X014098Y001197D01*
X013955Y001054D01*
X013816Y000996D01*
X015517Y000996D01*
X015377Y001054D01*
X015234Y001197D01*
X015156Y001385D01*
X015156Y002228D01*
X015234Y002415D01*
X015377Y002559D01*
X015565Y002636D01*
X015768Y002636D01*
X015955Y002559D01*
X016098Y002415D01*
X016166Y002252D01*
X016234Y002415D01*
X016377Y002559D01*
X016565Y002636D01*
X016768Y002636D01*
X016955Y002559D01*
X017098Y002415D01*
X017166Y002252D01*
X017234Y002415D01*
X017377Y002559D01*
X017565Y002636D01*
X017768Y002636D01*
X017955Y002559D01*
X018098Y002415D01*
X018166Y002252D01*
X018234Y002415D01*
X018377Y002559D01*
X018565Y002636D01*
X018768Y002636D01*
X018955Y002559D01*
X019098Y002415D01*
X019166Y002252D01*
X019234Y002415D01*
X019377Y002559D01*
X019565Y002636D01*
X019768Y002636D01*
X019955Y002559D01*
X020098Y002415D01*
X020166Y002252D01*
X020234Y002415D01*
X020377Y002559D01*
X020565Y002636D01*
X020768Y002636D01*
X020955Y002559D01*
X021098Y002415D01*
X021166Y002252D01*
X021234Y002415D01*
X021377Y002559D01*
X021565Y002636D01*
X021768Y002636D01*
X021955Y002559D01*
X022098Y002415D01*
X022166Y002252D01*
X022234Y002415D01*
X022377Y002559D01*
X022565Y002636D01*
X022768Y002636D01*
X022955Y002559D01*
X023098Y002415D01*
X023176Y002228D01*
X023176Y001385D01*
X023098Y001197D01*
X022955Y001054D01*
X022816Y000996D01*
X024517Y000996D01*
X024377Y001054D01*
X024234Y001197D01*
X024156Y001385D01*
X024156Y002228D01*
X024234Y002415D01*
X024377Y002559D01*
X024565Y002636D01*
X024768Y002636D01*
X024955Y002559D01*
X025098Y002415D01*
X025166Y002252D01*
X025234Y002415D01*
X025377Y002559D01*
X025565Y002636D01*
X025768Y002636D01*
X025955Y002559D01*
X026098Y002415D01*
X026166Y002252D01*
X026234Y002415D01*
X026377Y002559D01*
X026565Y002636D01*
X026768Y002636D01*
X026955Y002559D01*
X027098Y002415D01*
X027166Y002252D01*
X027234Y002415D01*
X027377Y002559D01*
X027565Y002636D01*
X027768Y002636D01*
X027955Y002559D01*
X028098Y002415D01*
X028166Y002252D01*
X028234Y002415D01*
X028377Y002559D01*
X028565Y002636D01*
X028768Y002636D01*
X028955Y002559D01*
X029098Y002415D01*
X029166Y002252D01*
X029234Y002415D01*
X029377Y002559D01*
X029565Y002636D01*
X029768Y002636D01*
X029955Y002559D01*
X030098Y002415D01*
X030166Y002252D01*
X030234Y002415D01*
X030377Y002559D01*
X030565Y002636D01*
X030768Y002636D01*
X030955Y002559D01*
X031098Y002415D01*
X031166Y002252D01*
X031234Y002415D01*
X031377Y002559D01*
X031565Y002636D01*
X031768Y002636D01*
X031955Y002559D01*
X032098Y002415D01*
X032176Y002228D01*
X032176Y001385D01*
X032098Y001197D01*
X031955Y001054D01*
X031816Y000996D01*
X033479Y000996D01*
X033202Y001111D01*
X032971Y001342D01*
X032846Y001643D01*
X032846Y001969D01*
X032971Y002271D01*
X033202Y002501D01*
X033503Y002626D01*
X033829Y002626D01*
X034131Y002501D01*
X034361Y002271D01*
X034486Y001969D01*
X034486Y001643D01*
X034361Y001342D01*
X034131Y001111D01*
X033853Y000996D01*
X034476Y000996D01*
X034476Y001385D01*
X034587Y001496D01*
X035476Y002385D01*
X035476Y015728D01*
X034587Y016616D01*
X034587Y016616D01*
X034476Y016728D01*
X034476Y020728D01*
X033587Y021616D01*
X031353Y021616D01*
X031631Y021501D01*
X031861Y021271D01*
X031986Y020969D01*
X031986Y020643D01*
X031880Y020388D01*
X032019Y020527D01*
X032114Y020566D01*
X032185Y020566D01*
X032156Y020595D01*
X032156Y021018D01*
X032455Y021316D01*
X032877Y021316D01*
X033166Y021027D01*
X033455Y021316D01*
X033877Y021316D01*
X034176Y021018D01*
X034176Y020595D01*
X033887Y020306D01*
X034176Y020018D01*
X034176Y019595D01*
X033887Y019306D01*
X034176Y019018D01*
X034176Y018595D01*
X033887Y018306D01*
X034176Y018018D01*
X034176Y017595D01*
X033887Y017306D01*
X034176Y017018D01*
X034176Y016595D01*
X033887Y016306D01*
X034176Y016018D01*
X034176Y015595D01*
X033887Y015306D01*
X034176Y015018D01*
X034176Y014595D01*
X033887Y014306D01*
X034176Y014018D01*
X034176Y013595D01*
X033887Y013306D01*
X034176Y013018D01*
X034176Y012595D01*
X033887Y012306D01*
X034176Y012018D01*
X034176Y011595D01*
X033887Y011306D01*
X034176Y011018D01*
X034176Y010595D01*
X033887Y010306D01*
X034176Y010018D01*
X034176Y009595D01*
X033887Y009306D01*
X034176Y009018D01*
X034176Y008595D01*
X033887Y008306D01*
X034176Y008018D01*
X034176Y007595D01*
X033887Y007306D01*
X034176Y007018D01*
X034176Y006595D01*
X033887Y006306D01*
X034176Y006018D01*
X034176Y005595D01*
X033887Y005306D01*
X034176Y005018D01*
X034176Y004595D01*
X033877Y004296D01*
X033455Y004296D01*
X033166Y004585D01*
X032877Y004296D01*
X032455Y004296D01*
X032156Y004595D01*
X032156Y005018D01*
X032445Y005306D01*
X032156Y005595D01*
X032156Y006018D01*
X032445Y006306D01*
X032156Y006595D01*
X032156Y007018D01*
X032445Y007306D01*
X032156Y007595D01*
X032156Y008018D01*
X032445Y008306D01*
X032156Y008595D01*
X032156Y009018D01*
X032445Y009306D01*
X032156Y009595D01*
X032156Y010018D01*
X032445Y010306D01*
X032205Y010546D01*
X014614Y010546D01*
X014519Y010586D01*
X014446Y010659D01*
X013946Y011159D01*
X013906Y011255D01*
X013906Y011358D01*
X013906Y014352D01*
X013666Y014592D01*
X013375Y014301D01*
X012957Y014301D01*
X012666Y014592D01*
X012375Y014301D01*
X011957Y014301D01*
X011666Y014592D01*
X011375Y014301D01*
X010957Y014301D01*
X010666Y014592D01*
X010375Y014301D01*
X009957Y014301D01*
X009666Y014592D01*
X009375Y014301D01*
X008957Y014301D01*
X008666Y014592D01*
X008375Y014301D01*
X007957Y014301D01*
X007666Y014592D01*
X007375Y014301D01*
X006957Y014301D01*
X006666Y014592D01*
X006375Y014301D01*
X005957Y014301D01*
X005666Y014592D01*
X005375Y014301D01*
X004957Y014301D01*
X004666Y014592D01*
X004375Y014301D01*
X003957Y014301D01*
X003661Y014597D01*
X003661Y015015D01*
X003952Y015306D01*
X003661Y015597D01*
X003661Y016015D01*
X003957Y016311D01*
X004375Y016311D01*
X004666Y016020D01*
X004957Y016311D01*
X005375Y016311D01*
X005406Y016280D01*
X005406Y016358D01*
X005446Y016454D01*
X000356Y016454D01*
X000356Y016335D02*
X005406Y016335D01*
X005446Y016454D02*
X008946Y019954D01*
X008997Y020004D01*
X008877Y020054D01*
X008734Y020197D01*
X008666Y020361D01*
X008598Y020197D01*
X008455Y020054D01*
X008268Y019976D01*
X008065Y019976D01*
X007877Y020054D01*
X007734Y020197D01*
X007666Y020361D01*
X007598Y020197D01*
X007455Y020054D01*
X007268Y019976D01*
X007065Y019976D01*
X006877Y020054D01*
X006734Y020197D01*
X006656Y020385D01*
X006656Y021228D01*
X006734Y021415D01*
X006877Y021559D01*
X007017Y021616D01*
X005316Y021616D01*
X005455Y021559D01*
X005598Y021415D01*
X005676Y021228D01*
X005676Y020385D01*
X005598Y020197D01*
X005455Y020054D01*
X005268Y019976D01*
X005065Y019976D01*
X004877Y020054D01*
X004734Y020197D01*
X004656Y020385D01*
X004656Y021228D01*
X004734Y021415D01*
X004877Y021559D01*
X005017Y021616D01*
X001853Y021616D01*
X002131Y021501D01*
X002361Y021271D01*
X002486Y020969D01*
X002486Y020643D01*
X002361Y020342D01*
X002131Y020111D01*
X001829Y019986D01*
X001503Y019986D01*
X001202Y020111D01*
X000971Y020342D01*
X000846Y020643D01*
X000846Y020969D01*
X000971Y021271D01*
X001202Y021501D01*
X001479Y021616D01*
X000356Y021616D01*
X000356Y021551D02*
X001322Y021551D01*
X001133Y021433D02*
X000356Y021433D01*
X000356Y021314D02*
X001015Y021314D01*
X000940Y021196D02*
X000356Y021196D01*
X000356Y021077D02*
X000891Y021077D01*
X000846Y020959D02*
X000356Y020959D01*
X000356Y020840D02*
X000846Y020840D01*
X000846Y020722D02*
X000356Y020722D01*
X000356Y020603D02*
X000863Y020603D01*
X000912Y020484D02*
X000356Y020484D01*
X000356Y020366D02*
X000961Y020366D01*
X001065Y020247D02*
X000356Y020247D01*
X000356Y020129D02*
X001184Y020129D01*
X001445Y020010D02*
X000356Y020010D01*
X000356Y019892D02*
X008884Y019892D01*
X008983Y020010D02*
X008350Y020010D01*
X008530Y020129D02*
X008802Y020129D01*
X008713Y020247D02*
X008619Y020247D01*
X008765Y019773D02*
X000356Y019773D01*
X000356Y019655D02*
X008647Y019655D01*
X008528Y019536D02*
X000356Y019536D01*
X000356Y019418D02*
X008410Y019418D01*
X008291Y019299D02*
X000356Y019299D01*
X000356Y019181D02*
X008173Y019181D01*
X008054Y019062D02*
X000356Y019062D01*
X000356Y018943D02*
X007936Y018943D01*
X007817Y018825D02*
X000356Y018825D01*
X000356Y018706D02*
X007699Y018706D01*
X007580Y018588D02*
X000356Y018588D01*
X000356Y018469D02*
X007461Y018469D01*
X007343Y018351D02*
X000356Y018351D01*
X000356Y018232D02*
X007224Y018232D01*
X007106Y018114D02*
X000356Y018114D01*
X000356Y017995D02*
X006987Y017995D01*
X006869Y017877D02*
X000356Y017877D01*
X000356Y017758D02*
X006750Y017758D01*
X006632Y017639D02*
X000356Y017639D01*
X000356Y017521D02*
X006513Y017521D01*
X006395Y017402D02*
X000356Y017402D01*
X000356Y017284D02*
X006276Y017284D01*
X006157Y017165D02*
X000356Y017165D01*
X000356Y017047D02*
X006039Y017047D01*
X005920Y016928D02*
X000356Y016928D01*
X000356Y016810D02*
X005802Y016810D01*
X005683Y016691D02*
X000356Y016691D01*
X000356Y016573D02*
X005565Y016573D01*
X005666Y016306D02*
X005666Y015306D01*
X005631Y014557D02*
X005701Y014557D01*
X005819Y014439D02*
X005513Y014439D01*
X005394Y014320D02*
X005938Y014320D01*
X006394Y014320D02*
X006938Y014320D01*
X006819Y014439D02*
X006513Y014439D01*
X006631Y014557D02*
X006701Y014557D01*
X007394Y014320D02*
X007938Y014320D01*
X007819Y014439D02*
X007513Y014439D01*
X007631Y014557D02*
X007701Y014557D01*
X008394Y014320D02*
X008938Y014320D01*
X008819Y014439D02*
X008513Y014439D01*
X008631Y014557D02*
X008701Y014557D01*
X009394Y014320D02*
X009938Y014320D01*
X009819Y014439D02*
X009513Y014439D01*
X009631Y014557D02*
X009701Y014557D01*
X010394Y014320D02*
X010938Y014320D01*
X010819Y014439D02*
X010513Y014439D01*
X010631Y014557D02*
X010701Y014557D01*
X011394Y014320D02*
X011938Y014320D01*
X011819Y014439D02*
X011513Y014439D01*
X011631Y014557D02*
X011701Y014557D01*
X012394Y014320D02*
X012938Y014320D01*
X012819Y014439D02*
X012513Y014439D01*
X012631Y014557D02*
X012701Y014557D01*
X013394Y014320D02*
X013906Y014320D01*
X013906Y014202D02*
X000356Y014202D01*
X000356Y014320D02*
X003938Y014320D01*
X003819Y014439D02*
X000356Y014439D01*
X000356Y014557D02*
X003701Y014557D01*
X003661Y014676D02*
X000356Y014676D01*
X000356Y014794D02*
X003661Y014794D01*
X003661Y014913D02*
X000356Y014913D01*
X000356Y015031D02*
X003677Y015031D01*
X003796Y015150D02*
X000356Y015150D01*
X000356Y015269D02*
X003914Y015269D01*
X003871Y015387D02*
X000356Y015387D01*
X000356Y015506D02*
X003753Y015506D01*
X003661Y015624D02*
X000356Y015624D01*
X000356Y015743D02*
X003661Y015743D01*
X003661Y015861D02*
X000356Y015861D01*
X000356Y015980D02*
X003661Y015980D01*
X003744Y016098D02*
X000356Y016098D01*
X000356Y016217D02*
X003863Y016217D01*
X004470Y016217D02*
X004863Y016217D01*
X004744Y016098D02*
X004588Y016098D01*
X006666Y016306D02*
X006666Y015306D01*
X007666Y015306D02*
X007666Y016306D01*
X008666Y016306D02*
X008666Y015306D01*
X009666Y015306D02*
X009666Y016306D01*
X011666Y016306D02*
X011666Y015306D01*
X012666Y015306D02*
X012666Y016306D01*
X013666Y016306D02*
X033166Y016306D01*
X033916Y016335D02*
X034868Y016335D01*
X034987Y016217D02*
X033977Y016217D01*
X034095Y016098D02*
X035105Y016098D01*
X035224Y015980D02*
X034176Y015980D01*
X034176Y015861D02*
X035342Y015861D01*
X035461Y015743D02*
X034176Y015743D01*
X034176Y015624D02*
X035476Y015624D01*
X035476Y015506D02*
X034087Y015506D01*
X033968Y015387D02*
X035476Y015387D01*
X035476Y015269D02*
X033925Y015269D01*
X034044Y015150D02*
X035476Y015150D01*
X035476Y015031D02*
X034162Y015031D01*
X034176Y014913D02*
X035476Y014913D01*
X035476Y014794D02*
X034176Y014794D01*
X034176Y014676D02*
X035476Y014676D01*
X035476Y014557D02*
X034138Y014557D01*
X034020Y014439D02*
X035476Y014439D01*
X035476Y014320D02*
X033901Y014320D01*
X033992Y014202D02*
X035476Y014202D01*
X035476Y014083D02*
X034110Y014083D01*
X034176Y013965D02*
X035476Y013965D01*
X035476Y013846D02*
X034176Y013846D01*
X034176Y013728D02*
X035476Y013728D01*
X035476Y013609D02*
X034176Y013609D01*
X034071Y013490D02*
X035476Y013490D01*
X035476Y013372D02*
X033953Y013372D01*
X033940Y013253D02*
X035476Y013253D01*
X035476Y013135D02*
X034059Y013135D01*
X034176Y013016D02*
X035476Y013016D01*
X035476Y012898D02*
X034176Y012898D01*
X034176Y012779D02*
X035476Y012779D01*
X035476Y012661D02*
X034176Y012661D01*
X034123Y012542D02*
X035476Y012542D01*
X035476Y012424D02*
X034005Y012424D01*
X033889Y012305D02*
X035476Y012305D01*
X035476Y012186D02*
X034007Y012186D01*
X034126Y012068D02*
X035476Y012068D01*
X035476Y011949D02*
X034176Y011949D01*
X034176Y011831D02*
X035476Y011831D01*
X035476Y011712D02*
X034176Y011712D01*
X034175Y011594D02*
X035476Y011594D01*
X035476Y011475D02*
X034056Y011475D01*
X033938Y011357D02*
X035476Y011357D01*
X035476Y011238D02*
X033956Y011238D01*
X034074Y011120D02*
X035476Y011120D01*
X035476Y011001D02*
X034176Y011001D01*
X034176Y010882D02*
X035476Y010882D01*
X035476Y010764D02*
X034176Y010764D01*
X034176Y010645D02*
X035476Y010645D01*
X035476Y010527D02*
X034108Y010527D01*
X033989Y010408D02*
X035476Y010408D01*
X035476Y010290D02*
X033904Y010290D01*
X034022Y010171D02*
X035476Y010171D01*
X035476Y010053D02*
X034141Y010053D01*
X034176Y009934D02*
X035476Y009934D01*
X035476Y009816D02*
X034176Y009816D01*
X034176Y009697D02*
X035476Y009697D01*
X035476Y009579D02*
X034160Y009579D01*
X034041Y009460D02*
X035476Y009460D01*
X035476Y009341D02*
X033922Y009341D01*
X033971Y009223D02*
X035476Y009223D01*
X035476Y009104D02*
X034089Y009104D01*
X034176Y008986D02*
X035476Y008986D01*
X035476Y008867D02*
X034176Y008867D01*
X034176Y008749D02*
X035476Y008749D01*
X035476Y008630D02*
X034176Y008630D01*
X034093Y008512D02*
X035476Y008512D01*
X035476Y008393D02*
X033974Y008393D01*
X033919Y008275D02*
X035476Y008275D01*
X035476Y008156D02*
X034038Y008156D01*
X034156Y008037D02*
X035476Y008037D01*
X035476Y007919D02*
X034176Y007919D01*
X034176Y007800D02*
X035476Y007800D01*
X035476Y007682D02*
X034176Y007682D01*
X034144Y007563D02*
X035476Y007563D01*
X035476Y007445D02*
X034026Y007445D01*
X033907Y007326D02*
X035476Y007326D01*
X035476Y007208D02*
X033986Y007208D01*
X034105Y007089D02*
X035476Y007089D01*
X035476Y006971D02*
X034176Y006971D01*
X034176Y006852D02*
X035476Y006852D01*
X035476Y006733D02*
X034176Y006733D01*
X034176Y006615D02*
X035476Y006615D01*
X035476Y006496D02*
X034077Y006496D01*
X033959Y006378D02*
X035476Y006378D01*
X035476Y006259D02*
X033934Y006259D01*
X034053Y006141D02*
X035476Y006141D01*
X035476Y006022D02*
X034171Y006022D01*
X034176Y005904D02*
X035476Y005904D01*
X035476Y005785D02*
X034176Y005785D01*
X034176Y005667D02*
X035476Y005667D01*
X035476Y005548D02*
X034129Y005548D01*
X034011Y005429D02*
X035476Y005429D01*
X035476Y005311D02*
X033892Y005311D01*
X034001Y005192D02*
X035476Y005192D01*
X035476Y005074D02*
X034120Y005074D01*
X034176Y004955D02*
X035476Y004955D01*
X035476Y004837D02*
X034176Y004837D01*
X034176Y004718D02*
X035476Y004718D01*
X035476Y004600D02*
X034176Y004600D01*
X034062Y004481D02*
X035476Y004481D01*
X035476Y004363D02*
X033944Y004363D01*
X033865Y004286D02*
X033706Y004286D01*
X033706Y003847D01*
X033626Y003847D01*
X033626Y004286D01*
X033467Y004286D01*
X033186Y004005D01*
X033186Y003846D01*
X033626Y003846D01*
X033626Y003766D01*
X033706Y003766D01*
X033706Y003326D01*
X033865Y003326D01*
X034146Y003607D01*
X034146Y003766D01*
X033706Y003766D01*
X033706Y003846D01*
X034146Y003846D01*
X034146Y004005D01*
X033865Y004286D01*
X033907Y004244D02*
X035476Y004244D01*
X035476Y004126D02*
X034026Y004126D01*
X034144Y004007D02*
X035476Y004007D01*
X035476Y003888D02*
X034146Y003888D01*
X033706Y003888D02*
X033626Y003888D01*
X033626Y003770D02*
X032706Y003770D01*
X032706Y003766D02*
X032706Y003846D01*
X033146Y003846D01*
X033146Y004005D01*
X032865Y004286D01*
X032706Y004286D01*
X032706Y003847D01*
X032626Y003847D01*
X032626Y004286D01*
X032467Y004286D01*
X032186Y004005D01*
X032186Y003846D01*
X032626Y003846D01*
X032626Y003766D01*
X032706Y003766D01*
X032706Y003326D01*
X032865Y003326D01*
X033146Y003607D01*
X033146Y003766D01*
X032706Y003766D01*
X032626Y003766D02*
X032626Y003326D01*
X032467Y003326D01*
X032186Y003607D01*
X032186Y003766D01*
X032626Y003766D01*
X032626Y003770D02*
X000356Y003770D01*
X000356Y003888D02*
X032186Y003888D01*
X032188Y004007D02*
X000356Y004007D01*
X000356Y004126D02*
X032307Y004126D01*
X032425Y004244D02*
X000356Y004244D01*
X000356Y004363D02*
X032389Y004363D01*
X032270Y004481D02*
X000356Y004481D01*
X000356Y004600D02*
X032156Y004600D01*
X032156Y004718D02*
X000356Y004718D01*
X000356Y004837D02*
X032156Y004837D01*
X032156Y004955D02*
X000356Y004955D01*
X000356Y005074D02*
X032213Y005074D01*
X032331Y005192D02*
X000356Y005192D01*
X000356Y005311D02*
X032440Y005311D01*
X032322Y005429D02*
X000356Y005429D01*
X000356Y005548D02*
X032203Y005548D01*
X032156Y005667D02*
X000356Y005667D01*
X000356Y005785D02*
X032156Y005785D01*
X032156Y005904D02*
X000356Y005904D01*
X000356Y006022D02*
X032161Y006022D01*
X032279Y006141D02*
X000356Y006141D01*
X000356Y006259D02*
X032398Y006259D01*
X032373Y006378D02*
X028452Y006378D01*
X028375Y006301D02*
X028671Y006597D01*
X028671Y007015D01*
X028380Y007306D01*
X028671Y007597D01*
X028671Y008015D01*
X028375Y008311D01*
X027957Y008311D01*
X027666Y008020D01*
X027375Y008311D01*
X026957Y008311D01*
X026661Y008015D01*
X026661Y007597D01*
X026952Y007306D01*
X026666Y007020D01*
X026375Y007311D01*
X025957Y007311D01*
X025661Y007015D01*
X025661Y006597D01*
X025957Y006301D01*
X026375Y006301D01*
X026666Y006592D01*
X026957Y006301D01*
X027375Y006301D01*
X027666Y006592D01*
X027957Y006301D01*
X028375Y006301D01*
X028570Y006496D02*
X032255Y006496D01*
X032156Y006615D02*
X028671Y006615D01*
X028671Y006733D02*
X032156Y006733D01*
X032156Y006852D02*
X028671Y006852D01*
X028671Y006971D02*
X032156Y006971D01*
X032228Y007089D02*
X028597Y007089D01*
X028479Y007208D02*
X032346Y007208D01*
X032425Y007326D02*
X028400Y007326D01*
X028519Y007445D02*
X032306Y007445D01*
X032188Y007563D02*
X028637Y007563D01*
X028671Y007682D02*
X032156Y007682D01*
X032156Y007800D02*
X028671Y007800D01*
X028671Y007919D02*
X032156Y007919D01*
X032176Y008037D02*
X028649Y008037D01*
X028531Y008156D02*
X032295Y008156D01*
X032413Y008275D02*
X028412Y008275D01*
X027920Y008275D02*
X027412Y008275D01*
X027531Y008156D02*
X027802Y008156D01*
X027683Y008037D02*
X027649Y008037D01*
X026920Y008275D02*
X026370Y008275D01*
X026363Y008281D02*
X026204Y008281D01*
X026204Y007844D01*
X026641Y007844D01*
X026641Y008003D01*
X026363Y008281D01*
X026204Y008275D02*
X026129Y008275D01*
X026129Y008281D02*
X025969Y008281D01*
X025691Y008003D01*
X025691Y007844D01*
X026128Y007844D01*
X026128Y007769D01*
X025691Y007769D01*
X025691Y007610D01*
X025969Y007331D01*
X026129Y007331D01*
X026129Y007769D01*
X026204Y007769D01*
X026204Y007844D01*
X026129Y007844D01*
X026129Y008281D01*
X026129Y008156D02*
X026204Y008156D01*
X026204Y008037D02*
X026129Y008037D01*
X026129Y007919D02*
X026204Y007919D01*
X026204Y007800D02*
X026661Y007800D01*
X026641Y007769D02*
X026204Y007769D01*
X026204Y007331D01*
X026363Y007331D01*
X026641Y007610D01*
X026641Y007769D01*
X026641Y007682D02*
X026661Y007682D01*
X026695Y007563D02*
X026595Y007563D01*
X026476Y007445D02*
X026814Y007445D01*
X026932Y007326D02*
X025400Y007326D01*
X025375Y007301D02*
X025671Y007597D01*
X025671Y008015D01*
X025375Y008311D01*
X024957Y008311D01*
X024666Y008020D01*
X024375Y008311D01*
X023957Y008311D01*
X023666Y008020D01*
X023375Y008311D01*
X022957Y008311D01*
X022666Y008020D01*
X022375Y008311D01*
X021957Y008311D01*
X021666Y008020D01*
X021375Y008311D01*
X020957Y008311D01*
X020666Y008020D01*
X020375Y008311D01*
X019957Y008311D01*
X019666Y008020D01*
X019375Y008311D01*
X018957Y008311D01*
X018666Y008020D01*
X018375Y008311D01*
X017957Y008311D01*
X017661Y008015D01*
X017661Y007597D01*
X017952Y007306D01*
X017666Y007020D01*
X017375Y007311D01*
X016957Y007311D01*
X016661Y007015D01*
X016661Y006597D01*
X016957Y006301D01*
X017375Y006301D01*
X017666Y006592D01*
X017957Y006301D01*
X018375Y006301D01*
X018666Y006592D01*
X018957Y006301D01*
X019375Y006301D01*
X019666Y006592D01*
X019957Y006301D01*
X020375Y006301D01*
X020666Y006592D01*
X020957Y006301D01*
X021375Y006301D01*
X021666Y006592D01*
X021957Y006301D01*
X022375Y006301D01*
X022666Y006592D01*
X022957Y006301D01*
X023375Y006301D01*
X023666Y006592D01*
X023957Y006301D01*
X024375Y006301D01*
X024671Y006597D01*
X024671Y007015D01*
X024380Y007306D01*
X024666Y007592D01*
X024957Y007301D01*
X025375Y007301D01*
X025363Y007281D02*
X025204Y007281D01*
X025204Y006844D01*
X025641Y006844D01*
X025641Y007003D01*
X025363Y007281D01*
X025436Y007208D02*
X025853Y007208D01*
X025735Y007089D02*
X025555Y007089D01*
X025641Y006971D02*
X025661Y006971D01*
X025661Y006852D02*
X025641Y006852D01*
X025641Y006769D02*
X025204Y006769D01*
X025204Y006844D01*
X025129Y006844D01*
X025129Y007281D01*
X024969Y007281D01*
X024691Y007003D01*
X024691Y006844D01*
X025128Y006844D01*
X025128Y006769D01*
X024691Y006769D01*
X024691Y006610D01*
X024969Y006331D01*
X025129Y006331D01*
X025129Y006769D01*
X025204Y006769D01*
X025204Y006331D01*
X025363Y006331D01*
X025641Y006610D01*
X025641Y006769D01*
X025641Y006733D02*
X025661Y006733D01*
X025661Y006615D02*
X025641Y006615D01*
X025528Y006496D02*
X025762Y006496D01*
X025880Y006378D02*
X025409Y006378D01*
X025204Y006378D02*
X025129Y006378D01*
X025129Y006496D02*
X025204Y006496D01*
X025204Y006615D02*
X025129Y006615D01*
X025129Y006733D02*
X025204Y006733D01*
X025204Y006852D02*
X025129Y006852D01*
X025129Y006971D02*
X025204Y006971D01*
X025204Y007089D02*
X025129Y007089D01*
X025129Y007208D02*
X025204Y007208D01*
X024932Y007326D02*
X024400Y007326D01*
X024479Y007208D02*
X024896Y007208D01*
X024777Y007089D02*
X024597Y007089D01*
X024671Y006971D02*
X024691Y006971D01*
X024691Y006852D02*
X024671Y006852D01*
X024671Y006733D02*
X024691Y006733D01*
X024691Y006615D02*
X024671Y006615D01*
X024570Y006496D02*
X024804Y006496D01*
X024923Y006378D02*
X024452Y006378D01*
X023880Y006378D02*
X023452Y006378D01*
X023570Y006496D02*
X023762Y006496D01*
X022880Y006378D02*
X022452Y006378D01*
X022570Y006496D02*
X022762Y006496D01*
X021880Y006378D02*
X021452Y006378D01*
X021570Y006496D02*
X021762Y006496D01*
X020880Y006378D02*
X020452Y006378D01*
X020570Y006496D02*
X020762Y006496D01*
X019880Y006378D02*
X019452Y006378D01*
X019570Y006496D02*
X019762Y006496D01*
X018880Y006378D02*
X018452Y006378D01*
X018570Y006496D02*
X018762Y006496D01*
X017880Y006378D02*
X017452Y006378D01*
X017570Y006496D02*
X017762Y006496D01*
X017735Y007089D02*
X017597Y007089D01*
X017479Y007208D02*
X017853Y007208D01*
X017932Y007326D02*
X016400Y007326D01*
X016375Y007301D02*
X015957Y007301D01*
X015666Y007592D01*
X015380Y007306D01*
X015671Y007015D01*
X015671Y006597D01*
X015375Y006301D01*
X014957Y006301D01*
X014666Y006592D01*
X014375Y006301D01*
X013957Y006301D01*
X013666Y006592D01*
X013375Y006301D01*
X012957Y006301D01*
X012666Y006592D01*
X012375Y006301D01*
X011957Y006301D01*
X011661Y006597D01*
X011661Y007015D01*
X011952Y007306D01*
X011661Y007597D01*
X011661Y008015D01*
X011957Y008311D01*
X012375Y008311D01*
X012666Y008020D01*
X012957Y008311D01*
X013375Y008311D01*
X013666Y008020D01*
X013957Y008311D01*
X014375Y008311D01*
X014666Y008020D01*
X014957Y008311D01*
X015375Y008311D01*
X015666Y008020D01*
X015957Y008311D01*
X016375Y008311D01*
X016671Y008015D01*
X016671Y007597D01*
X016375Y007301D01*
X016363Y007281D02*
X016204Y007281D01*
X016204Y006844D01*
X016641Y006844D01*
X016641Y007003D01*
X016363Y007281D01*
X016436Y007208D02*
X016853Y007208D01*
X016735Y007089D02*
X016555Y007089D01*
X016641Y006971D02*
X016661Y006971D01*
X016661Y006852D02*
X016641Y006852D01*
X016641Y006769D02*
X016204Y006769D01*
X016204Y006844D01*
X016129Y006844D01*
X016129Y007281D01*
X015969Y007281D01*
X015691Y007003D01*
X015691Y006844D01*
X016128Y006844D01*
X016128Y006769D01*
X015691Y006769D01*
X015691Y006610D01*
X015969Y006331D01*
X016129Y006331D01*
X016129Y006769D01*
X016204Y006769D01*
X016204Y006331D01*
X016363Y006331D01*
X016641Y006610D01*
X016641Y006769D01*
X016641Y006733D02*
X016661Y006733D01*
X016661Y006615D02*
X016641Y006615D01*
X016528Y006496D02*
X016762Y006496D01*
X016880Y006378D02*
X016409Y006378D01*
X016204Y006378D02*
X016129Y006378D01*
X016129Y006496D02*
X016204Y006496D01*
X016204Y006615D02*
X016129Y006615D01*
X016129Y006733D02*
X016204Y006733D01*
X016204Y006852D02*
X016129Y006852D01*
X016129Y006971D02*
X016204Y006971D01*
X016204Y007089D02*
X016129Y007089D01*
X016129Y007208D02*
X016204Y007208D01*
X015932Y007326D02*
X015400Y007326D01*
X015479Y007208D02*
X015896Y007208D01*
X015777Y007089D02*
X015597Y007089D01*
X015671Y006971D02*
X015691Y006971D01*
X015691Y006852D02*
X015671Y006852D01*
X015671Y006733D02*
X015691Y006733D01*
X015691Y006615D02*
X015671Y006615D01*
X015570Y006496D02*
X015804Y006496D01*
X015923Y006378D02*
X015452Y006378D01*
X014880Y006378D02*
X014452Y006378D01*
X014570Y006496D02*
X014762Y006496D01*
X013880Y006378D02*
X013452Y006378D01*
X013570Y006496D02*
X013762Y006496D01*
X012880Y006378D02*
X012452Y006378D01*
X012570Y006496D02*
X012762Y006496D01*
X011880Y006378D02*
X000356Y006378D01*
X000356Y006496D02*
X011762Y006496D01*
X011661Y006615D02*
X000356Y006615D01*
X000356Y006733D02*
X011661Y006733D01*
X011661Y006852D02*
X000356Y006852D01*
X000356Y006971D02*
X011661Y006971D01*
X011735Y007089D02*
X000356Y007089D01*
X000356Y007208D02*
X011853Y007208D01*
X011932Y007326D02*
X000356Y007326D01*
X000356Y007445D02*
X011814Y007445D01*
X011695Y007563D02*
X000356Y007563D01*
X000356Y007682D02*
X011661Y007682D01*
X011661Y007800D02*
X000356Y007800D01*
X000356Y007919D02*
X011661Y007919D01*
X011683Y008037D02*
X000356Y008037D01*
X000356Y008156D02*
X011802Y008156D01*
X011920Y008275D02*
X000356Y008275D01*
X000356Y008393D02*
X032358Y008393D01*
X032240Y008512D02*
X000356Y008512D01*
X000356Y008630D02*
X032156Y008630D01*
X032156Y008749D02*
X000356Y008749D01*
X000356Y008867D02*
X032156Y008867D01*
X032156Y008986D02*
X000356Y008986D01*
X000356Y009104D02*
X032243Y009104D01*
X032362Y009223D02*
X000356Y009223D01*
X000356Y009341D02*
X032410Y009341D01*
X032291Y009460D02*
X000356Y009460D01*
X000356Y009579D02*
X032173Y009579D01*
X032156Y009697D02*
X000356Y009697D01*
X000356Y009816D02*
X032156Y009816D01*
X032156Y009934D02*
X000356Y009934D01*
X000356Y010053D02*
X032191Y010053D01*
X032310Y010171D02*
X000356Y010171D01*
X000356Y010290D02*
X032428Y010290D01*
X032343Y010408D02*
X000356Y010408D01*
X000356Y010527D02*
X032224Y010527D01*
X033166Y011306D02*
X015666Y011306D01*
X014459Y010645D02*
X000356Y010645D01*
X000356Y010764D02*
X014341Y010764D01*
X014222Y010882D02*
X000356Y010882D01*
X000356Y011001D02*
X014104Y011001D01*
X013985Y011120D02*
X000356Y011120D01*
X000356Y011238D02*
X013913Y011238D01*
X013906Y011357D02*
X000356Y011357D01*
X000356Y011475D02*
X013906Y011475D01*
X013906Y011594D02*
X000356Y011594D01*
X000356Y011712D02*
X013906Y011712D01*
X013906Y011831D02*
X000356Y011831D01*
X000356Y011949D02*
X013906Y011949D01*
X013906Y012068D02*
X000356Y012068D01*
X000356Y012186D02*
X013906Y012186D01*
X013906Y012305D02*
X000356Y012305D01*
X000356Y012424D02*
X013906Y012424D01*
X013906Y012542D02*
X000356Y012542D01*
X000356Y012661D02*
X013906Y012661D01*
X013906Y012779D02*
X000356Y012779D01*
X000356Y012898D02*
X013906Y012898D01*
X013906Y013016D02*
X000356Y013016D01*
X000356Y013135D02*
X013906Y013135D01*
X013906Y013253D02*
X000356Y013253D01*
X000356Y013372D02*
X013906Y013372D01*
X013906Y013490D02*
X000356Y013490D01*
X000356Y013609D02*
X013906Y013609D01*
X013906Y013728D02*
X000356Y013728D01*
X000356Y013846D02*
X013906Y013846D01*
X013906Y013965D02*
X000356Y013965D01*
X000356Y014083D02*
X013906Y014083D01*
X013819Y014439D02*
X013513Y014439D01*
X013631Y014557D02*
X013701Y014557D01*
X013666Y015306D02*
X013666Y016306D01*
X012666Y017306D02*
X033166Y017306D01*
X033910Y017284D02*
X034476Y017284D01*
X034476Y017402D02*
X033983Y017402D01*
X034102Y017521D02*
X034476Y017521D01*
X034476Y017639D02*
X034176Y017639D01*
X034176Y017758D02*
X034476Y017758D01*
X034476Y017877D02*
X034176Y017877D01*
X034176Y017995D02*
X034476Y017995D01*
X034476Y018114D02*
X034080Y018114D01*
X033961Y018232D02*
X034476Y018232D01*
X034476Y018351D02*
X033932Y018351D01*
X034050Y018469D02*
X034476Y018469D01*
X034476Y018588D02*
X034169Y018588D01*
X034176Y018706D02*
X034476Y018706D01*
X034476Y018825D02*
X034176Y018825D01*
X034176Y018943D02*
X034476Y018943D01*
X034476Y019062D02*
X034132Y019062D01*
X034013Y019181D02*
X034476Y019181D01*
X034476Y019299D02*
X033895Y019299D01*
X033999Y019418D02*
X034476Y019418D01*
X034476Y019536D02*
X034117Y019536D01*
X034176Y019655D02*
X034476Y019655D01*
X034476Y019773D02*
X034176Y019773D01*
X034176Y019892D02*
X034476Y019892D01*
X034476Y020010D02*
X034176Y020010D01*
X034065Y020129D02*
X034476Y020129D01*
X034476Y020247D02*
X033946Y020247D01*
X033947Y020366D02*
X034476Y020366D01*
X034476Y020484D02*
X034066Y020484D01*
X034176Y020603D02*
X034476Y020603D01*
X034476Y020722D02*
X034176Y020722D01*
X034176Y020840D02*
X034364Y020840D01*
X034245Y020959D02*
X034176Y020959D01*
X034126Y021077D02*
X034116Y021077D01*
X034008Y021196D02*
X033998Y021196D01*
X033889Y021314D02*
X033879Y021314D01*
X033771Y021433D02*
X031699Y021433D01*
X031818Y021314D02*
X032453Y021314D01*
X032334Y021196D02*
X031892Y021196D01*
X031941Y021077D02*
X032216Y021077D01*
X032156Y020959D02*
X031986Y020959D01*
X031986Y020840D02*
X032156Y020840D01*
X032156Y020722D02*
X031986Y020722D01*
X031969Y020603D02*
X032156Y020603D01*
X031977Y020484D02*
X031920Y020484D01*
X032166Y020306D02*
X033166Y020306D01*
X033116Y021077D02*
X033216Y021077D01*
X033334Y021196D02*
X032998Y021196D01*
X032879Y021314D02*
X033453Y021314D01*
X033652Y021551D02*
X031510Y021551D01*
X033166Y018306D02*
X010666Y018306D01*
X007983Y020010D02*
X007350Y020010D01*
X007530Y020129D02*
X007802Y020129D01*
X007713Y020247D02*
X007619Y020247D01*
X006983Y020010D02*
X006229Y020010D01*
X006206Y020010D02*
X006126Y020010D01*
X006126Y020007D02*
X006126Y020766D01*
X006206Y020766D01*
X006206Y020007D01*
X006279Y020018D01*
X006350Y020041D01*
X006418Y020076D01*
X006479Y020120D01*
X006532Y020174D01*
X006577Y020235D01*
X006611Y020302D01*
X006634Y020374D01*
X006646Y020449D01*
X006646Y020766D01*
X006206Y020766D01*
X006206Y020846D01*
X006646Y020846D01*
X006646Y021164D01*
X006634Y021239D01*
X006611Y021311D01*
X006577Y021378D01*
X006532Y021439D01*
X006479Y021492D01*
X006418Y021537D01*
X006350Y021571D01*
X006279Y021594D01*
X006206Y021606D01*
X006206Y020847D01*
X006126Y020847D01*
X006126Y021606D01*
X006054Y021594D01*
X005982Y021571D01*
X005915Y021537D01*
X005853Y021492D01*
X005800Y021439D01*
X005756Y021378D01*
X005721Y021311D01*
X005698Y021239D01*
X005686Y021164D01*
X005686Y020846D01*
X006126Y020846D01*
X006126Y020766D01*
X005686Y020766D01*
X005686Y020449D01*
X005698Y020374D01*
X005721Y020302D01*
X005756Y020235D01*
X005800Y020174D01*
X005853Y020120D01*
X005915Y020076D01*
X005982Y020041D01*
X006054Y020018D01*
X006126Y020007D01*
X006103Y020010D02*
X005350Y020010D01*
X005530Y020129D02*
X005845Y020129D01*
X005749Y020247D02*
X005619Y020247D01*
X005668Y020366D02*
X005701Y020366D01*
X005686Y020484D02*
X005676Y020484D01*
X005676Y020603D02*
X005686Y020603D01*
X005676Y020722D02*
X005686Y020722D01*
X005676Y020840D02*
X006126Y020840D01*
X006206Y020840D02*
X006656Y020840D01*
X006646Y020722D02*
X006656Y020722D01*
X006646Y020603D02*
X006656Y020603D01*
X006646Y020484D02*
X006656Y020484D01*
X006664Y020366D02*
X006632Y020366D01*
X006583Y020247D02*
X006713Y020247D01*
X006802Y020129D02*
X006488Y020129D01*
X006206Y020129D02*
X006126Y020129D01*
X006126Y020247D02*
X006206Y020247D01*
X006206Y020366D02*
X006126Y020366D01*
X006126Y020484D02*
X006206Y020484D01*
X006206Y020603D02*
X006126Y020603D01*
X006126Y020722D02*
X006206Y020722D01*
X006206Y020959D02*
X006126Y020959D01*
X006126Y021077D02*
X006206Y021077D01*
X006206Y021196D02*
X006126Y021196D01*
X006126Y021314D02*
X006206Y021314D01*
X006206Y021433D02*
X006126Y021433D01*
X006126Y021551D02*
X006206Y021551D01*
X006389Y021551D02*
X006870Y021551D01*
X006751Y021433D02*
X006537Y021433D01*
X006609Y021314D02*
X006692Y021314D01*
X006656Y021196D02*
X006641Y021196D01*
X006646Y021077D02*
X006656Y021077D01*
X006646Y020959D02*
X006656Y020959D01*
X005943Y021551D02*
X005462Y021551D01*
X005581Y021433D02*
X005796Y021433D01*
X005723Y021314D02*
X005640Y021314D01*
X005676Y021196D02*
X005691Y021196D01*
X005676Y021077D02*
X005686Y021077D01*
X005676Y020959D02*
X005686Y020959D01*
X004870Y021551D02*
X002010Y021551D01*
X002199Y021433D02*
X004751Y021433D01*
X004692Y021314D02*
X002318Y021314D01*
X002392Y021196D02*
X004656Y021196D01*
X004656Y021077D02*
X002441Y021077D01*
X002486Y020959D02*
X004656Y020959D01*
X004656Y020840D02*
X002486Y020840D01*
X002486Y020722D02*
X004656Y020722D01*
X004656Y020603D02*
X002469Y020603D01*
X002420Y020484D02*
X004656Y020484D01*
X004664Y020366D02*
X002371Y020366D01*
X002267Y020247D02*
X004713Y020247D01*
X004802Y020129D02*
X002148Y020129D01*
X001887Y020010D02*
X004983Y020010D01*
X004701Y014557D02*
X004631Y014557D01*
X004513Y014439D02*
X004819Y014439D01*
X004938Y014320D02*
X004394Y014320D01*
X012412Y008275D02*
X012920Y008275D01*
X012802Y008156D02*
X012531Y008156D01*
X012649Y008037D02*
X012683Y008037D01*
X013412Y008275D02*
X013920Y008275D01*
X013802Y008156D02*
X013531Y008156D01*
X013649Y008037D02*
X013683Y008037D01*
X014412Y008275D02*
X014920Y008275D01*
X014802Y008156D02*
X014531Y008156D01*
X014649Y008037D02*
X014683Y008037D01*
X015412Y008275D02*
X015920Y008275D01*
X015802Y008156D02*
X015531Y008156D01*
X015649Y008037D02*
X015683Y008037D01*
X015695Y007563D02*
X015637Y007563D01*
X015519Y007445D02*
X015814Y007445D01*
X016519Y007445D02*
X016856Y007445D01*
X016969Y007331D02*
X016691Y007610D01*
X016691Y007769D01*
X017128Y007769D01*
X017128Y007844D01*
X016691Y007844D01*
X016691Y008003D01*
X016969Y008281D01*
X017129Y008281D01*
X017129Y007844D01*
X017204Y007844D01*
X017641Y007844D01*
X017641Y008003D01*
X017363Y008281D01*
X017204Y008281D01*
X017204Y007844D01*
X017204Y007769D01*
X017641Y007769D01*
X017641Y007610D01*
X017363Y007331D01*
X017204Y007331D01*
X017204Y007769D01*
X017129Y007769D01*
X017129Y007331D01*
X016969Y007331D01*
X017129Y007445D02*
X017204Y007445D01*
X017204Y007563D02*
X017129Y007563D01*
X017129Y007682D02*
X017204Y007682D01*
X017204Y007800D02*
X017661Y007800D01*
X017661Y007682D02*
X017641Y007682D01*
X017595Y007563D02*
X017695Y007563D01*
X017814Y007445D02*
X017476Y007445D01*
X017128Y007800D02*
X016671Y007800D01*
X016671Y007682D02*
X016691Y007682D01*
X016737Y007563D02*
X016637Y007563D01*
X016671Y007919D02*
X016691Y007919D01*
X016726Y008037D02*
X016649Y008037D01*
X016531Y008156D02*
X016844Y008156D01*
X016963Y008275D02*
X016412Y008275D01*
X017129Y008275D02*
X017204Y008275D01*
X017204Y008156D02*
X017129Y008156D01*
X017129Y008037D02*
X017204Y008037D01*
X017204Y007919D02*
X017129Y007919D01*
X017488Y008156D02*
X017802Y008156D01*
X017920Y008275D02*
X017370Y008275D01*
X017607Y008037D02*
X017683Y008037D01*
X017661Y007919D02*
X017641Y007919D01*
X018412Y008275D02*
X018920Y008275D01*
X018802Y008156D02*
X018531Y008156D01*
X018649Y008037D02*
X018683Y008037D01*
X019412Y008275D02*
X019920Y008275D01*
X019802Y008156D02*
X019531Y008156D01*
X019649Y008037D02*
X019683Y008037D01*
X020412Y008275D02*
X020920Y008275D01*
X020802Y008156D02*
X020531Y008156D01*
X020649Y008037D02*
X020683Y008037D01*
X021412Y008275D02*
X021920Y008275D01*
X021802Y008156D02*
X021531Y008156D01*
X021649Y008037D02*
X021683Y008037D01*
X022412Y008275D02*
X022920Y008275D01*
X022802Y008156D02*
X022531Y008156D01*
X022649Y008037D02*
X022683Y008037D01*
X023412Y008275D02*
X023920Y008275D01*
X023802Y008156D02*
X023531Y008156D01*
X023649Y008037D02*
X023683Y008037D01*
X024412Y008275D02*
X024920Y008275D01*
X024802Y008156D02*
X024531Y008156D01*
X024649Y008037D02*
X024683Y008037D01*
X024695Y007563D02*
X024637Y007563D01*
X024519Y007445D02*
X024814Y007445D01*
X025519Y007445D02*
X025856Y007445D01*
X025737Y007563D02*
X025637Y007563D01*
X025671Y007682D02*
X025691Y007682D01*
X025671Y007800D02*
X026128Y007800D01*
X026129Y007682D02*
X026204Y007682D01*
X026204Y007563D02*
X026129Y007563D01*
X026129Y007445D02*
X026204Y007445D01*
X026479Y007208D02*
X026853Y007208D01*
X026735Y007089D02*
X026597Y007089D01*
X026570Y006496D02*
X026762Y006496D01*
X026880Y006378D02*
X026452Y006378D01*
X027452Y006378D02*
X027880Y006378D01*
X027762Y006496D02*
X027570Y006496D01*
X026661Y007919D02*
X026641Y007919D01*
X026607Y008037D02*
X026683Y008037D01*
X026802Y008156D02*
X026488Y008156D01*
X025963Y008275D02*
X025412Y008275D01*
X025531Y008156D02*
X025844Y008156D01*
X025726Y008037D02*
X025649Y008037D01*
X025671Y007919D02*
X025691Y007919D01*
X032186Y003651D02*
X000356Y003651D01*
X000356Y003533D02*
X032261Y003533D01*
X032379Y003414D02*
X000356Y003414D01*
X000356Y003296D02*
X035476Y003296D01*
X035476Y003414D02*
X033953Y003414D01*
X034071Y003533D02*
X035476Y003533D01*
X035476Y003651D02*
X034146Y003651D01*
X033706Y003651D02*
X033626Y003651D01*
X033626Y003766D02*
X033626Y003326D01*
X033467Y003326D01*
X033186Y003607D01*
X033186Y003766D01*
X033626Y003766D01*
X033706Y003770D02*
X035476Y003770D01*
X035476Y003177D02*
X000356Y003177D01*
X000356Y003059D02*
X035476Y003059D01*
X035476Y002940D02*
X000356Y002940D01*
X000356Y002822D02*
X035476Y002822D01*
X035476Y002703D02*
X000356Y002703D01*
X000356Y002584D02*
X008440Y002584D01*
X008285Y002466D02*
X000356Y002466D01*
X000356Y002347D02*
X008206Y002347D01*
X008157Y002229D02*
X000356Y002229D01*
X000356Y002110D02*
X008156Y002110D01*
X008156Y001992D02*
X000356Y001992D01*
X000356Y001873D02*
X008156Y001873D01*
X008156Y001755D02*
X000356Y001755D01*
X000356Y001636D02*
X008156Y001636D01*
X008156Y001518D02*
X000356Y001518D01*
X000356Y001399D02*
X008156Y001399D01*
X008199Y001280D02*
X000356Y001280D01*
X000356Y001162D02*
X008269Y001162D01*
X008403Y001043D02*
X000356Y001043D01*
X008893Y002584D02*
X009440Y002584D01*
X009285Y002466D02*
X009048Y002466D01*
X009127Y002347D02*
X009206Y002347D01*
X009893Y002584D02*
X010440Y002584D01*
X010285Y002466D02*
X010048Y002466D01*
X010127Y002347D02*
X010206Y002347D01*
X010893Y002584D02*
X011523Y002584D01*
X011554Y002594D02*
X011482Y002571D01*
X011415Y002537D01*
X011353Y002492D01*
X011300Y002439D01*
X011256Y002378D01*
X011221Y002311D01*
X011198Y002239D01*
X011186Y002164D01*
X011186Y001846D01*
X011626Y001846D01*
X011626Y001766D01*
X011706Y001766D01*
X011706Y001007D01*
X011779Y001018D01*
X011850Y001041D01*
X011918Y001076D01*
X011979Y001120D01*
X012032Y001174D01*
X012077Y001235D01*
X012111Y001302D01*
X012134Y001374D01*
X012146Y001449D01*
X012146Y001766D01*
X011706Y001766D01*
X011706Y001846D01*
X012146Y001846D01*
X012146Y002164D01*
X012134Y002239D01*
X012111Y002311D01*
X012077Y002378D01*
X012032Y002439D01*
X011979Y002492D01*
X011918Y002537D01*
X011850Y002571D01*
X011779Y002594D01*
X011706Y002606D01*
X011706Y001847D01*
X011626Y001847D01*
X011626Y002606D01*
X011554Y002594D01*
X011626Y002584D02*
X011706Y002584D01*
X011809Y002584D02*
X012440Y002584D01*
X012285Y002466D02*
X012005Y002466D01*
X012092Y002347D02*
X012206Y002347D01*
X012157Y002229D02*
X012136Y002229D01*
X012146Y002110D02*
X012156Y002110D01*
X012146Y001992D02*
X012156Y001992D01*
X012146Y001873D02*
X012156Y001873D01*
X012146Y001755D02*
X012156Y001755D01*
X012146Y001636D02*
X012156Y001636D01*
X012146Y001518D02*
X012156Y001518D01*
X012156Y001399D02*
X012138Y001399D01*
X012100Y001280D02*
X012199Y001280D01*
X012269Y001162D02*
X012021Y001162D01*
X011854Y001043D02*
X012403Y001043D01*
X011706Y001043D02*
X011626Y001043D01*
X011626Y001007D02*
X011626Y001766D01*
X011186Y001766D01*
X011186Y001449D01*
X011198Y001374D01*
X011221Y001302D01*
X011256Y001235D01*
X011300Y001174D01*
X011353Y001120D01*
X011415Y001076D01*
X011482Y001041D01*
X011554Y001018D01*
X011626Y001007D01*
X011478Y001043D02*
X010929Y001043D01*
X011063Y001162D02*
X011312Y001162D01*
X011232Y001280D02*
X011133Y001280D01*
X011176Y001399D02*
X011194Y001399D01*
X011186Y001518D02*
X011176Y001518D01*
X011176Y001636D02*
X011186Y001636D01*
X011176Y001755D02*
X011186Y001755D01*
X011176Y001873D02*
X011186Y001873D01*
X011176Y001992D02*
X011186Y001992D01*
X011176Y002110D02*
X011186Y002110D01*
X011176Y002229D02*
X011196Y002229D01*
X011240Y002347D02*
X011127Y002347D01*
X011048Y002466D02*
X011327Y002466D01*
X011626Y002466D02*
X011706Y002466D01*
X011706Y002347D02*
X011626Y002347D01*
X011626Y002229D02*
X011706Y002229D01*
X011706Y002110D02*
X011626Y002110D01*
X011626Y001992D02*
X011706Y001992D01*
X011706Y001873D02*
X011626Y001873D01*
X011626Y001755D02*
X011706Y001755D01*
X011706Y001636D02*
X011626Y001636D01*
X011626Y001518D02*
X011706Y001518D01*
X011706Y001399D02*
X011626Y001399D01*
X011626Y001280D02*
X011706Y001280D01*
X011706Y001162D02*
X011626Y001162D01*
X013127Y002347D02*
X013206Y002347D01*
X013285Y002466D02*
X013048Y002466D01*
X012893Y002584D02*
X013440Y002584D01*
X013893Y002584D02*
X015440Y002584D01*
X015285Y002466D02*
X014048Y002466D01*
X014127Y002347D02*
X015206Y002347D01*
X015157Y002229D02*
X014176Y002229D01*
X014176Y002110D02*
X015156Y002110D01*
X015156Y001992D02*
X014176Y001992D01*
X014176Y001873D02*
X015156Y001873D01*
X015156Y001755D02*
X014176Y001755D01*
X014176Y001636D02*
X015156Y001636D01*
X015156Y001518D02*
X014176Y001518D01*
X014176Y001399D02*
X015156Y001399D01*
X015199Y001280D02*
X014133Y001280D01*
X014063Y001162D02*
X015269Y001162D01*
X015403Y001043D02*
X013929Y001043D01*
X016048Y002466D02*
X016285Y002466D01*
X016206Y002347D02*
X016127Y002347D01*
X015893Y002584D02*
X016440Y002584D01*
X016893Y002584D02*
X017440Y002584D01*
X017285Y002466D02*
X017048Y002466D01*
X017127Y002347D02*
X017206Y002347D01*
X017893Y002584D02*
X018440Y002584D01*
X018285Y002466D02*
X018048Y002466D01*
X018127Y002347D02*
X018206Y002347D01*
X018893Y002584D02*
X019440Y002584D01*
X019285Y002466D02*
X019048Y002466D01*
X019127Y002347D02*
X019206Y002347D01*
X019893Y002584D02*
X020440Y002584D01*
X020285Y002466D02*
X020048Y002466D01*
X020127Y002347D02*
X020206Y002347D01*
X020893Y002584D02*
X021440Y002584D01*
X021285Y002466D02*
X021048Y002466D01*
X021127Y002347D02*
X021206Y002347D01*
X021893Y002584D02*
X022440Y002584D01*
X022285Y002466D02*
X022048Y002466D01*
X022127Y002347D02*
X022206Y002347D01*
X022893Y002584D02*
X024440Y002584D01*
X024285Y002466D02*
X023048Y002466D01*
X023127Y002347D02*
X024206Y002347D01*
X024157Y002229D02*
X023176Y002229D01*
X023176Y002110D02*
X024156Y002110D01*
X024156Y001992D02*
X023176Y001992D01*
X023176Y001873D02*
X024156Y001873D01*
X024156Y001755D02*
X023176Y001755D01*
X023176Y001636D02*
X024156Y001636D01*
X024156Y001518D02*
X023176Y001518D01*
X023176Y001399D02*
X024156Y001399D01*
X024199Y001280D02*
X023133Y001280D01*
X023063Y001162D02*
X024269Y001162D01*
X024403Y001043D02*
X022929Y001043D01*
X025048Y002466D02*
X025285Y002466D01*
X025206Y002347D02*
X025127Y002347D01*
X024893Y002584D02*
X025440Y002584D01*
X025893Y002584D02*
X026440Y002584D01*
X026285Y002466D02*
X026048Y002466D01*
X026127Y002347D02*
X026206Y002347D01*
X026893Y002584D02*
X027440Y002584D01*
X027285Y002466D02*
X027048Y002466D01*
X027127Y002347D02*
X027206Y002347D01*
X027893Y002584D02*
X028440Y002584D01*
X028285Y002466D02*
X028048Y002466D01*
X028127Y002347D02*
X028206Y002347D01*
X028893Y002584D02*
X029440Y002584D01*
X029285Y002466D02*
X029048Y002466D01*
X029127Y002347D02*
X029206Y002347D01*
X029893Y002584D02*
X030440Y002584D01*
X030285Y002466D02*
X030048Y002466D01*
X030127Y002347D02*
X030206Y002347D01*
X030893Y002584D02*
X031440Y002584D01*
X031285Y002466D02*
X031048Y002466D01*
X031127Y002347D02*
X031206Y002347D01*
X031893Y002584D02*
X033402Y002584D01*
X033166Y002466D02*
X032048Y002466D01*
X032127Y002347D02*
X033048Y002347D01*
X032954Y002229D02*
X032176Y002229D01*
X032176Y002110D02*
X032905Y002110D01*
X032856Y001992D02*
X032176Y001992D01*
X032176Y001873D02*
X032846Y001873D01*
X032846Y001755D02*
X032176Y001755D01*
X032176Y001636D02*
X032849Y001636D01*
X032898Y001518D02*
X032176Y001518D01*
X032176Y001399D02*
X032947Y001399D01*
X033032Y001280D02*
X032133Y001280D01*
X032063Y001162D02*
X033151Y001162D01*
X033365Y001043D02*
X031929Y001043D01*
X033967Y001043D02*
X034476Y001043D01*
X034476Y001162D02*
X034181Y001162D01*
X034300Y001280D02*
X034476Y001280D01*
X034490Y001399D02*
X034385Y001399D01*
X034434Y001518D02*
X034609Y001518D01*
X034727Y001636D02*
X034483Y001636D01*
X034486Y001755D02*
X034846Y001755D01*
X034964Y001873D02*
X034486Y001873D01*
X034477Y001992D02*
X035083Y001992D01*
X035201Y002110D02*
X034428Y002110D01*
X034379Y002229D02*
X035320Y002229D01*
X035439Y002347D02*
X034285Y002347D01*
X034166Y002466D02*
X035476Y002466D01*
X035476Y002584D02*
X033930Y002584D01*
X033706Y003414D02*
X033626Y003414D01*
X033626Y003533D02*
X033706Y003533D01*
X033379Y003414D02*
X032953Y003414D01*
X033071Y003533D02*
X033261Y003533D01*
X033186Y003651D02*
X033146Y003651D01*
X032706Y003651D02*
X032626Y003651D01*
X032626Y003533D02*
X032706Y003533D01*
X032706Y003414D02*
X032626Y003414D01*
X032626Y003888D02*
X032706Y003888D01*
X032706Y004007D02*
X032626Y004007D01*
X032626Y004126D02*
X032706Y004126D01*
X032706Y004244D02*
X032626Y004244D01*
X032907Y004244D02*
X033425Y004244D01*
X033389Y004363D02*
X032944Y004363D01*
X033062Y004481D02*
X033270Y004481D01*
X033307Y004126D02*
X033026Y004126D01*
X033144Y004007D02*
X033188Y004007D01*
X033186Y003888D02*
X033146Y003888D01*
X033626Y004007D02*
X033706Y004007D01*
X033706Y004126D02*
X033626Y004126D01*
X033626Y004244D02*
X033706Y004244D01*
X033166Y012306D02*
X018666Y012306D01*
X034035Y016454D02*
X034750Y016454D01*
X034631Y016573D02*
X034154Y016573D01*
X034176Y016691D02*
X034513Y016691D01*
X034476Y016810D02*
X034176Y016810D01*
X034176Y016928D02*
X034476Y016928D01*
X034476Y017047D02*
X034147Y017047D01*
X034028Y017165D02*
X034476Y017165D01*
D14*
X033666Y016806D02*
X033166Y016306D01*
X032666Y016806D02*
X013166Y016806D01*
X012666Y016306D01*
X011666Y016306D02*
X012666Y017306D01*
X011166Y017806D02*
X032666Y017806D01*
X033166Y017306D02*
X033666Y017806D01*
X033166Y018306D02*
X033666Y018806D01*
X032666Y018806D02*
X010166Y018806D01*
X007666Y016306D01*
X006666Y016306D02*
X009666Y019306D01*
X032166Y019306D01*
X032666Y019806D01*
X032166Y020306D02*
X031666Y019806D01*
X009166Y019806D01*
X005666Y016306D01*
X005666Y015306D02*
X005166Y014806D01*
X006166Y014806D02*
X006666Y015306D01*
X007166Y014806D02*
X007666Y015306D01*
X008166Y014806D02*
X008666Y015306D01*
X009166Y014806D02*
X009666Y015306D01*
X011166Y014806D02*
X011666Y015306D01*
X012166Y014806D02*
X012666Y015306D01*
X013166Y014806D02*
X013666Y015306D01*
X014166Y014806D02*
X014166Y011306D01*
X014666Y010806D01*
X032666Y010806D01*
X033166Y011306D02*
X033666Y010806D01*
X033666Y011806D02*
X033166Y012306D01*
X032666Y011806D02*
X017666Y011806D01*
X017166Y012306D01*
X017166Y014806D01*
X018166Y014806D02*
X018166Y012806D01*
X018666Y012306D01*
X015666Y011306D02*
X015166Y011806D01*
X015166Y014806D01*
X011166Y017806D02*
X009666Y016306D01*
X008666Y016306D02*
X010666Y018306D01*
X033166Y020306D02*
X033666Y019806D01*
M02*
