G75*
%MOIN*%
%OFA0B0*%
%FSLAX24Y24*%
%IPPOS*%
%LPD*%
%AMOC8*
5,1,8,0,0,1.08239X$1,22.5*
%
%ADD10C,0.0740*%
%ADD11C,0.2000*%
%ADD12R,0.0630X0.0551*%
%ADD13C,0.0860*%
%ADD14R,0.0394X0.0433*%
%ADD15R,0.0315X0.0315*%
%ADD16R,0.0590X0.0790*%
%ADD17R,0.1500X0.0790*%
%ADD18R,0.0709X0.0551*%
%ADD19R,0.0515X0.0515*%
%ADD20C,0.0515*%
%ADD21R,0.0394X0.0087*%
%ADD22R,0.0087X0.0394*%
%ADD23R,0.0433X0.0394*%
%ADD24R,0.0551X0.0157*%
%ADD25R,0.0748X0.0787*%
%ADD26R,0.0748X0.0866*%
%ADD27R,0.0551X0.0630*%
%ADD28R,0.0591X0.0276*%
%ADD29R,0.0236X0.0394*%
%ADD30R,0.0315X0.0394*%
%ADD31R,0.0197X0.0150*%
%ADD32R,0.0197X0.0098*%
%ADD33R,0.0433X0.0748*%
%ADD34C,0.0236*%
%ADD35R,0.0906X0.0630*%
%ADD36C,0.0120*%
%ADD37C,0.0317*%
%ADD38C,0.0356*%
%ADD39C,0.0472*%
%ADD40C,0.0100*%
%ADD41C,0.0160*%
%ADD42C,0.0413*%
%ADD43C,0.0240*%
D10*
X001827Y000860D03*
X002827Y000860D03*
X003827Y000860D03*
X004827Y000860D03*
X005827Y000860D03*
X006827Y000860D03*
X016627Y005254D03*
X016627Y006156D03*
X017427Y006605D03*
X018227Y006156D03*
X017427Y005703D03*
X018227Y005254D03*
X018227Y007058D03*
X017427Y007506D03*
X018227Y007959D03*
X017427Y008408D03*
X018227Y008861D03*
X017427Y009310D03*
X016627Y008861D03*
X016627Y007959D03*
X016627Y007058D03*
D11*
X017427Y002239D03*
X017427Y012081D03*
D12*
X014927Y017509D03*
X014927Y018611D03*
D13*
X017059Y018629D03*
X017059Y017644D03*
X019027Y016660D03*
X017059Y015676D03*
X017059Y014691D03*
D14*
X012927Y016425D03*
X012927Y017095D03*
X011927Y017095D03*
X011927Y016425D03*
X010927Y016425D03*
X010927Y017095D03*
X009927Y017095D03*
X009927Y016425D03*
X006127Y013395D03*
X006127Y012725D03*
X005227Y016725D03*
X005227Y017395D03*
X009327Y006395D03*
X009327Y005725D03*
D15*
X005927Y016765D03*
X005927Y017355D03*
D16*
X005217Y015300D03*
X004317Y015300D03*
X003417Y015300D03*
D17*
X004327Y012820D03*
D18*
X004327Y016548D03*
X003327Y016548D03*
X003327Y017572D03*
X004327Y017572D03*
D19*
X005327Y019060D03*
X008927Y019060D03*
X009927Y018060D03*
D20*
X008927Y018060D03*
X009927Y019060D03*
X010927Y019060D03*
X011927Y019060D03*
X012927Y019060D03*
X012927Y018060D03*
X011927Y018060D03*
X010927Y018060D03*
X004327Y019060D03*
D21*
X003464Y006736D03*
X003464Y006540D03*
X003464Y006343D03*
X003464Y006146D03*
X003464Y005949D03*
X003464Y005752D03*
X003464Y005555D03*
X003464Y005358D03*
X003464Y005162D03*
X003464Y004965D03*
X003464Y004768D03*
X003464Y004571D03*
X003464Y004374D03*
X003464Y004177D03*
X003464Y003980D03*
X003464Y003784D03*
X007991Y003784D03*
X007991Y003980D03*
X007991Y004177D03*
X007991Y004374D03*
X007991Y004571D03*
X007991Y004768D03*
X007991Y004965D03*
X007991Y005162D03*
X007991Y005358D03*
X007991Y005555D03*
X007991Y005752D03*
X007991Y005949D03*
X007991Y006146D03*
X007991Y006343D03*
X007991Y006540D03*
X007991Y006736D03*
D22*
X007204Y007524D03*
X007007Y007524D03*
X006810Y007524D03*
X006613Y007524D03*
X006416Y007524D03*
X006219Y007524D03*
X006023Y007524D03*
X005826Y007524D03*
X005629Y007524D03*
X005432Y007524D03*
X005235Y007524D03*
X005038Y007524D03*
X004842Y007524D03*
X004645Y007524D03*
X004448Y007524D03*
X004251Y007524D03*
X004251Y002996D03*
X004448Y002996D03*
X004645Y002996D03*
X004842Y002996D03*
X005038Y002996D03*
X005235Y002996D03*
X005432Y002996D03*
X005629Y002996D03*
X005826Y002996D03*
X006023Y002996D03*
X006219Y002996D03*
X006416Y002996D03*
X006613Y002996D03*
X006810Y002996D03*
X007007Y002996D03*
X007204Y002996D03*
D23*
X005762Y002060D03*
X005093Y002060D03*
X001862Y003260D03*
X001193Y003260D03*
X001193Y003960D03*
X001862Y003960D03*
X001862Y004760D03*
X001193Y004760D03*
X001193Y007960D03*
X001862Y007960D03*
X001862Y008760D03*
X001193Y008760D03*
X007793Y009960D03*
X008462Y009960D03*
X008462Y010660D03*
X007793Y010660D03*
X011593Y011660D03*
X012262Y011660D03*
D24*
X002549Y011616D03*
X002549Y011872D03*
X002549Y011360D03*
X002549Y011104D03*
X002549Y010848D03*
D25*
X001427Y010868D03*
X001427Y011852D03*
D26*
X001427Y012935D03*
X001427Y009785D03*
D27*
X001276Y002360D03*
X002379Y002360D03*
D28*
X001916Y015974D03*
X001916Y016565D03*
X001916Y017746D03*
D29*
X000834Y018297D03*
X000834Y015423D03*
D30*
X001660Y015423D03*
X001660Y018297D03*
D31*
X011632Y013749D03*
X012223Y013749D03*
X012223Y012371D03*
X011632Y012371D03*
X013832Y012371D03*
X014423Y012371D03*
X014423Y013749D03*
X013832Y013749D03*
X013832Y009749D03*
X014423Y009749D03*
X014423Y008371D03*
X013832Y008371D03*
X012223Y008371D03*
X011632Y008371D03*
X011632Y009749D03*
X012223Y009749D03*
X012223Y006549D03*
X011632Y006549D03*
X011632Y005171D03*
X012223Y005171D03*
X013832Y005171D03*
X014423Y005171D03*
X014423Y006549D03*
X013832Y006549D03*
X013832Y003349D03*
X014423Y003349D03*
X014423Y001971D03*
X013832Y001971D03*
X012223Y001971D03*
X011632Y001971D03*
X011632Y003349D03*
X012223Y003349D03*
D32*
X012223Y003152D03*
X012223Y002955D03*
X012223Y002758D03*
X012223Y002562D03*
X012223Y002365D03*
X012223Y002168D03*
X011632Y002168D03*
X011632Y002365D03*
X011632Y002562D03*
X011632Y002758D03*
X011632Y002955D03*
X011632Y003152D03*
X013832Y003152D03*
X013832Y002955D03*
X013832Y002758D03*
X013832Y002562D03*
X013832Y002365D03*
X013832Y002168D03*
X014423Y002168D03*
X014423Y002365D03*
X014423Y002562D03*
X014423Y002758D03*
X014423Y002955D03*
X014423Y003152D03*
X014423Y005368D03*
X014423Y005565D03*
X014423Y005762D03*
X014423Y005958D03*
X014423Y006155D03*
X014423Y006352D03*
X013832Y006352D03*
X013832Y006155D03*
X013832Y005958D03*
X013832Y005762D03*
X013832Y005565D03*
X013832Y005368D03*
X012223Y005368D03*
X012223Y005565D03*
X012223Y005762D03*
X012223Y005958D03*
X012223Y006155D03*
X012223Y006352D03*
X011632Y006352D03*
X011632Y006155D03*
X011632Y005958D03*
X011632Y005762D03*
X011632Y005565D03*
X011632Y005368D03*
X011632Y008568D03*
X011632Y008765D03*
X011632Y008962D03*
X011632Y009158D03*
X011632Y009355D03*
X011632Y009552D03*
X012223Y009552D03*
X012223Y009355D03*
X012223Y009158D03*
X012223Y008962D03*
X012223Y008765D03*
X012223Y008568D03*
X013832Y008568D03*
X013832Y008765D03*
X013832Y008962D03*
X013832Y009158D03*
X013832Y009355D03*
X013832Y009552D03*
X014423Y009552D03*
X014423Y009355D03*
X014423Y009158D03*
X014423Y008962D03*
X014423Y008765D03*
X014423Y008568D03*
X014423Y012568D03*
X014423Y012765D03*
X014423Y012962D03*
X014423Y013158D03*
X014423Y013355D03*
X014423Y013552D03*
X013832Y013552D03*
X013832Y013355D03*
X013832Y013158D03*
X013832Y012962D03*
X013832Y012765D03*
X013832Y012568D03*
X012223Y012568D03*
X012223Y012765D03*
X012223Y012962D03*
X012223Y013158D03*
X012223Y013355D03*
X012223Y013552D03*
X011632Y013552D03*
X011632Y013355D03*
X011632Y013158D03*
X011632Y012962D03*
X011632Y012765D03*
X011632Y012568D03*
D33*
X001980Y007088D03*
X001075Y007088D03*
X001075Y005632D03*
X001980Y005632D03*
D34*
X008727Y004660D03*
X009327Y004660D03*
D35*
X008687Y000960D03*
X011168Y000960D03*
D36*
X001391Y000634D02*
X000828Y000634D01*
X000820Y000644D02*
X000756Y000843D01*
X000747Y000947D01*
X000747Y005199D01*
X000808Y005138D01*
X001341Y005138D01*
X001411Y005208D01*
X001411Y006055D01*
X001341Y006126D01*
X000808Y006126D01*
X000747Y006065D01*
X000747Y006655D01*
X000808Y006594D01*
X001153Y006594D01*
X001557Y006190D01*
X002057Y006190D01*
X002121Y006126D01*
X001714Y006126D01*
X001644Y006055D01*
X001644Y005208D01*
X001692Y005160D01*
X001692Y005077D01*
X001596Y005077D01*
X001551Y005032D01*
X001537Y005055D01*
X001507Y005085D01*
X001471Y005106D01*
X001430Y005117D01*
X001231Y005117D01*
X001231Y004798D01*
X001154Y004798D01*
X001154Y004722D01*
X000816Y004722D01*
X000816Y004542D01*
X000827Y004501D01*
X000848Y004465D01*
X000878Y004435D01*
X000914Y004414D01*
X000955Y004403D01*
X001154Y004403D01*
X001154Y004722D01*
X001231Y004722D01*
X001231Y004403D01*
X001430Y004403D01*
X001471Y004414D01*
X001507Y004435D01*
X001537Y004465D01*
X001551Y004488D01*
X001596Y004443D01*
X002128Y004443D01*
X002199Y004513D01*
X002199Y005007D01*
X002128Y005077D01*
X002032Y005077D01*
X002032Y005138D01*
X002246Y005138D01*
X002297Y005188D01*
X003107Y005188D01*
X003107Y005162D01*
X003464Y005162D01*
X003820Y005162D01*
X003820Y005226D01*
X003810Y005267D01*
X003788Y005303D01*
X003780Y005311D01*
X003780Y005451D01*
X003775Y005457D01*
X003780Y005462D01*
X003780Y005582D01*
X003890Y005582D01*
X004097Y005790D01*
X004097Y005890D01*
X004457Y005890D01*
X004657Y005690D01*
X005104Y005690D01*
X005170Y005624D01*
X005272Y005582D01*
X005383Y005582D01*
X005485Y005624D01*
X005563Y005702D01*
X005606Y005805D01*
X005606Y005915D01*
X005563Y006018D01*
X005485Y006096D01*
X005383Y006138D01*
X005272Y006138D01*
X005170Y006096D01*
X005104Y006030D01*
X004798Y006030D01*
X004768Y006060D01*
X005397Y006690D01*
X005397Y006890D01*
X005602Y007094D01*
X005602Y007167D01*
X005629Y007167D01*
X005693Y007167D01*
X005734Y007178D01*
X005770Y007199D01*
X005779Y007207D01*
X005919Y007207D01*
X005924Y007212D01*
X005930Y007207D01*
X006116Y007207D01*
X006121Y007212D01*
X006126Y007207D01*
X006313Y007207D01*
X006318Y007212D01*
X006323Y007207D01*
X006464Y007207D01*
X006472Y007199D01*
X006508Y007178D01*
X006549Y007167D01*
X006613Y007167D01*
X006613Y007524D01*
X006613Y007881D01*
X006586Y007881D01*
X006586Y009814D01*
X006591Y009802D01*
X006670Y009724D01*
X006772Y009682D01*
X006883Y009682D01*
X006985Y009724D01*
X007063Y009802D01*
X007106Y009905D01*
X007106Y009998D01*
X007489Y010381D01*
X007526Y010343D01*
X008059Y010343D01*
X008127Y010412D01*
X008196Y010343D01*
X008292Y010343D01*
X008292Y010277D01*
X008196Y010277D01*
X008151Y010232D01*
X008137Y010255D01*
X008107Y010285D01*
X008071Y010306D01*
X008030Y010317D01*
X007831Y010317D01*
X007831Y009998D01*
X007754Y009998D01*
X007754Y009922D01*
X007416Y009922D01*
X007416Y009742D01*
X007419Y009730D01*
X007157Y009730D01*
X007057Y009630D01*
X006640Y009213D01*
X006640Y007881D01*
X006613Y007881D01*
X006613Y007524D01*
X006613Y007524D01*
X006613Y007524D01*
X006613Y007167D01*
X006678Y007167D01*
X006718Y007178D01*
X006755Y007199D01*
X006763Y007207D01*
X006903Y007207D01*
X006908Y007212D01*
X006914Y007207D01*
X007100Y007207D01*
X007105Y007212D01*
X007111Y007207D01*
X007134Y007207D01*
X004865Y004938D01*
X003780Y004938D01*
X003780Y005012D01*
X003788Y005020D01*
X003810Y005057D01*
X003820Y005097D01*
X003820Y005162D01*
X003464Y005162D01*
X003464Y005162D01*
X003464Y005162D01*
X003107Y005162D01*
X003107Y005097D01*
X003118Y005057D01*
X003139Y005020D01*
X003147Y005012D01*
X003147Y004872D01*
X003152Y004866D01*
X003147Y004861D01*
X003147Y004675D01*
X003152Y004669D01*
X003147Y004664D01*
X003147Y004478D01*
X003152Y004473D01*
X003147Y004467D01*
X003147Y004281D01*
X003152Y004276D01*
X003147Y004270D01*
X003147Y004084D01*
X003152Y004079D01*
X003147Y004073D01*
X003147Y003887D01*
X003152Y003882D01*
X003147Y003877D01*
X003147Y003691D01*
X003217Y003620D01*
X003547Y003620D01*
X003357Y003430D01*
X002199Y003430D01*
X002199Y003507D01*
X002128Y003577D01*
X001596Y003577D01*
X001527Y003508D01*
X001459Y003577D01*
X001363Y003577D01*
X001363Y003643D01*
X001459Y003643D01*
X001527Y003712D01*
X001596Y003643D01*
X002128Y003643D01*
X002199Y003713D01*
X002199Y003790D01*
X002298Y003790D01*
X002897Y004390D01*
X002897Y004536D01*
X002963Y004602D01*
X003006Y004705D01*
X003006Y004815D01*
X002963Y004918D01*
X002885Y004996D01*
X002783Y005038D01*
X002672Y005038D01*
X002570Y004996D01*
X002491Y004918D01*
X002449Y004815D01*
X002449Y004705D01*
X002491Y004602D01*
X002557Y004536D01*
X002557Y004530D01*
X002199Y004172D01*
X002199Y004207D01*
X002128Y004277D01*
X001596Y004277D01*
X001527Y004208D01*
X001459Y004277D01*
X000926Y004277D01*
X000856Y004207D01*
X000856Y003713D01*
X000926Y003643D01*
X001023Y003643D01*
X001023Y003577D01*
X000926Y003577D01*
X000856Y003507D01*
X000856Y003013D01*
X000926Y002943D01*
X001057Y002943D01*
X001057Y002890D01*
X001112Y002835D01*
X000980Y002835D01*
X000939Y002824D01*
X000902Y002803D01*
X000873Y002773D01*
X000851Y002737D01*
X000841Y002696D01*
X000841Y002420D01*
X001216Y002420D01*
X001216Y002300D01*
X000841Y002300D01*
X000841Y002024D01*
X000851Y001983D01*
X000873Y001947D01*
X000902Y001917D01*
X000939Y001896D01*
X000980Y001885D01*
X001216Y001885D01*
X001216Y002300D01*
X001336Y002300D01*
X001336Y001885D01*
X001573Y001885D01*
X001614Y001896D01*
X001650Y001917D01*
X001680Y001947D01*
X001701Y001983D01*
X001712Y002024D01*
X001712Y002300D01*
X001336Y002300D01*
X001336Y002420D01*
X001712Y002420D01*
X001712Y002507D01*
X001772Y002482D01*
X001883Y002482D01*
X001983Y002523D01*
X001983Y001995D01*
X002053Y001925D01*
X002704Y001925D01*
X002774Y001995D01*
X002774Y002190D01*
X003198Y002190D01*
X003297Y002290D01*
X003498Y002490D01*
X003680Y002490D01*
X003649Y002415D01*
X003649Y002322D01*
X002657Y001330D01*
X002657Y001320D01*
X002550Y001275D01*
X002412Y001138D01*
X002337Y000957D01*
X002337Y000763D01*
X002412Y000582D01*
X002550Y000445D01*
X002730Y000370D01*
X002925Y000370D01*
X003105Y000445D01*
X003243Y000582D01*
X003317Y000763D01*
X003317Y000957D01*
X003243Y001138D01*
X003105Y001275D01*
X003090Y001282D01*
X003889Y002082D01*
X003983Y002082D01*
X004027Y002100D01*
X003657Y001730D01*
X003657Y001320D01*
X003550Y001275D01*
X003412Y001138D01*
X003337Y000957D01*
X003337Y000763D01*
X003412Y000582D01*
X003550Y000445D01*
X003730Y000370D01*
X003925Y000370D01*
X004105Y000445D01*
X004243Y000582D01*
X004309Y000743D01*
X004310Y000736D01*
X004336Y000657D01*
X004374Y000582D01*
X004423Y000515D01*
X004482Y000456D01*
X004550Y000407D01*
X004624Y000369D01*
X004703Y000343D01*
X004786Y000330D01*
X004787Y000330D01*
X004787Y000820D01*
X004867Y000820D01*
X004867Y000330D01*
X004869Y000330D01*
X004951Y000343D01*
X005031Y000369D01*
X005105Y000407D01*
X005173Y000456D01*
X005232Y000515D01*
X005281Y000582D01*
X005319Y000657D01*
X005344Y000736D01*
X005345Y000743D01*
X005412Y000582D01*
X005550Y000445D01*
X005730Y000370D01*
X005925Y000370D01*
X006105Y000445D01*
X006243Y000582D01*
X006317Y000763D01*
X006317Y000957D01*
X006243Y001138D01*
X006105Y001275D01*
X005997Y001320D01*
X005997Y001743D01*
X006028Y001743D01*
X006099Y001813D01*
X006099Y002307D01*
X006028Y002377D01*
X005996Y002377D01*
X005996Y002679D01*
X006116Y002679D01*
X006121Y002685D01*
X006126Y002679D01*
X006246Y002679D01*
X006246Y002001D01*
X006757Y001490D01*
X006857Y001390D01*
X008180Y001390D01*
X008114Y001325D01*
X008114Y001200D01*
X007180Y001200D01*
X007105Y001275D01*
X006925Y001350D01*
X006730Y001350D01*
X006550Y001275D01*
X006412Y001138D01*
X006337Y000957D01*
X006337Y000763D01*
X006412Y000582D01*
X006550Y000445D01*
X006730Y000370D01*
X006925Y000370D01*
X007105Y000445D01*
X007243Y000582D01*
X007300Y000720D01*
X008114Y000720D01*
X008114Y000595D01*
X008185Y000525D01*
X009190Y000525D01*
X009260Y000595D01*
X009260Y001325D01*
X009195Y001390D01*
X010398Y001390D01*
X011006Y001998D01*
X011374Y001998D01*
X011374Y001971D01*
X011374Y001875D01*
X011385Y001834D01*
X011406Y001798D01*
X011435Y001768D01*
X011472Y001747D01*
X011513Y001736D01*
X011632Y001736D01*
X011632Y001971D01*
X011374Y001971D01*
X011632Y001971D01*
X011632Y001971D01*
X011632Y001971D01*
X011632Y001736D01*
X011752Y001736D01*
X011792Y001747D01*
X011829Y001768D01*
X011859Y001798D01*
X011880Y001834D01*
X011891Y001875D01*
X011891Y001971D01*
X011891Y002067D01*
X011880Y002108D01*
X011859Y002144D01*
X011851Y002152D01*
X011851Y003473D01*
X011802Y003522D01*
X011802Y003626D01*
X011597Y003830D01*
X011498Y003930D01*
X011451Y003930D01*
X011385Y003996D01*
X011283Y004038D01*
X011172Y004038D01*
X011070Y003996D01*
X010991Y003918D01*
X010949Y003815D01*
X010949Y003705D01*
X010991Y003602D01*
X011070Y003524D01*
X011172Y003482D01*
X011283Y003482D01*
X011385Y003524D01*
X011404Y003543D01*
X011444Y003503D01*
X011414Y003473D01*
X011414Y003322D01*
X010349Y003322D01*
X010249Y003223D01*
X009657Y002630D01*
X007298Y002630D01*
X007248Y002679D01*
X007297Y002679D01*
X007367Y002750D01*
X007367Y002826D01*
X007460Y002826D01*
X007475Y002791D01*
X007558Y002707D01*
X007668Y002662D01*
X007787Y002662D01*
X007896Y002707D01*
X007980Y002791D01*
X008025Y002901D01*
X008025Y003019D01*
X007980Y003129D01*
X007896Y003213D01*
X007787Y003258D01*
X007668Y003258D01*
X007558Y003213D01*
X007512Y003166D01*
X007367Y003166D01*
X007367Y003243D01*
X007320Y003290D01*
X007957Y003290D01*
X008257Y002990D01*
X009498Y002990D01*
X009597Y003090D01*
X011297Y004790D01*
X011297Y005090D01*
X011374Y005166D01*
X011374Y005075D01*
X011385Y005034D01*
X011406Y004998D01*
X011435Y004968D01*
X011472Y004947D01*
X011513Y004936D01*
X011632Y004936D01*
X011632Y005171D01*
X011632Y005171D01*
X011632Y004936D01*
X011752Y004936D01*
X011792Y004947D01*
X011829Y004968D01*
X011859Y004998D01*
X011880Y005034D01*
X011891Y005075D01*
X011891Y005171D01*
X011891Y005267D01*
X011880Y005308D01*
X011859Y005344D01*
X011851Y005352D01*
X011851Y006673D01*
X011780Y006744D01*
X011484Y006744D01*
X011459Y006719D01*
X011046Y006719D01*
X010946Y006619D01*
X009659Y005332D01*
X008348Y005332D01*
X008348Y005358D01*
X007991Y005358D01*
X007634Y005358D01*
X007634Y005294D01*
X007645Y005253D01*
X007666Y005217D01*
X007674Y005209D01*
X007674Y005135D01*
X007243Y005135D01*
X007493Y005385D01*
X007634Y005385D01*
X007634Y005358D01*
X007991Y005358D01*
X007991Y005358D01*
X007991Y005358D01*
X008348Y005358D01*
X008348Y005385D01*
X009224Y005385D01*
X009258Y005371D01*
X009291Y005385D01*
X009328Y005385D01*
X009331Y005389D01*
X009574Y005389D01*
X009644Y005459D01*
X009644Y005992D01*
X009599Y006037D01*
X009622Y006050D01*
X009652Y006080D01*
X009673Y006116D01*
X009684Y006157D01*
X009684Y006356D01*
X009366Y006356D01*
X009366Y006433D01*
X009684Y006433D01*
X009684Y006624D01*
X009685Y006624D01*
X009763Y006702D01*
X009806Y006805D01*
X009806Y006915D01*
X009763Y007018D01*
X009685Y007096D01*
X009583Y007138D01*
X009472Y007138D01*
X009370Y007096D01*
X009291Y007018D01*
X009255Y006930D01*
X009038Y006930D01*
X009089Y006982D01*
X009183Y006982D01*
X009285Y007024D01*
X009363Y007102D01*
X009406Y007205D01*
X009406Y007315D01*
X009363Y007418D01*
X009285Y007496D01*
X009183Y007538D01*
X009072Y007538D01*
X009028Y007520D01*
X009198Y007690D01*
X009404Y007690D01*
X009470Y007624D01*
X009572Y007582D01*
X009683Y007582D01*
X009785Y007624D01*
X009863Y007702D01*
X009906Y007805D01*
X009906Y007915D01*
X009863Y008018D01*
X009785Y008096D01*
X009683Y008138D01*
X009572Y008138D01*
X009470Y008096D01*
X009404Y008030D01*
X009057Y008030D01*
X008957Y007930D01*
X008557Y007530D01*
X008557Y007330D01*
X008133Y006906D01*
X007921Y006906D01*
X007914Y006900D01*
X007907Y006900D01*
X009598Y008590D01*
X010198Y008590D01*
X010467Y008859D01*
X010449Y008815D01*
X010449Y008705D01*
X010491Y008602D01*
X010570Y008524D01*
X010672Y008482D01*
X010783Y008482D01*
X010885Y008524D01*
X010963Y008602D01*
X011006Y008705D01*
X011006Y008792D01*
X011414Y008792D01*
X011414Y008552D01*
X011406Y008544D01*
X011385Y008508D01*
X011374Y008467D01*
X011374Y008371D01*
X011374Y008275D01*
X011385Y008234D01*
X011406Y008198D01*
X011435Y008168D01*
X011472Y008147D01*
X011513Y008136D01*
X011632Y008136D01*
X011632Y008371D01*
X011374Y008371D01*
X011632Y008371D01*
X011632Y008371D01*
X011632Y008371D01*
X011632Y008136D01*
X011752Y008136D01*
X011792Y008147D01*
X011829Y008168D01*
X011859Y008198D01*
X011880Y008234D01*
X011891Y008275D01*
X011891Y008371D01*
X011891Y008398D01*
X011906Y008398D01*
X011998Y008490D01*
X012004Y008496D01*
X012004Y008247D01*
X012075Y008176D01*
X012371Y008176D01*
X012396Y008201D01*
X012446Y008201D01*
X012557Y008090D01*
X012657Y007990D01*
X014098Y007990D01*
X014198Y008090D01*
X014284Y008176D01*
X014571Y008176D01*
X014641Y008247D01*
X014641Y008988D01*
X014656Y008988D01*
X014691Y008902D01*
X014770Y008824D01*
X014872Y008782D01*
X014983Y008782D01*
X015085Y008824D01*
X015163Y008902D01*
X015206Y009005D01*
X015206Y009115D01*
X015163Y009218D01*
X015085Y009296D01*
X014983Y009338D01*
X014872Y009338D01*
X014848Y009328D01*
X014641Y009328D01*
X014641Y009382D01*
X014871Y009382D01*
X014872Y009382D01*
X014983Y009382D01*
X015085Y009424D01*
X015163Y009502D01*
X015206Y009605D01*
X015206Y009715D01*
X015163Y009818D01*
X015085Y009896D01*
X014983Y009938D01*
X014872Y009938D01*
X014770Y009896D01*
X014691Y009818D01*
X014652Y009722D01*
X014641Y009722D01*
X014641Y009873D01*
X014571Y009944D01*
X014275Y009944D01*
X014250Y009919D01*
X014146Y009919D01*
X014051Y009824D01*
X014051Y009873D01*
X014032Y009892D01*
X014032Y010082D01*
X014110Y010160D01*
X015245Y010160D01*
X015627Y009777D01*
X015627Y008177D01*
X015927Y007877D01*
X016045Y007760D01*
X016180Y007760D01*
X016212Y007682D01*
X016350Y007544D01*
X016435Y007508D01*
X016350Y007473D01*
X016212Y007335D01*
X016181Y007260D01*
X016045Y007260D01*
X015927Y007143D01*
X015745Y006960D01*
X015627Y006843D01*
X015627Y004743D01*
X015245Y004360D01*
X014345Y004360D01*
X014227Y004243D01*
X013632Y003648D01*
X013632Y003519D01*
X012396Y003519D01*
X012371Y003544D01*
X012075Y003544D01*
X012004Y003473D01*
X012004Y001847D01*
X012075Y001776D01*
X012371Y001776D01*
X012385Y001790D01*
X013257Y001790D01*
X013457Y001590D01*
X014698Y001590D01*
X014797Y001690D01*
X014997Y001890D01*
X014997Y002530D01*
X016346Y002530D01*
X016378Y002649D02*
X014879Y002649D01*
X014898Y002630D02*
X014796Y002732D01*
X014641Y002732D01*
X014641Y002982D01*
X014658Y002982D01*
X014691Y002902D01*
X014770Y002824D01*
X014872Y002782D01*
X014983Y002782D01*
X015085Y002824D01*
X015163Y002902D01*
X015206Y003005D01*
X015206Y003115D01*
X015163Y003218D01*
X015085Y003296D01*
X014983Y003338D01*
X014872Y003338D01*
X014833Y003322D01*
X014641Y003322D01*
X014641Y003473D01*
X014571Y003544D01*
X014275Y003544D01*
X014250Y003519D01*
X014146Y003519D01*
X014051Y003424D01*
X014051Y003473D01*
X014037Y003487D01*
X014510Y003960D01*
X015410Y003960D01*
X015527Y004077D01*
X016027Y004577D01*
X016027Y006677D01*
X016188Y006838D01*
X016212Y006780D01*
X016350Y006642D01*
X016435Y006607D01*
X016350Y006571D01*
X016212Y006434D01*
X016137Y006254D01*
X016137Y006059D01*
X016212Y005879D01*
X016350Y005741D01*
X016385Y005726D01*
X016350Y005708D01*
X016282Y005659D01*
X016223Y005600D01*
X016174Y005532D01*
X016136Y005458D01*
X016110Y005379D01*
X016097Y005296D01*
X016097Y005294D01*
X016587Y005294D01*
X016587Y005214D01*
X016667Y005214D01*
X016667Y004724D01*
X016669Y004724D01*
X016751Y004738D01*
X016831Y004763D01*
X016905Y004801D01*
X016973Y004850D01*
X017032Y004909D01*
X017081Y004977D01*
X017119Y005051D01*
X017144Y005130D01*
X017157Y005213D01*
X017157Y005214D01*
X016667Y005214D01*
X016667Y005294D01*
X017088Y005294D01*
X017150Y005250D01*
X017224Y005212D01*
X017303Y005186D01*
X017386Y005173D01*
X017387Y005173D01*
X017387Y005663D01*
X017467Y005663D01*
X017467Y005173D01*
X017469Y005173D01*
X017551Y005186D01*
X017631Y005212D01*
X017705Y005250D01*
X017737Y005273D01*
X017737Y005157D01*
X017812Y004977D01*
X017950Y004839D01*
X018130Y004764D01*
X018325Y004764D01*
X018505Y004839D01*
X018643Y004977D01*
X018717Y005157D01*
X018717Y005352D01*
X018643Y005532D01*
X018505Y005670D01*
X018419Y005705D01*
X018505Y005741D01*
X018643Y005879D01*
X018717Y006059D01*
X018717Y006254D01*
X018643Y006434D01*
X018505Y006571D01*
X018419Y006607D01*
X018505Y006642D01*
X018643Y006780D01*
X018717Y006960D01*
X018717Y007155D01*
X018643Y007335D01*
X018505Y007473D01*
X018419Y007508D01*
X018505Y007544D01*
X018643Y007682D01*
X018717Y007862D01*
X018717Y008057D01*
X018643Y008237D01*
X018505Y008375D01*
X018419Y008410D01*
X018505Y008445D01*
X018643Y008583D01*
X018717Y008763D01*
X018717Y008958D01*
X018643Y009138D01*
X018505Y009276D01*
X018325Y009351D01*
X018130Y009351D01*
X017950Y009276D01*
X017943Y009270D01*
X017467Y009270D01*
X017467Y008780D01*
X017467Y008448D01*
X017387Y008448D01*
X017387Y008368D01*
X016912Y008368D01*
X016905Y008375D01*
X016819Y008410D01*
X016905Y008445D01*
X016908Y008448D01*
X017387Y008448D01*
X017387Y009270D01*
X016912Y009270D01*
X016905Y009276D01*
X016725Y009351D01*
X016530Y009351D01*
X016350Y009276D01*
X016212Y009138D01*
X016137Y008958D01*
X016137Y008763D01*
X016212Y008583D01*
X016350Y008445D01*
X016435Y008410D01*
X016350Y008375D01*
X016212Y008237D01*
X016189Y008181D01*
X016027Y008343D01*
X016027Y009943D01*
X015410Y010560D01*
X013945Y010560D01*
X013827Y010443D01*
X013632Y010248D01*
X013632Y009919D01*
X012396Y009919D01*
X012371Y009944D01*
X012097Y009944D01*
X012097Y010130D01*
X011797Y010430D01*
X011698Y010530D01*
X011151Y010530D01*
X011085Y010596D01*
X010983Y010638D01*
X010872Y010638D01*
X010770Y010596D01*
X010691Y010518D01*
X010649Y010415D01*
X010649Y010305D01*
X010691Y010202D01*
X010770Y010124D01*
X010872Y010082D01*
X010983Y010082D01*
X011085Y010124D01*
X011151Y010190D01*
X011557Y010190D01*
X011757Y009990D01*
X011757Y009944D01*
X011484Y009944D01*
X011459Y009919D01*
X010709Y009919D01*
X010706Y009922D01*
X010706Y010015D01*
X010663Y010118D01*
X010585Y010196D01*
X010483Y010238D01*
X010372Y010238D01*
X010270Y010196D01*
X010191Y010118D01*
X010149Y010015D01*
X010149Y009905D01*
X010191Y009802D01*
X010270Y009724D01*
X010274Y009722D01*
X009149Y009722D01*
X008965Y009538D01*
X008872Y009538D01*
X008770Y009496D01*
X008691Y009418D01*
X008649Y009315D01*
X008649Y009205D01*
X008691Y009102D01*
X008770Y009024D01*
X008872Y008982D01*
X008909Y008982D01*
X007367Y007440D01*
X007367Y007447D01*
X007374Y007453D01*
X007374Y008466D01*
X007798Y008890D01*
X007897Y008990D01*
X007897Y009036D01*
X007963Y009102D01*
X008006Y009205D01*
X008006Y009315D01*
X007975Y009390D01*
X008298Y009390D01*
X008398Y009490D01*
X008497Y009590D01*
X008497Y009643D01*
X008728Y009643D01*
X008799Y009713D01*
X008799Y010207D01*
X008728Y010277D01*
X008632Y010277D01*
X008632Y010343D01*
X008728Y010343D01*
X008799Y010413D01*
X008799Y010890D01*
X010098Y010890D01*
X011409Y012201D01*
X011459Y012201D01*
X011484Y012176D01*
X011780Y012176D01*
X011851Y012247D01*
X012004Y012247D01*
X012053Y012198D01*
X012053Y011977D01*
X011996Y011977D01*
X011951Y011932D01*
X011937Y011955D01*
X011907Y011985D01*
X011871Y012006D01*
X011830Y012017D01*
X011631Y012017D01*
X011631Y011698D01*
X011554Y011698D01*
X011554Y011622D01*
X011216Y011622D01*
X011216Y011442D01*
X011227Y011401D01*
X011248Y011365D01*
X011278Y011335D01*
X011314Y011314D01*
X011355Y011303D01*
X011554Y011303D01*
X011554Y011622D01*
X011631Y011622D01*
X011631Y011303D01*
X011830Y011303D01*
X011871Y011314D01*
X011907Y011335D01*
X011937Y011365D01*
X011951Y011388D01*
X011996Y011343D01*
X012528Y011343D01*
X012599Y011413D01*
X012599Y011490D01*
X013698Y011490D01*
X013797Y011590D01*
X014297Y012090D01*
X014297Y012176D01*
X014571Y012176D01*
X014641Y012247D01*
X015073Y012247D01*
X015091Y012202D02*
X015049Y012305D01*
X015049Y012398D01*
X014852Y012595D01*
X014641Y012595D01*
X014641Y012247D01*
X014641Y012366D02*
X015049Y012366D01*
X014963Y012484D02*
X014641Y012484D01*
X014641Y012935D02*
X014641Y012988D01*
X015105Y012988D01*
X015170Y012924D01*
X015272Y012882D01*
X015383Y012882D01*
X015485Y012924D01*
X015563Y013002D01*
X015606Y013105D01*
X015606Y013215D01*
X015563Y013318D01*
X015485Y013396D01*
X015383Y013438D01*
X015272Y013438D01*
X015170Y013396D01*
X015102Y013328D01*
X014641Y013328D01*
X014641Y013382D01*
X015090Y013382D01*
X015289Y013582D01*
X015383Y013582D01*
X015485Y013624D01*
X015563Y013702D01*
X015606Y013805D01*
X015606Y013915D01*
X015563Y014018D01*
X015485Y014096D01*
X015383Y014138D01*
X015272Y014138D01*
X015170Y014096D01*
X015091Y014018D01*
X015049Y013915D01*
X015049Y013822D01*
X014949Y013722D01*
X014641Y013722D01*
X014641Y013873D01*
X014571Y013944D01*
X014275Y013944D01*
X014261Y013930D01*
X014157Y013930D01*
X014057Y013830D01*
X014051Y013824D01*
X014051Y013873D01*
X013997Y013927D01*
X013997Y013990D01*
X015097Y015090D01*
X015097Y017113D01*
X015292Y017113D01*
X015362Y017184D01*
X015362Y017834D01*
X015292Y017904D01*
X014563Y017904D01*
X014492Y017834D01*
X014492Y017184D01*
X014563Y017113D01*
X014757Y017113D01*
X014757Y015230D01*
X013827Y014300D01*
X013498Y014630D01*
X012557Y014630D01*
X012457Y014530D01*
X012053Y014126D01*
X012053Y013922D01*
X012004Y013873D01*
X012004Y012247D01*
X012004Y012366D02*
X011851Y012366D01*
X011851Y012484D02*
X012004Y012484D01*
X012004Y012603D02*
X011851Y012603D01*
X011851Y012721D02*
X012004Y012721D01*
X012004Y012840D02*
X011851Y012840D01*
X011851Y012958D02*
X012004Y012958D01*
X012004Y013077D02*
X011851Y013077D01*
X011851Y013195D02*
X012004Y013195D01*
X012004Y013314D02*
X011851Y013314D01*
X011851Y013432D02*
X012004Y013432D01*
X012004Y013551D02*
X011851Y013551D01*
X011851Y013669D02*
X012004Y013669D01*
X012004Y013788D02*
X011851Y013788D01*
X011851Y013873D02*
X011780Y013944D01*
X011484Y013944D01*
X011459Y013919D01*
X010546Y013919D01*
X009257Y012630D01*
X006657Y012630D01*
X006557Y012530D01*
X006327Y012300D01*
X006327Y012389D01*
X006374Y012389D01*
X006444Y012459D01*
X006444Y012992D01*
X006399Y013037D01*
X006422Y013050D01*
X006452Y013080D01*
X006473Y013116D01*
X006484Y013157D01*
X006484Y013356D01*
X006166Y013356D01*
X006166Y013433D01*
X006484Y013433D01*
X006484Y013632D01*
X006473Y013673D01*
X006452Y013709D01*
X006422Y013739D01*
X006386Y013760D01*
X006345Y013771D01*
X006166Y013771D01*
X006166Y013433D01*
X006089Y013433D01*
X006089Y013356D01*
X005771Y013356D01*
X005771Y013157D01*
X005781Y013116D01*
X005802Y013080D01*
X005832Y013050D01*
X005856Y013037D01*
X005811Y012992D01*
X005811Y012558D01*
X005768Y012558D01*
X005658Y012513D01*
X005575Y012429D01*
X005529Y012319D01*
X005529Y012201D01*
X005575Y012091D01*
X005658Y012007D01*
X005768Y011962D01*
X005887Y011962D01*
X005996Y012007D01*
X006049Y012060D01*
X006087Y012060D01*
X004497Y010470D01*
X004497Y011684D01*
X004506Y011705D01*
X004506Y011815D01*
X004463Y011918D01*
X004385Y011996D01*
X004283Y012038D01*
X004172Y012038D01*
X004070Y011996D01*
X003991Y011918D01*
X003949Y011815D01*
X003949Y011705D01*
X003967Y011661D01*
X003686Y011942D01*
X003586Y012042D01*
X002903Y012042D01*
X002875Y012071D01*
X002821Y012071D01*
X002910Y012160D01*
X003027Y012277D01*
X003027Y014143D01*
X008670Y014143D01*
X008665Y014138D02*
X008572Y014138D01*
X008470Y014096D01*
X008391Y014018D01*
X008349Y013915D01*
X008349Y013805D01*
X008391Y013702D01*
X008470Y013624D01*
X008572Y013582D01*
X008683Y013582D01*
X008785Y013624D01*
X008863Y013702D01*
X008906Y013805D01*
X008906Y013898D01*
X009498Y014490D01*
X009597Y014590D01*
X009597Y016524D01*
X009611Y016537D01*
X009611Y016159D01*
X009681Y016089D01*
X010174Y016089D01*
X010244Y016159D01*
X010244Y016502D01*
X010257Y016515D01*
X010257Y014930D01*
X008665Y013338D01*
X008572Y013338D01*
X008470Y013296D01*
X008391Y013218D01*
X008349Y013115D01*
X008349Y013005D01*
X008391Y012902D01*
X008470Y012824D01*
X008572Y012782D01*
X008683Y012782D01*
X008785Y012824D01*
X008863Y012902D01*
X008906Y013005D01*
X008906Y013098D01*
X010498Y014690D01*
X010597Y014790D01*
X010597Y016524D01*
X010611Y016537D01*
X010611Y016159D01*
X010681Y016089D01*
X011174Y016089D01*
X011244Y016159D01*
X011244Y016536D01*
X011257Y016550D01*
X011257Y015690D01*
X011657Y015290D01*
X011709Y015238D01*
X011672Y015238D01*
X011570Y015196D01*
X011491Y015118D01*
X011449Y015015D01*
X011449Y014905D01*
X011491Y014802D01*
X011570Y014724D01*
X011672Y014682D01*
X011783Y014682D01*
X011885Y014724D01*
X011951Y014790D01*
X012398Y014790D01*
X012497Y014890D01*
X012697Y015090D01*
X012697Y015630D01*
X012598Y015730D01*
X012597Y015730D01*
X012597Y016524D01*
X012611Y016537D01*
X012611Y016159D01*
X012681Y016089D01*
X013174Y016089D01*
X013244Y016159D01*
X013244Y016255D01*
X013263Y016255D01*
X013598Y016590D01*
X013697Y016690D01*
X013697Y018330D01*
X013397Y018630D01*
X013298Y018730D01*
X013183Y018730D01*
X013199Y018742D01*
X013246Y018788D01*
X013284Y018841D01*
X013314Y018900D01*
X013335Y018962D01*
X013345Y019027D01*
X013345Y019041D01*
X012946Y019041D01*
X012946Y019079D01*
X012909Y019079D01*
X012909Y019477D01*
X012895Y019477D01*
X012830Y019467D01*
X012767Y019447D01*
X012709Y019417D01*
X012655Y019378D01*
X012609Y019332D01*
X012570Y019279D01*
X012540Y019220D01*
X012520Y019158D01*
X012510Y019093D01*
X012510Y019079D01*
X012909Y019079D01*
X012909Y019041D01*
X012510Y019041D01*
X012510Y019027D01*
X012520Y018962D01*
X012540Y018900D01*
X012570Y018841D01*
X012609Y018788D01*
X012655Y018742D01*
X012671Y018730D01*
X012183Y018730D01*
X012199Y018742D01*
X012246Y018788D01*
X012284Y018841D01*
X012314Y018900D01*
X012335Y018962D01*
X012345Y019027D01*
X012345Y019041D01*
X011946Y019041D01*
X011946Y019079D01*
X011909Y019079D01*
X011909Y019477D01*
X011895Y019477D01*
X011830Y019467D01*
X011767Y019447D01*
X011709Y019417D01*
X011655Y019378D01*
X011609Y019332D01*
X011570Y019279D01*
X011540Y019220D01*
X011520Y019158D01*
X011510Y019093D01*
X011510Y019079D01*
X011909Y019079D01*
X011909Y019041D01*
X011510Y019041D01*
X011510Y019027D01*
X011520Y018962D01*
X011540Y018900D01*
X011570Y018841D01*
X011609Y018788D01*
X011655Y018742D01*
X011671Y018730D01*
X011183Y018730D01*
X011199Y018742D01*
X011246Y018788D01*
X011284Y018841D01*
X011314Y018900D01*
X011335Y018962D01*
X011345Y019027D01*
X011345Y019041D01*
X010946Y019041D01*
X010946Y019079D01*
X010909Y019079D01*
X010909Y019477D01*
X010895Y019477D01*
X010830Y019467D01*
X010767Y019447D01*
X010709Y019417D01*
X010655Y019378D01*
X010609Y019332D01*
X010570Y019279D01*
X010540Y019220D01*
X010520Y019158D01*
X010510Y019093D01*
X010510Y019079D01*
X010909Y019079D01*
X010909Y019041D01*
X010510Y019041D01*
X010510Y019027D01*
X010520Y018962D01*
X010540Y018900D01*
X010570Y018841D01*
X010609Y018788D01*
X010655Y018742D01*
X010671Y018730D01*
X010183Y018730D01*
X010199Y018742D01*
X010246Y018788D01*
X010284Y018841D01*
X010314Y018900D01*
X010335Y018962D01*
X010345Y019027D01*
X010345Y019041D01*
X009946Y019041D01*
X009946Y019079D01*
X009909Y019079D01*
X009909Y019477D01*
X009895Y019477D01*
X009830Y019467D01*
X009767Y019447D01*
X009709Y019417D01*
X009655Y019378D01*
X009609Y019332D01*
X009570Y019279D01*
X009540Y019220D01*
X009520Y019158D01*
X009510Y019093D01*
X009510Y019079D01*
X009909Y019079D01*
X009909Y019041D01*
X009510Y019041D01*
X009510Y019027D01*
X009520Y018962D01*
X009540Y018900D01*
X009570Y018841D01*
X009609Y018788D01*
X009655Y018742D01*
X009671Y018730D01*
X009357Y018730D01*
X009046Y018419D01*
X009002Y018437D01*
X008852Y018437D01*
X008714Y018380D01*
X008634Y018300D01*
X008180Y018300D01*
X008091Y018263D01*
X008024Y018196D01*
X006228Y016400D01*
X005827Y016400D01*
X005780Y016447D01*
X005909Y016447D01*
X005909Y016746D01*
X005946Y016746D01*
X005946Y016447D01*
X006106Y016447D01*
X006147Y016458D01*
X006183Y016479D01*
X006213Y016509D01*
X006234Y016545D01*
X006245Y016586D01*
X006245Y016746D01*
X005946Y016746D01*
X005946Y016783D01*
X006245Y016783D01*
X006245Y016943D01*
X006234Y016984D01*
X006213Y017020D01*
X006183Y017050D01*
X006147Y017071D01*
X006122Y017078D01*
X006135Y017078D01*
X006205Y017148D01*
X006205Y017562D01*
X006135Y017633D01*
X005940Y017633D01*
X005936Y017635D01*
X005544Y017635D01*
X005544Y017661D01*
X005474Y017731D01*
X004981Y017731D01*
X004911Y017661D01*
X004911Y017128D01*
X004979Y017060D01*
X004911Y016992D01*
X004911Y016788D01*
X004802Y016788D01*
X004802Y016873D01*
X004731Y016944D01*
X003923Y016944D01*
X003853Y016873D01*
X003853Y016223D01*
X003923Y016153D01*
X004077Y016153D01*
X004077Y015815D01*
X003973Y015815D01*
X003902Y015745D01*
X003902Y014855D01*
X003973Y014785D01*
X004662Y014785D01*
X004732Y014855D01*
X004732Y015745D01*
X004662Y015815D01*
X004557Y015815D01*
X004557Y016153D01*
X004731Y016153D01*
X004802Y016223D01*
X004802Y016308D01*
X005240Y016308D01*
X005524Y016024D01*
X005591Y015957D01*
X005680Y015920D01*
X006229Y015920D01*
X006229Y015901D01*
X006275Y015791D01*
X006358Y015707D01*
X006468Y015662D01*
X006587Y015662D01*
X006696Y015707D01*
X006780Y015791D01*
X006825Y015901D01*
X006825Y016019D01*
X006780Y016129D01*
X006708Y016201D01*
X008327Y017820D01*
X008634Y017820D01*
X008714Y017740D01*
X008852Y017683D01*
X009002Y017683D01*
X009141Y017740D01*
X009247Y017846D01*
X009305Y017985D01*
X009305Y018135D01*
X009287Y018179D01*
X009498Y018390D01*
X009573Y018390D01*
X009550Y018367D01*
X009550Y017753D01*
X009620Y017683D01*
X009757Y017683D01*
X009757Y017431D01*
X009681Y017431D01*
X009611Y017361D01*
X009611Y017018D01*
X009257Y016665D01*
X009257Y014730D01*
X008665Y014138D01*
X008788Y014262D02*
X002909Y014262D01*
X002910Y014260D02*
X002527Y014643D01*
X002527Y015843D01*
X002332Y016039D01*
X003177Y016039D01*
X003177Y016153D02*
X003177Y015815D01*
X003073Y015815D01*
X003002Y015745D01*
X003002Y014855D01*
X003073Y014785D01*
X003762Y014785D01*
X003832Y014855D01*
X003832Y015745D01*
X003762Y015815D01*
X003657Y015815D01*
X003657Y016153D01*
X003731Y016153D01*
X003802Y016223D01*
X003802Y016873D01*
X003731Y016944D01*
X002923Y016944D01*
X002853Y016873D01*
X002853Y016788D01*
X002296Y016788D01*
X002261Y016823D01*
X001571Y016823D01*
X001501Y016752D01*
X001501Y016385D01*
X001479Y016438D01*
X001396Y016521D01*
X001286Y016567D01*
X001168Y016567D01*
X001059Y016521D01*
X000975Y016438D01*
X000930Y016329D01*
X000930Y016210D01*
X000975Y016101D01*
X001059Y016018D01*
X001168Y015972D01*
X001286Y015972D01*
X001396Y016018D01*
X001479Y016101D01*
X001501Y016154D01*
X001501Y015787D01*
X001548Y015740D01*
X001453Y015740D01*
X001383Y015670D01*
X001383Y015176D01*
X001453Y015106D01*
X001868Y015106D01*
X001938Y015176D01*
X001938Y015670D01*
X001891Y015716D01*
X002088Y015716D01*
X002127Y015677D01*
X002127Y014477D01*
X002245Y014360D01*
X002627Y013977D01*
X002627Y012443D01*
X002349Y012165D01*
X002349Y012071D01*
X002224Y012071D01*
X002154Y012000D01*
X002154Y011033D01*
X002146Y011025D01*
X002125Y010989D01*
X002114Y010948D01*
X002114Y010848D01*
X002114Y010748D01*
X002125Y010708D01*
X002146Y010671D01*
X002176Y010641D01*
X002212Y010620D01*
X002253Y010609D01*
X002549Y010609D01*
X002549Y010848D01*
X002114Y010848D01*
X002549Y010848D01*
X002549Y010848D01*
X002549Y010848D01*
X002549Y010609D01*
X002846Y010609D01*
X002887Y010620D01*
X002923Y010641D01*
X002953Y010671D01*
X002974Y010708D01*
X002985Y010748D01*
X002985Y010848D01*
X002549Y010848D01*
X002549Y010848D01*
X002985Y010848D01*
X002985Y010934D01*
X003013Y010934D01*
X003157Y010790D01*
X003157Y010684D01*
X003091Y010618D01*
X003049Y010515D01*
X003049Y010405D01*
X003091Y010302D01*
X003170Y010224D01*
X003272Y010182D01*
X003383Y010182D01*
X003485Y010224D01*
X003557Y010296D01*
X003557Y009030D01*
X002557Y008030D01*
X002557Y008030D01*
X002457Y007930D01*
X002457Y006290D01*
X002557Y006190D01*
X002968Y005779D01*
X003147Y005779D01*
X003147Y005725D01*
X003003Y005725D01*
X002297Y006430D01*
X002198Y006530D01*
X001698Y006530D01*
X001411Y006817D01*
X001411Y007512D01*
X001363Y007560D01*
X001363Y007643D01*
X001459Y007643D01*
X001504Y007688D01*
X001517Y007665D01*
X001547Y007635D01*
X001584Y007614D01*
X001624Y007603D01*
X001824Y007603D01*
X001824Y007922D01*
X001900Y007922D01*
X001900Y007603D01*
X002100Y007603D01*
X002140Y007614D01*
X002177Y007635D01*
X002207Y007665D01*
X002228Y007701D01*
X002239Y007742D01*
X002239Y007922D01*
X001900Y007922D01*
X001900Y007998D01*
X001824Y007998D01*
X001824Y008317D01*
X001624Y008317D01*
X001584Y008306D01*
X001547Y008285D01*
X001517Y008255D01*
X001504Y008232D01*
X001459Y008277D01*
X000926Y008277D01*
X000856Y008207D01*
X000856Y007713D01*
X000926Y007643D01*
X001023Y007643D01*
X001023Y007582D01*
X000808Y007582D01*
X000747Y007521D01*
X000747Y015106D01*
X001001Y015106D01*
X001072Y015176D01*
X001072Y015670D01*
X001001Y015740D01*
X000747Y015740D01*
X000747Y017980D01*
X001001Y017980D01*
X001072Y018050D01*
X001072Y018544D01*
X001001Y018614D01*
X000747Y018614D01*
X000747Y019058D01*
X000756Y019162D01*
X000820Y019361D01*
X000943Y019530D01*
X001112Y019652D01*
X001310Y019717D01*
X001415Y019725D01*
X019525Y019725D01*
X019629Y019717D01*
X019828Y019652D01*
X019997Y019530D01*
X020120Y019361D01*
X020184Y019162D01*
X020192Y019058D01*
X020192Y018939D01*
X020082Y018985D01*
X019941Y018985D01*
X019810Y018930D01*
X019710Y018830D01*
X019655Y018699D01*
X019655Y018558D01*
X019710Y018427D01*
X019810Y018327D01*
X019941Y018272D01*
X020082Y018272D01*
X020192Y018318D01*
X020192Y015002D01*
X020082Y015048D01*
X019941Y015048D01*
X019810Y014993D01*
X019710Y014893D01*
X019655Y014762D01*
X019655Y014621D01*
X019710Y014490D01*
X019810Y014390D01*
X019941Y014335D01*
X020082Y014335D01*
X020192Y014381D01*
X020192Y000947D01*
X020184Y000843D01*
X020120Y000644D01*
X019997Y000475D01*
X019828Y000353D01*
X019629Y000288D01*
X019525Y000280D01*
X001415Y000280D01*
X001310Y000288D01*
X001112Y000353D01*
X000943Y000475D01*
X000820Y000644D01*
X000785Y000753D02*
X001342Y000753D01*
X001337Y000763D02*
X001412Y000582D01*
X001550Y000445D01*
X001730Y000370D01*
X001925Y000370D01*
X002105Y000445D01*
X002243Y000582D01*
X002317Y000763D01*
X002317Y000957D01*
X002243Y001138D01*
X002105Y001275D01*
X001925Y001350D01*
X001730Y001350D01*
X001550Y001275D01*
X001412Y001138D01*
X001337Y000957D01*
X001337Y000763D01*
X001337Y000871D02*
X000753Y000871D01*
X000747Y000990D02*
X001351Y000990D01*
X001400Y001108D02*
X000747Y001108D01*
X000747Y001227D02*
X001501Y001227D01*
X001718Y001345D02*
X000747Y001345D01*
X000747Y001464D02*
X002790Y001464D01*
X002909Y001582D02*
X000747Y001582D01*
X000747Y001701D02*
X003027Y001701D01*
X003146Y001819D02*
X000747Y001819D01*
X000747Y001938D02*
X000882Y001938D01*
X000841Y002056D02*
X000747Y002056D01*
X000747Y002175D02*
X000841Y002175D01*
X000841Y002293D02*
X000747Y002293D01*
X000747Y002412D02*
X001216Y002412D01*
X001216Y002293D02*
X001336Y002293D01*
X001336Y002175D02*
X001216Y002175D01*
X001216Y002056D02*
X001336Y002056D01*
X001336Y001938D02*
X001216Y001938D01*
X001671Y001938D02*
X002041Y001938D01*
X001983Y002056D02*
X001712Y002056D01*
X001712Y002175D02*
X001983Y002175D01*
X001983Y002293D02*
X001712Y002293D01*
X001983Y002412D02*
X001336Y002412D01*
X000841Y002530D02*
X000747Y002530D01*
X000747Y002649D02*
X000841Y002649D01*
X000869Y002767D02*
X000747Y002767D01*
X000747Y002886D02*
X001061Y002886D01*
X000866Y003004D02*
X000747Y003004D01*
X000747Y003123D02*
X000856Y003123D01*
X000856Y003241D02*
X000747Y003241D01*
X000747Y003360D02*
X000856Y003360D01*
X000856Y003478D02*
X000747Y003478D01*
X000747Y003597D02*
X001023Y003597D01*
X000856Y003715D02*
X000747Y003715D01*
X000747Y003834D02*
X000856Y003834D01*
X000856Y003952D02*
X000747Y003952D01*
X000747Y004071D02*
X000856Y004071D01*
X000856Y004189D02*
X000747Y004189D01*
X000747Y004308D02*
X002334Y004308D01*
X002453Y004426D02*
X001492Y004426D01*
X001231Y004426D02*
X001154Y004426D01*
X001154Y004545D02*
X001231Y004545D01*
X001231Y004663D02*
X001154Y004663D01*
X001154Y004782D02*
X000747Y004782D01*
X000816Y004798D02*
X001154Y004798D01*
X001154Y005117D01*
X000955Y005117D01*
X000914Y005106D01*
X000878Y005085D01*
X000848Y005055D01*
X000827Y005019D01*
X000816Y004978D01*
X000816Y004798D01*
X000816Y004900D02*
X000747Y004900D01*
X000747Y005019D02*
X000827Y005019D01*
X000747Y005137D02*
X001692Y005137D01*
X001644Y005256D02*
X001411Y005256D01*
X001411Y005374D02*
X001644Y005374D01*
X001644Y005493D02*
X001411Y005493D01*
X001411Y005611D02*
X001644Y005611D01*
X001644Y005730D02*
X001411Y005730D01*
X001411Y005848D02*
X001644Y005848D01*
X001644Y005967D02*
X001411Y005967D01*
X001382Y006085D02*
X001673Y006085D01*
X001543Y006204D02*
X000747Y006204D01*
X000747Y006322D02*
X001425Y006322D01*
X001306Y006441D02*
X000747Y006441D01*
X000747Y006559D02*
X001188Y006559D01*
X001432Y006796D02*
X001644Y006796D01*
X001644Y006678D02*
X001550Y006678D01*
X001644Y006665D02*
X001714Y006594D01*
X002246Y006594D01*
X002317Y006665D01*
X002317Y007512D01*
X002246Y007582D01*
X001714Y007582D01*
X001644Y007512D01*
X001644Y006665D01*
X001669Y006559D02*
X002457Y006559D01*
X002457Y006441D02*
X002287Y006441D01*
X002406Y006322D02*
X002457Y006322D01*
X002524Y006204D02*
X002543Y006204D01*
X002643Y006085D02*
X002662Y006085D01*
X002761Y005967D02*
X002780Y005967D01*
X002880Y005848D02*
X002899Y005848D01*
X002998Y005730D02*
X003147Y005730D01*
X003107Y005137D02*
X002032Y005137D01*
X002187Y005019D02*
X002624Y005019D01*
X002484Y004900D02*
X002199Y004900D01*
X002199Y004782D02*
X002449Y004782D01*
X002466Y004663D02*
X002199Y004663D01*
X002199Y004545D02*
X002549Y004545D01*
X002906Y004545D02*
X003147Y004545D01*
X003147Y004663D02*
X002989Y004663D01*
X003006Y004782D02*
X003147Y004782D01*
X003147Y004900D02*
X002971Y004900D01*
X002831Y005019D02*
X003140Y005019D01*
X003147Y004426D02*
X002897Y004426D01*
X002815Y004308D02*
X003147Y004308D01*
X003147Y004189D02*
X002697Y004189D01*
X002578Y004071D02*
X003147Y004071D01*
X003147Y003952D02*
X002460Y003952D01*
X002341Y003834D02*
X003147Y003834D01*
X003147Y003715D02*
X002199Y003715D01*
X002199Y003478D02*
X003405Y003478D01*
X003523Y003597D02*
X001363Y003597D01*
X002199Y004189D02*
X002216Y004189D01*
X001231Y004900D02*
X001154Y004900D01*
X001154Y005019D02*
X001231Y005019D01*
X000816Y004663D02*
X000747Y004663D01*
X000747Y004545D02*
X000816Y004545D01*
X000747Y004426D02*
X000894Y004426D01*
X000768Y006085D02*
X000747Y006085D01*
X001411Y006915D02*
X001644Y006915D01*
X001644Y007033D02*
X001411Y007033D01*
X001411Y007152D02*
X001644Y007152D01*
X001644Y007270D02*
X001411Y007270D01*
X001411Y007389D02*
X001644Y007389D01*
X001644Y007507D02*
X001411Y007507D01*
X001363Y007626D02*
X001564Y007626D01*
X001824Y007626D02*
X001900Y007626D01*
X001900Y007744D02*
X001824Y007744D01*
X001824Y007863D02*
X001900Y007863D01*
X001900Y007981D02*
X002508Y007981D01*
X002457Y007863D02*
X002239Y007863D01*
X002239Y007744D02*
X002457Y007744D01*
X002457Y007626D02*
X002160Y007626D01*
X002317Y007507D02*
X002457Y007507D01*
X002457Y007389D02*
X002317Y007389D01*
X002317Y007270D02*
X002457Y007270D01*
X002457Y007152D02*
X002317Y007152D01*
X002317Y007033D02*
X002457Y007033D01*
X002457Y006915D02*
X002317Y006915D01*
X002317Y006796D02*
X002457Y006796D01*
X002457Y006678D02*
X002317Y006678D01*
X001023Y007626D02*
X000747Y007626D01*
X000747Y007744D02*
X000856Y007744D01*
X000856Y007863D02*
X000747Y007863D01*
X000747Y007981D02*
X000856Y007981D01*
X000856Y008100D02*
X000747Y008100D01*
X000747Y008218D02*
X000868Y008218D01*
X000747Y008337D02*
X002863Y008337D01*
X002883Y008482D02*
X002985Y008524D01*
X003063Y008602D01*
X003106Y008705D01*
X003106Y008815D01*
X003063Y008918D01*
X002985Y008996D01*
X002883Y009038D01*
X002772Y009038D01*
X002670Y008996D01*
X002604Y008930D01*
X002199Y008930D01*
X002199Y009007D01*
X002128Y009077D01*
X001596Y009077D01*
X001551Y009032D01*
X001537Y009055D01*
X001507Y009085D01*
X001471Y009106D01*
X001430Y009117D01*
X001231Y009117D01*
X001231Y008798D01*
X001154Y008798D01*
X001154Y008722D01*
X000816Y008722D01*
X000816Y008542D01*
X000827Y008501D01*
X000848Y008465D01*
X000878Y008435D01*
X000914Y008414D01*
X000955Y008403D01*
X001154Y008403D01*
X001154Y008722D01*
X001231Y008722D01*
X001231Y008403D01*
X001430Y008403D01*
X001471Y008414D01*
X001507Y008435D01*
X001537Y008465D01*
X001551Y008488D01*
X001596Y008443D01*
X002128Y008443D01*
X002199Y008513D01*
X002199Y008590D01*
X002604Y008590D01*
X002670Y008524D01*
X002772Y008482D01*
X002883Y008482D01*
X002982Y008455D02*
X002140Y008455D01*
X002199Y008574D02*
X002620Y008574D01*
X002745Y008218D02*
X002228Y008218D01*
X002228Y008219D02*
X002207Y008255D01*
X002177Y008285D01*
X002140Y008306D01*
X002100Y008317D01*
X001900Y008317D01*
X001900Y007998D01*
X002239Y007998D01*
X002239Y008178D01*
X002228Y008219D01*
X002239Y008100D02*
X002626Y008100D01*
X003035Y008574D02*
X003100Y008574D01*
X003101Y008692D02*
X003219Y008692D01*
X003106Y008811D02*
X003337Y008811D01*
X003456Y008929D02*
X003052Y008929D01*
X003557Y009048D02*
X002158Y009048D01*
X001921Y009302D02*
X001921Y010268D01*
X001851Y010338D01*
X001004Y010338D01*
X000933Y010268D01*
X000933Y009302D01*
X001004Y009232D01*
X001851Y009232D01*
X001921Y009302D01*
X001903Y009285D02*
X003557Y009285D01*
X003557Y009403D02*
X001921Y009403D01*
X001921Y009522D02*
X003557Y009522D01*
X003557Y009640D02*
X001921Y009640D01*
X001921Y009759D02*
X003557Y009759D01*
X003557Y009877D02*
X001921Y009877D01*
X001921Y009996D02*
X003557Y009996D01*
X003557Y010114D02*
X001921Y010114D01*
X001921Y010233D02*
X003161Y010233D01*
X003071Y010351D02*
X000747Y010351D01*
X000747Y010233D02*
X000933Y010233D01*
X000933Y010114D02*
X000747Y010114D01*
X000747Y009996D02*
X000933Y009996D01*
X000933Y009877D02*
X000747Y009877D01*
X000747Y009759D02*
X000933Y009759D01*
X000933Y009640D02*
X000747Y009640D01*
X000747Y009522D02*
X000933Y009522D01*
X000933Y009403D02*
X000747Y009403D01*
X000747Y009285D02*
X000951Y009285D01*
X000955Y009117D02*
X000914Y009106D01*
X000878Y009085D01*
X000848Y009055D01*
X000827Y009019D01*
X000816Y008978D01*
X000816Y008798D01*
X001154Y008798D01*
X001154Y009117D01*
X000955Y009117D01*
X000844Y009048D02*
X000747Y009048D01*
X000747Y009166D02*
X003557Y009166D01*
X003557Y010233D02*
X003494Y010233D01*
X003049Y010470D02*
X001921Y010470D01*
X001921Y010424D02*
X001921Y011311D01*
X001873Y011360D01*
X001921Y011409D01*
X001921Y012296D01*
X001851Y012366D01*
X001004Y012366D01*
X000933Y012296D01*
X000933Y011409D01*
X000982Y011360D01*
X000933Y011311D01*
X000933Y010424D01*
X001004Y010354D01*
X001851Y010354D01*
X001921Y010424D01*
X001921Y010588D02*
X003079Y010588D01*
X003157Y010707D02*
X002973Y010707D01*
X002985Y010825D02*
X003122Y010825D01*
X002549Y010825D02*
X002549Y010825D01*
X002549Y010707D02*
X002549Y010707D01*
X002125Y010707D02*
X001921Y010707D01*
X001921Y010825D02*
X002114Y010825D01*
X002114Y010944D02*
X001921Y010944D01*
X001921Y011062D02*
X002154Y011062D01*
X002154Y011181D02*
X001921Y011181D01*
X001921Y011299D02*
X002154Y011299D01*
X002154Y011418D02*
X001921Y011418D01*
X001921Y011536D02*
X002154Y011536D01*
X002154Y011655D02*
X001921Y011655D01*
X001921Y011773D02*
X002154Y011773D01*
X002154Y011892D02*
X001921Y011892D01*
X001921Y012010D02*
X002164Y012010D01*
X002349Y012129D02*
X001921Y012129D01*
X001921Y012247D02*
X002432Y012247D01*
X002550Y012366D02*
X001851Y012366D01*
X001851Y012382D02*
X001921Y012452D01*
X001921Y013418D01*
X001851Y013488D01*
X001004Y013488D01*
X000933Y013418D01*
X000933Y012452D01*
X001004Y012382D01*
X001851Y012382D01*
X001921Y012484D02*
X002627Y012484D01*
X002627Y012603D02*
X001921Y012603D01*
X001921Y012721D02*
X002627Y012721D01*
X002627Y012840D02*
X001921Y012840D01*
X001921Y012958D02*
X002627Y012958D01*
X002627Y013077D02*
X001921Y013077D01*
X001921Y013195D02*
X002627Y013195D01*
X002627Y013314D02*
X001921Y013314D01*
X001907Y013432D02*
X002627Y013432D01*
X002627Y013551D02*
X000747Y013551D01*
X000747Y013669D02*
X002627Y013669D01*
X002627Y013788D02*
X000747Y013788D01*
X000747Y013906D02*
X002627Y013906D01*
X002580Y014025D02*
X000747Y014025D01*
X000747Y014143D02*
X002461Y014143D01*
X002343Y014262D02*
X000747Y014262D01*
X000747Y014380D02*
X002224Y014380D01*
X002127Y014499D02*
X000747Y014499D01*
X000747Y014617D02*
X002127Y014617D01*
X002127Y014736D02*
X000747Y014736D01*
X000747Y014854D02*
X002127Y014854D01*
X002127Y014973D02*
X000747Y014973D01*
X000747Y015091D02*
X002127Y015091D01*
X002127Y015210D02*
X001938Y015210D01*
X001938Y015328D02*
X002127Y015328D01*
X002127Y015447D02*
X001938Y015447D01*
X001938Y015565D02*
X002127Y015565D01*
X002121Y015684D02*
X001924Y015684D01*
X001501Y015802D02*
X000747Y015802D01*
X000747Y015921D02*
X001501Y015921D01*
X001501Y016039D02*
X001417Y016039D01*
X001507Y016167D02*
X001525Y016210D01*
X001525Y016329D01*
X001507Y016372D01*
X001571Y016307D01*
X002261Y016307D01*
X002263Y016308D01*
X002853Y016308D01*
X002853Y016223D01*
X002923Y016153D01*
X003177Y016153D01*
X003177Y015921D02*
X002450Y015921D01*
X002527Y015802D02*
X003060Y015802D01*
X003002Y015684D02*
X002527Y015684D01*
X002527Y015565D02*
X003002Y015565D01*
X003002Y015447D02*
X002527Y015447D01*
X002527Y015328D02*
X003002Y015328D01*
X003002Y015210D02*
X002527Y015210D01*
X002527Y015091D02*
X003002Y015091D01*
X003002Y014973D02*
X002527Y014973D01*
X002527Y014854D02*
X003004Y014854D01*
X002672Y014499D02*
X009025Y014499D01*
X008907Y014380D02*
X002790Y014380D01*
X002910Y014260D02*
X003027Y014143D01*
X003027Y014025D02*
X008398Y014025D01*
X008349Y013906D02*
X003027Y013906D01*
X003027Y013788D02*
X008356Y013788D01*
X008425Y013669D02*
X006474Y013669D01*
X006484Y013551D02*
X008877Y013551D01*
X008830Y013669D02*
X008996Y013669D01*
X008899Y013788D02*
X009114Y013788D01*
X009233Y013906D02*
X008914Y013906D01*
X009032Y014025D02*
X009351Y014025D01*
X009470Y014143D02*
X009151Y014143D01*
X009269Y014262D02*
X009588Y014262D01*
X009707Y014380D02*
X009388Y014380D01*
X009506Y014499D02*
X009825Y014499D01*
X009944Y014617D02*
X009597Y014617D01*
X009597Y014736D02*
X010062Y014736D01*
X010181Y014854D02*
X009597Y014854D01*
X009597Y014973D02*
X010257Y014973D01*
X010257Y015091D02*
X009597Y015091D01*
X009597Y015210D02*
X010257Y015210D01*
X010257Y015328D02*
X009597Y015328D01*
X009597Y015447D02*
X010257Y015447D01*
X010257Y015565D02*
X009597Y015565D01*
X009597Y015684D02*
X010257Y015684D01*
X010257Y015802D02*
X009597Y015802D01*
X009597Y015921D02*
X010257Y015921D01*
X010257Y016039D02*
X009597Y016039D01*
X009597Y016158D02*
X009612Y016158D01*
X009597Y016276D02*
X009611Y016276D01*
X009597Y016395D02*
X009611Y016395D01*
X009597Y016513D02*
X009611Y016513D01*
X009342Y016750D02*
X007257Y016750D01*
X007375Y016869D02*
X009461Y016869D01*
X009579Y016987D02*
X007494Y016987D01*
X007612Y017106D02*
X009611Y017106D01*
X009611Y017224D02*
X007731Y017224D01*
X007849Y017343D02*
X009611Y017343D01*
X009757Y017461D02*
X007968Y017461D01*
X008086Y017580D02*
X009757Y017580D01*
X009605Y017698D02*
X009040Y017698D01*
X009218Y017817D02*
X009550Y017817D01*
X009550Y017935D02*
X009284Y017935D01*
X009305Y018054D02*
X009550Y018054D01*
X009550Y018172D02*
X009290Y018172D01*
X009398Y018291D02*
X009550Y018291D01*
X009154Y018528D02*
X002834Y018528D01*
X002953Y018646D02*
X005036Y018646D01*
X005049Y018643D02*
X005309Y018643D01*
X005309Y019041D01*
X005346Y019041D01*
X005346Y018643D01*
X005606Y018643D01*
X005647Y018653D01*
X005683Y018674D01*
X005713Y018704D01*
X005734Y018741D01*
X005745Y018781D01*
X005745Y019041D01*
X005346Y019041D01*
X005346Y019079D01*
X005309Y019079D01*
X005309Y019477D01*
X005049Y019477D01*
X005008Y019467D01*
X004972Y019446D01*
X004942Y019416D01*
X004921Y019379D01*
X004910Y019339D01*
X004910Y019079D01*
X005309Y019079D01*
X005309Y019041D01*
X004910Y019041D01*
X004910Y018781D01*
X004921Y018741D01*
X004942Y018704D01*
X004972Y018674D01*
X005008Y018653D01*
X005049Y018643D01*
X004914Y018765D02*
X004566Y018765D01*
X004541Y018740D02*
X004647Y018846D01*
X004705Y018985D01*
X004705Y019135D01*
X004647Y019274D01*
X004541Y019380D01*
X004402Y019437D01*
X004252Y019437D01*
X004114Y019380D01*
X004034Y019300D01*
X002980Y019300D01*
X002891Y019263D01*
X002191Y018563D01*
X002124Y018496D01*
X002087Y018408D01*
X002087Y018059D01*
X002032Y018004D01*
X001891Y018004D01*
X001938Y018050D01*
X001938Y018544D01*
X001868Y018614D01*
X001453Y018614D01*
X001383Y018544D01*
X001383Y018050D01*
X001453Y017980D01*
X001548Y017980D01*
X001501Y017933D01*
X001501Y017566D01*
X001479Y017619D01*
X001396Y017702D01*
X001286Y017748D01*
X001168Y017748D01*
X001059Y017702D01*
X000975Y017619D01*
X000930Y017510D01*
X000930Y017391D01*
X000975Y017282D01*
X001059Y017199D01*
X001168Y017153D01*
X001286Y017153D01*
X001396Y017199D01*
X001479Y017282D01*
X001525Y017391D01*
X001525Y017510D01*
X001507Y017553D01*
X001571Y017488D01*
X002261Y017488D01*
X002332Y017558D01*
X002332Y017625D01*
X002531Y017824D01*
X002567Y017912D01*
X002567Y018261D01*
X003127Y018820D01*
X004034Y018820D01*
X004114Y018740D01*
X004252Y018683D01*
X004402Y018683D01*
X004541Y018740D01*
X004663Y018883D02*
X004910Y018883D01*
X004910Y019002D02*
X004705Y019002D01*
X004705Y019120D02*
X004910Y019120D01*
X004910Y019239D02*
X004662Y019239D01*
X004564Y019357D02*
X004915Y019357D01*
X005042Y019476D02*
X000904Y019476D01*
X000819Y019357D02*
X004091Y019357D01*
X004089Y018765D02*
X003071Y018765D01*
X002716Y018409D02*
X008784Y018409D01*
X008909Y018643D02*
X008649Y018643D01*
X008608Y018653D01*
X008572Y018674D01*
X008542Y018704D01*
X008521Y018741D01*
X008510Y018781D01*
X008510Y019041D01*
X008909Y019041D01*
X008946Y019041D01*
X008946Y018643D01*
X009206Y018643D01*
X009247Y018653D01*
X009283Y018674D01*
X009313Y018704D01*
X009334Y018741D01*
X009345Y018781D01*
X009345Y019041D01*
X008946Y019041D01*
X008946Y019079D01*
X008909Y019079D01*
X008909Y019477D01*
X008649Y019477D01*
X008608Y019467D01*
X008572Y019446D01*
X008542Y019416D01*
X008521Y019379D01*
X008510Y019339D01*
X008510Y019079D01*
X008909Y019079D01*
X008909Y019041D01*
X008909Y018643D01*
X008909Y018646D02*
X008946Y018646D01*
X008946Y018765D02*
X008909Y018765D01*
X008909Y018883D02*
X008946Y018883D01*
X008946Y019002D02*
X008909Y019002D01*
X008946Y019079D02*
X009345Y019079D01*
X009345Y019339D01*
X009334Y019379D01*
X009313Y019416D01*
X009283Y019446D01*
X009247Y019467D01*
X009206Y019477D01*
X008946Y019477D01*
X008946Y019079D01*
X008946Y019120D02*
X008909Y019120D01*
X008909Y019239D02*
X008946Y019239D01*
X008946Y019357D02*
X008909Y019357D01*
X008909Y019476D02*
X008946Y019476D01*
X009213Y019476D02*
X009882Y019476D01*
X009909Y019476D02*
X009946Y019476D01*
X009946Y019477D02*
X009946Y019079D01*
X010345Y019079D01*
X010345Y019093D01*
X010335Y019158D01*
X010314Y019220D01*
X010284Y019279D01*
X010246Y019332D01*
X010199Y019378D01*
X010146Y019417D01*
X010088Y019447D01*
X010025Y019467D01*
X009960Y019477D01*
X009946Y019477D01*
X009972Y019476D02*
X010882Y019476D01*
X010909Y019476D02*
X010946Y019476D01*
X010946Y019477D02*
X010946Y019079D01*
X011345Y019079D01*
X011345Y019093D01*
X011335Y019158D01*
X011314Y019220D01*
X011284Y019279D01*
X011246Y019332D01*
X011199Y019378D01*
X011146Y019417D01*
X011088Y019447D01*
X011025Y019467D01*
X010960Y019477D01*
X010946Y019477D01*
X010972Y019476D02*
X011882Y019476D01*
X011909Y019476D02*
X011946Y019476D01*
X011946Y019477D02*
X011960Y019477D01*
X012025Y019467D01*
X012088Y019447D01*
X012146Y019417D01*
X012199Y019378D01*
X012246Y019332D01*
X012284Y019279D01*
X012314Y019220D01*
X012335Y019158D01*
X012345Y019093D01*
X012345Y019079D01*
X011946Y019079D01*
X011946Y019477D01*
X011972Y019476D02*
X012882Y019476D01*
X012909Y019476D02*
X012946Y019476D01*
X012946Y019477D02*
X012946Y019079D01*
X013345Y019079D01*
X013345Y019093D01*
X013335Y019158D01*
X013314Y019220D01*
X013284Y019279D01*
X013246Y019332D01*
X013199Y019378D01*
X013146Y019417D01*
X013088Y019447D01*
X013025Y019467D01*
X012960Y019477D01*
X012946Y019477D01*
X012972Y019476D02*
X020036Y019476D01*
X020121Y019357D02*
X013221Y019357D01*
X013305Y019239D02*
X020159Y019239D01*
X020187Y019120D02*
X017309Y019120D01*
X017370Y019095D02*
X017168Y019179D01*
X016949Y019179D01*
X016747Y019095D01*
X016593Y018940D01*
X016539Y018811D01*
X015362Y018811D01*
X015362Y018936D01*
X015292Y019007D01*
X014563Y019007D01*
X014492Y018936D01*
X014492Y018286D01*
X014563Y018216D01*
X015292Y018216D01*
X015362Y018286D01*
X015362Y018411D01*
X016554Y018411D01*
X016593Y018317D01*
X016747Y018162D01*
X016810Y018136D01*
X016747Y018111D01*
X016593Y017956D01*
X016509Y017754D01*
X016509Y017535D01*
X016593Y017333D01*
X016747Y017178D01*
X016949Y017094D01*
X017168Y017094D01*
X017370Y017178D01*
X017525Y017333D01*
X017609Y017535D01*
X017609Y017754D01*
X017525Y017956D01*
X017370Y018111D01*
X017308Y018136D01*
X017370Y018162D01*
X017525Y018317D01*
X017564Y018411D01*
X017593Y018411D01*
X017827Y018177D01*
X017827Y015143D01*
X017576Y014891D01*
X017571Y014891D01*
X017525Y015003D01*
X017370Y015158D01*
X017308Y015184D01*
X017370Y015209D01*
X017525Y015364D01*
X017609Y015566D01*
X017609Y015785D01*
X017525Y015987D01*
X017370Y016142D01*
X017168Y016226D01*
X016949Y016226D01*
X016747Y016142D01*
X016593Y015987D01*
X016509Y015785D01*
X016509Y015566D01*
X016593Y015364D01*
X016747Y015209D01*
X016810Y015184D01*
X016747Y015158D01*
X016593Y015003D01*
X016509Y014801D01*
X016509Y014582D01*
X016593Y014380D01*
X016747Y014225D01*
X016949Y014141D01*
X017168Y014141D01*
X017370Y014225D01*
X017525Y014380D01*
X017571Y014491D01*
X017742Y014491D01*
X017859Y014609D01*
X018227Y014977D01*
X018227Y018343D01*
X018110Y018460D01*
X017759Y018811D01*
X017579Y018811D01*
X017525Y018940D01*
X017370Y019095D01*
X017464Y019002D02*
X020192Y019002D01*
X019762Y018883D02*
X019277Y018883D01*
X019229Y018930D02*
X019098Y018985D01*
X018957Y018985D01*
X018826Y018930D01*
X018725Y018830D01*
X018671Y018699D01*
X018671Y018558D01*
X018725Y018427D01*
X018826Y018327D01*
X018957Y018272D01*
X019098Y018272D01*
X019229Y018327D01*
X019329Y018427D01*
X019384Y018558D01*
X019384Y018699D01*
X019329Y018830D01*
X019229Y018930D01*
X019357Y018765D02*
X019682Y018765D01*
X019655Y018646D02*
X019384Y018646D01*
X019371Y018528D02*
X019668Y018528D01*
X019727Y018409D02*
X019312Y018409D01*
X019142Y018291D02*
X019897Y018291D01*
X020127Y018291D02*
X020192Y018291D01*
X020192Y018172D02*
X018227Y018172D01*
X018227Y018054D02*
X020192Y018054D01*
X020192Y017935D02*
X018227Y017935D01*
X018227Y017817D02*
X020192Y017817D01*
X020192Y017698D02*
X018227Y017698D01*
X018227Y017580D02*
X020192Y017580D01*
X020192Y017461D02*
X018227Y017461D01*
X018227Y017343D02*
X020192Y017343D01*
X020192Y017224D02*
X019201Y017224D01*
X019166Y017235D02*
X019087Y017248D01*
X019087Y016720D01*
X018967Y016720D01*
X018967Y016600D01*
X018440Y016600D01*
X018452Y016522D01*
X018481Y016434D01*
X018523Y016351D01*
X018577Y016276D01*
X018227Y016276D01*
X018227Y016158D02*
X018715Y016158D01*
X018718Y016155D02*
X018801Y016113D01*
X018889Y016085D01*
X018967Y016072D01*
X018967Y016600D01*
X019087Y016600D01*
X019087Y016072D01*
X019166Y016085D01*
X019254Y016113D01*
X019337Y016155D01*
X019412Y016210D01*
X019477Y016276D01*
X019532Y016351D01*
X019574Y016434D01*
X019603Y016522D01*
X019615Y016600D01*
X019087Y016600D01*
X019087Y016720D01*
X019615Y016720D01*
X019603Y016798D01*
X019574Y016886D01*
X019532Y016969D01*
X019477Y017044D01*
X019412Y017110D01*
X019337Y017165D01*
X019254Y017207D01*
X019166Y017235D01*
X019087Y017224D02*
X018967Y017224D01*
X018967Y017248D02*
X018889Y017235D01*
X018801Y017207D01*
X018718Y017165D01*
X018643Y017110D01*
X018577Y017044D01*
X018523Y016969D01*
X018481Y016886D01*
X018452Y016798D01*
X018440Y016720D01*
X018967Y016720D01*
X018967Y017248D01*
X018854Y017224D02*
X018227Y017224D01*
X018227Y017106D02*
X018639Y017106D01*
X018536Y016987D02*
X018227Y016987D01*
X018227Y016869D02*
X018475Y016869D01*
X018444Y016750D02*
X018227Y016750D01*
X018227Y016632D02*
X018967Y016632D01*
X018967Y016750D02*
X019087Y016750D01*
X019087Y016632D02*
X020192Y016632D01*
X020192Y016750D02*
X019610Y016750D01*
X019580Y016869D02*
X020192Y016869D01*
X020192Y016987D02*
X019519Y016987D01*
X019416Y017106D02*
X020192Y017106D01*
X020192Y016513D02*
X019600Y016513D01*
X019554Y016395D02*
X020192Y016395D01*
X020192Y016276D02*
X019478Y016276D01*
X019340Y016158D02*
X020192Y016158D01*
X020192Y016039D02*
X018227Y016039D01*
X018227Y015921D02*
X020192Y015921D01*
X020192Y015802D02*
X018227Y015802D01*
X018227Y015684D02*
X020192Y015684D01*
X020192Y015565D02*
X018227Y015565D01*
X018227Y015447D02*
X020192Y015447D01*
X020192Y015328D02*
X018227Y015328D01*
X018227Y015210D02*
X020192Y015210D01*
X020192Y015091D02*
X018227Y015091D01*
X018223Y014973D02*
X018805Y014973D01*
X018826Y014993D02*
X018725Y014893D01*
X018671Y014762D01*
X018671Y014621D01*
X018725Y014490D01*
X018826Y014390D01*
X018957Y014335D01*
X019098Y014335D01*
X019229Y014390D01*
X019329Y014490D01*
X019384Y014621D01*
X019384Y014762D01*
X019329Y014893D01*
X019229Y014993D01*
X019098Y015048D01*
X018957Y015048D01*
X018826Y014993D01*
X018709Y014854D02*
X018104Y014854D01*
X017986Y014736D02*
X018671Y014736D01*
X018673Y014617D02*
X017867Y014617D01*
X017749Y014499D02*
X018722Y014499D01*
X018848Y014380D02*
X017525Y014380D01*
X017407Y014262D02*
X020192Y014262D01*
X020191Y014380D02*
X020192Y014380D01*
X020192Y014143D02*
X017172Y014143D01*
X016946Y014143D02*
X014151Y014143D01*
X014269Y014262D02*
X016711Y014262D01*
X016593Y014380D02*
X014388Y014380D01*
X014506Y014499D02*
X016543Y014499D01*
X016509Y014617D02*
X014625Y014617D01*
X014743Y014736D02*
X016509Y014736D01*
X016531Y014854D02*
X014862Y014854D01*
X014980Y014973D02*
X016580Y014973D01*
X016681Y015091D02*
X015097Y015091D01*
X015097Y015210D02*
X016747Y015210D01*
X016629Y015328D02*
X015097Y015328D01*
X015097Y015447D02*
X016558Y015447D01*
X016509Y015565D02*
X015097Y015565D01*
X015097Y015684D02*
X016509Y015684D01*
X016516Y015802D02*
X015097Y015802D01*
X015097Y015921D02*
X016565Y015921D01*
X016644Y016039D02*
X015097Y016039D01*
X015097Y016158D02*
X016785Y016158D01*
X016857Y016358D02*
X016988Y016304D01*
X017130Y016304D01*
X017261Y016358D01*
X017361Y016458D01*
X017415Y016589D01*
X017415Y016731D01*
X017361Y016862D01*
X017261Y016962D01*
X017130Y017016D01*
X016988Y017016D01*
X016857Y016962D01*
X016757Y016862D01*
X016703Y016731D01*
X016703Y016589D01*
X016757Y016458D01*
X016857Y016358D01*
X016821Y016395D02*
X015097Y016395D01*
X015097Y016513D02*
X016734Y016513D01*
X016703Y016632D02*
X015097Y016632D01*
X015097Y016750D02*
X016711Y016750D01*
X016764Y016869D02*
X015097Y016869D01*
X015097Y016987D02*
X016918Y016987D01*
X016922Y017106D02*
X015097Y017106D01*
X015362Y017224D02*
X016701Y017224D01*
X016589Y017343D02*
X015362Y017343D01*
X015362Y017461D02*
X016539Y017461D01*
X016509Y017580D02*
X015362Y017580D01*
X015362Y017698D02*
X016509Y017698D01*
X016535Y017817D02*
X015362Y017817D01*
X015362Y018291D02*
X016619Y018291D01*
X016554Y018409D02*
X015362Y018409D01*
X015362Y018883D02*
X016569Y018883D01*
X016654Y019002D02*
X015297Y019002D01*
X014557Y019002D02*
X013341Y019002D01*
X013341Y019120D02*
X016808Y019120D01*
X017549Y018883D02*
X018778Y018883D01*
X018698Y018765D02*
X017806Y018765D01*
X017924Y018646D02*
X018671Y018646D01*
X018684Y018528D02*
X018043Y018528D01*
X018161Y018409D02*
X018743Y018409D01*
X018912Y018291D02*
X018227Y018291D01*
X017827Y018172D02*
X017380Y018172D01*
X017427Y018054D02*
X017827Y018054D01*
X017827Y017935D02*
X017534Y017935D01*
X017583Y017817D02*
X017827Y017817D01*
X017827Y017698D02*
X017609Y017698D01*
X017609Y017580D02*
X017827Y017580D01*
X017827Y017461D02*
X017578Y017461D01*
X017529Y017343D02*
X017827Y017343D01*
X017827Y017224D02*
X017416Y017224D01*
X017195Y017106D02*
X017827Y017106D01*
X017827Y016987D02*
X017200Y016987D01*
X017354Y016869D02*
X017827Y016869D01*
X017827Y016750D02*
X017407Y016750D01*
X017415Y016632D02*
X017827Y016632D01*
X017827Y016513D02*
X017384Y016513D01*
X017297Y016395D02*
X017827Y016395D01*
X017827Y016276D02*
X015097Y016276D01*
X014757Y016276D02*
X013284Y016276D01*
X013243Y016158D02*
X014757Y016158D01*
X014757Y016039D02*
X012597Y016039D01*
X012597Y015921D02*
X014757Y015921D01*
X014757Y015802D02*
X012597Y015802D01*
X012644Y015684D02*
X014757Y015684D01*
X014757Y015565D02*
X012697Y015565D01*
X012697Y015447D02*
X014757Y015447D01*
X014757Y015328D02*
X012697Y015328D01*
X012697Y015210D02*
X014736Y015210D01*
X014618Y015091D02*
X012697Y015091D01*
X012580Y014973D02*
X014499Y014973D01*
X014381Y014854D02*
X012462Y014854D01*
X012544Y014617D02*
X010425Y014617D01*
X010498Y014690D02*
X010498Y014690D01*
X010543Y014736D02*
X011558Y014736D01*
X011470Y014854D02*
X010597Y014854D01*
X010597Y014973D02*
X011449Y014973D01*
X011480Y015091D02*
X010597Y015091D01*
X010597Y015210D02*
X011602Y015210D01*
X011619Y015328D02*
X010597Y015328D01*
X010597Y015447D02*
X011500Y015447D01*
X011382Y015565D02*
X010597Y015565D01*
X010597Y015684D02*
X011263Y015684D01*
X011257Y015802D02*
X010597Y015802D01*
X010597Y015921D02*
X011257Y015921D01*
X011257Y016039D02*
X010597Y016039D01*
X010597Y016158D02*
X010612Y016158D01*
X010597Y016276D02*
X010611Y016276D01*
X010597Y016395D02*
X010611Y016395D01*
X010597Y016513D02*
X010611Y016513D01*
X010257Y016513D02*
X010255Y016513D01*
X010244Y016395D02*
X010257Y016395D01*
X010244Y016276D02*
X010257Y016276D01*
X010243Y016158D02*
X010257Y016158D01*
X011243Y016158D02*
X011257Y016158D01*
X011244Y016276D02*
X011257Y016276D01*
X011244Y016395D02*
X011257Y016395D01*
X011244Y016513D02*
X011257Y016513D01*
X012597Y016513D02*
X012611Y016513D01*
X012597Y016395D02*
X012611Y016395D01*
X012597Y016276D02*
X012611Y016276D01*
X012597Y016158D02*
X012612Y016158D01*
X013402Y016395D02*
X014757Y016395D01*
X014757Y016513D02*
X013521Y016513D01*
X013639Y016632D02*
X014757Y016632D01*
X014757Y016750D02*
X013697Y016750D01*
X013697Y016869D02*
X014757Y016869D01*
X014757Y016987D02*
X013697Y016987D01*
X013697Y017106D02*
X014757Y017106D01*
X014492Y017224D02*
X013697Y017224D01*
X013697Y017343D02*
X014492Y017343D01*
X014492Y017461D02*
X013697Y017461D01*
X013697Y017580D02*
X014492Y017580D01*
X014492Y017698D02*
X013697Y017698D01*
X013697Y017817D02*
X014492Y017817D01*
X014492Y018291D02*
X013697Y018291D01*
X013697Y018172D02*
X016738Y018172D01*
X016690Y018054D02*
X013697Y018054D01*
X013697Y017935D02*
X016584Y017935D01*
X017499Y018291D02*
X017714Y018291D01*
X017595Y018409D02*
X017563Y018409D01*
X018967Y017106D02*
X019087Y017106D01*
X019087Y016987D02*
X018967Y016987D01*
X018967Y016869D02*
X019087Y016869D01*
X019087Y016513D02*
X018967Y016513D01*
X018967Y016395D02*
X019087Y016395D01*
X019087Y016276D02*
X018967Y016276D01*
X018967Y016158D02*
X019087Y016158D01*
X018718Y016155D02*
X018643Y016210D01*
X018577Y016276D01*
X018500Y016395D02*
X018227Y016395D01*
X018227Y016513D02*
X018455Y016513D01*
X017827Y016158D02*
X017333Y016158D01*
X017473Y016039D02*
X017827Y016039D01*
X017827Y015921D02*
X017553Y015921D01*
X017602Y015802D02*
X017827Y015802D01*
X017827Y015684D02*
X017609Y015684D01*
X017608Y015565D02*
X017827Y015565D01*
X017827Y015447D02*
X017559Y015447D01*
X017489Y015328D02*
X017827Y015328D01*
X017827Y015210D02*
X017370Y015210D01*
X017437Y015091D02*
X017776Y015091D01*
X017657Y014973D02*
X017538Y014973D01*
X019250Y014973D02*
X019789Y014973D01*
X019693Y014854D02*
X019346Y014854D01*
X019384Y014736D02*
X019655Y014736D01*
X019657Y014617D02*
X019382Y014617D01*
X019333Y014499D02*
X019706Y014499D01*
X019833Y014380D02*
X019206Y014380D01*
X020192Y014025D02*
X015557Y014025D01*
X015606Y013906D02*
X020192Y013906D01*
X020192Y013788D02*
X015599Y013788D01*
X015530Y013669D02*
X020192Y013669D01*
X020192Y013551D02*
X015258Y013551D01*
X015257Y013432D02*
X015140Y013432D01*
X015398Y013432D02*
X020192Y013432D01*
X020192Y013314D02*
X015565Y013314D01*
X015606Y013195D02*
X017257Y013195D01*
X017280Y013201D02*
X016995Y013125D01*
X016740Y012977D01*
X016531Y012769D01*
X016384Y012514D01*
X016307Y012229D01*
X016307Y011934D01*
X016384Y011649D01*
X016531Y011394D01*
X016740Y011185D01*
X016995Y011038D01*
X017280Y010961D01*
X017575Y010961D01*
X017860Y011038D01*
X018115Y011185D01*
X018324Y011394D01*
X018471Y011649D01*
X018547Y011934D01*
X018547Y012229D01*
X018471Y012514D01*
X018324Y012769D01*
X018115Y012977D01*
X017860Y013125D01*
X017575Y013201D01*
X017280Y013201D01*
X017598Y013195D02*
X020192Y013195D01*
X020192Y013077D02*
X017944Y013077D01*
X018135Y012958D02*
X020192Y012958D01*
X020192Y012840D02*
X018253Y012840D01*
X018351Y012721D02*
X020192Y012721D01*
X020192Y012603D02*
X018420Y012603D01*
X018479Y012484D02*
X020192Y012484D01*
X020192Y012366D02*
X018511Y012366D01*
X018542Y012247D02*
X020192Y012247D01*
X020192Y012129D02*
X018547Y012129D01*
X018547Y012010D02*
X020192Y012010D01*
X020192Y011892D02*
X018536Y011892D01*
X018504Y011773D02*
X020192Y011773D01*
X020192Y011655D02*
X018473Y011655D01*
X018406Y011536D02*
X020192Y011536D01*
X020192Y011418D02*
X018337Y011418D01*
X018229Y011299D02*
X020192Y011299D01*
X020192Y011181D02*
X018107Y011181D01*
X017902Y011062D02*
X020192Y011062D01*
X020192Y010944D02*
X010151Y010944D01*
X010270Y011062D02*
X016953Y011062D01*
X016747Y011181D02*
X010388Y011181D01*
X010507Y011299D02*
X016626Y011299D01*
X016517Y011418D02*
X012599Y011418D01*
X012053Y012010D02*
X011856Y012010D01*
X011631Y012010D02*
X011554Y012010D01*
X011554Y012017D02*
X011355Y012017D01*
X011314Y012006D01*
X011278Y011985D01*
X011248Y011955D01*
X011227Y011919D01*
X011216Y011878D01*
X011216Y011698D01*
X011554Y011698D01*
X011554Y012017D01*
X011554Y011892D02*
X011631Y011892D01*
X011631Y011773D02*
X011554Y011773D01*
X011554Y011655D02*
X010862Y011655D01*
X010981Y011773D02*
X011216Y011773D01*
X011220Y011892D02*
X011099Y011892D01*
X011218Y012010D02*
X011330Y012010D01*
X011336Y012129D02*
X012053Y012129D01*
X011851Y012247D02*
X011851Y013873D01*
X011818Y013906D02*
X012037Y013906D01*
X012053Y014025D02*
X009832Y014025D01*
X009951Y014143D02*
X012070Y014143D01*
X012188Y014262D02*
X010069Y014262D01*
X010188Y014380D02*
X012307Y014380D01*
X012425Y014499D02*
X010306Y014499D01*
X010533Y013906D02*
X009714Y013906D01*
X009595Y013788D02*
X010414Y013788D01*
X010296Y013669D02*
X009477Y013669D01*
X009358Y013551D02*
X010177Y013551D01*
X010059Y013432D02*
X009240Y013432D01*
X009121Y013314D02*
X009940Y013314D01*
X009822Y013195D02*
X009003Y013195D01*
X008906Y013077D02*
X009703Y013077D01*
X009585Y012958D02*
X008886Y012958D01*
X008801Y012840D02*
X009466Y012840D01*
X009348Y012721D02*
X006444Y012721D01*
X006444Y012603D02*
X006629Y012603D01*
X006511Y012484D02*
X006444Y012484D01*
X006392Y012366D02*
X006327Y012366D01*
X006037Y012010D02*
X005999Y012010D01*
X005918Y011892D02*
X004474Y011892D01*
X004506Y011773D02*
X005800Y011773D01*
X005681Y011655D02*
X004497Y011655D01*
X004497Y011536D02*
X005563Y011536D01*
X005444Y011418D02*
X004497Y011418D01*
X004497Y011299D02*
X005326Y011299D01*
X005207Y011181D02*
X004497Y011181D01*
X004497Y011062D02*
X005089Y011062D01*
X004970Y010944D02*
X004497Y010944D01*
X004497Y010825D02*
X004852Y010825D01*
X004733Y010707D02*
X004497Y010707D01*
X004497Y010588D02*
X004615Y010588D01*
X003949Y011773D02*
X003855Y011773D01*
X003736Y011892D02*
X003980Y011892D01*
X004103Y012010D02*
X003618Y012010D01*
X003528Y012305D02*
X005127Y012305D01*
X005197Y012375D01*
X005197Y013265D01*
X005127Y013335D01*
X003528Y013335D01*
X003457Y013265D01*
X003457Y012375D01*
X003528Y012305D01*
X003467Y012366D02*
X003027Y012366D01*
X003027Y012484D02*
X003457Y012484D01*
X003457Y012603D02*
X003027Y012603D01*
X003027Y012721D02*
X003457Y012721D01*
X003457Y012840D02*
X003027Y012840D01*
X003027Y012958D02*
X003457Y012958D01*
X003457Y013077D02*
X003027Y013077D01*
X003027Y013195D02*
X003457Y013195D01*
X003506Y013314D02*
X003027Y013314D01*
X003027Y013432D02*
X006089Y013432D01*
X006089Y013433D02*
X005771Y013433D01*
X005771Y013632D01*
X005781Y013673D01*
X005802Y013709D01*
X005832Y013739D01*
X005869Y013760D01*
X005909Y013771D01*
X006089Y013771D01*
X006089Y013433D01*
X006166Y013432D02*
X008759Y013432D01*
X008512Y013314D02*
X006484Y013314D01*
X006484Y013195D02*
X008382Y013195D01*
X008349Y013077D02*
X006449Y013077D01*
X006444Y012958D02*
X008368Y012958D01*
X008454Y012840D02*
X006444Y012840D01*
X005811Y012840D02*
X005197Y012840D01*
X005197Y012958D02*
X005811Y012958D01*
X005806Y013077D02*
X005197Y013077D01*
X005197Y013195D02*
X005771Y013195D01*
X005771Y013314D02*
X005149Y013314D01*
X005197Y012721D02*
X005811Y012721D01*
X005811Y012603D02*
X005197Y012603D01*
X005197Y012484D02*
X005630Y012484D01*
X005548Y012366D02*
X005188Y012366D01*
X005529Y012247D02*
X002997Y012247D01*
X002879Y012129D02*
X005559Y012129D01*
X005656Y012010D02*
X004351Y012010D01*
X003027Y013551D02*
X005771Y013551D01*
X005780Y013669D02*
X003027Y013669D01*
X002553Y014617D02*
X009144Y014617D01*
X009257Y014736D02*
X002527Y014736D01*
X001383Y015210D02*
X001072Y015210D01*
X001072Y015328D02*
X001383Y015328D01*
X001383Y015447D02*
X001072Y015447D01*
X001072Y015565D02*
X001383Y015565D01*
X001397Y015684D02*
X001058Y015684D01*
X001038Y016039D02*
X000747Y016039D01*
X000747Y016158D02*
X000952Y016158D01*
X000930Y016276D02*
X000747Y016276D01*
X000747Y016395D02*
X000958Y016395D01*
X001051Y016513D02*
X000747Y016513D01*
X000747Y016632D02*
X001501Y016632D01*
X001501Y016750D02*
X000747Y016750D01*
X000747Y016869D02*
X002853Y016869D01*
X002911Y017147D02*
X002952Y017136D01*
X003267Y017136D01*
X003267Y017512D01*
X002813Y017512D01*
X002813Y017275D01*
X002824Y017234D01*
X002845Y017198D01*
X002875Y017168D01*
X002911Y017147D01*
X002830Y017224D02*
X001421Y017224D01*
X001504Y017343D02*
X002813Y017343D01*
X002813Y017461D02*
X001525Y017461D01*
X001501Y017580D02*
X001496Y017580D01*
X001501Y017698D02*
X001400Y017698D01*
X001501Y017817D02*
X000747Y017817D01*
X000747Y017935D02*
X001503Y017935D01*
X001383Y018054D02*
X001072Y018054D01*
X001072Y018172D02*
X001383Y018172D01*
X001383Y018291D02*
X001072Y018291D01*
X001072Y018409D02*
X001383Y018409D01*
X001383Y018528D02*
X001072Y018528D01*
X000747Y018646D02*
X002274Y018646D01*
X002155Y018528D02*
X001938Y018528D01*
X001938Y018409D02*
X002088Y018409D01*
X002087Y018291D02*
X001938Y018291D01*
X001938Y018172D02*
X002087Y018172D01*
X002081Y018054D02*
X001938Y018054D01*
X002405Y017698D02*
X002813Y017698D01*
X002813Y017632D02*
X003267Y017632D01*
X003267Y017512D01*
X003387Y017512D01*
X003387Y017136D01*
X003703Y017136D01*
X003743Y017147D01*
X003780Y017168D01*
X003810Y017198D01*
X003827Y017229D01*
X003845Y017198D01*
X003875Y017168D01*
X003911Y017147D01*
X003952Y017136D01*
X004267Y017136D01*
X004267Y017512D01*
X003813Y017512D01*
X003387Y017512D01*
X003387Y017632D01*
X003267Y017632D01*
X003267Y018007D01*
X002952Y018007D01*
X002911Y017996D01*
X002875Y017975D01*
X002845Y017946D01*
X002824Y017909D01*
X002813Y017868D01*
X002813Y017632D01*
X002813Y017817D02*
X002523Y017817D01*
X002567Y017935D02*
X002839Y017935D01*
X002567Y018054D02*
X007881Y018054D01*
X007763Y017935D02*
X004816Y017935D01*
X004810Y017946D02*
X004780Y017975D01*
X004743Y017996D01*
X004703Y018007D01*
X004387Y018007D01*
X004387Y017632D01*
X004267Y017632D01*
X004267Y017512D01*
X004387Y017512D01*
X004387Y017136D01*
X004703Y017136D01*
X004743Y017147D01*
X004780Y017168D01*
X004810Y017198D01*
X004831Y017234D01*
X004842Y017275D01*
X004842Y017512D01*
X004387Y017512D01*
X004387Y017632D01*
X004842Y017632D01*
X004842Y017868D01*
X004831Y017909D01*
X004810Y017946D01*
X004842Y017817D02*
X007644Y017817D01*
X007526Y017698D02*
X005507Y017698D01*
X004948Y017698D02*
X004842Y017698D01*
X004911Y017580D02*
X004387Y017580D01*
X004387Y017698D02*
X004267Y017698D01*
X004267Y017632D02*
X004267Y018007D01*
X003952Y018007D01*
X003911Y017996D01*
X003875Y017975D01*
X003845Y017946D01*
X003827Y017915D01*
X003810Y017946D01*
X003780Y017975D01*
X003743Y017996D01*
X003703Y018007D01*
X003387Y018007D01*
X003387Y017632D01*
X004267Y017632D01*
X004267Y017580D02*
X003387Y017580D01*
X003387Y017698D02*
X003267Y017698D01*
X003267Y017580D02*
X002332Y017580D01*
X002567Y018172D02*
X008000Y018172D01*
X008157Y018291D02*
X002597Y018291D01*
X002392Y018765D02*
X000747Y018765D01*
X000747Y018883D02*
X002511Y018883D01*
X002629Y019002D02*
X000747Y019002D01*
X000752Y019120D02*
X002748Y019120D01*
X002866Y019239D02*
X000780Y019239D01*
X001032Y019594D02*
X019908Y019594D01*
X019643Y019713D02*
X001297Y019713D01*
X003267Y017935D02*
X003387Y017935D01*
X003387Y017817D02*
X003267Y017817D01*
X003267Y017461D02*
X003387Y017461D01*
X003387Y017343D02*
X003267Y017343D01*
X003267Y017224D02*
X003387Y017224D01*
X003825Y017224D02*
X003830Y017224D01*
X003853Y016869D02*
X003802Y016869D01*
X003802Y016750D02*
X003853Y016750D01*
X003853Y016632D02*
X003802Y016632D01*
X003802Y016513D02*
X003853Y016513D01*
X003853Y016395D02*
X003802Y016395D01*
X003802Y016276D02*
X003853Y016276D01*
X003918Y016158D02*
X003736Y016158D01*
X003657Y016039D02*
X004077Y016039D01*
X004077Y015921D02*
X003657Y015921D01*
X003775Y015802D02*
X003960Y015802D01*
X003902Y015684D02*
X003832Y015684D01*
X003832Y015565D02*
X003902Y015565D01*
X003902Y015447D02*
X003832Y015447D01*
X003832Y015328D02*
X003902Y015328D01*
X003902Y015210D02*
X003832Y015210D01*
X003832Y015091D02*
X003902Y015091D01*
X003902Y014973D02*
X003832Y014973D01*
X003831Y014854D02*
X003904Y014854D01*
X004731Y014854D02*
X004770Y014854D01*
X004773Y014843D02*
X004794Y014807D01*
X004824Y014777D01*
X004861Y014756D01*
X004901Y014745D01*
X005157Y014745D01*
X005157Y015240D01*
X004762Y015240D01*
X004762Y014884D01*
X004773Y014843D01*
X004762Y014973D02*
X004732Y014973D01*
X004732Y015091D02*
X004762Y015091D01*
X004762Y015210D02*
X004732Y015210D01*
X004732Y015328D02*
X005157Y015328D01*
X005157Y015360D02*
X005157Y015240D01*
X005277Y015240D01*
X005277Y014745D01*
X005533Y014745D01*
X005574Y014756D01*
X005611Y014777D01*
X005640Y014807D01*
X005661Y014843D01*
X005672Y014884D01*
X005672Y015240D01*
X005277Y015240D01*
X005277Y015360D01*
X005157Y015360D01*
X004762Y015360D01*
X004762Y015716D01*
X004773Y015757D01*
X004794Y015793D01*
X004824Y015823D01*
X004861Y015844D01*
X004901Y015855D01*
X005157Y015855D01*
X005157Y015360D01*
X005157Y015447D02*
X005277Y015447D01*
X005277Y015360D02*
X005277Y015855D01*
X005533Y015855D01*
X005574Y015844D01*
X005611Y015823D01*
X005640Y015793D01*
X005661Y015757D01*
X005672Y015716D01*
X005672Y015360D01*
X005277Y015360D01*
X005277Y015328D02*
X009257Y015328D01*
X009257Y015210D02*
X005672Y015210D01*
X005672Y015091D02*
X009257Y015091D01*
X009257Y014973D02*
X005672Y014973D01*
X005664Y014854D02*
X009257Y014854D01*
X009257Y015447D02*
X005672Y015447D01*
X005672Y015565D02*
X009257Y015565D01*
X009257Y015684D02*
X006639Y015684D01*
X006785Y015802D02*
X009257Y015802D01*
X009257Y015921D02*
X006825Y015921D01*
X006817Y016039D02*
X009257Y016039D01*
X009257Y016158D02*
X006751Y016158D01*
X006783Y016276D02*
X009257Y016276D01*
X009257Y016395D02*
X006901Y016395D01*
X007020Y016513D02*
X009257Y016513D01*
X009257Y016632D02*
X007138Y016632D01*
X006815Y016987D02*
X006232Y016987D01*
X006245Y016869D02*
X006696Y016869D01*
X006578Y016750D02*
X005946Y016750D01*
X005909Y016750D02*
X005544Y016750D01*
X005610Y016746D02*
X005610Y016617D01*
X005544Y016683D01*
X005544Y016992D01*
X005476Y017060D01*
X005544Y017128D01*
X005544Y017155D01*
X005650Y017155D01*
X005650Y017148D01*
X005720Y017078D01*
X005732Y017078D01*
X005708Y017071D01*
X005672Y017050D01*
X005642Y017020D01*
X005621Y016984D01*
X005610Y016943D01*
X005610Y016783D01*
X005909Y016783D01*
X005909Y016746D01*
X005610Y016746D01*
X005595Y016632D02*
X005610Y016632D01*
X005610Y016869D02*
X005544Y016869D01*
X005544Y016987D02*
X005623Y016987D01*
X005692Y017106D02*
X005521Y017106D01*
X004933Y017106D02*
X000747Y017106D01*
X000747Y017224D02*
X001034Y017224D01*
X000950Y017343D02*
X000747Y017343D01*
X000747Y017461D02*
X000930Y017461D01*
X000959Y017580D02*
X000747Y017580D01*
X000747Y017698D02*
X001055Y017698D01*
X000747Y016987D02*
X004911Y016987D01*
X004911Y016869D02*
X004802Y016869D01*
X004825Y017224D02*
X004911Y017224D01*
X004911Y017343D02*
X004842Y017343D01*
X004842Y017461D02*
X004911Y017461D01*
X004387Y017461D02*
X004267Y017461D01*
X004267Y017343D02*
X004387Y017343D01*
X004387Y017224D02*
X004267Y017224D01*
X004267Y017817D02*
X004387Y017817D01*
X004387Y017935D02*
X004267Y017935D01*
X003839Y017935D02*
X003816Y017935D01*
X005309Y018646D02*
X005346Y018646D01*
X005346Y018765D02*
X005309Y018765D01*
X005309Y018883D02*
X005346Y018883D01*
X005346Y019002D02*
X005309Y019002D01*
X005346Y019079D02*
X005745Y019079D01*
X005745Y019339D01*
X005734Y019379D01*
X005713Y019416D01*
X005683Y019446D01*
X005647Y019467D01*
X005606Y019477D01*
X005346Y019477D01*
X005346Y019079D01*
X005346Y019120D02*
X005309Y019120D01*
X005309Y019239D02*
X005346Y019239D01*
X005346Y019357D02*
X005309Y019357D01*
X005309Y019476D02*
X005346Y019476D01*
X005613Y019476D02*
X008642Y019476D01*
X008515Y019357D02*
X005740Y019357D01*
X005745Y019239D02*
X008510Y019239D01*
X008510Y019120D02*
X005745Y019120D01*
X005745Y019002D02*
X008510Y019002D01*
X008510Y018883D02*
X005745Y018883D01*
X005740Y018765D02*
X008514Y018765D01*
X008636Y018646D02*
X005619Y018646D01*
X006188Y017580D02*
X007407Y017580D01*
X007289Y017461D02*
X006205Y017461D01*
X006205Y017343D02*
X007170Y017343D01*
X007052Y017224D02*
X006205Y017224D01*
X006162Y017106D02*
X006933Y017106D01*
X006459Y016632D02*
X006245Y016632D01*
X006215Y016513D02*
X006341Y016513D01*
X005946Y016513D02*
X005909Y016513D01*
X005909Y016632D02*
X005946Y016632D01*
X005390Y016158D02*
X004736Y016158D01*
X004802Y016276D02*
X005272Y016276D01*
X005509Y016039D02*
X004557Y016039D01*
X004557Y015921D02*
X005678Y015921D01*
X005632Y015802D02*
X006270Y015802D01*
X006416Y015684D02*
X005672Y015684D01*
X005524Y016024D02*
X005524Y016024D01*
X005277Y015802D02*
X005157Y015802D01*
X005157Y015684D02*
X005277Y015684D01*
X005277Y015565D02*
X005157Y015565D01*
X005157Y015210D02*
X005277Y015210D01*
X005277Y015091D02*
X005157Y015091D01*
X005157Y014973D02*
X005277Y014973D01*
X005277Y014854D02*
X005157Y014854D01*
X004762Y015447D02*
X004732Y015447D01*
X004732Y015565D02*
X004762Y015565D01*
X004762Y015684D02*
X004732Y015684D01*
X004675Y015802D02*
X004803Y015802D01*
X002918Y016158D02*
X002332Y016158D01*
X002332Y016162D02*
X002261Y016232D01*
X001571Y016232D01*
X001507Y016167D01*
X001525Y016276D02*
X002853Y016276D01*
X002332Y016162D02*
X002332Y016039D01*
X001501Y016395D02*
X001497Y016395D01*
X001501Y016513D02*
X001404Y016513D01*
X000948Y013432D02*
X000747Y013432D01*
X000747Y013314D02*
X000933Y013314D01*
X000933Y013195D02*
X000747Y013195D01*
X000747Y013077D02*
X000933Y013077D01*
X000933Y012958D02*
X000747Y012958D01*
X000747Y012840D02*
X000933Y012840D01*
X000933Y012721D02*
X000747Y012721D01*
X000747Y012603D02*
X000933Y012603D01*
X000933Y012484D02*
X000747Y012484D01*
X000747Y012366D02*
X001003Y012366D01*
X000933Y012247D02*
X000747Y012247D01*
X000747Y012129D02*
X000933Y012129D01*
X000933Y012010D02*
X000747Y012010D01*
X000747Y011892D02*
X000933Y011892D01*
X000933Y011773D02*
X000747Y011773D01*
X000747Y011655D02*
X000933Y011655D01*
X000933Y011536D02*
X000747Y011536D01*
X000747Y011418D02*
X000933Y011418D01*
X000933Y011299D02*
X000747Y011299D01*
X000747Y011181D02*
X000933Y011181D01*
X000933Y011062D02*
X000747Y011062D01*
X000747Y010944D02*
X000933Y010944D01*
X000933Y010825D02*
X000747Y010825D01*
X000747Y010707D02*
X000933Y010707D01*
X000933Y010588D02*
X000747Y010588D01*
X000747Y010470D02*
X000933Y010470D01*
X001154Y009048D02*
X001231Y009048D01*
X001231Y008929D02*
X001154Y008929D01*
X001154Y008811D02*
X001231Y008811D01*
X001231Y008692D02*
X001154Y008692D01*
X001154Y008574D02*
X001231Y008574D01*
X001231Y008455D02*
X001154Y008455D01*
X000858Y008455D02*
X000747Y008455D01*
X000747Y008574D02*
X000816Y008574D01*
X000816Y008692D02*
X000747Y008692D01*
X000747Y008811D02*
X000816Y008811D01*
X000816Y008929D02*
X000747Y008929D01*
X001542Y009048D02*
X001566Y009048D01*
X001584Y008455D02*
X001527Y008455D01*
X001824Y008218D02*
X001900Y008218D01*
X001900Y008100D02*
X001824Y008100D01*
X004097Y005848D02*
X004499Y005848D01*
X004617Y005730D02*
X004037Y005730D01*
X003919Y005611D02*
X005201Y005611D01*
X005419Y005493D02*
X003780Y005493D01*
X003780Y005374D02*
X005301Y005374D01*
X005182Y005256D02*
X003813Y005256D01*
X003820Y005137D02*
X005064Y005137D01*
X004945Y005019D02*
X003787Y005019D01*
X004793Y006085D02*
X005159Y006085D01*
X005030Y006322D02*
X006249Y006322D01*
X006367Y006441D02*
X005148Y006441D01*
X005267Y006559D02*
X006486Y006559D01*
X006604Y006678D02*
X005385Y006678D01*
X005397Y006796D02*
X006723Y006796D01*
X006841Y006915D02*
X005422Y006915D01*
X005541Y007033D02*
X006960Y007033D01*
X007078Y007152D02*
X005602Y007152D01*
X005629Y007167D02*
X005629Y007524D01*
X005629Y007524D01*
X005629Y007881D01*
X005656Y007881D01*
X005656Y008512D01*
X005602Y008490D01*
X005602Y007881D01*
X005629Y007881D01*
X005629Y007524D01*
X005629Y007167D01*
X005629Y007270D02*
X005629Y007270D01*
X005629Y007389D02*
X005629Y007389D01*
X005629Y007507D02*
X005629Y007507D01*
X005629Y007524D02*
X005629Y007524D01*
X005629Y007626D02*
X005629Y007626D01*
X005629Y007744D02*
X005629Y007744D01*
X005629Y007863D02*
X005629Y007863D01*
X005602Y007981D02*
X005656Y007981D01*
X005656Y008100D02*
X005602Y008100D01*
X005602Y008218D02*
X005656Y008218D01*
X005656Y008337D02*
X005602Y008337D01*
X005602Y008455D02*
X005656Y008455D01*
X006586Y008455D02*
X006640Y008455D01*
X006640Y008337D02*
X006586Y008337D01*
X006586Y008218D02*
X006640Y008218D01*
X006640Y008100D02*
X006586Y008100D01*
X006586Y007981D02*
X006640Y007981D01*
X006613Y007863D02*
X006613Y007863D01*
X006613Y007744D02*
X006613Y007744D01*
X006613Y007626D02*
X006613Y007626D01*
X006613Y007507D02*
X006613Y007507D01*
X006613Y007389D02*
X006613Y007389D01*
X006613Y007270D02*
X006613Y007270D01*
X007374Y007507D02*
X007434Y007507D01*
X007374Y007626D02*
X007552Y007626D01*
X007671Y007744D02*
X007374Y007744D01*
X007374Y007863D02*
X007789Y007863D01*
X007908Y007981D02*
X007374Y007981D01*
X007374Y008100D02*
X008026Y008100D01*
X008145Y008218D02*
X007374Y008218D01*
X007374Y008337D02*
X008263Y008337D01*
X008382Y008455D02*
X007374Y008455D01*
X007481Y008574D02*
X008500Y008574D01*
X008619Y008692D02*
X007600Y008692D01*
X007718Y008811D02*
X008737Y008811D01*
X008856Y008929D02*
X007837Y008929D01*
X007909Y009048D02*
X008746Y009048D01*
X008665Y009166D02*
X007990Y009166D01*
X008006Y009285D02*
X008649Y009285D01*
X008685Y009403D02*
X008311Y009403D01*
X008429Y009522D02*
X008831Y009522D01*
X008799Y009759D02*
X010235Y009759D01*
X010160Y009877D02*
X008799Y009877D01*
X008799Y009996D02*
X010149Y009996D01*
X010190Y010114D02*
X008799Y010114D01*
X008773Y010233D02*
X010358Y010233D01*
X010497Y010233D02*
X010679Y010233D01*
X010665Y010114D02*
X010794Y010114D01*
X010706Y009996D02*
X011751Y009996D01*
X011633Y010114D02*
X011061Y010114D01*
X011093Y010588D02*
X020192Y010588D01*
X020192Y010470D02*
X015501Y010470D01*
X015619Y010351D02*
X020192Y010351D01*
X020192Y010233D02*
X015738Y010233D01*
X015856Y010114D02*
X020192Y010114D01*
X020192Y009996D02*
X015975Y009996D01*
X016027Y009877D02*
X020192Y009877D01*
X020192Y009759D02*
X017711Y009759D01*
X017705Y009763D02*
X017631Y009801D01*
X017551Y009827D01*
X017469Y009840D01*
X017467Y009840D01*
X017467Y009350D01*
X017387Y009350D01*
X017387Y009840D01*
X017386Y009840D01*
X017303Y009827D01*
X017224Y009801D01*
X017150Y009763D01*
X017082Y009714D01*
X017023Y009655D01*
X016974Y009587D01*
X016936Y009513D01*
X016910Y009434D01*
X016897Y009351D01*
X016897Y009350D01*
X017387Y009350D01*
X017387Y009270D01*
X017467Y009270D01*
X017467Y009350D01*
X017957Y009350D01*
X017957Y009351D01*
X017944Y009434D01*
X017919Y009513D01*
X017881Y009587D01*
X017832Y009655D01*
X017773Y009714D01*
X017705Y009763D01*
X017842Y009640D02*
X020192Y009640D01*
X020192Y009522D02*
X017914Y009522D01*
X017949Y009403D02*
X020192Y009403D01*
X020192Y009285D02*
X018485Y009285D01*
X018615Y009166D02*
X020192Y009166D01*
X020192Y009048D02*
X018680Y009048D01*
X018717Y008929D02*
X020192Y008929D01*
X020192Y008811D02*
X018717Y008811D01*
X018688Y008692D02*
X020192Y008692D01*
X020192Y008574D02*
X018633Y008574D01*
X018515Y008455D02*
X020192Y008455D01*
X020192Y008337D02*
X018543Y008337D01*
X018651Y008218D02*
X020192Y008218D01*
X020192Y008100D02*
X018700Y008100D01*
X018717Y007981D02*
X020192Y007981D01*
X020192Y007863D02*
X018717Y007863D01*
X018669Y007744D02*
X020192Y007744D01*
X020192Y007626D02*
X018587Y007626D01*
X018423Y007507D02*
X020192Y007507D01*
X020192Y007389D02*
X018589Y007389D01*
X018670Y007270D02*
X020192Y007270D01*
X020192Y007152D02*
X018717Y007152D01*
X018717Y007033D02*
X020192Y007033D01*
X020192Y006915D02*
X018698Y006915D01*
X018649Y006796D02*
X020192Y006796D01*
X020192Y006678D02*
X018540Y006678D01*
X018517Y006559D02*
X020192Y006559D01*
X020192Y006441D02*
X018636Y006441D01*
X018689Y006322D02*
X020192Y006322D01*
X020192Y006204D02*
X018717Y006204D01*
X018717Y006085D02*
X020192Y006085D01*
X020192Y005967D02*
X018679Y005967D01*
X018612Y005848D02*
X020192Y005848D01*
X020192Y005730D02*
X018478Y005730D01*
X018564Y005611D02*
X020192Y005611D01*
X020192Y005493D02*
X018659Y005493D01*
X018708Y005374D02*
X020192Y005374D01*
X020192Y005256D02*
X018717Y005256D01*
X018709Y005137D02*
X020192Y005137D01*
X020192Y005019D02*
X018660Y005019D01*
X018566Y004900D02*
X020192Y004900D01*
X020192Y004782D02*
X018366Y004782D01*
X018089Y004782D02*
X016867Y004782D01*
X017022Y004900D02*
X017889Y004900D01*
X017795Y005019D02*
X017102Y005019D01*
X017145Y005137D02*
X017746Y005137D01*
X017737Y005256D02*
X017713Y005256D01*
X017467Y005256D02*
X017387Y005256D01*
X017387Y005374D02*
X017467Y005374D01*
X017467Y005493D02*
X017387Y005493D01*
X017387Y005611D02*
X017467Y005611D01*
X017467Y005663D02*
X017943Y005663D01*
X017950Y005670D01*
X018035Y005705D01*
X017950Y005741D01*
X017947Y005743D01*
X017467Y005743D01*
X017467Y005663D01*
X017467Y005730D02*
X017977Y005730D01*
X017387Y005730D02*
X016878Y005730D01*
X016869Y005726D02*
X016905Y005741D01*
X016908Y005743D01*
X017387Y005743D01*
X017387Y005663D01*
X016966Y005663D01*
X016905Y005708D01*
X016869Y005726D01*
X016377Y005730D02*
X016027Y005730D01*
X016027Y005848D02*
X016242Y005848D01*
X016176Y005967D02*
X016027Y005967D01*
X016027Y006085D02*
X016137Y006085D01*
X016137Y006204D02*
X016027Y006204D01*
X016027Y006322D02*
X016166Y006322D01*
X016219Y006441D02*
X016027Y006441D01*
X016027Y006559D02*
X016337Y006559D01*
X016315Y006678D02*
X016028Y006678D01*
X016146Y006796D02*
X016205Y006796D01*
X015936Y007152D02*
X015236Y007152D01*
X015192Y007133D02*
X015312Y007183D01*
X015404Y007275D01*
X015454Y007395D01*
X015454Y007525D01*
X015404Y007645D01*
X015312Y007737D01*
X015192Y007787D01*
X015062Y007787D01*
X014942Y007737D01*
X014850Y007645D01*
X014801Y007525D01*
X014801Y007460D01*
X014045Y007460D01*
X013927Y007343D01*
X013632Y007048D01*
X013632Y006719D01*
X012396Y006719D01*
X012371Y006744D01*
X012075Y006744D01*
X012004Y006673D01*
X012004Y005047D01*
X012075Y004976D01*
X012371Y004976D01*
X012385Y004990D01*
X013257Y004990D01*
X013457Y004790D01*
X014698Y004790D01*
X014797Y004890D01*
X014997Y005090D01*
X014997Y005730D01*
X014898Y005830D01*
X014796Y005932D01*
X014641Y005932D01*
X014641Y006182D01*
X014658Y006182D01*
X014691Y006102D01*
X014770Y006024D01*
X014872Y005982D01*
X014983Y005982D01*
X015085Y006024D01*
X015163Y006102D01*
X015206Y006205D01*
X015206Y006315D01*
X015163Y006418D01*
X015085Y006496D01*
X014983Y006538D01*
X014872Y006538D01*
X014833Y006522D01*
X014641Y006522D01*
X014641Y006673D01*
X014571Y006744D01*
X014275Y006744D01*
X014250Y006719D01*
X014146Y006719D01*
X014051Y006624D01*
X014051Y006673D01*
X014032Y006692D01*
X014032Y006882D01*
X014210Y007060D01*
X015010Y007060D01*
X015084Y007133D01*
X015192Y007133D01*
X015399Y007270D02*
X016185Y007270D01*
X016265Y007389D02*
X015451Y007389D01*
X015454Y007507D02*
X016432Y007507D01*
X016268Y007626D02*
X015412Y007626D01*
X015295Y007744D02*
X016186Y007744D01*
X015942Y007863D02*
X009906Y007863D01*
X009879Y007981D02*
X015824Y007981D01*
X015927Y007877D02*
X015927Y007877D01*
X015705Y008100D02*
X014207Y008100D01*
X014613Y008218D02*
X015627Y008218D01*
X015627Y008337D02*
X014641Y008337D01*
X014641Y008455D02*
X015627Y008455D01*
X015627Y008574D02*
X014641Y008574D01*
X014641Y008692D02*
X015627Y008692D01*
X015627Y008811D02*
X015053Y008811D01*
X015174Y008929D02*
X015627Y008929D01*
X015627Y009048D02*
X015206Y009048D01*
X015185Y009166D02*
X015627Y009166D01*
X015627Y009285D02*
X015097Y009285D01*
X015035Y009403D02*
X015627Y009403D01*
X015627Y009522D02*
X015171Y009522D01*
X015206Y009640D02*
X015627Y009640D01*
X015627Y009759D02*
X015188Y009759D01*
X015104Y009877D02*
X015527Y009877D01*
X015409Y009996D02*
X014032Y009996D01*
X014047Y009877D02*
X014104Y009877D01*
X014064Y010114D02*
X015290Y010114D01*
X014751Y009877D02*
X014638Y009877D01*
X014641Y009759D02*
X014667Y009759D01*
X013736Y010351D02*
X011877Y010351D01*
X011995Y010233D02*
X013632Y010233D01*
X013632Y010114D02*
X012097Y010114D01*
X012097Y009996D02*
X013632Y009996D01*
X013854Y010470D02*
X011758Y010470D01*
X010762Y010588D02*
X008799Y010588D01*
X008799Y010470D02*
X010671Y010470D01*
X010649Y010351D02*
X008736Y010351D01*
X008799Y010707D02*
X020192Y010707D01*
X020192Y010825D02*
X008799Y010825D01*
X008188Y010351D02*
X008067Y010351D01*
X008150Y010233D02*
X008151Y010233D01*
X007831Y010233D02*
X007754Y010233D01*
X007754Y010317D02*
X007555Y010317D01*
X007514Y010306D01*
X007478Y010285D01*
X007448Y010255D01*
X007427Y010219D01*
X007416Y010178D01*
X007416Y009998D01*
X007754Y009998D01*
X007754Y010317D01*
X007754Y010114D02*
X007831Y010114D01*
X007754Y009996D02*
X007106Y009996D01*
X007094Y009877D02*
X007416Y009877D01*
X007416Y009759D02*
X007020Y009759D01*
X007067Y009640D02*
X006586Y009640D01*
X006586Y009522D02*
X006948Y009522D01*
X006830Y009403D02*
X006586Y009403D01*
X006586Y009285D02*
X006711Y009285D01*
X006640Y009166D02*
X006586Y009166D01*
X006586Y009048D02*
X006640Y009048D01*
X006640Y008929D02*
X006586Y008929D01*
X006586Y008811D02*
X006640Y008811D01*
X006640Y008692D02*
X006586Y008692D01*
X006586Y008574D02*
X006640Y008574D01*
X006635Y009759D02*
X006586Y009759D01*
X007222Y010114D02*
X007416Y010114D01*
X007435Y010233D02*
X007340Y010233D01*
X007459Y010351D02*
X007519Y010351D01*
X008497Y009640D02*
X009067Y009640D01*
X009581Y008574D02*
X010520Y008574D01*
X010454Y008692D02*
X010300Y008692D01*
X010418Y008811D02*
X010449Y008811D01*
X010935Y008574D02*
X011414Y008574D01*
X011414Y008692D02*
X011001Y008692D01*
X011374Y008455D02*
X009463Y008455D01*
X009344Y008337D02*
X011374Y008337D01*
X011394Y008218D02*
X009226Y008218D01*
X009107Y008100D02*
X009478Y008100D01*
X009777Y008100D02*
X012547Y008100D01*
X012033Y008218D02*
X011870Y008218D01*
X011891Y008337D02*
X012004Y008337D01*
X012004Y008455D02*
X011963Y008455D01*
X011891Y008371D02*
X011632Y008371D01*
X011632Y008371D01*
X011891Y008371D01*
X011632Y008337D02*
X011632Y008337D01*
X011632Y008218D02*
X011632Y008218D01*
X009881Y007744D02*
X014959Y007744D01*
X014842Y007626D02*
X009787Y007626D01*
X009468Y007626D02*
X009133Y007626D01*
X009259Y007507D02*
X014801Y007507D01*
X014183Y007033D02*
X015818Y007033D01*
X015699Y006915D02*
X014065Y006915D01*
X014032Y006796D02*
X015627Y006796D01*
X015627Y006678D02*
X014637Y006678D01*
X014641Y006559D02*
X015627Y006559D01*
X015627Y006441D02*
X015141Y006441D01*
X015203Y006322D02*
X015627Y006322D01*
X015627Y006204D02*
X015205Y006204D01*
X015146Y006085D02*
X015627Y006085D01*
X015627Y005967D02*
X014641Y005967D01*
X014641Y006085D02*
X014709Y006085D01*
X014880Y005848D02*
X015627Y005848D01*
X015627Y005730D02*
X014997Y005730D01*
X014997Y005611D02*
X015627Y005611D01*
X015627Y005493D02*
X014997Y005493D01*
X014997Y005374D02*
X015627Y005374D01*
X015627Y005256D02*
X014997Y005256D01*
X014997Y005137D02*
X015627Y005137D01*
X015627Y005019D02*
X014926Y005019D01*
X014808Y004900D02*
X015627Y004900D01*
X015627Y004782D02*
X011289Y004782D01*
X011297Y004900D02*
X013347Y004900D01*
X014174Y004189D02*
X010697Y004189D01*
X010815Y004308D02*
X014292Y004308D01*
X014055Y004071D02*
X010578Y004071D01*
X010460Y003952D02*
X011026Y003952D01*
X010956Y003834D02*
X010341Y003834D01*
X010223Y003715D02*
X010949Y003715D01*
X010997Y003597D02*
X010104Y003597D01*
X009986Y003478D02*
X011418Y003478D01*
X011414Y003360D02*
X009867Y003360D01*
X009749Y003241D02*
X010268Y003241D01*
X010149Y003123D02*
X009630Y003123D01*
X009512Y003004D02*
X010031Y003004D01*
X009912Y002886D02*
X008019Y002886D01*
X008025Y003004D02*
X008243Y003004D01*
X008124Y003123D02*
X007983Y003123D01*
X008006Y003241D02*
X007828Y003241D01*
X007627Y003241D02*
X007367Y003241D01*
X007367Y002767D02*
X007499Y002767D01*
X007279Y002649D02*
X009675Y002649D01*
X009794Y002767D02*
X007956Y002767D01*
X006665Y001582D02*
X005997Y001582D01*
X005997Y001464D02*
X006783Y001464D01*
X006718Y001345D02*
X005997Y001345D01*
X006154Y001227D02*
X006501Y001227D01*
X006400Y001108D02*
X006255Y001108D01*
X006304Y000990D02*
X006351Y000990D01*
X006337Y000871D02*
X006317Y000871D01*
X006313Y000753D02*
X006342Y000753D01*
X006391Y000634D02*
X006264Y000634D01*
X006176Y000516D02*
X006479Y000516D01*
X006665Y000397D02*
X005990Y000397D01*
X005665Y000397D02*
X005086Y000397D01*
X005232Y000516D02*
X005479Y000516D01*
X005391Y000634D02*
X005307Y000634D01*
X005345Y000977D02*
X005344Y000984D01*
X005319Y001063D01*
X005281Y001138D01*
X005232Y001205D01*
X005173Y001264D01*
X005105Y001313D01*
X005031Y001351D01*
X004951Y001377D01*
X004869Y001390D01*
X004867Y001390D01*
X004867Y000900D01*
X004787Y000900D01*
X004787Y001390D01*
X004786Y001390D01*
X004703Y001377D01*
X004624Y001351D01*
X004550Y001313D01*
X004482Y001264D01*
X004423Y001205D01*
X004374Y001138D01*
X004336Y001063D01*
X004310Y000984D01*
X004309Y000977D01*
X004243Y001138D01*
X004105Y001275D01*
X003997Y001320D01*
X003997Y001590D01*
X004489Y002082D01*
X004583Y002082D01*
X004685Y002124D01*
X004716Y002155D01*
X004716Y002098D01*
X005054Y002098D01*
X005054Y002022D01*
X004716Y002022D01*
X004716Y001842D01*
X004727Y001801D01*
X004748Y001765D01*
X004778Y001735D01*
X004814Y001714D01*
X004855Y001703D01*
X005054Y001703D01*
X005054Y002022D01*
X005131Y002022D01*
X005131Y001703D01*
X005330Y001703D01*
X005371Y001714D01*
X005407Y001735D01*
X005437Y001765D01*
X005451Y001788D01*
X005496Y001743D01*
X005657Y001743D01*
X005657Y001320D01*
X005550Y001275D01*
X005412Y001138D01*
X005345Y000977D01*
X005343Y000990D02*
X005351Y000990D01*
X005400Y001108D02*
X005296Y001108D01*
X005210Y001227D02*
X005501Y001227D01*
X005657Y001345D02*
X005043Y001345D01*
X004867Y001345D02*
X004787Y001345D01*
X004787Y001227D02*
X004867Y001227D01*
X004867Y001108D02*
X004787Y001108D01*
X004787Y000990D02*
X004867Y000990D01*
X004867Y000753D02*
X004787Y000753D01*
X004787Y000634D02*
X004867Y000634D01*
X004867Y000516D02*
X004787Y000516D01*
X004787Y000397D02*
X004867Y000397D01*
X004569Y000397D02*
X003990Y000397D01*
X004176Y000516D02*
X004423Y000516D01*
X004348Y000634D02*
X004264Y000634D01*
X004304Y000990D02*
X004312Y000990D01*
X004359Y001108D02*
X004255Y001108D01*
X004154Y001227D02*
X004444Y001227D01*
X004612Y001345D02*
X003997Y001345D01*
X003997Y001464D02*
X005657Y001464D01*
X005657Y001582D02*
X003997Y001582D01*
X004108Y001701D02*
X005657Y001701D01*
X005997Y001701D02*
X006546Y001701D01*
X006428Y001819D02*
X006099Y001819D01*
X006099Y001938D02*
X006309Y001938D01*
X006246Y002056D02*
X006099Y002056D01*
X006099Y002175D02*
X006246Y002175D01*
X006246Y002293D02*
X006099Y002293D01*
X005996Y002412D02*
X006246Y002412D01*
X006246Y002530D02*
X005996Y002530D01*
X005996Y002649D02*
X006246Y002649D01*
X005656Y002548D02*
X005656Y002377D01*
X005496Y002377D01*
X005451Y002332D01*
X005437Y002355D01*
X005407Y002385D01*
X005371Y002406D01*
X005330Y002417D01*
X005131Y002417D01*
X005131Y002098D01*
X005054Y002098D01*
X005054Y002417D01*
X004855Y002417D01*
X004814Y002406D01*
X004806Y002401D01*
X004806Y002415D01*
X004775Y002490D01*
X005598Y002490D01*
X005656Y002548D01*
X005656Y002530D02*
X005638Y002530D01*
X005656Y002412D02*
X005350Y002412D01*
X005131Y002412D02*
X005054Y002412D01*
X005054Y002293D02*
X005131Y002293D01*
X005131Y002175D02*
X005054Y002175D01*
X005054Y002056D02*
X004464Y002056D01*
X004345Y001938D02*
X004716Y001938D01*
X004722Y001819D02*
X004227Y001819D01*
X003983Y002056D02*
X003864Y002056D01*
X003864Y001938D02*
X003745Y001938D01*
X003746Y001819D02*
X003627Y001819D01*
X003657Y001701D02*
X003508Y001701D01*
X003390Y001582D02*
X003657Y001582D01*
X003657Y001464D02*
X003271Y001464D01*
X003153Y001345D02*
X003657Y001345D01*
X003501Y001227D02*
X003154Y001227D01*
X003255Y001108D02*
X003400Y001108D01*
X003351Y000990D02*
X003304Y000990D01*
X003317Y000871D02*
X003337Y000871D01*
X003342Y000753D02*
X003313Y000753D01*
X003264Y000634D02*
X003391Y000634D01*
X003479Y000516D02*
X003176Y000516D01*
X002990Y000397D02*
X003665Y000397D01*
X002665Y000397D02*
X001990Y000397D01*
X002176Y000516D02*
X002479Y000516D01*
X002391Y000634D02*
X002264Y000634D01*
X002313Y000753D02*
X002342Y000753D01*
X002337Y000871D02*
X002317Y000871D01*
X002304Y000990D02*
X002351Y000990D01*
X002400Y001108D02*
X002255Y001108D01*
X002154Y001227D02*
X002501Y001227D01*
X002672Y001345D02*
X001937Y001345D01*
X001479Y000516D02*
X000914Y000516D01*
X001051Y000397D02*
X001665Y000397D01*
X002716Y001938D02*
X003264Y001938D01*
X003383Y002056D02*
X002774Y002056D01*
X002774Y002175D02*
X003501Y002175D01*
X003620Y002293D02*
X003301Y002293D01*
X003419Y002412D02*
X003649Y002412D01*
X004806Y002412D02*
X004835Y002412D01*
X005054Y001938D02*
X005131Y001938D01*
X005131Y001819D02*
X005054Y001819D01*
X006937Y001345D02*
X008135Y001345D01*
X008114Y001227D02*
X007154Y001227D01*
X007264Y000634D02*
X008114Y000634D01*
X007176Y000516D02*
X010619Y000516D01*
X010617Y000517D02*
X010653Y000496D01*
X010694Y000485D01*
X011108Y000485D01*
X011108Y000900D01*
X011228Y000900D01*
X011228Y001020D01*
X011780Y001020D01*
X011780Y001296D01*
X011769Y001337D01*
X011748Y001373D01*
X011719Y001403D01*
X011682Y001424D01*
X011641Y001435D01*
X011228Y001435D01*
X011228Y001020D01*
X011108Y001020D01*
X011108Y001435D01*
X010694Y001435D01*
X010653Y001424D01*
X010617Y001403D01*
X010587Y001373D01*
X010566Y001337D01*
X010555Y001296D01*
X010555Y001020D01*
X011108Y001020D01*
X011108Y000900D01*
X010555Y000900D01*
X010555Y000624D01*
X010566Y000583D01*
X010587Y000547D01*
X010617Y000517D01*
X010555Y000634D02*
X009260Y000634D01*
X009260Y000753D02*
X010555Y000753D01*
X010555Y000871D02*
X009260Y000871D01*
X009260Y000990D02*
X011108Y000990D01*
X011108Y001108D02*
X011228Y001108D01*
X011228Y000990D02*
X020192Y000990D01*
X020192Y001108D02*
X011780Y001108D01*
X011780Y001227D02*
X016941Y001227D01*
X016995Y001195D02*
X017280Y001119D01*
X017575Y001119D01*
X017860Y001195D01*
X018115Y001343D01*
X018324Y001551D01*
X018471Y001806D01*
X018547Y002091D01*
X018547Y002386D01*
X018471Y002671D01*
X018324Y002926D01*
X018115Y003135D01*
X017860Y003282D01*
X017575Y003359D01*
X017280Y003359D01*
X016995Y003282D01*
X016740Y003135D01*
X016531Y002926D01*
X016384Y002671D01*
X016307Y002386D01*
X016307Y002091D01*
X016384Y001806D01*
X016531Y001551D01*
X016740Y001343D01*
X016995Y001195D01*
X016737Y001345D02*
X011765Y001345D01*
X011780Y000900D02*
X011228Y000900D01*
X011228Y000485D01*
X011641Y000485D01*
X011682Y000496D01*
X011719Y000517D01*
X011748Y000547D01*
X011769Y000583D01*
X011780Y000624D01*
X011780Y000900D01*
X011780Y000871D02*
X020186Y000871D01*
X020155Y000753D02*
X011780Y000753D01*
X011780Y000634D02*
X020112Y000634D01*
X020026Y000516D02*
X011716Y000516D01*
X011228Y000516D02*
X011108Y000516D01*
X011108Y000634D02*
X011228Y000634D01*
X011228Y000753D02*
X011108Y000753D01*
X011108Y000871D02*
X011228Y000871D01*
X011228Y001227D02*
X011108Y001227D01*
X011108Y001345D02*
X011228Y001345D01*
X010708Y001701D02*
X013346Y001701D01*
X012032Y001819D02*
X011871Y001819D01*
X011891Y001938D02*
X012004Y001938D01*
X012004Y002056D02*
X011891Y002056D01*
X011891Y001971D02*
X011632Y001971D01*
X011632Y001971D01*
X011891Y001971D01*
X011851Y002175D02*
X012004Y002175D01*
X012004Y002293D02*
X011851Y002293D01*
X011851Y002412D02*
X012004Y002412D01*
X012004Y002530D02*
X011851Y002530D01*
X011851Y002649D02*
X012004Y002649D01*
X012004Y002767D02*
X011851Y002767D01*
X011851Y002886D02*
X012004Y002886D01*
X012004Y003004D02*
X011851Y003004D01*
X011851Y003123D02*
X012004Y003123D01*
X012004Y003241D02*
X011851Y003241D01*
X011851Y003360D02*
X012004Y003360D01*
X012009Y003478D02*
X011846Y003478D01*
X011802Y003597D02*
X013632Y003597D01*
X013700Y003715D02*
X011713Y003715D01*
X011594Y003834D02*
X013818Y003834D01*
X013937Y003952D02*
X011429Y003952D01*
X010934Y004426D02*
X015311Y004426D01*
X015429Y004545D02*
X011052Y004545D01*
X011171Y004663D02*
X015548Y004663D01*
X015876Y004426D02*
X020192Y004426D01*
X020192Y004308D02*
X015758Y004308D01*
X015639Y004189D02*
X020192Y004189D01*
X020192Y004071D02*
X015521Y004071D01*
X015995Y004545D02*
X020192Y004545D01*
X020192Y004663D02*
X016027Y004663D01*
X016027Y004782D02*
X016388Y004782D01*
X016424Y004763D02*
X016503Y004738D01*
X016586Y004724D01*
X016587Y004724D01*
X016587Y005214D01*
X016097Y005214D01*
X016097Y005213D01*
X016110Y005130D01*
X016136Y005051D01*
X016174Y004977D01*
X016223Y004909D01*
X016282Y004850D01*
X016350Y004801D01*
X016424Y004763D01*
X016587Y004782D02*
X016667Y004782D01*
X016667Y004900D02*
X016587Y004900D01*
X016587Y005019D02*
X016667Y005019D01*
X016667Y005137D02*
X016587Y005137D01*
X016587Y005256D02*
X016027Y005256D01*
X016027Y005374D02*
X016110Y005374D01*
X016154Y005493D02*
X016027Y005493D01*
X016027Y005611D02*
X016234Y005611D01*
X016667Y005256D02*
X017142Y005256D01*
X016232Y004900D02*
X016027Y004900D01*
X016027Y005019D02*
X016153Y005019D01*
X016109Y005137D02*
X016027Y005137D01*
X014502Y003952D02*
X020192Y003952D01*
X020192Y003834D02*
X014384Y003834D01*
X014265Y003715D02*
X020192Y003715D01*
X020192Y003597D02*
X014147Y003597D01*
X014105Y003478D02*
X014046Y003478D01*
X014637Y003478D02*
X020192Y003478D01*
X020192Y003360D02*
X014641Y003360D01*
X014641Y002886D02*
X014708Y002886D01*
X014641Y002767D02*
X016439Y002767D01*
X016508Y002886D02*
X015147Y002886D01*
X015206Y003004D02*
X016609Y003004D01*
X016727Y003123D02*
X015203Y003123D01*
X015140Y003241D02*
X016923Y003241D01*
X017931Y003241D02*
X020192Y003241D01*
X020192Y003123D02*
X018128Y003123D01*
X018246Y003004D02*
X020192Y003004D01*
X020192Y002886D02*
X018347Y002886D01*
X018416Y002767D02*
X020192Y002767D01*
X020192Y002649D02*
X018477Y002649D01*
X018509Y002530D02*
X020192Y002530D01*
X020192Y002412D02*
X018541Y002412D01*
X018547Y002293D02*
X020192Y002293D01*
X020192Y002175D02*
X018547Y002175D01*
X018538Y002056D02*
X020192Y002056D01*
X020192Y001938D02*
X018506Y001938D01*
X018474Y001819D02*
X020192Y001819D01*
X020192Y001701D02*
X018410Y001701D01*
X018341Y001582D02*
X020192Y001582D01*
X020192Y001464D02*
X018236Y001464D01*
X018118Y001345D02*
X020192Y001345D01*
X020192Y001227D02*
X017914Y001227D01*
X016619Y001464D02*
X010471Y001464D01*
X010570Y001345D02*
X009240Y001345D01*
X009260Y001227D02*
X010555Y001227D01*
X010555Y001108D02*
X009260Y001108D01*
X010590Y001582D02*
X016513Y001582D01*
X016445Y001701D02*
X014808Y001701D01*
X014927Y001819D02*
X016380Y001819D01*
X016349Y001938D02*
X014997Y001938D01*
X014997Y002056D02*
X016317Y002056D01*
X016307Y002175D02*
X014997Y002175D01*
X014997Y002293D02*
X016307Y002293D01*
X016314Y002412D02*
X014997Y002412D01*
X014997Y002530D02*
X014898Y002630D01*
X012032Y005019D02*
X011870Y005019D01*
X011891Y005137D02*
X012004Y005137D01*
X011891Y005171D02*
X011632Y005171D01*
X011632Y005171D01*
X011891Y005171D01*
X011891Y005256D02*
X012004Y005256D01*
X012004Y005374D02*
X011851Y005374D01*
X011851Y005493D02*
X012004Y005493D01*
X012004Y005611D02*
X011851Y005611D01*
X011851Y005730D02*
X012004Y005730D01*
X012004Y005848D02*
X011851Y005848D01*
X011851Y005967D02*
X012004Y005967D01*
X012004Y006085D02*
X011851Y006085D01*
X011851Y006204D02*
X012004Y006204D01*
X012004Y006322D02*
X011851Y006322D01*
X011851Y006441D02*
X012004Y006441D01*
X012004Y006559D02*
X011851Y006559D01*
X011846Y006678D02*
X012008Y006678D01*
X011004Y006678D02*
X009739Y006678D01*
X009684Y006559D02*
X010886Y006559D01*
X010767Y006441D02*
X009684Y006441D01*
X009684Y006322D02*
X010649Y006322D01*
X010530Y006204D02*
X009684Y006204D01*
X009655Y006085D02*
X010412Y006085D01*
X010293Y005967D02*
X009644Y005967D01*
X009644Y005848D02*
X010175Y005848D01*
X010056Y005730D02*
X009644Y005730D01*
X009644Y005611D02*
X009938Y005611D01*
X009819Y005493D02*
X009644Y005493D01*
X009701Y005374D02*
X009264Y005374D01*
X009251Y005374D02*
X008348Y005374D01*
X007645Y005256D02*
X007363Y005256D01*
X007482Y005374D02*
X007634Y005374D01*
X007674Y005137D02*
X007245Y005137D01*
X006012Y006085D02*
X005496Y006085D01*
X005585Y005967D02*
X005893Y005967D01*
X005775Y005848D02*
X005606Y005848D01*
X005575Y005730D02*
X005656Y005730D01*
X005538Y005611D02*
X005454Y005611D01*
X004911Y006204D02*
X006130Y006204D01*
X007922Y006915D02*
X008141Y006915D01*
X008041Y007033D02*
X008260Y007033D01*
X008159Y007152D02*
X008378Y007152D01*
X008278Y007270D02*
X008497Y007270D01*
X008557Y007389D02*
X008396Y007389D01*
X008515Y007507D02*
X008557Y007507D01*
X008633Y007626D02*
X008652Y007626D01*
X008752Y007744D02*
X008771Y007744D01*
X008870Y007863D02*
X008889Y007863D01*
X008989Y007981D02*
X009008Y007981D01*
X009375Y007389D02*
X013973Y007389D01*
X013855Y007270D02*
X009406Y007270D01*
X009384Y007152D02*
X013736Y007152D01*
X013632Y007033D02*
X009748Y007033D01*
X009806Y006915D02*
X013632Y006915D01*
X013632Y006796D02*
X009802Y006796D01*
X009307Y007033D02*
X009294Y007033D01*
X011345Y005137D02*
X011374Y005137D01*
X011394Y005019D02*
X011297Y005019D01*
X011632Y005019D02*
X011632Y005019D01*
X011632Y005137D02*
X011632Y005137D01*
X014046Y006678D02*
X014104Y006678D01*
X016034Y008337D02*
X016312Y008337D01*
X016340Y008455D02*
X016027Y008455D01*
X016027Y008574D02*
X016222Y008574D01*
X016167Y008692D02*
X016027Y008692D01*
X016027Y008811D02*
X016137Y008811D01*
X016137Y008929D02*
X016027Y008929D01*
X016027Y009048D02*
X016174Y009048D01*
X016240Y009166D02*
X016027Y009166D01*
X016027Y009285D02*
X016370Y009285D01*
X016027Y009403D02*
X016906Y009403D01*
X016885Y009285D02*
X017387Y009285D01*
X017467Y009285D02*
X017970Y009285D01*
X017467Y009403D02*
X017387Y009403D01*
X017387Y009522D02*
X017467Y009522D01*
X017467Y009640D02*
X017387Y009640D01*
X017387Y009759D02*
X017467Y009759D01*
X017144Y009759D02*
X016027Y009759D01*
X016027Y009640D02*
X017012Y009640D01*
X016941Y009522D02*
X016027Y009522D01*
X017387Y009166D02*
X017467Y009166D01*
X017467Y009048D02*
X017387Y009048D01*
X017387Y008929D02*
X017467Y008929D01*
X017467Y008811D02*
X017387Y008811D01*
X017387Y008692D02*
X017467Y008692D01*
X017467Y008574D02*
X017387Y008574D01*
X017387Y008455D02*
X017467Y008455D01*
X017467Y008448D02*
X017947Y008448D01*
X017950Y008445D01*
X018035Y008410D01*
X017950Y008375D01*
X017943Y008368D01*
X017467Y008368D01*
X017467Y007546D01*
X017947Y007546D01*
X017950Y007544D01*
X018035Y007508D01*
X017950Y007473D01*
X017943Y007466D01*
X017467Y007466D01*
X017467Y007546D01*
X017387Y007546D01*
X017387Y007466D01*
X016912Y007466D01*
X016905Y007473D01*
X016819Y007508D01*
X016905Y007544D01*
X016908Y007546D01*
X017387Y007546D01*
X017387Y008036D01*
X017387Y008368D01*
X017467Y008368D01*
X017467Y008448D01*
X017467Y008337D02*
X017387Y008337D01*
X017387Y008218D02*
X017467Y008218D01*
X017467Y008100D02*
X017387Y008100D01*
X017387Y007981D02*
X017467Y007981D01*
X017467Y007863D02*
X017387Y007863D01*
X017387Y007744D02*
X017467Y007744D01*
X017467Y007626D02*
X017387Y007626D01*
X017387Y007507D02*
X016823Y007507D01*
X017467Y007507D02*
X018032Y007507D01*
X016204Y008218D02*
X016152Y008218D01*
X014802Y008811D02*
X014641Y008811D01*
X014641Y008929D02*
X014680Y008929D01*
X013744Y011536D02*
X016449Y011536D01*
X016382Y011655D02*
X013862Y011655D01*
X013981Y011773D02*
X016350Y011773D01*
X016319Y011892D02*
X014099Y011892D01*
X014218Y012010D02*
X016307Y012010D01*
X016307Y012129D02*
X015490Y012129D01*
X015485Y012124D02*
X015563Y012202D01*
X015606Y012305D01*
X015606Y012415D01*
X015563Y012518D01*
X015485Y012596D01*
X015383Y012638D01*
X015289Y012638D01*
X014993Y012935D01*
X014641Y012935D01*
X014641Y012958D02*
X015136Y012958D01*
X015088Y012840D02*
X016602Y012840D01*
X016503Y012721D02*
X015207Y012721D01*
X015469Y012603D02*
X016435Y012603D01*
X016376Y012484D02*
X015577Y012484D01*
X015606Y012366D02*
X016344Y012366D01*
X016312Y012247D02*
X015582Y012247D01*
X015485Y012124D02*
X015383Y012082D01*
X015272Y012082D01*
X015170Y012124D01*
X015091Y012202D01*
X015165Y012129D02*
X014297Y012129D01*
X015519Y012958D02*
X016720Y012958D01*
X016911Y013077D02*
X015594Y013077D01*
X015014Y013788D02*
X014641Y013788D01*
X014609Y013906D02*
X015049Y013906D01*
X015098Y014025D02*
X014032Y014025D01*
X014018Y013906D02*
X014133Y013906D01*
X013907Y014380D02*
X013748Y014380D01*
X013629Y014499D02*
X014025Y014499D01*
X014144Y014617D02*
X013511Y014617D01*
X014262Y014736D02*
X011897Y014736D01*
X008815Y017698D02*
X008205Y017698D01*
X008323Y017817D02*
X008637Y017817D01*
X009219Y018646D02*
X009273Y018646D01*
X009340Y018765D02*
X009632Y018765D01*
X009549Y018883D02*
X009345Y018883D01*
X009345Y019002D02*
X009514Y019002D01*
X009514Y019120D02*
X009345Y019120D01*
X009345Y019239D02*
X009550Y019239D01*
X009634Y019357D02*
X009340Y019357D01*
X009909Y019357D02*
X009946Y019357D01*
X009946Y019239D02*
X009909Y019239D01*
X009909Y019120D02*
X009946Y019120D01*
X010221Y019357D02*
X010634Y019357D01*
X010550Y019239D02*
X010305Y019239D01*
X010341Y019120D02*
X010514Y019120D01*
X010514Y019002D02*
X010341Y019002D01*
X010306Y018883D02*
X010549Y018883D01*
X010632Y018765D02*
X010222Y018765D01*
X010909Y019120D02*
X010946Y019120D01*
X010946Y019239D02*
X010909Y019239D01*
X010909Y019357D02*
X010946Y019357D01*
X011221Y019357D02*
X011634Y019357D01*
X011550Y019239D02*
X011305Y019239D01*
X011341Y019120D02*
X011514Y019120D01*
X011514Y019002D02*
X011341Y019002D01*
X011306Y018883D02*
X011549Y018883D01*
X011632Y018765D02*
X011222Y018765D01*
X011909Y019120D02*
X011946Y019120D01*
X011946Y019239D02*
X011909Y019239D01*
X011909Y019357D02*
X011946Y019357D01*
X012221Y019357D02*
X012634Y019357D01*
X012550Y019239D02*
X012305Y019239D01*
X012341Y019120D02*
X012514Y019120D01*
X012514Y019002D02*
X012341Y019002D01*
X012306Y018883D02*
X012549Y018883D01*
X012632Y018765D02*
X012222Y018765D01*
X012909Y019120D02*
X012946Y019120D01*
X012946Y019239D02*
X012909Y019239D01*
X012909Y019357D02*
X012946Y019357D01*
X013306Y018883D02*
X014492Y018883D01*
X014492Y018765D02*
X013222Y018765D01*
X013382Y018646D02*
X014492Y018646D01*
X014492Y018528D02*
X013500Y018528D01*
X013619Y018409D02*
X014492Y018409D01*
X006166Y013669D02*
X006089Y013669D01*
X006089Y013551D02*
X006166Y013551D01*
X010625Y011418D02*
X011223Y011418D01*
X011216Y011536D02*
X010744Y011536D01*
X011554Y011536D02*
X011631Y011536D01*
X011631Y011418D02*
X011554Y011418D01*
X011632Y001938D02*
X011632Y001938D01*
X011632Y001819D02*
X011632Y001819D01*
X011393Y001819D02*
X010827Y001819D01*
X010945Y001938D02*
X011374Y001938D01*
X006990Y000397D02*
X019889Y000397D01*
D37*
X014927Y003060D03*
X013027Y002560D03*
X011227Y003760D03*
X013027Y005760D03*
X014927Y006260D03*
X013027Y008460D03*
X013027Y009160D03*
X014927Y009060D03*
X014927Y009660D03*
X015327Y012360D03*
X015327Y013160D03*
X015327Y013860D03*
X013027Y013860D03*
X013027Y013160D03*
X013027Y012460D03*
X010927Y010360D03*
X010427Y009960D03*
X009927Y009060D03*
X010727Y008760D03*
X009627Y007860D03*
X009127Y007260D03*
X009527Y006860D03*
X010027Y006460D03*
X010027Y005960D03*
X007127Y005760D03*
X006427Y005260D03*
X005327Y005860D03*
X004227Y005760D03*
X004227Y005360D03*
X004227Y006460D03*
X003627Y007360D03*
X002827Y008760D03*
X003327Y010460D03*
X004227Y011760D03*
X006827Y009960D03*
X007227Y009060D03*
X007727Y009260D03*
X008927Y009260D03*
X005727Y006960D03*
X005527Y008760D03*
X001027Y006360D03*
X002727Y004760D03*
X002927Y004160D03*
X002927Y003660D03*
X001827Y002760D03*
X003927Y002360D03*
X004527Y002360D03*
X004427Y003660D03*
X004927Y003660D03*
X005727Y003760D03*
X008627Y013060D03*
X008627Y013860D03*
X011727Y014960D03*
X012127Y015360D03*
D38*
X010727Y014460D03*
X010327Y014060D03*
X009927Y013660D03*
X009527Y013260D03*
X009127Y012860D03*
X011027Y011560D03*
X012727Y010260D03*
X013327Y010260D03*
X014527Y011760D03*
X015227Y011760D03*
X016727Y010460D03*
X017427Y010460D03*
X018127Y010460D03*
X015327Y009360D03*
X014927Y008560D03*
X015727Y007760D03*
X015727Y007260D03*
X015327Y006860D03*
X014827Y006860D03*
X015327Y005560D03*
X015327Y005060D03*
X015227Y003660D03*
X015927Y003660D03*
X016627Y003660D03*
X017427Y003660D03*
X017427Y004960D03*
X015227Y002160D03*
X015227Y001460D03*
X015927Y001460D03*
X014527Y000660D03*
X013927Y000660D03*
X013327Y000660D03*
X012727Y000660D03*
X012727Y001460D03*
X013327Y001460D03*
X011127Y001760D03*
X012727Y003760D03*
X013327Y003760D03*
X013227Y006960D03*
X012727Y006960D03*
X012727Y007760D03*
X013227Y007760D03*
X010727Y007660D03*
X010227Y007660D03*
X010227Y008160D03*
X010727Y008160D03*
X005827Y012260D03*
X004927Y011860D03*
X004927Y011260D03*
X003227Y012260D03*
X003227Y012760D03*
X003227Y013260D03*
X002227Y013860D03*
X001627Y013860D03*
X001027Y013860D03*
X001027Y014460D03*
X001627Y014460D03*
X002727Y014960D03*
X002727Y015460D03*
X002727Y015960D03*
X002627Y017060D03*
X002627Y017560D03*
X005227Y016060D03*
X006527Y015960D03*
X008627Y015660D03*
X008627Y015060D03*
X008627Y014460D03*
X008627Y016260D03*
X008627Y016860D03*
X007627Y018660D03*
X007627Y019260D03*
X007027Y019260D03*
X006427Y019260D03*
X014027Y017160D03*
X014027Y016560D03*
X014027Y015960D03*
X015527Y015960D03*
X015527Y015360D03*
X015527Y014760D03*
X016727Y013660D03*
X017427Y013660D03*
X018127Y013660D03*
X015527Y016560D03*
X003327Y009860D03*
X002827Y009560D03*
X003327Y009260D03*
X002827Y010160D03*
X002227Y010160D03*
X002227Y009560D03*
X002227Y012560D03*
X008527Y003560D03*
X007727Y002960D03*
X001627Y001560D03*
X001127Y001560D03*
X001127Y001060D03*
D39*
X003627Y014060D03*
X004327Y014060D03*
X005027Y014060D03*
X006027Y014160D03*
X006027Y014860D03*
D40*
X008627Y013860D02*
X009427Y014660D01*
X009427Y016595D01*
X009927Y017095D01*
X009927Y018060D01*
X010227Y018560D02*
X009427Y018560D01*
X008927Y018060D01*
X010227Y018560D02*
X011127Y018560D01*
X012127Y018560D01*
X013227Y018560D01*
X013527Y018260D01*
X013527Y016760D01*
X013193Y016425D01*
X012927Y016425D01*
X012427Y016595D02*
X012927Y017095D01*
X012927Y018060D01*
X012427Y018260D02*
X012127Y018560D01*
X012427Y018260D02*
X012427Y016960D01*
X011927Y016460D01*
X011927Y016425D01*
X011427Y016595D02*
X011927Y017095D01*
X011927Y018060D01*
X011427Y018260D02*
X011127Y018560D01*
X011427Y018260D02*
X011427Y016960D01*
X010927Y016460D01*
X010927Y016425D01*
X010427Y016595D02*
X010427Y014860D01*
X008627Y013060D01*
X009327Y012460D02*
X010616Y013749D01*
X011632Y013749D01*
X011632Y013552D02*
X010719Y013552D01*
X009427Y012260D01*
X006827Y012260D01*
X004842Y010274D01*
X004842Y007524D01*
X005038Y007524D02*
X005038Y010171D01*
X006927Y012060D01*
X008427Y012060D01*
X008627Y012060D01*
X009527Y012060D01*
X010823Y013355D01*
X011632Y013355D01*
X011632Y013158D02*
X010926Y013158D01*
X009627Y011860D01*
X007027Y011860D01*
X005235Y010068D01*
X005235Y007524D01*
X005432Y007524D02*
X005432Y007165D01*
X005227Y006960D01*
X005227Y006760D01*
X004527Y006060D01*
X004727Y005860D01*
X005327Y005860D01*
X004527Y006060D02*
X003927Y006060D01*
X003927Y006260D01*
X003845Y006343D01*
X003464Y006343D01*
X003464Y006540D02*
X003148Y006540D01*
X003027Y006660D01*
X003027Y007660D01*
X004127Y008760D01*
X004127Y011260D01*
X003516Y011872D01*
X002549Y011872D01*
X002549Y011616D02*
X003371Y011616D01*
X003927Y011060D01*
X003927Y008860D01*
X002827Y007760D01*
X002827Y006460D01*
X003142Y006146D01*
X003464Y006146D01*
X003464Y005949D02*
X003038Y005949D01*
X002627Y006360D01*
X002627Y007860D01*
X003727Y008960D01*
X003727Y010860D01*
X003227Y011360D01*
X002549Y011360D01*
X002549Y011104D02*
X003083Y011104D01*
X003327Y010860D01*
X003327Y010460D01*
X004645Y010377D02*
X006727Y012460D01*
X009327Y012460D01*
X009727Y011660D02*
X011029Y012962D01*
X011632Y012962D01*
X011632Y012765D02*
X011132Y012765D01*
X009827Y011460D01*
X007227Y011460D01*
X006023Y010255D01*
X006023Y007524D01*
X006219Y007524D02*
X006219Y010152D01*
X007327Y011260D01*
X009927Y011260D01*
X011235Y012568D01*
X011632Y012568D01*
X011632Y012371D02*
X011338Y012371D01*
X010027Y011060D01*
X007427Y011060D01*
X006416Y010049D01*
X006416Y007524D01*
X006810Y007524D02*
X006810Y009143D01*
X007227Y009560D01*
X008227Y009560D01*
X008327Y009660D01*
X008327Y009825D01*
X008462Y009960D01*
X008462Y010660D01*
X007793Y010660D02*
X007527Y010660D01*
X006827Y009960D01*
X007227Y009060D02*
X007007Y008840D01*
X007007Y007524D01*
X007204Y007524D02*
X007204Y008536D01*
X007727Y009060D01*
X007727Y009260D01*
X008927Y009260D02*
X009219Y009552D01*
X011632Y009552D01*
X011632Y009355D02*
X009523Y009355D01*
X004935Y004768D01*
X003464Y004768D01*
X003464Y004571D02*
X005038Y004571D01*
X009527Y009060D01*
X009927Y009060D01*
X010127Y008760D02*
X009527Y008760D01*
X005142Y004374D01*
X003464Y004374D01*
X002727Y004460D02*
X002227Y003960D01*
X001862Y003960D01*
X001193Y003960D02*
X001193Y003260D01*
X001227Y003225D01*
X001227Y002960D01*
X001327Y002860D01*
X001727Y002860D01*
X001827Y002760D01*
X002379Y002360D02*
X003127Y002360D01*
X003427Y002660D01*
X005527Y002660D01*
X005629Y002762D01*
X005629Y002996D01*
X005826Y002996D02*
X005826Y003662D01*
X005727Y003760D01*
X006023Y003455D02*
X006427Y003860D01*
X006427Y004160D01*
X006227Y004360D01*
X005827Y004360D01*
X005127Y003660D01*
X004927Y003660D01*
X004427Y003660D02*
X004251Y003484D01*
X004251Y002996D01*
X004527Y002360D02*
X003827Y001660D01*
X003827Y000860D01*
X002827Y000860D02*
X002827Y001260D01*
X003927Y002360D01*
X003427Y003260D02*
X001862Y003260D01*
X002727Y004460D02*
X002727Y004760D01*
X002029Y005358D02*
X002027Y005360D01*
X002027Y005584D01*
X001980Y005632D01*
X001862Y005514D01*
X001862Y004760D01*
X002029Y005358D02*
X003464Y005358D01*
X003464Y005555D02*
X002932Y005555D01*
X002127Y006360D01*
X001627Y006360D01*
X001127Y006860D01*
X001127Y007036D01*
X001075Y007088D01*
X001193Y007206D01*
X001193Y007960D01*
X001862Y008760D02*
X002827Y008760D01*
X003227Y007560D02*
X004327Y008660D01*
X004327Y011660D01*
X004227Y011760D01*
X004645Y010377D02*
X004645Y007524D01*
X004448Y007524D02*
X004448Y006680D01*
X004227Y006460D01*
X003927Y006060D02*
X003927Y005860D01*
X003819Y005752D01*
X003464Y005752D01*
X003464Y006736D02*
X003464Y006924D01*
X003227Y007160D01*
X003227Y007560D01*
X003627Y007360D02*
X003764Y007524D01*
X004251Y007524D01*
X005432Y007524D02*
X005432Y008665D01*
X005527Y008760D01*
X005826Y007524D02*
X005826Y010358D01*
X007127Y011660D01*
X009727Y011660D01*
X010927Y010360D02*
X011627Y010360D01*
X011927Y010060D01*
X011927Y008660D01*
X011835Y008568D01*
X011632Y008568D01*
X011632Y008962D02*
X010929Y008962D01*
X010727Y008760D01*
X010526Y009158D02*
X010127Y008760D01*
X010526Y009158D02*
X011632Y009158D01*
X012223Y009158D02*
X012529Y009158D01*
X012827Y008860D01*
X013227Y008860D01*
X013526Y009158D01*
X013832Y009158D01*
X014026Y009158D01*
X014223Y009355D01*
X014423Y009355D01*
X014423Y009158D02*
X014829Y009158D01*
X014927Y009060D01*
X014819Y009552D02*
X014423Y009552D01*
X014423Y009749D02*
X014216Y009749D01*
X014019Y009552D01*
X013832Y009552D01*
X012223Y009552D01*
X012223Y009355D02*
X012927Y009355D01*
X013027Y009255D01*
X013027Y009160D01*
X012927Y009355D02*
X013832Y009355D01*
X013832Y008962D02*
X013629Y008962D01*
X013327Y008660D01*
X012927Y008660D01*
X013027Y008560D01*
X013027Y008460D01*
X012927Y008660D02*
X012727Y008660D01*
X012426Y008962D01*
X012223Y008962D01*
X012223Y008568D02*
X012223Y008371D01*
X012516Y008371D01*
X012727Y008160D01*
X014027Y008160D01*
X014127Y008260D01*
X014127Y008860D01*
X014229Y008962D01*
X014423Y008962D01*
X014819Y009552D02*
X014927Y009660D01*
X013832Y009749D02*
X012223Y009749D01*
X011632Y009749D02*
X010638Y009749D01*
X010427Y009960D01*
X012223Y011699D02*
X012262Y011660D01*
X013627Y011660D01*
X014127Y012160D01*
X014127Y012460D01*
X014235Y012568D01*
X014423Y012568D01*
X014423Y012765D02*
X014923Y012765D01*
X015327Y012360D01*
X015326Y013158D02*
X014423Y013158D01*
X014423Y012962D02*
X014229Y012962D01*
X014032Y012765D01*
X013832Y012765D01*
X012223Y012765D01*
X012223Y012962D02*
X012927Y012962D01*
X013027Y013062D01*
X013027Y013160D01*
X012927Y012962D02*
X013832Y012962D01*
X013832Y013158D02*
X013429Y013158D01*
X013127Y013460D01*
X012927Y013460D01*
X012626Y013158D01*
X012223Y013158D01*
X012223Y013355D02*
X012523Y013355D01*
X012727Y013560D01*
X012727Y013960D01*
X012827Y014060D01*
X012927Y014060D01*
X013027Y013960D01*
X013027Y013860D01*
X012927Y014060D02*
X013227Y014060D01*
X013327Y013960D01*
X013327Y013560D01*
X013532Y013355D01*
X013832Y013355D01*
X013831Y013160D02*
X013832Y013158D01*
X014026Y013158D01*
X014223Y013355D01*
X014423Y013355D01*
X014423Y013552D02*
X015019Y013552D01*
X015327Y013860D01*
X015327Y013160D02*
X015326Y013158D01*
X014423Y013749D02*
X014412Y013760D01*
X014227Y013760D01*
X014019Y013552D01*
X013832Y013552D01*
X013635Y013552D01*
X013527Y013660D01*
X013527Y014060D01*
X013327Y014260D01*
X012727Y014260D01*
X012527Y014060D01*
X012527Y013660D01*
X012419Y013552D01*
X012223Y013552D01*
X012223Y013749D02*
X012223Y014055D01*
X012627Y014460D01*
X013427Y014460D01*
X013827Y014060D01*
X014927Y015160D01*
X014927Y017509D01*
X012427Y016595D02*
X012427Y015660D01*
X012527Y015560D01*
X012527Y015160D01*
X012327Y014960D01*
X011727Y014960D01*
X011827Y015360D02*
X012127Y015360D01*
X011827Y015360D02*
X011427Y015760D01*
X011427Y016595D01*
X010927Y017095D02*
X010927Y018060D01*
X010427Y018360D02*
X010227Y018560D01*
X010427Y018360D02*
X010427Y016925D01*
X009927Y016425D01*
X010427Y016595D02*
X010927Y017095D01*
X013827Y014060D02*
X013827Y013754D01*
X013832Y013749D01*
X013832Y012568D02*
X013227Y012568D01*
X013135Y012568D01*
X012223Y012568D01*
X012223Y012371D02*
X012223Y011699D01*
X013027Y012460D02*
X013135Y012568D01*
X009627Y007860D02*
X009127Y007860D01*
X008727Y007460D01*
X008727Y007260D01*
X008204Y006736D01*
X007991Y006736D01*
X007991Y006540D02*
X007607Y006540D01*
X007327Y006260D01*
X007327Y005960D01*
X007127Y005760D01*
X007423Y005555D02*
X007027Y005160D01*
X006527Y005160D01*
X006427Y005260D01*
X006132Y004965D02*
X005327Y004160D01*
X004327Y004160D01*
X003427Y003260D01*
X005826Y002996D02*
X005826Y002124D01*
X005762Y002060D01*
X005827Y001995D01*
X005827Y000860D01*
X006927Y001560D02*
X010327Y001560D01*
X010935Y002168D01*
X011632Y002168D01*
X011632Y002562D02*
X010829Y002562D01*
X010127Y001860D01*
X007027Y001860D01*
X006613Y002274D01*
X006613Y002996D01*
X006416Y002996D02*
X006416Y002071D01*
X006927Y001560D01*
X007127Y002160D02*
X009927Y002160D01*
X010526Y002758D01*
X011632Y002758D01*
X011632Y003152D02*
X010419Y003152D01*
X009727Y002460D01*
X007227Y002460D01*
X007007Y002680D01*
X007007Y002996D01*
X007204Y002996D02*
X007691Y002996D01*
X007727Y002960D01*
X008027Y003460D02*
X008327Y003160D01*
X009427Y003160D01*
X011127Y004860D01*
X011127Y005160D01*
X011335Y005368D01*
X011632Y005368D01*
X011632Y005762D02*
X011229Y005762D01*
X009448Y003980D01*
X007991Y003980D01*
X007991Y003784D02*
X008304Y003784D01*
X008527Y003560D01*
X008027Y003460D02*
X006427Y003460D01*
X006219Y003252D01*
X006219Y002996D01*
X006023Y002996D02*
X006023Y003455D01*
X006810Y002996D02*
X006810Y002477D01*
X007127Y002160D01*
X007991Y004177D02*
X009345Y004177D01*
X011126Y005958D01*
X011632Y005958D01*
X011632Y006352D02*
X011219Y006352D01*
X009827Y004960D01*
X008527Y004960D01*
X008335Y004768D01*
X007991Y004768D01*
X007991Y004965D02*
X006132Y004965D01*
X007423Y005555D02*
X007991Y005555D01*
X009257Y005555D01*
X009327Y005725D01*
X008827Y005960D02*
X008619Y005752D01*
X007991Y005752D01*
X007991Y005949D02*
X008416Y005949D01*
X008627Y006160D01*
X008627Y006760D01*
X009127Y007260D01*
X009527Y006860D02*
X009427Y006760D01*
X009027Y006760D01*
X008827Y006560D01*
X008827Y005960D01*
X007991Y005162D02*
X009729Y005162D01*
X011116Y006549D01*
X011632Y006549D01*
X012223Y006549D02*
X013832Y006549D01*
X013832Y006352D02*
X014019Y006352D01*
X014216Y006549D01*
X014423Y006549D01*
X014423Y006352D02*
X014835Y006352D01*
X014927Y006260D01*
X014423Y005958D02*
X014226Y005958D01*
X014029Y005762D01*
X013832Y005762D01*
X013629Y005762D01*
X013327Y005460D01*
X012727Y005460D01*
X012426Y005762D01*
X012223Y005762D01*
X012223Y005958D02*
X012927Y005958D01*
X013027Y005858D01*
X013027Y005760D01*
X012927Y005958D02*
X013832Y005958D01*
X013832Y006352D02*
X012223Y006352D01*
X012223Y005368D02*
X012223Y005171D01*
X012234Y005160D01*
X013327Y005160D01*
X013527Y004960D01*
X014627Y004960D01*
X014827Y005160D01*
X014827Y005660D01*
X014726Y005762D01*
X014423Y005762D01*
X011632Y003555D02*
X011427Y003760D01*
X011227Y003760D01*
X011632Y003555D02*
X011632Y003349D01*
X012223Y003349D02*
X013832Y003349D01*
X013832Y003152D02*
X012223Y003152D01*
X012223Y002758D02*
X012927Y002758D01*
X013027Y002658D01*
X013027Y002560D01*
X012927Y002758D02*
X013832Y002758D01*
X013832Y002562D02*
X013629Y002562D01*
X013327Y002260D01*
X012727Y002260D01*
X012426Y002562D01*
X012223Y002562D01*
X012223Y002168D02*
X012223Y001971D01*
X012234Y001960D01*
X013327Y001960D01*
X013527Y001760D01*
X014627Y001760D01*
X014827Y001960D01*
X014827Y002460D01*
X014726Y002562D01*
X014423Y002562D01*
X014423Y002758D02*
X014226Y002758D01*
X014029Y002562D01*
X013832Y002562D01*
X013832Y003152D02*
X014019Y003152D01*
X014216Y003349D01*
X014423Y003349D01*
X014423Y003152D02*
X014835Y003152D01*
X014927Y003060D01*
X009327Y004660D02*
X009042Y004374D01*
X007991Y004374D01*
X007991Y004571D02*
X008438Y004571D01*
X008527Y004660D01*
X008727Y004660D01*
D41*
X013832Y003565D02*
X013832Y003349D01*
X013832Y003565D02*
X014427Y004160D01*
X015327Y004160D01*
X015827Y004660D01*
X015827Y006760D01*
X016127Y007060D01*
X016625Y007060D01*
X016627Y007058D01*
X016627Y007959D02*
X016627Y007960D01*
X016127Y007960D01*
X015827Y008260D01*
X015827Y009860D01*
X015327Y010360D01*
X014027Y010360D01*
X013832Y010165D01*
X013832Y009749D01*
X015127Y007460D02*
X014927Y007260D01*
X014127Y007260D01*
X013832Y006965D01*
X013832Y006549D01*
X006127Y012360D02*
X006127Y012725D01*
X006127Y012360D02*
X006027Y012260D01*
X005827Y012260D01*
X002827Y012360D02*
X002827Y014060D01*
X002327Y014560D01*
X002327Y015760D01*
X002127Y015960D01*
X001931Y015960D01*
X001916Y015974D01*
X002827Y012360D02*
X002549Y012082D01*
X002549Y011872D01*
X006527Y015960D02*
X006527Y016060D01*
X006377Y016210D01*
X014927Y018611D02*
X017042Y018611D01*
X017676Y018611D01*
X018027Y018260D01*
X018027Y015060D01*
X017659Y014691D01*
X017059Y014691D01*
X017042Y018611D02*
X017059Y018629D01*
D42*
X015127Y007460D03*
D43*
X008687Y000960D02*
X006927Y000960D01*
X006827Y000860D01*
X004317Y015300D02*
X004317Y016538D01*
X004327Y016548D01*
X005339Y016548D01*
X005227Y016660D01*
X005227Y016725D01*
X005339Y016548D02*
X005727Y016160D01*
X006327Y016160D01*
X006377Y016210D01*
X008227Y018060D01*
X008927Y018060D01*
X005927Y017355D02*
X005888Y017395D01*
X005227Y017395D01*
X003417Y016458D02*
X003327Y016548D01*
X001933Y016548D01*
X001916Y016565D01*
X001916Y017746D02*
X001931Y017760D01*
X002127Y017760D01*
X002327Y017960D01*
X002327Y018360D01*
X003027Y019060D01*
X004327Y019060D01*
X003417Y016458D02*
X003417Y015300D01*
M02*
