G75*
%MOIN*%
%OFA0B0*%
%FSLAX24Y24*%
%IPPOS*%
%LPD*%
%AMOC8*
5,1,8,0,0,1.08239X$1,22.5*
%
%ADD10C,0.0000*%
D10*
X000627Y000947D02*
X000627Y019058D01*
X000628Y019058D02*
X000630Y019112D01*
X000635Y019165D01*
X000644Y019218D01*
X000657Y019270D01*
X000673Y019322D01*
X000693Y019372D01*
X000716Y019420D01*
X000743Y019467D01*
X000772Y019512D01*
X000805Y019555D01*
X000840Y019595D01*
X000878Y019633D01*
X000918Y019668D01*
X000961Y019701D01*
X001006Y019730D01*
X001053Y019757D01*
X001101Y019780D01*
X001151Y019800D01*
X001203Y019816D01*
X001255Y019829D01*
X001308Y019838D01*
X001361Y019843D01*
X001415Y019845D01*
X019525Y019845D01*
X019579Y019843D01*
X019632Y019838D01*
X019685Y019829D01*
X019737Y019816D01*
X019789Y019800D01*
X019839Y019780D01*
X019887Y019757D01*
X019934Y019730D01*
X019979Y019701D01*
X020022Y019668D01*
X020062Y019633D01*
X020100Y019595D01*
X020135Y019555D01*
X020168Y019512D01*
X020197Y019467D01*
X020224Y019420D01*
X020247Y019372D01*
X020267Y019322D01*
X020283Y019270D01*
X020296Y019218D01*
X020305Y019165D01*
X020310Y019112D01*
X020312Y019058D01*
X020312Y000947D01*
X020310Y000893D01*
X020305Y000840D01*
X020296Y000787D01*
X020283Y000735D01*
X020267Y000683D01*
X020247Y000633D01*
X020224Y000585D01*
X020197Y000538D01*
X020168Y000493D01*
X020135Y000450D01*
X020100Y000410D01*
X020062Y000372D01*
X020022Y000337D01*
X019979Y000304D01*
X019934Y000275D01*
X019887Y000248D01*
X019839Y000225D01*
X019789Y000205D01*
X019737Y000189D01*
X019685Y000176D01*
X019632Y000167D01*
X019579Y000162D01*
X019525Y000160D01*
X001415Y000160D01*
X001361Y000162D01*
X001308Y000167D01*
X001255Y000176D01*
X001203Y000189D01*
X001151Y000205D01*
X001101Y000225D01*
X001053Y000248D01*
X001006Y000275D01*
X000961Y000304D01*
X000918Y000337D01*
X000878Y000372D01*
X000840Y000410D01*
X000805Y000450D01*
X000772Y000493D01*
X000743Y000538D01*
X000716Y000585D01*
X000693Y000633D01*
X000673Y000683D01*
X000657Y000735D01*
X000644Y000787D01*
X000635Y000840D01*
X000630Y000893D01*
X000628Y000947D01*
X018791Y014691D02*
X018793Y014721D01*
X018799Y014751D01*
X018808Y014780D01*
X018821Y014807D01*
X018838Y014832D01*
X018857Y014855D01*
X018880Y014876D01*
X018905Y014893D01*
X018931Y014907D01*
X018960Y014917D01*
X018989Y014924D01*
X019019Y014927D01*
X019050Y014926D01*
X019080Y014921D01*
X019109Y014912D01*
X019136Y014900D01*
X019162Y014885D01*
X019186Y014866D01*
X019207Y014844D01*
X019225Y014820D01*
X019240Y014793D01*
X019251Y014765D01*
X019259Y014736D01*
X019263Y014706D01*
X019263Y014676D01*
X019259Y014646D01*
X019251Y014617D01*
X019240Y014589D01*
X019225Y014562D01*
X019207Y014538D01*
X019186Y014516D01*
X019162Y014497D01*
X019136Y014482D01*
X019109Y014470D01*
X019080Y014461D01*
X019050Y014456D01*
X019019Y014455D01*
X018989Y014458D01*
X018960Y014465D01*
X018931Y014475D01*
X018905Y014489D01*
X018880Y014506D01*
X018857Y014527D01*
X018838Y014550D01*
X018821Y014575D01*
X018808Y014602D01*
X018799Y014631D01*
X018793Y014661D01*
X018791Y014691D01*
X019776Y014691D02*
X019778Y014721D01*
X019784Y014751D01*
X019793Y014780D01*
X019806Y014807D01*
X019823Y014832D01*
X019842Y014855D01*
X019865Y014876D01*
X019890Y014893D01*
X019916Y014907D01*
X019945Y014917D01*
X019974Y014924D01*
X020004Y014927D01*
X020035Y014926D01*
X020065Y014921D01*
X020094Y014912D01*
X020121Y014900D01*
X020147Y014885D01*
X020171Y014866D01*
X020192Y014844D01*
X020210Y014820D01*
X020225Y014793D01*
X020236Y014765D01*
X020244Y014736D01*
X020248Y014706D01*
X020248Y014676D01*
X020244Y014646D01*
X020236Y014617D01*
X020225Y014589D01*
X020210Y014562D01*
X020192Y014538D01*
X020171Y014516D01*
X020147Y014497D01*
X020121Y014482D01*
X020094Y014470D01*
X020065Y014461D01*
X020035Y014456D01*
X020004Y014455D01*
X019974Y014458D01*
X019945Y014465D01*
X019916Y014475D01*
X019890Y014489D01*
X019865Y014506D01*
X019842Y014527D01*
X019823Y014550D01*
X019806Y014575D01*
X019793Y014602D01*
X019784Y014631D01*
X019778Y014661D01*
X019776Y014691D01*
X016823Y016660D02*
X016825Y016690D01*
X016831Y016720D01*
X016840Y016749D01*
X016853Y016776D01*
X016870Y016801D01*
X016889Y016824D01*
X016912Y016845D01*
X016937Y016862D01*
X016963Y016876D01*
X016992Y016886D01*
X017021Y016893D01*
X017051Y016896D01*
X017082Y016895D01*
X017112Y016890D01*
X017141Y016881D01*
X017168Y016869D01*
X017194Y016854D01*
X017218Y016835D01*
X017239Y016813D01*
X017257Y016789D01*
X017272Y016762D01*
X017283Y016734D01*
X017291Y016705D01*
X017295Y016675D01*
X017295Y016645D01*
X017291Y016615D01*
X017283Y016586D01*
X017272Y016558D01*
X017257Y016531D01*
X017239Y016507D01*
X017218Y016485D01*
X017194Y016466D01*
X017168Y016451D01*
X017141Y016439D01*
X017112Y016430D01*
X017082Y016425D01*
X017051Y016424D01*
X017021Y016427D01*
X016992Y016434D01*
X016963Y016444D01*
X016937Y016458D01*
X016912Y016475D01*
X016889Y016496D01*
X016870Y016519D01*
X016853Y016544D01*
X016840Y016571D01*
X016831Y016600D01*
X016825Y016630D01*
X016823Y016660D01*
X018791Y018629D02*
X018793Y018659D01*
X018799Y018689D01*
X018808Y018718D01*
X018821Y018745D01*
X018838Y018770D01*
X018857Y018793D01*
X018880Y018814D01*
X018905Y018831D01*
X018931Y018845D01*
X018960Y018855D01*
X018989Y018862D01*
X019019Y018865D01*
X019050Y018864D01*
X019080Y018859D01*
X019109Y018850D01*
X019136Y018838D01*
X019162Y018823D01*
X019186Y018804D01*
X019207Y018782D01*
X019225Y018758D01*
X019240Y018731D01*
X019251Y018703D01*
X019259Y018674D01*
X019263Y018644D01*
X019263Y018614D01*
X019259Y018584D01*
X019251Y018555D01*
X019240Y018527D01*
X019225Y018500D01*
X019207Y018476D01*
X019186Y018454D01*
X019162Y018435D01*
X019136Y018420D01*
X019109Y018408D01*
X019080Y018399D01*
X019050Y018394D01*
X019019Y018393D01*
X018989Y018396D01*
X018960Y018403D01*
X018931Y018413D01*
X018905Y018427D01*
X018880Y018444D01*
X018857Y018465D01*
X018838Y018488D01*
X018821Y018513D01*
X018808Y018540D01*
X018799Y018569D01*
X018793Y018599D01*
X018791Y018629D01*
X019776Y018629D02*
X019778Y018659D01*
X019784Y018689D01*
X019793Y018718D01*
X019806Y018745D01*
X019823Y018770D01*
X019842Y018793D01*
X019865Y018814D01*
X019890Y018831D01*
X019916Y018845D01*
X019945Y018855D01*
X019974Y018862D01*
X020004Y018865D01*
X020035Y018864D01*
X020065Y018859D01*
X020094Y018850D01*
X020121Y018838D01*
X020147Y018823D01*
X020171Y018804D01*
X020192Y018782D01*
X020210Y018758D01*
X020225Y018731D01*
X020236Y018703D01*
X020244Y018674D01*
X020248Y018644D01*
X020248Y018614D01*
X020244Y018584D01*
X020236Y018555D01*
X020225Y018527D01*
X020210Y018500D01*
X020192Y018476D01*
X020171Y018454D01*
X020147Y018435D01*
X020121Y018420D01*
X020094Y018408D01*
X020065Y018399D01*
X020035Y018394D01*
X020004Y018393D01*
X019974Y018396D01*
X019945Y018403D01*
X019916Y018413D01*
X019890Y018427D01*
X019865Y018444D01*
X019842Y018465D01*
X019823Y018488D01*
X019806Y018513D01*
X019793Y018540D01*
X019784Y018569D01*
X019778Y018599D01*
X019776Y018629D01*
X001050Y017451D02*
X001052Y017477D01*
X001058Y017503D01*
X001068Y017528D01*
X001081Y017551D01*
X001097Y017571D01*
X001117Y017589D01*
X001139Y017604D01*
X001162Y017616D01*
X001188Y017624D01*
X001214Y017628D01*
X001240Y017628D01*
X001266Y017624D01*
X001292Y017616D01*
X001316Y017604D01*
X001337Y017589D01*
X001357Y017571D01*
X001373Y017551D01*
X001386Y017528D01*
X001396Y017503D01*
X001402Y017477D01*
X001404Y017451D01*
X001402Y017425D01*
X001396Y017399D01*
X001386Y017374D01*
X001373Y017351D01*
X001357Y017331D01*
X001337Y017313D01*
X001315Y017298D01*
X001292Y017286D01*
X001266Y017278D01*
X001240Y017274D01*
X001214Y017274D01*
X001188Y017278D01*
X001162Y017286D01*
X001138Y017298D01*
X001117Y017313D01*
X001097Y017331D01*
X001081Y017351D01*
X001068Y017374D01*
X001058Y017399D01*
X001052Y017425D01*
X001050Y017451D01*
X001050Y016269D02*
X001052Y016295D01*
X001058Y016321D01*
X001068Y016346D01*
X001081Y016369D01*
X001097Y016389D01*
X001117Y016407D01*
X001139Y016422D01*
X001162Y016434D01*
X001188Y016442D01*
X001214Y016446D01*
X001240Y016446D01*
X001266Y016442D01*
X001292Y016434D01*
X001316Y016422D01*
X001337Y016407D01*
X001357Y016389D01*
X001373Y016369D01*
X001386Y016346D01*
X001396Y016321D01*
X001402Y016295D01*
X001404Y016269D01*
X001402Y016243D01*
X001396Y016217D01*
X001386Y016192D01*
X001373Y016169D01*
X001357Y016149D01*
X001337Y016131D01*
X001315Y016116D01*
X001292Y016104D01*
X001266Y016096D01*
X001240Y016092D01*
X001214Y016092D01*
X001188Y016096D01*
X001162Y016104D01*
X001138Y016116D01*
X001117Y016131D01*
X001097Y016149D01*
X001081Y016169D01*
X001068Y016192D01*
X001058Y016217D01*
X001052Y016243D01*
X001050Y016269D01*
M02*
