G75*
%MOIN*%
%OFA0B0*%
%FSLAX24Y24*%
%IPPOS*%
%LPD*%
%AMOC8*
5,1,8,0,0,1.08239X$1,22.5*
%
%ADD10C,0.0780*%
%ADD11C,0.2040*%
%ADD12C,0.0900*%
%ADD13C,0.0512*%
%ADD14R,0.0555X0.0555*%
%ADD15C,0.0555*%
%ADD16C,0.0394*%
D10*
X001827Y000860D03*
X002827Y000860D03*
X003827Y000860D03*
X004827Y000860D03*
X005827Y000860D03*
X006827Y000860D03*
X016627Y005254D03*
X016627Y006156D03*
X017427Y006605D03*
X018227Y006156D03*
X017427Y005703D03*
X018227Y005254D03*
X018227Y007058D03*
X017427Y007506D03*
X018227Y007959D03*
X017427Y008408D03*
X018227Y008861D03*
X017427Y009310D03*
X016627Y008861D03*
X016627Y007959D03*
X016627Y007058D03*
D11*
X017427Y002239D03*
X017427Y012081D03*
D12*
X017059Y014691D03*
X017059Y015676D03*
X019027Y016660D03*
X017059Y017644D03*
X017059Y018629D03*
D13*
X019027Y018629D03*
X020012Y018629D03*
X017059Y016660D03*
X019027Y014691D03*
X020012Y014691D03*
D14*
X009927Y018060D03*
X008927Y019060D03*
X005327Y019060D03*
D15*
X004327Y019060D03*
X008927Y018060D03*
X009927Y019060D03*
X010927Y019060D03*
X011927Y019060D03*
X012927Y019060D03*
X012927Y018060D03*
X011927Y018060D03*
X010927Y018060D03*
D16*
X001227Y017451D03*
X001227Y016269D03*
M02*
