G75*
G70*
%OFA0B0*%
%FSLAX24Y24*%
%IPPOS*%
%LPD*%
%AMOC8*
5,1,8,0,0,1.08239X$1,22.5*
%
%ADD10C,0.0000*%
D10*
X000586Y002308D02*
X000586Y008063D01*
X000588Y008164D01*
X000596Y008265D01*
X000608Y008365D01*
X000624Y008464D01*
X000646Y008563D01*
X000672Y008661D01*
X000703Y008757D01*
X000738Y008851D01*
X000778Y008944D01*
X000822Y009035D01*
X000870Y009124D01*
X000923Y009210D01*
X000979Y009293D01*
X001040Y009374D01*
X001104Y009452D01*
X001172Y009527D01*
X001243Y009598D01*
X001318Y009666D01*
X001396Y009730D01*
X001477Y009791D01*
X001560Y009847D01*
X001646Y009900D01*
X001735Y009948D01*
X001826Y009992D01*
X001919Y010032D01*
X002013Y010067D01*
X002109Y010098D01*
X002207Y010124D01*
X002306Y010146D01*
X002405Y010162D01*
X002505Y010174D01*
X002606Y010182D01*
X002707Y010184D01*
X008924Y010184D01*
X008924Y010185D02*
X009011Y010170D01*
X009097Y010151D01*
X009183Y010129D01*
X009267Y010102D01*
X009349Y010070D01*
X009430Y010035D01*
X009510Y009996D01*
X009587Y009953D01*
X009662Y009907D01*
X009734Y009856D01*
X009804Y009803D01*
X009872Y009745D01*
X009936Y009685D01*
X009997Y009622D01*
X010056Y009555D01*
X010111Y009486D01*
X010162Y009414D01*
X010210Y009340D01*
X010254Y009263D01*
X010294Y009185D01*
X010331Y009104D01*
X010363Y009022D01*
X010391Y008939D01*
X010416Y008854D01*
X010436Y008768D01*
X010451Y008681D01*
X010463Y008593D01*
X010470Y008505D01*
X010473Y008417D01*
X010471Y008329D01*
X010466Y008241D01*
X010456Y008153D01*
X010456Y002610D01*
X010465Y002507D01*
X010470Y002403D01*
X010469Y002299D01*
X010464Y002195D01*
X010453Y002092D01*
X010438Y001989D01*
X010418Y001887D01*
X010393Y001786D01*
X010364Y001687D01*
X010329Y001589D01*
X010290Y001493D01*
X010247Y001398D01*
X010199Y001306D01*
X010146Y001217D01*
X010090Y001129D01*
X010029Y001045D01*
X009965Y000964D01*
X009896Y000886D01*
X009824Y000811D01*
X009749Y000739D01*
X009670Y000672D01*
X009588Y000608D01*
X009503Y000548D01*
X009416Y000492D01*
X009326Y000441D01*
X009233Y000393D01*
X009139Y000351D01*
X009042Y000312D01*
X008944Y000279D01*
X008844Y000250D01*
X008743Y000226D01*
X008641Y000207D01*
X008538Y000192D01*
X002701Y000192D01*
X002600Y000194D01*
X002500Y000202D01*
X002400Y000214D01*
X002301Y000230D01*
X002202Y000252D01*
X002105Y000278D01*
X002009Y000308D01*
X001915Y000344D01*
X001822Y000383D01*
X001731Y000427D01*
X001643Y000475D01*
X001557Y000528D01*
X001474Y000584D01*
X001393Y000645D01*
X001315Y000709D01*
X001241Y000777D01*
X001170Y000848D01*
X001102Y000922D01*
X001038Y001000D01*
X000977Y001081D01*
X000921Y001164D01*
X000868Y001250D01*
X000820Y001338D01*
X000776Y001429D01*
X000737Y001522D01*
X000701Y001616D01*
X000671Y001712D01*
X000645Y001809D01*
X000623Y001908D01*
X000607Y002007D01*
X000595Y002107D01*
X000587Y002207D01*
X000585Y002308D01*
M02*
