G75*
G70*
%OFA0B0*%
%FSLAX24Y24*%
%IPPOS*%
%LPD*%
%AMOC8*
5,1,8,0,0,1.08239X$1,22.5*
%
%ADD10R,0.0866X0.0236*%
%ADD11R,0.0315X0.0472*%
%ADD12R,0.0394X0.0236*%
%ADD13R,0.0630X0.0551*%
%ADD14R,0.0630X0.0906*%
%ADD15C,0.0754*%
%ADD16C,0.1130*%
%ADD17R,0.0236X0.0197*%
%ADD18C,0.0200*%
%ADD19C,0.0160*%
%ADD20OC8,0.1950*%
%ADD21C,0.0100*%
D10*
X003562Y004434D03*
X003562Y004934D03*
X003562Y005434D03*
X003562Y005934D03*
X005609Y005934D03*
X005609Y005434D03*
X005609Y004934D03*
X005609Y004434D03*
D11*
X005440Y003184D03*
X004731Y003184D03*
X003940Y003184D03*
X003231Y003184D03*
D12*
X004652Y002434D03*
X005519Y002434D03*
D13*
X007086Y002133D03*
X007086Y003235D03*
D14*
X001936Y004894D03*
X001936Y007374D03*
D15*
X007546Y008742D03*
X008825Y006526D03*
D16*
X004651Y009318D02*
X003521Y009318D01*
X003521Y001050D02*
X004651Y001050D01*
D17*
X007830Y003987D03*
X007830Y004381D03*
X008341Y004184D03*
D18*
X008376Y004171D01*
X008411Y004162D01*
X008447Y004156D01*
X008484Y004153D01*
X008521Y004154D01*
X008557Y004159D01*
X008593Y004167D01*
X008628Y004179D01*
X008662Y004194D01*
X008694Y004212D01*
X008724Y004234D01*
X008751Y004258D01*
X008776Y004285D01*
X008799Y004314D01*
X008818Y004345D01*
X008835Y004378D01*
X008836Y004378D02*
X008825Y006526D01*
X006776Y005434D02*
X005609Y005434D01*
X005609Y004934D02*
X004982Y004934D01*
X004732Y005038D02*
X004439Y005331D01*
X004189Y005434D02*
X003562Y005434D01*
X002848Y006172D02*
X002879Y006223D01*
X002913Y006271D01*
X002950Y006318D01*
X002989Y006362D01*
X003031Y006404D01*
X003076Y006443D01*
X003122Y006480D01*
X003171Y006514D01*
X003221Y006545D01*
X003274Y006573D01*
X003328Y006597D01*
X003383Y006619D01*
X003439Y006637D01*
X003497Y006652D01*
X003555Y006664D01*
X003554Y006664D02*
X005681Y006664D01*
X005681Y006005D01*
X005616Y005934D01*
X005609Y005934D01*
X005681Y006664D02*
X005900Y006664D01*
X004982Y004934D02*
X004947Y004936D01*
X004913Y004941D01*
X004879Y004949D01*
X004847Y004961D01*
X004815Y004976D01*
X004785Y004994D01*
X004757Y005014D01*
X004732Y005038D01*
X004394Y004625D02*
X004086Y004934D01*
X003562Y004934D01*
X003562Y004434D02*
X002156Y004434D01*
X002126Y004524D01*
X002126Y004894D01*
X001936Y004894D01*
X001936Y004894D01*
X002126Y004894D02*
X002126Y005068D01*
X002231Y005362D02*
X002847Y006172D01*
X002231Y005363D02*
X002207Y005331D01*
X002186Y005297D01*
X002167Y005262D01*
X002152Y005225D01*
X002140Y005186D01*
X002132Y005147D01*
X002127Y005108D01*
X002125Y005068D01*
X002126Y004524D02*
X002126Y004484D01*
X002156Y004434D02*
X002156Y004364D01*
X002226Y004294D01*
X003226Y003184D01*
X003231Y003184D01*
X003236Y003184D01*
X004731Y003812D02*
X004729Y003876D01*
X004724Y003941D01*
X004715Y004005D01*
X004702Y004068D01*
X004686Y004130D01*
X004666Y004192D01*
X004643Y004252D01*
X004617Y004311D01*
X004588Y004368D01*
X004555Y004424D01*
X004519Y004477D01*
X004480Y004529D01*
X004439Y004578D01*
X004394Y004625D01*
X004439Y005331D02*
X004414Y005355D01*
X004386Y005375D01*
X004356Y005393D01*
X004324Y005408D01*
X004292Y005420D01*
X004258Y005428D01*
X004224Y005433D01*
X004189Y005435D01*
X005609Y004934D02*
X006282Y004934D01*
X006476Y004854D02*
X006949Y004230D01*
X007829Y004381D02*
X007827Y004445D01*
X007821Y004508D01*
X007812Y004571D01*
X007798Y004633D01*
X007781Y004694D01*
X007761Y004754D01*
X007736Y004813D01*
X007708Y004870D01*
X007677Y004926D01*
X007643Y004979D01*
X007605Y005030D01*
X007564Y005079D01*
X007521Y005126D01*
X007474Y005169D01*
X007425Y005210D01*
X007374Y005248D01*
X007321Y005282D01*
X007265Y005313D01*
X007208Y005341D01*
X007149Y005366D01*
X007089Y005386D01*
X007028Y005403D01*
X006966Y005417D01*
X006903Y005426D01*
X006840Y005432D01*
X006776Y005434D01*
X006475Y004854D02*
X006452Y004874D01*
X006427Y004892D01*
X006400Y004907D01*
X006372Y004919D01*
X006343Y004927D01*
X006313Y004932D01*
X006282Y004934D01*
X006949Y004230D02*
X006989Y004185D01*
X007026Y004136D01*
X007059Y004086D01*
X007089Y004033D01*
X007116Y003979D01*
X007138Y003922D01*
X007158Y003865D01*
X007173Y003806D01*
X007184Y003747D01*
X007192Y003687D01*
X007196Y003626D01*
X007195Y003566D01*
X007196Y003565D02*
X007196Y003174D01*
X007106Y003144D01*
X007086Y003235D01*
X007106Y003144D02*
X005556Y003144D01*
X005526Y003054D01*
X005440Y003184D01*
X005446Y003184D01*
X005519Y003184D01*
X005519Y002434D01*
X004652Y002434D02*
X004652Y003094D01*
X004656Y003094D01*
X004616Y003184D01*
X004731Y003184D01*
X004731Y003812D01*
X004652Y003184D02*
X004652Y003094D01*
X004616Y003184D02*
X003940Y003184D01*
X002156Y004364D02*
X002086Y004434D01*
X002086Y007341D02*
X001936Y007374D01*
X002279Y007807D02*
X003786Y009314D01*
X004086Y009314D01*
X004086Y009318D01*
X005900Y006664D02*
X005982Y006666D01*
X006064Y006672D01*
X006146Y006682D01*
X006227Y006696D01*
X006308Y006714D01*
X006387Y006736D01*
X006465Y006761D01*
X006542Y006791D01*
X006617Y006824D01*
X006691Y006861D01*
X006763Y006901D01*
X006833Y006945D01*
X006900Y006992D01*
X006965Y007042D01*
X007028Y007095D01*
X007088Y007152D01*
X007145Y007211D01*
X007199Y007273D01*
X007250Y007338D01*
X007298Y007404D01*
X007343Y007474D01*
X007384Y007545D01*
X007421Y007618D01*
X007455Y007693D01*
X007486Y007770D01*
X007512Y007847D01*
X007535Y007927D01*
X007554Y008007D01*
X007569Y008088D01*
X007580Y008169D01*
X007587Y008251D01*
X007590Y008333D01*
X007589Y008416D01*
X007584Y008498D01*
X007575Y008580D01*
X007562Y008661D01*
X007545Y008742D01*
X002279Y007807D02*
X002247Y007773D01*
X002217Y007736D01*
X002191Y007697D01*
X002167Y007657D01*
X002146Y007615D01*
X002128Y007571D01*
X002113Y007527D01*
X002101Y007481D01*
X002093Y007435D01*
X002088Y007388D01*
X002086Y007341D01*
D19*
X002676Y001123D02*
X001312Y001123D01*
X001403Y001010D02*
X001147Y001331D01*
X000969Y001701D01*
X000877Y002102D01*
X000865Y002308D01*
X000865Y002356D01*
X000865Y002363D01*
X000865Y008063D01*
X000877Y008269D01*
X000969Y008671D01*
X001148Y009042D01*
X001405Y009365D01*
X001727Y009622D01*
X002099Y009801D01*
X002501Y009893D01*
X002707Y009904D01*
X002751Y009904D01*
X002762Y009904D01*
X002912Y009904D01*
X002804Y009797D01*
X002676Y009486D01*
X002676Y009150D01*
X002795Y008861D01*
X002041Y008107D01*
X001565Y008107D01*
X001462Y008064D01*
X001383Y007986D01*
X001341Y007883D01*
X001341Y006866D01*
X001383Y006763D01*
X001462Y006684D01*
X001565Y006641D01*
X002306Y006641D01*
X002409Y006684D01*
X002488Y006763D01*
X002530Y006866D01*
X002530Y007519D01*
X002547Y007538D01*
X003482Y008473D01*
X004819Y008473D01*
X005129Y008602D01*
X005367Y008839D01*
X005495Y009150D01*
X005495Y009486D01*
X005367Y009797D01*
X005259Y009904D01*
X008898Y009904D01*
X009080Y009866D01*
X009445Y009711D01*
X009757Y009467D01*
X009996Y009151D01*
X010145Y008783D01*
X010193Y008390D01*
X010180Y008220D01*
X010176Y008208D01*
X010176Y008172D01*
X010171Y008136D01*
X010176Y008117D01*
X010176Y002649D01*
X010171Y002633D01*
X010176Y002594D01*
X010176Y002554D01*
X010179Y002545D01*
X010190Y002365D01*
X010143Y001941D01*
X010004Y001539D01*
X009778Y001178D01*
X009478Y000876D01*
X009118Y000648D01*
X008716Y000506D01*
X008516Y000472D01*
X005267Y000472D01*
X005367Y000572D01*
X005495Y000882D01*
X005495Y001218D01*
X005367Y001529D01*
X005129Y001767D01*
X004819Y001895D01*
X003352Y001895D01*
X003042Y001767D01*
X002804Y001529D01*
X002676Y001218D01*
X002676Y000882D01*
X002804Y000572D01*
X002904Y000472D01*
X002701Y000472D01*
X002496Y000483D01*
X002095Y000575D01*
X001725Y000753D01*
X001403Y001010D01*
X001459Y000965D02*
X002676Y000965D01*
X002707Y000806D02*
X001658Y000806D01*
X001944Y000648D02*
X002773Y000648D01*
X002887Y000489D02*
X002471Y000489D01*
X002702Y001282D02*
X001186Y001282D01*
X001094Y001440D02*
X002768Y001440D01*
X002874Y001599D02*
X001018Y001599D01*
X000956Y001757D02*
X003033Y001757D01*
X003018Y002668D02*
X002915Y002711D01*
X002836Y002789D01*
X002794Y002892D01*
X002794Y003096D01*
X001950Y004032D01*
X001833Y004149D01*
X001821Y004161D01*
X001565Y004161D01*
X001462Y004204D01*
X001383Y004283D01*
X001341Y004385D01*
X001341Y005402D01*
X001383Y005505D01*
X001462Y005584D01*
X001565Y005627D01*
X001955Y005627D01*
X002530Y006383D01*
X002620Y006540D01*
X002620Y006540D01*
X002920Y006822D01*
X002920Y006822D01*
X003288Y007005D01*
X003288Y007005D01*
X003449Y007032D01*
X003479Y007044D01*
X003523Y007044D01*
X003566Y007051D01*
X003597Y007044D01*
X005756Y007044D01*
X005825Y007044D01*
X005900Y007044D01*
X005901Y007044D01*
X006069Y007055D01*
X006394Y007141D01*
X006687Y007306D01*
X006928Y007541D01*
X007101Y007829D01*
X007195Y008152D01*
X007196Y008176D01*
X007173Y008185D01*
X006989Y008370D01*
X006889Y008611D01*
X006889Y008873D01*
X006989Y009114D01*
X007173Y009299D01*
X007415Y009399D01*
X007676Y009399D01*
X007918Y009299D01*
X008103Y009114D01*
X008203Y008873D01*
X008203Y008611D01*
X008103Y008370D01*
X007968Y008235D01*
X007963Y008033D01*
X007963Y008033D01*
X007813Y007518D01*
X007813Y007518D01*
X007537Y007059D01*
X007537Y007059D01*
X007537Y007059D01*
X007153Y006685D01*
X006687Y006421D01*
X006196Y006291D01*
X006201Y006290D01*
X006280Y006211D01*
X006322Y006108D01*
X006322Y005814D01*
X006701Y005814D01*
X006776Y005814D01*
X006852Y005814D01*
X006965Y005814D01*
X006965Y005814D01*
X007330Y005716D01*
X007330Y005716D01*
X007656Y005528D01*
X007656Y005528D01*
X007923Y005261D01*
X007923Y005261D01*
X008112Y004934D01*
X008112Y004934D01*
X008203Y004595D01*
X008216Y004562D01*
X008265Y004562D01*
X008273Y004565D01*
X008424Y004563D01*
X008424Y004562D01*
X008455Y004562D01*
X008448Y005974D01*
X008268Y006154D01*
X008168Y006395D01*
X008168Y006657D01*
X008268Y006898D01*
X008453Y007083D01*
X008695Y007183D01*
X008956Y007183D01*
X009198Y007083D01*
X009382Y006898D01*
X009482Y006657D01*
X009482Y006395D01*
X009382Y006154D01*
X009208Y005979D01*
X009215Y004451D01*
X009217Y004447D01*
X009215Y004375D01*
X009216Y004304D01*
X009214Y004300D01*
X009214Y004296D01*
X009186Y004231D01*
X009159Y004164D01*
X009155Y004161D01*
X009124Y004089D01*
X009124Y004089D01*
X008907Y003880D01*
X008907Y003880D01*
X008628Y003770D01*
X008628Y003770D01*
X008327Y003776D01*
X008327Y003776D01*
X008259Y003806D01*
X008168Y003806D01*
X008117Y003827D01*
X008115Y003819D01*
X008137Y003819D01*
X008115Y003819D02*
X008092Y003778D01*
X008058Y003745D01*
X008017Y003721D01*
X007971Y003709D01*
X007830Y003709D01*
X007830Y003987D01*
X007829Y003987D01*
X007531Y003987D01*
X007531Y003943D01*
X007505Y004058D01*
X007345Y004362D01*
X007345Y004362D01*
X007241Y004475D01*
X006808Y005045D01*
X006805Y005052D01*
X006864Y005048D01*
X007034Y005003D01*
X007186Y004915D01*
X007311Y004791D01*
X007398Y004639D01*
X007431Y004515D01*
X007431Y004227D01*
X007474Y004124D01*
X007531Y004067D01*
X007531Y003987D01*
X007829Y003987D01*
X007829Y003987D01*
X007829Y003709D01*
X007688Y003709D01*
X007642Y003721D01*
X007601Y003745D01*
X007570Y003776D01*
X007581Y003726D01*
X007638Y003669D01*
X007680Y003567D01*
X007680Y002904D01*
X007638Y002801D01*
X007559Y002722D01*
X007456Y002680D01*
X006715Y002680D01*
X006612Y002722D01*
X006570Y002764D01*
X005899Y002764D01*
X005953Y002711D01*
X005995Y002608D01*
X005995Y002260D01*
X005953Y002157D01*
X005874Y002079D01*
X005771Y002036D01*
X005266Y002036D01*
X005163Y002079D01*
X005086Y002156D01*
X005008Y002079D01*
X004905Y002036D01*
X004400Y002036D01*
X004297Y002079D01*
X004218Y002157D01*
X004176Y002260D01*
X004176Y002608D01*
X004210Y002692D01*
X004153Y002668D01*
X003727Y002668D01*
X003624Y002711D01*
X003586Y002749D01*
X003547Y002711D01*
X003444Y002668D01*
X003018Y002668D01*
X002919Y002709D02*
X000865Y002709D01*
X000865Y002550D02*
X004176Y002550D01*
X004176Y002392D02*
X000865Y002392D01*
X000870Y002233D02*
X004187Y002233D01*
X004307Y002075D02*
X000883Y002075D01*
X000920Y001916D02*
X006591Y001916D01*
X006591Y001834D02*
X006603Y001788D01*
X006626Y001747D01*
X006660Y001713D01*
X006701Y001690D01*
X006747Y001677D01*
X007028Y001677D01*
X007028Y002075D01*
X007143Y002075D01*
X007143Y001677D01*
X007424Y001677D01*
X007470Y001690D01*
X007511Y001713D01*
X007544Y001747D01*
X007568Y001788D01*
X007580Y001834D01*
X007580Y002075D01*
X007144Y002075D01*
X007144Y002191D01*
X007580Y002191D01*
X007580Y002432D01*
X007568Y002478D01*
X007544Y002519D01*
X007511Y002553D01*
X007470Y002576D01*
X007424Y002588D01*
X007143Y002588D01*
X007143Y002191D01*
X007028Y002191D01*
X007028Y002588D01*
X006747Y002588D01*
X006701Y002576D01*
X006660Y002553D01*
X006626Y002519D01*
X006603Y002478D01*
X006591Y002432D01*
X006591Y002191D01*
X007027Y002191D01*
X007027Y002075D01*
X006591Y002075D01*
X006591Y001834D01*
X006620Y001757D02*
X005138Y001757D01*
X005297Y001599D02*
X010025Y001599D01*
X009942Y001440D02*
X005404Y001440D01*
X005469Y001282D02*
X009843Y001282D01*
X009724Y001123D02*
X005495Y001123D01*
X005495Y000965D02*
X009566Y000965D01*
X009368Y000806D02*
X005464Y000806D01*
X005398Y000648D02*
X009116Y000648D01*
X008616Y000489D02*
X005284Y000489D01*
X005173Y002075D02*
X004998Y002075D01*
X005864Y002075D02*
X006591Y002075D01*
X006591Y002233D02*
X005984Y002233D01*
X005995Y002392D02*
X006591Y002392D01*
X006658Y002550D02*
X005995Y002550D01*
X005954Y002709D02*
X006645Y002709D01*
X007028Y002550D02*
X007143Y002550D01*
X007143Y002392D02*
X007028Y002392D01*
X007028Y002233D02*
X007143Y002233D01*
X007143Y002075D02*
X007028Y002075D01*
X007028Y001916D02*
X007143Y001916D01*
X007143Y001757D02*
X007028Y001757D01*
X007551Y001757D02*
X010080Y001757D01*
X010135Y001916D02*
X007580Y001916D01*
X007580Y002075D02*
X010158Y002075D01*
X010176Y002233D02*
X007580Y002233D01*
X007580Y002392D02*
X010188Y002392D01*
X010177Y002550D02*
X007513Y002550D01*
X007526Y002709D02*
X010176Y002709D01*
X010176Y002867D02*
X007665Y002867D01*
X007680Y003026D02*
X010176Y003026D01*
X010176Y003184D02*
X007680Y003184D01*
X007680Y003343D02*
X010176Y003343D01*
X010176Y003501D02*
X007680Y003501D01*
X007642Y003660D02*
X010176Y003660D01*
X010176Y003819D02*
X008751Y003819D01*
X009008Y003977D02*
X010176Y003977D01*
X010176Y004136D02*
X009144Y004136D01*
X009213Y004294D02*
X010176Y004294D01*
X010176Y004453D02*
X009215Y004453D01*
X009214Y004611D02*
X010176Y004611D01*
X010176Y004770D02*
X009214Y004770D01*
X009213Y004928D02*
X010176Y004928D01*
X010176Y005087D02*
X009212Y005087D01*
X009211Y005245D02*
X010176Y005245D01*
X010176Y005404D02*
X009211Y005404D01*
X009210Y005563D02*
X010176Y005563D01*
X010176Y005721D02*
X009209Y005721D01*
X009208Y005880D02*
X010176Y005880D01*
X010176Y006038D02*
X009267Y006038D01*
X009400Y006197D02*
X010176Y006197D01*
X010176Y006355D02*
X009466Y006355D01*
X009482Y006514D02*
X010176Y006514D01*
X010176Y006672D02*
X009476Y006672D01*
X009410Y006831D02*
X010176Y006831D01*
X010176Y006989D02*
X009291Y006989D01*
X009041Y007148D02*
X010176Y007148D01*
X010176Y007306D02*
X007686Y007306D01*
X007591Y007148D02*
X008610Y007148D01*
X008359Y006989D02*
X007466Y006989D01*
X007303Y006831D02*
X008240Y006831D01*
X008175Y006672D02*
X007132Y006672D01*
X006851Y006514D02*
X008168Y006514D01*
X008185Y006355D02*
X006438Y006355D01*
X006285Y006197D02*
X008250Y006197D01*
X008384Y006038D02*
X006322Y006038D01*
X006322Y005880D02*
X008448Y005880D01*
X008449Y005721D02*
X007312Y005721D01*
X007596Y005563D02*
X008450Y005563D01*
X008451Y005404D02*
X007780Y005404D01*
X007932Y005245D02*
X008451Y005245D01*
X008452Y005087D02*
X008024Y005087D01*
X008113Y004928D02*
X008453Y004928D01*
X008454Y004770D02*
X008156Y004770D01*
X008198Y004611D02*
X008454Y004611D01*
X007830Y003977D02*
X007829Y003977D01*
X007829Y003819D02*
X007830Y003819D01*
X007531Y003977D02*
X007524Y003977D01*
X007505Y004058D02*
X007505Y004058D01*
X007469Y004136D02*
X007465Y004136D01*
X007431Y004294D02*
X007381Y004294D01*
X007431Y004453D02*
X007261Y004453D01*
X007137Y004611D02*
X007406Y004611D01*
X007323Y004770D02*
X007017Y004770D01*
X006896Y004928D02*
X007163Y004928D01*
X006424Y004294D02*
X006222Y004294D01*
X006222Y004292D02*
X006222Y004434D01*
X005610Y004434D01*
X005610Y004434D01*
X006222Y004434D01*
X006222Y004554D01*
X006226Y004554D01*
X006613Y004045D01*
X006619Y004027D01*
X006658Y003985D01*
X006693Y003940D01*
X006700Y003936D01*
X006716Y003916D01*
X006782Y003791D01*
X006715Y003791D01*
X006612Y003748D01*
X006533Y003669D01*
X006491Y003567D01*
X006491Y003524D01*
X005857Y003524D01*
X005835Y003579D01*
X005756Y003658D01*
X005653Y003700D01*
X005227Y003700D01*
X005124Y003658D01*
X005111Y003645D01*
X005111Y003888D01*
X005111Y004013D01*
X005069Y004170D01*
X005107Y004148D01*
X005152Y004136D01*
X005609Y004136D01*
X005609Y004434D01*
X005609Y004434D01*
X005609Y004136D01*
X006066Y004136D01*
X006112Y004148D01*
X006153Y004172D01*
X006186Y004205D01*
X006210Y004246D01*
X006222Y004292D01*
X006222Y004453D02*
X006303Y004453D01*
X006544Y004136D02*
X005078Y004136D01*
X005111Y003977D02*
X006664Y003977D01*
X006767Y003819D02*
X005111Y003819D01*
X005111Y003660D02*
X005129Y003660D01*
X005750Y003660D02*
X006529Y003660D01*
X005609Y004294D02*
X005609Y004294D01*
X003628Y002709D02*
X003543Y002709D01*
X002804Y002867D02*
X000865Y002867D01*
X000865Y003026D02*
X002794Y003026D01*
X002714Y003184D02*
X000865Y003184D01*
X000865Y003343D02*
X002571Y003343D01*
X002428Y003501D02*
X000865Y003501D01*
X000865Y003660D02*
X002285Y003660D01*
X002142Y003819D02*
X000865Y003819D01*
X000865Y003977D02*
X002000Y003977D01*
X001847Y004136D02*
X000865Y004136D01*
X000865Y004294D02*
X001378Y004294D01*
X001341Y004453D02*
X000865Y004453D01*
X000865Y004611D02*
X001341Y004611D01*
X001341Y004770D02*
X000865Y004770D01*
X000865Y004928D02*
X001341Y004928D01*
X001341Y005087D02*
X000865Y005087D01*
X000865Y005245D02*
X001341Y005245D01*
X001341Y005404D02*
X000865Y005404D01*
X000865Y005563D02*
X001440Y005563D01*
X000865Y005721D02*
X002027Y005721D01*
X002147Y005880D02*
X000865Y005880D01*
X000865Y006038D02*
X002268Y006038D01*
X002388Y006197D02*
X000865Y006197D01*
X000865Y006355D02*
X002509Y006355D01*
X002605Y006514D02*
X000865Y006514D01*
X000865Y006672D02*
X001490Y006672D01*
X001355Y006831D02*
X000865Y006831D01*
X000865Y006989D02*
X001341Y006989D01*
X001341Y007148D02*
X000865Y007148D01*
X000865Y007306D02*
X001341Y007306D01*
X001341Y007465D02*
X000865Y007465D01*
X000865Y007624D02*
X001341Y007624D01*
X001341Y007782D02*
X000865Y007782D01*
X000865Y007941D02*
X001365Y007941D01*
X001546Y008099D02*
X000867Y008099D01*
X000876Y008258D02*
X002192Y008258D01*
X002350Y008416D02*
X000911Y008416D01*
X000947Y008575D02*
X002509Y008575D01*
X002667Y008733D02*
X000999Y008733D01*
X001075Y008892D02*
X002782Y008892D01*
X002717Y009050D02*
X001154Y009050D01*
X001281Y009209D02*
X002676Y009209D01*
X002676Y009368D02*
X001408Y009368D01*
X001607Y009526D02*
X002692Y009526D01*
X002758Y009685D02*
X001858Y009685D01*
X002285Y009843D02*
X002851Y009843D01*
X003425Y008416D02*
X006969Y008416D01*
X007101Y008258D02*
X003267Y008258D01*
X003108Y008099D02*
X007180Y008099D01*
X007133Y007941D02*
X002949Y007941D01*
X002791Y007782D02*
X007073Y007782D01*
X006977Y007624D02*
X002632Y007624D01*
X002530Y007465D02*
X006850Y007465D01*
X006687Y007306D02*
X002530Y007306D01*
X002530Y007148D02*
X006407Y007148D01*
X007781Y007465D02*
X010176Y007465D01*
X010176Y007624D02*
X007844Y007624D01*
X007890Y007782D02*
X010176Y007782D01*
X010176Y007941D02*
X007936Y007941D01*
X007965Y008099D02*
X010176Y008099D01*
X010183Y008258D02*
X007991Y008258D01*
X008122Y008416D02*
X010190Y008416D01*
X010170Y008575D02*
X008188Y008575D01*
X008203Y008733D02*
X010151Y008733D01*
X010101Y008892D02*
X008195Y008892D01*
X008129Y009050D02*
X010036Y009050D01*
X009952Y009209D02*
X008008Y009209D01*
X007753Y009368D02*
X009833Y009368D01*
X009682Y009526D02*
X005479Y009526D01*
X005495Y009368D02*
X007338Y009368D01*
X007083Y009209D02*
X005495Y009209D01*
X005454Y009050D02*
X006962Y009050D01*
X006896Y008892D02*
X005389Y008892D01*
X005261Y008733D02*
X006889Y008733D01*
X006904Y008575D02*
X005065Y008575D01*
X005413Y009685D02*
X009479Y009685D01*
X009134Y009843D02*
X005320Y009843D01*
X003258Y006989D02*
X002530Y006989D01*
X002516Y006831D02*
X002939Y006831D01*
X002761Y006672D02*
X002381Y006672D01*
D20*
X008936Y002134D03*
D21*
X007086Y002133D02*
X007086Y001684D01*
X005586Y001684D01*
X005086Y002184D01*
X005086Y003910D01*
X005085Y003910D02*
X005087Y003953D01*
X005092Y003996D01*
X005101Y004039D01*
X005113Y004080D01*
X005129Y004120D01*
X005148Y004159D01*
X005170Y004197D01*
X005195Y004232D01*
X005223Y004265D01*
X005254Y004296D01*
X005287Y004324D01*
X005322Y004349D01*
X005360Y004371D01*
X005399Y004390D01*
X005439Y004406D01*
X005480Y004418D01*
X005523Y004427D01*
X005566Y004432D01*
X005609Y004434D01*
M02*
