G75*
G70*
%OFA0B0*%
%FSLAX24Y24*%
%IPPOS*%
%LPD*%
%AMOC8*
5,1,8,0,0,1.08239X$1,22.5*
%
%ADD10C,0.0068*%
%ADD11R,0.0315X0.0472*%
%ADD12R,0.0300X0.0600*%
%ADD13C,0.0020*%
%ADD14C,0.0160*%
%ADD15R,0.0080X0.0160*%
D10*
X007668Y005922D02*
X007841Y006095D01*
X007856Y006080D01*
X007683Y005907D01*
X007668Y005922D01*
X007720Y005974D02*
X007750Y005974D01*
X007787Y006041D02*
X007817Y006041D01*
X007980Y005955D02*
X007807Y005782D01*
X007980Y005955D02*
X007995Y005940D01*
X007822Y005767D01*
X007807Y005782D01*
X007859Y005834D02*
X007889Y005834D01*
X007926Y005901D02*
X007956Y005901D01*
X008119Y005816D02*
X007946Y005643D01*
X008119Y005816D02*
X008134Y005801D01*
X007961Y005628D01*
X007946Y005643D01*
X007998Y005695D02*
X008028Y005695D01*
X008065Y005762D02*
X008095Y005762D01*
X008259Y005677D02*
X008086Y005504D01*
X008259Y005677D02*
X008274Y005662D01*
X008101Y005489D01*
X008086Y005504D01*
X008138Y005556D02*
X008168Y005556D01*
X008205Y005623D02*
X008235Y005623D01*
X008398Y005538D02*
X008225Y005365D01*
X008398Y005538D02*
X008413Y005523D01*
X008240Y005350D01*
X008225Y005365D01*
X008277Y005417D02*
X008307Y005417D01*
X008344Y005484D02*
X008374Y005484D01*
X008782Y005523D02*
X008797Y005538D01*
X008970Y005365D01*
X008955Y005350D01*
X008782Y005523D01*
X008888Y005417D02*
X008918Y005417D01*
X008851Y005484D02*
X008821Y005484D01*
X008921Y005662D02*
X008936Y005677D01*
X009109Y005504D01*
X009094Y005489D01*
X008921Y005662D01*
X009027Y005556D02*
X009057Y005556D01*
X008990Y005623D02*
X008960Y005623D01*
X009060Y005801D02*
X009075Y005816D01*
X009248Y005643D01*
X009233Y005628D01*
X009060Y005801D01*
X009166Y005695D02*
X009196Y005695D01*
X009129Y005762D02*
X009099Y005762D01*
X009199Y005940D02*
X009214Y005955D01*
X009387Y005782D01*
X009372Y005767D01*
X009199Y005940D01*
X009305Y005834D02*
X009335Y005834D01*
X009268Y005901D02*
X009238Y005901D01*
X009338Y006080D02*
X009353Y006095D01*
X009526Y005922D01*
X009511Y005907D01*
X009338Y006080D01*
X009444Y005974D02*
X009474Y005974D01*
X009407Y006041D02*
X009377Y006041D01*
X009338Y006478D02*
X009511Y006651D01*
X009526Y006636D01*
X009353Y006463D01*
X009338Y006478D01*
X009390Y006530D02*
X009420Y006530D01*
X009457Y006597D02*
X009487Y006597D01*
X009372Y006791D02*
X009199Y006618D01*
X009372Y006791D02*
X009387Y006776D01*
X009214Y006603D01*
X009199Y006618D01*
X009251Y006670D02*
X009281Y006670D01*
X009318Y006737D02*
X009348Y006737D01*
X009233Y006930D02*
X009060Y006757D01*
X009233Y006930D02*
X009248Y006915D01*
X009075Y006742D01*
X009060Y006757D01*
X009112Y006809D02*
X009142Y006809D01*
X009179Y006876D02*
X009209Y006876D01*
X009094Y007069D02*
X008921Y006896D01*
X009094Y007069D02*
X009109Y007054D01*
X008936Y006881D01*
X008921Y006896D01*
X008973Y006948D02*
X009003Y006948D01*
X009040Y007015D02*
X009070Y007015D01*
X008955Y007208D02*
X008782Y007035D01*
X008955Y007208D02*
X008970Y007193D01*
X008797Y007020D01*
X008782Y007035D01*
X008834Y007087D02*
X008864Y007087D01*
X008901Y007154D02*
X008931Y007154D01*
X008240Y007208D02*
X008225Y007193D01*
X008240Y007208D02*
X008413Y007035D01*
X008398Y007020D01*
X008225Y007193D01*
X008331Y007087D02*
X008361Y007087D01*
X008294Y007154D02*
X008264Y007154D01*
X008101Y007069D02*
X008086Y007054D01*
X008101Y007069D02*
X008274Y006896D01*
X008259Y006881D01*
X008086Y007054D01*
X008192Y006948D02*
X008222Y006948D01*
X008155Y007015D02*
X008125Y007015D01*
X007961Y006930D02*
X007946Y006915D01*
X007961Y006930D02*
X008134Y006757D01*
X008119Y006742D01*
X007946Y006915D01*
X008052Y006809D02*
X008082Y006809D01*
X008015Y006876D02*
X007985Y006876D01*
X007822Y006791D02*
X007807Y006776D01*
X007822Y006791D02*
X007995Y006618D01*
X007980Y006603D01*
X007807Y006776D01*
X007913Y006670D02*
X007943Y006670D01*
X007876Y006737D02*
X007846Y006737D01*
X007683Y006651D02*
X007668Y006636D01*
X007683Y006651D02*
X007856Y006478D01*
X007841Y006463D01*
X007668Y006636D01*
X007774Y006530D02*
X007804Y006530D01*
X007737Y006597D02*
X007707Y006597D01*
D11*
G36*
X010071Y005140D02*
X009849Y005362D01*
X010181Y005694D01*
X010403Y005472D01*
X010071Y005140D01*
G37*
G36*
X010572Y004639D02*
X010350Y004861D01*
X010682Y005193D01*
X010904Y004971D01*
X010572Y004639D01*
G37*
D12*
X009172Y003854D03*
X007672Y003854D03*
X007672Y001854D03*
X009172Y001854D03*
D13*
X003959Y001559D02*
X003877Y001641D01*
X003877Y001708D01*
X004077Y001909D01*
X004077Y002047D01*
X004113Y002082D01*
X004160Y002082D01*
X004353Y002279D01*
X004432Y002279D01*
X004629Y002082D01*
X004676Y002082D01*
X004711Y002047D01*
X004711Y001791D01*
X004680Y001759D01*
X004227Y001759D01*
X004026Y001559D01*
X003959Y001559D01*
X003949Y001569D02*
X004037Y001569D01*
X004055Y001588D02*
X003930Y001588D01*
X003912Y001606D02*
X004074Y001606D01*
X004092Y001625D02*
X003893Y001625D01*
X003877Y001643D02*
X004111Y001643D01*
X004129Y001662D02*
X003877Y001662D01*
X003877Y001680D02*
X004148Y001680D01*
X004167Y001699D02*
X003877Y001699D01*
X003886Y001717D02*
X004185Y001717D01*
X004204Y001736D02*
X003904Y001736D01*
X003923Y001754D02*
X004222Y001754D01*
X004071Y001903D02*
X004711Y001903D01*
X004711Y001921D02*
X004077Y001921D01*
X004077Y001940D02*
X004711Y001940D01*
X004711Y001958D02*
X004077Y001958D01*
X004077Y001977D02*
X004711Y001977D01*
X004711Y001996D02*
X004077Y001996D01*
X004077Y002014D02*
X004711Y002014D01*
X004711Y002033D02*
X004077Y002033D01*
X004082Y002051D02*
X004707Y002051D01*
X004688Y002070D02*
X004100Y002070D01*
X004166Y002088D02*
X004623Y002088D01*
X004604Y002107D02*
X004184Y002107D01*
X004202Y002125D02*
X004586Y002125D01*
X004567Y002144D02*
X004221Y002144D01*
X004239Y002162D02*
X004548Y002162D01*
X004530Y002181D02*
X004257Y002181D01*
X004275Y002200D02*
X004511Y002200D01*
X004493Y002218D02*
X004293Y002218D01*
X004311Y002237D02*
X004474Y002237D01*
X004456Y002255D02*
X004330Y002255D01*
X004348Y002274D02*
X004437Y002274D01*
X004432Y002279D02*
X004629Y002476D01*
X004676Y002476D01*
X004711Y002511D01*
X004711Y002767D01*
X004680Y002799D01*
X004227Y002799D01*
X004026Y003000D01*
X003959Y003000D01*
X003877Y002917D01*
X003877Y002846D01*
X004077Y002645D01*
X004077Y002515D01*
X004117Y002476D01*
X004160Y002476D01*
X004357Y002279D01*
X004432Y002279D01*
X004445Y002292D02*
X004344Y002292D01*
X004325Y002311D02*
X004464Y002311D01*
X004482Y002329D02*
X004307Y002329D01*
X004288Y002348D02*
X004501Y002348D01*
X004519Y002366D02*
X004270Y002366D01*
X004251Y002385D02*
X004538Y002385D01*
X004556Y002404D02*
X004233Y002404D01*
X004214Y002422D02*
X004575Y002422D01*
X004593Y002441D02*
X004195Y002441D01*
X004177Y002459D02*
X004612Y002459D01*
X004678Y002478D02*
X004115Y002478D01*
X004097Y002496D02*
X004696Y002496D01*
X004711Y002515D02*
X004078Y002515D01*
X004077Y002533D02*
X004711Y002533D01*
X004711Y002552D02*
X004077Y002552D01*
X004077Y002570D02*
X004711Y002570D01*
X004711Y002589D02*
X004077Y002589D01*
X004077Y002607D02*
X004711Y002607D01*
X004711Y002626D02*
X004077Y002626D01*
X004077Y002645D02*
X004711Y002645D01*
X004711Y002663D02*
X004060Y002663D01*
X004041Y002682D02*
X004711Y002682D01*
X004711Y002700D02*
X004022Y002700D01*
X004004Y002719D02*
X004711Y002719D01*
X004711Y002737D02*
X003985Y002737D01*
X003967Y002756D02*
X004711Y002756D01*
X004704Y002774D02*
X003948Y002774D01*
X003930Y002793D02*
X004686Y002793D01*
X004214Y002811D02*
X003911Y002811D01*
X003893Y002830D02*
X004196Y002830D01*
X004177Y002849D02*
X003877Y002849D01*
X003877Y002867D02*
X004159Y002867D01*
X004140Y002886D02*
X003877Y002886D01*
X003877Y002904D02*
X004122Y002904D01*
X004103Y002923D02*
X003883Y002923D01*
X003901Y002941D02*
X004085Y002941D01*
X004066Y002960D02*
X003920Y002960D01*
X003938Y002978D02*
X004047Y002978D01*
X004029Y002997D02*
X003957Y002997D01*
X003959Y003559D02*
X003877Y003641D01*
X003877Y003708D01*
X004077Y003909D01*
X004077Y004047D01*
X004113Y004082D01*
X004160Y004082D01*
X004353Y004279D01*
X004432Y004279D01*
X004629Y004082D01*
X004676Y004082D01*
X004711Y004047D01*
X004711Y003791D01*
X004680Y003759D01*
X004227Y003759D01*
X004026Y003559D01*
X003959Y003559D01*
X003946Y003572D02*
X004039Y003572D01*
X004058Y003590D02*
X003928Y003590D01*
X003909Y003609D02*
X004077Y003609D01*
X004095Y003627D02*
X003891Y003627D01*
X003877Y003646D02*
X004114Y003646D01*
X004132Y003664D02*
X003877Y003664D01*
X003877Y003683D02*
X004151Y003683D01*
X004169Y003702D02*
X003877Y003702D01*
X003889Y003720D02*
X004188Y003720D01*
X004206Y003739D02*
X003907Y003739D01*
X003926Y003757D02*
X004225Y003757D01*
X004074Y003906D02*
X004711Y003906D01*
X004711Y003924D02*
X004077Y003924D01*
X004077Y003943D02*
X004711Y003943D01*
X004711Y003961D02*
X004077Y003961D01*
X004077Y003980D02*
X004711Y003980D01*
X004711Y003998D02*
X004077Y003998D01*
X004077Y004017D02*
X004711Y004017D01*
X004711Y004035D02*
X004077Y004035D01*
X004085Y004054D02*
X004704Y004054D01*
X004686Y004072D02*
X004103Y004072D01*
X004169Y004091D02*
X004620Y004091D01*
X004601Y004109D02*
X004187Y004109D01*
X004205Y004128D02*
X004583Y004128D01*
X004564Y004147D02*
X004223Y004147D01*
X004241Y004165D02*
X004546Y004165D01*
X004527Y004184D02*
X004260Y004184D01*
X004278Y004202D02*
X004509Y004202D01*
X004490Y004221D02*
X004296Y004221D01*
X004314Y004239D02*
X004472Y004239D01*
X004453Y004258D02*
X004332Y004258D01*
X004350Y004276D02*
X004434Y004276D01*
X004432Y004279D02*
X004629Y004476D01*
X004676Y004476D01*
X004711Y004511D01*
X004711Y004767D01*
X004680Y004799D01*
X004227Y004799D01*
X004026Y005000D01*
X003959Y005000D01*
X003877Y004917D01*
X003877Y004846D01*
X004077Y004645D01*
X004077Y004515D01*
X004117Y004476D01*
X004160Y004476D01*
X004357Y004279D01*
X004432Y004279D01*
X004448Y004295D02*
X004341Y004295D01*
X004323Y004313D02*
X004466Y004313D01*
X004485Y004332D02*
X004304Y004332D01*
X004286Y004351D02*
X004503Y004351D01*
X004522Y004369D02*
X004267Y004369D01*
X004248Y004388D02*
X004540Y004388D01*
X004559Y004406D02*
X004230Y004406D01*
X004211Y004425D02*
X004577Y004425D01*
X004596Y004443D02*
X004193Y004443D01*
X004174Y004462D02*
X004615Y004462D01*
X004680Y004480D02*
X004112Y004480D01*
X004094Y004499D02*
X004699Y004499D01*
X004711Y004517D02*
X004077Y004517D01*
X004077Y004536D02*
X004711Y004536D01*
X004711Y004555D02*
X004077Y004555D01*
X004077Y004573D02*
X004711Y004573D01*
X004711Y004592D02*
X004077Y004592D01*
X004077Y004610D02*
X004711Y004610D01*
X004711Y004629D02*
X004077Y004629D01*
X004075Y004647D02*
X004711Y004647D01*
X004711Y004666D02*
X004057Y004666D01*
X004038Y004684D02*
X004711Y004684D01*
X004711Y004703D02*
X004020Y004703D01*
X004001Y004721D02*
X004711Y004721D01*
X004711Y004740D02*
X003983Y004740D01*
X003964Y004759D02*
X004711Y004759D01*
X004702Y004777D02*
X003946Y004777D01*
X003927Y004796D02*
X004683Y004796D01*
X004212Y004814D02*
X003909Y004814D01*
X003890Y004833D02*
X004193Y004833D01*
X004175Y004851D02*
X003877Y004851D01*
X003877Y004870D02*
X004156Y004870D01*
X004138Y004888D02*
X003877Y004888D01*
X003877Y004907D02*
X004119Y004907D01*
X004100Y004925D02*
X003885Y004925D01*
X003904Y004944D02*
X004082Y004944D01*
X004063Y004962D02*
X003922Y004962D01*
X003941Y004981D02*
X004045Y004981D01*
X004026Y005559D02*
X003959Y005559D01*
X003877Y005641D01*
X003877Y005708D01*
X004077Y005909D01*
X004077Y006047D01*
X004113Y006082D01*
X004160Y006082D01*
X004353Y006279D01*
X004432Y006279D01*
X004629Y006082D01*
X004676Y006082D01*
X004711Y006047D01*
X004711Y005791D01*
X004680Y005759D01*
X004227Y005759D01*
X004026Y005559D01*
X004042Y005574D02*
X003944Y005574D01*
X003925Y005593D02*
X004061Y005593D01*
X004079Y005611D02*
X003906Y005611D01*
X003888Y005630D02*
X004098Y005630D01*
X004116Y005649D02*
X003877Y005649D01*
X003877Y005667D02*
X004135Y005667D01*
X004153Y005686D02*
X003877Y005686D01*
X003877Y005704D02*
X004172Y005704D01*
X004190Y005723D02*
X003891Y005723D01*
X003910Y005741D02*
X004209Y005741D01*
X004058Y005890D02*
X004711Y005890D01*
X004711Y005908D02*
X004077Y005908D01*
X004077Y005927D02*
X004711Y005927D01*
X004711Y005945D02*
X004077Y005945D01*
X004077Y005964D02*
X004711Y005964D01*
X004711Y005982D02*
X004077Y005982D01*
X004077Y006001D02*
X004711Y006001D01*
X004711Y006019D02*
X004077Y006019D01*
X004077Y006038D02*
X004711Y006038D01*
X004702Y006057D02*
X004087Y006057D01*
X004106Y006075D02*
X004683Y006075D01*
X004617Y006094D02*
X004171Y006094D01*
X004189Y006112D02*
X004599Y006112D01*
X004580Y006131D02*
X004208Y006131D01*
X004226Y006149D02*
X004562Y006149D01*
X004543Y006168D02*
X004244Y006168D01*
X004262Y006186D02*
X004525Y006186D01*
X004506Y006205D02*
X004280Y006205D01*
X004299Y006223D02*
X004487Y006223D01*
X004469Y006242D02*
X004317Y006242D01*
X004335Y006261D02*
X004450Y006261D01*
X004432Y006279D02*
X004357Y006279D01*
X004432Y006279D01*
X004629Y006476D01*
X004676Y006476D01*
X004711Y006511D01*
X004711Y006767D01*
X004680Y006799D01*
X004227Y006799D01*
X004026Y007000D01*
X003959Y007000D01*
X003877Y006917D01*
X003877Y006846D01*
X004077Y006645D01*
X004077Y006515D01*
X004117Y006476D01*
X004160Y006476D01*
X004357Y006279D01*
X004338Y006298D02*
X004450Y006298D01*
X004469Y006316D02*
X004320Y006316D01*
X004301Y006335D02*
X004487Y006335D01*
X004506Y006353D02*
X004283Y006353D01*
X004264Y006372D02*
X004525Y006372D01*
X004543Y006390D02*
X004246Y006390D01*
X004227Y006409D02*
X004562Y006409D01*
X004580Y006427D02*
X004209Y006427D01*
X004190Y006446D02*
X004599Y006446D01*
X004617Y006464D02*
X004172Y006464D01*
X004110Y006483D02*
X004683Y006483D01*
X004702Y006502D02*
X004091Y006502D01*
X004077Y006520D02*
X004711Y006520D01*
X004711Y006539D02*
X004077Y006539D01*
X004077Y006557D02*
X004711Y006557D01*
X004711Y006576D02*
X004077Y006576D01*
X004077Y006594D02*
X004711Y006594D01*
X004711Y006613D02*
X004077Y006613D01*
X004077Y006631D02*
X004711Y006631D01*
X004711Y006650D02*
X004073Y006650D01*
X004054Y006668D02*
X004711Y006668D01*
X004711Y006687D02*
X004036Y006687D01*
X004017Y006706D02*
X004711Y006706D01*
X004711Y006724D02*
X003999Y006724D01*
X003980Y006743D02*
X004711Y006743D01*
X004711Y006761D02*
X003961Y006761D01*
X003943Y006780D02*
X004699Y006780D01*
X004680Y006798D02*
X003924Y006798D01*
X003906Y006817D02*
X004209Y006817D01*
X004190Y006835D02*
X003887Y006835D01*
X003877Y006854D02*
X004172Y006854D01*
X004153Y006872D02*
X003877Y006872D01*
X003877Y006891D02*
X004135Y006891D01*
X004116Y006910D02*
X003877Y006910D01*
X003888Y006928D02*
X004098Y006928D01*
X004079Y006947D02*
X003906Y006947D01*
X003925Y006965D02*
X004061Y006965D01*
X004042Y006984D02*
X003944Y006984D01*
X003959Y007559D02*
X003877Y007641D01*
X003877Y007708D01*
X004077Y007909D01*
X004077Y008047D01*
X004113Y008082D01*
X004160Y008082D01*
X004353Y008279D01*
X004432Y008279D01*
X004629Y008082D01*
X004676Y008082D01*
X004711Y008047D01*
X004711Y007791D01*
X004680Y007759D01*
X004227Y007759D01*
X004026Y007559D01*
X003959Y007559D01*
X003941Y007577D02*
X004045Y007577D01*
X004063Y007596D02*
X003922Y007596D01*
X003904Y007614D02*
X004082Y007614D01*
X004100Y007633D02*
X003885Y007633D01*
X003877Y007651D02*
X004119Y007651D01*
X004138Y007670D02*
X003877Y007670D01*
X003877Y007688D02*
X004156Y007688D01*
X004175Y007707D02*
X003877Y007707D01*
X003894Y007725D02*
X004193Y007725D01*
X004212Y007744D02*
X003912Y007744D01*
X003931Y007763D02*
X004683Y007763D01*
X004702Y007781D02*
X003950Y007781D01*
X003968Y007800D02*
X004711Y007800D01*
X004711Y007818D02*
X003987Y007818D01*
X004005Y007837D02*
X004711Y007837D01*
X004711Y007855D02*
X004024Y007855D01*
X004042Y007874D02*
X004711Y007874D01*
X004711Y007892D02*
X004061Y007892D01*
X004077Y007911D02*
X004711Y007911D01*
X004711Y007929D02*
X004077Y007929D01*
X004077Y007948D02*
X004711Y007948D01*
X004711Y007966D02*
X004077Y007966D01*
X004077Y007985D02*
X004711Y007985D01*
X004711Y008004D02*
X004077Y008004D01*
X004077Y008022D02*
X004711Y008022D01*
X004711Y008041D02*
X004077Y008041D01*
X004090Y008059D02*
X004699Y008059D01*
X004680Y008078D02*
X004108Y008078D01*
X004174Y008096D02*
X004615Y008096D01*
X004596Y008115D02*
X004192Y008115D01*
X004210Y008133D02*
X004577Y008133D01*
X004559Y008152D02*
X004228Y008152D01*
X004247Y008170D02*
X004540Y008170D01*
X004522Y008189D02*
X004265Y008189D01*
X004283Y008208D02*
X004503Y008208D01*
X004485Y008226D02*
X004301Y008226D01*
X004319Y008245D02*
X004466Y008245D01*
X004448Y008263D02*
X004338Y008263D01*
X004354Y008282D02*
X004434Y008282D01*
X004432Y008279D02*
X004629Y008476D01*
X004676Y008476D01*
X004711Y008511D01*
X004711Y008767D01*
X004680Y008799D01*
X004227Y008799D01*
X004026Y009000D01*
X003959Y009000D01*
X003877Y008917D01*
X003877Y008846D01*
X004077Y008645D01*
X004077Y008515D01*
X004117Y008476D01*
X004160Y008476D01*
X004357Y008279D01*
X004432Y008279D01*
X004453Y008300D02*
X004336Y008300D01*
X004317Y008319D02*
X004472Y008319D01*
X004490Y008337D02*
X004299Y008337D01*
X004280Y008356D02*
X004509Y008356D01*
X004527Y008374D02*
X004262Y008374D01*
X004243Y008393D02*
X004546Y008393D01*
X004564Y008412D02*
X004225Y008412D01*
X004206Y008430D02*
X004583Y008430D01*
X004601Y008449D02*
X004187Y008449D01*
X004169Y008467D02*
X004620Y008467D01*
X004686Y008486D02*
X004107Y008486D01*
X004089Y008504D02*
X004704Y008504D01*
X004711Y008523D02*
X004077Y008523D01*
X004077Y008541D02*
X004711Y008541D01*
X004711Y008560D02*
X004077Y008560D01*
X004077Y008578D02*
X004711Y008578D01*
X004711Y008597D02*
X004077Y008597D01*
X004077Y008616D02*
X004711Y008616D01*
X004711Y008634D02*
X004077Y008634D01*
X004070Y008653D02*
X004711Y008653D01*
X004711Y008671D02*
X004052Y008671D01*
X004033Y008690D02*
X004711Y008690D01*
X004711Y008708D02*
X004014Y008708D01*
X003996Y008727D02*
X004711Y008727D01*
X004711Y008745D02*
X003977Y008745D01*
X003959Y008764D02*
X004711Y008764D01*
X004696Y008782D02*
X003940Y008782D01*
X003922Y008801D02*
X004225Y008801D01*
X004206Y008819D02*
X003903Y008819D01*
X003885Y008838D02*
X004188Y008838D01*
X004169Y008857D02*
X003877Y008857D01*
X003877Y008875D02*
X004151Y008875D01*
X004132Y008894D02*
X003877Y008894D01*
X003877Y008912D02*
X004114Y008912D01*
X004095Y008931D02*
X003891Y008931D01*
X003909Y008949D02*
X004077Y008949D01*
X004058Y008968D02*
X003928Y008968D01*
X003946Y008986D02*
X004039Y008986D01*
X004026Y009559D02*
X003959Y009559D01*
X003877Y009641D01*
X003877Y009708D01*
X004077Y009909D01*
X004077Y010047D01*
X004113Y010082D01*
X004160Y010082D01*
X004353Y010279D01*
X004432Y010279D01*
X004629Y010082D01*
X004676Y010082D01*
X004711Y010047D01*
X004711Y009791D01*
X004680Y009759D01*
X004227Y009759D01*
X004026Y009559D01*
X004029Y009561D02*
X003957Y009561D01*
X003938Y009580D02*
X004047Y009580D01*
X004066Y009598D02*
X003920Y009598D01*
X003901Y009617D02*
X004085Y009617D01*
X004103Y009635D02*
X003883Y009635D01*
X003877Y009654D02*
X004122Y009654D01*
X004140Y009672D02*
X003877Y009672D01*
X003877Y009691D02*
X004159Y009691D01*
X004177Y009710D02*
X003878Y009710D01*
X003897Y009728D02*
X004196Y009728D01*
X004214Y009747D02*
X003915Y009747D01*
X003934Y009765D02*
X004686Y009765D01*
X004704Y009784D02*
X003952Y009784D01*
X003971Y009802D02*
X004711Y009802D01*
X004711Y009821D02*
X003989Y009821D01*
X004008Y009839D02*
X004711Y009839D01*
X004711Y009858D02*
X004026Y009858D01*
X004045Y009876D02*
X004711Y009876D01*
X004711Y009895D02*
X004064Y009895D01*
X004077Y009914D02*
X004711Y009914D01*
X004711Y009932D02*
X004077Y009932D01*
X004077Y009951D02*
X004711Y009951D01*
X004711Y009969D02*
X004077Y009969D01*
X004077Y009988D02*
X004711Y009988D01*
X004711Y010006D02*
X004077Y010006D01*
X004077Y010025D02*
X004711Y010025D01*
X004711Y010043D02*
X004077Y010043D01*
X004093Y010062D02*
X004696Y010062D01*
X004678Y010080D02*
X004111Y010080D01*
X004177Y010099D02*
X004612Y010099D01*
X004593Y010118D02*
X004195Y010118D01*
X004213Y010136D02*
X004575Y010136D01*
X004556Y010155D02*
X004231Y010155D01*
X004249Y010173D02*
X004538Y010173D01*
X004519Y010192D02*
X004267Y010192D01*
X004286Y010210D02*
X004501Y010210D01*
X004482Y010229D02*
X004304Y010229D01*
X004322Y010247D02*
X004464Y010247D01*
X004445Y010266D02*
X004340Y010266D01*
X004357Y010279D02*
X004432Y010279D01*
X004629Y010476D01*
X004676Y010476D01*
X004711Y010511D01*
X004711Y010767D01*
X004680Y010799D01*
X004227Y010799D01*
X004026Y011000D01*
X003959Y011000D01*
X003877Y010917D01*
X003877Y010846D01*
X004077Y010645D01*
X004077Y010515D01*
X004117Y010476D01*
X004160Y010476D01*
X004357Y010279D01*
X004352Y010284D02*
X004437Y010284D01*
X004456Y010303D02*
X004333Y010303D01*
X004315Y010321D02*
X004474Y010321D01*
X004493Y010340D02*
X004296Y010340D01*
X004277Y010359D02*
X004511Y010359D01*
X004530Y010377D02*
X004259Y010377D01*
X004240Y010396D02*
X004548Y010396D01*
X004567Y010414D02*
X004222Y010414D01*
X004203Y010433D02*
X004586Y010433D01*
X004604Y010451D02*
X004185Y010451D01*
X004166Y010470D02*
X004623Y010470D01*
X004688Y010488D02*
X004104Y010488D01*
X004086Y010507D02*
X004707Y010507D01*
X004711Y010525D02*
X004077Y010525D01*
X004077Y010544D02*
X004711Y010544D01*
X004711Y010563D02*
X004077Y010563D01*
X004077Y010581D02*
X004711Y010581D01*
X004711Y010600D02*
X004077Y010600D01*
X004077Y010618D02*
X004711Y010618D01*
X004711Y010637D02*
X004077Y010637D01*
X004067Y010655D02*
X004711Y010655D01*
X004711Y010674D02*
X004049Y010674D01*
X004030Y010692D02*
X004711Y010692D01*
X004711Y010711D02*
X004012Y010711D01*
X003993Y010729D02*
X004711Y010729D01*
X004711Y010748D02*
X003975Y010748D01*
X003956Y010767D02*
X004711Y010767D01*
X004694Y010785D02*
X003938Y010785D01*
X003919Y010804D02*
X004222Y010804D01*
X004204Y010822D02*
X003901Y010822D01*
X003882Y010841D02*
X004185Y010841D01*
X004167Y010859D02*
X003877Y010859D01*
X003877Y010878D02*
X004148Y010878D01*
X004129Y010896D02*
X003877Y010896D01*
X003877Y010915D02*
X004111Y010915D01*
X004092Y010933D02*
X003893Y010933D01*
X003912Y010952D02*
X004074Y010952D01*
X004055Y010971D02*
X003930Y010971D01*
X003949Y010989D02*
X004037Y010989D01*
X005483Y010767D02*
X005483Y010421D01*
X005514Y010389D01*
X005652Y010389D01*
X005684Y010421D01*
X005684Y010649D01*
X005861Y010826D01*
X005861Y010874D01*
X005759Y010976D01*
X005711Y010976D01*
X005534Y010799D01*
X005514Y010799D01*
X005483Y010767D01*
X005801Y010767D01*
X005820Y010785D02*
X005501Y010785D01*
X005483Y010748D02*
X005783Y010748D01*
X005764Y010729D02*
X005483Y010729D01*
X005483Y010711D02*
X005746Y010711D01*
X005727Y010692D02*
X005483Y010692D01*
X005483Y010674D02*
X005708Y010674D01*
X005690Y010655D02*
X005483Y010655D01*
X005483Y010637D02*
X005684Y010637D01*
X005684Y010618D02*
X005483Y010618D01*
X005483Y010600D02*
X005684Y010600D01*
X005684Y010581D02*
X005483Y010581D01*
X005483Y010563D02*
X005684Y010563D01*
X005684Y010544D02*
X005483Y010544D01*
X005483Y010525D02*
X005684Y010525D01*
X005684Y010507D02*
X005483Y010507D01*
X005483Y010488D02*
X005684Y010488D01*
X005684Y010470D02*
X005483Y010470D01*
X005483Y010451D02*
X005684Y010451D01*
X005684Y010433D02*
X005483Y010433D01*
X005490Y010414D02*
X005677Y010414D01*
X005659Y010396D02*
X005508Y010396D01*
X005514Y010169D02*
X005652Y010169D01*
X005684Y010137D01*
X005684Y009909D01*
X005861Y009732D01*
X005861Y009685D01*
X005759Y009582D01*
X005711Y009582D01*
X005534Y009759D01*
X005514Y009759D01*
X005483Y009791D01*
X005483Y010137D01*
X005514Y010169D01*
X005500Y010155D02*
X005666Y010155D01*
X005684Y010136D02*
X005483Y010136D01*
X005483Y010118D02*
X005684Y010118D01*
X005684Y010099D02*
X005483Y010099D01*
X005483Y010080D02*
X005684Y010080D01*
X005684Y010062D02*
X005483Y010062D01*
X005483Y010043D02*
X005684Y010043D01*
X005684Y010025D02*
X005483Y010025D01*
X005483Y010006D02*
X005684Y010006D01*
X005684Y009988D02*
X005483Y009988D01*
X005483Y009969D02*
X005684Y009969D01*
X005684Y009951D02*
X005483Y009951D01*
X005483Y009932D02*
X005684Y009932D01*
X005684Y009914D02*
X005483Y009914D01*
X005483Y009895D02*
X005698Y009895D01*
X005716Y009876D02*
X005483Y009876D01*
X005483Y009858D02*
X005735Y009858D01*
X005753Y009839D02*
X005483Y009839D01*
X005483Y009821D02*
X005772Y009821D01*
X005790Y009802D02*
X005483Y009802D01*
X005490Y009784D02*
X005809Y009784D01*
X005828Y009765D02*
X005509Y009765D01*
X005547Y009747D02*
X005846Y009747D01*
X005861Y009728D02*
X005565Y009728D01*
X005584Y009710D02*
X005861Y009710D01*
X005861Y009691D02*
X005603Y009691D01*
X005621Y009672D02*
X005849Y009672D01*
X005830Y009654D02*
X005640Y009654D01*
X005658Y009635D02*
X005812Y009635D01*
X005793Y009617D02*
X005677Y009617D01*
X005695Y009598D02*
X005775Y009598D01*
X005759Y008976D02*
X005711Y008976D01*
X005534Y008799D01*
X005514Y008799D01*
X005483Y008767D01*
X005483Y008421D01*
X005514Y008389D01*
X005652Y008389D01*
X005684Y008421D01*
X005684Y008649D01*
X005861Y008826D01*
X005861Y008874D01*
X005759Y008976D01*
X005767Y008968D02*
X005703Y008968D01*
X005685Y008949D02*
X005785Y008949D01*
X005804Y008931D02*
X005666Y008931D01*
X005648Y008912D02*
X005822Y008912D01*
X005841Y008894D02*
X005629Y008894D01*
X005611Y008875D02*
X005859Y008875D01*
X005861Y008857D02*
X005592Y008857D01*
X005573Y008838D02*
X005861Y008838D01*
X005854Y008819D02*
X005555Y008819D01*
X005536Y008801D02*
X005836Y008801D01*
X005817Y008782D02*
X005498Y008782D01*
X005483Y008764D02*
X005799Y008764D01*
X005780Y008745D02*
X005483Y008745D01*
X005483Y008727D02*
X005761Y008727D01*
X005743Y008708D02*
X005483Y008708D01*
X005483Y008690D02*
X005724Y008690D01*
X005706Y008671D02*
X005483Y008671D01*
X005483Y008653D02*
X005687Y008653D01*
X005684Y008634D02*
X005483Y008634D01*
X005483Y008616D02*
X005684Y008616D01*
X005684Y008597D02*
X005483Y008597D01*
X005483Y008578D02*
X005684Y008578D01*
X005684Y008560D02*
X005483Y008560D01*
X005483Y008541D02*
X005684Y008541D01*
X005684Y008523D02*
X005483Y008523D01*
X005483Y008504D02*
X005684Y008504D01*
X005684Y008486D02*
X005483Y008486D01*
X005483Y008467D02*
X005684Y008467D01*
X005684Y008449D02*
X005483Y008449D01*
X005483Y008430D02*
X005684Y008430D01*
X005675Y008412D02*
X005492Y008412D01*
X005511Y008393D02*
X005656Y008393D01*
X005652Y008169D02*
X005514Y008169D01*
X005483Y008137D01*
X005483Y007791D01*
X005514Y007759D01*
X005534Y007759D01*
X005711Y007582D01*
X005759Y007582D01*
X005861Y007685D01*
X005861Y007732D01*
X005684Y007909D01*
X005684Y008137D01*
X005652Y008169D01*
X005669Y008152D02*
X005498Y008152D01*
X005483Y008133D02*
X005684Y008133D01*
X005684Y008115D02*
X005483Y008115D01*
X005483Y008096D02*
X005684Y008096D01*
X005684Y008078D02*
X005483Y008078D01*
X005483Y008059D02*
X005684Y008059D01*
X005684Y008041D02*
X005483Y008041D01*
X005483Y008022D02*
X005684Y008022D01*
X005684Y008004D02*
X005483Y008004D01*
X005483Y007985D02*
X005684Y007985D01*
X005684Y007966D02*
X005483Y007966D01*
X005483Y007948D02*
X005684Y007948D01*
X005684Y007929D02*
X005483Y007929D01*
X005483Y007911D02*
X005684Y007911D01*
X005700Y007892D02*
X005483Y007892D01*
X005483Y007874D02*
X005719Y007874D01*
X005738Y007855D02*
X005483Y007855D01*
X005483Y007837D02*
X005756Y007837D01*
X005775Y007818D02*
X005483Y007818D01*
X005483Y007800D02*
X005793Y007800D01*
X005812Y007781D02*
X005493Y007781D01*
X005511Y007763D02*
X005830Y007763D01*
X005849Y007744D02*
X005550Y007744D01*
X005568Y007725D02*
X005861Y007725D01*
X005861Y007707D02*
X005587Y007707D01*
X005605Y007688D02*
X005861Y007688D01*
X005846Y007670D02*
X005624Y007670D01*
X005642Y007651D02*
X005828Y007651D01*
X005809Y007633D02*
X005661Y007633D01*
X005679Y007614D02*
X005791Y007614D01*
X005772Y007596D02*
X005698Y007596D01*
X005711Y006976D02*
X005534Y006799D01*
X005514Y006799D01*
X005483Y006767D01*
X005483Y006421D01*
X005514Y006389D01*
X005652Y006389D01*
X005684Y006421D01*
X005684Y006649D01*
X005861Y006826D01*
X005861Y006874D01*
X005759Y006976D01*
X005711Y006976D01*
X005701Y006965D02*
X005769Y006965D01*
X005788Y006947D02*
X005682Y006947D01*
X005664Y006928D02*
X005806Y006928D01*
X005825Y006910D02*
X005645Y006910D01*
X005626Y006891D02*
X005844Y006891D01*
X005861Y006872D02*
X005608Y006872D01*
X005589Y006854D02*
X005861Y006854D01*
X005861Y006835D02*
X005571Y006835D01*
X005552Y006817D02*
X005851Y006817D01*
X005833Y006798D02*
X005514Y006798D01*
X005495Y006780D02*
X005814Y006780D01*
X005796Y006761D02*
X005483Y006761D01*
X005483Y006743D02*
X005777Y006743D01*
X005759Y006724D02*
X005483Y006724D01*
X005483Y006706D02*
X005740Y006706D01*
X005722Y006687D02*
X005483Y006687D01*
X005483Y006668D02*
X005703Y006668D01*
X005685Y006650D02*
X005483Y006650D01*
X005483Y006631D02*
X005684Y006631D01*
X005684Y006613D02*
X005483Y006613D01*
X005483Y006594D02*
X005684Y006594D01*
X005684Y006576D02*
X005483Y006576D01*
X005483Y006557D02*
X005684Y006557D01*
X005684Y006539D02*
X005483Y006539D01*
X005483Y006520D02*
X005684Y006520D01*
X005684Y006502D02*
X005483Y006502D01*
X005483Y006483D02*
X005684Y006483D01*
X005684Y006464D02*
X005483Y006464D01*
X005483Y006446D02*
X005684Y006446D01*
X005684Y006427D02*
X005483Y006427D01*
X005495Y006409D02*
X005672Y006409D01*
X005653Y006390D02*
X005513Y006390D01*
X005514Y006169D02*
X005652Y006169D01*
X005684Y006137D01*
X005684Y005909D01*
X005861Y005732D01*
X005861Y005685D01*
X005759Y005582D01*
X005711Y005582D01*
X005534Y005759D01*
X005514Y005759D01*
X005483Y005791D01*
X005483Y006137D01*
X005514Y006169D01*
X005513Y006168D02*
X005653Y006168D01*
X005672Y006149D02*
X005495Y006149D01*
X005483Y006131D02*
X005684Y006131D01*
X005684Y006112D02*
X005483Y006112D01*
X005483Y006094D02*
X005684Y006094D01*
X005684Y006075D02*
X005483Y006075D01*
X005483Y006057D02*
X005684Y006057D01*
X005684Y006038D02*
X005483Y006038D01*
X005483Y006019D02*
X005684Y006019D01*
X005684Y006001D02*
X005483Y006001D01*
X005483Y005982D02*
X005684Y005982D01*
X005684Y005964D02*
X005483Y005964D01*
X005483Y005945D02*
X005684Y005945D01*
X005684Y005927D02*
X005483Y005927D01*
X005483Y005908D02*
X005685Y005908D01*
X005703Y005890D02*
X005483Y005890D01*
X005483Y005871D02*
X005722Y005871D01*
X005740Y005853D02*
X005483Y005853D01*
X005483Y005834D02*
X005759Y005834D01*
X005777Y005815D02*
X005483Y005815D01*
X005483Y005797D02*
X005796Y005797D01*
X005814Y005778D02*
X005495Y005778D01*
X005514Y005760D02*
X005833Y005760D01*
X005851Y005741D02*
X005552Y005741D01*
X005571Y005723D02*
X005861Y005723D01*
X005861Y005704D02*
X005589Y005704D01*
X005608Y005686D02*
X005861Y005686D01*
X005844Y005667D02*
X005626Y005667D01*
X005645Y005649D02*
X005825Y005649D01*
X005806Y005630D02*
X005664Y005630D01*
X005682Y005611D02*
X005788Y005611D01*
X005769Y005593D02*
X005701Y005593D01*
X005711Y004976D02*
X005534Y004799D01*
X005514Y004799D01*
X005483Y004767D01*
X005483Y004421D01*
X005514Y004389D01*
X005652Y004389D01*
X005684Y004421D01*
X005684Y004649D01*
X005861Y004826D01*
X005861Y004874D01*
X005759Y004976D01*
X005711Y004976D01*
X005698Y004962D02*
X005772Y004962D01*
X005791Y004944D02*
X005679Y004944D01*
X005661Y004925D02*
X005809Y004925D01*
X005828Y004907D02*
X005642Y004907D01*
X005624Y004888D02*
X005846Y004888D01*
X005861Y004870D02*
X005605Y004870D01*
X005587Y004851D02*
X005861Y004851D01*
X005861Y004833D02*
X005568Y004833D01*
X005550Y004814D02*
X005849Y004814D01*
X005830Y004796D02*
X005511Y004796D01*
X005493Y004777D02*
X005812Y004777D01*
X005793Y004759D02*
X005483Y004759D01*
X005483Y004740D02*
X005775Y004740D01*
X005756Y004721D02*
X005483Y004721D01*
X005483Y004703D02*
X005738Y004703D01*
X005719Y004684D02*
X005483Y004684D01*
X005483Y004666D02*
X005700Y004666D01*
X005684Y004647D02*
X005483Y004647D01*
X005483Y004629D02*
X005684Y004629D01*
X005684Y004610D02*
X005483Y004610D01*
X005483Y004592D02*
X005684Y004592D01*
X005684Y004573D02*
X005483Y004573D01*
X005483Y004555D02*
X005684Y004555D01*
X005684Y004536D02*
X005483Y004536D01*
X005483Y004517D02*
X005684Y004517D01*
X005684Y004499D02*
X005483Y004499D01*
X005483Y004480D02*
X005684Y004480D01*
X005684Y004462D02*
X005483Y004462D01*
X005483Y004443D02*
X005684Y004443D01*
X005684Y004425D02*
X005483Y004425D01*
X005498Y004406D02*
X005669Y004406D01*
X005652Y004169D02*
X005514Y004169D01*
X005483Y004137D01*
X005483Y003791D01*
X005514Y003759D01*
X005534Y003759D01*
X005711Y003582D01*
X005759Y003582D01*
X005861Y003685D01*
X005861Y003732D01*
X005684Y003909D01*
X005684Y004137D01*
X005652Y004169D01*
X005656Y004165D02*
X005511Y004165D01*
X005492Y004147D02*
X005675Y004147D01*
X005684Y004128D02*
X005483Y004128D01*
X005483Y004109D02*
X005684Y004109D01*
X005684Y004091D02*
X005483Y004091D01*
X005483Y004072D02*
X005684Y004072D01*
X005684Y004054D02*
X005483Y004054D01*
X005483Y004035D02*
X005684Y004035D01*
X005684Y004017D02*
X005483Y004017D01*
X005483Y003998D02*
X005684Y003998D01*
X005684Y003980D02*
X005483Y003980D01*
X005483Y003961D02*
X005684Y003961D01*
X005684Y003943D02*
X005483Y003943D01*
X005483Y003924D02*
X005684Y003924D01*
X005687Y003906D02*
X005483Y003906D01*
X005483Y003887D02*
X005706Y003887D01*
X005724Y003868D02*
X005483Y003868D01*
X005483Y003850D02*
X005743Y003850D01*
X005761Y003831D02*
X005483Y003831D01*
X005483Y003813D02*
X005780Y003813D01*
X005799Y003794D02*
X005483Y003794D01*
X005498Y003776D02*
X005817Y003776D01*
X005836Y003757D02*
X005536Y003757D01*
X005555Y003739D02*
X005854Y003739D01*
X005861Y003720D02*
X005573Y003720D01*
X005592Y003702D02*
X005861Y003702D01*
X005859Y003683D02*
X005611Y003683D01*
X005629Y003664D02*
X005841Y003664D01*
X005822Y003646D02*
X005648Y003646D01*
X005666Y003627D02*
X005804Y003627D01*
X005785Y003609D02*
X005685Y003609D01*
X005703Y003590D02*
X005767Y003590D01*
X005759Y002976D02*
X005711Y002976D01*
X005534Y002799D01*
X005514Y002799D01*
X005483Y002767D01*
X005483Y002421D01*
X005514Y002389D01*
X005652Y002389D01*
X005684Y002421D01*
X005684Y002649D01*
X005861Y002826D01*
X005861Y002874D01*
X005759Y002976D01*
X005775Y002960D02*
X005695Y002960D01*
X005677Y002941D02*
X005793Y002941D01*
X005812Y002923D02*
X005658Y002923D01*
X005640Y002904D02*
X005830Y002904D01*
X005849Y002886D02*
X005621Y002886D01*
X005603Y002867D02*
X005861Y002867D01*
X005861Y002849D02*
X005584Y002849D01*
X005565Y002830D02*
X005861Y002830D01*
X005846Y002811D02*
X005547Y002811D01*
X005509Y002793D02*
X005828Y002793D01*
X005809Y002774D02*
X005490Y002774D01*
X005483Y002756D02*
X005790Y002756D01*
X005772Y002737D02*
X005483Y002737D01*
X005483Y002719D02*
X005753Y002719D01*
X005735Y002700D02*
X005483Y002700D01*
X005483Y002682D02*
X005716Y002682D01*
X005698Y002663D02*
X005483Y002663D01*
X005483Y002645D02*
X005684Y002645D01*
X005684Y002626D02*
X005483Y002626D01*
X005483Y002607D02*
X005684Y002607D01*
X005684Y002589D02*
X005483Y002589D01*
X005483Y002570D02*
X005684Y002570D01*
X005684Y002552D02*
X005483Y002552D01*
X005483Y002533D02*
X005684Y002533D01*
X005684Y002515D02*
X005483Y002515D01*
X005483Y002496D02*
X005684Y002496D01*
X005684Y002478D02*
X005483Y002478D01*
X005483Y002459D02*
X005684Y002459D01*
X005684Y002441D02*
X005483Y002441D01*
X005483Y002422D02*
X005684Y002422D01*
X005666Y002404D02*
X005500Y002404D01*
X005514Y002169D02*
X005652Y002169D01*
X005684Y002137D01*
X005684Y001909D01*
X005861Y001732D01*
X005861Y001685D01*
X005759Y001582D01*
X005711Y001582D01*
X005534Y001759D01*
X005514Y001759D01*
X005483Y001791D01*
X005483Y002137D01*
X005514Y002169D01*
X005508Y002162D02*
X005659Y002162D01*
X005677Y002144D02*
X005490Y002144D01*
X005483Y002125D02*
X005684Y002125D01*
X005684Y002107D02*
X005483Y002107D01*
X005483Y002088D02*
X005684Y002088D01*
X005684Y002070D02*
X005483Y002070D01*
X005483Y002051D02*
X005684Y002051D01*
X005684Y002033D02*
X005483Y002033D01*
X005483Y002014D02*
X005684Y002014D01*
X005684Y001996D02*
X005483Y001996D01*
X005483Y001977D02*
X005684Y001977D01*
X005684Y001958D02*
X005483Y001958D01*
X005483Y001940D02*
X005684Y001940D01*
X005684Y001921D02*
X005483Y001921D01*
X005483Y001903D02*
X005690Y001903D01*
X005708Y001884D02*
X005483Y001884D01*
X005483Y001866D02*
X005727Y001866D01*
X005746Y001847D02*
X005483Y001847D01*
X005483Y001829D02*
X005764Y001829D01*
X005783Y001810D02*
X005483Y001810D01*
X005483Y001792D02*
X005801Y001792D01*
X005820Y001773D02*
X005501Y001773D01*
X005539Y001754D02*
X005838Y001754D01*
X005857Y001736D02*
X005558Y001736D01*
X005576Y001717D02*
X005861Y001717D01*
X005861Y001699D02*
X005595Y001699D01*
X005613Y001680D02*
X005857Y001680D01*
X005838Y001662D02*
X005632Y001662D01*
X005650Y001643D02*
X005820Y001643D01*
X005801Y001625D02*
X005669Y001625D01*
X005687Y001606D02*
X005783Y001606D01*
X005764Y001588D02*
X005706Y001588D01*
X004711Y001792D02*
X003960Y001792D01*
X003979Y001810D02*
X004711Y001810D01*
X004711Y001829D02*
X003997Y001829D01*
X004016Y001847D02*
X004711Y001847D01*
X004711Y001866D02*
X004034Y001866D01*
X004053Y001884D02*
X004711Y001884D01*
X004694Y001773D02*
X003942Y001773D01*
X003944Y003776D02*
X004696Y003776D01*
X004711Y003794D02*
X003963Y003794D01*
X003981Y003813D02*
X004711Y003813D01*
X004711Y003831D02*
X004000Y003831D01*
X004018Y003850D02*
X004711Y003850D01*
X004711Y003868D02*
X004037Y003868D01*
X004055Y003887D02*
X004711Y003887D01*
X004680Y005760D02*
X003928Y005760D01*
X003947Y005778D02*
X004699Y005778D01*
X004711Y005797D02*
X003965Y005797D01*
X003984Y005815D02*
X004711Y005815D01*
X004711Y005834D02*
X004003Y005834D01*
X004021Y005853D02*
X004711Y005853D01*
X004711Y005871D02*
X004040Y005871D01*
X005539Y010804D02*
X005838Y010804D01*
X005857Y010822D02*
X005558Y010822D01*
X005576Y010841D02*
X005861Y010841D01*
X005861Y010859D02*
X005595Y010859D01*
X005613Y010878D02*
X005857Y010878D01*
X005838Y010896D02*
X005632Y010896D01*
X005650Y010915D02*
X005820Y010915D01*
X005801Y010933D02*
X005669Y010933D01*
X005687Y010952D02*
X005783Y010952D01*
X005764Y010971D02*
X005706Y010971D01*
D14*
X006160Y010779D03*
X006534Y010779D03*
X006534Y008779D03*
X006160Y008779D03*
X006160Y006779D03*
X006534Y006779D03*
X006534Y004779D03*
X006160Y004779D03*
X006160Y002779D03*
X006534Y002779D03*
D15*
X006347Y002779D03*
X006347Y004779D03*
X006347Y006779D03*
X006347Y008779D03*
X006347Y010779D03*
M02*
