G75*
G70*
%OFA0B0*%
%FSLAX24Y24*%
%IPPOS*%
%LPD*%
%AMOC8*
5,1,8,0,0,1.08239X$1,22.5*
%
%ADD10C,0.0050*%
%ADD11C,0.0060*%
%ADD12C,0.0080*%
%ADD13C,0.0040*%
%ADD14C,0.0039*%
D10*
X007484Y006279D02*
X008597Y005165D01*
X009711Y006279D01*
X008597Y007393D01*
X007484Y006279D01*
X009393Y006279D02*
X009395Y006291D01*
X009400Y006302D01*
X009409Y006311D01*
X009420Y006316D01*
X009432Y006318D01*
X009444Y006316D01*
X009455Y006311D01*
X009464Y006302D01*
X009469Y006291D01*
X009471Y006279D01*
X009469Y006267D01*
X009464Y006256D01*
X009455Y006247D01*
X009444Y006242D01*
X009432Y006240D01*
X009420Y006242D01*
X009409Y006247D01*
X009400Y006256D01*
X009395Y006267D01*
X009393Y006279D01*
X011037Y008554D02*
X011037Y008779D01*
X011112Y008854D01*
X011187Y008854D01*
X011262Y008779D01*
X011262Y008629D01*
X011187Y008554D01*
X011037Y008554D01*
X010887Y008704D01*
X010812Y008854D01*
X013062Y003854D02*
X013062Y003554D01*
X013062Y003704D02*
X012612Y003704D01*
X012762Y003554D01*
D11*
X012437Y003529D02*
X012437Y004029D01*
X012187Y004279D01*
X012437Y004529D01*
X012437Y005029D01*
X012187Y005279D01*
X012437Y005529D01*
X012437Y006029D01*
X012187Y006279D01*
X012437Y006529D01*
X012437Y007029D01*
X012187Y007279D01*
X012437Y007529D01*
X012437Y008029D01*
X012187Y008279D01*
X012437Y008529D01*
X012437Y009029D01*
X012187Y009279D01*
X011687Y009279D01*
X011437Y009029D01*
X011437Y008529D01*
X011687Y008279D01*
X011437Y008029D01*
X011437Y007529D01*
X011687Y007279D01*
X011437Y007029D01*
X011437Y006529D01*
X011687Y006279D01*
X011437Y006029D01*
X011437Y005529D01*
X011687Y005279D01*
X011437Y005029D01*
X011437Y004529D01*
X011687Y004279D01*
X011437Y004029D01*
X011437Y003529D01*
X011687Y003279D01*
X012187Y003279D01*
X012437Y003529D01*
X010627Y005250D02*
X010460Y005417D01*
X010126Y005083D02*
X010293Y004916D01*
D12*
X008922Y003854D02*
X007934Y003854D01*
X007422Y003460D02*
X007422Y002248D01*
X007934Y001854D02*
X008910Y001854D01*
X009422Y002248D02*
X009422Y003460D01*
X007922Y002854D02*
X007924Y002898D01*
X007930Y002942D01*
X007940Y002985D01*
X007953Y003027D01*
X007970Y003068D01*
X007991Y003107D01*
X008015Y003144D01*
X008042Y003179D01*
X008072Y003211D01*
X008105Y003241D01*
X008141Y003267D01*
X008178Y003291D01*
X008218Y003310D01*
X008259Y003327D01*
X008302Y003339D01*
X008345Y003348D01*
X008389Y003353D01*
X008433Y003354D01*
X008477Y003351D01*
X008521Y003344D01*
X008564Y003333D01*
X008606Y003319D01*
X008646Y003301D01*
X008685Y003279D01*
X008721Y003255D01*
X008755Y003227D01*
X008787Y003196D01*
X008816Y003162D01*
X008842Y003126D01*
X008864Y003088D01*
X008883Y003048D01*
X008898Y003006D01*
X008910Y002964D01*
X008918Y002920D01*
X008922Y002876D01*
X008922Y002832D01*
X008918Y002788D01*
X008910Y002744D01*
X008898Y002702D01*
X008883Y002660D01*
X008864Y002620D01*
X008842Y002582D01*
X008816Y002546D01*
X008787Y002512D01*
X008755Y002481D01*
X008721Y002453D01*
X008685Y002429D01*
X008646Y002407D01*
X008606Y002389D01*
X008564Y002375D01*
X008521Y002364D01*
X008477Y002357D01*
X008433Y002354D01*
X008389Y002355D01*
X008345Y002360D01*
X008302Y002369D01*
X008259Y002381D01*
X008218Y002398D01*
X008178Y002417D01*
X008141Y002441D01*
X008105Y002467D01*
X008072Y002497D01*
X008042Y002529D01*
X008015Y002564D01*
X007991Y002601D01*
X007970Y002640D01*
X007953Y002681D01*
X007940Y002723D01*
X007930Y002766D01*
X007924Y002810D01*
X007922Y002854D01*
X005717Y002294D02*
X005717Y002272D01*
X005417Y002844D02*
X004844Y002844D01*
X004844Y003714D02*
X005417Y003714D01*
X005717Y004272D02*
X005717Y004294D01*
X005417Y004844D02*
X004844Y004844D01*
X004844Y005714D02*
X005417Y005714D01*
X005717Y006272D02*
X005717Y006294D01*
X005417Y006844D02*
X004844Y006844D01*
X004844Y007714D02*
X005417Y007714D01*
X005717Y008272D02*
X005717Y008294D01*
X005417Y008844D02*
X004844Y008844D01*
X004844Y009714D02*
X005417Y009714D01*
X005717Y010272D02*
X005717Y010294D01*
X005417Y010844D02*
X004844Y010844D01*
X004844Y001714D02*
X005417Y001714D01*
D13*
X004785Y001836D02*
X004824Y001854D01*
X004861Y001876D01*
X004897Y001902D01*
X004930Y001930D01*
X004960Y001961D01*
X004987Y001995D01*
X005011Y002031D01*
X005032Y002069D01*
X005049Y002109D01*
X005062Y002150D01*
X005072Y002193D01*
X005078Y002236D01*
X005080Y002279D01*
X005078Y002322D01*
X005072Y002365D01*
X005062Y002408D01*
X005049Y002449D01*
X005032Y002489D01*
X005011Y002527D01*
X004987Y002563D01*
X004960Y002597D01*
X004930Y002628D01*
X004897Y002656D01*
X004861Y002682D01*
X004824Y002704D01*
X004785Y002722D01*
X004785Y003836D02*
X004824Y003854D01*
X004861Y003876D01*
X004897Y003902D01*
X004930Y003930D01*
X004960Y003961D01*
X004987Y003995D01*
X005011Y004031D01*
X005032Y004069D01*
X005049Y004109D01*
X005062Y004150D01*
X005072Y004193D01*
X005078Y004236D01*
X005080Y004279D01*
X005078Y004322D01*
X005072Y004365D01*
X005062Y004408D01*
X005049Y004449D01*
X005032Y004489D01*
X005011Y004527D01*
X004987Y004563D01*
X004960Y004597D01*
X004930Y004628D01*
X004897Y004656D01*
X004861Y004682D01*
X004824Y004704D01*
X004785Y004722D01*
X004785Y005836D02*
X004824Y005854D01*
X004861Y005876D01*
X004897Y005902D01*
X004930Y005930D01*
X004960Y005961D01*
X004987Y005995D01*
X005011Y006031D01*
X005032Y006069D01*
X005049Y006109D01*
X005062Y006150D01*
X005072Y006193D01*
X005078Y006236D01*
X005080Y006279D01*
X005078Y006322D01*
X005072Y006365D01*
X005062Y006408D01*
X005049Y006449D01*
X005032Y006489D01*
X005011Y006527D01*
X004987Y006563D01*
X004960Y006597D01*
X004930Y006628D01*
X004897Y006656D01*
X004861Y006682D01*
X004824Y006704D01*
X004785Y006722D01*
X004785Y007836D02*
X004824Y007854D01*
X004861Y007876D01*
X004897Y007902D01*
X004930Y007930D01*
X004960Y007961D01*
X004987Y007995D01*
X005011Y008031D01*
X005032Y008069D01*
X005049Y008109D01*
X005062Y008150D01*
X005072Y008193D01*
X005078Y008236D01*
X005080Y008279D01*
X005078Y008322D01*
X005072Y008365D01*
X005062Y008408D01*
X005049Y008449D01*
X005032Y008489D01*
X005011Y008527D01*
X004987Y008563D01*
X004960Y008597D01*
X004930Y008628D01*
X004897Y008656D01*
X004861Y008682D01*
X004824Y008704D01*
X004785Y008722D01*
X004785Y009836D02*
X004824Y009854D01*
X004861Y009876D01*
X004897Y009902D01*
X004930Y009930D01*
X004960Y009961D01*
X004987Y009995D01*
X005011Y010031D01*
X005032Y010069D01*
X005049Y010109D01*
X005062Y010150D01*
X005072Y010193D01*
X005078Y010236D01*
X005080Y010279D01*
X005078Y010322D01*
X005072Y010365D01*
X005062Y010408D01*
X005049Y010449D01*
X005032Y010489D01*
X005011Y010527D01*
X004987Y010563D01*
X004960Y010597D01*
X004930Y010628D01*
X004897Y010656D01*
X004861Y010682D01*
X004824Y010704D01*
X004785Y010722D01*
D14*
X005482Y010279D03*
X005482Y008279D03*
X005482Y006279D03*
X005482Y004279D03*
X005482Y002279D03*
M02*
