G75*
G70*
%OFA0B0*%
%FSLAX24Y24*%
%IPPOS*%
%LPD*%
%AMOC8*
5,1,8,0,0,1.08239X$1,22.5*
%
%ADD10C,0.0080*%
D10*
X005011Y002145D02*
X005916Y002145D01*
X005010Y002145D02*
X004943Y002147D01*
X004877Y002154D01*
X004810Y002164D01*
X004745Y002178D01*
X004680Y002195D01*
X004616Y002216D01*
X004554Y002241D01*
X004493Y002269D01*
X004434Y002301D01*
X004376Y002336D01*
X004321Y002374D01*
X004268Y002416D01*
X004218Y002460D01*
X004170Y002507D01*
X004125Y002557D01*
X004083Y002609D01*
X004044Y002663D01*
X004008Y002720D01*
X003975Y002778D01*
X003945Y002839D01*
X003920Y002901D01*
X003897Y002964D01*
X003879Y003029D01*
X003864Y003094D01*
X003852Y003160D01*
X003845Y003227D01*
X003841Y003294D01*
X003842Y003361D01*
X003846Y003428D01*
X003853Y003495D01*
X003865Y003561D01*
X003880Y003626D01*
X003899Y003690D01*
X003922Y003754D01*
X003948Y003815D01*
X003978Y003876D01*
X004011Y003934D01*
X004047Y003990D01*
X004087Y004045D01*
X004129Y004097D01*
X004175Y004146D01*
X004223Y004193D01*
X004183Y004154D02*
X004283Y004250D01*
X004379Y004351D01*
X004469Y004456D01*
X004555Y004566D01*
X004635Y004680D01*
X004709Y004797D01*
X004777Y004918D01*
X004840Y005042D01*
X004897Y005169D01*
X004947Y005298D01*
X004991Y005430D01*
X005029Y005564D01*
X005060Y005699D01*
X005085Y005836D01*
X005103Y005974D01*
X005114Y006112D01*
X005119Y006251D01*
X005117Y006390D01*
X005108Y006529D01*
X005093Y006667D01*
X005071Y006804D01*
X005042Y006940D01*
X005007Y007074D01*
X004965Y007207D01*
X004917Y007337D01*
X004863Y007465D01*
X004802Y007590D01*
X004736Y007713D01*
X004664Y007831D01*
X004586Y007946D01*
X004503Y008058D01*
X004414Y008165D01*
X004321Y008268D01*
X004222Y008366D01*
X004223Y008366D02*
X004174Y008413D01*
X004127Y008461D01*
X004083Y008513D01*
X004042Y008567D01*
X004004Y008623D01*
X003970Y008682D01*
X003939Y008742D01*
X003911Y008804D01*
X003888Y008867D01*
X003868Y008932D01*
X003851Y008998D01*
X003839Y009065D01*
X003830Y009132D01*
X003826Y009199D01*
X003825Y009267D01*
X003828Y009335D01*
X003836Y009402D01*
X003847Y009469D01*
X003862Y009535D01*
X003880Y009600D01*
X003903Y009664D01*
X003929Y009727D01*
X003959Y009788D01*
X003992Y009847D01*
X004029Y009904D01*
X004068Y009959D01*
X004111Y010011D01*
X004157Y010061D01*
X004206Y010108D01*
X004257Y010152D01*
X004311Y010193D01*
X004367Y010231D01*
X004426Y010266D01*
X004486Y010297D01*
X004548Y010325D01*
X004611Y010349D01*
X004676Y010369D01*
X004741Y010386D01*
X004808Y010398D01*
X004875Y010407D01*
X004943Y010412D01*
X005010Y010413D01*
X005011Y010413D02*
X005916Y010413D01*
X008278Y010413D02*
X009341Y010413D01*
X010995Y007736D01*
X010995Y004822D01*
X009341Y002145D01*
X008278Y002145D01*
M02*
