%
M48
M72
T01C0.0157
T02C0.0315
T03C0.0394
T04C0.1181
%
T01
X25688Y10562
X23145Y6014
X24750Y15207
X17145Y15764
X27313Y11562
X27438Y5625
X21145Y16764
X17645Y17889
X26063Y8250
X28063Y8250
X24875Y6875
X26423Y7485
X23270Y17264
X25385Y17323
X25619Y7890
X27622Y7765
X27810Y16278
X25807Y16278
X25807Y12773
X27810Y12773
T02
X25688Y-375
X24688Y-375
X23688Y-375
X22688Y-375
T03
X26616Y15271
X26616Y13789
T04
X0Y0
X0Y17678
X27750Y0
X27750Y17678
M30
