G75*
G70*
%OFA0B0*%
%FSLAX24Y24*%
%IPPOS*%
%LPD*%
%AMOC8*
5,1,8,0,0,1.08239X$1,22.5*
%
%ADD10C,0.0118*%
%ADD11C,0.0000*%
%ADD12C,0.0050*%
%ADD13C,0.0080*%
%ADD14C,0.0079*%
%ADD15C,0.0060*%
%ADD16C,0.0010*%
D10*
X000544Y002362D02*
X000544Y016174D01*
X026247Y016233D01*
X026247Y002421D01*
X000544Y002362D01*
X013245Y008228D02*
X013875Y008228D01*
X013875Y009488D01*
X013245Y009488D01*
X013245Y008228D01*
X023497Y012671D02*
X023997Y012671D01*
X023747Y012421D02*
X023747Y012921D01*
X026538Y012974D02*
X026538Y011714D01*
X027168Y011714D01*
X027168Y012974D01*
X026538Y012974D01*
X027684Y013222D02*
X027881Y013419D01*
X029574Y013419D01*
X029771Y013222D01*
X029771Y011332D01*
X027684Y011332D01*
X027684Y013222D01*
X027387Y013801D02*
X027387Y014234D01*
X027379Y014234D02*
X031041Y014234D01*
X031041Y017265D01*
X027379Y017265D01*
X027379Y014234D01*
X027387Y013801D02*
X028068Y013801D01*
X028068Y014234D01*
X029485Y014234D02*
X029485Y013801D01*
X030174Y013801D01*
X030174Y014234D01*
X026002Y016793D02*
X026002Y017423D01*
X024743Y017423D01*
X024743Y016793D01*
X026002Y016793D01*
X027387Y017265D02*
X027387Y017698D01*
X028076Y017698D01*
X028076Y017265D01*
X029485Y017265D02*
X029485Y017698D01*
X030174Y017698D01*
X030174Y017265D01*
X024875Y017853D02*
X024245Y017853D01*
X024245Y019113D01*
X024875Y019113D01*
X024875Y017853D01*
X023464Y017324D02*
X022864Y017324D01*
X022830Y017319D02*
X022579Y017694D01*
X022330Y017319D01*
X022264Y017324D02*
X021664Y017324D01*
X021664Y019124D01*
X023464Y019124D01*
X023464Y017324D01*
X020752Y017298D02*
X020752Y016668D01*
X019493Y016668D01*
X019493Y017298D01*
X020752Y017298D01*
X020752Y017481D02*
X019493Y017481D01*
X019493Y018110D01*
X020752Y018110D01*
X020752Y017481D01*
X019187Y017853D02*
X018557Y017853D01*
X018557Y019113D01*
X019187Y019113D01*
X019187Y017853D01*
X018312Y017853D02*
X017682Y017853D01*
X017682Y019113D01*
X018312Y019113D01*
X018312Y017853D01*
X018627Y017298D02*
X017367Y017298D01*
X017367Y016668D01*
X018627Y016668D01*
X018627Y017298D01*
X017125Y017853D02*
X016495Y017853D01*
X016495Y019113D01*
X017125Y019113D01*
X017125Y017853D01*
X021367Y019273D02*
X021367Y019903D01*
X022627Y019903D01*
X022627Y019273D01*
X021367Y019273D01*
X026475Y007399D02*
X027105Y007399D01*
X027105Y006139D01*
X026475Y006139D01*
X026475Y007399D01*
X027663Y007399D02*
X028293Y007399D01*
X028293Y006139D01*
X027663Y006139D01*
X027663Y007399D01*
X029038Y007399D02*
X029668Y007399D01*
X029668Y006139D01*
X029038Y006139D01*
X029038Y007399D01*
X029965Y007330D02*
X030615Y007330D01*
X030615Y006051D01*
X029965Y006051D01*
X029965Y007330D01*
X029965Y007110D02*
X030615Y007110D01*
X030363Y005791D02*
X030598Y005557D01*
X030598Y002757D01*
X030363Y002523D01*
X026857Y002523D01*
X026857Y005791D01*
X030363Y005791D01*
X029978Y004907D02*
X029978Y004407D01*
X029728Y004657D02*
X030228Y004657D01*
X025795Y002159D02*
X025795Y001529D01*
X024535Y001529D01*
X024535Y002159D01*
X025795Y002159D01*
X024004Y001344D02*
X024004Y000344D01*
X028201Y000344D01*
X028201Y001344D01*
X024004Y001344D01*
D11*
X030534Y000368D02*
X001163Y000368D01*
X001099Y000370D01*
X001035Y000376D01*
X000972Y000385D01*
X000909Y000399D01*
X000848Y000416D01*
X000787Y000437D01*
X000728Y000461D01*
X000670Y000489D01*
X000615Y000521D01*
X000561Y000556D01*
X000509Y000594D01*
X000460Y000635D01*
X000413Y000678D01*
X000370Y000725D01*
X000329Y000774D01*
X000291Y000826D01*
X000256Y000880D01*
X000224Y000935D01*
X000196Y000993D01*
X000172Y001052D01*
X000151Y001113D01*
X000134Y001174D01*
X000120Y001237D01*
X000111Y001300D01*
X000105Y001364D01*
X000103Y001428D01*
X000103Y019083D01*
X000105Y019141D01*
X000110Y019200D01*
X000119Y019257D01*
X000132Y019314D01*
X000149Y019370D01*
X000168Y019425D01*
X000192Y019479D01*
X000218Y019531D01*
X000248Y019581D01*
X000281Y019630D01*
X000316Y019676D01*
X000355Y019720D01*
X000396Y019761D01*
X000440Y019800D01*
X000486Y019835D01*
X000535Y019868D01*
X000585Y019898D01*
X000637Y019924D01*
X000691Y019948D01*
X000746Y019967D01*
X000802Y019984D01*
X000859Y019997D01*
X000916Y020006D01*
X000975Y020011D01*
X001033Y020013D01*
X030661Y020013D01*
X030715Y020011D01*
X030769Y020006D01*
X030823Y019996D01*
X030876Y019983D01*
X030928Y019967D01*
X030978Y019947D01*
X031027Y019924D01*
X031075Y019897D01*
X031120Y019867D01*
X031163Y019834D01*
X031204Y019799D01*
X031243Y019760D01*
X031278Y019719D01*
X031311Y019676D01*
X031341Y019631D01*
X031368Y019583D01*
X031391Y019534D01*
X031411Y019484D01*
X031427Y019432D01*
X031440Y019379D01*
X031450Y019325D01*
X031455Y019271D01*
X031457Y019217D01*
X031458Y019217D02*
X031458Y001292D01*
X031456Y001234D01*
X031451Y001176D01*
X031442Y001119D01*
X031429Y001062D01*
X031413Y001006D01*
X031393Y000952D01*
X031370Y000899D01*
X031344Y000847D01*
X031314Y000797D01*
X031282Y000749D01*
X031246Y000703D01*
X031208Y000659D01*
X031167Y000618D01*
X031123Y000580D01*
X031077Y000544D01*
X031029Y000512D01*
X030979Y000482D01*
X030927Y000456D01*
X030874Y000433D01*
X030820Y000413D01*
X030764Y000397D01*
X030707Y000384D01*
X030650Y000375D01*
X030592Y000370D01*
X030534Y000368D01*
X028334Y015009D02*
X028336Y015036D01*
X028342Y015063D01*
X028351Y015089D01*
X028364Y015113D01*
X028380Y015136D01*
X028399Y015155D01*
X028421Y015172D01*
X028445Y015186D01*
X028470Y015196D01*
X028497Y015203D01*
X028524Y015206D01*
X028552Y015205D01*
X028579Y015200D01*
X028605Y015192D01*
X028629Y015180D01*
X028652Y015164D01*
X028673Y015146D01*
X028690Y015125D01*
X028705Y015101D01*
X028716Y015076D01*
X028724Y015050D01*
X028728Y015023D01*
X028728Y014995D01*
X028724Y014968D01*
X028716Y014942D01*
X028705Y014917D01*
X028690Y014893D01*
X028673Y014872D01*
X028652Y014854D01*
X028630Y014838D01*
X028605Y014826D01*
X028579Y014818D01*
X028552Y014813D01*
X028524Y014812D01*
X028497Y014815D01*
X028470Y014822D01*
X028445Y014832D01*
X028421Y014846D01*
X028399Y014863D01*
X028380Y014882D01*
X028364Y014905D01*
X028351Y014929D01*
X028342Y014955D01*
X028336Y014982D01*
X028334Y015009D01*
X028334Y016490D02*
X028336Y016517D01*
X028342Y016544D01*
X028351Y016570D01*
X028364Y016594D01*
X028380Y016617D01*
X028399Y016636D01*
X028421Y016653D01*
X028445Y016667D01*
X028470Y016677D01*
X028497Y016684D01*
X028524Y016687D01*
X028552Y016686D01*
X028579Y016681D01*
X028605Y016673D01*
X028629Y016661D01*
X028652Y016645D01*
X028673Y016627D01*
X028690Y016606D01*
X028705Y016582D01*
X028716Y016557D01*
X028724Y016531D01*
X028728Y016504D01*
X028728Y016476D01*
X028724Y016449D01*
X028716Y016423D01*
X028705Y016398D01*
X028690Y016374D01*
X028673Y016353D01*
X028652Y016335D01*
X028630Y016319D01*
X028605Y016307D01*
X028579Y016299D01*
X028552Y016294D01*
X028524Y016293D01*
X028497Y016296D01*
X028470Y016303D01*
X028445Y016313D01*
X028421Y016327D01*
X028399Y016344D01*
X028380Y016363D01*
X028364Y016386D01*
X028351Y016410D01*
X028342Y016436D01*
X028336Y016463D01*
X028334Y016490D01*
D12*
X027017Y016157D02*
X027017Y015927D01*
X027017Y016042D02*
X026673Y016042D01*
X026788Y015927D01*
X026845Y015794D02*
X026730Y015794D01*
X026673Y015737D01*
X026673Y015565D01*
X027017Y015565D01*
X026902Y015565D02*
X026902Y015737D01*
X026845Y015794D01*
X026673Y015432D02*
X026673Y015317D01*
X026673Y015374D02*
X026960Y015374D01*
X027017Y015317D01*
X027017Y015260D01*
X026960Y015202D01*
X026588Y016698D02*
X026244Y016698D01*
X026244Y016870D01*
X026302Y016928D01*
X026416Y016928D01*
X026474Y016870D01*
X026474Y016698D01*
X026474Y016813D02*
X026588Y016928D01*
X026588Y017061D02*
X026588Y017290D01*
X026588Y017176D02*
X026244Y017176D01*
X026359Y017061D01*
X025318Y018076D02*
X025088Y018076D01*
X025031Y018134D01*
X025031Y018248D01*
X025088Y018306D01*
X025146Y018439D02*
X025031Y018554D01*
X025375Y018554D01*
X025375Y018668D02*
X025375Y018439D01*
X025318Y018306D02*
X025375Y018248D01*
X025375Y018134D01*
X025318Y018076D01*
X022749Y018136D02*
X022749Y018250D01*
X022692Y018308D01*
X022749Y018441D02*
X022520Y018670D01*
X022463Y018670D01*
X022405Y018613D01*
X022405Y018498D01*
X022463Y018441D01*
X022463Y018308D02*
X022405Y018250D01*
X022405Y018136D01*
X022463Y018078D01*
X022692Y018078D01*
X022749Y018136D01*
X022749Y017951D02*
X022749Y017837D01*
X022749Y017894D02*
X022405Y017894D01*
X022405Y017837D02*
X022405Y017951D01*
X022749Y018441D02*
X022749Y018670D01*
X020994Y019398D02*
X020765Y019398D01*
X020880Y019398D02*
X020880Y019742D01*
X020765Y019628D01*
X020632Y019398D02*
X020403Y019398D01*
X020517Y019398D02*
X020517Y019742D01*
X020403Y019628D01*
X020270Y019685D02*
X020212Y019742D01*
X020098Y019742D01*
X020040Y019685D01*
X020040Y019456D01*
X020098Y019398D01*
X020212Y019398D01*
X020270Y019456D01*
X020245Y018637D02*
X020188Y018580D01*
X020188Y018522D01*
X020245Y018465D01*
X020417Y018465D01*
X020417Y018580D02*
X020360Y018637D01*
X020245Y018637D01*
X020417Y018580D02*
X020417Y018350D01*
X020360Y018293D01*
X020245Y018293D01*
X020188Y018350D01*
X020055Y018350D02*
X019998Y018293D01*
X019883Y018293D01*
X019826Y018350D01*
X019826Y018580D01*
X019883Y018637D01*
X019998Y018637D01*
X020055Y018580D01*
X019016Y019283D02*
X018672Y019283D01*
X018672Y019455D01*
X018730Y019512D01*
X018844Y019512D01*
X018902Y019455D01*
X018902Y019283D01*
X018902Y019397D02*
X019016Y019512D01*
X018844Y019645D02*
X018672Y019817D01*
X019016Y019817D01*
X018844Y019874D02*
X018844Y019645D01*
X018125Y019556D02*
X018010Y019441D01*
X018010Y019498D02*
X018010Y019326D01*
X018125Y019326D02*
X017781Y019326D01*
X017781Y019498D01*
X017838Y019556D01*
X017953Y019556D01*
X018010Y019498D01*
X017953Y019689D02*
X018067Y019689D01*
X018125Y019746D01*
X018125Y019861D01*
X018067Y019918D01*
X018010Y019918D01*
X017953Y019861D01*
X017953Y019689D01*
X017838Y019804D01*
X017781Y019918D01*
X016964Y019827D02*
X016964Y019712D01*
X016906Y019655D01*
X016964Y019522D02*
X016849Y019407D01*
X016849Y019465D02*
X016849Y019293D01*
X016964Y019293D02*
X016620Y019293D01*
X016620Y019465D01*
X016677Y019522D01*
X016792Y019522D01*
X016849Y019465D01*
X016677Y019655D02*
X016620Y019712D01*
X016620Y019827D01*
X016677Y019884D01*
X016734Y019884D01*
X016792Y019827D01*
X016849Y019884D01*
X016906Y019884D01*
X016964Y019827D01*
X016792Y019827D02*
X016792Y019770D01*
X016808Y017012D02*
X016923Y017012D01*
X016980Y016955D01*
X016980Y016897D01*
X016923Y016840D01*
X016808Y016840D01*
X016751Y016897D01*
X016751Y016955D01*
X016808Y017012D01*
X016808Y016840D02*
X016751Y016783D01*
X016751Y016725D01*
X016808Y016668D01*
X016923Y016668D01*
X016980Y016725D01*
X016980Y016783D01*
X016923Y016840D01*
X016617Y016725D02*
X016560Y016668D01*
X016446Y016668D01*
X016388Y016725D01*
X016388Y016955D01*
X016446Y017012D01*
X016560Y017012D01*
X016617Y016955D01*
X021242Y016929D02*
X021242Y016699D01*
X021299Y016642D01*
X021414Y016642D01*
X021471Y016699D01*
X021604Y016642D02*
X021834Y016642D01*
X021719Y016642D02*
X021719Y016986D01*
X021604Y016871D01*
X021471Y016929D02*
X021414Y016986D01*
X021299Y016986D01*
X021242Y016929D01*
X021967Y016929D02*
X021967Y016699D01*
X022196Y016929D01*
X022196Y016699D01*
X022139Y016642D01*
X022024Y016642D01*
X021967Y016699D01*
X021967Y016929D02*
X022024Y016986D01*
X022139Y016986D01*
X022196Y016929D01*
X013062Y009048D02*
X013062Y008934D01*
X013005Y008876D01*
X012890Y008876D02*
X012833Y008991D01*
X012833Y009048D01*
X012890Y009106D01*
X013005Y009106D01*
X013062Y009048D01*
X012890Y008876D02*
X012718Y008876D01*
X012718Y009106D01*
X012776Y008743D02*
X012890Y008743D01*
X012948Y008686D01*
X012948Y008514D01*
X013062Y008514D02*
X012718Y008514D01*
X012718Y008686D01*
X012776Y008743D01*
X012948Y008628D02*
X013062Y008743D01*
D13*
X023642Y002399D02*
X023642Y002059D01*
X023897Y002059D01*
X023812Y002229D01*
X023812Y002314D01*
X023897Y002399D01*
X024067Y002399D01*
X024153Y002314D01*
X024153Y002144D01*
X024067Y002059D01*
X024067Y001856D02*
X024153Y001771D01*
X024153Y001600D01*
X024067Y001515D01*
X023727Y001515D01*
X023642Y001600D01*
X023642Y001771D01*
X023727Y001856D01*
X023788Y001777D02*
X023788Y001436D01*
X023447Y001777D01*
X023362Y001777D01*
X023277Y001692D01*
X023277Y001522D01*
X023362Y001436D01*
X023362Y001233D02*
X023532Y001233D01*
X023617Y001148D01*
X023617Y000893D01*
X023788Y000893D02*
X023277Y000893D01*
X023277Y001148D01*
X023362Y001233D01*
X023277Y000690D02*
X023277Y000519D01*
X023277Y000604D02*
X023702Y000604D01*
X023788Y000519D01*
X023788Y000434D01*
X023702Y000349D01*
X027114Y001719D02*
X027199Y001634D01*
X027540Y001634D01*
X027625Y001719D01*
X027625Y001890D01*
X027540Y001975D01*
X027540Y002178D02*
X027369Y002178D01*
X027369Y002434D01*
X027455Y002519D01*
X027540Y002519D01*
X027625Y002434D01*
X027625Y002263D01*
X027540Y002178D01*
X027369Y002178D02*
X027199Y002348D01*
X027114Y002519D01*
X027199Y001975D02*
X027114Y001890D01*
X027114Y001719D01*
X029142Y004252D02*
X029142Y004508D01*
X029227Y004593D01*
X029397Y004593D01*
X029483Y004508D01*
X029483Y004252D01*
X029653Y004252D02*
X029142Y004252D01*
X029483Y004423D02*
X029653Y004593D01*
X029653Y004796D02*
X029312Y005137D01*
X029227Y005137D01*
X029142Y005052D01*
X029142Y004881D01*
X029227Y004796D01*
X029653Y004796D02*
X029653Y005137D01*
X030142Y004994D02*
X030653Y004994D01*
X030653Y004824D02*
X030653Y005164D01*
X030312Y004824D02*
X030142Y004994D01*
X030227Y004621D02*
X030142Y004535D01*
X030142Y004280D01*
X030653Y004280D01*
X030653Y004535D01*
X030567Y004621D01*
X030227Y004621D01*
X028853Y006428D02*
X028512Y006428D01*
X028427Y006514D01*
X028427Y006684D01*
X028512Y006769D01*
X028512Y006972D02*
X028427Y007057D01*
X028427Y007228D01*
X028512Y007313D01*
X028597Y007313D01*
X028682Y007228D01*
X028768Y007313D01*
X028853Y007313D01*
X028938Y007228D01*
X028938Y007057D01*
X028853Y006972D01*
X028853Y006769D02*
X028938Y006684D01*
X028938Y006514D01*
X028853Y006428D01*
X028682Y007142D02*
X028682Y007228D01*
X026850Y007785D02*
X026850Y007955D01*
X026765Y008040D01*
X026595Y008243D02*
X026595Y008584D01*
X026850Y008499D02*
X026339Y008499D01*
X026595Y008243D01*
X026424Y008040D02*
X026339Y007955D01*
X026339Y007785D01*
X026424Y007700D01*
X026765Y007700D01*
X026850Y007785D01*
X025207Y008571D02*
X025207Y008826D01*
X025122Y008911D01*
X025037Y008911D01*
X024952Y008826D01*
X024952Y008571D01*
X024952Y008826D02*
X024867Y008911D01*
X024781Y008911D01*
X024696Y008826D01*
X024696Y008571D01*
X025207Y008571D01*
X025207Y009114D02*
X024867Y009114D01*
X024696Y009285D01*
X024867Y009455D01*
X025207Y009455D01*
X024952Y009455D02*
X024952Y009114D01*
X024696Y009658D02*
X024696Y009999D01*
X024696Y009828D02*
X025207Y009828D01*
X025207Y010202D02*
X025207Y010542D01*
X025207Y010372D02*
X024696Y010372D01*
X024867Y010202D01*
X026464Y010860D02*
X026549Y010775D01*
X026890Y010775D01*
X026975Y010860D01*
X026975Y011030D01*
X026890Y011116D01*
X026975Y011319D02*
X026634Y011659D01*
X026549Y011659D01*
X026464Y011574D01*
X026464Y011404D01*
X026549Y011319D01*
X026549Y011116D02*
X026464Y011030D01*
X026464Y010860D01*
X026975Y011319D02*
X026975Y011659D01*
X030017Y012626D02*
X030102Y012541D01*
X030443Y012541D01*
X030528Y012626D01*
X030528Y012796D01*
X030443Y012881D01*
X030443Y013084D02*
X030528Y013084D01*
X030443Y013084D02*
X030102Y013425D01*
X030017Y013425D01*
X030017Y013084D01*
X030102Y012881D02*
X030017Y012796D01*
X030017Y012626D01*
D14*
X028415Y013000D02*
X027915Y013000D01*
X028165Y012750D02*
X028165Y013250D01*
D15*
X026801Y010512D02*
X026801Y008209D01*
X030896Y008209D01*
X030896Y010512D01*
X026801Y010512D01*
X027004Y008592D02*
X027006Y008618D01*
X027012Y008644D01*
X027021Y008669D01*
X027034Y008692D01*
X027050Y008713D01*
X027069Y008731D01*
X027091Y008747D01*
X027114Y008759D01*
X027139Y008767D01*
X027165Y008772D01*
X027192Y008773D01*
X027218Y008770D01*
X027243Y008763D01*
X027268Y008753D01*
X027290Y008739D01*
X027311Y008722D01*
X027328Y008703D01*
X027343Y008681D01*
X027354Y008657D01*
X027362Y008631D01*
X027366Y008605D01*
X027366Y008579D01*
X027362Y008553D01*
X027354Y008527D01*
X027343Y008503D01*
X027328Y008481D01*
X027311Y008462D01*
X027290Y008445D01*
X027268Y008431D01*
X027243Y008421D01*
X027218Y008414D01*
X027192Y008411D01*
X027165Y008412D01*
X027139Y008417D01*
X027114Y008425D01*
X027091Y008437D01*
X027069Y008453D01*
X027050Y008471D01*
X027034Y008492D01*
X027021Y008515D01*
X027012Y008540D01*
X027006Y008566D01*
X027004Y008592D01*
D16*
X027378Y009865D02*
X027428Y009865D01*
X027454Y009890D01*
X027454Y010015D01*
X027501Y009965D02*
X027551Y010015D01*
X027551Y009865D01*
X027501Y009865D02*
X027601Y009865D01*
X027378Y009865D02*
X027353Y009890D01*
X027353Y010015D01*
M02*
