G75*
G70*
%OFA0B0*%
%FSLAX24Y24*%
%IPPOS*%
%LPD*%
%AMOC8*
5,1,8,0,0,1.08239X$1,22.5*
%
%ADD10C,0.0000*%
%ADD11C,0.0434*%
%ADD12R,0.0926X0.0237*%
%ADD13R,0.0749X0.0749*%
%ADD14OC8,0.0749*%
%ADD15R,0.2009X0.2009*%
%ADD16R,0.0670X0.0434*%
%ADD17R,0.0434X0.0670*%
%ADD18R,0.1379X0.0749*%
%ADD19R,0.0701X0.0558*%
%ADD20R,0.0670X0.1024*%
%ADD21R,0.0670X0.0296*%
%ADD22R,0.0177X0.0590*%
%ADD23R,0.1621X0.1621*%
D10*
X001163Y000368D02*
X030534Y000368D01*
X030592Y000370D01*
X030650Y000375D01*
X030707Y000384D01*
X030764Y000397D01*
X030820Y000413D01*
X030874Y000433D01*
X030927Y000456D01*
X030979Y000482D01*
X031029Y000512D01*
X031077Y000544D01*
X031123Y000580D01*
X031167Y000618D01*
X031208Y000659D01*
X031246Y000703D01*
X031282Y000749D01*
X031314Y000797D01*
X031344Y000847D01*
X031370Y000899D01*
X031393Y000952D01*
X031413Y001006D01*
X031429Y001062D01*
X031442Y001119D01*
X031451Y001176D01*
X031456Y001234D01*
X031458Y001292D01*
X031458Y019217D01*
X031457Y019217D02*
X031455Y019271D01*
X031450Y019325D01*
X031440Y019379D01*
X031427Y019432D01*
X031411Y019484D01*
X031391Y019534D01*
X031368Y019583D01*
X031341Y019631D01*
X031311Y019676D01*
X031278Y019719D01*
X031243Y019760D01*
X031204Y019799D01*
X031163Y019834D01*
X031120Y019867D01*
X031075Y019897D01*
X031027Y019924D01*
X030978Y019947D01*
X030928Y019967D01*
X030876Y019983D01*
X030823Y019996D01*
X030769Y020006D01*
X030715Y020011D01*
X030661Y020013D01*
X001033Y020013D01*
X000975Y020011D01*
X000916Y020006D01*
X000859Y019997D01*
X000802Y019984D01*
X000746Y019967D01*
X000691Y019948D01*
X000637Y019924D01*
X000585Y019898D01*
X000535Y019868D01*
X000486Y019835D01*
X000440Y019800D01*
X000396Y019761D01*
X000355Y019720D01*
X000316Y019676D01*
X000281Y019630D01*
X000248Y019581D01*
X000218Y019531D01*
X000192Y019479D01*
X000168Y019425D01*
X000149Y019370D01*
X000132Y019314D01*
X000119Y019257D01*
X000110Y019200D01*
X000105Y019141D01*
X000103Y019083D01*
X000103Y001428D01*
X000105Y001364D01*
X000111Y001300D01*
X000120Y001237D01*
X000134Y001174D01*
X000151Y001113D01*
X000172Y001052D01*
X000196Y000993D01*
X000224Y000935D01*
X000256Y000880D01*
X000291Y000826D01*
X000329Y000774D01*
X000370Y000725D01*
X000413Y000678D01*
X000460Y000635D01*
X000509Y000594D01*
X000561Y000556D01*
X000615Y000521D01*
X000670Y000489D01*
X000728Y000461D01*
X000787Y000437D01*
X000848Y000416D01*
X000909Y000399D01*
X000972Y000385D01*
X001035Y000376D01*
X001099Y000370D01*
X001163Y000368D01*
X028334Y015009D02*
X028336Y015036D01*
X028342Y015063D01*
X028351Y015089D01*
X028364Y015113D01*
X028380Y015136D01*
X028399Y015155D01*
X028421Y015172D01*
X028445Y015186D01*
X028470Y015196D01*
X028497Y015203D01*
X028524Y015206D01*
X028552Y015205D01*
X028579Y015200D01*
X028605Y015192D01*
X028629Y015180D01*
X028652Y015164D01*
X028673Y015146D01*
X028690Y015125D01*
X028705Y015101D01*
X028716Y015076D01*
X028724Y015050D01*
X028728Y015023D01*
X028728Y014995D01*
X028724Y014968D01*
X028716Y014942D01*
X028705Y014917D01*
X028690Y014893D01*
X028673Y014872D01*
X028652Y014854D01*
X028630Y014838D01*
X028605Y014826D01*
X028579Y014818D01*
X028552Y014813D01*
X028524Y014812D01*
X028497Y014815D01*
X028470Y014822D01*
X028445Y014832D01*
X028421Y014846D01*
X028399Y014863D01*
X028380Y014882D01*
X028364Y014905D01*
X028351Y014929D01*
X028342Y014955D01*
X028336Y014982D01*
X028334Y015009D01*
X028334Y016490D02*
X028336Y016517D01*
X028342Y016544D01*
X028351Y016570D01*
X028364Y016594D01*
X028380Y016617D01*
X028399Y016636D01*
X028421Y016653D01*
X028445Y016667D01*
X028470Y016677D01*
X028497Y016684D01*
X028524Y016687D01*
X028552Y016686D01*
X028579Y016681D01*
X028605Y016673D01*
X028629Y016661D01*
X028652Y016645D01*
X028673Y016627D01*
X028690Y016606D01*
X028705Y016582D01*
X028716Y016557D01*
X028724Y016531D01*
X028728Y016504D01*
X028728Y016476D01*
X028724Y016449D01*
X028716Y016423D01*
X028705Y016398D01*
X028690Y016374D01*
X028673Y016353D01*
X028652Y016335D01*
X028630Y016319D01*
X028605Y016307D01*
X028579Y016299D01*
X028552Y016294D01*
X028524Y016293D01*
X028497Y016296D01*
X028470Y016303D01*
X028445Y016313D01*
X028421Y016327D01*
X028399Y016344D01*
X028380Y016363D01*
X028364Y016386D01*
X028351Y016410D01*
X028342Y016436D01*
X028336Y016463D01*
X028334Y016490D01*
D11*
X028531Y016490D03*
X028531Y015009D03*
D12*
X027586Y015120D03*
X027586Y015434D03*
X027586Y015749D03*
X027586Y016064D03*
X027586Y016379D03*
D13*
X027603Y000844D03*
D14*
X026603Y000844D03*
X025603Y000844D03*
X024603Y000844D03*
D15*
X025060Y005921D03*
X025060Y012671D03*
D16*
X026853Y012935D03*
X026853Y011754D03*
X026790Y007360D03*
X027978Y007360D03*
X029353Y007360D03*
X029353Y006179D03*
X027978Y006179D03*
X026790Y006179D03*
X013560Y008268D03*
X013560Y009449D03*
X016810Y017893D03*
X017997Y017893D03*
X018872Y017893D03*
X018872Y019074D03*
X017997Y019074D03*
X016810Y019074D03*
X024560Y019074D03*
X024560Y017893D03*
D17*
X024782Y017108D03*
X025963Y017108D03*
X022588Y019588D03*
X021407Y019588D03*
X020713Y017796D03*
X020713Y016983D03*
X019532Y016983D03*
X018588Y016983D03*
X017407Y016983D03*
X019532Y017796D03*
X024574Y001844D03*
X025756Y001844D03*
D18*
X027389Y004157D03*
X030066Y004157D03*
D19*
X030290Y006073D03*
X030290Y007307D03*
D20*
X028728Y011641D03*
X028728Y013110D03*
D21*
X023704Y017444D03*
X023704Y017944D03*
X023704Y018444D03*
X023704Y018944D03*
X021454Y018944D03*
X021454Y018444D03*
X021454Y017944D03*
X021454Y017444D03*
D22*
X027185Y010799D03*
X027441Y010799D03*
X027697Y010799D03*
X027953Y010799D03*
X028209Y010799D03*
X028465Y010799D03*
X028720Y010799D03*
X028976Y010799D03*
X029232Y010799D03*
X029488Y010799D03*
X029744Y010799D03*
X030000Y010799D03*
X030256Y010799D03*
X030512Y010799D03*
X030512Y007921D03*
X030256Y007921D03*
X030000Y007921D03*
X029744Y007921D03*
X029488Y007921D03*
X029232Y007921D03*
X028976Y007921D03*
X028720Y007921D03*
X028465Y007921D03*
X028209Y007921D03*
X027953Y007921D03*
X027697Y007921D03*
X027441Y007921D03*
X027185Y007921D03*
D23*
X029665Y001220D03*
X029665Y018897D03*
X001915Y018897D03*
X001915Y001220D03*
M02*
