G75*
%MOIN*%
%OFA0B0*%
%FSLAX24Y24*%
%IPPOS*%
%LPD*%
%AMOC8*
5,1,8,0,0,1.08239X$1,22.5*
%
%ADD10C,0.2009*%
%ADD11C,0.0540*%
%ADD12R,0.0631X0.0552*%
%ADD13R,0.0750X0.0670*%
%ADD14R,0.0749X0.0670*%
%ADD15C,0.0590*%
%ADD16R,0.0473X0.0434*%
%ADD17R,0.0394X0.0316*%
D10*
X005259Y018184D03*
D11*
X009527Y015061D03*
X009527Y013668D03*
X009527Y011355D03*
D12*
X008527Y012794D03*
X008527Y013542D03*
X007708Y013542D03*
X007708Y012794D03*
X006889Y012794D03*
X006889Y013542D03*
X006070Y013542D03*
X006070Y012794D03*
X005251Y012794D03*
X005251Y013542D03*
X004432Y013542D03*
X004432Y012794D03*
X003613Y012794D03*
X003613Y013542D03*
X002802Y013542D03*
X002802Y012794D03*
D13*
X002464Y015002D03*
X002464Y016121D03*
X003676Y016121D03*
X003676Y015002D03*
X004889Y015002D03*
X004889Y016121D03*
D14*
X006102Y016113D03*
X006102Y015010D03*
X007314Y015010D03*
X007314Y016113D03*
X008527Y016113D03*
X008527Y015010D03*
D15*
X005259Y001648D03*
X005259Y009522D03*
D16*
X005850Y011353D03*
X005850Y012022D03*
X006637Y012022D03*
X006637Y011353D03*
X007424Y011353D03*
X007424Y012022D03*
X008212Y012022D03*
X008212Y011353D03*
D17*
X005062Y011432D03*
X005062Y011943D03*
X004472Y011943D03*
X004472Y011432D03*
X003881Y011432D03*
X003881Y011943D03*
X003291Y011943D03*
X003291Y011432D03*
X002700Y011432D03*
X002700Y011943D03*
M02*
