G75*
%MOIN*%
%OFA0B0*%
%FSLAX24Y24*%
%IPPOS*%
%LPD*%
%AMOC8*
5,1,8,0,0,1.08239X$1,22.5*
%
%ADD10C,0.0080*%
D10*
X003684Y000861D02*
X006834Y000861D01*
X006834Y002042D01*
X006953Y002092D01*
X007071Y002146D01*
X007187Y002203D01*
X007301Y002263D01*
X007414Y002327D01*
X007524Y002395D01*
X007632Y002465D01*
X007738Y002539D01*
X007842Y002617D01*
X007943Y002697D01*
X008042Y002780D01*
X008139Y002867D01*
X008232Y002956D01*
X008323Y003048D01*
X008411Y003143D01*
X008496Y003241D01*
X008578Y003341D01*
X008657Y003443D01*
X008733Y003548D01*
X008805Y003655D01*
X008875Y003764D01*
X008940Y003876D01*
X009003Y003989D01*
X009062Y004104D01*
X009117Y004221D01*
X009169Y004339D01*
X009217Y004459D01*
X009262Y004581D01*
X009303Y004704D01*
X009340Y004828D01*
X009373Y004953D01*
X009402Y005079D01*
X009428Y005205D01*
X009449Y005333D01*
X009467Y005461D01*
X009481Y005590D01*
X009491Y005719D01*
X009497Y005848D01*
X009499Y005977D01*
X009497Y006107D01*
X009491Y006236D01*
X009481Y006365D01*
X009468Y006493D01*
X009450Y006621D01*
X009428Y006749D01*
X009403Y006876D01*
X009374Y007002D01*
X009341Y007127D01*
X009304Y007251D01*
X009263Y007374D01*
X009219Y007495D01*
X009171Y007615D01*
X009119Y007734D01*
X009064Y007851D01*
X009005Y007966D01*
X008942Y008079D01*
X008877Y008191D01*
X008807Y008300D01*
X008735Y008407D01*
X008659Y008512D01*
X008580Y008615D01*
X008498Y008715D01*
X008413Y008812D01*
X008326Y008907D01*
X008235Y008999D01*
X008141Y009089D01*
X008045Y009175D01*
X007946Y009259D01*
X007845Y009339D01*
X007741Y009416D01*
X007635Y009491D01*
X007527Y009561D01*
X007417Y009629D01*
X007304Y009693D01*
X007190Y009754D01*
X007074Y009811D01*
X006956Y009864D01*
X006837Y009914D01*
X006716Y009961D01*
X006594Y010003D01*
X006471Y010042D01*
X006346Y010077D01*
X006221Y010108D01*
X006094Y010136D01*
X005967Y010159D01*
X005839Y010179D01*
X005711Y010195D01*
X005582Y010207D01*
X005453Y010215D01*
X005324Y010219D01*
X005194Y010219D01*
X005065Y010215D01*
X004936Y010207D01*
X004807Y010195D01*
X004679Y010179D01*
X004551Y010159D01*
X004424Y010136D01*
X004297Y010108D01*
X004172Y010077D01*
X004047Y010042D01*
X003924Y010003D01*
X003802Y009961D01*
X003681Y009914D01*
X003562Y009864D01*
X003444Y009811D01*
X003328Y009754D01*
X003214Y009693D01*
X003101Y009629D01*
X002991Y009561D01*
X002883Y009491D01*
X002777Y009416D01*
X002673Y009339D01*
X002572Y009259D01*
X002473Y009175D01*
X002377Y009089D01*
X002283Y008999D01*
X002192Y008907D01*
X002105Y008812D01*
X002020Y008715D01*
X001938Y008615D01*
X001859Y008512D01*
X001783Y008407D01*
X001711Y008300D01*
X001641Y008191D01*
X001576Y008079D01*
X001513Y007966D01*
X001454Y007851D01*
X001399Y007734D01*
X001347Y007615D01*
X001299Y007495D01*
X001255Y007374D01*
X001214Y007251D01*
X001177Y007127D01*
X001144Y007002D01*
X001115Y006876D01*
X001090Y006749D01*
X001068Y006621D01*
X001050Y006493D01*
X001037Y006365D01*
X001027Y006236D01*
X001021Y006107D01*
X001019Y005977D01*
X001021Y005848D01*
X001027Y005719D01*
X001037Y005590D01*
X001051Y005461D01*
X001069Y005333D01*
X001090Y005205D01*
X001116Y005079D01*
X001145Y004953D01*
X001178Y004828D01*
X001215Y004704D01*
X001256Y004581D01*
X001301Y004459D01*
X001349Y004339D01*
X001401Y004221D01*
X001456Y004104D01*
X001515Y003989D01*
X001578Y003876D01*
X001643Y003764D01*
X001713Y003655D01*
X001785Y003548D01*
X001861Y003443D01*
X001940Y003341D01*
X002022Y003241D01*
X002107Y003143D01*
X002195Y003048D01*
X002286Y002956D01*
X002379Y002867D01*
X002476Y002780D01*
X002575Y002697D01*
X002676Y002617D01*
X002780Y002539D01*
X002886Y002465D01*
X002994Y002395D01*
X003104Y002327D01*
X003217Y002263D01*
X003331Y002203D01*
X003447Y002146D01*
X003565Y002092D01*
X003684Y002042D01*
X003684Y000861D01*
M02*
