G75*
%MOIN*%
%OFA0B0*%
%FSLAX24Y24*%
%IPPOS*%
%LPD*%
%AMOC8*
5,1,8,0,0,1.08239X$1,22.5*
%
%ADD10R,0.0394X0.0551*%
%ADD11R,0.0512X0.0591*%
%ADD12R,0.0591X0.0787*%
%ADD13R,0.0591X0.0591*%
%ADD14C,0.0550*%
%ADD15C,0.0160*%
%ADD16OC8,0.0356*%
%ADD17C,0.0120*%
%ADD18OC8,0.0413*%
D10*
X002326Y001215D03*
X002700Y002081D03*
X003074Y001215D03*
X007444Y001215D03*
X007818Y002081D03*
X008192Y001215D03*
D11*
X008625Y004404D03*
X009373Y004404D03*
X007405Y004404D03*
X006657Y004404D03*
X003862Y004404D03*
X003113Y004404D03*
X001893Y004404D03*
X001145Y004404D03*
D12*
X002110Y003223D03*
X003291Y003223D03*
X007228Y003223D03*
X008409Y003223D03*
D13*
X008999Y006077D03*
X008999Y007455D03*
X001519Y007455D03*
X001519Y006077D03*
D14*
X005259Y009522D03*
X005259Y001648D03*
D15*
X003507Y001648D01*
X003074Y001215D01*
X002700Y002081D02*
X002700Y002105D01*
X002338Y002467D01*
X002338Y002995D01*
X002110Y003223D01*
X002110Y004187D01*
X001893Y004404D01*
X001145Y004404D02*
X001145Y005703D01*
X001519Y006077D01*
X001519Y007455D02*
X003192Y007455D01*
X003862Y006786D01*
X003862Y004404D01*
X003291Y004227D02*
X003291Y003223D01*
X005582Y003223D01*
X006338Y002467D01*
X006338Y002321D01*
X007444Y001215D01*
X007818Y002081D02*
X007952Y002081D01*
X008338Y002467D01*
X008338Y003152D01*
X008409Y003223D01*
X008409Y004187D01*
X008625Y004404D01*
X009373Y004404D02*
X009373Y005703D01*
X008999Y006077D01*
X008999Y007455D02*
X007326Y007455D01*
X006657Y006786D01*
X006657Y004404D01*
X006338Y003467D02*
X006582Y003223D01*
X007228Y003223D01*
X007228Y004227D01*
X007405Y004404D01*
X007326Y007455D02*
X005259Y009522D01*
X003192Y007455D01*
X003113Y004404D02*
X003291Y004227D01*
X002287Y001254D02*
X001913Y001254D01*
X001716Y001451D01*
X002287Y001254D02*
X002326Y001215D01*
X008192Y001215D02*
X008232Y001254D01*
X008802Y001254D01*
D16*
X001716Y001451D03*
X003192Y007455D03*
X001913Y013459D03*
X007326Y007455D03*
X008802Y001254D03*
D17*
X008999Y007455D02*
X007523Y007455D01*
X007424Y007554D01*
X005259Y009522D02*
X003094Y009522D01*
X001913Y010703D01*
X001913Y013459D01*
D18*
X006338Y003467D03*
M02*
