G75*
%MOIN*%
%OFA0B0*%
%FSLAX24Y24*%
%IPPOS*%
%LPD*%
%AMOC8*
5,1,8,0,0,1.08239X$1,22.5*
%
%ADD10C,0.0000*%
D10*
X000731Y000325D02*
X034442Y000325D01*
X034442Y019760D01*
X000731Y019760D01*
X000731Y000325D01*
X000850Y006575D02*
X000852Y006624D01*
X000858Y006672D01*
X000868Y006720D01*
X000882Y006767D01*
X000899Y006813D01*
X000920Y006857D01*
X000945Y006899D01*
X000973Y006939D01*
X001005Y006977D01*
X001039Y007012D01*
X001076Y007044D01*
X001115Y007073D01*
X001157Y007099D01*
X001201Y007121D01*
X001246Y007139D01*
X001293Y007154D01*
X001340Y007165D01*
X001389Y007172D01*
X001438Y007175D01*
X001487Y007174D01*
X001535Y007169D01*
X001584Y007160D01*
X001631Y007147D01*
X001677Y007130D01*
X001721Y007110D01*
X001764Y007086D01*
X001805Y007059D01*
X001843Y007028D01*
X001879Y006995D01*
X001911Y006959D01*
X001941Y006920D01*
X001968Y006879D01*
X001991Y006835D01*
X002010Y006790D01*
X002026Y006744D01*
X002038Y006697D01*
X002046Y006648D01*
X002050Y006599D01*
X002050Y006551D01*
X002046Y006502D01*
X002038Y006453D01*
X002026Y006406D01*
X002010Y006360D01*
X001991Y006315D01*
X001968Y006271D01*
X001941Y006230D01*
X001911Y006191D01*
X001879Y006155D01*
X001843Y006122D01*
X001805Y006091D01*
X001764Y006064D01*
X001721Y006040D01*
X001677Y006020D01*
X001631Y006003D01*
X001584Y005990D01*
X001535Y005981D01*
X001487Y005976D01*
X001438Y005975D01*
X001389Y005978D01*
X001340Y005985D01*
X001293Y005996D01*
X001246Y006011D01*
X001201Y006029D01*
X001157Y006051D01*
X001115Y006077D01*
X001076Y006106D01*
X001039Y006138D01*
X001005Y006173D01*
X000973Y006211D01*
X000945Y006251D01*
X000920Y006293D01*
X000899Y006337D01*
X000882Y006383D01*
X000868Y006430D01*
X000858Y006478D01*
X000852Y006526D01*
X000850Y006575D01*
X001720Y009084D02*
X001722Y009111D01*
X001728Y009138D01*
X001737Y009164D01*
X001750Y009188D01*
X001766Y009211D01*
X001785Y009230D01*
X001807Y009247D01*
X001831Y009261D01*
X001856Y009271D01*
X001883Y009278D01*
X001910Y009281D01*
X001938Y009280D01*
X001965Y009275D01*
X001991Y009267D01*
X002015Y009255D01*
X002038Y009239D01*
X002059Y009221D01*
X002076Y009200D01*
X002091Y009176D01*
X002102Y009151D01*
X002110Y009125D01*
X002114Y009098D01*
X002114Y009070D01*
X002110Y009043D01*
X002102Y009017D01*
X002091Y008992D01*
X002076Y008968D01*
X002059Y008947D01*
X002038Y008929D01*
X002016Y008913D01*
X001991Y008901D01*
X001965Y008893D01*
X001938Y008888D01*
X001910Y008887D01*
X001883Y008890D01*
X001856Y008897D01*
X001831Y008907D01*
X001807Y008921D01*
X001785Y008938D01*
X001766Y008957D01*
X001750Y008980D01*
X001737Y009004D01*
X001728Y009030D01*
X001722Y009057D01*
X001720Y009084D01*
X001720Y010265D02*
X001722Y010292D01*
X001728Y010319D01*
X001737Y010345D01*
X001750Y010369D01*
X001766Y010392D01*
X001785Y010411D01*
X001807Y010428D01*
X001831Y010442D01*
X001856Y010452D01*
X001883Y010459D01*
X001910Y010462D01*
X001938Y010461D01*
X001965Y010456D01*
X001991Y010448D01*
X002015Y010436D01*
X002038Y010420D01*
X002059Y010402D01*
X002076Y010381D01*
X002091Y010357D01*
X002102Y010332D01*
X002110Y010306D01*
X002114Y010279D01*
X002114Y010251D01*
X002110Y010224D01*
X002102Y010198D01*
X002091Y010173D01*
X002076Y010149D01*
X002059Y010128D01*
X002038Y010110D01*
X002016Y010094D01*
X001991Y010082D01*
X001965Y010074D01*
X001938Y010069D01*
X001910Y010068D01*
X001883Y010071D01*
X001856Y010078D01*
X001831Y010088D01*
X001807Y010102D01*
X001785Y010119D01*
X001766Y010138D01*
X001750Y010161D01*
X001737Y010185D01*
X001728Y010211D01*
X001722Y010238D01*
X001720Y010265D01*
X001000Y018675D02*
X001002Y018724D01*
X001008Y018772D01*
X001018Y018820D01*
X001032Y018867D01*
X001049Y018913D01*
X001070Y018957D01*
X001095Y018999D01*
X001123Y019039D01*
X001155Y019077D01*
X001189Y019112D01*
X001226Y019144D01*
X001265Y019173D01*
X001307Y019199D01*
X001351Y019221D01*
X001396Y019239D01*
X001443Y019254D01*
X001490Y019265D01*
X001539Y019272D01*
X001588Y019275D01*
X001637Y019274D01*
X001685Y019269D01*
X001734Y019260D01*
X001781Y019247D01*
X001827Y019230D01*
X001871Y019210D01*
X001914Y019186D01*
X001955Y019159D01*
X001993Y019128D01*
X002029Y019095D01*
X002061Y019059D01*
X002091Y019020D01*
X002118Y018979D01*
X002141Y018935D01*
X002160Y018890D01*
X002176Y018844D01*
X002188Y018797D01*
X002196Y018748D01*
X002200Y018699D01*
X002200Y018651D01*
X002196Y018602D01*
X002188Y018553D01*
X002176Y018506D01*
X002160Y018460D01*
X002141Y018415D01*
X002118Y018371D01*
X002091Y018330D01*
X002061Y018291D01*
X002029Y018255D01*
X001993Y018222D01*
X001955Y018191D01*
X001914Y018164D01*
X001871Y018140D01*
X001827Y018120D01*
X001781Y018103D01*
X001734Y018090D01*
X001685Y018081D01*
X001637Y018076D01*
X001588Y018075D01*
X001539Y018078D01*
X001490Y018085D01*
X001443Y018096D01*
X001396Y018111D01*
X001351Y018129D01*
X001307Y018151D01*
X001265Y018177D01*
X001226Y018206D01*
X001189Y018238D01*
X001155Y018273D01*
X001123Y018311D01*
X001095Y018351D01*
X001070Y018393D01*
X001049Y018437D01*
X001032Y018483D01*
X001018Y018530D01*
X001008Y018578D01*
X001002Y018626D01*
X001000Y018675D01*
X022957Y010391D02*
X022959Y010416D01*
X022965Y010440D01*
X022974Y010462D01*
X022987Y010483D01*
X023003Y010502D01*
X023022Y010518D01*
X023043Y010531D01*
X023065Y010540D01*
X023089Y010546D01*
X023114Y010548D01*
X023139Y010546D01*
X023163Y010540D01*
X023185Y010531D01*
X023206Y010518D01*
X023225Y010502D01*
X023241Y010483D01*
X023254Y010462D01*
X023263Y010440D01*
X023269Y010416D01*
X023271Y010391D01*
X023269Y010366D01*
X023263Y010342D01*
X023254Y010320D01*
X023241Y010299D01*
X023225Y010280D01*
X023206Y010264D01*
X023185Y010251D01*
X023163Y010242D01*
X023139Y010236D01*
X023114Y010234D01*
X023089Y010236D01*
X023065Y010242D01*
X023043Y010251D01*
X023022Y010264D01*
X023003Y010280D01*
X022987Y010299D01*
X022974Y010320D01*
X022965Y010342D01*
X022959Y010366D01*
X022957Y010391D01*
X025377Y012811D02*
X025379Y012836D01*
X025385Y012860D01*
X025394Y012882D01*
X025407Y012903D01*
X025423Y012922D01*
X025442Y012938D01*
X025463Y012951D01*
X025485Y012960D01*
X025509Y012966D01*
X025534Y012968D01*
X025559Y012966D01*
X025583Y012960D01*
X025605Y012951D01*
X025626Y012938D01*
X025645Y012922D01*
X025661Y012903D01*
X025674Y012882D01*
X025683Y012860D01*
X025689Y012836D01*
X025691Y012811D01*
X025689Y012786D01*
X025683Y012762D01*
X025674Y012740D01*
X025661Y012719D01*
X025645Y012700D01*
X025626Y012684D01*
X025605Y012671D01*
X025583Y012662D01*
X025559Y012656D01*
X025534Y012654D01*
X025509Y012656D01*
X025485Y012662D01*
X025463Y012671D01*
X025442Y012684D01*
X025423Y012700D01*
X025407Y012719D01*
X025394Y012740D01*
X025385Y012762D01*
X025379Y012786D01*
X025377Y012811D01*
X033323Y013734D02*
X033325Y013760D01*
X033331Y013786D01*
X033341Y013811D01*
X033354Y013834D01*
X033370Y013854D01*
X033390Y013872D01*
X033412Y013887D01*
X033435Y013899D01*
X033461Y013907D01*
X033487Y013911D01*
X033513Y013911D01*
X033539Y013907D01*
X033565Y013899D01*
X033589Y013887D01*
X033610Y013872D01*
X033630Y013854D01*
X033646Y013834D01*
X033659Y013811D01*
X033669Y013786D01*
X033675Y013760D01*
X033677Y013734D01*
X033675Y013708D01*
X033669Y013682D01*
X033659Y013657D01*
X033646Y013634D01*
X033630Y013614D01*
X033610Y013596D01*
X033588Y013581D01*
X033565Y013569D01*
X033539Y013561D01*
X033513Y013557D01*
X033487Y013557D01*
X033461Y013561D01*
X033435Y013569D01*
X033411Y013581D01*
X033390Y013596D01*
X033370Y013614D01*
X033354Y013634D01*
X033341Y013657D01*
X033331Y013682D01*
X033325Y013708D01*
X033323Y013734D01*
X033323Y014915D02*
X033325Y014941D01*
X033331Y014967D01*
X033341Y014992D01*
X033354Y015015D01*
X033370Y015035D01*
X033390Y015053D01*
X033412Y015068D01*
X033435Y015080D01*
X033461Y015088D01*
X033487Y015092D01*
X033513Y015092D01*
X033539Y015088D01*
X033565Y015080D01*
X033589Y015068D01*
X033610Y015053D01*
X033630Y015035D01*
X033646Y015015D01*
X033659Y014992D01*
X033669Y014967D01*
X033675Y014941D01*
X033677Y014915D01*
X033675Y014889D01*
X033669Y014863D01*
X033659Y014838D01*
X033646Y014815D01*
X033630Y014795D01*
X033610Y014777D01*
X033588Y014762D01*
X033565Y014750D01*
X033539Y014742D01*
X033513Y014738D01*
X033487Y014738D01*
X033461Y014742D01*
X033435Y014750D01*
X033411Y014762D01*
X033390Y014777D01*
X033370Y014795D01*
X033354Y014815D01*
X033341Y014838D01*
X033331Y014863D01*
X033325Y014889D01*
X033323Y014915D01*
X032900Y019025D02*
X032902Y019074D01*
X032908Y019122D01*
X032918Y019170D01*
X032932Y019217D01*
X032949Y019263D01*
X032970Y019307D01*
X032995Y019349D01*
X033023Y019389D01*
X033055Y019427D01*
X033089Y019462D01*
X033126Y019494D01*
X033165Y019523D01*
X033207Y019549D01*
X033251Y019571D01*
X033296Y019589D01*
X033343Y019604D01*
X033390Y019615D01*
X033439Y019622D01*
X033488Y019625D01*
X033537Y019624D01*
X033585Y019619D01*
X033634Y019610D01*
X033681Y019597D01*
X033727Y019580D01*
X033771Y019560D01*
X033814Y019536D01*
X033855Y019509D01*
X033893Y019478D01*
X033929Y019445D01*
X033961Y019409D01*
X033991Y019370D01*
X034018Y019329D01*
X034041Y019285D01*
X034060Y019240D01*
X034076Y019194D01*
X034088Y019147D01*
X034096Y019098D01*
X034100Y019049D01*
X034100Y019001D01*
X034096Y018952D01*
X034088Y018903D01*
X034076Y018856D01*
X034060Y018810D01*
X034041Y018765D01*
X034018Y018721D01*
X033991Y018680D01*
X033961Y018641D01*
X033929Y018605D01*
X033893Y018572D01*
X033855Y018541D01*
X033814Y018514D01*
X033771Y018490D01*
X033727Y018470D01*
X033681Y018453D01*
X033634Y018440D01*
X033585Y018431D01*
X033537Y018426D01*
X033488Y018425D01*
X033439Y018428D01*
X033390Y018435D01*
X033343Y018446D01*
X033296Y018461D01*
X033251Y018479D01*
X033207Y018501D01*
X033165Y018527D01*
X033126Y018556D01*
X033089Y018588D01*
X033055Y018623D01*
X033023Y018661D01*
X032995Y018701D01*
X032970Y018743D01*
X032949Y018787D01*
X032932Y018833D01*
X032918Y018880D01*
X032908Y018928D01*
X032902Y018976D01*
X032900Y019025D01*
M02*
