G75*
%MOIN*%
%OFA0B0*%
%FSLAX24Y24*%
%IPPOS*%
%LPD*%
%AMOC8*
5,1,8,0,0,1.08239X$1,22.5*
%
%ADD10C,0.0434*%
%ADD11R,0.1040X0.0540*%
%ADD12R,0.0290X0.0540*%
%ADD13R,0.0715X0.0715*%
%ADD14C,0.0715*%
%ADD15R,0.0946X0.0237*%
%ADD16R,0.1418X0.1418*%
%ADD17R,0.0178X0.1540*%
%ADD18R,0.0060X0.0720*%
%ADD19R,0.0500X0.0670*%
%ADD20C,0.0640*%
%ADD21R,0.1600X0.1600*%
%ADD22R,0.1290X0.1290*%
%ADD23R,0.1024X0.1339*%
%ADD24C,0.0355*%
%ADD25R,0.0631X0.0355*%
%ADD26R,0.0591X0.0749*%
%ADD27R,0.0788X0.0591*%
%ADD28C,0.1240*%
%ADD29C,0.0390*%
%ADD30C,0.0740*%
%ADD31R,0.0740X0.1390*%
%ADD32R,0.1390X0.0740*%
%ADD33R,0.0631X0.0316*%
%ADD34R,0.0276X0.0434*%
%ADD35R,0.0355X0.0434*%
%ADD36C,0.0394*%
%ADD37C,0.0380*%
%ADD38R,0.0540X0.0290*%
%ADD39C,0.0700*%
D10*
X001917Y009084D03*
X001917Y010265D03*
D11*
X002450Y002575D03*
D12*
X013100Y004025D03*
X013750Y005275D03*
X018050Y004875D03*
X018350Y002725D03*
X022800Y007525D03*
X024700Y008675D03*
X025200Y008275D03*
X027200Y007475D03*
X027050Y006675D03*
X028250Y008825D03*
X025850Y009875D03*
X025950Y010575D03*
X026400Y010575D03*
X024800Y009875D03*
X020700Y009475D03*
X017300Y009325D03*
X016595Y009486D03*
X016147Y009380D03*
X015673Y009418D03*
X013245Y008800D03*
X012800Y009575D03*
X013600Y011025D03*
X030240Y014925D03*
D13*
X019700Y000975D03*
D14*
X018700Y000975D03*
X017700Y000975D03*
X016700Y000975D03*
X015700Y000975D03*
X014700Y000975D03*
D15*
X031613Y008923D03*
X031613Y009238D03*
X031613Y009552D03*
X031613Y009867D03*
X031613Y010182D03*
D16*
X031534Y011560D03*
X033306Y011560D03*
X033306Y007545D03*
X031534Y007545D03*
D17*
X029046Y017052D03*
X028770Y017052D03*
X028495Y017052D03*
X028219Y017052D03*
X027944Y017052D03*
X027668Y017052D03*
X027393Y017052D03*
X027117Y017052D03*
X026841Y017052D03*
X026566Y017052D03*
X026290Y017052D03*
X026015Y017052D03*
X025739Y017052D03*
X025463Y017052D03*
X025188Y017052D03*
X024912Y017052D03*
X024637Y017052D03*
X024361Y017052D03*
X024085Y017052D03*
X023810Y017052D03*
X023534Y017052D03*
X023259Y017052D03*
X022983Y017052D03*
X022707Y017052D03*
X022432Y017052D03*
X022156Y017052D03*
X021881Y017052D03*
X021605Y017052D03*
X021330Y017052D03*
X021054Y017052D03*
D18*
X026100Y015475D03*
D19*
X025800Y015475D03*
X026400Y015475D03*
D20*
X012838Y015197D02*
X012838Y015797D01*
X010938Y015797D02*
X010938Y015197D01*
X010938Y017953D02*
X010938Y018553D01*
X012838Y018553D02*
X012838Y017953D01*
X006128Y018837D02*
X005528Y018837D01*
X003372Y018837D02*
X002772Y018837D01*
D21*
X016850Y016875D03*
D22*
X019950Y016875D03*
X013750Y016875D03*
D23*
X024000Y013425D03*
X024000Y010425D03*
D24*
X023114Y010391D03*
X025534Y012811D03*
D25*
X032163Y006137D03*
X032163Y005704D03*
X032241Y005271D03*
X032163Y004838D03*
X032241Y004404D03*
X032163Y003971D03*
X032005Y003538D03*
X032163Y003105D03*
D26*
X028107Y003574D03*
X028107Y005818D03*
D27*
X033285Y006448D03*
X033678Y001271D03*
D28*
X033500Y019025D03*
X001600Y018675D03*
X001450Y006575D03*
D29*
X031950Y015739D03*
X031950Y016211D03*
D30*
X031100Y013075D03*
D31*
X033500Y017075D03*
D32*
X031550Y014025D03*
D33*
X032811Y014030D03*
X032811Y013439D03*
X032811Y015211D03*
D34*
X033894Y015762D03*
X033894Y012888D03*
D35*
X033067Y012888D03*
X033067Y015762D03*
D36*
X033500Y014915D03*
X033500Y013734D03*
D37*
X031350Y017825D03*
D38*
X025876Y013734D03*
X026800Y009675D03*
X026410Y008455D03*
X026410Y008075D03*
X026410Y007725D03*
X027250Y008125D03*
X026450Y006525D03*
X026450Y006175D03*
X026450Y005795D03*
X026200Y005425D03*
X026050Y004925D03*
X026300Y004125D03*
X025550Y004125D03*
X025750Y003225D03*
X025000Y003275D03*
X022000Y004625D03*
X022000Y005175D03*
X022350Y007375D03*
X022100Y008025D03*
X023650Y007375D03*
X023900Y009075D03*
X017650Y007275D03*
X016450Y006425D03*
X016200Y006975D03*
X016150Y005375D03*
X016150Y004875D03*
X016350Y003475D03*
X016350Y003075D03*
X016350Y002525D03*
X017550Y003025D03*
X020050Y002675D03*
X020650Y002675D03*
X014050Y003325D03*
X013300Y003325D03*
D39*
X021850Y000925D03*
X022850Y000925D03*
X023850Y000925D03*
X024850Y000925D03*
X025850Y000925D03*
X026850Y000925D03*
X027850Y000925D03*
M02*
