%
M48
M72
T01C0.0120
T02C0.0140
T03C0.0150
T04C0.0276
T05C0.0315
T06C0.0354
T07C0.0394
T08C0.0400
T09C0.0450
T10C0.1200
%
T01
X1400Y2625
X2450Y2575
X1450Y3825
X3950Y3825
X4450Y3825
X5950Y2825
X6350Y1725
X7800Y1575
X7950Y1925
X10435Y2375
X10500Y1725
X12750Y2625
X13300Y3325
X14050Y3325
X13100Y4025
X13000Y4775
X13750Y4875
X13750Y5375
X13750Y6475
X14500Y6475
X13500Y6975
X14450Y7325
X14100Y7825
X13605Y8710
X13235Y8785
X12550Y9125
X12800Y9425
X11750Y10125
X12650Y10325
X13900Y11025
X14300Y10075
X14824Y10150
X15670Y9401
X16145Y9396
X16595Y9486
X17300Y9325
X17850Y9075
X16578Y8848
X17150Y10025
X16516Y10199
X19100Y10875
X19600Y10875
X19600Y11375
X19100Y11375
X18600Y11975
X17500Y12700
X18900Y12925
X19750Y13325
X20100Y12875
X21905Y12475
X22850Y12825
X23950Y11675
X24500Y11515
X25450Y10825
X25950Y10575
X26400Y10575
X26750Y10775
X27700Y10325
X26750Y9825
X27300Y9525
X27250Y8615
X27621Y8125
X27750Y7675
X27650Y7375
X27200Y7425
X26150Y7375
X25615Y7375
X24750Y7775
X24500Y8175
X25200Y8275
X25550Y8475
X25850Y8475
X26273Y8459
X25975Y8170
X27700Y6875
X27050Y6675
X27650Y5925
X27600Y5525
X27750Y5175
X28650Y4975
X29050Y5115
X28750Y5725
X28750Y6725
X28950Y7815
X29250Y8225
X28850Y8675
X30250Y9065
X30600Y9475
X30300Y9825
X29485Y10620
X28820Y10825
X31480Y11335
X31480Y12085
X30700Y12575
X30150Y12575
X32655Y13030
X33350Y14275
X33830Y14385
X31300Y14525
X30240Y14930
X30600Y15725
X31350Y16575
X31350Y17225
X30550Y17475
X30455Y18280
X30455Y19130
X31600Y19075
X32305Y19280
X32305Y18830
X32780Y18535
X33050Y18175
X33450Y16825
X34180Y16885
X28750Y15825
X28300Y15125
X28550Y14475
X27355Y13680
X25876Y13734
X25205Y13565
X24735Y14175
X25455Y15470
X26905Y15030
X27150Y15425
X23885Y15495
X23535Y16045
X22640Y15710
X22717Y15125
X22385Y14495
X22200Y14125
X21800Y15275
X20550Y15775
X19800Y15775
X19500Y14825
X17600Y14875
X21750Y15975
X20550Y17825
X19900Y18025
X19600Y18675
X19900Y19325
X21750Y18075
X22400Y18075
X22900Y18175
X23050Y18575
X23980Y18090
X24530Y18090
X26250Y18475
X27850Y18675
X28350Y18325
X18950Y17825
X13450Y14325
X13150Y13875
X11450Y14325
X10010Y14400
X9050Y15075
X9100Y15675
X10000Y15625
X8200Y15725
X7300Y15075
X6750Y14625
X5500Y15225
X4450Y16325
X2950Y16825
X2750Y16025
X1450Y16325
X2950Y17825
X4450Y17825
X7050Y16775
X7500Y16825
X7950Y17275
X8250Y16825
X8450Y14375
X7950Y13525
X8200Y13275
X7600Y13025
X5900Y13075
X5450Y13425
X5000Y14075
X2750Y14525
X1300Y13975
X5800Y12175
X6450Y10825
X5950Y10325
X6650Y9375
X8100Y9525
X8450Y9825
X8950Y9825
X8950Y9325
X8950Y8825
X9450Y8825
X9950Y8825
X10450Y8825
X9950Y10325
X10450Y11275
X11250Y11825
X11900Y12375
X11050Y13075
X10195Y12550
X9400Y11975
X10000Y13425
X15900Y12475
X20100Y11375
X20650Y11125
X20100Y10875
X22095Y10865
X23025Y11410
X24800Y9875
X25350Y9575
X25850Y9875
X24150Y9575
X23900Y9075
X22085Y9730
X20700Y9475
X21000Y8825
X19850Y8825
X19400Y9075
X22250Y8025
X22800Y7625
X23150Y7475
X22480Y7375
X20665Y7325
X20350Y7325
X19890Y7325
X19560Y7325
X18440Y7235
X17650Y7275
X16435Y6430
X15900Y6325
X17000Y6275
X17650Y6025
X18350Y6025
X19450Y5175
X18760Y4625
X18600Y4125
X18100Y4125
X17900Y3775
X18945Y3330
X19550Y3625
X20200Y3575
X20550Y3775
X20200Y4175
X20800Y4575
X20700Y5175
X22000Y5175
X22000Y4625
X23700Y4375
X24150Y4125
X24250Y3575
X23750Y3465
X23800Y3065
X24300Y2675
X24650Y2925
X25000Y3275
X25650Y3125
X26150Y2925
X25900Y2425
X24850Y2425
X24850Y1625
X23400Y1525
X22950Y1565
X22050Y1575
X21300Y2125
X20650Y2675
X20050Y2675
X19550Y2875
X19250Y2425
X18650Y1875
X18200Y1375
X17250Y2575
X17550Y3025
X16800Y3275
X16350Y3475
X16350Y3075
X16350Y2525
X15550Y1925
X15850Y1525
X14800Y2325
X14100Y1825
X11550Y4225
X10700Y4825
X10100Y4275
X8950Y4325
X8000Y3575
X6450Y5025
X5400Y5925
X6050Y6325
X4950Y7075
X5400Y7925
X5800Y7925
X6200Y7725
X6650Y7925
X8200Y8025
X11250Y7025
X11750Y6625
X12250Y7375
X15450Y7825
X16200Y6975
X16150Y5375
X17050Y5275
X17650Y4925
X18050Y4875
X19200Y4275
X18350Y2725
X16150Y4475
X16150Y4875
X11550Y5325
X4450Y1325
X3750Y7975
X2500Y9825
X3450Y10825
X20650Y1025
X22450Y2275
X22035Y2880
X22050Y3475
X22800Y2925
X25800Y4075
X26350Y4125
X26900Y4075
X27500Y4115
X27600Y4475
X28050Y4625
X29650Y3875
X28250Y3565
X27500Y3625
X26650Y3575
X26300Y3575
X26050Y4925
X26200Y5425
X25650Y5875
X25050Y6075
X24500Y6475
X24150Y6475
X23150Y6075
X22800Y6275
X24250Y4925
X29150Y1875
X30400Y1425
X31450Y2315
X32850Y2625
X32900Y2275
X33300Y3325
X33700Y3765
X33950Y4225
X34000Y4865
X32800Y4725
X32200Y5725
X30600Y5125
X30450Y7815
X31450Y7815
X32050Y8565
X33300Y8825
X33750Y9115
X33000Y9525
X33750Y9665
X33550Y10065
X32400Y10625
X33880Y11535
X27390Y12415
X26450Y12325
X32950Y815
T02
X31350Y17825
T03
X31950Y16211
X31950Y15739
T04
X31100Y13075
T05
X25534Y12811
X23114Y10391
T06
X33500Y13734
X33500Y14915
T07
X27850Y925
X26850Y925
X25850Y925
X24850Y925
X23850Y925
X22850Y925
X21850Y925
X1917Y9084
X1917Y10265
T08
X10938Y15497
X12838Y15497
X12838Y18253
X10938Y18253
X5828Y18837
X3072Y18837
T09
X14700Y975
X15700Y975
X16700Y975
X17700Y975
X18700Y975
X19700Y975
T10
X1450Y6575
X1600Y18675
X33500Y19025
M30
