%
M48
M72
T01C0.0120
T02C0.0140
T03C0.0200
T04C0.0394
T05C0.0400
%
T01
X9055Y18483
T02
X9449Y11417
T03
X5700Y6300
X3700Y4400
X3950Y10750
X2700Y13100
X3900Y12050
X4500Y13100
X6800Y17450
X4400Y1900
X6400Y6000
X5400Y4300
X1250Y4250
X1850Y3000
X3100Y12050
X6200Y14150
X3250Y14350
X4150Y4050
X5250Y7150
X3000Y5950
X1250Y3000
X5800Y1900
X6350Y16250
X5150Y10400
X4050Y2550
X3543Y1969
X1100Y14250
X1100Y10550
X2550Y14400
X1850Y11800
X5500Y12050
X5350Y14400
X3900Y12750
X4950Y12050
X4150Y7450
X550Y10600
X550Y14250
X3900Y14350
X1800Y14350
X2300Y12750
X4950Y12750
X2300Y12050
X6150Y12750
X700Y3000
X700Y4250
X2650Y1900
X2800Y4200
X7150Y3100
X4850Y7450
X3450Y7450
X4500Y10500
T04
X3493Y18513
X4674Y18513
X8268Y18524
X8268Y17524
X8268Y16524
X8268Y15524
X8268Y14524
X8268Y13524
X8268Y12524
X8268Y11524
X8268Y10524
X8268Y9524
X8268Y8524
X8268Y7524
X8268Y6524
X8268Y5524
X8268Y4524
X8268Y3524
X11024Y16535
T05
X16929Y5524
X16929Y6524
X16929Y7524
X16929Y8524
X16929Y9524
X16929Y10524
X16929Y11524
X16929Y12524
X16929Y13524
X16929Y14524
X16929Y15524
X16929Y16524
M30
