G75*
G70*
%OFA0B0*%
%FSLAX24Y24*%
%IPPOS*%
%LPD*%
%AMOC8*
5,1,8,0,0,1.08239X$1,22.5*
%
%ADD10C,0.0040*%
%ADD11C,0.0000*%
%ADD12C,0.0050*%
%ADD13C,0.0010*%
%ADD14C,0.0080*%
%ADD15C,0.0030*%
%ADD16C,0.0360*%
%ADD17C,0.0060*%
D10*
X006922Y003127D02*
X006924Y003145D01*
X006930Y003161D01*
X006939Y003176D01*
X006952Y003189D01*
X006967Y003198D01*
X006983Y003204D01*
X007001Y003206D01*
X007019Y003204D01*
X007035Y003198D01*
X007050Y003189D01*
X007063Y003176D01*
X007072Y003161D01*
X007078Y003145D01*
X007080Y003127D01*
X007078Y003109D01*
X007072Y003093D01*
X007063Y003078D01*
X007050Y003065D01*
X007035Y003056D01*
X007019Y003050D01*
X007001Y003048D01*
X006983Y003050D01*
X006967Y003056D01*
X006952Y003065D01*
X006939Y003078D01*
X006930Y003093D01*
X006924Y003109D01*
X006922Y003127D01*
X008056Y001936D02*
X008197Y001936D01*
X008243Y001889D01*
X008243Y001843D01*
X008197Y001796D01*
X008056Y001796D01*
X008056Y001656D02*
X008197Y001656D01*
X008243Y001703D01*
X008243Y001749D01*
X008197Y001796D01*
X008351Y001703D02*
X008398Y001656D01*
X008538Y001656D01*
X008538Y001796D01*
X008491Y001843D01*
X008398Y001843D01*
X008398Y001749D02*
X008538Y001749D01*
X008646Y001796D02*
X008692Y001843D01*
X008833Y001843D01*
X008786Y001749D02*
X008692Y001749D01*
X008646Y001796D01*
X008646Y001656D02*
X008786Y001656D01*
X008833Y001703D01*
X008786Y001749D01*
X008940Y001749D02*
X009127Y001749D01*
X009127Y001796D01*
X009080Y001843D01*
X008987Y001843D01*
X008940Y001796D01*
X008940Y001703D01*
X008987Y001656D01*
X009080Y001656D01*
X009235Y001703D02*
X009235Y001796D01*
X009282Y001843D01*
X009422Y001843D01*
X009422Y001936D02*
X009422Y001656D01*
X009282Y001656D01*
X009235Y001703D01*
X009824Y001703D02*
X009871Y001656D01*
X009964Y001656D01*
X010011Y001703D01*
X010011Y001796D01*
X009964Y001843D01*
X009871Y001843D01*
X009824Y001796D01*
X009824Y001703D01*
X010119Y001656D02*
X010119Y001843D01*
X010259Y001843D01*
X010306Y001796D01*
X010306Y001656D01*
X010708Y001843D02*
X010802Y001843D01*
X010755Y001889D02*
X010755Y001703D01*
X010802Y001656D01*
X010905Y001656D02*
X010905Y001936D01*
X010951Y001843D02*
X010905Y001796D01*
X010951Y001843D02*
X011045Y001843D01*
X011091Y001796D01*
X011091Y001656D01*
X011199Y001703D02*
X011199Y001796D01*
X011246Y001843D01*
X011339Y001843D01*
X011386Y001796D01*
X011386Y001749D01*
X011199Y001749D01*
X011199Y001703D02*
X011246Y001656D01*
X011339Y001656D01*
X011789Y001656D02*
X011789Y001936D01*
X011929Y001936D01*
X011975Y001889D01*
X011975Y001796D01*
X011929Y001749D01*
X011789Y001749D01*
X012083Y001749D02*
X012177Y001843D01*
X012223Y001843D01*
X012329Y001796D02*
X012329Y001703D01*
X012375Y001656D01*
X012469Y001656D01*
X012516Y001703D01*
X012516Y001796D01*
X012469Y001843D01*
X012375Y001843D01*
X012329Y001796D01*
X012083Y001843D02*
X012083Y001656D01*
X012623Y001656D02*
X012810Y001843D01*
X012918Y001843D02*
X012965Y001843D01*
X013011Y001796D01*
X013058Y001843D01*
X013105Y001796D01*
X013105Y001656D01*
X013011Y001656D02*
X013011Y001796D01*
X012918Y001843D02*
X012918Y001656D01*
X012810Y001656D02*
X012623Y001843D01*
X012704Y002435D02*
X012518Y002435D01*
X012704Y002622D01*
X012704Y002668D01*
X012658Y002715D01*
X012564Y002715D01*
X012518Y002668D01*
X012410Y002668D02*
X012410Y002622D01*
X012363Y002575D01*
X012410Y002528D01*
X012410Y002482D01*
X012363Y002435D01*
X012270Y002435D01*
X012223Y002482D01*
X012115Y002482D02*
X012115Y002668D01*
X011928Y002482D01*
X011975Y002435D01*
X012068Y002435D01*
X012115Y002482D01*
X012115Y002668D02*
X012068Y002715D01*
X011975Y002715D01*
X011928Y002668D01*
X011928Y002482D01*
X011820Y002715D02*
X011634Y002435D01*
X011339Y002435D02*
X011526Y002715D01*
X011575Y002829D02*
X011388Y002829D01*
X011388Y003109D01*
X011280Y002829D02*
X011093Y002829D01*
X011093Y003109D01*
X010986Y003109D02*
X010986Y002875D01*
X010939Y002829D01*
X010845Y002829D01*
X010799Y002875D01*
X010799Y003109D01*
X010691Y003109D02*
X010691Y002829D01*
X010504Y003109D01*
X010504Y002829D01*
X010495Y002715D02*
X010308Y002715D01*
X010401Y002715D02*
X010401Y002435D01*
X010200Y002435D02*
X010200Y002715D01*
X010200Y002575D02*
X010013Y002575D01*
X010013Y002435D02*
X010013Y002715D01*
X010013Y002829D02*
X010013Y003109D01*
X010106Y003109D01*
X010106Y002829D02*
X010013Y002829D01*
X010602Y002715D02*
X010789Y002715D01*
X010696Y002715D02*
X010696Y002435D01*
X010897Y002435D02*
X010897Y002715D01*
X011037Y002715D01*
X011084Y002668D01*
X011084Y002575D01*
X011037Y002528D01*
X010897Y002528D01*
X011192Y002482D02*
X011192Y002435D01*
X011238Y002435D01*
X011238Y002482D01*
X011192Y002482D01*
X011192Y002575D02*
X011192Y002622D01*
X011238Y002622D01*
X011238Y002575D01*
X011192Y002575D01*
X011977Y002875D02*
X012024Y002829D01*
X012117Y002829D01*
X012164Y002875D01*
X012164Y002922D01*
X012117Y002969D01*
X012024Y002969D01*
X011977Y003015D01*
X011977Y003062D01*
X012024Y003109D01*
X012117Y003109D01*
X012164Y003062D01*
X012272Y003109D02*
X012412Y003109D01*
X012459Y003062D01*
X012459Y002969D01*
X012412Y002922D01*
X012272Y002922D01*
X012272Y002829D02*
X012272Y003109D01*
X012270Y002715D02*
X012363Y002715D01*
X012410Y002668D01*
X012363Y002575D02*
X012316Y002575D01*
X012223Y002668D02*
X012270Y002715D01*
X012567Y002829D02*
X012567Y003015D01*
X012660Y003109D01*
X012753Y003015D01*
X012753Y002829D01*
X012861Y002875D02*
X012861Y003062D01*
X012908Y003109D01*
X013001Y003109D01*
X013048Y003062D01*
X013156Y003109D02*
X013156Y002829D01*
X013343Y002829D01*
X013348Y002715D02*
X013441Y002622D01*
X013441Y002435D01*
X013441Y002575D02*
X013254Y002575D01*
X013254Y002622D02*
X013348Y002715D01*
X013254Y002622D02*
X013254Y002435D01*
X013146Y002435D02*
X012960Y002435D01*
X012960Y002715D01*
X013001Y002829D02*
X012908Y002829D01*
X012861Y002875D01*
X012753Y002969D02*
X012567Y002969D01*
X013001Y002829D02*
X013048Y002875D01*
X013156Y002969D02*
X013249Y002969D01*
X013343Y003109D02*
X013156Y003109D01*
X013745Y003109D02*
X013745Y002829D01*
X013932Y002829D01*
X014040Y002829D02*
X014040Y003015D01*
X014133Y003109D01*
X014227Y003015D01*
X014227Y002829D01*
X014335Y002829D02*
X014475Y002829D01*
X014521Y002875D01*
X014521Y002922D01*
X014475Y002969D01*
X014335Y002969D01*
X014227Y002969D02*
X014040Y002969D01*
X014335Y002829D02*
X014335Y003109D01*
X014475Y003109D01*
X014521Y003062D01*
X014521Y003015D01*
X014475Y002969D01*
X014629Y003015D02*
X014676Y002969D01*
X014769Y002969D01*
X014816Y002922D01*
X014816Y002875D01*
X014769Y002829D01*
X014676Y002829D01*
X014629Y002875D01*
X014629Y003015D02*
X014629Y003062D01*
X014676Y003109D01*
X014769Y003109D01*
X014816Y003062D01*
X015218Y003109D02*
X015312Y003109D01*
X015312Y002829D01*
X015218Y002829D01*
X015224Y001936D02*
X015177Y001889D01*
X015177Y001703D01*
X015224Y001656D01*
X015317Y001656D01*
X015364Y001703D01*
X015472Y001656D02*
X015612Y001656D01*
X015658Y001703D01*
X015658Y001889D01*
X015612Y001936D01*
X015472Y001936D01*
X015472Y001656D01*
X015364Y001889D02*
X015317Y001936D01*
X015224Y001936D01*
X014882Y001936D02*
X014882Y001656D01*
X015069Y001656D01*
X014480Y001703D02*
X014433Y001656D01*
X014340Y001656D01*
X014293Y001703D01*
X014386Y001796D02*
X014433Y001796D01*
X014480Y001749D01*
X014480Y001703D01*
X014433Y001796D02*
X014480Y001843D01*
X014480Y001889D01*
X014433Y001936D01*
X014340Y001936D01*
X014293Y001889D01*
X013893Y001843D02*
X013753Y001749D01*
X013893Y001656D01*
X013753Y001656D02*
X013753Y001936D01*
X013647Y001843D02*
X013601Y001843D01*
X013507Y001749D01*
X013507Y001656D02*
X013507Y001843D01*
X013399Y001796D02*
X013399Y001656D01*
X013259Y001656D01*
X013213Y001703D01*
X013259Y001749D01*
X013399Y001749D01*
X013399Y001796D02*
X013353Y001843D01*
X013259Y001843D01*
X012859Y002435D02*
X012812Y002435D01*
X012812Y002482D01*
X012859Y002482D01*
X012859Y002435D01*
X010383Y004667D02*
X010383Y004801D01*
X010350Y004834D01*
X010283Y004834D01*
X010250Y004801D01*
X010250Y004667D01*
X010283Y004634D01*
X010350Y004634D01*
X010383Y004667D01*
X010162Y004634D02*
X010029Y004634D01*
X010029Y004834D01*
X009941Y004801D02*
X009941Y004734D01*
X009908Y004700D01*
X009808Y004700D01*
X009808Y004634D02*
X009808Y004834D01*
X009908Y004834D01*
X009941Y004801D01*
X009720Y004834D02*
X009720Y004634D01*
X009587Y004634D02*
X009587Y004834D01*
X009654Y004767D01*
X009720Y004834D01*
X009499Y004767D02*
X009499Y004634D01*
X009499Y004734D02*
X009366Y004734D01*
X009366Y004767D02*
X009433Y004834D01*
X009499Y004767D01*
X009366Y004767D02*
X009366Y004634D01*
X009401Y003870D02*
X009367Y003836D01*
X009367Y003703D01*
X009401Y003670D01*
X009467Y003670D01*
X009501Y003703D01*
X009501Y003770D01*
X009434Y003770D01*
X009501Y003836D02*
X009467Y003870D01*
X009401Y003870D01*
X009588Y003870D02*
X009588Y003670D01*
X009722Y003670D02*
X009588Y003870D01*
X009722Y003870D02*
X009722Y003670D01*
X009809Y003670D02*
X009909Y003670D01*
X009943Y003703D01*
X009943Y003836D01*
X009909Y003870D01*
X009809Y003870D01*
X009809Y003670D01*
X008056Y001936D02*
X008056Y001656D01*
X008351Y001703D02*
X008398Y001749D01*
X009366Y005604D02*
X009366Y005737D01*
X009433Y005804D01*
X009499Y005737D01*
X009499Y005604D01*
X009587Y005604D02*
X009587Y005804D01*
X009654Y005737D01*
X009720Y005804D01*
X009720Y005604D01*
X009808Y005604D02*
X009808Y005804D01*
X009908Y005804D01*
X009941Y005771D01*
X009941Y005704D01*
X009908Y005671D01*
X009808Y005671D01*
X010029Y005704D02*
X010162Y005704D01*
X010162Y005804D02*
X010162Y005604D01*
X010250Y005604D02*
X010316Y005604D01*
X010283Y005604D02*
X010283Y005804D01*
X010250Y005804D02*
X010316Y005804D01*
X010029Y005804D02*
X010029Y005604D01*
X009499Y005704D02*
X009366Y005704D01*
X009345Y006613D02*
X009479Y006813D01*
X009566Y006813D02*
X009566Y006613D01*
X009479Y006613D02*
X009345Y006813D01*
X009566Y006713D02*
X009700Y006713D01*
X009700Y006813D02*
X009700Y006613D01*
X009787Y006613D02*
X009854Y006613D01*
X009821Y006613D02*
X009821Y006813D01*
X009854Y006813D02*
X009787Y006813D01*
X009821Y007515D02*
X009887Y007515D01*
X009921Y007548D01*
X009921Y007682D01*
X009887Y007715D01*
X009821Y007715D01*
X009787Y007682D01*
X009787Y007548D01*
X009821Y007515D01*
X009700Y007515D02*
X009566Y007515D01*
X009566Y007715D01*
X009479Y007715D02*
X009345Y007515D01*
X009479Y007515D02*
X009345Y007715D01*
X009379Y008712D02*
X009345Y008745D01*
X009379Y008712D02*
X009445Y008712D01*
X009479Y008745D01*
X009479Y008778D01*
X009445Y008812D01*
X009412Y008812D01*
X009445Y008812D02*
X009479Y008845D01*
X009479Y008879D01*
X009445Y008912D01*
X009379Y008912D01*
X009345Y008879D01*
X009566Y008912D02*
X009566Y008778D01*
X009633Y008712D01*
X009700Y008778D01*
X009700Y008912D01*
X009787Y008879D02*
X009821Y008912D01*
X009887Y008912D01*
X009921Y008879D01*
X009787Y008745D01*
X009821Y008712D01*
X009887Y008712D01*
X009921Y008745D01*
X009921Y008879D01*
X009787Y008879D02*
X009787Y008745D01*
X009821Y009515D02*
X009887Y009515D01*
X009921Y009548D01*
X010008Y009515D02*
X010075Y009515D01*
X010042Y009515D02*
X010042Y009715D01*
X010075Y009715D02*
X010008Y009715D01*
X009921Y009682D02*
X009887Y009715D01*
X009821Y009715D01*
X009787Y009682D01*
X009787Y009548D01*
X009821Y009515D01*
X009700Y009548D02*
X009700Y009682D01*
X009666Y009715D01*
X009566Y009715D01*
X009566Y009515D01*
X009666Y009515D01*
X009700Y009548D01*
X009479Y009515D02*
X009479Y009648D01*
X009412Y009715D01*
X009345Y009648D01*
X009345Y009515D01*
X009345Y009615D02*
X009479Y009615D01*
X010156Y009715D02*
X010289Y009515D01*
X010289Y009715D01*
X010156Y009715D02*
X010156Y009515D01*
X010075Y010515D02*
X010008Y010515D01*
X010042Y010515D02*
X010042Y010715D01*
X010075Y010715D02*
X010008Y010715D01*
X009921Y010715D02*
X009921Y010515D01*
X009921Y010615D02*
X009787Y010615D01*
X009787Y010515D02*
X009787Y010715D01*
X009700Y010715D02*
X009566Y010515D01*
X009479Y010515D02*
X009479Y010715D01*
X009412Y010648D01*
X009345Y010715D01*
X009345Y010515D01*
X009566Y010715D02*
X009700Y010515D01*
X009700Y011515D02*
X009566Y011715D01*
X009479Y011715D02*
X009479Y011515D01*
X009566Y011515D02*
X009700Y011715D01*
X009787Y011715D02*
X009787Y011515D01*
X009921Y011515D01*
X010008Y011548D02*
X010042Y011515D01*
X010108Y011515D01*
X010142Y011548D01*
X010142Y011682D01*
X010108Y011715D01*
X010042Y011715D01*
X010008Y011682D01*
X010008Y011548D01*
X009479Y011715D02*
X009412Y011648D01*
X009345Y011715D01*
X009345Y011515D01*
X009345Y012515D02*
X009345Y012715D01*
X009445Y012715D01*
X009479Y012682D01*
X009479Y012615D01*
X009445Y012582D01*
X009345Y012582D01*
X009566Y012615D02*
X009700Y012615D01*
X009700Y012715D02*
X009700Y012515D01*
X009787Y012515D02*
X009854Y012515D01*
X009821Y012515D02*
X009821Y012715D01*
X009854Y012715D02*
X009787Y012715D01*
X009566Y012715D02*
X009566Y012515D01*
X009600Y013613D02*
X009666Y013613D01*
X009700Y013647D01*
X009700Y013780D01*
X009666Y013813D01*
X009600Y013813D01*
X009566Y013780D01*
X009566Y013647D01*
X009600Y013613D01*
X009479Y013713D02*
X009445Y013680D01*
X009345Y013680D01*
X009345Y013613D02*
X009345Y013813D01*
X009445Y013813D01*
X009479Y013780D01*
X009479Y013713D01*
X009787Y013713D02*
X009854Y013713D01*
X009787Y013613D02*
X009921Y013613D01*
X010008Y013713D02*
X010142Y013713D01*
X010108Y013613D02*
X010108Y013813D01*
X010008Y013713D01*
X009921Y013813D02*
X009787Y013813D01*
X009787Y013613D01*
X009787Y014712D02*
X009921Y014712D01*
X010008Y014745D02*
X010042Y014712D01*
X010108Y014712D01*
X010142Y014745D01*
X010142Y014778D01*
X010108Y014812D01*
X010075Y014812D01*
X010108Y014812D02*
X010142Y014845D01*
X010142Y014879D01*
X010108Y014912D01*
X010042Y014912D01*
X010008Y014879D01*
X009921Y014912D02*
X009787Y014912D01*
X009787Y014712D01*
X009700Y014745D02*
X009700Y014879D01*
X009666Y014912D01*
X009600Y014912D01*
X009566Y014879D01*
X009566Y014745D01*
X009600Y014712D01*
X009666Y014712D01*
X009700Y014745D01*
X009787Y014812D02*
X009854Y014812D01*
X009479Y014812D02*
X009445Y014778D01*
X009345Y014778D01*
X009345Y014712D02*
X009345Y014912D01*
X009445Y014912D01*
X009479Y014879D01*
X009479Y014812D01*
X009600Y015662D02*
X009666Y015662D01*
X009700Y015695D01*
X009700Y015829D01*
X009666Y015862D01*
X009600Y015862D01*
X009566Y015829D01*
X009566Y015695D01*
X009600Y015662D01*
X009479Y015762D02*
X009445Y015728D01*
X009345Y015728D01*
X009345Y015662D02*
X009345Y015862D01*
X009445Y015862D01*
X009479Y015829D01*
X009479Y015762D01*
X009787Y015762D02*
X009854Y015762D01*
X009787Y015862D02*
X009787Y015662D01*
X009921Y015662D01*
X010008Y015662D02*
X010142Y015795D01*
X010142Y015829D01*
X010108Y015862D01*
X010042Y015862D01*
X010008Y015829D01*
X009921Y015862D02*
X009787Y015862D01*
X010008Y015662D02*
X010142Y015662D01*
X010142Y016613D02*
X010008Y016613D01*
X010075Y016613D02*
X010075Y016813D01*
X010008Y016747D01*
X009921Y016813D02*
X009787Y016813D01*
X009787Y016613D01*
X009921Y016613D01*
X009854Y016713D02*
X009787Y016713D01*
X009700Y016647D02*
X009700Y016780D01*
X009666Y016813D01*
X009600Y016813D01*
X009566Y016780D01*
X009566Y016647D01*
X009600Y016613D01*
X009666Y016613D01*
X009700Y016647D01*
X009479Y016713D02*
X009445Y016680D01*
X009345Y016680D01*
X009345Y016613D02*
X009345Y016813D01*
X009445Y016813D01*
X009479Y016780D01*
X009479Y016713D01*
X008346Y017548D02*
X008346Y017682D01*
X008313Y017715D01*
X008246Y017715D01*
X008213Y017682D01*
X008213Y017548D01*
X008246Y017515D01*
X008313Y017515D01*
X008346Y017548D01*
X008125Y017515D02*
X007992Y017515D01*
X007992Y017715D01*
X007904Y017682D02*
X007904Y017615D01*
X007871Y017582D01*
X007771Y017582D01*
X007771Y017515D02*
X007771Y017715D01*
X007871Y017715D01*
X007904Y017682D01*
X007893Y018613D02*
X007993Y018613D01*
X008027Y018647D01*
X008027Y018680D01*
X007993Y018713D01*
X007893Y018713D01*
X007806Y018680D02*
X007806Y018813D01*
X007893Y018813D02*
X007893Y018613D01*
X007806Y018680D02*
X007739Y018613D01*
X007672Y018680D01*
X007672Y018813D01*
X007893Y018813D02*
X007993Y018813D01*
X008027Y018780D01*
X008027Y018747D01*
X007993Y018713D01*
X008114Y018713D02*
X008248Y018713D01*
X008248Y018747D02*
X008248Y018613D01*
X008248Y018747D02*
X008181Y018813D01*
X008114Y018747D01*
X008114Y018613D01*
X008402Y018613D02*
X008402Y018813D01*
X008335Y018813D02*
X008469Y018813D01*
X005869Y017203D02*
X005835Y017236D01*
X005769Y017236D01*
X005735Y017203D01*
X005735Y017070D01*
X005769Y017036D01*
X005835Y017036D01*
X005869Y017070D01*
X005869Y017203D01*
X005648Y017036D02*
X005514Y017036D01*
X005514Y017236D01*
X003612Y017236D02*
X003545Y017236D01*
X003579Y017236D02*
X003579Y017036D01*
X003612Y017036D02*
X003545Y017036D01*
X003458Y017036D02*
X003458Y017236D01*
X003458Y017136D02*
X003324Y017136D01*
X003324Y017036D02*
X003324Y017236D01*
X003643Y019156D02*
X003643Y019422D01*
X003643Y019816D02*
X003643Y020081D01*
X004037Y020081D01*
X004430Y020081D02*
X004824Y020081D01*
X005218Y020081D02*
X005612Y020081D01*
X005612Y019816D01*
X005612Y019422D02*
X005612Y019156D01*
X011609Y017337D02*
X011676Y017404D01*
X011676Y017204D01*
X011609Y017204D02*
X011743Y017204D01*
X011830Y017237D02*
X011863Y017204D01*
X011930Y017204D01*
X011964Y017237D01*
X011964Y017271D01*
X011930Y017304D01*
X011897Y017304D01*
X011930Y017304D02*
X011964Y017337D01*
X011964Y017371D01*
X011930Y017404D01*
X011863Y017404D01*
X011830Y017371D01*
X012051Y017237D02*
X012084Y017237D01*
X012084Y017204D01*
X012051Y017204D01*
X012051Y017237D01*
X012162Y017237D02*
X012195Y017204D01*
X012262Y017204D01*
X012295Y017237D01*
X012295Y017304D01*
X012262Y017337D01*
X012228Y017337D01*
X012162Y017304D01*
X012162Y017404D01*
X012295Y017404D01*
X012383Y017304D02*
X012383Y017237D01*
X012416Y017204D01*
X012483Y017204D01*
X012516Y017237D01*
X012516Y017271D01*
X012483Y017304D01*
X012383Y017304D01*
X012449Y017371D01*
X012516Y017404D01*
X012604Y017404D02*
X012604Y017204D01*
X012737Y017204D02*
X012737Y017404D01*
X012670Y017337D01*
X012604Y017404D01*
X012825Y017404D02*
X012825Y017204D01*
X012825Y017304D02*
X012858Y017337D01*
X012925Y017337D01*
X012958Y017304D01*
X012958Y017204D01*
X013046Y017204D02*
X013179Y017337D01*
X013046Y017337D01*
X013046Y017204D02*
X013179Y017204D01*
X018367Y016870D02*
X018367Y016670D01*
X018367Y016736D02*
X018467Y016736D01*
X018501Y016770D01*
X018501Y016836D01*
X018467Y016870D01*
X018367Y016870D01*
X018588Y016870D02*
X018588Y016670D01*
X018655Y016736D01*
X018722Y016670D01*
X018722Y016870D01*
X018809Y016870D02*
X018809Y016670D01*
X018809Y016736D02*
X018909Y016736D01*
X018943Y016770D01*
X018943Y016836D01*
X018909Y016870D01*
X018809Y016870D01*
X018876Y016736D02*
X018943Y016670D01*
X019030Y016636D02*
X019164Y016636D01*
X019251Y016703D02*
X019285Y016670D01*
X019351Y016670D01*
X019385Y016703D01*
X019385Y016836D01*
X019351Y016870D01*
X019285Y016870D01*
X019251Y016836D01*
X019251Y016703D01*
X019472Y016670D02*
X019472Y016870D01*
X019606Y016670D01*
X019606Y016870D01*
X018909Y015870D02*
X018809Y015870D01*
X018809Y015670D01*
X018909Y015670D01*
X018943Y015703D01*
X018943Y015836D01*
X018909Y015870D01*
X018722Y015870D02*
X018722Y015670D01*
X018588Y015870D01*
X018588Y015670D01*
X018501Y015703D02*
X018501Y015770D01*
X018434Y015770D01*
X018367Y015836D02*
X018367Y015703D01*
X018401Y015670D01*
X018467Y015670D01*
X018501Y015703D01*
X018501Y015836D02*
X018467Y015870D01*
X018401Y015870D01*
X018367Y015836D01*
X018434Y014870D02*
X018501Y014803D01*
X018501Y014670D01*
X018588Y014670D02*
X018588Y014870D01*
X018688Y014870D01*
X018722Y014836D01*
X018722Y014703D01*
X018688Y014670D01*
X018588Y014670D01*
X018501Y014770D02*
X018367Y014770D01*
X018367Y014803D02*
X018434Y014870D01*
X018367Y014803D02*
X018367Y014670D01*
X018809Y014703D02*
X018843Y014670D01*
X018909Y014670D01*
X018943Y014703D01*
X019030Y014636D02*
X019164Y014636D01*
X019251Y014703D02*
X019285Y014670D01*
X019351Y014670D01*
X019385Y014703D01*
X019472Y014670D02*
X019606Y014670D01*
X019693Y014670D02*
X019693Y014870D01*
X019727Y014770D02*
X019827Y014670D01*
X019693Y014736D02*
X019827Y014870D01*
X019472Y014870D02*
X019472Y014670D01*
X019385Y014836D02*
X019351Y014870D01*
X019285Y014870D01*
X019251Y014836D01*
X019251Y014703D01*
X018943Y014836D02*
X018909Y014870D01*
X018843Y014870D01*
X018809Y014836D01*
X018809Y014703D01*
X018809Y013870D02*
X018909Y013870D01*
X018943Y013836D01*
X018943Y013703D01*
X018909Y013670D01*
X018809Y013670D01*
X018809Y013870D01*
X018722Y013870D02*
X018722Y013670D01*
X018588Y013870D01*
X018588Y013670D01*
X018501Y013703D02*
X018501Y013770D01*
X018434Y013770D01*
X018367Y013836D02*
X018367Y013703D01*
X018401Y013670D01*
X018467Y013670D01*
X018501Y013703D01*
X018501Y013836D02*
X018467Y013870D01*
X018401Y013870D01*
X018367Y013836D01*
X018434Y012870D02*
X018501Y012803D01*
X018501Y012670D01*
X018588Y012670D02*
X018588Y012870D01*
X018688Y012870D01*
X018722Y012836D01*
X018722Y012703D01*
X018688Y012670D01*
X018588Y012670D01*
X018501Y012770D02*
X018367Y012770D01*
X018367Y012803D02*
X018434Y012870D01*
X018367Y012803D02*
X018367Y012670D01*
X018809Y012703D02*
X018843Y012670D01*
X018909Y012670D01*
X018943Y012703D01*
X019030Y012703D02*
X019064Y012670D01*
X019130Y012670D01*
X019164Y012703D01*
X019164Y012836D01*
X019030Y012703D01*
X019030Y012836D01*
X019064Y012870D01*
X019130Y012870D01*
X019164Y012836D01*
X018943Y012836D02*
X018909Y012870D01*
X018843Y012870D01*
X018809Y012836D01*
X018809Y012703D01*
X018843Y011870D02*
X018809Y011836D01*
X018809Y011703D01*
X018843Y011670D01*
X018909Y011670D01*
X018943Y011703D01*
X019030Y011670D02*
X019164Y011670D01*
X019097Y011670D02*
X019097Y011870D01*
X019030Y011803D01*
X018943Y011836D02*
X018909Y011870D01*
X018843Y011870D01*
X018722Y011836D02*
X018688Y011870D01*
X018588Y011870D01*
X018588Y011670D01*
X018688Y011670D01*
X018722Y011703D01*
X018722Y011836D01*
X018501Y011803D02*
X018434Y011870D01*
X018367Y011803D01*
X018367Y011670D01*
X018367Y011770D02*
X018501Y011770D01*
X018501Y011803D02*
X018501Y011670D01*
X018434Y010870D02*
X018501Y010803D01*
X018501Y010670D01*
X018588Y010670D02*
X018588Y010870D01*
X018688Y010870D01*
X018722Y010836D01*
X018722Y010703D01*
X018688Y010670D01*
X018588Y010670D01*
X018501Y010770D02*
X018367Y010770D01*
X018367Y010803D02*
X018434Y010870D01*
X018367Y010803D02*
X018367Y010670D01*
X018809Y010703D02*
X018843Y010670D01*
X018909Y010670D01*
X018943Y010703D01*
X019030Y010670D02*
X019164Y010803D01*
X019164Y010836D01*
X019130Y010870D01*
X019064Y010870D01*
X019030Y010836D01*
X018943Y010836D02*
X018909Y010870D01*
X018843Y010870D01*
X018809Y010836D01*
X018809Y010703D01*
X019030Y010670D02*
X019164Y010670D01*
X019130Y009870D02*
X019164Y009836D01*
X019164Y009803D01*
X019130Y009770D01*
X019164Y009736D01*
X019164Y009703D01*
X019130Y009670D01*
X019064Y009670D01*
X019030Y009703D01*
X018943Y009703D02*
X018909Y009670D01*
X018843Y009670D01*
X018809Y009703D01*
X018809Y009836D01*
X018843Y009870D01*
X018909Y009870D01*
X018943Y009836D01*
X019030Y009836D02*
X019064Y009870D01*
X019130Y009870D01*
X019130Y009770D02*
X019097Y009770D01*
X018722Y009703D02*
X018722Y009836D01*
X018688Y009870D01*
X018588Y009870D01*
X018588Y009670D01*
X018688Y009670D01*
X018722Y009703D01*
X018501Y009670D02*
X018501Y009803D01*
X018434Y009870D01*
X018367Y009803D01*
X018367Y009670D01*
X018367Y009770D02*
X018501Y009770D01*
X018434Y008870D02*
X018501Y008803D01*
X018501Y008670D01*
X018588Y008670D02*
X018588Y008870D01*
X018688Y008870D01*
X018722Y008836D01*
X018722Y008703D01*
X018688Y008670D01*
X018588Y008670D01*
X018501Y008770D02*
X018367Y008770D01*
X018367Y008803D02*
X018434Y008870D01*
X018367Y008803D02*
X018367Y008670D01*
X018809Y008703D02*
X018843Y008670D01*
X018909Y008670D01*
X018943Y008703D01*
X019030Y008770D02*
X019164Y008770D01*
X019130Y008670D02*
X019130Y008870D01*
X019030Y008770D01*
X018943Y008836D02*
X018909Y008870D01*
X018843Y008870D01*
X018809Y008836D01*
X018809Y008703D01*
X018843Y007870D02*
X018809Y007836D01*
X018809Y007703D01*
X018843Y007670D01*
X018909Y007670D01*
X018943Y007703D01*
X019030Y007703D02*
X019064Y007670D01*
X019130Y007670D01*
X019164Y007703D01*
X019164Y007770D01*
X019130Y007803D01*
X019097Y007803D01*
X019030Y007770D01*
X019030Y007870D01*
X019164Y007870D01*
X018943Y007836D02*
X018909Y007870D01*
X018843Y007870D01*
X018722Y007836D02*
X018688Y007870D01*
X018588Y007870D01*
X018588Y007670D01*
X018688Y007670D01*
X018722Y007703D01*
X018722Y007836D01*
X018501Y007803D02*
X018501Y007670D01*
X018501Y007770D02*
X018367Y007770D01*
X018367Y007803D02*
X018434Y007870D01*
X018501Y007803D01*
X018367Y007803D02*
X018367Y007670D01*
X018434Y006870D02*
X018501Y006803D01*
X018501Y006670D01*
X018588Y006670D02*
X018588Y006870D01*
X018688Y006870D01*
X018722Y006836D01*
X018722Y006703D01*
X018688Y006670D01*
X018588Y006670D01*
X018501Y006770D02*
X018367Y006770D01*
X018367Y006803D02*
X018434Y006870D01*
X018367Y006803D02*
X018367Y006670D01*
X018809Y006703D02*
X018843Y006670D01*
X018909Y006670D01*
X018943Y006703D01*
X019030Y006703D02*
X019064Y006670D01*
X019130Y006670D01*
X019164Y006703D01*
X019164Y006736D01*
X019130Y006770D01*
X019030Y006770D01*
X019030Y006703D01*
X019030Y006770D02*
X019097Y006836D01*
X019164Y006870D01*
X018943Y006836D02*
X018909Y006870D01*
X018843Y006870D01*
X018809Y006836D01*
X018809Y006703D01*
X018843Y005870D02*
X018809Y005836D01*
X018809Y005703D01*
X018843Y005670D01*
X018909Y005670D01*
X018943Y005703D01*
X019030Y005703D02*
X019030Y005670D01*
X019030Y005703D02*
X019164Y005836D01*
X019164Y005870D01*
X019030Y005870D01*
X018943Y005836D02*
X018909Y005870D01*
X018843Y005870D01*
X018722Y005836D02*
X018722Y005703D01*
X018688Y005670D01*
X018588Y005670D01*
X018588Y005870D01*
X018688Y005870D01*
X018722Y005836D01*
X018501Y005803D02*
X018501Y005670D01*
X018501Y005770D02*
X018367Y005770D01*
X018367Y005803D02*
X018434Y005870D01*
X018501Y005803D01*
X018367Y005803D02*
X018367Y005670D01*
D11*
X019934Y008909D02*
X019934Y016761D01*
X019930Y016917D01*
X019919Y017072D01*
X019901Y017227D01*
X019875Y017380D01*
X019842Y017532D01*
X019801Y017683D01*
X019754Y017831D01*
X019700Y017977D01*
X019638Y018120D01*
X019570Y018260D01*
X019496Y018397D01*
X019415Y018530D01*
X019327Y018659D01*
X019234Y018784D01*
X019135Y018904D01*
X019030Y019019D01*
X018920Y019129D01*
X018805Y019234D01*
X018685Y019333D01*
X018560Y019426D01*
X018431Y019514D01*
X018298Y019595D01*
X018161Y019669D01*
X018021Y019737D01*
X017878Y019799D01*
X017732Y019853D01*
X017584Y019900D01*
X017433Y019941D01*
X017281Y019974D01*
X017128Y020000D01*
X016973Y020018D01*
X016818Y020029D01*
X016662Y020033D01*
X004915Y020033D01*
X005021Y018664D02*
X005023Y018691D01*
X005029Y018718D01*
X005038Y018744D01*
X005051Y018768D01*
X005067Y018791D01*
X005086Y018810D01*
X005108Y018827D01*
X005132Y018841D01*
X005157Y018851D01*
X005184Y018858D01*
X005211Y018861D01*
X005239Y018860D01*
X005266Y018855D01*
X005292Y018847D01*
X005316Y018835D01*
X005339Y018819D01*
X005360Y018801D01*
X005377Y018780D01*
X005392Y018756D01*
X005403Y018731D01*
X005411Y018705D01*
X005415Y018678D01*
X005415Y018650D01*
X005411Y018623D01*
X005403Y018597D01*
X005392Y018572D01*
X005377Y018548D01*
X005360Y018527D01*
X005339Y018509D01*
X005317Y018493D01*
X005292Y018481D01*
X005266Y018473D01*
X005239Y018468D01*
X005211Y018467D01*
X005184Y018470D01*
X005157Y018477D01*
X005132Y018487D01*
X005108Y018501D01*
X005086Y018518D01*
X005067Y018537D01*
X005051Y018560D01*
X005038Y018584D01*
X005029Y018610D01*
X005023Y018637D01*
X005021Y018664D01*
X003840Y018664D02*
X003842Y018691D01*
X003848Y018718D01*
X003857Y018744D01*
X003870Y018768D01*
X003886Y018791D01*
X003905Y018810D01*
X003927Y018827D01*
X003951Y018841D01*
X003976Y018851D01*
X004003Y018858D01*
X004030Y018861D01*
X004058Y018860D01*
X004085Y018855D01*
X004111Y018847D01*
X004135Y018835D01*
X004158Y018819D01*
X004179Y018801D01*
X004196Y018780D01*
X004211Y018756D01*
X004222Y018731D01*
X004230Y018705D01*
X004234Y018678D01*
X004234Y018650D01*
X004230Y018623D01*
X004222Y018597D01*
X004211Y018572D01*
X004196Y018548D01*
X004179Y018527D01*
X004158Y018509D01*
X004136Y018493D01*
X004111Y018481D01*
X004085Y018473D01*
X004058Y018468D01*
X004030Y018467D01*
X004003Y018470D01*
X003976Y018477D01*
X003951Y018487D01*
X003927Y018501D01*
X003905Y018518D01*
X003886Y018537D01*
X003870Y018560D01*
X003857Y018584D01*
X003848Y018610D01*
X003842Y018637D01*
X003840Y018664D01*
X004915Y020033D02*
X004707Y020028D01*
X004500Y020013D01*
X004293Y019989D01*
X004088Y019954D01*
X003884Y019910D01*
X003684Y019856D01*
X003485Y019793D01*
X003290Y019720D01*
X003099Y019638D01*
X002912Y019547D01*
X002729Y019447D01*
X002552Y019339D01*
X002380Y019223D01*
X002213Y019098D01*
X002053Y018965D01*
X001899Y018825D01*
X001752Y018678D01*
X001612Y018524D01*
X001479Y018364D01*
X001354Y018197D01*
X001238Y018025D01*
X001130Y017848D01*
X001030Y017665D01*
X000939Y017478D01*
X000857Y017287D01*
X000784Y017092D01*
X000721Y016893D01*
X000667Y016693D01*
X000623Y016489D01*
X000588Y016284D01*
X000564Y016077D01*
X000549Y015870D01*
X000544Y015662D01*
X000544Y001058D01*
X000546Y001007D01*
X000551Y000957D01*
X000560Y000907D01*
X000573Y000858D01*
X000589Y000810D01*
X000608Y000763D01*
X000631Y000718D01*
X000657Y000674D01*
X000686Y000633D01*
X000717Y000593D01*
X000752Y000556D01*
X000789Y000521D01*
X000829Y000490D01*
X000870Y000461D01*
X000914Y000435D01*
X000959Y000412D01*
X001006Y000393D01*
X001054Y000377D01*
X001103Y000364D01*
X001153Y000355D01*
X001203Y000350D01*
X001254Y000348D01*
X011373Y000348D01*
X011780Y000358D01*
X012187Y000387D01*
X012591Y000435D01*
X012993Y000503D01*
X013391Y000589D01*
X013785Y000695D01*
X014173Y000819D01*
X014555Y000961D01*
X014929Y001122D01*
X015296Y001300D01*
X015654Y001495D01*
X016001Y001707D01*
X016339Y001935D01*
X016665Y002180D01*
X016979Y002439D01*
X017281Y002713D01*
X017569Y003001D01*
X017843Y003303D01*
X018102Y003617D01*
X018347Y003943D01*
X018575Y004281D01*
X018787Y004629D01*
X018982Y004986D01*
X019160Y005353D01*
X019321Y005727D01*
X019463Y006109D01*
X019587Y006497D01*
X019693Y006891D01*
X019779Y007289D01*
X019847Y007691D01*
X019895Y008095D01*
X019924Y008502D01*
X019934Y008909D01*
D12*
X015190Y007789D02*
X015190Y007435D01*
X015190Y007789D02*
X014639Y007789D01*
X014639Y007435D01*
X014599Y007435D02*
X014599Y007789D01*
X014048Y007789D01*
X014048Y007435D01*
X014048Y007041D02*
X014048Y006687D01*
X014599Y006687D01*
X014599Y007041D01*
X014639Y007041D02*
X014639Y006687D01*
X015190Y006687D01*
X015190Y007041D01*
X014796Y008458D02*
X014796Y011529D01*
X013064Y011529D01*
X013064Y008458D01*
X014796Y008458D01*
X013694Y007868D02*
X012985Y007868D01*
X012985Y006608D01*
X013694Y006608D01*
X013694Y007868D01*
X012631Y007789D02*
X012631Y007435D01*
X012631Y007789D02*
X012080Y007789D01*
X012080Y007435D01*
X011843Y007435D02*
X011843Y007789D01*
X011292Y007789D01*
X011292Y007435D01*
X011292Y007041D02*
X011292Y006687D01*
X011843Y006687D01*
X011843Y007041D01*
X012080Y007041D02*
X012080Y006687D01*
X012631Y006687D01*
X012631Y007041D01*
X011922Y007946D02*
X011568Y007946D01*
X011922Y007946D02*
X011922Y008498D01*
X011568Y008498D01*
X011568Y008537D02*
X011922Y008537D01*
X011922Y009088D01*
X011568Y009088D01*
X011591Y009213D02*
X011945Y009213D01*
X011945Y009765D01*
X011591Y009765D01*
X011568Y009915D02*
X011922Y009915D01*
X011922Y010466D01*
X011568Y010466D01*
X011174Y010466D02*
X010820Y010466D01*
X010820Y009915D01*
X011174Y009915D01*
X011197Y009765D02*
X010843Y009765D01*
X010843Y009213D01*
X011197Y009213D01*
X011174Y009088D02*
X010820Y009088D01*
X010820Y008537D01*
X011174Y008537D01*
X011174Y008498D02*
X010820Y008498D01*
X010820Y007946D01*
X011174Y007946D01*
X008070Y009300D02*
X007519Y009300D01*
X007519Y009654D01*
X007370Y009654D02*
X007370Y009300D01*
X006819Y009300D01*
X006819Y009654D01*
X006670Y009654D02*
X006670Y009300D01*
X006119Y009300D01*
X006119Y009654D01*
X005970Y009654D02*
X005970Y009300D01*
X005419Y009300D01*
X005419Y009654D01*
X005270Y009654D02*
X005270Y009300D01*
X004719Y009300D01*
X004719Y009654D01*
X004570Y009654D02*
X004570Y009300D01*
X004019Y009300D01*
X004019Y009654D01*
X003870Y009654D02*
X003870Y009300D01*
X003319Y009300D01*
X003319Y009654D01*
X003170Y009654D02*
X003170Y009300D01*
X002619Y009300D01*
X002619Y009654D01*
X002470Y009654D02*
X002470Y009300D01*
X001919Y009300D01*
X001919Y009654D01*
X001919Y010048D02*
X001919Y010402D01*
X002470Y010402D01*
X002470Y010048D01*
X002619Y010048D02*
X002619Y010402D01*
X003170Y010402D01*
X003170Y010048D01*
X003319Y010048D02*
X003319Y010402D01*
X003870Y010402D01*
X003870Y010048D01*
X004019Y010048D02*
X004019Y010402D01*
X004570Y010402D01*
X004570Y010048D01*
X004719Y010048D02*
X004719Y010402D01*
X005270Y010402D01*
X005270Y010048D01*
X005419Y010048D02*
X005419Y010402D01*
X005970Y010402D01*
X005970Y010048D01*
X006119Y010048D02*
X006119Y010402D01*
X006670Y010402D01*
X006670Y010048D01*
X006819Y010048D02*
X006819Y010402D01*
X007370Y010402D01*
X007370Y010048D01*
X007519Y010048D02*
X007519Y010402D01*
X008070Y010402D01*
X008070Y010048D01*
X008070Y009654D02*
X008070Y009300D01*
X007520Y011200D02*
X006969Y011200D01*
X006969Y011554D01*
X006793Y011805D02*
X006793Y013498D01*
X004195Y013498D01*
X004195Y011805D01*
X006793Y011805D01*
X006969Y011948D02*
X006969Y012302D01*
X007520Y012302D01*
X007520Y011948D01*
X007520Y011554D02*
X007520Y011200D01*
X007520Y012800D02*
X006969Y012800D01*
X006969Y013154D01*
X006969Y013548D02*
X006969Y013902D01*
X007520Y013902D01*
X007520Y013548D01*
X007520Y013154D02*
X007520Y012800D01*
X006870Y014750D02*
X006319Y014750D01*
X006319Y015104D01*
X006170Y015104D02*
X006170Y014750D01*
X005619Y014750D01*
X005619Y015104D01*
X005470Y015104D02*
X005470Y014750D01*
X004919Y014750D01*
X004919Y015104D01*
X004770Y015104D02*
X004770Y014750D01*
X004219Y014750D01*
X004219Y015104D01*
X004070Y015104D02*
X004070Y014750D01*
X003519Y014750D01*
X003519Y015104D01*
X003370Y015104D02*
X003370Y014750D01*
X002819Y014750D01*
X002819Y015104D01*
X002670Y015104D02*
X002670Y014750D01*
X002119Y014750D01*
X002119Y015104D01*
X001970Y015104D02*
X001970Y014750D01*
X001419Y014750D01*
X001419Y015104D01*
X001419Y015498D02*
X001419Y015852D01*
X001970Y015852D01*
X001970Y015498D01*
X002119Y015498D02*
X002119Y015852D01*
X002670Y015852D01*
X002670Y015498D01*
X002819Y015498D02*
X002819Y015852D01*
X003370Y015852D01*
X003370Y015498D01*
X003519Y015498D02*
X003519Y015852D01*
X004070Y015852D01*
X004070Y015498D01*
X004219Y015498D02*
X004219Y015852D01*
X004770Y015852D01*
X004770Y015498D01*
X004919Y015498D02*
X004919Y015852D01*
X005470Y015852D01*
X005470Y015498D01*
X005619Y015498D02*
X005619Y015852D01*
X006170Y015852D01*
X006170Y015498D01*
X006319Y015498D02*
X006319Y015852D01*
X006870Y015852D01*
X006870Y015498D01*
X006870Y015104D02*
X006870Y014750D01*
X004143Y013498D02*
X004143Y011805D01*
X001545Y011805D01*
X001545Y013498D01*
X004143Y013498D01*
X001370Y013498D02*
X001370Y013852D01*
X000819Y013852D01*
X000819Y013498D01*
X000819Y013104D02*
X000819Y012750D01*
X001370Y012750D01*
X001370Y013104D01*
X001370Y012352D02*
X000819Y012352D01*
X000819Y011998D01*
X000819Y011604D02*
X000819Y011250D01*
X001370Y011250D01*
X001370Y011604D01*
X001370Y011998D02*
X001370Y012352D01*
X004104Y007966D02*
X005285Y007966D01*
X005285Y007336D01*
X004104Y007336D01*
X004104Y007966D01*
X005080Y007651D02*
X005082Y007659D01*
X005087Y007665D01*
X005094Y007669D01*
X005102Y007669D01*
X005109Y007665D01*
X005114Y007659D01*
X005116Y007651D01*
X005114Y007643D01*
X005109Y007637D01*
X005102Y007633D01*
X005094Y007633D01*
X005087Y007637D01*
X005082Y007643D01*
X005080Y007651D01*
X005220Y005902D02*
X004669Y005902D01*
X004669Y005548D01*
X004520Y005548D02*
X004520Y005902D01*
X003969Y005902D01*
X003969Y005548D01*
X003820Y005548D02*
X003820Y005902D01*
X003269Y005902D01*
X003269Y005548D01*
X003269Y005154D02*
X003269Y004800D01*
X003820Y004800D01*
X003820Y005154D01*
X003969Y005154D02*
X003969Y004800D01*
X004520Y004800D01*
X004520Y005154D01*
X004669Y005154D02*
X004669Y004800D01*
X005220Y004800D01*
X005220Y005154D01*
X005369Y005154D02*
X005369Y004800D01*
X005920Y004800D01*
X005920Y005154D01*
X006069Y005154D02*
X006069Y004800D01*
X006620Y004800D01*
X006620Y005154D01*
X006769Y005154D02*
X006769Y004800D01*
X007320Y004800D01*
X007320Y005154D01*
X007320Y005548D02*
X007320Y005902D01*
X006769Y005902D01*
X006769Y005548D01*
X006620Y005548D02*
X006620Y005902D01*
X006069Y005902D01*
X006069Y005548D01*
X005920Y005548D02*
X005920Y005902D01*
X005369Y005902D01*
X005369Y005548D01*
X005220Y005548D02*
X005220Y005902D01*
X005220Y004002D02*
X004669Y004002D01*
X004669Y003648D01*
X004520Y003648D02*
X004520Y004002D01*
X003969Y004002D01*
X003969Y003648D01*
X003820Y003648D02*
X003820Y004002D01*
X003269Y004002D01*
X003269Y003648D01*
X003269Y003254D02*
X003269Y002900D01*
X003820Y002900D01*
X003820Y003254D01*
X003969Y003254D02*
X003969Y002900D01*
X004520Y002900D01*
X004520Y003254D01*
X004669Y003254D02*
X004669Y002900D01*
X005220Y002900D01*
X005220Y003254D01*
X005369Y003254D02*
X005369Y002900D01*
X005920Y002900D01*
X005920Y003254D01*
X006069Y003254D02*
X006069Y002900D01*
X006620Y002900D01*
X006620Y003254D01*
X006620Y003648D02*
X006620Y004002D01*
X006069Y004002D01*
X006069Y003648D01*
X005920Y003648D02*
X005920Y004002D01*
X005369Y004002D01*
X005369Y003648D01*
X005220Y003648D02*
X005220Y004002D01*
X005220Y001852D02*
X004669Y001852D01*
X004669Y001498D01*
X004570Y001498D02*
X004570Y001852D01*
X004019Y001852D01*
X004019Y001498D01*
X003820Y001498D02*
X003820Y001852D01*
X003269Y001852D01*
X003269Y001498D01*
X003120Y001498D02*
X003120Y001852D01*
X002569Y001852D01*
X002569Y001498D01*
X002420Y001498D02*
X002420Y001852D01*
X001869Y001852D01*
X001869Y001498D01*
X001720Y001498D02*
X001720Y001852D01*
X001169Y001852D01*
X001169Y001498D01*
X001169Y001104D02*
X001169Y000750D01*
X001720Y000750D01*
X001720Y001104D01*
X001869Y001104D02*
X001869Y000750D01*
X002420Y000750D01*
X002420Y001104D01*
X002569Y001104D02*
X002569Y000750D01*
X003120Y000750D01*
X003120Y001104D01*
X003269Y001104D02*
X003269Y000750D01*
X003820Y000750D01*
X003820Y001104D01*
X004019Y001104D02*
X004019Y000750D01*
X004570Y000750D01*
X004570Y001104D01*
X004669Y001104D02*
X004669Y000750D01*
X005220Y000750D01*
X005220Y001104D01*
X005369Y001104D02*
X005369Y000750D01*
X005920Y000750D01*
X005920Y001104D01*
X006069Y001104D02*
X006069Y000750D01*
X006620Y000750D01*
X006620Y001104D01*
X006769Y001104D02*
X006769Y000750D01*
X007320Y000750D01*
X007320Y001104D01*
X007320Y001498D02*
X007320Y001852D01*
X006769Y001852D01*
X006769Y001498D01*
X006620Y001498D02*
X006620Y001852D01*
X006069Y001852D01*
X006069Y001498D01*
X005920Y001498D02*
X005920Y001852D01*
X005369Y001852D01*
X005369Y001498D01*
X005220Y001498D02*
X005220Y001852D01*
X003083Y002930D02*
X003083Y004570D01*
X001104Y004570D01*
X001104Y002930D01*
X003083Y002930D01*
X010869Y012800D02*
X011420Y012800D01*
X011420Y013154D01*
X011420Y013548D02*
X011420Y013902D01*
X010869Y013902D01*
X010869Y013548D01*
X010869Y013154D02*
X010869Y012800D01*
X011923Y013115D02*
X011923Y013587D01*
X013065Y013587D01*
X013065Y013115D01*
X011923Y013115D01*
X012909Y013430D02*
X012911Y013438D01*
X012916Y013444D01*
X012923Y013448D01*
X012931Y013448D01*
X012938Y013444D01*
X012943Y013438D01*
X012945Y013430D01*
X012943Y013422D01*
X012938Y013416D01*
X012931Y013412D01*
X012923Y013412D01*
X012916Y013416D01*
X012911Y013422D01*
X012909Y013430D01*
X011588Y014423D02*
X011588Y015880D01*
X014501Y015880D01*
X014501Y014423D01*
X011588Y014423D01*
X011270Y014950D02*
X010719Y014950D01*
X010719Y015304D01*
X010719Y015698D02*
X010719Y016052D01*
X011270Y016052D01*
X011270Y015698D01*
X011270Y015304D02*
X011270Y014950D01*
X012493Y016172D02*
X012493Y016724D01*
X012847Y016724D01*
X013241Y016724D02*
X013595Y016724D01*
X013595Y016172D01*
X013241Y016172D01*
X012847Y016172D02*
X012493Y016172D01*
X010865Y017565D02*
X009723Y017565D01*
X009723Y018037D01*
X010865Y018037D01*
X010865Y017565D01*
X010709Y017880D02*
X010711Y017888D01*
X010716Y017894D01*
X010723Y017898D01*
X010731Y017898D01*
X010738Y017894D01*
X010743Y017888D01*
X010745Y017880D01*
X010743Y017872D01*
X010738Y017866D01*
X010731Y017862D01*
X010723Y017862D01*
X010716Y017866D01*
X010711Y017872D01*
X010709Y017880D01*
X014819Y016052D02*
X014819Y015698D01*
X014819Y016052D02*
X015370Y016052D01*
X015370Y015698D01*
X015370Y015304D02*
X015370Y014950D01*
X014819Y014950D01*
X014819Y015304D01*
D13*
X001061Y000988D02*
X000961Y000988D01*
X000936Y001013D01*
X000936Y001063D01*
X000961Y001088D01*
X001011Y001135D02*
X001011Y001235D01*
X000961Y001283D02*
X000936Y001308D01*
X000936Y001358D01*
X000961Y001383D01*
X001061Y001283D01*
X001086Y001308D01*
X001086Y001358D01*
X001061Y001383D01*
X000961Y001383D01*
X000936Y001430D02*
X001011Y001430D01*
X000986Y001480D01*
X000986Y001505D01*
X001011Y001530D01*
X001061Y001530D01*
X001086Y001505D01*
X001086Y001455D01*
X001061Y001430D01*
X000936Y001430D02*
X000936Y001530D01*
X000961Y001283D02*
X001061Y001283D01*
X001086Y001210D02*
X000936Y001210D01*
X001011Y001135D01*
X001061Y001088D02*
X001086Y001063D01*
X001086Y001013D01*
X001061Y000988D01*
X001828Y000618D02*
X001828Y000518D01*
X001853Y000493D01*
X001903Y000493D01*
X001928Y000518D01*
X001975Y000568D02*
X002075Y000568D01*
X002123Y000593D02*
X002173Y000643D01*
X002173Y000493D01*
X002123Y000493D02*
X002223Y000493D01*
X002270Y000568D02*
X002345Y000643D01*
X002345Y000493D01*
X002370Y000568D02*
X002270Y000568D01*
X002528Y000493D02*
X002528Y000343D01*
X002528Y000393D02*
X002603Y000393D01*
X002628Y000418D01*
X002628Y000468D01*
X002603Y000493D01*
X002528Y000493D01*
X002578Y000393D02*
X002628Y000343D01*
X002675Y000418D02*
X002775Y000418D01*
X002823Y000368D02*
X002823Y000468D01*
X002848Y000493D01*
X002898Y000493D01*
X002923Y000468D01*
X002823Y000368D01*
X002848Y000343D01*
X002898Y000343D01*
X002923Y000368D01*
X002923Y000468D01*
X002970Y000493D02*
X002970Y000418D01*
X003020Y000443D01*
X003045Y000443D01*
X003070Y000418D01*
X003070Y000368D01*
X003045Y000343D01*
X002995Y000343D01*
X002970Y000368D01*
X002970Y000493D02*
X003070Y000493D01*
X003018Y000528D02*
X002943Y000578D01*
X003018Y000628D01*
X002943Y000678D02*
X002943Y000528D01*
X002895Y000553D02*
X002870Y000528D01*
X002820Y000528D01*
X002795Y000553D01*
X002895Y000653D01*
X002895Y000553D01*
X002795Y000553D02*
X002795Y000653D01*
X002820Y000678D01*
X002870Y000678D01*
X002895Y000653D01*
X002748Y000528D02*
X002648Y000528D01*
X002698Y000528D02*
X002698Y000678D01*
X002648Y000628D01*
X002750Y000493D02*
X002675Y000418D01*
X002750Y000343D02*
X002750Y000493D01*
X003228Y000493D02*
X003228Y000343D01*
X003228Y000393D02*
X003303Y000393D01*
X003328Y000418D01*
X003328Y000468D01*
X003303Y000493D01*
X003228Y000493D01*
X003311Y000539D02*
X003411Y000539D01*
X003361Y000539D02*
X003361Y000689D01*
X003311Y000639D01*
X003458Y000664D02*
X003483Y000689D01*
X003533Y000689D01*
X003558Y000664D01*
X003458Y000564D01*
X003483Y000539D01*
X003533Y000539D01*
X003558Y000564D01*
X003558Y000664D01*
X003605Y000689D02*
X003656Y000639D01*
X003706Y000689D01*
X003706Y000539D01*
X003670Y000493D02*
X003670Y000418D01*
X003720Y000443D01*
X003745Y000443D01*
X003770Y000418D01*
X003770Y000368D01*
X003745Y000343D01*
X003695Y000343D01*
X003670Y000368D01*
X003623Y000343D02*
X003523Y000343D01*
X003573Y000343D02*
X003573Y000493D01*
X003523Y000443D01*
X003475Y000418D02*
X003375Y000418D01*
X003450Y000493D01*
X003450Y000343D01*
X003328Y000343D02*
X003278Y000393D01*
X003458Y000564D02*
X003458Y000664D01*
X003605Y000689D02*
X003605Y000539D01*
X003670Y000493D02*
X003770Y000493D01*
X003978Y000493D02*
X003978Y000343D01*
X003978Y000393D02*
X004053Y000393D01*
X004078Y000418D01*
X004078Y000468D01*
X004053Y000493D01*
X003978Y000493D01*
X004028Y000393D02*
X004078Y000343D01*
X004125Y000418D02*
X004225Y000418D01*
X004273Y000443D02*
X004323Y000493D01*
X004323Y000343D01*
X004273Y000343D02*
X004373Y000343D01*
X004420Y000368D02*
X004445Y000343D01*
X004495Y000343D01*
X004520Y000368D01*
X004520Y000393D01*
X004495Y000418D01*
X004420Y000418D01*
X004420Y000368D01*
X004420Y000418D02*
X004470Y000468D01*
X004520Y000493D01*
X004396Y000550D02*
X004396Y000700D01*
X004346Y000650D01*
X004296Y000700D01*
X004296Y000550D01*
X004249Y000550D02*
X004149Y000550D01*
X004199Y000550D02*
X004199Y000700D01*
X004149Y000650D01*
X004200Y000493D02*
X004125Y000418D01*
X004200Y000343D02*
X004200Y000493D01*
X004678Y000493D02*
X004678Y000343D01*
X004678Y000393D02*
X004753Y000393D01*
X004778Y000418D01*
X004778Y000468D01*
X004753Y000493D01*
X004678Y000493D01*
X004739Y000561D02*
X004839Y000561D01*
X004789Y000561D02*
X004789Y000711D01*
X004739Y000661D01*
X004886Y000686D02*
X004911Y000711D01*
X004961Y000711D01*
X004986Y000686D01*
X004886Y000586D01*
X004911Y000561D01*
X004961Y000561D01*
X004986Y000586D01*
X004986Y000686D01*
X005033Y000711D02*
X005033Y000561D01*
X005033Y000611D02*
X005134Y000711D01*
X005058Y000636D02*
X005134Y000561D01*
X005195Y000493D02*
X005120Y000418D01*
X005220Y000418D01*
X005195Y000343D02*
X005195Y000493D01*
X005023Y000493D02*
X005023Y000343D01*
X004973Y000343D02*
X005073Y000343D01*
X004973Y000443D02*
X005023Y000493D01*
X004900Y000493D02*
X004900Y000343D01*
X004925Y000418D02*
X004825Y000418D01*
X004900Y000493D01*
X004886Y000586D02*
X004886Y000686D01*
X004728Y000393D02*
X004778Y000343D01*
X005378Y000543D02*
X005378Y000693D01*
X005453Y000693D01*
X005478Y000668D01*
X005478Y000618D01*
X005453Y000593D01*
X005378Y000593D01*
X005428Y000593D02*
X005478Y000543D01*
X005525Y000618D02*
X005625Y000618D01*
X005673Y000643D02*
X005723Y000693D01*
X005723Y000543D01*
X005673Y000543D02*
X005773Y000543D01*
X005820Y000568D02*
X005845Y000543D01*
X005895Y000543D01*
X005920Y000568D01*
X005920Y000593D01*
X005895Y000618D01*
X005870Y000618D01*
X005895Y000618D02*
X005920Y000643D01*
X005920Y000668D01*
X005895Y000693D01*
X005845Y000693D01*
X005820Y000668D01*
X005600Y000693D02*
X005600Y000543D01*
X005525Y000618D02*
X005600Y000693D01*
X006068Y000633D02*
X006118Y000683D01*
X006118Y000533D01*
X006068Y000533D02*
X006168Y000533D01*
X006153Y000493D02*
X006178Y000468D01*
X006178Y000418D01*
X006153Y000393D01*
X006078Y000393D01*
X006078Y000343D02*
X006078Y000493D01*
X006153Y000493D01*
X006215Y000558D02*
X006315Y000658D01*
X006315Y000558D01*
X006290Y000533D01*
X006240Y000533D01*
X006215Y000558D01*
X006215Y000658D01*
X006240Y000683D01*
X006290Y000683D01*
X006315Y000658D01*
X006362Y000658D02*
X006387Y000683D01*
X006438Y000683D01*
X006463Y000658D01*
X006362Y000558D01*
X006387Y000533D01*
X006438Y000533D01*
X006463Y000558D01*
X006463Y000658D01*
X006510Y000683D02*
X006510Y000533D01*
X006510Y000583D02*
X006610Y000683D01*
X006535Y000608D02*
X006610Y000533D01*
X006595Y000493D02*
X006545Y000493D01*
X006520Y000468D01*
X006595Y000493D02*
X006620Y000468D01*
X006620Y000443D01*
X006520Y000343D01*
X006620Y000343D01*
X006473Y000343D02*
X006373Y000343D01*
X006423Y000343D02*
X006423Y000493D01*
X006373Y000443D01*
X006325Y000418D02*
X006225Y000418D01*
X006300Y000493D01*
X006300Y000343D01*
X006178Y000343D02*
X006128Y000393D01*
X006362Y000558D02*
X006362Y000658D01*
X007402Y000860D02*
X007427Y000835D01*
X007527Y000835D01*
X007552Y000860D01*
X007552Y000910D01*
X007527Y000935D01*
X007477Y000982D02*
X007477Y001082D01*
X007427Y001130D02*
X007402Y001155D01*
X007402Y001205D01*
X007427Y001230D01*
X007527Y001130D01*
X007552Y001155D01*
X007552Y001205D01*
X007527Y001230D01*
X007427Y001230D01*
X007402Y001277D02*
X007402Y001377D01*
X007427Y001377D01*
X007527Y001277D01*
X007552Y001277D01*
X007527Y001130D02*
X007427Y001130D01*
X007402Y001057D02*
X007552Y001057D01*
X007477Y000982D02*
X007402Y001057D01*
X007427Y000935D02*
X007402Y000910D01*
X007402Y000860D01*
X007251Y001930D02*
X007176Y001930D01*
X007151Y001955D01*
X007151Y002030D01*
X007251Y002030D02*
X007251Y001930D01*
X007104Y001930D02*
X007004Y001930D01*
X007054Y001930D02*
X007054Y002080D01*
X007004Y002030D01*
X006598Y002659D02*
X006548Y002659D01*
X006523Y002684D01*
X006623Y002784D01*
X006623Y002684D01*
X006598Y002659D01*
X006523Y002684D02*
X006523Y002784D01*
X006548Y002809D01*
X006598Y002809D01*
X006623Y002784D01*
X006476Y002659D02*
X006376Y002659D01*
X006426Y002659D02*
X006426Y002809D01*
X006376Y002759D01*
X006329Y002734D02*
X006228Y002734D01*
X006304Y002809D01*
X006304Y002659D01*
X006181Y002684D02*
X006156Y002659D01*
X006106Y002659D01*
X006081Y002684D01*
X006081Y002784D01*
X006106Y002809D01*
X006156Y002809D01*
X006181Y002784D01*
X005923Y002784D02*
X005923Y002759D01*
X005898Y002734D01*
X005923Y002709D01*
X005923Y002684D01*
X005898Y002659D01*
X005848Y002659D01*
X005823Y002684D01*
X005776Y002659D02*
X005676Y002659D01*
X005726Y002659D02*
X005726Y002809D01*
X005676Y002759D01*
X005629Y002734D02*
X005528Y002734D01*
X005604Y002809D01*
X005604Y002659D01*
X005481Y002684D02*
X005456Y002659D01*
X005406Y002659D01*
X005381Y002684D01*
X005381Y002784D01*
X005406Y002809D01*
X005456Y002809D01*
X005481Y002784D01*
X005198Y002834D02*
X005198Y002684D01*
X005098Y002684D02*
X005098Y002834D01*
X005148Y002784D01*
X005198Y002834D01*
X005051Y002809D02*
X004951Y002709D01*
X004976Y002684D01*
X005026Y002684D01*
X005051Y002709D01*
X005051Y002809D01*
X005026Y002834D01*
X004976Y002834D01*
X004951Y002809D01*
X004951Y002709D01*
X004904Y002684D02*
X004804Y002684D01*
X004854Y002684D02*
X004854Y002834D01*
X004804Y002784D01*
X004423Y002709D02*
X004323Y002709D01*
X004276Y002709D02*
X004176Y002709D01*
X004226Y002709D02*
X004226Y002859D01*
X004176Y002809D01*
X004129Y002784D02*
X004028Y002784D01*
X004104Y002859D01*
X004104Y002709D01*
X003981Y002709D02*
X003931Y002759D01*
X003956Y002759D02*
X003881Y002759D01*
X003881Y002709D02*
X003881Y002859D01*
X003956Y002859D01*
X003981Y002834D01*
X003981Y002784D01*
X003956Y002759D01*
X003771Y002787D02*
X003771Y002712D01*
X003771Y002787D02*
X003746Y002812D01*
X003671Y002812D01*
X003671Y002712D01*
X003624Y002737D02*
X003598Y002712D01*
X003548Y002712D01*
X003523Y002737D01*
X003624Y002837D01*
X003624Y002737D01*
X003624Y002837D02*
X003598Y002862D01*
X003548Y002862D01*
X003523Y002837D01*
X003523Y002737D01*
X003476Y002737D02*
X003451Y002712D01*
X003401Y002712D01*
X003376Y002737D01*
X003476Y002837D01*
X003476Y002737D01*
X003376Y002737D02*
X003376Y002837D01*
X003401Y002862D01*
X003451Y002862D01*
X003476Y002837D01*
X003329Y002712D02*
X003229Y002712D01*
X003279Y002712D02*
X003279Y002862D01*
X003229Y002812D01*
X002279Y002067D02*
X002279Y001992D01*
X002279Y002067D02*
X002254Y002092D01*
X002179Y002092D01*
X002179Y001992D01*
X002132Y001992D02*
X002032Y001992D01*
X002082Y001992D02*
X002082Y002142D01*
X002032Y002092D01*
X001689Y002056D02*
X001689Y002006D01*
X001664Y001981D01*
X001589Y001981D01*
X001589Y001931D02*
X001589Y002081D01*
X001664Y002081D01*
X001689Y002056D01*
X001541Y002106D02*
X001441Y002006D01*
X001466Y001981D01*
X001516Y001981D01*
X001541Y002006D01*
X001541Y002106D01*
X001516Y002131D01*
X001466Y002131D01*
X001441Y002106D01*
X001441Y002006D01*
X001394Y002006D02*
X001369Y001981D01*
X001319Y001981D01*
X001294Y002006D01*
X001247Y001981D02*
X001147Y001981D01*
X001197Y001981D02*
X001197Y002131D01*
X001147Y002081D01*
X001294Y002106D02*
X001319Y002131D01*
X001369Y002131D01*
X001394Y002106D01*
X001394Y002081D01*
X001369Y002056D01*
X001394Y002031D01*
X001394Y002006D01*
X001369Y002056D02*
X001344Y002056D01*
X001853Y000643D02*
X001828Y000618D01*
X001853Y000643D02*
X001903Y000643D01*
X001928Y000618D01*
X001975Y000568D02*
X002050Y000643D01*
X002050Y000493D01*
X004323Y002809D02*
X004373Y002859D01*
X004373Y002709D01*
X005429Y001999D02*
X005479Y002049D01*
X005479Y001899D01*
X005429Y001899D02*
X005529Y001899D01*
X005577Y001924D02*
X005677Y002024D01*
X005677Y001924D01*
X005652Y001899D01*
X005602Y001899D01*
X005577Y001924D01*
X005577Y002024D01*
X005602Y002049D01*
X005652Y002049D01*
X005677Y002024D01*
X005724Y002049D02*
X005724Y001899D01*
X005724Y001949D02*
X005824Y002049D01*
X005749Y001974D02*
X005824Y001899D01*
X005873Y002734D02*
X005898Y002734D01*
X005923Y002784D02*
X005898Y002809D01*
X005848Y002809D01*
X005823Y002784D01*
X006903Y003847D02*
X006953Y003847D01*
X006928Y003847D02*
X006928Y003997D01*
X006903Y003997D02*
X006953Y003997D01*
X007001Y003972D02*
X007001Y003872D01*
X007026Y003847D01*
X007076Y003847D01*
X007101Y003872D01*
X007148Y003922D02*
X007248Y003922D01*
X007296Y003872D02*
X007296Y003972D01*
X007321Y003997D01*
X007371Y003997D01*
X007396Y003972D01*
X007296Y003872D01*
X007321Y003847D01*
X007371Y003847D01*
X007396Y003872D01*
X007396Y003972D01*
X007443Y003947D02*
X007493Y003997D01*
X007493Y003847D01*
X007443Y003847D02*
X007543Y003847D01*
X007223Y003847D02*
X007223Y003997D01*
X007148Y003922D01*
X007101Y003972D02*
X007076Y003997D01*
X007026Y003997D01*
X007001Y003972D01*
X006675Y004084D02*
X006675Y004159D01*
X006650Y004184D01*
X006575Y004184D01*
X006575Y004084D01*
X006528Y004109D02*
X006503Y004084D01*
X006453Y004084D01*
X006428Y004109D01*
X006528Y004209D01*
X006528Y004109D01*
X006528Y004209D02*
X006503Y004234D01*
X006453Y004234D01*
X006428Y004209D01*
X006428Y004109D01*
X006381Y004109D02*
X006381Y004209D01*
X006280Y004109D01*
X006305Y004084D01*
X006355Y004084D01*
X006381Y004109D01*
X006381Y004209D02*
X006355Y004234D01*
X006305Y004234D01*
X006280Y004209D01*
X006280Y004109D01*
X006233Y004084D02*
X006133Y004084D01*
X006183Y004084D02*
X006183Y004234D01*
X006133Y004184D01*
X005939Y004198D02*
X005839Y004098D01*
X005839Y004073D01*
X005792Y004073D02*
X005792Y004173D01*
X005839Y004223D02*
X005939Y004223D01*
X005939Y004198D01*
X005792Y004073D02*
X005716Y004073D01*
X005691Y004098D01*
X005691Y004173D01*
X005644Y004148D02*
X005544Y004148D01*
X005619Y004223D01*
X005619Y004073D01*
X005423Y004084D02*
X005423Y004184D01*
X005323Y004084D01*
X005348Y004059D01*
X005398Y004059D01*
X005423Y004084D01*
X005323Y004084D02*
X005323Y004184D01*
X005348Y004209D01*
X005398Y004209D01*
X005423Y004184D01*
X005276Y004059D02*
X005176Y004059D01*
X005226Y004059D02*
X005226Y004209D01*
X005176Y004159D01*
X005129Y004134D02*
X005028Y004134D01*
X005104Y004209D01*
X005104Y004059D01*
X004981Y004059D02*
X004931Y004109D01*
X004956Y004109D02*
X004881Y004109D01*
X004881Y004059D02*
X004881Y004209D01*
X004956Y004209D01*
X004981Y004184D01*
X004981Y004134D01*
X004956Y004109D01*
X004510Y004149D02*
X004435Y004225D01*
X004410Y004200D02*
X004510Y004300D01*
X004410Y004300D02*
X004410Y004149D01*
X004362Y004174D02*
X004337Y004149D01*
X004287Y004149D01*
X004262Y004174D01*
X004362Y004275D01*
X004362Y004174D01*
X004262Y004174D02*
X004262Y004275D01*
X004287Y004300D01*
X004337Y004300D01*
X004362Y004275D01*
X004215Y004225D02*
X004115Y004225D01*
X004190Y004300D01*
X004190Y004149D01*
X004068Y004149D02*
X003968Y004149D01*
X004068Y004250D01*
X004068Y004275D01*
X004043Y004300D01*
X003993Y004300D01*
X003968Y004275D01*
X003873Y004184D02*
X003873Y004084D01*
X003848Y004059D01*
X003798Y004059D01*
X003773Y004084D01*
X003726Y004084D02*
X003701Y004059D01*
X003651Y004059D01*
X003626Y004084D01*
X003726Y004184D01*
X003726Y004084D01*
X003798Y004134D02*
X003873Y004134D01*
X003873Y004184D02*
X003848Y004209D01*
X003798Y004209D01*
X003773Y004184D01*
X003773Y004159D01*
X003798Y004134D01*
X003726Y004184D02*
X003701Y004209D01*
X003651Y004209D01*
X003626Y004184D01*
X003626Y004084D01*
X003579Y004134D02*
X003478Y004134D01*
X003554Y004209D01*
X003554Y004059D01*
X003431Y004084D02*
X003406Y004059D01*
X003356Y004059D01*
X003331Y004084D01*
X003331Y004184D01*
X003356Y004209D01*
X003406Y004209D01*
X003431Y004184D01*
X003447Y004605D02*
X003547Y004605D01*
X003595Y004605D02*
X003595Y004705D01*
X003670Y004705D01*
X003695Y004680D01*
X003695Y004605D01*
X003497Y004605D02*
X003497Y004756D01*
X003447Y004705D01*
X003127Y005135D02*
X003027Y005135D01*
X003002Y005160D01*
X003002Y005210D01*
X003027Y005235D01*
X003077Y005282D02*
X003077Y005382D01*
X003027Y005430D02*
X003002Y005455D01*
X003002Y005505D01*
X003027Y005530D01*
X003127Y005430D01*
X003152Y005455D01*
X003152Y005505D01*
X003127Y005530D01*
X003027Y005530D01*
X003027Y005577D02*
X003052Y005577D01*
X003077Y005602D01*
X003077Y005652D01*
X003102Y005677D01*
X003127Y005677D01*
X003152Y005652D01*
X003152Y005602D01*
X003127Y005577D01*
X003102Y005577D01*
X003077Y005602D01*
X003077Y005652D02*
X003052Y005677D01*
X003027Y005677D01*
X003002Y005652D01*
X003002Y005602D01*
X003027Y005577D01*
X003027Y005430D02*
X003127Y005430D01*
X003152Y005357D02*
X003002Y005357D01*
X003077Y005282D01*
X003127Y005235D02*
X003152Y005210D01*
X003152Y005160D01*
X003127Y005135D01*
X003986Y006009D02*
X004086Y006009D01*
X004036Y006009D02*
X004036Y006159D01*
X003986Y006109D01*
X004134Y006134D02*
X004159Y006159D01*
X004209Y006159D01*
X004234Y006134D01*
X004134Y006034D01*
X004159Y006009D01*
X004209Y006009D01*
X004234Y006034D01*
X004234Y006134D01*
X004281Y006134D02*
X004306Y006159D01*
X004356Y006159D01*
X004381Y006134D01*
X004281Y006034D01*
X004306Y006009D01*
X004356Y006009D01*
X004381Y006034D01*
X004381Y006134D01*
X004428Y006109D02*
X004503Y006109D01*
X004528Y006084D01*
X004528Y006009D01*
X004428Y006009D02*
X004428Y006109D01*
X004423Y006243D02*
X004323Y006243D01*
X004373Y006243D02*
X004373Y006393D01*
X004323Y006343D01*
X004275Y006318D02*
X004175Y006318D01*
X004250Y006393D01*
X004250Y006243D01*
X004281Y006134D02*
X004281Y006034D01*
X004134Y006034D02*
X004134Y006134D01*
X004103Y006243D02*
X004128Y006268D01*
X004103Y006243D02*
X004053Y006243D01*
X004028Y006268D01*
X004028Y006368D01*
X004053Y006393D01*
X004103Y006393D01*
X004128Y006368D01*
X004470Y006343D02*
X004520Y006393D01*
X004520Y006243D01*
X004470Y006243D02*
X004570Y006243D01*
X004822Y006070D02*
X004872Y006120D01*
X004872Y005970D01*
X004822Y005970D02*
X004922Y005970D01*
X004969Y005970D02*
X004969Y006120D01*
X004994Y006045D02*
X005069Y005970D01*
X004969Y006020D02*
X005069Y006120D01*
X005561Y006090D02*
X005611Y006140D01*
X005611Y005990D01*
X005561Y005990D02*
X005661Y005990D01*
X005708Y005990D02*
X005708Y006140D01*
X005733Y006065D02*
X005808Y005990D01*
X005708Y006040D02*
X005808Y006140D01*
X006053Y006101D02*
X006103Y006151D01*
X006103Y006001D01*
X006053Y006001D02*
X006153Y006001D01*
X006201Y006026D02*
X006301Y006126D01*
X006301Y006026D01*
X006276Y006001D01*
X006226Y006001D01*
X006201Y006026D01*
X006201Y006126D01*
X006226Y006151D01*
X006276Y006151D01*
X006301Y006126D01*
X006348Y006126D02*
X006373Y006151D01*
X006423Y006151D01*
X006448Y006126D01*
X006348Y006026D01*
X006373Y006001D01*
X006423Y006001D01*
X006448Y006026D01*
X006448Y006126D01*
X006495Y006151D02*
X006495Y006001D01*
X006495Y006051D02*
X006595Y006151D01*
X006520Y006076D02*
X006595Y006001D01*
X006348Y006026D02*
X006348Y006126D01*
X006413Y006694D02*
X006413Y006844D01*
X006338Y006769D01*
X006438Y006769D01*
X006485Y006719D02*
X006585Y006819D01*
X006585Y006719D01*
X006560Y006694D01*
X006510Y006694D01*
X006485Y006719D01*
X006485Y006819D01*
X006510Y006844D01*
X006560Y006844D01*
X006585Y006819D01*
X006633Y006819D02*
X006658Y006844D01*
X006708Y006844D01*
X006733Y006819D01*
X006733Y006794D01*
X006633Y006694D01*
X006733Y006694D01*
X006291Y006719D02*
X006291Y006819D01*
X006266Y006844D01*
X006191Y006844D01*
X006191Y006694D01*
X006266Y006694D01*
X006291Y006719D01*
X007433Y006141D02*
X007533Y006041D01*
X007508Y006066D02*
X007583Y006141D01*
X007583Y006041D02*
X007433Y006041D01*
X007458Y005994D02*
X007558Y005894D01*
X007583Y005919D01*
X007583Y005969D01*
X007558Y005994D01*
X007458Y005994D01*
X007433Y005969D01*
X007433Y005919D01*
X007458Y005894D01*
X007558Y005894D01*
X007558Y005846D02*
X007583Y005821D01*
X007583Y005771D01*
X007558Y005746D01*
X007458Y005846D01*
X007558Y005846D01*
X007558Y005746D02*
X007458Y005746D01*
X007433Y005771D01*
X007433Y005821D01*
X007458Y005846D01*
X007583Y005699D02*
X007583Y005599D01*
X007583Y005649D02*
X007433Y005649D01*
X007483Y005599D01*
X007452Y005327D02*
X007427Y005327D01*
X007402Y005302D01*
X007402Y005252D01*
X007427Y005227D01*
X007427Y005180D02*
X007402Y005155D01*
X007402Y005105D01*
X007427Y005080D01*
X007527Y005080D01*
X007427Y005180D01*
X007527Y005180D01*
X007552Y005155D01*
X007552Y005105D01*
X007527Y005080D01*
X007477Y005032D02*
X007477Y004932D01*
X007402Y005007D01*
X007552Y005007D01*
X007552Y004885D02*
X007502Y004835D01*
X007502Y004860D02*
X007502Y004785D01*
X007552Y004785D02*
X007402Y004785D01*
X007402Y004860D01*
X007427Y004885D01*
X007477Y004885D01*
X007502Y004860D01*
X007552Y005227D02*
X007452Y005327D01*
X007552Y005327D02*
X007552Y005227D01*
X006623Y004759D02*
X006623Y004609D01*
X006573Y004609D02*
X006673Y004609D01*
X006573Y004709D02*
X006623Y004759D01*
X006526Y004734D02*
X006426Y004634D01*
X006451Y004609D01*
X006501Y004609D01*
X006526Y004634D01*
X006526Y004734D01*
X006501Y004759D01*
X006451Y004759D01*
X006426Y004734D01*
X006426Y004634D01*
X006379Y004684D02*
X006278Y004684D01*
X006354Y004759D01*
X006354Y004609D01*
X006231Y004609D02*
X006181Y004659D01*
X006206Y004659D02*
X006131Y004659D01*
X006131Y004609D02*
X006131Y004759D01*
X006206Y004759D01*
X006231Y004734D01*
X006231Y004684D01*
X006206Y004659D01*
X005873Y004634D02*
X005873Y004734D01*
X005848Y004759D01*
X005798Y004759D01*
X005773Y004734D01*
X005773Y004709D01*
X005798Y004684D01*
X005873Y004684D01*
X005873Y004634D02*
X005848Y004609D01*
X005798Y004609D01*
X005773Y004634D01*
X005726Y004634D02*
X005701Y004609D01*
X005651Y004609D01*
X005626Y004634D01*
X005726Y004734D01*
X005726Y004634D01*
X005626Y004634D02*
X005626Y004734D01*
X005651Y004759D01*
X005701Y004759D01*
X005726Y004734D01*
X005579Y004684D02*
X005478Y004684D01*
X005554Y004759D01*
X005554Y004609D01*
X005431Y004609D02*
X005381Y004659D01*
X005406Y004659D02*
X005331Y004659D01*
X005331Y004609D02*
X005331Y004759D01*
X005406Y004759D01*
X005431Y004734D01*
X005431Y004684D01*
X005406Y004659D01*
X005170Y004643D02*
X005170Y004618D01*
X005145Y004593D01*
X005095Y004593D01*
X005070Y004618D01*
X005070Y004643D01*
X005095Y004668D01*
X005145Y004668D01*
X005170Y004643D01*
X005145Y004668D02*
X005170Y004693D01*
X005170Y004718D01*
X005145Y004743D01*
X005095Y004743D01*
X005070Y004718D01*
X005070Y004693D01*
X005095Y004668D01*
X005023Y004618D02*
X004998Y004593D01*
X004948Y004593D01*
X004923Y004618D01*
X005023Y004718D01*
X005023Y004618D01*
X005023Y004718D02*
X004998Y004743D01*
X004948Y004743D01*
X004923Y004718D01*
X004923Y004618D01*
X004875Y004668D02*
X004775Y004668D01*
X004850Y004743D01*
X004850Y004593D01*
X004728Y004593D02*
X004678Y004643D01*
X004703Y004643D02*
X004628Y004643D01*
X004628Y004593D02*
X004628Y004743D01*
X004703Y004743D01*
X004728Y004718D01*
X004728Y004668D01*
X004703Y004643D01*
X004089Y006701D02*
X004089Y006751D01*
X004089Y006726D02*
X003939Y006726D01*
X003939Y006701D02*
X003939Y006751D01*
X003964Y006799D02*
X004064Y006799D01*
X004089Y006824D01*
X004089Y006874D01*
X004064Y006899D01*
X004014Y006946D02*
X004014Y007047D01*
X004064Y007094D02*
X003964Y007194D01*
X004064Y007194D01*
X004089Y007169D01*
X004089Y007119D01*
X004064Y007094D01*
X003964Y007094D01*
X003939Y007119D01*
X003939Y007169D01*
X003964Y007194D01*
X004014Y007241D02*
X004014Y007341D01*
X004089Y007316D02*
X003939Y007316D01*
X004014Y007241D01*
X004089Y007021D02*
X003939Y007021D01*
X004014Y006946D01*
X003964Y006899D02*
X003939Y006874D01*
X003939Y006824D01*
X003964Y006799D01*
X002797Y006945D02*
X002797Y007020D01*
X002772Y007045D01*
X002747Y007045D01*
X002722Y007020D01*
X002722Y006945D01*
X002797Y006945D02*
X002647Y006945D01*
X002647Y007020D01*
X002672Y007045D01*
X002697Y007045D01*
X002722Y007020D01*
X002722Y007092D02*
X002722Y007192D01*
X002697Y007192D02*
X002797Y007192D01*
X002797Y007239D02*
X002647Y007239D01*
X002647Y007314D01*
X002672Y007339D01*
X002722Y007339D01*
X002747Y007314D01*
X002747Y007239D01*
X002747Y007289D02*
X002797Y007339D01*
X002797Y007387D02*
X002797Y007487D01*
X002797Y007437D02*
X002647Y007437D01*
X002697Y007387D01*
X002697Y007534D02*
X002672Y007534D01*
X002647Y007559D01*
X002647Y007609D01*
X002672Y007634D01*
X002697Y007634D01*
X002722Y007609D01*
X002722Y007559D01*
X002697Y007534D01*
X002722Y007559D02*
X002747Y007534D01*
X002772Y007534D01*
X002797Y007559D01*
X002797Y007609D01*
X002772Y007634D01*
X002747Y007634D01*
X002722Y007609D01*
X002697Y007192D02*
X002647Y007142D01*
X002697Y007092D01*
X002797Y007092D01*
X004267Y008559D02*
X004267Y008709D01*
X004217Y008709D02*
X004317Y008709D01*
X004364Y008709D02*
X004364Y008559D01*
X004464Y008559D01*
X004512Y008609D02*
X004562Y008559D01*
X004612Y008609D01*
X004612Y008709D01*
X004659Y008684D02*
X004684Y008709D01*
X004734Y008709D01*
X004759Y008684D01*
X004759Y008659D01*
X004734Y008634D01*
X004759Y008609D01*
X004759Y008584D01*
X004734Y008559D01*
X004684Y008559D01*
X004659Y008584D01*
X004709Y008634D02*
X004734Y008634D01*
X004806Y008634D02*
X004856Y008659D01*
X004881Y008659D01*
X004906Y008634D01*
X004906Y008584D01*
X004881Y008559D01*
X004831Y008559D01*
X004806Y008584D01*
X004806Y008634D02*
X004806Y008709D01*
X004906Y008709D01*
X004954Y008684D02*
X004979Y008709D01*
X005029Y008709D01*
X005054Y008684D01*
X004954Y008584D01*
X004979Y008559D01*
X005029Y008559D01*
X005054Y008584D01*
X005054Y008684D01*
X005101Y008684D02*
X005126Y008709D01*
X005176Y008709D01*
X005201Y008684D01*
X005201Y008659D01*
X005101Y008559D01*
X005201Y008559D01*
X004954Y008584D02*
X004954Y008684D01*
X004975Y008840D02*
X004975Y008990D01*
X004900Y008915D01*
X005000Y008915D01*
X005047Y008940D02*
X005097Y008990D01*
X005097Y008840D01*
X005047Y008840D02*
X005148Y008840D01*
X005195Y008840D02*
X005195Y008865D01*
X005295Y008965D01*
X005295Y008990D01*
X005195Y008990D01*
X005195Y009033D02*
X005195Y009183D01*
X005148Y009158D02*
X005047Y009058D01*
X005072Y009033D01*
X005122Y009033D01*
X005148Y009058D01*
X005148Y009158D01*
X005122Y009183D01*
X005072Y009183D01*
X005047Y009158D01*
X005047Y009058D01*
X005000Y009108D02*
X004900Y009108D01*
X004975Y009183D01*
X004975Y009033D01*
X004853Y009033D02*
X004753Y009033D01*
X004853Y009133D01*
X004853Y009158D01*
X004828Y009183D01*
X004778Y009183D01*
X004753Y009158D01*
X004606Y009152D02*
X004531Y009152D01*
X004506Y009178D01*
X004506Y009203D01*
X004531Y009228D01*
X004581Y009228D01*
X004606Y009203D01*
X004606Y009102D01*
X004581Y009077D01*
X004531Y009077D01*
X004506Y009102D01*
X004459Y009077D02*
X004358Y009077D01*
X004409Y009077D02*
X004409Y009228D01*
X004358Y009178D01*
X004311Y009152D02*
X004211Y009152D01*
X004286Y009228D01*
X004286Y009077D01*
X004164Y009077D02*
X004114Y009127D01*
X004139Y009127D02*
X004064Y009127D01*
X004064Y009077D02*
X004064Y009228D01*
X004139Y009228D01*
X004164Y009203D01*
X004164Y009152D01*
X004139Y009127D01*
X003721Y009136D02*
X003721Y009086D01*
X003696Y009061D01*
X003621Y009061D01*
X003671Y009061D02*
X003721Y009011D01*
X003621Y009011D02*
X003621Y009161D01*
X003696Y009161D01*
X003721Y009136D01*
X003573Y009136D02*
X003548Y009161D01*
X003498Y009161D01*
X003473Y009136D01*
X003473Y009036D01*
X003573Y009136D01*
X003573Y009036D01*
X003548Y009011D01*
X003498Y009011D01*
X003473Y009036D01*
X003228Y009080D02*
X003228Y009180D01*
X003128Y009080D01*
X003153Y009055D01*
X003203Y009055D01*
X003228Y009080D01*
X003128Y009080D02*
X003128Y009180D01*
X003153Y009206D01*
X003203Y009206D01*
X003228Y009180D01*
X003081Y009180D02*
X003056Y009206D01*
X003006Y009206D01*
X002981Y009180D01*
X002933Y009130D02*
X002833Y009130D01*
X002908Y009206D01*
X002908Y009055D01*
X002981Y009055D02*
X003081Y009155D01*
X003081Y009180D01*
X003081Y009055D02*
X002981Y009055D01*
X002786Y009055D02*
X002736Y009105D01*
X002761Y009105D02*
X002686Y009105D01*
X002686Y009055D02*
X002686Y009206D01*
X002761Y009206D01*
X002786Y009180D01*
X002786Y009130D01*
X002761Y009105D01*
X001822Y009094D02*
X001797Y009069D01*
X001747Y009069D01*
X001722Y009094D01*
X001722Y009119D01*
X001747Y009144D01*
X001797Y009144D01*
X001822Y009119D01*
X001822Y009094D01*
X001797Y009069D02*
X001822Y009044D01*
X001822Y009019D01*
X001797Y008994D01*
X001747Y008994D01*
X001722Y009019D01*
X001722Y009044D01*
X001747Y009069D01*
X001675Y008994D02*
X001575Y008994D01*
X001527Y008994D02*
X001477Y009044D01*
X001502Y009044D02*
X001427Y009044D01*
X001427Y008994D02*
X001427Y009144D01*
X001502Y009144D01*
X001527Y009119D01*
X001527Y009069D01*
X001502Y009044D01*
X001575Y009094D02*
X001625Y009144D01*
X001625Y008994D01*
X001380Y008994D02*
X001380Y009094D01*
X001330Y009144D01*
X001280Y009094D01*
X001280Y008994D01*
X001233Y009019D02*
X001208Y008994D01*
X001133Y008994D01*
X001133Y009144D01*
X001208Y009144D01*
X001233Y009119D01*
X001233Y009094D01*
X001208Y009069D01*
X001133Y009069D01*
X001208Y009069D02*
X001233Y009044D01*
X001233Y009019D01*
X001280Y009069D02*
X001380Y009069D01*
X000870Y008716D02*
X000720Y008716D01*
X000795Y008641D01*
X000795Y008741D01*
X000745Y008594D02*
X000845Y008494D01*
X000870Y008519D01*
X000870Y008569D01*
X000845Y008594D01*
X000745Y008594D01*
X000720Y008569D01*
X000720Y008519D01*
X000745Y008494D01*
X000845Y008494D01*
X000795Y008447D02*
X000795Y008346D01*
X000720Y008422D01*
X000870Y008422D01*
X000845Y008299D02*
X000745Y008299D01*
X000720Y008274D01*
X000720Y008199D01*
X000870Y008199D01*
X000870Y008274D01*
X000845Y008299D01*
X000835Y007625D02*
X000810Y007625D01*
X000785Y007600D01*
X000785Y007525D01*
X000835Y007525D01*
X000860Y007550D01*
X000860Y007600D01*
X000835Y007625D01*
X000735Y007575D02*
X000785Y007525D01*
X000735Y007477D02*
X000835Y007477D01*
X000860Y007452D01*
X000860Y007402D01*
X000835Y007377D01*
X000735Y007477D01*
X000710Y007452D01*
X000710Y007402D01*
X000735Y007377D01*
X000835Y007377D01*
X000785Y007330D02*
X000785Y007230D01*
X000710Y007305D01*
X000860Y007305D01*
X000835Y007183D02*
X000735Y007183D01*
X000710Y007158D01*
X000710Y007083D01*
X000860Y007083D01*
X000860Y007158D01*
X000835Y007183D01*
X000735Y007575D02*
X000710Y007625D01*
X000751Y006290D02*
X000751Y006190D01*
X000826Y006190D01*
X000801Y006240D01*
X000801Y006265D01*
X000826Y006290D01*
X000876Y006290D01*
X000901Y006265D01*
X000901Y006215D01*
X000876Y006190D01*
X000876Y006142D02*
X000901Y006117D01*
X000901Y006067D01*
X000876Y006042D01*
X000776Y006142D01*
X000876Y006142D01*
X000876Y006042D02*
X000776Y006042D01*
X000751Y006067D01*
X000751Y006117D01*
X000776Y006142D01*
X000826Y005995D02*
X000826Y005895D01*
X000751Y005970D01*
X000901Y005970D01*
X000876Y005848D02*
X000776Y005848D01*
X000751Y005823D01*
X000751Y005748D01*
X000901Y005748D01*
X000901Y005823D01*
X000876Y005848D01*
X000838Y005563D02*
X000938Y005563D01*
X000938Y005538D01*
X000838Y005438D01*
X000838Y005413D01*
X000938Y005413D01*
X000985Y005413D02*
X001085Y005563D01*
X001133Y005538D02*
X001133Y005513D01*
X001158Y005488D01*
X001208Y005488D01*
X001233Y005463D01*
X001233Y005438D01*
X001208Y005413D01*
X001158Y005413D01*
X001133Y005438D01*
X001133Y005463D01*
X001158Y005488D01*
X001208Y005488D02*
X001233Y005513D01*
X001233Y005538D01*
X001208Y005563D01*
X001158Y005563D01*
X001133Y005538D01*
X001085Y005413D02*
X000985Y005563D01*
X000791Y005538D02*
X000791Y005513D01*
X000766Y005488D01*
X000691Y005488D01*
X000766Y005488D02*
X000791Y005463D01*
X000791Y005438D01*
X000766Y005413D01*
X000691Y005413D01*
X000691Y005563D01*
X000766Y005563D01*
X000791Y005538D01*
X001280Y005488D02*
X001380Y005488D01*
X001427Y005538D02*
X001427Y005438D01*
X001452Y005413D01*
X001502Y005413D01*
X001527Y005438D01*
X001575Y005488D02*
X001675Y005488D01*
X001722Y005438D02*
X001722Y005413D01*
X001722Y005438D02*
X001822Y005538D01*
X001822Y005563D01*
X001722Y005563D01*
X001650Y005563D02*
X001575Y005488D01*
X001527Y005538D02*
X001502Y005563D01*
X001452Y005563D01*
X001427Y005538D01*
X001355Y005563D02*
X001280Y005488D01*
X001355Y005413D02*
X001355Y005563D01*
X001650Y005563D02*
X001650Y005413D01*
X004512Y008609D02*
X004512Y008709D01*
X004753Y008840D02*
X004753Y008990D01*
X004828Y008990D01*
X004853Y008965D01*
X004853Y008915D01*
X004828Y008890D01*
X004753Y008890D01*
X004803Y008890D02*
X004853Y008840D01*
X005195Y009083D02*
X005295Y009183D01*
X005220Y009108D02*
X005295Y009033D01*
X005442Y009019D02*
X005467Y009044D01*
X005517Y009044D01*
X005542Y009019D01*
X005542Y008994D01*
X005442Y008894D01*
X005542Y008894D01*
X005589Y008969D02*
X005689Y008969D01*
X005736Y008919D02*
X005736Y009019D01*
X005761Y009044D01*
X005811Y009044D01*
X005836Y009019D01*
X005736Y008919D01*
X005761Y008894D01*
X005811Y008894D01*
X005836Y008919D01*
X005836Y009019D01*
X005884Y009044D02*
X005884Y008894D01*
X005884Y008944D02*
X005984Y009044D01*
X005959Y009099D02*
X005959Y009250D01*
X005884Y009175D01*
X005984Y009175D01*
X005836Y009225D02*
X005836Y009124D01*
X005811Y009099D01*
X005761Y009099D01*
X005736Y009124D01*
X005836Y009225D01*
X005811Y009250D01*
X005761Y009250D01*
X005736Y009225D01*
X005736Y009124D01*
X005689Y009175D02*
X005589Y009175D01*
X005664Y009250D01*
X005664Y009099D01*
X005664Y009044D02*
X005589Y008969D01*
X005664Y008894D02*
X005664Y009044D01*
X005542Y009099D02*
X005492Y009150D01*
X005517Y009150D02*
X005442Y009150D01*
X005442Y009099D02*
X005442Y009250D01*
X005517Y009250D01*
X005542Y009225D01*
X005542Y009175D01*
X005517Y009150D01*
X005909Y008969D02*
X005984Y008894D01*
X007069Y009008D02*
X007144Y009008D01*
X007169Y009033D01*
X007169Y009133D01*
X007144Y009158D01*
X007069Y009158D01*
X007069Y009008D01*
X007216Y009083D02*
X007291Y009158D01*
X007291Y009008D01*
X007363Y009033D02*
X007463Y009133D01*
X007463Y009033D01*
X007438Y009008D01*
X007388Y009008D01*
X007363Y009033D01*
X007363Y009133D01*
X007388Y009158D01*
X007438Y009158D01*
X007463Y009133D01*
X007511Y009108D02*
X007561Y009158D01*
X007561Y009008D01*
X007511Y009008D02*
X007611Y009008D01*
X007637Y008825D02*
X007787Y008825D01*
X007787Y008775D02*
X007787Y008875D01*
X007687Y008775D02*
X007637Y008825D01*
X007662Y008728D02*
X007637Y008703D01*
X007637Y008653D01*
X007662Y008628D01*
X007662Y008581D02*
X007637Y008556D01*
X007637Y008506D01*
X007662Y008481D01*
X007687Y008481D01*
X007712Y008506D01*
X007712Y008556D01*
X007737Y008581D01*
X007762Y008581D01*
X007787Y008556D01*
X007787Y008506D01*
X007762Y008481D01*
X007787Y008434D02*
X007687Y008434D01*
X007637Y008383D01*
X007687Y008333D01*
X007787Y008333D01*
X007762Y008286D02*
X007787Y008261D01*
X007787Y008186D01*
X007637Y008186D01*
X007637Y008261D01*
X007662Y008286D01*
X007687Y008286D01*
X007712Y008261D01*
X007712Y008186D01*
X007712Y008261D02*
X007737Y008286D01*
X007762Y008286D01*
X007712Y008333D02*
X007712Y008434D01*
X007787Y008628D02*
X007687Y008728D01*
X007662Y008728D01*
X007787Y008728D02*
X007787Y008628D01*
X007316Y009083D02*
X007216Y009083D01*
X007651Y007779D02*
X007677Y007779D01*
X007777Y007679D01*
X007802Y007679D01*
X007802Y007607D02*
X007651Y007607D01*
X007727Y007532D01*
X007727Y007632D01*
X007651Y007679D02*
X007651Y007779D01*
X007677Y007484D02*
X007651Y007459D01*
X007651Y007409D01*
X007677Y007384D01*
X007777Y007384D01*
X007802Y007409D01*
X007802Y007459D01*
X007777Y007484D01*
X007727Y007337D02*
X007727Y007237D01*
X007651Y007312D01*
X007802Y007312D01*
X007777Y007190D02*
X007802Y007165D01*
X007802Y007115D01*
X007777Y007090D01*
X007752Y007090D01*
X007727Y007115D01*
X007727Y007165D01*
X007752Y007190D01*
X007777Y007190D01*
X007727Y007165D02*
X007702Y007190D01*
X007677Y007190D01*
X007651Y007165D01*
X007651Y007115D01*
X007677Y007090D01*
X007702Y007090D01*
X007727Y007115D01*
X007802Y007042D02*
X007651Y006942D01*
X007651Y006895D02*
X007677Y006895D01*
X007777Y006795D01*
X007802Y006795D01*
X007802Y006895D01*
X007802Y006942D02*
X007651Y007042D01*
X007651Y006895D02*
X007651Y006795D01*
X007677Y006748D02*
X007702Y006748D01*
X007727Y006723D01*
X007727Y006648D01*
X007802Y006648D02*
X007802Y006723D01*
X007777Y006748D01*
X007752Y006748D01*
X007727Y006723D01*
X007677Y006748D02*
X007651Y006723D01*
X007651Y006648D01*
X007802Y006648D01*
X008155Y003941D02*
X008130Y003916D01*
X008130Y003866D01*
X008155Y003841D01*
X008130Y003794D02*
X008130Y003694D01*
X008205Y003694D01*
X008180Y003744D01*
X008180Y003769D01*
X008205Y003794D01*
X008255Y003794D01*
X008280Y003769D01*
X008280Y003719D01*
X008255Y003694D01*
X008255Y003647D02*
X008280Y003622D01*
X008280Y003572D01*
X008255Y003547D01*
X008155Y003647D01*
X008255Y003647D01*
X008155Y003647D02*
X008130Y003622D01*
X008130Y003572D01*
X008155Y003547D01*
X008255Y003547D01*
X008255Y003499D02*
X008230Y003499D01*
X008205Y003474D01*
X008205Y003424D01*
X008180Y003399D01*
X008155Y003399D01*
X008130Y003424D01*
X008130Y003474D01*
X008155Y003499D01*
X008180Y003499D01*
X008205Y003474D01*
X008205Y003424D02*
X008230Y003399D01*
X008255Y003399D01*
X008280Y003424D01*
X008280Y003474D01*
X008255Y003499D01*
X008255Y003352D02*
X008155Y003352D01*
X008130Y003327D01*
X008130Y003252D01*
X008280Y003252D01*
X008280Y003327D01*
X008255Y003352D01*
X008280Y003205D02*
X008180Y003205D01*
X008130Y003155D01*
X008180Y003105D01*
X008280Y003105D01*
X008205Y003105D02*
X008205Y003205D01*
X008280Y003841D02*
X008180Y003941D01*
X008155Y003941D01*
X008280Y003941D02*
X008280Y003841D01*
X010962Y006923D02*
X011062Y006923D01*
X011087Y006948D01*
X011087Y006998D01*
X011062Y007023D01*
X011087Y007071D02*
X010987Y007171D01*
X010962Y007171D01*
X010937Y007146D01*
X010937Y007096D01*
X010962Y007071D01*
X010962Y007023D02*
X010937Y006998D01*
X010937Y006948D01*
X010962Y006923D01*
X011087Y007071D02*
X011087Y007171D01*
X011062Y007218D02*
X010962Y007318D01*
X011062Y007318D01*
X011087Y007293D01*
X011087Y007243D01*
X011062Y007218D01*
X010962Y007218D01*
X010937Y007243D01*
X010937Y007293D01*
X010962Y007318D01*
X010962Y007365D02*
X010937Y007390D01*
X010937Y007440D01*
X010962Y007465D01*
X010987Y007465D01*
X011087Y007365D01*
X011087Y007465D01*
X010737Y007956D02*
X010587Y007956D01*
X010587Y008031D01*
X010612Y008056D01*
X010712Y008056D01*
X010737Y008031D01*
X010737Y007956D01*
X010737Y008104D02*
X010587Y008104D01*
X010737Y008204D01*
X010587Y008204D01*
X010587Y008251D02*
X010587Y008326D01*
X010612Y008351D01*
X010662Y008351D01*
X010687Y008326D01*
X010687Y008251D01*
X010737Y008251D02*
X010587Y008251D01*
X010572Y008646D02*
X010572Y008721D01*
X010597Y008746D01*
X010647Y008746D01*
X010672Y008721D01*
X010672Y008646D01*
X010722Y008646D02*
X010572Y008646D01*
X010672Y008696D02*
X010722Y008746D01*
X010722Y008794D02*
X010622Y008894D01*
X010597Y008894D01*
X010572Y008869D01*
X010572Y008819D01*
X010597Y008794D01*
X010722Y008794D02*
X010722Y008894D01*
X010697Y008941D02*
X010597Y009041D01*
X010697Y009041D01*
X010722Y009016D01*
X010722Y008966D01*
X010697Y008941D01*
X010597Y008941D01*
X010572Y008966D01*
X010572Y009016D01*
X010597Y009041D01*
X010597Y009088D02*
X010572Y009113D01*
X010572Y009163D01*
X010597Y009188D01*
X010622Y009188D01*
X010722Y009088D01*
X010722Y009188D01*
X010749Y009259D02*
X010749Y009334D01*
X010724Y009359D01*
X010624Y009359D01*
X010599Y009334D01*
X010599Y009259D01*
X010749Y009259D01*
X010749Y009406D02*
X010599Y009406D01*
X010749Y009506D01*
X010599Y009506D01*
X010599Y009554D02*
X010599Y009629D01*
X010624Y009654D01*
X010674Y009654D01*
X010699Y009629D01*
X010699Y009554D01*
X010749Y009554D02*
X010599Y009554D01*
X010637Y009876D02*
X010587Y009926D01*
X010737Y009926D01*
X010737Y009876D02*
X010737Y009976D01*
X010712Y010023D02*
X010612Y010123D01*
X010712Y010123D01*
X010737Y010098D01*
X010737Y010048D01*
X010712Y010023D01*
X010612Y010023D01*
X010587Y010048D01*
X010587Y010098D01*
X010612Y010123D01*
X010612Y010171D02*
X010587Y010196D01*
X010587Y010246D01*
X010612Y010271D01*
X010712Y010171D01*
X010737Y010196D01*
X010737Y010246D01*
X010712Y010271D01*
X010612Y010271D01*
X010637Y010318D02*
X010637Y010393D01*
X010662Y010418D01*
X010737Y010418D01*
X010737Y010318D02*
X010637Y010318D01*
X010612Y010171D02*
X010712Y010171D01*
X011993Y010148D02*
X012018Y010123D01*
X011993Y010148D02*
X011993Y010198D01*
X012018Y010223D01*
X012043Y010223D01*
X012143Y010123D01*
X012143Y010223D01*
X012118Y010271D02*
X012018Y010371D01*
X012118Y010371D01*
X012143Y010346D01*
X012143Y010296D01*
X012118Y010271D01*
X012018Y010271D01*
X011993Y010296D01*
X011993Y010346D01*
X012018Y010371D01*
X011993Y010418D02*
X011993Y010518D01*
X012018Y010518D01*
X012118Y010418D01*
X012143Y010418D01*
X012118Y010076D02*
X012143Y010051D01*
X012143Y010001D01*
X012118Y009976D01*
X012018Y009976D01*
X011993Y010001D01*
X011993Y010051D01*
X012018Y010076D01*
X012156Y009752D02*
X012156Y009652D01*
X012156Y009702D02*
X012006Y009702D01*
X012056Y009652D01*
X012031Y009605D02*
X012131Y009505D01*
X012156Y009530D01*
X012156Y009580D01*
X012131Y009605D01*
X012031Y009605D01*
X012006Y009580D01*
X012006Y009530D01*
X012031Y009505D01*
X012131Y009505D01*
X012156Y009458D02*
X012156Y009358D01*
X012056Y009458D01*
X012031Y009458D01*
X012006Y009433D01*
X012006Y009383D01*
X012031Y009358D01*
X012031Y009310D02*
X012006Y009285D01*
X012006Y009235D01*
X012031Y009210D01*
X012131Y009210D01*
X012156Y009235D01*
X012156Y009285D01*
X012131Y009310D01*
X012129Y008942D02*
X012079Y008892D01*
X012079Y008917D02*
X012079Y008842D01*
X012129Y008842D02*
X011979Y008842D01*
X011979Y008917D01*
X012004Y008942D01*
X012054Y008942D01*
X012079Y008917D01*
X012104Y008795D02*
X012129Y008770D01*
X012129Y008720D01*
X012104Y008695D01*
X012004Y008795D01*
X012104Y008795D01*
X012004Y008795D02*
X011979Y008770D01*
X011979Y008720D01*
X012004Y008695D01*
X012104Y008695D01*
X012143Y008499D02*
X012143Y008399D01*
X012143Y008449D02*
X011993Y008449D01*
X012043Y008399D01*
X012018Y008352D02*
X012118Y008252D01*
X012143Y008277D01*
X012143Y008327D01*
X012118Y008352D01*
X012018Y008352D01*
X011993Y008327D01*
X011993Y008277D01*
X012018Y008252D01*
X012118Y008252D01*
X012143Y008205D02*
X012143Y008105D01*
X012043Y008205D01*
X012018Y008205D01*
X011993Y008180D01*
X011993Y008130D01*
X012018Y008105D01*
X012018Y008058D02*
X012068Y008058D01*
X012093Y008032D01*
X012093Y007957D01*
X012143Y007957D02*
X011993Y007957D01*
X011993Y008032D01*
X012018Y008058D01*
X012093Y008007D02*
X012143Y008058D01*
X012854Y008117D02*
X012854Y007992D01*
X012879Y007967D01*
X012929Y007967D01*
X012954Y007992D01*
X012954Y008117D01*
X013001Y008092D02*
X013026Y008117D01*
X013076Y008117D01*
X013101Y008092D01*
X013101Y008067D01*
X013001Y007967D01*
X013101Y007967D01*
X013148Y007992D02*
X013248Y008092D01*
X013248Y007992D01*
X013223Y007967D01*
X013173Y007967D01*
X013148Y007992D01*
X013148Y008092D01*
X013173Y008117D01*
X013223Y008117D01*
X013248Y008092D01*
X013296Y008067D02*
X013346Y008117D01*
X013346Y007967D01*
X013296Y007967D02*
X013396Y007967D01*
X013502Y007986D02*
X013502Y008136D01*
X013602Y008136D01*
X013649Y008136D02*
X013724Y008136D01*
X013749Y008111D01*
X013749Y008086D01*
X013724Y008061D01*
X013649Y008061D01*
X013649Y007986D02*
X013649Y008136D01*
X013724Y008061D02*
X013749Y008036D01*
X013749Y008011D01*
X013724Y007986D01*
X013649Y007986D01*
X013552Y008061D02*
X013502Y008061D01*
X013961Y008012D02*
X013961Y007911D01*
X013986Y007886D01*
X014036Y007886D01*
X014061Y007911D01*
X014108Y007886D02*
X014208Y007987D01*
X014208Y008012D01*
X014183Y008037D01*
X014133Y008037D01*
X014108Y008012D01*
X014061Y008012D02*
X014036Y008037D01*
X013986Y008037D01*
X013961Y008012D01*
X014108Y007886D02*
X014208Y007886D01*
X014255Y007911D02*
X014355Y008012D01*
X014355Y007911D01*
X014330Y007886D01*
X014280Y007886D01*
X014255Y007911D01*
X014255Y008012D01*
X014280Y008037D01*
X014330Y008037D01*
X014355Y008012D01*
X014403Y008037D02*
X014403Y007962D01*
X014453Y007987D01*
X014478Y007987D01*
X014503Y007962D01*
X014503Y007911D01*
X014478Y007886D01*
X014428Y007886D01*
X014403Y007911D01*
X014403Y008037D02*
X014503Y008037D01*
X014748Y008030D02*
X014798Y008080D01*
X014798Y007930D01*
X014748Y007930D02*
X014848Y007930D01*
X014895Y007955D02*
X014995Y008055D01*
X014995Y007955D01*
X014970Y007930D01*
X014920Y007930D01*
X014895Y007955D01*
X014895Y008055D01*
X014920Y008080D01*
X014970Y008080D01*
X014995Y008055D01*
X015043Y008055D02*
X015068Y008080D01*
X015118Y008080D01*
X015143Y008055D01*
X015043Y007955D01*
X015068Y007930D01*
X015118Y007930D01*
X015143Y007955D01*
X015143Y008055D01*
X015190Y008030D02*
X015265Y008030D01*
X015290Y008005D01*
X015290Y007930D01*
X015190Y007930D02*
X015190Y008030D01*
X015043Y008055D02*
X015043Y007955D01*
X015334Y007247D02*
X015359Y007247D01*
X015384Y007222D01*
X015409Y007247D01*
X015434Y007247D01*
X015459Y007222D01*
X015459Y007172D01*
X015434Y007147D01*
X015459Y007100D02*
X015459Y007000D01*
X015459Y006952D02*
X015459Y006852D01*
X015359Y006952D01*
X015334Y006952D01*
X015309Y006927D01*
X015309Y006877D01*
X015334Y006852D01*
X015334Y006805D02*
X015309Y006780D01*
X015309Y006730D01*
X015334Y006705D01*
X015434Y006705D01*
X015459Y006730D01*
X015459Y006780D01*
X015434Y006805D01*
X015359Y007000D02*
X015309Y007050D01*
X015459Y007050D01*
X015334Y007147D02*
X015309Y007172D01*
X015309Y007222D01*
X015334Y007247D01*
X015384Y007222D02*
X015384Y007197D01*
X014505Y006580D02*
X014505Y006480D01*
X014430Y006480D01*
X014405Y006505D01*
X014405Y006580D01*
X014308Y006630D02*
X014308Y006480D01*
X014258Y006480D02*
X014358Y006480D01*
X014258Y006580D02*
X014308Y006630D01*
X012633Y006535D02*
X012633Y006510D01*
X012608Y006485D01*
X012558Y006485D01*
X012533Y006510D01*
X012533Y006535D01*
X012558Y006560D01*
X012608Y006560D01*
X012633Y006535D01*
X012633Y006528D02*
X012633Y006453D01*
X012633Y006460D02*
X012633Y006435D01*
X012608Y006410D01*
X012558Y006410D01*
X012533Y006435D01*
X012533Y006460D01*
X012558Y006485D01*
X012533Y006453D02*
X012533Y006554D01*
X012608Y006554D01*
X012633Y006528D01*
X012608Y006485D02*
X012633Y006460D01*
X012485Y006478D02*
X012460Y006453D01*
X012410Y006453D01*
X012385Y006478D01*
X012485Y006579D01*
X012485Y006478D01*
X012485Y006435D02*
X012485Y006535D01*
X012385Y006435D01*
X012410Y006410D01*
X012460Y006410D01*
X012485Y006435D01*
X012385Y006435D02*
X012385Y006535D01*
X012410Y006560D01*
X012460Y006560D01*
X012485Y006535D01*
X012485Y006579D02*
X012460Y006604D01*
X012410Y006604D01*
X012385Y006579D01*
X012385Y006478D01*
X012338Y006478D02*
X012313Y006453D01*
X012263Y006453D01*
X012238Y006478D01*
X012338Y006579D01*
X012338Y006478D01*
X012338Y006510D02*
X012338Y006535D01*
X012313Y006560D01*
X012263Y006560D01*
X012238Y006535D01*
X012238Y006579D02*
X012263Y006604D01*
X012313Y006604D01*
X012338Y006579D01*
X012338Y006510D02*
X012238Y006410D01*
X012338Y006410D01*
X012238Y006478D02*
X012238Y006579D01*
X012191Y006535D02*
X012166Y006560D01*
X012116Y006560D01*
X012091Y006535D01*
X012091Y006435D01*
X012116Y006410D01*
X012166Y006410D01*
X012191Y006435D01*
X012191Y006453D02*
X012091Y006453D01*
X012141Y006453D02*
X012141Y006604D01*
X012091Y006554D01*
X011747Y006554D02*
X011747Y006453D01*
X011672Y006453D01*
X011647Y006478D01*
X011647Y006554D01*
X011550Y006604D02*
X011550Y006453D01*
X011500Y006453D02*
X011600Y006453D01*
X011500Y006554D02*
X011550Y006604D01*
X007951Y010493D02*
X007951Y010568D01*
X007926Y010593D01*
X007851Y010593D01*
X007851Y010493D01*
X007804Y010493D02*
X007703Y010493D01*
X007753Y010493D02*
X007753Y010643D01*
X007703Y010593D01*
X007632Y010688D02*
X007582Y010688D01*
X007557Y010713D01*
X007557Y010813D01*
X007582Y010838D01*
X007632Y010838D01*
X007657Y010813D01*
X007705Y010763D02*
X007805Y010763D01*
X007852Y010813D02*
X007877Y010838D01*
X007927Y010838D01*
X007952Y010813D01*
X007852Y010713D01*
X007877Y010688D01*
X007927Y010688D01*
X007952Y010713D01*
X007952Y010813D01*
X007999Y010763D02*
X008074Y010763D01*
X008099Y010738D01*
X008099Y010713D01*
X008074Y010688D01*
X008024Y010688D01*
X007999Y010713D01*
X007999Y010763D01*
X008049Y010813D01*
X008099Y010838D01*
X007852Y010813D02*
X007852Y010713D01*
X007780Y010688D02*
X007780Y010838D01*
X007705Y010763D01*
X007657Y010713D02*
X007632Y010688D01*
X007312Y010702D02*
X007312Y010727D01*
X007287Y010752D01*
X007212Y010752D01*
X007212Y010702D01*
X007237Y010677D01*
X007287Y010677D01*
X007312Y010702D01*
X007310Y010632D02*
X007210Y010532D01*
X007235Y010557D02*
X007310Y010482D01*
X007210Y010482D02*
X007210Y010632D01*
X007163Y010607D02*
X007063Y010507D01*
X007088Y010482D01*
X007138Y010482D01*
X007163Y010507D01*
X007163Y010607D01*
X007138Y010632D01*
X007088Y010632D01*
X007063Y010607D01*
X007063Y010507D01*
X007016Y010482D02*
X006916Y010482D01*
X006966Y010482D02*
X006966Y010632D01*
X006916Y010582D01*
X006868Y010557D02*
X006868Y010507D01*
X006843Y010482D01*
X006793Y010482D01*
X006768Y010507D01*
X006768Y010557D02*
X006818Y010582D01*
X006843Y010582D01*
X006868Y010557D01*
X006868Y010632D02*
X006768Y010632D01*
X006768Y010557D01*
X006673Y010535D02*
X006673Y010510D01*
X006648Y010485D01*
X006598Y010485D01*
X006573Y010510D01*
X006525Y010510D02*
X006500Y010485D01*
X006450Y010485D01*
X006425Y010510D01*
X006525Y010610D01*
X006525Y010510D01*
X006425Y010510D02*
X006425Y010610D01*
X006450Y010635D01*
X006500Y010635D01*
X006525Y010610D01*
X006573Y010610D02*
X006598Y010635D01*
X006648Y010635D01*
X006673Y010610D01*
X006673Y010585D01*
X006648Y010560D01*
X006673Y010535D01*
X006648Y010560D02*
X006623Y010560D01*
X006770Y010677D02*
X006770Y010827D01*
X006845Y010827D01*
X006870Y010802D01*
X006870Y010752D01*
X006845Y010727D01*
X006770Y010727D01*
X006820Y010727D02*
X006870Y010677D01*
X006917Y010752D02*
X007017Y010752D01*
X007064Y010802D02*
X007089Y010827D01*
X007139Y010827D01*
X007165Y010802D01*
X007064Y010702D01*
X007089Y010677D01*
X007139Y010677D01*
X007165Y010702D01*
X007165Y010802D01*
X007212Y010752D02*
X007262Y010802D01*
X007312Y010827D01*
X007064Y010802D02*
X007064Y010702D01*
X006992Y010677D02*
X006992Y010827D01*
X006917Y010752D01*
X006425Y010729D02*
X006375Y010779D01*
X006400Y010779D02*
X006325Y010779D01*
X006325Y010729D02*
X006325Y010879D01*
X006400Y010879D01*
X006425Y010854D01*
X006425Y010804D01*
X006400Y010779D01*
X006278Y010754D02*
X006278Y010854D01*
X006178Y010754D01*
X006203Y010729D01*
X006253Y010729D01*
X006278Y010754D01*
X006278Y010854D02*
X006253Y010879D01*
X006203Y010879D01*
X006178Y010854D01*
X006178Y010754D01*
X006156Y010635D02*
X006131Y010610D01*
X006131Y010510D01*
X006156Y010485D01*
X006206Y010485D01*
X006231Y010510D01*
X006278Y010560D02*
X006378Y010560D01*
X006353Y010485D02*
X006353Y010635D01*
X006278Y010560D01*
X006231Y010610D02*
X006206Y010635D01*
X006156Y010635D01*
X007532Y011188D02*
X007682Y011188D01*
X007682Y011138D02*
X007682Y011238D01*
X007657Y011285D02*
X007557Y011385D01*
X007657Y011385D01*
X007682Y011360D01*
X007682Y011310D01*
X007657Y011285D01*
X007557Y011285D01*
X007532Y011310D01*
X007532Y011360D01*
X007557Y011385D01*
X007557Y011433D02*
X007532Y011458D01*
X007532Y011508D01*
X007557Y011533D01*
X007657Y011433D01*
X007682Y011458D01*
X007682Y011508D01*
X007657Y011533D01*
X007557Y011533D01*
X007582Y011580D02*
X007582Y011655D01*
X007607Y011680D01*
X007682Y011680D01*
X007682Y011580D02*
X007582Y011580D01*
X007557Y011433D02*
X007657Y011433D01*
X007532Y011188D02*
X007582Y011138D01*
X007602Y011786D02*
X007702Y011786D01*
X007727Y011811D01*
X007727Y011862D01*
X007702Y011887D01*
X007702Y011934D02*
X007727Y011959D01*
X007727Y012009D01*
X007702Y012034D01*
X007652Y012034D01*
X007627Y012009D01*
X007627Y011984D01*
X007652Y011934D01*
X007577Y011934D01*
X007577Y012034D01*
X007602Y012081D02*
X007577Y012106D01*
X007577Y012156D01*
X007602Y012181D01*
X007702Y012081D01*
X007727Y012106D01*
X007727Y012156D01*
X007702Y012181D01*
X007602Y012181D01*
X007602Y012228D02*
X007577Y012253D01*
X007577Y012304D01*
X007602Y012329D01*
X007627Y012329D01*
X007727Y012228D01*
X007727Y012329D01*
X007702Y012081D02*
X007602Y012081D01*
X007602Y011887D02*
X007577Y011862D01*
X007577Y011811D01*
X007602Y011786D01*
X007716Y012832D02*
X007716Y012932D01*
X007691Y012980D02*
X007766Y012980D01*
X007791Y013005D01*
X007791Y013080D01*
X007691Y013080D01*
X007641Y013127D02*
X007641Y013227D01*
X007666Y013227D01*
X007766Y013127D01*
X007791Y013127D01*
X007791Y012907D02*
X007641Y012907D01*
X007716Y012832D01*
X007673Y013437D02*
X007773Y013437D01*
X007798Y013462D01*
X007798Y013512D01*
X007773Y013537D01*
X007773Y013584D02*
X007798Y013609D01*
X007798Y013659D01*
X007773Y013684D01*
X007723Y013684D01*
X007698Y013659D01*
X007698Y013634D01*
X007723Y013584D01*
X007648Y013584D01*
X007648Y013684D01*
X007673Y013731D02*
X007648Y013756D01*
X007648Y013806D01*
X007673Y013831D01*
X007773Y013731D01*
X007798Y013756D01*
X007798Y013806D01*
X007773Y013831D01*
X007673Y013831D01*
X007723Y013879D02*
X007723Y013979D01*
X007798Y013954D02*
X007648Y013954D01*
X007723Y013879D01*
X007773Y013731D02*
X007673Y013731D01*
X007673Y013537D02*
X007648Y013512D01*
X007648Y013462D01*
X007673Y013437D01*
X006882Y015934D02*
X006781Y015934D01*
X006831Y015934D02*
X006831Y016084D01*
X006781Y016034D01*
X006734Y016059D02*
X006634Y015959D01*
X006659Y015934D01*
X006709Y015934D01*
X006734Y015959D01*
X006734Y016059D01*
X006709Y016084D01*
X006659Y016084D01*
X006634Y016059D01*
X006634Y015959D01*
X006587Y016009D02*
X006487Y016009D01*
X006562Y016084D01*
X006562Y015934D01*
X006440Y015959D02*
X006415Y015934D01*
X006364Y015934D01*
X006339Y015959D01*
X006339Y016059D01*
X006364Y016084D01*
X006415Y016084D01*
X006440Y016059D01*
X006437Y016139D02*
X006537Y016139D01*
X006585Y016139D02*
X006585Y016239D01*
X006660Y016239D01*
X006685Y016214D01*
X006685Y016139D01*
X006487Y016139D02*
X006487Y016289D01*
X006437Y016239D01*
X006193Y016196D02*
X006092Y016196D01*
X006168Y016271D01*
X006168Y016121D01*
X006094Y016053D02*
X006094Y016003D01*
X006069Y015978D01*
X005994Y015978D01*
X005947Y015978D02*
X005947Y015953D01*
X005922Y015928D01*
X005872Y015928D01*
X005847Y015953D01*
X005799Y015953D02*
X005774Y015928D01*
X005724Y015928D01*
X005699Y015953D01*
X005749Y016003D02*
X005774Y016003D01*
X005799Y015978D01*
X005799Y015953D01*
X005774Y016003D02*
X005799Y016028D01*
X005799Y016053D01*
X005774Y016078D01*
X005724Y016078D01*
X005699Y016053D01*
X005651Y016121D02*
X005651Y016271D01*
X005726Y016271D01*
X005751Y016246D01*
X005751Y016196D01*
X005726Y016171D01*
X005651Y016171D01*
X005701Y016171D02*
X005751Y016121D01*
X005798Y016146D02*
X005823Y016121D01*
X005873Y016121D01*
X005898Y016146D01*
X005898Y016196D01*
X005873Y016221D01*
X005848Y016221D01*
X005798Y016196D01*
X005798Y016271D01*
X005898Y016271D01*
X005945Y016246D02*
X005970Y016271D01*
X006020Y016271D01*
X006045Y016246D01*
X005945Y016146D01*
X005970Y016121D01*
X006020Y016121D01*
X006045Y016146D01*
X006045Y016246D01*
X005945Y016246D02*
X005945Y016146D01*
X005922Y016078D02*
X005947Y016053D01*
X005947Y016028D01*
X005922Y016003D01*
X005947Y015978D01*
X005922Y016003D02*
X005897Y016003D01*
X005847Y016053D02*
X005872Y016078D01*
X005922Y016078D01*
X005994Y016078D02*
X005994Y015928D01*
X006044Y015978D02*
X006094Y015928D01*
X006094Y016053D02*
X006069Y016078D01*
X005994Y016078D01*
X005405Y016062D02*
X005355Y016037D01*
X005305Y015987D01*
X005380Y015987D01*
X005405Y015962D01*
X005405Y015937D01*
X005380Y015912D01*
X005330Y015912D01*
X005305Y015937D01*
X005305Y015987D01*
X005258Y016037D02*
X005158Y015937D01*
X005183Y015912D01*
X005233Y015912D01*
X005258Y015937D01*
X005258Y016037D01*
X005233Y016062D01*
X005183Y016062D01*
X005158Y016037D01*
X005158Y015937D01*
X005111Y015937D02*
X005085Y015912D01*
X005035Y015912D01*
X005010Y015937D01*
X005010Y015987D02*
X005060Y016012D01*
X005085Y016012D01*
X005111Y015987D01*
X005111Y015937D01*
X005010Y015987D02*
X005010Y016062D01*
X005111Y016062D01*
X005133Y016117D02*
X005108Y016142D01*
X005133Y016117D02*
X005183Y016117D01*
X005208Y016142D01*
X005208Y016167D01*
X005183Y016192D01*
X005158Y016192D01*
X005183Y016192D02*
X005208Y016217D01*
X005208Y016242D01*
X005183Y016267D01*
X005133Y016267D01*
X005108Y016242D01*
X005061Y016242D02*
X005061Y016217D01*
X005035Y016192D01*
X005061Y016167D01*
X005061Y016142D01*
X005035Y016117D01*
X004985Y016117D01*
X004960Y016142D01*
X005010Y016192D02*
X005035Y016192D01*
X005061Y016242D02*
X005035Y016267D01*
X004985Y016267D01*
X004960Y016242D01*
X004938Y016062D02*
X004963Y016037D01*
X004963Y015987D01*
X004938Y015962D01*
X004863Y015962D01*
X004863Y015912D02*
X004863Y016062D01*
X004938Y016062D01*
X004913Y015962D02*
X004963Y015912D01*
X005255Y016117D02*
X005255Y016267D01*
X005330Y016267D01*
X005355Y016242D01*
X005355Y016192D01*
X005330Y016167D01*
X005255Y016167D01*
X005305Y016167D02*
X005355Y016117D01*
X004716Y016051D02*
X004616Y016051D01*
X004616Y015976D01*
X004666Y016001D01*
X004691Y016001D01*
X004716Y015976D01*
X004716Y015926D01*
X004691Y015901D01*
X004641Y015901D01*
X004616Y015926D01*
X004569Y015926D02*
X004544Y015901D01*
X004494Y015901D01*
X004469Y015926D01*
X004569Y016026D01*
X004569Y015926D01*
X004569Y016026D02*
X004544Y016051D01*
X004494Y016051D01*
X004469Y016026D01*
X004469Y015926D01*
X004422Y015926D02*
X004396Y015901D01*
X004346Y015901D01*
X004321Y015926D01*
X004321Y015976D02*
X004371Y016001D01*
X004396Y016001D01*
X004422Y015976D01*
X004422Y015926D01*
X004321Y015976D02*
X004321Y016051D01*
X004422Y016051D01*
X004444Y016106D02*
X004394Y016106D01*
X004369Y016131D01*
X004469Y016231D01*
X004469Y016131D01*
X004444Y016106D01*
X004516Y016106D02*
X004516Y016256D01*
X004469Y016231D02*
X004444Y016256D01*
X004394Y016256D01*
X004369Y016231D01*
X004369Y016131D01*
X004322Y016106D02*
X004221Y016106D01*
X004271Y016106D02*
X004271Y016256D01*
X004221Y016206D01*
X004249Y016051D02*
X004274Y016026D01*
X004274Y015976D01*
X004249Y015951D01*
X004174Y015951D01*
X004174Y015901D02*
X004174Y016051D01*
X004249Y016051D01*
X004224Y015951D02*
X004274Y015901D01*
X004027Y015915D02*
X004002Y015890D01*
X003952Y015890D01*
X003927Y015915D01*
X003880Y015915D02*
X003855Y015890D01*
X003805Y015890D01*
X003780Y015915D01*
X003880Y016015D01*
X003880Y015915D01*
X003880Y016015D02*
X003855Y016040D01*
X003805Y016040D01*
X003780Y016015D01*
X003780Y015915D01*
X003733Y015915D02*
X003708Y015890D01*
X003657Y015890D01*
X003632Y015915D01*
X003632Y015965D02*
X003683Y015990D01*
X003708Y015990D01*
X003733Y015965D01*
X003733Y015915D01*
X003632Y015965D02*
X003632Y016040D01*
X003733Y016040D01*
X003755Y016095D02*
X003705Y016095D01*
X003680Y016120D01*
X003633Y016120D02*
X003608Y016095D01*
X003557Y016095D01*
X003532Y016120D01*
X003583Y016170D02*
X003608Y016170D01*
X003633Y016145D01*
X003633Y016120D01*
X003608Y016170D02*
X003633Y016195D01*
X003633Y016220D01*
X003608Y016245D01*
X003557Y016245D01*
X003532Y016220D01*
X003680Y016220D02*
X003705Y016245D01*
X003755Y016245D01*
X003780Y016220D01*
X003780Y016195D01*
X003755Y016170D01*
X003780Y016145D01*
X003780Y016120D01*
X003755Y016095D01*
X003827Y016095D02*
X003827Y016245D01*
X003902Y016245D01*
X003927Y016220D01*
X003927Y016170D01*
X003902Y016145D01*
X003827Y016145D01*
X003877Y016145D02*
X003927Y016095D01*
X003952Y016040D02*
X004002Y016040D01*
X004027Y016015D01*
X004027Y015990D01*
X004002Y015965D01*
X004027Y015940D01*
X004027Y015915D01*
X004002Y015965D02*
X003977Y015965D01*
X003927Y016015D02*
X003952Y016040D01*
X003755Y016170D02*
X003730Y016170D01*
X003585Y016015D02*
X003585Y015965D01*
X003560Y015940D01*
X003485Y015940D01*
X003485Y015890D02*
X003485Y016040D01*
X003560Y016040D01*
X003585Y016015D01*
X003535Y015940D02*
X003585Y015890D01*
X003240Y015934D02*
X003190Y015984D01*
X003215Y015984D02*
X003140Y015984D01*
X003092Y015984D02*
X003092Y015959D01*
X003067Y015934D01*
X003017Y015934D01*
X002992Y015959D01*
X002945Y015959D02*
X002920Y015934D01*
X002870Y015934D01*
X002845Y015959D01*
X002895Y016009D02*
X002920Y016009D01*
X002945Y015984D01*
X002945Y015959D01*
X002920Y016009D02*
X002945Y016034D01*
X002945Y016059D01*
X002920Y016084D01*
X002870Y016084D01*
X002845Y016059D01*
X002846Y016177D02*
X002796Y016227D01*
X002821Y016227D02*
X002746Y016227D01*
X002746Y016177D02*
X002746Y016327D01*
X002821Y016327D01*
X002846Y016302D01*
X002846Y016252D01*
X002821Y016227D01*
X002894Y016202D02*
X002919Y016177D01*
X002969Y016177D01*
X002994Y016202D01*
X002994Y016252D01*
X002969Y016277D01*
X002944Y016277D01*
X002894Y016252D01*
X002894Y016327D01*
X002994Y016327D01*
X003041Y016302D02*
X003066Y016327D01*
X003116Y016327D01*
X003141Y016302D01*
X003041Y016202D01*
X003066Y016177D01*
X003116Y016177D01*
X003141Y016202D01*
X003141Y016302D01*
X003188Y016277D02*
X003238Y016327D01*
X003238Y016177D01*
X003188Y016177D02*
X003288Y016177D01*
X003215Y016084D02*
X003240Y016059D01*
X003240Y016009D01*
X003215Y015984D01*
X003140Y015934D02*
X003140Y016084D01*
X003215Y016084D01*
X003092Y016059D02*
X003092Y016034D01*
X003067Y016009D01*
X003092Y015984D01*
X003067Y016009D02*
X003042Y016009D01*
X002992Y016059D02*
X003017Y016084D01*
X003067Y016084D01*
X003092Y016059D01*
X003041Y016202D02*
X003041Y016302D01*
X002994Y016684D02*
X002994Y016834D01*
X003069Y016834D01*
X003094Y016809D01*
X003094Y016759D01*
X003069Y016734D01*
X002994Y016734D01*
X002897Y016684D02*
X002897Y016834D01*
X002847Y016834D02*
X002947Y016834D01*
X003142Y016784D02*
X003192Y016834D01*
X003192Y016684D01*
X003142Y016684D02*
X003242Y016684D01*
X003289Y016684D02*
X003289Y016709D01*
X003389Y016809D01*
X003389Y016834D01*
X003289Y016834D01*
X002599Y016291D02*
X002574Y016316D01*
X002524Y016316D01*
X002499Y016291D01*
X002452Y016291D02*
X002352Y016191D01*
X002377Y016166D01*
X002427Y016166D01*
X002452Y016191D01*
X002452Y016291D01*
X002427Y016316D01*
X002377Y016316D01*
X002352Y016291D01*
X002352Y016191D01*
X002305Y016191D02*
X002280Y016166D01*
X002230Y016166D01*
X002205Y016191D01*
X002205Y016241D02*
X002255Y016266D01*
X002280Y016266D01*
X002305Y016241D01*
X002305Y016191D01*
X002205Y016241D02*
X002205Y016316D01*
X002305Y016316D01*
X002157Y016291D02*
X002157Y016241D01*
X002132Y016216D01*
X002057Y016216D01*
X002057Y016166D02*
X002057Y016316D01*
X002132Y016316D01*
X002157Y016291D01*
X002107Y016216D02*
X002157Y016166D01*
X002206Y016073D02*
X002206Y015923D01*
X002156Y015923D02*
X002256Y015923D01*
X002303Y015948D02*
X002404Y016048D01*
X002404Y015948D01*
X002378Y015923D01*
X002328Y015923D01*
X002303Y015948D01*
X002303Y016048D01*
X002328Y016073D01*
X002378Y016073D01*
X002404Y016048D01*
X002451Y016073D02*
X002451Y015923D01*
X002451Y015973D02*
X002551Y016073D01*
X002599Y016166D02*
X002499Y016166D01*
X002599Y016266D01*
X002599Y016291D01*
X002476Y015998D02*
X002551Y015923D01*
X002206Y016073D02*
X002156Y016023D01*
X001961Y016045D02*
X001961Y015995D01*
X001936Y015970D01*
X001861Y015970D01*
X001861Y015920D02*
X001861Y016070D01*
X001936Y016070D01*
X001961Y016045D01*
X001962Y016176D02*
X001862Y016176D01*
X001962Y016276D01*
X001962Y016301D01*
X001937Y016326D01*
X001887Y016326D01*
X001862Y016301D01*
X001814Y016301D02*
X001714Y016201D01*
X001739Y016176D01*
X001789Y016176D01*
X001814Y016201D01*
X001814Y016301D01*
X001789Y016326D01*
X001739Y016326D01*
X001714Y016301D01*
X001714Y016201D01*
X001667Y016251D02*
X001567Y016251D01*
X001642Y016326D01*
X001642Y016176D01*
X001642Y016120D02*
X001567Y016045D01*
X001667Y016045D01*
X001714Y015995D02*
X001814Y016095D01*
X001814Y016120D01*
X001714Y016120D01*
X001642Y016120D02*
X001642Y015970D01*
X001714Y015970D02*
X001714Y015995D01*
X001520Y016201D02*
X001495Y016176D01*
X001445Y016176D01*
X001420Y016201D01*
X001420Y016301D01*
X001445Y016326D01*
X001495Y016326D01*
X001520Y016301D01*
X001303Y014084D02*
X001203Y014084D01*
X001155Y014034D02*
X001155Y013934D01*
X001080Y013934D01*
X001055Y013959D01*
X001055Y014034D01*
X001008Y014009D02*
X000908Y014009D01*
X000983Y014084D01*
X000983Y013934D01*
X001203Y013934D02*
X001203Y013959D01*
X001303Y014059D01*
X001303Y014084D01*
X000741Y013554D02*
X000741Y013503D01*
X000716Y013478D01*
X000716Y013431D02*
X000741Y013406D01*
X000741Y013356D01*
X000716Y013331D01*
X000616Y013431D01*
X000716Y013431D01*
X000716Y013331D02*
X000616Y013331D01*
X000591Y013356D01*
X000591Y013406D01*
X000616Y013431D01*
X000616Y013478D02*
X000591Y013503D01*
X000591Y013554D01*
X000616Y013579D01*
X000641Y013579D01*
X000666Y013554D01*
X000691Y013579D01*
X000716Y013579D01*
X000741Y013554D01*
X000666Y013554D02*
X000666Y013529D01*
X000666Y013284D02*
X000716Y013284D01*
X000741Y013259D01*
X000741Y013209D01*
X000716Y013184D01*
X000716Y013137D02*
X000741Y013112D01*
X000741Y013061D01*
X000716Y013036D01*
X000616Y013036D01*
X000591Y013061D01*
X000591Y013112D01*
X000616Y013137D01*
X000591Y013184D02*
X000666Y013184D01*
X000641Y013234D01*
X000641Y013259D01*
X000666Y013284D01*
X000591Y013284D02*
X000591Y013184D01*
X000810Y012127D02*
X000810Y012027D01*
X000810Y012077D02*
X000660Y012077D01*
X000710Y012027D01*
X000685Y011980D02*
X000785Y011880D01*
X000810Y011905D01*
X000810Y011955D01*
X000785Y011980D01*
X000685Y011980D01*
X000660Y011955D01*
X000660Y011905D01*
X000685Y011880D01*
X000785Y011880D01*
X000785Y011832D02*
X000810Y011807D01*
X000810Y011757D01*
X000785Y011732D01*
X000785Y011685D02*
X000810Y011660D01*
X000810Y011610D01*
X000785Y011585D01*
X000685Y011585D01*
X000660Y011610D01*
X000660Y011660D01*
X000685Y011685D01*
X000660Y011732D02*
X000735Y011732D01*
X000710Y011782D01*
X000710Y011807D01*
X000735Y011832D01*
X000785Y011832D01*
X000660Y011832D02*
X000660Y011732D01*
X000884Y011091D02*
X000884Y010940D01*
X000834Y010940D02*
X000934Y010940D01*
X000982Y010965D02*
X001082Y011066D01*
X001082Y010965D01*
X001057Y010940D01*
X001007Y010940D01*
X000982Y010965D01*
X000982Y011066D01*
X001007Y011091D01*
X001057Y011091D01*
X001082Y011066D01*
X001129Y011066D02*
X001154Y011091D01*
X001204Y011091D01*
X001229Y011066D01*
X001129Y010965D01*
X001154Y010940D01*
X001204Y010940D01*
X001229Y010965D01*
X001229Y011066D01*
X001276Y011041D02*
X001276Y010940D01*
X001376Y010940D02*
X001376Y011015D01*
X001351Y011041D01*
X001276Y011041D01*
X001129Y011066D02*
X001129Y010965D01*
X000884Y011091D02*
X000834Y011041D01*
X001662Y010250D02*
X001737Y010175D01*
X001737Y010275D01*
X001812Y010250D02*
X001662Y010250D01*
X001687Y010128D02*
X001787Y010028D01*
X001812Y010053D01*
X001812Y010103D01*
X001787Y010128D01*
X001687Y010128D01*
X001662Y010103D01*
X001662Y010053D01*
X001687Y010028D01*
X001787Y010028D01*
X001737Y009981D02*
X001737Y009881D01*
X001662Y009956D01*
X001812Y009956D01*
X001787Y009834D02*
X001812Y009808D01*
X001812Y009758D01*
X001787Y009733D01*
X001687Y009733D01*
X001662Y009758D01*
X001662Y009808D01*
X001687Y009834D01*
X001997Y010512D02*
X002097Y010613D01*
X002097Y010638D01*
X002072Y010663D01*
X002022Y010663D01*
X001997Y010638D01*
X001997Y010512D02*
X002097Y010512D01*
X002144Y010512D02*
X002244Y010613D01*
X002244Y010638D01*
X002219Y010663D01*
X002169Y010663D01*
X002144Y010638D01*
X002144Y010512D02*
X002244Y010512D01*
X002292Y010512D02*
X002367Y010512D01*
X002392Y010537D01*
X002392Y010588D01*
X002367Y010613D01*
X002292Y010613D01*
X002292Y010462D01*
X002686Y010524D02*
X002786Y010624D01*
X002786Y010649D01*
X002761Y010674D01*
X002711Y010674D01*
X002686Y010649D01*
X002686Y010524D02*
X002786Y010524D01*
X002833Y010599D02*
X002933Y010599D01*
X002981Y010549D02*
X002981Y010649D01*
X003006Y010674D01*
X003056Y010674D01*
X003081Y010649D01*
X002981Y010549D01*
X003006Y010524D01*
X003056Y010524D01*
X003081Y010549D01*
X003081Y010649D01*
X003128Y010674D02*
X003128Y010524D01*
X003128Y010574D02*
X003228Y010674D01*
X003325Y010667D02*
X003325Y010516D01*
X003325Y010566D02*
X003400Y010566D01*
X003425Y010591D01*
X003425Y010641D01*
X003400Y010667D01*
X003325Y010667D01*
X003375Y010566D02*
X003425Y010516D01*
X003472Y010591D02*
X003572Y010591D01*
X003619Y010616D02*
X003670Y010667D01*
X003670Y010516D01*
X003720Y010516D02*
X003619Y010516D01*
X003547Y010516D02*
X003547Y010667D01*
X003472Y010591D01*
X003228Y010524D02*
X003153Y010599D01*
X002908Y010674D02*
X002833Y010599D01*
X002908Y010524D02*
X002908Y010674D01*
X003767Y010641D02*
X003767Y010616D01*
X003792Y010591D01*
X003842Y010591D01*
X003867Y010566D01*
X003867Y010541D01*
X003842Y010516D01*
X003792Y010516D01*
X003767Y010541D01*
X003767Y010566D01*
X003792Y010591D01*
X003842Y010591D02*
X003867Y010616D01*
X003867Y010641D01*
X003842Y010667D01*
X003792Y010667D01*
X003767Y010641D01*
X004162Y010624D02*
X004162Y010524D01*
X004262Y010624D01*
X004262Y010524D01*
X004237Y010499D01*
X004187Y010499D01*
X004162Y010524D01*
X004162Y010624D02*
X004187Y010649D01*
X004237Y010649D01*
X004262Y010624D01*
X004310Y010649D02*
X004385Y010649D01*
X004410Y010624D01*
X004410Y010574D01*
X004385Y010549D01*
X004310Y010549D01*
X004360Y010549D02*
X004410Y010499D01*
X004310Y010499D02*
X004310Y010649D01*
X004616Y016106D02*
X004541Y016181D01*
X004516Y016156D02*
X004616Y016256D01*
X004674Y017144D02*
X004774Y017144D01*
X004724Y017144D02*
X004724Y017294D01*
X004674Y017244D01*
X004627Y017269D02*
X004627Y017219D01*
X004602Y017194D01*
X004527Y017194D01*
X004527Y017144D02*
X004527Y017294D01*
X004602Y017294D01*
X004627Y017269D01*
X004480Y017294D02*
X004380Y017294D01*
X004430Y017294D02*
X004430Y017144D01*
X004822Y017169D02*
X004822Y017194D01*
X004847Y017219D01*
X004897Y017219D01*
X004922Y017194D01*
X004922Y017169D01*
X004897Y017144D01*
X004847Y017144D01*
X004822Y017169D01*
X004847Y017219D02*
X004822Y017244D01*
X004822Y017269D01*
X004847Y017294D01*
X004897Y017294D01*
X004922Y017269D01*
X004922Y017244D01*
X004897Y017219D01*
X006061Y016933D02*
X006161Y016933D01*
X006208Y016933D02*
X006208Y016783D01*
X006208Y016833D02*
X006283Y016833D01*
X006308Y016858D01*
X006308Y016908D01*
X006283Y016933D01*
X006208Y016933D01*
X006111Y016933D02*
X006111Y016783D01*
X006355Y016783D02*
X006455Y016783D01*
X006405Y016783D02*
X006405Y016933D01*
X006355Y016883D01*
X006503Y016858D02*
X006503Y016808D01*
X006528Y016783D01*
X006578Y016783D01*
X006603Y016808D01*
X006603Y016833D01*
X006578Y016858D01*
X006503Y016858D01*
X006553Y016908D01*
X006603Y016933D01*
X010438Y015658D02*
X010438Y015583D01*
X010588Y015583D01*
X010538Y015583D02*
X010538Y015658D01*
X010513Y015683D01*
X010463Y015683D01*
X010438Y015658D01*
X010438Y015535D02*
X010413Y015535D01*
X010388Y015510D01*
X010388Y015460D01*
X010413Y015435D01*
X010413Y015388D02*
X010388Y015363D01*
X010388Y015313D01*
X010413Y015288D01*
X010413Y015388D02*
X010438Y015388D01*
X010538Y015288D01*
X010538Y015388D01*
X010538Y015435D02*
X010438Y015535D01*
X010538Y015535D02*
X010538Y015435D01*
X010692Y016200D02*
X010742Y016200D01*
X010767Y016225D01*
X010814Y016200D02*
X010914Y016300D01*
X010914Y016325D01*
X010889Y016350D01*
X010839Y016350D01*
X010814Y016325D01*
X010767Y016325D02*
X010742Y016350D01*
X010692Y016350D01*
X010667Y016325D01*
X010667Y016225D01*
X010692Y016200D01*
X010814Y016200D02*
X010914Y016200D01*
X010962Y016225D02*
X011062Y016325D01*
X011062Y016225D01*
X011037Y016200D01*
X010987Y016200D01*
X010962Y016225D01*
X010962Y016325D01*
X010987Y016350D01*
X011037Y016350D01*
X011062Y016325D01*
X011109Y016275D02*
X011209Y016275D01*
X011184Y016200D02*
X011184Y016350D01*
X011109Y016275D01*
X011088Y017447D02*
X011088Y017497D01*
X011088Y017472D02*
X011238Y017472D01*
X011238Y017447D02*
X011238Y017497D01*
X011213Y017545D02*
X011238Y017570D01*
X011238Y017620D01*
X011213Y017645D01*
X011238Y017693D02*
X011238Y017793D01*
X011238Y017743D02*
X011088Y017743D01*
X011138Y017693D01*
X011113Y017645D02*
X011088Y017620D01*
X011088Y017570D01*
X011113Y017545D01*
X011213Y017545D01*
X011213Y017840D02*
X011113Y017840D01*
X011088Y017865D01*
X011088Y017915D01*
X011113Y017940D01*
X011213Y017840D01*
X011238Y017865D01*
X011238Y017915D01*
X011213Y017940D01*
X011113Y017940D01*
X011163Y017987D02*
X011088Y018062D01*
X011238Y018062D01*
X011163Y018087D02*
X011163Y017987D01*
X012730Y016981D02*
X012730Y016830D01*
X012730Y016880D02*
X012805Y016880D01*
X012830Y016905D01*
X012830Y016956D01*
X012805Y016981D01*
X012730Y016981D01*
X012780Y016880D02*
X012830Y016830D01*
X012877Y016830D02*
X012977Y016931D01*
X012977Y016956D01*
X012952Y016981D01*
X012902Y016981D01*
X012877Y016956D01*
X012877Y016830D02*
X012977Y016830D01*
X013024Y016855D02*
X013049Y016830D01*
X013099Y016830D01*
X013124Y016855D01*
X013124Y016956D01*
X013024Y016855D01*
X013024Y016956D01*
X013049Y016981D01*
X013099Y016981D01*
X013124Y016956D01*
X013172Y016956D02*
X013197Y016981D01*
X013247Y016981D01*
X013272Y016956D01*
X013272Y016931D01*
X013247Y016905D01*
X013272Y016880D01*
X013272Y016855D01*
X013247Y016830D01*
X013197Y016830D01*
X013172Y016855D01*
X013222Y016905D02*
X013247Y016905D01*
X013273Y016942D02*
X013323Y016992D01*
X013323Y016842D01*
X013273Y016842D02*
X013373Y016842D01*
X013420Y016842D02*
X013420Y016992D01*
X013470Y016942D01*
X013520Y016992D01*
X013520Y016842D01*
X014899Y016390D02*
X014899Y016290D01*
X014924Y016265D01*
X014974Y016265D01*
X014999Y016290D01*
X015047Y016265D02*
X015147Y016365D01*
X015147Y016390D01*
X015122Y016415D01*
X015072Y016415D01*
X015047Y016390D01*
X014999Y016390D02*
X014974Y016415D01*
X014924Y016415D01*
X014899Y016390D01*
X015047Y016265D02*
X015147Y016265D01*
X015194Y016290D02*
X015294Y016390D01*
X015294Y016290D01*
X015269Y016265D01*
X015219Y016265D01*
X015194Y016290D01*
X015194Y016390D01*
X015219Y016415D01*
X015269Y016415D01*
X015294Y016390D01*
X015341Y016390D02*
X015366Y016415D01*
X015416Y016415D01*
X015441Y016390D01*
X015441Y016365D01*
X015416Y016340D01*
X015441Y016315D01*
X015441Y016290D01*
X015416Y016265D01*
X015366Y016265D01*
X015341Y016290D01*
X015391Y016340D02*
X015416Y016340D01*
X015171Y014797D02*
X015121Y014797D01*
X015096Y014772D01*
X015048Y014772D02*
X015023Y014797D01*
X014973Y014797D01*
X014948Y014772D01*
X015048Y014772D02*
X015048Y014747D01*
X014948Y014647D01*
X015048Y014647D01*
X015096Y014647D02*
X015196Y014747D01*
X015196Y014772D01*
X015171Y014797D01*
X015243Y014747D02*
X015318Y014747D01*
X015343Y014722D01*
X015343Y014672D01*
X015318Y014647D01*
X015243Y014647D01*
X015196Y014647D02*
X015096Y014647D01*
X015243Y014597D02*
X015243Y014747D01*
X014446Y014186D02*
X014345Y014186D01*
X014396Y014186D02*
X014396Y014336D01*
X014345Y014286D01*
X014298Y014336D02*
X014198Y014336D01*
X014151Y014336D02*
X014051Y014186D01*
X014151Y014186D02*
X014051Y014336D01*
X014248Y014336D02*
X014248Y014186D01*
X013818Y014207D02*
X013718Y014207D01*
X013818Y014307D01*
X013718Y014307D01*
X013671Y014282D02*
X013571Y014282D01*
X013571Y014207D02*
X013571Y014357D01*
X013524Y014357D02*
X013524Y014207D01*
X013424Y014207D02*
X013424Y014357D01*
X013474Y014307D01*
X013524Y014357D01*
X013671Y014357D02*
X013671Y014207D01*
X013376Y014232D02*
X013376Y014257D01*
X013351Y014282D01*
X013276Y014282D01*
X013276Y014232D01*
X013301Y014207D01*
X013351Y014207D01*
X013376Y014232D01*
X013326Y014332D02*
X013276Y014282D01*
X013229Y014282D02*
X013229Y014232D01*
X013204Y014207D01*
X013154Y014207D01*
X013129Y014232D01*
X013080Y014232D02*
X013080Y014207D01*
X013055Y014207D01*
X013055Y014232D01*
X013080Y014232D01*
X013129Y014282D02*
X013179Y014307D01*
X013204Y014307D01*
X013229Y014282D01*
X013229Y014357D02*
X013129Y014357D01*
X013129Y014282D01*
X013008Y014257D02*
X013008Y014232D01*
X012983Y014207D01*
X012933Y014207D01*
X012908Y014232D01*
X012861Y014207D02*
X012761Y014207D01*
X012811Y014207D02*
X012811Y014357D01*
X012761Y014307D01*
X012908Y014332D02*
X012933Y014357D01*
X012983Y014357D01*
X013008Y014332D01*
X013008Y014307D01*
X012983Y014282D01*
X013008Y014257D01*
X012983Y014282D02*
X012958Y014282D01*
X013326Y014332D02*
X013376Y014357D01*
X013310Y013594D02*
X013310Y013494D01*
X013235Y013569D01*
X013385Y013569D01*
X013326Y013569D02*
X013326Y013519D01*
X013301Y013494D01*
X013301Y013447D02*
X013326Y013422D01*
X013326Y013372D01*
X013301Y013347D01*
X013201Y013447D01*
X013301Y013447D01*
X013260Y013447D02*
X013360Y013347D01*
X013385Y013372D01*
X013385Y013422D01*
X013360Y013447D01*
X013260Y013447D01*
X013235Y013422D01*
X013235Y013372D01*
X013260Y013347D01*
X013360Y013347D01*
X013326Y013300D02*
X013326Y013200D01*
X013226Y013300D01*
X013201Y013300D01*
X013176Y013275D01*
X013176Y013225D01*
X013201Y013200D01*
X013201Y013152D02*
X013176Y013127D01*
X013176Y013077D01*
X013201Y013052D01*
X013301Y013052D01*
X013326Y013077D01*
X013326Y013127D01*
X013301Y013152D01*
X013260Y013152D02*
X013360Y013052D01*
X013385Y013052D01*
X013326Y013004D02*
X013326Y012954D01*
X013326Y012979D02*
X013176Y012979D01*
X013176Y012954D02*
X013176Y013004D01*
X013235Y013052D02*
X013235Y013152D01*
X013260Y013152D01*
X013310Y013200D02*
X013310Y013300D01*
X013301Y013347D02*
X013201Y013347D01*
X013176Y013372D01*
X013176Y013422D01*
X013201Y013447D01*
X013201Y013494D02*
X013176Y013519D01*
X013176Y013569D01*
X013201Y013594D01*
X013226Y013594D01*
X013251Y013569D01*
X013276Y013594D01*
X013301Y013594D01*
X013326Y013569D01*
X013251Y013569D02*
X013251Y013544D01*
X013235Y013275D02*
X013310Y013200D01*
X013385Y013275D02*
X013235Y013275D01*
X011732Y013259D02*
X011707Y013234D01*
X011607Y013334D01*
X011707Y013334D01*
X011732Y013309D01*
X011732Y013259D01*
X011707Y013234D02*
X011607Y013234D01*
X011582Y013259D01*
X011582Y013309D01*
X011607Y013334D01*
X011607Y013381D02*
X011582Y013406D01*
X011582Y013456D01*
X011607Y013481D01*
X011707Y013381D01*
X011732Y013406D01*
X011732Y013456D01*
X011707Y013481D01*
X011607Y013481D01*
X011582Y013528D02*
X011582Y013604D01*
X011607Y013629D01*
X011657Y013629D01*
X011682Y013604D01*
X011682Y013528D01*
X011732Y013528D02*
X011582Y013528D01*
X011682Y013579D02*
X011732Y013629D01*
X011707Y013381D02*
X011607Y013381D01*
X011732Y013187D02*
X011732Y013086D01*
X011732Y013137D02*
X011582Y013137D01*
X011632Y013086D01*
X011464Y013988D02*
X011464Y014138D01*
X011389Y014063D01*
X011489Y014063D01*
X011342Y014113D02*
X011242Y014013D01*
X011267Y013988D01*
X011317Y013988D01*
X011342Y014013D01*
X011342Y014113D01*
X011317Y014138D01*
X011267Y014138D01*
X011242Y014113D01*
X011242Y014013D01*
X011194Y013988D02*
X011094Y013988D01*
X011194Y014088D01*
X011194Y014113D01*
X011169Y014138D01*
X011119Y014138D01*
X011094Y014113D01*
X011047Y014113D02*
X011047Y014063D01*
X011022Y014038D01*
X010947Y014038D01*
X010997Y014038D02*
X011047Y013988D01*
X010947Y013988D02*
X010947Y014138D01*
X011022Y014138D01*
X011047Y014113D01*
D14*
X013969Y016962D02*
X013615Y017317D01*
X013615Y017828D01*
X013615Y018694D02*
X013615Y019206D01*
X013969Y019561D01*
X016214Y019561D01*
X016214Y018694D01*
X016214Y017828D02*
X016214Y016962D01*
X013969Y016962D01*
X013576Y006372D02*
X013221Y006017D01*
X013221Y005506D01*
X013221Y004639D02*
X013221Y004128D01*
X013576Y003773D01*
X015820Y003773D01*
X015820Y004639D01*
X015820Y005506D02*
X015820Y006372D01*
X013576Y006372D01*
D15*
X013597Y003589D02*
X013549Y003541D01*
X013549Y003347D01*
X013742Y003541D01*
X013742Y003347D01*
X013694Y003299D01*
X013597Y003299D01*
X013549Y003347D01*
X013448Y003299D02*
X013254Y003299D01*
X013351Y003299D02*
X013351Y003589D01*
X013254Y003492D01*
X013153Y003541D02*
X013105Y003589D01*
X013008Y003589D01*
X012959Y003541D01*
X012959Y003347D01*
X013008Y003299D01*
X013105Y003299D01*
X013153Y003347D01*
X013597Y003589D02*
X013694Y003589D01*
X013742Y003541D01*
X013843Y003589D02*
X014037Y003589D01*
X014037Y003541D01*
X013843Y003347D01*
X013843Y003299D01*
X015018Y003361D02*
X015211Y003361D01*
X015115Y003361D02*
X015115Y003651D01*
X015018Y003555D01*
X015313Y003603D02*
X015313Y003409D01*
X015506Y003603D01*
X015506Y003409D01*
X015458Y003361D01*
X015361Y003361D01*
X015313Y003409D01*
X015313Y003603D02*
X015361Y003651D01*
X015458Y003651D01*
X015506Y003603D01*
X015607Y003603D02*
X015656Y003651D01*
X015752Y003651D01*
X015801Y003603D01*
X015607Y003409D01*
X015656Y003361D01*
X015752Y003361D01*
X015801Y003409D01*
X015801Y003603D01*
X015902Y003555D02*
X015902Y003409D01*
X015950Y003361D01*
X016095Y003361D01*
X016095Y003555D01*
X015607Y003603D02*
X015607Y003409D01*
X014602Y009728D02*
X014602Y009824D01*
X014602Y009776D02*
X014312Y009776D01*
X014312Y009728D02*
X014312Y009824D01*
X014360Y009924D02*
X014554Y009924D01*
X014602Y009972D01*
X014602Y010069D01*
X014554Y010117D01*
X014602Y010219D02*
X014409Y010412D01*
X014360Y010412D01*
X014312Y010364D01*
X014312Y010267D01*
X014360Y010219D01*
X014360Y010117D02*
X014312Y010069D01*
X014312Y009972D01*
X014360Y009924D01*
X014602Y010219D02*
X014602Y010412D01*
X014554Y010513D02*
X014360Y010707D01*
X014554Y010707D01*
X014602Y010658D01*
X014602Y010562D01*
X014554Y010513D01*
X014360Y010513D01*
X014312Y010562D01*
X014312Y010658D01*
X014360Y010707D01*
X014360Y010808D02*
X014312Y010856D01*
X014312Y010953D01*
X014360Y011001D01*
X014409Y011001D01*
X014602Y010808D01*
X014602Y011001D01*
X015139Y016533D02*
X015332Y016533D01*
X015235Y016533D02*
X015235Y016823D01*
X015139Y016727D01*
X015433Y016775D02*
X015433Y016582D01*
X015627Y016775D01*
X015627Y016582D01*
X015578Y016533D01*
X015482Y016533D01*
X015433Y016582D01*
X015433Y016775D02*
X015482Y016823D01*
X015578Y016823D01*
X015627Y016775D01*
X015728Y016775D02*
X015728Y016582D01*
X015921Y016775D01*
X015921Y016582D01*
X015873Y016533D01*
X015776Y016533D01*
X015728Y016582D01*
X015728Y016775D02*
X015776Y016823D01*
X015873Y016823D01*
X015921Y016775D01*
X016022Y016727D02*
X016022Y016582D01*
X016071Y016533D01*
X016216Y016533D01*
X016216Y016727D01*
X016563Y018813D02*
X016757Y018813D01*
X016805Y018861D01*
X016805Y018958D01*
X016757Y019006D01*
X016757Y019107D02*
X016805Y019156D01*
X016805Y019252D01*
X016757Y019301D01*
X016660Y019301D01*
X016612Y019252D01*
X016612Y019204D01*
X016660Y019107D01*
X016515Y019107D01*
X016515Y019301D01*
X016563Y019402D02*
X016515Y019450D01*
X016515Y019547D01*
X016563Y019595D01*
X016757Y019402D01*
X016805Y019450D01*
X016805Y019547D01*
X016757Y019595D01*
X016563Y019595D01*
X016515Y019697D02*
X016660Y019697D01*
X016612Y019793D01*
X016612Y019842D01*
X016660Y019890D01*
X016757Y019890D01*
X016805Y019842D01*
X016805Y019745D01*
X016757Y019697D01*
X016515Y019697D02*
X016515Y019890D01*
X016563Y019402D02*
X016757Y019402D01*
X016563Y019006D02*
X016515Y018958D01*
X016515Y018861D01*
X016563Y018813D01*
X006516Y013329D02*
X006516Y013280D01*
X006322Y013087D01*
X006516Y013087D01*
X006221Y013135D02*
X006173Y013087D01*
X006076Y013087D01*
X006028Y013135D01*
X006221Y013329D01*
X006221Y013135D01*
X006028Y013135D02*
X006028Y013329D01*
X006076Y013377D01*
X006173Y013377D01*
X006221Y013329D01*
X006322Y013329D02*
X006371Y013377D01*
X006467Y013377D01*
X006516Y013329D01*
X005926Y013377D02*
X005733Y013377D01*
X005733Y013232D01*
X005830Y013280D01*
X005878Y013280D01*
X005926Y013232D01*
X005926Y013135D01*
X005878Y013087D01*
X005781Y013087D01*
X005733Y013135D01*
X005632Y013135D02*
X005583Y013087D01*
X005487Y013087D01*
X005438Y013135D01*
X005438Y013329D01*
X005487Y013377D01*
X005583Y013377D01*
X005632Y013329D01*
X005339Y013377D02*
X005242Y013377D01*
X005290Y013377D02*
X005290Y013087D01*
X005242Y013087D02*
X005339Y013087D01*
X005250Y012689D02*
X005153Y012689D01*
X005105Y012641D01*
X005105Y012447D01*
X005153Y012399D01*
X005250Y012399D01*
X005298Y012447D01*
X005399Y012399D02*
X005593Y012592D01*
X005593Y012641D01*
X005545Y012689D01*
X005448Y012689D01*
X005399Y012641D01*
X005298Y012641D02*
X005250Y012689D01*
X005004Y012592D02*
X005004Y012399D01*
X005004Y012544D02*
X004810Y012544D01*
X004810Y012592D02*
X004907Y012689D01*
X005004Y012592D01*
X004810Y012592D02*
X004810Y012399D01*
X004661Y012399D02*
X004661Y012689D01*
X004516Y012544D01*
X004709Y012544D01*
X004414Y012641D02*
X004414Y012689D01*
X004221Y012689D01*
X004414Y012641D02*
X004221Y012447D01*
X004221Y012399D01*
X003779Y012494D02*
X003586Y012494D01*
X003731Y012639D01*
X003731Y012349D01*
X003484Y012494D02*
X003291Y012494D01*
X003436Y012639D01*
X003436Y012349D01*
X003190Y012349D02*
X002996Y012349D01*
X003190Y012542D01*
X003190Y012591D01*
X003141Y012639D01*
X003045Y012639D01*
X002996Y012591D01*
X002895Y012591D02*
X002847Y012639D01*
X002750Y012639D01*
X002702Y012591D01*
X002702Y012397D01*
X002750Y012349D01*
X002847Y012349D01*
X002895Y012397D01*
X002600Y012349D02*
X002600Y012542D01*
X002504Y012639D01*
X002407Y012542D01*
X002407Y012349D01*
X002407Y012494D02*
X002600Y012494D01*
X002306Y012494D02*
X002112Y012494D01*
X002257Y012639D01*
X002257Y012349D01*
X002006Y012396D02*
X002006Y012493D01*
X001957Y012541D01*
X002011Y012591D02*
X001818Y012397D01*
X001818Y012349D01*
X001764Y012348D02*
X001957Y012348D01*
X002006Y012396D01*
X002006Y012248D02*
X002006Y012152D01*
X002006Y012200D02*
X001715Y012200D01*
X001715Y012152D02*
X001715Y012248D01*
X001764Y012348D02*
X001715Y012396D01*
X001715Y012493D01*
X001764Y012541D01*
X001818Y012639D02*
X002011Y012639D01*
X002011Y012591D01*
X001957Y012643D02*
X002006Y012691D01*
X002006Y012788D01*
X001957Y012836D01*
X001861Y012836D01*
X001812Y012788D01*
X001812Y012739D01*
X001861Y012643D01*
X001715Y012643D01*
X001715Y012836D01*
X001764Y012937D02*
X001715Y012986D01*
X001715Y013082D01*
X001764Y013131D01*
X001957Y012937D01*
X002006Y012986D01*
X002006Y013082D01*
X001957Y013131D01*
X001764Y013131D01*
X001812Y013232D02*
X001715Y013329D01*
X002006Y013329D01*
X002006Y013425D02*
X002006Y013232D01*
X001957Y012937D02*
X001764Y012937D01*
X005399Y012399D02*
X005593Y012399D01*
X005694Y012544D02*
X005888Y012544D01*
X005989Y012544D02*
X006134Y012689D01*
X006134Y012399D01*
X006182Y012544D02*
X005989Y012544D01*
X005839Y012399D02*
X005839Y012689D01*
X005694Y012544D01*
X002451Y016982D02*
X002499Y017030D01*
X002499Y017127D01*
X002451Y017175D01*
X002403Y017175D01*
X002354Y017127D01*
X002354Y017030D01*
X002306Y016982D01*
X002257Y016982D01*
X002209Y017030D01*
X002209Y017127D01*
X002257Y017175D01*
X002209Y017276D02*
X002403Y017276D01*
X002499Y017373D01*
X002403Y017470D01*
X002209Y017470D01*
X002354Y017571D02*
X002354Y017764D01*
X002451Y017865D02*
X002257Y017865D01*
X002209Y017914D01*
X002209Y018011D01*
X002257Y018059D01*
X002451Y017865D01*
X002499Y017914D01*
X002499Y018011D01*
X002451Y018059D01*
X002257Y018059D01*
X002306Y018160D02*
X002209Y018257D01*
X002499Y018257D01*
X002499Y018160D02*
X002499Y018354D01*
X002499Y017716D02*
X002209Y017716D01*
X002354Y017571D01*
X000948Y004386D02*
X000997Y004338D01*
X000997Y004241D01*
X000948Y004193D01*
X000948Y004092D02*
X000755Y004092D01*
X000948Y003898D01*
X000997Y003947D01*
X000997Y004043D01*
X000948Y004092D01*
X000755Y004092D02*
X000706Y004043D01*
X000706Y003947D01*
X000755Y003898D01*
X000948Y003898D01*
X000852Y003797D02*
X000852Y003604D01*
X000706Y003749D01*
X000997Y003749D01*
X001160Y003819D02*
X001160Y003625D01*
X001208Y003577D01*
X001305Y003577D01*
X001353Y003625D01*
X001454Y003577D02*
X001454Y003867D01*
X001599Y003867D01*
X001648Y003819D01*
X001648Y003625D01*
X001599Y003577D01*
X001454Y003577D01*
X001353Y003819D02*
X001305Y003867D01*
X001208Y003867D01*
X001160Y003819D01*
X000948Y003502D02*
X000997Y003454D01*
X000997Y003357D01*
X000948Y003309D01*
X000755Y003309D01*
X000706Y003357D01*
X000706Y003454D01*
X000755Y003502D01*
X000706Y003209D02*
X000706Y003113D01*
X000706Y003161D02*
X000997Y003161D01*
X000997Y003113D02*
X000997Y003209D01*
X001749Y003722D02*
X001942Y003722D01*
X002044Y003625D02*
X002044Y003819D01*
X002092Y003867D01*
X002189Y003867D01*
X002237Y003819D01*
X002044Y003625D01*
X002092Y003577D01*
X002189Y003577D01*
X002237Y003625D01*
X002237Y003819D01*
X002338Y003722D02*
X002483Y003722D01*
X002532Y003673D01*
X002532Y003625D01*
X002483Y003577D01*
X002387Y003577D01*
X002338Y003625D01*
X002338Y003722D01*
X002435Y003819D01*
X002532Y003867D01*
X002633Y003722D02*
X002778Y003722D01*
X002826Y003673D01*
X002826Y003625D01*
X002778Y003577D01*
X002681Y003577D01*
X002633Y003625D01*
X002633Y003722D01*
X002730Y003819D01*
X002826Y003867D01*
X001894Y003867D02*
X001894Y003577D01*
X001749Y003722D02*
X001894Y003867D01*
X000948Y004386D02*
X000900Y004386D01*
X000852Y004338D01*
X000852Y004290D01*
X000852Y004338D02*
X000803Y004386D01*
X000755Y004386D01*
X000706Y004338D01*
X000706Y004241D01*
X000755Y004193D01*
D16*
X002733Y004230D03*
X003882Y013101D03*
X006532Y013101D03*
X013380Y011223D03*
D17*
X016973Y011425D02*
X017223Y011175D01*
X017723Y011175D01*
X017973Y011425D01*
X017973Y011925D01*
X017723Y012175D01*
X017973Y012425D01*
X017973Y012925D01*
X017723Y013175D01*
X017223Y013175D01*
X016973Y012925D01*
X016973Y012425D01*
X017223Y012175D01*
X017723Y012175D01*
X017223Y012175D02*
X016973Y011925D01*
X016973Y011425D01*
X017223Y011175D02*
X016973Y010925D01*
X016973Y010425D01*
X017223Y010175D01*
X017723Y010175D01*
X017973Y009925D01*
X017973Y009425D01*
X017723Y009175D01*
X017973Y008925D01*
X017973Y008425D01*
X017723Y008175D01*
X017973Y007925D01*
X017973Y007425D01*
X017723Y007175D01*
X017973Y006925D01*
X017973Y006425D01*
X017723Y006175D01*
X017973Y005925D01*
X017973Y005425D01*
X017723Y005175D01*
X017223Y005175D01*
X016973Y005425D01*
X016973Y005925D01*
X017223Y006175D01*
X016973Y006425D01*
X016973Y006925D01*
X017223Y007175D01*
X017723Y007175D01*
X017223Y007175D02*
X016973Y007425D01*
X016973Y007925D01*
X017223Y008175D01*
X016973Y008425D01*
X016973Y008925D01*
X017223Y009175D01*
X016973Y009425D01*
X016973Y009925D01*
X017223Y010175D01*
X017723Y010175D02*
X017973Y010425D01*
X017973Y010925D01*
X017723Y011175D01*
X017723Y009175D02*
X017223Y009175D01*
X017223Y008175D02*
X017723Y008175D01*
X017723Y006175D02*
X017223Y006175D01*
X017223Y013175D02*
X016973Y013425D01*
X016973Y013925D01*
X017223Y014175D01*
X016973Y014425D01*
X016973Y014925D01*
X017223Y015175D01*
X016973Y015425D01*
X016973Y015925D01*
X017223Y016175D01*
X016973Y016425D01*
X016973Y016925D01*
X017223Y017175D01*
X017723Y017175D01*
X017973Y016925D01*
X017973Y016425D01*
X017723Y016175D01*
X017973Y015925D01*
X017973Y015425D01*
X017723Y015175D01*
X017973Y014925D01*
X017973Y014425D01*
X017723Y014175D01*
X017973Y013925D01*
X017973Y013425D01*
X017723Y013175D01*
X017723Y014175D02*
X017223Y014175D01*
X017223Y015175D02*
X017723Y015175D01*
X017723Y016175D02*
X017223Y016175D01*
X007212Y008904D02*
X007212Y008099D01*
X006377Y008099D01*
X006377Y008904D01*
X007212Y008904D01*
X007212Y007704D02*
X006377Y007704D01*
X006377Y006899D01*
X007212Y006899D01*
X007212Y007704D01*
X006804Y004092D02*
X006804Y002911D01*
X007985Y002911D01*
X007985Y004092D01*
X006804Y004092D01*
X002162Y005699D02*
X001327Y005699D01*
X001327Y006504D01*
X002162Y006504D01*
X002162Y005699D01*
X002162Y006899D02*
X001327Y006899D01*
X001327Y007704D01*
X002162Y007704D01*
X002162Y006899D01*
X002162Y008099D02*
X001327Y008099D01*
X001327Y008904D01*
X002162Y008904D01*
X002162Y008099D01*
M02*
