G75*
G70*
%OFA0B0*%
%FSLAX24Y24*%
%IPPOS*%
%LPD*%
%AMOC8*
5,1,8,0,0,1.08239X$1,22.5*
%
%ADD10C,0.0000*%
%ADD11C,0.0660*%
%ADD12C,0.0740*%
%ADD13C,0.1200*%
%ADD14C,0.0400*%
%ADD15C,0.0600*%
%ADD16C,0.0800*%
D10*
X001904Y001670D02*
X009297Y001670D01*
X009297Y001671D02*
X009382Y001673D01*
X009468Y001679D01*
X009553Y001689D01*
X009637Y001703D01*
X009720Y001722D01*
X009803Y001744D01*
X009884Y001770D01*
X009965Y001800D01*
X010043Y001833D01*
X010120Y001871D01*
X010195Y001912D01*
X010268Y001956D01*
X010339Y002004D01*
X010407Y002055D01*
X010473Y002110D01*
X010536Y002167D01*
X010597Y002228D01*
X010654Y002291D01*
X010709Y002357D01*
X010760Y002425D01*
X010808Y002496D01*
X010852Y002569D01*
X010893Y002644D01*
X010931Y002721D01*
X010964Y002799D01*
X010994Y002880D01*
X011020Y002961D01*
X011042Y003044D01*
X011061Y003127D01*
X011075Y003211D01*
X011085Y003296D01*
X011091Y003382D01*
X011093Y003467D01*
X011093Y010721D01*
X011094Y010721D02*
X011092Y010792D01*
X011086Y010864D01*
X011077Y010935D01*
X011063Y011005D01*
X011046Y011074D01*
X011025Y011142D01*
X011000Y011210D01*
X010972Y011275D01*
X010940Y011339D01*
X010905Y011402D01*
X010867Y011462D01*
X010825Y011520D01*
X010780Y011576D01*
X010732Y011629D01*
X010682Y011679D01*
X010629Y011727D01*
X010573Y011772D01*
X010515Y011814D01*
X010455Y011852D01*
X010392Y011887D01*
X010328Y011919D01*
X010263Y011947D01*
X010195Y011972D01*
X010127Y011993D01*
X010058Y012010D01*
X009988Y012024D01*
X009917Y012033D01*
X009845Y012039D01*
X009774Y012041D01*
X009774Y012040D02*
X001426Y012040D01*
X001426Y012041D02*
X001354Y012039D01*
X001283Y012033D01*
X001211Y012024D01*
X001141Y012010D01*
X001071Y011993D01*
X001003Y011972D01*
X000935Y011947D01*
X000869Y011918D01*
X000805Y011887D01*
X000742Y011851D01*
X000682Y011813D01*
X000624Y011771D01*
X000568Y011726D01*
X000514Y011678D01*
X000463Y011627D01*
X000415Y011573D01*
X000370Y011517D01*
X000328Y011459D01*
X000290Y011399D01*
X000254Y011336D01*
X000223Y011272D01*
X000194Y011206D01*
X000169Y011138D01*
X000148Y011070D01*
X000131Y011000D01*
X000117Y010930D01*
X000108Y010858D01*
X000102Y010787D01*
X000100Y010715D01*
X000101Y010715D02*
X000101Y003473D01*
X000103Y003387D01*
X000109Y003302D01*
X000119Y003216D01*
X000134Y003132D01*
X000152Y003048D01*
X000174Y002965D01*
X000200Y002883D01*
X000230Y002803D01*
X000264Y002724D01*
X000301Y002647D01*
X000343Y002572D01*
X000387Y002498D01*
X000435Y002427D01*
X000487Y002358D01*
X000541Y002292D01*
X000599Y002229D01*
X000660Y002168D01*
X000723Y002110D01*
X000789Y002056D01*
X000858Y002004D01*
X000929Y001956D01*
X001002Y001912D01*
X001078Y001870D01*
X001155Y001833D01*
X001234Y001799D01*
X001314Y001769D01*
X001396Y001743D01*
X001479Y001721D01*
X001563Y001703D01*
X001647Y001688D01*
X001733Y001678D01*
X001818Y001672D01*
X001904Y001670D01*
X015851Y007170D02*
X015853Y007220D01*
X015859Y007270D01*
X015869Y007320D01*
X015882Y007368D01*
X015899Y007416D01*
X015920Y007462D01*
X015944Y007506D01*
X015972Y007548D01*
X016003Y007588D01*
X016037Y007625D01*
X016074Y007660D01*
X016113Y007691D01*
X016154Y007720D01*
X016198Y007745D01*
X016244Y007767D01*
X016291Y007785D01*
X016339Y007799D01*
X016388Y007810D01*
X016438Y007817D01*
X016488Y007820D01*
X016539Y007819D01*
X016589Y007814D01*
X016639Y007805D01*
X016687Y007793D01*
X016735Y007776D01*
X016781Y007756D01*
X016826Y007733D01*
X016869Y007706D01*
X016909Y007676D01*
X016947Y007643D01*
X016982Y007607D01*
X017015Y007568D01*
X017044Y007527D01*
X017070Y007484D01*
X017093Y007439D01*
X017112Y007392D01*
X017127Y007344D01*
X017139Y007295D01*
X017147Y007245D01*
X017151Y007195D01*
X017151Y007145D01*
X017147Y007095D01*
X017139Y007045D01*
X017127Y006996D01*
X017112Y006948D01*
X017093Y006901D01*
X017070Y006856D01*
X017044Y006813D01*
X017015Y006772D01*
X016982Y006733D01*
X016947Y006697D01*
X016909Y006664D01*
X016869Y006634D01*
X016826Y006607D01*
X016781Y006584D01*
X016735Y006564D01*
X016687Y006547D01*
X016639Y006535D01*
X016589Y006526D01*
X016539Y006521D01*
X016488Y006520D01*
X016438Y006523D01*
X016388Y006530D01*
X016339Y006541D01*
X016291Y006555D01*
X016244Y006573D01*
X016198Y006595D01*
X016154Y006620D01*
X016113Y006649D01*
X016074Y006680D01*
X016037Y006715D01*
X016003Y006752D01*
X015972Y006792D01*
X015944Y006834D01*
X015920Y006878D01*
X015899Y006924D01*
X015882Y006972D01*
X015869Y007020D01*
X015859Y007070D01*
X015853Y007120D01*
X015851Y007170D01*
D11*
X009931Y007170D02*
X009271Y007170D01*
X009271Y006170D02*
X009931Y006170D01*
X009931Y008170D02*
X009271Y008170D01*
D12*
X006971Y007170D02*
X006231Y007170D01*
X001471Y007170D02*
X000731Y007170D01*
X000731Y004170D02*
X001471Y004170D01*
D13*
X009601Y003670D03*
D14*
X006601Y009170D03*
X004101Y009170D03*
D15*
X006601Y009170D01*
D16*
X006601Y007170D02*
X009601Y007170D01*
M02*
