  0
SECTION
  2
HEADER
  9
$ACADVER
  1
AC1009
  9
$FILLMODE
 70
1
  9
$EXTMIN
 10
-101.7344
 20
-101.7344
 30
0.0000
  9
$EXTMAX
 10
101.7344
 20
101.7344
 30
0.0000
  0
ENDSEC
  0
SECTION
  2
TABLES
  0
TABLE
  2
LTYPE
 70
1
  0
LTYPE
  2
CONTINUOUS
 70
64
  3
Solid line
 72
65
 73
0
 40
0
  0
ENDTAB
  0
TABLE
  2
LAYER
 70
255
  0
LAYER
  2
20
 70
64
 62
7
  6
CONTINUOUS
  0
LAYER
  2
29
 70
64
 62
253
  6
CONTINUOUS
  0
ENDTAB
  0
ENDSEC
  0
SECTION
  2
BLOCKS
  0
BLOCK
  8
0
  2
RECT
 70
64
 10
0.0000
 20
0.0000
 30
0.0000
  3
RECT
  0
SOLID
  8
0
 10
-0.5000
 20
-0.5000
 30
0.0000
 11
0.5000
 21
-0.5000
 31
0.0000
 12
-0.5000
 22
0.5000
 32
0.0000
 13
0.5000
 23
0.5000
 33
0.0000
  0
ENDBLK
  8
0
  0
BLOCK
  8
0
  2
PIE
 70
64
 10
0.0000
 20
0.0000
 30
0.0000
  3
PIE
  0
POLYLINE
  8
0
 66
1
 10
0.0000
 20
0.0000
 30
0.0000
 40
0.5000
 41
0.5000
 70
0
  0
VERTEX
  8
0
 10
0.0000
 20
-0.2500
 30
0.0000
 42
1.0000
  0
VERTEX
  8
0
 10
0.0000
 20
0.2500
 30
0.0000
 42
1.0000
  0
VERTEX
  8
0
 10
0.0000
 20
-0.2500
 30
0.0000
  0
SEQEND
  8
0
  0
ENDBLK
  8
0
  0
BLOCK
  8
0
  2
OCTAGONP
 70
64
 10
0.0000
 20
0.0000
 30
0.0000
  3
OCTAGONP
  0
POLYLINE
  8
0
 66
1
 10
0.0000
 20
0.0000
 30
0.0000
 40
0.5000
 41
0.5000
 70
0
  0
VERTEX
  8
0
 10
-0.2500
 20
-0.1036
 30
0.0000
  0
VERTEX
  8
0
 10
-0.2500
 20
0.1036
 30
0.0000
  0
VERTEX
  8
0
 10
-0.1036
 20
0.2500
 30
0.0000
  0
VERTEX
  8
0
 10
0.1036
 20
0.2500
 30
0.0000
  0
VERTEX
  8
0
 10
0.2500
 20
0.1036
 30
0.0000
  0
VERTEX
  8
0
 10
0.2500
 20
-0.1036
 30
0.0000
  0
VERTEX
  8
0
 10
0.1036
 20
-0.2500
 30
0.0000
  0
VERTEX
  8
0
 10
-0.1036
 20
-0.2500
 30
0.0000
  0
VERTEX
  8
0
 10
-0.2500
 20
-0.1036
 30
0.0000
  0
VERTEX
  8
0
 10
-0.2500
 20
0.1036
 30
0.0000
  0
SEQEND
  8
0
  0
ENDBLK
  8
0
  0
BLOCK
  8
0
  2
SQUAREP
 70
64
 10
0.0000
 20
0.0000
 30
0.0000
  3
SQUAREP
  0
SOLID
  8
0
 10
-0.5000
 20
-0.5000
 30
0.0000
 11
0.5000
 21
-0.5000
 31
0.0000
 12
-0.5000
 22
0.5000
 32
0.0000
 13
0.5000
 23
0.5000
 33
0.0000
  0
ENDBLK
  8
0
  0
BLOCK
  8
0
  2
ROUNDP
 70
64
 10
0.0000
 20
0.0000
 30
0.0000
  3
ROUNDP
  0
POLYLINE
  8
0
 66
1
 10
0.0000
 20
0.0000
 30
0.0000
 40
0.5000
 41
0.5000
 70
0
  0
VERTEX
  8
0
 10
0.0000
 20
-0.2500
 30
0.0000
 42
1.0000
  0
VERTEX
  8
0
 10
0.0000
 20
0.2500
 30
0.0000
 42
1.0000
  0
VERTEX
  8
0
 10
0.0000
 20
-0.2500
 30
0.0000
  0
SEQEND
  8
0
  0
ENDBLK
  8
0
  0
BLOCK
  8
0
  2
ANNULUSP
 70
64
 10
0.0000
 20
0.0000
 30
0.0000
  3
ANNULUSP
  0
POLYLINE
  8
0
 66
1
 10
0.0000
 20
0.0000
 30
0.0000
 40
0.5000
 41
0.5000
 70
0
  0
VERTEX
  8
0
 10
0.0000
 20
-0.2500
 30
0.0000
 42
1.0000
  0
VERTEX
  8
0
 10
0.0000
 20
0.2500
 30
0.0000
 42
1.0000
  0
VERTEX
  8
0
 10
0.0000
 20
-0.2500
 30
0.0000
  0
SEQEND
  8
0
  0
ENDBLK
  8
0
  0
BLOCK
  8
0
  2
THERMALP
 70
64
 10
0.0000
 20
0.0000
 30
0.0000
  3
THERMALP
  0
POLYLINE
  8
0
 66
1
 10
0.0000
 20
0.0000
 30
0.0000
 40
0.1000
 41
0.1000
 70
0
  0
VERTEX
  8
0
 10
-0.2379
 20
0.4500
 30
0.0000
  0
VERTEX
  8
0
 10
0.2379
 20
0.4500
 30
0.0000
  0
SEQEND
  8
0
  0
POLYLINE
  8
0
 66
1
 10
0.0000
 20
0.0000
 30
0.0000
 40
0.0500
 41
0.0500
 70
0
  0
VERTEX
  8
0
 10
0.2379
 20
0.4250
 30
0.0000
 42
1.0000
  0
VERTEX
  8
0
 10
0.2379
 20
0.4750
 30
0.0000
  0
SEQEND
  8
0
  0
POLYLINE
  8
0
 66
1
 10
0.0000
 20
0.0000
 30
0.0000
 40
0.0500
 41
0.0500
 70
0
  0
VERTEX
  8
0
 10
-0.2379
 20
0.4750
 30
0.0000
 42
1.0000
  0
VERTEX
  8
0
 10
-0.2379
 20
0.4250
 30
0.0000
  0
SEQEND
  8
0
  0
POLYLINE
  8
0
 66
1
 10
0.0000
 20
0.0000
 30
0.0000
 40
0.1000
 41
0.1000
 70
0
  0
VERTEX
  8
0
 10
0.4500
 20
0.2379
 30
0.0000
  0
VERTEX
  8
0
 10
0.4500
 20
-0.2379
 30
0.0000
  0
SEQEND
  8
0
  0
POLYLINE
  8
0
 66
1
 10
0.0000
 20
0.0000
 30
0.0000
 40
0.0500
 41
0.0500
 70
0
  0
VERTEX
  8
0
 10
0.4250
 20
-0.2379
 30
0.0000
 42
1.0000
  0
VERTEX
  8
0
 10
0.4750
 20
-0.2379
 30
0.0000
  0
SEQEND
  8
0
  0
POLYLINE
  8
0
 66
1
 10
0.0000
 20
0.0000
 30
0.0000
 40
0.0500
 41
0.0500
 70
0
  0
VERTEX
  8
0
 10
0.4750
 20
0.2379
 30
0.0000
 42
1.0000
  0
VERTEX
  8
0
 10
0.4250
 20
0.2379
 30
0.0000
  0
SEQEND
  8
0
  0
POLYLINE
  8
0
 66
1
 10
0.0000
 20
0.0000
 30
0.0000
 40
0.1000
 41
0.1000
 70
0
  0
VERTEX
  8
0
 10
0.2379
 20
-0.4500
 30
0.0000
  0
VERTEX
  8
0
 10
-0.2379
 20
-0.4500
 30
0.0000
  0
SEQEND
  8
0
  0
POLYLINE
  8
0
 66
1
 10
0.0000
 20
0.0000
 30
0.0000
 40
0.0500
 41
0.0500
 70
0
  0
VERTEX
  8
0
 10
-0.2379
 20
-0.4250
 30
0.0000
 42
1.0000
  0
VERTEX
  8
0
 10
-0.2379
 20
-0.4750
 30
0.0000
  0
SEQEND
  8
0
  0
POLYLINE
  8
0
 66
1
 10
0.0000
 20
0.0000
 30
0.0000
 40
0.0500
 41
0.0500
 70
0
  0
VERTEX
  8
0
 10
0.2379
 20
-0.4750
 30
0.0000
 42
1.0000
  0
VERTEX
  8
0
 10
0.2379
 20
-0.4250
 30
0.0000
  0
SEQEND
  8
0
  0
POLYLINE
  8
0
 66
1
 10
0.0000
 20
0.0000
 30
0.0000
 40
0.1000
 41
0.1000
 70
0
  0
VERTEX
  8
0
 10
-0.4500
 20
-0.2379
 30
0.0000
  0
VERTEX
  8
0
 10
-0.4500
 20
0.2379
 30
0.0000
  0
SEQEND
  8
0
  0
POLYLINE
  8
0
 66
1
 10
0.0000
 20
0.0000
 30
0.0000
 40
0.0500
 41
0.0500
 70
0
  0
VERTEX
  8
0
 10
-0.4250
 20
0.2379
 30
0.0000
 42
1.0000
  0
VERTEX
  8
0
 10
-0.4750
 20
0.2379
 30
0.0000
  0
SEQEND
  8
0
  0
POLYLINE
  8
0
 66
1
 10
0.0000
 20
0.0000
 30
0.0000
 40
0.0500
 41
0.0500
 70
0
  0
VERTEX
  8
0
 10
-0.4750
 20
-0.2379
 30
0.0000
 42
1.0000
  0
VERTEX
  8
0
 10
-0.4250
 20
-0.2379
 30
0.0000
  0
SEQEND
  8
0
  0
ENDBLK
  8
0
  0
BLOCK
  8
0
  2
OCTAGONV
 70
64
 10
0.0000
 20
0.0000
 30
0.0000
  3
OCTAGONV
  0
POLYLINE
  8
0
 66
1
 10
0.0000
 20
0.0000
 30
0.0000
 40
0.5000
 41
0.5000
 70
0
  0
VERTEX
  8
0
 10
-0.2500
 20
-0.1036
 30
0.0000
  0
VERTEX
  8
0
 10
-0.2500
 20
0.1036
 30
0.0000
  0
VERTEX
  8
0
 10
-0.1036
 20
0.2500
 30
0.0000
  0
VERTEX
  8
0
 10
0.1036
 20
0.2500
 30
0.0000
  0
VERTEX
  8
0
 10
0.2500
 20
0.1036
 30
0.0000
  0
VERTEX
  8
0
 10
0.2500
 20
-0.1036
 30
0.0000
  0
VERTEX
  8
0
 10
0.1036
 20
-0.2500
 30
0.0000
  0
VERTEX
  8
0
 10
-0.1036
 20
-0.2500
 30
0.0000
  0
VERTEX
  8
0
 10
-0.2500
 20
-0.1036
 30
0.0000
  0
VERTEX
  8
0
 10
-0.2500
 20
0.1036
 30
0.0000
  0
SEQEND
  8
0
  0
ENDBLK
  8
0
  0
BLOCK
  8
0
  2
SQUAREV
 70
64
 10
0.0000
 20
0.0000
 30
0.0000
  3
SQUAREV
  0
SOLID
  8
0
 10
-0.5000
 20
-0.5000
 30
0.0000
 11
0.5000
 21
-0.5000
 31
0.0000
 12
-0.5000
 22
0.5000
 32
0.0000
 13
0.5000
 23
0.5000
 33
0.0000
  0
ENDBLK
  8
0
  0
BLOCK
  8
0
  2
ROUNDV
 70
64
 10
0.0000
 20
0.0000
 30
0.0000
  3
ROUNDV
  0
POLYLINE
  8
0
 66
1
 10
0.0000
 20
0.0000
 30
0.0000
 40
0.5000
 41
0.5000
 70
0
  0
VERTEX
  8
0
 10
0.0000
 20
-0.2500
 30
0.0000
 42
1.0000
  0
VERTEX
  8
0
 10
0.0000
 20
0.2500
 30
0.0000
 42
1.0000
  0
VERTEX
  8
0
 10
0.0000
 20
-0.2500
 30
0.0000
  0
SEQEND
  8
0
  0
ENDBLK
  8
0
  0
BLOCK
  8
0
  2
ANNULUSV
 70
64
 10
0.0000
 20
0.0000
 30
0.0000
  3
ANNULUSV
  0
POLYLINE
  8
0
 66
1
 10
0.0000
 20
0.0000
 30
0.0000
 40
0.5000
 41
0.5000
 70
0
  0
VERTEX
  8
0
 10
0.0000
 20
-0.2500
 30
0.0000
 42
1.0000
  0
VERTEX
  8
0
 10
0.0000
 20
0.2500
 30
0.0000
 42
1.0000
  0
VERTEX
  8
0
 10
0.0000
 20
-0.2500
 30
0.0000
  0
SEQEND
  8
0
  0
ENDBLK
  8
0
  0
BLOCK
  8
0
  2
THERMALV
 70
64
 10
0.0000
 20
0.0000
 30
0.0000
  3
THERMALV
  0
POLYLINE
  8
0
 66
1
 10
0.0000
 20
0.0000
 30
0.0000
 40
0.1000
 41
0.1000
 70
0
  0
VERTEX
  8
0
 10
-0.2379
 20
0.4500
 30
0.0000
  0
VERTEX
  8
0
 10
0.2379
 20
0.4500
 30
0.0000
  0
SEQEND
  8
0
  0
POLYLINE
  8
0
 66
1
 10
0.0000
 20
0.0000
 30
0.0000
 40
0.0500
 41
0.0500
 70
0
  0
VERTEX
  8
0
 10
0.2379
 20
0.4250
 30
0.0000
 42
1.0000
  0
VERTEX
  8
0
 10
0.2379
 20
0.4750
 30
0.0000
  0
SEQEND
  8
0
  0
POLYLINE
  8
0
 66
1
 10
0.0000
 20
0.0000
 30
0.0000
 40
0.0500
 41
0.0500
 70
0
  0
VERTEX
  8
0
 10
-0.2379
 20
0.4750
 30
0.0000
 42
1.0000
  0
VERTEX
  8
0
 10
-0.2379
 20
0.4250
 30
0.0000
  0
SEQEND
  8
0
  0
POLYLINE
  8
0
 66
1
 10
0.0000
 20
0.0000
 30
0.0000
 40
0.1000
 41
0.1000
 70
0
  0
VERTEX
  8
0
 10
0.4500
 20
0.2379
 30
0.0000
  0
VERTEX
  8
0
 10
0.4500
 20
-0.2379
 30
0.0000
  0
SEQEND
  8
0
  0
POLYLINE
  8
0
 66
1
 10
0.0000
 20
0.0000
 30
0.0000
 40
0.0500
 41
0.0500
 70
0
  0
VERTEX
  8
0
 10
0.4250
 20
-0.2379
 30
0.0000
 42
1.0000
  0
VERTEX
  8
0
 10
0.4750
 20
-0.2379
 30
0.0000
  0
SEQEND
  8
0
  0
POLYLINE
  8
0
 66
1
 10
0.0000
 20
0.0000
 30
0.0000
 40
0.0500
 41
0.0500
 70
0
  0
VERTEX
  8
0
 10
0.4750
 20
0.2379
 30
0.0000
 42
1.0000
  0
VERTEX
  8
0
 10
0.4250
 20
0.2379
 30
0.0000
  0
SEQEND
  8
0
  0
POLYLINE
  8
0
 66
1
 10
0.0000
 20
0.0000
 30
0.0000
 40
0.1000
 41
0.1000
 70
0
  0
VERTEX
  8
0
 10
0.2379
 20
-0.4500
 30
0.0000
  0
VERTEX
  8
0
 10
-0.2379
 20
-0.4500
 30
0.0000
  0
SEQEND
  8
0
  0
POLYLINE
  8
0
 66
1
 10
0.0000
 20
0.0000
 30
0.0000
 40
0.0500
 41
0.0500
 70
0
  0
VERTEX
  8
0
 10
-0.2379
 20
-0.4250
 30
0.0000
 42
1.0000
  0
VERTEX
  8
0
 10
-0.2379
 20
-0.4750
 30
0.0000
  0
SEQEND
  8
0
  0
POLYLINE
  8
0
 66
1
 10
0.0000
 20
0.0000
 30
0.0000
 40
0.0500
 41
0.0500
 70
0
  0
VERTEX
  8
0
 10
0.2379
 20
-0.4750
 30
0.0000
 42
1.0000
  0
VERTEX
  8
0
 10
0.2379
 20
-0.4250
 30
0.0000
  0
SEQEND
  8
0
  0
POLYLINE
  8
0
 66
1
 10
0.0000
 20
0.0000
 30
0.0000
 40
0.1000
 41
0.1000
 70
0
  0
VERTEX
  8
0
 10
-0.4500
 20
-0.2379
 30
0.0000
  0
VERTEX
  8
0
 10
-0.4500
 20
0.2379
 30
0.0000
  0
SEQEND
  8
0
  0
POLYLINE
  8
0
 66
1
 10
0.0000
 20
0.0000
 30
0.0000
 40
0.0500
 41
0.0500
 70
0
  0
VERTEX
  8
0
 10
-0.4250
 20
0.2379
 30
0.0000
 42
1.0000
  0
VERTEX
  8
0
 10
-0.4750
 20
0.2379
 30
0.0000
  0
SEQEND
  8
0
  0
POLYLINE
  8
0
 66
1
 10
0.0000
 20
0.0000
 30
0.0000
 40
0.0500
 41
0.0500
 70
0
  0
VERTEX
  8
0
 10
-0.4750
 20
-0.2379
 30
0.0000
 42
1.0000
  0
VERTEX
  8
0
 10
-0.4250
 20
-0.2379
 30
0.0000
  0
SEQEND
  8
0
  0
ENDBLK
  8
0
  0
BLOCK
  8
0
  2
LONGP100
 70
64
 10
0.0000
 20
0.0000
 30
0.0000
  3
LONGP100
  0
POLYLINE
  8
0
 66
1
 10
0.0000
 20
0.0000
 30
0.0000
 40
1.0000
 41
1.0000
 70
0
  0
VERTEX
  8
0
 10
-0.5000
 20
0.0000
 30
0.0000
  0
VERTEX
  8
0
 10
0.5000
 20
0.0000
 30
0.0000
  0
SEQEND
  8
0
  0
POLYLINE
  8
0
 66
1
 10
0.0000
 20
0.0000
 30
0.0000
 40
0.5000
 41
0.5000
 70
0
  0
VERTEX
  8
0
 10
0.5000
 20
-0.2500
 30
0.0000
 42
1.0000
  0
VERTEX
  8
0
 10
0.5000
 20
0.2500
 30
0.0000
  0
SEQEND
  8
0
  0
POLYLINE
  8
0
 66
1
 10
0.0000
 20
0.0000
 30
0.0000
 40
0.5000
 41
0.5000
 70
0
  0
VERTEX
  8
0
 10
-0.5000
 20
0.2500
 30
0.0000
 42
1.0000
  0
VERTEX
  8
0
 10
-0.5000
 20
-0.2500
 30
0.0000
  0
SEQEND
  8
0
  0
ENDBLK
  8
0
  0
ENDSEC
  0
SECTION
  2
ENTITIES
  0
POLYLINE
  8
20
 66
1
 10
0.0000
 20
0.0000
 30
0.0000
 40
0.2540
 41
0.2540
 70
0
  0
VERTEX
  8
20
 10
0.0000
 20
-101.6000
 30
0.0000
 42
1.0000
  0
VERTEX
  8
20
 10
0.0000
 20
101.6000
 30
0.0000
 42
1.0000
  0
VERTEX
  8
20
 10
0.0000
 20
-101.6000
 30
0.0000
  0
SEQEND
  8
0
  0
INSERT
  8
29
  2
RECT
 10
-18.6800
 20
8.8900
 30
0.0000
 41
1.0032
 42
1.4032
 43
1.0000
 50
0.0000
  0
INSERT
  8
29
  2
RECT
 10
-16.8800
 20
8.8900
 30
0.0000
 41
1.0032
 42
1.4032
 43
1.0000
 50
0.0000
  0
INSERT
  8
29
  2
RECT
 10
-25.0300
 20
21.5900
 30
0.0000
 41
1.0032
 42
1.4032
 43
1.0000
 50
0.0000
  0
INSERT
  8
29
  2
RECT
 10
-23.2300
 20
21.5900
 30
0.0000
 41
1.0032
 42
1.4032
 43
1.0000
 50
0.0000
  0
INSERT
  8
29
  2
RECT
 10
-14.8700
 20
19.0500
 30
0.0000
 41
1.0032
 42
1.4032
 43
1.0000
 50
0.0000
  0
INSERT
  8
29
  2
RECT
 10
-13.0700
 20
19.0500
 30
0.0000
 41
1.0032
 42
1.4032
 43
1.0000
 50
0.0000
  0
INSERT
  8
29
  2
RECT
 10
-10.5300
 20
0.0000
 30
0.0000
 41
1.0032
 42
1.4032
 43
1.0000
 50
180.0000
  0
INSERT
  8
29
  2
RECT
 10
-12.3300
 20
0.0000
 30
0.0000
 41
1.0032
 42
1.4032
 43
1.0000
 50
180.0000
  0
INSERT
  8
29
  2
RECT
 10
25.3600
 20
38.8900
 30
0.0000
 41
1.0032
 42
0.4878
 43
1.0000
 50
180.0000
  0
INSERT
  8
29
  2
RECT
 10
25.3600
 20
39.3900
 30
0.0000
 41
1.0032
 42
0.4878
 43
1.0000
 50
180.0000
  0
INSERT
  8
29
  2
RECT
 10
25.3600
 20
39.8900
 30
0.0000
 41
1.0032
 42
0.4878
 43
1.0000
 50
180.0000
  0
INSERT
  8
29
  2
RECT
 10
25.3600
 20
40.3900
 30
0.0000
 41
1.0032
 42
0.4878
 43
1.0000
 50
180.0000
  0
INSERT
  8
29
  2
RECT
 10
25.3600
 20
40.8900
 30
0.0000
 41
1.0032
 42
0.4878
 43
1.0000
 50
180.0000
  0
INSERT
  8
29
  2
RECT
 10
25.3600
 20
41.3900
 30
0.0000
 41
1.0032
 42
0.4878
 43
1.0000
 50
180.0000
  0
INSERT
  8
29
  2
RECT
 10
25.3600
 20
41.8900
 30
0.0000
 41
1.0032
 42
0.4878
 43
1.0000
 50
180.0000
  0
INSERT
  8
29
  2
RECT
 10
25.3600
 20
42.3900
 30
0.0000
 41
1.0032
 42
0.4878
 43
1.0000
 50
180.0000
  0
INSERT
  8
29
  2
RECT
 10
24.6100
 20
43.1400
 30
0.0000
 41
1.0032
 42
0.4878
 43
1.0000
 50
270.0000
  0
INSERT
  8
29
  2
RECT
 10
24.1100
 20
43.1400
 30
0.0000
 41
1.0032
 42
0.4878
 43
1.0000
 50
270.0000
  0
INSERT
  8
29
  2
RECT
 10
23.6100
 20
43.1400
 30
0.0000
 41
1.0032
 42
0.4878
 43
1.0000
 50
270.0000
  0
INSERT
  8
29
  2
RECT
 10
23.1100
 20
43.1400
 30
0.0000
 41
1.0032
 42
0.4878
 43
1.0000
 50
270.0000
  0
INSERT
  8
29
  2
RECT
 10
22.6100
 20
43.1400
 30
0.0000
 41
1.0032
 42
0.4878
 43
1.0000
 50
270.0000
  0
INSERT
  8
29
  2
RECT
 10
22.1100
 20
43.1400
 30
0.0000
 41
1.0032
 42
0.4878
 43
1.0000
 50
270.0000
  0
INSERT
  8
29
  2
RECT
 10
21.6100
 20
43.1400
 30
0.0000
 41
1.0032
 42
0.4878
 43
1.0000
 50
270.0000
  0
INSERT
  8
29
  2
RECT
 10
21.1100
 20
43.1400
 30
0.0000
 41
1.0032
 42
0.4878
 43
1.0000
 50
270.0000
  0
INSERT
  8
29
  2
RECT
 10
20.3600
 20
42.3900
 30
0.0000
 41
1.0032
 42
0.4878
 43
1.0000
 50
0.0000
  0
INSERT
  8
29
  2
RECT
 10
20.3600
 20
41.8900
 30
0.0000
 41
1.0032
 42
0.4878
 43
1.0000
 50
0.0000
  0
INSERT
  8
29
  2
RECT
 10
20.3600
 20
41.3900
 30
0.0000
 41
1.0032
 42
0.4878
 43
1.0000
 50
0.0000
  0
INSERT
  8
29
  2
RECT
 10
20.3600
 20
40.8900
 30
0.0000
 41
1.0032
 42
0.4878
 43
1.0000
 50
0.0000
  0
INSERT
  8
29
  2
RECT
 10
20.3600
 20
40.3900
 30
0.0000
 41
1.0032
 42
0.4878
 43
1.0000
 50
0.0000
  0
INSERT
  8
29
  2
RECT
 10
20.3600
 20
39.8900
 30
0.0000
 41
1.0032
 42
0.4878
 43
1.0000
 50
0.0000
  0
INSERT
  8
29
  2
RECT
 10
20.3600
 20
39.3900
 30
0.0000
 41
1.0032
 42
0.4878
 43
1.0000
 50
0.0000
  0
INSERT
  8
29
  2
RECT
 10
20.3600
 20
38.8900
 30
0.0000
 41
1.0032
 42
0.4878
 43
1.0000
 50
0.0000
  0
INSERT
  8
29
  2
RECT
 10
21.1100
 20
38.1400
 30
0.0000
 41
1.0032
 42
0.4878
 43
1.0000
 50
90.0000
  0
INSERT
  8
29
  2
RECT
 10
21.6100
 20
38.1400
 30
0.0000
 41
1.0032
 42
0.4878
 43
1.0000
 50
90.0000
  0
INSERT
  8
29
  2
RECT
 10
22.1100
 20
38.1400
 30
0.0000
 41
1.0032
 42
0.4878
 43
1.0000
 50
90.0000
  0
INSERT
  8
29
  2
RECT
 10
22.6100
 20
38.1400
 30
0.0000
 41
1.0032
 42
0.4878
 43
1.0000
 50
90.0000
  0
INSERT
  8
29
  2
RECT
 10
23.1100
 20
38.1400
 30
0.0000
 41
1.0032
 42
0.4878
 43
1.0000
 50
90.0000
  0
INSERT
  8
29
  2
RECT
 10
23.6100
 20
38.1400
 30
0.0000
 41
1.0032
 42
0.4878
 43
1.0000
 50
90.0000
  0
INSERT
  8
29
  2
RECT
 10
24.1100
 20
38.1400
 30
0.0000
 41
1.0032
 42
0.4878
 43
1.0000
 50
90.0000
  0
INSERT
  8
29
  2
RECT
 10
24.6100
 20
38.1400
 30
0.0000
 41
1.0032
 42
0.4878
 43
1.0000
 50
90.0000
  0
INSERT
  8
29
  2
RECT
 10
22.8600
 20
40.6400
 30
0.0000
 41
3.3532
 42
3.3532
 43
1.0000
 50
90.0000
  0
INSERT
  8
29
  2
RECT
 10
-4.2926
 20
2.8000
 30
0.0000
 41
1.4732
 42
0.7620
 43
1.0000
 50
0.0000
  0
INSERT
  8
29
  2
RECT
 10
-4.2926
 20
2.0000
 30
0.0000
 41
1.4732
 42
0.7620
 43
1.0000
 50
0.0000
  0
INSERT
  8
29
  2
RECT
 10
-4.2926
 20
1.2000
 30
0.0000
 41
1.4732
 42
0.7620
 43
1.0000
 50
0.0000
  0
INSERT
  8
29
  2
RECT
 10
-4.2926
 20
0.4000
 30
0.0000
 41
1.4732
 42
0.7620
 43
1.0000
 50
0.0000
  0
INSERT
  8
29
  2
RECT
 10
-4.2926
 20
-0.4000
 30
0.0000
 41
1.4732
 42
0.7620
 43
1.0000
 50
0.0000
  0
INSERT
  8
29
  2
RECT
 10
-4.2926
 20
-1.2000
 30
0.0000
 41
1.4732
 42
0.7620
 43
1.0000
 50
0.0000
  0
INSERT
  8
29
  2
RECT
 10
-4.2926
 20
-2.0000
 30
0.0000
 41
1.4732
 42
0.7620
 43
1.0000
 50
0.0000
  0
INSERT
  8
29
  2
RECT
 10
-4.2926
 20
-2.8000
 30
0.0000
 41
1.4732
 42
0.7620
 43
1.0000
 50
0.0000
  0
INSERT
  8
29
  2
RECT
 10
-2.8000
 20
-4.2926
 30
0.0000
 41
0.7620
 42
1.4732
 43
1.0000
 50
0.0000
  0
INSERT
  8
29
  2
RECT
 10
-2.0000
 20
-4.2926
 30
0.0000
 41
0.7620
 42
1.4732
 43
1.0000
 50
0.0000
  0
INSERT
  8
29
  2
RECT
 10
-1.2000
 20
-4.2926
 30
0.0000
 41
0.7620
 42
1.4732
 43
1.0000
 50
0.0000
  0
INSERT
  8
29
  2
RECT
 10
-0.4000
 20
-4.2926
 30
0.0000
 41
0.7620
 42
1.4732
 43
1.0000
 50
0.0000
  0
INSERT
  8
29
  2
RECT
 10
0.4000
 20
-4.2926
 30
0.0000
 41
0.7620
 42
1.4732
 43
1.0000
 50
0.0000
  0
INSERT
  8
29
  2
RECT
 10
1.2000
 20
-4.2926
 30
0.0000
 41
0.7620
 42
1.4732
 43
1.0000
 50
0.0000
  0
INSERT
  8
29
  2
RECT
 10
2.0000
 20
-4.2926
 30
0.0000
 41
0.7620
 42
1.4732
 43
1.0000
 50
0.0000
  0
INSERT
  8
29
  2
RECT
 10
2.8000
 20
-4.2926
 30
0.0000
 41
0.7620
 42
1.4732
 43
1.0000
 50
0.0000
  0
INSERT
  8
29
  2
RECT
 10
4.2926
 20
-2.8000
 30
0.0000
 41
1.4732
 42
0.7620
 43
1.0000
 50
0.0000
  0
INSERT
  8
29
  2
RECT
 10
4.2926
 20
-2.0000
 30
0.0000
 41
1.4732
 42
0.7620
 43
1.0000
 50
0.0000
  0
INSERT
  8
29
  2
RECT
 10
4.2926
 20
-1.2000
 30
0.0000
 41
1.4732
 42
0.7620
 43
1.0000
 50
0.0000
  0
INSERT
  8
29
  2
RECT
 10
4.2926
 20
-0.4000
 30
0.0000
 41
1.4732
 42
0.7620
 43
1.0000
 50
0.0000
  0
INSERT
  8
29
  2
RECT
 10
4.2926
 20
0.4000
 30
0.0000
 41
1.4732
 42
0.7620
 43
1.0000
 50
0.0000
  0
INSERT
  8
29
  2
RECT
 10
4.2926
 20
1.2000
 30
0.0000
 41
1.4732
 42
0.7620
 43
1.0000
 50
0.0000
  0
INSERT
  8
29
  2
RECT
 10
4.2926
 20
2.0000
 30
0.0000
 41
1.4732
 42
0.7620
 43
1.0000
 50
0.0000
  0
INSERT
  8
29
  2
RECT
 10
4.2926
 20
2.8000
 30
0.0000
 41
1.4732
 42
0.7620
 43
1.0000
 50
0.0000
  0
INSERT
  8
29
  2
RECT
 10
2.8000
 20
4.2926
 30
0.0000
 41
0.7620
 42
1.4732
 43
1.0000
 50
0.0000
  0
INSERT
  8
29
  2
RECT
 10
2.0000
 20
4.2926
 30
0.0000
 41
0.7620
 42
1.4732
 43
1.0000
 50
0.0000
  0
INSERT
  8
29
  2
RECT
 10
1.2000
 20
4.2926
 30
0.0000
 41
0.7620
 42
1.4732
 43
1.0000
 50
0.0000
  0
INSERT
  8
29
  2
RECT
 10
0.4000
 20
4.2926
 30
0.0000
 41
0.7620
 42
1.4732
 43
1.0000
 50
0.0000
  0
INSERT
  8
29
  2
RECT
 10
-0.4000
 20
4.2926
 30
0.0000
 41
0.7620
 42
1.4732
 43
1.0000
 50
0.0000
  0
INSERT
  8
29
  2
RECT
 10
-1.2000
 20
4.2926
 30
0.0000
 41
0.7620
 42
1.4732
 43
1.0000
 50
0.0000
  0
INSERT
  8
29
  2
RECT
 10
-2.0000
 20
4.2926
 30
0.0000
 41
0.7620
 42
1.4732
 43
1.0000
 50
0.0000
  0
INSERT
  8
29
  2
RECT
 10
-2.8000
 20
4.2926
 30
0.0000
 41
0.7620
 42
1.4732
 43
1.0000
 50
0.0000
  0
INSERT
  8
29
  2
RECT
 10
-33.0600
 20
-13.1800
 30
0.0000
 41
1.0032
 42
0.4878
 43
1.0000
 50
180.0000
  0
INSERT
  8
29
  2
RECT
 10
-33.0600
 20
-12.6800
 30
0.0000
 41
1.0032
 42
0.4878
 43
1.0000
 50
180.0000
  0
INSERT
  8
29
  2
RECT
 10
-33.0600
 20
-12.1800
 30
0.0000
 41
1.0032
 42
0.4878
 43
1.0000
 50
180.0000
  0
INSERT
  8
29
  2
RECT
 10
-33.0600
 20
-11.6800
 30
0.0000
 41
1.0032
 42
0.4878
 43
1.0000
 50
180.0000
  0
INSERT
  8
29
  2
RECT
 10
-33.0600
 20
-11.1800
 30
0.0000
 41
1.0032
 42
0.4878
 43
1.0000
 50
180.0000
  0
INSERT
  8
29
  2
RECT
 10
-33.0600
 20
-10.6800
 30
0.0000
 41
1.0032
 42
0.4878
 43
1.0000
 50
180.0000
  0
INSERT
  8
29
  2
RECT
 10
-33.0600
 20
-10.1800
 30
0.0000
 41
1.0032
 42
0.4878
 43
1.0000
 50
180.0000
  0
INSERT
  8
29
  2
RECT
 10
-33.0600
 20
-9.6800
 30
0.0000
 41
1.0032
 42
0.4878
 43
1.0000
 50
180.0000
  0
INSERT
  8
29
  2
RECT
 10
-33.8100
 20
-8.9300
 30
0.0000
 41
1.0032
 42
0.4878
 43
1.0000
 50
270.0000
  0
INSERT
  8
29
  2
RECT
 10
-34.3100
 20
-8.9300
 30
0.0000
 41
1.0032
 42
0.4878
 43
1.0000
 50
270.0000
  0
INSERT
  8
29
  2
RECT
 10
-34.8100
 20
-8.9300
 30
0.0000
 41
1.0032
 42
0.4878
 43
1.0000
 50
270.0000
  0
INSERT
  8
29
  2
RECT
 10
-35.3100
 20
-8.9300
 30
0.0000
 41
1.0032
 42
0.4878
 43
1.0000
 50
270.0000
  0
INSERT
  8
29
  2
RECT
 10
-35.8100
 20
-8.9300
 30
0.0000
 41
1.0032
 42
0.4878
 43
1.0000
 50
270.0000
  0
INSERT
  8
29
  2
RECT
 10
-36.3100
 20
-8.9300
 30
0.0000
 41
1.0032
 42
0.4878
 43
1.0000
 50
270.0000
  0
INSERT
  8
29
  2
RECT
 10
-36.8100
 20
-8.9300
 30
0.0000
 41
1.0032
 42
0.4878
 43
1.0000
 50
270.0000
  0
INSERT
  8
29
  2
RECT
 10
-37.3100
 20
-8.9300
 30
0.0000
 41
1.0032
 42
0.4878
 43
1.0000
 50
270.0000
  0
INSERT
  8
29
  2
RECT
 10
-38.0600
 20
-9.6800
 30
0.0000
 41
1.0032
 42
0.4878
 43
1.0000
 50
0.0000
  0
INSERT
  8
29
  2
RECT
 10
-38.0600
 20
-10.1800
 30
0.0000
 41
1.0032
 42
0.4878
 43
1.0000
 50
0.0000
  0
INSERT
  8
29
  2
RECT
 10
-38.0600
 20
-10.6800
 30
0.0000
 41
1.0032
 42
0.4878
 43
1.0000
 50
0.0000
  0
INSERT
  8
29
  2
RECT
 10
-38.0600
 20
-11.1800
 30
0.0000
 41
1.0032
 42
0.4878
 43
1.0000
 50
0.0000
  0
INSERT
  8
29
  2
RECT
 10
-38.0600
 20
-11.6800
 30
0.0000
 41
1.0032
 42
0.4878
 43
1.0000
 50
0.0000
  0
INSERT
  8
29
  2
RECT
 10
-38.0600
 20
-12.1800
 30
0.0000
 41
1.0032
 42
0.4878
 43
1.0000
 50
0.0000
  0
INSERT
  8
29
  2
RECT
 10
-38.0600
 20
-12.6800
 30
0.0000
 41
1.0032
 42
0.4878
 43
1.0000
 50
0.0000
  0
INSERT
  8
29
  2
RECT
 10
-38.0600
 20
-13.1800
 30
0.0000
 41
1.0032
 42
0.4878
 43
1.0000
 50
0.0000
  0
INSERT
  8
29
  2
RECT
 10
-37.3100
 20
-13.9300
 30
0.0000
 41
1.0032
 42
0.4878
 43
1.0000
 50
90.0000
  0
INSERT
  8
29
  2
RECT
 10
-36.8100
 20
-13.9300
 30
0.0000
 41
1.0032
 42
0.4878
 43
1.0000
 50
90.0000
  0
INSERT
  8
29
  2
RECT
 10
-36.3100
 20
-13.9300
 30
0.0000
 41
1.0032
 42
0.4878
 43
1.0000
 50
90.0000
  0
INSERT
  8
29
  2
RECT
 10
-35.8100
 20
-13.9300
 30
0.0000
 41
1.0032
 42
0.4878
 43
1.0000
 50
90.0000
  0
INSERT
  8
29
  2
RECT
 10
-35.3100
 20
-13.9300
 30
0.0000
 41
1.0032
 42
0.4878
 43
1.0000
 50
90.0000
  0
INSERT
  8
29
  2
RECT
 10
-34.8100
 20
-13.9300
 30
0.0000
 41
1.0032
 42
0.4878
 43
1.0000
 50
90.0000
  0
INSERT
  8
29
  2
RECT
 10
-34.3100
 20
-13.9300
 30
0.0000
 41
1.0032
 42
0.4878
 43
1.0000
 50
90.0000
  0
INSERT
  8
29
  2
RECT
 10
-33.8100
 20
-13.9300
 30
0.0000
 41
1.0032
 42
0.4878
 43
1.0000
 50
90.0000
  0
INSERT
  8
29
  2
RECT
 10
-35.5600
 20
-11.4300
 30
0.0000
 41
3.3532
 42
3.3532
 43
1.0000
 50
90.0000
  0
INSERT
  8
29
  2
RECT
 10
13.4900
 20
-16.4700
 30
0.0000
 41
1.0032
 42
0.4878
 43
1.0000
 50
90.0000
  0
INSERT
  8
29
  2
RECT
 10
13.9900
 20
-16.4700
 30
0.0000
 41
1.0032
 42
0.4878
 43
1.0000
 50
90.0000
  0
INSERT
  8
29
  2
RECT
 10
14.4900
 20
-16.4700
 30
0.0000
 41
1.0032
 42
0.4878
 43
1.0000
 50
90.0000
  0
INSERT
  8
29
  2
RECT
 10
14.9900
 20
-16.4700
 30
0.0000
 41
1.0032
 42
0.4878
 43
1.0000
 50
90.0000
  0
INSERT
  8
29
  2
RECT
 10
15.4900
 20
-16.4700
 30
0.0000
 41
1.0032
 42
0.4878
 43
1.0000
 50
90.0000
  0
INSERT
  8
29
  2
RECT
 10
15.9900
 20
-16.4700
 30
0.0000
 41
1.0032
 42
0.4878
 43
1.0000
 50
90.0000
  0
INSERT
  8
29
  2
RECT
 10
16.4900
 20
-16.4700
 30
0.0000
 41
1.0032
 42
0.4878
 43
1.0000
 50
90.0000
  0
INSERT
  8
29
  2
RECT
 10
16.9900
 20
-16.4700
 30
0.0000
 41
1.0032
 42
0.4878
 43
1.0000
 50
90.0000
  0
INSERT
  8
29
  2
RECT
 10
17.7400
 20
-15.7200
 30
0.0000
 41
1.0032
 42
0.4878
 43
1.0000
 50
180.0000
  0
INSERT
  8
29
  2
RECT
 10
17.7400
 20
-15.2200
 30
0.0000
 41
1.0032
 42
0.4878
 43
1.0000
 50
180.0000
  0
INSERT
  8
29
  2
RECT
 10
17.7400
 20
-14.7200
 30
0.0000
 41
1.0032
 42
0.4878
 43
1.0000
 50
180.0000
  0
INSERT
  8
29
  2
RECT
 10
17.7400
 20
-14.2200
 30
0.0000
 41
1.0032
 42
0.4878
 43
1.0000
 50
180.0000
  0
INSERT
  8
29
  2
RECT
 10
17.7400
 20
-13.7200
 30
0.0000
 41
1.0032
 42
0.4878
 43
1.0000
 50
180.0000
  0
INSERT
  8
29
  2
RECT
 10
17.7400
 20
-13.2200
 30
0.0000
 41
1.0032
 42
0.4878
 43
1.0000
 50
180.0000
  0
INSERT
  8
29
  2
RECT
 10
17.7400
 20
-12.7200
 30
0.0000
 41
1.0032
 42
0.4878
 43
1.0000
 50
180.0000
  0
INSERT
  8
29
  2
RECT
 10
17.7400
 20
-12.2200
 30
0.0000
 41
1.0032
 42
0.4878
 43
1.0000
 50
180.0000
  0
INSERT
  8
29
  2
RECT
 10
16.9900
 20
-11.4700
 30
0.0000
 41
1.0032
 42
0.4878
 43
1.0000
 50
270.0000
  0
INSERT
  8
29
  2
RECT
 10
16.4900
 20
-11.4700
 30
0.0000
 41
1.0032
 42
0.4878
 43
1.0000
 50
270.0000
  0
INSERT
  8
29
  2
RECT
 10
15.9900
 20
-11.4700
 30
0.0000
 41
1.0032
 42
0.4878
 43
1.0000
 50
270.0000
  0
INSERT
  8
29
  2
RECT
 10
15.4900
 20
-11.4700
 30
0.0000
 41
1.0032
 42
0.4878
 43
1.0000
 50
270.0000
  0
INSERT
  8
29
  2
RECT
 10
14.9900
 20
-11.4700
 30
0.0000
 41
1.0032
 42
0.4878
 43
1.0000
 50
270.0000
  0
INSERT
  8
29
  2
RECT
 10
14.4900
 20
-11.4700
 30
0.0000
 41
1.0032
 42
0.4878
 43
1.0000
 50
270.0000
  0
INSERT
  8
29
  2
RECT
 10
13.9900
 20
-11.4700
 30
0.0000
 41
1.0032
 42
0.4878
 43
1.0000
 50
270.0000
  0
INSERT
  8
29
  2
RECT
 10
13.4900
 20
-11.4700
 30
0.0000
 41
1.0032
 42
0.4878
 43
1.0000
 50
270.0000
  0
INSERT
  8
29
  2
RECT
 10
12.7400
 20
-12.2200
 30
0.0000
 41
1.0032
 42
0.4878
 43
1.0000
 50
0.0000
  0
INSERT
  8
29
  2
RECT
 10
12.7400
 20
-12.7200
 30
0.0000
 41
1.0032
 42
0.4878
 43
1.0000
 50
0.0000
  0
INSERT
  8
29
  2
RECT
 10
12.7400
 20
-13.2200
 30
0.0000
 41
1.0032
 42
0.4878
 43
1.0000
 50
0.0000
  0
INSERT
  8
29
  2
RECT
 10
12.7400
 20
-13.7200
 30
0.0000
 41
1.0032
 42
0.4878
 43
1.0000
 50
0.0000
  0
INSERT
  8
29
  2
RECT
 10
12.7400
 20
-14.2200
 30
0.0000
 41
1.0032
 42
0.4878
 43
1.0000
 50
0.0000
  0
INSERT
  8
29
  2
RECT
 10
12.7400
 20
-14.7200
 30
0.0000
 41
1.0032
 42
0.4878
 43
1.0000
 50
0.0000
  0
INSERT
  8
29
  2
RECT
 10
12.7400
 20
-15.2200
 30
0.0000
 41
1.0032
 42
0.4878
 43
1.0000
 50
0.0000
  0
INSERT
  8
29
  2
RECT
 10
12.7400
 20
-15.7200
 30
0.0000
 41
1.0032
 42
0.4878
 43
1.0000
 50
0.0000
  0
INSERT
  8
29
  2
RECT
 10
15.2400
 20
-13.9700
 30
0.0000
 41
3.3532
 42
3.3532
 43
1.0000
 50
0.0000
  0
INSERT
  8
29
  2
ROUNDP
 10
33.0200
 20
24.1300
 30
0.0000
 41
1.2192
 42
1.2192
 43
1.0000
 50
90.0000
  0
INSERT
  8
29
  2
ROUNDP
 10
33.0200
 20
25.4000
 30
0.0000
 41
1.2192
 42
1.2192
 43
1.0000
 50
90.0000
  0
INSERT
  8
29
  2
ROUNDP
 10
33.0200
 20
26.6700
 30
0.0000
 41
1.2192
 42
1.2192
 43
1.0000
 50
90.0000
  0
INSERT
  8
29
  2
ROUNDP
 10
33.0200
 20
27.9400
 30
0.0000
 41
1.2192
 42
1.2192
 43
1.0000
 50
90.0000
  0
INSERT
  8
29
  2
ROUNDP
 10
33.0200
 20
29.2100
 30
0.0000
 41
1.2192
 42
1.2192
 43
1.0000
 50
90.0000
  0
INSERT
  8
29
  2
ROUNDP
 10
33.0200
 20
30.4800
 30
0.0000
 41
1.2192
 42
1.2192
 43
1.0000
 50
90.0000
  0
INSERT
  8
29
  2
OCTAGONP
 10
97.7900
 20
0.0000
 30
0.0000
 41
1.5240
 42
1.5240
 43
1.0000
 50
180.0000
  0
INSERT
  8
29
  2
OCTAGONP
 10
95.2500
 20
0.0000
 30
0.0000
 41
1.5240
 42
1.5240
 43
1.0000
 50
180.0000
  0
INSERT
  8
29
  2
OCTAGONP
 10
97.2547
 20
10.2216
 30
0.0000
 41
1.5240
 42
1.5240
 43
1.0000
 50
186.0000
  0
INSERT
  8
29
  2
OCTAGONP
 10
94.7286
 20
9.9561
 30
0.0000
 41
1.5240
 42
1.5240
 43
1.0000
 50
186.0000
  0
INSERT
  8
29
  2
OCTAGONP
 10
95.6540
 20
20.3325
 30
0.0000
 41
1.5240
 42
1.5240
 43
1.0000
 50
192.0000
  0
INSERT
  8
29
  2
OCTAGONP
 10
93.1695
 20
19.8044
 30
0.0000
 41
1.5240
 42
1.5240
 43
1.0000
 50
192.0000
  0
INSERT
  8
29
  2
OCTAGONP
 10
93.0034
 20
30.2196
 30
0.0000
 41
1.5240
 42
1.5240
 43
1.0000
 50
198.0000
  0
INSERT
  8
29
  2
OCTAGONP
 10
90.5877
 20
29.4347
 30
0.0000
 41
1.5240
 42
1.5240
 43
1.0000
 50
198.0000
  0
INSERT
  8
29
  2
OCTAGONP
 10
89.3363
 20
39.7747
 30
0.0000
 41
1.5240
 42
1.5240
 43
1.0000
 50
204.0000
  0
INSERT
  8
29
  2
OCTAGONP
 10
87.0158
 20
38.7416
 30
0.0000
 41
1.5240
 42
1.5240
 43
1.0000
 50
204.0000
  0
INSERT
  8
29
  2
OCTAGONP
 10
84.6887
 20
48.8950
 30
0.0000
 41
1.5240
 42
1.5240
 43
1.0000
 50
210.0000
  0
INSERT
  8
29
  2
OCTAGONP
 10
82.4890
 20
47.6250
 30
0.0000
 41
1.5240
 42
1.5240
 43
1.0000
 50
210.0000
  0
INSERT
  8
29
  2
OCTAGONP
 10
79.1146
 20
57.4798
 30
0.0000
 41
1.5240
 42
1.5240
 43
1.0000
 50
216.0000
  0
INSERT
  8
29
  2
OCTAGONP
 10
77.0597
 20
55.9869
 30
0.0000
 41
1.5240
 42
1.5240
 43
1.0000
 50
216.0000
  0
INSERT
  8
29
  2
OCTAGONP
 10
72.6733
 20
65.4343
 30
0.0000
 41
1.5240
 42
1.5240
 43
1.0000
 50
222.0000
  0
INSERT
  8
29
  2
OCTAGONP
 10
70.7858
 20
63.7348
 30
0.0000
 41
1.5240
 42
1.5240
 43
1.0000
 50
222.0000
  0
INSERT
  8
29
  2
OCTAGONP
 10
65.4343
 20
72.6733
 30
0.0000
 41
1.5240
 42
1.5240
 43
1.0000
 50
228.0000
  0
INSERT
  8
29
  2
OCTAGONP
 10
63.7348
 20
70.7858
 30
0.0000
 41
1.5240
 42
1.5240
 43
1.0000
 50
228.0000
  0
INSERT
  8
29
  2
OCTAGONP
 10
57.4798
 20
79.1146
 30
0.0000
 41
1.5240
 42
1.5240
 43
1.0000
 50
234.0000
  0
INSERT
  8
29
  2
OCTAGONP
 10
55.9869
 20
77.0597
 30
0.0000
 41
1.5240
 42
1.5240
 43
1.0000
 50
234.0000
  0
INSERT
  8
29
  2
OCTAGONP
 10
48.8950
 20
84.6887
 30
0.0000
 41
1.5240
 42
1.5240
 43
1.0000
 50
240.0000
  0
INSERT
  8
29
  2
OCTAGONP
 10
47.6250
 20
82.4890
 30
0.0000
 41
1.5240
 42
1.5240
 43
1.0000
 50
240.0000
  0
INSERT
  8
29
  2
OCTAGONP
 10
39.7747
 20
89.3363
 30
0.0000
 41
1.5240
 42
1.5240
 43
1.0000
 50
246.0000
  0
INSERT
  8
29
  2
OCTAGONP
 10
38.7416
 20
87.0158
 30
0.0000
 41
1.5240
 42
1.5240
 43
1.0000
 50
246.0000
  0
INSERT
  8
29
  2
OCTAGONP
 10
30.2196
 20
93.0034
 30
0.0000
 41
1.5240
 42
1.5240
 43
1.0000
 50
252.0000
  0
INSERT
  8
29
  2
OCTAGONP
 10
29.4347
 20
90.5877
 30
0.0000
 41
1.5240
 42
1.5240
 43
1.0000
 50
252.0000
  0
INSERT
  8
29
  2
OCTAGONP
 10
20.3325
 20
95.6540
 30
0.0000
 41
1.5240
 42
1.5240
 43
1.0000
 50
258.0000
  0
INSERT
  8
29
  2
OCTAGONP
 10
19.8044
 20
93.1695
 30
0.0000
 41
1.5240
 42
1.5240
 43
1.0000
 50
258.0000
  0
INSERT
  8
29
  2
OCTAGONP
 10
10.2216
 20
97.2547
 30
0.0000
 41
1.5240
 42
1.5240
 43
1.0000
 50
264.0000
  0
INSERT
  8
29
  2
OCTAGONP
 10
9.9561
 20
94.7286
 30
0.0000
 41
1.5240
 42
1.5240
 43
1.0000
 50
264.0000
  0
INSERT
  8
29
  2
OCTAGONP
 10
0.0000
 20
97.7900
 30
0.0000
 41
1.5240
 42
1.5240
 43
1.0000
 50
270.0000
  0
INSERT
  8
29
  2
OCTAGONP
 10
0.0000
 20
95.2500
 30
0.0000
 41
1.5240
 42
1.5240
 43
1.0000
 50
270.0000
  0
INSERT
  8
29
  2
OCTAGONP
 10
-10.2216
 20
97.2547
 30
0.0000
 41
1.5240
 42
1.5240
 43
1.0000
 50
276.0000
  0
INSERT
  8
29
  2
OCTAGONP
 10
-9.9561
 20
94.7286
 30
0.0000
 41
1.5240
 42
1.5240
 43
1.0000
 50
276.0000
  0
INSERT
  8
29
  2
OCTAGONP
 10
-20.3325
 20
95.6540
 30
0.0000
 41
1.5240
 42
1.5240
 43
1.0000
 50
282.0000
  0
INSERT
  8
29
  2
OCTAGONP
 10
-19.8044
 20
93.1695
 30
0.0000
 41
1.5240
 42
1.5240
 43
1.0000
 50
282.0000
  0
INSERT
  8
29
  2
OCTAGONP
 10
-30.2196
 20
93.0034
 30
0.0000
 41
1.5240
 42
1.5240
 43
1.0000
 50
288.0000
  0
INSERT
  8
29
  2
OCTAGONP
 10
-29.4347
 20
90.5877
 30
0.0000
 41
1.5240
 42
1.5240
 43
1.0000
 50
288.0000
  0
INSERT
  8
29
  2
OCTAGONP
 10
-39.7747
 20
89.3363
 30
0.0000
 41
1.5240
 42
1.5240
 43
1.0000
 50
294.0000
  0
INSERT
  8
29
  2
OCTAGONP
 10
-38.7416
 20
87.0158
 30
0.0000
 41
1.5240
 42
1.5240
 43
1.0000
 50
294.0000
  0
INSERT
  8
29
  2
OCTAGONP
 10
-48.8950
 20
84.6887
 30
0.0000
 41
1.5240
 42
1.5240
 43
1.0000
 50
300.0000
  0
INSERT
  8
29
  2
OCTAGONP
 10
-47.6250
 20
82.4890
 30
0.0000
 41
1.5240
 42
1.5240
 43
1.0000
 50
300.0000
  0
INSERT
  8
29
  2
OCTAGONP
 10
-57.4798
 20
79.1146
 30
0.0000
 41
1.5240
 42
1.5240
 43
1.0000
 50
306.0000
  0
INSERT
  8
29
  2
OCTAGONP
 10
-55.9869
 20
77.0597
 30
0.0000
 41
1.5240
 42
1.5240
 43
1.0000
 50
306.0000
  0
INSERT
  8
29
  2
OCTAGONP
 10
-65.4343
 20
72.6733
 30
0.0000
 41
1.5240
 42
1.5240
 43
1.0000
 50
312.0000
  0
INSERT
  8
29
  2
OCTAGONP
 10
-63.7348
 20
70.7858
 30
0.0000
 41
1.5240
 42
1.5240
 43
1.0000
 50
312.0000
  0
INSERT
  8
29
  2
OCTAGONP
 10
-72.6733
 20
65.4343
 30
0.0000
 41
1.5240
 42
1.5240
 43
1.0000
 50
318.0000
  0
INSERT
  8
29
  2
OCTAGONP
 10
-70.7858
 20
63.7348
 30
0.0000
 41
1.5240
 42
1.5240
 43
1.0000
 50
318.0000
  0
INSERT
  8
29
  2
OCTAGONP
 10
-79.1146
 20
57.4798
 30
0.0000
 41
1.5240
 42
1.5240
 43
1.0000
 50
324.0000
  0
INSERT
  8
29
  2
OCTAGONP
 10
-77.0597
 20
55.9869
 30
0.0000
 41
1.5240
 42
1.5240
 43
1.0000
 50
324.0000
  0
INSERT
  8
29
  2
OCTAGONP
 10
-84.6887
 20
48.8950
 30
0.0000
 41
1.5240
 42
1.5240
 43
1.0000
 50
330.0000
  0
INSERT
  8
29
  2
OCTAGONP
 10
-82.4890
 20
47.6250
 30
0.0000
 41
1.5240
 42
1.5240
 43
1.0000
 50
330.0000
  0
INSERT
  8
29
  2
OCTAGONP
 10
-89.3363
 20
39.7747
 30
0.0000
 41
1.5240
 42
1.5240
 43
1.0000
 50
336.0000
  0
INSERT
  8
29
  2
OCTAGONP
 10
-87.0158
 20
38.7416
 30
0.0000
 41
1.5240
 42
1.5240
 43
1.0000
 50
336.0000
  0
INSERT
  8
29
  2
OCTAGONP
 10
-93.0034
 20
30.2196
 30
0.0000
 41
1.5240
 42
1.5240
 43
1.0000
 50
342.0000
  0
INSERT
  8
29
  2
OCTAGONP
 10
-90.5877
 20
29.4347
 30
0.0000
 41
1.5240
 42
1.5240
 43
1.0000
 50
342.0000
  0
INSERT
  8
29
  2
OCTAGONP
 10
-95.6540
 20
20.3325
 30
0.0000
 41
1.5240
 42
1.5240
 43
1.0000
 50
348.0000
  0
INSERT
  8
29
  2
OCTAGONP
 10
-93.1695
 20
19.8044
 30
0.0000
 41
1.5240
 42
1.5240
 43
1.0000
 50
348.0000
  0
INSERT
  8
29
  2
OCTAGONP
 10
-97.2547
 20
10.2216
 30
0.0000
 41
1.5240
 42
1.5240
 43
1.0000
 50
354.0000
  0
INSERT
  8
29
  2
OCTAGONP
 10
-94.7286
 20
9.9561
 30
0.0000
 41
1.5240
 42
1.5240
 43
1.0000
 50
354.0000
  0
INSERT
  8
29
  2
OCTAGONP
 10
-97.7900
 20
0.0000
 30
0.0000
 41
1.5240
 42
1.5240
 43
1.0000
 50
0.0000
  0
INSERT
  8
29
  2
OCTAGONP
 10
-95.2500
 20
0.0000
 30
0.0000
 41
1.5240
 42
1.5240
 43
1.0000
 50
0.0000
  0
INSERT
  8
29
  2
OCTAGONP
 10
-97.2547
 20
-10.2216
 30
0.0000
 41
1.5240
 42
1.5240
 43
1.0000
 50
6.0000
  0
INSERT
  8
29
  2
OCTAGONP
 10
-94.7286
 20
-9.9561
 30
0.0000
 41
1.5240
 42
1.5240
 43
1.0000
 50
6.0000
  0
INSERT
  8
29
  2
OCTAGONP
 10
-95.6540
 20
-20.3325
 30
0.0000
 41
1.5240
 42
1.5240
 43
1.0000
 50
12.0000
  0
INSERT
  8
29
  2
OCTAGONP
 10
-93.1695
 20
-19.8044
 30
0.0000
 41
1.5240
 42
1.5240
 43
1.0000
 50
12.0000
  0
INSERT
  8
29
  2
OCTAGONP
 10
-93.0034
 20
-30.2196
 30
0.0000
 41
1.5240
 42
1.5240
 43
1.0000
 50
18.0000
  0
INSERT
  8
29
  2
OCTAGONP
 10
-90.5877
 20
-29.4347
 30
0.0000
 41
1.5240
 42
1.5240
 43
1.0000
 50
18.0000
  0
INSERT
  8
29
  2
OCTAGONP
 10
-89.3363
 20
-39.7747
 30
0.0000
 41
1.5240
 42
1.5240
 43
1.0000
 50
24.0000
  0
INSERT
  8
29
  2
OCTAGONP
 10
-87.0158
 20
-38.7416
 30
0.0000
 41
1.5240
 42
1.5240
 43
1.0000
 50
24.0000
  0
INSERT
  8
29
  2
OCTAGONP
 10
-84.6887
 20
-48.8950
 30
0.0000
 41
1.5240
 42
1.5240
 43
1.0000
 50
30.0000
  0
INSERT
  8
29
  2
OCTAGONP
 10
-82.4890
 20
-47.6250
 30
0.0000
 41
1.5240
 42
1.5240
 43
1.0000
 50
30.0000
  0
INSERT
  8
29
  2
OCTAGONP
 10
-79.1146
 20
-57.4798
 30
0.0000
 41
1.5240
 42
1.5240
 43
1.0000
 50
36.0000
  0
INSERT
  8
29
  2
OCTAGONP
 10
-77.0597
 20
-55.9869
 30
0.0000
 41
1.5240
 42
1.5240
 43
1.0000
 50
36.0000
  0
INSERT
  8
29
  2
OCTAGONP
 10
-72.6733
 20
-65.4343
 30
0.0000
 41
1.5240
 42
1.5240
 43
1.0000
 50
42.0000
  0
INSERT
  8
29
  2
OCTAGONP
 10
-70.7858
 20
-63.7348
 30
0.0000
 41
1.5240
 42
1.5240
 43
1.0000
 50
42.0000
  0
INSERT
  8
29
  2
OCTAGONP
 10
-65.4343
 20
-72.6733
 30
0.0000
 41
1.5240
 42
1.5240
 43
1.0000
 50
48.0000
  0
INSERT
  8
29
  2
OCTAGONP
 10
-63.7348
 20
-70.7858
 30
0.0000
 41
1.5240
 42
1.5240
 43
1.0000
 50
48.0000
  0
INSERT
  8
29
  2
OCTAGONP
 10
-57.4798
 20
-79.1146
 30
0.0000
 41
1.5240
 42
1.5240
 43
1.0000
 50
54.0000
  0
INSERT
  8
29
  2
OCTAGONP
 10
-55.9869
 20
-77.0597
 30
0.0000
 41
1.5240
 42
1.5240
 43
1.0000
 50
54.0000
  0
INSERT
  8
29
  2
OCTAGONP
 10
-48.8950
 20
-84.6887
 30
0.0000
 41
1.5240
 42
1.5240
 43
1.0000
 50
60.0000
  0
INSERT
  8
29
  2
OCTAGONP
 10
-47.6250
 20
-82.4890
 30
0.0000
 41
1.5240
 42
1.5240
 43
1.0000
 50
60.0000
  0
INSERT
  8
29
  2
OCTAGONP
 10
-39.7747
 20
-89.3363
 30
0.0000
 41
1.5240
 42
1.5240
 43
1.0000
 50
66.0000
  0
INSERT
  8
29
  2
OCTAGONP
 10
-38.7416
 20
-87.0158
 30
0.0000
 41
1.5240
 42
1.5240
 43
1.0000
 50
66.0000
  0
INSERT
  8
29
  2
OCTAGONP
 10
-30.2196
 20
-93.0034
 30
0.0000
 41
1.5240
 42
1.5240
 43
1.0000
 50
72.0000
  0
INSERT
  8
29
  2
OCTAGONP
 10
-29.4347
 20
-90.5877
 30
0.0000
 41
1.5240
 42
1.5240
 43
1.0000
 50
72.0000
  0
INSERT
  8
29
  2
OCTAGONP
 10
-20.3325
 20
-95.6540
 30
0.0000
 41
1.5240
 42
1.5240
 43
1.0000
 50
78.0000
  0
INSERT
  8
29
  2
OCTAGONP
 10
-19.8044
 20
-93.1695
 30
0.0000
 41
1.5240
 42
1.5240
 43
1.0000
 50
78.0000
  0
INSERT
  8
29
  2
OCTAGONP
 10
-10.2216
 20
-97.2547
 30
0.0000
 41
1.5240
 42
1.5240
 43
1.0000
 50
84.0000
  0
INSERT
  8
29
  2
OCTAGONP
 10
-9.9561
 20
-94.7286
 30
0.0000
 41
1.5240
 42
1.5240
 43
1.0000
 50
84.0000
  0
INSERT
  8
29
  2
OCTAGONP
 10
0.0000
 20
-97.7900
 30
0.0000
 41
1.5240
 42
1.5240
 43
1.0000
 50
90.0000
  0
INSERT
  8
29
  2
OCTAGONP
 10
0.0000
 20
-95.2500
 30
0.0000
 41
1.5240
 42
1.5240
 43
1.0000
 50
90.0000
  0
INSERT
  8
29
  2
OCTAGONP
 10
10.2216
 20
-97.2547
 30
0.0000
 41
1.5240
 42
1.5240
 43
1.0000
 50
96.0000
  0
INSERT
  8
29
  2
OCTAGONP
 10
9.9561
 20
-94.7286
 30
0.0000
 41
1.5240
 42
1.5240
 43
1.0000
 50
96.0000
  0
INSERT
  8
29
  2
OCTAGONP
 10
20.3325
 20
-95.6540
 30
0.0000
 41
1.5240
 42
1.5240
 43
1.0000
 50
102.0000
  0
INSERT
  8
29
  2
OCTAGONP
 10
19.8044
 20
-93.1695
 30
0.0000
 41
1.5240
 42
1.5240
 43
1.0000
 50
102.0000
  0
INSERT
  8
29
  2
OCTAGONP
 10
30.2196
 20
-93.0034
 30
0.0000
 41
1.5240
 42
1.5240
 43
1.0000
 50
108.0000
  0
INSERT
  8
29
  2
OCTAGONP
 10
29.4347
 20
-90.5877
 30
0.0000
 41
1.5240
 42
1.5240
 43
1.0000
 50
108.0000
  0
INSERT
  8
29
  2
OCTAGONP
 10
39.7747
 20
-89.3363
 30
0.0000
 41
1.5240
 42
1.5240
 43
1.0000
 50
114.0000
  0
INSERT
  8
29
  2
OCTAGONP
 10
38.7416
 20
-87.0158
 30
0.0000
 41
1.5240
 42
1.5240
 43
1.0000
 50
114.0000
  0
INSERT
  8
29
  2
OCTAGONP
 10
48.8950
 20
-84.6887
 30
0.0000
 41
1.5240
 42
1.5240
 43
1.0000
 50
120.0000
  0
INSERT
  8
29
  2
OCTAGONP
 10
47.6250
 20
-82.4890
 30
0.0000
 41
1.5240
 42
1.5240
 43
1.0000
 50
120.0000
  0
INSERT
  8
29
  2
OCTAGONP
 10
57.4798
 20
-79.1146
 30
0.0000
 41
1.5240
 42
1.5240
 43
1.0000
 50
126.0000
  0
INSERT
  8
29
  2
OCTAGONP
 10
55.9869
 20
-77.0597
 30
0.0000
 41
1.5240
 42
1.5240
 43
1.0000
 50
126.0000
  0
INSERT
  8
29
  2
OCTAGONP
 10
65.4343
 20
-72.6733
 30
0.0000
 41
1.5240
 42
1.5240
 43
1.0000
 50
132.0000
  0
INSERT
  8
29
  2
OCTAGONP
 10
63.7348
 20
-70.7858
 30
0.0000
 41
1.5240
 42
1.5240
 43
1.0000
 50
132.0000
  0
INSERT
  8
29
  2
OCTAGONP
 10
72.6733
 20
-65.4343
 30
0.0000
 41
1.5240
 42
1.5240
 43
1.0000
 50
138.0000
  0
INSERT
  8
29
  2
OCTAGONP
 10
70.7858
 20
-63.7348
 30
0.0000
 41
1.5240
 42
1.5240
 43
1.0000
 50
138.0000
  0
INSERT
  8
29
  2
OCTAGONP
 10
79.1146
 20
-57.4798
 30
0.0000
 41
1.5240
 42
1.5240
 43
1.0000
 50
144.0000
  0
INSERT
  8
29
  2
OCTAGONP
 10
77.0597
 20
-55.9869
 30
0.0000
 41
1.5240
 42
1.5240
 43
1.0000
 50
144.0000
  0
INSERT
  8
29
  2
OCTAGONP
 10
84.6887
 20
-48.8950
 30
0.0000
 41
1.5240
 42
1.5240
 43
1.0000
 50
150.0000
  0
INSERT
  8
29
  2
OCTAGONP
 10
82.4890
 20
-47.6250
 30
0.0000
 41
1.5240
 42
1.5240
 43
1.0000
 50
150.0000
  0
INSERT
  8
29
  2
OCTAGONP
 10
89.4461
 20
-39.2582
 30
0.0000
 41
1.5240
 42
1.5240
 43
1.0000
 50
180.0000
  0
INSERT
  8
29
  2
OCTAGONP
 10
86.9061
 20
-39.2582
 30
0.0000
 41
1.5240
 42
1.5240
 43
1.0000
 50
180.0000
  0
INSERT
  8
29
  2
OCTAGONP
 10
93.0656
 20
-29.8272
 30
0.0000
 41
1.5240
 42
1.5240
 43
1.0000
 50
180.0000
  0
INSERT
  8
29
  2
OCTAGONP
 10
90.5256
 20
-29.8272
 30
0.0000
 41
1.5240
 42
1.5240
 43
1.0000
 50
180.0000
  0
INSERT
  8
29
  2
OCTAGONP
 10
95.6818
 20
-20.0685
 30
0.0000
 41
1.5240
 42
1.5240
 43
1.0000
 50
180.0000
  0
INSERT
  8
29
  2
OCTAGONP
 10
93.1418
 20
-20.0685
 30
0.0000
 41
1.5240
 42
1.5240
 43
1.0000
 50
180.0000
  0
INSERT
  8
29
  2
OCTAGONP
 10
97.2547
 20
-10.2216
 30
0.0000
 41
1.5240
 42
1.5240
 43
1.0000
 50
174.0000
  0
INSERT
  8
29
  2
OCTAGONP
 10
94.7286
 20
-9.9561
 30
0.0000
 41
1.5240
 42
1.5240
 43
1.0000
 50
174.0000
  0
INSERT
  8
29
  2
ROUNDP
 10
38.1000
 20
24.1300
 30
0.0000
 41
1.2192
 42
1.2192
 43
1.0000
 50
90.0000
  0
INSERT
  8
29
  2
ROUNDP
 10
38.1000
 20
25.4000
 30
0.0000
 41
1.2192
 42
1.2192
 43
1.0000
 50
90.0000
  0
INSERT
  8
29
  2
ROUNDP
 10
38.1000
 20
26.6700
 30
0.0000
 41
1.2192
 42
1.2192
 43
1.0000
 50
90.0000
  0
INSERT
  8
29
  2
ROUNDP
 10
38.1000
 20
27.9400
 30
0.0000
 41
1.2192
 42
1.2192
 43
1.0000
 50
90.0000
  0
INSERT
  8
29
  2
ROUNDP
 10
38.1000
 20
29.2100
 30
0.0000
 41
1.2192
 42
1.2192
 43
1.0000
 50
90.0000
  0
INSERT
  8
29
  2
ROUNDP
 10
38.1000
 20
30.4800
 30
0.0000
 41
1.2192
 42
1.2192
 43
1.0000
 50
90.0000
  0
INSERT
  8
29
  2
RECT
 10
-28.8900
 20
5.0800
 30
0.0000
 41
1.5032
 42
1.7032
 43
1.0000
 50
0.0000
  0
INSERT
  8
29
  2
RECT
 10
-26.9900
 20
5.0800
 30
0.0000
 41
1.5032
 42
1.7032
 43
1.0000
 50
0.0000
  0
INSERT
  8
29
  2
RECT
 10
-28.8900
 20
2.5400
 30
0.0000
 41
1.5032
 42
1.7032
 43
1.0000
 50
0.0000
  0
INSERT
  8
29
  2
RECT
 10
-26.9900
 20
2.5400
 30
0.0000
 41
1.5032
 42
1.7032
 43
1.0000
 50
0.0000
  0
INSERT
  8
29
  2
RECT
 10
-28.8900
 20
-12.7000
 30
0.0000
 41
1.5032
 42
1.7032
 43
1.0000
 50
0.0000
  0
INSERT
  8
29
  2
RECT
 10
-26.9900
 20
-12.7000
 30
0.0000
 41
1.5032
 42
1.7032
 43
1.0000
 50
0.0000
  0
INSERT
  8
29
  2
RECT
 10
20.3200
 20
4.4450
 30
0.0000
 41
0.9652
 42
1.7272
 43
1.0000
 50
90.0000
  0
INSERT
  8
29
  2
RECT
 10
25.4000
 20
4.4450
 30
0.0000
 41
0.9652
 42
1.7272
 43
1.0000
 50
90.0000
  0
INSERT
  8
29
  2
RECT
 10
20.3200
 20
0.6350
 30
0.0000
 41
0.9652
 42
1.7272
 43
1.0000
 50
90.0000
  0
INSERT
  8
29
  2
RECT
 10
25.4000
 20
0.6350
 30
0.0000
 41
0.9652
 42
1.7272
 43
1.0000
 50
90.0000
  0
INSERT
  8
29
  2
RECT
 10
25.4000
 20
12.0650
 30
0.0000
 41
0.9652
 42
1.7272
 43
1.0000
 50
270.0000
  0
INSERT
  8
29
  2
RECT
 10
20.3200
 20
12.0650
 30
0.0000
 41
0.9652
 42
1.7272
 43
1.0000
 50
270.0000
  0
INSERT
  8
29
  2
RECT
 10
25.4000
 20
15.8750
 30
0.0000
 41
0.9652
 42
1.7272
 43
1.0000
 50
270.0000
  0
INSERT
  8
29
  2
RECT
 10
20.3200
 20
15.8750
 30
0.0000
 41
0.9652
 42
1.7272
 43
1.0000
 50
270.0000
  0
INSERT
  8
29
  2
LONGP100
 10
13.9700
 20
-7.6200
 30
0.0000
 41
1.7272
 42
1.7272
 43
1.0000
 50
180.0000
  0
INSERT
  8
29
  2
LONGP100
 10
13.9700
 20
-5.0800
 30
0.0000
 41
1.7272
 42
1.7272
 43
1.0000
 50
180.0000
  0
INSERT
  8
29
  2
LONGP100
 10
13.9700
 20
-2.5400
 30
0.0000
 41
1.7272
 42
1.7272
 43
1.0000
 50
180.0000
  0
INSERT
  8
29
  2
LONGP100
 10
13.9700
 20
0.0000
 30
0.0000
 41
1.7272
 42
1.7272
 43
1.0000
 50
180.0000
  0
INSERT
  8
29
  2
LONGP100
 10
13.9700
 20
2.5400
 30
0.0000
 41
1.7272
 42
1.7272
 43
1.0000
 50
180.0000
  0
INSERT
  8
29
  2
LONGP100
 10
13.9700
 20
5.0800
 30
0.0000
 41
1.7272
 42
1.7272
 43
1.0000
 50
180.0000
  0
INSERT
  8
29
  2
RECT
 10
-6.4770
 20
-6.3500
 30
0.0000
 41
2.4892
 42
2.2352
 43
1.0000
 50
180.0000
  0
INSERT
  8
29
  2
RECT
 10
-11.3030
 20
-6.3500
 30
0.0000
 41
2.4892
 42
2.2352
 43
1.0000
 50
180.0000
  0
ENDSEC
  0
EOF
