%
M48
M72
T01C0.0320
T02C0.0400
%
T01
X14788Y4188
X19688Y4188
X20688Y9188
X21188Y14688
X23670Y15190
X20188Y18188
X18488Y20088
X17688Y20088
X16888Y20288
X15688Y21688
X14688Y20888
X13688Y20688
X12288Y20588
X12188Y19688
X11188Y19688
X14988Y15488
X14888Y14888
X16888Y15888
X17488Y15688
X17288Y17288
X17088Y17888
X16688Y18288
X17688Y27688
X16888Y28488
X18688Y28688
X28688Y18688
X27988Y18088
X27188Y17688
X27188Y10188
T02
X25688Y13688
X25688Y14688
M30
