G75*
G70*
%OFA0B0*%
%FSLAX24Y24*%
%IPPOS*%
%LPD*%
%AMOC8*
5,1,8,0,0,1.08239X$1,22.5*
%
%ADD10C,0.0984*%
%ADD11C,0.0160*%
%ADD12C,0.0480*%
%ADD13C,0.0080*%
D10*
X010708Y017688D03*
X025669Y017688D03*
D11*
X027947Y007541D02*
X007436Y007541D01*
X007599Y007383D02*
X027800Y007383D01*
X027771Y007351D02*
X026691Y006399D01*
X025523Y005558D01*
X024276Y004838D01*
X022964Y004246D01*
X021599Y003788D01*
X020196Y003468D01*
X018767Y003289D01*
X017328Y003253D01*
X015893Y003360D01*
X014475Y003610D01*
X013089Y004000D01*
X011749Y004526D01*
X010468Y005183D01*
X009259Y005964D01*
X008133Y006861D01*
X007103Y007866D01*
X006178Y008969D01*
X005367Y010159D01*
X004678Y011423D01*
X004119Y012749D01*
X003695Y014125D01*
X003409Y015536D01*
X003266Y016968D01*
X003266Y018408D01*
X003409Y019840D01*
X003695Y021251D01*
X004119Y022627D01*
X004678Y023953D01*
X005367Y025218D01*
X006178Y026407D01*
X007103Y027510D01*
X008133Y028515D01*
X009259Y029413D01*
X010468Y030194D01*
X011749Y030850D01*
X013089Y031376D01*
X014475Y031766D01*
X015893Y032016D01*
X017328Y032124D01*
X018767Y032088D01*
X020196Y031909D01*
X021599Y031588D01*
X022964Y031130D01*
X024276Y030538D01*
X025523Y029818D01*
X026691Y028978D01*
X027771Y028025D01*
X028750Y026970D01*
X029619Y025823D01*
X030370Y024594D01*
X030994Y023297D01*
X031487Y021944D01*
X031842Y020549D01*
X032056Y019126D01*
X032128Y017688D01*
X028068Y017688D01*
X028215Y017749D01*
X028327Y017862D01*
X028388Y018009D01*
X028388Y018168D01*
X028327Y018315D01*
X028215Y018427D01*
X028068Y018488D01*
X027909Y018488D01*
X027882Y018477D01*
X027471Y018888D01*
X027305Y018888D01*
X023271Y018888D01*
X023171Y018988D01*
X023271Y018988D01*
X027605Y018988D01*
X028105Y018488D01*
X028271Y018488D01*
X028338Y018488D01*
X028349Y018462D01*
X028462Y018349D01*
X028609Y018288D01*
X028768Y018288D01*
X028915Y018349D01*
X029027Y018462D01*
X029088Y018609D01*
X029088Y018768D01*
X029027Y018915D01*
X028915Y019027D01*
X028768Y019088D01*
X028609Y019088D01*
X028462Y019027D01*
X028349Y018915D01*
X028338Y018888D01*
X028271Y018888D01*
X027888Y019271D01*
X027771Y019388D01*
X023271Y019388D01*
X023088Y019571D01*
X022971Y019688D01*
X016571Y019688D01*
X015888Y020371D01*
X015888Y021338D01*
X015915Y021349D01*
X016027Y021462D01*
X016088Y021609D01*
X016088Y021768D01*
X016027Y021915D01*
X015915Y022027D01*
X015768Y022088D01*
X015609Y022088D01*
X015462Y022027D01*
X015349Y021915D01*
X015288Y021768D01*
X015288Y021609D01*
X015349Y021462D01*
X015462Y021349D01*
X015488Y021338D01*
X015488Y020371D01*
X015077Y020782D01*
X015088Y020809D01*
X015088Y020968D01*
X015027Y021115D01*
X014915Y021227D01*
X014768Y021288D01*
X014609Y021288D01*
X014462Y021227D01*
X014349Y021115D01*
X014288Y020968D01*
X014288Y020809D01*
X014349Y020662D01*
X014462Y020549D01*
X014609Y020488D01*
X014768Y020488D01*
X014794Y020499D01*
X016205Y019088D01*
X015071Y019088D01*
X013888Y020271D01*
X013888Y020338D01*
X013915Y020349D01*
X014027Y020462D01*
X014088Y020609D01*
X014088Y020768D01*
X014027Y020915D01*
X013915Y021027D01*
X013768Y021088D01*
X013609Y021088D01*
X013462Y021027D01*
X013349Y020915D01*
X013288Y020768D01*
X013288Y020609D01*
X013349Y020462D01*
X013462Y020349D01*
X013488Y020338D01*
X013488Y020105D01*
X013605Y019988D01*
X014905Y018688D01*
X015071Y018688D01*
X022005Y018688D01*
X022405Y018288D01*
X022571Y018288D01*
X025413Y018288D01*
X025299Y018241D01*
X025116Y018058D01*
X025016Y017818D01*
X025016Y017558D01*
X025116Y017319D01*
X025116Y017318D01*
X023574Y015390D01*
X015107Y015390D01*
X014994Y015277D01*
X014968Y015288D01*
X014809Y015288D01*
X014662Y015227D01*
X014549Y015115D01*
X014488Y014968D01*
X014488Y014809D01*
X014549Y014662D01*
X014662Y014549D01*
X014809Y014488D01*
X014968Y014488D01*
X015115Y014549D01*
X015227Y014662D01*
X015288Y014809D01*
X015288Y014968D01*
X015279Y014990D01*
X020924Y014990D01*
X020849Y014915D01*
X020788Y014768D01*
X020788Y014609D01*
X020849Y014462D01*
X020962Y014349D01*
X020988Y014338D01*
X020988Y009771D01*
X020794Y009577D01*
X020768Y009588D01*
X020609Y009588D01*
X020462Y009527D01*
X020349Y009415D01*
X020288Y009268D01*
X020288Y009109D01*
X020349Y008962D01*
X020462Y008849D01*
X020609Y008788D01*
X020768Y008788D01*
X020915Y008849D01*
X021027Y008962D01*
X021088Y009109D01*
X021088Y009268D01*
X021077Y009294D01*
X021388Y009605D01*
X021388Y009771D01*
X021388Y014338D01*
X021415Y014349D01*
X021527Y014462D01*
X021588Y014609D01*
X021588Y014768D01*
X021527Y014915D01*
X021452Y014990D01*
X023600Y014990D01*
X023610Y014982D01*
X023681Y014990D01*
X023753Y014990D01*
X023762Y014999D01*
X023774Y015000D01*
X023819Y015056D01*
X023870Y015107D01*
X023870Y015120D01*
X025437Y017078D01*
X025539Y017036D01*
X025798Y017036D01*
X026038Y017135D01*
X026221Y017319D01*
X026321Y017558D01*
X026321Y017818D01*
X026221Y018058D01*
X026038Y018241D01*
X025924Y018288D01*
X026605Y018288D01*
X026914Y017980D01*
X026849Y017915D01*
X026788Y017768D01*
X026788Y017609D01*
X026849Y017462D01*
X026962Y017349D01*
X027109Y017288D01*
X027268Y017288D01*
X027415Y017349D01*
X027527Y017462D01*
X027588Y017609D01*
X027588Y017768D01*
X027527Y017915D01*
X027415Y018027D01*
X027388Y018038D01*
X027388Y018071D01*
X026971Y018488D01*
X027305Y018488D01*
X027599Y018194D01*
X027588Y018168D01*
X027588Y018009D01*
X027649Y017862D01*
X027762Y017749D01*
X027909Y017688D01*
X027588Y017688D01*
X027555Y017530D02*
X032120Y017530D01*
X032128Y017688D02*
X032056Y016250D01*
X031842Y014827D01*
X031487Y013432D01*
X030994Y012079D01*
X030370Y010782D01*
X029619Y009554D01*
X028750Y008406D01*
X027771Y007351D01*
X027627Y007224D02*
X007761Y007224D01*
X007924Y007066D02*
X027448Y007066D01*
X027268Y006907D02*
X008086Y006907D01*
X008275Y006749D02*
X027088Y006749D01*
X026909Y006590D02*
X008473Y006590D01*
X008672Y006432D02*
X026729Y006432D01*
X026517Y006273D02*
X008871Y006273D01*
X009070Y006115D02*
X026296Y006115D01*
X026076Y005956D02*
X009271Y005956D01*
X009516Y005797D02*
X025855Y005797D01*
X025635Y005639D02*
X009762Y005639D01*
X010007Y005480D02*
X025388Y005480D01*
X025113Y005322D02*
X010253Y005322D01*
X010506Y005163D02*
X024839Y005163D01*
X024564Y005005D02*
X010815Y005005D01*
X011125Y004846D02*
X024289Y004846D01*
X023942Y004688D02*
X011434Y004688D01*
X011743Y004529D02*
X014566Y004529D01*
X014562Y004527D02*
X014449Y004415D01*
X014388Y004268D01*
X014388Y004109D01*
X014449Y003962D01*
X014562Y003849D01*
X014709Y003788D01*
X014868Y003788D01*
X015015Y003849D01*
X015127Y003962D01*
X015138Y003988D01*
X019338Y003988D01*
X019349Y003962D01*
X019462Y003849D01*
X019609Y003788D01*
X019768Y003788D01*
X019915Y003849D01*
X020027Y003962D01*
X020088Y004109D01*
X020088Y004268D01*
X020027Y004415D01*
X019915Y004527D01*
X019768Y004588D01*
X019609Y004588D01*
X019462Y004527D01*
X019349Y004415D01*
X019338Y004388D01*
X015138Y004388D01*
X015127Y004415D01*
X015015Y004527D01*
X014868Y004588D01*
X014709Y004588D01*
X014562Y004527D01*
X014431Y004371D02*
X012145Y004371D01*
X012549Y004212D02*
X014388Y004212D01*
X014411Y004053D02*
X012953Y004053D01*
X013463Y003895D02*
X014516Y003895D01*
X014659Y003578D02*
X020679Y003578D01*
X021374Y003736D02*
X014026Y003736D01*
X015061Y003895D02*
X019416Y003895D01*
X019466Y004529D02*
X015010Y004529D01*
X015558Y003419D02*
X019811Y003419D01*
X019961Y003895D02*
X021918Y003895D01*
X022390Y004053D02*
X020065Y004053D01*
X020088Y004212D02*
X022862Y004212D01*
X023239Y004371D02*
X020046Y004371D01*
X019910Y004529D02*
X023590Y004529D01*
X020820Y008810D02*
X029055Y008810D01*
X028935Y008651D02*
X006444Y008651D01*
X006311Y008810D02*
X020556Y008810D01*
X020346Y008968D02*
X006178Y008968D01*
X006070Y009127D02*
X020288Y009127D01*
X020296Y009285D02*
X005962Y009285D01*
X005854Y009444D02*
X020378Y009444D01*
X020820Y009602D02*
X005746Y009602D01*
X005638Y009761D02*
X020978Y009761D01*
X020988Y009920D02*
X005530Y009920D01*
X005422Y010078D02*
X020988Y010078D01*
X020988Y010237D02*
X005324Y010237D01*
X005238Y010395D02*
X020988Y010395D01*
X020988Y010554D02*
X005151Y010554D01*
X005065Y010712D02*
X020988Y010712D01*
X020988Y010871D02*
X004979Y010871D01*
X004892Y011029D02*
X020988Y011029D01*
X020988Y011188D02*
X004806Y011188D01*
X004720Y011346D02*
X020988Y011346D01*
X020988Y011505D02*
X004644Y011505D01*
X004577Y011664D02*
X020988Y011664D01*
X020988Y011822D02*
X004510Y011822D01*
X004443Y011981D02*
X020988Y011981D01*
X020988Y012139D02*
X004376Y012139D01*
X004309Y012298D02*
X020988Y012298D01*
X020988Y012456D02*
X004243Y012456D01*
X004176Y012615D02*
X020988Y012615D01*
X020988Y012773D02*
X004112Y012773D01*
X004063Y012932D02*
X020988Y012932D01*
X020988Y013090D02*
X004014Y013090D01*
X003965Y013249D02*
X020988Y013249D01*
X020988Y013408D02*
X003916Y013408D01*
X003867Y013566D02*
X020988Y013566D01*
X020988Y013725D02*
X003818Y013725D01*
X003769Y013883D02*
X020988Y013883D01*
X020988Y014042D02*
X003720Y014042D01*
X003679Y014200D02*
X020988Y014200D01*
X020952Y014359D02*
X003647Y014359D01*
X003615Y014517D02*
X014738Y014517D01*
X014543Y014676D02*
X003583Y014676D01*
X003551Y014834D02*
X014488Y014834D01*
X014499Y014993D02*
X003519Y014993D01*
X003487Y015151D02*
X014586Y015151D01*
X015027Y015310D02*
X003455Y015310D01*
X003423Y015469D02*
X023637Y015469D01*
X023764Y015627D02*
X017193Y015627D01*
X017227Y015662D02*
X017288Y015809D01*
X017288Y015968D01*
X017280Y015988D01*
X019771Y015988D01*
X019888Y016105D01*
X020388Y016605D01*
X020388Y016771D01*
X020388Y017838D01*
X020415Y017849D01*
X020527Y017962D01*
X020588Y018109D01*
X020588Y018268D01*
X020527Y018415D01*
X020415Y018527D01*
X020268Y018588D01*
X020109Y018588D01*
X019962Y018527D01*
X019849Y018415D01*
X019788Y018268D01*
X019788Y018109D01*
X019849Y017962D01*
X019962Y017849D01*
X019988Y017838D01*
X019988Y016771D01*
X019605Y016388D01*
X017271Y016388D01*
X017105Y016388D01*
X016994Y016277D01*
X016968Y016288D01*
X016809Y016288D01*
X016662Y016227D01*
X016549Y016115D01*
X016488Y015968D01*
X016488Y015809D01*
X016549Y015662D01*
X016662Y015549D01*
X016809Y015488D01*
X016968Y015488D01*
X017115Y015549D01*
X017227Y015662D01*
X017279Y015786D02*
X023891Y015786D01*
X024017Y015944D02*
X017288Y015944D01*
X016744Y016261D02*
X003337Y016261D01*
X003353Y016103D02*
X016544Y016103D01*
X016488Y015944D02*
X003369Y015944D01*
X003384Y015786D02*
X016498Y015786D01*
X016584Y015627D02*
X003400Y015627D01*
X003321Y016420D02*
X019637Y016420D01*
X019796Y016578D02*
X003305Y016578D01*
X003289Y016737D02*
X019954Y016737D01*
X019988Y016895D02*
X017385Y016895D01*
X017368Y016888D02*
X017515Y016949D01*
X017627Y017062D01*
X017688Y017209D01*
X017688Y017368D01*
X017627Y017515D01*
X017515Y017627D01*
X017428Y017663D01*
X017488Y017809D01*
X017488Y017968D01*
X017427Y018115D01*
X017315Y018227D01*
X017168Y018288D01*
X017088Y018288D01*
X017088Y018368D01*
X017027Y018515D01*
X016915Y018627D01*
X016768Y018688D01*
X016609Y018688D01*
X016462Y018627D01*
X016349Y018515D01*
X016338Y018488D01*
X014671Y018488D01*
X012677Y020482D01*
X012688Y020509D01*
X012688Y020668D01*
X012627Y020815D01*
X012515Y020927D01*
X012368Y020988D01*
X012209Y020988D01*
X012062Y020927D01*
X011949Y020815D01*
X011888Y020668D01*
X011888Y020509D01*
X011949Y020362D01*
X012062Y020249D01*
X012209Y020188D01*
X012368Y020188D01*
X012394Y020199D01*
X014505Y018088D01*
X014671Y018088D01*
X016338Y018088D01*
X014071Y018088D01*
X012577Y019582D01*
X012588Y019609D01*
X012588Y019768D01*
X012527Y019915D01*
X012415Y020027D01*
X012268Y020088D01*
X012109Y020088D01*
X011962Y020027D01*
X011849Y019915D01*
X011788Y019768D01*
X011788Y019609D01*
X011849Y019462D01*
X011962Y019349D01*
X012109Y019288D01*
X012268Y019288D01*
X012294Y019299D01*
X013905Y017688D01*
X013471Y017688D01*
X013630Y017530D02*
X016909Y017530D01*
X016948Y017513D02*
X016938Y017488D01*
X013671Y017488D01*
X011577Y019582D01*
X011588Y019609D01*
X011588Y019768D01*
X011527Y019915D01*
X011415Y020027D01*
X011268Y020088D01*
X011109Y020088D01*
X010962Y020027D01*
X010849Y019915D01*
X010788Y019768D01*
X010788Y019609D01*
X010849Y019462D01*
X010962Y019349D01*
X011109Y019288D01*
X011268Y019288D01*
X011294Y019299D01*
X013505Y017088D01*
X013671Y017088D01*
X016938Y017088D01*
X016949Y017062D01*
X017062Y016949D01*
X017209Y016888D01*
X017368Y016888D01*
X017191Y016895D02*
X003273Y016895D01*
X003266Y017054D02*
X010482Y017054D01*
X010491Y017050D02*
X010576Y017028D01*
X010640Y017019D01*
X010640Y017620D01*
X010776Y017620D01*
X010776Y017756D01*
X011377Y017756D01*
X011368Y017820D01*
X011346Y017905D01*
X011312Y017986D01*
X011268Y018062D01*
X011214Y018132D01*
X011152Y018195D01*
X011082Y018248D01*
X011006Y018292D01*
X010924Y018326D01*
X010839Y018349D01*
X010776Y018357D01*
X010776Y017756D01*
X010640Y017756D01*
X010640Y017620D01*
X010039Y017620D01*
X010047Y017557D01*
X010070Y017472D01*
X010104Y017390D01*
X010148Y017314D01*
X010201Y017244D01*
X010264Y017182D01*
X010334Y017128D01*
X010410Y017084D01*
X010491Y017050D01*
X010640Y017054D02*
X010776Y017054D01*
X010776Y017019D02*
X010839Y017028D01*
X010924Y017050D01*
X011006Y017084D01*
X011082Y017128D01*
X011152Y017182D01*
X011214Y017244D01*
X011268Y017314D01*
X011312Y017390D01*
X011346Y017472D01*
X011368Y017557D01*
X011377Y017620D01*
X010776Y017620D01*
X010776Y017019D01*
X010933Y017054D02*
X016957Y017054D01*
X016948Y017513D02*
X016862Y017549D01*
X016749Y017662D01*
X016738Y017688D01*
X014071Y017688D01*
X013905Y017688D01*
X013747Y017847D02*
X013312Y017847D01*
X013154Y018005D02*
X013588Y018005D01*
X013430Y018164D02*
X012995Y018164D01*
X012837Y018322D02*
X013271Y018322D01*
X013113Y018481D02*
X012678Y018481D01*
X012520Y018639D02*
X012954Y018639D01*
X012796Y018798D02*
X012361Y018798D01*
X012203Y018957D02*
X012637Y018957D01*
X012478Y019115D02*
X012044Y019115D01*
X011886Y019274D02*
X012320Y019274D01*
X012581Y019591D02*
X013003Y019591D01*
X012844Y019749D02*
X012588Y019749D01*
X012530Y019908D02*
X012686Y019908D01*
X012527Y020066D02*
X012320Y020066D01*
X012120Y020225D02*
X003487Y020225D01*
X003519Y020383D02*
X011940Y020383D01*
X011888Y020542D02*
X003551Y020542D01*
X003583Y020701D02*
X011902Y020701D01*
X011993Y020859D02*
X003615Y020859D01*
X003647Y021018D02*
X013452Y021018D01*
X013326Y020859D02*
X012583Y020859D01*
X012675Y020701D02*
X013288Y020701D01*
X013316Y020542D02*
X012688Y020542D01*
X012776Y020383D02*
X013427Y020383D01*
X013488Y020225D02*
X012934Y020225D01*
X013093Y020066D02*
X013527Y020066D01*
X013686Y019908D02*
X013251Y019908D01*
X013410Y019749D02*
X013844Y019749D01*
X014003Y019591D02*
X013568Y019591D01*
X013727Y019432D02*
X014161Y019432D01*
X014320Y019274D02*
X013886Y019274D01*
X014044Y019115D02*
X014478Y019115D01*
X014637Y018957D02*
X014203Y018957D01*
X014361Y018798D02*
X014796Y018798D01*
X014520Y018639D02*
X016491Y018639D01*
X016885Y018639D02*
X022054Y018639D01*
X022213Y018481D02*
X020461Y018481D01*
X020566Y018322D02*
X022371Y018322D01*
X023203Y018957D02*
X027637Y018957D01*
X027561Y018798D02*
X027796Y018798D01*
X027720Y018639D02*
X027954Y018639D01*
X027891Y018481D02*
X027878Y018481D01*
X028085Y018481D02*
X028341Y018481D01*
X028320Y018322D02*
X028526Y018322D01*
X028388Y018164D02*
X032104Y018164D01*
X032096Y018322D02*
X028850Y018322D01*
X029035Y018481D02*
X032089Y018481D01*
X032081Y018639D02*
X029088Y018639D01*
X029076Y018798D02*
X032073Y018798D01*
X032065Y018957D02*
X028985Y018957D01*
X028391Y018957D02*
X028203Y018957D01*
X028044Y019115D02*
X032057Y019115D01*
X032034Y019274D02*
X027886Y019274D01*
X027313Y018481D02*
X026978Y018481D01*
X027137Y018322D02*
X027471Y018322D01*
X027588Y018164D02*
X027295Y018164D01*
X027437Y018005D02*
X027590Y018005D01*
X027555Y017847D02*
X027664Y017847D01*
X027909Y017688D02*
X028068Y017688D01*
X028312Y017847D02*
X032120Y017847D01*
X032112Y018005D02*
X028387Y018005D01*
X027437Y017371D02*
X032112Y017371D01*
X032104Y017213D02*
X026115Y017213D01*
X026243Y017371D02*
X026940Y017371D01*
X026821Y017530D02*
X026309Y017530D01*
X026321Y017688D02*
X026788Y017688D01*
X026821Y017847D02*
X026309Y017847D01*
X026243Y018005D02*
X026888Y018005D01*
X026730Y018164D02*
X026115Y018164D01*
X025222Y018164D02*
X020588Y018164D01*
X020545Y018005D02*
X025094Y018005D01*
X025028Y017847D02*
X020409Y017847D01*
X020388Y017688D02*
X025016Y017688D01*
X025028Y017530D02*
X020388Y017530D01*
X020388Y017371D02*
X025094Y017371D01*
X025032Y017213D02*
X020388Y017213D01*
X020388Y017054D02*
X024905Y017054D01*
X024778Y016895D02*
X020388Y016895D01*
X020388Y016737D02*
X024652Y016737D01*
X024525Y016578D02*
X020361Y016578D01*
X020203Y016420D02*
X024398Y016420D01*
X024271Y016261D02*
X020044Y016261D01*
X019886Y016103D02*
X024144Y016103D01*
X024403Y015786D02*
X031986Y015786D01*
X032010Y015944D02*
X024530Y015944D01*
X024656Y016103D02*
X032034Y016103D01*
X032056Y016250D02*
X032056Y016250D01*
X032057Y016261D02*
X024783Y016261D01*
X024910Y016420D02*
X032065Y016420D01*
X032073Y016578D02*
X025037Y016578D01*
X025164Y016737D02*
X032081Y016737D01*
X032089Y016895D02*
X025290Y016895D01*
X025417Y017054D02*
X025495Y017054D01*
X025842Y017054D02*
X032097Y017054D01*
X031962Y015627D02*
X024276Y015627D01*
X024149Y015469D02*
X031939Y015469D01*
X031915Y015310D02*
X024022Y015310D01*
X023896Y015151D02*
X031891Y015151D01*
X031867Y014993D02*
X023756Y014993D01*
X021588Y014676D02*
X031803Y014676D01*
X031843Y014834D02*
X021561Y014834D01*
X021550Y014517D02*
X031763Y014517D01*
X031723Y014359D02*
X021424Y014359D01*
X021388Y014200D02*
X031682Y014200D01*
X031642Y014042D02*
X021388Y014042D01*
X021388Y013883D02*
X031602Y013883D01*
X031561Y013725D02*
X021388Y013725D01*
X021388Y013566D02*
X031521Y013566D01*
X031478Y013408D02*
X021388Y013408D01*
X021388Y013249D02*
X031420Y013249D01*
X031362Y013090D02*
X021388Y013090D01*
X021388Y012932D02*
X031305Y012932D01*
X031247Y012773D02*
X021388Y012773D01*
X021388Y012615D02*
X031189Y012615D01*
X031132Y012456D02*
X021388Y012456D01*
X021388Y012298D02*
X031074Y012298D01*
X031016Y012139D02*
X021388Y012139D01*
X021388Y011981D02*
X030947Y011981D01*
X030871Y011822D02*
X021388Y011822D01*
X021388Y011664D02*
X030794Y011664D01*
X030718Y011505D02*
X021388Y011505D01*
X021388Y011346D02*
X030641Y011346D01*
X030565Y011188D02*
X021388Y011188D01*
X021388Y011029D02*
X030489Y011029D01*
X030412Y010871D02*
X021388Y010871D01*
X021388Y010712D02*
X030327Y010712D01*
X030230Y010554D02*
X021388Y010554D01*
X021388Y010395D02*
X030133Y010395D01*
X030036Y010237D02*
X021388Y010237D01*
X021388Y010078D02*
X029939Y010078D01*
X029843Y009920D02*
X021388Y009920D01*
X021388Y009761D02*
X029746Y009761D01*
X029649Y009602D02*
X021385Y009602D01*
X021227Y009444D02*
X029536Y009444D01*
X029416Y009285D02*
X021081Y009285D01*
X021088Y009127D02*
X029296Y009127D01*
X029176Y008968D02*
X021030Y008968D01*
X020826Y014517D02*
X015038Y014517D01*
X015233Y014676D02*
X020788Y014676D01*
X020816Y014834D02*
X015288Y014834D01*
X013381Y017213D02*
X011183Y017213D01*
X011301Y017371D02*
X013222Y017371D01*
X013064Y017530D02*
X011361Y017530D01*
X011361Y017847D02*
X012747Y017847D01*
X012588Y018005D02*
X011301Y018005D01*
X011183Y018164D02*
X012430Y018164D01*
X012271Y018322D02*
X010933Y018322D01*
X010776Y018322D02*
X010640Y018322D01*
X010640Y018357D02*
X010576Y018349D01*
X010491Y018326D01*
X010410Y018292D01*
X010334Y018248D01*
X010264Y018195D01*
X010201Y018132D01*
X010148Y018062D01*
X010104Y017986D01*
X010070Y017905D01*
X010047Y017820D01*
X010039Y017756D01*
X010640Y017756D01*
X010640Y018357D01*
X010483Y018322D02*
X003266Y018322D01*
X003266Y018164D02*
X010233Y018164D01*
X010115Y018005D02*
X003266Y018005D01*
X003266Y017847D02*
X010055Y017847D01*
X010054Y017530D02*
X003266Y017530D01*
X003266Y017688D02*
X010640Y017688D01*
X010776Y017688D02*
X012905Y017688D01*
X013678Y018481D02*
X014113Y018481D01*
X014271Y018322D02*
X013837Y018322D01*
X013995Y018164D02*
X014430Y018164D01*
X013954Y018639D02*
X013520Y018639D01*
X013361Y018798D02*
X013796Y018798D01*
X013637Y018957D02*
X013203Y018957D01*
X013044Y019115D02*
X013478Y019115D01*
X013320Y019274D02*
X012886Y019274D01*
X012727Y019432D02*
X013161Y019432D01*
X014093Y020066D02*
X015227Y020066D01*
X015386Y019908D02*
X014251Y019908D01*
X014410Y019749D02*
X015544Y019749D01*
X015703Y019591D02*
X014568Y019591D01*
X014727Y019432D02*
X015861Y019432D01*
X016020Y019274D02*
X014886Y019274D01*
X015044Y019115D02*
X016178Y019115D01*
X016510Y019749D02*
X017461Y019749D01*
X017462Y019749D02*
X017609Y019688D01*
X017768Y019688D01*
X017915Y019749D01*
X018261Y019749D01*
X018262Y019749D02*
X018409Y019688D01*
X018568Y019688D01*
X018715Y019749D01*
X031962Y019749D01*
X031986Y019591D02*
X023068Y019591D01*
X023227Y019432D02*
X032010Y019432D01*
X031939Y019908D02*
X018846Y019908D01*
X018827Y019862D02*
X018888Y020009D01*
X018888Y020168D01*
X018827Y020315D01*
X018715Y020427D01*
X018688Y020438D01*
X018688Y028288D01*
X018768Y028288D01*
X018915Y028349D01*
X019027Y028462D01*
X019088Y028609D01*
X019088Y028768D01*
X019027Y028915D01*
X018915Y029027D01*
X018768Y029088D01*
X018609Y029088D01*
X018462Y029027D01*
X018349Y028915D01*
X018288Y028768D01*
X018288Y028609D01*
X018299Y028582D01*
X018288Y028571D01*
X018288Y028405D01*
X018288Y020438D01*
X018262Y020427D01*
X018149Y020315D01*
X018088Y020168D01*
X018027Y020315D01*
X017915Y020427D01*
X017888Y020438D01*
X017888Y027338D01*
X017915Y027349D01*
X018027Y027462D01*
X018088Y027609D01*
X018088Y027768D01*
X018027Y027915D01*
X017915Y028027D01*
X017768Y028088D01*
X017609Y028088D01*
X017462Y028027D01*
X017349Y027915D01*
X017288Y027768D01*
X017288Y027609D01*
X017349Y027462D01*
X017462Y027349D01*
X017488Y027338D01*
X017488Y020438D01*
X017462Y020427D01*
X017349Y020315D01*
X017288Y020168D01*
X017288Y020009D01*
X017349Y019862D01*
X017462Y019749D01*
X017330Y019908D02*
X017015Y019908D01*
X016968Y019888D02*
X017115Y019949D01*
X017227Y020062D01*
X017288Y020209D01*
X017288Y020368D01*
X017227Y020515D01*
X017115Y020627D01*
X017088Y020638D01*
X017088Y028138D01*
X017115Y028149D01*
X017227Y028262D01*
X017288Y028409D01*
X017288Y028568D01*
X017227Y028715D01*
X017115Y028827D01*
X016968Y028888D01*
X016809Y028888D01*
X016662Y028827D01*
X016549Y028715D01*
X016488Y028568D01*
X016488Y028409D01*
X016549Y028262D01*
X016662Y028149D01*
X016688Y028138D01*
X016688Y020638D01*
X016662Y020627D01*
X016549Y020515D01*
X016488Y020368D01*
X016488Y020209D01*
X016549Y020062D01*
X016662Y019949D01*
X016809Y019888D01*
X016968Y019888D01*
X016761Y019908D02*
X016351Y019908D01*
X016193Y020066D02*
X016547Y020066D01*
X016488Y020225D02*
X016034Y020225D01*
X015888Y020383D02*
X016495Y020383D01*
X016576Y020542D02*
X015888Y020542D01*
X015888Y020701D02*
X016688Y020701D01*
X016688Y020859D02*
X015888Y020859D01*
X015888Y021018D02*
X016688Y021018D01*
X016688Y021176D02*
X015888Y021176D01*
X015888Y021335D02*
X016688Y021335D01*
X016688Y021493D02*
X016040Y021493D01*
X016088Y021652D02*
X016688Y021652D01*
X016688Y021810D02*
X016071Y021810D01*
X015973Y021969D02*
X016688Y021969D01*
X016688Y022127D02*
X003965Y022127D01*
X003916Y021969D02*
X015403Y021969D01*
X015306Y021810D02*
X003867Y021810D01*
X003818Y021652D02*
X015288Y021652D01*
X015336Y021493D02*
X003769Y021493D01*
X003720Y021335D02*
X015488Y021335D01*
X015488Y021176D02*
X014966Y021176D01*
X015068Y021018D02*
X015488Y021018D01*
X015488Y020859D02*
X015088Y020859D01*
X015159Y020701D02*
X015488Y020701D01*
X015488Y020542D02*
X015317Y020542D01*
X015476Y020383D02*
X015488Y020383D01*
X015069Y020225D02*
X013934Y020225D01*
X013949Y020383D02*
X014910Y020383D01*
X014479Y020542D02*
X014061Y020542D01*
X014088Y020701D02*
X014333Y020701D01*
X014288Y020859D02*
X014050Y020859D01*
X013924Y021018D02*
X014309Y021018D01*
X014410Y021176D02*
X003679Y021176D01*
X003455Y020066D02*
X011056Y020066D01*
X010846Y019908D02*
X003423Y019908D01*
X003400Y019749D02*
X010788Y019749D01*
X010796Y019591D02*
X003384Y019591D01*
X003369Y019432D02*
X010879Y019432D01*
X011320Y019274D02*
X003353Y019274D01*
X003337Y019115D02*
X011478Y019115D01*
X011637Y018957D02*
X003321Y018957D01*
X003305Y018798D02*
X011796Y018798D01*
X011954Y018639D02*
X003289Y018639D01*
X003273Y018481D02*
X012113Y018481D01*
X011879Y019432D02*
X011727Y019432D01*
X011796Y019591D02*
X011581Y019591D01*
X011588Y019749D02*
X011788Y019749D01*
X011846Y019908D02*
X011530Y019908D01*
X011320Y020066D02*
X012056Y020066D01*
X010776Y018164D02*
X010640Y018164D01*
X010640Y018005D02*
X010776Y018005D01*
X010776Y017847D02*
X010640Y017847D01*
X010640Y017530D02*
X010776Y017530D01*
X010776Y017371D02*
X010640Y017371D01*
X010640Y017213D02*
X010776Y017213D01*
X010233Y017213D02*
X003266Y017213D01*
X003266Y017371D02*
X010115Y017371D01*
X004309Y023079D02*
X016688Y023079D01*
X016688Y023237D02*
X004376Y023237D01*
X004443Y023396D02*
X016688Y023396D01*
X016688Y023554D02*
X004510Y023554D01*
X004577Y023713D02*
X016688Y023713D01*
X016688Y023871D02*
X004644Y023871D01*
X004720Y024030D02*
X016688Y024030D01*
X016688Y024188D02*
X004806Y024188D01*
X004892Y024347D02*
X016688Y024347D01*
X016688Y024506D02*
X004979Y024506D01*
X005065Y024664D02*
X016688Y024664D01*
X016688Y024823D02*
X005151Y024823D01*
X005238Y024981D02*
X016688Y024981D01*
X016688Y025140D02*
X005324Y025140D01*
X005422Y025298D02*
X016688Y025298D01*
X016688Y025457D02*
X005530Y025457D01*
X005638Y025615D02*
X016688Y025615D01*
X016688Y025774D02*
X005746Y025774D01*
X005854Y025932D02*
X016688Y025932D01*
X016688Y026091D02*
X005962Y026091D01*
X006070Y026250D02*
X016688Y026250D01*
X016688Y026408D02*
X006178Y026408D01*
X006178Y026407D02*
X006178Y026407D01*
X006311Y026567D02*
X016688Y026567D01*
X016688Y026725D02*
X006444Y026725D01*
X006577Y026884D02*
X016688Y026884D01*
X016688Y027042D02*
X006710Y027042D01*
X006843Y027201D02*
X016688Y027201D01*
X016688Y027359D02*
X006976Y027359D01*
X007103Y027510D02*
X007103Y027510D01*
X007111Y027518D02*
X016688Y027518D01*
X016688Y027676D02*
X007274Y027676D01*
X007436Y027835D02*
X016688Y027835D01*
X016688Y027994D02*
X007599Y027994D01*
X007761Y028152D02*
X016659Y028152D01*
X016529Y028311D02*
X007924Y028311D01*
X008086Y028469D02*
X016488Y028469D01*
X016513Y028628D02*
X008275Y028628D01*
X008473Y028786D02*
X016621Y028786D01*
X017156Y028786D02*
X018296Y028786D01*
X018288Y028628D02*
X017263Y028628D01*
X017288Y028469D02*
X018288Y028469D01*
X018288Y028311D02*
X017248Y028311D01*
X017118Y028152D02*
X018288Y028152D01*
X018288Y027994D02*
X017949Y027994D01*
X018060Y027835D02*
X018288Y027835D01*
X018288Y027676D02*
X018088Y027676D01*
X018051Y027518D02*
X018288Y027518D01*
X018288Y027359D02*
X017925Y027359D01*
X017888Y027201D02*
X018288Y027201D01*
X018288Y027042D02*
X017888Y027042D01*
X017888Y026884D02*
X018288Y026884D01*
X018288Y026725D02*
X017888Y026725D01*
X017888Y026567D02*
X018288Y026567D01*
X018288Y026408D02*
X017888Y026408D01*
X017888Y026250D02*
X018288Y026250D01*
X018288Y026091D02*
X017888Y026091D01*
X017888Y025932D02*
X018288Y025932D01*
X018288Y025774D02*
X017888Y025774D01*
X017888Y025615D02*
X018288Y025615D01*
X018288Y025457D02*
X017888Y025457D01*
X017888Y025298D02*
X018288Y025298D01*
X018288Y025140D02*
X017888Y025140D01*
X017888Y024981D02*
X018288Y024981D01*
X018288Y024823D02*
X017888Y024823D01*
X017888Y024664D02*
X018288Y024664D01*
X018288Y024506D02*
X017888Y024506D01*
X017888Y024347D02*
X018288Y024347D01*
X018288Y024188D02*
X017888Y024188D01*
X017888Y024030D02*
X018288Y024030D01*
X018288Y023871D02*
X017888Y023871D01*
X017888Y023713D02*
X018288Y023713D01*
X018288Y023554D02*
X017888Y023554D01*
X017888Y023396D02*
X018288Y023396D01*
X018288Y023237D02*
X017888Y023237D01*
X017888Y023079D02*
X018288Y023079D01*
X018288Y022920D02*
X017888Y022920D01*
X017888Y022762D02*
X018288Y022762D01*
X018288Y022603D02*
X017888Y022603D01*
X017888Y022444D02*
X018288Y022444D01*
X018288Y022286D02*
X017888Y022286D01*
X017888Y022127D02*
X018288Y022127D01*
X018288Y021969D02*
X017888Y021969D01*
X017888Y021810D02*
X018288Y021810D01*
X018288Y021652D02*
X017888Y021652D01*
X017888Y021493D02*
X018288Y021493D01*
X018288Y021335D02*
X017888Y021335D01*
X017888Y021176D02*
X018288Y021176D01*
X018288Y021018D02*
X017888Y021018D01*
X017888Y020859D02*
X018288Y020859D01*
X018288Y020701D02*
X017888Y020701D01*
X017888Y020542D02*
X018288Y020542D01*
X018218Y020383D02*
X017959Y020383D01*
X018064Y020225D02*
X018112Y020225D01*
X018088Y020168D02*
X018088Y020009D01*
X018027Y019862D01*
X017915Y019749D01*
X018046Y019908D02*
X018130Y019908D01*
X018149Y019862D02*
X018262Y019749D01*
X018149Y019862D02*
X018088Y020009D01*
X018088Y020168D01*
X018088Y020066D02*
X018088Y020066D01*
X018715Y019749D02*
X018827Y019862D01*
X018888Y020066D02*
X031915Y020066D01*
X031891Y020225D02*
X026182Y020225D01*
X026265Y020259D02*
X026483Y020477D01*
X026601Y020762D01*
X026601Y021071D01*
X026483Y021356D01*
X026265Y021574D01*
X025980Y021692D01*
X025672Y021692D01*
X025387Y021574D01*
X025169Y021356D01*
X025051Y021071D01*
X025051Y020762D01*
X025169Y020477D01*
X025387Y020259D01*
X025672Y020141D01*
X025980Y020141D01*
X026265Y020259D01*
X026389Y020383D02*
X031867Y020383D01*
X031843Y020542D02*
X026510Y020542D01*
X026576Y020701D02*
X031803Y020701D01*
X031763Y020859D02*
X026601Y020859D01*
X026601Y021018D02*
X031723Y021018D01*
X031682Y021176D02*
X026558Y021176D01*
X026492Y021335D02*
X031642Y021335D01*
X031602Y021493D02*
X026346Y021493D01*
X026077Y021652D02*
X031561Y021652D01*
X031521Y021810D02*
X018688Y021810D01*
X018688Y021652D02*
X025575Y021652D01*
X025306Y021493D02*
X018688Y021493D01*
X018688Y021335D02*
X025160Y021335D01*
X025094Y021176D02*
X018688Y021176D01*
X018688Y021018D02*
X025051Y021018D01*
X025051Y020859D02*
X018688Y020859D01*
X018688Y020701D02*
X025076Y020701D01*
X025142Y020542D02*
X018688Y020542D01*
X018759Y020383D02*
X025263Y020383D01*
X025470Y020225D02*
X018864Y020225D01*
X017488Y020542D02*
X017200Y020542D01*
X017282Y020383D02*
X017418Y020383D01*
X017312Y020225D02*
X017288Y020225D01*
X017288Y020066D02*
X017229Y020066D01*
X017088Y020701D02*
X017488Y020701D01*
X017488Y020859D02*
X017088Y020859D01*
X017088Y021018D02*
X017488Y021018D01*
X017488Y021176D02*
X017088Y021176D01*
X017088Y021335D02*
X017488Y021335D01*
X017488Y021493D02*
X017088Y021493D01*
X017088Y021652D02*
X017488Y021652D01*
X017488Y021810D02*
X017088Y021810D01*
X017088Y021969D02*
X017488Y021969D01*
X017488Y022127D02*
X017088Y022127D01*
X017088Y022286D02*
X017488Y022286D01*
X017488Y022444D02*
X017088Y022444D01*
X017088Y022603D02*
X017488Y022603D01*
X017488Y022762D02*
X017088Y022762D01*
X017088Y022920D02*
X017488Y022920D01*
X017488Y023079D02*
X017088Y023079D01*
X017088Y023237D02*
X017488Y023237D01*
X017488Y023396D02*
X017088Y023396D01*
X017088Y023554D02*
X017488Y023554D01*
X017488Y023713D02*
X017088Y023713D01*
X017088Y023871D02*
X017488Y023871D01*
X017488Y024030D02*
X017088Y024030D01*
X017088Y024188D02*
X017488Y024188D01*
X017488Y024347D02*
X017088Y024347D01*
X017088Y024506D02*
X017488Y024506D01*
X017488Y024664D02*
X017088Y024664D01*
X017088Y024823D02*
X017488Y024823D01*
X017488Y024981D02*
X017088Y024981D01*
X017088Y025140D02*
X017488Y025140D01*
X017488Y025298D02*
X017088Y025298D01*
X017088Y025457D02*
X017488Y025457D01*
X017488Y025615D02*
X017088Y025615D01*
X017088Y025774D02*
X017488Y025774D01*
X017488Y025932D02*
X017088Y025932D01*
X017088Y026091D02*
X017488Y026091D01*
X017488Y026250D02*
X017088Y026250D01*
X017088Y026408D02*
X017488Y026408D01*
X017488Y026567D02*
X017088Y026567D01*
X017088Y026725D02*
X017488Y026725D01*
X017488Y026884D02*
X017088Y026884D01*
X017088Y027042D02*
X017488Y027042D01*
X017488Y027201D02*
X017088Y027201D01*
X017088Y027359D02*
X017451Y027359D01*
X017326Y027518D02*
X017088Y027518D01*
X017088Y027676D02*
X017288Y027676D01*
X017316Y027835D02*
X017088Y027835D01*
X017088Y027994D02*
X017428Y027994D01*
X018379Y028945D02*
X008672Y028945D01*
X008871Y029103D02*
X026517Y029103D01*
X026729Y028945D02*
X018997Y028945D01*
X019081Y028786D02*
X026908Y028786D01*
X027088Y028628D02*
X019088Y028628D01*
X019030Y028469D02*
X027268Y028469D01*
X027447Y028311D02*
X018822Y028311D01*
X018688Y028152D02*
X027627Y028152D01*
X027800Y027994D02*
X018688Y027994D01*
X018688Y027835D02*
X027947Y027835D01*
X028094Y027676D02*
X018688Y027676D01*
X018688Y027518D02*
X028241Y027518D01*
X028389Y027359D02*
X018688Y027359D01*
X018688Y027201D02*
X028536Y027201D01*
X028683Y027042D02*
X018688Y027042D01*
X018688Y026884D02*
X028815Y026884D01*
X028935Y026725D02*
X018688Y026725D01*
X018688Y026567D02*
X029055Y026567D01*
X029176Y026408D02*
X018688Y026408D01*
X018688Y026250D02*
X029296Y026250D01*
X029416Y026091D02*
X018688Y026091D01*
X018688Y025932D02*
X029536Y025932D01*
X029649Y025774D02*
X018688Y025774D01*
X018688Y025615D02*
X029746Y025615D01*
X029843Y025457D02*
X018688Y025457D01*
X018688Y025298D02*
X029939Y025298D01*
X030036Y025140D02*
X018688Y025140D01*
X018688Y024981D02*
X030133Y024981D01*
X030230Y024823D02*
X018688Y024823D01*
X018688Y024664D02*
X030327Y024664D01*
X030412Y024506D02*
X018688Y024506D01*
X018688Y024347D02*
X030489Y024347D01*
X030565Y024188D02*
X018688Y024188D01*
X018688Y024030D02*
X030641Y024030D01*
X030718Y023871D02*
X018688Y023871D01*
X018688Y023713D02*
X030794Y023713D01*
X030870Y023554D02*
X018688Y023554D01*
X018688Y023396D02*
X030947Y023396D01*
X031016Y023237D02*
X018688Y023237D01*
X018688Y023079D02*
X031074Y023079D01*
X031132Y022920D02*
X018688Y022920D01*
X018688Y022762D02*
X031189Y022762D01*
X031247Y022603D02*
X018688Y022603D01*
X018688Y022444D02*
X031305Y022444D01*
X031362Y022286D02*
X018688Y022286D01*
X018688Y022127D02*
X031420Y022127D01*
X031478Y021969D02*
X018688Y021969D01*
X016688Y022286D02*
X004014Y022286D01*
X004063Y022444D02*
X016688Y022444D01*
X016688Y022603D02*
X004112Y022603D01*
X004176Y022762D02*
X016688Y022762D01*
X016688Y022920D02*
X004243Y022920D01*
X009070Y029262D02*
X026296Y029262D01*
X026076Y029420D02*
X009271Y029420D01*
X009516Y029579D02*
X025855Y029579D01*
X025635Y029737D02*
X009762Y029737D01*
X010007Y029896D02*
X025388Y029896D01*
X025113Y030055D02*
X010253Y030055D01*
X010506Y030213D02*
X024838Y030213D01*
X024564Y030372D02*
X010815Y030372D01*
X011125Y030530D02*
X024289Y030530D01*
X023942Y030689D02*
X011434Y030689D01*
X011743Y030847D02*
X023590Y030847D01*
X023239Y031006D02*
X012145Y031006D01*
X012549Y031164D02*
X022861Y031164D01*
X022389Y031323D02*
X012953Y031323D01*
X013463Y031481D02*
X021918Y031481D01*
X021373Y031640D02*
X014027Y031640D01*
X014659Y031799D02*
X020679Y031799D01*
X019810Y031957D02*
X015558Y031957D01*
X017220Y032116D02*
X017652Y032116D01*
X017041Y018481D02*
X019915Y018481D01*
X019811Y018322D02*
X017088Y018322D01*
X017378Y018164D02*
X019788Y018164D01*
X019831Y018005D02*
X017473Y018005D01*
X017488Y017847D02*
X019967Y017847D01*
X019988Y017688D02*
X017438Y017688D01*
X017612Y017530D02*
X019988Y017530D01*
X019988Y017371D02*
X017687Y017371D01*
X017688Y017213D02*
X019988Y017213D01*
X019988Y017054D02*
X017620Y017054D01*
X016338Y018088D02*
X016338Y018088D01*
X006577Y008493D02*
X028815Y008493D01*
X028683Y008334D02*
X006710Y008334D01*
X006844Y008176D02*
X028536Y008176D01*
X028389Y008017D02*
X006977Y008017D01*
X007111Y007859D02*
X028242Y007859D01*
X028094Y007700D02*
X007274Y007700D01*
X017220Y003261D02*
X017653Y003261D01*
D12*
X019688Y004188D03*
X014788Y004188D03*
X020688Y009188D03*
X021188Y014688D03*
X020188Y018188D03*
X018488Y020088D03*
X017688Y020088D03*
X016888Y020288D03*
X015688Y021688D03*
X014688Y020888D03*
X013688Y020688D03*
X012288Y020588D03*
X012188Y019688D03*
X011188Y019688D03*
X014988Y015488D03*
X014888Y014888D03*
X016888Y015888D03*
X017488Y015688D03*
X017288Y017288D03*
X017088Y017888D03*
X016688Y018288D03*
X017688Y027688D03*
X016888Y028488D03*
X018688Y028688D03*
X028688Y018688D03*
X027988Y018088D03*
X027188Y017688D03*
D13*
X027188Y017988D01*
X026688Y018488D01*
X022488Y018488D01*
X022088Y018888D01*
X014988Y018888D01*
X013688Y020188D01*
X013688Y020688D01*
X014688Y020888D02*
X016388Y019188D01*
X022688Y019188D01*
X023188Y018688D01*
X027388Y018688D01*
X027988Y018088D01*
X028188Y018688D02*
X027688Y019188D01*
X023188Y019188D01*
X022888Y019488D01*
X016488Y019488D01*
X015688Y020288D01*
X015688Y021688D01*
X016888Y020288D02*
X016888Y028488D01*
X017688Y027688D02*
X017688Y020088D01*
X018488Y020088D02*
X018488Y028488D01*
X018688Y028688D01*
X012288Y020588D02*
X014588Y018288D01*
X016688Y018288D01*
X017088Y017888D02*
X013988Y017888D01*
X012188Y019688D01*
X011188Y019688D02*
X013588Y017288D01*
X017288Y017288D01*
X017188Y016188D02*
X016888Y015888D01*
X017188Y016188D02*
X019688Y016188D01*
X020188Y016688D01*
X020188Y018188D01*
X017488Y015688D02*
X017288Y015488D01*
X014988Y015488D01*
X015190Y015190D02*
X014888Y014888D01*
X015190Y015190D02*
X023670Y015190D01*
X025669Y017688D01*
X028188Y018688D02*
X028688Y018688D01*
X021188Y014688D02*
X021188Y009688D01*
X020688Y009188D01*
X019688Y004188D02*
X014788Y004188D01*
M02*
