%
M48
M72
T01C0.0200
T02C0.0320
T03C0.0354
T04C0.0374
T05C0.0400
T06C0.0591
T07C0.0620
T08C0.0866
%
T01
X19452Y16694
X19058Y17088
X20239Y16300
X22995Y15513
X25357Y13938
X24373Y12954
X25751Y15119
X19952Y19056
X19452Y20237
X25751Y22993
X26657Y20434
X12747Y23832
X11747Y22832
T02
X2598Y5820
X2598Y6820
X2598Y7820
X2598Y8820
X2598Y9820
X2598Y10820
X2598Y11820
X5598Y11820
X5598Y10820
X5598Y9820
X5598Y8820
X5598Y7820
X5598Y6820
X5598Y5820
T03
X1342Y6033
X1342Y10033
T04
X33739Y22501
X34527Y22501
X34527Y23486
X33739Y23486
T05
X27857Y25749
X26857Y25749
X25857Y25749
X24857Y25749
X23857Y25749
X22857Y25749
X20771Y25749
X19771Y25749
X18771Y25749
X17771Y25749
X16771Y25749
X15771Y25749
X24176Y23812
X24276Y22812
X24176Y21812
X29979Y15612
X31759Y15612
X31759Y13052
X29979Y13052
X27432Y13363
X27432Y12363
X27432Y11363
X26432Y11363
X26432Y12363
X26432Y13363
X26220Y6852
X25220Y6852
X24220Y6852
X22558Y6852
X21558Y6852
X20558Y6852
X19558Y6852
X18558Y6852
X17558Y6852
X16558Y6852
X15558Y6852
X27220Y6852
X28220Y6852
X29220Y6852
X30220Y6852
X31220Y6852
X2129Y18663
T06
X10003Y24174
X10003Y9214
T07
X6775Y24332
T08
X35594Y25356
X35594Y20631
M30
