G75*
G70*
%OFA0B0*%
%FSLAX24Y24*%
%IPPOS*%
%LPD*%
%AMOC8*
5,1,8,0,0,1.08239X$1,22.5*
%
%ADD10C,0.1064*%
%ADD11C,0.0700*%
%ADD12C,0.0640*%
%ADD13C,0.0820*%
%ADD14OC8,0.1080*%
%ADD15OC8,0.0720*%
%ADD16C,0.0720*%
%ADD17OC8,0.0694*%
%ADD18C,0.1346*%
D10*
X010003Y009214D03*
X010003Y024174D03*
D11*
X006775Y024332D03*
D12*
X002878Y005820D02*
X002318Y005820D01*
X002318Y006820D02*
X002878Y006820D01*
X002878Y007820D02*
X002318Y007820D01*
X002318Y008820D02*
X002878Y008820D01*
X002878Y009820D02*
X002318Y009820D01*
X002318Y010820D02*
X002878Y010820D01*
X002878Y011820D02*
X002318Y011820D01*
X005318Y011820D02*
X005878Y011820D01*
X005878Y010820D02*
X005318Y010820D01*
X005318Y009820D02*
X005878Y009820D01*
X005878Y008820D02*
X005318Y008820D01*
X005318Y007820D02*
X005878Y007820D01*
X005878Y006820D02*
X005318Y006820D01*
X005318Y005820D02*
X005878Y005820D01*
D13*
X001342Y006033D03*
X001342Y010033D03*
D14*
X002129Y018663D03*
D15*
X026432Y013363D03*
X026432Y012363D03*
X026432Y011363D03*
X027432Y011363D03*
X027432Y012363D03*
X027432Y013363D03*
D16*
X029979Y013372D02*
X029979Y012732D01*
X031759Y012732D02*
X031759Y013372D01*
X031759Y015292D02*
X031759Y015932D01*
X029979Y015932D02*
X029979Y015292D01*
X024496Y021812D02*
X023856Y021812D01*
X023956Y022812D02*
X024596Y022812D01*
X024496Y023812D02*
X023856Y023812D01*
X023857Y025429D02*
X023857Y026069D01*
X024857Y026069D02*
X024857Y025429D01*
X025857Y025429D02*
X025857Y026069D01*
X026857Y026069D02*
X026857Y025429D01*
X027857Y025429D02*
X027857Y026069D01*
X022857Y026069D02*
X022857Y025429D01*
X020771Y025429D02*
X020771Y026069D01*
X019771Y026069D02*
X019771Y025429D01*
X018771Y025429D02*
X018771Y026069D01*
X017771Y026069D02*
X017771Y025429D01*
X016771Y025429D02*
X016771Y026069D01*
X015771Y026069D02*
X015771Y025429D01*
X015558Y007172D02*
X015558Y006532D01*
X016558Y006532D02*
X016558Y007172D01*
X017558Y007172D02*
X017558Y006532D01*
X018558Y006532D02*
X018558Y007172D01*
X019558Y007172D02*
X019558Y006532D01*
X020558Y006532D02*
X020558Y007172D01*
X021558Y007172D02*
X021558Y006532D01*
X022558Y006532D02*
X022558Y007172D01*
X024220Y007172D02*
X024220Y006532D01*
X025220Y006532D02*
X025220Y007172D01*
X026220Y007172D02*
X026220Y006532D01*
X027220Y006532D02*
X027220Y007172D01*
X028220Y007172D02*
X028220Y006532D01*
X029220Y006532D02*
X029220Y007172D01*
X030220Y007172D02*
X030220Y006532D01*
X031220Y006532D02*
X031220Y007172D01*
D17*
X033739Y022501D03*
X034527Y022501D03*
X034527Y023486D03*
X033739Y023486D03*
D18*
X035594Y025356D03*
X035594Y020631D03*
M02*
