G75*
G70*
%OFA0B0*%
%FSLAX24Y24*%
%IPPOS*%
%LPD*%
%AMOC8*
5,1,8,0,0,1.08239X$1,22.5*
%
%ADD10C,0.1064*%
%ADD11C,0.0700*%
%ADD12C,0.0640*%
%ADD13R,0.0986X0.0710*%
%ADD14R,0.0710X0.0986*%
%ADD15C,0.0820*%
%ADD16R,0.0395X0.0552*%
%ADD17R,0.0395X0.0434*%
%ADD18R,0.0552X0.0395*%
%ADD19R,0.0671X0.2245*%
%ADD20R,0.0671X0.0671*%
%ADD21OC8,0.1080*%
%ADD22C,0.0056*%
%ADD23OC8,0.0720*%
%ADD24C,0.0592*%
%ADD25C,0.0720*%
%ADD26C,0.0046*%
%ADD27R,0.0540X0.0710*%
%ADD28R,0.0060X0.0720*%
%ADD29R,0.0552X0.0552*%
%ADD30R,0.1064X0.0277*%
%ADD31R,0.1064X0.0867*%
%ADD32C,0.0434*%
%ADD33R,0.1025X0.0867*%
%ADD34C,0.2030*%
D10*
X010123Y006022D03*
X010123Y020982D03*
D11*
X006895Y021140D03*
D12*
X005997Y009809D02*
X005437Y009809D01*
X005437Y008809D02*
X005997Y008809D01*
X005997Y007809D02*
X005437Y007809D01*
X005437Y006809D02*
X005997Y006809D01*
X005997Y005809D02*
X005437Y005809D01*
X005437Y004809D02*
X005997Y004809D01*
X005997Y003809D02*
X005437Y003809D01*
X002997Y003809D02*
X002437Y003809D01*
X002437Y004809D02*
X002997Y004809D01*
X002997Y005809D02*
X002437Y005809D01*
X002437Y006809D02*
X002997Y006809D01*
X002997Y007809D02*
X002437Y007809D01*
X002437Y008809D02*
X002997Y008809D01*
X002997Y009809D02*
X002437Y009809D01*
D13*
X006127Y022951D03*
X006127Y024526D03*
X006127Y026494D03*
X008607Y026494D03*
X008607Y024526D03*
X008607Y022951D03*
D14*
X029407Y012991D03*
X029407Y010511D03*
X012091Y004112D03*
X012091Y001632D03*
X008548Y001632D03*
X008548Y004112D03*
D15*
X001301Y004444D03*
X001301Y008444D03*
D16*
X001173Y010816D03*
X001882Y010816D03*
X003276Y010870D03*
X003984Y010870D03*
X002210Y019408D03*
X001501Y019408D03*
X001501Y020195D03*
X002210Y020195D03*
D17*
X005399Y018660D03*
X005773Y017833D03*
X005024Y017833D03*
X002643Y014329D03*
X003017Y013502D03*
X002269Y013502D03*
D18*
X002386Y012432D03*
X002386Y011723D03*
X002643Y015116D03*
X002643Y015825D03*
X002249Y016297D03*
X002249Y017006D03*
X004217Y017085D03*
X004217Y017793D03*
X006186Y017400D03*
X006186Y016691D03*
X005792Y019447D03*
X005792Y020156D03*
X005005Y021415D03*
X004217Y021415D03*
X004217Y022124D03*
X005005Y022124D03*
D19*
X005479Y015325D03*
X005479Y011939D03*
D20*
X004217Y018719D03*
X004217Y020097D03*
D21*
X002249Y018226D03*
D22*
X019872Y014139D02*
X020396Y014139D01*
X019872Y014139D02*
X019872Y014363D01*
X020396Y014363D01*
X020396Y014139D01*
X020396Y014194D02*
X019872Y014194D01*
X019872Y014249D02*
X020396Y014249D01*
X020396Y014304D02*
X019872Y014304D01*
X019872Y014359D02*
X020396Y014359D01*
X020396Y013824D02*
X019872Y013824D01*
X019872Y014048D01*
X020396Y014048D01*
X020396Y013824D01*
X020396Y013879D02*
X019872Y013879D01*
X019872Y013934D02*
X020396Y013934D01*
X020396Y013989D02*
X019872Y013989D01*
X019872Y014044D02*
X020396Y014044D01*
X020396Y013509D02*
X019872Y013509D01*
X019872Y013733D01*
X020396Y013733D01*
X020396Y013509D01*
X020396Y013564D02*
X019872Y013564D01*
X019872Y013619D02*
X020396Y013619D01*
X020396Y013674D02*
X019872Y013674D01*
X019872Y013729D02*
X020396Y013729D01*
X020396Y013194D02*
X019872Y013194D01*
X019872Y013418D01*
X020396Y013418D01*
X020396Y013194D01*
X020396Y013249D02*
X019872Y013249D01*
X019872Y013304D02*
X020396Y013304D01*
X020396Y013359D02*
X019872Y013359D01*
X019872Y013414D02*
X020396Y013414D01*
X020396Y012879D02*
X019872Y012879D01*
X019872Y013103D01*
X020396Y013103D01*
X020396Y012879D01*
X020396Y012934D02*
X019872Y012934D01*
X019872Y012989D02*
X020396Y012989D01*
X020396Y013044D02*
X019872Y013044D01*
X019872Y013099D02*
X020396Y013099D01*
X020396Y012564D02*
X019872Y012564D01*
X019872Y012788D01*
X020396Y012788D01*
X020396Y012564D01*
X020396Y012619D02*
X019872Y012619D01*
X019872Y012674D02*
X020396Y012674D01*
X020396Y012729D02*
X019872Y012729D01*
X019872Y012784D02*
X020396Y012784D01*
X020396Y012249D02*
X019872Y012249D01*
X019872Y012473D01*
X020396Y012473D01*
X020396Y012249D01*
X020396Y012304D02*
X019872Y012304D01*
X019872Y012359D02*
X020396Y012359D01*
X020396Y012414D02*
X019872Y012414D01*
X019872Y012469D02*
X020396Y012469D01*
X020396Y011934D02*
X019872Y011934D01*
X019872Y012158D01*
X020396Y012158D01*
X020396Y011934D01*
X020396Y011989D02*
X019872Y011989D01*
X019872Y012044D02*
X020396Y012044D01*
X020396Y012099D02*
X019872Y012099D01*
X019872Y012154D02*
X020396Y012154D01*
X020610Y011196D02*
X020834Y011196D01*
X020610Y011196D02*
X020610Y011720D01*
X020834Y011720D01*
X020834Y011196D01*
X020834Y011251D02*
X020610Y011251D01*
X020610Y011306D02*
X020834Y011306D01*
X020834Y011361D02*
X020610Y011361D01*
X020610Y011416D02*
X020834Y011416D01*
X020834Y011471D02*
X020610Y011471D01*
X020610Y011526D02*
X020834Y011526D01*
X020834Y011581D02*
X020610Y011581D01*
X020610Y011636D02*
X020834Y011636D01*
X020834Y011691D02*
X020610Y011691D01*
X020925Y011196D02*
X021149Y011196D01*
X020925Y011196D02*
X020925Y011720D01*
X021149Y011720D01*
X021149Y011196D01*
X021149Y011251D02*
X020925Y011251D01*
X020925Y011306D02*
X021149Y011306D01*
X021149Y011361D02*
X020925Y011361D01*
X020925Y011416D02*
X021149Y011416D01*
X021149Y011471D02*
X020925Y011471D01*
X020925Y011526D02*
X021149Y011526D01*
X021149Y011581D02*
X020925Y011581D01*
X020925Y011636D02*
X021149Y011636D01*
X021149Y011691D02*
X020925Y011691D01*
X021239Y011196D02*
X021463Y011196D01*
X021239Y011196D02*
X021239Y011720D01*
X021463Y011720D01*
X021463Y011196D01*
X021463Y011251D02*
X021239Y011251D01*
X021239Y011306D02*
X021463Y011306D01*
X021463Y011361D02*
X021239Y011361D01*
X021239Y011416D02*
X021463Y011416D01*
X021463Y011471D02*
X021239Y011471D01*
X021239Y011526D02*
X021463Y011526D01*
X021463Y011581D02*
X021239Y011581D01*
X021239Y011636D02*
X021463Y011636D01*
X021463Y011691D02*
X021239Y011691D01*
X021554Y011196D02*
X021778Y011196D01*
X021554Y011196D02*
X021554Y011720D01*
X021778Y011720D01*
X021778Y011196D01*
X021778Y011251D02*
X021554Y011251D01*
X021554Y011306D02*
X021778Y011306D01*
X021778Y011361D02*
X021554Y011361D01*
X021554Y011416D02*
X021778Y011416D01*
X021778Y011471D02*
X021554Y011471D01*
X021554Y011526D02*
X021778Y011526D01*
X021778Y011581D02*
X021554Y011581D01*
X021554Y011636D02*
X021778Y011636D01*
X021778Y011691D02*
X021554Y011691D01*
X021869Y011196D02*
X022093Y011196D01*
X021869Y011196D02*
X021869Y011720D01*
X022093Y011720D01*
X022093Y011196D01*
X022093Y011251D02*
X021869Y011251D01*
X021869Y011306D02*
X022093Y011306D01*
X022093Y011361D02*
X021869Y011361D01*
X021869Y011416D02*
X022093Y011416D01*
X022093Y011471D02*
X021869Y011471D01*
X021869Y011526D02*
X022093Y011526D01*
X022093Y011581D02*
X021869Y011581D01*
X021869Y011636D02*
X022093Y011636D01*
X022093Y011691D02*
X021869Y011691D01*
X022184Y011196D02*
X022408Y011196D01*
X022184Y011196D02*
X022184Y011720D01*
X022408Y011720D01*
X022408Y011196D01*
X022408Y011251D02*
X022184Y011251D01*
X022184Y011306D02*
X022408Y011306D01*
X022408Y011361D02*
X022184Y011361D01*
X022184Y011416D02*
X022408Y011416D01*
X022408Y011471D02*
X022184Y011471D01*
X022184Y011526D02*
X022408Y011526D01*
X022408Y011581D02*
X022184Y011581D01*
X022184Y011636D02*
X022408Y011636D01*
X022408Y011691D02*
X022184Y011691D01*
X022499Y011196D02*
X022723Y011196D01*
X022499Y011196D02*
X022499Y011720D01*
X022723Y011720D01*
X022723Y011196D01*
X022723Y011251D02*
X022499Y011251D01*
X022499Y011306D02*
X022723Y011306D01*
X022723Y011361D02*
X022499Y011361D01*
X022499Y011416D02*
X022723Y011416D01*
X022723Y011471D02*
X022499Y011471D01*
X022499Y011526D02*
X022723Y011526D01*
X022723Y011581D02*
X022499Y011581D01*
X022499Y011636D02*
X022723Y011636D01*
X022723Y011691D02*
X022499Y011691D01*
X022814Y011196D02*
X023038Y011196D01*
X022814Y011196D02*
X022814Y011720D01*
X023038Y011720D01*
X023038Y011196D01*
X023038Y011251D02*
X022814Y011251D01*
X022814Y011306D02*
X023038Y011306D01*
X023038Y011361D02*
X022814Y011361D01*
X022814Y011416D02*
X023038Y011416D01*
X023038Y011471D02*
X022814Y011471D01*
X022814Y011526D02*
X023038Y011526D01*
X023038Y011581D02*
X022814Y011581D01*
X022814Y011636D02*
X023038Y011636D01*
X023038Y011691D02*
X022814Y011691D01*
X023252Y011934D02*
X023776Y011934D01*
X023252Y011934D02*
X023252Y012158D01*
X023776Y012158D01*
X023776Y011934D01*
X023776Y011989D02*
X023252Y011989D01*
X023252Y012044D02*
X023776Y012044D01*
X023776Y012099D02*
X023252Y012099D01*
X023252Y012154D02*
X023776Y012154D01*
X023776Y012249D02*
X023252Y012249D01*
X023252Y012473D01*
X023776Y012473D01*
X023776Y012249D01*
X023776Y012304D02*
X023252Y012304D01*
X023252Y012359D02*
X023776Y012359D01*
X023776Y012414D02*
X023252Y012414D01*
X023252Y012469D02*
X023776Y012469D01*
X023776Y012564D02*
X023252Y012564D01*
X023252Y012788D01*
X023776Y012788D01*
X023776Y012564D01*
X023776Y012619D02*
X023252Y012619D01*
X023252Y012674D02*
X023776Y012674D01*
X023776Y012729D02*
X023252Y012729D01*
X023252Y012784D02*
X023776Y012784D01*
X023776Y012879D02*
X023252Y012879D01*
X023252Y013103D01*
X023776Y013103D01*
X023776Y012879D01*
X023776Y012934D02*
X023252Y012934D01*
X023252Y012989D02*
X023776Y012989D01*
X023776Y013044D02*
X023252Y013044D01*
X023252Y013099D02*
X023776Y013099D01*
X023776Y013194D02*
X023252Y013194D01*
X023252Y013418D01*
X023776Y013418D01*
X023776Y013194D01*
X023776Y013249D02*
X023252Y013249D01*
X023252Y013304D02*
X023776Y013304D01*
X023776Y013359D02*
X023252Y013359D01*
X023252Y013414D02*
X023776Y013414D01*
X023776Y013509D02*
X023252Y013509D01*
X023252Y013733D01*
X023776Y013733D01*
X023776Y013509D01*
X023776Y013564D02*
X023252Y013564D01*
X023252Y013619D02*
X023776Y013619D01*
X023776Y013674D02*
X023252Y013674D01*
X023252Y013729D02*
X023776Y013729D01*
X023776Y013824D02*
X023252Y013824D01*
X023252Y014048D01*
X023776Y014048D01*
X023776Y013824D01*
X023776Y013879D02*
X023252Y013879D01*
X023252Y013934D02*
X023776Y013934D01*
X023776Y013989D02*
X023252Y013989D01*
X023252Y014044D02*
X023776Y014044D01*
X023776Y014139D02*
X023252Y014139D01*
X023252Y014363D01*
X023776Y014363D01*
X023776Y014139D01*
X023776Y014194D02*
X023252Y014194D01*
X023252Y014249D02*
X023776Y014249D01*
X023776Y014304D02*
X023252Y014304D01*
X023252Y014359D02*
X023776Y014359D01*
X023038Y014576D02*
X022814Y014576D01*
X022814Y015100D01*
X023038Y015100D01*
X023038Y014576D01*
X023038Y014631D02*
X022814Y014631D01*
X022814Y014686D02*
X023038Y014686D01*
X023038Y014741D02*
X022814Y014741D01*
X022814Y014796D02*
X023038Y014796D01*
X023038Y014851D02*
X022814Y014851D01*
X022814Y014906D02*
X023038Y014906D01*
X023038Y014961D02*
X022814Y014961D01*
X022814Y015016D02*
X023038Y015016D01*
X023038Y015071D02*
X022814Y015071D01*
X022723Y014576D02*
X022499Y014576D01*
X022499Y015100D01*
X022723Y015100D01*
X022723Y014576D01*
X022723Y014631D02*
X022499Y014631D01*
X022499Y014686D02*
X022723Y014686D01*
X022723Y014741D02*
X022499Y014741D01*
X022499Y014796D02*
X022723Y014796D01*
X022723Y014851D02*
X022499Y014851D01*
X022499Y014906D02*
X022723Y014906D01*
X022723Y014961D02*
X022499Y014961D01*
X022499Y015016D02*
X022723Y015016D01*
X022723Y015071D02*
X022499Y015071D01*
X022408Y014576D02*
X022184Y014576D01*
X022184Y015100D01*
X022408Y015100D01*
X022408Y014576D01*
X022408Y014631D02*
X022184Y014631D01*
X022184Y014686D02*
X022408Y014686D01*
X022408Y014741D02*
X022184Y014741D01*
X022184Y014796D02*
X022408Y014796D01*
X022408Y014851D02*
X022184Y014851D01*
X022184Y014906D02*
X022408Y014906D01*
X022408Y014961D02*
X022184Y014961D01*
X022184Y015016D02*
X022408Y015016D01*
X022408Y015071D02*
X022184Y015071D01*
X022093Y014576D02*
X021869Y014576D01*
X021869Y015100D01*
X022093Y015100D01*
X022093Y014576D01*
X022093Y014631D02*
X021869Y014631D01*
X021869Y014686D02*
X022093Y014686D01*
X022093Y014741D02*
X021869Y014741D01*
X021869Y014796D02*
X022093Y014796D01*
X022093Y014851D02*
X021869Y014851D01*
X021869Y014906D02*
X022093Y014906D01*
X022093Y014961D02*
X021869Y014961D01*
X021869Y015016D02*
X022093Y015016D01*
X022093Y015071D02*
X021869Y015071D01*
X021778Y014576D02*
X021554Y014576D01*
X021554Y015100D01*
X021778Y015100D01*
X021778Y014576D01*
X021778Y014631D02*
X021554Y014631D01*
X021554Y014686D02*
X021778Y014686D01*
X021778Y014741D02*
X021554Y014741D01*
X021554Y014796D02*
X021778Y014796D01*
X021778Y014851D02*
X021554Y014851D01*
X021554Y014906D02*
X021778Y014906D01*
X021778Y014961D02*
X021554Y014961D01*
X021554Y015016D02*
X021778Y015016D01*
X021778Y015071D02*
X021554Y015071D01*
X021463Y014576D02*
X021239Y014576D01*
X021239Y015100D01*
X021463Y015100D01*
X021463Y014576D01*
X021463Y014631D02*
X021239Y014631D01*
X021239Y014686D02*
X021463Y014686D01*
X021463Y014741D02*
X021239Y014741D01*
X021239Y014796D02*
X021463Y014796D01*
X021463Y014851D02*
X021239Y014851D01*
X021239Y014906D02*
X021463Y014906D01*
X021463Y014961D02*
X021239Y014961D01*
X021239Y015016D02*
X021463Y015016D01*
X021463Y015071D02*
X021239Y015071D01*
X021149Y014576D02*
X020925Y014576D01*
X020925Y015100D01*
X021149Y015100D01*
X021149Y014576D01*
X021149Y014631D02*
X020925Y014631D01*
X020925Y014686D02*
X021149Y014686D01*
X021149Y014741D02*
X020925Y014741D01*
X020925Y014796D02*
X021149Y014796D01*
X021149Y014851D02*
X020925Y014851D01*
X020925Y014906D02*
X021149Y014906D01*
X021149Y014961D02*
X020925Y014961D01*
X020925Y015016D02*
X021149Y015016D01*
X021149Y015071D02*
X020925Y015071D01*
X020834Y014576D02*
X020610Y014576D01*
X020610Y015100D01*
X020834Y015100D01*
X020834Y014576D01*
X020834Y014631D02*
X020610Y014631D01*
X020610Y014686D02*
X020834Y014686D01*
X020834Y014741D02*
X020610Y014741D01*
X020610Y014796D02*
X020834Y014796D01*
X020834Y014851D02*
X020610Y014851D01*
X020610Y014906D02*
X020834Y014906D01*
X020834Y014961D02*
X020610Y014961D01*
X020610Y015016D02*
X020834Y015016D01*
X020834Y015071D02*
X020610Y015071D01*
D23*
X025261Y010999D03*
X026261Y010999D03*
X026261Y009999D03*
X025261Y009999D03*
X025261Y008999D03*
X026261Y008999D03*
D24*
X024808Y013254D02*
X024730Y013254D01*
X025573Y013739D02*
X025573Y013817D01*
X026342Y013817D02*
X026342Y013739D01*
X024808Y014024D02*
X024730Y014024D01*
X026203Y015078D02*
X026203Y015156D01*
X026972Y015156D02*
X026972Y015078D01*
X028526Y015078D02*
X028526Y015156D01*
X029295Y015156D02*
X029295Y015078D01*
X030378Y020673D02*
X030378Y020751D01*
X031148Y020751D02*
X031148Y020673D01*
X031148Y021876D02*
X031148Y021954D01*
X030378Y021954D02*
X030378Y021876D01*
X028901Y021849D02*
X028901Y021771D01*
X028132Y021771D02*
X028132Y021849D01*
X027327Y021849D02*
X027327Y021771D01*
X026557Y021771D02*
X026557Y021849D01*
X026146Y020668D02*
X026146Y020590D01*
X025376Y020590D02*
X025376Y020668D01*
X019501Y016683D02*
X019423Y016683D01*
X019423Y015913D02*
X019501Y015913D01*
X017074Y012830D02*
X017074Y012752D01*
X016304Y012752D02*
X016304Y012830D01*
X016318Y010643D02*
X016318Y010565D01*
X017087Y010565D02*
X017087Y010643D01*
X026022Y002790D02*
X026022Y002712D01*
X026791Y002712D02*
X026791Y002790D01*
D25*
X027048Y004167D02*
X027048Y004807D01*
X026048Y004807D02*
X026048Y004167D01*
X025048Y004167D02*
X025048Y004807D01*
X024048Y004807D02*
X024048Y004167D01*
X023048Y004167D02*
X023048Y004807D01*
X021387Y004807D02*
X021387Y004167D01*
X020387Y004167D02*
X020387Y004807D01*
X019387Y004807D02*
X019387Y004167D01*
X018387Y004167D02*
X018387Y004807D01*
X017387Y004807D02*
X017387Y004167D01*
X016387Y004167D02*
X016387Y004807D01*
X015387Y004807D02*
X015387Y004167D01*
X014387Y004167D02*
X014387Y004807D01*
X028048Y004807D02*
X028048Y004167D01*
X029048Y004167D02*
X029048Y004807D01*
X030048Y004807D02*
X030048Y004167D01*
X023325Y019448D02*
X022685Y019448D01*
X022785Y020448D02*
X023425Y020448D01*
X023325Y021448D02*
X022685Y021448D01*
X022686Y023065D02*
X022686Y023705D01*
X021686Y023705D02*
X021686Y023065D01*
X023686Y023065D02*
X023686Y023705D01*
X024686Y023705D02*
X024686Y023065D01*
X025686Y023065D02*
X025686Y023705D01*
X026686Y023705D02*
X026686Y023065D01*
X019600Y023065D02*
X019600Y023705D01*
X018600Y023705D02*
X018600Y023065D01*
X017600Y023065D02*
X017600Y023705D01*
X016600Y023705D02*
X016600Y023065D01*
X015600Y023065D02*
X015600Y023705D01*
X014600Y023705D02*
X014600Y023065D01*
D26*
X025990Y019628D02*
X025990Y019444D01*
X025990Y019628D02*
X026614Y019628D01*
X026614Y019444D01*
X025990Y019444D01*
X025990Y019489D02*
X026614Y019489D01*
X026614Y019534D02*
X025990Y019534D01*
X025990Y019579D02*
X026614Y019579D01*
X026614Y019624D02*
X025990Y019624D01*
X025990Y019372D02*
X025990Y019188D01*
X025990Y019372D02*
X026614Y019372D01*
X026614Y019188D01*
X025990Y019188D01*
X025990Y019233D02*
X026614Y019233D01*
X026614Y019278D02*
X025990Y019278D01*
X025990Y019323D02*
X026614Y019323D01*
X026614Y019368D02*
X025990Y019368D01*
X025990Y019116D02*
X025990Y018932D01*
X025990Y019116D02*
X026614Y019116D01*
X026614Y018932D01*
X025990Y018932D01*
X025990Y018977D02*
X026614Y018977D01*
X026614Y019022D02*
X025990Y019022D01*
X025990Y019067D02*
X026614Y019067D01*
X026614Y019112D02*
X025990Y019112D01*
X025990Y018860D02*
X025990Y018676D01*
X025990Y018860D02*
X026614Y018860D01*
X026614Y018676D01*
X025990Y018676D01*
X025990Y018721D02*
X026614Y018721D01*
X026614Y018766D02*
X025990Y018766D01*
X025990Y018811D02*
X026614Y018811D01*
X026614Y018856D02*
X025990Y018856D01*
X025990Y018605D02*
X025990Y018421D01*
X025990Y018605D02*
X026614Y018605D01*
X026614Y018421D01*
X025990Y018421D01*
X025990Y018466D02*
X026614Y018466D01*
X026614Y018511D02*
X025990Y018511D01*
X025990Y018556D02*
X026614Y018556D01*
X026614Y018601D02*
X025990Y018601D01*
X025990Y018349D02*
X025990Y018165D01*
X025990Y018349D02*
X026614Y018349D01*
X026614Y018165D01*
X025990Y018165D01*
X025990Y018210D02*
X026614Y018210D01*
X026614Y018255D02*
X025990Y018255D01*
X025990Y018300D02*
X026614Y018300D01*
X026614Y018345D02*
X025990Y018345D01*
X025990Y018093D02*
X025990Y017909D01*
X025990Y018093D02*
X026614Y018093D01*
X026614Y017909D01*
X025990Y017909D01*
X025990Y017954D02*
X026614Y017954D01*
X026614Y017999D02*
X025990Y017999D01*
X025990Y018044D02*
X026614Y018044D01*
X026614Y018089D02*
X025990Y018089D01*
X025990Y017837D02*
X025990Y017653D01*
X025990Y017837D02*
X026614Y017837D01*
X026614Y017653D01*
X025990Y017653D01*
X025990Y017698D02*
X026614Y017698D01*
X026614Y017743D02*
X025990Y017743D01*
X025990Y017788D02*
X026614Y017788D01*
X026614Y017833D02*
X025990Y017833D01*
X025990Y017581D02*
X025990Y017397D01*
X025990Y017581D02*
X026614Y017581D01*
X026614Y017397D01*
X025990Y017397D01*
X025990Y017442D02*
X026614Y017442D01*
X026614Y017487D02*
X025990Y017487D01*
X025990Y017532D02*
X026614Y017532D01*
X026614Y017577D02*
X025990Y017577D01*
X025990Y017325D02*
X025990Y017141D01*
X025990Y017325D02*
X026614Y017325D01*
X026614Y017141D01*
X025990Y017141D01*
X025990Y017186D02*
X026614Y017186D01*
X026614Y017231D02*
X025990Y017231D01*
X025990Y017276D02*
X026614Y017276D01*
X026614Y017321D02*
X025990Y017321D01*
X025990Y017069D02*
X025990Y016885D01*
X025990Y017069D02*
X026614Y017069D01*
X026614Y016885D01*
X025990Y016885D01*
X025990Y016930D02*
X026614Y016930D01*
X026614Y016975D02*
X025990Y016975D01*
X025990Y017020D02*
X026614Y017020D01*
X026614Y017065D02*
X025990Y017065D01*
X025990Y016813D02*
X025990Y016629D01*
X025990Y016813D02*
X026614Y016813D01*
X026614Y016629D01*
X025990Y016629D01*
X025990Y016674D02*
X026614Y016674D01*
X026614Y016719D02*
X025990Y016719D01*
X025990Y016764D02*
X026614Y016764D01*
X026614Y016809D02*
X025990Y016809D01*
X025990Y016557D02*
X025990Y016373D01*
X025990Y016557D02*
X026614Y016557D01*
X026614Y016373D01*
X025990Y016373D01*
X025990Y016418D02*
X026614Y016418D01*
X026614Y016463D02*
X025990Y016463D01*
X025990Y016508D02*
X026614Y016508D01*
X026614Y016553D02*
X025990Y016553D01*
X025990Y016301D02*
X025990Y016117D01*
X025990Y016301D02*
X026614Y016301D01*
X026614Y016117D01*
X025990Y016117D01*
X025990Y016162D02*
X026614Y016162D01*
X026614Y016207D02*
X025990Y016207D01*
X025990Y016252D02*
X026614Y016252D01*
X026614Y016297D02*
X025990Y016297D01*
X028845Y016301D02*
X028845Y016117D01*
X028845Y016301D02*
X029469Y016301D01*
X029469Y016117D01*
X028845Y016117D01*
X028845Y016162D02*
X029469Y016162D01*
X029469Y016207D02*
X028845Y016207D01*
X028845Y016252D02*
X029469Y016252D01*
X029469Y016297D02*
X028845Y016297D01*
X028845Y016373D02*
X028845Y016557D01*
X029469Y016557D01*
X029469Y016373D01*
X028845Y016373D01*
X028845Y016418D02*
X029469Y016418D01*
X029469Y016463D02*
X028845Y016463D01*
X028845Y016508D02*
X029469Y016508D01*
X029469Y016553D02*
X028845Y016553D01*
X028845Y016629D02*
X028845Y016813D01*
X029469Y016813D01*
X029469Y016629D01*
X028845Y016629D01*
X028845Y016674D02*
X029469Y016674D01*
X029469Y016719D02*
X028845Y016719D01*
X028845Y016764D02*
X029469Y016764D01*
X029469Y016809D02*
X028845Y016809D01*
X028845Y016885D02*
X028845Y017069D01*
X029469Y017069D01*
X029469Y016885D01*
X028845Y016885D01*
X028845Y016930D02*
X029469Y016930D01*
X029469Y016975D02*
X028845Y016975D01*
X028845Y017020D02*
X029469Y017020D01*
X029469Y017065D02*
X028845Y017065D01*
X028845Y017141D02*
X028845Y017325D01*
X029469Y017325D01*
X029469Y017141D01*
X028845Y017141D01*
X028845Y017186D02*
X029469Y017186D01*
X029469Y017231D02*
X028845Y017231D01*
X028845Y017276D02*
X029469Y017276D01*
X029469Y017321D02*
X028845Y017321D01*
X028845Y017397D02*
X028845Y017581D01*
X029469Y017581D01*
X029469Y017397D01*
X028845Y017397D01*
X028845Y017442D02*
X029469Y017442D01*
X029469Y017487D02*
X028845Y017487D01*
X028845Y017532D02*
X029469Y017532D01*
X029469Y017577D02*
X028845Y017577D01*
X028845Y017653D02*
X028845Y017837D01*
X029469Y017837D01*
X029469Y017653D01*
X028845Y017653D01*
X028845Y017698D02*
X029469Y017698D01*
X029469Y017743D02*
X028845Y017743D01*
X028845Y017788D02*
X029469Y017788D01*
X029469Y017833D02*
X028845Y017833D01*
X028845Y017909D02*
X028845Y018093D01*
X029469Y018093D01*
X029469Y017909D01*
X028845Y017909D01*
X028845Y017954D02*
X029469Y017954D01*
X029469Y017999D02*
X028845Y017999D01*
X028845Y018044D02*
X029469Y018044D01*
X029469Y018089D02*
X028845Y018089D01*
X028845Y018165D02*
X028845Y018349D01*
X029469Y018349D01*
X029469Y018165D01*
X028845Y018165D01*
X028845Y018210D02*
X029469Y018210D01*
X029469Y018255D02*
X028845Y018255D01*
X028845Y018300D02*
X029469Y018300D01*
X029469Y018345D02*
X028845Y018345D01*
X028845Y018421D02*
X028845Y018605D01*
X029469Y018605D01*
X029469Y018421D01*
X028845Y018421D01*
X028845Y018466D02*
X029469Y018466D01*
X029469Y018511D02*
X028845Y018511D01*
X028845Y018556D02*
X029469Y018556D01*
X029469Y018601D02*
X028845Y018601D01*
X028845Y018676D02*
X028845Y018860D01*
X029469Y018860D01*
X029469Y018676D01*
X028845Y018676D01*
X028845Y018721D02*
X029469Y018721D01*
X029469Y018766D02*
X028845Y018766D01*
X028845Y018811D02*
X029469Y018811D01*
X029469Y018856D02*
X028845Y018856D01*
X028845Y018932D02*
X028845Y019116D01*
X029469Y019116D01*
X029469Y018932D01*
X028845Y018932D01*
X028845Y018977D02*
X029469Y018977D01*
X029469Y019022D02*
X028845Y019022D01*
X028845Y019067D02*
X029469Y019067D01*
X029469Y019112D02*
X028845Y019112D01*
X028845Y019188D02*
X028845Y019372D01*
X029469Y019372D01*
X029469Y019188D01*
X028845Y019188D01*
X028845Y019233D02*
X029469Y019233D01*
X029469Y019278D02*
X028845Y019278D01*
X028845Y019323D02*
X029469Y019323D01*
X029469Y019368D02*
X028845Y019368D01*
X028845Y019444D02*
X028845Y019628D01*
X029469Y019628D01*
X029469Y019444D01*
X028845Y019444D01*
X028845Y019489D02*
X029469Y019489D01*
X029469Y019534D02*
X028845Y019534D01*
X028845Y019579D02*
X029469Y019579D01*
X029469Y019624D02*
X028845Y019624D01*
D27*
X025667Y021810D03*
X025067Y021810D03*
D28*
X025367Y021810D03*
D29*
X024820Y002751D03*
X023993Y002751D03*
D30*
X033422Y020121D03*
X033422Y020436D03*
X033422Y020751D03*
X033422Y021066D03*
X033422Y021381D03*
D31*
X033422Y022522D03*
X035588Y022522D03*
X035588Y018979D03*
X033422Y018979D03*
D32*
X034407Y019885D03*
X034407Y021617D03*
D33*
X018407Y012538D03*
X018407Y010963D03*
D34*
X002139Y002125D03*
X002139Y025747D03*
M02*
