G75*
G70*
%OFA0B0*%
%FSLAX24Y24*%
%IPPOS*%
%LPD*%
%AMOC8*
5,1,8,0,0,1.08239X$1,22.5*
%
%ADD10C,0.1064*%
%ADD11C,0.0700*%
%ADD12C,0.0640*%
%ADD13R,0.0986X0.0710*%
%ADD14R,0.0710X0.0986*%
%ADD15C,0.0820*%
%ADD16R,0.0552X0.0395*%
%ADD17R,0.0395X0.0434*%
%ADD18R,0.0395X0.0552*%
%ADD19R,0.0671X0.2245*%
%ADD20R,0.0671X0.0671*%
%ADD21OC8,0.1080*%
%ADD22C,0.0056*%
%ADD23OC8,0.0720*%
%ADD24C,0.0592*%
%ADD25C,0.0720*%
%ADD26R,0.0780X0.2080*%
%ADD27C,0.0046*%
%ADD28OC8,0.0694*%
%ADD29C,0.1346*%
%ADD30R,0.0540X0.0710*%
%ADD31R,0.0060X0.0720*%
D10*
X010003Y009214D03*
X010003Y024174D03*
D11*
X006775Y024332D03*
D12*
X005878Y011820D02*
X005318Y011820D01*
X005318Y010820D02*
X005878Y010820D01*
X005878Y009820D02*
X005318Y009820D01*
X005318Y008820D02*
X005878Y008820D01*
X005878Y007820D02*
X005318Y007820D01*
X005318Y006820D02*
X005878Y006820D01*
X005878Y005820D02*
X005318Y005820D01*
X002878Y005820D02*
X002318Y005820D01*
X002318Y006820D02*
X002878Y006820D01*
X002878Y007820D02*
X002318Y007820D01*
X002318Y008820D02*
X002878Y008820D01*
X002878Y009820D02*
X002318Y009820D01*
X002318Y010820D02*
X002878Y010820D01*
X002878Y011820D02*
X002318Y011820D01*
D13*
X006007Y027324D03*
X006007Y029293D03*
X006007Y031261D03*
X008487Y031261D03*
X008487Y029293D03*
X008487Y027324D03*
D14*
X006066Y001674D03*
X006066Y004155D03*
X010003Y004155D03*
X010003Y001674D03*
D15*
X001342Y006033D03*
X001342Y010033D03*
D16*
X000948Y011222D03*
X000948Y011930D03*
X002523Y012797D03*
X002523Y013505D03*
X002523Y015552D03*
X002523Y016261D03*
X002523Y016734D03*
X002523Y017442D03*
X004098Y020277D03*
X004098Y020986D03*
X005672Y020198D03*
X005672Y019489D03*
X005672Y022639D03*
X005672Y023348D03*
X004885Y025001D03*
X004098Y025001D03*
X004098Y025710D03*
X004885Y025710D03*
D17*
X005279Y021458D03*
X005653Y020631D03*
X004905Y020631D03*
X002523Y014765D03*
X002897Y013938D03*
X002149Y013938D03*
D18*
X003743Y013151D03*
X004452Y013151D03*
X002090Y020237D03*
X001381Y020237D03*
X001381Y021419D03*
X002090Y021419D03*
D19*
X005279Y017993D03*
X005279Y014608D03*
D20*
X004098Y022304D03*
X004098Y023682D03*
D21*
X002129Y018663D03*
D22*
X021043Y016503D02*
X021567Y016503D01*
X021043Y016503D02*
X021043Y016727D01*
X021567Y016727D01*
X021567Y016503D01*
X021567Y016558D02*
X021043Y016558D01*
X021043Y016613D02*
X021567Y016613D01*
X021567Y016668D02*
X021043Y016668D01*
X021043Y016723D02*
X021567Y016723D01*
X021781Y016941D02*
X022005Y016941D01*
X021781Y016941D02*
X021781Y017465D01*
X022005Y017465D01*
X022005Y016941D01*
X022005Y016996D02*
X021781Y016996D01*
X021781Y017051D02*
X022005Y017051D01*
X022005Y017106D02*
X021781Y017106D01*
X021781Y017161D02*
X022005Y017161D01*
X022005Y017216D02*
X021781Y017216D01*
X021781Y017271D02*
X022005Y017271D01*
X022005Y017326D02*
X021781Y017326D01*
X021781Y017381D02*
X022005Y017381D01*
X022005Y017436D02*
X021781Y017436D01*
X022096Y016941D02*
X022320Y016941D01*
X022096Y016941D02*
X022096Y017465D01*
X022320Y017465D01*
X022320Y016941D01*
X022320Y016996D02*
X022096Y016996D01*
X022096Y017051D02*
X022320Y017051D01*
X022320Y017106D02*
X022096Y017106D01*
X022096Y017161D02*
X022320Y017161D01*
X022320Y017216D02*
X022096Y017216D01*
X022096Y017271D02*
X022320Y017271D01*
X022320Y017326D02*
X022096Y017326D01*
X022096Y017381D02*
X022320Y017381D01*
X022320Y017436D02*
X022096Y017436D01*
X022411Y016941D02*
X022635Y016941D01*
X022411Y016941D02*
X022411Y017465D01*
X022635Y017465D01*
X022635Y016941D01*
X022635Y016996D02*
X022411Y016996D01*
X022411Y017051D02*
X022635Y017051D01*
X022635Y017106D02*
X022411Y017106D01*
X022411Y017161D02*
X022635Y017161D01*
X022635Y017216D02*
X022411Y017216D01*
X022411Y017271D02*
X022635Y017271D01*
X022635Y017326D02*
X022411Y017326D01*
X022411Y017381D02*
X022635Y017381D01*
X022635Y017436D02*
X022411Y017436D01*
X022726Y016941D02*
X022950Y016941D01*
X022726Y016941D02*
X022726Y017465D01*
X022950Y017465D01*
X022950Y016941D01*
X022950Y016996D02*
X022726Y016996D01*
X022726Y017051D02*
X022950Y017051D01*
X022950Y017106D02*
X022726Y017106D01*
X022726Y017161D02*
X022950Y017161D01*
X022950Y017216D02*
X022726Y017216D01*
X022726Y017271D02*
X022950Y017271D01*
X022950Y017326D02*
X022726Y017326D01*
X022726Y017381D02*
X022950Y017381D01*
X022950Y017436D02*
X022726Y017436D01*
X023041Y016941D02*
X023265Y016941D01*
X023041Y016941D02*
X023041Y017465D01*
X023265Y017465D01*
X023265Y016941D01*
X023265Y016996D02*
X023041Y016996D01*
X023041Y017051D02*
X023265Y017051D01*
X023265Y017106D02*
X023041Y017106D01*
X023041Y017161D02*
X023265Y017161D01*
X023265Y017216D02*
X023041Y017216D01*
X023041Y017271D02*
X023265Y017271D01*
X023265Y017326D02*
X023041Y017326D01*
X023041Y017381D02*
X023265Y017381D01*
X023265Y017436D02*
X023041Y017436D01*
X023356Y016941D02*
X023580Y016941D01*
X023356Y016941D02*
X023356Y017465D01*
X023580Y017465D01*
X023580Y016941D01*
X023580Y016996D02*
X023356Y016996D01*
X023356Y017051D02*
X023580Y017051D01*
X023580Y017106D02*
X023356Y017106D01*
X023356Y017161D02*
X023580Y017161D01*
X023580Y017216D02*
X023356Y017216D01*
X023356Y017271D02*
X023580Y017271D01*
X023580Y017326D02*
X023356Y017326D01*
X023356Y017381D02*
X023580Y017381D01*
X023580Y017436D02*
X023356Y017436D01*
X023671Y016941D02*
X023895Y016941D01*
X023671Y016941D02*
X023671Y017465D01*
X023895Y017465D01*
X023895Y016941D01*
X023895Y016996D02*
X023671Y016996D01*
X023671Y017051D02*
X023895Y017051D01*
X023895Y017106D02*
X023671Y017106D01*
X023671Y017161D02*
X023895Y017161D01*
X023895Y017216D02*
X023671Y017216D01*
X023671Y017271D02*
X023895Y017271D01*
X023895Y017326D02*
X023671Y017326D01*
X023671Y017381D02*
X023895Y017381D01*
X023895Y017436D02*
X023671Y017436D01*
X023986Y016941D02*
X024210Y016941D01*
X023986Y016941D02*
X023986Y017465D01*
X024210Y017465D01*
X024210Y016941D01*
X024210Y016996D02*
X023986Y016996D01*
X023986Y017051D02*
X024210Y017051D01*
X024210Y017106D02*
X023986Y017106D01*
X023986Y017161D02*
X024210Y017161D01*
X024210Y017216D02*
X023986Y017216D01*
X023986Y017271D02*
X024210Y017271D01*
X024210Y017326D02*
X023986Y017326D01*
X023986Y017381D02*
X024210Y017381D01*
X024210Y017436D02*
X023986Y017436D01*
X024423Y016503D02*
X024947Y016503D01*
X024423Y016503D02*
X024423Y016727D01*
X024947Y016727D01*
X024947Y016503D01*
X024947Y016558D02*
X024423Y016558D01*
X024423Y016613D02*
X024947Y016613D01*
X024947Y016668D02*
X024423Y016668D01*
X024423Y016723D02*
X024947Y016723D01*
X024947Y016188D02*
X024423Y016188D01*
X024423Y016412D01*
X024947Y016412D01*
X024947Y016188D01*
X024947Y016243D02*
X024423Y016243D01*
X024423Y016298D02*
X024947Y016298D01*
X024947Y016353D02*
X024423Y016353D01*
X024423Y016408D02*
X024947Y016408D01*
X024947Y015874D02*
X024423Y015874D01*
X024423Y016098D01*
X024947Y016098D01*
X024947Y015874D01*
X024947Y015929D02*
X024423Y015929D01*
X024423Y015984D02*
X024947Y015984D01*
X024947Y016039D02*
X024423Y016039D01*
X024423Y016094D02*
X024947Y016094D01*
X024947Y015559D02*
X024423Y015559D01*
X024423Y015783D01*
X024947Y015783D01*
X024947Y015559D01*
X024947Y015614D02*
X024423Y015614D01*
X024423Y015669D02*
X024947Y015669D01*
X024947Y015724D02*
X024423Y015724D01*
X024423Y015779D02*
X024947Y015779D01*
X024947Y015244D02*
X024423Y015244D01*
X024423Y015468D01*
X024947Y015468D01*
X024947Y015244D01*
X024947Y015299D02*
X024423Y015299D01*
X024423Y015354D02*
X024947Y015354D01*
X024947Y015409D02*
X024423Y015409D01*
X024423Y015464D02*
X024947Y015464D01*
X024947Y014929D02*
X024423Y014929D01*
X024423Y015153D01*
X024947Y015153D01*
X024947Y014929D01*
X024947Y014984D02*
X024423Y014984D01*
X024423Y015039D02*
X024947Y015039D01*
X024947Y015094D02*
X024423Y015094D01*
X024423Y015149D02*
X024947Y015149D01*
X024947Y014614D02*
X024423Y014614D01*
X024423Y014838D01*
X024947Y014838D01*
X024947Y014614D01*
X024947Y014669D02*
X024423Y014669D01*
X024423Y014724D02*
X024947Y014724D01*
X024947Y014779D02*
X024423Y014779D01*
X024423Y014834D02*
X024947Y014834D01*
X024947Y014299D02*
X024423Y014299D01*
X024423Y014523D01*
X024947Y014523D01*
X024947Y014299D01*
X024947Y014354D02*
X024423Y014354D01*
X024423Y014409D02*
X024947Y014409D01*
X024947Y014464D02*
X024423Y014464D01*
X024423Y014519D02*
X024947Y014519D01*
X024210Y013561D02*
X023986Y013561D01*
X023986Y014085D01*
X024210Y014085D01*
X024210Y013561D01*
X024210Y013616D02*
X023986Y013616D01*
X023986Y013671D02*
X024210Y013671D01*
X024210Y013726D02*
X023986Y013726D01*
X023986Y013781D02*
X024210Y013781D01*
X024210Y013836D02*
X023986Y013836D01*
X023986Y013891D02*
X024210Y013891D01*
X024210Y013946D02*
X023986Y013946D01*
X023986Y014001D02*
X024210Y014001D01*
X024210Y014056D02*
X023986Y014056D01*
X023895Y013561D02*
X023671Y013561D01*
X023671Y014085D01*
X023895Y014085D01*
X023895Y013561D01*
X023895Y013616D02*
X023671Y013616D01*
X023671Y013671D02*
X023895Y013671D01*
X023895Y013726D02*
X023671Y013726D01*
X023671Y013781D02*
X023895Y013781D01*
X023895Y013836D02*
X023671Y013836D01*
X023671Y013891D02*
X023895Y013891D01*
X023895Y013946D02*
X023671Y013946D01*
X023671Y014001D02*
X023895Y014001D01*
X023895Y014056D02*
X023671Y014056D01*
X023580Y013561D02*
X023356Y013561D01*
X023356Y014085D01*
X023580Y014085D01*
X023580Y013561D01*
X023580Y013616D02*
X023356Y013616D01*
X023356Y013671D02*
X023580Y013671D01*
X023580Y013726D02*
X023356Y013726D01*
X023356Y013781D02*
X023580Y013781D01*
X023580Y013836D02*
X023356Y013836D01*
X023356Y013891D02*
X023580Y013891D01*
X023580Y013946D02*
X023356Y013946D01*
X023356Y014001D02*
X023580Y014001D01*
X023580Y014056D02*
X023356Y014056D01*
X023265Y013561D02*
X023041Y013561D01*
X023041Y014085D01*
X023265Y014085D01*
X023265Y013561D01*
X023265Y013616D02*
X023041Y013616D01*
X023041Y013671D02*
X023265Y013671D01*
X023265Y013726D02*
X023041Y013726D01*
X023041Y013781D02*
X023265Y013781D01*
X023265Y013836D02*
X023041Y013836D01*
X023041Y013891D02*
X023265Y013891D01*
X023265Y013946D02*
X023041Y013946D01*
X023041Y014001D02*
X023265Y014001D01*
X023265Y014056D02*
X023041Y014056D01*
X022950Y013561D02*
X022726Y013561D01*
X022726Y014085D01*
X022950Y014085D01*
X022950Y013561D01*
X022950Y013616D02*
X022726Y013616D01*
X022726Y013671D02*
X022950Y013671D01*
X022950Y013726D02*
X022726Y013726D01*
X022726Y013781D02*
X022950Y013781D01*
X022950Y013836D02*
X022726Y013836D01*
X022726Y013891D02*
X022950Y013891D01*
X022950Y013946D02*
X022726Y013946D01*
X022726Y014001D02*
X022950Y014001D01*
X022950Y014056D02*
X022726Y014056D01*
X022635Y013561D02*
X022411Y013561D01*
X022411Y014085D01*
X022635Y014085D01*
X022635Y013561D01*
X022635Y013616D02*
X022411Y013616D01*
X022411Y013671D02*
X022635Y013671D01*
X022635Y013726D02*
X022411Y013726D01*
X022411Y013781D02*
X022635Y013781D01*
X022635Y013836D02*
X022411Y013836D01*
X022411Y013891D02*
X022635Y013891D01*
X022635Y013946D02*
X022411Y013946D01*
X022411Y014001D02*
X022635Y014001D01*
X022635Y014056D02*
X022411Y014056D01*
X022320Y013561D02*
X022096Y013561D01*
X022096Y014085D01*
X022320Y014085D01*
X022320Y013561D01*
X022320Y013616D02*
X022096Y013616D01*
X022096Y013671D02*
X022320Y013671D01*
X022320Y013726D02*
X022096Y013726D01*
X022096Y013781D02*
X022320Y013781D01*
X022320Y013836D02*
X022096Y013836D01*
X022096Y013891D02*
X022320Y013891D01*
X022320Y013946D02*
X022096Y013946D01*
X022096Y014001D02*
X022320Y014001D01*
X022320Y014056D02*
X022096Y014056D01*
X022005Y013561D02*
X021781Y013561D01*
X021781Y014085D01*
X022005Y014085D01*
X022005Y013561D01*
X022005Y013616D02*
X021781Y013616D01*
X021781Y013671D02*
X022005Y013671D01*
X022005Y013726D02*
X021781Y013726D01*
X021781Y013781D02*
X022005Y013781D01*
X022005Y013836D02*
X021781Y013836D01*
X021781Y013891D02*
X022005Y013891D01*
X022005Y013946D02*
X021781Y013946D01*
X021781Y014001D02*
X022005Y014001D01*
X022005Y014056D02*
X021781Y014056D01*
X021567Y014299D02*
X021043Y014299D01*
X021043Y014523D01*
X021567Y014523D01*
X021567Y014299D01*
X021567Y014354D02*
X021043Y014354D01*
X021043Y014409D02*
X021567Y014409D01*
X021567Y014464D02*
X021043Y014464D01*
X021043Y014519D02*
X021567Y014519D01*
X021567Y014614D02*
X021043Y014614D01*
X021043Y014838D01*
X021567Y014838D01*
X021567Y014614D01*
X021567Y014669D02*
X021043Y014669D01*
X021043Y014724D02*
X021567Y014724D01*
X021567Y014779D02*
X021043Y014779D01*
X021043Y014834D02*
X021567Y014834D01*
X021567Y014929D02*
X021043Y014929D01*
X021043Y015153D01*
X021567Y015153D01*
X021567Y014929D01*
X021567Y014984D02*
X021043Y014984D01*
X021043Y015039D02*
X021567Y015039D01*
X021567Y015094D02*
X021043Y015094D01*
X021043Y015149D02*
X021567Y015149D01*
X021567Y015244D02*
X021043Y015244D01*
X021043Y015468D01*
X021567Y015468D01*
X021567Y015244D01*
X021567Y015299D02*
X021043Y015299D01*
X021043Y015354D02*
X021567Y015354D01*
X021567Y015409D02*
X021043Y015409D01*
X021043Y015464D02*
X021567Y015464D01*
X021567Y015559D02*
X021043Y015559D01*
X021043Y015783D01*
X021567Y015783D01*
X021567Y015559D01*
X021567Y015614D02*
X021043Y015614D01*
X021043Y015669D02*
X021567Y015669D01*
X021567Y015724D02*
X021043Y015724D01*
X021043Y015779D02*
X021567Y015779D01*
X021567Y015874D02*
X021043Y015874D01*
X021043Y016098D01*
X021567Y016098D01*
X021567Y015874D01*
X021567Y015929D02*
X021043Y015929D01*
X021043Y015984D02*
X021567Y015984D01*
X021567Y016039D02*
X021043Y016039D01*
X021043Y016094D02*
X021567Y016094D01*
X021567Y016188D02*
X021043Y016188D01*
X021043Y016412D01*
X021567Y016412D01*
X021567Y016188D01*
X021567Y016243D02*
X021043Y016243D01*
X021043Y016298D02*
X021567Y016298D01*
X021567Y016353D02*
X021043Y016353D01*
X021043Y016408D02*
X021567Y016408D01*
D23*
X026432Y013363D03*
X026432Y012363D03*
X026432Y011363D03*
X027432Y011363D03*
X027432Y012363D03*
X027432Y013363D03*
D24*
X025830Y015719D02*
X025752Y015719D01*
X025752Y016488D02*
X025830Y016488D01*
X026744Y016182D02*
X026744Y016104D01*
X027514Y016104D02*
X027514Y016182D01*
X027374Y017443D02*
X027374Y017521D01*
X028144Y017521D02*
X028144Y017443D01*
X029697Y017443D02*
X029697Y017521D01*
X030467Y017521D02*
X030467Y017443D01*
X027317Y022954D02*
X027317Y023032D01*
X026548Y023032D02*
X026548Y022954D01*
X027729Y024135D02*
X027729Y024213D01*
X028498Y024213D02*
X028498Y024135D01*
X029304Y024135D02*
X029304Y024213D01*
X030073Y024213D02*
X030073Y024135D01*
X031618Y024577D02*
X031696Y024577D01*
X031696Y025347D02*
X031618Y025347D01*
X032505Y025347D02*
X032583Y025347D01*
X032583Y024577D02*
X032505Y024577D01*
X020672Y019047D02*
X020594Y019047D01*
X020594Y018278D02*
X020672Y018278D01*
X018245Y017695D02*
X018245Y017617D01*
X017476Y017617D02*
X017476Y017695D01*
X017489Y011008D02*
X017489Y010930D01*
X018258Y010930D02*
X018258Y011008D01*
D25*
X018558Y007172D02*
X018558Y006532D01*
X017558Y006532D02*
X017558Y007172D01*
X016558Y007172D02*
X016558Y006532D01*
X015558Y006532D02*
X015558Y007172D01*
X019558Y007172D02*
X019558Y006532D01*
X020558Y006532D02*
X020558Y007172D01*
X021558Y007172D02*
X021558Y006532D01*
X022558Y006532D02*
X022558Y007172D01*
X024220Y007172D02*
X024220Y006532D01*
X025220Y006532D02*
X025220Y007172D01*
X026220Y007172D02*
X026220Y006532D01*
X027220Y006532D02*
X027220Y007172D01*
X028220Y007172D02*
X028220Y006532D01*
X029220Y006532D02*
X029220Y007172D01*
X030220Y007172D02*
X030220Y006532D01*
X031220Y006532D02*
X031220Y007172D01*
X031759Y012732D02*
X031759Y013372D01*
X029979Y013372D02*
X029979Y012732D01*
X029979Y015292D02*
X029979Y015932D01*
X031759Y015932D02*
X031759Y015292D01*
X024496Y021812D02*
X023856Y021812D01*
X023956Y022812D02*
X024596Y022812D01*
X024496Y023812D02*
X023856Y023812D01*
X023857Y025429D02*
X023857Y026069D01*
X024857Y026069D02*
X024857Y025429D01*
X025857Y025429D02*
X025857Y026069D01*
X026857Y026069D02*
X026857Y025429D01*
X027857Y025429D02*
X027857Y026069D01*
X022857Y026069D02*
X022857Y025429D01*
X020771Y025429D02*
X020771Y026069D01*
X019771Y026069D02*
X019771Y025429D01*
X018771Y025429D02*
X018771Y026069D01*
X017771Y026069D02*
X017771Y025429D01*
X016771Y025429D02*
X016771Y026069D01*
X015771Y026069D02*
X015771Y025429D01*
D26*
X018271Y016232D03*
X018271Y012432D03*
D27*
X027162Y018482D02*
X027162Y018666D01*
X027786Y018666D01*
X027786Y018482D01*
X027162Y018482D01*
X027162Y018527D02*
X027786Y018527D01*
X027786Y018572D02*
X027162Y018572D01*
X027162Y018617D02*
X027786Y018617D01*
X027786Y018662D02*
X027162Y018662D01*
X027162Y018738D02*
X027162Y018922D01*
X027786Y018922D01*
X027786Y018738D01*
X027162Y018738D01*
X027162Y018783D02*
X027786Y018783D01*
X027786Y018828D02*
X027162Y018828D01*
X027162Y018873D02*
X027786Y018873D01*
X027786Y018918D02*
X027162Y018918D01*
X027162Y018994D02*
X027162Y019178D01*
X027786Y019178D01*
X027786Y018994D01*
X027162Y018994D01*
X027162Y019039D02*
X027786Y019039D01*
X027786Y019084D02*
X027162Y019084D01*
X027162Y019129D02*
X027786Y019129D01*
X027786Y019174D02*
X027162Y019174D01*
X027162Y019250D02*
X027162Y019434D01*
X027786Y019434D01*
X027786Y019250D01*
X027162Y019250D01*
X027162Y019295D02*
X027786Y019295D01*
X027786Y019340D02*
X027162Y019340D01*
X027162Y019385D02*
X027786Y019385D01*
X027786Y019430D02*
X027162Y019430D01*
X027162Y019506D02*
X027162Y019690D01*
X027786Y019690D01*
X027786Y019506D01*
X027162Y019506D01*
X027162Y019551D02*
X027786Y019551D01*
X027786Y019596D02*
X027162Y019596D01*
X027162Y019641D02*
X027786Y019641D01*
X027786Y019686D02*
X027162Y019686D01*
X027162Y019762D02*
X027162Y019946D01*
X027786Y019946D01*
X027786Y019762D01*
X027162Y019762D01*
X027162Y019807D02*
X027786Y019807D01*
X027786Y019852D02*
X027162Y019852D01*
X027162Y019897D02*
X027786Y019897D01*
X027786Y019942D02*
X027162Y019942D01*
X027162Y020018D02*
X027162Y020202D01*
X027786Y020202D01*
X027786Y020018D01*
X027162Y020018D01*
X027162Y020063D02*
X027786Y020063D01*
X027786Y020108D02*
X027162Y020108D01*
X027162Y020153D02*
X027786Y020153D01*
X027786Y020198D02*
X027162Y020198D01*
X027162Y020273D02*
X027162Y020457D01*
X027786Y020457D01*
X027786Y020273D01*
X027162Y020273D01*
X027162Y020318D02*
X027786Y020318D01*
X027786Y020363D02*
X027162Y020363D01*
X027162Y020408D02*
X027786Y020408D01*
X027786Y020453D02*
X027162Y020453D01*
X027162Y020529D02*
X027162Y020713D01*
X027786Y020713D01*
X027786Y020529D01*
X027162Y020529D01*
X027162Y020574D02*
X027786Y020574D01*
X027786Y020619D02*
X027162Y020619D01*
X027162Y020664D02*
X027786Y020664D01*
X027786Y020709D02*
X027162Y020709D01*
X027162Y020785D02*
X027162Y020969D01*
X027786Y020969D01*
X027786Y020785D01*
X027162Y020785D01*
X027162Y020830D02*
X027786Y020830D01*
X027786Y020875D02*
X027162Y020875D01*
X027162Y020920D02*
X027786Y020920D01*
X027786Y020965D02*
X027162Y020965D01*
X027162Y021041D02*
X027162Y021225D01*
X027786Y021225D01*
X027786Y021041D01*
X027162Y021041D01*
X027162Y021086D02*
X027786Y021086D01*
X027786Y021131D02*
X027162Y021131D01*
X027162Y021176D02*
X027786Y021176D01*
X027786Y021221D02*
X027162Y021221D01*
X027162Y021297D02*
X027162Y021481D01*
X027786Y021481D01*
X027786Y021297D01*
X027162Y021297D01*
X027162Y021342D02*
X027786Y021342D01*
X027786Y021387D02*
X027162Y021387D01*
X027162Y021432D02*
X027786Y021432D01*
X027786Y021477D02*
X027162Y021477D01*
X027162Y021553D02*
X027162Y021737D01*
X027786Y021737D01*
X027786Y021553D01*
X027162Y021553D01*
X027162Y021598D02*
X027786Y021598D01*
X027786Y021643D02*
X027162Y021643D01*
X027162Y021688D02*
X027786Y021688D01*
X027786Y021733D02*
X027162Y021733D01*
X027162Y021809D02*
X027162Y021993D01*
X027786Y021993D01*
X027786Y021809D01*
X027162Y021809D01*
X027162Y021854D02*
X027786Y021854D01*
X027786Y021899D02*
X027162Y021899D01*
X027162Y021944D02*
X027786Y021944D01*
X027786Y021989D02*
X027162Y021989D01*
X030016Y021993D02*
X030016Y021809D01*
X030016Y021993D02*
X030640Y021993D01*
X030640Y021809D01*
X030016Y021809D01*
X030016Y021854D02*
X030640Y021854D01*
X030640Y021899D02*
X030016Y021899D01*
X030016Y021944D02*
X030640Y021944D01*
X030640Y021989D02*
X030016Y021989D01*
X030016Y021737D02*
X030016Y021553D01*
X030016Y021737D02*
X030640Y021737D01*
X030640Y021553D01*
X030016Y021553D01*
X030016Y021598D02*
X030640Y021598D01*
X030640Y021643D02*
X030016Y021643D01*
X030016Y021688D02*
X030640Y021688D01*
X030640Y021733D02*
X030016Y021733D01*
X030016Y021481D02*
X030016Y021297D01*
X030016Y021481D02*
X030640Y021481D01*
X030640Y021297D01*
X030016Y021297D01*
X030016Y021342D02*
X030640Y021342D01*
X030640Y021387D02*
X030016Y021387D01*
X030016Y021432D02*
X030640Y021432D01*
X030640Y021477D02*
X030016Y021477D01*
X030016Y021225D02*
X030016Y021041D01*
X030016Y021225D02*
X030640Y021225D01*
X030640Y021041D01*
X030016Y021041D01*
X030016Y021086D02*
X030640Y021086D01*
X030640Y021131D02*
X030016Y021131D01*
X030016Y021176D02*
X030640Y021176D01*
X030640Y021221D02*
X030016Y021221D01*
X030016Y020969D02*
X030016Y020785D01*
X030016Y020969D02*
X030640Y020969D01*
X030640Y020785D01*
X030016Y020785D01*
X030016Y020830D02*
X030640Y020830D01*
X030640Y020875D02*
X030016Y020875D01*
X030016Y020920D02*
X030640Y020920D01*
X030640Y020965D02*
X030016Y020965D01*
X030016Y020713D02*
X030016Y020529D01*
X030016Y020713D02*
X030640Y020713D01*
X030640Y020529D01*
X030016Y020529D01*
X030016Y020574D02*
X030640Y020574D01*
X030640Y020619D02*
X030016Y020619D01*
X030016Y020664D02*
X030640Y020664D01*
X030640Y020709D02*
X030016Y020709D01*
X030016Y020457D02*
X030016Y020273D01*
X030016Y020457D02*
X030640Y020457D01*
X030640Y020273D01*
X030016Y020273D01*
X030016Y020318D02*
X030640Y020318D01*
X030640Y020363D02*
X030016Y020363D01*
X030016Y020408D02*
X030640Y020408D01*
X030640Y020453D02*
X030016Y020453D01*
X030016Y020202D02*
X030016Y020018D01*
X030016Y020202D02*
X030640Y020202D01*
X030640Y020018D01*
X030016Y020018D01*
X030016Y020063D02*
X030640Y020063D01*
X030640Y020108D02*
X030016Y020108D01*
X030016Y020153D02*
X030640Y020153D01*
X030640Y020198D02*
X030016Y020198D01*
X030016Y019946D02*
X030016Y019762D01*
X030016Y019946D02*
X030640Y019946D01*
X030640Y019762D01*
X030016Y019762D01*
X030016Y019807D02*
X030640Y019807D01*
X030640Y019852D02*
X030016Y019852D01*
X030016Y019897D02*
X030640Y019897D01*
X030640Y019942D02*
X030016Y019942D01*
X030016Y019690D02*
X030016Y019506D01*
X030016Y019690D02*
X030640Y019690D01*
X030640Y019506D01*
X030016Y019506D01*
X030016Y019551D02*
X030640Y019551D01*
X030640Y019596D02*
X030016Y019596D01*
X030016Y019641D02*
X030640Y019641D01*
X030640Y019686D02*
X030016Y019686D01*
X030016Y019434D02*
X030016Y019250D01*
X030016Y019434D02*
X030640Y019434D01*
X030640Y019250D01*
X030016Y019250D01*
X030016Y019295D02*
X030640Y019295D01*
X030640Y019340D02*
X030016Y019340D01*
X030016Y019385D02*
X030640Y019385D01*
X030640Y019430D02*
X030016Y019430D01*
X030016Y019178D02*
X030016Y018994D01*
X030016Y019178D02*
X030640Y019178D01*
X030640Y018994D01*
X030016Y018994D01*
X030016Y019039D02*
X030640Y019039D01*
X030640Y019084D02*
X030016Y019084D01*
X030016Y019129D02*
X030640Y019129D01*
X030640Y019174D02*
X030016Y019174D01*
X030016Y018922D02*
X030016Y018738D01*
X030016Y018922D02*
X030640Y018922D01*
X030640Y018738D01*
X030016Y018738D01*
X030016Y018783D02*
X030640Y018783D01*
X030640Y018828D02*
X030016Y018828D01*
X030016Y018873D02*
X030640Y018873D01*
X030640Y018918D02*
X030016Y018918D01*
X030016Y018666D02*
X030016Y018482D01*
X030016Y018666D02*
X030640Y018666D01*
X030640Y018482D01*
X030016Y018482D01*
X030016Y018527D02*
X030640Y018527D01*
X030640Y018572D02*
X030016Y018572D01*
X030016Y018617D02*
X030640Y018617D01*
X030640Y018662D02*
X030016Y018662D01*
D28*
X033739Y022501D03*
X034527Y022501D03*
X034527Y023486D03*
X033739Y023486D03*
D29*
X035594Y025356D03*
X035594Y020631D03*
D30*
X026839Y024174D03*
X026239Y024174D03*
D31*
X026539Y024174D03*
M02*
