G75*
G70*
%OFA0B0*%
%FSLAX24Y24*%
%IPPOS*%
%LPD*%
%AMOC8*
5,1,8,0,0,1.08239X$1,22.5*
%
%ADD10C,0.0100*%
%ADD11R,0.0500X0.0220*%
%ADD12R,0.0220X0.0500*%
%ADD13R,0.0800X0.0900*%
%ADD14R,0.0472X0.0315*%
%ADD15R,0.0512X0.0591*%
%ADD16R,0.0600X0.0300*%
%ADD17R,0.0591X0.0512*%
D10*
X015658Y040658D02*
X015688Y041885D01*
X015778Y043108D01*
X015929Y044326D01*
X016138Y045535D01*
X016407Y046733D01*
X016734Y047915D01*
X017119Y049080D01*
X017561Y050225D01*
X018058Y051347D01*
X018610Y052443D01*
X019215Y053511D01*
X019871Y054547D01*
X020578Y055550D01*
X021333Y056518D01*
X022134Y057447D01*
X022980Y058336D01*
X023869Y059182D01*
X024798Y059983D01*
X025766Y060738D01*
X026769Y061445D01*
X027805Y062101D01*
X028873Y062706D01*
X029969Y063258D01*
X031091Y063755D01*
X032236Y064197D01*
X033401Y064582D01*
X034583Y064909D01*
X035781Y065178D01*
X036990Y065387D01*
X038208Y065538D01*
X039431Y065628D01*
X040658Y065658D01*
X041885Y065628D01*
X043108Y065538D01*
X044326Y065387D01*
X045535Y065178D01*
X046733Y064909D01*
X047915Y064582D01*
X049080Y064197D01*
X050225Y063755D01*
X051347Y063258D01*
X052443Y062706D01*
X053511Y062101D01*
X054547Y061445D01*
X055550Y060738D01*
X056518Y059983D01*
X057447Y059182D01*
X058336Y058336D01*
X059182Y057447D01*
X059983Y056518D01*
X060738Y055550D01*
X061445Y054547D01*
X062101Y053511D01*
X062706Y052443D01*
X063258Y051347D01*
X063755Y050225D01*
X064197Y049080D01*
X064582Y047915D01*
X064909Y046733D01*
X065178Y045535D01*
X065387Y044326D01*
X065538Y043108D01*
X065628Y041885D01*
X065658Y040658D01*
X065628Y039431D01*
X065538Y038208D01*
X065387Y036990D01*
X065178Y035781D01*
X064909Y034583D01*
X064582Y033401D01*
X064197Y032236D01*
X063755Y031091D01*
X063258Y029969D01*
X062706Y028873D01*
X062101Y027805D01*
X061445Y026769D01*
X060738Y025766D01*
X059983Y024798D01*
X059182Y023869D01*
X058336Y022980D01*
X057447Y022134D01*
X056518Y021333D01*
X055550Y020578D01*
X054547Y019871D01*
X053511Y019215D01*
X052443Y018610D01*
X051347Y018058D01*
X050225Y017561D01*
X049080Y017119D01*
X047915Y016734D01*
X046733Y016407D01*
X045535Y016138D01*
X044326Y015929D01*
X043108Y015778D01*
X041885Y015688D01*
X040658Y015658D01*
X039431Y015688D01*
X038208Y015778D01*
X036990Y015929D01*
X035781Y016138D01*
X034583Y016407D01*
X033401Y016734D01*
X032236Y017119D01*
X031091Y017561D01*
X029969Y018058D01*
X028873Y018610D01*
X027805Y019215D01*
X026769Y019871D01*
X025766Y020578D01*
X024798Y021333D01*
X023869Y022134D01*
X022980Y022980D01*
X022134Y023869D01*
X021333Y024798D01*
X020578Y025766D01*
X019871Y026769D01*
X019215Y027805D01*
X018610Y028873D01*
X018058Y029969D01*
X017561Y031091D01*
X017119Y032236D01*
X016734Y033401D01*
X016407Y034583D01*
X016138Y035781D01*
X015929Y036990D01*
X015778Y038208D01*
X015688Y039431D01*
X015658Y040658D01*
X001458Y040658D02*
X001505Y042581D01*
X001647Y044500D01*
X001882Y046410D01*
X002211Y048306D01*
X002633Y050183D01*
X003146Y052037D01*
X003749Y053864D01*
X004442Y055659D01*
X005222Y057418D01*
X006087Y059137D01*
X007035Y060811D01*
X008064Y062436D01*
X009172Y064009D01*
X010356Y065526D01*
X011613Y066983D01*
X012939Y068377D01*
X014333Y069703D01*
X015790Y070960D01*
X017307Y072144D01*
X018880Y073252D01*
X020505Y074281D01*
X022179Y075229D01*
X023898Y076094D01*
X025657Y076874D01*
X027452Y077567D01*
X029279Y078170D01*
X031133Y078683D01*
X033010Y079105D01*
X034906Y079434D01*
X036816Y079669D01*
X038735Y079811D01*
X040658Y079858D01*
X042581Y079811D01*
X044500Y079669D01*
X046410Y079434D01*
X048306Y079105D01*
X050183Y078683D01*
X052037Y078170D01*
X053864Y077567D01*
X055659Y076874D01*
X057418Y076094D01*
X059137Y075229D01*
X060811Y074281D01*
X062436Y073252D01*
X064009Y072144D01*
X065526Y070960D01*
X066983Y069703D01*
X068377Y068377D01*
X069703Y066983D01*
X070960Y065526D01*
X072144Y064009D01*
X073252Y062436D01*
X074281Y060811D01*
X075229Y059137D01*
X076094Y057418D01*
X076874Y055659D01*
X077567Y053864D01*
X078170Y052037D01*
X078683Y050183D01*
X079105Y048306D01*
X079434Y046410D01*
X079669Y044500D01*
X079811Y042581D01*
X079858Y040658D01*
X079811Y038735D01*
X079669Y036816D01*
X079434Y034906D01*
X079105Y033010D01*
X078683Y031133D01*
X078170Y029279D01*
X077567Y027452D01*
X076874Y025657D01*
X076094Y023898D01*
X075229Y022179D01*
X074281Y020505D01*
X073252Y018880D01*
X072144Y017307D01*
X070960Y015790D01*
X069703Y014333D01*
X068377Y012939D01*
X066983Y011613D01*
X065526Y010356D01*
X064009Y009172D01*
X062436Y008064D01*
X060811Y007035D01*
X059137Y006087D01*
X057418Y005222D01*
X055659Y004442D01*
X053864Y003749D01*
X052037Y003146D01*
X050183Y002633D01*
X048306Y002211D01*
X046410Y001882D01*
X044500Y001647D01*
X042581Y001505D01*
X040658Y001458D01*
X038735Y001505D01*
X036816Y001647D01*
X034906Y001882D01*
X033010Y002211D01*
X031133Y002633D01*
X029279Y003146D01*
X027452Y003749D01*
X025657Y004442D01*
X023898Y005222D01*
X022179Y006087D01*
X020505Y007035D01*
X018880Y008064D01*
X017307Y009172D01*
X015790Y010356D01*
X014333Y011613D01*
X012939Y012939D01*
X011613Y014333D01*
X010356Y015790D01*
X009172Y017307D01*
X008064Y018880D01*
X007035Y020505D01*
X006087Y022179D01*
X005222Y023898D01*
X004442Y025657D01*
X003749Y027452D01*
X003146Y029279D01*
X002633Y031133D01*
X002211Y033010D01*
X001882Y034906D01*
X001647Y036816D01*
X001505Y038735D01*
X001458Y040658D01*
D11*
X019968Y063555D03*
X019968Y063870D03*
X019968Y064185D03*
X019968Y064500D03*
X019968Y064815D03*
X019968Y065130D03*
X019968Y065445D03*
X019968Y065760D03*
X023348Y065760D03*
X023348Y065445D03*
X023348Y065130D03*
X023348Y064815D03*
X023348Y064500D03*
X023348Y064185D03*
X023348Y063870D03*
X023348Y063555D03*
D12*
X022760Y062968D03*
X022445Y062968D03*
X022130Y062968D03*
X021815Y062968D03*
X021500Y062968D03*
X021185Y062968D03*
X020870Y062968D03*
X020555Y062968D03*
X020555Y066348D03*
X020870Y066348D03*
X021185Y066348D03*
X021500Y066348D03*
X021815Y066348D03*
X022130Y066348D03*
X022445Y066348D03*
X022760Y066348D03*
D13*
X018158Y064108D03*
X018158Y062208D03*
D14*
X016958Y062203D03*
X016958Y062912D03*
X016958Y063403D03*
X016958Y064112D03*
X017758Y065553D03*
X017758Y066262D03*
X018658Y066262D03*
X018658Y065553D03*
D15*
X016034Y022058D03*
X016782Y022058D03*
X046784Y071158D03*
X047532Y071158D03*
D16*
X024158Y069908D03*
X024158Y068408D03*
X022158Y068408D03*
X022158Y069908D03*
X015158Y063908D03*
X015158Y062408D03*
X013158Y062408D03*
X013158Y063908D03*
D17*
X046508Y008682D03*
X046508Y007934D03*
M02*
