G75*
G70*
%OFA0B0*%
%FSLAX24Y24*%
%IPPOS*%
%LPD*%
%AMOC8*
5,1,8,0,0,1.08239X$1,22.5*
%
%ADD10C,0.0100*%
%ADD11C,0.0640*%
%ADD12OC8,0.0560*%
%ADD13C,0.0112*%
%ADD14C,0.2440*%
D10*
X015658Y040658D02*
X015688Y041885D01*
X015778Y043108D01*
X015929Y044326D01*
X016138Y045535D01*
X016407Y046733D01*
X016734Y047915D01*
X017119Y049080D01*
X017561Y050225D01*
X018058Y051347D01*
X018610Y052443D01*
X019215Y053511D01*
X019871Y054547D01*
X020578Y055550D01*
X021333Y056518D01*
X022134Y057447D01*
X022980Y058336D01*
X023869Y059182D01*
X024798Y059983D01*
X025766Y060738D01*
X026769Y061445D01*
X027805Y062101D01*
X028873Y062706D01*
X029969Y063258D01*
X031091Y063755D01*
X032236Y064197D01*
X033401Y064582D01*
X034583Y064909D01*
X035781Y065178D01*
X036990Y065387D01*
X038208Y065538D01*
X039431Y065628D01*
X040658Y065658D01*
X041885Y065628D01*
X043108Y065538D01*
X044326Y065387D01*
X045535Y065178D01*
X046733Y064909D01*
X047915Y064582D01*
X049080Y064197D01*
X050225Y063755D01*
X051347Y063258D01*
X052443Y062706D01*
X053511Y062101D01*
X054547Y061445D01*
X055550Y060738D01*
X056518Y059983D01*
X057447Y059182D01*
X058336Y058336D01*
X059182Y057447D01*
X059983Y056518D01*
X060738Y055550D01*
X061445Y054547D01*
X062101Y053511D01*
X062706Y052443D01*
X063258Y051347D01*
X063755Y050225D01*
X064197Y049080D01*
X064582Y047915D01*
X064909Y046733D01*
X065178Y045535D01*
X065387Y044326D01*
X065538Y043108D01*
X065628Y041885D01*
X065658Y040658D01*
X065628Y039431D01*
X065538Y038208D01*
X065387Y036990D01*
X065178Y035781D01*
X064909Y034583D01*
X064582Y033401D01*
X064197Y032236D01*
X063755Y031091D01*
X063258Y029969D01*
X062706Y028873D01*
X062101Y027805D01*
X061445Y026769D01*
X060738Y025766D01*
X059983Y024798D01*
X059182Y023869D01*
X058336Y022980D01*
X057447Y022134D01*
X056518Y021333D01*
X055550Y020578D01*
X054547Y019871D01*
X053511Y019215D01*
X052443Y018610D01*
X051347Y018058D01*
X050225Y017561D01*
X049080Y017119D01*
X047915Y016734D01*
X046733Y016407D01*
X045535Y016138D01*
X044326Y015929D01*
X043108Y015778D01*
X041885Y015688D01*
X040658Y015658D01*
X039431Y015688D01*
X038208Y015778D01*
X036990Y015929D01*
X035781Y016138D01*
X034583Y016407D01*
X033401Y016734D01*
X032236Y017119D01*
X031091Y017561D01*
X029969Y018058D01*
X028873Y018610D01*
X027805Y019215D01*
X026769Y019871D01*
X025766Y020578D01*
X024798Y021333D01*
X023869Y022134D01*
X022980Y022980D01*
X022134Y023869D01*
X021333Y024798D01*
X020578Y025766D01*
X019871Y026769D01*
X019215Y027805D01*
X018610Y028873D01*
X018058Y029969D01*
X017561Y031091D01*
X017119Y032236D01*
X016734Y033401D01*
X016407Y034583D01*
X016138Y035781D01*
X015929Y036990D01*
X015778Y038208D01*
X015688Y039431D01*
X015658Y040658D01*
X001458Y040658D02*
X001505Y042581D01*
X001647Y044500D01*
X001882Y046410D01*
X002211Y048306D01*
X002633Y050183D01*
X003146Y052037D01*
X003749Y053864D01*
X004442Y055659D01*
X005222Y057418D01*
X006087Y059137D01*
X007035Y060811D01*
X008064Y062436D01*
X009172Y064009D01*
X010356Y065526D01*
X011613Y066983D01*
X012939Y068377D01*
X014333Y069703D01*
X015790Y070960D01*
X017307Y072144D01*
X018880Y073252D01*
X020505Y074281D01*
X022179Y075229D01*
X023898Y076094D01*
X025657Y076874D01*
X027452Y077567D01*
X029279Y078170D01*
X031133Y078683D01*
X033010Y079105D01*
X034906Y079434D01*
X036816Y079669D01*
X038735Y079811D01*
X040658Y079858D01*
X042581Y079811D01*
X044500Y079669D01*
X046410Y079434D01*
X048306Y079105D01*
X050183Y078683D01*
X052037Y078170D01*
X053864Y077567D01*
X055659Y076874D01*
X057418Y076094D01*
X059137Y075229D01*
X060811Y074281D01*
X062436Y073252D01*
X064009Y072144D01*
X065526Y070960D01*
X066983Y069703D01*
X068377Y068377D01*
X069703Y066983D01*
X070960Y065526D01*
X072144Y064009D01*
X073252Y062436D01*
X074281Y060811D01*
X075229Y059137D01*
X076094Y057418D01*
X076874Y055659D01*
X077567Y053864D01*
X078170Y052037D01*
X078683Y050183D01*
X079105Y048306D01*
X079434Y046410D01*
X079669Y044500D01*
X079811Y042581D01*
X079858Y040658D01*
X079811Y038735D01*
X079669Y036816D01*
X079434Y034906D01*
X079105Y033010D01*
X078683Y031133D01*
X078170Y029279D01*
X077567Y027452D01*
X076874Y025657D01*
X076094Y023898D01*
X075229Y022179D01*
X074281Y020505D01*
X073252Y018880D01*
X072144Y017307D01*
X070960Y015790D01*
X069703Y014333D01*
X068377Y012939D01*
X066983Y011613D01*
X065526Y010356D01*
X064009Y009172D01*
X062436Y008064D01*
X060811Y007035D01*
X059137Y006087D01*
X057418Y005222D01*
X055659Y004442D01*
X053864Y003749D01*
X052037Y003146D01*
X050183Y002633D01*
X048306Y002211D01*
X046410Y001882D01*
X044500Y001647D01*
X042581Y001505D01*
X040658Y001458D01*
X038735Y001505D01*
X036816Y001647D01*
X034906Y001882D01*
X033010Y002211D01*
X031133Y002633D01*
X029279Y003146D01*
X027452Y003749D01*
X025657Y004442D01*
X023898Y005222D01*
X022179Y006087D01*
X020505Y007035D01*
X018880Y008064D01*
X017307Y009172D01*
X015790Y010356D01*
X014333Y011613D01*
X012939Y012939D01*
X011613Y014333D01*
X010356Y015790D01*
X009172Y017307D01*
X008064Y018880D01*
X007035Y020505D01*
X006087Y022179D01*
X005222Y023898D01*
X004442Y025657D01*
X003749Y027452D01*
X003146Y029279D01*
X002633Y031133D01*
X002211Y033010D01*
X001882Y034906D01*
X001647Y036816D01*
X001505Y038735D01*
X001458Y040658D01*
D11*
X011158Y056858D02*
X011158Y057458D01*
X012158Y057458D02*
X012158Y056858D01*
X013158Y056858D02*
X013158Y057458D01*
X014158Y057458D02*
X014158Y056858D01*
X015158Y056858D02*
X015158Y057458D01*
X016158Y057458D02*
X016158Y056858D01*
D12*
X002658Y041158D03*
X002658Y040158D03*
X040158Y002658D03*
X041158Y002658D03*
X078658Y040158D03*
X078658Y041158D03*
X041158Y078658D03*
X040158Y078658D03*
D13*
X012727Y015031D02*
X012671Y015087D01*
X012856Y015077D01*
X012980Y014940D01*
X012970Y014755D01*
X012833Y014631D01*
X012648Y014641D01*
X012524Y014778D01*
X012534Y014963D01*
X012671Y015087D01*
X012701Y015001D01*
X012817Y014995D01*
X012894Y014910D01*
X012888Y014794D01*
X012803Y014717D01*
X012687Y014723D01*
X012610Y014808D01*
X012616Y014924D01*
X012701Y015001D01*
X012732Y014916D01*
X012778Y014913D01*
X012809Y014879D01*
X012806Y014833D01*
X012772Y014802D01*
X012726Y014805D01*
X012695Y014839D01*
X012698Y014885D01*
X012732Y014916D01*
X012058Y015774D02*
X012002Y015830D01*
X012187Y015820D01*
X012311Y015683D01*
X012301Y015498D01*
X012164Y015374D01*
X011979Y015384D01*
X011855Y015521D01*
X011865Y015706D01*
X012002Y015830D01*
X012032Y015744D01*
X012148Y015738D01*
X012225Y015653D01*
X012219Y015537D01*
X012134Y015460D01*
X012018Y015466D01*
X011941Y015551D01*
X011947Y015667D01*
X012032Y015744D01*
X012063Y015659D01*
X012109Y015656D01*
X012140Y015622D01*
X012137Y015576D01*
X012103Y015545D01*
X012057Y015548D01*
X012026Y015582D01*
X012029Y015628D01*
X012063Y015659D01*
X010208Y018096D02*
X010152Y018152D01*
X010336Y018123D01*
X010444Y017974D01*
X010415Y017790D01*
X010266Y017682D01*
X010082Y017711D01*
X009974Y017860D01*
X010003Y018044D01*
X010152Y018152D01*
X010173Y018063D01*
X010288Y018045D01*
X010355Y017953D01*
X010337Y017838D01*
X010245Y017771D01*
X010130Y017789D01*
X010063Y017881D01*
X010081Y017996D01*
X010173Y018063D01*
X010195Y017975D01*
X010240Y017968D01*
X010267Y017931D01*
X010260Y017886D01*
X010223Y017859D01*
X010178Y017866D01*
X010151Y017903D01*
X010158Y017948D01*
X010195Y017975D01*
X009620Y018905D02*
X009564Y018961D01*
X009748Y018932D01*
X009856Y018783D01*
X009827Y018599D01*
X009678Y018491D01*
X009494Y018520D01*
X009386Y018669D01*
X009415Y018853D01*
X009564Y018961D01*
X009585Y018872D01*
X009700Y018854D01*
X009767Y018762D01*
X009749Y018647D01*
X009657Y018580D01*
X009542Y018598D01*
X009475Y018690D01*
X009493Y018805D01*
X009585Y018872D01*
X009607Y018784D01*
X009652Y018777D01*
X009679Y018740D01*
X009672Y018695D01*
X009635Y018668D01*
X009590Y018675D01*
X009563Y018712D01*
X009570Y018757D01*
X009607Y018784D01*
X008023Y021408D02*
X007967Y021464D01*
X008146Y021416D01*
X008238Y021257D01*
X008190Y021078D01*
X008031Y020986D01*
X007852Y021034D01*
X007760Y021193D01*
X007808Y021372D01*
X007967Y021464D01*
X007979Y021374D01*
X008091Y021344D01*
X008148Y021245D01*
X008118Y021133D01*
X008019Y021076D01*
X007907Y021106D01*
X007850Y021205D01*
X007880Y021317D01*
X007979Y021374D01*
X007991Y021284D01*
X008035Y021272D01*
X008058Y021233D01*
X008046Y021189D01*
X008007Y021166D01*
X007963Y021178D01*
X007940Y021217D01*
X007952Y021261D01*
X007991Y021284D01*
X007523Y022274D02*
X007467Y022330D01*
X007646Y022282D01*
X007738Y022123D01*
X007690Y021944D01*
X007531Y021852D01*
X007352Y021900D01*
X007260Y022059D01*
X007308Y022238D01*
X007467Y022330D01*
X007479Y022240D01*
X007591Y022210D01*
X007648Y022111D01*
X007618Y021999D01*
X007519Y021942D01*
X007407Y021972D01*
X007350Y022071D01*
X007380Y022183D01*
X007479Y022240D01*
X007491Y022150D01*
X007535Y022138D01*
X007558Y022099D01*
X007546Y022055D01*
X007507Y022032D01*
X007463Y022044D01*
X007440Y022083D01*
X007452Y022127D01*
X007491Y022150D01*
X006195Y024931D02*
X006139Y024987D01*
X006313Y024920D01*
X006388Y024752D01*
X006321Y024578D01*
X006153Y024503D01*
X005979Y024570D01*
X005904Y024738D01*
X005971Y024912D01*
X006139Y024987D01*
X006142Y024896D01*
X006250Y024854D01*
X006297Y024749D01*
X006255Y024641D01*
X006150Y024594D01*
X006042Y024636D01*
X005995Y024741D01*
X006037Y024849D01*
X006142Y024896D01*
X006145Y024805D01*
X006187Y024788D01*
X006206Y024746D01*
X006189Y024704D01*
X006147Y024685D01*
X006105Y024702D01*
X006086Y024744D01*
X006103Y024786D01*
X006145Y024805D01*
X005788Y025844D02*
X005732Y025900D01*
X005906Y025833D01*
X005981Y025665D01*
X005914Y025491D01*
X005746Y025416D01*
X005572Y025483D01*
X005497Y025651D01*
X005564Y025825D01*
X005732Y025900D01*
X005735Y025809D01*
X005843Y025767D01*
X005890Y025662D01*
X005848Y025554D01*
X005743Y025507D01*
X005635Y025549D01*
X005588Y025654D01*
X005630Y025762D01*
X005735Y025809D01*
X005738Y025718D01*
X005780Y025701D01*
X005799Y025659D01*
X005782Y025617D01*
X005740Y025598D01*
X005698Y025615D01*
X005679Y025657D01*
X005696Y025699D01*
X005738Y025718D01*
X004634Y028624D02*
X004690Y028680D01*
X004856Y028595D01*
X004913Y028421D01*
X004828Y028255D01*
X004654Y028198D01*
X004488Y028283D01*
X004431Y028457D01*
X004516Y028623D01*
X004690Y028680D01*
X004682Y028589D01*
X004787Y028536D01*
X004822Y028429D01*
X004769Y028324D01*
X004662Y028289D01*
X004557Y028342D01*
X004522Y028449D01*
X004575Y028554D01*
X004682Y028589D01*
X004676Y028499D01*
X004718Y028478D01*
X004732Y028435D01*
X004711Y028393D01*
X004668Y028379D01*
X004626Y028400D01*
X004612Y028443D01*
X004633Y028485D01*
X004676Y028499D01*
X004325Y029575D02*
X004381Y029631D01*
X004547Y029546D01*
X004604Y029372D01*
X004519Y029206D01*
X004345Y029149D01*
X004179Y029234D01*
X004122Y029408D01*
X004207Y029574D01*
X004381Y029631D01*
X004373Y029540D01*
X004478Y029487D01*
X004513Y029380D01*
X004460Y029275D01*
X004353Y029240D01*
X004248Y029293D01*
X004213Y029400D01*
X004266Y029505D01*
X004373Y029540D01*
X004367Y029450D01*
X004409Y029429D01*
X004423Y029386D01*
X004402Y029344D01*
X004359Y029330D01*
X004317Y029351D01*
X004303Y029394D01*
X004324Y029436D01*
X004367Y029450D01*
X003579Y032450D02*
X003635Y032506D01*
X003791Y032404D01*
X003830Y032225D01*
X003728Y032069D01*
X003549Y032030D01*
X003393Y032132D01*
X003354Y032311D01*
X003456Y032467D01*
X003635Y032506D01*
X003618Y032416D01*
X003717Y032352D01*
X003740Y032242D01*
X003676Y032143D01*
X003566Y032120D01*
X003467Y032184D01*
X003444Y032294D01*
X003508Y032393D01*
X003618Y032416D01*
X003602Y032327D01*
X003641Y032302D01*
X003651Y032258D01*
X003626Y032219D01*
X003582Y032209D01*
X003543Y032234D01*
X003533Y032278D01*
X003558Y032317D01*
X003602Y032327D01*
X003371Y033428D02*
X003427Y033484D01*
X003583Y033382D01*
X003622Y033203D01*
X003520Y033047D01*
X003341Y033008D01*
X003185Y033110D01*
X003146Y033289D01*
X003248Y033445D01*
X003427Y033484D01*
X003410Y033394D01*
X003509Y033330D01*
X003532Y033220D01*
X003468Y033121D01*
X003358Y033098D01*
X003259Y033162D01*
X003236Y033272D01*
X003300Y033371D01*
X003410Y033394D01*
X003394Y033305D01*
X003433Y033280D01*
X003443Y033236D01*
X003418Y033197D01*
X003374Y033187D01*
X003335Y033212D01*
X003325Y033256D01*
X003350Y033295D01*
X003394Y033305D01*
X002930Y036364D02*
X002986Y036420D01*
X003131Y036302D01*
X003150Y036120D01*
X003032Y035975D01*
X002850Y035956D01*
X002705Y036074D01*
X002686Y036256D01*
X002804Y036401D01*
X002986Y036420D01*
X002960Y036333D01*
X003051Y036259D01*
X003063Y036146D01*
X002989Y036055D01*
X002876Y036043D01*
X002785Y036117D01*
X002773Y036230D01*
X002847Y036321D01*
X002960Y036333D01*
X002935Y036246D01*
X002971Y036216D01*
X002976Y036171D01*
X002946Y036135D01*
X002901Y036130D01*
X002865Y036160D01*
X002860Y036205D01*
X002890Y036241D01*
X002935Y036246D01*
X002825Y037359D02*
X002881Y037415D01*
X003026Y037297D01*
X003045Y037115D01*
X002927Y036970D01*
X002745Y036951D01*
X002600Y037069D01*
X002581Y037251D01*
X002699Y037396D01*
X002881Y037415D01*
X002855Y037328D01*
X002946Y037254D01*
X002958Y037141D01*
X002884Y037050D01*
X002771Y037038D01*
X002680Y037112D01*
X002668Y037225D01*
X002742Y037316D01*
X002855Y037328D01*
X002830Y037241D01*
X002866Y037211D01*
X002871Y037166D01*
X002841Y037130D01*
X002796Y037125D01*
X002760Y037155D01*
X002755Y037200D01*
X002785Y037236D01*
X002830Y037241D01*
X002871Y044289D02*
X002927Y044345D01*
X003045Y044200D01*
X003026Y044018D01*
X002881Y043900D01*
X002699Y043919D01*
X002581Y044064D01*
X002600Y044246D01*
X002745Y044364D01*
X002927Y044345D01*
X002884Y044265D01*
X002958Y044174D01*
X002946Y044061D01*
X002855Y043987D01*
X002742Y043999D01*
X002668Y044090D01*
X002680Y044203D01*
X002771Y044277D01*
X002884Y044265D01*
X002841Y044185D01*
X002871Y044149D01*
X002866Y044104D01*
X002830Y044074D01*
X002785Y044079D01*
X002755Y044115D01*
X002760Y044160D01*
X002796Y044190D01*
X002841Y044185D01*
X002976Y045284D02*
X003032Y045340D01*
X003150Y045195D01*
X003131Y045013D01*
X002986Y044895D01*
X002804Y044914D01*
X002686Y045059D01*
X002705Y045241D01*
X002850Y045359D01*
X003032Y045340D01*
X002989Y045260D01*
X003063Y045169D01*
X003051Y045056D01*
X002960Y044982D01*
X002847Y044994D01*
X002773Y045085D01*
X002785Y045198D01*
X002876Y045272D01*
X002989Y045260D01*
X002946Y045180D01*
X002976Y045144D01*
X002971Y045099D01*
X002935Y045069D01*
X002890Y045074D01*
X002860Y045110D01*
X002865Y045155D01*
X002901Y045185D01*
X002946Y045180D01*
X003464Y048213D02*
X003520Y048269D01*
X003622Y048113D01*
X003583Y047934D01*
X003427Y047832D01*
X003248Y047871D01*
X003146Y048027D01*
X003185Y048206D01*
X003341Y048308D01*
X003520Y048269D01*
X003468Y048195D01*
X003532Y048096D01*
X003509Y047986D01*
X003410Y047922D01*
X003300Y047945D01*
X003236Y048044D01*
X003259Y048154D01*
X003358Y048218D01*
X003468Y048195D01*
X003418Y048119D01*
X003443Y048080D01*
X003433Y048036D01*
X003394Y048011D01*
X003350Y048021D01*
X003325Y048060D01*
X003335Y048104D01*
X003374Y048129D01*
X003418Y048119D01*
X003672Y049191D02*
X003728Y049247D01*
X003830Y049091D01*
X003791Y048912D01*
X003635Y048810D01*
X003456Y048849D01*
X003354Y049005D01*
X003393Y049184D01*
X003549Y049286D01*
X003728Y049247D01*
X003676Y049173D01*
X003740Y049074D01*
X003717Y048964D01*
X003618Y048900D01*
X003508Y048923D01*
X003444Y049022D01*
X003467Y049132D01*
X003566Y049196D01*
X003676Y049173D01*
X003626Y049097D01*
X003651Y049058D01*
X003641Y049014D01*
X003602Y048989D01*
X003558Y048999D01*
X003533Y049038D01*
X003543Y049082D01*
X003582Y049107D01*
X003626Y049097D01*
X004463Y052053D02*
X004519Y052109D01*
X004604Y051943D01*
X004547Y051769D01*
X004381Y051684D01*
X004207Y051741D01*
X004122Y051907D01*
X004179Y052081D01*
X004345Y052166D01*
X004519Y052109D01*
X004460Y052040D01*
X004513Y051935D01*
X004478Y051828D01*
X004373Y051775D01*
X004266Y051810D01*
X004213Y051915D01*
X004248Y052022D01*
X004353Y052075D01*
X004460Y052040D01*
X004402Y051971D01*
X004423Y051929D01*
X004409Y051886D01*
X004367Y051865D01*
X004324Y051879D01*
X004303Y051921D01*
X004317Y051964D01*
X004359Y051985D01*
X004402Y051971D01*
X004772Y053004D02*
X004828Y053060D01*
X004913Y052894D01*
X004856Y052720D01*
X004690Y052635D01*
X004516Y052692D01*
X004431Y052858D01*
X004488Y053032D01*
X004654Y053117D01*
X004828Y053060D01*
X004769Y052991D01*
X004822Y052886D01*
X004787Y052779D01*
X004682Y052726D01*
X004575Y052761D01*
X004522Y052866D01*
X004557Y052973D01*
X004662Y053026D01*
X004769Y052991D01*
X004711Y052922D01*
X004732Y052880D01*
X004718Y052837D01*
X004676Y052816D01*
X004633Y052830D01*
X004612Y052872D01*
X004626Y052915D01*
X004668Y052936D01*
X004711Y052922D01*
X005858Y055768D02*
X005914Y055824D01*
X005981Y055650D01*
X005906Y055482D01*
X005732Y055415D01*
X005564Y055490D01*
X005497Y055664D01*
X005572Y055832D01*
X005746Y055899D01*
X005914Y055824D01*
X005848Y055761D01*
X005890Y055653D01*
X005843Y055548D01*
X005735Y055506D01*
X005630Y055553D01*
X005588Y055661D01*
X005635Y055766D01*
X005743Y055808D01*
X005848Y055761D01*
X005782Y055698D01*
X005799Y055656D01*
X005780Y055614D01*
X005738Y055597D01*
X005696Y055616D01*
X005679Y055658D01*
X005698Y055700D01*
X005740Y055717D01*
X005782Y055698D01*
X006265Y056681D02*
X006321Y056737D01*
X006388Y056563D01*
X006313Y056395D01*
X006139Y056328D01*
X005971Y056403D01*
X005904Y056577D01*
X005979Y056745D01*
X006153Y056812D01*
X006321Y056737D01*
X006255Y056674D01*
X006297Y056566D01*
X006250Y056461D01*
X006142Y056419D01*
X006037Y056466D01*
X005995Y056574D01*
X006042Y056679D01*
X006150Y056721D01*
X006255Y056674D01*
X006189Y056611D01*
X006206Y056569D01*
X006187Y056527D01*
X006145Y056510D01*
X006103Y056529D01*
X006086Y056571D01*
X006105Y056613D01*
X006147Y056630D01*
X006189Y056611D01*
X007634Y059316D02*
X007690Y059372D01*
X007738Y059193D01*
X007646Y059034D01*
X007467Y058986D01*
X007308Y059078D01*
X007260Y059257D01*
X007352Y059416D01*
X007531Y059464D01*
X007690Y059372D01*
X007618Y059317D01*
X007648Y059205D01*
X007591Y059106D01*
X007479Y059076D01*
X007380Y059133D01*
X007350Y059245D01*
X007407Y059344D01*
X007519Y059374D01*
X007618Y059317D01*
X007546Y059261D01*
X007558Y059217D01*
X007535Y059178D01*
X007491Y059166D01*
X007452Y059189D01*
X007440Y059233D01*
X007463Y059272D01*
X007507Y059284D01*
X007546Y059261D01*
X008134Y060182D02*
X008190Y060238D01*
X008238Y060059D01*
X008146Y059900D01*
X007967Y059852D01*
X007808Y059944D01*
X007760Y060123D01*
X007852Y060282D01*
X008031Y060330D01*
X008190Y060238D01*
X008118Y060183D01*
X008148Y060071D01*
X008091Y059972D01*
X007979Y059942D01*
X007880Y059999D01*
X007850Y060111D01*
X007907Y060210D01*
X008019Y060240D01*
X008118Y060183D01*
X008046Y060127D01*
X008058Y060083D01*
X008035Y060044D01*
X007991Y060032D01*
X007952Y060055D01*
X007940Y060099D01*
X007963Y060138D01*
X008007Y060150D01*
X008046Y060127D01*
X009771Y062660D02*
X009827Y062716D01*
X009856Y062532D01*
X009748Y062383D01*
X009564Y062354D01*
X009415Y062462D01*
X009386Y062646D01*
X009494Y062795D01*
X009678Y062824D01*
X009827Y062716D01*
X009749Y062668D01*
X009767Y062553D01*
X009700Y062461D01*
X009585Y062443D01*
X009493Y062510D01*
X009475Y062625D01*
X009542Y062717D01*
X009657Y062735D01*
X009749Y062668D01*
X009672Y062620D01*
X009679Y062575D01*
X009652Y062538D01*
X009607Y062531D01*
X009570Y062558D01*
X009563Y062603D01*
X009590Y062640D01*
X009635Y062647D01*
X009672Y062620D01*
X010359Y063469D02*
X010415Y063525D01*
X010444Y063341D01*
X010336Y063192D01*
X010152Y063163D01*
X010003Y063271D01*
X009974Y063455D01*
X010082Y063604D01*
X010266Y063633D01*
X010415Y063525D01*
X010337Y063477D01*
X010355Y063362D01*
X010288Y063270D01*
X010173Y063252D01*
X010081Y063319D01*
X010063Y063434D01*
X010130Y063526D01*
X010245Y063544D01*
X010337Y063477D01*
X010260Y063429D01*
X010267Y063384D01*
X010240Y063347D01*
X010195Y063340D01*
X010158Y063367D01*
X010151Y063412D01*
X010178Y063449D01*
X010223Y063456D01*
X010260Y063429D01*
X012245Y065761D02*
X012301Y065817D01*
X012311Y065632D01*
X012187Y065495D01*
X012002Y065485D01*
X011865Y065609D01*
X011855Y065794D01*
X011979Y065931D01*
X012164Y065941D01*
X012301Y065817D01*
X012219Y065778D01*
X012225Y065662D01*
X012148Y065577D01*
X012032Y065571D01*
X011947Y065648D01*
X011941Y065764D01*
X012018Y065849D01*
X012134Y065855D01*
X012219Y065778D01*
X012137Y065739D01*
X012140Y065693D01*
X012109Y065659D01*
X012063Y065656D01*
X012029Y065687D01*
X012026Y065733D01*
X012057Y065767D01*
X012103Y065770D01*
X012137Y065739D01*
X012914Y066504D02*
X012970Y066560D01*
X012980Y066375D01*
X012856Y066238D01*
X012671Y066228D01*
X012534Y066352D01*
X012524Y066537D01*
X012648Y066674D01*
X012833Y066684D01*
X012970Y066560D01*
X012888Y066521D01*
X012894Y066405D01*
X012817Y066320D01*
X012701Y066314D01*
X012616Y066391D01*
X012610Y066507D01*
X012687Y066592D01*
X012803Y066598D01*
X012888Y066521D01*
X012806Y066482D01*
X012809Y066436D01*
X012778Y066402D01*
X012732Y066399D01*
X012698Y066430D01*
X012695Y066476D01*
X012726Y066510D01*
X012772Y066513D01*
X012806Y066482D01*
X015031Y068588D02*
X015087Y068644D01*
X015077Y068459D01*
X014940Y068335D01*
X014755Y068345D01*
X014631Y068482D01*
X014641Y068667D01*
X014778Y068791D01*
X014963Y068781D01*
X015087Y068644D01*
X015001Y068614D01*
X014995Y068498D01*
X014910Y068421D01*
X014794Y068427D01*
X014717Y068512D01*
X014723Y068628D01*
X014808Y068705D01*
X014924Y068699D01*
X015001Y068614D01*
X014916Y068583D01*
X014913Y068537D01*
X014879Y068506D01*
X014833Y068509D01*
X014802Y068543D01*
X014805Y068589D01*
X014839Y068620D01*
X014885Y068617D01*
X014916Y068583D01*
X015774Y069257D02*
X015830Y069313D01*
X015820Y069128D01*
X015683Y069004D01*
X015498Y069014D01*
X015374Y069151D01*
X015384Y069336D01*
X015521Y069460D01*
X015706Y069450D01*
X015830Y069313D01*
X015744Y069283D01*
X015738Y069167D01*
X015653Y069090D01*
X015537Y069096D01*
X015460Y069181D01*
X015466Y069297D01*
X015551Y069374D01*
X015667Y069368D01*
X015744Y069283D01*
X015659Y069252D01*
X015656Y069206D01*
X015622Y069175D01*
X015576Y069178D01*
X015545Y069212D01*
X015548Y069258D01*
X015582Y069289D01*
X015628Y069286D01*
X015659Y069252D01*
X018096Y071108D02*
X018152Y071164D01*
X018123Y070980D01*
X017974Y070872D01*
X017790Y070901D01*
X017682Y071050D01*
X017711Y071234D01*
X017860Y071342D01*
X018044Y071313D01*
X018152Y071164D01*
X018063Y071143D01*
X018045Y071028D01*
X017953Y070961D01*
X017838Y070979D01*
X017771Y071071D01*
X017789Y071186D01*
X017881Y071253D01*
X017996Y071235D01*
X018063Y071143D01*
X017975Y071121D01*
X017968Y071076D01*
X017931Y071049D01*
X017886Y071056D01*
X017859Y071093D01*
X017866Y071138D01*
X017903Y071165D01*
X017948Y071158D01*
X017975Y071121D01*
X018905Y071695D02*
X018961Y071751D01*
X018932Y071567D01*
X018783Y071459D01*
X018599Y071488D01*
X018491Y071637D01*
X018520Y071821D01*
X018669Y071929D01*
X018853Y071900D01*
X018961Y071751D01*
X018872Y071730D01*
X018854Y071615D01*
X018762Y071548D01*
X018647Y071566D01*
X018580Y071658D01*
X018598Y071773D01*
X018690Y071840D01*
X018805Y071822D01*
X018872Y071730D01*
X018784Y071708D01*
X018777Y071663D01*
X018740Y071636D01*
X018695Y071643D01*
X018668Y071680D01*
X018675Y071725D01*
X018712Y071752D01*
X018757Y071745D01*
X018784Y071708D01*
X021408Y073293D02*
X021464Y073349D01*
X021416Y073170D01*
X021257Y073078D01*
X021078Y073126D01*
X020986Y073285D01*
X021034Y073464D01*
X021193Y073556D01*
X021372Y073508D01*
X021464Y073349D01*
X021374Y073337D01*
X021344Y073225D01*
X021245Y073168D01*
X021133Y073198D01*
X021076Y073297D01*
X021106Y073409D01*
X021205Y073466D01*
X021317Y073436D01*
X021374Y073337D01*
X021284Y073325D01*
X021272Y073281D01*
X021233Y073258D01*
X021189Y073270D01*
X021166Y073309D01*
X021178Y073353D01*
X021217Y073376D01*
X021261Y073364D01*
X021284Y073325D01*
X022274Y073793D02*
X022330Y073849D01*
X022282Y073670D01*
X022123Y073578D01*
X021944Y073626D01*
X021852Y073785D01*
X021900Y073964D01*
X022059Y074056D01*
X022238Y074008D01*
X022330Y073849D01*
X022240Y073837D01*
X022210Y073725D01*
X022111Y073668D01*
X021999Y073698D01*
X021942Y073797D01*
X021972Y073909D01*
X022071Y073966D01*
X022183Y073936D01*
X022240Y073837D01*
X022150Y073825D01*
X022138Y073781D01*
X022099Y073758D01*
X022055Y073770D01*
X022032Y073809D01*
X022044Y073853D01*
X022083Y073876D01*
X022127Y073864D01*
X022150Y073825D01*
X024931Y075120D02*
X024987Y075176D01*
X024920Y075002D01*
X024752Y074927D01*
X024578Y074994D01*
X024503Y075162D01*
X024570Y075336D01*
X024738Y075411D01*
X024912Y075344D01*
X024987Y075176D01*
X024896Y075173D01*
X024854Y075065D01*
X024749Y075018D01*
X024641Y075060D01*
X024594Y075165D01*
X024636Y075273D01*
X024741Y075320D01*
X024849Y075278D01*
X024896Y075173D01*
X024805Y075170D01*
X024788Y075128D01*
X024746Y075109D01*
X024704Y075126D01*
X024685Y075168D01*
X024702Y075210D01*
X024744Y075229D01*
X024786Y075212D01*
X024805Y075170D01*
X025844Y075527D02*
X025900Y075583D01*
X025833Y075409D01*
X025665Y075334D01*
X025491Y075401D01*
X025416Y075569D01*
X025483Y075743D01*
X025651Y075818D01*
X025825Y075751D01*
X025900Y075583D01*
X025809Y075580D01*
X025767Y075472D01*
X025662Y075425D01*
X025554Y075467D01*
X025507Y075572D01*
X025549Y075680D01*
X025654Y075727D01*
X025762Y075685D01*
X025809Y075580D01*
X025718Y075577D01*
X025701Y075535D01*
X025659Y075516D01*
X025617Y075533D01*
X025598Y075575D01*
X025615Y075617D01*
X025657Y075636D01*
X025699Y075619D01*
X025718Y075577D01*
X028624Y076681D02*
X028680Y076625D01*
X028595Y076459D01*
X028421Y076402D01*
X028255Y076487D01*
X028198Y076661D01*
X028283Y076827D01*
X028457Y076884D01*
X028623Y076799D01*
X028680Y076625D01*
X028589Y076633D01*
X028536Y076528D01*
X028429Y076493D01*
X028324Y076546D01*
X028289Y076653D01*
X028342Y076758D01*
X028449Y076793D01*
X028554Y076740D01*
X028589Y076633D01*
X028499Y076639D01*
X028478Y076597D01*
X028435Y076583D01*
X028393Y076604D01*
X028379Y076647D01*
X028400Y076689D01*
X028443Y076703D01*
X028485Y076682D01*
X028499Y076639D01*
X029575Y076990D02*
X029631Y076934D01*
X029546Y076768D01*
X029372Y076711D01*
X029206Y076796D01*
X029149Y076970D01*
X029234Y077136D01*
X029408Y077193D01*
X029574Y077108D01*
X029631Y076934D01*
X029540Y076942D01*
X029487Y076837D01*
X029380Y076802D01*
X029275Y076855D01*
X029240Y076962D01*
X029293Y077067D01*
X029400Y077102D01*
X029505Y077049D01*
X029540Y076942D01*
X029450Y076948D01*
X029429Y076906D01*
X029386Y076892D01*
X029344Y076913D01*
X029330Y076956D01*
X029351Y076998D01*
X029394Y077012D01*
X029436Y076991D01*
X029450Y076948D01*
X032450Y077737D02*
X032506Y077681D01*
X032404Y077525D01*
X032225Y077486D01*
X032069Y077588D01*
X032030Y077767D01*
X032132Y077923D01*
X032311Y077962D01*
X032467Y077860D01*
X032506Y077681D01*
X032416Y077698D01*
X032352Y077599D01*
X032242Y077576D01*
X032143Y077640D01*
X032120Y077750D01*
X032184Y077849D01*
X032294Y077872D01*
X032393Y077808D01*
X032416Y077698D01*
X032327Y077714D01*
X032302Y077675D01*
X032258Y077665D01*
X032219Y077690D01*
X032209Y077734D01*
X032234Y077773D01*
X032278Y077783D01*
X032317Y077758D01*
X032327Y077714D01*
X033428Y077945D02*
X033484Y077889D01*
X033382Y077733D01*
X033203Y077694D01*
X033047Y077796D01*
X033008Y077975D01*
X033110Y078131D01*
X033289Y078170D01*
X033445Y078068D01*
X033484Y077889D01*
X033394Y077906D01*
X033330Y077807D01*
X033220Y077784D01*
X033121Y077848D01*
X033098Y077958D01*
X033162Y078057D01*
X033272Y078080D01*
X033371Y078016D01*
X033394Y077906D01*
X033305Y077922D01*
X033280Y077883D01*
X033236Y077873D01*
X033197Y077898D01*
X033187Y077942D01*
X033212Y077981D01*
X033256Y077991D01*
X033295Y077966D01*
X033305Y077922D01*
X036364Y078385D02*
X036420Y078329D01*
X036302Y078184D01*
X036120Y078165D01*
X035975Y078283D01*
X035956Y078465D01*
X036074Y078610D01*
X036256Y078629D01*
X036401Y078511D01*
X036420Y078329D01*
X036333Y078355D01*
X036259Y078264D01*
X036146Y078252D01*
X036055Y078326D01*
X036043Y078439D01*
X036117Y078530D01*
X036230Y078542D01*
X036321Y078468D01*
X036333Y078355D01*
X036246Y078380D01*
X036216Y078344D01*
X036171Y078339D01*
X036135Y078369D01*
X036130Y078414D01*
X036160Y078450D01*
X036205Y078455D01*
X036241Y078425D01*
X036246Y078380D01*
X037359Y078490D02*
X037415Y078434D01*
X037297Y078289D01*
X037115Y078270D01*
X036970Y078388D01*
X036951Y078570D01*
X037069Y078715D01*
X037251Y078734D01*
X037396Y078616D01*
X037415Y078434D01*
X037328Y078460D01*
X037254Y078369D01*
X037141Y078357D01*
X037050Y078431D01*
X037038Y078544D01*
X037112Y078635D01*
X037225Y078647D01*
X037316Y078573D01*
X037328Y078460D01*
X037241Y078485D01*
X037211Y078449D01*
X037166Y078444D01*
X037130Y078474D01*
X037125Y078519D01*
X037155Y078555D01*
X037200Y078560D01*
X037236Y078530D01*
X037241Y078485D01*
X044289Y078444D02*
X044345Y078388D01*
X044200Y078270D01*
X044018Y078289D01*
X043900Y078434D01*
X043919Y078616D01*
X044064Y078734D01*
X044246Y078715D01*
X044364Y078570D01*
X044345Y078388D01*
X044265Y078431D01*
X044174Y078357D01*
X044061Y078369D01*
X043987Y078460D01*
X043999Y078573D01*
X044090Y078647D01*
X044203Y078635D01*
X044277Y078544D01*
X044265Y078431D01*
X044185Y078474D01*
X044149Y078444D01*
X044104Y078449D01*
X044074Y078485D01*
X044079Y078530D01*
X044115Y078560D01*
X044160Y078555D01*
X044190Y078519D01*
X044185Y078474D01*
X045284Y078339D02*
X045340Y078283D01*
X045195Y078165D01*
X045013Y078184D01*
X044895Y078329D01*
X044914Y078511D01*
X045059Y078629D01*
X045241Y078610D01*
X045359Y078465D01*
X045340Y078283D01*
X045260Y078326D01*
X045169Y078252D01*
X045056Y078264D01*
X044982Y078355D01*
X044994Y078468D01*
X045085Y078542D01*
X045198Y078530D01*
X045272Y078439D01*
X045260Y078326D01*
X045180Y078369D01*
X045144Y078339D01*
X045099Y078344D01*
X045069Y078380D01*
X045074Y078425D01*
X045110Y078455D01*
X045155Y078450D01*
X045185Y078414D01*
X045180Y078369D01*
X048213Y077852D02*
X048269Y077796D01*
X048113Y077694D01*
X047934Y077733D01*
X047832Y077889D01*
X047871Y078068D01*
X048027Y078170D01*
X048206Y078131D01*
X048308Y077975D01*
X048269Y077796D01*
X048195Y077848D01*
X048096Y077784D01*
X047986Y077807D01*
X047922Y077906D01*
X047945Y078016D01*
X048044Y078080D01*
X048154Y078057D01*
X048218Y077958D01*
X048195Y077848D01*
X048119Y077898D01*
X048080Y077873D01*
X048036Y077883D01*
X048011Y077922D01*
X048021Y077966D01*
X048060Y077991D01*
X048104Y077981D01*
X048129Y077942D01*
X048119Y077898D01*
X049191Y077644D02*
X049247Y077588D01*
X049091Y077486D01*
X048912Y077525D01*
X048810Y077681D01*
X048849Y077860D01*
X049005Y077962D01*
X049184Y077923D01*
X049286Y077767D01*
X049247Y077588D01*
X049173Y077640D01*
X049074Y077576D01*
X048964Y077599D01*
X048900Y077698D01*
X048923Y077808D01*
X049022Y077872D01*
X049132Y077849D01*
X049196Y077750D01*
X049173Y077640D01*
X049097Y077690D01*
X049058Y077665D01*
X049014Y077675D01*
X048989Y077714D01*
X048999Y077758D01*
X049038Y077783D01*
X049082Y077773D01*
X049107Y077734D01*
X049097Y077690D01*
X052053Y076852D02*
X052109Y076796D01*
X051943Y076711D01*
X051769Y076768D01*
X051684Y076934D01*
X051741Y077108D01*
X051907Y077193D01*
X052081Y077136D01*
X052166Y076970D01*
X052109Y076796D01*
X052040Y076855D01*
X051935Y076802D01*
X051828Y076837D01*
X051775Y076942D01*
X051810Y077049D01*
X051915Y077102D01*
X052022Y077067D01*
X052075Y076962D01*
X052040Y076855D01*
X051971Y076913D01*
X051929Y076892D01*
X051886Y076906D01*
X051865Y076948D01*
X051879Y076991D01*
X051921Y077012D01*
X051964Y076998D01*
X051985Y076956D01*
X051971Y076913D01*
X053004Y076543D02*
X053060Y076487D01*
X052894Y076402D01*
X052720Y076459D01*
X052635Y076625D01*
X052692Y076799D01*
X052858Y076884D01*
X053032Y076827D01*
X053117Y076661D01*
X053060Y076487D01*
X052991Y076546D01*
X052886Y076493D01*
X052779Y076528D01*
X052726Y076633D01*
X052761Y076740D01*
X052866Y076793D01*
X052973Y076758D01*
X053026Y076653D01*
X052991Y076546D01*
X052922Y076604D01*
X052880Y076583D01*
X052837Y076597D01*
X052816Y076639D01*
X052830Y076682D01*
X052872Y076703D01*
X052915Y076689D01*
X052936Y076647D01*
X052922Y076604D01*
X055768Y075457D02*
X055824Y075401D01*
X055650Y075334D01*
X055482Y075409D01*
X055415Y075583D01*
X055490Y075751D01*
X055664Y075818D01*
X055832Y075743D01*
X055899Y075569D01*
X055824Y075401D01*
X055761Y075467D01*
X055653Y075425D01*
X055548Y075472D01*
X055506Y075580D01*
X055553Y075685D01*
X055661Y075727D01*
X055766Y075680D01*
X055808Y075572D01*
X055761Y075467D01*
X055698Y075533D01*
X055656Y075516D01*
X055614Y075535D01*
X055597Y075577D01*
X055616Y075619D01*
X055658Y075636D01*
X055700Y075617D01*
X055717Y075575D01*
X055698Y075533D01*
X056681Y075050D02*
X056737Y074994D01*
X056563Y074927D01*
X056395Y075002D01*
X056328Y075176D01*
X056403Y075344D01*
X056577Y075411D01*
X056745Y075336D01*
X056812Y075162D01*
X056737Y074994D01*
X056674Y075060D01*
X056566Y075018D01*
X056461Y075065D01*
X056419Y075173D01*
X056466Y075278D01*
X056574Y075320D01*
X056679Y075273D01*
X056721Y075165D01*
X056674Y075060D01*
X056611Y075126D01*
X056569Y075109D01*
X056527Y075128D01*
X056510Y075170D01*
X056529Y075212D01*
X056571Y075229D01*
X056613Y075210D01*
X056630Y075168D01*
X056611Y075126D01*
X059316Y073682D02*
X059372Y073626D01*
X059193Y073578D01*
X059034Y073670D01*
X058986Y073849D01*
X059078Y074008D01*
X059257Y074056D01*
X059416Y073964D01*
X059464Y073785D01*
X059372Y073626D01*
X059317Y073698D01*
X059205Y073668D01*
X059106Y073725D01*
X059076Y073837D01*
X059133Y073936D01*
X059245Y073966D01*
X059344Y073909D01*
X059374Y073797D01*
X059317Y073698D01*
X059261Y073770D01*
X059217Y073758D01*
X059178Y073781D01*
X059166Y073825D01*
X059189Y073864D01*
X059233Y073876D01*
X059272Y073853D01*
X059284Y073809D01*
X059261Y073770D01*
X060182Y073182D02*
X060238Y073126D01*
X060059Y073078D01*
X059900Y073170D01*
X059852Y073349D01*
X059944Y073508D01*
X060123Y073556D01*
X060282Y073464D01*
X060330Y073285D01*
X060238Y073126D01*
X060183Y073198D01*
X060071Y073168D01*
X059972Y073225D01*
X059942Y073337D01*
X059999Y073436D01*
X060111Y073466D01*
X060210Y073409D01*
X060240Y073297D01*
X060183Y073198D01*
X060127Y073270D01*
X060083Y073258D01*
X060044Y073281D01*
X060032Y073325D01*
X060055Y073364D01*
X060099Y073376D01*
X060138Y073353D01*
X060150Y073309D01*
X060127Y073270D01*
X062660Y071544D02*
X062716Y071488D01*
X062532Y071459D01*
X062383Y071567D01*
X062354Y071751D01*
X062462Y071900D01*
X062646Y071929D01*
X062795Y071821D01*
X062824Y071637D01*
X062716Y071488D01*
X062668Y071566D01*
X062553Y071548D01*
X062461Y071615D01*
X062443Y071730D01*
X062510Y071822D01*
X062625Y071840D01*
X062717Y071773D01*
X062735Y071658D01*
X062668Y071566D01*
X062620Y071643D01*
X062575Y071636D01*
X062538Y071663D01*
X062531Y071708D01*
X062558Y071745D01*
X062603Y071752D01*
X062640Y071725D01*
X062647Y071680D01*
X062620Y071643D01*
X063469Y070957D02*
X063525Y070901D01*
X063341Y070872D01*
X063192Y070980D01*
X063163Y071164D01*
X063271Y071313D01*
X063455Y071342D01*
X063604Y071234D01*
X063633Y071050D01*
X063525Y070901D01*
X063477Y070979D01*
X063362Y070961D01*
X063270Y071028D01*
X063252Y071143D01*
X063319Y071235D01*
X063434Y071253D01*
X063526Y071186D01*
X063544Y071071D01*
X063477Y070979D01*
X063429Y071056D01*
X063384Y071049D01*
X063347Y071076D01*
X063340Y071121D01*
X063367Y071158D01*
X063412Y071165D01*
X063449Y071138D01*
X063456Y071093D01*
X063429Y071056D01*
X065761Y069070D02*
X065817Y069014D01*
X065632Y069004D01*
X065495Y069128D01*
X065485Y069313D01*
X065609Y069450D01*
X065794Y069460D01*
X065931Y069336D01*
X065941Y069151D01*
X065817Y069014D01*
X065778Y069096D01*
X065662Y069090D01*
X065577Y069167D01*
X065571Y069283D01*
X065648Y069368D01*
X065764Y069374D01*
X065849Y069297D01*
X065855Y069181D01*
X065778Y069096D01*
X065739Y069178D01*
X065693Y069175D01*
X065659Y069206D01*
X065656Y069252D01*
X065687Y069286D01*
X065733Y069289D01*
X065767Y069258D01*
X065770Y069212D01*
X065739Y069178D01*
X066504Y068401D02*
X066560Y068345D01*
X066375Y068335D01*
X066238Y068459D01*
X066228Y068644D01*
X066352Y068781D01*
X066537Y068791D01*
X066674Y068667D01*
X066684Y068482D01*
X066560Y068345D01*
X066521Y068427D01*
X066405Y068421D01*
X066320Y068498D01*
X066314Y068614D01*
X066391Y068699D01*
X066507Y068705D01*
X066592Y068628D01*
X066598Y068512D01*
X066521Y068427D01*
X066482Y068509D01*
X066436Y068506D01*
X066402Y068537D01*
X066399Y068583D01*
X066430Y068617D01*
X066476Y068620D01*
X066510Y068589D01*
X066513Y068543D01*
X066482Y068509D01*
X068588Y066284D02*
X068644Y066228D01*
X068459Y066238D01*
X068335Y066375D01*
X068345Y066560D01*
X068482Y066684D01*
X068667Y066674D01*
X068791Y066537D01*
X068781Y066352D01*
X068644Y066228D01*
X068614Y066314D01*
X068498Y066320D01*
X068421Y066405D01*
X068427Y066521D01*
X068512Y066598D01*
X068628Y066592D01*
X068705Y066507D01*
X068699Y066391D01*
X068614Y066314D01*
X068583Y066399D01*
X068537Y066402D01*
X068506Y066436D01*
X068509Y066482D01*
X068543Y066513D01*
X068589Y066510D01*
X068620Y066476D01*
X068617Y066430D01*
X068583Y066399D01*
X069257Y065541D02*
X069313Y065485D01*
X069128Y065495D01*
X069004Y065632D01*
X069014Y065817D01*
X069151Y065941D01*
X069336Y065931D01*
X069460Y065794D01*
X069450Y065609D01*
X069313Y065485D01*
X069283Y065571D01*
X069167Y065577D01*
X069090Y065662D01*
X069096Y065778D01*
X069181Y065855D01*
X069297Y065849D01*
X069374Y065764D01*
X069368Y065648D01*
X069283Y065571D01*
X069252Y065656D01*
X069206Y065659D01*
X069175Y065693D01*
X069178Y065739D01*
X069212Y065770D01*
X069258Y065767D01*
X069289Y065733D01*
X069286Y065687D01*
X069252Y065656D01*
X071108Y063219D02*
X071164Y063163D01*
X070980Y063192D01*
X070872Y063341D01*
X070901Y063525D01*
X071050Y063633D01*
X071234Y063604D01*
X071342Y063455D01*
X071313Y063271D01*
X071164Y063163D01*
X071143Y063252D01*
X071028Y063270D01*
X070961Y063362D01*
X070979Y063477D01*
X071071Y063544D01*
X071186Y063526D01*
X071253Y063434D01*
X071235Y063319D01*
X071143Y063252D01*
X071121Y063340D01*
X071076Y063347D01*
X071049Y063384D01*
X071056Y063429D01*
X071093Y063456D01*
X071138Y063449D01*
X071165Y063412D01*
X071158Y063367D01*
X071121Y063340D01*
X071695Y062410D02*
X071751Y062354D01*
X071567Y062383D01*
X071459Y062532D01*
X071488Y062716D01*
X071637Y062824D01*
X071821Y062795D01*
X071929Y062646D01*
X071900Y062462D01*
X071751Y062354D01*
X071730Y062443D01*
X071615Y062461D01*
X071548Y062553D01*
X071566Y062668D01*
X071658Y062735D01*
X071773Y062717D01*
X071840Y062625D01*
X071822Y062510D01*
X071730Y062443D01*
X071708Y062531D01*
X071663Y062538D01*
X071636Y062575D01*
X071643Y062620D01*
X071680Y062647D01*
X071725Y062640D01*
X071752Y062603D01*
X071745Y062558D01*
X071708Y062531D01*
X073293Y059908D02*
X073349Y059852D01*
X073170Y059900D01*
X073078Y060059D01*
X073126Y060238D01*
X073285Y060330D01*
X073464Y060282D01*
X073556Y060123D01*
X073508Y059944D01*
X073349Y059852D01*
X073337Y059942D01*
X073225Y059972D01*
X073168Y060071D01*
X073198Y060183D01*
X073297Y060240D01*
X073409Y060210D01*
X073466Y060111D01*
X073436Y059999D01*
X073337Y059942D01*
X073325Y060032D01*
X073281Y060044D01*
X073258Y060083D01*
X073270Y060127D01*
X073309Y060150D01*
X073353Y060138D01*
X073376Y060099D01*
X073364Y060055D01*
X073325Y060032D01*
X073793Y059042D02*
X073849Y058986D01*
X073670Y059034D01*
X073578Y059193D01*
X073626Y059372D01*
X073785Y059464D01*
X073964Y059416D01*
X074056Y059257D01*
X074008Y059078D01*
X073849Y058986D01*
X073837Y059076D01*
X073725Y059106D01*
X073668Y059205D01*
X073698Y059317D01*
X073797Y059374D01*
X073909Y059344D01*
X073966Y059245D01*
X073936Y059133D01*
X073837Y059076D01*
X073825Y059166D01*
X073781Y059178D01*
X073758Y059217D01*
X073770Y059261D01*
X073809Y059284D01*
X073853Y059272D01*
X073876Y059233D01*
X073864Y059189D01*
X073825Y059166D01*
X075120Y056384D02*
X075176Y056328D01*
X075002Y056395D01*
X074927Y056563D01*
X074994Y056737D01*
X075162Y056812D01*
X075336Y056745D01*
X075411Y056577D01*
X075344Y056403D01*
X075176Y056328D01*
X075173Y056419D01*
X075065Y056461D01*
X075018Y056566D01*
X075060Y056674D01*
X075165Y056721D01*
X075273Y056679D01*
X075320Y056574D01*
X075278Y056466D01*
X075173Y056419D01*
X075170Y056510D01*
X075128Y056527D01*
X075109Y056569D01*
X075126Y056611D01*
X075168Y056630D01*
X075210Y056613D01*
X075229Y056571D01*
X075212Y056529D01*
X075170Y056510D01*
X075527Y055471D02*
X075583Y055415D01*
X075409Y055482D01*
X075334Y055650D01*
X075401Y055824D01*
X075569Y055899D01*
X075743Y055832D01*
X075818Y055664D01*
X075751Y055490D01*
X075583Y055415D01*
X075580Y055506D01*
X075472Y055548D01*
X075425Y055653D01*
X075467Y055761D01*
X075572Y055808D01*
X075680Y055766D01*
X075727Y055661D01*
X075685Y055553D01*
X075580Y055506D01*
X075577Y055597D01*
X075535Y055614D01*
X075516Y055656D01*
X075533Y055698D01*
X075575Y055717D01*
X075617Y055700D01*
X075636Y055658D01*
X075619Y055616D01*
X075577Y055597D01*
X076681Y052691D02*
X076625Y052635D01*
X076459Y052720D01*
X076402Y052894D01*
X076487Y053060D01*
X076661Y053117D01*
X076827Y053032D01*
X076884Y052858D01*
X076799Y052692D01*
X076625Y052635D01*
X076633Y052726D01*
X076528Y052779D01*
X076493Y052886D01*
X076546Y052991D01*
X076653Y053026D01*
X076758Y052973D01*
X076793Y052866D01*
X076740Y052761D01*
X076633Y052726D01*
X076639Y052816D01*
X076597Y052837D01*
X076583Y052880D01*
X076604Y052922D01*
X076647Y052936D01*
X076689Y052915D01*
X076703Y052872D01*
X076682Y052830D01*
X076639Y052816D01*
X076990Y051740D02*
X076934Y051684D01*
X076768Y051769D01*
X076711Y051943D01*
X076796Y052109D01*
X076970Y052166D01*
X077136Y052081D01*
X077193Y051907D01*
X077108Y051741D01*
X076934Y051684D01*
X076942Y051775D01*
X076837Y051828D01*
X076802Y051935D01*
X076855Y052040D01*
X076962Y052075D01*
X077067Y052022D01*
X077102Y051915D01*
X077049Y051810D01*
X076942Y051775D01*
X076948Y051865D01*
X076906Y051886D01*
X076892Y051929D01*
X076913Y051971D01*
X076956Y051985D01*
X076998Y051964D01*
X077012Y051921D01*
X076991Y051879D01*
X076948Y051865D01*
X077737Y048866D02*
X077681Y048810D01*
X077525Y048912D01*
X077486Y049091D01*
X077588Y049247D01*
X077767Y049286D01*
X077923Y049184D01*
X077962Y049005D01*
X077860Y048849D01*
X077681Y048810D01*
X077698Y048900D01*
X077599Y048964D01*
X077576Y049074D01*
X077640Y049173D01*
X077750Y049196D01*
X077849Y049132D01*
X077872Y049022D01*
X077808Y048923D01*
X077698Y048900D01*
X077714Y048989D01*
X077675Y049014D01*
X077665Y049058D01*
X077690Y049097D01*
X077734Y049107D01*
X077773Y049082D01*
X077783Y049038D01*
X077758Y048999D01*
X077714Y048989D01*
X077945Y047888D02*
X077889Y047832D01*
X077733Y047934D01*
X077694Y048113D01*
X077796Y048269D01*
X077975Y048308D01*
X078131Y048206D01*
X078170Y048027D01*
X078068Y047871D01*
X077889Y047832D01*
X077906Y047922D01*
X077807Y047986D01*
X077784Y048096D01*
X077848Y048195D01*
X077958Y048218D01*
X078057Y048154D01*
X078080Y048044D01*
X078016Y047945D01*
X077906Y047922D01*
X077922Y048011D01*
X077883Y048036D01*
X077873Y048080D01*
X077898Y048119D01*
X077942Y048129D01*
X077981Y048104D01*
X077991Y048060D01*
X077966Y048021D01*
X077922Y048011D01*
X078385Y044951D02*
X078329Y044895D01*
X078184Y045013D01*
X078165Y045195D01*
X078283Y045340D01*
X078465Y045359D01*
X078610Y045241D01*
X078629Y045059D01*
X078511Y044914D01*
X078329Y044895D01*
X078355Y044982D01*
X078264Y045056D01*
X078252Y045169D01*
X078326Y045260D01*
X078439Y045272D01*
X078530Y045198D01*
X078542Y045085D01*
X078468Y044994D01*
X078355Y044982D01*
X078380Y045069D01*
X078344Y045099D01*
X078339Y045144D01*
X078369Y045180D01*
X078414Y045185D01*
X078450Y045155D01*
X078455Y045110D01*
X078425Y045074D01*
X078380Y045069D01*
X078490Y043956D02*
X078434Y043900D01*
X078289Y044018D01*
X078270Y044200D01*
X078388Y044345D01*
X078570Y044364D01*
X078715Y044246D01*
X078734Y044064D01*
X078616Y043919D01*
X078434Y043900D01*
X078460Y043987D01*
X078369Y044061D01*
X078357Y044174D01*
X078431Y044265D01*
X078544Y044277D01*
X078635Y044203D01*
X078647Y044090D01*
X078573Y043999D01*
X078460Y043987D01*
X078485Y044074D01*
X078449Y044104D01*
X078444Y044149D01*
X078474Y044185D01*
X078519Y044190D01*
X078555Y044160D01*
X078560Y044115D01*
X078530Y044079D01*
X078485Y044074D01*
X078444Y037026D02*
X078388Y036970D01*
X078270Y037115D01*
X078289Y037297D01*
X078434Y037415D01*
X078616Y037396D01*
X078734Y037251D01*
X078715Y037069D01*
X078570Y036951D01*
X078388Y036970D01*
X078431Y037050D01*
X078357Y037141D01*
X078369Y037254D01*
X078460Y037328D01*
X078573Y037316D01*
X078647Y037225D01*
X078635Y037112D01*
X078544Y037038D01*
X078431Y037050D01*
X078474Y037130D01*
X078444Y037166D01*
X078449Y037211D01*
X078485Y037241D01*
X078530Y037236D01*
X078560Y037200D01*
X078555Y037155D01*
X078519Y037125D01*
X078474Y037130D01*
X078339Y036031D02*
X078283Y035975D01*
X078165Y036120D01*
X078184Y036302D01*
X078329Y036420D01*
X078511Y036401D01*
X078629Y036256D01*
X078610Y036074D01*
X078465Y035956D01*
X078283Y035975D01*
X078326Y036055D01*
X078252Y036146D01*
X078264Y036259D01*
X078355Y036333D01*
X078468Y036321D01*
X078542Y036230D01*
X078530Y036117D01*
X078439Y036043D01*
X078326Y036055D01*
X078369Y036135D01*
X078339Y036171D01*
X078344Y036216D01*
X078380Y036246D01*
X078425Y036241D01*
X078455Y036205D01*
X078450Y036160D01*
X078414Y036130D01*
X078369Y036135D01*
X077871Y033104D02*
X077815Y033048D01*
X077725Y033211D01*
X077776Y033387D01*
X077939Y033477D01*
X078115Y033426D01*
X078205Y033263D01*
X078154Y033087D01*
X077991Y032997D01*
X077815Y033048D01*
X077872Y033119D01*
X077815Y033221D01*
X077847Y033330D01*
X077949Y033387D01*
X078058Y033355D01*
X078115Y033253D01*
X078083Y033144D01*
X077981Y033087D01*
X077872Y033119D01*
X077928Y033190D01*
X077905Y033231D01*
X077918Y033274D01*
X077959Y033297D01*
X078002Y033284D01*
X078025Y033243D01*
X078012Y033200D01*
X077971Y033177D01*
X077928Y033190D01*
X077596Y032143D02*
X077540Y032087D01*
X077450Y032250D01*
X077501Y032426D01*
X077664Y032516D01*
X077840Y032465D01*
X077930Y032302D01*
X077879Y032126D01*
X077716Y032036D01*
X077540Y032087D01*
X077597Y032158D01*
X077540Y032260D01*
X077572Y032369D01*
X077674Y032426D01*
X077783Y032394D01*
X077840Y032292D01*
X077808Y032183D01*
X077706Y032126D01*
X077597Y032158D01*
X077653Y032229D01*
X077630Y032270D01*
X077643Y032313D01*
X077684Y032336D01*
X077727Y032323D01*
X077750Y032282D01*
X077737Y032239D01*
X077696Y032216D01*
X077653Y032229D01*
X076854Y029262D02*
X076798Y029206D01*
X076715Y029373D01*
X076773Y029547D01*
X076940Y029630D01*
X077114Y029572D01*
X077197Y029405D01*
X077139Y029231D01*
X076972Y029148D01*
X076798Y029206D01*
X076858Y029275D01*
X076806Y029380D01*
X076842Y029487D01*
X076947Y029539D01*
X077054Y029503D01*
X077106Y029398D01*
X077070Y029291D01*
X076965Y029239D01*
X076858Y029275D01*
X076917Y029344D01*
X076896Y029385D01*
X076911Y029428D01*
X076952Y029449D01*
X076995Y029434D01*
X077016Y029393D01*
X077001Y029350D01*
X076960Y029329D01*
X076917Y029344D01*
X076537Y028313D02*
X076481Y028257D01*
X076398Y028424D01*
X076456Y028598D01*
X076623Y028681D01*
X076797Y028623D01*
X076880Y028456D01*
X076822Y028282D01*
X076655Y028199D01*
X076481Y028257D01*
X076541Y028326D01*
X076489Y028431D01*
X076525Y028538D01*
X076630Y028590D01*
X076737Y028554D01*
X076789Y028449D01*
X076753Y028342D01*
X076648Y028290D01*
X076541Y028326D01*
X076600Y028395D01*
X076579Y028436D01*
X076594Y028479D01*
X076635Y028500D01*
X076678Y028485D01*
X076699Y028444D01*
X076684Y028401D01*
X076643Y028380D01*
X076600Y028395D01*
X075479Y025545D02*
X075423Y025489D01*
X075370Y025667D01*
X075457Y025829D01*
X075635Y025882D01*
X075797Y025795D01*
X075850Y025617D01*
X075763Y025455D01*
X075585Y025402D01*
X075423Y025489D01*
X075494Y025546D01*
X075460Y025658D01*
X075514Y025758D01*
X075626Y025792D01*
X075726Y025738D01*
X075760Y025626D01*
X075706Y025526D01*
X075594Y025492D01*
X075494Y025546D01*
X075564Y025604D01*
X075550Y025648D01*
X075572Y025688D01*
X075616Y025702D01*
X075656Y025680D01*
X075670Y025636D01*
X075648Y025596D01*
X075604Y025582D01*
X075564Y025604D01*
X075005Y024664D02*
X074949Y024608D01*
X074896Y024786D01*
X074983Y024948D01*
X075161Y025001D01*
X075323Y024914D01*
X075376Y024736D01*
X075289Y024574D01*
X075111Y024521D01*
X074949Y024608D01*
X075020Y024665D01*
X074986Y024777D01*
X075040Y024877D01*
X075152Y024911D01*
X075252Y024857D01*
X075286Y024745D01*
X075232Y024645D01*
X075120Y024611D01*
X075020Y024665D01*
X075090Y024723D01*
X075076Y024767D01*
X075098Y024807D01*
X075142Y024821D01*
X075182Y024799D01*
X075196Y024755D01*
X075174Y024715D01*
X075130Y024701D01*
X075090Y024723D01*
X073682Y022000D02*
X073626Y021944D01*
X073578Y022123D01*
X073670Y022282D01*
X073849Y022330D01*
X074008Y022238D01*
X074056Y022059D01*
X073964Y021900D01*
X073785Y021852D01*
X073626Y021944D01*
X073698Y021999D01*
X073668Y022111D01*
X073725Y022210D01*
X073837Y022240D01*
X073936Y022183D01*
X073966Y022071D01*
X073909Y021972D01*
X073797Y021942D01*
X073698Y021999D01*
X073770Y022055D01*
X073758Y022099D01*
X073781Y022138D01*
X073825Y022150D01*
X073864Y022127D01*
X073876Y022083D01*
X073853Y022044D01*
X073809Y022032D01*
X073770Y022055D01*
X073182Y021134D02*
X073126Y021078D01*
X073078Y021257D01*
X073170Y021416D01*
X073349Y021464D01*
X073508Y021372D01*
X073556Y021193D01*
X073464Y021034D01*
X073285Y020986D01*
X073126Y021078D01*
X073198Y021133D01*
X073168Y021245D01*
X073225Y021344D01*
X073337Y021374D01*
X073436Y021317D01*
X073466Y021205D01*
X073409Y021106D01*
X073297Y021076D01*
X073198Y021133D01*
X073270Y021189D01*
X073258Y021233D01*
X073281Y021272D01*
X073325Y021284D01*
X073364Y021261D01*
X073376Y021217D01*
X073353Y021178D01*
X073309Y021166D01*
X073270Y021189D01*
X071544Y018655D02*
X071488Y018599D01*
X071459Y018783D01*
X071567Y018932D01*
X071751Y018961D01*
X071900Y018853D01*
X071929Y018669D01*
X071821Y018520D01*
X071637Y018491D01*
X071488Y018599D01*
X071566Y018647D01*
X071548Y018762D01*
X071615Y018854D01*
X071730Y018872D01*
X071822Y018805D01*
X071840Y018690D01*
X071773Y018598D01*
X071658Y018580D01*
X071566Y018647D01*
X071643Y018695D01*
X071636Y018740D01*
X071663Y018777D01*
X071708Y018784D01*
X071745Y018757D01*
X071752Y018712D01*
X071725Y018675D01*
X071680Y018668D01*
X071643Y018695D01*
X070957Y017846D02*
X070901Y017790D01*
X070872Y017974D01*
X070980Y018123D01*
X071164Y018152D01*
X071313Y018044D01*
X071342Y017860D01*
X071234Y017711D01*
X071050Y017682D01*
X070901Y017790D01*
X070979Y017838D01*
X070961Y017953D01*
X071028Y018045D01*
X071143Y018063D01*
X071235Y017996D01*
X071253Y017881D01*
X071186Y017789D01*
X071071Y017771D01*
X070979Y017838D01*
X071056Y017886D01*
X071049Y017931D01*
X071076Y017968D01*
X071121Y017975D01*
X071158Y017948D01*
X071165Y017903D01*
X071138Y017866D01*
X071093Y017859D01*
X071056Y017886D01*
X069070Y015554D02*
X069014Y015498D01*
X069004Y015683D01*
X069128Y015820D01*
X069313Y015830D01*
X069450Y015706D01*
X069460Y015521D01*
X069336Y015384D01*
X069151Y015374D01*
X069014Y015498D01*
X069096Y015537D01*
X069090Y015653D01*
X069167Y015738D01*
X069283Y015744D01*
X069368Y015667D01*
X069374Y015551D01*
X069297Y015466D01*
X069181Y015460D01*
X069096Y015537D01*
X069178Y015576D01*
X069175Y015622D01*
X069206Y015656D01*
X069252Y015659D01*
X069286Y015628D01*
X069289Y015582D01*
X069258Y015548D01*
X069212Y015545D01*
X069178Y015576D01*
X068401Y014811D02*
X068345Y014755D01*
X068335Y014940D01*
X068459Y015077D01*
X068644Y015087D01*
X068781Y014963D01*
X068791Y014778D01*
X068667Y014641D01*
X068482Y014631D01*
X068345Y014755D01*
X068427Y014794D01*
X068421Y014910D01*
X068498Y014995D01*
X068614Y015001D01*
X068699Y014924D01*
X068705Y014808D01*
X068628Y014723D01*
X068512Y014717D01*
X068427Y014794D01*
X068509Y014833D01*
X068506Y014879D01*
X068537Y014913D01*
X068583Y014916D01*
X068617Y014885D01*
X068620Y014839D01*
X068589Y014805D01*
X068543Y014802D01*
X068509Y014833D01*
X066284Y012727D02*
X066228Y012671D01*
X066238Y012856D01*
X066375Y012980D01*
X066560Y012970D01*
X066684Y012833D01*
X066674Y012648D01*
X066537Y012524D01*
X066352Y012534D01*
X066228Y012671D01*
X066314Y012701D01*
X066320Y012817D01*
X066405Y012894D01*
X066521Y012888D01*
X066598Y012803D01*
X066592Y012687D01*
X066507Y012610D01*
X066391Y012616D01*
X066314Y012701D01*
X066399Y012732D01*
X066402Y012778D01*
X066436Y012809D01*
X066482Y012806D01*
X066513Y012772D01*
X066510Y012726D01*
X066476Y012695D01*
X066430Y012698D01*
X066399Y012732D01*
X065541Y012058D02*
X065485Y012002D01*
X065495Y012187D01*
X065632Y012311D01*
X065817Y012301D01*
X065941Y012164D01*
X065931Y011979D01*
X065794Y011855D01*
X065609Y011865D01*
X065485Y012002D01*
X065571Y012032D01*
X065577Y012148D01*
X065662Y012225D01*
X065778Y012219D01*
X065855Y012134D01*
X065849Y012018D01*
X065764Y011941D01*
X065648Y011947D01*
X065571Y012032D01*
X065656Y012063D01*
X065659Y012109D01*
X065693Y012140D01*
X065739Y012137D01*
X065770Y012103D01*
X065767Y012057D01*
X065733Y012026D01*
X065687Y012029D01*
X065656Y012063D01*
X063219Y010208D02*
X063163Y010152D01*
X063192Y010336D01*
X063341Y010444D01*
X063525Y010415D01*
X063633Y010266D01*
X063604Y010082D01*
X063455Y009974D01*
X063271Y010003D01*
X063163Y010152D01*
X063252Y010173D01*
X063270Y010288D01*
X063362Y010355D01*
X063477Y010337D01*
X063544Y010245D01*
X063526Y010130D01*
X063434Y010063D01*
X063319Y010081D01*
X063252Y010173D01*
X063340Y010195D01*
X063347Y010240D01*
X063384Y010267D01*
X063429Y010260D01*
X063456Y010223D01*
X063449Y010178D01*
X063412Y010151D01*
X063367Y010158D01*
X063340Y010195D01*
X062410Y009620D02*
X062354Y009564D01*
X062383Y009748D01*
X062532Y009856D01*
X062716Y009827D01*
X062824Y009678D01*
X062795Y009494D01*
X062646Y009386D01*
X062462Y009415D01*
X062354Y009564D01*
X062443Y009585D01*
X062461Y009700D01*
X062553Y009767D01*
X062668Y009749D01*
X062735Y009657D01*
X062717Y009542D01*
X062625Y009475D01*
X062510Y009493D01*
X062443Y009585D01*
X062531Y009607D01*
X062538Y009652D01*
X062575Y009679D01*
X062620Y009672D01*
X062647Y009635D01*
X062640Y009590D01*
X062603Y009563D01*
X062558Y009570D01*
X062531Y009607D01*
X059908Y008023D02*
X059852Y007967D01*
X059900Y008146D01*
X060059Y008238D01*
X060238Y008190D01*
X060330Y008031D01*
X060282Y007852D01*
X060123Y007760D01*
X059944Y007808D01*
X059852Y007967D01*
X059942Y007979D01*
X059972Y008091D01*
X060071Y008148D01*
X060183Y008118D01*
X060240Y008019D01*
X060210Y007907D01*
X060111Y007850D01*
X059999Y007880D01*
X059942Y007979D01*
X060032Y007991D01*
X060044Y008035D01*
X060083Y008058D01*
X060127Y008046D01*
X060150Y008007D01*
X060138Y007963D01*
X060099Y007940D01*
X060055Y007952D01*
X060032Y007991D01*
X059042Y007523D02*
X058986Y007467D01*
X059034Y007646D01*
X059193Y007738D01*
X059372Y007690D01*
X059464Y007531D01*
X059416Y007352D01*
X059257Y007260D01*
X059078Y007308D01*
X058986Y007467D01*
X059076Y007479D01*
X059106Y007591D01*
X059205Y007648D01*
X059317Y007618D01*
X059374Y007519D01*
X059344Y007407D01*
X059245Y007350D01*
X059133Y007380D01*
X059076Y007479D01*
X059166Y007491D01*
X059178Y007535D01*
X059217Y007558D01*
X059261Y007546D01*
X059284Y007507D01*
X059272Y007463D01*
X059233Y007440D01*
X059189Y007452D01*
X059166Y007491D01*
X056384Y006195D02*
X056328Y006139D01*
X056395Y006313D01*
X056563Y006388D01*
X056737Y006321D01*
X056812Y006153D01*
X056745Y005979D01*
X056577Y005904D01*
X056403Y005971D01*
X056328Y006139D01*
X056419Y006142D01*
X056461Y006250D01*
X056566Y006297D01*
X056674Y006255D01*
X056721Y006150D01*
X056679Y006042D01*
X056574Y005995D01*
X056466Y006037D01*
X056419Y006142D01*
X056510Y006145D01*
X056527Y006187D01*
X056569Y006206D01*
X056611Y006189D01*
X056630Y006147D01*
X056613Y006105D01*
X056571Y006086D01*
X056529Y006103D01*
X056510Y006145D01*
X055471Y005788D02*
X055415Y005732D01*
X055482Y005906D01*
X055650Y005981D01*
X055824Y005914D01*
X055899Y005746D01*
X055832Y005572D01*
X055664Y005497D01*
X055490Y005564D01*
X055415Y005732D01*
X055506Y005735D01*
X055548Y005843D01*
X055653Y005890D01*
X055761Y005848D01*
X055808Y005743D01*
X055766Y005635D01*
X055661Y005588D01*
X055553Y005630D01*
X055506Y005735D01*
X055597Y005738D01*
X055614Y005780D01*
X055656Y005799D01*
X055698Y005782D01*
X055717Y005740D01*
X055700Y005698D01*
X055658Y005679D01*
X055616Y005696D01*
X055597Y005738D01*
X052691Y004634D02*
X052635Y004690D01*
X052720Y004856D01*
X052894Y004913D01*
X053060Y004828D01*
X053117Y004654D01*
X053032Y004488D01*
X052858Y004431D01*
X052692Y004516D01*
X052635Y004690D01*
X052726Y004682D01*
X052779Y004787D01*
X052886Y004822D01*
X052991Y004769D01*
X053026Y004662D01*
X052973Y004557D01*
X052866Y004522D01*
X052761Y004575D01*
X052726Y004682D01*
X052816Y004676D01*
X052837Y004718D01*
X052880Y004732D01*
X052922Y004711D01*
X052936Y004668D01*
X052915Y004626D01*
X052872Y004612D01*
X052830Y004633D01*
X052816Y004676D01*
X051740Y004325D02*
X051684Y004381D01*
X051769Y004547D01*
X051943Y004604D01*
X052109Y004519D01*
X052166Y004345D01*
X052081Y004179D01*
X051907Y004122D01*
X051741Y004207D01*
X051684Y004381D01*
X051775Y004373D01*
X051828Y004478D01*
X051935Y004513D01*
X052040Y004460D01*
X052075Y004353D01*
X052022Y004248D01*
X051915Y004213D01*
X051810Y004266D01*
X051775Y004373D01*
X051865Y004367D01*
X051886Y004409D01*
X051929Y004423D01*
X051971Y004402D01*
X051985Y004359D01*
X051964Y004317D01*
X051921Y004303D01*
X051879Y004324D01*
X051865Y004367D01*
X048866Y003579D02*
X048810Y003635D01*
X048912Y003791D01*
X049091Y003830D01*
X049247Y003728D01*
X049286Y003549D01*
X049184Y003393D01*
X049005Y003354D01*
X048849Y003456D01*
X048810Y003635D01*
X048900Y003618D01*
X048964Y003717D01*
X049074Y003740D01*
X049173Y003676D01*
X049196Y003566D01*
X049132Y003467D01*
X049022Y003444D01*
X048923Y003508D01*
X048900Y003618D01*
X048989Y003602D01*
X049014Y003641D01*
X049058Y003651D01*
X049097Y003626D01*
X049107Y003582D01*
X049082Y003543D01*
X049038Y003533D01*
X048999Y003558D01*
X048989Y003602D01*
X047888Y003371D02*
X047832Y003427D01*
X047934Y003583D01*
X048113Y003622D01*
X048269Y003520D01*
X048308Y003341D01*
X048206Y003185D01*
X048027Y003146D01*
X047871Y003248D01*
X047832Y003427D01*
X047922Y003410D01*
X047986Y003509D01*
X048096Y003532D01*
X048195Y003468D01*
X048218Y003358D01*
X048154Y003259D01*
X048044Y003236D01*
X047945Y003300D01*
X047922Y003410D01*
X048011Y003394D01*
X048036Y003433D01*
X048080Y003443D01*
X048119Y003418D01*
X048129Y003374D01*
X048104Y003335D01*
X048060Y003325D01*
X048021Y003350D01*
X048011Y003394D01*
X044951Y002930D02*
X044895Y002986D01*
X045013Y003131D01*
X045195Y003150D01*
X045340Y003032D01*
X045359Y002850D01*
X045241Y002705D01*
X045059Y002686D01*
X044914Y002804D01*
X044895Y002986D01*
X044982Y002960D01*
X045056Y003051D01*
X045169Y003063D01*
X045260Y002989D01*
X045272Y002876D01*
X045198Y002785D01*
X045085Y002773D01*
X044994Y002847D01*
X044982Y002960D01*
X045069Y002935D01*
X045099Y002971D01*
X045144Y002976D01*
X045180Y002946D01*
X045185Y002901D01*
X045155Y002865D01*
X045110Y002860D01*
X045074Y002890D01*
X045069Y002935D01*
X043956Y002825D02*
X043900Y002881D01*
X044018Y003026D01*
X044200Y003045D01*
X044345Y002927D01*
X044364Y002745D01*
X044246Y002600D01*
X044064Y002581D01*
X043919Y002699D01*
X043900Y002881D01*
X043987Y002855D01*
X044061Y002946D01*
X044174Y002958D01*
X044265Y002884D01*
X044277Y002771D01*
X044203Y002680D01*
X044090Y002668D01*
X043999Y002742D01*
X043987Y002855D01*
X044074Y002830D01*
X044104Y002866D01*
X044149Y002871D01*
X044185Y002841D01*
X044190Y002796D01*
X044160Y002760D01*
X044115Y002755D01*
X044079Y002785D01*
X044074Y002830D01*
X037026Y002871D02*
X036970Y002927D01*
X037115Y003045D01*
X037297Y003026D01*
X037415Y002881D01*
X037396Y002699D01*
X037251Y002581D01*
X037069Y002600D01*
X036951Y002745D01*
X036970Y002927D01*
X037050Y002884D01*
X037141Y002958D01*
X037254Y002946D01*
X037328Y002855D01*
X037316Y002742D01*
X037225Y002668D01*
X037112Y002680D01*
X037038Y002771D01*
X037050Y002884D01*
X037130Y002841D01*
X037166Y002871D01*
X037211Y002866D01*
X037241Y002830D01*
X037236Y002785D01*
X037200Y002755D01*
X037155Y002760D01*
X037125Y002796D01*
X037130Y002841D01*
X036031Y002976D02*
X035975Y003032D01*
X036120Y003150D01*
X036302Y003131D01*
X036420Y002986D01*
X036401Y002804D01*
X036256Y002686D01*
X036074Y002705D01*
X035956Y002850D01*
X035975Y003032D01*
X036055Y002989D01*
X036146Y003063D01*
X036259Y003051D01*
X036333Y002960D01*
X036321Y002847D01*
X036230Y002773D01*
X036117Y002785D01*
X036043Y002876D01*
X036055Y002989D01*
X036135Y002946D01*
X036171Y002976D01*
X036216Y002971D01*
X036246Y002935D01*
X036241Y002890D01*
X036205Y002860D01*
X036160Y002865D01*
X036130Y002901D01*
X036135Y002946D01*
X033103Y003464D02*
X033047Y003520D01*
X033203Y003622D01*
X033382Y003583D01*
X033484Y003427D01*
X033445Y003248D01*
X033289Y003146D01*
X033110Y003185D01*
X033008Y003341D01*
X033047Y003520D01*
X033121Y003468D01*
X033220Y003532D01*
X033330Y003509D01*
X033394Y003410D01*
X033371Y003300D01*
X033272Y003236D01*
X033162Y003259D01*
X033098Y003358D01*
X033121Y003468D01*
X033197Y003418D01*
X033236Y003443D01*
X033280Y003433D01*
X033305Y003394D01*
X033295Y003350D01*
X033256Y003325D01*
X033212Y003335D01*
X033187Y003374D01*
X033197Y003418D01*
X032125Y003672D02*
X032069Y003728D01*
X032225Y003830D01*
X032404Y003791D01*
X032506Y003635D01*
X032467Y003456D01*
X032311Y003354D01*
X032132Y003393D01*
X032030Y003549D01*
X032069Y003728D01*
X032143Y003676D01*
X032242Y003740D01*
X032352Y003717D01*
X032416Y003618D01*
X032393Y003508D01*
X032294Y003444D01*
X032184Y003467D01*
X032120Y003566D01*
X032143Y003676D01*
X032219Y003626D01*
X032258Y003651D01*
X032302Y003641D01*
X032327Y003602D01*
X032317Y003558D01*
X032278Y003533D01*
X032234Y003543D01*
X032209Y003582D01*
X032219Y003626D01*
X029262Y004463D02*
X029206Y004519D01*
X029372Y004604D01*
X029546Y004547D01*
X029631Y004381D01*
X029574Y004207D01*
X029408Y004122D01*
X029234Y004179D01*
X029149Y004345D01*
X029206Y004519D01*
X029275Y004460D01*
X029380Y004513D01*
X029487Y004478D01*
X029540Y004373D01*
X029505Y004266D01*
X029400Y004213D01*
X029293Y004248D01*
X029240Y004353D01*
X029275Y004460D01*
X029344Y004402D01*
X029386Y004423D01*
X029429Y004409D01*
X029450Y004367D01*
X029436Y004324D01*
X029394Y004303D01*
X029351Y004317D01*
X029330Y004359D01*
X029344Y004402D01*
X028311Y004772D02*
X028255Y004828D01*
X028421Y004913D01*
X028595Y004856D01*
X028680Y004690D01*
X028623Y004516D01*
X028457Y004431D01*
X028283Y004488D01*
X028198Y004654D01*
X028255Y004828D01*
X028324Y004769D01*
X028429Y004822D01*
X028536Y004787D01*
X028589Y004682D01*
X028554Y004575D01*
X028449Y004522D01*
X028342Y004557D01*
X028289Y004662D01*
X028324Y004769D01*
X028393Y004711D01*
X028435Y004732D01*
X028478Y004718D01*
X028499Y004676D01*
X028485Y004633D01*
X028443Y004612D01*
X028400Y004626D01*
X028379Y004668D01*
X028393Y004711D01*
X025547Y005858D02*
X025491Y005914D01*
X025665Y005981D01*
X025833Y005906D01*
X025900Y005732D01*
X025825Y005564D01*
X025651Y005497D01*
X025483Y005572D01*
X025416Y005746D01*
X025491Y005914D01*
X025554Y005848D01*
X025662Y005890D01*
X025767Y005843D01*
X025809Y005735D01*
X025762Y005630D01*
X025654Y005588D01*
X025549Y005635D01*
X025507Y005743D01*
X025554Y005848D01*
X025617Y005782D01*
X025659Y005799D01*
X025701Y005780D01*
X025718Y005738D01*
X025699Y005696D01*
X025657Y005679D01*
X025615Y005698D01*
X025598Y005740D01*
X025617Y005782D01*
X024634Y006265D02*
X024578Y006321D01*
X024752Y006388D01*
X024920Y006313D01*
X024987Y006139D01*
X024912Y005971D01*
X024738Y005904D01*
X024570Y005979D01*
X024503Y006153D01*
X024578Y006321D01*
X024641Y006255D01*
X024749Y006297D01*
X024854Y006250D01*
X024896Y006142D01*
X024849Y006037D01*
X024741Y005995D01*
X024636Y006042D01*
X024594Y006150D01*
X024641Y006255D01*
X024704Y006189D01*
X024746Y006206D01*
X024788Y006187D01*
X024805Y006145D01*
X024786Y006103D01*
X024744Y006086D01*
X024702Y006105D01*
X024685Y006147D01*
X024704Y006189D01*
X022000Y007634D02*
X021944Y007690D01*
X022123Y007738D01*
X022282Y007646D01*
X022330Y007467D01*
X022238Y007308D01*
X022059Y007260D01*
X021900Y007352D01*
X021852Y007531D01*
X021944Y007690D01*
X021999Y007618D01*
X022111Y007648D01*
X022210Y007591D01*
X022240Y007479D01*
X022183Y007380D01*
X022071Y007350D01*
X021972Y007407D01*
X021942Y007519D01*
X021999Y007618D01*
X022055Y007546D01*
X022099Y007558D01*
X022138Y007535D01*
X022150Y007491D01*
X022127Y007452D01*
X022083Y007440D01*
X022044Y007463D01*
X022032Y007507D01*
X022055Y007546D01*
X021134Y008134D02*
X021078Y008190D01*
X021257Y008238D01*
X021416Y008146D01*
X021464Y007967D01*
X021372Y007808D01*
X021193Y007760D01*
X021034Y007852D01*
X020986Y008031D01*
X021078Y008190D01*
X021133Y008118D01*
X021245Y008148D01*
X021344Y008091D01*
X021374Y007979D01*
X021317Y007880D01*
X021205Y007850D01*
X021106Y007907D01*
X021076Y008019D01*
X021133Y008118D01*
X021189Y008046D01*
X021233Y008058D01*
X021272Y008035D01*
X021284Y007991D01*
X021261Y007952D01*
X021217Y007940D01*
X021178Y007963D01*
X021166Y008007D01*
X021189Y008046D01*
X018655Y009771D02*
X018599Y009827D01*
X018783Y009856D01*
X018932Y009748D01*
X018961Y009564D01*
X018853Y009415D01*
X018669Y009386D01*
X018520Y009494D01*
X018491Y009678D01*
X018599Y009827D01*
X018647Y009749D01*
X018762Y009767D01*
X018854Y009700D01*
X018872Y009585D01*
X018805Y009493D01*
X018690Y009475D01*
X018598Y009542D01*
X018580Y009657D01*
X018647Y009749D01*
X018695Y009672D01*
X018740Y009679D01*
X018777Y009652D01*
X018784Y009607D01*
X018757Y009570D01*
X018712Y009563D01*
X018675Y009590D01*
X018668Y009635D01*
X018695Y009672D01*
X017846Y010359D02*
X017790Y010415D01*
X017974Y010444D01*
X018123Y010336D01*
X018152Y010152D01*
X018044Y010003D01*
X017860Y009974D01*
X017711Y010082D01*
X017682Y010266D01*
X017790Y010415D01*
X017838Y010337D01*
X017953Y010355D01*
X018045Y010288D01*
X018063Y010173D01*
X017996Y010081D01*
X017881Y010063D01*
X017789Y010130D01*
X017771Y010245D01*
X017838Y010337D01*
X017886Y010260D01*
X017931Y010267D01*
X017968Y010240D01*
X017975Y010195D01*
X017948Y010158D01*
X017903Y010151D01*
X017866Y010178D01*
X017859Y010223D01*
X017886Y010260D01*
X015554Y012245D02*
X015498Y012301D01*
X015683Y012311D01*
X015820Y012187D01*
X015830Y012002D01*
X015706Y011865D01*
X015521Y011855D01*
X015384Y011979D01*
X015374Y012164D01*
X015498Y012301D01*
X015537Y012219D01*
X015653Y012225D01*
X015738Y012148D01*
X015744Y012032D01*
X015667Y011947D01*
X015551Y011941D01*
X015466Y012018D01*
X015460Y012134D01*
X015537Y012219D01*
X015576Y012137D01*
X015622Y012140D01*
X015656Y012109D01*
X015659Y012063D01*
X015628Y012029D01*
X015582Y012026D01*
X015548Y012057D01*
X015545Y012103D01*
X015576Y012137D01*
X014811Y012914D02*
X014755Y012970D01*
X014940Y012980D01*
X015077Y012856D01*
X015087Y012671D01*
X014963Y012534D01*
X014778Y012524D01*
X014641Y012648D01*
X014631Y012833D01*
X014755Y012970D01*
X014794Y012888D01*
X014910Y012894D01*
X014995Y012817D01*
X015001Y012701D01*
X014924Y012616D01*
X014808Y012610D01*
X014723Y012687D01*
X014717Y012803D01*
X014794Y012888D01*
X014833Y012806D01*
X014879Y012809D01*
X014913Y012778D01*
X014916Y012732D01*
X014885Y012698D01*
X014839Y012695D01*
X014805Y012726D01*
X014802Y012772D01*
X014833Y012806D01*
D14*
X040658Y010658D03*
X010158Y040658D03*
X040658Y071158D03*
X071658Y040658D03*
M02*
