G75*
G70*
%OFA0B0*%
%FSLAX24Y24*%
%IPPOS*%
%LPD*%
%AMOC8*
5,1,8,0,0,1.08239X$1,22.5*
%
%ADD10C,0.0100*%
%ADD11C,0.0200*%
%ADD12C,0.0600*%
%ADD13OC8,0.0520*%
%ADD14C,0.0104*%
%ADD15C,0.1400*%
%ADD16C,0.2400*%
%ADD17C,0.0320*%
%ADD18C,0.0300*%
%ADD19C,0.0240*%
D10*
X012395Y014514D02*
X012508Y014618D01*
X012748Y014858D01*
X012752Y014859D01*
X009968Y017668D02*
X009844Y017575D01*
X009968Y017668D02*
X010208Y017908D01*
X010209Y017917D01*
X007758Y020978D02*
X007618Y020894D01*
X007758Y020978D02*
X007998Y021218D01*
X007999Y021225D01*
X006138Y024738D02*
X006146Y024745D01*
X006138Y024738D02*
X005778Y024738D01*
X005633Y024672D01*
X004668Y028438D02*
X004672Y028439D01*
X004668Y028438D02*
X004308Y028438D01*
X004165Y028390D01*
X003588Y032258D02*
X003592Y032268D01*
X003588Y032258D02*
X003258Y032258D01*
X003093Y032221D01*
X002918Y036188D02*
X002918Y036188D01*
X002578Y036188D01*
X002420Y036169D01*
X002318Y040158D02*
X002161Y040156D01*
X002318Y040158D02*
X002658Y040158D01*
X002813Y044132D02*
X002808Y044138D01*
X002478Y044138D01*
X002317Y044152D01*
X003038Y048078D02*
X002885Y048108D01*
X003038Y048078D02*
X003378Y048078D01*
X003384Y048070D01*
X004008Y051928D02*
X003858Y051974D01*
X004008Y051928D02*
X004358Y051928D01*
X004363Y051925D01*
X005378Y055658D02*
X005227Y055722D01*
X005378Y055658D02*
X005738Y055658D01*
X005739Y055657D01*
X007499Y059225D02*
X007498Y059228D01*
X007248Y059478D01*
X007114Y059553D01*
X009621Y062589D02*
X009619Y062619D01*
X009614Y062649D01*
X009606Y062678D01*
X009594Y062706D01*
X009580Y062732D01*
X009562Y062757D01*
X009542Y062779D01*
X009520Y062799D01*
X009495Y062817D01*
X009469Y062831D01*
X009441Y062843D01*
X009412Y062851D01*
X009382Y062856D01*
X009352Y062858D01*
X009308Y062858D01*
X009378Y062838D02*
X009252Y062927D01*
X009378Y062838D02*
X009618Y062598D01*
X009621Y062589D01*
X012083Y065713D02*
X012078Y065718D01*
X011848Y065948D01*
X011724Y066056D01*
X015158Y065258D02*
X015158Y057158D01*
X016908Y055458D02*
X016658Y055208D01*
X016658Y055158D01*
X016688Y055118D01*
X016682Y055121D01*
X024608Y063608D02*
X024808Y063758D01*
X024458Y065508D02*
X034808Y069358D01*
X044558Y069758D01*
X051908Y067708D01*
X052358Y067658D01*
X051458Y065958D02*
X051308Y066008D01*
X050358Y065858D02*
X050208Y065908D01*
X048458Y066508D01*
X046708Y067008D01*
X045058Y067308D01*
X043058Y067508D01*
X041408Y067658D01*
X040658Y067658D01*
X040658Y067158D02*
X038858Y067108D01*
X036758Y066908D01*
X034858Y066558D01*
X034058Y066358D01*
X033858Y066308D01*
X030158Y065558D02*
X029958Y065458D01*
X026858Y064408D02*
X026658Y064308D01*
X017917Y071107D02*
X017908Y071108D01*
X017668Y071348D01*
X017575Y071471D01*
X014858Y068568D02*
X014859Y068563D01*
X014858Y068568D02*
X014618Y068808D01*
X014514Y068920D01*
X020978Y073558D02*
X020894Y073698D01*
X020978Y073558D02*
X021218Y073318D01*
X021225Y073317D01*
X024738Y075178D02*
X024745Y075169D01*
X024738Y075178D02*
X024738Y075538D01*
X024672Y075682D01*
X028438Y076648D02*
X028439Y076643D01*
X028438Y076648D02*
X028438Y077008D01*
X028390Y077151D01*
X032258Y077728D02*
X032268Y077724D01*
X032258Y077728D02*
X032258Y078058D01*
X032221Y078222D01*
X036188Y078398D02*
X036188Y078397D01*
X036188Y078398D02*
X036188Y078738D01*
X036169Y078895D01*
X040158Y078998D02*
X040156Y079154D01*
X040158Y078998D02*
X040158Y078658D01*
X044132Y078502D02*
X044138Y078508D01*
X044138Y078938D01*
X044143Y079000D01*
X048068Y078388D02*
X048068Y077938D01*
X048070Y077932D01*
X048068Y078388D02*
X048077Y078436D01*
X051928Y077408D02*
X051945Y077466D01*
X051928Y077408D02*
X051928Y076958D01*
X051925Y076952D01*
X055658Y076048D02*
X055658Y075578D01*
X055657Y075576D01*
X055658Y076048D02*
X055682Y076105D01*
X059225Y073817D02*
X059228Y073818D01*
X059548Y074138D01*
X059576Y074189D01*
X062589Y071694D02*
X062598Y071698D01*
X062908Y072008D01*
X062940Y072054D01*
X065718Y069238D02*
X065713Y069232D01*
X065718Y069238D02*
X066018Y069538D01*
X066061Y069587D01*
X068878Y066768D02*
X068917Y066804D01*
X068878Y066768D02*
X068568Y066458D01*
X068563Y066456D01*
X071418Y063718D02*
X071462Y063751D01*
X071418Y063718D02*
X071108Y063408D01*
X071107Y063398D01*
X073628Y060408D02*
X073685Y060442D01*
X073628Y060408D02*
X073318Y060098D01*
X073317Y060091D01*
X075178Y056578D02*
X075169Y056570D01*
X075178Y056578D02*
X075648Y056578D01*
X075701Y056602D01*
X076648Y052878D02*
X076643Y052876D01*
X076648Y052878D02*
X077108Y052878D01*
X077161Y052895D01*
X077724Y049048D02*
X077728Y049048D01*
X078168Y049048D01*
X078229Y049061D01*
X078398Y045128D02*
X078397Y045127D01*
X078398Y045128D02*
X078838Y045128D01*
X078896Y045135D01*
X079098Y041158D02*
X078658Y041158D01*
X079098Y041158D02*
X079154Y041158D01*
X078938Y037188D02*
X078508Y037188D01*
X078502Y037183D01*
X078938Y037188D02*
X079000Y037182D01*
X078378Y033228D02*
X077968Y033228D01*
X077965Y033237D01*
X078378Y033228D02*
X078432Y033217D01*
X077408Y029388D02*
X076958Y029388D01*
X076956Y029389D01*
X077408Y029388D02*
X077466Y029370D01*
X076038Y025648D02*
X075618Y025648D01*
X075610Y025642D01*
X076038Y025648D02*
X076100Y025621D01*
X073817Y022091D02*
X073818Y022088D01*
X074138Y021768D01*
X074189Y021739D01*
X071694Y018726D02*
X071698Y018718D01*
X072008Y018408D01*
X072054Y018375D01*
X069238Y015598D02*
X069232Y015602D01*
X069238Y015598D02*
X069538Y015298D01*
X069587Y015254D01*
X066768Y012438D02*
X066804Y012398D01*
X066768Y012438D02*
X066458Y012748D01*
X066456Y012752D01*
X063718Y009898D02*
X063751Y009853D01*
X063718Y009898D02*
X063408Y010208D01*
X063398Y010209D01*
X060408Y007688D02*
X060442Y007630D01*
X060408Y007688D02*
X060098Y007998D01*
X060091Y007999D01*
X056578Y006138D02*
X056578Y005668D01*
X056602Y005614D01*
X056578Y006138D02*
X056570Y006146D01*
X052878Y004668D02*
X052876Y004672D01*
X052878Y004668D02*
X052878Y004208D01*
X052895Y004154D01*
X049158Y003482D02*
X049158Y003178D01*
X049198Y003178D01*
X049211Y003120D01*
X049158Y003158D02*
X049158Y003178D01*
X049158Y003482D02*
X049048Y003592D01*
X049058Y007708D01*
X047608Y008258D01*
X043058Y013758D02*
X042658Y013758D01*
X042458Y013208D02*
X042308Y013208D01*
X040658Y013158D01*
X041858Y012708D02*
X041888Y012748D01*
X041890Y012685D01*
X041908Y012658D02*
X041858Y012708D01*
X041908Y012658D02*
X042158Y012658D01*
X044008Y014358D02*
X044208Y014408D01*
X045128Y002918D02*
X045127Y002918D01*
X045128Y002918D02*
X045128Y002478D01*
X045135Y002419D01*
X041158Y002218D02*
X041158Y002161D01*
X041158Y002218D02*
X041158Y002658D01*
X037188Y002808D02*
X037183Y002813D01*
X037188Y002808D02*
X037188Y002478D01*
X037173Y002316D01*
X033238Y003038D02*
X033208Y002885D01*
X033238Y003038D02*
X033238Y003378D01*
X033246Y003384D01*
X029388Y004008D02*
X029342Y003858D01*
X029388Y004008D02*
X029388Y004358D01*
X029390Y004363D01*
X025658Y005378D02*
X025594Y005227D01*
X025658Y005378D02*
X025658Y005738D01*
X025658Y005739D01*
X022091Y007499D02*
X022088Y007498D01*
X021838Y007248D01*
X021762Y007114D01*
X018726Y009621D02*
X018718Y009618D01*
X018478Y009378D01*
X018388Y009252D01*
X015598Y012078D02*
X015602Y012083D01*
X015598Y012078D02*
X015368Y011848D01*
X015259Y011724D01*
X021108Y020608D02*
X021110Y020610D01*
X021108Y020608D02*
X021108Y020658D01*
X019758Y022008D01*
X018208Y023908D01*
X019708Y025258D02*
X018558Y027058D01*
X017808Y026358D02*
X017858Y026258D01*
X016858Y026858D02*
X016808Y026958D01*
X040658Y002158D02*
X041159Y002161D01*
X069588Y015254D02*
X070446Y016265D01*
X071268Y017306D01*
X072054Y018374D01*
X066061Y069588D02*
X065050Y070446D01*
X064009Y071268D01*
X062941Y072054D01*
X047158Y067908D02*
X047154Y067894D01*
X043208Y067058D02*
X043108Y067108D01*
X040658Y067158D01*
X040658Y066658D02*
X041758Y066608D01*
X042008Y066608D01*
X042158Y066658D01*
X069587Y015254D02*
X068693Y014270D01*
X067765Y013318D01*
X066804Y012398D01*
X079001Y037181D02*
X079098Y038505D01*
X079149Y039831D01*
X079155Y041158D01*
X052896Y004155D02*
X051679Y003769D01*
X050450Y003424D01*
X049211Y003120D01*
X071463Y063751D02*
X070650Y064797D01*
X069801Y065815D01*
X068918Y066804D01*
X079001Y037182D02*
X078857Y035854D01*
X078667Y034532D01*
X078432Y033217D01*
X059577Y074189D02*
X058303Y074877D01*
X057004Y075516D01*
X055682Y076105D01*
X078897Y045135D02*
X079029Y043813D01*
X079115Y042487D01*
X079155Y041159D01*
X045135Y002419D02*
X043813Y002287D01*
X042487Y002201D01*
X041159Y002161D01*
X076100Y025622D02*
X076599Y026855D01*
X077054Y028105D01*
X077466Y029370D01*
X055682Y076105D02*
X054453Y076602D01*
X053207Y077056D01*
X051946Y077466D01*
X077161Y052896D02*
X077561Y051630D01*
X077918Y050352D01*
X078230Y049062D01*
X060443Y007630D02*
X059188Y006911D01*
X057907Y006238D01*
X056602Y005615D01*
X074189Y021739D02*
X074875Y023009D01*
X075512Y024304D01*
X076100Y025622D01*
X074189Y021739D02*
X073516Y020594D01*
X072804Y019472D01*
X072054Y018375D01*
X077161Y052896D02*
X076717Y054148D01*
X076230Y055384D01*
X075701Y056602D01*
X078432Y033217D02*
X078154Y031924D01*
X077832Y030641D01*
X077466Y029370D01*
X078897Y045135D02*
X078720Y046451D01*
X078497Y047761D01*
X078230Y049062D01*
X075701Y056602D02*
X075078Y057907D01*
X074405Y059188D01*
X073686Y060443D01*
X063752Y009853D02*
X062674Y009074D01*
X061571Y008333D01*
X060443Y007630D01*
X073686Y060443D02*
X072983Y061571D01*
X072242Y062674D01*
X071463Y063752D01*
X062941Y072054D02*
X061844Y072804D01*
X060722Y073516D01*
X059577Y074189D01*
X044144Y079000D02*
X042403Y079118D01*
X040658Y079158D01*
X066061Y069587D02*
X067045Y068693D01*
X067997Y067765D01*
X068917Y066804D01*
X015658Y040658D02*
X015688Y041885D01*
X015778Y043108D01*
X015929Y044326D01*
X016138Y045535D01*
X016407Y046733D01*
X016734Y047915D01*
X017119Y049080D01*
X017561Y050225D01*
X018058Y051347D01*
X018610Y052443D01*
X019215Y053511D01*
X019871Y054547D01*
X020578Y055550D01*
X021333Y056518D01*
X022134Y057447D01*
X022980Y058336D01*
X023869Y059182D01*
X024798Y059983D01*
X025766Y060738D01*
X026769Y061445D01*
X027805Y062101D01*
X028873Y062706D01*
X029969Y063258D01*
X031091Y063755D01*
X032236Y064197D01*
X033401Y064582D01*
X034583Y064909D01*
X035781Y065178D01*
X036990Y065387D01*
X038208Y065538D01*
X039431Y065628D01*
X040658Y065658D01*
X041885Y065628D01*
X043108Y065538D01*
X044326Y065387D01*
X045535Y065178D01*
X046733Y064909D01*
X047915Y064582D01*
X049080Y064197D01*
X050225Y063755D01*
X051347Y063258D01*
X052443Y062706D01*
X053511Y062101D01*
X054547Y061445D01*
X055550Y060738D01*
X056518Y059983D01*
X057447Y059182D01*
X058336Y058336D01*
X059182Y057447D01*
X059983Y056518D01*
X060738Y055550D01*
X061445Y054547D01*
X062101Y053511D01*
X062706Y052443D01*
X063258Y051347D01*
X063755Y050225D01*
X064197Y049080D01*
X064582Y047915D01*
X064909Y046733D01*
X065178Y045535D01*
X065387Y044326D01*
X065538Y043108D01*
X065628Y041885D01*
X065658Y040658D01*
X065628Y039431D01*
X065538Y038208D01*
X065387Y036990D01*
X065178Y035781D01*
X064909Y034583D01*
X064582Y033401D01*
X064197Y032236D01*
X063755Y031091D01*
X063258Y029969D01*
X062706Y028873D01*
X062101Y027805D01*
X061445Y026769D01*
X060738Y025766D01*
X059983Y024798D01*
X059182Y023869D01*
X058336Y022980D01*
X057447Y022134D01*
X056518Y021333D01*
X055550Y020578D01*
X054547Y019871D01*
X053511Y019215D01*
X052443Y018610D01*
X051347Y018058D01*
X050225Y017561D01*
X049080Y017119D01*
X047915Y016734D01*
X046733Y016407D01*
X045535Y016138D01*
X044326Y015929D01*
X043108Y015778D01*
X041885Y015688D01*
X040658Y015658D01*
X039431Y015688D01*
X038208Y015778D01*
X036990Y015929D01*
X035781Y016138D01*
X034583Y016407D01*
X033401Y016734D01*
X032236Y017119D01*
X031091Y017561D01*
X029969Y018058D01*
X028873Y018610D01*
X027805Y019215D01*
X026769Y019871D01*
X025766Y020578D01*
X024798Y021333D01*
X023869Y022134D01*
X022980Y022980D01*
X022134Y023869D01*
X021333Y024798D01*
X020578Y025766D01*
X019871Y026769D01*
X019215Y027805D01*
X018610Y028873D01*
X018058Y029969D01*
X017561Y031091D01*
X017119Y032236D01*
X016734Y033401D01*
X016407Y034583D01*
X016138Y035781D01*
X015929Y036990D01*
X015778Y038208D01*
X015688Y039431D01*
X015658Y040658D01*
X063751Y009853D02*
X064797Y010666D01*
X065815Y011515D01*
X066804Y012398D01*
X001458Y040658D02*
X001505Y042581D01*
X001647Y044500D01*
X001882Y046410D01*
X002211Y048306D01*
X002633Y050183D01*
X003146Y052037D01*
X003749Y053864D01*
X004442Y055659D01*
X005222Y057418D01*
X006087Y059137D01*
X007035Y060811D01*
X008064Y062436D01*
X009172Y064009D01*
X010356Y065526D01*
X011613Y066983D01*
X012939Y068377D01*
X014333Y069703D01*
X015790Y070960D01*
X017307Y072144D01*
X018880Y073252D01*
X020505Y074281D01*
X022179Y075229D01*
X023898Y076094D01*
X025657Y076874D01*
X027452Y077567D01*
X029279Y078170D01*
X031133Y078683D01*
X033010Y079105D01*
X034906Y079434D01*
X036816Y079669D01*
X038735Y079811D01*
X040658Y079858D01*
X042581Y079811D01*
X044500Y079669D01*
X046410Y079434D01*
X048306Y079105D01*
X050183Y078683D01*
X052037Y078170D01*
X053864Y077567D01*
X055659Y076874D01*
X057418Y076094D01*
X059137Y075229D01*
X060811Y074281D01*
X062436Y073252D01*
X064009Y072144D01*
X065526Y070960D01*
X066983Y069703D01*
X068377Y068377D01*
X069703Y066983D01*
X070960Y065526D01*
X072144Y064009D01*
X073252Y062436D01*
X074281Y060811D01*
X075229Y059137D01*
X076094Y057418D01*
X076874Y055659D01*
X077567Y053864D01*
X078170Y052037D01*
X078683Y050183D01*
X079105Y048306D01*
X079434Y046410D01*
X079669Y044500D01*
X079811Y042581D01*
X079858Y040658D01*
X079811Y038735D01*
X079669Y036816D01*
X079434Y034906D01*
X079105Y033010D01*
X078683Y031133D01*
X078170Y029279D01*
X077567Y027452D01*
X076874Y025657D01*
X076094Y023898D01*
X075229Y022179D01*
X074281Y020505D01*
X073252Y018880D01*
X072144Y017307D01*
X070960Y015790D01*
X069703Y014333D01*
X068377Y012939D01*
X066983Y011613D01*
X065526Y010356D01*
X064009Y009172D01*
X062436Y008064D01*
X060811Y007035D01*
X059137Y006087D01*
X057418Y005222D01*
X055659Y004442D01*
X053864Y003749D01*
X052037Y003146D01*
X050183Y002633D01*
X048306Y002211D01*
X046410Y001882D01*
X044500Y001647D01*
X042581Y001505D01*
X040658Y001458D01*
X038735Y001505D01*
X036816Y001647D01*
X034906Y001882D01*
X033010Y002211D01*
X031133Y002633D01*
X029279Y003146D01*
X027452Y003749D01*
X025657Y004442D01*
X023898Y005222D01*
X022179Y006087D01*
X020505Y007035D01*
X018880Y008064D01*
X017307Y009172D01*
X015790Y010356D01*
X014333Y011613D01*
X012939Y012939D01*
X011613Y014333D01*
X010356Y015790D01*
X009172Y017307D01*
X008064Y018880D01*
X007035Y020505D01*
X006087Y022179D01*
X005222Y023898D01*
X004442Y025657D01*
X003749Y027452D01*
X003146Y029279D01*
X002633Y031133D01*
X002211Y033010D01*
X001882Y034906D01*
X001647Y036816D01*
X001505Y038735D01*
X001458Y040658D01*
X048078Y078436D02*
X049378Y078157D01*
X050668Y077834D01*
X051946Y077466D01*
X049211Y003120D02*
X047861Y002838D01*
X046502Y002604D01*
X045135Y002419D01*
X052896Y004155D02*
X054148Y004599D01*
X055384Y005086D01*
X056602Y005615D01*
X048078Y078436D02*
X046773Y078669D01*
X045461Y078857D01*
X044144Y079000D01*
D11*
X017158Y065558D02*
X014859Y068563D01*
X009621Y062589D02*
X012158Y060708D01*
X014158Y059158D01*
X014158Y057158D01*
X040657Y012658D02*
X041890Y012685D01*
X040658Y013158D02*
X039329Y013190D01*
X038004Y013286D01*
X036685Y013447D01*
X035375Y013670D01*
X034077Y013957D01*
X032794Y014306D01*
X031531Y014717D01*
X030288Y015188D01*
X029069Y015719D01*
X027878Y016308D01*
X026717Y016954D01*
X025588Y017655D01*
X024494Y018410D01*
X023438Y019217D01*
X022422Y020074D01*
X021449Y020979D01*
X020521Y021930D01*
X019639Y022925D01*
X018807Y023961D01*
X018026Y025036D01*
X017298Y026148D01*
X016624Y027293D01*
X016006Y028470D01*
X015446Y029675D01*
X014945Y030906D01*
X014504Y032160D01*
X014124Y033434D01*
X013806Y034724D01*
X013551Y036028D01*
X013359Y037343D01*
X013230Y038666D01*
X013166Y039993D01*
X013166Y041323D01*
X013230Y042650D01*
X013359Y043973D01*
X013551Y045288D01*
X013806Y046592D01*
X014124Y047882D01*
X014504Y049156D01*
X014945Y050410D01*
X015446Y051641D01*
X016006Y052846D01*
X016624Y054023D01*
X017298Y055168D01*
X018026Y056280D01*
X018807Y057355D01*
X019639Y058391D01*
X020521Y059386D01*
X021449Y060337D01*
X022422Y061242D01*
X023438Y062099D01*
X024494Y062906D01*
X025588Y063661D01*
X026717Y064362D01*
X027878Y065008D01*
X029069Y065597D01*
X030288Y066128D01*
X031531Y066599D01*
X032794Y067010D01*
X034077Y067359D01*
X035375Y067646D01*
X036685Y067869D01*
X038004Y068030D01*
X039329Y068126D01*
X040658Y068158D01*
X041987Y068126D01*
X043312Y068030D01*
X044631Y067869D01*
X045941Y067646D01*
X047239Y067359D01*
X048522Y067010D01*
X049785Y066599D01*
X051028Y066128D01*
X052247Y065597D01*
X053438Y065008D01*
X054599Y064362D01*
X055728Y063661D01*
X056822Y062906D01*
X057878Y062099D01*
X058894Y061242D01*
X059867Y060337D01*
X060795Y059386D01*
X061677Y058391D01*
X062509Y057355D01*
X063290Y056280D01*
X064018Y055168D01*
X064692Y054023D01*
X065310Y052846D01*
X065870Y051641D01*
X066371Y050410D01*
X066812Y049156D01*
X067192Y047882D01*
X067510Y046592D01*
X067765Y045288D01*
X067957Y043973D01*
X068086Y042650D01*
X068150Y041323D01*
X068150Y039993D01*
X068086Y038666D01*
X067957Y037343D01*
X067765Y036028D01*
X067510Y034724D01*
X067192Y033434D01*
X066812Y032160D01*
X066371Y030906D01*
X065870Y029675D01*
X065310Y028470D01*
X064692Y027293D01*
X064018Y026148D01*
X063290Y025036D01*
X062509Y023961D01*
X061677Y022925D01*
X060795Y021930D01*
X059867Y020979D01*
X058894Y020074D01*
X057878Y019217D01*
X056822Y018410D01*
X055728Y017655D01*
X054599Y016954D01*
X053438Y016308D01*
X052247Y015719D01*
X051028Y015188D01*
X049785Y014717D01*
X048522Y014306D01*
X047239Y013957D01*
X045941Y013670D01*
X044631Y013447D01*
X043312Y013286D01*
X041987Y013190D01*
X040658Y013158D01*
X040658Y013658D02*
X039354Y013690D01*
X038052Y013784D01*
X036757Y013941D01*
X035471Y014161D01*
X034196Y014443D01*
X032937Y014785D01*
X031696Y015189D01*
X030476Y015651D01*
X029280Y016172D01*
X028110Y016751D01*
X026970Y017385D01*
X025862Y018073D01*
X024788Y018815D01*
X023751Y019607D01*
X022754Y020448D01*
X021798Y021337D01*
X020887Y022271D01*
X020021Y023247D01*
X019204Y024265D01*
X018437Y025320D01*
X017722Y026412D01*
X017061Y027536D01*
X016454Y028692D01*
X015905Y029875D01*
X015413Y031084D01*
X014979Y032315D01*
X014606Y033565D01*
X014294Y034832D01*
X014043Y036112D01*
X013855Y037404D01*
X013729Y038702D01*
X013666Y040006D01*
X013666Y041310D01*
X013729Y042614D01*
X013855Y043912D01*
X014043Y045204D01*
X014294Y046484D01*
X014606Y047751D01*
X014979Y049001D01*
X015413Y050232D01*
X015905Y051441D01*
X016454Y052624D01*
X017061Y053780D01*
X017722Y054904D01*
X018437Y055996D01*
X019204Y057051D01*
X020021Y058069D01*
X020887Y059045D01*
X021798Y059979D01*
X022754Y060868D01*
X023751Y061709D01*
X024788Y062501D01*
X025862Y063243D01*
X026970Y063931D01*
X028110Y064565D01*
X029280Y065144D01*
X030476Y065665D01*
X031696Y066127D01*
X032937Y066531D01*
X034196Y066873D01*
X035471Y067155D01*
X036757Y067375D01*
X038052Y067532D01*
X039354Y067626D01*
X040658Y067658D01*
X041962Y067626D01*
X043264Y067532D01*
X044559Y067375D01*
X045845Y067155D01*
X047120Y066873D01*
X048379Y066531D01*
X049620Y066127D01*
X050840Y065665D01*
X052036Y065144D01*
X053206Y064565D01*
X054346Y063931D01*
X055454Y063243D01*
X056528Y062501D01*
X057565Y061709D01*
X058562Y060868D01*
X059518Y059979D01*
X060429Y059045D01*
X061295Y058069D01*
X062112Y057051D01*
X062879Y055996D01*
X063594Y054904D01*
X064255Y053780D01*
X064862Y052624D01*
X065411Y051441D01*
X065903Y050232D01*
X066337Y049001D01*
X066710Y047751D01*
X067022Y046484D01*
X067273Y045204D01*
X067461Y043912D01*
X067587Y042614D01*
X067650Y041310D01*
X067650Y040006D01*
X067587Y038702D01*
X067461Y037404D01*
X067273Y036112D01*
X067022Y034832D01*
X066710Y033565D01*
X066337Y032315D01*
X065903Y031084D01*
X065411Y029875D01*
X064862Y028692D01*
X064255Y027536D01*
X063594Y026412D01*
X062879Y025320D01*
X062112Y024265D01*
X061295Y023247D01*
X060429Y022271D01*
X059518Y021337D01*
X058562Y020448D01*
X057565Y019607D01*
X056528Y018815D01*
X055454Y018073D01*
X054346Y017385D01*
X053206Y016751D01*
X052036Y016172D01*
X050840Y015651D01*
X049620Y015189D01*
X048379Y014785D01*
X047120Y014443D01*
X045845Y014161D01*
X044559Y013941D01*
X043264Y013784D01*
X041962Y013690D01*
X040658Y013658D01*
X040658Y014158D02*
X039378Y014189D01*
X038100Y014282D01*
X036829Y014436D01*
X035567Y014652D01*
X034316Y014928D01*
X033080Y015264D01*
X031862Y015660D01*
X030665Y016114D01*
X029491Y016626D01*
X028343Y017193D01*
X027224Y017816D01*
X026136Y018492D01*
X025082Y019219D01*
X024064Y019997D01*
X023085Y020822D01*
X022147Y021695D01*
X021253Y022611D01*
X020404Y023570D01*
X019602Y024568D01*
X018849Y025604D01*
X018147Y026676D01*
X017498Y027779D01*
X016903Y028913D01*
X016363Y030075D01*
X015880Y031261D01*
X015455Y032469D01*
X015089Y033696D01*
X014782Y034940D01*
X014536Y036197D01*
X014351Y037464D01*
X014228Y038738D01*
X014166Y040018D01*
X014166Y041298D01*
X014228Y042578D01*
X014351Y043852D01*
X014536Y045119D01*
X014782Y046376D01*
X015089Y047620D01*
X015455Y048847D01*
X015880Y050055D01*
X016363Y051241D01*
X016903Y052403D01*
X017498Y053537D01*
X018147Y054640D01*
X018849Y055712D01*
X019602Y056748D01*
X020404Y057746D01*
X021253Y058705D01*
X022147Y059621D01*
X023085Y060494D01*
X024064Y061319D01*
X025082Y062097D01*
X026136Y062824D01*
X027224Y063500D01*
X028343Y064123D01*
X029491Y064690D01*
X030665Y065202D01*
X031862Y065656D01*
X033080Y066052D01*
X034316Y066388D01*
X035567Y066664D01*
X036829Y066880D01*
X038100Y067034D01*
X039378Y067127D01*
X040658Y067158D01*
X041938Y067127D01*
X043216Y067034D01*
X044487Y066880D01*
X045749Y066664D01*
X047000Y066388D01*
X048236Y066052D01*
X049454Y065656D01*
X050651Y065202D01*
X051825Y064690D01*
X052973Y064123D01*
X054092Y063500D01*
X055180Y062824D01*
X056234Y062097D01*
X057252Y061319D01*
X058231Y060494D01*
X059169Y059621D01*
X060063Y058705D01*
X060912Y057746D01*
X061714Y056748D01*
X062467Y055712D01*
X063169Y054640D01*
X063818Y053537D01*
X064413Y052403D01*
X064953Y051241D01*
X065436Y050055D01*
X065861Y048847D01*
X066227Y047620D01*
X066534Y046376D01*
X066780Y045119D01*
X066965Y043852D01*
X067088Y042578D01*
X067150Y041298D01*
X067150Y040018D01*
X067088Y038738D01*
X066965Y037464D01*
X066780Y036197D01*
X066534Y034940D01*
X066227Y033696D01*
X065861Y032469D01*
X065436Y031261D01*
X064953Y030075D01*
X064413Y028913D01*
X063818Y027779D01*
X063169Y026676D01*
X062467Y025604D01*
X061714Y024568D01*
X060912Y023570D01*
X060063Y022611D01*
X059169Y021695D01*
X058231Y020822D01*
X057252Y019997D01*
X056234Y019219D01*
X055180Y018492D01*
X054092Y017816D01*
X052973Y017193D01*
X051825Y016626D01*
X050651Y016114D01*
X049454Y015660D01*
X048236Y015264D01*
X047000Y014928D01*
X045749Y014652D01*
X044487Y014436D01*
X043216Y014282D01*
X041938Y014189D01*
X040658Y014158D01*
X040658Y014658D02*
X039402Y014688D01*
X038149Y014779D01*
X036901Y014931D01*
X035663Y015142D01*
X034436Y015414D01*
X033223Y015744D01*
X032028Y016132D01*
X030854Y016577D01*
X029702Y017079D01*
X028575Y017636D01*
X027477Y018247D01*
X026410Y018910D01*
X025376Y019624D01*
X024377Y020386D01*
X023417Y021197D01*
X022497Y022052D01*
X021619Y022952D01*
X020786Y023892D01*
X019999Y024872D01*
X019260Y025888D01*
X018572Y026939D01*
X017935Y028022D01*
X017351Y029135D01*
X016821Y030275D01*
X016348Y031438D01*
X015931Y032624D01*
X015571Y033828D01*
X015271Y035048D01*
X015029Y036281D01*
X014848Y037524D01*
X014726Y038775D01*
X014666Y040030D01*
X014666Y041286D01*
X014726Y042541D01*
X014848Y043792D01*
X015029Y045035D01*
X015271Y046268D01*
X015571Y047488D01*
X015931Y048692D01*
X016348Y049878D01*
X016821Y051041D01*
X017351Y052181D01*
X017935Y053294D01*
X018572Y054377D01*
X019260Y055428D01*
X019999Y056444D01*
X020786Y057424D01*
X021619Y058364D01*
X022497Y059264D01*
X023417Y060119D01*
X024377Y060930D01*
X025376Y061692D01*
X026410Y062406D01*
X027477Y063069D01*
X028575Y063680D01*
X029702Y064237D01*
X030854Y064739D01*
X032028Y065184D01*
X033223Y065572D01*
X034436Y065902D01*
X035663Y066174D01*
X036901Y066385D01*
X038149Y066537D01*
X039402Y066628D01*
X040658Y066658D01*
X041914Y066628D01*
X043167Y066537D01*
X044415Y066385D01*
X045653Y066174D01*
X046880Y065902D01*
X048093Y065572D01*
X049288Y065184D01*
X050462Y064739D01*
X051614Y064237D01*
X052741Y063680D01*
X053839Y063069D01*
X054906Y062406D01*
X055940Y061692D01*
X056939Y060930D01*
X057899Y060119D01*
X058819Y059264D01*
X059697Y058364D01*
X060530Y057424D01*
X061317Y056444D01*
X062056Y055428D01*
X062744Y054377D01*
X063381Y053294D01*
X063965Y052181D01*
X064495Y051041D01*
X064968Y049878D01*
X065385Y048692D01*
X065745Y047488D01*
X066045Y046268D01*
X066287Y045035D01*
X066468Y043792D01*
X066590Y042541D01*
X066650Y041286D01*
X066650Y040030D01*
X066590Y038775D01*
X066468Y037524D01*
X066287Y036281D01*
X066045Y035048D01*
X065745Y033828D01*
X065385Y032624D01*
X064968Y031438D01*
X064495Y030275D01*
X063965Y029135D01*
X063381Y028022D01*
X062744Y026939D01*
X062056Y025888D01*
X061317Y024872D01*
X060530Y023892D01*
X059697Y022952D01*
X058819Y022052D01*
X057899Y021197D01*
X056939Y020386D01*
X055940Y019624D01*
X054906Y018910D01*
X053839Y018247D01*
X052741Y017636D01*
X051614Y017079D01*
X050462Y016577D01*
X049288Y016132D01*
X048093Y015744D01*
X046880Y015414D01*
X045653Y015142D01*
X044415Y014931D01*
X043167Y014779D01*
X041914Y014688D01*
X040658Y014658D01*
X016683Y055121D02*
X017419Y056277D01*
X018211Y057395D01*
X019057Y058474D01*
X019955Y059509D01*
X020902Y060500D01*
X021897Y061443D01*
X022936Y062336D01*
X024018Y063177D01*
X025140Y063964D01*
X026299Y064696D01*
X027492Y065370D01*
X028717Y065984D01*
X029971Y066538D01*
X031250Y067030D01*
X032552Y067459D01*
X033873Y067823D01*
X035210Y068123D01*
X036561Y068357D01*
X037921Y068524D01*
X039288Y068624D01*
X040658Y068658D01*
X016683Y055121D02*
X016018Y053957D01*
X015409Y052762D01*
X014859Y051540D01*
X014368Y050292D01*
X013937Y049023D01*
X013567Y047734D01*
X013259Y046429D01*
X013014Y045111D01*
X012833Y043783D01*
X012715Y042447D01*
X012662Y041107D01*
X012672Y039767D01*
X012747Y038428D01*
X012886Y037095D01*
X013088Y035769D01*
X013354Y034455D01*
X013682Y033155D01*
X014072Y031873D01*
X014523Y030610D01*
X015034Y029371D01*
X015604Y028157D01*
X016231Y026972D01*
X016914Y025818D01*
X017651Y024699D01*
X018442Y023616D01*
X019283Y022572D01*
X020173Y021569D01*
X021111Y020611D01*
X041891Y012685D02*
X043246Y012778D01*
X044596Y012936D01*
X045936Y013160D01*
X047264Y013448D01*
X048576Y013801D01*
X049870Y014217D01*
X051142Y014695D01*
X052389Y015234D01*
X053608Y015833D01*
X054798Y016490D01*
X055953Y017205D01*
X057073Y017974D01*
X058154Y018797D01*
X059194Y019672D01*
X060190Y020596D01*
X061141Y021567D01*
X062043Y022583D01*
X062894Y023642D01*
X063694Y024741D01*
X064439Y025877D01*
X065128Y027048D01*
X065759Y028251D01*
X066332Y029484D01*
X066843Y030742D01*
X067294Y032024D01*
X067681Y033327D01*
X068005Y034646D01*
X068264Y035980D01*
X068459Y037325D01*
X068588Y038677D01*
X068651Y040035D01*
X068648Y041394D01*
X068580Y042751D01*
X068445Y044103D01*
X068245Y045447D01*
X067981Y046779D01*
X067652Y048098D01*
X067259Y049398D01*
X066803Y050679D01*
X066287Y051935D01*
X065709Y053165D01*
X065073Y054366D01*
X064379Y055534D01*
X063630Y056667D01*
X062826Y057763D01*
X061970Y058818D01*
X061064Y059831D01*
X060110Y060798D01*
X059110Y061718D01*
X058066Y062589D01*
X056982Y063407D01*
X055859Y064172D01*
X054700Y064882D01*
X053509Y065535D01*
X052287Y066129D01*
X051037Y066663D01*
X049764Y067136D01*
X048468Y067547D01*
X047155Y067894D01*
X045872Y068168D01*
X044579Y068382D01*
X043277Y068535D01*
X041969Y068627D01*
X040658Y068658D01*
X021111Y020611D02*
X022101Y019690D01*
X023135Y018819D01*
X024210Y017998D01*
X025323Y017231D01*
X026472Y016518D01*
X027654Y015861D01*
X028866Y015262D01*
X030106Y014722D01*
X031371Y014243D01*
X032657Y013825D01*
X033962Y013471D01*
X035282Y013179D01*
X036615Y012951D01*
X037957Y012789D01*
X039306Y012691D01*
X040658Y012658D01*
X012158Y040658D02*
X012192Y042056D01*
X012295Y043451D01*
X012466Y044840D01*
X012706Y046218D01*
X013012Y047583D01*
X013385Y048931D01*
X013824Y050259D01*
X014327Y051564D01*
X014894Y052843D01*
X015523Y054093D01*
X016213Y055310D01*
X016961Y056492D01*
X017767Y057635D01*
X018627Y058738D01*
X019541Y059797D01*
X020505Y060811D01*
X021519Y061775D01*
X022578Y062689D01*
X023681Y063549D01*
X024824Y064355D01*
X026006Y065103D01*
X027223Y065793D01*
X028473Y066422D01*
X029752Y066989D01*
X031057Y067492D01*
X032385Y067931D01*
X033733Y068304D01*
X035098Y068610D01*
X036476Y068850D01*
X037865Y069021D01*
X039260Y069124D01*
X040658Y069158D01*
X042056Y069124D01*
X043451Y069021D01*
X044840Y068850D01*
X046218Y068610D01*
X047583Y068304D01*
X048931Y067931D01*
X050259Y067492D01*
X051564Y066989D01*
X052843Y066422D01*
X054093Y065793D01*
X055310Y065103D01*
X056492Y064355D01*
X057635Y063549D01*
X058738Y062689D01*
X059797Y061775D01*
X060811Y060811D01*
X061775Y059797D01*
X062689Y058738D01*
X063549Y057635D01*
X064355Y056492D01*
X065103Y055310D01*
X065793Y054093D01*
X066422Y052843D01*
X066989Y051564D01*
X067492Y050259D01*
X067931Y048931D01*
X068304Y047583D01*
X068610Y046218D01*
X068850Y044840D01*
X069021Y043451D01*
X069124Y042056D01*
X069158Y040658D01*
X069124Y039260D01*
X069021Y037865D01*
X068850Y036476D01*
X068610Y035098D01*
X068304Y033733D01*
X067931Y032385D01*
X067492Y031057D01*
X066989Y029752D01*
X066422Y028473D01*
X065793Y027223D01*
X065103Y026006D01*
X064355Y024824D01*
X063549Y023681D01*
X062689Y022578D01*
X061775Y021519D01*
X060811Y020505D01*
X059797Y019541D01*
X058738Y018627D01*
X057635Y017767D01*
X056492Y016961D01*
X055310Y016213D01*
X054093Y015523D01*
X052843Y014894D01*
X051564Y014327D01*
X050259Y013824D01*
X048931Y013385D01*
X047583Y013012D01*
X046218Y012706D01*
X044840Y012466D01*
X043451Y012295D01*
X042056Y012192D01*
X040658Y012158D01*
X039260Y012192D01*
X037865Y012295D01*
X036476Y012466D01*
X035098Y012706D01*
X033733Y013012D01*
X032385Y013385D01*
X031057Y013824D01*
X029752Y014327D01*
X028473Y014894D01*
X027223Y015523D01*
X026006Y016213D01*
X024824Y016961D01*
X023681Y017767D01*
X022578Y018627D01*
X021519Y019541D01*
X020505Y020505D01*
X019541Y021519D01*
X018627Y022578D01*
X017767Y023681D01*
X016961Y024824D01*
X016213Y026006D01*
X015523Y027223D01*
X014894Y028473D01*
X014327Y029752D01*
X013824Y031057D01*
X013385Y032385D01*
X013012Y033733D01*
X012706Y035098D01*
X012466Y036476D01*
X012295Y037865D01*
X012192Y039260D01*
X012158Y040658D01*
D12*
X012158Y056858D02*
X012158Y057458D01*
X011158Y057458D02*
X011158Y056858D01*
X013158Y056858D02*
X013158Y057458D01*
X014158Y057458D02*
X014158Y056858D01*
X015158Y056858D02*
X015158Y057458D01*
X016158Y057458D02*
X016158Y056858D01*
D13*
X002658Y041158D03*
X002658Y040158D03*
X040158Y002658D03*
X041158Y002658D03*
X078658Y040158D03*
X078658Y041158D03*
X041158Y078658D03*
X040158Y078658D03*
D14*
X037346Y078491D02*
X037398Y078439D01*
X037290Y078305D01*
X037120Y078287D01*
X036986Y078395D01*
X036968Y078565D01*
X037076Y078699D01*
X037246Y078717D01*
X037380Y078609D01*
X037398Y078439D01*
X037317Y078463D01*
X037249Y078379D01*
X037144Y078368D01*
X037060Y078436D01*
X037049Y078541D01*
X037117Y078625D01*
X037222Y078636D01*
X037306Y078568D01*
X037317Y078463D01*
X037236Y078487D01*
X037209Y078453D01*
X037168Y078449D01*
X037134Y078476D01*
X037130Y078517D01*
X037157Y078551D01*
X037198Y078555D01*
X037232Y078528D01*
X037236Y078487D01*
X036351Y078386D02*
X036403Y078334D01*
X036295Y078200D01*
X036125Y078182D01*
X035991Y078290D01*
X035973Y078460D01*
X036081Y078594D01*
X036251Y078612D01*
X036385Y078504D01*
X036403Y078334D01*
X036322Y078358D01*
X036254Y078274D01*
X036149Y078263D01*
X036065Y078331D01*
X036054Y078436D01*
X036122Y078520D01*
X036227Y078531D01*
X036311Y078463D01*
X036322Y078358D01*
X036241Y078382D01*
X036214Y078348D01*
X036173Y078344D01*
X036139Y078371D01*
X036135Y078412D01*
X036162Y078446D01*
X036203Y078450D01*
X036237Y078423D01*
X036241Y078382D01*
X033415Y077944D02*
X033467Y077892D01*
X033373Y077747D01*
X033206Y077711D01*
X033061Y077805D01*
X033025Y077972D01*
X033119Y078117D01*
X033286Y078153D01*
X033431Y078059D01*
X033467Y077892D01*
X033384Y077908D01*
X033324Y077816D01*
X033222Y077794D01*
X033130Y077854D01*
X033108Y077956D01*
X033168Y078048D01*
X033270Y078070D01*
X033362Y078010D01*
X033384Y077908D01*
X033301Y077923D01*
X033277Y077886D01*
X033237Y077877D01*
X033200Y077901D01*
X033191Y077941D01*
X033215Y077978D01*
X033255Y077987D01*
X033292Y077963D01*
X033301Y077923D01*
X032437Y077736D02*
X032489Y077684D01*
X032395Y077539D01*
X032228Y077503D01*
X032083Y077597D01*
X032047Y077764D01*
X032141Y077909D01*
X032308Y077945D01*
X032453Y077851D01*
X032489Y077684D01*
X032406Y077700D01*
X032346Y077608D01*
X032244Y077586D01*
X032152Y077646D01*
X032130Y077748D01*
X032190Y077840D01*
X032292Y077862D01*
X032384Y077802D01*
X032406Y077700D01*
X032323Y077715D01*
X032299Y077678D01*
X032259Y077669D01*
X032222Y077693D01*
X032213Y077733D01*
X032237Y077770D01*
X032277Y077779D01*
X032314Y077755D01*
X032323Y077715D01*
X029562Y076987D02*
X029614Y076935D01*
X029536Y076781D01*
X029373Y076728D01*
X029219Y076806D01*
X029166Y076969D01*
X029244Y077123D01*
X029407Y077176D01*
X029561Y077098D01*
X029614Y076935D01*
X029530Y076942D01*
X029480Y076845D01*
X029380Y076812D01*
X029283Y076862D01*
X029250Y076962D01*
X029300Y077059D01*
X029400Y077092D01*
X029497Y077042D01*
X029530Y076942D01*
X029445Y076949D01*
X029426Y076910D01*
X029387Y076897D01*
X029348Y076916D01*
X029335Y076955D01*
X029354Y076994D01*
X029393Y077007D01*
X029432Y076988D01*
X029445Y076949D01*
X028611Y076678D02*
X028663Y076626D01*
X028585Y076472D01*
X028422Y076419D01*
X028268Y076497D01*
X028215Y076660D01*
X028293Y076814D01*
X028456Y076867D01*
X028610Y076789D01*
X028663Y076626D01*
X028579Y076633D01*
X028529Y076536D01*
X028429Y076503D01*
X028332Y076553D01*
X028299Y076653D01*
X028349Y076750D01*
X028449Y076783D01*
X028546Y076733D01*
X028579Y076633D01*
X028494Y076640D01*
X028475Y076601D01*
X028436Y076588D01*
X028397Y076607D01*
X028384Y076646D01*
X028403Y076685D01*
X028442Y076698D01*
X028481Y076679D01*
X028494Y076640D01*
X025830Y075530D02*
X025882Y075582D01*
X025821Y075421D01*
X025664Y075352D01*
X025503Y075413D01*
X025434Y075570D01*
X025495Y075731D01*
X025652Y075800D01*
X025813Y075739D01*
X025882Y075582D01*
X025798Y075580D01*
X025759Y075479D01*
X025662Y075436D01*
X025561Y075475D01*
X025518Y075572D01*
X025557Y075673D01*
X025654Y075716D01*
X025755Y075677D01*
X025798Y075580D01*
X025714Y075577D01*
X025698Y075538D01*
X025659Y075520D01*
X025620Y075536D01*
X025602Y075575D01*
X025618Y075614D01*
X025657Y075632D01*
X025696Y075616D01*
X025714Y075577D01*
X024917Y075123D02*
X024969Y075175D01*
X024908Y075014D01*
X024751Y074945D01*
X024590Y075006D01*
X024521Y075163D01*
X024582Y075324D01*
X024739Y075393D01*
X024900Y075332D01*
X024969Y075175D01*
X024885Y075173D01*
X024846Y075072D01*
X024749Y075029D01*
X024648Y075068D01*
X024605Y075165D01*
X024644Y075266D01*
X024741Y075309D01*
X024842Y075270D01*
X024885Y075173D01*
X024801Y075170D01*
X024785Y075131D01*
X024746Y075113D01*
X024707Y075129D01*
X024689Y075168D01*
X024705Y075207D01*
X024744Y075225D01*
X024783Y075209D01*
X024801Y075170D01*
X022262Y073794D02*
X022314Y073846D01*
X022269Y073680D01*
X022120Y073594D01*
X021954Y073639D01*
X021868Y073788D01*
X021913Y073954D01*
X022062Y074040D01*
X022228Y073995D01*
X022314Y073846D01*
X022230Y073836D01*
X022201Y073731D01*
X022110Y073678D01*
X022005Y073707D01*
X021952Y073798D01*
X021981Y073903D01*
X022072Y073956D01*
X022177Y073927D01*
X022230Y073836D01*
X022146Y073824D01*
X022135Y073783D01*
X022098Y073762D01*
X022057Y073773D01*
X022036Y073810D01*
X022047Y073851D01*
X022084Y073872D01*
X022125Y073861D01*
X022146Y073824D01*
X021396Y073294D02*
X021448Y073346D01*
X021403Y073180D01*
X021254Y073094D01*
X021088Y073139D01*
X021002Y073288D01*
X021047Y073454D01*
X021196Y073540D01*
X021362Y073495D01*
X021448Y073346D01*
X021364Y073336D01*
X021335Y073231D01*
X021244Y073178D01*
X021139Y073207D01*
X021086Y073298D01*
X021115Y073403D01*
X021206Y073456D01*
X021311Y073427D01*
X021364Y073336D01*
X021280Y073324D01*
X021269Y073283D01*
X021232Y073262D01*
X021191Y073273D01*
X021170Y073310D01*
X021181Y073351D01*
X021218Y073372D01*
X021259Y073361D01*
X021280Y073324D01*
X018892Y071694D02*
X018944Y071746D01*
X018917Y071577D01*
X018778Y071476D01*
X018609Y071503D01*
X018508Y071642D01*
X018535Y071811D01*
X018674Y071912D01*
X018843Y071885D01*
X018944Y071746D01*
X018862Y071727D01*
X018845Y071620D01*
X018759Y071558D01*
X018652Y071575D01*
X018590Y071661D01*
X018607Y071768D01*
X018693Y071830D01*
X018800Y071813D01*
X018862Y071727D01*
X018780Y071707D01*
X018773Y071665D01*
X018739Y071640D01*
X018697Y071647D01*
X018672Y071681D01*
X018679Y071723D01*
X018713Y071748D01*
X018755Y071741D01*
X018780Y071707D01*
X018083Y071107D02*
X018135Y071159D01*
X018108Y070990D01*
X017969Y070889D01*
X017800Y070916D01*
X017699Y071055D01*
X017726Y071224D01*
X017865Y071325D01*
X018034Y071298D01*
X018135Y071159D01*
X018053Y071140D01*
X018036Y071033D01*
X017950Y070971D01*
X017843Y070988D01*
X017781Y071074D01*
X017798Y071181D01*
X017884Y071243D01*
X017991Y071226D01*
X018053Y071140D01*
X017971Y071120D01*
X017964Y071078D01*
X017930Y071053D01*
X017888Y071060D01*
X017863Y071094D01*
X017870Y071136D01*
X017904Y071161D01*
X017946Y071154D01*
X017971Y071120D01*
X015762Y069255D02*
X015814Y069307D01*
X015805Y069135D01*
X015677Y069020D01*
X015505Y069029D01*
X015390Y069157D01*
X015399Y069329D01*
X015527Y069444D01*
X015699Y069435D01*
X015814Y069307D01*
X015734Y069279D01*
X015728Y069171D01*
X015649Y069100D01*
X015541Y069106D01*
X015470Y069185D01*
X015476Y069293D01*
X015555Y069364D01*
X015663Y069358D01*
X015734Y069279D01*
X015654Y069251D01*
X015652Y069208D01*
X015621Y069180D01*
X015578Y069182D01*
X015550Y069213D01*
X015552Y069256D01*
X015583Y069284D01*
X015626Y069282D01*
X015654Y069251D01*
X015019Y068586D02*
X015071Y068638D01*
X015062Y068466D01*
X014934Y068351D01*
X014762Y068360D01*
X014647Y068488D01*
X014656Y068660D01*
X014784Y068775D01*
X014956Y068766D01*
X015071Y068638D01*
X014991Y068610D01*
X014985Y068502D01*
X014906Y068431D01*
X014798Y068437D01*
X014727Y068516D01*
X014733Y068624D01*
X014812Y068695D01*
X014920Y068689D01*
X014991Y068610D01*
X014911Y068582D01*
X014909Y068539D01*
X014878Y068511D01*
X014835Y068513D01*
X014807Y068544D01*
X014809Y068587D01*
X014840Y068615D01*
X014883Y068613D01*
X014911Y068582D01*
X012903Y066501D02*
X012955Y066553D01*
X012964Y066381D01*
X012849Y066253D01*
X012677Y066244D01*
X012549Y066359D01*
X012540Y066531D01*
X012655Y066659D01*
X012827Y066668D01*
X012955Y066553D01*
X012878Y066517D01*
X012884Y066409D01*
X012813Y066330D01*
X012705Y066324D01*
X012626Y066395D01*
X012620Y066503D01*
X012691Y066582D01*
X012799Y066588D01*
X012878Y066517D01*
X012802Y066480D01*
X012804Y066437D01*
X012776Y066406D01*
X012733Y066404D01*
X012702Y066432D01*
X012700Y066475D01*
X012728Y066506D01*
X012771Y066508D01*
X012802Y066480D01*
X012234Y065758D02*
X012286Y065810D01*
X012295Y065638D01*
X012180Y065510D01*
X012008Y065501D01*
X011880Y065616D01*
X011871Y065788D01*
X011986Y065916D01*
X012158Y065925D01*
X012286Y065810D01*
X012209Y065774D01*
X012215Y065666D01*
X012144Y065587D01*
X012036Y065581D01*
X011957Y065652D01*
X011951Y065760D01*
X012022Y065839D01*
X012130Y065845D01*
X012209Y065774D01*
X012133Y065737D01*
X012135Y065694D01*
X012107Y065663D01*
X012064Y065661D01*
X012033Y065689D01*
X012031Y065732D01*
X012059Y065763D01*
X012102Y065765D01*
X012133Y065737D01*
X010348Y063463D02*
X010400Y063515D01*
X010427Y063346D01*
X010326Y063207D01*
X010157Y063180D01*
X010018Y063281D01*
X009991Y063450D01*
X010092Y063589D01*
X010261Y063616D01*
X010400Y063515D01*
X010328Y063472D01*
X010345Y063365D01*
X010283Y063279D01*
X010176Y063262D01*
X010090Y063324D01*
X010073Y063431D01*
X010135Y063517D01*
X010242Y063534D01*
X010328Y063472D01*
X010256Y063427D01*
X010263Y063385D01*
X010238Y063351D01*
X010196Y063344D01*
X010162Y063369D01*
X010155Y063411D01*
X010180Y063445D01*
X010222Y063452D01*
X010256Y063427D01*
X009760Y062654D02*
X009812Y062706D01*
X009839Y062537D01*
X009738Y062398D01*
X009569Y062371D01*
X009430Y062472D01*
X009403Y062641D01*
X009504Y062780D01*
X009673Y062807D01*
X009812Y062706D01*
X009740Y062663D01*
X009757Y062556D01*
X009695Y062470D01*
X009588Y062453D01*
X009502Y062515D01*
X009485Y062622D01*
X009547Y062708D01*
X009654Y062725D01*
X009740Y062663D01*
X009668Y062618D01*
X009675Y062576D01*
X009650Y062542D01*
X009608Y062535D01*
X009574Y062560D01*
X009567Y062602D01*
X009592Y062636D01*
X009634Y062643D01*
X009668Y062618D01*
X008125Y060176D02*
X008177Y060228D01*
X008222Y060062D01*
X008136Y059913D01*
X007970Y059868D01*
X007821Y059954D01*
X007776Y060120D01*
X007862Y060269D01*
X008028Y060314D01*
X008177Y060228D01*
X008109Y060177D01*
X008138Y060072D01*
X008085Y059981D01*
X007980Y059952D01*
X007889Y060005D01*
X007860Y060110D01*
X007913Y060201D01*
X008018Y060230D01*
X008109Y060177D01*
X008043Y060125D01*
X008054Y060084D01*
X008033Y060047D01*
X007992Y060036D01*
X007955Y060057D01*
X007944Y060098D01*
X007965Y060135D01*
X008006Y060146D01*
X008043Y060125D01*
X007625Y059310D02*
X007677Y059362D01*
X007722Y059196D01*
X007636Y059047D01*
X007470Y059002D01*
X007321Y059088D01*
X007276Y059254D01*
X007362Y059403D01*
X007528Y059448D01*
X007677Y059362D01*
X007609Y059311D01*
X007638Y059206D01*
X007585Y059115D01*
X007480Y059086D01*
X007389Y059139D01*
X007360Y059244D01*
X007413Y059335D01*
X007518Y059364D01*
X007609Y059311D01*
X007543Y059259D01*
X007554Y059218D01*
X007533Y059181D01*
X007492Y059170D01*
X007455Y059191D01*
X007444Y059232D01*
X007465Y059269D01*
X007506Y059280D01*
X007543Y059259D01*
X006257Y056673D02*
X006309Y056725D01*
X006370Y056564D01*
X006301Y056407D01*
X006140Y056346D01*
X005983Y056415D01*
X005922Y056576D01*
X005991Y056733D01*
X006152Y056794D01*
X006309Y056725D01*
X006247Y056667D01*
X006286Y056566D01*
X006243Y056469D01*
X006142Y056430D01*
X006045Y056473D01*
X006006Y056574D01*
X006049Y056671D01*
X006150Y056710D01*
X006247Y056667D01*
X006186Y056608D01*
X006202Y056569D01*
X006184Y056530D01*
X006145Y056514D01*
X006106Y056532D01*
X006090Y056571D01*
X006108Y056610D01*
X006147Y056626D01*
X006186Y056608D01*
X005850Y055760D02*
X005902Y055812D01*
X005963Y055651D01*
X005894Y055494D01*
X005733Y055433D01*
X005576Y055502D01*
X005515Y055663D01*
X005584Y055820D01*
X005745Y055881D01*
X005902Y055812D01*
X005840Y055754D01*
X005879Y055653D01*
X005836Y055556D01*
X005735Y055517D01*
X005638Y055560D01*
X005599Y055661D01*
X005642Y055758D01*
X005743Y055797D01*
X005840Y055754D01*
X005779Y055695D01*
X005795Y055656D01*
X005777Y055617D01*
X005738Y055601D01*
X005699Y055619D01*
X005683Y055658D01*
X005701Y055697D01*
X005740Y055713D01*
X005779Y055695D01*
X004766Y052995D02*
X004818Y053047D01*
X004896Y052893D01*
X004843Y052730D01*
X004689Y052652D01*
X004526Y052705D01*
X004448Y052859D01*
X004501Y053022D01*
X004655Y053100D01*
X004818Y053047D01*
X004762Y052983D01*
X004812Y052886D01*
X004779Y052786D01*
X004682Y052736D01*
X004582Y052769D01*
X004532Y052866D01*
X004565Y052966D01*
X004662Y053016D01*
X004762Y052983D01*
X004708Y052918D01*
X004727Y052879D01*
X004714Y052840D01*
X004675Y052821D01*
X004636Y052834D01*
X004617Y052873D01*
X004630Y052912D01*
X004669Y052931D01*
X004708Y052918D01*
X004457Y052044D02*
X004509Y052096D01*
X004587Y051942D01*
X004534Y051779D01*
X004380Y051701D01*
X004217Y051754D01*
X004139Y051908D01*
X004192Y052071D01*
X004346Y052149D01*
X004509Y052096D01*
X004453Y052032D01*
X004503Y051935D01*
X004470Y051835D01*
X004373Y051785D01*
X004273Y051818D01*
X004223Y051915D01*
X004256Y052015D01*
X004353Y052065D01*
X004453Y052032D01*
X004399Y051967D01*
X004418Y051928D01*
X004405Y051889D01*
X004366Y051870D01*
X004327Y051883D01*
X004308Y051922D01*
X004321Y051961D01*
X004360Y051980D01*
X004399Y051967D01*
X003667Y049181D02*
X003719Y049233D01*
X003813Y049088D01*
X003777Y048921D01*
X003632Y048827D01*
X003465Y048863D01*
X003371Y049008D01*
X003407Y049175D01*
X003552Y049269D01*
X003719Y049233D01*
X003670Y049164D01*
X003730Y049072D01*
X003708Y048970D01*
X003616Y048910D01*
X003514Y048932D01*
X003454Y049024D01*
X003476Y049126D01*
X003568Y049186D01*
X003670Y049164D01*
X003623Y049094D01*
X003647Y049057D01*
X003638Y049017D01*
X003601Y048993D01*
X003561Y049002D01*
X003537Y049039D01*
X003546Y049079D01*
X003583Y049103D01*
X003623Y049094D01*
X003459Y048203D02*
X003511Y048255D01*
X003605Y048110D01*
X003569Y047943D01*
X003424Y047849D01*
X003257Y047885D01*
X003163Y048030D01*
X003199Y048197D01*
X003344Y048291D01*
X003511Y048255D01*
X003462Y048186D01*
X003522Y048094D01*
X003500Y047992D01*
X003408Y047932D01*
X003306Y047954D01*
X003246Y048046D01*
X003268Y048148D01*
X003360Y048208D01*
X003462Y048186D01*
X003415Y048116D01*
X003439Y048079D01*
X003430Y048039D01*
X003393Y048015D01*
X003353Y048024D01*
X003329Y048061D01*
X003338Y048101D01*
X003375Y048125D01*
X003415Y048116D01*
X002973Y045272D02*
X003025Y045324D01*
X003133Y045190D01*
X003115Y045020D01*
X002981Y044912D01*
X002811Y044930D01*
X002703Y045064D01*
X002721Y045234D01*
X002855Y045342D01*
X003025Y045324D01*
X002984Y045250D01*
X003052Y045166D01*
X003041Y045061D01*
X002957Y044993D01*
X002852Y045004D01*
X002784Y045088D01*
X002795Y045193D01*
X002879Y045261D01*
X002984Y045250D01*
X002944Y045176D01*
X002971Y045142D01*
X002967Y045101D01*
X002933Y045074D01*
X002892Y045078D01*
X002865Y045112D01*
X002869Y045153D01*
X002903Y045180D01*
X002944Y045176D01*
X002868Y044277D02*
X002920Y044329D01*
X003028Y044195D01*
X003010Y044025D01*
X002876Y043917D01*
X002706Y043935D01*
X002598Y044069D01*
X002616Y044239D01*
X002750Y044347D01*
X002920Y044329D01*
X002879Y044255D01*
X002947Y044171D01*
X002936Y044066D01*
X002852Y043998D01*
X002747Y044009D01*
X002679Y044093D01*
X002690Y044198D01*
X002774Y044266D01*
X002879Y044255D01*
X002839Y044181D01*
X002866Y044147D01*
X002862Y044106D01*
X002828Y044079D01*
X002787Y044083D01*
X002760Y044117D01*
X002764Y044158D01*
X002798Y044185D01*
X002839Y044181D01*
X002824Y037346D02*
X002876Y037398D01*
X003010Y037290D01*
X003028Y037120D01*
X002920Y036986D01*
X002750Y036968D01*
X002616Y037076D01*
X002598Y037246D01*
X002706Y037380D01*
X002876Y037398D01*
X002852Y037317D01*
X002936Y037249D01*
X002947Y037144D01*
X002879Y037060D01*
X002774Y037049D01*
X002690Y037117D01*
X002679Y037222D01*
X002747Y037306D01*
X002852Y037317D01*
X002828Y037236D01*
X002862Y037209D01*
X002866Y037168D01*
X002839Y037134D01*
X002798Y037130D01*
X002764Y037157D01*
X002760Y037198D01*
X002787Y037232D01*
X002828Y037236D01*
X002929Y036351D02*
X002981Y036403D01*
X003115Y036295D01*
X003133Y036125D01*
X003025Y035991D01*
X002855Y035973D01*
X002721Y036081D01*
X002703Y036251D01*
X002811Y036385D01*
X002981Y036403D01*
X002957Y036322D01*
X003041Y036254D01*
X003052Y036149D01*
X002984Y036065D01*
X002879Y036054D01*
X002795Y036122D01*
X002784Y036227D01*
X002852Y036311D01*
X002957Y036322D01*
X002933Y036241D01*
X002967Y036214D01*
X002971Y036173D01*
X002944Y036139D01*
X002903Y036135D01*
X002869Y036162D01*
X002865Y036203D01*
X002892Y036237D01*
X002933Y036241D01*
X003372Y033415D02*
X003424Y033467D01*
X003569Y033373D01*
X003605Y033206D01*
X003511Y033061D01*
X003344Y033025D01*
X003199Y033119D01*
X003163Y033286D01*
X003257Y033431D01*
X003424Y033467D01*
X003408Y033384D01*
X003500Y033324D01*
X003522Y033222D01*
X003462Y033130D01*
X003360Y033108D01*
X003268Y033168D01*
X003246Y033270D01*
X003306Y033362D01*
X003408Y033384D01*
X003393Y033301D01*
X003430Y033277D01*
X003439Y033237D01*
X003415Y033200D01*
X003375Y033191D01*
X003338Y033215D01*
X003329Y033255D01*
X003353Y033292D01*
X003393Y033301D01*
X003580Y032437D02*
X003632Y032489D01*
X003777Y032395D01*
X003813Y032228D01*
X003719Y032083D01*
X003552Y032047D01*
X003407Y032141D01*
X003371Y032308D01*
X003465Y032453D01*
X003632Y032489D01*
X003616Y032406D01*
X003708Y032346D01*
X003730Y032244D01*
X003670Y032152D01*
X003568Y032130D01*
X003476Y032190D01*
X003454Y032292D01*
X003514Y032384D01*
X003616Y032406D01*
X003601Y032323D01*
X003638Y032299D01*
X003647Y032259D01*
X003623Y032222D01*
X003583Y032213D01*
X003546Y032237D01*
X003537Y032277D01*
X003561Y032314D01*
X003601Y032323D01*
X004328Y029562D02*
X004380Y029614D01*
X004534Y029536D01*
X004587Y029373D01*
X004509Y029219D01*
X004346Y029166D01*
X004192Y029244D01*
X004139Y029407D01*
X004217Y029561D01*
X004380Y029614D01*
X004373Y029530D01*
X004470Y029480D01*
X004503Y029380D01*
X004453Y029283D01*
X004353Y029250D01*
X004256Y029300D01*
X004223Y029400D01*
X004273Y029497D01*
X004373Y029530D01*
X004366Y029445D01*
X004405Y029426D01*
X004418Y029387D01*
X004399Y029348D01*
X004360Y029335D01*
X004321Y029354D01*
X004308Y029393D01*
X004327Y029432D01*
X004366Y029445D01*
X004637Y028611D02*
X004689Y028663D01*
X004843Y028585D01*
X004896Y028422D01*
X004818Y028268D01*
X004655Y028215D01*
X004501Y028293D01*
X004448Y028456D01*
X004526Y028610D01*
X004689Y028663D01*
X004682Y028579D01*
X004779Y028529D01*
X004812Y028429D01*
X004762Y028332D01*
X004662Y028299D01*
X004565Y028349D01*
X004532Y028449D01*
X004582Y028546D01*
X004682Y028579D01*
X004675Y028494D01*
X004714Y028475D01*
X004727Y028436D01*
X004708Y028397D01*
X004669Y028384D01*
X004630Y028403D01*
X004617Y028442D01*
X004636Y028481D01*
X004675Y028494D01*
X005785Y025830D02*
X005733Y025882D01*
X005894Y025821D01*
X005963Y025664D01*
X005902Y025503D01*
X005745Y025434D01*
X005584Y025495D01*
X005515Y025652D01*
X005576Y025813D01*
X005733Y025882D01*
X005735Y025798D01*
X005836Y025759D01*
X005879Y025662D01*
X005840Y025561D01*
X005743Y025518D01*
X005642Y025557D01*
X005599Y025654D01*
X005638Y025755D01*
X005735Y025798D01*
X005738Y025714D01*
X005777Y025698D01*
X005795Y025659D01*
X005779Y025620D01*
X005740Y025602D01*
X005701Y025618D01*
X005683Y025657D01*
X005699Y025696D01*
X005738Y025714D01*
X006192Y024917D02*
X006140Y024969D01*
X006301Y024908D01*
X006370Y024751D01*
X006309Y024590D01*
X006152Y024521D01*
X005991Y024582D01*
X005922Y024739D01*
X005983Y024900D01*
X006140Y024969D01*
X006142Y024885D01*
X006243Y024846D01*
X006286Y024749D01*
X006247Y024648D01*
X006150Y024605D01*
X006049Y024644D01*
X006006Y024741D01*
X006045Y024842D01*
X006142Y024885D01*
X006145Y024801D01*
X006184Y024785D01*
X006202Y024746D01*
X006186Y024707D01*
X006147Y024689D01*
X006108Y024705D01*
X006090Y024744D01*
X006106Y024783D01*
X006145Y024801D01*
X007522Y022262D02*
X007470Y022314D01*
X007636Y022269D01*
X007722Y022120D01*
X007677Y021954D01*
X007528Y021868D01*
X007362Y021913D01*
X007276Y022062D01*
X007321Y022228D01*
X007470Y022314D01*
X007480Y022230D01*
X007585Y022201D01*
X007638Y022110D01*
X007609Y022005D01*
X007518Y021952D01*
X007413Y021981D01*
X007360Y022072D01*
X007389Y022177D01*
X007480Y022230D01*
X007492Y022146D01*
X007533Y022135D01*
X007554Y022098D01*
X007543Y022057D01*
X007506Y022036D01*
X007465Y022047D01*
X007444Y022084D01*
X007455Y022125D01*
X007492Y022146D01*
X008022Y021396D02*
X007970Y021448D01*
X008136Y021403D01*
X008222Y021254D01*
X008177Y021088D01*
X008028Y021002D01*
X007862Y021047D01*
X007776Y021196D01*
X007821Y021362D01*
X007970Y021448D01*
X007980Y021364D01*
X008085Y021335D01*
X008138Y021244D01*
X008109Y021139D01*
X008018Y021086D01*
X007913Y021115D01*
X007860Y021206D01*
X007889Y021311D01*
X007980Y021364D01*
X007992Y021280D01*
X008033Y021269D01*
X008054Y021232D01*
X008043Y021191D01*
X008006Y021170D01*
X007965Y021181D01*
X007944Y021218D01*
X007955Y021259D01*
X007992Y021280D01*
X009621Y018892D02*
X009569Y018944D01*
X009738Y018917D01*
X009839Y018778D01*
X009812Y018609D01*
X009673Y018508D01*
X009504Y018535D01*
X009403Y018674D01*
X009430Y018843D01*
X009569Y018944D01*
X009588Y018862D01*
X009695Y018845D01*
X009757Y018759D01*
X009740Y018652D01*
X009654Y018590D01*
X009547Y018607D01*
X009485Y018693D01*
X009502Y018800D01*
X009588Y018862D01*
X009608Y018780D01*
X009650Y018773D01*
X009675Y018739D01*
X009668Y018697D01*
X009634Y018672D01*
X009592Y018679D01*
X009567Y018713D01*
X009574Y018755D01*
X009608Y018780D01*
X010209Y018083D02*
X010157Y018135D01*
X010326Y018108D01*
X010427Y017969D01*
X010400Y017800D01*
X010261Y017699D01*
X010092Y017726D01*
X009991Y017865D01*
X010018Y018034D01*
X010157Y018135D01*
X010176Y018053D01*
X010283Y018036D01*
X010345Y017950D01*
X010328Y017843D01*
X010242Y017781D01*
X010135Y017798D01*
X010073Y017884D01*
X010090Y017991D01*
X010176Y018053D01*
X010196Y017971D01*
X010238Y017964D01*
X010263Y017930D01*
X010256Y017888D01*
X010222Y017863D01*
X010180Y017870D01*
X010155Y017904D01*
X010162Y017946D01*
X010196Y017971D01*
X012060Y015762D02*
X012008Y015814D01*
X012180Y015805D01*
X012295Y015677D01*
X012286Y015505D01*
X012158Y015390D01*
X011986Y015399D01*
X011871Y015527D01*
X011880Y015699D01*
X012008Y015814D01*
X012036Y015734D01*
X012144Y015728D01*
X012215Y015649D01*
X012209Y015541D01*
X012130Y015470D01*
X012022Y015476D01*
X011951Y015555D01*
X011957Y015663D01*
X012036Y015734D01*
X012064Y015654D01*
X012107Y015652D01*
X012135Y015621D01*
X012133Y015578D01*
X012102Y015550D01*
X012059Y015552D01*
X012031Y015583D01*
X012033Y015626D01*
X012064Y015654D01*
X012729Y015019D02*
X012677Y015071D01*
X012849Y015062D01*
X012964Y014934D01*
X012955Y014762D01*
X012827Y014647D01*
X012655Y014656D01*
X012540Y014784D01*
X012549Y014956D01*
X012677Y015071D01*
X012705Y014991D01*
X012813Y014985D01*
X012884Y014906D01*
X012878Y014798D01*
X012799Y014727D01*
X012691Y014733D01*
X012620Y014812D01*
X012626Y014920D01*
X012705Y014991D01*
X012733Y014911D01*
X012776Y014909D01*
X012804Y014878D01*
X012802Y014835D01*
X012771Y014807D01*
X012728Y014809D01*
X012700Y014840D01*
X012702Y014883D01*
X012733Y014911D01*
X014814Y012903D02*
X014762Y012955D01*
X014934Y012964D01*
X015062Y012849D01*
X015071Y012677D01*
X014956Y012549D01*
X014784Y012540D01*
X014656Y012655D01*
X014647Y012827D01*
X014762Y012955D01*
X014798Y012878D01*
X014906Y012884D01*
X014985Y012813D01*
X014991Y012705D01*
X014920Y012626D01*
X014812Y012620D01*
X014733Y012691D01*
X014727Y012799D01*
X014798Y012878D01*
X014835Y012802D01*
X014878Y012804D01*
X014909Y012776D01*
X014911Y012733D01*
X014883Y012702D01*
X014840Y012700D01*
X014809Y012728D01*
X014807Y012771D01*
X014835Y012802D01*
X015557Y012234D02*
X015505Y012286D01*
X015677Y012295D01*
X015805Y012180D01*
X015814Y012008D01*
X015699Y011880D01*
X015527Y011871D01*
X015399Y011986D01*
X015390Y012158D01*
X015505Y012286D01*
X015541Y012209D01*
X015649Y012215D01*
X015728Y012144D01*
X015734Y012036D01*
X015663Y011957D01*
X015555Y011951D01*
X015476Y012022D01*
X015470Y012130D01*
X015541Y012209D01*
X015578Y012133D01*
X015621Y012135D01*
X015652Y012107D01*
X015654Y012064D01*
X015626Y012033D01*
X015583Y012031D01*
X015552Y012059D01*
X015550Y012102D01*
X015578Y012133D01*
X017852Y010348D02*
X017800Y010400D01*
X017969Y010427D01*
X018108Y010326D01*
X018135Y010157D01*
X018034Y010018D01*
X017865Y009991D01*
X017726Y010092D01*
X017699Y010261D01*
X017800Y010400D01*
X017843Y010328D01*
X017950Y010345D01*
X018036Y010283D01*
X018053Y010176D01*
X017991Y010090D01*
X017884Y010073D01*
X017798Y010135D01*
X017781Y010242D01*
X017843Y010328D01*
X017888Y010256D01*
X017930Y010263D01*
X017964Y010238D01*
X017971Y010196D01*
X017946Y010162D01*
X017904Y010155D01*
X017870Y010180D01*
X017863Y010222D01*
X017888Y010256D01*
X018661Y009760D02*
X018609Y009812D01*
X018778Y009839D01*
X018917Y009738D01*
X018944Y009569D01*
X018843Y009430D01*
X018674Y009403D01*
X018535Y009504D01*
X018508Y009673D01*
X018609Y009812D01*
X018652Y009740D01*
X018759Y009757D01*
X018845Y009695D01*
X018862Y009588D01*
X018800Y009502D01*
X018693Y009485D01*
X018607Y009547D01*
X018590Y009654D01*
X018652Y009740D01*
X018697Y009668D01*
X018739Y009675D01*
X018773Y009650D01*
X018780Y009608D01*
X018755Y009574D01*
X018713Y009567D01*
X018679Y009592D01*
X018672Y009634D01*
X018697Y009668D01*
X021140Y008125D02*
X021088Y008177D01*
X021254Y008222D01*
X021403Y008136D01*
X021448Y007970D01*
X021362Y007821D01*
X021196Y007776D01*
X021047Y007862D01*
X021002Y008028D01*
X021088Y008177D01*
X021139Y008109D01*
X021244Y008138D01*
X021335Y008085D01*
X021364Y007980D01*
X021311Y007889D01*
X021206Y007860D01*
X021115Y007913D01*
X021086Y008018D01*
X021139Y008109D01*
X021191Y008043D01*
X021232Y008054D01*
X021269Y008033D01*
X021280Y007992D01*
X021259Y007955D01*
X021218Y007944D01*
X021181Y007965D01*
X021170Y008006D01*
X021191Y008043D01*
X022006Y007625D02*
X021954Y007677D01*
X022120Y007722D01*
X022269Y007636D01*
X022314Y007470D01*
X022228Y007321D01*
X022062Y007276D01*
X021913Y007362D01*
X021868Y007528D01*
X021954Y007677D01*
X022005Y007609D01*
X022110Y007638D01*
X022201Y007585D01*
X022230Y007480D01*
X022177Y007389D01*
X022072Y007360D01*
X021981Y007413D01*
X021952Y007518D01*
X022005Y007609D01*
X022057Y007543D01*
X022098Y007554D01*
X022135Y007533D01*
X022146Y007492D01*
X022125Y007455D01*
X022084Y007444D01*
X022047Y007465D01*
X022036Y007506D01*
X022057Y007543D01*
X024642Y006257D02*
X024590Y006309D01*
X024751Y006370D01*
X024908Y006301D01*
X024969Y006140D01*
X024900Y005983D01*
X024739Y005922D01*
X024582Y005991D01*
X024521Y006152D01*
X024590Y006309D01*
X024648Y006247D01*
X024749Y006286D01*
X024846Y006243D01*
X024885Y006142D01*
X024842Y006045D01*
X024741Y006006D01*
X024644Y006049D01*
X024605Y006150D01*
X024648Y006247D01*
X024707Y006186D01*
X024746Y006202D01*
X024785Y006184D01*
X024801Y006145D01*
X024783Y006106D01*
X024744Y006090D01*
X024705Y006108D01*
X024689Y006147D01*
X024707Y006186D01*
X025555Y005850D02*
X025503Y005902D01*
X025664Y005963D01*
X025821Y005894D01*
X025882Y005733D01*
X025813Y005576D01*
X025652Y005515D01*
X025495Y005584D01*
X025434Y005745D01*
X025503Y005902D01*
X025561Y005840D01*
X025662Y005879D01*
X025759Y005836D01*
X025798Y005735D01*
X025755Y005638D01*
X025654Y005599D01*
X025557Y005642D01*
X025518Y005743D01*
X025561Y005840D01*
X025620Y005779D01*
X025659Y005795D01*
X025698Y005777D01*
X025714Y005738D01*
X025696Y005699D01*
X025657Y005683D01*
X025618Y005701D01*
X025602Y005740D01*
X025620Y005779D01*
X028320Y004766D02*
X028268Y004818D01*
X028422Y004896D01*
X028585Y004843D01*
X028663Y004689D01*
X028610Y004526D01*
X028456Y004448D01*
X028293Y004501D01*
X028215Y004655D01*
X028268Y004818D01*
X028332Y004762D01*
X028429Y004812D01*
X028529Y004779D01*
X028579Y004682D01*
X028546Y004582D01*
X028449Y004532D01*
X028349Y004565D01*
X028299Y004662D01*
X028332Y004762D01*
X028397Y004708D01*
X028436Y004727D01*
X028475Y004714D01*
X028494Y004675D01*
X028481Y004636D01*
X028442Y004617D01*
X028403Y004630D01*
X028384Y004669D01*
X028397Y004708D01*
X029271Y004457D02*
X029219Y004509D01*
X029373Y004587D01*
X029536Y004534D01*
X029614Y004380D01*
X029561Y004217D01*
X029407Y004139D01*
X029244Y004192D01*
X029166Y004346D01*
X029219Y004509D01*
X029283Y004453D01*
X029380Y004503D01*
X029480Y004470D01*
X029530Y004373D01*
X029497Y004273D01*
X029400Y004223D01*
X029300Y004256D01*
X029250Y004353D01*
X029283Y004453D01*
X029348Y004399D01*
X029387Y004418D01*
X029426Y004405D01*
X029445Y004366D01*
X029432Y004327D01*
X029393Y004308D01*
X029354Y004321D01*
X029335Y004360D01*
X029348Y004399D01*
X032135Y003667D02*
X032083Y003719D01*
X032228Y003813D01*
X032395Y003777D01*
X032489Y003632D01*
X032453Y003465D01*
X032308Y003371D01*
X032141Y003407D01*
X032047Y003552D01*
X032083Y003719D01*
X032152Y003670D01*
X032244Y003730D01*
X032346Y003708D01*
X032406Y003616D01*
X032384Y003514D01*
X032292Y003454D01*
X032190Y003476D01*
X032130Y003568D01*
X032152Y003670D01*
X032222Y003623D01*
X032259Y003647D01*
X032299Y003638D01*
X032323Y003601D01*
X032314Y003561D01*
X032277Y003537D01*
X032237Y003546D01*
X032213Y003583D01*
X032222Y003623D01*
X033113Y003459D02*
X033061Y003511D01*
X033206Y003605D01*
X033373Y003569D01*
X033467Y003424D01*
X033431Y003257D01*
X033286Y003163D01*
X033119Y003199D01*
X033025Y003344D01*
X033061Y003511D01*
X033130Y003462D01*
X033222Y003522D01*
X033324Y003500D01*
X033384Y003408D01*
X033362Y003306D01*
X033270Y003246D01*
X033168Y003268D01*
X033108Y003360D01*
X033130Y003462D01*
X033200Y003415D01*
X033237Y003439D01*
X033277Y003430D01*
X033301Y003393D01*
X033292Y003353D01*
X033255Y003329D01*
X033215Y003338D01*
X033191Y003375D01*
X033200Y003415D01*
X036043Y002973D02*
X035991Y003025D01*
X036125Y003133D01*
X036295Y003115D01*
X036403Y002981D01*
X036385Y002811D01*
X036251Y002703D01*
X036081Y002721D01*
X035973Y002855D01*
X035991Y003025D01*
X036065Y002984D01*
X036149Y003052D01*
X036254Y003041D01*
X036322Y002957D01*
X036311Y002852D01*
X036227Y002784D01*
X036122Y002795D01*
X036054Y002879D01*
X036065Y002984D01*
X036139Y002944D01*
X036173Y002971D01*
X036214Y002967D01*
X036241Y002933D01*
X036237Y002892D01*
X036203Y002865D01*
X036162Y002869D01*
X036135Y002903D01*
X036139Y002944D01*
X037038Y002868D02*
X036986Y002920D01*
X037120Y003028D01*
X037290Y003010D01*
X037398Y002876D01*
X037380Y002706D01*
X037246Y002598D01*
X037076Y002616D01*
X036968Y002750D01*
X036986Y002920D01*
X037060Y002879D01*
X037144Y002947D01*
X037249Y002936D01*
X037317Y002852D01*
X037306Y002747D01*
X037222Y002679D01*
X037117Y002690D01*
X037049Y002774D01*
X037060Y002879D01*
X037134Y002839D01*
X037168Y002866D01*
X037209Y002862D01*
X037236Y002828D01*
X037232Y002787D01*
X037198Y002760D01*
X037157Y002764D01*
X037130Y002798D01*
X037134Y002839D01*
X043969Y002824D02*
X043917Y002876D01*
X044025Y003010D01*
X044195Y003028D01*
X044329Y002920D01*
X044347Y002750D01*
X044239Y002616D01*
X044069Y002598D01*
X043935Y002706D01*
X043917Y002876D01*
X043998Y002852D01*
X044066Y002936D01*
X044171Y002947D01*
X044255Y002879D01*
X044266Y002774D01*
X044198Y002690D01*
X044093Y002679D01*
X044009Y002747D01*
X043998Y002852D01*
X044079Y002828D01*
X044106Y002862D01*
X044147Y002866D01*
X044181Y002839D01*
X044185Y002798D01*
X044158Y002764D01*
X044117Y002760D01*
X044083Y002787D01*
X044079Y002828D01*
X044964Y002929D02*
X044912Y002981D01*
X045020Y003115D01*
X045190Y003133D01*
X045324Y003025D01*
X045342Y002855D01*
X045234Y002721D01*
X045064Y002703D01*
X044930Y002811D01*
X044912Y002981D01*
X044993Y002957D01*
X045061Y003041D01*
X045166Y003052D01*
X045250Y002984D01*
X045261Y002879D01*
X045193Y002795D01*
X045088Y002784D01*
X045004Y002852D01*
X044993Y002957D01*
X045074Y002933D01*
X045101Y002967D01*
X045142Y002971D01*
X045176Y002944D01*
X045180Y002903D01*
X045153Y002869D01*
X045112Y002865D01*
X045078Y002892D01*
X045074Y002933D01*
X047901Y003372D02*
X047849Y003424D01*
X047943Y003569D01*
X048110Y003605D01*
X048255Y003511D01*
X048291Y003344D01*
X048197Y003199D01*
X048030Y003163D01*
X047885Y003257D01*
X047849Y003424D01*
X047932Y003408D01*
X047992Y003500D01*
X048094Y003522D01*
X048186Y003462D01*
X048208Y003360D01*
X048148Y003268D01*
X048046Y003246D01*
X047954Y003306D01*
X047932Y003408D01*
X048015Y003393D01*
X048039Y003430D01*
X048079Y003439D01*
X048116Y003415D01*
X048125Y003375D01*
X048101Y003338D01*
X048061Y003329D01*
X048024Y003353D01*
X048015Y003393D01*
X048879Y003580D02*
X048827Y003632D01*
X048921Y003777D01*
X049088Y003813D01*
X049233Y003719D01*
X049269Y003552D01*
X049175Y003407D01*
X049008Y003371D01*
X048863Y003465D01*
X048827Y003632D01*
X048910Y003616D01*
X048970Y003708D01*
X049072Y003730D01*
X049164Y003670D01*
X049186Y003568D01*
X049126Y003476D01*
X049024Y003454D01*
X048932Y003514D01*
X048910Y003616D01*
X048993Y003601D01*
X049017Y003638D01*
X049057Y003647D01*
X049094Y003623D01*
X049103Y003583D01*
X049079Y003546D01*
X049039Y003537D01*
X049002Y003561D01*
X048993Y003601D01*
X051753Y004328D02*
X051701Y004380D01*
X051779Y004534D01*
X051942Y004587D01*
X052096Y004509D01*
X052149Y004346D01*
X052071Y004192D01*
X051908Y004139D01*
X051754Y004217D01*
X051701Y004380D01*
X051785Y004373D01*
X051835Y004470D01*
X051935Y004503D01*
X052032Y004453D01*
X052065Y004353D01*
X052015Y004256D01*
X051915Y004223D01*
X051818Y004273D01*
X051785Y004373D01*
X051870Y004366D01*
X051889Y004405D01*
X051928Y004418D01*
X051967Y004399D01*
X051980Y004360D01*
X051961Y004321D01*
X051922Y004308D01*
X051883Y004327D01*
X051870Y004366D01*
X052704Y004637D02*
X052652Y004689D01*
X052730Y004843D01*
X052893Y004896D01*
X053047Y004818D01*
X053100Y004655D01*
X053022Y004501D01*
X052859Y004448D01*
X052705Y004526D01*
X052652Y004689D01*
X052736Y004682D01*
X052786Y004779D01*
X052886Y004812D01*
X052983Y004762D01*
X053016Y004662D01*
X052966Y004565D01*
X052866Y004532D01*
X052769Y004582D01*
X052736Y004682D01*
X052821Y004675D01*
X052840Y004714D01*
X052879Y004727D01*
X052918Y004708D01*
X052931Y004669D01*
X052912Y004630D01*
X052873Y004617D01*
X052834Y004636D01*
X052821Y004675D01*
X055485Y005785D02*
X055433Y005733D01*
X055494Y005894D01*
X055651Y005963D01*
X055812Y005902D01*
X055881Y005745D01*
X055820Y005584D01*
X055663Y005515D01*
X055502Y005576D01*
X055433Y005733D01*
X055517Y005735D01*
X055556Y005836D01*
X055653Y005879D01*
X055754Y005840D01*
X055797Y005743D01*
X055758Y005642D01*
X055661Y005599D01*
X055560Y005638D01*
X055517Y005735D01*
X055601Y005738D01*
X055617Y005777D01*
X055656Y005795D01*
X055695Y005779D01*
X055713Y005740D01*
X055697Y005701D01*
X055658Y005683D01*
X055619Y005699D01*
X055601Y005738D01*
X056398Y006192D02*
X056346Y006140D01*
X056407Y006301D01*
X056564Y006370D01*
X056725Y006309D01*
X056794Y006152D01*
X056733Y005991D01*
X056576Y005922D01*
X056415Y005983D01*
X056346Y006140D01*
X056430Y006142D01*
X056469Y006243D01*
X056566Y006286D01*
X056667Y006247D01*
X056710Y006150D01*
X056671Y006049D01*
X056574Y006006D01*
X056473Y006045D01*
X056430Y006142D01*
X056514Y006145D01*
X056530Y006184D01*
X056569Y006202D01*
X056608Y006186D01*
X056626Y006147D01*
X056610Y006108D01*
X056571Y006090D01*
X056532Y006106D01*
X056514Y006145D01*
X059054Y007522D02*
X059002Y007470D01*
X059047Y007636D01*
X059196Y007722D01*
X059362Y007677D01*
X059448Y007528D01*
X059403Y007362D01*
X059254Y007276D01*
X059088Y007321D01*
X059002Y007470D01*
X059086Y007480D01*
X059115Y007585D01*
X059206Y007638D01*
X059311Y007609D01*
X059364Y007518D01*
X059335Y007413D01*
X059244Y007360D01*
X059139Y007389D01*
X059086Y007480D01*
X059170Y007492D01*
X059181Y007533D01*
X059218Y007554D01*
X059259Y007543D01*
X059280Y007506D01*
X059269Y007465D01*
X059232Y007444D01*
X059191Y007455D01*
X059170Y007492D01*
X059920Y008022D02*
X059868Y007970D01*
X059913Y008136D01*
X060062Y008222D01*
X060228Y008177D01*
X060314Y008028D01*
X060269Y007862D01*
X060120Y007776D01*
X059954Y007821D01*
X059868Y007970D01*
X059952Y007980D01*
X059981Y008085D01*
X060072Y008138D01*
X060177Y008109D01*
X060230Y008018D01*
X060201Y007913D01*
X060110Y007860D01*
X060005Y007889D01*
X059952Y007980D01*
X060036Y007992D01*
X060047Y008033D01*
X060084Y008054D01*
X060125Y008043D01*
X060146Y008006D01*
X060135Y007965D01*
X060098Y007944D01*
X060057Y007955D01*
X060036Y007992D01*
X062423Y009621D02*
X062371Y009569D01*
X062398Y009738D01*
X062537Y009839D01*
X062706Y009812D01*
X062807Y009673D01*
X062780Y009504D01*
X062641Y009403D01*
X062472Y009430D01*
X062371Y009569D01*
X062453Y009588D01*
X062470Y009695D01*
X062556Y009757D01*
X062663Y009740D01*
X062725Y009654D01*
X062708Y009547D01*
X062622Y009485D01*
X062515Y009502D01*
X062453Y009588D01*
X062535Y009608D01*
X062542Y009650D01*
X062576Y009675D01*
X062618Y009668D01*
X062643Y009634D01*
X062636Y009592D01*
X062602Y009567D01*
X062560Y009574D01*
X062535Y009608D01*
X063232Y010209D02*
X063180Y010157D01*
X063207Y010326D01*
X063346Y010427D01*
X063515Y010400D01*
X063616Y010261D01*
X063589Y010092D01*
X063450Y009991D01*
X063281Y010018D01*
X063180Y010157D01*
X063262Y010176D01*
X063279Y010283D01*
X063365Y010345D01*
X063472Y010328D01*
X063534Y010242D01*
X063517Y010135D01*
X063431Y010073D01*
X063324Y010090D01*
X063262Y010176D01*
X063344Y010196D01*
X063351Y010238D01*
X063385Y010263D01*
X063427Y010256D01*
X063452Y010222D01*
X063445Y010180D01*
X063411Y010155D01*
X063369Y010162D01*
X063344Y010196D01*
X065553Y012060D02*
X065501Y012008D01*
X065510Y012180D01*
X065638Y012295D01*
X065810Y012286D01*
X065925Y012158D01*
X065916Y011986D01*
X065788Y011871D01*
X065616Y011880D01*
X065501Y012008D01*
X065581Y012036D01*
X065587Y012144D01*
X065666Y012215D01*
X065774Y012209D01*
X065845Y012130D01*
X065839Y012022D01*
X065760Y011951D01*
X065652Y011957D01*
X065581Y012036D01*
X065661Y012064D01*
X065663Y012107D01*
X065694Y012135D01*
X065737Y012133D01*
X065765Y012102D01*
X065763Y012059D01*
X065732Y012031D01*
X065689Y012033D01*
X065661Y012064D01*
X066296Y012729D02*
X066244Y012677D01*
X066253Y012849D01*
X066381Y012964D01*
X066553Y012955D01*
X066668Y012827D01*
X066659Y012655D01*
X066531Y012540D01*
X066359Y012549D01*
X066244Y012677D01*
X066324Y012705D01*
X066330Y012813D01*
X066409Y012884D01*
X066517Y012878D01*
X066588Y012799D01*
X066582Y012691D01*
X066503Y012620D01*
X066395Y012626D01*
X066324Y012705D01*
X066404Y012733D01*
X066406Y012776D01*
X066437Y012804D01*
X066480Y012802D01*
X066508Y012771D01*
X066506Y012728D01*
X066475Y012700D01*
X066432Y012702D01*
X066404Y012733D01*
X068412Y014814D02*
X068360Y014762D01*
X068351Y014934D01*
X068466Y015062D01*
X068638Y015071D01*
X068766Y014956D01*
X068775Y014784D01*
X068660Y014656D01*
X068488Y014647D01*
X068360Y014762D01*
X068437Y014798D01*
X068431Y014906D01*
X068502Y014985D01*
X068610Y014991D01*
X068689Y014920D01*
X068695Y014812D01*
X068624Y014733D01*
X068516Y014727D01*
X068437Y014798D01*
X068513Y014835D01*
X068511Y014878D01*
X068539Y014909D01*
X068582Y014911D01*
X068613Y014883D01*
X068615Y014840D01*
X068587Y014809D01*
X068544Y014807D01*
X068513Y014835D01*
X069081Y015557D02*
X069029Y015505D01*
X069020Y015677D01*
X069135Y015805D01*
X069307Y015814D01*
X069435Y015699D01*
X069444Y015527D01*
X069329Y015399D01*
X069157Y015390D01*
X069029Y015505D01*
X069106Y015541D01*
X069100Y015649D01*
X069171Y015728D01*
X069279Y015734D01*
X069358Y015663D01*
X069364Y015555D01*
X069293Y015476D01*
X069185Y015470D01*
X069106Y015541D01*
X069182Y015578D01*
X069180Y015621D01*
X069208Y015652D01*
X069251Y015654D01*
X069282Y015626D01*
X069284Y015583D01*
X069256Y015552D01*
X069213Y015550D01*
X069182Y015578D01*
X070968Y017852D02*
X070916Y017800D01*
X070889Y017969D01*
X070990Y018108D01*
X071159Y018135D01*
X071298Y018034D01*
X071325Y017865D01*
X071224Y017726D01*
X071055Y017699D01*
X070916Y017800D01*
X070988Y017843D01*
X070971Y017950D01*
X071033Y018036D01*
X071140Y018053D01*
X071226Y017991D01*
X071243Y017884D01*
X071181Y017798D01*
X071074Y017781D01*
X070988Y017843D01*
X071060Y017888D01*
X071053Y017930D01*
X071078Y017964D01*
X071120Y017971D01*
X071154Y017946D01*
X071161Y017904D01*
X071136Y017870D01*
X071094Y017863D01*
X071060Y017888D01*
X071555Y018661D02*
X071503Y018609D01*
X071476Y018778D01*
X071577Y018917D01*
X071746Y018944D01*
X071885Y018843D01*
X071912Y018674D01*
X071811Y018535D01*
X071642Y018508D01*
X071503Y018609D01*
X071575Y018652D01*
X071558Y018759D01*
X071620Y018845D01*
X071727Y018862D01*
X071813Y018800D01*
X071830Y018693D01*
X071768Y018607D01*
X071661Y018590D01*
X071575Y018652D01*
X071647Y018697D01*
X071640Y018739D01*
X071665Y018773D01*
X071707Y018780D01*
X071741Y018755D01*
X071748Y018713D01*
X071723Y018679D01*
X071681Y018672D01*
X071647Y018697D01*
X073191Y021140D02*
X073139Y021088D01*
X073094Y021254D01*
X073180Y021403D01*
X073346Y021448D01*
X073495Y021362D01*
X073540Y021196D01*
X073454Y021047D01*
X073288Y021002D01*
X073139Y021088D01*
X073207Y021139D01*
X073178Y021244D01*
X073231Y021335D01*
X073336Y021364D01*
X073427Y021311D01*
X073456Y021206D01*
X073403Y021115D01*
X073298Y021086D01*
X073207Y021139D01*
X073273Y021191D01*
X073262Y021232D01*
X073283Y021269D01*
X073324Y021280D01*
X073361Y021259D01*
X073372Y021218D01*
X073351Y021181D01*
X073310Y021170D01*
X073273Y021191D01*
X073691Y022006D02*
X073639Y021954D01*
X073594Y022120D01*
X073680Y022269D01*
X073846Y022314D01*
X073995Y022228D01*
X074040Y022062D01*
X073954Y021913D01*
X073788Y021868D01*
X073639Y021954D01*
X073707Y022005D01*
X073678Y022110D01*
X073731Y022201D01*
X073836Y022230D01*
X073927Y022177D01*
X073956Y022072D01*
X073903Y021981D01*
X073798Y021952D01*
X073707Y022005D01*
X073773Y022057D01*
X073762Y022098D01*
X073783Y022135D01*
X073824Y022146D01*
X073861Y022125D01*
X073872Y022084D01*
X073851Y022047D01*
X073810Y022036D01*
X073773Y022057D01*
X075014Y024671D02*
X074962Y024619D01*
X074913Y024783D01*
X074994Y024935D01*
X075158Y024984D01*
X075310Y024903D01*
X075359Y024739D01*
X075278Y024587D01*
X075114Y024538D01*
X074962Y024619D01*
X075028Y024672D01*
X074997Y024775D01*
X075047Y024869D01*
X075150Y024900D01*
X075244Y024850D01*
X075275Y024747D01*
X075225Y024653D01*
X075122Y024622D01*
X075028Y024672D01*
X075093Y024726D01*
X075081Y024767D01*
X075101Y024804D01*
X075142Y024816D01*
X075179Y024796D01*
X075191Y024755D01*
X075171Y024718D01*
X075130Y024706D01*
X075093Y024726D01*
X075488Y025552D02*
X075436Y025500D01*
X075387Y025664D01*
X075468Y025816D01*
X075632Y025865D01*
X075784Y025784D01*
X075833Y025620D01*
X075752Y025468D01*
X075588Y025419D01*
X075436Y025500D01*
X075502Y025553D01*
X075471Y025656D01*
X075521Y025750D01*
X075624Y025781D01*
X075718Y025731D01*
X075749Y025628D01*
X075699Y025534D01*
X075596Y025503D01*
X075502Y025553D01*
X075567Y025607D01*
X075555Y025648D01*
X075575Y025685D01*
X075616Y025697D01*
X075653Y025677D01*
X075665Y025636D01*
X075645Y025599D01*
X075604Y025587D01*
X075567Y025607D01*
X076544Y028323D02*
X076492Y028271D01*
X076415Y028425D01*
X076470Y028587D01*
X076624Y028664D01*
X076786Y028609D01*
X076863Y028455D01*
X076808Y028293D01*
X076654Y028216D01*
X076492Y028271D01*
X076548Y028334D01*
X076499Y028431D01*
X076533Y028531D01*
X076630Y028580D01*
X076730Y028546D01*
X076779Y028449D01*
X076745Y028349D01*
X076648Y028300D01*
X076548Y028334D01*
X076603Y028398D01*
X076584Y028437D01*
X076597Y028476D01*
X076636Y028495D01*
X076675Y028482D01*
X076694Y028443D01*
X076681Y028404D01*
X076642Y028385D01*
X076603Y028398D01*
X076861Y029272D02*
X076809Y029220D01*
X076732Y029374D01*
X076787Y029536D01*
X076941Y029613D01*
X077103Y029558D01*
X077180Y029404D01*
X077125Y029242D01*
X076971Y029165D01*
X076809Y029220D01*
X076865Y029283D01*
X076816Y029380D01*
X076850Y029480D01*
X076947Y029529D01*
X077047Y029495D01*
X077096Y029398D01*
X077062Y029298D01*
X076965Y029249D01*
X076865Y029283D01*
X076920Y029347D01*
X076901Y029386D01*
X076914Y029425D01*
X076953Y029444D01*
X076992Y029431D01*
X077011Y029392D01*
X076998Y029353D01*
X076959Y029334D01*
X076920Y029347D01*
X077602Y032152D02*
X077550Y032100D01*
X077467Y032251D01*
X077514Y032416D01*
X077665Y032499D01*
X077830Y032452D01*
X077913Y032301D01*
X077866Y032136D01*
X077715Y032053D01*
X077550Y032100D01*
X077604Y032166D01*
X077551Y032261D01*
X077580Y032362D01*
X077675Y032415D01*
X077776Y032386D01*
X077829Y032291D01*
X077800Y032190D01*
X077705Y032137D01*
X077604Y032166D01*
X077656Y032232D01*
X077635Y032271D01*
X077646Y032310D01*
X077685Y032331D01*
X077724Y032320D01*
X077745Y032281D01*
X077734Y032242D01*
X077695Y032221D01*
X077656Y032232D01*
X077877Y033113D02*
X077825Y033061D01*
X077742Y033212D01*
X077789Y033377D01*
X077940Y033460D01*
X078105Y033413D01*
X078188Y033262D01*
X078141Y033097D01*
X077990Y033014D01*
X077825Y033061D01*
X077879Y033127D01*
X077826Y033222D01*
X077855Y033323D01*
X077950Y033376D01*
X078051Y033347D01*
X078104Y033252D01*
X078075Y033151D01*
X077980Y033098D01*
X077879Y033127D01*
X077931Y033193D01*
X077910Y033232D01*
X077921Y033271D01*
X077960Y033292D01*
X077999Y033281D01*
X078020Y033242D01*
X078009Y033203D01*
X077970Y033182D01*
X077931Y033193D01*
X078342Y036043D02*
X078290Y035991D01*
X078182Y036125D01*
X078200Y036295D01*
X078334Y036403D01*
X078504Y036385D01*
X078612Y036251D01*
X078594Y036081D01*
X078460Y035973D01*
X078290Y035991D01*
X078331Y036065D01*
X078263Y036149D01*
X078274Y036254D01*
X078358Y036322D01*
X078463Y036311D01*
X078531Y036227D01*
X078520Y036122D01*
X078436Y036054D01*
X078331Y036065D01*
X078371Y036139D01*
X078344Y036173D01*
X078348Y036214D01*
X078382Y036241D01*
X078423Y036237D01*
X078450Y036203D01*
X078446Y036162D01*
X078412Y036135D01*
X078371Y036139D01*
X078447Y037038D02*
X078395Y036986D01*
X078287Y037120D01*
X078305Y037290D01*
X078439Y037398D01*
X078609Y037380D01*
X078717Y037246D01*
X078699Y037076D01*
X078565Y036968D01*
X078395Y036986D01*
X078436Y037060D01*
X078368Y037144D01*
X078379Y037249D01*
X078463Y037317D01*
X078568Y037306D01*
X078636Y037222D01*
X078625Y037117D01*
X078541Y037049D01*
X078436Y037060D01*
X078476Y037134D01*
X078449Y037168D01*
X078453Y037209D01*
X078487Y037236D01*
X078528Y037232D01*
X078555Y037198D01*
X078551Y037157D01*
X078517Y037130D01*
X078476Y037134D01*
X078491Y043969D02*
X078439Y043917D01*
X078305Y044025D01*
X078287Y044195D01*
X078395Y044329D01*
X078565Y044347D01*
X078699Y044239D01*
X078717Y044069D01*
X078609Y043935D01*
X078439Y043917D01*
X078463Y043998D01*
X078379Y044066D01*
X078368Y044171D01*
X078436Y044255D01*
X078541Y044266D01*
X078625Y044198D01*
X078636Y044093D01*
X078568Y044009D01*
X078463Y043998D01*
X078487Y044079D01*
X078453Y044106D01*
X078449Y044147D01*
X078476Y044181D01*
X078517Y044185D01*
X078551Y044158D01*
X078555Y044117D01*
X078528Y044083D01*
X078487Y044079D01*
X078386Y044964D02*
X078334Y044912D01*
X078200Y045020D01*
X078182Y045190D01*
X078290Y045324D01*
X078460Y045342D01*
X078594Y045234D01*
X078612Y045064D01*
X078504Y044930D01*
X078334Y044912D01*
X078358Y044993D01*
X078274Y045061D01*
X078263Y045166D01*
X078331Y045250D01*
X078436Y045261D01*
X078520Y045193D01*
X078531Y045088D01*
X078463Y045004D01*
X078358Y044993D01*
X078382Y045074D01*
X078348Y045101D01*
X078344Y045142D01*
X078371Y045176D01*
X078412Y045180D01*
X078446Y045153D01*
X078450Y045112D01*
X078423Y045078D01*
X078382Y045074D01*
X077944Y047901D02*
X077892Y047849D01*
X077747Y047943D01*
X077711Y048110D01*
X077805Y048255D01*
X077972Y048291D01*
X078117Y048197D01*
X078153Y048030D01*
X078059Y047885D01*
X077892Y047849D01*
X077908Y047932D01*
X077816Y047992D01*
X077794Y048094D01*
X077854Y048186D01*
X077956Y048208D01*
X078048Y048148D01*
X078070Y048046D01*
X078010Y047954D01*
X077908Y047932D01*
X077923Y048015D01*
X077886Y048039D01*
X077877Y048079D01*
X077901Y048116D01*
X077941Y048125D01*
X077978Y048101D01*
X077987Y048061D01*
X077963Y048024D01*
X077923Y048015D01*
X077736Y048879D02*
X077684Y048827D01*
X077539Y048921D01*
X077503Y049088D01*
X077597Y049233D01*
X077764Y049269D01*
X077909Y049175D01*
X077945Y049008D01*
X077851Y048863D01*
X077684Y048827D01*
X077700Y048910D01*
X077608Y048970D01*
X077586Y049072D01*
X077646Y049164D01*
X077748Y049186D01*
X077840Y049126D01*
X077862Y049024D01*
X077802Y048932D01*
X077700Y048910D01*
X077715Y048993D01*
X077678Y049017D01*
X077669Y049057D01*
X077693Y049094D01*
X077733Y049103D01*
X077770Y049079D01*
X077779Y049039D01*
X077755Y049002D01*
X077715Y048993D01*
X076987Y051753D02*
X076935Y051701D01*
X076781Y051779D01*
X076728Y051942D01*
X076806Y052096D01*
X076969Y052149D01*
X077123Y052071D01*
X077176Y051908D01*
X077098Y051754D01*
X076935Y051701D01*
X076942Y051785D01*
X076845Y051835D01*
X076812Y051935D01*
X076862Y052032D01*
X076962Y052065D01*
X077059Y052015D01*
X077092Y051915D01*
X077042Y051818D01*
X076942Y051785D01*
X076949Y051870D01*
X076910Y051889D01*
X076897Y051928D01*
X076916Y051967D01*
X076955Y051980D01*
X076994Y051961D01*
X077007Y051922D01*
X076988Y051883D01*
X076949Y051870D01*
X076678Y052704D02*
X076626Y052652D01*
X076472Y052730D01*
X076419Y052893D01*
X076497Y053047D01*
X076660Y053100D01*
X076814Y053022D01*
X076867Y052859D01*
X076789Y052705D01*
X076626Y052652D01*
X076633Y052736D01*
X076536Y052786D01*
X076503Y052886D01*
X076553Y052983D01*
X076653Y053016D01*
X076750Y052966D01*
X076783Y052866D01*
X076733Y052769D01*
X076633Y052736D01*
X076640Y052821D01*
X076601Y052840D01*
X076588Y052879D01*
X076607Y052918D01*
X076646Y052931D01*
X076685Y052912D01*
X076698Y052873D01*
X076679Y052834D01*
X076640Y052821D01*
X075530Y055485D02*
X075582Y055433D01*
X075421Y055494D01*
X075352Y055651D01*
X075413Y055812D01*
X075570Y055881D01*
X075731Y055820D01*
X075800Y055663D01*
X075739Y055502D01*
X075582Y055433D01*
X075580Y055517D01*
X075479Y055556D01*
X075436Y055653D01*
X075475Y055754D01*
X075572Y055797D01*
X075673Y055758D01*
X075716Y055661D01*
X075677Y055560D01*
X075580Y055517D01*
X075577Y055601D01*
X075538Y055617D01*
X075520Y055656D01*
X075536Y055695D01*
X075575Y055713D01*
X075614Y055697D01*
X075632Y055658D01*
X075616Y055619D01*
X075577Y055601D01*
X075123Y056398D02*
X075175Y056346D01*
X075014Y056407D01*
X074945Y056564D01*
X075006Y056725D01*
X075163Y056794D01*
X075324Y056733D01*
X075393Y056576D01*
X075332Y056415D01*
X075175Y056346D01*
X075173Y056430D01*
X075072Y056469D01*
X075029Y056566D01*
X075068Y056667D01*
X075165Y056710D01*
X075266Y056671D01*
X075309Y056574D01*
X075270Y056473D01*
X075173Y056430D01*
X075170Y056514D01*
X075131Y056530D01*
X075113Y056569D01*
X075129Y056608D01*
X075168Y056626D01*
X075207Y056610D01*
X075225Y056571D01*
X075209Y056532D01*
X075170Y056514D01*
X073794Y059054D02*
X073846Y059002D01*
X073680Y059047D01*
X073594Y059196D01*
X073639Y059362D01*
X073788Y059448D01*
X073954Y059403D01*
X074040Y059254D01*
X073995Y059088D01*
X073846Y059002D01*
X073836Y059086D01*
X073731Y059115D01*
X073678Y059206D01*
X073707Y059311D01*
X073798Y059364D01*
X073903Y059335D01*
X073956Y059244D01*
X073927Y059139D01*
X073836Y059086D01*
X073824Y059170D01*
X073783Y059181D01*
X073762Y059218D01*
X073773Y059259D01*
X073810Y059280D01*
X073851Y059269D01*
X073872Y059232D01*
X073861Y059191D01*
X073824Y059170D01*
X073294Y059920D02*
X073346Y059868D01*
X073180Y059913D01*
X073094Y060062D01*
X073139Y060228D01*
X073288Y060314D01*
X073454Y060269D01*
X073540Y060120D01*
X073495Y059954D01*
X073346Y059868D01*
X073336Y059952D01*
X073231Y059981D01*
X073178Y060072D01*
X073207Y060177D01*
X073298Y060230D01*
X073403Y060201D01*
X073456Y060110D01*
X073427Y060005D01*
X073336Y059952D01*
X073324Y060036D01*
X073283Y060047D01*
X073262Y060084D01*
X073273Y060125D01*
X073310Y060146D01*
X073351Y060135D01*
X073372Y060098D01*
X073361Y060057D01*
X073324Y060036D01*
X071694Y062423D02*
X071746Y062371D01*
X071577Y062398D01*
X071476Y062537D01*
X071503Y062706D01*
X071642Y062807D01*
X071811Y062780D01*
X071912Y062641D01*
X071885Y062472D01*
X071746Y062371D01*
X071727Y062453D01*
X071620Y062470D01*
X071558Y062556D01*
X071575Y062663D01*
X071661Y062725D01*
X071768Y062708D01*
X071830Y062622D01*
X071813Y062515D01*
X071727Y062453D01*
X071707Y062535D01*
X071665Y062542D01*
X071640Y062576D01*
X071647Y062618D01*
X071681Y062643D01*
X071723Y062636D01*
X071748Y062602D01*
X071741Y062560D01*
X071707Y062535D01*
X071107Y063232D02*
X071159Y063180D01*
X070990Y063207D01*
X070889Y063346D01*
X070916Y063515D01*
X071055Y063616D01*
X071224Y063589D01*
X071325Y063450D01*
X071298Y063281D01*
X071159Y063180D01*
X071140Y063262D01*
X071033Y063279D01*
X070971Y063365D01*
X070988Y063472D01*
X071074Y063534D01*
X071181Y063517D01*
X071243Y063431D01*
X071226Y063324D01*
X071140Y063262D01*
X071120Y063344D01*
X071078Y063351D01*
X071053Y063385D01*
X071060Y063427D01*
X071094Y063452D01*
X071136Y063445D01*
X071161Y063411D01*
X071154Y063369D01*
X071120Y063344D01*
X069255Y065553D02*
X069307Y065501D01*
X069135Y065510D01*
X069020Y065638D01*
X069029Y065810D01*
X069157Y065925D01*
X069329Y065916D01*
X069444Y065788D01*
X069435Y065616D01*
X069307Y065501D01*
X069279Y065581D01*
X069171Y065587D01*
X069100Y065666D01*
X069106Y065774D01*
X069185Y065845D01*
X069293Y065839D01*
X069364Y065760D01*
X069358Y065652D01*
X069279Y065581D01*
X069251Y065661D01*
X069208Y065663D01*
X069180Y065694D01*
X069182Y065737D01*
X069213Y065765D01*
X069256Y065763D01*
X069284Y065732D01*
X069282Y065689D01*
X069251Y065661D01*
X068586Y066296D02*
X068638Y066244D01*
X068466Y066253D01*
X068351Y066381D01*
X068360Y066553D01*
X068488Y066668D01*
X068660Y066659D01*
X068775Y066531D01*
X068766Y066359D01*
X068638Y066244D01*
X068610Y066324D01*
X068502Y066330D01*
X068431Y066409D01*
X068437Y066517D01*
X068516Y066588D01*
X068624Y066582D01*
X068695Y066503D01*
X068689Y066395D01*
X068610Y066324D01*
X068582Y066404D01*
X068539Y066406D01*
X068511Y066437D01*
X068513Y066480D01*
X068544Y066508D01*
X068587Y066506D01*
X068615Y066475D01*
X068613Y066432D01*
X068582Y066404D01*
X066501Y068412D02*
X066553Y068360D01*
X066381Y068351D01*
X066253Y068466D01*
X066244Y068638D01*
X066359Y068766D01*
X066531Y068775D01*
X066659Y068660D01*
X066668Y068488D01*
X066553Y068360D01*
X066517Y068437D01*
X066409Y068431D01*
X066330Y068502D01*
X066324Y068610D01*
X066395Y068689D01*
X066503Y068695D01*
X066582Y068624D01*
X066588Y068516D01*
X066517Y068437D01*
X066480Y068513D01*
X066437Y068511D01*
X066406Y068539D01*
X066404Y068582D01*
X066432Y068613D01*
X066475Y068615D01*
X066506Y068587D01*
X066508Y068544D01*
X066480Y068513D01*
X065758Y069081D02*
X065810Y069029D01*
X065638Y069020D01*
X065510Y069135D01*
X065501Y069307D01*
X065616Y069435D01*
X065788Y069444D01*
X065916Y069329D01*
X065925Y069157D01*
X065810Y069029D01*
X065774Y069106D01*
X065666Y069100D01*
X065587Y069171D01*
X065581Y069279D01*
X065652Y069358D01*
X065760Y069364D01*
X065839Y069293D01*
X065845Y069185D01*
X065774Y069106D01*
X065737Y069182D01*
X065694Y069180D01*
X065663Y069208D01*
X065661Y069251D01*
X065689Y069282D01*
X065732Y069284D01*
X065763Y069256D01*
X065765Y069213D01*
X065737Y069182D01*
X063463Y070968D02*
X063515Y070916D01*
X063346Y070889D01*
X063207Y070990D01*
X063180Y071159D01*
X063281Y071298D01*
X063450Y071325D01*
X063589Y071224D01*
X063616Y071055D01*
X063515Y070916D01*
X063472Y070988D01*
X063365Y070971D01*
X063279Y071033D01*
X063262Y071140D01*
X063324Y071226D01*
X063431Y071243D01*
X063517Y071181D01*
X063534Y071074D01*
X063472Y070988D01*
X063427Y071060D01*
X063385Y071053D01*
X063351Y071078D01*
X063344Y071120D01*
X063369Y071154D01*
X063411Y071161D01*
X063445Y071136D01*
X063452Y071094D01*
X063427Y071060D01*
X062654Y071555D02*
X062706Y071503D01*
X062537Y071476D01*
X062398Y071577D01*
X062371Y071746D01*
X062472Y071885D01*
X062641Y071912D01*
X062780Y071811D01*
X062807Y071642D01*
X062706Y071503D01*
X062663Y071575D01*
X062556Y071558D01*
X062470Y071620D01*
X062453Y071727D01*
X062515Y071813D01*
X062622Y071830D01*
X062708Y071768D01*
X062725Y071661D01*
X062663Y071575D01*
X062618Y071647D01*
X062576Y071640D01*
X062542Y071665D01*
X062535Y071707D01*
X062560Y071741D01*
X062602Y071748D01*
X062636Y071723D01*
X062643Y071681D01*
X062618Y071647D01*
X060176Y073191D02*
X060228Y073139D01*
X060062Y073094D01*
X059913Y073180D01*
X059868Y073346D01*
X059954Y073495D01*
X060120Y073540D01*
X060269Y073454D01*
X060314Y073288D01*
X060228Y073139D01*
X060177Y073207D01*
X060072Y073178D01*
X059981Y073231D01*
X059952Y073336D01*
X060005Y073427D01*
X060110Y073456D01*
X060201Y073403D01*
X060230Y073298D01*
X060177Y073207D01*
X060125Y073273D01*
X060084Y073262D01*
X060047Y073283D01*
X060036Y073324D01*
X060057Y073361D01*
X060098Y073372D01*
X060135Y073351D01*
X060146Y073310D01*
X060125Y073273D01*
X059310Y073691D02*
X059362Y073639D01*
X059196Y073594D01*
X059047Y073680D01*
X059002Y073846D01*
X059088Y073995D01*
X059254Y074040D01*
X059403Y073954D01*
X059448Y073788D01*
X059362Y073639D01*
X059311Y073707D01*
X059206Y073678D01*
X059115Y073731D01*
X059086Y073836D01*
X059139Y073927D01*
X059244Y073956D01*
X059335Y073903D01*
X059364Y073798D01*
X059311Y073707D01*
X059259Y073773D01*
X059218Y073762D01*
X059181Y073783D01*
X059170Y073824D01*
X059191Y073861D01*
X059232Y073872D01*
X059269Y073851D01*
X059280Y073810D01*
X059259Y073773D01*
X056673Y075058D02*
X056725Y075006D01*
X056564Y074945D01*
X056407Y075014D01*
X056346Y075175D01*
X056415Y075332D01*
X056576Y075393D01*
X056733Y075324D01*
X056794Y075163D01*
X056725Y075006D01*
X056667Y075068D01*
X056566Y075029D01*
X056469Y075072D01*
X056430Y075173D01*
X056473Y075270D01*
X056574Y075309D01*
X056671Y075266D01*
X056710Y075165D01*
X056667Y075068D01*
X056608Y075129D01*
X056569Y075113D01*
X056530Y075131D01*
X056514Y075170D01*
X056532Y075209D01*
X056571Y075225D01*
X056610Y075207D01*
X056626Y075168D01*
X056608Y075129D01*
X055760Y075465D02*
X055812Y075413D01*
X055651Y075352D01*
X055494Y075421D01*
X055433Y075582D01*
X055502Y075739D01*
X055663Y075800D01*
X055820Y075731D01*
X055881Y075570D01*
X055812Y075413D01*
X055754Y075475D01*
X055653Y075436D01*
X055556Y075479D01*
X055517Y075580D01*
X055560Y075677D01*
X055661Y075716D01*
X055758Y075673D01*
X055797Y075572D01*
X055754Y075475D01*
X055695Y075536D01*
X055656Y075520D01*
X055617Y075538D01*
X055601Y075577D01*
X055619Y075616D01*
X055658Y075632D01*
X055697Y075614D01*
X055713Y075575D01*
X055695Y075536D01*
X052995Y076549D02*
X053047Y076497D01*
X052893Y076419D01*
X052730Y076472D01*
X052652Y076626D01*
X052705Y076789D01*
X052859Y076867D01*
X053022Y076814D01*
X053100Y076660D01*
X053047Y076497D01*
X052983Y076553D01*
X052886Y076503D01*
X052786Y076536D01*
X052736Y076633D01*
X052769Y076733D01*
X052866Y076783D01*
X052966Y076750D01*
X053016Y076653D01*
X052983Y076553D01*
X052918Y076607D01*
X052879Y076588D01*
X052840Y076601D01*
X052821Y076640D01*
X052834Y076679D01*
X052873Y076698D01*
X052912Y076685D01*
X052931Y076646D01*
X052918Y076607D01*
X052044Y076858D02*
X052096Y076806D01*
X051942Y076728D01*
X051779Y076781D01*
X051701Y076935D01*
X051754Y077098D01*
X051908Y077176D01*
X052071Y077123D01*
X052149Y076969D01*
X052096Y076806D01*
X052032Y076862D01*
X051935Y076812D01*
X051835Y076845D01*
X051785Y076942D01*
X051818Y077042D01*
X051915Y077092D01*
X052015Y077059D01*
X052065Y076962D01*
X052032Y076862D01*
X051967Y076916D01*
X051928Y076897D01*
X051889Y076910D01*
X051870Y076949D01*
X051883Y076988D01*
X051922Y077007D01*
X051961Y076994D01*
X051980Y076955D01*
X051967Y076916D01*
X049181Y077649D02*
X049233Y077597D01*
X049088Y077503D01*
X048921Y077539D01*
X048827Y077684D01*
X048863Y077851D01*
X049008Y077945D01*
X049175Y077909D01*
X049269Y077764D01*
X049233Y077597D01*
X049164Y077646D01*
X049072Y077586D01*
X048970Y077608D01*
X048910Y077700D01*
X048932Y077802D01*
X049024Y077862D01*
X049126Y077840D01*
X049186Y077748D01*
X049164Y077646D01*
X049094Y077693D01*
X049057Y077669D01*
X049017Y077678D01*
X048993Y077715D01*
X049002Y077755D01*
X049039Y077779D01*
X049079Y077770D01*
X049103Y077733D01*
X049094Y077693D01*
X048203Y077857D02*
X048255Y077805D01*
X048110Y077711D01*
X047943Y077747D01*
X047849Y077892D01*
X047885Y078059D01*
X048030Y078153D01*
X048197Y078117D01*
X048291Y077972D01*
X048255Y077805D01*
X048186Y077854D01*
X048094Y077794D01*
X047992Y077816D01*
X047932Y077908D01*
X047954Y078010D01*
X048046Y078070D01*
X048148Y078048D01*
X048208Y077956D01*
X048186Y077854D01*
X048116Y077901D01*
X048079Y077877D01*
X048039Y077886D01*
X048015Y077923D01*
X048024Y077963D01*
X048061Y077987D01*
X048101Y077978D01*
X048125Y077941D01*
X048116Y077901D01*
X045272Y078342D02*
X045324Y078290D01*
X045190Y078182D01*
X045020Y078200D01*
X044912Y078334D01*
X044930Y078504D01*
X045064Y078612D01*
X045234Y078594D01*
X045342Y078460D01*
X045324Y078290D01*
X045250Y078331D01*
X045166Y078263D01*
X045061Y078274D01*
X044993Y078358D01*
X045004Y078463D01*
X045088Y078531D01*
X045193Y078520D01*
X045261Y078436D01*
X045250Y078331D01*
X045176Y078371D01*
X045142Y078344D01*
X045101Y078348D01*
X045074Y078382D01*
X045078Y078423D01*
X045112Y078450D01*
X045153Y078446D01*
X045180Y078412D01*
X045176Y078371D01*
X044277Y078447D02*
X044329Y078395D01*
X044195Y078287D01*
X044025Y078305D01*
X043917Y078439D01*
X043935Y078609D01*
X044069Y078717D01*
X044239Y078699D01*
X044347Y078565D01*
X044329Y078395D01*
X044255Y078436D01*
X044171Y078368D01*
X044066Y078379D01*
X043998Y078463D01*
X044009Y078568D01*
X044093Y078636D01*
X044198Y078625D01*
X044266Y078541D01*
X044255Y078436D01*
X044181Y078476D01*
X044147Y078449D01*
X044106Y078453D01*
X044079Y078487D01*
X044083Y078528D01*
X044117Y078555D01*
X044158Y078551D01*
X044185Y078517D01*
X044181Y078476D01*
D15*
X020558Y067808D03*
X015158Y065258D03*
X012158Y060708D03*
X012358Y053458D03*
D16*
X010158Y040658D03*
X040658Y010658D03*
X071658Y040658D03*
X040658Y071158D03*
D17*
X043108Y067108D03*
X042008Y066608D03*
X047158Y067908D03*
X050358Y065858D03*
X051458Y065958D03*
X052358Y067658D03*
X034058Y066358D03*
X029958Y065458D03*
X026658Y064308D03*
X024608Y063608D03*
X024458Y065508D03*
X016658Y055158D03*
X018558Y027058D03*
X017808Y026358D03*
X016808Y026958D03*
X018208Y023908D03*
X021658Y022208D03*
X042308Y013208D03*
X043058Y013758D03*
X044208Y014408D03*
X047608Y008258D03*
D18*
X007618Y020893D02*
X006910Y022128D01*
X006248Y023388D01*
X005634Y024671D01*
X040155Y079155D02*
X040657Y079158D01*
X007618Y020894D02*
X008322Y019762D01*
X009065Y018656D01*
X009845Y017575D01*
X020893Y073698D02*
X022128Y074406D01*
X023388Y075068D01*
X024671Y075682D01*
X004165Y028390D02*
X004612Y027134D01*
X005101Y025894D01*
X005634Y024672D01*
X033207Y002886D02*
X034522Y002650D01*
X035844Y002460D01*
X037172Y002316D01*
X011724Y066056D02*
X012621Y067042D01*
X013552Y067997D01*
X014514Y068919D01*
X025593Y005227D02*
X026826Y004728D01*
X028076Y004272D01*
X029341Y003859D01*
X015259Y011723D02*
X014273Y012620D01*
X013318Y013551D01*
X012396Y014513D01*
X002886Y048107D02*
X003165Y049407D01*
X003490Y050696D01*
X003859Y051973D01*
X015259Y011724D02*
X016274Y010864D01*
X017317Y010040D01*
X018389Y009252D01*
X012396Y014514D02*
X011510Y015505D01*
X010660Y016526D01*
X009845Y017576D01*
X014514Y068920D02*
X015505Y069806D01*
X016526Y070656D01*
X017576Y071471D01*
X002886Y048108D02*
X002650Y046796D01*
X002461Y045477D01*
X002317Y044152D01*
X036170Y078895D02*
X037495Y079028D01*
X038825Y079114D01*
X040156Y079155D01*
X005227Y055722D02*
X004728Y054489D01*
X004272Y053239D01*
X003859Y051974D01*
X003094Y032221D02*
X003407Y030932D01*
X003764Y029654D01*
X004165Y028390D01*
X003094Y032221D02*
X002824Y033529D01*
X002599Y034846D01*
X002421Y036170D01*
X002288Y037495D01*
X002202Y038825D01*
X002161Y040156D01*
X002167Y041490D01*
X002219Y042823D01*
X002317Y044153D01*
X005227Y055722D02*
X005809Y057022D01*
X006438Y058300D01*
X007114Y059554D01*
X009252Y062927D02*
X010040Y063999D01*
X010864Y065042D01*
X011724Y066057D01*
X032221Y078222D02*
X033529Y078492D01*
X034846Y078717D01*
X036170Y078895D01*
X037173Y002316D02*
X038914Y002198D01*
X040658Y002158D01*
X007114Y059554D02*
X007788Y060703D01*
X008501Y061828D01*
X009252Y062927D01*
X021762Y007114D02*
X023016Y006438D01*
X024294Y005809D01*
X025594Y005227D01*
X021762Y007114D02*
X020613Y007788D01*
X019488Y008501D01*
X018389Y009252D01*
X028390Y077151D02*
X029654Y077552D01*
X030932Y077909D01*
X032221Y078222D01*
X029342Y003859D02*
X030619Y003490D01*
X031908Y003165D01*
X033208Y002886D01*
X017575Y071471D02*
X018656Y072251D01*
X019762Y072994D01*
X020894Y073698D01*
X024672Y075682D02*
X025894Y076215D01*
X027134Y076704D01*
X028390Y077151D01*
D19*
X017158Y065558D03*
M02*
