G75*
G70*
%OFA0B0*%
%FSLAX24Y24*%
%IPPOS*%
%LPD*%
%AMOC8*
5,1,8,0,0,1.08239X$1,22.5*
%
%ADD10C,0.0110*%
%ADD11C,0.0060*%
%ADD12C,0.0100*%
%ADD13C,0.0010*%
%ADD14R,0.0191X0.0195*%
%ADD15C,0.0050*%
D10*
X020233Y003331D02*
X020331Y003233D01*
X020725Y003233D01*
X020823Y003331D01*
X020823Y003528D01*
X020725Y003627D01*
X020528Y003627D01*
X020528Y003430D01*
X020331Y003627D02*
X020233Y003528D01*
X020233Y003331D01*
X020233Y003878D02*
X020823Y003878D01*
X020823Y004271D01*
X020725Y004522D02*
X020626Y004522D01*
X020528Y004620D01*
X020528Y004817D01*
X020626Y004916D01*
X020725Y004916D01*
X020823Y004817D01*
X020823Y004620D01*
X020725Y004522D01*
X020528Y004620D02*
X020429Y004522D01*
X020331Y004522D01*
X020233Y004620D01*
X020233Y004817D01*
X020331Y004916D01*
X020429Y004916D01*
X020528Y004817D01*
X020528Y005167D02*
X020528Y005462D01*
X020626Y005560D01*
X020725Y005560D01*
X020823Y005462D01*
X020823Y005265D01*
X020725Y005167D01*
X020528Y005167D01*
X020331Y005363D01*
X020233Y005560D01*
X020528Y005811D02*
X020233Y006106D01*
X020823Y006106D01*
X020528Y006205D02*
X020528Y005811D01*
X020528Y007100D02*
X020528Y007395D01*
X020626Y007494D01*
X020725Y007494D01*
X020823Y007395D01*
X020823Y007100D01*
X020233Y007100D01*
X020233Y007395D01*
X020331Y007494D01*
X020429Y007494D01*
X020528Y007395D01*
X020626Y007745D02*
X020429Y007942D01*
X020429Y008040D01*
X020528Y008282D02*
X020429Y008380D01*
X020429Y008577D01*
X020528Y008675D01*
X020626Y008675D01*
X020626Y008282D01*
X020528Y008282D02*
X020725Y008282D01*
X020823Y008380D01*
X020823Y008577D01*
X020725Y008926D02*
X020626Y009025D01*
X020626Y009320D01*
X020528Y009320D02*
X020823Y009320D01*
X020823Y009025D01*
X020725Y008926D01*
X020429Y009025D02*
X020429Y009222D01*
X020528Y009320D01*
X020626Y009571D02*
X020429Y009866D01*
X020528Y010108D02*
X020725Y010108D01*
X020823Y010206D01*
X020823Y010403D01*
X020725Y010502D01*
X020528Y010502D01*
X020429Y010403D01*
X020429Y010206D01*
X020528Y010108D01*
X020823Y009866D02*
X020626Y009571D01*
X020823Y009571D02*
X020233Y009571D01*
X020429Y010752D02*
X020725Y010752D01*
X020823Y010851D01*
X020823Y011146D01*
X020429Y011146D01*
X020429Y011397D02*
X020429Y011594D01*
X020331Y011495D02*
X020725Y011495D01*
X020823Y011594D01*
X020823Y007745D02*
X020429Y007745D01*
X020233Y004271D02*
X020233Y003878D01*
X020528Y003878D02*
X020528Y004074D01*
D11*
X016398Y004163D02*
X016398Y004276D01*
X016398Y004220D02*
X016058Y004220D01*
X016058Y004276D02*
X016058Y004163D01*
X016114Y004021D02*
X016228Y004021D01*
X016285Y003965D01*
X016285Y003795D01*
X016398Y003795D02*
X016058Y003795D01*
X016058Y003965D01*
X016114Y004021D01*
X015898Y004021D02*
X015785Y003908D01*
X015785Y003965D02*
X015785Y003795D01*
X015898Y003795D02*
X015558Y003795D01*
X015558Y003965D01*
X015614Y004021D01*
X015728Y004021D01*
X015785Y003965D01*
X015898Y004163D02*
X015558Y004163D01*
X015671Y004276D01*
X015558Y004390D01*
X015898Y004390D01*
X015841Y004531D02*
X015898Y004588D01*
X015898Y004701D01*
X015841Y004758D01*
X015614Y004758D01*
X015558Y004701D01*
X015558Y004588D01*
X015614Y004531D01*
X015841Y004531D01*
X016058Y004579D02*
X016114Y004635D01*
X016341Y004635D01*
X016398Y004579D01*
X016398Y004465D01*
X016341Y004408D01*
X016114Y004408D01*
X016058Y004465D01*
X016058Y004579D01*
X016114Y004777D02*
X016058Y004833D01*
X016058Y004947D01*
X016114Y005004D01*
X016171Y005004D01*
X016398Y004777D01*
X016398Y005004D01*
X016398Y005145D02*
X016398Y005372D01*
X016398Y005259D02*
X016058Y005259D01*
X016171Y005145D01*
X015898Y005126D02*
X015558Y005126D01*
X015398Y005202D02*
X015341Y005145D01*
X015398Y005202D02*
X015398Y005315D01*
X015341Y005372D01*
X015285Y005372D01*
X015228Y005315D01*
X015228Y005259D01*
X015228Y005315D02*
X015171Y005372D01*
X015114Y005372D01*
X015058Y005315D01*
X015058Y005202D01*
X015114Y005145D01*
X014898Y005145D02*
X014841Y005145D01*
X014614Y005372D01*
X014558Y005372D01*
X014558Y005145D01*
X014614Y005004D02*
X014841Y004777D01*
X014898Y004833D01*
X014898Y004947D01*
X014841Y005004D01*
X014614Y005004D01*
X014558Y004947D01*
X014558Y004833D01*
X014614Y004777D01*
X014841Y004777D01*
X014841Y004635D02*
X014614Y004635D01*
X014558Y004579D01*
X014558Y004465D01*
X014614Y004408D01*
X014841Y004408D01*
X014898Y004465D01*
X014898Y004579D01*
X014841Y004635D01*
X015058Y004579D02*
X015114Y004635D01*
X015341Y004635D01*
X015398Y004579D01*
X015398Y004465D01*
X015341Y004408D01*
X015114Y004408D01*
X015058Y004465D01*
X015058Y004579D01*
X015171Y004777D02*
X015058Y004890D01*
X015398Y004890D01*
X015398Y004777D02*
X015398Y005004D01*
X015558Y004900D02*
X015898Y005126D01*
X015898Y004900D02*
X015558Y004900D01*
X015398Y004276D02*
X015398Y004163D01*
X015398Y004220D02*
X015058Y004220D01*
X015058Y004276D02*
X015058Y004163D01*
X015114Y004021D02*
X015228Y004021D01*
X015285Y003965D01*
X015285Y003795D01*
X015398Y003795D02*
X015058Y003795D01*
X015058Y003965D01*
X015114Y004021D01*
X014898Y004163D02*
X014898Y004276D01*
X014898Y004220D02*
X014558Y004220D01*
X014558Y004276D02*
X014558Y004163D01*
X014614Y004021D02*
X014728Y004021D01*
X014785Y003965D01*
X014785Y003795D01*
X014898Y003795D02*
X014558Y003795D01*
X014558Y003965D01*
X014614Y004021D01*
X014398Y004163D02*
X014398Y004276D01*
X014398Y004220D02*
X014058Y004220D01*
X014058Y004276D02*
X014058Y004163D01*
X014114Y004021D02*
X014228Y004021D01*
X014285Y003965D01*
X014285Y003795D01*
X014398Y003795D02*
X014058Y003795D01*
X014058Y003965D01*
X014114Y004021D01*
X013898Y004163D02*
X013898Y004276D01*
X013898Y004220D02*
X013558Y004220D01*
X013558Y004276D02*
X013558Y004163D01*
X013455Y004163D02*
X013455Y004390D01*
X013558Y004465D02*
X013614Y004408D01*
X013841Y004408D01*
X013898Y004465D01*
X013898Y004579D01*
X013841Y004635D01*
X013614Y004635D01*
X013558Y004579D01*
X013558Y004465D01*
X013398Y004531D02*
X013398Y004645D01*
X013398Y004588D02*
X013058Y004588D01*
X013058Y004531D02*
X013058Y004645D01*
X013058Y004777D02*
X013398Y005004D01*
X013058Y005004D01*
X012898Y005004D02*
X012898Y004777D01*
X012898Y004890D02*
X012558Y004890D01*
X012671Y004777D01*
X012614Y004635D02*
X012558Y004579D01*
X012558Y004465D01*
X012614Y004408D01*
X012841Y004408D01*
X012898Y004465D01*
X012898Y004579D01*
X012841Y004635D01*
X012614Y004635D01*
X012398Y004635D02*
X012058Y004635D01*
X012058Y004777D02*
X012058Y005004D01*
X011898Y004900D02*
X011558Y004900D01*
X011558Y005126D01*
X011398Y005145D02*
X011171Y005372D01*
X011114Y005372D01*
X011058Y005315D01*
X011058Y005202D01*
X011114Y005145D01*
X011058Y005004D02*
X011398Y005004D01*
X011058Y004777D01*
X011398Y004777D01*
X011398Y004645D02*
X011398Y004531D01*
X011398Y004588D02*
X011058Y004588D01*
X011058Y004531D02*
X011058Y004645D01*
X010898Y004635D02*
X010558Y004635D01*
X010671Y004522D01*
X010558Y004408D01*
X010898Y004408D01*
X010955Y004267D02*
X010955Y004040D01*
X011058Y003965D02*
X011058Y003851D01*
X011114Y003795D01*
X011341Y003795D01*
X011398Y003851D01*
X011398Y003965D01*
X011341Y004021D01*
X011455Y004163D02*
X011455Y004390D01*
X011558Y004531D02*
X011898Y004531D01*
X011955Y004390D02*
X011955Y004163D01*
X011898Y004021D02*
X011785Y003908D01*
X011785Y003965D02*
X011785Y003795D01*
X011898Y003795D02*
X011558Y003795D01*
X011558Y003965D01*
X011614Y004021D01*
X011728Y004021D01*
X011785Y003965D01*
X012058Y003842D02*
X012058Y003729D01*
X012114Y003672D01*
X012341Y003672D01*
X012398Y003729D01*
X012398Y003842D01*
X012341Y003899D01*
X012455Y004040D02*
X012455Y004267D01*
X012558Y004276D02*
X012558Y004163D01*
X012558Y004220D02*
X012898Y004220D01*
X012898Y004276D02*
X012898Y004163D01*
X012728Y004021D02*
X012614Y004021D01*
X012558Y003965D01*
X012558Y003795D01*
X012898Y003795D01*
X012785Y003795D02*
X012785Y003965D01*
X012728Y004021D01*
X013058Y003965D02*
X013058Y003851D01*
X013114Y003795D01*
X013341Y003795D01*
X013398Y003851D01*
X013398Y003965D01*
X013341Y004021D01*
X013558Y003965D02*
X013558Y003795D01*
X013898Y003795D01*
X013785Y003795D02*
X013785Y003965D01*
X013728Y004021D01*
X013614Y004021D01*
X013558Y003965D01*
X013614Y003653D02*
X013558Y003596D01*
X013558Y003483D01*
X013614Y003426D01*
X013841Y003426D01*
X013898Y003483D01*
X013898Y003596D01*
X013841Y003653D01*
X013728Y003653D01*
X013728Y003540D01*
X013558Y003285D02*
X013558Y003058D01*
X013558Y003171D02*
X013898Y003171D01*
X014058Y003171D02*
X014398Y003171D01*
X014558Y003171D02*
X014898Y003171D01*
X015058Y003171D02*
X015398Y003171D01*
X015558Y003228D02*
X015614Y003285D01*
X015728Y003285D01*
X015785Y003228D01*
X015785Y003058D01*
X015898Y003058D02*
X015558Y003058D01*
X015558Y003228D01*
X015558Y003426D02*
X015898Y003426D01*
X015785Y003540D01*
X015898Y003653D01*
X015558Y003653D01*
X015398Y003596D02*
X015341Y003653D01*
X015228Y003653D01*
X015228Y003540D01*
X015114Y003653D02*
X015058Y003596D01*
X015058Y003483D01*
X015114Y003426D01*
X015341Y003426D01*
X015398Y003483D01*
X015398Y003596D01*
X015058Y003285D02*
X015058Y003058D01*
X014841Y003426D02*
X014898Y003483D01*
X014898Y003596D01*
X014841Y003653D01*
X014728Y003653D01*
X014728Y003540D01*
X014614Y003653D02*
X014558Y003596D01*
X014558Y003483D01*
X014614Y003426D01*
X014841Y003426D01*
X014558Y003285D02*
X014558Y003058D01*
X014341Y003426D02*
X014398Y003483D01*
X014398Y003596D01*
X014341Y003653D01*
X014228Y003653D01*
X014228Y003540D01*
X014114Y003653D02*
X014058Y003596D01*
X014058Y003483D01*
X014114Y003426D01*
X014341Y003426D01*
X014058Y003285D02*
X014058Y003058D01*
X013398Y003058D02*
X013171Y003058D01*
X013058Y003171D01*
X013171Y003285D01*
X013398Y003285D01*
X013398Y003426D02*
X013398Y003596D01*
X013341Y003653D01*
X013114Y003653D01*
X013058Y003596D01*
X013058Y003426D01*
X013398Y003426D01*
X013228Y003285D02*
X013228Y003058D01*
X012898Y003171D02*
X012558Y003171D01*
X012558Y003058D02*
X012558Y003285D01*
X012614Y003426D02*
X012841Y003426D01*
X012898Y003483D01*
X012898Y003596D01*
X012841Y003653D01*
X012728Y003653D01*
X012728Y003540D01*
X012614Y003653D02*
X012558Y003596D01*
X012558Y003483D01*
X012614Y003426D01*
X012398Y003426D02*
X012398Y003540D01*
X012398Y003483D02*
X012058Y003483D01*
X012058Y003426D02*
X012058Y003540D01*
X011898Y003653D02*
X011671Y003653D01*
X011558Y003540D01*
X011671Y003426D01*
X011898Y003426D01*
X011898Y003285D02*
X011898Y003058D01*
X011558Y003058D01*
X011558Y003285D01*
X011398Y003285D02*
X011171Y003285D01*
X011058Y003171D01*
X011171Y003058D01*
X011398Y003058D01*
X011228Y003058D02*
X011228Y003285D01*
X011398Y003426D02*
X011398Y003596D01*
X011341Y003653D01*
X011114Y003653D01*
X011058Y003596D01*
X011058Y003426D01*
X011398Y003426D01*
X011728Y003426D02*
X011728Y003653D01*
X012058Y003842D02*
X012114Y003899D01*
X012058Y003285D02*
X012398Y003285D01*
X012398Y003058D02*
X012058Y003058D01*
X012171Y003171D01*
X012058Y003285D01*
X011728Y003171D02*
X011728Y003058D01*
X010898Y003058D02*
X010558Y003058D01*
X010671Y003171D01*
X010558Y003285D01*
X010898Y003285D01*
X010898Y003426D02*
X010898Y003540D01*
X010898Y003483D02*
X010558Y003483D01*
X010558Y003426D02*
X010558Y003540D01*
X010614Y003672D02*
X010841Y003672D01*
X010898Y003729D01*
X010898Y003842D01*
X010841Y003899D01*
X011058Y003965D02*
X011114Y004021D01*
X010614Y003899D02*
X010558Y003842D01*
X010558Y003729D01*
X010614Y003672D01*
X010398Y003653D02*
X010171Y003653D01*
X010058Y003540D01*
X010171Y003426D01*
X010398Y003426D01*
X010398Y003285D02*
X010398Y003058D01*
X010058Y003058D01*
X010058Y003285D01*
X009898Y003285D02*
X009898Y003058D01*
X009558Y003058D01*
X009558Y003285D01*
X009398Y003285D02*
X009171Y003285D01*
X009058Y003171D01*
X009171Y003058D01*
X009398Y003058D01*
X009228Y003058D02*
X009228Y003285D01*
X009398Y003426D02*
X009398Y003596D01*
X009341Y003653D01*
X009114Y003653D01*
X009058Y003596D01*
X009058Y003426D01*
X009398Y003426D01*
X009558Y003540D02*
X009671Y003653D01*
X009898Y003653D01*
X009898Y003795D02*
X009558Y003795D01*
X009558Y003965D01*
X009614Y004021D01*
X009728Y004021D01*
X009785Y003965D01*
X009785Y003795D01*
X009785Y003908D02*
X009898Y004021D01*
X009955Y004163D02*
X009955Y004390D01*
X009898Y004531D02*
X009558Y004531D01*
X009398Y004531D02*
X009398Y004645D01*
X009398Y004588D02*
X009058Y004588D01*
X009058Y004531D02*
X009058Y004645D01*
X009058Y004777D02*
X009398Y005004D01*
X009058Y005004D01*
X009114Y005145D02*
X009058Y005202D01*
X009058Y005315D01*
X009114Y005372D01*
X009171Y005372D01*
X009228Y005315D01*
X009285Y005372D01*
X009341Y005372D01*
X009398Y005315D01*
X009398Y005202D01*
X009341Y005145D01*
X009228Y005259D02*
X009228Y005315D01*
X009558Y005126D02*
X009558Y004900D01*
X009898Y004900D01*
X009898Y004758D02*
X009558Y004758D01*
X009398Y004777D02*
X009058Y004777D01*
X009455Y004390D02*
X009455Y004163D01*
X009341Y004021D02*
X009398Y003965D01*
X009398Y003851D01*
X009341Y003795D01*
X009114Y003795D01*
X009058Y003851D01*
X009058Y003965D01*
X009114Y004021D01*
X008898Y003965D02*
X008898Y003795D01*
X008558Y003795D01*
X008558Y003965D01*
X008614Y004021D01*
X008841Y004021D01*
X008898Y003965D01*
X008898Y003653D02*
X008558Y003426D01*
X008614Y003285D02*
X008728Y003285D01*
X008785Y003228D01*
X008785Y003058D01*
X008898Y003058D02*
X008558Y003058D01*
X008558Y003228D01*
X008614Y003285D01*
X008785Y003171D02*
X008898Y003285D01*
X008898Y003426D02*
X008558Y003653D01*
X008398Y003729D02*
X008398Y003842D01*
X008341Y003899D01*
X008398Y003729D02*
X008341Y003672D01*
X008114Y003672D01*
X008058Y003729D01*
X008058Y003842D01*
X008114Y003899D01*
X007898Y003795D02*
X007558Y003795D01*
X007558Y003965D01*
X007614Y004021D01*
X007728Y004021D01*
X007785Y003965D01*
X007785Y003795D01*
X007785Y003908D02*
X007898Y004021D01*
X007955Y004163D02*
X007955Y004390D01*
X008058Y004408D02*
X008171Y004522D01*
X008058Y004635D01*
X008398Y004635D01*
X008398Y004408D02*
X008058Y004408D01*
X007898Y004531D02*
X007558Y004531D01*
X007671Y004645D01*
X007558Y004758D01*
X007898Y004758D01*
X008058Y004777D02*
X008058Y005004D01*
X008058Y004890D02*
X008398Y004890D01*
X008228Y005145D02*
X008228Y005372D01*
X007841Y005381D02*
X007614Y005381D01*
X007728Y005268D02*
X007728Y005495D01*
X007558Y005126D02*
X007558Y004900D01*
X007558Y005013D02*
X007898Y005013D01*
X008455Y004267D02*
X008455Y004040D01*
X008398Y003540D02*
X008398Y003426D01*
X008398Y003483D02*
X008058Y003483D01*
X008058Y003426D02*
X008058Y003540D01*
X007898Y003653D02*
X007671Y003653D01*
X007558Y003540D01*
X007671Y003426D01*
X007898Y003426D01*
X007898Y003285D02*
X007898Y003058D01*
X007558Y003058D01*
X007558Y003285D01*
X007398Y003285D02*
X007285Y003171D01*
X007285Y003228D02*
X007285Y003058D01*
X007398Y003058D02*
X007058Y003058D01*
X007058Y003228D01*
X007114Y003285D01*
X007228Y003285D01*
X007285Y003228D01*
X007058Y003426D02*
X007058Y003653D01*
X007058Y003540D02*
X007398Y003540D01*
X007341Y003795D02*
X007398Y003851D01*
X007398Y003965D01*
X007341Y004021D01*
X007285Y004021D01*
X007228Y003965D01*
X007228Y003851D01*
X007171Y003795D01*
X007114Y003795D01*
X007058Y003851D01*
X007058Y003965D01*
X007114Y004021D01*
X006955Y004040D02*
X006955Y004267D01*
X006898Y004408D02*
X006558Y004408D01*
X006728Y004408D02*
X006728Y004635D01*
X006728Y004777D02*
X006728Y004890D01*
X006898Y004777D02*
X006558Y004777D01*
X006558Y005004D01*
X006728Y005145D02*
X006728Y005372D01*
X006841Y005259D02*
X006614Y005259D01*
X006558Y004635D02*
X006898Y004635D01*
X006841Y003899D02*
X006898Y003842D01*
X006898Y003729D01*
X006841Y003672D01*
X006614Y003672D01*
X006558Y003729D01*
X006558Y003842D01*
X006614Y003899D01*
X006558Y003540D02*
X006558Y003426D01*
X006558Y003483D02*
X006898Y003483D01*
X006898Y003426D02*
X006898Y003540D01*
X006898Y003285D02*
X006558Y003285D01*
X006671Y003171D01*
X006558Y003058D01*
X006898Y003058D01*
X007728Y003058D02*
X007728Y003171D01*
X007728Y003426D02*
X007728Y003653D01*
X008058Y003285D02*
X008171Y003171D01*
X008058Y003058D01*
X008398Y003058D01*
X008398Y003285D02*
X008058Y003285D01*
X009558Y003540D02*
X009671Y003426D01*
X009898Y003426D01*
X009728Y003426D02*
X009728Y003653D01*
X010058Y003795D02*
X010058Y003965D01*
X010114Y004021D01*
X010228Y004021D01*
X010285Y003965D01*
X010285Y003795D01*
X010398Y003795D02*
X010058Y003795D01*
X010228Y003653D02*
X010228Y003426D01*
X010228Y003171D02*
X010228Y003058D01*
X009728Y003058D02*
X009728Y003171D01*
X010285Y003908D02*
X010398Y004021D01*
X010455Y004163D02*
X010455Y004390D01*
X010398Y004531D02*
X010058Y004531D01*
X010171Y004645D01*
X010058Y004758D01*
X010398Y004758D01*
X010558Y004777D02*
X010558Y005004D01*
X010558Y004890D02*
X010898Y004890D01*
X010728Y005145D02*
X010728Y005372D01*
X010841Y005259D02*
X010614Y005259D01*
X010398Y005013D02*
X010058Y005013D01*
X010058Y004900D02*
X010058Y005126D01*
X010228Y005268D02*
X010228Y005495D01*
X009841Y005381D02*
X009614Y005381D01*
X009728Y005268D02*
X009728Y005495D01*
X009728Y005013D02*
X009728Y004900D01*
X009728Y004758D02*
X009728Y004531D01*
X011398Y005145D02*
X011398Y005372D01*
X011728Y005268D02*
X011728Y005495D01*
X011728Y005013D02*
X011728Y004900D01*
X011728Y004758D02*
X011728Y004531D01*
X011558Y004758D02*
X011898Y004758D01*
X012058Y004777D02*
X012398Y004777D01*
X012228Y004777D02*
X012228Y004890D01*
X012228Y004635D02*
X012228Y004408D01*
X012398Y004408D02*
X012058Y004408D01*
X012228Y005145D02*
X012228Y005372D01*
X012558Y005315D02*
X012558Y005202D01*
X012614Y005145D01*
X012671Y005145D01*
X012728Y005202D01*
X012728Y005315D01*
X012785Y005372D01*
X012841Y005372D01*
X012898Y005315D01*
X012898Y005202D01*
X012841Y005145D01*
X012785Y005145D01*
X012728Y005202D01*
X012728Y005315D02*
X012671Y005372D01*
X012614Y005372D01*
X012558Y005315D01*
X013058Y005259D02*
X013398Y005259D01*
X013398Y005372D02*
X013398Y005145D01*
X013558Y005202D02*
X013558Y005315D01*
X013614Y005372D01*
X013671Y005372D01*
X013728Y005315D01*
X013728Y005202D01*
X013671Y005145D01*
X013614Y005145D01*
X013558Y005202D01*
X013728Y005202D02*
X013785Y005145D01*
X013841Y005145D01*
X013898Y005202D01*
X013898Y005315D01*
X013841Y005372D01*
X013785Y005372D01*
X013728Y005315D01*
X013841Y005004D02*
X013614Y005004D01*
X013841Y004777D01*
X013898Y004833D01*
X013898Y004947D01*
X013841Y005004D01*
X014058Y004947D02*
X014058Y004833D01*
X014114Y004777D01*
X014341Y004777D01*
X014114Y005004D01*
X014341Y005004D01*
X014398Y004947D01*
X014398Y004833D01*
X014341Y004777D01*
X014341Y004635D02*
X014114Y004635D01*
X014058Y004579D01*
X014058Y004465D01*
X014114Y004408D01*
X014341Y004408D01*
X014398Y004465D01*
X014398Y004579D01*
X014341Y004635D01*
X014058Y004947D02*
X014114Y005004D01*
X014058Y005145D02*
X014228Y005145D01*
X014171Y005259D01*
X014171Y005315D01*
X014228Y005372D01*
X014341Y005372D01*
X014398Y005315D01*
X014398Y005202D01*
X014341Y005145D01*
X014058Y005145D02*
X014058Y005372D01*
X013614Y005004D02*
X013558Y004947D01*
X013558Y004833D01*
X013614Y004777D01*
X013841Y004777D01*
X013398Y004777D02*
X013058Y004777D01*
X013171Y005145D02*
X013058Y005259D01*
X013114Y004021D02*
X013058Y003965D01*
X016058Y003596D02*
X016058Y003483D01*
X016114Y003426D01*
X016341Y003426D01*
X016398Y003483D01*
X016398Y003596D01*
X016341Y003653D01*
X016228Y003653D01*
X016228Y003540D01*
X016114Y003653D02*
X016058Y003596D01*
X016058Y003285D02*
X016058Y003058D01*
X016058Y003171D02*
X016398Y003171D01*
X005372Y011115D02*
X005372Y011342D01*
X005315Y011398D01*
X005202Y011398D01*
X005145Y011342D01*
X005145Y011285D01*
X005202Y011228D01*
X005372Y011228D01*
X005372Y011115D02*
X005315Y011058D01*
X005202Y011058D01*
X005145Y011115D01*
X005004Y011115D02*
X004947Y011058D01*
X004833Y011058D01*
X004777Y011115D01*
X005004Y011342D01*
X005004Y011115D01*
X005004Y011342D02*
X004947Y011398D01*
X004833Y011398D01*
X004777Y011342D01*
X004777Y011115D01*
X004635Y011115D02*
X004579Y011058D01*
X004465Y011058D01*
X004408Y011115D01*
X004408Y011342D01*
X004465Y011398D01*
X004579Y011398D01*
X004635Y011342D01*
X004635Y011115D01*
X004276Y011058D02*
X004163Y011058D01*
X004220Y011058D02*
X004220Y011398D01*
X004276Y011398D02*
X004163Y011398D01*
X004021Y011342D02*
X004021Y011228D01*
X003965Y011171D01*
X003795Y011171D01*
X003795Y011058D02*
X003795Y011398D01*
X003965Y011398D01*
X004021Y011342D01*
X003965Y011558D02*
X004021Y011615D01*
X004021Y011842D01*
X003965Y011898D01*
X003795Y011898D01*
X003795Y011558D01*
X003965Y011558D01*
X003653Y011558D02*
X003426Y011898D01*
X003285Y011898D02*
X003058Y011898D01*
X003171Y011898D02*
X003171Y011558D01*
X003171Y011398D02*
X003171Y011058D01*
X003228Y010898D02*
X003058Y010898D01*
X003058Y010558D01*
X003228Y010558D01*
X003285Y010615D01*
X003285Y010842D01*
X003228Y010898D01*
X003426Y010842D02*
X003426Y010615D01*
X003483Y010558D01*
X003596Y010558D01*
X003653Y010615D01*
X003795Y010558D02*
X003965Y010558D01*
X004021Y010615D01*
X004021Y010842D01*
X003965Y010898D01*
X003795Y010898D01*
X003795Y010558D01*
X003899Y010398D02*
X003899Y010058D01*
X004040Y010115D02*
X004040Y010342D01*
X004097Y010398D01*
X004210Y010398D01*
X004267Y010342D01*
X004408Y010398D02*
X004408Y010058D01*
X004635Y010058D01*
X004777Y010058D02*
X004777Y010398D01*
X004833Y010228D02*
X005004Y010058D01*
X004777Y010171D02*
X005004Y010398D01*
X004456Y009898D02*
X004342Y009898D01*
X004286Y009842D01*
X004286Y009615D01*
X004342Y009558D01*
X004456Y009558D01*
X004513Y009615D01*
X004513Y009842D01*
X004456Y009898D01*
X004267Y010115D02*
X004210Y010058D01*
X004097Y010058D01*
X004040Y010115D01*
X004040Y009898D02*
X004154Y009898D01*
X004097Y009898D02*
X004097Y009558D01*
X004040Y009558D02*
X004154Y009558D01*
X004163Y009398D02*
X004390Y009398D01*
X004276Y009398D02*
X004276Y009058D01*
X004286Y008898D02*
X004513Y008558D01*
X004513Y008898D01*
X004531Y009058D02*
X004531Y009398D01*
X004701Y009398D01*
X004758Y009342D01*
X004758Y009228D01*
X004701Y009171D01*
X004531Y009171D01*
X004645Y009171D02*
X004758Y009058D01*
X004286Y008898D02*
X004286Y008558D01*
X004154Y008558D02*
X004040Y008558D01*
X004097Y008558D02*
X004097Y008898D01*
X004040Y008898D02*
X004154Y008898D01*
X004021Y009001D02*
X003795Y009001D01*
X003899Y008898D02*
X003899Y008558D01*
X003795Y008398D02*
X003795Y008058D01*
X004021Y008058D01*
X004040Y007898D02*
X004210Y007898D01*
X004267Y007842D01*
X004267Y007728D01*
X004210Y007671D01*
X004040Y007671D01*
X004040Y007558D02*
X004040Y007898D01*
X003899Y007898D02*
X003785Y007785D01*
X003672Y007898D01*
X003672Y007558D01*
X003540Y007558D02*
X003426Y007558D01*
X003483Y007558D02*
X003483Y007898D01*
X003426Y007898D02*
X003540Y007898D01*
X003653Y008058D02*
X003426Y008398D01*
X003426Y008558D02*
X003540Y008558D01*
X003483Y008558D02*
X003483Y008898D01*
X003426Y008898D02*
X003540Y008898D01*
X003672Y008898D02*
X003672Y008558D01*
X003653Y008398D02*
X003426Y008058D01*
X003285Y008058D02*
X003285Y008285D01*
X003171Y008398D01*
X003058Y008285D01*
X003058Y008058D01*
X003115Y007898D02*
X003058Y007842D01*
X003058Y007785D01*
X003115Y007728D01*
X003228Y007728D01*
X003285Y007671D01*
X003285Y007615D01*
X003228Y007558D01*
X003115Y007558D01*
X003058Y007615D01*
X003058Y007398D02*
X003228Y007398D01*
X003285Y007342D01*
X003285Y007228D01*
X003228Y007171D01*
X003058Y007171D01*
X003058Y007058D02*
X003058Y007398D01*
X003171Y007171D02*
X003285Y007058D01*
X003426Y007058D02*
X003653Y007398D01*
X003426Y007398D02*
X003653Y007058D01*
X003795Y007001D02*
X004021Y007001D01*
X003965Y006898D02*
X004021Y006842D01*
X004021Y006728D01*
X003965Y006671D01*
X003795Y006671D01*
X003795Y006558D02*
X003795Y006898D01*
X003965Y006898D01*
X003908Y006671D02*
X004021Y006558D01*
X003653Y006615D02*
X003596Y006558D01*
X003483Y006558D01*
X003426Y006615D01*
X003483Y006728D02*
X003596Y006728D01*
X003653Y006671D01*
X003653Y006615D01*
X003483Y006728D02*
X003426Y006785D01*
X003426Y006842D01*
X003483Y006898D01*
X003596Y006898D01*
X003653Y006842D01*
X003285Y006842D02*
X003285Y006615D01*
X003228Y006558D01*
X003058Y006558D01*
X003058Y006898D01*
X003228Y006898D01*
X003285Y006842D01*
X003899Y007558D02*
X003899Y007898D01*
X003908Y008228D02*
X003795Y008228D01*
X003795Y008398D02*
X004021Y008398D01*
X003785Y008785D02*
X003672Y008898D01*
X003785Y008785D02*
X003899Y008898D01*
X003653Y009058D02*
X003426Y009398D01*
X003285Y009398D02*
X003058Y009398D01*
X003171Y009398D02*
X003171Y009058D01*
X003115Y008898D02*
X003058Y008842D01*
X003058Y008785D01*
X003115Y008728D01*
X003228Y008728D01*
X003285Y008671D01*
X003285Y008615D01*
X003228Y008558D01*
X003115Y008558D01*
X003058Y008615D01*
X003115Y008898D02*
X003228Y008898D01*
X003285Y008842D01*
X003426Y009058D02*
X003653Y009398D01*
X003672Y009558D02*
X003672Y009898D01*
X003785Y009785D01*
X003899Y009898D01*
X003899Y009558D01*
X003540Y009558D02*
X003426Y009558D01*
X003483Y009558D02*
X003483Y009898D01*
X003426Y009898D02*
X003540Y009898D01*
X003540Y010058D02*
X003426Y010058D01*
X003483Y010058D02*
X003483Y010398D01*
X003426Y010398D02*
X003540Y010398D01*
X003672Y010398D02*
X003785Y010285D01*
X003899Y010398D01*
X003672Y010398D02*
X003672Y010058D01*
X003285Y010115D02*
X003228Y010058D01*
X003115Y010058D01*
X003058Y010115D01*
X003115Y010228D02*
X003228Y010228D01*
X003285Y010171D01*
X003285Y010115D01*
X003115Y010228D02*
X003058Y010285D01*
X003058Y010342D01*
X003115Y010398D01*
X003228Y010398D01*
X003285Y010342D01*
X003228Y009898D02*
X003115Y009898D01*
X003058Y009842D01*
X003058Y009785D01*
X003115Y009728D01*
X003228Y009728D01*
X003285Y009671D01*
X003285Y009615D01*
X003228Y009558D01*
X003115Y009558D01*
X003058Y009615D01*
X003285Y009842D02*
X003228Y009898D01*
X003426Y010842D02*
X003483Y010898D01*
X003596Y010898D01*
X003653Y010842D01*
X003596Y011058D02*
X003483Y011058D01*
X003426Y011115D01*
X003426Y011342D01*
X003483Y011398D01*
X003596Y011398D01*
X003653Y011342D01*
X003653Y011228D02*
X003540Y011228D01*
X003653Y011228D02*
X003653Y011115D01*
X003596Y011058D01*
X003285Y011398D02*
X003058Y011398D01*
X003426Y011558D02*
X003653Y011898D01*
X003540Y012058D02*
X003540Y012398D01*
X003653Y012398D02*
X003426Y012398D01*
X003285Y012342D02*
X003228Y012398D01*
X003115Y012398D01*
X003058Y012342D01*
X003058Y012285D01*
X003115Y012228D01*
X003228Y012228D01*
X003285Y012171D01*
X003285Y012115D01*
X003228Y012058D01*
X003115Y012058D01*
X003058Y012115D01*
X003058Y012558D02*
X003228Y012558D01*
X003285Y012615D01*
X003285Y012842D01*
X003228Y012898D01*
X003058Y012898D01*
X003058Y012558D01*
X003426Y012558D02*
X003426Y012785D01*
X003540Y012898D01*
X003653Y012785D01*
X003653Y012558D01*
X003795Y012615D02*
X003795Y012842D01*
X003851Y012898D01*
X003965Y012898D01*
X004021Y012842D01*
X003965Y013058D02*
X003851Y013058D01*
X003795Y013115D01*
X004021Y013342D01*
X004021Y013115D01*
X003965Y013058D01*
X003795Y013115D02*
X003795Y013342D01*
X003851Y013398D01*
X003965Y013398D01*
X004021Y013342D01*
X004163Y013342D02*
X004163Y013285D01*
X004220Y013228D01*
X004333Y013228D01*
X004390Y013171D01*
X004390Y013115D01*
X004333Y013058D01*
X004220Y013058D01*
X004163Y013115D01*
X004163Y013171D01*
X004220Y013228D01*
X004333Y013228D02*
X004390Y013285D01*
X004390Y013342D01*
X004333Y013398D01*
X004220Y013398D01*
X004163Y013342D01*
X004220Y013558D02*
X004163Y013615D01*
X004220Y013558D02*
X004333Y013558D01*
X004390Y013615D01*
X004390Y013728D01*
X004333Y013785D01*
X004276Y013785D01*
X004163Y013728D01*
X004163Y013898D01*
X004390Y013898D01*
X004390Y014058D02*
X004163Y014058D01*
X004390Y014285D01*
X004390Y014342D01*
X004333Y014398D01*
X004220Y014398D01*
X004163Y014342D01*
X004163Y014558D02*
X004276Y014558D01*
X004220Y014558D02*
X004220Y014898D01*
X004276Y014898D02*
X004163Y014898D01*
X004021Y014842D02*
X004021Y014728D01*
X003965Y014671D01*
X003795Y014671D01*
X003795Y014558D02*
X003795Y014898D01*
X003965Y014898D01*
X004021Y014842D01*
X004163Y015058D02*
X004276Y015058D01*
X004220Y015058D02*
X004220Y015398D01*
X004276Y015398D02*
X004163Y015398D01*
X004021Y015342D02*
X004021Y015228D01*
X003965Y015171D01*
X003795Y015171D01*
X003795Y015058D02*
X003795Y015398D01*
X003965Y015398D01*
X004021Y015342D01*
X004163Y015558D02*
X004276Y015558D01*
X004220Y015558D02*
X004220Y015898D01*
X004276Y015898D02*
X004163Y015898D01*
X004021Y015842D02*
X004021Y015728D01*
X003965Y015671D01*
X003795Y015671D01*
X003795Y015558D02*
X003795Y015898D01*
X003965Y015898D01*
X004021Y015842D01*
X003965Y016058D02*
X004021Y016115D01*
X004021Y016398D01*
X004163Y016398D02*
X004390Y016058D01*
X004531Y016058D02*
X004758Y016058D01*
X004645Y016058D02*
X004645Y016398D01*
X004531Y016285D01*
X004390Y016398D02*
X004163Y016058D01*
X003965Y016058D02*
X003851Y016058D01*
X003795Y016115D01*
X003795Y016398D01*
X003653Y016285D02*
X003653Y016058D01*
X003596Y015898D02*
X003483Y015898D01*
X003426Y015842D01*
X003426Y015615D01*
X003483Y015558D01*
X003596Y015558D01*
X003653Y015615D01*
X003653Y015728D01*
X003540Y015728D01*
X003653Y015842D02*
X003596Y015898D01*
X003426Y016058D02*
X003426Y016285D01*
X003540Y016398D01*
X003653Y016285D01*
X003653Y016228D02*
X003426Y016228D01*
X003285Y016171D02*
X003171Y016058D01*
X003058Y016171D01*
X003058Y016398D01*
X003285Y016398D02*
X003285Y016171D01*
X003285Y015898D02*
X003058Y015898D01*
X003171Y015898D02*
X003171Y015558D01*
X003171Y015398D02*
X003171Y015058D01*
X003171Y014898D02*
X003171Y014558D01*
X003228Y014398D02*
X003058Y014398D01*
X003058Y014058D01*
X003228Y014058D01*
X003285Y014115D01*
X003285Y014342D01*
X003228Y014398D01*
X003426Y014398D02*
X003426Y014171D01*
X003540Y014058D01*
X003653Y014171D01*
X003653Y014398D01*
X003596Y014558D02*
X003483Y014558D01*
X003426Y014615D01*
X003426Y014842D01*
X003483Y014898D01*
X003596Y014898D01*
X003653Y014842D01*
X003653Y014728D02*
X003540Y014728D01*
X003653Y014728D02*
X003653Y014615D01*
X003596Y014558D01*
X003795Y014285D02*
X003908Y014398D01*
X003908Y014058D01*
X003795Y014058D02*
X004021Y014058D01*
X003965Y013898D02*
X004021Y013842D01*
X004021Y013785D01*
X003795Y013558D01*
X004021Y013558D01*
X003795Y013842D02*
X003851Y013898D01*
X003965Y013898D01*
X003540Y013898D02*
X003540Y013558D01*
X003653Y013558D02*
X003426Y013558D01*
X003285Y013615D02*
X003228Y013558D01*
X003115Y013558D01*
X003058Y013615D01*
X003058Y013842D01*
X003115Y013898D01*
X003228Y013898D01*
X003285Y013842D01*
X003426Y013785D02*
X003540Y013898D01*
X003540Y013398D02*
X003540Y013058D01*
X003653Y013058D02*
X003426Y013058D01*
X003285Y013115D02*
X003228Y013058D01*
X003115Y013058D01*
X003058Y013115D01*
X003058Y013342D01*
X003115Y013398D01*
X003228Y013398D01*
X003285Y013342D01*
X003426Y013285D02*
X003540Y013398D01*
X003426Y012728D02*
X003653Y012728D01*
X003795Y012615D02*
X003851Y012558D01*
X003965Y012558D01*
X004021Y012615D01*
X004163Y012501D02*
X004390Y012501D01*
X004390Y012398D02*
X004163Y012398D01*
X004276Y012398D02*
X004276Y012058D01*
X004021Y012058D02*
X004021Y012285D01*
X003908Y012398D01*
X003795Y012285D01*
X003795Y012058D01*
X003795Y012228D02*
X004021Y012228D01*
X004531Y012615D02*
X004588Y012558D01*
X004701Y012558D01*
X004758Y012615D01*
X004758Y012842D01*
X004701Y012898D01*
X004588Y012898D01*
X004531Y012842D01*
X004531Y012615D01*
X004900Y012615D02*
X004956Y012558D01*
X005070Y012558D01*
X005126Y012615D01*
X005126Y012898D01*
X005268Y012898D02*
X005495Y012898D01*
X005381Y012898D02*
X005381Y012558D01*
X004900Y012615D02*
X004900Y012898D01*
X004900Y014058D02*
X005126Y014058D01*
X005268Y014058D02*
X005268Y014398D01*
X005315Y014558D02*
X005372Y014615D01*
X005372Y014671D01*
X005315Y014728D01*
X005145Y014728D01*
X005145Y014615D01*
X005202Y014558D01*
X005315Y014558D01*
X005495Y014398D02*
X005268Y014171D01*
X005325Y014228D02*
X005495Y014058D01*
X004900Y014058D02*
X004900Y014398D01*
X004758Y014342D02*
X004701Y014398D01*
X004588Y014398D01*
X004531Y014342D01*
X004531Y014115D01*
X004588Y014058D01*
X004701Y014058D01*
X004758Y014115D01*
X004833Y014558D02*
X004777Y014615D01*
X005004Y014842D01*
X005004Y014615D01*
X004947Y014558D01*
X004833Y014558D01*
X004777Y014615D02*
X004777Y014842D01*
X004833Y014898D01*
X004947Y014898D01*
X005004Y014842D01*
X005145Y014728D02*
X005259Y014842D01*
X005372Y014898D01*
X005372Y015058D02*
X005145Y015058D01*
X005372Y015285D01*
X005372Y015342D01*
X005315Y015398D01*
X005202Y015398D01*
X005145Y015342D01*
X005004Y015342D02*
X005004Y015115D01*
X004947Y015058D01*
X004833Y015058D01*
X004777Y015115D01*
X005004Y015342D01*
X004947Y015398D01*
X004833Y015398D01*
X004777Y015342D01*
X004777Y015115D01*
X004635Y015115D02*
X004635Y015342D01*
X004579Y015398D01*
X004465Y015398D01*
X004408Y015342D01*
X004408Y015115D01*
X004465Y015058D01*
X004579Y015058D01*
X004635Y015115D01*
X004579Y014898D02*
X004635Y014842D01*
X004635Y014615D01*
X004579Y014558D01*
X004465Y014558D01*
X004408Y014615D01*
X004408Y014842D01*
X004465Y014898D01*
X004579Y014898D01*
X004579Y015558D02*
X004635Y015615D01*
X004635Y015842D01*
X004579Y015898D01*
X004465Y015898D01*
X004408Y015842D01*
X004408Y015615D01*
X004465Y015558D01*
X004579Y015558D01*
X004777Y015558D02*
X005004Y015558D01*
X004890Y015558D02*
X004890Y015898D01*
X004777Y015785D01*
X005145Y015728D02*
X005372Y015728D01*
X005315Y015558D02*
X005315Y015898D01*
X005145Y015728D01*
X003653Y015342D02*
X003596Y015398D01*
X003483Y015398D01*
X003426Y015342D01*
X003426Y015115D01*
X003483Y015058D01*
X003596Y015058D01*
X003653Y015115D01*
X003653Y015228D01*
X003540Y015228D01*
X003285Y015398D02*
X003058Y015398D01*
X003058Y014898D02*
X003285Y014898D01*
X006658Y017603D02*
X006658Y017829D01*
X006658Y017716D02*
X006998Y017716D01*
X006941Y017971D02*
X006714Y017971D01*
X006658Y018028D01*
X006658Y018141D01*
X006714Y018198D01*
X006828Y018198D02*
X006828Y018084D01*
X006828Y018198D02*
X006941Y018198D01*
X006998Y018141D01*
X006998Y018028D01*
X006941Y017971D01*
X007158Y018216D02*
X007158Y018387D01*
X007214Y018443D01*
X007328Y018443D01*
X007385Y018387D01*
X007385Y018216D01*
X007498Y018216D02*
X007158Y018216D01*
X006998Y018339D02*
X006658Y018339D01*
X006658Y018509D01*
X006714Y018566D01*
X006828Y018566D01*
X006885Y018509D01*
X006885Y018339D01*
X007158Y018585D02*
X007158Y018812D01*
X007214Y018953D02*
X007271Y018953D01*
X007328Y019010D01*
X007328Y019123D01*
X007385Y019180D01*
X007441Y019180D01*
X007498Y019123D01*
X007498Y019010D01*
X007441Y018953D01*
X007498Y018812D02*
X007498Y018585D01*
X007158Y018585D01*
X007328Y018585D02*
X007328Y018698D01*
X007498Y018443D02*
X007385Y018330D01*
X007658Y018339D02*
X007658Y018509D01*
X007714Y018566D01*
X007828Y018566D01*
X007885Y018509D01*
X007885Y018339D01*
X007998Y018339D02*
X007658Y018339D01*
X007714Y018198D02*
X007658Y018141D01*
X007658Y018028D01*
X007714Y017971D01*
X007941Y017971D01*
X007998Y018028D01*
X007998Y018141D01*
X007941Y018198D01*
X007828Y018198D01*
X007828Y018084D01*
X007658Y017829D02*
X007658Y017603D01*
X007658Y017716D02*
X007998Y017716D01*
X008158Y017716D02*
X008498Y017716D01*
X008658Y017716D02*
X008998Y017716D01*
X009158Y017716D02*
X009498Y017716D01*
X009441Y017971D02*
X009214Y017971D01*
X009158Y018028D01*
X009158Y018141D01*
X009214Y018198D01*
X009328Y018198D02*
X009328Y018084D01*
X009328Y018198D02*
X009441Y018198D01*
X009498Y018141D01*
X009498Y018028D01*
X009441Y017971D01*
X009658Y018028D02*
X009714Y017971D01*
X009771Y017971D01*
X009828Y018028D01*
X009828Y018141D01*
X009885Y018198D01*
X009941Y018198D01*
X009998Y018141D01*
X009998Y018028D01*
X009941Y017971D01*
X010158Y018028D02*
X010214Y017971D01*
X010441Y017971D01*
X010498Y018028D01*
X010498Y018141D01*
X010441Y018198D01*
X010328Y018198D01*
X010328Y018084D01*
X010214Y018198D02*
X010158Y018141D01*
X010158Y018028D01*
X010158Y017829D02*
X010158Y017603D01*
X010158Y017716D02*
X010498Y017716D01*
X010658Y017716D02*
X010998Y017716D01*
X010941Y017971D02*
X010714Y017971D01*
X010658Y018028D01*
X010658Y018141D01*
X010714Y018198D01*
X010828Y018198D02*
X010828Y018084D01*
X010828Y018198D02*
X010941Y018198D01*
X010998Y018141D01*
X010998Y018028D01*
X010941Y017971D01*
X010658Y017829D02*
X010658Y017603D01*
X010658Y018339D02*
X010658Y018509D01*
X010714Y018566D01*
X010828Y018566D01*
X010885Y018509D01*
X010885Y018339D01*
X010998Y018339D02*
X010658Y018339D01*
X010498Y018339D02*
X010158Y018339D01*
X010158Y018509D01*
X010214Y018566D01*
X010328Y018566D01*
X010385Y018509D01*
X010385Y018339D01*
X010498Y018708D02*
X010498Y018821D01*
X010498Y018764D02*
X010158Y018764D01*
X010158Y018708D02*
X010158Y018821D01*
X010214Y018953D02*
X010441Y018953D01*
X010498Y019010D01*
X010498Y019123D01*
X010441Y019180D01*
X010214Y019180D01*
X010158Y019123D01*
X010158Y019010D01*
X010214Y018953D01*
X009998Y019066D02*
X009885Y019180D01*
X009658Y019180D01*
X009714Y019321D02*
X009941Y019321D01*
X009998Y019378D01*
X009998Y019491D01*
X009941Y019548D01*
X009941Y019690D02*
X009714Y019690D01*
X009658Y019746D01*
X009658Y019860D01*
X009714Y019917D01*
X009498Y019860D02*
X009498Y019746D01*
X009441Y019690D01*
X009441Y019548D02*
X009214Y019548D01*
X009441Y019321D01*
X009498Y019378D01*
X009498Y019491D01*
X009441Y019548D01*
X009658Y019491D02*
X009658Y019378D01*
X009714Y019321D01*
X009658Y019491D02*
X009714Y019548D01*
X009941Y019690D02*
X009998Y019746D01*
X009998Y019860D01*
X009941Y019917D01*
X010158Y019803D02*
X010498Y019803D01*
X010498Y019690D02*
X010498Y019917D01*
X010658Y019860D02*
X010658Y019746D01*
X010714Y019690D01*
X010714Y019548D02*
X010658Y019491D01*
X010658Y019378D01*
X010714Y019321D01*
X010714Y019180D02*
X010658Y019123D01*
X010658Y019010D01*
X010714Y018953D01*
X010941Y018953D01*
X010998Y019010D01*
X010998Y019123D01*
X010941Y019180D01*
X010714Y019180D01*
X010498Y019321D02*
X010498Y019548D01*
X010498Y019435D02*
X010158Y019435D01*
X010271Y019321D01*
X010271Y019690D02*
X010158Y019803D01*
X010658Y019860D02*
X010714Y019917D01*
X010771Y019917D01*
X010998Y019690D01*
X010998Y019917D01*
X011158Y019860D02*
X011158Y019746D01*
X011214Y019690D01*
X011441Y019690D01*
X011498Y019746D01*
X011498Y019860D01*
X011441Y019917D01*
X011658Y019860D02*
X011658Y019746D01*
X011714Y019690D01*
X011771Y019690D01*
X011828Y019746D01*
X011828Y019860D01*
X011885Y019917D01*
X011941Y019917D01*
X011998Y019860D01*
X011998Y019746D01*
X011941Y019690D01*
X012158Y019690D02*
X012158Y019917D01*
X012271Y019860D02*
X012271Y019803D01*
X012328Y019690D01*
X012158Y019690D01*
X012271Y019860D02*
X012328Y019917D01*
X012441Y019917D01*
X012498Y019860D01*
X012498Y019746D01*
X012441Y019690D01*
X012498Y019548D02*
X012498Y019321D01*
X012498Y019435D02*
X012158Y019435D01*
X012271Y019321D01*
X012214Y019180D02*
X012441Y019180D01*
X012498Y019123D01*
X012498Y019010D01*
X012441Y018953D01*
X012214Y018953D01*
X012158Y019010D01*
X012158Y019123D01*
X012214Y019180D01*
X011998Y019123D02*
X011941Y019180D01*
X011998Y019123D02*
X011998Y019010D01*
X011941Y018953D01*
X011714Y018953D01*
X011658Y019010D01*
X011658Y019123D01*
X011714Y019180D01*
X011658Y019321D02*
X011658Y019548D01*
X011658Y019435D02*
X011998Y019435D01*
X011498Y019435D02*
X011158Y019435D01*
X011158Y019548D02*
X011158Y019321D01*
X011214Y019180D02*
X011328Y019180D01*
X011385Y019123D01*
X011385Y018953D01*
X011498Y018953D02*
X011158Y018953D01*
X011158Y019123D01*
X011214Y019180D01*
X011385Y019067D02*
X011498Y019180D01*
X011385Y018812D02*
X011158Y018812D01*
X010998Y018821D02*
X010998Y018708D01*
X010998Y018764D02*
X010658Y018764D01*
X010658Y018708D02*
X010658Y018821D01*
X010998Y019321D02*
X010771Y019548D01*
X010714Y019548D01*
X010998Y019548D02*
X010998Y019321D01*
X011385Y018812D02*
X011498Y018698D01*
X011385Y018585D01*
X011158Y018585D01*
X012158Y018509D02*
X012158Y018339D01*
X012498Y018339D01*
X012385Y018339D02*
X012385Y018509D01*
X012328Y018566D01*
X012214Y018566D01*
X012158Y018509D01*
X012158Y018708D02*
X012158Y018821D01*
X012158Y018764D02*
X012498Y018764D01*
X012498Y018708D02*
X012498Y018821D01*
X012658Y018821D02*
X012658Y018708D01*
X012658Y018764D02*
X012998Y018764D01*
X012998Y018708D02*
X012998Y018821D01*
X012941Y018953D02*
X012714Y018953D01*
X012658Y019010D01*
X012658Y019123D01*
X012714Y019180D01*
X012941Y019180D01*
X012998Y019123D01*
X012998Y019010D01*
X012941Y018953D01*
X013158Y019010D02*
X013214Y018953D01*
X013441Y018953D01*
X013498Y019010D01*
X013498Y019123D01*
X013441Y019180D01*
X013214Y019180D01*
X013158Y019123D01*
X013158Y019010D01*
X013158Y018821D02*
X013158Y018708D01*
X013158Y018764D02*
X013498Y018764D01*
X013498Y018708D02*
X013498Y018821D01*
X013658Y018821D02*
X013658Y018708D01*
X013658Y018764D02*
X013998Y018764D01*
X013998Y018708D02*
X013998Y018821D01*
X013941Y018953D02*
X013714Y018953D01*
X013658Y019010D01*
X013658Y019123D01*
X013714Y019180D01*
X013941Y019180D01*
X013998Y019123D01*
X013998Y019010D01*
X013941Y018953D01*
X014158Y018953D02*
X014158Y019123D01*
X014214Y019180D01*
X014328Y019180D01*
X014385Y019123D01*
X014385Y018953D01*
X014498Y018953D02*
X014158Y018953D01*
X014271Y018812D02*
X014498Y018812D01*
X014658Y018821D02*
X014658Y018708D01*
X014658Y018764D02*
X014998Y018764D01*
X014998Y018708D02*
X014998Y018821D01*
X014941Y018953D02*
X014714Y018953D01*
X014658Y019010D01*
X014658Y019123D01*
X014714Y019180D01*
X014941Y019180D01*
X014998Y019123D01*
X014998Y019010D01*
X014941Y018953D01*
X015158Y019010D02*
X015214Y018953D01*
X015441Y018953D01*
X015498Y019010D01*
X015498Y019123D01*
X015441Y019180D01*
X015328Y019180D01*
X015328Y019067D01*
X015214Y019180D02*
X015158Y019123D01*
X015158Y019010D01*
X015158Y019321D02*
X015498Y019548D01*
X015158Y019548D01*
X015158Y019690D02*
X015158Y019860D01*
X015214Y019917D01*
X015441Y019917D01*
X015498Y019860D01*
X015498Y019690D01*
X015158Y019690D01*
X014998Y019746D02*
X014998Y019860D01*
X014941Y019917D01*
X014714Y019917D01*
X014941Y019690D01*
X014998Y019746D01*
X014941Y019690D02*
X014714Y019690D01*
X014658Y019746D01*
X014658Y019860D01*
X014714Y019917D01*
X014498Y019917D02*
X014498Y019690D01*
X014158Y019690D01*
X014158Y019917D01*
X014328Y019803D02*
X014328Y019690D01*
X014328Y019548D02*
X014328Y019435D01*
X014328Y019548D02*
X014441Y019548D01*
X014498Y019491D01*
X014498Y019378D01*
X014441Y019321D01*
X014214Y019321D01*
X014158Y019378D01*
X014158Y019491D01*
X014214Y019548D01*
X013998Y019548D02*
X013998Y019321D01*
X013998Y019435D02*
X013658Y019435D01*
X013771Y019321D01*
X013498Y019321D02*
X013498Y019548D01*
X013498Y019435D02*
X013158Y019435D01*
X013271Y019321D01*
X012998Y019321D02*
X012998Y019548D01*
X012998Y019435D02*
X012658Y019435D01*
X012771Y019321D01*
X012828Y019690D02*
X012828Y019860D01*
X012885Y019917D01*
X012941Y019917D01*
X012998Y019860D01*
X012998Y019746D01*
X012941Y019690D01*
X012828Y019690D01*
X012714Y019803D01*
X012658Y019917D01*
X013158Y019860D02*
X013158Y019746D01*
X013214Y019690D01*
X013158Y019860D02*
X013214Y019917D01*
X013271Y019917D01*
X013498Y019690D01*
X013498Y019917D01*
X013658Y019917D02*
X013658Y019690D01*
X013658Y019917D02*
X013714Y019917D01*
X013941Y019690D01*
X013998Y019690D01*
X014658Y019435D02*
X014998Y019435D01*
X014998Y019548D02*
X014998Y019321D01*
X015158Y019321D02*
X015498Y019321D01*
X015658Y019321D02*
X015658Y019548D01*
X015658Y019690D02*
X015658Y019917D01*
X015828Y019803D02*
X015828Y019690D01*
X015998Y019690D02*
X015658Y019690D01*
X015828Y019435D02*
X015828Y019321D01*
X015998Y019321D02*
X015658Y019321D01*
X015714Y019180D02*
X015658Y019123D01*
X015658Y019010D01*
X015714Y018953D01*
X015941Y018953D01*
X015998Y019010D01*
X015998Y019123D01*
X015941Y019180D01*
X015714Y019180D01*
X015658Y018812D02*
X015998Y018585D01*
X015998Y018443D02*
X015658Y018443D01*
X015658Y018216D02*
X015998Y018443D01*
X016158Y018443D02*
X016385Y018443D01*
X016498Y018330D01*
X016385Y018216D01*
X016158Y018216D01*
X015998Y018216D02*
X015658Y018216D01*
X015714Y018075D02*
X015658Y018018D01*
X015658Y017905D01*
X015714Y017848D01*
X015941Y017848D01*
X015998Y017905D01*
X015998Y018018D01*
X015941Y018075D01*
X015714Y018075D01*
X016158Y018585D02*
X016158Y018755D01*
X016214Y018812D01*
X016271Y018812D01*
X016328Y018755D01*
X016328Y018585D01*
X016328Y018755D02*
X016385Y018812D01*
X016441Y018812D01*
X016498Y018755D01*
X016498Y018585D01*
X016158Y018585D01*
X016271Y018953D02*
X016158Y019067D01*
X016271Y019180D01*
X016498Y019180D01*
X016328Y019180D02*
X016328Y018953D01*
X016271Y018953D02*
X016498Y018953D01*
X016498Y019435D02*
X016158Y019435D01*
X016158Y019548D02*
X016158Y019321D01*
X016158Y019690D02*
X016158Y019917D01*
X016158Y019803D02*
X016498Y019803D01*
X014998Y018339D02*
X014658Y018339D01*
X014658Y018509D01*
X014714Y018566D01*
X014828Y018566D01*
X014885Y018509D01*
X014885Y018339D01*
X014941Y018198D02*
X014828Y018198D01*
X014828Y018084D01*
X014941Y017971D02*
X014714Y017971D01*
X014658Y018028D01*
X014658Y018141D01*
X014714Y018198D01*
X014498Y018216D02*
X014158Y018216D01*
X014214Y018075D02*
X014158Y018018D01*
X014158Y017905D01*
X014214Y017848D01*
X014441Y017848D01*
X014498Y017905D01*
X014498Y018018D01*
X014441Y018075D01*
X014328Y018216D02*
X014328Y018443D01*
X014328Y018585D02*
X014328Y018812D01*
X014271Y018812D02*
X014158Y018698D01*
X014271Y018585D01*
X014498Y018585D01*
X014498Y018443D02*
X014158Y018443D01*
X013998Y018339D02*
X013658Y018339D01*
X013658Y018509D01*
X013714Y018566D01*
X013828Y018566D01*
X013885Y018509D01*
X013885Y018339D01*
X013941Y018198D02*
X013828Y018198D01*
X013828Y018084D01*
X013941Y017971D02*
X013998Y018028D01*
X013998Y018141D01*
X013941Y018198D01*
X013714Y018198D02*
X013658Y018141D01*
X013658Y018028D01*
X013714Y017971D01*
X013941Y017971D01*
X013998Y017716D02*
X013658Y017716D01*
X013658Y017603D02*
X013658Y017829D01*
X013498Y017716D02*
X013158Y017716D01*
X013158Y017603D02*
X013158Y017829D01*
X013214Y017971D02*
X013441Y017971D01*
X013498Y018028D01*
X013498Y018141D01*
X013441Y018198D01*
X013328Y018198D01*
X013328Y018084D01*
X013214Y017971D02*
X013158Y018028D01*
X013158Y018141D01*
X013214Y018198D01*
X013158Y018339D02*
X013158Y018509D01*
X013214Y018566D01*
X013328Y018566D01*
X013385Y018509D01*
X013385Y018339D01*
X013498Y018339D02*
X013158Y018339D01*
X012998Y018339D02*
X012658Y018339D01*
X012658Y018509D01*
X012714Y018566D01*
X012828Y018566D01*
X012885Y018509D01*
X012885Y018339D01*
X012941Y018198D02*
X012828Y018198D01*
X012828Y018084D01*
X012941Y017971D02*
X012714Y017971D01*
X012658Y018028D01*
X012658Y018141D01*
X012714Y018198D01*
X012498Y018141D02*
X012441Y018198D01*
X012328Y018198D01*
X012328Y018084D01*
X012441Y017971D02*
X012214Y017971D01*
X012158Y018028D01*
X012158Y018141D01*
X012214Y018198D01*
X012441Y017971D02*
X012498Y018028D01*
X012498Y018141D01*
X012658Y017829D02*
X012658Y017603D01*
X012658Y017716D02*
X012998Y017716D01*
X012941Y017971D02*
X012998Y018028D01*
X012998Y018141D01*
X012941Y018198D01*
X012498Y017716D02*
X012158Y017716D01*
X012158Y017603D02*
X012158Y017829D01*
X011658Y019860D02*
X011714Y019917D01*
X011214Y019917D02*
X011158Y019860D01*
X009998Y019066D02*
X009885Y018953D01*
X009658Y018953D01*
X009658Y018812D02*
X009998Y018812D01*
X009998Y018585D02*
X009658Y018585D01*
X009771Y018698D01*
X009658Y018812D01*
X009498Y018821D02*
X009498Y018708D01*
X009498Y018764D02*
X009158Y018764D01*
X009158Y018708D02*
X009158Y018821D01*
X009214Y018953D02*
X009441Y018953D01*
X009498Y019010D01*
X009498Y019123D01*
X009441Y019180D01*
X009214Y019180D01*
X009158Y019123D01*
X009158Y019010D01*
X009214Y018953D01*
X008998Y019010D02*
X008998Y019123D01*
X008941Y019180D01*
X008714Y019180D01*
X008658Y019123D01*
X008658Y019010D01*
X008714Y018953D01*
X008941Y018953D01*
X008998Y019010D01*
X008998Y018821D02*
X008998Y018708D01*
X008998Y018764D02*
X008658Y018764D01*
X008658Y018708D02*
X008658Y018821D01*
X008498Y018821D02*
X008498Y018708D01*
X008498Y018764D02*
X008158Y018764D01*
X008158Y018708D02*
X008158Y018821D01*
X008214Y018953D02*
X008441Y018953D01*
X008498Y019010D01*
X008498Y019123D01*
X008441Y019180D01*
X008214Y019180D01*
X008158Y019123D01*
X008158Y019010D01*
X008214Y018953D01*
X007998Y019010D02*
X007998Y019123D01*
X007941Y019180D01*
X007714Y019180D01*
X007658Y019123D01*
X007658Y019010D01*
X007714Y018953D01*
X007941Y018953D01*
X007998Y019010D01*
X007998Y018821D02*
X007998Y018708D01*
X007998Y018764D02*
X007658Y018764D01*
X007658Y018708D02*
X007658Y018821D01*
X007214Y018953D02*
X007158Y019010D01*
X007158Y019123D01*
X007214Y019180D01*
X007158Y019321D02*
X007498Y019321D01*
X007498Y019548D01*
X007658Y019435D02*
X007771Y019321D01*
X007658Y019435D02*
X007998Y019435D01*
X007998Y019548D02*
X007998Y019321D01*
X008158Y019378D02*
X008158Y019491D01*
X008214Y019548D01*
X008271Y019548D01*
X008498Y019321D01*
X008498Y019548D01*
X008441Y019690D02*
X008214Y019917D01*
X008441Y019917D01*
X008498Y019860D01*
X008498Y019746D01*
X008441Y019690D01*
X008214Y019690D01*
X008158Y019746D01*
X008158Y019860D01*
X008214Y019917D01*
X007998Y019860D02*
X007998Y019746D01*
X007941Y019690D01*
X007828Y019746D02*
X007828Y019917D01*
X007941Y019917D02*
X007714Y019917D01*
X007658Y019860D01*
X007658Y019746D01*
X007714Y019690D01*
X007771Y019690D01*
X007828Y019746D01*
X007998Y019860D02*
X007941Y019917D01*
X007498Y019803D02*
X007158Y019803D01*
X007158Y019690D02*
X007158Y019917D01*
X006998Y019860D02*
X006658Y019860D01*
X006828Y019690D01*
X006828Y019917D01*
X006941Y019548D02*
X006714Y019548D01*
X006941Y019321D01*
X006998Y019378D01*
X006998Y019491D01*
X006941Y019548D01*
X007158Y019548D02*
X007158Y019321D01*
X007328Y019321D02*
X007328Y019435D01*
X006941Y019321D02*
X006714Y019321D01*
X006658Y019378D01*
X006658Y019491D01*
X006714Y019548D01*
X006714Y019180D02*
X006658Y019123D01*
X006658Y019010D01*
X006714Y018953D01*
X006941Y018953D01*
X006998Y019010D01*
X006998Y019123D01*
X006941Y019180D01*
X006714Y019180D01*
X006658Y018821D02*
X006658Y018708D01*
X006658Y018764D02*
X006998Y018764D01*
X006998Y018708D02*
X006998Y018821D01*
X008158Y018509D02*
X008158Y018339D01*
X008498Y018339D01*
X008385Y018339D02*
X008385Y018509D01*
X008328Y018566D01*
X008214Y018566D01*
X008158Y018509D01*
X008214Y018198D02*
X008158Y018141D01*
X008158Y018028D01*
X008214Y017971D01*
X008441Y017971D01*
X008498Y018028D01*
X008498Y018141D01*
X008441Y018198D01*
X008328Y018198D01*
X008328Y018084D01*
X008158Y017829D02*
X008158Y017603D01*
X008658Y017603D02*
X008658Y017829D01*
X008714Y017971D02*
X008658Y018028D01*
X008658Y018141D01*
X008714Y018198D01*
X008828Y018198D02*
X008828Y018084D01*
X008828Y018198D02*
X008941Y018198D01*
X008998Y018141D01*
X008998Y018028D01*
X008941Y017971D01*
X008714Y017971D01*
X008658Y018339D02*
X008658Y018509D01*
X008714Y018566D01*
X008828Y018566D01*
X008885Y018509D01*
X008885Y018339D01*
X008998Y018339D02*
X008658Y018339D01*
X009158Y018339D02*
X009158Y018509D01*
X009214Y018566D01*
X009328Y018566D01*
X009385Y018509D01*
X009385Y018339D01*
X009498Y018339D02*
X009158Y018339D01*
X009658Y018339D02*
X009658Y018453D01*
X009658Y018396D02*
X009998Y018396D01*
X009998Y018339D02*
X009998Y018453D01*
X009714Y018198D02*
X009658Y018141D01*
X009658Y018028D01*
X009158Y017829D02*
X009158Y017603D01*
X009214Y019321D02*
X009158Y019378D01*
X009158Y019491D01*
X009214Y019548D01*
X009214Y019690D02*
X009158Y019746D01*
X009158Y019860D01*
X009214Y019917D01*
X009271Y019917D01*
X009328Y019860D01*
X009385Y019917D01*
X009441Y019917D01*
X009498Y019860D01*
X009328Y019860D02*
X009328Y019803D01*
X008998Y019803D02*
X008658Y019803D01*
X008771Y019690D01*
X008714Y019548D02*
X008658Y019491D01*
X008658Y019378D01*
X008714Y019321D01*
X008941Y019321D01*
X008714Y019548D01*
X008941Y019548D01*
X008998Y019491D01*
X008998Y019378D01*
X008941Y019321D01*
X009214Y019321D02*
X009441Y019321D01*
X008998Y019690D02*
X008998Y019917D01*
X008214Y019321D02*
X008158Y019378D01*
X014385Y019066D02*
X014498Y019180D01*
X014658Y019435D02*
X014771Y019321D01*
X014941Y018198D02*
X014998Y018141D01*
X014998Y018028D01*
X014941Y017971D01*
X014998Y017716D02*
X014658Y017716D01*
X014658Y017603D02*
X014658Y017829D01*
X005004Y007898D02*
X004777Y007898D01*
X004890Y007898D02*
X004890Y007558D01*
X004701Y007398D02*
X004758Y007342D01*
X004758Y007228D01*
X004701Y007171D01*
X004531Y007171D01*
X004531Y007058D02*
X004531Y007398D01*
X004701Y007398D01*
X004579Y007558D02*
X004465Y007558D01*
X004408Y007615D01*
X004465Y007728D02*
X004408Y007785D01*
X004408Y007842D01*
X004465Y007898D01*
X004579Y007898D01*
X004635Y007842D01*
X004579Y007728D02*
X004635Y007671D01*
X004635Y007615D01*
X004579Y007558D01*
X004579Y007728D02*
X004465Y007728D01*
X004267Y007558D02*
X004154Y007671D01*
X004163Y007398D02*
X004390Y007398D01*
X004276Y007398D02*
X004276Y007058D01*
X004645Y007171D02*
X004758Y007058D01*
X003285Y007842D02*
X003228Y007898D01*
X003115Y007898D01*
X003058Y008228D02*
X003285Y008228D01*
D12*
X005475Y005857D02*
X005620Y005834D01*
X005745Y005757D01*
X005829Y005636D01*
X005859Y005492D01*
X005868Y005488D02*
X006768Y005488D01*
X005468Y005858D02*
X005468Y006768D01*
X002978Y006678D02*
X002928Y006678D01*
X002828Y006778D01*
X002978Y007378D02*
X002828Y007528D01*
X001878Y007528D01*
X001728Y007378D01*
X001728Y008378D02*
X001878Y008528D01*
X002828Y008528D01*
X002978Y008378D01*
X002978Y008678D02*
X002928Y008678D01*
X002828Y008778D01*
X002978Y009378D02*
X002828Y009528D01*
X001878Y009528D01*
X001728Y009378D01*
X001728Y010378D02*
X001878Y010528D01*
X002828Y010528D01*
X002978Y010378D01*
X002978Y010678D02*
X002928Y010678D01*
X002828Y010778D01*
X002978Y011378D02*
X002828Y011528D01*
X001878Y011528D01*
X001728Y011378D01*
X001728Y012378D02*
X001878Y012528D01*
X002828Y012528D01*
X002978Y012378D01*
X002978Y012678D02*
X002928Y012678D01*
X002828Y012778D01*
X002978Y013378D02*
X002828Y013528D01*
X001878Y013528D01*
X001728Y013378D01*
X001728Y014378D02*
X001878Y014528D01*
X002828Y014528D01*
X002978Y014378D01*
X002978Y014678D02*
X002928Y014678D01*
X002828Y014778D01*
X002978Y015378D02*
X002828Y015528D01*
X001878Y015528D01*
X001728Y015378D01*
X001728Y016378D02*
X001878Y016528D01*
X002828Y016528D01*
X002978Y016378D01*
X002828Y015778D02*
X002928Y015678D01*
X002978Y015678D01*
X002828Y013778D02*
X002928Y013678D01*
X002978Y013678D01*
X002828Y011778D02*
X002928Y011678D01*
X002978Y011678D01*
X002828Y009778D02*
X002928Y009678D01*
X002978Y009678D01*
X002828Y007778D02*
X002928Y007678D01*
X002978Y007678D01*
X006678Y002978D02*
X006528Y002828D01*
X006528Y001878D01*
X006678Y001728D01*
X007528Y001878D02*
X007678Y001728D01*
X007528Y001878D02*
X007528Y002828D01*
X007678Y002978D01*
X007378Y002978D02*
X007378Y002928D01*
X007278Y002828D01*
X008278Y002828D02*
X008378Y002928D01*
X008378Y002978D01*
X008528Y002828D02*
X008528Y001878D01*
X008678Y001728D01*
X009528Y001878D02*
X009678Y001728D01*
X009528Y001878D02*
X009528Y002828D01*
X009678Y002978D01*
X009378Y002978D02*
X009378Y002928D01*
X009278Y002828D01*
X008678Y002978D02*
X008528Y002828D01*
X010278Y002828D02*
X010378Y002928D01*
X010378Y002978D01*
X010528Y002828D02*
X010528Y001878D01*
X010678Y001728D01*
X011528Y001878D02*
X011678Y001728D01*
X011528Y001878D02*
X011528Y002828D01*
X011678Y002978D01*
X011378Y002978D02*
X011378Y002928D01*
X011278Y002828D01*
X010678Y002978D02*
X010528Y002828D01*
X012278Y002828D02*
X012378Y002928D01*
X012378Y002978D01*
X012528Y002828D02*
X012528Y001878D01*
X012678Y001728D01*
X013528Y001878D02*
X013678Y001728D01*
X013528Y001878D02*
X013528Y002828D01*
X013678Y002978D01*
X013378Y002978D02*
X013378Y002928D01*
X013278Y002828D01*
X012678Y002978D02*
X012528Y002828D01*
X014278Y002828D02*
X014378Y002928D01*
X014378Y002978D01*
X014528Y002828D02*
X014528Y001878D01*
X014678Y001728D01*
X015528Y001878D02*
X015678Y001728D01*
X015528Y001878D02*
X015528Y002828D01*
X015678Y002978D01*
X015378Y002978D02*
X015378Y002928D01*
X015278Y002828D01*
X014678Y002978D02*
X014528Y002828D01*
X016278Y002828D02*
X016378Y002928D01*
X016378Y002978D01*
X016138Y005478D02*
X017048Y005478D01*
X017049Y005485D02*
X017072Y005630D01*
X017149Y005755D01*
X017270Y005839D01*
X017414Y005869D01*
X017418Y005868D02*
X017418Y006778D01*
X017418Y016138D02*
X017418Y017048D01*
X017411Y017049D02*
X017266Y017072D01*
X017141Y017149D01*
X017057Y017270D01*
X017027Y017414D01*
X017018Y017418D02*
X016118Y017418D01*
X016378Y020078D02*
X016378Y020128D01*
X016278Y020228D01*
X015678Y020078D02*
X015528Y020228D01*
X015528Y021178D01*
X015678Y021328D01*
X014678Y021328D02*
X014528Y021178D01*
X014528Y020228D01*
X014678Y020078D01*
X014378Y020078D02*
X014378Y020128D01*
X014278Y020228D01*
X013678Y020078D02*
X013528Y020228D01*
X013528Y021178D01*
X013678Y021328D01*
X012678Y021328D02*
X012528Y021178D01*
X012528Y020228D01*
X012678Y020078D01*
X012378Y020078D02*
X012378Y020128D01*
X012278Y020228D01*
X011678Y020078D02*
X011528Y020228D01*
X011528Y021178D01*
X011678Y021328D01*
X010678Y021328D02*
X010528Y021178D01*
X010528Y020228D01*
X010678Y020078D01*
X010378Y020078D02*
X010378Y020128D01*
X010278Y020228D01*
X009678Y020078D02*
X009528Y020228D01*
X009528Y021178D01*
X009678Y021328D01*
X008678Y021328D02*
X008528Y021178D01*
X008528Y020228D01*
X008678Y020078D01*
X008378Y020078D02*
X008378Y020128D01*
X008278Y020228D01*
X007678Y020078D02*
X007528Y020228D01*
X007528Y021178D01*
X007678Y021328D01*
X006678Y021328D02*
X006528Y021178D01*
X006528Y020228D01*
X006678Y020078D01*
X007278Y020228D02*
X007378Y020128D01*
X007378Y020078D01*
X009278Y020228D02*
X009378Y020128D01*
X009378Y020078D01*
X011278Y020228D02*
X011378Y020128D01*
X011378Y020078D01*
X013278Y020228D02*
X013378Y020128D01*
X013378Y020078D01*
X015278Y020228D02*
X015378Y020128D01*
X015378Y020078D01*
X006528Y017408D02*
X005468Y017408D01*
X005468Y016348D01*
D13*
X019197Y008168D02*
X019199Y008124D01*
X019203Y008101D01*
X019211Y008080D01*
X019224Y008061D01*
X019247Y008040D01*
X019275Y008025D01*
X019306Y008016D01*
X019337Y008013D01*
X019364Y008013D01*
X019706Y008013D01*
X019706Y007847D01*
X019087Y007847D01*
X019087Y008006D01*
X019174Y008006D01*
X019174Y008009D01*
X019173Y008013D01*
X019171Y008016D01*
X019165Y008021D01*
X019150Y008032D01*
X019131Y008048D01*
X019115Y008066D01*
X019093Y008101D01*
X019078Y008141D01*
X019072Y008182D01*
X019074Y008261D01*
X019082Y008299D01*
X019099Y008335D01*
X019123Y008366D01*
X019146Y008385D01*
X019171Y008400D01*
X019199Y008411D01*
X019243Y008420D01*
X019287Y008424D01*
X019702Y008424D01*
X019702Y008263D01*
X019322Y008263D01*
X019293Y008260D01*
X019265Y008253D01*
X019239Y008240D01*
X019223Y008228D01*
X019210Y008212D01*
X019201Y008194D01*
X019198Y008181D01*
X019197Y008168D01*
X019199Y008124D01*
X019199Y008128D02*
X019083Y008128D01*
X019080Y008136D02*
X019198Y008136D01*
X019198Y008145D02*
X019078Y008145D01*
X019076Y008153D02*
X019198Y008153D01*
X019197Y008162D02*
X019075Y008162D01*
X019074Y008170D02*
X019197Y008170D01*
X019198Y008179D02*
X019073Y008179D01*
X019072Y008187D02*
X019199Y008187D01*
X019202Y008196D02*
X019072Y008196D01*
X019073Y008204D02*
X019206Y008204D01*
X019211Y008213D02*
X019073Y008213D01*
X019073Y008221D02*
X019218Y008221D01*
X019226Y008230D02*
X019073Y008230D01*
X019073Y008239D02*
X019237Y008239D01*
X019075Y008261D02*
X019090Y008317D01*
X019124Y008365D01*
X019124Y008367D02*
X019702Y008367D01*
X019702Y008375D02*
X019134Y008375D01*
X019144Y008384D02*
X019702Y008384D01*
X019702Y008392D02*
X019158Y008392D01*
X019172Y008401D02*
X019702Y008401D01*
X019702Y008409D02*
X019195Y008409D01*
X019231Y008418D02*
X019702Y008418D01*
X019702Y008424D02*
X019702Y008263D01*
X019322Y008263D01*
X019276Y008256D02*
X019074Y008256D01*
X019075Y008264D02*
X019702Y008264D01*
X019702Y008273D02*
X019076Y008273D01*
X019078Y008281D02*
X019702Y008281D01*
X019702Y008290D02*
X019080Y008290D01*
X019082Y008298D02*
X019702Y008298D01*
X019702Y008307D02*
X019086Y008307D01*
X019090Y008315D02*
X019702Y008315D01*
X019702Y008324D02*
X019094Y008324D01*
X019098Y008333D02*
X019702Y008333D01*
X019702Y008341D02*
X019103Y008341D01*
X019110Y008350D02*
X019702Y008350D01*
X019702Y008358D02*
X019117Y008358D01*
X019074Y008247D02*
X019254Y008247D01*
X019199Y008411D02*
X019123Y008366D01*
X019287Y008424D02*
X019702Y008424D01*
X019073Y008261D02*
X019072Y008182D01*
X019086Y008119D02*
X019200Y008119D01*
X019201Y008110D02*
X019089Y008110D01*
X019093Y008102D02*
X019202Y008102D01*
X019206Y008093D02*
X019098Y008093D01*
X019103Y008085D02*
X019209Y008085D01*
X019214Y008076D02*
X019109Y008076D01*
X019114Y008068D02*
X019219Y008068D01*
X019226Y008059D02*
X019121Y008059D01*
X019129Y008051D02*
X019235Y008051D01*
X019245Y008042D02*
X019138Y008042D01*
X019148Y008034D02*
X019259Y008034D01*
X019275Y008025D02*
X019160Y008025D01*
X019171Y008016D02*
X019305Y008016D01*
X019364Y008013D02*
X019706Y008013D01*
X019706Y007847D01*
X019087Y007847D01*
X019087Y008006D01*
X019174Y008006D01*
X019174Y008009D01*
X019174Y008008D02*
X019706Y008008D01*
X019706Y007999D02*
X019087Y007999D01*
X019087Y007991D02*
X019706Y007991D01*
X019706Y007982D02*
X019087Y007982D01*
X019087Y007974D02*
X019706Y007974D01*
X019706Y007965D02*
X019087Y007965D01*
X019087Y007957D02*
X019706Y007957D01*
X019706Y007948D02*
X019087Y007948D01*
X019087Y007940D02*
X019706Y007940D01*
X019706Y007931D02*
X019087Y007931D01*
X019087Y007922D02*
X019706Y007922D01*
X019706Y007914D02*
X019087Y007914D01*
X019087Y007905D02*
X019706Y007905D01*
X019706Y007897D02*
X019087Y007897D01*
X019087Y007888D02*
X019706Y007888D01*
X019706Y007880D02*
X019087Y007880D01*
X019087Y007871D02*
X019706Y007871D01*
X019706Y007863D02*
X019087Y007863D01*
X019087Y007854D02*
X019706Y007854D01*
X019703Y007749D02*
X019088Y007749D01*
X019088Y007583D01*
X019415Y007583D01*
X019464Y007580D01*
X019512Y007571D01*
X019535Y007562D01*
X019555Y007549D01*
X019571Y007531D01*
X019583Y007510D01*
X019592Y007482D01*
X019594Y007452D01*
X019591Y007423D01*
X019582Y007395D01*
X019573Y007379D01*
X019560Y007364D01*
X019545Y007353D01*
X019514Y007339D01*
X019480Y007333D01*
X019086Y007333D01*
X019716Y007333D01*
X019717Y007342D02*
X019519Y007342D01*
X019538Y007350D02*
X019718Y007350D01*
X019719Y007356D02*
X019718Y007415D01*
X019709Y007473D01*
X019706Y007483D01*
X019701Y007493D01*
X019675Y007530D01*
X019644Y007562D01*
X019609Y007590D01*
X019609Y007591D01*
X019703Y007591D01*
X019703Y007749D01*
X019703Y007743D02*
X019088Y007743D01*
X019088Y007735D02*
X019703Y007735D01*
X019703Y007726D02*
X019088Y007726D01*
X019088Y007717D02*
X019703Y007717D01*
X019703Y007709D02*
X019088Y007709D01*
X019088Y007700D02*
X019703Y007700D01*
X019703Y007692D02*
X019088Y007692D01*
X019088Y007683D02*
X019703Y007683D01*
X019703Y007675D02*
X019088Y007675D01*
X019088Y007666D02*
X019703Y007666D01*
X019703Y007658D02*
X019088Y007658D01*
X019088Y007649D02*
X019703Y007649D01*
X019703Y007641D02*
X019088Y007641D01*
X019088Y007632D02*
X019703Y007632D01*
X019703Y007623D02*
X019088Y007623D01*
X019088Y007615D02*
X019703Y007615D01*
X019703Y007606D02*
X019088Y007606D01*
X019088Y007598D02*
X019703Y007598D01*
X019651Y007555D02*
X019546Y007555D01*
X019557Y007547D02*
X019659Y007547D01*
X019667Y007538D02*
X019565Y007538D01*
X019572Y007529D02*
X019675Y007529D01*
X019681Y007521D02*
X019577Y007521D01*
X019582Y007512D02*
X019687Y007512D01*
X019693Y007504D02*
X019585Y007504D01*
X019588Y007495D02*
X019699Y007495D01*
X019704Y007487D02*
X019590Y007487D01*
X019592Y007478D02*
X019707Y007478D01*
X019710Y007470D02*
X019593Y007470D01*
X019594Y007461D02*
X019711Y007461D01*
X019712Y007453D02*
X019594Y007453D01*
X019594Y007444D02*
X019713Y007444D01*
X019715Y007436D02*
X019593Y007436D01*
X019592Y007427D02*
X019716Y007427D01*
X019717Y007418D02*
X019590Y007418D01*
X019587Y007410D02*
X019718Y007410D01*
X019718Y007401D02*
X019584Y007401D01*
X019581Y007393D02*
X019718Y007393D01*
X019718Y007384D02*
X019576Y007384D01*
X019570Y007376D02*
X019719Y007376D01*
X019719Y007367D02*
X019563Y007367D01*
X019553Y007359D02*
X019719Y007359D01*
X019719Y007356D02*
X019713Y007315D01*
X019700Y007277D01*
X019679Y007241D01*
X019670Y007231D01*
X019635Y007205D01*
X019596Y007186D01*
X019554Y007174D01*
X019511Y007170D01*
X019086Y007170D01*
X019086Y007333D01*
X019086Y007324D02*
X019714Y007324D01*
X019713Y007316D02*
X019086Y007316D01*
X019086Y007307D02*
X019710Y007307D01*
X019707Y007299D02*
X019086Y007299D01*
X019086Y007290D02*
X019704Y007290D01*
X019701Y007282D02*
X019086Y007282D01*
X019086Y007273D02*
X019698Y007273D01*
X019693Y007265D02*
X019086Y007265D01*
X019086Y007256D02*
X019688Y007256D01*
X019683Y007248D02*
X019086Y007248D01*
X019086Y007239D02*
X019677Y007239D01*
X019669Y007230D02*
X019086Y007230D01*
X019086Y007222D02*
X019658Y007222D01*
X019646Y007213D02*
X019086Y007213D01*
X019086Y007205D02*
X019635Y007205D01*
X019617Y007196D02*
X019086Y007196D01*
X019086Y007188D02*
X019600Y007188D01*
X019573Y007179D02*
X019086Y007179D01*
X019086Y007171D02*
X019518Y007171D01*
X019706Y006994D02*
X019193Y006994D01*
X019193Y007112D01*
X019088Y007112D01*
X019088Y007039D01*
X019088Y006995D01*
X019033Y006995D01*
X019014Y006998D01*
X018996Y007005D01*
X018986Y007013D01*
X018978Y007024D01*
X018974Y007036D01*
X018971Y007073D01*
X018974Y007109D01*
X018975Y007120D01*
X018975Y007123D01*
X018856Y007123D01*
X018856Y007122D01*
X018853Y007070D01*
X018853Y007009D01*
X018860Y006969D01*
X018874Y006931D01*
X019706Y006931D01*
X019706Y006923D02*
X018880Y006923D01*
X018885Y006914D02*
X019706Y006914D01*
X019706Y006906D02*
X018891Y006906D01*
X018896Y006897D02*
X019706Y006897D01*
X019706Y006889D02*
X018904Y006889D01*
X018896Y006897D02*
X018874Y006931D01*
X018871Y006940D02*
X019706Y006940D01*
X019706Y006949D02*
X018868Y006949D01*
X018865Y006957D02*
X019706Y006957D01*
X019706Y006966D02*
X018861Y006966D01*
X018859Y006974D02*
X019706Y006974D01*
X019706Y006983D02*
X018858Y006983D01*
X018856Y006991D02*
X019706Y006991D01*
X019706Y006994D02*
X019706Y006830D01*
X019202Y006830D01*
X019194Y006830D01*
X019193Y006673D01*
X019088Y006778D01*
X019088Y006832D01*
X019070Y006832D01*
X018986Y006839D01*
X018964Y006845D01*
X018943Y006855D01*
X018924Y006868D01*
X018896Y006897D01*
X018912Y006880D02*
X019706Y006880D01*
X019706Y006872D02*
X018921Y006872D01*
X018931Y006863D02*
X019706Y006863D01*
X019706Y006855D02*
X018943Y006855D01*
X018961Y006846D02*
X019706Y006846D01*
X019706Y006837D02*
X019005Y006837D01*
X019088Y006829D02*
X019194Y006829D01*
X019194Y006820D02*
X019088Y006820D01*
X019088Y006812D02*
X019194Y006812D01*
X019194Y006803D02*
X019088Y006803D01*
X019088Y006795D02*
X019194Y006795D01*
X019194Y006786D02*
X019088Y006786D01*
X019088Y006778D02*
X019194Y006778D01*
X019194Y006769D02*
X019097Y006769D01*
X019105Y006761D02*
X019194Y006761D01*
X019194Y006752D02*
X019114Y006752D01*
X019123Y006744D02*
X019194Y006744D01*
X019193Y006735D02*
X019131Y006735D01*
X019140Y006726D02*
X019193Y006726D01*
X019193Y006718D02*
X019148Y006718D01*
X019157Y006709D02*
X019193Y006709D01*
X019193Y006701D02*
X019165Y006701D01*
X019174Y006692D02*
X019193Y006692D01*
X019193Y006684D02*
X019182Y006684D01*
X019191Y006675D02*
X019193Y006675D01*
X019146Y006624D02*
X019089Y006624D01*
X019089Y006632D02*
X019138Y006632D01*
X019129Y006641D02*
X019089Y006641D01*
X019089Y006650D02*
X019121Y006650D01*
X019112Y006658D02*
X019089Y006658D01*
X019089Y006667D02*
X019104Y006667D01*
X019096Y006675D02*
X019089Y006675D01*
X019089Y006682D02*
X019311Y006455D01*
X019704Y006717D01*
X019703Y006517D01*
X019426Y006349D01*
X019423Y006347D01*
X019492Y006276D01*
X019702Y006276D01*
X019707Y006276D01*
X019707Y006113D01*
X019705Y006111D01*
X018944Y006111D01*
X018851Y006274D01*
X019313Y006274D01*
X019089Y006498D01*
X019089Y006682D01*
X019089Y006615D02*
X019154Y006615D01*
X019163Y006607D02*
X019089Y006607D01*
X019089Y006598D02*
X019171Y006598D01*
X019179Y006590D02*
X019089Y006590D01*
X019089Y006581D02*
X019188Y006581D01*
X019196Y006573D02*
X019089Y006573D01*
X019089Y006564D02*
X019204Y006564D01*
X019213Y006556D02*
X019089Y006556D01*
X019089Y006547D02*
X019221Y006547D01*
X019229Y006538D02*
X019089Y006538D01*
X019089Y006530D02*
X019238Y006530D01*
X019246Y006521D02*
X019089Y006521D01*
X019089Y006513D02*
X019254Y006513D01*
X019263Y006504D02*
X019089Y006504D01*
X019091Y006496D02*
X019271Y006496D01*
X019280Y006487D02*
X019100Y006487D01*
X019108Y006479D02*
X019288Y006479D01*
X019296Y006470D02*
X019117Y006470D01*
X019125Y006462D02*
X019305Y006462D01*
X019321Y006462D02*
X019612Y006462D01*
X019626Y006470D02*
X019334Y006470D01*
X019346Y006479D02*
X019640Y006479D01*
X019654Y006487D02*
X019359Y006487D01*
X019372Y006496D02*
X019668Y006496D01*
X019682Y006504D02*
X019385Y006504D01*
X019398Y006513D02*
X019696Y006513D01*
X019703Y006521D02*
X019411Y006521D01*
X019423Y006530D02*
X019703Y006530D01*
X019703Y006538D02*
X019436Y006538D01*
X019449Y006547D02*
X019703Y006547D01*
X019703Y006556D02*
X019462Y006556D01*
X019475Y006564D02*
X019703Y006564D01*
X019703Y006573D02*
X019487Y006573D01*
X019500Y006581D02*
X019703Y006581D01*
X019703Y006590D02*
X019513Y006590D01*
X019526Y006598D02*
X019703Y006598D01*
X019704Y006607D02*
X019539Y006607D01*
X019551Y006615D02*
X019704Y006615D01*
X019704Y006624D02*
X019564Y006624D01*
X019577Y006632D02*
X019704Y006632D01*
X019704Y006641D02*
X019590Y006641D01*
X019603Y006650D02*
X019704Y006650D01*
X019704Y006658D02*
X019616Y006658D01*
X019628Y006667D02*
X019704Y006667D01*
X019704Y006675D02*
X019641Y006675D01*
X019654Y006684D02*
X019704Y006684D01*
X019704Y006692D02*
X019667Y006692D01*
X019680Y006701D02*
X019704Y006701D01*
X019704Y006709D02*
X019692Y006709D01*
X019598Y006453D02*
X019134Y006453D01*
X019143Y006444D02*
X019583Y006444D01*
X019569Y006436D02*
X019151Y006436D01*
X019160Y006427D02*
X019555Y006427D01*
X019541Y006419D02*
X019168Y006419D01*
X019177Y006410D02*
X019527Y006410D01*
X019513Y006402D02*
X019185Y006402D01*
X019194Y006393D02*
X019499Y006393D01*
X019485Y006385D02*
X019202Y006385D01*
X019211Y006376D02*
X019471Y006376D01*
X019457Y006368D02*
X019219Y006368D01*
X019228Y006359D02*
X019443Y006359D01*
X019429Y006351D02*
X019237Y006351D01*
X019245Y006342D02*
X019428Y006342D01*
X019436Y006333D02*
X019254Y006333D01*
X019262Y006325D02*
X019445Y006325D01*
X019453Y006316D02*
X019271Y006316D01*
X019279Y006308D02*
X019461Y006308D01*
X019469Y006299D02*
X019288Y006299D01*
X019296Y006291D02*
X019478Y006291D01*
X019486Y006282D02*
X019305Y006282D01*
X019228Y006037D02*
X019076Y006037D01*
X019073Y005983D01*
X019076Y005955D01*
X019085Y005929D01*
X019099Y005905D01*
X019122Y005870D01*
X019134Y005855D01*
X019267Y005855D01*
X019295Y005834D01*
X019327Y005819D01*
X019360Y005811D01*
X019394Y005808D01*
X019702Y005808D01*
X019702Y005644D01*
X019116Y005645D01*
X019089Y005797D01*
X019202Y005797D01*
X019204Y005801D01*
X019202Y005807D01*
X019190Y005815D01*
X019149Y005842D01*
X019134Y005855D01*
X019127Y005864D02*
X019260Y005864D01*
X019252Y005872D02*
X019121Y005872D01*
X019115Y005881D02*
X019245Y005881D01*
X019244Y005882D02*
X019267Y005855D01*
X019278Y005846D02*
X019144Y005846D01*
X019155Y005838D02*
X019289Y005838D01*
X019304Y005829D02*
X019168Y005829D01*
X019181Y005821D02*
X019323Y005821D01*
X019355Y005812D02*
X019194Y005812D01*
X019203Y005804D02*
X019702Y005804D01*
X019702Y005795D02*
X019089Y005795D01*
X019091Y005787D02*
X019702Y005787D01*
X019702Y005778D02*
X019092Y005778D01*
X019094Y005770D02*
X019702Y005770D01*
X019702Y005761D02*
X019095Y005761D01*
X019097Y005752D02*
X019702Y005752D01*
X019702Y005744D02*
X019098Y005744D01*
X019100Y005735D02*
X019702Y005735D01*
X019702Y005727D02*
X019101Y005727D01*
X019103Y005718D02*
X019702Y005718D01*
X019702Y005710D02*
X019105Y005710D01*
X019106Y005701D02*
X019702Y005701D01*
X019702Y005693D02*
X019108Y005693D01*
X019109Y005684D02*
X019702Y005684D01*
X019702Y005676D02*
X019111Y005676D01*
X019112Y005667D02*
X019702Y005667D01*
X019702Y005659D02*
X019114Y005659D01*
X019115Y005650D02*
X019702Y005650D01*
X019702Y005558D02*
X019694Y005555D01*
X019642Y005541D01*
X019589Y005537D01*
X019418Y005538D01*
X019418Y005377D01*
X019451Y005377D01*
X019494Y005374D01*
X019537Y005366D01*
X019544Y005364D01*
X019555Y005359D01*
X019657Y005359D01*
X019664Y005351D02*
X019566Y005351D01*
X019564Y005353D02*
X019593Y005323D01*
X019601Y005311D01*
X019606Y005297D01*
X019612Y005255D01*
X019610Y005194D01*
X019606Y005175D01*
X019597Y005157D01*
X019585Y005142D01*
X019574Y005134D01*
X019562Y005128D01*
X019549Y005125D01*
X019525Y005125D01*
X019501Y005129D01*
X019479Y005138D01*
X019466Y005147D01*
X019456Y005158D01*
X019444Y005178D01*
X019436Y005199D01*
X019432Y005221D01*
X019426Y005278D01*
X019419Y005317D01*
X019408Y005355D01*
X019404Y005363D01*
X019398Y005370D01*
X019390Y005375D01*
X019390Y005377D01*
X019414Y005377D01*
X019414Y005537D01*
X019224Y005537D01*
X019195Y005533D01*
X019168Y005523D01*
X019144Y005506D01*
X019125Y005484D01*
X019098Y005433D01*
X019081Y005377D01*
X019072Y005309D01*
X019072Y005240D01*
X019178Y005240D01*
X019177Y005248D02*
X019072Y005248D01*
X019072Y005240D02*
X019080Y005171D01*
X019093Y005123D01*
X019114Y005077D01*
X019137Y005045D01*
X019165Y005018D01*
X019199Y004997D01*
X019236Y004984D01*
X019275Y004979D01*
X019274Y004978D01*
X019274Y005143D01*
X019274Y005145D01*
X019272Y005145D01*
X019250Y005148D01*
X019230Y005155D01*
X019211Y005168D01*
X019197Y005184D01*
X019186Y005203D01*
X019179Y005226D01*
X019177Y005250D01*
X019179Y005304D01*
X019182Y005319D01*
X019187Y005334D01*
X019075Y005334D01*
X019076Y005342D02*
X019192Y005342D01*
X019195Y005347D02*
X019205Y005358D01*
X019217Y005366D01*
X019230Y005372D01*
X019252Y005377D01*
X019274Y005377D01*
X019390Y005377D01*
X019399Y005368D02*
X019303Y005368D01*
X019304Y005367D02*
X019315Y005355D01*
X019325Y005337D01*
X019332Y005318D01*
X019341Y005266D01*
X019350Y005179D01*
X019361Y005119D01*
X019380Y005060D01*
X019394Y005033D01*
X019414Y005009D01*
X019438Y004989D01*
X019472Y004972D01*
X019509Y004964D01*
X019551Y004964D01*
X019592Y004971D01*
X019631Y004986D01*
X019650Y004998D01*
X019667Y005012D01*
X019680Y005030D01*
X019704Y005080D01*
X019716Y005134D01*
X019718Y005198D01*
X019708Y005262D01*
X019694Y005303D01*
X019673Y005340D01*
X019645Y005373D01*
X019644Y005375D01*
X019643Y005378D01*
X019644Y005380D01*
X019646Y005382D01*
X019648Y005383D01*
X019689Y005392D01*
X019700Y005395D01*
X019701Y005396D01*
X019702Y005397D01*
X019702Y005399D01*
X019702Y005558D01*
X019702Y005556D02*
X019697Y005556D01*
X019702Y005547D02*
X019666Y005547D01*
X019702Y005539D02*
X019613Y005539D01*
X019702Y005530D02*
X019418Y005530D01*
X019414Y005530D02*
X019187Y005530D01*
X019166Y005522D02*
X019414Y005522D01*
X019418Y005522D02*
X019702Y005522D01*
X019702Y005513D02*
X019418Y005513D01*
X019414Y005513D02*
X019154Y005513D01*
X019143Y005505D02*
X019414Y005505D01*
X019418Y005505D02*
X019702Y005505D01*
X019702Y005496D02*
X019418Y005496D01*
X019414Y005496D02*
X019136Y005496D01*
X019128Y005488D02*
X019414Y005488D01*
X019418Y005488D02*
X019702Y005488D01*
X019702Y005479D02*
X019418Y005479D01*
X019414Y005479D02*
X019122Y005479D01*
X019118Y005471D02*
X019414Y005471D01*
X019418Y005471D02*
X019702Y005471D01*
X019702Y005462D02*
X019418Y005462D01*
X019414Y005462D02*
X019113Y005462D01*
X019109Y005453D02*
X019414Y005453D01*
X019418Y005453D02*
X019702Y005453D01*
X019702Y005445D02*
X019418Y005445D01*
X019414Y005445D02*
X019104Y005445D01*
X019100Y005436D02*
X019414Y005436D01*
X019418Y005436D02*
X019702Y005436D01*
X019702Y005428D02*
X019418Y005428D01*
X019414Y005428D02*
X019096Y005428D01*
X019094Y005419D02*
X019414Y005419D01*
X019418Y005419D02*
X019702Y005419D01*
X019702Y005411D02*
X019418Y005411D01*
X019414Y005411D02*
X019091Y005411D01*
X019089Y005402D02*
X019414Y005402D01*
X019418Y005402D02*
X019702Y005402D01*
X019695Y005394D02*
X019418Y005394D01*
X019414Y005394D02*
X019086Y005394D01*
X019083Y005385D02*
X019414Y005385D01*
X019418Y005385D02*
X019657Y005385D01*
X019643Y005377D02*
X019458Y005377D01*
X019406Y005359D02*
X019311Y005359D01*
X019317Y005351D02*
X019409Y005351D01*
X019412Y005342D02*
X019322Y005342D01*
X019326Y005334D02*
X019414Y005334D01*
X019417Y005325D02*
X019329Y005325D01*
X019332Y005317D02*
X019419Y005317D01*
X019421Y005308D02*
X019334Y005308D01*
X019335Y005300D02*
X019422Y005300D01*
X019424Y005291D02*
X019337Y005291D01*
X019338Y005283D02*
X019425Y005283D01*
X019426Y005274D02*
X019340Y005274D01*
X019341Y005266D02*
X019427Y005266D01*
X019428Y005257D02*
X019342Y005257D01*
X019343Y005248D02*
X019429Y005248D01*
X019430Y005240D02*
X019344Y005240D01*
X019345Y005231D02*
X019431Y005231D01*
X019432Y005223D02*
X019345Y005223D01*
X019346Y005214D02*
X019433Y005214D01*
X019435Y005206D02*
X019347Y005206D01*
X019348Y005197D02*
X019437Y005197D01*
X019440Y005189D02*
X019349Y005189D01*
X019350Y005180D02*
X019443Y005180D01*
X019448Y005172D02*
X019351Y005172D01*
X019353Y005163D02*
X019453Y005163D01*
X019459Y005154D02*
X019354Y005154D01*
X019356Y005146D02*
X019468Y005146D01*
X019481Y005137D02*
X019358Y005137D01*
X019359Y005129D02*
X019502Y005129D01*
X019564Y005129D02*
X019715Y005129D01*
X019716Y005137D02*
X019579Y005137D01*
X019588Y005146D02*
X019716Y005146D01*
X019716Y005154D02*
X019595Y005154D01*
X019600Y005163D02*
X019717Y005163D01*
X019717Y005172D02*
X019604Y005172D01*
X019607Y005180D02*
X019717Y005180D01*
X019717Y005189D02*
X019609Y005189D01*
X019610Y005197D02*
X019717Y005197D01*
X019716Y005206D02*
X019610Y005206D01*
X019611Y005214D02*
X019715Y005214D01*
X019714Y005223D02*
X019611Y005223D01*
X019611Y005231D02*
X019713Y005231D01*
X019711Y005240D02*
X019612Y005240D01*
X019612Y005248D02*
X019710Y005248D01*
X019709Y005257D02*
X019612Y005257D01*
X019611Y005266D02*
X019707Y005266D01*
X019704Y005274D02*
X019609Y005274D01*
X019608Y005283D02*
X019701Y005283D01*
X019698Y005291D02*
X019607Y005291D01*
X019605Y005300D02*
X019695Y005300D01*
X019691Y005308D02*
X019602Y005308D01*
X019597Y005317D02*
X019686Y005317D01*
X019681Y005325D02*
X019591Y005325D01*
X019583Y005334D02*
X019677Y005334D01*
X019671Y005342D02*
X019574Y005342D01*
X019564Y005353D02*
X019555Y005359D01*
X019527Y005368D02*
X019649Y005368D01*
X019713Y005120D02*
X019361Y005120D01*
X019363Y005112D02*
X019711Y005112D01*
X019709Y005103D02*
X019366Y005103D01*
X019369Y005095D02*
X019707Y005095D01*
X019705Y005086D02*
X019372Y005086D01*
X019374Y005078D02*
X019703Y005078D01*
X019699Y005069D02*
X019377Y005069D01*
X019380Y005060D02*
X019695Y005060D01*
X019690Y005052D02*
X019384Y005052D01*
X019389Y005043D02*
X019686Y005043D01*
X019682Y005035D02*
X019393Y005035D01*
X019400Y005026D02*
X019677Y005026D01*
X019671Y005018D02*
X019407Y005018D01*
X019414Y005009D02*
X019663Y005009D01*
X019654Y005001D02*
X019424Y005001D01*
X019434Y004992D02*
X019641Y004992D01*
X019624Y004984D02*
X019449Y004984D01*
X019466Y004975D02*
X019602Y004975D01*
X019565Y004966D02*
X019498Y004966D01*
X019476Y004897D02*
X019530Y004884D01*
X019581Y004862D01*
X019628Y004832D01*
X019656Y004806D01*
X019679Y004776D01*
X019696Y004742D01*
X019708Y004706D01*
X019715Y004658D01*
X019716Y004610D01*
X019710Y004562D01*
X019700Y004529D01*
X019682Y004499D01*
X019659Y004473D01*
X019631Y004452D01*
X019514Y004452D01*
X019511Y004455D01*
X019513Y004455D01*
X019517Y004456D01*
X019520Y004458D01*
X019523Y004460D01*
X019546Y004472D01*
X019565Y004489D01*
X019580Y004510D01*
X019592Y004538D01*
X019598Y004567D01*
X019598Y004604D01*
X019591Y004640D01*
X019577Y004670D01*
X019556Y004696D01*
X019529Y004715D01*
X019498Y004727D01*
X019421Y004739D01*
X019342Y004739D01*
X019303Y004731D01*
X019266Y004715D01*
X019235Y004691D01*
X019209Y004660D01*
X019198Y004639D01*
X019192Y004617D01*
X019190Y004594D01*
X019192Y004551D01*
X019195Y004535D01*
X019202Y004521D01*
X019225Y004492D01*
X019252Y004468D01*
X019281Y004451D01*
X019312Y004440D01*
X019345Y004436D01*
X019446Y004437D01*
X019477Y004442D01*
X019504Y004451D01*
X019505Y004451D01*
X019507Y004451D01*
X019508Y004449D01*
X019508Y004448D01*
X019508Y004443D01*
X019630Y004443D01*
X020071Y004443D01*
X019924Y004280D01*
X019117Y004280D01*
X019114Y004280D01*
X019085Y004433D01*
X019164Y004432D01*
X019167Y004435D01*
X019168Y004437D01*
X019158Y004446D01*
X019120Y004481D01*
X019108Y004495D01*
X019099Y004510D01*
X019078Y004562D01*
X019074Y004581D01*
X019073Y004659D01*
X019080Y004702D01*
X019249Y004702D01*
X019260Y004710D02*
X019084Y004710D01*
X019080Y004702D02*
X019096Y004742D01*
X019117Y004778D01*
X019143Y004810D01*
X019178Y004841D01*
X019219Y004864D01*
X019302Y004891D01*
X019389Y004902D01*
X019476Y004897D01*
X019455Y004898D02*
X019361Y004898D01*
X019299Y004890D02*
X019508Y004890D01*
X019538Y004881D02*
X019272Y004881D01*
X019246Y004873D02*
X019558Y004873D01*
X019578Y004864D02*
X019219Y004864D01*
X019204Y004855D02*
X019592Y004855D01*
X019605Y004847D02*
X019188Y004847D01*
X019175Y004838D02*
X019618Y004838D01*
X019630Y004830D02*
X019165Y004830D01*
X019156Y004821D02*
X019640Y004821D01*
X019649Y004813D02*
X019146Y004813D01*
X019138Y004804D02*
X019657Y004804D01*
X019664Y004796D02*
X019132Y004796D01*
X019125Y004787D02*
X019670Y004787D01*
X019677Y004779D02*
X019118Y004779D01*
X019113Y004770D02*
X019682Y004770D01*
X019686Y004761D02*
X019108Y004761D01*
X019103Y004753D02*
X019691Y004753D01*
X019695Y004744D02*
X019097Y004744D01*
X019094Y004736D02*
X019326Y004736D01*
X019294Y004727D02*
X019090Y004727D01*
X019087Y004719D02*
X019275Y004719D01*
X019238Y004693D02*
X019079Y004693D01*
X019077Y004685D02*
X019229Y004685D01*
X019222Y004676D02*
X019076Y004676D01*
X019074Y004667D02*
X019215Y004667D01*
X019208Y004659D02*
X019073Y004659D01*
X019073Y004650D02*
X019204Y004650D01*
X019200Y004642D02*
X019073Y004642D01*
X019073Y004633D02*
X019197Y004633D01*
X019194Y004625D02*
X019073Y004625D01*
X019074Y004616D02*
X019192Y004616D01*
X019191Y004608D02*
X019074Y004608D01*
X019074Y004599D02*
X019190Y004599D01*
X019190Y004591D02*
X019074Y004591D01*
X019074Y004582D02*
X019191Y004582D01*
X019191Y004574D02*
X019076Y004574D01*
X019077Y004565D02*
X019191Y004565D01*
X019192Y004556D02*
X019080Y004556D01*
X019084Y004548D02*
X019193Y004548D01*
X019194Y004539D02*
X019087Y004539D01*
X019091Y004531D02*
X019197Y004531D01*
X019201Y004522D02*
X019094Y004522D01*
X019098Y004514D02*
X019208Y004514D01*
X019214Y004505D02*
X019102Y004505D01*
X019107Y004497D02*
X019221Y004497D01*
X019229Y004488D02*
X019114Y004488D01*
X019122Y004480D02*
X019239Y004480D01*
X019249Y004471D02*
X019131Y004471D01*
X019140Y004462D02*
X019262Y004462D01*
X019276Y004454D02*
X019149Y004454D01*
X019159Y004445D02*
X019298Y004445D01*
X019339Y004437D02*
X019168Y004437D01*
X019088Y004420D02*
X020050Y004420D01*
X020058Y004428D02*
X019086Y004428D01*
X019089Y004411D02*
X020042Y004411D01*
X020035Y004403D02*
X019091Y004403D01*
X019092Y004394D02*
X020027Y004394D01*
X020019Y004386D02*
X019094Y004386D01*
X019096Y004377D02*
X020011Y004377D01*
X020004Y004368D02*
X019097Y004368D01*
X019099Y004360D02*
X019996Y004360D01*
X019988Y004351D02*
X019101Y004351D01*
X019102Y004343D02*
X019981Y004343D01*
X019973Y004334D02*
X019104Y004334D01*
X019105Y004326D02*
X019965Y004326D01*
X019958Y004317D02*
X019107Y004317D01*
X019109Y004309D02*
X019950Y004309D01*
X019942Y004300D02*
X019110Y004300D01*
X019112Y004292D02*
X019934Y004292D01*
X019927Y004283D02*
X019113Y004283D01*
X019176Y004158D02*
X019159Y004147D01*
X019143Y004133D01*
X019113Y004095D01*
X019194Y004095D01*
X019188Y004087D02*
X019109Y004087D01*
X019113Y004095D02*
X019092Y004052D01*
X019078Y003999D01*
X019072Y003944D01*
X019072Y003873D01*
X019147Y003873D01*
X019141Y003873D02*
X019177Y003873D01*
X019177Y003875D02*
X019175Y003909D01*
X019177Y003943D01*
X019181Y003963D01*
X019189Y003983D01*
X019200Y004000D01*
X019211Y004012D01*
X019224Y004021D01*
X019239Y004027D01*
X019249Y004029D01*
X019260Y004030D01*
X019260Y004183D01*
X019232Y004180D01*
X019181Y004099D01*
X019129Y003920D01*
X019172Y003755D01*
X019292Y003776D01*
X019395Y003949D01*
X019486Y004116D01*
X019614Y004073D01*
X019649Y003918D01*
X019508Y003633D01*
X019656Y003914D01*
X019620Y004076D01*
X019489Y004120D01*
X019475Y004113D01*
X019286Y003788D01*
X019178Y003769D01*
X019133Y003918D01*
X019186Y004084D01*
X019243Y004161D01*
X019229Y004180D01*
X019207Y004172D01*
X019176Y004158D01*
X019171Y004155D02*
X019238Y004155D01*
X019241Y004163D02*
X019188Y004163D01*
X019207Y004172D02*
X019235Y004172D01*
X019227Y004172D02*
X019260Y004172D01*
X019260Y004181D02*
X019236Y004181D01*
X019222Y004163D02*
X019260Y004163D01*
X019260Y004155D02*
X019216Y004155D01*
X019211Y004146D02*
X019260Y004146D01*
X019260Y004138D02*
X019205Y004138D01*
X019200Y004129D02*
X019260Y004129D01*
X019260Y004121D02*
X019195Y004121D01*
X019189Y004112D02*
X019260Y004112D01*
X019260Y004104D02*
X019184Y004104D01*
X019180Y004095D02*
X019260Y004095D01*
X019260Y004087D02*
X019177Y004087D01*
X019175Y004078D02*
X019260Y004078D01*
X019260Y004069D02*
X019172Y004069D01*
X019170Y004061D02*
X019260Y004061D01*
X019260Y004052D02*
X019167Y004052D01*
X019165Y004044D02*
X019260Y004044D01*
X019260Y004035D02*
X019163Y004035D01*
X019170Y004035D02*
X019087Y004035D01*
X019085Y004027D02*
X019168Y004027D01*
X019160Y004027D02*
X019238Y004027D01*
X019221Y004018D02*
X019158Y004018D01*
X019165Y004018D02*
X019083Y004018D01*
X019080Y004010D02*
X019162Y004010D01*
X019155Y004010D02*
X019209Y004010D01*
X019201Y004001D02*
X019153Y004001D01*
X019160Y004001D02*
X019078Y004001D01*
X019077Y003993D02*
X019157Y003993D01*
X019150Y003993D02*
X019195Y003993D01*
X019190Y003984D02*
X019148Y003984D01*
X019154Y003984D02*
X019076Y003984D01*
X019075Y003975D02*
X019151Y003975D01*
X019145Y003975D02*
X019186Y003975D01*
X019183Y003967D02*
X019143Y003967D01*
X019149Y003967D02*
X019074Y003967D01*
X019074Y003958D02*
X019146Y003958D01*
X019140Y003958D02*
X019180Y003958D01*
X019178Y003950D02*
X019138Y003950D01*
X019143Y003950D02*
X019073Y003950D01*
X019072Y003941D02*
X019140Y003941D01*
X019135Y003941D02*
X019177Y003941D01*
X019176Y003933D02*
X019133Y003933D01*
X019138Y003933D02*
X019072Y003933D01*
X019072Y003924D02*
X019135Y003924D01*
X019130Y003924D02*
X019176Y003924D01*
X019176Y003916D02*
X019130Y003916D01*
X019134Y003916D02*
X019072Y003916D01*
X019072Y003907D02*
X019136Y003907D01*
X019132Y003907D02*
X019175Y003907D01*
X019176Y003899D02*
X019135Y003899D01*
X019139Y003899D02*
X019072Y003899D01*
X019072Y003890D02*
X019141Y003890D01*
X019137Y003890D02*
X019176Y003890D01*
X019177Y003881D02*
X019139Y003881D01*
X019144Y003881D02*
X019072Y003881D01*
X019072Y003873D02*
X019078Y003817D01*
X019094Y003762D01*
X019120Y003712D01*
X019135Y003693D01*
X019152Y003678D01*
X019173Y003666D01*
X019216Y003652D01*
X019260Y003647D01*
X019305Y003651D01*
X019324Y003657D01*
X019342Y003667D01*
X019357Y003680D01*
X019378Y003707D01*
X019395Y003736D01*
X019407Y003768D01*
X019441Y003911D01*
X019453Y003958D01*
X019472Y004002D01*
X019482Y004016D01*
X019495Y004027D01*
X019510Y004035D01*
X019527Y004039D01*
X019544Y004038D01*
X019560Y004033D01*
X019575Y004024D01*
X019587Y004012D01*
X019600Y003991D01*
X019608Y003968D01*
X019611Y003943D01*
X019611Y003890D01*
X019643Y003890D01*
X019635Y003890D02*
X019715Y003890D01*
X019714Y003881D02*
X019631Y003881D01*
X019639Y003881D02*
X019610Y003881D01*
X019609Y003873D02*
X019634Y003873D01*
X019627Y003873D02*
X019714Y003873D01*
X019713Y003864D02*
X019623Y003864D01*
X019630Y003864D02*
X019607Y003864D01*
X019608Y003867D02*
X019599Y003843D01*
X019585Y003821D01*
X019567Y003803D01*
X019550Y003792D01*
X019530Y003786D01*
X019510Y003785D01*
X019508Y003785D01*
X019508Y003633D01*
X019522Y003634D01*
X019545Y003638D01*
X019595Y003655D01*
X019619Y003667D01*
X019639Y003684D01*
X019656Y003704D01*
X019686Y003751D01*
X019702Y003785D01*
X019710Y003821D01*
X019717Y003922D01*
X019715Y003974D01*
X019708Y004026D01*
X019697Y004065D01*
X019679Y004102D01*
X019655Y004135D01*
X019626Y004164D01*
X019604Y004179D01*
X019579Y004189D01*
X019553Y004195D01*
X019512Y004198D01*
X019471Y004194D01*
X019431Y004181D01*
X019415Y004171D01*
X019401Y004158D01*
X019381Y004131D01*
X019365Y004101D01*
X019341Y004036D01*
X019326Y003968D01*
X019310Y003888D01*
X019299Y003858D01*
X019282Y003830D01*
X019270Y003818D01*
X019254Y003810D01*
X019238Y003807D01*
X019222Y003809D01*
X019207Y003816D01*
X019195Y003826D01*
X019187Y003839D01*
X019181Y003857D01*
X019177Y003875D01*
X019179Y003864D02*
X019144Y003864D01*
X019149Y003864D02*
X019073Y003864D01*
X019074Y003856D02*
X019152Y003856D01*
X019146Y003856D02*
X019181Y003856D01*
X019184Y003847D02*
X019148Y003847D01*
X019154Y003847D02*
X019075Y003847D01*
X019076Y003839D02*
X019157Y003839D01*
X019150Y003839D02*
X019187Y003839D01*
X019193Y003830D02*
X019152Y003830D01*
X019160Y003830D02*
X019077Y003830D01*
X019078Y003822D02*
X019162Y003822D01*
X019155Y003822D02*
X019201Y003822D01*
X019213Y003813D02*
X019157Y003813D01*
X019165Y003813D02*
X019079Y003813D01*
X019082Y003805D02*
X019167Y003805D01*
X019159Y003805D02*
X019309Y003805D01*
X019314Y003813D02*
X019260Y003813D01*
X019273Y003822D02*
X019319Y003822D01*
X019324Y003830D02*
X019282Y003830D01*
X019287Y003839D02*
X019329Y003839D01*
X019334Y003847D02*
X019293Y003847D01*
X019298Y003856D02*
X019340Y003856D01*
X019345Y003864D02*
X019301Y003864D01*
X019305Y003873D02*
X019350Y003873D01*
X019355Y003881D02*
X019308Y003881D01*
X019310Y003890D02*
X019360Y003890D01*
X019365Y003899D02*
X019312Y003899D01*
X019314Y003907D02*
X019370Y003907D01*
X019375Y003916D02*
X019316Y003916D01*
X019317Y003924D02*
X019380Y003924D01*
X019385Y003933D02*
X019319Y003933D01*
X019321Y003941D02*
X019390Y003941D01*
X019395Y003950D02*
X019322Y003950D01*
X019324Y003958D02*
X019400Y003958D01*
X019405Y003967D02*
X019326Y003967D01*
X019328Y003975D02*
X019409Y003975D01*
X019414Y003984D02*
X019330Y003984D01*
X019331Y003993D02*
X019419Y003993D01*
X019423Y004001D02*
X019333Y004001D01*
X019335Y004010D02*
X019428Y004010D01*
X019433Y004018D02*
X019337Y004018D01*
X019339Y004027D02*
X019437Y004027D01*
X019442Y004035D02*
X019341Y004035D01*
X019344Y004044D02*
X019447Y004044D01*
X019451Y004052D02*
X019347Y004052D01*
X019350Y004061D02*
X019456Y004061D01*
X019461Y004069D02*
X019353Y004069D01*
X019357Y004078D02*
X019465Y004078D01*
X019470Y004087D02*
X019360Y004087D01*
X019363Y004095D02*
X019475Y004095D01*
X019479Y004104D02*
X019366Y004104D01*
X019371Y004112D02*
X019484Y004112D01*
X019475Y004112D02*
X019512Y004112D01*
X019523Y004104D02*
X019678Y004104D01*
X019683Y004095D02*
X019548Y004095D01*
X019538Y004104D02*
X019470Y004104D01*
X019465Y004095D02*
X019563Y004095D01*
X019574Y004087D02*
X019687Y004087D01*
X019691Y004078D02*
X019599Y004078D01*
X019589Y004087D02*
X019460Y004087D01*
X019455Y004078D02*
X019614Y004078D01*
X019615Y004069D02*
X019695Y004069D01*
X019698Y004061D02*
X019617Y004061D01*
X019623Y004061D02*
X019445Y004061D01*
X019450Y004069D02*
X019622Y004069D01*
X019625Y004052D02*
X019440Y004052D01*
X019435Y004044D02*
X019627Y004044D01*
X019621Y004044D02*
X019703Y004044D01*
X019701Y004052D02*
X019619Y004052D01*
X019623Y004035D02*
X019705Y004035D01*
X019708Y004027D02*
X019624Y004027D01*
X019631Y004027D02*
X019571Y004027D01*
X019581Y004018D02*
X019633Y004018D01*
X019626Y004018D02*
X019709Y004018D01*
X019710Y004010D02*
X019628Y004010D01*
X019635Y004010D02*
X019589Y004010D01*
X019594Y004001D02*
X019637Y004001D01*
X019630Y004001D02*
X019712Y004001D01*
X019713Y003993D02*
X019632Y003993D01*
X019639Y003993D02*
X019599Y003993D01*
X019602Y003984D02*
X019641Y003984D01*
X019634Y003984D02*
X019714Y003984D01*
X019715Y003975D02*
X019636Y003975D01*
X019642Y003975D02*
X019605Y003975D01*
X019608Y003967D02*
X019644Y003967D01*
X019638Y003967D02*
X019716Y003967D01*
X019716Y003958D02*
X019640Y003958D01*
X019646Y003958D02*
X019609Y003958D01*
X019610Y003950D02*
X019648Y003950D01*
X019642Y003950D02*
X019716Y003950D01*
X019716Y003941D02*
X019644Y003941D01*
X019650Y003941D02*
X019611Y003941D01*
X019611Y003933D02*
X019652Y003933D01*
X019646Y003933D02*
X019717Y003933D01*
X019717Y003924D02*
X019648Y003924D01*
X019654Y003924D02*
X019611Y003924D01*
X019611Y003916D02*
X019656Y003916D01*
X019648Y003916D02*
X019717Y003916D01*
X019716Y003907D02*
X019644Y003907D01*
X019652Y003907D02*
X019611Y003907D01*
X019611Y003899D02*
X019648Y003899D01*
X019639Y003899D02*
X019715Y003899D01*
X019712Y003856D02*
X019618Y003856D01*
X019625Y003856D02*
X019604Y003856D01*
X019601Y003847D02*
X019621Y003847D01*
X019614Y003847D02*
X019712Y003847D01*
X019711Y003839D02*
X019610Y003839D01*
X019616Y003839D02*
X019596Y003839D01*
X019591Y003830D02*
X019612Y003830D01*
X019606Y003830D02*
X019711Y003830D01*
X019710Y003822D02*
X019601Y003822D01*
X019607Y003822D02*
X019586Y003822D01*
X019577Y003813D02*
X019603Y003813D01*
X019597Y003813D02*
X019708Y003813D01*
X019706Y003805D02*
X019593Y003805D01*
X019598Y003805D02*
X019569Y003805D01*
X019556Y003796D02*
X019594Y003796D01*
X019589Y003796D02*
X019704Y003796D01*
X019702Y003788D02*
X019584Y003788D01*
X019589Y003788D02*
X019534Y003788D01*
X019508Y003779D02*
X019585Y003779D01*
X019580Y003779D02*
X019699Y003779D01*
X019695Y003770D02*
X019576Y003770D01*
X019580Y003770D02*
X019508Y003770D01*
X019508Y003762D02*
X019576Y003762D01*
X019572Y003762D02*
X019691Y003762D01*
X019687Y003753D02*
X019568Y003753D01*
X019571Y003753D02*
X019508Y003753D01*
X019508Y003745D02*
X019567Y003745D01*
X019563Y003745D02*
X019682Y003745D01*
X019677Y003736D02*
X019559Y003736D01*
X019562Y003736D02*
X019508Y003736D01*
X019508Y003728D02*
X019558Y003728D01*
X019555Y003728D02*
X019671Y003728D01*
X019666Y003719D02*
X019551Y003719D01*
X019553Y003719D02*
X019508Y003719D01*
X019508Y003711D02*
X019549Y003711D01*
X019546Y003711D02*
X019660Y003711D01*
X019654Y003702D02*
X019542Y003702D01*
X019544Y003702D02*
X019508Y003702D01*
X019508Y003694D02*
X019540Y003694D01*
X019538Y003694D02*
X019647Y003694D01*
X019640Y003685D02*
X019534Y003685D01*
X019535Y003685D02*
X019508Y003685D01*
X019508Y003676D02*
X019531Y003676D01*
X019530Y003676D02*
X019630Y003676D01*
X019619Y003668D02*
X019525Y003668D01*
X019526Y003668D02*
X019508Y003668D01*
X019508Y003659D02*
X019522Y003659D01*
X019521Y003659D02*
X019603Y003659D01*
X019583Y003651D02*
X019517Y003651D01*
X019508Y003651D01*
X019508Y003642D02*
X019513Y003642D01*
X019558Y003642D01*
X019518Y003634D02*
X019508Y003634D01*
X019508Y003634D01*
X019380Y003711D02*
X019121Y003711D01*
X019116Y003719D02*
X019385Y003719D01*
X019390Y003728D02*
X019112Y003728D01*
X019108Y003736D02*
X019395Y003736D01*
X019398Y003745D02*
X019103Y003745D01*
X019099Y003753D02*
X019401Y003753D01*
X019405Y003762D02*
X019095Y003762D01*
X019092Y003770D02*
X019178Y003770D01*
X019186Y003770D02*
X019408Y003770D01*
X019410Y003779D02*
X019235Y003779D01*
X019260Y003770D02*
X019168Y003770D01*
X019170Y003762D02*
X019211Y003762D01*
X019175Y003779D02*
X019089Y003779D01*
X019087Y003788D02*
X019172Y003788D01*
X019170Y003796D02*
X019084Y003796D01*
X019161Y003796D02*
X019304Y003796D01*
X019299Y003788D02*
X019164Y003788D01*
X019166Y003779D02*
X019294Y003779D01*
X019283Y003788D02*
X019412Y003788D01*
X019414Y003796D02*
X019291Y003796D01*
X019296Y003805D02*
X019416Y003805D01*
X019418Y003813D02*
X019301Y003813D01*
X019306Y003822D02*
X019420Y003822D01*
X019422Y003830D02*
X019311Y003830D01*
X019316Y003839D02*
X019424Y003839D01*
X019426Y003847D02*
X019321Y003847D01*
X019326Y003856D02*
X019428Y003856D01*
X019430Y003864D02*
X019330Y003864D01*
X019335Y003873D02*
X019432Y003873D01*
X019434Y003881D02*
X019340Y003881D01*
X019345Y003890D02*
X019436Y003890D01*
X019438Y003899D02*
X019350Y003899D01*
X019355Y003907D02*
X019440Y003907D01*
X019442Y003916D02*
X019360Y003916D01*
X019365Y003924D02*
X019444Y003924D01*
X019447Y003933D02*
X019370Y003933D01*
X019375Y003941D02*
X019449Y003941D01*
X019451Y003950D02*
X019380Y003950D01*
X019385Y003958D02*
X019453Y003958D01*
X019457Y003967D02*
X019390Y003967D01*
X019395Y003975D02*
X019461Y003975D01*
X019464Y003984D02*
X019400Y003984D01*
X019405Y003993D02*
X019468Y003993D01*
X019472Y004001D02*
X019410Y004001D01*
X019415Y004010D02*
X019477Y004010D01*
X019484Y004018D02*
X019420Y004018D01*
X019425Y004027D02*
X019494Y004027D01*
X019511Y004035D02*
X019430Y004035D01*
X019376Y004121D02*
X019666Y004121D01*
X019660Y004129D02*
X019380Y004129D01*
X019386Y004138D02*
X019653Y004138D01*
X019644Y004146D02*
X019392Y004146D01*
X019399Y004155D02*
X019635Y004155D01*
X019627Y004163D02*
X019407Y004163D01*
X019416Y004172D02*
X019614Y004172D01*
X019600Y004181D02*
X019430Y004181D01*
X019455Y004189D02*
X019580Y004189D01*
X019518Y004198D02*
X019507Y004198D01*
X019497Y004112D02*
X019672Y004112D01*
X019629Y004035D02*
X019553Y004035D01*
X019611Y003890D02*
X019608Y003867D01*
X019375Y003702D02*
X019128Y003702D01*
X019134Y003694D02*
X019368Y003694D01*
X019361Y003685D02*
X019144Y003685D01*
X019155Y003676D02*
X019353Y003676D01*
X019343Y003668D02*
X019170Y003668D01*
X019193Y003659D02*
X019329Y003659D01*
X019303Y003651D02*
X019225Y003651D01*
X019173Y004044D02*
X019090Y004044D01*
X019092Y004052D02*
X019176Y004052D01*
X019179Y004061D02*
X019096Y004061D01*
X019101Y004069D02*
X019181Y004069D01*
X019184Y004078D02*
X019105Y004078D01*
X019120Y004104D02*
X019201Y004104D01*
X019207Y004112D02*
X019127Y004112D01*
X019133Y004121D02*
X019213Y004121D01*
X019219Y004129D02*
X019140Y004129D01*
X019148Y004138D02*
X019226Y004138D01*
X019232Y004146D02*
X019158Y004146D01*
X019423Y004437D02*
X020065Y004437D01*
X019706Y004548D02*
X019594Y004548D01*
X019596Y004556D02*
X019708Y004556D01*
X019710Y004565D02*
X019598Y004565D01*
X019598Y004574D02*
X019712Y004574D01*
X019713Y004582D02*
X019598Y004582D01*
X019598Y004591D02*
X019714Y004591D01*
X019715Y004599D02*
X019598Y004599D01*
X019598Y004608D02*
X019716Y004608D01*
X019716Y004616D02*
X019596Y004616D01*
X019594Y004625D02*
X019716Y004625D01*
X019716Y004633D02*
X019592Y004633D01*
X019590Y004642D02*
X019716Y004642D01*
X019716Y004650D02*
X019586Y004650D01*
X019582Y004659D02*
X019715Y004659D01*
X019714Y004667D02*
X019579Y004667D01*
X019572Y004676D02*
X019713Y004676D01*
X019711Y004685D02*
X019565Y004685D01*
X019558Y004693D02*
X019710Y004693D01*
X019709Y004702D02*
X019548Y004702D01*
X019536Y004710D02*
X019707Y004710D01*
X019704Y004719D02*
X019520Y004719D01*
X019497Y004727D02*
X019701Y004727D01*
X019698Y004736D02*
X019442Y004736D01*
X019592Y004539D02*
X019703Y004539D01*
X019700Y004531D02*
X019589Y004531D01*
X019585Y004522D02*
X019696Y004522D01*
X019691Y004514D02*
X019582Y004514D01*
X019577Y004505D02*
X019686Y004505D01*
X019681Y004497D02*
X019570Y004497D01*
X019564Y004488D02*
X019673Y004488D01*
X019665Y004480D02*
X019554Y004480D01*
X019544Y004471D02*
X019657Y004471D01*
X019645Y004462D02*
X019528Y004462D01*
X019512Y004454D02*
X019634Y004454D01*
X019508Y004445D02*
X019487Y004445D01*
X019274Y004984D02*
X019242Y004984D01*
X019214Y004992D02*
X019274Y004992D01*
X019274Y005001D02*
X019194Y005001D01*
X019180Y005009D02*
X019274Y005009D01*
X019274Y005018D02*
X019166Y005018D01*
X019156Y005026D02*
X019274Y005026D01*
X019274Y005035D02*
X019147Y005035D01*
X019138Y005043D02*
X019274Y005043D01*
X019274Y005052D02*
X019132Y005052D01*
X019126Y005060D02*
X019274Y005060D01*
X019274Y005069D02*
X019120Y005069D01*
X019114Y005078D02*
X019274Y005078D01*
X019274Y005086D02*
X019110Y005086D01*
X019106Y005095D02*
X019274Y005095D01*
X019274Y005103D02*
X019102Y005103D01*
X019098Y005112D02*
X019274Y005112D01*
X019274Y005120D02*
X019094Y005120D01*
X019092Y005129D02*
X019274Y005129D01*
X019274Y005137D02*
X019089Y005137D01*
X019087Y005146D02*
X019265Y005146D01*
X019232Y005154D02*
X019085Y005154D01*
X019082Y005163D02*
X019218Y005163D01*
X019208Y005172D02*
X019080Y005172D01*
X019079Y005180D02*
X019200Y005180D01*
X019194Y005189D02*
X019078Y005189D01*
X019077Y005197D02*
X019189Y005197D01*
X019185Y005206D02*
X019076Y005206D01*
X019075Y005214D02*
X019183Y005214D01*
X019180Y005223D02*
X019074Y005223D01*
X019073Y005231D02*
X019179Y005231D01*
X019177Y005257D02*
X019072Y005257D01*
X019072Y005266D02*
X019178Y005266D01*
X019178Y005274D02*
X019072Y005274D01*
X019072Y005283D02*
X019178Y005283D01*
X019179Y005291D02*
X019072Y005291D01*
X019072Y005300D02*
X019179Y005300D01*
X019180Y005308D02*
X019072Y005308D01*
X019073Y005317D02*
X019181Y005317D01*
X019184Y005325D02*
X019074Y005325D01*
X019078Y005351D02*
X019199Y005351D01*
X019195Y005347D02*
X019187Y005334D01*
X019207Y005359D02*
X019079Y005359D01*
X019080Y005368D02*
X019221Y005368D01*
X019251Y005377D02*
X019081Y005377D01*
X019274Y005377D02*
X019295Y005372D01*
X019300Y005370D01*
X019304Y005367D01*
X019244Y005882D02*
X019233Y005902D01*
X019226Y005923D01*
X019222Y005945D01*
X019222Y006006D01*
X019227Y006030D01*
X019228Y006036D01*
X019228Y006037D01*
X019228Y006034D02*
X019076Y006034D01*
X019075Y006026D02*
X019226Y006026D01*
X019224Y006017D02*
X019075Y006017D01*
X019074Y006009D02*
X019223Y006009D01*
X019222Y006000D02*
X019074Y006000D01*
X019074Y005992D02*
X019222Y005992D01*
X019222Y005983D02*
X019073Y005983D01*
X019074Y005975D02*
X019222Y005975D01*
X019222Y005966D02*
X019075Y005966D01*
X019076Y005958D02*
X019222Y005958D01*
X019222Y005949D02*
X019079Y005949D01*
X019081Y005940D02*
X019223Y005940D01*
X019224Y005932D02*
X019084Y005932D01*
X019089Y005923D02*
X019226Y005923D01*
X019229Y005915D02*
X019093Y005915D01*
X019098Y005906D02*
X019232Y005906D01*
X019235Y005898D02*
X019104Y005898D01*
X019109Y005889D02*
X019240Y005889D01*
X018944Y006111D02*
X019705Y006111D01*
X019707Y006120D02*
X018939Y006120D01*
X018934Y006128D02*
X019707Y006128D01*
X019707Y006137D02*
X018929Y006137D01*
X018924Y006145D02*
X019707Y006145D01*
X019707Y006154D02*
X018919Y006154D01*
X018915Y006163D02*
X019707Y006163D01*
X019707Y006171D02*
X018910Y006171D01*
X018905Y006180D02*
X019707Y006180D01*
X019707Y006188D02*
X018900Y006188D01*
X018895Y006197D02*
X019707Y006197D01*
X019707Y006205D02*
X018890Y006205D01*
X018885Y006214D02*
X019707Y006214D01*
X019707Y006222D02*
X018881Y006222D01*
X018876Y006231D02*
X019707Y006231D01*
X019707Y006239D02*
X018871Y006239D01*
X018866Y006248D02*
X019707Y006248D01*
X019707Y006257D02*
X018861Y006257D01*
X018856Y006265D02*
X019707Y006265D01*
X019707Y006274D02*
X018851Y006274D01*
X018942Y006467D02*
X018726Y006659D01*
X018695Y006693D01*
X018671Y006733D01*
X018666Y006748D01*
X018663Y006763D01*
X018663Y006853D01*
X018658Y006907D01*
X018644Y006959D01*
X018620Y007007D01*
X018588Y007053D01*
X018550Y007093D01*
X018506Y007128D01*
X018440Y007165D01*
X018368Y007190D01*
X018293Y007201D01*
X018217Y007199D01*
X018176Y007191D01*
X018137Y007177D01*
X018100Y007157D01*
X018055Y007121D01*
X018019Y007077D01*
X018054Y007077D01*
X018060Y007076D01*
X018065Y007074D01*
X018079Y007062D01*
X018090Y007047D01*
X018093Y007039D01*
X018095Y007016D01*
X018091Y006994D01*
X018081Y006974D01*
X018055Y006938D01*
X018041Y006921D01*
X018024Y006907D01*
X018005Y006896D01*
X017985Y006887D01*
X017972Y006884D01*
X017959Y006885D01*
X017937Y006892D01*
X017918Y006904D01*
X017903Y006920D01*
X017892Y006940D01*
X017886Y006960D01*
X017884Y006981D01*
X017884Y007005D01*
X017883Y007004D01*
X017870Y006987D01*
X017861Y006967D01*
X017855Y006953D01*
X017851Y006944D01*
X017842Y006909D01*
X017839Y006874D01*
X017842Y006840D01*
X017851Y006807D01*
X017866Y006776D01*
X017888Y006745D01*
X017914Y006718D01*
X017938Y006701D01*
X017965Y006691D01*
X017994Y006687D01*
X018023Y006691D01*
X018050Y006702D01*
X018119Y006749D01*
X018180Y006806D01*
X018198Y006821D01*
X018219Y006831D01*
X018242Y006835D01*
X018265Y006834D01*
X018287Y006826D01*
X018306Y006813D01*
X018321Y006795D01*
X018333Y006773D01*
X018341Y006749D01*
X018345Y006724D01*
X018344Y006695D01*
X018335Y006667D01*
X018320Y006642D01*
X018306Y006629D01*
X018289Y006620D01*
X018271Y006616D01*
X018254Y006616D01*
X018236Y006620D01*
X018229Y006624D01*
X018190Y006624D01*
X018190Y006626D02*
X018193Y006589D01*
X018200Y006561D01*
X018213Y006536D01*
X018230Y006514D01*
X018252Y006495D01*
X018281Y006479D01*
X018312Y006470D01*
X018345Y006467D01*
X018942Y006467D01*
X018939Y006470D02*
X018311Y006470D01*
X018283Y006479D02*
X018929Y006479D01*
X018919Y006487D02*
X018266Y006487D01*
X018251Y006496D02*
X018910Y006496D01*
X018900Y006504D02*
X018241Y006504D01*
X018231Y006513D02*
X018891Y006513D01*
X018881Y006521D02*
X018224Y006521D01*
X018218Y006530D02*
X018871Y006530D01*
X018862Y006538D02*
X018212Y006538D01*
X018207Y006547D02*
X018852Y006547D01*
X018842Y006556D02*
X018203Y006556D01*
X018200Y006564D02*
X018833Y006564D01*
X018823Y006573D02*
X018197Y006573D01*
X018195Y006581D02*
X018814Y006581D01*
X018804Y006590D02*
X018193Y006590D01*
X018192Y006598D02*
X018794Y006598D01*
X018785Y006607D02*
X018192Y006607D01*
X018191Y006615D02*
X018775Y006615D01*
X018766Y006624D02*
X018297Y006624D01*
X018310Y006632D02*
X018756Y006632D01*
X018746Y006641D02*
X018319Y006641D01*
X018325Y006650D02*
X018737Y006650D01*
X018727Y006658D02*
X018330Y006658D01*
X018335Y006667D02*
X018719Y006667D01*
X018711Y006675D02*
X018338Y006675D01*
X018340Y006684D02*
X018703Y006684D01*
X018696Y006692D02*
X018343Y006692D01*
X018344Y006701D02*
X018690Y006701D01*
X018685Y006709D02*
X018344Y006709D01*
X018345Y006718D02*
X018680Y006718D01*
X018675Y006726D02*
X018345Y006726D01*
X018343Y006735D02*
X018670Y006735D01*
X018667Y006744D02*
X018342Y006744D01*
X018340Y006752D02*
X018665Y006752D01*
X018663Y006761D02*
X018337Y006761D01*
X018334Y006769D02*
X018663Y006769D01*
X018663Y006778D02*
X018330Y006778D01*
X018326Y006786D02*
X018663Y006786D01*
X018663Y006795D02*
X018321Y006795D01*
X018314Y006803D02*
X018663Y006803D01*
X018663Y006812D02*
X018307Y006812D01*
X018295Y006820D02*
X018663Y006820D01*
X018663Y006829D02*
X018278Y006829D01*
X018214Y006829D02*
X017845Y006829D01*
X017847Y006820D02*
X018197Y006820D01*
X018187Y006812D02*
X017849Y006812D01*
X017852Y006803D02*
X018177Y006803D01*
X018168Y006795D02*
X017857Y006795D01*
X017861Y006786D02*
X018159Y006786D01*
X018150Y006778D02*
X017865Y006778D01*
X017871Y006769D02*
X018141Y006769D01*
X018132Y006761D02*
X017877Y006761D01*
X017883Y006752D02*
X018123Y006752D01*
X018111Y006744D02*
X017890Y006744D01*
X017898Y006735D02*
X018099Y006735D01*
X018086Y006726D02*
X017906Y006726D01*
X017914Y006718D02*
X018074Y006718D01*
X018061Y006709D02*
X017926Y006709D01*
X017939Y006701D02*
X018047Y006701D01*
X018026Y006692D02*
X017961Y006692D01*
X017842Y006837D02*
X018663Y006837D01*
X018663Y006846D02*
X017841Y006846D01*
X017840Y006855D02*
X018663Y006855D01*
X018662Y006863D02*
X017840Y006863D01*
X017839Y006872D02*
X018661Y006872D01*
X018661Y006880D02*
X017840Y006880D01*
X017840Y006889D02*
X017947Y006889D01*
X017928Y006897D02*
X017841Y006897D01*
X017842Y006906D02*
X017916Y006906D01*
X017908Y006914D02*
X017844Y006914D01*
X017846Y006923D02*
X017901Y006923D01*
X017897Y006931D02*
X017848Y006931D01*
X017850Y006940D02*
X017892Y006940D01*
X017890Y006949D02*
X017853Y006949D01*
X017857Y006957D02*
X017887Y006957D01*
X017886Y006966D02*
X017860Y006966D01*
X017864Y006974D02*
X017885Y006974D01*
X017884Y006983D02*
X017868Y006983D01*
X017873Y006991D02*
X017884Y006991D01*
X017880Y007000D02*
X017884Y007000D01*
X017884Y007005D02*
X017884Y007005D01*
X017989Y006889D02*
X018660Y006889D01*
X018659Y006897D02*
X018008Y006897D01*
X018022Y006906D02*
X018658Y006906D01*
X018656Y006914D02*
X018033Y006914D01*
X018042Y006923D02*
X018654Y006923D01*
X018651Y006931D02*
X018049Y006931D01*
X018056Y006940D02*
X018649Y006940D01*
X018646Y006949D02*
X018063Y006949D01*
X018069Y006957D02*
X018644Y006957D01*
X018640Y006966D02*
X018075Y006966D01*
X018081Y006974D02*
X018636Y006974D01*
X018632Y006983D02*
X018085Y006983D01*
X018090Y006991D02*
X018628Y006991D01*
X018624Y007000D02*
X018092Y007000D01*
X018094Y007008D02*
X018619Y007008D01*
X018613Y007017D02*
X018095Y007017D01*
X018094Y007025D02*
X018607Y007025D01*
X018601Y007034D02*
X018094Y007034D01*
X018092Y007043D02*
X018595Y007043D01*
X018589Y007051D02*
X018087Y007051D01*
X018081Y007060D02*
X018581Y007060D01*
X018573Y007068D02*
X018072Y007068D01*
X018057Y007077D02*
X018565Y007077D01*
X018557Y007085D02*
X018026Y007085D01*
X018033Y007094D02*
X018549Y007094D01*
X018538Y007102D02*
X018040Y007102D01*
X018047Y007111D02*
X018528Y007111D01*
X018517Y007119D02*
X018054Y007119D01*
X018064Y007128D02*
X018506Y007128D01*
X018491Y007136D02*
X018074Y007136D01*
X018085Y007145D02*
X018476Y007145D01*
X018461Y007154D02*
X018096Y007154D01*
X018110Y007162D02*
X018446Y007162D01*
X018424Y007171D02*
X018125Y007171D01*
X018144Y007179D02*
X018399Y007179D01*
X018375Y007188D02*
X018167Y007188D01*
X018203Y007196D02*
X018327Y007196D01*
X018856Y007119D02*
X018975Y007119D01*
X018974Y007111D02*
X018855Y007111D01*
X018855Y007102D02*
X018973Y007102D01*
X018973Y007094D02*
X018854Y007094D01*
X018854Y007085D02*
X018972Y007085D01*
X018971Y007077D02*
X018853Y007077D01*
X018853Y007068D02*
X018971Y007068D01*
X018972Y007060D02*
X018853Y007060D01*
X018853Y007051D02*
X018973Y007051D01*
X018973Y007043D02*
X018853Y007043D01*
X018853Y007034D02*
X018975Y007034D01*
X018978Y007025D02*
X018853Y007025D01*
X018853Y007017D02*
X018983Y007017D01*
X018992Y007008D02*
X018853Y007008D01*
X018855Y007000D02*
X019009Y007000D01*
X019088Y007000D02*
X019193Y007000D01*
X019193Y007008D02*
X019088Y007008D01*
X019088Y007017D02*
X019193Y007017D01*
X019193Y007025D02*
X019088Y007025D01*
X019088Y007034D02*
X019193Y007034D01*
X019193Y007043D02*
X019088Y007043D01*
X019088Y007051D02*
X019193Y007051D01*
X019193Y007060D02*
X019088Y007060D01*
X019088Y007068D02*
X019193Y007068D01*
X019193Y007077D02*
X019088Y007077D01*
X019088Y007085D02*
X019193Y007085D01*
X019193Y007094D02*
X019088Y007094D01*
X019088Y007102D02*
X019193Y007102D01*
X019193Y007111D02*
X019088Y007111D01*
X019088Y007589D02*
X019610Y007589D01*
X019621Y007581D02*
X019452Y007581D01*
X019506Y007572D02*
X019632Y007572D01*
X019642Y007564D02*
X019531Y007564D01*
X019172Y008017D02*
X019166Y008022D01*
X019171Y008016D02*
X019173Y008013D01*
X019174Y008009D01*
X019198Y008411D02*
X019287Y008424D01*
X019072Y008182D02*
X019085Y008120D01*
X019115Y008066D01*
X019197Y008168D02*
X019201Y008194D01*
X019115Y008065D02*
X019150Y008031D01*
X019224Y008062D02*
X019199Y008125D01*
X019201Y008193D02*
X019239Y008239D01*
X019275Y008025D02*
X019337Y008013D01*
X019239Y008240D02*
X019322Y008263D01*
X019224Y008061D02*
X019275Y008025D01*
X019332Y008761D02*
X019273Y008773D01*
X019218Y008795D01*
X019168Y008828D01*
X019125Y008870D01*
X019091Y008919D01*
X019067Y008974D01*
X019054Y009033D01*
X019186Y009033D01*
X019188Y009025D02*
X019056Y009025D01*
X019054Y009033D02*
X019053Y009094D01*
X019060Y009150D01*
X019073Y009206D01*
X019091Y009252D01*
X019119Y009292D01*
X019154Y009326D01*
X019196Y009351D01*
X019241Y009368D01*
X019289Y009377D01*
X019289Y009212D01*
X019288Y009212D01*
X019264Y009209D01*
X019242Y009201D01*
X019222Y009188D01*
X019205Y009171D01*
X019193Y009151D01*
X019182Y009119D01*
X019179Y009085D01*
X019182Y009051D01*
X019189Y009018D01*
X019197Y009001D01*
X019209Y008986D01*
X019246Y008958D01*
X019287Y008938D01*
X019331Y008926D01*
X019377Y008922D01*
X019684Y008922D01*
X019688Y008929D02*
X019667Y008890D01*
X019640Y008854D01*
X019142Y008854D01*
X019133Y008862D02*
X019646Y008862D01*
X019640Y008854D02*
X019608Y008824D01*
X019568Y008797D01*
X019524Y008777D01*
X019264Y008777D01*
X019243Y008785D02*
X019542Y008785D01*
X019524Y008777D02*
X019478Y008764D01*
X019430Y008758D01*
X019332Y008761D01*
X019296Y008768D02*
X019494Y008768D01*
X019444Y008760D02*
X019375Y008760D01*
X019222Y008794D02*
X019561Y008794D01*
X019576Y008802D02*
X019207Y008802D01*
X019194Y008811D02*
X019589Y008811D01*
X019601Y008820D02*
X019181Y008820D01*
X019168Y008828D02*
X019612Y008828D01*
X019621Y008837D02*
X019160Y008837D01*
X019151Y008845D02*
X019631Y008845D01*
X019653Y008871D02*
X019125Y008871D01*
X019119Y008879D02*
X019659Y008879D01*
X019666Y008888D02*
X019113Y008888D01*
X019107Y008896D02*
X019671Y008896D01*
X019675Y008905D02*
X019101Y008905D01*
X019095Y008914D02*
X019680Y008914D01*
X019688Y008929D02*
X019702Y008971D01*
X019713Y009033D01*
X019589Y009033D01*
X019588Y009027D02*
X019595Y009059D01*
X019715Y009059D01*
X019715Y009067D02*
X019596Y009067D01*
X019595Y009059D02*
X019597Y009091D01*
X019594Y009115D01*
X019587Y009138D01*
X019576Y009160D01*
X019562Y009178D01*
X019544Y009193D01*
X019520Y009206D01*
X019494Y009215D01*
X019467Y009219D01*
X019467Y009379D01*
X019469Y009379D01*
X019488Y009378D01*
X019506Y009374D01*
X019561Y009353D01*
X019610Y009321D01*
X019652Y009279D01*
X019684Y009230D01*
X019702Y009187D01*
X019551Y009187D01*
X019562Y009178D02*
X019704Y009178D01*
X019706Y009170D02*
X019568Y009170D01*
X019575Y009161D02*
X019708Y009161D01*
X019711Y009153D02*
X019580Y009153D01*
X019584Y009144D02*
X019713Y009144D01*
X019713Y009142D02*
X019717Y009095D01*
X019713Y009033D01*
X019712Y009025D02*
X019587Y009025D01*
X019588Y009027D02*
X019575Y008998D01*
X019555Y008973D01*
X019702Y008973D01*
X019700Y008965D02*
X019543Y008965D01*
X019532Y008956D02*
X019697Y008956D01*
X019694Y008948D02*
X019515Y008948D01*
X019529Y008954D02*
X019555Y008973D01*
X019561Y008982D02*
X019704Y008982D01*
X019706Y008990D02*
X019568Y008990D01*
X019575Y008999D02*
X019707Y008999D01*
X019709Y009007D02*
X019579Y009007D01*
X019583Y009016D02*
X019710Y009016D01*
X019714Y009042D02*
X019591Y009042D01*
X019593Y009050D02*
X019714Y009050D01*
X019716Y009076D02*
X019596Y009076D01*
X019597Y009084D02*
X019716Y009084D01*
X019717Y009093D02*
X019597Y009093D01*
X019596Y009101D02*
X019716Y009101D01*
X019716Y009110D02*
X019595Y009110D01*
X019593Y009119D02*
X019715Y009119D01*
X019714Y009127D02*
X019590Y009127D01*
X019588Y009136D02*
X019714Y009136D01*
X019713Y009142D02*
X019702Y009187D01*
X019699Y009195D02*
X019540Y009195D01*
X019524Y009204D02*
X019695Y009204D01*
X019691Y009213D02*
X019501Y009213D01*
X019467Y009221D02*
X019688Y009221D01*
X019684Y009230D02*
X019467Y009230D01*
X019467Y009238D02*
X019679Y009238D01*
X019673Y009247D02*
X019467Y009247D01*
X019467Y009255D02*
X019667Y009255D01*
X019662Y009264D02*
X019467Y009264D01*
X019467Y009272D02*
X019656Y009272D01*
X019650Y009281D02*
X019467Y009281D01*
X019467Y009289D02*
X019641Y009289D01*
X019633Y009298D02*
X019467Y009298D01*
X019467Y009306D02*
X019624Y009306D01*
X019616Y009315D02*
X019467Y009315D01*
X019467Y009324D02*
X019605Y009324D01*
X019592Y009332D02*
X019467Y009332D01*
X019467Y009341D02*
X019579Y009341D01*
X019566Y009349D02*
X019467Y009349D01*
X019467Y009358D02*
X019548Y009358D01*
X019526Y009366D02*
X019467Y009366D01*
X019467Y009375D02*
X019502Y009375D01*
X019504Y009452D02*
X019281Y009452D01*
X019244Y009460D02*
X019533Y009460D01*
X019525Y009455D02*
X019372Y009431D01*
X019232Y009463D01*
X019125Y009547D01*
X019059Y009680D01*
X019052Y009738D01*
X019052Y009740D01*
X019054Y009745D01*
X019169Y009745D01*
X019175Y009701D01*
X019201Y009654D01*
X019245Y009622D01*
X019281Y009606D01*
X019340Y009595D01*
X019414Y009593D01*
X019464Y009600D01*
X019510Y009615D01*
X019552Y009637D01*
X019593Y009704D01*
X019602Y009775D01*
X019578Y009846D01*
X019538Y009890D01*
X019489Y009912D01*
X019427Y009927D01*
X019370Y009927D01*
X019293Y009917D01*
X019228Y009887D01*
X019195Y009853D01*
X019174Y009814D01*
X019170Y009766D01*
X019170Y009762D01*
X019053Y009764D01*
X019063Y009843D01*
X019085Y009907D01*
X019139Y009985D01*
X019189Y010028D01*
X019281Y010069D01*
X019367Y010080D01*
X019450Y010070D01*
X019547Y010043D01*
X019598Y010011D01*
X019643Y009964D01*
X019674Y009920D01*
X019699Y009847D01*
X019709Y009748D01*
X019693Y009630D01*
X019623Y009518D01*
X019525Y009455D01*
X019546Y009469D02*
X019225Y009469D01*
X019214Y009477D02*
X019560Y009477D01*
X019573Y009486D02*
X019203Y009486D01*
X019192Y009494D02*
X019586Y009494D01*
X019600Y009503D02*
X019181Y009503D01*
X019170Y009512D02*
X019613Y009512D01*
X019624Y009520D02*
X019159Y009520D01*
X019149Y009529D02*
X019630Y009529D01*
X019635Y009537D02*
X019138Y009537D01*
X019127Y009546D02*
X019640Y009546D01*
X019646Y009554D02*
X019121Y009554D01*
X019117Y009563D02*
X019651Y009563D01*
X019656Y009571D02*
X019113Y009571D01*
X019109Y009580D02*
X019662Y009580D01*
X019667Y009588D02*
X019105Y009588D01*
X019100Y009597D02*
X019330Y009597D01*
X019366Y010086D02*
X019540Y010052D01*
X019550Y010041D02*
X019219Y010041D01*
X019238Y010050D02*
X019523Y010050D01*
X019492Y010058D02*
X019257Y010058D01*
X019276Y010067D02*
X019461Y010067D01*
X019406Y010075D02*
X019331Y010075D01*
X019336Y009601D02*
X019433Y009602D01*
X019442Y009597D02*
X019672Y009597D01*
X019678Y009606D02*
X019481Y009606D01*
X019507Y009614D02*
X019683Y009614D01*
X019688Y009623D02*
X019524Y009623D01*
X019541Y009631D02*
X019693Y009631D01*
X019694Y009640D02*
X019554Y009640D01*
X019559Y009648D02*
X019696Y009648D01*
X019697Y009657D02*
X019564Y009657D01*
X019569Y009665D02*
X019698Y009665D01*
X019699Y009674D02*
X019575Y009674D01*
X019580Y009682D02*
X019700Y009682D01*
X019701Y009691D02*
X019585Y009691D01*
X019590Y009699D02*
X019702Y009699D01*
X019704Y009708D02*
X019594Y009708D01*
X019595Y009717D02*
X019705Y009717D01*
X019706Y009725D02*
X019596Y009725D01*
X019597Y009734D02*
X019707Y009734D01*
X019708Y009742D02*
X019598Y009742D01*
X019599Y009751D02*
X019709Y009751D01*
X019708Y009759D02*
X019600Y009759D01*
X019601Y009768D02*
X019707Y009768D01*
X019706Y009776D02*
X019602Y009776D01*
X019599Y009785D02*
X019705Y009785D01*
X019704Y009793D02*
X019596Y009793D01*
X019593Y009802D02*
X019704Y009802D01*
X019703Y009811D02*
X019590Y009811D01*
X019587Y009819D02*
X019702Y009819D01*
X019701Y009828D02*
X019584Y009828D01*
X019581Y009836D02*
X019700Y009836D01*
X019699Y009845D02*
X019579Y009845D01*
X019571Y009853D02*
X019697Y009853D01*
X019694Y009862D02*
X019564Y009862D01*
X019556Y009870D02*
X019691Y009870D01*
X019688Y009879D02*
X019548Y009879D01*
X019540Y009887D02*
X019685Y009887D01*
X019682Y009896D02*
X019525Y009896D01*
X019506Y009905D02*
X019679Y009905D01*
X019676Y009913D02*
X019485Y009913D01*
X019450Y009922D02*
X019673Y009922D01*
X019667Y009930D02*
X019101Y009930D01*
X019095Y009922D02*
X019328Y009922D01*
X019284Y009913D02*
X019089Y009913D01*
X019084Y009905D02*
X019266Y009905D01*
X019247Y009896D02*
X019081Y009896D01*
X019078Y009887D02*
X019229Y009887D01*
X019220Y009879D02*
X019075Y009879D01*
X019072Y009870D02*
X019212Y009870D01*
X019204Y009862D02*
X019069Y009862D01*
X019067Y009853D02*
X019195Y009853D01*
X019191Y009845D02*
X019064Y009845D01*
X019062Y009836D02*
X019186Y009836D01*
X019181Y009828D02*
X019061Y009828D01*
X019060Y009819D02*
X019177Y009819D01*
X019174Y009811D02*
X019059Y009811D01*
X019058Y009802D02*
X019173Y009802D01*
X019172Y009793D02*
X019057Y009793D01*
X019056Y009785D02*
X019172Y009785D01*
X019171Y009776D02*
X019055Y009776D01*
X019054Y009768D02*
X019170Y009768D01*
X019174Y009758D02*
X019049Y009758D01*
X019049Y009764D01*
X019049Y009750D02*
X019176Y009750D01*
X019176Y009741D01*
X019169Y009742D02*
X019053Y009742D01*
X019053Y009734D02*
X019171Y009734D01*
X019172Y009725D02*
X019054Y009725D01*
X019055Y009717D02*
X019173Y009717D01*
X019174Y009708D02*
X019056Y009708D01*
X019057Y009699D02*
X019176Y009699D01*
X019181Y009691D02*
X019058Y009691D01*
X019059Y009682D02*
X019185Y009682D01*
X019190Y009674D02*
X019062Y009674D01*
X019066Y009665D02*
X019195Y009665D01*
X019199Y009657D02*
X019071Y009657D01*
X019075Y009648D02*
X019209Y009648D01*
X019221Y009640D02*
X019079Y009640D01*
X019083Y009631D02*
X019232Y009631D01*
X019244Y009623D02*
X019088Y009623D01*
X019092Y009614D02*
X019263Y009614D01*
X019284Y009606D02*
X019096Y009606D01*
X019716Y009747D02*
X019694Y009889D01*
X019661Y009939D02*
X019107Y009939D01*
X019113Y009947D02*
X019655Y009947D01*
X019649Y009956D02*
X019119Y009956D01*
X019125Y009964D02*
X019643Y009964D01*
X019635Y009973D02*
X019131Y009973D01*
X019136Y009981D02*
X019626Y009981D01*
X019618Y009990D02*
X019145Y009990D01*
X019155Y009999D02*
X019610Y009999D01*
X019602Y010007D02*
X019165Y010007D01*
X019175Y010016D02*
X019591Y010016D01*
X019577Y010024D02*
X019184Y010024D01*
X019199Y010033D02*
X019564Y010033D01*
X019702Y010152D02*
X019702Y010322D01*
X019316Y010322D01*
X019291Y010321D01*
X019266Y010326D01*
X019244Y010338D01*
X019206Y010371D01*
X019195Y010386D01*
X019187Y010403D01*
X019184Y010421D01*
X019182Y010455D01*
X019183Y010475D01*
X019189Y010494D01*
X019055Y010494D01*
X019056Y010485D02*
X019187Y010485D01*
X019184Y010477D02*
X019056Y010477D01*
X019057Y010469D02*
X019052Y010523D01*
X019055Y010561D01*
X019065Y010597D01*
X019081Y010628D01*
X019102Y010656D01*
X019129Y010679D01*
X019159Y010696D01*
X019159Y010698D01*
X019158Y010699D01*
X019703Y010699D01*
X019703Y010691D02*
X019149Y010691D01*
X019158Y010699D02*
X019154Y010703D01*
X019135Y010721D01*
X019105Y010752D01*
X019080Y010787D01*
X019065Y010819D01*
X019185Y010819D01*
X019184Y010827D02*
X019062Y010827D01*
X019065Y010819D02*
X019055Y010853D01*
X019183Y010853D01*
X019184Y010861D02*
X019055Y010861D01*
X019055Y010853D02*
X019053Y010888D01*
X019057Y010938D01*
X019228Y010938D01*
X019229Y010939D02*
X019213Y010928D01*
X019200Y010914D01*
X019190Y010897D01*
X019185Y010878D01*
X019182Y010841D01*
X019186Y010805D01*
X019191Y010788D01*
X019200Y010772D01*
X019212Y010759D01*
X019234Y010743D01*
X019258Y010732D01*
X019284Y010726D01*
X019328Y010723D01*
X019703Y010723D01*
X019703Y010553D01*
X019287Y010553D01*
X019260Y010550D01*
X019235Y010540D01*
X019212Y010525D01*
X019199Y010511D01*
X019053Y010511D01*
X019054Y010503D02*
X019194Y010503D01*
X019199Y010511D02*
X019189Y010494D01*
X019183Y010468D02*
X019057Y010468D01*
X019057Y010469D02*
X019067Y010426D01*
X019083Y010391D01*
X019107Y010361D01*
X019138Y010331D01*
X019155Y010318D01*
X019157Y010309D01*
X019070Y010309D01*
X019070Y010152D01*
X019702Y010152D01*
X019070Y010152D01*
X019070Y010161D02*
X019702Y010161D01*
X019702Y010169D02*
X019070Y010169D01*
X019070Y010178D02*
X019702Y010178D01*
X019702Y010186D02*
X019070Y010186D01*
X019070Y010195D02*
X019702Y010195D01*
X019702Y010204D02*
X019070Y010204D01*
X019070Y010212D02*
X019702Y010212D01*
X019702Y010221D02*
X019070Y010221D01*
X019070Y010229D02*
X019702Y010229D01*
X019702Y010238D02*
X019070Y010238D01*
X019070Y010246D02*
X019702Y010246D01*
X019702Y010255D02*
X019070Y010255D01*
X019070Y010263D02*
X019702Y010263D01*
X019702Y010272D02*
X019070Y010272D01*
X019070Y010280D02*
X019702Y010280D01*
X019702Y010289D02*
X019070Y010289D01*
X019070Y010298D02*
X019702Y010298D01*
X019702Y010306D02*
X019070Y010306D01*
X019120Y010349D02*
X019232Y010349D01*
X019241Y010340D02*
X019129Y010340D01*
X019137Y010332D02*
X019256Y010332D01*
X019281Y010323D02*
X019148Y010323D01*
X019156Y010315D02*
X019702Y010315D01*
X019703Y010554D02*
X019054Y010554D01*
X019055Y010562D02*
X019703Y010562D01*
X019703Y010571D02*
X019058Y010571D01*
X019060Y010579D02*
X019703Y010579D01*
X019703Y010588D02*
X019062Y010588D01*
X019065Y010597D02*
X019703Y010597D01*
X019703Y010605D02*
X019069Y010605D01*
X019074Y010614D02*
X019703Y010614D01*
X019703Y010622D02*
X019078Y010622D01*
X019083Y010631D02*
X019703Y010631D01*
X019703Y010639D02*
X019090Y010639D01*
X019096Y010648D02*
X019703Y010648D01*
X019703Y010656D02*
X019103Y010656D01*
X019113Y010665D02*
X019703Y010665D01*
X019703Y010673D02*
X019123Y010673D01*
X019135Y010682D02*
X019703Y010682D01*
X019703Y010708D02*
X019149Y010708D01*
X019140Y010716D02*
X019703Y010716D01*
X019703Y010956D02*
X019298Y010956D01*
X019262Y010952D01*
X019229Y010939D01*
X019215Y010930D02*
X019057Y010930D01*
X019057Y010938D02*
X019067Y010988D01*
X019080Y011022D01*
X019100Y011053D01*
X019126Y011078D01*
X019163Y011101D01*
X019204Y011116D01*
X019247Y011123D01*
X019703Y011123D01*
X019703Y010956D01*
X019703Y010964D02*
X019062Y010964D01*
X019064Y010972D02*
X019703Y010972D01*
X019703Y010981D02*
X019066Y010981D01*
X019068Y010990D02*
X019703Y010990D01*
X019703Y010998D02*
X019071Y010998D01*
X019074Y011007D02*
X019703Y011007D01*
X019703Y011015D02*
X019077Y011015D01*
X019081Y011024D02*
X019703Y011024D01*
X019703Y011032D02*
X019087Y011032D01*
X019092Y011041D02*
X019703Y011041D01*
X019703Y011049D02*
X019098Y011049D01*
X019105Y011058D02*
X019703Y011058D01*
X019703Y011066D02*
X019114Y011066D01*
X019123Y011075D02*
X019703Y011075D01*
X019703Y011084D02*
X019135Y011084D01*
X019148Y011092D02*
X019703Y011092D01*
X019703Y011101D02*
X019162Y011101D01*
X019184Y011109D02*
X019703Y011109D01*
X019703Y011118D02*
X019212Y011118D01*
X019250Y010947D02*
X019059Y010947D01*
X019061Y010955D02*
X019293Y010955D01*
X019207Y010921D02*
X019056Y010921D01*
X019055Y010913D02*
X019199Y010913D01*
X019195Y010904D02*
X019054Y010904D01*
X019054Y010896D02*
X019190Y010896D01*
X019188Y010887D02*
X019053Y010887D01*
X019054Y010878D02*
X019185Y010878D01*
X019184Y010870D02*
X019054Y010870D01*
X019058Y010844D02*
X019183Y010844D01*
X019183Y010836D02*
X019060Y010836D01*
X019069Y010810D02*
X019185Y010810D01*
X019187Y010802D02*
X019073Y010802D01*
X019077Y010793D02*
X019190Y010793D01*
X019193Y010784D02*
X019082Y010784D01*
X019088Y010776D02*
X019198Y010776D01*
X019205Y010767D02*
X019094Y010767D01*
X019100Y010759D02*
X019212Y010759D01*
X019224Y010750D02*
X019107Y010750D01*
X019115Y010742D02*
X019237Y010742D01*
X019256Y010733D02*
X019123Y010733D01*
X019132Y010725D02*
X019304Y010725D01*
X019248Y010545D02*
X019054Y010545D01*
X019053Y010537D02*
X019229Y010537D01*
X019217Y010528D02*
X019052Y010528D01*
X019052Y010520D02*
X019207Y010520D01*
X019182Y010460D02*
X019059Y010460D01*
X019061Y010451D02*
X019182Y010451D01*
X019183Y010443D02*
X019063Y010443D01*
X019065Y010434D02*
X019183Y010434D01*
X019184Y010426D02*
X019067Y010426D01*
X019071Y010417D02*
X019185Y010417D01*
X019186Y010409D02*
X019075Y010409D01*
X019079Y010400D02*
X019189Y010400D01*
X019192Y010391D02*
X019083Y010391D01*
X019089Y010383D02*
X019197Y010383D01*
X019203Y010374D02*
X019096Y010374D01*
X019103Y010366D02*
X019212Y010366D01*
X019222Y010357D02*
X019111Y010357D01*
X019311Y009437D02*
X019462Y009436D01*
X019450Y009443D02*
X019319Y009443D01*
X019356Y009435D02*
X019395Y009435D01*
X019302Y009911D02*
X019401Y009922D01*
X019523Y009628D02*
X019433Y009601D01*
X019523Y009891D02*
X019401Y009922D01*
X019540Y010052D02*
X019636Y009988D01*
X019695Y009889D01*
X019577Y009834D02*
X019523Y009891D01*
X019585Y009702D02*
X019561Y009659D01*
X019523Y009628D01*
X019637Y009530D02*
X019578Y009479D01*
X019289Y009375D02*
X019278Y009375D01*
X019289Y009366D02*
X019238Y009366D01*
X019214Y009358D02*
X019289Y009358D01*
X019289Y009349D02*
X019193Y009349D01*
X019179Y009341D02*
X019289Y009341D01*
X019289Y009332D02*
X019165Y009332D01*
X019152Y009324D02*
X019289Y009324D01*
X019289Y009315D02*
X019143Y009315D01*
X019134Y009306D02*
X019289Y009306D01*
X019289Y009298D02*
X019125Y009298D01*
X019117Y009289D02*
X019289Y009289D01*
X019289Y009281D02*
X019111Y009281D01*
X019105Y009272D02*
X019289Y009272D01*
X019289Y009264D02*
X019099Y009264D01*
X019094Y009255D02*
X019289Y009255D01*
X019289Y009247D02*
X019089Y009247D01*
X019086Y009238D02*
X019289Y009238D01*
X019289Y009230D02*
X019082Y009230D01*
X019079Y009221D02*
X019289Y009221D01*
X019289Y009213D02*
X019076Y009213D01*
X019073Y009204D02*
X019249Y009204D01*
X019233Y009195D02*
X019071Y009195D01*
X019069Y009187D02*
X019220Y009187D01*
X019212Y009178D02*
X019067Y009178D01*
X019065Y009170D02*
X019204Y009170D01*
X019199Y009161D02*
X019063Y009161D01*
X019061Y009153D02*
X019194Y009153D01*
X019191Y009144D02*
X019060Y009144D01*
X019059Y009136D02*
X019188Y009136D01*
X019185Y009127D02*
X019057Y009127D01*
X019056Y009119D02*
X019182Y009119D01*
X019182Y009110D02*
X019055Y009110D01*
X019054Y009101D02*
X019181Y009101D01*
X019180Y009093D02*
X019053Y009093D01*
X019053Y009084D02*
X019179Y009084D01*
X019180Y009076D02*
X019053Y009076D01*
X019053Y009067D02*
X019180Y009067D01*
X019181Y009059D02*
X019054Y009059D01*
X019054Y009050D02*
X019182Y009050D01*
X019184Y009042D02*
X019054Y009042D01*
X019058Y009016D02*
X019190Y009016D01*
X019194Y009007D02*
X019060Y009007D01*
X019062Y008999D02*
X019198Y008999D01*
X019205Y008990D02*
X019063Y008990D01*
X019065Y008982D02*
X019215Y008982D01*
X019226Y008973D02*
X019067Y008973D01*
X019071Y008965D02*
X019237Y008965D01*
X019250Y008956D02*
X019075Y008956D01*
X019079Y008948D02*
X019267Y008948D01*
X019285Y008939D02*
X019082Y008939D01*
X019086Y008931D02*
X019314Y008931D01*
X019377Y008922D02*
X019090Y008922D01*
X019337Y008013D02*
X019364Y008013D01*
X019377Y008922D02*
X019439Y008927D01*
X019500Y008941D01*
X019529Y008954D01*
X019492Y008939D02*
X019691Y008939D01*
X019689Y008931D02*
X019454Y008931D01*
X019210Y009862D02*
X019302Y009912D01*
X019224Y009643D02*
X019277Y009614D01*
X019336Y009601D01*
X019310Y009437D02*
X019187Y009487D01*
X019097Y009584D01*
X019224Y009643D02*
X019189Y009686D01*
X019176Y009741D01*
X019184Y009820D02*
X019210Y009861D01*
X019126Y009978D02*
X019060Y009852D01*
X019126Y009978D02*
X019234Y010058D01*
X019366Y010086D01*
X019049Y009750D02*
X019063Y009664D01*
X019098Y009584D01*
X019637Y009530D02*
X019695Y009632D01*
X019716Y009747D01*
X019585Y009702D02*
X019594Y009769D01*
X019577Y009834D01*
X019578Y009479D02*
X019461Y009436D01*
X019049Y009764D02*
X019060Y009852D01*
X019184Y009820D02*
X019174Y009758D01*
X019150Y008032D02*
X019165Y008021D01*
X018196Y006682D02*
X018195Y006675D01*
X018195Y006675D01*
X018197Y006668D01*
X018200Y006662D01*
X018224Y006629D01*
X018229Y006624D01*
X018222Y006632D02*
X018191Y006632D01*
X018190Y006626D02*
X018193Y006663D01*
X018196Y006682D01*
X018194Y006667D02*
X018198Y006667D01*
X018193Y006658D02*
X018203Y006658D01*
X018209Y006650D02*
X018192Y006650D01*
X018191Y006641D02*
X018215Y006641D01*
D14*
X019611Y008618D03*
D15*
X019516Y012741D02*
X019437Y012741D01*
X019437Y013252D01*
X019516Y013252D01*
X019516Y012741D01*
X020540Y012741D01*
X020540Y013252D01*
X020540Y013804D02*
X020540Y014315D01*
X019516Y014315D01*
X019437Y014315D01*
X019437Y013804D01*
X019516Y013804D01*
X019516Y014315D01*
X019477Y014315D02*
X019477Y013804D01*
X019477Y013252D02*
X019477Y012741D01*
M02*
