G75*
G70*
%OFA0B0*%
%FSLAX24Y24*%
%IPPOS*%
%LPD*%
%AMOC8*
5,1,8,0,0,1.08239X$1,22.5*
%
%ADD10C,0.0474*%
%ADD11OC8,0.0720*%
%ADD12C,0.1380*%
%ADD13R,0.0946X0.0415*%
%ADD14R,0.0493X0.0474*%
D10*
X006528Y006528D03*
X006528Y007512D03*
X007512Y007512D03*
X007512Y006528D03*
X008497Y006528D03*
X009481Y006528D03*
X009481Y007512D03*
X008497Y007512D03*
X008497Y008497D03*
X009481Y008497D03*
X009481Y009481D03*
X009481Y010465D03*
X009481Y011449D03*
X008497Y011449D03*
X008497Y010465D03*
X008497Y009481D03*
X007512Y009481D03*
X006528Y009481D03*
X006528Y010465D03*
X006528Y011449D03*
X007512Y011449D03*
X007512Y010465D03*
X007512Y012434D03*
X006528Y012434D03*
X006528Y013418D03*
X006528Y014402D03*
X006528Y015386D03*
X007512Y015386D03*
X007512Y014402D03*
X007512Y013418D03*
X008497Y013418D03*
X009481Y013418D03*
X009481Y014402D03*
X009481Y015386D03*
X008497Y015386D03*
X008497Y014402D03*
X008497Y016371D03*
X009481Y016371D03*
X010465Y016371D03*
X011449Y016371D03*
X012434Y016371D03*
X012434Y015386D03*
X012434Y014402D03*
X012434Y013418D03*
X011449Y013418D03*
X010465Y013418D03*
X010465Y014402D03*
X010465Y015386D03*
X011449Y015386D03*
X011449Y014402D03*
X011449Y012434D03*
X010465Y012434D03*
X010465Y011449D03*
X010465Y010465D03*
X010465Y009481D03*
X011449Y009481D03*
X011449Y010465D03*
X011449Y011449D03*
X012434Y011449D03*
X012434Y010465D03*
X012434Y009481D03*
X013418Y009481D03*
X013418Y010465D03*
X014402Y010465D03*
X014402Y009481D03*
X015386Y009481D03*
X015386Y010465D03*
X015386Y011449D03*
X015386Y012434D03*
X016371Y011449D03*
X016371Y010465D03*
X016371Y009481D03*
X016371Y008497D03*
X015386Y008497D03*
X015386Y007512D03*
X015386Y006528D03*
X016371Y006528D03*
X016371Y007512D03*
X014402Y007512D03*
X014402Y006528D03*
X013418Y006528D03*
X013418Y007512D03*
X013418Y008497D03*
X014402Y008497D03*
X012434Y008497D03*
X012434Y007512D03*
X012434Y006528D03*
X011449Y006528D03*
X010465Y006528D03*
X010465Y007512D03*
X011449Y007512D03*
X011449Y008497D03*
X010465Y008497D03*
X013418Y011449D03*
X014402Y011449D03*
X014402Y012434D03*
X013418Y012434D03*
X013418Y013418D03*
X013418Y014402D03*
X014402Y014402D03*
X014402Y013418D03*
X015386Y013418D03*
X015386Y014402D03*
X015386Y015386D03*
X015386Y016371D03*
X016371Y016371D03*
X016371Y015386D03*
X016371Y014402D03*
X016371Y013418D03*
X014402Y015386D03*
X013418Y015386D03*
X013418Y016371D03*
X014402Y016371D03*
X012434Y012434D03*
X009481Y012434D03*
X008497Y012434D03*
X007512Y016371D03*
X006528Y016371D03*
X006528Y008497D03*
X007512Y008497D03*
D11*
X002528Y008028D03*
X002528Y007028D03*
X001528Y007028D03*
X001528Y008028D03*
X001528Y009028D03*
X001528Y010028D03*
X001528Y011028D03*
X001528Y012028D03*
X001528Y013028D03*
X001528Y014028D03*
X001528Y015028D03*
X001528Y016028D03*
X002528Y016028D03*
X002528Y015028D03*
X002528Y014028D03*
X002528Y013028D03*
X002528Y012028D03*
X002528Y011028D03*
X002528Y010028D03*
X002528Y009028D03*
X007028Y002528D03*
X007028Y001528D03*
X008028Y001528D03*
X008028Y002528D03*
X009028Y002528D03*
X009028Y001528D03*
X010028Y001528D03*
X010028Y002528D03*
X011028Y002528D03*
X011028Y001528D03*
X012028Y001528D03*
X012028Y002528D03*
X013028Y002528D03*
X013028Y001528D03*
X014028Y001528D03*
X014028Y002528D03*
X015028Y002528D03*
X015028Y001528D03*
X016028Y001528D03*
X016028Y002528D03*
X016028Y020528D03*
X015028Y020528D03*
X014028Y020528D03*
X013028Y020528D03*
X012028Y020528D03*
X011028Y020528D03*
X010028Y020528D03*
X009028Y020528D03*
X008028Y020528D03*
X007028Y020528D03*
X007028Y021528D03*
X008028Y021528D03*
X009028Y021528D03*
X010028Y021528D03*
X011028Y021528D03*
X012028Y021528D03*
X013028Y021528D03*
X014028Y021528D03*
X015028Y021528D03*
X016028Y021528D03*
D12*
X002028Y002028D03*
X002028Y021028D03*
X021028Y021028D03*
X021028Y002028D03*
D13*
X020028Y012987D03*
X020028Y014069D03*
D14*
X019428Y013528D03*
X020628Y013528D03*
M02*
