G75*
%MOIN*%
%OFA0B0*%
%FSLAX25Y25*%
%IPPOS*%
%LPD*%
%AMOC8*
5,1,8,0,0,1.08239X$1,22.5*
%
%ADD10C,0.01800*%
%ADD11C,0.00400*%
%ADD12C,0.03200*%
%ADD13C,0.00500*%
D10*
X0170812Y0219495D02*
X0173514Y0219495D01*
X0170812Y0219495D02*
X0168109Y0222198D01*
X0168109Y0235709D01*
X0162345Y0233007D02*
X0156940Y0233007D01*
X0159642Y0238412D02*
X0159642Y0224900D01*
X0151295Y0224900D02*
X0151295Y0235709D01*
X0151295Y0230305D02*
X0145891Y0235709D01*
X0143188Y0235709D01*
X0137483Y0227602D02*
X0134781Y0230305D01*
X0126674Y0230305D01*
X0126674Y0233007D02*
X0126674Y0224900D01*
X0134781Y0224900D01*
X0137483Y0227602D01*
X0134781Y0235709D02*
X0129376Y0235709D01*
X0126674Y0233007D01*
X0120909Y0235709D02*
X0120909Y0224900D01*
X0115505Y0224900D02*
X0115505Y0233007D01*
X0112802Y0235709D01*
X0110100Y0233007D01*
X0110100Y0224900D01*
X0104335Y0227602D02*
X0104335Y0233007D01*
X0101633Y0235709D01*
X0096228Y0235709D01*
X0093526Y0233007D01*
X0093526Y0230305D01*
X0104335Y0230305D01*
X0104335Y0227602D02*
X0101633Y0224900D01*
X0096228Y0224900D01*
X0087761Y0224900D02*
X0085059Y0224900D01*
X0085059Y0227602D01*
X0087761Y0227602D01*
X0087761Y0224900D01*
X0079474Y0227602D02*
X0076771Y0224900D01*
X0068665Y0224900D01*
X0062900Y0227602D02*
X0060197Y0224900D01*
X0054793Y0224900D01*
X0052090Y0227602D01*
X0052090Y0233007D01*
X0054793Y0235709D01*
X0060197Y0235709D01*
X0062900Y0233007D01*
X0062900Y0227602D01*
X0068665Y0235709D02*
X0076771Y0235709D01*
X0079474Y0233007D01*
X0079474Y0227602D01*
X0079813Y0253400D02*
X0087920Y0253400D01*
X0090622Y0256102D01*
X0090622Y0261507D01*
X0087920Y0264209D01*
X0079813Y0264209D01*
X0074048Y0261507D02*
X0074048Y0256102D01*
X0071346Y0253400D01*
X0065941Y0253400D01*
X0063239Y0256102D01*
X0063239Y0261507D01*
X0065941Y0264209D01*
X0071346Y0264209D01*
X0074048Y0261507D01*
X0057474Y0264209D02*
X0057474Y0253400D01*
X0052069Y0253400D02*
X0052069Y0261507D01*
X0049367Y0264209D01*
X0046665Y0261507D01*
X0046665Y0253400D01*
X0052069Y0261507D02*
X0054771Y0264209D01*
X0057474Y0264209D01*
X0046325Y0235709D02*
X0043623Y0235709D01*
X0040921Y0233007D01*
X0038218Y0235709D01*
X0035516Y0233007D01*
X0035516Y0224900D01*
X0040921Y0224900D02*
X0040921Y0233007D01*
X0046325Y0235709D02*
X0046325Y0224900D01*
X0096207Y0253400D02*
X0098909Y0253400D01*
X0098909Y0256102D01*
X0096207Y0256102D01*
X0096207Y0253400D01*
X0104674Y0253400D02*
X0112781Y0253400D01*
X0115483Y0256102D01*
X0115483Y0261507D01*
X0112781Y0264209D01*
X0104674Y0264209D01*
X0121248Y0264209D02*
X0129355Y0264209D01*
X0132057Y0261507D01*
X0132057Y0256102D01*
X0129355Y0253400D01*
X0121248Y0253400D01*
X0121248Y0269614D01*
X0137702Y0264209D02*
X0143107Y0264209D01*
X0140405Y0266912D02*
X0140405Y0256102D01*
X0137702Y0253400D01*
X0148872Y0258805D02*
X0159681Y0258805D01*
X0159681Y0261507D02*
X0159681Y0256102D01*
X0156979Y0253400D01*
X0151574Y0253400D01*
X0148872Y0258805D02*
X0148872Y0261507D01*
X0151574Y0264209D01*
X0156979Y0264209D01*
X0159681Y0261507D01*
X0165446Y0261507D02*
X0165446Y0253400D01*
X0165446Y0261507D02*
X0168148Y0264209D01*
X0176255Y0264209D01*
X0176255Y0253400D01*
X0181840Y0253400D02*
X0184542Y0253400D01*
X0184542Y0256102D01*
X0181840Y0256102D01*
X0181840Y0253400D01*
X0190307Y0256102D02*
X0190307Y0264209D01*
X0190307Y0256102D02*
X0193010Y0253400D01*
X0195712Y0256102D01*
X0198414Y0253400D01*
X0201116Y0256102D01*
X0201116Y0264209D01*
X0206881Y0264209D02*
X0206881Y0256102D01*
X0209584Y0253400D01*
X0212286Y0256102D01*
X0214988Y0253400D01*
X0217691Y0256102D01*
X0217691Y0264209D01*
X0223456Y0264209D02*
X0223456Y0256102D01*
X0226158Y0253400D01*
X0228860Y0256102D01*
X0231562Y0253400D01*
X0234265Y0256102D01*
X0234265Y0264209D01*
X0228881Y0235709D02*
X0228881Y0224900D01*
X0236988Y0224900D01*
X0239691Y0227602D01*
X0239691Y0235709D01*
X0245456Y0235709D02*
X0253562Y0235709D01*
X0256265Y0233007D01*
X0253562Y0230305D01*
X0248158Y0230305D01*
X0245456Y0227602D01*
X0248158Y0224900D01*
X0256265Y0224900D01*
X0223116Y0224900D02*
X0215010Y0224900D01*
X0212307Y0227602D01*
X0212307Y0233007D01*
X0215010Y0235709D01*
X0223116Y0235709D01*
X0223116Y0219495D01*
X0206542Y0219495D02*
X0206542Y0235709D01*
X0198435Y0235709D01*
X0195733Y0233007D01*
X0195733Y0227602D01*
X0198435Y0224900D01*
X0206542Y0224900D01*
X0189968Y0224900D02*
X0184564Y0224900D01*
X0187266Y0224900D02*
X0187266Y0241114D01*
X0189968Y0241114D01*
X0178919Y0235709D02*
X0178919Y0227602D01*
X0176216Y0224900D01*
X0168109Y0224900D01*
X0159642Y0238412D02*
X0156940Y0241114D01*
X0120909Y0235709D02*
X0118207Y0235709D01*
X0115505Y0233007D01*
D11*
X0047777Y0049700D02*
X0046409Y0049700D01*
X0047777Y0049700D02*
X0048461Y0050384D01*
X0048461Y0051752D01*
X0047777Y0052436D01*
X0046409Y0052436D01*
X0045725Y0051752D01*
X0045725Y0051068D01*
X0048461Y0051068D01*
X0049869Y0052436D02*
X0049869Y0049016D01*
X0050553Y0048332D01*
X0051237Y0048332D01*
X0051921Y0049700D02*
X0049869Y0049700D01*
X0051921Y0049700D02*
X0052604Y0050384D01*
X0052604Y0051752D01*
X0051921Y0052436D01*
X0049869Y0052436D01*
X0054012Y0052436D02*
X0056064Y0052436D01*
X0056748Y0051752D01*
X0056748Y0050384D01*
X0056064Y0049700D01*
X0054012Y0049700D01*
X0054012Y0053804D01*
X0058156Y0051752D02*
X0058156Y0049700D01*
X0060208Y0049700D01*
X0060891Y0050384D01*
X0060208Y0051068D01*
X0058156Y0051068D01*
X0058156Y0051752D02*
X0058840Y0052436D01*
X0060208Y0052436D01*
X0062299Y0051752D02*
X0062983Y0052436D01*
X0065035Y0052436D01*
X0065035Y0053804D02*
X0065035Y0049700D01*
X0062983Y0049700D01*
X0062299Y0050384D01*
X0062299Y0051752D01*
X0066443Y0051752D02*
X0069179Y0051752D01*
X0070586Y0051752D02*
X0070586Y0050384D01*
X0071270Y0049700D01*
X0072638Y0049700D01*
X0073322Y0050384D01*
X0073322Y0051752D02*
X0071954Y0052436D01*
X0071270Y0052436D01*
X0070586Y0051752D01*
X0070586Y0053804D02*
X0073322Y0053804D01*
X0073322Y0051752D01*
X0074730Y0049700D02*
X0077466Y0049700D01*
X0076098Y0049700D02*
X0076098Y0053804D01*
X0077466Y0052436D01*
X0078874Y0053120D02*
X0078874Y0050384D01*
X0079557Y0049700D01*
X0080925Y0049700D01*
X0081609Y0050384D01*
X0078874Y0053120D01*
X0079557Y0053804D01*
X0080925Y0053804D01*
X0081609Y0053120D01*
X0081609Y0050384D01*
X0083017Y0049700D02*
X0085753Y0049700D01*
X0083017Y0052436D01*
X0083017Y0053120D01*
X0083701Y0053804D01*
X0085069Y0053804D01*
X0085753Y0053120D01*
X0087161Y0051752D02*
X0089896Y0051752D01*
X0091304Y0051752D02*
X0091304Y0051068D01*
X0094040Y0051068D01*
X0094040Y0051752D02*
X0093356Y0052436D01*
X0091988Y0052436D01*
X0091304Y0051752D01*
X0091988Y0049700D02*
X0093356Y0049700D01*
X0094040Y0050384D01*
X0094040Y0051752D01*
X0095448Y0051752D02*
X0095448Y0049700D01*
X0095448Y0051752D02*
X0096132Y0052436D01*
X0098183Y0052436D01*
X0098183Y0049700D01*
X0099591Y0050384D02*
X0099591Y0051752D01*
X0100275Y0052436D01*
X0101643Y0052436D01*
X0102327Y0051752D01*
X0102327Y0050384D01*
X0101643Y0049700D01*
X0100275Y0049700D01*
X0099591Y0050384D01*
X0103728Y0052436D02*
X0104412Y0052436D01*
X0105780Y0051068D01*
X0105780Y0049700D02*
X0105780Y0052436D01*
X0107188Y0051752D02*
X0107188Y0051068D01*
X0109923Y0051068D01*
X0109923Y0051752D02*
X0109239Y0052436D01*
X0107872Y0052436D01*
X0107188Y0051752D01*
X0107872Y0049700D02*
X0109239Y0049700D01*
X0109923Y0050384D01*
X0109923Y0051752D01*
X0111331Y0052436D02*
X0111331Y0049016D01*
X0112015Y0048332D01*
X0112699Y0048332D01*
X0113383Y0049700D02*
X0111331Y0049700D01*
X0113383Y0049700D02*
X0114067Y0050384D01*
X0114067Y0052436D01*
X0115475Y0051752D02*
X0115475Y0049700D01*
X0117527Y0049700D01*
X0118210Y0050384D01*
X0117527Y0051068D01*
X0115475Y0051068D01*
X0115475Y0051752D02*
X0116159Y0052436D01*
X0117527Y0052436D01*
X0120289Y0053804D02*
X0120289Y0049700D01*
X0120973Y0049700D02*
X0119605Y0049700D01*
X0122381Y0051752D02*
X0125116Y0051752D01*
X0126524Y0053120D02*
X0129260Y0050384D01*
X0129260Y0049700D01*
X0130668Y0050384D02*
X0131352Y0049700D01*
X0132720Y0049700D01*
X0133403Y0050384D01*
X0130668Y0053120D01*
X0130668Y0050384D01*
X0133403Y0050384D02*
X0133403Y0053120D01*
X0132720Y0053804D01*
X0131352Y0053804D01*
X0130668Y0053120D01*
X0129260Y0053804D02*
X0126524Y0053804D01*
X0126524Y0053120D01*
X0120973Y0053804D02*
X0120289Y0053804D01*
X0134811Y0053120D02*
X0134811Y0052436D01*
X0137547Y0049700D01*
X0134811Y0049700D01*
X0138955Y0051752D02*
X0141691Y0051752D01*
X0139639Y0053804D01*
X0139639Y0049700D01*
X0137547Y0053120D02*
X0136863Y0053804D01*
X0135495Y0053804D01*
X0134811Y0053120D01*
X0143098Y0053804D02*
X0145834Y0049700D01*
X0147229Y0049700D02*
X0147913Y0050384D01*
X0147913Y0053120D01*
X0148596Y0052436D02*
X0147229Y0052436D01*
X0150004Y0052436D02*
X0152056Y0052436D01*
X0152740Y0051752D01*
X0152740Y0050384D01*
X0152056Y0049700D01*
X0150004Y0049700D01*
X0154148Y0051068D02*
X0156884Y0051068D01*
X0156884Y0051752D02*
X0156200Y0052436D01*
X0154832Y0052436D01*
X0154148Y0051752D01*
X0154148Y0051068D01*
X0154832Y0049700D02*
X0156200Y0049700D01*
X0156884Y0050384D01*
X0156884Y0051752D01*
X0158278Y0052436D02*
X0158278Y0049016D01*
X0158962Y0048332D01*
X0159646Y0048332D01*
X0161054Y0050384D02*
X0161738Y0049700D01*
X0163105Y0049700D01*
X0163789Y0050384D01*
X0163789Y0051752D01*
X0163105Y0052436D01*
X0161738Y0052436D01*
X0161054Y0051752D01*
X0161054Y0050384D01*
X0158278Y0053804D02*
X0158278Y0054487D01*
X0165191Y0052436D02*
X0165875Y0052436D01*
X0167242Y0051068D01*
X0167242Y0049700D02*
X0167242Y0052436D01*
X0168650Y0051752D02*
X0168650Y0050384D01*
X0169334Y0049700D01*
X0171386Y0049700D01*
X0171386Y0048332D02*
X0171386Y0052436D01*
X0169334Y0052436D01*
X0168650Y0051752D01*
X0172794Y0053804D02*
X0175529Y0049700D01*
X0176937Y0050384D02*
X0177621Y0049700D01*
X0178989Y0049700D01*
X0179673Y0050384D01*
X0179673Y0051752D01*
X0178989Y0052436D01*
X0177621Y0052436D01*
X0176937Y0051752D01*
X0176937Y0050384D01*
X0181067Y0049700D02*
X0182435Y0049700D01*
X0181751Y0049700D02*
X0181751Y0052436D01*
X0182435Y0052436D01*
X0181751Y0053804D02*
X0181751Y0054487D01*
X0183823Y0050384D02*
X0183823Y0049700D01*
X0184507Y0049700D01*
X0184507Y0050384D01*
X0183823Y0050384D01*
X0185915Y0049700D02*
X0187967Y0049700D01*
X0188651Y0050384D01*
X0188651Y0052436D01*
X0190058Y0051752D02*
X0190058Y0049700D01*
X0192110Y0049700D01*
X0192794Y0050384D01*
X0192110Y0051068D01*
X0190058Y0051068D01*
X0190058Y0051752D02*
X0190742Y0052436D01*
X0192110Y0052436D01*
X0194202Y0052436D02*
X0196254Y0052436D01*
X0196938Y0051752D01*
X0196938Y0050384D01*
X0196254Y0049700D01*
X0194202Y0049700D01*
X0194202Y0053804D01*
X0198346Y0051752D02*
X0198346Y0049700D01*
X0200397Y0049700D01*
X0201081Y0050384D01*
X0200397Y0051068D01*
X0198346Y0051068D01*
X0198346Y0051752D02*
X0199029Y0052436D01*
X0200397Y0052436D01*
X0202482Y0052436D02*
X0204534Y0051068D01*
X0202482Y0049700D01*
X0204534Y0049700D02*
X0204534Y0053804D01*
X0205942Y0052436D02*
X0207994Y0052436D01*
X0208678Y0051752D01*
X0208678Y0050384D01*
X0207994Y0049700D01*
X0205942Y0049700D01*
X0210086Y0049700D02*
X0210086Y0051752D01*
X0210770Y0052436D01*
X0212137Y0052436D01*
X0212137Y0051068D02*
X0210086Y0051068D01*
X0210086Y0049700D02*
X0212137Y0049700D01*
X0212821Y0050384D01*
X0212137Y0051068D01*
X0214229Y0051752D02*
X0214229Y0049700D01*
X0214229Y0051752D02*
X0214913Y0052436D01*
X0216281Y0052436D01*
X0216965Y0051752D01*
X0216965Y0053804D02*
X0216965Y0049700D01*
X0187283Y0048332D02*
X0186599Y0048332D01*
X0185915Y0049016D01*
X0185915Y0052436D01*
D12*
X0223010Y0097516D02*
X0247565Y0097516D01*
X0235288Y0109793D02*
X0235288Y0085239D01*
X0049565Y0163516D02*
X0025010Y0163516D01*
X0037288Y0175793D02*
X0037288Y0151239D01*
D13*
X0096326Y0140748D02*
X0096291Y0140354D01*
X0096291Y0138693D01*
X0098456Y0138693D01*
X0098456Y0140327D01*
X0098578Y0140681D01*
X0099059Y0141303D01*
X0099496Y0141567D01*
X0100137Y0141787D01*
X0102602Y0142602D01*
X0117212Y0137130D01*
X0117212Y0139866D01*
X0110448Y0142240D01*
X0105759Y0143772D01*
X0105759Y0143862D01*
X0110417Y0145398D01*
X0117212Y0147709D01*
X0117212Y0150295D01*
X0099145Y0143894D01*
X0098547Y0143673D01*
X0098055Y0143421D01*
X0097673Y0143142D01*
X0097295Y0142862D01*
X0097003Y0142551D01*
X0096803Y0142209D01*
X0096602Y0141870D01*
X0096468Y0141508D01*
X0096397Y0141126D01*
X0096326Y0140748D01*
X0096371Y0140987D02*
X0098814Y0140987D01*
X0098512Y0140488D02*
X0096303Y0140488D01*
X0096291Y0139990D02*
X0098456Y0139990D01*
X0098456Y0139491D02*
X0096291Y0139491D01*
X0096291Y0138993D02*
X0098456Y0138993D01*
X0099360Y0141485D02*
X0096464Y0141485D01*
X0096669Y0141984D02*
X0100731Y0141984D01*
X0102238Y0142482D02*
X0096963Y0142482D01*
X0097455Y0142981D02*
X0108181Y0142981D01*
X0107622Y0144476D02*
X0100789Y0144476D01*
X0099382Y0143978D02*
X0106110Y0143978D01*
X0106655Y0143479D02*
X0098168Y0143479D01*
X0102196Y0144975D02*
X0109134Y0144975D01*
X0110639Y0145473D02*
X0103603Y0145473D01*
X0105010Y0145972D02*
X0112105Y0145972D01*
X0113571Y0146470D02*
X0106417Y0146470D01*
X0107824Y0146969D02*
X0115036Y0146969D01*
X0116502Y0147467D02*
X0109231Y0147467D01*
X0110638Y0147966D02*
X0117212Y0147966D01*
X0117212Y0148464D02*
X0112044Y0148464D01*
X0113451Y0148963D02*
X0117212Y0148963D01*
X0117212Y0149461D02*
X0114858Y0149461D01*
X0116265Y0149960D02*
X0117212Y0149960D01*
X0117212Y0150953D02*
X0117212Y0152787D01*
X0121669Y0152787D01*
X0122645Y0153157D01*
X0123287Y0153898D01*
X0123925Y0154642D01*
X0124244Y0155551D01*
X0124244Y0158409D01*
X0121988Y0158409D01*
X0121988Y0156213D01*
X0121799Y0155783D01*
X0121417Y0155571D01*
X0121039Y0155358D01*
X0120586Y0155252D01*
X0117212Y0155252D01*
X0117212Y0158409D01*
X0115047Y0158409D01*
X0115047Y0155252D01*
X0102303Y0155252D01*
X0102303Y0152787D01*
X0115047Y0152787D01*
X0115047Y0150953D01*
X0117212Y0150953D01*
X0117212Y0150957D02*
X0115047Y0150957D01*
X0115047Y0151455D02*
X0117212Y0151455D01*
X0117212Y0151954D02*
X0115047Y0151954D01*
X0115047Y0152452D02*
X0117212Y0152452D01*
X0117212Y0155443D02*
X0115047Y0155443D01*
X0115047Y0155942D02*
X0117212Y0155942D01*
X0117212Y0156440D02*
X0115047Y0156440D01*
X0115047Y0156939D02*
X0117212Y0156939D01*
X0117212Y0157437D02*
X0115047Y0157437D01*
X0115047Y0157936D02*
X0117212Y0157936D01*
X0117212Y0160724D02*
X0117212Y0163189D01*
X0115318Y0163189D01*
X0115318Y0163307D01*
X0116078Y0163827D01*
X0116610Y0164409D01*
X0116909Y0165051D01*
X0117212Y0165693D01*
X0117362Y0166413D01*
X0117362Y0167736D01*
X0117307Y0168217D01*
X0117086Y0169098D01*
X0116929Y0169461D01*
X0116728Y0169740D01*
X0114354Y0168689D01*
X0114736Y0168106D01*
X0114925Y0167406D01*
X0114925Y0165602D01*
X0114625Y0164791D01*
X0114023Y0164150D01*
X0113425Y0163508D01*
X0112523Y0163189D01*
X0102303Y0163189D01*
X0102303Y0160724D01*
X0117212Y0160724D01*
X0117212Y0160927D02*
X0102303Y0160927D01*
X0102303Y0161426D02*
X0117212Y0161426D01*
X0117212Y0161924D02*
X0102303Y0161924D01*
X0102303Y0162423D02*
X0117212Y0162423D01*
X0117212Y0162921D02*
X0102303Y0162921D01*
X0105259Y0170102D02*
X0107121Y0170102D01*
X0107677Y0170201D01*
X0108740Y0170602D01*
X0109204Y0170898D01*
X0110007Y0171677D01*
X0110326Y0172169D01*
X0110566Y0172760D01*
X0110810Y0173350D01*
X0110929Y0174047D01*
X0110929Y0179539D01*
X0113433Y0179539D01*
X0114043Y0179268D01*
X0114444Y0178724D01*
X0114846Y0178185D01*
X0115047Y0177315D01*
X0115047Y0175169D01*
X0114933Y0174429D01*
X0114700Y0173886D01*
X0114472Y0173346D01*
X0114153Y0172906D01*
X0113755Y0172563D01*
X0115405Y0171004D01*
X0116047Y0171563D01*
X0116535Y0172283D01*
X0116866Y0173161D01*
X0117196Y0174043D01*
X0117362Y0174992D01*
X0117362Y0176811D01*
X0117287Y0177571D01*
X0117133Y0178303D01*
X0116984Y0179031D01*
X0116728Y0179669D01*
X0116370Y0180220D01*
X0116007Y0180768D01*
X0115515Y0181205D01*
X0114897Y0181524D01*
X0114275Y0181843D01*
X0113492Y0182000D01*
X0102303Y0182000D01*
X0102303Y0179539D01*
X0103594Y0179539D01*
X0103625Y0179508D01*
X0103184Y0179224D01*
X0102822Y0178724D01*
X0102263Y0177283D01*
X0102121Y0176409D01*
X0102121Y0173689D01*
X0102539Y0172378D01*
X0103370Y0171469D01*
X0104200Y0170555D01*
X0105259Y0170102D01*
X0104566Y0170399D02*
X0108201Y0170399D01*
X0109204Y0170897D02*
X0103889Y0170897D01*
X0103436Y0171396D02*
X0109717Y0171396D01*
X0110148Y0171894D02*
X0102981Y0171894D01*
X0102534Y0172393D02*
X0110417Y0172393D01*
X0110621Y0172891D02*
X0102375Y0172891D01*
X0102217Y0173390D02*
X0110817Y0173390D01*
X0110902Y0173888D02*
X0102121Y0173888D01*
X0102121Y0174387D02*
X0110929Y0174387D01*
X0110929Y0174885D02*
X0102121Y0174885D01*
X0102121Y0175384D02*
X0110929Y0175384D01*
X0110929Y0175882D02*
X0102121Y0175882D01*
X0102121Y0176381D02*
X0110929Y0176381D01*
X0110929Y0176879D02*
X0102198Y0176879D01*
X0102300Y0177378D02*
X0110929Y0177378D01*
X0110929Y0177876D02*
X0102493Y0177876D01*
X0102687Y0178375D02*
X0110929Y0178375D01*
X0110929Y0178873D02*
X0102930Y0178873D01*
X0103414Y0179372D02*
X0110929Y0179372D01*
X0108885Y0179372D02*
X0106036Y0179372D01*
X0106125Y0179429D02*
X0106582Y0179539D01*
X0108885Y0179539D01*
X0108885Y0174488D01*
X0108692Y0173748D01*
X0108314Y0173224D01*
X0107933Y0172705D01*
X0107393Y0172445D01*
X0105988Y0172445D01*
X0105429Y0172709D01*
X0104586Y0173772D01*
X0104377Y0174587D01*
X0104377Y0176169D01*
X0104417Y0176642D01*
X0104496Y0177102D01*
X0104578Y0177563D01*
X0104720Y0177976D01*
X0104933Y0178335D01*
X0105141Y0178697D01*
X0105425Y0178984D01*
X0105775Y0179205D01*
X0106125Y0179429D01*
X0105315Y0178873D02*
X0108885Y0178873D01*
X0108885Y0178375D02*
X0104956Y0178375D01*
X0104686Y0177876D02*
X0108885Y0177876D01*
X0108885Y0177378D02*
X0104545Y0177378D01*
X0104457Y0176879D02*
X0108885Y0176879D01*
X0108885Y0176381D02*
X0104395Y0176381D01*
X0104377Y0175882D02*
X0108885Y0175882D01*
X0108885Y0175384D02*
X0104377Y0175384D01*
X0104377Y0174885D02*
X0108885Y0174885D01*
X0108859Y0174387D02*
X0104429Y0174387D01*
X0104556Y0173888D02*
X0108729Y0173888D01*
X0108434Y0173390D02*
X0104889Y0173390D01*
X0105284Y0172891D02*
X0108070Y0172891D01*
X0113935Y0172393D02*
X0116576Y0172393D01*
X0116764Y0172891D02*
X0114137Y0172891D01*
X0114490Y0173390D02*
X0116951Y0173390D01*
X0117138Y0173888D02*
X0114701Y0173888D01*
X0114914Y0174387D02*
X0117256Y0174387D01*
X0117343Y0174885D02*
X0115003Y0174885D01*
X0115047Y0175384D02*
X0117362Y0175384D01*
X0117362Y0175882D02*
X0115047Y0175882D01*
X0115047Y0176381D02*
X0117362Y0176381D01*
X0117355Y0176879D02*
X0115047Y0176879D01*
X0115032Y0177378D02*
X0117306Y0177378D01*
X0117223Y0177876D02*
X0114917Y0177876D01*
X0114705Y0178375D02*
X0117119Y0178375D01*
X0117016Y0178873D02*
X0114334Y0178873D01*
X0113809Y0179372D02*
X0116847Y0179372D01*
X0116597Y0179870D02*
X0102303Y0179870D01*
X0102303Y0180369D02*
X0116271Y0180369D01*
X0115895Y0180868D02*
X0102303Y0180868D01*
X0102303Y0181366D02*
X0115203Y0181366D01*
X0114166Y0181865D02*
X0102303Y0181865D01*
X0102303Y0185217D02*
X0117212Y0185217D01*
X0117212Y0187681D01*
X0115377Y0187681D01*
X0115377Y0187772D01*
X0116019Y0188272D01*
X0116507Y0188890D01*
X0116850Y0189622D01*
X0117188Y0190354D01*
X0117362Y0191118D01*
X0117362Y0192941D01*
X0117169Y0193803D01*
X0116791Y0194504D01*
X0116409Y0195205D01*
X0115889Y0195819D01*
X0115228Y0196339D01*
X0115247Y0196339D01*
X0115247Y0196346D01*
X0115228Y0196366D01*
X0115988Y0197071D01*
X0116535Y0197815D01*
X0117196Y0199398D01*
X0117362Y0200287D01*
X0117362Y0201988D01*
X0117244Y0202661D01*
X0117015Y0203280D01*
X0116783Y0203902D01*
X0116452Y0204441D01*
X0116023Y0204902D01*
X0115590Y0205366D01*
X0115059Y0205724D01*
X0114417Y0205984D01*
X0113775Y0206248D01*
X0113043Y0206378D01*
X0102303Y0206378D01*
X0102303Y0203913D01*
X0112373Y0203913D01*
X0113283Y0203661D01*
X0114645Y0202654D01*
X0114988Y0201760D01*
X0114988Y0199465D01*
X0114645Y0198638D01*
X0113964Y0197996D01*
X0113283Y0197350D01*
X0112373Y0197028D01*
X0102303Y0197028D01*
X0102303Y0194567D01*
X0112373Y0194567D01*
X0113283Y0194315D01*
X0114645Y0193307D01*
X0114988Y0192409D01*
X0114988Y0190118D01*
X0114645Y0189291D01*
X0113964Y0188650D01*
X0113283Y0188004D01*
X0112373Y0187681D01*
X0102303Y0187681D01*
X0102303Y0185217D01*
X0102303Y0185354D02*
X0117212Y0185354D01*
X0117212Y0185853D02*
X0102303Y0185853D01*
X0102303Y0186351D02*
X0117212Y0186351D01*
X0117212Y0186850D02*
X0102303Y0186850D01*
X0102303Y0187348D02*
X0117212Y0187348D01*
X0116077Y0188345D02*
X0113643Y0188345D01*
X0114170Y0188844D02*
X0116471Y0188844D01*
X0116719Y0189342D02*
X0114666Y0189342D01*
X0114873Y0189841D02*
X0116951Y0189841D01*
X0117181Y0190339D02*
X0114988Y0190339D01*
X0114988Y0190838D02*
X0117298Y0190838D01*
X0117362Y0191336D02*
X0114988Y0191336D01*
X0114988Y0191835D02*
X0117362Y0191835D01*
X0117362Y0192333D02*
X0114988Y0192333D01*
X0114826Y0192832D02*
X0117362Y0192832D01*
X0117275Y0193330D02*
X0114614Y0193330D01*
X0113940Y0193829D02*
X0117155Y0193829D01*
X0116886Y0194327D02*
X0113238Y0194327D01*
X0115250Y0196321D02*
X0102303Y0196321D01*
X0102303Y0195823D02*
X0115884Y0195823D01*
X0116308Y0195324D02*
X0102303Y0195324D01*
X0102303Y0194826D02*
X0116615Y0194826D01*
X0115717Y0196820D02*
X0102303Y0196820D01*
X0102303Y0204298D02*
X0116540Y0204298D01*
X0116821Y0203799D02*
X0112786Y0203799D01*
X0113771Y0203301D02*
X0117007Y0203301D01*
X0117192Y0202802D02*
X0114444Y0202802D01*
X0114779Y0202303D02*
X0117306Y0202303D01*
X0117362Y0201805D02*
X0114970Y0201805D01*
X0114988Y0201306D02*
X0117362Y0201306D01*
X0117362Y0200808D02*
X0114988Y0200808D01*
X0114988Y0200309D02*
X0117362Y0200309D01*
X0117273Y0199811D02*
X0114988Y0199811D01*
X0114925Y0199312D02*
X0117161Y0199312D01*
X0116952Y0198814D02*
X0114718Y0198814D01*
X0114303Y0198315D02*
X0116744Y0198315D01*
X0116536Y0197817D02*
X0113775Y0197817D01*
X0113193Y0197318D02*
X0116170Y0197318D01*
X0116121Y0204796D02*
X0102303Y0204796D01*
X0102303Y0205295D02*
X0115657Y0205295D01*
X0114889Y0205793D02*
X0102303Y0205793D01*
X0102303Y0206292D02*
X0113530Y0206292D01*
X0112385Y0209453D02*
X0113377Y0209831D01*
X0114370Y0210213D01*
X0115161Y0210705D01*
X0115751Y0211303D01*
X0116342Y0211906D01*
X0116763Y0212575D01*
X0117015Y0213319D01*
X0117267Y0214059D01*
X0117389Y0214780D01*
X0117389Y0216303D01*
X0117244Y0217075D01*
X0116956Y0217795D01*
X0116665Y0218516D01*
X0116240Y0219150D01*
X0115677Y0219689D01*
X0115118Y0220232D01*
X0114429Y0220657D01*
X0113618Y0220965D01*
X0112807Y0221280D01*
X0111881Y0221433D01*
X0108913Y0221433D01*
X0108913Y0211846D01*
X0108086Y0211846D01*
X0107531Y0211925D01*
X0106484Y0212248D01*
X0106027Y0212488D01*
X0105240Y0213126D01*
X0104933Y0213528D01*
X0104708Y0214008D01*
X0104488Y0214488D01*
X0104377Y0215051D01*
X0104377Y0216173D01*
X0104496Y0216728D01*
X0104736Y0217362D01*
X0104976Y0217992D01*
X0105330Y0218555D01*
X0105791Y0219059D01*
X0104019Y0220654D01*
X0103350Y0219949D01*
X0102866Y0219157D01*
X0102566Y0218276D01*
X0102271Y0217394D01*
X0102121Y0216492D01*
X0102121Y0214811D01*
X0102228Y0214055D01*
X0102436Y0213303D01*
X0102649Y0212551D01*
X0103035Y0211878D01*
X0103594Y0211276D01*
X0104157Y0210673D01*
X0104929Y0210189D01*
X0105909Y0209815D01*
X0106889Y0209445D01*
X0108153Y0209260D01*
X0111161Y0209260D01*
X0112385Y0209453D01*
X0113247Y0209781D02*
X0105998Y0209781D01*
X0104784Y0210280D02*
X0114477Y0210280D01*
X0115233Y0210778D02*
X0104059Y0210778D01*
X0103593Y0211277D02*
X0115725Y0211277D01*
X0116214Y0211775D02*
X0103130Y0211775D01*
X0102808Y0212274D02*
X0106435Y0212274D01*
X0105676Y0212772D02*
X0102587Y0212772D01*
X0102446Y0213271D02*
X0105129Y0213271D01*
X0104820Y0213769D02*
X0102307Y0213769D01*
X0102198Y0214268D02*
X0104589Y0214268D01*
X0104433Y0214766D02*
X0102128Y0214766D01*
X0102121Y0215265D02*
X0104377Y0215265D01*
X0104377Y0215763D02*
X0102121Y0215763D01*
X0102121Y0216262D02*
X0104396Y0216262D01*
X0104508Y0216760D02*
X0102166Y0216760D01*
X0102249Y0217259D02*
X0104696Y0217259D01*
X0104886Y0217757D02*
X0102393Y0217757D01*
X0102560Y0218256D02*
X0105142Y0218256D01*
X0105512Y0218754D02*
X0102729Y0218754D01*
X0102924Y0219253D02*
X0105575Y0219253D01*
X0105022Y0219751D02*
X0103229Y0219751D01*
X0103636Y0220250D02*
X0104468Y0220250D01*
X0108913Y0220250D02*
X0115089Y0220250D01*
X0115612Y0219751D02*
X0108913Y0219751D01*
X0108913Y0219253D02*
X0116132Y0219253D01*
X0116505Y0218754D02*
X0108913Y0218754D01*
X0108913Y0218256D02*
X0116770Y0218256D01*
X0116971Y0217757D02*
X0108913Y0217757D01*
X0108913Y0217259D02*
X0117170Y0217259D01*
X0117303Y0216760D02*
X0108913Y0216760D01*
X0108913Y0216262D02*
X0117389Y0216262D01*
X0117389Y0215763D02*
X0108913Y0215763D01*
X0108913Y0215265D02*
X0117389Y0215265D01*
X0117387Y0214766D02*
X0108913Y0214766D01*
X0108913Y0214268D02*
X0117303Y0214268D01*
X0117169Y0213769D02*
X0108913Y0213769D01*
X0108913Y0213271D02*
X0116999Y0213271D01*
X0116830Y0212772D02*
X0108913Y0212772D01*
X0108913Y0212274D02*
X0116574Y0212274D01*
X0114696Y0213520D02*
X0115047Y0214339D01*
X0115047Y0216382D01*
X0114704Y0217205D01*
X0114023Y0217827D01*
X0113342Y0218445D01*
X0112330Y0218787D01*
X0110988Y0218846D01*
X0110988Y0211846D01*
X0112291Y0211925D01*
X0113295Y0212276D01*
X0114696Y0213520D01*
X0114803Y0213769D02*
X0110988Y0213769D01*
X0110988Y0213271D02*
X0114416Y0213271D01*
X0113854Y0212772D02*
X0110988Y0212772D01*
X0110988Y0212274D02*
X0113289Y0212274D01*
X0115016Y0214268D02*
X0110988Y0214268D01*
X0110988Y0214766D02*
X0115047Y0214766D01*
X0115047Y0215265D02*
X0110988Y0215265D01*
X0110988Y0215763D02*
X0115047Y0215763D01*
X0115047Y0216262D02*
X0110988Y0216262D01*
X0110988Y0216760D02*
X0114889Y0216760D01*
X0114645Y0217259D02*
X0110988Y0217259D01*
X0110988Y0217757D02*
X0114099Y0217757D01*
X0113550Y0218256D02*
X0110988Y0218256D01*
X0110988Y0218754D02*
X0112428Y0218754D01*
X0112890Y0221247D02*
X0108913Y0221247D01*
X0108913Y0220748D02*
X0114188Y0220748D01*
X0111306Y0209283D02*
X0107997Y0209283D01*
X0112840Y0187847D02*
X0115474Y0187847D01*
X0116271Y0171894D02*
X0114463Y0171894D01*
X0114990Y0171396D02*
X0115855Y0171396D01*
X0115964Y0169402D02*
X0116954Y0169402D01*
X0117135Y0168903D02*
X0114838Y0168903D01*
X0114540Y0168405D02*
X0117259Y0168405D01*
X0117342Y0167906D02*
X0114790Y0167906D01*
X0114924Y0167408D02*
X0117362Y0167408D01*
X0117362Y0166909D02*
X0114925Y0166909D01*
X0114925Y0166411D02*
X0117361Y0166411D01*
X0117258Y0165912D02*
X0114925Y0165912D01*
X0114855Y0165414D02*
X0117080Y0165414D01*
X0116845Y0164915D02*
X0114671Y0164915D01*
X0114274Y0164417D02*
X0116613Y0164417D01*
X0116162Y0163918D02*
X0113807Y0163918D01*
X0113175Y0163420D02*
X0115483Y0163420D01*
X0121988Y0157936D02*
X0124244Y0157936D01*
X0124244Y0157437D02*
X0121988Y0157437D01*
X0121988Y0156939D02*
X0124244Y0156939D01*
X0124244Y0156440D02*
X0121988Y0156440D01*
X0121868Y0155942D02*
X0124244Y0155942D01*
X0124206Y0155443D02*
X0121190Y0155443D01*
X0123330Y0153948D02*
X0102303Y0153948D01*
X0102303Y0154446D02*
X0123757Y0154446D01*
X0124031Y0154945D02*
X0102303Y0154945D01*
X0102303Y0153449D02*
X0122898Y0153449D01*
X0122100Y0152951D02*
X0102303Y0152951D01*
X0102923Y0142482D02*
X0109707Y0142482D01*
X0111179Y0141984D02*
X0104254Y0141984D01*
X0105585Y0141485D02*
X0112599Y0141485D01*
X0114020Y0140987D02*
X0106916Y0140987D01*
X0108246Y0140488D02*
X0115440Y0140488D01*
X0116860Y0139990D02*
X0109577Y0139990D01*
X0110908Y0139491D02*
X0117212Y0139491D01*
X0117212Y0138993D02*
X0112239Y0138993D01*
X0113570Y0138494D02*
X0117212Y0138494D01*
X0117212Y0137996D02*
X0114901Y0137996D01*
X0116232Y0137497D02*
X0117212Y0137497D01*
X0124121Y0134335D02*
X0124121Y0131870D01*
X0104476Y0131870D01*
X0103578Y0132213D01*
X0103070Y0132894D01*
X0102559Y0133575D01*
X0102303Y0134457D01*
X0102303Y0136591D01*
X0104559Y0136591D01*
X0104559Y0134846D01*
X0105027Y0134335D01*
X0124121Y0134335D01*
X0124121Y0134007D02*
X0102433Y0134007D01*
X0102303Y0134506D02*
X0104870Y0134506D01*
X0104559Y0135004D02*
X0102303Y0135004D01*
X0102303Y0135503D02*
X0104559Y0135503D01*
X0104559Y0136001D02*
X0102303Y0136001D01*
X0102303Y0136500D02*
X0104559Y0136500D01*
X0102608Y0133509D02*
X0124121Y0133509D01*
X0124121Y0133010D02*
X0102983Y0133010D01*
X0103355Y0132512D02*
X0124121Y0132512D01*
X0124121Y0132013D02*
X0104100Y0132013D01*
X0105279Y0127744D02*
X0104559Y0127303D01*
X0103834Y0126862D01*
X0103251Y0126264D01*
X0102799Y0125516D01*
X0102350Y0124764D01*
X0102121Y0123807D01*
X0102121Y0121902D01*
X0102240Y0121228D01*
X0102480Y0120614D01*
X0102716Y0120004D01*
X0103094Y0119476D01*
X0103606Y0119039D01*
X0103606Y0118976D01*
X0096350Y0118976D01*
X0096350Y0116512D01*
X0117212Y0116512D01*
X0117212Y0118976D01*
X0115559Y0118976D01*
X0115527Y0119067D01*
X0116188Y0119650D01*
X0116661Y0120283D01*
X0116940Y0120976D01*
X0117220Y0121665D01*
X0117362Y0122386D01*
X0117362Y0124185D01*
X0117145Y0125063D01*
X0116716Y0125756D01*
X0116283Y0126445D01*
X0115712Y0126992D01*
X0114999Y0127394D01*
X0114291Y0127791D01*
X0113488Y0128071D01*
X0112598Y0128220D01*
X0111704Y0128370D01*
X0110799Y0128445D01*
X0108913Y0128445D01*
X0107968Y0128366D01*
X0107035Y0128205D01*
X0106106Y0128043D01*
X0105279Y0127744D01*
X0104924Y0127527D02*
X0114762Y0127527D01*
X0115648Y0127028D02*
X0104107Y0127028D01*
X0103510Y0126530D02*
X0116194Y0126530D01*
X0116543Y0126031D02*
X0103111Y0126031D01*
X0102809Y0125533D02*
X0116854Y0125533D01*
X0117152Y0125034D02*
X0102511Y0125034D01*
X0102295Y0124536D02*
X0117275Y0124536D01*
X0117362Y0124037D02*
X0102176Y0124037D01*
X0102121Y0123539D02*
X0117362Y0123539D01*
X0117362Y0123040D02*
X0102121Y0123040D01*
X0102121Y0122542D02*
X0117362Y0122542D01*
X0117294Y0122043D02*
X0102121Y0122043D01*
X0102184Y0121545D02*
X0117171Y0121545D01*
X0116969Y0121046D02*
X0102311Y0121046D01*
X0102506Y0120548D02*
X0116767Y0120548D01*
X0116486Y0120049D02*
X0102698Y0120049D01*
X0103041Y0119551D02*
X0116076Y0119551D01*
X0115532Y0119052D02*
X0103591Y0119052D01*
X0105362Y0120098D02*
X0104716Y0120980D01*
X0104559Y0121583D01*
X0104559Y0123126D01*
X0104712Y0123744D01*
X0105023Y0124205D01*
X0105334Y0124669D01*
X0105740Y0125020D01*
X0106232Y0125260D01*
X0106720Y0125500D01*
X0107275Y0125657D01*
X0107889Y0125740D01*
X0108499Y0125819D01*
X0109110Y0125858D01*
X0110295Y0125858D01*
X0110893Y0125831D01*
X0111503Y0125768D01*
X0112118Y0125709D01*
X0112681Y0125571D01*
X0113192Y0125346D01*
X0113704Y0125126D01*
X0114767Y0123890D01*
X0114925Y0123276D01*
X0114925Y0121732D01*
X0114755Y0121122D01*
X0114070Y0120201D01*
X0113645Y0119843D01*
X0113133Y0119594D01*
X0112621Y0119343D01*
X0112059Y0119177D01*
X0111444Y0119098D01*
X0110830Y0119016D01*
X0110255Y0118976D01*
X0109149Y0118976D01*
X0108562Y0119012D01*
X0107334Y0119154D01*
X0106779Y0119303D01*
X0106275Y0119531D01*
X0105771Y0119764D01*
X0105362Y0120098D01*
X0105422Y0120049D02*
X0113890Y0120049D01*
X0114328Y0120548D02*
X0105033Y0120548D01*
X0104699Y0121046D02*
X0114699Y0121046D01*
X0114873Y0121545D02*
X0104568Y0121545D01*
X0104559Y0122043D02*
X0114925Y0122043D01*
X0114925Y0122542D02*
X0104559Y0122542D01*
X0104559Y0123040D02*
X0114925Y0123040D01*
X0114857Y0123539D02*
X0104661Y0123539D01*
X0104910Y0124037D02*
X0114640Y0124037D01*
X0114212Y0124536D02*
X0105245Y0124536D01*
X0105769Y0125034D02*
X0113783Y0125034D01*
X0112767Y0125533D02*
X0106835Y0125533D01*
X0106056Y0128025D02*
X0113619Y0128025D01*
X0113044Y0119551D02*
X0106234Y0119551D01*
X0108213Y0119052D02*
X0111100Y0119052D01*
X0110799Y0113449D02*
X0108913Y0113449D01*
X0107968Y0113366D01*
X0107035Y0113209D01*
X0106106Y0113047D01*
X0105279Y0112744D01*
X0104559Y0112307D01*
X0103834Y0111866D01*
X0103251Y0111268D01*
X0102799Y0110520D01*
X0102350Y0109768D01*
X0102121Y0108807D01*
X0102121Y0106906D01*
X0102240Y0106228D01*
X0102480Y0105618D01*
X0102716Y0105008D01*
X0103094Y0104480D01*
X0103606Y0104039D01*
X0103606Y0103980D01*
X0096350Y0103980D01*
X0096350Y0101516D01*
X0117212Y0101516D01*
X0117212Y0103980D01*
X0115559Y0103980D01*
X0115527Y0104071D01*
X0116188Y0104654D01*
X0116661Y0105287D01*
X0116940Y0105980D01*
X0117220Y0106669D01*
X0117362Y0107386D01*
X0117362Y0109189D01*
X0115712Y0111996D01*
X0114999Y0112398D01*
X0110799Y0113449D01*
X0112313Y0113070D02*
X0106237Y0113070D01*
X0104994Y0112571D02*
X0114305Y0112571D01*
X0115576Y0112073D02*
X0104174Y0112073D01*
X0103550Y0111574D02*
X0115960Y0111574D01*
X0116253Y0111076D02*
X0103135Y0111076D01*
X0102834Y0110577D02*
X0116546Y0110577D01*
X0116839Y0110079D02*
X0102536Y0110079D01*
X0102305Y0109580D02*
X0117132Y0109580D01*
X0117362Y0109082D02*
X0102187Y0109082D01*
X0102121Y0108583D02*
X0117362Y0108583D01*
X0117362Y0108085D02*
X0102121Y0108085D01*
X0102121Y0107586D02*
X0117362Y0107586D01*
X0117303Y0107088D02*
X0102121Y0107088D01*
X0102177Y0106589D02*
X0117187Y0106589D01*
X0116985Y0106091D02*
X0102294Y0106091D01*
X0102490Y0105592D02*
X0116784Y0105592D01*
X0116517Y0105094D02*
X0102683Y0105094D01*
X0103012Y0104595D02*
X0116122Y0104595D01*
X0115556Y0104097D02*
X0103539Y0104097D01*
X0102303Y0097878D02*
X0102303Y0095413D01*
X0103984Y0095413D01*
X0103984Y0095323D01*
X0103342Y0094823D01*
X0102873Y0094209D01*
X0102275Y0092744D01*
X0102121Y0092000D01*
X0102121Y0090476D01*
X0102216Y0089776D01*
X0102409Y0089134D01*
X0102598Y0088492D01*
X0102905Y0087945D01*
X0103322Y0087496D01*
X0103744Y0087043D01*
X0104287Y0086693D01*
X0104948Y0086445D01*
X0105610Y0086193D01*
X0106401Y0086067D01*
X0117212Y0086067D01*
X0117212Y0088531D01*
X0107614Y0088531D01*
X0107051Y0088583D01*
X0106570Y0088681D01*
X0106090Y0088783D01*
X0105696Y0088965D01*
X0105381Y0089224D01*
X0105074Y0089484D01*
X0104842Y0089835D01*
X0104543Y0090717D01*
X0104468Y0091276D01*
X0104468Y0092941D01*
X0104814Y0093760D01*
X0105503Y0094421D01*
X0106196Y0095083D01*
X0107114Y0095413D01*
X0117212Y0095413D01*
X0117212Y0097878D01*
X0102303Y0097878D01*
X0102303Y0097616D02*
X0117212Y0097616D01*
X0117212Y0097118D02*
X0102303Y0097118D01*
X0102303Y0096619D02*
X0117212Y0096619D01*
X0117212Y0096121D02*
X0102303Y0096121D01*
X0102303Y0095622D02*
X0117212Y0095622D01*
X0117212Y0101604D02*
X0096350Y0101604D01*
X0096350Y0102103D02*
X0117212Y0102103D01*
X0117212Y0102601D02*
X0096350Y0102601D01*
X0096350Y0103100D02*
X0117212Y0103100D01*
X0117212Y0103598D02*
X0096350Y0103598D01*
X0103728Y0095124D02*
X0106310Y0095124D01*
X0105717Y0094625D02*
X0103191Y0094625D01*
X0102840Y0094127D02*
X0105196Y0094127D01*
X0104759Y0093628D02*
X0102636Y0093628D01*
X0102433Y0093130D02*
X0104548Y0093130D01*
X0104468Y0092631D02*
X0102252Y0092631D01*
X0102149Y0092132D02*
X0104468Y0092132D01*
X0104468Y0091634D02*
X0102121Y0091634D01*
X0102121Y0091135D02*
X0104487Y0091135D01*
X0104570Y0090637D02*
X0102121Y0090637D01*
X0102167Y0090138D02*
X0104739Y0090138D01*
X0104971Y0089640D02*
X0102257Y0089640D01*
X0102407Y0089141D02*
X0105482Y0089141D01*
X0106757Y0088643D02*
X0102553Y0088643D01*
X0102793Y0088144D02*
X0117212Y0088144D01*
X0117212Y0087646D02*
X0103183Y0087646D01*
X0103647Y0087147D02*
X0117212Y0087147D01*
X0117212Y0086649D02*
X0104404Y0086649D01*
X0105877Y0086150D02*
X0117212Y0086150D01*
X0115759Y0082882D02*
X0113783Y0081559D01*
X0114184Y0080980D01*
X0114503Y0080370D01*
X0114747Y0079728D01*
X0114988Y0079087D01*
X0115106Y0078362D01*
X0115106Y0076602D01*
X0114905Y0075854D01*
X0114102Y0074791D01*
X0113570Y0074528D01*
X0112224Y0074528D01*
X0111747Y0074870D01*
X0111476Y0075547D01*
X0111204Y0076228D01*
X0110999Y0077252D01*
X0110858Y0078614D01*
X0110799Y0079134D01*
X0110692Y0079677D01*
X0110543Y0080236D01*
X0110393Y0080799D01*
X0110161Y0081303D01*
X0109850Y0081756D01*
X0109539Y0082205D01*
X0109125Y0082575D01*
X0108102Y0083157D01*
X0107476Y0083303D01*
X0106027Y0083303D01*
X0105397Y0083157D01*
X0104271Y0082575D01*
X0103791Y0082169D01*
X0103385Y0081650D01*
X0102988Y0081130D01*
X0102673Y0080512D01*
X0102452Y0079803D01*
X0102236Y0079091D01*
X0102121Y0078303D01*
X0102121Y0076362D01*
X0102295Y0075280D01*
X0102641Y0074197D01*
X0102984Y0073114D01*
X0103543Y0072122D01*
X0104314Y0071220D01*
X0106212Y0072724D01*
X0105610Y0073425D01*
X0105153Y0074161D01*
X0104531Y0075705D01*
X0104377Y0076579D01*
X0104377Y0078465D01*
X0104566Y0079236D01*
X0104948Y0079878D01*
X0105326Y0080516D01*
X0105905Y0080839D01*
X0107444Y0080839D01*
X0107960Y0080524D01*
X0108232Y0079890D01*
X0108499Y0079260D01*
X0108684Y0078437D01*
X0108783Y0077413D01*
X0108846Y0076831D01*
X0108929Y0076228D01*
X0109039Y0075610D01*
X0109149Y0074988D01*
X0109342Y0074417D01*
X0109621Y0073898D01*
X0109905Y0073374D01*
X0110299Y0072949D01*
X0110810Y0072618D01*
X0111318Y0072287D01*
X0111992Y0072122D01*
X0113531Y0072122D01*
X0114161Y0072268D01*
X0114720Y0072559D01*
X0115283Y0072850D01*
X0115755Y0073244D01*
X0116145Y0073748D01*
X0116535Y0074248D01*
X0116834Y0074827D01*
X0117047Y0075488D01*
X0117255Y0076150D01*
X0117362Y0076843D01*
X0117362Y0078705D01*
X0117224Y0079701D01*
X0116944Y0080555D01*
X0116669Y0081406D01*
X0116275Y0082181D01*
X0115759Y0082882D01*
X0115922Y0082661D02*
X0115429Y0082661D01*
X0114684Y0082162D02*
X0116285Y0082162D01*
X0116538Y0081664D02*
X0113939Y0081664D01*
X0114056Y0081165D02*
X0116747Y0081165D01*
X0116908Y0080667D02*
X0114348Y0080667D01*
X0114580Y0080168D02*
X0117071Y0080168D01*
X0117228Y0079670D02*
X0114769Y0079670D01*
X0114956Y0079171D02*
X0117297Y0079171D01*
X0117362Y0078673D02*
X0115055Y0078673D01*
X0115106Y0078174D02*
X0117362Y0078174D01*
X0117362Y0077676D02*
X0115106Y0077676D01*
X0115106Y0077177D02*
X0117362Y0077177D01*
X0117337Y0076679D02*
X0115106Y0076679D01*
X0114992Y0076180D02*
X0117260Y0076180D01*
X0117108Y0075682D02*
X0114774Y0075682D01*
X0114398Y0075183D02*
X0116949Y0075183D01*
X0116761Y0074685D02*
X0113887Y0074685D01*
X0112005Y0074685D02*
X0109252Y0074685D01*
X0109115Y0075183D02*
X0111622Y0075183D01*
X0111422Y0075682D02*
X0109026Y0075682D01*
X0108937Y0076180D02*
X0111223Y0076180D01*
X0111114Y0076679D02*
X0108867Y0076679D01*
X0108808Y0077177D02*
X0111014Y0077177D01*
X0110955Y0077676D02*
X0108758Y0077676D01*
X0108710Y0078174D02*
X0110904Y0078174D01*
X0110851Y0078673D02*
X0108631Y0078673D01*
X0108519Y0079171D02*
X0110791Y0079171D01*
X0110694Y0079670D02*
X0108325Y0079670D01*
X0108112Y0080168D02*
X0110561Y0080168D01*
X0110428Y0080667D02*
X0107726Y0080667D01*
X0105597Y0080667D02*
X0102752Y0080667D01*
X0102566Y0080168D02*
X0105120Y0080168D01*
X0104824Y0079670D02*
X0102412Y0079670D01*
X0102260Y0079171D02*
X0104550Y0079171D01*
X0104428Y0078673D02*
X0102175Y0078673D01*
X0102121Y0078174D02*
X0104377Y0078174D01*
X0104377Y0077676D02*
X0102121Y0077676D01*
X0102121Y0077177D02*
X0104377Y0077177D01*
X0104377Y0076679D02*
X0102121Y0076679D01*
X0102151Y0076180D02*
X0104447Y0076180D01*
X0104540Y0075682D02*
X0102230Y0075682D01*
X0102326Y0075183D02*
X0104741Y0075183D01*
X0104942Y0074685D02*
X0102485Y0074685D01*
X0102645Y0074186D02*
X0105143Y0074186D01*
X0105447Y0073688D02*
X0102802Y0073688D01*
X0102960Y0073189D02*
X0105813Y0073189D01*
X0106169Y0072691D02*
X0103222Y0072691D01*
X0103503Y0072192D02*
X0105540Y0072192D01*
X0104911Y0071694D02*
X0103910Y0071694D01*
X0109466Y0074186D02*
X0116487Y0074186D01*
X0116098Y0073688D02*
X0109735Y0073688D01*
X0110076Y0073189D02*
X0115689Y0073189D01*
X0114974Y0072691D02*
X0110698Y0072691D01*
X0111707Y0072192D02*
X0113834Y0072192D01*
X0122574Y0075764D02*
X0126870Y0075764D01*
X0126858Y0076173D01*
X0127318Y0077197D01*
X0124007Y0077197D01*
X0124007Y0080508D01*
X0122988Y0080047D01*
X0122574Y0080059D01*
X0122574Y0075764D01*
X0122574Y0076180D02*
X0126861Y0076180D01*
X0127085Y0076679D02*
X0122574Y0076679D01*
X0122574Y0077177D02*
X0127309Y0077177D01*
X0125803Y0078531D02*
X0132110Y0078531D01*
X0132385Y0078811D01*
X0132665Y0079087D01*
X0132665Y0085417D01*
X0132385Y0085626D01*
X0132110Y0085835D01*
X0125803Y0085835D01*
X0125385Y0085417D01*
X0125385Y0079020D01*
X0125803Y0078531D01*
X0125682Y0078673D02*
X0132249Y0078673D01*
X0132665Y0079171D02*
X0125385Y0079171D01*
X0125385Y0079670D02*
X0132665Y0079670D01*
X0132665Y0080168D02*
X0125385Y0080168D01*
X0125385Y0080667D02*
X0132665Y0080667D01*
X0132665Y0081165D02*
X0125385Y0081165D01*
X0125385Y0081664D02*
X0132665Y0081664D01*
X0132665Y0082162D02*
X0125385Y0082162D01*
X0125385Y0082661D02*
X0132665Y0082661D01*
X0132665Y0083159D02*
X0125385Y0083159D01*
X0125385Y0083658D02*
X0132665Y0083658D01*
X0132665Y0084156D02*
X0125385Y0084156D01*
X0125385Y0084655D02*
X0132665Y0084655D01*
X0132665Y0085153D02*
X0125385Y0085153D01*
X0125620Y0085652D02*
X0132351Y0085652D01*
X0132110Y0087118D02*
X0132385Y0087398D01*
X0132665Y0087673D01*
X0132665Y0094004D01*
X0132385Y0094213D01*
X0132110Y0094421D01*
X0125803Y0094421D01*
X0125385Y0094004D01*
X0125385Y0087606D01*
X0125803Y0087118D01*
X0132110Y0087118D01*
X0132139Y0087147D02*
X0125778Y0087147D01*
X0125385Y0087646D02*
X0132637Y0087646D01*
X0132665Y0088144D02*
X0125385Y0088144D01*
X0125385Y0088643D02*
X0132665Y0088643D01*
X0132665Y0089141D02*
X0125385Y0089141D01*
X0125385Y0089640D02*
X0132665Y0089640D01*
X0132665Y0090138D02*
X0125385Y0090138D01*
X0125385Y0090637D02*
X0132665Y0090637D01*
X0132665Y0091135D02*
X0125385Y0091135D01*
X0125385Y0091634D02*
X0132665Y0091634D01*
X0132665Y0092132D02*
X0125385Y0092132D01*
X0125385Y0092631D02*
X0132665Y0092631D01*
X0132665Y0093130D02*
X0125385Y0093130D01*
X0125385Y0093628D02*
X0132665Y0093628D01*
X0132501Y0094127D02*
X0125508Y0094127D01*
X0125803Y0095705D02*
X0132110Y0095705D01*
X0132385Y0095984D01*
X0132665Y0096264D01*
X0132665Y0102591D01*
X0132385Y0102799D01*
X0132110Y0103008D01*
X0125803Y0103008D01*
X0125385Y0102591D01*
X0125385Y0096193D01*
X0125803Y0095705D01*
X0125447Y0096121D02*
X0132522Y0096121D01*
X0132665Y0096619D02*
X0125385Y0096619D01*
X0125385Y0097118D02*
X0132665Y0097118D01*
X0132665Y0097616D02*
X0125385Y0097616D01*
X0125385Y0098115D02*
X0132665Y0098115D01*
X0132665Y0098613D02*
X0125385Y0098613D01*
X0125385Y0099112D02*
X0132665Y0099112D01*
X0132665Y0099610D02*
X0125385Y0099610D01*
X0125385Y0100109D02*
X0132665Y0100109D01*
X0132665Y0100607D02*
X0125385Y0100607D01*
X0125385Y0101106D02*
X0132665Y0101106D01*
X0132665Y0101604D02*
X0125385Y0101604D01*
X0125385Y0102103D02*
X0132665Y0102103D01*
X0132651Y0102601D02*
X0125396Y0102601D01*
X0125803Y0104291D02*
X0132110Y0104291D01*
X0132385Y0104571D01*
X0132665Y0104850D01*
X0132665Y0111177D01*
X0132385Y0111386D01*
X0132110Y0111594D01*
X0125803Y0111594D01*
X0125385Y0111177D01*
X0125385Y0104780D01*
X0125803Y0104291D01*
X0125543Y0104595D02*
X0132410Y0104595D01*
X0132665Y0105094D02*
X0125385Y0105094D01*
X0125385Y0105592D02*
X0132665Y0105592D01*
X0132665Y0106091D02*
X0125385Y0106091D01*
X0125385Y0106589D02*
X0132665Y0106589D01*
X0132665Y0107088D02*
X0125385Y0107088D01*
X0125385Y0107586D02*
X0132665Y0107586D01*
X0132665Y0108085D02*
X0125385Y0108085D01*
X0125385Y0108583D02*
X0132665Y0108583D01*
X0132665Y0109082D02*
X0125385Y0109082D01*
X0125385Y0109580D02*
X0132665Y0109580D01*
X0132665Y0110079D02*
X0125385Y0110079D01*
X0125385Y0110577D02*
X0132665Y0110577D01*
X0132665Y0111076D02*
X0125385Y0111076D01*
X0125783Y0111574D02*
X0132136Y0111574D01*
X0133972Y0111177D02*
X0133972Y0104780D01*
X0134389Y0104291D01*
X0140696Y0104291D01*
X0140972Y0104571D01*
X0141251Y0104850D01*
X0141251Y0111177D01*
X0140972Y0111386D01*
X0140696Y0111594D01*
X0134389Y0111594D01*
X0133972Y0111177D01*
X0133972Y0111076D02*
X0141251Y0111076D01*
X0141251Y0110577D02*
X0133972Y0110577D01*
X0133972Y0110079D02*
X0141251Y0110079D01*
X0141251Y0109580D02*
X0133972Y0109580D01*
X0133972Y0109082D02*
X0141251Y0109082D01*
X0141251Y0108583D02*
X0133972Y0108583D01*
X0133972Y0108085D02*
X0141251Y0108085D01*
X0141251Y0107586D02*
X0133972Y0107586D01*
X0133972Y0107088D02*
X0141251Y0107088D01*
X0141251Y0106589D02*
X0133972Y0106589D01*
X0133972Y0106091D02*
X0141251Y0106091D01*
X0141251Y0105592D02*
X0133972Y0105592D01*
X0133972Y0105094D02*
X0141251Y0105094D01*
X0140996Y0104595D02*
X0134129Y0104595D01*
X0134389Y0103008D02*
X0133972Y0102591D01*
X0133972Y0096193D01*
X0134389Y0095705D01*
X0140696Y0095705D01*
X0140972Y0095984D01*
X0141251Y0096264D01*
X0141251Y0102591D01*
X0140972Y0102799D01*
X0140696Y0103008D01*
X0134389Y0103008D01*
X0133983Y0102601D02*
X0141237Y0102601D01*
X0141251Y0102103D02*
X0133972Y0102103D01*
X0133972Y0101604D02*
X0141251Y0101604D01*
X0141251Y0101106D02*
X0133972Y0101106D01*
X0133972Y0100607D02*
X0141251Y0100607D01*
X0141251Y0100109D02*
X0133972Y0100109D01*
X0133972Y0099610D02*
X0141251Y0099610D01*
X0141251Y0099112D02*
X0133972Y0099112D01*
X0133972Y0098613D02*
X0141251Y0098613D01*
X0141251Y0098115D02*
X0133972Y0098115D01*
X0133972Y0097616D02*
X0141251Y0097616D01*
X0141251Y0097118D02*
X0133972Y0097118D01*
X0133972Y0096619D02*
X0141251Y0096619D01*
X0141108Y0096121D02*
X0134034Y0096121D01*
X0134389Y0094421D02*
X0133972Y0094004D01*
X0133972Y0087606D01*
X0134389Y0087118D01*
X0140696Y0087118D01*
X0140972Y0087398D01*
X0141251Y0087673D01*
X0141251Y0094004D01*
X0140972Y0094213D01*
X0140696Y0094421D01*
X0134389Y0094421D01*
X0134094Y0094127D02*
X0141087Y0094127D01*
X0141251Y0093628D02*
X0133972Y0093628D01*
X0133972Y0093130D02*
X0141251Y0093130D01*
X0141251Y0092631D02*
X0133972Y0092631D01*
X0133972Y0092132D02*
X0141251Y0092132D01*
X0141251Y0091634D02*
X0133972Y0091634D01*
X0133972Y0091135D02*
X0141251Y0091135D01*
X0141251Y0090637D02*
X0133972Y0090637D01*
X0133972Y0090138D02*
X0141251Y0090138D01*
X0141251Y0089640D02*
X0133972Y0089640D01*
X0133972Y0089141D02*
X0141251Y0089141D01*
X0141251Y0088643D02*
X0133972Y0088643D01*
X0133972Y0088144D02*
X0141251Y0088144D01*
X0141224Y0087646D02*
X0133972Y0087646D01*
X0134364Y0087147D02*
X0140725Y0087147D01*
X0140696Y0085835D02*
X0134389Y0085835D01*
X0133972Y0085417D01*
X0133972Y0079020D01*
X0134389Y0078531D01*
X0140696Y0078531D01*
X0140972Y0078811D01*
X0141251Y0079087D01*
X0141251Y0085417D01*
X0140972Y0085626D01*
X0140696Y0085835D01*
X0140938Y0085652D02*
X0134206Y0085652D01*
X0133972Y0085153D02*
X0141251Y0085153D01*
X0141251Y0084655D02*
X0133972Y0084655D01*
X0133972Y0084156D02*
X0141251Y0084156D01*
X0141251Y0083658D02*
X0133972Y0083658D01*
X0133972Y0083159D02*
X0141251Y0083159D01*
X0141251Y0082661D02*
X0133972Y0082661D01*
X0133972Y0082162D02*
X0141251Y0082162D01*
X0141251Y0081664D02*
X0133972Y0081664D01*
X0133972Y0081165D02*
X0141251Y0081165D01*
X0141251Y0080667D02*
X0133972Y0080667D01*
X0133972Y0080168D02*
X0141251Y0080168D01*
X0141251Y0079670D02*
X0133972Y0079670D01*
X0133972Y0079171D02*
X0141251Y0079171D01*
X0140835Y0078673D02*
X0134269Y0078673D01*
X0142559Y0079020D02*
X0142559Y0085417D01*
X0142976Y0085835D01*
X0149283Y0085835D01*
X0149559Y0085626D01*
X0149838Y0085417D01*
X0149838Y0079087D01*
X0149559Y0078811D01*
X0149283Y0078531D01*
X0142976Y0078531D01*
X0142559Y0079020D01*
X0142559Y0079171D02*
X0149838Y0079171D01*
X0149838Y0079670D02*
X0142559Y0079670D01*
X0142559Y0080168D02*
X0149838Y0080168D01*
X0149838Y0080667D02*
X0142559Y0080667D01*
X0142559Y0081165D02*
X0149838Y0081165D01*
X0149838Y0081664D02*
X0142559Y0081664D01*
X0142559Y0082162D02*
X0149838Y0082162D01*
X0149838Y0082661D02*
X0142559Y0082661D01*
X0142559Y0083159D02*
X0149838Y0083159D01*
X0149838Y0083658D02*
X0142559Y0083658D01*
X0142559Y0084156D02*
X0149838Y0084156D01*
X0149838Y0084655D02*
X0142559Y0084655D01*
X0142559Y0085153D02*
X0149838Y0085153D01*
X0149524Y0085652D02*
X0142793Y0085652D01*
X0142976Y0087118D02*
X0142559Y0087606D01*
X0142559Y0094004D01*
X0142976Y0094421D01*
X0149283Y0094421D01*
X0149559Y0094213D01*
X0149838Y0094004D01*
X0149838Y0087673D01*
X0149559Y0087398D01*
X0149283Y0087118D01*
X0142976Y0087118D01*
X0142951Y0087147D02*
X0149312Y0087147D01*
X0149810Y0087646D02*
X0142559Y0087646D01*
X0142559Y0088144D02*
X0149838Y0088144D01*
X0149838Y0088643D02*
X0142559Y0088643D01*
X0142559Y0089141D02*
X0149838Y0089141D01*
X0149838Y0089640D02*
X0142559Y0089640D01*
X0142559Y0090138D02*
X0149838Y0090138D01*
X0149838Y0090637D02*
X0142559Y0090637D01*
X0142559Y0091135D02*
X0149838Y0091135D01*
X0149838Y0091634D02*
X0142559Y0091634D01*
X0142559Y0092132D02*
X0149838Y0092132D01*
X0149838Y0092631D02*
X0142559Y0092631D01*
X0142559Y0093130D02*
X0149838Y0093130D01*
X0149838Y0093628D02*
X0142559Y0093628D01*
X0142681Y0094127D02*
X0149674Y0094127D01*
X0151149Y0094004D02*
X0151149Y0087606D01*
X0151354Y0087398D01*
X0151562Y0087118D01*
X0157870Y0087118D01*
X0158425Y0087673D01*
X0158425Y0094004D01*
X0158149Y0094213D01*
X0157870Y0094421D01*
X0151562Y0094421D01*
X0151354Y0094213D01*
X0151149Y0094004D01*
X0151269Y0094127D02*
X0158263Y0094127D01*
X0158425Y0093628D02*
X0151149Y0093628D01*
X0151149Y0093130D02*
X0158425Y0093130D01*
X0158425Y0092631D02*
X0151149Y0092631D01*
X0151149Y0092132D02*
X0158425Y0092132D01*
X0158425Y0091634D02*
X0151149Y0091634D01*
X0151149Y0091135D02*
X0158425Y0091135D01*
X0158425Y0090637D02*
X0151149Y0090637D01*
X0151149Y0090138D02*
X0158425Y0090138D01*
X0158425Y0089640D02*
X0151149Y0089640D01*
X0151149Y0089141D02*
X0158425Y0089141D01*
X0158425Y0088643D02*
X0151149Y0088643D01*
X0151149Y0088144D02*
X0158425Y0088144D01*
X0158397Y0087646D02*
X0151149Y0087646D01*
X0151541Y0087147D02*
X0157899Y0087147D01*
X0157870Y0085835D02*
X0151562Y0085835D01*
X0151354Y0085626D01*
X0151149Y0085417D01*
X0151149Y0079020D01*
X0151354Y0078811D01*
X0151562Y0078531D01*
X0157870Y0078531D01*
X0158425Y0079087D01*
X0158425Y0085417D01*
X0158149Y0085626D01*
X0157870Y0085835D01*
X0158114Y0085652D02*
X0151380Y0085652D01*
X0151149Y0085153D02*
X0158425Y0085153D01*
X0158425Y0084655D02*
X0151149Y0084655D01*
X0151149Y0084156D02*
X0158425Y0084156D01*
X0158425Y0083658D02*
X0151149Y0083658D01*
X0151149Y0083159D02*
X0158425Y0083159D01*
X0158425Y0082661D02*
X0151149Y0082661D01*
X0151149Y0082162D02*
X0158425Y0082162D01*
X0158425Y0081664D02*
X0151149Y0081664D01*
X0151149Y0081165D02*
X0158425Y0081165D01*
X0158425Y0080667D02*
X0151149Y0080667D01*
X0151149Y0080168D02*
X0158425Y0080168D01*
X0158425Y0079670D02*
X0151149Y0079670D01*
X0151149Y0079171D02*
X0158425Y0079171D01*
X0158011Y0078673D02*
X0151457Y0078673D01*
X0149422Y0078673D02*
X0142855Y0078673D01*
X0156476Y0077197D02*
X0156936Y0076173D01*
X0156925Y0075764D01*
X0161216Y0075764D01*
X0161216Y0080059D01*
X0160807Y0080047D01*
X0159787Y0080508D01*
X0159787Y0077197D01*
X0156476Y0077197D01*
X0156485Y0077177D02*
X0161216Y0077177D01*
X0161216Y0076679D02*
X0156709Y0076679D01*
X0156933Y0076180D02*
X0161216Y0076180D01*
X0161216Y0077676D02*
X0159787Y0077676D01*
X0159787Y0078174D02*
X0161216Y0078174D01*
X0161216Y0078673D02*
X0159787Y0078673D01*
X0159787Y0079171D02*
X0161216Y0079171D01*
X0161216Y0079670D02*
X0159787Y0079670D01*
X0159787Y0080168D02*
X0160539Y0080168D01*
X0157870Y0095705D02*
X0151562Y0095705D01*
X0151354Y0095984D01*
X0151149Y0096193D01*
X0151149Y0102591D01*
X0151354Y0102799D01*
X0151562Y0103008D01*
X0157870Y0103008D01*
X0158149Y0102799D01*
X0158425Y0102591D01*
X0158425Y0096264D01*
X0158149Y0095984D01*
X0157870Y0095705D01*
X0158283Y0096121D02*
X0151220Y0096121D01*
X0151149Y0096619D02*
X0158425Y0096619D01*
X0158425Y0097118D02*
X0151149Y0097118D01*
X0151149Y0097616D02*
X0158425Y0097616D01*
X0158425Y0098115D02*
X0151149Y0098115D01*
X0151149Y0098613D02*
X0158425Y0098613D01*
X0158425Y0099112D02*
X0151149Y0099112D01*
X0151149Y0099610D02*
X0158425Y0099610D01*
X0158425Y0100109D02*
X0151149Y0100109D01*
X0151149Y0100607D02*
X0158425Y0100607D01*
X0158425Y0101106D02*
X0151149Y0101106D01*
X0151149Y0101604D02*
X0158425Y0101604D01*
X0158425Y0102103D02*
X0151149Y0102103D01*
X0151160Y0102601D02*
X0158411Y0102601D01*
X0157870Y0104291D02*
X0158149Y0104571D01*
X0158425Y0104850D01*
X0158425Y0111177D01*
X0158149Y0111386D01*
X0157870Y0111594D01*
X0151562Y0111594D01*
X0151354Y0111386D01*
X0151149Y0111177D01*
X0151149Y0104780D01*
X0151354Y0104571D01*
X0151562Y0104291D01*
X0157870Y0104291D01*
X0158173Y0104595D02*
X0151330Y0104595D01*
X0151149Y0105094D02*
X0158425Y0105094D01*
X0158425Y0105592D02*
X0151149Y0105592D01*
X0151149Y0106091D02*
X0158425Y0106091D01*
X0158425Y0106589D02*
X0151149Y0106589D01*
X0151149Y0107088D02*
X0158425Y0107088D01*
X0158425Y0107586D02*
X0151149Y0107586D01*
X0151149Y0108085D02*
X0158425Y0108085D01*
X0158425Y0108583D02*
X0151149Y0108583D01*
X0151149Y0109082D02*
X0158425Y0109082D01*
X0158425Y0109580D02*
X0151149Y0109580D01*
X0151149Y0110079D02*
X0158425Y0110079D01*
X0158425Y0110577D02*
X0151149Y0110577D01*
X0151149Y0111076D02*
X0158425Y0111076D01*
X0157896Y0111574D02*
X0151542Y0111574D01*
X0149838Y0111177D02*
X0149559Y0111386D01*
X0149283Y0111594D01*
X0142976Y0111594D01*
X0142559Y0111177D01*
X0142559Y0104780D01*
X0142976Y0104291D01*
X0149283Y0104291D01*
X0149559Y0104571D01*
X0149838Y0104850D01*
X0149838Y0111177D01*
X0149838Y0111076D02*
X0142559Y0111076D01*
X0142559Y0110577D02*
X0149838Y0110577D01*
X0149838Y0110079D02*
X0142559Y0110079D01*
X0142559Y0109580D02*
X0149838Y0109580D01*
X0149838Y0109082D02*
X0142559Y0109082D01*
X0142559Y0108583D02*
X0149838Y0108583D01*
X0149838Y0108085D02*
X0142559Y0108085D01*
X0142559Y0107586D02*
X0149838Y0107586D01*
X0149838Y0107088D02*
X0142559Y0107088D01*
X0142559Y0106589D02*
X0149838Y0106589D01*
X0149838Y0106091D02*
X0142559Y0106091D01*
X0142559Y0105592D02*
X0149838Y0105592D01*
X0149838Y0105094D02*
X0142559Y0105094D01*
X0142716Y0104595D02*
X0149583Y0104595D01*
X0149283Y0103008D02*
X0142976Y0103008D01*
X0142559Y0102591D01*
X0142559Y0096193D01*
X0142976Y0095705D01*
X0149283Y0095705D01*
X0149559Y0095984D01*
X0149838Y0096264D01*
X0149838Y0102591D01*
X0149559Y0102799D01*
X0149283Y0103008D01*
X0149824Y0102601D02*
X0142569Y0102601D01*
X0142559Y0102103D02*
X0149838Y0102103D01*
X0149838Y0101604D02*
X0142559Y0101604D01*
X0142559Y0101106D02*
X0149838Y0101106D01*
X0149838Y0100607D02*
X0142559Y0100607D01*
X0142559Y0100109D02*
X0149838Y0100109D01*
X0149838Y0099610D02*
X0142559Y0099610D01*
X0142559Y0099112D02*
X0149838Y0099112D01*
X0149838Y0098613D02*
X0142559Y0098613D01*
X0142559Y0098115D02*
X0149838Y0098115D01*
X0149838Y0097616D02*
X0142559Y0097616D01*
X0142559Y0097118D02*
X0149838Y0097118D01*
X0149838Y0096619D02*
X0142559Y0096619D01*
X0142620Y0096121D02*
X0149695Y0096121D01*
X0159787Y0109535D02*
X0160807Y0110122D01*
X0161216Y0110114D01*
X0161216Y0114406D01*
X0156925Y0114406D01*
X0156936Y0113996D01*
X0156476Y0112843D01*
X0159787Y0112843D01*
X0159787Y0109535D01*
X0159787Y0109580D02*
X0159865Y0109580D01*
X0159787Y0110079D02*
X0160732Y0110079D01*
X0161216Y0110577D02*
X0159787Y0110577D01*
X0159787Y0111076D02*
X0161216Y0111076D01*
X0161216Y0111574D02*
X0159787Y0111574D01*
X0159787Y0112073D02*
X0161216Y0112073D01*
X0161216Y0112571D02*
X0159787Y0112571D01*
X0161216Y0113070D02*
X0156567Y0113070D01*
X0156766Y0113568D02*
X0161216Y0113568D01*
X0161216Y0114067D02*
X0156934Y0114067D01*
X0149309Y0111574D02*
X0142956Y0111574D01*
X0140723Y0111574D02*
X0134369Y0111574D01*
X0127318Y0112976D02*
X0126858Y0113996D01*
X0126870Y0114406D01*
X0122574Y0114406D01*
X0122574Y0110114D01*
X0122988Y0110122D01*
X0124007Y0109665D01*
X0124007Y0112976D01*
X0127318Y0112976D01*
X0127276Y0113070D02*
X0122574Y0113070D01*
X0122574Y0113568D02*
X0127051Y0113568D01*
X0126860Y0114067D02*
X0122574Y0114067D01*
X0122574Y0112571D02*
X0124007Y0112571D01*
X0124007Y0112073D02*
X0122574Y0112073D01*
X0122574Y0111574D02*
X0124007Y0111574D01*
X0124007Y0111076D02*
X0122574Y0111076D01*
X0122574Y0110577D02*
X0124007Y0110577D01*
X0124007Y0110079D02*
X0123084Y0110079D01*
X0117212Y0116560D02*
X0096350Y0116560D01*
X0096350Y0117058D02*
X0117212Y0117058D01*
X0117212Y0117557D02*
X0096350Y0117557D01*
X0096350Y0118055D02*
X0117212Y0118055D01*
X0117212Y0118554D02*
X0096350Y0118554D01*
X0105405Y0083159D02*
X0108094Y0083159D01*
X0108974Y0082661D02*
X0104437Y0082661D01*
X0103785Y0082162D02*
X0109568Y0082162D01*
X0109913Y0081664D02*
X0103396Y0081664D01*
X0103015Y0081165D02*
X0110224Y0081165D01*
X0122574Y0079670D02*
X0124007Y0079670D01*
X0124007Y0080168D02*
X0123255Y0080168D01*
X0122574Y0079171D02*
X0124007Y0079171D01*
X0124007Y0078673D02*
X0122574Y0078673D01*
X0122574Y0078174D02*
X0124007Y0078174D01*
X0124007Y0077676D02*
X0122574Y0077676D01*
X0230115Y0112201D02*
X0230115Y0112951D01*
X0230865Y0113702D01*
X0234619Y0113702D01*
X0234619Y0112951D02*
X0234619Y0114453D01*
X0234619Y0116054D02*
X0234619Y0118306D01*
X0233868Y0119056D01*
X0232367Y0119056D01*
X0231616Y0118306D01*
X0231616Y0116054D01*
X0230115Y0116054D02*
X0234619Y0116054D01*
X0230115Y0112201D02*
X0230865Y0111450D01*
X0230115Y0120658D02*
X0233117Y0123660D01*
X0233868Y0123660D01*
X0234619Y0122910D01*
X0234619Y0121408D01*
X0233868Y0120658D01*
X0230115Y0120658D02*
X0230115Y0123660D01*
M02*
