G75*
%MOIN*%
%OFA0B0*%
%FSLAX25Y25*%
%IPPOS*%
%LPD*%
%AMOC8*
5,1,8,0,0,1.08239X$1,22.5*
%
%ADD10C,0.00000*%
%ADD11C,0.15900*%
%ADD12C,0.10243*%
%ADD13C,0.06600*%
%ADD14R,0.03550X0.05124*%
%ADD15R,0.05124X0.03550*%
%ADD16R,0.06306X0.01975*%
%ADD17C,0.07800*%
%ADD18C,0.07400*%
%ADD19R,0.07800X0.07800*%
%ADD20R,0.03943X0.06306*%
%ADD21R,0.04337X0.07487*%
%ADD22R,0.04337X0.06699*%
%ADD23R,0.06306X0.03943*%
%ADD24R,0.07487X0.04337*%
%ADD25R,0.06699X0.04337*%
%ADD26R,0.05124X0.05124*%
%ADD27R,0.06400X0.03400*%
%ADD28R,0.02132X0.06306*%
%ADD29R,0.06306X0.02132*%
%ADD30R,0.06400X0.06400*%
%ADD31OC8,0.06400*%
%ADD32R,0.05400X0.06187*%
%ADD33R,0.04337X0.01975*%
%ADD34C,0.07800*%
%ADD35R,0.04298X0.03117*%
D10*
X0002665Y0132750D02*
X0002665Y0246500D01*
X0002672Y0247104D01*
X0002694Y0247708D01*
X0002731Y0248311D01*
X0002782Y0248913D01*
X0002847Y0249513D01*
X0002927Y0250112D01*
X0003022Y0250709D01*
X0003131Y0251303D01*
X0003254Y0251895D01*
X0003391Y0252483D01*
X0003543Y0253068D01*
X0003709Y0253649D01*
X0003889Y0254225D01*
X0004082Y0254798D01*
X0004290Y0255365D01*
X0004511Y0255927D01*
X0004745Y0256484D01*
X0004993Y0257035D01*
X0005254Y0257580D01*
X0005529Y0258118D01*
X0005816Y0258650D01*
X0006116Y0259174D01*
X0006428Y0259691D01*
X0006753Y0260200D01*
X0007090Y0260702D01*
X0007440Y0261195D01*
X0007801Y0261679D01*
X0008173Y0262155D01*
X0008557Y0262621D01*
X0008952Y0263078D01*
X0009358Y0263525D01*
X0009775Y0263963D01*
X0010202Y0264390D01*
X0010640Y0264807D01*
X0011087Y0265213D01*
X0011544Y0265608D01*
X0012010Y0265992D01*
X0012486Y0266364D01*
X0012970Y0266725D01*
X0013463Y0267075D01*
X0013965Y0267412D01*
X0014474Y0267737D01*
X0014991Y0268049D01*
X0015515Y0268349D01*
X0016047Y0268636D01*
X0016585Y0268911D01*
X0017130Y0269172D01*
X0017681Y0269420D01*
X0018238Y0269654D01*
X0018800Y0269875D01*
X0019367Y0270083D01*
X0019940Y0270276D01*
X0020516Y0270456D01*
X0021097Y0270622D01*
X0021682Y0270774D01*
X0022270Y0270911D01*
X0022862Y0271034D01*
X0023456Y0271143D01*
X0024053Y0271238D01*
X0024652Y0271318D01*
X0025252Y0271383D01*
X0025854Y0271434D01*
X0026457Y0271471D01*
X0027061Y0271493D01*
X0027665Y0271500D01*
X0247650Y0271500D01*
X0239915Y0251500D02*
X0239917Y0251690D01*
X0239924Y0251880D01*
X0239936Y0252070D01*
X0239952Y0252260D01*
X0239973Y0252449D01*
X0239999Y0252637D01*
X0240029Y0252825D01*
X0240064Y0253012D01*
X0240103Y0253198D01*
X0240147Y0253383D01*
X0240196Y0253567D01*
X0240249Y0253750D01*
X0240306Y0253931D01*
X0240368Y0254111D01*
X0240434Y0254289D01*
X0240505Y0254466D01*
X0240580Y0254641D01*
X0240659Y0254814D01*
X0240743Y0254984D01*
X0240830Y0255153D01*
X0240922Y0255320D01*
X0241018Y0255484D01*
X0241117Y0255646D01*
X0241221Y0255806D01*
X0241329Y0255963D01*
X0241440Y0256117D01*
X0241555Y0256268D01*
X0241674Y0256417D01*
X0241797Y0256562D01*
X0241923Y0256705D01*
X0242052Y0256844D01*
X0242185Y0256980D01*
X0242321Y0257113D01*
X0242460Y0257242D01*
X0242603Y0257368D01*
X0242748Y0257491D01*
X0242897Y0257610D01*
X0243048Y0257725D01*
X0243202Y0257836D01*
X0243359Y0257944D01*
X0243519Y0258048D01*
X0243681Y0258147D01*
X0243845Y0258243D01*
X0244012Y0258335D01*
X0244181Y0258422D01*
X0244351Y0258506D01*
X0244524Y0258585D01*
X0244699Y0258660D01*
X0244876Y0258731D01*
X0245054Y0258797D01*
X0245234Y0258859D01*
X0245415Y0258916D01*
X0245598Y0258969D01*
X0245782Y0259018D01*
X0245967Y0259062D01*
X0246153Y0259101D01*
X0246340Y0259136D01*
X0246528Y0259166D01*
X0246716Y0259192D01*
X0246905Y0259213D01*
X0247095Y0259229D01*
X0247285Y0259241D01*
X0247475Y0259248D01*
X0247665Y0259250D01*
X0247855Y0259248D01*
X0248045Y0259241D01*
X0248235Y0259229D01*
X0248425Y0259213D01*
X0248614Y0259192D01*
X0248802Y0259166D01*
X0248990Y0259136D01*
X0249177Y0259101D01*
X0249363Y0259062D01*
X0249548Y0259018D01*
X0249732Y0258969D01*
X0249915Y0258916D01*
X0250096Y0258859D01*
X0250276Y0258797D01*
X0250454Y0258731D01*
X0250631Y0258660D01*
X0250806Y0258585D01*
X0250979Y0258506D01*
X0251149Y0258422D01*
X0251318Y0258335D01*
X0251485Y0258243D01*
X0251649Y0258147D01*
X0251811Y0258048D01*
X0251971Y0257944D01*
X0252128Y0257836D01*
X0252282Y0257725D01*
X0252433Y0257610D01*
X0252582Y0257491D01*
X0252727Y0257368D01*
X0252870Y0257242D01*
X0253009Y0257113D01*
X0253145Y0256980D01*
X0253278Y0256844D01*
X0253407Y0256705D01*
X0253533Y0256562D01*
X0253656Y0256417D01*
X0253775Y0256268D01*
X0253890Y0256117D01*
X0254001Y0255963D01*
X0254109Y0255806D01*
X0254213Y0255646D01*
X0254312Y0255484D01*
X0254408Y0255320D01*
X0254500Y0255153D01*
X0254587Y0254984D01*
X0254671Y0254814D01*
X0254750Y0254641D01*
X0254825Y0254466D01*
X0254896Y0254289D01*
X0254962Y0254111D01*
X0255024Y0253931D01*
X0255081Y0253750D01*
X0255134Y0253567D01*
X0255183Y0253383D01*
X0255227Y0253198D01*
X0255266Y0253012D01*
X0255301Y0252825D01*
X0255331Y0252637D01*
X0255357Y0252449D01*
X0255378Y0252260D01*
X0255394Y0252070D01*
X0255406Y0251880D01*
X0255413Y0251690D01*
X0255415Y0251500D01*
X0255413Y0251310D01*
X0255406Y0251120D01*
X0255394Y0250930D01*
X0255378Y0250740D01*
X0255357Y0250551D01*
X0255331Y0250363D01*
X0255301Y0250175D01*
X0255266Y0249988D01*
X0255227Y0249802D01*
X0255183Y0249617D01*
X0255134Y0249433D01*
X0255081Y0249250D01*
X0255024Y0249069D01*
X0254962Y0248889D01*
X0254896Y0248711D01*
X0254825Y0248534D01*
X0254750Y0248359D01*
X0254671Y0248186D01*
X0254587Y0248016D01*
X0254500Y0247847D01*
X0254408Y0247680D01*
X0254312Y0247516D01*
X0254213Y0247354D01*
X0254109Y0247194D01*
X0254001Y0247037D01*
X0253890Y0246883D01*
X0253775Y0246732D01*
X0253656Y0246583D01*
X0253533Y0246438D01*
X0253407Y0246295D01*
X0253278Y0246156D01*
X0253145Y0246020D01*
X0253009Y0245887D01*
X0252870Y0245758D01*
X0252727Y0245632D01*
X0252582Y0245509D01*
X0252433Y0245390D01*
X0252282Y0245275D01*
X0252128Y0245164D01*
X0251971Y0245056D01*
X0251811Y0244952D01*
X0251649Y0244853D01*
X0251485Y0244757D01*
X0251318Y0244665D01*
X0251149Y0244578D01*
X0250979Y0244494D01*
X0250806Y0244415D01*
X0250631Y0244340D01*
X0250454Y0244269D01*
X0250276Y0244203D01*
X0250096Y0244141D01*
X0249915Y0244084D01*
X0249732Y0244031D01*
X0249548Y0243982D01*
X0249363Y0243938D01*
X0249177Y0243899D01*
X0248990Y0243864D01*
X0248802Y0243834D01*
X0248614Y0243808D01*
X0248425Y0243787D01*
X0248235Y0243771D01*
X0248045Y0243759D01*
X0247855Y0243752D01*
X0247665Y0243750D01*
X0247475Y0243752D01*
X0247285Y0243759D01*
X0247095Y0243771D01*
X0246905Y0243787D01*
X0246716Y0243808D01*
X0246528Y0243834D01*
X0246340Y0243864D01*
X0246153Y0243899D01*
X0245967Y0243938D01*
X0245782Y0243982D01*
X0245598Y0244031D01*
X0245415Y0244084D01*
X0245234Y0244141D01*
X0245054Y0244203D01*
X0244876Y0244269D01*
X0244699Y0244340D01*
X0244524Y0244415D01*
X0244351Y0244494D01*
X0244181Y0244578D01*
X0244012Y0244665D01*
X0243845Y0244757D01*
X0243681Y0244853D01*
X0243519Y0244952D01*
X0243359Y0245056D01*
X0243202Y0245164D01*
X0243048Y0245275D01*
X0242897Y0245390D01*
X0242748Y0245509D01*
X0242603Y0245632D01*
X0242460Y0245758D01*
X0242321Y0245887D01*
X0242185Y0246020D01*
X0242052Y0246156D01*
X0241923Y0246295D01*
X0241797Y0246438D01*
X0241674Y0246583D01*
X0241555Y0246732D01*
X0241440Y0246883D01*
X0241329Y0247037D01*
X0241221Y0247194D01*
X0241117Y0247354D01*
X0241018Y0247516D01*
X0240922Y0247680D01*
X0240830Y0247847D01*
X0240743Y0248016D01*
X0240659Y0248186D01*
X0240580Y0248359D01*
X0240505Y0248534D01*
X0240434Y0248711D01*
X0240368Y0248889D01*
X0240306Y0249069D01*
X0240249Y0249250D01*
X0240196Y0249433D01*
X0240147Y0249617D01*
X0240103Y0249802D01*
X0240064Y0249988D01*
X0240029Y0250175D01*
X0239999Y0250363D01*
X0239973Y0250551D01*
X0239952Y0250740D01*
X0239936Y0250930D01*
X0239924Y0251120D01*
X0239917Y0251310D01*
X0239915Y0251500D01*
X0247649Y0271500D02*
X0248254Y0271493D01*
X0248858Y0271471D01*
X0249461Y0271434D01*
X0250063Y0271383D01*
X0250664Y0271318D01*
X0251263Y0271238D01*
X0251860Y0271143D01*
X0252454Y0271034D01*
X0253046Y0270911D01*
X0253634Y0270773D01*
X0254219Y0270621D01*
X0254801Y0270456D01*
X0255377Y0270276D01*
X0255950Y0270082D01*
X0256518Y0269874D01*
X0257080Y0269653D01*
X0257637Y0269419D01*
X0258188Y0269170D01*
X0258733Y0268909D01*
X0259271Y0268635D01*
X0259803Y0268347D01*
X0260327Y0268047D01*
X0260845Y0267734D01*
X0261354Y0267409D01*
X0261855Y0267072D01*
X0262348Y0266722D01*
X0262833Y0266361D01*
X0263309Y0265988D01*
X0263775Y0265604D01*
X0264232Y0265209D01*
X0264680Y0264802D01*
X0265117Y0264385D01*
X0265544Y0263958D01*
X0265961Y0263520D01*
X0266367Y0263073D01*
X0266762Y0262615D01*
X0267146Y0262149D01*
X0267519Y0261673D01*
X0267880Y0261188D01*
X0268229Y0260695D01*
X0268566Y0260193D01*
X0268891Y0259684D01*
X0269203Y0259166D01*
X0269503Y0258642D01*
X0269790Y0258110D01*
X0270064Y0257571D01*
X0270325Y0257026D01*
X0270573Y0256475D01*
X0270808Y0255918D01*
X0271028Y0255355D01*
X0271236Y0254788D01*
X0271429Y0254215D01*
X0271609Y0253638D01*
X0271774Y0253057D01*
X0271925Y0252472D01*
X0272063Y0251883D01*
X0272186Y0251292D01*
X0272294Y0250697D01*
X0272389Y0250100D01*
X0272468Y0249501D01*
X0272534Y0248900D01*
X0272584Y0248298D01*
X0272620Y0247695D01*
X0272642Y0247091D01*
X0272649Y0246487D01*
X0272650Y0246486D02*
X0272586Y0140172D01*
X0210943Y0133783D02*
X0210945Y0133894D01*
X0210951Y0134005D01*
X0210961Y0134116D01*
X0210975Y0134227D01*
X0210993Y0134337D01*
X0211015Y0134446D01*
X0211040Y0134554D01*
X0211070Y0134661D01*
X0211103Y0134767D01*
X0211141Y0134872D01*
X0211182Y0134976D01*
X0211226Y0135078D01*
X0211275Y0135178D01*
X0211326Y0135276D01*
X0211382Y0135373D01*
X0211441Y0135467D01*
X0211503Y0135560D01*
X0211568Y0135650D01*
X0211637Y0135737D01*
X0211708Y0135823D01*
X0211783Y0135905D01*
X0211861Y0135985D01*
X0211941Y0136062D01*
X0212024Y0136136D01*
X0212110Y0136207D01*
X0212198Y0136274D01*
X0212289Y0136339D01*
X0212382Y0136400D01*
X0212477Y0136458D01*
X0212574Y0136513D01*
X0212673Y0136564D01*
X0212774Y0136611D01*
X0212876Y0136655D01*
X0212980Y0136695D01*
X0213085Y0136731D01*
X0213191Y0136764D01*
X0213299Y0136792D01*
X0213408Y0136817D01*
X0213517Y0136838D01*
X0213627Y0136855D01*
X0213737Y0136868D01*
X0213848Y0136877D01*
X0213960Y0136882D01*
X0214071Y0136883D01*
X0214182Y0136880D01*
X0214293Y0136873D01*
X0214404Y0136862D01*
X0214514Y0136847D01*
X0214624Y0136828D01*
X0214733Y0136805D01*
X0214841Y0136779D01*
X0214948Y0136748D01*
X0215054Y0136714D01*
X0215158Y0136675D01*
X0215261Y0136634D01*
X0215363Y0136588D01*
X0215463Y0136539D01*
X0215561Y0136486D01*
X0215657Y0136430D01*
X0215751Y0136370D01*
X0215843Y0136307D01*
X0215932Y0136241D01*
X0216019Y0136172D01*
X0216103Y0136099D01*
X0216185Y0136024D01*
X0216264Y0135945D01*
X0216341Y0135864D01*
X0216414Y0135780D01*
X0216484Y0135694D01*
X0216551Y0135605D01*
X0216615Y0135514D01*
X0216675Y0135421D01*
X0216732Y0135325D01*
X0216786Y0135227D01*
X0216836Y0135128D01*
X0216882Y0135027D01*
X0216925Y0134924D01*
X0216964Y0134820D01*
X0217000Y0134714D01*
X0217031Y0134608D01*
X0217059Y0134500D01*
X0217083Y0134391D01*
X0217103Y0134282D01*
X0217119Y0134172D01*
X0217131Y0134061D01*
X0217139Y0133950D01*
X0217143Y0133839D01*
X0217143Y0133727D01*
X0217139Y0133616D01*
X0217131Y0133505D01*
X0217119Y0133394D01*
X0217103Y0133284D01*
X0217083Y0133175D01*
X0217059Y0133066D01*
X0217031Y0132958D01*
X0217000Y0132852D01*
X0216964Y0132746D01*
X0216925Y0132642D01*
X0216882Y0132539D01*
X0216836Y0132438D01*
X0216786Y0132339D01*
X0216732Y0132241D01*
X0216675Y0132145D01*
X0216615Y0132052D01*
X0216551Y0131961D01*
X0216484Y0131872D01*
X0216414Y0131786D01*
X0216341Y0131702D01*
X0216264Y0131621D01*
X0216185Y0131542D01*
X0216103Y0131467D01*
X0216019Y0131394D01*
X0215932Y0131325D01*
X0215843Y0131259D01*
X0215751Y0131196D01*
X0215657Y0131136D01*
X0215561Y0131080D01*
X0215463Y0131027D01*
X0215363Y0130978D01*
X0215261Y0130932D01*
X0215158Y0130891D01*
X0215054Y0130852D01*
X0214948Y0130818D01*
X0214841Y0130787D01*
X0214733Y0130761D01*
X0214624Y0130738D01*
X0214514Y0130719D01*
X0214404Y0130704D01*
X0214293Y0130693D01*
X0214182Y0130686D01*
X0214071Y0130683D01*
X0213960Y0130684D01*
X0213848Y0130689D01*
X0213737Y0130698D01*
X0213627Y0130711D01*
X0213517Y0130728D01*
X0213408Y0130749D01*
X0213299Y0130774D01*
X0213191Y0130802D01*
X0213085Y0130835D01*
X0212980Y0130871D01*
X0212876Y0130911D01*
X0212774Y0130955D01*
X0212673Y0131002D01*
X0212574Y0131053D01*
X0212477Y0131108D01*
X0212382Y0131166D01*
X0212289Y0131227D01*
X0212198Y0131292D01*
X0212110Y0131359D01*
X0212024Y0131430D01*
X0211941Y0131504D01*
X0211861Y0131581D01*
X0211783Y0131661D01*
X0211708Y0131743D01*
X0211637Y0131829D01*
X0211568Y0131916D01*
X0211503Y0132006D01*
X0211441Y0132099D01*
X0211382Y0132193D01*
X0211326Y0132290D01*
X0211275Y0132388D01*
X0211226Y0132488D01*
X0211182Y0132590D01*
X0211141Y0132694D01*
X0211103Y0132799D01*
X0211070Y0132905D01*
X0211040Y0133012D01*
X0211015Y0133120D01*
X0210993Y0133229D01*
X0210975Y0133339D01*
X0210961Y0133450D01*
X0210951Y0133561D01*
X0210945Y0133672D01*
X0210943Y0133783D01*
X0133914Y0001500D02*
X0130743Y0001538D01*
X0127573Y0001653D01*
X0124407Y0001845D01*
X0121247Y0002113D01*
X0118094Y0002457D01*
X0114950Y0002877D01*
X0111817Y0003373D01*
X0108697Y0003945D01*
X0105592Y0004592D01*
X0102504Y0005314D01*
X0099434Y0006110D01*
X0096384Y0006980D01*
X0093356Y0007924D01*
X0090351Y0008940D01*
X0087372Y0010029D01*
X0084420Y0011190D01*
X0081497Y0012421D01*
X0078605Y0013723D01*
X0075745Y0015094D01*
X0072919Y0016534D01*
X0070129Y0018042D01*
X0067376Y0019616D01*
X0064661Y0021257D01*
X0061987Y0022963D01*
X0059356Y0024733D01*
X0056767Y0026567D01*
X0054224Y0028462D01*
X0051727Y0030418D01*
X0049278Y0032434D01*
X0046879Y0034508D01*
X0044531Y0036640D01*
X0042234Y0038828D01*
X0039992Y0041070D01*
X0037804Y0043367D01*
X0035672Y0045715D01*
X0033598Y0048114D01*
X0031582Y0050563D01*
X0029626Y0053060D01*
X0027731Y0055603D01*
X0025897Y0058192D01*
X0024127Y0060823D01*
X0022421Y0063497D01*
X0020780Y0066212D01*
X0019206Y0068965D01*
X0017698Y0071755D01*
X0016258Y0074581D01*
X0014887Y0077441D01*
X0013585Y0080333D01*
X0012354Y0083256D01*
X0011193Y0086208D01*
X0010104Y0089187D01*
X0009088Y0092192D01*
X0008144Y0095220D01*
X0007274Y0098270D01*
X0006478Y0101340D01*
X0005756Y0104428D01*
X0005109Y0107533D01*
X0004537Y0110653D01*
X0004041Y0113786D01*
X0003621Y0116930D01*
X0003277Y0120083D01*
X0003009Y0123243D01*
X0002817Y0126409D01*
X0002702Y0129579D01*
X0002664Y0132750D01*
X0058187Y0144217D02*
X0058189Y0144328D01*
X0058195Y0144439D01*
X0058205Y0144550D01*
X0058219Y0144661D01*
X0058237Y0144771D01*
X0058259Y0144880D01*
X0058284Y0144988D01*
X0058314Y0145095D01*
X0058347Y0145201D01*
X0058385Y0145306D01*
X0058426Y0145410D01*
X0058470Y0145512D01*
X0058519Y0145612D01*
X0058570Y0145710D01*
X0058626Y0145807D01*
X0058685Y0145901D01*
X0058747Y0145994D01*
X0058812Y0146084D01*
X0058881Y0146171D01*
X0058952Y0146257D01*
X0059027Y0146339D01*
X0059105Y0146419D01*
X0059185Y0146496D01*
X0059268Y0146570D01*
X0059354Y0146641D01*
X0059442Y0146708D01*
X0059533Y0146773D01*
X0059626Y0146834D01*
X0059721Y0146892D01*
X0059818Y0146947D01*
X0059917Y0146998D01*
X0060018Y0147045D01*
X0060120Y0147089D01*
X0060224Y0147129D01*
X0060329Y0147165D01*
X0060435Y0147198D01*
X0060543Y0147226D01*
X0060652Y0147251D01*
X0060761Y0147272D01*
X0060871Y0147289D01*
X0060981Y0147302D01*
X0061092Y0147311D01*
X0061204Y0147316D01*
X0061315Y0147317D01*
X0061426Y0147314D01*
X0061537Y0147307D01*
X0061648Y0147296D01*
X0061758Y0147281D01*
X0061868Y0147262D01*
X0061977Y0147239D01*
X0062085Y0147213D01*
X0062192Y0147182D01*
X0062298Y0147148D01*
X0062402Y0147109D01*
X0062505Y0147068D01*
X0062607Y0147022D01*
X0062707Y0146973D01*
X0062805Y0146920D01*
X0062901Y0146864D01*
X0062995Y0146804D01*
X0063087Y0146741D01*
X0063176Y0146675D01*
X0063263Y0146606D01*
X0063347Y0146533D01*
X0063429Y0146458D01*
X0063508Y0146379D01*
X0063585Y0146298D01*
X0063658Y0146214D01*
X0063728Y0146128D01*
X0063795Y0146039D01*
X0063859Y0145948D01*
X0063919Y0145855D01*
X0063976Y0145759D01*
X0064030Y0145661D01*
X0064080Y0145562D01*
X0064126Y0145461D01*
X0064169Y0145358D01*
X0064208Y0145254D01*
X0064244Y0145148D01*
X0064275Y0145042D01*
X0064303Y0144934D01*
X0064327Y0144825D01*
X0064347Y0144716D01*
X0064363Y0144606D01*
X0064375Y0144495D01*
X0064383Y0144384D01*
X0064387Y0144273D01*
X0064387Y0144161D01*
X0064383Y0144050D01*
X0064375Y0143939D01*
X0064363Y0143828D01*
X0064347Y0143718D01*
X0064327Y0143609D01*
X0064303Y0143500D01*
X0064275Y0143392D01*
X0064244Y0143286D01*
X0064208Y0143180D01*
X0064169Y0143076D01*
X0064126Y0142973D01*
X0064080Y0142872D01*
X0064030Y0142773D01*
X0063976Y0142675D01*
X0063919Y0142579D01*
X0063859Y0142486D01*
X0063795Y0142395D01*
X0063728Y0142306D01*
X0063658Y0142220D01*
X0063585Y0142136D01*
X0063508Y0142055D01*
X0063429Y0141976D01*
X0063347Y0141901D01*
X0063263Y0141828D01*
X0063176Y0141759D01*
X0063087Y0141693D01*
X0062995Y0141630D01*
X0062901Y0141570D01*
X0062805Y0141514D01*
X0062707Y0141461D01*
X0062607Y0141412D01*
X0062505Y0141366D01*
X0062402Y0141325D01*
X0062298Y0141286D01*
X0062192Y0141252D01*
X0062085Y0141221D01*
X0061977Y0141195D01*
X0061868Y0141172D01*
X0061758Y0141153D01*
X0061648Y0141138D01*
X0061537Y0141127D01*
X0061426Y0141120D01*
X0061315Y0141117D01*
X0061204Y0141118D01*
X0061092Y0141123D01*
X0060981Y0141132D01*
X0060871Y0141145D01*
X0060761Y0141162D01*
X0060652Y0141183D01*
X0060543Y0141208D01*
X0060435Y0141236D01*
X0060329Y0141269D01*
X0060224Y0141305D01*
X0060120Y0141345D01*
X0060018Y0141389D01*
X0059917Y0141436D01*
X0059818Y0141487D01*
X0059721Y0141542D01*
X0059626Y0141600D01*
X0059533Y0141661D01*
X0059442Y0141726D01*
X0059354Y0141793D01*
X0059268Y0141864D01*
X0059185Y0141938D01*
X0059105Y0142015D01*
X0059027Y0142095D01*
X0058952Y0142177D01*
X0058881Y0142263D01*
X0058812Y0142350D01*
X0058747Y0142440D01*
X0058685Y0142533D01*
X0058626Y0142627D01*
X0058570Y0142724D01*
X0058519Y0142822D01*
X0058470Y0142922D01*
X0058426Y0143024D01*
X0058385Y0143128D01*
X0058347Y0143233D01*
X0058314Y0143339D01*
X0058284Y0143446D01*
X0058259Y0143554D01*
X0058237Y0143663D01*
X0058219Y0143773D01*
X0058205Y0143884D01*
X0058195Y0143995D01*
X0058189Y0144106D01*
X0058187Y0144217D01*
X0133914Y0001500D02*
X0137265Y0001540D01*
X0140614Y0001662D01*
X0143959Y0001864D01*
X0147298Y0002147D01*
X0150629Y0002511D01*
X0153951Y0002955D01*
X0157260Y0003479D01*
X0160557Y0004083D01*
X0163837Y0004767D01*
X0167100Y0005530D01*
X0170344Y0006371D01*
X0173567Y0007290D01*
X0176766Y0008287D01*
X0179940Y0009361D01*
X0183088Y0010511D01*
X0186206Y0011738D01*
X0189295Y0013039D01*
X0192351Y0014414D01*
X0195372Y0015863D01*
X0198358Y0017384D01*
X0201306Y0018977D01*
X0204215Y0020641D01*
X0207083Y0022375D01*
X0209908Y0024177D01*
X0212689Y0026047D01*
X0215423Y0027984D01*
X0218110Y0029986D01*
X0220748Y0032053D01*
X0223336Y0034183D01*
X0225871Y0036375D01*
X0228352Y0038627D01*
X0230778Y0040938D01*
X0233148Y0043308D01*
X0235459Y0045734D01*
X0237711Y0048215D01*
X0239903Y0050750D01*
X0242033Y0053338D01*
X0244100Y0055976D01*
X0246102Y0058663D01*
X0248039Y0061397D01*
X0249909Y0064178D01*
X0251711Y0067003D01*
X0253445Y0069871D01*
X0255109Y0072780D01*
X0256702Y0075728D01*
X0258223Y0078714D01*
X0259672Y0081735D01*
X0261047Y0084791D01*
X0262348Y0087880D01*
X0263575Y0090998D01*
X0264725Y0094146D01*
X0265799Y0097320D01*
X0266796Y0100519D01*
X0267715Y0103742D01*
X0268556Y0106986D01*
X0269319Y0110249D01*
X0270003Y0113529D01*
X0270607Y0116826D01*
X0271131Y0120135D01*
X0271575Y0123457D01*
X0271939Y0126788D01*
X0272222Y0130127D01*
X0272424Y0133472D01*
X0272546Y0136821D01*
X0272586Y0140172D01*
X0019915Y0251500D02*
X0019917Y0251690D01*
X0019924Y0251880D01*
X0019936Y0252070D01*
X0019952Y0252260D01*
X0019973Y0252449D01*
X0019999Y0252637D01*
X0020029Y0252825D01*
X0020064Y0253012D01*
X0020103Y0253198D01*
X0020147Y0253383D01*
X0020196Y0253567D01*
X0020249Y0253750D01*
X0020306Y0253931D01*
X0020368Y0254111D01*
X0020434Y0254289D01*
X0020505Y0254466D01*
X0020580Y0254641D01*
X0020659Y0254814D01*
X0020743Y0254984D01*
X0020830Y0255153D01*
X0020922Y0255320D01*
X0021018Y0255484D01*
X0021117Y0255646D01*
X0021221Y0255806D01*
X0021329Y0255963D01*
X0021440Y0256117D01*
X0021555Y0256268D01*
X0021674Y0256417D01*
X0021797Y0256562D01*
X0021923Y0256705D01*
X0022052Y0256844D01*
X0022185Y0256980D01*
X0022321Y0257113D01*
X0022460Y0257242D01*
X0022603Y0257368D01*
X0022748Y0257491D01*
X0022897Y0257610D01*
X0023048Y0257725D01*
X0023202Y0257836D01*
X0023359Y0257944D01*
X0023519Y0258048D01*
X0023681Y0258147D01*
X0023845Y0258243D01*
X0024012Y0258335D01*
X0024181Y0258422D01*
X0024351Y0258506D01*
X0024524Y0258585D01*
X0024699Y0258660D01*
X0024876Y0258731D01*
X0025054Y0258797D01*
X0025234Y0258859D01*
X0025415Y0258916D01*
X0025598Y0258969D01*
X0025782Y0259018D01*
X0025967Y0259062D01*
X0026153Y0259101D01*
X0026340Y0259136D01*
X0026528Y0259166D01*
X0026716Y0259192D01*
X0026905Y0259213D01*
X0027095Y0259229D01*
X0027285Y0259241D01*
X0027475Y0259248D01*
X0027665Y0259250D01*
X0027855Y0259248D01*
X0028045Y0259241D01*
X0028235Y0259229D01*
X0028425Y0259213D01*
X0028614Y0259192D01*
X0028802Y0259166D01*
X0028990Y0259136D01*
X0029177Y0259101D01*
X0029363Y0259062D01*
X0029548Y0259018D01*
X0029732Y0258969D01*
X0029915Y0258916D01*
X0030096Y0258859D01*
X0030276Y0258797D01*
X0030454Y0258731D01*
X0030631Y0258660D01*
X0030806Y0258585D01*
X0030979Y0258506D01*
X0031149Y0258422D01*
X0031318Y0258335D01*
X0031485Y0258243D01*
X0031649Y0258147D01*
X0031811Y0258048D01*
X0031971Y0257944D01*
X0032128Y0257836D01*
X0032282Y0257725D01*
X0032433Y0257610D01*
X0032582Y0257491D01*
X0032727Y0257368D01*
X0032870Y0257242D01*
X0033009Y0257113D01*
X0033145Y0256980D01*
X0033278Y0256844D01*
X0033407Y0256705D01*
X0033533Y0256562D01*
X0033656Y0256417D01*
X0033775Y0256268D01*
X0033890Y0256117D01*
X0034001Y0255963D01*
X0034109Y0255806D01*
X0034213Y0255646D01*
X0034312Y0255484D01*
X0034408Y0255320D01*
X0034500Y0255153D01*
X0034587Y0254984D01*
X0034671Y0254814D01*
X0034750Y0254641D01*
X0034825Y0254466D01*
X0034896Y0254289D01*
X0034962Y0254111D01*
X0035024Y0253931D01*
X0035081Y0253750D01*
X0035134Y0253567D01*
X0035183Y0253383D01*
X0035227Y0253198D01*
X0035266Y0253012D01*
X0035301Y0252825D01*
X0035331Y0252637D01*
X0035357Y0252449D01*
X0035378Y0252260D01*
X0035394Y0252070D01*
X0035406Y0251880D01*
X0035413Y0251690D01*
X0035415Y0251500D01*
X0035413Y0251310D01*
X0035406Y0251120D01*
X0035394Y0250930D01*
X0035378Y0250740D01*
X0035357Y0250551D01*
X0035331Y0250363D01*
X0035301Y0250175D01*
X0035266Y0249988D01*
X0035227Y0249802D01*
X0035183Y0249617D01*
X0035134Y0249433D01*
X0035081Y0249250D01*
X0035024Y0249069D01*
X0034962Y0248889D01*
X0034896Y0248711D01*
X0034825Y0248534D01*
X0034750Y0248359D01*
X0034671Y0248186D01*
X0034587Y0248016D01*
X0034500Y0247847D01*
X0034408Y0247680D01*
X0034312Y0247516D01*
X0034213Y0247354D01*
X0034109Y0247194D01*
X0034001Y0247037D01*
X0033890Y0246883D01*
X0033775Y0246732D01*
X0033656Y0246583D01*
X0033533Y0246438D01*
X0033407Y0246295D01*
X0033278Y0246156D01*
X0033145Y0246020D01*
X0033009Y0245887D01*
X0032870Y0245758D01*
X0032727Y0245632D01*
X0032582Y0245509D01*
X0032433Y0245390D01*
X0032282Y0245275D01*
X0032128Y0245164D01*
X0031971Y0245056D01*
X0031811Y0244952D01*
X0031649Y0244853D01*
X0031485Y0244757D01*
X0031318Y0244665D01*
X0031149Y0244578D01*
X0030979Y0244494D01*
X0030806Y0244415D01*
X0030631Y0244340D01*
X0030454Y0244269D01*
X0030276Y0244203D01*
X0030096Y0244141D01*
X0029915Y0244084D01*
X0029732Y0244031D01*
X0029548Y0243982D01*
X0029363Y0243938D01*
X0029177Y0243899D01*
X0028990Y0243864D01*
X0028802Y0243834D01*
X0028614Y0243808D01*
X0028425Y0243787D01*
X0028235Y0243771D01*
X0028045Y0243759D01*
X0027855Y0243752D01*
X0027665Y0243750D01*
X0027475Y0243752D01*
X0027285Y0243759D01*
X0027095Y0243771D01*
X0026905Y0243787D01*
X0026716Y0243808D01*
X0026528Y0243834D01*
X0026340Y0243864D01*
X0026153Y0243899D01*
X0025967Y0243938D01*
X0025782Y0243982D01*
X0025598Y0244031D01*
X0025415Y0244084D01*
X0025234Y0244141D01*
X0025054Y0244203D01*
X0024876Y0244269D01*
X0024699Y0244340D01*
X0024524Y0244415D01*
X0024351Y0244494D01*
X0024181Y0244578D01*
X0024012Y0244665D01*
X0023845Y0244757D01*
X0023681Y0244853D01*
X0023519Y0244952D01*
X0023359Y0245056D01*
X0023202Y0245164D01*
X0023048Y0245275D01*
X0022897Y0245390D01*
X0022748Y0245509D01*
X0022603Y0245632D01*
X0022460Y0245758D01*
X0022321Y0245887D01*
X0022185Y0246020D01*
X0022052Y0246156D01*
X0021923Y0246295D01*
X0021797Y0246438D01*
X0021674Y0246583D01*
X0021555Y0246732D01*
X0021440Y0246883D01*
X0021329Y0247037D01*
X0021221Y0247194D01*
X0021117Y0247354D01*
X0021018Y0247516D01*
X0020922Y0247680D01*
X0020830Y0247847D01*
X0020743Y0248016D01*
X0020659Y0248186D01*
X0020580Y0248359D01*
X0020505Y0248534D01*
X0020434Y0248711D01*
X0020368Y0248889D01*
X0020306Y0249069D01*
X0020249Y0249250D01*
X0020196Y0249433D01*
X0020147Y0249617D01*
X0020103Y0249802D01*
X0020064Y0249988D01*
X0020029Y0250175D01*
X0019999Y0250363D01*
X0019973Y0250551D01*
X0019952Y0250740D01*
X0019936Y0250930D01*
X0019924Y0251120D01*
X0019917Y0251310D01*
X0019915Y0251500D01*
D11*
X0027665Y0251500D03*
X0247665Y0251500D03*
D12*
X0212468Y0176500D03*
X0212468Y0101500D03*
X0062862Y0101500D03*
X0062862Y0176500D03*
D13*
X0061287Y0144217D03*
X0214043Y0133783D03*
D14*
X0234121Y0136500D03*
X0241208Y0136500D03*
G36*
X0227791Y0165639D02*
X0231197Y0166636D01*
X0232635Y0161719D01*
X0229229Y0160722D01*
X0227791Y0165639D01*
G37*
G36*
X0234593Y0167628D02*
X0237999Y0168625D01*
X0239437Y0163708D01*
X0236031Y0162711D01*
X0234593Y0167628D01*
G37*
G36*
X0215931Y0189847D02*
X0218917Y0191764D01*
X0221685Y0187453D01*
X0218699Y0185536D01*
X0215931Y0189847D01*
G37*
G36*
X0221895Y0193675D02*
X0224881Y0195592D01*
X0227649Y0191281D01*
X0224663Y0189364D01*
X0221895Y0193675D01*
G37*
G36*
X0197733Y0209732D02*
X0200057Y0212416D01*
X0203929Y0209062D01*
X0201605Y0206378D01*
X0197733Y0209732D01*
G37*
G36*
X0202373Y0215088D02*
X0204697Y0217772D01*
X0208569Y0214418D01*
X0206245Y0211734D01*
X0202373Y0215088D01*
G37*
G36*
X0177609Y0230135D02*
X0179081Y0233364D01*
X0183743Y0231239D01*
X0182271Y0228010D01*
X0177609Y0230135D01*
G37*
G36*
X0174670Y0223687D02*
X0176142Y0226916D01*
X0180804Y0224791D01*
X0179332Y0221562D01*
X0174670Y0223687D01*
G37*
G36*
X0148603Y0230584D02*
X0149109Y0234097D01*
X0154179Y0233366D01*
X0153673Y0229853D01*
X0148603Y0230584D01*
G37*
G36*
X0149614Y0237598D02*
X0150120Y0241111D01*
X0155190Y0240380D01*
X0154684Y0236867D01*
X0149614Y0237598D01*
G37*
G36*
X0121657Y0229853D02*
X0121151Y0233366D01*
X0126221Y0234097D01*
X0126727Y0230584D01*
X0121657Y0229853D01*
G37*
G36*
X0120646Y0236867D02*
X0120140Y0240380D01*
X0125210Y0241111D01*
X0125716Y0237598D01*
X0120646Y0236867D01*
G37*
G36*
X0095998Y0221562D02*
X0094526Y0224791D01*
X0099188Y0226916D01*
X0100660Y0223687D01*
X0095998Y0221562D01*
G37*
G36*
X0093059Y0228010D02*
X0091587Y0231239D01*
X0096249Y0233364D01*
X0097721Y0230135D01*
X0093059Y0228010D01*
G37*
G36*
X0073725Y0206378D02*
X0071401Y0209062D01*
X0075273Y0212416D01*
X0077597Y0209732D01*
X0073725Y0206378D01*
G37*
G36*
X0069085Y0211734D02*
X0066761Y0214418D01*
X0070633Y0217772D01*
X0072957Y0215088D01*
X0069085Y0211734D01*
G37*
G36*
X0050667Y0189364D02*
X0047681Y0191281D01*
X0050449Y0195592D01*
X0053435Y0193675D01*
X0050667Y0189364D01*
G37*
G36*
X0056630Y0185536D02*
X0053644Y0187453D01*
X0056412Y0191764D01*
X0059398Y0189847D01*
X0056630Y0185536D01*
G37*
G36*
X0039299Y0162711D02*
X0035893Y0163708D01*
X0037331Y0168625D01*
X0040737Y0167628D01*
X0039299Y0162711D01*
G37*
G36*
X0046100Y0160722D02*
X0042694Y0161719D01*
X0044132Y0166636D01*
X0047538Y0165639D01*
X0046100Y0160722D01*
G37*
X0041208Y0136500D03*
X0034121Y0136500D03*
G36*
X0047538Y0107361D02*
X0044132Y0106364D01*
X0042694Y0111281D01*
X0046100Y0112278D01*
X0047538Y0107361D01*
G37*
G36*
X0040737Y0105372D02*
X0037331Y0104375D01*
X0035893Y0109292D01*
X0039299Y0110289D01*
X0040737Y0105372D01*
G37*
G36*
X0059398Y0083153D02*
X0056412Y0081236D01*
X0053644Y0085547D01*
X0056630Y0087464D01*
X0059398Y0083153D01*
G37*
G36*
X0053435Y0079325D02*
X0050449Y0077408D01*
X0047681Y0081719D01*
X0050667Y0083636D01*
X0053435Y0079325D01*
G37*
G36*
X0077597Y0063268D02*
X0075273Y0060584D01*
X0071401Y0063938D01*
X0073725Y0066622D01*
X0077597Y0063268D01*
G37*
G36*
X0072957Y0057912D02*
X0070633Y0055228D01*
X0066761Y0058582D01*
X0069085Y0061266D01*
X0072957Y0057912D01*
G37*
G36*
X0097721Y0042865D02*
X0096249Y0039636D01*
X0091587Y0041761D01*
X0093059Y0044990D01*
X0097721Y0042865D01*
G37*
G36*
X0100660Y0049313D02*
X0099188Y0046084D01*
X0094526Y0048209D01*
X0095998Y0051438D01*
X0100660Y0049313D01*
G37*
G36*
X0125716Y0035402D02*
X0125210Y0031889D01*
X0120140Y0032620D01*
X0120646Y0036133D01*
X0125716Y0035402D01*
G37*
G36*
X0126727Y0042416D02*
X0126221Y0038903D01*
X0121151Y0039634D01*
X0121657Y0043147D01*
X0126727Y0042416D01*
G37*
G36*
X0153673Y0043147D02*
X0154179Y0039634D01*
X0149109Y0038903D01*
X0148603Y0042416D01*
X0153673Y0043147D01*
G37*
G36*
X0154684Y0036133D02*
X0155190Y0032620D01*
X0150120Y0031889D01*
X0149614Y0035402D01*
X0154684Y0036133D01*
G37*
G36*
X0179332Y0051438D02*
X0180804Y0048209D01*
X0176142Y0046084D01*
X0174670Y0049313D01*
X0179332Y0051438D01*
G37*
G36*
X0182271Y0044990D02*
X0183743Y0041761D01*
X0179081Y0039636D01*
X0177609Y0042865D01*
X0182271Y0044990D01*
G37*
G36*
X0201605Y0066622D02*
X0203929Y0063938D01*
X0200057Y0060584D01*
X0197733Y0063268D01*
X0201605Y0066622D01*
G37*
G36*
X0206245Y0061266D02*
X0208569Y0058582D01*
X0204697Y0055228D01*
X0202373Y0057912D01*
X0206245Y0061266D01*
G37*
G36*
X0224663Y0083636D02*
X0227649Y0081719D01*
X0224881Y0077408D01*
X0221895Y0079325D01*
X0224663Y0083636D01*
G37*
G36*
X0218699Y0087464D02*
X0221685Y0085547D01*
X0218917Y0081236D01*
X0215931Y0083153D01*
X0218699Y0087464D01*
G37*
G36*
X0236031Y0110289D02*
X0239437Y0109292D01*
X0237999Y0104375D01*
X0234593Y0105372D01*
X0236031Y0110289D01*
G37*
G36*
X0229229Y0112278D02*
X0232635Y0111281D01*
X0231197Y0106364D01*
X0227791Y0107361D01*
X0229229Y0112278D01*
G37*
X0181208Y0141500D03*
X0174121Y0141500D03*
D15*
X0172665Y0151957D03*
X0172665Y0159043D03*
X0162665Y0177957D03*
X0156665Y0177957D03*
X0156665Y0185043D03*
X0162665Y0185043D03*
X0188413Y0185358D03*
X0188413Y0178272D03*
X0172665Y0112012D03*
X0172665Y0104925D03*
X0152665Y0105043D03*
X0152665Y0097957D03*
X0102665Y0097957D03*
X0102665Y0105043D03*
X0092665Y0105043D03*
X0092665Y0097957D03*
X0092665Y0090043D03*
X0092665Y0082957D03*
X0102665Y0082957D03*
X0102665Y0090043D03*
X0077665Y0097957D03*
X0077665Y0105043D03*
X0102665Y0132957D03*
X0102665Y0140043D03*
D16*
X0177044Y0130280D03*
X0177044Y0122800D03*
X0188265Y0122800D03*
X0188265Y0126540D03*
X0188265Y0130280D03*
D17*
X0222665Y0126500D03*
X0222665Y0116500D03*
X0222665Y0136500D03*
X0157665Y0061500D03*
X0147665Y0061500D03*
X0137665Y0061500D03*
X0127665Y0061500D03*
X0117665Y0061500D03*
X0107665Y0061500D03*
X0097665Y0061500D03*
X0092665Y0116500D03*
X0092665Y0126500D03*
X0092665Y0136500D03*
X0077665Y0136500D03*
X0077665Y0146500D03*
X0077665Y0156500D03*
X0077665Y0126500D03*
D18*
X0257665Y0121500D03*
D19*
X0077665Y0116500D03*
D20*
X0011169Y0126854D03*
X0264161Y0146146D03*
D21*
X0251169Y0146146D03*
X0251169Y0126854D03*
X0024161Y0126854D03*
X0024161Y0146146D03*
D22*
X0011169Y0146146D03*
X0264161Y0126854D03*
D23*
G36*
X0258970Y0107654D02*
X0260740Y0113706D01*
X0264522Y0112600D01*
X0262752Y0106548D01*
X0258970Y0107654D01*
G37*
G36*
X0245932Y0074643D02*
X0249337Y0079949D01*
X0252654Y0077819D01*
X0249249Y0072513D01*
X0245932Y0074643D01*
G37*
G36*
X0224119Y0046641D02*
X0228884Y0050769D01*
X0231465Y0047789D01*
X0226700Y0043661D01*
X0224119Y0046641D01*
G37*
G36*
X0195300Y0025919D02*
X0201037Y0028534D01*
X0202672Y0024947D01*
X0196935Y0022332D01*
X0195300Y0025919D01*
G37*
G36*
X0161815Y0014169D02*
X0168055Y0015068D01*
X0168617Y0011167D01*
X0162377Y0010268D01*
X0161815Y0014169D01*
G37*
G36*
X0126369Y0012316D02*
X0132609Y0011417D01*
X0132047Y0007516D01*
X0125807Y0008415D01*
X0126369Y0012316D01*
G37*
G36*
X0091847Y0020534D02*
X0097584Y0017919D01*
X0095949Y0014332D01*
X0090212Y0016947D01*
X0091847Y0020534D01*
G37*
G36*
X0061027Y0038139D02*
X0065792Y0034011D01*
X0063211Y0031031D01*
X0058446Y0035159D01*
X0061027Y0038139D01*
G37*
G36*
X0036415Y0063715D02*
X0039820Y0058409D01*
X0036503Y0056279D01*
X0033098Y0061585D01*
X0036415Y0063715D01*
G37*
G36*
X0020004Y0095190D02*
X0021774Y0089138D01*
X0017992Y0088032D01*
X0016222Y0094084D01*
X0020004Y0095190D01*
G37*
G36*
X0016359Y0165346D02*
X0014589Y0159294D01*
X0010807Y0160400D01*
X0012577Y0166452D01*
X0016359Y0165346D01*
G37*
G36*
X0029398Y0198357D02*
X0025993Y0193051D01*
X0022676Y0195181D01*
X0026081Y0200487D01*
X0029398Y0198357D01*
G37*
G36*
X0051211Y0226359D02*
X0046446Y0222231D01*
X0043865Y0225211D01*
X0048630Y0229339D01*
X0051211Y0226359D01*
G37*
G36*
X0080030Y0247081D02*
X0074293Y0244466D01*
X0072658Y0248053D01*
X0078395Y0250668D01*
X0080030Y0247081D01*
G37*
G36*
X0113514Y0258831D02*
X0107274Y0257932D01*
X0106712Y0261833D01*
X0112952Y0262732D01*
X0113514Y0258831D01*
G37*
G36*
X0148961Y0260684D02*
X0142721Y0261583D01*
X0143283Y0265484D01*
X0149523Y0264585D01*
X0148961Y0260684D01*
G37*
G36*
X0183482Y0252466D02*
X0177745Y0255081D01*
X0179380Y0258668D01*
X0185117Y0256053D01*
X0183482Y0252466D01*
G37*
G36*
X0214303Y0234861D02*
X0209538Y0238989D01*
X0212119Y0241969D01*
X0216884Y0237841D01*
X0214303Y0234861D01*
G37*
G36*
X0238915Y0209285D02*
X0235510Y0214591D01*
X0238827Y0216721D01*
X0242232Y0211415D01*
X0238915Y0209285D01*
G37*
G36*
X0255326Y0177810D02*
X0253556Y0183862D01*
X0257338Y0184968D01*
X0259108Y0178916D01*
X0255326Y0177810D01*
G37*
D24*
G36*
X0242832Y0173542D02*
X0240731Y0180727D01*
X0244892Y0181944D01*
X0246993Y0174759D01*
X0242832Y0173542D01*
G37*
G36*
X0248246Y0155026D02*
X0246145Y0162211D01*
X0250306Y0163428D01*
X0252407Y0156243D01*
X0248246Y0155026D01*
G37*
G36*
X0238557Y0185430D02*
X0234514Y0191729D01*
X0238163Y0194072D01*
X0242206Y0187773D01*
X0238557Y0185430D01*
G37*
G36*
X0228135Y0201663D02*
X0224092Y0207962D01*
X0227741Y0210305D01*
X0231784Y0204006D01*
X0228135Y0201663D01*
G37*
G36*
X0220695Y0211875D02*
X0215038Y0216776D01*
X0217877Y0220053D01*
X0223534Y0215152D01*
X0220695Y0211875D01*
G37*
G36*
X0206113Y0224506D02*
X0200456Y0229407D01*
X0203295Y0232684D01*
X0208952Y0227783D01*
X0206113Y0224506D01*
G37*
G36*
X0196104Y0232221D02*
X0189293Y0235325D01*
X0191092Y0239269D01*
X0197903Y0236165D01*
X0196104Y0232221D01*
G37*
G36*
X0178550Y0240221D02*
X0171739Y0243325D01*
X0173538Y0247269D01*
X0180349Y0244165D01*
X0178550Y0240221D01*
G37*
G36*
X0166758Y0244794D02*
X0159350Y0245862D01*
X0159968Y0250152D01*
X0167376Y0249084D01*
X0166758Y0244794D01*
G37*
G36*
X0147664Y0247546D02*
X0140256Y0248614D01*
X0140874Y0252904D01*
X0148282Y0251836D01*
X0147664Y0247546D01*
G37*
G36*
X0135074Y0248614D02*
X0127666Y0247546D01*
X0127048Y0251836D01*
X0134456Y0252904D01*
X0135074Y0248614D01*
G37*
G36*
X0115979Y0245862D02*
X0108571Y0244794D01*
X0107953Y0249084D01*
X0115361Y0250152D01*
X0115979Y0245862D01*
G37*
G36*
X0103591Y0243325D02*
X0096780Y0240221D01*
X0094981Y0244165D01*
X0101792Y0247269D01*
X0103591Y0243325D01*
G37*
G36*
X0086037Y0235325D02*
X0079226Y0232221D01*
X0077427Y0236165D01*
X0084238Y0239269D01*
X0086037Y0235325D01*
G37*
G36*
X0074873Y0229407D02*
X0069216Y0224506D01*
X0066377Y0227783D01*
X0072034Y0232684D01*
X0074873Y0229407D01*
G37*
G36*
X0060292Y0216776D02*
X0054635Y0211875D01*
X0051796Y0215152D01*
X0057453Y0220053D01*
X0060292Y0216776D01*
G37*
G36*
X0051238Y0207962D02*
X0047195Y0201663D01*
X0043546Y0204006D01*
X0047589Y0210305D01*
X0051238Y0207962D01*
G37*
G36*
X0040816Y0191729D02*
X0036773Y0185430D01*
X0033124Y0187773D01*
X0037167Y0194072D01*
X0040816Y0191729D01*
G37*
G36*
X0034599Y0180727D02*
X0032498Y0173542D01*
X0028337Y0174759D01*
X0030438Y0181944D01*
X0034599Y0180727D01*
G37*
G36*
X0029184Y0162211D02*
X0027083Y0155026D01*
X0022922Y0156243D01*
X0025023Y0163428D01*
X0029184Y0162211D01*
G37*
G36*
X0027083Y0117974D02*
X0029184Y0110789D01*
X0025023Y0109572D01*
X0022922Y0116757D01*
X0027083Y0117974D01*
G37*
G36*
X0032498Y0099458D02*
X0034599Y0092273D01*
X0030438Y0091056D01*
X0028337Y0098241D01*
X0032498Y0099458D01*
G37*
G36*
X0036773Y0087570D02*
X0040816Y0081271D01*
X0037167Y0078928D01*
X0033124Y0085227D01*
X0036773Y0087570D01*
G37*
G36*
X0047195Y0071337D02*
X0051238Y0065038D01*
X0047589Y0062695D01*
X0043546Y0068994D01*
X0047195Y0071337D01*
G37*
G36*
X0054635Y0061125D02*
X0060292Y0056224D01*
X0057453Y0052947D01*
X0051796Y0057848D01*
X0054635Y0061125D01*
G37*
G36*
X0069216Y0048494D02*
X0074873Y0043593D01*
X0072034Y0040316D01*
X0066377Y0045217D01*
X0069216Y0048494D01*
G37*
G36*
X0079226Y0040779D02*
X0086037Y0037675D01*
X0084238Y0033731D01*
X0077427Y0036835D01*
X0079226Y0040779D01*
G37*
G36*
X0096780Y0032779D02*
X0103591Y0029675D01*
X0101792Y0025731D01*
X0094981Y0028835D01*
X0096780Y0032779D01*
G37*
G36*
X0108571Y0028206D02*
X0115979Y0027138D01*
X0115361Y0022848D01*
X0107953Y0023916D01*
X0108571Y0028206D01*
G37*
G36*
X0127666Y0025454D02*
X0135074Y0024386D01*
X0134456Y0020096D01*
X0127048Y0021164D01*
X0127666Y0025454D01*
G37*
G36*
X0140256Y0024386D02*
X0147664Y0025454D01*
X0148282Y0021164D01*
X0140874Y0020096D01*
X0140256Y0024386D01*
G37*
G36*
X0159350Y0027138D02*
X0166758Y0028206D01*
X0167376Y0023916D01*
X0159968Y0022848D01*
X0159350Y0027138D01*
G37*
G36*
X0171739Y0029675D02*
X0178550Y0032779D01*
X0180349Y0028835D01*
X0173538Y0025731D01*
X0171739Y0029675D01*
G37*
G36*
X0189293Y0037675D02*
X0196104Y0040779D01*
X0197903Y0036835D01*
X0191092Y0033731D01*
X0189293Y0037675D01*
G37*
G36*
X0200456Y0043593D02*
X0206113Y0048494D01*
X0208952Y0045217D01*
X0203295Y0040316D01*
X0200456Y0043593D01*
G37*
G36*
X0215038Y0056224D02*
X0220695Y0061125D01*
X0223534Y0057848D01*
X0217877Y0052947D01*
X0215038Y0056224D01*
G37*
G36*
X0224092Y0065038D02*
X0228135Y0071337D01*
X0231784Y0068994D01*
X0227741Y0062695D01*
X0224092Y0065038D01*
G37*
G36*
X0234514Y0081271D02*
X0238557Y0087570D01*
X0242206Y0085227D01*
X0238163Y0078928D01*
X0234514Y0081271D01*
G37*
G36*
X0240731Y0092273D02*
X0242832Y0099458D01*
X0246993Y0098241D01*
X0244892Y0091056D01*
X0240731Y0092273D01*
G37*
G36*
X0246145Y0110789D02*
X0248246Y0117974D01*
X0252407Y0116757D01*
X0250306Y0109572D01*
X0246145Y0110789D01*
G37*
D25*
G36*
X0046427Y0051046D02*
X0051488Y0046661D01*
X0048649Y0043384D01*
X0043588Y0047769D01*
X0046427Y0051046D01*
G37*
G36*
X0026052Y0080220D02*
X0029670Y0074585D01*
X0026022Y0072242D01*
X0022404Y0077877D01*
X0026052Y0080220D01*
G37*
G36*
X0014723Y0113949D02*
X0016603Y0107522D01*
X0012443Y0106305D01*
X0010563Y0112732D01*
X0014723Y0113949D01*
G37*
G36*
X0022018Y0183994D02*
X0020138Y0177567D01*
X0015978Y0178784D01*
X0017858Y0185211D01*
X0022018Y0183994D01*
G37*
G36*
X0040092Y0214649D02*
X0036474Y0209014D01*
X0032826Y0211357D01*
X0036444Y0216992D01*
X0040092Y0214649D01*
G37*
G36*
X0066069Y0238969D02*
X0061008Y0234584D01*
X0058169Y0237861D01*
X0063230Y0242246D01*
X0066069Y0238969D01*
G37*
G36*
X0097844Y0254984D02*
X0091750Y0252206D01*
X0089952Y0256150D01*
X0096046Y0258928D01*
X0097844Y0254984D01*
G37*
G36*
X0132831Y0261416D02*
X0126203Y0260461D01*
X0125585Y0264752D01*
X0132213Y0265707D01*
X0132831Y0261416D01*
G37*
G36*
X0168221Y0257709D02*
X0161593Y0258664D01*
X0162211Y0262955D01*
X0168839Y0262000D01*
X0168221Y0257709D01*
G37*
G36*
X0201134Y0244206D02*
X0195040Y0246984D01*
X0196838Y0250928D01*
X0202932Y0248150D01*
X0201134Y0244206D01*
G37*
G36*
X0228903Y0221954D02*
X0223842Y0226339D01*
X0226681Y0229616D01*
X0231742Y0225231D01*
X0228903Y0221954D01*
G37*
G36*
X0249278Y0192780D02*
X0245660Y0198415D01*
X0249308Y0200758D01*
X0252926Y0195123D01*
X0249278Y0192780D01*
G37*
G36*
X0260606Y0159051D02*
X0258726Y0165478D01*
X0262886Y0166695D01*
X0264766Y0160268D01*
X0260606Y0159051D01*
G37*
G36*
X0253312Y0089006D02*
X0255192Y0095433D01*
X0259352Y0094216D01*
X0257472Y0087789D01*
X0253312Y0089006D01*
G37*
G36*
X0235238Y0058351D02*
X0238856Y0063986D01*
X0242504Y0061643D01*
X0238886Y0056008D01*
X0235238Y0058351D01*
G37*
G36*
X0209261Y0034031D02*
X0214322Y0038416D01*
X0217161Y0035139D01*
X0212100Y0030754D01*
X0209261Y0034031D01*
G37*
G36*
X0177485Y0018016D02*
X0183579Y0020794D01*
X0185377Y0016850D01*
X0179283Y0014072D01*
X0177485Y0018016D01*
G37*
G36*
X0142499Y0011584D02*
X0149127Y0012539D01*
X0149745Y0008248D01*
X0143117Y0007293D01*
X0142499Y0011584D01*
G37*
G36*
X0107108Y0015291D02*
X0113736Y0014336D01*
X0113118Y0010045D01*
X0106490Y0011000D01*
X0107108Y0015291D01*
G37*
G36*
X0074196Y0028794D02*
X0080290Y0026016D01*
X0078492Y0022072D01*
X0072398Y0024850D01*
X0074196Y0028794D01*
G37*
D26*
X0165165Y0157866D03*
X0165165Y0166134D03*
D27*
X0168728Y0076126D03*
X0168728Y0061126D03*
X0188728Y0061126D03*
X0188728Y0076126D03*
D28*
X0153413Y0113665D03*
X0150263Y0113665D03*
X0147114Y0113665D03*
X0143964Y0113665D03*
X0140814Y0113665D03*
X0137665Y0113665D03*
X0134515Y0113665D03*
X0131366Y0113665D03*
X0128216Y0113665D03*
X0125066Y0113665D03*
X0121917Y0113665D03*
X0121917Y0159335D03*
X0125066Y0159335D03*
X0128216Y0159335D03*
X0131366Y0159335D03*
X0134515Y0159335D03*
X0137665Y0159335D03*
X0140814Y0159335D03*
X0143964Y0159335D03*
X0147114Y0159335D03*
X0150263Y0159335D03*
X0153413Y0159335D03*
D29*
X0160499Y0152248D03*
X0160499Y0149098D03*
X0160499Y0145949D03*
X0160499Y0142799D03*
X0160499Y0139650D03*
X0160499Y0136500D03*
X0160499Y0133350D03*
X0160499Y0130201D03*
X0160499Y0127051D03*
X0160499Y0123902D03*
X0160499Y0120752D03*
X0114830Y0120752D03*
X0114830Y0123902D03*
X0114830Y0127051D03*
X0114830Y0130201D03*
X0114830Y0133350D03*
X0114830Y0136500D03*
X0114830Y0139650D03*
X0114830Y0142799D03*
X0114830Y0145949D03*
X0114830Y0149098D03*
X0114830Y0152248D03*
D30*
X0152665Y0206500D03*
D31*
X0142665Y0206500D03*
X0142665Y0196500D03*
X0152665Y0196500D03*
X0132665Y0196500D03*
X0132665Y0206500D03*
X0122665Y0206500D03*
X0122665Y0196500D03*
D32*
X0180263Y0096500D03*
X0197192Y0096500D03*
D33*
X0196405Y0145004D03*
X0196405Y0150122D03*
X0188925Y0150122D03*
X0188925Y0147563D03*
X0188925Y0145004D03*
D34*
X0200657Y0085082D02*
X0200657Y0077682D01*
X0210657Y0077682D02*
X0210657Y0085082D01*
D35*
X0197901Y0160319D03*
X0197901Y0167799D03*
X0187704Y0167799D03*
X0187704Y0164059D03*
X0187704Y0160319D03*
M02*
