%
M48
M72
T01C0.0120
T02C0.0140
T03C0.0236
T04C0.0240
T05C0.0400
T06C0.0440
T07C0.0591
T08C0.0620
T09C0.1550
%
T01
X12743Y14162
X13766Y14437
X13215Y14241
T02
X25952Y13150
X7766Y22650
X10766Y24150
X13766Y24650
X3766Y18150
X23766Y9150
X20266Y12650
X18766Y14150
X20766Y14150
X16266Y11150
X16766Y12650
X23766Y7150
X19766Y4650
X15266Y17150
X12266Y14150
X18759Y15528
X10766Y13150
T03
X1638Y16567
T04
X18266Y17650
X17266Y11650
X14766Y12150
T05
X9266Y11650
X9266Y12650
X9266Y13650
X25766Y12150
X22266Y11650
X22266Y12650
X22266Y13650
X7766Y11650
X7766Y12650
X7766Y13650
X7766Y14650
X7766Y15650
X15266Y20650
X15266Y19650
X14266Y20650
X14266Y19650
X13266Y20650
X13266Y19650
X12266Y20650
X12266Y19650
X15766Y6150
X14766Y6150
X13766Y6150
X12766Y6150
X11766Y6150
X10766Y6150
X9766Y6150
X10666Y21844
T06
X20066Y8138
X21066Y8138
T07
X21247Y10150
X6286Y10150
X6286Y17650
X21247Y17650
T08
X21404Y13378
X6129Y14422
T09
X24766Y25150
X2766Y25150
M30
