%
M48
M72
T01C0.0240
T02C0.0360
T03C0.0394
T04C0.0400
T05C0.0433
T06C0.0591
T07C0.0866
%
T01
X16680Y11148
X15680Y7148
X13180Y7148
X16180Y4648
X15180Y3148
X25180Y14648
X28680Y10148
X13180Y21148
X20680Y21148
X9680Y20148
X24680Y20648
X17180Y19148
X24680Y9148
X16680Y18148
T02
X21302Y8093
X22236Y8093
X23124Y8093
X24058Y8093
T03
X7180Y23648
X8180Y23648
X14680Y23648
X15680Y23648
T04
X2680Y22648
X3680Y22648
X2680Y21648
X3680Y21648
X2680Y20648
X3680Y20648
X2680Y19648
X3680Y19648
X2680Y18648
X3680Y18648
X2680Y17648
X3680Y17648
X2680Y16648
X3680Y16648
X2680Y15648
X3680Y15648
X2680Y14648
X3680Y14648
X2680Y13648
X3680Y13648
X2680Y12648
X3680Y12648
X2680Y11648
X3680Y11648
X2680Y10648
X3680Y10648
X2680Y9648
X3680Y9648
X2680Y8648
X3680Y8648
X2680Y7648
X3680Y7648
X2680Y6648
X3680Y6648
X2680Y5648
X3680Y5648
X2680Y4648
X3680Y4648
X26680Y22648
X27680Y22648
X26680Y21648
X27680Y21648
X26680Y20648
X27680Y20648
X26680Y19648
X27680Y19648
X26680Y18648
X27680Y18648
X26680Y17648
X27680Y17648
X26680Y16648
X27680Y16648
X26680Y15648
X27680Y15648
X26680Y14648
X27680Y14648
X26680Y13648
X27680Y13648
X26680Y12648
X27680Y12648
X26680Y11648
X27680Y11648
X26680Y10648
X27680Y10648
X26680Y9648
X27680Y9648
X26680Y8648
X27680Y8648
X26680Y7648
X27680Y7648
X26680Y6648
X27680Y6648
X26680Y5648
X27680Y5648
X26680Y4648
X27680Y4648
X23680Y14648
X23680Y15648
X23680Y16648
X23680Y17648
X23680Y18648
X23680Y19648
X23680Y20648
X23680Y21648
X23680Y22648
T05
X21794Y7109
X23566Y7109
T06
X8719Y4711
X7774Y6679
X9664Y6679
X10727Y6679
X6711Y6679
X6751Y4711
X10688Y4711
X8719Y6679
T07
X24963Y7148
X20397Y7148
M30
