G75*
G70*
%OFA0B0*%
%FSLAX24Y24*%
%IPPOS*%
%LPD*%
%AMOC8*
5,1,8,0,0,1.08239X$1,22.5*
%
%ADD10C,0.0090*%
%ADD11C,0.0000*%
%ADD12C,0.0118*%
%ADD13C,0.0050*%
%ADD14C,0.0060*%
%ADD15R,0.0390X0.0180*%
%ADD16R,0.0390X0.0180*%
%ADD17R,0.0180X0.0390*%
%ADD18R,0.0180X0.0390*%
%ADD19C,0.0375*%
D10*
X021592Y002532D02*
X021843Y002532D01*
X021926Y002615D01*
X021926Y002699D01*
X021843Y002782D01*
X021592Y002782D01*
X021592Y002532D02*
X021592Y003033D01*
X021843Y003033D01*
X021926Y002949D01*
X021926Y002866D01*
X021843Y002782D01*
X022136Y002615D02*
X022219Y002532D01*
X022386Y002532D01*
X022470Y002615D01*
X022470Y002949D01*
X022386Y003033D01*
X022219Y003033D01*
X022136Y002949D01*
X022136Y002615D01*
X022680Y003033D02*
X023014Y003033D01*
X022847Y003033D02*
X022847Y002532D01*
X023390Y002532D02*
X023390Y003033D01*
X023223Y003033D02*
X023557Y003033D01*
X023767Y002949D02*
X023767Y002615D01*
X023851Y002532D01*
X024018Y002532D01*
X024101Y002615D01*
X024101Y002949D01*
X024018Y003033D01*
X023851Y003033D01*
X023767Y002949D01*
X024311Y003033D02*
X024478Y002866D01*
X024645Y003033D01*
X024645Y002532D01*
X024311Y002532D02*
X024311Y003033D01*
D11*
X003578Y001721D02*
X003578Y019817D01*
X003580Y019872D01*
X003586Y019927D01*
X003596Y019981D01*
X003609Y020034D01*
X003627Y020086D01*
X003648Y020137D01*
X003672Y020187D01*
X003700Y020234D01*
X003732Y020279D01*
X003766Y020322D01*
X003804Y020362D01*
X003844Y020400D01*
X003887Y020434D01*
X003932Y020466D01*
X003979Y020494D01*
X004029Y020518D01*
X004080Y020539D01*
X004132Y020557D01*
X004185Y020570D01*
X004239Y020580D01*
X004294Y020586D01*
X004349Y020588D01*
X033873Y020588D01*
X033933Y020586D01*
X033994Y020580D01*
X034053Y020571D01*
X034112Y020558D01*
X034170Y020541D01*
X034227Y020520D01*
X034283Y020496D01*
X034336Y020469D01*
X034388Y020438D01*
X034438Y020404D01*
X034486Y020367D01*
X034532Y020327D01*
X034574Y020285D01*
X034614Y020239D01*
X034651Y020191D01*
X034685Y020141D01*
X034716Y020089D01*
X034743Y020036D01*
X034767Y019980D01*
X034788Y019923D01*
X034805Y019865D01*
X034818Y019806D01*
X034827Y019747D01*
X034833Y019686D01*
X034835Y019626D01*
X034834Y019626D02*
X034834Y001576D01*
X034832Y001526D01*
X034827Y001477D01*
X034817Y001428D01*
X034805Y001381D01*
X034788Y001334D01*
X034768Y001288D01*
X034745Y001245D01*
X034719Y001203D01*
X034689Y001163D01*
X034657Y001125D01*
X034622Y001090D01*
X034584Y001058D01*
X034544Y001028D01*
X034503Y001002D01*
X034459Y000979D01*
X034413Y000959D01*
X034366Y000942D01*
X034319Y000930D01*
X034270Y000920D01*
X034221Y000915D01*
X034171Y000913D01*
X004387Y000913D01*
X004332Y000915D01*
X004277Y000921D01*
X004223Y000930D01*
X004169Y000943D01*
X004116Y000960D01*
X004065Y000980D01*
X004015Y001004D01*
X003967Y001031D01*
X003921Y001061D01*
X003877Y001094D01*
X003835Y001130D01*
X003796Y001169D01*
X003760Y001211D01*
X003727Y001255D01*
X003697Y001301D01*
X003670Y001349D01*
X003646Y001399D01*
X003626Y001450D01*
X003609Y001503D01*
X003596Y001557D01*
X003587Y001611D01*
X003581Y001666D01*
X003579Y001721D01*
D12*
X013476Y001264D02*
X014106Y001264D01*
X014106Y002524D01*
X013476Y002524D01*
X013476Y001264D01*
X014414Y001264D02*
X015044Y001264D01*
X015044Y002524D01*
X014414Y002524D01*
X014414Y001264D01*
X015352Y001264D02*
X015981Y001264D01*
X015981Y002524D01*
X015352Y002524D01*
X015352Y001264D01*
X016614Y001007D02*
X017094Y001007D01*
X017094Y002207D01*
X016614Y002207D01*
X016614Y001007D01*
X020167Y000606D02*
X020916Y000606D01*
X022167Y000606D01*
X022167Y000169D01*
X020916Y000169D01*
X020916Y000606D01*
X020167Y000606D02*
X020167Y001606D01*
X022916Y001606D01*
X022916Y000606D01*
X022167Y000606D01*
X019352Y003431D02*
X017856Y003431D01*
X017856Y004947D01*
X019352Y004947D01*
X019352Y003431D01*
X019352Y004947D02*
X019352Y005281D01*
X017856Y005281D01*
X017856Y004947D01*
X021226Y006039D02*
X021856Y006039D01*
X021856Y007299D01*
X021226Y007299D01*
X021226Y006039D01*
X023102Y005361D02*
X023731Y005361D01*
X023731Y004101D01*
X023102Y004101D01*
X023102Y005361D01*
X024667Y004361D02*
X024667Y007601D01*
X025167Y007601D01*
X025167Y007607D02*
X025541Y007232D01*
X025917Y007607D01*
X025917Y007601D02*
X026417Y007601D01*
X026417Y004361D01*
X024667Y004361D01*
X027849Y004109D02*
X027849Y003479D01*
X029109Y003479D01*
X029109Y004109D01*
X027849Y004109D01*
X028724Y004791D02*
X029984Y004791D01*
X029984Y005421D01*
X028724Y005421D01*
X028724Y004791D01*
X028439Y005801D02*
X028439Y007601D01*
X029039Y007601D01*
X029104Y007607D02*
X029354Y007231D01*
X029604Y007607D01*
X029639Y007601D02*
X030239Y007601D01*
X030239Y005801D01*
X028439Y005801D01*
X030976Y006351D02*
X031606Y006351D01*
X031606Y007611D01*
X030976Y007611D01*
X030976Y006351D01*
X032039Y006351D02*
X032669Y006351D01*
X032669Y007611D01*
X032039Y007611D01*
X032039Y006351D01*
X031630Y005447D02*
X031078Y005447D01*
X031078Y004266D01*
X031630Y004266D01*
X031630Y005447D01*
X029484Y007792D02*
X028224Y007792D01*
X028224Y008422D01*
X029484Y008422D01*
X029484Y007792D01*
X028106Y009351D02*
X027476Y009351D01*
X027476Y010611D01*
X028106Y010611D01*
X028106Y009351D01*
X026606Y009289D02*
X026606Y010549D01*
X025976Y010549D01*
X025976Y009289D01*
X026606Y009289D01*
X025794Y009289D02*
X025794Y010549D01*
X025164Y010549D01*
X025164Y009289D01*
X025794Y009289D01*
X027287Y011416D02*
X028546Y011416D01*
X028546Y012046D01*
X027287Y012046D01*
X027287Y011416D01*
X026976Y012539D02*
X027606Y012539D01*
X027606Y013799D01*
X026976Y013799D01*
X026976Y012539D01*
X026231Y012977D02*
X026231Y014237D01*
X025602Y014237D01*
X025602Y012977D01*
X026231Y012977D01*
X026974Y014292D02*
X028234Y014292D01*
X028234Y014922D01*
X026974Y014922D01*
X026974Y014292D01*
X027531Y015111D02*
X028131Y015111D01*
X028166Y015106D02*
X028417Y015481D01*
X028666Y015106D01*
X028731Y015111D02*
X029331Y015111D01*
X029331Y016911D01*
X027531Y016911D01*
X027531Y015111D01*
X026731Y015601D02*
X026102Y015601D01*
X026102Y016861D01*
X026731Y016861D01*
X026731Y015601D01*
X028974Y014859D02*
X028974Y014229D01*
X030234Y014229D01*
X030234Y014859D01*
X028974Y014859D01*
X030287Y013671D02*
X030287Y013041D01*
X031546Y013041D01*
X031546Y013671D01*
X030287Y013671D01*
X029737Y012084D02*
X031537Y012084D01*
X031537Y011484D01*
X031542Y011419D02*
X031167Y011169D01*
X031542Y010919D01*
X031537Y010884D02*
X031537Y010284D01*
X029737Y010284D01*
X029737Y012084D01*
X027671Y017166D02*
X026411Y017166D01*
X026411Y017796D01*
X027671Y017796D01*
X027671Y017166D01*
X028411Y017354D02*
X029671Y017354D01*
X029671Y017984D01*
X028411Y017984D01*
X028411Y017354D01*
X028294Y018414D02*
X027664Y018414D01*
X027664Y019674D01*
X028294Y019674D01*
X028294Y018414D01*
X028539Y018414D02*
X029169Y018414D01*
X029169Y019674D01*
X028539Y019674D01*
X028539Y018414D01*
X029476Y018414D02*
X030106Y018414D01*
X030106Y019674D01*
X029476Y019674D01*
X029476Y018414D01*
X027169Y018414D02*
X026539Y018414D01*
X026539Y019674D01*
X027169Y019674D01*
X027169Y018414D01*
X026231Y018414D02*
X025602Y018414D01*
X025602Y019674D01*
X026231Y019674D01*
X026231Y018414D01*
X025171Y018166D02*
X025171Y018796D01*
X023911Y018796D01*
X023911Y018166D01*
X025171Y018166D01*
X025171Y018046D02*
X023911Y018046D01*
X023911Y017416D01*
X025171Y017416D01*
X025171Y018046D01*
X024546Y019666D02*
X023287Y019666D01*
X023287Y020296D01*
X024546Y020296D01*
X024546Y019666D01*
X023251Y019541D02*
X023251Y020541D01*
X022501Y020541D01*
X021251Y020541D01*
X021251Y020979D01*
X022501Y020979D01*
X022501Y020541D01*
X023251Y019541D02*
X020501Y019541D01*
X020501Y020541D01*
X021251Y020541D01*
X019352Y019469D02*
X019352Y017953D01*
X017856Y017953D01*
X017856Y019469D01*
X019352Y019469D01*
X019352Y017953D02*
X019352Y017619D01*
X017856Y017619D01*
X017856Y017953D01*
X012794Y012889D02*
X012164Y012889D01*
X012164Y012574D01*
X012794Y012574D01*
X012794Y012889D01*
X013542Y012106D02*
X011417Y012106D01*
X011417Y009231D01*
X013542Y009231D01*
X013542Y012106D01*
X014946Y011546D02*
X015261Y011546D01*
X015261Y010916D01*
X014946Y010916D01*
X014946Y011546D01*
X015509Y011546D02*
X015824Y011546D01*
X015824Y010916D01*
X015509Y010916D01*
X015509Y011546D01*
X016134Y011546D02*
X016449Y011546D01*
X016449Y010916D01*
X016134Y010916D01*
X016134Y011546D01*
X017269Y011154D02*
X017939Y011154D01*
X017939Y009934D01*
X017269Y009934D01*
X017269Y011154D01*
X016606Y010361D02*
X015976Y010361D01*
X015976Y009101D01*
X016606Y009101D01*
X016606Y010361D01*
X017164Y009701D02*
X017164Y009387D01*
X017794Y009387D01*
X017794Y009701D01*
X017164Y009701D01*
X012794Y008764D02*
X012794Y008449D01*
X012164Y008449D01*
X012164Y008764D01*
X012794Y008764D01*
X008644Y009674D02*
X008044Y009674D01*
X007979Y009669D02*
X007729Y010044D01*
X007479Y009669D01*
X007444Y009674D02*
X006844Y009674D01*
X006844Y011474D01*
X008644Y011474D01*
X008644Y009674D01*
D13*
X009371Y011001D02*
X009371Y011116D01*
X009371Y011059D02*
X009715Y011059D01*
X009715Y011116D02*
X009715Y011001D01*
X009658Y011243D02*
X009429Y011243D01*
X009371Y011300D01*
X009371Y011415D01*
X009429Y011472D01*
X009486Y011605D02*
X009371Y011720D01*
X009715Y011720D01*
X009715Y011605D02*
X009715Y011835D01*
X009715Y011968D02*
X009486Y012197D01*
X009429Y012197D01*
X009371Y012140D01*
X009371Y012025D01*
X009429Y011968D01*
X009715Y011968D02*
X009715Y012197D01*
X009658Y011472D02*
X009715Y011415D01*
X009715Y011300D01*
X009658Y011243D01*
X010816Y011352D02*
X011160Y011123D01*
X011160Y011352D02*
X010816Y011123D01*
X010931Y011485D02*
X010816Y011600D01*
X011160Y011600D01*
X011160Y011485D02*
X011160Y011715D01*
X012296Y013807D02*
X012525Y013807D01*
X012582Y013864D01*
X012582Y013979D01*
X012525Y014036D01*
X012525Y014169D02*
X012582Y014227D01*
X012582Y014341D01*
X012525Y014399D01*
X012411Y014399D01*
X012353Y014341D01*
X012353Y014284D01*
X012411Y014169D01*
X012239Y014169D01*
X012239Y014399D01*
X012411Y014532D02*
X012411Y014761D01*
X012582Y014704D02*
X012239Y014704D01*
X012411Y014532D01*
X012296Y014036D02*
X012239Y013979D01*
X012239Y013864D01*
X012296Y013807D01*
X014909Y013440D02*
X014909Y013325D01*
X014967Y013268D01*
X015196Y013268D01*
X014967Y013497D01*
X015196Y013497D01*
X015253Y013440D01*
X015253Y013325D01*
X015196Y013268D01*
X015196Y013135D02*
X015139Y013135D01*
X015081Y013077D01*
X015081Y012906D01*
X015196Y012906D01*
X015253Y012963D01*
X015253Y013077D01*
X015196Y013135D01*
X014967Y013020D02*
X015081Y012906D01*
X014967Y013020D02*
X014909Y013135D01*
X014967Y012772D02*
X014909Y012715D01*
X014909Y012600D01*
X014967Y012543D01*
X015196Y012543D01*
X015253Y012600D01*
X015253Y012715D01*
X015196Y012772D01*
X015472Y012715D02*
X015472Y012600D01*
X015529Y012543D01*
X015759Y012543D01*
X015816Y012600D01*
X015816Y012715D01*
X015759Y012772D01*
X015759Y012906D02*
X015816Y012963D01*
X015816Y013077D01*
X015759Y013135D01*
X015644Y013135D01*
X015587Y013077D01*
X015587Y013020D01*
X015644Y012906D01*
X015472Y012906D01*
X015472Y013135D01*
X015529Y013268D02*
X015587Y013268D01*
X015644Y013325D01*
X015644Y013497D01*
X015759Y013497D02*
X015529Y013497D01*
X015472Y013440D01*
X015472Y013325D01*
X015529Y013268D01*
X015759Y013268D02*
X015816Y013325D01*
X015816Y013440D01*
X015759Y013497D01*
X016126Y013517D02*
X016126Y013288D01*
X016298Y013288D01*
X016240Y013403D01*
X016240Y013460D01*
X016298Y013517D01*
X016412Y013517D01*
X016469Y013460D01*
X016469Y013345D01*
X016412Y013288D01*
X016412Y013155D02*
X016469Y013098D01*
X016469Y012983D01*
X016412Y012926D01*
X016469Y012792D02*
X016355Y012678D01*
X016355Y012735D02*
X016355Y012563D01*
X016469Y012563D02*
X016126Y012563D01*
X016126Y012735D01*
X016183Y012792D01*
X016298Y012792D01*
X016355Y012735D01*
X016183Y012926D02*
X016126Y012983D01*
X016126Y013098D01*
X016183Y013155D01*
X016240Y013155D01*
X016298Y013098D01*
X016355Y013155D01*
X016412Y013155D01*
X016298Y013098D02*
X016298Y013040D01*
X015529Y012772D02*
X015472Y012715D01*
X014909Y013440D02*
X014967Y013497D01*
X017395Y013393D02*
X017567Y013221D01*
X017567Y013450D01*
X017739Y013393D02*
X017395Y013393D01*
X017395Y012973D02*
X017739Y012973D01*
X017739Y013087D02*
X017739Y012858D01*
X017681Y012725D02*
X017739Y012668D01*
X017739Y012553D01*
X017681Y012496D01*
X017452Y012496D01*
X017395Y012553D01*
X017395Y012668D01*
X017452Y012725D01*
X017509Y012858D02*
X017395Y012973D01*
X017395Y012369D02*
X017395Y012254D01*
X017395Y012311D02*
X017739Y012311D01*
X017739Y012254D02*
X017739Y012369D01*
X015794Y011023D02*
X015450Y011023D01*
X015622Y010851D01*
X015622Y011080D01*
X015679Y010717D02*
X015622Y010660D01*
X015622Y010488D01*
X015737Y010488D01*
X015794Y010546D01*
X015794Y010660D01*
X015737Y010717D01*
X015679Y010717D01*
X015507Y010603D02*
X015622Y010488D01*
X015507Y010603D02*
X015450Y010717D01*
X015507Y010355D02*
X015450Y010298D01*
X015450Y010183D01*
X015507Y010126D01*
X015737Y010126D01*
X015794Y010183D01*
X015794Y010298D01*
X015737Y010355D01*
X017313Y010085D02*
X017371Y010143D01*
X017428Y010143D01*
X017485Y010085D01*
X017543Y010143D01*
X017600Y010143D01*
X017657Y010085D01*
X017657Y009971D01*
X017600Y009913D01*
X017600Y009780D02*
X017543Y009780D01*
X017485Y009723D01*
X017485Y009551D01*
X017600Y009551D01*
X017657Y009608D01*
X017657Y009723D01*
X017600Y009780D01*
X017371Y009665D02*
X017485Y009551D01*
X017371Y009665D02*
X017313Y009780D01*
X017371Y009913D02*
X017313Y009971D01*
X017313Y010085D01*
X017485Y010085D02*
X017485Y010028D01*
X017371Y009418D02*
X017313Y009360D01*
X017313Y009246D01*
X017371Y009188D01*
X017600Y009188D01*
X017657Y009246D01*
X017657Y009360D01*
X017600Y009418D01*
X020653Y007911D02*
X020653Y007797D01*
X020711Y007739D01*
X020768Y007739D01*
X020825Y007797D01*
X020825Y007969D01*
X020711Y007969D02*
X020653Y007911D01*
X020711Y007969D02*
X020940Y007969D01*
X020997Y007911D01*
X020997Y007797D01*
X020940Y007739D01*
X020940Y007606D02*
X020997Y007549D01*
X020997Y007434D01*
X020940Y007377D01*
X020997Y007244D02*
X020883Y007129D01*
X020883Y007186D02*
X020883Y007014D01*
X020997Y007014D02*
X020653Y007014D01*
X020653Y007186D01*
X020711Y007244D01*
X020825Y007244D01*
X020883Y007186D01*
X020711Y007377D02*
X020653Y007434D01*
X020653Y007549D01*
X020711Y007606D01*
X020768Y007606D01*
X020825Y007549D01*
X020883Y007606D01*
X020940Y007606D01*
X020825Y007549D02*
X020825Y007491D01*
X022575Y006080D02*
X022575Y005851D01*
X022747Y005851D01*
X022690Y005965D01*
X022690Y006023D01*
X022747Y006080D01*
X022862Y006080D01*
X022919Y006023D01*
X022919Y005908D01*
X022862Y005851D01*
X022919Y005717D02*
X022919Y005488D01*
X022690Y005717D01*
X022632Y005717D01*
X022575Y005660D01*
X022575Y005546D01*
X022632Y005488D01*
X022632Y005355D02*
X022575Y005298D01*
X022575Y005183D01*
X022632Y005126D01*
X022862Y005126D01*
X022919Y005183D01*
X022919Y005298D01*
X022862Y005355D01*
X027430Y007014D02*
X027430Y007128D01*
X027430Y007071D02*
X027774Y007071D01*
X027774Y007014D02*
X027774Y007128D01*
X027717Y007255D02*
X027488Y007255D01*
X027430Y007312D01*
X027430Y007427D01*
X027488Y007484D01*
X027430Y007618D02*
X027430Y007847D01*
X027488Y007847D01*
X027717Y007618D01*
X027774Y007618D01*
X027717Y007484D02*
X027774Y007427D01*
X027774Y007312D01*
X027717Y007255D01*
X025704Y008372D02*
X025704Y008486D01*
X025704Y008429D02*
X025360Y008429D01*
X025360Y008372D02*
X025360Y008486D01*
X025417Y008613D02*
X025647Y008613D01*
X025704Y008671D01*
X025704Y008785D01*
X025647Y008843D01*
X025647Y008976D02*
X025704Y009033D01*
X025704Y009148D01*
X025647Y009205D01*
X025589Y009205D01*
X025532Y009148D01*
X025532Y008976D01*
X025647Y008976D01*
X025532Y008976D02*
X025417Y009091D01*
X025360Y009205D01*
X025417Y008843D02*
X025360Y008785D01*
X025360Y008671D01*
X025417Y008613D01*
X028335Y010413D02*
X028335Y010528D01*
X028392Y010585D01*
X028392Y010718D02*
X028335Y010775D01*
X028335Y010890D01*
X028392Y010947D01*
X028450Y010947D01*
X028507Y010890D01*
X028564Y010947D01*
X028622Y010947D01*
X028679Y010890D01*
X028679Y010775D01*
X028622Y010718D01*
X028622Y010585D02*
X028679Y010528D01*
X028679Y010413D01*
X028622Y010356D01*
X028392Y010356D01*
X028335Y010413D01*
X028726Y010195D02*
X028783Y010253D01*
X028841Y010253D01*
X028898Y010195D01*
X028955Y010253D01*
X029013Y010253D01*
X029070Y010195D01*
X029070Y010081D01*
X029013Y010024D01*
X029070Y009890D02*
X029070Y009661D01*
X029070Y009776D02*
X028726Y009776D01*
X028841Y009661D01*
X028898Y009528D02*
X028955Y009471D01*
X028955Y009299D01*
X028955Y009413D02*
X029070Y009528D01*
X028898Y009528D02*
X028783Y009528D01*
X028726Y009471D01*
X028726Y009299D01*
X029070Y009299D01*
X028783Y010024D02*
X028726Y010081D01*
X028726Y010195D01*
X028898Y010195D02*
X028898Y010138D01*
X028507Y010833D02*
X028507Y010890D01*
X028622Y011081D02*
X028392Y011310D01*
X028622Y011310D01*
X028679Y011253D01*
X028679Y011138D01*
X028622Y011081D01*
X028392Y011081D01*
X028335Y011138D01*
X028335Y011253D01*
X028392Y011310D01*
X028945Y012063D02*
X029174Y012063D01*
X029232Y012120D01*
X029232Y012235D01*
X029174Y012292D01*
X029174Y012426D02*
X029232Y012483D01*
X029232Y012598D01*
X029174Y012655D01*
X029117Y012655D01*
X029060Y012598D01*
X029060Y012540D01*
X029060Y012598D02*
X029002Y012655D01*
X028945Y012655D01*
X028888Y012598D01*
X028888Y012483D01*
X028945Y012426D01*
X028945Y012292D02*
X028888Y012235D01*
X028888Y012120D01*
X028945Y012063D01*
X029002Y012788D02*
X028888Y012903D01*
X029232Y012903D01*
X029232Y013017D02*
X029232Y012788D01*
X028179Y013600D02*
X028122Y013543D01*
X027892Y013543D01*
X027835Y013600D01*
X027835Y013715D01*
X027892Y013772D01*
X027892Y013906D02*
X027835Y013963D01*
X027835Y014077D01*
X027892Y014135D01*
X027950Y014135D01*
X028179Y013906D01*
X028179Y014135D01*
X028122Y014268D02*
X028179Y014325D01*
X028179Y014440D01*
X028122Y014497D01*
X027892Y014497D01*
X027835Y014440D01*
X027835Y014325D01*
X027892Y014268D01*
X027950Y014268D01*
X028007Y014325D01*
X028007Y014497D01*
X028122Y013772D02*
X028179Y013715D01*
X028179Y013600D01*
X029450Y014001D02*
X029450Y014173D01*
X029507Y014230D01*
X029622Y014230D01*
X029679Y014173D01*
X029679Y014001D01*
X029679Y014116D02*
X029794Y014230D01*
X029794Y014363D02*
X029565Y014593D01*
X029507Y014593D01*
X029450Y014535D01*
X029450Y014421D01*
X029507Y014363D01*
X029794Y014363D02*
X029794Y014593D01*
X029737Y014726D02*
X029507Y014726D01*
X029450Y014783D01*
X029450Y014898D01*
X029507Y014955D01*
X029737Y014726D01*
X029794Y014783D01*
X029794Y014898D01*
X029737Y014955D01*
X029507Y014955D01*
X030779Y015059D02*
X030836Y015002D01*
X030779Y015059D02*
X030779Y015174D01*
X030836Y015231D01*
X030894Y015231D01*
X031123Y015002D01*
X031123Y015231D01*
X031066Y015364D02*
X031008Y015364D01*
X030951Y015422D01*
X030951Y015536D01*
X031008Y015594D01*
X031066Y015594D01*
X031123Y015536D01*
X031123Y015422D01*
X031066Y015364D01*
X030951Y015422D02*
X030894Y015364D01*
X030836Y015364D01*
X030779Y015422D01*
X030779Y015536D01*
X030836Y015594D01*
X030894Y015594D01*
X030951Y015536D01*
X031066Y014869D02*
X031123Y014811D01*
X031123Y014697D01*
X031066Y014639D01*
X030836Y014639D01*
X030779Y014697D01*
X030779Y014811D01*
X030836Y014869D01*
X029794Y014001D02*
X029450Y014001D01*
X031724Y012255D02*
X031781Y012312D01*
X031839Y012312D01*
X031896Y012255D01*
X031896Y012140D01*
X031839Y012083D01*
X031781Y012083D01*
X031724Y012140D01*
X031724Y012255D01*
X031896Y012255D02*
X031953Y012312D01*
X032011Y012312D01*
X032068Y012255D01*
X032068Y012140D01*
X032011Y012083D01*
X031953Y012083D01*
X031896Y012140D01*
X032011Y011949D02*
X032068Y011892D01*
X032068Y011777D01*
X032011Y011720D01*
X031781Y011720D01*
X031724Y011777D01*
X031724Y011892D01*
X031781Y011949D01*
X031724Y011593D02*
X031724Y011478D01*
X031724Y011536D02*
X032068Y011536D01*
X032068Y011593D02*
X032068Y011478D01*
X032319Y009435D02*
X032319Y009205D01*
X032147Y009377D01*
X032491Y009377D01*
X032491Y009072D02*
X032491Y008843D01*
X032491Y008958D02*
X032147Y008958D01*
X032262Y008843D01*
X032319Y008710D02*
X032376Y008652D01*
X032376Y008480D01*
X032376Y008595D02*
X032491Y008710D01*
X032319Y008710D02*
X032204Y008710D01*
X032147Y008652D01*
X032147Y008480D01*
X032491Y008480D01*
X031429Y008600D02*
X031371Y008543D01*
X031142Y008543D01*
X031085Y008600D01*
X031085Y008715D01*
X031142Y008772D01*
X031142Y008906D02*
X031085Y008963D01*
X031085Y009077D01*
X031142Y009135D01*
X031199Y009135D01*
X031429Y008906D01*
X031429Y009135D01*
X031429Y009268D02*
X031371Y009268D01*
X031142Y009497D01*
X031085Y009497D01*
X031085Y009268D01*
X031371Y008772D02*
X031429Y008715D01*
X031429Y008600D01*
X029924Y005580D02*
X029867Y005580D01*
X029810Y005523D01*
X029810Y005351D01*
X029924Y005351D01*
X029982Y005408D01*
X029982Y005523D01*
X029924Y005580D01*
X029810Y005351D02*
X029695Y005465D01*
X029638Y005580D01*
X029695Y005217D02*
X029638Y005160D01*
X029638Y005046D01*
X029695Y004988D01*
X029695Y004855D02*
X029638Y004798D01*
X029638Y004683D01*
X029695Y004626D01*
X029924Y004626D01*
X029982Y004683D01*
X029982Y004798D01*
X029924Y004855D01*
X029982Y004988D02*
X029752Y005217D01*
X029695Y005217D01*
X029982Y005217D02*
X029982Y004988D01*
X031218Y004629D02*
X031332Y004515D01*
X031218Y004629D02*
X031562Y004629D01*
X031562Y004515D02*
X031562Y004744D01*
X031562Y004267D02*
X031218Y004267D01*
X031218Y004381D02*
X031218Y004152D01*
X028633Y004195D02*
X028633Y004081D01*
X028576Y004024D01*
X028461Y004024D02*
X028404Y004138D01*
X028404Y004195D01*
X028461Y004253D01*
X028576Y004253D01*
X028633Y004195D01*
X028461Y004024D02*
X028289Y004024D01*
X028289Y004253D01*
X028289Y003776D02*
X028633Y003776D01*
X028633Y003890D02*
X028633Y003661D01*
X028633Y003528D02*
X028518Y003413D01*
X028518Y003471D02*
X028518Y003299D01*
X028633Y003299D02*
X028289Y003299D01*
X028289Y003471D01*
X028346Y003528D01*
X028461Y003528D01*
X028518Y003471D01*
X028404Y003661D02*
X028289Y003776D01*
X022308Y002043D02*
X022251Y002100D01*
X022136Y002100D01*
X022079Y002043D01*
X021945Y002043D02*
X021888Y002100D01*
X021773Y002100D01*
X021716Y002043D01*
X021716Y001986D01*
X021773Y001928D01*
X021888Y001928D01*
X021945Y001871D01*
X021945Y001814D01*
X021888Y001756D01*
X021773Y001756D01*
X021716Y001814D01*
X022079Y001756D02*
X022308Y001986D01*
X022308Y002043D01*
X022308Y001756D02*
X022079Y001756D01*
X017669Y004623D02*
X017669Y004795D01*
X017612Y004853D01*
X017383Y004853D01*
X017326Y004795D01*
X017326Y004623D01*
X017669Y004623D01*
X017612Y004986D02*
X017669Y005043D01*
X017669Y005158D01*
X017612Y005215D01*
X017498Y005215D01*
X017440Y005158D01*
X017440Y005100D01*
X017498Y004986D01*
X017326Y004986D01*
X017326Y005215D01*
X017181Y004262D02*
X016952Y004262D01*
X017181Y004033D01*
X017239Y004090D01*
X017239Y004205D01*
X017181Y004262D01*
X016952Y004262D02*
X016895Y004205D01*
X016895Y004090D01*
X016952Y004033D01*
X017181Y004033D01*
X017239Y003900D02*
X017239Y003670D01*
X017239Y003785D02*
X016895Y003785D01*
X017009Y003670D01*
X016952Y003537D02*
X016895Y003480D01*
X016895Y003365D01*
X016952Y003308D01*
X017181Y003308D01*
X017239Y003365D01*
X017239Y003480D01*
X017181Y003537D01*
X017239Y003181D02*
X017239Y003066D01*
X017239Y003124D02*
X016895Y003124D01*
X016895Y003181D02*
X016895Y003066D01*
X015794Y003601D02*
X015794Y003830D01*
X015622Y003963D02*
X015622Y004193D01*
X015450Y004135D02*
X015622Y003963D01*
X015794Y004135D02*
X015450Y004135D01*
X014919Y004135D02*
X014919Y004021D01*
X014862Y003963D01*
X014862Y003830D02*
X014919Y003773D01*
X014919Y003658D01*
X014862Y003601D01*
X014632Y003601D01*
X014575Y003658D01*
X014575Y003773D01*
X014632Y003830D01*
X014632Y003963D02*
X014575Y004021D01*
X014575Y004135D01*
X014632Y004193D01*
X014690Y004193D01*
X014747Y004135D01*
X014804Y004193D01*
X014862Y004193D01*
X014919Y004135D01*
X014747Y004135D02*
X014747Y004078D01*
X014632Y004326D02*
X014575Y004383D01*
X014575Y004498D01*
X014632Y004555D01*
X014690Y004555D01*
X014747Y004498D01*
X014804Y004555D01*
X014862Y004555D01*
X014919Y004498D01*
X014919Y004383D01*
X014862Y004326D01*
X014747Y004441D02*
X014747Y004498D01*
X015450Y003601D02*
X015794Y003601D01*
X013231Y003185D02*
X013231Y003071D01*
X013174Y003013D01*
X013059Y003013D02*
X013002Y003128D01*
X013002Y003185D01*
X013059Y003243D01*
X013174Y003243D01*
X013231Y003185D01*
X013059Y003013D02*
X012887Y003013D01*
X012887Y003243D01*
X012945Y002880D02*
X013002Y002880D01*
X013059Y002823D01*
X013117Y002880D01*
X013174Y002880D01*
X013231Y002823D01*
X013231Y002708D01*
X013174Y002651D01*
X013174Y002518D02*
X013231Y002460D01*
X013231Y002346D01*
X013174Y002288D01*
X012945Y002288D01*
X012887Y002346D01*
X012887Y002460D01*
X012945Y002518D01*
X012945Y002651D02*
X012887Y002708D01*
X012887Y002823D01*
X012945Y002880D01*
X013059Y002823D02*
X013059Y002765D01*
X012650Y008182D02*
X012421Y008182D01*
X012363Y008239D01*
X012363Y008354D01*
X012421Y008411D01*
X012363Y008544D02*
X012535Y008544D01*
X012478Y008659D01*
X012478Y008716D01*
X012535Y008773D01*
X012650Y008773D01*
X012707Y008716D01*
X012707Y008601D01*
X012650Y008544D01*
X012650Y008411D02*
X012707Y008354D01*
X012707Y008239D01*
X012650Y008182D01*
X012363Y008544D02*
X012363Y008773D01*
X012421Y008907D02*
X012363Y008964D01*
X012363Y009079D01*
X012421Y009136D01*
X012478Y009136D01*
X012535Y009079D01*
X012593Y009136D01*
X012650Y009136D01*
X012707Y009079D01*
X012707Y008964D01*
X012650Y008907D01*
X012535Y009021D02*
X012535Y009079D01*
X021618Y011848D02*
X021618Y011962D01*
X021618Y011905D02*
X021962Y011905D01*
X021962Y011848D02*
X021962Y011962D01*
X021904Y012089D02*
X021962Y012147D01*
X021962Y012261D01*
X021904Y012319D01*
X021904Y012452D02*
X021962Y012509D01*
X021962Y012624D01*
X021904Y012681D01*
X021790Y012681D01*
X021732Y012624D01*
X021732Y012567D01*
X021790Y012452D01*
X021618Y012452D01*
X021618Y012681D01*
X021675Y012319D02*
X021618Y012261D01*
X021618Y012147D01*
X021675Y012089D01*
X021904Y012089D01*
X025325Y012108D02*
X025382Y012050D01*
X025325Y012108D02*
X025325Y012222D01*
X025382Y012280D01*
X025440Y012280D01*
X025497Y012222D01*
X025554Y012280D01*
X025612Y012280D01*
X025669Y012222D01*
X025669Y012108D01*
X025612Y012050D01*
X025669Y011917D02*
X025554Y011803D01*
X025554Y011860D02*
X025554Y011688D01*
X025669Y011688D02*
X025325Y011688D01*
X025325Y011860D01*
X025382Y011917D01*
X025497Y011917D01*
X025554Y011860D01*
X025497Y012165D02*
X025497Y012222D01*
X025440Y012413D02*
X025382Y012413D01*
X025325Y012470D01*
X025325Y012585D01*
X025382Y012642D01*
X025440Y012642D01*
X025497Y012585D01*
X025497Y012470D01*
X025440Y012413D01*
X025497Y012470D02*
X025554Y012413D01*
X025612Y012413D01*
X025669Y012470D01*
X025669Y012585D01*
X025612Y012642D01*
X025554Y012642D01*
X025497Y012585D01*
X025763Y012808D02*
X025820Y012751D01*
X026049Y012751D01*
X026106Y012808D01*
X026106Y012923D01*
X026049Y012980D01*
X026106Y013113D02*
X025877Y013343D01*
X025820Y013343D01*
X025763Y013285D01*
X025763Y013171D01*
X025820Y013113D01*
X025820Y012980D02*
X025763Y012923D01*
X025763Y012808D01*
X026106Y013113D02*
X026106Y013343D01*
X026106Y013476D02*
X026106Y013705D01*
X026106Y013591D02*
X025763Y013591D01*
X025877Y013476D01*
X026481Y012517D02*
X026481Y012288D01*
X026481Y012403D02*
X026137Y012403D01*
X026252Y012288D01*
X026137Y012155D02*
X026195Y012040D01*
X026309Y011926D01*
X026309Y012098D01*
X026367Y012155D01*
X026424Y012155D01*
X026481Y012098D01*
X026481Y011983D01*
X026424Y011926D01*
X026309Y011926D01*
X026195Y011792D02*
X026137Y011735D01*
X026137Y011620D01*
X026195Y011563D01*
X026424Y011563D01*
X026481Y011620D01*
X026481Y011735D01*
X026424Y011792D01*
X026388Y014938D02*
X026388Y015110D01*
X026445Y015168D01*
X026560Y015168D01*
X026617Y015110D01*
X026617Y014938D01*
X026732Y014938D02*
X026388Y014938D01*
X026617Y015053D02*
X026732Y015168D01*
X026732Y015301D02*
X026502Y015530D01*
X026445Y015530D01*
X026388Y015473D01*
X026388Y015358D01*
X026445Y015301D01*
X026732Y015301D02*
X026732Y015530D01*
X026732Y015663D02*
X026732Y015893D01*
X026732Y015778D02*
X026388Y015778D01*
X026502Y015663D01*
X025866Y016606D02*
X025522Y016606D01*
X025522Y016778D01*
X025580Y016835D01*
X025694Y016835D01*
X025752Y016778D01*
X025752Y016606D01*
X025752Y016720D02*
X025866Y016835D01*
X025866Y016968D02*
X025866Y017197D01*
X025866Y017083D02*
X025522Y017083D01*
X025637Y016968D01*
X025637Y017331D02*
X025580Y017331D01*
X025522Y017388D01*
X025522Y017503D01*
X025580Y017560D01*
X025637Y017560D01*
X025694Y017503D01*
X025694Y017388D01*
X025637Y017331D01*
X025694Y017388D02*
X025752Y017331D01*
X025809Y017331D01*
X025866Y017388D01*
X025866Y017503D01*
X025809Y017560D01*
X025752Y017560D01*
X025694Y017503D01*
X025716Y017819D02*
X025716Y017991D01*
X025773Y018048D01*
X025888Y018048D01*
X025945Y017991D01*
X025945Y017819D01*
X025945Y017933D02*
X026060Y018048D01*
X026060Y018181D02*
X026060Y018410D01*
X026060Y018296D02*
X025716Y018296D01*
X025831Y018181D01*
X025716Y017819D02*
X026060Y017819D01*
X026060Y018544D02*
X026003Y018544D01*
X025773Y018773D01*
X025716Y018773D01*
X025716Y018544D01*
X023570Y018547D02*
X023513Y018604D01*
X023283Y018604D01*
X023226Y018547D01*
X023226Y018432D01*
X023283Y018375D01*
X023341Y018375D01*
X023398Y018432D01*
X023398Y018604D01*
X023455Y018762D02*
X023455Y018934D01*
X023398Y018992D01*
X023283Y018992D01*
X023226Y018934D01*
X023226Y018762D01*
X023570Y018762D01*
X023455Y018877D02*
X023570Y018992D01*
X023513Y019125D02*
X023455Y019125D01*
X023398Y019182D01*
X023398Y019297D01*
X023455Y019354D01*
X023513Y019354D01*
X023570Y019297D01*
X023570Y019182D01*
X023513Y019125D01*
X023398Y019182D02*
X023341Y019125D01*
X023283Y019125D01*
X023226Y019182D01*
X023226Y019297D01*
X023283Y019354D01*
X023341Y019354D01*
X023398Y019297D01*
X023570Y018547D02*
X023570Y018432D01*
X023513Y018375D01*
X023570Y018242D02*
X023455Y018127D01*
X023455Y018184D02*
X023455Y018012D01*
X023570Y018012D02*
X023226Y018012D01*
X023226Y018184D01*
X023283Y018242D01*
X023398Y018242D01*
X023455Y018184D01*
X020807Y019365D02*
X020750Y019308D01*
X020807Y019365D02*
X020807Y019480D01*
X020750Y019537D01*
X020693Y019537D01*
X020635Y019480D01*
X020635Y019365D01*
X020578Y019308D01*
X020521Y019308D01*
X020463Y019365D01*
X020463Y019480D01*
X020521Y019537D01*
X020578Y019670D02*
X020463Y019785D01*
X020807Y019785D01*
X020807Y019670D02*
X020807Y019900D01*
X017642Y018978D02*
X017584Y019036D01*
X017527Y019036D01*
X017470Y018978D01*
X017470Y018806D01*
X017584Y018806D01*
X017642Y018864D01*
X017642Y018978D01*
X017470Y018806D02*
X017355Y018921D01*
X017298Y019036D01*
X017355Y018673D02*
X017298Y018616D01*
X017298Y018444D01*
X017642Y018444D01*
X017642Y018616D01*
X017584Y018673D01*
X017355Y018673D01*
X024789Y020369D02*
X024789Y020541D01*
X024846Y020599D01*
X024961Y020599D01*
X025018Y020541D01*
X025018Y020369D01*
X025132Y020369D02*
X024789Y020369D01*
X025018Y020484D02*
X025132Y020599D01*
X024961Y020732D02*
X024961Y020961D01*
X024961Y021094D02*
X024961Y021266D01*
X025018Y021324D01*
X025075Y021324D01*
X025132Y021266D01*
X025132Y021152D01*
X025075Y021094D01*
X024961Y021094D01*
X024846Y021209D01*
X024789Y021324D01*
X024789Y020904D02*
X024961Y020732D01*
X025132Y020904D02*
X024789Y020904D01*
X025710Y020778D02*
X025710Y020606D01*
X026054Y020606D01*
X025939Y020606D02*
X025939Y020778D01*
X025882Y020835D01*
X025767Y020835D01*
X025710Y020778D01*
X025824Y020968D02*
X025710Y021083D01*
X026054Y021083D01*
X026054Y021197D02*
X026054Y020968D01*
X026054Y020835D02*
X025939Y020720D01*
X026647Y020663D02*
X026704Y020606D01*
X026934Y020606D01*
X026991Y020663D01*
X026991Y020778D01*
X026934Y020835D01*
X026991Y020968D02*
X026762Y021197D01*
X026704Y021197D01*
X026647Y021140D01*
X026647Y021025D01*
X026704Y020968D01*
X026704Y020835D02*
X026647Y020778D01*
X026647Y020663D01*
X026991Y020968D02*
X026991Y021197D01*
X026819Y021331D02*
X026819Y021560D01*
X026647Y021503D02*
X026819Y021331D01*
X026991Y021503D02*
X026647Y021503D01*
X026054Y021503D02*
X026054Y021388D01*
X025996Y021331D01*
X025767Y021560D01*
X025996Y021560D01*
X026054Y021503D01*
X025996Y021331D02*
X025767Y021331D01*
X025710Y021388D01*
X025710Y021503D01*
X025767Y021560D01*
X027825Y021523D02*
X027825Y021408D01*
X027882Y021351D01*
X027882Y021217D02*
X027825Y021160D01*
X027825Y021046D01*
X027882Y020988D01*
X027882Y020855D02*
X027825Y020798D01*
X027825Y020683D01*
X027882Y020626D01*
X028112Y020626D01*
X028169Y020683D01*
X028169Y020798D01*
X028112Y020855D01*
X028169Y020988D02*
X027940Y021217D01*
X027882Y021217D01*
X028112Y021351D02*
X028169Y021408D01*
X028169Y021523D01*
X028112Y021580D01*
X028054Y021580D01*
X027997Y021523D01*
X027997Y021465D01*
X027997Y021523D02*
X027940Y021580D01*
X027882Y021580D01*
X027825Y021523D01*
X028169Y021217D02*
X028169Y020988D01*
X028638Y021103D02*
X028982Y021103D01*
X028982Y021217D02*
X028982Y020988D01*
X028982Y020855D02*
X028867Y020740D01*
X028867Y020798D02*
X028867Y020626D01*
X028982Y020626D02*
X028638Y020626D01*
X028638Y020798D01*
X028695Y020855D01*
X028810Y020855D01*
X028867Y020798D01*
X028752Y020988D02*
X028638Y021103D01*
X028752Y021351D02*
X028638Y021465D01*
X028982Y021465D01*
X028982Y021351D02*
X028982Y021580D01*
X029647Y021503D02*
X029647Y021388D01*
X029704Y021331D01*
X029762Y021331D01*
X029819Y021388D01*
X029819Y021560D01*
X029704Y021560D02*
X029647Y021503D01*
X029704Y021560D02*
X029934Y021560D01*
X029991Y021503D01*
X029991Y021388D01*
X029934Y021331D01*
X029991Y021197D02*
X029991Y020968D01*
X029991Y021083D02*
X029647Y021083D01*
X029762Y020968D01*
X029819Y020835D02*
X029876Y020778D01*
X029876Y020606D01*
X029876Y020720D02*
X029991Y020835D01*
X029819Y020835D02*
X029704Y020835D01*
X029647Y020778D01*
X029647Y020606D01*
X029991Y020606D01*
X029966Y018960D02*
X030023Y018846D01*
X030138Y018731D01*
X030138Y018903D01*
X030195Y018960D01*
X030253Y018960D01*
X030310Y018903D01*
X030310Y018788D01*
X030253Y018731D01*
X030138Y018731D01*
X030310Y018598D02*
X030310Y018369D01*
X030310Y018483D02*
X029966Y018483D01*
X030081Y018369D01*
X030138Y018235D02*
X030195Y018178D01*
X030195Y018006D01*
X030195Y018121D02*
X030310Y018235D01*
X030138Y018235D02*
X030023Y018235D01*
X029966Y018178D01*
X029966Y018006D01*
X030310Y018006D01*
X030301Y017146D02*
X030072Y017146D01*
X030014Y017089D01*
X030014Y016974D01*
X030072Y016917D01*
X030129Y016917D01*
X030186Y016974D01*
X030186Y017146D01*
X030301Y017146D02*
X030358Y017089D01*
X030358Y016974D01*
X030301Y016917D01*
X030301Y016784D02*
X030358Y016726D01*
X030358Y016612D01*
X030301Y016554D01*
X030072Y016554D01*
X030014Y016612D01*
X030014Y016726D01*
X030072Y016784D01*
X030014Y016427D02*
X030014Y016313D01*
X030014Y016370D02*
X030358Y016370D01*
X030358Y016313D02*
X030358Y016427D01*
D14*
X024859Y014674D02*
X022099Y014674D01*
X022099Y012054D01*
X022239Y011914D01*
X024859Y011914D01*
X024859Y014674D01*
X022258Y012214D02*
X022260Y012237D01*
X022266Y012260D01*
X022275Y012281D01*
X022288Y012301D01*
X022304Y012318D01*
X022322Y012332D01*
X022342Y012343D01*
X022364Y012351D01*
X022387Y012355D01*
X022411Y012355D01*
X022434Y012351D01*
X022456Y012343D01*
X022476Y012332D01*
X022494Y012318D01*
X022510Y012301D01*
X022523Y012281D01*
X022532Y012260D01*
X022538Y012237D01*
X022540Y012214D01*
X022538Y012191D01*
X022532Y012168D01*
X022523Y012147D01*
X022510Y012127D01*
X022494Y012110D01*
X022476Y012096D01*
X022456Y012085D01*
X022434Y012077D01*
X022411Y012073D01*
X022387Y012073D01*
X022364Y012077D01*
X022342Y012085D01*
X022322Y012096D01*
X022304Y012110D01*
X022288Y012127D01*
X022275Y012147D01*
X022266Y012168D01*
X022260Y012191D01*
X022258Y012214D01*
D15*
X021884Y013144D03*
X021884Y013444D03*
X025074Y013444D03*
X025074Y013144D03*
D16*
X025074Y012834D03*
X025074Y012524D03*
X025074Y012214D03*
X025074Y013754D03*
X025074Y014064D03*
X025074Y014374D03*
X021884Y014374D03*
X021884Y014064D03*
X021884Y013754D03*
X021884Y012834D03*
X021884Y012524D03*
X021884Y012214D03*
D17*
X023329Y011699D03*
X023629Y011699D03*
X023629Y014889D03*
X023329Y014889D03*
D18*
X023019Y014889D03*
X022709Y014889D03*
X022399Y014889D03*
X023939Y014889D03*
X024249Y014889D03*
X024559Y014889D03*
X024559Y011699D03*
X024249Y011699D03*
X023939Y011699D03*
X023019Y011699D03*
X022709Y011699D03*
X022399Y011699D03*
D19*
X011979Y009669D03*
M02*
