%
M48
M72
T01C0.0130
T02C0.0140
T03C0.0354
T04C0.1181
%
T01
X27125Y7625
X15227Y9666
X24500Y4187
X23000Y6875
X24313Y6875
X26063Y6875
X18691Y11813
X28000Y9250
X28000Y10125
X20313Y13437
X16250Y7750
X15875Y1000
X15793Y7700
X17563Y15812
X17188Y12536
X18675Y12687
X14165Y7687
X9563Y7687
X21157Y841
X18188Y5503
X13937Y3562
X25500Y17312
X13937Y12813
X16741Y17115
X10375Y1062
X13563Y62
X26188Y16500
X15500Y12062
X13750Y7352
X14688Y7352
X14688Y-335
X28625Y9250
X27188Y15500
X23938Y10250
X3563Y10687
X3563Y6937
X5320Y10615
X4813Y9500
X5306Y9441
X15000Y6875
X16250Y6250
X6500Y6812
X6188Y8312
X8375Y8312
X6536Y8687
X17641Y644
X17641Y-332
X26313Y7625
X18379Y12125
X10875Y5187
X10188Y4813
X10875Y4187
X7313Y16937
X7313Y17937
X7313Y15937
X10375Y13937
X9875Y13437
X10375Y12437
X9813Y16312
X19813Y18062
X23125Y18214
X27000Y11313
X28625Y6937
X24250Y8250
X24250Y9937
X16250Y3875
X26625Y16625
X22563Y15125
X20250Y8000
X25500Y11313
X23000Y3312
X9188Y3187
X8813Y1625
X9188Y2062
X9875Y2437
X10938Y2437
X11375Y2062
X11875Y1500
X12375Y2062
X12937Y2562
X12500Y2875
X12500Y4250
X12937Y4562
X13437Y5062
X12375Y5187
X11875Y6234
X10895Y6234
X9875Y6234
X10375Y5813
X9188Y5187
X9250Y4687
X9250Y3750
X12937Y5187
X11938Y3937
X11938Y3187
X9125Y12437
X9188Y11313
X9875Y11687
X10938Y11687
X11375Y11313
X11875Y10829
X12375Y11313
X12937Y11813
X12937Y13813
X13437Y14313
X13437Y15250
X12375Y15062
X11875Y15562
X10875Y15562
X9875Y15562
X8875Y15562
X8625Y15000
X10375Y15062
X9375Y15062
X9188Y14437
X9250Y13937
X9250Y13000
X12937Y14813
X9563Y14437
X9563Y12437
X9250Y13437
X4000Y3625
X4438Y3625
X5438Y3625
X5938Y3625
X7313Y3625
X8125Y3625
X6313Y2875
X9563Y3187
X9563Y5187
X10375Y2437
X10375Y11687
X7313Y-590
X6313Y-590
X5313Y-590
X4313Y-590
X3313Y-590
X2313Y-590
X9375Y9437
X11563Y-187
X18625Y2313
X14313Y1937
X14313Y2562
X14313Y3132
X14313Y4000
X14313Y4813
X2875Y11500
X6313Y0
X2313Y0
X2313Y1062
X6313Y1062
X6313Y2062
X13313Y16937
X13313Y18250
X5813Y15125
X24092Y5746
X14313Y16312
X14313Y17312
X625Y14062
X1125Y14062
X1625Y14062
X2063Y14062
X2875Y14062
X2500Y14062
X3250Y14062
X3563Y14062
X2875Y13625
X2875Y13316
X2875Y12687
X2875Y12062
X313Y11625
X5188Y4813
X4438Y4813
X3563Y4813
X3250Y4813
X2875Y4813
X7688Y3625
X4938Y3625
X2875Y4375
X2875Y3937
X2875Y3437
X2875Y2875
X2875Y2187
X2313Y2313
X1313Y-590
X1313Y2875
X14313Y18187
X2875Y8812
X3066Y7418
X13437Y6250
X6438Y4813
X6000Y4813
X5563Y4813
X4813Y4813
X5938Y3187
X6875Y4813
X7313Y4813
X3563Y14562
X4000Y14625
X27375Y12875
X22375Y10125
X15977Y-608
X9250Y4250
X24938Y9625
X-687Y1250
X-687Y8812
X12375Y12437
X12937Y12813
X12375Y13937
X11750Y14625
X12313Y17937
X11313Y17937
X11313Y16937
X12313Y16937
X11813Y16312
X10813Y16312
X11375Y13937
X11938Y13250
X10875Y13250
X10875Y14625
X11313Y12437
X14313Y13250
X14313Y14313
X14313Y15312
X13375Y9625
X13813Y10000
X14000Y11937
X12563Y16312
X11438Y9562
X12313Y9562
X10313Y16937
X10313Y17937
X9313Y17937
X11375Y15062
X8313Y16937
X8313Y17937
X9313Y16937
X8813Y16312
X8313Y15937
X7813Y15125
X6313Y15937
X6313Y16937
X6313Y17937
X3313Y17937
X3313Y16937
X3313Y15937
X2313Y15937
X2313Y16937
X2313Y17937
X4313Y17937
X5313Y17937
X5313Y16937
X4313Y15937
X5313Y15937
X4313Y16937
X4813Y15125
X2813Y15125
X2313Y14625
X1813Y15125
X4438Y14562
X6188Y9375
X5484Y8937
X4813Y8937
X3437Y11625
X3563Y12313
X4938Y12875
X4438Y12875
X4000Y12875
X3563Y12875
X5438Y12875
X5938Y12875
X6375Y12875
X6813Y12875
X7250Y12875
X7625Y14062
X7250Y14062
X6813Y14500
X6813Y14062
X6438Y14625
X6000Y14500
X6000Y14062
X3250Y5437
X2313Y5437
X2313Y6187
X2313Y6875
X3250Y6187
X4000Y6187
X4000Y5437
X4438Y5813
X1937Y8812
X2313Y8062
X2500Y4813
X2102Y4813
X2188Y2875
X3437Y2313
X3563Y2875
X3563Y3625
X4313Y2875
X4313Y2062
X4313Y1062
X3313Y1062
X625Y4813
X961Y4813
X1273Y4813
X1313Y5437
X-187Y6000
X-687Y6000
X-687Y7000
X313Y6000
X625Y5750
X-687Y2375
X-187Y2375
X313Y2375
X625Y2687
X625Y3625
X1000Y3625
X1375Y3625
X1750Y3625
X1313Y2062
X313Y1375
X1313Y1062
X8063Y14062
X5688Y11813
X4438Y14062
X4938Y14062
X4438Y12313
X5438Y14062
X5125Y5813
X5563Y5813
X5313Y2875
X5313Y2062
X5313Y1062
X5313Y0
X4313Y0
X3313Y0
X1375Y0
X2188Y3625
X8063Y2062
X8625Y2711
X7313Y2875
X6875Y3625
X6875Y3187
X7313Y2062
X7313Y0
X7313Y1062
X8500Y1162
X9438Y100
X10188Y3687
X9750Y4250
X8500Y100
X11375Y3687
X10875Y3187
X11500Y4813
X13336Y8000
X13063Y7375
X10000Y7375
X11000Y8000
X10000Y8000
X8602Y9746
X9375Y5813
X-687Y8000
X-687Y9625
X-687Y10625
X-687Y11625
X-187Y11625
X625Y12875
X625Y12000
X313Y15250
X-687Y15250
X-687Y15937
X-687Y16625
X313Y16500
X313Y15937
X1313Y15937
X875Y15125
X1375Y14625
X2188Y12875
X2188Y12313
X2500Y10937
X2313Y11625
X1250Y12875
X313Y9625
X313Y10750
X313Y8812
X313Y8000
X313Y6875
X2313Y9562
X1375Y17937
X1313Y16937
X-187Y15250
X12625Y-63
X12875Y562
X13563Y562
X13563Y-438
X11375Y812
X14313Y1375
X11382Y5797
X14313Y5562
X14313Y6250
X10375Y100
X1063Y10187
X1063Y7437
X8250Y10312
X2937Y10187
T02
X-475Y12462
X-475Y14462
X-475Y3212
X-475Y5212
T03
X25688Y-377
X24688Y-377
X23688Y-377
X22688Y-377
X15125Y15313
X16125Y15313
X17125Y15313
X15125Y14313
X16125Y14313
X17125Y14313
T04
X27750Y0
X27750Y17678
X0Y0
X0Y17678
M30
