G75*
G70*
%OFA0B0*%
%FSLAX24Y24*%
%IPPOS*%
%LPD*%
%AMOC8*
5,1,8,0,0,1.08239X$1,22.5*
%
%ADD10R,0.0250X0.0600*%
%ADD11R,0.0625X0.0125*%
%ADD12C,0.0236*%
%ADD13R,0.1181X0.0589*%
%ADD14R,0.0945X0.0591*%
%ADD15R,0.1142X0.0591*%
%ADD16R,0.0571X0.0591*%
%ADD17R,0.0866X0.0591*%
%ADD18R,0.0472X0.0591*%
%ADD19R,0.1220X0.0591*%
%ADD20R,0.0650X0.0591*%
%ADD21R,0.1102X0.0591*%
%ADD22R,0.1181X0.0591*%
%ADD23C,0.0000*%
%ADD24R,0.0630X0.0630*%
%ADD25OC8,0.0630*%
%ADD26R,0.0984X0.0591*%
%ADD27R,0.0630X0.0394*%
%ADD28R,0.0394X0.0630*%
%ADD29R,0.0433X0.0276*%
%ADD30R,0.0276X0.0433*%
%ADD31R,0.0787X0.0984*%
%ADD32R,0.0940X0.0940*%
%ADD33R,0.2874X0.1043*%
%ADD34R,0.0827X0.0787*%
%ADD35R,0.0256X0.0630*%
%ADD36R,0.0940X0.1140*%
%ADD37R,0.0630X0.0256*%
%ADD38R,0.0661X0.0518*%
%ADD39R,0.0600X0.0600*%
%ADD40R,0.0630X0.0400*%
%ADD41R,0.0315X0.0315*%
%ADD42R,0.0750X0.1400*%
%ADD43R,0.0380X0.0728*%
%ADD44R,0.0280X0.0600*%
%ADD45R,0.0120X0.0390*%
%ADD46C,0.0825*%
%ADD47R,0.1650X0.0600*%
%ADD48R,0.0551X0.0394*%
%ADD49C,0.0079*%
%ADD50C,0.0250*%
%ADD51C,0.0315*%
%ADD52C,0.0197*%
%ADD53R,0.0250X0.0250*%
%ADD54C,0.0276*%
%ADD55C,0.0071*%
%ADD56C,0.0160*%
%ADD57C,0.0118*%
%ADD58C,0.0060*%
%ADD59R,0.1581X0.1581*%
%ADD60C,0.0380*%
%ADD61C,0.0157*%
%ADD62C,0.0236*%
D10*
X005967Y006006D03*
X006491Y006006D03*
X009842Y006006D03*
X010365Y006006D03*
X010780Y006006D03*
X011301Y006006D03*
X012155Y006006D03*
X012676Y006006D03*
X012676Y015256D03*
X012155Y015256D03*
X011305Y015256D03*
X010780Y015256D03*
X010367Y015256D03*
X009842Y015256D03*
X006493Y015256D03*
X005967Y015256D03*
D11*
X008167Y014784D03*
X008167Y005533D03*
D12*
X020417Y015544D03*
X027229Y008856D03*
D13*
X009263Y006010D03*
X007098Y006010D03*
X005523Y006010D03*
D14*
X011685Y015257D03*
D15*
X009263Y015257D03*
D16*
X010572Y015257D03*
D17*
X011704Y006005D03*
D18*
X010563Y006005D03*
D19*
X013299Y006005D03*
D20*
X005691Y015257D03*
D21*
X007000Y015257D03*
D22*
X013259Y015257D03*
D23*
X003578Y019817D02*
X003578Y001721D01*
X003579Y001721D02*
X003581Y001666D01*
X003587Y001611D01*
X003596Y001557D01*
X003609Y001503D01*
X003626Y001450D01*
X003646Y001399D01*
X003670Y001349D01*
X003697Y001301D01*
X003727Y001255D01*
X003760Y001211D01*
X003796Y001169D01*
X003835Y001130D01*
X003877Y001094D01*
X003921Y001061D01*
X003967Y001031D01*
X004015Y001004D01*
X004065Y000980D01*
X004116Y000960D01*
X004169Y000943D01*
X004223Y000930D01*
X004277Y000921D01*
X004332Y000915D01*
X004387Y000913D01*
X034171Y000913D01*
X034221Y000915D01*
X034270Y000920D01*
X034319Y000930D01*
X034366Y000942D01*
X034413Y000959D01*
X034459Y000979D01*
X034503Y001002D01*
X034544Y001028D01*
X034584Y001058D01*
X034622Y001090D01*
X034657Y001125D01*
X034689Y001163D01*
X034719Y001203D01*
X034745Y001245D01*
X034768Y001288D01*
X034788Y001334D01*
X034805Y001381D01*
X034817Y001428D01*
X034827Y001477D01*
X034832Y001526D01*
X034834Y001576D01*
X034834Y019626D01*
X034835Y019626D02*
X034833Y019686D01*
X034827Y019747D01*
X034818Y019806D01*
X034805Y019865D01*
X034788Y019923D01*
X034767Y019980D01*
X034743Y020036D01*
X034716Y020089D01*
X034685Y020141D01*
X034651Y020191D01*
X034614Y020239D01*
X034574Y020285D01*
X034532Y020327D01*
X034486Y020367D01*
X034438Y020404D01*
X034388Y020438D01*
X034336Y020469D01*
X034283Y020496D01*
X034227Y020520D01*
X034170Y020541D01*
X034112Y020558D01*
X034053Y020571D01*
X033994Y020580D01*
X033933Y020586D01*
X033873Y020588D01*
X004349Y020588D01*
X004294Y020586D01*
X004239Y020580D01*
X004185Y020570D01*
X004132Y020557D01*
X004080Y020539D01*
X004029Y020518D01*
X003979Y020494D01*
X003932Y020466D01*
X003887Y020434D01*
X003844Y020400D01*
X003804Y020362D01*
X003766Y020322D01*
X003732Y020279D01*
X003700Y020234D01*
X003672Y020187D01*
X003648Y020137D01*
X003627Y020086D01*
X003609Y020034D01*
X003596Y019981D01*
X003586Y019927D01*
X003580Y019872D01*
X003578Y019817D01*
D24*
X030979Y001417D03*
D25*
X029979Y001417D03*
X028979Y001417D03*
X027979Y001417D03*
X022417Y016107D03*
X021417Y016107D03*
X020417Y016107D03*
X020417Y017107D03*
X021417Y017107D03*
X022417Y017107D03*
D26*
X029707Y006981D03*
X031750Y006981D03*
X029526Y003856D03*
X027870Y003856D03*
D27*
X025104Y003453D03*
X025104Y004635D03*
X027917Y006703D03*
X028729Y006703D03*
X028729Y007885D03*
X027917Y007885D03*
X032354Y005759D03*
X032354Y004578D03*
X020417Y007016D03*
X020417Y008197D03*
X017604Y010641D03*
X016729Y010641D03*
X015854Y010641D03*
X015854Y011822D03*
X016729Y011822D03*
X017604Y011822D03*
X023479Y015953D03*
X024291Y015953D03*
X024291Y017135D03*
X023479Y017135D03*
X031729Y016259D03*
X031729Y015078D03*
X032667Y015072D03*
X032667Y013891D03*
X033729Y016203D03*
X033729Y017385D03*
D28*
X031507Y013794D03*
X030326Y013794D03*
X029507Y013794D03*
X028326Y013794D03*
X030201Y012169D03*
X031382Y012169D03*
X031389Y011294D03*
X032570Y011294D03*
X026320Y009794D03*
X025139Y009794D03*
X024320Y009231D03*
X023139Y009231D03*
X027701Y005419D03*
X027070Y004928D03*
X025889Y004928D03*
X025889Y003974D03*
X027070Y003974D03*
X027070Y003139D03*
X025889Y003139D03*
X028882Y005419D03*
X030451Y005294D03*
X031632Y005294D03*
X031570Y003106D03*
X030389Y003106D03*
X022007Y014419D03*
X020826Y014419D03*
X020826Y015231D03*
X022007Y015231D03*
X025013Y015669D03*
X026194Y015669D03*
X026194Y016544D03*
X025013Y016544D03*
X025013Y017419D03*
X026194Y017419D03*
X008819Y011981D03*
X007638Y011981D03*
X006944Y011981D03*
X005763Y011981D03*
X005763Y009231D03*
X006944Y009231D03*
X007638Y009231D03*
X008819Y009231D03*
D29*
X030417Y004606D03*
X031417Y004606D03*
X031417Y004231D03*
X031417Y003856D03*
X030417Y003856D03*
D30*
X015041Y010731D03*
X014666Y010731D03*
X014291Y010731D03*
X014291Y011731D03*
X015041Y011731D03*
X026917Y016419D03*
X027667Y016419D03*
X027667Y017419D03*
X027292Y017419D03*
X026917Y017419D03*
D31*
X027396Y019215D03*
X029646Y019215D03*
X023291Y010606D03*
X021041Y010606D03*
D32*
X021541Y008766D03*
X021541Y006936D03*
X024559Y019294D03*
X026389Y019294D03*
D33*
X029667Y017856D03*
X029667Y015856D03*
X025604Y012919D03*
X025604Y010919D03*
X023791Y008107D03*
X023791Y006107D03*
D34*
X023791Y005106D03*
X023791Y002856D03*
D35*
X025729Y005981D03*
X026229Y005981D03*
X026729Y005981D03*
X027229Y005981D03*
X027229Y008231D03*
X026729Y008231D03*
X026229Y008231D03*
X025729Y008231D03*
D36*
X026179Y001839D03*
X023779Y001839D03*
D37*
X023291Y011919D03*
X023291Y012419D03*
X023291Y012919D03*
X023291Y013419D03*
X021041Y013419D03*
X021041Y012919D03*
X021041Y012419D03*
X021041Y011919D03*
D38*
X033729Y013864D03*
X033729Y015099D03*
D39*
X018729Y014607D03*
X018729Y013607D03*
X017679Y012557D03*
X016679Y012557D03*
X015679Y012557D03*
X014679Y012557D03*
X013929Y013257D03*
X013929Y014257D03*
X013929Y015257D03*
X013929Y016257D03*
X014679Y017357D03*
X015679Y017357D03*
X016679Y017357D03*
X017679Y017357D03*
X018729Y016607D03*
X018729Y015607D03*
X017679Y008106D03*
X016679Y008106D03*
X015679Y008106D03*
X014679Y008106D03*
X013929Y007006D03*
X013929Y006006D03*
X013929Y005006D03*
X013929Y004006D03*
X014679Y003306D03*
X015679Y003306D03*
X016679Y003306D03*
X017679Y003306D03*
X018729Y004356D03*
X018729Y005356D03*
X018729Y006356D03*
X018729Y007356D03*
D40*
X019417Y010106D03*
X019417Y010606D03*
X019417Y011106D03*
X032854Y007981D03*
X032854Y007481D03*
X032854Y006981D03*
X019417Y002356D03*
X019417Y001856D03*
X019417Y001356D03*
D41*
X012712Y006006D03*
X013167Y006147D03*
X013167Y006737D03*
X013167Y007186D03*
X012774Y007186D03*
X012184Y007186D03*
X011774Y007186D03*
X011184Y007186D03*
X011559Y007794D03*
X012149Y007794D03*
X012291Y008374D03*
X012854Y008374D03*
X013417Y008374D03*
X013417Y008964D03*
X012854Y008964D03*
X012291Y008964D03*
X013041Y010061D03*
X013041Y010651D03*
X013479Y010624D03*
X013479Y011214D03*
X013167Y013561D03*
X013167Y014151D03*
X012712Y014151D03*
X013167Y014522D03*
X013167Y015112D03*
X012712Y015256D03*
X012121Y015256D03*
X011729Y015399D03*
X011337Y015256D03*
X010746Y015256D03*
X010399Y015256D03*
X009809Y015256D03*
X009291Y015399D03*
X009291Y015989D03*
X011729Y015989D03*
X011479Y014151D03*
X011087Y014151D03*
X010496Y014151D03*
X010087Y013669D03*
X009496Y013669D03*
X009496Y013169D03*
X010087Y013169D03*
X010087Y012669D03*
X009496Y012669D03*
X009417Y011839D03*
X009417Y011249D03*
X009417Y010151D03*
X009417Y009561D03*
X009809Y008794D03*
X010399Y008794D03*
X010399Y008294D03*
X009809Y008294D03*
X009291Y006737D03*
X009291Y006147D03*
X009809Y006006D03*
X010399Y006006D03*
X010746Y006006D03*
X011337Y006006D03*
X011729Y005863D03*
X012121Y006006D03*
X011729Y005273D03*
X013167Y007777D03*
X006962Y007731D03*
X006371Y007731D03*
X006371Y008419D03*
X006962Y008419D03*
X006979Y006735D03*
X006979Y006145D03*
X006524Y006006D03*
X005933Y006006D03*
X006371Y012794D03*
X006962Y012794D03*
X006962Y013481D03*
X006371Y013481D03*
X006979Y014522D03*
X006979Y015112D03*
X006524Y015256D03*
X005933Y015256D03*
X011479Y013561D03*
X012121Y014151D03*
D42*
X008167Y014140D03*
X008167Y004890D03*
D43*
X008167Y005942D03*
X008167Y015192D03*
D44*
X008757Y015256D03*
X007576Y015256D03*
X007576Y006006D03*
X008757Y006006D03*
D45*
X010202Y009520D03*
X010458Y009520D03*
X010714Y009520D03*
X010970Y009520D03*
X011226Y009520D03*
X011482Y009520D03*
X011738Y009520D03*
X011994Y009520D03*
X012250Y009520D03*
X012506Y009520D03*
X012506Y011818D03*
X012250Y011818D03*
X011994Y011818D03*
X011738Y011818D03*
X011482Y011818D03*
X011226Y011818D03*
X010970Y011818D03*
X010714Y011818D03*
X010458Y011818D03*
X010202Y011818D03*
D46*
X005229Y014256D02*
X004404Y014256D01*
X004404Y016256D02*
X005229Y016256D01*
X005229Y007006D02*
X004404Y007006D01*
X004404Y005006D02*
X005229Y005006D01*
D47*
X004817Y006006D03*
X004817Y015256D03*
D48*
X030729Y010648D03*
X030729Y009940D03*
X031595Y010294D03*
X032417Y010523D03*
X032417Y009814D03*
X033283Y010169D03*
D49*
X032854Y009919D02*
X032854Y010731D01*
X032667Y010919D01*
X032667Y011197D01*
X032570Y011294D01*
X033229Y011481D02*
X033479Y011481D01*
X033854Y011856D01*
X033854Y013739D01*
X033729Y013864D01*
X032667Y013891D02*
X032570Y013794D01*
X031507Y013794D01*
X030604Y012794D02*
X030417Y012981D01*
X028354Y012981D01*
X026854Y014481D01*
X023966Y014481D01*
X023795Y014044D02*
X023670Y013919D01*
X023795Y014044D02*
X026917Y014044D01*
X028167Y012794D01*
X030291Y012794D01*
X030917Y012169D01*
X030917Y012169D01*
X031382Y012169D01*
X030917Y012169D02*
X030729Y011981D01*
X030729Y010648D01*
X031389Y010885D02*
X031389Y011294D01*
X031389Y010885D02*
X031604Y010669D01*
X031604Y010285D01*
X031595Y010294D01*
X031720Y010419D01*
X032312Y010419D01*
X032417Y010523D01*
X032444Y010551D01*
X031604Y010285D02*
X031604Y010218D01*
X031604Y009419D01*
X032417Y009814D02*
X032750Y009814D01*
X032854Y009919D01*
X031354Y008669D02*
X030729Y008044D01*
X030729Y006231D01*
X030479Y005981D01*
X029791Y005981D01*
X030451Y005294D02*
X030417Y005259D01*
X030417Y004606D01*
X028291Y005106D02*
X027979Y005419D01*
X027701Y005419D01*
X028729Y006703D02*
X028729Y007044D01*
X029226Y007540D01*
X029383Y007540D01*
X029604Y008669D02*
X028291Y008669D01*
X029604Y008669D02*
X029854Y008919D01*
X029854Y012169D01*
X029479Y012544D01*
X028143Y012544D01*
X026917Y013770D01*
X024146Y013770D01*
X023982Y013607D01*
X022479Y014330D02*
X022479Y014919D01*
X022917Y015356D01*
X022917Y016294D01*
X022604Y016607D01*
X021917Y016607D01*
X021417Y016107D01*
X020917Y016607D02*
X020417Y017106D01*
X020417Y017107D01*
X019979Y017356D02*
X020229Y017606D01*
X022854Y017606D01*
X022917Y017135D02*
X022444Y017135D01*
X022417Y017106D01*
X022917Y017135D02*
X023479Y017135D01*
X022417Y016107D02*
X022007Y015697D01*
X022007Y015231D01*
X022007Y014419D01*
X020826Y014419D02*
X020541Y014419D01*
X020417Y014294D01*
X020417Y013419D01*
X020541Y013294D01*
X020541Y012544D01*
X020667Y012419D01*
X021041Y012419D01*
X020167Y011792D02*
X020519Y011460D01*
X020167Y011792D02*
X020167Y014856D01*
X020541Y015231D01*
X020826Y015231D01*
X020917Y015322D01*
X020917Y016607D01*
X019979Y017356D02*
X019979Y011481D01*
X020484Y010977D01*
X020484Y009962D01*
X020952Y009494D01*
X021084Y009494D01*
X020819Y008766D02*
X020229Y009356D01*
X020229Y010731D01*
X019854Y011106D01*
X019417Y011106D01*
X019417Y010606D02*
X018541Y010606D01*
X018041Y010106D01*
X015291Y010106D01*
X015041Y010357D01*
X015041Y010731D01*
X014667Y010732D02*
X014667Y010356D01*
X014666Y010731D02*
X014667Y010732D01*
X014667Y011231D01*
X014667Y012544D01*
X014679Y012556D01*
X014679Y013107D01*
X014479Y013107D01*
X014479Y013481D01*
X015167Y013481D01*
X015667Y013481D01*
X016229Y013481D01*
X016667Y013481D01*
X016667Y013107D01*
X016667Y012556D01*
X016667Y012544D01*
X016667Y012169D01*
X016729Y011822D02*
X015854Y011822D01*
X015679Y011822D01*
X015041Y011731D02*
X015041Y011419D01*
X015229Y011231D01*
X015604Y011231D01*
X015854Y010981D01*
X015854Y010641D01*
X016320Y010641D02*
X016729Y010641D01*
X016729Y010356D01*
X016729Y010641D02*
X016729Y010919D01*
X016729Y010641D02*
X017604Y010641D01*
X017604Y010356D01*
X017604Y010641D02*
X017604Y010919D01*
X017604Y010641D02*
X017826Y010641D01*
X018167Y010981D01*
X019417Y010106D02*
X019791Y010106D01*
X019979Y009919D01*
X019979Y009146D01*
X019041Y009146D01*
X019456Y009481D02*
X014854Y009481D01*
X014291Y010044D01*
X014291Y010731D01*
X013979Y010981D02*
X013746Y011214D01*
X013479Y011214D01*
X012184Y011214D01*
X011994Y011404D01*
X011994Y011818D01*
X012250Y011818D02*
X012250Y011481D01*
X012250Y011818D02*
X012250Y012731D01*
X011791Y012731D01*
X011738Y012731D01*
X011738Y011818D01*
X011738Y011419D01*
X011479Y011811D02*
X011482Y011818D01*
X011479Y011811D02*
X011479Y013561D01*
X010541Y013856D02*
X010496Y013856D01*
X010496Y014151D01*
X010496Y014419D01*
X010496Y014151D02*
X010791Y014151D01*
X010496Y014151D02*
X009496Y014151D01*
X009496Y013669D01*
X009729Y013669D01*
X009496Y013669D02*
X009229Y013669D01*
X009496Y013669D02*
X009496Y013169D01*
X009729Y013169D01*
X009496Y013169D02*
X008291Y013169D01*
X008167Y013294D01*
X008167Y013856D01*
X008167Y014481D01*
X008166Y015110D02*
X008167Y015419D01*
X008167Y015856D02*
X007791Y015856D01*
X007354Y015856D01*
X006917Y015856D01*
X006417Y015856D01*
X005917Y015856D01*
X005917Y016256D01*
X005854Y016256D01*
X005933Y015256D02*
X005406Y015256D01*
X005326Y015336D01*
X004896Y015336D01*
X004817Y015256D01*
X006507Y015336D02*
X006756Y015336D01*
X006979Y015112D01*
X006979Y015107D01*
X006979Y015112D02*
X006979Y015256D01*
X006524Y015256D02*
X006524Y015319D01*
X006507Y015336D01*
X006524Y015256D02*
X007576Y015256D01*
X008167Y015856D02*
X008541Y015856D01*
X008854Y015856D01*
X008854Y016356D01*
X008854Y016919D01*
X009291Y016919D01*
X009291Y016419D01*
X009291Y015989D01*
X009291Y015981D01*
X011721Y015981D01*
X011729Y015974D01*
X011729Y015731D01*
X011729Y015974D02*
X011729Y015989D01*
X011729Y016231D01*
X011729Y015989D02*
X011971Y015989D01*
X011729Y015989D02*
X011721Y015981D01*
X011729Y015399D02*
X011666Y015336D01*
X011626Y015336D01*
X011626Y015256D01*
X011337Y015256D01*
X011626Y015256D02*
X012121Y015256D01*
X012712Y015256D02*
X013022Y015256D01*
X013928Y015256D01*
X013929Y015257D01*
X013929Y015256D01*
X013929Y015231D01*
X014541Y015231D02*
X014541Y014794D01*
X014854Y014481D01*
X014854Y014231D01*
X014417Y014231D01*
X014417Y014256D01*
X013929Y014256D01*
X013929Y013731D01*
X013917Y013731D01*
X013929Y013731D02*
X013929Y013256D01*
X012317Y013256D01*
X011791Y012731D01*
X011226Y012797D02*
X010354Y013669D01*
X010087Y013669D01*
X010087Y013169D02*
X010417Y013169D01*
X010970Y012615D01*
X010970Y011818D01*
X010729Y011826D02*
X010729Y012290D01*
X010611Y012409D01*
X010087Y012277D02*
X009649Y011839D01*
X009417Y011839D01*
X008854Y012016D02*
X008819Y011981D01*
X009496Y012374D02*
X009496Y012669D01*
X009791Y012669D01*
X009496Y012669D02*
X009229Y012669D01*
X009496Y012669D02*
X009496Y013169D01*
X010087Y013169D02*
X010087Y012669D01*
X010087Y012277D01*
X010202Y011818D02*
X010202Y011392D01*
X010104Y011294D01*
X010458Y011374D02*
X010597Y011235D01*
X010458Y011374D02*
X010458Y011818D01*
X010714Y011818D02*
X010729Y011826D01*
X011226Y011818D02*
X011226Y012797D01*
X012917Y013561D02*
X013167Y013561D01*
X013417Y013561D01*
X013167Y013561D02*
X013167Y013794D01*
X013167Y013561D02*
X013167Y012556D01*
X014104Y012556D01*
X014679Y012556D01*
X014667Y012544D02*
X014479Y012356D01*
X014104Y012556D02*
X014104Y012669D01*
X013929Y012669D01*
X013929Y013256D01*
X014354Y013256D01*
X014354Y013231D01*
X013929Y014256D02*
X013929Y014294D01*
X013929Y014669D01*
X013929Y014294D02*
X013479Y014294D01*
X012712Y014151D02*
X012712Y014151D01*
X013167Y015112D02*
X013022Y015256D01*
X013917Y015856D02*
X013917Y016256D01*
X013417Y016256D01*
X013417Y016169D01*
X012791Y016169D01*
X012791Y016919D01*
X011104Y016919D01*
X011104Y016356D01*
X009791Y016356D01*
X009791Y016919D01*
X009291Y016919D01*
X009291Y015989D02*
X009041Y015989D01*
X009041Y015981D01*
X009291Y015981D01*
X009291Y015731D01*
X009291Y015399D02*
X008900Y015399D01*
X008757Y015256D01*
X009291Y015256D02*
X009291Y015374D01*
X009291Y015399D02*
X009434Y015256D01*
X009809Y015256D01*
X010399Y015256D02*
X010746Y015256D01*
X011087Y014151D02*
X011087Y014151D01*
X011479Y014151D02*
X011479Y014151D01*
X014541Y015231D02*
X014541Y015731D01*
X014854Y016044D01*
X014854Y016231D01*
X014479Y016231D01*
X014479Y016256D01*
X013917Y016256D01*
X013917Y016794D01*
X013917Y017356D01*
X014167Y017356D01*
X014667Y017356D01*
X014679Y017356D01*
X015167Y017356D01*
X015667Y017356D01*
X016167Y017356D01*
X016667Y017356D01*
X016679Y017356D01*
X017167Y017356D01*
X017667Y017356D01*
X017679Y017356D01*
X018417Y017356D01*
X018729Y017044D01*
X018729Y017231D01*
X019604Y018106D01*
X019604Y019106D01*
X019604Y019981D01*
X022032Y018909D02*
X023933Y020436D01*
X026389Y019294D02*
X027576Y020285D01*
X029728Y020285D01*
X030291Y019898D01*
X030791Y019919D02*
X030058Y020436D01*
X030791Y019919D02*
X030791Y019106D01*
X031917Y018419D02*
X032951Y017385D01*
X033729Y017385D01*
X033729Y016203D02*
X033729Y015099D01*
X031917Y012794D02*
X030604Y012794D01*
X030201Y012169D02*
X030229Y012141D01*
X030229Y011419D01*
X030229Y010106D01*
X030396Y009940D01*
X030729Y009940D01*
X029541Y010044D02*
X029541Y011731D01*
X029541Y012169D01*
X029354Y012356D01*
X028104Y012356D01*
X027667Y011919D01*
X028417Y012044D02*
X027479Y011106D01*
X027479Y010544D01*
X026729Y009794D01*
X026320Y009794D01*
X026104Y009231D02*
X025541Y009794D01*
X025139Y009794D01*
X024479Y009794D01*
X024320Y009635D01*
X024320Y009231D01*
X026104Y009231D02*
X026667Y009231D01*
X027729Y010294D01*
X027729Y010981D01*
X028479Y011731D01*
X029541Y011731D01*
X029229Y012044D02*
X028417Y012044D01*
X029104Y013794D02*
X029507Y013794D01*
X030326Y013794D01*
X029104Y013794D02*
X028604Y014294D01*
X027979Y014294D01*
X027167Y015107D01*
X025729Y015107D01*
X025604Y015231D01*
X021041Y013419D02*
X020667Y013419D01*
X020541Y013294D01*
X019104Y013607D02*
X018729Y013607D01*
X018229Y013607D01*
X018729Y013107D02*
X018729Y012544D01*
X018167Y012544D02*
X017679Y012544D01*
X017667Y012544D01*
X017667Y012169D01*
X017667Y012544D02*
X017167Y012623D01*
X016667Y012544D01*
X016679Y012556D01*
X016667Y012556D01*
X017667Y012544D02*
X017667Y013107D01*
X017679Y012556D02*
X017667Y012544D01*
X017679Y012544D02*
X017679Y012556D01*
X018729Y014607D02*
X019229Y014607D01*
X019167Y015607D02*
X018729Y015607D01*
X018729Y016107D01*
X018729Y016607D01*
X018729Y017044D01*
X018729Y016607D02*
X018229Y016607D01*
X018729Y016607D02*
X019167Y016607D01*
X018729Y015607D02*
X018229Y015607D01*
X017667Y016856D02*
X017667Y017356D01*
X017667Y017481D01*
X017667Y017731D01*
X017667Y017481D02*
X017679Y017356D01*
X016679Y017356D02*
X016679Y016856D01*
X016667Y017356D02*
X016667Y017731D01*
X015667Y017731D02*
X015667Y017356D01*
X015667Y016856D01*
X014679Y016856D02*
X014667Y016856D01*
X014679Y016856D02*
X014679Y017356D01*
X014667Y017356D02*
X014667Y017731D01*
X006979Y013481D02*
X006962Y013481D01*
X006667Y013481D02*
X006371Y013481D01*
X006104Y013481D01*
X006371Y013481D02*
X006371Y012794D01*
X006604Y012794D01*
X006371Y012794D02*
X006371Y012544D01*
X006371Y012794D02*
X005763Y012794D01*
X005604Y012794D01*
X005604Y013419D01*
X006371Y013481D02*
X006371Y014256D01*
X005763Y012794D02*
X005763Y011981D01*
X005763Y010856D01*
X008167Y010856D01*
X008167Y010606D01*
X008357Y009212D01*
X008167Y007481D01*
X009979Y007481D01*
X009979Y007169D01*
X011184Y007169D01*
X011184Y007481D01*
X011229Y007794D02*
X011559Y007794D01*
X011229Y007794D02*
X010979Y008044D01*
X010979Y008731D01*
X010714Y008996D01*
X010714Y009520D01*
X010458Y009520D02*
X010458Y009919D01*
X010417Y009919D01*
X010684Y010151D02*
X009417Y010151D01*
X009417Y011249D01*
X010684Y010151D02*
X010970Y009865D01*
X010970Y009520D01*
X010970Y009178D01*
X011104Y009044D01*
X011354Y009044D01*
X011354Y008419D01*
X011541Y008231D01*
X011917Y008231D01*
X012059Y008374D01*
X012291Y008374D01*
X012578Y008374D02*
X012854Y008374D01*
X012854Y008669D01*
X012854Y008964D02*
X012291Y008964D01*
X012250Y009006D01*
X012250Y009520D01*
X011994Y009520D02*
X011994Y008809D01*
X011791Y008606D01*
X011354Y009044D02*
X011482Y009172D01*
X011482Y009520D01*
X011482Y010103D01*
X011479Y010106D01*
X011724Y009903D02*
X011724Y009541D01*
X011738Y009520D01*
X011226Y009520D02*
X011226Y009909D01*
X011035Y010100D01*
X011035Y010475D01*
X011226Y010666D01*
X011417Y010856D01*
X011917Y010856D01*
X012712Y010061D01*
X013041Y010061D01*
X013274Y010061D01*
X014667Y008669D01*
X019541Y008669D01*
X020013Y008197D01*
X020417Y008197D01*
X020889Y008197D01*
X021041Y008044D01*
X021541Y008044D01*
X022009Y007669D02*
X022381Y007297D01*
X023479Y007297D01*
X022009Y007669D02*
X020291Y007669D01*
X019917Y007294D01*
X019917Y005481D01*
X019791Y005356D01*
X019229Y005356D01*
X018729Y005356D01*
X017791Y004669D02*
X017229Y004669D01*
X017229Y004981D01*
X017229Y005731D01*
X017229Y006044D01*
X017791Y006044D01*
X017791Y006356D01*
X018229Y006356D01*
X018729Y006356D01*
X019104Y006356D01*
X018729Y006356D02*
X018729Y006856D01*
X018729Y007356D01*
X018729Y008044D01*
X018667Y008107D01*
X017679Y008107D01*
X017667Y008107D01*
X017667Y008231D01*
X017667Y008481D01*
X017667Y008231D02*
X017679Y008107D01*
X017667Y008107D02*
X017167Y008028D01*
X016186Y008028D01*
X015667Y008107D01*
X015667Y008481D01*
X015667Y008107D02*
X015167Y008028D01*
X014679Y008107D01*
X014679Y008481D01*
X014679Y008107D02*
X014679Y007607D01*
X014679Y008107D02*
X013917Y008107D01*
X013917Y007794D01*
X013917Y007777D01*
X013899Y007777D01*
X013917Y007794D01*
X013917Y007777D02*
X013917Y007007D01*
X013504Y007007D01*
X013479Y006981D01*
X013917Y007007D02*
X013917Y006607D01*
X013917Y007007D02*
X014479Y007007D01*
X014479Y006981D01*
X014854Y006981D01*
X014854Y006481D01*
X014541Y006481D01*
X014541Y006044D01*
X014541Y005544D01*
X014854Y005544D01*
X014854Y004981D01*
X014479Y004981D01*
X013979Y004981D01*
X013929Y004981D01*
X013929Y005006D01*
X013929Y005469D01*
X013891Y005044D02*
X013929Y005006D01*
X013417Y005006D01*
X013417Y005419D01*
X012979Y005419D01*
X012604Y005419D01*
X012604Y005273D01*
X011729Y005273D01*
X011729Y004981D01*
X011604Y004669D02*
X011229Y004669D01*
X011229Y004981D01*
X011229Y005419D01*
X010729Y005419D01*
X010229Y005419D01*
X009729Y005419D01*
X009291Y005419D01*
X009291Y006006D02*
X009809Y006006D01*
X010399Y006006D02*
X010746Y006006D01*
X011337Y006006D02*
X011480Y005863D01*
X011729Y005863D01*
X011872Y006006D01*
X012121Y006006D01*
X012712Y006006D02*
X013026Y006006D01*
X013167Y006147D01*
X013167Y006006D01*
X013929Y006006D01*
X013929Y005006D02*
X013979Y004981D01*
X013929Y004981D02*
X013929Y004481D01*
X013929Y003981D01*
X013541Y003981D01*
X013929Y003981D02*
X014354Y003981D01*
X014479Y003856D01*
X014679Y003856D01*
X014679Y003307D01*
X014679Y002919D01*
X014679Y003307D02*
X014104Y003307D01*
X014104Y003419D01*
X013929Y003419D01*
X013929Y003981D01*
X013929Y004481D02*
X013917Y004481D01*
X014479Y004231D02*
X015167Y004231D01*
X015667Y004231D01*
X016229Y004231D01*
X016667Y004231D01*
X016667Y003856D01*
X016667Y003307D01*
X016667Y003294D01*
X016667Y002919D01*
X016667Y003294D02*
X017167Y003294D01*
X017667Y003294D01*
X017667Y002919D01*
X017667Y003294D02*
X017679Y003294D01*
X018729Y003294D01*
X018729Y004356D01*
X019104Y004356D01*
X018729Y004356D02*
X018229Y004356D01*
X017791Y004356D01*
X017791Y004669D01*
X017667Y003856D02*
X017667Y003294D01*
X017679Y003307D01*
X017679Y003294D01*
X016679Y003307D02*
X016667Y003294D01*
X016667Y003307D02*
X016679Y003307D01*
X015679Y003306D02*
X015679Y003307D01*
X015679Y003306D02*
X015667Y003294D01*
X015667Y002856D01*
X014479Y003856D02*
X014479Y004231D01*
X011604Y003856D02*
X011604Y002856D01*
X011604Y001794D01*
X011604Y001204D01*
X010604Y001204D01*
X009604Y001204D01*
X008604Y001204D01*
X007604Y001204D01*
X007604Y001794D01*
X007604Y002856D01*
X007604Y004107D01*
X006604Y004107D01*
X006604Y004669D01*
X006604Y005006D01*
X005854Y005006D01*
X005933Y006006D02*
X004817Y006006D01*
X006524Y006006D02*
X006663Y006145D01*
X006979Y006145D01*
X006979Y006006D01*
X007576Y006006D01*
X008167Y005942D02*
X008167Y005731D01*
X008167Y005231D01*
X008167Y004890D01*
X008167Y004669D01*
X008167Y003981D01*
X008757Y006006D02*
X008898Y006147D01*
X009291Y006147D01*
X009291Y006006D01*
X009291Y006481D02*
X009291Y006737D01*
X009729Y006737D01*
X009746Y006737D01*
X009729Y006737D02*
X009729Y006607D01*
X009291Y006737D02*
X009291Y006981D01*
X009291Y006737D02*
X008854Y006737D01*
X008854Y006607D01*
X008167Y006607D02*
X008167Y007481D01*
X006979Y006735D02*
X006962Y006735D01*
X006371Y007007D02*
X006371Y007731D01*
X006604Y007731D01*
X006371Y007731D02*
X006104Y007731D01*
X006371Y007731D02*
X006371Y008419D01*
X006604Y008419D01*
X006371Y008419D02*
X006371Y008669D01*
X006371Y008419D02*
X005763Y008419D01*
X005763Y009231D01*
X005763Y010856D01*
X005763Y011981D02*
X005479Y011981D01*
X005763Y011981D02*
X006041Y011981D01*
X006944Y011981D02*
X006962Y011981D01*
X009417Y009561D02*
X009417Y008419D01*
X009541Y008294D01*
X009809Y008294D01*
X009809Y008794D01*
X009809Y009374D01*
X009962Y009527D01*
X010202Y009520D01*
X010458Y009520D02*
X010458Y008853D01*
X010399Y008794D01*
X010604Y008794D01*
X010399Y008794D02*
X010104Y008794D01*
X010399Y008794D02*
X010399Y008294D01*
X010167Y008294D01*
X010399Y008294D02*
X010604Y008294D01*
X010399Y008294D02*
X010399Y007902D01*
X009979Y007481D01*
X011184Y007169D02*
X011184Y006607D01*
X011291Y006607D01*
X011184Y007169D02*
X011479Y007169D01*
X012149Y007794D02*
X012184Y007794D01*
X012184Y007759D02*
X012149Y007794D01*
X012854Y007777D02*
X013167Y007777D01*
X013899Y007777D01*
X013917Y008107D02*
X013917Y008356D01*
X013917Y008374D01*
X013899Y008374D01*
X013917Y008356D01*
X013899Y008374D02*
X013417Y008374D01*
X013417Y008669D01*
X013417Y008964D02*
X012854Y008964D01*
X012854Y008374D02*
X012854Y008107D01*
X013167Y008044D02*
X013167Y007777D01*
X013167Y007481D01*
X012791Y007186D02*
X012774Y007169D01*
X013417Y008107D02*
X013417Y008374D01*
X012854Y008374D01*
X013979Y009794D02*
X013979Y010981D01*
X013479Y010624D02*
X013479Y010294D01*
X013667Y010106D01*
X013979Y009794D02*
X014917Y008856D01*
X019680Y008856D01*
X019893Y008643D01*
X020265Y008643D01*
X020291Y008669D01*
X020819Y008766D02*
X021541Y008766D01*
X019104Y007356D02*
X018729Y007356D01*
X018229Y007356D01*
X018229Y006981D01*
X017667Y006981D02*
X017667Y008107D01*
X015667Y008107D02*
X015667Y007607D01*
X011729Y005544D02*
X011729Y005273D01*
X011417Y005273D01*
X011417Y005294D01*
X011604Y004669D02*
X011604Y003856D01*
X011604Y001204D02*
X012604Y001204D01*
X007604Y001204D02*
X006604Y001204D01*
X006962Y008419D02*
X006944Y008419D01*
X006041Y009231D02*
X005763Y009231D01*
X005479Y009231D01*
X008819Y009231D02*
X008854Y009197D01*
X011724Y009903D02*
X011828Y010006D01*
X011828Y010481D01*
X013041Y010651D02*
X013451Y010651D01*
X013479Y010624D01*
X020417Y007016D02*
X021462Y007016D01*
X021541Y006937D01*
X023791Y006106D02*
X023791Y006107D01*
X025729Y005981D02*
X025729Y005544D01*
X025729Y005544D01*
X025889Y003139D02*
X025917Y002953D01*
X026448Y002635D01*
X026179Y001839D02*
X026304Y001419D01*
X022933Y001462D02*
X022933Y002439D01*
X021167Y002794D02*
X020729Y002356D01*
X019417Y002356D01*
X019417Y001856D02*
X018854Y001856D01*
X019417Y001356D02*
X019979Y001459D01*
X031917Y012794D02*
X033229Y011481D01*
D50*
X033291Y011044D03*
X033917Y011044D03*
X033291Y011919D03*
X029541Y011731D03*
X029229Y012044D03*
X031604Y009419D03*
X032417Y009419D03*
X023982Y013607D03*
X023670Y013919D03*
X023966Y014481D03*
X022479Y014330D03*
X019291Y013731D03*
X019104Y011794D03*
X018667Y011419D03*
X018627Y009794D03*
X019456Y009481D03*
X019041Y009146D03*
X019979Y009146D03*
X020291Y008669D03*
X021084Y009494D03*
X021541Y009544D03*
X014667Y011231D03*
X013667Y010106D03*
X011828Y010481D03*
X011479Y010106D03*
X010597Y011235D03*
X010104Y011294D03*
X010611Y012409D03*
X011791Y008606D03*
X022032Y018909D03*
X025104Y019856D03*
X031479Y018294D03*
X031917Y018419D03*
X032479Y017294D03*
D51*
X031979Y016919D02*
X027854Y016919D01*
X027479Y016919D01*
X027292Y017106D01*
X027292Y017419D01*
X027292Y017794D01*
X028417Y018918D01*
X028417Y020008D01*
X029667Y019293D02*
X029667Y017856D01*
X027292Y017794D02*
X027104Y017981D01*
X025854Y017981D01*
X025604Y017731D01*
X025604Y015919D01*
X025354Y015669D01*
X025013Y015669D01*
X024291Y015953D02*
X024291Y016231D01*
X024604Y016544D01*
X025013Y016544D01*
X025013Y017419D01*
X025013Y017918D01*
X026389Y019294D01*
X025104Y019839D02*
X024559Y019294D01*
X024559Y018374D01*
X024291Y018106D01*
X019604Y018106D01*
X023479Y017135D02*
X024291Y017135D01*
X024291Y018106D01*
X024291Y015953D02*
X023479Y015953D01*
X023479Y015294D01*
X022917Y014731D01*
X022917Y014107D01*
X022667Y013856D01*
X020791Y013856D01*
X013167Y014151D02*
X012712Y014151D01*
X013167Y014151D02*
X013167Y014522D01*
X012121Y014151D02*
X011479Y014151D01*
X011087Y014151D01*
X011774Y007186D02*
X012184Y007186D01*
X012791Y007186D02*
X012917Y007186D01*
X013167Y007186D01*
X013167Y006737D01*
X027979Y001417D02*
X028667Y002106D01*
X031104Y002106D01*
X031570Y002572D01*
X031570Y003106D01*
X032291Y003106D01*
X033917Y004731D01*
X033917Y008731D01*
X032417Y009419D02*
X032417Y009814D01*
X033283Y010169D02*
X033291Y010178D01*
X033291Y011044D01*
X033291Y011919D02*
X032955Y012255D01*
X032955Y012256D01*
X032885Y012325D01*
X032885Y013367D01*
X032667Y013586D01*
X032667Y013891D01*
X032667Y013981D01*
X032104Y014544D01*
X031354Y014544D01*
X030729Y015169D01*
X030729Y015607D01*
X031979Y016919D02*
X032660Y016238D01*
X032660Y015078D01*
X032667Y015072D01*
X032667Y014669D01*
X032955Y012256D02*
X033291Y011919D01*
D52*
X033917Y011044D02*
X033917Y009481D01*
X033479Y009044D01*
X033479Y008169D01*
X033291Y007981D01*
X032854Y007981D01*
X032854Y007481D02*
X033291Y007481D01*
X033541Y007231D01*
X033541Y005106D01*
X033013Y004578D01*
X032354Y004578D01*
X032354Y004169D01*
X032041Y003856D01*
X031417Y003856D01*
X031417Y004231D02*
X030917Y004231D01*
X030917Y004981D01*
X031229Y005294D01*
X031632Y005294D01*
X032229Y005294D01*
X032354Y005419D01*
X032354Y005759D01*
X032854Y006981D02*
X031750Y006981D01*
X031750Y007877D01*
X032041Y008169D01*
X032041Y008856D01*
X032729Y008856D01*
X033283Y009410D01*
X033283Y010169D01*
X032041Y008856D02*
X031854Y009044D01*
X030729Y009044D01*
X029570Y007885D01*
X028729Y007885D01*
X027917Y007885D01*
X027917Y007607D01*
X027791Y007481D01*
X026979Y007481D01*
X026729Y007731D01*
X026729Y008231D01*
X026729Y008669D01*
X026604Y008794D01*
X025417Y008794D01*
X024729Y008107D01*
X023791Y008107D01*
X023729Y008169D01*
X023729Y009919D01*
X023925Y009919D01*
X024224Y010218D01*
X024224Y010414D01*
X024729Y010919D01*
X023830Y011818D01*
X023830Y012186D01*
X023598Y012419D01*
X023291Y012419D01*
X023291Y012919D02*
X022791Y012919D01*
X022667Y012794D01*
X022667Y011294D01*
X023291Y010670D01*
X023291Y010606D01*
X023729Y009919D02*
X022554Y009919D01*
X022167Y010307D01*
X022167Y012481D01*
X021729Y012919D01*
X021041Y012919D01*
X021041Y013419D02*
X023291Y013419D01*
X023291Y014607D01*
X023667Y014981D01*
X024541Y014981D01*
X024729Y014794D01*
X026979Y014794D01*
X027979Y013794D01*
X028326Y013794D01*
X028604Y013794D01*
X029167Y013231D01*
X030667Y013231D01*
X030791Y013107D01*
X032291Y013107D01*
X032660Y015078D02*
X031729Y015078D01*
X030729Y015607D02*
X030479Y015856D01*
X029667Y015856D01*
X028729Y015856D01*
X030479Y015856D02*
X030729Y015856D01*
X031132Y016259D01*
X031729Y016259D01*
X032479Y017294D02*
X031479Y018294D01*
X031104Y018669D01*
X030604Y018669D01*
X030291Y018981D01*
X030291Y019898D01*
X029667Y019293D02*
X029646Y019215D01*
X029667Y017856D02*
X028729Y017856D01*
X026917Y017419D02*
X026194Y017419D01*
X026194Y016544D01*
X026194Y015669D01*
X025604Y012919D02*
X023291Y012919D01*
X021041Y011919D02*
X021041Y010607D01*
X021041Y010606D01*
X021041Y010044D01*
X021541Y009544D01*
X021541Y008766D01*
X022007Y009231D01*
X023139Y009231D01*
X024729Y010919D02*
X025604Y010919D01*
X025729Y008231D02*
X025729Y008231D01*
X025729Y007731D01*
X024934Y006937D01*
X021541Y006937D01*
X021541Y006936D01*
X021541Y005669D01*
X023104Y004107D01*
X023917Y004107D01*
X024117Y004107D01*
X024519Y004509D01*
X024519Y004897D01*
X024854Y005231D01*
X025417Y005231D01*
X025729Y005544D01*
X025729Y006481D01*
X025854Y006607D01*
X026604Y006607D01*
X026729Y006481D01*
X026729Y005981D01*
X027229Y005981D02*
X027229Y005544D01*
X026822Y005412D01*
X026100Y005412D01*
X025889Y005141D01*
X025889Y004928D01*
X025791Y004635D01*
X025104Y004635D01*
X025798Y004822D02*
X025889Y004928D01*
X027070Y004928D02*
X027070Y003974D01*
X027870Y003856D01*
X027070Y003974D02*
X027070Y003139D01*
X027070Y002435D01*
X026179Y001839D01*
X026304Y001419D02*
X027979Y001417D01*
X025889Y003139D02*
X025889Y003419D01*
X025889Y003974D01*
X025889Y003419D02*
X025139Y003419D01*
X025104Y003453D01*
X024389Y003453D01*
X023791Y002856D01*
X023791Y001556D01*
X023779Y001839D01*
X027070Y004928D02*
X027541Y004731D01*
X027701Y004891D01*
X027701Y005419D01*
X027701Y006078D01*
X027917Y006294D01*
X027917Y006703D01*
X028729Y006703D01*
X028820Y006794D01*
X029520Y006794D01*
X029708Y006981D01*
X029707Y006981D01*
X029791Y005981D02*
X029229Y005419D01*
X028882Y005419D01*
X029229Y005419D02*
X029526Y005122D01*
X029526Y003856D01*
X030416Y003856D01*
X030417Y003856D01*
X030417Y003135D01*
X030389Y003106D01*
X030917Y003419D02*
X030917Y004231D01*
X031417Y004606D02*
X031444Y004578D01*
X032354Y004578D01*
X030917Y003419D02*
X031229Y003106D01*
X031570Y003106D01*
X026951Y006703D02*
X026729Y006481D01*
X026951Y006703D02*
X027917Y006703D01*
X026229Y007669D02*
X024667Y006106D01*
X023791Y006106D01*
X023791Y005106D01*
X026229Y007669D02*
X026229Y008231D01*
X026229Y008231D01*
X026729Y008231D02*
X027229Y008231D01*
X030729Y009940D02*
X030729Y009940D01*
X027396Y019215D02*
X026389Y019294D01*
X025104Y019839D02*
X025104Y019856D01*
X008854Y012481D02*
X008854Y012016D01*
X007638Y011981D02*
X006962Y011981D01*
X006962Y012794D01*
X006962Y013481D01*
X006979Y013481D02*
X006979Y014170D01*
X006979Y014516D01*
X006371Y014256D02*
X004817Y014256D01*
X004817Y013544D01*
X004817Y016256D02*
X005854Y016256D01*
X004817Y016256D02*
X004817Y016981D01*
X006944Y009231D02*
X007638Y009231D01*
X006944Y009231D02*
X006944Y008419D01*
X006962Y008419D02*
X006962Y007731D01*
X006962Y006735D01*
X006371Y007007D02*
X004817Y007007D01*
X004817Y007794D01*
X008854Y008731D02*
X008854Y009197D01*
X012184Y007794D02*
X012184Y007759D01*
X012184Y007186D01*
X005854Y005006D02*
X004817Y005006D01*
X004817Y004294D01*
D53*
X004604Y004169D03*
X005104Y004169D03*
X005604Y004169D03*
X005917Y004481D03*
X006604Y004669D03*
X006667Y005419D03*
X007041Y005419D03*
X007479Y005419D03*
X008167Y005231D03*
X008167Y004669D03*
X008854Y004669D03*
X009604Y004669D03*
X009729Y005419D03*
X009291Y005419D03*
X008854Y005419D03*
X008167Y005731D03*
X008167Y006169D03*
X008167Y006607D03*
X008541Y006607D03*
X008854Y006607D03*
X008541Y007231D03*
X009291Y007231D03*
X009729Y007607D03*
X009291Y007981D03*
X008541Y007981D03*
X008854Y008731D03*
X008357Y009212D03*
X007604Y009856D03*
X006354Y009231D03*
X005604Y009794D03*
X004604Y009794D03*
X004604Y010606D03*
X005604Y010606D03*
X005604Y011419D03*
X006354Y011981D03*
X005604Y012544D03*
X004604Y012419D03*
X004604Y011419D03*
X007229Y010606D03*
X007604Y011356D03*
X008229Y011981D03*
X008854Y012481D03*
X007791Y012731D03*
X008167Y013294D03*
X008729Y013419D03*
X008167Y013856D03*
X007604Y013419D03*
X007479Y014107D03*
X007479Y014669D03*
X008167Y014481D03*
X008166Y015110D03*
X008167Y015419D03*
X008167Y015856D03*
X008541Y015856D03*
X008854Y015856D03*
X008854Y016356D03*
X009291Y016419D03*
X009729Y016356D03*
X009729Y015856D03*
X010229Y015856D03*
X010729Y015856D03*
X011291Y015856D03*
X011291Y016294D03*
X011729Y016419D03*
X012104Y016294D03*
X012104Y015856D03*
X012541Y015856D03*
X012917Y015856D03*
X013354Y015856D03*
X014479Y016231D03*
X014854Y016231D03*
X014667Y016856D03*
X013917Y016794D03*
X013104Y016919D03*
X013604Y017731D03*
X014104Y018106D03*
X014167Y017356D03*
X015167Y017356D03*
X015667Y016856D03*
X016167Y016419D03*
X016667Y016856D03*
X017041Y016419D03*
X017667Y016856D03*
X018229Y016607D03*
X018729Y017044D03*
X019604Y017106D03*
X019604Y018106D03*
X018604Y018731D03*
X017854Y018106D03*
X017604Y018731D03*
X017104Y018106D03*
X016104Y018106D03*
X016167Y017356D03*
X017167Y017356D03*
X016604Y018731D03*
X015604Y018731D03*
X015104Y018106D03*
X014604Y018731D03*
X013604Y018731D03*
X012604Y018731D03*
X011604Y018731D03*
X010604Y018731D03*
X009604Y018731D03*
X008604Y018731D03*
X007604Y018731D03*
X006604Y018731D03*
X005604Y018294D03*
X005604Y017731D03*
X006604Y017731D03*
X006167Y016919D03*
X005604Y017044D03*
X005104Y017044D03*
X004604Y017044D03*
X004604Y017731D03*
X004604Y018419D03*
X006667Y019731D03*
X007604Y019731D03*
X008604Y019731D03*
X009604Y019731D03*
X010604Y019731D03*
X011604Y019731D03*
X012604Y019731D03*
X013604Y019731D03*
X014604Y019731D03*
X015604Y019731D03*
X016604Y019731D03*
X017604Y019731D03*
X018604Y020044D03*
X019604Y019981D03*
X019604Y019106D03*
X022854Y017606D03*
X019604Y016107D03*
X018729Y016107D03*
X018229Y015607D03*
X017667Y015731D03*
X017229Y015044D03*
X016667Y015731D03*
X016167Y015044D03*
X015667Y015731D03*
X015167Y015231D03*
X014541Y015231D03*
X014541Y014794D03*
X014417Y014231D03*
X014854Y014231D03*
X015667Y014231D03*
X015667Y013481D03*
X015167Y013481D03*
X014479Y013107D03*
X013541Y012106D03*
X013893Y011540D03*
X011479Y011169D03*
X010775Y010731D03*
X010104Y010731D03*
X008167Y010606D03*
X007604Y008669D03*
X007604Y007981D03*
X007604Y007231D03*
X007791Y006607D03*
X007393Y006607D03*
X006565Y006607D03*
X006252Y006607D03*
X005917Y006607D03*
X006604Y007231D03*
X005917Y007544D03*
X005604Y007794D03*
X005104Y007794D03*
X004604Y007794D03*
X005604Y008669D03*
X004604Y008794D03*
X009729Y006607D03*
X010104Y006607D03*
X010479Y006607D03*
X010854Y006607D03*
X011291Y006607D03*
X011729Y006607D03*
X012167Y006607D03*
X012604Y006607D03*
X014479Y006981D03*
X014854Y006981D03*
X014541Y006481D03*
X014541Y006044D03*
X014541Y005544D03*
X015041Y006044D03*
X015479Y005481D03*
X014854Y004981D03*
X014479Y004981D03*
X013917Y004505D03*
X014479Y003856D03*
X014104Y003419D03*
X013791Y002956D03*
X012604Y002856D03*
X011604Y002856D03*
X010604Y002856D03*
X009604Y002856D03*
X008604Y002856D03*
X007604Y002856D03*
X006604Y002856D03*
X005604Y003169D03*
X004604Y003044D03*
X006604Y003856D03*
X007604Y004107D03*
X008167Y003981D03*
X008729Y004107D03*
X009604Y003856D03*
X010604Y003856D03*
X011604Y003856D03*
X012604Y003856D03*
X013354Y003856D03*
X012604Y004669D03*
X012167Y004981D03*
X011604Y004669D03*
X011229Y004981D03*
X011229Y005419D03*
X010729Y005419D03*
X010229Y005419D03*
X010604Y004669D03*
X012167Y005419D03*
X012604Y005419D03*
X012979Y005419D03*
X013417Y005419D03*
X015167Y004231D03*
X015667Y004231D03*
X016229Y004231D03*
X016667Y003856D03*
X017167Y003294D03*
X017667Y003856D03*
X018229Y004356D03*
X017791Y004669D03*
X017229Y004981D03*
X016667Y005481D03*
X017229Y005731D03*
X017791Y006044D03*
X018229Y006356D03*
X018229Y006981D03*
X018729Y006856D03*
X019604Y006607D03*
X019604Y007356D03*
X019604Y008044D03*
X018729Y008044D03*
X017167Y008028D03*
X016673Y007591D03*
X016186Y008028D03*
X015667Y007607D03*
X015167Y008028D03*
X014667Y007607D03*
X015479Y006607D03*
X016167Y006981D03*
X016791Y006607D03*
X017667Y006981D03*
X016167Y005981D03*
X016167Y004981D03*
X015667Y002856D03*
X016667Y002606D03*
X015667Y001894D03*
X014729Y001894D03*
X013791Y001894D03*
X012604Y001794D03*
X012604Y001204D03*
X011604Y001204D03*
X011604Y001794D03*
X010604Y001794D03*
X010604Y001204D03*
X009604Y001204D03*
X009604Y001794D03*
X008604Y001794D03*
X008604Y001204D03*
X007604Y001204D03*
X007604Y001794D03*
X006667Y001794D03*
X006604Y001204D03*
X007479Y004669D03*
X006291Y005419D03*
X005917Y005419D03*
X010417Y007607D03*
X010854Y007607D03*
X014854Y009481D03*
X015291Y009794D03*
X015291Y009169D03*
X016291Y009794D03*
X018354Y009169D03*
X021541Y008044D03*
X023479Y007297D03*
X021541Y005669D03*
X019604Y005794D03*
X019229Y005356D03*
X019604Y004926D03*
X019604Y004356D03*
X019604Y003731D03*
X019604Y003169D03*
X018854Y002356D03*
X018854Y001856D03*
X018854Y001356D03*
X017917Y001731D03*
X018167Y002356D03*
X016854Y001607D03*
X019979Y001459D03*
X021268Y001186D03*
X022933Y001462D03*
X022933Y002439D03*
X021167Y002794D03*
X023917Y004107D03*
X026448Y002635D03*
X028291Y005106D03*
X029791Y005981D03*
X029383Y007540D03*
X029604Y008669D03*
X028291Y008669D03*
X029541Y010044D03*
X031354Y008669D03*
X033917Y008731D03*
X030229Y011419D03*
X030791Y013107D03*
X032291Y013107D03*
X032667Y014669D03*
X027854Y016919D03*
X025604Y015231D03*
X020791Y013856D03*
X019229Y014607D03*
X019604Y015044D03*
X018229Y014607D03*
X017667Y014231D03*
X018229Y013607D03*
X017667Y013107D03*
X017167Y012623D03*
X016667Y013107D03*
X016229Y013481D03*
X016604Y014231D03*
X014541Y015731D03*
X012541Y014669D03*
X012104Y014669D03*
X011667Y014669D03*
X011229Y014669D03*
X010729Y014669D03*
X010229Y014669D03*
X009729Y014669D03*
X009291Y014669D03*
X008854Y014669D03*
X008854Y014107D03*
X009729Y014107D03*
X010979Y013607D03*
X007791Y015856D03*
X007354Y015856D03*
X006917Y015856D03*
X006417Y015856D03*
X005917Y015856D03*
X006667Y016419D03*
X007604Y016419D03*
X008104Y016919D03*
X008604Y017731D03*
X009604Y017731D03*
X010104Y016919D03*
X010604Y017731D03*
X011104Y016919D03*
X011604Y017731D03*
X012604Y017731D03*
X007604Y017731D03*
X007104Y016919D03*
X006541Y014669D03*
X005917Y014669D03*
X005917Y013794D03*
X005604Y013419D03*
X005104Y013419D03*
X004604Y013419D03*
X016729Y011356D03*
X017604Y011356D03*
X020519Y011460D03*
X025541Y009794D03*
X027667Y011919D03*
X030791Y019106D03*
X028417Y020008D03*
D54*
X028729Y017856D02*
X028291Y017419D01*
X027667Y017419D01*
X027667Y016419D02*
X026917Y016419D01*
X027667Y016419D02*
X028167Y016419D01*
X028729Y015856D01*
D55*
X030058Y020436D02*
X023933Y020436D01*
D56*
X015679Y012556D02*
X015679Y012556D01*
X015679Y012557D01*
X015679Y003307D02*
X015679Y003306D01*
X015679Y003306D01*
X031595Y010218D02*
X031604Y010218D01*
X031595Y010218D02*
X031595Y010294D01*
D57*
X019861Y011265D02*
X019851Y011265D01*
X019851Y011356D01*
X019781Y011425D01*
X019052Y011425D01*
X018983Y011356D01*
X018983Y010857D01*
X018983Y010856D01*
X018983Y010856D01*
X018983Y010765D01*
X018476Y010765D01*
X018383Y010672D01*
X017976Y010265D01*
X015357Y010265D01*
X015226Y010396D01*
X015228Y010396D01*
X015298Y010466D01*
X015298Y010997D01*
X015228Y011067D01*
X014910Y011067D01*
X014902Y011075D01*
X014865Y011096D01*
X014825Y011107D01*
X014676Y011107D01*
X014676Y010741D01*
X014656Y010741D01*
X014656Y011107D01*
X014507Y011107D01*
X014467Y011096D01*
X014431Y011075D01*
X014422Y011067D01*
X014118Y011067D01*
X014072Y011113D01*
X014045Y011140D01*
X014045Y011140D01*
X013855Y011329D01*
X013812Y011372D01*
X013812Y011372D01*
X013812Y011373D01*
X013756Y011372D01*
X013756Y011421D01*
X013686Y011491D01*
X013272Y011491D01*
X013203Y011421D01*
X013203Y011372D01*
X012249Y011372D01*
X012155Y011467D01*
X012169Y011464D01*
X012249Y011464D01*
X012249Y011817D01*
X012250Y011817D01*
X012250Y011464D01*
X012331Y011464D01*
X012371Y011474D01*
X012407Y011495D01*
X012415Y011504D01*
X012615Y011504D01*
X012685Y011573D01*
X012685Y012062D01*
X012615Y012132D01*
X012415Y012132D01*
X012407Y012140D01*
X012371Y012161D01*
X012331Y012172D01*
X012250Y012172D01*
X012250Y011818D01*
X012249Y011818D01*
X012249Y012172D01*
X012169Y012172D01*
X012128Y012161D01*
X012092Y012140D01*
X012084Y012132D01*
X011904Y012132D01*
X011895Y012140D01*
X011859Y012161D01*
X011819Y012172D01*
X011738Y012172D01*
X011738Y011818D01*
X011738Y011818D01*
X011738Y012172D01*
X011657Y012172D01*
X011638Y012166D01*
X011638Y013284D01*
X011686Y013284D01*
X011756Y013354D01*
X011756Y013768D01*
X011686Y013837D01*
X011272Y013837D01*
X011203Y013768D01*
X011203Y013354D01*
X011272Y013284D01*
X011321Y013284D01*
X011321Y012926D01*
X010512Y013734D01*
X010420Y013827D01*
X010363Y013827D01*
X010363Y013834D01*
X010476Y013834D01*
X010476Y014131D01*
X010180Y014131D01*
X010180Y013972D01*
X010187Y013945D01*
X009880Y013945D01*
X009810Y013876D01*
X009810Y013856D01*
X009802Y013888D01*
X009781Y013924D01*
X009751Y013954D01*
X009715Y013974D01*
X009674Y013985D01*
X009516Y013985D01*
X009516Y013689D01*
X009476Y013689D01*
X009476Y013985D01*
X009318Y013985D01*
X009277Y013974D01*
X009241Y013954D01*
X009211Y013924D01*
X009190Y013888D01*
X009180Y013847D01*
X009180Y013689D01*
X009476Y013689D01*
X009476Y013649D01*
X009180Y013649D01*
X009180Y013490D01*
X009190Y013450D01*
X009208Y013419D01*
X009190Y013388D01*
X009180Y013347D01*
X009180Y013189D01*
X009476Y013189D01*
X009476Y013352D01*
X009476Y013649D01*
X009516Y013649D01*
X009810Y013649D01*
X009810Y013689D01*
X009516Y013689D01*
X009516Y013649D01*
X009516Y013352D01*
X009516Y013189D01*
X009476Y013189D01*
X009476Y013149D01*
X009180Y013149D01*
X009180Y012990D01*
X009190Y012950D01*
X009208Y012919D01*
X009190Y012888D01*
X009180Y012847D01*
X009180Y012689D01*
X009476Y012689D01*
X009476Y012985D01*
X009476Y013149D01*
X009516Y013149D01*
X009810Y013149D01*
X009810Y013189D01*
X009516Y013189D01*
X009516Y013149D01*
X009516Y012985D01*
X009516Y012689D01*
X009476Y012689D01*
X009476Y012649D01*
X009180Y012649D01*
X009180Y012490D01*
X009190Y012450D01*
X009211Y012414D01*
X009241Y012384D01*
X009277Y012363D01*
X009318Y012352D01*
X009476Y012352D01*
X009476Y012649D01*
X009516Y012649D01*
X009810Y012649D01*
X009810Y012689D01*
X009516Y012689D01*
X009516Y012649D01*
X009516Y012352D01*
X009674Y012352D01*
X009715Y012363D01*
X009751Y012384D01*
X009781Y012414D01*
X009802Y012450D01*
X009810Y012481D01*
X009810Y012462D01*
X009880Y012392D01*
X009928Y012392D01*
X009928Y012342D01*
X009663Y012077D01*
X009623Y012116D01*
X009210Y012116D01*
X009140Y012046D01*
X009140Y011632D01*
X009210Y011563D01*
X009623Y011563D01*
X009693Y011632D01*
X009693Y011681D01*
X009715Y011681D01*
X009808Y011774D01*
X010023Y011989D01*
X010023Y011573D01*
X010044Y011553D01*
X010044Y011533D01*
X009966Y011501D01*
X009897Y011432D01*
X009860Y011343D01*
X009860Y011245D01*
X009897Y011156D01*
X009966Y011087D01*
X010055Y011050D01*
X010152Y011050D01*
X010242Y011087D01*
X010311Y011156D01*
X010348Y011245D01*
X010348Y011260D01*
X010353Y011255D01*
X010353Y011186D01*
X010390Y011097D01*
X010459Y011028D01*
X010549Y010991D01*
X010646Y010991D01*
X010735Y011028D01*
X010804Y011097D01*
X010841Y011186D01*
X010841Y011284D01*
X010804Y011373D01*
X010735Y011442D01*
X010646Y011479D01*
X010617Y011479D01*
X010617Y011504D01*
X010823Y011504D01*
X010842Y011522D01*
X010861Y011504D01*
X011079Y011504D01*
X011098Y011522D01*
X011117Y011504D01*
X011335Y011504D01*
X011354Y011522D01*
X011373Y011504D01*
X011572Y011504D01*
X011580Y011495D01*
X011616Y011474D01*
X011657Y011464D01*
X011738Y011464D01*
X011819Y011464D01*
X011835Y011468D01*
X011835Y011339D01*
X011928Y011246D01*
X012118Y011056D01*
X012249Y011056D01*
X013203Y011056D01*
X013203Y011007D01*
X013272Y010938D01*
X013686Y010938D01*
X013742Y010994D01*
X013821Y010916D01*
X013821Y010297D01*
X013805Y010313D01*
X013715Y010350D01*
X013689Y010350D01*
X013756Y010417D01*
X013756Y010830D01*
X013686Y010900D01*
X013276Y010900D01*
X013248Y010928D01*
X012835Y010928D01*
X012765Y010858D01*
X012765Y010445D01*
X012835Y010375D01*
X013244Y010375D01*
X013272Y010347D01*
X013321Y010347D01*
X013321Y010295D01*
X013321Y010229D01*
X013321Y010228D02*
X013321Y010228D01*
X013330Y010219D01*
X013318Y010219D01*
X013318Y010268D01*
X013248Y010337D01*
X012835Y010337D01*
X012765Y010268D01*
X012765Y010232D01*
X011982Y011015D01*
X011851Y011015D01*
X011417Y011015D01*
X011351Y011015D01*
X011351Y011015D01*
X011314Y010977D01*
X011160Y010824D01*
X011122Y010786D01*
X011068Y010732D01*
X011068Y010732D01*
X010969Y010634D01*
X010877Y010541D01*
X010877Y010183D01*
X010842Y010217D01*
X010749Y010310D01*
X009693Y010310D01*
X009693Y010358D01*
X009623Y010428D01*
X009575Y010428D01*
X009575Y010972D01*
X009623Y010972D01*
X009693Y011042D01*
X009693Y011456D01*
X009623Y011525D01*
X009210Y011525D01*
X009140Y011456D01*
X009140Y011042D01*
X009210Y010972D01*
X009258Y010972D01*
X009258Y010428D01*
X009210Y010428D01*
X009140Y010358D01*
X009140Y009945D01*
X009210Y009875D01*
X009623Y009875D01*
X009693Y009945D01*
X009693Y009993D01*
X010618Y009993D01*
X010777Y009834D01*
X010624Y009834D01*
X010616Y009842D01*
X010580Y009863D01*
X010539Y009874D01*
X010458Y009874D01*
X010377Y009874D01*
X010337Y009863D01*
X010301Y009842D01*
X010292Y009834D01*
X010093Y009834D01*
X010023Y009764D01*
X010023Y009685D01*
X009965Y009685D01*
X009901Y009687D01*
X009899Y009685D01*
X009897Y009685D01*
X009852Y009641D01*
X009806Y009597D01*
X009806Y009595D01*
X009693Y009482D01*
X009693Y009768D01*
X009623Y009837D01*
X009210Y009837D01*
X009140Y009768D01*
X009140Y009354D01*
X009210Y009284D01*
X009258Y009284D01*
X009258Y008484D01*
X009258Y008353D01*
X009383Y008228D01*
X009476Y008136D01*
X009532Y008136D01*
X009532Y008087D01*
X009602Y008017D01*
X010015Y008017D01*
X010085Y008087D01*
X010085Y008106D01*
X010094Y008075D01*
X010114Y008039D01*
X010144Y008009D01*
X010180Y007988D01*
X010221Y007977D01*
X010379Y007977D01*
X010379Y008274D01*
X010085Y008274D01*
X010085Y008314D01*
X010379Y008314D01*
X010379Y008274D01*
X010419Y008274D01*
X010419Y007977D01*
X010578Y007977D01*
X010618Y007988D01*
X010654Y008009D01*
X010684Y008039D01*
X010705Y008075D01*
X010716Y008116D01*
X010716Y008274D01*
X010419Y008274D01*
X010419Y008314D01*
X010379Y008314D01*
X010379Y008477D01*
X010379Y008774D01*
X010085Y008774D01*
X010085Y008814D01*
X010379Y008814D01*
X010379Y008774D01*
X010419Y008774D01*
X010419Y008477D01*
X010419Y008314D01*
X010716Y008314D01*
X010716Y008472D01*
X010705Y008513D01*
X010687Y008544D01*
X010705Y008575D01*
X010716Y008616D01*
X010716Y008771D01*
X010821Y008666D01*
X010821Y008110D01*
X010821Y007978D01*
X011071Y007728D01*
X011164Y007636D01*
X011282Y007636D01*
X011282Y007587D01*
X011352Y007517D01*
X011765Y007517D01*
X011835Y007587D01*
X011835Y008001D01*
X011765Y008071D01*
X011352Y008071D01*
X011282Y008001D01*
X011282Y007965D01*
X011138Y008110D01*
X011138Y008666D01*
X011138Y008731D01*
X011138Y008797D01*
X011137Y008797D01*
X011087Y008848D01*
X011049Y008886D01*
X011170Y008886D01*
X011196Y008886D01*
X011196Y008484D01*
X011196Y008353D01*
X011383Y008166D01*
X011476Y008073D01*
X011851Y008073D01*
X011982Y008073D01*
X012045Y008136D01*
X012085Y008097D01*
X012498Y008097D01*
X012551Y008150D01*
X012569Y008118D01*
X012599Y008089D01*
X012635Y008068D01*
X012675Y008057D01*
X012834Y008057D01*
X012834Y008354D01*
X012568Y008354D01*
X012568Y008393D01*
X012834Y008393D01*
X012834Y008354D01*
X012874Y008354D01*
X012874Y008393D01*
X013170Y008393D01*
X013397Y008393D01*
X013397Y008354D01*
X013436Y008354D01*
X013436Y008057D01*
X013595Y008057D01*
X013635Y008068D01*
X013672Y008089D01*
X013701Y008118D01*
X013722Y008155D01*
X013733Y008195D01*
X013733Y008354D01*
X013436Y008354D01*
X013436Y008393D01*
X013733Y008393D01*
X013733Y008552D01*
X013722Y008592D01*
X013701Y008629D01*
X013672Y008658D01*
X013635Y008679D01*
X013604Y008688D01*
X013623Y008688D01*
X013693Y008757D01*
X013693Y009171D01*
X013623Y009241D01*
X013210Y009241D01*
X013140Y009171D01*
X013140Y009122D01*
X013130Y009122D01*
X013130Y009171D01*
X013061Y009241D01*
X012649Y009241D01*
X012685Y009276D01*
X012685Y009764D01*
X012615Y009834D01*
X012396Y009834D01*
X012378Y009815D01*
X012359Y009834D01*
X012140Y009834D01*
X012122Y009815D01*
X012103Y009834D01*
X011884Y009834D01*
X011882Y009832D01*
X011882Y009837D01*
X011986Y009941D01*
X011986Y010072D01*
X011986Y010295D01*
X012034Y010343D01*
X012072Y010433D01*
X012072Y010477D01*
X012646Y009903D01*
X012765Y009903D01*
X012765Y009854D01*
X012835Y009784D01*
X013248Y009784D01*
X013288Y009824D01*
X014546Y008565D01*
X014358Y008565D01*
X014317Y008554D01*
X014281Y008533D01*
X014251Y008504D01*
X014231Y008468D01*
X014220Y008427D01*
X014220Y008165D01*
X014620Y008165D01*
X014620Y008047D01*
X014738Y008047D01*
X014738Y008165D01*
X015138Y008165D01*
X015138Y008427D01*
X015127Y008468D01*
X015106Y008504D01*
X015099Y008510D01*
X015258Y008510D01*
X015251Y008504D01*
X015231Y008468D01*
X015220Y008427D01*
X015220Y008165D01*
X015620Y008165D01*
X015620Y008047D01*
X015738Y008047D01*
X015738Y008165D01*
X016138Y008165D01*
X016138Y008427D01*
X016127Y008468D01*
X016106Y008504D01*
X016099Y008510D01*
X016258Y008510D01*
X016251Y008504D01*
X016231Y008468D01*
X016220Y008427D01*
X016220Y008165D01*
X016620Y008165D01*
X016620Y008047D01*
X016738Y008047D01*
X016738Y008165D01*
X017138Y008165D01*
X017138Y008427D01*
X017127Y008468D01*
X017106Y008504D01*
X017099Y008510D01*
X017258Y008510D01*
X017251Y008504D01*
X017231Y008468D01*
X017220Y008427D01*
X017220Y008165D01*
X017620Y008165D01*
X017620Y008047D01*
X017738Y008047D01*
X017738Y008165D01*
X018138Y008165D01*
X018138Y008427D01*
X018127Y008468D01*
X018106Y008504D01*
X018099Y008510D01*
X019476Y008510D01*
X019871Y008116D01*
X019873Y007474D01*
X019851Y007452D01*
X019758Y007360D01*
X019758Y005547D01*
X019726Y005515D01*
X019473Y005515D01*
X019473Y005531D01*
X019403Y005600D01*
X019148Y005600D01*
X019148Y005706D01*
X019078Y005775D01*
X018379Y005775D01*
X018310Y005706D01*
X018310Y005007D01*
X018379Y004937D01*
X019078Y004937D01*
X019148Y005007D01*
X019148Y005112D01*
X019403Y005112D01*
X019473Y005182D01*
X019473Y005198D01*
X019857Y005198D01*
X019879Y005220D01*
X019888Y002515D01*
X019851Y002515D01*
X019851Y002606D01*
X019781Y002675D01*
X019052Y002675D01*
X018983Y002606D01*
X018983Y002107D01*
X018983Y002106D01*
X018983Y002106D01*
X018983Y002100D01*
X018680Y002100D01*
X018610Y002031D01*
X018610Y001682D01*
X018680Y001612D01*
X018983Y001612D01*
X018983Y001607D01*
X018983Y001606D01*
X018983Y001606D01*
X018983Y001107D01*
X019018Y001072D01*
X006201Y001072D01*
X006201Y002634D01*
X006131Y002704D01*
X004451Y002704D01*
X004382Y002634D01*
X004382Y001072D01*
X004285Y001080D01*
X004092Y001143D01*
X003928Y001262D01*
X003808Y001426D01*
X003748Y001610D01*
X003737Y005352D01*
X003737Y019817D01*
X003745Y019912D01*
X003804Y020094D01*
X003917Y020249D01*
X004072Y020362D01*
X004254Y020421D01*
X004349Y020429D01*
X004394Y020429D01*
X004415Y020429D01*
X019834Y020429D01*
X019843Y017444D01*
X019821Y017422D01*
X019821Y017422D01*
X019821Y017422D01*
X019821Y017355D01*
X019821Y011547D01*
X019821Y011416D01*
X019861Y011375D01*
X019861Y011265D01*
X019861Y011360D02*
X019846Y011360D01*
X019821Y011476D02*
X015298Y011476D01*
X015298Y011466D02*
X015298Y011997D01*
X015228Y012067D01*
X014854Y012067D01*
X014784Y011997D01*
X014784Y011466D01*
X014854Y011396D01*
X014883Y011396D01*
X014883Y011354D01*
X015071Y011166D01*
X015164Y011073D01*
X015538Y011073D01*
X015655Y010957D01*
X015490Y010957D01*
X015420Y010887D01*
X015420Y010395D01*
X015490Y010325D01*
X016218Y010325D01*
X016270Y010376D01*
X016287Y010346D01*
X016316Y010317D01*
X016353Y010296D01*
X016393Y010285D01*
X016690Y010285D01*
X016690Y010601D01*
X016769Y010601D01*
X016769Y010680D01*
X017130Y010680D01*
X017564Y010680D01*
X017564Y010601D01*
X017643Y010601D01*
X017643Y010285D01*
X017940Y010285D01*
X017980Y010296D01*
X018017Y010317D01*
X018046Y010346D01*
X018067Y010383D01*
X018078Y010423D01*
X018078Y010601D01*
X017644Y010601D01*
X017644Y010680D01*
X018078Y010680D01*
X018078Y010859D01*
X018067Y010899D01*
X018046Y010935D01*
X018017Y010965D01*
X017980Y010986D01*
X017940Y010997D01*
X017643Y010997D01*
X017643Y010680D01*
X017564Y010680D01*
X017564Y010997D01*
X017268Y010997D01*
X017228Y010986D01*
X017191Y010965D01*
X017166Y010940D01*
X017142Y010965D01*
X017105Y010986D01*
X017065Y010997D01*
X016769Y010997D01*
X016769Y010680D01*
X016690Y010680D01*
X016690Y010997D01*
X016393Y010997D01*
X016353Y010986D01*
X016316Y010965D01*
X016287Y010935D01*
X016270Y010905D01*
X016218Y010957D01*
X016012Y010957D01*
X016012Y011047D01*
X015920Y011140D01*
X015670Y011390D01*
X015538Y011390D01*
X015295Y011390D01*
X015259Y011426D01*
X015298Y011466D01*
X015298Y011593D02*
X015420Y011593D01*
X015420Y011576D02*
X015490Y011506D01*
X016218Y011506D01*
X016288Y011576D01*
X016288Y011664D01*
X016295Y011664D01*
X016295Y011576D01*
X016365Y011506D01*
X017093Y011506D01*
X017163Y011576D01*
X017163Y011644D01*
X017170Y011644D01*
X017170Y011576D01*
X017240Y011506D01*
X017968Y011506D01*
X018038Y011576D01*
X018038Y012068D01*
X018007Y012099D01*
X018040Y012108D01*
X018076Y012129D01*
X018106Y012159D01*
X018127Y012195D01*
X018138Y012236D01*
X018138Y012498D01*
X017738Y012498D01*
X017738Y012616D01*
X017620Y012616D01*
X017620Y013016D01*
X017358Y013016D01*
X017317Y013005D01*
X017281Y012984D01*
X017251Y012954D01*
X017231Y012918D01*
X017220Y012878D01*
X017220Y012616D01*
X017620Y012616D01*
X017620Y012498D01*
X017220Y012498D01*
X017220Y012236D01*
X017231Y012195D01*
X017251Y012159D01*
X017273Y012138D01*
X017240Y012138D01*
X017170Y012068D01*
X017170Y012000D01*
X017163Y012000D01*
X017163Y012068D01*
X017093Y012138D01*
X017085Y012138D01*
X017106Y012159D01*
X017127Y012195D01*
X017138Y012236D01*
X017138Y012498D01*
X016738Y012498D01*
X016738Y012616D01*
X016620Y012616D01*
X016620Y013016D01*
X016358Y013016D01*
X016317Y013005D01*
X016281Y012984D01*
X016251Y012954D01*
X016231Y012918D01*
X016220Y012878D01*
X016220Y012616D01*
X016620Y012616D01*
X016620Y012498D01*
X016220Y012498D01*
X016220Y012236D01*
X016231Y012195D01*
X016251Y012159D01*
X016281Y012129D01*
X016317Y012108D01*
X016332Y012105D01*
X016295Y012068D01*
X016295Y011980D01*
X016288Y011980D01*
X016288Y012068D01*
X016218Y012138D01*
X016028Y012138D01*
X016098Y012207D01*
X016098Y012906D01*
X016028Y012976D01*
X015329Y012976D01*
X015260Y012906D01*
X015260Y012207D01*
X015329Y012138D01*
X015489Y012138D01*
X015420Y012068D01*
X015420Y011576D01*
X015420Y011710D02*
X015298Y011710D01*
X015298Y011826D02*
X015420Y011826D01*
X015420Y011943D02*
X015298Y011943D01*
X015236Y012060D02*
X015420Y012060D01*
X015291Y012176D02*
X015116Y012176D01*
X015106Y012159D02*
X015127Y012195D01*
X015138Y012236D01*
X015138Y012498D01*
X014738Y012498D01*
X014738Y012616D01*
X014620Y012616D01*
X014620Y013016D01*
X014388Y013016D01*
X014388Y013198D01*
X013988Y013198D01*
X013988Y013316D01*
X013870Y013316D01*
X013870Y013716D01*
X013608Y013716D01*
X013567Y013705D01*
X013531Y013684D01*
X013501Y013654D01*
X013483Y013622D01*
X013483Y013739D01*
X013472Y013780D01*
X013451Y013816D01*
X013422Y013846D01*
X013385Y013867D01*
X013354Y013875D01*
X013373Y013875D01*
X013443Y013945D01*
X013443Y014358D01*
X013443Y014728D01*
X013373Y014798D01*
X012960Y014798D01*
X012890Y014728D01*
X012890Y014428D01*
X012657Y014428D01*
X012655Y014427D01*
X012505Y014427D01*
X012435Y014357D01*
X012435Y014206D01*
X012435Y014096D01*
X012435Y013944D01*
X012505Y013874D01*
X012919Y013874D01*
X012919Y013875D01*
X012960Y013875D01*
X012979Y013875D01*
X012948Y013867D01*
X012911Y013846D01*
X012882Y013816D01*
X012861Y013780D01*
X012850Y013739D01*
X012850Y013581D01*
X013147Y013581D01*
X013147Y013875D01*
X013186Y013875D01*
X013186Y013581D01*
X013147Y013581D01*
X013147Y013541D01*
X013186Y013541D01*
X013186Y013244D01*
X013345Y013244D01*
X013385Y013255D01*
X013422Y013276D01*
X013451Y013306D01*
X013470Y013338D01*
X013470Y013316D01*
X013870Y013316D01*
X013870Y013198D01*
X013470Y013198D01*
X013470Y012936D01*
X013481Y012895D01*
X013501Y012859D01*
X013531Y012829D01*
X013567Y012808D01*
X013608Y012798D01*
X013870Y012798D01*
X013870Y013197D01*
X013988Y013197D01*
X013988Y012798D01*
X014220Y012798D01*
X014220Y012616D01*
X014620Y012616D01*
X014620Y012498D01*
X014220Y012498D01*
X014220Y012236D01*
X014231Y012195D01*
X014251Y012159D01*
X014281Y012129D01*
X014317Y012108D01*
X014358Y012098D01*
X014620Y012098D01*
X014620Y012497D01*
X014738Y012497D01*
X014738Y012098D01*
X015000Y012098D01*
X015040Y012108D01*
X015076Y012129D01*
X015106Y012159D01*
X015138Y012293D02*
X015260Y012293D01*
X015260Y012409D02*
X015138Y012409D01*
X015260Y012526D02*
X014738Y012526D01*
X014738Y012616D02*
X015138Y012616D01*
X015138Y012878D01*
X015127Y012918D01*
X015106Y012954D01*
X015076Y012984D01*
X015040Y013005D01*
X015000Y013016D01*
X014738Y013016D01*
X014738Y012616D01*
X014738Y012643D02*
X014620Y012643D01*
X014620Y012759D02*
X014738Y012759D01*
X014738Y012876D02*
X014620Y012876D01*
X014620Y012993D02*
X014738Y012993D01*
X015061Y012993D02*
X016296Y012993D01*
X016220Y012876D02*
X016098Y012876D01*
X016098Y012759D02*
X016220Y012759D01*
X016220Y012643D02*
X016098Y012643D01*
X016098Y012526D02*
X016620Y012526D01*
X016620Y012497D02*
X016620Y012138D01*
X016738Y012138D01*
X016738Y012497D01*
X016620Y012497D01*
X016620Y012409D02*
X016738Y012409D01*
X016738Y012293D02*
X016620Y012293D01*
X016620Y012176D02*
X016738Y012176D01*
X017116Y012176D02*
X017241Y012176D01*
X017220Y012293D02*
X017138Y012293D01*
X017138Y012409D02*
X017220Y012409D01*
X017138Y012616D02*
X017138Y012878D01*
X017127Y012918D01*
X017106Y012954D01*
X017076Y012984D01*
X017040Y013005D01*
X017000Y013016D01*
X016738Y013016D01*
X016738Y012616D01*
X017138Y012616D01*
X017138Y012643D02*
X017220Y012643D01*
X017220Y012759D02*
X017138Y012759D01*
X017138Y012876D02*
X017220Y012876D01*
X017296Y012993D02*
X017061Y012993D01*
X016738Y012993D02*
X016620Y012993D01*
X016620Y012876D02*
X016738Y012876D01*
X016738Y012759D02*
X016620Y012759D01*
X016620Y012643D02*
X016738Y012643D01*
X016738Y012526D02*
X017620Y012526D01*
X017620Y012497D02*
X017620Y012138D01*
X017738Y012138D01*
X017738Y012497D01*
X017620Y012497D01*
X017620Y012409D02*
X017738Y012409D01*
X017738Y012293D02*
X017620Y012293D01*
X017620Y012176D02*
X017738Y012176D01*
X018038Y012060D02*
X019821Y012060D01*
X019821Y012176D02*
X018116Y012176D01*
X018138Y012293D02*
X019821Y012293D01*
X019821Y012409D02*
X018138Y012409D01*
X018138Y012616D02*
X017738Y012616D01*
X017738Y013016D01*
X018000Y013016D01*
X018040Y013005D01*
X018076Y012984D01*
X018106Y012954D01*
X018127Y012918D01*
X018138Y012878D01*
X018138Y012616D01*
X018138Y012643D02*
X019821Y012643D01*
X019821Y012759D02*
X018138Y012759D01*
X018138Y012876D02*
X019821Y012876D01*
X019821Y012993D02*
X018061Y012993D01*
X018301Y013209D02*
X018331Y013179D01*
X018367Y013158D01*
X018408Y013148D01*
X018670Y013148D01*
X018670Y013547D01*
X018788Y013547D01*
X018788Y013148D01*
X019050Y013148D01*
X019090Y013158D01*
X019126Y013179D01*
X019156Y013209D01*
X019177Y013245D01*
X019188Y013286D01*
X019188Y013548D01*
X018788Y013548D01*
X018788Y013666D01*
X018670Y013666D01*
X018670Y014066D01*
X018408Y014066D01*
X018367Y014055D01*
X018331Y014034D01*
X018301Y014004D01*
X018281Y013968D01*
X018270Y013928D01*
X018270Y013666D01*
X018670Y013666D01*
X018670Y013548D01*
X018270Y013548D01*
X018270Y013286D01*
X018281Y013245D01*
X018301Y013209D01*
X018292Y013226D02*
X013988Y013226D01*
X013988Y013316D02*
X014388Y013316D01*
X014388Y013578D01*
X014377Y013618D01*
X014356Y013654D01*
X014326Y013684D01*
X014290Y013705D01*
X014250Y013716D01*
X013988Y013716D01*
X013988Y013316D01*
X013988Y013343D02*
X013870Y013343D01*
X013870Y013459D02*
X013988Y013459D01*
X013988Y013576D02*
X013870Y013576D01*
X013870Y013693D02*
X013988Y013693D01*
X013988Y013798D02*
X014250Y013798D01*
X014290Y013808D01*
X014326Y013829D01*
X014356Y013859D01*
X014377Y013895D01*
X014388Y013936D01*
X014388Y014198D01*
X013988Y014198D01*
X013988Y014316D01*
X013870Y014316D01*
X013870Y014716D01*
X013608Y014716D01*
X013567Y014705D01*
X013531Y014684D01*
X013501Y014654D01*
X013481Y014618D01*
X013470Y014578D01*
X013470Y014316D01*
X013870Y014316D01*
X013870Y014198D01*
X013470Y014198D01*
X013470Y013936D01*
X013481Y013895D01*
X013501Y013859D01*
X013531Y013829D01*
X013567Y013808D01*
X013608Y013798D01*
X013870Y013798D01*
X013870Y014197D01*
X013988Y014197D01*
X013988Y013798D01*
X013988Y013809D02*
X013870Y013809D01*
X013870Y013926D02*
X013988Y013926D01*
X013988Y014043D02*
X013870Y014043D01*
X013870Y014159D02*
X013988Y014159D01*
X013988Y014276D02*
X018310Y014276D01*
X018310Y014257D02*
X018379Y014188D01*
X019078Y014188D01*
X019148Y014257D01*
X019148Y014363D01*
X019403Y014363D01*
X019473Y014432D01*
X019473Y014781D01*
X019403Y014851D01*
X019148Y014851D01*
X019148Y014956D01*
X019078Y015026D01*
X018379Y015026D01*
X018310Y014956D01*
X018310Y014257D01*
X018310Y014393D02*
X014388Y014393D01*
X014388Y014316D02*
X014388Y014578D01*
X014377Y014618D01*
X014356Y014654D01*
X014326Y014684D01*
X014290Y014705D01*
X014250Y014716D01*
X013988Y014716D01*
X013988Y014316D01*
X014388Y014316D01*
X014388Y014159D02*
X019821Y014159D01*
X019821Y014043D02*
X019111Y014043D01*
X019126Y014034D02*
X019090Y014055D01*
X019050Y014066D01*
X018788Y014066D01*
X018788Y013666D01*
X019188Y013666D01*
X019188Y013928D01*
X019177Y013968D01*
X019156Y014004D01*
X019126Y014034D01*
X019188Y013926D02*
X019821Y013926D01*
X019821Y013809D02*
X019188Y013809D01*
X019188Y013693D02*
X019821Y013693D01*
X019821Y013576D02*
X018788Y013576D01*
X018788Y013459D02*
X018670Y013459D01*
X018670Y013343D02*
X018788Y013343D01*
X018788Y013226D02*
X018670Y013226D01*
X018670Y013576D02*
X014388Y013576D01*
X014388Y013459D02*
X018270Y013459D01*
X018270Y013343D02*
X014388Y013343D01*
X014388Y013109D02*
X019821Y013109D01*
X019821Y013226D02*
X019166Y013226D01*
X019188Y013343D02*
X019821Y013343D01*
X019821Y013459D02*
X019188Y013459D01*
X018788Y013693D02*
X018670Y013693D01*
X018670Y013809D02*
X018788Y013809D01*
X018788Y013926D02*
X018670Y013926D01*
X018670Y014043D02*
X018788Y014043D01*
X019148Y014276D02*
X019821Y014276D01*
X019821Y014393D02*
X019433Y014393D01*
X019473Y014509D02*
X019821Y014509D01*
X019821Y014626D02*
X019473Y014626D01*
X019473Y014743D02*
X019821Y014743D01*
X019821Y014859D02*
X019148Y014859D01*
X019128Y014976D02*
X019821Y014976D01*
X019821Y015093D02*
X014348Y015093D01*
X014348Y015209D02*
X018301Y015209D01*
X018331Y015179D01*
X018367Y015158D01*
X018408Y015148D01*
X018670Y015148D01*
X018670Y015547D01*
X018788Y015547D01*
X018788Y015148D01*
X019050Y015148D01*
X019090Y015158D01*
X019126Y015179D01*
X019156Y015209D01*
X019177Y015245D01*
X019188Y015286D01*
X019188Y015548D01*
X018788Y015548D01*
X018788Y015666D01*
X018670Y015666D01*
X018670Y016066D01*
X018408Y016066D01*
X018367Y016055D01*
X018331Y016034D01*
X018301Y016004D01*
X018281Y015968D01*
X018270Y015928D01*
X018270Y015666D01*
X018670Y015666D01*
X018670Y015548D01*
X018270Y015548D01*
X018270Y015286D01*
X018281Y015245D01*
X018301Y015209D01*
X018270Y015326D02*
X014348Y015326D01*
X014348Y015442D02*
X018270Y015442D01*
X018270Y015676D02*
X011919Y015676D01*
X011917Y015675D02*
X011948Y015684D01*
X011984Y015705D01*
X012014Y015734D01*
X012035Y015770D01*
X012046Y015811D01*
X012046Y015970D01*
X011749Y015970D01*
X011749Y016009D01*
X012046Y016009D01*
X012046Y016168D01*
X012035Y016208D01*
X012014Y016244D01*
X011984Y016274D01*
X011948Y016295D01*
X011908Y016306D01*
X011749Y016306D01*
X011749Y016009D01*
X011709Y016009D01*
X011709Y015970D01*
X011413Y015970D01*
X011413Y015811D01*
X011423Y015770D01*
X011444Y015734D01*
X011474Y015705D01*
X011510Y015684D01*
X011542Y015675D01*
X011522Y015675D01*
X011518Y015671D01*
X011484Y015671D01*
X011480Y015675D01*
X011131Y015675D01*
X011061Y015606D01*
X011061Y015464D01*
X011060Y015463D01*
X011060Y015049D01*
X011061Y015048D01*
X011061Y014907D01*
X011131Y014837D01*
X011480Y014837D01*
X011485Y014843D01*
X011975Y014843D01*
X011980Y014837D01*
X012329Y014837D01*
X012399Y014907D01*
X012399Y015606D01*
X012329Y015675D01*
X011980Y015675D01*
X011976Y015671D01*
X011940Y015671D01*
X011936Y015675D01*
X011917Y015675D01*
X011749Y015675D02*
X011749Y015969D01*
X011709Y015969D01*
X011709Y015675D01*
X011749Y015675D01*
X011749Y015676D02*
X011709Y015676D01*
X011709Y015792D02*
X011749Y015792D01*
X011749Y015909D02*
X011709Y015909D01*
X011709Y016009D02*
X011413Y016009D01*
X011413Y016168D01*
X011423Y016208D01*
X011444Y016244D01*
X011474Y016274D01*
X011510Y016295D01*
X011551Y016306D01*
X011709Y016306D01*
X011709Y016009D01*
X011709Y016026D02*
X011749Y016026D01*
X011749Y016142D02*
X011709Y016142D01*
X011709Y016259D02*
X011749Y016259D01*
X011999Y016259D02*
X013870Y016259D01*
X013870Y016316D02*
X013870Y016198D01*
X013470Y016198D01*
X013470Y015936D01*
X013481Y015895D01*
X013501Y015859D01*
X013531Y015829D01*
X013567Y015808D01*
X013608Y015798D01*
X013870Y015798D01*
X013870Y016197D01*
X013988Y016197D01*
X013988Y015798D01*
X014250Y015798D01*
X014290Y015808D01*
X014326Y015829D01*
X014356Y015859D01*
X014377Y015895D01*
X014388Y015936D01*
X014388Y016198D01*
X013988Y016198D01*
X013988Y016316D01*
X013870Y016316D01*
X013870Y016716D01*
X013608Y016716D01*
X013567Y016705D01*
X013531Y016684D01*
X013501Y016654D01*
X013481Y016618D01*
X013470Y016578D01*
X013470Y016316D01*
X013870Y016316D01*
X013870Y016376D02*
X013988Y016376D01*
X013988Y016316D02*
X013988Y016716D01*
X014250Y016716D01*
X014290Y016705D01*
X014326Y016684D01*
X014356Y016654D01*
X014377Y016618D01*
X014388Y016578D01*
X014388Y016316D01*
X013988Y016316D01*
X013988Y016259D02*
X018277Y016259D01*
X018281Y016245D02*
X018301Y016209D01*
X018331Y016179D01*
X018367Y016158D01*
X018408Y016148D01*
X018670Y016148D01*
X018670Y016547D01*
X018788Y016547D01*
X018788Y016148D01*
X019050Y016148D01*
X019090Y016158D01*
X019126Y016179D01*
X019156Y016209D01*
X019177Y016245D01*
X019188Y016286D01*
X019188Y016548D01*
X018788Y016548D01*
X018788Y016666D01*
X018670Y016666D01*
X018670Y017066D01*
X018408Y017066D01*
X018367Y017055D01*
X018331Y017034D01*
X018301Y017004D01*
X018281Y016968D01*
X018270Y016928D01*
X018270Y016666D01*
X018670Y016666D01*
X018670Y016548D01*
X018270Y016548D01*
X018270Y016286D01*
X018281Y016245D01*
X018270Y016376D02*
X014388Y016376D01*
X014388Y016492D02*
X018270Y016492D01*
X018270Y016726D02*
X005556Y016726D01*
X005529Y016745D02*
X005449Y016786D01*
X005363Y016814D01*
X005274Y016828D01*
X004817Y016828D01*
X004817Y016257D01*
X004816Y016257D01*
X004816Y016828D01*
X004359Y016828D01*
X004270Y016814D01*
X004184Y016786D01*
X004104Y016745D01*
X004032Y016692D01*
X003968Y016629D01*
X003915Y016556D01*
X003874Y016476D01*
X003846Y016390D01*
X003832Y016301D01*
X003832Y016256D01*
X003832Y016211D01*
X003846Y016122D01*
X003874Y016037D01*
X003915Y015957D01*
X003968Y015884D01*
X004032Y015820D01*
X004104Y015767D01*
X004184Y015726D01*
X004270Y015699D01*
X004359Y015685D01*
X004816Y015685D01*
X004816Y016256D01*
X003832Y016256D01*
X004816Y016256D01*
X004816Y016256D01*
X004817Y016256D01*
X004817Y016256D01*
X005801Y016256D01*
X005801Y016211D01*
X005787Y016122D01*
X005759Y016037D01*
X005718Y015957D01*
X005665Y015884D01*
X005601Y015820D01*
X005529Y015767D01*
X005449Y015726D01*
X005363Y015699D01*
X005274Y015685D01*
X004817Y015685D01*
X004817Y016256D01*
X005801Y016256D01*
X005801Y016301D01*
X005787Y016390D01*
X005759Y016476D01*
X005718Y016556D01*
X005665Y016629D01*
X005601Y016692D01*
X005529Y016745D01*
X005679Y016609D02*
X013478Y016609D01*
X013470Y016492D02*
X005750Y016492D01*
X005789Y016376D02*
X013470Y016376D01*
X013470Y016142D02*
X012046Y016142D01*
X012046Y016026D02*
X013470Y016026D01*
X013477Y015909D02*
X012046Y015909D01*
X012041Y015792D02*
X018270Y015792D01*
X018270Y015909D02*
X014381Y015909D01*
X014388Y016026D02*
X018323Y016026D01*
X018670Y016026D02*
X018788Y016026D01*
X018788Y016066D02*
X018788Y015666D01*
X019188Y015666D01*
X019188Y015928D01*
X019177Y015968D01*
X019156Y016004D01*
X019126Y016034D01*
X019090Y016055D01*
X019050Y016066D01*
X018788Y016066D01*
X018788Y015909D02*
X018670Y015909D01*
X018670Y015792D02*
X018788Y015792D01*
X018788Y015676D02*
X018670Y015676D01*
X018670Y015559D02*
X014348Y015559D01*
X014348Y015606D02*
X014278Y015676D01*
X013579Y015676D01*
X013575Y015671D01*
X012854Y015671D01*
X012850Y015675D01*
X012502Y015675D01*
X012432Y015606D01*
X012432Y014907D01*
X012502Y014837D01*
X012850Y014837D01*
X012856Y014843D01*
X012953Y014843D01*
X012960Y014836D01*
X013373Y014836D01*
X013380Y014843D01*
X013574Y014843D01*
X013579Y014838D01*
X014278Y014838D01*
X014348Y014907D01*
X014348Y015606D01*
X013988Y015909D02*
X013870Y015909D01*
X013870Y016026D02*
X013988Y016026D01*
X013988Y016142D02*
X013870Y016142D01*
X013870Y016492D02*
X013988Y016492D01*
X013988Y016609D02*
X013870Y016609D01*
X014379Y016609D02*
X018670Y016609D01*
X018670Y016492D02*
X018788Y016492D01*
X018788Y016376D02*
X018670Y016376D01*
X018670Y016259D02*
X018788Y016259D01*
X018788Y016609D02*
X019821Y016609D01*
X019821Y016492D02*
X019188Y016492D01*
X019188Y016376D02*
X019821Y016376D01*
X019821Y016259D02*
X019181Y016259D01*
X019134Y016026D02*
X019821Y016026D01*
X019821Y016142D02*
X014388Y016142D01*
X014358Y016898D02*
X014317Y016908D01*
X014281Y016929D01*
X014251Y016959D01*
X003737Y016959D01*
X003737Y017076D02*
X014220Y017076D01*
X014220Y017036D02*
X014231Y016995D01*
X014251Y016959D01*
X014220Y017036D02*
X014220Y017298D01*
X014620Y017298D01*
X014620Y017416D01*
X014620Y017816D01*
X014358Y017816D01*
X014317Y017805D01*
X014281Y017784D01*
X014251Y017754D01*
X014231Y017718D01*
X014220Y017678D01*
X014220Y017416D01*
X014620Y017416D01*
X014738Y017416D01*
X014738Y017816D01*
X015000Y017816D01*
X015040Y017805D01*
X015076Y017784D01*
X015106Y017754D01*
X015127Y017718D01*
X015138Y017678D01*
X015138Y017416D01*
X014738Y017416D01*
X014738Y017298D01*
X015138Y017298D01*
X015138Y017036D01*
X015127Y016995D01*
X015106Y016959D01*
X015251Y016959D01*
X015281Y016929D01*
X015317Y016908D01*
X015358Y016898D01*
X015620Y016898D01*
X015620Y017297D01*
X015738Y017297D01*
X015738Y016898D01*
X016000Y016898D01*
X016040Y016908D01*
X016076Y016929D01*
X016106Y016959D01*
X016251Y016959D01*
X016281Y016929D01*
X016317Y016908D01*
X016358Y016898D01*
X016620Y016898D01*
X016620Y017297D01*
X016738Y017297D01*
X016738Y016898D01*
X017000Y016898D01*
X017040Y016908D01*
X017076Y016929D01*
X017106Y016959D01*
X017251Y016959D01*
X017281Y016929D01*
X017317Y016908D01*
X017358Y016898D01*
X017620Y016898D01*
X017620Y017297D01*
X017738Y017297D01*
X017738Y016898D01*
X018000Y016898D01*
X018040Y016908D01*
X018076Y016929D01*
X018106Y016959D01*
X018278Y016959D01*
X018270Y016842D02*
X003737Y016842D01*
X003737Y016726D02*
X004078Y016726D01*
X003954Y016609D02*
X003737Y016609D01*
X003737Y016492D02*
X003883Y016492D01*
X003844Y016376D02*
X003737Y016376D01*
X003737Y016259D02*
X003832Y016259D01*
X003843Y016142D02*
X003737Y016142D01*
X003737Y016026D02*
X003880Y016026D01*
X003950Y015909D02*
X003737Y015909D01*
X003737Y015792D02*
X004070Y015792D01*
X003942Y015675D02*
X003872Y015606D01*
X003872Y014907D01*
X003942Y014837D01*
X005691Y014837D01*
X005696Y014843D01*
X005787Y014843D01*
X005793Y014837D01*
X006141Y014837D01*
X006211Y014907D01*
X006211Y015606D01*
X006141Y015675D01*
X005793Y015675D01*
X005789Y015671D01*
X005695Y015671D01*
X005691Y015675D01*
X003942Y015675D01*
X003872Y015559D02*
X003737Y015559D01*
X003737Y015442D02*
X003872Y015442D01*
X003872Y015326D02*
X003737Y015326D01*
X003737Y015209D02*
X003872Y015209D01*
X003872Y015093D02*
X003737Y015093D01*
X003737Y014976D02*
X003872Y014976D01*
X003920Y014859D02*
X003737Y014859D01*
X003737Y014743D02*
X004101Y014743D01*
X004104Y014745D02*
X004032Y014692D01*
X003968Y014629D01*
X003915Y014556D01*
X003874Y014476D01*
X003846Y014390D01*
X003832Y014301D01*
X003832Y014256D01*
X003832Y014211D01*
X003846Y014122D01*
X003874Y014037D01*
X003915Y013957D01*
X003968Y013884D01*
X004032Y013820D01*
X004104Y013767D01*
X004184Y013726D01*
X004270Y013699D01*
X004359Y013685D01*
X004816Y013685D01*
X004816Y014256D01*
X003832Y014256D01*
X004816Y014256D01*
X004816Y014256D01*
X004817Y014256D01*
X004817Y014256D01*
X005801Y014256D01*
X005801Y014211D01*
X005787Y014122D01*
X005759Y014037D01*
X005718Y013957D01*
X005665Y013884D01*
X005601Y013820D01*
X005529Y013767D01*
X005449Y013726D01*
X005363Y013699D01*
X005274Y013685D01*
X004817Y013685D01*
X004817Y014256D01*
X005801Y014256D01*
X005801Y014301D01*
X005787Y014390D01*
X005759Y014476D01*
X005718Y014556D01*
X005665Y014629D01*
X005601Y014692D01*
X005529Y014745D01*
X005449Y014786D01*
X005363Y014814D01*
X005274Y014828D01*
X004817Y014828D01*
X004817Y014257D01*
X004816Y014257D01*
X004816Y014828D01*
X004359Y014828D01*
X004270Y014814D01*
X004184Y014786D01*
X004104Y014745D01*
X003966Y014626D02*
X003737Y014626D01*
X003737Y014509D02*
X003891Y014509D01*
X003847Y014393D02*
X003737Y014393D01*
X003737Y014276D02*
X003832Y014276D01*
X003841Y014159D02*
X003737Y014159D01*
X003737Y014043D02*
X003872Y014043D01*
X003937Y013926D02*
X003737Y013926D01*
X003737Y013809D02*
X004046Y013809D01*
X004308Y013693D02*
X003737Y013693D01*
X003737Y013576D02*
X006055Y013576D01*
X006055Y013501D02*
X006351Y013501D01*
X006351Y013462D01*
X006055Y013462D01*
X006055Y013303D01*
X006066Y013263D01*
X006086Y013226D01*
X006116Y013197D01*
X006152Y013176D01*
X006193Y013165D01*
X006351Y013165D01*
X006351Y013461D01*
X006391Y013461D01*
X006391Y013165D01*
X006550Y013165D01*
X006590Y013176D01*
X006626Y013197D01*
X006656Y013226D01*
X006734Y013226D01*
X006744Y013216D02*
X006744Y013060D01*
X006685Y013001D01*
X006685Y012982D01*
X006677Y013013D01*
X006656Y013049D01*
X006626Y013079D01*
X006590Y013100D01*
X006550Y013111D01*
X006391Y013111D01*
X006391Y012814D01*
X006351Y012814D01*
X006351Y012774D01*
X006055Y012774D01*
X006055Y012616D01*
X006066Y012575D01*
X006086Y012539D01*
X006116Y012509D01*
X006152Y012488D01*
X006193Y012477D01*
X006351Y012477D01*
X006351Y012774D01*
X006391Y012774D01*
X006391Y012477D01*
X006550Y012477D01*
X006590Y012488D01*
X006626Y012509D01*
X006656Y012539D01*
X006677Y012575D01*
X006685Y012606D01*
X006685Y012587D01*
X006744Y012528D01*
X006744Y012415D01*
X006698Y012415D01*
X006629Y012346D01*
X006629Y011617D01*
X006698Y011547D01*
X007191Y011547D01*
X007260Y011617D01*
X007260Y011764D01*
X007322Y011764D01*
X007322Y011617D01*
X007392Y011547D01*
X007884Y011547D01*
X007954Y011617D01*
X007954Y012346D01*
X007884Y012415D01*
X007392Y012415D01*
X007322Y012346D01*
X007322Y012199D01*
X007260Y012199D01*
X007260Y012346D01*
X007191Y012415D01*
X007179Y012415D01*
X007179Y012528D01*
X007238Y012587D01*
X007238Y013001D01*
X007179Y013060D01*
X007179Y013216D01*
X007238Y013275D01*
X007238Y013688D01*
X007197Y013730D01*
X007197Y014256D01*
X007256Y014315D01*
X007256Y014728D01*
X007186Y014798D01*
X007000Y014798D01*
X006979Y014819D01*
X006946Y014819D01*
X006916Y014832D01*
X006887Y014819D01*
X006855Y014819D01*
X006834Y014798D01*
X006772Y014798D01*
X006703Y014728D01*
X006703Y014315D01*
X006762Y014256D01*
X006762Y013758D01*
X006755Y013758D01*
X006685Y013688D01*
X006685Y013669D01*
X006677Y013700D01*
X006656Y013737D01*
X006626Y013766D01*
X006590Y013787D01*
X006550Y013798D01*
X006391Y013798D01*
X006391Y013501D01*
X006685Y013501D01*
X006685Y013462D01*
X006391Y013462D01*
X006391Y013501D01*
X006351Y013501D01*
X006351Y013798D01*
X006193Y013798D01*
X006152Y013787D01*
X006116Y013766D01*
X006086Y013737D01*
X006066Y013700D01*
X006055Y013660D01*
X006055Y013501D01*
X006055Y013459D02*
X003737Y013459D01*
X003737Y013343D02*
X006055Y013343D01*
X006087Y013226D02*
X003737Y013226D01*
X003737Y013109D02*
X006189Y013109D01*
X006193Y013111D02*
X006152Y013100D01*
X006116Y013079D01*
X006086Y013049D01*
X006066Y013013D01*
X006055Y012972D01*
X006055Y012814D01*
X006351Y012814D01*
X006351Y013111D01*
X006193Y013111D01*
X006351Y013109D02*
X006391Y013109D01*
X006391Y012993D02*
X006351Y012993D01*
X006351Y012876D02*
X006391Y012876D01*
X006391Y012814D02*
X006685Y012814D01*
X006685Y012774D01*
X006391Y012774D01*
X006391Y012814D01*
X006391Y012759D02*
X006351Y012759D01*
X006351Y012643D02*
X006391Y012643D01*
X006391Y012526D02*
X006351Y012526D01*
X006099Y012526D02*
X003737Y012526D01*
X003737Y012409D02*
X005455Y012409D01*
X005469Y012424D02*
X005439Y012394D01*
X005418Y012358D01*
X005407Y012317D01*
X005407Y012021D01*
X005724Y012021D01*
X005724Y012455D01*
X005546Y012455D01*
X005505Y012445D01*
X005469Y012424D01*
X005407Y012293D02*
X003737Y012293D01*
X003737Y012176D02*
X005407Y012176D01*
X005407Y012060D02*
X003737Y012060D01*
X003737Y011943D02*
X005724Y011943D01*
X005724Y011942D02*
X005407Y011942D01*
X005407Y011645D01*
X005418Y011605D01*
X005439Y011569D01*
X005469Y011539D01*
X005505Y011518D01*
X005546Y011507D01*
X005724Y011507D01*
X005724Y011942D01*
X005803Y011942D01*
X006110Y011942D01*
X006110Y012021D01*
X005803Y012021D01*
X005803Y011942D01*
X005803Y011507D01*
X005981Y011507D01*
X006022Y011518D01*
X006058Y011539D01*
X006087Y011569D01*
X006108Y011605D01*
X006119Y011645D01*
X006119Y011798D01*
X006180Y011737D01*
X006528Y011737D01*
X006598Y011807D01*
X006598Y012156D01*
X006528Y012225D01*
X006180Y012225D01*
X006119Y012165D01*
X006119Y012317D01*
X006108Y012358D01*
X006087Y012394D01*
X006058Y012424D01*
X006022Y012445D01*
X005981Y012455D01*
X005803Y012455D01*
X005803Y012021D01*
X005724Y012021D01*
X005724Y011942D01*
X005803Y011943D02*
X006110Y011943D01*
X006119Y012176D02*
X006130Y012176D01*
X006119Y012293D02*
X006629Y012293D01*
X006629Y012176D02*
X006577Y012176D01*
X006598Y012060D02*
X006629Y012060D01*
X006629Y011943D02*
X006598Y011943D01*
X006598Y011826D02*
X006629Y011826D01*
X006629Y011710D02*
X006119Y011710D01*
X006101Y011593D02*
X006653Y011593D01*
X007236Y011593D02*
X007346Y011593D01*
X007322Y011710D02*
X007260Y011710D01*
X007930Y011593D02*
X008528Y011593D01*
X008503Y011617D02*
X008573Y011547D01*
X009065Y011547D01*
X009135Y011617D01*
X009135Y012346D01*
X009098Y012383D01*
X009098Y012656D01*
X009028Y012725D01*
X008680Y012725D01*
X008610Y012656D01*
X008610Y012415D01*
X008573Y012415D01*
X008503Y012346D01*
X008503Y011617D01*
X008503Y011710D02*
X007954Y011710D01*
X007985Y011807D02*
X008054Y011737D01*
X008403Y011737D01*
X008473Y011807D01*
X008473Y012156D01*
X008403Y012225D01*
X008054Y012225D01*
X007985Y012156D01*
X007985Y011807D01*
X007985Y011826D02*
X007954Y011826D01*
X007954Y011943D02*
X007985Y011943D01*
X007985Y012060D02*
X007954Y012060D01*
X007954Y012176D02*
X008005Y012176D01*
X007954Y012293D02*
X008503Y012293D01*
X008503Y012176D02*
X008452Y012176D01*
X008473Y012060D02*
X008503Y012060D01*
X008503Y011943D02*
X008473Y011943D01*
X008473Y011826D02*
X008503Y011826D01*
X009135Y011826D02*
X009140Y011826D01*
X009135Y011710D02*
X009140Y011710D01*
X009111Y011593D02*
X009180Y011593D01*
X009161Y011476D02*
X003737Y011476D01*
X003737Y011360D02*
X009140Y011360D01*
X009140Y011243D02*
X003737Y011243D01*
X003737Y011126D02*
X009140Y011126D01*
X009172Y011010D02*
X003737Y011010D01*
X003737Y010893D02*
X009258Y010893D01*
X009258Y010776D02*
X003737Y010776D01*
X003737Y010660D02*
X009258Y010660D01*
X009258Y010543D02*
X003737Y010543D01*
X003737Y010426D02*
X009208Y010426D01*
X009140Y010310D02*
X003737Y010310D01*
X003737Y010193D02*
X009140Y010193D01*
X009140Y010076D02*
X003737Y010076D01*
X003737Y009960D02*
X009140Y009960D01*
X009140Y009726D02*
X003737Y009726D01*
X003737Y009610D02*
X005420Y009610D01*
X005418Y009608D02*
X005407Y009567D01*
X005407Y009271D01*
X005724Y009271D01*
X005724Y009705D01*
X005546Y009705D01*
X005505Y009695D01*
X005469Y009674D01*
X005439Y009644D01*
X005418Y009608D01*
X005407Y009493D02*
X003737Y009493D01*
X003737Y009376D02*
X005407Y009376D01*
X005407Y009192D02*
X005407Y008895D01*
X005418Y008855D01*
X005439Y008819D01*
X005469Y008789D01*
X005505Y008768D01*
X005546Y008757D01*
X005724Y008757D01*
X005724Y009192D01*
X005803Y009192D01*
X006110Y009192D01*
X006110Y009271D01*
X005803Y009271D01*
X005803Y009192D01*
X005803Y008757D01*
X005981Y008757D01*
X006022Y008768D01*
X006058Y008789D01*
X006087Y008819D01*
X006108Y008855D01*
X006119Y008895D01*
X006119Y009048D01*
X006180Y008987D01*
X006528Y008987D01*
X006598Y009057D01*
X006598Y009406D01*
X006528Y009475D01*
X006180Y009475D01*
X006119Y009415D01*
X006119Y009567D01*
X006108Y009608D01*
X006087Y009644D01*
X006058Y009674D01*
X006022Y009695D01*
X005981Y009705D01*
X005803Y009705D01*
X005803Y009271D01*
X005724Y009271D01*
X005724Y009192D01*
X005407Y009192D01*
X005407Y009143D02*
X003737Y009143D01*
X003737Y009027D02*
X005407Y009027D01*
X005407Y008910D02*
X003737Y008910D01*
X003737Y008793D02*
X005465Y008793D01*
X005724Y008793D02*
X005803Y008793D01*
X005803Y008910D02*
X005724Y008910D01*
X005724Y009027D02*
X005803Y009027D01*
X005803Y009143D02*
X005724Y009143D01*
X005724Y009260D02*
X003737Y009260D01*
X003737Y009843D02*
X010302Y009843D01*
X010458Y009843D02*
X010458Y009843D01*
X010458Y009874D02*
X010458Y009520D01*
X010458Y009520D01*
X010458Y009166D01*
X010377Y009166D01*
X010337Y009177D01*
X010301Y009198D01*
X010292Y009206D01*
X010093Y009206D01*
X010023Y009276D01*
X010023Y009364D01*
X009967Y009308D01*
X009967Y009071D01*
X010015Y009071D01*
X010085Y009001D01*
X010085Y008982D01*
X010094Y009013D01*
X010114Y009049D01*
X010144Y009079D01*
X010180Y009100D01*
X010221Y009111D01*
X010379Y009111D01*
X010379Y008814D01*
X010419Y008814D01*
X010419Y009111D01*
X010556Y009111D01*
X010556Y009170D01*
X010539Y009166D01*
X010458Y009166D01*
X010458Y009520D01*
X010458Y009520D01*
X010458Y009874D01*
X010458Y009726D02*
X010458Y009726D01*
X010458Y009610D02*
X010458Y009610D01*
X010458Y009493D02*
X010458Y009493D01*
X010458Y009376D02*
X010458Y009376D01*
X010458Y009260D02*
X010458Y009260D01*
X010556Y009143D02*
X009967Y009143D01*
X009967Y009260D02*
X010039Y009260D01*
X010059Y009027D02*
X010101Y009027D01*
X010085Y008793D02*
X010379Y008793D01*
X010419Y008793D02*
X010693Y008793D01*
X010712Y008774D02*
X010419Y008774D01*
X010419Y008814D01*
X010673Y008814D01*
X010712Y008774D01*
X010716Y008677D02*
X010810Y008677D01*
X010821Y008560D02*
X010696Y008560D01*
X010716Y008443D02*
X010821Y008443D01*
X010821Y008327D02*
X010716Y008327D01*
X010716Y008210D02*
X010821Y008210D01*
X010821Y008093D02*
X010710Y008093D01*
X010822Y007977D02*
X007200Y007977D01*
X007179Y007997D02*
X007179Y008153D01*
X007238Y008212D01*
X007238Y008626D01*
X007169Y008695D01*
X007162Y008695D01*
X007162Y008797D01*
X007191Y008797D01*
X007260Y008867D01*
X007260Y009014D01*
X007322Y009014D01*
X007322Y008867D01*
X007392Y008797D01*
X007884Y008797D01*
X007954Y008867D01*
X007954Y009596D01*
X007884Y009665D01*
X007392Y009665D01*
X007322Y009596D01*
X007322Y009449D01*
X007260Y009449D01*
X007260Y009596D01*
X007191Y009665D01*
X006698Y009665D01*
X006629Y009596D01*
X006629Y008867D01*
X006698Y008797D01*
X006727Y008797D01*
X006727Y008667D01*
X006685Y008626D01*
X006685Y008606D01*
X006677Y008638D01*
X006656Y008674D01*
X006626Y008704D01*
X006590Y008724D01*
X006550Y008735D01*
X006391Y008735D01*
X006391Y008439D01*
X006351Y008439D01*
X006351Y008735D01*
X006193Y008735D01*
X006152Y008724D01*
X006116Y008704D01*
X006086Y008674D01*
X006066Y008638D01*
X006055Y008597D01*
X006055Y008439D01*
X006351Y008439D01*
X006351Y008399D01*
X006055Y008399D01*
X006055Y008240D01*
X006066Y008200D01*
X006086Y008164D01*
X006116Y008134D01*
X006152Y008113D01*
X006193Y008102D01*
X006351Y008102D01*
X006351Y008399D01*
X006391Y008399D01*
X006391Y008102D01*
X006550Y008102D01*
X006590Y008113D01*
X006626Y008134D01*
X006656Y008164D01*
X006677Y008200D01*
X006685Y008231D01*
X006685Y008212D01*
X006744Y008153D01*
X006744Y007997D01*
X006685Y007938D01*
X006685Y007919D01*
X006677Y007950D01*
X006656Y007987D01*
X006626Y008016D01*
X006590Y008037D01*
X006550Y008048D01*
X006391Y008048D01*
X006391Y007751D01*
X006685Y007751D01*
X006685Y007712D01*
X006391Y007712D01*
X006391Y007751D01*
X006351Y007751D01*
X006351Y007712D01*
X006055Y007712D01*
X006055Y007553D01*
X006066Y007513D01*
X006086Y007476D01*
X006116Y007447D01*
X006152Y007426D01*
X006193Y007415D01*
X006351Y007415D01*
X006351Y007711D01*
X006391Y007711D01*
X006391Y007415D01*
X006550Y007415D01*
X006590Y007426D01*
X006626Y007447D01*
X006656Y007476D01*
X006677Y007513D01*
X006685Y007544D01*
X006685Y007525D01*
X006744Y007466D01*
X006744Y006984D01*
X006703Y006942D01*
X006703Y006529D01*
X006772Y006459D01*
X007186Y006459D01*
X007256Y006529D01*
X007256Y006942D01*
X007186Y007012D01*
X007179Y007012D01*
X007179Y007466D01*
X007238Y007525D01*
X007238Y007938D01*
X007179Y007997D01*
X007179Y008093D02*
X009532Y008093D01*
X009401Y008210D02*
X007236Y008210D01*
X007238Y008327D02*
X009285Y008327D01*
X009258Y008443D02*
X007238Y008443D01*
X007238Y008560D02*
X008610Y008560D01*
X008610Y008557D02*
X008680Y008487D01*
X009028Y008487D01*
X009098Y008557D01*
X009098Y008830D01*
X009135Y008867D01*
X009135Y009596D01*
X009065Y009665D01*
X008573Y009665D01*
X008503Y009596D01*
X008503Y008867D01*
X008573Y008797D01*
X008610Y008797D01*
X008610Y008557D01*
X008610Y008677D02*
X007187Y008677D01*
X007162Y008793D02*
X008610Y008793D01*
X008503Y008910D02*
X007954Y008910D01*
X007954Y009027D02*
X008503Y009027D01*
X008503Y009143D02*
X007954Y009143D01*
X007954Y009260D02*
X008503Y009260D01*
X008503Y009376D02*
X007954Y009376D01*
X007954Y009493D02*
X008503Y009493D01*
X008518Y009610D02*
X007940Y009610D01*
X007336Y009610D02*
X007246Y009610D01*
X007260Y009493D02*
X007322Y009493D01*
X006643Y009610D02*
X006107Y009610D01*
X006119Y009493D02*
X006629Y009493D01*
X006629Y009376D02*
X006598Y009376D01*
X006598Y009260D02*
X006629Y009260D01*
X006629Y009143D02*
X006598Y009143D01*
X006567Y009027D02*
X006629Y009027D01*
X006629Y008910D02*
X006119Y008910D01*
X006119Y009027D02*
X006140Y009027D01*
X006110Y009260D02*
X005803Y009260D01*
X005803Y009376D02*
X005724Y009376D01*
X005724Y009493D02*
X005803Y009493D01*
X005803Y009610D02*
X005724Y009610D01*
X006062Y008793D02*
X006727Y008793D01*
X006727Y008677D02*
X006653Y008677D01*
X006685Y008439D02*
X006391Y008439D01*
X006391Y008399D01*
X006685Y008399D01*
X006685Y008439D01*
X006680Y008210D02*
X006687Y008210D01*
X006744Y008093D02*
X003737Y008093D01*
X003737Y007977D02*
X006081Y007977D01*
X006086Y007987D02*
X006066Y007950D01*
X006055Y007910D01*
X006055Y007751D01*
X006351Y007751D01*
X006351Y008048D01*
X006193Y008048D01*
X006152Y008037D01*
X006116Y008016D01*
X006086Y007987D01*
X006055Y007860D02*
X003737Y007860D01*
X003737Y007743D02*
X006351Y007743D01*
X006391Y007743D02*
X006685Y007743D01*
X006675Y007510D02*
X006700Y007510D01*
X006744Y007393D02*
X005650Y007393D01*
X005665Y007379D02*
X005601Y007442D01*
X005529Y007495D01*
X005449Y007536D01*
X005363Y007564D01*
X005274Y007578D01*
X004817Y007578D01*
X004817Y007007D01*
X004816Y007007D01*
X004816Y007578D01*
X004359Y007578D01*
X004270Y007564D01*
X004184Y007536D01*
X004104Y007495D01*
X004032Y007442D01*
X003968Y007379D01*
X003915Y007306D01*
X003874Y007226D01*
X003846Y007140D01*
X003832Y007051D01*
X003832Y007006D01*
X003832Y006961D01*
X003846Y006872D01*
X003874Y006787D01*
X003915Y006707D01*
X003968Y006634D01*
X004032Y006570D01*
X004104Y006517D01*
X004184Y006476D01*
X004270Y006449D01*
X004359Y006435D01*
X004816Y006435D01*
X004816Y007006D01*
X003832Y007006D01*
X004816Y007006D01*
X004816Y007006D01*
X004817Y007006D01*
X004817Y007006D01*
X005801Y007006D01*
X005801Y006961D01*
X005787Y006872D01*
X005759Y006787D01*
X005718Y006707D01*
X005665Y006634D01*
X005601Y006570D01*
X005529Y006517D01*
X005449Y006476D01*
X005363Y006449D01*
X005274Y006435D01*
X004817Y006435D01*
X004817Y007006D01*
X005801Y007006D01*
X005801Y007051D01*
X005787Y007140D01*
X005759Y007226D01*
X005718Y007306D01*
X005665Y007379D01*
X005733Y007277D02*
X006744Y007277D01*
X006744Y007160D02*
X005780Y007160D01*
X005801Y007043D02*
X006744Y007043D01*
X006703Y006927D02*
X005795Y006927D01*
X005766Y006810D02*
X006703Y006810D01*
X006703Y006693D02*
X005708Y006693D01*
X005608Y006577D02*
X006703Y006577D01*
X006771Y006460D02*
X005398Y006460D01*
X005691Y006425D02*
X003942Y006425D01*
X003872Y006356D01*
X003872Y005657D01*
X003942Y005587D01*
X005691Y005587D01*
X005700Y005597D01*
X005783Y005597D01*
X005793Y005587D01*
X006141Y005587D01*
X006151Y005597D01*
X006163Y005597D01*
X006233Y005666D01*
X006233Y006354D01*
X006163Y006423D01*
X006143Y006423D01*
X006141Y006425D01*
X005793Y006425D01*
X005791Y006423D01*
X005693Y006423D01*
X005691Y006425D01*
X006233Y006344D02*
X006247Y006344D01*
X006247Y006356D02*
X006247Y005657D01*
X006316Y005587D01*
X006665Y005587D01*
X006674Y005597D01*
X007377Y005597D01*
X007387Y005587D01*
X007632Y005587D01*
X007632Y004949D01*
X008107Y004949D01*
X008107Y004831D01*
X007632Y004831D01*
X007632Y004169D01*
X007643Y004129D01*
X007664Y004092D01*
X007694Y004063D01*
X007730Y004042D01*
X007771Y004031D01*
X008108Y004031D01*
X008108Y004831D01*
X008225Y004831D01*
X008225Y004031D01*
X008562Y004031D01*
X008603Y004042D01*
X008639Y004063D01*
X008669Y004092D01*
X008690Y004129D01*
X008701Y004169D01*
X008701Y004831D01*
X008226Y004831D01*
X008226Y004949D01*
X008701Y004949D01*
X008701Y005587D01*
X008946Y005587D01*
X008956Y005597D01*
X009659Y005597D01*
X009668Y005587D01*
X010017Y005587D01*
X010086Y005657D01*
X010086Y006356D01*
X010017Y006425D01*
X009668Y006425D01*
X009666Y006423D01*
X009479Y006423D01*
X009510Y006432D01*
X009546Y006453D01*
X009576Y006482D01*
X009597Y006518D01*
X009608Y006559D01*
X009608Y006718D01*
X009311Y006718D01*
X009311Y006757D01*
X009272Y006757D01*
X009272Y007054D01*
X009113Y007054D01*
X009072Y007043D01*
X009036Y007022D01*
X009007Y006992D01*
X008986Y006956D01*
X008975Y006916D01*
X008975Y006757D01*
X009271Y006757D01*
X009271Y006718D01*
X008975Y006718D01*
X008975Y006559D01*
X008986Y006518D01*
X009007Y006482D01*
X009036Y006453D01*
X009072Y006432D01*
X009104Y006423D01*
X008948Y006423D01*
X008946Y006425D01*
X008568Y006425D01*
X008506Y006363D01*
X008505Y006368D01*
X008484Y006404D01*
X008454Y006433D01*
X008418Y006454D01*
X008377Y006465D01*
X008202Y006465D01*
X008202Y005978D01*
X008131Y005978D01*
X008131Y006465D01*
X007956Y006465D01*
X007915Y006454D01*
X007879Y006433D01*
X007849Y006404D01*
X007828Y006368D01*
X007827Y006363D01*
X007765Y006425D01*
X007387Y006425D01*
X007385Y006423D01*
X006667Y006423D01*
X006665Y006425D01*
X006316Y006425D01*
X006247Y006356D01*
X006233Y006227D02*
X006247Y006227D01*
X006233Y006110D02*
X006247Y006110D01*
X006233Y005994D02*
X006247Y005994D01*
X006233Y005877D02*
X006247Y005877D01*
X006233Y005760D02*
X006247Y005760D01*
X006260Y005644D02*
X006210Y005644D01*
X005718Y005306D02*
X005665Y005379D01*
X005601Y005442D01*
X005529Y005495D01*
X005449Y005536D01*
X005363Y005564D01*
X005274Y005578D01*
X004817Y005578D01*
X004817Y005007D01*
X004816Y005007D01*
X004816Y005578D01*
X004359Y005578D01*
X004270Y005564D01*
X004184Y005536D01*
X004104Y005495D01*
X004032Y005442D01*
X003968Y005379D01*
X003915Y005306D01*
X003874Y005226D01*
X003846Y005140D01*
X003832Y005051D01*
X003832Y005006D01*
X003832Y004961D01*
X003846Y004872D01*
X003874Y004787D01*
X003915Y004707D01*
X003968Y004634D01*
X004032Y004570D01*
X004104Y004517D01*
X004184Y004476D01*
X004270Y004449D01*
X004359Y004435D01*
X004816Y004435D01*
X004816Y005006D01*
X003832Y005006D01*
X004816Y005006D01*
X004816Y005006D01*
X004817Y005006D01*
X004817Y005006D01*
X005801Y005006D01*
X005801Y004961D01*
X005787Y004872D01*
X005759Y004787D01*
X005718Y004707D01*
X005665Y004634D01*
X005601Y004570D01*
X005529Y004517D01*
X005449Y004476D01*
X005363Y004449D01*
X005274Y004435D01*
X004817Y004435D01*
X004817Y005006D01*
X005801Y005006D01*
X005801Y005051D01*
X005787Y005140D01*
X005759Y005226D01*
X005718Y005306D01*
X005724Y005294D02*
X007632Y005294D01*
X007632Y005410D02*
X005633Y005410D01*
X005466Y005527D02*
X007632Y005527D01*
X007632Y005177D02*
X005775Y005177D01*
X005799Y005060D02*
X007632Y005060D01*
X007632Y004827D02*
X005772Y004827D01*
X005798Y004944D02*
X008107Y004944D01*
X008108Y004949D02*
X008108Y005351D01*
X008225Y005351D01*
X008225Y004949D01*
X008108Y004949D01*
X008108Y005060D02*
X008225Y005060D01*
X008226Y004944D02*
X013470Y004944D01*
X013470Y004947D02*
X013470Y004685D01*
X013481Y004645D01*
X013501Y004609D01*
X013531Y004579D01*
X013567Y004558D01*
X013608Y004547D01*
X013870Y004547D01*
X013870Y004947D01*
X013988Y004947D01*
X013988Y005065D01*
X014388Y005065D01*
X014388Y005327D01*
X014377Y005368D01*
X014356Y005404D01*
X014326Y005433D01*
X014290Y005454D01*
X014250Y005465D01*
X013988Y005465D01*
X013988Y005065D01*
X013870Y005065D01*
X013870Y005465D01*
X013608Y005465D01*
X013567Y005454D01*
X013531Y005433D01*
X013501Y005404D01*
X013481Y005368D01*
X013470Y005327D01*
X013470Y005065D01*
X013870Y005065D01*
X013870Y004947D01*
X013470Y004947D01*
X013470Y004827D02*
X008701Y004827D01*
X008701Y004710D02*
X013470Y004710D01*
X013516Y004594D02*
X008701Y004594D01*
X008701Y004477D02*
X018270Y004477D01*
X018270Y004415D02*
X018270Y004677D01*
X018281Y004718D01*
X018301Y004754D01*
X018331Y004783D01*
X018367Y004804D01*
X018408Y004815D01*
X018670Y004815D01*
X018670Y004415D01*
X018788Y004415D01*
X019188Y004415D01*
X019188Y004677D01*
X019177Y004718D01*
X019156Y004754D01*
X019126Y004783D01*
X019090Y004804D01*
X019050Y004815D01*
X018788Y004815D01*
X018788Y004415D01*
X018788Y004297D01*
X019188Y004297D01*
X019188Y004035D01*
X019177Y003995D01*
X019156Y003959D01*
X019126Y003929D01*
X019090Y003908D01*
X019050Y003897D01*
X018788Y003897D01*
X018788Y004297D01*
X018670Y004297D01*
X018670Y003897D01*
X018408Y003897D01*
X018367Y003908D01*
X018331Y003929D01*
X018301Y003959D01*
X018281Y003995D01*
X018270Y004035D01*
X018270Y004297D01*
X018670Y004297D01*
X018670Y004415D01*
X018270Y004415D01*
X018270Y004244D02*
X014388Y004244D01*
X014388Y004327D02*
X014377Y004368D01*
X014356Y004404D01*
X014326Y004433D01*
X014290Y004454D01*
X014250Y004465D01*
X013988Y004465D01*
X013988Y004065D01*
X014388Y004065D01*
X014388Y004327D01*
X014379Y004360D02*
X018670Y004360D01*
X018670Y004244D02*
X018788Y004244D01*
X018788Y004360D02*
X019882Y004360D01*
X019882Y004244D02*
X019188Y004244D01*
X019188Y004127D02*
X019883Y004127D01*
X019883Y004010D02*
X019181Y004010D01*
X018788Y004010D02*
X018670Y004010D01*
X018670Y004127D02*
X018788Y004127D01*
X018270Y004127D02*
X014388Y004127D01*
X014388Y003947D02*
X013988Y003947D01*
X013988Y004065D01*
X013870Y004065D01*
X013870Y004465D01*
X013608Y004465D01*
X013567Y004454D01*
X013531Y004433D01*
X013501Y004404D01*
X013481Y004368D01*
X013470Y004327D01*
X013470Y004065D01*
X013870Y004065D01*
X013870Y003947D01*
X013988Y003947D01*
X013988Y003547D01*
X014220Y003547D01*
X014220Y003365D01*
X014620Y003365D01*
X014620Y003765D01*
X014388Y003765D01*
X014388Y003947D01*
X014388Y003894D02*
X019883Y003894D01*
X019884Y003777D02*
X014388Y003777D01*
X014620Y003660D02*
X014738Y003660D01*
X014738Y003765D02*
X014738Y003365D01*
X015138Y003365D01*
X015138Y003627D01*
X015127Y003668D01*
X015106Y003704D01*
X015076Y003733D01*
X015040Y003754D01*
X015000Y003765D01*
X014738Y003765D01*
X014738Y003544D02*
X014620Y003544D01*
X014620Y003427D02*
X014738Y003427D01*
X014738Y003365D02*
X014620Y003365D01*
X014620Y003247D01*
X014738Y003247D01*
X014738Y003365D01*
X014738Y003311D02*
X015260Y003311D01*
X015260Y003427D02*
X015138Y003427D01*
X015138Y003544D02*
X015260Y003544D01*
X015260Y003656D02*
X015260Y002957D01*
X015329Y002887D01*
X015422Y002887D01*
X015422Y002682D01*
X015492Y002612D01*
X015841Y002612D01*
X015911Y002682D01*
X015911Y002887D01*
X016028Y002887D01*
X016098Y002957D01*
X016098Y003656D01*
X016028Y003725D01*
X015329Y003725D01*
X015260Y003656D01*
X015265Y003660D02*
X015129Y003660D01*
X015138Y003247D02*
X014738Y003247D01*
X014738Y002847D01*
X015000Y002847D01*
X015040Y002858D01*
X015076Y002879D01*
X015106Y002909D01*
X015127Y002945D01*
X015138Y002985D01*
X015138Y003247D01*
X015138Y003194D02*
X015260Y003194D01*
X015260Y003077D02*
X015138Y003077D01*
X015131Y002961D02*
X015260Y002961D01*
X015422Y002844D02*
X003745Y002844D01*
X003744Y002961D02*
X014226Y002961D01*
X014231Y002945D02*
X014251Y002909D01*
X014281Y002879D01*
X014317Y002858D01*
X014358Y002847D01*
X014620Y002847D01*
X014620Y003247D01*
X014220Y003247D01*
X014220Y002985D01*
X014231Y002945D01*
X014220Y003077D02*
X003744Y003077D01*
X003744Y003194D02*
X014220Y003194D01*
X014220Y003427D02*
X003743Y003427D01*
X003743Y003311D02*
X014620Y003311D01*
X014620Y003194D02*
X014738Y003194D01*
X014738Y003077D02*
X014620Y003077D01*
X014620Y002961D02*
X014738Y002961D01*
X015422Y002727D02*
X003745Y002727D01*
X003746Y002611D02*
X004382Y002611D01*
X004382Y002494D02*
X003746Y002494D01*
X003746Y002377D02*
X004382Y002377D01*
X004382Y002261D02*
X003747Y002261D01*
X003747Y002144D02*
X004382Y002144D01*
X004382Y002027D02*
X003747Y002027D01*
X003748Y001911D02*
X004382Y001911D01*
X004382Y001794D02*
X003748Y001794D01*
X003748Y001677D02*
X004382Y001677D01*
X004382Y001561D02*
X003765Y001561D01*
X003802Y001444D02*
X004382Y001444D01*
X004382Y001327D02*
X003880Y001327D01*
X003998Y001211D02*
X004382Y001211D01*
X004382Y001094D02*
X004242Y001094D01*
X006201Y001094D02*
X018995Y001094D01*
X018983Y001211D02*
X006201Y001211D01*
X006201Y001327D02*
X018983Y001327D01*
X018983Y001444D02*
X006201Y001444D01*
X006201Y001561D02*
X018983Y001561D01*
X018614Y001677D02*
X015868Y001677D01*
X015841Y001650D02*
X015911Y001720D01*
X015911Y002068D01*
X015841Y002138D01*
X015492Y002138D01*
X015422Y002068D01*
X015422Y001720D01*
X015492Y001650D01*
X015841Y001650D01*
X015911Y001794D02*
X018610Y001794D01*
X018610Y001911D02*
X015911Y001911D01*
X015911Y002027D02*
X018610Y002027D01*
X018983Y002144D02*
X006201Y002144D01*
X006201Y002261D02*
X018983Y002261D01*
X018983Y002377D02*
X006201Y002377D01*
X006201Y002494D02*
X018983Y002494D01*
X018988Y002611D02*
X006201Y002611D01*
X006201Y002027D02*
X015422Y002027D01*
X015422Y001911D02*
X006201Y001911D01*
X006201Y001794D02*
X015422Y001794D01*
X015465Y001677D02*
X006201Y001677D01*
X003743Y003544D02*
X014220Y003544D01*
X013988Y003660D02*
X013870Y003660D01*
X013870Y003547D02*
X013870Y003947D01*
X013470Y003947D01*
X013470Y003685D01*
X013481Y003645D01*
X013501Y003609D01*
X013531Y003579D01*
X013567Y003558D01*
X013608Y003547D01*
X013870Y003547D01*
X013870Y003777D02*
X013988Y003777D01*
X013988Y003894D02*
X013870Y003894D01*
X013870Y004010D02*
X003741Y004010D01*
X003742Y003894D02*
X013470Y003894D01*
X013470Y003777D02*
X003742Y003777D01*
X003742Y003660D02*
X013476Y003660D01*
X013470Y004127D02*
X008689Y004127D01*
X008701Y004244D02*
X013470Y004244D01*
X013479Y004360D02*
X008701Y004360D01*
X008225Y004360D02*
X008108Y004360D01*
X008108Y004244D02*
X008225Y004244D01*
X008225Y004127D02*
X008108Y004127D01*
X008108Y004477D02*
X008225Y004477D01*
X008225Y004594D02*
X008108Y004594D01*
X008108Y004710D02*
X008225Y004710D01*
X008225Y004827D02*
X008108Y004827D01*
X008108Y005177D02*
X008225Y005177D01*
X008225Y005294D02*
X008108Y005294D01*
X008701Y005294D02*
X011413Y005294D01*
X011413Y005292D02*
X011709Y005292D01*
X011709Y005253D01*
X011413Y005253D01*
X011413Y005094D01*
X011423Y005054D01*
X011444Y005018D01*
X011474Y004988D01*
X011510Y004967D01*
X011551Y004956D01*
X011709Y004956D01*
X011709Y005253D01*
X011749Y005253D01*
X011749Y005292D01*
X012046Y005292D01*
X012046Y005451D01*
X012035Y005492D01*
X012014Y005528D01*
X011984Y005557D01*
X011948Y005578D01*
X011917Y005587D01*
X011936Y005587D01*
X011940Y005591D01*
X011977Y005591D01*
X011980Y005587D01*
X012329Y005587D01*
X012399Y005657D01*
X012399Y006356D01*
X012329Y006425D01*
X011980Y006425D01*
X011974Y006419D01*
X011482Y006419D01*
X011476Y006425D01*
X011127Y006425D01*
X011057Y006356D01*
X011057Y005657D01*
X011127Y005587D01*
X011476Y005587D01*
X011479Y005591D01*
X011518Y005591D01*
X011522Y005587D01*
X011541Y005587D01*
X011510Y005578D01*
X011474Y005557D01*
X011444Y005528D01*
X011423Y005492D01*
X011413Y005451D01*
X011413Y005292D01*
X011413Y005177D02*
X008701Y005177D01*
X008701Y005060D02*
X011422Y005060D01*
X011709Y005060D02*
X011749Y005060D01*
X011749Y004956D02*
X011749Y005253D01*
X012046Y005253D01*
X012046Y005094D01*
X012035Y005054D01*
X012014Y005018D01*
X011984Y004988D01*
X011948Y004967D01*
X011908Y004956D01*
X011749Y004956D01*
X011749Y005177D02*
X011709Y005177D01*
X011709Y005293D02*
X011709Y005587D01*
X011749Y005587D01*
X011749Y005293D01*
X011709Y005293D01*
X011709Y005294D02*
X011749Y005294D01*
X011749Y005410D02*
X011709Y005410D01*
X011709Y005527D02*
X011749Y005527D01*
X012014Y005527D02*
X018310Y005527D01*
X018310Y005644D02*
X014334Y005644D01*
X014348Y005657D02*
X014348Y006356D01*
X014278Y006425D01*
X013579Y006425D01*
X013574Y006419D01*
X013377Y006419D01*
X013373Y006423D01*
X012960Y006423D01*
X012956Y006419D01*
X012856Y006419D01*
X012850Y006425D01*
X012502Y006425D01*
X012432Y006356D01*
X012432Y005657D01*
X012502Y005587D01*
X012850Y005587D01*
X012854Y005591D01*
X013576Y005591D01*
X013579Y005587D01*
X014278Y005587D01*
X014348Y005657D01*
X014348Y005760D02*
X018364Y005760D01*
X018408Y005897D02*
X018670Y005897D01*
X018670Y006297D01*
X018788Y006297D01*
X018788Y006415D01*
X019188Y006415D01*
X019188Y006677D01*
X019177Y006718D01*
X019156Y006754D01*
X019126Y006783D01*
X019090Y006804D01*
X019050Y006815D01*
X018788Y006815D01*
X018788Y006415D01*
X018670Y006415D01*
X018670Y006815D01*
X018408Y006815D01*
X018367Y006804D01*
X018331Y006783D01*
X018301Y006754D01*
X018281Y006718D01*
X018270Y006677D01*
X018270Y006415D01*
X018670Y006415D01*
X018670Y006297D01*
X018270Y006297D01*
X018270Y006035D01*
X018281Y005995D01*
X018301Y005959D01*
X018331Y005929D01*
X018367Y005908D01*
X018408Y005897D01*
X018281Y005994D02*
X014348Y005994D01*
X014348Y006110D02*
X018270Y006110D01*
X018270Y006227D02*
X014348Y006227D01*
X014348Y006344D02*
X018670Y006344D01*
X018670Y006460D02*
X018788Y006460D01*
X018788Y006344D02*
X019758Y006344D01*
X019758Y006460D02*
X019188Y006460D01*
X019188Y006577D02*
X019758Y006577D01*
X019758Y006693D02*
X019183Y006693D01*
X019069Y006810D02*
X019758Y006810D01*
X019758Y006927D02*
X019123Y006927D01*
X019126Y006929D02*
X019156Y006959D01*
X019177Y006995D01*
X019188Y007035D01*
X019188Y007297D01*
X018788Y007297D01*
X018788Y007415D01*
X019188Y007415D01*
X019188Y007677D01*
X019177Y007718D01*
X019156Y007754D01*
X019126Y007783D01*
X019090Y007804D01*
X019050Y007815D01*
X018788Y007815D01*
X018788Y007415D01*
X018670Y007415D01*
X018670Y007815D01*
X018408Y007815D01*
X018367Y007804D01*
X018331Y007783D01*
X018301Y007754D01*
X018281Y007718D01*
X018270Y007677D01*
X018270Y007415D01*
X018670Y007415D01*
X018670Y007297D01*
X018788Y007297D01*
X018788Y006897D01*
X019050Y006897D01*
X019090Y006908D01*
X019126Y006929D01*
X019188Y007043D02*
X019758Y007043D01*
X019758Y007160D02*
X019188Y007160D01*
X019188Y007277D02*
X019758Y007277D01*
X019792Y007393D02*
X018788Y007393D01*
X018788Y007277D02*
X018670Y007277D01*
X018670Y007297D02*
X018670Y006897D01*
X018408Y006897D01*
X018367Y006908D01*
X018331Y006929D01*
X018301Y006959D01*
X018281Y006995D01*
X018270Y007035D01*
X018270Y007297D01*
X018670Y007297D01*
X018670Y007393D02*
X014362Y007393D01*
X014356Y007404D02*
X014326Y007433D01*
X014290Y007454D01*
X014250Y007465D01*
X013988Y007465D01*
X013988Y007065D01*
X014388Y007065D01*
X014388Y007327D01*
X014377Y007368D01*
X014356Y007404D01*
X014388Y007277D02*
X018270Y007277D01*
X018270Y007160D02*
X014388Y007160D01*
X014388Y006947D02*
X013988Y006947D01*
X013988Y007065D01*
X013870Y007065D01*
X013870Y007465D01*
X013608Y007465D01*
X013567Y007454D01*
X013531Y007433D01*
X013501Y007404D01*
X013481Y007368D01*
X013470Y007327D01*
X013470Y007065D01*
X013870Y007065D01*
X013870Y006947D01*
X013988Y006947D01*
X013988Y006547D01*
X014250Y006547D01*
X014290Y006558D01*
X014326Y006579D01*
X014356Y006609D01*
X014377Y006645D01*
X014388Y006685D01*
X014388Y006947D01*
X014388Y006927D02*
X018335Y006927D01*
X018389Y006810D02*
X014388Y006810D01*
X014388Y006693D02*
X018274Y006693D01*
X018270Y006577D02*
X014323Y006577D01*
X013988Y006577D02*
X013870Y006577D01*
X013870Y006547D02*
X013870Y006947D01*
X013470Y006947D01*
X013470Y006685D01*
X013481Y006645D01*
X013501Y006609D01*
X013531Y006579D01*
X013567Y006558D01*
X013608Y006547D01*
X013870Y006547D01*
X013870Y006693D02*
X013988Y006693D01*
X013988Y006810D02*
X013870Y006810D01*
X013870Y006927D02*
X013988Y006927D01*
X013988Y007043D02*
X018270Y007043D01*
X018670Y007043D02*
X018788Y007043D01*
X018788Y006927D02*
X018670Y006927D01*
X018670Y006810D02*
X018788Y006810D01*
X018788Y006693D02*
X018670Y006693D01*
X018670Y006577D02*
X018788Y006577D01*
X018788Y006297D02*
X019188Y006297D01*
X019188Y006035D01*
X019177Y005995D01*
X019156Y005959D01*
X019126Y005929D01*
X019090Y005908D01*
X019050Y005897D01*
X018788Y005897D01*
X018788Y006297D01*
X018788Y006227D02*
X018670Y006227D01*
X018670Y006110D02*
X018788Y006110D01*
X018788Y005994D02*
X018670Y005994D01*
X019093Y005760D02*
X019758Y005760D01*
X019758Y005644D02*
X019148Y005644D01*
X019473Y005527D02*
X019738Y005527D01*
X019758Y005877D02*
X014348Y005877D01*
X014350Y005410D02*
X018310Y005410D01*
X018310Y005294D02*
X014388Y005294D01*
X014388Y005177D02*
X018310Y005177D01*
X018310Y005060D02*
X013988Y005060D01*
X013988Y004947D02*
X014388Y004947D01*
X014388Y004685D01*
X014377Y004645D01*
X014356Y004609D01*
X014326Y004579D01*
X014290Y004558D01*
X014250Y004547D01*
X013988Y004547D01*
X013988Y004947D01*
X013988Y004944D02*
X013870Y004944D01*
X013870Y005060D02*
X012036Y005060D01*
X012046Y005177D02*
X013470Y005177D01*
X013470Y005294D02*
X012046Y005294D01*
X012046Y005410D02*
X013508Y005410D01*
X013870Y005410D02*
X013988Y005410D01*
X013988Y005294D02*
X013870Y005294D01*
X013870Y005177D02*
X013988Y005177D01*
X013988Y004827D02*
X013870Y004827D01*
X013870Y004710D02*
X013988Y004710D01*
X013988Y004594D02*
X013870Y004594D01*
X013870Y004360D02*
X013988Y004360D01*
X013988Y004244D02*
X013870Y004244D01*
X013870Y004127D02*
X013988Y004127D01*
X013988Y004010D02*
X018276Y004010D01*
X018076Y003733D02*
X018040Y003754D01*
X018000Y003765D01*
X017738Y003765D01*
X017738Y003365D01*
X018138Y003365D01*
X018138Y003627D01*
X018127Y003668D01*
X018106Y003704D01*
X018076Y003733D01*
X018129Y003660D02*
X019884Y003660D01*
X019884Y003544D02*
X018138Y003544D01*
X018138Y003427D02*
X019885Y003427D01*
X019885Y003311D02*
X017738Y003311D01*
X017738Y003365D02*
X017738Y003247D01*
X018138Y003247D01*
X018138Y002985D01*
X018127Y002945D01*
X018106Y002909D01*
X018076Y002879D01*
X018040Y002858D01*
X018000Y002847D01*
X017738Y002847D01*
X017738Y003247D01*
X017620Y003247D01*
X017620Y002847D01*
X017358Y002847D01*
X017317Y002858D01*
X017281Y002879D01*
X017251Y002909D01*
X017231Y002945D01*
X017220Y002985D01*
X017220Y003247D01*
X017620Y003247D01*
X017620Y003365D01*
X017620Y003765D01*
X017358Y003765D01*
X017317Y003754D01*
X017281Y003733D01*
X017251Y003704D01*
X017231Y003668D01*
X017220Y003627D01*
X017220Y003365D01*
X017620Y003365D01*
X017738Y003365D01*
X017738Y003427D02*
X017620Y003427D01*
X017620Y003311D02*
X016738Y003311D01*
X016738Y003365D02*
X017138Y003365D01*
X017138Y003627D01*
X017127Y003668D01*
X017106Y003704D01*
X017076Y003733D01*
X017040Y003754D01*
X017000Y003765D01*
X016738Y003765D01*
X016738Y003365D01*
X016738Y003247D01*
X017138Y003247D01*
X017138Y002985D01*
X017127Y002945D01*
X017106Y002909D01*
X017076Y002879D01*
X017040Y002858D01*
X017000Y002847D01*
X016738Y002847D01*
X016738Y003247D01*
X016620Y003247D01*
X016620Y002847D01*
X016358Y002847D01*
X016317Y002858D01*
X016281Y002879D01*
X016251Y002909D01*
X016231Y002945D01*
X016220Y002985D01*
X016220Y003247D01*
X016620Y003247D01*
X016620Y003365D01*
X016620Y003765D01*
X016358Y003765D01*
X016317Y003754D01*
X016281Y003733D01*
X016251Y003704D01*
X016231Y003668D01*
X016220Y003627D01*
X016220Y003365D01*
X016620Y003365D01*
X016738Y003365D01*
X016738Y003427D02*
X016620Y003427D01*
X016620Y003311D02*
X016098Y003311D01*
X016098Y003427D02*
X016220Y003427D01*
X016220Y003544D02*
X016098Y003544D01*
X016093Y003660D02*
X016229Y003660D01*
X016620Y003660D02*
X016738Y003660D01*
X016738Y003544D02*
X016620Y003544D01*
X016620Y003194D02*
X016738Y003194D01*
X016738Y003077D02*
X016620Y003077D01*
X016620Y002961D02*
X016738Y002961D01*
X016226Y002961D02*
X016098Y002961D01*
X016098Y003077D02*
X016220Y003077D01*
X016220Y003194D02*
X016098Y003194D01*
X015911Y002844D02*
X019887Y002844D01*
X019886Y002961D02*
X018131Y002961D01*
X018138Y003077D02*
X019886Y003077D01*
X019885Y003194D02*
X018138Y003194D01*
X017738Y003194D02*
X017620Y003194D01*
X017620Y003077D02*
X017738Y003077D01*
X017738Y002961D02*
X017620Y002961D01*
X017226Y002961D02*
X017131Y002961D01*
X017138Y003077D02*
X017220Y003077D01*
X017220Y003194D02*
X017138Y003194D01*
X017138Y003427D02*
X017220Y003427D01*
X017220Y003544D02*
X017138Y003544D01*
X017129Y003660D02*
X017229Y003660D01*
X017620Y003660D02*
X017738Y003660D01*
X017738Y003544D02*
X017620Y003544D01*
X018270Y004594D02*
X014341Y004594D01*
X014388Y004710D02*
X018279Y004710D01*
X018373Y004944D02*
X014388Y004944D01*
X014388Y004827D02*
X019881Y004827D01*
X019880Y004944D02*
X019085Y004944D01*
X019148Y005060D02*
X019880Y005060D01*
X019880Y005177D02*
X019468Y005177D01*
X019179Y004710D02*
X019881Y004710D01*
X019881Y004594D02*
X019188Y004594D01*
X019188Y004477D02*
X019882Y004477D01*
X018788Y004477D02*
X018670Y004477D01*
X018670Y004594D02*
X018788Y004594D01*
X018788Y004710D02*
X018670Y004710D01*
X019176Y005994D02*
X019758Y005994D01*
X019758Y006110D02*
X019188Y006110D01*
X019188Y006227D02*
X019758Y006227D01*
X018788Y007160D02*
X018670Y007160D01*
X018670Y007510D02*
X018788Y007510D01*
X018788Y007627D02*
X018670Y007627D01*
X018670Y007743D02*
X018788Y007743D01*
X019162Y007743D02*
X019872Y007743D01*
X019872Y007627D02*
X019188Y007627D01*
X019188Y007510D02*
X019873Y007510D01*
X019872Y007860D02*
X018138Y007860D01*
X018138Y007785D02*
X018138Y008047D01*
X017738Y008047D01*
X017738Y007647D01*
X018000Y007647D01*
X018040Y007658D01*
X018076Y007679D01*
X018106Y007709D01*
X018127Y007745D01*
X018138Y007785D01*
X018126Y007743D02*
X018295Y007743D01*
X018270Y007627D02*
X013483Y007627D01*
X013483Y007598D02*
X013483Y007757D01*
X013186Y007757D01*
X013186Y007463D01*
X013147Y007463D01*
X013147Y007757D01*
X013186Y007757D01*
X013186Y007796D01*
X013483Y007796D01*
X013483Y007955D01*
X013472Y007996D01*
X013451Y008032D01*
X013422Y008061D01*
X013397Y008076D01*
X013397Y008354D01*
X013170Y008354D01*
X012874Y008354D01*
X012874Y008057D01*
X012907Y008057D01*
X012882Y008032D01*
X012861Y007996D01*
X012850Y007955D01*
X012850Y007796D01*
X013147Y007796D01*
X013147Y007757D01*
X012850Y007757D01*
X012850Y007598D01*
X012861Y007558D01*
X012882Y007522D01*
X012911Y007492D01*
X012948Y007471D01*
X012979Y007463D01*
X012972Y007463D01*
X012736Y007463D01*
X012568Y007463D01*
X012498Y007393D01*
X012498Y006979D01*
X012568Y006910D01*
X012736Y006910D01*
X012890Y006910D01*
X012890Y006682D01*
X012890Y006531D01*
X012960Y006461D01*
X013111Y006461D01*
X013222Y006461D01*
X013373Y006461D01*
X013443Y006531D01*
X013443Y006682D01*
X013443Y007131D01*
X013443Y007241D01*
X013443Y007393D01*
X013373Y007463D01*
X013354Y007463D01*
X013385Y007471D01*
X013422Y007492D01*
X013451Y007522D01*
X013472Y007558D01*
X013483Y007598D01*
X013440Y007510D02*
X018270Y007510D01*
X018138Y007977D02*
X019871Y007977D01*
X019871Y008093D02*
X017738Y008093D01*
X017738Y008165D02*
X017738Y008510D01*
X017620Y008510D01*
X017620Y008165D01*
X017738Y008165D01*
X017738Y008210D02*
X017620Y008210D01*
X017620Y008327D02*
X017738Y008327D01*
X017738Y008443D02*
X017620Y008443D01*
X017224Y008443D02*
X017133Y008443D01*
X017138Y008327D02*
X017220Y008327D01*
X017220Y008210D02*
X017138Y008210D01*
X017138Y008047D02*
X016738Y008047D01*
X016738Y007647D01*
X017000Y007647D01*
X017040Y007658D01*
X017076Y007679D01*
X017106Y007709D01*
X017127Y007745D01*
X017138Y007785D01*
X017138Y008047D01*
X017138Y007977D02*
X017220Y007977D01*
X017220Y008047D02*
X017220Y007785D01*
X017231Y007745D01*
X017251Y007709D01*
X017281Y007679D01*
X017317Y007658D01*
X017358Y007647D01*
X017620Y007647D01*
X017620Y008047D01*
X017220Y008047D01*
X017220Y007860D02*
X017138Y007860D01*
X017126Y007743D02*
X017231Y007743D01*
X017620Y007743D02*
X017738Y007743D01*
X017738Y007860D02*
X017620Y007860D01*
X017620Y007977D02*
X017738Y007977D01*
X017620Y008093D02*
X016738Y008093D01*
X016738Y007977D02*
X016620Y007977D01*
X016620Y008047D02*
X016620Y007647D01*
X016358Y007647D01*
X016317Y007658D01*
X016281Y007679D01*
X016251Y007709D01*
X016231Y007745D01*
X016220Y007785D01*
X016220Y008047D01*
X016620Y008047D01*
X016620Y008093D02*
X015738Y008093D01*
X015738Y008047D02*
X016138Y008047D01*
X016138Y007785D01*
X016127Y007745D01*
X016106Y007709D01*
X016076Y007679D01*
X016040Y007658D01*
X016000Y007647D01*
X015738Y007647D01*
X015738Y008047D01*
X015738Y007977D02*
X015620Y007977D01*
X015620Y008047D02*
X015620Y007647D01*
X015358Y007647D01*
X015317Y007658D01*
X015281Y007679D01*
X015251Y007709D01*
X015231Y007745D01*
X015220Y007785D01*
X015220Y008047D01*
X015620Y008047D01*
X015620Y008093D02*
X014738Y008093D01*
X014738Y008047D02*
X015138Y008047D01*
X015138Y007785D01*
X015127Y007745D01*
X015106Y007709D01*
X015076Y007679D01*
X015040Y007658D01*
X015000Y007647D01*
X014738Y007647D01*
X014738Y008047D01*
X014738Y007977D02*
X014620Y007977D01*
X014620Y008047D02*
X014620Y007647D01*
X014358Y007647D01*
X014317Y007658D01*
X014281Y007679D01*
X014251Y007709D01*
X014231Y007745D01*
X014220Y007785D01*
X014220Y008047D01*
X014620Y008047D01*
X014620Y008093D02*
X013676Y008093D01*
X013733Y008210D02*
X014220Y008210D01*
X014220Y008327D02*
X013733Y008327D01*
X013733Y008443D02*
X014224Y008443D01*
X014338Y008560D02*
X013731Y008560D01*
X013640Y008677D02*
X014435Y008677D01*
X014318Y008793D02*
X013693Y008793D01*
X013693Y008910D02*
X014201Y008910D01*
X014085Y009027D02*
X013693Y009027D01*
X013693Y009143D02*
X013968Y009143D01*
X013851Y009260D02*
X012669Y009260D01*
X012685Y009376D02*
X013735Y009376D01*
X013618Y009493D02*
X012685Y009493D01*
X012685Y009610D02*
X013502Y009610D01*
X013385Y009726D02*
X012685Y009726D01*
X012776Y009843D02*
X011888Y009843D01*
X011986Y009960D02*
X012589Y009960D01*
X012472Y010076D02*
X011986Y010076D01*
X011986Y010193D02*
X012356Y010193D01*
X012239Y010310D02*
X012001Y010310D01*
X012069Y010426D02*
X012122Y010426D01*
X012337Y010660D02*
X012765Y010660D01*
X012765Y010776D02*
X012220Y010776D01*
X012104Y010893D02*
X012800Y010893D01*
X012765Y010543D02*
X012454Y010543D01*
X012570Y010426D02*
X012783Y010426D01*
X012807Y010310D02*
X012687Y010310D01*
X013276Y010310D02*
X013321Y010310D01*
X013321Y010229D02*
X013321Y010228D01*
X013756Y010426D02*
X013821Y010426D01*
X013808Y010310D02*
X013821Y010310D01*
X013821Y010543D02*
X013756Y010543D01*
X013756Y010660D02*
X013821Y010660D01*
X013821Y010776D02*
X013756Y010776D01*
X013693Y010893D02*
X013821Y010893D01*
X014058Y011126D02*
X015110Y011126D01*
X014994Y011243D02*
X013941Y011243D01*
X013825Y011360D02*
X014883Y011360D01*
X014784Y011476D02*
X014548Y011476D01*
X014548Y011466D02*
X014548Y011997D01*
X014478Y012067D01*
X014104Y012067D01*
X014034Y011997D01*
X014034Y011466D01*
X014104Y011396D01*
X014478Y011396D01*
X014548Y011466D01*
X014548Y011593D02*
X014784Y011593D01*
X014784Y011710D02*
X014548Y011710D01*
X014548Y011826D02*
X014784Y011826D01*
X014784Y011943D02*
X014548Y011943D01*
X014485Y012060D02*
X014847Y012060D01*
X014738Y012176D02*
X014620Y012176D01*
X014620Y012293D02*
X014738Y012293D01*
X014738Y012409D02*
X014620Y012409D01*
X014620Y012526D02*
X011638Y012526D01*
X011638Y012409D02*
X014220Y012409D01*
X014220Y012293D02*
X013773Y012293D01*
X013785Y012281D02*
X013716Y012350D01*
X013367Y012350D01*
X013297Y012281D01*
X013297Y011932D01*
X013367Y011862D01*
X013716Y011862D01*
X013785Y011932D01*
X013785Y012281D01*
X013785Y012176D02*
X014241Y012176D01*
X014096Y012060D02*
X013785Y012060D01*
X013785Y011943D02*
X014034Y011943D01*
X014034Y011826D02*
X012685Y011826D01*
X012685Y011710D02*
X014034Y011710D01*
X014034Y011593D02*
X012685Y011593D01*
X012374Y011476D02*
X013258Y011476D01*
X013700Y011476D02*
X014034Y011476D01*
X014656Y011010D02*
X014676Y011010D01*
X014676Y010893D02*
X014656Y010893D01*
X014656Y010776D02*
X014676Y010776D01*
X014676Y010721D02*
X014656Y010721D01*
X014656Y010356D01*
X014507Y010356D01*
X014467Y010367D01*
X014450Y010377D01*
X014450Y010110D01*
X014834Y009725D01*
X015028Y009725D01*
X015098Y009656D01*
X015098Y009640D01*
X019269Y009640D01*
X019318Y009688D01*
X019407Y009725D01*
X019504Y009725D01*
X019594Y009688D01*
X019663Y009620D01*
X019700Y009530D01*
X019700Y009433D01*
X019663Y009343D01*
X019624Y009304D01*
X019792Y009304D01*
X019821Y009332D01*
X019821Y009827D01*
X019781Y009787D01*
X019052Y009787D01*
X018983Y009857D01*
X018983Y010356D01*
X018983Y010356D01*
X018983Y010357D01*
X018983Y010448D01*
X018607Y010448D01*
X018107Y009948D01*
X017976Y009948D01*
X015357Y009948D01*
X015357Y009948D01*
X015292Y009948D01*
X015226Y009948D01*
X015226Y009948D01*
X015226Y009948D01*
X015157Y010016D01*
X015133Y010041D01*
X015133Y010041D01*
X014928Y010246D01*
X014883Y010291D01*
X014883Y010291D01*
X014882Y010291D01*
X014883Y010358D01*
X014883Y010377D01*
X014865Y010367D01*
X014825Y010356D01*
X014676Y010356D01*
X014676Y010721D01*
X014676Y010660D02*
X014656Y010660D01*
X014656Y010543D02*
X014676Y010543D01*
X014676Y010426D02*
X014656Y010426D01*
X014450Y010310D02*
X014883Y010310D01*
X014981Y010193D02*
X014450Y010193D01*
X014483Y010076D02*
X015097Y010076D01*
X015214Y009960D02*
X014600Y009960D01*
X014716Y009843D02*
X018996Y009843D01*
X018983Y009960D02*
X018119Y009960D01*
X018236Y010076D02*
X018983Y010076D01*
X018983Y010193D02*
X018352Y010193D01*
X018469Y010310D02*
X018983Y010310D01*
X018983Y010426D02*
X018586Y010426D01*
X018371Y010660D02*
X017644Y010660D01*
X017564Y010660D02*
X016769Y010660D01*
X016769Y010601D02*
X017130Y010601D01*
X017564Y010601D01*
X017564Y010285D01*
X017268Y010285D01*
X017228Y010296D01*
X017191Y010317D01*
X017166Y010342D01*
X017142Y010317D01*
X017105Y010296D01*
X017065Y010285D01*
X016769Y010285D01*
X016769Y010601D01*
X016769Y010543D02*
X016690Y010543D01*
X016689Y010601D02*
X016288Y010601D01*
X016288Y010680D01*
X016689Y010680D01*
X016689Y010601D01*
X016689Y010660D02*
X016288Y010660D01*
X016329Y010310D02*
X015312Y010310D01*
X015259Y010426D02*
X015420Y010426D01*
X015420Y010543D02*
X015298Y010543D01*
X015298Y010660D02*
X015420Y010660D01*
X015420Y010776D02*
X015298Y010776D01*
X015298Y010893D02*
X015426Y010893D01*
X015285Y011010D02*
X015602Y011010D01*
X015816Y011243D02*
X018983Y011243D01*
X018987Y011360D02*
X015700Y011360D01*
X015933Y011126D02*
X018983Y011126D01*
X018983Y011010D02*
X016012Y011010D01*
X016288Y011593D02*
X016295Y011593D01*
X016729Y011822D02*
X017604Y011822D01*
X018038Y011826D02*
X019821Y011826D01*
X019821Y011710D02*
X018038Y011710D01*
X018038Y011593D02*
X019821Y011593D01*
X019821Y011943D02*
X018038Y011943D01*
X017170Y012060D02*
X017163Y012060D01*
X017163Y011593D02*
X017170Y011593D01*
X017564Y010893D02*
X017643Y010893D01*
X017643Y010776D02*
X017564Y010776D01*
X017564Y010543D02*
X017643Y010543D01*
X017643Y010426D02*
X017564Y010426D01*
X017564Y010310D02*
X017643Y010310D01*
X018004Y010310D02*
X018021Y010310D01*
X018078Y010426D02*
X018137Y010426D01*
X018078Y010543D02*
X018254Y010543D01*
X018078Y010776D02*
X018983Y010776D01*
X018983Y010893D02*
X018069Y010893D01*
X017203Y010310D02*
X017130Y010310D01*
X016769Y010310D02*
X016690Y010310D01*
X016690Y010426D02*
X016769Y010426D01*
X016769Y010776D02*
X016690Y010776D01*
X016690Y010893D02*
X016769Y010893D01*
X015679Y011822D02*
X015679Y012556D01*
X015260Y012643D02*
X015138Y012643D01*
X015138Y012759D02*
X015260Y012759D01*
X015260Y012876D02*
X015138Y012876D01*
X014220Y012759D02*
X011638Y012759D01*
X011638Y012643D02*
X014220Y012643D01*
X013988Y012876D02*
X013870Y012876D01*
X013870Y012993D02*
X013988Y012993D01*
X013988Y013109D02*
X013870Y013109D01*
X013870Y013226D02*
X011638Y013226D01*
X011638Y013109D02*
X013470Y013109D01*
X013470Y012993D02*
X011638Y012993D01*
X011638Y012876D02*
X013492Y012876D01*
X013147Y013244D02*
X013147Y013541D01*
X012850Y013541D01*
X012850Y013382D01*
X012861Y013342D01*
X012882Y013306D01*
X012911Y013276D01*
X012948Y013255D01*
X012988Y013244D01*
X013147Y013244D01*
X013147Y013343D02*
X013186Y013343D01*
X013186Y013459D02*
X013147Y013459D01*
X013186Y013541D02*
X013186Y013581D01*
X013471Y013581D01*
X013470Y013578D01*
X013470Y013541D01*
X013186Y013541D01*
X013186Y013576D02*
X013470Y013576D01*
X013483Y013693D02*
X013546Y013693D01*
X013566Y013809D02*
X013455Y013809D01*
X013472Y013926D02*
X013424Y013926D01*
X013443Y014043D02*
X013470Y014043D01*
X013470Y014159D02*
X013443Y014159D01*
X013443Y014276D02*
X013870Y014276D01*
X013870Y014393D02*
X013988Y014393D01*
X013988Y014509D02*
X013870Y014509D01*
X013870Y014626D02*
X013988Y014626D01*
X014372Y014626D02*
X018310Y014626D01*
X018310Y014743D02*
X013429Y014743D01*
X013443Y014626D02*
X013485Y014626D01*
X013470Y014509D02*
X013443Y014509D01*
X013443Y014393D02*
X013470Y014393D01*
X012890Y014509D02*
X008701Y014509D01*
X008701Y014393D02*
X010204Y014393D01*
X010211Y014406D02*
X010190Y014370D01*
X010180Y014329D01*
X010180Y014170D01*
X010476Y014170D01*
X010476Y014131D01*
X010516Y014131D01*
X010516Y014170D01*
X010810Y014170D01*
X010810Y014131D01*
X010516Y014131D01*
X010516Y013834D01*
X010674Y013834D01*
X010715Y013845D01*
X010751Y013866D01*
X010781Y013896D01*
X010802Y013932D01*
X010810Y013963D01*
X010810Y013944D01*
X010880Y013874D01*
X011293Y013874D01*
X011294Y013875D01*
X011422Y013875D01*
X011424Y013874D01*
X012176Y013874D01*
X012328Y013874D01*
X012398Y013944D01*
X012398Y014096D01*
X012398Y014206D01*
X012398Y014357D01*
X012328Y014427D01*
X012176Y014427D01*
X011687Y014427D01*
X011686Y014428D01*
X011534Y014428D01*
X011032Y014428D01*
X011030Y014427D01*
X010880Y014427D01*
X010810Y014357D01*
X010810Y014338D01*
X010802Y014370D01*
X010781Y014406D01*
X010751Y014435D01*
X010715Y014456D01*
X010674Y014467D01*
X010516Y014467D01*
X010516Y014171D01*
X010476Y014171D01*
X010476Y014467D01*
X010318Y014467D01*
X010277Y014456D01*
X010241Y014435D01*
X010211Y014406D01*
X010180Y014276D02*
X008701Y014276D01*
X008701Y014199D02*
X008226Y014199D01*
X008226Y014081D01*
X008701Y014081D01*
X008701Y013419D01*
X008690Y013379D01*
X008669Y013342D01*
X008639Y013313D01*
X008603Y013292D01*
X008562Y013281D01*
X008225Y013281D01*
X008225Y014081D01*
X008108Y014081D01*
X008108Y013281D01*
X007771Y013281D01*
X007730Y013292D01*
X007694Y013313D01*
X007664Y013342D01*
X007643Y013379D01*
X007632Y013419D01*
X007632Y014081D01*
X008107Y014081D01*
X008107Y014199D01*
X007632Y014199D01*
X007632Y014837D01*
X007387Y014837D01*
X007381Y014843D01*
X007193Y014843D01*
X007186Y014836D01*
X006772Y014836D01*
X006765Y014843D01*
X006672Y014843D01*
X006667Y014837D01*
X006318Y014837D01*
X006249Y014907D01*
X006249Y015048D01*
X006247Y015049D01*
X006247Y015463D01*
X006249Y015464D01*
X006249Y015606D01*
X006318Y015675D01*
X006667Y015675D01*
X006671Y015671D01*
X007383Y015671D01*
X007387Y015675D01*
X007765Y015675D01*
X007827Y015613D01*
X007828Y015618D01*
X007849Y015654D01*
X007879Y015683D01*
X007915Y015704D01*
X007956Y015715D01*
X008131Y015715D01*
X008131Y015228D01*
X008202Y015228D01*
X008202Y015715D01*
X008377Y015715D01*
X008418Y015704D01*
X008454Y015683D01*
X008484Y015654D01*
X008505Y015618D01*
X008506Y015613D01*
X008568Y015675D01*
X008946Y015675D01*
X008950Y015671D01*
X009081Y015671D01*
X009085Y015675D01*
X009104Y015675D01*
X009072Y015684D01*
X009036Y015705D01*
X009007Y015734D01*
X008986Y015770D01*
X008975Y015811D01*
X008975Y015970D01*
X009271Y015970D01*
X009271Y016009D01*
X008975Y016009D01*
X008975Y016168D01*
X008986Y016208D01*
X009007Y016244D01*
X009036Y016274D01*
X009072Y016295D01*
X009113Y016306D01*
X009272Y016306D01*
X009272Y016009D01*
X009311Y016009D01*
X009311Y016306D01*
X009470Y016306D01*
X009510Y016295D01*
X009546Y016274D01*
X009576Y016244D01*
X009597Y016208D01*
X009608Y016168D01*
X009608Y016009D01*
X009311Y016009D01*
X009311Y015970D01*
X009608Y015970D01*
X009608Y015811D01*
X009597Y015770D01*
X009576Y015734D01*
X009546Y015705D01*
X009510Y015684D01*
X009479Y015675D01*
X009498Y015675D01*
X009502Y015671D01*
X009664Y015671D01*
X009668Y015675D01*
X010017Y015675D01*
X010086Y015606D01*
X010086Y014907D01*
X010017Y014837D01*
X009668Y014837D01*
X009663Y014843D01*
X008952Y014843D01*
X008946Y014837D01*
X008701Y014837D01*
X008701Y014199D01*
X008701Y014043D02*
X010180Y014043D01*
X010476Y014043D02*
X010516Y014043D01*
X010516Y014159D02*
X010810Y014159D01*
X010798Y013926D02*
X010828Y013926D01*
X010516Y013926D02*
X010476Y013926D01*
X010437Y013809D02*
X011244Y013809D01*
X011203Y013693D02*
X010554Y013693D01*
X010671Y013576D02*
X011203Y013576D01*
X011203Y013459D02*
X010787Y013459D01*
X010904Y013343D02*
X011214Y013343D01*
X011321Y013226D02*
X011021Y013226D01*
X011137Y013109D02*
X011321Y013109D01*
X011321Y012993D02*
X011254Y012993D01*
X011744Y013343D02*
X012861Y013343D01*
X012850Y013459D02*
X011756Y013459D01*
X011756Y013576D02*
X013147Y013576D01*
X013147Y013693D02*
X013186Y013693D01*
X013186Y013809D02*
X013147Y013809D01*
X012878Y013809D02*
X011714Y013809D01*
X011756Y013693D02*
X012850Y013693D01*
X012453Y013926D02*
X012380Y013926D01*
X012398Y014043D02*
X012435Y014043D01*
X012435Y014159D02*
X012398Y014159D01*
X012398Y014276D02*
X012435Y014276D01*
X012470Y014393D02*
X012363Y014393D01*
X012890Y014626D02*
X008701Y014626D01*
X008701Y014743D02*
X012904Y014743D01*
X012480Y014859D02*
X012351Y014859D01*
X012399Y014976D02*
X012432Y014976D01*
X012432Y015093D02*
X012399Y015093D01*
X012399Y015209D02*
X012432Y015209D01*
X012432Y015326D02*
X012399Y015326D01*
X012399Y015442D02*
X012432Y015442D01*
X012432Y015559D02*
X012399Y015559D01*
X011539Y015676D02*
X009481Y015676D01*
X009603Y015792D02*
X011418Y015792D01*
X011413Y015909D02*
X009608Y015909D01*
X009608Y016026D02*
X011413Y016026D01*
X011413Y016142D02*
X009608Y016142D01*
X009561Y016259D02*
X011459Y016259D01*
X010954Y015675D02*
X010605Y015675D01*
X010601Y015671D01*
X010545Y015671D01*
X010541Y015675D01*
X010192Y015675D01*
X010123Y015606D01*
X010123Y015463D01*
X010123Y015049D01*
X010123Y014907D01*
X010192Y014837D01*
X010541Y014837D01*
X010546Y014843D01*
X010600Y014843D01*
X010605Y014837D01*
X010954Y014837D01*
X011024Y014907D01*
X011024Y015606D01*
X010954Y015675D01*
X011024Y015559D02*
X011061Y015559D01*
X011060Y015442D02*
X011024Y015442D01*
X011024Y015326D02*
X011060Y015326D01*
X011060Y015209D02*
X011024Y015209D01*
X011024Y015093D02*
X011060Y015093D01*
X011061Y014976D02*
X011024Y014976D01*
X010976Y014859D02*
X011109Y014859D01*
X010845Y014393D02*
X010788Y014393D01*
X010516Y014393D02*
X010476Y014393D01*
X010476Y014276D02*
X010516Y014276D01*
X010476Y014159D02*
X008226Y014159D01*
X008225Y014199D02*
X008108Y014199D01*
X008108Y014603D01*
X008225Y014603D01*
X008225Y014199D01*
X008225Y014276D02*
X008108Y014276D01*
X008108Y014393D02*
X008225Y014393D01*
X008225Y014509D02*
X008108Y014509D01*
X008107Y014159D02*
X007197Y014159D01*
X007197Y014043D02*
X007632Y014043D01*
X007632Y013926D02*
X007197Y013926D01*
X007197Y013809D02*
X007632Y013809D01*
X007632Y013693D02*
X007234Y013693D01*
X007238Y013576D02*
X007632Y013576D01*
X007632Y013459D02*
X007238Y013459D01*
X007238Y013343D02*
X007664Y013343D01*
X007190Y013226D02*
X009180Y013226D01*
X009180Y013109D02*
X007179Y013109D01*
X007238Y012993D02*
X009180Y012993D01*
X009187Y012876D02*
X007238Y012876D01*
X007238Y012759D02*
X009180Y012759D01*
X009180Y012643D02*
X009098Y012643D01*
X009098Y012526D02*
X009180Y012526D01*
X009215Y012409D02*
X009098Y012409D01*
X009135Y012293D02*
X009879Y012293D01*
X009863Y012409D02*
X009777Y012409D01*
X009762Y012176D02*
X009135Y012176D01*
X009135Y012060D02*
X009153Y012060D01*
X009140Y011943D02*
X009135Y011943D01*
X009744Y011710D02*
X010023Y011710D01*
X010023Y011826D02*
X009860Y011826D01*
X009977Y011943D02*
X010023Y011943D01*
X010023Y011593D02*
X009653Y011593D01*
X009672Y011476D02*
X009941Y011476D01*
X009867Y011360D02*
X009693Y011360D01*
X009693Y011243D02*
X009861Y011243D01*
X009926Y011126D02*
X009693Y011126D01*
X009661Y011010D02*
X010503Y011010D01*
X010378Y011126D02*
X010281Y011126D01*
X010347Y011243D02*
X010353Y011243D01*
X010652Y011476D02*
X011613Y011476D01*
X011738Y011476D02*
X011738Y011476D01*
X011738Y011464D02*
X011738Y011817D01*
X011738Y011817D01*
X011738Y011464D01*
X011738Y011593D02*
X011738Y011593D01*
X011738Y011710D02*
X011738Y011710D01*
X011738Y011826D02*
X011738Y011826D01*
X011738Y011943D02*
X011738Y011943D01*
X011738Y012060D02*
X011738Y012060D01*
X011638Y012176D02*
X013297Y012176D01*
X013297Y012060D02*
X012685Y012060D01*
X012685Y011943D02*
X013297Y011943D01*
X013310Y012293D02*
X011638Y012293D01*
X012249Y012060D02*
X012250Y012060D01*
X012249Y011943D02*
X012250Y011943D01*
X012249Y011826D02*
X012250Y011826D01*
X012249Y011710D02*
X012250Y011710D01*
X012249Y011593D02*
X012250Y011593D01*
X012249Y011476D02*
X012250Y011476D01*
X011931Y011243D02*
X010841Y011243D01*
X010816Y011126D02*
X012048Y011126D01*
X011987Y011010D02*
X013203Y011010D01*
X011835Y011360D02*
X010810Y011360D01*
X010691Y011010D02*
X011346Y011010D01*
X011351Y011015D02*
X011351Y011015D01*
X011229Y010893D02*
X009575Y010893D01*
X009575Y010776D02*
X011112Y010776D01*
X011160Y010824D02*
X011160Y010824D01*
X010996Y010660D02*
X009575Y010660D01*
X009575Y010543D02*
X010879Y010543D01*
X010877Y010426D02*
X009625Y010426D01*
X009693Y009960D02*
X010652Y009960D01*
X010615Y009843D02*
X010768Y009843D01*
X010866Y010193D02*
X010877Y010193D01*
X010877Y010310D02*
X010750Y010310D01*
X010023Y009726D02*
X009693Y009726D01*
X009693Y009610D02*
X009819Y009610D01*
X009704Y009493D02*
X009693Y009493D01*
X009258Y009260D02*
X009135Y009260D01*
X009135Y009376D02*
X009140Y009376D01*
X009135Y009493D02*
X009140Y009493D01*
X009140Y009610D02*
X009121Y009610D01*
X009135Y009143D02*
X009258Y009143D01*
X009258Y009027D02*
X009135Y009027D01*
X009135Y008910D02*
X009258Y008910D01*
X009258Y008793D02*
X009098Y008793D01*
X009098Y008677D02*
X009258Y008677D01*
X009258Y008560D02*
X009098Y008560D01*
X010085Y008093D02*
X010089Y008093D01*
X010379Y008093D02*
X010419Y008093D01*
X010419Y008210D02*
X010379Y008210D01*
X010379Y008327D02*
X010419Y008327D01*
X010419Y008443D02*
X010379Y008443D01*
X010379Y008560D02*
X010419Y008560D01*
X010419Y008677D02*
X010379Y008677D01*
X010379Y008910D02*
X010419Y008910D01*
X010419Y009027D02*
X010379Y009027D01*
X011137Y008797D02*
X011137Y008797D01*
X011138Y008793D02*
X011196Y008793D01*
X011196Y008677D02*
X011138Y008677D01*
X011138Y008666D02*
X011138Y008666D01*
X011138Y008560D02*
X011196Y008560D01*
X011196Y008443D02*
X011138Y008443D01*
X011138Y008327D02*
X011222Y008327D01*
X011138Y008210D02*
X011339Y008210D01*
X011455Y008093D02*
X011154Y008093D01*
X011270Y007977D02*
X011282Y007977D01*
X011056Y007743D02*
X007238Y007743D01*
X007238Y007627D02*
X011282Y007627D01*
X011204Y007503D02*
X011204Y007206D01*
X011498Y007206D01*
X011498Y007166D01*
X011204Y007166D01*
X011204Y007206D01*
X011164Y007206D01*
X011164Y007503D01*
X011005Y007503D01*
X010965Y007492D01*
X010929Y007471D01*
X010899Y007441D01*
X010878Y007405D01*
X010867Y007365D01*
X010867Y007206D01*
X011164Y007206D01*
X011164Y007166D01*
X011204Y007166D01*
X011204Y006870D01*
X011362Y006870D01*
X011403Y006880D01*
X011439Y006901D01*
X011469Y006931D01*
X011490Y006967D01*
X011498Y006999D01*
X011498Y006979D01*
X011568Y006910D01*
X011981Y006910D01*
X012391Y006910D01*
X012460Y006979D01*
X012460Y007393D01*
X012401Y007452D01*
X012401Y007563D01*
X012426Y007587D01*
X012426Y008001D01*
X012356Y008071D01*
X011942Y008071D01*
X011873Y008001D01*
X011873Y007587D01*
X011942Y007517D01*
X011966Y007517D01*
X011966Y007463D01*
X011568Y007463D01*
X011498Y007393D01*
X011498Y007374D01*
X011490Y007405D01*
X011469Y007441D01*
X011439Y007471D01*
X011403Y007492D01*
X011362Y007503D01*
X011204Y007503D01*
X011204Y007393D02*
X011164Y007393D01*
X011164Y007277D02*
X011204Y007277D01*
X011204Y007160D02*
X011164Y007160D01*
X011164Y007166D02*
X011164Y006870D01*
X011005Y006870D01*
X010965Y006880D01*
X010929Y006901D01*
X010899Y006931D01*
X010878Y006967D01*
X010867Y007008D01*
X010867Y007166D01*
X011164Y007166D01*
X011164Y007043D02*
X011204Y007043D01*
X011204Y006927D02*
X011164Y006927D01*
X010903Y006927D02*
X009605Y006927D01*
X009608Y006916D02*
X009597Y006956D01*
X009576Y006992D01*
X009546Y007022D01*
X009510Y007043D01*
X009470Y007054D01*
X009311Y007054D01*
X009311Y006757D01*
X009608Y006757D01*
X009608Y006916D01*
X009608Y006810D02*
X012890Y006810D01*
X012890Y006693D02*
X009608Y006693D01*
X009608Y006577D02*
X012890Y006577D01*
X012432Y006344D02*
X012399Y006344D01*
X012399Y006227D02*
X012432Y006227D01*
X012432Y006110D02*
X012399Y006110D01*
X012399Y005994D02*
X012432Y005994D01*
X012432Y005877D02*
X012399Y005877D01*
X012399Y005760D02*
X012432Y005760D01*
X012445Y005644D02*
X012385Y005644D01*
X011444Y005527D02*
X008701Y005527D01*
X008701Y005410D02*
X011413Y005410D01*
X011071Y005644D02*
X011010Y005644D01*
X011024Y005657D02*
X011024Y006356D01*
X010954Y006425D01*
X010605Y006425D01*
X010600Y006419D01*
X010545Y006419D01*
X010539Y006425D01*
X010190Y006425D01*
X010121Y006356D01*
X010121Y005657D01*
X010190Y005587D01*
X010539Y005587D01*
X010543Y005591D01*
X010602Y005591D01*
X010605Y005587D01*
X010954Y005587D01*
X011024Y005657D01*
X011024Y005760D02*
X011057Y005760D01*
X011057Y005877D02*
X011024Y005877D01*
X011024Y005994D02*
X011057Y005994D01*
X011057Y006110D02*
X011024Y006110D01*
X011024Y006227D02*
X011057Y006227D01*
X011057Y006344D02*
X011024Y006344D01*
X011464Y006927D02*
X011550Y006927D01*
X011498Y007393D02*
X011493Y007393D01*
X011835Y007627D02*
X011873Y007627D01*
X011873Y007743D02*
X011835Y007743D01*
X011835Y007860D02*
X011873Y007860D01*
X011873Y007977D02*
X011835Y007977D01*
X012002Y008093D02*
X012594Y008093D01*
X012426Y007977D02*
X012856Y007977D01*
X012850Y007860D02*
X012426Y007860D01*
X012426Y007743D02*
X012850Y007743D01*
X012850Y007627D02*
X012426Y007627D01*
X012401Y007510D02*
X012893Y007510D01*
X013147Y007510D02*
X013186Y007510D01*
X013186Y007627D02*
X013147Y007627D01*
X013147Y007743D02*
X013186Y007743D01*
X013186Y007797D02*
X013147Y007797D01*
X013147Y008093D01*
X013113Y008093D01*
X013135Y008115D01*
X013161Y008089D01*
X013186Y008074D01*
X013186Y007797D01*
X013186Y007860D02*
X013147Y007860D01*
X013147Y007977D02*
X013186Y007977D01*
X013157Y008093D02*
X013114Y008093D01*
X012874Y008093D02*
X012834Y008093D01*
X012834Y008210D02*
X012874Y008210D01*
X012874Y008327D02*
X012834Y008327D01*
X012834Y008393D02*
X012834Y008688D01*
X012874Y008688D01*
X012874Y008393D01*
X012834Y008393D01*
X012834Y008443D02*
X012874Y008443D01*
X012874Y008560D02*
X012834Y008560D01*
X012834Y008677D02*
X012874Y008677D01*
X013397Y008677D02*
X013436Y008677D01*
X013436Y008688D02*
X013436Y008393D01*
X013397Y008393D01*
X013397Y008688D01*
X013436Y008688D01*
X013436Y008560D02*
X013397Y008560D01*
X013397Y008443D02*
X013436Y008443D01*
X013436Y008327D02*
X013397Y008327D01*
X013397Y008210D02*
X013436Y008210D01*
X013436Y008093D02*
X013397Y008093D01*
X013477Y007977D02*
X014220Y007977D01*
X014220Y007860D02*
X013483Y007860D01*
X013483Y007743D02*
X014231Y007743D01*
X014620Y007743D02*
X014738Y007743D01*
X014738Y007860D02*
X014620Y007860D01*
X014620Y008165D02*
X014620Y008510D01*
X014732Y008510D01*
X014738Y008510D01*
X014738Y008165D01*
X014620Y008165D01*
X014620Y008210D02*
X014738Y008210D01*
X014738Y008327D02*
X014620Y008327D01*
X014620Y008443D02*
X014738Y008443D01*
X015133Y008443D02*
X015224Y008443D01*
X015220Y008327D02*
X015138Y008327D01*
X015138Y008210D02*
X015220Y008210D01*
X015220Y007977D02*
X015138Y007977D01*
X015138Y007860D02*
X015220Y007860D01*
X015231Y007743D02*
X015126Y007743D01*
X015620Y007743D02*
X015738Y007743D01*
X015738Y007860D02*
X015620Y007860D01*
X015620Y008165D02*
X015620Y008510D01*
X015738Y008510D01*
X015738Y008165D01*
X015620Y008165D01*
X015620Y008210D02*
X015738Y008210D01*
X015738Y008327D02*
X015620Y008327D01*
X015620Y008443D02*
X015738Y008443D01*
X016133Y008443D02*
X016224Y008443D01*
X016220Y008327D02*
X016138Y008327D01*
X016138Y008210D02*
X016220Y008210D01*
X016220Y007977D02*
X016138Y007977D01*
X016138Y007860D02*
X016220Y007860D01*
X016231Y007743D02*
X016126Y007743D01*
X016620Y007743D02*
X016738Y007743D01*
X016738Y007860D02*
X016620Y007860D01*
X018138Y008210D02*
X019776Y008210D01*
X019660Y008327D02*
X018138Y008327D01*
X018133Y008443D02*
X019543Y008443D01*
X018831Y009015D02*
X014982Y009015D01*
X014759Y009237D01*
X015028Y009237D01*
X015098Y009307D01*
X015098Y009323D01*
X018874Y009323D01*
X018834Y009284D01*
X018797Y009194D01*
X018797Y009097D01*
X018831Y009015D01*
X018826Y009027D02*
X014970Y009027D01*
X014854Y009143D02*
X018797Y009143D01*
X018825Y009260D02*
X015051Y009260D01*
X014833Y009726D02*
X019821Y009726D01*
X019821Y009610D02*
X019667Y009610D01*
X019700Y009493D02*
X019821Y009493D01*
X019821Y009376D02*
X019677Y009376D01*
X016295Y012060D02*
X016288Y012060D01*
X016241Y012176D02*
X016067Y012176D01*
X016098Y012293D02*
X016220Y012293D01*
X016220Y012409D02*
X016098Y012409D01*
X017620Y012643D02*
X017738Y012643D01*
X017738Y012759D02*
X017620Y012759D01*
X017620Y012876D02*
X017738Y012876D01*
X017738Y012993D02*
X017620Y012993D01*
X017738Y012526D02*
X019821Y012526D01*
X018270Y013693D02*
X014311Y013693D01*
X014292Y013809D02*
X018270Y013809D01*
X018270Y013926D02*
X014385Y013926D01*
X014388Y014043D02*
X018346Y014043D01*
X018310Y014509D02*
X014388Y014509D01*
X014300Y014859D02*
X018310Y014859D01*
X018330Y014976D02*
X014348Y014976D01*
X014358Y016898D02*
X014620Y016898D01*
X014620Y017297D01*
X014738Y017297D01*
X014738Y016898D01*
X015000Y016898D01*
X015040Y016908D01*
X015076Y016929D01*
X015106Y016959D01*
X015138Y017076D02*
X015220Y017076D01*
X015220Y017036D02*
X015231Y016995D01*
X015251Y016959D01*
X015220Y017036D02*
X015220Y017298D01*
X015620Y017298D01*
X015620Y017416D01*
X015620Y017816D01*
X015358Y017816D01*
X015317Y017805D01*
X015281Y017784D01*
X015251Y017754D01*
X015231Y017718D01*
X015220Y017678D01*
X015220Y017416D01*
X015620Y017416D01*
X015738Y017416D01*
X015738Y017816D01*
X016000Y017816D01*
X016040Y017805D01*
X016076Y017784D01*
X016106Y017754D01*
X016127Y017718D01*
X016138Y017678D01*
X016138Y017416D01*
X015738Y017416D01*
X015738Y017298D01*
X016138Y017298D01*
X016138Y017036D01*
X016127Y016995D01*
X016106Y016959D01*
X016138Y017076D02*
X016220Y017076D01*
X016220Y017036D02*
X016231Y016995D01*
X016251Y016959D01*
X016220Y017036D02*
X016220Y017298D01*
X016620Y017298D01*
X016620Y017416D01*
X016620Y017816D01*
X016358Y017816D01*
X016317Y017805D01*
X016281Y017784D01*
X016251Y017754D01*
X016231Y017718D01*
X016220Y017678D01*
X016220Y017416D01*
X016620Y017416D01*
X016738Y017416D01*
X016738Y017816D01*
X017000Y017816D01*
X017040Y017805D01*
X017076Y017784D01*
X017106Y017754D01*
X017127Y017718D01*
X017138Y017678D01*
X017138Y017416D01*
X016738Y017416D01*
X016738Y017298D01*
X017138Y017298D01*
X017138Y017036D01*
X017127Y016995D01*
X017106Y016959D01*
X017138Y017076D02*
X017220Y017076D01*
X017220Y017036D02*
X017231Y016995D01*
X017251Y016959D01*
X017220Y017036D02*
X017220Y017298D01*
X017620Y017298D01*
X017620Y017416D01*
X017620Y017816D01*
X017358Y017816D01*
X017317Y017805D01*
X017281Y017784D01*
X017251Y017754D01*
X017231Y017718D01*
X017220Y017678D01*
X017220Y017416D01*
X017620Y017416D01*
X017738Y017416D01*
X017738Y017816D01*
X018000Y017816D01*
X018040Y017805D01*
X018076Y017784D01*
X018106Y017754D01*
X018127Y017718D01*
X018138Y017678D01*
X018138Y017416D01*
X017738Y017416D01*
X017738Y017298D01*
X018138Y017298D01*
X018138Y017036D01*
X018127Y016995D01*
X018106Y016959D01*
X018138Y017076D02*
X019821Y017076D01*
X019821Y017192D02*
X018138Y017192D01*
X018138Y017426D02*
X019824Y017426D01*
X019821Y017309D02*
X017738Y017309D01*
X017738Y017426D02*
X017620Y017426D01*
X017620Y017542D02*
X017738Y017542D01*
X017738Y017659D02*
X017620Y017659D01*
X017620Y017776D02*
X017738Y017776D01*
X018085Y017776D02*
X019842Y017776D01*
X019842Y017892D02*
X003737Y017892D01*
X003737Y017776D02*
X014273Y017776D01*
X014220Y017659D02*
X003737Y017659D01*
X003737Y017542D02*
X014220Y017542D01*
X014220Y017426D02*
X003737Y017426D01*
X003737Y017309D02*
X014620Y017309D01*
X014620Y017426D02*
X014738Y017426D01*
X014738Y017542D02*
X014620Y017542D01*
X014620Y017659D02*
X014738Y017659D01*
X014738Y017776D02*
X014620Y017776D01*
X015085Y017776D02*
X015273Y017776D01*
X015220Y017659D02*
X015138Y017659D01*
X015138Y017542D02*
X015220Y017542D01*
X015220Y017426D02*
X015138Y017426D01*
X015138Y017192D02*
X015220Y017192D01*
X015620Y017192D02*
X015738Y017192D01*
X015738Y017076D02*
X015620Y017076D01*
X015620Y016959D02*
X015738Y016959D01*
X015738Y017309D02*
X016620Y017309D01*
X016620Y017426D02*
X016738Y017426D01*
X016738Y017542D02*
X016620Y017542D01*
X016620Y017659D02*
X016738Y017659D01*
X016738Y017776D02*
X016620Y017776D01*
X016273Y017776D02*
X016085Y017776D01*
X016138Y017659D02*
X016220Y017659D01*
X016220Y017542D02*
X016138Y017542D01*
X016138Y017426D02*
X016220Y017426D01*
X016220Y017192D02*
X016138Y017192D01*
X015738Y017426D02*
X015620Y017426D01*
X015620Y017542D02*
X015738Y017542D01*
X015738Y017659D02*
X015620Y017659D01*
X015620Y017776D02*
X015738Y017776D01*
X015620Y017309D02*
X014738Y017309D01*
X014738Y017192D02*
X014620Y017192D01*
X014620Y017076D02*
X014738Y017076D01*
X014738Y016959D02*
X014620Y016959D01*
X014220Y017192D02*
X003737Y017192D01*
X004816Y016726D02*
X004817Y016726D01*
X004816Y016609D02*
X004817Y016609D01*
X004816Y016492D02*
X004817Y016492D01*
X004816Y016376D02*
X004817Y016376D01*
X004816Y016259D02*
X004817Y016259D01*
X004816Y016142D02*
X004817Y016142D01*
X004816Y016026D02*
X004817Y016026D01*
X004816Y015909D02*
X004817Y015909D01*
X004816Y015792D02*
X004817Y015792D01*
X005563Y015792D02*
X008980Y015792D01*
X008975Y015909D02*
X005683Y015909D01*
X005753Y016026D02*
X008975Y016026D01*
X008975Y016142D02*
X005790Y016142D01*
X005801Y016259D02*
X009021Y016259D01*
X009272Y016259D02*
X009311Y016259D01*
X009311Y016142D02*
X009272Y016142D01*
X009272Y016026D02*
X009311Y016026D01*
X009311Y015969D02*
X009311Y015675D01*
X009272Y015675D01*
X009272Y015969D01*
X009311Y015969D01*
X009311Y015909D02*
X009272Y015909D01*
X009272Y015792D02*
X009311Y015792D01*
X009311Y015676D02*
X009272Y015676D01*
X009102Y015676D02*
X008462Y015676D01*
X008202Y015676D02*
X008131Y015676D01*
X008131Y015559D02*
X008202Y015559D01*
X008202Y015442D02*
X008131Y015442D01*
X008131Y015326D02*
X008202Y015326D01*
X008202Y015156D02*
X008202Y014966D01*
X008131Y014966D01*
X008131Y015156D01*
X008202Y015156D01*
X008202Y015093D02*
X008131Y015093D01*
X008131Y014976D02*
X008202Y014976D01*
X007632Y014743D02*
X007241Y014743D01*
X007256Y014626D02*
X007632Y014626D01*
X007632Y014509D02*
X007256Y014509D01*
X007256Y014393D02*
X007632Y014393D01*
X007632Y014276D02*
X007217Y014276D01*
X006762Y014159D02*
X005792Y014159D01*
X005801Y014276D02*
X006741Y014276D01*
X006703Y014393D02*
X005786Y014393D01*
X005742Y014509D02*
X006703Y014509D01*
X006703Y014626D02*
X005667Y014626D01*
X005532Y014743D02*
X006717Y014743D01*
X006296Y014859D02*
X006163Y014859D01*
X006211Y014976D02*
X006249Y014976D01*
X006247Y015093D02*
X006211Y015093D01*
X006211Y015209D02*
X006247Y015209D01*
X006247Y015326D02*
X006211Y015326D01*
X006211Y015442D02*
X006247Y015442D01*
X006249Y015559D02*
X006211Y015559D01*
X004817Y014743D02*
X004816Y014743D01*
X004816Y014626D02*
X004817Y014626D01*
X004816Y014509D02*
X004817Y014509D01*
X004816Y014393D02*
X004817Y014393D01*
X004816Y014276D02*
X004817Y014276D01*
X004816Y014159D02*
X004817Y014159D01*
X004816Y014043D02*
X004817Y014043D01*
X004816Y013926D02*
X004817Y013926D01*
X004816Y013809D02*
X004817Y013809D01*
X004816Y013693D02*
X004817Y013693D01*
X005325Y013693D02*
X006064Y013693D01*
X006351Y013693D02*
X006391Y013693D01*
X006391Y013576D02*
X006351Y013576D01*
X006351Y013459D02*
X006391Y013459D01*
X006391Y013343D02*
X006351Y013343D01*
X006351Y013226D02*
X006391Y013226D01*
X006554Y013109D02*
X006744Y013109D01*
X006744Y013216D02*
X006685Y013275D01*
X006685Y013294D01*
X006677Y013263D01*
X006656Y013226D01*
X006682Y012993D02*
X006685Y012993D01*
X006643Y012526D02*
X006744Y012526D01*
X006692Y012409D02*
X006072Y012409D01*
X006055Y012643D02*
X003737Y012643D01*
X003737Y012759D02*
X006055Y012759D01*
X006055Y012876D02*
X003737Y012876D01*
X003737Y012993D02*
X006060Y012993D01*
X005803Y012409D02*
X005724Y012409D01*
X005724Y012293D02*
X005803Y012293D01*
X005803Y012176D02*
X005724Y012176D01*
X005724Y012060D02*
X005803Y012060D01*
X005803Y011826D02*
X005724Y011826D01*
X005724Y011710D02*
X005803Y011710D01*
X005803Y011593D02*
X005724Y011593D01*
X005425Y011593D02*
X003737Y011593D01*
X003737Y011710D02*
X005407Y011710D01*
X005407Y011826D02*
X003737Y011826D01*
X005587Y013809D02*
X006762Y013809D01*
X006762Y013926D02*
X005696Y013926D01*
X005761Y014043D02*
X006762Y014043D01*
X006690Y013693D02*
X006679Y013693D01*
X008108Y013693D02*
X008225Y013693D01*
X008225Y013809D02*
X008108Y013809D01*
X008108Y013926D02*
X008225Y013926D01*
X008225Y014043D02*
X008108Y014043D01*
X008701Y013926D02*
X009213Y013926D01*
X009180Y013809D02*
X008701Y013809D01*
X008701Y013693D02*
X009180Y013693D01*
X009180Y013576D02*
X008701Y013576D01*
X008701Y013459D02*
X009188Y013459D01*
X009180Y013343D02*
X008669Y013343D01*
X008225Y013343D02*
X008108Y013343D01*
X008108Y013459D02*
X008225Y013459D01*
X008225Y013576D02*
X008108Y013576D01*
X008610Y012643D02*
X007238Y012643D01*
X007179Y012526D02*
X008610Y012526D01*
X008567Y012409D02*
X007890Y012409D01*
X007386Y012409D02*
X007197Y012409D01*
X007260Y012293D02*
X007322Y012293D01*
X009476Y012409D02*
X009516Y012409D01*
X009516Y012526D02*
X009476Y012526D01*
X009476Y012643D02*
X009516Y012643D01*
X009516Y012759D02*
X009476Y012759D01*
X009476Y012876D02*
X009516Y012876D01*
X009516Y012993D02*
X009476Y012993D01*
X009476Y013109D02*
X009516Y013109D01*
X009516Y013226D02*
X009476Y013226D01*
X009476Y013343D02*
X009516Y013343D01*
X009516Y013459D02*
X009476Y013459D01*
X009476Y013576D02*
X009516Y013576D01*
X009516Y013693D02*
X009476Y013693D01*
X009476Y013809D02*
X009516Y013809D01*
X009516Y013926D02*
X009476Y013926D01*
X009779Y013926D02*
X009860Y013926D01*
X010039Y014859D02*
X010170Y014859D01*
X010123Y014976D02*
X010086Y014976D01*
X010086Y015093D02*
X010123Y015093D01*
X010123Y015209D02*
X010086Y015209D01*
X010086Y015326D02*
X010123Y015326D01*
X010123Y015442D02*
X010086Y015442D01*
X010086Y015559D02*
X010123Y015559D01*
X007871Y015676D02*
X003737Y015676D01*
X003737Y018009D02*
X019841Y018009D01*
X019841Y018126D02*
X003737Y018126D01*
X003737Y018242D02*
X019841Y018242D01*
X019840Y018359D02*
X003737Y018359D01*
X003737Y018475D02*
X019840Y018475D01*
X019840Y018592D02*
X006161Y018592D01*
X006131Y018562D02*
X006201Y018632D01*
X006201Y020312D01*
X006131Y020382D01*
X004451Y020382D01*
X004382Y020312D01*
X004382Y018632D01*
X004451Y018562D01*
X006131Y018562D01*
X006201Y018709D02*
X019839Y018709D01*
X019839Y018825D02*
X006201Y018825D01*
X006201Y018942D02*
X019839Y018942D01*
X019838Y019059D02*
X006201Y019059D01*
X006201Y019175D02*
X019838Y019175D01*
X019838Y019292D02*
X006201Y019292D01*
X006201Y019409D02*
X019837Y019409D01*
X019837Y019525D02*
X006201Y019525D01*
X006201Y019642D02*
X019837Y019642D01*
X019836Y019759D02*
X006201Y019759D01*
X006201Y019875D02*
X019836Y019875D01*
X019836Y019992D02*
X006201Y019992D01*
X006201Y020109D02*
X019835Y020109D01*
X019835Y020225D02*
X006201Y020225D01*
X006171Y020342D02*
X019834Y020342D01*
X017273Y017776D02*
X017085Y017776D01*
X017138Y017659D02*
X017220Y017659D01*
X017220Y017542D02*
X017138Y017542D01*
X017138Y017426D02*
X017220Y017426D01*
X017220Y017192D02*
X017138Y017192D01*
X016738Y017309D02*
X017620Y017309D01*
X017620Y017192D02*
X017738Y017192D01*
X017738Y017076D02*
X017620Y017076D01*
X017620Y016959D02*
X017738Y016959D01*
X018138Y017542D02*
X019843Y017542D01*
X019842Y017659D02*
X018138Y017659D01*
X018670Y016959D02*
X018788Y016959D01*
X018788Y017066D02*
X018788Y016666D01*
X019188Y016666D01*
X019188Y016928D01*
X019177Y016968D01*
X019156Y017004D01*
X019126Y017034D01*
X019090Y017055D01*
X019050Y017066D01*
X018788Y017066D01*
X018788Y016842D02*
X018670Y016842D01*
X018670Y016726D02*
X018788Y016726D01*
X019188Y016726D02*
X019821Y016726D01*
X019821Y016842D02*
X019188Y016842D01*
X019179Y016959D02*
X019821Y016959D01*
X019821Y015909D02*
X019188Y015909D01*
X019188Y015792D02*
X019821Y015792D01*
X019821Y015676D02*
X019188Y015676D01*
X019188Y015442D02*
X019821Y015442D01*
X019821Y015326D02*
X019188Y015326D01*
X019156Y015209D02*
X019821Y015209D01*
X019821Y015559D02*
X018788Y015559D01*
X018788Y015442D02*
X018670Y015442D01*
X018670Y015326D02*
X018788Y015326D01*
X018788Y015209D02*
X018670Y015209D01*
X016738Y016959D02*
X016620Y016959D01*
X016620Y017076D02*
X016738Y017076D01*
X016738Y017192D02*
X016620Y017192D01*
X004422Y018592D02*
X003737Y018592D01*
X003737Y018709D02*
X004382Y018709D01*
X004382Y018825D02*
X003737Y018825D01*
X003737Y018942D02*
X004382Y018942D01*
X004382Y019059D02*
X003737Y019059D01*
X003737Y019175D02*
X004382Y019175D01*
X004382Y019292D02*
X003737Y019292D01*
X003737Y019409D02*
X004382Y019409D01*
X004382Y019525D02*
X003737Y019525D01*
X003737Y019642D02*
X004382Y019642D01*
X004382Y019759D02*
X003737Y019759D01*
X003742Y019875D02*
X004382Y019875D01*
X004382Y019992D02*
X003771Y019992D01*
X003804Y020094D02*
X003804Y020094D01*
X003814Y020109D02*
X004382Y020109D01*
X004382Y020225D02*
X003899Y020225D01*
X004044Y020342D02*
X004412Y020342D01*
X013130Y009143D02*
X013140Y009143D01*
X010939Y007860D02*
X007238Y007860D01*
X007224Y007510D02*
X011966Y007510D01*
X012460Y007393D02*
X012498Y007393D01*
X012498Y007277D02*
X012460Y007277D01*
X012460Y007160D02*
X012498Y007160D01*
X012498Y007043D02*
X012460Y007043D01*
X012408Y006927D02*
X012550Y006927D01*
X013443Y006927D02*
X013470Y006927D01*
X013470Y006810D02*
X013443Y006810D01*
X013443Y006693D02*
X013470Y006693D01*
X013443Y006577D02*
X013535Y006577D01*
X013443Y007043D02*
X013870Y007043D01*
X013870Y007160D02*
X013988Y007160D01*
X013988Y007277D02*
X013870Y007277D01*
X013870Y007393D02*
X013988Y007393D01*
X013495Y007393D02*
X013443Y007393D01*
X013443Y007277D02*
X013470Y007277D01*
X013470Y007160D02*
X013443Y007160D01*
X010867Y007160D02*
X007179Y007160D01*
X007179Y007043D02*
X009074Y007043D01*
X008978Y006927D02*
X007256Y006927D01*
X007256Y006810D02*
X008975Y006810D01*
X008975Y006693D02*
X007256Y006693D01*
X007256Y006577D02*
X008975Y006577D01*
X009029Y006460D02*
X008396Y006460D01*
X008202Y006460D02*
X008131Y006460D01*
X008131Y006344D02*
X008202Y006344D01*
X008202Y006227D02*
X008131Y006227D01*
X008131Y006110D02*
X008202Y006110D01*
X008202Y005994D02*
X008131Y005994D01*
X008131Y005906D02*
X008202Y005906D01*
X008202Y005715D01*
X008131Y005715D01*
X008131Y005906D01*
X008131Y005877D02*
X008202Y005877D01*
X008202Y005760D02*
X008131Y005760D01*
X007937Y006460D02*
X007187Y006460D01*
X007179Y007277D02*
X010867Y007277D01*
X010875Y007393D02*
X007179Y007393D01*
X006391Y007510D02*
X006351Y007510D01*
X006351Y007627D02*
X006391Y007627D01*
X006391Y007860D02*
X006351Y007860D01*
X006351Y007977D02*
X006391Y007977D01*
X006391Y008210D02*
X006351Y008210D01*
X006351Y008327D02*
X006391Y008327D01*
X006391Y008443D02*
X006351Y008443D01*
X006351Y008560D02*
X006391Y008560D01*
X006391Y008677D02*
X006351Y008677D01*
X006089Y008677D02*
X003737Y008677D01*
X003737Y008560D02*
X006055Y008560D01*
X006055Y008443D02*
X003737Y008443D01*
X003737Y008327D02*
X006055Y008327D01*
X006063Y008210D02*
X003737Y008210D01*
X003737Y007627D02*
X006055Y007627D01*
X006067Y007510D02*
X005499Y007510D01*
X004817Y007510D02*
X004816Y007510D01*
X004816Y007393D02*
X004817Y007393D01*
X004816Y007277D02*
X004817Y007277D01*
X004816Y007160D02*
X004817Y007160D01*
X004816Y007043D02*
X004817Y007043D01*
X004816Y006927D02*
X004817Y006927D01*
X004816Y006810D02*
X004817Y006810D01*
X004816Y006693D02*
X004817Y006693D01*
X004816Y006577D02*
X004817Y006577D01*
X004816Y006460D02*
X004817Y006460D01*
X004235Y006460D02*
X003737Y006460D01*
X003737Y006344D02*
X003872Y006344D01*
X003872Y006227D02*
X003737Y006227D01*
X003737Y006110D02*
X003872Y006110D01*
X003872Y005994D02*
X003737Y005994D01*
X003737Y005877D02*
X003872Y005877D01*
X003872Y005760D02*
X003737Y005760D01*
X003737Y005644D02*
X003886Y005644D01*
X003737Y005527D02*
X004167Y005527D01*
X004000Y005410D02*
X003737Y005410D01*
X003738Y005294D02*
X003909Y005294D01*
X003858Y005177D02*
X003738Y005177D01*
X003738Y005060D02*
X003834Y005060D01*
X003835Y004944D02*
X003739Y004944D01*
X003739Y004827D02*
X003861Y004827D01*
X003913Y004710D02*
X003739Y004710D01*
X003740Y004594D02*
X004008Y004594D01*
X004183Y004477D02*
X003740Y004477D01*
X003740Y004360D02*
X007632Y004360D01*
X007632Y004244D02*
X003741Y004244D01*
X003741Y004127D02*
X007644Y004127D01*
X007632Y004477D02*
X005450Y004477D01*
X005625Y004594D02*
X007632Y004594D01*
X007632Y004710D02*
X005720Y004710D01*
X004817Y004710D02*
X004816Y004710D01*
X004816Y004594D02*
X004817Y004594D01*
X004816Y004477D02*
X004817Y004477D01*
X004816Y004827D02*
X004817Y004827D01*
X004816Y004944D02*
X004817Y004944D01*
X004816Y005060D02*
X004817Y005060D01*
X004816Y005177D02*
X004817Y005177D01*
X004816Y005294D02*
X004817Y005294D01*
X004816Y005410D02*
X004817Y005410D01*
X004816Y005527D02*
X004817Y005527D01*
X004025Y006577D02*
X003737Y006577D01*
X003737Y006693D02*
X003925Y006693D01*
X003867Y006810D02*
X003737Y006810D01*
X003737Y006927D02*
X003838Y006927D01*
X003832Y007043D02*
X003737Y007043D01*
X003737Y007160D02*
X003853Y007160D01*
X003900Y007277D02*
X003737Y007277D01*
X003737Y007393D02*
X003983Y007393D01*
X004134Y007510D02*
X003737Y007510D01*
X006662Y007977D02*
X006724Y007977D01*
X007260Y008910D02*
X007322Y008910D01*
X009272Y007043D02*
X009311Y007043D01*
X009311Y006927D02*
X009272Y006927D01*
X009272Y006810D02*
X009311Y006810D01*
X009311Y006717D02*
X009311Y006423D01*
X009272Y006423D01*
X009272Y006717D01*
X009311Y006717D01*
X009311Y006693D02*
X009272Y006693D01*
X009272Y006577D02*
X009311Y006577D01*
X009311Y006460D02*
X009272Y006460D01*
X009554Y006460D02*
X018270Y006460D01*
X019887Y002727D02*
X015911Y002727D01*
X019845Y002611D02*
X019887Y002611D01*
X010867Y007043D02*
X009509Y007043D01*
X010086Y006344D02*
X010121Y006344D01*
X010121Y006227D02*
X010086Y006227D01*
X010086Y006110D02*
X010121Y006110D01*
X010121Y005994D02*
X010086Y005994D01*
X010086Y005877D02*
X010121Y005877D01*
X010121Y005760D02*
X010086Y005760D01*
X010073Y005644D02*
X010134Y005644D01*
D58*
X012774Y007186D02*
X012917Y007170D01*
X012917Y007186D01*
X006979Y014170D02*
X006917Y014170D01*
X006917Y014670D01*
X006979Y014522D01*
X022417Y017107D02*
X022417Y017170D01*
X022917Y017170D01*
X022917Y017135D01*
X030917Y012170D02*
X030917Y012169D01*
X030917Y010670D01*
X030729Y010648D01*
X025008Y001125D02*
X025008Y001100D01*
D59*
X033041Y001794D03*
X005291Y001794D03*
X005291Y019472D03*
X033041Y019472D03*
D60*
X008167Y015856D02*
X008167Y015419D01*
X008167Y006607D02*
X008167Y006169D01*
D61*
X021268Y001186D02*
X021500Y001186D01*
X021663Y001100D01*
X025008Y001100D01*
X025008Y001125D02*
X025691Y001808D01*
D62*
X026019Y001808D01*
M02*
