G75*
G70*
%OFA0B0*%
%FSLAX24Y24*%
%IPPOS*%
%LPD*%
%AMOC8*
5,1,8,0,0,1.08239X$1,22.5*
%
%ADD10R,0.0769X0.0769*%
%ADD11R,0.0226X0.0336*%
%ADD12R,0.0336X0.0226*%
%ADD13R,0.0631X0.0552*%
%ADD14R,0.0580X0.0580*%
%ADD15C,0.0580*%
%ADD16R,0.0395X0.0552*%
%ADD17R,0.0552X0.0395*%
%ADD18C,0.0720*%
%ADD19C,0.0395*%
%ADD20R,0.0680X0.0380*%
%ADD21C,0.0820*%
%ADD22C,0.0158*%
%ADD23R,0.0178X0.0277*%
%ADD24R,0.0277X0.0178*%
%ADD25C,0.0336*%
%ADD26OC8,0.0640*%
%ADD27R,0.0789X0.0552*%
%ADD28R,0.0552X0.0789*%
%ADD29R,0.0198X0.0237*%
%ADD30R,0.0237X0.0198*%
%ADD31R,0.0434X0.0356*%
%ADD32R,0.0356X0.0434*%
%ADD33R,0.0880X0.0880*%
%ADD34C,0.0880*%
%ADD35R,0.0710X0.0789*%
%ADD36R,0.0552X0.0867*%
%ADD37R,0.0316X0.0867*%
%ADD38R,0.0926X0.2245*%
%ADD39R,0.0659X0.0580*%
%ADD40R,0.1064X0.0277*%
%ADD41R,0.1064X0.0867*%
%ADD42C,0.0434*%
%ADD43C,0.0595*%
D10*
X024901Y015454D03*
D11*
X024773Y016143D03*
X024517Y016143D03*
X025029Y016143D03*
X025285Y016143D03*
X025285Y014765D03*
X025029Y014765D03*
X024773Y014765D03*
X024517Y014765D03*
D12*
X024212Y015070D03*
X024212Y015326D03*
X024212Y015581D03*
X024212Y015837D03*
X025590Y015837D03*
X025590Y015581D03*
X025590Y015326D03*
X025590Y015070D03*
D13*
X014401Y025113D03*
X014401Y026294D03*
X010901Y019044D03*
X010901Y017863D03*
X009401Y017863D03*
X009401Y019044D03*
X007901Y019044D03*
X007901Y017863D03*
X005651Y017863D03*
X005651Y019044D03*
X004401Y019044D03*
X004401Y017863D03*
D14*
X003608Y020873D03*
D15*
X004395Y020873D03*
X005183Y020873D03*
X005970Y020873D03*
X006757Y020873D03*
X007545Y020873D03*
X008332Y020873D03*
X009120Y020873D03*
X009907Y020873D03*
X010694Y020873D03*
X010694Y029534D03*
X009907Y029534D03*
X009120Y029534D03*
X008332Y029534D03*
X007545Y029534D03*
X006757Y029534D03*
X005970Y029534D03*
X005183Y029534D03*
X004395Y029534D03*
X003608Y029534D03*
D16*
X016797Y025954D03*
X017506Y025954D03*
X017547Y029704D03*
X018256Y029704D03*
X023047Y023704D03*
X023756Y023704D03*
X024297Y023704D03*
X025006Y023704D03*
X024797Y024704D03*
X025506Y024704D03*
X022006Y020704D03*
X021297Y020704D03*
X021506Y019454D03*
X020797Y019454D03*
X020256Y019454D03*
X019547Y019454D03*
X013506Y010954D03*
X012797Y010954D03*
X025047Y003954D03*
X025756Y003954D03*
X025756Y002954D03*
X025047Y002954D03*
D17*
X022401Y005349D03*
X022401Y006058D03*
X020651Y006058D03*
X020651Y005349D03*
X018651Y003808D03*
X018651Y003099D03*
X015401Y009099D03*
X015401Y009808D03*
X010901Y016349D03*
X010901Y017058D03*
X009401Y017058D03*
X009401Y016349D03*
X007901Y016349D03*
X007901Y017058D03*
X005651Y017058D03*
X005651Y016349D03*
X004401Y016349D03*
X004401Y017058D03*
X007901Y012308D03*
X007901Y011599D03*
X008651Y011599D03*
X008651Y012308D03*
X014401Y021849D03*
X014401Y022558D03*
X014401Y023599D03*
X014401Y024308D03*
X015651Y022558D03*
X015651Y021849D03*
X018151Y021849D03*
X018151Y022558D03*
X019401Y024349D03*
X019401Y025058D03*
X020151Y024849D03*
X020151Y024308D03*
X020151Y023599D03*
X020151Y025558D03*
X018151Y026099D03*
X018151Y026808D03*
X016651Y027349D03*
X016651Y028058D03*
X015651Y028058D03*
X015651Y027349D03*
X021401Y027349D03*
X021401Y028058D03*
X021401Y028849D03*
X021401Y029558D03*
X022651Y029058D03*
X022651Y028349D03*
X023401Y028308D03*
X023401Y028849D03*
X023401Y029558D03*
X023401Y027599D03*
X023401Y022808D03*
X023401Y022099D03*
X024651Y022099D03*
X024651Y022808D03*
X025901Y022808D03*
X025901Y022099D03*
X025651Y020308D03*
X025651Y019599D03*
X024401Y019599D03*
X024401Y020308D03*
X023151Y020308D03*
X023151Y019599D03*
X025901Y011058D03*
X025901Y010349D03*
D18*
X028831Y009954D02*
X029471Y009954D01*
X029471Y010954D02*
X028831Y010954D01*
X028831Y011954D02*
X029471Y011954D01*
X029471Y012954D02*
X028831Y012954D01*
X028831Y013954D02*
X029471Y013954D01*
X029471Y008954D02*
X028831Y008954D01*
X028831Y007954D02*
X029471Y007954D01*
X029471Y006954D02*
X028831Y006954D01*
X024651Y001774D02*
X024651Y001134D01*
X023651Y001134D02*
X023651Y001774D01*
X022651Y001774D02*
X022651Y001134D01*
X021651Y001134D02*
X021651Y001774D01*
X020651Y001774D02*
X020651Y001134D01*
X019651Y001134D02*
X019651Y001774D01*
X018651Y001774D02*
X018651Y001134D01*
X017651Y001134D02*
X017651Y001774D01*
X012901Y001774D02*
X012901Y001134D01*
X011901Y001134D02*
X011901Y001774D01*
X010901Y001774D02*
X010901Y001134D01*
X009901Y001134D02*
X009901Y001774D01*
X008901Y001774D02*
X008901Y001134D01*
X007901Y001134D02*
X007901Y001774D01*
X006901Y001774D02*
X006901Y001134D01*
X005901Y001134D02*
X005901Y001774D01*
D19*
X002515Y023668D03*
X004937Y026089D03*
D20*
X007901Y014454D03*
X007901Y012954D03*
X009901Y012954D03*
X009901Y014454D03*
D21*
X001651Y001704D03*
X001651Y002704D03*
X001651Y003704D03*
X001651Y004704D03*
X001651Y005704D03*
X001651Y006704D03*
X001651Y007704D03*
X001651Y008704D03*
X001651Y009704D03*
X001651Y010704D03*
X001651Y011704D03*
X001651Y012704D03*
X027901Y018704D03*
X027901Y019704D03*
X027901Y020704D03*
D22*
X021993Y013310D02*
X021993Y012896D01*
X021993Y013310D02*
X022033Y013310D01*
X022033Y012896D01*
X021993Y012896D01*
X021993Y013053D02*
X022033Y013053D01*
X022033Y013210D02*
X021993Y013210D01*
X021797Y013310D02*
X021797Y012896D01*
X021797Y013310D02*
X021837Y013310D01*
X021837Y012896D01*
X021797Y012896D01*
X021797Y013053D02*
X021837Y013053D01*
X021837Y013210D02*
X021797Y013210D01*
X021600Y013310D02*
X021600Y012896D01*
X021600Y013310D02*
X021640Y013310D01*
X021640Y012896D01*
X021600Y012896D01*
X021600Y013053D02*
X021640Y013053D01*
X021640Y013210D02*
X021600Y013210D01*
X021403Y013310D02*
X021403Y012896D01*
X021403Y013310D02*
X021443Y013310D01*
X021443Y012896D01*
X021403Y012896D01*
X021403Y013053D02*
X021443Y013053D01*
X021443Y013210D02*
X021403Y013210D01*
X021206Y013310D02*
X021206Y012896D01*
X021206Y013310D02*
X021246Y013310D01*
X021246Y012896D01*
X021206Y012896D01*
X021206Y013053D02*
X021246Y013053D01*
X021246Y013210D02*
X021206Y013210D01*
X021009Y013310D02*
X021009Y012896D01*
X021009Y013310D02*
X021049Y013310D01*
X021049Y012896D01*
X021009Y012896D01*
X021009Y013053D02*
X021049Y013053D01*
X021049Y013210D02*
X021009Y013210D01*
X020812Y013310D02*
X020812Y012896D01*
X020812Y013310D02*
X020852Y013310D01*
X020852Y012896D01*
X020812Y012896D01*
X020812Y013053D02*
X020852Y013053D01*
X020852Y013210D02*
X020812Y013210D01*
X020615Y013310D02*
X020615Y012896D01*
X020615Y013310D02*
X020655Y013310D01*
X020655Y012896D01*
X020615Y012896D01*
X020615Y013053D02*
X020655Y013053D01*
X020655Y013210D02*
X020615Y013210D01*
X020419Y013310D02*
X020419Y012896D01*
X020419Y013310D02*
X020459Y013310D01*
X020459Y012896D01*
X020419Y012896D01*
X020419Y013053D02*
X020459Y013053D01*
X020459Y013210D02*
X020419Y013210D01*
X020222Y013310D02*
X020222Y012896D01*
X020222Y013310D02*
X020262Y013310D01*
X020262Y012896D01*
X020222Y012896D01*
X020222Y013053D02*
X020262Y013053D01*
X020262Y013210D02*
X020222Y013210D01*
X020025Y013310D02*
X020025Y012896D01*
X020025Y013310D02*
X020065Y013310D01*
X020065Y012896D01*
X020025Y012896D01*
X020025Y013053D02*
X020065Y013053D01*
X020065Y013210D02*
X020025Y013210D01*
X019828Y013310D02*
X019828Y012896D01*
X019828Y013310D02*
X019868Y013310D01*
X019868Y012896D01*
X019828Y012896D01*
X019828Y013053D02*
X019868Y013053D01*
X019868Y013210D02*
X019828Y013210D01*
X019631Y013310D02*
X019631Y012896D01*
X019631Y013310D02*
X019671Y013310D01*
X019671Y012896D01*
X019631Y012896D01*
X019631Y013053D02*
X019671Y013053D01*
X019671Y013210D02*
X019631Y013210D01*
X019434Y013310D02*
X019434Y012896D01*
X019434Y013310D02*
X019474Y013310D01*
X019474Y012896D01*
X019434Y012896D01*
X019434Y013053D02*
X019474Y013053D01*
X019474Y013210D02*
X019434Y013210D01*
X019237Y013310D02*
X019237Y012896D01*
X019237Y013310D02*
X019277Y013310D01*
X019277Y012896D01*
X019237Y012896D01*
X019237Y013053D02*
X019277Y013053D01*
X019277Y013210D02*
X019237Y013210D01*
X019041Y013310D02*
X019041Y012896D01*
X019041Y013310D02*
X019081Y013310D01*
X019081Y012896D01*
X019041Y012896D01*
X019041Y013053D02*
X019081Y013053D01*
X019081Y013210D02*
X019041Y013210D01*
X018844Y013310D02*
X018844Y012896D01*
X018844Y013310D02*
X018884Y013310D01*
X018884Y012896D01*
X018844Y012896D01*
X018844Y013053D02*
X018884Y013053D01*
X018884Y013210D02*
X018844Y013210D01*
X018647Y013310D02*
X018647Y012896D01*
X018647Y013310D02*
X018687Y013310D01*
X018687Y012896D01*
X018647Y012896D01*
X018647Y013053D02*
X018687Y013053D01*
X018687Y013210D02*
X018647Y013210D01*
X018450Y013310D02*
X018450Y012896D01*
X018450Y013310D02*
X018490Y013310D01*
X018490Y012896D01*
X018450Y012896D01*
X018450Y013053D02*
X018490Y013053D01*
X018490Y013210D02*
X018450Y013210D01*
X018253Y013310D02*
X018253Y012896D01*
X018253Y013310D02*
X018293Y013310D01*
X018293Y012896D01*
X018253Y012896D01*
X018253Y013053D02*
X018293Y013053D01*
X018293Y013210D02*
X018253Y013210D01*
X018056Y013310D02*
X018056Y012896D01*
X018056Y013310D02*
X018096Y013310D01*
X018096Y012896D01*
X018056Y012896D01*
X018056Y013053D02*
X018096Y013053D01*
X018096Y013210D02*
X018056Y013210D01*
X017860Y013310D02*
X017860Y012896D01*
X017860Y013310D02*
X017900Y013310D01*
X017900Y012896D01*
X017860Y012896D01*
X017860Y013053D02*
X017900Y013053D01*
X017900Y013210D02*
X017860Y013210D01*
X017663Y013310D02*
X017663Y012896D01*
X017663Y013310D02*
X017703Y013310D01*
X017703Y012896D01*
X017663Y012896D01*
X017663Y013053D02*
X017703Y013053D01*
X017703Y013210D02*
X017663Y013210D01*
X017466Y013310D02*
X017466Y012896D01*
X017466Y013310D02*
X017506Y013310D01*
X017506Y012896D01*
X017466Y012896D01*
X017466Y013053D02*
X017506Y013053D01*
X017506Y013210D02*
X017466Y013210D01*
X017269Y013310D02*
X017269Y012896D01*
X017269Y013310D02*
X017309Y013310D01*
X017309Y012896D01*
X017269Y012896D01*
X017269Y013053D02*
X017309Y013053D01*
X017309Y013210D02*
X017269Y013210D01*
X016295Y012336D02*
X016295Y012296D01*
X016295Y012336D02*
X016709Y012336D01*
X016709Y012296D01*
X016295Y012296D01*
X016295Y012139D02*
X016295Y012099D01*
X016295Y012139D02*
X016709Y012139D01*
X016709Y012099D01*
X016295Y012099D01*
X016295Y011942D02*
X016295Y011902D01*
X016295Y011942D02*
X016709Y011942D01*
X016709Y011902D01*
X016295Y011902D01*
X016295Y011745D02*
X016295Y011705D01*
X016295Y011745D02*
X016709Y011745D01*
X016709Y011705D01*
X016295Y011705D01*
X016295Y011548D02*
X016295Y011508D01*
X016295Y011548D02*
X016709Y011548D01*
X016709Y011508D01*
X016295Y011508D01*
X016295Y011351D02*
X016295Y011311D01*
X016295Y011351D02*
X016709Y011351D01*
X016709Y011311D01*
X016295Y011311D01*
X016295Y011155D02*
X016295Y011115D01*
X016295Y011155D02*
X016709Y011155D01*
X016709Y011115D01*
X016295Y011115D01*
X016295Y010958D02*
X016295Y010918D01*
X016295Y010958D02*
X016709Y010958D01*
X016709Y010918D01*
X016295Y010918D01*
X016295Y010761D02*
X016295Y010721D01*
X016295Y010761D02*
X016709Y010761D01*
X016709Y010721D01*
X016295Y010721D01*
X016295Y010564D02*
X016295Y010524D01*
X016295Y010564D02*
X016709Y010564D01*
X016709Y010524D01*
X016295Y010524D01*
X016295Y010367D02*
X016295Y010327D01*
X016295Y010367D02*
X016709Y010367D01*
X016709Y010327D01*
X016295Y010327D01*
X016295Y010170D02*
X016295Y010130D01*
X016295Y010170D02*
X016709Y010170D01*
X016709Y010130D01*
X016295Y010130D01*
X016295Y009974D02*
X016295Y009934D01*
X016295Y009974D02*
X016709Y009974D01*
X016709Y009934D01*
X016295Y009934D01*
X016295Y009777D02*
X016295Y009737D01*
X016295Y009777D02*
X016709Y009777D01*
X016709Y009737D01*
X016295Y009737D01*
X016295Y009580D02*
X016295Y009540D01*
X016295Y009580D02*
X016709Y009580D01*
X016709Y009540D01*
X016295Y009540D01*
X016295Y009383D02*
X016295Y009343D01*
X016295Y009383D02*
X016709Y009383D01*
X016709Y009343D01*
X016295Y009343D01*
X016295Y009186D02*
X016295Y009146D01*
X016295Y009186D02*
X016709Y009186D01*
X016709Y009146D01*
X016295Y009146D01*
X016295Y008989D02*
X016295Y008949D01*
X016295Y008989D02*
X016709Y008989D01*
X016709Y008949D01*
X016295Y008949D01*
X016295Y008792D02*
X016295Y008752D01*
X016295Y008792D02*
X016709Y008792D01*
X016709Y008752D01*
X016295Y008752D01*
X016295Y008596D02*
X016295Y008556D01*
X016295Y008596D02*
X016709Y008596D01*
X016709Y008556D01*
X016295Y008556D01*
X016295Y008399D02*
X016295Y008359D01*
X016295Y008399D02*
X016709Y008399D01*
X016709Y008359D01*
X016295Y008359D01*
X016295Y008202D02*
X016295Y008162D01*
X016295Y008202D02*
X016709Y008202D01*
X016709Y008162D01*
X016295Y008162D01*
X016295Y008005D02*
X016295Y007965D01*
X016295Y008005D02*
X016709Y008005D01*
X016709Y007965D01*
X016295Y007965D01*
X016295Y007808D02*
X016295Y007768D01*
X016295Y007808D02*
X016709Y007808D01*
X016709Y007768D01*
X016295Y007768D01*
X016295Y007611D02*
X016295Y007571D01*
X016295Y007611D02*
X016709Y007611D01*
X016709Y007571D01*
X016295Y007571D01*
X017269Y007011D02*
X017269Y006597D01*
X017269Y007011D02*
X017309Y007011D01*
X017309Y006597D01*
X017269Y006597D01*
X017269Y006754D02*
X017309Y006754D01*
X017309Y006911D02*
X017269Y006911D01*
X017466Y007011D02*
X017466Y006597D01*
X017466Y007011D02*
X017506Y007011D01*
X017506Y006597D01*
X017466Y006597D01*
X017466Y006754D02*
X017506Y006754D01*
X017506Y006911D02*
X017466Y006911D01*
X017663Y007011D02*
X017663Y006597D01*
X017663Y007011D02*
X017703Y007011D01*
X017703Y006597D01*
X017663Y006597D01*
X017663Y006754D02*
X017703Y006754D01*
X017703Y006911D02*
X017663Y006911D01*
X017860Y007011D02*
X017860Y006597D01*
X017860Y007011D02*
X017900Y007011D01*
X017900Y006597D01*
X017860Y006597D01*
X017860Y006754D02*
X017900Y006754D01*
X017900Y006911D02*
X017860Y006911D01*
X018056Y007011D02*
X018056Y006597D01*
X018056Y007011D02*
X018096Y007011D01*
X018096Y006597D01*
X018056Y006597D01*
X018056Y006754D02*
X018096Y006754D01*
X018096Y006911D02*
X018056Y006911D01*
X018253Y007011D02*
X018253Y006597D01*
X018253Y007011D02*
X018293Y007011D01*
X018293Y006597D01*
X018253Y006597D01*
X018253Y006754D02*
X018293Y006754D01*
X018293Y006911D02*
X018253Y006911D01*
X018450Y007011D02*
X018450Y006597D01*
X018450Y007011D02*
X018490Y007011D01*
X018490Y006597D01*
X018450Y006597D01*
X018450Y006754D02*
X018490Y006754D01*
X018490Y006911D02*
X018450Y006911D01*
X018647Y007011D02*
X018647Y006597D01*
X018647Y007011D02*
X018687Y007011D01*
X018687Y006597D01*
X018647Y006597D01*
X018647Y006754D02*
X018687Y006754D01*
X018687Y006911D02*
X018647Y006911D01*
X018844Y007011D02*
X018844Y006597D01*
X018844Y007011D02*
X018884Y007011D01*
X018884Y006597D01*
X018844Y006597D01*
X018844Y006754D02*
X018884Y006754D01*
X018884Y006911D02*
X018844Y006911D01*
X019041Y007011D02*
X019041Y006597D01*
X019041Y007011D02*
X019081Y007011D01*
X019081Y006597D01*
X019041Y006597D01*
X019041Y006754D02*
X019081Y006754D01*
X019081Y006911D02*
X019041Y006911D01*
X019237Y007011D02*
X019237Y006597D01*
X019237Y007011D02*
X019277Y007011D01*
X019277Y006597D01*
X019237Y006597D01*
X019237Y006754D02*
X019277Y006754D01*
X019277Y006911D02*
X019237Y006911D01*
X019434Y007011D02*
X019434Y006597D01*
X019434Y007011D02*
X019474Y007011D01*
X019474Y006597D01*
X019434Y006597D01*
X019434Y006754D02*
X019474Y006754D01*
X019474Y006911D02*
X019434Y006911D01*
X019631Y007011D02*
X019631Y006597D01*
X019631Y007011D02*
X019671Y007011D01*
X019671Y006597D01*
X019631Y006597D01*
X019631Y006754D02*
X019671Y006754D01*
X019671Y006911D02*
X019631Y006911D01*
X019828Y007011D02*
X019828Y006597D01*
X019828Y007011D02*
X019868Y007011D01*
X019868Y006597D01*
X019828Y006597D01*
X019828Y006754D02*
X019868Y006754D01*
X019868Y006911D02*
X019828Y006911D01*
X020025Y007011D02*
X020025Y006597D01*
X020025Y007011D02*
X020065Y007011D01*
X020065Y006597D01*
X020025Y006597D01*
X020025Y006754D02*
X020065Y006754D01*
X020065Y006911D02*
X020025Y006911D01*
X020222Y007011D02*
X020222Y006597D01*
X020222Y007011D02*
X020262Y007011D01*
X020262Y006597D01*
X020222Y006597D01*
X020222Y006754D02*
X020262Y006754D01*
X020262Y006911D02*
X020222Y006911D01*
X020419Y007011D02*
X020419Y006597D01*
X020419Y007011D02*
X020459Y007011D01*
X020459Y006597D01*
X020419Y006597D01*
X020419Y006754D02*
X020459Y006754D01*
X020459Y006911D02*
X020419Y006911D01*
X020615Y007011D02*
X020615Y006597D01*
X020615Y007011D02*
X020655Y007011D01*
X020655Y006597D01*
X020615Y006597D01*
X020615Y006754D02*
X020655Y006754D01*
X020655Y006911D02*
X020615Y006911D01*
X020812Y007011D02*
X020812Y006597D01*
X020812Y007011D02*
X020852Y007011D01*
X020852Y006597D01*
X020812Y006597D01*
X020812Y006754D02*
X020852Y006754D01*
X020852Y006911D02*
X020812Y006911D01*
X021009Y007011D02*
X021009Y006597D01*
X021009Y007011D02*
X021049Y007011D01*
X021049Y006597D01*
X021009Y006597D01*
X021009Y006754D02*
X021049Y006754D01*
X021049Y006911D02*
X021009Y006911D01*
X021206Y007011D02*
X021206Y006597D01*
X021206Y007011D02*
X021246Y007011D01*
X021246Y006597D01*
X021206Y006597D01*
X021206Y006754D02*
X021246Y006754D01*
X021246Y006911D02*
X021206Y006911D01*
X021403Y007011D02*
X021403Y006597D01*
X021403Y007011D02*
X021443Y007011D01*
X021443Y006597D01*
X021403Y006597D01*
X021403Y006754D02*
X021443Y006754D01*
X021443Y006911D02*
X021403Y006911D01*
X021600Y007011D02*
X021600Y006597D01*
X021600Y007011D02*
X021640Y007011D01*
X021640Y006597D01*
X021600Y006597D01*
X021600Y006754D02*
X021640Y006754D01*
X021640Y006911D02*
X021600Y006911D01*
X021797Y007011D02*
X021797Y006597D01*
X021797Y007011D02*
X021837Y007011D01*
X021837Y006597D01*
X021797Y006597D01*
X021797Y006754D02*
X021837Y006754D01*
X021837Y006911D02*
X021797Y006911D01*
X021993Y007011D02*
X021993Y006597D01*
X021993Y007011D02*
X022033Y007011D01*
X022033Y006597D01*
X021993Y006597D01*
X021993Y006754D02*
X022033Y006754D01*
X022033Y006911D02*
X021993Y006911D01*
X022594Y007571D02*
X022594Y007611D01*
X023008Y007611D01*
X023008Y007571D01*
X022594Y007571D01*
X022594Y007768D02*
X022594Y007808D01*
X023008Y007808D01*
X023008Y007768D01*
X022594Y007768D01*
X022594Y007965D02*
X022594Y008005D01*
X023008Y008005D01*
X023008Y007965D01*
X022594Y007965D01*
X022594Y008162D02*
X022594Y008202D01*
X023008Y008202D01*
X023008Y008162D01*
X022594Y008162D01*
X022594Y008359D02*
X022594Y008399D01*
X023008Y008399D01*
X023008Y008359D01*
X022594Y008359D01*
X022594Y008556D02*
X022594Y008596D01*
X023008Y008596D01*
X023008Y008556D01*
X022594Y008556D01*
X022594Y008752D02*
X022594Y008792D01*
X023008Y008792D01*
X023008Y008752D01*
X022594Y008752D01*
X022594Y008949D02*
X022594Y008989D01*
X023008Y008989D01*
X023008Y008949D01*
X022594Y008949D01*
X022594Y009146D02*
X022594Y009186D01*
X023008Y009186D01*
X023008Y009146D01*
X022594Y009146D01*
X022594Y009343D02*
X022594Y009383D01*
X023008Y009383D01*
X023008Y009343D01*
X022594Y009343D01*
X022594Y009540D02*
X022594Y009580D01*
X023008Y009580D01*
X023008Y009540D01*
X022594Y009540D01*
X022594Y009737D02*
X022594Y009777D01*
X023008Y009777D01*
X023008Y009737D01*
X022594Y009737D01*
X022594Y009934D02*
X022594Y009974D01*
X023008Y009974D01*
X023008Y009934D01*
X022594Y009934D01*
X022594Y010130D02*
X022594Y010170D01*
X023008Y010170D01*
X023008Y010130D01*
X022594Y010130D01*
X022594Y010327D02*
X022594Y010367D01*
X023008Y010367D01*
X023008Y010327D01*
X022594Y010327D01*
X022594Y010524D02*
X022594Y010564D01*
X023008Y010564D01*
X023008Y010524D01*
X022594Y010524D01*
X022594Y010721D02*
X022594Y010761D01*
X023008Y010761D01*
X023008Y010721D01*
X022594Y010721D01*
X022594Y010918D02*
X022594Y010958D01*
X023008Y010958D01*
X023008Y010918D01*
X022594Y010918D01*
X022594Y011115D02*
X022594Y011155D01*
X023008Y011155D01*
X023008Y011115D01*
X022594Y011115D01*
X022594Y011311D02*
X022594Y011351D01*
X023008Y011351D01*
X023008Y011311D01*
X022594Y011311D01*
X022594Y011508D02*
X022594Y011548D01*
X023008Y011548D01*
X023008Y011508D01*
X022594Y011508D01*
X022594Y011705D02*
X022594Y011745D01*
X023008Y011745D01*
X023008Y011705D01*
X022594Y011705D01*
X022594Y011902D02*
X022594Y011942D01*
X023008Y011942D01*
X023008Y011902D01*
X022594Y011902D01*
X022594Y012099D02*
X022594Y012139D01*
X023008Y012139D01*
X023008Y012099D01*
X022594Y012099D01*
X022594Y012296D02*
X022594Y012336D01*
X023008Y012336D01*
X023008Y012296D01*
X022594Y012296D01*
D23*
X010295Y006932D03*
X010098Y006932D03*
X009901Y006932D03*
X009704Y006932D03*
X009507Y006932D03*
X009507Y005475D03*
X009704Y005475D03*
X009901Y005475D03*
X010098Y005475D03*
X010295Y005475D03*
D24*
X010630Y005810D03*
X010630Y006007D03*
X010630Y006204D03*
X010630Y006400D03*
X010630Y006597D03*
X009173Y006597D03*
X009173Y006400D03*
X009173Y006204D03*
X009173Y006007D03*
X009173Y005810D03*
D25*
X004751Y006330D02*
X004457Y006330D01*
X003845Y006704D02*
X003551Y006704D01*
X004457Y007078D02*
X004751Y007078D01*
X004751Y009330D02*
X004457Y009330D01*
X004457Y010078D02*
X004751Y010078D01*
X003845Y009704D02*
X003551Y009704D01*
X004457Y012330D02*
X004751Y012330D01*
X004751Y013078D02*
X004457Y013078D01*
X003845Y012704D02*
X003551Y012704D01*
X004457Y004078D02*
X004751Y004078D01*
X004751Y003330D02*
X004457Y003330D01*
X003845Y003704D02*
X003551Y003704D01*
D26*
X024901Y006704D03*
X025651Y007204D03*
X025651Y006204D03*
D27*
X020189Y014731D03*
X020189Y015676D03*
X018614Y015676D03*
X018614Y014731D03*
D28*
X014124Y008741D03*
X013179Y008741D03*
X013179Y007166D03*
X014124Y007166D03*
D29*
X014767Y014784D03*
X015023Y014784D03*
X015279Y014784D03*
X015535Y014784D03*
X015535Y016123D03*
X015279Y016123D03*
X015023Y016123D03*
X014767Y016123D03*
D30*
X014482Y015837D03*
X014482Y015581D03*
X014482Y015326D03*
X014482Y015070D03*
X015820Y015070D03*
X015820Y015326D03*
X015820Y015581D03*
X015820Y015837D03*
D31*
X016651Y016198D03*
X016651Y016709D03*
X015901Y016948D03*
X015901Y017459D03*
X014901Y017459D03*
X014901Y016948D03*
X013901Y016948D03*
X013901Y017459D03*
X017651Y016709D03*
X017651Y016198D03*
X017651Y015209D03*
X017651Y014698D03*
X022151Y014709D03*
X022151Y014198D03*
X023901Y013959D03*
X023901Y013448D03*
X014151Y006209D03*
X014151Y005698D03*
X012651Y005698D03*
X012651Y006209D03*
X011151Y007448D03*
X011151Y007959D03*
X006901Y011698D03*
X006901Y012209D03*
X005151Y013198D03*
X005151Y013709D03*
X002901Y012209D03*
X002901Y011698D03*
X005151Y010709D03*
X005151Y010198D03*
X002901Y009209D03*
X002901Y008698D03*
X005151Y007709D03*
X005151Y007198D03*
X002901Y006209D03*
X002901Y005698D03*
X005151Y004709D03*
X005151Y004198D03*
X002901Y003209D03*
X002901Y002698D03*
D32*
X009645Y007954D03*
X010157Y007954D03*
X011645Y008704D03*
X012157Y008704D03*
X014145Y013954D03*
X014657Y013954D03*
X015395Y014204D03*
X015907Y014204D03*
X019645Y016454D03*
X020157Y016454D03*
X022895Y015704D03*
X023407Y015704D03*
X024395Y016954D03*
X024907Y016954D03*
X024895Y014204D03*
X025407Y014204D03*
D33*
X028401Y025954D03*
D34*
X028401Y027331D03*
X028401Y028709D03*
D35*
X028452Y022954D03*
X027350Y022954D03*
D36*
X027021Y023954D03*
X028281Y023954D03*
X018781Y028454D03*
X017521Y028454D03*
D37*
X022401Y026648D03*
X022901Y026648D03*
X023401Y026648D03*
X023901Y026648D03*
X023901Y024759D03*
X023401Y024759D03*
X022901Y024759D03*
X022401Y024759D03*
X020651Y022648D03*
X020151Y022648D03*
X019651Y022648D03*
X019151Y022648D03*
X019151Y020759D03*
X019651Y020759D03*
X020151Y020759D03*
X020651Y020759D03*
D38*
X017657Y024204D03*
X016145Y024204D03*
D39*
X016901Y022300D03*
X016901Y020607D03*
X019901Y026607D03*
X019901Y028300D03*
D40*
X027167Y004083D03*
X027167Y003769D03*
X027167Y003454D03*
X027167Y003139D03*
X027167Y002824D03*
D41*
X027167Y001682D03*
X029332Y001682D03*
X029332Y005225D03*
X027167Y005225D03*
D42*
X028151Y004320D03*
X028151Y002587D03*
D43*
X025901Y001954D03*
X025401Y004954D03*
X024401Y005454D03*
X022651Y006704D03*
X022151Y004704D03*
X021651Y003954D03*
X021151Y003204D03*
X020651Y004204D03*
X020651Y004954D03*
X019651Y005204D03*
X019401Y003954D03*
X020151Y003204D03*
X016901Y005954D03*
X015651Y008454D03*
X013401Y005954D03*
X011901Y005954D03*
X011151Y005704D03*
X011901Y007204D03*
X009401Y004454D03*
X006651Y003204D03*
X005151Y002704D03*
X005151Y005704D03*
X005151Y008704D03*
X005151Y011704D03*
X005151Y015204D03*
X007901Y015454D03*
X009401Y015454D03*
X010901Y015454D03*
X012151Y014454D03*
X013151Y014954D03*
X013151Y013954D03*
X013651Y012954D03*
X011901Y012704D03*
X012401Y010454D03*
X009547Y011454D03*
X013401Y018954D03*
X014151Y018954D03*
X014901Y018954D03*
X015651Y018954D03*
X016401Y018954D03*
X016901Y018454D03*
X017401Y017954D03*
X018151Y017954D03*
X018901Y017954D03*
X019651Y017954D03*
X020401Y017954D03*
X021151Y017954D03*
X021901Y017954D03*
X022651Y017954D03*
X023401Y017954D03*
X024151Y017954D03*
X024901Y017954D03*
X025651Y017954D03*
X026401Y017954D03*
X026401Y017204D03*
X026901Y016704D03*
X027651Y016704D03*
X024651Y013704D03*
X025651Y013454D03*
X023401Y014704D03*
X022901Y014204D03*
X023401Y016454D03*
X020151Y013954D03*
X018651Y016704D03*
X022651Y021204D03*
X022151Y021704D03*
X022151Y022454D03*
X021401Y022454D03*
X021401Y021704D03*
X020651Y021704D03*
X019901Y021704D03*
X019151Y021704D03*
X022401Y025704D03*
X023151Y025704D03*
X023901Y025704D03*
X024651Y025704D03*
X025401Y025704D03*
X025401Y026454D03*
X024651Y026454D03*
X026151Y026454D03*
X026151Y025704D03*
X024901Y021204D03*
X024151Y021204D03*
X023401Y021204D03*
X012901Y022454D03*
X012901Y028204D03*
X026651Y010704D03*
X027401Y010454D03*
X024901Y008704D03*
M02*
