G75*
G70*
%OFA0B0*%
%FSLAX24Y24*%
%IPPOS*%
%LPD*%
%AMOC8*
5,1,8,0,0,1.08239X$1,22.5*
%
%ADD10R,0.0146X0.0256*%
%ADD11R,0.0256X0.0146*%
%ADD12R,0.0197X0.0197*%
%ADD13R,0.0551X0.0472*%
%ADD14R,0.0315X0.0472*%
%ADD15R,0.0472X0.0315*%
%ADD16R,0.0600X0.0300*%
%ADD17C,0.0094*%
%ADD18R,0.0098X0.0197*%
%ADD19R,0.0197X0.0098*%
%ADD20C,0.0256*%
%ADD21R,0.0709X0.0472*%
%ADD22R,0.0472X0.0709*%
%ADD23R,0.0118X0.0157*%
%ADD24R,0.0157X0.0118*%
%ADD25R,0.0354X0.0276*%
%ADD26R,0.0276X0.0354*%
%ADD27R,0.0630X0.0709*%
%ADD28R,0.0472X0.0787*%
%ADD29R,0.0236X0.0787*%
%ADD30R,0.0846X0.2165*%
%ADD31R,0.0579X0.0500*%
%ADD32R,0.0984X0.0197*%
%ADD33R,0.0984X0.0787*%
D10*
X024517Y014765D03*
X024773Y014765D03*
X025029Y014765D03*
X025285Y014765D03*
X025285Y016143D03*
X025029Y016143D03*
X024773Y016143D03*
X024517Y016143D03*
D11*
X024212Y015837D03*
X024212Y015581D03*
X024212Y015326D03*
X024212Y015070D03*
X025590Y015070D03*
X025590Y015326D03*
X025590Y015581D03*
X025590Y015837D03*
D12*
X024901Y015454D03*
D13*
X014401Y025113D03*
X014401Y026294D03*
X010901Y019044D03*
X010901Y017863D03*
X009401Y017863D03*
X009401Y019044D03*
X007901Y019044D03*
X007901Y017863D03*
X005651Y017863D03*
X005651Y019044D03*
X004401Y019044D03*
X004401Y017863D03*
D14*
X012797Y010954D03*
X013506Y010954D03*
X019547Y019454D03*
X020256Y019454D03*
X020797Y019454D03*
X021506Y019454D03*
X021297Y020704D03*
X022006Y020704D03*
X023047Y023704D03*
X023756Y023704D03*
X024297Y023704D03*
X025006Y023704D03*
X024797Y024704D03*
X025506Y024704D03*
X018256Y029704D03*
X017547Y029704D03*
X017506Y025954D03*
X016797Y025954D03*
X025047Y003954D03*
X025756Y003954D03*
X025756Y002954D03*
X025047Y002954D03*
D15*
X022401Y005349D03*
X022401Y006058D03*
X020651Y006058D03*
X020651Y005349D03*
X018651Y003808D03*
X018651Y003099D03*
X015401Y009099D03*
X015401Y009808D03*
X010901Y016349D03*
X010901Y017058D03*
X009401Y017058D03*
X009401Y016349D03*
X007901Y016349D03*
X007901Y017058D03*
X005651Y017058D03*
X005651Y016349D03*
X004401Y016349D03*
X004401Y017058D03*
X007901Y012308D03*
X007901Y011599D03*
X008651Y011599D03*
X008651Y012308D03*
X014401Y021849D03*
X014401Y022558D03*
X014401Y023599D03*
X014401Y024308D03*
X015651Y022558D03*
X015651Y021849D03*
X018151Y021849D03*
X018151Y022558D03*
X019401Y024349D03*
X019401Y025058D03*
X020151Y024849D03*
X020151Y024308D03*
X020151Y023599D03*
X020151Y025558D03*
X018151Y026099D03*
X018151Y026808D03*
X016651Y027349D03*
X016651Y028058D03*
X015651Y028058D03*
X015651Y027349D03*
X021401Y027349D03*
X021401Y028058D03*
X021401Y028849D03*
X021401Y029558D03*
X022651Y029058D03*
X022651Y028349D03*
X023401Y028308D03*
X023401Y028849D03*
X023401Y029558D03*
X023401Y027599D03*
X023401Y022808D03*
X023401Y022099D03*
X024651Y022099D03*
X024651Y022808D03*
X025901Y022808D03*
X025901Y022099D03*
X025651Y020308D03*
X025651Y019599D03*
X024401Y019599D03*
X024401Y020308D03*
X023151Y020308D03*
X023151Y019599D03*
X025901Y011058D03*
X025901Y010349D03*
D16*
X009901Y012954D03*
X009901Y014454D03*
X007901Y014454D03*
X007901Y012954D03*
D17*
X016303Y012328D02*
X016303Y012304D01*
X016303Y012328D02*
X016701Y012328D01*
X016701Y012304D01*
X016303Y012304D01*
X016303Y012131D02*
X016303Y012107D01*
X016303Y012131D02*
X016701Y012131D01*
X016701Y012107D01*
X016303Y012107D01*
X016303Y011934D02*
X016303Y011910D01*
X016303Y011934D02*
X016701Y011934D01*
X016701Y011910D01*
X016303Y011910D01*
X016303Y011737D02*
X016303Y011713D01*
X016303Y011737D02*
X016701Y011737D01*
X016701Y011713D01*
X016303Y011713D01*
X016303Y011540D02*
X016303Y011516D01*
X016303Y011540D02*
X016701Y011540D01*
X016701Y011516D01*
X016303Y011516D01*
X016303Y011343D02*
X016303Y011319D01*
X016303Y011343D02*
X016701Y011343D01*
X016701Y011319D01*
X016303Y011319D01*
X016303Y011147D02*
X016303Y011123D01*
X016303Y011147D02*
X016701Y011147D01*
X016701Y011123D01*
X016303Y011123D01*
X016303Y010950D02*
X016303Y010926D01*
X016303Y010950D02*
X016701Y010950D01*
X016701Y010926D01*
X016303Y010926D01*
X016303Y010753D02*
X016303Y010729D01*
X016303Y010753D02*
X016701Y010753D01*
X016701Y010729D01*
X016303Y010729D01*
X016303Y010556D02*
X016303Y010532D01*
X016303Y010556D02*
X016701Y010556D01*
X016701Y010532D01*
X016303Y010532D01*
X016303Y010359D02*
X016303Y010335D01*
X016303Y010359D02*
X016701Y010359D01*
X016701Y010335D01*
X016303Y010335D01*
X016303Y010162D02*
X016303Y010138D01*
X016303Y010162D02*
X016701Y010162D01*
X016701Y010138D01*
X016303Y010138D01*
X016303Y009966D02*
X016303Y009942D01*
X016303Y009966D02*
X016701Y009966D01*
X016701Y009942D01*
X016303Y009942D01*
X016303Y009769D02*
X016303Y009745D01*
X016303Y009769D02*
X016701Y009769D01*
X016701Y009745D01*
X016303Y009745D01*
X016303Y009572D02*
X016303Y009548D01*
X016303Y009572D02*
X016701Y009572D01*
X016701Y009548D01*
X016303Y009548D01*
X016303Y009375D02*
X016303Y009351D01*
X016303Y009375D02*
X016701Y009375D01*
X016701Y009351D01*
X016303Y009351D01*
X016303Y009178D02*
X016303Y009154D01*
X016303Y009178D02*
X016701Y009178D01*
X016701Y009154D01*
X016303Y009154D01*
X016303Y008981D02*
X016303Y008957D01*
X016303Y008981D02*
X016701Y008981D01*
X016701Y008957D01*
X016303Y008957D01*
X016303Y008784D02*
X016303Y008760D01*
X016303Y008784D02*
X016701Y008784D01*
X016701Y008760D01*
X016303Y008760D01*
X016303Y008588D02*
X016303Y008564D01*
X016303Y008588D02*
X016701Y008588D01*
X016701Y008564D01*
X016303Y008564D01*
X016303Y008391D02*
X016303Y008367D01*
X016303Y008391D02*
X016701Y008391D01*
X016701Y008367D01*
X016303Y008367D01*
X016303Y008194D02*
X016303Y008170D01*
X016303Y008194D02*
X016701Y008194D01*
X016701Y008170D01*
X016303Y008170D01*
X016303Y007997D02*
X016303Y007973D01*
X016303Y007997D02*
X016701Y007997D01*
X016701Y007973D01*
X016303Y007973D01*
X016303Y007800D02*
X016303Y007776D01*
X016303Y007800D02*
X016701Y007800D01*
X016701Y007776D01*
X016303Y007776D01*
X016303Y007603D02*
X016303Y007579D01*
X016303Y007603D02*
X016701Y007603D01*
X016701Y007579D01*
X016303Y007579D01*
X017277Y007003D02*
X017277Y006605D01*
X017277Y007003D02*
X017301Y007003D01*
X017301Y006605D01*
X017277Y006605D01*
X017277Y006698D02*
X017301Y006698D01*
X017301Y006791D02*
X017277Y006791D01*
X017277Y006884D02*
X017301Y006884D01*
X017301Y006977D02*
X017277Y006977D01*
X017474Y007003D02*
X017474Y006605D01*
X017474Y007003D02*
X017498Y007003D01*
X017498Y006605D01*
X017474Y006605D01*
X017474Y006698D02*
X017498Y006698D01*
X017498Y006791D02*
X017474Y006791D01*
X017474Y006884D02*
X017498Y006884D01*
X017498Y006977D02*
X017474Y006977D01*
X017671Y007003D02*
X017671Y006605D01*
X017671Y007003D02*
X017695Y007003D01*
X017695Y006605D01*
X017671Y006605D01*
X017671Y006698D02*
X017695Y006698D01*
X017695Y006791D02*
X017671Y006791D01*
X017671Y006884D02*
X017695Y006884D01*
X017695Y006977D02*
X017671Y006977D01*
X017868Y007003D02*
X017868Y006605D01*
X017868Y007003D02*
X017892Y007003D01*
X017892Y006605D01*
X017868Y006605D01*
X017868Y006698D02*
X017892Y006698D01*
X017892Y006791D02*
X017868Y006791D01*
X017868Y006884D02*
X017892Y006884D01*
X017892Y006977D02*
X017868Y006977D01*
X018064Y007003D02*
X018064Y006605D01*
X018064Y007003D02*
X018088Y007003D01*
X018088Y006605D01*
X018064Y006605D01*
X018064Y006698D02*
X018088Y006698D01*
X018088Y006791D02*
X018064Y006791D01*
X018064Y006884D02*
X018088Y006884D01*
X018088Y006977D02*
X018064Y006977D01*
X018261Y007003D02*
X018261Y006605D01*
X018261Y007003D02*
X018285Y007003D01*
X018285Y006605D01*
X018261Y006605D01*
X018261Y006698D02*
X018285Y006698D01*
X018285Y006791D02*
X018261Y006791D01*
X018261Y006884D02*
X018285Y006884D01*
X018285Y006977D02*
X018261Y006977D01*
X018458Y007003D02*
X018458Y006605D01*
X018458Y007003D02*
X018482Y007003D01*
X018482Y006605D01*
X018458Y006605D01*
X018458Y006698D02*
X018482Y006698D01*
X018482Y006791D02*
X018458Y006791D01*
X018458Y006884D02*
X018482Y006884D01*
X018482Y006977D02*
X018458Y006977D01*
X018655Y007003D02*
X018655Y006605D01*
X018655Y007003D02*
X018679Y007003D01*
X018679Y006605D01*
X018655Y006605D01*
X018655Y006698D02*
X018679Y006698D01*
X018679Y006791D02*
X018655Y006791D01*
X018655Y006884D02*
X018679Y006884D01*
X018679Y006977D02*
X018655Y006977D01*
X018852Y007003D02*
X018852Y006605D01*
X018852Y007003D02*
X018876Y007003D01*
X018876Y006605D01*
X018852Y006605D01*
X018852Y006698D02*
X018876Y006698D01*
X018876Y006791D02*
X018852Y006791D01*
X018852Y006884D02*
X018876Y006884D01*
X018876Y006977D02*
X018852Y006977D01*
X019049Y007003D02*
X019049Y006605D01*
X019049Y007003D02*
X019073Y007003D01*
X019073Y006605D01*
X019049Y006605D01*
X019049Y006698D02*
X019073Y006698D01*
X019073Y006791D02*
X019049Y006791D01*
X019049Y006884D02*
X019073Y006884D01*
X019073Y006977D02*
X019049Y006977D01*
X019245Y007003D02*
X019245Y006605D01*
X019245Y007003D02*
X019269Y007003D01*
X019269Y006605D01*
X019245Y006605D01*
X019245Y006698D02*
X019269Y006698D01*
X019269Y006791D02*
X019245Y006791D01*
X019245Y006884D02*
X019269Y006884D01*
X019269Y006977D02*
X019245Y006977D01*
X019442Y007003D02*
X019442Y006605D01*
X019442Y007003D02*
X019466Y007003D01*
X019466Y006605D01*
X019442Y006605D01*
X019442Y006698D02*
X019466Y006698D01*
X019466Y006791D02*
X019442Y006791D01*
X019442Y006884D02*
X019466Y006884D01*
X019466Y006977D02*
X019442Y006977D01*
X019639Y007003D02*
X019639Y006605D01*
X019639Y007003D02*
X019663Y007003D01*
X019663Y006605D01*
X019639Y006605D01*
X019639Y006698D02*
X019663Y006698D01*
X019663Y006791D02*
X019639Y006791D01*
X019639Y006884D02*
X019663Y006884D01*
X019663Y006977D02*
X019639Y006977D01*
X019836Y007003D02*
X019836Y006605D01*
X019836Y007003D02*
X019860Y007003D01*
X019860Y006605D01*
X019836Y006605D01*
X019836Y006698D02*
X019860Y006698D01*
X019860Y006791D02*
X019836Y006791D01*
X019836Y006884D02*
X019860Y006884D01*
X019860Y006977D02*
X019836Y006977D01*
X020033Y007003D02*
X020033Y006605D01*
X020033Y007003D02*
X020057Y007003D01*
X020057Y006605D01*
X020033Y006605D01*
X020033Y006698D02*
X020057Y006698D01*
X020057Y006791D02*
X020033Y006791D01*
X020033Y006884D02*
X020057Y006884D01*
X020057Y006977D02*
X020033Y006977D01*
X020230Y007003D02*
X020230Y006605D01*
X020230Y007003D02*
X020254Y007003D01*
X020254Y006605D01*
X020230Y006605D01*
X020230Y006698D02*
X020254Y006698D01*
X020254Y006791D02*
X020230Y006791D01*
X020230Y006884D02*
X020254Y006884D01*
X020254Y006977D02*
X020230Y006977D01*
X020427Y007003D02*
X020427Y006605D01*
X020427Y007003D02*
X020451Y007003D01*
X020451Y006605D01*
X020427Y006605D01*
X020427Y006698D02*
X020451Y006698D01*
X020451Y006791D02*
X020427Y006791D01*
X020427Y006884D02*
X020451Y006884D01*
X020451Y006977D02*
X020427Y006977D01*
X020623Y007003D02*
X020623Y006605D01*
X020623Y007003D02*
X020647Y007003D01*
X020647Y006605D01*
X020623Y006605D01*
X020623Y006698D02*
X020647Y006698D01*
X020647Y006791D02*
X020623Y006791D01*
X020623Y006884D02*
X020647Y006884D01*
X020647Y006977D02*
X020623Y006977D01*
X020820Y007003D02*
X020820Y006605D01*
X020820Y007003D02*
X020844Y007003D01*
X020844Y006605D01*
X020820Y006605D01*
X020820Y006698D02*
X020844Y006698D01*
X020844Y006791D02*
X020820Y006791D01*
X020820Y006884D02*
X020844Y006884D01*
X020844Y006977D02*
X020820Y006977D01*
X021017Y007003D02*
X021017Y006605D01*
X021017Y007003D02*
X021041Y007003D01*
X021041Y006605D01*
X021017Y006605D01*
X021017Y006698D02*
X021041Y006698D01*
X021041Y006791D02*
X021017Y006791D01*
X021017Y006884D02*
X021041Y006884D01*
X021041Y006977D02*
X021017Y006977D01*
X021214Y007003D02*
X021214Y006605D01*
X021214Y007003D02*
X021238Y007003D01*
X021238Y006605D01*
X021214Y006605D01*
X021214Y006698D02*
X021238Y006698D01*
X021238Y006791D02*
X021214Y006791D01*
X021214Y006884D02*
X021238Y006884D01*
X021238Y006977D02*
X021214Y006977D01*
X021411Y007003D02*
X021411Y006605D01*
X021411Y007003D02*
X021435Y007003D01*
X021435Y006605D01*
X021411Y006605D01*
X021411Y006698D02*
X021435Y006698D01*
X021435Y006791D02*
X021411Y006791D01*
X021411Y006884D02*
X021435Y006884D01*
X021435Y006977D02*
X021411Y006977D01*
X021608Y007003D02*
X021608Y006605D01*
X021608Y007003D02*
X021632Y007003D01*
X021632Y006605D01*
X021608Y006605D01*
X021608Y006698D02*
X021632Y006698D01*
X021632Y006791D02*
X021608Y006791D01*
X021608Y006884D02*
X021632Y006884D01*
X021632Y006977D02*
X021608Y006977D01*
X021805Y007003D02*
X021805Y006605D01*
X021805Y007003D02*
X021829Y007003D01*
X021829Y006605D01*
X021805Y006605D01*
X021805Y006698D02*
X021829Y006698D01*
X021829Y006791D02*
X021805Y006791D01*
X021805Y006884D02*
X021829Y006884D01*
X021829Y006977D02*
X021805Y006977D01*
X022001Y007003D02*
X022001Y006605D01*
X022001Y007003D02*
X022025Y007003D01*
X022025Y006605D01*
X022001Y006605D01*
X022001Y006698D02*
X022025Y006698D01*
X022025Y006791D02*
X022001Y006791D01*
X022001Y006884D02*
X022025Y006884D01*
X022025Y006977D02*
X022001Y006977D01*
X022602Y007579D02*
X022602Y007603D01*
X023000Y007603D01*
X023000Y007579D01*
X022602Y007579D01*
X022602Y007776D02*
X022602Y007800D01*
X023000Y007800D01*
X023000Y007776D01*
X022602Y007776D01*
X022602Y007973D02*
X022602Y007997D01*
X023000Y007997D01*
X023000Y007973D01*
X022602Y007973D01*
X022602Y008170D02*
X022602Y008194D01*
X023000Y008194D01*
X023000Y008170D01*
X022602Y008170D01*
X022602Y008367D02*
X022602Y008391D01*
X023000Y008391D01*
X023000Y008367D01*
X022602Y008367D01*
X022602Y008564D02*
X022602Y008588D01*
X023000Y008588D01*
X023000Y008564D01*
X022602Y008564D01*
X022602Y008760D02*
X022602Y008784D01*
X023000Y008784D01*
X023000Y008760D01*
X022602Y008760D01*
X022602Y008957D02*
X022602Y008981D01*
X023000Y008981D01*
X023000Y008957D01*
X022602Y008957D01*
X022602Y009154D02*
X022602Y009178D01*
X023000Y009178D01*
X023000Y009154D01*
X022602Y009154D01*
X022602Y009351D02*
X022602Y009375D01*
X023000Y009375D01*
X023000Y009351D01*
X022602Y009351D01*
X022602Y009548D02*
X022602Y009572D01*
X023000Y009572D01*
X023000Y009548D01*
X022602Y009548D01*
X022602Y009745D02*
X022602Y009769D01*
X023000Y009769D01*
X023000Y009745D01*
X022602Y009745D01*
X022602Y009942D02*
X022602Y009966D01*
X023000Y009966D01*
X023000Y009942D01*
X022602Y009942D01*
X022602Y010138D02*
X022602Y010162D01*
X023000Y010162D01*
X023000Y010138D01*
X022602Y010138D01*
X022602Y010335D02*
X022602Y010359D01*
X023000Y010359D01*
X023000Y010335D01*
X022602Y010335D01*
X022602Y010532D02*
X022602Y010556D01*
X023000Y010556D01*
X023000Y010532D01*
X022602Y010532D01*
X022602Y010729D02*
X022602Y010753D01*
X023000Y010753D01*
X023000Y010729D01*
X022602Y010729D01*
X022602Y010926D02*
X022602Y010950D01*
X023000Y010950D01*
X023000Y010926D01*
X022602Y010926D01*
X022602Y011123D02*
X022602Y011147D01*
X023000Y011147D01*
X023000Y011123D01*
X022602Y011123D01*
X022602Y011319D02*
X022602Y011343D01*
X023000Y011343D01*
X023000Y011319D01*
X022602Y011319D01*
X022602Y011516D02*
X022602Y011540D01*
X023000Y011540D01*
X023000Y011516D01*
X022602Y011516D01*
X022602Y011713D02*
X022602Y011737D01*
X023000Y011737D01*
X023000Y011713D01*
X022602Y011713D01*
X022602Y011910D02*
X022602Y011934D01*
X023000Y011934D01*
X023000Y011910D01*
X022602Y011910D01*
X022602Y012107D02*
X022602Y012131D01*
X023000Y012131D01*
X023000Y012107D01*
X022602Y012107D01*
X022602Y012304D02*
X022602Y012328D01*
X023000Y012328D01*
X023000Y012304D01*
X022602Y012304D01*
X022001Y012904D02*
X022001Y013302D01*
X022025Y013302D01*
X022025Y012904D01*
X022001Y012904D01*
X022001Y012997D02*
X022025Y012997D01*
X022025Y013090D02*
X022001Y013090D01*
X022001Y013183D02*
X022025Y013183D01*
X022025Y013276D02*
X022001Y013276D01*
X021805Y013302D02*
X021805Y012904D01*
X021805Y013302D02*
X021829Y013302D01*
X021829Y012904D01*
X021805Y012904D01*
X021805Y012997D02*
X021829Y012997D01*
X021829Y013090D02*
X021805Y013090D01*
X021805Y013183D02*
X021829Y013183D01*
X021829Y013276D02*
X021805Y013276D01*
X021608Y013302D02*
X021608Y012904D01*
X021608Y013302D02*
X021632Y013302D01*
X021632Y012904D01*
X021608Y012904D01*
X021608Y012997D02*
X021632Y012997D01*
X021632Y013090D02*
X021608Y013090D01*
X021608Y013183D02*
X021632Y013183D01*
X021632Y013276D02*
X021608Y013276D01*
X021411Y013302D02*
X021411Y012904D01*
X021411Y013302D02*
X021435Y013302D01*
X021435Y012904D01*
X021411Y012904D01*
X021411Y012997D02*
X021435Y012997D01*
X021435Y013090D02*
X021411Y013090D01*
X021411Y013183D02*
X021435Y013183D01*
X021435Y013276D02*
X021411Y013276D01*
X021214Y013302D02*
X021214Y012904D01*
X021214Y013302D02*
X021238Y013302D01*
X021238Y012904D01*
X021214Y012904D01*
X021214Y012997D02*
X021238Y012997D01*
X021238Y013090D02*
X021214Y013090D01*
X021214Y013183D02*
X021238Y013183D01*
X021238Y013276D02*
X021214Y013276D01*
X021017Y013302D02*
X021017Y012904D01*
X021017Y013302D02*
X021041Y013302D01*
X021041Y012904D01*
X021017Y012904D01*
X021017Y012997D02*
X021041Y012997D01*
X021041Y013090D02*
X021017Y013090D01*
X021017Y013183D02*
X021041Y013183D01*
X021041Y013276D02*
X021017Y013276D01*
X020820Y013302D02*
X020820Y012904D01*
X020820Y013302D02*
X020844Y013302D01*
X020844Y012904D01*
X020820Y012904D01*
X020820Y012997D02*
X020844Y012997D01*
X020844Y013090D02*
X020820Y013090D01*
X020820Y013183D02*
X020844Y013183D01*
X020844Y013276D02*
X020820Y013276D01*
X020623Y013302D02*
X020623Y012904D01*
X020623Y013302D02*
X020647Y013302D01*
X020647Y012904D01*
X020623Y012904D01*
X020623Y012997D02*
X020647Y012997D01*
X020647Y013090D02*
X020623Y013090D01*
X020623Y013183D02*
X020647Y013183D01*
X020647Y013276D02*
X020623Y013276D01*
X020427Y013302D02*
X020427Y012904D01*
X020427Y013302D02*
X020451Y013302D01*
X020451Y012904D01*
X020427Y012904D01*
X020427Y012997D02*
X020451Y012997D01*
X020451Y013090D02*
X020427Y013090D01*
X020427Y013183D02*
X020451Y013183D01*
X020451Y013276D02*
X020427Y013276D01*
X020230Y013302D02*
X020230Y012904D01*
X020230Y013302D02*
X020254Y013302D01*
X020254Y012904D01*
X020230Y012904D01*
X020230Y012997D02*
X020254Y012997D01*
X020254Y013090D02*
X020230Y013090D01*
X020230Y013183D02*
X020254Y013183D01*
X020254Y013276D02*
X020230Y013276D01*
X020033Y013302D02*
X020033Y012904D01*
X020033Y013302D02*
X020057Y013302D01*
X020057Y012904D01*
X020033Y012904D01*
X020033Y012997D02*
X020057Y012997D01*
X020057Y013090D02*
X020033Y013090D01*
X020033Y013183D02*
X020057Y013183D01*
X020057Y013276D02*
X020033Y013276D01*
X019836Y013302D02*
X019836Y012904D01*
X019836Y013302D02*
X019860Y013302D01*
X019860Y012904D01*
X019836Y012904D01*
X019836Y012997D02*
X019860Y012997D01*
X019860Y013090D02*
X019836Y013090D01*
X019836Y013183D02*
X019860Y013183D01*
X019860Y013276D02*
X019836Y013276D01*
X019639Y013302D02*
X019639Y012904D01*
X019639Y013302D02*
X019663Y013302D01*
X019663Y012904D01*
X019639Y012904D01*
X019639Y012997D02*
X019663Y012997D01*
X019663Y013090D02*
X019639Y013090D01*
X019639Y013183D02*
X019663Y013183D01*
X019663Y013276D02*
X019639Y013276D01*
X019442Y013302D02*
X019442Y012904D01*
X019442Y013302D02*
X019466Y013302D01*
X019466Y012904D01*
X019442Y012904D01*
X019442Y012997D02*
X019466Y012997D01*
X019466Y013090D02*
X019442Y013090D01*
X019442Y013183D02*
X019466Y013183D01*
X019466Y013276D02*
X019442Y013276D01*
X019245Y013302D02*
X019245Y012904D01*
X019245Y013302D02*
X019269Y013302D01*
X019269Y012904D01*
X019245Y012904D01*
X019245Y012997D02*
X019269Y012997D01*
X019269Y013090D02*
X019245Y013090D01*
X019245Y013183D02*
X019269Y013183D01*
X019269Y013276D02*
X019245Y013276D01*
X019049Y013302D02*
X019049Y012904D01*
X019049Y013302D02*
X019073Y013302D01*
X019073Y012904D01*
X019049Y012904D01*
X019049Y012997D02*
X019073Y012997D01*
X019073Y013090D02*
X019049Y013090D01*
X019049Y013183D02*
X019073Y013183D01*
X019073Y013276D02*
X019049Y013276D01*
X018852Y013302D02*
X018852Y012904D01*
X018852Y013302D02*
X018876Y013302D01*
X018876Y012904D01*
X018852Y012904D01*
X018852Y012997D02*
X018876Y012997D01*
X018876Y013090D02*
X018852Y013090D01*
X018852Y013183D02*
X018876Y013183D01*
X018876Y013276D02*
X018852Y013276D01*
X018655Y013302D02*
X018655Y012904D01*
X018655Y013302D02*
X018679Y013302D01*
X018679Y012904D01*
X018655Y012904D01*
X018655Y012997D02*
X018679Y012997D01*
X018679Y013090D02*
X018655Y013090D01*
X018655Y013183D02*
X018679Y013183D01*
X018679Y013276D02*
X018655Y013276D01*
X018458Y013302D02*
X018458Y012904D01*
X018458Y013302D02*
X018482Y013302D01*
X018482Y012904D01*
X018458Y012904D01*
X018458Y012997D02*
X018482Y012997D01*
X018482Y013090D02*
X018458Y013090D01*
X018458Y013183D02*
X018482Y013183D01*
X018482Y013276D02*
X018458Y013276D01*
X018261Y013302D02*
X018261Y012904D01*
X018261Y013302D02*
X018285Y013302D01*
X018285Y012904D01*
X018261Y012904D01*
X018261Y012997D02*
X018285Y012997D01*
X018285Y013090D02*
X018261Y013090D01*
X018261Y013183D02*
X018285Y013183D01*
X018285Y013276D02*
X018261Y013276D01*
X018064Y013302D02*
X018064Y012904D01*
X018064Y013302D02*
X018088Y013302D01*
X018088Y012904D01*
X018064Y012904D01*
X018064Y012997D02*
X018088Y012997D01*
X018088Y013090D02*
X018064Y013090D01*
X018064Y013183D02*
X018088Y013183D01*
X018088Y013276D02*
X018064Y013276D01*
X017868Y013302D02*
X017868Y012904D01*
X017868Y013302D02*
X017892Y013302D01*
X017892Y012904D01*
X017868Y012904D01*
X017868Y012997D02*
X017892Y012997D01*
X017892Y013090D02*
X017868Y013090D01*
X017868Y013183D02*
X017892Y013183D01*
X017892Y013276D02*
X017868Y013276D01*
X017671Y013302D02*
X017671Y012904D01*
X017671Y013302D02*
X017695Y013302D01*
X017695Y012904D01*
X017671Y012904D01*
X017671Y012997D02*
X017695Y012997D01*
X017695Y013090D02*
X017671Y013090D01*
X017671Y013183D02*
X017695Y013183D01*
X017695Y013276D02*
X017671Y013276D01*
X017474Y013302D02*
X017474Y012904D01*
X017474Y013302D02*
X017498Y013302D01*
X017498Y012904D01*
X017474Y012904D01*
X017474Y012997D02*
X017498Y012997D01*
X017498Y013090D02*
X017474Y013090D01*
X017474Y013183D02*
X017498Y013183D01*
X017498Y013276D02*
X017474Y013276D01*
X017277Y013302D02*
X017277Y012904D01*
X017277Y013302D02*
X017301Y013302D01*
X017301Y012904D01*
X017277Y012904D01*
X017277Y012997D02*
X017301Y012997D01*
X017301Y013090D02*
X017277Y013090D01*
X017277Y013183D02*
X017301Y013183D01*
X017301Y013276D02*
X017277Y013276D01*
D18*
X010295Y006932D03*
X010098Y006932D03*
X009901Y006932D03*
X009704Y006932D03*
X009507Y006932D03*
X009507Y005475D03*
X009704Y005475D03*
X009901Y005475D03*
X010098Y005475D03*
X010295Y005475D03*
D19*
X010630Y005810D03*
X010630Y006007D03*
X010630Y006204D03*
X010630Y006400D03*
X010630Y006597D03*
X009173Y006597D03*
X009173Y006400D03*
X009173Y006204D03*
X009173Y006007D03*
X009173Y005810D03*
D20*
X004751Y006330D02*
X004457Y006330D01*
X003845Y006704D02*
X003551Y006704D01*
X004457Y007078D02*
X004751Y007078D01*
X004751Y009330D02*
X004457Y009330D01*
X004457Y010078D02*
X004751Y010078D01*
X003845Y009704D02*
X003551Y009704D01*
X004457Y012330D02*
X004751Y012330D01*
X004751Y013078D02*
X004457Y013078D01*
X003845Y012704D02*
X003551Y012704D01*
X004457Y004078D02*
X004751Y004078D01*
X004751Y003330D02*
X004457Y003330D01*
X003845Y003704D02*
X003551Y003704D01*
D21*
X018614Y014731D03*
X018614Y015676D03*
X020189Y015676D03*
X020189Y014731D03*
D22*
X014124Y008741D03*
X013179Y008741D03*
X013179Y007166D03*
X014124Y007166D03*
D23*
X014767Y014784D03*
X015023Y014784D03*
X015279Y014784D03*
X015535Y014784D03*
X015535Y016123D03*
X015279Y016123D03*
X015023Y016123D03*
X014767Y016123D03*
D24*
X014482Y015837D03*
X014482Y015581D03*
X014482Y015326D03*
X014482Y015070D03*
X015820Y015070D03*
X015820Y015326D03*
X015820Y015581D03*
X015820Y015837D03*
D25*
X002901Y002698D03*
X002901Y003209D03*
X005151Y004198D03*
X005151Y004709D03*
X002901Y005698D03*
X002901Y006209D03*
X005151Y007198D03*
X005151Y007709D03*
X002901Y008698D03*
X002901Y009209D03*
X005151Y010198D03*
X005151Y010709D03*
X006901Y011698D03*
X006901Y012209D03*
X005151Y013198D03*
X005151Y013709D03*
X002901Y012209D03*
X002901Y011698D03*
X011151Y007959D03*
X011151Y007448D03*
X012651Y006209D03*
X012651Y005698D03*
X014151Y005698D03*
X014151Y006209D03*
X022151Y014198D03*
X022151Y014709D03*
X023901Y013959D03*
X023901Y013448D03*
X017651Y014698D03*
X017651Y015209D03*
X017651Y016198D03*
X017651Y016709D03*
X016651Y016709D03*
X016651Y016198D03*
X015901Y016948D03*
X015901Y017459D03*
X014901Y017459D03*
X014901Y016948D03*
X013901Y016948D03*
X013901Y017459D03*
D26*
X015395Y014204D03*
X015907Y014204D03*
X014657Y013954D03*
X014145Y013954D03*
X012157Y008704D03*
X011645Y008704D03*
X010157Y007954D03*
X009645Y007954D03*
X019645Y016454D03*
X020157Y016454D03*
X022895Y015704D03*
X023407Y015704D03*
X024395Y016954D03*
X024907Y016954D03*
X024895Y014204D03*
X025407Y014204D03*
D27*
X027350Y022954D03*
X028452Y022954D03*
D28*
X028281Y023954D03*
X027021Y023954D03*
X018781Y028454D03*
X017521Y028454D03*
D29*
X022401Y026648D03*
X022901Y026648D03*
X023401Y026648D03*
X023901Y026648D03*
X023901Y024759D03*
X023401Y024759D03*
X022901Y024759D03*
X022401Y024759D03*
X020651Y022648D03*
X020151Y022648D03*
X019651Y022648D03*
X019151Y022648D03*
X019151Y020759D03*
X019651Y020759D03*
X020151Y020759D03*
X020651Y020759D03*
D30*
X017657Y024204D03*
X016145Y024204D03*
D31*
X016901Y022300D03*
X016901Y020607D03*
X019901Y026607D03*
X019901Y028300D03*
D32*
X027167Y004083D03*
X027167Y003769D03*
X027167Y003454D03*
X027167Y003139D03*
X027167Y002824D03*
D33*
X027167Y001682D03*
X029332Y001682D03*
X029332Y005225D03*
X027167Y005225D03*
M02*
