G75*
G70*
%OFA0B0*%
%FSLAX24Y24*%
%IPPOS*%
%LPD*%
%AMOC8*
5,1,8,0,0,1.08239X$1,22.5*
%
%ADD10R,0.0580X0.0580*%
%ADD11C,0.0580*%
%ADD12C,0.0720*%
%ADD13R,0.1064X0.1340*%
%ADD14C,0.0395*%
%ADD15R,0.0631X0.0474*%
%ADD16C,0.0820*%
%ADD17OC8,0.0640*%
%ADD18R,0.0880X0.0880*%
%ADD19C,0.0880*%
%ADD20C,0.0434*%
%ADD21C,0.0595*%
D10*
X003608Y020873D03*
D11*
X004395Y020873D03*
X005183Y020873D03*
X005970Y020873D03*
X006757Y020873D03*
X007545Y020873D03*
X008332Y020873D03*
X009120Y020873D03*
X009907Y020873D03*
X010694Y020873D03*
X010694Y029534D03*
X009907Y029534D03*
X009120Y029534D03*
X008332Y029534D03*
X007545Y029534D03*
X006757Y029534D03*
X005970Y029534D03*
X005183Y029534D03*
X004395Y029534D03*
X003608Y029534D03*
D12*
X028831Y013954D02*
X029471Y013954D01*
X029471Y012954D02*
X028831Y012954D01*
X028831Y011954D02*
X029471Y011954D01*
X029471Y010954D02*
X028831Y010954D01*
X028831Y009954D02*
X029471Y009954D01*
X029471Y008954D02*
X028831Y008954D01*
X028831Y007954D02*
X029471Y007954D01*
X029471Y006954D02*
X028831Y006954D01*
X024651Y001774D02*
X024651Y001134D01*
X023651Y001134D02*
X023651Y001774D01*
X022651Y001774D02*
X022651Y001134D01*
X021651Y001134D02*
X021651Y001774D01*
X020651Y001774D02*
X020651Y001134D01*
X019651Y001134D02*
X019651Y001774D01*
X018651Y001774D02*
X018651Y001134D01*
X017651Y001134D02*
X017651Y001774D01*
X012901Y001774D02*
X012901Y001134D01*
X011901Y001134D02*
X011901Y001774D01*
X010901Y001774D02*
X010901Y001134D01*
X009901Y001134D02*
X009901Y001774D01*
X008901Y001774D02*
X008901Y001134D01*
X007901Y001134D02*
X007901Y001774D01*
X006901Y001774D02*
X006901Y001134D01*
X005901Y001134D02*
X005901Y001774D01*
D13*
X003401Y023629D03*
X003401Y026778D03*
D14*
X004937Y026089D03*
X002515Y023668D03*
D15*
X006718Y025204D03*
X007584Y025578D03*
X007584Y024830D03*
D16*
X001651Y001704D03*
X001651Y002704D03*
X001651Y003704D03*
X001651Y004704D03*
X001651Y005704D03*
X001651Y006704D03*
X001651Y007704D03*
X001651Y008704D03*
X001651Y009704D03*
X001651Y010704D03*
X001651Y011704D03*
X001651Y012704D03*
X027901Y018704D03*
X027901Y019704D03*
X027901Y020704D03*
D17*
X026401Y007454D03*
X025651Y006954D03*
X026401Y006454D03*
D18*
X028401Y025954D03*
D19*
X028401Y027331D03*
X028401Y028709D03*
D20*
X028151Y004320D03*
X028151Y002587D03*
D21*
X025901Y001954D03*
X025401Y004954D03*
X024401Y005454D03*
X022651Y006704D03*
X022151Y004704D03*
X021651Y003954D03*
X021151Y003204D03*
X020651Y004204D03*
X020651Y004954D03*
X019651Y005204D03*
X019401Y003954D03*
X020151Y003204D03*
X016901Y005954D03*
X018401Y007954D03*
X017651Y009454D03*
X015651Y008454D03*
X013401Y005954D03*
X011901Y005954D03*
X011151Y005704D03*
X011901Y007204D03*
X009401Y004454D03*
X006651Y003204D03*
X005151Y002704D03*
X005151Y005704D03*
X005151Y008704D03*
X005151Y011704D03*
X005151Y015204D03*
X007901Y015454D03*
X009401Y015454D03*
X010901Y015454D03*
X012151Y014454D03*
X013151Y014954D03*
X013151Y013954D03*
X013651Y012954D03*
X011901Y012704D03*
X012401Y010454D03*
X009547Y011454D03*
X013401Y018954D03*
X014151Y018954D03*
X014901Y018954D03*
X015651Y018954D03*
X016401Y018954D03*
X016901Y018454D03*
X017401Y017954D03*
X018151Y017954D03*
X018901Y017954D03*
X019651Y017954D03*
X020401Y017954D03*
X021151Y017954D03*
X021901Y017954D03*
X022651Y017954D03*
X023401Y017954D03*
X024151Y017954D03*
X024901Y017954D03*
X025651Y017954D03*
X026401Y017954D03*
X026401Y017204D03*
X026901Y016704D03*
X027651Y016704D03*
X024651Y013704D03*
X025651Y013454D03*
X023401Y014704D03*
X022901Y014204D03*
X023401Y016454D03*
X020901Y016704D03*
X018651Y016704D03*
X020151Y013954D03*
X021151Y011454D03*
X021151Y010204D03*
X020901Y009204D03*
X026651Y010704D03*
X027401Y010454D03*
X024901Y021204D03*
X024151Y021204D03*
X023401Y021204D03*
X022651Y021204D03*
X022151Y021704D03*
X022151Y022454D03*
X021401Y022454D03*
X021401Y021704D03*
X020651Y021704D03*
X019901Y021704D03*
X019151Y021704D03*
X022401Y025704D03*
X023151Y025704D03*
X023901Y025704D03*
X024651Y025704D03*
X025401Y025704D03*
X025401Y026454D03*
X024651Y026454D03*
X026151Y026454D03*
X026151Y025704D03*
X012901Y028204D03*
X012901Y022454D03*
M02*
