G75*
%MOIN*%
%OFA0B0*%
%FSLAX25Y25*%
%IPPOS*%
%LPD*%
%AMOC8*
5,1,8,0,0,1.08239X$1,22.5*
%
%ADD10C,0.00500*%
%ADD11R,0.00100X0.03200*%
%ADD12R,0.00100X0.04800*%
%ADD13R,0.00100X0.06800*%
%ADD14R,0.00100X0.07700*%
%ADD15R,0.00100X0.08600*%
%ADD16R,0.00100X0.09800*%
%ADD17R,0.00100X0.10500*%
%ADD18R,0.00100X0.11600*%
%ADD19R,0.00100X0.12100*%
%ADD20R,0.00100X0.12600*%
%ADD21R,0.00100X0.13500*%
%ADD22R,0.00100X0.13900*%
%ADD23R,0.00100X0.14800*%
%ADD24R,0.00100X0.15300*%
%ADD25R,0.00100X0.15500*%
%ADD26R,0.00100X0.16300*%
%ADD27R,0.00100X0.16600*%
%ADD28R,0.00100X0.17000*%
%ADD29R,0.00100X0.17600*%
%ADD30R,0.00100X0.18000*%
%ADD31R,0.00100X0.18600*%
%ADD32R,0.00100X0.18800*%
%ADD33R,0.00100X0.19200*%
%ADD34R,0.00100X0.19700*%
%ADD35R,0.00100X0.20000*%
%ADD36R,0.00100X0.20400*%
%ADD37R,0.00100X0.20800*%
%ADD38R,0.00100X0.21200*%
%ADD39R,0.00100X0.21600*%
%ADD40R,0.00100X0.21800*%
%ADD41R,0.00100X0.22200*%
%ADD42R,0.00100X0.22600*%
%ADD43R,0.00100X0.22800*%
%ADD44R,0.00100X0.23200*%
%ADD45R,0.00100X0.23500*%
%ADD46R,0.00100X0.23800*%
%ADD47R,0.00100X0.24200*%
%ADD48R,0.00100X0.24400*%
%ADD49R,0.00100X0.24600*%
%ADD50R,0.00100X0.25000*%
%ADD51R,0.00100X0.25200*%
%ADD52R,0.00100X0.25600*%
%ADD53R,0.00100X0.25800*%
%ADD54R,0.00100X0.26000*%
%ADD55R,0.00100X0.26400*%
%ADD56R,0.00100X0.26600*%
%ADD57R,0.00100X0.26800*%
%ADD58R,0.00100X0.27100*%
%ADD59R,0.00100X0.27400*%
%ADD60R,0.00100X0.27600*%
%ADD61R,0.00100X0.27900*%
%ADD62R,0.00100X0.28000*%
%ADD63R,0.00100X0.28400*%
%ADD64R,0.00100X0.28600*%
%ADD65R,0.00100X0.28800*%
%ADD66R,0.00100X0.29000*%
%ADD67R,0.00100X0.29200*%
%ADD68R,0.00100X0.29600*%
%ADD69R,0.00100X0.29800*%
%ADD70R,0.00100X0.30000*%
%ADD71R,0.00100X0.30200*%
%ADD72R,0.00100X0.30400*%
%ADD73R,0.00100X0.30600*%
%ADD74R,0.00100X0.30800*%
%ADD75R,0.00100X0.31200*%
%ADD76R,0.00100X0.31400*%
%ADD77R,0.00100X0.31600*%
%ADD78R,0.00100X0.31800*%
%ADD79R,0.00100X0.32000*%
%ADD80R,0.00100X0.32200*%
%ADD81R,0.00100X0.32400*%
%ADD82R,0.00100X0.32700*%
%ADD83R,0.00100X0.32800*%
%ADD84R,0.00100X0.33200*%
%ADD85R,0.00100X0.33500*%
%ADD86R,0.00100X0.33600*%
%ADD87R,0.00100X0.33800*%
%ADD88R,0.00100X0.33900*%
%ADD89R,0.00100X0.34000*%
%ADD90R,0.00100X0.34300*%
%ADD91R,0.00100X0.34400*%
%ADD92R,0.00100X0.34500*%
%ADD93R,0.00100X0.34800*%
%ADD94R,0.00100X0.35000*%
%ADD95R,0.00100X0.35200*%
%ADD96R,0.00100X0.35300*%
%ADD97R,0.00100X0.35400*%
%ADD98R,0.00100X0.35600*%
%ADD99R,0.00100X0.35900*%
%ADD100R,0.00100X0.36000*%
%ADD101R,0.00100X0.36300*%
%ADD102R,0.00100X0.36400*%
%ADD103R,0.00100X0.36600*%
%ADD104R,0.00100X0.36800*%
%ADD105R,0.00100X0.36900*%
%ADD106R,0.00100X0.37000*%
%ADD107R,0.00100X0.37100*%
%ADD108R,0.00100X0.37200*%
%ADD109R,0.00100X0.37400*%
%ADD110R,0.00100X0.37500*%
%ADD111R,0.00100X0.37600*%
%ADD112R,0.00100X0.37900*%
%ADD113R,0.00100X0.38000*%
%ADD114R,0.00100X0.38200*%
%ADD115R,0.00100X0.38300*%
%ADD116R,0.00100X0.38400*%
%ADD117R,0.00100X0.38500*%
%ADD118R,0.00100X0.38600*%
%ADD119R,0.00100X0.06400*%
%ADD120R,0.00100X0.16800*%
%ADD121R,0.00100X0.15100*%
%ADD122R,0.00100X0.15000*%
%ADD123R,0.00100X0.14900*%
%ADD124R,0.00100X0.06500*%
%ADD125R,0.00100X0.16000*%
%ADD126R,0.00100X0.15800*%
%ADD127R,0.00100X0.06600*%
%ADD128R,0.00100X0.15400*%
%ADD129R,0.00100X0.14600*%
%ADD130R,0.00100X0.15200*%
%ADD131R,0.00100X0.14500*%
%ADD132R,0.00100X0.06700*%
%ADD133R,0.00100X0.14400*%
%ADD134R,0.00100X0.14300*%
%ADD135R,0.00100X0.14200*%
%ADD136R,0.00100X0.06900*%
%ADD137R,0.00100X0.13800*%
%ADD138R,0.00100X0.14000*%
%ADD139R,0.00100X0.07100*%
%ADD140R,0.00100X0.13700*%
%ADD141R,0.00100X0.07400*%
%ADD142R,0.00100X0.13300*%
%ADD143R,0.00100X0.07500*%
%ADD144R,0.00100X0.13000*%
%ADD145R,0.00100X0.12800*%
%ADD146R,0.00100X0.07900*%
%ADD147R,0.00100X0.12500*%
%ADD148R,0.00100X0.08000*%
%ADD149R,0.00100X0.12200*%
%ADD150R,0.00100X0.07200*%
%ADD151R,0.00100X0.00800*%
%ADD152R,0.00100X0.00600*%
%ADD153R,0.00100X0.11700*%
%ADD154R,0.00100X0.00700*%
%ADD155R,0.00100X0.11500*%
%ADD156R,0.00100X0.13200*%
%ADD157R,0.00100X0.07300*%
%ADD158R,0.00100X0.11100*%
%ADD159R,0.00100X0.13100*%
%ADD160R,0.00100X0.11000*%
%ADD161R,0.00100X0.10700*%
%ADD162R,0.00100X0.10400*%
%ADD163R,0.00100X0.10100*%
%ADD164R,0.00100X0.09900*%
%ADD165R,0.00100X0.09600*%
%ADD166R,0.00100X0.12700*%
%ADD167R,0.00100X0.07600*%
%ADD168R,0.00100X0.09400*%
%ADD169R,0.00100X0.07800*%
%ADD170R,0.00100X0.09100*%
%ADD171R,0.00100X0.12400*%
%ADD172R,0.00100X0.08900*%
%ADD173R,0.00100X0.08100*%
%ADD174R,0.00100X0.08500*%
%ADD175R,0.00100X0.08200*%
%ADD176R,0.00100X0.08300*%
%ADD177R,0.00100X0.11900*%
%ADD178R,0.00100X0.12000*%
%ADD179R,0.00100X0.11800*%
%ADD180R,0.00100X0.11300*%
%ADD181R,0.00100X0.06100*%
%ADD182R,0.00100X0.11200*%
%ADD183R,0.00100X0.05900*%
%ADD184R,0.00100X0.05600*%
%ADD185R,0.00100X0.05300*%
%ADD186R,0.00100X0.10900*%
%ADD187R,0.00100X0.05200*%
%ADD188R,0.00100X0.10600*%
%ADD189R,0.00100X0.04500*%
%ADD190R,0.00100X0.04400*%
%ADD191R,0.00100X0.04000*%
%ADD192R,0.00100X0.10300*%
%ADD193R,0.00100X0.08700*%
%ADD194R,0.00100X0.03700*%
%ADD195R,0.00100X0.10200*%
%ADD196R,0.00100X0.03400*%
%ADD197R,0.00100X0.10000*%
%ADD198R,0.00100X0.03000*%
%ADD199R,0.00100X0.02600*%
%ADD200R,0.00100X0.09700*%
%ADD201R,0.00100X0.02400*%
%ADD202R,0.00100X0.02200*%
%ADD203R,0.00100X0.09500*%
%ADD204R,0.00100X0.01800*%
%ADD205R,0.00100X0.01600*%
%ADD206R,0.00100X0.08400*%
%ADD207R,0.00100X0.01300*%
%ADD208R,0.00100X0.09200*%
%ADD209R,0.00100X0.01100*%
%ADD210R,0.00100X0.09000*%
%ADD211R,0.00100X0.08800*%
%ADD212R,0.00100X0.00300*%
%ADD213R,0.00100X0.00100*%
%ADD214R,0.00100X0.00400*%
%ADD215R,0.00100X0.00200*%
%ADD216R,0.00100X0.00500*%
%ADD217R,0.00100X0.09300*%
%ADD218R,0.00100X0.00900*%
%ADD219R,0.00100X0.01200*%
%ADD220R,0.00100X0.02000*%
%ADD221R,0.00100X0.02800*%
%ADD222R,0.00100X0.03100*%
%ADD223R,0.00100X0.03600*%
%ADD224R,0.00100X0.03800*%
%ADD225R,0.00100X0.04100*%
%ADD226R,0.00100X0.04600*%
%ADD227R,0.00100X0.10800*%
%ADD228R,0.00100X0.04900*%
%ADD229R,0.00100X0.05400*%
%ADD230R,0.00100X0.05800*%
%ADD231R,0.00100X0.06200*%
%ADD232R,0.00100X0.11400*%
%ADD233R,0.00100X0.12300*%
%ADD234R,0.00100X0.12900*%
%ADD235R,0.00100X0.13400*%
%ADD236R,0.00100X0.13600*%
%ADD237R,0.00100X0.14700*%
%ADD238R,0.00100X0.15600*%
%ADD239R,0.00100X0.16400*%
%ADD240R,0.00100X0.38700*%
%ADD241R,0.00100X0.38100*%
%ADD242R,0.00100X0.37800*%
%ADD243R,0.00100X0.35800*%
%ADD244R,0.00100X0.34700*%
%ADD245R,0.00100X0.34200*%
%ADD246R,0.00100X0.33700*%
%ADD247R,0.00100X0.33400*%
%ADD248R,0.00100X0.32600*%
%ADD249R,0.00100X0.32500*%
%ADD250R,0.00100X0.31000*%
%ADD251R,0.00100X0.29400*%
%ADD252R,0.00100X0.28700*%
%ADD253R,0.00100X0.28500*%
%ADD254R,0.00100X0.28200*%
%ADD255R,0.00100X0.26300*%
%ADD256R,0.00100X0.25400*%
%ADD257R,0.00100X0.24000*%
%ADD258R,0.00100X0.21400*%
%ADD259R,0.00100X0.20300*%
%ADD260R,0.00100X0.19600*%
%ADD261R,0.00100X0.18300*%
%ADD262R,0.00100X0.03300*%
%ADD263C,0.01200*%
%ADD264C,0.00300*%
D10*
X0100008Y0044811D02*
X0099583Y0045445D01*
X0099291Y0046166D01*
X0099004Y0046886D01*
X0098858Y0047658D01*
X0098858Y0049181D01*
X0098980Y0049902D01*
X0099232Y0050642D01*
X0099484Y0051386D01*
X0099906Y0052055D01*
X0100496Y0052658D01*
X0101087Y0053256D01*
X0101878Y0053748D01*
X0102870Y0054130D01*
X0103862Y0054508D01*
X0105087Y0054701D01*
X0108094Y0054701D01*
X0109358Y0054516D01*
X0110339Y0054146D01*
X0111319Y0053772D01*
X0112091Y0053288D01*
X0112654Y0052685D01*
X0113213Y0052083D01*
X0113598Y0051410D01*
X0113811Y0050658D01*
X0114020Y0049906D01*
X0114126Y0049150D01*
X0114126Y0047469D01*
X0113976Y0046567D01*
X0113681Y0045685D01*
X0113382Y0044803D01*
X0112898Y0044012D01*
X0112228Y0043307D01*
X0110457Y0044902D01*
X0110917Y0045406D01*
X0111272Y0045969D01*
X0111512Y0046599D01*
X0111752Y0047233D01*
X0111870Y0047788D01*
X0111870Y0048910D01*
X0111760Y0049473D01*
X0111539Y0049953D01*
X0111315Y0050433D01*
X0111008Y0050835D01*
X0110220Y0051473D01*
X0109764Y0051713D01*
X0108717Y0052036D01*
X0108161Y0052114D01*
X0107335Y0052114D01*
X0107335Y0042528D01*
X0104366Y0042528D01*
X0103441Y0042681D01*
X0102630Y0042996D01*
X0101819Y0043303D01*
X0101130Y0043729D01*
X0100571Y0044272D01*
X0100008Y0044811D01*
X0099947Y0044901D02*
X0107335Y0044901D01*
X0107335Y0044403D02*
X0100434Y0044403D01*
X0100949Y0043904D02*
X0107335Y0043904D01*
X0107335Y0043406D02*
X0101653Y0043406D01*
X0102859Y0042907D02*
X0107335Y0042907D01*
X0107335Y0045400D02*
X0099613Y0045400D01*
X0099399Y0045898D02*
X0107335Y0045898D01*
X0107335Y0046397D02*
X0099199Y0046397D01*
X0099002Y0046895D02*
X0107335Y0046895D01*
X0107335Y0047394D02*
X0098908Y0047394D01*
X0098858Y0047892D02*
X0107335Y0047892D01*
X0107335Y0048391D02*
X0098858Y0048391D01*
X0098858Y0048889D02*
X0107335Y0048889D01*
X0107335Y0049388D02*
X0098893Y0049388D01*
X0098978Y0049887D02*
X0107335Y0049887D01*
X0107335Y0050385D02*
X0099145Y0050385D01*
X0099314Y0050884D02*
X0107335Y0050884D01*
X0107335Y0051382D02*
X0099483Y0051382D01*
X0099795Y0051881D02*
X0107335Y0051881D01*
X0109220Y0051881D02*
X0113329Y0051881D01*
X0113606Y0051382D02*
X0110332Y0051382D01*
X0110948Y0050884D02*
X0113747Y0050884D01*
X0113887Y0050385D02*
X0111338Y0050385D01*
X0111570Y0049887D02*
X0114022Y0049887D01*
X0114093Y0049388D02*
X0111776Y0049388D01*
X0111870Y0048889D02*
X0114126Y0048889D01*
X0114126Y0048391D02*
X0111870Y0048391D01*
X0111870Y0047892D02*
X0114126Y0047892D01*
X0114114Y0047394D02*
X0111786Y0047394D01*
X0111624Y0046895D02*
X0114031Y0046895D01*
X0113919Y0046397D02*
X0111435Y0046397D01*
X0111227Y0045898D02*
X0113752Y0045898D01*
X0113584Y0045400D02*
X0110912Y0045400D01*
X0110457Y0044901D02*
X0113415Y0044901D01*
X0113137Y0044403D02*
X0111011Y0044403D01*
X0111565Y0043904D02*
X0112795Y0043904D01*
X0112322Y0043406D02*
X0112119Y0043406D01*
X0105260Y0045114D02*
X0103917Y0045174D01*
X0102906Y0045516D01*
X0102224Y0046134D01*
X0101543Y0046756D01*
X0101201Y0047579D01*
X0101201Y0049622D01*
X0101551Y0050441D01*
X0102953Y0051685D01*
X0103957Y0052036D01*
X0105260Y0052114D01*
X0105260Y0045114D01*
X0105260Y0045400D02*
X0103249Y0045400D01*
X0102484Y0045898D02*
X0105260Y0045898D01*
X0105260Y0046397D02*
X0101937Y0046397D01*
X0101485Y0046895D02*
X0105260Y0046895D01*
X0105260Y0047394D02*
X0101278Y0047394D01*
X0101201Y0047892D02*
X0105260Y0047892D01*
X0105260Y0048391D02*
X0101201Y0048391D01*
X0101201Y0048889D02*
X0105260Y0048889D01*
X0105260Y0049388D02*
X0101201Y0049388D01*
X0101314Y0049887D02*
X0105260Y0049887D01*
X0105260Y0050385D02*
X0101527Y0050385D01*
X0102049Y0050884D02*
X0105260Y0050884D01*
X0105260Y0051382D02*
X0102611Y0051382D01*
X0103512Y0051881D02*
X0105260Y0051881D01*
X0103508Y0054373D02*
X0109737Y0054373D01*
X0111050Y0053875D02*
X0102206Y0053875D01*
X0101279Y0053376D02*
X0111950Y0053376D01*
X0112474Y0052878D02*
X0100713Y0052878D01*
X0100223Y0052379D02*
X0112938Y0052379D01*
X0113945Y0057583D02*
X0103205Y0057583D01*
X0102472Y0057713D01*
X0101831Y0057977D01*
X0101189Y0058237D01*
X0100657Y0058595D01*
X0100224Y0059059D01*
X0099795Y0059520D01*
X0099465Y0060059D01*
X0099232Y0060681D01*
X0099004Y0061300D01*
X0098886Y0061973D01*
X0098886Y0063674D01*
X0099051Y0064563D01*
X0099713Y0066146D01*
X0100260Y0066890D01*
X0101020Y0067595D01*
X0101000Y0067614D01*
X0101000Y0067622D01*
X0101020Y0067622D01*
X0100358Y0068142D01*
X0099839Y0068756D01*
X0099457Y0069457D01*
X0099079Y0070158D01*
X0098886Y0071020D01*
X0098886Y0072843D01*
X0099059Y0073607D01*
X0099398Y0074339D01*
X0099740Y0075071D01*
X0100228Y0075689D01*
X0100870Y0076189D01*
X0100870Y0076280D01*
X0099035Y0076280D01*
X0099035Y0078744D01*
X0113945Y0078744D01*
X0113945Y0076280D01*
X0103874Y0076280D01*
X0102965Y0075957D01*
X0102283Y0075311D01*
X0099929Y0075311D01*
X0099619Y0074812D02*
X0101754Y0074812D01*
X0101602Y0074670D02*
X0102283Y0075311D01*
X0102809Y0075809D02*
X0100382Y0075809D01*
X0099035Y0076308D02*
X0113945Y0076308D01*
X0113945Y0076806D02*
X0099035Y0076806D01*
X0099035Y0077305D02*
X0113945Y0077305D01*
X0113945Y0077803D02*
X0099035Y0077803D01*
X0099035Y0078302D02*
X0113945Y0078302D01*
X0113945Y0081961D02*
X0113945Y0084422D01*
X0112654Y0084422D01*
X0112622Y0084453D01*
X0113063Y0084737D01*
X0113425Y0085237D01*
X0113984Y0086677D01*
X0114126Y0087551D01*
X0114126Y0090272D01*
X0113709Y0091583D01*
X0112878Y0092492D01*
X0112047Y0093406D01*
X0110988Y0093859D01*
X0109126Y0093859D01*
X0108571Y0093760D01*
X0107508Y0093359D01*
X0107043Y0093063D01*
X0106240Y0092284D01*
X0105921Y0091792D01*
X0105681Y0091201D01*
X0105437Y0090611D01*
X0105319Y0089914D01*
X0105319Y0084422D01*
X0102815Y0084422D01*
X0102205Y0084693D01*
X0101803Y0085237D01*
X0101402Y0085776D01*
X0101201Y0086646D01*
X0101201Y0088792D01*
X0101315Y0089532D01*
X0101547Y0090075D01*
X0101776Y0090614D01*
X0102094Y0091055D01*
X0102492Y0091398D01*
X0100843Y0092957D01*
X0100201Y0092398D01*
X0099713Y0091677D01*
X0099382Y0090800D01*
X0099051Y0089918D01*
X0098886Y0088969D01*
X0098886Y0087150D01*
X0098961Y0086390D01*
X0099114Y0085658D01*
X0099264Y0084929D01*
X0099520Y0084292D01*
X0099878Y0083740D01*
X0100240Y0083193D01*
X0100732Y0082756D01*
X0101350Y0082437D01*
X0101972Y0082118D01*
X0102756Y0081961D01*
X0113945Y0081961D01*
X0113945Y0082290D02*
X0101638Y0082290D01*
X0100696Y0082788D02*
X0113945Y0082788D01*
X0113945Y0083287D02*
X0100178Y0083287D01*
X0099849Y0083785D02*
X0113945Y0083785D01*
X0113945Y0084284D02*
X0099525Y0084284D01*
X0099323Y0084782D02*
X0102139Y0084782D01*
X0101770Y0085281D02*
X0099192Y0085281D01*
X0099089Y0085779D02*
X0101401Y0085779D01*
X0101286Y0086278D02*
X0098984Y0086278D01*
X0098923Y0086776D02*
X0101201Y0086776D01*
X0101201Y0087275D02*
X0098886Y0087275D01*
X0098886Y0087773D02*
X0101201Y0087773D01*
X0101201Y0088272D02*
X0098886Y0088272D01*
X0098886Y0088770D02*
X0101201Y0088770D01*
X0101274Y0089269D02*
X0098938Y0089269D01*
X0099025Y0089767D02*
X0101416Y0089767D01*
X0101628Y0090266D02*
X0099182Y0090266D01*
X0099369Y0090764D02*
X0101884Y0090764D01*
X0102335Y0091263D02*
X0099556Y0091263D01*
X0099770Y0091761D02*
X0102108Y0091761D01*
X0101580Y0092260D02*
X0100107Y0092260D01*
X0100615Y0092758D02*
X0101053Y0092758D01*
X0100721Y0094753D02*
X0099209Y0094753D01*
X0099161Y0094863D02*
X0099319Y0094500D01*
X0099520Y0094221D01*
X0101894Y0095272D01*
X0101512Y0095855D01*
X0101323Y0096555D01*
X0101323Y0098359D01*
X0101622Y0099170D01*
X0102224Y0099811D01*
X0102823Y0100453D01*
X0103724Y0100772D01*
X0113945Y0100772D01*
X0113945Y0103237D01*
X0099035Y0103237D01*
X0099035Y0100772D01*
X0100929Y0100772D01*
X0100929Y0100654D01*
X0100169Y0100134D01*
X0099638Y0099551D01*
X0099339Y0098910D01*
X0099035Y0098268D01*
X0098886Y0097548D01*
X0098886Y0096225D01*
X0098941Y0095744D01*
X0099161Y0094863D01*
X0099064Y0095251D02*
X0101846Y0095251D01*
X0101581Y0095750D02*
X0098940Y0095750D01*
X0098886Y0096248D02*
X0101406Y0096248D01*
X0101323Y0096747D02*
X0098886Y0096747D01*
X0098886Y0097245D02*
X0101323Y0097245D01*
X0101323Y0097744D02*
X0098927Y0097744D01*
X0099030Y0098242D02*
X0101323Y0098242D01*
X0101464Y0098741D02*
X0099259Y0098741D01*
X0099492Y0099239D02*
X0101687Y0099239D01*
X0102155Y0099738D02*
X0099808Y0099738D01*
X0100318Y0100236D02*
X0102621Y0100236D01*
X0103619Y0100735D02*
X0100929Y0100735D01*
X0099035Y0101233D02*
X0113945Y0101233D01*
X0113945Y0101732D02*
X0099035Y0101732D01*
X0099035Y0102230D02*
X0113945Y0102230D01*
X0113945Y0102729D02*
X0099035Y0102729D01*
X0099035Y0103227D02*
X0113945Y0103227D01*
X0113945Y0108709D02*
X0113945Y0111174D01*
X0101201Y0111174D01*
X0101201Y0113008D01*
X0099035Y0113008D01*
X0099035Y0111174D01*
X0094579Y0111174D01*
X0093602Y0110803D01*
X0092961Y0110063D01*
X0092323Y0109319D01*
X0092004Y0108410D01*
X0092004Y0105551D01*
X0094260Y0105551D01*
X0094260Y0107748D01*
X0094449Y0108177D01*
X0094831Y0108390D01*
X0095209Y0108603D01*
X0095661Y0108709D01*
X0099035Y0108709D01*
X0099035Y0105551D01*
X0101201Y0105551D01*
X0101201Y0108709D01*
X0113945Y0108709D01*
X0113945Y0108711D02*
X0092110Y0108711D01*
X0092004Y0108212D02*
X0094511Y0108212D01*
X0094260Y0107714D02*
X0092004Y0107714D01*
X0092004Y0107215D02*
X0094260Y0107215D01*
X0094260Y0106717D02*
X0092004Y0106717D01*
X0092004Y0106218D02*
X0094260Y0106218D01*
X0094260Y0105720D02*
X0092004Y0105720D01*
X0092284Y0109209D02*
X0113945Y0109209D01*
X0113945Y0109708D02*
X0092656Y0109708D01*
X0093085Y0110206D02*
X0113945Y0110206D01*
X0113945Y0110705D02*
X0093517Y0110705D01*
X0099035Y0111203D02*
X0101201Y0111203D01*
X0101201Y0111702D02*
X0099035Y0111702D01*
X0099035Y0112200D02*
X0101201Y0112200D01*
X0101201Y0112699D02*
X0099035Y0112699D01*
X0099035Y0113666D02*
X0117102Y0120067D01*
X0117701Y0120288D01*
X0118193Y0120540D01*
X0118575Y0120819D01*
X0118953Y0121099D01*
X0119244Y0121410D01*
X0119445Y0121752D01*
X0119646Y0122091D01*
X0119780Y0122453D01*
X0119850Y0122835D01*
X0119921Y0123213D01*
X0119957Y0123607D01*
X0119957Y0125268D01*
X0117791Y0125268D01*
X0117791Y0123634D01*
X0117669Y0123280D01*
X0117189Y0122658D01*
X0116752Y0122394D01*
X0116110Y0122174D01*
X0113646Y0121359D01*
X0099035Y0126831D01*
X0099035Y0124095D01*
X0105799Y0121721D01*
X0110488Y0120189D01*
X0110488Y0120099D01*
X0105831Y0118563D01*
X0099035Y0116252D01*
X0099035Y0113666D01*
X0099035Y0113696D02*
X0099121Y0113696D01*
X0099035Y0114194D02*
X0100528Y0114194D01*
X0101935Y0114693D02*
X0099035Y0114693D01*
X0099035Y0115191D02*
X0103342Y0115191D01*
X0104749Y0115690D02*
X0099035Y0115690D01*
X0099035Y0116189D02*
X0106156Y0116189D01*
X0107562Y0116687D02*
X0100314Y0116687D01*
X0101780Y0117186D02*
X0108969Y0117186D01*
X0110376Y0117684D02*
X0103245Y0117684D01*
X0104711Y0118183D02*
X0111783Y0118183D01*
X0113190Y0118681D02*
X0106188Y0118681D01*
X0107700Y0119180D02*
X0114597Y0119180D01*
X0116004Y0119678D02*
X0109212Y0119678D01*
X0109001Y0120675D02*
X0118378Y0120675D01*
X0119023Y0121174D02*
X0107474Y0121174D01*
X0105948Y0121672D02*
X0112809Y0121672D01*
X0111478Y0122171D02*
X0104518Y0122171D01*
X0103097Y0122669D02*
X0110147Y0122669D01*
X0108816Y0123168D02*
X0101677Y0123168D01*
X0100257Y0123666D02*
X0107485Y0123666D01*
X0106154Y0124165D02*
X0099035Y0124165D01*
X0099035Y0124663D02*
X0104823Y0124663D01*
X0103492Y0125162D02*
X0099035Y0125162D01*
X0099035Y0125660D02*
X0102161Y0125660D01*
X0100830Y0126159D02*
X0099035Y0126159D01*
X0099035Y0126657D02*
X0099499Y0126657D01*
X0092126Y0129626D02*
X0111220Y0129626D01*
X0111689Y0129114D01*
X0111689Y0127370D01*
X0113945Y0127370D01*
X0113945Y0129504D01*
X0113689Y0130386D01*
X0113177Y0131067D01*
X0112669Y0131748D01*
X0111772Y0132091D01*
X0092126Y0132091D01*
X0092126Y0129626D01*
X0092126Y0129648D02*
X0113903Y0129648D01*
X0113945Y0129150D02*
X0111657Y0129150D01*
X0111689Y0128651D02*
X0113945Y0128651D01*
X0113945Y0128153D02*
X0111689Y0128153D01*
X0111689Y0127654D02*
X0113945Y0127654D01*
X0113758Y0130147D02*
X0092126Y0130147D01*
X0092126Y0130645D02*
X0113494Y0130645D01*
X0113120Y0131144D02*
X0092126Y0131144D01*
X0092126Y0131642D02*
X0112748Y0131642D01*
X0110142Y0135918D02*
X0109213Y0135756D01*
X0108280Y0135595D01*
X0107335Y0135516D01*
X0105449Y0135516D01*
X0104543Y0135591D01*
X0103650Y0135740D01*
X0102760Y0135890D01*
X0101957Y0136170D01*
X0101248Y0136567D01*
X0100535Y0136969D01*
X0099965Y0137516D01*
X0099531Y0138205D01*
X0099102Y0138898D01*
X0098886Y0139776D01*
X0098886Y0141575D01*
X0099028Y0142296D01*
X0099307Y0142985D01*
X0099587Y0143677D01*
X0100059Y0144311D01*
X0100720Y0144894D01*
X0100689Y0144985D01*
X0099035Y0144985D01*
X0099035Y0147449D01*
X0119898Y0147449D01*
X0119898Y0144985D01*
X0112642Y0144985D01*
X0112642Y0144922D01*
X0113154Y0144485D01*
X0113531Y0143957D01*
X0113768Y0143347D01*
X0114008Y0142733D01*
X0114126Y0142059D01*
X0114126Y0140154D01*
X0113898Y0139197D01*
X0113449Y0138445D01*
X0112996Y0137697D01*
X0112413Y0137099D01*
X0111689Y0136658D01*
X0110969Y0136217D01*
X0110142Y0135918D01*
X0110726Y0136129D02*
X0102073Y0136129D01*
X0101141Y0136627D02*
X0111639Y0136627D01*
X0112440Y0137126D02*
X0100371Y0137126D01*
X0099896Y0137624D02*
X0112925Y0137624D01*
X0113254Y0138123D02*
X0099583Y0138123D01*
X0099274Y0138622D02*
X0113554Y0138622D01*
X0113852Y0139120D02*
X0099048Y0139120D01*
X0098925Y0139619D02*
X0113998Y0139619D01*
X0114117Y0140117D02*
X0098886Y0140117D01*
X0098886Y0140616D02*
X0114126Y0140616D01*
X0114126Y0141114D02*
X0098886Y0141114D01*
X0098893Y0141613D02*
X0114126Y0141613D01*
X0114117Y0142111D02*
X0098991Y0142111D01*
X0099155Y0142610D02*
X0114029Y0142610D01*
X0113861Y0143108D02*
X0099357Y0143108D01*
X0099558Y0143607D02*
X0113667Y0143607D01*
X0113425Y0144105D02*
X0099905Y0144105D01*
X0100391Y0144604D02*
X0113014Y0144604D01*
X0111438Y0143108D02*
X0101692Y0143108D01*
X0101492Y0142839D02*
X0102177Y0143760D01*
X0102602Y0144118D01*
X0103114Y0144366D01*
X0103626Y0144618D01*
X0104189Y0144784D01*
X0104803Y0144863D01*
X0105417Y0144945D01*
X0105992Y0144985D01*
X0107098Y0144985D01*
X0107685Y0144949D01*
X0108913Y0144807D01*
X0109469Y0144658D01*
X0109972Y0144429D01*
X0110476Y0144197D01*
X0110886Y0143863D01*
X0111531Y0142981D01*
X0111689Y0142378D01*
X0111689Y0140835D01*
X0111535Y0140217D01*
X0111224Y0139756D01*
X0110913Y0139292D01*
X0110508Y0138941D01*
X0110016Y0138701D01*
X0109528Y0138461D01*
X0108972Y0138303D01*
X0108358Y0138221D01*
X0107748Y0138142D01*
X0107138Y0138103D01*
X0105953Y0138103D01*
X0105354Y0138130D01*
X0104744Y0138193D01*
X0104130Y0138252D01*
X0103567Y0138390D01*
X0103055Y0138614D01*
X0102543Y0138835D01*
X0101480Y0140071D01*
X0101323Y0140685D01*
X0101323Y0142229D01*
X0101492Y0142839D01*
X0101429Y0142610D02*
X0111628Y0142610D01*
X0111689Y0142111D02*
X0101323Y0142111D01*
X0101323Y0141613D02*
X0111689Y0141613D01*
X0111689Y0141114D02*
X0101323Y0141114D01*
X0101341Y0140616D02*
X0111634Y0140616D01*
X0111468Y0140117D02*
X0101469Y0140117D01*
X0101870Y0139619D02*
X0111132Y0139619D01*
X0110715Y0139120D02*
X0102298Y0139120D01*
X0103039Y0138622D02*
X0109854Y0138622D01*
X0107453Y0138123D02*
X0105511Y0138123D01*
X0104307Y0135630D02*
X0108486Y0135630D01*
X0111073Y0143607D02*
X0102063Y0143607D01*
X0102587Y0144105D02*
X0110589Y0144105D01*
X0109588Y0144604D02*
X0103596Y0144604D01*
X0099035Y0145102D02*
X0119898Y0145102D01*
X0119898Y0145601D02*
X0099035Y0145601D01*
X0099035Y0146099D02*
X0119898Y0146099D01*
X0119898Y0146598D02*
X0099035Y0146598D01*
X0099035Y0147096D02*
X0119898Y0147096D01*
X0112996Y0152693D02*
X0113449Y0153441D01*
X0113898Y0154193D01*
X0114126Y0155154D01*
X0114126Y0157055D01*
X0114008Y0157733D01*
X0113768Y0158343D01*
X0113531Y0158953D01*
X0113154Y0159481D01*
X0112642Y0159922D01*
X0112642Y0159981D01*
X0119898Y0159981D01*
X0119898Y0162445D01*
X0099035Y0162445D01*
X0099035Y0159981D01*
X0100689Y0159981D01*
X0100720Y0159890D01*
X0100059Y0159307D01*
X0099587Y0158674D01*
X0099307Y0157981D01*
X0099028Y0157292D01*
X0098886Y0156575D01*
X0098886Y0154772D01*
X0100535Y0151965D01*
X0101248Y0151563D01*
X0105449Y0150512D01*
X0107335Y0150512D01*
X0108280Y0150595D01*
X0109213Y0150752D01*
X0110142Y0150914D01*
X0110969Y0151217D01*
X0111689Y0151654D01*
X0112413Y0152095D01*
X0112996Y0152693D01*
X0112886Y0152580D02*
X0100174Y0152580D01*
X0099881Y0153078D02*
X0113229Y0153078D01*
X0113530Y0153577D02*
X0099588Y0153577D01*
X0099295Y0154075D02*
X0113827Y0154075D01*
X0113988Y0154574D02*
X0099002Y0154574D01*
X0098886Y0155072D02*
X0114107Y0155072D01*
X0114126Y0155571D02*
X0098886Y0155571D01*
X0098886Y0156069D02*
X0114126Y0156069D01*
X0114126Y0156568D02*
X0098886Y0156568D01*
X0098983Y0157066D02*
X0114124Y0157066D01*
X0114037Y0157565D02*
X0099138Y0157565D01*
X0099341Y0158063D02*
X0113878Y0158063D01*
X0113683Y0158562D02*
X0099542Y0158562D01*
X0099875Y0159060D02*
X0113455Y0159060D01*
X0113063Y0159559D02*
X0100345Y0159559D01*
X0099035Y0160058D02*
X0119898Y0160058D01*
X0119898Y0160556D02*
X0099035Y0160556D01*
X0099035Y0161055D02*
X0119898Y0161055D01*
X0119898Y0161553D02*
X0099035Y0161553D01*
X0099035Y0162052D02*
X0119898Y0162052D01*
X0113945Y0166083D02*
X0113945Y0168548D01*
X0112264Y0168548D01*
X0112264Y0168638D01*
X0112906Y0169138D01*
X0113374Y0169752D01*
X0113972Y0171217D01*
X0114126Y0171961D01*
X0114126Y0173485D01*
X0114031Y0174185D01*
X0113839Y0174827D01*
X0113650Y0175469D01*
X0113343Y0176016D01*
X0112925Y0176465D01*
X0112504Y0176918D01*
X0111961Y0177268D01*
X0111299Y0177516D01*
X0110638Y0177768D01*
X0109846Y0177894D01*
X0099035Y0177894D01*
X0099035Y0175429D01*
X0108634Y0175429D01*
X0109197Y0175378D01*
X0109677Y0175280D01*
X0110157Y0175177D01*
X0110551Y0174996D01*
X0110866Y0174737D01*
X0111173Y0174477D01*
X0111406Y0174126D01*
X0111705Y0173244D01*
X0111780Y0172685D01*
X0111780Y0171020D01*
X0111433Y0170201D01*
X0110744Y0169540D01*
X0110051Y0168878D01*
X0109134Y0168548D01*
X0099035Y0168548D01*
X0099035Y0166083D01*
X0113945Y0166083D01*
X0113945Y0166538D02*
X0099035Y0166538D01*
X0099035Y0167037D02*
X0113945Y0167037D01*
X0113945Y0167535D02*
X0099035Y0167535D01*
X0099035Y0168034D02*
X0113945Y0168034D01*
X0113945Y0168532D02*
X0099035Y0168532D01*
X0110211Y0169031D02*
X0112768Y0169031D01*
X0113204Y0169529D02*
X0110733Y0169529D01*
X0111252Y0170028D02*
X0113487Y0170028D01*
X0113690Y0170526D02*
X0111571Y0170526D01*
X0111780Y0171025D02*
X0113894Y0171025D01*
X0114036Y0171523D02*
X0111780Y0171523D01*
X0111780Y0172022D02*
X0114126Y0172022D01*
X0114126Y0172520D02*
X0111780Y0172520D01*
X0111735Y0173019D02*
X0114126Y0173019D01*
X0114122Y0173517D02*
X0111612Y0173517D01*
X0111443Y0174016D02*
X0114054Y0174016D01*
X0113933Y0174514D02*
X0111129Y0174514D01*
X0110515Y0175013D02*
X0113784Y0175013D01*
X0113626Y0175511D02*
X0099035Y0175511D01*
X0099035Y0176010D02*
X0113346Y0176010D01*
X0112885Y0176508D02*
X0099035Y0176508D01*
X0099035Y0177007D02*
X0112366Y0177007D01*
X0111328Y0177505D02*
X0099035Y0177505D01*
X0100488Y0181079D02*
X0102465Y0182402D01*
X0102063Y0182981D01*
X0101744Y0183591D01*
X0101500Y0184233D01*
X0101260Y0184874D01*
X0101142Y0185599D01*
X0101142Y0187359D01*
X0101343Y0188107D01*
X0102146Y0189170D01*
X0102677Y0189433D01*
X0104024Y0189433D01*
X0104500Y0189091D01*
X0104772Y0188414D01*
X0105043Y0187733D01*
X0105248Y0186709D01*
X0105390Y0185347D01*
X0105449Y0184827D01*
X0105555Y0184284D01*
X0105705Y0183725D01*
X0105854Y0183162D01*
X0106087Y0182658D01*
X0106398Y0182205D01*
X0106709Y0181756D01*
X0107122Y0181386D01*
X0108146Y0180803D01*
X0108772Y0180658D01*
X0110220Y0180658D01*
X0110850Y0180803D01*
X0111976Y0181386D01*
X0112457Y0181792D01*
X0112862Y0182311D01*
X0113260Y0182831D01*
X0113575Y0183449D01*
X0113795Y0184158D01*
X0114012Y0184870D01*
X0114126Y0185658D01*
X0114126Y0187599D01*
X0113953Y0188681D01*
X0113606Y0189764D01*
X0113264Y0190847D01*
X0112705Y0191839D01*
X0111933Y0192740D01*
X0110035Y0191237D01*
X0110638Y0190536D01*
X0111094Y0189800D01*
X0111717Y0188256D01*
X0111870Y0187382D01*
X0111870Y0185496D01*
X0111681Y0184725D01*
X0111299Y0184083D01*
X0110921Y0183445D01*
X0110343Y0183122D01*
X0108803Y0183122D01*
X0108287Y0183437D01*
X0108016Y0184071D01*
X0107748Y0184701D01*
X0107563Y0185524D01*
X0107465Y0186548D01*
X0107402Y0187130D01*
X0107319Y0187733D01*
X0107209Y0188351D01*
X0107098Y0188973D01*
X0106906Y0189544D01*
X0106626Y0190063D01*
X0106343Y0190587D01*
X0105949Y0191012D01*
X0105437Y0191343D01*
X0104929Y0191674D01*
X0104256Y0191839D01*
X0102717Y0191839D01*
X0102087Y0191693D01*
X0101528Y0191402D01*
X0100965Y0191111D01*
X0100492Y0190717D01*
X0100102Y0190213D01*
X0099713Y0189713D01*
X0099413Y0189134D01*
X0099201Y0188473D01*
X0098992Y0187811D01*
X0098886Y0187118D01*
X0098886Y0185256D01*
X0099024Y0184260D01*
X0099303Y0183406D01*
X0099579Y0182555D01*
X0099972Y0181780D01*
X0100488Y0181079D01*
X0100183Y0181493D02*
X0101107Y0181493D01*
X0101852Y0181992D02*
X0099865Y0181992D01*
X0099612Y0182491D02*
X0102403Y0182491D01*
X0102059Y0182989D02*
X0099438Y0182989D01*
X0099276Y0183488D02*
X0101798Y0183488D01*
X0101594Y0183986D02*
X0099113Y0183986D01*
X0098993Y0184485D02*
X0101406Y0184485D01*
X0101242Y0184983D02*
X0098924Y0184983D01*
X0098886Y0185482D02*
X0101161Y0185482D01*
X0101142Y0185980D02*
X0098886Y0185980D01*
X0098886Y0186479D02*
X0101142Y0186479D01*
X0101142Y0186977D02*
X0098886Y0186977D01*
X0098941Y0187476D02*
X0101173Y0187476D01*
X0101307Y0187974D02*
X0099043Y0187974D01*
X0099201Y0188473D02*
X0101619Y0188473D01*
X0101996Y0188971D02*
X0099361Y0188971D01*
X0099587Y0189470D02*
X0106930Y0189470D01*
X0107099Y0188971D02*
X0104548Y0188971D01*
X0104748Y0188473D02*
X0107187Y0188473D01*
X0107276Y0187974D02*
X0104947Y0187974D01*
X0105095Y0187476D02*
X0107354Y0187476D01*
X0107418Y0186977D02*
X0105194Y0186977D01*
X0105272Y0186479D02*
X0107471Y0186479D01*
X0107519Y0185980D02*
X0105324Y0185980D01*
X0105376Y0185482D02*
X0107573Y0185482D01*
X0107685Y0184983D02*
X0105431Y0184983D01*
X0105516Y0184485D02*
X0107840Y0184485D01*
X0108052Y0183986D02*
X0105635Y0183986D01*
X0105768Y0183488D02*
X0108266Y0183488D01*
X0106545Y0181992D02*
X0112613Y0181992D01*
X0112999Y0182491D02*
X0106202Y0182491D01*
X0105934Y0182989D02*
X0113340Y0182989D01*
X0113587Y0183488D02*
X0110946Y0183488D01*
X0111242Y0183986D02*
X0113742Y0183986D01*
X0113895Y0184485D02*
X0111538Y0184485D01*
X0111744Y0184983D02*
X0114028Y0184983D01*
X0114100Y0185482D02*
X0111866Y0185482D01*
X0111870Y0185980D02*
X0114126Y0185980D01*
X0114126Y0186479D02*
X0111870Y0186479D01*
X0111870Y0186977D02*
X0114126Y0186977D01*
X0114126Y0187476D02*
X0111854Y0187476D01*
X0111766Y0187974D02*
X0114066Y0187974D01*
X0113986Y0188473D02*
X0111629Y0188473D01*
X0111428Y0188971D02*
X0113860Y0188971D01*
X0113701Y0189470D02*
X0111227Y0189470D01*
X0110990Y0189968D02*
X0113542Y0189968D01*
X0113384Y0190467D02*
X0110681Y0190467D01*
X0110269Y0190965D02*
X0113197Y0190965D01*
X0112916Y0191464D02*
X0110322Y0191464D01*
X0110951Y0191962D02*
X0112599Y0191962D01*
X0112172Y0192461D02*
X0111580Y0192461D01*
X0106677Y0189968D02*
X0099912Y0189968D01*
X0100299Y0190467D02*
X0106408Y0190467D01*
X0105992Y0190965D02*
X0100790Y0190965D01*
X0101646Y0191464D02*
X0105251Y0191464D01*
X0107002Y0181493D02*
X0112104Y0181493D01*
X0111220Y0180995D02*
X0107809Y0180995D01*
X0129672Y0162178D02*
X0129672Y0061378D01*
X0230472Y0061378D01*
X0230472Y0162178D01*
X0129672Y0162178D01*
X0112391Y0152081D02*
X0100467Y0152081D01*
X0101213Y0151583D02*
X0111572Y0151583D01*
X0110607Y0151084D02*
X0103162Y0151084D01*
X0105154Y0150586D02*
X0108177Y0150586D01*
X0117791Y0125162D02*
X0119957Y0125162D01*
X0119957Y0124663D02*
X0117791Y0124663D01*
X0117791Y0124165D02*
X0119957Y0124165D01*
X0119957Y0123666D02*
X0117791Y0123666D01*
X0117583Y0123168D02*
X0119913Y0123168D01*
X0119820Y0122669D02*
X0117198Y0122669D01*
X0116102Y0122171D02*
X0119675Y0122171D01*
X0119398Y0121672D02*
X0114594Y0121672D01*
X0117399Y0120177D02*
X0110488Y0120177D01*
X0101201Y0108212D02*
X0099035Y0108212D01*
X0099035Y0107714D02*
X0101201Y0107714D01*
X0101201Y0107215D02*
X0099035Y0107215D01*
X0099035Y0106717D02*
X0101201Y0106717D01*
X0101201Y0106218D02*
X0099035Y0106218D01*
X0099035Y0105720D02*
X0101201Y0105720D01*
X0099595Y0094254D02*
X0099496Y0094254D01*
X0105909Y0091761D02*
X0113546Y0091761D01*
X0113811Y0091263D02*
X0105706Y0091263D01*
X0105501Y0090764D02*
X0113969Y0090764D01*
X0114126Y0090266D02*
X0105379Y0090266D01*
X0105319Y0089767D02*
X0114126Y0089767D01*
X0114126Y0089269D02*
X0105319Y0089269D01*
X0105319Y0088770D02*
X0114126Y0088770D01*
X0114126Y0088272D02*
X0105319Y0088272D01*
X0105319Y0087773D02*
X0114126Y0087773D01*
X0114081Y0087275D02*
X0105319Y0087275D01*
X0105319Y0086776D02*
X0114000Y0086776D01*
X0113829Y0086278D02*
X0105319Y0086278D01*
X0105319Y0085779D02*
X0113636Y0085779D01*
X0113442Y0085281D02*
X0105319Y0085281D01*
X0105319Y0084782D02*
X0113096Y0084782D01*
X0111406Y0085779D02*
X0107362Y0085779D01*
X0107362Y0085281D02*
X0111116Y0085281D01*
X0111106Y0085264D02*
X0110823Y0084977D01*
X0110472Y0084756D01*
X0110122Y0084532D01*
X0109665Y0084422D01*
X0107362Y0084422D01*
X0107362Y0089473D01*
X0107555Y0090213D01*
X0107933Y0090737D01*
X0108315Y0091256D01*
X0108854Y0091516D01*
X0110260Y0091516D01*
X0110819Y0091252D01*
X0111661Y0090189D01*
X0111870Y0089374D01*
X0111870Y0087792D01*
X0111831Y0087319D01*
X0111752Y0086859D01*
X0111669Y0086398D01*
X0111528Y0085985D01*
X0111315Y0085626D01*
X0111106Y0085264D01*
X0110514Y0084782D02*
X0107362Y0084782D01*
X0107362Y0086278D02*
X0111628Y0086278D01*
X0111737Y0086776D02*
X0107362Y0086776D01*
X0107362Y0087275D02*
X0111823Y0087275D01*
X0111869Y0087773D02*
X0107362Y0087773D01*
X0107362Y0088272D02*
X0111870Y0088272D01*
X0111870Y0088770D02*
X0107362Y0088770D01*
X0107362Y0089269D02*
X0111870Y0089269D01*
X0111769Y0089767D02*
X0107439Y0089767D01*
X0107593Y0090266D02*
X0111601Y0090266D01*
X0111206Y0090764D02*
X0107954Y0090764D01*
X0108329Y0091263D02*
X0110796Y0091263D01*
X0112636Y0092758D02*
X0106729Y0092758D01*
X0106225Y0092260D02*
X0113090Y0092260D01*
X0112183Y0093257D02*
X0107348Y0093257D01*
X0108559Y0093755D02*
X0111229Y0093755D01*
X0101602Y0074670D02*
X0101260Y0073843D01*
X0101260Y0071551D01*
X0101602Y0070654D01*
X0102965Y0069646D01*
X0103874Y0069394D01*
X0113945Y0069394D01*
X0113945Y0066933D01*
X0103874Y0066933D01*
X0102965Y0066611D01*
X0102283Y0065965D01*
X0101602Y0065323D01*
X0101260Y0064496D01*
X0101260Y0062201D01*
X0101602Y0061307D01*
X0102965Y0060300D01*
X0103874Y0060048D01*
X0113945Y0060048D01*
X0113945Y0057583D01*
X0113945Y0057863D02*
X0102108Y0057863D01*
X0101004Y0058361D02*
X0113945Y0058361D01*
X0113945Y0058860D02*
X0100411Y0058860D01*
X0099946Y0059358D02*
X0113945Y0059358D01*
X0113945Y0059857D02*
X0099589Y0059857D01*
X0099354Y0060355D02*
X0102889Y0060355D01*
X0102215Y0060854D02*
X0099169Y0060854D01*
X0098995Y0061352D02*
X0101585Y0061352D01*
X0101394Y0061851D02*
X0098907Y0061851D01*
X0098886Y0062349D02*
X0101260Y0062349D01*
X0101260Y0062848D02*
X0098886Y0062848D01*
X0098886Y0063346D02*
X0101260Y0063346D01*
X0101260Y0063845D02*
X0098918Y0063845D01*
X0099010Y0064343D02*
X0101260Y0064343D01*
X0101403Y0064842D02*
X0099168Y0064842D01*
X0099376Y0065340D02*
X0101621Y0065340D01*
X0102150Y0065839D02*
X0099584Y0065839D01*
X0099853Y0066337D02*
X0102676Y0066337D01*
X0103599Y0066836D02*
X0100220Y0066836D01*
X0100739Y0067334D02*
X0113945Y0067334D01*
X0113945Y0067833D02*
X0100752Y0067833D01*
X0100198Y0068331D02*
X0113945Y0068331D01*
X0113945Y0068830D02*
X0099798Y0068830D01*
X0099527Y0069328D02*
X0113945Y0069328D01*
X0102720Y0069827D02*
X0099257Y0069827D01*
X0099041Y0070325D02*
X0102046Y0070325D01*
X0101537Y0070824D02*
X0098930Y0070824D01*
X0098886Y0071322D02*
X0101347Y0071322D01*
X0101260Y0071821D02*
X0098886Y0071821D01*
X0098886Y0072320D02*
X0101260Y0072320D01*
X0101260Y0072818D02*
X0098886Y0072818D01*
X0098993Y0073317D02*
X0101260Y0073317D01*
X0101260Y0073815D02*
X0099155Y0073815D01*
X0099386Y0074314D02*
X0101455Y0074314D01*
X0248492Y0164225D02*
X0252787Y0164225D01*
X0252776Y0164634D01*
X0253236Y0165658D01*
X0249925Y0165658D01*
X0249925Y0168969D01*
X0248906Y0168508D01*
X0248492Y0168520D01*
X0248492Y0164225D01*
X0248492Y0164544D02*
X0252778Y0164544D01*
X0252959Y0165043D02*
X0248492Y0165043D01*
X0248492Y0165541D02*
X0253184Y0165541D01*
X0251720Y0166992D02*
X0258028Y0166992D01*
X0258303Y0167272D01*
X0258583Y0167548D01*
X0258583Y0173878D01*
X0258303Y0174087D01*
X0258028Y0174296D01*
X0251720Y0174296D01*
X0251303Y0173878D01*
X0251303Y0167481D01*
X0251720Y0166992D01*
X0251683Y0167037D02*
X0258071Y0167037D01*
X0258570Y0167535D02*
X0251303Y0167535D01*
X0251303Y0168034D02*
X0258583Y0168034D01*
X0258583Y0168532D02*
X0251303Y0168532D01*
X0251303Y0169031D02*
X0258583Y0169031D01*
X0258583Y0169529D02*
X0251303Y0169529D01*
X0251303Y0170028D02*
X0258583Y0170028D01*
X0258583Y0170526D02*
X0251303Y0170526D01*
X0251303Y0171025D02*
X0258583Y0171025D01*
X0258583Y0171523D02*
X0251303Y0171523D01*
X0251303Y0172022D02*
X0258583Y0172022D01*
X0258583Y0172520D02*
X0251303Y0172520D01*
X0251303Y0173019D02*
X0258583Y0173019D01*
X0258583Y0173517D02*
X0251303Y0173517D01*
X0251441Y0174016D02*
X0258398Y0174016D01*
X0259890Y0173878D02*
X0259890Y0167481D01*
X0260307Y0166992D01*
X0266614Y0166992D01*
X0266890Y0167272D01*
X0267169Y0167548D01*
X0267169Y0173878D01*
X0266890Y0174087D01*
X0266614Y0174296D01*
X0260307Y0174296D01*
X0259890Y0173878D01*
X0260027Y0174016D02*
X0266985Y0174016D01*
X0267169Y0173517D02*
X0259890Y0173517D01*
X0259890Y0173019D02*
X0267169Y0173019D01*
X0267169Y0172520D02*
X0259890Y0172520D01*
X0259890Y0172022D02*
X0267169Y0172022D01*
X0267169Y0171523D02*
X0259890Y0171523D01*
X0259890Y0171025D02*
X0267169Y0171025D01*
X0267169Y0170526D02*
X0259890Y0170526D01*
X0259890Y0170028D02*
X0267169Y0170028D01*
X0267169Y0169529D02*
X0259890Y0169529D01*
X0259890Y0169031D02*
X0267169Y0169031D01*
X0267169Y0168532D02*
X0259890Y0168532D01*
X0259890Y0168034D02*
X0267169Y0168034D01*
X0267157Y0167535D02*
X0259890Y0167535D01*
X0260269Y0167037D02*
X0266658Y0167037D01*
X0268476Y0167481D02*
X0268476Y0173878D01*
X0268894Y0174296D01*
X0275201Y0174296D01*
X0275476Y0174087D01*
X0275756Y0173878D01*
X0275756Y0167548D01*
X0275476Y0167272D01*
X0275201Y0166992D01*
X0268894Y0166992D01*
X0268476Y0167481D01*
X0268476Y0167535D02*
X0275743Y0167535D01*
X0275756Y0168034D02*
X0268476Y0168034D01*
X0268476Y0168532D02*
X0275756Y0168532D01*
X0275756Y0169031D02*
X0268476Y0169031D01*
X0268476Y0169529D02*
X0275756Y0169529D01*
X0275756Y0170028D02*
X0268476Y0170028D01*
X0268476Y0170526D02*
X0275756Y0170526D01*
X0275756Y0171025D02*
X0268476Y0171025D01*
X0268476Y0171523D02*
X0275756Y0171523D01*
X0275756Y0172022D02*
X0268476Y0172022D01*
X0268476Y0172520D02*
X0275756Y0172520D01*
X0275756Y0173019D02*
X0268476Y0173019D01*
X0268476Y0173517D02*
X0275756Y0173517D01*
X0275572Y0174016D02*
X0268614Y0174016D01*
X0268894Y0175579D02*
X0275201Y0175579D01*
X0275476Y0175859D01*
X0275756Y0176134D01*
X0275756Y0182465D01*
X0275476Y0182674D01*
X0275201Y0182882D01*
X0268894Y0182882D01*
X0268476Y0182465D01*
X0268476Y0176067D01*
X0268894Y0175579D01*
X0268525Y0176010D02*
X0275630Y0176010D01*
X0275756Y0176508D02*
X0268476Y0176508D01*
X0268476Y0177007D02*
X0275756Y0177007D01*
X0275756Y0177505D02*
X0268476Y0177505D01*
X0268476Y0178004D02*
X0275756Y0178004D01*
X0275756Y0178502D02*
X0268476Y0178502D01*
X0268476Y0179001D02*
X0275756Y0179001D01*
X0275756Y0179499D02*
X0268476Y0179499D01*
X0268476Y0179998D02*
X0275756Y0179998D01*
X0275756Y0180496D02*
X0268476Y0180496D01*
X0268476Y0180995D02*
X0275756Y0180995D01*
X0275756Y0181493D02*
X0268476Y0181493D01*
X0268476Y0181992D02*
X0275756Y0181992D01*
X0275722Y0182491D02*
X0268502Y0182491D01*
X0267169Y0182465D02*
X0266890Y0182674D01*
X0266614Y0182882D01*
X0260307Y0182882D01*
X0259890Y0182465D01*
X0259890Y0176067D01*
X0260307Y0175579D01*
X0266614Y0175579D01*
X0266890Y0175859D01*
X0267169Y0176134D01*
X0267169Y0182465D01*
X0267135Y0182491D02*
X0259915Y0182491D01*
X0259890Y0181992D02*
X0267169Y0181992D01*
X0267169Y0181493D02*
X0259890Y0181493D01*
X0259890Y0180995D02*
X0267169Y0180995D01*
X0267169Y0180496D02*
X0259890Y0180496D01*
X0259890Y0179998D02*
X0267169Y0179998D01*
X0267169Y0179499D02*
X0259890Y0179499D01*
X0259890Y0179001D02*
X0267169Y0179001D01*
X0267169Y0178502D02*
X0259890Y0178502D01*
X0259890Y0178004D02*
X0267169Y0178004D01*
X0267169Y0177505D02*
X0259890Y0177505D01*
X0259890Y0177007D02*
X0267169Y0177007D01*
X0267169Y0176508D02*
X0259890Y0176508D01*
X0259939Y0176010D02*
X0267043Y0176010D01*
X0258583Y0176134D02*
X0258583Y0182465D01*
X0258303Y0182674D01*
X0258028Y0182882D01*
X0251720Y0182882D01*
X0251303Y0182465D01*
X0251303Y0176067D01*
X0251720Y0175579D01*
X0258028Y0175579D01*
X0258303Y0175859D01*
X0258583Y0176134D01*
X0258457Y0176010D02*
X0251352Y0176010D01*
X0251303Y0176508D02*
X0258583Y0176508D01*
X0258583Y0177007D02*
X0251303Y0177007D01*
X0251303Y0177505D02*
X0258583Y0177505D01*
X0258583Y0178004D02*
X0251303Y0178004D01*
X0251303Y0178502D02*
X0258583Y0178502D01*
X0258583Y0179001D02*
X0251303Y0179001D01*
X0251303Y0179499D02*
X0258583Y0179499D01*
X0258583Y0179998D02*
X0251303Y0179998D01*
X0251303Y0180496D02*
X0258583Y0180496D01*
X0258583Y0180995D02*
X0251303Y0180995D01*
X0251303Y0181493D02*
X0258583Y0181493D01*
X0258583Y0181992D02*
X0251303Y0181992D01*
X0251329Y0182491D02*
X0258548Y0182491D01*
X0258028Y0184166D02*
X0258303Y0184445D01*
X0258583Y0184725D01*
X0258583Y0191051D01*
X0258303Y0191260D01*
X0258028Y0191469D01*
X0251720Y0191469D01*
X0251303Y0191051D01*
X0251303Y0184654D01*
X0251720Y0184166D01*
X0258028Y0184166D01*
X0258343Y0184485D02*
X0251448Y0184485D01*
X0251303Y0184983D02*
X0258583Y0184983D01*
X0258583Y0185482D02*
X0251303Y0185482D01*
X0251303Y0185980D02*
X0258583Y0185980D01*
X0258583Y0186479D02*
X0251303Y0186479D01*
X0251303Y0186977D02*
X0258583Y0186977D01*
X0258583Y0187476D02*
X0251303Y0187476D01*
X0251303Y0187974D02*
X0258583Y0187974D01*
X0258583Y0188473D02*
X0251303Y0188473D01*
X0251303Y0188971D02*
X0258583Y0188971D01*
X0258583Y0189470D02*
X0251303Y0189470D01*
X0251303Y0189968D02*
X0258583Y0189968D01*
X0258583Y0190467D02*
X0251303Y0190467D01*
X0251303Y0190965D02*
X0258583Y0190965D01*
X0258034Y0191464D02*
X0251715Y0191464D01*
X0251720Y0192752D02*
X0258028Y0192752D01*
X0258303Y0193032D01*
X0258583Y0193311D01*
X0258583Y0199638D01*
X0258303Y0199847D01*
X0258028Y0200055D01*
X0251720Y0200055D01*
X0251303Y0199638D01*
X0251303Y0193240D01*
X0251720Y0192752D01*
X0251544Y0192959D02*
X0258232Y0192959D01*
X0258583Y0193458D02*
X0251303Y0193458D01*
X0251303Y0193956D02*
X0258583Y0193956D01*
X0258583Y0194455D02*
X0251303Y0194455D01*
X0251303Y0194953D02*
X0258583Y0194953D01*
X0258583Y0195452D02*
X0251303Y0195452D01*
X0251303Y0195950D02*
X0258583Y0195950D01*
X0258583Y0196449D02*
X0251303Y0196449D01*
X0251303Y0196947D02*
X0258583Y0196947D01*
X0258583Y0197446D02*
X0251303Y0197446D01*
X0251303Y0197944D02*
X0258583Y0197944D01*
X0258583Y0198443D02*
X0251303Y0198443D01*
X0251303Y0198941D02*
X0258583Y0198941D01*
X0258583Y0199440D02*
X0251303Y0199440D01*
X0251603Y0199938D02*
X0258182Y0199938D01*
X0259890Y0199638D02*
X0259890Y0193240D01*
X0260307Y0192752D01*
X0266614Y0192752D01*
X0266890Y0193032D01*
X0267169Y0193311D01*
X0267169Y0199638D01*
X0266890Y0199847D01*
X0266614Y0200055D01*
X0260307Y0200055D01*
X0259890Y0199638D01*
X0259890Y0199440D02*
X0267169Y0199440D01*
X0267169Y0198941D02*
X0259890Y0198941D01*
X0259890Y0198443D02*
X0267169Y0198443D01*
X0267169Y0197944D02*
X0259890Y0197944D01*
X0259890Y0197446D02*
X0267169Y0197446D01*
X0267169Y0196947D02*
X0259890Y0196947D01*
X0259890Y0196449D02*
X0267169Y0196449D01*
X0267169Y0195950D02*
X0259890Y0195950D01*
X0259890Y0195452D02*
X0267169Y0195452D01*
X0267169Y0194953D02*
X0259890Y0194953D01*
X0259890Y0194455D02*
X0267169Y0194455D01*
X0267169Y0193956D02*
X0259890Y0193956D01*
X0259890Y0193458D02*
X0267169Y0193458D01*
X0266818Y0192959D02*
X0260130Y0192959D01*
X0260307Y0191469D02*
X0259890Y0191051D01*
X0259890Y0184654D01*
X0260307Y0184166D01*
X0266614Y0184166D01*
X0266890Y0184445D01*
X0267169Y0184725D01*
X0267169Y0191051D01*
X0266890Y0191260D01*
X0266614Y0191469D01*
X0260307Y0191469D01*
X0260302Y0191464D02*
X0266621Y0191464D01*
X0267169Y0190965D02*
X0259890Y0190965D01*
X0259890Y0190467D02*
X0267169Y0190467D01*
X0267169Y0189968D02*
X0259890Y0189968D01*
X0259890Y0189470D02*
X0267169Y0189470D01*
X0267169Y0188971D02*
X0259890Y0188971D01*
X0259890Y0188473D02*
X0267169Y0188473D01*
X0267169Y0187974D02*
X0259890Y0187974D01*
X0259890Y0187476D02*
X0267169Y0187476D01*
X0267169Y0186977D02*
X0259890Y0186977D01*
X0259890Y0186479D02*
X0267169Y0186479D01*
X0267169Y0185980D02*
X0259890Y0185980D01*
X0259890Y0185482D02*
X0267169Y0185482D01*
X0267169Y0184983D02*
X0259890Y0184983D01*
X0260034Y0184485D02*
X0266929Y0184485D01*
X0268476Y0184654D02*
X0268476Y0191051D01*
X0268894Y0191469D01*
X0275201Y0191469D01*
X0275476Y0191260D01*
X0275756Y0191051D01*
X0275756Y0184725D01*
X0275476Y0184445D01*
X0275201Y0184166D01*
X0268894Y0184166D01*
X0268476Y0184654D01*
X0268621Y0184485D02*
X0275516Y0184485D01*
X0275756Y0184983D02*
X0268476Y0184983D01*
X0268476Y0185482D02*
X0275756Y0185482D01*
X0275756Y0185980D02*
X0268476Y0185980D01*
X0268476Y0186479D02*
X0275756Y0186479D01*
X0275756Y0186977D02*
X0268476Y0186977D01*
X0268476Y0187476D02*
X0275756Y0187476D01*
X0275756Y0187974D02*
X0268476Y0187974D01*
X0268476Y0188473D02*
X0275756Y0188473D01*
X0275756Y0188971D02*
X0268476Y0188971D01*
X0268476Y0189470D02*
X0275756Y0189470D01*
X0275756Y0189968D02*
X0268476Y0189968D01*
X0268476Y0190467D02*
X0275756Y0190467D01*
X0275756Y0190965D02*
X0268476Y0190965D01*
X0268889Y0191464D02*
X0275208Y0191464D01*
X0275201Y0192752D02*
X0275476Y0193032D01*
X0275756Y0193311D01*
X0275756Y0199638D01*
X0275476Y0199847D01*
X0275201Y0200055D01*
X0268894Y0200055D01*
X0268476Y0199638D01*
X0268476Y0193240D01*
X0268894Y0192752D01*
X0275201Y0192752D01*
X0275405Y0192959D02*
X0268717Y0192959D01*
X0268476Y0193458D02*
X0275756Y0193458D01*
X0275756Y0193956D02*
X0268476Y0193956D01*
X0268476Y0194455D02*
X0275756Y0194455D01*
X0275756Y0194953D02*
X0268476Y0194953D01*
X0268476Y0195452D02*
X0275756Y0195452D01*
X0275756Y0195950D02*
X0268476Y0195950D01*
X0268476Y0196449D02*
X0275756Y0196449D01*
X0275756Y0196947D02*
X0268476Y0196947D01*
X0268476Y0197446D02*
X0275756Y0197446D01*
X0275756Y0197944D02*
X0268476Y0197944D01*
X0268476Y0198443D02*
X0275756Y0198443D01*
X0275756Y0198941D02*
X0268476Y0198941D01*
X0268476Y0199440D02*
X0275756Y0199440D01*
X0275355Y0199938D02*
X0268777Y0199938D01*
X0266769Y0199938D02*
X0260190Y0199938D01*
X0253236Y0201437D02*
X0252776Y0202457D01*
X0252787Y0202866D01*
X0248492Y0202866D01*
X0248492Y0198575D01*
X0248906Y0198583D01*
X0249925Y0198126D01*
X0249925Y0201437D01*
X0253236Y0201437D01*
X0253013Y0201932D02*
X0248492Y0201932D01*
X0248492Y0201434D02*
X0249925Y0201434D01*
X0249925Y0200935D02*
X0248492Y0200935D01*
X0248492Y0200437D02*
X0249925Y0200437D01*
X0249925Y0199938D02*
X0248492Y0199938D01*
X0248492Y0199440D02*
X0249925Y0199440D01*
X0249925Y0198941D02*
X0248492Y0198941D01*
X0249218Y0198443D02*
X0249925Y0198443D01*
X0248492Y0202431D02*
X0252787Y0202431D01*
X0277067Y0199638D02*
X0277067Y0193240D01*
X0277272Y0193032D01*
X0277480Y0192752D01*
X0283787Y0192752D01*
X0284067Y0193032D01*
X0284343Y0193311D01*
X0284343Y0199638D01*
X0284067Y0199847D01*
X0283787Y0200055D01*
X0277480Y0200055D01*
X0277272Y0199847D01*
X0277067Y0199638D01*
X0277067Y0199440D02*
X0284343Y0199440D01*
X0284343Y0198941D02*
X0277067Y0198941D01*
X0277067Y0198443D02*
X0284343Y0198443D01*
X0284343Y0197944D02*
X0277067Y0197944D01*
X0277067Y0197446D02*
X0284343Y0197446D01*
X0284343Y0196947D02*
X0277067Y0196947D01*
X0277067Y0196449D02*
X0284343Y0196449D01*
X0284343Y0195950D02*
X0277067Y0195950D01*
X0277067Y0195452D02*
X0284343Y0195452D01*
X0284343Y0194953D02*
X0277067Y0194953D01*
X0277067Y0194455D02*
X0284343Y0194455D01*
X0284343Y0193956D02*
X0277067Y0193956D01*
X0277067Y0193458D02*
X0284343Y0193458D01*
X0283994Y0192959D02*
X0277326Y0192959D01*
X0277480Y0191469D02*
X0277272Y0191260D01*
X0277067Y0191051D01*
X0277067Y0184654D01*
X0277272Y0184445D01*
X0277480Y0184166D01*
X0283787Y0184166D01*
X0284067Y0184445D01*
X0284343Y0184725D01*
X0284343Y0191051D01*
X0284067Y0191260D01*
X0283787Y0191469D01*
X0277480Y0191469D01*
X0277475Y0191464D02*
X0283794Y0191464D01*
X0284343Y0190965D02*
X0277067Y0190965D01*
X0277067Y0190467D02*
X0284343Y0190467D01*
X0284343Y0189968D02*
X0277067Y0189968D01*
X0277067Y0189470D02*
X0284343Y0189470D01*
X0284343Y0188971D02*
X0277067Y0188971D01*
X0277067Y0188473D02*
X0284343Y0188473D01*
X0284343Y0187974D02*
X0277067Y0187974D01*
X0277067Y0187476D02*
X0284343Y0187476D01*
X0284343Y0186977D02*
X0277067Y0186977D01*
X0277067Y0186479D02*
X0284343Y0186479D01*
X0284343Y0185980D02*
X0277067Y0185980D01*
X0277067Y0185482D02*
X0284343Y0185482D01*
X0284343Y0184983D02*
X0277067Y0184983D01*
X0277233Y0184485D02*
X0284106Y0184485D01*
X0283787Y0182882D02*
X0277480Y0182882D01*
X0277272Y0182674D01*
X0277067Y0182465D01*
X0277067Y0176067D01*
X0277272Y0175859D01*
X0277480Y0175579D01*
X0283787Y0175579D01*
X0284343Y0176134D01*
X0284343Y0182465D01*
X0284067Y0182674D01*
X0283787Y0182882D01*
X0284309Y0182491D02*
X0277092Y0182491D01*
X0277067Y0181992D02*
X0284343Y0181992D01*
X0284343Y0181493D02*
X0277067Y0181493D01*
X0277067Y0180995D02*
X0284343Y0180995D01*
X0284343Y0180496D02*
X0277067Y0180496D01*
X0277067Y0179998D02*
X0284343Y0179998D01*
X0284343Y0179499D02*
X0277067Y0179499D01*
X0277067Y0179001D02*
X0284343Y0179001D01*
X0284343Y0178502D02*
X0277067Y0178502D01*
X0277067Y0178004D02*
X0284343Y0178004D01*
X0284343Y0177505D02*
X0277067Y0177505D01*
X0277067Y0177007D02*
X0284343Y0177007D01*
X0284343Y0176508D02*
X0277067Y0176508D01*
X0277123Y0176010D02*
X0284218Y0176010D01*
X0283787Y0174296D02*
X0277480Y0174296D01*
X0277272Y0174087D01*
X0277067Y0173878D01*
X0277067Y0167481D01*
X0277272Y0167272D01*
X0277480Y0166992D01*
X0283787Y0166992D01*
X0284343Y0167548D01*
X0284343Y0173878D01*
X0284067Y0174087D01*
X0283787Y0174296D01*
X0284161Y0174016D02*
X0277202Y0174016D01*
X0277067Y0173517D02*
X0284343Y0173517D01*
X0284343Y0173019D02*
X0277067Y0173019D01*
X0277067Y0172520D02*
X0284343Y0172520D01*
X0284343Y0172022D02*
X0277067Y0172022D01*
X0277067Y0171523D02*
X0284343Y0171523D01*
X0284343Y0171025D02*
X0277067Y0171025D01*
X0277067Y0170526D02*
X0284343Y0170526D01*
X0284343Y0170028D02*
X0277067Y0170028D01*
X0277067Y0169529D02*
X0284343Y0169529D01*
X0284343Y0169031D02*
X0277067Y0169031D01*
X0277067Y0168532D02*
X0284343Y0168532D01*
X0284343Y0168034D02*
X0277067Y0168034D01*
X0277067Y0167535D02*
X0284330Y0167535D01*
X0283832Y0167037D02*
X0277447Y0167037D01*
X0275244Y0167037D02*
X0268856Y0167037D01*
X0282394Y0165658D02*
X0282854Y0164634D01*
X0282843Y0164225D01*
X0287134Y0164225D01*
X0287134Y0168520D01*
X0286724Y0168508D01*
X0285705Y0168969D01*
X0285705Y0165658D01*
X0282394Y0165658D01*
X0282446Y0165541D02*
X0287134Y0165541D01*
X0287134Y0165043D02*
X0282671Y0165043D01*
X0282852Y0164544D02*
X0287134Y0164544D01*
X0287134Y0166040D02*
X0285705Y0166040D01*
X0285705Y0166538D02*
X0287134Y0166538D01*
X0287134Y0167037D02*
X0285705Y0167037D01*
X0285705Y0167535D02*
X0287134Y0167535D01*
X0287134Y0168034D02*
X0285705Y0168034D01*
X0285705Y0168532D02*
X0286671Y0168532D01*
X0249925Y0168532D02*
X0248959Y0168532D01*
X0248492Y0168034D02*
X0249925Y0168034D01*
X0249925Y0167535D02*
X0248492Y0167535D01*
X0248492Y0167037D02*
X0249925Y0167037D01*
X0249925Y0166538D02*
X0248492Y0166538D01*
X0248492Y0166040D02*
X0249925Y0166040D01*
X0285705Y0197996D02*
X0286724Y0198583D01*
X0287134Y0198575D01*
X0287134Y0202866D01*
X0282843Y0202866D01*
X0282854Y0202457D01*
X0282394Y0201303D01*
X0285705Y0201303D01*
X0285705Y0197996D01*
X0285705Y0198443D02*
X0286481Y0198443D01*
X0287134Y0198941D02*
X0285705Y0198941D01*
X0285705Y0199440D02*
X0287134Y0199440D01*
X0287134Y0199938D02*
X0285705Y0199938D01*
X0285705Y0200437D02*
X0287134Y0200437D01*
X0287134Y0200935D02*
X0285705Y0200935D01*
X0287134Y0201434D02*
X0282446Y0201434D01*
X0282645Y0201932D02*
X0287134Y0201932D01*
X0287134Y0202431D02*
X0282844Y0202431D01*
X0283944Y0199938D02*
X0277363Y0199938D01*
D11*
X0296717Y0145262D03*
X0306017Y0136862D03*
X0322917Y0141062D03*
D12*
X0322817Y0141062D03*
X0306617Y0136862D03*
X0279917Y0141062D03*
D13*
X0280017Y0141062D03*
X0292317Y0157362D03*
X0322717Y0141062D03*
X0310317Y0124662D03*
X0310217Y0124662D03*
X0310117Y0124662D03*
D14*
X0309617Y0124812D03*
X0307717Y0136812D03*
X0322617Y0141112D03*
X0294417Y0157812D03*
X0294317Y0157812D03*
X0280117Y0141112D03*
D15*
X0280217Y0141062D03*
X0294717Y0145362D03*
X0296417Y0157862D03*
X0297917Y0158262D03*
X0298517Y0158262D03*
X0298617Y0158262D03*
X0304117Y0158262D03*
X0304217Y0158262D03*
X0322517Y0141062D03*
X0307717Y0124662D03*
X0306317Y0124262D03*
X0304817Y0123962D03*
X0304217Y0123862D03*
X0303817Y0123762D03*
X0303717Y0123762D03*
X0303617Y0123762D03*
X0303517Y0123762D03*
X0303417Y0123762D03*
X0303317Y0123762D03*
X0303217Y0123762D03*
X0302417Y0123762D03*
X0302317Y0123762D03*
X0302217Y0123762D03*
X0302117Y0123762D03*
X0302017Y0123762D03*
X0301917Y0123762D03*
X0300717Y0123762D03*
X0300617Y0123762D03*
X0300517Y0123762D03*
X0300417Y0123762D03*
X0300317Y0123762D03*
X0300217Y0123762D03*
X0300117Y0123762D03*
X0300017Y0123762D03*
X0299917Y0123762D03*
X0299817Y0123762D03*
X0299017Y0123762D03*
X0298917Y0123762D03*
X0297917Y0123962D03*
D16*
X0296917Y0124762D03*
X0280317Y0141062D03*
X0322417Y0141062D03*
D17*
X0322317Y0141112D03*
X0306517Y0156812D03*
X0306417Y0156912D03*
X0294017Y0145312D03*
X0280417Y0141112D03*
X0296317Y0125212D03*
D18*
X0295317Y0126062D03*
X0322217Y0141062D03*
X0307517Y0156062D03*
D19*
X0293417Y0145312D03*
X0309317Y0136812D03*
X0322117Y0141112D03*
D20*
X0322017Y0141062D03*
X0308517Y0155162D03*
X0280717Y0141062D03*
X0294217Y0126962D03*
X0294317Y0126862D03*
D21*
X0293417Y0127712D03*
X0293317Y0127712D03*
X0280817Y0141112D03*
X0309317Y0154512D03*
X0309417Y0154412D03*
X0309517Y0154312D03*
X0321917Y0141112D03*
D22*
X0321817Y0141112D03*
X0309817Y0154112D03*
X0280917Y0141112D03*
X0292917Y0128112D03*
D23*
X0291917Y0128962D03*
X0292417Y0145362D03*
X0310717Y0153262D03*
X0310817Y0153162D03*
X0321717Y0141062D03*
D24*
X0321617Y0141112D03*
D25*
X0321517Y0141112D03*
X0281217Y0141112D03*
D26*
X0310917Y0136712D03*
X0321417Y0141112D03*
D27*
X0321317Y0141062D03*
X0311017Y0136762D03*
X0291717Y0145362D03*
X0281417Y0141062D03*
D28*
X0281517Y0141062D03*
X0321217Y0141062D03*
D29*
X0321117Y0141062D03*
X0281617Y0141062D03*
D30*
X0281717Y0141062D03*
X0321017Y0141062D03*
D31*
X0320917Y0141062D03*
D32*
X0320817Y0141062D03*
X0281917Y0141062D03*
D33*
X0282017Y0141062D03*
X0320717Y0141062D03*
D34*
X0320617Y0141112D03*
D35*
X0320517Y0141062D03*
X0282217Y0141062D03*
D36*
X0320417Y0141062D03*
D37*
X0320317Y0141062D03*
X0282417Y0141062D03*
D38*
X0282517Y0141062D03*
X0320217Y0141062D03*
D39*
X0320117Y0141062D03*
D40*
X0320017Y0141062D03*
X0282717Y0141062D03*
D41*
X0282817Y0141062D03*
X0319917Y0141062D03*
D42*
X0319817Y0141062D03*
X0282917Y0141062D03*
D43*
X0283017Y0141062D03*
X0319717Y0141062D03*
D44*
X0319617Y0141062D03*
X0283117Y0141162D03*
D45*
X0283217Y0141112D03*
X0319517Y0141112D03*
D46*
X0319417Y0141062D03*
X0283317Y0141062D03*
D47*
X0319317Y0141062D03*
D48*
X0319217Y0141062D03*
X0283517Y0141062D03*
D49*
X0283617Y0141062D03*
X0319117Y0141062D03*
D50*
X0319017Y0141062D03*
X0283717Y0141062D03*
D51*
X0283817Y0141062D03*
X0318917Y0141062D03*
D52*
X0318817Y0141062D03*
D53*
X0318717Y0141062D03*
X0284017Y0141062D03*
D54*
X0284117Y0141062D03*
X0318617Y0141062D03*
D55*
X0318517Y0141062D03*
D56*
X0318417Y0141062D03*
X0284317Y0141062D03*
D57*
X0284417Y0141062D03*
X0318317Y0141062D03*
D58*
X0318217Y0141112D03*
X0284517Y0141112D03*
D59*
X0284617Y0141062D03*
X0318117Y0141062D03*
D60*
X0318017Y0141062D03*
X0284717Y0141062D03*
D61*
X0284817Y0141112D03*
X0317917Y0141112D03*
D62*
X0317817Y0141062D03*
X0284917Y0141062D03*
D63*
X0317717Y0141062D03*
D64*
X0317617Y0141062D03*
D65*
X0317517Y0141062D03*
D66*
X0317417Y0141062D03*
X0285317Y0141062D03*
D67*
X0285417Y0141062D03*
X0317317Y0141062D03*
D68*
X0317217Y0141062D03*
X0317117Y0141062D03*
X0285617Y0141062D03*
D69*
X0285717Y0141062D03*
X0317017Y0141062D03*
D70*
X0316917Y0141062D03*
X0285817Y0141062D03*
D71*
X0285917Y0141062D03*
X0316817Y0141062D03*
D72*
X0316717Y0141062D03*
X0286017Y0141062D03*
D73*
X0286117Y0141062D03*
X0316617Y0141062D03*
D74*
X0316517Y0141062D03*
X0286217Y0141062D03*
D75*
X0286417Y0141062D03*
X0316317Y0141062D03*
X0316417Y0141062D03*
D76*
X0316217Y0141062D03*
X0286517Y0141062D03*
D77*
X0286617Y0141062D03*
X0316117Y0141062D03*
D78*
X0316017Y0141062D03*
X0286717Y0141062D03*
D79*
X0286817Y0141062D03*
X0315917Y0141062D03*
D80*
X0315817Y0141062D03*
X0286917Y0141062D03*
D81*
X0315717Y0141062D03*
D82*
X0315617Y0141112D03*
D83*
X0315517Y0141062D03*
X0315417Y0141062D03*
X0287317Y0141062D03*
X0287217Y0141062D03*
D84*
X0287417Y0141062D03*
X0287517Y0141062D03*
X0315217Y0141062D03*
X0315317Y0141062D03*
D85*
X0315117Y0141112D03*
D86*
X0315017Y0141062D03*
X0287717Y0141062D03*
D87*
X0314917Y0141062D03*
D88*
X0314817Y0141112D03*
X0287917Y0141112D03*
D89*
X0288017Y0141062D03*
X0314717Y0141062D03*
D90*
X0314617Y0141112D03*
D91*
X0314517Y0141062D03*
X0288317Y0141062D03*
D92*
X0288217Y0141112D03*
X0314417Y0141112D03*
D93*
X0314317Y0141062D03*
X0314217Y0141062D03*
X0288517Y0141062D03*
D94*
X0288617Y0141062D03*
X0314117Y0141062D03*
D95*
X0314017Y0141062D03*
X0288717Y0141062D03*
D96*
X0288817Y0141012D03*
X0313917Y0141012D03*
D97*
X0313817Y0141062D03*
X0288917Y0141062D03*
D98*
X0289017Y0141062D03*
X0289117Y0141062D03*
X0313617Y0141062D03*
X0313717Y0141062D03*
D99*
X0313517Y0141112D03*
D100*
X0313417Y0141062D03*
X0313317Y0141062D03*
X0289417Y0141062D03*
X0289317Y0141062D03*
D101*
X0289517Y0141112D03*
X0313217Y0141112D03*
D102*
X0313117Y0141062D03*
X0313017Y0141062D03*
X0289717Y0141062D03*
X0289617Y0141062D03*
D103*
X0289817Y0141062D03*
X0312917Y0141062D03*
D104*
X0312817Y0141062D03*
X0290017Y0141062D03*
X0289917Y0141062D03*
D105*
X0312717Y0141012D03*
D106*
X0312617Y0141062D03*
X0290117Y0141062D03*
D107*
X0290217Y0141112D03*
X0312517Y0141112D03*
D108*
X0312417Y0141062D03*
X0290317Y0141062D03*
D109*
X0290417Y0141062D03*
X0312317Y0141062D03*
D110*
X0312217Y0141112D03*
X0290517Y0141112D03*
D111*
X0290617Y0141062D03*
X0290717Y0141062D03*
X0312017Y0141062D03*
X0312117Y0141062D03*
D112*
X0311917Y0141112D03*
D113*
X0311817Y0141062D03*
X0311717Y0141062D03*
X0291017Y0141062D03*
X0290917Y0141062D03*
D114*
X0311617Y0141062D03*
D115*
X0311517Y0141112D03*
X0291217Y0141112D03*
D116*
X0291317Y0141062D03*
X0311417Y0141062D03*
D117*
X0311317Y0141012D03*
X0291417Y0141012D03*
D118*
X0291517Y0141062D03*
X0311217Y0141062D03*
D119*
X0311117Y0124962D03*
X0311017Y0124862D03*
X0310917Y0124862D03*
D120*
X0311117Y0136762D03*
D121*
X0311117Y0152912D03*
D122*
X0311017Y0152962D03*
X0292317Y0145362D03*
X0310417Y0136762D03*
X0291717Y0129162D03*
D123*
X0291817Y0129112D03*
X0310917Y0153012D03*
D124*
X0295517Y0145312D03*
X0307217Y0136812D03*
X0310717Y0124812D03*
X0310817Y0124812D03*
X0291817Y0157212D03*
D125*
X0291917Y0145362D03*
X0281317Y0141062D03*
X0310817Y0136762D03*
D126*
X0310717Y0136762D03*
X0292017Y0145362D03*
D127*
X0292017Y0157262D03*
X0291917Y0157262D03*
X0291717Y0157262D03*
X0310517Y0124762D03*
X0310617Y0124762D03*
D128*
X0310617Y0136762D03*
D129*
X0310317Y0136762D03*
X0310617Y0153362D03*
D130*
X0292217Y0145362D03*
X0281117Y0141062D03*
X0310517Y0136762D03*
D131*
X0292417Y0128512D03*
X0292317Y0128612D03*
X0292217Y0128712D03*
X0310517Y0153412D03*
X0310417Y0153512D03*
D132*
X0295417Y0145312D03*
X0307317Y0136812D03*
X0310417Y0124712D03*
X0292217Y0157312D03*
X0292117Y0157312D03*
D133*
X0292517Y0145362D03*
X0281017Y0141062D03*
X0310217Y0136762D03*
X0310317Y0153662D03*
D134*
X0310217Y0153712D03*
X0292517Y0128412D03*
D135*
X0292617Y0128362D03*
X0310117Y0136762D03*
X0292617Y0145362D03*
X0310117Y0153762D03*
D136*
X0292717Y0157412D03*
X0292617Y0157412D03*
X0292517Y0157412D03*
X0292417Y0157412D03*
X0307417Y0136812D03*
X0310017Y0124712D03*
D137*
X0293117Y0127862D03*
X0293017Y0127962D03*
X0310017Y0136762D03*
X0309717Y0154162D03*
D138*
X0309917Y0153962D03*
X0310017Y0153862D03*
X0292717Y0145362D03*
X0292717Y0128262D03*
X0292817Y0128162D03*
D139*
X0309917Y0124712D03*
X0295317Y0145312D03*
X0292817Y0157412D03*
D140*
X0309617Y0154212D03*
X0309917Y0136812D03*
X0293217Y0127812D03*
D141*
X0308617Y0124362D03*
X0308717Y0124362D03*
X0309817Y0124762D03*
X0293817Y0157662D03*
X0293717Y0157662D03*
D142*
X0309217Y0154612D03*
X0309817Y0136812D03*
D143*
X0307617Y0136812D03*
X0295117Y0145312D03*
X0293017Y0157312D03*
X0293917Y0157712D03*
X0294017Y0157712D03*
X0294117Y0157712D03*
X0294217Y0157712D03*
X0308417Y0124312D03*
X0308517Y0124312D03*
X0309717Y0124812D03*
D144*
X0293817Y0127262D03*
X0309717Y0136762D03*
X0293017Y0145362D03*
X0308817Y0154962D03*
X0308917Y0154862D03*
D145*
X0308717Y0155062D03*
X0308617Y0155062D03*
X0309617Y0136762D03*
X0294117Y0127062D03*
D146*
X0307017Y0124112D03*
X0307117Y0124112D03*
X0307217Y0124112D03*
X0307317Y0124112D03*
X0307417Y0124112D03*
X0307617Y0124212D03*
X0309517Y0124912D03*
X0295017Y0145312D03*
X0294617Y0157712D03*
X0295117Y0157912D03*
X0295217Y0157912D03*
X0295317Y0157912D03*
X0295417Y0157912D03*
X0295517Y0157912D03*
D147*
X0308317Y0155412D03*
X0309517Y0136812D03*
X0294417Y0126812D03*
D148*
X0306717Y0124062D03*
X0306817Y0124062D03*
X0306917Y0124062D03*
X0308117Y0124462D03*
X0309417Y0124962D03*
X0307817Y0136862D03*
X0294717Y0157662D03*
X0295617Y0157962D03*
X0295717Y0157962D03*
X0293317Y0157162D03*
D149*
X0308017Y0155562D03*
X0308117Y0155562D03*
X0309417Y0136762D03*
X0294717Y0126562D03*
D150*
X0309117Y0124462D03*
X0309217Y0124462D03*
X0309317Y0124462D03*
D151*
X0309317Y0128762D03*
X0307517Y0128962D03*
X0306417Y0130362D03*
X0305617Y0131462D03*
X0304317Y0130862D03*
X0303517Y0131962D03*
X0302717Y0133062D03*
X0300617Y0133562D03*
X0299817Y0134662D03*
X0300917Y0135562D03*
X0302717Y0135362D03*
X0305117Y0136862D03*
X0305617Y0133762D03*
X0303517Y0129662D03*
X0299317Y0130762D03*
X0299017Y0128762D03*
X0296417Y0132362D03*
X0296317Y0132462D03*
X0296117Y0135062D03*
X0296917Y0136262D03*
X0297717Y0135162D03*
X0299017Y0133462D03*
X0299017Y0150462D03*
X0299217Y0152562D03*
X0301217Y0152162D03*
X0301517Y0151762D03*
X0302817Y0152262D03*
X0302217Y0153062D03*
X0296117Y0152062D03*
D152*
X0296017Y0152162D03*
X0295717Y0152562D03*
X0295417Y0152962D03*
X0295217Y0153262D03*
X0294317Y0152162D03*
X0293717Y0152962D03*
X0293417Y0153362D03*
X0294917Y0151362D03*
X0295117Y0151062D03*
X0295517Y0150562D03*
X0295717Y0150262D03*
X0295817Y0150162D03*
X0295917Y0149962D03*
X0296217Y0149562D03*
X0296317Y0149462D03*
X0296517Y0149162D03*
X0296817Y0148762D03*
X0297117Y0148362D03*
X0297417Y0147962D03*
X0298017Y0147162D03*
X0298617Y0146362D03*
X0297717Y0145262D03*
X0299417Y0147562D03*
X0299517Y0147562D03*
X0299217Y0147862D03*
X0299117Y0147962D03*
X0298917Y0148262D03*
X0298817Y0148362D03*
X0298617Y0148662D03*
X0298417Y0148962D03*
X0298017Y0149462D03*
X0297817Y0149762D03*
X0297217Y0150562D03*
X0297017Y0150862D03*
X0296617Y0151362D03*
X0296317Y0151762D03*
X0297517Y0152462D03*
X0297617Y0152362D03*
X0298117Y0151662D03*
X0298317Y0151362D03*
X0298617Y0150962D03*
X0298917Y0150562D03*
X0299217Y0150162D03*
X0299517Y0149762D03*
X0300517Y0150762D03*
X0300417Y0150862D03*
X0300217Y0151162D03*
X0299917Y0151562D03*
X0299717Y0151862D03*
X0300717Y0152762D03*
X0300817Y0152662D03*
X0301017Y0152362D03*
X0301317Y0151962D03*
X0301617Y0151562D03*
X0301917Y0151162D03*
X0300817Y0150362D03*
X0301017Y0150062D03*
X0301217Y0149762D03*
X0302917Y0152162D03*
X0302617Y0152562D03*
X0302517Y0152662D03*
X0302317Y0152962D03*
X0302117Y0153262D03*
X0303717Y0153362D03*
X0303817Y0153262D03*
X0300417Y0153162D03*
X0300317Y0153362D03*
X0300217Y0153462D03*
X0298717Y0153162D03*
X0297017Y0153162D03*
X0296817Y0153462D03*
X0298417Y0136562D03*
X0298717Y0136162D03*
X0297517Y0135462D03*
X0297317Y0135762D03*
X0297817Y0135062D03*
X0297917Y0134962D03*
X0298017Y0134762D03*
X0298117Y0134662D03*
X0298317Y0134362D03*
X0298417Y0134262D03*
X0298617Y0133962D03*
X0298717Y0133862D03*
X0298817Y0133662D03*
X0298917Y0133562D03*
X0299217Y0133162D03*
X0299417Y0132862D03*
X0299517Y0132762D03*
X0298317Y0132062D03*
X0298117Y0132362D03*
X0298517Y0131762D03*
X0298717Y0131562D03*
X0298817Y0131362D03*
X0298917Y0131262D03*
X0299117Y0130962D03*
X0299417Y0130562D03*
X0299517Y0130462D03*
X0299717Y0130162D03*
X0300017Y0129762D03*
X0300217Y0129462D03*
X0300317Y0129362D03*
X0301217Y0130462D03*
X0301017Y0130762D03*
X0301617Y0129962D03*
X0301717Y0129762D03*
X0301817Y0129662D03*
X0302017Y0129362D03*
X0302317Y0128962D03*
X0302417Y0128862D03*
X0303917Y0129162D03*
X0305017Y0129962D03*
X0304717Y0130362D03*
X0304417Y0130762D03*
X0304217Y0131062D03*
X0304117Y0131162D03*
X0303817Y0131562D03*
X0303717Y0131762D03*
X0303617Y0131862D03*
X0303017Y0132662D03*
X0301817Y0131962D03*
X0301717Y0132062D03*
X0301517Y0132362D03*
X0301317Y0132662D03*
X0301217Y0132762D03*
X0300917Y0133162D03*
X0300717Y0133462D03*
X0300217Y0134162D03*
X0300117Y0134262D03*
X0301317Y0134962D03*
X0301117Y0135262D03*
X0301017Y0135362D03*
X0300717Y0135762D03*
X0300517Y0136062D03*
X0300417Y0136162D03*
X0300117Y0136562D03*
X0301817Y0136562D03*
X0302017Y0136362D03*
X0302217Y0136062D03*
X0302617Y0135562D03*
X0302817Y0135262D03*
X0302917Y0135162D03*
X0303017Y0134962D03*
X0303417Y0134462D03*
X0303617Y0134162D03*
X0303917Y0133762D03*
X0304017Y0133662D03*
X0304217Y0133362D03*
X0304517Y0132962D03*
X0304817Y0132562D03*
X0305917Y0133362D03*
X0306117Y0133162D03*
X0306317Y0132862D03*
X0306517Y0132562D03*
X0306817Y0132162D03*
X0306917Y0132062D03*
X0307117Y0131762D03*
X0307417Y0131362D03*
X0307717Y0130962D03*
X0306617Y0130162D03*
X0306517Y0130262D03*
X0306317Y0130562D03*
X0305917Y0131062D03*
X0306717Y0129962D03*
X0307117Y0129462D03*
X0307317Y0129162D03*
X0307617Y0128762D03*
X0308817Y0129462D03*
X0309217Y0128962D03*
X0305317Y0129562D03*
X0302417Y0131162D03*
X0302117Y0131562D03*
X0301617Y0134562D03*
X0303517Y0136562D03*
X0303717Y0136362D03*
X0304017Y0135962D03*
X0304317Y0135562D03*
X0304917Y0134762D03*
X0305117Y0134462D03*
X0305517Y0133962D03*
X0305717Y0133662D03*
X0305017Y0136862D03*
X0297517Y0133162D03*
X0296517Y0132162D03*
X0296617Y0132062D03*
X0296717Y0131862D03*
X0296817Y0131762D03*
X0297117Y0131362D03*
X0297417Y0130962D03*
X0298517Y0129462D03*
X0298917Y0128962D03*
X0296217Y0132562D03*
X0296017Y0132862D03*
X0295817Y0133162D03*
X0295617Y0133362D03*
X0295417Y0133662D03*
X0295217Y0133962D03*
X0294817Y0134462D03*
X0294617Y0134762D03*
X0295717Y0135562D03*
X0295817Y0135462D03*
X0296017Y0135162D03*
X0296317Y0134762D03*
X0296517Y0134462D03*
X0296617Y0134362D03*
X0295417Y0135962D03*
X0295217Y0136262D03*
X0295117Y0136362D03*
X0295017Y0136562D03*
X0294917Y0136562D03*
X0293717Y0135962D03*
X0293417Y0136362D03*
X0293217Y0136562D03*
D153*
X0295217Y0126112D03*
X0309217Y0136812D03*
D154*
X0305317Y0134212D03*
X0305217Y0134312D03*
X0305017Y0134612D03*
X0304817Y0134912D03*
X0304717Y0135012D03*
X0304617Y0135112D03*
X0304517Y0135312D03*
X0304417Y0135412D03*
X0304217Y0135712D03*
X0304117Y0135812D03*
X0303917Y0136112D03*
X0303817Y0136212D03*
X0303617Y0136512D03*
X0302417Y0135812D03*
X0302317Y0135912D03*
X0302117Y0136212D03*
X0301917Y0136512D03*
X0302517Y0135612D03*
X0303117Y0134912D03*
X0303217Y0134712D03*
X0303317Y0134512D03*
X0303517Y0134312D03*
X0303717Y0134112D03*
X0303817Y0133912D03*
X0304117Y0133512D03*
X0304317Y0133212D03*
X0304417Y0133112D03*
X0304617Y0132812D03*
X0304717Y0132712D03*
X0304917Y0132412D03*
X0305017Y0132312D03*
X0305117Y0132112D03*
X0305217Y0132012D03*
X0305317Y0131912D03*
X0305417Y0131712D03*
X0305517Y0131612D03*
X0305717Y0131312D03*
X0305817Y0131212D03*
X0306017Y0130912D03*
X0306117Y0130812D03*
X0306217Y0130612D03*
X0306817Y0129912D03*
X0306917Y0129712D03*
X0307017Y0129512D03*
X0307217Y0129312D03*
X0307417Y0129112D03*
X0308617Y0129712D03*
X0308717Y0129612D03*
X0308517Y0129912D03*
X0308417Y0130012D03*
X0308317Y0130112D03*
X0308217Y0130312D03*
X0308117Y0130412D03*
X0308017Y0130512D03*
X0307917Y0130712D03*
X0307817Y0130812D03*
X0307617Y0131112D03*
X0307517Y0131212D03*
X0307317Y0131512D03*
X0307217Y0131612D03*
X0307017Y0131912D03*
X0306717Y0132312D03*
X0306617Y0132512D03*
X0306417Y0132712D03*
X0306217Y0132912D03*
X0306017Y0133212D03*
X0305817Y0133512D03*
X0305417Y0134012D03*
X0303217Y0132412D03*
X0303117Y0132512D03*
X0302917Y0132812D03*
X0302817Y0132912D03*
X0302617Y0133212D03*
X0302517Y0133312D03*
X0302417Y0133512D03*
X0302317Y0133612D03*
X0302217Y0133712D03*
X0302117Y0133912D03*
X0302017Y0134012D03*
X0301917Y0134112D03*
X0301817Y0134312D03*
X0301717Y0134412D03*
X0301517Y0134712D03*
X0301417Y0134812D03*
X0301217Y0135112D03*
X0300817Y0135712D03*
X0300617Y0135912D03*
X0300317Y0136312D03*
X0300217Y0136512D03*
X0299217Y0135512D03*
X0299117Y0135612D03*
X0299017Y0135712D03*
X0298917Y0135912D03*
X0298817Y0136012D03*
X0298617Y0136312D03*
X0298517Y0136412D03*
X0297417Y0135612D03*
X0297217Y0135812D03*
X0297117Y0136012D03*
X0297017Y0136112D03*
X0296817Y0136412D03*
X0296717Y0136512D03*
X0295617Y0135712D03*
X0295517Y0135812D03*
X0295317Y0136112D03*
X0295917Y0135312D03*
X0296217Y0134912D03*
X0296417Y0134612D03*
X0296717Y0134212D03*
X0296817Y0134112D03*
X0296917Y0133912D03*
X0297017Y0133812D03*
X0297117Y0133712D03*
X0297217Y0133512D03*
X0297317Y0133412D03*
X0297417Y0133312D03*
X0297617Y0133012D03*
X0297717Y0132812D03*
X0297817Y0132712D03*
X0297917Y0132612D03*
X0298017Y0132412D03*
X0298217Y0132212D03*
X0298417Y0131912D03*
X0298617Y0131612D03*
X0299017Y0131112D03*
X0299217Y0130812D03*
X0299617Y0130312D03*
X0299817Y0130012D03*
X0299917Y0129912D03*
X0300117Y0129612D03*
X0300417Y0129212D03*
X0300517Y0129112D03*
X0300617Y0128912D03*
X0300717Y0128812D03*
X0300817Y0128712D03*
X0301917Y0129512D03*
X0302117Y0129212D03*
X0302217Y0129112D03*
X0302517Y0128712D03*
X0303617Y0129512D03*
X0303717Y0129412D03*
X0303817Y0129212D03*
X0304017Y0129012D03*
X0304117Y0128812D03*
X0304217Y0128712D03*
X0303417Y0129812D03*
X0303317Y0129912D03*
X0303217Y0130112D03*
X0303117Y0130212D03*
X0303017Y0130312D03*
X0302917Y0130512D03*
X0302817Y0130612D03*
X0302717Y0130712D03*
X0302617Y0130912D03*
X0302517Y0131012D03*
X0302317Y0131312D03*
X0302217Y0131412D03*
X0302017Y0131712D03*
X0301917Y0131812D03*
X0301617Y0132312D03*
X0301417Y0132512D03*
X0301117Y0132912D03*
X0301017Y0133112D03*
X0300817Y0133312D03*
X0300517Y0133712D03*
X0300417Y0133812D03*
X0300317Y0134012D03*
X0300017Y0134412D03*
X0299917Y0134512D03*
X0299717Y0134812D03*
X0299617Y0134912D03*
X0299517Y0135112D03*
X0299417Y0135212D03*
X0299317Y0135312D03*
X0298217Y0134512D03*
X0298517Y0134112D03*
X0299117Y0133312D03*
X0299317Y0133012D03*
X0299617Y0132612D03*
X0299717Y0132512D03*
X0299817Y0132312D03*
X0299917Y0132212D03*
X0300017Y0132112D03*
X0300117Y0131912D03*
X0300217Y0131812D03*
X0300317Y0131712D03*
X0300417Y0131512D03*
X0300517Y0131412D03*
X0300617Y0131212D03*
X0300717Y0131112D03*
X0300817Y0131012D03*
X0300917Y0130812D03*
X0301117Y0130612D03*
X0301317Y0130312D03*
X0301417Y0130112D03*
X0301517Y0130012D03*
X0304017Y0131312D03*
X0303917Y0131512D03*
X0303417Y0132112D03*
X0303317Y0132212D03*
X0304517Y0130712D03*
X0304617Y0130512D03*
X0304817Y0130212D03*
X0304917Y0130112D03*
X0305117Y0129812D03*
X0305217Y0129712D03*
X0305417Y0129412D03*
X0305517Y0129312D03*
X0305617Y0129112D03*
X0305717Y0129012D03*
X0305817Y0128912D03*
X0305917Y0128712D03*
X0308917Y0129312D03*
X0309017Y0129212D03*
X0309117Y0129012D03*
X0298817Y0129012D03*
X0298717Y0129212D03*
X0298617Y0129312D03*
X0298417Y0129612D03*
X0298317Y0129712D03*
X0298217Y0129912D03*
X0298117Y0130012D03*
X0298017Y0130112D03*
X0297917Y0130312D03*
X0297817Y0130412D03*
X0297717Y0130512D03*
X0297617Y0130712D03*
X0297517Y0130812D03*
X0297317Y0131112D03*
X0297217Y0131212D03*
X0297017Y0131512D03*
X0296917Y0131612D03*
X0296117Y0132712D03*
X0295917Y0132912D03*
X0295717Y0133212D03*
X0295517Y0133512D03*
X0295317Y0133812D03*
X0295117Y0134012D03*
X0295017Y0134212D03*
X0294917Y0134312D03*
X0294717Y0134612D03*
X0294517Y0134912D03*
X0294417Y0135012D03*
X0294317Y0135112D03*
X0294217Y0135312D03*
X0294117Y0135412D03*
X0294017Y0135512D03*
X0293917Y0135712D03*
X0293817Y0135812D03*
X0293617Y0136112D03*
X0293517Y0136212D03*
X0293317Y0136512D03*
X0297617Y0135312D03*
X0298517Y0146412D03*
X0298417Y0146612D03*
X0298317Y0146712D03*
X0298217Y0146912D03*
X0298117Y0147012D03*
X0297917Y0147312D03*
X0297817Y0147412D03*
X0297717Y0147512D03*
X0297617Y0147712D03*
X0297517Y0147812D03*
X0297317Y0148112D03*
X0297217Y0148212D03*
X0297017Y0148512D03*
X0296917Y0148612D03*
X0296717Y0148912D03*
X0296617Y0149112D03*
X0296417Y0149312D03*
X0296117Y0149712D03*
X0296017Y0149812D03*
X0295617Y0150412D03*
X0295417Y0150612D03*
X0295317Y0150812D03*
X0295217Y0150912D03*
X0295017Y0151212D03*
X0294817Y0151412D03*
X0294717Y0151612D03*
X0294617Y0151712D03*
X0294517Y0151912D03*
X0294417Y0152012D03*
X0294217Y0152312D03*
X0294117Y0152412D03*
X0294017Y0152512D03*
X0293917Y0152712D03*
X0293817Y0152812D03*
X0293617Y0153112D03*
X0293517Y0153212D03*
X0295117Y0153412D03*
X0295317Y0153112D03*
X0295517Y0152912D03*
X0295617Y0152712D03*
X0295817Y0152512D03*
X0295917Y0152312D03*
X0296217Y0151912D03*
X0296417Y0151612D03*
X0296517Y0151512D03*
X0296717Y0151212D03*
X0296817Y0151112D03*
X0296917Y0150912D03*
X0297117Y0150712D03*
X0297317Y0150412D03*
X0297417Y0150312D03*
X0297517Y0150112D03*
X0297617Y0150012D03*
X0297717Y0149812D03*
X0297917Y0149612D03*
X0298117Y0149312D03*
X0298217Y0149212D03*
X0298317Y0149012D03*
X0298517Y0148812D03*
X0298717Y0148512D03*
X0299017Y0148112D03*
X0299317Y0147712D03*
X0300317Y0148712D03*
X0300217Y0148812D03*
X0300117Y0148912D03*
X0300017Y0149112D03*
X0299917Y0149212D03*
X0299817Y0149312D03*
X0299717Y0149512D03*
X0299617Y0149612D03*
X0299417Y0149912D03*
X0299317Y0150012D03*
X0299117Y0150312D03*
X0298817Y0150712D03*
X0298717Y0150912D03*
X0298517Y0151112D03*
X0298417Y0151312D03*
X0298217Y0151512D03*
X0298017Y0151812D03*
X0297917Y0151912D03*
X0297817Y0152112D03*
X0297717Y0152212D03*
X0297417Y0152612D03*
X0297317Y0152712D03*
X0297217Y0152912D03*
X0297117Y0153012D03*
X0296917Y0153312D03*
X0298517Y0153412D03*
X0298617Y0153312D03*
X0298817Y0153012D03*
X0298917Y0152912D03*
X0299017Y0152712D03*
X0299117Y0152612D03*
X0299317Y0152312D03*
X0299417Y0152212D03*
X0299517Y0152112D03*
X0299617Y0151912D03*
X0299817Y0151712D03*
X0300017Y0151412D03*
X0300117Y0151212D03*
X0300317Y0151012D03*
X0300617Y0150612D03*
X0300717Y0150512D03*
X0300917Y0150212D03*
X0301117Y0149912D03*
X0302017Y0151012D03*
X0302117Y0151012D03*
X0301817Y0151312D03*
X0301717Y0151412D03*
X0301417Y0151812D03*
X0301117Y0152312D03*
X0300917Y0152512D03*
X0300617Y0152912D03*
X0300517Y0153112D03*
X0302017Y0153312D03*
X0302417Y0152812D03*
X0302717Y0152412D03*
D155*
X0307417Y0156112D03*
X0293617Y0145312D03*
X0309117Y0136812D03*
X0295417Y0125912D03*
D156*
X0293717Y0127362D03*
X0293617Y0127462D03*
X0309117Y0154662D03*
D157*
X0293617Y0157612D03*
X0293517Y0157612D03*
X0293417Y0157612D03*
X0292917Y0157412D03*
X0295217Y0145312D03*
X0307517Y0136812D03*
X0308817Y0124412D03*
X0308917Y0124412D03*
X0309017Y0124412D03*
D158*
X0295717Y0125712D03*
X0309017Y0136812D03*
X0307017Y0156412D03*
D159*
X0309017Y0154812D03*
D160*
X0306917Y0156562D03*
X0293817Y0145362D03*
X0280517Y0141062D03*
X0295817Y0125662D03*
X0308917Y0136762D03*
D161*
X0308817Y0136812D03*
X0293917Y0145312D03*
X0306717Y0156712D03*
D162*
X0308717Y0136762D03*
D163*
X0308617Y0136812D03*
X0296617Y0125012D03*
X0306117Y0157212D03*
D164*
X0305917Y0157312D03*
X0294217Y0145312D03*
X0308517Y0136812D03*
X0296817Y0124812D03*
D165*
X0297017Y0124662D03*
X0308417Y0136862D03*
X0305717Y0157462D03*
D166*
X0308417Y0155312D03*
X0293217Y0145312D03*
D167*
X0293117Y0157262D03*
X0308317Y0124362D03*
D168*
X0304317Y0124262D03*
X0302717Y0124162D03*
X0302617Y0124162D03*
X0301017Y0124062D03*
X0300917Y0124162D03*
X0299217Y0124162D03*
X0308317Y0136762D03*
X0305517Y0157662D03*
X0305417Y0157762D03*
X0303517Y0157962D03*
X0301817Y0157962D03*
X0300117Y0157962D03*
D169*
X0294517Y0157762D03*
X0293217Y0157162D03*
X0307517Y0124162D03*
X0308217Y0124362D03*
D170*
X0306017Y0124412D03*
X0301217Y0123912D03*
X0299417Y0124012D03*
X0297517Y0124212D03*
X0308217Y0136812D03*
X0294517Y0145312D03*
X0296717Y0157712D03*
X0298317Y0157912D03*
X0299917Y0158112D03*
X0301617Y0158112D03*
X0303317Y0158112D03*
X0305217Y0157912D03*
D171*
X0308217Y0155462D03*
X0294517Y0126662D03*
D172*
X0297717Y0124112D03*
X0303017Y0123912D03*
X0306117Y0124412D03*
X0308117Y0136812D03*
X0294617Y0145312D03*
X0296617Y0157812D03*
X0298217Y0158012D03*
X0301417Y0158212D03*
X0301517Y0158212D03*
X0303217Y0158212D03*
D173*
X0296117Y0158012D03*
X0296017Y0158012D03*
X0295917Y0158012D03*
X0295817Y0158012D03*
X0294917Y0145312D03*
X0308017Y0124512D03*
D174*
X0307817Y0124612D03*
X0306417Y0124212D03*
X0304917Y0123912D03*
X0304117Y0123812D03*
X0304017Y0123812D03*
X0303917Y0123812D03*
X0298817Y0123812D03*
X0298717Y0123812D03*
X0298617Y0123812D03*
X0298517Y0123812D03*
X0298417Y0123812D03*
X0298317Y0123812D03*
X0298017Y0123912D03*
X0308017Y0136812D03*
X0304717Y0158212D03*
X0304617Y0158212D03*
X0304517Y0158212D03*
X0304417Y0158212D03*
X0304317Y0158212D03*
X0297817Y0158212D03*
X0297717Y0158212D03*
X0297617Y0158212D03*
X0297517Y0158212D03*
X0297417Y0158212D03*
X0297317Y0158212D03*
D175*
X0296217Y0157962D03*
X0294817Y0157562D03*
X0305717Y0123962D03*
X0305817Y0123962D03*
X0306617Y0124062D03*
X0307917Y0124562D03*
D176*
X0306517Y0124112D03*
X0305917Y0124012D03*
X0305617Y0123912D03*
X0305517Y0123912D03*
X0305417Y0123912D03*
X0307917Y0136812D03*
X0294817Y0145312D03*
X0296817Y0158112D03*
X0296917Y0158112D03*
X0297017Y0158112D03*
X0297117Y0158112D03*
X0297217Y0158112D03*
D177*
X0307717Y0155912D03*
X0307917Y0155712D03*
X0295017Y0126312D03*
D178*
X0294917Y0126362D03*
X0294817Y0126462D03*
X0280617Y0141062D03*
X0307817Y0155762D03*
D179*
X0307617Y0155962D03*
X0293517Y0145362D03*
X0295117Y0126162D03*
D180*
X0307217Y0156212D03*
X0307317Y0156212D03*
D181*
X0307117Y0136812D03*
D182*
X0295617Y0125762D03*
X0307117Y0156362D03*
D183*
X0295717Y0145312D03*
X0307017Y0136812D03*
D184*
X0306917Y0136862D03*
D185*
X0306817Y0136812D03*
D186*
X0295917Y0125512D03*
X0306817Y0156612D03*
D187*
X0296017Y0145262D03*
X0306717Y0136862D03*
D188*
X0296217Y0125262D03*
X0306617Y0156762D03*
D189*
X0306517Y0136812D03*
D190*
X0306417Y0136862D03*
X0296317Y0145262D03*
D191*
X0306317Y0136862D03*
D192*
X0296417Y0125112D03*
X0306317Y0157012D03*
D193*
X0304917Y0158112D03*
X0304817Y0158212D03*
X0304017Y0158312D03*
X0303917Y0158312D03*
X0303817Y0158312D03*
X0303717Y0158312D03*
X0303017Y0158312D03*
X0302917Y0158312D03*
X0302817Y0158312D03*
X0302717Y0158312D03*
X0302617Y0158312D03*
X0302517Y0158312D03*
X0302417Y0158312D03*
X0302317Y0158312D03*
X0302217Y0158312D03*
X0302117Y0158312D03*
X0302017Y0158312D03*
X0301317Y0158312D03*
X0301217Y0158312D03*
X0301117Y0158312D03*
X0301017Y0158312D03*
X0300917Y0158312D03*
X0300817Y0158312D03*
X0300717Y0158312D03*
X0300617Y0158312D03*
X0300517Y0158312D03*
X0300417Y0158312D03*
X0300317Y0158312D03*
X0300217Y0158312D03*
X0299617Y0158312D03*
X0299517Y0158312D03*
X0299417Y0158312D03*
X0299317Y0158312D03*
X0299217Y0158312D03*
X0299117Y0158312D03*
X0299017Y0158312D03*
X0298917Y0158312D03*
X0298817Y0158312D03*
X0298717Y0158312D03*
X0298017Y0158112D03*
X0296517Y0157812D03*
X0295017Y0157512D03*
X0299717Y0123812D03*
X0300817Y0123812D03*
X0301517Y0123712D03*
X0301617Y0123712D03*
X0301717Y0123712D03*
X0301817Y0123712D03*
X0302517Y0123812D03*
X0303117Y0123812D03*
X0304717Y0124012D03*
X0306217Y0124312D03*
D194*
X0306217Y0136812D03*
D195*
X0294117Y0145362D03*
X0306217Y0157062D03*
X0296517Y0125062D03*
D196*
X0306117Y0136862D03*
D197*
X0296717Y0124862D03*
X0306017Y0157262D03*
D198*
X0305917Y0136862D03*
D199*
X0305817Y0136862D03*
D200*
X0294317Y0145312D03*
X0305817Y0157412D03*
X0297117Y0124612D03*
D201*
X0305717Y0136862D03*
X0297017Y0145262D03*
D202*
X0297117Y0145262D03*
X0305617Y0136862D03*
D203*
X0294417Y0145312D03*
X0305617Y0157512D03*
X0303617Y0157912D03*
X0301917Y0157912D03*
X0297217Y0124512D03*
X0299117Y0124212D03*
D204*
X0305517Y0136862D03*
D205*
X0305417Y0136862D03*
X0297417Y0145262D03*
X0297317Y0145262D03*
D206*
X0294917Y0157562D03*
X0296317Y0157962D03*
X0298117Y0123862D03*
X0298217Y0123862D03*
X0305017Y0123862D03*
X0305117Y0123862D03*
X0305217Y0123862D03*
X0305317Y0123862D03*
D207*
X0305317Y0136912D03*
D208*
X0304417Y0124162D03*
X0302817Y0124062D03*
X0299317Y0124062D03*
X0297417Y0124362D03*
X0298417Y0157862D03*
X0300017Y0158062D03*
X0301717Y0158062D03*
X0303417Y0158062D03*
X0305317Y0157862D03*
D209*
X0305217Y0136812D03*
D210*
X0304517Y0124162D03*
X0302917Y0123962D03*
X0301317Y0123862D03*
X0299517Y0123962D03*
X0297617Y0124162D03*
X0299817Y0158162D03*
X0305117Y0157962D03*
D211*
X0305017Y0158062D03*
X0303117Y0158262D03*
X0299717Y0158262D03*
X0298117Y0158062D03*
X0297817Y0124062D03*
X0299617Y0123862D03*
X0301417Y0123762D03*
X0304617Y0124062D03*
D212*
X0303317Y0136712D03*
X0304917Y0136912D03*
X0301617Y0136712D03*
X0299917Y0136712D03*
X0299817Y0136712D03*
X0296417Y0136712D03*
X0294717Y0136712D03*
X0293017Y0136712D03*
X0298717Y0146412D03*
D213*
X0297917Y0145212D03*
X0301417Y0149812D03*
X0304017Y0153212D03*
X0303217Y0136812D03*
X0301417Y0136812D03*
X0298017Y0136812D03*
X0296317Y0136812D03*
X0294617Y0136812D03*
X0292917Y0136812D03*
X0298817Y0134112D03*
X0301717Y0132512D03*
X0280217Y0145512D03*
D214*
X0293117Y0136662D03*
X0294817Y0136662D03*
X0296517Y0136662D03*
X0298217Y0136662D03*
X0300017Y0136662D03*
X0303417Y0136662D03*
X0297817Y0145262D03*
X0300417Y0148662D03*
X0301317Y0149862D03*
X0303917Y0153262D03*
D215*
X0303117Y0152062D03*
X0302217Y0150962D03*
X0300517Y0148662D03*
X0299617Y0147562D03*
X0298117Y0136762D03*
X0301517Y0136762D03*
D216*
X0301717Y0136612D03*
X0298317Y0136612D03*
X0296617Y0136612D03*
X0303017Y0152112D03*
D217*
X0301117Y0124012D03*
X0297317Y0124412D03*
D218*
X0297617Y0145212D03*
D219*
X0297517Y0145262D03*
D220*
X0297217Y0145262D03*
D221*
X0296917Y0145262D03*
D222*
X0296817Y0145312D03*
D223*
X0296617Y0145262D03*
D224*
X0296517Y0145262D03*
D225*
X0296417Y0145312D03*
D226*
X0296217Y0145262D03*
D227*
X0296017Y0125462D03*
X0296117Y0125362D03*
D228*
X0296117Y0145312D03*
D229*
X0295917Y0145262D03*
D230*
X0295817Y0145262D03*
D231*
X0295617Y0145262D03*
D232*
X0293717Y0145362D03*
X0295517Y0125862D03*
D233*
X0294617Y0126612D03*
X0293317Y0145312D03*
D234*
X0293117Y0145412D03*
X0293917Y0127212D03*
X0294017Y0127112D03*
D235*
X0293517Y0127562D03*
X0292917Y0145362D03*
D236*
X0292817Y0145362D03*
D237*
X0292017Y0128912D03*
X0292117Y0128812D03*
D238*
X0292117Y0145362D03*
D239*
X0291817Y0145362D03*
D240*
X0291617Y0141112D03*
D241*
X0291117Y0141012D03*
D242*
X0290817Y0141062D03*
D243*
X0289217Y0141062D03*
D244*
X0288417Y0141112D03*
D245*
X0288117Y0141062D03*
D246*
X0287817Y0141012D03*
D247*
X0287617Y0141062D03*
D248*
X0287117Y0141062D03*
D249*
X0287017Y0141112D03*
D250*
X0286317Y0141062D03*
D251*
X0285517Y0141062D03*
D252*
X0285217Y0141112D03*
D253*
X0285117Y0141012D03*
D254*
X0285017Y0141062D03*
D255*
X0284217Y0141112D03*
D256*
X0283917Y0141062D03*
D257*
X0283417Y0141062D03*
D258*
X0282617Y0141062D03*
D259*
X0282317Y0141112D03*
D260*
X0282117Y0141062D03*
D261*
X0281817Y0141112D03*
D262*
X0279817Y0141112D03*
D263*
X0310863Y0118849D02*
X0310863Y0113539D01*
X0312633Y0111769D01*
X0317943Y0111769D01*
X0316173Y0107974D02*
X0312633Y0107974D01*
X0310863Y0106204D01*
X0310863Y0102664D01*
X0312633Y0100894D01*
X0314403Y0100894D01*
X0314403Y0107974D01*
X0316173Y0107974D02*
X0317943Y0106204D01*
X0317943Y0102664D01*
X0310863Y0097098D02*
X0310863Y0093558D01*
X0309093Y0095328D02*
X0316173Y0095328D01*
X0317943Y0093558D01*
X0316173Y0089848D02*
X0312633Y0089848D01*
X0310863Y0088078D01*
X0310863Y0082768D01*
X0307323Y0082768D02*
X0317943Y0082768D01*
X0317943Y0088078D01*
X0316173Y0089848D01*
X0316173Y0078973D02*
X0312633Y0078973D01*
X0310863Y0077203D01*
X0310863Y0071892D01*
X0316173Y0068097D02*
X0316173Y0066327D01*
X0317943Y0066327D01*
X0317943Y0068097D01*
X0316173Y0068097D01*
X0317943Y0071892D02*
X0317943Y0077203D01*
X0316173Y0078973D01*
X0316173Y0062659D02*
X0312633Y0062659D01*
X0310863Y0060889D01*
X0310863Y0055579D01*
X0312633Y0051784D02*
X0316173Y0051784D01*
X0317943Y0050014D01*
X0317943Y0046474D01*
X0316173Y0044704D01*
X0312633Y0044704D01*
X0310863Y0046474D01*
X0310863Y0050014D01*
X0312633Y0051784D01*
X0317943Y0055579D02*
X0317943Y0060889D01*
X0316173Y0062659D01*
X0317943Y0040909D02*
X0310863Y0040909D01*
X0310863Y0039139D01*
X0312633Y0037369D01*
X0310863Y0035599D01*
X0312633Y0033828D01*
X0317943Y0033828D01*
X0317943Y0037369D02*
X0312633Y0037369D01*
X0310863Y0118849D02*
X0317943Y0118849D01*
D264*
X0287442Y0118075D02*
X0286825Y0117458D01*
X0285590Y0117458D01*
X0284973Y0118075D01*
X0284973Y0119310D01*
X0286208Y0119310D01*
X0287442Y0120544D02*
X0287442Y0118075D01*
X0287442Y0120544D02*
X0286825Y0121161D01*
X0285590Y0121161D01*
X0284973Y0120544D01*
X0283759Y0119927D02*
X0281907Y0119927D01*
X0281290Y0119927D01*
X0281290Y0118693D02*
X0283759Y0118693D01*
X0283142Y0117458D02*
X0283142Y0121161D01*
X0281907Y0121161D02*
X0281907Y0117458D01*
X0280076Y0118075D02*
X0277607Y0120544D01*
X0277607Y0118075D01*
X0278224Y0117458D01*
X0279458Y0117458D01*
X0280076Y0118075D01*
X0280076Y0120544D01*
X0279458Y0121161D01*
X0278224Y0121161D01*
X0277607Y0120544D01*
X0276393Y0120544D02*
X0276393Y0119927D01*
X0275775Y0119310D01*
X0274541Y0119310D01*
X0273924Y0118693D01*
X0273924Y0118075D01*
X0274541Y0117458D01*
X0275775Y0117458D01*
X0276393Y0118075D01*
X0276393Y0118693D01*
X0275775Y0119310D01*
X0274541Y0119310D02*
X0273924Y0119927D01*
X0273924Y0120544D01*
X0274541Y0121161D01*
X0275775Y0121161D01*
X0276393Y0120544D01*
X0272709Y0117458D02*
X0270241Y0121161D01*
X0269026Y0121161D02*
X0267792Y0121161D01*
X0268409Y0121161D02*
X0268409Y0117458D01*
X0269026Y0117458D02*
X0267792Y0117458D01*
X0266571Y0117458D02*
X0264102Y0119927D01*
X0264102Y0120544D01*
X0264719Y0121161D01*
X0265954Y0121161D01*
X0266571Y0120544D01*
X0265954Y0122458D02*
X0264719Y0122458D01*
X0264102Y0123075D01*
X0264102Y0124310D01*
X0265336Y0124310D01*
X0264102Y0125544D02*
X0264719Y0126161D01*
X0265954Y0126161D01*
X0266571Y0125544D01*
X0266571Y0123075D01*
X0265954Y0122458D01*
X0262888Y0123693D02*
X0260419Y0123693D01*
X0260419Y0124927D02*
X0261036Y0124927D01*
X0262888Y0124927D01*
X0262270Y0126161D02*
X0262270Y0122458D01*
X0261036Y0122458D02*
X0261036Y0126161D01*
X0261660Y0127458D02*
X0259191Y0131161D01*
X0257977Y0131161D02*
X0256742Y0131161D01*
X0257360Y0131161D02*
X0257360Y0127458D01*
X0257977Y0127458D02*
X0256742Y0127458D01*
X0255521Y0127458D02*
X0253053Y0129927D01*
X0253053Y0130544D01*
X0253670Y0131161D01*
X0254904Y0131161D01*
X0255521Y0130544D01*
X0254904Y0132458D02*
X0253670Y0132458D01*
X0253053Y0133075D01*
X0251838Y0132458D02*
X0251838Y0136161D01*
X0250604Y0134927D01*
X0249369Y0136161D01*
X0249369Y0132458D01*
X0248155Y0131841D02*
X0245686Y0131841D01*
X0244472Y0133075D02*
X0243855Y0132458D01*
X0242620Y0132458D01*
X0242003Y0133075D01*
X0240789Y0132458D02*
X0238320Y0132458D01*
X0237106Y0132458D02*
X0237106Y0136161D01*
X0236488Y0134310D02*
X0234637Y0132458D01*
X0235254Y0131161D02*
X0234637Y0130544D01*
X0234637Y0128075D01*
X0235254Y0127458D01*
X0236488Y0127458D01*
X0237106Y0128075D01*
X0237106Y0130544D01*
X0236488Y0131161D01*
X0235254Y0131161D01*
X0238320Y0130544D02*
X0238320Y0128075D01*
X0238937Y0127458D01*
X0240789Y0127458D01*
X0240789Y0131161D01*
X0238937Y0131161D01*
X0238320Y0130544D01*
X0240789Y0132458D02*
X0240789Y0136161D01*
X0242003Y0135544D02*
X0242620Y0136161D01*
X0243855Y0136161D01*
X0244472Y0135544D01*
X0244472Y0133075D01*
X0243855Y0131161D02*
X0242620Y0131161D01*
X0242003Y0130544D01*
X0242620Y0129310D02*
X0242003Y0128693D01*
X0242003Y0128075D01*
X0242620Y0127458D01*
X0243855Y0127458D01*
X0244472Y0128075D01*
X0243855Y0129310D02*
X0242620Y0129310D01*
X0243855Y0129310D02*
X0244472Y0129927D01*
X0244472Y0130544D01*
X0243855Y0131161D01*
X0249369Y0130544D02*
X0249987Y0131161D01*
X0251221Y0131161D01*
X0251838Y0130544D01*
X0251838Y0129927D01*
X0251221Y0129310D01*
X0249987Y0129310D01*
X0249369Y0128693D01*
X0249369Y0128075D01*
X0249987Y0127458D01*
X0251221Y0127458D01*
X0251838Y0128075D01*
X0253053Y0127458D02*
X0255521Y0127458D01*
X0254904Y0126161D02*
X0255521Y0125544D01*
X0254904Y0126161D02*
X0253670Y0126161D01*
X0253053Y0125544D01*
X0253053Y0124927D01*
X0255521Y0122458D01*
X0253053Y0122458D01*
X0251838Y0122458D02*
X0249369Y0126161D01*
X0248155Y0126161D02*
X0248155Y0122458D01*
X0245686Y0122458D01*
X0244472Y0122458D02*
X0242003Y0122458D01*
X0240789Y0122458D02*
X0238937Y0122458D01*
X0238320Y0123075D01*
X0238320Y0125544D01*
X0238937Y0126161D01*
X0240789Y0126161D01*
X0240789Y0122458D01*
X0240789Y0121161D02*
X0238320Y0117458D01*
X0237106Y0117458D02*
X0235254Y0117458D01*
X0234637Y0118075D01*
X0234637Y0120544D01*
X0235254Y0121161D01*
X0237106Y0121161D01*
X0237106Y0117458D01*
X0237106Y0116161D02*
X0237106Y0113693D01*
X0235871Y0112458D01*
X0234637Y0113693D01*
X0234637Y0116161D01*
X0238320Y0115544D02*
X0238320Y0114927D01*
X0238937Y0114310D01*
X0240172Y0114310D01*
X0240789Y0114927D01*
X0240789Y0115544D01*
X0240172Y0116161D01*
X0238937Y0116161D01*
X0238320Y0115544D01*
X0238937Y0114310D02*
X0238320Y0113693D01*
X0238320Y0113075D01*
X0238937Y0112458D01*
X0240172Y0112458D01*
X0240789Y0113075D01*
X0240789Y0113693D01*
X0240172Y0114310D01*
X0242013Y0113075D02*
X0242013Y0112458D01*
X0242630Y0112458D01*
X0242630Y0113075D01*
X0242013Y0113075D01*
X0243845Y0112458D02*
X0246313Y0112458D01*
X0245079Y0112458D02*
X0245079Y0116161D01*
X0246313Y0114927D01*
X0247528Y0114310D02*
X0249997Y0114310D01*
X0248762Y0115544D02*
X0248762Y0113075D01*
X0249376Y0111161D02*
X0250610Y0111161D01*
X0249993Y0111161D02*
X0249993Y0107458D01*
X0250610Y0107458D02*
X0249376Y0107458D01*
X0248155Y0106841D02*
X0245686Y0106841D01*
X0244459Y0106161D02*
X0244459Y0102458D01*
X0243244Y0103075D02*
X0242627Y0102458D01*
X0241393Y0102458D01*
X0240775Y0103075D01*
X0240775Y0105544D01*
X0241393Y0106161D01*
X0242627Y0106161D01*
X0243244Y0105544D01*
X0243244Y0103075D01*
X0243855Y0101161D02*
X0242620Y0101161D01*
X0242003Y0100544D01*
X0240789Y0100544D02*
X0240789Y0099927D01*
X0240172Y0099310D01*
X0238937Y0099310D01*
X0238320Y0098693D01*
X0238320Y0098075D01*
X0238937Y0097458D01*
X0240172Y0097458D01*
X0240789Y0098075D01*
X0242003Y0098075D02*
X0242620Y0097458D01*
X0243855Y0097458D01*
X0244472Y0098075D01*
X0244472Y0100544D01*
X0243855Y0101161D01*
X0240789Y0100544D02*
X0240172Y0101161D01*
X0238937Y0101161D01*
X0238320Y0100544D01*
X0237106Y0099927D02*
X0235871Y0101161D01*
X0235871Y0097458D01*
X0234637Y0097458D02*
X0237106Y0097458D01*
X0235871Y0096161D02*
X0235871Y0092458D01*
X0234637Y0092458D02*
X0237106Y0092458D01*
X0237106Y0091161D02*
X0234637Y0087458D01*
X0235254Y0086161D02*
X0236488Y0086161D01*
X0237106Y0085544D01*
X0238320Y0085544D02*
X0238937Y0086161D01*
X0240789Y0086161D01*
X0240789Y0082458D01*
X0238937Y0082458D01*
X0238320Y0083075D01*
X0238320Y0085544D01*
X0238320Y0087458D02*
X0239554Y0088693D01*
X0238937Y0088693D02*
X0240789Y0088693D01*
X0240789Y0087458D02*
X0240789Y0091161D01*
X0238937Y0091161D01*
X0238320Y0090544D01*
X0238320Y0089310D01*
X0238937Y0088693D01*
X0237106Y0087458D02*
X0234637Y0091161D01*
X0238320Y0093075D02*
X0238320Y0095544D01*
X0238937Y0096161D01*
X0240789Y0096161D01*
X0240789Y0092458D01*
X0238937Y0092458D01*
X0238320Y0093075D01*
X0237106Y0094927D02*
X0235871Y0096161D01*
X0242003Y0096161D02*
X0244472Y0096161D01*
X0244472Y0092458D01*
X0242003Y0092458D01*
X0242620Y0091161D02*
X0244472Y0091161D01*
X0244472Y0087458D01*
X0242620Y0087458D01*
X0242003Y0088075D01*
X0242003Y0090544D01*
X0242620Y0091161D01*
X0245686Y0092458D02*
X0248155Y0092458D01*
X0248155Y0096161D01*
X0248155Y0096841D02*
X0245686Y0096841D01*
X0244472Y0094310D02*
X0243238Y0094310D01*
X0249369Y0096161D02*
X0251838Y0092458D01*
X0251838Y0091161D02*
X0250604Y0089927D01*
X0249369Y0091161D01*
X0249369Y0087458D01*
X0249369Y0086161D02*
X0251838Y0082458D01*
X0253053Y0081161D02*
X0255521Y0081161D01*
X0255521Y0079310D01*
X0254287Y0079927D01*
X0253670Y0079927D01*
X0253053Y0079310D01*
X0253053Y0078075D01*
X0253670Y0077458D01*
X0254904Y0077458D01*
X0255521Y0078075D01*
X0256736Y0077458D02*
X0259204Y0077458D01*
X0256736Y0079927D01*
X0256736Y0080544D01*
X0257353Y0081161D01*
X0258587Y0081161D01*
X0259204Y0080544D01*
X0260419Y0079927D02*
X0261036Y0079927D01*
X0262888Y0079927D01*
X0262888Y0078693D02*
X0260419Y0078693D01*
X0261036Y0077458D02*
X0261036Y0081161D01*
X0262270Y0081161D02*
X0262270Y0077458D01*
X0262270Y0076161D02*
X0262270Y0072458D01*
X0261036Y0072458D02*
X0261036Y0076161D01*
X0261036Y0074927D02*
X0260419Y0074927D01*
X0261036Y0074927D02*
X0262888Y0074927D01*
X0262888Y0073693D02*
X0260419Y0073693D01*
X0259204Y0072458D02*
X0256736Y0074927D01*
X0256736Y0075544D01*
X0257353Y0076161D01*
X0258587Y0076161D01*
X0259204Y0075544D01*
X0259204Y0072458D02*
X0256736Y0072458D01*
X0255521Y0073075D02*
X0254904Y0072458D01*
X0253670Y0072458D01*
X0253053Y0073075D01*
X0253053Y0073693D01*
X0253670Y0074310D01*
X0255521Y0074310D01*
X0255521Y0073075D01*
X0255521Y0074310D02*
X0254287Y0075544D01*
X0253053Y0076161D01*
X0251838Y0077458D02*
X0249369Y0081161D01*
X0248155Y0081161D02*
X0248155Y0077458D01*
X0245686Y0077458D01*
X0244472Y0077458D02*
X0242003Y0077458D01*
X0240789Y0077458D02*
X0238937Y0077458D01*
X0238320Y0078075D01*
X0238320Y0080544D01*
X0238937Y0081161D01*
X0240789Y0081161D01*
X0240789Y0077458D01*
X0240789Y0076161D02*
X0238937Y0076161D01*
X0238320Y0075544D01*
X0238320Y0073075D01*
X0238937Y0072458D01*
X0240789Y0072458D01*
X0240789Y0076161D01*
X0242003Y0076161D02*
X0244472Y0076161D01*
X0244472Y0072458D01*
X0242003Y0072458D01*
X0242620Y0071161D02*
X0244472Y0071161D01*
X0244472Y0067458D01*
X0242620Y0067458D01*
X0242003Y0068075D01*
X0242003Y0070544D01*
X0242620Y0071161D01*
X0240789Y0071161D02*
X0238320Y0071161D01*
X0237106Y0071161D02*
X0234637Y0067458D01*
X0237106Y0067458D02*
X0234637Y0071161D01*
X0235254Y0072458D02*
X0235254Y0076161D01*
X0237106Y0074310D01*
X0234637Y0074310D01*
X0239554Y0071161D02*
X0239554Y0067458D01*
X0245686Y0066841D02*
X0248155Y0066841D01*
X0249369Y0067458D02*
X0249369Y0071161D01*
X0250604Y0069927D01*
X0251838Y0071161D01*
X0251838Y0067458D01*
X0253053Y0068075D02*
X0253670Y0067458D01*
X0254904Y0067458D01*
X0255521Y0068075D01*
X0255521Y0070544D01*
X0254904Y0071161D01*
X0253670Y0071161D01*
X0253053Y0070544D01*
X0251838Y0072458D02*
X0249369Y0076161D01*
X0248155Y0076161D02*
X0248155Y0072458D01*
X0245686Y0072458D01*
X0244472Y0074310D02*
X0243238Y0074310D01*
X0244472Y0077458D02*
X0244472Y0081161D01*
X0242003Y0081161D01*
X0242003Y0082458D02*
X0244472Y0082458D01*
X0244472Y0086161D01*
X0242003Y0086161D01*
X0243238Y0084310D02*
X0244472Y0084310D01*
X0245686Y0082458D02*
X0248155Y0082458D01*
X0248155Y0086161D01*
X0248155Y0086841D02*
X0245686Y0086841D01*
X0251838Y0087458D02*
X0251838Y0091161D01*
X0253053Y0090544D02*
X0253670Y0091161D01*
X0254904Y0091161D01*
X0255521Y0090544D01*
X0255521Y0088075D01*
X0254904Y0087458D01*
X0253670Y0087458D01*
X0253053Y0088075D01*
X0253670Y0086161D02*
X0255521Y0084310D01*
X0253053Y0084310D01*
X0253670Y0086161D02*
X0253670Y0082458D01*
X0256736Y0082458D02*
X0259204Y0082458D01*
X0256736Y0084927D01*
X0256736Y0085544D01*
X0257353Y0086161D01*
X0258587Y0086161D01*
X0259204Y0085544D01*
X0260419Y0084927D02*
X0261036Y0084927D01*
X0262888Y0084927D01*
X0262888Y0083693D02*
X0260419Y0083693D01*
X0261036Y0082458D02*
X0261036Y0086161D01*
X0262270Y0086161D02*
X0262270Y0082458D01*
X0264102Y0083075D02*
X0264102Y0084310D01*
X0265336Y0084310D01*
X0264102Y0085544D02*
X0264719Y0086161D01*
X0265954Y0086161D01*
X0266571Y0085544D01*
X0266571Y0083075D01*
X0265954Y0082458D01*
X0264719Y0082458D01*
X0264102Y0083075D01*
X0264719Y0081161D02*
X0265954Y0081161D01*
X0266571Y0080544D01*
X0266571Y0078075D01*
X0265954Y0077458D01*
X0264719Y0077458D01*
X0264102Y0078075D01*
X0264102Y0079310D01*
X0265336Y0079310D01*
X0264102Y0080544D02*
X0264719Y0081161D01*
X0264719Y0087458D02*
X0265954Y0087458D01*
X0266571Y0088075D01*
X0267785Y0087458D02*
X0270254Y0087458D01*
X0269020Y0087458D02*
X0269020Y0091161D01*
X0270254Y0089927D01*
X0271468Y0089927D02*
X0272085Y0089927D01*
X0273937Y0089927D01*
X0273937Y0088693D02*
X0271468Y0088693D01*
X0272085Y0087458D02*
X0272085Y0091161D01*
X0273320Y0091161D02*
X0273320Y0087458D01*
X0275151Y0088075D02*
X0275769Y0087458D01*
X0277003Y0087458D01*
X0277620Y0088075D01*
X0277620Y0090544D01*
X0277003Y0091161D01*
X0275769Y0091161D01*
X0275151Y0090544D01*
X0275151Y0089310D02*
X0276386Y0089310D01*
X0275151Y0089310D02*
X0275151Y0088075D01*
X0266571Y0090544D02*
X0265954Y0091161D01*
X0264719Y0091161D01*
X0264102Y0090544D01*
X0264102Y0089927D01*
X0264719Y0089310D01*
X0264102Y0088693D01*
X0264102Y0088075D01*
X0264719Y0087458D01*
X0262888Y0087458D02*
X0260419Y0091161D01*
X0259204Y0091161D02*
X0257353Y0091161D01*
X0256736Y0090544D01*
X0256736Y0089310D01*
X0257353Y0088693D01*
X0259204Y0088693D01*
X0259204Y0087458D02*
X0259204Y0091161D01*
X0259204Y0092458D02*
X0256736Y0094927D01*
X0256736Y0095544D01*
X0257353Y0096161D01*
X0258587Y0096161D01*
X0259204Y0095544D01*
X0260419Y0094927D02*
X0261036Y0094927D01*
X0262888Y0094927D01*
X0262888Y0093693D02*
X0260419Y0093693D01*
X0261036Y0092458D02*
X0261036Y0096161D01*
X0262270Y0096161D02*
X0262270Y0092458D01*
X0264102Y0093075D02*
X0264102Y0094310D01*
X0265336Y0094310D01*
X0264102Y0095544D02*
X0264719Y0096161D01*
X0265954Y0096161D01*
X0266571Y0095544D01*
X0266571Y0093075D01*
X0265954Y0092458D01*
X0264719Y0092458D01*
X0264102Y0093075D01*
X0264719Y0089310D02*
X0265336Y0089310D01*
X0259204Y0092458D02*
X0256736Y0092458D01*
X0255521Y0093075D02*
X0254904Y0092458D01*
X0253670Y0092458D01*
X0253053Y0093075D01*
X0253053Y0093693D01*
X0253670Y0094310D01*
X0254287Y0094310D01*
X0253670Y0094310D02*
X0253053Y0094927D01*
X0253053Y0095544D01*
X0253670Y0096161D01*
X0254904Y0096161D01*
X0255521Y0095544D01*
X0256125Y0097458D02*
X0257360Y0097458D01*
X0257977Y0098075D01*
X0257360Y0099310D02*
X0256125Y0099310D01*
X0255508Y0098693D01*
X0255508Y0098075D01*
X0256125Y0097458D01*
X0254294Y0097458D02*
X0254294Y0101161D01*
X0252442Y0101161D01*
X0251825Y0100544D01*
X0251825Y0099310D01*
X0252442Y0098693D01*
X0254294Y0098693D01*
X0255508Y0100544D02*
X0256125Y0101161D01*
X0257360Y0101161D01*
X0257977Y0100544D01*
X0257977Y0099927D01*
X0257360Y0099310D01*
X0259191Y0101161D02*
X0261660Y0097458D01*
X0262874Y0100544D02*
X0265343Y0098075D01*
X0265343Y0097458D01*
X0266557Y0097458D02*
X0269026Y0097458D01*
X0266557Y0099927D01*
X0266557Y0100544D01*
X0267175Y0101161D01*
X0268409Y0101161D01*
X0269026Y0100544D01*
X0270241Y0099927D02*
X0270858Y0099927D01*
X0272709Y0099927D01*
X0272709Y0098693D02*
X0270241Y0098693D01*
X0270858Y0097458D02*
X0270858Y0101161D01*
X0272092Y0101161D02*
X0272092Y0097458D01*
X0273924Y0098075D02*
X0273924Y0099310D01*
X0275158Y0099310D01*
X0273924Y0100544D02*
X0274541Y0101161D01*
X0275775Y0101161D01*
X0276392Y0100544D01*
X0276392Y0098075D01*
X0275775Y0097458D01*
X0274541Y0097458D01*
X0273924Y0098075D01*
X0273313Y0102458D02*
X0273313Y0106161D01*
X0273313Y0104927D02*
X0272696Y0104927D01*
X0273313Y0104927D02*
X0275165Y0104927D01*
X0275165Y0103693D02*
X0272696Y0103693D01*
X0271482Y0103075D02*
X0269013Y0105544D01*
X0269013Y0103075D01*
X0269630Y0102458D01*
X0270864Y0102458D01*
X0271482Y0103075D01*
X0271482Y0105544D01*
X0270864Y0106161D01*
X0269630Y0106161D01*
X0269013Y0105544D01*
X0267798Y0106161D02*
X0267798Y0104310D01*
X0266564Y0104927D01*
X0265947Y0104927D01*
X0265330Y0104310D01*
X0265330Y0103075D01*
X0265947Y0102458D01*
X0267181Y0102458D01*
X0267798Y0103075D01*
X0267798Y0106161D02*
X0265330Y0106161D01*
X0263491Y0107458D02*
X0263491Y0111161D01*
X0265343Y0109310D01*
X0262874Y0109310D01*
X0261660Y0107458D02*
X0259191Y0111161D01*
X0257977Y0110544D02*
X0257977Y0109927D01*
X0257360Y0109310D01*
X0256125Y0109310D01*
X0255508Y0108693D01*
X0255508Y0108075D01*
X0256125Y0107458D01*
X0257360Y0107458D01*
X0257977Y0108075D01*
X0258581Y0106161D02*
X0259815Y0106161D01*
X0260432Y0105544D01*
X0260432Y0104927D01*
X0259815Y0104310D01*
X0258581Y0104310D01*
X0257963Y0103693D01*
X0257963Y0103075D01*
X0258581Y0102458D01*
X0259815Y0102458D01*
X0260432Y0103075D01*
X0262874Y0101161D02*
X0262874Y0100544D01*
X0262874Y0101161D02*
X0265343Y0101161D01*
X0264115Y0102458D02*
X0261647Y0106161D01*
X0258581Y0106161D02*
X0257963Y0105544D01*
X0256749Y0106161D02*
X0254897Y0106161D01*
X0254280Y0105544D01*
X0254280Y0104310D01*
X0254897Y0103693D01*
X0256749Y0103693D01*
X0256749Y0102458D02*
X0256749Y0106161D01*
X0254294Y0107458D02*
X0254294Y0111161D01*
X0252442Y0111161D01*
X0251825Y0110544D01*
X0251825Y0109310D01*
X0252442Y0108693D01*
X0254294Y0108693D01*
X0255508Y0110544D02*
X0256125Y0111161D01*
X0257360Y0111161D01*
X0257977Y0110544D01*
X0253066Y0106161D02*
X0251832Y0106161D01*
X0252449Y0106161D02*
X0252449Y0102458D01*
X0253066Y0102458D02*
X0251832Y0102458D01*
X0250610Y0101841D02*
X0248142Y0101841D01*
X0246927Y0102458D02*
X0246927Y0106161D01*
X0245693Y0104927D01*
X0244459Y0106161D01*
X0243855Y0107458D02*
X0242620Y0107458D01*
X0242003Y0108075D01*
X0240789Y0107458D02*
X0238320Y0107458D01*
X0237106Y0107458D02*
X0237106Y0111161D01*
X0236488Y0109310D02*
X0234637Y0107458D01*
X0234644Y0106161D02*
X0235878Y0106161D01*
X0235261Y0106161D02*
X0235261Y0102458D01*
X0235878Y0102458D02*
X0234644Y0102458D01*
X0237092Y0103075D02*
X0237709Y0102458D01*
X0238944Y0102458D01*
X0239561Y0103075D01*
X0238944Y0104310D02*
X0237709Y0104310D01*
X0237092Y0103693D01*
X0237092Y0103075D01*
X0238944Y0104310D02*
X0239561Y0104927D01*
X0239561Y0105544D01*
X0238944Y0106161D01*
X0237709Y0106161D01*
X0237092Y0105544D01*
X0237106Y0108693D02*
X0234637Y0111161D01*
X0240789Y0111161D02*
X0240789Y0107458D01*
X0243855Y0107458D02*
X0244472Y0108075D01*
X0244472Y0110544D01*
X0243855Y0111161D01*
X0242620Y0111161D01*
X0242003Y0110544D01*
X0240789Y0117458D02*
X0238320Y0121161D01*
X0236488Y0122458D02*
X0237106Y0123075D01*
X0234637Y0125544D01*
X0234637Y0123075D01*
X0235254Y0122458D01*
X0236488Y0122458D01*
X0237106Y0123075D02*
X0237106Y0125544D01*
X0236488Y0126161D01*
X0235254Y0126161D01*
X0234637Y0125544D01*
X0242003Y0126161D02*
X0244472Y0126161D01*
X0244472Y0122458D01*
X0244472Y0121161D02*
X0242003Y0121161D01*
X0243238Y0121161D02*
X0243238Y0117458D01*
X0245686Y0121161D02*
X0248155Y0117458D01*
X0249369Y0118075D02*
X0249987Y0117458D01*
X0251221Y0117458D01*
X0251838Y0118075D01*
X0253053Y0117458D02*
X0254287Y0118693D01*
X0255521Y0117458D01*
X0255521Y0121161D01*
X0256736Y0122458D02*
X0259204Y0122458D01*
X0256736Y0124927D01*
X0256736Y0125544D01*
X0257353Y0126161D01*
X0258587Y0126161D01*
X0259204Y0125544D01*
X0262874Y0128075D02*
X0262874Y0130544D01*
X0263491Y0131161D01*
X0264726Y0131161D01*
X0265343Y0130544D01*
X0265343Y0129927D01*
X0264726Y0129310D01*
X0262874Y0129310D01*
X0262874Y0128075D02*
X0263491Y0127458D01*
X0264726Y0127458D01*
X0265343Y0128075D01*
X0266557Y0128075D02*
X0266557Y0130544D01*
X0269026Y0128075D01*
X0268409Y0127458D01*
X0267175Y0127458D01*
X0266557Y0128075D01*
X0269026Y0128075D02*
X0269026Y0130544D01*
X0268409Y0131161D01*
X0267175Y0131161D01*
X0266557Y0130544D01*
X0266571Y0132458D02*
X0264102Y0132458D01*
X0262888Y0132458D02*
X0260419Y0136161D01*
X0259204Y0136161D02*
X0257353Y0136161D01*
X0256736Y0135544D01*
X0256736Y0134310D01*
X0257353Y0133693D01*
X0259204Y0133693D01*
X0259204Y0132458D02*
X0259204Y0136161D01*
X0255521Y0135544D02*
X0255521Y0133075D01*
X0254904Y0132458D01*
X0255521Y0135544D02*
X0254904Y0136161D01*
X0253670Y0136161D01*
X0253053Y0135544D01*
X0264102Y0135544D02*
X0264719Y0136161D01*
X0265954Y0136161D01*
X0266571Y0135544D01*
X0264102Y0135544D02*
X0264102Y0134927D01*
X0266571Y0132458D01*
X0267785Y0132458D02*
X0270254Y0132458D01*
X0269020Y0132458D02*
X0269020Y0136161D01*
X0270254Y0134927D01*
X0271468Y0134927D02*
X0272085Y0134927D01*
X0273937Y0134927D01*
X0273937Y0133693D02*
X0271468Y0133693D01*
X0272085Y0132458D02*
X0272085Y0136161D01*
X0273320Y0136161D02*
X0273320Y0132458D01*
X0274541Y0131161D02*
X0275775Y0131161D01*
X0276392Y0130544D01*
X0276392Y0128075D01*
X0275775Y0127458D01*
X0274541Y0127458D01*
X0273924Y0128075D01*
X0273924Y0129310D01*
X0275158Y0129310D01*
X0273924Y0130544D02*
X0274541Y0131161D01*
X0275769Y0132458D02*
X0275151Y0133075D01*
X0275151Y0134310D01*
X0276386Y0134310D01*
X0277620Y0135544D02*
X0277620Y0133075D01*
X0277003Y0132458D01*
X0275769Y0132458D01*
X0275151Y0135544D02*
X0275769Y0136161D01*
X0277003Y0136161D01*
X0277620Y0135544D01*
X0272092Y0131161D02*
X0272092Y0127458D01*
X0270858Y0127458D02*
X0270858Y0131161D01*
X0270858Y0129927D02*
X0270241Y0129927D01*
X0270858Y0129927D02*
X0272709Y0129927D01*
X0272709Y0128693D02*
X0270241Y0128693D01*
X0262270Y0121161D02*
X0262888Y0120544D01*
X0262888Y0119927D01*
X0262270Y0119310D01*
X0261036Y0119310D01*
X0260419Y0118693D01*
X0260419Y0118075D01*
X0261036Y0117458D01*
X0262270Y0117458D01*
X0262888Y0118075D01*
X0264102Y0117458D02*
X0266571Y0117458D01*
X0262270Y0121161D02*
X0261036Y0121161D01*
X0260419Y0120544D01*
X0259205Y0116841D02*
X0256736Y0116841D01*
X0253053Y0117458D02*
X0253053Y0121161D01*
X0251838Y0120544D02*
X0251838Y0119927D01*
X0251221Y0119310D01*
X0249987Y0119310D01*
X0249369Y0118693D01*
X0249369Y0118075D01*
X0249369Y0120544D02*
X0249987Y0121161D01*
X0251221Y0121161D01*
X0251838Y0120544D01*
X0244472Y0124310D02*
X0243238Y0124310D01*
X0245686Y0126841D02*
X0248155Y0126841D01*
X0237106Y0133693D02*
X0234637Y0136161D01*
X0266557Y0110544D02*
X0269026Y0108075D01*
X0268409Y0107458D01*
X0267175Y0107458D01*
X0266557Y0108075D01*
X0266557Y0110544D01*
X0267175Y0111161D01*
X0268409Y0111161D01*
X0269026Y0110544D01*
X0269026Y0108075D01*
X0270241Y0108693D02*
X0272709Y0108693D01*
X0272709Y0109927D02*
X0270858Y0109927D01*
X0270241Y0109927D01*
X0270858Y0111161D02*
X0270858Y0107458D01*
X0272092Y0107458D02*
X0272092Y0111161D01*
X0273924Y0110544D02*
X0274541Y0111161D01*
X0275775Y0111161D01*
X0276392Y0110544D01*
X0276392Y0108075D01*
X0275775Y0107458D01*
X0274541Y0107458D01*
X0273924Y0108075D01*
X0273924Y0109310D01*
X0275158Y0109310D01*
X0274548Y0106161D02*
X0274548Y0102458D01*
X0276379Y0103075D02*
X0276379Y0104310D01*
X0277614Y0104310D01*
X0278848Y0105544D02*
X0278848Y0103075D01*
X0278231Y0102458D01*
X0276996Y0102458D01*
X0276379Y0103075D01*
X0276379Y0105544D02*
X0276996Y0106161D01*
X0278231Y0106161D01*
X0278848Y0105544D01*
X0250610Y0101161D02*
X0249376Y0101161D01*
X0249993Y0101161D02*
X0249993Y0097458D01*
X0250610Y0097458D02*
X0249376Y0097458D01*
X0235254Y0086161D02*
X0234637Y0085544D01*
X0234637Y0084927D01*
X0237106Y0082458D01*
X0234637Y0082458D01*
X0235254Y0081161D02*
X0234637Y0080544D01*
X0234637Y0079927D01*
X0235254Y0079310D01*
X0234637Y0078693D01*
X0234637Y0078075D01*
X0235254Y0077458D01*
X0236488Y0077458D01*
X0237106Y0078075D01*
X0235871Y0079310D02*
X0235254Y0079310D01*
X0235254Y0081161D02*
X0236488Y0081161D01*
X0237106Y0080544D01*
X0243238Y0079310D02*
X0244472Y0079310D01*
X0256736Y0070544D02*
X0256736Y0069310D01*
X0257353Y0068693D01*
X0259204Y0068693D01*
X0259204Y0067458D02*
X0259204Y0071161D01*
X0257353Y0071161D01*
X0256736Y0070544D01*
X0260419Y0071161D02*
X0262888Y0067458D01*
X0264719Y0067458D02*
X0264719Y0071161D01*
X0266571Y0069310D01*
X0264102Y0069310D01*
X0267785Y0067458D02*
X0270254Y0067458D01*
X0269020Y0067458D02*
X0269020Y0071161D01*
X0270254Y0069927D01*
X0271468Y0069927D02*
X0272085Y0069927D01*
X0273937Y0069927D01*
X0273937Y0068693D02*
X0271468Y0068693D01*
X0272085Y0067458D02*
X0272085Y0071161D01*
X0273320Y0071161D02*
X0273320Y0067458D01*
X0275151Y0068075D02*
X0275769Y0067458D01*
X0277003Y0067458D01*
X0277620Y0068075D01*
X0277620Y0070544D01*
X0277003Y0071161D01*
X0275769Y0071161D01*
X0275151Y0070544D01*
X0275151Y0069310D02*
X0276386Y0069310D01*
X0275151Y0069310D02*
X0275151Y0068075D01*
X0266571Y0073075D02*
X0265954Y0072458D01*
X0264719Y0072458D01*
X0264102Y0073075D01*
X0264102Y0074310D01*
X0265336Y0074310D01*
X0264102Y0075544D02*
X0264719Y0076161D01*
X0265954Y0076161D01*
X0266571Y0075544D01*
X0266571Y0073075D01*
X0225422Y0058041D02*
X0225422Y0056807D01*
X0224805Y0056189D01*
X0223571Y0056189D01*
X0223571Y0057424D01*
X0224805Y0058658D02*
X0225422Y0058041D01*
X0224805Y0058658D02*
X0222336Y0058658D01*
X0221719Y0058041D01*
X0221719Y0056807D01*
X0222336Y0056189D01*
X0221719Y0054975D02*
X0225422Y0052506D01*
X0221719Y0052506D01*
X0221719Y0051292D02*
X0221719Y0049440D01*
X0222336Y0048823D01*
X0224805Y0048823D01*
X0225422Y0049440D01*
X0225422Y0051292D01*
X0221719Y0051292D01*
X0220422Y0051292D02*
X0220422Y0048823D01*
X0220422Y0050058D02*
X0216719Y0050058D01*
X0217954Y0051292D01*
X0217954Y0052506D02*
X0217954Y0053124D01*
X0217954Y0054975D01*
X0219188Y0054975D02*
X0219188Y0052506D01*
X0220422Y0053124D02*
X0216719Y0053124D01*
X0216719Y0054358D02*
X0220422Y0054358D01*
X0221719Y0054975D02*
X0225422Y0054975D01*
X0220422Y0056807D02*
X0220422Y0058041D01*
X0219805Y0058658D01*
X0217336Y0058658D01*
X0216719Y0058041D01*
X0216719Y0056807D01*
X0217336Y0056189D01*
X0218571Y0056189D02*
X0218571Y0057424D01*
X0218571Y0056189D02*
X0219805Y0056189D01*
X0220422Y0056807D01*
X0215422Y0056807D02*
X0214805Y0056189D01*
X0213571Y0056189D01*
X0213571Y0057424D01*
X0212336Y0058658D02*
X0214805Y0058658D01*
X0215422Y0058041D01*
X0215422Y0056807D01*
X0214188Y0054975D02*
X0214188Y0052506D01*
X0212954Y0052506D02*
X0212954Y0053124D01*
X0212954Y0054975D01*
X0212336Y0056189D02*
X0211719Y0056807D01*
X0211719Y0058041D01*
X0212336Y0058658D01*
X0210422Y0058041D02*
X0210422Y0056807D01*
X0209805Y0056189D01*
X0208571Y0056189D01*
X0208571Y0057424D01*
X0209805Y0058658D02*
X0210422Y0058041D01*
X0209805Y0058658D02*
X0207336Y0058658D01*
X0206719Y0058041D01*
X0206719Y0056807D01*
X0207336Y0056189D01*
X0207954Y0054975D02*
X0207954Y0053124D01*
X0207954Y0052506D01*
X0207954Y0051292D02*
X0206719Y0050058D01*
X0210422Y0050058D01*
X0210422Y0051292D02*
X0210422Y0048823D01*
X0209805Y0047609D02*
X0210422Y0046992D01*
X0210422Y0045757D01*
X0209805Y0045140D01*
X0209188Y0045140D01*
X0208571Y0045757D01*
X0208571Y0047609D01*
X0209805Y0047609D01*
X0208571Y0047609D02*
X0207336Y0046374D01*
X0206719Y0045140D01*
X0205422Y0045757D02*
X0205422Y0046992D01*
X0204805Y0047609D01*
X0202336Y0045140D01*
X0204805Y0045140D01*
X0205422Y0045757D01*
X0205422Y0043926D02*
X0201719Y0041457D01*
X0201719Y0040243D02*
X0201719Y0039008D01*
X0201719Y0039625D02*
X0205422Y0039625D01*
X0205422Y0039008D02*
X0205422Y0040243D01*
X0206719Y0040243D02*
X0206719Y0038391D01*
X0207336Y0037774D01*
X0208571Y0037774D01*
X0209188Y0038391D01*
X0209188Y0040243D01*
X0210422Y0040243D02*
X0206719Y0040243D01*
X0206719Y0041457D02*
X0210422Y0043926D01*
X0211719Y0045140D02*
X0212336Y0045140D01*
X0214805Y0047609D01*
X0215422Y0047609D01*
X0216719Y0047609D02*
X0218571Y0047609D01*
X0217954Y0046374D01*
X0217954Y0045757D01*
X0218571Y0045140D01*
X0219805Y0045140D01*
X0220422Y0045757D01*
X0220422Y0046992D01*
X0219805Y0047609D01*
X0216719Y0047609D02*
X0216719Y0045140D01*
X0215422Y0043926D02*
X0211719Y0041457D01*
X0211719Y0040243D02*
X0211719Y0039008D01*
X0211719Y0039625D02*
X0215422Y0039625D01*
X0215422Y0039008D02*
X0215422Y0040243D01*
X0216719Y0040243D02*
X0216719Y0037774D01*
X0216719Y0036559D02*
X0220422Y0034091D01*
X0220422Y0032876D02*
X0220422Y0031025D01*
X0219805Y0030407D01*
X0217336Y0030407D01*
X0216719Y0031025D01*
X0216719Y0032876D01*
X0220422Y0032876D01*
X0220422Y0029193D02*
X0217954Y0026724D01*
X0217336Y0026724D01*
X0216719Y0027342D01*
X0216719Y0028576D01*
X0217336Y0029193D01*
X0216040Y0030421D02*
X0216040Y0027952D01*
X0214805Y0026738D02*
X0215422Y0026120D01*
X0215422Y0024886D01*
X0214805Y0024269D01*
X0215422Y0023055D02*
X0211719Y0023055D01*
X0212336Y0024269D02*
X0211719Y0024886D01*
X0211719Y0026120D01*
X0212336Y0026738D01*
X0214805Y0026738D01*
X0210422Y0026724D02*
X0210422Y0029193D01*
X0207954Y0026724D01*
X0207336Y0026724D01*
X0206719Y0027342D01*
X0206719Y0028576D01*
X0207336Y0029193D01*
X0207336Y0030407D02*
X0206719Y0031025D01*
X0206719Y0032876D01*
X0210422Y0032876D01*
X0210422Y0031025D01*
X0209805Y0030407D01*
X0207336Y0030407D01*
X0206040Y0030421D02*
X0206040Y0027952D01*
X0204805Y0026738D02*
X0205422Y0026120D01*
X0205422Y0024886D01*
X0204805Y0024269D01*
X0204188Y0024269D01*
X0203571Y0024886D01*
X0203571Y0026120D01*
X0202954Y0026738D01*
X0202336Y0026738D01*
X0201719Y0026120D01*
X0201719Y0024886D01*
X0202336Y0024269D01*
X0201719Y0023055D02*
X0201719Y0021203D01*
X0202336Y0020586D01*
X0204805Y0020586D01*
X0205422Y0021203D01*
X0205422Y0023055D01*
X0201719Y0023055D01*
X0200422Y0023055D02*
X0200422Y0021820D01*
X0200422Y0022437D02*
X0196719Y0022437D01*
X0196719Y0021820D02*
X0196719Y0023055D01*
X0196719Y0024269D02*
X0200422Y0024269D01*
X0200422Y0026738D02*
X0196719Y0026738D01*
X0197954Y0025503D01*
X0196719Y0024269D01*
X0195422Y0024886D02*
X0194805Y0024269D01*
X0195422Y0024886D02*
X0195422Y0026120D01*
X0194805Y0026738D01*
X0192336Y0026738D01*
X0191719Y0026120D01*
X0191719Y0024886D01*
X0192336Y0024269D01*
X0192336Y0023055D02*
X0192954Y0023055D01*
X0193571Y0022437D01*
X0193571Y0021203D01*
X0194188Y0020586D01*
X0194805Y0020586D01*
X0195422Y0021203D01*
X0195422Y0022437D01*
X0194805Y0023055D01*
X0192336Y0023055D02*
X0191719Y0022437D01*
X0191719Y0021203D01*
X0192336Y0020586D01*
X0192336Y0019371D02*
X0191719Y0018754D01*
X0191719Y0017520D01*
X0192336Y0016903D01*
X0194805Y0019371D01*
X0195422Y0018754D01*
X0195422Y0017520D01*
X0194805Y0016903D01*
X0192336Y0016903D01*
X0192336Y0019371D02*
X0194805Y0019371D01*
X0196719Y0019982D02*
X0196719Y0018748D01*
X0197336Y0018130D01*
X0197336Y0016916D02*
X0196719Y0016299D01*
X0196719Y0015064D01*
X0197336Y0014447D01*
X0199805Y0014447D01*
X0200422Y0015064D01*
X0200422Y0016299D01*
X0199805Y0016916D01*
X0197336Y0016916D01*
X0198571Y0018748D02*
X0199188Y0018130D01*
X0199805Y0018130D01*
X0200422Y0018748D01*
X0200422Y0019982D01*
X0199805Y0020599D01*
X0198571Y0019982D02*
X0198571Y0018748D01*
X0198571Y0019982D02*
X0197954Y0020599D01*
X0197336Y0020599D01*
X0196719Y0019982D01*
X0201719Y0019371D02*
X0201719Y0018137D01*
X0201719Y0018754D02*
X0205422Y0018754D01*
X0205422Y0019371D02*
X0205422Y0018137D01*
X0205422Y0016916D02*
X0201719Y0014447D01*
X0201719Y0013233D02*
X0201719Y0011381D01*
X0202336Y0010764D01*
X0203571Y0010764D01*
X0204188Y0011381D01*
X0204188Y0013233D01*
X0205422Y0013233D02*
X0201719Y0013233D01*
X0204188Y0011998D02*
X0205422Y0010764D01*
X0205422Y0009550D02*
X0201719Y0007081D01*
X0201719Y0005867D02*
X0201719Y0004015D01*
X0202336Y0003398D01*
X0204805Y0003398D01*
X0205422Y0004015D01*
X0205422Y0005867D01*
X0201719Y0005867D01*
X0201719Y0009550D02*
X0205422Y0007081D01*
X0211719Y0016903D02*
X0214188Y0019371D01*
X0213571Y0018754D02*
X0215422Y0016903D01*
X0215422Y0019371D02*
X0211719Y0019371D01*
X0215422Y0020586D02*
X0215422Y0023055D01*
X0220422Y0026724D02*
X0220422Y0029193D01*
X0215422Y0032252D02*
X0215422Y0033487D01*
X0214805Y0034104D01*
X0215422Y0035318D02*
X0215422Y0037787D01*
X0212954Y0035318D01*
X0212336Y0035318D01*
X0211719Y0035936D01*
X0211719Y0037170D01*
X0212336Y0037787D01*
X0210422Y0037774D02*
X0209188Y0039008D01*
X0210422Y0036559D02*
X0206719Y0034091D01*
X0205422Y0033487D02*
X0204805Y0034104D01*
X0205422Y0033487D02*
X0205422Y0032252D01*
X0204805Y0031635D01*
X0204188Y0031635D01*
X0203571Y0032252D01*
X0203571Y0033487D01*
X0202954Y0034104D01*
X0202336Y0034104D01*
X0201719Y0033487D01*
X0201719Y0032252D01*
X0202336Y0031635D01*
X0201040Y0030421D02*
X0201040Y0027952D01*
X0200422Y0031642D02*
X0200422Y0032876D01*
X0200422Y0032259D02*
X0196719Y0032259D01*
X0196719Y0032876D02*
X0196719Y0031642D01*
X0195422Y0031642D02*
X0195422Y0032876D01*
X0195422Y0032259D02*
X0191719Y0032259D01*
X0191719Y0032876D02*
X0191719Y0031642D01*
X0190422Y0032876D02*
X0186719Y0032876D01*
X0187954Y0031642D01*
X0186719Y0030407D01*
X0190422Y0030407D01*
X0191040Y0029193D02*
X0191040Y0026724D01*
X0190422Y0025510D02*
X0186719Y0025510D01*
X0186719Y0023041D01*
X0187336Y0021827D02*
X0186719Y0021210D01*
X0186719Y0019975D01*
X0187336Y0019358D01*
X0188571Y0019975D02*
X0189188Y0019358D01*
X0189805Y0019358D01*
X0190422Y0019975D01*
X0190422Y0021210D01*
X0189805Y0021827D01*
X0188571Y0021210D02*
X0188571Y0019975D01*
X0188571Y0021210D02*
X0187954Y0021827D01*
X0187336Y0021827D01*
X0188571Y0024276D02*
X0188571Y0025510D01*
X0196040Y0027952D02*
X0196040Y0030421D01*
X0197336Y0034091D02*
X0196719Y0034708D01*
X0196719Y0036559D01*
X0200422Y0036559D01*
X0199188Y0036559D02*
X0199188Y0034708D01*
X0198571Y0034091D01*
X0197336Y0034091D01*
X0195422Y0036559D02*
X0191719Y0036559D01*
X0191719Y0034708D01*
X0192336Y0034091D01*
X0193571Y0034091D01*
X0194188Y0034708D01*
X0194188Y0036559D01*
X0194188Y0037774D02*
X0193571Y0038391D01*
X0193571Y0039625D01*
X0192954Y0040243D01*
X0192336Y0040243D01*
X0191719Y0039625D01*
X0191719Y0038391D01*
X0192336Y0037774D01*
X0194188Y0037774D02*
X0194805Y0037774D01*
X0195422Y0038391D01*
X0195422Y0039625D01*
X0194805Y0040243D01*
X0196719Y0039625D02*
X0197336Y0040243D01*
X0197954Y0040243D01*
X0198571Y0039625D01*
X0198571Y0038391D01*
X0199188Y0037774D01*
X0199805Y0037774D01*
X0200422Y0038391D01*
X0200422Y0039625D01*
X0199805Y0040243D01*
X0196719Y0039625D02*
X0196719Y0038391D01*
X0197336Y0037774D01*
X0196719Y0041457D02*
X0200422Y0043926D01*
X0199805Y0045140D02*
X0199188Y0045140D01*
X0198571Y0045757D01*
X0198571Y0047609D01*
X0199805Y0047609D01*
X0200422Y0046992D01*
X0200422Y0045757D01*
X0199805Y0045140D01*
X0201719Y0045757D02*
X0201719Y0046992D01*
X0202336Y0047609D01*
X0204805Y0047609D01*
X0205422Y0048823D02*
X0205422Y0051292D01*
X0205422Y0050058D02*
X0201719Y0050058D01*
X0202954Y0051292D01*
X0202954Y0052506D02*
X0202954Y0053124D01*
X0202954Y0054975D01*
X0204188Y0054975D02*
X0204188Y0052506D01*
X0205422Y0053124D02*
X0201719Y0053124D01*
X0201719Y0054358D02*
X0205422Y0054358D01*
X0206719Y0054358D02*
X0210422Y0054358D01*
X0210422Y0053124D02*
X0206719Y0053124D01*
X0209188Y0052506D02*
X0209188Y0054975D01*
X0211719Y0054358D02*
X0215422Y0054358D01*
X0215422Y0053124D02*
X0211719Y0053124D01*
X0212336Y0051292D02*
X0211719Y0050675D01*
X0211719Y0049440D01*
X0212336Y0048823D01*
X0214805Y0051292D01*
X0215422Y0050675D01*
X0215422Y0049440D01*
X0214805Y0048823D01*
X0212336Y0048823D01*
X0211719Y0047609D02*
X0211719Y0045140D01*
X0216719Y0041457D02*
X0220422Y0043926D01*
X0220422Y0039008D02*
X0216719Y0039008D01*
X0220422Y0036559D02*
X0216719Y0034091D01*
X0215422Y0032252D02*
X0214805Y0031635D01*
X0214188Y0031635D01*
X0213571Y0032252D01*
X0213571Y0033487D01*
X0212954Y0034104D01*
X0212336Y0034104D01*
X0211719Y0033487D01*
X0211719Y0032252D01*
X0212336Y0031635D01*
X0210422Y0034091D02*
X0206719Y0036559D01*
X0205422Y0037787D02*
X0205422Y0035318D01*
X0202954Y0035318D02*
X0205422Y0037787D01*
X0202336Y0037787D02*
X0201719Y0037170D01*
X0201719Y0035936D01*
X0202336Y0035318D01*
X0202954Y0035318D01*
X0195422Y0043926D02*
X0191719Y0041457D01*
X0190422Y0040243D02*
X0186719Y0040243D01*
X0186719Y0038391D01*
X0187336Y0037774D01*
X0188571Y0037774D01*
X0189188Y0038391D01*
X0189188Y0040243D01*
X0186719Y0041457D02*
X0190422Y0043926D01*
X0190422Y0045140D02*
X0190422Y0047609D01*
X0190422Y0048823D02*
X0190422Y0051292D01*
X0190422Y0050058D02*
X0186719Y0050058D01*
X0187954Y0051292D01*
X0187954Y0052506D02*
X0187954Y0053124D01*
X0187954Y0054975D01*
X0189188Y0054975D02*
X0189188Y0052506D01*
X0190422Y0053124D02*
X0186719Y0053124D01*
X0186719Y0054358D02*
X0190422Y0054358D01*
X0191719Y0054358D02*
X0195422Y0054358D01*
X0195422Y0053124D02*
X0191719Y0053124D01*
X0192954Y0053124D02*
X0192954Y0052506D01*
X0192954Y0053124D02*
X0192954Y0054975D01*
X0194188Y0054975D02*
X0194188Y0052506D01*
X0194805Y0051292D02*
X0192336Y0048823D01*
X0194805Y0048823D01*
X0195422Y0049440D01*
X0195422Y0050675D01*
X0194805Y0051292D01*
X0192336Y0051292D01*
X0191719Y0050675D01*
X0191719Y0049440D01*
X0192336Y0048823D01*
X0192336Y0047609D02*
X0191719Y0046992D01*
X0191719Y0045757D01*
X0192336Y0045140D01*
X0192954Y0045140D01*
X0193571Y0045757D01*
X0194188Y0045140D01*
X0194805Y0045140D01*
X0195422Y0045757D01*
X0195422Y0046992D01*
X0194805Y0047609D01*
X0193571Y0046374D02*
X0193571Y0045757D01*
X0196719Y0045140D02*
X0197336Y0046374D01*
X0198571Y0047609D01*
X0199805Y0048823D02*
X0200422Y0049440D01*
X0200422Y0050675D01*
X0199805Y0051292D01*
X0197336Y0048823D01*
X0199805Y0048823D01*
X0197336Y0048823D02*
X0196719Y0049440D01*
X0196719Y0050675D01*
X0197336Y0051292D01*
X0199805Y0051292D01*
X0199188Y0052506D02*
X0199188Y0054975D01*
X0197954Y0054975D02*
X0197954Y0053124D01*
X0197954Y0052506D01*
X0196719Y0053124D02*
X0200422Y0053124D01*
X0200422Y0054358D02*
X0196719Y0054358D01*
X0197336Y0056189D02*
X0196719Y0056807D01*
X0196719Y0058041D01*
X0197336Y0058658D01*
X0199805Y0058658D01*
X0200422Y0058041D01*
X0200422Y0056807D01*
X0199805Y0056189D01*
X0198571Y0056189D01*
X0198571Y0057424D01*
X0201719Y0056807D02*
X0201719Y0058041D01*
X0202336Y0058658D01*
X0204805Y0058658D01*
X0205422Y0058041D01*
X0205422Y0056807D01*
X0204805Y0056189D01*
X0203571Y0056189D01*
X0203571Y0057424D01*
X0202336Y0056189D02*
X0201719Y0056807D01*
X0195422Y0056807D02*
X0194805Y0056189D01*
X0193571Y0056189D01*
X0193571Y0057424D01*
X0192336Y0058658D02*
X0194805Y0058658D01*
X0195422Y0058041D01*
X0195422Y0056807D01*
X0192336Y0056189D02*
X0191719Y0056807D01*
X0191719Y0058041D01*
X0192336Y0058658D01*
X0190422Y0058041D02*
X0190422Y0056807D01*
X0189805Y0056189D01*
X0188571Y0056189D01*
X0188571Y0057424D01*
X0189805Y0058658D02*
X0190422Y0058041D01*
X0189805Y0058658D02*
X0187336Y0058658D01*
X0186719Y0058041D01*
X0186719Y0056807D01*
X0187336Y0056189D01*
X0185422Y0054358D02*
X0184805Y0054975D01*
X0182336Y0052506D01*
X0184805Y0052506D01*
X0185422Y0053124D01*
X0185422Y0054358D01*
X0184805Y0054975D02*
X0182336Y0054975D01*
X0181719Y0054358D01*
X0181719Y0053124D01*
X0182336Y0052506D01*
X0181719Y0051292D02*
X0181719Y0048823D01*
X0181719Y0047609D02*
X0185422Y0045140D01*
X0181719Y0045140D01*
X0181719Y0047609D02*
X0185422Y0047609D01*
X0186719Y0046374D02*
X0190422Y0046374D01*
X0187954Y0047609D02*
X0186719Y0046374D01*
X0185422Y0050058D02*
X0181719Y0050058D01*
X0180422Y0050058D02*
X0176719Y0050058D01*
X0176719Y0051292D02*
X0176719Y0048823D01*
X0176719Y0047609D02*
X0176719Y0045757D01*
X0177336Y0045140D01*
X0178571Y0045140D01*
X0179188Y0045757D01*
X0179188Y0047609D01*
X0180422Y0047609D02*
X0176719Y0047609D01*
X0175422Y0047609D02*
X0171719Y0047609D01*
X0171719Y0045757D01*
X0172336Y0045140D01*
X0173571Y0045140D01*
X0174188Y0045757D01*
X0174188Y0047609D01*
X0173571Y0048823D02*
X0174188Y0049440D01*
X0174188Y0051292D01*
X0174188Y0050058D02*
X0175422Y0048823D01*
X0173571Y0048823D02*
X0172336Y0048823D01*
X0171719Y0049440D01*
X0171719Y0051292D01*
X0175422Y0051292D01*
X0174805Y0052506D02*
X0175422Y0053124D01*
X0175422Y0054358D01*
X0174805Y0054975D01*
X0172336Y0052506D01*
X0174805Y0052506D01*
X0176719Y0053124D02*
X0177336Y0052506D01*
X0179805Y0054975D01*
X0180422Y0054358D01*
X0180422Y0053124D01*
X0179805Y0052506D01*
X0177336Y0052506D01*
X0176719Y0053124D02*
X0176719Y0054358D01*
X0177336Y0054975D01*
X0179805Y0054975D01*
X0178571Y0056189D02*
X0179188Y0056807D01*
X0179188Y0058658D01*
X0180422Y0058658D02*
X0176719Y0058658D01*
X0176719Y0056807D01*
X0177336Y0056189D01*
X0178571Y0056189D01*
X0181719Y0056807D02*
X0181719Y0058658D01*
X0185422Y0058658D01*
X0184188Y0058658D02*
X0184188Y0056807D01*
X0183571Y0056189D01*
X0182336Y0056189D01*
X0181719Y0056807D01*
X0175422Y0058658D02*
X0171719Y0058658D01*
X0171719Y0056807D01*
X0172336Y0056189D01*
X0173571Y0056189D01*
X0174188Y0056807D01*
X0174188Y0058658D01*
X0174805Y0054975D02*
X0172336Y0054975D01*
X0171719Y0054358D01*
X0171719Y0053124D01*
X0172336Y0052506D01*
X0170422Y0053124D02*
X0170422Y0054358D01*
X0169805Y0054975D01*
X0167336Y0052506D01*
X0169805Y0052506D01*
X0170422Y0053124D01*
X0170422Y0051292D02*
X0166719Y0051292D01*
X0166719Y0049440D01*
X0167336Y0048823D01*
X0168571Y0048823D01*
X0169188Y0049440D01*
X0169188Y0051292D01*
X0169188Y0050058D02*
X0170422Y0048823D01*
X0170422Y0047609D02*
X0166719Y0047609D01*
X0170422Y0045140D01*
X0166719Y0045140D01*
X0165422Y0045140D02*
X0161719Y0045140D01*
X0161719Y0047609D02*
X0165422Y0045140D01*
X0165422Y0047609D02*
X0161719Y0047609D01*
X0161719Y0048823D02*
X0161719Y0051292D01*
X0161719Y0050058D02*
X0165422Y0050058D01*
X0163571Y0052506D02*
X0163571Y0054975D01*
X0161719Y0053124D01*
X0165422Y0053124D01*
X0166719Y0053124D02*
X0167336Y0052506D01*
X0166719Y0053124D02*
X0166719Y0054358D01*
X0167336Y0054975D01*
X0169805Y0054975D01*
X0168571Y0056189D02*
X0169188Y0056807D01*
X0169188Y0058658D01*
X0170422Y0058658D02*
X0166719Y0058658D01*
X0166719Y0056807D01*
X0167336Y0056189D01*
X0168571Y0056189D01*
X0165422Y0058658D02*
X0161719Y0058658D01*
X0161719Y0056807D01*
X0162336Y0056189D01*
X0163571Y0056189D01*
X0164188Y0056807D01*
X0164188Y0058658D01*
X0160422Y0058658D02*
X0156719Y0058658D01*
X0156719Y0056807D01*
X0157336Y0056189D01*
X0158571Y0056189D01*
X0159188Y0056807D01*
X0159188Y0058658D01*
X0158571Y0054975D02*
X0158571Y0052506D01*
X0160422Y0053124D02*
X0156719Y0053124D01*
X0158571Y0054975D01*
X0155422Y0053124D02*
X0151719Y0053124D01*
X0153571Y0054975D01*
X0153571Y0052506D01*
X0154188Y0051292D02*
X0154188Y0049440D01*
X0153571Y0048823D01*
X0152336Y0048823D01*
X0151719Y0049440D01*
X0151719Y0051292D01*
X0155422Y0051292D01*
X0156719Y0051292D02*
X0156719Y0048823D01*
X0156719Y0047609D02*
X0156719Y0045757D01*
X0157336Y0045140D01*
X0158571Y0045140D01*
X0159188Y0045757D01*
X0159188Y0047609D01*
X0160422Y0047609D02*
X0156719Y0047609D01*
X0155422Y0047609D02*
X0151719Y0047609D01*
X0151719Y0045757D01*
X0152336Y0045140D01*
X0153571Y0045140D01*
X0154188Y0045757D01*
X0154188Y0047609D01*
X0155422Y0048823D02*
X0154188Y0050058D01*
X0156719Y0050058D02*
X0160422Y0050058D01*
X0154188Y0056807D02*
X0154188Y0058658D01*
X0155422Y0058658D02*
X0151719Y0058658D01*
X0151719Y0056807D01*
X0152336Y0056189D01*
X0153571Y0056189D01*
X0154188Y0056807D01*
X0150422Y0058658D02*
X0146719Y0058658D01*
X0146719Y0056807D01*
X0147336Y0056189D01*
X0148571Y0056189D01*
X0149188Y0056807D01*
X0149188Y0058658D01*
X0148571Y0054975D02*
X0148571Y0052506D01*
X0149188Y0051292D02*
X0149188Y0049440D01*
X0148571Y0048823D01*
X0147336Y0048823D01*
X0146719Y0049440D01*
X0146719Y0051292D01*
X0150422Y0051292D01*
X0149188Y0050058D02*
X0150422Y0048823D01*
X0150422Y0047609D02*
X0146719Y0047609D01*
X0150422Y0045140D01*
X0146719Y0045140D01*
X0143571Y0045140D02*
X0143571Y0047609D01*
X0144188Y0048823D02*
X0144805Y0048823D01*
X0145422Y0049440D01*
X0145422Y0051292D01*
X0141719Y0051292D01*
X0141719Y0049440D01*
X0142336Y0048823D01*
X0142954Y0048823D01*
X0143571Y0049440D01*
X0143571Y0051292D01*
X0144188Y0052506D02*
X0144805Y0052506D01*
X0145422Y0053124D01*
X0145422Y0054358D01*
X0144805Y0054975D01*
X0144805Y0056189D02*
X0141719Y0056189D01*
X0142336Y0054975D02*
X0142954Y0054975D01*
X0143571Y0054358D01*
X0143571Y0053124D01*
X0144188Y0052506D01*
X0142336Y0052506D02*
X0141719Y0053124D01*
X0141719Y0054358D01*
X0142336Y0054975D01*
X0140422Y0054358D02*
X0139805Y0054975D01*
X0140422Y0054358D02*
X0140422Y0053124D01*
X0139805Y0052506D01*
X0139188Y0052506D01*
X0138571Y0053124D01*
X0138571Y0054358D01*
X0137954Y0054975D01*
X0137336Y0054975D01*
X0136719Y0054358D01*
X0136719Y0053124D01*
X0137336Y0052506D01*
X0136719Y0051292D02*
X0136719Y0049440D01*
X0137336Y0048823D01*
X0137954Y0048823D01*
X0138571Y0049440D01*
X0138571Y0051292D01*
X0140422Y0051292D02*
X0140422Y0049440D01*
X0139805Y0048823D01*
X0139188Y0048823D01*
X0138571Y0049440D01*
X0138571Y0047609D02*
X0138571Y0045140D01*
X0137336Y0046374D02*
X0139805Y0046374D01*
X0135422Y0046982D02*
X0135422Y0049450D01*
X0132954Y0046982D01*
X0132336Y0046982D01*
X0131719Y0047599D01*
X0131719Y0048833D01*
X0132336Y0049450D01*
X0134805Y0050675D02*
X0135422Y0050675D01*
X0135422Y0051292D01*
X0134805Y0051292D01*
X0134805Y0050675D01*
X0134805Y0052506D02*
X0135422Y0053124D01*
X0135422Y0054358D01*
X0134805Y0054975D01*
X0133571Y0056189D02*
X0133571Y0058658D01*
X0132336Y0057424D02*
X0134805Y0057424D01*
X0136719Y0058658D02*
X0139805Y0058658D01*
X0140422Y0058041D01*
X0140422Y0056807D01*
X0139805Y0056189D01*
X0136719Y0056189D01*
X0133571Y0053741D02*
X0133571Y0053124D01*
X0134188Y0052506D01*
X0134805Y0052506D01*
X0133571Y0053124D02*
X0132954Y0052506D01*
X0132336Y0052506D01*
X0131719Y0053124D01*
X0131719Y0054358D01*
X0132336Y0054975D01*
X0136719Y0051292D02*
X0140422Y0051292D01*
X0143571Y0049440D02*
X0144188Y0048823D01*
X0146719Y0053124D02*
X0148571Y0054975D01*
X0150422Y0053124D02*
X0146719Y0053124D01*
X0144805Y0056189D02*
X0145422Y0056807D01*
X0145422Y0058041D01*
X0144805Y0058658D01*
X0141719Y0058658D01*
X0134188Y0045767D02*
X0135422Y0044533D01*
X0134188Y0043298D01*
X0131719Y0043298D01*
X0131719Y0045767D02*
X0134188Y0045767D01*
X0131719Y0038401D02*
X0131102Y0037784D01*
X0132336Y0036549D01*
X0131719Y0035932D01*
X0133571Y0031035D02*
X0133571Y0028566D01*
X0134805Y0027352D02*
X0135422Y0026734D01*
X0135422Y0025500D01*
X0134805Y0024883D01*
X0134188Y0024883D01*
X0133571Y0025500D01*
X0133571Y0026117D01*
X0133571Y0025500D02*
X0132954Y0024883D01*
X0132336Y0024883D01*
X0131719Y0025500D01*
X0131719Y0026734D01*
X0132336Y0027352D01*
X0132336Y0029800D02*
X0134805Y0029800D01*
X0134805Y0023668D02*
X0134805Y0023051D01*
X0135422Y0023051D01*
X0135422Y0023668D01*
X0134805Y0023668D01*
X0134805Y0021827D02*
X0135422Y0021210D01*
X0135422Y0019975D01*
X0134805Y0019358D01*
X0133571Y0019358D01*
X0132954Y0019975D01*
X0132954Y0020592D01*
X0133571Y0021827D01*
X0131719Y0021827D01*
X0131719Y0019358D01*
X0131719Y0018144D02*
X0134188Y0018144D01*
X0135422Y0016909D01*
X0134188Y0015675D01*
X0131719Y0015675D01*
X0186719Y0034708D02*
X0186719Y0035942D01*
X0187336Y0036559D01*
X0189805Y0036559D01*
X0190422Y0035942D01*
X0190422Y0034708D01*
X0189805Y0034091D01*
X0187336Y0034091D02*
X0186719Y0034708D01*
X0201719Y0045757D02*
X0202336Y0045140D01*
X0212336Y0051292D02*
X0214805Y0051292D01*
X0199808Y0165458D02*
X0197340Y0165458D01*
X0196722Y0166075D01*
X0196722Y0167310D01*
X0197340Y0167927D01*
X0198574Y0167927D01*
X0198574Y0166693D01*
X0199808Y0167927D02*
X0200426Y0167310D01*
X0200426Y0166075D01*
X0199808Y0165458D01*
X0194808Y0166693D02*
X0192340Y0166693D01*
X0193574Y0165458D02*
X0193574Y0167927D01*
X0192340Y0169141D02*
X0191722Y0169759D01*
X0191722Y0170993D01*
X0192340Y0171610D01*
X0192957Y0171610D01*
X0193574Y0170993D01*
X0193574Y0170376D01*
X0193574Y0170993D02*
X0194191Y0171610D01*
X0194808Y0171610D01*
X0195426Y0170993D01*
X0195426Y0169759D01*
X0194808Y0169141D01*
X0196722Y0169141D02*
X0200426Y0169141D01*
X0196722Y0171610D01*
X0200426Y0171610D01*
X0200426Y0172825D02*
X0200426Y0174676D01*
X0199808Y0175293D01*
X0197340Y0175293D01*
X0196722Y0174676D01*
X0196722Y0172825D01*
X0200426Y0172825D01*
X0195426Y0174666D02*
X0193574Y0174666D01*
X0194191Y0175901D01*
X0194191Y0176518D01*
X0193574Y0177135D01*
X0192340Y0177135D01*
X0191722Y0176518D01*
X0191722Y0175283D01*
X0192340Y0174666D01*
X0192340Y0173442D02*
X0191722Y0173442D01*
X0191722Y0172825D01*
X0192340Y0172825D01*
X0192340Y0173442D01*
X0190426Y0174666D02*
X0190426Y0177135D01*
X0190426Y0178349D02*
X0187957Y0178349D01*
X0186722Y0179584D01*
X0187957Y0180818D01*
X0190426Y0180818D01*
X0191722Y0179584D02*
X0192957Y0180818D01*
X0195426Y0180818D01*
X0195426Y0178349D02*
X0192957Y0178349D01*
X0191722Y0179584D01*
X0189191Y0176518D02*
X0188574Y0177135D01*
X0187340Y0177135D01*
X0186722Y0176518D01*
X0186722Y0175283D01*
X0187340Y0174666D01*
X0187340Y0173442D02*
X0186722Y0173442D01*
X0186722Y0172825D01*
X0187340Y0172825D01*
X0187340Y0173442D01*
X0188574Y0174666D02*
X0189191Y0175901D01*
X0189191Y0176518D01*
X0188574Y0174666D02*
X0190426Y0174666D01*
X0189808Y0171610D02*
X0189191Y0171610D01*
X0188574Y0170993D01*
X0187957Y0171610D01*
X0187340Y0171610D01*
X0186722Y0170993D01*
X0186722Y0169759D01*
X0187340Y0169141D01*
X0188574Y0167927D02*
X0188574Y0165458D01*
X0189808Y0166693D02*
X0187340Y0166693D01*
X0185426Y0167310D02*
X0185426Y0166075D01*
X0184808Y0165458D01*
X0182340Y0165458D01*
X0181722Y0166075D01*
X0181722Y0167310D01*
X0182340Y0167927D01*
X0183574Y0167927D01*
X0183574Y0166693D01*
X0184808Y0167927D02*
X0185426Y0167310D01*
X0185426Y0169141D02*
X0181722Y0169141D01*
X0180426Y0169759D02*
X0176722Y0169759D01*
X0176722Y0170993D02*
X0180426Y0170993D01*
X0179191Y0170993D02*
X0179191Y0171610D01*
X0179191Y0170993D02*
X0179191Y0169141D01*
X0177957Y0169141D02*
X0177957Y0171610D01*
X0179191Y0172825D02*
X0180426Y0174059D01*
X0176722Y0174059D01*
X0176722Y0172825D02*
X0176722Y0175293D01*
X0176722Y0176508D02*
X0177340Y0176508D01*
X0179808Y0178976D01*
X0180426Y0178976D01*
X0180426Y0176508D01*
X0181722Y0174676D02*
X0182340Y0175293D01*
X0184808Y0175293D01*
X0185426Y0174676D01*
X0185426Y0172825D01*
X0181722Y0172825D01*
X0181722Y0174676D01*
X0181722Y0171610D02*
X0185426Y0171610D01*
X0185426Y0169141D02*
X0181722Y0171610D01*
X0179808Y0167927D02*
X0180426Y0167310D01*
X0180426Y0166075D01*
X0179808Y0165458D01*
X0177340Y0165458D01*
X0176722Y0166075D01*
X0176722Y0167310D01*
X0177340Y0167927D01*
X0178574Y0167927D01*
X0178574Y0166693D01*
X0175426Y0167310D02*
X0175426Y0166075D01*
X0174808Y0165458D01*
X0172340Y0165458D01*
X0171722Y0166075D01*
X0171722Y0167310D01*
X0172340Y0167927D01*
X0173574Y0167927D01*
X0173574Y0166693D01*
X0174808Y0167927D02*
X0175426Y0167310D01*
X0174191Y0169141D02*
X0174191Y0170993D01*
X0174191Y0171610D01*
X0172957Y0171610D02*
X0172957Y0169141D01*
X0171722Y0169759D02*
X0175426Y0169759D01*
X0175426Y0170993D02*
X0171722Y0170993D01*
X0170426Y0170993D02*
X0166722Y0170993D01*
X0166722Y0169759D02*
X0170426Y0169759D01*
X0169191Y0169141D02*
X0169191Y0170993D01*
X0169191Y0171610D01*
X0167957Y0171610D02*
X0167957Y0169141D01*
X0167340Y0167927D02*
X0168574Y0167927D01*
X0168574Y0166693D01*
X0167340Y0167927D02*
X0166722Y0167310D01*
X0166722Y0166075D01*
X0167340Y0165458D01*
X0169808Y0165458D01*
X0170426Y0166075D01*
X0170426Y0167310D01*
X0169808Y0167927D01*
X0165426Y0167310D02*
X0165426Y0166075D01*
X0164808Y0165458D01*
X0162340Y0165458D01*
X0161722Y0166075D01*
X0161722Y0167310D01*
X0162340Y0167927D01*
X0163574Y0167927D01*
X0163574Y0166693D01*
X0164808Y0167927D02*
X0165426Y0167310D01*
X0164191Y0169141D02*
X0164191Y0170993D01*
X0164191Y0171610D01*
X0164191Y0172825D02*
X0165426Y0174059D01*
X0161722Y0174059D01*
X0161722Y0172825D02*
X0161722Y0175293D01*
X0162340Y0176508D02*
X0161722Y0177125D01*
X0161722Y0178359D01*
X0162340Y0178976D01*
X0164808Y0178976D01*
X0165426Y0178359D01*
X0165426Y0177125D01*
X0164808Y0176508D01*
X0164191Y0176508D01*
X0163574Y0177125D01*
X0163574Y0178976D01*
X0161722Y0180191D02*
X0165426Y0182660D01*
X0166722Y0184491D02*
X0167340Y0183874D01*
X0166722Y0184491D02*
X0166722Y0185108D01*
X0167340Y0185726D01*
X0170426Y0185726D01*
X0170426Y0186343D02*
X0170426Y0185108D01*
X0171722Y0185108D02*
X0172340Y0185726D01*
X0175426Y0185726D01*
X0175426Y0186343D02*
X0175426Y0185108D01*
X0176722Y0185108D02*
X0177340Y0185726D01*
X0180426Y0185726D01*
X0180426Y0186343D02*
X0180426Y0185108D01*
X0180426Y0182660D02*
X0176722Y0180191D01*
X0175426Y0177742D02*
X0171722Y0177742D01*
X0171722Y0176508D02*
X0171722Y0178976D01*
X0171722Y0180191D02*
X0175426Y0182660D01*
X0176722Y0184491D02*
X0177340Y0183874D01*
X0176722Y0184491D02*
X0176722Y0185108D01*
X0175426Y0187557D02*
X0175426Y0190026D01*
X0175426Y0188792D02*
X0171722Y0188792D01*
X0170426Y0188792D02*
X0166722Y0188792D01*
X0165426Y0188792D02*
X0161722Y0188792D01*
X0161722Y0191240D02*
X0164191Y0191240D01*
X0165426Y0192475D01*
X0164191Y0193709D01*
X0161722Y0193709D01*
X0162340Y0194923D02*
X0161722Y0195541D01*
X0161722Y0196775D01*
X0162340Y0197392D01*
X0163574Y0197392D01*
X0163574Y0196158D01*
X0164808Y0197392D02*
X0165426Y0196775D01*
X0165426Y0195541D01*
X0164808Y0194923D01*
X0162340Y0194923D01*
X0163574Y0193709D02*
X0163574Y0191240D01*
X0165426Y0190026D02*
X0165426Y0187557D01*
X0165426Y0186343D02*
X0165426Y0185108D01*
X0165426Y0185726D02*
X0162340Y0185726D01*
X0161722Y0185108D01*
X0161722Y0184491D01*
X0162340Y0183874D01*
X0166722Y0180191D02*
X0170426Y0182660D01*
X0171722Y0184491D02*
X0171722Y0185108D01*
X0171722Y0184491D02*
X0172340Y0183874D01*
X0170426Y0187557D02*
X0170426Y0190026D01*
X0169191Y0191240D02*
X0166722Y0191240D01*
X0168574Y0191240D02*
X0168574Y0193709D01*
X0169191Y0193709D02*
X0166722Y0193709D01*
X0167340Y0194923D02*
X0166722Y0195541D01*
X0166722Y0196775D01*
X0167340Y0197392D01*
X0168574Y0197392D01*
X0168574Y0196158D01*
X0169808Y0197392D02*
X0170426Y0196775D01*
X0170426Y0195541D01*
X0169808Y0194923D01*
X0167340Y0194923D01*
X0169191Y0193709D02*
X0170426Y0192475D01*
X0169191Y0191240D01*
X0171722Y0191240D02*
X0174191Y0191240D01*
X0175426Y0192475D01*
X0174191Y0193709D01*
X0171722Y0193709D01*
X0172340Y0194923D02*
X0171722Y0195541D01*
X0171722Y0196775D01*
X0172340Y0197392D01*
X0173574Y0197392D01*
X0173574Y0196158D01*
X0174808Y0197392D02*
X0175426Y0196775D01*
X0175426Y0195541D01*
X0174808Y0194923D01*
X0172340Y0194923D01*
X0173574Y0193709D02*
X0173574Y0191240D01*
X0176722Y0191240D02*
X0179191Y0191240D01*
X0180426Y0192475D01*
X0179191Y0193709D01*
X0176722Y0193709D01*
X0177340Y0194923D02*
X0176722Y0195541D01*
X0176722Y0196775D01*
X0177340Y0197392D01*
X0178574Y0197392D01*
X0178574Y0196158D01*
X0179808Y0197392D02*
X0180426Y0196775D01*
X0180426Y0195541D01*
X0179808Y0194923D01*
X0177340Y0194923D01*
X0178574Y0193709D02*
X0178574Y0191240D01*
X0180426Y0190026D02*
X0180426Y0187557D01*
X0180426Y0188792D02*
X0176722Y0188792D01*
X0176105Y0198607D02*
X0176105Y0201075D01*
X0175426Y0202290D02*
X0175426Y0204758D01*
X0175426Y0205973D02*
X0175426Y0207824D01*
X0174808Y0208442D01*
X0173574Y0208442D01*
X0172957Y0207824D01*
X0172957Y0205973D01*
X0172957Y0207207D02*
X0171722Y0208442D01*
X0172340Y0209656D02*
X0171722Y0210273D01*
X0171722Y0211508D01*
X0172340Y0212125D01*
X0172957Y0212125D01*
X0173574Y0211508D01*
X0173574Y0210273D01*
X0174191Y0209656D01*
X0174808Y0209656D01*
X0175426Y0210273D01*
X0175426Y0211508D01*
X0174808Y0212125D01*
X0175426Y0213339D02*
X0175426Y0215808D01*
X0175426Y0214574D02*
X0171722Y0214574D01*
X0170426Y0215808D02*
X0167957Y0213339D01*
X0168574Y0213956D02*
X0166722Y0215808D01*
X0166722Y0213339D02*
X0170426Y0213339D01*
X0166722Y0212125D02*
X0166722Y0209656D01*
X0170426Y0209656D01*
X0169808Y0208442D02*
X0170426Y0207824D01*
X0170426Y0206590D01*
X0169808Y0205973D01*
X0167340Y0205973D01*
X0166722Y0206590D01*
X0166722Y0207824D01*
X0167340Y0208442D01*
X0165426Y0208442D02*
X0161722Y0208442D01*
X0162340Y0209656D02*
X0161722Y0210273D01*
X0161722Y0211508D01*
X0162340Y0212125D01*
X0162957Y0212125D01*
X0163574Y0211508D01*
X0163574Y0210273D01*
X0164191Y0209656D01*
X0164808Y0209656D01*
X0165426Y0210273D01*
X0165426Y0211508D01*
X0164808Y0212125D01*
X0165426Y0208442D02*
X0164191Y0207207D01*
X0165426Y0205973D01*
X0161722Y0205973D01*
X0161722Y0203524D02*
X0165426Y0203524D01*
X0165426Y0202290D02*
X0165426Y0204758D01*
X0166722Y0203524D02*
X0170426Y0203524D01*
X0170426Y0202290D02*
X0170426Y0204758D01*
X0171722Y0205973D02*
X0175426Y0205973D01*
X0176722Y0205973D02*
X0176722Y0207824D01*
X0177340Y0208442D01*
X0179808Y0208442D01*
X0180426Y0207824D01*
X0180426Y0205973D01*
X0176722Y0205973D01*
X0176722Y0203524D02*
X0180426Y0203524D01*
X0180426Y0202290D02*
X0180426Y0204758D01*
X0175426Y0203524D02*
X0171722Y0203524D01*
X0171105Y0201075D02*
X0171105Y0198607D01*
X0166105Y0198607D02*
X0166105Y0201075D01*
X0161105Y0201075D02*
X0161105Y0198607D01*
X0155426Y0196775D02*
X0155426Y0195541D01*
X0154808Y0194923D01*
X0152340Y0194923D01*
X0151722Y0195541D01*
X0151722Y0196775D01*
X0152340Y0197392D01*
X0153574Y0197392D01*
X0153574Y0196158D01*
X0154808Y0197392D02*
X0155426Y0196775D01*
X0154191Y0193709D02*
X0151722Y0193709D01*
X0153574Y0193709D02*
X0153574Y0191240D01*
X0154191Y0191240D02*
X0155426Y0192475D01*
X0154191Y0193709D01*
X0154191Y0191240D02*
X0151722Y0191240D01*
X0150426Y0190630D02*
X0149808Y0190013D01*
X0147340Y0190013D01*
X0146722Y0190630D01*
X0146722Y0191864D01*
X0147340Y0192481D01*
X0146105Y0193696D02*
X0146105Y0196164D01*
X0147340Y0197379D02*
X0146722Y0197996D01*
X0146722Y0199230D01*
X0147340Y0199848D01*
X0147957Y0199848D01*
X0148574Y0199230D01*
X0148574Y0197996D01*
X0149191Y0197379D01*
X0149808Y0197379D01*
X0150426Y0197996D01*
X0150426Y0199230D01*
X0149808Y0199848D01*
X0149808Y0201062D02*
X0147340Y0201062D01*
X0146722Y0201679D01*
X0146722Y0202914D01*
X0147340Y0203531D01*
X0146722Y0204745D02*
X0146722Y0207214D01*
X0146722Y0208428D02*
X0150426Y0208428D01*
X0151722Y0207824D02*
X0152340Y0208442D01*
X0154808Y0208442D01*
X0155426Y0207824D01*
X0155426Y0205973D01*
X0151722Y0205973D01*
X0151722Y0207824D01*
X0151722Y0209656D02*
X0151722Y0210890D01*
X0151722Y0210273D02*
X0155426Y0210273D01*
X0155426Y0209656D02*
X0155426Y0210890D01*
X0150426Y0210897D02*
X0147957Y0208428D01*
X0148574Y0209045D02*
X0146722Y0210897D01*
X0146722Y0204745D02*
X0150426Y0204745D01*
X0149808Y0203531D02*
X0150426Y0202914D01*
X0150426Y0201679D01*
X0149808Y0201062D01*
X0151105Y0201075D02*
X0151105Y0198607D01*
X0145426Y0197996D02*
X0144808Y0197379D01*
X0144191Y0197379D01*
X0143574Y0197996D01*
X0143574Y0199230D01*
X0142957Y0199848D01*
X0142340Y0199848D01*
X0141722Y0199230D01*
X0141722Y0197996D01*
X0142340Y0197379D01*
X0141105Y0196164D02*
X0141105Y0193696D01*
X0142340Y0192481D02*
X0141722Y0191864D01*
X0141722Y0190630D01*
X0142340Y0190013D01*
X0144808Y0190013D01*
X0145426Y0190630D01*
X0145426Y0191864D01*
X0144808Y0192481D01*
X0144808Y0188798D02*
X0144191Y0188798D01*
X0141722Y0186329D01*
X0141722Y0188798D01*
X0144808Y0188798D02*
X0145426Y0188181D01*
X0145426Y0186947D01*
X0144808Y0186329D01*
X0145426Y0185108D02*
X0145426Y0183874D01*
X0145426Y0184491D02*
X0141722Y0184491D01*
X0141722Y0183874D02*
X0141722Y0185108D01*
X0140426Y0182660D02*
X0140426Y0180191D01*
X0140426Y0178976D02*
X0140426Y0176508D01*
X0136722Y0176508D01*
X0136722Y0178976D01*
X0138574Y0177742D02*
X0138574Y0176508D01*
X0137957Y0175293D02*
X0137340Y0175293D01*
X0136722Y0174676D01*
X0136722Y0173442D01*
X0137340Y0172825D01*
X0136722Y0171610D02*
X0136722Y0169141D01*
X0140426Y0169141D01*
X0140426Y0171610D01*
X0139808Y0172825D02*
X0139191Y0172825D01*
X0138574Y0173442D01*
X0138574Y0174676D01*
X0137957Y0175293D01*
X0139808Y0175293D02*
X0140426Y0174676D01*
X0140426Y0173442D01*
X0139808Y0172825D01*
X0141722Y0173442D02*
X0142340Y0172825D01*
X0144808Y0175293D01*
X0142340Y0175293D01*
X0141722Y0174676D01*
X0141722Y0173442D01*
X0142340Y0172825D02*
X0144808Y0172825D01*
X0145426Y0173442D01*
X0145426Y0174676D01*
X0144808Y0175293D01*
X0144808Y0176508D02*
X0145426Y0177125D01*
X0145426Y0178359D01*
X0144808Y0178976D01*
X0144191Y0178976D01*
X0141722Y0176508D01*
X0141722Y0178976D01*
X0141722Y0180191D02*
X0145426Y0182660D01*
X0146722Y0183874D02*
X0146722Y0185108D01*
X0146722Y0184491D02*
X0150426Y0184491D01*
X0150426Y0183874D02*
X0150426Y0185108D01*
X0151722Y0185108D02*
X0152340Y0185726D01*
X0155426Y0185726D01*
X0155426Y0186343D02*
X0155426Y0185108D01*
X0155426Y0182660D02*
X0151722Y0180191D01*
X0152340Y0178976D02*
X0151722Y0178359D01*
X0151722Y0177125D01*
X0152340Y0176508D01*
X0152957Y0176508D01*
X0153574Y0177125D01*
X0153574Y0178359D01*
X0152957Y0178976D01*
X0152340Y0178976D01*
X0153574Y0178359D02*
X0154191Y0178976D01*
X0154808Y0178976D01*
X0155426Y0178359D01*
X0155426Y0177125D01*
X0154808Y0176508D01*
X0154191Y0176508D01*
X0153574Y0177125D01*
X0151722Y0175293D02*
X0151722Y0172825D01*
X0151722Y0174059D02*
X0155426Y0174059D01*
X0154191Y0172825D01*
X0154191Y0171610D02*
X0154191Y0170993D01*
X0154191Y0169141D01*
X0152957Y0169141D02*
X0152957Y0171610D01*
X0151722Y0170993D02*
X0155426Y0170993D01*
X0155426Y0169759D02*
X0151722Y0169759D01*
X0150426Y0169759D02*
X0146722Y0169759D01*
X0146722Y0170993D02*
X0150426Y0170993D01*
X0149191Y0170993D02*
X0149191Y0171610D01*
X0149191Y0170993D02*
X0149191Y0169141D01*
X0147957Y0169141D02*
X0147957Y0171610D01*
X0147340Y0172825D02*
X0149808Y0172825D01*
X0150426Y0173442D01*
X0150426Y0174676D01*
X0149808Y0175293D01*
X0147340Y0172825D01*
X0146722Y0173442D01*
X0146722Y0174676D01*
X0147340Y0175293D01*
X0149808Y0175293D01*
X0149191Y0176508D02*
X0150426Y0177742D01*
X0146722Y0177742D01*
X0146722Y0176508D02*
X0146722Y0178976D01*
X0146722Y0180191D02*
X0150426Y0182660D01*
X0151722Y0184491D02*
X0151722Y0185108D01*
X0151722Y0184491D02*
X0152340Y0183874D01*
X0149808Y0186329D02*
X0150426Y0186947D01*
X0150426Y0188181D01*
X0149808Y0188798D01*
X0149191Y0188798D01*
X0146722Y0186329D01*
X0146722Y0188798D01*
X0150426Y0190630D02*
X0150426Y0191864D01*
X0149808Y0192481D01*
X0151722Y0188792D02*
X0155426Y0188792D01*
X0155426Y0190026D02*
X0155426Y0187557D01*
X0157340Y0178976D02*
X0156722Y0178359D01*
X0156722Y0177125D01*
X0157340Y0176508D01*
X0159808Y0178976D01*
X0157340Y0178976D01*
X0157340Y0176508D02*
X0159808Y0176508D01*
X0160426Y0177125D01*
X0160426Y0178359D01*
X0159808Y0178976D01*
X0159808Y0175293D02*
X0157340Y0175293D01*
X0156722Y0174676D01*
X0156722Y0173442D01*
X0157340Y0172825D01*
X0159808Y0175293D01*
X0160426Y0174676D01*
X0160426Y0173442D01*
X0159808Y0172825D01*
X0157340Y0172825D01*
X0157957Y0171610D02*
X0157957Y0169141D01*
X0159191Y0169141D02*
X0159191Y0170993D01*
X0159191Y0171610D01*
X0160426Y0170993D02*
X0156722Y0170993D01*
X0156722Y0169759D02*
X0160426Y0169759D01*
X0161722Y0169759D02*
X0165426Y0169759D01*
X0165426Y0170993D02*
X0161722Y0170993D01*
X0162957Y0171610D02*
X0162957Y0169141D01*
X0160426Y0167310D02*
X0160426Y0166075D01*
X0159808Y0165458D01*
X0157340Y0165458D01*
X0156722Y0166075D01*
X0156722Y0167310D01*
X0157340Y0167927D01*
X0158574Y0167927D01*
X0158574Y0166693D01*
X0159808Y0167927D02*
X0160426Y0167310D01*
X0155426Y0167310D02*
X0155426Y0166075D01*
X0154808Y0165458D01*
X0152340Y0165458D01*
X0151722Y0166075D01*
X0151722Y0167310D01*
X0152340Y0167927D01*
X0153574Y0167927D01*
X0153574Y0166693D01*
X0154808Y0167927D02*
X0155426Y0167310D01*
X0150426Y0167310D02*
X0150426Y0166075D01*
X0149808Y0165458D01*
X0147340Y0165458D01*
X0146722Y0166075D01*
X0146722Y0167310D01*
X0147340Y0167927D01*
X0148574Y0167927D01*
X0148574Y0166693D01*
X0149808Y0167927D02*
X0150426Y0167310D01*
X0145426Y0167310D02*
X0145426Y0166075D01*
X0144808Y0165458D01*
X0142340Y0165458D01*
X0141722Y0166075D01*
X0141722Y0167310D01*
X0142340Y0167927D01*
X0143574Y0167927D01*
X0143574Y0166693D01*
X0144808Y0167927D02*
X0145426Y0167310D01*
X0144191Y0169141D02*
X0144191Y0170993D01*
X0144191Y0171610D01*
X0142957Y0171610D02*
X0142957Y0169141D01*
X0141722Y0169759D02*
X0145426Y0169759D01*
X0145426Y0170993D02*
X0141722Y0170993D01*
X0138574Y0170376D02*
X0138574Y0169141D01*
X0138574Y0167927D02*
X0137957Y0167310D01*
X0137957Y0165458D01*
X0136722Y0165458D02*
X0140426Y0165458D01*
X0140426Y0167310D01*
X0139808Y0167927D01*
X0138574Y0167927D01*
X0137957Y0166693D02*
X0136722Y0167927D01*
X0135426Y0167310D02*
X0135426Y0166075D01*
X0134808Y0165458D01*
X0132340Y0165458D01*
X0131722Y0166075D01*
X0131722Y0167310D01*
X0132340Y0167927D01*
X0133574Y0167927D01*
X0133574Y0166693D01*
X0134808Y0167927D02*
X0135426Y0167310D01*
X0135426Y0169141D02*
X0131722Y0169141D01*
X0131722Y0171610D02*
X0135426Y0171610D01*
X0135426Y0172825D02*
X0135426Y0174676D01*
X0134808Y0175293D01*
X0132340Y0175293D01*
X0131722Y0174676D01*
X0131722Y0172825D01*
X0135426Y0172825D01*
X0135426Y0169141D02*
X0131722Y0171610D01*
X0136722Y0181425D02*
X0140426Y0181425D01*
X0145426Y0197996D02*
X0145426Y0199230D01*
X0144808Y0199848D01*
X0145426Y0201062D02*
X0145426Y0202914D01*
X0144808Y0203531D01*
X0142340Y0203531D01*
X0141722Y0202914D01*
X0141722Y0201062D01*
X0145426Y0201062D01*
X0151722Y0203524D02*
X0155426Y0203524D01*
X0155426Y0202290D02*
X0155426Y0204758D01*
X0176722Y0210273D02*
X0176722Y0211508D01*
X0177340Y0212125D01*
X0179808Y0212125D01*
X0180426Y0211508D01*
X0180426Y0210273D01*
X0179808Y0209656D01*
X0177340Y0209656D01*
X0176722Y0210273D01*
X0186722Y0207207D02*
X0187957Y0208442D01*
X0190426Y0208442D01*
X0191722Y0207207D02*
X0192957Y0208442D01*
X0195426Y0208442D01*
X0192957Y0205973D02*
X0191722Y0207207D01*
X0192957Y0205973D02*
X0195426Y0205973D01*
X0194808Y0204758D02*
X0192340Y0202290D01*
X0191722Y0202907D01*
X0191722Y0204141D01*
X0192340Y0204758D01*
X0194808Y0204758D01*
X0195426Y0204141D01*
X0195426Y0202907D01*
X0194808Y0202290D01*
X0192340Y0202290D01*
X0192340Y0201065D02*
X0191722Y0201065D01*
X0191722Y0200448D01*
X0192340Y0200448D01*
X0192340Y0201065D01*
X0192340Y0199234D02*
X0192957Y0199234D01*
X0193574Y0198617D01*
X0193574Y0196765D01*
X0192340Y0196765D01*
X0191722Y0197382D01*
X0191722Y0198617D01*
X0192340Y0199234D01*
X0190426Y0199234D02*
X0189808Y0197999D01*
X0188574Y0196765D01*
X0188574Y0198617D01*
X0187957Y0199234D01*
X0187340Y0199234D01*
X0186722Y0198617D01*
X0186722Y0197382D01*
X0187340Y0196765D01*
X0188574Y0196765D01*
X0188574Y0195551D02*
X0188574Y0193082D01*
X0189808Y0194316D02*
X0187340Y0194316D01*
X0192340Y0194316D02*
X0194808Y0194316D01*
X0193574Y0193082D02*
X0193574Y0195551D01*
X0193574Y0196765D02*
X0194808Y0197999D01*
X0195426Y0199234D01*
X0190426Y0202907D02*
X0190426Y0204141D01*
X0189808Y0204758D01*
X0187340Y0202290D01*
X0186722Y0202907D01*
X0186722Y0204141D01*
X0187340Y0204758D01*
X0189808Y0204758D01*
X0190426Y0205973D02*
X0187957Y0205973D01*
X0186722Y0207207D01*
X0187340Y0202290D02*
X0189808Y0202290D01*
X0190426Y0202907D01*
X0187340Y0201065D02*
X0186722Y0201065D01*
X0186722Y0200448D01*
X0187340Y0200448D01*
X0187340Y0201065D01*
X0190426Y0188184D02*
X0189808Y0187567D01*
X0191043Y0186333D01*
X0190426Y0185716D01*
X0194808Y0187567D02*
X0195426Y0188184D01*
X0194808Y0187567D02*
X0196043Y0186333D01*
X0195426Y0185716D01*
X0195426Y0177135D02*
X0195426Y0174666D01*
X0190426Y0170993D02*
X0190426Y0169759D01*
X0189808Y0169141D01*
X0188574Y0170376D02*
X0188574Y0170993D01*
X0189808Y0171610D02*
X0190426Y0170993D01*
X0175426Y0173442D02*
X0174808Y0172825D01*
X0175426Y0173442D02*
X0175426Y0174676D01*
X0174808Y0175293D01*
X0174191Y0175293D01*
X0171722Y0172825D01*
X0171722Y0175293D01*
X0170426Y0174676D02*
X0170426Y0173442D01*
X0169808Y0172825D01*
X0170426Y0174676D02*
X0169808Y0175293D01*
X0169191Y0175293D01*
X0166722Y0172825D01*
X0166722Y0175293D01*
X0167340Y0176508D02*
X0169808Y0178976D01*
X0167340Y0178976D01*
X0166722Y0178359D01*
X0166722Y0177125D01*
X0167340Y0176508D01*
X0169808Y0176508D01*
X0170426Y0177125D01*
X0170426Y0178359D01*
X0169808Y0178976D01*
X0174191Y0176508D02*
X0175426Y0177742D01*
M02*
