0, 0, Header, 1, 19, 240
1, 0, Start_track
1, 0, Sequencer_specific, 10, 0, 0, 91, 35, 1, 0, 5, 6, 42, 0
1, 0, Title_t, "Ludwig van Beethoven - Symphony No. 9 in D minor, Op.125"
1, 0, Instrument_name_t, "Conductor Track"
1, 0, SMPTE_offset, 96, 0, 3, 0, 0
1, 0, MIDI_port, 0
1, 0, Key_signature, -1, "minor"
1, 0, Tempo, 681818
1, 0, Time_signature, 2, 2, 24, 8
1, 37920, Key_signature, -2, "minor"
1, 78240, Key_signature, -1, "minor"
1, 93420, Tempo, 909090
1, 93600, Tempo, 681818
1, 102060, Tempo, 909090
1, 102240, Tempo, 681818
1, 242700, Tempo, 909090
1, 242880, Tempo, 681818
1, 244620, Tempo, 909090
1, 244800, Tempo, 681818
1, 261600, Tempo, 681818
1, 261625, Tempo, 689655
1, 261651, Tempo, 697674
1, 261676, Tempo, 705882
1, 261701, Tempo, 714285
1, 261726, Tempo, 722891
1, 261752, Tempo, 731707
1, 261777, Tempo, 740740
1, 261802, Tempo, 750000
1, 261827, Tempo, 759493
1, 261853, Tempo, 769230
1, 261878, Tempo, 779220
1, 261903, Tempo, 789473
1, 261928, Tempo, 800000
1, 261954, Tempo, 810810
1, 261979, Tempo, 821917
1, 262004, Tempo, 833333
1, 262029, Tempo, 845070
1, 262055, Tempo, 857142
1, 262080, Tempo, 869565
1, 262200, Tempo, 2000000
1, 262920, Tempo, 344827
1, 262920, End_track
2, 0, Start_track
2, 0, Title_t, "1st Movement - Allegro ma non troppo, un poco maestoso"
2, 0, MIDI_port, 0
2, 0, End_track
3, 0, Start_track
3, 0, Title_t, "Sequenced by D. L. Viens 13 Dec 2000"
3, 0, MIDI_port, 0
3, 0, End_track
4, 0, Start_track
4, 0, Title_t, "dlviens@empire.net"
4, 0, MIDI_port, 0
4, 0, End_track
5, 0, Start_track
5, 0, MIDI_port, 0
5, 0, End_track
6, 0, Start_track
6, 0, Title_t, "Flute"
6, 0, MIDI_port, 0
6, 0, Program_c, 0, 73
6, 0, Control_c, 0, 7, 96
6, 0, Control_c, 0, 10, 60
6, 4560, Control_c, 0, 11, 49
6, 4800, Note_on_c, 0, 81, 92
6, 4800, Control_c, 0, 11, 49
6, 4845, Control_c, 0, 11, 50
6, 4890, Control_c, 0, 11, 51
6, 4936, Control_c, 0, 11, 52
6, 4981, Control_c, 0, 11, 54
6, 5026, Control_c, 0, 11, 55
6, 5071, Control_c, 0, 11, 56
6, 5117, Control_c, 0, 11, 57
6, 5162, Control_c, 0, 11, 59
6, 5207, Control_c, 0, 11, 60
6, 5252, Control_c, 0, 11, 61
6, 5298, Control_c, 0, 11, 62
6, 5343, Control_c, 0, 11, 64
6, 5388, Control_c, 0, 11, 65
6, 5433, Control_c, 0, 11, 66
6, 5479, Control_c, 0, 11, 67
6, 5524, Control_c, 0, 11, 69
6, 5569, Control_c, 0, 11, 70
6, 5614, Control_c, 0, 11, 71
6, 5660, Control_c, 0, 11, 72
6, 5705, Control_c, 0, 11, 74
6, 5744, Note_on_c, 0, 81, 0
6, 5750, Control_c, 0, 11, 75
6, 5760, Note_on_c, 0, 88, 92
6, 5760, Note_on_c, 0, 81, 92
6, 5795, Control_c, 0, 11, 76
6, 5840, Control_c, 0, 11, 77
6, 5886, Control_c, 0, 11, 79
6, 5931, Control_c, 0, 11, 80
6, 5976, Control_c, 0, 11, 81
6, 6021, Control_c, 0, 11, 82
6, 6067, Control_c, 0, 11, 84
6, 6112, Control_c, 0, 11, 85
6, 6157, Control_c, 0, 11, 86
6, 6202, Control_c, 0, 11, 87
6, 6248, Control_c, 0, 11, 89
6, 6293, Control_c, 0, 11, 90
6, 6338, Control_c, 0, 11, 91
6, 6383, Control_c, 0, 11, 92
6, 6429, Control_c, 0, 11, 94
6, 6474, Control_c, 0, 11, 95
6, 6519, Control_c, 0, 11, 96
6, 6564, Control_c, 0, 11, 97
6, 6584, Note_on_c, 0, 88, 0
6, 6584, Note_on_c, 0, 81, 0
6, 6600, Note_on_c, 0, 93, 92
6, 6600, Note_on_c, 0, 81, 92
6, 6610, Control_c, 0, 11, 99
6, 6655, Control_c, 0, 11, 100
6, 6700, Control_c, 0, 11, 101
6, 6745, Control_c, 0, 11, 102
6, 6790, Control_c, 0, 11, 104
6, 6836, Control_c, 0, 11, 105
6, 6881, Control_c, 0, 11, 106
6, 6926, Control_c, 0, 11, 107
6, 6971, Control_c, 0, 11, 109
6, 7017, Control_c, 0, 11, 110
6, 7062, Control_c, 0, 11, 111
6, 7107, Control_c, 0, 11, 112
6, 7152, Control_c, 0, 11, 114
6, 7198, Control_c, 0, 11, 115
6, 7243, Control_c, 0, 11, 116
6, 7288, Control_c, 0, 11, 117
6, 7333, Control_c, 0, 11, 119
6, 7379, Control_c, 0, 11, 120
6, 7424, Control_c, 0, 11, 121
6, 7469, Control_c, 0, 11, 122
6, 7514, Control_c, 0, 11, 124
6, 7560, Control_c, 0, 11, 125
6, 7605, Control_c, 0, 11, 127
6, 7641, Note_on_c, 0, 93, 0
6, 7641, Note_on_c, 0, 81, 0
6, 7650, Note_on_c, 0, 74, 92
6, 7650, Note_on_c, 0, 86, 92
6, 7671, Note_on_c, 0, 74, 0
6, 7671, Note_on_c, 0, 86, 0
6, 7680, Note_on_c, 0, 81, 92
6, 7680, Note_on_c, 0, 93, 92
6, 8121, Note_on_c, 0, 81, 0
6, 8121, Note_on_c, 0, 93, 0
6, 8130, Note_on_c, 0, 77, 92
6, 8130, Note_on_c, 0, 89, 92
6, 8151, Note_on_c, 0, 77, 0
6, 8151, Note_on_c, 0, 89, 0
6, 8160, Note_on_c, 0, 86, 92
6, 8160, Note_on_c, 0, 74, 92
6, 8361, Note_on_c, 0, 86, 0
6, 8361, Note_on_c, 0, 74, 0
6, 8370, Note_on_c, 0, 81, 92
6, 8391, Note_on_c, 0, 81, 0
6, 8400, Note_on_c, 0, 77, 92
6, 8579, Note_on_c, 0, 77, 0
6, 8580, Note_on_c, 0, 81, 92
6, 8609, Note_on_c, 0, 81, 0
6, 8610, Note_on_c, 0, 77, 92
6, 8631, Note_on_c, 0, 77, 0
6, 8640, Note_on_c, 0, 74, 92
6, 8924, Note_on_c, 0, 74, 0
6, 8940, Note_on_c, 0, 89, 92
6, 8984, Note_on_c, 0, 89, 0
6, 9000, Note_on_c, 0, 88, 92
6, 9044, Note_on_c, 0, 88, 0
6, 9060, Note_on_c, 0, 86, 92
6, 9104, Note_on_c, 0, 86, 0
6, 9120, Note_on_c, 0, 93, 92
6, 9209, Note_on_c, 0, 93, 0
6, 9240, Note_on_c, 0, 91, 92
6, 9329, Note_on_c, 0, 91, 0
6, 9360, Note_on_c, 0, 88, 92
6, 9449, Note_on_c, 0, 88, 0
6, 9480, Note_on_c, 0, 93, 92
6, 9569, Note_on_c, 0, 93, 0
6, 9600, Note_on_c, 0, 86, 104
6, 9779, Note_on_c, 0, 86, 0
6, 9840, Note_on_c, 0, 85, 92
6, 9840, Note_on_c, 0, 88, 92
6, 10019, Note_on_c, 0, 85, 0
6, 10019, Note_on_c, 0, 88, 0
6, 10080, Note_on_c, 0, 89, 92
6, 10080, Note_on_c, 0, 86, 92
6, 10259, Note_on_c, 0, 89, 0
6, 10259, Note_on_c, 0, 86, 0
6, 10560, Note_on_c, 0, 91, 92
6, 10560, Note_on_c, 0, 82, 92
6, 10739, Note_on_c, 0, 91, 0
6, 10739, Note_on_c, 0, 82, 0
6, 10800, Note_on_c, 0, 90, 92
6, 10800, Note_on_c, 0, 93, 92
6, 10979, Note_on_c, 0, 90, 0
6, 10979, Note_on_c, 0, 93, 0
6, 11040, Note_on_c, 0, 79, 92
6, 11040, Note_on_c, 0, 82, 92
6, 11264, Note_on_c, 0, 79, 0
6, 11264, Note_on_c, 0, 82, 0
6, 11280, Note_on_c, 0, 91, 92
6, 11280, Note_on_c, 0, 82, 92
6, 12104, Note_on_c, 0, 91, 0
6, 12104, Note_on_c, 0, 82, 0
6, 12120, Note_on_c, 0, 82, 92
6, 12120, Note_on_c, 0, 89, 92
6, 12224, Note_on_c, 0, 82, 0
6, 12224, Note_on_c, 0, 89, 0
6, 12240, Note_on_c, 0, 87, 92
6, 12240, Note_on_c, 0, 82, 92
6, 12344, Note_on_c, 0, 87, 0
6, 12344, Note_on_c, 0, 82, 0
6, 12360, Note_on_c, 0, 82, 92
6, 12360, Note_on_c, 0, 86, 92
6, 12449, Note_on_c, 0, 82, 0
6, 12449, Note_on_c, 0, 86, 0
6, 12480, Note_on_c, 0, 82, 104
6, 12480, Note_on_c, 0, 85, 104
6, 12599, Note_on_c, 0, 82, 0
6, 12599, Note_on_c, 0, 85, 0
6, 12960, Note_on_c, 0, 91, 44
6, 12960, Note_on_c, 0, 88, 44
6, 13199, Note_on_c, 0, 91, 0
6, 13199, Note_on_c, 0, 88, 0
6, 13200, Note_on_c, 0, 88, 44
6, 13200, Note_on_c, 0, 85, 44
6, 13409, Note_on_c, 0, 88, 0
6, 13409, Note_on_c, 0, 85, 0
6, 13410, Note_on_c, 0, 89, 44
6, 13410, Note_on_c, 0, 86, 44
6, 13431, Note_on_c, 0, 89, 0
6, 13431, Note_on_c, 0, 86, 0
6, 13440, Note_on_c, 0, 86, 44
6, 13440, Note_on_c, 0, 89, 44
6, 13559, Note_on_c, 0, 86, 0
6, 13559, Note_on_c, 0, 89, 0
6, 13920, Note_on_c, 0, 93, 44
6, 13920, Note_on_c, 0, 89, 44
6, 14159, Note_on_c, 0, 93, 0
6, 14159, Note_on_c, 0, 89, 0
6, 14160, Note_on_c, 0, 86, 44
6, 14160, Note_on_c, 0, 89, 44
6, 14369, Note_on_c, 0, 86, 0
6, 14369, Note_on_c, 0, 89, 0
6, 14370, Note_on_c, 0, 91, 44
6, 14370, Note_on_c, 0, 88, 44
6, 14391, Note_on_c, 0, 91, 0
6, 14391, Note_on_c, 0, 88, 0
6, 14400, Note_on_c, 0, 88, 80
6, 14400, Note_on_c, 0, 91, 80
6, 14519, Note_on_c, 0, 88, 0
6, 14519, Note_on_c, 0, 91, 0
6, 14640, Note_on_c, 0, 88, 92
6, 14640, Note_on_c, 0, 85, 92
6, 14700, Control_c, 0, 11, 109
6, 15104, Note_on_c, 0, 88, 0
6, 15104, Note_on_c, 0, 85, 0
6, 15118, Control_c, 0, 11, 127
6, 15120, Note_on_c, 0, 89, 92
6, 15120, Note_on_c, 0, 86, 92
6, 15180, Control_c, 0, 11, 109
6, 15584, Note_on_c, 0, 89, 0
6, 15584, Note_on_c, 0, 86, 0
6, 15598, Control_c, 0, 11, 127
6, 15600, Note_on_c, 0, 86, 92
6, 15600, Note_on_c, 0, 89, 92
6, 15719, Note_on_c, 0, 86, 0
6, 15719, Note_on_c, 0, 89, 0
6, 15840, Note_on_c, 0, 93, 80
6, 15840, Note_on_c, 0, 81, 80
6, 16320, Control_c, 0, 11, 127
6, 16333, Control_c, 0, 11, 124
6, 16347, Control_c, 0, 11, 121
6, 16360, Control_c, 0, 11, 117
6, 16373, Control_c, 0, 11, 115
6, 16387, Control_c, 0, 11, 111
6, 16400, Control_c, 0, 11, 107
6, 16413, Control_c, 0, 11, 105
6, 16427, Control_c, 0, 11, 101
6, 16440, Control_c, 0, 11, 99
6, 16453, Control_c, 0, 11, 95
6, 16467, Control_c, 0, 11, 91
6, 16480, Control_c, 0, 11, 89
6, 16493, Control_c, 0, 11, 85
6, 16507, Control_c, 0, 11, 81
6, 16520, Control_c, 0, 11, 79
6, 16533, Control_c, 0, 11, 75
6, 16544, Note_on_c, 0, 93, 0
6, 16544, Note_on_c, 0, 81, 0
6, 16547, Control_c, 0, 11, 69
6, 16560, Note_on_c, 0, 62, 80
6, 16679, Note_on_c, 0, 62, 0
6, 20880, Control_c, 0, 11, 29
6, 21120, Note_on_c, 0, 81, 92
6, 22080, Note_on_c, 0, 86, 92
6, 22080, Control_c, 0, 11, 29
6, 22104, Control_c, 0, 11, 30
6, 22129, Control_c, 0, 11, 31
6, 22153, Control_c, 0, 11, 32
6, 22177, Control_c, 0, 11, 34
6, 22202, Control_c, 0, 11, 35
6, 22226, Control_c, 0, 11, 36
6, 22250, Control_c, 0, 11, 37
6, 22274, Control_c, 0, 11, 39
6, 22299, Control_c, 0, 11, 40
6, 22323, Control_c, 0, 11, 41
6, 22347, Control_c, 0, 11, 42
6, 22372, Control_c, 0, 11, 44
6, 22396, Control_c, 0, 11, 45
6, 22420, Control_c, 0, 11, 46
6, 22445, Control_c, 0, 11, 47
6, 22469, Control_c, 0, 11, 49
6, 22493, Control_c, 0, 11, 50
6, 22517, Control_c, 0, 11, 51
6, 22542, Control_c, 0, 11, 52
6, 22566, Control_c, 0, 11, 54
6, 22590, Control_c, 0, 11, 55
6, 22615, Control_c, 0, 11, 56
6, 22639, Control_c, 0, 11, 57
6, 22663, Control_c, 0, 11, 59
6, 22688, Control_c, 0, 11, 60
6, 22712, Control_c, 0, 11, 61
6, 22736, Control_c, 0, 11, 62
6, 22761, Control_c, 0, 11, 64
6, 22785, Control_c, 0, 11, 65
6, 22809, Control_c, 0, 11, 66
6, 22833, Control_c, 0, 11, 67
6, 22858, Control_c, 0, 11, 69
6, 22882, Control_c, 0, 11, 70
6, 22904, Note_on_c, 0, 81, 0
6, 22906, Control_c, 0, 11, 71
6, 22919, Note_on_c, 0, 86, 0
6, 22920, Note_on_c, 0, 86, 92
6, 22931, Control_c, 0, 11, 72
6, 22955, Control_c, 0, 11, 74
6, 22979, Control_c, 0, 11, 75
6, 23004, Control_c, 0, 11, 76
6, 23028, Control_c, 0, 11, 77
6, 23052, Control_c, 0, 11, 79
6, 23076, Control_c, 0, 11, 80
6, 23101, Control_c, 0, 11, 81
6, 23125, Control_c, 0, 11, 82
6, 23149, Control_c, 0, 11, 84
6, 23174, Control_c, 0, 11, 85
6, 23198, Control_c, 0, 11, 86
6, 23222, Control_c, 0, 11, 87
6, 23247, Control_c, 0, 11, 89
6, 23271, Control_c, 0, 11, 90
6, 23280, Note_on_c, 0, 89, 92
6, 23295, Control_c, 0, 11, 91
6, 23319, Control_c, 0, 11, 92
6, 23344, Control_c, 0, 11, 94
6, 23368, Control_c, 0, 11, 95
6, 23392, Control_c, 0, 11, 96
6, 23417, Control_c, 0, 11, 97
6, 23441, Control_c, 0, 11, 99
6, 23465, Control_c, 0, 11, 100
6, 23490, Control_c, 0, 11, 101
6, 23514, Control_c, 0, 11, 102
6, 23538, Control_c, 0, 11, 104
6, 23563, Control_c, 0, 11, 105
6, 23587, Control_c, 0, 11, 106
6, 23611, Control_c, 0, 11, 107
6, 23635, Control_c, 0, 11, 109
6, 23660, Control_c, 0, 11, 110
6, 23684, Control_c, 0, 11, 111
6, 23708, Control_c, 0, 11, 112
6, 23733, Control_c, 0, 11, 114
6, 23757, Control_c, 0, 11, 115
6, 23781, Control_c, 0, 11, 116
6, 23806, Control_c, 0, 11, 117
6, 23830, Control_c, 0, 11, 119
6, 23854, Control_c, 0, 11, 120
6, 23878, Control_c, 0, 11, 121
6, 23903, Control_c, 0, 11, 122
6, 23927, Control_c, 0, 11, 124
6, 23951, Control_c, 0, 11, 127
6, 23961, Note_on_c, 0, 86, 0
6, 23961, Note_on_c, 0, 89, 0
6, 23970, Note_on_c, 0, 82, 92
6, 23991, Note_on_c, 0, 82, 0
6, 24000, Note_on_c, 0, 77, 92
6, 24000, Note_on_c, 0, 89, 92
6, 24441, Note_on_c, 0, 77, 0
6, 24441, Note_on_c, 0, 89, 0
6, 24450, Note_on_c, 0, 86, 92
6, 24450, Note_on_c, 0, 74, 92
6, 24471, Note_on_c, 0, 86, 0
6, 24471, Note_on_c, 0, 74, 0
6, 24480, Note_on_c, 0, 70, 92
6, 24480, Note_on_c, 0, 82, 92
6, 24681, Note_on_c, 0, 70, 0
6, 24681, Note_on_c, 0, 82, 0
6, 24690, Note_on_c, 0, 77, 92
6, 24690, Note_on_c, 0, 65, 92
6, 24711, Note_on_c, 0, 77, 0
6, 24711, Note_on_c, 0, 65, 0
6, 24720, Note_on_c, 0, 74, 92
6, 24891, Note_on_c, 0, 74, 0
6, 24900, Note_on_c, 0, 77, 92
6, 24929, Note_on_c, 0, 77, 0
6, 24930, Note_on_c, 0, 74, 92
6, 24951, Note_on_c, 0, 74, 0
6, 24960, Note_on_c, 0, 70, 92
6, 25244, Note_on_c, 0, 70, 0
6, 25260, Note_on_c, 0, 86, 92
6, 25304, Note_on_c, 0, 86, 0
6, 25320, Note_on_c, 0, 84, 92
6, 25364, Note_on_c, 0, 84, 0
6, 25380, Note_on_c, 0, 82, 92
6, 25424, Note_on_c, 0, 82, 0
6, 25440, Note_on_c, 0, 89, 92
6, 25529, Note_on_c, 0, 89, 0
6, 25560, Note_on_c, 0, 87, 92
6, 25649, Note_on_c, 0, 87, 0
6, 25680, Note_on_c, 0, 84, 92
6, 25769, Note_on_c, 0, 84, 0
6, 25800, Note_on_c, 0, 89, 92
6, 25889, Note_on_c, 0, 89, 0
6, 25920, Note_on_c, 0, 86, 92
6, 26039, Note_on_c, 0, 86, 0
6, 26460, Note_on_c, 0, 89, 92
6, 26460, Note_on_c, 0, 77, 92
6, 26504, Note_on_c, 0, 89, 0
6, 26504, Note_on_c, 0, 77, 0
6, 26520, Note_on_c, 0, 87, 92
6, 26520, Note_on_c, 0, 75, 92
6, 26564, Note_on_c, 0, 87, 0
6, 26564, Note_on_c, 0, 75, 0
6, 26580, Note_on_c, 0, 74, 92
6, 26580, Note_on_c, 0, 86, 92
6, 26624, Note_on_c, 0, 74, 0
6, 26624, Note_on_c, 0, 86, 0
6, 26640, Note_on_c, 0, 82, 92
6, 26759, Note_on_c, 0, 82, 0
6, 26880, Note_on_c, 0, 88, 104
6, 26880, Note_on_c, 0, 76, 104
6, 26999, Note_on_c, 0, 88, 0
6, 26999, Note_on_c, 0, 76, 0
6, 27420, Note_on_c, 0, 91, 92
6, 27420, Note_on_c, 0, 79, 92
6, 27464, Note_on_c, 0, 91, 0
6, 27464, Note_on_c, 0, 79, 0
6, 27480, Note_on_c, 0, 77, 92
6, 27480, Note_on_c, 0, 89, 92
6, 27524, Note_on_c, 0, 77, 0
6, 27524, Note_on_c, 0, 89, 0
6, 27540, Note_on_c, 0, 88, 92
6, 27540, Note_on_c, 0, 76, 92
6, 27584, Note_on_c, 0, 88, 0
6, 27584, Note_on_c, 0, 76, 0
6, 27600, Note_on_c, 0, 85, 92
6, 27719, Note_on_c, 0, 85, 0
6, 27840, Note_on_c, 0, 89, 104
6, 27840, Note_on_c, 0, 77, 104
6, 27959, Note_on_c, 0, 89, 0
6, 27959, Note_on_c, 0, 77, 0
6, 28380, Note_on_c, 0, 81, 92
6, 28380, Note_on_c, 0, 93, 92
6, 28424, Note_on_c, 0, 81, 0
6, 28424, Note_on_c, 0, 93, 0
6, 28440, Note_on_c, 0, 79, 92
6, 28440, Note_on_c, 0, 91, 92
6, 28484, Note_on_c, 0, 79, 0
6, 28484, Note_on_c, 0, 91, 0
6, 28500, Note_on_c, 0, 77, 92
6, 28500, Note_on_c, 0, 89, 92
6, 28544, Note_on_c, 0, 77, 0
6, 28544, Note_on_c, 0, 89, 0
6, 28560, Note_on_c, 0, 86, 92
6, 28679, Note_on_c, 0, 86, 0
6, 28860, Note_on_c, 0, 93, 92
6, 28860, Note_on_c, 0, 81, 92
6, 28904, Note_on_c, 0, 93, 0
6, 28904, Note_on_c, 0, 81, 0
6, 28920, Note_on_c, 0, 79, 92
6, 28920, Note_on_c, 0, 91, 92
6, 28964, Note_on_c, 0, 79, 0
6, 28964, Note_on_c, 0, 91, 0
6, 28980, Note_on_c, 0, 90, 92
6, 28980, Note_on_c, 0, 78, 92
6, 29024, Note_on_c, 0, 90, 0
6, 29024, Note_on_c, 0, 78, 0
6, 29040, Note_on_c, 0, 86, 104
6, 29084, Note_on_c, 0, 86, 0
6, 29100, Note_on_c, 0, 82, 92
6, 29144, Note_on_c, 0, 82, 0
6, 29160, Note_on_c, 0, 81, 92
6, 29204, Note_on_c, 0, 81, 0
6, 29220, Note_on_c, 0, 79, 92
6, 29264, Note_on_c, 0, 79, 0
6, 29280, Note_on_c, 0, 86, 104
6, 29324, Note_on_c, 0, 86, 0
6, 29340, Note_on_c, 0, 70, 92
6, 29384, Note_on_c, 0, 70, 0
6, 29400, Note_on_c, 0, 69, 92
6, 29444, Note_on_c, 0, 69, 0
6, 29460, Note_on_c, 0, 67, 92
6, 29504, Note_on_c, 0, 67, 0
6, 29520, Note_on_c, 0, 83, 104
6, 29520, Note_on_c, 0, 89, 104
6, 29564, Note_on_c, 0, 83, 0
6, 29564, Note_on_c, 0, 89, 0
6, 29580, Note_on_c, 0, 83, 92
6, 29580, Note_on_c, 0, 89, 92
6, 29624, Note_on_c, 0, 83, 0
6, 29624, Note_on_c, 0, 89, 0
6, 29640, Note_on_c, 0, 83, 92
6, 29640, Note_on_c, 0, 88, 92
6, 29684, Note_on_c, 0, 83, 0
6, 29684, Note_on_c, 0, 88, 0
6, 29700, Note_on_c, 0, 83, 92
6, 29700, Note_on_c, 0, 86, 92
6, 29744, Note_on_c, 0, 83, 0
6, 29744, Note_on_c, 0, 86, 0
6, 29760, Note_on_c, 0, 93, 104
6, 29760, Note_on_c, 0, 81, 104
6, 29820, Control_c, 0, 11, 109
6, 30704, Note_on_c, 0, 93, 0
6, 30704, Note_on_c, 0, 81, 0
6, 30718, Control_c, 0, 11, 127
6, 30720, Note_on_c, 0, 85, 92
6, 30720, Note_on_c, 0, 82, 92
6, 30809, Note_on_c, 0, 85, 0
6, 30809, Note_on_c, 0, 82, 0
6, 30840, Note_on_c, 0, 81, 92
6, 30840, Note_on_c, 0, 86, 92
6, 30929, Note_on_c, 0, 81, 0
6, 30929, Note_on_c, 0, 86, 0
6, 30960, Note_on_c, 0, 88, 92
6, 30960, Note_on_c, 0, 85, 92
6, 31049, Note_on_c, 0, 88, 0
6, 31049, Note_on_c, 0, 85, 0
6, 31080, Note_on_c, 0, 86, 92
6, 31080, Note_on_c, 0, 89, 92
6, 31169, Note_on_c, 0, 86, 0
6, 31169, Note_on_c, 0, 89, 0
6, 31200, Note_on_c, 0, 91, 104
6, 31200, Note_on_c, 0, 88, 104
6, 31379, Note_on_c, 0, 91, 0
6, 31379, Note_on_c, 0, 88, 0
6, 31440, Note_on_c, 0, 89, 104
6, 31440, Note_on_c, 0, 86, 104
6, 31619, Note_on_c, 0, 89, 0
6, 31619, Note_on_c, 0, 86, 0
6, 31680, Note_on_c, 0, 85, 104
6, 31680, Note_on_c, 0, 88, 104
6, 31859, Note_on_c, 0, 85, 0
6, 31859, Note_on_c, 0, 88, 0
6, 32160, Note_on_c, 0, 93, 104
6, 32160, Note_on_c, 0, 81, 104
6, 32220, Control_c, 0, 11, 107
6, 32624, Note_on_c, 0, 93, 0
6, 32624, Note_on_c, 0, 81, 0
6, 32640, Note_on_c, 0, 79, 104
6, 32640, Note_on_c, 0, 91, 104
6, 32729, Note_on_c, 0, 79, 0
6, 32729, Note_on_c, 0, 91, 0
6, 32760, Note_on_c, 0, 77, 104
6, 32760, Note_on_c, 0, 89, 104
6, 32849, Note_on_c, 0, 77, 0
6, 32849, Note_on_c, 0, 89, 0
6, 32880, Note_on_c, 0, 88, 104
6, 32880, Note_on_c, 0, 76, 104
6, 32969, Note_on_c, 0, 88, 0
6, 32969, Note_on_c, 0, 76, 0
6, 33000, Note_on_c, 0, 74, 104
6, 33000, Note_on_c, 0, 86, 104
6, 33089, Note_on_c, 0, 74, 0
6, 33089, Note_on_c, 0, 86, 0
6, 33120, Note_on_c, 0, 73, 104
6, 33120, Note_on_c, 0, 85, 104
6, 33209, Note_on_c, 0, 73, 0
6, 33209, Note_on_c, 0, 85, 0
6, 33240, Note_on_c, 0, 86, 104
6, 33240, Note_on_c, 0, 74, 104
6, 33329, Note_on_c, 0, 86, 0
6, 33329, Note_on_c, 0, 74, 0
6, 33360, Note_on_c, 0, 76, 104
6, 33360, Note_on_c, 0, 88, 104
6, 33449, Note_on_c, 0, 76, 0
6, 33449, Note_on_c, 0, 88, 0
6, 33480, Note_on_c, 0, 77, 104
6, 33480, Note_on_c, 0, 89, 104
6, 33569, Note_on_c, 0, 77, 0
6, 33569, Note_on_c, 0, 89, 0
6, 33598, Control_c, 0, 11, 127
6, 33600, Note_on_c, 0, 91, 104
6, 33600, Note_on_c, 0, 79, 104
6, 33779, Note_on_c, 0, 91, 0
6, 33779, Note_on_c, 0, 79, 0
6, 33840, Note_on_c, 0, 89, 104
6, 33840, Note_on_c, 0, 91, 104
6, 34019, Note_on_c, 0, 89, 0
6, 34019, Note_on_c, 0, 91, 0
6, 34080, Note_on_c, 0, 91, 104
6, 34080, Note_on_c, 0, 88, 104
6, 34259, Note_on_c, 0, 91, 0
6, 34259, Note_on_c, 0, 88, 0
6, 34320, Note_on_c, 0, 88, 104
6, 34499, Note_on_c, 0, 88, 0
6, 34560, Note_on_c, 0, 90, 92
6, 34560, Note_on_c, 0, 87, 92
6, 34560, Control_c, 0, 11, 127
6, 34587, Control_c, 0, 11, 123
6, 34613, Control_c, 0, 11, 118
6, 34640, Control_c, 0, 11, 114
6, 34667, Control_c, 0, 11, 109
6, 34693, Control_c, 0, 11, 105
6, 34720, Control_c, 0, 11, 100
6, 34739, Note_on_c, 0, 90, 0
6, 34739, Note_on_c, 0, 87, 0
6, 34747, Control_c, 0, 11, 96
6, 34773, Control_c, 0, 11, 91
6, 34800, Control_c, 0, 11, 87
6, 34800, Note_on_c, 0, 87, 92
6, 34800, Note_on_c, 0, 89, 92
6, 34827, Control_c, 0, 11, 83
6, 34853, Control_c, 0, 11, 78
6, 34880, Control_c, 0, 11, 74
6, 34907, Control_c, 0, 11, 69
6, 34933, Control_c, 0, 11, 65
6, 34960, Control_c, 0, 11, 60
6, 34979, Note_on_c, 0, 87, 0
6, 34979, Note_on_c, 0, 89, 0
6, 35038, Control_c, 0, 11, 127
6, 35040, Note_on_c, 0, 87, 40
6, 35399, Note_on_c, 0, 87, 0
6, 35400, Note_on_c, 0, 89, 40
6, 35459, Note_on_c, 0, 89, 0
6, 35460, Note_on_c, 0, 91, 40
6, 35511, Note_on_c, 0, 91, 0
6, 35520, Note_on_c, 0, 91, 40
6, 35639, Note_on_c, 0, 91, 0
6, 35640, Note_on_c, 0, 89, 40
6, 35699, Note_on_c, 0, 89, 0
6, 35700, Note_on_c, 0, 87, 40
6, 35751, Note_on_c, 0, 87, 0
6, 35760, Note_on_c, 0, 87, 40
6, 35879, Note_on_c, 0, 87, 0
6, 35880, Note_on_c, 0, 86, 40
6, 35939, Note_on_c, 0, 86, 0
6, 35940, Note_on_c, 0, 84, 40
6, 35991, Note_on_c, 0, 84, 0
6, 36000, Note_on_c, 0, 84, 40
6, 36119, Note_on_c, 0, 84, 0
6, 36120, Note_on_c, 0, 82, 40
6, 36239, Note_on_c, 0, 82, 0
6, 36720, Note_on_c, 0, 86, 40
6, 36839, Note_on_c, 0, 86, 0
6, 36840, Note_on_c, 0, 84, 40
6, 36899, Note_on_c, 0, 84, 0
6, 36900, Note_on_c, 0, 82, 40
6, 36951, Note_on_c, 0, 82, 0
6, 36960, Note_on_c, 0, 82, 40
6, 37079, Note_on_c, 0, 82, 0
6, 37080, Note_on_c, 0, 81, 40
6, 37199, Note_on_c, 0, 81, 0
6, 38400, Note_on_c, 0, 77, 44
6, 38744, Note_on_c, 0, 77, 0
6, 38760, Note_on_c, 0, 82, 50
6, 38864, Note_on_c, 0, 82, 0
6, 38880, Note_on_c, 0, 81, 44
6, 39119, Note_on_c, 0, 81, 0
6, 39360, Note_on_c, 0, 84, 44
6, 39704, Note_on_c, 0, 84, 0
6, 39720, Note_on_c, 0, 91, 50
6, 39824, Note_on_c, 0, 91, 0
6, 39838, Control_c, 0, 11, 87
6, 39840, Note_on_c, 0, 89, 68
6, 39944, Note_on_c, 0, 89, 0
6, 39960, Control_c, 0, 11, 87
6, 39960, Note_on_c, 0, 74, 68
6, 39983, Control_c, 0, 11, 88
6, 40007, Control_c, 0, 11, 89
6, 40030, Control_c, 0, 11, 90
6, 40053, Control_c, 0, 11, 91
6, 40077, Control_c, 0, 11, 93
6, 40100, Control_c, 0, 11, 94
6, 40123, Control_c, 0, 11, 95
6, 40147, Control_c, 0, 11, 96
6, 40170, Control_c, 0, 11, 97
6, 40193, Control_c, 0, 11, 98
6, 40199, Note_on_c, 0, 74, 0
6, 40200, Note_on_c, 0, 79, 68
6, 40217, Control_c, 0, 11, 99
6, 40240, Control_c, 0, 11, 100
6, 40259, Note_on_c, 0, 79, 0
6, 40260, Note_on_c, 0, 77, 68
6, 40263, Control_c, 0, 11, 101
6, 40287, Control_c, 0, 11, 103
6, 40310, Control_c, 0, 11, 104
6, 40319, Note_on_c, 0, 77, 0
6, 40333, Control_c, 0, 11, 105
6, 40357, Control_c, 0, 11, 106
6, 40380, Control_c, 0, 11, 107
6, 40403, Control_c, 0, 11, 108
6, 40427, Control_c, 0, 11, 109
6, 40440, Note_on_c, 0, 77, 68
6, 40450, Control_c, 0, 11, 110
6, 40473, Control_c, 0, 11, 111
6, 40497, Control_c, 0, 11, 113
6, 40520, Control_c, 0, 11, 114
6, 40543, Control_c, 0, 11, 115
6, 40567, Control_c, 0, 11, 116
6, 40590, Control_c, 0, 11, 117
6, 40613, Control_c, 0, 11, 118
6, 40637, Control_c, 0, 11, 119
6, 40660, Control_c, 0, 11, 120
6, 40679, Note_on_c, 0, 77, 0
6, 40680, Note_on_c, 0, 84, 68
6, 40683, Control_c, 0, 11, 121
6, 40707, Control_c, 0, 11, 123
6, 40730, Control_c, 0, 11, 124
6, 40739, Note_on_c, 0, 84, 0
6, 40740, Note_on_c, 0, 82, 68
6, 40753, Control_c, 0, 11, 125
6, 40777, Control_c, 0, 11, 127
6, 40799, Note_on_c, 0, 82, 0
6, 40920, Note_on_c, 0, 81, 68
6, 40920, Control_c, 0, 11, 127
6, 40943, Control_c, 0, 11, 126
6, 40967, Control_c, 0, 11, 125
6, 40990, Control_c, 0, 11, 124
6, 41013, Control_c, 0, 11, 123
6, 41037, Control_c, 0, 11, 121
6, 41060, Control_c, 0, 11, 120
6, 41083, Control_c, 0, 11, 119
6, 41107, Control_c, 0, 11, 118
6, 41130, Control_c, 0, 11, 117
6, 41153, Control_c, 0, 11, 116
6, 41159, Note_on_c, 0, 81, 0
6, 41160, Note_on_c, 0, 86, 68
6, 41177, Control_c, 0, 11, 115
6, 41200, Control_c, 0, 11, 114
6, 41219, Note_on_c, 0, 86, 0
6, 41220, Note_on_c, 0, 84, 68
6, 41223, Control_c, 0, 11, 113
6, 41247, Control_c, 0, 11, 111
6, 41270, Control_c, 0, 11, 110
6, 41279, Note_on_c, 0, 84, 0
6, 41293, Control_c, 0, 11, 109
6, 41317, Control_c, 0, 11, 108
6, 41340, Control_c, 0, 11, 107
6, 41363, Control_c, 0, 11, 106
6, 41387, Control_c, 0, 11, 105
6, 41400, Note_on_c, 0, 84, 68
6, 41410, Control_c, 0, 11, 104
6, 41433, Control_c, 0, 11, 103
6, 41457, Control_c, 0, 11, 101
6, 41480, Control_c, 0, 11, 100
6, 41503, Control_c, 0, 11, 99
6, 41527, Control_c, 0, 11, 98
6, 41550, Control_c, 0, 11, 97
6, 41573, Control_c, 0, 11, 96
6, 41597, Control_c, 0, 11, 95
6, 41620, Control_c, 0, 11, 94
6, 41639, Note_on_c, 0, 84, 0
6, 41640, Note_on_c, 0, 91, 68
6, 41643, Control_c, 0, 11, 93
6, 41667, Control_c, 0, 11, 91
6, 41690, Control_c, 0, 11, 90
6, 41699, Note_on_c, 0, 91, 0
6, 41700, Note_on_c, 0, 90, 68
6, 41713, Control_c, 0, 11, 89
6, 41737, Control_c, 0, 11, 87
6, 41751, Note_on_c, 0, 90, 0
6, 41760, Note_on_c, 0, 89, 68
6, 42344, Note_on_c, 0, 89, 0
6, 42360, Note_on_c, 0, 89, 68
6, 42449, Note_on_c, 0, 89, 0
6, 42450, Note_on_c, 0, 87, 68
6, 42471, Note_on_c, 0, 87, 0
6, 42480, Note_on_c, 0, 87, 68
6, 42584, Note_on_c, 0, 87, 0
6, 42600, Note_on_c, 0, 87, 68
6, 42704, Note_on_c, 0, 87, 0
6, 42720, Note_on_c, 0, 86, 68
6, 43304, Note_on_c, 0, 86, 0
6, 43320, Note_on_c, 0, 86, 68
6, 43409, Note_on_c, 0, 86, 0
6, 43410, Note_on_c, 0, 84, 68
6, 43431, Note_on_c, 0, 84, 0
6, 43440, Note_on_c, 0, 84, 68
6, 43544, Note_on_c, 0, 84, 0
6, 43560, Note_on_c, 0, 84, 68
6, 43664, Note_on_c, 0, 84, 0
6, 43680, Note_on_c, 0, 82, 68
6, 43799, Note_on_c, 0, 82, 0
6, 44160, Control_c, 0, 11, 127
6, 44460, Note_on_c, 0, 86, 73
6, 44519, Note_on_c, 0, 86, 0
6, 44520, Note_on_c, 0, 87, 75
6, 44571, Note_on_c, 0, 87, 0
6, 44580, Note_on_c, 0, 89, 77
6, 44639, Note_on_c, 0, 89, 0
6, 44640, Note_on_c, 0, 91, 80
6, 44691, Note_on_c, 0, 91, 0
6, 44700, Note_on_c, 0, 89, 80
6, 44759, Note_on_c, 0, 89, 0
6, 44760, Note_on_c, 0, 87, 80
6, 44811, Note_on_c, 0, 87, 0
6, 44820, Note_on_c, 0, 86, 80
6, 44879, Note_on_c, 0, 86, 0
6, 44880, Note_on_c, 0, 84, 80
6, 44931, Note_on_c, 0, 84, 0
6, 44940, Note_on_c, 0, 82, 80
6, 44999, Note_on_c, 0, 82, 0
6, 45000, Note_on_c, 0, 81, 80
6, 45051, Note_on_c, 0, 81, 0
6, 45060, Note_on_c, 0, 79, 80
6, 45119, Note_on_c, 0, 79, 0
6, 45120, Note_on_c, 0, 77, 80
6, 45224, Note_on_c, 0, 77, 0
6, 45240, Note_on_c, 0, 89, 80
6, 45240, Note_on_c, 0, 86, 80
6, 45329, Note_on_c, 0, 89, 0
6, 45329, Note_on_c, 0, 86, 0
6, 45480, Note_on_c, 0, 89, 80
6, 45480, Note_on_c, 0, 86, 80
6, 45569, Note_on_c, 0, 89, 0
6, 45569, Note_on_c, 0, 86, 0
6, 46080, Control_c, 0, 11, 107
6, 46380, Note_on_c, 0, 86, 56
6, 46439, Note_on_c, 0, 86, 0
6, 46440, Note_on_c, 0, 87, 56
6, 46491, Note_on_c, 0, 87, 0
6, 46500, Note_on_c, 0, 89, 56
6, 46559, Note_on_c, 0, 89, 0
6, 46560, Note_on_c, 0, 91, 56
6, 46560, Control_c, 0, 11, 107
6, 46608, Control_c, 0, 11, 108
6, 46656, Control_c, 0, 11, 109
6, 46704, Control_c, 0, 11, 110
6, 46752, Control_c, 0, 11, 111
6, 46800, Control_c, 0, 11, 112
6, 46848, Control_c, 0, 11, 113
6, 46896, Control_c, 0, 11, 114
6, 46920, Note_on_c, 0, 90, 56
6, 46944, Control_c, 0, 11, 115
6, 46992, Control_c, 0, 11, 116
6, 47039, Note_on_c, 0, 90, 0
6, 47040, Control_c, 0, 11, 117
6, 47040, Note_on_c, 0, 89, 56
6, 47088, Control_c, 0, 11, 118
6, 47091, Note_on_c, 0, 91, 0
6, 47091, Note_on_c, 0, 89, 0
6, 47100, Note_on_c, 0, 91, 56
6, 47100, Note_on_c, 0, 87, 56
6, 47136, Control_c, 0, 11, 119
6, 47159, Note_on_c, 0, 87, 0
6, 47160, Note_on_c, 0, 86, 56
6, 47184, Control_c, 0, 11, 120
6, 47211, Note_on_c, 0, 91, 0
6, 47211, Note_on_c, 0, 86, 0
6, 47220, Note_on_c, 0, 84, 56
6, 47220, Note_on_c, 0, 91, 56
6, 47232, Control_c, 0, 11, 121
6, 47279, Note_on_c, 0, 84, 0
6, 47280, Control_c, 0, 11, 122
6, 47280, Note_on_c, 0, 83, 56
6, 47328, Control_c, 0, 11, 123
6, 47331, Note_on_c, 0, 91, 0
6, 47331, Note_on_c, 0, 83, 0
6, 47340, Note_on_c, 0, 91, 56
6, 47340, Note_on_c, 0, 80, 56
6, 47376, Control_c, 0, 11, 124
6, 47399, Note_on_c, 0, 80, 0
6, 47400, Note_on_c, 0, 79, 56
6, 47424, Control_c, 0, 11, 125
6, 47451, Note_on_c, 0, 91, 0
6, 47451, Note_on_c, 0, 79, 0
6, 47460, Note_on_c, 0, 77, 56
6, 47460, Note_on_c, 0, 89, 56
6, 47472, Control_c, 0, 11, 127
6, 47519, Note_on_c, 0, 77, 0
6, 47519, Note_on_c, 0, 89, 0
6, 47520, Note_on_c, 0, 75, 56
6, 47520, Note_on_c, 0, 87, 56
6, 47571, Note_on_c, 0, 75, 0
6, 47571, Note_on_c, 0, 87, 0
6, 47580, Note_on_c, 0, 65, 58
6, 47639, Note_on_c, 0, 65, 0
6, 47640, Note_on_c, 0, 67, 60
6, 47691, Note_on_c, 0, 67, 0
6, 47700, Note_on_c, 0, 69, 62
6, 47759, Note_on_c, 0, 69, 0
6, 47760, Note_on_c, 0, 70, 65
6, 47811, Note_on_c, 0, 70, 0
6, 47820, Note_on_c, 0, 72, 67
6, 47879, Note_on_c, 0, 72, 0
6, 47880, Note_on_c, 0, 74, 69
6, 47931, Note_on_c, 0, 74, 0
6, 47940, Note_on_c, 0, 75, 71
6, 47999, Note_on_c, 0, 75, 0
6, 48000, Note_on_c, 0, 77, 74
6, 48051, Note_on_c, 0, 77, 0
6, 48060, Note_on_c, 0, 79, 76
6, 48119, Note_on_c, 0, 79, 0
6, 48120, Note_on_c, 0, 81, 78
6, 48171, Note_on_c, 0, 81, 0
6, 48180, Note_on_c, 0, 82, 80
6, 48239, Note_on_c, 0, 82, 0
6, 48240, Note_on_c, 0, 84, 83
6, 48291, Note_on_c, 0, 84, 0
6, 48300, Note_on_c, 0, 86, 85
6, 48359, Note_on_c, 0, 86, 0
6, 48360, Note_on_c, 0, 87, 87
6, 48411, Note_on_c, 0, 87, 0
6, 48420, Note_on_c, 0, 89, 89
6, 48464, Note_on_c, 0, 89, 0
6, 48480, Note_on_c, 0, 89, 92
6, 48480, Note_on_c, 0, 82, 92
6, 48569, Note_on_c, 0, 89, 0
6, 48569, Note_on_c, 0, 82, 0
6, 48600, Note_on_c, 0, 82, 92
6, 48600, Note_on_c, 0, 88, 92
6, 48666, Note_on_c, 0, 82, 0
6, 48666, Note_on_c, 0, 88, 0
6, 48690, Note_on_c, 0, 82, 92
6, 48690, Note_on_c, 0, 88, 92
6, 48711, Note_on_c, 0, 82, 0
6, 48711, Note_on_c, 0, 88, 0
6, 48720, Note_on_c, 0, 82, 92
6, 48720, Note_on_c, 0, 89, 92
6, 48839, Note_on_c, 0, 82, 0
6, 48839, Note_on_c, 0, 89, 0
6, 48960, Note_on_c, 0, 82, 92
6, 48960, Note_on_c, 0, 91, 92
6, 49049, Note_on_c, 0, 82, 0
6, 49049, Note_on_c, 0, 91, 0
6, 49080, Note_on_c, 0, 90, 92
6, 49080, Note_on_c, 0, 82, 92
6, 49146, Note_on_c, 0, 90, 0
6, 49146, Note_on_c, 0, 82, 0
6, 49170, Note_on_c, 0, 90, 92
6, 49170, Note_on_c, 0, 82, 92
6, 49191, Note_on_c, 0, 90, 0
6, 49191, Note_on_c, 0, 82, 0
6, 49200, Note_on_c, 0, 82, 92
6, 49200, Note_on_c, 0, 91, 92
6, 49319, Note_on_c, 0, 82, 0
6, 49319, Note_on_c, 0, 91, 0
6, 49920, Note_on_c, 0, 86, 40
6, 50159, Note_on_c, 0, 86, 0
6, 50160, Note_on_c, 0, 84, 40
6, 50279, Note_on_c, 0, 84, 0
6, 50280, Note_on_c, 0, 86, 40
6, 50339, Note_on_c, 0, 86, 0
6, 50340, Note_on_c, 0, 87, 40
6, 50391, Note_on_c, 0, 87, 0
6, 50400, Note_on_c, 0, 82, 92
6, 50400, Note_on_c, 0, 89, 92
6, 50489, Note_on_c, 0, 82, 0
6, 50489, Note_on_c, 0, 89, 0
6, 50520, Note_on_c, 0, 88, 92
6, 50520, Note_on_c, 0, 82, 92
6, 50586, Note_on_c, 0, 88, 0
6, 50586, Note_on_c, 0, 82, 0
6, 50610, Note_on_c, 0, 88, 92
6, 50610, Note_on_c, 0, 82, 92
6, 50631, Note_on_c, 0, 88, 0
6, 50631, Note_on_c, 0, 82, 0
6, 50640, Note_on_c, 0, 82, 92
6, 50640, Note_on_c, 0, 89, 92
6, 50759, Note_on_c, 0, 82, 0
6, 50759, Note_on_c, 0, 89, 0
6, 50880, Note_on_c, 0, 90, 92
6, 50880, Note_on_c, 0, 82, 92
6, 50969, Note_on_c, 0, 90, 0
6, 50969, Note_on_c, 0, 82, 0
6, 51000, Note_on_c, 0, 89, 92
6, 51000, Note_on_c, 0, 82, 92
6, 51066, Note_on_c, 0, 89, 0
6, 51066, Note_on_c, 0, 82, 0
6, 51090, Note_on_c, 0, 82, 92
6, 51090, Note_on_c, 0, 89, 92
6, 51111, Note_on_c, 0, 82, 0
6, 51111, Note_on_c, 0, 89, 0
6, 51120, Note_on_c, 0, 82, 92
6, 51120, Note_on_c, 0, 90, 92
6, 51239, Note_on_c, 0, 82, 0
6, 51239, Note_on_c, 0, 90, 0
6, 51600, Note_on_c, 0, 83, 44
6, 52079, Note_on_c, 0, 83, 0
6, 52080, Note_on_c, 0, 85, 44
6, 52199, Note_on_c, 0, 85, 0
6, 52200, Note_on_c, 0, 87, 44
6, 52259, Note_on_c, 0, 87, 0
6, 52260, Note_on_c, 0, 88, 44
6, 52319, Note_on_c, 0, 88, 0
6, 52320, Note_on_c, 0, 90, 32
6, 52439, Note_on_c, 0, 90, 0
6, 53280, Note_on_c, 0, 85, 32
6, 53759, Note_on_c, 0, 85, 0
6, 53760, Note_on_c, 0, 90, 32
6, 54359, Note_on_c, 0, 90, 0
6, 54480, Note_on_c, 0, 83, 32
6, 54599, Note_on_c, 0, 83, 0
6, 54720, Note_on_c, 0, 83, 32
6, 54839, Note_on_c, 0, 83, 0
6, 54960, Note_on_c, 0, 82, 32
6, 55079, Note_on_c, 0, 82, 0
6, 55200, Note_on_c, 0, 81, 32
6, 55319, Note_on_c, 0, 81, 0
6, 56400, Note_on_c, 0, 86, 32
6, 56519, Note_on_c, 0, 86, 0
6, 56520, Note_on_c, 0, 84, 32
6, 56639, Note_on_c, 0, 84, 0
6, 57360, Note_on_c, 0, 89, 32
6, 57479, Note_on_c, 0, 89, 0
6, 57480, Note_on_c, 0, 87, 32
6, 57599, Note_on_c, 0, 87, 0
6, 57780, Note_on_c, 0, 84, 32
6, 57839, Note_on_c, 0, 84, 0
6, 57840, Note_on_c, 0, 87, 32
6, 57899, Note_on_c, 0, 87, 0
6, 58260, Note_on_c, 0, 86, 32
6, 58319, Note_on_c, 0, 86, 0
6, 58320, Note_on_c, 0, 89, 32
6, 58379, Note_on_c, 0, 89, 0
6, 59220, Note_on_c, 0, 84, 34
6, 59279, Note_on_c, 0, 84, 0
6, 59280, Note_on_c, 0, 87, 35
6, 59339, Note_on_c, 0, 87, 0
6, 60180, Note_on_c, 0, 86, 46
6, 60239, Note_on_c, 0, 86, 0
6, 60240, Note_on_c, 0, 89, 47
6, 60299, Note_on_c, 0, 89, 0
6, 61140, Note_on_c, 0, 84, 58
6, 61199, Note_on_c, 0, 84, 0
6, 61200, Note_on_c, 0, 87, 59
6, 61259, Note_on_c, 0, 87, 0
6, 61620, Note_on_c, 0, 86, 64
6, 61679, Note_on_c, 0, 86, 0
6, 61680, Note_on_c, 0, 89, 65
6, 61739, Note_on_c, 0, 89, 0
6, 62040, Note_on_c, 0, 90, 69
6, 62099, Note_on_c, 0, 90, 0
6, 62100, Note_on_c, 0, 89, 70
6, 62211, Note_on_c, 0, 89, 0
6, 62220, Note_on_c, 0, 89, 71
6, 62324, Note_on_c, 0, 89, 0
6, 62340, Note_on_c, 0, 89, 73
6, 62399, Note_on_c, 0, 89, 0
6, 62520, Note_on_c, 0, 90, 75
6, 62579, Note_on_c, 0, 90, 0
6, 62580, Note_on_c, 0, 89, 76
6, 62691, Note_on_c, 0, 89, 0
6, 62700, Note_on_c, 0, 89, 77
6, 62804, Note_on_c, 0, 89, 0
6, 62820, Note_on_c, 0, 89, 79
6, 62880, Note_on_c, 0, 77, 80
6, 62984, Note_on_c, 0, 89, 0
6, 62984, Note_on_c, 0, 77, 0
6, 63000, Note_on_c, 0, 65, 92
6, 63000, Note_on_c, 0, 77, 92
6, 63060, Control_c, 0, 11, 107
6, 63224, Note_on_c, 0, 65, 0
6, 63224, Note_on_c, 0, 77, 0
6, 63240, Note_on_c, 0, 89, 92
6, 63240, Note_on_c, 0, 77, 92
6, 63464, Note_on_c, 0, 89, 0
6, 63464, Note_on_c, 0, 77, 0
6, 63478, Control_c, 0, 11, 127
6, 63480, Note_on_c, 0, 65, 92
6, 63480, Note_on_c, 0, 77, 92
6, 63540, Control_c, 0, 11, 107
6, 63704, Note_on_c, 0, 65, 0
6, 63704, Note_on_c, 0, 77, 0
6, 63720, Note_on_c, 0, 82, 92
6, 63891, Note_on_c, 0, 82, 0
6, 63900, Note_on_c, 0, 84, 92
6, 63944, Note_on_c, 0, 84, 0
6, 63958, Control_c, 0, 11, 127
6, 63960, Note_on_c, 0, 84, 92
6, 64020, Control_c, 0, 11, 107
6, 64184, Note_on_c, 0, 84, 0
6, 64200, Note_on_c, 0, 84, 92
6, 64371, Note_on_c, 0, 84, 0
6, 64380, Note_on_c, 0, 86, 92
6, 64424, Note_on_c, 0, 86, 0
6, 64438, Control_c, 0, 11, 127
6, 64440, Note_on_c, 0, 86, 92
6, 64500, Control_c, 0, 11, 107
6, 64664, Note_on_c, 0, 86, 0
6, 64680, Note_on_c, 0, 86, 92
6, 64844, Note_on_c, 0, 86, 0
6, 64860, Note_on_c, 0, 87, 92
6, 64904, Note_on_c, 0, 87, 0
6, 64918, Control_c, 0, 11, 127
6, 64920, Note_on_c, 0, 87, 92
6, 64980, Control_c, 0, 11, 107
6, 65144, Note_on_c, 0, 87, 0
6, 65160, Note_on_c, 0, 87, 92
6, 65384, Note_on_c, 0, 87, 0
6, 65398, Control_c, 0, 11, 127
6, 65400, Note_on_c, 0, 77, 92
6, 65460, Control_c, 0, 11, 107
6, 65624, Note_on_c, 0, 77, 0
6, 65638, Control_c, 0, 11, 127
6, 65640, Note_on_c, 0, 89, 92
6, 65640, Note_on_c, 0, 84, 92
6, 65759, Note_on_c, 0, 84, 0
6, 65760, Note_on_c, 0, 86, 92
6, 65760, Control_c, 0, 11, 107
6, 65879, Note_on_c, 0, 89, 0
6, 65879, Note_on_c, 0, 86, 0
6, 66300, Control_c, 0, 11, 107
6, 66300, Note_on_c, 0, 87, 56
6, 66315, Control_c, 0, 11, 112
6, 66330, Control_c, 0, 11, 117
6, 66345, Control_c, 0, 11, 122
6, 66359, Note_on_c, 0, 87, 0
6, 66360, Note_on_c, 0, 91, 56
6, 66360, Control_c, 0, 11, 127
6, 66375, Control_c, 0, 11, 122
6, 66390, Control_c, 0, 11, 117
6, 66405, Control_c, 0, 11, 112
6, 66419, Note_on_c, 0, 91, 0
6, 66420, Control_c, 0, 11, 107
6, 66420, Note_on_c, 0, 86, 56
6, 66479, Note_on_c, 0, 86, 0
6, 66480, Note_on_c, 0, 84, 56
6, 66539, Note_on_c, 0, 84, 0
6, 66540, Note_on_c, 0, 82, 56
6, 66599, Note_on_c, 0, 82, 0
6, 66720, Control_c, 0, 11, 127
6, 67020, Note_on_c, 0, 87, 44
6, 67079, Note_on_c, 0, 87, 0
6, 67080, Note_on_c, 0, 91, 44
6, 67139, Note_on_c, 0, 91, 0
6, 67140, Note_on_c, 0, 86, 44
6, 67259, Note_on_c, 0, 86, 0
6, 67260, Note_on_c, 0, 84, 44
6, 67319, Note_on_c, 0, 84, 0
6, 67320, Note_on_c, 0, 91, 44
6, 67379, Note_on_c, 0, 91, 0
6, 67380, Note_on_c, 0, 87, 44
6, 67439, Note_on_c, 0, 87, 0
6, 67440, Note_on_c, 0, 86, 44
6, 67499, Note_on_c, 0, 86, 0
6, 67500, Note_on_c, 0, 84, 44
6, 67559, Note_on_c, 0, 84, 0
6, 67740, Note_on_c, 0, 86, 44
6, 67799, Note_on_c, 0, 86, 0
6, 67800, Note_on_c, 0, 92, 44
6, 67859, Note_on_c, 0, 92, 0
6, 67860, Note_on_c, 0, 89, 44
6, 67919, Note_on_c, 0, 89, 0
6, 67920, Note_on_c, 0, 87, 44
6, 67979, Note_on_c, 0, 87, 0
6, 67980, Note_on_c, 0, 86, 44
6, 68039, Note_on_c, 0, 86, 0
6, 68040, Note_on_c, 0, 89, 44
6, 68099, Note_on_c, 0, 89, 0
6, 68100, Note_on_c, 0, 84, 44
6, 68159, Note_on_c, 0, 84, 0
6, 68160, Note_on_c, 0, 82, 44
6, 68219, Note_on_c, 0, 82, 0
6, 68220, Note_on_c, 0, 92, 44
6, 68279, Note_on_c, 0, 92, 0
6, 68280, Note_on_c, 0, 91, 44
6, 68339, Note_on_c, 0, 91, 0
6, 68340, Note_on_c, 0, 89, 44
6, 68399, Note_on_c, 0, 89, 0
6, 68400, Note_on_c, 0, 87, 44
6, 68459, Note_on_c, 0, 87, 0
6, 68460, Note_on_c, 0, 86, 44
6, 68519, Note_on_c, 0, 86, 0
6, 69180, Note_on_c, 0, 82, 44
6, 69239, Note_on_c, 0, 82, 0
6, 69240, Note_on_c, 0, 87, 44
6, 69299, Note_on_c, 0, 87, 0
6, 69300, Note_on_c, 0, 82, 44
6, 69359, Note_on_c, 0, 82, 0
6, 69360, Note_on_c, 0, 92, 44
6, 69419, Note_on_c, 0, 92, 0
6, 69420, Note_on_c, 0, 91, 44
6, 69479, Note_on_c, 0, 91, 0
6, 69480, Note_on_c, 0, 89, 44
6, 69539, Note_on_c, 0, 89, 0
6, 69540, Note_on_c, 0, 87, 44
6, 69591, Note_on_c, 0, 87, 0
6, 69600, Note_on_c, 0, 87, 80
6, 69719, Note_on_c, 0, 87, 0
6, 69720, Note_on_c, 0, 86, 80
6, 69779, Note_on_c, 0, 86, 0
6, 69840, Note_on_c, 0, 86, 80
6, 69959, Note_on_c, 0, 86, 0
6, 69960, Note_on_c, 0, 84, 80
6, 70019, Note_on_c, 0, 84, 0
6, 70080, Note_on_c, 0, 84, 80
6, 70199, Note_on_c, 0, 84, 0
6, 70200, Note_on_c, 0, 82, 80
6, 70259, Note_on_c, 0, 82, 0
6, 70320, Note_on_c, 0, 82, 92
6, 70320, Note_on_c, 0, 91, 92
6, 70339, Note_on_c, 0, 82, 0
6, 70340, Note_on_c, 0, 84, 92
6, 70359, Note_on_c, 0, 84, 0
6, 70360, Note_on_c, 0, 82, 92
6, 70379, Note_on_c, 0, 82, 0
6, 70380, Note_on_c, 0, 84, 92
6, 70392, Note_on_c, 0, 84, 0
6, 70393, Note_on_c, 0, 82, 92
6, 70406, Note_on_c, 0, 82, 0
6, 70407, Note_on_c, 0, 81, 92
6, 70419, Note_on_c, 0, 81, 0
6, 70420, Note_on_c, 0, 82, 92
6, 70439, Note_on_c, 0, 91, 0
6, 70439, Note_on_c, 0, 82, 0
6, 70440, Note_on_c, 0, 89, 92
6, 70440, Note_on_c, 0, 84, 92
6, 70499, Note_on_c, 0, 89, 0
6, 70499, Note_on_c, 0, 84, 0
6, 70500, Note_on_c, 0, 81, 92
6, 70559, Note_on_c, 0, 81, 0
6, 70620, Note_on_c, 0, 75, 92
6, 70679, Note_on_c, 0, 75, 0
6, 70680, Note_on_c, 0, 86, 92
6, 70739, Note_on_c, 0, 86, 0
6, 70860, Note_on_c, 0, 74, 92
6, 70919, Note_on_c, 0, 74, 0
6, 70920, Note_on_c, 0, 84, 92
6, 70979, Note_on_c, 0, 84, 0
6, 71100, Note_on_c, 0, 72, 92
6, 71159, Note_on_c, 0, 72, 0
6, 71160, Note_on_c, 0, 82, 92
6, 71219, Note_on_c, 0, 82, 0
6, 71280, Note_on_c, 0, 91, 92
6, 71399, Note_on_c, 0, 91, 0
6, 71400, Note_on_c, 0, 89, 92
6, 71459, Note_on_c, 0, 89, 0
6, 71460, Note_on_c, 0, 81, 92
6, 71511, Note_on_c, 0, 81, 0
6, 71520, Note_on_c, 0, 82, 92
6, 71864, Note_on_c, 0, 82, 0
6, 71880, Note_on_c, 0, 82, 92
6, 71961, Note_on_c, 0, 82, 0
6, 71970, Note_on_c, 0, 82, 92
6, 71991, Note_on_c, 0, 82, 0
6, 72000, Note_on_c, 0, 86, 104
6, 72060, Control_c, 0, 11, 107
6, 72344, Note_on_c, 0, 86, 0
6, 72360, Note_on_c, 0, 86, 104
6, 72441, Note_on_c, 0, 86, 0
6, 72450, Note_on_c, 0, 86, 104
6, 72471, Note_on_c, 0, 86, 0
6, 72478, Control_c, 0, 11, 127
6, 72480, Note_on_c, 0, 89, 104
6, 72540, Control_c, 0, 11, 107
6, 72824, Note_on_c, 0, 89, 0
6, 72840, Note_on_c, 0, 77, 104
6, 72921, Note_on_c, 0, 77, 0
6, 72930, Note_on_c, 0, 77, 104
6, 72951, Note_on_c, 0, 77, 0
6, 72958, Control_c, 0, 11, 127
6, 72960, Note_on_c, 0, 82, 92
6, 73064, Note_on_c, 0, 82, 0
6, 73080, Note_on_c, 0, 82, 92
6, 73161, Note_on_c, 0, 82, 0
6, 73170, Note_on_c, 0, 82, 92
6, 73191, Note_on_c, 0, 82, 0
6, 73200, Note_on_c, 0, 86, 92
6, 73304, Note_on_c, 0, 86, 0
6, 73320, Note_on_c, 0, 86, 92
6, 73401, Note_on_c, 0, 86, 0
6, 73410, Note_on_c, 0, 86, 92
6, 73431, Note_on_c, 0, 86, 0
6, 73440, Note_on_c, 0, 89, 80
6, 73529, Note_on_c, 0, 89, 0
6, 73560, Note_on_c, 0, 82, 80
6, 73641, Note_on_c, 0, 82, 0
6, 73650, Note_on_c, 0, 82, 80
6, 73671, Note_on_c, 0, 82, 0
6, 73680, Note_on_c, 0, 86, 80
6, 73769, Note_on_c, 0, 86, 0
6, 73800, Note_on_c, 0, 77, 80
6, 73881, Note_on_c, 0, 77, 0
6, 73890, Note_on_c, 0, 77, 80
6, 73911, Note_on_c, 0, 77, 0
6, 73920, Note_on_c, 0, 82, 80
6, 74009, Note_on_c, 0, 82, 0
6, 74040, Note_on_c, 0, 86, 80
6, 74121, Note_on_c, 0, 86, 0
6, 74130, Note_on_c, 0, 86, 80
6, 74151, Note_on_c, 0, 86, 0
6, 74160, Note_on_c, 0, 89, 80
6, 74249, Note_on_c, 0, 89, 0
6, 74280, Note_on_c, 0, 82, 80
6, 74361, Note_on_c, 0, 82, 0
6, 74370, Note_on_c, 0, 82, 80
6, 74391, Note_on_c, 0, 82, 0
6, 74400, Note_on_c, 0, 86, 80
6, 74489, Note_on_c, 0, 86, 0
6, 74520, Note_on_c, 0, 77, 80
6, 74601, Note_on_c, 0, 77, 0
6, 74610, Note_on_c, 0, 77, 80
6, 74631, Note_on_c, 0, 77, 0
6, 74640, Note_on_c, 0, 82, 80
6, 74729, Note_on_c, 0, 82, 0
6, 74760, Note_on_c, 0, 74, 80
6, 74841, Note_on_c, 0, 74, 0
6, 74850, Note_on_c, 0, 74, 80
6, 74871, Note_on_c, 0, 74, 0
6, 74880, Note_on_c, 0, 77, 80
6, 74969, Note_on_c, 0, 77, 0
6, 75000, Note_on_c, 0, 70, 80
6, 75081, Note_on_c, 0, 70, 0
6, 75090, Note_on_c, 0, 70, 80
6, 75111, Note_on_c, 0, 70, 0
6, 75120, Note_on_c, 0, 82, 80
6, 75209, Note_on_c, 0, 82, 0
6, 75240, Note_on_c, 0, 70, 80
6, 75321, Note_on_c, 0, 70, 0
6, 75330, Note_on_c, 0, 70, 80
6, 75351, Note_on_c, 0, 70, 0
6, 75360, Note_on_c, 0, 82, 80
6, 75479, Note_on_c, 0, 82, 0
6, 75810, Note_on_c, 0, 82, 80
6, 75831, Note_on_c, 0, 82, 0
6, 75840, Note_on_c, 0, 70, 78
6, 75959, Note_on_c, 0, 70, 0
6, 76290, Note_on_c, 0, 70, 44
6, 76311, Note_on_c, 0, 70, 0
6, 76320, Note_on_c, 0, 69, 32
6, 76559, Note_on_c, 0, 69, 0
6, 80160, Note_on_c, 0, 81, 32
6, 81360, Note_on_c, 0, 86, 32
6, 82559, Note_on_c, 0, 81, 0
6, 82559, Note_on_c, 0, 86, 0
6, 82560, Note_on_c, 0, 81, 32
6, 82560, Note_on_c, 0, 86, 32
6, 84959, Note_on_c, 0, 86, 0
6, 84960, Note_on_c, 0, 86, 32
6, 85199, Note_on_c, 0, 81, 0
6, 85200, Note_on_c, 0, 82, 32
6, 86841, Note_on_c, 0, 86, 0
6, 86841, Note_on_c, 0, 82, 0
6, 86850, Note_on_c, 0, 86, 32
6, 86871, Note_on_c, 0, 86, 0
6, 86880, Note_on_c, 0, 82, 32
6, 87321, Note_on_c, 0, 82, 0
6, 87330, Note_on_c, 0, 79, 32
6, 87351, Note_on_c, 0, 79, 0
6, 87360, Note_on_c, 0, 74, 32
6, 87561, Note_on_c, 0, 74, 0
6, 87570, Note_on_c, 0, 82, 32
6, 87591, Note_on_c, 0, 82, 0
6, 87600, Note_on_c, 0, 79, 32
6, 87719, Note_on_c, 0, 79, 0
6, 87838, Control_c, 0, 11, 47
6, 87840, Note_on_c, 0, 81, 80
6, 87840, Note_on_c, 0, 84, 80
6, 88761, Note_on_c, 0, 84, 0
6, 88770, Note_on_c, 0, 87, 80
6, 88791, Note_on_c, 0, 87, 0
6, 88800, Control_c, 0, 11, 47
6, 88800, Note_on_c, 0, 86, 80
6, 88827, Control_c, 0, 11, 49
6, 88853, Control_c, 0, 11, 51
6, 88880, Control_c, 0, 11, 54
6, 88907, Control_c, 0, 11, 56
6, 88919, Note_on_c, 0, 86, 0
6, 88920, Note_on_c, 0, 84, 80
6, 88933, Control_c, 0, 11, 58
6, 88960, Control_c, 0, 11, 60
6, 88987, Control_c, 0, 11, 63
6, 89013, Control_c, 0, 11, 65
6, 89040, Control_c, 0, 11, 67
6, 89067, Control_c, 0, 11, 69
6, 89093, Control_c, 0, 11, 71
6, 89120, Control_c, 0, 11, 74
6, 89147, Control_c, 0, 11, 76
6, 89173, Control_c, 0, 11, 78
6, 89200, Control_c, 0, 11, 80
6, 89227, Control_c, 0, 11, 83
6, 89241, Note_on_c, 0, 84, 0
6, 89247, Note_on_c, 0, 81, 0
6, 89250, Note_on_c, 0, 81, 80
6, 89253, Control_c, 0, 11, 85
6, 89279, Note_on_c, 0, 81, 0
6, 89280, Note_on_c, 0, 78, 80
6, 89280, Note_on_c, 0, 81, 80
6, 89280, Control_c, 0, 11, 87
6, 89307, Control_c, 0, 11, 89
6, 89333, Control_c, 0, 11, 91
6, 89360, Control_c, 0, 11, 94
6, 89387, Control_c, 0, 11, 96
6, 89413, Control_c, 0, 11, 98
6, 89440, Control_c, 0, 11, 100
6, 89467, Control_c, 0, 11, 103
6, 89481, Note_on_c, 0, 78, 0
6, 89490, Note_on_c, 0, 86, 80
6, 89493, Control_c, 0, 11, 105
6, 89511, Note_on_c, 0, 86, 0
6, 89520, Note_on_c, 0, 84, 80
6, 89520, Control_c, 0, 11, 107
6, 89547, Control_c, 0, 11, 109
6, 89573, Control_c, 0, 11, 111
6, 89600, Control_c, 0, 11, 114
6, 89627, Control_c, 0, 11, 116
6, 89639, Note_on_c, 0, 84, 0
6, 89653, Control_c, 0, 11, 118
6, 89680, Control_c, 0, 11, 120
6, 89707, Control_c, 0, 11, 123
6, 89730, Note_on_c, 0, 78, 80
6, 89733, Control_c, 0, 11, 127
6, 89751, Note_on_c, 0, 78, 0
6, 89760, Note_on_c, 0, 72, 80
6, 89864, Note_on_c, 0, 81, 0
6, 89864, Note_on_c, 0, 72, 0
6, 89880, Note_on_c, 0, 84, 80
6, 89961, Note_on_c, 0, 84, 0
6, 89970, Note_on_c, 0, 84, 80
6, 89991, Note_on_c, 0, 84, 0
6, 90000, Note_on_c, 0, 87, 92
6, 90060, Control_c, 0, 11, 107
6, 90344, Note_on_c, 0, 87, 0
6, 90360, Note_on_c, 0, 81, 92
6, 90441, Note_on_c, 0, 81, 0
6, 90450, Note_on_c, 0, 81, 92
6, 90471, Note_on_c, 0, 81, 0
6, 90478, Control_c, 0, 11, 127
6, 90480, Note_on_c, 0, 84, 92
6, 90540, Control_c, 0, 11, 107
6, 90824, Note_on_c, 0, 84, 0
6, 90840, Note_on_c, 0, 78, 92
6, 90840, Note_on_c, 0, 90, 92
6, 90921, Note_on_c, 0, 78, 0
6, 90921, Note_on_c, 0, 90, 0
6, 90930, Note_on_c, 0, 78, 92
6, 90930, Note_on_c, 0, 90, 92
6, 90951, Note_on_c, 0, 78, 0
6, 90951, Note_on_c, 0, 90, 0
6, 90958, Control_c, 0, 11, 127
6, 90960, Note_on_c, 0, 93, 92
6, 90960, Note_on_c, 0, 81, 92
6, 91064, Note_on_c, 0, 93, 0
6, 91064, Note_on_c, 0, 81, 0
6, 91080, Note_on_c, 0, 84, 80
6, 91080, Note_on_c, 0, 72, 80
6, 91161, Note_on_c, 0, 84, 0
6, 91161, Note_on_c, 0, 72, 0
6, 91170, Note_on_c, 0, 84, 80
6, 91170, Note_on_c, 0, 72, 80
6, 91191, Note_on_c, 0, 84, 0
6, 91191, Note_on_c, 0, 72, 0
6, 91200, Note_on_c, 0, 87, 92
6, 91200, Note_on_c, 0, 75, 92
6, 91304, Note_on_c, 0, 87, 0
6, 91304, Note_on_c, 0, 75, 0
6, 91320, Note_on_c, 0, 81, 80
6, 91320, Note_on_c, 0, 69, 80
6, 91401, Note_on_c, 0, 81, 0
6, 91401, Note_on_c, 0, 69, 0
6, 91410, Note_on_c, 0, 69, 80
6, 91410, Note_on_c, 0, 81, 80
6, 91431, Note_on_c, 0, 69, 0
6, 91431, Note_on_c, 0, 81, 0
6, 91440, Note_on_c, 0, 74, 80
6, 91440, Note_on_c, 0, 86, 80
6, 91544, Note_on_c, 0, 74, 0
6, 91544, Note_on_c, 0, 86, 0
6, 91560, Note_on_c, 0, 62, 80
6, 91560, Note_on_c, 0, 74, 80
6, 91641, Note_on_c, 0, 62, 0
6, 91641, Note_on_c, 0, 74, 0
6, 91650, Note_on_c, 0, 62, 80
6, 91650, Note_on_c, 0, 74, 80
6, 91671, Note_on_c, 0, 62, 0
6, 91671, Note_on_c, 0, 74, 0
6, 91680, Note_on_c, 0, 67, 44
6, 91680, Note_on_c, 0, 79, 44
6, 91799, Note_on_c, 0, 67, 0
6, 91799, Note_on_c, 0, 79, 0
6, 92640, Note_on_c, 0, 84, 44
6, 92931, Note_on_c, 0, 84, 0
6, 92940, Note_on_c, 0, 87, 44
6, 92991, Note_on_c, 0, 87, 0
6, 93000, Note_on_c, 0, 86, 44
6, 93044, Note_on_c, 0, 86, 0
6, 93060, Note_on_c, 0, 84, 44
6, 93104, Note_on_c, 0, 84, 0
6, 93120, Note_on_c, 0, 84, 44
6, 93411, Note_on_c, 0, 84, 0
6, 93420, Note_on_c, 0, 87, 44
6, 93471, Note_on_c, 0, 87, 0
6, 93480, Note_on_c, 0, 86, 44
6, 93531, Note_on_c, 0, 86, 0
6, 93540, Note_on_c, 0, 84, 44
6, 93584, Note_on_c, 0, 84, 0
6, 93600, Note_on_c, 0, 82, 44
6, 93779, Note_on_c, 0, 82, 0
6, 94320, Control_c, 0, 11, 67
6, 94560, Note_on_c, 0, 86, 80
6, 94560, Note_on_c, 0, 82, 80
6, 96239, Note_on_c, 0, 82, 0
6, 96240, Note_on_c, 0, 83, 80
6, 96344, Note_on_c, 0, 86, 0
6, 96344, Note_on_c, 0, 83, 0
6, 96360, Note_on_c, 0, 83, 80
6, 96360, Note_on_c, 0, 89, 80
6, 97440, Control_c, 0, 11, 67
6, 97460, Control_c, 0, 11, 68
6, 97480, Control_c, 0, 11, 70
6, 97500, Control_c, 0, 11, 71
6, 97520, Control_c, 0, 11, 72
6, 97540, Control_c, 0, 11, 73
6, 97560, Control_c, 0, 11, 75
6, 97580, Control_c, 0, 11, 76
6, 97600, Control_c, 0, 11, 77
6, 97620, Control_c, 0, 11, 78
6, 97640, Control_c, 0, 11, 80
6, 97660, Control_c, 0, 11, 81
6, 97680, Control_c, 0, 11, 82
6, 97700, Control_c, 0, 11, 83
6, 97720, Control_c, 0, 11, 85
6, 97740, Control_c, 0, 11, 86
6, 97760, Control_c, 0, 11, 87
6, 97780, Control_c, 0, 11, 88
6, 97800, Control_c, 0, 11, 90
6, 97820, Control_c, 0, 11, 91
6, 97840, Control_c, 0, 11, 92
6, 97860, Control_c, 0, 11, 93
6, 97880, Control_c, 0, 11, 95
6, 97900, Control_c, 0, 11, 96
6, 97920, Control_c, 0, 11, 97
6, 97940, Control_c, 0, 11, 98
6, 97960, Control_c, 0, 11, 100
6, 97980, Control_c, 0, 11, 101
6, 98000, Control_c, 0, 11, 102
6, 98020, Control_c, 0, 11, 103
6, 98040, Control_c, 0, 11, 105
6, 98060, Control_c, 0, 11, 106
6, 98080, Control_c, 0, 11, 107
6, 98100, Control_c, 0, 11, 108
6, 98120, Control_c, 0, 11, 110
6, 98140, Control_c, 0, 11, 111
6, 98160, Control_c, 0, 11, 112
6, 98180, Control_c, 0, 11, 113
6, 98200, Control_c, 0, 11, 115
6, 98220, Control_c, 0, 11, 116
6, 98240, Control_c, 0, 11, 117
6, 98260, Control_c, 0, 11, 118
6, 98280, Control_c, 0, 11, 120
6, 98300, Control_c, 0, 11, 121
6, 98320, Control_c, 0, 11, 122
6, 98340, Control_c, 0, 11, 123
6, 98360, Control_c, 0, 11, 125
6, 98380, Control_c, 0, 11, 127
6, 98504, Note_on_c, 0, 83, 0
6, 98504, Note_on_c, 0, 89, 0
6, 98520, Note_on_c, 0, 89, 80
6, 98520, Note_on_c, 0, 77, 80
6, 98601, Note_on_c, 0, 89, 0
6, 98601, Note_on_c, 0, 77, 0
6, 98610, Note_on_c, 0, 89, 80
6, 98610, Note_on_c, 0, 77, 80
6, 98631, Note_on_c, 0, 89, 0
6, 98631, Note_on_c, 0, 77, 0
6, 98640, Note_on_c, 0, 80, 92
6, 98640, Note_on_c, 0, 92, 92
6, 98700, Control_c, 0, 11, 107
6, 98984, Note_on_c, 0, 80, 0
6, 98984, Note_on_c, 0, 92, 0
6, 99000, Note_on_c, 0, 86, 92
6, 99000, Note_on_c, 0, 74, 92
6, 99081, Note_on_c, 0, 86, 0
6, 99081, Note_on_c, 0, 74, 0
6, 99090, Note_on_c, 0, 74, 92
6, 99090, Note_on_c, 0, 86, 92
6, 99111, Note_on_c, 0, 74, 0
6, 99111, Note_on_c, 0, 86, 0
6, 99118, Control_c, 0, 11, 127
6, 99120, Note_on_c, 0, 89, 92
6, 99120, Note_on_c, 0, 77, 92
6, 99180, Control_c, 0, 11, 107
6, 99464, Note_on_c, 0, 89, 0
6, 99464, Note_on_c, 0, 77, 0
6, 99480, Note_on_c, 0, 71, 92
6, 99480, Note_on_c, 0, 83, 92
6, 99561, Note_on_c, 0, 71, 0
6, 99561, Note_on_c, 0, 83, 0
6, 99570, Note_on_c, 0, 71, 92
6, 99570, Note_on_c, 0, 83, 92
6, 99591, Note_on_c, 0, 71, 0
6, 99591, Note_on_c, 0, 83, 0
6, 99598, Control_c, 0, 11, 127
6, 99600, Note_on_c, 0, 86, 92
6, 99600, Note_on_c, 0, 74, 92
6, 99704, Note_on_c, 0, 86, 0
6, 99704, Note_on_c, 0, 74, 0
6, 99720, Note_on_c, 0, 89, 80
6, 99720, Note_on_c, 0, 77, 80
6, 99801, Note_on_c, 0, 89, 0
6, 99801, Note_on_c, 0, 77, 0
6, 99810, Note_on_c, 0, 77, 80
6, 99810, Note_on_c, 0, 89, 80
6, 99831, Note_on_c, 0, 77, 0
6, 99831, Note_on_c, 0, 89, 0
6, 99840, Note_on_c, 0, 80, 92
6, 99840, Note_on_c, 0, 92, 92
6, 99944, Note_on_c, 0, 80, 0
6, 99944, Note_on_c, 0, 92, 0
6, 99960, Note_on_c, 0, 74, 80
6, 99960, Note_on_c, 0, 86, 80
6, 100041, Note_on_c, 0, 74, 0
6, 100041, Note_on_c, 0, 86, 0
6, 100050, Note_on_c, 0, 86, 80
6, 100050, Note_on_c, 0, 74, 80
6, 100071, Note_on_c, 0, 86, 0
6, 100071, Note_on_c, 0, 74, 0
6, 100080, Note_on_c, 0, 91, 92
6, 100080, Note_on_c, 0, 79, 92
6, 100184, Note_on_c, 0, 91, 0
6, 100184, Note_on_c, 0, 79, 0
6, 100200, Note_on_c, 0, 79, 80
6, 100200, Note_on_c, 0, 67, 80
6, 100281, Note_on_c, 0, 79, 0
6, 100281, Note_on_c, 0, 67, 0
6, 100290, Note_on_c, 0, 79, 80
6, 100290, Note_on_c, 0, 67, 80
6, 100311, Note_on_c, 0, 79, 0
6, 100311, Note_on_c, 0, 67, 0
6, 100320, Note_on_c, 0, 72, 44
6, 100320, Note_on_c, 0, 84, 44
6, 100439, Note_on_c, 0, 72, 0
6, 100439, Note_on_c, 0, 84, 0
6, 103200, Note_on_c, 0, 87, 44
6, 103379, Note_on_c, 0, 87, 0
6, 103440, Note_on_c, 0, 86, 54
6, 103619, Note_on_c, 0, 86, 0
6, 103680, Note_on_c, 0, 84, 64
6, 103859, Note_on_c, 0, 84, 0
6, 103920, Note_on_c, 0, 83, 74
6, 104024, Note_on_c, 0, 83, 0
6, 104040, Note_on_c, 0, 91, 80
6, 104519, Note_on_c, 0, 91, 0
6, 104520, Note_on_c, 0, 67, 92
6, 104580, Control_c, 0, 11, 107
6, 104984, Note_on_c, 0, 67, 0
6, 104998, Control_c, 0, 11, 127
6, 105000, Note_on_c, 0, 67, 92
6, 105060, Control_c, 0, 11, 107
6, 105224, Note_on_c, 0, 67, 0
6, 105238, Control_c, 0, 11, 127
6, 105240, Note_on_c, 0, 91, 92
6, 105240, Note_on_c, 0, 79, 92
6, 105300, Control_c, 0, 11, 107
6, 105464, Note_on_c, 0, 91, 0
6, 105464, Note_on_c, 0, 79, 0
6, 105478, Control_c, 0, 11, 127
6, 105480, Note_on_c, 0, 67, 80
6, 105704, Note_on_c, 0, 67, 0
6, 105720, Note_on_c, 0, 79, 80
6, 105720, Note_on_c, 0, 91, 80
6, 105944, Note_on_c, 0, 79, 0
6, 105944, Note_on_c, 0, 91, 0
6, 105960, Note_on_c, 0, 91, 80
6, 105960, Note_on_c, 0, 79, 80
6, 106184, Note_on_c, 0, 91, 0
6, 106184, Note_on_c, 0, 79, 0
6, 106200, Note_on_c, 0, 79, 80
6, 106200, Note_on_c, 0, 91, 80
6, 106424, Note_on_c, 0, 79, 0
6, 106424, Note_on_c, 0, 91, 0
6, 106440, Note_on_c, 0, 91, 80
6, 106440, Note_on_c, 0, 79, 80
6, 106664, Note_on_c, 0, 91, 0
6, 106664, Note_on_c, 0, 79, 0
6, 106680, Note_on_c, 0, 91, 80
6, 106680, Note_on_c, 0, 79, 80
6, 106769, Note_on_c, 0, 91, 0
6, 106769, Note_on_c, 0, 79, 0
6, 106800, Note_on_c, 0, 86, 80
6, 106800, Note_on_c, 0, 74, 80
6, 106889, Note_on_c, 0, 86, 0
6, 106889, Note_on_c, 0, 74, 0
6, 106920, Note_on_c, 0, 86, 80
6, 107009, Note_on_c, 0, 86, 0
6, 107040, Note_on_c, 0, 79, 80
6, 107331, Note_on_c, 0, 79, 0
6, 107340, Note_on_c, 0, 82, 80
6, 107384, Note_on_c, 0, 82, 0
6, 107400, Note_on_c, 0, 81, 80
6, 107444, Note_on_c, 0, 81, 0
6, 107460, Note_on_c, 0, 79, 80
6, 107504, Note_on_c, 0, 79, 0
6, 107520, Note_on_c, 0, 86, 80
6, 107609, Note_on_c, 0, 86, 0
6, 107640, Note_on_c, 0, 84, 80
6, 107729, Note_on_c, 0, 84, 0
6, 107760, Note_on_c, 0, 81, 80
6, 107849, Note_on_c, 0, 81, 0
6, 107880, Note_on_c, 0, 86, 80
6, 108104, Note_on_c, 0, 86, 0
6, 108120, Note_on_c, 0, 82, 80
6, 108209, Note_on_c, 0, 82, 0
6, 108240, Note_on_c, 0, 79, 80
6, 108329, Note_on_c, 0, 79, 0
6, 108360, Note_on_c, 0, 86, 80
6, 108584, Note_on_c, 0, 86, 0
6, 108600, Note_on_c, 0, 81, 80
6, 108689, Note_on_c, 0, 81, 0
6, 108720, Note_on_c, 0, 78, 80
6, 108809, Note_on_c, 0, 78, 0
6, 108840, Note_on_c, 0, 86, 80
6, 109064, Note_on_c, 0, 86, 0
6, 109080, Note_on_c, 0, 84, 80
6, 109169, Note_on_c, 0, 84, 0
6, 109200, Note_on_c, 0, 82, 80
6, 109289, Note_on_c, 0, 82, 0
6, 109320, Note_on_c, 0, 81, 80
6, 109409, Note_on_c, 0, 81, 0
6, 109440, Note_on_c, 0, 79, 80
6, 109529, Note_on_c, 0, 79, 0
6, 109560, Note_on_c, 0, 77, 80
6, 109649, Note_on_c, 0, 77, 0
6, 109680, Note_on_c, 0, 75, 80
6, 109769, Note_on_c, 0, 75, 0
6, 109800, Note_on_c, 0, 87, 80
6, 110024, Note_on_c, 0, 87, 0
6, 110040, Note_on_c, 0, 88, 80
6, 110129, Note_on_c, 0, 88, 0
6, 110160, Note_on_c, 0, 89, 80
6, 110249, Note_on_c, 0, 89, 0
6, 110280, Note_on_c, 0, 91, 80
6, 110459, Note_on_c, 0, 91, 0
6, 110460, Note_on_c, 0, 89, 80
6, 110511, Note_on_c, 0, 89, 0
6, 110520, Note_on_c, 0, 89, 80
6, 110564, Note_on_c, 0, 89, 0
6, 110580, Note_on_c, 0, 87, 80
6, 110624, Note_on_c, 0, 87, 0
6, 110640, Note_on_c, 0, 87, 80
6, 110684, Note_on_c, 0, 87, 0
6, 110700, Note_on_c, 0, 86, 80
6, 110744, Note_on_c, 0, 86, 0
6, 110760, Note_on_c, 0, 87, 80
6, 110804, Note_on_c, 0, 87, 0
6, 110820, Note_on_c, 0, 89, 80
6, 110864, Note_on_c, 0, 89, 0
6, 110880, Note_on_c, 0, 86, 80
6, 110924, Note_on_c, 0, 86, 0
6, 110940, Note_on_c, 0, 89, 80
6, 110984, Note_on_c, 0, 89, 0
6, 111000, Note_on_c, 0, 87, 80
6, 111044, Note_on_c, 0, 87, 0
6, 111060, Note_on_c, 0, 86, 80
6, 111104, Note_on_c, 0, 86, 0
6, 111120, Note_on_c, 0, 84, 80
6, 111164, Note_on_c, 0, 84, 0
6, 111180, Note_on_c, 0, 82, 80
6, 111224, Note_on_c, 0, 82, 0
6, 111240, Note_on_c, 0, 81, 80
6, 111284, Note_on_c, 0, 81, 0
6, 111300, Note_on_c, 0, 82, 80
6, 111344, Note_on_c, 0, 82, 0
6, 111360, Note_on_c, 0, 82, 80
6, 111419, Note_on_c, 0, 82, 0
6, 111420, Note_on_c, 0, 81, 80
6, 111471, Note_on_c, 0, 81, 0
6, 111480, Note_on_c, 0, 81, 80
6, 111524, Note_on_c, 0, 81, 0
6, 111540, Note_on_c, 0, 84, 80
6, 111584, Note_on_c, 0, 84, 0
6, 111600, Note_on_c, 0, 81, 80
6, 111644, Note_on_c, 0, 81, 0
6, 111660, Note_on_c, 0, 84, 80
6, 111704, Note_on_c, 0, 84, 0
6, 111720, Note_on_c, 0, 82, 80
6, 111764, Note_on_c, 0, 82, 0
6, 111780, Note_on_c, 0, 81, 80
6, 111824, Note_on_c, 0, 81, 0
6, 111840, Note_on_c, 0, 84, 80
6, 111899, Note_on_c, 0, 84, 0
6, 111900, Note_on_c, 0, 82, 80
6, 111951, Note_on_c, 0, 82, 0
6, 111960, Note_on_c, 0, 82, 80
6, 112004, Note_on_c, 0, 82, 0
6, 112020, Note_on_c, 0, 86, 80
6, 112064, Note_on_c, 0, 86, 0
6, 112080, Note_on_c, 0, 86, 80
6, 112124, Note_on_c, 0, 86, 0
6, 112140, Note_on_c, 0, 86, 80
6, 112184, Note_on_c, 0, 86, 0
6, 112200, Note_on_c, 0, 84, 80
6, 112244, Note_on_c, 0, 84, 0
6, 112260, Note_on_c, 0, 82, 80
6, 112304, Note_on_c, 0, 82, 0
6, 112320, Note_on_c, 0, 86, 80
6, 112379, Note_on_c, 0, 86, 0
6, 112380, Note_on_c, 0, 84, 80
6, 112431, Note_on_c, 0, 84, 0
6, 112440, Note_on_c, 0, 84, 80
6, 112484, Note_on_c, 0, 84, 0
6, 112500, Note_on_c, 0, 87, 80
6, 112544, Note_on_c, 0, 87, 0
6, 112560, Note_on_c, 0, 84, 80
6, 112604, Note_on_c, 0, 84, 0
6, 112620, Note_on_c, 0, 89, 80
6, 112664, Note_on_c, 0, 89, 0
6, 112680, Note_on_c, 0, 89, 80
6, 112724, Note_on_c, 0, 89, 0
6, 112740, Note_on_c, 0, 89, 80
6, 112784, Note_on_c, 0, 89, 0
6, 112800, Note_on_c, 0, 82, 80
6, 113091, Note_on_c, 0, 82, 0
6, 113100, Note_on_c, 0, 86, 80
6, 113144, Note_on_c, 0, 86, 0
6, 113160, Note_on_c, 0, 84, 80
6, 113204, Note_on_c, 0, 84, 0
6, 113220, Note_on_c, 0, 82, 80
6, 113264, Note_on_c, 0, 82, 0
6, 113280, Note_on_c, 0, 89, 80
6, 113369, Note_on_c, 0, 89, 0
6, 113400, Note_on_c, 0, 87, 80
6, 113489, Note_on_c, 0, 87, 0
6, 113520, Note_on_c, 0, 84, 80
6, 113609, Note_on_c, 0, 84, 0
6, 113640, Note_on_c, 0, 89, 80
6, 113864, Note_on_c, 0, 89, 0
6, 113880, Note_on_c, 0, 86, 80
6, 113969, Note_on_c, 0, 86, 0
6, 114000, Note_on_c, 0, 82, 80
6, 114089, Note_on_c, 0, 82, 0
6, 114120, Note_on_c, 0, 89, 80
6, 114344, Note_on_c, 0, 89, 0
6, 114360, Note_on_c, 0, 84, 80
6, 114449, Note_on_c, 0, 84, 0
6, 114480, Note_on_c, 0, 81, 80
6, 114569, Note_on_c, 0, 81, 0
6, 114600, Note_on_c, 0, 89, 80
6, 114824, Note_on_c, 0, 89, 0
6, 114840, Note_on_c, 0, 86, 80
6, 114929, Note_on_c, 0, 86, 0
6, 114960, Note_on_c, 0, 82, 80
6, 115049, Note_on_c, 0, 82, 0
6, 115080, Note_on_c, 0, 91, 80
6, 115304, Note_on_c, 0, 91, 0
6, 115320, Note_on_c, 0, 86, 80
6, 115409, Note_on_c, 0, 86, 0
6, 115440, Note_on_c, 0, 74, 80
6, 115529, Note_on_c, 0, 74, 0
6, 115560, Note_on_c, 0, 91, 80
6, 115784, Note_on_c, 0, 91, 0
6, 115800, Note_on_c, 0, 86, 80
6, 115889, Note_on_c, 0, 86, 0
6, 115920, Note_on_c, 0, 74, 80
6, 116009, Note_on_c, 0, 74, 0
6, 116040, Note_on_c, 0, 89, 80
6, 116264, Note_on_c, 0, 89, 0
6, 116280, Note_on_c, 0, 83, 80
6, 116369, Note_on_c, 0, 83, 0
6, 116400, Note_on_c, 0, 74, 80
6, 116489, Note_on_c, 0, 74, 0
6, 116520, Note_on_c, 0, 89, 80
6, 116744, Note_on_c, 0, 89, 0
6, 116760, Note_on_c, 0, 83, 80
6, 116849, Note_on_c, 0, 83, 0
6, 116880, Note_on_c, 0, 74, 80
6, 116969, Note_on_c, 0, 74, 0
6, 117000, Note_on_c, 0, 88, 80
6, 117224, Note_on_c, 0, 88, 0
6, 117240, Note_on_c, 0, 81, 80
6, 117329, Note_on_c, 0, 81, 0
6, 117360, Note_on_c, 0, 74, 80
6, 117449, Note_on_c, 0, 74, 0
6, 117480, Note_on_c, 0, 88, 80
6, 117704, Note_on_c, 0, 88, 0
6, 117720, Note_on_c, 0, 81, 80
6, 117809, Note_on_c, 0, 81, 0
6, 117840, Note_on_c, 0, 74, 80
6, 117929, Note_on_c, 0, 74, 0
6, 117960, Note_on_c, 0, 86, 80
6, 118184, Note_on_c, 0, 86, 0
6, 118200, Note_on_c, 0, 76, 80
6, 118289, Note_on_c, 0, 76, 0
6, 118320, Note_on_c, 0, 69, 80
6, 118409, Note_on_c, 0, 69, 0
6, 118440, Note_on_c, 0, 86, 80
6, 118664, Note_on_c, 0, 86, 0
6, 118680, Note_on_c, 0, 76, 80
6, 118769, Note_on_c, 0, 76, 0
6, 118800, Note_on_c, 0, 69, 80
6, 118889, Note_on_c, 0, 69, 0
6, 118920, Note_on_c, 0, 84, 80
6, 119144, Note_on_c, 0, 84, 0
6, 119160, Note_on_c, 0, 80, 80
6, 119249, Note_on_c, 0, 80, 0
6, 119280, Note_on_c, 0, 77, 80
6, 119369, Note_on_c, 0, 77, 0
6, 119400, Note_on_c, 0, 83, 80
6, 119624, Note_on_c, 0, 83, 0
6, 119640, Note_on_c, 0, 86, 80
6, 119729, Note_on_c, 0, 86, 0
6, 119760, Note_on_c, 0, 89, 80
6, 119849, Note_on_c, 0, 89, 0
6, 119880, Note_on_c, 0, 84, 80
6, 120104, Note_on_c, 0, 84, 0
6, 120120, Note_on_c, 0, 80, 80
6, 120209, Note_on_c, 0, 80, 0
6, 120240, Note_on_c, 0, 77, 80
6, 120329, Note_on_c, 0, 77, 0
6, 120360, Note_on_c, 0, 83, 80
6, 120584, Note_on_c, 0, 83, 0
6, 120600, Note_on_c, 0, 86, 80
6, 120689, Note_on_c, 0, 86, 0
6, 120720, Note_on_c, 0, 89, 80
6, 120809, Note_on_c, 0, 89, 0
6, 121020, Note_on_c, 0, 83, 44
6, 121064, Note_on_c, 0, 83, 0
6, 121080, Note_on_c, 0, 84, 44
6, 121124, Note_on_c, 0, 84, 0
6, 121140, Note_on_c, 0, 86, 44
6, 121184, Note_on_c, 0, 86, 0
6, 121200, Note_on_c, 0, 86, 44
6, 121319, Note_on_c, 0, 86, 0
6, 121500, Note_on_c, 0, 83, 38
6, 121544, Note_on_c, 0, 83, 0
6, 121560, Note_on_c, 0, 84, 38
6, 121604, Note_on_c, 0, 84, 0
6, 121620, Note_on_c, 0, 86, 38
6, 121664, Note_on_c, 0, 86, 0
6, 121680, Note_on_c, 0, 86, 38
6, 121799, Note_on_c, 0, 86, 0
6, 121920, Note_on_c, 0, 84, 44
6, 121920, Note_on_c, 0, 81, 44
6, 122211, Note_on_c, 0, 84, 0
6, 122211, Note_on_c, 0, 81, 0
6, 122220, Note_on_c, 0, 88, 44
6, 122220, Note_on_c, 0, 84, 44
6, 122264, Note_on_c, 0, 88, 0
6, 122264, Note_on_c, 0, 84, 0
6, 122280, Note_on_c, 0, 86, 44
6, 122280, Note_on_c, 0, 83, 44
6, 122324, Note_on_c, 0, 86, 0
6, 122324, Note_on_c, 0, 83, 0
6, 122340, Note_on_c, 0, 81, 44
6, 122340, Note_on_c, 0, 84, 44
6, 122384, Note_on_c, 0, 81, 0
6, 122384, Note_on_c, 0, 84, 0
6, 122400, Note_on_c, 0, 84, 44
6, 122400, Note_on_c, 0, 81, 44
6, 122691, Note_on_c, 0, 84, 0
6, 122691, Note_on_c, 0, 81, 0
6, 122700, Note_on_c, 0, 84, 44
6, 122700, Note_on_c, 0, 88, 44
6, 122744, Note_on_c, 0, 84, 0
6, 122744, Note_on_c, 0, 88, 0
6, 122760, Note_on_c, 0, 83, 44
6, 122760, Note_on_c, 0, 86, 44
6, 122804, Note_on_c, 0, 83, 0
6, 122804, Note_on_c, 0, 86, 0
6, 122820, Note_on_c, 0, 84, 44
6, 122820, Note_on_c, 0, 81, 44
6, 122864, Note_on_c, 0, 84, 0
6, 122864, Note_on_c, 0, 81, 0
6, 122880, Note_on_c, 0, 83, 44
6, 122880, Note_on_c, 0, 80, 44
6, 122999, Note_on_c, 0, 83, 0
6, 122999, Note_on_c, 0, 80, 0
6, 123180, Note_on_c, 0, 89, 44
6, 123224, Note_on_c, 0, 89, 0
6, 123240, Note_on_c, 0, 88, 44
6, 123284, Note_on_c, 0, 88, 0
6, 123300, Note_on_c, 0, 86, 44
6, 123344, Note_on_c, 0, 86, 0
6, 123360, Note_on_c, 0, 86, 32
6, 123479, Note_on_c, 0, 86, 0
6, 123660, Note_on_c, 0, 89, 32
6, 123704, Note_on_c, 0, 89, 0
6, 123720, Note_on_c, 0, 88, 32
6, 123764, Note_on_c, 0, 88, 0
6, 123780, Note_on_c, 0, 88, 32
6, 123824, Note_on_c, 0, 88, 0
6, 123840, Note_on_c, 0, 88, 32
6, 124784, Note_on_c, 0, 88, 0
6, 124800, Note_on_c, 0, 86, 32
6, 125099, Note_on_c, 0, 86, 0
6, 125100, Note_on_c, 0, 89, 32
6, 125151, Note_on_c, 0, 89, 0
6, 125160, Note_on_c, 0, 88, 32
6, 125204, Note_on_c, 0, 88, 0
6, 125220, Note_on_c, 0, 86, 32
6, 125264, Note_on_c, 0, 86, 0
6, 125280, Note_on_c, 0, 86, 32
6, 125579, Note_on_c, 0, 86, 0
6, 125580, Note_on_c, 0, 89, 32
6, 125631, Note_on_c, 0, 89, 0
6, 125640, Note_on_c, 0, 88, 32
6, 125684, Note_on_c, 0, 88, 0
6, 125700, Note_on_c, 0, 86, 32
6, 125744, Note_on_c, 0, 86, 0
6, 125760, Note_on_c, 0, 86, 32
6, 125999, Note_on_c, 0, 86, 0
6, 126000, Note_on_c, 0, 84, 32
6, 126479, Note_on_c, 0, 84, 0
6, 126480, Note_on_c, 0, 88, 32
6, 126704, Note_on_c, 0, 88, 0
6, 126718, Control_c, 0, 11, 67
6, 126720, Note_on_c, 0, 86, 68
6, 126720, Control_c, 0, 11, 67
6, 126764, Control_c, 0, 11, 68
6, 126808, Control_c, 0, 11, 69
6, 126852, Control_c, 0, 11, 70
6, 126896, Control_c, 0, 11, 71
6, 126940, Control_c, 0, 11, 72
6, 126984, Control_c, 0, 11, 73
6, 127019, Note_on_c, 0, 86, 0
6, 127020, Note_on_c, 0, 89, 68
6, 127028, Control_c, 0, 11, 74
6, 127071, Note_on_c, 0, 89, 0
6, 127072, Control_c, 0, 11, 75
6, 127080, Note_on_c, 0, 88, 68
6, 127116, Control_c, 0, 11, 76
6, 127124, Note_on_c, 0, 88, 0
6, 127140, Note_on_c, 0, 86, 68
6, 127160, Control_c, 0, 11, 77
6, 127184, Note_on_c, 0, 86, 0
6, 127200, Note_on_c, 0, 86, 68
6, 127204, Control_c, 0, 11, 78
6, 127248, Control_c, 0, 11, 79
6, 127292, Control_c, 0, 11, 80
6, 127336, Control_c, 0, 11, 81
6, 127380, Control_c, 0, 11, 82
6, 127424, Control_c, 0, 11, 83
6, 127468, Control_c, 0, 11, 84
6, 127499, Note_on_c, 0, 86, 0
6, 127500, Note_on_c, 0, 83, 68
6, 127500, Note_on_c, 0, 89, 68
6, 127512, Control_c, 0, 11, 85
6, 127544, Note_on_c, 0, 83, 0
6, 127551, Note_on_c, 0, 89, 0
6, 127556, Control_c, 0, 11, 86
6, 127560, Note_on_c, 0, 84, 68
6, 127560, Note_on_c, 0, 88, 68
6, 127600, Control_c, 0, 11, 87
6, 127604, Note_on_c, 0, 84, 0
6, 127604, Note_on_c, 0, 88, 0
6, 127620, Note_on_c, 0, 86, 68
6, 127644, Control_c, 0, 11, 88
6, 127664, Note_on_c, 0, 86, 0
6, 127680, Note_on_c, 0, 84, 68
6, 127688, Control_c, 0, 11, 89
6, 127731, Note_on_c, 0, 84, 0
6, 127732, Control_c, 0, 11, 90
6, 127740, Note_on_c, 0, 93, 68
6, 127740, Note_on_c, 0, 84, 68
6, 127776, Control_c, 0, 11, 91
6, 127784, Note_on_c, 0, 93, 0
6, 127791, Note_on_c, 0, 84, 0
6, 127800, Note_on_c, 0, 91, 68
6, 127800, Note_on_c, 0, 84, 68
6, 127820, Control_c, 0, 11, 92
6, 127844, Note_on_c, 0, 91, 0
6, 127851, Note_on_c, 0, 84, 0
6, 127860, Note_on_c, 0, 89, 68
6, 127860, Note_on_c, 0, 84, 68
6, 127864, Control_c, 0, 11, 93
6, 127904, Note_on_c, 0, 89, 0
6, 127908, Control_c, 0, 11, 94
6, 127911, Note_on_c, 0, 84, 0
6, 127920, Note_on_c, 0, 84, 68
6, 127952, Control_c, 0, 11, 95
6, 127971, Note_on_c, 0, 84, 0
6, 127980, Note_on_c, 0, 91, 68
6, 127980, Note_on_c, 0, 84, 68
6, 127996, Control_c, 0, 11, 96
6, 128024, Note_on_c, 0, 91, 0
6, 128031, Note_on_c, 0, 84, 0
6, 128040, Control_c, 0, 11, 97
6, 128040, Note_on_c, 0, 84, 68
6, 128040, Note_on_c, 0, 89, 68
6, 128084, Note_on_c, 0, 89, 0
6, 128084, Control_c, 0, 11, 98
6, 128091, Note_on_c, 0, 84, 0
6, 128100, Note_on_c, 0, 84, 68
6, 128100, Note_on_c, 0, 88, 68
6, 128128, Control_c, 0, 11, 99
6, 128144, Note_on_c, 0, 88, 0
6, 128151, Note_on_c, 0, 84, 0
6, 128160, Note_on_c, 0, 86, 68
6, 128160, Note_on_c, 0, 81, 68
6, 128172, Control_c, 0, 11, 100
6, 128211, Note_on_c, 0, 86, 0
6, 128216, Control_c, 0, 11, 101
6, 128219, Note_on_c, 0, 81, 0
6, 128220, Note_on_c, 0, 89, 68
6, 128260, Control_c, 0, 11, 102
6, 128271, Note_on_c, 0, 89, 0
6, 128280, Note_on_c, 0, 88, 68
6, 128304, Control_c, 0, 11, 103
6, 128331, Note_on_c, 0, 88, 0
6, 128340, Note_on_c, 0, 86, 68
6, 128348, Control_c, 0, 11, 104
6, 128391, Note_on_c, 0, 86, 0
6, 128392, Control_c, 0, 11, 105
6, 128400, Note_on_c, 0, 84, 68
6, 128436, Control_c, 0, 11, 106
6, 128451, Note_on_c, 0, 84, 0
6, 128460, Note_on_c, 0, 88, 68
6, 128480, Control_c, 0, 11, 107
6, 128511, Note_on_c, 0, 88, 0
6, 128520, Note_on_c, 0, 86, 68
6, 128524, Control_c, 0, 11, 108
6, 128568, Control_c, 0, 11, 109
6, 128571, Note_on_c, 0, 86, 0
6, 128580, Note_on_c, 0, 84, 68
6, 128612, Control_c, 0, 11, 110
6, 128631, Note_on_c, 0, 84, 0
6, 128640, Note_on_c, 0, 83, 68
6, 128656, Control_c, 0, 11, 111
6, 128691, Note_on_c, 0, 83, 0
6, 128700, Control_c, 0, 11, 112
6, 128700, Note_on_c, 0, 86, 68
6, 128744, Control_c, 0, 11, 113
6, 128751, Note_on_c, 0, 86, 0
6, 128760, Note_on_c, 0, 84, 68
6, 128788, Control_c, 0, 11, 114
6, 128811, Note_on_c, 0, 84, 0
6, 128820, Note_on_c, 0, 83, 68
6, 128832, Control_c, 0, 11, 115
6, 128871, Note_on_c, 0, 83, 0
6, 128876, Control_c, 0, 11, 116
6, 128880, Note_on_c, 0, 81, 68
6, 128920, Control_c, 0, 11, 117
6, 128931, Note_on_c, 0, 81, 0
6, 128940, Note_on_c, 0, 84, 68
6, 128964, Control_c, 0, 11, 118
6, 128991, Note_on_c, 0, 84, 0
6, 129000, Note_on_c, 0, 83, 68
6, 129008, Control_c, 0, 11, 119
6, 129051, Note_on_c, 0, 83, 0
6, 129052, Control_c, 0, 11, 120
6, 129060, Note_on_c, 0, 81, 68
6, 129096, Control_c, 0, 11, 121
6, 129111, Note_on_c, 0, 81, 0
6, 129120, Note_on_c, 0, 79, 68
6, 129140, Control_c, 0, 11, 122
6, 129171, Note_on_c, 0, 79, 0
6, 129180, Note_on_c, 0, 83, 68
6, 129184, Control_c, 0, 11, 123
6, 129228, Control_c, 0, 11, 124
6, 129231, Note_on_c, 0, 83, 0
6, 129240, Note_on_c, 0, 81, 68
6, 129272, Control_c, 0, 11, 125
6, 129291, Note_on_c, 0, 81, 0
6, 129300, Note_on_c, 0, 79, 68
6, 129316, Control_c, 0, 11, 127
6, 129351, Note_on_c, 0, 79, 0
6, 129360, Note_on_c, 0, 77, 68
6, 129411, Note_on_c, 0, 77, 0
6, 129420, Note_on_c, 0, 81, 59
6, 129471, Note_on_c, 0, 81, 0
6, 129480, Note_on_c, 0, 79, 50
6, 129531, Note_on_c, 0, 79, 0
6, 129540, Note_on_c, 0, 77, 41
6, 129591, Note_on_c, 0, 77, 0
6, 129600, Note_on_c, 0, 76, 32
6, 129891, Note_on_c, 0, 76, 0
6, 129900, Note_on_c, 0, 81, 32
6, 129944, Note_on_c, 0, 81, 0
6, 129960, Note_on_c, 0, 79, 32
6, 130004, Note_on_c, 0, 79, 0
6, 130020, Note_on_c, 0, 77, 32
6, 130064, Note_on_c, 0, 77, 0
6, 130080, Note_on_c, 0, 76, 32
6, 130184, Note_on_c, 0, 76, 0
6, 130200, Note_on_c, 0, 88, 32
6, 130304, Note_on_c, 0, 88, 0
6, 130320, Note_on_c, 0, 88, 32
6, 130424, Note_on_c, 0, 88, 0
6, 130440, Note_on_c, 0, 88, 32
6, 130544, Note_on_c, 0, 88, 0
6, 130560, Note_on_c, 0, 88, 32
6, 130851, Note_on_c, 0, 88, 0
6, 130860, Note_on_c, 0, 93, 32
6, 130904, Note_on_c, 0, 93, 0
6, 130920, Note_on_c, 0, 91, 32
6, 130964, Note_on_c, 0, 91, 0
6, 130980, Note_on_c, 0, 89, 32
6, 131024, Note_on_c, 0, 89, 0
6, 131040, Note_on_c, 0, 88, 32
6, 131159, Note_on_c, 0, 88, 0
6, 131340, Note_on_c, 0, 81, 32
6, 131340, Note_on_c, 0, 89, 32
6, 131384, Note_on_c, 0, 81, 0
6, 131384, Note_on_c, 0, 89, 0
6, 131400, Note_on_c, 0, 88, 32
6, 131400, Note_on_c, 0, 81, 32
6, 131444, Note_on_c, 0, 88, 0
6, 131444, Note_on_c, 0, 81, 0
6, 131460, Note_on_c, 0, 86, 32
6, 131460, Note_on_c, 0, 83, 32
6, 131504, Note_on_c, 0, 86, 0
6, 131504, Note_on_c, 0, 83, 0
6, 131520, Note_on_c, 0, 72, 32
6, 131520, Note_on_c, 0, 84, 32
6, 131639, Note_on_c, 0, 72, 0
6, 131639, Note_on_c, 0, 84, 0
6, 132480, Note_on_c, 0, 80, 32
6, 132824, Note_on_c, 0, 80, 0
6, 132840, Note_on_c, 0, 86, 38
6, 132944, Note_on_c, 0, 86, 0
6, 132960, Note_on_c, 0, 83, 32
6, 133304, Note_on_c, 0, 83, 0
6, 133320, Note_on_c, 0, 89, 38
6, 133424, Note_on_c, 0, 89, 0
6, 133440, Note_on_c, 0, 88, 32
6, 133679, Note_on_c, 0, 88, 0
6, 135240, Note_on_c, 0, 82, 50
6, 135344, Note_on_c, 0, 82, 0
6, 135360, Note_on_c, 0, 88, 44
6, 135479, Note_on_c, 0, 88, 0
6, 135480, Note_on_c, 0, 89, 44
6, 135584, Note_on_c, 0, 89, 0
6, 135600, Note_on_c, 0, 81, 44
6, 135644, Note_on_c, 0, 81, 0
6, 135660, Note_on_c, 0, 84, 44
6, 135704, Note_on_c, 0, 84, 0
6, 135720, Note_on_c, 0, 89, 44
6, 135764, Note_on_c, 0, 89, 0
6, 135780, Note_on_c, 0, 93, 44
6, 135824, Note_on_c, 0, 93, 0
6, 135840, Note_on_c, 0, 89, 44
6, 135959, Note_on_c, 0, 89, 0
6, 136080, Note_on_c, 0, 81, 44
6, 136124, Note_on_c, 0, 81, 0
6, 136140, Note_on_c, 0, 84, 44
6, 136184, Note_on_c, 0, 84, 0
6, 136200, Note_on_c, 0, 89, 44
6, 136244, Note_on_c, 0, 89, 0
6, 136260, Note_on_c, 0, 93, 44
6, 136304, Note_on_c, 0, 93, 0
6, 136320, Note_on_c, 0, 82, 44
6, 136439, Note_on_c, 0, 82, 0
6, 136560, Note_on_c, 0, 76, 44
6, 136604, Note_on_c, 0, 76, 0
6, 136620, Note_on_c, 0, 79, 44
6, 136664, Note_on_c, 0, 79, 0
6, 136680, Note_on_c, 0, 84, 44
6, 136724, Note_on_c, 0, 84, 0
6, 136740, Note_on_c, 0, 88, 44
6, 136784, Note_on_c, 0, 88, 0
6, 136800, Note_on_c, 0, 91, 44
6, 136919, Note_on_c, 0, 91, 0
6, 137040, Note_on_c, 0, 79, 44
6, 137084, Note_on_c, 0, 79, 0
6, 137100, Note_on_c, 0, 84, 44
6, 137144, Note_on_c, 0, 84, 0
6, 137160, Note_on_c, 0, 88, 44
6, 137204, Note_on_c, 0, 88, 0
6, 137220, Note_on_c, 0, 91, 44
6, 137264, Note_on_c, 0, 91, 0
6, 137280, Note_on_c, 0, 89, 44
6, 138479, Note_on_c, 0, 89, 0
6, 138480, Note_on_c, 0, 88, 44
6, 139184, Note_on_c, 0, 88, 0
6, 139200, Note_on_c, 0, 89, 44
6, 139499, Note_on_c, 0, 89, 0
6, 139500, Note_on_c, 0, 93, 44
6, 139551, Note_on_c, 0, 93, 0
6, 139560, Note_on_c, 0, 91, 44
6, 139604, Note_on_c, 0, 91, 0
6, 139620, Note_on_c, 0, 89, 44
6, 139664, Note_on_c, 0, 89, 0
6, 139680, Note_on_c, 0, 89, 44
6, 139979, Note_on_c, 0, 89, 0
6, 139980, Note_on_c, 0, 93, 44
6, 140031, Note_on_c, 0, 93, 0
6, 140040, Note_on_c, 0, 91, 44
6, 140084, Note_on_c, 0, 91, 0
6, 140100, Note_on_c, 0, 89, 44
6, 140144, Note_on_c, 0, 89, 0
6, 140160, Note_on_c, 0, 89, 44
6, 140399, Note_on_c, 0, 89, 0
6, 140400, Note_on_c, 0, 88, 44
6, 141104, Note_on_c, 0, 88, 0
6, 141118, Control_c, 0, 11, 67
6, 141120, Control_c, 0, 11, 67
6, 141120, Note_on_c, 0, 88, 80
6, 141140, Control_c, 0, 11, 68
6, 141160, Control_c, 0, 11, 70
6, 141180, Control_c, 0, 11, 71
6, 141200, Control_c, 0, 11, 72
6, 141220, Control_c, 0, 11, 73
6, 141240, Control_c, 0, 11, 75
6, 141260, Control_c, 0, 11, 76
6, 141280, Control_c, 0, 11, 77
6, 141300, Control_c, 0, 11, 78
6, 141320, Control_c, 0, 11, 80
6, 141340, Control_c, 0, 11, 81
6, 141360, Control_c, 0, 11, 82
6, 141380, Control_c, 0, 11, 83
6, 141400, Control_c, 0, 11, 85
6, 141419, Note_on_c, 0, 88, 0
6, 141420, Control_c, 0, 11, 86
6, 141420, Note_on_c, 0, 91, 80
6, 141440, Control_c, 0, 11, 87
6, 141460, Control_c, 0, 11, 88
6, 141471, Note_on_c, 0, 91, 0
6, 141480, Note_on_c, 0, 89, 80
6, 141480, Control_c, 0, 11, 90
6, 141500, Control_c, 0, 11, 91
6, 141520, Control_c, 0, 11, 92
6, 141524, Note_on_c, 0, 89, 0
6, 141540, Note_on_c, 0, 88, 80
6, 141540, Control_c, 0, 11, 93
6, 141560, Control_c, 0, 11, 95
6, 141580, Control_c, 0, 11, 96
6, 141584, Note_on_c, 0, 88, 0
6, 141600, Note_on_c, 0, 88, 80
6, 141600, Control_c, 0, 11, 97
6, 141620, Control_c, 0, 11, 98
6, 141640, Control_c, 0, 11, 100
6, 141660, Control_c, 0, 11, 101
6, 141680, Control_c, 0, 11, 102
6, 141700, Control_c, 0, 11, 103
6, 141720, Control_c, 0, 11, 105
6, 141740, Control_c, 0, 11, 106
6, 141760, Control_c, 0, 11, 107
6, 141780, Control_c, 0, 11, 108
6, 141800, Control_c, 0, 11, 110
6, 141820, Control_c, 0, 11, 111
6, 141840, Control_c, 0, 11, 112
6, 141860, Control_c, 0, 11, 113
6, 141880, Control_c, 0, 11, 115
6, 141899, Note_on_c, 0, 88, 0
6, 141900, Control_c, 0, 11, 116
6, 141900, Note_on_c, 0, 91, 80
6, 141920, Control_c, 0, 11, 117
6, 141940, Control_c, 0, 11, 118
6, 141951, Note_on_c, 0, 91, 0
6, 141960, Note_on_c, 0, 89, 80
6, 141960, Control_c, 0, 11, 120
6, 141980, Control_c, 0, 11, 121
6, 142000, Control_c, 0, 11, 122
6, 142004, Note_on_c, 0, 89, 0
6, 142020, Control_c, 0, 11, 123
6, 142020, Note_on_c, 0, 88, 80
6, 142040, Control_c, 0, 11, 125
6, 142060, Control_c, 0, 11, 127
6, 142064, Note_on_c, 0, 88, 0
6, 142080, Note_on_c, 0, 88, 80
6, 142124, Note_on_c, 0, 88, 0
6, 142140, Note_on_c, 0, 91, 80
6, 142184, Note_on_c, 0, 91, 0
6, 142200, Note_on_c, 0, 89, 80
6, 142244, Note_on_c, 0, 89, 0
6, 142260, Note_on_c, 0, 88, 80
6, 142304, Note_on_c, 0, 88, 0
6, 142320, Note_on_c, 0, 85, 80
6, 142364, Note_on_c, 0, 85, 0
6, 142380, Note_on_c, 0, 88, 80
6, 142424, Note_on_c, 0, 88, 0
6, 142440, Note_on_c, 0, 86, 80
6, 142484, Note_on_c, 0, 86, 0
6, 142500, Note_on_c, 0, 85, 80
6, 142544, Note_on_c, 0, 85, 0
6, 142560, Note_on_c, 0, 79, 80
6, 142604, Note_on_c, 0, 79, 0
6, 142620, Note_on_c, 0, 82, 80
6, 142664, Note_on_c, 0, 82, 0
6, 142680, Note_on_c, 0, 81, 80
6, 142724, Note_on_c, 0, 81, 0
6, 142740, Note_on_c, 0, 79, 80
6, 142784, Note_on_c, 0, 79, 0
6, 142800, Note_on_c, 0, 76, 80
6, 142844, Note_on_c, 0, 76, 0
6, 142860, Note_on_c, 0, 91, 80
6, 142904, Note_on_c, 0, 91, 0
6, 142920, Note_on_c, 0, 89, 80
6, 142964, Note_on_c, 0, 89, 0
6, 142980, Note_on_c, 0, 88, 80
6, 143024, Note_on_c, 0, 88, 0
6, 143040, Note_on_c, 0, 85, 80
6, 143084, Note_on_c, 0, 85, 0
6, 143100, Note_on_c, 0, 88, 80
6, 143144, Note_on_c, 0, 88, 0
6, 143160, Note_on_c, 0, 86, 80
6, 143204, Note_on_c, 0, 86, 0
6, 143220, Note_on_c, 0, 85, 80
6, 143264, Note_on_c, 0, 85, 0
6, 143280, Note_on_c, 0, 79, 80
6, 143324, Note_on_c, 0, 79, 0
6, 143340, Note_on_c, 0, 82, 80
6, 143384, Note_on_c, 0, 82, 0
6, 143400, Note_on_c, 0, 81, 80
6, 143444, Note_on_c, 0, 81, 0
6, 143460, Note_on_c, 0, 79, 80
6, 143504, Note_on_c, 0, 79, 0
6, 143520, Note_on_c, 0, 88, 80
6, 143564, Note_on_c, 0, 88, 0
6, 143580, Note_on_c, 0, 89, 80
6, 143624, Note_on_c, 0, 89, 0
6, 143640, Note_on_c, 0, 88, 80
6, 143684, Note_on_c, 0, 88, 0
6, 143700, Note_on_c, 0, 86, 80
6, 143744, Note_on_c, 0, 86, 0
6, 143760, Note_on_c, 0, 85, 80
6, 143804, Note_on_c, 0, 85, 0
6, 143820, Note_on_c, 0, 82, 80
6, 143864, Note_on_c, 0, 82, 0
6, 143880, Note_on_c, 0, 81, 80
6, 143924, Note_on_c, 0, 81, 0
6, 143940, Note_on_c, 0, 79, 80
6, 143984, Note_on_c, 0, 79, 0
6, 144000, Note_on_c, 0, 86, 92
6, 145881, Note_on_c, 0, 86, 0
6, 145890, Note_on_c, 0, 93, 92
6, 145911, Note_on_c, 0, 93, 0
6, 145920, Note_on_c, 0, 86, 92
6, 147801, Note_on_c, 0, 86, 0
6, 147810, Note_on_c, 0, 93, 92
6, 147831, Note_on_c, 0, 93, 0
6, 147840, Note_on_c, 0, 86, 92
6, 148761, Note_on_c, 0, 86, 0
6, 148770, Note_on_c, 0, 93, 92
6, 148791, Note_on_c, 0, 93, 0
6, 148800, Note_on_c, 0, 86, 92
6, 149624, Note_on_c, 0, 86, 0
6, 149640, Note_on_c, 0, 92, 92
6, 150719, Note_on_c, 0, 92, 0
6, 150720, Note_on_c, 0, 93, 92
6, 151641, Note_on_c, 0, 93, 0
6, 151650, Note_on_c, 0, 86, 92
6, 151671, Note_on_c, 0, 86, 0
6, 151680, Note_on_c, 0, 93, 92
6, 152121, Note_on_c, 0, 93, 0
6, 152130, Note_on_c, 0, 89, 92
6, 152151, Note_on_c, 0, 89, 0
6, 152160, Note_on_c, 0, 86, 92
6, 152361, Note_on_c, 0, 86, 0
6, 152370, Note_on_c, 0, 81, 92
6, 152391, Note_on_c, 0, 81, 0
6, 152400, Note_on_c, 0, 77, 92
6, 152564, Note_on_c, 0, 77, 0
6, 152580, Note_on_c, 0, 93, 92
6, 152609, Note_on_c, 0, 93, 0
6, 152610, Note_on_c, 0, 89, 92
6, 152631, Note_on_c, 0, 89, 0
6, 152640, Note_on_c, 0, 86, 92
6, 153584, Note_on_c, 0, 86, 0
6, 153600, Note_on_c, 0, 86, 92
6, 153891, Note_on_c, 0, 86, 0
6, 153900, Note_on_c, 0, 89, 92
6, 153944, Note_on_c, 0, 89, 0
6, 153960, Note_on_c, 0, 88, 92
6, 154004, Note_on_c, 0, 88, 0
6, 154020, Note_on_c, 0, 86, 92
6, 154064, Note_on_c, 0, 86, 0
6, 154080, Note_on_c, 0, 93, 92
6, 154169, Note_on_c, 0, 93, 0
6, 154200, Note_on_c, 0, 91, 92
6, 154289, Note_on_c, 0, 91, 0
6, 154320, Note_on_c, 0, 88, 92
6, 154409, Note_on_c, 0, 88, 0
6, 154440, Note_on_c, 0, 93, 92
6, 154529, Note_on_c, 0, 93, 0
6, 154560, Note_on_c, 0, 90, 80
6, 155024, Note_on_c, 0, 90, 0
6, 155040, Note_on_c, 0, 87, 80
6, 155219, Note_on_c, 0, 87, 0
6, 155280, Note_on_c, 0, 90, 80
6, 155459, Note_on_c, 0, 90, 0
6, 155520, Note_on_c, 0, 91, 80
6, 155984, Note_on_c, 0, 91, 0
6, 156000, Note_on_c, 0, 91, 80
6, 156179, Note_on_c, 0, 91, 0
6, 156240, Note_on_c, 0, 91, 80
6, 156419, Note_on_c, 0, 91, 0
6, 156480, Note_on_c, 0, 91, 92
6, 156540, Control_c, 0, 11, 107
6, 157424, Note_on_c, 0, 91, 0
6, 157438, Control_c, 0, 11, 127
6, 157440, Note_on_c, 0, 93, 92
6, 157500, Control_c, 0, 11, 107
6, 157784, Note_on_c, 0, 93, 0
6, 157798, Control_c, 0, 11, 127
6, 157800, Note_on_c, 0, 91, 80
6, 157889, Note_on_c, 0, 91, 0
6, 157920, Note_on_c, 0, 90, 80
6, 158009, Note_on_c, 0, 90, 0
6, 158040, Note_on_c, 0, 87, 80
6, 158129, Note_on_c, 0, 87, 0
6, 158160, Note_on_c, 0, 86, 80
6, 158249, Note_on_c, 0, 86, 0
6, 158280, Note_on_c, 0, 84, 80
6, 158369, Note_on_c, 0, 84, 0
6, 158400, Note_on_c, 0, 83, 80
6, 158609, Note_on_c, 0, 83, 0
6, 158640, Note_on_c, 0, 82, 80
6, 158849, Note_on_c, 0, 82, 0
6, 159240, Note_on_c, 0, 85, 80
6, 159279, Note_on_c, 0, 85, 0
6, 159280, Note_on_c, 0, 86, 80
6, 159319, Note_on_c, 0, 86, 0
6, 159320, Note_on_c, 0, 88, 80
6, 159353, Note_on_c, 0, 88, 0
6, 159360, Note_on_c, 0, 89, 92
6, 159420, Control_c, 0, 11, 107
6, 159704, Note_on_c, 0, 89, 0
6, 159718, Control_c, 0, 11, 127
6, 159720, Note_on_c, 0, 88, 80
6, 159809, Note_on_c, 0, 88, 0
6, 159840, Note_on_c, 0, 86, 80
6, 159929, Note_on_c, 0, 86, 0
6, 159960, Note_on_c, 0, 84, 80
6, 160049, Note_on_c, 0, 84, 0
6, 160080, Note_on_c, 0, 82, 80
6, 160169, Note_on_c, 0, 82, 0
6, 160200, Note_on_c, 0, 81, 80
6, 160289, Note_on_c, 0, 81, 0
6, 160320, Note_on_c, 0, 80, 80
6, 160529, Note_on_c, 0, 80, 0
6, 160560, Note_on_c, 0, 79, 80
6, 160769, Note_on_c, 0, 79, 0
6, 161160, Note_on_c, 0, 85, 80
6, 161199, Note_on_c, 0, 85, 0
6, 161200, Note_on_c, 0, 86, 80
6, 161239, Note_on_c, 0, 86, 0
6, 161240, Note_on_c, 0, 88, 80
6, 161273, Note_on_c, 0, 88, 0
6, 161280, Note_on_c, 0, 88, 92
6, 161340, Control_c, 0, 11, 107
6, 161359, Control_c, 0, 11, 106
6, 161378, Control_c, 0, 11, 105
6, 161396, Control_c, 0, 11, 103
6, 161415, Control_c, 0, 11, 102
6, 161434, Control_c, 0, 11, 101
6, 161453, Control_c, 0, 11, 100
6, 161471, Control_c, 0, 11, 98
6, 161490, Control_c, 0, 11, 97
6, 161509, Control_c, 0, 11, 96
6, 161528, Control_c, 0, 11, 95
6, 161546, Control_c, 0, 11, 93
6, 161565, Control_c, 0, 11, 92
6, 161584, Control_c, 0, 11, 91
6, 161603, Control_c, 0, 11, 90
6, 161621, Control_c, 0, 11, 88
6, 161624, Note_on_c, 0, 88, 0
6, 161640, Note_on_c, 0, 86, 92
6, 161640, Control_c, 0, 11, 87
6, 161659, Control_c, 0, 11, 86
6, 161678, Control_c, 0, 11, 85
6, 161696, Control_c, 0, 11, 83
6, 161715, Control_c, 0, 11, 82
6, 161729, Note_on_c, 0, 86, 0
6, 161734, Control_c, 0, 11, 81
6, 161753, Control_c, 0, 11, 80
6, 161760, Note_on_c, 0, 85, 92
6, 161771, Control_c, 0, 11, 78
6, 161790, Control_c, 0, 11, 77
6, 161809, Control_c, 0, 11, 76
6, 161828, Control_c, 0, 11, 75
6, 161846, Control_c, 0, 11, 73
6, 161849, Note_on_c, 0, 85, 0
6, 161865, Control_c, 0, 11, 72
6, 161880, Note_on_c, 0, 83, 92
6, 161884, Control_c, 0, 11, 71
6, 161903, Control_c, 0, 11, 70
6, 161921, Control_c, 0, 11, 68
6, 161940, Control_c, 0, 11, 67
6, 161959, Control_c, 0, 11, 66
6, 161969, Note_on_c, 0, 83, 0
6, 161978, Control_c, 0, 11, 65
6, 161996, Control_c, 0, 11, 63
6, 162000, Note_on_c, 0, 81, 92
6, 162015, Control_c, 0, 11, 62
6, 162034, Control_c, 0, 11, 61
6, 162053, Control_c, 0, 11, 60
6, 162071, Control_c, 0, 11, 58
6, 162089, Note_on_c, 0, 81, 0
6, 162090, Control_c, 0, 11, 57
6, 162109, Control_c, 0, 11, 56
6, 162120, Note_on_c, 0, 79, 92
6, 162128, Control_c, 0, 11, 55
6, 162146, Control_c, 0, 11, 53
6, 162165, Control_c, 0, 11, 52
6, 162184, Control_c, 0, 11, 51
6, 162203, Control_c, 0, 11, 50
6, 162209, Note_on_c, 0, 79, 0
6, 162221, Control_c, 0, 11, 47
6, 162240, Note_on_c, 0, 79, 88
6, 162599, Note_on_c, 0, 79, 0
6, 162600, Note_on_c, 0, 81, 88
6, 162659, Note_on_c, 0, 81, 0
6, 162660, Note_on_c, 0, 83, 88
6, 162711, Note_on_c, 0, 83, 0
6, 162720, Note_on_c, 0, 83, 88
6, 162839, Note_on_c, 0, 83, 0
6, 162840, Note_on_c, 0, 81, 88
6, 162899, Note_on_c, 0, 81, 0
6, 162900, Note_on_c, 0, 79, 88
6, 162951, Note_on_c, 0, 79, 0
6, 162960, Note_on_c, 0, 91, 88
6, 163079, Note_on_c, 0, 91, 0
6, 163080, Note_on_c, 0, 90, 88
6, 163139, Note_on_c, 0, 90, 0
6, 163140, Note_on_c, 0, 88, 88
6, 163191, Note_on_c, 0, 88, 0
6, 163200, Note_on_c, 0, 88, 88
6, 163319, Note_on_c, 0, 88, 0
6, 163320, Note_on_c, 0, 86, 88
6, 163439, Note_on_c, 0, 86, 0
6, 163678, Control_c, 0, 11, 127
6, 163680, Note_on_c, 0, 81, 40
6, 163799, Note_on_c, 0, 81, 0
6, 163800, Note_on_c, 0, 83, 40
6, 163859, Note_on_c, 0, 83, 0
6, 163860, Note_on_c, 0, 85, 40
6, 163911, Note_on_c, 0, 85, 0
6, 163920, Note_on_c, 0, 86, 40
6, 164039, Note_on_c, 0, 86, 0
6, 164040, Note_on_c, 0, 88, 40
6, 164099, Note_on_c, 0, 88, 0
6, 164100, Note_on_c, 0, 90, 40
6, 164151, Note_on_c, 0, 90, 0
6, 164160, Note_on_c, 0, 90, 40
6, 164279, Note_on_c, 0, 90, 0
6, 164280, Note_on_c, 0, 91, 40
6, 164399, Note_on_c, 0, 91, 0
6, 165600, Note_on_c, 0, 81, 44
6, 165944, Note_on_c, 0, 81, 0
6, 165960, Note_on_c, 0, 86, 50
6, 166064, Note_on_c, 0, 86, 0
6, 166080, Note_on_c, 0, 85, 44
6, 166319, Note_on_c, 0, 85, 0
6, 168480, Control_c, 0, 11, 107
6, 168600, Control_c, 0, 11, 107
6, 168600, Note_on_c, 0, 81, 44
6, 168613, Control_c, 0, 11, 109
6, 168627, Control_c, 0, 11, 111
6, 168640, Control_c, 0, 11, 114
6, 168653, Control_c, 0, 11, 116
6, 168667, Control_c, 0, 11, 118
6, 168680, Control_c, 0, 11, 120
6, 168693, Control_c, 0, 11, 123
6, 168707, Control_c, 0, 11, 125
6, 168720, Control_c, 0, 11, 127
6, 168733, Control_c, 0, 11, 125
6, 168747, Control_c, 0, 11, 123
6, 168760, Control_c, 0, 11, 120
6, 168773, Control_c, 0, 11, 118
6, 168787, Control_c, 0, 11, 116
6, 168800, Control_c, 0, 11, 114
6, 168813, Control_c, 0, 11, 111
6, 168827, Control_c, 0, 11, 107
6, 168839, Note_on_c, 0, 81, 0
6, 168840, Note_on_c, 0, 88, 44
6, 168899, Note_on_c, 0, 88, 0
6, 168900, Note_on_c, 0, 86, 44
6, 168959, Note_on_c, 0, 86, 0
6, 170280, Note_on_c, 0, 86, 44
6, 170399, Note_on_c, 0, 86, 0
6, 170400, Note_on_c, 0, 87, 44
6, 170519, Note_on_c, 0, 87, 0
6, 170520, Note_on_c, 0, 88, 44
6, 170624, Note_on_c, 0, 88, 0
6, 170640, Note_on_c, 0, 88, 44
6, 170744, Note_on_c, 0, 88, 0
6, 170760, Note_on_c, 0, 88, 44
6, 170864, Note_on_c, 0, 88, 0
6, 170880, Note_on_c, 0, 89, 44
6, 171464, Note_on_c, 0, 89, 0
6, 171480, Note_on_c, 0, 89, 44
6, 171569, Note_on_c, 0, 89, 0
6, 171570, Note_on_c, 0, 87, 44
6, 171591, Note_on_c, 0, 87, 0
6, 171600, Note_on_c, 0, 87, 44
6, 171704, Note_on_c, 0, 87, 0
6, 171720, Note_on_c, 0, 87, 44
6, 171824, Note_on_c, 0, 87, 0
6, 171838, Control_c, 0, 11, 67
6, 171840, Note_on_c, 0, 86, 80
6, 171840, Control_c, 0, 11, 67
6, 171860, Control_c, 0, 11, 68
6, 171880, Control_c, 0, 11, 70
6, 171900, Control_c, 0, 11, 71
6, 171920, Control_c, 0, 11, 72
6, 171940, Control_c, 0, 11, 73
6, 171960, Control_c, 0, 11, 75
6, 171980, Control_c, 0, 11, 76
6, 172000, Control_c, 0, 11, 77
6, 172020, Control_c, 0, 11, 78
6, 172040, Control_c, 0, 11, 80
6, 172060, Control_c, 0, 11, 81
6, 172080, Control_c, 0, 11, 82
6, 172100, Control_c, 0, 11, 83
6, 172120, Control_c, 0, 11, 85
6, 172140, Control_c, 0, 11, 86
6, 172160, Control_c, 0, 11, 87
6, 172180, Control_c, 0, 11, 88
6, 172200, Control_c, 0, 11, 90
6, 172220, Control_c, 0, 11, 91
6, 172240, Control_c, 0, 11, 92
6, 172260, Control_c, 0, 11, 93
6, 172280, Control_c, 0, 11, 95
6, 172300, Control_c, 0, 11, 96
6, 172320, Control_c, 0, 11, 97
6, 172340, Control_c, 0, 11, 98
6, 172360, Control_c, 0, 11, 100
6, 172380, Control_c, 0, 11, 101
6, 172400, Control_c, 0, 11, 102
6, 172420, Control_c, 0, 11, 103
6, 172440, Control_c, 0, 11, 105
6, 172460, Control_c, 0, 11, 106
6, 172480, Control_c, 0, 11, 107
6, 172500, Control_c, 0, 11, 108
6, 172520, Control_c, 0, 11, 110
6, 172540, Control_c, 0, 11, 111
6, 172560, Control_c, 0, 11, 112
6, 172580, Control_c, 0, 11, 113
6, 172600, Control_c, 0, 11, 115
6, 172611, Note_on_c, 0, 86, 0
6, 172620, Note_on_c, 0, 74, 80
6, 172620, Note_on_c, 0, 78, 80
6, 172620, Control_c, 0, 11, 116
6, 172640, Control_c, 0, 11, 117
6, 172660, Control_c, 0, 11, 118
6, 172679, Note_on_c, 0, 78, 0
6, 172680, Note_on_c, 0, 79, 80
6, 172680, Control_c, 0, 11, 120
6, 172700, Control_c, 0, 11, 121
6, 172720, Control_c, 0, 11, 122
6, 172731, Note_on_c, 0, 79, 0
6, 172739, Note_on_c, 0, 74, 0
6, 172740, Note_on_c, 0, 81, 80
6, 172740, Control_c, 0, 11, 123
6, 172760, Control_c, 0, 11, 125
6, 172780, Control_c, 0, 11, 127
6, 172799, Note_on_c, 0, 81, 0
6, 172800, Note_on_c, 0, 82, 80
6, 172851, Note_on_c, 0, 82, 0
6, 172860, Note_on_c, 0, 84, 80
6, 172919, Note_on_c, 0, 84, 0
6, 172920, Note_on_c, 0, 86, 80
6, 172971, Note_on_c, 0, 86, 0
6, 172980, Note_on_c, 0, 88, 80
6, 173039, Note_on_c, 0, 88, 0
6, 173040, Note_on_c, 0, 89, 80
6, 173091, Note_on_c, 0, 89, 0
6, 173100, Note_on_c, 0, 91, 83
6, 173100, Note_on_c, 0, 86, 83
6, 173151, Note_on_c, 0, 86, 0
6, 173160, Note_on_c, 0, 84, 86
6, 173204, Note_on_c, 0, 91, 0
6, 173211, Note_on_c, 0, 84, 0
6, 173220, Note_on_c, 0, 91, 89
6, 173220, Note_on_c, 0, 82, 89
6, 173279, Note_on_c, 0, 91, 0
6, 173279, Note_on_c, 0, 82, 0
6, 173280, Note_on_c, 0, 86, 92
6, 173280, Note_on_c, 0, 89, 92
6, 173384, Note_on_c, 0, 86, 0
6, 173384, Note_on_c, 0, 89, 0
6, 173400, Note_on_c, 0, 86, 104
6, 173400, Note_on_c, 0, 89, 104
6, 173489, Note_on_c, 0, 86, 0
6, 173489, Note_on_c, 0, 89, 0
6, 173640, Note_on_c, 0, 81, 104
6, 173640, Note_on_c, 0, 93, 104
6, 173729, Note_on_c, 0, 81, 0
6, 173729, Note_on_c, 0, 93, 0
6, 175680, Note_on_c, 0, 79, 80
6, 175680, Note_on_c, 0, 91, 80
6, 176024, Note_on_c, 0, 79, 0
6, 176024, Note_on_c, 0, 91, 0
6, 176040, Note_on_c, 0, 77, 80
6, 176040, Note_on_c, 0, 89, 80
6, 176159, Note_on_c, 0, 77, 0
6, 176159, Note_on_c, 0, 89, 0
6, 176160, Note_on_c, 0, 76, 80
6, 176160, Note_on_c, 0, 88, 80
6, 176211, Note_on_c, 0, 76, 0
6, 176211, Note_on_c, 0, 88, 0
6, 176220, Note_on_c, 0, 76, 80
6, 176220, Note_on_c, 0, 88, 80
6, 176279, Note_on_c, 0, 76, 0
6, 176279, Note_on_c, 0, 88, 0
6, 176280, Note_on_c, 0, 89, 80
6, 176280, Note_on_c, 0, 77, 80
6, 176331, Note_on_c, 0, 89, 0
6, 176331, Note_on_c, 0, 77, 0
6, 176340, Note_on_c, 0, 79, 80
6, 176340, Note_on_c, 0, 91, 80
6, 176399, Note_on_c, 0, 79, 0
6, 176399, Note_on_c, 0, 91, 0
6, 176400, Note_on_c, 0, 93, 80
6, 176400, Note_on_c, 0, 81, 80
6, 176451, Note_on_c, 0, 93, 0
6, 176451, Note_on_c, 0, 81, 0
6, 176460, Note_on_c, 0, 81, 80
6, 176460, Note_on_c, 0, 93, 80
6, 176571, Note_on_c, 0, 81, 0
6, 176571, Note_on_c, 0, 93, 0
6, 176580, Note_on_c, 0, 93, 80
6, 176580, Note_on_c, 0, 81, 80
6, 176624, Note_on_c, 0, 93, 0
6, 176624, Note_on_c, 0, 81, 0
6, 176640, Note_on_c, 0, 81, 92
6, 176640, Note_on_c, 0, 93, 92
6, 176729, Note_on_c, 0, 81, 0
6, 176729, Note_on_c, 0, 93, 0
6, 176760, Note_on_c, 0, 80, 92
6, 176760, Note_on_c, 0, 92, 92
6, 176841, Note_on_c, 0, 80, 0
6, 176841, Note_on_c, 0, 92, 0
6, 176850, Note_on_c, 0, 92, 92
6, 176850, Note_on_c, 0, 80, 92
6, 176871, Note_on_c, 0, 92, 0
6, 176871, Note_on_c, 0, 80, 0
6, 176880, Note_on_c, 0, 81, 92
6, 176880, Note_on_c, 0, 93, 92
6, 176999, Note_on_c, 0, 81, 0
6, 176999, Note_on_c, 0, 93, 0
6, 177120, Note_on_c, 0, 74, 92
6, 177120, Note_on_c, 0, 86, 92
6, 177224, Note_on_c, 0, 74, 0
6, 177224, Note_on_c, 0, 86, 0
6, 177240, Note_on_c, 0, 74, 92
6, 177240, Note_on_c, 0, 86, 92
6, 177321, Note_on_c, 0, 74, 0
6, 177321, Note_on_c, 0, 86, 0
6, 177330, Note_on_c, 0, 74, 92
6, 177330, Note_on_c, 0, 86, 92
6, 177351, Note_on_c, 0, 74, 0
6, 177351, Note_on_c, 0, 86, 0
6, 177360, Note_on_c, 0, 86, 92
6, 177360, Note_on_c, 0, 74, 92
6, 177479, Note_on_c, 0, 86, 0
6, 177479, Note_on_c, 0, 74, 0
6, 178560, Note_on_c, 0, 86, 92
6, 178664, Note_on_c, 0, 86, 0
6, 178680, Note_on_c, 0, 85, 92
6, 178761, Note_on_c, 0, 85, 0
6, 178770, Note_on_c, 0, 85, 92
6, 178791, Note_on_c, 0, 85, 0
6, 178800, Note_on_c, 0, 86, 92
6, 178919, Note_on_c, 0, 86, 0
6, 179040, Note_on_c, 0, 87, 92
6, 179144, Note_on_c, 0, 87, 0
6, 179160, Note_on_c, 0, 86, 92
6, 179241, Note_on_c, 0, 86, 0
6, 179250, Note_on_c, 0, 86, 92
6, 179271, Note_on_c, 0, 86, 0
6, 179280, Note_on_c, 0, 87, 92
6, 179399, Note_on_c, 0, 87, 0
6, 179520, Note_on_c, 0, 82, 44
6, 179759, Note_on_c, 0, 82, 0
6, 179760, Note_on_c, 0, 84, 44
6, 179879, Note_on_c, 0, 84, 0
6, 179880, Note_on_c, 0, 86, 44
6, 179969, Note_on_c, 0, 86, 0
6, 179970, Note_on_c, 0, 87, 44
6, 179991, Note_on_c, 0, 87, 0
6, 180000, Note_on_c, 0, 79, 44
6, 180239, Note_on_c, 0, 79, 0
6, 180240, Note_on_c, 0, 77, 44
6, 180464, Note_on_c, 0, 77, 0
6, 180480, Note_on_c, 0, 82, 32
6, 180959, Note_on_c, 0, 82, 0
6, 180960, Note_on_c, 0, 87, 32
6, 181439, Note_on_c, 0, 87, 0
6, 181440, Note_on_c, 0, 89, 32
6, 181919, Note_on_c, 0, 89, 0
6, 181920, Note_on_c, 0, 82, 32
6, 182039, Note_on_c, 0, 82, 0
6, 183600, Note_on_c, 0, 82, 32
6, 183719, Note_on_c, 0, 82, 0
6, 183720, Note_on_c, 0, 81, 32
6, 183839, Note_on_c, 0, 81, 0
6, 184080, Note_on_c, 0, 86, 32
6, 184199, Note_on_c, 0, 86, 0
6, 184200, Note_on_c, 0, 85, 32
6, 184319, Note_on_c, 0, 85, 0
6, 185940, Note_on_c, 0, 76, 32
6, 185999, Note_on_c, 0, 76, 0
6, 186000, Note_on_c, 0, 82, 32
6, 186059, Note_on_c, 0, 82, 0
6, 186900, Note_on_c, 0, 74, 32
6, 186959, Note_on_c, 0, 74, 0
6, 186960, Note_on_c, 0, 86, 32
6, 187019, Note_on_c, 0, 86, 0
6, 187860, Note_on_c, 0, 76, 38
6, 187919, Note_on_c, 0, 76, 0
6, 187920, Note_on_c, 0, 82, 39
6, 187979, Note_on_c, 0, 82, 0
6, 188820, Note_on_c, 0, 74, 48
6, 188879, Note_on_c, 0, 74, 0
6, 188880, Note_on_c, 0, 86, 48
6, 188939, Note_on_c, 0, 86, 0
6, 189420, Note_on_c, 0, 76, 54
6, 189479, Note_on_c, 0, 76, 0
6, 189480, Note_on_c, 0, 82, 54
6, 189539, Note_on_c, 0, 82, 0
6, 189900, Note_on_c, 0, 74, 59
6, 189959, Note_on_c, 0, 74, 0
6, 189960, Note_on_c, 0, 86, 59
6, 190019, Note_on_c, 0, 86, 0
6, 190380, Note_on_c, 0, 76, 63
6, 190439, Note_on_c, 0, 76, 0
6, 190440, Note_on_c, 0, 82, 64
6, 190499, Note_on_c, 0, 82, 0
6, 190860, Note_on_c, 0, 74, 68
6, 190919, Note_on_c, 0, 74, 0
6, 190920, Note_on_c, 0, 86, 69
6, 190979, Note_on_c, 0, 86, 0
6, 191040, Note_on_c, 0, 85, 70
6, 191040, Note_on_c, 0, 88, 70
6, 191091, Note_on_c, 0, 85, 0
6, 191091, Note_on_c, 0, 88, 0
6, 191100, Note_on_c, 0, 88, 71
6, 191100, Note_on_c, 0, 85, 71
6, 191211, Note_on_c, 0, 88, 0
6, 191211, Note_on_c, 0, 85, 0
6, 191220, Note_on_c, 0, 85, 72
6, 191220, Note_on_c, 0, 88, 72
6, 191331, Note_on_c, 0, 85, 0
6, 191331, Note_on_c, 0, 88, 0
6, 191340, Note_on_c, 0, 88, 73
6, 191340, Note_on_c, 0, 85, 73
6, 191451, Note_on_c, 0, 88, 0
6, 191451, Note_on_c, 0, 85, 0
6, 191460, Note_on_c, 0, 86, 74
6, 191511, Note_on_c, 0, 86, 0
6, 191520, Note_on_c, 0, 91, 75
6, 191520, Note_on_c, 0, 88, 75
6, 191571, Note_on_c, 0, 91, 0
6, 191571, Note_on_c, 0, 88, 0
6, 191580, Note_on_c, 0, 88, 75
6, 191580, Note_on_c, 0, 91, 75
6, 191691, Note_on_c, 0, 88, 0
6, 191691, Note_on_c, 0, 91, 0
6, 191700, Note_on_c, 0, 91, 77
6, 191700, Note_on_c, 0, 88, 77
6, 191811, Note_on_c, 0, 91, 0
6, 191811, Note_on_c, 0, 88, 0
6, 191820, Note_on_c, 0, 91, 78
6, 191820, Note_on_c, 0, 88, 78
6, 191931, Note_on_c, 0, 91, 0
6, 191931, Note_on_c, 0, 88, 0
6, 191940, Note_on_c, 0, 86, 79
6, 191940, Note_on_c, 0, 89, 79
6, 191991, Note_on_c, 0, 86, 0
6, 191991, Note_on_c, 0, 89, 0
6, 192000, Note_on_c, 0, 91, 80
6, 192000, Note_on_c, 0, 79, 80
6, 192104, Note_on_c, 0, 91, 0
6, 192104, Note_on_c, 0, 79, 0
6, 192120, Note_on_c, 0, 76, 92
6, 192180, Control_c, 0, 11, 107
6, 192344, Note_on_c, 0, 76, 0
6, 192358, Control_c, 0, 11, 127
6, 192360, Note_on_c, 0, 79, 80
6, 192360, Note_on_c, 0, 91, 80
6, 192464, Note_on_c, 0, 79, 0
6, 192464, Note_on_c, 0, 91, 0
6, 192480, Note_on_c, 0, 81, 80
6, 192505, Note_on_c, 0, 81, 0
6, 192510, Note_on_c, 0, 82, 80
6, 192535, Note_on_c, 0, 82, 0
6, 192540, Note_on_c, 0, 81, 80
6, 192565, Note_on_c, 0, 81, 0
6, 192570, Note_on_c, 0, 79, 80
6, 192595, Note_on_c, 0, 79, 0
6, 192600, Note_on_c, 0, 77, 80
6, 192625, Note_on_c, 0, 77, 0
6, 192630, Note_on_c, 0, 79, 80
6, 192655, Note_on_c, 0, 79, 0
6, 192660, Note_on_c, 0, 77, 80
6, 192685, Note_on_c, 0, 77, 0
6, 192690, Note_on_c, 0, 76, 80
6, 192715, Note_on_c, 0, 76, 0
6, 192720, Note_on_c, 0, 74, 80
6, 192745, Note_on_c, 0, 74, 0
6, 192750, Note_on_c, 0, 76, 80
6, 192775, Note_on_c, 0, 76, 0
6, 192780, Note_on_c, 0, 77, 80
6, 192805, Note_on_c, 0, 77, 0
6, 192810, Note_on_c, 0, 79, 80
6, 192835, Note_on_c, 0, 79, 0
6, 192840, Note_on_c, 0, 81, 80
6, 192865, Note_on_c, 0, 81, 0
6, 192870, Note_on_c, 0, 82, 80
6, 192895, Note_on_c, 0, 82, 0
6, 192900, Note_on_c, 0, 84, 80
6, 192925, Note_on_c, 0, 84, 0
6, 192930, Note_on_c, 0, 86, 80
6, 192955, Note_on_c, 0, 86, 0
6, 192960, Note_on_c, 0, 88, 80
6, 193064, Note_on_c, 0, 88, 0
6, 193080, Note_on_c, 0, 76, 92
6, 193140, Control_c, 0, 11, 107
6, 193304, Note_on_c, 0, 76, 0
6, 193318, Control_c, 0, 11, 127
6, 193320, Note_on_c, 0, 88, 80
6, 193424, Note_on_c, 0, 88, 0
6, 193440, Note_on_c, 0, 84, 80
6, 193465, Note_on_c, 0, 84, 0
6, 193470, Note_on_c, 0, 86, 80
6, 193495, Note_on_c, 0, 86, 0
6, 193500, Note_on_c, 0, 84, 80
6, 193525, Note_on_c, 0, 84, 0
6, 193530, Note_on_c, 0, 82, 80
6, 193555, Note_on_c, 0, 82, 0
6, 193560, Note_on_c, 0, 81, 80
6, 193585, Note_on_c, 0, 81, 0
6, 193590, Note_on_c, 0, 82, 80
6, 193615, Note_on_c, 0, 82, 0
6, 193620, Note_on_c, 0, 81, 80
6, 193645, Note_on_c, 0, 81, 0
6, 193650, Note_on_c, 0, 79, 80
6, 193675, Note_on_c, 0, 79, 0
6, 193680, Note_on_c, 0, 78, 80
6, 193705, Note_on_c, 0, 78, 0
6, 193710, Note_on_c, 0, 79, 80
6, 193735, Note_on_c, 0, 79, 0
6, 193740, Note_on_c, 0, 81, 80
6, 193765, Note_on_c, 0, 81, 0
6, 193770, Note_on_c, 0, 82, 80
6, 193795, Note_on_c, 0, 82, 0
6, 193800, Note_on_c, 0, 84, 80
6, 193825, Note_on_c, 0, 84, 0
6, 193830, Note_on_c, 0, 86, 80
6, 193855, Note_on_c, 0, 86, 0
6, 193860, Note_on_c, 0, 88, 80
6, 193885, Note_on_c, 0, 88, 0
6, 193890, Note_on_c, 0, 90, 80
6, 193915, Note_on_c, 0, 90, 0
6, 193920, Note_on_c, 0, 91, 80
6, 194024, Note_on_c, 0, 91, 0
6, 194040, Note_on_c, 0, 79, 92
6, 194100, Control_c, 0, 11, 107
6, 194264, Note_on_c, 0, 79, 0
6, 194278, Control_c, 0, 11, 127
6, 194280, Note_on_c, 0, 91, 80
6, 194384, Note_on_c, 0, 91, 0
6, 194400, Note_on_c, 0, 88, 80
6, 194400, Note_on_c, 0, 76, 80
6, 194425, Note_on_c, 0, 88, 0
6, 194425, Note_on_c, 0, 76, 0
6, 194430, Note_on_c, 0, 77, 80
6, 194430, Note_on_c, 0, 89, 80
6, 194455, Note_on_c, 0, 77, 0
6, 194455, Note_on_c, 0, 89, 0
6, 194460, Note_on_c, 0, 76, 80
6, 194460, Note_on_c, 0, 88, 80
6, 194485, Note_on_c, 0, 76, 0
6, 194485, Note_on_c, 0, 88, 0
6, 194490, Note_on_c, 0, 74, 80
6, 194490, Note_on_c, 0, 86, 80
6, 194515, Note_on_c, 0, 74, 0
6, 194515, Note_on_c, 0, 86, 0
6, 194520, Note_on_c, 0, 73, 80
6, 194520, Note_on_c, 0, 85, 80
6, 194545, Note_on_c, 0, 73, 0
6, 194545, Note_on_c, 0, 85, 0
6, 194550, Note_on_c, 0, 86, 80
6, 194550, Note_on_c, 0, 74, 80
6, 194575, Note_on_c, 0, 86, 0
6, 194575, Note_on_c, 0, 74, 0
6, 194580, Note_on_c, 0, 85, 80
6, 194580, Note_on_c, 0, 73, 80
6, 194605, Note_on_c, 0, 85, 0
6, 194605, Note_on_c, 0, 73, 0
6, 194610, Note_on_c, 0, 71, 80
6, 194610, Note_on_c, 0, 83, 80
6, 194635, Note_on_c, 0, 71, 0
6, 194635, Note_on_c, 0, 83, 0
6, 194640, Note_on_c, 0, 81, 80
6, 194640, Note_on_c, 0, 69, 80
6, 194665, Note_on_c, 0, 81, 0
6, 194665, Note_on_c, 0, 69, 0
6, 194670, Note_on_c, 0, 70, 80
6, 194670, Note_on_c, 0, 82, 80
6, 194695, Note_on_c, 0, 70, 0
6, 194695, Note_on_c, 0, 82, 0
6, 194700, Note_on_c, 0, 73, 80
6, 194700, Note_on_c, 0, 85, 80
6, 194725, Note_on_c, 0, 73, 0
6, 194725, Note_on_c, 0, 85, 0
6, 194730, Note_on_c, 0, 86, 80
6, 194730, Note_on_c, 0, 74, 80
6, 194755, Note_on_c, 0, 86, 0
6, 194755, Note_on_c, 0, 74, 0
6, 194760, Note_on_c, 0, 76, 80
6, 194760, Note_on_c, 0, 88, 80
6, 194785, Note_on_c, 0, 76, 0
6, 194785, Note_on_c, 0, 88, 0
6, 194790, Note_on_c, 0, 77, 80
6, 194790, Note_on_c, 0, 89, 80
6, 194815, Note_on_c, 0, 77, 0
6, 194815, Note_on_c, 0, 89, 0
6, 194820, Note_on_c, 0, 79, 80
6, 194820, Note_on_c, 0, 91, 80
6, 194845, Note_on_c, 0, 79, 0
6, 194845, Note_on_c, 0, 91, 0
6, 194850, Note_on_c, 0, 81, 80
6, 194850, Note_on_c, 0, 93, 80
6, 194875, Note_on_c, 0, 81, 0
6, 194875, Note_on_c, 0, 93, 0
6, 194880, Note_on_c, 0, 81, 80
6, 194880, Note_on_c, 0, 93, 80
6, 194924, Note_on_c, 0, 93, 0
6, 194939, Note_on_c, 0, 81, 0
6, 194940, Note_on_c, 0, 86, 45
6, 194999, Note_on_c, 0, 86, 0
6, 195000, Note_on_c, 0, 89, 47
6, 195059, Note_on_c, 0, 89, 0
6, 195060, Note_on_c, 0, 84, 48
6, 195171, Note_on_c, 0, 84, 0
6, 195180, Note_on_c, 0, 82, 51
6, 195239, Note_on_c, 0, 82, 0
6, 195240, Note_on_c, 0, 86, 53
6, 195299, Note_on_c, 0, 86, 0
6, 195300, Note_on_c, 0, 81, 54
6, 195359, Note_on_c, 0, 81, 0
6, 195360, Note_on_c, 0, 91, 56
6, 195419, Note_on_c, 0, 91, 0
6, 195420, Note_on_c, 0, 89, 55
6, 195479, Note_on_c, 0, 89, 0
6, 195480, Note_on_c, 0, 88, 53
6, 195539, Note_on_c, 0, 88, 0
6, 195540, Note_on_c, 0, 86, 52
6, 195591, Note_on_c, 0, 86, 0
6, 195600, Note_on_c, 0, 86, 50
6, 195719, Note_on_c, 0, 86, 0
6, 196140, Note_on_c, 0, 79, 44
6, 196199, Note_on_c, 0, 79, 0
6, 196200, Note_on_c, 0, 82, 44
6, 196251, Note_on_c, 0, 82, 0
6, 196260, Note_on_c, 0, 82, 44
6, 196319, Note_on_c, 0, 82, 0
6, 196320, Note_on_c, 0, 93, 44
6, 196379, Note_on_c, 0, 93, 0
6, 196380, Note_on_c, 0, 91, 44
6, 196439, Note_on_c, 0, 91, 0
6, 196440, Note_on_c, 0, 89, 44
6, 196499, Note_on_c, 0, 89, 0
6, 196500, Note_on_c, 0, 88, 44
6, 196551, Note_on_c, 0, 88, 0
6, 196560, Note_on_c, 0, 88, 44
6, 196679, Note_on_c, 0, 88, 0
6, 197100, Note_on_c, 0, 84, 44
6, 197159, Note_on_c, 0, 84, 0
6, 197160, Note_on_c, 0, 87, 44
6, 197211, Note_on_c, 0, 87, 0
6, 197220, Note_on_c, 0, 87, 44
6, 197279, Note_on_c, 0, 87, 0
6, 197280, Note_on_c, 0, 86, 44
6, 197339, Note_on_c, 0, 86, 0
6, 197340, Note_on_c, 0, 84, 44
6, 197399, Note_on_c, 0, 84, 0
6, 197400, Note_on_c, 0, 82, 44
6, 197459, Note_on_c, 0, 82, 0
6, 197460, Note_on_c, 0, 84, 44
6, 197460, Note_on_c, 0, 93, 44
6, 197519, Note_on_c, 0, 84, 0
6, 197519, Note_on_c, 0, 93, 0
6, 197520, Note_on_c, 0, 91, 44
6, 197520, Note_on_c, 0, 86, 44
6, 197579, Note_on_c, 0, 91, 0
6, 197579, Note_on_c, 0, 86, 0
6, 197580, Note_on_c, 0, 90, 44
6, 197580, Note_on_c, 0, 87, 44
6, 197639, Note_on_c, 0, 90, 0
6, 197639, Note_on_c, 0, 87, 0
6, 198060, Note_on_c, 0, 82, 44
6, 198119, Note_on_c, 0, 82, 0
6, 198120, Note_on_c, 0, 86, 44
6, 198171, Note_on_c, 0, 86, 0
6, 198180, Note_on_c, 0, 86, 44
6, 198239, Note_on_c, 0, 86, 0
6, 198240, Note_on_c, 0, 84, 44
6, 198299, Note_on_c, 0, 84, 0
6, 198300, Note_on_c, 0, 82, 44
6, 198359, Note_on_c, 0, 82, 0
6, 198360, Note_on_c, 0, 90, 44
6, 198419, Note_on_c, 0, 90, 0
6, 198420, Note_on_c, 0, 91, 44
6, 198479, Note_on_c, 0, 91, 0
6, 198480, Note_on_c, 0, 90, 44
6, 198539, Note_on_c, 0, 90, 0
6, 198540, Note_on_c, 0, 91, 44
6, 198591, Note_on_c, 0, 91, 0
6, 198600, Note_on_c, 0, 91, 44
6, 198704, Note_on_c, 0, 91, 0
6, 198720, Note_on_c, 0, 86, 80
6, 198720, Note_on_c, 0, 93, 80
6, 198839, Note_on_c, 0, 86, 0
6, 198839, Note_on_c, 0, 93, 0
6, 198840, Note_on_c, 0, 87, 68
6, 198840, Note_on_c, 0, 91, 68
6, 198899, Note_on_c, 0, 87, 0
6, 198899, Note_on_c, 0, 91, 0
6, 198960, Note_on_c, 0, 88, 80
6, 198960, Note_on_c, 0, 91, 80
6, 199079, Note_on_c, 0, 88, 0
6, 199079, Note_on_c, 0, 91, 0
6, 199080, Note_on_c, 0, 86, 68
6, 199080, Note_on_c, 0, 89, 68
6, 199139, Note_on_c, 0, 86, 0
6, 199139, Note_on_c, 0, 89, 0
6, 199200, Note_on_c, 0, 89, 80
6, 199319, Note_on_c, 0, 89, 0
6, 199320, Note_on_c, 0, 87, 68
6, 199379, Note_on_c, 0, 87, 0
6, 199440, Note_on_c, 0, 86, 92
6, 199459, Note_on_c, 0, 86, 0
6, 199460, Note_on_c, 0, 88, 92
6, 199479, Note_on_c, 0, 88, 0
6, 199480, Note_on_c, 0, 86, 92
6, 199499, Note_on_c, 0, 86, 0
6, 199500, Note_on_c, 0, 88, 92
6, 199512, Note_on_c, 0, 88, 0
6, 199514, Note_on_c, 0, 86, 92
6, 199527, Note_on_c, 0, 86, 0
6, 199527, Note_on_c, 0, 85, 92
6, 199539, Note_on_c, 0, 85, 0
6, 199540, Note_on_c, 0, 86, 92
6, 199559, Note_on_c, 0, 86, 0
6, 199560, Note_on_c, 0, 88, 92
6, 199619, Note_on_c, 0, 88, 0
6, 199620, Note_on_c, 0, 85, 92
6, 199671, Note_on_c, 0, 85, 0
6, 199740, Note_on_c, 0, 86, 92
6, 199799, Note_on_c, 0, 86, 0
6, 199800, Note_on_c, 0, 87, 92
6, 199859, Note_on_c, 0, 87, 0
6, 199860, Note_on_c, 0, 91, 92
6, 199919, Note_on_c, 0, 91, 0
6, 199980, Note_on_c, 0, 85, 92
6, 200039, Note_on_c, 0, 85, 0
6, 200040, Note_on_c, 0, 86, 92
6, 200099, Note_on_c, 0, 86, 0
6, 200100, Note_on_c, 0, 89, 92
6, 200151, Note_on_c, 0, 89, 0
6, 200220, Note_on_c, 0, 82, 92
6, 200279, Note_on_c, 0, 82, 0
6, 200280, Note_on_c, 0, 87, 92
6, 200339, Note_on_c, 0, 87, 0
6, 200340, Note_on_c, 0, 91, 92
6, 200391, Note_on_c, 0, 91, 0
6, 200400, Note_on_c, 0, 82, 92
6, 200459, Note_on_c, 0, 82, 0
6, 200460, Note_on_c, 0, 81, 92
6, 200519, Note_on_c, 0, 81, 0
6, 200520, Note_on_c, 0, 88, 92
6, 200579, Note_on_c, 0, 88, 0
6, 200580, Note_on_c, 0, 85, 92
6, 200631, Note_on_c, 0, 85, 0
6, 200640, Note_on_c, 0, 74, 92
6, 200640, Note_on_c, 0, 86, 92
6, 200984, Note_on_c, 0, 74, 0
6, 200984, Note_on_c, 0, 86, 0
6, 201000, Note_on_c, 0, 86, 92
6, 201000, Note_on_c, 0, 74, 92
6, 201081, Note_on_c, 0, 86, 0
6, 201081, Note_on_c, 0, 74, 0
6, 201090, Note_on_c, 0, 86, 92
6, 201090, Note_on_c, 0, 74, 92
6, 201111, Note_on_c, 0, 86, 0
6, 201111, Note_on_c, 0, 74, 0
6, 201120, Note_on_c, 0, 77, 104
6, 201120, Note_on_c, 0, 89, 104
6, 201180, Control_c, 0, 11, 107
6, 201464, Note_on_c, 0, 77, 0
6, 201464, Note_on_c, 0, 89, 0
6, 201480, Note_on_c, 0, 77, 104
6, 201480, Note_on_c, 0, 89, 104
6, 201561, Note_on_c, 0, 77, 0
6, 201561, Note_on_c, 0, 89, 0
6, 201570, Note_on_c, 0, 89, 104
6, 201570, Note_on_c, 0, 77, 104
6, 201591, Note_on_c, 0, 89, 0
6, 201591, Note_on_c, 0, 77, 0
6, 201598, Control_c, 0, 11, 127
6, 201600, Note_on_c, 0, 81, 104
6, 201600, Note_on_c, 0, 93, 104
6, 201660, Control_c, 0, 11, 107
6, 201944, Note_on_c, 0, 81, 0
6, 201944, Note_on_c, 0, 93, 0
6, 201960, Note_on_c, 0, 81, 104
6, 202041, Note_on_c, 0, 81, 0
6, 202050, Note_on_c, 0, 81, 104
6, 202071, Note_on_c, 0, 81, 0
6, 202078, Control_c, 0, 11, 127
6, 202080, Note_on_c, 0, 86, 92
6, 202184, Note_on_c, 0, 86, 0
6, 202200, Note_on_c, 0, 86, 92
6, 202281, Note_on_c, 0, 86, 0
6, 202290, Note_on_c, 0, 86, 92
6, 202311, Note_on_c, 0, 86, 0
6, 202320, Note_on_c, 0, 89, 92
6, 202424, Note_on_c, 0, 89, 0
6, 202440, Note_on_c, 0, 89, 92
6, 202521, Note_on_c, 0, 89, 0
6, 202530, Note_on_c, 0, 89, 92
6, 202551, Note_on_c, 0, 89, 0
6, 202560, Note_on_c, 0, 93, 80
6, 202649, Note_on_c, 0, 93, 0
6, 202680, Note_on_c, 0, 86, 80
6, 202761, Note_on_c, 0, 86, 0
6, 202770, Note_on_c, 0, 86, 80
6, 202791, Note_on_c, 0, 86, 0
6, 202800, Note_on_c, 0, 89, 80
6, 202889, Note_on_c, 0, 89, 0
6, 202920, Note_on_c, 0, 81, 80
6, 203001, Note_on_c, 0, 81, 0
6, 203010, Note_on_c, 0, 81, 80
6, 203031, Note_on_c, 0, 81, 0
6, 203040, Note_on_c, 0, 86, 80
6, 203129, Note_on_c, 0, 86, 0
6, 203160, Note_on_c, 0, 89, 80
6, 203241, Note_on_c, 0, 89, 0
6, 203250, Note_on_c, 0, 89, 80
6, 203271, Note_on_c, 0, 89, 0
6, 203280, Note_on_c, 0, 93, 80
6, 203369, Note_on_c, 0, 93, 0
6, 203400, Note_on_c, 0, 86, 80
6, 203481, Note_on_c, 0, 86, 0
6, 203490, Note_on_c, 0, 86, 80
6, 203511, Note_on_c, 0, 86, 0
6, 203520, Note_on_c, 0, 89, 80
6, 203609, Note_on_c, 0, 89, 0
6, 203640, Note_on_c, 0, 81, 80
6, 203721, Note_on_c, 0, 81, 0
6, 203730, Note_on_c, 0, 81, 80
6, 203751, Note_on_c, 0, 81, 0
6, 203760, Note_on_c, 0, 86, 80
6, 203849, Note_on_c, 0, 86, 0
6, 203880, Note_on_c, 0, 77, 80
6, 203961, Note_on_c, 0, 77, 0
6, 203970, Note_on_c, 0, 77, 80
6, 203991, Note_on_c, 0, 77, 0
6, 204000, Note_on_c, 0, 81, 80
6, 204089, Note_on_c, 0, 81, 0
6, 204120, Note_on_c, 0, 74, 80
6, 204201, Note_on_c, 0, 74, 0
6, 204210, Note_on_c, 0, 74, 80
6, 204231, Note_on_c, 0, 74, 0
6, 204240, Note_on_c, 0, 86, 80
6, 204329, Note_on_c, 0, 86, 0
6, 204360, Note_on_c, 0, 74, 62
6, 204441, Note_on_c, 0, 74, 0
6, 204450, Note_on_c, 0, 74, 49
6, 204471, Note_on_c, 0, 74, 0
6, 204480, Note_on_c, 0, 74, 44
6, 204599, Note_on_c, 0, 74, 0
6, 207180, Note_on_c, 0, 82, 44
6, 207239, Note_on_c, 0, 82, 0
6, 207240, Note_on_c, 0, 81, 44
6, 207299, Note_on_c, 0, 81, 0
6, 207330, Note_on_c, 0, 79, 44
6, 207351, Note_on_c, 0, 79, 0
6, 207360, Note_on_c, 0, 91, 44
6, 207801, Note_on_c, 0, 91, 0
6, 207810, Note_on_c, 0, 88, 44
6, 207831, Note_on_c, 0, 88, 0
6, 207840, Note_on_c, 0, 85, 44
6, 208004, Note_on_c, 0, 85, 0
6, 208020, Note_on_c, 0, 82, 44
6, 208049, Note_on_c, 0, 82, 0
6, 208050, Note_on_c, 0, 79, 44
6, 208071, Note_on_c, 0, 79, 0
6, 208080, Note_on_c, 0, 78, 44
6, 208199, Note_on_c, 0, 78, 0
6, 210720, Note_on_c, 0, 74, 47
6, 211019, Note_on_c, 0, 74, 0
6, 211020, Note_on_c, 0, 80, 49
6, 211079, Note_on_c, 0, 80, 0
6, 211080, Note_on_c, 0, 79, 50
6, 211139, Note_on_c, 0, 79, 0
6, 211170, Note_on_c, 0, 91, 50
6, 211191, Note_on_c, 0, 91, 0
6, 211200, Note_on_c, 0, 89, 50
6, 211319, Note_on_c, 0, 89, 0
6, 211410, Note_on_c, 0, 89, 52
6, 211431, Note_on_c, 0, 89, 0
6, 211440, Note_on_c, 0, 86, 52
6, 211559, Note_on_c, 0, 86, 0
6, 211650, Note_on_c, 0, 83, 54
6, 211671, Note_on_c, 0, 83, 0
6, 211680, Note_on_c, 0, 79, 54
6, 211799, Note_on_c, 0, 79, 0
6, 211890, Note_on_c, 0, 77, 55
6, 211911, Note_on_c, 0, 77, 0
6, 211920, Note_on_c, 0, 76, 56
6, 212039, Note_on_c, 0, 76, 0
6, 213090, Note_on_c, 0, 84, 64
6, 213111, Note_on_c, 0, 84, 0
6, 213120, Note_on_c, 0, 82, 64
6, 213239, Note_on_c, 0, 82, 0
6, 213330, Note_on_c, 0, 91, 66
6, 213351, Note_on_c, 0, 91, 0
6, 213360, Note_on_c, 0, 88, 66
6, 213479, Note_on_c, 0, 88, 0
6, 213570, Note_on_c, 0, 85, 67
6, 213591, Note_on_c, 0, 85, 0
6, 213600, Note_on_c, 0, 82, 68
6, 213719, Note_on_c, 0, 82, 0
6, 213810, Note_on_c, 0, 79, 69
6, 213831, Note_on_c, 0, 79, 0
6, 213840, Note_on_c, 0, 76, 69
6, 213959, Note_on_c, 0, 76, 0
6, 214380, Note_on_c, 0, 91, 73
6, 214439, Note_on_c, 0, 91, 0
6, 214440, Note_on_c, 0, 89, 74
6, 214499, Note_on_c, 0, 89, 0
6, 214530, Note_on_c, 0, 88, 74
6, 214551, Note_on_c, 0, 88, 0
6, 214560, Note_on_c, 0, 85, 74
6, 214679, Note_on_c, 0, 85, 0
6, 214770, Note_on_c, 0, 82, 76
6, 214791, Note_on_c, 0, 82, 0
6, 214800, Note_on_c, 0, 79, 76
6, 214919, Note_on_c, 0, 79, 0
6, 215340, Note_on_c, 0, 88, 80
6, 215399, Note_on_c, 0, 88, 0
6, 215400, Note_on_c, 0, 86, 80
6, 215459, Note_on_c, 0, 86, 0
6, 215490, Note_on_c, 0, 85, 81
6, 215511, Note_on_c, 0, 85, 0
6, 215520, Note_on_c, 0, 85, 81
6, 215639, Note_on_c, 0, 85, 0
6, 215730, Note_on_c, 0, 82, 83
6, 215751, Note_on_c, 0, 82, 0
6, 215760, Note_on_c, 0, 79, 83
6, 215879, Note_on_c, 0, 79, 0
6, 216300, Note_on_c, 0, 82, 87
6, 216359, Note_on_c, 0, 82, 0
6, 216360, Note_on_c, 0, 81, 87
6, 216419, Note_on_c, 0, 81, 0
6, 216450, Note_on_c, 0, 91, 88
6, 216471, Note_on_c, 0, 91, 0
6, 216480, Note_on_c, 0, 91, 88
6, 216599, Note_on_c, 0, 91, 0
6, 216690, Note_on_c, 0, 88, 90
6, 216711, Note_on_c, 0, 88, 0
6, 216720, Note_on_c, 0, 85, 90
6, 216839, Note_on_c, 0, 85, 0
6, 216960, Note_on_c, 0, 81, 92
6, 216960, Note_on_c, 0, 93, 92
6, 217319, Note_on_c, 0, 81, 0
6, 217319, Note_on_c, 0, 93, 0
6, 217320, Note_on_c, 0, 80, 92
6, 217320, Note_on_c, 0, 92, 92
6, 217439, Note_on_c, 0, 80, 0
6, 217439, Note_on_c, 0, 92, 0
6, 217440, Note_on_c, 0, 79, 92
6, 217440, Note_on_c, 0, 91, 92
6, 217491, Note_on_c, 0, 79, 0
6, 217491, Note_on_c, 0, 91, 0
6, 217500, Note_on_c, 0, 89, 92
6, 217559, Note_on_c, 0, 89, 0
6, 217560, Note_on_c, 0, 88, 92
6, 217611, Note_on_c, 0, 88, 0
6, 217620, Note_on_c, 0, 86, 92
6, 217679, Note_on_c, 0, 86, 0
6, 217680, Note_on_c, 0, 85, 92
6, 217731, Note_on_c, 0, 85, 0
6, 217740, Note_on_c, 0, 82, 92
6, 217799, Note_on_c, 0, 82, 0
6, 217800, Note_on_c, 0, 81, 92
6, 217851, Note_on_c, 0, 81, 0
6, 217860, Note_on_c, 0, 79, 92
6, 217919, Note_on_c, 0, 79, 0
6, 217920, Note_on_c, 0, 77, 92
6, 217971, Note_on_c, 0, 77, 0
6, 217980, Note_on_c, 0, 79, 92
6, 218039, Note_on_c, 0, 79, 0
6, 218040, Note_on_c, 0, 81, 92
6, 218091, Note_on_c, 0, 81, 0
6, 218100, Note_on_c, 0, 82, 92
6, 218159, Note_on_c, 0, 82, 0
6, 218160, Note_on_c, 0, 84, 92
6, 218211, Note_on_c, 0, 84, 0
6, 218220, Note_on_c, 0, 86, 92
6, 218279, Note_on_c, 0, 86, 0
6, 218280, Note_on_c, 0, 88, 92
6, 218331, Note_on_c, 0, 88, 0
6, 218340, Note_on_c, 0, 89, 92
6, 218399, Note_on_c, 0, 89, 0
6, 218400, Note_on_c, 0, 88, 92
6, 218400, Note_on_c, 0, 86, 92
6, 218504, Note_on_c, 0, 88, 0
6, 218504, Note_on_c, 0, 86, 0
6, 218520, Note_on_c, 0, 86, 92
6, 218520, Note_on_c, 0, 88, 92
6, 218639, Note_on_c, 0, 86, 0
6, 218639, Note_on_c, 0, 88, 0
6, 218760, Note_on_c, 0, 88, 92
6, 218760, Note_on_c, 0, 85, 92
6, 218879, Note_on_c, 0, 88, 0
6, 218879, Note_on_c, 0, 85, 0
6, 218880, Control_c, 0, 11, 67
6, 218928, Control_c, 0, 11, 68
6, 218940, Note_on_c, 0, 69, 80
6, 218976, Control_c, 0, 11, 69
6, 218999, Note_on_c, 0, 69, 0
6, 219000, Note_on_c, 0, 70, 80
6, 219024, Control_c, 0, 11, 70
6, 219059, Note_on_c, 0, 70, 0
6, 219060, Note_on_c, 0, 69, 80
6, 219072, Control_c, 0, 11, 71
6, 219119, Note_on_c, 0, 69, 0
6, 219120, Note_on_c, 0, 70, 80
6, 219120, Control_c, 0, 11, 72
6, 219168, Control_c, 0, 11, 73
6, 219171, Note_on_c, 0, 70, 0
6, 219180, Note_on_c, 0, 71, 80
6, 219216, Control_c, 0, 11, 74
6, 219239, Note_on_c, 0, 71, 0
6, 219240, Note_on_c, 0, 73, 80
6, 219264, Control_c, 0, 11, 75
6, 219291, Note_on_c, 0, 73, 0
6, 219300, Note_on_c, 0, 74, 80
6, 219312, Control_c, 0, 11, 76
6, 219359, Note_on_c, 0, 74, 0
6, 219360, Note_on_c, 0, 76, 80
6, 219360, Control_c, 0, 11, 77
6, 219408, Control_c, 0, 11, 78
6, 219411, Note_on_c, 0, 76, 0
6, 219420, Note_on_c, 0, 77, 80
6, 219456, Control_c, 0, 11, 79
6, 219479, Note_on_c, 0, 77, 0
6, 219480, Note_on_c, 0, 79, 80
6, 219504, Control_c, 0, 11, 80
6, 219531, Note_on_c, 0, 79, 0
6, 219540, Note_on_c, 0, 81, 80
6, 219552, Control_c, 0, 11, 81
6, 219599, Note_on_c, 0, 81, 0
6, 219600, Note_on_c, 0, 82, 80
6, 219600, Control_c, 0, 11, 82
6, 219648, Control_c, 0, 11, 83
6, 219651, Note_on_c, 0, 82, 0
6, 219660, Note_on_c, 0, 85, 80
6, 219696, Control_c, 0, 11, 84
6, 219719, Note_on_c, 0, 85, 0
6, 219720, Note_on_c, 0, 86, 80
6, 219744, Control_c, 0, 11, 85
6, 219771, Note_on_c, 0, 86, 0
6, 219780, Note_on_c, 0, 88, 80
6, 219792, Control_c, 0, 11, 86
6, 219839, Note_on_c, 0, 88, 0
6, 219840, Note_on_c, 0, 89, 80
6, 219840, Control_c, 0, 11, 87
6, 219888, Control_c, 0, 11, 88
6, 219936, Control_c, 0, 11, 89
6, 219984, Control_c, 0, 11, 90
6, 220032, Control_c, 0, 11, 91
6, 220080, Control_c, 0, 11, 92
6, 220128, Control_c, 0, 11, 93
6, 220176, Control_c, 0, 11, 94
6, 220199, Note_on_c, 0, 89, 0
6, 220200, Note_on_c, 0, 88, 80
6, 220224, Control_c, 0, 11, 95
6, 220272, Control_c, 0, 11, 96
6, 220319, Note_on_c, 0, 88, 0
6, 220320, Note_on_c, 0, 87, 80
6, 220320, Control_c, 0, 11, 97
6, 220368, Control_c, 0, 11, 98
6, 220371, Note_on_c, 0, 87, 0
6, 220380, Note_on_c, 0, 86, 80
6, 220416, Control_c, 0, 11, 99
6, 220439, Note_on_c, 0, 86, 0
6, 220440, Note_on_c, 0, 84, 80
6, 220464, Control_c, 0, 11, 100
6, 220491, Note_on_c, 0, 84, 0
6, 220500, Note_on_c, 0, 82, 80
6, 220512, Control_c, 0, 11, 101
6, 220559, Note_on_c, 0, 82, 0
6, 220560, Control_c, 0, 11, 102
6, 220560, Note_on_c, 0, 81, 80
6, 220608, Control_c, 0, 11, 103
6, 220611, Note_on_c, 0, 81, 0
6, 220620, Note_on_c, 0, 79, 80
6, 220656, Control_c, 0, 11, 104
6, 220679, Note_on_c, 0, 79, 0
6, 220680, Note_on_c, 0, 77, 80
6, 220704, Control_c, 0, 11, 105
6, 220731, Note_on_c, 0, 77, 0
6, 220740, Note_on_c, 0, 75, 80
6, 220752, Control_c, 0, 11, 106
6, 220799, Note_on_c, 0, 75, 0
6, 220800, Note_on_c, 0, 86, 80
6, 220800, Control_c, 0, 11, 107
6, 220800, Note_on_c, 0, 74, 80
6, 220848, Control_c, 0, 11, 108
6, 220851, Note_on_c, 0, 86, 0
6, 220851, Note_on_c, 0, 74, 0
6, 220860, Note_on_c, 0, 66, 80
6, 220896, Control_c, 0, 11, 109
6, 220919, Note_on_c, 0, 66, 0
6, 220920, Note_on_c, 0, 67, 80
6, 220944, Control_c, 0, 11, 110
6, 220971, Note_on_c, 0, 67, 0
6, 220980, Note_on_c, 0, 69, 80
6, 220992, Control_c, 0, 11, 111
6, 221039, Note_on_c, 0, 69, 0
6, 221040, Note_on_c, 0, 70, 80
6, 221040, Control_c, 0, 11, 112
6, 221088, Control_c, 0, 11, 113
6, 221091, Note_on_c, 0, 70, 0
6, 221100, Note_on_c, 0, 72, 80
6, 221136, Control_c, 0, 11, 114
6, 221159, Note_on_c, 0, 72, 0
6, 221160, Note_on_c, 0, 74, 80
6, 221184, Control_c, 0, 11, 115
6, 221211, Note_on_c, 0, 74, 0
6, 221220, Note_on_c, 0, 76, 80
6, 221232, Control_c, 0, 11, 116
6, 221279, Note_on_c, 0, 76, 0
6, 221280, Control_c, 0, 11, 117
6, 221280, Note_on_c, 0, 78, 80
6, 221328, Control_c, 0, 11, 118
6, 221331, Note_on_c, 0, 78, 0
6, 221340, Note_on_c, 0, 79, 80
6, 221376, Control_c, 0, 11, 119
6, 221399, Note_on_c, 0, 79, 0
6, 221400, Note_on_c, 0, 81, 80
6, 221424, Control_c, 0, 11, 120
6, 221451, Note_on_c, 0, 81, 0
6, 221460, Note_on_c, 0, 82, 80
6, 221472, Control_c, 0, 11, 121
6, 221519, Note_on_c, 0, 82, 0
6, 221520, Control_c, 0, 11, 122
6, 221520, Note_on_c, 0, 84, 80
6, 221568, Control_c, 0, 11, 123
6, 221571, Note_on_c, 0, 84, 0
6, 221580, Note_on_c, 0, 86, 80
6, 221616, Control_c, 0, 11, 124
6, 221639, Note_on_c, 0, 86, 0
6, 221640, Note_on_c, 0, 88, 80
6, 221664, Control_c, 0, 11, 125
6, 221691, Note_on_c, 0, 88, 0
6, 221700, Note_on_c, 0, 90, 80
6, 221712, Control_c, 0, 11, 127
6, 221759, Note_on_c, 0, 90, 0
6, 221760, Note_on_c, 0, 91, 80
6, 221864, Note_on_c, 0, 91, 0
6, 221880, Note_on_c, 0, 82, 80
6, 221961, Note_on_c, 0, 82, 0
6, 221970, Note_on_c, 0, 82, 80
6, 221991, Note_on_c, 0, 82, 0
6, 222000, Note_on_c, 0, 82, 80
6, 222119, Note_on_c, 0, 82, 0
6, 222360, Note_on_c, 0, 82, 80
6, 222441, Note_on_c, 0, 82, 0
6, 222450, Note_on_c, 0, 82, 80
6, 222471, Note_on_c, 0, 82, 0
6, 222480, Note_on_c, 0, 87, 80
6, 222480, Note_on_c, 0, 82, 80
6, 222599, Note_on_c, 0, 87, 0
6, 222599, Note_on_c, 0, 82, 0
6, 222840, Note_on_c, 0, 85, 80
6, 222921, Note_on_c, 0, 85, 0
6, 222930, Note_on_c, 0, 85, 80
6, 222951, Note_on_c, 0, 85, 0
6, 222960, Note_on_c, 0, 85, 80
6, 223079, Note_on_c, 0, 85, 0
6, 223320, Note_on_c, 0, 85, 80
6, 223320, Note_on_c, 0, 89, 80
6, 223401, Note_on_c, 0, 85, 0
6, 223401, Note_on_c, 0, 89, 0
6, 223410, Note_on_c, 0, 85, 80
6, 223410, Note_on_c, 0, 89, 80
6, 223431, Note_on_c, 0, 85, 0
6, 223431, Note_on_c, 0, 89, 0
6, 223440, Note_on_c, 0, 85, 80
6, 223440, Note_on_c, 0, 89, 80
6, 223559, Note_on_c, 0, 85, 0
6, 223559, Note_on_c, 0, 89, 0
6, 223800, Note_on_c, 0, 86, 80
6, 223881, Note_on_c, 0, 86, 0
6, 223890, Note_on_c, 0, 86, 80
6, 223911, Note_on_c, 0, 86, 0
6, 223920, Note_on_c, 0, 86, 80
6, 224024, Note_on_c, 0, 86, 0
6, 224040, Note_on_c, 0, 91, 80
6, 224040, Note_on_c, 0, 86, 80
6, 224121, Note_on_c, 0, 91, 0
6, 224121, Note_on_c, 0, 86, 0
6, 224130, Note_on_c, 0, 86, 80
6, 224130, Note_on_c, 0, 91, 80
6, 224151, Note_on_c, 0, 86, 0
6, 224151, Note_on_c, 0, 91, 0
6, 224160, Note_on_c, 0, 91, 80
6, 224160, Note_on_c, 0, 86, 80
6, 224264, Note_on_c, 0, 91, 0
6, 224264, Note_on_c, 0, 86, 0
6, 224280, Note_on_c, 0, 88, 80
6, 224361, Note_on_c, 0, 88, 0
6, 224370, Note_on_c, 0, 88, 80
6, 224391, Note_on_c, 0, 88, 0
6, 224400, Note_on_c, 0, 88, 80
6, 224504, Note_on_c, 0, 88, 0
6, 224520, Note_on_c, 0, 93, 80
6, 224520, Note_on_c, 0, 81, 80
6, 224601, Note_on_c, 0, 93, 0
6, 224601, Note_on_c, 0, 81, 0
6, 224610, Note_on_c, 0, 93, 80
6, 224610, Note_on_c, 0, 81, 80
6, 224631, Note_on_c, 0, 93, 0
6, 224631, Note_on_c, 0, 81, 0
6, 224640, Note_on_c, 0, 93, 44
6, 224640, Note_on_c, 0, 81, 44
6, 224759, Note_on_c, 0, 93, 0
6, 224759, Note_on_c, 0, 81, 0
6, 227040, Note_on_c, 0, 85, 44
6, 227339, Note_on_c, 0, 85, 0
6, 227340, Note_on_c, 0, 88, 44
6, 227391, Note_on_c, 0, 88, 0
6, 227400, Note_on_c, 0, 86, 44
6, 227444, Note_on_c, 0, 86, 0
6, 227460, Note_on_c, 0, 85, 44
6, 227504, Note_on_c, 0, 85, 0
6, 227520, Note_on_c, 0, 86, 44
6, 227819, Note_on_c, 0, 86, 0
6, 227820, Note_on_c, 0, 90, 44
6, 227871, Note_on_c, 0, 90, 0
6, 227880, Note_on_c, 0, 88, 44
6, 227924, Note_on_c, 0, 88, 0
6, 227940, Note_on_c, 0, 86, 44
6, 227984, Note_on_c, 0, 86, 0
6, 228000, Note_on_c, 0, 88, 44
6, 228299, Note_on_c, 0, 88, 0
6, 228300, Note_on_c, 0, 91, 44
6, 228351, Note_on_c, 0, 91, 0
6, 228360, Note_on_c, 0, 90, 44
6, 228404, Note_on_c, 0, 90, 0
6, 228420, Note_on_c, 0, 88, 44
6, 228464, Note_on_c, 0, 88, 0
6, 228480, Note_on_c, 0, 89, 44
6, 228524, Note_on_c, 0, 89, 0
6, 228540, Note_on_c, 0, 93, 44
6, 228584, Note_on_c, 0, 93, 0
6, 228600, Note_on_c, 0, 91, 44
6, 228644, Note_on_c, 0, 91, 0
6, 228660, Note_on_c, 0, 89, 44
6, 228704, Note_on_c, 0, 89, 0
6, 228720, Note_on_c, 0, 88, 44
6, 228764, Note_on_c, 0, 88, 0
6, 228780, Note_on_c, 0, 86, 44
6, 228824, Note_on_c, 0, 86, 0
6, 228840, Note_on_c, 0, 85, 44
6, 228884, Note_on_c, 0, 85, 0
6, 228900, Note_on_c, 0, 86, 44
6, 228944, Note_on_c, 0, 86, 0
6, 228960, Note_on_c, 0, 86, 44
6, 229019, Note_on_c, 0, 86, 0
6, 229020, Note_on_c, 0, 85, 44
6, 229071, Note_on_c, 0, 85, 0
6, 229080, Note_on_c, 0, 85, 44
6, 229124, Note_on_c, 0, 85, 0
6, 229140, Note_on_c, 0, 88, 44
6, 229184, Note_on_c, 0, 88, 0
6, 229200, Note_on_c, 0, 85, 44
6, 229244, Note_on_c, 0, 85, 0
6, 229260, Note_on_c, 0, 88, 44
6, 229304, Note_on_c, 0, 88, 0
6, 229320, Note_on_c, 0, 86, 44
6, 229364, Note_on_c, 0, 86, 0
6, 229380, Note_on_c, 0, 85, 44
6, 229424, Note_on_c, 0, 85, 0
6, 229440, Note_on_c, 0, 86, 44
6, 229559, Note_on_c, 0, 86, 0
6, 231840, Note_on_c, 0, 88, 57
6, 231899, Note_on_c, 0, 88, 0
6, 231900, Note_on_c, 0, 86, 58
6, 231951, Note_on_c, 0, 86, 0
6, 231960, Note_on_c, 0, 86, 58
6, 232004, Note_on_c, 0, 86, 0
6, 232020, Note_on_c, 0, 89, 59
6, 232064, Note_on_c, 0, 89, 0
6, 232080, Note_on_c, 0, 77, 59
6, 232124, Note_on_c, 0, 77, 0
6, 232140, Note_on_c, 0, 89, 60
6, 232184, Note_on_c, 0, 89, 0
6, 232200, Note_on_c, 0, 88, 60
6, 232244, Note_on_c, 0, 88, 0
6, 232260, Note_on_c, 0, 86, 61
6, 232304, Note_on_c, 0, 86, 0
6, 233760, Note_on_c, 0, 82, 75
6, 233819, Note_on_c, 0, 82, 0
6, 233820, Note_on_c, 0, 81, 76
6, 233871, Note_on_c, 0, 81, 0
6, 233880, Note_on_c, 0, 81, 76
6, 233924, Note_on_c, 0, 81, 0
6, 233940, Note_on_c, 0, 84, 77
6, 233984, Note_on_c, 0, 84, 0
6, 234000, Note_on_c, 0, 72, 77
6, 234044, Note_on_c, 0, 72, 0
6, 234060, Note_on_c, 0, 84, 78
6, 234104, Note_on_c, 0, 84, 0
6, 234120, Note_on_c, 0, 82, 78
6, 234164, Note_on_c, 0, 82, 0
6, 234180, Note_on_c, 0, 81, 79
6, 234224, Note_on_c, 0, 81, 0
6, 235200, Note_on_c, 0, 84, 80
6, 235259, Note_on_c, 0, 84, 0
6, 235260, Note_on_c, 0, 82, 77
6, 235311, Note_on_c, 0, 82, 0
6, 235320, Note_on_c, 0, 82, 74
6, 235364, Note_on_c, 0, 82, 0
6, 235380, Note_on_c, 0, 86, 71
6, 235424, Note_on_c, 0, 86, 0
6, 235440, Note_on_c, 0, 74, 68
6, 235484, Note_on_c, 0, 74, 0
6, 235500, Note_on_c, 0, 86, 65
6, 235544, Note_on_c, 0, 86, 0
6, 235560, Note_on_c, 0, 84, 62
6, 235604, Note_on_c, 0, 84, 0
6, 235620, Note_on_c, 0, 82, 59
6, 235664, Note_on_c, 0, 82, 0
6, 236160, Note_on_c, 0, 87, 32
6, 236219, Note_on_c, 0, 87, 0
6, 236220, Note_on_c, 0, 86, 32
6, 236271, Note_on_c, 0, 86, 0
6, 236280, Note_on_c, 0, 86, 32
6, 236324, Note_on_c, 0, 86, 0
6, 236340, Note_on_c, 0, 89, 32
6, 236384, Note_on_c, 0, 89, 0
6, 236400, Note_on_c, 0, 86, 32
6, 236444, Note_on_c, 0, 86, 0
6, 236460, Note_on_c, 0, 89, 32
6, 236504, Note_on_c, 0, 89, 0
6, 236520, Note_on_c, 0, 87, 32
6, 236564, Note_on_c, 0, 87, 0
6, 236580, Note_on_c, 0, 86, 32
6, 236624, Note_on_c, 0, 86, 0
6, 236640, Control_c, 0, 11, 47
6, 237000, Note_on_c, 0, 93, 80
6, 237023, Control_c, 0, 11, 49
6, 237045, Control_c, 0, 11, 50
6, 237068, Control_c, 0, 11, 52
6, 237090, Control_c, 0, 11, 54
6, 237113, Control_c, 0, 11, 55
6, 237120, Note_on_c, 0, 81, 80
6, 237135, Control_c, 0, 11, 57
6, 237158, Control_c, 0, 11, 59
6, 237180, Control_c, 0, 11, 60
6, 237203, Control_c, 0, 11, 62
6, 237225, Control_c, 0, 11, 64
6, 237248, Control_c, 0, 11, 65
6, 237270, Control_c, 0, 11, 67
6, 237293, Control_c, 0, 11, 69
6, 237315, Control_c, 0, 11, 70
6, 237338, Control_c, 0, 11, 72
6, 237360, Control_c, 0, 11, 74
6, 237383, Control_c, 0, 11, 75
6, 237405, Control_c, 0, 11, 77
6, 237428, Control_c, 0, 11, 79
6, 237450, Control_c, 0, 11, 80
6, 237473, Control_c, 0, 11, 82
6, 237479, Note_on_c, 0, 93, 0
6, 237479, Note_on_c, 0, 81, 0
6, 237480, Note_on_c, 0, 92, 80
6, 237480, Note_on_c, 0, 80, 80
6, 237495, Control_c, 0, 11, 84
6, 237518, Control_c, 0, 11, 85
6, 237540, Control_c, 0, 11, 87
6, 237563, Control_c, 0, 11, 89
6, 237585, Control_c, 0, 11, 90
6, 237599, Note_on_c, 0, 92, 0
6, 237599, Note_on_c, 0, 80, 0
6, 237600, Note_on_c, 0, 79, 80
6, 237600, Note_on_c, 0, 91, 80
6, 237608, Control_c, 0, 11, 92
6, 237630, Control_c, 0, 11, 94
6, 237651, Note_on_c, 0, 79, 0
6, 237651, Note_on_c, 0, 91, 0
6, 237653, Control_c, 0, 11, 95
6, 237660, Note_on_c, 0, 89, 80
6, 237660, Note_on_c, 0, 77, 80
6, 237675, Control_c, 0, 11, 97
6, 237698, Control_c, 0, 11, 99
6, 237719, Note_on_c, 0, 89, 0
6, 237719, Note_on_c, 0, 77, 0
6, 237720, Note_on_c, 0, 76, 80
6, 237720, Control_c, 0, 11, 100
6, 237720, Note_on_c, 0, 88, 80
6, 237743, Control_c, 0, 11, 102
6, 237765, Control_c, 0, 11, 104
6, 237771, Note_on_c, 0, 76, 0
6, 237771, Note_on_c, 0, 88, 0
6, 237780, Note_on_c, 0, 74, 80
6, 237780, Note_on_c, 0, 86, 80
6, 237788, Control_c, 0, 11, 105
6, 237810, Control_c, 0, 11, 107
6, 237833, Control_c, 0, 11, 109
6, 237839, Note_on_c, 0, 74, 0
6, 237839, Note_on_c, 0, 86, 0
6, 237840, Note_on_c, 0, 73, 80
6, 237840, Note_on_c, 0, 85, 80
6, 237855, Control_c, 0, 11, 110
6, 237878, Control_c, 0, 11, 112
6, 237891, Note_on_c, 0, 73, 0
6, 237891, Note_on_c, 0, 85, 0
6, 237900, Note_on_c, 0, 82, 80
6, 237900, Control_c, 0, 11, 114
6, 237900, Note_on_c, 0, 70, 80
6, 237923, Control_c, 0, 11, 115
6, 237945, Control_c, 0, 11, 117
6, 237959, Note_on_c, 0, 82, 0
6, 237959, Note_on_c, 0, 70, 0
6, 237960, Note_on_c, 0, 81, 80
6, 237960, Note_on_c, 0, 69, 80
6, 237968, Control_c, 0, 11, 119
6, 237990, Control_c, 0, 11, 120
6, 238011, Note_on_c, 0, 81, 0
6, 238011, Note_on_c, 0, 69, 0
6, 238013, Control_c, 0, 11, 122
6, 238020, Note_on_c, 0, 91, 80
6, 238020, Note_on_c, 0, 79, 80
6, 238035, Control_c, 0, 11, 124
6, 238058, Control_c, 0, 11, 127
6, 238079, Note_on_c, 0, 91, 0
6, 238079, Note_on_c, 0, 79, 0
6, 238080, Note_on_c, 0, 77, 80
6, 238080, Note_on_c, 0, 89, 80
6, 238131, Note_on_c, 0, 77, 0
6, 238131, Note_on_c, 0, 89, 0
6, 238140, Note_on_c, 0, 88, 80
6, 238199, Note_on_c, 0, 88, 0
6, 238200, Note_on_c, 0, 86, 80
6, 238251, Note_on_c, 0, 86, 0
6, 238260, Note_on_c, 0, 84, 80
6, 238319, Note_on_c, 0, 84, 0
6, 238320, Note_on_c, 0, 82, 80
6, 238371, Note_on_c, 0, 82, 0
6, 238380, Note_on_c, 0, 81, 80
6, 238439, Note_on_c, 0, 81, 0
6, 238440, Note_on_c, 0, 79, 80
6, 238491, Note_on_c, 0, 79, 0
6, 238500, Note_on_c, 0, 89, 80
6, 238559, Note_on_c, 0, 89, 0
6, 238560, Note_on_c, 0, 88, 80
6, 238664, Note_on_c, 0, 88, 0
6, 238680, Note_on_c, 0, 88, 80
6, 238799, Note_on_c, 0, 88, 0
6, 238920, Note_on_c, 0, 88, 80
6, 239039, Note_on_c, 0, 88, 0
6, 239520, Control_c, 0, 11, 67
6, 240000, Note_on_c, 0, 93, 80
6, 240000, Note_on_c, 0, 81, 80
6, 240020, Control_c, 0, 11, 68
6, 240040, Control_c, 0, 11, 70
6, 240060, Control_c, 0, 11, 71
6, 240080, Control_c, 0, 11, 72
6, 240100, Control_c, 0, 11, 73
6, 240120, Control_c, 0, 11, 75
6, 240140, Control_c, 0, 11, 76
6, 240160, Control_c, 0, 11, 77
6, 240180, Control_c, 0, 11, 78
6, 240200, Control_c, 0, 11, 80
6, 240220, Control_c, 0, 11, 81
6, 240240, Control_c, 0, 11, 82
6, 240260, Control_c, 0, 11, 83
6, 240280, Control_c, 0, 11, 85
6, 240300, Control_c, 0, 11, 86
6, 240320, Control_c, 0, 11, 87
6, 240340, Control_c, 0, 11, 88
6, 240359, Note_on_c, 0, 93, 0
6, 240359, Note_on_c, 0, 81, 0
6, 240360, Control_c, 0, 11, 90
6, 240360, Note_on_c, 0, 92, 80
6, 240360, Note_on_c, 0, 80, 80
6, 240380, Control_c, 0, 11, 91
6, 240400, Control_c, 0, 11, 92
6, 240420, Control_c, 0, 11, 93
6, 240440, Control_c, 0, 11, 95
6, 240460, Control_c, 0, 11, 96
6, 240479, Note_on_c, 0, 92, 0
6, 240479, Note_on_c, 0, 80, 0
6, 240480, Note_on_c, 0, 91, 80
6, 240480, Control_c, 0, 11, 97
6, 240480, Note_on_c, 0, 79, 80
6, 240500, Control_c, 0, 11, 98
6, 240520, Control_c, 0, 11, 100
6, 240531, Note_on_c, 0, 91, 0
6, 240531, Note_on_c, 0, 79, 0
6, 240540, Note_on_c, 0, 89, 80
6, 240540, Note_on_c, 0, 77, 80
6, 240540, Control_c, 0, 11, 101
6, 240560, Control_c, 0, 11, 102
6, 240580, Control_c, 0, 11, 103
6, 240599, Note_on_c, 0, 89, 0
6, 240599, Note_on_c, 0, 77, 0
6, 240600, Note_on_c, 0, 88, 80
6, 240600, Note_on_c, 0, 76, 80
6, 240600, Control_c, 0, 11, 105
6, 240620, Control_c, 0, 11, 106
6, 240640, Control_c, 0, 11, 107
6, 240651, Note_on_c, 0, 88, 0
6, 240651, Note_on_c, 0, 76, 0
6, 240660, Note_on_c, 0, 86, 80
6, 240660, Control_c, 0, 11, 108
6, 240680, Control_c, 0, 11, 110
6, 240700, Control_c, 0, 11, 111
6, 240719, Note_on_c, 0, 86, 0
6, 240720, Note_on_c, 0, 85, 80
6, 240720, Control_c, 0, 11, 112
6, 240740, Control_c, 0, 11, 113
6, 240760, Control_c, 0, 11, 115
6, 240771, Note_on_c, 0, 85, 0
6, 240780, Control_c, 0, 11, 116
6, 240780, Note_on_c, 0, 82, 80
6, 240800, Control_c, 0, 11, 117
6, 240820, Control_c, 0, 11, 118
6, 240839, Note_on_c, 0, 82, 0
6, 240840, Note_on_c, 0, 81, 80
6, 240840, Control_c, 0, 11, 120
6, 240860, Control_c, 0, 11, 121
6, 240880, Control_c, 0, 11, 122
6, 240891, Note_on_c, 0, 81, 0
6, 240900, Control_c, 0, 11, 123
6, 240900, Note_on_c, 0, 81, 80
6, 240920, Control_c, 0, 11, 125
6, 240940, Control_c, 0, 11, 127
6, 241011, Note_on_c, 0, 81, 0
6, 241020, Note_on_c, 0, 82, 80
6, 241079, Note_on_c, 0, 82, 0
6, 241080, Note_on_c, 0, 84, 80
6, 241131, Note_on_c, 0, 84, 0
6, 241140, Note_on_c, 0, 86, 80
6, 241199, Note_on_c, 0, 86, 0
6, 241200, Note_on_c, 0, 88, 80
6, 241251, Note_on_c, 0, 88, 0
6, 241260, Note_on_c, 0, 89, 80
6, 241319, Note_on_c, 0, 89, 0
6, 241320, Note_on_c, 0, 91, 80
6, 241371, Note_on_c, 0, 91, 0
6, 241380, Note_on_c, 0, 93, 80
6, 241439, Note_on_c, 0, 93, 0
6, 241440, Note_on_c, 0, 91, 80
6, 241544, Note_on_c, 0, 91, 0
6, 241560, Note_on_c, 0, 91, 80
6, 241649, Note_on_c, 0, 91, 0
6, 241800, Note_on_c, 0, 88, 80
6, 241889, Note_on_c, 0, 88, 0
6, 241920, Note_on_c, 0, 85, 44
6, 241920, Note_on_c, 0, 88, 44
6, 242039, Note_on_c, 0, 85, 0
6, 242039, Note_on_c, 0, 88, 0
6, 244980, Note_on_c, 0, 89, 44
6, 245039, Note_on_c, 0, 89, 0
6, 245220, Note_on_c, 0, 88, 44
6, 245279, Note_on_c, 0, 88, 0
6, 245460, Note_on_c, 0, 86, 44
6, 245519, Note_on_c, 0, 86, 0
6, 245700, Note_on_c, 0, 85, 44
6, 245759, Note_on_c, 0, 85, 0
6, 249600, Control_c, 0, 11, 67
6, 249780, Note_on_c, 0, 81, 80
6, 249780, Note_on_c, 0, 77, 80
6, 249831, Note_on_c, 0, 81, 0
6, 249831, Note_on_c, 0, 77, 0
6, 249840, Note_on_c, 0, 86, 80
6, 249840, Note_on_c, 0, 77, 80
6, 249884, Control_c, 0, 11, 68
6, 249928, Control_c, 0, 11, 69
6, 249959, Note_on_c, 0, 86, 0
6, 249959, Note_on_c, 0, 77, 0
6, 249972, Control_c, 0, 11, 70
6, 250016, Control_c, 0, 11, 71
6, 250020, Note_on_c, 0, 89, 80
6, 250020, Note_on_c, 0, 81, 80
6, 250060, Control_c, 0, 11, 72
6, 250071, Note_on_c, 0, 89, 0
6, 250071, Note_on_c, 0, 81, 0
6, 250080, Note_on_c, 0, 89, 80
6, 250080, Note_on_c, 0, 81, 80
6, 250104, Control_c, 0, 11, 73
6, 250148, Control_c, 0, 11, 74
6, 250192, Control_c, 0, 11, 75
6, 250236, Control_c, 0, 11, 76
6, 250280, Control_c, 0, 11, 77
6, 250319, Note_on_c, 0, 89, 0
6, 250319, Note_on_c, 0, 81, 0
6, 250320, Note_on_c, 0, 88, 80
6, 250320, Note_on_c, 0, 79, 80
6, 250324, Control_c, 0, 11, 78
6, 250339, Note_on_c, 0, 88, 0
6, 250340, Note_on_c, 0, 89, 80
6, 250359, Note_on_c, 0, 89, 0
6, 250360, Note_on_c, 0, 88, 80
6, 250368, Control_c, 0, 11, 79
6, 250379, Note_on_c, 0, 88, 0
6, 250380, Note_on_c, 0, 89, 80
6, 250399, Note_on_c, 0, 89, 0
6, 250400, Note_on_c, 0, 88, 80
6, 250412, Control_c, 0, 11, 80
6, 250419, Note_on_c, 0, 88, 0
6, 250420, Note_on_c, 0, 89, 80
6, 250439, Note_on_c, 0, 89, 0
6, 250440, Note_on_c, 0, 88, 80
6, 250456, Control_c, 0, 11, 81
6, 250459, Note_on_c, 0, 88, 0
6, 250460, Note_on_c, 0, 89, 80
6, 250479, Note_on_c, 0, 89, 0
6, 250480, Note_on_c, 0, 88, 80
6, 250499, Note_on_c, 0, 88, 0
6, 250500, Note_on_c, 0, 89, 80
6, 250500, Control_c, 0, 11, 82
6, 250512, Note_on_c, 0, 89, 0
6, 250513, Note_on_c, 0, 88, 80
6, 250526, Note_on_c, 0, 88, 0
6, 250527, Note_on_c, 0, 86, 80
6, 250539, Note_on_c, 0, 86, 0
6, 250540, Note_on_c, 0, 88, 80
6, 250544, Note_on_c, 0, 79, 0
6, 250544, Control_c, 0, 11, 83
6, 250555, Note_on_c, 0, 88, 0
6, 250560, Note_on_c, 0, 86, 80
6, 250560, Note_on_c, 0, 77, 80
6, 250588, Control_c, 0, 11, 84
6, 250632, Control_c, 0, 11, 85
6, 250676, Control_c, 0, 11, 86
6, 250679, Note_on_c, 0, 86, 0
6, 250679, Note_on_c, 0, 77, 0
6, 250720, Control_c, 0, 11, 87
6, 250740, Note_on_c, 0, 86, 80
6, 250740, Note_on_c, 0, 81, 80
6, 250764, Control_c, 0, 11, 88
6, 250791, Note_on_c, 0, 86, 0
6, 250791, Note_on_c, 0, 81, 0
6, 250800, Note_on_c, 0, 86, 80
6, 250800, Note_on_c, 0, 89, 80
6, 250808, Control_c, 0, 11, 89
6, 250852, Control_c, 0, 11, 90
6, 250896, Control_c, 0, 11, 91
6, 250919, Note_on_c, 0, 86, 0
6, 250919, Note_on_c, 0, 89, 0
6, 250940, Control_c, 0, 11, 92
6, 250980, Note_on_c, 0, 89, 80
6, 250980, Note_on_c, 0, 93, 80
6, 250984, Control_c, 0, 11, 93
6, 251028, Control_c, 0, 11, 94
6, 251031, Note_on_c, 0, 89, 0
6, 251031, Note_on_c, 0, 93, 0
6, 251040, Note_on_c, 0, 93, 80
6, 251040, Note_on_c, 0, 89, 80
6, 251072, Control_c, 0, 11, 95
6, 251116, Control_c, 0, 11, 96
6, 251160, Control_c, 0, 11, 97
6, 251204, Control_c, 0, 11, 98
6, 251248, Control_c, 0, 11, 99
6, 251279, Note_on_c, 0, 93, 0
6, 251279, Note_on_c, 0, 89, 0
6, 251280, Note_on_c, 0, 88, 80
6, 251280, Note_on_c, 0, 91, 80
6, 251292, Control_c, 0, 11, 100
6, 251299, Note_on_c, 0, 91, 0
6, 251300, Note_on_c, 0, 93, 80
6, 251319, Note_on_c, 0, 93, 0
6, 251320, Note_on_c, 0, 91, 80
6, 251336, Control_c, 0, 11, 101
6, 251339, Note_on_c, 0, 91, 0
6, 251340, Note_on_c, 0, 93, 80
6, 251359, Note_on_c, 0, 93, 0
6, 251360, Note_on_c, 0, 91, 80
6, 251379, Note_on_c, 0, 91, 0
6, 251380, Control_c, 0, 11, 102
6, 251380, Note_on_c, 0, 93, 80
6, 251399, Note_on_c, 0, 93, 0
6, 251400, Note_on_c, 0, 91, 80
6, 251419, Note_on_c, 0, 91, 0
6, 251420, Note_on_c, 0, 93, 80
6, 251424, Control_c, 0, 11, 103
6, 251439, Note_on_c, 0, 93, 0
6, 251440, Note_on_c, 0, 91, 80
6, 251459, Note_on_c, 0, 91, 0
6, 251460, Note_on_c, 0, 93, 80
6, 251468, Control_c, 0, 11, 104
6, 251472, Note_on_c, 0, 93, 0
6, 251473, Note_on_c, 0, 91, 80
6, 251486, Note_on_c, 0, 91, 0
6, 251487, Note_on_c, 0, 89, 80
6, 251499, Note_on_c, 0, 89, 0
6, 251500, Note_on_c, 0, 91, 80
6, 251504, Note_on_c, 0, 88, 0
6, 251512, Control_c, 0, 11, 105
6, 251515, Note_on_c, 0, 91, 0
6, 251520, Note_on_c, 0, 86, 80
6, 251520, Note_on_c, 0, 89, 80
6, 251556, Control_c, 0, 11, 106
6, 251600, Control_c, 0, 11, 107
6, 251639, Note_on_c, 0, 86, 0
6, 251639, Note_on_c, 0, 89, 0
6, 251644, Control_c, 0, 11, 108
6, 251688, Control_c, 0, 11, 109
6, 251700, Note_on_c, 0, 81, 80
6, 251700, Note_on_c, 0, 86, 80
6, 251732, Control_c, 0, 11, 110
6, 251751, Note_on_c, 0, 81, 0
6, 251751, Note_on_c, 0, 86, 0
6, 251760, Note_on_c, 0, 86, 80
6, 251760, Note_on_c, 0, 89, 80
6, 251776, Control_c, 0, 11, 111
6, 251820, Control_c, 0, 11, 112
6, 251864, Control_c, 0, 11, 113
6, 251879, Note_on_c, 0, 86, 0
6, 251879, Note_on_c, 0, 89, 0
6, 251908, Control_c, 0, 11, 114
6, 251940, Note_on_c, 0, 93, 80
6, 251940, Note_on_c, 0, 89, 80
6, 251952, Control_c, 0, 11, 115
6, 251991, Note_on_c, 0, 93, 0
6, 251991, Note_on_c, 0, 89, 0
6, 251996, Control_c, 0, 11, 116
6, 252000, Note_on_c, 0, 93, 80
6, 252000, Note_on_c, 0, 89, 80
6, 252040, Control_c, 0, 11, 117
6, 252084, Control_c, 0, 11, 118
6, 252128, Control_c, 0, 11, 119
6, 252172, Control_c, 0, 11, 120
6, 252216, Control_c, 0, 11, 121
6, 252239, Note_on_c, 0, 93, 0
6, 252239, Note_on_c, 0, 89, 0
6, 252240, Note_on_c, 0, 88, 80
6, 252240, Note_on_c, 0, 91, 80
6, 252259, Note_on_c, 0, 91, 0
6, 252260, Control_c, 0, 11, 122
6, 252260, Note_on_c, 0, 93, 80
6, 252279, Note_on_c, 0, 93, 0
6, 252280, Note_on_c, 0, 91, 80
6, 252299, Note_on_c, 0, 91, 0
6, 252300, Note_on_c, 0, 93, 80
6, 252304, Control_c, 0, 11, 123
6, 252319, Note_on_c, 0, 93, 0
6, 252320, Note_on_c, 0, 91, 80
6, 252339, Note_on_c, 0, 91, 0
6, 252340, Note_on_c, 0, 93, 80
6, 252348, Control_c, 0, 11, 124
6, 252359, Note_on_c, 0, 93, 0
6, 252360, Note_on_c, 0, 91, 80
6, 252379, Note_on_c, 0, 91, 0
6, 252380, Note_on_c, 0, 93, 80
6, 252392, Control_c, 0, 11, 125
6, 252399, Note_on_c, 0, 93, 0
6, 252400, Note_on_c, 0, 91, 80
6, 252419, Note_on_c, 0, 91, 0
6, 252420, Note_on_c, 0, 93, 80
6, 252432, Note_on_c, 0, 93, 0
6, 252433, Note_on_c, 0, 91, 80
6, 252436, Control_c, 0, 11, 127
6, 252446, Note_on_c, 0, 91, 0
6, 252447, Note_on_c, 0, 89, 80
6, 252459, Note_on_c, 0, 89, 0
6, 252460, Note_on_c, 0, 91, 80
6, 252464, Note_on_c, 0, 88, 0
6, 252475, Note_on_c, 0, 91, 0
6, 252480, Note_on_c, 0, 89, 80
6, 252480, Note_on_c, 0, 86, 80
6, 252719, Note_on_c, 0, 89, 0
6, 252719, Note_on_c, 0, 86, 0
6, 252900, Note_on_c, 0, 86, 86
6, 252900, Note_on_c, 0, 89, 86
6, 252951, Note_on_c, 0, 86, 0
6, 252951, Note_on_c, 0, 89, 0
6, 252960, Note_on_c, 0, 88, 86
6, 252960, Note_on_c, 0, 86, 86
6, 253199, Note_on_c, 0, 88, 0
6, 253199, Note_on_c, 0, 86, 0
6, 253380, Note_on_c, 0, 93, 86
6, 253380, Note_on_c, 0, 88, 86
6, 253431, Note_on_c, 0, 93, 0
6, 253431, Note_on_c, 0, 88, 0
6, 253440, Note_on_c, 0, 89, 86
6, 253440, Note_on_c, 0, 86, 86
6, 253679, Note_on_c, 0, 89, 0
6, 253679, Note_on_c, 0, 86, 0
6, 253860, Note_on_c, 0, 89, 86
6, 253860, Note_on_c, 0, 86, 86
6, 253911, Note_on_c, 0, 89, 0
6, 253911, Note_on_c, 0, 86, 0
6, 253920, Note_on_c, 0, 86, 86
6, 253920, Note_on_c, 0, 88, 86
6, 254039, Note_on_c, 0, 86, 0
6, 254039, Note_on_c, 0, 88, 0
6, 254100, Note_on_c, 0, 88, 86
6, 254100, Note_on_c, 0, 86, 86
6, 254151, Note_on_c, 0, 88, 0
6, 254151, Note_on_c, 0, 86, 0
6, 254160, Note_on_c, 0, 88, 86
6, 254160, Note_on_c, 0, 85, 86
6, 254279, Note_on_c, 0, 88, 0
6, 254279, Note_on_c, 0, 85, 0
6, 254340, Note_on_c, 0, 93, 86
6, 254340, Note_on_c, 0, 88, 86
6, 254391, Note_on_c, 0, 93, 0
6, 254391, Note_on_c, 0, 88, 0
6, 254400, Note_on_c, 0, 90, 92
6, 254400, Note_on_c, 0, 81, 92
6, 254841, Note_on_c, 0, 90, 0
6, 254841, Note_on_c, 0, 81, 0
6, 254850, Note_on_c, 0, 90, 92
6, 254850, Note_on_c, 0, 81, 92
6, 254871, Note_on_c, 0, 90, 0
6, 254871, Note_on_c, 0, 81, 0
6, 254880, Note_on_c, 0, 90, 92
6, 254880, Note_on_c, 0, 81, 92
6, 255321, Note_on_c, 0, 90, 0
6, 255321, Note_on_c, 0, 81, 0
6, 255330, Note_on_c, 0, 81, 92
6, 255330, Note_on_c, 0, 90, 92
6, 255351, Note_on_c, 0, 81, 0
6, 255351, Note_on_c, 0, 90, 0
6, 255360, Note_on_c, 0, 92, 92
6, 255360, Note_on_c, 0, 89, 92
6, 255801, Note_on_c, 0, 92, 0
6, 255801, Note_on_c, 0, 89, 0
6, 255810, Note_on_c, 0, 92, 92
6, 255810, Note_on_c, 0, 89, 92
6, 255831, Note_on_c, 0, 92, 0
6, 255831, Note_on_c, 0, 89, 0
6, 255840, Note_on_c, 0, 93, 92
6, 255840, Note_on_c, 0, 88, 92
6, 256281, Note_on_c, 0, 93, 0
6, 256281, Note_on_c, 0, 88, 0
6, 256290, Note_on_c, 0, 93, 92
6, 256290, Note_on_c, 0, 88, 92
6, 256311, Note_on_c, 0, 93, 0
6, 256311, Note_on_c, 0, 88, 0
6, 256320, Note_on_c, 0, 78, 92
6, 256320, Note_on_c, 0, 90, 92
6, 256761, Note_on_c, 0, 78, 0
6, 256761, Note_on_c, 0, 90, 0
6, 256770, Note_on_c, 0, 78, 92
6, 256770, Note_on_c, 0, 90, 92
6, 256791, Note_on_c, 0, 78, 0
6, 256791, Note_on_c, 0, 90, 0
6, 256800, Note_on_c, 0, 78, 92
6, 256800, Note_on_c, 0, 90, 92
6, 257241, Note_on_c, 0, 78, 0
6, 257241, Note_on_c, 0, 90, 0
6, 257250, Note_on_c, 0, 90, 92
6, 257250, Note_on_c, 0, 78, 92
6, 257271, Note_on_c, 0, 90, 0
6, 257271, Note_on_c, 0, 78, 0
6, 257280, Note_on_c, 0, 92, 92
6, 257280, Note_on_c, 0, 80, 92
6, 257721, Note_on_c, 0, 92, 0
6, 257721, Note_on_c, 0, 80, 0
6, 257730, Note_on_c, 0, 80, 92
6, 257730, Note_on_c, 0, 92, 92
6, 257751, Note_on_c, 0, 80, 0
6, 257751, Note_on_c, 0, 92, 0
6, 257760, Note_on_c, 0, 81, 92
6, 257760, Note_on_c, 0, 93, 92
6, 258201, Note_on_c, 0, 81, 0
6, 258201, Note_on_c, 0, 93, 0
6, 258210, Note_on_c, 0, 86, 92
6, 258231, Note_on_c, 0, 86, 0
6, 258240, Note_on_c, 0, 93, 92
6, 258681, Note_on_c, 0, 93, 0
6, 258690, Note_on_c, 0, 89, 92
6, 258711, Note_on_c, 0, 89, 0
6, 258720, Note_on_c, 0, 86, 92
6, 258921, Note_on_c, 0, 86, 0
6, 258930, Note_on_c, 0, 81, 92
6, 258951, Note_on_c, 0, 81, 0
6, 258960, Note_on_c, 0, 77, 92
6, 259124, Note_on_c, 0, 77, 0
6, 259140, Note_on_c, 0, 81, 92
6, 259169, Note_on_c, 0, 81, 0
6, 259170, Note_on_c, 0, 77, 92
6, 259191, Note_on_c, 0, 77, 0
6, 259200, Note_on_c, 0, 74, 92
6, 259319, Note_on_c, 0, 74, 0
6, 259380, Note_on_c, 0, 81, 92
6, 259409, Note_on_c, 0, 81, 0
6, 259410, Note_on_c, 0, 77, 92
6, 259431, Note_on_c, 0, 77, 0
6, 259440, Note_on_c, 0, 74, 92
6, 259559, Note_on_c, 0, 74, 0
6, 259620, Note_on_c, 0, 86, 92
6, 259649, Note_on_c, 0, 86, 0
6, 259650, Note_on_c, 0, 81, 92
6, 259671, Note_on_c, 0, 81, 0
6, 259680, Note_on_c, 0, 77, 92
6, 259799, Note_on_c, 0, 77, 0
6, 259860, Note_on_c, 0, 89, 92
6, 259889, Note_on_c, 0, 89, 0
6, 259890, Note_on_c, 0, 86, 92
6, 259911, Note_on_c, 0, 86, 0
6, 259920, Note_on_c, 0, 81, 92
6, 260039, Note_on_c, 0, 81, 0
6, 260100, Note_on_c, 0, 93, 92
6, 260129, Note_on_c, 0, 93, 0
6, 260130, Note_on_c, 0, 89, 92
6, 260151, Note_on_c, 0, 89, 0
6, 260160, Note_on_c, 0, 86, 92
6, 260399, Note_on_c, 0, 86, 0
6, 260430, Note_on_c, 0, 62, 92
6, 260459, Note_on_c, 0, 62, 0
6, 260460, Note_on_c, 0, 64, 92
6, 260489, Note_on_c, 0, 64, 0
6, 260490, Note_on_c, 0, 65, 92
6, 260519, Note_on_c, 0, 65, 0
6, 260520, Note_on_c, 0, 67, 92
6, 260549, Note_on_c, 0, 67, 0
6, 260550, Note_on_c, 0, 69, 92
6, 260579, Note_on_c, 0, 69, 0
6, 260580, Note_on_c, 0, 71, 92
6, 260609, Note_on_c, 0, 71, 0
6, 260610, Note_on_c, 0, 73, 92
6, 260631, Note_on_c, 0, 73, 0
6, 260640, Note_on_c, 0, 74, 104
6, 260700, Control_c, 0, 11, 107
6, 260879, Note_on_c, 0, 74, 0
6, 260880, Control_c, 0, 11, 127
6, 260910, Note_on_c, 0, 74, 92
6, 260939, Note_on_c, 0, 74, 0
6, 260940, Note_on_c, 0, 76, 92
6, 260969, Note_on_c, 0, 76, 0
6, 260970, Note_on_c, 0, 77, 92
6, 260999, Note_on_c, 0, 77, 0
6, 261000, Note_on_c, 0, 79, 92
6, 261029, Note_on_c, 0, 79, 0
6, 261030, Note_on_c, 0, 81, 92
6, 261059, Note_on_c, 0, 81, 0
6, 261060, Note_on_c, 0, 83, 92
6, 261089, Note_on_c, 0, 83, 0
6, 261090, Note_on_c, 0, 85, 92
6, 261111, Note_on_c, 0, 85, 0
6, 261120, Note_on_c, 0, 86, 92
6, 261411, Note_on_c, 0, 86, 0
6, 261420, Note_on_c, 0, 89, 92
6, 261464, Note_on_c, 0, 89, 0
6, 261480, Note_on_c, 0, 88, 92
6, 261524, Note_on_c, 0, 88, 0
6, 261540, Note_on_c, 0, 86, 92
6, 261584, Note_on_c, 0, 86, 0
6, 261600, Note_on_c, 0, 93, 92
6, 261689, Note_on_c, 0, 93, 0
6, 261720, Note_on_c, 0, 91, 92
6, 261809, Note_on_c, 0, 91, 0
6, 261840, Note_on_c, 0, 88, 92
6, 261929, Note_on_c, 0, 88, 0
6, 261960, Note_on_c, 0, 93, 92
6, 262049, Note_on_c, 0, 93, 0
6, 262080, Note_on_c, 0, 86, 92
6, 262199, Note_on_c, 0, 86, 0
6, 262199, End_track
7, 0, Start_track
7, 0, Title_t, "Oboe"
7, 0, MIDI_port, 0
7, 0, Program_c, 1, 68
7, 0, Control_c, 1, 7, 96
7, 0, Control_c, 1, 10, 70
7, 3600, Control_c, 1, 11, 29
7, 3840, Note_on_c, 1, 76, 92
7, 4800, Control_c, 1, 11, 29
7, 4836, Control_c, 1, 11, 30
7, 4873, Control_c, 1, 11, 31
7, 4909, Control_c, 1, 11, 32
7, 4946, Control_c, 1, 11, 34
7, 4982, Control_c, 1, 11, 35
7, 5019, Control_c, 1, 11, 36
7, 5055, Control_c, 1, 11, 37
7, 5092, Control_c, 1, 11, 39
7, 5128, Control_c, 1, 11, 40
7, 5165, Control_c, 1, 11, 41
7, 5201, Control_c, 1, 11, 42
7, 5237, Control_c, 1, 11, 44
7, 5274, Control_c, 1, 11, 45
7, 5310, Control_c, 1, 11, 46
7, 5347, Control_c, 1, 11, 47
7, 5383, Control_c, 1, 11, 49
7, 5420, Control_c, 1, 11, 50
7, 5456, Control_c, 1, 11, 51
7, 5493, Control_c, 1, 11, 52
7, 5529, Control_c, 1, 11, 54
7, 5566, Control_c, 1, 11, 55
7, 5602, Control_c, 1, 11, 56
7, 5638, Control_c, 1, 11, 57
7, 5675, Control_c, 1, 11, 59
7, 5711, Control_c, 1, 11, 60
7, 5748, Control_c, 1, 11, 61
7, 5784, Control_c, 1, 11, 62
7, 5821, Control_c, 1, 11, 64
7, 5857, Control_c, 1, 11, 65
7, 5894, Control_c, 1, 11, 66
7, 5930, Control_c, 1, 11, 67
7, 5967, Control_c, 1, 11, 69
7, 6003, Control_c, 1, 11, 70
7, 6039, Control_c, 1, 11, 71
7, 6076, Control_c, 1, 11, 72
7, 6112, Control_c, 1, 11, 74
7, 6149, Control_c, 1, 11, 75
7, 6185, Control_c, 1, 11, 76
7, 6222, Control_c, 1, 11, 77
7, 6258, Control_c, 1, 11, 79
7, 6295, Control_c, 1, 11, 80
7, 6331, Control_c, 1, 11, 81
7, 6368, Control_c, 1, 11, 82
7, 6404, Control_c, 1, 11, 84
7, 6441, Control_c, 1, 11, 85
7, 6477, Control_c, 1, 11, 86
7, 6513, Control_c, 1, 11, 87
7, 6550, Control_c, 1, 11, 89
7, 6584, Note_on_c, 1, 76, 0
7, 6586, Control_c, 1, 11, 90
7, 6600, Note_on_c, 1, 81, 92
7, 6600, Note_on_c, 1, 69, 92
7, 6623, Control_c, 1, 11, 91
7, 6659, Control_c, 1, 11, 92
7, 6696, Control_c, 1, 11, 94
7, 6732, Control_c, 1, 11, 95
7, 6769, Control_c, 1, 11, 96
7, 6805, Control_c, 1, 11, 97
7, 6842, Control_c, 1, 11, 99
7, 6878, Control_c, 1, 11, 100
7, 6914, Control_c, 1, 11, 101
7, 6951, Control_c, 1, 11, 102
7, 6987, Control_c, 1, 11, 104
7, 7024, Control_c, 1, 11, 105
7, 7060, Control_c, 1, 11, 106
7, 7097, Control_c, 1, 11, 107
7, 7133, Control_c, 1, 11, 109
7, 7170, Control_c, 1, 11, 110
7, 7206, Control_c, 1, 11, 111
7, 7243, Control_c, 1, 11, 112
7, 7279, Control_c, 1, 11, 114
7, 7315, Control_c, 1, 11, 115
7, 7352, Control_c, 1, 11, 116
7, 7388, Control_c, 1, 11, 117
7, 7425, Control_c, 1, 11, 119
7, 7461, Control_c, 1, 11, 120
7, 7498, Control_c, 1, 11, 121
7, 7534, Control_c, 1, 11, 122
7, 7571, Control_c, 1, 11, 124
7, 7607, Control_c, 1, 11, 125
7, 7641, Note_on_c, 1, 81, 0
7, 7641, Note_on_c, 1, 69, 0
7, 7644, Control_c, 1, 11, 127
7, 7650, Note_on_c, 1, 86, 92
7, 7650, Note_on_c, 1, 74, 92
7, 7671, Note_on_c, 1, 86, 0
7, 7671, Note_on_c, 1, 74, 0
7, 7680, Note_on_c, 1, 69, 92
7, 7680, Note_on_c, 1, 81, 92
7, 8121, Note_on_c, 1, 69, 0
7, 8121, Note_on_c, 1, 81, 0
7, 8130, Note_on_c, 1, 65, 92
7, 8130, Note_on_c, 1, 77, 92
7, 8151, Note_on_c, 1, 65, 0
7, 8151, Note_on_c, 1, 77, 0
7, 8160, Note_on_c, 1, 62, 92
7, 8160, Note_on_c, 1, 74, 92
7, 8361, Note_on_c, 1, 62, 0
7, 8361, Note_on_c, 1, 74, 0
7, 8370, Note_on_c, 1, 69, 92
7, 8391, Note_on_c, 1, 69, 0
7, 8400, Note_on_c, 1, 65, 92
7, 8579, Note_on_c, 1, 65, 0
7, 8580, Note_on_c, 1, 69, 92
7, 8609, Note_on_c, 1, 69, 0
7, 8610, Note_on_c, 1, 65, 92
7, 8631, Note_on_c, 1, 65, 0
7, 8640, Note_on_c, 1, 62, 92
7, 8924, Note_on_c, 1, 62, 0
7, 8940, Note_on_c, 1, 77, 92
7, 8940, Note_on_c, 1, 65, 92
7, 8984, Note_on_c, 1, 77, 0
7, 8984, Note_on_c, 1, 65, 0
7, 9000, Note_on_c, 1, 76, 92
7, 9000, Note_on_c, 1, 64, 92
7, 9044, Note_on_c, 1, 76, 0
7, 9044, Note_on_c, 1, 64, 0
7, 9060, Note_on_c, 1, 74, 92
7, 9060, Note_on_c, 1, 62, 92
7, 9104, Note_on_c, 1, 74, 0
7, 9104, Note_on_c, 1, 62, 0
7, 9120, Note_on_c, 1, 69, 92
7, 9120, Note_on_c, 1, 81, 92
7, 9209, Note_on_c, 1, 69, 0
7, 9209, Note_on_c, 1, 81, 0
7, 9240, Note_on_c, 1, 79, 92
7, 9240, Note_on_c, 1, 67, 92
7, 9329, Note_on_c, 1, 79, 0
7, 9329, Note_on_c, 1, 67, 0
7, 9360, Note_on_c, 1, 64, 92
7, 9360, Note_on_c, 1, 76, 92
7, 9449, Note_on_c, 1, 64, 0
7, 9449, Note_on_c, 1, 76, 0
7, 9480, Note_on_c, 1, 81, 92
7, 9480, Note_on_c, 1, 69, 92
7, 9569, Note_on_c, 1, 81, 0
7, 9569, Note_on_c, 1, 69, 0
7, 9600, Note_on_c, 1, 74, 104
7, 9600, Note_on_c, 1, 62, 104
7, 9779, Note_on_c, 1, 74, 0
7, 9779, Note_on_c, 1, 62, 0
7, 9840, Note_on_c, 1, 76, 92
7, 9840, Note_on_c, 1, 73, 92
7, 10019, Note_on_c, 1, 76, 0
7, 10019, Note_on_c, 1, 73, 0
7, 10080, Note_on_c, 1, 77, 92
7, 10080, Note_on_c, 1, 74, 92
7, 10259, Note_on_c, 1, 77, 0
7, 10259, Note_on_c, 1, 74, 0
7, 10560, Note_on_c, 1, 79, 92
7, 10560, Note_on_c, 1, 70, 92
7, 10739, Note_on_c, 1, 79, 0
7, 10739, Note_on_c, 1, 70, 0
7, 10800, Note_on_c, 1, 81, 92
7, 10800, Note_on_c, 1, 78, 92
7, 10979, Note_on_c, 1, 81, 0
7, 10979, Note_on_c, 1, 78, 0
7, 11040, Note_on_c, 1, 82, 92
7, 11040, Note_on_c, 1, 79, 92
7, 12104, Note_on_c, 1, 82, 0
7, 12104, Note_on_c, 1, 79, 0
7, 12120, Note_on_c, 1, 82, 92
7, 12120, Note_on_c, 1, 77, 92
7, 12224, Note_on_c, 1, 82, 0
7, 12224, Note_on_c, 1, 77, 0
7, 12240, Note_on_c, 1, 82, 92
7, 12240, Note_on_c, 1, 75, 92
7, 12344, Note_on_c, 1, 82, 0
7, 12344, Note_on_c, 1, 75, 0
7, 12360, Note_on_c, 1, 82, 92
7, 12360, Note_on_c, 1, 74, 92
7, 12449, Note_on_c, 1, 82, 0
7, 12449, Note_on_c, 1, 74, 0
7, 12480, Note_on_c, 1, 82, 104
7, 12480, Note_on_c, 1, 73, 104
7, 12599, Note_on_c, 1, 82, 0
7, 12599, Note_on_c, 1, 73, 0
7, 12960, Note_on_c, 1, 76, 44
7, 12960, Note_on_c, 1, 79, 44
7, 13199, Note_on_c, 1, 76, 0
7, 13199, Note_on_c, 1, 79, 0
7, 13200, Note_on_c, 1, 73, 44
7, 13200, Note_on_c, 1, 76, 44
7, 13409, Note_on_c, 1, 73, 0
7, 13409, Note_on_c, 1, 76, 0
7, 13410, Note_on_c, 1, 74, 44
7, 13410, Note_on_c, 1, 77, 44
7, 13431, Note_on_c, 1, 74, 0
7, 13431, Note_on_c, 1, 77, 0
7, 13440, Note_on_c, 1, 74, 44
7, 13440, Note_on_c, 1, 77, 44
7, 13559, Note_on_c, 1, 74, 0
7, 13559, Note_on_c, 1, 77, 0
7, 13920, Note_on_c, 1, 77, 44
7, 13920, Note_on_c, 1, 81, 44
7, 14159, Note_on_c, 1, 77, 0
7, 14159, Note_on_c, 1, 81, 0
7, 14160, Note_on_c, 1, 77, 44
7, 14160, Note_on_c, 1, 74, 44
7, 14369, Note_on_c, 1, 77, 0
7, 14369, Note_on_c, 1, 74, 0
7, 14370, Note_on_c, 1, 79, 44
7, 14370, Note_on_c, 1, 76, 44
7, 14391, Note_on_c, 1, 79, 0
7, 14391, Note_on_c, 1, 76, 0
7, 14400, Note_on_c, 1, 76, 80
7, 14400, Note_on_c, 1, 79, 80
7, 14519, Note_on_c, 1, 76, 0
7, 14519, Note_on_c, 1, 79, 0
7, 14640, Note_on_c, 1, 76, 92
7, 14640, Note_on_c, 1, 85, 92
7, 14700, Control_c, 1, 11, 109
7, 15104, Note_on_c, 1, 76, 0
7, 15104, Note_on_c, 1, 85, 0
7, 15118, Control_c, 1, 11, 127
7, 15120, Note_on_c, 1, 77, 92
7, 15120, Note_on_c, 1, 86, 92
7, 15180, Control_c, 1, 11, 109
7, 15584, Note_on_c, 1, 77, 0
7, 15584, Note_on_c, 1, 86, 0
7, 15598, Control_c, 1, 11, 127
7, 15600, Note_on_c, 1, 86, 92
7, 15600, Note_on_c, 1, 77, 92
7, 15719, Note_on_c, 1, 86, 0
7, 15719, Note_on_c, 1, 77, 0
7, 15840, Note_on_c, 1, 86, 80
7, 15840, Note_on_c, 1, 77, 80
7, 16320, Control_c, 1, 11, 69
7, 16439, Note_on_c, 1, 86, 0
7, 16439, Note_on_c, 1, 77, 0
7, 19680, Control_c, 1, 11, 29
7, 20160, Note_on_c, 1, 74, 92
7, 21120, Control_c, 1, 11, 29
7, 21156, Control_c, 1, 11, 30
7, 21193, Control_c, 1, 11, 31
7, 21229, Control_c, 1, 11, 32
7, 21266, Control_c, 1, 11, 34
7, 21302, Control_c, 1, 11, 35
7, 21339, Control_c, 1, 11, 36
7, 21375, Control_c, 1, 11, 37
7, 21412, Control_c, 1, 11, 39
7, 21448, Control_c, 1, 11, 40
7, 21485, Control_c, 1, 11, 41
7, 21521, Control_c, 1, 11, 42
7, 21557, Control_c, 1, 11, 44
7, 21594, Control_c, 1, 11, 45
7, 21630, Control_c, 1, 11, 46
7, 21667, Control_c, 1, 11, 47
7, 21703, Control_c, 1, 11, 49
7, 21740, Control_c, 1, 11, 50
7, 21776, Control_c, 1, 11, 51
7, 21813, Control_c, 1, 11, 52
7, 21849, Control_c, 1, 11, 54
7, 21886, Control_c, 1, 11, 55
7, 21922, Control_c, 1, 11, 56
7, 21958, Control_c, 1, 11, 57
7, 21995, Control_c, 1, 11, 59
7, 22031, Control_c, 1, 11, 60
7, 22068, Control_c, 1, 11, 61
7, 22104, Control_c, 1, 11, 62
7, 22141, Control_c, 1, 11, 64
7, 22177, Control_c, 1, 11, 65
7, 22214, Control_c, 1, 11, 66
7, 22250, Control_c, 1, 11, 67
7, 22287, Control_c, 1, 11, 69
7, 22323, Control_c, 1, 11, 70
7, 22359, Control_c, 1, 11, 71
7, 22396, Control_c, 1, 11, 72
7, 22432, Control_c, 1, 11, 74
7, 22469, Control_c, 1, 11, 75
7, 22505, Control_c, 1, 11, 76
7, 22542, Control_c, 1, 11, 77
7, 22578, Control_c, 1, 11, 79
7, 22615, Control_c, 1, 11, 80
7, 22651, Control_c, 1, 11, 81
7, 22688, Control_c, 1, 11, 82
7, 22724, Control_c, 1, 11, 84
7, 22761, Control_c, 1, 11, 85
7, 22797, Control_c, 1, 11, 86
7, 22833, Control_c, 1, 11, 87
7, 22870, Control_c, 1, 11, 89
7, 22906, Control_c, 1, 11, 90
7, 22943, Control_c, 1, 11, 91
7, 22979, Control_c, 1, 11, 92
7, 23016, Control_c, 1, 11, 94
7, 23052, Control_c, 1, 11, 95
7, 23089, Control_c, 1, 11, 96
7, 23125, Control_c, 1, 11, 97
7, 23162, Control_c, 1, 11, 99
7, 23198, Control_c, 1, 11, 100
7, 23234, Control_c, 1, 11, 101
7, 23271, Control_c, 1, 11, 102
7, 23280, Note_on_c, 1, 70, 92
7, 23307, Control_c, 1, 11, 104
7, 23344, Control_c, 1, 11, 105
7, 23380, Control_c, 1, 11, 106
7, 23417, Control_c, 1, 11, 107
7, 23453, Control_c, 1, 11, 109
7, 23490, Control_c, 1, 11, 110
7, 23504, Note_on_c, 1, 74, 0
7, 23520, Note_on_c, 1, 82, 92
7, 23526, Control_c, 1, 11, 111
7, 23563, Control_c, 1, 11, 112
7, 23599, Control_c, 1, 11, 114
7, 23635, Control_c, 1, 11, 115
7, 23672, Control_c, 1, 11, 116
7, 23708, Control_c, 1, 11, 117
7, 23745, Control_c, 1, 11, 119
7, 23781, Control_c, 1, 11, 120
7, 23818, Control_c, 1, 11, 121
7, 23854, Control_c, 1, 11, 122
7, 23891, Control_c, 1, 11, 124
7, 23927, Control_c, 1, 11, 125
7, 23961, Note_on_c, 1, 70, 0
7, 23961, Note_on_c, 1, 82, 0
7, 23964, Control_c, 1, 11, 127
7, 23970, Note_on_c, 1, 82, 92
7, 23991, Note_on_c, 1, 82, 0
7, 24000, Note_on_c, 1, 77, 92
7, 24441, Note_on_c, 1, 77, 0
7, 24450, Note_on_c, 1, 74, 92
7, 24471, Note_on_c, 1, 74, 0
7, 24480, Note_on_c, 1, 70, 92
7, 24681, Note_on_c, 1, 70, 0
7, 24690, Note_on_c, 1, 65, 92
7, 24711, Note_on_c, 1, 65, 0
7, 24720, Note_on_c, 1, 62, 92
7, 24891, Note_on_c, 1, 62, 0
7, 24900, Note_on_c, 1, 77, 92
7, 24929, Note_on_c, 1, 77, 0
7, 24930, Note_on_c, 1, 74, 92
7, 24951, Note_on_c, 1, 74, 0
7, 24960, Note_on_c, 1, 70, 92
7, 25244, Note_on_c, 1, 70, 0
7, 25260, Note_on_c, 1, 74, 92
7, 25304, Note_on_c, 1, 74, 0
7, 25320, Note_on_c, 1, 72, 92
7, 25364, Note_on_c, 1, 72, 0
7, 25380, Note_on_c, 1, 70, 92
7, 25424, Note_on_c, 1, 70, 0
7, 25440, Note_on_c, 1, 77, 92
7, 25529, Note_on_c, 1, 77, 0
7, 25560, Note_on_c, 1, 75, 92
7, 25649, Note_on_c, 1, 75, 0
7, 25680, Note_on_c, 1, 72, 92
7, 25769, Note_on_c, 1, 72, 0
7, 25800, Note_on_c, 1, 77, 92
7, 25889, Note_on_c, 1, 77, 0
7, 25920, Note_on_c, 1, 74, 92
7, 26039, Note_on_c, 1, 74, 0
7, 26460, Note_on_c, 1, 77, 92
7, 26460, Note_on_c, 1, 65, 92
7, 26504, Note_on_c, 1, 77, 0
7, 26504, Note_on_c, 1, 65, 0
7, 26520, Note_on_c, 1, 75, 92
7, 26520, Note_on_c, 1, 63, 92
7, 26564, Note_on_c, 1, 75, 0
7, 26564, Note_on_c, 1, 63, 0
7, 26580, Note_on_c, 1, 74, 92
7, 26580, Note_on_c, 1, 62, 92
7, 26624, Note_on_c, 1, 74, 0
7, 26624, Note_on_c, 1, 62, 0
7, 26640, Note_on_c, 1, 70, 92
7, 26640, Note_on_c, 1, 82, 92
7, 26759, Note_on_c, 1, 70, 0
7, 26759, Note_on_c, 1, 82, 0
7, 26880, Note_on_c, 1, 64, 104
7, 26880, Note_on_c, 1, 76, 104
7, 26999, Note_on_c, 1, 64, 0
7, 26999, Note_on_c, 1, 76, 0
7, 27420, Note_on_c, 1, 67, 92
7, 27420, Note_on_c, 1, 79, 92
7, 27464, Note_on_c, 1, 67, 0
7, 27464, Note_on_c, 1, 79, 0
7, 27480, Note_on_c, 1, 77, 92
7, 27480, Note_on_c, 1, 65, 92
7, 27524, Note_on_c, 1, 77, 0
7, 27524, Note_on_c, 1, 65, 0
7, 27540, Note_on_c, 1, 64, 92
7, 27540, Note_on_c, 1, 76, 92
7, 27584, Note_on_c, 1, 64, 0
7, 27584, Note_on_c, 1, 76, 0
7, 27600, Note_on_c, 1, 85, 92
7, 27600, Note_on_c, 1, 73, 92
7, 27719, Note_on_c, 1, 85, 0
7, 27719, Note_on_c, 1, 73, 0
7, 27840, Note_on_c, 1, 77, 104
7, 27840, Note_on_c, 1, 65, 104
7, 27959, Note_on_c, 1, 77, 0
7, 27959, Note_on_c, 1, 65, 0
7, 28380, Note_on_c, 1, 81, 92
7, 28380, Note_on_c, 1, 69, 92
7, 28424, Note_on_c, 1, 81, 0
7, 28424, Note_on_c, 1, 69, 0
7, 28440, Note_on_c, 1, 67, 92
7, 28440, Note_on_c, 1, 79, 92
7, 28484, Note_on_c, 1, 67, 0
7, 28484, Note_on_c, 1, 79, 0
7, 28500, Note_on_c, 1, 77, 92
7, 28500, Note_on_c, 1, 65, 92
7, 28544, Note_on_c, 1, 77, 0
7, 28544, Note_on_c, 1, 65, 0
7, 28560, Note_on_c, 1, 86, 92
7, 28560, Note_on_c, 1, 74, 92
7, 28679, Note_on_c, 1, 86, 0
7, 28679, Note_on_c, 1, 74, 0
7, 28860, Note_on_c, 1, 69, 92
7, 28860, Note_on_c, 1, 81, 92
7, 28904, Note_on_c, 1, 69, 0
7, 28904, Note_on_c, 1, 81, 0
7, 28920, Note_on_c, 1, 67, 92
7, 28920, Note_on_c, 1, 79, 92
7, 28964, Note_on_c, 1, 67, 0
7, 28964, Note_on_c, 1, 79, 0
7, 28980, Note_on_c, 1, 66, 92
7, 28980, Note_on_c, 1, 78, 92
7, 29024, Note_on_c, 1, 66, 0
7, 29024, Note_on_c, 1, 78, 0
7, 29040, Note_on_c, 1, 86, 104
7, 29040, Note_on_c, 1, 74, 104
7, 29084, Note_on_c, 1, 86, 0
7, 29084, Note_on_c, 1, 74, 0
7, 29100, Note_on_c, 1, 82, 92
7, 29100, Note_on_c, 1, 70, 92
7, 29144, Note_on_c, 1, 82, 0
7, 29144, Note_on_c, 1, 70, 0
7, 29160, Note_on_c, 1, 69, 92
7, 29160, Note_on_c, 1, 81, 92
7, 29204, Note_on_c, 1, 69, 0
7, 29204, Note_on_c, 1, 81, 0
7, 29220, Note_on_c, 1, 67, 92
7, 29220, Note_on_c, 1, 79, 92
7, 29264, Note_on_c, 1, 67, 0
7, 29264, Note_on_c, 1, 79, 0
7, 29280, Note_on_c, 1, 74, 104
7, 29280, Note_on_c, 1, 86, 104
7, 29324, Note_on_c, 1, 74, 0
7, 29324, Note_on_c, 1, 86, 0
7, 29340, Note_on_c, 1, 70, 92
7, 29384, Note_on_c, 1, 70, 0
7, 29400, Note_on_c, 1, 69, 92
7, 29444, Note_on_c, 1, 69, 0
7, 29460, Note_on_c, 1, 67, 92
7, 29504, Note_on_c, 1, 67, 0
7, 29520, Note_on_c, 1, 71, 104
7, 29520, Note_on_c, 1, 77, 104
7, 29564, Note_on_c, 1, 71, 0
7, 29564, Note_on_c, 1, 77, 0
7, 29580, Note_on_c, 1, 71, 92
7, 29580, Note_on_c, 1, 77, 92
7, 29624, Note_on_c, 1, 71, 0
7, 29624, Note_on_c, 1, 77, 0
7, 29640, Note_on_c, 1, 76, 92
7, 29640, Note_on_c, 1, 71, 92
7, 29684, Note_on_c, 1, 76, 0
7, 29684, Note_on_c, 1, 71, 0
7, 29700, Note_on_c, 1, 74, 92
7, 29700, Note_on_c, 1, 71, 92
7, 29744, Note_on_c, 1, 74, 0
7, 29744, Note_on_c, 1, 71, 0
7, 29760, Note_on_c, 1, 69, 104
7, 29760, Note_on_c, 1, 81, 104
7, 29820, Control_c, 1, 11, 109
7, 30704, Note_on_c, 1, 69, 0
7, 30704, Note_on_c, 1, 81, 0
7, 30718, Control_c, 1, 11, 127
7, 30720, Note_on_c, 1, 82, 92
7, 30720, Note_on_c, 1, 70, 92
7, 30809, Note_on_c, 1, 82, 0
7, 30809, Note_on_c, 1, 70, 0
7, 30840, Note_on_c, 1, 69, 92
7, 30840, Note_on_c, 1, 81, 92
7, 30929, Note_on_c, 1, 69, 0
7, 30929, Note_on_c, 1, 81, 0
7, 30960, Note_on_c, 1, 69, 92
7, 30960, Note_on_c, 1, 81, 92
7, 31049, Note_on_c, 1, 69, 0
7, 31049, Note_on_c, 1, 81, 0
7, 31080, Note_on_c, 1, 81, 92
7, 31080, Note_on_c, 1, 69, 92
7, 31169, Note_on_c, 1, 81, 0
7, 31169, Note_on_c, 1, 69, 0
7, 31200, Note_on_c, 1, 69, 104
7, 31200, Note_on_c, 1, 81, 104
7, 31379, Note_on_c, 1, 69, 0
7, 31379, Note_on_c, 1, 81, 0
7, 31440, Note_on_c, 1, 81, 104
7, 31440, Note_on_c, 1, 69, 104
7, 31619, Note_on_c, 1, 81, 0
7, 31619, Note_on_c, 1, 69, 0
7, 31680, Note_on_c, 1, 69, 104
7, 31680, Note_on_c, 1, 81, 104
7, 31859, Note_on_c, 1, 69, 0
7, 31859, Note_on_c, 1, 81, 0
7, 32160, Note_on_c, 1, 81, 104
7, 32220, Control_c, 1, 11, 107
7, 32624, Note_on_c, 1, 81, 0
7, 32640, Note_on_c, 1, 79, 104
7, 32729, Note_on_c, 1, 79, 0
7, 32760, Note_on_c, 1, 77, 104
7, 32849, Note_on_c, 1, 77, 0
7, 32880, Note_on_c, 1, 76, 104
7, 32969, Note_on_c, 1, 76, 0
7, 33000, Note_on_c, 1, 74, 104
7, 33089, Note_on_c, 1, 74, 0
7, 33120, Note_on_c, 1, 73, 104
7, 33209, Note_on_c, 1, 73, 0
7, 33240, Note_on_c, 1, 74, 104
7, 33329, Note_on_c, 1, 74, 0
7, 33360, Note_on_c, 1, 76, 104
7, 33449, Note_on_c, 1, 76, 0
7, 33480, Note_on_c, 1, 77, 104
7, 33569, Note_on_c, 1, 77, 0
7, 33598, Control_c, 1, 11, 127
7, 33600, Note_on_c, 1, 79, 104
7, 33779, Note_on_c, 1, 79, 0
7, 33840, Note_on_c, 1, 79, 104
7, 33840, Note_on_c, 1, 77, 104
7, 34019, Note_on_c, 1, 79, 0
7, 34019, Note_on_c, 1, 77, 0
7, 34080, Note_on_c, 1, 84, 104
7, 34259, Note_on_c, 1, 84, 0
7, 34320, Note_on_c, 1, 82, 104
7, 34499, Note_on_c, 1, 82, 0
7, 34560, Note_on_c, 1, 69, 92
7, 34560, Note_on_c, 1, 81, 92
7, 34560, Control_c, 1, 11, 127
7, 34587, Control_c, 1, 11, 123
7, 34613, Control_c, 1, 11, 118
7, 34640, Control_c, 1, 11, 114
7, 34667, Control_c, 1, 11, 109
7, 34693, Control_c, 1, 11, 105
7, 34720, Control_c, 1, 11, 100
7, 34739, Note_on_c, 1, 69, 0
7, 34739, Note_on_c, 1, 81, 0
7, 34747, Control_c, 1, 11, 96
7, 34773, Control_c, 1, 11, 91
7, 34800, Note_on_c, 1, 84, 92
7, 34800, Control_c, 1, 11, 87
7, 34800, Note_on_c, 1, 81, 92
7, 34827, Control_c, 1, 11, 83
7, 34853, Control_c, 1, 11, 78
7, 34880, Control_c, 1, 11, 74
7, 34907, Control_c, 1, 11, 69
7, 34933, Control_c, 1, 11, 65
7, 34960, Control_c, 1, 11, 60
7, 34979, Note_on_c, 1, 84, 0
7, 34979, Note_on_c, 1, 81, 0
7, 35038, Control_c, 1, 11, 127
7, 36000, Note_on_c, 1, 70, 40
7, 36000, Note_on_c, 1, 74, 40
7, 36359, Note_on_c, 1, 70, 0
7, 36359, Note_on_c, 1, 74, 0
7, 36360, Note_on_c, 1, 75, 40
7, 36360, Note_on_c, 1, 72, 40
7, 36419, Note_on_c, 1, 75, 0
7, 36419, Note_on_c, 1, 72, 0
7, 36420, Note_on_c, 1, 74, 40
7, 36420, Note_on_c, 1, 77, 40
7, 36471, Note_on_c, 1, 74, 0
7, 36471, Note_on_c, 1, 77, 0
7, 36480, Note_on_c, 1, 77, 40
7, 36480, Note_on_c, 1, 74, 40
7, 36599, Note_on_c, 1, 77, 0
7, 36599, Note_on_c, 1, 74, 0
7, 36600, Note_on_c, 1, 72, 40
7, 36600, Note_on_c, 1, 75, 40
7, 36659, Note_on_c, 1, 72, 0
7, 36659, Note_on_c, 1, 75, 0
7, 36660, Note_on_c, 1, 70, 40
7, 36660, Note_on_c, 1, 74, 40
7, 36711, Note_on_c, 1, 70, 0
7, 36711, Note_on_c, 1, 74, 0
7, 36720, Note_on_c, 1, 74, 40
7, 36720, Note_on_c, 1, 70, 40
7, 36839, Note_on_c, 1, 74, 0
7, 36839, Note_on_c, 1, 70, 0
7, 36840, Note_on_c, 1, 69, 40
7, 36840, Note_on_c, 1, 72, 40
7, 36899, Note_on_c, 1, 69, 0
7, 36899, Note_on_c, 1, 72, 0
7, 36900, Note_on_c, 1, 70, 40
7, 36951, Note_on_c, 1, 70, 0
7, 36960, Note_on_c, 1, 65, 40
7, 36960, Note_on_c, 1, 70, 40
7, 37079, Note_on_c, 1, 70, 0
7, 37080, Note_on_c, 1, 69, 40
7, 37199, Note_on_c, 1, 65, 0
7, 37199, Note_on_c, 1, 69, 0
7, 38400, Note_on_c, 1, 65, 44
7, 38744, Note_on_c, 1, 65, 0
7, 38760, Note_on_c, 1, 70, 50
7, 38864, Note_on_c, 1, 70, 0
7, 38880, Note_on_c, 1, 69, 44
7, 39119, Note_on_c, 1, 69, 0
7, 39360, Note_on_c, 1, 72, 44
7, 39704, Note_on_c, 1, 72, 0
7, 39720, Note_on_c, 1, 79, 50
7, 39824, Note_on_c, 1, 79, 0
7, 39840, Note_on_c, 1, 77, 44
7, 39944, Note_on_c, 1, 77, 0
7, 41387, Control_c, 1, 11, 105
7, 41400, Note_on_c, 1, 72, 68
7, 41410, Control_c, 1, 11, 104
7, 41433, Control_c, 1, 11, 103
7, 41457, Control_c, 1, 11, 101
7, 41480, Control_c, 1, 11, 100
7, 41503, Control_c, 1, 11, 99
7, 41527, Control_c, 1, 11, 98
7, 41550, Control_c, 1, 11, 97
7, 41573, Control_c, 1, 11, 96
7, 41597, Control_c, 1, 11, 95
7, 41620, Control_c, 1, 11, 94
7, 41639, Note_on_c, 1, 72, 0
7, 41640, Note_on_c, 1, 79, 68
7, 41643, Control_c, 1, 11, 93
7, 41667, Control_c, 1, 11, 91
7, 41690, Control_c, 1, 11, 90
7, 41699, Note_on_c, 1, 79, 0
7, 41700, Note_on_c, 1, 78, 68
7, 41713, Control_c, 1, 11, 89
7, 41737, Control_c, 1, 11, 87
7, 41751, Note_on_c, 1, 78, 0
7, 41760, Note_on_c, 1, 77, 68
7, 41999, Note_on_c, 1, 77, 0
7, 42118, Control_c, 1, 11, 127
7, 42120, Note_on_c, 1, 82, 44
7, 42239, Note_on_c, 1, 82, 0
7, 42240, Note_on_c, 1, 83, 44
7, 42359, Note_on_c, 1, 83, 0
7, 42360, Note_on_c, 1, 84, 44
7, 42464, Note_on_c, 1, 84, 0
7, 42480, Note_on_c, 1, 84, 44
7, 42584, Note_on_c, 1, 84, 0
7, 42600, Note_on_c, 1, 84, 44
7, 42704, Note_on_c, 1, 84, 0
7, 42720, Note_on_c, 1, 82, 44
7, 42959, Note_on_c, 1, 82, 0
7, 43080, Note_on_c, 1, 79, 44
7, 43199, Note_on_c, 1, 79, 0
7, 43200, Note_on_c, 1, 80, 44
7, 43319, Note_on_c, 1, 80, 0
7, 43320, Note_on_c, 1, 81, 44
7, 43424, Note_on_c, 1, 81, 0
7, 43440, Note_on_c, 1, 81, 44
7, 43544, Note_on_c, 1, 81, 0
7, 43560, Note_on_c, 1, 81, 44
7, 43664, Note_on_c, 1, 81, 0
7, 43680, Note_on_c, 1, 79, 44
7, 43799, Note_on_c, 1, 79, 0
7, 44460, Note_on_c, 1, 82, 73
7, 44519, Note_on_c, 1, 82, 0
7, 44520, Note_on_c, 1, 82, 75
7, 44571, Note_on_c, 1, 82, 0
7, 44580, Note_on_c, 1, 86, 77
7, 44580, Note_on_c, 1, 74, 77
7, 44639, Note_on_c, 1, 86, 0
7, 44639, Note_on_c, 1, 74, 0
7, 44640, Note_on_c, 1, 79, 80
7, 44691, Note_on_c, 1, 79, 0
7, 44700, Note_on_c, 1, 77, 80
7, 44759, Note_on_c, 1, 77, 0
7, 44760, Note_on_c, 1, 75, 80
7, 44811, Note_on_c, 1, 75, 0
7, 44820, Note_on_c, 1, 74, 80
7, 44879, Note_on_c, 1, 74, 0
7, 44880, Note_on_c, 1, 72, 80
7, 44931, Note_on_c, 1, 72, 0
7, 44940, Note_on_c, 1, 70, 80
7, 44999, Note_on_c, 1, 70, 0
7, 45000, Note_on_c, 1, 69, 80
7, 45051, Note_on_c, 1, 69, 0
7, 45060, Note_on_c, 1, 67, 80
7, 45119, Note_on_c, 1, 67, 0
7, 45120, Note_on_c, 1, 65, 80
7, 45224, Note_on_c, 1, 65, 0
7, 45240, Note_on_c, 1, 74, 80
7, 45240, Note_on_c, 1, 82, 80
7, 45329, Note_on_c, 1, 74, 0
7, 45329, Note_on_c, 1, 82, 0
7, 45480, Note_on_c, 1, 81, 80
7, 45480, Note_on_c, 1, 72, 80
7, 45569, Note_on_c, 1, 81, 0
7, 45569, Note_on_c, 1, 72, 0
7, 46080, Control_c, 1, 11, 107
7, 46560, Note_on_c, 1, 67, 56
7, 46560, Note_on_c, 1, 79, 56
7, 46608, Control_c, 1, 11, 108
7, 46656, Control_c, 1, 11, 109
7, 46704, Control_c, 1, 11, 110
7, 46752, Control_c, 1, 11, 111
7, 46800, Control_c, 1, 11, 112
7, 46848, Control_c, 1, 11, 113
7, 46896, Control_c, 1, 11, 114
7, 46944, Control_c, 1, 11, 115
7, 46992, Control_c, 1, 11, 116
7, 47040, Control_c, 1, 11, 117
7, 47088, Control_c, 1, 11, 118
7, 47091, Note_on_c, 1, 67, 0
7, 47091, Note_on_c, 1, 79, 0
7, 47100, Note_on_c, 1, 67, 56
7, 47100, Note_on_c, 1, 79, 56
7, 47136, Control_c, 1, 11, 119
7, 47184, Control_c, 1, 11, 120
7, 47211, Note_on_c, 1, 67, 0
7, 47211, Note_on_c, 1, 79, 0
7, 47220, Note_on_c, 1, 67, 56
7, 47220, Note_on_c, 1, 79, 56
7, 47232, Control_c, 1, 11, 121
7, 47280, Control_c, 1, 11, 122
7, 47328, Control_c, 1, 11, 123
7, 47331, Note_on_c, 1, 67, 0
7, 47331, Note_on_c, 1, 79, 0
7, 47340, Note_on_c, 1, 67, 56
7, 47340, Note_on_c, 1, 79, 56
7, 47376, Control_c, 1, 11, 124
7, 47424, Control_c, 1, 11, 125
7, 47451, Note_on_c, 1, 67, 0
7, 47451, Note_on_c, 1, 79, 0
7, 47460, Note_on_c, 1, 65, 56
7, 47460, Note_on_c, 1, 77, 56
7, 47472, Control_c, 1, 11, 127
7, 47519, Note_on_c, 1, 65, 0
7, 47519, Note_on_c, 1, 77, 0
7, 47520, Note_on_c, 1, 75, 56
7, 47520, Note_on_c, 1, 63, 56
7, 47571, Note_on_c, 1, 75, 0
7, 47571, Note_on_c, 1, 63, 0
7, 47580, Note_on_c, 1, 65, 58
7, 47639, Note_on_c, 1, 65, 0
7, 47640, Note_on_c, 1, 67, 60
7, 47691, Note_on_c, 1, 67, 0
7, 47700, Note_on_c, 1, 69, 62
7, 47759, Note_on_c, 1, 69, 0
7, 47760, Note_on_c, 1, 70, 65
7, 47811, Note_on_c, 1, 70, 0
7, 47820, Note_on_c, 1, 72, 67
7, 47879, Note_on_c, 1, 72, 0
7, 47880, Note_on_c, 1, 74, 69
7, 47931, Note_on_c, 1, 74, 0
7, 47940, Note_on_c, 1, 75, 71
7, 47999, Note_on_c, 1, 75, 0
7, 48000, Note_on_c, 1, 77, 74
7, 48051, Note_on_c, 1, 77, 0
7, 48060, Note_on_c, 1, 79, 76
7, 48119, Note_on_c, 1, 79, 0
7, 48120, Note_on_c, 1, 81, 78
7, 48171, Note_on_c, 1, 81, 0
7, 48180, Note_on_c, 1, 82, 80
7, 48239, Note_on_c, 1, 82, 0
7, 48240, Note_on_c, 1, 84, 83
7, 48291, Note_on_c, 1, 84, 0
7, 48300, Note_on_c, 1, 86, 85
7, 48359, Note_on_c, 1, 86, 0
7, 48360, Note_on_c, 1, 75, 87
7, 48411, Note_on_c, 1, 75, 0
7, 48420, Note_on_c, 1, 77, 89
7, 48464, Note_on_c, 1, 77, 0
7, 48480, Note_on_c, 1, 70, 92
7, 48480, Note_on_c, 1, 77, 92
7, 48569, Note_on_c, 1, 70, 0
7, 48569, Note_on_c, 1, 77, 0
7, 48600, Note_on_c, 1, 76, 92
7, 48600, Note_on_c, 1, 70, 92
7, 48666, Note_on_c, 1, 76, 0
7, 48666, Note_on_c, 1, 70, 0
7, 48690, Note_on_c, 1, 76, 92
7, 48690, Note_on_c, 1, 70, 92
7, 48711, Note_on_c, 1, 76, 0
7, 48711, Note_on_c, 1, 70, 0
7, 48720, Note_on_c, 1, 77, 92
7, 48720, Note_on_c, 1, 70, 92
7, 48839, Note_on_c, 1, 77, 0
7, 48839, Note_on_c, 1, 70, 0
7, 48960, Note_on_c, 1, 70, 92
7, 48960, Note_on_c, 1, 79, 92
7, 49049, Note_on_c, 1, 70, 0
7, 49049, Note_on_c, 1, 79, 0
7, 49080, Note_on_c, 1, 78, 92
7, 49080, Note_on_c, 1, 70, 92
7, 49146, Note_on_c, 1, 78, 0
7, 49146, Note_on_c, 1, 70, 0
7, 49170, Note_on_c, 1, 78, 92
7, 49170, Note_on_c, 1, 70, 92
7, 49191, Note_on_c, 1, 78, 0
7, 49191, Note_on_c, 1, 70, 0
7, 49200, Note_on_c, 1, 70, 92
7, 49200, Note_on_c, 1, 79, 92
7, 49319, Note_on_c, 1, 70, 0
7, 49319, Note_on_c, 1, 79, 0
7, 50400, Note_on_c, 1, 70, 92
7, 50400, Note_on_c, 1, 77, 92
7, 50489, Note_on_c, 1, 70, 0
7, 50489, Note_on_c, 1, 77, 0
7, 50520, Note_on_c, 1, 76, 92
7, 50520, Note_on_c, 1, 70, 92
7, 50586, Note_on_c, 1, 76, 0
7, 50586, Note_on_c, 1, 70, 0
7, 50610, Note_on_c, 1, 70, 92
7, 50610, Note_on_c, 1, 76, 92
7, 50631, Note_on_c, 1, 70, 0
7, 50631, Note_on_c, 1, 76, 0
7, 50640, Note_on_c, 1, 77, 92
7, 50640, Note_on_c, 1, 70, 92
7, 50759, Note_on_c, 1, 77, 0
7, 50759, Note_on_c, 1, 70, 0
7, 50880, Note_on_c, 1, 78, 92
7, 50880, Note_on_c, 1, 70, 92
7, 50969, Note_on_c, 1, 78, 0
7, 50969, Note_on_c, 1, 70, 0
7, 51000, Note_on_c, 1, 77, 92
7, 51000, Note_on_c, 1, 70, 92
7, 51066, Note_on_c, 1, 77, 0
7, 51066, Note_on_c, 1, 70, 0
7, 51090, Note_on_c, 1, 77, 92
7, 51090, Note_on_c, 1, 70, 92
7, 51111, Note_on_c, 1, 77, 0
7, 51111, Note_on_c, 1, 70, 0
7, 51120, Note_on_c, 1, 78, 92
7, 51120, Note_on_c, 1, 70, 92
7, 51239, Note_on_c, 1, 78, 0
7, 51239, Note_on_c, 1, 70, 0
7, 54000, Note_on_c, 1, 78, 32
7, 54359, Note_on_c, 1, 78, 0
7, 54480, Note_on_c, 1, 71, 32
7, 54599, Note_on_c, 1, 71, 0
7, 54720, Note_on_c, 1, 71, 32
7, 54839, Note_on_c, 1, 71, 0
7, 54960, Note_on_c, 1, 70, 32
7, 55079, Note_on_c, 1, 70, 0
7, 55200, Note_on_c, 1, 69, 32
7, 55319, Note_on_c, 1, 69, 0
7, 55440, Note_on_c, 1, 78, 32
7, 55559, Note_on_c, 1, 78, 0
7, 55560, Note_on_c, 1, 77, 32
7, 55679, Note_on_c, 1, 77, 0
7, 55920, Note_on_c, 1, 82, 32
7, 56039, Note_on_c, 1, 82, 0
7, 56040, Note_on_c, 1, 81, 32
7, 56159, Note_on_c, 1, 81, 0
7, 56400, Note_on_c, 1, 74, 32
7, 56519, Note_on_c, 1, 74, 0
7, 56520, Note_on_c, 1, 72, 32
7, 56639, Note_on_c, 1, 72, 0
7, 56880, Note_on_c, 1, 77, 32
7, 56999, Note_on_c, 1, 77, 0
7, 57000, Note_on_c, 1, 75, 32
7, 57119, Note_on_c, 1, 75, 0
7, 57780, Note_on_c, 1, 72, 32
7, 57839, Note_on_c, 1, 72, 0
7, 57840, Note_on_c, 1, 75, 32
7, 57899, Note_on_c, 1, 75, 0
7, 58740, Note_on_c, 1, 74, 34
7, 58799, Note_on_c, 1, 74, 0
7, 58800, Note_on_c, 1, 77, 34
7, 58859, Note_on_c, 1, 77, 0
7, 59700, Note_on_c, 1, 72, 44
7, 59759, Note_on_c, 1, 72, 0
7, 59760, Note_on_c, 1, 75, 45
7, 59819, Note_on_c, 1, 75, 0
7, 60660, Note_on_c, 1, 74, 55
7, 60719, Note_on_c, 1, 74, 0
7, 60720, Note_on_c, 1, 77, 56
7, 60779, Note_on_c, 1, 77, 0
7, 61260, Note_on_c, 1, 72, 62
7, 61319, Note_on_c, 1, 72, 0
7, 61320, Note_on_c, 1, 75, 62
7, 61379, Note_on_c, 1, 75, 0
7, 61740, Note_on_c, 1, 74, 67
7, 61799, Note_on_c, 1, 74, 0
7, 61800, Note_on_c, 1, 77, 68
7, 61859, Note_on_c, 1, 77, 0
7, 61920, Note_on_c, 1, 78, 69
7, 61920, Note_on_c, 1, 66, 69
7, 61979, Note_on_c, 1, 78, 0
7, 61979, Note_on_c, 1, 66, 0
7, 61980, Note_on_c, 1, 77, 70
7, 61980, Note_on_c, 1, 65, 70
7, 62039, Note_on_c, 1, 77, 0
7, 62039, Note_on_c, 1, 65, 0
7, 62040, Note_on_c, 1, 81, 70
7, 62040, Note_on_c, 1, 69, 70
7, 62159, Note_on_c, 1, 81, 0
7, 62159, Note_on_c, 1, 69, 0
7, 62160, Note_on_c, 1, 72, 72
7, 62160, Note_on_c, 1, 84, 72
7, 62339, Note_on_c, 1, 72, 0
7, 62339, Note_on_c, 1, 84, 0
7, 62340, Note_on_c, 1, 82, 74
7, 62340, Note_on_c, 1, 70, 74
7, 62391, Note_on_c, 1, 82, 0
7, 62391, Note_on_c, 1, 70, 0
7, 62400, Note_on_c, 1, 66, 74
7, 62400, Note_on_c, 1, 78, 74
7, 62459, Note_on_c, 1, 66, 0
7, 62459, Note_on_c, 1, 78, 0
7, 62460, Note_on_c, 1, 65, 75
7, 62460, Note_on_c, 1, 77, 75
7, 62519, Note_on_c, 1, 65, 0
7, 62519, Note_on_c, 1, 77, 0
7, 62520, Note_on_c, 1, 81, 76
7, 62520, Note_on_c, 1, 69, 76
7, 62639, Note_on_c, 1, 81, 0
7, 62639, Note_on_c, 1, 69, 0
7, 62640, Note_on_c, 1, 84, 77
7, 62640, Note_on_c, 1, 72, 77
7, 62819, Note_on_c, 1, 84, 0
7, 62819, Note_on_c, 1, 72, 0
7, 62820, Note_on_c, 1, 82, 79
7, 62820, Note_on_c, 1, 70, 79
7, 62871, Note_on_c, 1, 82, 0
7, 62871, Note_on_c, 1, 70, 0
7, 62880, Note_on_c, 1, 75, 80
7, 62880, Note_on_c, 1, 65, 80
7, 62969, Note_on_c, 1, 75, 0
7, 63000, Note_on_c, 1, 72, 80
7, 63089, Note_on_c, 1, 72, 0
7, 63119, Note_on_c, 1, 65, 0
7, 63120, Note_on_c, 1, 69, 80
7, 63209, Note_on_c, 1, 69, 0
7, 63210, Note_on_c, 1, 81, 80
7, 63210, Note_on_c, 1, 77, 80
7, 63434, Note_on_c, 1, 81, 0
7, 63434, Note_on_c, 1, 77, 0
7, 63480, Note_on_c, 1, 74, 80
7, 63569, Note_on_c, 1, 74, 0
7, 63600, Note_on_c, 1, 70, 80
7, 63689, Note_on_c, 1, 70, 0
7, 63720, Note_on_c, 1, 82, 80
7, 63720, Note_on_c, 1, 70, 80
7, 63839, Note_on_c, 1, 70, 0
7, 63840, Note_on_c, 1, 79, 80
7, 63899, Note_on_c, 1, 82, 0
7, 63900, Note_on_c, 1, 84, 80
7, 63944, Note_on_c, 1, 79, 0
7, 63944, Note_on_c, 1, 84, 0
7, 63960, Note_on_c, 1, 84, 92
7, 63960, Note_on_c, 1, 75, 92
7, 64020, Control_c, 1, 11, 107
7, 64049, Note_on_c, 1, 75, 0
7, 64080, Note_on_c, 1, 72, 92
7, 64169, Note_on_c, 1, 72, 0
7, 64199, Note_on_c, 1, 84, 0
7, 64200, Note_on_c, 1, 84, 92
7, 64200, Note_on_c, 1, 72, 92
7, 64371, Note_on_c, 1, 84, 0
7, 64371, Note_on_c, 1, 72, 0
7, 64380, Note_on_c, 1, 86, 92
7, 64380, Note_on_c, 1, 74, 92
7, 64424, Note_on_c, 1, 86, 0
7, 64424, Note_on_c, 1, 74, 0
7, 64438, Control_c, 1, 11, 127
7, 64440, Note_on_c, 1, 86, 92
7, 64440, Note_on_c, 1, 74, 92
7, 64500, Control_c, 1, 11, 107
7, 64664, Note_on_c, 1, 86, 0
7, 64664, Note_on_c, 1, 74, 0
7, 64680, Note_on_c, 1, 86, 92
7, 64680, Note_on_c, 1, 74, 92
7, 64851, Note_on_c, 1, 86, 0
7, 64851, Note_on_c, 1, 74, 0
7, 64860, Note_on_c, 1, 75, 92
7, 64904, Note_on_c, 1, 75, 0
7, 64920, Note_on_c, 1, 67, 92
7, 64920, Note_on_c, 1, 79, 92
7, 65009, Note_on_c, 1, 67, 0
7, 65009, Note_on_c, 1, 79, 0
7, 65040, Note_on_c, 1, 75, 92
7, 65040, Note_on_c, 1, 63, 92
7, 65129, Note_on_c, 1, 75, 0
7, 65129, Note_on_c, 1, 63, 0
7, 65160, Note_on_c, 1, 82, 92
7, 65160, Note_on_c, 1, 70, 92
7, 65331, Note_on_c, 1, 82, 0
7, 65331, Note_on_c, 1, 70, 0
7, 65340, Note_on_c, 1, 72, 92
7, 65340, Note_on_c, 1, 84, 92
7, 65384, Note_on_c, 1, 72, 0
7, 65384, Note_on_c, 1, 84, 0
7, 65400, Note_on_c, 1, 81, 92
7, 65400, Note_on_c, 1, 69, 92
7, 65489, Note_on_c, 1, 81, 0
7, 65489, Note_on_c, 1, 69, 0
7, 65520, Note_on_c, 1, 77, 92
7, 65520, Note_on_c, 1, 65, 92
7, 65609, Note_on_c, 1, 77, 0
7, 65609, Note_on_c, 1, 65, 0
7, 65640, Note_on_c, 1, 84, 92
7, 65640, Note_on_c, 1, 72, 92
7, 65759, Note_on_c, 1, 84, 0
7, 65759, Note_on_c, 1, 72, 0
7, 65760, Note_on_c, 1, 82, 92
7, 65760, Note_on_c, 1, 70, 92
7, 65804, Note_on_c, 1, 82, 0
7, 65804, Note_on_c, 1, 70, 0
7, 65820, Note_on_c, 1, 82, 56
7, 65820, Control_c, 1, 11, 107
7, 65835, Control_c, 1, 11, 112
7, 65850, Control_c, 1, 11, 117
7, 65865, Control_c, 1, 11, 122
7, 65879, Note_on_c, 1, 82, 0
7, 65880, Control_c, 1, 11, 127
7, 65880, Note_on_c, 1, 86, 56
7, 65895, Control_c, 1, 11, 122
7, 65910, Control_c, 1, 11, 117
7, 65925, Control_c, 1, 11, 112
7, 65931, Note_on_c, 1, 86, 0
7, 65938, Control_c, 1, 11, 107
7, 65940, Note_on_c, 1, 81, 56
7, 66059, Note_on_c, 1, 81, 0
7, 66060, Note_on_c, 1, 79, 56
7, 66119, Note_on_c, 1, 79, 0
7, 66120, Note_on_c, 1, 82, 56
7, 66179, Note_on_c, 1, 82, 0
7, 66180, Note_on_c, 1, 77, 56
7, 66299, Note_on_c, 1, 77, 0
7, 66300, Note_on_c, 1, 75, 56
7, 66419, Note_on_c, 1, 75, 0
7, 66420, Note_on_c, 1, 74, 56
7, 66479, Note_on_c, 1, 74, 0
7, 66480, Note_on_c, 1, 72, 56
7, 66539, Note_on_c, 1, 72, 0
7, 66540, Note_on_c, 1, 70, 56
7, 66599, Note_on_c, 1, 70, 0
7, 66780, Control_c, 1, 11, 107
7, 66780, Note_on_c, 1, 79, 56
7, 66795, Control_c, 1, 11, 112
7, 66810, Control_c, 1, 11, 117
7, 66825, Control_c, 1, 11, 122
7, 66839, Note_on_c, 1, 79, 0
7, 66840, Note_on_c, 1, 84, 56
7, 66840, Control_c, 1, 11, 127
7, 66855, Control_c, 1, 11, 122
7, 66870, Control_c, 1, 11, 117
7, 66885, Control_c, 1, 11, 112
7, 66891, Note_on_c, 1, 84, 0
7, 66898, Control_c, 1, 11, 107
7, 66900, Note_on_c, 1, 77, 56
7, 67019, Note_on_c, 1, 77, 0
7, 67020, Note_on_c, 1, 75, 56
7, 67079, Note_on_c, 1, 75, 0
7, 67080, Note_on_c, 1, 79, 56
7, 67139, Note_on_c, 1, 79, 0
7, 67140, Note_on_c, 1, 74, 56
7, 67259, Note_on_c, 1, 74, 0
7, 67260, Note_on_c, 1, 72, 56
7, 67319, Note_on_c, 1, 72, 0
7, 67320, Note_on_c, 1, 79, 56
7, 67320, Note_on_c, 1, 67, 56
7, 67379, Note_on_c, 1, 79, 0
7, 67379, Note_on_c, 1, 67, 0
7, 67380, Note_on_c, 1, 72, 56
7, 67380, Note_on_c, 1, 75, 56
7, 67439, Note_on_c, 1, 72, 0
7, 67439, Note_on_c, 1, 75, 0
7, 67440, Note_on_c, 1, 71, 56
7, 67440, Note_on_c, 1, 74, 56
7, 67499, Note_on_c, 1, 71, 0
7, 67499, Note_on_c, 1, 74, 0
7, 67500, Note_on_c, 1, 72, 56
7, 67559, Note_on_c, 1, 72, 0
7, 67680, Control_c, 1, 11, 127
7, 67740, Note_on_c, 1, 74, 40
7, 67799, Note_on_c, 1, 74, 0
7, 67800, Note_on_c, 1, 80, 40
7, 67859, Note_on_c, 1, 80, 0
7, 67860, Note_on_c, 1, 77, 40
7, 67919, Note_on_c, 1, 77, 0
7, 67920, Note_on_c, 1, 75, 40
7, 67979, Note_on_c, 1, 75, 0
7, 67980, Note_on_c, 1, 74, 40
7, 68039, Note_on_c, 1, 74, 0
7, 68040, Note_on_c, 1, 77, 40
7, 68099, Note_on_c, 1, 77, 0
7, 68100, Note_on_c, 1, 79, 40
7, 68159, Note_on_c, 1, 79, 0
7, 68160, Note_on_c, 1, 82, 40
7, 68219, Note_on_c, 1, 82, 0
7, 68220, Note_on_c, 1, 80, 40
7, 68279, Note_on_c, 1, 80, 0
7, 68280, Note_on_c, 1, 79, 40
7, 68339, Note_on_c, 1, 79, 0
7, 68340, Note_on_c, 1, 77, 40
7, 68340, Note_on_c, 1, 72, 40
7, 68399, Note_on_c, 1, 77, 0
7, 68399, Note_on_c, 1, 72, 0
7, 68400, Note_on_c, 1, 75, 40
7, 68400, Note_on_c, 1, 70, 40
7, 68459, Note_on_c, 1, 75, 0
7, 68459, Note_on_c, 1, 70, 0
7, 68460, Note_on_c, 1, 74, 40
7, 68460, Note_on_c, 1, 71, 40
7, 68519, Note_on_c, 1, 74, 0
7, 68519, Note_on_c, 1, 71, 0
7, 69180, Note_on_c, 1, 79, 40
7, 69299, Note_on_c, 1, 79, 0
7, 69300, Note_on_c, 1, 82, 40
7, 69359, Note_on_c, 1, 82, 0
7, 69360, Note_on_c, 1, 80, 40
7, 69419, Note_on_c, 1, 80, 0
7, 69420, Note_on_c, 1, 79, 40
7, 69479, Note_on_c, 1, 79, 0
7, 69480, Note_on_c, 1, 77, 40
7, 69539, Note_on_c, 1, 77, 0
7, 69540, Note_on_c, 1, 75, 40
7, 69591, Note_on_c, 1, 75, 0
7, 69600, Note_on_c, 1, 81, 80
7, 69600, Note_on_c, 1, 75, 80
7, 69719, Note_on_c, 1, 81, 0
7, 69719, Note_on_c, 1, 75, 0
7, 69720, Note_on_c, 1, 82, 80
7, 69720, Note_on_c, 1, 74, 80
7, 69779, Note_on_c, 1, 82, 0
7, 69779, Note_on_c, 1, 74, 0
7, 69840, Note_on_c, 1, 86, 80
7, 69840, Note_on_c, 1, 82, 80
7, 69959, Note_on_c, 1, 86, 0
7, 69959, Note_on_c, 1, 82, 0
7, 69960, Note_on_c, 1, 79, 80
7, 69960, Note_on_c, 1, 84, 80
7, 70019, Note_on_c, 1, 79, 0
7, 70019, Note_on_c, 1, 84, 0
7, 70080, Note_on_c, 1, 84, 80
7, 70080, Note_on_c, 1, 79, 80
7, 70199, Note_on_c, 1, 84, 0
7, 70199, Note_on_c, 1, 79, 0
7, 70200, Note_on_c, 1, 74, 80
7, 70200, Note_on_c, 1, 82, 80
7, 70259, Note_on_c, 1, 74, 0
7, 70259, Note_on_c, 1, 82, 0
7, 70320, Note_on_c, 1, 74, 92
7, 70320, Note_on_c, 1, 82, 92
7, 70339, Note_on_c, 1, 82, 0
7, 70340, Note_on_c, 1, 84, 92
7, 70359, Note_on_c, 1, 84, 0
7, 70360, Note_on_c, 1, 82, 92
7, 70379, Note_on_c, 1, 82, 0
7, 70380, Note_on_c, 1, 84, 92
7, 70392, Note_on_c, 1, 84, 0
7, 70393, Note_on_c, 1, 82, 92
7, 70406, Note_on_c, 1, 82, 0
7, 70407, Note_on_c, 1, 81, 92
7, 70419, Note_on_c, 1, 81, 0
7, 70420, Note_on_c, 1, 82, 92
7, 70439, Note_on_c, 1, 74, 0
7, 70439, Note_on_c, 1, 82, 0
7, 70440, Note_on_c, 1, 75, 92
7, 70440, Note_on_c, 1, 84, 92
7, 70499, Note_on_c, 1, 75, 0
7, 70499, Note_on_c, 1, 84, 0
7, 70500, Note_on_c, 1, 72, 92
7, 70500, Note_on_c, 1, 81, 92
7, 70559, Note_on_c, 1, 72, 0
7, 70559, Note_on_c, 1, 81, 0
7, 70620, Note_on_c, 1, 63, 92
7, 70620, Note_on_c, 1, 75, 92
7, 70679, Note_on_c, 1, 63, 0
7, 70679, Note_on_c, 1, 75, 0
7, 70680, Note_on_c, 1, 74, 92
7, 70680, Note_on_c, 1, 86, 92
7, 70739, Note_on_c, 1, 74, 0
7, 70739, Note_on_c, 1, 86, 0
7, 70860, Note_on_c, 1, 62, 92
7, 70860, Note_on_c, 1, 74, 92
7, 70919, Note_on_c, 1, 62, 0
7, 70919, Note_on_c, 1, 74, 0
7, 70920, Note_on_c, 1, 84, 92
7, 70920, Note_on_c, 1, 72, 92
7, 70979, Note_on_c, 1, 84, 0
7, 70979, Note_on_c, 1, 72, 0
7, 71100, Note_on_c, 1, 60, 92
7, 71100, Note_on_c, 1, 72, 92
7, 71159, Note_on_c, 1, 60, 0
7, 71159, Note_on_c, 1, 72, 0
7, 71160, Note_on_c, 1, 82, 92
7, 71160, Note_on_c, 1, 70, 92
7, 71219, Note_on_c, 1, 82, 0
7, 71219, Note_on_c, 1, 70, 0
7, 71280, Note_on_c, 1, 67, 92
7, 71280, Note_on_c, 1, 79, 92
7, 71399, Note_on_c, 1, 67, 0
7, 71399, Note_on_c, 1, 79, 0
7, 71400, Note_on_c, 1, 77, 92
7, 71400, Note_on_c, 1, 65, 92
7, 71459, Note_on_c, 1, 77, 0
7, 71459, Note_on_c, 1, 65, 0
7, 71460, Note_on_c, 1, 69, 92
7, 71460, Note_on_c, 1, 81, 92
7, 71511, Note_on_c, 1, 69, 0
7, 71511, Note_on_c, 1, 81, 0
7, 71520, Note_on_c, 1, 70, 92
7, 71520, Note_on_c, 1, 82, 92
7, 71864, Note_on_c, 1, 70, 0
7, 71864, Note_on_c, 1, 82, 0
7, 71880, Note_on_c, 1, 70, 92
7, 71880, Note_on_c, 1, 82, 92
7, 71961, Note_on_c, 1, 70, 0
7, 71961, Note_on_c, 1, 82, 0
7, 71970, Note_on_c, 1, 82, 92
7, 71970, Note_on_c, 1, 70, 92
7, 71991, Note_on_c, 1, 82, 0
7, 71991, Note_on_c, 1, 70, 0
7, 72000, Note_on_c, 1, 74, 104
7, 72000, Note_on_c, 1, 86, 104
7, 72060, Control_c, 1, 11, 107
7, 72344, Note_on_c, 1, 74, 0
7, 72344, Note_on_c, 1, 86, 0
7, 72360, Note_on_c, 1, 74, 104
7, 72360, Note_on_c, 1, 86, 104
7, 72441, Note_on_c, 1, 74, 0
7, 72441, Note_on_c, 1, 86, 0
7, 72450, Note_on_c, 1, 86, 104
7, 72450, Note_on_c, 1, 74, 104
7, 72471, Note_on_c, 1, 86, 0
7, 72471, Note_on_c, 1, 74, 0
7, 72478, Control_c, 1, 11, 127
7, 72480, Note_on_c, 1, 65, 104
7, 72480, Note_on_c, 1, 77, 104
7, 72540, Control_c, 1, 11, 107
7, 72824, Note_on_c, 1, 65, 0
7, 72824, Note_on_c, 1, 77, 0
7, 72840, Note_on_c, 1, 65, 104
7, 72840, Note_on_c, 1, 77, 104
7, 72921, Note_on_c, 1, 65, 0
7, 72921, Note_on_c, 1, 77, 0
7, 72930, Note_on_c, 1, 65, 104
7, 72930, Note_on_c, 1, 77, 104
7, 72951, Note_on_c, 1, 65, 0
7, 72951, Note_on_c, 1, 77, 0
7, 72958, Control_c, 1, 11, 127
7, 72960, Note_on_c, 1, 70, 92
7, 72960, Note_on_c, 1, 82, 92
7, 73064, Note_on_c, 1, 70, 0
7, 73064, Note_on_c, 1, 82, 0
7, 73080, Note_on_c, 1, 70, 92
7, 73080, Note_on_c, 1, 82, 92
7, 73161, Note_on_c, 1, 70, 0
7, 73161, Note_on_c, 1, 82, 0
7, 73170, Note_on_c, 1, 70, 92
7, 73170, Note_on_c, 1, 82, 92
7, 73191, Note_on_c, 1, 70, 0
7, 73191, Note_on_c, 1, 82, 0
7, 73200, Note_on_c, 1, 74, 92
7, 73200, Note_on_c, 1, 86, 92
7, 73304, Note_on_c, 1, 74, 0
7, 73304, Note_on_c, 1, 86, 0
7, 73320, Note_on_c, 1, 86, 92
7, 73320, Note_on_c, 1, 74, 92
7, 73401, Note_on_c, 1, 86, 0
7, 73401, Note_on_c, 1, 74, 0
7, 73410, Note_on_c, 1, 74, 92
7, 73410, Note_on_c, 1, 86, 92
7, 73431, Note_on_c, 1, 74, 0
7, 73431, Note_on_c, 1, 86, 0
7, 73440, Note_on_c, 1, 77, 80
7, 73529, Note_on_c, 1, 77, 0
7, 73560, Note_on_c, 1, 70, 80
7, 73560, Note_on_c, 1, 82, 80
7, 73641, Note_on_c, 1, 70, 0
7, 73641, Note_on_c, 1, 82, 0
7, 73650, Note_on_c, 1, 82, 80
7, 73650, Note_on_c, 1, 70, 80
7, 73671, Note_on_c, 1, 82, 0
7, 73671, Note_on_c, 1, 70, 0
7, 73680, Note_on_c, 1, 74, 80
7, 73680, Note_on_c, 1, 86, 80
7, 73769, Note_on_c, 1, 74, 0
7, 73769, Note_on_c, 1, 86, 0
7, 73800, Note_on_c, 1, 77, 80
7, 73800, Note_on_c, 1, 65, 80
7, 73881, Note_on_c, 1, 77, 0
7, 73881, Note_on_c, 1, 65, 0
7, 73890, Note_on_c, 1, 65, 80
7, 73890, Note_on_c, 1, 77, 80
7, 73911, Note_on_c, 1, 65, 0
7, 73911, Note_on_c, 1, 77, 0
7, 73920, Note_on_c, 1, 70, 80
7, 73920, Note_on_c, 1, 82, 80
7, 74009, Note_on_c, 1, 70, 0
7, 74009, Note_on_c, 1, 82, 0
7, 74040, Note_on_c, 1, 74, 80
7, 74040, Note_on_c, 1, 62, 80
7, 74121, Note_on_c, 1, 74, 0
7, 74121, Note_on_c, 1, 62, 0
7, 74130, Note_on_c, 1, 62, 80
7, 74130, Note_on_c, 1, 74, 80
7, 74151, Note_on_c, 1, 62, 0
7, 74151, Note_on_c, 1, 74, 0
7, 74160, Note_on_c, 1, 65, 80
7, 74160, Note_on_c, 1, 77, 80
7, 74249, Note_on_c, 1, 65, 0
7, 74249, Note_on_c, 1, 77, 0
7, 74280, Note_on_c, 1, 70, 80
7, 74280, Note_on_c, 1, 82, 80
7, 74361, Note_on_c, 1, 70, 0
7, 74361, Note_on_c, 1, 82, 0
7, 74370, Note_on_c, 1, 82, 80
7, 74370, Note_on_c, 1, 70, 80
7, 74391, Note_on_c, 1, 82, 0
7, 74391, Note_on_c, 1, 70, 0
7, 74400, Note_on_c, 1, 86, 80
7, 74400, Note_on_c, 1, 74, 80
7, 74489, Note_on_c, 1, 86, 0
7, 74489, Note_on_c, 1, 74, 0
7, 74520, Note_on_c, 1, 77, 80
7, 74601, Note_on_c, 1, 77, 0
7, 74610, Note_on_c, 1, 77, 80
7, 74631, Note_on_c, 1, 77, 0
7, 74640, Note_on_c, 1, 82, 80
7, 74729, Note_on_c, 1, 82, 0
7, 74760, Note_on_c, 1, 74, 80
7, 74841, Note_on_c, 1, 74, 0
7, 74850, Note_on_c, 1, 74, 80
7, 74871, Note_on_c, 1, 74, 0
7, 74880, Note_on_c, 1, 77, 80
7, 74969, Note_on_c, 1, 77, 0
7, 75000, Note_on_c, 1, 70, 80
7, 75081, Note_on_c, 1, 70, 0
7, 75090, Note_on_c, 1, 70, 80
7, 75111, Note_on_c, 1, 70, 0
7, 75120, Note_on_c, 1, 82, 80
7, 75209, Note_on_c, 1, 82, 0
7, 75240, Note_on_c, 1, 70, 80
7, 75321, Note_on_c, 1, 70, 0
7, 75330, Note_on_c, 1, 70, 80
7, 75351, Note_on_c, 1, 70, 0
7, 75360, Note_on_c, 1, 82, 80
7, 75479, Note_on_c, 1, 82, 0
7, 75810, Note_on_c, 1, 82, 80
7, 75831, Note_on_c, 1, 82, 0
7, 75840, Note_on_c, 1, 70, 78
7, 75959, Note_on_c, 1, 70, 0
7, 76290, Note_on_c, 1, 70, 44
7, 76311, Note_on_c, 1, 70, 0
7, 76320, Note_on_c, 1, 69, 32
7, 76559, Note_on_c, 1, 69, 0
7, 79200, Note_on_c, 1, 76, 32
7, 81359, Note_on_c, 1, 76, 0
7, 81360, Note_on_c, 1, 74, 32
7, 83039, Note_on_c, 1, 74, 0
7, 83040, Note_on_c, 1, 74, 32
7, 84959, Note_on_c, 1, 74, 0
7, 84960, Note_on_c, 1, 74, 32
7, 86841, Note_on_c, 1, 74, 0
7, 86850, Note_on_c, 1, 82, 32
7, 86871, Note_on_c, 1, 82, 0
7, 86880, Note_on_c, 1, 79, 32
7, 87321, Note_on_c, 1, 79, 0
7, 87330, Note_on_c, 1, 74, 32
7, 87351, Note_on_c, 1, 74, 0
7, 87360, Note_on_c, 1, 70, 32
7, 87561, Note_on_c, 1, 70, 0
7, 87570, Note_on_c, 1, 79, 32
7, 87591, Note_on_c, 1, 79, 0
7, 87600, Note_on_c, 1, 74, 32
7, 87719, Note_on_c, 1, 74, 0
7, 87838, Control_c, 1, 11, 47
7, 87840, Note_on_c, 1, 72, 80
7, 88290, Note_on_c, 1, 81, 80
7, 88311, Note_on_c, 1, 81, 0
7, 88320, Note_on_c, 1, 78, 80
7, 88521, Note_on_c, 1, 78, 0
7, 88530, Note_on_c, 1, 74, 80
7, 88551, Note_on_c, 1, 74, 0
7, 88800, Control_c, 1, 11, 47
7, 88827, Control_c, 1, 11, 49
7, 88853, Control_c, 1, 11, 51
7, 88880, Control_c, 1, 11, 54
7, 88907, Control_c, 1, 11, 56
7, 88920, Note_on_c, 1, 75, 80
7, 88933, Control_c, 1, 11, 58
7, 88960, Control_c, 1, 11, 60
7, 88987, Control_c, 1, 11, 63
7, 89013, Control_c, 1, 11, 65
7, 89039, Note_on_c, 1, 75, 0
7, 89040, Note_on_c, 1, 74, 80
7, 89040, Control_c, 1, 11, 67
7, 89067, Control_c, 1, 11, 69
7, 89093, Control_c, 1, 11, 71
7, 89120, Control_c, 1, 11, 74
7, 89147, Control_c, 1, 11, 76
7, 89159, Note_on_c, 1, 74, 0
7, 89173, Control_c, 1, 11, 78
7, 89200, Control_c, 1, 11, 80
7, 89220, Note_on_c, 1, 81, 80
7, 89227, Control_c, 1, 11, 83
7, 89253, Control_c, 1, 11, 85
7, 89271, Note_on_c, 1, 81, 0
7, 89280, Note_on_c, 1, 78, 80
7, 89280, Control_c, 1, 11, 87
7, 89307, Control_c, 1, 11, 89
7, 89333, Control_c, 1, 11, 91
7, 89360, Control_c, 1, 11, 94
7, 89387, Control_c, 1, 11, 96
7, 89413, Control_c, 1, 11, 98
7, 89440, Control_c, 1, 11, 100
7, 89467, Control_c, 1, 11, 103
7, 89481, Note_on_c, 1, 78, 0
7, 89490, Note_on_c, 1, 74, 80
7, 89493, Control_c, 1, 11, 105
7, 89511, Note_on_c, 1, 74, 0
7, 89520, Control_c, 1, 11, 107
7, 89547, Control_c, 1, 11, 109
7, 89573, Control_c, 1, 11, 111
7, 89600, Control_c, 1, 11, 114
7, 89627, Control_c, 1, 11, 116
7, 89653, Control_c, 1, 11, 118
7, 89680, Control_c, 1, 11, 120
7, 89700, Note_on_c, 1, 69, 80
7, 89707, Control_c, 1, 11, 123
7, 89729, Note_on_c, 1, 69, 0
7, 89730, Note_on_c, 1, 66, 80
7, 89733, Control_c, 1, 11, 127
7, 89751, Note_on_c, 1, 66, 0
7, 89760, Note_on_c, 1, 60, 80
7, 89864, Note_on_c, 1, 72, 0
7, 89864, Note_on_c, 1, 60, 0
7, 89880, Note_on_c, 1, 72, 80
7, 89961, Note_on_c, 1, 72, 0
7, 89970, Note_on_c, 1, 72, 80
7, 89991, Note_on_c, 1, 72, 0
7, 90000, Note_on_c, 1, 75, 92
7, 90060, Control_c, 1, 11, 107
7, 90344, Note_on_c, 1, 75, 0
7, 90360, Note_on_c, 1, 81, 92
7, 90441, Note_on_c, 1, 81, 0
7, 90450, Note_on_c, 1, 81, 92
7, 90471, Note_on_c, 1, 81, 0
7, 90478, Control_c, 1, 11, 127
7, 90480, Note_on_c, 1, 84, 92
7, 90540, Control_c, 1, 11, 107
7, 90824, Note_on_c, 1, 84, 0
7, 90840, Note_on_c, 1, 78, 92
7, 90921, Note_on_c, 1, 78, 0
7, 90930, Note_on_c, 1, 78, 92
7, 90951, Note_on_c, 1, 78, 0
7, 90958, Control_c, 1, 11, 127
7, 90960, Note_on_c, 1, 81, 92
7, 91064, Note_on_c, 1, 81, 0
7, 91080, Note_on_c, 1, 72, 80
7, 91161, Note_on_c, 1, 72, 0
7, 91170, Note_on_c, 1, 72, 80
7, 91191, Note_on_c, 1, 72, 0
7, 91200, Note_on_c, 1, 75, 92
7, 91304, Note_on_c, 1, 75, 0
7, 91320, Note_on_c, 1, 81, 80
7, 91320, Note_on_c, 1, 69, 80
7, 91401, Note_on_c, 1, 81, 0
7, 91401, Note_on_c, 1, 69, 0
7, 91410, Note_on_c, 1, 81, 80
7, 91410, Note_on_c, 1, 69, 80
7, 91431, Note_on_c, 1, 81, 0
7, 91431, Note_on_c, 1, 69, 0
7, 91440, Note_on_c, 1, 86, 92
7, 91440, Note_on_c, 1, 74, 92
7, 91544, Note_on_c, 1, 86, 0
7, 91544, Note_on_c, 1, 74, 0
7, 91560, Note_on_c, 1, 62, 80
7, 91560, Note_on_c, 1, 74, 80
7, 91641, Note_on_c, 1, 62, 0
7, 91641, Note_on_c, 1, 74, 0
7, 91650, Note_on_c, 1, 62, 80
7, 91650, Note_on_c, 1, 74, 80
7, 91671, Note_on_c, 1, 62, 0
7, 91671, Note_on_c, 1, 74, 0
7, 91680, Note_on_c, 1, 67, 44
7, 91680, Note_on_c, 1, 79, 44
7, 91799, Note_on_c, 1, 67, 0
7, 91979, Note_on_c, 1, 79, 0
7, 91980, Note_on_c, 1, 82, 44
7, 92031, Note_on_c, 1, 82, 0
7, 92040, Note_on_c, 1, 81, 44
7, 92084, Note_on_c, 1, 81, 0
7, 92100, Note_on_c, 1, 79, 44
7, 92144, Note_on_c, 1, 79, 0
7, 92160, Note_on_c, 1, 79, 44
7, 92459, Note_on_c, 1, 79, 0
7, 92460, Note_on_c, 1, 82, 44
7, 92511, Note_on_c, 1, 82, 0
7, 92520, Note_on_c, 1, 81, 44
7, 92564, Note_on_c, 1, 81, 0
7, 92580, Note_on_c, 1, 79, 44
7, 92624, Note_on_c, 1, 79, 0
7, 92640, Note_on_c, 1, 79, 44
7, 92939, Note_on_c, 1, 79, 0
7, 92940, Note_on_c, 1, 79, 44
7, 92991, Note_on_c, 1, 79, 0
7, 93000, Note_on_c, 1, 77, 44
7, 93044, Note_on_c, 1, 77, 0
7, 93060, Note_on_c, 1, 75, 44
7, 93104, Note_on_c, 1, 75, 0
7, 93120, Note_on_c, 1, 75, 44
7, 93239, Note_on_c, 1, 75, 0
7, 93240, Note_on_c, 1, 79, 44
7, 93411, Note_on_c, 1, 79, 0
7, 93420, Note_on_c, 1, 79, 44
7, 93471, Note_on_c, 1, 79, 0
7, 93480, Note_on_c, 1, 79, 44
7, 93531, Note_on_c, 1, 79, 0
7, 93540, Note_on_c, 1, 79, 44
7, 93584, Note_on_c, 1, 79, 0
7, 93600, Note_on_c, 1, 79, 44
7, 93779, Note_on_c, 1, 79, 0
7, 93840, Note_on_c, 1, 81, 44
7, 94019, Note_on_c, 1, 81, 0
7, 94080, Note_on_c, 1, 79, 44
7, 94080, Note_on_c, 1, 72, 44
7, 94259, Note_on_c, 1, 79, 0
7, 94259, Note_on_c, 1, 72, 0
7, 94320, Note_on_c, 1, 78, 44
7, 94320, Note_on_c, 1, 72, 44
7, 94499, Note_on_c, 1, 78, 0
7, 94499, Note_on_c, 1, 72, 0
7, 94530, Control_c, 1, 11, 67
7, 94560, Note_on_c, 1, 70, 80
7, 94560, Note_on_c, 1, 79, 80
7, 95639, Note_on_c, 1, 79, 0
7, 95640, Note_on_c, 1, 75, 80
7, 95759, Note_on_c, 1, 75, 0
7, 95760, Note_on_c, 1, 74, 80
7, 95879, Note_on_c, 1, 74, 0
7, 95880, Note_on_c, 1, 82, 80
7, 95984, Note_on_c, 1, 82, 0
7, 96000, Note_on_c, 1, 74, 80
7, 96201, Note_on_c, 1, 74, 0
7, 96207, Note_on_c, 1, 70, 0
7, 96210, Note_on_c, 1, 70, 80
7, 96239, Note_on_c, 1, 70, 0
7, 96240, Note_on_c, 1, 67, 80
7, 96240, Note_on_c, 1, 71, 80
7, 96344, Note_on_c, 1, 67, 0
7, 96359, Note_on_c, 1, 71, 0
7, 96360, Note_on_c, 1, 77, 80
7, 96360, Note_on_c, 1, 74, 80
7, 97439, Note_on_c, 1, 74, 0
7, 97440, Note_on_c, 1, 74, 80
7, 97440, Control_c, 1, 11, 67
7, 97460, Control_c, 1, 11, 68
7, 97480, Control_c, 1, 11, 70
7, 97500, Control_c, 1, 11, 71
7, 97520, Control_c, 1, 11, 72
7, 97540, Control_c, 1, 11, 73
7, 97559, Note_on_c, 1, 77, 0
7, 97560, Note_on_c, 1, 80, 80
7, 97560, Control_c, 1, 11, 75
7, 97580, Control_c, 1, 11, 76
7, 97600, Control_c, 1, 11, 77
7, 97620, Control_c, 1, 11, 78
7, 97640, Control_c, 1, 11, 80
7, 97660, Control_c, 1, 11, 81
7, 97679, Note_on_c, 1, 80, 0
7, 97680, Control_c, 1, 11, 82
7, 97680, Note_on_c, 1, 79, 80
7, 97700, Control_c, 1, 11, 83
7, 97720, Control_c, 1, 11, 85
7, 97740, Control_c, 1, 11, 86
7, 97760, Control_c, 1, 11, 87
7, 97780, Control_c, 1, 11, 88
7, 97799, Note_on_c, 1, 79, 0
7, 97800, Control_c, 1, 11, 90
7, 97800, Note_on_c, 1, 77, 80
7, 97820, Control_c, 1, 11, 91
7, 97840, Control_c, 1, 11, 92
7, 97859, Note_on_c, 1, 77, 0
7, 97860, Control_c, 1, 11, 93
7, 97860, Note_on_c, 1, 86, 80
7, 97880, Control_c, 1, 11, 95
7, 97900, Control_c, 1, 11, 96
7, 97911, Note_on_c, 1, 86, 0
7, 97920, Note_on_c, 1, 86, 80
7, 97920, Control_c, 1, 11, 97
7, 97940, Control_c, 1, 11, 98
7, 97960, Control_c, 1, 11, 100
7, 97980, Control_c, 1, 11, 101
7, 98000, Control_c, 1, 11, 102
7, 98020, Control_c, 1, 11, 103
7, 98040, Control_c, 1, 11, 105
7, 98060, Control_c, 1, 11, 106
7, 98080, Control_c, 1, 11, 107
7, 98100, Control_c, 1, 11, 108
7, 98120, Control_c, 1, 11, 110
7, 98121, Note_on_c, 1, 86, 0
7, 98130, Note_on_c, 1, 83, 80
7, 98140, Control_c, 1, 11, 111
7, 98151, Note_on_c, 1, 83, 0
7, 98160, Control_c, 1, 11, 112
7, 98160, Note_on_c, 1, 79, 80
7, 98180, Control_c, 1, 11, 113
7, 98200, Control_c, 1, 11, 115
7, 98220, Control_c, 1, 11, 116
7, 98240, Control_c, 1, 11, 117
7, 98260, Control_c, 1, 11, 118
7, 98280, Control_c, 1, 11, 120
7, 98300, Control_c, 1, 11, 121
7, 98320, Control_c, 1, 11, 122
7, 98324, Note_on_c, 1, 79, 0
7, 98340, Control_c, 1, 11, 123
7, 98340, Note_on_c, 1, 77, 80
7, 98360, Control_c, 1, 11, 125
7, 98367, Note_on_c, 1, 74, 0
7, 98369, Note_on_c, 1, 77, 0
7, 98370, Note_on_c, 1, 74, 80
7, 98380, Control_c, 1, 11, 127
7, 98399, Note_on_c, 1, 74, 0
7, 98400, Note_on_c, 1, 74, 80
7, 98400, Note_on_c, 1, 71, 80
7, 98504, Note_on_c, 1, 74, 0
7, 98504, Note_on_c, 1, 71, 0
7, 98520, Note_on_c, 1, 77, 80
7, 98601, Note_on_c, 1, 77, 0
7, 98610, Note_on_c, 1, 77, 80
7, 98631, Note_on_c, 1, 77, 0
7, 98640, Note_on_c, 1, 80, 92
7, 98700, Control_c, 1, 11, 107
7, 98984, Note_on_c, 1, 80, 0
7, 99000, Note_on_c, 1, 74, 92
7, 99081, Note_on_c, 1, 74, 0
7, 99090, Note_on_c, 1, 74, 92
7, 99111, Note_on_c, 1, 74, 0
7, 99118, Control_c, 1, 11, 127
7, 99120, Note_on_c, 1, 77, 92
7, 99180, Control_c, 1, 11, 107
7, 99464, Note_on_c, 1, 77, 0
7, 99480, Note_on_c, 1, 71, 92
7, 99561, Note_on_c, 1, 71, 0
7, 99570, Note_on_c, 1, 71, 92
7, 99591, Note_on_c, 1, 71, 0
7, 99598, Control_c, 1, 11, 127
7, 99600, Note_on_c, 1, 86, 92
7, 99704, Note_on_c, 1, 86, 0
7, 99720, Note_on_c, 1, 77, 80
7, 99801, Note_on_c, 1, 77, 0
7, 99810, Note_on_c, 1, 77, 80
7, 99831, Note_on_c, 1, 77, 0
7, 99840, Note_on_c, 1, 80, 92
7, 99944, Note_on_c, 1, 80, 0
7, 99960, Note_on_c, 1, 74, 80
7, 100041, Note_on_c, 1, 74, 0
7, 100050, Note_on_c, 1, 74, 80
7, 100071, Note_on_c, 1, 74, 0
7, 100080, Note_on_c, 1, 79, 92
7, 100184, Note_on_c, 1, 79, 0
7, 100200, Note_on_c, 1, 67, 80
7, 100281, Note_on_c, 1, 67, 0
7, 100290, Note_on_c, 1, 67, 80
7, 100311, Note_on_c, 1, 67, 0
7, 100320, Note_on_c, 1, 72, 44
7, 100320, Note_on_c, 1, 75, 44
7, 100379, Note_on_c, 1, 72, 0
7, 100379, Note_on_c, 1, 75, 0
7, 100380, Note_on_c, 1, 79, 44
7, 100380, Note_on_c, 1, 75, 44
7, 100431, Note_on_c, 1, 79, 0
7, 100431, Note_on_c, 1, 75, 0
7, 100440, Note_on_c, 1, 77, 44
7, 100440, Note_on_c, 1, 74, 44
7, 100484, Note_on_c, 1, 77, 0
7, 100484, Note_on_c, 1, 74, 0
7, 100500, Note_on_c, 1, 75, 44
7, 100500, Note_on_c, 1, 72, 44
7, 100544, Note_on_c, 1, 75, 0
7, 100544, Note_on_c, 1, 72, 0
7, 100560, Note_on_c, 1, 75, 44
7, 100560, Note_on_c, 1, 72, 44
7, 100859, Note_on_c, 1, 75, 0
7, 100859, Note_on_c, 1, 72, 0
7, 100860, Note_on_c, 1, 79, 44
7, 100860, Note_on_c, 1, 75, 44
7, 100911, Note_on_c, 1, 79, 0
7, 100911, Note_on_c, 1, 75, 0
7, 100920, Note_on_c, 1, 74, 44
7, 100920, Note_on_c, 1, 77, 44
7, 100964, Note_on_c, 1, 74, 0
7, 100964, Note_on_c, 1, 77, 0
7, 100980, Note_on_c, 1, 72, 44
7, 100980, Note_on_c, 1, 75, 44
7, 101024, Note_on_c, 1, 72, 0
7, 101024, Note_on_c, 1, 75, 0
7, 101040, Note_on_c, 1, 72, 44
7, 101040, Note_on_c, 1, 75, 44
7, 101264, Note_on_c, 1, 75, 0
7, 101279, Note_on_c, 1, 72, 0
7, 101280, Note_on_c, 1, 77, 44
7, 101579, Note_on_c, 1, 77, 0
7, 101580, Note_on_c, 1, 80, 44
7, 101631, Note_on_c, 1, 80, 0
7, 101640, Note_on_c, 1, 79, 44
7, 101684, Note_on_c, 1, 79, 0
7, 101700, Note_on_c, 1, 77, 44
7, 101744, Note_on_c, 1, 77, 0
7, 101760, Note_on_c, 1, 77, 44
7, 102059, Note_on_c, 1, 77, 0
7, 103200, Note_on_c, 1, 84, 44
7, 103200, Note_on_c, 1, 75, 44
7, 103379, Note_on_c, 1, 84, 0
7, 103379, Note_on_c, 1, 75, 0
7, 103440, Note_on_c, 1, 74, 53
7, 103440, Note_on_c, 1, 84, 53
7, 103619, Note_on_c, 1, 74, 0
7, 103619, Note_on_c, 1, 84, 0
7, 103680, Note_on_c, 1, 75, 62
7, 103680, Note_on_c, 1, 79, 62
7, 103859, Note_on_c, 1, 75, 0
7, 103859, Note_on_c, 1, 79, 0
7, 103920, Note_on_c, 1, 79, 71
7, 103920, Note_on_c, 1, 74, 71
7, 104099, Note_on_c, 1, 79, 0
7, 104099, Note_on_c, 1, 74, 0
7, 104160, Note_on_c, 1, 75, 80
7, 104160, Note_on_c, 1, 72, 80
7, 104279, Note_on_c, 1, 75, 0
7, 104279, Note_on_c, 1, 72, 0
7, 112680, Note_on_c, 1, 65, 80
7, 112680, Note_on_c, 1, 77, 80
7, 113144, Note_on_c, 1, 65, 0
7, 113159, Note_on_c, 1, 77, 0
7, 113160, Note_on_c, 1, 65, 92
7, 113220, Control_c, 1, 11, 107
7, 113639, Note_on_c, 1, 65, 0
7, 113640, Note_on_c, 1, 65, 92
7, 113864, Note_on_c, 1, 65, 0
7, 113878, Control_c, 1, 11, 127
7, 113880, Note_on_c, 1, 77, 92
7, 113940, Control_c, 1, 11, 107
7, 114104, Note_on_c, 1, 77, 0
7, 114120, Note_on_c, 1, 65, 92
7, 114344, Note_on_c, 1, 65, 0
7, 114358, Control_c, 1, 11, 127
7, 114360, Note_on_c, 1, 77, 80
7, 114540, Note_on_c, 1, 65, 80
7, 114584, Note_on_c, 1, 77, 0
7, 114584, Note_on_c, 1, 65, 0
7, 114600, Note_on_c, 1, 77, 80
7, 114660, Note_on_c, 1, 75, 80
7, 114704, Note_on_c, 1, 75, 0
7, 114720, Note_on_c, 1, 74, 80
7, 115064, Note_on_c, 1, 77, 0
7, 115064, Note_on_c, 1, 74, 0
7, 115080, Note_on_c, 1, 79, 80
7, 115080, Note_on_c, 1, 74, 80
7, 115544, Note_on_c, 1, 79, 0
7, 115544, Note_on_c, 1, 74, 0
7, 115560, Note_on_c, 1, 74, 80
7, 115560, Note_on_c, 1, 79, 80
7, 116024, Note_on_c, 1, 74, 0
7, 116024, Note_on_c, 1, 79, 0
7, 116040, Note_on_c, 1, 74, 80
7, 116040, Note_on_c, 1, 79, 80
7, 116159, Note_on_c, 1, 74, 0
7, 116160, Note_on_c, 1, 71, 80
7, 116504, Note_on_c, 1, 79, 0
7, 116504, Note_on_c, 1, 71, 0
7, 116520, Note_on_c, 1, 71, 80
7, 116520, Note_on_c, 1, 77, 80
7, 116744, Note_on_c, 1, 71, 0
7, 116744, Note_on_c, 1, 77, 0
7, 116760, Note_on_c, 1, 71, 80
7, 116760, Note_on_c, 1, 77, 80
7, 116849, Note_on_c, 1, 77, 0
7, 116880, Note_on_c, 1, 86, 80
7, 116969, Note_on_c, 1, 86, 0
7, 116984, Note_on_c, 1, 71, 0
7, 117000, Note_on_c, 1, 73, 80
7, 117000, Note_on_c, 1, 76, 80
7, 117119, Note_on_c, 1, 73, 0
7, 117120, Note_on_c, 1, 69, 80
7, 117464, Note_on_c, 1, 76, 0
7, 117464, Note_on_c, 1, 69, 0
7, 117480, Note_on_c, 1, 76, 80
7, 117480, Note_on_c, 1, 69, 80
7, 117704, Note_on_c, 1, 76, 0
7, 117704, Note_on_c, 1, 69, 0
7, 117720, Note_on_c, 1, 69, 80
7, 117720, Note_on_c, 1, 74, 80
7, 117944, Note_on_c, 1, 69, 0
7, 117944, Note_on_c, 1, 74, 0
7, 117960, Note_on_c, 1, 69, 80
7, 117960, Note_on_c, 1, 74, 80
7, 118424, Note_on_c, 1, 69, 0
7, 118424, Note_on_c, 1, 74, 0
7, 118440, Note_on_c, 1, 69, 80
7, 118440, Note_on_c, 1, 74, 80
7, 118904, Note_on_c, 1, 69, 0
7, 118904, Note_on_c, 1, 74, 0
7, 118920, Note_on_c, 1, 69, 80
7, 118920, Note_on_c, 1, 72, 80
7, 119039, Note_on_c, 1, 69, 0
7, 119040, Note_on_c, 1, 60, 80
7, 119144, Note_on_c, 1, 72, 0
7, 119144, Note_on_c, 1, 60, 0
7, 119160, Note_on_c, 1, 71, 80
7, 119384, Note_on_c, 1, 71, 0
7, 119400, Note_on_c, 1, 71, 80
7, 119624, Note_on_c, 1, 71, 0
7, 119640, Note_on_c, 1, 74, 80
7, 119729, Note_on_c, 1, 74, 0
7, 119760, Note_on_c, 1, 77, 80
7, 119849, Note_on_c, 1, 77, 0
7, 119880, Note_on_c, 1, 72, 80
7, 120104, Note_on_c, 1, 72, 0
7, 120120, Note_on_c, 1, 71, 80
7, 120344, Note_on_c, 1, 71, 0
7, 120360, Note_on_c, 1, 71, 80
7, 120584, Note_on_c, 1, 71, 0
7, 120600, Note_on_c, 1, 74, 80
7, 120689, Note_on_c, 1, 74, 0
7, 120720, Note_on_c, 1, 77, 80
7, 120809, Note_on_c, 1, 77, 0
7, 123180, Note_on_c, 1, 77, 41
7, 123224, Note_on_c, 1, 77, 0
7, 123240, Note_on_c, 1, 76, 38
7, 123284, Note_on_c, 1, 76, 0
7, 123300, Note_on_c, 1, 74, 35
7, 123344, Note_on_c, 1, 74, 0
7, 123360, Note_on_c, 1, 74, 32
7, 123479, Note_on_c, 1, 74, 0
7, 123660, Note_on_c, 1, 77, 32
7, 123704, Note_on_c, 1, 77, 0
7, 123720, Note_on_c, 1, 76, 32
7, 123764, Note_on_c, 1, 76, 0
7, 123780, Note_on_c, 1, 76, 32
7, 123824, Note_on_c, 1, 76, 0
7, 123840, Note_on_c, 1, 81, 32
7, 124139, Note_on_c, 1, 81, 0
7, 124140, Note_on_c, 1, 84, 32
7, 124191, Note_on_c, 1, 84, 0
7, 124200, Note_on_c, 1, 83, 32
7, 124244, Note_on_c, 1, 83, 0
7, 124260, Note_on_c, 1, 81, 32
7, 124304, Note_on_c, 1, 81, 0
7, 124320, Note_on_c, 1, 81, 32
7, 124619, Note_on_c, 1, 81, 0
7, 124620, Note_on_c, 1, 84, 32
7, 124671, Note_on_c, 1, 84, 0
7, 124680, Note_on_c, 1, 83, 32
7, 124724, Note_on_c, 1, 83, 0
7, 124740, Note_on_c, 1, 81, 32
7, 124784, Note_on_c, 1, 81, 0
7, 124800, Note_on_c, 1, 81, 32
7, 125039, Note_on_c, 1, 81, 0
7, 125040, Note_on_c, 1, 80, 32
7, 125744, Note_on_c, 1, 80, 0
7, 125760, Note_on_c, 1, 81, 32
7, 125804, Note_on_c, 1, 81, 0
7, 125820, Note_on_c, 1, 81, 32
7, 125864, Note_on_c, 1, 81, 0
7, 125880, Note_on_c, 1, 83, 32
7, 125924, Note_on_c, 1, 83, 0
7, 125940, Note_on_c, 1, 84, 32
7, 125984, Note_on_c, 1, 84, 0
7, 126000, Note_on_c, 1, 84, 32
7, 126119, Note_on_c, 1, 84, 0
7, 126300, Note_on_c, 1, 81, 32
7, 126344, Note_on_c, 1, 81, 0
7, 126360, Note_on_c, 1, 83, 32
7, 126404, Note_on_c, 1, 83, 0
7, 126420, Note_on_c, 1, 84, 32
7, 126464, Note_on_c, 1, 84, 0
7, 126480, Note_on_c, 1, 84, 32
7, 126599, Note_on_c, 1, 84, 0
7, 127020, Note_on_c, 1, 74, 32
7, 127064, Note_on_c, 1, 74, 0
7, 127080, Note_on_c, 1, 76, 33
7, 127124, Note_on_c, 1, 76, 0
7, 127140, Note_on_c, 1, 77, 34
7, 127184, Note_on_c, 1, 77, 0
7, 127200, Note_on_c, 1, 77, 35
7, 127319, Note_on_c, 1, 77, 0
7, 127500, Note_on_c, 1, 74, 40
7, 127544, Note_on_c, 1, 74, 0
7, 127560, Note_on_c, 1, 76, 41
7, 127604, Note_on_c, 1, 76, 0
7, 127620, Note_on_c, 1, 80, 41
7, 127664, Note_on_c, 1, 80, 0
7, 127680, Note_on_c, 1, 81, 42
7, 127731, Note_on_c, 1, 81, 0
7, 127740, Note_on_c, 1, 81, 43
7, 127791, Note_on_c, 1, 81, 0
7, 127800, Note_on_c, 1, 81, 44
7, 127851, Note_on_c, 1, 81, 0
7, 127860, Note_on_c, 1, 81, 45
7, 127911, Note_on_c, 1, 81, 0
7, 127920, Note_on_c, 1, 79, 46
7, 127971, Note_on_c, 1, 79, 0
7, 127980, Note_on_c, 1, 79, 47
7, 128031, Note_on_c, 1, 79, 0
7, 128040, Note_on_c, 1, 79, 48
7, 128091, Note_on_c, 1, 79, 0
7, 128100, Note_on_c, 1, 79, 49
7, 128151, Note_on_c, 1, 79, 0
7, 128160, Note_on_c, 1, 77, 50
7, 128211, Note_on_c, 1, 77, 0
7, 128220, Note_on_c, 1, 77, 50
7, 128220, Note_on_c, 1, 81, 50
7, 128271, Note_on_c, 1, 77, 0
7, 128271, Note_on_c, 1, 81, 0
7, 128280, Note_on_c, 1, 77, 51
7, 128280, Note_on_c, 1, 81, 51
7, 128331, Note_on_c, 1, 77, 0
7, 128331, Note_on_c, 1, 81, 0
7, 128340, Note_on_c, 1, 77, 52
7, 128340, Note_on_c, 1, 81, 52
7, 128391, Note_on_c, 1, 77, 0
7, 128391, Note_on_c, 1, 81, 0
7, 128400, Note_on_c, 1, 81, 53
7, 128400, Note_on_c, 1, 76, 53
7, 128451, Note_on_c, 1, 81, 0
7, 128451, Note_on_c, 1, 76, 0
7, 128460, Note_on_c, 1, 81, 54
7, 128460, Note_on_c, 1, 76, 54
7, 128511, Note_on_c, 1, 81, 0
7, 128511, Note_on_c, 1, 76, 0
7, 128520, Note_on_c, 1, 76, 55
7, 128520, Note_on_c, 1, 81, 55
7, 128571, Note_on_c, 1, 76, 0
7, 128571, Note_on_c, 1, 81, 0
7, 128580, Note_on_c, 1, 76, 56
7, 128580, Note_on_c, 1, 81, 56
7, 128631, Note_on_c, 1, 76, 0
7, 128631, Note_on_c, 1, 81, 0
7, 128640, Note_on_c, 1, 74, 57
7, 128640, Note_on_c, 1, 77, 57
7, 128691, Note_on_c, 1, 74, 0
7, 128691, Note_on_c, 1, 77, 0
7, 128700, Note_on_c, 1, 77, 58
7, 128700, Note_on_c, 1, 74, 58
7, 128751, Note_on_c, 1, 77, 0
7, 128751, Note_on_c, 1, 74, 0
7, 128760, Note_on_c, 1, 77, 59
7, 128760, Note_on_c, 1, 74, 59
7, 128811, Note_on_c, 1, 77, 0
7, 128811, Note_on_c, 1, 74, 0
7, 128820, Note_on_c, 1, 77, 59
7, 128820, Note_on_c, 1, 74, 59
7, 128871, Note_on_c, 1, 77, 0
7, 128871, Note_on_c, 1, 74, 0
7, 128880, Note_on_c, 1, 77, 60
7, 128880, Note_on_c, 1, 72, 60
7, 128931, Note_on_c, 1, 77, 0
7, 128931, Note_on_c, 1, 72, 0
7, 128940, Note_on_c, 1, 77, 61
7, 128940, Note_on_c, 1, 72, 61
7, 128991, Note_on_c, 1, 77, 0
7, 128991, Note_on_c, 1, 72, 0
7, 129000, Note_on_c, 1, 77, 62
7, 129000, Note_on_c, 1, 72, 62
7, 129051, Note_on_c, 1, 77, 0
7, 129051, Note_on_c, 1, 72, 0
7, 129060, Note_on_c, 1, 77, 63
7, 129060, Note_on_c, 1, 72, 63
7, 129111, Note_on_c, 1, 77, 0
7, 129111, Note_on_c, 1, 72, 0
7, 129120, Note_on_c, 1, 71, 64
7, 129120, Note_on_c, 1, 74, 64
7, 129171, Note_on_c, 1, 71, 0
7, 129171, Note_on_c, 1, 74, 0
7, 129180, Note_on_c, 1, 71, 65
7, 129180, Note_on_c, 1, 74, 65
7, 129231, Note_on_c, 1, 71, 0
7, 129231, Note_on_c, 1, 74, 0
7, 129240, Note_on_c, 1, 74, 66
7, 129240, Note_on_c, 1, 71, 66
7, 129291, Note_on_c, 1, 74, 0
7, 129291, Note_on_c, 1, 71, 0
7, 129300, Note_on_c, 1, 71, 67
7, 129300, Note_on_c, 1, 74, 67
7, 129351, Note_on_c, 1, 71, 0
7, 129351, Note_on_c, 1, 74, 0
7, 129360, Note_on_c, 1, 69, 68
7, 129360, Note_on_c, 1, 72, 68
7, 129411, Note_on_c, 1, 69, 0
7, 129411, Note_on_c, 1, 72, 0
7, 129420, Note_on_c, 1, 72, 59
7, 129420, Note_on_c, 1, 69, 59
7, 129471, Note_on_c, 1, 72, 0
7, 129471, Note_on_c, 1, 69, 0
7, 129480, Note_on_c, 1, 72, 50
7, 129480, Note_on_c, 1, 69, 50
7, 129531, Note_on_c, 1, 72, 0
7, 129531, Note_on_c, 1, 69, 0
7, 129540, Note_on_c, 1, 69, 41
7, 129540, Note_on_c, 1, 72, 41
7, 129591, Note_on_c, 1, 69, 0
7, 129591, Note_on_c, 1, 72, 0
7, 129600, Note_on_c, 1, 71, 32
7, 129719, Note_on_c, 1, 71, 0
7, 129720, Note_on_c, 1, 72, 32
7, 129944, Note_on_c, 1, 72, 0
7, 129960, Note_on_c, 1, 72, 32
7, 130064, Note_on_c, 1, 72, 0
7, 130080, Note_on_c, 1, 76, 32
7, 130080, Note_on_c, 1, 71, 32
7, 130199, Note_on_c, 1, 71, 0
7, 130200, Note_on_c, 1, 72, 32
7, 130371, Note_on_c, 1, 76, 0
7, 130380, Note_on_c, 1, 81, 32
7, 130424, Note_on_c, 1, 72, 0
7, 130424, Note_on_c, 1, 81, 0
7, 130440, Note_on_c, 1, 72, 32
7, 130440, Note_on_c, 1, 79, 32
7, 130484, Note_on_c, 1, 79, 0
7, 130500, Note_on_c, 1, 77, 32
7, 130544, Note_on_c, 1, 72, 0
7, 130544, Note_on_c, 1, 77, 0
7, 130560, Note_on_c, 1, 71, 32
7, 130560, Note_on_c, 1, 76, 32
7, 130679, Note_on_c, 1, 71, 0
7, 130680, Note_on_c, 1, 72, 32
7, 130851, Note_on_c, 1, 76, 0
7, 130851, Note_on_c, 1, 72, 0
7, 130860, Note_on_c, 1, 81, 32
7, 130860, Note_on_c, 1, 72, 32
7, 130904, Note_on_c, 1, 81, 0
7, 130904, Note_on_c, 1, 72, 0
7, 130920, Note_on_c, 1, 79, 32
7, 130920, Note_on_c, 1, 72, 32
7, 130964, Note_on_c, 1, 79, 0
7, 130964, Note_on_c, 1, 72, 0
7, 130980, Note_on_c, 1, 74, 32
7, 130980, Note_on_c, 1, 77, 32
7, 131024, Note_on_c, 1, 74, 0
7, 131024, Note_on_c, 1, 77, 0
7, 131040, Note_on_c, 1, 76, 32
7, 131159, Note_on_c, 1, 76, 0
7, 131340, Note_on_c, 1, 69, 32
7, 131384, Note_on_c, 1, 69, 0
7, 131400, Note_on_c, 1, 69, 32
7, 131444, Note_on_c, 1, 69, 0
7, 131460, Note_on_c, 1, 71, 32
7, 131504, Note_on_c, 1, 71, 0
7, 131520, Note_on_c, 1, 72, 32
7, 131864, Note_on_c, 1, 72, 0
7, 131880, Note_on_c, 1, 77, 38
7, 131984, Note_on_c, 1, 77, 0
7, 132000, Note_on_c, 1, 76, 32
7, 132344, Note_on_c, 1, 76, 0
7, 132360, Note_on_c, 1, 81, 38
7, 132464, Note_on_c, 1, 81, 0
7, 132480, Note_on_c, 1, 80, 32
7, 132719, Note_on_c, 1, 80, 0
7, 134400, Note_on_c, 1, 72, 44
7, 134744, Note_on_c, 1, 72, 0
7, 134760, Note_on_c, 1, 79, 50
7, 134864, Note_on_c, 1, 79, 0
7, 134880, Note_on_c, 1, 76, 44
7, 135224, Note_on_c, 1, 76, 0
7, 135240, Note_on_c, 1, 82, 50
7, 135464, Note_on_c, 1, 82, 0
7, 135480, Note_on_c, 1, 81, 44
7, 135584, Note_on_c, 1, 81, 0
7, 135600, Note_on_c, 1, 69, 44
7, 135644, Note_on_c, 1, 69, 0
7, 135660, Note_on_c, 1, 72, 44
7, 135704, Note_on_c, 1, 72, 0
7, 135720, Note_on_c, 1, 77, 44
7, 135764, Note_on_c, 1, 77, 0
7, 135780, Note_on_c, 1, 81, 44
7, 135824, Note_on_c, 1, 81, 0
7, 135840, Note_on_c, 1, 84, 44
7, 135959, Note_on_c, 1, 84, 0
7, 136080, Note_on_c, 1, 69, 44
7, 136124, Note_on_c, 1, 69, 0
7, 136140, Note_on_c, 1, 72, 44
7, 136184, Note_on_c, 1, 72, 0
7, 136200, Note_on_c, 1, 77, 44
7, 136244, Note_on_c, 1, 77, 0
7, 136260, Note_on_c, 1, 81, 44
7, 136304, Note_on_c, 1, 81, 0
7, 136320, Note_on_c, 1, 82, 44
7, 136439, Note_on_c, 1, 82, 0
7, 136560, Note_on_c, 1, 64, 44
7, 136604, Note_on_c, 1, 64, 0
7, 136620, Note_on_c, 1, 67, 44
7, 136664, Note_on_c, 1, 67, 0
7, 136680, Note_on_c, 1, 72, 44
7, 136724, Note_on_c, 1, 72, 0
7, 136740, Note_on_c, 1, 76, 44
7, 136784, Note_on_c, 1, 76, 0
7, 136800, Note_on_c, 1, 79, 44
7, 136919, Note_on_c, 1, 79, 0
7, 137040, Note_on_c, 1, 67, 44
7, 137084, Note_on_c, 1, 67, 0
7, 137100, Note_on_c, 1, 72, 44
7, 137144, Note_on_c, 1, 72, 0
7, 137160, Note_on_c, 1, 76, 44
7, 137204, Note_on_c, 1, 76, 0
7, 137220, Note_on_c, 1, 79, 44
7, 137264, Note_on_c, 1, 79, 0
7, 137280, Note_on_c, 1, 72, 44
7, 140144, Note_on_c, 1, 72, 0
7, 140160, Note_on_c, 1, 82, 44
7, 140459, Note_on_c, 1, 82, 0
7, 140460, Note_on_c, 1, 86, 44
7, 140511, Note_on_c, 1, 86, 0
7, 140520, Note_on_c, 1, 84, 44
7, 140564, Note_on_c, 1, 84, 0
7, 140580, Note_on_c, 1, 82, 44
7, 140624, Note_on_c, 1, 82, 0
7, 140640, Note_on_c, 1, 82, 44
7, 140939, Note_on_c, 1, 82, 0
7, 140940, Note_on_c, 1, 86, 44
7, 140991, Note_on_c, 1, 86, 0
7, 141000, Note_on_c, 1, 84, 44
7, 141044, Note_on_c, 1, 84, 0
7, 141060, Note_on_c, 1, 82, 44
7, 141104, Note_on_c, 1, 82, 0
7, 141118, Control_c, 1, 11, 67
7, 141120, Control_c, 1, 11, 67
7, 141120, Note_on_c, 1, 82, 80
7, 141120, Note_on_c, 1, 70, 80
7, 141140, Control_c, 1, 11, 68
7, 141160, Control_c, 1, 11, 70
7, 141164, Note_on_c, 1, 82, 0
7, 141164, Note_on_c, 1, 70, 0
7, 141180, Control_c, 1, 11, 71
7, 141180, Note_on_c, 1, 79, 80
7, 141180, Note_on_c, 1, 76, 80
7, 141200, Control_c, 1, 11, 72
7, 141220, Control_c, 1, 11, 73
7, 141224, Note_on_c, 1, 79, 0
7, 141224, Note_on_c, 1, 76, 0
7, 141240, Control_c, 1, 11, 75
7, 141240, Note_on_c, 1, 81, 80
7, 141240, Note_on_c, 1, 77, 80
7, 141260, Control_c, 1, 11, 76
7, 141280, Control_c, 1, 11, 77
7, 141284, Note_on_c, 1, 81, 0
7, 141284, Note_on_c, 1, 77, 0
7, 141300, Note_on_c, 1, 82, 80
7, 141300, Control_c, 1, 11, 78
7, 141300, Note_on_c, 1, 79, 80
7, 141320, Control_c, 1, 11, 80
7, 141340, Control_c, 1, 11, 81
7, 141344, Note_on_c, 1, 82, 0
7, 141344, Note_on_c, 1, 79, 0
7, 141360, Note_on_c, 1, 82, 80
7, 141360, Note_on_c, 1, 79, 80
7, 141360, Control_c, 1, 11, 82
7, 141380, Control_c, 1, 11, 83
7, 141400, Control_c, 1, 11, 85
7, 141420, Control_c, 1, 11, 86
7, 141440, Control_c, 1, 11, 87
7, 141460, Control_c, 1, 11, 88
7, 141480, Control_c, 1, 11, 90
7, 141500, Control_c, 1, 11, 91
7, 141520, Control_c, 1, 11, 92
7, 141540, Control_c, 1, 11, 93
7, 141560, Control_c, 1, 11, 95
7, 141580, Control_c, 1, 11, 96
7, 141600, Control_c, 1, 11, 97
7, 141620, Control_c, 1, 11, 98
7, 141640, Control_c, 1, 11, 100
7, 141651, Note_on_c, 1, 82, 0
7, 141651, Note_on_c, 1, 79, 0
7, 141660, Note_on_c, 1, 79, 80
7, 141660, Note_on_c, 1, 76, 80
7, 141660, Control_c, 1, 11, 101
7, 141680, Control_c, 1, 11, 102
7, 141700, Control_c, 1, 11, 103
7, 141704, Note_on_c, 1, 79, 0
7, 141704, Note_on_c, 1, 76, 0
7, 141720, Note_on_c, 1, 81, 80
7, 141720, Note_on_c, 1, 77, 80
7, 141720, Control_c, 1, 11, 105
7, 141740, Control_c, 1, 11, 106
7, 141760, Control_c, 1, 11, 107
7, 141764, Note_on_c, 1, 81, 0
7, 141764, Note_on_c, 1, 77, 0
7, 141780, Note_on_c, 1, 79, 80
7, 141780, Note_on_c, 1, 82, 80
7, 141780, Control_c, 1, 11, 108
7, 141800, Control_c, 1, 11, 110
7, 141820, Control_c, 1, 11, 111
7, 141824, Note_on_c, 1, 79, 0
7, 141824, Note_on_c, 1, 82, 0
7, 141840, Control_c, 1, 11, 112
7, 141840, Note_on_c, 1, 82, 80
7, 141840, Note_on_c, 1, 79, 80
7, 141860, Control_c, 1, 11, 113
7, 141880, Control_c, 1, 11, 115
7, 141900, Control_c, 1, 11, 116
7, 141920, Control_c, 1, 11, 117
7, 141940, Control_c, 1, 11, 118
7, 141960, Control_c, 1, 11, 120
7, 141980, Control_c, 1, 11, 121
7, 142000, Control_c, 1, 11, 122
7, 142020, Control_c, 1, 11, 123
7, 142040, Control_c, 1, 11, 125
7, 142060, Control_c, 1, 11, 127
7, 142064, Note_on_c, 1, 82, 0
7, 142064, Note_on_c, 1, 79, 0
7, 142080, Note_on_c, 1, 82, 80
7, 142080, Note_on_c, 1, 70, 80
7, 142124, Note_on_c, 1, 82, 0
7, 142124, Note_on_c, 1, 70, 0
7, 142140, Note_on_c, 1, 79, 80
7, 142184, Note_on_c, 1, 79, 0
7, 142200, Note_on_c, 1, 77, 80
7, 142244, Note_on_c, 1, 77, 0
7, 142260, Note_on_c, 1, 76, 80
7, 142304, Note_on_c, 1, 76, 0
7, 142320, Note_on_c, 1, 73, 80
7, 142364, Note_on_c, 1, 73, 0
7, 142380, Note_on_c, 1, 76, 80
7, 142424, Note_on_c, 1, 76, 0
7, 142440, Note_on_c, 1, 74, 80
7, 142484, Note_on_c, 1, 74, 0
7, 142500, Note_on_c, 1, 73, 80
7, 142544, Note_on_c, 1, 73, 0
7, 142560, Note_on_c, 1, 79, 80
7, 142604, Note_on_c, 1, 79, 0
7, 142620, Note_on_c, 1, 82, 80
7, 142664, Note_on_c, 1, 82, 0
7, 142680, Note_on_c, 1, 81, 80
7, 142724, Note_on_c, 1, 81, 0
7, 142740, Note_on_c, 1, 79, 80
7, 142784, Note_on_c, 1, 79, 0
7, 142800, Note_on_c, 1, 76, 80
7, 142844, Note_on_c, 1, 76, 0
7, 142860, Note_on_c, 1, 79, 80
7, 142904, Note_on_c, 1, 79, 0
7, 142920, Note_on_c, 1, 77, 80
7, 142964, Note_on_c, 1, 77, 0
7, 142980, Note_on_c, 1, 76, 80
7, 143024, Note_on_c, 1, 76, 0
7, 143040, Note_on_c, 1, 73, 80
7, 143084, Note_on_c, 1, 73, 0
7, 143100, Note_on_c, 1, 76, 80
7, 143144, Note_on_c, 1, 76, 0
7, 143160, Note_on_c, 1, 74, 80
7, 143204, Note_on_c, 1, 74, 0
7, 143220, Note_on_c, 1, 73, 80
7, 143264, Note_on_c, 1, 73, 0
7, 143280, Note_on_c, 1, 67, 80
7, 143324, Note_on_c, 1, 67, 0
7, 143340, Note_on_c, 1, 70, 80
7, 143384, Note_on_c, 1, 70, 0
7, 143400, Note_on_c, 1, 69, 80
7, 143444, Note_on_c, 1, 69, 0
7, 143460, Note_on_c, 1, 67, 80
7, 143504, Note_on_c, 1, 67, 0
7, 143520, Note_on_c, 1, 76, 80
7, 143564, Note_on_c, 1, 76, 0
7, 143580, Note_on_c, 1, 77, 80
7, 143624, Note_on_c, 1, 77, 0
7, 143640, Note_on_c, 1, 76, 80
7, 143684, Note_on_c, 1, 76, 0
7, 143700, Note_on_c, 1, 74, 80
7, 143744, Note_on_c, 1, 74, 0
7, 143760, Note_on_c, 1, 73, 80
7, 143804, Note_on_c, 1, 73, 0
7, 143820, Note_on_c, 1, 70, 80
7, 143864, Note_on_c, 1, 70, 0
7, 143880, Note_on_c, 1, 69, 80
7, 143924, Note_on_c, 1, 69, 0
7, 143940, Note_on_c, 1, 67, 80
7, 143984, Note_on_c, 1, 67, 0
7, 144000, Note_on_c, 1, 81, 92
7, 144000, Note_on_c, 1, 74, 92
7, 145881, Note_on_c, 1, 81, 0
7, 145881, Note_on_c, 1, 74, 0
7, 145890, Note_on_c, 1, 74, 92
7, 145890, Note_on_c, 1, 81, 92
7, 145911, Note_on_c, 1, 74, 0
7, 145911, Note_on_c, 1, 81, 0
7, 145920, Note_on_c, 1, 74, 92
7, 145920, Note_on_c, 1, 81, 92
7, 147801, Note_on_c, 1, 74, 0
7, 147801, Note_on_c, 1, 81, 0
7, 147810, Note_on_c, 1, 81, 92
7, 147810, Note_on_c, 1, 74, 92
7, 147831, Note_on_c, 1, 81, 0
7, 147831, Note_on_c, 1, 74, 0
7, 147840, Note_on_c, 1, 74, 92
7, 147840, Note_on_c, 1, 81, 92
7, 148761, Note_on_c, 1, 74, 0
7, 148761, Note_on_c, 1, 81, 0
7, 148770, Note_on_c, 1, 81, 92
7, 148770, Note_on_c, 1, 74, 92
7, 148791, Note_on_c, 1, 81, 0
7, 148791, Note_on_c, 1, 74, 0
7, 148800, Note_on_c, 1, 74, 92
7, 148800, Note_on_c, 1, 81, 92
7, 149519, Note_on_c, 1, 81, 0
7, 149520, Note_on_c, 1, 82, 92
7, 149624, Note_on_c, 1, 74, 0
7, 149624, Note_on_c, 1, 82, 0
7, 149640, Note_on_c, 1, 86, 92
7, 149640, Note_on_c, 1, 80, 92
7, 150719, Note_on_c, 1, 80, 0
7, 150720, Note_on_c, 1, 81, 92
7, 151641, Note_on_c, 1, 86, 0
7, 151641, Note_on_c, 1, 81, 0
7, 151650, Note_on_c, 1, 86, 92
7, 151650, Note_on_c, 1, 74, 92
7, 151671, Note_on_c, 1, 86, 0
7, 151671, Note_on_c, 1, 74, 0
7, 151680, Note_on_c, 1, 69, 92
7, 151680, Note_on_c, 1, 81, 92
7, 152121, Note_on_c, 1, 69, 0
7, 152121, Note_on_c, 1, 81, 0
7, 152130, Note_on_c, 1, 77, 92
7, 152130, Note_on_c, 1, 65, 92
7, 152151, Note_on_c, 1, 77, 0
7, 152151, Note_on_c, 1, 65, 0
7, 152160, Note_on_c, 1, 62, 92
7, 152160, Note_on_c, 1, 74, 92
7, 152361, Note_on_c, 1, 62, 0
7, 152361, Note_on_c, 1, 74, 0
7, 152370, Note_on_c, 1, 69, 92
7, 152391, Note_on_c, 1, 69, 0
7, 152400, Note_on_c, 1, 65, 92
7, 152564, Note_on_c, 1, 65, 0
7, 152580, Note_on_c, 1, 81, 92
7, 152609, Note_on_c, 1, 81, 0
7, 152610, Note_on_c, 1, 77, 92
7, 152631, Note_on_c, 1, 77, 0
7, 152640, Note_on_c, 1, 74, 92
7, 153584, Note_on_c, 1, 74, 0
7, 153600, Note_on_c, 1, 74, 92
7, 153891, Note_on_c, 1, 74, 0
7, 153900, Note_on_c, 1, 77, 92
7, 153944, Note_on_c, 1, 77, 0
7, 153960, Note_on_c, 1, 76, 92
7, 154004, Note_on_c, 1, 76, 0
7, 154020, Note_on_c, 1, 74, 92
7, 154064, Note_on_c, 1, 74, 0
7, 154080, Note_on_c, 1, 81, 92
7, 154169, Note_on_c, 1, 81, 0
7, 154200, Note_on_c, 1, 79, 92
7, 154289, Note_on_c, 1, 79, 0
7, 154320, Note_on_c, 1, 76, 92
7, 154409, Note_on_c, 1, 76, 0
7, 154440, Note_on_c, 1, 81, 92
7, 154529, Note_on_c, 1, 81, 0
7, 154560, Note_on_c, 1, 78, 80
7, 154560, Note_on_c, 1, 66, 80
7, 155024, Note_on_c, 1, 78, 0
7, 155024, Note_on_c, 1, 66, 0
7, 155040, Note_on_c, 1, 75, 80
7, 155040, Note_on_c, 1, 63, 80
7, 155219, Note_on_c, 1, 75, 0
7, 155219, Note_on_c, 1, 63, 0
7, 155280, Note_on_c, 1, 78, 80
7, 155280, Note_on_c, 1, 66, 80
7, 155459, Note_on_c, 1, 78, 0
7, 155459, Note_on_c, 1, 66, 0
7, 155520, Note_on_c, 1, 67, 80
7, 155520, Note_on_c, 1, 79, 80
7, 155984, Note_on_c, 1, 67, 0
7, 155984, Note_on_c, 1, 79, 0
7, 156000, Note_on_c, 1, 67, 80
7, 156000, Note_on_c, 1, 79, 80
7, 156179, Note_on_c, 1, 67, 0
7, 156179, Note_on_c, 1, 79, 0
7, 156240, Note_on_c, 1, 79, 80
7, 156240, Note_on_c, 1, 67, 80
7, 156419, Note_on_c, 1, 79, 0
7, 156419, Note_on_c, 1, 67, 0
7, 156480, Note_on_c, 1, 67, 92
7, 156480, Note_on_c, 1, 79, 92
7, 156540, Control_c, 1, 11, 107
7, 157424, Note_on_c, 1, 67, 0
7, 157424, Note_on_c, 1, 79, 0
7, 157438, Control_c, 1, 11, 127
7, 157440, Note_on_c, 1, 69, 92
7, 157440, Note_on_c, 1, 81, 92
7, 157500, Control_c, 1, 11, 107
7, 157784, Note_on_c, 1, 69, 0
7, 157784, Note_on_c, 1, 81, 0
7, 157798, Control_c, 1, 11, 127
7, 157800, Note_on_c, 1, 79, 80
7, 157800, Note_on_c, 1, 67, 80
7, 157889, Note_on_c, 1, 79, 0
7, 157889, Note_on_c, 1, 67, 0
7, 157920, Note_on_c, 1, 66, 80
7, 157920, Note_on_c, 1, 78, 80
7, 158009, Note_on_c, 1, 66, 0
7, 158009, Note_on_c, 1, 78, 0
7, 158040, Note_on_c, 1, 63, 80
7, 158040, Note_on_c, 1, 75, 80
7, 158129, Note_on_c, 1, 63, 0
7, 158129, Note_on_c, 1, 75, 0
7, 158160, Note_on_c, 1, 74, 80
7, 158160, Note_on_c, 1, 62, 80
7, 158249, Note_on_c, 1, 74, 0
7, 158249, Note_on_c, 1, 62, 0
7, 158280, Note_on_c, 1, 60, 80
7, 158280, Note_on_c, 1, 72, 80
7, 158369, Note_on_c, 1, 60, 0
7, 158369, Note_on_c, 1, 72, 0
7, 158400, Note_on_c, 1, 71, 80
7, 158609, Note_on_c, 1, 71, 0
7, 158640, Note_on_c, 1, 70, 80
7, 158849, Note_on_c, 1, 70, 0
7, 159240, Note_on_c, 1, 73, 80
7, 159279, Note_on_c, 1, 73, 0
7, 159280, Note_on_c, 1, 74, 80
7, 159319, Note_on_c, 1, 74, 0
7, 159320, Note_on_c, 1, 76, 80
7, 159353, Note_on_c, 1, 76, 0
7, 159360, Note_on_c, 1, 77, 92
7, 159420, Control_c, 1, 11, 107
7, 159704, Note_on_c, 1, 77, 0
7, 159718, Control_c, 1, 11, 127
7, 159720, Note_on_c, 1, 76, 80
7, 159809, Note_on_c, 1, 76, 0
7, 159840, Note_on_c, 1, 74, 80
7, 159929, Note_on_c, 1, 74, 0
7, 159960, Note_on_c, 1, 72, 80
7, 160049, Note_on_c, 1, 72, 0
7, 160080, Note_on_c, 1, 70, 80
7, 160169, Note_on_c, 1, 70, 0
7, 160200, Note_on_c, 1, 69, 80
7, 160289, Note_on_c, 1, 69, 0
7, 160320, Note_on_c, 1, 68, 80
7, 160529, Note_on_c, 1, 68, 0
7, 160560, Note_on_c, 1, 67, 80
7, 160769, Note_on_c, 1, 67, 0
7, 161160, Note_on_c, 1, 61, 80
7, 161160, Note_on_c, 1, 73, 80
7, 161199, Note_on_c, 1, 61, 0
7, 161199, Note_on_c, 1, 73, 0
7, 161200, Note_on_c, 1, 62, 80
7, 161200, Note_on_c, 1, 74, 80
7, 161239, Note_on_c, 1, 62, 0
7, 161239, Note_on_c, 1, 74, 0
7, 161240, Note_on_c, 1, 76, 80
7, 161240, Note_on_c, 1, 64, 80
7, 161273, Note_on_c, 1, 76, 0
7, 161273, Note_on_c, 1, 64, 0
7, 161280, Note_on_c, 1, 64, 92
7, 161280, Note_on_c, 1, 76, 92
7, 161340, Control_c, 1, 11, 107
7, 161359, Control_c, 1, 11, 106
7, 161378, Control_c, 1, 11, 105
7, 161396, Control_c, 1, 11, 103
7, 161415, Control_c, 1, 11, 102
7, 161434, Control_c, 1, 11, 101
7, 161453, Control_c, 1, 11, 100
7, 161471, Control_c, 1, 11, 98
7, 161490, Control_c, 1, 11, 97
7, 161509, Control_c, 1, 11, 96
7, 161519, Note_on_c, 1, 64, 0
7, 161528, Control_c, 1, 11, 95
7, 161546, Control_c, 1, 11, 93
7, 161565, Control_c, 1, 11, 92
7, 161584, Control_c, 1, 11, 91
7, 161603, Control_c, 1, 11, 90
7, 161621, Control_c, 1, 11, 88
7, 161624, Note_on_c, 1, 76, 0
7, 161640, Control_c, 1, 11, 87
7, 161640, Note_on_c, 1, 74, 92
7, 161659, Control_c, 1, 11, 86
7, 161678, Control_c, 1, 11, 85
7, 161696, Control_c, 1, 11, 83
7, 161715, Control_c, 1, 11, 82
7, 161729, Note_on_c, 1, 74, 0
7, 161734, Control_c, 1, 11, 81
7, 161753, Control_c, 1, 11, 80
7, 161760, Note_on_c, 1, 73, 92
7, 161771, Control_c, 1, 11, 78
7, 161790, Control_c, 1, 11, 77
7, 161809, Control_c, 1, 11, 76
7, 161828, Control_c, 1, 11, 75
7, 161846, Control_c, 1, 11, 73
7, 161849, Note_on_c, 1, 73, 0
7, 161865, Control_c, 1, 11, 72
7, 161880, Note_on_c, 1, 71, 92
7, 161884, Control_c, 1, 11, 71
7, 161903, Control_c, 1, 11, 70
7, 161921, Control_c, 1, 11, 68
7, 161940, Control_c, 1, 11, 67
7, 161959, Control_c, 1, 11, 66
7, 161969, Note_on_c, 1, 71, 0
7, 161978, Control_c, 1, 11, 65
7, 161996, Control_c, 1, 11, 63
7, 162000, Note_on_c, 1, 69, 92
7, 162015, Control_c, 1, 11, 62
7, 162034, Control_c, 1, 11, 61
7, 162053, Control_c, 1, 11, 60
7, 162071, Control_c, 1, 11, 58
7, 162089, Note_on_c, 1, 69, 0
7, 162090, Control_c, 1, 11, 57
7, 162109, Control_c, 1, 11, 56
7, 162120, Note_on_c, 1, 76, 92
7, 162128, Control_c, 1, 11, 55
7, 162146, Control_c, 1, 11, 53
7, 162165, Control_c, 1, 11, 52
7, 162184, Control_c, 1, 11, 51
7, 162203, Control_c, 1, 11, 50
7, 162209, Note_on_c, 1, 76, 0
7, 162221, Control_c, 1, 11, 47
7, 162240, Note_on_c, 1, 76, 88
7, 162599, Note_on_c, 1, 76, 0
7, 162600, Note_on_c, 1, 78, 88
7, 162659, Note_on_c, 1, 78, 0
7, 162660, Note_on_c, 1, 79, 88
7, 162711, Note_on_c, 1, 79, 0
7, 162720, Note_on_c, 1, 79, 88
7, 162839, Note_on_c, 1, 79, 0
7, 162840, Note_on_c, 1, 78, 88
7, 162899, Note_on_c, 1, 78, 0
7, 162900, Note_on_c, 1, 76, 88
7, 162951, Note_on_c, 1, 76, 0
7, 162960, Note_on_c, 1, 79, 88
7, 163079, Note_on_c, 1, 79, 0
7, 163080, Note_on_c, 1, 78, 88
7, 163139, Note_on_c, 1, 78, 0
7, 163140, Note_on_c, 1, 76, 88
7, 163191, Note_on_c, 1, 76, 0
7, 163200, Note_on_c, 1, 76, 88
7, 163319, Note_on_c, 1, 76, 0
7, 163320, Note_on_c, 1, 74, 88
7, 163439, Note_on_c, 1, 74, 0
7, 163678, Control_c, 1, 11, 127
7, 163680, Note_on_c, 1, 69, 38
7, 163799, Note_on_c, 1, 69, 0
7, 163800, Note_on_c, 1, 71, 38
7, 163859, Note_on_c, 1, 71, 0
7, 163860, Note_on_c, 1, 73, 38
7, 163911, Note_on_c, 1, 73, 0
7, 163920, Note_on_c, 1, 74, 38
7, 164039, Note_on_c, 1, 74, 0
7, 164040, Note_on_c, 1, 76, 38
7, 164099, Note_on_c, 1, 76, 0
7, 164100, Note_on_c, 1, 78, 38
7, 164151, Note_on_c, 1, 78, 0
7, 164160, Note_on_c, 1, 78, 38
7, 164279, Note_on_c, 1, 78, 0
7, 164280, Note_on_c, 1, 79, 38
7, 164519, Note_on_c, 1, 79, 0
7, 164520, Note_on_c, 1, 81, 38
7, 164579, Note_on_c, 1, 81, 0
7, 164580, Note_on_c, 1, 83, 38
7, 164631, Note_on_c, 1, 83, 0
7, 164640, Note_on_c, 1, 83, 38
7, 164759, Note_on_c, 1, 83, 0
7, 164760, Note_on_c, 1, 81, 38
7, 164819, Note_on_c, 1, 81, 0
7, 164820, Note_on_c, 1, 79, 38
7, 164871, Note_on_c, 1, 79, 0
7, 164880, Note_on_c, 1, 79, 38
7, 164999, Note_on_c, 1, 79, 0
7, 165000, Note_on_c, 1, 78, 38
7, 165059, Note_on_c, 1, 78, 0
7, 165060, Note_on_c, 1, 76, 38
7, 165111, Note_on_c, 1, 76, 0
7, 165120, Note_on_c, 1, 78, 44
7, 165464, Note_on_c, 1, 78, 0
7, 165480, Note_on_c, 1, 83, 50
7, 165584, Note_on_c, 1, 83, 0
7, 165600, Note_on_c, 1, 81, 44
7, 165719, Note_on_c, 1, 81, 0
7, 165720, Note_on_c, 1, 69, 44
7, 165944, Note_on_c, 1, 69, 0
7, 165960, Note_on_c, 1, 74, 50
7, 166064, Note_on_c, 1, 74, 0
7, 166080, Note_on_c, 1, 73, 44
7, 166424, Note_on_c, 1, 73, 0
7, 166440, Note_on_c, 1, 79, 50
7, 166544, Note_on_c, 1, 79, 0
7, 166560, Note_on_c, 1, 76, 44
7, 166904, Note_on_c, 1, 76, 0
7, 166920, Note_on_c, 1, 83, 50
7, 167024, Note_on_c, 1, 83, 0
7, 167040, Note_on_c, 1, 81, 44
7, 167279, Note_on_c, 1, 81, 0
7, 168480, Control_c, 1, 11, 107
7, 168600, Note_on_c, 1, 69, 44
7, 168600, Control_c, 1, 11, 107
7, 168613, Control_c, 1, 11, 109
7, 168627, Control_c, 1, 11, 111
7, 168640, Control_c, 1, 11, 114
7, 168653, Control_c, 1, 11, 116
7, 168667, Control_c, 1, 11, 118
7, 168680, Control_c, 1, 11, 120
7, 168693, Control_c, 1, 11, 123
7, 168707, Control_c, 1, 11, 125
7, 168720, Control_c, 1, 11, 127
7, 168733, Control_c, 1, 11, 125
7, 168747, Control_c, 1, 11, 123
7, 168760, Control_c, 1, 11, 120
7, 168773, Control_c, 1, 11, 118
7, 168787, Control_c, 1, 11, 116
7, 168800, Control_c, 1, 11, 114
7, 168813, Control_c, 1, 11, 111
7, 168827, Control_c, 1, 11, 107
7, 168839, Note_on_c, 1, 69, 0
7, 168840, Note_on_c, 1, 76, 44
7, 168899, Note_on_c, 1, 76, 0
7, 168900, Note_on_c, 1, 74, 44
7, 168959, Note_on_c, 1, 74, 0
7, 169536, Control_c, 1, 11, 51
7, 169560, Note_on_c, 1, 76, 80
7, 169560, Control_c, 1, 11, 52
7, 169584, Control_c, 1, 11, 53
7, 169608, Control_c, 1, 11, 54
7, 169632, Control_c, 1, 11, 55
7, 169656, Control_c, 1, 11, 56
7, 169680, Control_c, 1, 11, 57
7, 169704, Control_c, 1, 11, 58
7, 169728, Control_c, 1, 11, 59
7, 169752, Control_c, 1, 11, 60
7, 169776, Control_c, 1, 11, 61
7, 169799, Note_on_c, 1, 76, 0
7, 169800, Note_on_c, 1, 82, 80
7, 169800, Note_on_c, 1, 73, 80
7, 169800, Control_c, 1, 11, 62
7, 169824, Control_c, 1, 11, 63
7, 169848, Control_c, 1, 11, 64
7, 169859, Note_on_c, 1, 82, 0
7, 169860, Note_on_c, 1, 81, 80
7, 169872, Control_c, 1, 11, 65
7, 169896, Control_c, 1, 11, 67
7, 169911, Note_on_c, 1, 81, 0
7, 169919, Note_on_c, 1, 73, 0
7, 169920, Note_on_c, 1, 81, 80
7, 169920, Note_on_c, 1, 74, 80
7, 170039, Note_on_c, 1, 74, 0
7, 170040, Note_on_c, 1, 73, 80
7, 170159, Note_on_c, 1, 73, 0
7, 170160, Note_on_c, 1, 74, 80
7, 170399, Note_on_c, 1, 74, 0
7, 170400, Note_on_c, 1, 75, 80
7, 170504, Note_on_c, 1, 81, 0
7, 170519, Note_on_c, 1, 75, 0
7, 170520, Note_on_c, 1, 81, 80
7, 170520, Note_on_c, 1, 76, 80
7, 170609, Note_on_c, 1, 81, 0
7, 170610, Note_on_c, 1, 79, 80
7, 170624, Note_on_c, 1, 76, 0
7, 170631, Note_on_c, 1, 79, 0
7, 170640, Note_on_c, 1, 79, 80
7, 170640, Note_on_c, 1, 76, 80
7, 170744, Note_on_c, 1, 79, 0
7, 170744, Note_on_c, 1, 76, 0
7, 170760, Note_on_c, 1, 79, 80
7, 170760, Note_on_c, 1, 76, 80
7, 170864, Note_on_c, 1, 79, 0
7, 170864, Note_on_c, 1, 76, 0
7, 171000, Note_on_c, 1, 76, 80
7, 171119, Note_on_c, 1, 76, 0
7, 171120, Note_on_c, 1, 77, 80
7, 171240, Note_on_c, 1, 82, 80
7, 171359, Note_on_c, 1, 82, 0
7, 171360, Note_on_c, 1, 83, 80
7, 171479, Note_on_c, 1, 77, 0
7, 171479, Note_on_c, 1, 83, 0
7, 171480, Note_on_c, 1, 84, 80
7, 171584, Note_on_c, 1, 84, 0
7, 171600, Note_on_c, 1, 84, 80
7, 171704, Note_on_c, 1, 84, 0
7, 171720, Note_on_c, 1, 84, 80
7, 171824, Note_on_c, 1, 84, 0
7, 171840, Control_c, 1, 11, 67
7, 171840, Note_on_c, 1, 74, 80
7, 171856, Control_c, 1, 11, 68
7, 171872, Control_c, 1, 11, 69
7, 171888, Control_c, 1, 11, 70
7, 171904, Control_c, 1, 11, 71
7, 171920, Control_c, 1, 11, 72
7, 171936, Control_c, 1, 11, 73
7, 171952, Control_c, 1, 11, 74
7, 171968, Control_c, 1, 11, 75
7, 171984, Control_c, 1, 11, 76
7, 172000, Control_c, 1, 11, 77
7, 172016, Control_c, 1, 11, 78
7, 172032, Control_c, 1, 11, 79
7, 172048, Control_c, 1, 11, 80
7, 172064, Control_c, 1, 11, 81
7, 172080, Control_c, 1, 11, 82
7, 172096, Control_c, 1, 11, 83
7, 172112, Control_c, 1, 11, 84
7, 172128, Control_c, 1, 11, 85
7, 172144, Control_c, 1, 11, 86
7, 172160, Control_c, 1, 11, 87
7, 172176, Control_c, 1, 11, 88
7, 172192, Control_c, 1, 11, 89
7, 172208, Control_c, 1, 11, 90
7, 172224, Control_c, 1, 11, 91
7, 172240, Control_c, 1, 11, 92
7, 172256, Control_c, 1, 11, 93
7, 172272, Control_c, 1, 11, 94
7, 172288, Control_c, 1, 11, 95
7, 172304, Control_c, 1, 11, 96
7, 172320, Control_c, 1, 11, 97
7, 172336, Control_c, 1, 11, 98
7, 172352, Control_c, 1, 11, 99
7, 172368, Control_c, 1, 11, 100
7, 172384, Control_c, 1, 11, 101
7, 172400, Control_c, 1, 11, 102
7, 172416, Control_c, 1, 11, 103
7, 172432, Control_c, 1, 11, 104
7, 172448, Control_c, 1, 11, 105
7, 172464, Control_c, 1, 11, 106
7, 172480, Control_c, 1, 11, 107
7, 172496, Control_c, 1, 11, 108
7, 172512, Control_c, 1, 11, 109
7, 172528, Control_c, 1, 11, 110
7, 172544, Control_c, 1, 11, 111
7, 172560, Control_c, 1, 11, 112
7, 172576, Control_c, 1, 11, 113
7, 172592, Control_c, 1, 11, 114
7, 172608, Control_c, 1, 11, 115
7, 172611, Note_on_c, 1, 74, 0
7, 172620, Note_on_c, 1, 66, 80
7, 172624, Control_c, 1, 11, 116
7, 172640, Control_c, 1, 11, 117
7, 172656, Control_c, 1, 11, 118
7, 172672, Control_c, 1, 11, 119
7, 172679, Note_on_c, 1, 66, 0
7, 172680, Note_on_c, 1, 67, 80
7, 172688, Control_c, 1, 11, 120
7, 172704, Control_c, 1, 11, 121
7, 172720, Control_c, 1, 11, 122
7, 172731, Note_on_c, 1, 67, 0
7, 172736, Control_c, 1, 11, 123
7, 172740, Note_on_c, 1, 69, 80
7, 172752, Control_c, 1, 11, 124
7, 172768, Control_c, 1, 11, 125
7, 172784, Control_c, 1, 11, 127
7, 172799, Note_on_c, 1, 69, 0
7, 172800, Note_on_c, 1, 70, 80
7, 172851, Note_on_c, 1, 70, 0
7, 172860, Note_on_c, 1, 72, 80
7, 172919, Note_on_c, 1, 72, 0
7, 172920, Note_on_c, 1, 74, 80
7, 172971, Note_on_c, 1, 74, 0
7, 172980, Note_on_c, 1, 76, 80
7, 173039, Note_on_c, 1, 76, 0
7, 173040, Note_on_c, 1, 77, 80
7, 173091, Note_on_c, 1, 77, 0
7, 173100, Note_on_c, 1, 79, 83
7, 173160, Note_on_c, 1, 81, 86
7, 173211, Note_on_c, 1, 79, 0
7, 173211, Note_on_c, 1, 81, 0
7, 173220, Note_on_c, 1, 79, 89
7, 173220, Note_on_c, 1, 82, 89
7, 173279, Note_on_c, 1, 79, 0
7, 173279, Note_on_c, 1, 82, 0
7, 173280, Note_on_c, 1, 77, 92
7, 173280, Note_on_c, 1, 81, 92
7, 173384, Note_on_c, 1, 77, 0
7, 173384, Note_on_c, 1, 81, 0
7, 173400, Note_on_c, 1, 77, 104
7, 173400, Note_on_c, 1, 86, 104
7, 173489, Note_on_c, 1, 77, 0
7, 173489, Note_on_c, 1, 86, 0
7, 173640, Note_on_c, 1, 73, 104
7, 173640, Note_on_c, 1, 85, 104
7, 173729, Note_on_c, 1, 73, 0
7, 173729, Note_on_c, 1, 85, 0
7, 175680, Note_on_c, 1, 67, 80
7, 175680, Note_on_c, 1, 79, 80
7, 176211, Note_on_c, 1, 67, 0
7, 176211, Note_on_c, 1, 79, 0
7, 176220, Note_on_c, 1, 76, 80
7, 176220, Note_on_c, 1, 64, 80
7, 176279, Note_on_c, 1, 76, 0
7, 176279, Note_on_c, 1, 64, 0
7, 176280, Note_on_c, 1, 77, 80
7, 176280, Note_on_c, 1, 65, 80
7, 176331, Note_on_c, 1, 77, 0
7, 176331, Note_on_c, 1, 65, 0
7, 176340, Note_on_c, 1, 79, 80
7, 176340, Note_on_c, 1, 67, 80
7, 176399, Note_on_c, 1, 79, 0
7, 176399, Note_on_c, 1, 67, 0
7, 176400, Note_on_c, 1, 81, 80
7, 176400, Note_on_c, 1, 69, 80
7, 176451, Note_on_c, 1, 81, 0
7, 176451, Note_on_c, 1, 69, 0
7, 176460, Note_on_c, 1, 73, 80
7, 176460, Note_on_c, 1, 85, 80
7, 176519, Note_on_c, 1, 73, 0
7, 176519, Note_on_c, 1, 85, 0
7, 176520, Note_on_c, 1, 74, 80
7, 176520, Note_on_c, 1, 86, 80
7, 176571, Note_on_c, 1, 74, 0
7, 176571, Note_on_c, 1, 86, 0
7, 176580, Note_on_c, 1, 81, 80
7, 176580, Note_on_c, 1, 76, 80
7, 176624, Note_on_c, 1, 81, 0
7, 176624, Note_on_c, 1, 76, 0
7, 176640, Note_on_c, 1, 81, 92
7, 176640, Note_on_c, 1, 74, 92
7, 176729, Note_on_c, 1, 81, 0
7, 176729, Note_on_c, 1, 74, 0
7, 176760, Note_on_c, 1, 74, 92
7, 176760, Note_on_c, 1, 86, 92
7, 176841, Note_on_c, 1, 74, 0
7, 176841, Note_on_c, 1, 86, 0
7, 176850, Note_on_c, 1, 86, 92
7, 176850, Note_on_c, 1, 74, 92
7, 176871, Note_on_c, 1, 86, 0
7, 176871, Note_on_c, 1, 74, 0
7, 176880, Note_on_c, 1, 86, 92
7, 176880, Note_on_c, 1, 74, 92
7, 176999, Note_on_c, 1, 86, 0
7, 176999, Note_on_c, 1, 74, 0
7, 177120, Note_on_c, 1, 86, 92
7, 177120, Note_on_c, 1, 74, 92
7, 177224, Note_on_c, 1, 86, 0
7, 177224, Note_on_c, 1, 74, 0
7, 177240, Note_on_c, 1, 86, 92
7, 177240, Note_on_c, 1, 74, 92
7, 177321, Note_on_c, 1, 86, 0
7, 177321, Note_on_c, 1, 74, 0
7, 177330, Note_on_c, 1, 86, 92
7, 177330, Note_on_c, 1, 74, 92
7, 177351, Note_on_c, 1, 86, 0
7, 177351, Note_on_c, 1, 74, 0
7, 177360, Note_on_c, 1, 86, 92
7, 177360, Note_on_c, 1, 74, 92
7, 177479, Note_on_c, 1, 86, 0
7, 177479, Note_on_c, 1, 74, 0
7, 177600, Note_on_c, 1, 83, 44
7, 177600, Note_on_c, 1, 74, 44
7, 177959, Note_on_c, 1, 83, 0
7, 177960, Note_on_c, 1, 85, 44
7, 178019, Note_on_c, 1, 85, 0
7, 178020, Note_on_c, 1, 86, 44
7, 178064, Note_on_c, 1, 74, 0
7, 178071, Note_on_c, 1, 86, 0
7, 178080, Note_on_c, 1, 74, 44
7, 178080, Note_on_c, 1, 78, 44
7, 178319, Note_on_c, 1, 74, 0
7, 178319, Note_on_c, 1, 78, 0
7, 178320, Note_on_c, 1, 73, 44
7, 178320, Note_on_c, 1, 76, 44
7, 178544, Note_on_c, 1, 73, 0
7, 178544, Note_on_c, 1, 76, 0
7, 178560, Note_on_c, 1, 62, 92
7, 178560, Note_on_c, 1, 74, 92
7, 178664, Note_on_c, 1, 62, 0
7, 178664, Note_on_c, 1, 74, 0
7, 178680, Note_on_c, 1, 73, 92
7, 178680, Note_on_c, 1, 61, 92
7, 178761, Note_on_c, 1, 73, 0
7, 178761, Note_on_c, 1, 61, 0
7, 178770, Note_on_c, 1, 61, 92
7, 178770, Note_on_c, 1, 73, 92
7, 178791, Note_on_c, 1, 61, 0
7, 178791, Note_on_c, 1, 73, 0
7, 178800, Note_on_c, 1, 62, 92
7, 178800, Note_on_c, 1, 74, 92
7, 178919, Note_on_c, 1, 62, 0
7, 178919, Note_on_c, 1, 74, 0
7, 179040, Note_on_c, 1, 63, 92
7, 179040, Note_on_c, 1, 75, 92
7, 179144, Note_on_c, 1, 63, 0
7, 179144, Note_on_c, 1, 75, 0
7, 179160, Note_on_c, 1, 62, 92
7, 179160, Note_on_c, 1, 74, 92
7, 179241, Note_on_c, 1, 62, 0
7, 179241, Note_on_c, 1, 74, 0
7, 179250, Note_on_c, 1, 62, 92
7, 179250, Note_on_c, 1, 74, 92
7, 179271, Note_on_c, 1, 62, 0
7, 179271, Note_on_c, 1, 74, 0
7, 179280, Note_on_c, 1, 63, 92
7, 179280, Note_on_c, 1, 75, 92
7, 179399, Note_on_c, 1, 63, 0
7, 179399, Note_on_c, 1, 75, 0
7, 183600, Note_on_c, 1, 70, 32
7, 183719, Note_on_c, 1, 70, 0
7, 183720, Note_on_c, 1, 69, 32
7, 183839, Note_on_c, 1, 69, 0
7, 184080, Note_on_c, 1, 74, 32
7, 184199, Note_on_c, 1, 74, 0
7, 184200, Note_on_c, 1, 73, 32
7, 184319, Note_on_c, 1, 73, 0
7, 184560, Note_on_c, 1, 77, 32
7, 184679, Note_on_c, 1, 77, 0
7, 184680, Note_on_c, 1, 76, 32
7, 184799, Note_on_c, 1, 76, 0
7, 185040, Note_on_c, 1, 81, 32
7, 185159, Note_on_c, 1, 81, 0
7, 185160, Note_on_c, 1, 79, 32
7, 185279, Note_on_c, 1, 79, 0
7, 185460, Note_on_c, 1, 76, 32
7, 185519, Note_on_c, 1, 76, 0
7, 185520, Note_on_c, 1, 82, 32
7, 185579, Note_on_c, 1, 82, 0
7, 185760, Note_on_c, 1, 82, 32
7, 186059, Note_on_c, 1, 82, 0
7, 186060, Note_on_c, 1, 81, 32
7, 186119, Note_on_c, 1, 81, 0
7, 186120, Note_on_c, 1, 79, 32
7, 186179, Note_on_c, 1, 79, 0
7, 186180, Note_on_c, 1, 76, 32
7, 186239, Note_on_c, 1, 76, 0
7, 186420, Note_on_c, 1, 74, 32
7, 186479, Note_on_c, 1, 74, 0
7, 186480, Note_on_c, 1, 86, 32
7, 186539, Note_on_c, 1, 86, 0
7, 186720, Note_on_c, 1, 83, 32
7, 187019, Note_on_c, 1, 83, 0
7, 187020, Note_on_c, 1, 81, 32
7, 187079, Note_on_c, 1, 81, 0
7, 187080, Note_on_c, 1, 78, 32
7, 187139, Note_on_c, 1, 78, 0
7, 187140, Note_on_c, 1, 74, 32
7, 187199, Note_on_c, 1, 74, 0
7, 187200, Control_c, 1, 11, 47
7, 187260, Control_c, 1, 11, 48
7, 187320, Control_c, 1, 11, 49
7, 187380, Note_on_c, 1, 76, 80
7, 187380, Control_c, 1, 11, 50
7, 187439, Note_on_c, 1, 76, 0
7, 187440, Note_on_c, 1, 82, 80
7, 187440, Control_c, 1, 11, 51
7, 187499, Note_on_c, 1, 82, 0
7, 187500, Control_c, 1, 11, 52
7, 187560, Control_c, 1, 11, 53
7, 187620, Control_c, 1, 11, 54
7, 187680, Note_on_c, 1, 82, 80
7, 187680, Control_c, 1, 11, 55
7, 187740, Control_c, 1, 11, 56
7, 187800, Control_c, 1, 11, 57
7, 187860, Control_c, 1, 11, 58
7, 187920, Control_c, 1, 11, 59
7, 187979, Note_on_c, 1, 82, 0
7, 187980, Control_c, 1, 11, 60
7, 187980, Note_on_c, 1, 81, 80
7, 188039, Note_on_c, 1, 81, 0
7, 188040, Control_c, 1, 11, 61
7, 188040, Note_on_c, 1, 79, 80
7, 188099, Note_on_c, 1, 79, 0
7, 188100, Note_on_c, 1, 76, 80
7, 188100, Control_c, 1, 11, 62
7, 188159, Note_on_c, 1, 76, 0
7, 188160, Control_c, 1, 11, 63
7, 188220, Control_c, 1, 11, 64
7, 188280, Control_c, 1, 11, 65
7, 188340, Control_c, 1, 11, 66
7, 188340, Note_on_c, 1, 74, 80
7, 188399, Note_on_c, 1, 74, 0
7, 188400, Note_on_c, 1, 86, 80
7, 188400, Control_c, 1, 11, 67
7, 188459, Note_on_c, 1, 86, 0
7, 188460, Control_c, 1, 11, 68
7, 188520, Control_c, 1, 11, 69
7, 188580, Control_c, 1, 11, 70
7, 188640, Note_on_c, 1, 83, 80
7, 188640, Control_c, 1, 11, 71
7, 188700, Control_c, 1, 11, 72
7, 188760, Control_c, 1, 11, 73
7, 188820, Control_c, 1, 11, 74
7, 188880, Control_c, 1, 11, 75
7, 188939, Note_on_c, 1, 83, 0
7, 188940, Note_on_c, 1, 81, 80
7, 188940, Control_c, 1, 11, 76
7, 188999, Note_on_c, 1, 81, 0
7, 189000, Control_c, 1, 11, 77
7, 189000, Note_on_c, 1, 78, 80
7, 189059, Note_on_c, 1, 78, 0
7, 189060, Control_c, 1, 11, 78
7, 189060, Note_on_c, 1, 74, 80
7, 189119, Note_on_c, 1, 74, 0
7, 189120, Control_c, 1, 11, 79
7, 189180, Control_c, 1, 11, 80
7, 189180, Note_on_c, 1, 76, 80
7, 189239, Note_on_c, 1, 76, 0
7, 189240, Note_on_c, 1, 82, 80
7, 189240, Control_c, 1, 11, 81
7, 189299, Note_on_c, 1, 82, 0
7, 189300, Control_c, 1, 11, 82
7, 189360, Note_on_c, 1, 82, 80
7, 189360, Control_c, 1, 11, 83
7, 189419, Note_on_c, 1, 82, 0
7, 189420, Note_on_c, 1, 81, 80
7, 189420, Control_c, 1, 11, 84
7, 189479, Note_on_c, 1, 81, 0
7, 189480, Note_on_c, 1, 79, 80
7, 189480, Control_c, 1, 11, 85
7, 189539, Note_on_c, 1, 79, 0
7, 189540, Control_c, 1, 11, 86
7, 189540, Note_on_c, 1, 76, 80
7, 189599, Note_on_c, 1, 76, 0
7, 189600, Control_c, 1, 11, 87
7, 189660, Note_on_c, 1, 74, 80
7, 189660, Control_c, 1, 11, 88
7, 189719, Note_on_c, 1, 74, 0
7, 189720, Control_c, 1, 11, 89
7, 189720, Note_on_c, 1, 86, 80
7, 189779, Note_on_c, 1, 86, 0
7, 189780, Control_c, 1, 11, 90
7, 189840, Note_on_c, 1, 83, 80
7, 189840, Control_c, 1, 11, 91
7, 189899, Note_on_c, 1, 83, 0
7, 189900, Note_on_c, 1, 81, 80
7, 189900, Control_c, 1, 11, 92
7, 189959, Note_on_c, 1, 81, 0
7, 189960, Control_c, 1, 11, 93
7, 189960, Note_on_c, 1, 78, 80
7, 190019, Note_on_c, 1, 78, 0
7, 190020, Note_on_c, 1, 74, 80
7, 190020, Control_c, 1, 11, 94
7, 190079, Note_on_c, 1, 74, 0
7, 190080, Control_c, 1, 11, 95
7, 190140, Control_c, 1, 11, 96
7, 190140, Note_on_c, 1, 76, 80
7, 190199, Note_on_c, 1, 76, 0
7, 190200, Control_c, 1, 11, 97
7, 190200, Note_on_c, 1, 82, 80
7, 190259, Note_on_c, 1, 82, 0
7, 190260, Control_c, 1, 11, 98
7, 190320, Control_c, 1, 11, 99
7, 190320, Note_on_c, 1, 82, 80
7, 190379, Note_on_c, 1, 82, 0
7, 190380, Note_on_c, 1, 81, 80
7, 190380, Control_c, 1, 11, 100
7, 190439, Note_on_c, 1, 81, 0
7, 190440, Control_c, 1, 11, 101
7, 190440, Note_on_c, 1, 79, 80
7, 190499, Note_on_c, 1, 79, 0
7, 190500, Control_c, 1, 11, 102
7, 190500, Note_on_c, 1, 76, 80
7, 190559, Note_on_c, 1, 76, 0
7, 190560, Control_c, 1, 11, 103
7, 190620, Note_on_c, 1, 74, 80
7, 190620, Control_c, 1, 11, 104
7, 190679, Note_on_c, 1, 74, 0
7, 190680, Control_c, 1, 11, 105
7, 190680, Note_on_c, 1, 86, 80
7, 190739, Note_on_c, 1, 86, 0
7, 190740, Control_c, 1, 11, 106
7, 190800, Note_on_c, 1, 82, 80
7, 190800, Control_c, 1, 11, 107
7, 190859, Note_on_c, 1, 82, 0
7, 190860, Note_on_c, 1, 81, 80
7, 190860, Control_c, 1, 11, 108
7, 190919, Note_on_c, 1, 81, 0
7, 190920, Control_c, 1, 11, 109
7, 190920, Note_on_c, 1, 77, 80
7, 190979, Note_on_c, 1, 77, 0
7, 190980, Control_c, 1, 11, 110
7, 190980, Note_on_c, 1, 74, 80
7, 191031, Note_on_c, 1, 74, 0
7, 191040, Control_c, 1, 11, 111
7, 191040, Note_on_c, 1, 70, 80
7, 191040, Note_on_c, 1, 82, 80
7, 191099, Note_on_c, 1, 70, 0
7, 191099, Note_on_c, 1, 82, 0
7, 191100, Note_on_c, 1, 81, 80
7, 191100, Note_on_c, 1, 69, 80
7, 191100, Control_c, 1, 11, 112
7, 191160, Control_c, 1, 11, 113
7, 191211, Note_on_c, 1, 81, 0
7, 191211, Note_on_c, 1, 69, 0
7, 191220, Note_on_c, 1, 69, 80
7, 191220, Note_on_c, 1, 81, 80
7, 191220, Control_c, 1, 11, 114
7, 191280, Control_c, 1, 11, 115
7, 191331, Note_on_c, 1, 69, 0
7, 191331, Note_on_c, 1, 81, 0
7, 191340, Note_on_c, 1, 69, 80
7, 191340, Control_c, 1, 11, 116
7, 191340, Note_on_c, 1, 81, 80
7, 191399, Note_on_c, 1, 69, 0
7, 191399, Note_on_c, 1, 81, 0
7, 191400, Note_on_c, 1, 70, 80
7, 191400, Note_on_c, 1, 82, 80
7, 191400, Control_c, 1, 11, 117
7, 191459, Note_on_c, 1, 70, 0
7, 191459, Note_on_c, 1, 82, 0
7, 191460, Note_on_c, 1, 81, 80
7, 191460, Control_c, 1, 11, 118
7, 191460, Note_on_c, 1, 69, 80
7, 191511, Note_on_c, 1, 81, 0
7, 191511, Note_on_c, 1, 69, 0
7, 191520, Note_on_c, 1, 79, 80
7, 191520, Control_c, 1, 11, 119
7, 191520, Note_on_c, 1, 76, 80
7, 191571, Note_on_c, 1, 79, 0
7, 191571, Note_on_c, 1, 76, 0
7, 191580, Note_on_c, 1, 79, 80
7, 191580, Control_c, 1, 11, 120
7, 191580, Note_on_c, 1, 76, 80
7, 191640, Control_c, 1, 11, 121
7, 191691, Note_on_c, 1, 79, 0
7, 191691, Note_on_c, 1, 76, 0
7, 191700, Note_on_c, 1, 76, 80
7, 191700, Note_on_c, 1, 79, 80
7, 191700, Control_c, 1, 11, 122
7, 191760, Control_c, 1, 11, 123
7, 191811, Note_on_c, 1, 76, 0
7, 191811, Note_on_c, 1, 79, 0
7, 191820, Note_on_c, 1, 79, 80
7, 191820, Note_on_c, 1, 76, 80
7, 191820, Control_c, 1, 11, 124
7, 191880, Control_c, 1, 11, 125
7, 191931, Note_on_c, 1, 79, 0
7, 191931, Note_on_c, 1, 76, 0
7, 191940, Note_on_c, 1, 74, 80
7, 191940, Note_on_c, 1, 77, 80
7, 191940, Control_c, 1, 11, 127
7, 191991, Note_on_c, 1, 74, 0
7, 191991, Note_on_c, 1, 77, 0
7, 192000, Note_on_c, 1, 79, 80
7, 192104, Note_on_c, 1, 79, 0
7, 192120, Note_on_c, 1, 64, 92
7, 192180, Control_c, 1, 11, 107
7, 192344, Note_on_c, 1, 64, 0
7, 192358, Control_c, 1, 11, 127
7, 192360, Note_on_c, 1, 79, 80
7, 192531, Note_on_c, 1, 79, 0
7, 192540, Note_on_c, 1, 81, 80
7, 192584, Note_on_c, 1, 81, 0
7, 192600, Note_on_c, 1, 65, 92
7, 192660, Control_c, 1, 11, 107
7, 192824, Note_on_c, 1, 65, 0
7, 192838, Control_c, 1, 11, 127
7, 192840, Note_on_c, 1, 81, 80
7, 193011, Note_on_c, 1, 81, 0
7, 193020, Note_on_c, 1, 82, 80
7, 193064, Note_on_c, 1, 82, 0
7, 193080, Note_on_c, 1, 67, 92
7, 193140, Control_c, 1, 11, 107
7, 193304, Note_on_c, 1, 67, 0
7, 193318, Control_c, 1, 11, 127
7, 193320, Note_on_c, 1, 82, 80
7, 193491, Note_on_c, 1, 82, 0
7, 193500, Note_on_c, 1, 84, 80
7, 193544, Note_on_c, 1, 84, 0
7, 193560, Note_on_c, 1, 69, 92
7, 193620, Control_c, 1, 11, 107
7, 193784, Note_on_c, 1, 69, 0
7, 193798, Control_c, 1, 11, 127
7, 193800, Note_on_c, 1, 84, 80
7, 193971, Note_on_c, 1, 84, 0
7, 193980, Note_on_c, 1, 86, 80
7, 194024, Note_on_c, 1, 86, 0
7, 194040, Note_on_c, 1, 70, 92
7, 194100, Control_c, 1, 11, 107
7, 194264, Note_on_c, 1, 70, 0
7, 194278, Control_c, 1, 11, 127
7, 194280, Note_on_c, 1, 79, 80
7, 194504, Note_on_c, 1, 79, 0
7, 194520, Note_on_c, 1, 67, 92
7, 194580, Control_c, 1, 11, 107
7, 194744, Note_on_c, 1, 67, 0
7, 194758, Control_c, 1, 11, 127
7, 194760, Note_on_c, 1, 76, 80
7, 194760, Note_on_c, 1, 81, 80
7, 194864, Note_on_c, 1, 81, 0
7, 194879, Note_on_c, 1, 76, 0
7, 194880, Note_on_c, 1, 81, 80
7, 194880, Note_on_c, 1, 77, 80
7, 194931, Note_on_c, 1, 81, 0
7, 194931, Note_on_c, 1, 77, 0
7, 194940, Note_on_c, 1, 77, 45
7, 194940, Note_on_c, 1, 81, 45
7, 195059, Note_on_c, 1, 77, 0
7, 195059, Note_on_c, 1, 81, 0
7, 195060, Note_on_c, 1, 79, 48
7, 195060, Note_on_c, 1, 76, 48
7, 195179, Note_on_c, 1, 79, 0
7, 195179, Note_on_c, 1, 76, 0
7, 195180, Note_on_c, 1, 77, 51
7, 195180, Note_on_c, 1, 74, 51
7, 195239, Note_on_c, 1, 77, 0
7, 195239, Note_on_c, 1, 74, 0
7, 195240, Note_on_c, 1, 77, 53
7, 195240, Note_on_c, 1, 82, 53
7, 195299, Note_on_c, 1, 77, 0
7, 195299, Note_on_c, 1, 82, 0
7, 195300, Note_on_c, 1, 69, 54
7, 195300, Note_on_c, 1, 81, 54
7, 195359, Note_on_c, 1, 69, 0
7, 195359, Note_on_c, 1, 81, 0
7, 195360, Note_on_c, 1, 79, 56
7, 195360, Note_on_c, 1, 70, 56
7, 195419, Note_on_c, 1, 79, 0
7, 195419, Note_on_c, 1, 70, 0
7, 195420, Note_on_c, 1, 72, 55
7, 195420, Note_on_c, 1, 77, 55
7, 195479, Note_on_c, 1, 72, 0
7, 195479, Note_on_c, 1, 77, 0
7, 195480, Note_on_c, 1, 76, 53
7, 195480, Note_on_c, 1, 73, 53
7, 195539, Note_on_c, 1, 76, 0
7, 195539, Note_on_c, 1, 73, 0
7, 195540, Note_on_c, 1, 74, 52
7, 195591, Note_on_c, 1, 74, 0
7, 195600, Note_on_c, 1, 74, 50
7, 195719, Note_on_c, 1, 74, 0
7, 195900, Note_on_c, 1, 79, 44
7, 195951, Note_on_c, 1, 79, 0
7, 195960, Note_on_c, 1, 82, 44
7, 196011, Note_on_c, 1, 82, 0
7, 196020, Note_on_c, 1, 77, 44
7, 196131, Note_on_c, 1, 77, 0
7, 196140, Note_on_c, 1, 76, 44
7, 196199, Note_on_c, 1, 76, 0
7, 196200, Note_on_c, 1, 79, 44
7, 196259, Note_on_c, 1, 79, 0
7, 196260, Note_on_c, 1, 82, 44
7, 196319, Note_on_c, 1, 82, 0
7, 196320, Note_on_c, 1, 81, 44
7, 196379, Note_on_c, 1, 81, 0
7, 196380, Note_on_c, 1, 70, 44
7, 196380, Note_on_c, 1, 79, 44
7, 196439, Note_on_c, 1, 70, 0
7, 196439, Note_on_c, 1, 79, 0
7, 196440, Note_on_c, 1, 72, 44
7, 196440, Note_on_c, 1, 77, 44
7, 196499, Note_on_c, 1, 72, 0
7, 196499, Note_on_c, 1, 77, 0
7, 196500, Note_on_c, 1, 73, 44
7, 196500, Note_on_c, 1, 76, 44
7, 196551, Note_on_c, 1, 73, 0
7, 196551, Note_on_c, 1, 76, 0
7, 196560, Note_on_c, 1, 76, 44
7, 196560, Note_on_c, 1, 73, 44
7, 196679, Note_on_c, 1, 76, 0
7, 196679, Note_on_c, 1, 73, 0
7, 197100, Note_on_c, 1, 72, 44
7, 197159, Note_on_c, 1, 72, 0
7, 197160, Note_on_c, 1, 75, 44
7, 197211, Note_on_c, 1, 75, 0
7, 197220, Note_on_c, 1, 75, 44
7, 197279, Note_on_c, 1, 75, 0
7, 197280, Note_on_c, 1, 74, 44
7, 197339, Note_on_c, 1, 74, 0
7, 197340, Note_on_c, 1, 72, 44
7, 197340, Note_on_c, 1, 69, 44
7, 197399, Note_on_c, 1, 72, 0
7, 197399, Note_on_c, 1, 69, 0
7, 197400, Note_on_c, 1, 70, 44
7, 197459, Note_on_c, 1, 70, 0
7, 197460, Note_on_c, 1, 72, 44
7, 197460, Note_on_c, 1, 81, 44
7, 197519, Note_on_c, 1, 72, 0
7, 197519, Note_on_c, 1, 81, 0
7, 197520, Note_on_c, 1, 74, 44
7, 197520, Note_on_c, 1, 79, 44
7, 197579, Note_on_c, 1, 74, 0
7, 197579, Note_on_c, 1, 79, 0
7, 197580, Note_on_c, 1, 75, 44
7, 197580, Note_on_c, 1, 78, 44
7, 197639, Note_on_c, 1, 75, 0
7, 197639, Note_on_c, 1, 78, 0
7, 197820, Note_on_c, 1, 82, 44
7, 197879, Note_on_c, 1, 82, 0
7, 197880, Note_on_c, 1, 86, 44
7, 197939, Note_on_c, 1, 86, 0
7, 197940, Note_on_c, 1, 81, 44
7, 198059, Note_on_c, 1, 81, 0
7, 198060, Note_on_c, 1, 79, 44
7, 198119, Note_on_c, 1, 79, 0
7, 198120, Note_on_c, 1, 82, 44
7, 198171, Note_on_c, 1, 82, 0
7, 198180, Note_on_c, 1, 74, 44
7, 198239, Note_on_c, 1, 74, 0
7, 198240, Note_on_c, 1, 72, 44
7, 198299, Note_on_c, 1, 72, 0
7, 198300, Note_on_c, 1, 82, 44
7, 198300, Note_on_c, 1, 74, 44
7, 198359, Note_on_c, 1, 82, 0
7, 198359, Note_on_c, 1, 74, 0
7, 198360, Note_on_c, 1, 78, 44
7, 198360, Note_on_c, 1, 81, 44
7, 198419, Note_on_c, 1, 78, 0
7, 198419, Note_on_c, 1, 81, 0
7, 198420, Note_on_c, 1, 79, 44
7, 198479, Note_on_c, 1, 79, 0
7, 198480, Note_on_c, 1, 81, 44
7, 198480, Note_on_c, 1, 78, 44
7, 198539, Note_on_c, 1, 81, 0
7, 198539, Note_on_c, 1, 78, 0
7, 198540, Note_on_c, 1, 79, 44
7, 198591, Note_on_c, 1, 79, 0
7, 198600, Note_on_c, 1, 79, 44
7, 198600, Note_on_c, 1, 74, 44
7, 198704, Note_on_c, 1, 79, 0
7, 198704, Note_on_c, 1, 74, 0
7, 198720, Note_on_c, 1, 81, 80
7, 198720, Note_on_c, 1, 74, 80
7, 198839, Note_on_c, 1, 81, 0
7, 198839, Note_on_c, 1, 74, 0
7, 198840, Note_on_c, 1, 79, 68
7, 198840, Note_on_c, 1, 75, 68
7, 198899, Note_on_c, 1, 79, 0
7, 198899, Note_on_c, 1, 75, 0
7, 198960, Note_on_c, 1, 85, 80
7, 198960, Note_on_c, 1, 79, 80
7, 199079, Note_on_c, 1, 85, 0
7, 199079, Note_on_c, 1, 79, 0
7, 199080, Note_on_c, 1, 86, 68
7, 199080, Note_on_c, 1, 77, 68
7, 199139, Note_on_c, 1, 86, 0
7, 199139, Note_on_c, 1, 77, 0
7, 199200, Note_on_c, 1, 82, 80
7, 199200, Note_on_c, 1, 77, 80
7, 199319, Note_on_c, 1, 82, 0
7, 199319, Note_on_c, 1, 77, 0
7, 199320, Note_on_c, 1, 75, 68
7, 199320, Note_on_c, 1, 82, 68
7, 199379, Note_on_c, 1, 75, 0
7, 199379, Note_on_c, 1, 82, 0
7, 199440, Note_on_c, 1, 74, 92
7, 199459, Note_on_c, 1, 74, 0
7, 199460, Note_on_c, 1, 76, 92
7, 199479, Note_on_c, 1, 76, 0
7, 199480, Note_on_c, 1, 74, 92
7, 199499, Note_on_c, 1, 74, 0
7, 199500, Note_on_c, 1, 76, 92
7, 199512, Note_on_c, 1, 76, 0
7, 199514, Note_on_c, 1, 74, 92
7, 199527, Note_on_c, 1, 74, 0
7, 199527, Note_on_c, 1, 73, 92
7, 199539, Note_on_c, 1, 73, 0
7, 199540, Note_on_c, 1, 74, 92
7, 199559, Note_on_c, 1, 74, 0
7, 199560, Note_on_c, 1, 76, 92
7, 199619, Note_on_c, 1, 76, 0
7, 199620, Note_on_c, 1, 73, 92
7, 199671, Note_on_c, 1, 73, 0
7, 199740, Note_on_c, 1, 74, 92
7, 199799, Note_on_c, 1, 74, 0
7, 199800, Note_on_c, 1, 75, 92
7, 199859, Note_on_c, 1, 75, 0
7, 199860, Note_on_c, 1, 79, 92
7, 199919, Note_on_c, 1, 79, 0
7, 199980, Note_on_c, 1, 73, 92
7, 200039, Note_on_c, 1, 73, 0
7, 200040, Note_on_c, 1, 74, 92
7, 200099, Note_on_c, 1, 74, 0
7, 200100, Note_on_c, 1, 77, 92
7, 200151, Note_on_c, 1, 77, 0
7, 200220, Note_on_c, 1, 70, 92
7, 200279, Note_on_c, 1, 70, 0
7, 200280, Note_on_c, 1, 75, 92
7, 200339, Note_on_c, 1, 75, 0
7, 200340, Note_on_c, 1, 79, 92
7, 200391, Note_on_c, 1, 79, 0
7, 200400, Note_on_c, 1, 70, 92
7, 200459, Note_on_c, 1, 70, 0
7, 200460, Note_on_c, 1, 69, 92
7, 200519, Note_on_c, 1, 69, 0
7, 200520, Note_on_c, 1, 76, 92
7, 200579, Note_on_c, 1, 76, 0
7, 200580, Note_on_c, 1, 73, 92
7, 200631, Note_on_c, 1, 73, 0
7, 200640, Note_on_c, 1, 62, 92
7, 200640, Note_on_c, 1, 74, 92
7, 200984, Note_on_c, 1, 62, 0
7, 200984, Note_on_c, 1, 74, 0
7, 201000, Note_on_c, 1, 62, 92
7, 201000, Note_on_c, 1, 74, 92
7, 201081, Note_on_c, 1, 62, 0
7, 201081, Note_on_c, 1, 74, 0
7, 201090, Note_on_c, 1, 74, 92
7, 201090, Note_on_c, 1, 62, 92
7, 201111, Note_on_c, 1, 74, 0
7, 201111, Note_on_c, 1, 62, 0
7, 201120, Note_on_c, 1, 77, 104
7, 201120, Note_on_c, 1, 65, 104
7, 201180, Control_c, 1, 11, 107
7, 201464, Note_on_c, 1, 77, 0
7, 201464, Note_on_c, 1, 65, 0
7, 201480, Note_on_c, 1, 77, 104
7, 201480, Note_on_c, 1, 65, 104
7, 201561, Note_on_c, 1, 77, 0
7, 201561, Note_on_c, 1, 65, 0
7, 201570, Note_on_c, 1, 65, 104
7, 201570, Note_on_c, 1, 77, 104
7, 201591, Note_on_c, 1, 65, 0
7, 201591, Note_on_c, 1, 77, 0
7, 201598, Control_c, 1, 11, 127
7, 201600, Note_on_c, 1, 69, 104
7, 201600, Note_on_c, 1, 81, 104
7, 201660, Control_c, 1, 11, 107
7, 201944, Note_on_c, 1, 69, 0
7, 201944, Note_on_c, 1, 81, 0
7, 201960, Note_on_c, 1, 81, 104
7, 201960, Note_on_c, 1, 69, 104
7, 202041, Note_on_c, 1, 81, 0
7, 202041, Note_on_c, 1, 69, 0
7, 202050, Note_on_c, 1, 81, 104
7, 202050, Note_on_c, 1, 69, 104
7, 202071, Note_on_c, 1, 81, 0
7, 202071, Note_on_c, 1, 69, 0
7, 202078, Control_c, 1, 11, 127
7, 202080, Note_on_c, 1, 86, 92
7, 202080, Note_on_c, 1, 74, 92
7, 202184, Note_on_c, 1, 86, 0
7, 202184, Note_on_c, 1, 74, 0
7, 202200, Note_on_c, 1, 86, 92
7, 202200, Note_on_c, 1, 74, 92
7, 202281, Note_on_c, 1, 86, 0
7, 202281, Note_on_c, 1, 74, 0
7, 202290, Note_on_c, 1, 74, 92
7, 202290, Note_on_c, 1, 86, 92
7, 202311, Note_on_c, 1, 74, 0
7, 202311, Note_on_c, 1, 86, 0
7, 202320, Note_on_c, 1, 77, 92
7, 202424, Note_on_c, 1, 77, 0
7, 202440, Note_on_c, 1, 77, 92
7, 202521, Note_on_c, 1, 77, 0
7, 202530, Note_on_c, 1, 77, 92
7, 202551, Note_on_c, 1, 77, 0
7, 202560, Note_on_c, 1, 81, 80
7, 202649, Note_on_c, 1, 81, 0
7, 202680, Note_on_c, 1, 74, 80
7, 202761, Note_on_c, 1, 74, 0
7, 202770, Note_on_c, 1, 74, 80
7, 202791, Note_on_c, 1, 74, 0
7, 202800, Note_on_c, 1, 77, 80
7, 202889, Note_on_c, 1, 77, 0
7, 202920, Note_on_c, 1, 69, 80
7, 203001, Note_on_c, 1, 69, 0
7, 203010, Note_on_c, 1, 69, 80
7, 203031, Note_on_c, 1, 69, 0
7, 203040, Note_on_c, 1, 74, 80
7, 203129, Note_on_c, 1, 74, 0
7, 203160, Note_on_c, 1, 77, 80
7, 203241, Note_on_c, 1, 77, 0
7, 203250, Note_on_c, 1, 77, 80
7, 203271, Note_on_c, 1, 77, 0
7, 203280, Note_on_c, 1, 81, 80
7, 203369, Note_on_c, 1, 81, 0
7, 203400, Note_on_c, 1, 74, 80
7, 203481, Note_on_c, 1, 74, 0
7, 203490, Note_on_c, 1, 74, 80
7, 203511, Note_on_c, 1, 74, 0
7, 203520, Note_on_c, 1, 77, 80
7, 203609, Note_on_c, 1, 77, 0
7, 203640, Note_on_c, 1, 69, 80
7, 203721, Note_on_c, 1, 69, 0
7, 203730, Note_on_c, 1, 69, 80
7, 203751, Note_on_c, 1, 69, 0
7, 203760, Note_on_c, 1, 74, 80
7, 203849, Note_on_c, 1, 74, 0
7, 203880, Note_on_c, 1, 65, 80
7, 203961, Note_on_c, 1, 65, 0
7, 203970, Note_on_c, 1, 65, 80
7, 203991, Note_on_c, 1, 65, 0
7, 204000, Note_on_c, 1, 69, 80
7, 204089, Note_on_c, 1, 69, 0
7, 204120, Note_on_c, 1, 62, 80
7, 204201, Note_on_c, 1, 62, 0
7, 204210, Note_on_c, 1, 62, 80
7, 204231, Note_on_c, 1, 62, 0
7, 204240, Note_on_c, 1, 86, 80
7, 204329, Note_on_c, 1, 86, 0
7, 204360, Note_on_c, 1, 62, 62
7, 204441, Note_on_c, 1, 62, 0
7, 204450, Note_on_c, 1, 81, 49
7, 204450, Note_on_c, 1, 77, 49
7, 204471, Note_on_c, 1, 81, 0
7, 204471, Note_on_c, 1, 77, 0
7, 204480, Note_on_c, 1, 81, 44
7, 204480, Note_on_c, 1, 77, 44
7, 206159, Note_on_c, 1, 81, 0
7, 206159, Note_on_c, 1, 77, 0
7, 206160, Note_on_c, 1, 76, 44
7, 206160, Note_on_c, 1, 79, 44
7, 208075, Note_on_c, 1, 76, 0
7, 208075, Note_on_c, 1, 79, 0
7, 208078, Control_c, 1, 11, 47
7, 208080, Note_on_c, 1, 72, 92
7, 208080, Note_on_c, 1, 81, 92
7, 209399, Note_on_c, 1, 81, 0
7, 209400, Note_on_c, 1, 78, 92
7, 209999, Note_on_c, 1, 78, 0
7, 210000, Note_on_c, 1, 81, 92
7, 210240, Control_c, 1, 11, 47
7, 210324, Control_c, 1, 11, 48
7, 210408, Control_c, 1, 11, 49
7, 210492, Control_c, 1, 11, 50
7, 210576, Control_c, 1, 11, 51
7, 210660, Control_c, 1, 11, 52
7, 210744, Control_c, 1, 11, 53
7, 210828, Control_c, 1, 11, 54
7, 210912, Control_c, 1, 11, 55
7, 210959, Note_on_c, 1, 81, 0
7, 210960, Note_on_c, 1, 74, 92
7, 210996, Control_c, 1, 11, 56
7, 211064, Note_on_c, 1, 72, 0
7, 211080, Control_c, 1, 11, 57
7, 211080, Note_on_c, 1, 71, 92
7, 211164, Control_c, 1, 11, 58
7, 211184, Note_on_c, 1, 74, 0
7, 211200, Note_on_c, 1, 79, 92
7, 211248, Control_c, 1, 11, 59
7, 211319, Note_on_c, 1, 71, 0
7, 211320, Note_on_c, 1, 77, 92
7, 211332, Control_c, 1, 11, 60
7, 211416, Control_c, 1, 11, 61
7, 211500, Control_c, 1, 11, 62
7, 211584, Control_c, 1, 11, 63
7, 211668, Control_c, 1, 11, 64
7, 211752, Control_c, 1, 11, 65
7, 211836, Control_c, 1, 11, 66
7, 211920, Control_c, 1, 11, 67
7, 212004, Control_c, 1, 11, 68
7, 212024, Note_on_c, 1, 77, 0
7, 212040, Note_on_c, 1, 76, 92
7, 212088, Control_c, 1, 11, 69
7, 212172, Control_c, 1, 11, 70
7, 212256, Control_c, 1, 11, 71
7, 212340, Control_c, 1, 11, 72
7, 212424, Control_c, 1, 11, 73
7, 212508, Control_c, 1, 11, 74
7, 212592, Control_c, 1, 11, 75
7, 212676, Control_c, 1, 11, 76
7, 212760, Control_c, 1, 11, 77
7, 212844, Control_c, 1, 11, 78
7, 212928, Control_c, 1, 11, 79
7, 213012, Control_c, 1, 11, 80
7, 213096, Control_c, 1, 11, 81
7, 213180, Control_c, 1, 11, 82
7, 213264, Control_c, 1, 11, 83
7, 213348, Control_c, 1, 11, 84
7, 213432, Control_c, 1, 11, 85
7, 213516, Control_c, 1, 11, 86
7, 213599, Note_on_c, 1, 79, 0
7, 213600, Control_c, 1, 11, 87
7, 213600, Note_on_c, 1, 79, 92
7, 213684, Control_c, 1, 11, 88
7, 213768, Control_c, 1, 11, 89
7, 213839, Note_on_c, 1, 76, 0
7, 213840, Note_on_c, 1, 73, 92
7, 213852, Control_c, 1, 11, 90
7, 213936, Control_c, 1, 11, 91
7, 214020, Control_c, 1, 11, 92
7, 214104, Control_c, 1, 11, 93
7, 214188, Control_c, 1, 11, 94
7, 214272, Control_c, 1, 11, 95
7, 214319, Note_on_c, 1, 79, 0
7, 214320, Note_on_c, 1, 76, 92
7, 214356, Control_c, 1, 11, 96
7, 214440, Control_c, 1, 11, 97
7, 214524, Control_c, 1, 11, 98
7, 214608, Control_c, 1, 11, 99
7, 214692, Control_c, 1, 11, 100
7, 214776, Control_c, 1, 11, 101
7, 214860, Control_c, 1, 11, 102
7, 214944, Control_c, 1, 11, 103
7, 215028, Control_c, 1, 11, 104
7, 215112, Control_c, 1, 11, 105
7, 215196, Control_c, 1, 11, 106
7, 215280, Control_c, 1, 11, 107
7, 215364, Control_c, 1, 11, 108
7, 215448, Control_c, 1, 11, 109
7, 215532, Control_c, 1, 11, 110
7, 215616, Control_c, 1, 11, 111
7, 215700, Control_c, 1, 11, 112
7, 215784, Control_c, 1, 11, 113
7, 215868, Control_c, 1, 11, 114
7, 215952, Control_c, 1, 11, 115
7, 215999, Note_on_c, 1, 73, 0
7, 215999, Note_on_c, 1, 76, 0
7, 216000, Note_on_c, 1, 76, 92
7, 216000, Note_on_c, 1, 73, 92
7, 216036, Control_c, 1, 11, 116
7, 216120, Control_c, 1, 11, 117
7, 216204, Control_c, 1, 11, 118
7, 216288, Control_c, 1, 11, 119
7, 216372, Control_c, 1, 11, 120
7, 216456, Control_c, 1, 11, 121
7, 216540, Control_c, 1, 11, 122
7, 216624, Control_c, 1, 11, 123
7, 216708, Control_c, 1, 11, 124
7, 216792, Control_c, 1, 11, 125
7, 216876, Control_c, 1, 11, 127
7, 216944, Note_on_c, 1, 76, 0
7, 216944, Note_on_c, 1, 73, 0
7, 216960, Note_on_c, 1, 69, 92
7, 216960, Note_on_c, 1, 81, 92
7, 217319, Note_on_c, 1, 69, 0
7, 217319, Note_on_c, 1, 81, 0
7, 217320, Note_on_c, 1, 68, 92
7, 217320, Note_on_c, 1, 80, 92
7, 217439, Note_on_c, 1, 68, 0
7, 217439, Note_on_c, 1, 80, 0
7, 217440, Note_on_c, 1, 79, 92
7, 217440, Note_on_c, 1, 67, 92
7, 217491, Note_on_c, 1, 79, 0
7, 217491, Note_on_c, 1, 67, 0
7, 217500, Note_on_c, 1, 81, 92
7, 217500, Note_on_c, 1, 69, 92
7, 217611, Note_on_c, 1, 81, 0
7, 217611, Note_on_c, 1, 69, 0
7, 217620, Note_on_c, 1, 81, 92
7, 217620, Note_on_c, 1, 69, 92
7, 217731, Note_on_c, 1, 81, 0
7, 217731, Note_on_c, 1, 69, 0
7, 217740, Note_on_c, 1, 81, 92
7, 217740, Note_on_c, 1, 69, 92
7, 217851, Note_on_c, 1, 81, 0
7, 217851, Note_on_c, 1, 69, 0
7, 217860, Note_on_c, 1, 81, 92
7, 217860, Note_on_c, 1, 69, 92
7, 217919, Note_on_c, 1, 81, 0
7, 217919, Note_on_c, 1, 69, 0
7, 217920, Note_on_c, 1, 74, 92
7, 217920, Note_on_c, 1, 86, 92
7, 217971, Note_on_c, 1, 74, 0
7, 217971, Note_on_c, 1, 86, 0
7, 217980, Note_on_c, 1, 74, 92
7, 217980, Note_on_c, 1, 86, 92
7, 218091, Note_on_c, 1, 74, 0
7, 218091, Note_on_c, 1, 86, 0
7, 218100, Note_on_c, 1, 74, 92
7, 218100, Note_on_c, 1, 86, 92
7, 218211, Note_on_c, 1, 74, 0
7, 218211, Note_on_c, 1, 86, 0
7, 218220, Note_on_c, 1, 86, 92
7, 218220, Note_on_c, 1, 74, 92
7, 218331, Note_on_c, 1, 86, 0
7, 218331, Note_on_c, 1, 74, 0
7, 218340, Note_on_c, 1, 74, 92
7, 218340, Note_on_c, 1, 86, 92
7, 218391, Note_on_c, 1, 74, 0
7, 218399, Note_on_c, 1, 86, 0
7, 218400, Note_on_c, 1, 74, 92
7, 218400, Note_on_c, 1, 82, 92
7, 218504, Note_on_c, 1, 74, 0
7, 218504, Note_on_c, 1, 82, 0
7, 218520, Note_on_c, 1, 82, 92
7, 218520, Note_on_c, 1, 74, 92
7, 218639, Note_on_c, 1, 82, 0
7, 218639, Note_on_c, 1, 74, 0
7, 218760, Note_on_c, 1, 76, 92
7, 218760, Note_on_c, 1, 73, 92
7, 218879, Note_on_c, 1, 76, 0
7, 218879, Note_on_c, 1, 73, 0
7, 218880, Control_c, 1, 11, 67
7, 218928, Control_c, 1, 11, 68
7, 218940, Note_on_c, 1, 69, 80
7, 218976, Control_c, 1, 11, 69
7, 218999, Note_on_c, 1, 69, 0
7, 219000, Note_on_c, 1, 70, 80
7, 219024, Control_c, 1, 11, 70
7, 219059, Note_on_c, 1, 70, 0
7, 219060, Note_on_c, 1, 69, 80
7, 219072, Control_c, 1, 11, 71
7, 219119, Note_on_c, 1, 69, 0
7, 219120, Control_c, 1, 11, 72
7, 219120, Note_on_c, 1, 70, 80
7, 219168, Control_c, 1, 11, 73
7, 219171, Note_on_c, 1, 70, 0
7, 219180, Note_on_c, 1, 71, 80
7, 219216, Control_c, 1, 11, 74
7, 219239, Note_on_c, 1, 71, 0
7, 219240, Note_on_c, 1, 73, 80
7, 219264, Control_c, 1, 11, 75
7, 219291, Note_on_c, 1, 73, 0
7, 219300, Note_on_c, 1, 74, 80
7, 219312, Control_c, 1, 11, 76
7, 219359, Note_on_c, 1, 74, 0
7, 219360, Control_c, 1, 11, 77
7, 219360, Note_on_c, 1, 76, 80
7, 219408, Control_c, 1, 11, 78
7, 219411, Note_on_c, 1, 76, 0
7, 219420, Note_on_c, 1, 77, 80
7, 219456, Control_c, 1, 11, 79
7, 219479, Note_on_c, 1, 77, 0
7, 219480, Note_on_c, 1, 79, 80
7, 219504, Control_c, 1, 11, 80
7, 219531, Note_on_c, 1, 79, 0
7, 219540, Note_on_c, 1, 81, 80
7, 219552, Control_c, 1, 11, 81
7, 219599, Note_on_c, 1, 81, 0
7, 219600, Note_on_c, 1, 82, 80
7, 219600, Control_c, 1, 11, 82
7, 219648, Control_c, 1, 11, 83
7, 219651, Note_on_c, 1, 82, 0
7, 219660, Note_on_c, 1, 73, 80
7, 219696, Control_c, 1, 11, 84
7, 219719, Note_on_c, 1, 73, 0
7, 219720, Note_on_c, 1, 74, 80
7, 219744, Control_c, 1, 11, 85
7, 219771, Note_on_c, 1, 74, 0
7, 219780, Note_on_c, 1, 76, 80
7, 219792, Control_c, 1, 11, 86
7, 219839, Note_on_c, 1, 76, 0
7, 219840, Note_on_c, 1, 77, 80
7, 219840, Control_c, 1, 11, 87
7, 219840, Note_on_c, 1, 65, 80
7, 219888, Control_c, 1, 11, 88
7, 219936, Control_c, 1, 11, 89
7, 219984, Control_c, 1, 11, 90
7, 220032, Control_c, 1, 11, 91
7, 220080, Control_c, 1, 11, 92
7, 220128, Control_c, 1, 11, 93
7, 220176, Control_c, 1, 11, 94
7, 220224, Control_c, 1, 11, 95
7, 220272, Control_c, 1, 11, 96
7, 220320, Control_c, 1, 11, 97
7, 220368, Control_c, 1, 11, 98
7, 220371, Note_on_c, 1, 77, 0
7, 220371, Note_on_c, 1, 65, 0
7, 220380, Note_on_c, 1, 65, 80
7, 220380, Note_on_c, 1, 77, 80
7, 220416, Control_c, 1, 11, 99
7, 220464, Control_c, 1, 11, 100
7, 220491, Note_on_c, 1, 65, 0
7, 220491, Note_on_c, 1, 77, 0
7, 220500, Note_on_c, 1, 77, 80
7, 220500, Note_on_c, 1, 65, 80
7, 220512, Control_c, 1, 11, 101
7, 220560, Control_c, 1, 11, 102
7, 220608, Control_c, 1, 11, 103
7, 220611, Note_on_c, 1, 77, 0
7, 220611, Note_on_c, 1, 65, 0
7, 220620, Note_on_c, 1, 65, 80
7, 220620, Note_on_c, 1, 77, 80
7, 220656, Control_c, 1, 11, 104
7, 220679, Note_on_c, 1, 65, 0
7, 220679, Note_on_c, 1, 77, 0
7, 220680, Note_on_c, 1, 79, 80
7, 220680, Note_on_c, 1, 67, 80
7, 220704, Control_c, 1, 11, 105
7, 220731, Note_on_c, 1, 79, 0
7, 220731, Note_on_c, 1, 67, 0
7, 220740, Note_on_c, 1, 69, 80
7, 220740, Note_on_c, 1, 81, 80
7, 220752, Control_c, 1, 11, 106
7, 220799, Note_on_c, 1, 69, 0
7, 220799, Note_on_c, 1, 81, 0
7, 220800, Note_on_c, 1, 70, 80
7, 220800, Note_on_c, 1, 82, 80
7, 220800, Control_c, 1, 11, 107
7, 220848, Control_c, 1, 11, 108
7, 220851, Note_on_c, 1, 70, 0
7, 220851, Note_on_c, 1, 82, 0
7, 220860, Note_on_c, 1, 66, 80
7, 220896, Control_c, 1, 11, 109
7, 220919, Note_on_c, 1, 66, 0
7, 220920, Note_on_c, 1, 67, 80
7, 220944, Control_c, 1, 11, 110
7, 220971, Note_on_c, 1, 67, 0
7, 220980, Note_on_c, 1, 69, 80
7, 220992, Control_c, 1, 11, 111
7, 221039, Note_on_c, 1, 69, 0
7, 221040, Note_on_c, 1, 70, 80
7, 221040, Control_c, 1, 11, 112
7, 221088, Control_c, 1, 11, 113
7, 221091, Note_on_c, 1, 70, 0
7, 221100, Note_on_c, 1, 60, 80
7, 221100, Note_on_c, 1, 72, 80
7, 221136, Control_c, 1, 11, 114
7, 221159, Note_on_c, 1, 60, 0
7, 221159, Note_on_c, 1, 72, 0
7, 221160, Note_on_c, 1, 74, 80
7, 221160, Note_on_c, 1, 62, 80
7, 221184, Control_c, 1, 11, 115
7, 221211, Note_on_c, 1, 74, 0
7, 221211, Note_on_c, 1, 62, 0
7, 221220, Note_on_c, 1, 64, 80
7, 221220, Note_on_c, 1, 76, 80
7, 221232, Control_c, 1, 11, 116
7, 221279, Note_on_c, 1, 64, 0
7, 221279, Note_on_c, 1, 76, 0
7, 221280, Control_c, 1, 11, 117
7, 221280, Note_on_c, 1, 78, 80
7, 221280, Note_on_c, 1, 66, 80
7, 221328, Control_c, 1, 11, 118
7, 221331, Note_on_c, 1, 78, 0
7, 221331, Note_on_c, 1, 66, 0
7, 221340, Note_on_c, 1, 67, 80
7, 221340, Note_on_c, 1, 79, 80
7, 221376, Control_c, 1, 11, 119
7, 221399, Note_on_c, 1, 67, 0
7, 221399, Note_on_c, 1, 79, 0
7, 221400, Note_on_c, 1, 69, 80
7, 221400, Note_on_c, 1, 81, 80
7, 221424, Control_c, 1, 11, 120
7, 221451, Note_on_c, 1, 69, 0
7, 221451, Note_on_c, 1, 81, 0
7, 221460, Note_on_c, 1, 70, 80
7, 221460, Note_on_c, 1, 82, 80
7, 221472, Control_c, 1, 11, 121
7, 221519, Note_on_c, 1, 70, 0
7, 221519, Note_on_c, 1, 82, 0
7, 221520, Note_on_c, 1, 84, 80
7, 221520, Note_on_c, 1, 72, 80
7, 221520, Control_c, 1, 11, 122
7, 221568, Control_c, 1, 11, 123
7, 221571, Note_on_c, 1, 84, 0
7, 221571, Note_on_c, 1, 72, 0
7, 221580, Note_on_c, 1, 86, 80
7, 221580, Note_on_c, 1, 74, 80
7, 221616, Control_c, 1, 11, 124
7, 221664, Control_c, 1, 11, 125
7, 221691, Note_on_c, 1, 86, 0
7, 221691, Note_on_c, 1, 74, 0
7, 221700, Note_on_c, 1, 74, 80
7, 221700, Note_on_c, 1, 86, 80
7, 221712, Control_c, 1, 11, 127
7, 221864, Note_on_c, 1, 74, 0
7, 221864, Note_on_c, 1, 86, 0
7, 221880, Note_on_c, 1, 70, 80
7, 221880, Note_on_c, 1, 82, 80
7, 221961, Note_on_c, 1, 70, 0
7, 221961, Note_on_c, 1, 82, 0
7, 221970, Note_on_c, 1, 82, 80
7, 221970, Note_on_c, 1, 70, 80
7, 221991, Note_on_c, 1, 82, 0
7, 221991, Note_on_c, 1, 70, 0
7, 222000, Note_on_c, 1, 70, 80
7, 222000, Note_on_c, 1, 82, 80
7, 222119, Note_on_c, 1, 70, 0
7, 222119, Note_on_c, 1, 82, 0
7, 222360, Note_on_c, 1, 70, 80
7, 222360, Note_on_c, 1, 82, 80
7, 222441, Note_on_c, 1, 70, 0
7, 222441, Note_on_c, 1, 82, 0
7, 222450, Note_on_c, 1, 82, 80
7, 222450, Note_on_c, 1, 70, 80
7, 222471, Note_on_c, 1, 82, 0
7, 222471, Note_on_c, 1, 70, 0
7, 222480, Note_on_c, 1, 70, 80
7, 222480, Note_on_c, 1, 82, 80
7, 222599, Note_on_c, 1, 70, 0
7, 222599, Note_on_c, 1, 82, 0
7, 222840, Note_on_c, 1, 73, 80
7, 222921, Note_on_c, 1, 73, 0
7, 222930, Note_on_c, 1, 73, 80
7, 222951, Note_on_c, 1, 73, 0
7, 222960, Note_on_c, 1, 73, 80
7, 223079, Note_on_c, 1, 73, 0
7, 223320, Note_on_c, 1, 77, 80
7, 223320, Note_on_c, 1, 73, 80
7, 223401, Note_on_c, 1, 77, 0
7, 223401, Note_on_c, 1, 73, 0
7, 223410, Note_on_c, 1, 77, 80
7, 223410, Note_on_c, 1, 73, 80
7, 223431, Note_on_c, 1, 77, 0
7, 223431, Note_on_c, 1, 73, 0
7, 223440, Note_on_c, 1, 73, 80
7, 223440, Note_on_c, 1, 77, 80
7, 223559, Note_on_c, 1, 73, 0
7, 223559, Note_on_c, 1, 77, 0
7, 223800, Note_on_c, 1, 74, 80
7, 223881, Note_on_c, 1, 74, 0
7, 223890, Note_on_c, 1, 74, 80
7, 223911, Note_on_c, 1, 74, 0
7, 223920, Note_on_c, 1, 74, 80
7, 224024, Note_on_c, 1, 74, 0
7, 224040, Note_on_c, 1, 74, 80
7, 224040, Note_on_c, 1, 79, 80
7, 224121, Note_on_c, 1, 74, 0
7, 224121, Note_on_c, 1, 79, 0
7, 224130, Note_on_c, 1, 74, 80
7, 224130, Note_on_c, 1, 79, 80
7, 224151, Note_on_c, 1, 74, 0
7, 224151, Note_on_c, 1, 79, 0
7, 224160, Note_on_c, 1, 74, 80
7, 224160, Note_on_c, 1, 79, 80
7, 224264, Note_on_c, 1, 74, 0
7, 224264, Note_on_c, 1, 79, 0
7, 224280, Note_on_c, 1, 76, 80
7, 224361, Note_on_c, 1, 76, 0
7, 224370, Note_on_c, 1, 76, 80
7, 224391, Note_on_c, 1, 76, 0
7, 224400, Note_on_c, 1, 76, 80
7, 224504, Note_on_c, 1, 76, 0
7, 224520, Note_on_c, 1, 69, 80
7, 224520, Note_on_c, 1, 81, 80
7, 224601, Note_on_c, 1, 69, 0
7, 224601, Note_on_c, 1, 81, 0
7, 224610, Note_on_c, 1, 69, 80
7, 224610, Note_on_c, 1, 81, 80
7, 224631, Note_on_c, 1, 69, 0
7, 224631, Note_on_c, 1, 81, 0
7, 224640, Note_on_c, 1, 81, 44
7, 224640, Note_on_c, 1, 69, 44
7, 224759, Note_on_c, 1, 81, 0
7, 224759, Note_on_c, 1, 69, 0
7, 225120, Note_on_c, 1, 73, 44
7, 225419, Note_on_c, 1, 73, 0
7, 225420, Note_on_c, 1, 76, 44
7, 225471, Note_on_c, 1, 76, 0
7, 225480, Note_on_c, 1, 74, 44
7, 225524, Note_on_c, 1, 74, 0
7, 225540, Note_on_c, 1, 73, 44
7, 225584, Note_on_c, 1, 73, 0
7, 225600, Note_on_c, 1, 74, 44
7, 225899, Note_on_c, 1, 74, 0
7, 225900, Note_on_c, 1, 78, 44
7, 225951, Note_on_c, 1, 78, 0
7, 225960, Note_on_c, 1, 76, 44
7, 226004, Note_on_c, 1, 76, 0
7, 226020, Note_on_c, 1, 74, 44
7, 226064, Note_on_c, 1, 74, 0
7, 226080, Note_on_c, 1, 76, 44
7, 226379, Note_on_c, 1, 76, 0
7, 226380, Note_on_c, 1, 79, 44
7, 226431, Note_on_c, 1, 79, 0
7, 226440, Note_on_c, 1, 78, 44
7, 226484, Note_on_c, 1, 78, 0
7, 226500, Note_on_c, 1, 76, 44
7, 226544, Note_on_c, 1, 76, 0
7, 226560, Note_on_c, 1, 78, 44
7, 226859, Note_on_c, 1, 78, 0
7, 226860, Note_on_c, 1, 81, 44
7, 226911, Note_on_c, 1, 81, 0
7, 226920, Note_on_c, 1, 79, 44
7, 226964, Note_on_c, 1, 79, 0
7, 226980, Note_on_c, 1, 78, 44
7, 227024, Note_on_c, 1, 78, 0
7, 227040, Note_on_c, 1, 76, 44
7, 227339, Note_on_c, 1, 76, 0
7, 227340, Note_on_c, 1, 79, 44
7, 227391, Note_on_c, 1, 79, 0
7, 227400, Note_on_c, 1, 78, 44
7, 227444, Note_on_c, 1, 78, 0
7, 227460, Note_on_c, 1, 76, 44
7, 227504, Note_on_c, 1, 76, 0
7, 227520, Note_on_c, 1, 78, 44
7, 227819, Note_on_c, 1, 78, 0
7, 227820, Note_on_c, 1, 81, 44
7, 227871, Note_on_c, 1, 81, 0
7, 227880, Note_on_c, 1, 79, 44
7, 227924, Note_on_c, 1, 79, 0
7, 227940, Note_on_c, 1, 78, 44
7, 227984, Note_on_c, 1, 78, 0
7, 228000, Note_on_c, 1, 73, 44
7, 228299, Note_on_c, 1, 73, 0
7, 228300, Note_on_c, 1, 76, 44
7, 228351, Note_on_c, 1, 76, 0
7, 228360, Note_on_c, 1, 74, 44
7, 228404, Note_on_c, 1, 74, 0
7, 228420, Note_on_c, 1, 73, 44
7, 228464, Note_on_c, 1, 73, 0
7, 228480, Note_on_c, 1, 74, 44
7, 228599, Note_on_c, 1, 74, 0
7, 229500, Note_on_c, 1, 81, 44
7, 229544, Note_on_c, 1, 81, 0
7, 229560, Note_on_c, 1, 79, 44
7, 229604, Note_on_c, 1, 79, 0
7, 229620, Note_on_c, 1, 77, 44
7, 229664, Note_on_c, 1, 77, 0
7, 229680, Note_on_c, 1, 76, 44
7, 229724, Note_on_c, 1, 76, 0
7, 229740, Note_on_c, 1, 74, 44
7, 229784, Note_on_c, 1, 74, 0
7, 229800, Note_on_c, 1, 73, 44
7, 229844, Note_on_c, 1, 73, 0
7, 229860, Note_on_c, 1, 74, 44
7, 229904, Note_on_c, 1, 74, 0
7, 229920, Note_on_c, 1, 77, 44
7, 229979, Note_on_c, 1, 77, 0
7, 229980, Note_on_c, 1, 76, 44
7, 230031, Note_on_c, 1, 76, 0
7, 230040, Note_on_c, 1, 76, 44
7, 230084, Note_on_c, 1, 76, 0
7, 230100, Note_on_c, 1, 79, 44
7, 230144, Note_on_c, 1, 79, 0
7, 230160, Note_on_c, 1, 76, 44
7, 230204, Note_on_c, 1, 76, 0
7, 230220, Note_on_c, 1, 79, 44
7, 230264, Note_on_c, 1, 79, 0
7, 230280, Note_on_c, 1, 77, 44
7, 230324, Note_on_c, 1, 77, 0
7, 230340, Note_on_c, 1, 76, 44
7, 230384, Note_on_c, 1, 76, 0
7, 230400, Note_on_c, 1, 77, 44
7, 230519, Note_on_c, 1, 77, 0
7, 231360, Note_on_c, 1, 76, 51
7, 231419, Note_on_c, 1, 76, 0
7, 231420, Note_on_c, 1, 74, 52
7, 231471, Note_on_c, 1, 74, 0
7, 231480, Note_on_c, 1, 74, 52
7, 231524, Note_on_c, 1, 74, 0
7, 231540, Note_on_c, 1, 77, 53
7, 231584, Note_on_c, 1, 77, 0
7, 231600, Note_on_c, 1, 74, 53
7, 231644, Note_on_c, 1, 74, 0
7, 231660, Note_on_c, 1, 77, 53
7, 231704, Note_on_c, 1, 77, 0
7, 231720, Note_on_c, 1, 76, 54
7, 231764, Note_on_c, 1, 76, 0
7, 231780, Note_on_c, 1, 74, 54
7, 231824, Note_on_c, 1, 74, 0
7, 232800, Note_on_c, 1, 79, 62
7, 232859, Note_on_c, 1, 79, 0
7, 232860, Note_on_c, 1, 77, 63
7, 232911, Note_on_c, 1, 77, 0
7, 232920, Note_on_c, 1, 77, 63
7, 232964, Note_on_c, 1, 77, 0
7, 232980, Note_on_c, 1, 81, 64
7, 233024, Note_on_c, 1, 81, 0
7, 233040, Note_on_c, 1, 69, 64
7, 233084, Note_on_c, 1, 69, 0
7, 233100, Note_on_c, 1, 81, 65
7, 233144, Note_on_c, 1, 81, 0
7, 233160, Note_on_c, 1, 79, 65
7, 233204, Note_on_c, 1, 79, 0
7, 233220, Note_on_c, 1, 77, 66
7, 233264, Note_on_c, 1, 77, 0
7, 234720, Note_on_c, 1, 76, 78
7, 234779, Note_on_c, 1, 76, 0
7, 234780, Note_on_c, 1, 74, 78
7, 234831, Note_on_c, 1, 74, 0
7, 234840, Note_on_c, 1, 74, 79
7, 234884, Note_on_c, 1, 74, 0
7, 234900, Note_on_c, 1, 77, 79
7, 234944, Note_on_c, 1, 77, 0
7, 234960, Note_on_c, 1, 74, 80
7, 235004, Note_on_c, 1, 74, 0
7, 235020, Note_on_c, 1, 77, 80
7, 235064, Note_on_c, 1, 77, 0
7, 235080, Note_on_c, 1, 75, 80
7, 235124, Note_on_c, 1, 75, 0
7, 235140, Note_on_c, 1, 74, 78
7, 235184, Note_on_c, 1, 74, 0
7, 236400, Control_c, 1, 11, 47
7, 236640, Note_on_c, 1, 76, 80
7, 236699, Note_on_c, 1, 76, 0
7, 236700, Note_on_c, 1, 74, 80
7, 236751, Note_on_c, 1, 74, 0
7, 236760, Note_on_c, 1, 74, 80
7, 236804, Note_on_c, 1, 74, 0
7, 236820, Note_on_c, 1, 77, 80
7, 236864, Note_on_c, 1, 77, 0
7, 236880, Note_on_c, 1, 74, 80
7, 236924, Note_on_c, 1, 74, 0
7, 236940, Note_on_c, 1, 77, 80
7, 236984, Note_on_c, 1, 77, 0
7, 237000, Note_on_c, 1, 76, 80
7, 237000, Control_c, 1, 11, 47
7, 237023, Control_c, 1, 11, 49
7, 237044, Note_on_c, 1, 76, 0
7, 237045, Control_c, 1, 11, 50
7, 237060, Note_on_c, 1, 74, 80
7, 237068, Control_c, 1, 11, 52
7, 237090, Control_c, 1, 11, 54
7, 237104, Note_on_c, 1, 74, 0
7, 237113, Control_c, 1, 11, 55
7, 237120, Note_on_c, 1, 81, 80
7, 237120, Note_on_c, 1, 69, 80
7, 237135, Control_c, 1, 11, 57
7, 237158, Control_c, 1, 11, 59
7, 237180, Control_c, 1, 11, 60
7, 237203, Control_c, 1, 11, 62
7, 237225, Control_c, 1, 11, 64
7, 237248, Control_c, 1, 11, 65
7, 237270, Control_c, 1, 11, 67
7, 237293, Control_c, 1, 11, 69
7, 237315, Control_c, 1, 11, 70
7, 237338, Control_c, 1, 11, 72
7, 237360, Control_c, 1, 11, 74
7, 237383, Control_c, 1, 11, 75
7, 237405, Control_c, 1, 11, 77
7, 237428, Control_c, 1, 11, 79
7, 237450, Control_c, 1, 11, 80
7, 237473, Control_c, 1, 11, 82
7, 237495, Control_c, 1, 11, 84
7, 237518, Control_c, 1, 11, 85
7, 237540, Control_c, 1, 11, 87
7, 237563, Control_c, 1, 11, 89
7, 237585, Control_c, 1, 11, 90
7, 237608, Control_c, 1, 11, 92
7, 237630, Control_c, 1, 11, 94
7, 237653, Control_c, 1, 11, 95
7, 237675, Control_c, 1, 11, 97
7, 237698, Control_c, 1, 11, 99
7, 237720, Control_c, 1, 11, 100
7, 237743, Control_c, 1, 11, 102
7, 237765, Control_c, 1, 11, 104
7, 237788, Control_c, 1, 11, 105
7, 237810, Control_c, 1, 11, 107
7, 237833, Control_c, 1, 11, 109
7, 237855, Control_c, 1, 11, 110
7, 237878, Control_c, 1, 11, 112
7, 237900, Control_c, 1, 11, 114
7, 237923, Control_c, 1, 11, 115
7, 237945, Control_c, 1, 11, 117
7, 237968, Control_c, 1, 11, 119
7, 237990, Control_c, 1, 11, 120
7, 238013, Control_c, 1, 11, 122
7, 238035, Control_c, 1, 11, 124
7, 238058, Control_c, 1, 11, 127
7, 238131, Note_on_c, 1, 81, 0
7, 238131, Note_on_c, 1, 69, 0
7, 238140, Note_on_c, 1, 69, 80
7, 238140, Note_on_c, 1, 81, 80
7, 238199, Note_on_c, 1, 69, 0
7, 238199, Note_on_c, 1, 81, 0
7, 238200, Note_on_c, 1, 70, 80
7, 238200, Note_on_c, 1, 82, 80
7, 238251, Note_on_c, 1, 70, 0
7, 238251, Note_on_c, 1, 82, 0
7, 238260, Note_on_c, 1, 72, 80
7, 238260, Note_on_c, 1, 84, 80
7, 238319, Note_on_c, 1, 72, 0
7, 238319, Note_on_c, 1, 84, 0
7, 238320, Note_on_c, 1, 74, 80
7, 238320, Note_on_c, 1, 86, 80
7, 238371, Note_on_c, 1, 74, 0
7, 238371, Note_on_c, 1, 86, 0
7, 238380, Note_on_c, 1, 86, 80
7, 238380, Note_on_c, 1, 74, 80
7, 238491, Note_on_c, 1, 86, 0
7, 238491, Note_on_c, 1, 74, 0
7, 238500, Note_on_c, 1, 86, 80
7, 238500, Note_on_c, 1, 74, 80
7, 238551, Note_on_c, 1, 86, 0
7, 238551, Note_on_c, 1, 74, 0
7, 238560, Note_on_c, 1, 86, 80
7, 238560, Note_on_c, 1, 76, 80
7, 238664, Note_on_c, 1, 86, 0
7, 238664, Note_on_c, 1, 76, 0
7, 238680, Note_on_c, 1, 86, 80
7, 238680, Note_on_c, 1, 76, 80
7, 238799, Note_on_c, 1, 86, 0
7, 238799, Note_on_c, 1, 76, 0
7, 238920, Note_on_c, 1, 85, 80
7, 238920, Note_on_c, 1, 76, 80
7, 239039, Note_on_c, 1, 85, 0
7, 239039, Note_on_c, 1, 76, 0
7, 239040, Control_c, 1, 11, 67
7, 239520, Note_on_c, 1, 69, 80
7, 239520, Note_on_c, 1, 81, 80
7, 239544, Control_c, 1, 11, 68
7, 239568, Control_c, 1, 11, 69
7, 239592, Control_c, 1, 11, 70
7, 239616, Control_c, 1, 11, 71
7, 239640, Control_c, 1, 11, 72
7, 239664, Control_c, 1, 11, 73
7, 239688, Control_c, 1, 11, 74
7, 239712, Control_c, 1, 11, 75
7, 239736, Control_c, 1, 11, 76
7, 239760, Control_c, 1, 11, 77
7, 239784, Control_c, 1, 11, 78
7, 239808, Control_c, 1, 11, 79
7, 239832, Control_c, 1, 11, 80
7, 239856, Control_c, 1, 11, 81
7, 239880, Control_c, 1, 11, 82
7, 239904, Control_c, 1, 11, 83
7, 239928, Control_c, 1, 11, 84
7, 239952, Control_c, 1, 11, 85
7, 239976, Control_c, 1, 11, 86
7, 240000, Control_c, 1, 11, 87
7, 240024, Control_c, 1, 11, 88
7, 240048, Control_c, 1, 11, 89
7, 240072, Control_c, 1, 11, 90
7, 240096, Control_c, 1, 11, 91
7, 240120, Control_c, 1, 11, 92
7, 240144, Control_c, 1, 11, 93
7, 240168, Control_c, 1, 11, 94
7, 240192, Control_c, 1, 11, 95
7, 240216, Control_c, 1, 11, 96
7, 240240, Control_c, 1, 11, 97
7, 240264, Control_c, 1, 11, 98
7, 240288, Control_c, 1, 11, 99
7, 240312, Control_c, 1, 11, 100
7, 240336, Control_c, 1, 11, 101
7, 240359, Note_on_c, 1, 69, 0
7, 240359, Note_on_c, 1, 81, 0
7, 240360, Note_on_c, 1, 68, 80
7, 240360, Note_on_c, 1, 80, 80
7, 240360, Control_c, 1, 11, 102
7, 240384, Control_c, 1, 11, 103
7, 240408, Control_c, 1, 11, 104
7, 240432, Control_c, 1, 11, 105
7, 240456, Control_c, 1, 11, 106
7, 240479, Note_on_c, 1, 68, 0
7, 240479, Note_on_c, 1, 80, 0
7, 240480, Note_on_c, 1, 67, 80
7, 240480, Control_c, 1, 11, 107
7, 240480, Note_on_c, 1, 79, 80
7, 240504, Control_c, 1, 11, 108
7, 240520, Control_c, 1, 11, 100
7, 240528, Control_c, 1, 11, 109
7, 240531, Note_on_c, 1, 67, 0
7, 240531, Note_on_c, 1, 79, 0
7, 240540, Note_on_c, 1, 65, 80
7, 240540, Note_on_c, 1, 77, 80
7, 240552, Control_c, 1, 11, 110
7, 240576, Control_c, 1, 11, 111
7, 240599, Note_on_c, 1, 65, 0
7, 240599, Note_on_c, 1, 77, 0
7, 240600, Note_on_c, 1, 64, 80
7, 240600, Control_c, 1, 11, 112
7, 240600, Note_on_c, 1, 76, 80
7, 240624, Control_c, 1, 11, 113
7, 240648, Control_c, 1, 11, 114
7, 240651, Note_on_c, 1, 64, 0
7, 240651, Note_on_c, 1, 76, 0
7, 240660, Note_on_c, 1, 62, 80
7, 240660, Note_on_c, 1, 74, 80
7, 240672, Control_c, 1, 11, 115
7, 240696, Control_c, 1, 11, 116
7, 240719, Note_on_c, 1, 62, 0
7, 240719, Note_on_c, 1, 74, 0
7, 240720, Note_on_c, 1, 61, 80
7, 240720, Note_on_c, 1, 73, 80
7, 240720, Control_c, 1, 11, 117
7, 240744, Control_c, 1, 11, 118
7, 240768, Control_c, 1, 11, 119
7, 240771, Note_on_c, 1, 61, 0
7, 240771, Note_on_c, 1, 73, 0
7, 240780, Note_on_c, 1, 70, 80
7, 240792, Control_c, 1, 11, 120
7, 240816, Control_c, 1, 11, 121
7, 240839, Note_on_c, 1, 70, 0
7, 240840, Control_c, 1, 11, 122
7, 240840, Note_on_c, 1, 69, 80
7, 240864, Control_c, 1, 11, 123
7, 240888, Control_c, 1, 11, 124
7, 240891, Note_on_c, 1, 69, 0
7, 240900, Note_on_c, 1, 69, 80
7, 240912, Control_c, 1, 11, 125
7, 240936, Control_c, 1, 11, 127
7, 240960, Note_on_c, 1, 65, 80
7, 241011, Note_on_c, 1, 69, 0
7, 241011, Note_on_c, 1, 65, 0
7, 241020, Note_on_c, 1, 67, 80
7, 241020, Note_on_c, 1, 70, 80
7, 241079, Note_on_c, 1, 67, 0
7, 241079, Note_on_c, 1, 70, 0
7, 241080, Note_on_c, 1, 69, 80
7, 241080, Note_on_c, 1, 72, 80
7, 241131, Note_on_c, 1, 69, 0
7, 241131, Note_on_c, 1, 72, 0
7, 241140, Note_on_c, 1, 74, 80
7, 241140, Note_on_c, 1, 70, 80
7, 241199, Note_on_c, 1, 74, 0
7, 241199, Note_on_c, 1, 70, 0
7, 241200, Note_on_c, 1, 73, 80
7, 241200, Note_on_c, 1, 76, 80
7, 241251, Note_on_c, 1, 73, 0
7, 241251, Note_on_c, 1, 76, 0
7, 241260, Note_on_c, 1, 77, 80
7, 241260, Note_on_c, 1, 74, 80
7, 241319, Note_on_c, 1, 77, 0
7, 241319, Note_on_c, 1, 74, 0
7, 241320, Note_on_c, 1, 76, 80
7, 241320, Note_on_c, 1, 79, 80
7, 241371, Note_on_c, 1, 76, 0
7, 241371, Note_on_c, 1, 79, 0
7, 241380, Note_on_c, 1, 81, 80
7, 241380, Note_on_c, 1, 77, 80
7, 241439, Note_on_c, 1, 81, 0
7, 241439, Note_on_c, 1, 77, 0
7, 241440, Note_on_c, 1, 76, 80
7, 241440, Note_on_c, 1, 79, 80
7, 241544, Note_on_c, 1, 76, 0
7, 241544, Note_on_c, 1, 79, 0
7, 241560, Note_on_c, 1, 86, 80
7, 241560, Note_on_c, 1, 76, 80
7, 241649, Note_on_c, 1, 86, 0
7, 241649, Note_on_c, 1, 76, 0
7, 241800, Note_on_c, 1, 85, 80
7, 241800, Note_on_c, 1, 76, 80
7, 241889, Note_on_c, 1, 85, 0
7, 241889, Note_on_c, 1, 76, 0
7, 241918, Control_c, 1, 11, 107
7, 241920, Note_on_c, 1, 76, 56
7, 241920, Control_c, 1, 11, 107
7, 241920, Note_on_c, 1, 73, 56
7, 241940, Control_c, 1, 11, 109
7, 241960, Control_c, 1, 11, 110
7, 241980, Control_c, 1, 11, 112
7, 242000, Control_c, 1, 11, 114
7, 242020, Control_c, 1, 11, 115
7, 242040, Control_c, 1, 11, 117
7, 242060, Control_c, 1, 11, 119
7, 242080, Control_c, 1, 11, 120
7, 242100, Control_c, 1, 11, 122
7, 242120, Control_c, 1, 11, 124
7, 242140, Control_c, 1, 11, 125
7, 242160, Control_c, 1, 11, 127
7, 242180, Control_c, 1, 11, 125
7, 242200, Control_c, 1, 11, 124
7, 242219, Note_on_c, 1, 76, 0
7, 242219, Note_on_c, 1, 73, 0
7, 242220, Control_c, 1, 11, 122
7, 242220, Note_on_c, 1, 79, 56
7, 242220, Note_on_c, 1, 73, 56
7, 242240, Control_c, 1, 11, 120
7, 242260, Control_c, 1, 11, 119
7, 242271, Note_on_c, 1, 79, 0
7, 242271, Note_on_c, 1, 73, 0
7, 242280, Control_c, 1, 11, 117
7, 242280, Note_on_c, 1, 73, 56
7, 242280, Note_on_c, 1, 77, 56
7, 242300, Control_c, 1, 11, 115
7, 242320, Control_c, 1, 11, 114
7, 242324, Note_on_c, 1, 73, 0
7, 242324, Note_on_c, 1, 77, 0
7, 242340, Note_on_c, 1, 73, 56
7, 242340, Control_c, 1, 11, 112
7, 242340, Note_on_c, 1, 76, 56
7, 242360, Control_c, 1, 11, 110
7, 242380, Control_c, 1, 11, 107
7, 242384, Note_on_c, 1, 73, 0
7, 242384, Note_on_c, 1, 76, 0
7, 242400, Note_on_c, 1, 70, 56
7, 242400, Note_on_c, 1, 76, 56
7, 242691, Note_on_c, 1, 70, 0
7, 242691, Note_on_c, 1, 76, 0
7, 242700, Note_on_c, 1, 70, 56
7, 242700, Note_on_c, 1, 82, 56
7, 242751, Note_on_c, 1, 70, 0
7, 242751, Note_on_c, 1, 82, 0
7, 242760, Note_on_c, 1, 81, 56
7, 242760, Note_on_c, 1, 76, 56
7, 242811, Note_on_c, 1, 81, 0
7, 242811, Note_on_c, 1, 76, 0
7, 242820, Note_on_c, 1, 79, 56
7, 242820, Note_on_c, 1, 76, 56
7, 242864, Note_on_c, 1, 79, 0
7, 242864, Note_on_c, 1, 76, 0
7, 242878, Control_c, 1, 11, 127
7, 242880, Note_on_c, 1, 74, 44
7, 242880, Note_on_c, 1, 77, 44
7, 243059, Note_on_c, 1, 74, 0
7, 243059, Note_on_c, 1, 77, 0
7, 243120, Note_on_c, 1, 76, 44
7, 243120, Note_on_c, 1, 74, 44
7, 243299, Note_on_c, 1, 76, 0
7, 243299, Note_on_c, 1, 74, 0
7, 243360, Note_on_c, 1, 74, 44
7, 243360, Note_on_c, 1, 70, 44
7, 243539, Note_on_c, 1, 74, 0
7, 243539, Note_on_c, 1, 70, 0
7, 243600, Note_on_c, 1, 67, 44
7, 243600, Note_on_c, 1, 73, 44
7, 243779, Note_on_c, 1, 67, 0
7, 243779, Note_on_c, 1, 73, 0
7, 244140, Note_on_c, 1, 79, 44
7, 244184, Note_on_c, 1, 79, 0
7, 244200, Note_on_c, 1, 81, 44
7, 244244, Note_on_c, 1, 81, 0
7, 244260, Note_on_c, 1, 82, 44
7, 244304, Note_on_c, 1, 82, 0
7, 244320, Note_on_c, 1, 82, 44
7, 244439, Note_on_c, 1, 82, 0
7, 244620, Note_on_c, 1, 82, 44
7, 244671, Note_on_c, 1, 82, 0
7, 244680, Note_on_c, 1, 81, 44
7, 244731, Note_on_c, 1, 81, 0
7, 244740, Note_on_c, 1, 79, 44
7, 244784, Note_on_c, 1, 79, 0
7, 244800, Note_on_c, 1, 77, 44
7, 244979, Note_on_c, 1, 77, 0
7, 245040, Note_on_c, 1, 76, 44
7, 245219, Note_on_c, 1, 76, 0
7, 245280, Note_on_c, 1, 74, 44
7, 245459, Note_on_c, 1, 74, 0
7, 245520, Note_on_c, 1, 73, 44
7, 245699, Note_on_c, 1, 73, 0
7, 246480, Note_on_c, 1, 65, 44
7, 246480, Note_on_c, 1, 74, 44
7, 246839, Note_on_c, 1, 65, 0
7, 246839, Note_on_c, 1, 74, 0
7, 246900, Note_on_c, 1, 69, 44
7, 246900, Note_on_c, 1, 65, 44
7, 246951, Note_on_c, 1, 69, 0
7, 246951, Note_on_c, 1, 65, 0
7, 246960, Note_on_c, 1, 65, 44
7, 246960, Note_on_c, 1, 74, 44
7, 247079, Note_on_c, 1, 65, 0
7, 247079, Note_on_c, 1, 74, 0
7, 247140, Note_on_c, 1, 77, 44
7, 247140, Note_on_c, 1, 69, 44
7, 247191, Note_on_c, 1, 77, 0
7, 247191, Note_on_c, 1, 69, 0
7, 247200, Note_on_c, 1, 77, 44
7, 247200, Note_on_c, 1, 69, 44
7, 247439, Note_on_c, 1, 77, 0
7, 247439, Note_on_c, 1, 69, 0
7, 247440, Note_on_c, 1, 67, 44
7, 247440, Note_on_c, 1, 76, 44
7, 247459, Note_on_c, 1, 76, 0
7, 247460, Note_on_c, 1, 77, 44
7, 247479, Note_on_c, 1, 77, 0
7, 247480, Note_on_c, 1, 76, 44
7, 247499, Note_on_c, 1, 76, 0
7, 247500, Note_on_c, 1, 77, 44
7, 247519, Note_on_c, 1, 77, 0
7, 247520, Note_on_c, 1, 76, 44
7, 247539, Note_on_c, 1, 76, 0
7, 247540, Note_on_c, 1, 77, 44
7, 247559, Note_on_c, 1, 77, 0
7, 247560, Note_on_c, 1, 76, 44
7, 247579, Note_on_c, 1, 76, 0
7, 247580, Note_on_c, 1, 77, 44
7, 247599, Note_on_c, 1, 77, 0
7, 247600, Note_on_c, 1, 76, 44
7, 247619, Note_on_c, 1, 76, 0
7, 247620, Note_on_c, 1, 77, 44
7, 247632, Note_on_c, 1, 77, 0
7, 247633, Note_on_c, 1, 76, 44
7, 247646, Note_on_c, 1, 76, 0
7, 247647, Note_on_c, 1, 74, 44
7, 247659, Note_on_c, 1, 74, 0
7, 247660, Note_on_c, 1, 76, 44
7, 247664, Note_on_c, 1, 67, 0
7, 247675, Note_on_c, 1, 76, 0
7, 247680, Note_on_c, 1, 65, 44
7, 247680, Note_on_c, 1, 74, 44
7, 247919, Note_on_c, 1, 65, 0
7, 247919, Note_on_c, 1, 74, 0
7, 248400, Note_on_c, 1, 74, 44
7, 248400, Note_on_c, 1, 77, 44
7, 248759, Note_on_c, 1, 74, 0
7, 248759, Note_on_c, 1, 77, 0
7, 248820, Note_on_c, 1, 74, 44
7, 248820, Note_on_c, 1, 69, 44
7, 248871, Note_on_c, 1, 74, 0
7, 248871, Note_on_c, 1, 69, 0
7, 248880, Note_on_c, 1, 74, 44
7, 248880, Note_on_c, 1, 77, 44
7, 248999, Note_on_c, 1, 74, 0
7, 248999, Note_on_c, 1, 77, 0
7, 249060, Note_on_c, 1, 81, 44
7, 249060, Note_on_c, 1, 77, 44
7, 249111, Note_on_c, 1, 81, 0
7, 249111, Note_on_c, 1, 77, 0
7, 249120, Note_on_c, 1, 77, 44
7, 249120, Note_on_c, 1, 81, 44
7, 249359, Note_on_c, 1, 77, 0
7, 249359, Note_on_c, 1, 81, 0
7, 249360, Note_on_c, 1, 76, 44
7, 249360, Note_on_c, 1, 79, 44
7, 249379, Note_on_c, 1, 79, 0
7, 249380, Note_on_c, 1, 81, 44
7, 249399, Note_on_c, 1, 81, 0
7, 249400, Note_on_c, 1, 79, 44
7, 249419, Note_on_c, 1, 79, 0
7, 249420, Note_on_c, 1, 81, 44
7, 249439, Note_on_c, 1, 81, 0
7, 249440, Note_on_c, 1, 79, 44
7, 249459, Note_on_c, 1, 79, 0
7, 249460, Note_on_c, 1, 81, 44
7, 249479, Note_on_c, 1, 81, 0
7, 249480, Note_on_c, 1, 79, 44
7, 249499, Note_on_c, 1, 79, 0
7, 249500, Note_on_c, 1, 81, 44
7, 249519, Note_on_c, 1, 81, 0
7, 249520, Note_on_c, 1, 79, 44
7, 249539, Note_on_c, 1, 79, 0
7, 249540, Note_on_c, 1, 81, 44
7, 249552, Note_on_c, 1, 81, 0
7, 249553, Note_on_c, 1, 79, 44
7, 249566, Note_on_c, 1, 79, 0
7, 249567, Note_on_c, 1, 77, 44
7, 249579, Note_on_c, 1, 77, 0
7, 249580, Note_on_c, 1, 79, 44
7, 249584, Note_on_c, 1, 76, 0
7, 249595, Note_on_c, 1, 79, 0
7, 249600, Note_on_c, 1, 74, 44
7, 249600, Note_on_c, 1, 77, 44
7, 249719, Note_on_c, 1, 74, 0
7, 249719, Note_on_c, 1, 77, 0
7, 249778, Control_c, 1, 11, 67
7, 249780, Note_on_c, 1, 65, 80
7, 249780, Note_on_c, 1, 69, 80
7, 249831, Note_on_c, 1, 65, 0
7, 249831, Note_on_c, 1, 69, 0
7, 249840, Note_on_c, 1, 65, 80
7, 249840, Note_on_c, 1, 74, 80
7, 249884, Control_c, 1, 11, 68
7, 249928, Control_c, 1, 11, 69
7, 249959, Note_on_c, 1, 65, 0
7, 249959, Note_on_c, 1, 74, 0
7, 249972, Control_c, 1, 11, 70
7, 250016, Control_c, 1, 11, 71
7, 250020, Note_on_c, 1, 69, 80
7, 250020, Note_on_c, 1, 77, 80
7, 250060, Control_c, 1, 11, 72
7, 250071, Note_on_c, 1, 69, 0
7, 250071, Note_on_c, 1, 77, 0
7, 250080, Note_on_c, 1, 77, 80
7, 250080, Note_on_c, 1, 69, 80
7, 250104, Control_c, 1, 11, 73
7, 250148, Control_c, 1, 11, 74
7, 250192, Control_c, 1, 11, 75
7, 250236, Control_c, 1, 11, 76
7, 250280, Control_c, 1, 11, 77
7, 250319, Note_on_c, 1, 77, 0
7, 250319, Note_on_c, 1, 69, 0
7, 250320, Note_on_c, 1, 67, 80
7, 250320, Note_on_c, 1, 76, 80
7, 250324, Control_c, 1, 11, 78
7, 250339, Note_on_c, 1, 76, 0
7, 250340, Note_on_c, 1, 77, 80
7, 250359, Note_on_c, 1, 77, 0
7, 250360, Note_on_c, 1, 76, 80
7, 250368, Control_c, 1, 11, 79
7, 250379, Note_on_c, 1, 76, 0
7, 250380, Note_on_c, 1, 77, 80
7, 250399, Note_on_c, 1, 77, 0
7, 250400, Note_on_c, 1, 76, 80
7, 250412, Control_c, 1, 11, 80
7, 250419, Note_on_c, 1, 76, 0
7, 250420, Note_on_c, 1, 77, 80
7, 250439, Note_on_c, 1, 77, 0
7, 250440, Note_on_c, 1, 76, 80
7, 250456, Control_c, 1, 11, 81
7, 250459, Note_on_c, 1, 76, 0
7, 250460, Note_on_c, 1, 77, 80
7, 250479, Note_on_c, 1, 77, 0
7, 250480, Note_on_c, 1, 76, 80
7, 250499, Note_on_c, 1, 76, 0
7, 250500, Note_on_c, 1, 77, 80
7, 250500, Control_c, 1, 11, 82
7, 250512, Note_on_c, 1, 77, 0
7, 250513, Note_on_c, 1, 76, 80
7, 250526, Note_on_c, 1, 76, 0
7, 250527, Note_on_c, 1, 74, 80
7, 250539, Note_on_c, 1, 74, 0
7, 250540, Note_on_c, 1, 76, 80
7, 250544, Note_on_c, 1, 67, 0
7, 250544, Control_c, 1, 11, 83
7, 250555, Note_on_c, 1, 76, 0
7, 250560, Note_on_c, 1, 74, 80
7, 250560, Note_on_c, 1, 65, 80
7, 250588, Control_c, 1, 11, 84
7, 250632, Control_c, 1, 11, 85
7, 250676, Control_c, 1, 11, 86
7, 250679, Note_on_c, 1, 74, 0
7, 250679, Note_on_c, 1, 65, 0
7, 250720, Control_c, 1, 11, 87
7, 250740, Note_on_c, 1, 69, 80
7, 250740, Note_on_c, 1, 74, 80
7, 250764, Control_c, 1, 11, 88
7, 250791, Note_on_c, 1, 69, 0
7, 250791, Note_on_c, 1, 74, 0
7, 250800, Note_on_c, 1, 77, 80
7, 250800, Note_on_c, 1, 74, 80
7, 250808, Control_c, 1, 11, 89
7, 250852, Control_c, 1, 11, 90
7, 250896, Control_c, 1, 11, 91
7, 250919, Note_on_c, 1, 77, 0
7, 250919, Note_on_c, 1, 74, 0
7, 250940, Control_c, 1, 11, 92
7, 250980, Note_on_c, 1, 81, 80
7, 250980, Note_on_c, 1, 77, 80
7, 250984, Control_c, 1, 11, 93
7, 251028, Control_c, 1, 11, 94
7, 251031, Note_on_c, 1, 81, 0
7, 251031, Note_on_c, 1, 77, 0
7, 251040, Note_on_c, 1, 81, 80
7, 251040, Note_on_c, 1, 77, 80
7, 251072, Control_c, 1, 11, 95
7, 251116, Control_c, 1, 11, 96
7, 251160, Control_c, 1, 11, 97
7, 251204, Control_c, 1, 11, 98
7, 251248, Control_c, 1, 11, 99
7, 251279, Note_on_c, 1, 81, 0
7, 251279, Note_on_c, 1, 77, 0
7, 251280, Note_on_c, 1, 76, 80
7, 251280, Note_on_c, 1, 79, 80
7, 251292, Control_c, 1, 11, 100
7, 251299, Note_on_c, 1, 79, 0
7, 251300, Note_on_c, 1, 81, 80
7, 251319, Note_on_c, 1, 81, 0
7, 251320, Note_on_c, 1, 79, 80
7, 251336, Control_c, 1, 11, 101
7, 251339, Note_on_c, 1, 79, 0
7, 251340, Note_on_c, 1, 81, 80
7, 251359, Note_on_c, 1, 81, 0
7, 251360, Note_on_c, 1, 79, 80
7, 251379, Note_on_c, 1, 79, 0
7, 251380, Control_c, 1, 11, 102
7, 251380, Note_on_c, 1, 81, 80
7, 251399, Note_on_c, 1, 81, 0
7, 251400, Note_on_c, 1, 79, 80
7, 251419, Note_on_c, 1, 79, 0
7, 251420, Note_on_c, 1, 81, 80
7, 251424, Control_c, 1, 11, 103
7, 251439, Note_on_c, 1, 81, 0
7, 251440, Note_on_c, 1, 79, 80
7, 251459, Note_on_c, 1, 79, 0
7, 251460, Note_on_c, 1, 81, 80
7, 251468, Control_c, 1, 11, 104
7, 251472, Note_on_c, 1, 81, 0
7, 251473, Note_on_c, 1, 79, 80
7, 251486, Note_on_c, 1, 79, 0
7, 251487, Note_on_c, 1, 77, 80
7, 251499, Note_on_c, 1, 77, 0
7, 251500, Note_on_c, 1, 79, 80
7, 251504, Note_on_c, 1, 76, 0
7, 251512, Control_c, 1, 11, 105
7, 251515, Note_on_c, 1, 79, 0
7, 251520, Note_on_c, 1, 74, 80
7, 251520, Note_on_c, 1, 77, 80
7, 251556, Control_c, 1, 11, 106
7, 251600, Control_c, 1, 11, 107
7, 251639, Note_on_c, 1, 74, 0
7, 251639, Note_on_c, 1, 77, 0
7, 251644, Control_c, 1, 11, 108
7, 251688, Control_c, 1, 11, 109
7, 251700, Note_on_c, 1, 74, 80
7, 251700, Note_on_c, 1, 69, 80
7, 251732, Control_c, 1, 11, 110
7, 251751, Note_on_c, 1, 74, 0
7, 251751, Note_on_c, 1, 69, 0
7, 251760, Note_on_c, 1, 74, 80
7, 251760, Note_on_c, 1, 77, 80
7, 251776, Control_c, 1, 11, 111
7, 251820, Control_c, 1, 11, 112
7, 251864, Control_c, 1, 11, 113
7, 251879, Note_on_c, 1, 74, 0
7, 251879, Note_on_c, 1, 77, 0
7, 251908, Control_c, 1, 11, 114
7, 251940, Note_on_c, 1, 81, 80
7, 251940, Note_on_c, 1, 77, 80
7, 251952, Control_c, 1, 11, 115
7, 251991, Note_on_c, 1, 81, 0
7, 251991, Note_on_c, 1, 77, 0
7, 251996, Control_c, 1, 11, 116
7, 252000, Note_on_c, 1, 77, 80
7, 252000, Note_on_c, 1, 81, 80
7, 252040, Control_c, 1, 11, 117
7, 252084, Control_c, 1, 11, 118
7, 252128, Control_c, 1, 11, 119
7, 252172, Control_c, 1, 11, 120
7, 252216, Control_c, 1, 11, 121
7, 252239, Note_on_c, 1, 77, 0
7, 252239, Note_on_c, 1, 81, 0
7, 252240, Note_on_c, 1, 79, 80
7, 252240, Note_on_c, 1, 76, 80
7, 252259, Note_on_c, 1, 79, 0
7, 252260, Control_c, 1, 11, 122
7, 252260, Note_on_c, 1, 81, 80
7, 252279, Note_on_c, 1, 81, 0
7, 252280, Note_on_c, 1, 79, 80
7, 252299, Note_on_c, 1, 79, 0
7, 252300, Note_on_c, 1, 81, 80
7, 252304, Control_c, 1, 11, 123
7, 252319, Note_on_c, 1, 81, 0
7, 252320, Note_on_c, 1, 79, 80
7, 252339, Note_on_c, 1, 79, 0
7, 252340, Note_on_c, 1, 81, 80
7, 252348, Control_c, 1, 11, 124
7, 252359, Note_on_c, 1, 81, 0
7, 252360, Note_on_c, 1, 79, 80
7, 252379, Note_on_c, 1, 79, 0
7, 252380, Note_on_c, 1, 81, 80
7, 252392, Control_c, 1, 11, 125
7, 252399, Note_on_c, 1, 81, 0
7, 252400, Note_on_c, 1, 79, 80
7, 252419, Note_on_c, 1, 79, 0
7, 252420, Note_on_c, 1, 81, 80
7, 252432, Note_on_c, 1, 81, 0
7, 252433, Note_on_c, 1, 79, 80
7, 252436, Control_c, 1, 11, 127
7, 252446, Note_on_c, 1, 79, 0
7, 252447, Note_on_c, 1, 77, 80
7, 252459, Note_on_c, 1, 77, 0
7, 252460, Note_on_c, 1, 79, 80
7, 252464, Note_on_c, 1, 76, 0
7, 252475, Note_on_c, 1, 79, 0
7, 252480, Note_on_c, 1, 77, 80
7, 252480, Note_on_c, 1, 74, 80
7, 252719, Note_on_c, 1, 77, 0
7, 252719, Note_on_c, 1, 74, 0
7, 252900, Note_on_c, 1, 77, 86
7, 252900, Note_on_c, 1, 74, 86
7, 252951, Note_on_c, 1, 77, 0
7, 252951, Note_on_c, 1, 74, 0
7, 252960, Note_on_c, 1, 74, 86
7, 252960, Note_on_c, 1, 76, 86
7, 253199, Note_on_c, 1, 74, 0
7, 253199, Note_on_c, 1, 76, 0
7, 253380, Note_on_c, 1, 76, 86
7, 253380, Note_on_c, 1, 81, 86
7, 253431, Note_on_c, 1, 76, 0
7, 253431, Note_on_c, 1, 81, 0
7, 253440, Note_on_c, 1, 77, 86
7, 253440, Note_on_c, 1, 74, 86
7, 253679, Note_on_c, 1, 77, 0
7, 253679, Note_on_c, 1, 74, 0
7, 253860, Note_on_c, 1, 74, 86
7, 253860, Note_on_c, 1, 77, 86
7, 253911, Note_on_c, 1, 74, 0
7, 253911, Note_on_c, 1, 77, 0
7, 253920, Note_on_c, 1, 76, 86
7, 253920, Note_on_c, 1, 74, 86
7, 254039, Note_on_c, 1, 76, 0
7, 254039, Note_on_c, 1, 74, 0
7, 254100, Note_on_c, 1, 76, 86
7, 254100, Note_on_c, 1, 74, 86
7, 254151, Note_on_c, 1, 76, 0
7, 254151, Note_on_c, 1, 74, 0
7, 254160, Note_on_c, 1, 73, 86
7, 254160, Note_on_c, 1, 76, 86
7, 254279, Note_on_c, 1, 73, 0
7, 254279, Note_on_c, 1, 76, 0
7, 254340, Note_on_c, 1, 76, 86
7, 254340, Note_on_c, 1, 81, 86
7, 254391, Note_on_c, 1, 76, 0
7, 254391, Note_on_c, 1, 81, 0
7, 254400, Note_on_c, 1, 78, 92
7, 254400, Note_on_c, 1, 69, 92
7, 254841, Note_on_c, 1, 78, 0
7, 254841, Note_on_c, 1, 69, 0
7, 254850, Note_on_c, 1, 69, 92
7, 254850, Note_on_c, 1, 78, 92
7, 254871, Note_on_c, 1, 69, 0
7, 254871, Note_on_c, 1, 78, 0
7, 254880, Note_on_c, 1, 69, 92
7, 254880, Note_on_c, 1, 78, 92
7, 255321, Note_on_c, 1, 69, 0
7, 255321, Note_on_c, 1, 78, 0
7, 255330, Note_on_c, 1, 78, 92
7, 255330, Note_on_c, 1, 69, 92
7, 255351, Note_on_c, 1, 78, 0
7, 255351, Note_on_c, 1, 69, 0
7, 255360, Note_on_c, 1, 80, 92
7, 255360, Note_on_c, 1, 77, 92
7, 255801, Note_on_c, 1, 80, 0
7, 255801, Note_on_c, 1, 77, 0
7, 255810, Note_on_c, 1, 80, 92
7, 255810, Note_on_c, 1, 77, 92
7, 255831, Note_on_c, 1, 80, 0
7, 255831, Note_on_c, 1, 77, 0
7, 255840, Note_on_c, 1, 81, 92
7, 255840, Note_on_c, 1, 76, 92
7, 256281, Note_on_c, 1, 81, 0
7, 256281, Note_on_c, 1, 76, 0
7, 256290, Note_on_c, 1, 81, 92
7, 256290, Note_on_c, 1, 76, 92
7, 256311, Note_on_c, 1, 81, 0
7, 256311, Note_on_c, 1, 76, 0
7, 256320, Note_on_c, 1, 78, 92
7, 256320, Note_on_c, 1, 66, 92
7, 256761, Note_on_c, 1, 78, 0
7, 256761, Note_on_c, 1, 66, 0
7, 256770, Note_on_c, 1, 66, 92
7, 256770, Note_on_c, 1, 78, 92
7, 256791, Note_on_c, 1, 66, 0
7, 256791, Note_on_c, 1, 78, 0
7, 256800, Note_on_c, 1, 66, 92
7, 256800, Note_on_c, 1, 78, 92
7, 257241, Note_on_c, 1, 66, 0
7, 257241, Note_on_c, 1, 78, 0
7, 257250, Note_on_c, 1, 78, 92
7, 257250, Note_on_c, 1, 66, 92
7, 257271, Note_on_c, 1, 78, 0
7, 257271, Note_on_c, 1, 66, 0
7, 257280, Note_on_c, 1, 80, 92
7, 257280, Note_on_c, 1, 68, 92
7, 257721, Note_on_c, 1, 80, 0
7, 257721, Note_on_c, 1, 68, 0
7, 257730, Note_on_c, 1, 80, 92
7, 257730, Note_on_c, 1, 68, 92
7, 257751, Note_on_c, 1, 80, 0
7, 257751, Note_on_c, 1, 68, 0
7, 257760, Note_on_c, 1, 81, 92
7, 257760, Note_on_c, 1, 69, 92
7, 258201, Note_on_c, 1, 81, 0
7, 258201, Note_on_c, 1, 69, 0
7, 258210, Note_on_c, 1, 62, 92
7, 258210, Note_on_c, 1, 74, 92
7, 258231, Note_on_c, 1, 62, 0
7, 258231, Note_on_c, 1, 74, 0
7, 258240, Note_on_c, 1, 69, 92
7, 258240, Note_on_c, 1, 81, 92
7, 258681, Note_on_c, 1, 69, 0
7, 258681, Note_on_c, 1, 81, 0
7, 258690, Note_on_c, 1, 65, 92
7, 258690, Note_on_c, 1, 77, 92
7, 258711, Note_on_c, 1, 65, 0
7, 258711, Note_on_c, 1, 77, 0
7, 258720, Note_on_c, 1, 86, 92
7, 258720, Note_on_c, 1, 74, 92
7, 258921, Note_on_c, 1, 86, 0
7, 258921, Note_on_c, 1, 74, 0
7, 258930, Note_on_c, 1, 69, 92
7, 258930, Note_on_c, 1, 81, 92
7, 258951, Note_on_c, 1, 69, 0
7, 258951, Note_on_c, 1, 81, 0
7, 258960, Note_on_c, 1, 77, 92
7, 258960, Note_on_c, 1, 65, 92
7, 259124, Note_on_c, 1, 77, 0
7, 259124, Note_on_c, 1, 65, 0
7, 259140, Note_on_c, 1, 81, 92
7, 259140, Note_on_c, 1, 69, 92
7, 259169, Note_on_c, 1, 81, 0
7, 259169, Note_on_c, 1, 69, 0
7, 259170, Note_on_c, 1, 65, 92
7, 259170, Note_on_c, 1, 77, 92
7, 259191, Note_on_c, 1, 65, 0
7, 259191, Note_on_c, 1, 77, 0
7, 259200, Note_on_c, 1, 62, 92
7, 259200, Note_on_c, 1, 74, 92
7, 259319, Note_on_c, 1, 62, 0
7, 259319, Note_on_c, 1, 74, 0
7, 259380, Note_on_c, 1, 69, 92
7, 259380, Note_on_c, 1, 81, 92
7, 259409, Note_on_c, 1, 69, 0
7, 259409, Note_on_c, 1, 81, 0
7, 259410, Note_on_c, 1, 77, 92
7, 259410, Note_on_c, 1, 65, 92
7, 259431, Note_on_c, 1, 77, 0
7, 259431, Note_on_c, 1, 65, 0
7, 259440, Note_on_c, 1, 62, 92
7, 259440, Note_on_c, 1, 74, 92
7, 259559, Note_on_c, 1, 62, 0
7, 259559, Note_on_c, 1, 74, 0
7, 259620, Note_on_c, 1, 74, 92
7, 259620, Note_on_c, 1, 86, 92
7, 259649, Note_on_c, 1, 74, 0
7, 259649, Note_on_c, 1, 86, 0
7, 259650, Note_on_c, 1, 81, 92
7, 259650, Note_on_c, 1, 69, 92
7, 259671, Note_on_c, 1, 81, 0
7, 259671, Note_on_c, 1, 69, 0
7, 259680, Note_on_c, 1, 65, 92
7, 259680, Note_on_c, 1, 77, 92
7, 259799, Note_on_c, 1, 65, 0
7, 259799, Note_on_c, 1, 77, 0
7, 259860, Note_on_c, 1, 77, 92
7, 259889, Note_on_c, 1, 77, 0
7, 259890, Note_on_c, 1, 74, 92
7, 259911, Note_on_c, 1, 74, 0
7, 259920, Note_on_c, 1, 69, 92
7, 260039, Note_on_c, 1, 69, 0
7, 260100, Note_on_c, 1, 81, 92
7, 260129, Note_on_c, 1, 81, 0
7, 260130, Note_on_c, 1, 77, 92
7, 260151, Note_on_c, 1, 77, 0
7, 260160, Note_on_c, 1, 74, 92
7, 260399, Note_on_c, 1, 74, 0
7, 260430, Note_on_c, 1, 62, 92
7, 260459, Note_on_c, 1, 62, 0
7, 260460, Note_on_c, 1, 64, 92
7, 260489, Note_on_c, 1, 64, 0
7, 260490, Note_on_c, 1, 65, 92
7, 260519, Note_on_c, 1, 65, 0
7, 260520, Note_on_c, 1, 67, 92
7, 260549, Note_on_c, 1, 67, 0
7, 260550, Note_on_c, 1, 69, 92
7, 260579, Note_on_c, 1, 69, 0
7, 260580, Note_on_c, 1, 71, 92
7, 260609, Note_on_c, 1, 71, 0
7, 260610, Note_on_c, 1, 73, 92
7, 260631, Note_on_c, 1, 73, 0
7, 260640, Note_on_c, 1, 74, 104
7, 260700, Control_c, 1, 11, 107
7, 260879, Note_on_c, 1, 74, 0
7, 260880, Control_c, 1, 11, 127
7, 260910, Note_on_c, 1, 74, 92
7, 260939, Note_on_c, 1, 74, 0
7, 260940, Note_on_c, 1, 76, 92
7, 260969, Note_on_c, 1, 76, 0
7, 260970, Note_on_c, 1, 77, 92
7, 260999, Note_on_c, 1, 77, 0
7, 261000, Note_on_c, 1, 79, 92
7, 261029, Note_on_c, 1, 79, 0
7, 261030, Note_on_c, 1, 81, 92
7, 261059, Note_on_c, 1, 81, 0
7, 261060, Note_on_c, 1, 83, 92
7, 261089, Note_on_c, 1, 83, 0
7, 261090, Note_on_c, 1, 85, 92
7, 261111, Note_on_c, 1, 85, 0
7, 261120, Note_on_c, 1, 74, 92
7, 261120, Note_on_c, 1, 86, 92
7, 261411, Note_on_c, 1, 74, 0
7, 261411, Note_on_c, 1, 86, 0
7, 261420, Note_on_c, 1, 77, 92
7, 261464, Note_on_c, 1, 77, 0
7, 261480, Note_on_c, 1, 76, 92
7, 261524, Note_on_c, 1, 76, 0
7, 261540, Note_on_c, 1, 74, 92
7, 261584, Note_on_c, 1, 74, 0
7, 261600, Note_on_c, 1, 81, 92
7, 261689, Note_on_c, 1, 81, 0
7, 261720, Note_on_c, 1, 79, 92
7, 261809, Note_on_c, 1, 79, 0
7, 261840, Note_on_c, 1, 76, 92
7, 261929, Note_on_c, 1, 76, 0
7, 261960, Note_on_c, 1, 81, 92
7, 262049, Note_on_c, 1, 81, 0
7, 262080, Note_on_c, 1, 74, 92
7, 262199, Note_on_c, 1, 74, 0
7, 262199, End_track
8, 0, Start_track
8, 0, Title_t, "Clarinet in B-flat"
8, 0, MIDI_port, 0
8, 0, Program_c, 2, 71
8, 0, Control_c, 2, 7, 96
8, 0, Control_c, 2, 10, 75
8, 1680, Control_c, 2, 11, 29
8, 1920, Note_on_c, 2, 69, 92
8, 3839, Note_on_c, 2, 69, 0
8, 3840, Note_on_c, 2, 69, 92
8, 4800, Control_c, 2, 11, 29
8, 4836, Control_c, 2, 11, 30
8, 4873, Control_c, 2, 11, 31
8, 4909, Control_c, 2, 11, 32
8, 4946, Control_c, 2, 11, 34
8, 4982, Control_c, 2, 11, 35
8, 5019, Control_c, 2, 11, 36
8, 5055, Control_c, 2, 11, 37
8, 5092, Control_c, 2, 11, 39
8, 5128, Control_c, 2, 11, 40
8, 5165, Control_c, 2, 11, 41
8, 5201, Control_c, 2, 11, 42
8, 5237, Control_c, 2, 11, 44
8, 5274, Control_c, 2, 11, 45
8, 5310, Control_c, 2, 11, 46
8, 5347, Control_c, 2, 11, 47
8, 5383, Control_c, 2, 11, 49
8, 5420, Control_c, 2, 11, 50
8, 5456, Control_c, 2, 11, 51
8, 5493, Control_c, 2, 11, 52
8, 5529, Control_c, 2, 11, 54
8, 5566, Control_c, 2, 11, 55
8, 5602, Control_c, 2, 11, 56
8, 5638, Control_c, 2, 11, 57
8, 5675, Control_c, 2, 11, 59
8, 5711, Control_c, 2, 11, 60
8, 5748, Control_c, 2, 11, 61
8, 5784, Control_c, 2, 11, 62
8, 5821, Control_c, 2, 11, 64
8, 5857, Control_c, 2, 11, 65
8, 5894, Control_c, 2, 11, 66
8, 5930, Control_c, 2, 11, 67
8, 5967, Control_c, 2, 11, 69
8, 6003, Control_c, 2, 11, 70
8, 6039, Control_c, 2, 11, 71
8, 6076, Control_c, 2, 11, 72
8, 6112, Control_c, 2, 11, 74
8, 6149, Control_c, 2, 11, 75
8, 6185, Control_c, 2, 11, 76
8, 6222, Control_c, 2, 11, 77
8, 6258, Control_c, 2, 11, 79
8, 6295, Control_c, 2, 11, 80
8, 6331, Control_c, 2, 11, 81
8, 6368, Control_c, 2, 11, 82
8, 6404, Control_c, 2, 11, 84
8, 6441, Control_c, 2, 11, 85
8, 6477, Control_c, 2, 11, 86
8, 6513, Control_c, 2, 11, 87
8, 6550, Control_c, 2, 11, 89
8, 6584, Note_on_c, 2, 69, 0
8, 6586, Control_c, 2, 11, 90
8, 6600, Note_on_c, 2, 69, 92
8, 6600, Note_on_c, 2, 57, 92
8, 6623, Control_c, 2, 11, 91
8, 6659, Control_c, 2, 11, 92
8, 6696, Control_c, 2, 11, 94
8, 6732, Control_c, 2, 11, 95
8, 6769, Control_c, 2, 11, 96
8, 6805, Control_c, 2, 11, 97
8, 6842, Control_c, 2, 11, 99
8, 6878, Control_c, 2, 11, 100
8, 6914, Control_c, 2, 11, 101
8, 6951, Control_c, 2, 11, 102
8, 6987, Control_c, 2, 11, 104
8, 7024, Control_c, 2, 11, 105
8, 7060, Control_c, 2, 11, 106
8, 7097, Control_c, 2, 11, 107
8, 7133, Control_c, 2, 11, 109
8, 7170, Control_c, 2, 11, 110
8, 7206, Control_c, 2, 11, 111
8, 7243, Control_c, 2, 11, 112
8, 7279, Control_c, 2, 11, 114
8, 7315, Control_c, 2, 11, 115
8, 7352, Control_c, 2, 11, 116
8, 7388, Control_c, 2, 11, 117
8, 7425, Control_c, 2, 11, 119
8, 7461, Control_c, 2, 11, 120
8, 7498, Control_c, 2, 11, 121
8, 7534, Control_c, 2, 11, 122
8, 7571, Control_c, 2, 11, 124
8, 7607, Control_c, 2, 11, 125
8, 7641, Note_on_c, 2, 69, 0
8, 7641, Note_on_c, 2, 57, 0
8, 7644, Control_c, 2, 11, 127
8, 7650, Note_on_c, 2, 86, 92
8, 7650, Note_on_c, 2, 74, 92
8, 7671, Note_on_c, 2, 86, 0
8, 7671, Note_on_c, 2, 74, 0
8, 7680, Note_on_c, 2, 69, 92
8, 7680, Note_on_c, 2, 81, 92
8, 8121, Note_on_c, 2, 69, 0
8, 8121, Note_on_c, 2, 81, 0
8, 8130, Note_on_c, 2, 65, 92
8, 8130, Note_on_c, 2, 77, 92
8, 8151, Note_on_c, 2, 65, 0
8, 8151, Note_on_c, 2, 77, 0
8, 8160, Note_on_c, 2, 74, 92
8, 8160, Note_on_c, 2, 62, 92
8, 8361, Note_on_c, 2, 74, 0
8, 8361, Note_on_c, 2, 62, 0
8, 8370, Note_on_c, 2, 69, 92
8, 8370, Note_on_c, 2, 57, 92
8, 8391, Note_on_c, 2, 69, 0
8, 8391, Note_on_c, 2, 57, 0
8, 8400, Note_on_c, 2, 53, 92
8, 8400, Note_on_c, 2, 65, 92
8, 8579, Note_on_c, 2, 53, 0
8, 8579, Note_on_c, 2, 65, 0
8, 8580, Note_on_c, 2, 69, 92
8, 8609, Note_on_c, 2, 69, 0
8, 8610, Note_on_c, 2, 65, 92
8, 8631, Note_on_c, 2, 65, 0
8, 8640, Note_on_c, 2, 62, 92
8, 8924, Note_on_c, 2, 62, 0
8, 8940, Note_on_c, 2, 77, 92
8, 8940, Note_on_c, 2, 65, 92
8, 8984, Note_on_c, 2, 77, 0
8, 8984, Note_on_c, 2, 65, 0
8, 9000, Note_on_c, 2, 76, 92
8, 9000, Note_on_c, 2, 64, 92
8, 9044, Note_on_c, 2, 76, 0
8, 9044, Note_on_c, 2, 64, 0
8, 9060, Note_on_c, 2, 74, 92
8, 9060, Note_on_c, 2, 62, 92
8, 9104, Note_on_c, 2, 74, 0
8, 9104, Note_on_c, 2, 62, 0
8, 9120, Note_on_c, 2, 81, 92
8, 9120, Note_on_c, 2, 69, 92
8, 9209, Note_on_c, 2, 81, 0
8, 9209, Note_on_c, 2, 69, 0
8, 9240, Note_on_c, 2, 67, 92
8, 9240, Note_on_c, 2, 79, 92
8, 9329, Note_on_c, 2, 67, 0
8, 9329, Note_on_c, 2, 79, 0
8, 9360, Note_on_c, 2, 64, 92
8, 9360, Note_on_c, 2, 76, 92
8, 9449, Note_on_c, 2, 64, 0
8, 9449, Note_on_c, 2, 76, 0
8, 9480, Note_on_c, 2, 69, 92
8, 9480, Note_on_c, 2, 81, 92
8, 9569, Note_on_c, 2, 69, 0
8, 9569, Note_on_c, 2, 81, 0
8, 9600, Note_on_c, 2, 62, 104
8, 9600, Note_on_c, 2, 74, 104
8, 9779, Note_on_c, 2, 62, 0
8, 9779, Note_on_c, 2, 74, 0
8, 9840, Note_on_c, 2, 64, 92
8, 9840, Note_on_c, 2, 61, 92
8, 10019, Note_on_c, 2, 64, 0
8, 10019, Note_on_c, 2, 61, 0
8, 10080, Note_on_c, 2, 65, 92
8, 10080, Note_on_c, 2, 62, 92
8, 10259, Note_on_c, 2, 65, 0
8, 10259, Note_on_c, 2, 62, 0
8, 10560, Note_on_c, 2, 67, 92
8, 10560, Note_on_c, 2, 58, 92
8, 10739, Note_on_c, 2, 67, 0
8, 10739, Note_on_c, 2, 58, 0
8, 10800, Note_on_c, 2, 66, 92
8, 10800, Note_on_c, 2, 69, 92
8, 10979, Note_on_c, 2, 66, 0
8, 10979, Note_on_c, 2, 69, 0
8, 11040, Note_on_c, 2, 67, 92
8, 11040, Note_on_c, 2, 70, 92
8, 12104, Note_on_c, 2, 67, 0
8, 12104, Note_on_c, 2, 70, 0
8, 12120, Note_on_c, 2, 70, 92
8, 12120, Note_on_c, 2, 67, 92
8, 12224, Note_on_c, 2, 70, 0
8, 12224, Note_on_c, 2, 67, 0
8, 12240, Note_on_c, 2, 70, 92
8, 12240, Note_on_c, 2, 67, 92
8, 12344, Note_on_c, 2, 70, 0
8, 12344, Note_on_c, 2, 67, 0
8, 12360, Note_on_c, 2, 70, 92
8, 12360, Note_on_c, 2, 67, 92
8, 12449, Note_on_c, 2, 70, 0
8, 12449, Note_on_c, 2, 67, 0
8, 12480, Note_on_c, 2, 67, 104
8, 12480, Note_on_c, 2, 70, 104
8, 12599, Note_on_c, 2, 67, 0
8, 12599, Note_on_c, 2, 70, 0
8, 12960, Note_on_c, 2, 67, 44
8, 12960, Note_on_c, 2, 64, 44
8, 13199, Note_on_c, 2, 67, 0
8, 13199, Note_on_c, 2, 64, 0
8, 13200, Note_on_c, 2, 61, 44
8, 13200, Note_on_c, 2, 64, 44
8, 13409, Note_on_c, 2, 61, 0
8, 13409, Note_on_c, 2, 64, 0
8, 13410, Note_on_c, 2, 62, 44
8, 13410, Note_on_c, 2, 65, 44
8, 13431, Note_on_c, 2, 62, 0
8, 13431, Note_on_c, 2, 65, 0
8, 13440, Note_on_c, 2, 62, 44
8, 13440, Note_on_c, 2, 65, 44
8, 13559, Note_on_c, 2, 62, 0
8, 13559, Note_on_c, 2, 65, 0
8, 13920, Note_on_c, 2, 65, 44
8, 13920, Note_on_c, 2, 69, 44
8, 14159, Note_on_c, 2, 65, 0
8, 14159, Note_on_c, 2, 69, 0
8, 14160, Note_on_c, 2, 62, 44
8, 14160, Note_on_c, 2, 65, 44
8, 14369, Note_on_c, 2, 62, 0
8, 14369, Note_on_c, 2, 65, 0
8, 14370, Note_on_c, 2, 67, 44
8, 14370, Note_on_c, 2, 64, 44
8, 14391, Note_on_c, 2, 67, 0
8, 14391, Note_on_c, 2, 64, 0
8, 14400, Note_on_c, 2, 64, 80
8, 14400, Note_on_c, 2, 67, 80
8, 14519, Note_on_c, 2, 64, 0
8, 14519, Note_on_c, 2, 67, 0
8, 14640, Note_on_c, 2, 70, 92
8, 14640, Note_on_c, 2, 82, 92
8, 14700, Control_c, 2, 11, 109
8, 15104, Note_on_c, 2, 70, 0
8, 15104, Note_on_c, 2, 82, 0
8, 15118, Control_c, 2, 11, 127
8, 15120, Note_on_c, 2, 77, 92
8, 15120, Note_on_c, 2, 74, 92
8, 15180, Control_c, 2, 11, 109
8, 15584, Note_on_c, 2, 77, 0
8, 15584, Note_on_c, 2, 74, 0
8, 15598, Control_c, 2, 11, 127
8, 15600, Note_on_c, 2, 77, 92
8, 15600, Note_on_c, 2, 74, 92
8, 15719, Note_on_c, 2, 77, 0
8, 15719, Note_on_c, 2, 74, 0
8, 15840, Note_on_c, 2, 69, 92
8, 15840, Note_on_c, 2, 81, 92
8, 16304, Note_on_c, 2, 69, 0
8, 16304, Note_on_c, 2, 81, 0
8, 16320, Note_on_c, 2, 62, 92
8, 16320, Control_c, 2, 11, 109
8, 16320, Note_on_c, 2, 69, 92
8, 16347, Control_c, 2, 11, 104
8, 16373, Control_c, 2, 11, 100
8, 16400, Control_c, 2, 11, 95
8, 16427, Control_c, 2, 11, 91
8, 16453, Control_c, 2, 11, 86
8, 16480, Control_c, 2, 11, 82
8, 16507, Control_c, 2, 11, 77
8, 16533, Control_c, 2, 11, 74
8, 16560, Control_c, 2, 11, 69
8, 16587, Control_c, 2, 11, 64
8, 16613, Control_c, 2, 11, 60
8, 16640, Control_c, 2, 11, 55
8, 16667, Control_c, 2, 11, 51
8, 16693, Control_c, 2, 11, 46
8, 16720, Control_c, 2, 11, 42
8, 16747, Control_c, 2, 11, 37
8, 16773, Control_c, 2, 11, 34
8, 16800, Control_c, 2, 11, 29
8, 18719, Note_on_c, 2, 62, 0
8, 18719, Note_on_c, 2, 69, 0
8, 18720, Note_on_c, 2, 62, 92
8, 18720, Note_on_c, 2, 69, 92
8, 21119, Note_on_c, 2, 62, 0
8, 21119, Note_on_c, 2, 69, 0
8, 21120, Note_on_c, 2, 62, 92
8, 21120, Note_on_c, 2, 69, 92
8, 21120, Control_c, 2, 11, 29
8, 21156, Control_c, 2, 11, 30
8, 21193, Control_c, 2, 11, 31
8, 21229, Control_c, 2, 11, 32
8, 21266, Control_c, 2, 11, 34
8, 21302, Control_c, 2, 11, 35
8, 21339, Control_c, 2, 11, 36
8, 21375, Control_c, 2, 11, 37
8, 21412, Control_c, 2, 11, 39
8, 21448, Control_c, 2, 11, 40
8, 21485, Control_c, 2, 11, 41
8, 21521, Control_c, 2, 11, 42
8, 21557, Control_c, 2, 11, 44
8, 21594, Control_c, 2, 11, 45
8, 21630, Control_c, 2, 11, 46
8, 21667, Control_c, 2, 11, 47
8, 21703, Control_c, 2, 11, 49
8, 21740, Control_c, 2, 11, 50
8, 21776, Control_c, 2, 11, 51
8, 21813, Control_c, 2, 11, 52
8, 21849, Control_c, 2, 11, 54
8, 21886, Control_c, 2, 11, 55
8, 21922, Control_c, 2, 11, 56
8, 21958, Control_c, 2, 11, 57
8, 21995, Control_c, 2, 11, 59
8, 22031, Control_c, 2, 11, 60
8, 22068, Control_c, 2, 11, 61
8, 22104, Control_c, 2, 11, 62
8, 22141, Control_c, 2, 11, 64
8, 22177, Control_c, 2, 11, 65
8, 22214, Control_c, 2, 11, 66
8, 22250, Control_c, 2, 11, 67
8, 22287, Control_c, 2, 11, 69
8, 22323, Control_c, 2, 11, 70
8, 22359, Control_c, 2, 11, 71
8, 22396, Control_c, 2, 11, 72
8, 22432, Control_c, 2, 11, 74
8, 22469, Control_c, 2, 11, 75
8, 22505, Control_c, 2, 11, 76
8, 22542, Control_c, 2, 11, 77
8, 22578, Control_c, 2, 11, 79
8, 22615, Control_c, 2, 11, 80
8, 22651, Control_c, 2, 11, 81
8, 22688, Control_c, 2, 11, 82
8, 22724, Control_c, 2, 11, 84
8, 22761, Control_c, 2, 11, 85
8, 22797, Control_c, 2, 11, 86
8, 22833, Control_c, 2, 11, 87
8, 22870, Control_c, 2, 11, 89
8, 22904, Note_on_c, 2, 69, 0
8, 22906, Control_c, 2, 11, 90
8, 22920, Note_on_c, 2, 74, 92
8, 22943, Control_c, 2, 11, 91
8, 22979, Control_c, 2, 11, 92
8, 23016, Control_c, 2, 11, 94
8, 23052, Control_c, 2, 11, 95
8, 23089, Control_c, 2, 11, 96
8, 23125, Control_c, 2, 11, 97
8, 23162, Control_c, 2, 11, 99
8, 23198, Control_c, 2, 11, 100
8, 23234, Control_c, 2, 11, 101
8, 23271, Control_c, 2, 11, 102
8, 23307, Control_c, 2, 11, 104
8, 23344, Control_c, 2, 11, 105
8, 23380, Control_c, 2, 11, 106
8, 23417, Control_c, 2, 11, 107
8, 23453, Control_c, 2, 11, 109
8, 23490, Control_c, 2, 11, 110
8, 23526, Control_c, 2, 11, 111
8, 23563, Control_c, 2, 11, 112
8, 23599, Control_c, 2, 11, 114
8, 23635, Control_c, 2, 11, 115
8, 23672, Control_c, 2, 11, 116
8, 23708, Control_c, 2, 11, 117
8, 23745, Control_c, 2, 11, 119
8, 23781, Control_c, 2, 11, 120
8, 23818, Control_c, 2, 11, 121
8, 23854, Control_c, 2, 11, 122
8, 23891, Control_c, 2, 11, 124
8, 23927, Control_c, 2, 11, 125
8, 23961, Note_on_c, 2, 62, 0
8, 23961, Note_on_c, 2, 74, 0
8, 23964, Control_c, 2, 11, 127
8, 23970, Note_on_c, 2, 82, 92
8, 23970, Note_on_c, 2, 70, 92
8, 23991, Note_on_c, 2, 82, 0
8, 23991, Note_on_c, 2, 70, 0
8, 24000, Note_on_c, 2, 77, 92
8, 24000, Note_on_c, 2, 65, 92
8, 24441, Note_on_c, 2, 77, 0
8, 24441, Note_on_c, 2, 65, 0
8, 24450, Note_on_c, 2, 74, 92
8, 24450, Note_on_c, 2, 62, 92
8, 24471, Note_on_c, 2, 74, 0
8, 24471, Note_on_c, 2, 62, 0
8, 24480, Note_on_c, 2, 82, 92
8, 24480, Note_on_c, 2, 70, 92
8, 24681, Note_on_c, 2, 82, 0
8, 24681, Note_on_c, 2, 70, 0
8, 24690, Note_on_c, 2, 77, 92
8, 24690, Note_on_c, 2, 65, 92
8, 24711, Note_on_c, 2, 77, 0
8, 24711, Note_on_c, 2, 65, 0
8, 24720, Note_on_c, 2, 62, 92
8, 24720, Note_on_c, 2, 74, 92
8, 24891, Note_on_c, 2, 62, 0
8, 24891, Note_on_c, 2, 74, 0
8, 24900, Note_on_c, 2, 65, 92
8, 24900, Note_on_c, 2, 77, 92
8, 24929, Note_on_c, 2, 65, 0
8, 24929, Note_on_c, 2, 77, 0
8, 24930, Note_on_c, 2, 62, 92
8, 24930, Note_on_c, 2, 74, 92
8, 24951, Note_on_c, 2, 62, 0
8, 24951, Note_on_c, 2, 74, 0
8, 24960, Note_on_c, 2, 58, 92
8, 24960, Note_on_c, 2, 70, 92
8, 25244, Note_on_c, 2, 58, 0
8, 25244, Note_on_c, 2, 70, 0
8, 25260, Note_on_c, 2, 74, 92
8, 25260, Note_on_c, 2, 62, 92
8, 25304, Note_on_c, 2, 74, 0
8, 25304, Note_on_c, 2, 62, 0
8, 25320, Note_on_c, 2, 72, 92
8, 25320, Note_on_c, 2, 60, 92
8, 25364, Note_on_c, 2, 72, 0
8, 25364, Note_on_c, 2, 60, 0
8, 25380, Note_on_c, 2, 70, 92
8, 25380, Note_on_c, 2, 58, 92
8, 25424, Note_on_c, 2, 70, 0
8, 25424, Note_on_c, 2, 58, 0
8, 25440, Note_on_c, 2, 65, 92
8, 25440, Note_on_c, 2, 77, 92
8, 25529, Note_on_c, 2, 65, 0
8, 25529, Note_on_c, 2, 77, 0
8, 25560, Note_on_c, 2, 63, 92
8, 25560, Note_on_c, 2, 75, 92
8, 25649, Note_on_c, 2, 63, 0
8, 25649, Note_on_c, 2, 75, 0
8, 25680, Note_on_c, 2, 60, 92
8, 25680, Note_on_c, 2, 72, 92
8, 25769, Note_on_c, 2, 60, 0
8, 25769, Note_on_c, 2, 72, 0
8, 25800, Note_on_c, 2, 65, 92
8, 25800, Note_on_c, 2, 77, 92
8, 25889, Note_on_c, 2, 65, 0
8, 25889, Note_on_c, 2, 77, 0
8, 25920, Note_on_c, 2, 74, 92
8, 25920, Note_on_c, 2, 62, 92
8, 26039, Note_on_c, 2, 74, 0
8, 26039, Note_on_c, 2, 62, 0
8, 26460, Note_on_c, 2, 77, 92
8, 26460, Note_on_c, 2, 65, 92
8, 26504, Note_on_c, 2, 77, 0
8, 26504, Note_on_c, 2, 65, 0
8, 26520, Note_on_c, 2, 63, 92
8, 26520, Note_on_c, 2, 75, 92
8, 26564, Note_on_c, 2, 63, 0
8, 26564, Note_on_c, 2, 75, 0
8, 26580, Note_on_c, 2, 62, 92
8, 26580, Note_on_c, 2, 74, 92
8, 26624, Note_on_c, 2, 62, 0
8, 26624, Note_on_c, 2, 74, 0
8, 26640, Note_on_c, 2, 82, 92
8, 26640, Note_on_c, 2, 70, 92
8, 26759, Note_on_c, 2, 82, 0
8, 26759, Note_on_c, 2, 70, 0
8, 26880, Note_on_c, 2, 76, 104
8, 26880, Note_on_c, 2, 64, 104
8, 26999, Note_on_c, 2, 76, 0
8, 26999, Note_on_c, 2, 64, 0
8, 27420, Note_on_c, 2, 67, 92
8, 27420, Note_on_c, 2, 79, 92
8, 27464, Note_on_c, 2, 67, 0
8, 27464, Note_on_c, 2, 79, 0
8, 27480, Note_on_c, 2, 65, 92
8, 27480, Note_on_c, 2, 77, 92
8, 27524, Note_on_c, 2, 65, 0
8, 27524, Note_on_c, 2, 77, 0
8, 27540, Note_on_c, 2, 64, 92
8, 27540, Note_on_c, 2, 76, 92
8, 27584, Note_on_c, 2, 64, 0
8, 27584, Note_on_c, 2, 76, 0
8, 27600, Note_on_c, 2, 73, 92
8, 27719, Note_on_c, 2, 73, 0
8, 27840, Note_on_c, 2, 77, 104
8, 27840, Note_on_c, 2, 65, 104
8, 27959, Note_on_c, 2, 77, 0
8, 27959, Note_on_c, 2, 65, 0
8, 28380, Note_on_c, 2, 81, 92
8, 28380, Note_on_c, 2, 69, 92
8, 28424, Note_on_c, 2, 81, 0
8, 28424, Note_on_c, 2, 69, 0
8, 28440, Note_on_c, 2, 79, 92
8, 28440, Note_on_c, 2, 67, 92
8, 28484, Note_on_c, 2, 79, 0
8, 28484, Note_on_c, 2, 67, 0
8, 28500, Note_on_c, 2, 77, 92
8, 28500, Note_on_c, 2, 65, 92
8, 28544, Note_on_c, 2, 77, 0
8, 28544, Note_on_c, 2, 65, 0
8, 28560, Note_on_c, 2, 86, 92
8, 28560, Note_on_c, 2, 74, 92
8, 28679, Note_on_c, 2, 86, 0
8, 28679, Note_on_c, 2, 74, 0
8, 28860, Note_on_c, 2, 69, 92
8, 28860, Note_on_c, 2, 81, 92
8, 28904, Note_on_c, 2, 69, 0
8, 28904, Note_on_c, 2, 81, 0
8, 28920, Note_on_c, 2, 79, 92
8, 28920, Note_on_c, 2, 67, 92
8, 28964, Note_on_c, 2, 79, 0
8, 28964, Note_on_c, 2, 67, 0
8, 28980, Note_on_c, 2, 66, 92
8, 28980, Note_on_c, 2, 78, 92
8, 29024, Note_on_c, 2, 66, 0
8, 29024, Note_on_c, 2, 78, 0
8, 29040, Note_on_c, 2, 86, 104
8, 29040, Note_on_c, 2, 74, 104
8, 29084, Note_on_c, 2, 86, 0
8, 29084, Note_on_c, 2, 74, 0
8, 29100, Note_on_c, 2, 82, 92
8, 29100, Note_on_c, 2, 70, 92
8, 29144, Note_on_c, 2, 82, 0
8, 29144, Note_on_c, 2, 70, 0
8, 29160, Note_on_c, 2, 69, 92
8, 29160, Note_on_c, 2, 81, 92
8, 29204, Note_on_c, 2, 69, 0
8, 29204, Note_on_c, 2, 81, 0
8, 29220, Note_on_c, 2, 67, 92
8, 29220, Note_on_c, 2, 79, 92
8, 29264, Note_on_c, 2, 67, 0
8, 29264, Note_on_c, 2, 79, 0
8, 29280, Note_on_c, 2, 86, 104
8, 29280, Note_on_c, 2, 74, 104
8, 29324, Note_on_c, 2, 86, 0
8, 29324, Note_on_c, 2, 74, 0
8, 29340, Note_on_c, 2, 70, 92
8, 29340, Note_on_c, 2, 58, 92
8, 29384, Note_on_c, 2, 70, 0
8, 29384, Note_on_c, 2, 58, 0
8, 29400, Note_on_c, 2, 57, 92
8, 29400, Note_on_c, 2, 69, 92
8, 29444, Note_on_c, 2, 57, 0
8, 29444, Note_on_c, 2, 69, 0
8, 29460, Note_on_c, 2, 67, 92
8, 29460, Note_on_c, 2, 55, 92
8, 29504, Note_on_c, 2, 67, 0
8, 29504, Note_on_c, 2, 55, 0
8, 29520, Note_on_c, 2, 56, 104
8, 29520, Note_on_c, 2, 68, 104
8, 29564, Note_on_c, 2, 56, 0
8, 29564, Note_on_c, 2, 68, 0
8, 29580, Note_on_c, 2, 65, 92
8, 29580, Note_on_c, 2, 74, 92
8, 29624, Note_on_c, 2, 65, 0
8, 29624, Note_on_c, 2, 74, 0
8, 29640, Note_on_c, 2, 65, 92
8, 29640, Note_on_c, 2, 74, 92
8, 29684, Note_on_c, 2, 65, 0
8, 29684, Note_on_c, 2, 74, 0
8, 29700, Note_on_c, 2, 65, 92
8, 29700, Note_on_c, 2, 74, 92
8, 29744, Note_on_c, 2, 65, 0
8, 29744, Note_on_c, 2, 74, 0
8, 29760, Note_on_c, 2, 57, 104
8, 29760, Note_on_c, 2, 69, 104
8, 29820, Control_c, 2, 11, 109
8, 30704, Note_on_c, 2, 57, 0
8, 30704, Note_on_c, 2, 69, 0
8, 30718, Control_c, 2, 11, 127
8, 30720, Note_on_c, 2, 73, 92
8, 30720, Note_on_c, 2, 61, 92
8, 30809, Note_on_c, 2, 73, 0
8, 30809, Note_on_c, 2, 61, 0
8, 30840, Note_on_c, 2, 62, 92
8, 30840, Note_on_c, 2, 74, 92
8, 30929, Note_on_c, 2, 62, 0
8, 30929, Note_on_c, 2, 74, 0
8, 30960, Note_on_c, 2, 73, 92
8, 30960, Note_on_c, 2, 76, 92
8, 31049, Note_on_c, 2, 73, 0
8, 31049, Note_on_c, 2, 76, 0
8, 31080, Note_on_c, 2, 74, 92
8, 31080, Note_on_c, 2, 77, 92
8, 31169, Note_on_c, 2, 74, 0
8, 31169, Note_on_c, 2, 77, 0
8, 31200, Note_on_c, 2, 76, 104
8, 31200, Note_on_c, 2, 79, 104
8, 31379, Note_on_c, 2, 76, 0
8, 31379, Note_on_c, 2, 79, 0
8, 31440, Note_on_c, 2, 74, 104
8, 31440, Note_on_c, 2, 77, 104
8, 31619, Note_on_c, 2, 74, 0
8, 31619, Note_on_c, 2, 77, 0
8, 31680, Note_on_c, 2, 76, 104
8, 31680, Note_on_c, 2, 73, 104
8, 31859, Note_on_c, 2, 76, 0
8, 31859, Note_on_c, 2, 73, 0
8, 32160, Note_on_c, 2, 69, 104
8, 32220, Control_c, 2, 11, 107
8, 32624, Note_on_c, 2, 69, 0
8, 32640, Note_on_c, 2, 67, 104
8, 32729, Note_on_c, 2, 67, 0
8, 32760, Note_on_c, 2, 65, 104
8, 32849, Note_on_c, 2, 65, 0
8, 32880, Note_on_c, 2, 64, 104
8, 32969, Note_on_c, 2, 64, 0
8, 33000, Note_on_c, 2, 62, 104
8, 33089, Note_on_c, 2, 62, 0
8, 33120, Note_on_c, 2, 61, 104
8, 33209, Note_on_c, 2, 61, 0
8, 33240, Note_on_c, 2, 62, 104
8, 33329, Note_on_c, 2, 62, 0
8, 33360, Note_on_c, 2, 64, 104
8, 33449, Note_on_c, 2, 64, 0
8, 33480, Note_on_c, 2, 65, 104
8, 33569, Note_on_c, 2, 65, 0
8, 33598, Control_c, 2, 11, 127
8, 33600, Note_on_c, 2, 67, 104
8, 33779, Note_on_c, 2, 67, 0
8, 33840, Note_on_c, 2, 67, 104
8, 33840, Note_on_c, 2, 70, 104
8, 34019, Note_on_c, 2, 67, 0
8, 34019, Note_on_c, 2, 70, 0
8, 34080, Note_on_c, 2, 72, 104
8, 34259, Note_on_c, 2, 72, 0
8, 34320, Note_on_c, 2, 70, 104
8, 34499, Note_on_c, 2, 70, 0
8, 34560, Note_on_c, 2, 75, 92
8, 34560, Control_c, 2, 11, 127
8, 34560, Note_on_c, 2, 78, 92
8, 34587, Control_c, 2, 11, 123
8, 34613, Control_c, 2, 11, 118
8, 34640, Control_c, 2, 11, 114
8, 34667, Control_c, 2, 11, 109
8, 34693, Control_c, 2, 11, 105
8, 34720, Control_c, 2, 11, 100
8, 34739, Note_on_c, 2, 75, 0
8, 34739, Note_on_c, 2, 78, 0
8, 34747, Control_c, 2, 11, 96
8, 34773, Control_c, 2, 11, 91
8, 34800, Control_c, 2, 11, 87
8, 34800, Note_on_c, 2, 77, 92
8, 34800, Note_on_c, 2, 75, 92
8, 34827, Control_c, 2, 11, 83
8, 34853, Control_c, 2, 11, 78
8, 34880, Control_c, 2, 11, 74
8, 34907, Control_c, 2, 11, 69
8, 34933, Control_c, 2, 11, 65
8, 34960, Control_c, 2, 11, 60
8, 34979, Note_on_c, 2, 77, 0
8, 34979, Note_on_c, 2, 75, 0
8, 35038, Control_c, 2, 11, 127
8, 35040, Note_on_c, 2, 75, 40
8, 35040, Note_on_c, 2, 72, 40
8, 35399, Note_on_c, 2, 75, 0
8, 35399, Note_on_c, 2, 72, 0
8, 35400, Note_on_c, 2, 74, 40
8, 35400, Note_on_c, 2, 77, 40
8, 35459, Note_on_c, 2, 74, 0
8, 35459, Note_on_c, 2, 77, 0
8, 35460, Note_on_c, 2, 75, 40
8, 35460, Note_on_c, 2, 79, 40
8, 35511, Note_on_c, 2, 75, 0
8, 35511, Note_on_c, 2, 79, 0
8, 35520, Note_on_c, 2, 75, 40
8, 35520, Note_on_c, 2, 79, 40
8, 35639, Note_on_c, 2, 75, 0
8, 35639, Note_on_c, 2, 79, 0
8, 35640, Note_on_c, 2, 77, 40
8, 35640, Note_on_c, 2, 74, 40
8, 35699, Note_on_c, 2, 77, 0
8, 35699, Note_on_c, 2, 74, 0
8, 35700, Note_on_c, 2, 72, 40
8, 35700, Note_on_c, 2, 75, 40
8, 35751, Note_on_c, 2, 72, 0
8, 35751, Note_on_c, 2, 75, 0
8, 35760, Note_on_c, 2, 72, 40
8, 35760, Note_on_c, 2, 75, 40
8, 35879, Note_on_c, 2, 72, 0
8, 35879, Note_on_c, 2, 75, 0
8, 35880, Note_on_c, 2, 74, 40
8, 35880, Note_on_c, 2, 70, 40
8, 35939, Note_on_c, 2, 74, 0
8, 35939, Note_on_c, 2, 70, 0
8, 35940, Note_on_c, 2, 69, 40
8, 35940, Note_on_c, 2, 72, 40
8, 35991, Note_on_c, 2, 69, 0
8, 35991, Note_on_c, 2, 72, 0
8, 36000, Note_on_c, 2, 65, 40
8, 36000, Note_on_c, 2, 72, 40
8, 36119, Note_on_c, 2, 72, 0
8, 36120, Note_on_c, 2, 70, 40
8, 36239, Note_on_c, 2, 65, 0
8, 36239, Note_on_c, 2, 70, 0
8, 36960, Note_on_c, 2, 75, 40
8, 36960, Note_on_c, 2, 72, 40
8, 37319, Note_on_c, 2, 75, 0
8, 37319, Note_on_c, 2, 72, 0
8, 37320, Note_on_c, 2, 77, 40
8, 37320, Note_on_c, 2, 74, 40
8, 37379, Note_on_c, 2, 77, 0
8, 37379, Note_on_c, 2, 74, 0
8, 37380, Note_on_c, 2, 79, 40
8, 37380, Note_on_c, 2, 75, 40
8, 37431, Note_on_c, 2, 79, 0
8, 37431, Note_on_c, 2, 75, 0
8, 37440, Note_on_c, 2, 75, 40
8, 37440, Note_on_c, 2, 79, 40
8, 37559, Note_on_c, 2, 75, 0
8, 37559, Note_on_c, 2, 79, 0
8, 37560, Note_on_c, 2, 77, 40
8, 37560, Note_on_c, 2, 74, 40
8, 37619, Note_on_c, 2, 77, 0
8, 37619, Note_on_c, 2, 74, 0
8, 37620, Note_on_c, 2, 75, 40
8, 37620, Note_on_c, 2, 72, 40
8, 37671, Note_on_c, 2, 75, 0
8, 37671, Note_on_c, 2, 72, 0
8, 37680, Note_on_c, 2, 75, 40
8, 37680, Note_on_c, 2, 72, 40
8, 37799, Note_on_c, 2, 75, 0
8, 37799, Note_on_c, 2, 72, 0
8, 37800, Note_on_c, 2, 65, 40
8, 37800, Note_on_c, 2, 74, 40
8, 37859, Note_on_c, 2, 74, 0
8, 37860, Note_on_c, 2, 72, 40
8, 37904, Note_on_c, 2, 65, 0
8, 37911, Note_on_c, 2, 72, 0
8, 37920, Note_on_c, 2, 65, 44
8, 37920, Note_on_c, 2, 74, 44
8, 38159, Note_on_c, 2, 65, 0
8, 38264, Note_on_c, 2, 74, 0
8, 38280, Note_on_c, 2, 79, 50
8, 38384, Note_on_c, 2, 79, 0
8, 38400, Note_on_c, 2, 77, 44
8, 38639, Note_on_c, 2, 77, 0
8, 38880, Note_on_c, 2, 69, 44
8, 39224, Note_on_c, 2, 69, 0
8, 39240, Note_on_c, 2, 75, 50
8, 39344, Note_on_c, 2, 75, 0
8, 39360, Note_on_c, 2, 72, 44
8, 39599, Note_on_c, 2, 72, 0
8, 39840, Control_c, 2, 11, 87
8, 39960, Note_on_c, 2, 62, 68
8, 39983, Control_c, 2, 11, 88
8, 40007, Control_c, 2, 11, 89
8, 40030, Control_c, 2, 11, 90
8, 40053, Control_c, 2, 11, 91
8, 40077, Control_c, 2, 11, 93
8, 40100, Control_c, 2, 11, 94
8, 40123, Control_c, 2, 11, 95
8, 40147, Control_c, 2, 11, 96
8, 40170, Control_c, 2, 11, 97
8, 40193, Control_c, 2, 11, 98
8, 40199, Note_on_c, 2, 62, 0
8, 40200, Note_on_c, 2, 67, 68
8, 40217, Control_c, 2, 11, 99
8, 40240, Control_c, 2, 11, 100
8, 40259, Note_on_c, 2, 67, 0
8, 40260, Note_on_c, 2, 65, 68
8, 40263, Control_c, 2, 11, 101
8, 40287, Control_c, 2, 11, 103
8, 40310, Control_c, 2, 11, 104
8, 40319, Note_on_c, 2, 65, 0
8, 40333, Control_c, 2, 11, 105
8, 40357, Control_c, 2, 11, 106
8, 40380, Control_c, 2, 11, 107
8, 40403, Control_c, 2, 11, 108
8, 40427, Control_c, 2, 11, 109
8, 40440, Note_on_c, 2, 65, 68
8, 40450, Control_c, 2, 11, 110
8, 40473, Control_c, 2, 11, 111
8, 40497, Control_c, 2, 11, 113
8, 40520, Control_c, 2, 11, 114
8, 40543, Control_c, 2, 11, 115
8, 40567, Control_c, 2, 11, 116
8, 40590, Control_c, 2, 11, 117
8, 40613, Control_c, 2, 11, 118
8, 40637, Control_c, 2, 11, 119
8, 40660, Control_c, 2, 11, 120
8, 40679, Note_on_c, 2, 65, 0
8, 40680, Note_on_c, 2, 72, 68
8, 40683, Control_c, 2, 11, 121
8, 40707, Control_c, 2, 11, 123
8, 40730, Control_c, 2, 11, 124
8, 40739, Note_on_c, 2, 72, 0
8, 40740, Note_on_c, 2, 70, 68
8, 40753, Control_c, 2, 11, 125
8, 40777, Control_c, 2, 11, 127
8, 40799, Note_on_c, 2, 70, 0
8, 40920, Control_c, 2, 11, 127
8, 40920, Note_on_c, 2, 69, 68
8, 40943, Control_c, 2, 11, 126
8, 40967, Control_c, 2, 11, 125
8, 40990, Control_c, 2, 11, 124
8, 41013, Control_c, 2, 11, 123
8, 41037, Control_c, 2, 11, 121
8, 41060, Control_c, 2, 11, 120
8, 41083, Control_c, 2, 11, 119
8, 41107, Control_c, 2, 11, 118
8, 41130, Control_c, 2, 11, 117
8, 41153, Control_c, 2, 11, 116
8, 41159, Note_on_c, 2, 69, 0
8, 41160, Note_on_c, 2, 74, 68
8, 41177, Control_c, 2, 11, 115
8, 41200, Control_c, 2, 11, 114
8, 41219, Note_on_c, 2, 74, 0
8, 41220, Note_on_c, 2, 72, 68
8, 41223, Control_c, 2, 11, 113
8, 41247, Control_c, 2, 11, 111
8, 41270, Control_c, 2, 11, 110
8, 41279, Note_on_c, 2, 72, 0
8, 41760, Control_c, 2, 11, 127
8, 41880, Note_on_c, 2, 76, 44
8, 41999, Note_on_c, 2, 76, 0
8, 42000, Note_on_c, 2, 77, 44
8, 42120, Note_on_c, 2, 70, 44
8, 42239, Note_on_c, 2, 70, 0
8, 42240, Note_on_c, 2, 71, 44
8, 42344, Note_on_c, 2, 77, 0
8, 42359, Note_on_c, 2, 71, 0
8, 42360, Note_on_c, 2, 72, 44
8, 42360, Note_on_c, 2, 77, 44
8, 42464, Note_on_c, 2, 72, 0
8, 42464, Note_on_c, 2, 77, 0
8, 42480, Note_on_c, 2, 72, 44
8, 42480, Note_on_c, 2, 77, 44
8, 42584, Note_on_c, 2, 72, 0
8, 42584, Note_on_c, 2, 77, 0
8, 42600, Note_on_c, 2, 72, 44
8, 42600, Note_on_c, 2, 77, 44
8, 42719, Note_on_c, 2, 72, 0
8, 42719, Note_on_c, 2, 77, 0
8, 42840, Note_on_c, 2, 73, 44
8, 42959, Note_on_c, 2, 73, 0
8, 42960, Note_on_c, 2, 74, 44
8, 43080, Note_on_c, 2, 67, 44
8, 43199, Note_on_c, 2, 67, 0
8, 43200, Note_on_c, 2, 68, 44
8, 43304, Note_on_c, 2, 74, 0
8, 43319, Note_on_c, 2, 68, 0
8, 43320, Note_on_c, 2, 69, 44
8, 43320, Note_on_c, 2, 74, 44
8, 43424, Note_on_c, 2, 69, 0
8, 43424, Note_on_c, 2, 74, 0
8, 43440, Note_on_c, 2, 69, 44
8, 43440, Note_on_c, 2, 74, 44
8, 43544, Note_on_c, 2, 69, 0
8, 43544, Note_on_c, 2, 74, 0
8, 43560, Note_on_c, 2, 74, 44
8, 43560, Note_on_c, 2, 69, 44
8, 43664, Note_on_c, 2, 74, 0
8, 43664, Note_on_c, 2, 69, 0
8, 43680, Note_on_c, 2, 74, 60
8, 43680, Note_on_c, 2, 70, 60
8, 43799, Note_on_c, 2, 74, 0
8, 43799, Note_on_c, 2, 70, 0
8, 44460, Note_on_c, 2, 70, 73
8, 44460, Note_on_c, 2, 74, 73
8, 44519, Note_on_c, 2, 70, 0
8, 44519, Note_on_c, 2, 74, 0
8, 44520, Note_on_c, 2, 70, 75
8, 44520, Note_on_c, 2, 75, 75
8, 44571, Note_on_c, 2, 70, 0
8, 44571, Note_on_c, 2, 75, 0
8, 44580, Note_on_c, 2, 77, 77
8, 44580, Note_on_c, 2, 74, 77
8, 44639, Note_on_c, 2, 77, 0
8, 44639, Note_on_c, 2, 74, 0
8, 44640, Note_on_c, 2, 79, 80
8, 44640, Note_on_c, 2, 67, 80
8, 44691, Note_on_c, 2, 79, 0
8, 44691, Note_on_c, 2, 67, 0
8, 44700, Note_on_c, 2, 70, 80
8, 44700, Note_on_c, 2, 82, 80
8, 44811, Note_on_c, 2, 70, 0
8, 44811, Note_on_c, 2, 82, 0
8, 44820, Note_on_c, 2, 70, 80
8, 44820, Note_on_c, 2, 82, 80
8, 44931, Note_on_c, 2, 70, 0
8, 44931, Note_on_c, 2, 82, 0
8, 44940, Note_on_c, 2, 70, 80
8, 44940, Note_on_c, 2, 82, 80
8, 45051, Note_on_c, 2, 70, 0
8, 45051, Note_on_c, 2, 82, 0
8, 45060, Note_on_c, 2, 82, 80
8, 45060, Note_on_c, 2, 70, 80
8, 45119, Note_on_c, 2, 82, 0
8, 45119, Note_on_c, 2, 70, 0
8, 45120, Note_on_c, 2, 70, 80
8, 45120, Note_on_c, 2, 82, 80
8, 45224, Note_on_c, 2, 70, 0
8, 45224, Note_on_c, 2, 82, 0
8, 45240, Note_on_c, 2, 74, 80
8, 45240, Note_on_c, 2, 70, 80
8, 45329, Note_on_c, 2, 74, 0
8, 45329, Note_on_c, 2, 70, 0
8, 45480, Note_on_c, 2, 72, 80
8, 45480, Note_on_c, 2, 69, 80
8, 45569, Note_on_c, 2, 72, 0
8, 45569, Note_on_c, 2, 69, 0
8, 45598, Control_c, 2, 11, 107
8, 45600, Note_on_c, 2, 70, 56
8, 45600, Note_on_c, 2, 82, 56
8, 45959, Note_on_c, 2, 70, 0
8, 45959, Note_on_c, 2, 82, 0
8, 45960, Note_on_c, 2, 69, 56
8, 45960, Note_on_c, 2, 81, 56
8, 46079, Note_on_c, 2, 69, 0
8, 46079, Note_on_c, 2, 81, 0
8, 46080, Note_on_c, 2, 80, 56
8, 46080, Note_on_c, 2, 68, 56
8, 46131, Note_on_c, 2, 80, 0
8, 46131, Note_on_c, 2, 68, 0
8, 46140, Note_on_c, 2, 67, 56
8, 46140, Note_on_c, 2, 79, 56
8, 46199, Note_on_c, 2, 67, 0
8, 46199, Note_on_c, 2, 79, 0
8, 46200, Note_on_c, 2, 77, 56
8, 46200, Note_on_c, 2, 65, 56
8, 46251, Note_on_c, 2, 77, 0
8, 46251, Note_on_c, 2, 65, 0
8, 46260, Note_on_c, 2, 63, 56
8, 46260, Note_on_c, 2, 75, 56
8, 46319, Note_on_c, 2, 63, 0
8, 46319, Note_on_c, 2, 75, 0
8, 46320, Note_on_c, 2, 74, 56
8, 46320, Note_on_c, 2, 62, 56
8, 46371, Note_on_c, 2, 74, 0
8, 46371, Note_on_c, 2, 62, 0
8, 46380, Note_on_c, 2, 72, 56
8, 46380, Note_on_c, 2, 60, 56
8, 46439, Note_on_c, 2, 72, 0
8, 46439, Note_on_c, 2, 60, 0
8, 46440, Note_on_c, 2, 70, 56
8, 46440, Note_on_c, 2, 58, 56
8, 46491, Note_on_c, 2, 70, 0
8, 46491, Note_on_c, 2, 58, 0
8, 46500, Note_on_c, 2, 68, 56
8, 46500, Note_on_c, 2, 56, 56
8, 46559, Note_on_c, 2, 68, 0
8, 46559, Note_on_c, 2, 56, 0
8, 46560, Note_on_c, 2, 67, 56
8, 46560, Note_on_c, 2, 79, 56
8, 46608, Control_c, 2, 11, 108
8, 46656, Control_c, 2, 11, 109
8, 46704, Control_c, 2, 11, 110
8, 46752, Control_c, 2, 11, 111
8, 46800, Control_c, 2, 11, 112
8, 46848, Control_c, 2, 11, 113
8, 46896, Control_c, 2, 11, 114
8, 46919, Note_on_c, 2, 67, 0
8, 46919, Note_on_c, 2, 79, 0
8, 46920, Note_on_c, 2, 78, 56
8, 46920, Note_on_c, 2, 66, 56
8, 46944, Control_c, 2, 11, 115
8, 46992, Control_c, 2, 11, 116
8, 47039, Note_on_c, 2, 78, 0
8, 47039, Note_on_c, 2, 66, 0
8, 47040, Note_on_c, 2, 65, 56
8, 47040, Control_c, 2, 11, 117
8, 47040, Note_on_c, 2, 77, 56
8, 47088, Control_c, 2, 11, 118
8, 47091, Note_on_c, 2, 65, 0
8, 47091, Note_on_c, 2, 77, 0
8, 47100, Note_on_c, 2, 75, 56
8, 47100, Note_on_c, 2, 63, 56
8, 47136, Control_c, 2, 11, 119
8, 47159, Note_on_c, 2, 75, 0
8, 47159, Note_on_c, 2, 63, 0
8, 47160, Note_on_c, 2, 74, 56
8, 47160, Note_on_c, 2, 62, 56
8, 47184, Control_c, 2, 11, 120
8, 47211, Note_on_c, 2, 74, 0
8, 47211, Note_on_c, 2, 62, 0
8, 47220, Note_on_c, 2, 60, 56
8, 47220, Note_on_c, 2, 72, 56
8, 47232, Control_c, 2, 11, 121
8, 47279, Note_on_c, 2, 60, 0
8, 47279, Note_on_c, 2, 72, 0
8, 47280, Control_c, 2, 11, 122
8, 47280, Note_on_c, 2, 59, 56
8, 47280, Note_on_c, 2, 71, 56
8, 47328, Control_c, 2, 11, 123
8, 47331, Note_on_c, 2, 59, 0
8, 47331, Note_on_c, 2, 71, 0
8, 47340, Note_on_c, 2, 56, 56
8, 47340, Note_on_c, 2, 68, 56
8, 47376, Control_c, 2, 11, 124
8, 47399, Note_on_c, 2, 56, 0
8, 47399, Note_on_c, 2, 68, 0
8, 47400, Note_on_c, 2, 67, 56
8, 47400, Note_on_c, 2, 55, 56
8, 47424, Control_c, 2, 11, 125
8, 47451, Note_on_c, 2, 67, 0
8, 47451, Note_on_c, 2, 55, 0
8, 47460, Note_on_c, 2, 53, 56
8, 47460, Note_on_c, 2, 65, 56
8, 47472, Control_c, 2, 11, 127
8, 47519, Note_on_c, 2, 53, 0
8, 47519, Note_on_c, 2, 65, 0
8, 47520, Note_on_c, 2, 63, 56
8, 47520, Note_on_c, 2, 51, 56
8, 47571, Note_on_c, 2, 63, 0
8, 47571, Note_on_c, 2, 51, 0
8, 47580, Note_on_c, 2, 53, 58
8, 47639, Note_on_c, 2, 53, 0
8, 47640, Note_on_c, 2, 55, 60
8, 47691, Note_on_c, 2, 55, 0
8, 47700, Note_on_c, 2, 57, 62
8, 47759, Note_on_c, 2, 57, 0
8, 47760, Note_on_c, 2, 58, 65
8, 47811, Note_on_c, 2, 58, 0
8, 47820, Note_on_c, 2, 60, 67
8, 47879, Note_on_c, 2, 60, 0
8, 47880, Note_on_c, 2, 62, 69
8, 47931, Note_on_c, 2, 62, 0
8, 47940, Note_on_c, 2, 63, 71
8, 47999, Note_on_c, 2, 63, 0
8, 48000, Note_on_c, 2, 65, 74
8, 48051, Note_on_c, 2, 65, 0
8, 48060, Note_on_c, 2, 67, 76
8, 48119, Note_on_c, 2, 67, 0
8, 48120, Note_on_c, 2, 69, 78
8, 48171, Note_on_c, 2, 69, 0
8, 48180, Note_on_c, 2, 70, 80
8, 48239, Note_on_c, 2, 70, 0
8, 48240, Note_on_c, 2, 72, 83
8, 48291, Note_on_c, 2, 72, 0
8, 48300, Note_on_c, 2, 74, 85
8, 48359, Note_on_c, 2, 74, 0
8, 48360, Note_on_c, 2, 75, 87
8, 48411, Note_on_c, 2, 75, 0
8, 48420, Note_on_c, 2, 77, 89
8, 48464, Note_on_c, 2, 77, 0
8, 48480, Note_on_c, 2, 70, 92
8, 48480, Note_on_c, 2, 77, 92
8, 48569, Note_on_c, 2, 70, 0
8, 48569, Note_on_c, 2, 77, 0
8, 48600, Note_on_c, 2, 70, 92
8, 48600, Note_on_c, 2, 76, 92
8, 48666, Note_on_c, 2, 70, 0
8, 48666, Note_on_c, 2, 76, 0
8, 48690, Note_on_c, 2, 76, 92
8, 48690, Note_on_c, 2, 70, 92
8, 48711, Note_on_c, 2, 76, 0
8, 48711, Note_on_c, 2, 70, 0
8, 48720, Note_on_c, 2, 77, 92
8, 48720, Note_on_c, 2, 70, 92
8, 48839, Note_on_c, 2, 77, 0
8, 48839, Note_on_c, 2, 70, 0
8, 48960, Note_on_c, 2, 70, 92
8, 48960, Note_on_c, 2, 79, 92
8, 49049, Note_on_c, 2, 70, 0
8, 49049, Note_on_c, 2, 79, 0
8, 49080, Note_on_c, 2, 70, 92
8, 49080, Note_on_c, 2, 78, 92
8, 49146, Note_on_c, 2, 70, 0
8, 49146, Note_on_c, 2, 78, 0
8, 49170, Note_on_c, 2, 78, 92
8, 49170, Note_on_c, 2, 70, 92
8, 49191, Note_on_c, 2, 78, 0
8, 49191, Note_on_c, 2, 70, 0
8, 49200, Note_on_c, 2, 70, 92
8, 49200, Note_on_c, 2, 79, 92
8, 49319, Note_on_c, 2, 70, 0
8, 49319, Note_on_c, 2, 79, 0
8, 49440, Note_on_c, 2, 70, 40
8, 49440, Note_on_c, 2, 79, 40
8, 49799, Note_on_c, 2, 79, 0
8, 49800, Note_on_c, 2, 81, 40
8, 49859, Note_on_c, 2, 81, 0
8, 49860, Note_on_c, 2, 82, 40
8, 49904, Note_on_c, 2, 70, 0
8, 49911, Note_on_c, 2, 82, 0
8, 49920, Note_on_c, 2, 74, 40
8, 49920, Note_on_c, 2, 70, 40
8, 50159, Note_on_c, 2, 74, 0
8, 50159, Note_on_c, 2, 70, 0
8, 50160, Note_on_c, 2, 69, 40
8, 50160, Note_on_c, 2, 72, 40
8, 50384, Note_on_c, 2, 69, 0
8, 50384, Note_on_c, 2, 72, 0
8, 50400, Note_on_c, 2, 77, 92
8, 50400, Note_on_c, 2, 70, 92
8, 50489, Note_on_c, 2, 77, 0
8, 50489, Note_on_c, 2, 70, 0
8, 50520, Note_on_c, 2, 70, 92
8, 50520, Note_on_c, 2, 76, 92
8, 50586, Note_on_c, 2, 70, 0
8, 50586, Note_on_c, 2, 76, 0
8, 50610, Note_on_c, 2, 76, 92
8, 50610, Note_on_c, 2, 70, 92
8, 50631, Note_on_c, 2, 76, 0
8, 50631, Note_on_c, 2, 70, 0
8, 50640, Note_on_c, 2, 77, 92
8, 50640, Note_on_c, 2, 70, 92
8, 50759, Note_on_c, 2, 77, 0
8, 50759, Note_on_c, 2, 70, 0
8, 50880, Note_on_c, 2, 70, 92
8, 50880, Note_on_c, 2, 78, 92
8, 50969, Note_on_c, 2, 70, 0
8, 50969, Note_on_c, 2, 78, 0
8, 51000, Note_on_c, 2, 77, 92
8, 51000, Note_on_c, 2, 70, 92
8, 51066, Note_on_c, 2, 77, 0
8, 51066, Note_on_c, 2, 70, 0
8, 51090, Note_on_c, 2, 77, 92
8, 51090, Note_on_c, 2, 70, 92
8, 51111, Note_on_c, 2, 77, 0
8, 51111, Note_on_c, 2, 70, 0
8, 51120, Note_on_c, 2, 78, 92
8, 51120, Note_on_c, 2, 70, 92
8, 51239, Note_on_c, 2, 78, 0
8, 51239, Note_on_c, 2, 70, 0
8, 54960, Note_on_c, 2, 70, 32
8, 54960, Note_on_c, 2, 58, 32
8, 55079, Note_on_c, 2, 70, 0
8, 55079, Note_on_c, 2, 58, 0
8, 55200, Note_on_c, 2, 69, 32
8, 55200, Note_on_c, 2, 57, 32
8, 55319, Note_on_c, 2, 69, 0
8, 55319, Note_on_c, 2, 57, 0
8, 55440, Note_on_c, 2, 66, 32
8, 55559, Note_on_c, 2, 66, 0
8, 55560, Note_on_c, 2, 65, 32
8, 55679, Note_on_c, 2, 65, 0
8, 55920, Note_on_c, 2, 70, 32
8, 56039, Note_on_c, 2, 70, 0
8, 56040, Note_on_c, 2, 69, 32
8, 56159, Note_on_c, 2, 69, 0
8, 57600, Note_on_c, 2, 78, 32
8, 57899, Note_on_c, 2, 78, 0
8, 57900, Note_on_c, 2, 77, 32
8, 57959, Note_on_c, 2, 77, 0
8, 57960, Note_on_c, 2, 75, 32
8, 58019, Note_on_c, 2, 75, 0
8, 58020, Note_on_c, 2, 72, 32
8, 58079, Note_on_c, 2, 72, 0
8, 58560, Note_on_c, 2, 79, 32
8, 58859, Note_on_c, 2, 79, 0
8, 58860, Note_on_c, 2, 77, 32
8, 58919, Note_on_c, 2, 77, 0
8, 58920, Note_on_c, 2, 74, 32
8, 58979, Note_on_c, 2, 74, 0
8, 58980, Note_on_c, 2, 70, 32
8, 59039, Note_on_c, 2, 70, 0
8, 59472, Control_c, 2, 11, 56
8, 59520, Note_on_c, 2, 78, 80
8, 59520, Control_c, 2, 11, 57
8, 59568, Control_c, 2, 11, 58
8, 59616, Control_c, 2, 11, 59
8, 59664, Control_c, 2, 11, 60
8, 59712, Control_c, 2, 11, 61
8, 59760, Control_c, 2, 11, 62
8, 59808, Control_c, 2, 11, 63
8, 59819, Note_on_c, 2, 78, 0
8, 59820, Note_on_c, 2, 77, 80
8, 59856, Control_c, 2, 11, 64
8, 59879, Note_on_c, 2, 77, 0
8, 59880, Note_on_c, 2, 75, 80
8, 59904, Control_c, 2, 11, 65
8, 59939, Note_on_c, 2, 75, 0
8, 59940, Note_on_c, 2, 72, 80
8, 59952, Control_c, 2, 11, 66
8, 59999, Note_on_c, 2, 72, 0
8, 60432, Control_c, 2, 11, 76
8, 60480, Control_c, 2, 11, 77
8, 60480, Note_on_c, 2, 79, 80
8, 60528, Control_c, 2, 11, 78
8, 60576, Control_c, 2, 11, 79
8, 60624, Control_c, 2, 11, 80
8, 60672, Control_c, 2, 11, 81
8, 60720, Control_c, 2, 11, 82
8, 60768, Control_c, 2, 11, 83
8, 60779, Note_on_c, 2, 79, 0
8, 60780, Note_on_c, 2, 77, 80
8, 60816, Control_c, 2, 11, 84
8, 60839, Note_on_c, 2, 77, 0
8, 60840, Note_on_c, 2, 74, 80
8, 60864, Control_c, 2, 11, 85
8, 60899, Note_on_c, 2, 74, 0
8, 60900, Note_on_c, 2, 70, 80
8, 60912, Control_c, 2, 11, 86
8, 60959, Note_on_c, 2, 70, 0
8, 60960, Control_c, 2, 11, 87
8, 61008, Control_c, 2, 11, 88
8, 61056, Control_c, 2, 11, 89
8, 61104, Control_c, 2, 11, 90
8, 61152, Control_c, 2, 11, 91
8, 61200, Note_on_c, 2, 78, 80
8, 61200, Control_c, 2, 11, 92
8, 61248, Control_c, 2, 11, 93
8, 61259, Note_on_c, 2, 78, 0
8, 61260, Note_on_c, 2, 77, 80
8, 61296, Control_c, 2, 11, 94
8, 61319, Note_on_c, 2, 77, 0
8, 61320, Note_on_c, 2, 75, 80
8, 61344, Control_c, 2, 11, 95
8, 61379, Note_on_c, 2, 75, 0
8, 61380, Note_on_c, 2, 72, 80
8, 61392, Control_c, 2, 11, 96
8, 61439, Note_on_c, 2, 72, 0
8, 61440, Control_c, 2, 11, 97
8, 61488, Control_c, 2, 11, 98
8, 61536, Control_c, 2, 11, 99
8, 61584, Control_c, 2, 11, 100
8, 61632, Control_c, 2, 11, 101
8, 61680, Control_c, 2, 11, 102
8, 61680, Note_on_c, 2, 79, 80
8, 61728, Control_c, 2, 11, 103
8, 61739, Note_on_c, 2, 79, 0
8, 61740, Note_on_c, 2, 77, 80
8, 61776, Control_c, 2, 11, 104
8, 61799, Note_on_c, 2, 77, 0
8, 61800, Note_on_c, 2, 74, 80
8, 61824, Control_c, 2, 11, 105
8, 61859, Note_on_c, 2, 74, 0
8, 61860, Note_on_c, 2, 70, 80
8, 61872, Control_c, 2, 11, 106
8, 61919, Note_on_c, 2, 70, 0
8, 61920, Control_c, 2, 11, 107
8, 61968, Control_c, 2, 11, 108
8, 62016, Control_c, 2, 11, 109
8, 62040, Note_on_c, 2, 78, 80
8, 62040, Note_on_c, 2, 66, 80
8, 62064, Control_c, 2, 11, 110
8, 62099, Note_on_c, 2, 78, 0
8, 62099, Note_on_c, 2, 66, 0
8, 62100, Note_on_c, 2, 77, 80
8, 62100, Note_on_c, 2, 65, 80
8, 62112, Control_c, 2, 11, 111
8, 62160, Control_c, 2, 11, 112
8, 62208, Control_c, 2, 11, 113
8, 62211, Note_on_c, 2, 77, 0
8, 62211, Note_on_c, 2, 65, 0
8, 62220, Note_on_c, 2, 77, 80
8, 62220, Note_on_c, 2, 65, 80
8, 62256, Control_c, 2, 11, 114
8, 62304, Control_c, 2, 11, 115
8, 62324, Note_on_c, 2, 77, 0
8, 62324, Note_on_c, 2, 65, 0
8, 62340, Note_on_c, 2, 77, 80
8, 62340, Note_on_c, 2, 65, 80
8, 62352, Control_c, 2, 11, 116
8, 62399, Note_on_c, 2, 77, 0
8, 62399, Note_on_c, 2, 65, 0
8, 62400, Control_c, 2, 11, 117
8, 62448, Control_c, 2, 11, 118
8, 62496, Control_c, 2, 11, 119
8, 62520, Note_on_c, 2, 66, 80
8, 62520, Note_on_c, 2, 78, 80
8, 62544, Control_c, 2, 11, 120
8, 62579, Note_on_c, 2, 66, 0
8, 62579, Note_on_c, 2, 78, 0
8, 62580, Note_on_c, 2, 77, 80
8, 62580, Note_on_c, 2, 65, 80
8, 62592, Control_c, 2, 11, 121
8, 62640, Control_c, 2, 11, 122
8, 62688, Control_c, 2, 11, 123
8, 62691, Note_on_c, 2, 77, 0
8, 62691, Note_on_c, 2, 65, 0
8, 62700, Note_on_c, 2, 77, 80
8, 62700, Note_on_c, 2, 65, 80
8, 62736, Control_c, 2, 11, 124
8, 62784, Control_c, 2, 11, 125
8, 62804, Note_on_c, 2, 77, 0
8, 62804, Note_on_c, 2, 65, 0
8, 62820, Note_on_c, 2, 77, 80
8, 62820, Note_on_c, 2, 65, 80
8, 62832, Control_c, 2, 11, 127
8, 62984, Note_on_c, 2, 77, 0
8, 62984, Note_on_c, 2, 65, 0
8, 63000, Note_on_c, 2, 65, 92
8, 63000, Note_on_c, 2, 53, 92
8, 63060, Control_c, 2, 11, 107
8, 63224, Note_on_c, 2, 65, 0
8, 63224, Note_on_c, 2, 53, 0
8, 63240, Note_on_c, 2, 65, 92
8, 63240, Note_on_c, 2, 77, 92
8, 63464, Note_on_c, 2, 65, 0
8, 63464, Note_on_c, 2, 77, 0
8, 63478, Control_c, 2, 11, 127
8, 63480, Note_on_c, 2, 53, 92
8, 63480, Note_on_c, 2, 65, 92
8, 63540, Control_c, 2, 11, 107
8, 63704, Note_on_c, 2, 53, 0
8, 63704, Note_on_c, 2, 65, 0
8, 63720, Note_on_c, 2, 82, 92
8, 63720, Note_on_c, 2, 70, 92
8, 63944, Note_on_c, 2, 82, 0
8, 63944, Note_on_c, 2, 70, 0
8, 63958, Control_c, 2, 11, 127
8, 63960, Note_on_c, 2, 58, 92
8, 63960, Note_on_c, 2, 70, 92
8, 64020, Control_c, 2, 11, 107
8, 64184, Note_on_c, 2, 58, 0
8, 64184, Note_on_c, 2, 70, 0
8, 64200, Note_on_c, 2, 70, 92
8, 64200, Note_on_c, 2, 82, 92
8, 64424, Note_on_c, 2, 70, 0
8, 64424, Note_on_c, 2, 82, 0
8, 64438, Control_c, 2, 11, 127
8, 64440, Note_on_c, 2, 58, 92
8, 64440, Note_on_c, 2, 70, 92
8, 64500, Control_c, 2, 11, 107
8, 64664, Note_on_c, 2, 58, 0
8, 64664, Note_on_c, 2, 70, 0
8, 64680, Note_on_c, 2, 70, 92
8, 64680, Note_on_c, 2, 82, 92
8, 64904, Note_on_c, 2, 70, 0
8, 64904, Note_on_c, 2, 82, 0
8, 64918, Control_c, 2, 11, 127
8, 64920, Note_on_c, 2, 75, 92
8, 64920, Note_on_c, 2, 67, 92
8, 64980, Control_c, 2, 11, 107
8, 65144, Note_on_c, 2, 75, 0
8, 65144, Note_on_c, 2, 67, 0
8, 65160, Note_on_c, 2, 75, 92
8, 65160, Note_on_c, 2, 70, 92
8, 65279, Note_on_c, 2, 70, 0
8, 65280, Note_on_c, 2, 72, 92
8, 65384, Note_on_c, 2, 75, 0
8, 65384, Note_on_c, 2, 72, 0
8, 65398, Control_c, 2, 11, 127
8, 65400, Note_on_c, 2, 53, 92
8, 65400, Note_on_c, 2, 62, 92
8, 65460, Control_c, 2, 11, 107
8, 65624, Note_on_c, 2, 53, 0
8, 65624, Note_on_c, 2, 62, 0
8, 65638, Control_c, 2, 11, 127
8, 65640, Note_on_c, 2, 77, 80
8, 65640, Note_on_c, 2, 65, 80
8, 65759, Note_on_c, 2, 77, 0
8, 65759, Note_on_c, 2, 65, 0
8, 65760, Note_on_c, 2, 77, 92
8, 65760, Note_on_c, 2, 65, 92
8, 65864, Note_on_c, 2, 77, 0
8, 65864, Note_on_c, 2, 65, 0
8, 65880, Note_on_c, 2, 65, 44
8, 65880, Note_on_c, 2, 70, 44
8, 65999, Note_on_c, 2, 65, 0
8, 65999, Note_on_c, 2, 70, 0
8, 66060, Note_on_c, 2, 70, 44
8, 66120, Note_on_c, 2, 74, 44
8, 66179, Note_on_c, 2, 70, 0
8, 66179, Note_on_c, 2, 74, 0
8, 66180, Note_on_c, 2, 69, 44
8, 66180, Note_on_c, 2, 72, 44
8, 66299, Note_on_c, 2, 69, 0
8, 66299, Note_on_c, 2, 72, 0
8, 66300, Note_on_c, 2, 67, 44
8, 66300, Note_on_c, 2, 70, 44
8, 66419, Note_on_c, 2, 67, 0
8, 66419, Note_on_c, 2, 70, 0
8, 66420, Note_on_c, 2, 69, 44
8, 66420, Note_on_c, 2, 65, 44
8, 66479, Note_on_c, 2, 69, 0
8, 66479, Note_on_c, 2, 65, 0
8, 66480, Note_on_c, 2, 67, 44
8, 66480, Note_on_c, 2, 63, 44
8, 66539, Note_on_c, 2, 67, 0
8, 66539, Note_on_c, 2, 63, 0
8, 66540, Note_on_c, 2, 65, 44
8, 66540, Note_on_c, 2, 62, 44
8, 66599, Note_on_c, 2, 65, 0
8, 66599, Note_on_c, 2, 62, 0
8, 67020, Note_on_c, 2, 67, 44
8, 67080, Note_on_c, 2, 72, 44
8, 67139, Note_on_c, 2, 67, 0
8, 67139, Note_on_c, 2, 72, 0
8, 67140, Note_on_c, 2, 67, 44
8, 67200, Note_on_c, 2, 65, 44
8, 67259, Note_on_c, 2, 67, 0
8, 67259, Note_on_c, 2, 65, 0
8, 67260, Note_on_c, 2, 63, 44
8, 67260, Note_on_c, 2, 67, 44
8, 67379, Note_on_c, 2, 63, 0
8, 67379, Note_on_c, 2, 67, 0
8, 67380, Note_on_c, 2, 67, 44
8, 67380, Note_on_c, 2, 63, 44
8, 67439, Note_on_c, 2, 67, 0
8, 67439, Note_on_c, 2, 63, 0
8, 67440, Note_on_c, 2, 65, 44
8, 67440, Note_on_c, 2, 68, 44
8, 67499, Note_on_c, 2, 65, 0
8, 67499, Note_on_c, 2, 68, 0
8, 67500, Note_on_c, 2, 63, 44
8, 67500, Note_on_c, 2, 67, 44
8, 67559, Note_on_c, 2, 63, 0
8, 67559, Note_on_c, 2, 67, 0
8, 67980, Note_on_c, 2, 77, 44
8, 68040, Note_on_c, 2, 80, 44
8, 68099, Note_on_c, 2, 77, 0
8, 68099, Note_on_c, 2, 80, 0
8, 68100, Note_on_c, 2, 75, 44
8, 68100, Note_on_c, 2, 79, 44
8, 68159, Note_on_c, 2, 75, 0
8, 68159, Note_on_c, 2, 79, 0
8, 68160, Note_on_c, 2, 74, 44
8, 68160, Note_on_c, 2, 77, 44
8, 68219, Note_on_c, 2, 74, 0
8, 68219, Note_on_c, 2, 77, 0
8, 68220, Note_on_c, 2, 72, 44
8, 68220, Note_on_c, 2, 75, 44
8, 68279, Note_on_c, 2, 72, 0
8, 68279, Note_on_c, 2, 75, 0
8, 68280, Note_on_c, 2, 74, 44
8, 68280, Note_on_c, 2, 70, 44
8, 68339, Note_on_c, 2, 74, 0
8, 68339, Note_on_c, 2, 70, 0
8, 68340, Note_on_c, 2, 68, 44
8, 68340, Note_on_c, 2, 72, 44
8, 68399, Note_on_c, 2, 68, 0
8, 68399, Note_on_c, 2, 72, 0
8, 68400, Note_on_c, 2, 67, 44
8, 68400, Note_on_c, 2, 70, 44
8, 68459, Note_on_c, 2, 67, 0
8, 68459, Note_on_c, 2, 70, 0
8, 68460, Note_on_c, 2, 65, 44
8, 68460, Note_on_c, 2, 68, 44
8, 68519, Note_on_c, 2, 65, 0
8, 68519, Note_on_c, 2, 68, 0
8, 68940, Note_on_c, 2, 70, 44
8, 68999, Note_on_c, 2, 70, 0
8, 69000, Note_on_c, 2, 75, 44
8, 69059, Note_on_c, 2, 75, 0
8, 69060, Note_on_c, 2, 68, 44
8, 69179, Note_on_c, 2, 68, 0
8, 69180, Note_on_c, 2, 67, 44
8, 69240, Note_on_c, 2, 79, 44
8, 69299, Note_on_c, 2, 67, 0
8, 69299, Note_on_c, 2, 79, 0
8, 69300, Note_on_c, 2, 65, 44
8, 69300, Note_on_c, 2, 77, 44
8, 69359, Note_on_c, 2, 65, 0
8, 69359, Note_on_c, 2, 77, 0
8, 69360, Note_on_c, 2, 63, 44
8, 69360, Note_on_c, 2, 75, 44
8, 69419, Note_on_c, 2, 63, 0
8, 69419, Note_on_c, 2, 75, 0
8, 69420, Note_on_c, 2, 74, 44
8, 69420, Note_on_c, 2, 62, 44
8, 69479, Note_on_c, 2, 74, 0
8, 69479, Note_on_c, 2, 62, 0
8, 69480, Note_on_c, 2, 60, 44
8, 69480, Note_on_c, 2, 72, 44
8, 69539, Note_on_c, 2, 60, 0
8, 69539, Note_on_c, 2, 72, 0
8, 69540, Note_on_c, 2, 70, 44
8, 69540, Note_on_c, 2, 58, 44
8, 69591, Note_on_c, 2, 70, 0
8, 69591, Note_on_c, 2, 58, 0
8, 69600, Note_on_c, 2, 57, 80
8, 69600, Note_on_c, 2, 69, 80
8, 69719, Note_on_c, 2, 57, 0
8, 69719, Note_on_c, 2, 69, 0
8, 69720, Note_on_c, 2, 58, 80
8, 69720, Note_on_c, 2, 70, 80
8, 69779, Note_on_c, 2, 58, 0
8, 69779, Note_on_c, 2, 70, 0
8, 69840, Note_on_c, 2, 74, 80
8, 69840, Note_on_c, 2, 70, 80
8, 69959, Note_on_c, 2, 74, 0
8, 69959, Note_on_c, 2, 70, 0
8, 69960, Note_on_c, 2, 67, 80
8, 69960, Note_on_c, 2, 72, 80
8, 70019, Note_on_c, 2, 67, 0
8, 70019, Note_on_c, 2, 72, 0
8, 70080, Note_on_c, 2, 72, 80
8, 70080, Note_on_c, 2, 67, 80
8, 70199, Note_on_c, 2, 72, 0
8, 70199, Note_on_c, 2, 67, 0
8, 70200, Note_on_c, 2, 70, 80
8, 70200, Note_on_c, 2, 62, 80
8, 70259, Note_on_c, 2, 70, 0
8, 70259, Note_on_c, 2, 62, 0
8, 70320, Note_on_c, 2, 62, 92
8, 70320, Note_on_c, 2, 70, 92
8, 70339, Note_on_c, 2, 70, 0
8, 70340, Note_on_c, 2, 72, 92
8, 70359, Note_on_c, 2, 72, 0
8, 70360, Note_on_c, 2, 70, 92
8, 70379, Note_on_c, 2, 70, 0
8, 70380, Note_on_c, 2, 72, 92
8, 70392, Note_on_c, 2, 72, 0
8, 70393, Note_on_c, 2, 70, 92
8, 70406, Note_on_c, 2, 70, 0
8, 70407, Note_on_c, 2, 69, 92
8, 70419, Note_on_c, 2, 69, 0
8, 70420, Note_on_c, 2, 70, 92
8, 70439, Note_on_c, 2, 62, 0
8, 70439, Note_on_c, 2, 70, 0
8, 70440, Note_on_c, 2, 63, 92
8, 70440, Note_on_c, 2, 72, 92
8, 70499, Note_on_c, 2, 63, 0
8, 70499, Note_on_c, 2, 72, 0
8, 70500, Note_on_c, 2, 60, 92
8, 70500, Note_on_c, 2, 69, 92
8, 70559, Note_on_c, 2, 60, 0
8, 70559, Note_on_c, 2, 69, 0
8, 70620, Note_on_c, 2, 63, 92
8, 70620, Note_on_c, 2, 75, 92
8, 70679, Note_on_c, 2, 63, 0
8, 70679, Note_on_c, 2, 75, 0
8, 70680, Note_on_c, 2, 74, 92
8, 70680, Note_on_c, 2, 86, 92
8, 70739, Note_on_c, 2, 74, 0
8, 70739, Note_on_c, 2, 86, 0
8, 70860, Note_on_c, 2, 62, 92
8, 70860, Note_on_c, 2, 74, 92
8, 70919, Note_on_c, 2, 62, 0
8, 70919, Note_on_c, 2, 74, 0
8, 70920, Note_on_c, 2, 84, 92
8, 70920, Note_on_c, 2, 72, 92
8, 70979, Note_on_c, 2, 84, 0
8, 70979, Note_on_c, 2, 72, 0
8, 71100, Note_on_c, 2, 60, 92
8, 71100, Note_on_c, 2, 72, 92
8, 71159, Note_on_c, 2, 60, 0
8, 71159, Note_on_c, 2, 72, 0
8, 71160, Note_on_c, 2, 70, 92
8, 71160, Note_on_c, 2, 82, 92
8, 71219, Note_on_c, 2, 70, 0
8, 71219, Note_on_c, 2, 82, 0
8, 71280, Note_on_c, 2, 67, 92
8, 71280, Note_on_c, 2, 79, 92
8, 71399, Note_on_c, 2, 67, 0
8, 71399, Note_on_c, 2, 79, 0
8, 71400, Note_on_c, 2, 65, 92
8, 71400, Note_on_c, 2, 77, 92
8, 71459, Note_on_c, 2, 65, 0
8, 71459, Note_on_c, 2, 77, 0
8, 71460, Note_on_c, 2, 69, 92
8, 71460, Note_on_c, 2, 57, 92
8, 71511, Note_on_c, 2, 69, 0
8, 71511, Note_on_c, 2, 57, 0
8, 71520, Note_on_c, 2, 58, 92
8, 71520, Note_on_c, 2, 70, 92
8, 71864, Note_on_c, 2, 58, 0
8, 71864, Note_on_c, 2, 70, 0
8, 71880, Note_on_c, 2, 70, 92
8, 71880, Note_on_c, 2, 58, 92
8, 71961, Note_on_c, 2, 70, 0
8, 71961, Note_on_c, 2, 58, 0
8, 71970, Note_on_c, 2, 70, 92
8, 71970, Note_on_c, 2, 58, 92
8, 71991, Note_on_c, 2, 70, 0
8, 71991, Note_on_c, 2, 58, 0
8, 72000, Note_on_c, 2, 62, 104
8, 72000, Note_on_c, 2, 74, 104
8, 72060, Control_c, 2, 11, 107
8, 72344, Note_on_c, 2, 62, 0
8, 72344, Note_on_c, 2, 74, 0
8, 72360, Note_on_c, 2, 74, 104
8, 72360, Note_on_c, 2, 62, 104
8, 72441, Note_on_c, 2, 74, 0
8, 72441, Note_on_c, 2, 62, 0
8, 72450, Note_on_c, 2, 74, 104
8, 72450, Note_on_c, 2, 62, 104
8, 72471, Note_on_c, 2, 74, 0
8, 72471, Note_on_c, 2, 62, 0
8, 72478, Control_c, 2, 11, 127
8, 72480, Note_on_c, 2, 77, 104
8, 72480, Note_on_c, 2, 65, 104
8, 72540, Control_c, 2, 11, 107
8, 72824, Note_on_c, 2, 77, 0
8, 72824, Note_on_c, 2, 65, 0
8, 72840, Note_on_c, 2, 77, 104
8, 72840, Note_on_c, 2, 65, 104
8, 72921, Note_on_c, 2, 77, 0
8, 72921, Note_on_c, 2, 65, 0
8, 72930, Note_on_c, 2, 65, 104
8, 72930, Note_on_c, 2, 77, 104
8, 72951, Note_on_c, 2, 65, 0
8, 72951, Note_on_c, 2, 77, 0
8, 72958, Control_c, 2, 11, 127
8, 72960, Note_on_c, 2, 70, 92
8, 72960, Note_on_c, 2, 82, 92
8, 73064, Note_on_c, 2, 70, 0
8, 73064, Note_on_c, 2, 82, 0
8, 73080, Note_on_c, 2, 82, 92
8, 73080, Note_on_c, 2, 70, 92
8, 73161, Note_on_c, 2, 82, 0
8, 73161, Note_on_c, 2, 70, 0
8, 73170, Note_on_c, 2, 70, 92
8, 73170, Note_on_c, 2, 82, 92
8, 73191, Note_on_c, 2, 70, 0
8, 73191, Note_on_c, 2, 82, 0
8, 73200, Note_on_c, 2, 74, 92
8, 73200, Note_on_c, 2, 62, 92
8, 73304, Note_on_c, 2, 74, 0
8, 73304, Note_on_c, 2, 62, 0
8, 73320, Note_on_c, 2, 74, 92
8, 73320, Note_on_c, 2, 62, 92
8, 73401, Note_on_c, 2, 74, 0
8, 73401, Note_on_c, 2, 62, 0
8, 73410, Note_on_c, 2, 74, 92
8, 73410, Note_on_c, 2, 62, 92
8, 73431, Note_on_c, 2, 74, 0
8, 73431, Note_on_c, 2, 62, 0
8, 73440, Note_on_c, 2, 65, 80
8, 73440, Note_on_c, 2, 77, 80
8, 73529, Note_on_c, 2, 65, 0
8, 73529, Note_on_c, 2, 77, 0
8, 73560, Note_on_c, 2, 70, 80
8, 73560, Note_on_c, 2, 82, 80
8, 73641, Note_on_c, 2, 70, 0
8, 73641, Note_on_c, 2, 82, 0
8, 73650, Note_on_c, 2, 82, 80
8, 73650, Note_on_c, 2, 70, 80
8, 73671, Note_on_c, 2, 82, 0
8, 73671, Note_on_c, 2, 70, 0
8, 73680, Note_on_c, 2, 86, 80
8, 73680, Note_on_c, 2, 74, 80
8, 73769, Note_on_c, 2, 86, 0
8, 73769, Note_on_c, 2, 74, 0
8, 73800, Note_on_c, 2, 77, 80
8, 73800, Note_on_c, 2, 65, 80
8, 73881, Note_on_c, 2, 77, 0
8, 73881, Note_on_c, 2, 65, 0
8, 73890, Note_on_c, 2, 77, 80
8, 73890, Note_on_c, 2, 65, 80
8, 73911, Note_on_c, 2, 77, 0
8, 73911, Note_on_c, 2, 65, 0
8, 73920, Note_on_c, 2, 82, 80
8, 73920, Note_on_c, 2, 70, 80
8, 74009, Note_on_c, 2, 82, 0
8, 74009, Note_on_c, 2, 70, 0
8, 74040, Note_on_c, 2, 62, 80
8, 74040, Note_on_c, 2, 74, 80
8, 74121, Note_on_c, 2, 62, 0
8, 74121, Note_on_c, 2, 74, 0
8, 74130, Note_on_c, 2, 62, 80
8, 74130, Note_on_c, 2, 74, 80
8, 74151, Note_on_c, 2, 62, 0
8, 74151, Note_on_c, 2, 74, 0
8, 74160, Note_on_c, 2, 77, 80
8, 74160, Note_on_c, 2, 65, 80
8, 74249, Note_on_c, 2, 77, 0
8, 74249, Note_on_c, 2, 65, 0
8, 74280, Note_on_c, 2, 70, 80
8, 74280, Note_on_c, 2, 58, 80
8, 74361, Note_on_c, 2, 70, 0
8, 74361, Note_on_c, 2, 58, 0
8, 74370, Note_on_c, 2, 70, 80
8, 74370, Note_on_c, 2, 58, 80
8, 74391, Note_on_c, 2, 70, 0
8, 74391, Note_on_c, 2, 58, 0
8, 74400, Note_on_c, 2, 62, 80
8, 74400, Note_on_c, 2, 74, 80
8, 74489, Note_on_c, 2, 62, 0
8, 74489, Note_on_c, 2, 74, 0
8, 74520, Note_on_c, 2, 65, 80
8, 74520, Note_on_c, 2, 77, 80
8, 74601, Note_on_c, 2, 65, 0
8, 74601, Note_on_c, 2, 77, 0
8, 74610, Note_on_c, 2, 77, 80
8, 74610, Note_on_c, 2, 65, 80
8, 74631, Note_on_c, 2, 77, 0
8, 74631, Note_on_c, 2, 65, 0
8, 74640, Note_on_c, 2, 70, 80
8, 74640, Note_on_c, 2, 82, 80
8, 74729, Note_on_c, 2, 70, 0
8, 74729, Note_on_c, 2, 82, 0
8, 74760, Note_on_c, 2, 62, 80
8, 74760, Note_on_c, 2, 74, 80
8, 74841, Note_on_c, 2, 62, 0
8, 74841, Note_on_c, 2, 74, 0
8, 74850, Note_on_c, 2, 62, 80
8, 74850, Note_on_c, 2, 74, 80
8, 74871, Note_on_c, 2, 62, 0
8, 74871, Note_on_c, 2, 74, 0
8, 74880, Note_on_c, 2, 65, 80
8, 74880, Note_on_c, 2, 77, 80
8, 74969, Note_on_c, 2, 65, 0
8, 74969, Note_on_c, 2, 77, 0
8, 75000, Note_on_c, 2, 70, 80
8, 75000, Note_on_c, 2, 58, 80
8, 75081, Note_on_c, 2, 70, 0
8, 75081, Note_on_c, 2, 58, 0
8, 75090, Note_on_c, 2, 58, 80
8, 75090, Note_on_c, 2, 70, 80
8, 75111, Note_on_c, 2, 58, 0
8, 75111, Note_on_c, 2, 70, 0
8, 75120, Note_on_c, 2, 82, 80
8, 75120, Note_on_c, 2, 70, 80
8, 75209, Note_on_c, 2, 82, 0
8, 75209, Note_on_c, 2, 70, 0
8, 75240, Note_on_c, 2, 58, 80
8, 75240, Note_on_c, 2, 70, 80
8, 75321, Note_on_c, 2, 58, 0
8, 75321, Note_on_c, 2, 70, 0
8, 75330, Note_on_c, 2, 58, 80
8, 75330, Note_on_c, 2, 70, 80
8, 75351, Note_on_c, 2, 58, 0
8, 75351, Note_on_c, 2, 70, 0
8, 75360, Note_on_c, 2, 70, 80
8, 75360, Note_on_c, 2, 82, 80
8, 75479, Note_on_c, 2, 70, 0
8, 75479, Note_on_c, 2, 82, 0
8, 75810, Note_on_c, 2, 70, 80
8, 75810, Note_on_c, 2, 82, 80
8, 75831, Note_on_c, 2, 70, 0
8, 75831, Note_on_c, 2, 82, 0
8, 75840, Note_on_c, 2, 58, 78
8, 75840, Note_on_c, 2, 70, 78
8, 75959, Note_on_c, 2, 58, 0
8, 75959, Note_on_c, 2, 70, 0
8, 76290, Note_on_c, 2, 70, 44
8, 76290, Note_on_c, 2, 58, 44
8, 76311, Note_on_c, 2, 70, 0
8, 76311, Note_on_c, 2, 58, 0
8, 76320, Note_on_c, 2, 69, 32
8, 76320, Note_on_c, 2, 57, 32
8, 76559, Note_on_c, 2, 69, 0
8, 76559, Note_on_c, 2, 57, 0
8, 78240, Note_on_c, 2, 69, 32
8, 80159, Note_on_c, 2, 69, 0
8, 80160, Note_on_c, 2, 69, 32
8, 82559, Note_on_c, 2, 69, 0
8, 82560, Note_on_c, 2, 69, 32
8, 85199, Note_on_c, 2, 69, 0
8, 85200, Note_on_c, 2, 67, 32
8, 85200, Note_on_c, 2, 70, 32
8, 86841, Note_on_c, 2, 70, 0
8, 86850, Note_on_c, 2, 79, 32
8, 86871, Note_on_c, 2, 79, 0
8, 86880, Note_on_c, 2, 74, 32
8, 87321, Note_on_c, 2, 74, 0
8, 87330, Note_on_c, 2, 70, 32
8, 87351, Note_on_c, 2, 70, 0
8, 87570, Note_on_c, 2, 74, 32
8, 87591, Note_on_c, 2, 74, 0
8, 87600, Note_on_c, 2, 70, 32
8, 87801, Note_on_c, 2, 70, 0
8, 87810, Note_on_c, 2, 74, 32
8, 87824, Note_on_c, 2, 67, 0
8, 87831, Note_on_c, 2, 74, 0
8, 87838, Control_c, 2, 11, 47
8, 87840, Note_on_c, 2, 69, 80
8, 87840, Note_on_c, 2, 72, 80
8, 88281, Note_on_c, 2, 72, 0
8, 88287, Note_on_c, 2, 69, 0
8, 88290, Note_on_c, 2, 69, 80
8, 88319, Note_on_c, 2, 69, 0
8, 88320, Note_on_c, 2, 66, 80
8, 88320, Note_on_c, 2, 69, 80
8, 88521, Note_on_c, 2, 66, 0
8, 88530, Note_on_c, 2, 62, 80
8, 88551, Note_on_c, 2, 62, 0
8, 88560, Note_on_c, 2, 60, 80
8, 88761, Note_on_c, 2, 60, 0
8, 88770, Note_on_c, 2, 75, 80
8, 88791, Note_on_c, 2, 75, 0
8, 88800, Control_c, 2, 11, 47
8, 88800, Note_on_c, 2, 74, 80
8, 88827, Control_c, 2, 11, 49
8, 88853, Control_c, 2, 11, 51
8, 88880, Control_c, 2, 11, 54
8, 88907, Control_c, 2, 11, 56
8, 88919, Note_on_c, 2, 74, 0
8, 88920, Note_on_c, 2, 72, 80
8, 88933, Control_c, 2, 11, 58
8, 88960, Control_c, 2, 11, 60
8, 88987, Control_c, 2, 11, 63
8, 89013, Control_c, 2, 11, 65
8, 89040, Control_c, 2, 11, 67
8, 89067, Control_c, 2, 11, 69
8, 89093, Control_c, 2, 11, 71
8, 89120, Control_c, 2, 11, 74
8, 89147, Control_c, 2, 11, 76
8, 89173, Control_c, 2, 11, 78
8, 89200, Control_c, 2, 11, 80
8, 89227, Control_c, 2, 11, 83
8, 89241, Note_on_c, 2, 72, 0
8, 89247, Note_on_c, 2, 69, 0
8, 89250, Note_on_c, 2, 69, 80
8, 89253, Control_c, 2, 11, 85
8, 89279, Note_on_c, 2, 69, 0
8, 89280, Control_c, 2, 11, 87
8, 89280, Note_on_c, 2, 66, 80
8, 89280, Note_on_c, 2, 69, 80
8, 89307, Control_c, 2, 11, 89
8, 89333, Control_c, 2, 11, 91
8, 89360, Control_c, 2, 11, 94
8, 89387, Control_c, 2, 11, 96
8, 89413, Control_c, 2, 11, 98
8, 89440, Control_c, 2, 11, 100
8, 89467, Control_c, 2, 11, 103
8, 89481, Note_on_c, 2, 66, 0
8, 89490, Note_on_c, 2, 62, 80
8, 89493, Control_c, 2, 11, 105
8, 89511, Note_on_c, 2, 62, 0
8, 89520, Control_c, 2, 11, 107
8, 89520, Note_on_c, 2, 60, 80
8, 89547, Control_c, 2, 11, 109
8, 89573, Control_c, 2, 11, 111
8, 89600, Control_c, 2, 11, 114
8, 89627, Control_c, 2, 11, 116
8, 89639, Note_on_c, 2, 60, 0
8, 89653, Control_c, 2, 11, 118
8, 89680, Control_c, 2, 11, 120
8, 89700, Note_on_c, 2, 57, 80
8, 89707, Control_c, 2, 11, 123
8, 89729, Note_on_c, 2, 57, 0
8, 89730, Note_on_c, 2, 54, 80
8, 89733, Control_c, 2, 11, 127
8, 89751, Note_on_c, 2, 54, 0
8, 89760, Note_on_c, 2, 60, 80
8, 89864, Note_on_c, 2, 69, 0
8, 89864, Note_on_c, 2, 60, 0
8, 89880, Note_on_c, 2, 72, 80
8, 89961, Note_on_c, 2, 72, 0
8, 89970, Note_on_c, 2, 72, 80
8, 89991, Note_on_c, 2, 72, 0
8, 90000, Note_on_c, 2, 75, 92
8, 90060, Control_c, 2, 11, 107
8, 90344, Note_on_c, 2, 75, 0
8, 90360, Note_on_c, 2, 69, 92
8, 90441, Note_on_c, 2, 69, 0
8, 90450, Note_on_c, 2, 69, 92
8, 90471, Note_on_c, 2, 69, 0
8, 90478, Control_c, 2, 11, 127
8, 90480, Note_on_c, 2, 72, 92
8, 90540, Control_c, 2, 11, 107
8, 90824, Note_on_c, 2, 72, 0
8, 90840, Note_on_c, 2, 66, 92
8, 90921, Note_on_c, 2, 66, 0
8, 90930, Note_on_c, 2, 66, 92
8, 90951, Note_on_c, 2, 66, 0
8, 90958, Control_c, 2, 11, 127
8, 90960, Note_on_c, 2, 69, 92
8, 91064, Note_on_c, 2, 69, 0
8, 91080, Note_on_c, 2, 60, 80
8, 91161, Note_on_c, 2, 60, 0
8, 91170, Note_on_c, 2, 60, 80
8, 91191, Note_on_c, 2, 60, 0
8, 91200, Note_on_c, 2, 75, 92
8, 91304, Note_on_c, 2, 75, 0
8, 91320, Note_on_c, 2, 69, 80
8, 91401, Note_on_c, 2, 69, 0
8, 91410, Note_on_c, 2, 69, 80
8, 91431, Note_on_c, 2, 69, 0
8, 91440, Note_on_c, 2, 74, 92
8, 91544, Note_on_c, 2, 74, 0
8, 91560, Note_on_c, 2, 62, 80
8, 91641, Note_on_c, 2, 62, 0
8, 91650, Note_on_c, 2, 62, 80
8, 91671, Note_on_c, 2, 62, 0
8, 91680, Note_on_c, 2, 67, 44
8, 91680, Note_on_c, 2, 70, 44
8, 91739, Note_on_c, 2, 67, 0
8, 91739, Note_on_c, 2, 70, 0
8, 91740, Note_on_c, 2, 70, 44
8, 91740, Note_on_c, 2, 74, 44
8, 91791, Note_on_c, 2, 70, 0
8, 91791, Note_on_c, 2, 74, 0
8, 91800, Note_on_c, 2, 72, 44
8, 91800, Note_on_c, 2, 69, 44
8, 91844, Note_on_c, 2, 72, 0
8, 91844, Note_on_c, 2, 69, 0
8, 91860, Note_on_c, 2, 67, 44
8, 91860, Note_on_c, 2, 70, 44
8, 91904, Note_on_c, 2, 67, 0
8, 91904, Note_on_c, 2, 70, 0
8, 91920, Note_on_c, 2, 67, 44
8, 91920, Note_on_c, 2, 70, 44
8, 92219, Note_on_c, 2, 67, 0
8, 92219, Note_on_c, 2, 70, 0
8, 92220, Note_on_c, 2, 70, 44
8, 92220, Note_on_c, 2, 74, 44
8, 92271, Note_on_c, 2, 70, 0
8, 92271, Note_on_c, 2, 74, 0
8, 92280, Note_on_c, 2, 69, 44
8, 92280, Note_on_c, 2, 72, 44
8, 92324, Note_on_c, 2, 69, 0
8, 92324, Note_on_c, 2, 72, 0
8, 92340, Note_on_c, 2, 70, 44
8, 92340, Note_on_c, 2, 67, 44
8, 92384, Note_on_c, 2, 70, 0
8, 92384, Note_on_c, 2, 67, 0
8, 92400, Note_on_c, 2, 70, 44
8, 92400, Note_on_c, 2, 67, 44
8, 92624, Note_on_c, 2, 70, 0
8, 92624, Note_on_c, 2, 67, 0
8, 92640, Note_on_c, 2, 75, 44
8, 92640, Note_on_c, 2, 67, 44
8, 92699, Note_on_c, 2, 75, 0
8, 92699, Note_on_c, 2, 67, 0
8, 92700, Note_on_c, 2, 75, 44
8, 92700, Note_on_c, 2, 79, 44
8, 92751, Note_on_c, 2, 75, 0
8, 92751, Note_on_c, 2, 79, 0
8, 92760, Note_on_c, 2, 77, 44
8, 92760, Note_on_c, 2, 74, 44
8, 92804, Note_on_c, 2, 77, 0
8, 92804, Note_on_c, 2, 74, 0
8, 92820, Note_on_c, 2, 72, 44
8, 92820, Note_on_c, 2, 75, 44
8, 92864, Note_on_c, 2, 72, 0
8, 92864, Note_on_c, 2, 75, 0
8, 92880, Note_on_c, 2, 75, 44
8, 92880, Note_on_c, 2, 72, 44
8, 93179, Note_on_c, 2, 75, 0
8, 93179, Note_on_c, 2, 72, 0
8, 93180, Note_on_c, 2, 79, 44
8, 93180, Note_on_c, 2, 75, 44
8, 93231, Note_on_c, 2, 79, 0
8, 93231, Note_on_c, 2, 75, 0
8, 93240, Note_on_c, 2, 74, 44
8, 93240, Note_on_c, 2, 77, 44
8, 93284, Note_on_c, 2, 74, 0
8, 93284, Note_on_c, 2, 77, 0
8, 93300, Note_on_c, 2, 75, 44
8, 93300, Note_on_c, 2, 72, 44
8, 93344, Note_on_c, 2, 75, 0
8, 93344, Note_on_c, 2, 72, 0
8, 93360, Note_on_c, 2, 72, 44
8, 93360, Note_on_c, 2, 75, 44
8, 93404, Note_on_c, 2, 72, 0
8, 93404, Note_on_c, 2, 75, 0
8, 93420, Note_on_c, 2, 75, 44
8, 93420, Note_on_c, 2, 67, 44
8, 93471, Note_on_c, 2, 75, 0
8, 93471, Note_on_c, 2, 67, 0
8, 93480, Note_on_c, 2, 74, 44
8, 93480, Note_on_c, 2, 67, 44
8, 93531, Note_on_c, 2, 74, 0
8, 93531, Note_on_c, 2, 67, 0
8, 93540, Note_on_c, 2, 72, 44
8, 93540, Note_on_c, 2, 67, 44
8, 93584, Note_on_c, 2, 72, 0
8, 93584, Note_on_c, 2, 67, 0
8, 93600, Note_on_c, 2, 70, 44
8, 93600, Note_on_c, 2, 67, 44
8, 93779, Note_on_c, 2, 70, 0
8, 93779, Note_on_c, 2, 67, 0
8, 93840, Note_on_c, 2, 69, 44
8, 93840, Note_on_c, 2, 67, 44
8, 94019, Note_on_c, 2, 69, 0
8, 94019, Note_on_c, 2, 67, 0
8, 94080, Note_on_c, 2, 60, 44
8, 94080, Note_on_c, 2, 69, 44
8, 94259, Note_on_c, 2, 60, 0
8, 94259, Note_on_c, 2, 69, 0
8, 94320, Note_on_c, 2, 69, 44
8, 94320, Note_on_c, 2, 60, 44
8, 94499, Note_on_c, 2, 69, 0
8, 94499, Note_on_c, 2, 60, 0
8, 94680, Note_on_c, 2, 58, 44
8, 94680, Note_on_c, 2, 55, 44
8, 94799, Note_on_c, 2, 58, 0
8, 94799, Note_on_c, 2, 55, 0
8, 94920, Note_on_c, 2, 58, 44
8, 94920, Note_on_c, 2, 62, 44
8, 95039, Note_on_c, 2, 58, 0
8, 95039, Note_on_c, 2, 62, 0
8, 95160, Note_on_c, 2, 58, 44
8, 95160, Note_on_c, 2, 67, 44
8, 95279, Note_on_c, 2, 58, 0
8, 95279, Note_on_c, 2, 67, 0
8, 95400, Note_on_c, 2, 70, 44
8, 95490, Note_on_c, 2, 74, 44
8, 95504, Note_on_c, 2, 70, 0
8, 95511, Note_on_c, 2, 74, 0
8, 95520, Note_on_c, 2, 70, 44
8, 95961, Note_on_c, 2, 70, 0
8, 95970, Note_on_c, 2, 67, 44
8, 95991, Note_on_c, 2, 67, 0
8, 96000, Note_on_c, 2, 62, 44
8, 96201, Note_on_c, 2, 62, 0
8, 96210, Note_on_c, 2, 58, 44
8, 96231, Note_on_c, 2, 58, 0
8, 96240, Note_on_c, 2, 55, 44
8, 96411, Note_on_c, 2, 55, 0
8, 96420, Note_on_c, 2, 77, 44
8, 96449, Note_on_c, 2, 77, 0
8, 96450, Note_on_c, 2, 74, 44
8, 96471, Note_on_c, 2, 74, 0
8, 96480, Note_on_c, 2, 71, 44
8, 96584, Note_on_c, 2, 71, 0
8, 96600, Note_on_c, 2, 55, 44
8, 96600, Note_on_c, 2, 59, 44
8, 96719, Note_on_c, 2, 55, 0
8, 96719, Note_on_c, 2, 59, 0
8, 96840, Note_on_c, 2, 62, 44
8, 96840, Note_on_c, 2, 59, 44
8, 96959, Note_on_c, 2, 62, 0
8, 96959, Note_on_c, 2, 59, 0
8, 96960, Control_c, 2, 11, 67
8, 97080, Note_on_c, 2, 59, 80
8, 97080, Note_on_c, 2, 65, 80
8, 97199, Note_on_c, 2, 59, 0
8, 97199, Note_on_c, 2, 65, 0
8, 97320, Note_on_c, 2, 71, 80
8, 97410, Note_on_c, 2, 80, 80
8, 97431, Note_on_c, 2, 80, 0
8, 97439, Note_on_c, 2, 71, 0
8, 97440, Control_c, 2, 11, 67
8, 97440, Note_on_c, 2, 79, 80
8, 97460, Control_c, 2, 11, 68
8, 97480, Control_c, 2, 11, 70
8, 97500, Control_c, 2, 11, 71
8, 97520, Control_c, 2, 11, 72
8, 97540, Control_c, 2, 11, 73
8, 97560, Control_c, 2, 11, 75
8, 97580, Control_c, 2, 11, 76
8, 97600, Control_c, 2, 11, 77
8, 97620, Control_c, 2, 11, 78
8, 97640, Control_c, 2, 11, 80
8, 97660, Control_c, 2, 11, 81
8, 97680, Control_c, 2, 11, 82
8, 97700, Control_c, 2, 11, 83
8, 97720, Control_c, 2, 11, 85
8, 97740, Control_c, 2, 11, 86
8, 97760, Control_c, 2, 11, 87
8, 97780, Control_c, 2, 11, 88
8, 97800, Control_c, 2, 11, 90
8, 97820, Control_c, 2, 11, 91
8, 97840, Control_c, 2, 11, 92
8, 97860, Control_c, 2, 11, 93
8, 97880, Control_c, 2, 11, 95
8, 97881, Note_on_c, 2, 79, 0
8, 97890, Note_on_c, 2, 77, 80
8, 97900, Control_c, 2, 11, 96
8, 97911, Note_on_c, 2, 77, 0
8, 97920, Control_c, 2, 11, 97
8, 97920, Note_on_c, 2, 74, 80
8, 97940, Control_c, 2, 11, 98
8, 97960, Control_c, 2, 11, 100
8, 97980, Control_c, 2, 11, 101
8, 98000, Control_c, 2, 11, 102
8, 98020, Control_c, 2, 11, 103
8, 98040, Control_c, 2, 11, 105
8, 98060, Control_c, 2, 11, 106
8, 98080, Control_c, 2, 11, 107
8, 98100, Control_c, 2, 11, 108
8, 98120, Control_c, 2, 11, 110
8, 98121, Note_on_c, 2, 74, 0
8, 98130, Note_on_c, 2, 71, 80
8, 98140, Control_c, 2, 11, 111
8, 98151, Note_on_c, 2, 71, 0
8, 98160, Note_on_c, 2, 67, 80
8, 98160, Control_c, 2, 11, 112
8, 98180, Control_c, 2, 11, 113
8, 98200, Control_c, 2, 11, 115
8, 98220, Control_c, 2, 11, 116
8, 98240, Control_c, 2, 11, 117
8, 98260, Control_c, 2, 11, 118
8, 98280, Control_c, 2, 11, 120
8, 98300, Control_c, 2, 11, 121
8, 98320, Control_c, 2, 11, 122
8, 98331, Note_on_c, 2, 67, 0
8, 98340, Note_on_c, 2, 65, 80
8, 98340, Control_c, 2, 11, 123
8, 98360, Control_c, 2, 11, 125
8, 98369, Note_on_c, 2, 65, 0
8, 98370, Note_on_c, 2, 62, 80
8, 98380, Control_c, 2, 11, 127
8, 98391, Note_on_c, 2, 62, 0
8, 98400, Note_on_c, 2, 59, 80
8, 98504, Note_on_c, 2, 59, 0
8, 98520, Note_on_c, 2, 77, 80
8, 98520, Note_on_c, 2, 65, 80
8, 98601, Note_on_c, 2, 77, 0
8, 98601, Note_on_c, 2, 65, 0
8, 98610, Note_on_c, 2, 77, 80
8, 98610, Note_on_c, 2, 65, 80
8, 98631, Note_on_c, 2, 77, 0
8, 98631, Note_on_c, 2, 65, 0
8, 98640, Note_on_c, 2, 68, 92
8, 98640, Note_on_c, 2, 80, 92
8, 98700, Control_c, 2, 11, 107
8, 98984, Note_on_c, 2, 68, 0
8, 98984, Note_on_c, 2, 80, 0
8, 99000, Note_on_c, 2, 62, 92
8, 99000, Note_on_c, 2, 74, 92
8, 99081, Note_on_c, 2, 62, 0
8, 99081, Note_on_c, 2, 74, 0
8, 99090, Note_on_c, 2, 74, 92
8, 99090, Note_on_c, 2, 62, 92
8, 99111, Note_on_c, 2, 74, 0
8, 99111, Note_on_c, 2, 62, 0
8, 99118, Control_c, 2, 11, 127
8, 99120, Note_on_c, 2, 77, 92
8, 99120, Note_on_c, 2, 65, 92
8, 99180, Control_c, 2, 11, 107
8, 99464, Note_on_c, 2, 77, 0
8, 99464, Note_on_c, 2, 65, 0
8, 99480, Note_on_c, 2, 71, 92
8, 99480, Note_on_c, 2, 59, 92
8, 99561, Note_on_c, 2, 71, 0
8, 99561, Note_on_c, 2, 59, 0
8, 99570, Note_on_c, 2, 59, 92
8, 99570, Note_on_c, 2, 71, 92
8, 99591, Note_on_c, 2, 59, 0
8, 99591, Note_on_c, 2, 71, 0
8, 99598, Control_c, 2, 11, 127
8, 99600, Note_on_c, 2, 74, 92
8, 99600, Note_on_c, 2, 62, 92
8, 99704, Note_on_c, 2, 74, 0
8, 99704, Note_on_c, 2, 62, 0
8, 99720, Note_on_c, 2, 65, 80
8, 99801, Note_on_c, 2, 65, 0
8, 99810, Note_on_c, 2, 65, 80
8, 99831, Note_on_c, 2, 65, 0
8, 99840, Note_on_c, 2, 68, 92
8, 99944, Note_on_c, 2, 68, 0
8, 99960, Note_on_c, 2, 62, 80
8, 100041, Note_on_c, 2, 62, 0
8, 100050, Note_on_c, 2, 62, 80
8, 100071, Note_on_c, 2, 62, 0
8, 100080, Note_on_c, 2, 67, 92
8, 100184, Note_on_c, 2, 67, 0
8, 100200, Note_on_c, 2, 55, 80
8, 100281, Note_on_c, 2, 55, 0
8, 100290, Note_on_c, 2, 55, 80
8, 100311, Note_on_c, 2, 55, 0
8, 100320, Note_on_c, 2, 60, 44
8, 100320, Note_on_c, 2, 63, 44
8, 100379, Note_on_c, 2, 60, 0
8, 100379, Note_on_c, 2, 63, 0
8, 100380, Note_on_c, 2, 67, 44
8, 100380, Note_on_c, 2, 63, 44
8, 100431, Note_on_c, 2, 67, 0
8, 100431, Note_on_c, 2, 63, 0
8, 100440, Note_on_c, 2, 65, 44
8, 100440, Note_on_c, 2, 62, 44
8, 100484, Note_on_c, 2, 65, 0
8, 100484, Note_on_c, 2, 62, 0
8, 100500, Note_on_c, 2, 60, 44
8, 100500, Note_on_c, 2, 63, 44
8, 100544, Note_on_c, 2, 60, 0
8, 100544, Note_on_c, 2, 63, 0
8, 100560, Note_on_c, 2, 63, 44
8, 100560, Note_on_c, 2, 60, 44
8, 100859, Note_on_c, 2, 63, 0
8, 100859, Note_on_c, 2, 60, 0
8, 100860, Note_on_c, 2, 67, 44
8, 100860, Note_on_c, 2, 63, 44
8, 100911, Note_on_c, 2, 67, 0
8, 100911, Note_on_c, 2, 63, 0
8, 100920, Note_on_c, 2, 65, 44
8, 100920, Note_on_c, 2, 62, 44
8, 100964, Note_on_c, 2, 65, 0
8, 100964, Note_on_c, 2, 62, 0
8, 100980, Note_on_c, 2, 60, 44
8, 100980, Note_on_c, 2, 63, 44
8, 101024, Note_on_c, 2, 60, 0
8, 101024, Note_on_c, 2, 63, 0
8, 101040, Note_on_c, 2, 63, 44
8, 101040, Note_on_c, 2, 60, 44
8, 101264, Note_on_c, 2, 63, 0
8, 101279, Note_on_c, 2, 60, 0
8, 101280, Note_on_c, 2, 65, 44
8, 101579, Note_on_c, 2, 65, 0
8, 101580, Note_on_c, 2, 68, 44
8, 101631, Note_on_c, 2, 68, 0
8, 101640, Note_on_c, 2, 67, 44
8, 101684, Note_on_c, 2, 67, 0
8, 101700, Note_on_c, 2, 65, 44
8, 101744, Note_on_c, 2, 65, 0
8, 101760, Note_on_c, 2, 65, 44
8, 102059, Note_on_c, 2, 65, 0
8, 102060, Note_on_c, 2, 80, 44
8, 102060, Note_on_c, 2, 71, 44
8, 102111, Note_on_c, 2, 80, 0
8, 102111, Note_on_c, 2, 71, 0
8, 102120, Note_on_c, 2, 71, 44
8, 102120, Note_on_c, 2, 79, 44
8, 102171, Note_on_c, 2, 71, 0
8, 102171, Note_on_c, 2, 79, 0
8, 102180, Note_on_c, 2, 71, 44
8, 102180, Note_on_c, 2, 77, 44
8, 102224, Note_on_c, 2, 71, 0
8, 102224, Note_on_c, 2, 77, 0
8, 102240, Note_on_c, 2, 72, 44
8, 102240, Note_on_c, 2, 75, 44
8, 102419, Note_on_c, 2, 72, 0
8, 102419, Note_on_c, 2, 75, 0
8, 102480, Note_on_c, 2, 72, 44
8, 102480, Note_on_c, 2, 74, 44
8, 102659, Note_on_c, 2, 72, 0
8, 102659, Note_on_c, 2, 74, 0
8, 102720, Note_on_c, 2, 68, 44
8, 102720, Note_on_c, 2, 72, 44
8, 102899, Note_on_c, 2, 68, 0
8, 102899, Note_on_c, 2, 72, 0
8, 102960, Note_on_c, 2, 65, 44
8, 102960, Note_on_c, 2, 71, 44
8, 103139, Note_on_c, 2, 65, 0
8, 103139, Note_on_c, 2, 71, 0
8, 103200, Note_on_c, 2, 60, 44
8, 103259, Note_on_c, 2, 60, 0
8, 103260, Note_on_c, 2, 71, 46
8, 103319, Note_on_c, 2, 71, 0
8, 103320, Note_on_c, 2, 72, 48
8, 103379, Note_on_c, 2, 72, 0
8, 103380, Note_on_c, 2, 71, 50
8, 103439, Note_on_c, 2, 71, 0
8, 103440, Note_on_c, 2, 72, 53
8, 103499, Note_on_c, 2, 72, 0
8, 103500, Note_on_c, 2, 71, 55
8, 103559, Note_on_c, 2, 71, 0
8, 103560, Note_on_c, 2, 72, 57
8, 103619, Note_on_c, 2, 72, 0
8, 103620, Note_on_c, 2, 74, 59
8, 103679, Note_on_c, 2, 74, 0
8, 103680, Note_on_c, 2, 75, 62
8, 103739, Note_on_c, 2, 75, 0
8, 103740, Note_on_c, 2, 74, 64
8, 103799, Note_on_c, 2, 74, 0
8, 103800, Note_on_c, 2, 75, 66
8, 103859, Note_on_c, 2, 75, 0
8, 103860, Note_on_c, 2, 77, 68
8, 103919, Note_on_c, 2, 77, 0
8, 103920, Note_on_c, 2, 79, 71
8, 103979, Note_on_c, 2, 79, 0
8, 103980, Note_on_c, 2, 67, 73
8, 104039, Note_on_c, 2, 67, 0
8, 104040, Note_on_c, 2, 68, 75
8, 104099, Note_on_c, 2, 68, 0
8, 104100, Note_on_c, 2, 67, 77
8, 104151, Note_on_c, 2, 67, 0
8, 104160, Note_on_c, 2, 72, 80
8, 104279, Note_on_c, 2, 72, 0
8, 110940, Note_on_c, 2, 77, 80
8, 110984, Note_on_c, 2, 77, 0
8, 111000, Note_on_c, 2, 75, 80
8, 111044, Note_on_c, 2, 75, 0
8, 111060, Note_on_c, 2, 74, 80
8, 111104, Note_on_c, 2, 74, 0
8, 111120, Note_on_c, 2, 72, 80
8, 111164, Note_on_c, 2, 72, 0
8, 111180, Note_on_c, 2, 70, 80
8, 111224, Note_on_c, 2, 70, 0
8, 111240, Note_on_c, 2, 69, 80
8, 111284, Note_on_c, 2, 69, 0
8, 111300, Note_on_c, 2, 70, 80
8, 111344, Note_on_c, 2, 70, 0
8, 111360, Note_on_c, 2, 70, 80
8, 111419, Note_on_c, 2, 70, 0
8, 111420, Note_on_c, 2, 69, 80
8, 111471, Note_on_c, 2, 69, 0
8, 111480, Note_on_c, 2, 69, 80
8, 111524, Note_on_c, 2, 69, 0
8, 111540, Note_on_c, 2, 72, 80
8, 111584, Note_on_c, 2, 72, 0
8, 111600, Note_on_c, 2, 69, 80
8, 111644, Note_on_c, 2, 69, 0
8, 111660, Note_on_c, 2, 72, 80
8, 111704, Note_on_c, 2, 72, 0
8, 111720, Note_on_c, 2, 70, 80
8, 111764, Note_on_c, 2, 70, 0
8, 111780, Note_on_c, 2, 69, 80
8, 111824, Note_on_c, 2, 69, 0
8, 111840, Note_on_c, 2, 72, 80
8, 111899, Note_on_c, 2, 72, 0
8, 111900, Note_on_c, 2, 70, 80
8, 111951, Note_on_c, 2, 70, 0
8, 111960, Note_on_c, 2, 70, 80
8, 112004, Note_on_c, 2, 70, 0
8, 112020, Note_on_c, 2, 74, 80
8, 112064, Note_on_c, 2, 74, 0
8, 112080, Note_on_c, 2, 70, 80
8, 112124, Note_on_c, 2, 70, 0
8, 112140, Note_on_c, 2, 74, 80
8, 112184, Note_on_c, 2, 74, 0
8, 112200, Note_on_c, 2, 72, 80
8, 112244, Note_on_c, 2, 72, 0
8, 112260, Note_on_c, 2, 70, 80
8, 112304, Note_on_c, 2, 70, 0
8, 112320, Note_on_c, 2, 74, 80
8, 112379, Note_on_c, 2, 74, 0
8, 112380, Note_on_c, 2, 72, 80
8, 112431, Note_on_c, 2, 72, 0
8, 112440, Note_on_c, 2, 72, 80
8, 112484, Note_on_c, 2, 72, 0
8, 112500, Note_on_c, 2, 75, 80
8, 112544, Note_on_c, 2, 75, 0
8, 112560, Note_on_c, 2, 72, 80
8, 112604, Note_on_c, 2, 72, 0
8, 112620, Note_on_c, 2, 69, 80
8, 112664, Note_on_c, 2, 69, 0
8, 112680, Note_on_c, 2, 70, 80
8, 112724, Note_on_c, 2, 70, 0
8, 112740, Note_on_c, 2, 72, 80
8, 112784, Note_on_c, 2, 72, 0
8, 112800, Note_on_c, 2, 70, 80
8, 113091, Note_on_c, 2, 70, 0
8, 113100, Note_on_c, 2, 74, 80
8, 113144, Note_on_c, 2, 74, 0
8, 113160, Note_on_c, 2, 72, 80
8, 113204, Note_on_c, 2, 72, 0
8, 113220, Note_on_c, 2, 70, 80
8, 113264, Note_on_c, 2, 70, 0
8, 113280, Note_on_c, 2, 77, 80
8, 113369, Note_on_c, 2, 77, 0
8, 113400, Note_on_c, 2, 75, 80
8, 113489, Note_on_c, 2, 75, 0
8, 113520, Note_on_c, 2, 72, 80
8, 113609, Note_on_c, 2, 72, 0
8, 113640, Note_on_c, 2, 77, 80
8, 113864, Note_on_c, 2, 77, 0
8, 113880, Note_on_c, 2, 74, 80
8, 113969, Note_on_c, 2, 74, 0
8, 114000, Note_on_c, 2, 70, 80
8, 114089, Note_on_c, 2, 70, 0
8, 114120, Note_on_c, 2, 77, 80
8, 114344, Note_on_c, 2, 77, 0
8, 114360, Note_on_c, 2, 72, 80
8, 114449, Note_on_c, 2, 72, 0
8, 114480, Note_on_c, 2, 69, 80
8, 114569, Note_on_c, 2, 69, 0
8, 114600, Note_on_c, 2, 77, 80
8, 114689, Note_on_c, 2, 77, 0
8, 114720, Note_on_c, 2, 62, 80
8, 114720, Note_on_c, 2, 65, 80
8, 115064, Note_on_c, 2, 62, 0
8, 115064, Note_on_c, 2, 65, 0
8, 115080, Note_on_c, 2, 67, 80
8, 115080, Note_on_c, 2, 62, 80
8, 115544, Note_on_c, 2, 67, 0
8, 115544, Note_on_c, 2, 62, 0
8, 115560, Note_on_c, 2, 62, 80
8, 115560, Note_on_c, 2, 67, 80
8, 116024, Note_on_c, 2, 62, 0
8, 116024, Note_on_c, 2, 67, 0
8, 116040, Note_on_c, 2, 67, 80
8, 116040, Note_on_c, 2, 62, 80
8, 116159, Note_on_c, 2, 62, 0
8, 116160, Note_on_c, 2, 59, 80
8, 116504, Note_on_c, 2, 67, 0
8, 116504, Note_on_c, 2, 59, 0
8, 116520, Note_on_c, 2, 65, 80
8, 116520, Note_on_c, 2, 59, 80
8, 116984, Note_on_c, 2, 65, 0
8, 116984, Note_on_c, 2, 59, 0
8, 117000, Note_on_c, 2, 61, 80
8, 117000, Note_on_c, 2, 64, 80
8, 117119, Note_on_c, 2, 61, 0
8, 117120, Note_on_c, 2, 57, 80
8, 117464, Note_on_c, 2, 64, 0
8, 117464, Note_on_c, 2, 57, 0
8, 117480, Note_on_c, 2, 57, 80
8, 117480, Note_on_c, 2, 64, 80
8, 117704, Note_on_c, 2, 57, 0
8, 117704, Note_on_c, 2, 64, 0
8, 117720, Note_on_c, 2, 57, 80
8, 117720, Note_on_c, 2, 62, 80
8, 117944, Note_on_c, 2, 57, 0
8, 117944, Note_on_c, 2, 62, 0
8, 117960, Note_on_c, 2, 62, 80
8, 117960, Note_on_c, 2, 57, 80
8, 118424, Note_on_c, 2, 62, 0
8, 118424, Note_on_c, 2, 57, 0
8, 118440, Note_on_c, 2, 57, 80
8, 118440, Note_on_c, 2, 62, 80
8, 118904, Note_on_c, 2, 57, 0
8, 118904, Note_on_c, 2, 62, 0
8, 118920, Note_on_c, 2, 60, 80
8, 118920, Note_on_c, 2, 57, 80
8, 119144, Note_on_c, 2, 60, 0
8, 119144, Note_on_c, 2, 57, 0
8, 119160, Note_on_c, 2, 59, 80
8, 119384, Note_on_c, 2, 59, 0
8, 119400, Note_on_c, 2, 59, 80
8, 119624, Note_on_c, 2, 59, 0
8, 119640, Note_on_c, 2, 62, 80
8, 119729, Note_on_c, 2, 62, 0
8, 119760, Note_on_c, 2, 65, 80
8, 119849, Note_on_c, 2, 65, 0
8, 119880, Note_on_c, 2, 60, 80
8, 120104, Note_on_c, 2, 60, 0
8, 120120, Note_on_c, 2, 59, 80
8, 120344, Note_on_c, 2, 59, 0
8, 120360, Note_on_c, 2, 59, 80
8, 120584, Note_on_c, 2, 59, 0
8, 120600, Note_on_c, 2, 62, 80
8, 120689, Note_on_c, 2, 62, 0
8, 120720, Note_on_c, 2, 65, 80
8, 120809, Note_on_c, 2, 65, 0
8, 122940, Note_on_c, 2, 71, 44
8, 122984, Note_on_c, 2, 71, 0
8, 123000, Note_on_c, 2, 72, 44
8, 123044, Note_on_c, 2, 72, 0
8, 123060, Note_on_c, 2, 74, 44
8, 123104, Note_on_c, 2, 74, 0
8, 123120, Note_on_c, 2, 74, 44
8, 123239, Note_on_c, 2, 74, 0
8, 123420, Note_on_c, 2, 71, 32
8, 123464, Note_on_c, 2, 71, 0
8, 123480, Note_on_c, 2, 72, 32
8, 123524, Note_on_c, 2, 72, 0
8, 123540, Note_on_c, 2, 74, 32
8, 123584, Note_on_c, 2, 74, 0
8, 123600, Note_on_c, 2, 74, 32
8, 123719, Note_on_c, 2, 74, 0
8, 126780, Note_on_c, 2, 71, 32
8, 126824, Note_on_c, 2, 71, 0
8, 126840, Note_on_c, 2, 72, 33
8, 126884, Note_on_c, 2, 72, 0
8, 126900, Note_on_c, 2, 74, 34
8, 126944, Note_on_c, 2, 74, 0
8, 126960, Note_on_c, 2, 74, 35
8, 127079, Note_on_c, 2, 74, 0
8, 127260, Note_on_c, 2, 71, 39
8, 127304, Note_on_c, 2, 71, 0
8, 127320, Note_on_c, 2, 72, 40
8, 127364, Note_on_c, 2, 72, 0
8, 127380, Note_on_c, 2, 74, 41
8, 127424, Note_on_c, 2, 74, 0
8, 127440, Note_on_c, 2, 74, 41
8, 127484, Note_on_c, 2, 74, 0
8, 127500, Note_on_c, 2, 71, 42
8, 127544, Note_on_c, 2, 71, 0
8, 127560, Note_on_c, 2, 72, 43
8, 127604, Note_on_c, 2, 72, 0
8, 127620, Note_on_c, 2, 71, 44
8, 127664, Note_on_c, 2, 71, 0
8, 127680, Note_on_c, 2, 69, 45
8, 127731, Note_on_c, 2, 69, 0
8, 127740, Note_on_c, 2, 69, 45
8, 127740, Note_on_c, 2, 72, 45
8, 127791, Note_on_c, 2, 69, 0
8, 127791, Note_on_c, 2, 72, 0
8, 127800, Note_on_c, 2, 69, 46
8, 127800, Note_on_c, 2, 72, 46
8, 127851, Note_on_c, 2, 69, 0
8, 127851, Note_on_c, 2, 72, 0
8, 127860, Note_on_c, 2, 69, 47
8, 127860, Note_on_c, 2, 72, 47
8, 127911, Note_on_c, 2, 69, 0
8, 127911, Note_on_c, 2, 72, 0
8, 127920, Note_on_c, 2, 72, 48
8, 127920, Note_on_c, 2, 67, 48
8, 127971, Note_on_c, 2, 72, 0
8, 127971, Note_on_c, 2, 67, 0
8, 127980, Note_on_c, 2, 67, 49
8, 127980, Note_on_c, 2, 72, 49
8, 128031, Note_on_c, 2, 67, 0
8, 128031, Note_on_c, 2, 72, 0
8, 128040, Note_on_c, 2, 67, 50
8, 128040, Note_on_c, 2, 72, 50
8, 128091, Note_on_c, 2, 67, 0
8, 128091, Note_on_c, 2, 72, 0
8, 128100, Note_on_c, 2, 72, 50
8, 128100, Note_on_c, 2, 67, 50
8, 128151, Note_on_c, 2, 72, 0
8, 128151, Note_on_c, 2, 67, 0
8, 128160, Note_on_c, 2, 65, 51
8, 128160, Note_on_c, 2, 69, 51
8, 128211, Note_on_c, 2, 65, 0
8, 128211, Note_on_c, 2, 69, 0
8, 128220, Note_on_c, 2, 65, 52
8, 128220, Note_on_c, 2, 69, 52
8, 128271, Note_on_c, 2, 65, 0
8, 128271, Note_on_c, 2, 69, 0
8, 128280, Note_on_c, 2, 65, 53
8, 128280, Note_on_c, 2, 69, 53
8, 128331, Note_on_c, 2, 65, 0
8, 128331, Note_on_c, 2, 69, 0
8, 128340, Note_on_c, 2, 65, 54
8, 128340, Note_on_c, 2, 69, 54
8, 128391, Note_on_c, 2, 65, 0
8, 128391, Note_on_c, 2, 69, 0
8, 128400, Note_on_c, 2, 64, 54
8, 128400, Note_on_c, 2, 69, 54
8, 128451, Note_on_c, 2, 64, 0
8, 128451, Note_on_c, 2, 69, 0
8, 128460, Note_on_c, 2, 69, 55
8, 128460, Note_on_c, 2, 64, 55
8, 128511, Note_on_c, 2, 69, 0
8, 128511, Note_on_c, 2, 64, 0
8, 128520, Note_on_c, 2, 69, 56
8, 128520, Note_on_c, 2, 64, 56
8, 128571, Note_on_c, 2, 69, 0
8, 128571, Note_on_c, 2, 64, 0
8, 128580, Note_on_c, 2, 69, 57
8, 128580, Note_on_c, 2, 64, 57
8, 128631, Note_on_c, 2, 69, 0
8, 128631, Note_on_c, 2, 64, 0
8, 128640, Note_on_c, 2, 65, 58
8, 128640, Note_on_c, 2, 62, 58
8, 128691, Note_on_c, 2, 65, 0
8, 128691, Note_on_c, 2, 62, 0
8, 128700, Note_on_c, 2, 62, 59
8, 128700, Note_on_c, 2, 65, 59
8, 128751, Note_on_c, 2, 62, 0
8, 128751, Note_on_c, 2, 65, 0
8, 128760, Note_on_c, 2, 65, 59
8, 128760, Note_on_c, 2, 62, 59
8, 128811, Note_on_c, 2, 65, 0
8, 128811, Note_on_c, 2, 62, 0
8, 128820, Note_on_c, 2, 65, 60
8, 128820, Note_on_c, 2, 62, 60
8, 128871, Note_on_c, 2, 65, 0
8, 128871, Note_on_c, 2, 62, 0
8, 128880, Note_on_c, 2, 57, 61
8, 128880, Note_on_c, 2, 65, 61
8, 128931, Note_on_c, 2, 57, 0
8, 128931, Note_on_c, 2, 65, 0
8, 128940, Note_on_c, 2, 65, 62
8, 128940, Note_on_c, 2, 57, 62
8, 128991, Note_on_c, 2, 65, 0
8, 128991, Note_on_c, 2, 57, 0
8, 129000, Note_on_c, 2, 57, 63
8, 129000, Note_on_c, 2, 65, 63
8, 129051, Note_on_c, 2, 57, 0
8, 129051, Note_on_c, 2, 65, 0
8, 129060, Note_on_c, 2, 57, 63
8, 129060, Note_on_c, 2, 65, 63
8, 129111, Note_on_c, 2, 57, 0
8, 129111, Note_on_c, 2, 65, 0
8, 129120, Note_on_c, 2, 62, 64
8, 129120, Note_on_c, 2, 59, 64
8, 129171, Note_on_c, 2, 62, 0
8, 129171, Note_on_c, 2, 59, 0
8, 129180, Note_on_c, 2, 59, 65
8, 129180, Note_on_c, 2, 62, 65
8, 129231, Note_on_c, 2, 59, 0
8, 129231, Note_on_c, 2, 62, 0
8, 129240, Note_on_c, 2, 59, 66
8, 129240, Note_on_c, 2, 62, 66
8, 129291, Note_on_c, 2, 59, 0
8, 129291, Note_on_c, 2, 62, 0
8, 129300, Note_on_c, 2, 59, 67
8, 129300, Note_on_c, 2, 62, 67
8, 129351, Note_on_c, 2, 59, 0
8, 129351, Note_on_c, 2, 62, 0
8, 129360, Note_on_c, 2, 57, 68
8, 129360, Note_on_c, 2, 60, 68
8, 129411, Note_on_c, 2, 60, 0
8, 129420, Note_on_c, 2, 69, 59
8, 129471, Note_on_c, 2, 69, 0
8, 129479, Note_on_c, 2, 57, 0
8, 129480, Note_on_c, 2, 69, 50
8, 129531, Note_on_c, 2, 69, 0
8, 129540, Note_on_c, 2, 69, 41
8, 129591, Note_on_c, 2, 69, 0
8, 129600, Note_on_c, 2, 68, 32
8, 129719, Note_on_c, 2, 68, 0
8, 129720, Note_on_c, 2, 69, 32
8, 129944, Note_on_c, 2, 69, 0
8, 129960, Note_on_c, 2, 69, 32
8, 130064, Note_on_c, 2, 69, 0
8, 130080, Note_on_c, 2, 68, 32
8, 130199, Note_on_c, 2, 68, 0
8, 130200, Note_on_c, 2, 69, 32
8, 130424, Note_on_c, 2, 69, 0
8, 130440, Note_on_c, 2, 69, 32
8, 130544, Note_on_c, 2, 69, 0
8, 130560, Note_on_c, 2, 68, 32
8, 130679, Note_on_c, 2, 68, 0
8, 130680, Note_on_c, 2, 69, 32
8, 130851, Note_on_c, 2, 69, 0
8, 130860, Note_on_c, 2, 69, 32
8, 130904, Note_on_c, 2, 69, 0
8, 130920, Note_on_c, 2, 69, 32
8, 130964, Note_on_c, 2, 69, 0
8, 130980, Note_on_c, 2, 69, 32
8, 131024, Note_on_c, 2, 69, 0
8, 131040, Note_on_c, 2, 69, 32
8, 131159, Note_on_c, 2, 69, 0
8, 131340, Note_on_c, 2, 57, 32
8, 131340, Note_on_c, 2, 69, 32
8, 131384, Note_on_c, 2, 57, 0
8, 131384, Note_on_c, 2, 69, 0
8, 131400, Note_on_c, 2, 57, 32
8, 131400, Note_on_c, 2, 69, 32
8, 131444, Note_on_c, 2, 57, 0
8, 131444, Note_on_c, 2, 69, 0
8, 131460, Note_on_c, 2, 56, 32
8, 131460, Note_on_c, 2, 68, 32
8, 131504, Note_on_c, 2, 56, 0
8, 131504, Note_on_c, 2, 68, 0
8, 131520, Note_on_c, 2, 69, 32
8, 131520, Note_on_c, 2, 60, 32
8, 131639, Note_on_c, 2, 69, 0
8, 131864, Note_on_c, 2, 60, 0
8, 131880, Note_on_c, 2, 65, 38
8, 131984, Note_on_c, 2, 65, 0
8, 132000, Note_on_c, 2, 64, 32
8, 132344, Note_on_c, 2, 64, 0
8, 132360, Note_on_c, 2, 69, 38
8, 132464, Note_on_c, 2, 69, 0
8, 132480, Note_on_c, 2, 68, 32
8, 132719, Note_on_c, 2, 68, 0
8, 132840, Note_on_c, 2, 74, 38
8, 132944, Note_on_c, 2, 74, 0
8, 132960, Note_on_c, 2, 71, 32
8, 133304, Note_on_c, 2, 71, 0
8, 133320, Note_on_c, 2, 77, 38
8, 133424, Note_on_c, 2, 77, 0
8, 133440, Note_on_c, 2, 76, 32
8, 133679, Note_on_c, 2, 76, 0
8, 135600, Note_on_c, 2, 57, 44
8, 135644, Note_on_c, 2, 57, 0
8, 135660, Note_on_c, 2, 60, 44
8, 135704, Note_on_c, 2, 60, 0
8, 135720, Note_on_c, 2, 65, 44
8, 135764, Note_on_c, 2, 65, 0
8, 135780, Note_on_c, 2, 69, 44
8, 135824, Note_on_c, 2, 69, 0
8, 135840, Note_on_c, 2, 72, 44
8, 135959, Note_on_c, 2, 72, 0
8, 136080, Note_on_c, 2, 57, 44
8, 136124, Note_on_c, 2, 57, 0
8, 136140, Note_on_c, 2, 60, 44
8, 136184, Note_on_c, 2, 60, 0
8, 136200, Note_on_c, 2, 65, 44
8, 136244, Note_on_c, 2, 65, 0
8, 136260, Note_on_c, 2, 69, 44
8, 136304, Note_on_c, 2, 69, 0
8, 136320, Note_on_c, 2, 58, 44
8, 136439, Note_on_c, 2, 58, 0
8, 136560, Note_on_c, 2, 64, 44
8, 136604, Note_on_c, 2, 64, 0
8, 136620, Note_on_c, 2, 55, 44
8, 136664, Note_on_c, 2, 55, 0
8, 136680, Note_on_c, 2, 60, 44
8, 136724, Note_on_c, 2, 60, 0
8, 136740, Note_on_c, 2, 64, 44
8, 136784, Note_on_c, 2, 64, 0
8, 136800, Note_on_c, 2, 67, 44
8, 136919, Note_on_c, 2, 67, 0
8, 137040, Note_on_c, 2, 55, 44
8, 137084, Note_on_c, 2, 55, 0
8, 137100, Note_on_c, 2, 60, 44
8, 137144, Note_on_c, 2, 60, 0
8, 137160, Note_on_c, 2, 64, 44
8, 137204, Note_on_c, 2, 64, 0
8, 137220, Note_on_c, 2, 67, 44
8, 137264, Note_on_c, 2, 67, 0
8, 137280, Note_on_c, 2, 65, 44
8, 137399, Note_on_c, 2, 65, 0
8, 140160, Note_on_c, 2, 70, 44
8, 140459, Note_on_c, 2, 70, 0
8, 140460, Note_on_c, 2, 74, 44
8, 140511, Note_on_c, 2, 74, 0
8, 140520, Note_on_c, 2, 72, 44
8, 140564, Note_on_c, 2, 72, 0
8, 140580, Note_on_c, 2, 70, 44
8, 140624, Note_on_c, 2, 70, 0
8, 140640, Note_on_c, 2, 70, 44
8, 140939, Note_on_c, 2, 70, 0
8, 140940, Note_on_c, 2, 74, 44
8, 140991, Note_on_c, 2, 74, 0
8, 141000, Note_on_c, 2, 72, 44
8, 141044, Note_on_c, 2, 72, 0
8, 141060, Note_on_c, 2, 70, 44
8, 141104, Note_on_c, 2, 70, 0
8, 141118, Control_c, 2, 11, 67
8, 141120, Note_on_c, 2, 70, 80
8, 141120, Control_c, 2, 11, 67
8, 141140, Control_c, 2, 11, 68
8, 141160, Control_c, 2, 11, 70
8, 141164, Note_on_c, 2, 70, 0
8, 141180, Note_on_c, 2, 67, 80
8, 141180, Control_c, 2, 11, 71
8, 141180, Note_on_c, 2, 76, 80
8, 141200, Control_c, 2, 11, 72
8, 141220, Control_c, 2, 11, 73
8, 141224, Note_on_c, 2, 67, 0
8, 141224, Note_on_c, 2, 76, 0
8, 141240, Control_c, 2, 11, 75
8, 141240, Note_on_c, 2, 69, 80
8, 141240, Note_on_c, 2, 77, 80
8, 141260, Control_c, 2, 11, 76
8, 141280, Control_c, 2, 11, 77
8, 141284, Note_on_c, 2, 69, 0
8, 141284, Note_on_c, 2, 77, 0
8, 141300, Note_on_c, 2, 79, 80
8, 141300, Control_c, 2, 11, 78
8, 141300, Note_on_c, 2, 70, 80
8, 141320, Control_c, 2, 11, 80
8, 141340, Control_c, 2, 11, 81
8, 141344, Note_on_c, 2, 79, 0
8, 141344, Note_on_c, 2, 70, 0
8, 141360, Control_c, 2, 11, 82
8, 141360, Note_on_c, 2, 70, 80
8, 141360, Note_on_c, 2, 79, 80
8, 141380, Control_c, 2, 11, 83
8, 141400, Control_c, 2, 11, 85
8, 141420, Control_c, 2, 11, 86
8, 141440, Control_c, 2, 11, 87
8, 141460, Control_c, 2, 11, 88
8, 141480, Control_c, 2, 11, 90
8, 141500, Control_c, 2, 11, 91
8, 141520, Control_c, 2, 11, 92
8, 141540, Control_c, 2, 11, 93
8, 141560, Control_c, 2, 11, 95
8, 141580, Control_c, 2, 11, 96
8, 141600, Control_c, 2, 11, 97
8, 141620, Control_c, 2, 11, 98
8, 141640, Control_c, 2, 11, 100
8, 141651, Note_on_c, 2, 70, 0
8, 141651, Note_on_c, 2, 79, 0
8, 141660, Note_on_c, 2, 67, 80
8, 141660, Note_on_c, 2, 76, 80
8, 141660, Control_c, 2, 11, 101
8, 141680, Control_c, 2, 11, 102
8, 141700, Control_c, 2, 11, 103
8, 141704, Note_on_c, 2, 67, 0
8, 141704, Note_on_c, 2, 76, 0
8, 141720, Note_on_c, 2, 69, 80
8, 141720, Note_on_c, 2, 77, 80
8, 141720, Control_c, 2, 11, 105
8, 141740, Control_c, 2, 11, 106
8, 141760, Control_c, 2, 11, 107
8, 141764, Note_on_c, 2, 69, 0
8, 141764, Note_on_c, 2, 77, 0
8, 141780, Control_c, 2, 11, 108
8, 141780, Note_on_c, 2, 79, 80
8, 141780, Note_on_c, 2, 70, 80
8, 141800, Control_c, 2, 11, 110
8, 141820, Control_c, 2, 11, 111
8, 141824, Note_on_c, 2, 79, 0
8, 141824, Note_on_c, 2, 70, 0
8, 141840, Note_on_c, 2, 70, 80
8, 141840, Control_c, 2, 11, 112
8, 141840, Note_on_c, 2, 79, 80
8, 141860, Control_c, 2, 11, 113
8, 141880, Control_c, 2, 11, 115
8, 141900, Control_c, 2, 11, 116
8, 141920, Control_c, 2, 11, 117
8, 141940, Control_c, 2, 11, 118
8, 141960, Control_c, 2, 11, 120
8, 141980, Control_c, 2, 11, 121
8, 142000, Control_c, 2, 11, 122
8, 142020, Control_c, 2, 11, 123
8, 142040, Control_c, 2, 11, 125
8, 142060, Control_c, 2, 11, 127
8, 142064, Note_on_c, 2, 70, 0
8, 142064, Note_on_c, 2, 79, 0
8, 142080, Note_on_c, 2, 79, 80
8, 142080, Note_on_c, 2, 70, 80
8, 142124, Note_on_c, 2, 79, 0
8, 142124, Note_on_c, 2, 70, 0
8, 142140, Note_on_c, 2, 79, 80
8, 142140, Note_on_c, 2, 67, 80
8, 142184, Note_on_c, 2, 79, 0
8, 142184, Note_on_c, 2, 67, 0
8, 142200, Note_on_c, 2, 65, 80
8, 142200, Note_on_c, 2, 77, 80
8, 142244, Note_on_c, 2, 65, 0
8, 142244, Note_on_c, 2, 77, 0
8, 142260, Note_on_c, 2, 76, 80
8, 142260, Note_on_c, 2, 64, 80
8, 142304, Note_on_c, 2, 76, 0
8, 142304, Note_on_c, 2, 64, 0
8, 142320, Note_on_c, 2, 61, 80
8, 142320, Note_on_c, 2, 73, 80
8, 142364, Note_on_c, 2, 61, 0
8, 142364, Note_on_c, 2, 73, 0
8, 142380, Note_on_c, 2, 76, 80
8, 142380, Note_on_c, 2, 64, 80
8, 142424, Note_on_c, 2, 76, 0
8, 142424, Note_on_c, 2, 64, 0
8, 142440, Note_on_c, 2, 74, 80
8, 142440, Note_on_c, 2, 62, 80
8, 142484, Note_on_c, 2, 74, 0
8, 142484, Note_on_c, 2, 62, 0
8, 142500, Note_on_c, 2, 61, 80
8, 142500, Note_on_c, 2, 73, 80
8, 142544, Note_on_c, 2, 61, 0
8, 142544, Note_on_c, 2, 73, 0
8, 142560, Note_on_c, 2, 67, 80
8, 142604, Note_on_c, 2, 67, 0
8, 142620, Note_on_c, 2, 70, 80
8, 142664, Note_on_c, 2, 70, 0
8, 142680, Note_on_c, 2, 69, 80
8, 142724, Note_on_c, 2, 69, 0
8, 142740, Note_on_c, 2, 67, 80
8, 142784, Note_on_c, 2, 67, 0
8, 142800, Note_on_c, 2, 64, 80
8, 142844, Note_on_c, 2, 64, 0
8, 142860, Note_on_c, 2, 67, 80
8, 142904, Note_on_c, 2, 67, 0
8, 142920, Note_on_c, 2, 65, 80
8, 142964, Note_on_c, 2, 65, 0
8, 142980, Note_on_c, 2, 64, 80
8, 143024, Note_on_c, 2, 64, 0
8, 143040, Note_on_c, 2, 61, 80
8, 143084, Note_on_c, 2, 61, 0
8, 143100, Note_on_c, 2, 64, 80
8, 143100, Note_on_c, 2, 76, 80
8, 143144, Note_on_c, 2, 64, 0
8, 143144, Note_on_c, 2, 76, 0
8, 143160, Note_on_c, 2, 74, 80
8, 143160, Note_on_c, 2, 62, 80
8, 143204, Note_on_c, 2, 74, 0
8, 143204, Note_on_c, 2, 62, 0
8, 143220, Note_on_c, 2, 73, 80
8, 143220, Note_on_c, 2, 61, 80
8, 143264, Note_on_c, 2, 73, 0
8, 143264, Note_on_c, 2, 61, 0
8, 143280, Note_on_c, 2, 67, 80
8, 143324, Note_on_c, 2, 67, 0
8, 143340, Note_on_c, 2, 70, 80
8, 143384, Note_on_c, 2, 70, 0
8, 143400, Note_on_c, 2, 69, 80
8, 143444, Note_on_c, 2, 69, 0
8, 143460, Note_on_c, 2, 67, 80
8, 143504, Note_on_c, 2, 67, 0
8, 143520, Note_on_c, 2, 64, 80
8, 143564, Note_on_c, 2, 64, 0
8, 143580, Note_on_c, 2, 65, 80
8, 143624, Note_on_c, 2, 65, 0
8, 143640, Note_on_c, 2, 64, 80
8, 143684, Note_on_c, 2, 64, 0
8, 143700, Note_on_c, 2, 62, 80
8, 143744, Note_on_c, 2, 62, 0
8, 143760, Note_on_c, 2, 61, 80
8, 143804, Note_on_c, 2, 61, 0
8, 143820, Note_on_c, 2, 70, 80
8, 143864, Note_on_c, 2, 70, 0
8, 143880, Note_on_c, 2, 69, 80
8, 143924, Note_on_c, 2, 69, 0
8, 143940, Note_on_c, 2, 67, 80
8, 143984, Note_on_c, 2, 67, 0
8, 144000, Note_on_c, 2, 69, 92
8, 144000, Note_on_c, 2, 62, 92
8, 145881, Note_on_c, 2, 69, 0
8, 145881, Note_on_c, 2, 62, 0
8, 145890, Note_on_c, 2, 62, 92
8, 145890, Note_on_c, 2, 69, 92
8, 145911, Note_on_c, 2, 62, 0
8, 145911, Note_on_c, 2, 69, 0
8, 145920, Note_on_c, 2, 62, 92
8, 145920, Note_on_c, 2, 69, 92
8, 147801, Note_on_c, 2, 62, 0
8, 147801, Note_on_c, 2, 69, 0
8, 147810, Note_on_c, 2, 62, 92
8, 147810, Note_on_c, 2, 69, 92
8, 147831, Note_on_c, 2, 62, 0
8, 147831, Note_on_c, 2, 69, 0
8, 147840, Note_on_c, 2, 69, 92
8, 147840, Note_on_c, 2, 62, 92
8, 148761, Note_on_c, 2, 69, 0
8, 148761, Note_on_c, 2, 62, 0
8, 148770, Note_on_c, 2, 62, 92
8, 148770, Note_on_c, 2, 69, 92
8, 148791, Note_on_c, 2, 62, 0
8, 148791, Note_on_c, 2, 69, 0
8, 148800, Note_on_c, 2, 62, 92
8, 148800, Note_on_c, 2, 69, 92
8, 149519, Note_on_c, 2, 69, 0
8, 149520, Note_on_c, 2, 70, 92
8, 149624, Note_on_c, 2, 62, 0
8, 149624, Note_on_c, 2, 70, 0
8, 149640, Note_on_c, 2, 74, 92
8, 149640, Note_on_c, 2, 68, 92
8, 150719, Note_on_c, 2, 68, 0
8, 150720, Note_on_c, 2, 69, 92
8, 151641, Note_on_c, 2, 74, 0
8, 151641, Note_on_c, 2, 69, 0
8, 151650, Note_on_c, 2, 74, 92
8, 151671, Note_on_c, 2, 74, 0
8, 151680, Note_on_c, 2, 81, 92
8, 151680, Note_on_c, 2, 69, 92
8, 152121, Note_on_c, 2, 81, 0
8, 152121, Note_on_c, 2, 69, 0
8, 152130, Note_on_c, 2, 65, 92
8, 152130, Note_on_c, 2, 77, 92
8, 152151, Note_on_c, 2, 65, 0
8, 152151, Note_on_c, 2, 77, 0
8, 152160, Note_on_c, 2, 74, 92
8, 152160, Note_on_c, 2, 62, 92
8, 152361, Note_on_c, 2, 74, 0
8, 152361, Note_on_c, 2, 62, 0
8, 152370, Note_on_c, 2, 57, 92
8, 152370, Note_on_c, 2, 69, 92
8, 152391, Note_on_c, 2, 57, 0
8, 152391, Note_on_c, 2, 69, 0
8, 152400, Note_on_c, 2, 65, 92
8, 152400, Note_on_c, 2, 53, 92
8, 152564, Note_on_c, 2, 65, 0
8, 152564, Note_on_c, 2, 53, 0
8, 152580, Note_on_c, 2, 69, 92
8, 152609, Note_on_c, 2, 69, 0
8, 152610, Note_on_c, 2, 65, 92
8, 152631, Note_on_c, 2, 65, 0
8, 152640, Note_on_c, 2, 62, 92
8, 152640, Note_on_c, 2, 74, 92
8, 153584, Note_on_c, 2, 62, 0
8, 153584, Note_on_c, 2, 74, 0
8, 153600, Note_on_c, 2, 74, 92
8, 153600, Note_on_c, 2, 62, 92
8, 153891, Note_on_c, 2, 74, 0
8, 153891, Note_on_c, 2, 62, 0
8, 153900, Note_on_c, 2, 77, 92
8, 153900, Note_on_c, 2, 65, 92
8, 153944, Note_on_c, 2, 77, 0
8, 153944, Note_on_c, 2, 65, 0
8, 153960, Note_on_c, 2, 76, 92
8, 153960, Note_on_c, 2, 64, 92
8, 154004, Note_on_c, 2, 76, 0
8, 154004, Note_on_c, 2, 64, 0
8, 154020, Note_on_c, 2, 62, 92
8, 154020, Note_on_c, 2, 74, 92
8, 154064, Note_on_c, 2, 62, 0
8, 154064, Note_on_c, 2, 74, 0
8, 154080, Note_on_c, 2, 81, 92
8, 154080, Note_on_c, 2, 69, 92
8, 154169, Note_on_c, 2, 81, 0
8, 154169, Note_on_c, 2, 69, 0
8, 154200, Note_on_c, 2, 79, 92
8, 154200, Note_on_c, 2, 67, 92
8, 154289, Note_on_c, 2, 79, 0
8, 154289, Note_on_c, 2, 67, 0
8, 154320, Note_on_c, 2, 76, 92
8, 154320, Note_on_c, 2, 64, 92
8, 154409, Note_on_c, 2, 76, 0
8, 154409, Note_on_c, 2, 64, 0
8, 154440, Note_on_c, 2, 81, 92
8, 154440, Note_on_c, 2, 69, 92
8, 154529, Note_on_c, 2, 81, 0
8, 154529, Note_on_c, 2, 69, 0
8, 154560, Note_on_c, 2, 78, 80
8, 154560, Note_on_c, 2, 66, 80
8, 155024, Note_on_c, 2, 78, 0
8, 155024, Note_on_c, 2, 66, 0
8, 155040, Note_on_c, 2, 75, 80
8, 155040, Note_on_c, 2, 63, 80
8, 155219, Note_on_c, 2, 75, 0
8, 155219, Note_on_c, 2, 63, 0
8, 155280, Note_on_c, 2, 78, 80
8, 155280, Note_on_c, 2, 66, 80
8, 155459, Note_on_c, 2, 78, 0
8, 155459, Note_on_c, 2, 66, 0
8, 155520, Note_on_c, 2, 67, 80
8, 155520, Note_on_c, 2, 79, 80
8, 155984, Note_on_c, 2, 67, 0
8, 155984, Note_on_c, 2, 79, 0
8, 156000, Note_on_c, 2, 67, 80
8, 156000, Note_on_c, 2, 79, 80
8, 156179, Note_on_c, 2, 67, 0
8, 156179, Note_on_c, 2, 79, 0
8, 156240, Note_on_c, 2, 67, 80
8, 156240, Note_on_c, 2, 79, 80
8, 156419, Note_on_c, 2, 67, 0
8, 156419, Note_on_c, 2, 79, 0
8, 156480, Note_on_c, 2, 67, 92
8, 156480, Note_on_c, 2, 79, 92
8, 156540, Control_c, 2, 11, 107
8, 157424, Note_on_c, 2, 67, 0
8, 157424, Note_on_c, 2, 79, 0
8, 157438, Control_c, 2, 11, 127
8, 157440, Note_on_c, 2, 69, 92
8, 157440, Note_on_c, 2, 81, 92
8, 157500, Control_c, 2, 11, 107
8, 157784, Note_on_c, 2, 69, 0
8, 157784, Note_on_c, 2, 81, 0
8, 157798, Control_c, 2, 11, 127
8, 157800, Note_on_c, 2, 67, 80
8, 157800, Note_on_c, 2, 79, 80
8, 157889, Note_on_c, 2, 67, 0
8, 157889, Note_on_c, 2, 79, 0
8, 157920, Note_on_c, 2, 78, 80
8, 157920, Note_on_c, 2, 66, 80
8, 158009, Note_on_c, 2, 78, 0
8, 158009, Note_on_c, 2, 66, 0
8, 158040, Note_on_c, 2, 75, 80
8, 158040, Note_on_c, 2, 63, 80
8, 158129, Note_on_c, 2, 75, 0
8, 158129, Note_on_c, 2, 63, 0
8, 158160, Note_on_c, 2, 74, 80
8, 158160, Note_on_c, 2, 62, 80
8, 158249, Note_on_c, 2, 74, 0
8, 158249, Note_on_c, 2, 62, 0
8, 158280, Note_on_c, 2, 60, 80
8, 158280, Note_on_c, 2, 72, 80
8, 158369, Note_on_c, 2, 60, 0
8, 158369, Note_on_c, 2, 72, 0
8, 158400, Note_on_c, 2, 71, 80
8, 158400, Note_on_c, 2, 59, 80
8, 158609, Note_on_c, 2, 71, 0
8, 158609, Note_on_c, 2, 59, 0
8, 158640, Note_on_c, 2, 58, 80
8, 158640, Note_on_c, 2, 70, 80
8, 158849, Note_on_c, 2, 58, 0
8, 158849, Note_on_c, 2, 70, 0
8, 159240, Note_on_c, 2, 61, 80
8, 159240, Note_on_c, 2, 73, 80
8, 159279, Note_on_c, 2, 61, 0
8, 159279, Note_on_c, 2, 73, 0
8, 159280, Note_on_c, 2, 74, 80
8, 159280, Note_on_c, 2, 62, 80
8, 159319, Note_on_c, 2, 74, 0
8, 159319, Note_on_c, 2, 62, 0
8, 159320, Note_on_c, 2, 64, 80
8, 159320, Note_on_c, 2, 76, 80
8, 159353, Note_on_c, 2, 64, 0
8, 159353, Note_on_c, 2, 76, 0
8, 159360, Note_on_c, 2, 77, 92
8, 159360, Note_on_c, 2, 65, 92
8, 159420, Control_c, 2, 11, 107
8, 159704, Note_on_c, 2, 77, 0
8, 159704, Note_on_c, 2, 65, 0
8, 159718, Control_c, 2, 11, 127
8, 159720, Note_on_c, 2, 76, 80
8, 159720, Note_on_c, 2, 64, 80
8, 159809, Note_on_c, 2, 76, 0
8, 159809, Note_on_c, 2, 64, 0
8, 159840, Note_on_c, 2, 74, 80
8, 159840, Note_on_c, 2, 62, 80
8, 159929, Note_on_c, 2, 74, 0
8, 159929, Note_on_c, 2, 62, 0
8, 159960, Note_on_c, 2, 60, 80
8, 159960, Note_on_c, 2, 72, 80
8, 160049, Note_on_c, 2, 60, 0
8, 160049, Note_on_c, 2, 72, 0
8, 160080, Note_on_c, 2, 58, 80
8, 160080, Note_on_c, 2, 70, 80
8, 160169, Note_on_c, 2, 58, 0
8, 160169, Note_on_c, 2, 70, 0
8, 160200, Note_on_c, 2, 57, 80
8, 160200, Note_on_c, 2, 69, 80
8, 160289, Note_on_c, 2, 57, 0
8, 160289, Note_on_c, 2, 69, 0
8, 160320, Note_on_c, 2, 56, 80
8, 160320, Note_on_c, 2, 68, 80
8, 160529, Note_on_c, 2, 56, 0
8, 160529, Note_on_c, 2, 68, 0
8, 160560, Note_on_c, 2, 55, 80
8, 160560, Note_on_c, 2, 67, 80
8, 160769, Note_on_c, 2, 55, 0
8, 160769, Note_on_c, 2, 67, 0
8, 161160, Note_on_c, 2, 61, 80
8, 161160, Note_on_c, 2, 73, 80
8, 161199, Note_on_c, 2, 61, 0
8, 161199, Note_on_c, 2, 73, 0
8, 161200, Note_on_c, 2, 74, 80
8, 161200, Note_on_c, 2, 62, 80
8, 161239, Note_on_c, 2, 74, 0
8, 161239, Note_on_c, 2, 62, 0
8, 161240, Note_on_c, 2, 76, 80
8, 161240, Note_on_c, 2, 64, 80
8, 161273, Note_on_c, 2, 76, 0
8, 161273, Note_on_c, 2, 64, 0
8, 161280, Note_on_c, 2, 64, 92
8, 161280, Note_on_c, 2, 76, 92
8, 161340, Control_c, 2, 11, 107
8, 161359, Control_c, 2, 11, 106
8, 161378, Control_c, 2, 11, 105
8, 161396, Control_c, 2, 11, 103
8, 161415, Control_c, 2, 11, 102
8, 161434, Control_c, 2, 11, 101
8, 161453, Control_c, 2, 11, 100
8, 161471, Control_c, 2, 11, 98
8, 161490, Control_c, 2, 11, 97
8, 161509, Control_c, 2, 11, 96
8, 161528, Control_c, 2, 11, 95
8, 161546, Control_c, 2, 11, 93
8, 161565, Control_c, 2, 11, 92
8, 161584, Control_c, 2, 11, 91
8, 161603, Control_c, 2, 11, 90
8, 161621, Control_c, 2, 11, 88
8, 161624, Note_on_c, 2, 64, 0
8, 161624, Note_on_c, 2, 76, 0
8, 161640, Note_on_c, 2, 62, 92
8, 161640, Control_c, 2, 11, 87
8, 161640, Note_on_c, 2, 74, 92
8, 161659, Control_c, 2, 11, 86
8, 161678, Control_c, 2, 11, 85
8, 161696, Control_c, 2, 11, 83
8, 161715, Control_c, 2, 11, 82
8, 161729, Note_on_c, 2, 62, 0
8, 161729, Note_on_c, 2, 74, 0
8, 161734, Control_c, 2, 11, 81
8, 161753, Control_c, 2, 11, 80
8, 161760, Note_on_c, 2, 61, 92
8, 161760, Note_on_c, 2, 73, 92
8, 161771, Control_c, 2, 11, 78
8, 161790, Control_c, 2, 11, 77
8, 161809, Control_c, 2, 11, 76
8, 161828, Control_c, 2, 11, 75
8, 161846, Control_c, 2, 11, 73
8, 161849, Note_on_c, 2, 61, 0
8, 161849, Note_on_c, 2, 73, 0
8, 161865, Control_c, 2, 11, 72
8, 161880, Note_on_c, 2, 59, 92
8, 161880, Note_on_c, 2, 71, 92
8, 161884, Control_c, 2, 11, 71
8, 161903, Control_c, 2, 11, 70
8, 161921, Control_c, 2, 11, 68
8, 161940, Control_c, 2, 11, 67
8, 161959, Control_c, 2, 11, 66
8, 161969, Note_on_c, 2, 59, 0
8, 161969, Note_on_c, 2, 71, 0
8, 161978, Control_c, 2, 11, 65
8, 161996, Control_c, 2, 11, 63
8, 162000, Note_on_c, 2, 69, 92
8, 162000, Note_on_c, 2, 57, 92
8, 162015, Control_c, 2, 11, 62
8, 162034, Control_c, 2, 11, 61
8, 162053, Control_c, 2, 11, 60
8, 162071, Control_c, 2, 11, 58
8, 162089, Note_on_c, 2, 69, 0
8, 162089, Note_on_c, 2, 57, 0
8, 162090, Control_c, 2, 11, 57
8, 162109, Control_c, 2, 11, 56
8, 162120, Note_on_c, 2, 55, 92
8, 162120, Note_on_c, 2, 67, 92
8, 162128, Control_c, 2, 11, 55
8, 162146, Control_c, 2, 11, 53
8, 162165, Control_c, 2, 11, 52
8, 162184, Control_c, 2, 11, 51
8, 162203, Control_c, 2, 11, 50
8, 162209, Note_on_c, 2, 55, 0
8, 162209, Note_on_c, 2, 67, 0
8, 162221, Control_c, 2, 11, 47
8, 162240, Note_on_c, 2, 67, 92
8, 162240, Note_on_c, 2, 55, 92
8, 162359, Note_on_c, 2, 67, 0
8, 162359, Note_on_c, 2, 55, 0
8, 168000, Control_c, 2, 11, 107
8, 168120, Control_c, 2, 11, 107
8, 168120, Note_on_c, 2, 65, 44
8, 168133, Control_c, 2, 11, 109
8, 168147, Control_c, 2, 11, 111
8, 168160, Control_c, 2, 11, 114
8, 168173, Control_c, 2, 11, 116
8, 168187, Control_c, 2, 11, 118
8, 168200, Control_c, 2, 11, 120
8, 168213, Control_c, 2, 11, 123
8, 168227, Control_c, 2, 11, 125
8, 168240, Control_c, 2, 11, 127
8, 168253, Control_c, 2, 11, 125
8, 168267, Control_c, 2, 11, 123
8, 168280, Control_c, 2, 11, 120
8, 168293, Control_c, 2, 11, 118
8, 168307, Control_c, 2, 11, 116
8, 168320, Control_c, 2, 11, 114
8, 168333, Control_c, 2, 11, 111
8, 168347, Control_c, 2, 11, 107
8, 168359, Note_on_c, 2, 65, 0
8, 168360, Note_on_c, 2, 70, 44
8, 168419, Note_on_c, 2, 70, 0
8, 168420, Note_on_c, 2, 69, 44
8, 168479, Note_on_c, 2, 69, 0
8, 169080, Note_on_c, 2, 73, 44
8, 169319, Note_on_c, 2, 73, 0
8, 169320, Note_on_c, 2, 77, 44
8, 169379, Note_on_c, 2, 77, 0
8, 169380, Note_on_c, 2, 76, 44
8, 169439, Note_on_c, 2, 76, 0
8, 169440, Control_c, 2, 11, 107
8, 169464, Control_c, 2, 11, 108
8, 169488, Control_c, 2, 11, 109
8, 169512, Control_c, 2, 11, 110
8, 169536, Control_c, 2, 11, 111
8, 169560, Control_c, 2, 11, 112
8, 169560, Note_on_c, 2, 64, 44
8, 169584, Control_c, 2, 11, 113
8, 169608, Control_c, 2, 11, 114
8, 169632, Control_c, 2, 11, 115
8, 169656, Control_c, 2, 11, 116
8, 169680, Control_c, 2, 11, 117
8, 169704, Control_c, 2, 11, 118
8, 169728, Control_c, 2, 11, 119
8, 169752, Control_c, 2, 11, 120
8, 169776, Control_c, 2, 11, 121
8, 169799, Note_on_c, 2, 64, 0
8, 169800, Note_on_c, 2, 70, 44
8, 169800, Control_c, 2, 11, 122
8, 169824, Control_c, 2, 11, 123
8, 169848, Control_c, 2, 11, 124
8, 169859, Note_on_c, 2, 70, 0
8, 169860, Note_on_c, 2, 69, 44
8, 169872, Control_c, 2, 11, 125
8, 169896, Control_c, 2, 11, 127
8, 169911, Note_on_c, 2, 69, 0
8, 169920, Note_on_c, 2, 69, 44
8, 170504, Note_on_c, 2, 69, 0
8, 170520, Note_on_c, 2, 69, 44
8, 170624, Note_on_c, 2, 69, 0
8, 170640, Note_on_c, 2, 69, 44
8, 170744, Note_on_c, 2, 69, 0
8, 170760, Note_on_c, 2, 69, 44
8, 170864, Note_on_c, 2, 69, 0
8, 170880, Note_on_c, 2, 77, 44
8, 171000, Note_on_c, 2, 64, 44
8, 171119, Note_on_c, 2, 64, 0
8, 171120, Note_on_c, 2, 65, 44
8, 171239, Note_on_c, 2, 65, 0
8, 171240, Note_on_c, 2, 70, 44
8, 171359, Note_on_c, 2, 70, 0
8, 171360, Note_on_c, 2, 71, 44
8, 171464, Note_on_c, 2, 77, 0
8, 171479, Note_on_c, 2, 71, 0
8, 171480, Note_on_c, 2, 77, 44
8, 171480, Note_on_c, 2, 72, 44
8, 171539, Note_on_c, 2, 77, 0
8, 171540, Note_on_c, 2, 75, 44
8, 171584, Note_on_c, 2, 72, 0
8, 171591, Note_on_c, 2, 75, 0
8, 171600, Note_on_c, 2, 72, 44
8, 171600, Note_on_c, 2, 75, 44
8, 171704, Note_on_c, 2, 72, 0
8, 171704, Note_on_c, 2, 75, 0
8, 171720, Note_on_c, 2, 72, 44
8, 171720, Note_on_c, 2, 75, 44
8, 171839, Note_on_c, 2, 72, 0
8, 171839, Note_on_c, 2, 75, 0
8, 172304, Control_c, 2, 11, 96
8, 172320, Note_on_c, 2, 74, 80
8, 172320, Control_c, 2, 11, 97
8, 172320, Note_on_c, 2, 62, 80
8, 172336, Control_c, 2, 11, 98
8, 172352, Control_c, 2, 11, 99
8, 172368, Control_c, 2, 11, 100
8, 172384, Control_c, 2, 11, 101
8, 172400, Control_c, 2, 11, 102
8, 172416, Control_c, 2, 11, 103
8, 172432, Control_c, 2, 11, 104
8, 172448, Control_c, 2, 11, 105
8, 172464, Control_c, 2, 11, 106
8, 172480, Control_c, 2, 11, 107
8, 172496, Control_c, 2, 11, 108
8, 172512, Control_c, 2, 11, 109
8, 172528, Control_c, 2, 11, 110
8, 172544, Control_c, 2, 11, 111
8, 172560, Control_c, 2, 11, 112
8, 172576, Control_c, 2, 11, 113
8, 172592, Control_c, 2, 11, 114
8, 172608, Control_c, 2, 11, 115
8, 172611, Note_on_c, 2, 74, 0
8, 172611, Note_on_c, 2, 62, 0
8, 172620, Note_on_c, 2, 62, 80
8, 172620, Note_on_c, 2, 66, 80
8, 172624, Control_c, 2, 11, 116
8, 172640, Control_c, 2, 11, 117
8, 172656, Control_c, 2, 11, 118
8, 172672, Control_c, 2, 11, 119
8, 172679, Note_on_c, 2, 66, 0
8, 172680, Note_on_c, 2, 67, 80
8, 172688, Control_c, 2, 11, 120
8, 172704, Control_c, 2, 11, 121
8, 172720, Control_c, 2, 11, 122
8, 172724, Note_on_c, 2, 62, 0
8, 172731, Note_on_c, 2, 67, 0
8, 172736, Control_c, 2, 11, 123
8, 172740, Note_on_c, 2, 60, 80
8, 172740, Note_on_c, 2, 69, 80
8, 172752, Control_c, 2, 11, 124
8, 172768, Control_c, 2, 11, 125
8, 172784, Control_c, 2, 11, 127
8, 172799, Note_on_c, 2, 60, 0
8, 172799, Note_on_c, 2, 69, 0
8, 172800, Note_on_c, 2, 58, 80
8, 172800, Note_on_c, 2, 70, 80
8, 172851, Note_on_c, 2, 58, 0
8, 172851, Note_on_c, 2, 70, 0
8, 172860, Note_on_c, 2, 72, 80
8, 172860, Note_on_c, 2, 60, 80
8, 172919, Note_on_c, 2, 72, 0
8, 172919, Note_on_c, 2, 60, 0
8, 172920, Note_on_c, 2, 62, 80
8, 172920, Note_on_c, 2, 74, 80
8, 172971, Note_on_c, 2, 62, 0
8, 172971, Note_on_c, 2, 74, 0
8, 172980, Note_on_c, 2, 64, 80
8, 172980, Note_on_c, 2, 76, 80
8, 173039, Note_on_c, 2, 64, 0
8, 173039, Note_on_c, 2, 76, 0
8, 173040, Note_on_c, 2, 77, 80
8, 173040, Note_on_c, 2, 65, 80
8, 173091, Note_on_c, 2, 77, 0
8, 173091, Note_on_c, 2, 65, 0
8, 173100, Note_on_c, 2, 67, 80
8, 173100, Note_on_c, 2, 79, 80
8, 173159, Note_on_c, 2, 67, 0
8, 173159, Note_on_c, 2, 79, 0
8, 173160, Note_on_c, 2, 69, 80
8, 173160, Note_on_c, 2, 81, 80
8, 173211, Note_on_c, 2, 69, 0
8, 173211, Note_on_c, 2, 81, 0
8, 173220, Note_on_c, 2, 82, 80
8, 173220, Note_on_c, 2, 70, 80
8, 173279, Note_on_c, 2, 82, 0
8, 173279, Note_on_c, 2, 70, 0
8, 173280, Note_on_c, 2, 74, 80
8, 173280, Note_on_c, 2, 77, 80
8, 173384, Note_on_c, 2, 74, 0
8, 173384, Note_on_c, 2, 77, 0
8, 173400, Note_on_c, 2, 77, 92
8, 173400, Note_on_c, 2, 74, 92
8, 173489, Note_on_c, 2, 77, 0
8, 173489, Note_on_c, 2, 74, 0
8, 173640, Note_on_c, 2, 81, 92
8, 173640, Note_on_c, 2, 73, 92
8, 173729, Note_on_c, 2, 81, 0
8, 173729, Note_on_c, 2, 73, 0
8, 174240, Control_c, 2, 11, 67
8, 174480, Control_c, 2, 11, 67
8, 174505, Control_c, 2, 11, 68
8, 174530, Control_c, 2, 11, 70
8, 174540, Note_on_c, 2, 78, 80
8, 174540, Note_on_c, 2, 66, 80
8, 174555, Control_c, 2, 11, 71
8, 174580, Control_c, 2, 11, 72
8, 174599, Note_on_c, 2, 78, 0
8, 174599, Note_on_c, 2, 66, 0
8, 174600, Note_on_c, 2, 79, 80
8, 174600, Note_on_c, 2, 67, 80
8, 174605, Control_c, 2, 11, 73
8, 174630, Control_c, 2, 11, 75
8, 174651, Note_on_c, 2, 79, 0
8, 174651, Note_on_c, 2, 67, 0
8, 174655, Control_c, 2, 11, 76
8, 174660, Note_on_c, 2, 69, 80
8, 174660, Note_on_c, 2, 81, 80
8, 174680, Control_c, 2, 11, 77
8, 174705, Control_c, 2, 11, 78
8, 174719, Note_on_c, 2, 69, 0
8, 174719, Note_on_c, 2, 81, 0
8, 174720, Note_on_c, 2, 82, 80
8, 174720, Note_on_c, 2, 70, 80
8, 174730, Control_c, 2, 11, 80
8, 174755, Control_c, 2, 11, 81
8, 174780, Control_c, 2, 11, 82
8, 174805, Control_c, 2, 11, 83
8, 174830, Control_c, 2, 11, 85
8, 174855, Control_c, 2, 11, 86
8, 174880, Control_c, 2, 11, 87
8, 174905, Control_c, 2, 11, 88
8, 174930, Control_c, 2, 11, 90
8, 174955, Control_c, 2, 11, 91
8, 174980, Control_c, 2, 11, 92
8, 175005, Control_c, 2, 11, 93
8, 175030, Control_c, 2, 11, 95
8, 175055, Control_c, 2, 11, 96
8, 175079, Note_on_c, 2, 82, 0
8, 175079, Note_on_c, 2, 70, 0
8, 175080, Note_on_c, 2, 81, 80
8, 175080, Control_c, 2, 11, 97
8, 175080, Note_on_c, 2, 69, 80
8, 175105, Control_c, 2, 11, 98
8, 175130, Control_c, 2, 11, 100
8, 175155, Control_c, 2, 11, 101
8, 175180, Control_c, 2, 11, 102
8, 175199, Note_on_c, 2, 81, 0
8, 175199, Note_on_c, 2, 69, 0
8, 175200, Note_on_c, 2, 80, 80
8, 175200, Note_on_c, 2, 68, 80
8, 175205, Control_c, 2, 11, 103
8, 175230, Control_c, 2, 11, 105
8, 175251, Note_on_c, 2, 80, 0
8, 175251, Note_on_c, 2, 68, 0
8, 175255, Control_c, 2, 11, 106
8, 175260, Note_on_c, 2, 79, 80
8, 175260, Note_on_c, 2, 67, 80
8, 175280, Control_c, 2, 11, 107
8, 175305, Control_c, 2, 11, 108
8, 175319, Note_on_c, 2, 79, 0
8, 175319, Note_on_c, 2, 67, 0
8, 175320, Note_on_c, 2, 77, 80
8, 175320, Note_on_c, 2, 65, 80
8, 175330, Control_c, 2, 11, 110
8, 175355, Control_c, 2, 11, 111
8, 175371, Note_on_c, 2, 77, 0
8, 175371, Note_on_c, 2, 65, 0
8, 175380, Control_c, 2, 11, 112
8, 175380, Note_on_c, 2, 75, 80
8, 175380, Note_on_c, 2, 63, 80
8, 175405, Control_c, 2, 11, 113
8, 175430, Control_c, 2, 11, 115
8, 175439, Note_on_c, 2, 75, 0
8, 175439, Note_on_c, 2, 63, 0
8, 175440, Note_on_c, 2, 62, 80
8, 175440, Note_on_c, 2, 74, 80
8, 175455, Control_c, 2, 11, 116
8, 175480, Control_c, 2, 11, 117
8, 175491, Note_on_c, 2, 62, 0
8, 175491, Note_on_c, 2, 74, 0
8, 175500, Note_on_c, 2, 60, 80
8, 175500, Note_on_c, 2, 72, 80
8, 175505, Control_c, 2, 11, 118
8, 175530, Control_c, 2, 11, 120
8, 175555, Control_c, 2, 11, 121
8, 175559, Note_on_c, 2, 60, 0
8, 175559, Note_on_c, 2, 72, 0
8, 175560, Note_on_c, 2, 58, 80
8, 175560, Note_on_c, 2, 70, 80
8, 175580, Control_c, 2, 11, 122
8, 175605, Control_c, 2, 11, 123
8, 175611, Note_on_c, 2, 58, 0
8, 175611, Note_on_c, 2, 70, 0
8, 175620, Note_on_c, 2, 68, 80
8, 175620, Note_on_c, 2, 56, 80
8, 175630, Control_c, 2, 11, 125
8, 175655, Control_c, 2, 11, 127
8, 175679, Note_on_c, 2, 68, 0
8, 175679, Note_on_c, 2, 56, 0
8, 175680, Note_on_c, 2, 55, 80
8, 175680, Note_on_c, 2, 67, 80
8, 175731, Note_on_c, 2, 55, 0
8, 175731, Note_on_c, 2, 67, 0
8, 175740, Note_on_c, 2, 70, 80
8, 175740, Note_on_c, 2, 58, 80
8, 175799, Note_on_c, 2, 70, 0
8, 175799, Note_on_c, 2, 58, 0
8, 175800, Note_on_c, 2, 60, 80
8, 175800, Note_on_c, 2, 72, 80
8, 175851, Note_on_c, 2, 60, 0
8, 175851, Note_on_c, 2, 72, 0
8, 175860, Note_on_c, 2, 70, 80
8, 175860, Note_on_c, 2, 58, 80
8, 175919, Note_on_c, 2, 70, 0
8, 175919, Note_on_c, 2, 58, 0
8, 175920, Note_on_c, 2, 60, 80
8, 175920, Note_on_c, 2, 72, 80
8, 175971, Note_on_c, 2, 60, 0
8, 175971, Note_on_c, 2, 72, 0
8, 175980, Note_on_c, 2, 74, 80
8, 175980, Note_on_c, 2, 62, 80
8, 176039, Note_on_c, 2, 74, 0
8, 176039, Note_on_c, 2, 62, 0
8, 176040, Note_on_c, 2, 76, 80
8, 176040, Note_on_c, 2, 64, 80
8, 176091, Note_on_c, 2, 76, 0
8, 176091, Note_on_c, 2, 64, 0
8, 176100, Note_on_c, 2, 65, 80
8, 176100, Note_on_c, 2, 77, 80
8, 176159, Note_on_c, 2, 65, 0
8, 176159, Note_on_c, 2, 77, 0
8, 176160, Note_on_c, 2, 67, 80
8, 176160, Note_on_c, 2, 79, 80
8, 176211, Note_on_c, 2, 67, 0
8, 176211, Note_on_c, 2, 79, 0
8, 176220, Note_on_c, 2, 67, 80
8, 176220, Note_on_c, 2, 79, 80
8, 176331, Note_on_c, 2, 67, 0
8, 176331, Note_on_c, 2, 79, 0
8, 176340, Note_on_c, 2, 81, 80
8, 176340, Note_on_c, 2, 69, 80
8, 176451, Note_on_c, 2, 81, 0
8, 176451, Note_on_c, 2, 69, 0
8, 176460, Note_on_c, 2, 81, 80
8, 176460, Note_on_c, 2, 69, 80
8, 176571, Note_on_c, 2, 81, 0
8, 176571, Note_on_c, 2, 69, 0
8, 176580, Note_on_c, 2, 69, 80
8, 176580, Note_on_c, 2, 81, 80
8, 176624, Note_on_c, 2, 69, 0
8, 176624, Note_on_c, 2, 81, 0
8, 176640, Note_on_c, 2, 69, 92
8, 176640, Note_on_c, 2, 81, 92
8, 176729, Note_on_c, 2, 69, 0
8, 176729, Note_on_c, 2, 81, 0
8, 176760, Note_on_c, 2, 68, 92
8, 176760, Note_on_c, 2, 80, 92
8, 176841, Note_on_c, 2, 68, 0
8, 176841, Note_on_c, 2, 80, 0
8, 176850, Note_on_c, 2, 68, 92
8, 176850, Note_on_c, 2, 80, 92
8, 176871, Note_on_c, 2, 68, 0
8, 176871, Note_on_c, 2, 80, 0
8, 176880, Note_on_c, 2, 81, 92
8, 176880, Note_on_c, 2, 69, 92
8, 176999, Note_on_c, 2, 81, 0
8, 176999, Note_on_c, 2, 69, 0
8, 177120, Note_on_c, 2, 70, 92
8, 177120, Note_on_c, 2, 82, 92
8, 177224, Note_on_c, 2, 70, 0
8, 177224, Note_on_c, 2, 82, 0
8, 177240, Note_on_c, 2, 81, 92
8, 177240, Note_on_c, 2, 69, 92
8, 177321, Note_on_c, 2, 81, 0
8, 177321, Note_on_c, 2, 69, 0
8, 177330, Note_on_c, 2, 69, 92
8, 177330, Note_on_c, 2, 81, 92
8, 177351, Note_on_c, 2, 69, 0
8, 177351, Note_on_c, 2, 81, 0
8, 177360, Note_on_c, 2, 70, 92
8, 177360, Note_on_c, 2, 82, 92
8, 177479, Note_on_c, 2, 70, 0
8, 177479, Note_on_c, 2, 82, 0
8, 177600, Note_on_c, 2, 71, 44
8, 177840, Note_on_c, 2, 59, 44
8, 178064, Note_on_c, 2, 71, 0
8, 178064, Note_on_c, 2, 59, 0
8, 178080, Note_on_c, 2, 69, 44
8, 178080, Note_on_c, 2, 57, 44
8, 178544, Note_on_c, 2, 69, 0
8, 178544, Note_on_c, 2, 57, 0
8, 178560, Note_on_c, 2, 74, 92
8, 178560, Note_on_c, 2, 62, 92
8, 178664, Note_on_c, 2, 74, 0
8, 178664, Note_on_c, 2, 62, 0
8, 178680, Note_on_c, 2, 73, 92
8, 178680, Note_on_c, 2, 61, 92
8, 178761, Note_on_c, 2, 73, 0
8, 178761, Note_on_c, 2, 61, 0
8, 178770, Note_on_c, 2, 61, 92
8, 178770, Note_on_c, 2, 73, 92
8, 178791, Note_on_c, 2, 61, 0
8, 178791, Note_on_c, 2, 73, 0
8, 178800, Note_on_c, 2, 74, 92
8, 178800, Note_on_c, 2, 62, 92
8, 178919, Note_on_c, 2, 74, 0
8, 178919, Note_on_c, 2, 62, 0
8, 179040, Note_on_c, 2, 75, 92
8, 179040, Note_on_c, 2, 63, 92
8, 179144, Note_on_c, 2, 75, 0
8, 179144, Note_on_c, 2, 63, 0
8, 179160, Note_on_c, 2, 62, 92
8, 179160, Note_on_c, 2, 74, 92
8, 179241, Note_on_c, 2, 62, 0
8, 179241, Note_on_c, 2, 74, 0
8, 179250, Note_on_c, 2, 62, 92
8, 179250, Note_on_c, 2, 74, 92
8, 179271, Note_on_c, 2, 62, 0
8, 179271, Note_on_c, 2, 74, 0
8, 179280, Note_on_c, 2, 63, 92
8, 179280, Note_on_c, 2, 75, 92
8, 179399, Note_on_c, 2, 63, 0
8, 179399, Note_on_c, 2, 75, 0
8, 179520, Note_on_c, 2, 67, 44
8, 179520, Note_on_c, 2, 75, 44
8, 179759, Note_on_c, 2, 67, 0
8, 179760, Note_on_c, 2, 68, 44
8, 179984, Note_on_c, 2, 75, 0
8, 179999, Note_on_c, 2, 68, 0
8, 180000, Note_on_c, 2, 75, 44
8, 180000, Note_on_c, 2, 70, 44
8, 180239, Note_on_c, 2, 75, 0
8, 180239, Note_on_c, 2, 70, 0
8, 180240, Note_on_c, 2, 74, 44
8, 180240, Note_on_c, 2, 58, 44
8, 180464, Note_on_c, 2, 74, 0
8, 180464, Note_on_c, 2, 58, 0
8, 180480, Note_on_c, 2, 67, 32
8, 180480, Note_on_c, 2, 70, 32
8, 180959, Note_on_c, 2, 70, 0
8, 180960, Note_on_c, 2, 75, 32
8, 181424, Note_on_c, 2, 67, 0
8, 181439, Note_on_c, 2, 75, 0
8, 181440, Note_on_c, 2, 68, 32
8, 181440, Note_on_c, 2, 77, 32
8, 181919, Note_on_c, 2, 68, 0
8, 181919, Note_on_c, 2, 77, 0
8, 181920, Note_on_c, 2, 82, 32
8, 181920, Note_on_c, 2, 70, 32
8, 182459, Note_on_c, 2, 82, 0
8, 182459, Note_on_c, 2, 70, 0
8, 182460, Note_on_c, 2, 80, 32
8, 182460, Note_on_c, 2, 68, 32
8, 182519, Note_on_c, 2, 80, 0
8, 182519, Note_on_c, 2, 68, 0
8, 182520, Note_on_c, 2, 67, 32
8, 182520, Note_on_c, 2, 79, 32
8, 182579, Note_on_c, 2, 67, 0
8, 182579, Note_on_c, 2, 79, 0
8, 182580, Note_on_c, 2, 77, 32
8, 182580, Note_on_c, 2, 65, 32
8, 182639, Note_on_c, 2, 77, 0
8, 182639, Note_on_c, 2, 65, 0
8, 182640, Note_on_c, 2, 63, 32
8, 182640, Note_on_c, 2, 75, 32
8, 182699, Note_on_c, 2, 63, 0
8, 182699, Note_on_c, 2, 75, 0
8, 182700, Note_on_c, 2, 74, 32
8, 182700, Note_on_c, 2, 62, 32
8, 182759, Note_on_c, 2, 74, 0
8, 182759, Note_on_c, 2, 62, 0
8, 182760, Note_on_c, 2, 60, 32
8, 182760, Note_on_c, 2, 72, 32
8, 182819, Note_on_c, 2, 60, 0
8, 182819, Note_on_c, 2, 72, 0
8, 182820, Note_on_c, 2, 70, 32
8, 182820, Note_on_c, 2, 58, 32
8, 182879, Note_on_c, 2, 70, 0
8, 182879, Note_on_c, 2, 58, 0
8, 182880, Note_on_c, 2, 56, 32
8, 182880, Note_on_c, 2, 68, 32
8, 182939, Note_on_c, 2, 56, 0
8, 182939, Note_on_c, 2, 68, 0
8, 182940, Note_on_c, 2, 55, 32
8, 182940, Note_on_c, 2, 67, 32
8, 182999, Note_on_c, 2, 55, 0
8, 182999, Note_on_c, 2, 67, 0
8, 183000, Note_on_c, 2, 65, 32
8, 183000, Note_on_c, 2, 53, 32
8, 183059, Note_on_c, 2, 65, 0
8, 183059, Note_on_c, 2, 53, 0
8, 183060, Note_on_c, 2, 63, 32
8, 183060, Note_on_c, 2, 51, 32
8, 183119, Note_on_c, 2, 63, 0
8, 183119, Note_on_c, 2, 51, 0
8, 183120, Note_on_c, 2, 62, 32
8, 183224, Note_on_c, 2, 62, 0
8, 183240, Note_on_c, 2, 62, 32
8, 183419, Note_on_c, 2, 62, 0
8, 183420, Note_on_c, 2, 61, 32
8, 183479, Note_on_c, 2, 61, 0
8, 183480, Note_on_c, 2, 69, 32
8, 183599, Note_on_c, 2, 69, 0
8, 183840, Note_on_c, 2, 62, 32
8, 183959, Note_on_c, 2, 62, 0
8, 183960, Note_on_c, 2, 70, 32
8, 184079, Note_on_c, 2, 70, 0
8, 184560, Note_on_c, 2, 65, 32
8, 184679, Note_on_c, 2, 65, 0
8, 184680, Note_on_c, 2, 64, 32
8, 184799, Note_on_c, 2, 64, 0
8, 185040, Note_on_c, 2, 69, 32
8, 185159, Note_on_c, 2, 69, 0
8, 185160, Note_on_c, 2, 67, 32
8, 185264, Note_on_c, 2, 67, 0
8, 185280, Note_on_c, 2, 70, 32
8, 185579, Note_on_c, 2, 70, 0
8, 185580, Note_on_c, 2, 69, 32
8, 185639, Note_on_c, 2, 69, 0
8, 185640, Note_on_c, 2, 67, 32
8, 185699, Note_on_c, 2, 67, 0
8, 185700, Note_on_c, 2, 64, 32
8, 185759, Note_on_c, 2, 64, 0
8, 185940, Note_on_c, 2, 64, 32
8, 185999, Note_on_c, 2, 64, 0
8, 186000, Note_on_c, 2, 70, 32
8, 186059, Note_on_c, 2, 70, 0
8, 186240, Note_on_c, 2, 71, 32
8, 186539, Note_on_c, 2, 71, 0
8, 186540, Note_on_c, 2, 69, 32
8, 186599, Note_on_c, 2, 69, 0
8, 186600, Note_on_c, 2, 66, 32
8, 186659, Note_on_c, 2, 66, 0
8, 186660, Note_on_c, 2, 62, 32
8, 186719, Note_on_c, 2, 62, 0
8, 186900, Note_on_c, 2, 62, 32
8, 186959, Note_on_c, 2, 62, 0
8, 186960, Note_on_c, 2, 74, 32
8, 187019, Note_on_c, 2, 74, 0
8, 187200, Note_on_c, 2, 70, 32
8, 187499, Note_on_c, 2, 70, 0
8, 187500, Note_on_c, 2, 69, 35
8, 187559, Note_on_c, 2, 69, 0
8, 187560, Note_on_c, 2, 67, 35
8, 187619, Note_on_c, 2, 67, 0
8, 187620, Note_on_c, 2, 64, 36
8, 187679, Note_on_c, 2, 64, 0
8, 187860, Note_on_c, 2, 64, 38
8, 187919, Note_on_c, 2, 64, 0
8, 187920, Note_on_c, 2, 70, 39
8, 187979, Note_on_c, 2, 70, 0
8, 188160, Note_on_c, 2, 71, 41
8, 188459, Note_on_c, 2, 71, 0
8, 188460, Note_on_c, 2, 69, 44
8, 188519, Note_on_c, 2, 69, 0
8, 188520, Note_on_c, 2, 66, 45
8, 188579, Note_on_c, 2, 66, 0
8, 188580, Note_on_c, 2, 62, 45
8, 188639, Note_on_c, 2, 62, 0
8, 188820, Note_on_c, 2, 62, 48
8, 188879, Note_on_c, 2, 62, 0
8, 188880, Note_on_c, 2, 74, 48
8, 188939, Note_on_c, 2, 74, 0
8, 189120, Note_on_c, 2, 70, 51
8, 189179, Note_on_c, 2, 70, 0
8, 189180, Note_on_c, 2, 69, 51
8, 189239, Note_on_c, 2, 69, 0
8, 189240, Note_on_c, 2, 67, 52
8, 189299, Note_on_c, 2, 67, 0
8, 189300, Note_on_c, 2, 64, 53
8, 189359, Note_on_c, 2, 64, 0
8, 189420, Note_on_c, 2, 64, 54
8, 189479, Note_on_c, 2, 64, 0
8, 189480, Note_on_c, 2, 70, 54
8, 189539, Note_on_c, 2, 70, 0
8, 189600, Note_on_c, 2, 71, 56
8, 189659, Note_on_c, 2, 71, 0
8, 189660, Note_on_c, 2, 69, 56
8, 189719, Note_on_c, 2, 69, 0
8, 189720, Note_on_c, 2, 66, 57
8, 189779, Note_on_c, 2, 66, 0
8, 189780, Note_on_c, 2, 62, 57
8, 189839, Note_on_c, 2, 62, 0
8, 189900, Note_on_c, 2, 62, 59
8, 189959, Note_on_c, 2, 62, 0
8, 189960, Note_on_c, 2, 74, 59
8, 190019, Note_on_c, 2, 74, 0
8, 190080, Note_on_c, 2, 70, 60
8, 190139, Note_on_c, 2, 70, 0
8, 190140, Note_on_c, 2, 69, 61
8, 190199, Note_on_c, 2, 69, 0
8, 190200, Note_on_c, 2, 67, 62
8, 190259, Note_on_c, 2, 67, 0
8, 190260, Note_on_c, 2, 64, 62
8, 190319, Note_on_c, 2, 64, 0
8, 190380, Note_on_c, 2, 64, 63
8, 190439, Note_on_c, 2, 64, 0
8, 190440, Note_on_c, 2, 70, 64
8, 190499, Note_on_c, 2, 70, 0
8, 190560, Note_on_c, 2, 70, 65
8, 190619, Note_on_c, 2, 70, 0
8, 190620, Note_on_c, 2, 69, 66
8, 190679, Note_on_c, 2, 69, 0
8, 190680, Note_on_c, 2, 65, 66
8, 190739, Note_on_c, 2, 65, 0
8, 190740, Note_on_c, 2, 62, 67
8, 190799, Note_on_c, 2, 62, 0
8, 190860, Note_on_c, 2, 62, 68
8, 190919, Note_on_c, 2, 62, 0
8, 190920, Note_on_c, 2, 74, 69
8, 190979, Note_on_c, 2, 74, 0
8, 191040, Note_on_c, 2, 76, 70
8, 191040, Note_on_c, 2, 73, 70
8, 191091, Note_on_c, 2, 76, 0
8, 191091, Note_on_c, 2, 73, 0
8, 191100, Note_on_c, 2, 76, 71
8, 191100, Note_on_c, 2, 73, 71
8, 191211, Note_on_c, 2, 76, 0
8, 191211, Note_on_c, 2, 73, 0
8, 191220, Note_on_c, 2, 73, 72
8, 191220, Note_on_c, 2, 76, 72
8, 191331, Note_on_c, 2, 73, 0
8, 191331, Note_on_c, 2, 76, 0
8, 191340, Note_on_c, 2, 73, 73
8, 191340, Note_on_c, 2, 76, 73
8, 191451, Note_on_c, 2, 73, 0
8, 191451, Note_on_c, 2, 76, 0
8, 191460, Note_on_c, 2, 74, 74
8, 191511, Note_on_c, 2, 74, 0
8, 191520, Note_on_c, 2, 70, 75
8, 191520, Note_on_c, 2, 82, 75
8, 191579, Note_on_c, 2, 70, 0
8, 191579, Note_on_c, 2, 82, 0
8, 191580, Note_on_c, 2, 81, 75
8, 191580, Note_on_c, 2, 69, 75
8, 191691, Note_on_c, 2, 81, 0
8, 191691, Note_on_c, 2, 69, 0
8, 191700, Note_on_c, 2, 69, 77
8, 191700, Note_on_c, 2, 81, 77
8, 191811, Note_on_c, 2, 69, 0
8, 191811, Note_on_c, 2, 81, 0
8, 191820, Note_on_c, 2, 81, 78
8, 191820, Note_on_c, 2, 69, 78
8, 191879, Note_on_c, 2, 81, 0
8, 191879, Note_on_c, 2, 69, 0
8, 191880, Note_on_c, 2, 70, 78
8, 191880, Note_on_c, 2, 82, 78
8, 191939, Note_on_c, 2, 70, 0
8, 191939, Note_on_c, 2, 82, 0
8, 191940, Note_on_c, 2, 69, 79
8, 191940, Note_on_c, 2, 81, 79
8, 191991, Note_on_c, 2, 69, 0
8, 191991, Note_on_c, 2, 81, 0
8, 192000, Note_on_c, 2, 69, 80
8, 192000, Note_on_c, 2, 81, 80
8, 192104, Note_on_c, 2, 69, 0
8, 192104, Note_on_c, 2, 81, 0
8, 192120, Note_on_c, 2, 69, 92
8, 192120, Note_on_c, 2, 57, 92
8, 192180, Control_c, 2, 11, 107
8, 192344, Note_on_c, 2, 69, 0
8, 192344, Note_on_c, 2, 57, 0
8, 192358, Control_c, 2, 11, 127
8, 192360, Note_on_c, 2, 81, 80
8, 192360, Note_on_c, 2, 69, 80
8, 192584, Note_on_c, 2, 81, 0
8, 192584, Note_on_c, 2, 69, 0
8, 192600, Note_on_c, 2, 74, 92
8, 192600, Note_on_c, 2, 62, 92
8, 192660, Control_c, 2, 11, 107
8, 192824, Note_on_c, 2, 74, 0
8, 192824, Note_on_c, 2, 62, 0
8, 192838, Control_c, 2, 11, 127
8, 192840, Note_on_c, 2, 74, 80
8, 192840, Note_on_c, 2, 86, 80
8, 193064, Note_on_c, 2, 74, 0
8, 193064, Note_on_c, 2, 86, 0
8, 193080, Note_on_c, 2, 74, 92
8, 193080, Note_on_c, 2, 62, 92
8, 193140, Control_c, 2, 11, 107
8, 193304, Note_on_c, 2, 74, 0
8, 193304, Note_on_c, 2, 62, 0
8, 193318, Control_c, 2, 11, 127
8, 193320, Note_on_c, 2, 74, 80
8, 193320, Note_on_c, 2, 86, 80
8, 193544, Note_on_c, 2, 74, 0
8, 193544, Note_on_c, 2, 86, 0
8, 193560, Note_on_c, 2, 74, 92
8, 193560, Note_on_c, 2, 62, 92
8, 193620, Control_c, 2, 11, 107
8, 193784, Note_on_c, 2, 74, 0
8, 193784, Note_on_c, 2, 62, 0
8, 193798, Control_c, 2, 11, 127
8, 193800, Note_on_c, 2, 74, 80
8, 193800, Note_on_c, 2, 86, 80
8, 194024, Note_on_c, 2, 74, 0
8, 194024, Note_on_c, 2, 86, 0
8, 194040, Note_on_c, 2, 62, 92
8, 194040, Note_on_c, 2, 74, 92
8, 194100, Control_c, 2, 11, 107
8, 194264, Note_on_c, 2, 62, 0
8, 194264, Note_on_c, 2, 74, 0
8, 194278, Control_c, 2, 11, 127
8, 194280, Note_on_c, 2, 86, 80
8, 194280, Note_on_c, 2, 74, 80
8, 194384, Note_on_c, 2, 86, 0
8, 194384, Note_on_c, 2, 74, 0
8, 194400, Note_on_c, 2, 76, 80
8, 194504, Note_on_c, 2, 76, 0
8, 194520, Note_on_c, 2, 57, 92
8, 194580, Control_c, 2, 11, 107
8, 194744, Note_on_c, 2, 57, 0
8, 194758, Control_c, 2, 11, 127
8, 194760, Note_on_c, 2, 69, 80
8, 194760, Note_on_c, 2, 81, 80
8, 194864, Note_on_c, 2, 69, 0
8, 194864, Note_on_c, 2, 81, 0
8, 194880, Note_on_c, 2, 81, 80
8, 194880, Note_on_c, 2, 69, 80
8, 194999, Note_on_c, 2, 81, 0
8, 194999, Note_on_c, 2, 69, 0
8, 195180, Note_on_c, 2, 62, 44
8, 195180, Note_on_c, 2, 65, 44
8, 195299, Note_on_c, 2, 62, 0
8, 195299, Note_on_c, 2, 65, 0
8, 195300, Note_on_c, 2, 64, 44
8, 195300, Note_on_c, 2, 60, 44
8, 195359, Note_on_c, 2, 64, 0
8, 195359, Note_on_c, 2, 60, 0
8, 195360, Note_on_c, 2, 62, 44
8, 195360, Note_on_c, 2, 58, 44
8, 195419, Note_on_c, 2, 62, 0
8, 195419, Note_on_c, 2, 58, 0
8, 195420, Note_on_c, 2, 57, 44
8, 195420, Note_on_c, 2, 60, 44
8, 195479, Note_on_c, 2, 57, 0
8, 195479, Note_on_c, 2, 60, 0
8, 195480, Note_on_c, 2, 70, 44
8, 195480, Note_on_c, 2, 67, 44
8, 195539, Note_on_c, 2, 70, 0
8, 195539, Note_on_c, 2, 67, 0
8, 195540, Note_on_c, 2, 65, 44
8, 195540, Note_on_c, 2, 69, 44
8, 195591, Note_on_c, 2, 65, 0
8, 195591, Note_on_c, 2, 69, 0
8, 195600, Note_on_c, 2, 65, 44
8, 195600, Note_on_c, 2, 69, 44
8, 195719, Note_on_c, 2, 65, 0
8, 195719, Note_on_c, 2, 69, 0
8, 196140, Note_on_c, 2, 79, 44
8, 196140, Note_on_c, 2, 76, 44
8, 196259, Note_on_c, 2, 79, 0
8, 196259, Note_on_c, 2, 76, 0
8, 196260, Note_on_c, 2, 74, 44
8, 196260, Note_on_c, 2, 77, 44
8, 196319, Note_on_c, 2, 74, 0
8, 196319, Note_on_c, 2, 77, 0
8, 196320, Note_on_c, 2, 76, 44
8, 196320, Note_on_c, 2, 72, 44
8, 196379, Note_on_c, 2, 76, 0
8, 196379, Note_on_c, 2, 72, 0
8, 196380, Note_on_c, 2, 70, 44
8, 196380, Note_on_c, 2, 74, 44
8, 196439, Note_on_c, 2, 70, 0
8, 196439, Note_on_c, 2, 74, 0
8, 196440, Note_on_c, 2, 69, 44
8, 196440, Note_on_c, 2, 72, 44
8, 196499, Note_on_c, 2, 69, 0
8, 196499, Note_on_c, 2, 72, 0
8, 196500, Note_on_c, 2, 67, 44
8, 196500, Note_on_c, 2, 70, 44
8, 196551, Note_on_c, 2, 67, 0
8, 196551, Note_on_c, 2, 70, 0
8, 196560, Note_on_c, 2, 67, 44
8, 196560, Note_on_c, 2, 70, 44
8, 196679, Note_on_c, 2, 67, 0
8, 196679, Note_on_c, 2, 70, 0
8, 196860, Note_on_c, 2, 72, 44
8, 196919, Note_on_c, 2, 72, 0
8, 196920, Note_on_c, 2, 75, 44
8, 196979, Note_on_c, 2, 75, 0
8, 196980, Note_on_c, 2, 70, 44
8, 197091, Note_on_c, 2, 70, 0
8, 197100, Note_on_c, 2, 69, 44
8, 197160, Note_on_c, 2, 72, 44
8, 197219, Note_on_c, 2, 69, 0
8, 197219, Note_on_c, 2, 72, 0
8, 197220, Note_on_c, 2, 70, 44
8, 197220, Note_on_c, 2, 67, 44
8, 197279, Note_on_c, 2, 70, 0
8, 197279, Note_on_c, 2, 67, 0
8, 197280, Note_on_c, 2, 66, 44
8, 197280, Note_on_c, 2, 69, 44
8, 197339, Note_on_c, 2, 66, 0
8, 197339, Note_on_c, 2, 69, 0
8, 197340, Note_on_c, 2, 72, 44
8, 197340, Note_on_c, 2, 69, 44
8, 197399, Note_on_c, 2, 72, 0
8, 197399, Note_on_c, 2, 69, 0
8, 197400, Note_on_c, 2, 74, 44
8, 197400, Note_on_c, 2, 70, 44
8, 197459, Note_on_c, 2, 74, 0
8, 197459, Note_on_c, 2, 70, 0
8, 197460, Note_on_c, 2, 75, 44
8, 197460, Note_on_c, 2, 72, 44
8, 197519, Note_on_c, 2, 75, 0
8, 197519, Note_on_c, 2, 72, 0
8, 197520, Note_on_c, 2, 74, 44
8, 197520, Note_on_c, 2, 70, 44
8, 197579, Note_on_c, 2, 74, 0
8, 197579, Note_on_c, 2, 70, 0
8, 197580, Note_on_c, 2, 69, 44
8, 197580, Note_on_c, 2, 72, 44
8, 197639, Note_on_c, 2, 69, 0
8, 197639, Note_on_c, 2, 72, 0
8, 197820, Note_on_c, 2, 70, 44
8, 197879, Note_on_c, 2, 70, 0
8, 197880, Note_on_c, 2, 74, 44
8, 197939, Note_on_c, 2, 74, 0
8, 197940, Note_on_c, 2, 69, 44
8, 198059, Note_on_c, 2, 69, 0
8, 198060, Note_on_c, 2, 67, 44
8, 198120, Note_on_c, 2, 70, 44
8, 198171, Note_on_c, 2, 70, 0
8, 198179, Note_on_c, 2, 67, 0
8, 198180, Note_on_c, 2, 65, 44
8, 198180, Note_on_c, 2, 69, 44
8, 198231, Note_on_c, 2, 65, 0
8, 198231, Note_on_c, 2, 69, 0
8, 198240, Note_on_c, 2, 63, 44
8, 198240, Note_on_c, 2, 67, 44
8, 198299, Note_on_c, 2, 63, 0
8, 198299, Note_on_c, 2, 67, 0
8, 198300, Note_on_c, 2, 65, 44
8, 198300, Note_on_c, 2, 62, 44
8, 198359, Note_on_c, 2, 65, 0
8, 198359, Note_on_c, 2, 62, 0
8, 198360, Note_on_c, 2, 66, 44
8, 198360, Note_on_c, 2, 69, 44
8, 198419, Note_on_c, 2, 66, 0
8, 198419, Note_on_c, 2, 69, 0
8, 198420, Note_on_c, 2, 67, 44
8, 198479, Note_on_c, 2, 67, 0
8, 198480, Note_on_c, 2, 69, 44
8, 198480, Note_on_c, 2, 66, 44
8, 198539, Note_on_c, 2, 69, 0
8, 198539, Note_on_c, 2, 66, 0
8, 198540, Note_on_c, 2, 67, 44
8, 198591, Note_on_c, 2, 67, 0
8, 198600, Note_on_c, 2, 67, 44
8, 198600, Note_on_c, 2, 62, 44
8, 198704, Note_on_c, 2, 67, 0
8, 198704, Note_on_c, 2, 62, 0
8, 198720, Note_on_c, 2, 62, 80
8, 198720, Note_on_c, 2, 69, 80
8, 198839, Note_on_c, 2, 62, 0
8, 198839, Note_on_c, 2, 69, 0
8, 198840, Note_on_c, 2, 63, 68
8, 198840, Note_on_c, 2, 67, 68
8, 198899, Note_on_c, 2, 63, 0
8, 198899, Note_on_c, 2, 67, 0
8, 198960, Note_on_c, 2, 67, 80
8, 198960, Note_on_c, 2, 73, 80
8, 199079, Note_on_c, 2, 67, 0
8, 199079, Note_on_c, 2, 73, 0
8, 199080, Note_on_c, 2, 65, 68
8, 199080, Note_on_c, 2, 74, 68
8, 199139, Note_on_c, 2, 65, 0
8, 199139, Note_on_c, 2, 74, 0
8, 199200, Note_on_c, 2, 70, 80
8, 199200, Note_on_c, 2, 77, 80
8, 199319, Note_on_c, 2, 70, 0
8, 199319, Note_on_c, 2, 77, 0
8, 199320, Note_on_c, 2, 70, 68
8, 199320, Note_on_c, 2, 75, 68
8, 199379, Note_on_c, 2, 70, 0
8, 199379, Note_on_c, 2, 75, 0
8, 199440, Note_on_c, 2, 65, 60
8, 199440, Note_on_c, 2, 74, 92
8, 199459, Note_on_c, 2, 74, 0
8, 199460, Note_on_c, 2, 76, 92
8, 199479, Note_on_c, 2, 76, 0
8, 199480, Note_on_c, 2, 74, 92
8, 199499, Note_on_c, 2, 74, 0
8, 199500, Note_on_c, 2, 76, 92
8, 199512, Note_on_c, 2, 76, 0
8, 199514, Note_on_c, 2, 74, 92
8, 199527, Note_on_c, 2, 74, 0
8, 199527, Note_on_c, 2, 73, 92
8, 199539, Note_on_c, 2, 73, 0
8, 199540, Note_on_c, 2, 74, 92
8, 199559, Note_on_c, 2, 65, 0
8, 199559, Note_on_c, 2, 74, 0
8, 199560, Note_on_c, 2, 76, 92
8, 199560, Note_on_c, 2, 67, 60
8, 199619, Note_on_c, 2, 76, 0
8, 199619, Note_on_c, 2, 67, 0
8, 199620, Note_on_c, 2, 73, 92
8, 199620, Note_on_c, 2, 64, 60
8, 199679, Note_on_c, 2, 73, 0
8, 199679, Note_on_c, 2, 64, 0
8, 199740, Note_on_c, 2, 62, 92
8, 199740, Note_on_c, 2, 74, 92
8, 199799, Note_on_c, 2, 62, 0
8, 199799, Note_on_c, 2, 74, 0
8, 199800, Note_on_c, 2, 63, 92
8, 199800, Note_on_c, 2, 75, 92
8, 199859, Note_on_c, 2, 63, 0
8, 199859, Note_on_c, 2, 75, 0
8, 199860, Note_on_c, 2, 79, 92
8, 199860, Note_on_c, 2, 67, 92
8, 199919, Note_on_c, 2, 79, 0
8, 199919, Note_on_c, 2, 67, 0
8, 199980, Note_on_c, 2, 61, 92
8, 199980, Note_on_c, 2, 73, 92
8, 200039, Note_on_c, 2, 61, 0
8, 200039, Note_on_c, 2, 73, 0
8, 200040, Note_on_c, 2, 62, 92
8, 200040, Note_on_c, 2, 74, 92
8, 200099, Note_on_c, 2, 62, 0
8, 200099, Note_on_c, 2, 74, 0
8, 200100, Note_on_c, 2, 77, 92
8, 200100, Note_on_c, 2, 65, 92
8, 200151, Note_on_c, 2, 77, 0
8, 200151, Note_on_c, 2, 65, 0
8, 200220, Note_on_c, 2, 70, 92
8, 200220, Note_on_c, 2, 58, 92
8, 200279, Note_on_c, 2, 70, 0
8, 200279, Note_on_c, 2, 58, 0
8, 200280, Note_on_c, 2, 63, 92
8, 200280, Note_on_c, 2, 75, 92
8, 200339, Note_on_c, 2, 63, 0
8, 200339, Note_on_c, 2, 75, 0
8, 200340, Note_on_c, 2, 67, 92
8, 200340, Note_on_c, 2, 79, 92
8, 200391, Note_on_c, 2, 67, 0
8, 200391, Note_on_c, 2, 79, 0
8, 200400, Note_on_c, 2, 58, 92
8, 200400, Note_on_c, 2, 70, 92
8, 200459, Note_on_c, 2, 58, 0
8, 200459, Note_on_c, 2, 70, 0
8, 200460, Note_on_c, 2, 57, 92
8, 200460, Note_on_c, 2, 69, 92
8, 200571, Note_on_c, 2, 57, 0
8, 200571, Note_on_c, 2, 69, 0
8, 200580, Note_on_c, 2, 69, 92
8, 200580, Note_on_c, 2, 81, 92
8, 200631, Note_on_c, 2, 69, 0
8, 200631, Note_on_c, 2, 81, 0
8, 200640, Note_on_c, 2, 62, 92
8, 200640, Note_on_c, 2, 74, 92
8, 200984, Note_on_c, 2, 62, 0
8, 200984, Note_on_c, 2, 74, 0
8, 201000, Note_on_c, 2, 62, 92
8, 201000, Note_on_c, 2, 74, 92
8, 201081, Note_on_c, 2, 62, 0
8, 201081, Note_on_c, 2, 74, 0
8, 201090, Note_on_c, 2, 74, 92
8, 201090, Note_on_c, 2, 62, 92
8, 201111, Note_on_c, 2, 74, 0
8, 201111, Note_on_c, 2, 62, 0
8, 201120, Note_on_c, 2, 77, 104
8, 201120, Note_on_c, 2, 65, 104
8, 201180, Control_c, 2, 11, 107
8, 201464, Note_on_c, 2, 77, 0
8, 201464, Note_on_c, 2, 65, 0
8, 201480, Note_on_c, 2, 65, 104
8, 201480, Note_on_c, 2, 77, 104
8, 201561, Note_on_c, 2, 65, 0
8, 201561, Note_on_c, 2, 77, 0
8, 201570, Note_on_c, 2, 77, 104
8, 201570, Note_on_c, 2, 65, 104
8, 201591, Note_on_c, 2, 77, 0
8, 201591, Note_on_c, 2, 65, 0
8, 201598, Control_c, 2, 11, 127
8, 201600, Note_on_c, 2, 69, 104
8, 201600, Note_on_c, 2, 81, 104
8, 201660, Control_c, 2, 11, 107
8, 201944, Note_on_c, 2, 69, 0
8, 201944, Note_on_c, 2, 81, 0
8, 201960, Note_on_c, 2, 81, 104
8, 201960, Note_on_c, 2, 69, 104
8, 202041, Note_on_c, 2, 81, 0
8, 202041, Note_on_c, 2, 69, 0
8, 202050, Note_on_c, 2, 81, 104
8, 202050, Note_on_c, 2, 69, 104
8, 202071, Note_on_c, 2, 81, 0
8, 202071, Note_on_c, 2, 69, 0
8, 202078, Control_c, 2, 11, 127
8, 202080, Note_on_c, 2, 86, 92
8, 202080, Note_on_c, 2, 74, 92
8, 202184, Note_on_c, 2, 86, 0
8, 202184, Note_on_c, 2, 74, 0
8, 202200, Note_on_c, 2, 62, 92
8, 202200, Note_on_c, 2, 74, 92
8, 202281, Note_on_c, 2, 62, 0
8, 202281, Note_on_c, 2, 74, 0
8, 202290, Note_on_c, 2, 62, 92
8, 202290, Note_on_c, 2, 74, 92
8, 202311, Note_on_c, 2, 62, 0
8, 202311, Note_on_c, 2, 74, 0
8, 202320, Note_on_c, 2, 77, 92
8, 202320, Note_on_c, 2, 65, 92
8, 202424, Note_on_c, 2, 77, 0
8, 202424, Note_on_c, 2, 65, 0
8, 202440, Note_on_c, 2, 77, 92
8, 202440, Note_on_c, 2, 65, 92
8, 202521, Note_on_c, 2, 77, 0
8, 202521, Note_on_c, 2, 65, 0
8, 202530, Note_on_c, 2, 77, 92
8, 202530, Note_on_c, 2, 65, 92
8, 202551, Note_on_c, 2, 77, 0
8, 202551, Note_on_c, 2, 65, 0
8, 202560, Note_on_c, 2, 81, 80
8, 202560, Note_on_c, 2, 69, 80
8, 202649, Note_on_c, 2, 81, 0
8, 202649, Note_on_c, 2, 69, 0
8, 202680, Note_on_c, 2, 74, 80
8, 202680, Note_on_c, 2, 62, 80
8, 202761, Note_on_c, 2, 74, 0
8, 202761, Note_on_c, 2, 62, 0
8, 202770, Note_on_c, 2, 74, 80
8, 202770, Note_on_c, 2, 62, 80
8, 202791, Note_on_c, 2, 74, 0
8, 202791, Note_on_c, 2, 62, 0
8, 202800, Note_on_c, 2, 65, 80
8, 202800, Note_on_c, 2, 77, 80
8, 202889, Note_on_c, 2, 65, 0
8, 202889, Note_on_c, 2, 77, 0
8, 202920, Note_on_c, 2, 81, 80
8, 202920, Note_on_c, 2, 69, 80
8, 203001, Note_on_c, 2, 81, 0
8, 203001, Note_on_c, 2, 69, 0
8, 203010, Note_on_c, 2, 81, 80
8, 203010, Note_on_c, 2, 69, 80
8, 203031, Note_on_c, 2, 81, 0
8, 203031, Note_on_c, 2, 69, 0
8, 203040, Note_on_c, 2, 86, 80
8, 203040, Note_on_c, 2, 74, 80
8, 203129, Note_on_c, 2, 86, 0
8, 203129, Note_on_c, 2, 74, 0
8, 203160, Note_on_c, 2, 65, 80
8, 203160, Note_on_c, 2, 77, 80
8, 203241, Note_on_c, 2, 65, 0
8, 203241, Note_on_c, 2, 77, 0
8, 203250, Note_on_c, 2, 65, 80
8, 203250, Note_on_c, 2, 77, 80
8, 203271, Note_on_c, 2, 65, 0
8, 203271, Note_on_c, 2, 77, 0
8, 203280, Note_on_c, 2, 81, 80
8, 203280, Note_on_c, 2, 69, 80
8, 203369, Note_on_c, 2, 81, 0
8, 203369, Note_on_c, 2, 69, 0
8, 203400, Note_on_c, 2, 62, 80
8, 203400, Note_on_c, 2, 74, 80
8, 203481, Note_on_c, 2, 62, 0
8, 203481, Note_on_c, 2, 74, 0
8, 203490, Note_on_c, 2, 62, 80
8, 203490, Note_on_c, 2, 74, 80
8, 203511, Note_on_c, 2, 62, 0
8, 203511, Note_on_c, 2, 74, 0
8, 203520, Note_on_c, 2, 77, 80
8, 203520, Note_on_c, 2, 65, 80
8, 203609, Note_on_c, 2, 77, 0
8, 203609, Note_on_c, 2, 65, 0
8, 203640, Note_on_c, 2, 69, 80
8, 203640, Note_on_c, 2, 57, 80
8, 203721, Note_on_c, 2, 69, 0
8, 203721, Note_on_c, 2, 57, 0
8, 203730, Note_on_c, 2, 57, 80
8, 203730, Note_on_c, 2, 69, 80
8, 203751, Note_on_c, 2, 57, 0
8, 203751, Note_on_c, 2, 69, 0
8, 203760, Note_on_c, 2, 62, 80
8, 203760, Note_on_c, 2, 74, 80
8, 203849, Note_on_c, 2, 62, 0
8, 203849, Note_on_c, 2, 74, 0
8, 203880, Note_on_c, 2, 65, 80
8, 203880, Note_on_c, 2, 53, 80
8, 203961, Note_on_c, 2, 65, 0
8, 203961, Note_on_c, 2, 53, 0
8, 203970, Note_on_c, 2, 53, 80
8, 203970, Note_on_c, 2, 65, 80
8, 203991, Note_on_c, 2, 53, 0
8, 203991, Note_on_c, 2, 65, 0
8, 204000, Note_on_c, 2, 57, 80
8, 204000, Note_on_c, 2, 69, 80
8, 204089, Note_on_c, 2, 57, 0
8, 204089, Note_on_c, 2, 69, 0
8, 204120, Note_on_c, 2, 62, 80
8, 204201, Note_on_c, 2, 62, 0
8, 204210, Note_on_c, 2, 62, 80
8, 204231, Note_on_c, 2, 62, 0
8, 204240, Note_on_c, 2, 74, 80
8, 204329, Note_on_c, 2, 74, 0
8, 204360, Note_on_c, 2, 62, 62
8, 204441, Note_on_c, 2, 62, 0
8, 204450, Note_on_c, 2, 74, 49
8, 204471, Note_on_c, 2, 74, 0
8, 204480, Note_on_c, 2, 65, 44
8, 204480, Note_on_c, 2, 69, 44
8, 204584, Note_on_c, 2, 65, 0
8, 204584, Note_on_c, 2, 69, 0
8, 204600, Note_on_c, 2, 69, 44
8, 204600, Note_on_c, 2, 65, 44
8, 204719, Note_on_c, 2, 69, 0
8, 204719, Note_on_c, 2, 65, 0
8, 204840, Note_on_c, 2, 57, 44
8, 204840, Note_on_c, 2, 69, 44
8, 204959, Note_on_c, 2, 57, 0
8, 204959, Note_on_c, 2, 69, 0
8, 205080, Note_on_c, 2, 62, 44
8, 205080, Note_on_c, 2, 74, 44
8, 205199, Note_on_c, 2, 62, 0
8, 205199, Note_on_c, 2, 74, 0
8, 205320, Note_on_c, 2, 77, 44
8, 205320, Note_on_c, 2, 65, 44
8, 205439, Note_on_c, 2, 77, 0
8, 205439, Note_on_c, 2, 65, 0
8, 205560, Note_on_c, 2, 69, 44
8, 205560, Note_on_c, 2, 81, 44
8, 205679, Note_on_c, 2, 69, 0
8, 205679, Note_on_c, 2, 81, 0
8, 205800, Note_on_c, 2, 77, 44
8, 205800, Note_on_c, 2, 74, 44
8, 205919, Note_on_c, 2, 77, 0
8, 205919, Note_on_c, 2, 74, 0
8, 206040, Note_on_c, 2, 74, 44
8, 206040, Note_on_c, 2, 65, 44
8, 206159, Note_on_c, 2, 74, 0
8, 206159, Note_on_c, 2, 65, 0
8, 206280, Note_on_c, 2, 76, 44
8, 206280, Note_on_c, 2, 73, 44
8, 206399, Note_on_c, 2, 76, 0
8, 206399, Note_on_c, 2, 73, 0
8, 206520, Note_on_c, 2, 55, 44
8, 206520, Note_on_c, 2, 67, 44
8, 206639, Note_on_c, 2, 55, 0
8, 206639, Note_on_c, 2, 67, 0
8, 206760, Note_on_c, 2, 58, 44
8, 206760, Note_on_c, 2, 70, 44
8, 206879, Note_on_c, 2, 58, 0
8, 206879, Note_on_c, 2, 70, 0
8, 207000, Note_on_c, 2, 61, 44
8, 207000, Note_on_c, 2, 73, 44
8, 207119, Note_on_c, 2, 61, 0
8, 207119, Note_on_c, 2, 73, 0
8, 207240, Note_on_c, 2, 64, 44
8, 207240, Note_on_c, 2, 76, 44
8, 207359, Note_on_c, 2, 64, 0
8, 207359, Note_on_c, 2, 76, 0
8, 207480, Note_on_c, 2, 67, 44
8, 207480, Note_on_c, 2, 79, 44
8, 207599, Note_on_c, 2, 67, 0
8, 207599, Note_on_c, 2, 79, 0
8, 207720, Note_on_c, 2, 82, 44
8, 207720, Note_on_c, 2, 70, 44
8, 207839, Note_on_c, 2, 82, 0
8, 207839, Note_on_c, 2, 70, 0
8, 207960, Note_on_c, 2, 64, 44
8, 207960, Note_on_c, 2, 76, 44
8, 208079, Note_on_c, 2, 64, 0
8, 208079, Note_on_c, 2, 76, 0
8, 208200, Note_on_c, 2, 78, 44
8, 208200, Note_on_c, 2, 66, 44
8, 208319, Note_on_c, 2, 78, 0
8, 208319, Note_on_c, 2, 66, 0
8, 208440, Note_on_c, 2, 57, 44
8, 208440, Note_on_c, 2, 69, 44
8, 208559, Note_on_c, 2, 57, 0
8, 208559, Note_on_c, 2, 69, 0
8, 208680, Note_on_c, 2, 72, 44
8, 208680, Note_on_c, 2, 60, 44
8, 208799, Note_on_c, 2, 72, 0
8, 208799, Note_on_c, 2, 60, 0
8, 208920, Note_on_c, 2, 63, 44
8, 208920, Note_on_c, 2, 75, 44
8, 209039, Note_on_c, 2, 63, 0
8, 209039, Note_on_c, 2, 75, 0
8, 209100, Note_on_c, 2, 75, 44
8, 209159, Note_on_c, 2, 75, 0
8, 209160, Note_on_c, 2, 66, 44
8, 209160, Note_on_c, 2, 74, 44
8, 209219, Note_on_c, 2, 74, 0
8, 209250, Note_on_c, 2, 72, 44
8, 209271, Note_on_c, 2, 72, 0
8, 209279, Note_on_c, 2, 66, 0
8, 209280, Note_on_c, 2, 84, 60
8, 209400, Note_on_c, 2, 60, 60
8, 209519, Note_on_c, 2, 60, 0
8, 209640, Note_on_c, 2, 63, 60
8, 209721, Note_on_c, 2, 84, 0
8, 209730, Note_on_c, 2, 81, 60
8, 209751, Note_on_c, 2, 81, 0
8, 209759, Note_on_c, 2, 63, 0
8, 209760, Note_on_c, 2, 78, 60
8, 209880, Note_on_c, 2, 66, 60
8, 209939, Note_on_c, 2, 78, 0
8, 209940, Note_on_c, 2, 75, 60
8, 209969, Note_on_c, 2, 75, 0
8, 209970, Note_on_c, 2, 72, 60
8, 209984, Note_on_c, 2, 66, 0
8, 209991, Note_on_c, 2, 72, 0
8, 210000, Note_on_c, 2, 69, 60
8, 210104, Note_on_c, 2, 69, 0
8, 210120, Note_on_c, 2, 69, 60
8, 210224, Note_on_c, 2, 69, 0
8, 210360, Note_on_c, 2, 69, 44
8, 210360, Note_on_c, 2, 57, 44
8, 210479, Note_on_c, 2, 69, 0
8, 210479, Note_on_c, 2, 57, 0
8, 210600, Note_on_c, 2, 60, 46
8, 210600, Note_on_c, 2, 72, 46
8, 210719, Note_on_c, 2, 60, 0
8, 210719, Note_on_c, 2, 72, 0
8, 210840, Note_on_c, 2, 60, 48
8, 210840, Note_on_c, 2, 72, 48
8, 210959, Note_on_c, 2, 60, 0
8, 210959, Note_on_c, 2, 72, 0
8, 211020, Note_on_c, 2, 80, 49
8, 211079, Note_on_c, 2, 80, 0
8, 211080, Note_on_c, 2, 59, 50
8, 211080, Note_on_c, 2, 79, 50
8, 211139, Note_on_c, 2, 79, 0
8, 211170, Note_on_c, 2, 77, 50
8, 211191, Note_on_c, 2, 77, 0
8, 211199, Note_on_c, 2, 59, 0
8, 211200, Note_on_c, 2, 77, 50
8, 211319, Note_on_c, 2, 77, 0
8, 211320, Note_on_c, 2, 62, 51
8, 211410, Note_on_c, 2, 77, 52
8, 211431, Note_on_c, 2, 77, 0
8, 211439, Note_on_c, 2, 62, 0
8, 211440, Note_on_c, 2, 74, 52
8, 211559, Note_on_c, 2, 74, 0
8, 211560, Note_on_c, 2, 65, 53
8, 211650, Note_on_c, 2, 71, 54
8, 211664, Note_on_c, 2, 65, 0
8, 211671, Note_on_c, 2, 71, 0
8, 211680, Note_on_c, 2, 67, 54
8, 211784, Note_on_c, 2, 67, 0
8, 211800, Note_on_c, 2, 62, 55
8, 211890, Note_on_c, 2, 65, 55
8, 211904, Note_on_c, 2, 62, 0
8, 211911, Note_on_c, 2, 65, 0
8, 211920, Note_on_c, 2, 64, 56
8, 212024, Note_on_c, 2, 64, 0
8, 212040, Note_on_c, 2, 60, 56
8, 212144, Note_on_c, 2, 60, 0
8, 212280, Note_on_c, 2, 52, 58
8, 212280, Note_on_c, 2, 64, 58
8, 212399, Note_on_c, 2, 52, 0
8, 212399, Note_on_c, 2, 64, 0
8, 212520, Note_on_c, 2, 67, 60
8, 212520, Note_on_c, 2, 55, 60
8, 212639, Note_on_c, 2, 67, 0
8, 212639, Note_on_c, 2, 55, 0
8, 212760, Note_on_c, 2, 70, 62
8, 212760, Note_on_c, 2, 58, 62
8, 212879, Note_on_c, 2, 70, 0
8, 212879, Note_on_c, 2, 58, 0
8, 212940, Note_on_c, 2, 79, 63
8, 212999, Note_on_c, 2, 79, 0
8, 213000, Note_on_c, 2, 77, 63
8, 213000, Note_on_c, 2, 67, 63
8, 213059, Note_on_c, 2, 77, 0
8, 213090, Note_on_c, 2, 84, 64
8, 213104, Note_on_c, 2, 67, 0
8, 213111, Note_on_c, 2, 84, 0
8, 213120, Note_on_c, 2, 82, 64
8, 213239, Note_on_c, 2, 82, 0
8, 213240, Note_on_c, 2, 64, 65
8, 213330, Note_on_c, 2, 79, 66
8, 213344, Note_on_c, 2, 64, 0
8, 213351, Note_on_c, 2, 79, 0
8, 213360, Note_on_c, 2, 76, 66
8, 213479, Note_on_c, 2, 76, 0
8, 213480, Note_on_c, 2, 67, 67
8, 213570, Note_on_c, 2, 73, 67
8, 213584, Note_on_c, 2, 67, 0
8, 213591, Note_on_c, 2, 73, 0
8, 213600, Note_on_c, 2, 70, 68
8, 213704, Note_on_c, 2, 70, 0
8, 213720, Note_on_c, 2, 64, 68
8, 213810, Note_on_c, 2, 67, 69
8, 213824, Note_on_c, 2, 64, 0
8, 213831, Note_on_c, 2, 67, 0
8, 213840, Note_on_c, 2, 64, 69
8, 213944, Note_on_c, 2, 64, 0
8, 213960, Note_on_c, 2, 67, 70
8, 214079, Note_on_c, 2, 67, 0
8, 214200, Note_on_c, 2, 55, 72
8, 214319, Note_on_c, 2, 55, 0
8, 214380, Note_on_c, 2, 79, 73
8, 214439, Note_on_c, 2, 79, 0
8, 214440, Note_on_c, 2, 77, 74
8, 214440, Note_on_c, 2, 58, 74
8, 214499, Note_on_c, 2, 77, 0
8, 214530, Note_on_c, 2, 76, 74
8, 214544, Note_on_c, 2, 58, 0
8, 214551, Note_on_c, 2, 76, 0
8, 214560, Note_on_c, 2, 73, 74
8, 214679, Note_on_c, 2, 73, 0
8, 214680, Note_on_c, 2, 61, 75
8, 214770, Note_on_c, 2, 70, 76
8, 214784, Note_on_c, 2, 61, 0
8, 214791, Note_on_c, 2, 70, 0
8, 214800, Note_on_c, 2, 67, 76
8, 214904, Note_on_c, 2, 67, 0
8, 214920, Note_on_c, 2, 64, 77
8, 215024, Note_on_c, 2, 64, 0
8, 215160, Note_on_c, 2, 58, 79
8, 215279, Note_on_c, 2, 58, 0
8, 215340, Note_on_c, 2, 76, 80
8, 215399, Note_on_c, 2, 76, 0
8, 215400, Note_on_c, 2, 74, 80
8, 215400, Note_on_c, 2, 61, 80
8, 215459, Note_on_c, 2, 74, 0
8, 215490, Note_on_c, 2, 73, 81
8, 215504, Note_on_c, 2, 61, 0
8, 215511, Note_on_c, 2, 73, 0
8, 215520, Note_on_c, 2, 73, 81
8, 215624, Note_on_c, 2, 73, 0
8, 215640, Note_on_c, 2, 64, 82
8, 215730, Note_on_c, 2, 70, 83
8, 215744, Note_on_c, 2, 64, 0
8, 215751, Note_on_c, 2, 70, 0
8, 215760, Note_on_c, 2, 67, 83
8, 215864, Note_on_c, 2, 67, 0
8, 215880, Note_on_c, 2, 67, 84
8, 215984, Note_on_c, 2, 67, 0
8, 216120, Note_on_c, 2, 61, 86
8, 216120, Note_on_c, 2, 73, 86
8, 216239, Note_on_c, 2, 61, 0
8, 216239, Note_on_c, 2, 73, 0
8, 216360, Note_on_c, 2, 64, 87
8, 216360, Note_on_c, 2, 76, 87
8, 216479, Note_on_c, 2, 64, 0
8, 216479, Note_on_c, 2, 76, 0
8, 216600, Note_on_c, 2, 79, 89
8, 216600, Note_on_c, 2, 67, 89
8, 216719, Note_on_c, 2, 79, 0
8, 216719, Note_on_c, 2, 67, 0
8, 216780, Note_on_c, 2, 82, 90
8, 216780, Note_on_c, 2, 70, 90
8, 216839, Note_on_c, 2, 82, 0
8, 216839, Note_on_c, 2, 70, 0
8, 216840, Note_on_c, 2, 69, 91
8, 216840, Note_on_c, 2, 81, 91
8, 216899, Note_on_c, 2, 69, 0
8, 216899, Note_on_c, 2, 81, 0
8, 216930, Note_on_c, 2, 70, 91
8, 216930, Note_on_c, 2, 82, 91
8, 216951, Note_on_c, 2, 70, 0
8, 216951, Note_on_c, 2, 82, 0
8, 216960, Note_on_c, 2, 69, 92
8, 216960, Note_on_c, 2, 81, 92
8, 217319, Note_on_c, 2, 69, 0
8, 217319, Note_on_c, 2, 81, 0
8, 217320, Note_on_c, 2, 80, 92
8, 217320, Note_on_c, 2, 68, 92
8, 217439, Note_on_c, 2, 80, 0
8, 217439, Note_on_c, 2, 68, 0
8, 217440, Note_on_c, 2, 67, 92
8, 217440, Note_on_c, 2, 79, 92
8, 217491, Note_on_c, 2, 67, 0
8, 217491, Note_on_c, 2, 79, 0
8, 217500, Note_on_c, 2, 77, 92
8, 217500, Note_on_c, 2, 65, 92
8, 217559, Note_on_c, 2, 77, 0
8, 217559, Note_on_c, 2, 65, 0
8, 217560, Note_on_c, 2, 64, 92
8, 217560, Note_on_c, 2, 76, 92
8, 217611, Note_on_c, 2, 64, 0
8, 217611, Note_on_c, 2, 76, 0
8, 217620, Note_on_c, 2, 62, 92
8, 217620, Note_on_c, 2, 74, 92
8, 217679, Note_on_c, 2, 62, 0
8, 217679, Note_on_c, 2, 74, 0
8, 217680, Note_on_c, 2, 61, 92
8, 217680, Note_on_c, 2, 73, 92
8, 217731, Note_on_c, 2, 61, 0
8, 217731, Note_on_c, 2, 73, 0
8, 217740, Note_on_c, 2, 70, 92
8, 217740, Note_on_c, 2, 58, 92
8, 217799, Note_on_c, 2, 70, 0
8, 217799, Note_on_c, 2, 58, 0
8, 217800, Note_on_c, 2, 69, 92
8, 217800, Note_on_c, 2, 57, 92
8, 217851, Note_on_c, 2, 69, 0
8, 217851, Note_on_c, 2, 57, 0
8, 217860, Note_on_c, 2, 55, 92
8, 217860, Note_on_c, 2, 67, 92
8, 217919, Note_on_c, 2, 55, 0
8, 217919, Note_on_c, 2, 67, 0
8, 217920, Note_on_c, 2, 65, 92
8, 217920, Note_on_c, 2, 77, 92
8, 217971, Note_on_c, 2, 65, 0
8, 217971, Note_on_c, 2, 77, 0
8, 217980, Note_on_c, 2, 64, 92
8, 217980, Note_on_c, 2, 76, 92
8, 218039, Note_on_c, 2, 64, 0
8, 218039, Note_on_c, 2, 76, 0
8, 218040, Note_on_c, 2, 74, 92
8, 218040, Note_on_c, 2, 62, 92
8, 218091, Note_on_c, 2, 74, 0
8, 218091, Note_on_c, 2, 62, 0
8, 218100, Note_on_c, 2, 60, 92
8, 218100, Note_on_c, 2, 72, 92
8, 218159, Note_on_c, 2, 60, 0
8, 218159, Note_on_c, 2, 72, 0
8, 218160, Note_on_c, 2, 58, 92
8, 218160, Note_on_c, 2, 70, 92
8, 218211, Note_on_c, 2, 58, 0
8, 218211, Note_on_c, 2, 70, 0
8, 218220, Note_on_c, 2, 69, 92
8, 218220, Note_on_c, 2, 57, 92
8, 218279, Note_on_c, 2, 69, 0
8, 218279, Note_on_c, 2, 57, 0
8, 218280, Note_on_c, 2, 67, 92
8, 218280, Note_on_c, 2, 55, 92
8, 218331, Note_on_c, 2, 67, 0
8, 218331, Note_on_c, 2, 55, 0
8, 218340, Note_on_c, 2, 65, 92
8, 218340, Note_on_c, 2, 53, 92
8, 218399, Note_on_c, 2, 65, 0
8, 218399, Note_on_c, 2, 53, 0
8, 218400, Note_on_c, 2, 58, 92
8, 218400, Note_on_c, 2, 55, 92
8, 218504, Note_on_c, 2, 58, 0
8, 218504, Note_on_c, 2, 55, 0
8, 218520, Note_on_c, 2, 67, 92
8, 218520, Note_on_c, 2, 70, 92
8, 218639, Note_on_c, 2, 67, 0
8, 218639, Note_on_c, 2, 70, 0
8, 218760, Note_on_c, 2, 73, 92
8, 218760, Note_on_c, 2, 76, 92
8, 218879, Note_on_c, 2, 73, 0
8, 218879, Note_on_c, 2, 76, 0
8, 219792, Control_c, 2, 11, 86
8, 219840, Note_on_c, 2, 77, 80
8, 219840, Control_c, 2, 11, 87
8, 219888, Control_c, 2, 11, 88
8, 219936, Control_c, 2, 11, 89
8, 219984, Control_c, 2, 11, 90
8, 220032, Control_c, 2, 11, 91
8, 220080, Control_c, 2, 11, 92
8, 220128, Control_c, 2, 11, 93
8, 220176, Control_c, 2, 11, 94
8, 220199, Note_on_c, 2, 77, 0
8, 220200, Note_on_c, 2, 76, 80
8, 220224, Control_c, 2, 11, 95
8, 220272, Control_c, 2, 11, 96
8, 220319, Note_on_c, 2, 76, 0
8, 220320, Note_on_c, 2, 75, 80
8, 220320, Control_c, 2, 11, 97
8, 220368, Control_c, 2, 11, 98
8, 220371, Note_on_c, 2, 75, 0
8, 220380, Note_on_c, 2, 74, 80
8, 220416, Control_c, 2, 11, 99
8, 220439, Note_on_c, 2, 74, 0
8, 220440, Note_on_c, 2, 72, 80
8, 220464, Control_c, 2, 11, 100
8, 220491, Note_on_c, 2, 72, 0
8, 220500, Note_on_c, 2, 70, 80
8, 220512, Control_c, 2, 11, 101
8, 220559, Note_on_c, 2, 70, 0
8, 220560, Control_c, 2, 11, 102
8, 220560, Note_on_c, 2, 69, 80
8, 220608, Control_c, 2, 11, 103
8, 220611, Note_on_c, 2, 69, 0
8, 220620, Note_on_c, 2, 67, 80
8, 220656, Control_c, 2, 11, 104
8, 220679, Note_on_c, 2, 67, 0
8, 220680, Note_on_c, 2, 65, 80
8, 220704, Control_c, 2, 11, 105
8, 220731, Note_on_c, 2, 65, 0
8, 220740, Note_on_c, 2, 63, 80
8, 220752, Control_c, 2, 11, 106
8, 220799, Note_on_c, 2, 63, 0
8, 220800, Control_c, 2, 11, 107
8, 220800, Note_on_c, 2, 62, 80
8, 220800, Note_on_c, 2, 74, 80
8, 220848, Control_c, 2, 11, 108
8, 220896, Control_c, 2, 11, 109
8, 220944, Control_c, 2, 11, 110
8, 220992, Control_c, 2, 11, 111
8, 221040, Control_c, 2, 11, 112
8, 221088, Control_c, 2, 11, 113
8, 221136, Control_c, 2, 11, 114
8, 221159, Note_on_c, 2, 62, 0
8, 221159, Note_on_c, 2, 74, 0
8, 221160, Note_on_c, 2, 61, 80
8, 221160, Note_on_c, 2, 73, 80
8, 221184, Control_c, 2, 11, 115
8, 221232, Control_c, 2, 11, 116
8, 221279, Note_on_c, 2, 61, 0
8, 221279, Note_on_c, 2, 73, 0
8, 221280, Note_on_c, 2, 72, 80
8, 221280, Control_c, 2, 11, 117
8, 221280, Note_on_c, 2, 60, 80
8, 221328, Control_c, 2, 11, 118
8, 221331, Note_on_c, 2, 72, 0
8, 221331, Note_on_c, 2, 60, 0
8, 221340, Note_on_c, 2, 58, 80
8, 221340, Note_on_c, 2, 70, 80
8, 221376, Control_c, 2, 11, 119
8, 221399, Note_on_c, 2, 58, 0
8, 221399, Note_on_c, 2, 70, 0
8, 221400, Note_on_c, 2, 69, 80
8, 221400, Note_on_c, 2, 57, 80
8, 221424, Control_c, 2, 11, 120
8, 221451, Note_on_c, 2, 69, 0
8, 221451, Note_on_c, 2, 57, 0
8, 221460, Note_on_c, 2, 55, 80
8, 221460, Note_on_c, 2, 67, 80
8, 221472, Control_c, 2, 11, 121
8, 221519, Note_on_c, 2, 55, 0
8, 221519, Note_on_c, 2, 67, 0
8, 221520, Control_c, 2, 11, 122
8, 221520, Note_on_c, 2, 66, 80
8, 221520, Note_on_c, 2, 54, 80
8, 221568, Control_c, 2, 11, 123
8, 221571, Note_on_c, 2, 66, 0
8, 221571, Note_on_c, 2, 54, 0
8, 221580, Note_on_c, 2, 62, 80
8, 221580, Note_on_c, 2, 74, 80
8, 221616, Control_c, 2, 11, 124
8, 221639, Note_on_c, 2, 62, 0
8, 221639, Note_on_c, 2, 74, 0
8, 221640, Note_on_c, 2, 64, 80
8, 221640, Note_on_c, 2, 76, 80
8, 221664, Control_c, 2, 11, 125
8, 221691, Note_on_c, 2, 64, 0
8, 221691, Note_on_c, 2, 76, 0
8, 221700, Note_on_c, 2, 66, 80
8, 221700, Note_on_c, 2, 78, 80
8, 221712, Control_c, 2, 11, 127
8, 221759, Note_on_c, 2, 66, 0
8, 221759, Note_on_c, 2, 78, 0
8, 221760, Note_on_c, 2, 67, 80
8, 221760, Note_on_c, 2, 79, 80
8, 221864, Note_on_c, 2, 67, 0
8, 221864, Note_on_c, 2, 79, 0
8, 221880, Note_on_c, 2, 58, 80
8, 221880, Note_on_c, 2, 70, 80
8, 221961, Note_on_c, 2, 58, 0
8, 221961, Note_on_c, 2, 70, 0
8, 221970, Note_on_c, 2, 70, 80
8, 221970, Note_on_c, 2, 58, 80
8, 221991, Note_on_c, 2, 70, 0
8, 221991, Note_on_c, 2, 58, 0
8, 222000, Note_on_c, 2, 70, 80
8, 222000, Note_on_c, 2, 58, 80
8, 222119, Note_on_c, 2, 70, 0
8, 222119, Note_on_c, 2, 58, 0
8, 222360, Note_on_c, 2, 70, 80
8, 222360, Note_on_c, 2, 58, 80
8, 222441, Note_on_c, 2, 70, 0
8, 222441, Note_on_c, 2, 58, 0
8, 222450, Note_on_c, 2, 70, 80
8, 222450, Note_on_c, 2, 58, 80
8, 222471, Note_on_c, 2, 70, 0
8, 222471, Note_on_c, 2, 58, 0
8, 222480, Note_on_c, 2, 70, 80
8, 222480, Note_on_c, 2, 75, 80
8, 222599, Note_on_c, 2, 70, 0
8, 222599, Note_on_c, 2, 75, 0
8, 222840, Note_on_c, 2, 73, 80
8, 222840, Note_on_c, 2, 61, 80
8, 222921, Note_on_c, 2, 73, 0
8, 222921, Note_on_c, 2, 61, 0
8, 222930, Note_on_c, 2, 73, 80
8, 222930, Note_on_c, 2, 61, 80
8, 222951, Note_on_c, 2, 73, 0
8, 222951, Note_on_c, 2, 61, 0
8, 222960, Note_on_c, 2, 61, 80
8, 222960, Note_on_c, 2, 73, 80
8, 223079, Note_on_c, 2, 61, 0
8, 223079, Note_on_c, 2, 73, 0
8, 223320, Note_on_c, 2, 77, 80
8, 223320, Note_on_c, 2, 65, 80
8, 223401, Note_on_c, 2, 77, 0
8, 223401, Note_on_c, 2, 65, 0
8, 223410, Note_on_c, 2, 65, 80
8, 223410, Note_on_c, 2, 77, 80
8, 223431, Note_on_c, 2, 65, 0
8, 223431, Note_on_c, 2, 77, 0
8, 223440, Note_on_c, 2, 77, 80
8, 223440, Note_on_c, 2, 65, 80
8, 223559, Note_on_c, 2, 77, 0
8, 223559, Note_on_c, 2, 65, 0
8, 223800, Note_on_c, 2, 74, 80
8, 223800, Note_on_c, 2, 62, 80
8, 223881, Note_on_c, 2, 74, 0
8, 223881, Note_on_c, 2, 62, 0
8, 223890, Note_on_c, 2, 62, 80
8, 223890, Note_on_c, 2, 74, 80
8, 223911, Note_on_c, 2, 62, 0
8, 223911, Note_on_c, 2, 74, 0
8, 223920, Note_on_c, 2, 74, 80
8, 223920, Note_on_c, 2, 62, 80
8, 224024, Note_on_c, 2, 74, 0
8, 224024, Note_on_c, 2, 62, 0
8, 224040, Note_on_c, 2, 79, 80
8, 224040, Note_on_c, 2, 67, 80
8, 224121, Note_on_c, 2, 79, 0
8, 224121, Note_on_c, 2, 67, 0
8, 224130, Note_on_c, 2, 67, 80
8, 224130, Note_on_c, 2, 79, 80
8, 224151, Note_on_c, 2, 67, 0
8, 224151, Note_on_c, 2, 79, 0
8, 224160, Note_on_c, 2, 67, 80
8, 224160, Note_on_c, 2, 79, 80
8, 224264, Note_on_c, 2, 67, 0
8, 224264, Note_on_c, 2, 79, 0
8, 224280, Note_on_c, 2, 76, 80
8, 224280, Note_on_c, 2, 64, 80
8, 224361, Note_on_c, 2, 76, 0
8, 224361, Note_on_c, 2, 64, 0
8, 224370, Note_on_c, 2, 64, 80
8, 224370, Note_on_c, 2, 76, 80
8, 224391, Note_on_c, 2, 64, 0
8, 224391, Note_on_c, 2, 76, 0
8, 224400, Note_on_c, 2, 76, 80
8, 224400, Note_on_c, 2, 64, 80
8, 224504, Note_on_c, 2, 76, 0
8, 224504, Note_on_c, 2, 64, 0
8, 224520, Note_on_c, 2, 69, 80
8, 224520, Note_on_c, 2, 81, 80
8, 224601, Note_on_c, 2, 69, 0
8, 224601, Note_on_c, 2, 81, 0
8, 224610, Note_on_c, 2, 69, 80
8, 224610, Note_on_c, 2, 81, 80
8, 224631, Note_on_c, 2, 69, 0
8, 224631, Note_on_c, 2, 81, 0
8, 224640, Note_on_c, 2, 81, 44
8, 224640, Note_on_c, 2, 69, 44
8, 224759, Note_on_c, 2, 81, 0
8, 224759, Note_on_c, 2, 69, 0
8, 233280, Note_on_c, 2, 69, 66
8, 233339, Note_on_c, 2, 69, 0
8, 233340, Note_on_c, 2, 67, 67
8, 233391, Note_on_c, 2, 67, 0
8, 233400, Note_on_c, 2, 67, 67
8, 233444, Note_on_c, 2, 67, 0
8, 233460, Note_on_c, 2, 70, 68
8, 233504, Note_on_c, 2, 70, 0
8, 233520, Note_on_c, 2, 58, 68
8, 233564, Note_on_c, 2, 58, 0
8, 233580, Note_on_c, 2, 70, 69
8, 233624, Note_on_c, 2, 70, 0
8, 233640, Note_on_c, 2, 69, 69
8, 233684, Note_on_c, 2, 69, 0
8, 233700, Note_on_c, 2, 67, 70
8, 233744, Note_on_c, 2, 67, 0
8, 235680, Note_on_c, 2, 77, 38
8, 235739, Note_on_c, 2, 77, 0
8, 235740, Note_on_c, 2, 75, 38
8, 235791, Note_on_c, 2, 75, 0
8, 235800, Note_on_c, 2, 75, 38
8, 235844, Note_on_c, 2, 75, 0
8, 235860, Note_on_c, 2, 79, 38
8, 235904, Note_on_c, 2, 79, 0
8, 235920, Note_on_c, 2, 75, 38
8, 235964, Note_on_c, 2, 75, 0
8, 235980, Note_on_c, 2, 79, 38
8, 236024, Note_on_c, 2, 79, 0
8, 236040, Note_on_c, 2, 77, 37
8, 236084, Note_on_c, 2, 77, 0
8, 236100, Note_on_c, 2, 75, 36
8, 236144, Note_on_c, 2, 75, 0
8, 237113, Control_c, 2, 11, 55
8, 237120, Note_on_c, 2, 81, 80
8, 237120, Note_on_c, 2, 69, 80
8, 237135, Control_c, 2, 11, 57
8, 237158, Control_c, 2, 11, 59
8, 237180, Control_c, 2, 11, 60
8, 237203, Control_c, 2, 11, 62
8, 237225, Control_c, 2, 11, 64
8, 237248, Control_c, 2, 11, 65
8, 237270, Control_c, 2, 11, 67
8, 237293, Control_c, 2, 11, 69
8, 237315, Control_c, 2, 11, 70
8, 237338, Control_c, 2, 11, 72
8, 237360, Control_c, 2, 11, 74
8, 237383, Control_c, 2, 11, 75
8, 237405, Control_c, 2, 11, 77
8, 237428, Control_c, 2, 11, 79
8, 237450, Control_c, 2, 11, 80
8, 237473, Control_c, 2, 11, 82
8, 237479, Note_on_c, 2, 81, 0
8, 237479, Note_on_c, 2, 69, 0
8, 237480, Note_on_c, 2, 68, 80
8, 237480, Note_on_c, 2, 80, 80
8, 237495, Control_c, 2, 11, 84
8, 237518, Control_c, 2, 11, 85
8, 237540, Control_c, 2, 11, 87
8, 237563, Control_c, 2, 11, 89
8, 237585, Control_c, 2, 11, 90
8, 237599, Note_on_c, 2, 68, 0
8, 237599, Note_on_c, 2, 80, 0
8, 237600, Note_on_c, 2, 67, 80
8, 237600, Note_on_c, 2, 79, 80
8, 237608, Control_c, 2, 11, 92
8, 237630, Control_c, 2, 11, 94
8, 237651, Note_on_c, 2, 67, 0
8, 237651, Note_on_c, 2, 79, 0
8, 237653, Control_c, 2, 11, 95
8, 237660, Note_on_c, 2, 65, 80
8, 237660, Note_on_c, 2, 77, 80
8, 237675, Control_c, 2, 11, 97
8, 237698, Control_c, 2, 11, 99
8, 237719, Note_on_c, 2, 65, 0
8, 237719, Note_on_c, 2, 77, 0
8, 237720, Control_c, 2, 11, 100
8, 237720, Note_on_c, 2, 64, 80
8, 237720, Note_on_c, 2, 76, 80
8, 237743, Control_c, 2, 11, 102
8, 237765, Control_c, 2, 11, 104
8, 237771, Note_on_c, 2, 64, 0
8, 237771, Note_on_c, 2, 76, 0
8, 237780, Note_on_c, 2, 62, 80
8, 237780, Note_on_c, 2, 74, 80
8, 237788, Control_c, 2, 11, 105
8, 237810, Control_c, 2, 11, 107
8, 237833, Control_c, 2, 11, 109
8, 237839, Note_on_c, 2, 62, 0
8, 237839, Note_on_c, 2, 74, 0
8, 237840, Note_on_c, 2, 61, 80
8, 237840, Note_on_c, 2, 73, 80
8, 237855, Control_c, 2, 11, 110
8, 237878, Control_c, 2, 11, 112
8, 237891, Note_on_c, 2, 61, 0
8, 237891, Note_on_c, 2, 73, 0
8, 237900, Control_c, 2, 11, 114
8, 237900, Note_on_c, 2, 70, 80
8, 237900, Note_on_c, 2, 58, 80
8, 237923, Control_c, 2, 11, 115
8, 237945, Control_c, 2, 11, 117
8, 237959, Note_on_c, 2, 70, 0
8, 237959, Note_on_c, 2, 58, 0
8, 237960, Note_on_c, 2, 57, 80
8, 237960, Note_on_c, 2, 69, 80
8, 237968, Control_c, 2, 11, 119
8, 237990, Control_c, 2, 11, 120
8, 238011, Note_on_c, 2, 57, 0
8, 238011, Note_on_c, 2, 69, 0
8, 238013, Control_c, 2, 11, 122
8, 238020, Note_on_c, 2, 55, 80
8, 238020, Note_on_c, 2, 67, 80
8, 238035, Control_c, 2, 11, 124
8, 238058, Control_c, 2, 11, 127
8, 238079, Note_on_c, 2, 55, 0
8, 238079, Note_on_c, 2, 67, 0
8, 238080, Note_on_c, 2, 65, 80
8, 238080, Note_on_c, 2, 77, 80
8, 238131, Note_on_c, 2, 65, 0
8, 238131, Note_on_c, 2, 77, 0
8, 238140, Note_on_c, 2, 76, 80
8, 238140, Note_on_c, 2, 64, 80
8, 238199, Note_on_c, 2, 76, 0
8, 238199, Note_on_c, 2, 64, 0
8, 238200, Note_on_c, 2, 62, 80
8, 238200, Note_on_c, 2, 74, 80
8, 238251, Note_on_c, 2, 62, 0
8, 238251, Note_on_c, 2, 74, 0
8, 238260, Note_on_c, 2, 72, 80
8, 238260, Note_on_c, 2, 60, 80
8, 238319, Note_on_c, 2, 72, 0
8, 238319, Note_on_c, 2, 60, 0
8, 238320, Note_on_c, 2, 70, 80
8, 238320, Note_on_c, 2, 58, 80
8, 238371, Note_on_c, 2, 70, 0
8, 238371, Note_on_c, 2, 58, 0
8, 238380, Note_on_c, 2, 69, 80
8, 238380, Note_on_c, 2, 57, 80
8, 238439, Note_on_c, 2, 69, 0
8, 238439, Note_on_c, 2, 57, 0
8, 238440, Note_on_c, 2, 55, 80
8, 238440, Note_on_c, 2, 67, 80
8, 238491, Note_on_c, 2, 55, 0
8, 238491, Note_on_c, 2, 67, 0
8, 238500, Note_on_c, 2, 53, 80
8, 238500, Note_on_c, 2, 65, 80
8, 238559, Note_on_c, 2, 53, 0
8, 238559, Note_on_c, 2, 65, 0
8, 238560, Note_on_c, 2, 76, 80
8, 238560, Note_on_c, 2, 74, 80
8, 238664, Note_on_c, 2, 76, 0
8, 238664, Note_on_c, 2, 74, 0
8, 238680, Note_on_c, 2, 74, 80
8, 238680, Note_on_c, 2, 76, 80
8, 238799, Note_on_c, 2, 74, 0
8, 238799, Note_on_c, 2, 76, 0
8, 238920, Note_on_c, 2, 73, 80
8, 238920, Note_on_c, 2, 76, 80
8, 239039, Note_on_c, 2, 73, 0
8, 239039, Note_on_c, 2, 76, 0
8, 240456, Control_c, 2, 11, 106
8, 240480, Note_on_c, 2, 69, 80
8, 240480, Note_on_c, 2, 81, 80
8, 240480, Control_c, 2, 11, 107
8, 240504, Control_c, 2, 11, 108
8, 240528, Control_c, 2, 11, 109
8, 240552, Control_c, 2, 11, 110
8, 240576, Control_c, 2, 11, 111
8, 240600, Control_c, 2, 11, 112
8, 240624, Control_c, 2, 11, 113
8, 240648, Control_c, 2, 11, 114
8, 240672, Control_c, 2, 11, 115
8, 240696, Control_c, 2, 11, 116
8, 240720, Control_c, 2, 11, 117
8, 240744, Control_c, 2, 11, 118
8, 240768, Control_c, 2, 11, 119
8, 240792, Control_c, 2, 11, 120
8, 240816, Control_c, 2, 11, 121
8, 240824, Note_on_c, 2, 69, 0
8, 240824, Note_on_c, 2, 81, 0
8, 240840, Note_on_c, 2, 69, 80
8, 240840, Control_c, 2, 11, 122
8, 240840, Note_on_c, 2, 57, 80
8, 240864, Control_c, 2, 11, 123
8, 240888, Control_c, 2, 11, 124
8, 240912, Control_c, 2, 11, 125
8, 240936, Control_c, 2, 11, 127
8, 240944, Note_on_c, 2, 57, 0
8, 240960, Note_on_c, 2, 65, 80
8, 241011, Note_on_c, 2, 69, 0
8, 241011, Note_on_c, 2, 65, 0
8, 241020, Note_on_c, 2, 67, 80
8, 241020, Note_on_c, 2, 70, 80
8, 241079, Note_on_c, 2, 67, 0
8, 241079, Note_on_c, 2, 70, 0
8, 241080, Note_on_c, 2, 72, 80
8, 241080, Note_on_c, 2, 69, 80
8, 241131, Note_on_c, 2, 72, 0
8, 241131, Note_on_c, 2, 69, 0
8, 241140, Note_on_c, 2, 70, 80
8, 241140, Note_on_c, 2, 74, 80
8, 241199, Note_on_c, 2, 70, 0
8, 241199, Note_on_c, 2, 74, 0
8, 241200, Note_on_c, 2, 73, 80
8, 241200, Note_on_c, 2, 76, 80
8, 241251, Note_on_c, 2, 73, 0
8, 241251, Note_on_c, 2, 76, 0
8, 241260, Note_on_c, 2, 77, 80
8, 241260, Note_on_c, 2, 74, 80
8, 241319, Note_on_c, 2, 77, 0
8, 241319, Note_on_c, 2, 74, 0
8, 241320, Note_on_c, 2, 79, 80
8, 241320, Note_on_c, 2, 76, 80
8, 241371, Note_on_c, 2, 79, 0
8, 241371, Note_on_c, 2, 76, 0
8, 241380, Note_on_c, 2, 77, 80
8, 241380, Note_on_c, 2, 81, 80
8, 241439, Note_on_c, 2, 77, 0
8, 241439, Note_on_c, 2, 81, 0
8, 241440, Note_on_c, 2, 79, 80
8, 241440, Note_on_c, 2, 76, 80
8, 241544, Note_on_c, 2, 79, 0
8, 241544, Note_on_c, 2, 76, 0
8, 241560, Note_on_c, 2, 79, 80
8, 241560, Note_on_c, 2, 76, 80
8, 241649, Note_on_c, 2, 79, 0
8, 241649, Note_on_c, 2, 76, 0
8, 241800, Note_on_c, 2, 76, 80
8, 241800, Note_on_c, 2, 79, 80
8, 241889, Note_on_c, 2, 76, 0
8, 241889, Note_on_c, 2, 79, 0
8, 241920, Note_on_c, 2, 67, 44
8, 241920, Note_on_c, 2, 70, 44
8, 242219, Note_on_c, 2, 67, 0
8, 242219, Note_on_c, 2, 70, 0
8, 242220, Note_on_c, 2, 67, 44
8, 242220, Note_on_c, 2, 70, 44
8, 242271, Note_on_c, 2, 67, 0
8, 242271, Note_on_c, 2, 70, 0
8, 242280, Note_on_c, 2, 67, 44
8, 242280, Note_on_c, 2, 70, 44
8, 242324, Note_on_c, 2, 67, 0
8, 242324, Note_on_c, 2, 70, 0
8, 242340, Note_on_c, 2, 70, 44
8, 242340, Note_on_c, 2, 67, 44
8, 242384, Note_on_c, 2, 70, 0
8, 242384, Note_on_c, 2, 67, 0
8, 242400, Note_on_c, 2, 67, 44
8, 242400, Note_on_c, 2, 64, 44
8, 242691, Note_on_c, 2, 67, 0
8, 242691, Note_on_c, 2, 64, 0
8, 242700, Note_on_c, 2, 67, 44
8, 242700, Note_on_c, 2, 64, 44
8, 242751, Note_on_c, 2, 67, 0
8, 242751, Note_on_c, 2, 64, 0
8, 242760, Note_on_c, 2, 64, 44
8, 242760, Note_on_c, 2, 69, 44
8, 242811, Note_on_c, 2, 64, 0
8, 242811, Note_on_c, 2, 69, 0
8, 242820, Note_on_c, 2, 64, 44
8, 242820, Note_on_c, 2, 70, 44
8, 242864, Note_on_c, 2, 64, 0
8, 242864, Note_on_c, 2, 70, 0
8, 242880, Note_on_c, 2, 71, 44
8, 242880, Note_on_c, 2, 62, 44
8, 243059, Note_on_c, 2, 71, 0
8, 243059, Note_on_c, 2, 62, 0
8, 243120, Note_on_c, 2, 64, 44
8, 243120, Note_on_c, 2, 67, 44
8, 243299, Note_on_c, 2, 64, 0
8, 243299, Note_on_c, 2, 67, 0
8, 243360, Note_on_c, 2, 67, 44
8, 243360, Note_on_c, 2, 70, 44
8, 243539, Note_on_c, 2, 67, 0
8, 243539, Note_on_c, 2, 70, 0
8, 243600, Note_on_c, 2, 70, 44
8, 243600, Note_on_c, 2, 67, 44
8, 243779, Note_on_c, 2, 70, 0
8, 243779, Note_on_c, 2, 67, 0
8, 243900, Note_on_c, 2, 67, 44
8, 243944, Note_on_c, 2, 67, 0
8, 243960, Note_on_c, 2, 69, 44
8, 244004, Note_on_c, 2, 69, 0
8, 244020, Note_on_c, 2, 70, 44
8, 244064, Note_on_c, 2, 70, 0
8, 244080, Note_on_c, 2, 70, 44
8, 244199, Note_on_c, 2, 70, 0
8, 244380, Note_on_c, 2, 67, 44
8, 244424, Note_on_c, 2, 67, 0
8, 244440, Note_on_c, 2, 69, 44
8, 244484, Note_on_c, 2, 69, 0
8, 244500, Note_on_c, 2, 70, 44
8, 244544, Note_on_c, 2, 70, 0
8, 244560, Note_on_c, 2, 70, 44
8, 244679, Note_on_c, 2, 70, 0
8, 246480, Note_on_c, 2, 69, 44
8, 246480, Note_on_c, 2, 65, 44
8, 246839, Note_on_c, 2, 69, 0
8, 246839, Note_on_c, 2, 65, 0
8, 246900, Note_on_c, 2, 69, 44
8, 246900, Note_on_c, 2, 65, 44
8, 246951, Note_on_c, 2, 69, 0
8, 246951, Note_on_c, 2, 65, 0
8, 246960, Note_on_c, 2, 65, 44
8, 246960, Note_on_c, 2, 69, 44
8, 247079, Note_on_c, 2, 65, 0
8, 247079, Note_on_c, 2, 69, 0
8, 247140, Note_on_c, 2, 69, 44
8, 247140, Note_on_c, 2, 65, 44
8, 247191, Note_on_c, 2, 69, 0
8, 247191, Note_on_c, 2, 65, 0
8, 247200, Note_on_c, 2, 65, 44
8, 247200, Note_on_c, 2, 69, 44
8, 247439, Note_on_c, 2, 65, 0
8, 247440, Note_on_c, 2, 67, 44
8, 247664, Note_on_c, 2, 69, 0
8, 247664, Note_on_c, 2, 67, 0
8, 247680, Note_on_c, 2, 65, 44
8, 247680, Note_on_c, 2, 69, 44
8, 247919, Note_on_c, 2, 65, 0
8, 247919, Note_on_c, 2, 69, 0
8, 248400, Note_on_c, 2, 65, 44
8, 248400, Note_on_c, 2, 62, 44
8, 248759, Note_on_c, 2, 65, 0
8, 248759, Note_on_c, 2, 62, 0
8, 248820, Note_on_c, 2, 62, 44
8, 248820, Note_on_c, 2, 57, 44
8, 248871, Note_on_c, 2, 62, 0
8, 248871, Note_on_c, 2, 57, 0
8, 248880, Note_on_c, 2, 62, 44
8, 248880, Note_on_c, 2, 65, 44
8, 248999, Note_on_c, 2, 62, 0
8, 248999, Note_on_c, 2, 65, 0
8, 249060, Note_on_c, 2, 65, 44
8, 249060, Note_on_c, 2, 69, 44
8, 249111, Note_on_c, 2, 65, 0
8, 249111, Note_on_c, 2, 69, 0
8, 249120, Note_on_c, 2, 65, 44
8, 249120, Note_on_c, 2, 69, 44
8, 249359, Note_on_c, 2, 65, 0
8, 249359, Note_on_c, 2, 69, 0
8, 249360, Note_on_c, 2, 67, 44
8, 249360, Note_on_c, 2, 64, 44
8, 249379, Note_on_c, 2, 67, 0
8, 249380, Note_on_c, 2, 69, 44
8, 249399, Note_on_c, 2, 69, 0
8, 249400, Note_on_c, 2, 67, 44
8, 249419, Note_on_c, 2, 67, 0
8, 249420, Note_on_c, 2, 69, 44
8, 249439, Note_on_c, 2, 69, 0
8, 249440, Note_on_c, 2, 67, 44
8, 249459, Note_on_c, 2, 67, 0
8, 249460, Note_on_c, 2, 69, 44
8, 249479, Note_on_c, 2, 69, 0
8, 249480, Note_on_c, 2, 67, 44
8, 249499, Note_on_c, 2, 67, 0
8, 249500, Note_on_c, 2, 69, 44
8, 249519, Note_on_c, 2, 69, 0
8, 249520, Note_on_c, 2, 67, 44
8, 249539, Note_on_c, 2, 67, 0
8, 249540, Note_on_c, 2, 69, 44
8, 249552, Note_on_c, 2, 69, 0
8, 249553, Note_on_c, 2, 67, 44
8, 249566, Note_on_c, 2, 67, 0
8, 249567, Note_on_c, 2, 65, 44
8, 249579, Note_on_c, 2, 65, 0
8, 249580, Note_on_c, 2, 67, 44
8, 249584, Note_on_c, 2, 64, 0
8, 249595, Note_on_c, 2, 67, 0
8, 249600, Note_on_c, 2, 62, 44
8, 249600, Note_on_c, 2, 65, 44
8, 249719, Note_on_c, 2, 62, 0
8, 249719, Note_on_c, 2, 65, 0
8, 249778, Control_c, 2, 11, 67
8, 249780, Note_on_c, 2, 65, 80
8, 249780, Note_on_c, 2, 69, 80
8, 249831, Note_on_c, 2, 65, 0
8, 249831, Note_on_c, 2, 69, 0
8, 249840, Note_on_c, 2, 69, 80
8, 249840, Note_on_c, 2, 65, 80
8, 249884, Control_c, 2, 11, 68
8, 249928, Control_c, 2, 11, 69
8, 249959, Note_on_c, 2, 69, 0
8, 249959, Note_on_c, 2, 65, 0
8, 249972, Control_c, 2, 11, 70
8, 250016, Control_c, 2, 11, 71
8, 250020, Note_on_c, 2, 69, 80
8, 250020, Note_on_c, 2, 65, 80
8, 250060, Control_c, 2, 11, 72
8, 250071, Note_on_c, 2, 69, 0
8, 250071, Note_on_c, 2, 65, 0
8, 250080, Note_on_c, 2, 69, 80
8, 250080, Note_on_c, 2, 65, 80
8, 250104, Control_c, 2, 11, 73
8, 250148, Control_c, 2, 11, 74
8, 250192, Control_c, 2, 11, 75
8, 250236, Control_c, 2, 11, 76
8, 250280, Control_c, 2, 11, 77
8, 250304, Note_on_c, 2, 69, 0
8, 250319, Note_on_c, 2, 65, 0
8, 250320, Note_on_c, 2, 69, 80
8, 250320, Note_on_c, 2, 67, 80
8, 250324, Control_c, 2, 11, 78
8, 250368, Control_c, 2, 11, 79
8, 250412, Control_c, 2, 11, 80
8, 250456, Control_c, 2, 11, 81
8, 250500, Control_c, 2, 11, 82
8, 250544, Note_on_c, 2, 69, 0
8, 250544, Note_on_c, 2, 67, 0
8, 250544, Control_c, 2, 11, 83
8, 250560, Note_on_c, 2, 69, 80
8, 250560, Note_on_c, 2, 65, 80
8, 250588, Control_c, 2, 11, 84
8, 250632, Control_c, 2, 11, 85
8, 250676, Control_c, 2, 11, 86
8, 250679, Note_on_c, 2, 69, 0
8, 250679, Note_on_c, 2, 65, 0
8, 250720, Control_c, 2, 11, 87
8, 250740, Note_on_c, 2, 57, 80
8, 250740, Note_on_c, 2, 62, 80
8, 250764, Control_c, 2, 11, 88
8, 250791, Note_on_c, 2, 57, 0
8, 250791, Note_on_c, 2, 62, 0
8, 250800, Note_on_c, 2, 65, 80
8, 250800, Note_on_c, 2, 62, 80
8, 250808, Control_c, 2, 11, 89
8, 250852, Control_c, 2, 11, 90
8, 250896, Control_c, 2, 11, 91
8, 250919, Note_on_c, 2, 65, 0
8, 250919, Note_on_c, 2, 62, 0
8, 250940, Control_c, 2, 11, 92
8, 250980, Note_on_c, 2, 69, 80
8, 250980, Note_on_c, 2, 65, 80
8, 250984, Control_c, 2, 11, 93
8, 251028, Control_c, 2, 11, 94
8, 251031, Note_on_c, 2, 69, 0
8, 251031, Note_on_c, 2, 65, 0
8, 251040, Note_on_c, 2, 69, 80
8, 251040, Note_on_c, 2, 65, 80
8, 251072, Control_c, 2, 11, 95
8, 251116, Control_c, 2, 11, 96
8, 251160, Control_c, 2, 11, 97
8, 251204, Control_c, 2, 11, 98
8, 251248, Control_c, 2, 11, 99
8, 251279, Note_on_c, 2, 69, 0
8, 251279, Note_on_c, 2, 65, 0
8, 251280, Note_on_c, 2, 67, 80
8, 251280, Note_on_c, 2, 64, 80
8, 251292, Control_c, 2, 11, 100
8, 251299, Note_on_c, 2, 67, 0
8, 251300, Note_on_c, 2, 69, 80
8, 251319, Note_on_c, 2, 69, 0
8, 251320, Note_on_c, 2, 67, 80
8, 251336, Control_c, 2, 11, 101
8, 251339, Note_on_c, 2, 67, 0
8, 251340, Note_on_c, 2, 69, 80
8, 251359, Note_on_c, 2, 69, 0
8, 251360, Note_on_c, 2, 67, 80
8, 251379, Note_on_c, 2, 67, 0
8, 251380, Control_c, 2, 11, 102
8, 251380, Note_on_c, 2, 69, 80
8, 251399, Note_on_c, 2, 69, 0
8, 251400, Note_on_c, 2, 67, 80
8, 251419, Note_on_c, 2, 67, 0
8, 251420, Note_on_c, 2, 69, 80
8, 251424, Control_c, 2, 11, 103
8, 251439, Note_on_c, 2, 69, 0
8, 251440, Note_on_c, 2, 67, 80
8, 251459, Note_on_c, 2, 67, 0
8, 251460, Note_on_c, 2, 69, 80
8, 251468, Control_c, 2, 11, 104
8, 251472, Note_on_c, 2, 69, 0
8, 251473, Note_on_c, 2, 67, 80
8, 251486, Note_on_c, 2, 67, 0
8, 251487, Note_on_c, 2, 65, 80
8, 251499, Note_on_c, 2, 65, 0
8, 251500, Note_on_c, 2, 67, 80
8, 251504, Note_on_c, 2, 64, 0
8, 251512, Control_c, 2, 11, 105
8, 251515, Note_on_c, 2, 67, 0
8, 251520, Note_on_c, 2, 65, 80
8, 251520, Note_on_c, 2, 62, 80
8, 251556, Control_c, 2, 11, 106
8, 251600, Control_c, 2, 11, 107
8, 251639, Note_on_c, 2, 65, 0
8, 251639, Note_on_c, 2, 62, 0
8, 251644, Control_c, 2, 11, 108
8, 251688, Control_c, 2, 11, 109
8, 251700, Note_on_c, 2, 62, 80
8, 251700, Note_on_c, 2, 57, 80
8, 251732, Control_c, 2, 11, 110
8, 251751, Note_on_c, 2, 62, 0
8, 251751, Note_on_c, 2, 57, 0
8, 251760, Note_on_c, 2, 65, 80
8, 251760, Note_on_c, 2, 62, 80
8, 251776, Control_c, 2, 11, 111
8, 251820, Control_c, 2, 11, 112
8, 251864, Control_c, 2, 11, 113
8, 251879, Note_on_c, 2, 65, 0
8, 251879, Note_on_c, 2, 62, 0
8, 251908, Control_c, 2, 11, 114
8, 251940, Note_on_c, 2, 69, 80
8, 251940, Note_on_c, 2, 65, 80
8, 251952, Control_c, 2, 11, 115
8, 251991, Note_on_c, 2, 69, 0
8, 251991, Note_on_c, 2, 65, 0
8, 251996, Control_c, 2, 11, 116
8, 252000, Note_on_c, 2, 69, 80
8, 252000, Note_on_c, 2, 65, 80
8, 252040, Control_c, 2, 11, 117
8, 252084, Control_c, 2, 11, 118
8, 252128, Control_c, 2, 11, 119
8, 252172, Control_c, 2, 11, 120
8, 252216, Control_c, 2, 11, 121
8, 252239, Note_on_c, 2, 69, 0
8, 252239, Note_on_c, 2, 65, 0
8, 252240, Note_on_c, 2, 67, 80
8, 252240, Note_on_c, 2, 64, 80
8, 252259, Note_on_c, 2, 67, 0
8, 252260, Note_on_c, 2, 69, 80
8, 252260, Control_c, 2, 11, 122
8, 252279, Note_on_c, 2, 69, 0
8, 252280, Note_on_c, 2, 67, 80
8, 252299, Note_on_c, 2, 67, 0
8, 252300, Note_on_c, 2, 69, 80
8, 252304, Control_c, 2, 11, 123
8, 252319, Note_on_c, 2, 69, 0
8, 252320, Note_on_c, 2, 67, 80
8, 252339, Note_on_c, 2, 67, 0
8, 252340, Note_on_c, 2, 69, 80
8, 252348, Control_c, 2, 11, 124
8, 252359, Note_on_c, 2, 69, 0
8, 252360, Note_on_c, 2, 67, 80
8, 252379, Note_on_c, 2, 67, 0
8, 252380, Note_on_c, 2, 69, 80
8, 252392, Control_c, 2, 11, 125
8, 252399, Note_on_c, 2, 69, 0
8, 252400, Note_on_c, 2, 67, 80
8, 252419, Note_on_c, 2, 67, 0
8, 252420, Note_on_c, 2, 69, 80
8, 252432, Note_on_c, 2, 69, 0
8, 252433, Note_on_c, 2, 67, 80
8, 252436, Control_c, 2, 11, 127
8, 252446, Note_on_c, 2, 67, 0
8, 252447, Note_on_c, 2, 65, 80
8, 252459, Note_on_c, 2, 65, 0
8, 252460, Note_on_c, 2, 67, 80
8, 252464, Note_on_c, 2, 64, 0
8, 252475, Note_on_c, 2, 67, 0
8, 252480, Note_on_c, 2, 62, 80
8, 252480, Note_on_c, 2, 65, 80
8, 252719, Note_on_c, 2, 62, 0
8, 252719, Note_on_c, 2, 65, 0
8, 252900, Note_on_c, 2, 62, 86
8, 252900, Note_on_c, 2, 65, 86
8, 252951, Note_on_c, 2, 62, 0
8, 252951, Note_on_c, 2, 65, 0
8, 252960, Note_on_c, 2, 62, 86
8, 252960, Note_on_c, 2, 64, 86
8, 253199, Note_on_c, 2, 62, 0
8, 253199, Note_on_c, 2, 64, 0
8, 253380, Note_on_c, 2, 64, 86
8, 253380, Note_on_c, 2, 69, 86
8, 253431, Note_on_c, 2, 64, 0
8, 253431, Note_on_c, 2, 69, 0
8, 253440, Note_on_c, 2, 65, 86
8, 253440, Note_on_c, 2, 62, 86
8, 253679, Note_on_c, 2, 65, 0
8, 253679, Note_on_c, 2, 62, 0
8, 253860, Note_on_c, 2, 62, 86
8, 253860, Note_on_c, 2, 65, 86
8, 253911, Note_on_c, 2, 62, 0
8, 253911, Note_on_c, 2, 65, 0
8, 253920, Note_on_c, 2, 64, 86
8, 253920, Note_on_c, 2, 62, 86
8, 254039, Note_on_c, 2, 64, 0
8, 254039, Note_on_c, 2, 62, 0
8, 254100, Note_on_c, 2, 64, 86
8, 254100, Note_on_c, 2, 62, 86
8, 254151, Note_on_c, 2, 64, 0
8, 254151, Note_on_c, 2, 62, 0
8, 254160, Note_on_c, 2, 64, 86
8, 254160, Note_on_c, 2, 61, 86
8, 254279, Note_on_c, 2, 64, 0
8, 254279, Note_on_c, 2, 61, 0
8, 254340, Note_on_c, 2, 69, 86
8, 254340, Note_on_c, 2, 64, 86
8, 254391, Note_on_c, 2, 69, 0
8, 254391, Note_on_c, 2, 64, 0
8, 254400, Note_on_c, 2, 57, 92
8, 254400, Note_on_c, 2, 66, 92
8, 254841, Note_on_c, 2, 57, 0
8, 254841, Note_on_c, 2, 66, 0
8, 254850, Note_on_c, 2, 66, 92
8, 254850, Note_on_c, 2, 57, 92
8, 254871, Note_on_c, 2, 66, 0
8, 254871, Note_on_c, 2, 57, 0
8, 254880, Note_on_c, 2, 57, 92
8, 254880, Note_on_c, 2, 66, 92
8, 255321, Note_on_c, 2, 57, 0
8, 255321, Note_on_c, 2, 66, 0
8, 255330, Note_on_c, 2, 66, 92
8, 255330, Note_on_c, 2, 57, 92
8, 255351, Note_on_c, 2, 66, 0
8, 255351, Note_on_c, 2, 57, 0
8, 255360, Note_on_c, 2, 68, 92
8, 255360, Note_on_c, 2, 65, 92
8, 255801, Note_on_c, 2, 68, 0
8, 255801, Note_on_c, 2, 65, 0
8, 255810, Note_on_c, 2, 68, 92
8, 255810, Note_on_c, 2, 65, 92
8, 255831, Note_on_c, 2, 68, 0
8, 255831, Note_on_c, 2, 65, 0
8, 255840, Note_on_c, 2, 69, 92
8, 255840, Note_on_c, 2, 64, 92
8, 256281, Note_on_c, 2, 69, 0
8, 256281, Note_on_c, 2, 64, 0
8, 256290, Note_on_c, 2, 64, 92
8, 256290, Note_on_c, 2, 76, 92
8, 256311, Note_on_c, 2, 64, 0
8, 256311, Note_on_c, 2, 76, 0
8, 256320, Note_on_c, 2, 78, 92
8, 256320, Note_on_c, 2, 66, 92
8, 256761, Note_on_c, 2, 78, 0
8, 256761, Note_on_c, 2, 66, 0
8, 256770, Note_on_c, 2, 78, 92
8, 256770, Note_on_c, 2, 66, 92
8, 256791, Note_on_c, 2, 78, 0
8, 256791, Note_on_c, 2, 66, 0
8, 256800, Note_on_c, 2, 78, 92
8, 256800, Note_on_c, 2, 66, 92
8, 257241, Note_on_c, 2, 78, 0
8, 257241, Note_on_c, 2, 66, 0
8, 257250, Note_on_c, 2, 78, 92
8, 257250, Note_on_c, 2, 66, 92
8, 257271, Note_on_c, 2, 78, 0
8, 257271, Note_on_c, 2, 66, 0
8, 257280, Note_on_c, 2, 68, 92
8, 257280, Note_on_c, 2, 80, 92
8, 257721, Note_on_c, 2, 68, 0
8, 257721, Note_on_c, 2, 80, 0
8, 257730, Note_on_c, 2, 68, 92
8, 257730, Note_on_c, 2, 80, 92
8, 257751, Note_on_c, 2, 68, 0
8, 257751, Note_on_c, 2, 80, 0
8, 257760, Note_on_c, 2, 81, 92
8, 257760, Note_on_c, 2, 69, 92
8, 258201, Note_on_c, 2, 81, 0
8, 258201, Note_on_c, 2, 69, 0
8, 258210, Note_on_c, 2, 62, 92
8, 258210, Note_on_c, 2, 74, 92
8, 258231, Note_on_c, 2, 62, 0
8, 258231, Note_on_c, 2, 74, 0
8, 258240, Note_on_c, 2, 81, 92
8, 258240, Note_on_c, 2, 69, 92
8, 258681, Note_on_c, 2, 81, 0
8, 258681, Note_on_c, 2, 69, 0
8, 258690, Note_on_c, 2, 77, 92
8, 258690, Note_on_c, 2, 65, 92
8, 258711, Note_on_c, 2, 77, 0
8, 258711, Note_on_c, 2, 65, 0
8, 258720, Note_on_c, 2, 74, 92
8, 258720, Note_on_c, 2, 86, 92
8, 258921, Note_on_c, 2, 74, 0
8, 258921, Note_on_c, 2, 86, 0
8, 258930, Note_on_c, 2, 69, 92
8, 258930, Note_on_c, 2, 81, 92
8, 258951, Note_on_c, 2, 69, 0
8, 258951, Note_on_c, 2, 81, 0
8, 258960, Note_on_c, 2, 77, 92
8, 258960, Note_on_c, 2, 65, 92
8, 259124, Note_on_c, 2, 77, 0
8, 259124, Note_on_c, 2, 65, 0
8, 259140, Note_on_c, 2, 81, 92
8, 259140, Note_on_c, 2, 69, 92
8, 259169, Note_on_c, 2, 81, 0
8, 259169, Note_on_c, 2, 69, 0
8, 259170, Note_on_c, 2, 65, 92
8, 259170, Note_on_c, 2, 77, 92
8, 259191, Note_on_c, 2, 65, 0
8, 259191, Note_on_c, 2, 77, 0
8, 259200, Note_on_c, 2, 62, 92
8, 259200, Note_on_c, 2, 74, 92
8, 259319, Note_on_c, 2, 62, 0
8, 259319, Note_on_c, 2, 74, 0
8, 259380, Note_on_c, 2, 69, 92
8, 259409, Note_on_c, 2, 69, 0
8, 259410, Note_on_c, 2, 65, 92
8, 259431, Note_on_c, 2, 65, 0
8, 259440, Note_on_c, 2, 62, 92
8, 259559, Note_on_c, 2, 62, 0
8, 259620, Note_on_c, 2, 74, 92
8, 259649, Note_on_c, 2, 74, 0
8, 259650, Note_on_c, 2, 69, 92
8, 259671, Note_on_c, 2, 69, 0
8, 259680, Note_on_c, 2, 65, 92
8, 259799, Note_on_c, 2, 65, 0
8, 259860, Note_on_c, 2, 77, 92
8, 259889, Note_on_c, 2, 77, 0
8, 259890, Note_on_c, 2, 74, 92
8, 259911, Note_on_c, 2, 74, 0
8, 259920, Note_on_c, 2, 69, 92
8, 260039, Note_on_c, 2, 69, 0
8, 260100, Note_on_c, 2, 81, 92
8, 260129, Note_on_c, 2, 81, 0
8, 260130, Note_on_c, 2, 77, 92
8, 260151, Note_on_c, 2, 77, 0
8, 260160, Note_on_c, 2, 74, 92
8, 260399, Note_on_c, 2, 74, 0
8, 260430, Note_on_c, 2, 62, 92
8, 260459, Note_on_c, 2, 62, 0
8, 260460, Note_on_c, 2, 64, 92
8, 260489, Note_on_c, 2, 64, 0
8, 260490, Note_on_c, 2, 65, 92
8, 260519, Note_on_c, 2, 65, 0
8, 260520, Note_on_c, 2, 67, 92
8, 260549, Note_on_c, 2, 67, 0
8, 260550, Note_on_c, 2, 69, 92
8, 260579, Note_on_c, 2, 69, 0
8, 260580, Note_on_c, 2, 71, 92
8, 260609, Note_on_c, 2, 71, 0
8, 260610, Note_on_c, 2, 73, 92
8, 260631, Note_on_c, 2, 73, 0
8, 260640, Note_on_c, 2, 74, 104
8, 260700, Control_c, 2, 11, 107
8, 260879, Note_on_c, 2, 74, 0
8, 260880, Control_c, 2, 11, 127
8, 260910, Note_on_c, 2, 74, 92
8, 260910, Note_on_c, 2, 62, 92
8, 260939, Note_on_c, 2, 74, 0
8, 260939, Note_on_c, 2, 62, 0
8, 260940, Note_on_c, 2, 64, 92
8, 260940, Note_on_c, 2, 76, 92
8, 260969, Note_on_c, 2, 64, 0
8, 260969, Note_on_c, 2, 76, 0
8, 260970, Note_on_c, 2, 77, 92
8, 260970, Note_on_c, 2, 65, 92
8, 260999, Note_on_c, 2, 77, 0
8, 260999, Note_on_c, 2, 65, 0
8, 261000, Note_on_c, 2, 67, 92
8, 261000, Note_on_c, 2, 79, 92
8, 261029, Note_on_c, 2, 67, 0
8, 261029, Note_on_c, 2, 79, 0
8, 261030, Note_on_c, 2, 69, 92
8, 261030, Note_on_c, 2, 81, 92
8, 261059, Note_on_c, 2, 69, 0
8, 261059, Note_on_c, 2, 81, 0
8, 261060, Note_on_c, 2, 71, 92
8, 261060, Note_on_c, 2, 83, 92
8, 261089, Note_on_c, 2, 71, 0
8, 261089, Note_on_c, 2, 83, 0
8, 261090, Note_on_c, 2, 73, 92
8, 261090, Note_on_c, 2, 85, 92
8, 261111, Note_on_c, 2, 73, 0
8, 261111, Note_on_c, 2, 85, 0
8, 261120, Note_on_c, 2, 86, 92
8, 261120, Note_on_c, 2, 74, 92
8, 261411, Note_on_c, 2, 86, 0
8, 261411, Note_on_c, 2, 74, 0
8, 261420, Note_on_c, 2, 77, 92
8, 261420, Note_on_c, 2, 65, 92
8, 261464, Note_on_c, 2, 77, 0
8, 261464, Note_on_c, 2, 65, 0
8, 261480, Note_on_c, 2, 64, 92
8, 261480, Note_on_c, 2, 76, 92
8, 261524, Note_on_c, 2, 64, 0
8, 261524, Note_on_c, 2, 76, 0
8, 261540, Note_on_c, 2, 74, 92
8, 261540, Note_on_c, 2, 62, 92
8, 261584, Note_on_c, 2, 74, 0
8, 261584, Note_on_c, 2, 62, 0
8, 261600, Note_on_c, 2, 81, 92
8, 261600, Note_on_c, 2, 69, 92
8, 261689, Note_on_c, 2, 81, 0
8, 261689, Note_on_c, 2, 69, 0
8, 261720, Note_on_c, 2, 67, 92
8, 261720, Note_on_c, 2, 79, 92
8, 261809, Note_on_c, 2, 67, 0
8, 261809, Note_on_c, 2, 79, 0
8, 261840, Note_on_c, 2, 76, 92
8, 261840, Note_on_c, 2, 64, 92
8, 261929, Note_on_c, 2, 76, 0
8, 261929, Note_on_c, 2, 64, 0
8, 261960, Note_on_c, 2, 81, 92
8, 261960, Note_on_c, 2, 69, 92
8, 262049, Note_on_c, 2, 81, 0
8, 262049, Note_on_c, 2, 69, 0
8, 262080, Note_on_c, 2, 62, 92
8, 262080, Note_on_c, 2, 74, 92
8, 262199, Note_on_c, 2, 62, 0
8, 262199, Note_on_c, 2, 74, 0
8, 262199, End_track
9, 0, Start_track
9, 0, Title_t, "Bassoon"
9, 0, MIDI_port, 0
9, 0, Program_c, 3, 70
9, 0, Control_c, 3, 7, 96
9, 0, Control_c, 3, 10, 65
9, 6222, Control_c, 3, 11, 77
9, 6240, Note_on_c, 3, 45, 92
9, 6258, Control_c, 3, 11, 79
9, 6295, Control_c, 3, 11, 80
9, 6331, Control_c, 3, 11, 81
9, 6368, Control_c, 3, 11, 82
9, 6404, Control_c, 3, 11, 84
9, 6441, Control_c, 3, 11, 85
9, 6477, Control_c, 3, 11, 86
9, 6513, Control_c, 3, 11, 87
9, 6550, Control_c, 3, 11, 89
9, 6586, Control_c, 3, 11, 90
9, 6623, Control_c, 3, 11, 91
9, 6659, Control_c, 3, 11, 92
9, 6696, Control_c, 3, 11, 94
9, 6732, Control_c, 3, 11, 95
9, 6769, Control_c, 3, 11, 96
9, 6805, Control_c, 3, 11, 97
9, 6839, Note_on_c, 3, 45, 0
9, 6840, Note_on_c, 3, 38, 92
9, 6842, Control_c, 3, 11, 99
9, 6878, Control_c, 3, 11, 100
9, 6914, Control_c, 3, 11, 101
9, 6951, Control_c, 3, 11, 102
9, 6987, Control_c, 3, 11, 104
9, 7024, Control_c, 3, 11, 105
9, 7060, Control_c, 3, 11, 106
9, 7097, Control_c, 3, 11, 107
9, 7133, Control_c, 3, 11, 109
9, 7170, Control_c, 3, 11, 110
9, 7206, Control_c, 3, 11, 111
9, 7243, Control_c, 3, 11, 112
9, 7279, Control_c, 3, 11, 114
9, 7315, Control_c, 3, 11, 115
9, 7352, Control_c, 3, 11, 116
9, 7388, Control_c, 3, 11, 117
9, 7425, Control_c, 3, 11, 119
9, 7461, Control_c, 3, 11, 120
9, 7498, Control_c, 3, 11, 121
9, 7534, Control_c, 3, 11, 122
9, 7571, Control_c, 3, 11, 124
9, 7607, Control_c, 3, 11, 125
9, 7641, Note_on_c, 3, 38, 0
9, 7644, Control_c, 3, 11, 127
9, 7650, Note_on_c, 3, 62, 92
9, 7671, Note_on_c, 3, 62, 0
9, 7680, Note_on_c, 3, 57, 92
9, 8121, Note_on_c, 3, 57, 0
9, 8130, Note_on_c, 3, 53, 92
9, 8151, Note_on_c, 3, 53, 0
9, 8160, Note_on_c, 3, 50, 92
9, 8361, Note_on_c, 3, 50, 0
9, 8370, Note_on_c, 3, 45, 92
9, 8391, Note_on_c, 3, 45, 0
9, 8400, Note_on_c, 3, 41, 92
9, 8579, Note_on_c, 3, 41, 0
9, 8580, Note_on_c, 3, 45, 92
9, 8609, Note_on_c, 3, 45, 0
9, 8610, Note_on_c, 3, 41, 92
9, 8631, Note_on_c, 3, 41, 0
9, 8640, Note_on_c, 3, 38, 92
9, 8924, Note_on_c, 3, 38, 0
9, 8940, Note_on_c, 3, 53, 92
9, 8984, Note_on_c, 3, 53, 0
9, 9000, Note_on_c, 3, 52, 92
9, 9044, Note_on_c, 3, 52, 0
9, 9060, Note_on_c, 3, 50, 92
9, 9104, Note_on_c, 3, 50, 0
9, 9120, Note_on_c, 3, 57, 92
9, 9120, Note_on_c, 3, 45, 92
9, 9209, Note_on_c, 3, 57, 0
9, 9209, Note_on_c, 3, 45, 0
9, 9240, Note_on_c, 3, 43, 92
9, 9240, Note_on_c, 3, 55, 92
9, 9329, Note_on_c, 3, 43, 0
9, 9329, Note_on_c, 3, 55, 0
9, 9360, Note_on_c, 3, 52, 92
9, 9360, Note_on_c, 3, 40, 92
9, 9449, Note_on_c, 3, 52, 0
9, 9449, Note_on_c, 3, 40, 0
9, 9480, Note_on_c, 3, 57, 92
9, 9480, Note_on_c, 3, 45, 92
9, 9569, Note_on_c, 3, 57, 0
9, 9569, Note_on_c, 3, 45, 0
9, 9600, Note_on_c, 3, 50, 104
9, 9600, Note_on_c, 3, 62, 104
9, 9779, Note_on_c, 3, 50, 0
9, 9779, Note_on_c, 3, 62, 0
9, 9840, Note_on_c, 3, 57, 92
9, 9840, Note_on_c, 3, 45, 92
9, 10019, Note_on_c, 3, 57, 0
9, 10019, Note_on_c, 3, 45, 0
9, 10080, Note_on_c, 3, 38, 92
9, 10080, Note_on_c, 3, 50, 92
9, 10259, Note_on_c, 3, 38, 0
9, 10259, Note_on_c, 3, 50, 0
9, 10560, Note_on_c, 3, 55, 92
9, 10739, Note_on_c, 3, 55, 0
9, 10800, Note_on_c, 3, 57, 92
9, 10800, Note_on_c, 3, 54, 92
9, 10979, Note_on_c, 3, 57, 0
9, 10979, Note_on_c, 3, 54, 0
9, 11040, Note_on_c, 3, 55, 92
9, 11040, Note_on_c, 3, 58, 92
9, 11864, Note_on_c, 3, 55, 0
9, 11864, Note_on_c, 3, 58, 0
9, 11880, Note_on_c, 3, 57, 92
9, 11984, Note_on_c, 3, 57, 0
9, 12000, Note_on_c, 3, 55, 92
9, 12104, Note_on_c, 3, 55, 0
9, 12120, Note_on_c, 3, 65, 92
9, 12120, Note_on_c, 3, 53, 92
9, 12224, Note_on_c, 3, 65, 0
9, 12224, Note_on_c, 3, 53, 0
9, 12240, Note_on_c, 3, 51, 92
9, 12240, Note_on_c, 3, 63, 92
9, 12344, Note_on_c, 3, 51, 0
9, 12344, Note_on_c, 3, 63, 0
9, 12360, Note_on_c, 3, 62, 92
9, 12449, Note_on_c, 3, 62, 0
9, 12480, Note_on_c, 3, 61, 104
9, 12599, Note_on_c, 3, 61, 0
9, 12960, Note_on_c, 3, 55, 44
9, 12960, Note_on_c, 3, 52, 44
9, 13199, Note_on_c, 3, 55, 0
9, 13199, Note_on_c, 3, 52, 0
9, 13200, Note_on_c, 3, 49, 44
9, 13200, Note_on_c, 3, 52, 44
9, 13409, Note_on_c, 3, 49, 0
9, 13409, Note_on_c, 3, 52, 0
9, 13410, Note_on_c, 3, 53, 44
9, 13410, Note_on_c, 3, 50, 44
9, 13431, Note_on_c, 3, 53, 0
9, 13431, Note_on_c, 3, 50, 0
9, 13440, Note_on_c, 3, 50, 44
9, 13440, Note_on_c, 3, 53, 44
9, 13559, Note_on_c, 3, 50, 0
9, 13559, Note_on_c, 3, 53, 0
9, 13920, Note_on_c, 3, 57, 44
9, 13920, Note_on_c, 3, 53, 44
9, 14159, Note_on_c, 3, 57, 0
9, 14159, Note_on_c, 3, 53, 0
9, 14160, Note_on_c, 3, 50, 44
9, 14160, Note_on_c, 3, 53, 44
9, 14369, Note_on_c, 3, 50, 0
9, 14369, Note_on_c, 3, 53, 0
9, 14370, Note_on_c, 3, 52, 44
9, 14370, Note_on_c, 3, 55, 44
9, 14391, Note_on_c, 3, 52, 0
9, 14391, Note_on_c, 3, 55, 0
9, 14400, Note_on_c, 3, 52, 80
9, 14400, Note_on_c, 3, 55, 80
9, 14519, Note_on_c, 3, 52, 0
9, 14519, Note_on_c, 3, 55, 0
9, 14640, Note_on_c, 3, 55, 92
9, 14640, Note_on_c, 3, 43, 92
9, 14700, Control_c, 3, 11, 109
9, 15104, Note_on_c, 3, 55, 0
9, 15104, Note_on_c, 3, 43, 0
9, 15118, Control_c, 3, 11, 127
9, 15120, Note_on_c, 3, 44, 92
9, 15120, Note_on_c, 3, 56, 92
9, 15180, Control_c, 3, 11, 109
9, 15584, Note_on_c, 3, 44, 0
9, 15584, Note_on_c, 3, 56, 0
9, 15598, Control_c, 3, 11, 127
9, 15600, Note_on_c, 3, 45, 92
9, 15600, Note_on_c, 3, 57, 92
9, 15660, Control_c, 3, 11, 109
9, 16064, Note_on_c, 3, 45, 0
9, 16064, Note_on_c, 3, 57, 0
9, 16078, Control_c, 3, 11, 127
9, 16080, Note_on_c, 3, 45, 80
9, 16199, Note_on_c, 3, 45, 0
9, 16320, Control_c, 3, 11, 127
9, 16320, Note_on_c, 3, 50, 80
9, 16347, Control_c, 3, 11, 124
9, 16373, Control_c, 3, 11, 119
9, 16400, Control_c, 3, 11, 115
9, 16427, Control_c, 3, 11, 110
9, 16453, Control_c, 3, 11, 106
9, 16480, Control_c, 3, 11, 101
9, 16507, Control_c, 3, 11, 97
9, 16533, Control_c, 3, 11, 92
9, 16560, Control_c, 3, 11, 89
9, 16587, Control_c, 3, 11, 84
9, 16613, Control_c, 3, 11, 80
9, 16640, Control_c, 3, 11, 75
9, 16667, Control_c, 3, 11, 71
9, 16679, Note_on_c, 3, 50, 0
9, 16693, Control_c, 3, 11, 66
9, 16720, Control_c, 3, 11, 62
9, 16747, Control_c, 3, 11, 57
9, 16773, Control_c, 3, 11, 54
9, 16800, Control_c, 3, 11, 49
9, 22542, Control_c, 3, 11, 77
9, 22560, Note_on_c, 3, 38, 92
9, 22578, Control_c, 3, 11, 79
9, 22615, Control_c, 3, 11, 80
9, 22651, Control_c, 3, 11, 81
9, 22688, Control_c, 3, 11, 82
9, 22724, Control_c, 3, 11, 84
9, 22761, Control_c, 3, 11, 85
9, 22797, Control_c, 3, 11, 86
9, 22833, Control_c, 3, 11, 87
9, 22870, Control_c, 3, 11, 89
9, 22906, Control_c, 3, 11, 90
9, 22943, Control_c, 3, 11, 91
9, 22979, Control_c, 3, 11, 92
9, 23016, Control_c, 3, 11, 94
9, 23052, Control_c, 3, 11, 95
9, 23089, Control_c, 3, 11, 96
9, 23125, Control_c, 3, 11, 97
9, 23159, Note_on_c, 3, 38, 0
9, 23160, Note_on_c, 3, 34, 92
9, 23162, Control_c, 3, 11, 99
9, 23198, Control_c, 3, 11, 100
9, 23234, Control_c, 3, 11, 101
9, 23271, Control_c, 3, 11, 102
9, 23307, Control_c, 3, 11, 104
9, 23344, Control_c, 3, 11, 105
9, 23380, Control_c, 3, 11, 106
9, 23417, Control_c, 3, 11, 107
9, 23453, Control_c, 3, 11, 109
9, 23490, Control_c, 3, 11, 110
9, 23526, Control_c, 3, 11, 111
9, 23563, Control_c, 3, 11, 112
9, 23599, Control_c, 3, 11, 114
9, 23635, Control_c, 3, 11, 115
9, 23672, Control_c, 3, 11, 116
9, 23708, Control_c, 3, 11, 117
9, 23745, Control_c, 3, 11, 119
9, 23781, Control_c, 3, 11, 120
9, 23818, Control_c, 3, 11, 121
9, 23854, Control_c, 3, 11, 122
9, 23891, Control_c, 3, 11, 124
9, 23927, Control_c, 3, 11, 125
9, 23961, Note_on_c, 3, 34, 0
9, 23964, Control_c, 3, 11, 127
9, 23970, Note_on_c, 3, 58, 92
9, 23991, Note_on_c, 3, 58, 0
9, 24000, Note_on_c, 3, 53, 92
9, 24441, Note_on_c, 3, 53, 0
9, 24450, Note_on_c, 3, 50, 92
9, 24471, Note_on_c, 3, 50, 0
9, 24480, Note_on_c, 3, 46, 92
9, 24681, Note_on_c, 3, 46, 0
9, 24690, Note_on_c, 3, 41, 92
9, 24711, Note_on_c, 3, 41, 0
9, 24720, Note_on_c, 3, 38, 92
9, 24891, Note_on_c, 3, 38, 0
9, 24900, Note_on_c, 3, 41, 92
9, 24900, Note_on_c, 3, 53, 92
9, 24929, Note_on_c, 3, 41, 0
9, 24929, Note_on_c, 3, 53, 0
9, 24930, Note_on_c, 3, 50, 92
9, 24930, Note_on_c, 3, 38, 92
9, 24951, Note_on_c, 3, 50, 0
9, 24951, Note_on_c, 3, 38, 0
9, 24960, Note_on_c, 3, 46, 92
9, 24960, Note_on_c, 3, 34, 92
9, 25244, Note_on_c, 3, 46, 0
9, 25244, Note_on_c, 3, 34, 0
9, 25260, Note_on_c, 3, 38, 92
9, 25260, Note_on_c, 3, 50, 92
9, 25304, Note_on_c, 3, 38, 0
9, 25304, Note_on_c, 3, 50, 0
9, 25320, Note_on_c, 3, 36, 92
9, 25320, Note_on_c, 3, 48, 92
9, 25364, Note_on_c, 3, 36, 0
9, 25364, Note_on_c, 3, 48, 0
9, 25380, Note_on_c, 3, 46, 92
9, 25380, Note_on_c, 3, 34, 92
9, 25424, Note_on_c, 3, 46, 0
9, 25424, Note_on_c, 3, 34, 0
9, 25440, Note_on_c, 3, 53, 92
9, 25440, Note_on_c, 3, 41, 92
9, 25529, Note_on_c, 3, 53, 0
9, 25529, Note_on_c, 3, 41, 0
9, 25560, Note_on_c, 3, 39, 92
9, 25560, Note_on_c, 3, 51, 92
9, 25649, Note_on_c, 3, 39, 0
9, 25649, Note_on_c, 3, 51, 0
9, 25680, Note_on_c, 3, 36, 92
9, 25680, Note_on_c, 3, 48, 92
9, 25769, Note_on_c, 3, 36, 0
9, 25769, Note_on_c, 3, 48, 0
9, 25800, Note_on_c, 3, 41, 92
9, 25800, Note_on_c, 3, 53, 92
9, 25889, Note_on_c, 3, 41, 0
9, 25889, Note_on_c, 3, 53, 0
9, 25920, Note_on_c, 3, 50, 92
9, 25920, Note_on_c, 3, 38, 92
9, 26039, Note_on_c, 3, 50, 0
9, 26039, Note_on_c, 3, 38, 0
9, 26460, Note_on_c, 3, 53, 92
9, 26460, Note_on_c, 3, 41, 92
9, 26504, Note_on_c, 3, 53, 0
9, 26504, Note_on_c, 3, 41, 0
9, 26520, Note_on_c, 3, 39, 92
9, 26520, Note_on_c, 3, 51, 92
9, 26564, Note_on_c, 3, 39, 0
9, 26564, Note_on_c, 3, 51, 0
9, 26580, Note_on_c, 3, 50, 92
9, 26580, Note_on_c, 3, 38, 92
9, 26624, Note_on_c, 3, 50, 0
9, 26624, Note_on_c, 3, 38, 0
9, 26640, Note_on_c, 3, 58, 92
9, 26640, Note_on_c, 3, 46, 92
9, 26759, Note_on_c, 3, 58, 0
9, 26759, Note_on_c, 3, 46, 0
9, 26880, Note_on_c, 3, 40, 104
9, 26880, Note_on_c, 3, 52, 104
9, 26999, Note_on_c, 3, 40, 0
9, 26999, Note_on_c, 3, 52, 0
9, 27420, Note_on_c, 3, 55, 92
9, 27420, Note_on_c, 3, 43, 92
9, 27464, Note_on_c, 3, 55, 0
9, 27464, Note_on_c, 3, 43, 0
9, 27480, Note_on_c, 3, 41, 92
9, 27480, Note_on_c, 3, 53, 92
9, 27524, Note_on_c, 3, 41, 0
9, 27524, Note_on_c, 3, 53, 0
9, 27540, Note_on_c, 3, 52, 92
9, 27540, Note_on_c, 3, 40, 92
9, 27584, Note_on_c, 3, 52, 0
9, 27584, Note_on_c, 3, 40, 0
9, 27600, Note_on_c, 3, 49, 92
9, 27600, Note_on_c, 3, 61, 92
9, 27719, Note_on_c, 3, 49, 0
9, 27719, Note_on_c, 3, 61, 0
9, 27840, Note_on_c, 3, 41, 104
9, 27840, Note_on_c, 3, 53, 104
9, 27959, Note_on_c, 3, 41, 0
9, 27959, Note_on_c, 3, 53, 0
9, 28380, Note_on_c, 3, 57, 92
9, 28380, Note_on_c, 3, 45, 92
9, 28424, Note_on_c, 3, 57, 0
9, 28424, Note_on_c, 3, 45, 0
9, 28440, Note_on_c, 3, 43, 92
9, 28440, Note_on_c, 3, 55, 92
9, 28484, Note_on_c, 3, 43, 0
9, 28484, Note_on_c, 3, 55, 0
9, 28500, Note_on_c, 3, 53, 92
9, 28500, Note_on_c, 3, 41, 92
9, 28544, Note_on_c, 3, 53, 0
9, 28544, Note_on_c, 3, 41, 0
9, 28560, Note_on_c, 3, 62, 92
9, 28560, Note_on_c, 3, 50, 92
9, 28679, Note_on_c, 3, 62, 0
9, 28679, Note_on_c, 3, 50, 0
9, 28860, Note_on_c, 3, 57, 92
9, 28860, Note_on_c, 3, 45, 92
9, 28904, Note_on_c, 3, 57, 0
9, 28904, Note_on_c, 3, 45, 0
9, 28920, Note_on_c, 3, 55, 92
9, 28920, Note_on_c, 3, 43, 92
9, 28964, Note_on_c, 3, 55, 0
9, 28964, Note_on_c, 3, 43, 0
9, 28980, Note_on_c, 3, 54, 92
9, 28980, Note_on_c, 3, 42, 92
9, 29024, Note_on_c, 3, 54, 0
9, 29024, Note_on_c, 3, 42, 0
9, 29040, Note_on_c, 3, 62, 104
9, 29040, Note_on_c, 3, 50, 104
9, 29084, Note_on_c, 3, 62, 0
9, 29084, Note_on_c, 3, 50, 0
9, 29100, Note_on_c, 3, 58, 92
9, 29100, Note_on_c, 3, 46, 92
9, 29144, Note_on_c, 3, 58, 0
9, 29144, Note_on_c, 3, 46, 0
9, 29160, Note_on_c, 3, 45, 92
9, 29160, Note_on_c, 3, 57, 92
9, 29204, Note_on_c, 3, 45, 0
9, 29204, Note_on_c, 3, 57, 0
9, 29220, Note_on_c, 3, 55, 92
9, 29220, Note_on_c, 3, 43, 92
9, 29264, Note_on_c, 3, 55, 0
9, 29264, Note_on_c, 3, 43, 0
9, 29280, Note_on_c, 3, 50, 104
9, 29280, Note_on_c, 3, 62, 104
9, 29324, Note_on_c, 3, 50, 0
9, 29324, Note_on_c, 3, 62, 0
9, 29340, Note_on_c, 3, 46, 92
9, 29384, Note_on_c, 3, 46, 0
9, 29400, Note_on_c, 3, 45, 92
9, 29444, Note_on_c, 3, 45, 0
9, 29460, Note_on_c, 3, 43, 92
9, 29504, Note_on_c, 3, 43, 0
9, 29520, Note_on_c, 3, 44, 104
9, 29564, Note_on_c, 3, 44, 0
9, 29580, Note_on_c, 3, 59, 92
9, 29580, Note_on_c, 3, 56, 92
9, 29624, Note_on_c, 3, 59, 0
9, 29624, Note_on_c, 3, 56, 0
9, 29640, Note_on_c, 3, 56, 92
9, 29640, Note_on_c, 3, 59, 92
9, 29684, Note_on_c, 3, 56, 0
9, 29684, Note_on_c, 3, 59, 0
9, 29700, Note_on_c, 3, 59, 92
9, 29700, Note_on_c, 3, 56, 92
9, 29744, Note_on_c, 3, 59, 0
9, 29744, Note_on_c, 3, 56, 0
9, 29760, Note_on_c, 3, 57, 104
9, 29760, Note_on_c, 3, 45, 104
9, 29820, Control_c, 3, 11, 109
9, 30824, Note_on_c, 3, 57, 0
9, 30824, Note_on_c, 3, 45, 0
9, 30838, Control_c, 3, 11, 127
9, 30840, Note_on_c, 3, 57, 92
9, 30840, Note_on_c, 3, 45, 92
9, 30929, Note_on_c, 3, 57, 0
9, 30929, Note_on_c, 3, 45, 0
9, 30960, Note_on_c, 3, 45, 92
9, 30960, Note_on_c, 3, 57, 92
9, 31049, Note_on_c, 3, 45, 0
9, 31049, Note_on_c, 3, 57, 0
9, 31080, Note_on_c, 3, 45, 92
9, 31080, Note_on_c, 3, 57, 92
9, 31169, Note_on_c, 3, 45, 0
9, 31169, Note_on_c, 3, 57, 0
9, 31200, Note_on_c, 3, 45, 104
9, 31200, Note_on_c, 3, 57, 104
9, 31379, Note_on_c, 3, 45, 0
9, 31379, Note_on_c, 3, 57, 0
9, 31440, Note_on_c, 3, 57, 104
9, 31440, Note_on_c, 3, 45, 104
9, 31619, Note_on_c, 3, 57, 0
9, 31619, Note_on_c, 3, 45, 0
9, 31680, Note_on_c, 3, 57, 104
9, 31680, Note_on_c, 3, 45, 104
9, 31740, Control_c, 3, 11, 107
9, 32144, Note_on_c, 3, 57, 0
9, 32144, Note_on_c, 3, 45, 0
9, 32160, Note_on_c, 3, 55, 104
9, 32160, Note_on_c, 3, 43, 104
9, 32249, Note_on_c, 3, 55, 0
9, 32249, Note_on_c, 3, 43, 0
9, 32280, Note_on_c, 3, 53, 104
9, 32280, Note_on_c, 3, 41, 104
9, 32369, Note_on_c, 3, 53, 0
9, 32369, Note_on_c, 3, 41, 0
9, 32400, Note_on_c, 3, 40, 104
9, 32400, Note_on_c, 3, 52, 104
9, 32489, Note_on_c, 3, 40, 0
9, 32489, Note_on_c, 3, 52, 0
9, 32520, Note_on_c, 3, 50, 104
9, 32520, Note_on_c, 3, 38, 104
9, 32609, Note_on_c, 3, 50, 0
9, 32609, Note_on_c, 3, 38, 0
9, 32640, Note_on_c, 3, 49, 104
9, 32729, Note_on_c, 3, 49, 0
9, 32760, Note_on_c, 3, 38, 104
9, 32760, Note_on_c, 3, 50, 104
9, 32849, Note_on_c, 3, 38, 0
9, 32849, Note_on_c, 3, 50, 0
9, 32880, Note_on_c, 3, 52, 104
9, 32880, Note_on_c, 3, 40, 104
9, 32969, Note_on_c, 3, 52, 0
9, 32969, Note_on_c, 3, 40, 0
9, 33000, Note_on_c, 3, 41, 104
9, 33000, Note_on_c, 3, 53, 104
9, 33089, Note_on_c, 3, 41, 0
9, 33089, Note_on_c, 3, 53, 0
9, 33120, Note_on_c, 3, 55, 104
9, 33120, Note_on_c, 3, 43, 104
9, 33299, Note_on_c, 3, 55, 0
9, 33299, Note_on_c, 3, 43, 0
9, 33360, Note_on_c, 3, 53, 104
9, 33360, Note_on_c, 3, 41, 104
9, 33539, Note_on_c, 3, 53, 0
9, 33539, Note_on_c, 3, 41, 0
9, 33598, Control_c, 3, 11, 127
9, 33600, Note_on_c, 3, 67, 104
9, 33600, Note_on_c, 3, 55, 104
9, 33779, Note_on_c, 3, 67, 0
9, 33779, Note_on_c, 3, 55, 0
9, 33840, Note_on_c, 3, 53, 104
9, 33840, Note_on_c, 3, 65, 104
9, 34019, Note_on_c, 3, 53, 0
9, 34019, Note_on_c, 3, 65, 0
9, 34080, Note_on_c, 3, 64, 104
9, 34080, Note_on_c, 3, 52, 104
9, 34259, Note_on_c, 3, 64, 0
9, 34259, Note_on_c, 3, 52, 0
9, 34320, Note_on_c, 3, 54, 104
9, 34499, Note_on_c, 3, 54, 0
9, 34560, Note_on_c, 3, 60, 92
9, 34560, Note_on_c, 3, 57, 92
9, 34560, Control_c, 3, 11, 127
9, 34587, Control_c, 3, 11, 123
9, 34613, Control_c, 3, 11, 118
9, 34640, Control_c, 3, 11, 114
9, 34667, Control_c, 3, 11, 109
9, 34693, Control_c, 3, 11, 105
9, 34720, Control_c, 3, 11, 100
9, 34739, Note_on_c, 3, 60, 0
9, 34739, Note_on_c, 3, 57, 0
9, 34747, Control_c, 3, 11, 96
9, 34773, Control_c, 3, 11, 91
9, 34800, Note_on_c, 3, 57, 92
9, 34800, Note_on_c, 3, 60, 92
9, 34800, Control_c, 3, 11, 87
9, 34827, Control_c, 3, 11, 83
9, 34853, Control_c, 3, 11, 78
9, 34880, Control_c, 3, 11, 74
9, 34907, Control_c, 3, 11, 69
9, 34933, Control_c, 3, 11, 65
9, 34960, Control_c, 3, 11, 60
9, 34979, Note_on_c, 3, 57, 0
9, 34979, Note_on_c, 3, 60, 0
9, 35038, Control_c, 3, 11, 127
9, 35040, Note_on_c, 3, 60, 40
9, 35040, Note_on_c, 3, 63, 40
9, 35399, Note_on_c, 3, 60, 0
9, 35399, Note_on_c, 3, 63, 0
9, 35400, Note_on_c, 3, 65, 40
9, 35400, Note_on_c, 3, 62, 40
9, 35459, Note_on_c, 3, 65, 0
9, 35459, Note_on_c, 3, 62, 0
9, 35460, Note_on_c, 3, 67, 40
9, 35460, Note_on_c, 3, 63, 40
9, 35511, Note_on_c, 3, 67, 0
9, 35511, Note_on_c, 3, 63, 0
9, 35520, Note_on_c, 3, 67, 40
9, 35520, Note_on_c, 3, 63, 40
9, 35639, Note_on_c, 3, 67, 0
9, 35639, Note_on_c, 3, 63, 0
9, 35640, Note_on_c, 3, 62, 40
9, 35640, Note_on_c, 3, 65, 40
9, 35699, Note_on_c, 3, 62, 0
9, 35699, Note_on_c, 3, 65, 0
9, 35700, Note_on_c, 3, 63, 40
9, 35700, Note_on_c, 3, 60, 40
9, 35751, Note_on_c, 3, 63, 0
9, 35751, Note_on_c, 3, 60, 0
9, 35760, Note_on_c, 3, 60, 40
9, 35760, Note_on_c, 3, 63, 40
9, 35879, Note_on_c, 3, 60, 0
9, 35879, Note_on_c, 3, 63, 0
9, 35880, Note_on_c, 3, 62, 40
9, 35880, Note_on_c, 3, 58, 40
9, 35939, Note_on_c, 3, 62, 0
9, 35939, Note_on_c, 3, 58, 0
9, 35940, Note_on_c, 3, 60, 40
9, 35940, Note_on_c, 3, 57, 40
9, 35991, Note_on_c, 3, 60, 0
9, 35991, Note_on_c, 3, 57, 0
9, 36000, Note_on_c, 3, 53, 40
9, 36000, Note_on_c, 3, 60, 40
9, 36119, Note_on_c, 3, 60, 0
9, 36120, Note_on_c, 3, 58, 40
9, 36239, Note_on_c, 3, 53, 0
9, 36239, Note_on_c, 3, 58, 0
9, 36960, Note_on_c, 3, 63, 40
9, 36960, Note_on_c, 3, 60, 40
9, 37319, Note_on_c, 3, 63, 0
9, 37319, Note_on_c, 3, 60, 0
9, 37320, Note_on_c, 3, 62, 40
9, 37320, Note_on_c, 3, 65, 40
9, 37379, Note_on_c, 3, 62, 0
9, 37379, Note_on_c, 3, 65, 0
9, 37380, Note_on_c, 3, 67, 40
9, 37380, Note_on_c, 3, 63, 40
9, 37431, Note_on_c, 3, 67, 0
9, 37431, Note_on_c, 3, 63, 0
9, 37440, Note_on_c, 3, 67, 40
9, 37440, Note_on_c, 3, 63, 40
9, 37559, Note_on_c, 3, 67, 0
9, 37559, Note_on_c, 3, 63, 0
9, 37560, Note_on_c, 3, 65, 40
9, 37560, Note_on_c, 3, 62, 40
9, 37619, Note_on_c, 3, 65, 0
9, 37619, Note_on_c, 3, 62, 0
9, 37620, Note_on_c, 3, 60, 40
9, 37620, Note_on_c, 3, 63, 40
9, 37671, Note_on_c, 3, 60, 0
9, 37671, Note_on_c, 3, 63, 0
9, 37680, Note_on_c, 3, 60, 40
9, 37680, Note_on_c, 3, 63, 40
9, 37799, Note_on_c, 3, 60, 0
9, 37799, Note_on_c, 3, 63, 0
9, 37800, Note_on_c, 3, 62, 40
9, 37800, Note_on_c, 3, 53, 40
9, 37859, Note_on_c, 3, 62, 0
9, 37860, Note_on_c, 3, 60, 40
9, 37904, Note_on_c, 3, 53, 0
9, 37911, Note_on_c, 3, 60, 0
9, 37920, Note_on_c, 3, 53, 44
9, 37920, Note_on_c, 3, 62, 44
9, 38159, Note_on_c, 3, 53, 0
9, 38264, Note_on_c, 3, 62, 0
9, 38280, Note_on_c, 3, 67, 50
9, 38384, Note_on_c, 3, 67, 0
9, 38400, Note_on_c, 3, 65, 44
9, 38639, Note_on_c, 3, 65, 0
9, 38880, Note_on_c, 3, 57, 44
9, 39224, Note_on_c, 3, 57, 0
9, 39240, Note_on_c, 3, 63, 50
9, 39344, Note_on_c, 3, 63, 0
9, 39360, Note_on_c, 3, 60, 44
9, 39599, Note_on_c, 3, 60, 0
9, 39840, Control_c, 3, 11, 87
9, 39960, Note_on_c, 3, 50, 68
9, 39983, Control_c, 3, 11, 88
9, 40007, Control_c, 3, 11, 89
9, 40030, Control_c, 3, 11, 90
9, 40053, Control_c, 3, 11, 91
9, 40077, Control_c, 3, 11, 93
9, 40100, Control_c, 3, 11, 94
9, 40123, Control_c, 3, 11, 95
9, 40147, Control_c, 3, 11, 96
9, 40170, Control_c, 3, 11, 97
9, 40193, Control_c, 3, 11, 98
9, 40199, Note_on_c, 3, 50, 0
9, 40200, Note_on_c, 3, 55, 68
9, 40217, Control_c, 3, 11, 99
9, 40240, Control_c, 3, 11, 100
9, 40259, Note_on_c, 3, 55, 0
9, 40260, Note_on_c, 3, 53, 68
9, 40263, Control_c, 3, 11, 101
9, 40287, Control_c, 3, 11, 103
9, 40310, Control_c, 3, 11, 104
9, 40319, Note_on_c, 3, 53, 0
9, 40333, Control_c, 3, 11, 105
9, 40357, Control_c, 3, 11, 106
9, 40380, Control_c, 3, 11, 107
9, 40403, Control_c, 3, 11, 108
9, 40427, Control_c, 3, 11, 109
9, 40440, Note_on_c, 3, 53, 68
9, 40450, Control_c, 3, 11, 110
9, 40473, Control_c, 3, 11, 111
9, 40497, Control_c, 3, 11, 113
9, 40520, Control_c, 3, 11, 114
9, 40543, Control_c, 3, 11, 115
9, 40567, Control_c, 3, 11, 116
9, 40590, Control_c, 3, 11, 117
9, 40613, Control_c, 3, 11, 118
9, 40637, Control_c, 3, 11, 119
9, 40660, Control_c, 3, 11, 120
9, 40679, Note_on_c, 3, 53, 0
9, 40680, Note_on_c, 3, 60, 68
9, 40683, Control_c, 3, 11, 121
9, 40707, Control_c, 3, 11, 123
9, 40730, Control_c, 3, 11, 124
9, 40739, Note_on_c, 3, 60, 0
9, 40740, Note_on_c, 3, 58, 68
9, 40753, Control_c, 3, 11, 125
9, 40777, Control_c, 3, 11, 127
9, 40799, Note_on_c, 3, 58, 0
9, 40920, Note_on_c, 3, 57, 68
9, 40943, Control_c, 3, 11, 126
9, 40967, Control_c, 3, 11, 125
9, 40990, Control_c, 3, 11, 124
9, 41013, Control_c, 3, 11, 123
9, 41037, Control_c, 3, 11, 121
9, 41060, Control_c, 3, 11, 120
9, 41083, Control_c, 3, 11, 119
9, 41107, Control_c, 3, 11, 118
9, 41130, Control_c, 3, 11, 117
9, 41153, Control_c, 3, 11, 116
9, 41159, Note_on_c, 3, 57, 0
9, 41160, Note_on_c, 3, 62, 68
9, 41177, Control_c, 3, 11, 115
9, 41200, Control_c, 3, 11, 114
9, 41219, Note_on_c, 3, 62, 0
9, 41220, Note_on_c, 3, 60, 68
9, 41223, Control_c, 3, 11, 113
9, 41247, Control_c, 3, 11, 111
9, 41270, Control_c, 3, 11, 110
9, 41279, Note_on_c, 3, 60, 0
9, 41293, Control_c, 3, 11, 109
9, 41317, Control_c, 3, 11, 108
9, 41340, Control_c, 3, 11, 107
9, 41363, Control_c, 3, 11, 106
9, 41387, Control_c, 3, 11, 105
9, 41400, Note_on_c, 3, 60, 68
9, 41410, Control_c, 3, 11, 104
9, 41433, Control_c, 3, 11, 103
9, 41457, Control_c, 3, 11, 101
9, 41480, Control_c, 3, 11, 100
9, 41503, Control_c, 3, 11, 99
9, 41527, Control_c, 3, 11, 98
9, 41550, Control_c, 3, 11, 97
9, 41573, Control_c, 3, 11, 96
9, 41597, Control_c, 3, 11, 95
9, 41620, Control_c, 3, 11, 94
9, 41639, Note_on_c, 3, 60, 0
9, 41640, Note_on_c, 3, 67, 68
9, 41643, Control_c, 3, 11, 93
9, 41667, Control_c, 3, 11, 91
9, 41690, Control_c, 3, 11, 90
9, 41699, Note_on_c, 3, 67, 0
9, 41700, Note_on_c, 3, 66, 68
9, 41713, Control_c, 3, 11, 89
9, 41737, Control_c, 3, 11, 87
9, 41751, Note_on_c, 3, 66, 0
9, 41760, Note_on_c, 3, 62, 68
9, 41760, Note_on_c, 3, 65, 68
9, 41879, Note_on_c, 3, 65, 0
9, 41880, Note_on_c, 3, 64, 68
9, 41999, Note_on_c, 3, 64, 0
9, 42000, Note_on_c, 3, 65, 68
9, 42344, Note_on_c, 3, 65, 0
9, 42359, Note_on_c, 3, 62, 0
9, 42360, Note_on_c, 3, 65, 68
9, 42360, Note_on_c, 3, 57, 68
9, 42464, Note_on_c, 3, 65, 0
9, 42464, Note_on_c, 3, 57, 0
9, 42480, Note_on_c, 3, 65, 68
9, 42480, Note_on_c, 3, 57, 68
9, 42584, Note_on_c, 3, 65, 0
9, 42584, Note_on_c, 3, 57, 0
9, 42600, Note_on_c, 3, 65, 68
9, 42600, Note_on_c, 3, 57, 68
9, 42704, Note_on_c, 3, 65, 0
9, 42704, Note_on_c, 3, 57, 0
9, 42720, Note_on_c, 3, 58, 68
9, 42840, Note_on_c, 3, 61, 68
9, 42959, Note_on_c, 3, 61, 0
9, 42960, Note_on_c, 3, 62, 68
9, 43199, Note_on_c, 3, 58, 0
9, 43200, Note_on_c, 3, 59, 68
9, 43304, Note_on_c, 3, 62, 0
9, 43319, Note_on_c, 3, 59, 0
9, 43320, Note_on_c, 3, 60, 68
9, 43320, Note_on_c, 3, 62, 68
9, 43424, Note_on_c, 3, 60, 0
9, 43424, Note_on_c, 3, 62, 0
9, 43440, Note_on_c, 3, 54, 68
9, 43440, Note_on_c, 3, 62, 68
9, 43544, Note_on_c, 3, 54, 0
9, 43544, Note_on_c, 3, 62, 0
9, 43560, Note_on_c, 3, 62, 68
9, 43560, Note_on_c, 3, 54, 68
9, 43664, Note_on_c, 3, 62, 0
9, 43664, Note_on_c, 3, 54, 0
9, 43680, Note_on_c, 3, 55, 68
9, 43680, Note_on_c, 3, 62, 68
9, 43799, Note_on_c, 3, 55, 0
9, 43799, Note_on_c, 3, 62, 0
9, 43920, Control_c, 3, 11, 127
9, 44460, Note_on_c, 3, 62, 73
9, 44460, Note_on_c, 3, 58, 73
9, 44519, Note_on_c, 3, 62, 0
9, 44519, Note_on_c, 3, 58, 0
9, 44520, Note_on_c, 3, 58, 75
9, 44520, Note_on_c, 3, 63, 75
9, 44571, Note_on_c, 3, 58, 0
9, 44571, Note_on_c, 3, 63, 0
9, 44580, Note_on_c, 3, 62, 77
9, 44580, Note_on_c, 3, 65, 77
9, 44639, Note_on_c, 3, 62, 0
9, 44639, Note_on_c, 3, 65, 0
9, 44640, Note_on_c, 3, 63, 80
9, 44640, Note_on_c, 3, 67, 80
9, 44691, Note_on_c, 3, 63, 0
9, 44691, Note_on_c, 3, 67, 0
9, 44700, Note_on_c, 3, 62, 80
9, 44700, Note_on_c, 3, 65, 80
9, 44759, Note_on_c, 3, 62, 0
9, 44759, Note_on_c, 3, 65, 0
9, 44760, Note_on_c, 3, 63, 80
9, 44760, Note_on_c, 3, 60, 80
9, 44811, Note_on_c, 3, 63, 0
9, 44811, Note_on_c, 3, 60, 0
9, 44820, Note_on_c, 3, 58, 80
9, 44820, Note_on_c, 3, 62, 80
9, 44879, Note_on_c, 3, 58, 0
9, 44879, Note_on_c, 3, 62, 0
9, 44880, Note_on_c, 3, 60, 80
9, 44880, Note_on_c, 3, 57, 80
9, 44931, Note_on_c, 3, 60, 0
9, 44931, Note_on_c, 3, 57, 0
9, 44940, Note_on_c, 3, 58, 80
9, 44940, Note_on_c, 3, 55, 80
9, 44999, Note_on_c, 3, 58, 0
9, 44999, Note_on_c, 3, 55, 0
9, 45000, Note_on_c, 3, 53, 80
9, 45000, Note_on_c, 3, 57, 80
9, 45051, Note_on_c, 3, 53, 0
9, 45051, Note_on_c, 3, 57, 0
9, 45060, Note_on_c, 3, 51, 80
9, 45060, Note_on_c, 3, 55, 80
9, 45119, Note_on_c, 3, 51, 0
9, 45119, Note_on_c, 3, 55, 0
9, 45120, Note_on_c, 3, 53, 60
9, 45120, Note_on_c, 3, 41, 80
9, 45171, Note_on_c, 3, 41, 0
9, 45179, Note_on_c, 3, 53, 0
9, 45180, Note_on_c, 3, 53, 80
9, 45180, Note_on_c, 3, 65, 80
9, 45231, Note_on_c, 3, 53, 0
9, 45231, Note_on_c, 3, 65, 0
9, 45240, Note_on_c, 3, 62, 80
9, 45240, Note_on_c, 3, 50, 80
9, 45291, Note_on_c, 3, 62, 0
9, 45291, Note_on_c, 3, 50, 0
9, 45300, Note_on_c, 3, 46, 80
9, 45300, Note_on_c, 3, 58, 80
9, 45351, Note_on_c, 3, 46, 0
9, 45351, Note_on_c, 3, 58, 0
9, 45360, Note_on_c, 3, 41, 80
9, 45360, Note_on_c, 3, 53, 80
9, 45411, Note_on_c, 3, 41, 0
9, 45411, Note_on_c, 3, 53, 0
9, 45420, Note_on_c, 3, 45, 80
9, 45420, Note_on_c, 3, 57, 80
9, 45471, Note_on_c, 3, 45, 0
9, 45471, Note_on_c, 3, 57, 0
9, 45480, Note_on_c, 3, 48, 80
9, 45480, Note_on_c, 3, 60, 80
9, 45531, Note_on_c, 3, 48, 0
9, 45531, Note_on_c, 3, 60, 0
9, 45540, Note_on_c, 3, 65, 80
9, 45540, Note_on_c, 3, 53, 80
9, 45591, Note_on_c, 3, 65, 0
9, 45591, Note_on_c, 3, 53, 0
9, 45598, Control_c, 3, 11, 107
9, 45600, Note_on_c, 3, 55, 56
9, 45600, Note_on_c, 3, 43, 56
9, 46079, Note_on_c, 3, 55, 0
9, 46079, Note_on_c, 3, 43, 0
9, 46080, Note_on_c, 3, 53, 56
9, 46080, Note_on_c, 3, 65, 56
9, 46131, Note_on_c, 3, 53, 0
9, 46131, Note_on_c, 3, 65, 0
9, 46140, Note_on_c, 3, 63, 56
9, 46140, Note_on_c, 3, 51, 56
9, 46199, Note_on_c, 3, 63, 0
9, 46199, Note_on_c, 3, 51, 0
9, 46200, Note_on_c, 3, 62, 56
9, 46200, Note_on_c, 3, 50, 56
9, 46251, Note_on_c, 3, 62, 0
9, 46251, Note_on_c, 3, 50, 0
9, 46260, Note_on_c, 3, 60, 56
9, 46260, Note_on_c, 3, 48, 56
9, 46319, Note_on_c, 3, 60, 0
9, 46319, Note_on_c, 3, 48, 0
9, 46320, Note_on_c, 3, 46, 56
9, 46320, Note_on_c, 3, 58, 56
9, 46371, Note_on_c, 3, 46, 0
9, 46371, Note_on_c, 3, 58, 0
9, 46380, Note_on_c, 3, 56, 56
9, 46380, Note_on_c, 3, 44, 56
9, 46439, Note_on_c, 3, 56, 0
9, 46439, Note_on_c, 3, 44, 0
9, 46440, Note_on_c, 3, 55, 56
9, 46440, Note_on_c, 3, 43, 56
9, 46491, Note_on_c, 3, 55, 0
9, 46491, Note_on_c, 3, 43, 0
9, 46500, Note_on_c, 3, 53, 56
9, 46500, Note_on_c, 3, 41, 56
9, 46559, Note_on_c, 3, 53, 0
9, 46559, Note_on_c, 3, 41, 0
9, 46560, Note_on_c, 3, 51, 56
9, 46560, Note_on_c, 3, 39, 56
9, 46560, Control_c, 3, 11, 107
9, 46608, Control_c, 3, 11, 108
9, 46656, Control_c, 3, 11, 109
9, 46704, Control_c, 3, 11, 110
9, 46752, Control_c, 3, 11, 111
9, 46800, Control_c, 3, 11, 112
9, 46848, Control_c, 3, 11, 113
9, 46896, Control_c, 3, 11, 114
9, 46944, Control_c, 3, 11, 115
9, 46992, Control_c, 3, 11, 116
9, 47039, Note_on_c, 3, 51, 0
9, 47039, Note_on_c, 3, 39, 0
9, 47040, Control_c, 3, 11, 117
9, 47040, Note_on_c, 3, 62, 56
9, 47040, Note_on_c, 3, 50, 56
9, 47088, Control_c, 3, 11, 118
9, 47091, Note_on_c, 3, 62, 0
9, 47091, Note_on_c, 3, 50, 0
9, 47100, Note_on_c, 3, 48, 56
9, 47100, Note_on_c, 3, 60, 56
9, 47136, Control_c, 3, 11, 119
9, 47159, Note_on_c, 3, 48, 0
9, 47159, Note_on_c, 3, 60, 0
9, 47160, Note_on_c, 3, 47, 56
9, 47160, Note_on_c, 3, 59, 56
9, 47184, Control_c, 3, 11, 120
9, 47211, Note_on_c, 3, 47, 0
9, 47211, Note_on_c, 3, 59, 0
9, 47220, Note_on_c, 3, 44, 56
9, 47220, Note_on_c, 3, 56, 56
9, 47232, Control_c, 3, 11, 121
9, 47279, Note_on_c, 3, 44, 0
9, 47279, Note_on_c, 3, 56, 0
9, 47280, Control_c, 3, 11, 122
9, 47280, Note_on_c, 3, 55, 56
9, 47280, Note_on_c, 3, 43, 56
9, 47328, Control_c, 3, 11, 123
9, 47331, Note_on_c, 3, 55, 0
9, 47331, Note_on_c, 3, 43, 0
9, 47340, Note_on_c, 3, 53, 56
9, 47340, Note_on_c, 3, 41, 56
9, 47376, Control_c, 3, 11, 124
9, 47399, Note_on_c, 3, 53, 0
9, 47399, Note_on_c, 3, 41, 0
9, 47400, Note_on_c, 3, 39, 56
9, 47400, Note_on_c, 3, 51, 56
9, 47424, Control_c, 3, 11, 125
9, 47451, Note_on_c, 3, 39, 0
9, 47451, Note_on_c, 3, 51, 0
9, 47460, Note_on_c, 3, 38, 56
9, 47460, Note_on_c, 3, 50, 56
9, 47472, Control_c, 3, 11, 127
9, 47519, Note_on_c, 3, 38, 0
9, 47519, Note_on_c, 3, 50, 0
9, 47520, Note_on_c, 3, 48, 56
9, 47520, Note_on_c, 3, 36, 56
9, 47571, Note_on_c, 3, 48, 0
9, 47571, Note_on_c, 3, 36, 0
9, 47580, Note_on_c, 3, 41, 58
9, 47639, Note_on_c, 3, 41, 0
9, 47640, Note_on_c, 3, 43, 60
9, 47691, Note_on_c, 3, 43, 0
9, 47700, Note_on_c, 3, 45, 62
9, 47759, Note_on_c, 3, 45, 0
9, 47760, Note_on_c, 3, 46, 65
9, 47811, Note_on_c, 3, 46, 0
9, 47820, Note_on_c, 3, 48, 67
9, 47879, Note_on_c, 3, 48, 0
9, 47880, Note_on_c, 3, 50, 69
9, 47931, Note_on_c, 3, 50, 0
9, 47940, Note_on_c, 3, 51, 71
9, 47999, Note_on_c, 3, 51, 0
9, 48000, Note_on_c, 3, 53, 74
9, 48051, Note_on_c, 3, 53, 0
9, 48060, Note_on_c, 3, 55, 76
9, 48119, Note_on_c, 3, 55, 0
9, 48120, Note_on_c, 3, 57, 78
9, 48171, Note_on_c, 3, 57, 0
9, 48180, Note_on_c, 3, 58, 80
9, 48239, Note_on_c, 3, 58, 0
9, 48240, Note_on_c, 3, 60, 83
9, 48291, Note_on_c, 3, 60, 0
9, 48300, Note_on_c, 3, 62, 85
9, 48359, Note_on_c, 3, 62, 0
9, 48360, Note_on_c, 3, 63, 87
9, 48411, Note_on_c, 3, 63, 0
9, 48420, Note_on_c, 3, 65, 89
9, 48464, Note_on_c, 3, 65, 0
9, 48480, Note_on_c, 3, 50, 92
9, 48480, Note_on_c, 3, 38, 92
9, 48569, Note_on_c, 3, 50, 0
9, 48569, Note_on_c, 3, 38, 0
9, 48600, Note_on_c, 3, 50, 92
9, 48600, Note_on_c, 3, 38, 92
9, 48666, Note_on_c, 3, 50, 0
9, 48666, Note_on_c, 3, 38, 0
9, 48690, Note_on_c, 3, 50, 92
9, 48690, Note_on_c, 3, 38, 92
9, 48711, Note_on_c, 3, 50, 0
9, 48711, Note_on_c, 3, 38, 0
9, 48720, Note_on_c, 3, 38, 92
9, 48720, Note_on_c, 3, 50, 92
9, 48839, Note_on_c, 3, 38, 0
9, 48839, Note_on_c, 3, 50, 0
9, 48960, Note_on_c, 3, 39, 92
9, 48960, Note_on_c, 3, 51, 92
9, 49049, Note_on_c, 3, 39, 0
9, 49049, Note_on_c, 3, 51, 0
9, 49080, Note_on_c, 3, 38, 92
9, 49080, Note_on_c, 3, 50, 92
9, 49146, Note_on_c, 3, 38, 0
9, 49146, Note_on_c, 3, 50, 0
9, 49170, Note_on_c, 3, 50, 92
9, 49170, Note_on_c, 3, 38, 92
9, 49191, Note_on_c, 3, 50, 0
9, 49191, Note_on_c, 3, 38, 0
9, 49200, Note_on_c, 3, 51, 92
9, 49200, Note_on_c, 3, 39, 92
9, 49319, Note_on_c, 3, 51, 0
9, 49319, Note_on_c, 3, 39, 0
9, 49440, Note_on_c, 3, 63, 40
9, 49440, Note_on_c, 3, 51, 40
9, 49919, Note_on_c, 3, 63, 0
9, 49919, Note_on_c, 3, 51, 0
9, 49920, Note_on_c, 3, 65, 40
9, 49920, Note_on_c, 3, 53, 40
9, 50384, Note_on_c, 3, 65, 0
9, 50384, Note_on_c, 3, 53, 0
9, 50400, Note_on_c, 3, 38, 92
9, 50400, Note_on_c, 3, 50, 92
9, 50489, Note_on_c, 3, 38, 0
9, 50489, Note_on_c, 3, 50, 0
9, 50520, Note_on_c, 3, 50, 92
9, 50520, Note_on_c, 3, 38, 92
9, 50586, Note_on_c, 3, 50, 0
9, 50586, Note_on_c, 3, 38, 0
9, 50610, Note_on_c, 3, 38, 92
9, 50610, Note_on_c, 3, 50, 92
9, 50631, Note_on_c, 3, 38, 0
9, 50631, Note_on_c, 3, 50, 0
9, 50640, Note_on_c, 3, 50, 92
9, 50640, Note_on_c, 3, 38, 92
9, 50759, Note_on_c, 3, 50, 0
9, 50759, Note_on_c, 3, 38, 0
9, 50880, Note_on_c, 3, 39, 92
9, 50880, Note_on_c, 3, 51, 92
9, 50969, Note_on_c, 3, 39, 0
9, 50969, Note_on_c, 3, 51, 0
9, 51000, Note_on_c, 3, 50, 92
9, 51000, Note_on_c, 3, 38, 92
9, 51066, Note_on_c, 3, 50, 0
9, 51066, Note_on_c, 3, 38, 0
9, 51090, Note_on_c, 3, 38, 92
9, 51090, Note_on_c, 3, 50, 92
9, 51111, Note_on_c, 3, 38, 0
9, 51111, Note_on_c, 3, 50, 0
9, 51120, Note_on_c, 3, 39, 92
9, 51120, Note_on_c, 3, 51, 92
9, 51239, Note_on_c, 3, 39, 0
9, 51239, Note_on_c, 3, 51, 0
9, 52320, Note_on_c, 3, 63, 32
9, 52799, Note_on_c, 3, 63, 0
9, 52800, Note_on_c, 3, 66, 32
9, 53264, Note_on_c, 3, 66, 0
9, 53280, Note_on_c, 3, 64, 32
9, 53759, Note_on_c, 3, 64, 0
9, 53760, Note_on_c, 3, 61, 32
9, 54224, Note_on_c, 3, 61, 0
9, 54240, Note_on_c, 3, 54, 32
9, 54240, Note_on_c, 3, 66, 32
9, 54359, Note_on_c, 3, 54, 0
9, 54359, Note_on_c, 3, 66, 0
9, 54480, Note_on_c, 3, 47, 32
9, 54480, Note_on_c, 3, 59, 32
9, 54599, Note_on_c, 3, 47, 0
9, 54599, Note_on_c, 3, 59, 0
9, 54720, Note_on_c, 3, 47, 32
9, 54720, Note_on_c, 3, 59, 32
9, 54839, Note_on_c, 3, 47, 0
9, 54839, Note_on_c, 3, 59, 0
9, 54960, Note_on_c, 3, 46, 32
9, 54960, Note_on_c, 3, 58, 32
9, 55079, Note_on_c, 3, 46, 0
9, 55079, Note_on_c, 3, 58, 0
9, 55200, Note_on_c, 3, 57, 32
9, 55200, Note_on_c, 3, 45, 32
9, 55319, Note_on_c, 3, 57, 0
9, 55319, Note_on_c, 3, 45, 0
9, 55320, Note_on_c, 3, 53, 32
9, 55320, Note_on_c, 3, 65, 32
9, 55439, Note_on_c, 3, 53, 0
9, 55439, Note_on_c, 3, 65, 0
9, 55680, Note_on_c, 3, 58, 32
9, 55680, Note_on_c, 3, 46, 32
9, 55799, Note_on_c, 3, 58, 0
9, 55799, Note_on_c, 3, 46, 0
9, 55800, Note_on_c, 3, 67, 32
9, 55800, Note_on_c, 3, 55, 32
9, 55919, Note_on_c, 3, 67, 0
9, 55919, Note_on_c, 3, 55, 0
9, 56160, Note_on_c, 3, 38, 32
9, 56160, Note_on_c, 3, 50, 32
9, 56279, Note_on_c, 3, 38, 0
9, 56279, Note_on_c, 3, 50, 0
9, 56280, Note_on_c, 3, 46, 32
9, 56280, Note_on_c, 3, 58, 32
9, 56399, Note_on_c, 3, 46, 0
9, 56399, Note_on_c, 3, 58, 0
9, 56640, Note_on_c, 3, 41, 32
9, 56640, Note_on_c, 3, 53, 32
9, 56759, Note_on_c, 3, 41, 0
9, 56759, Note_on_c, 3, 53, 0
9, 56760, Note_on_c, 3, 62, 32
9, 56760, Note_on_c, 3, 50, 32
9, 56879, Note_on_c, 3, 62, 0
9, 56879, Note_on_c, 3, 50, 0
9, 57120, Note_on_c, 3, 66, 32
9, 57419, Note_on_c, 3, 66, 0
9, 57420, Note_on_c, 3, 65, 32
9, 57479, Note_on_c, 3, 65, 0
9, 57480, Note_on_c, 3, 63, 32
9, 57539, Note_on_c, 3, 63, 0
9, 57540, Note_on_c, 3, 60, 32
9, 57599, Note_on_c, 3, 60, 0
9, 58080, Note_on_c, 3, 67, 32
9, 58379, Note_on_c, 3, 67, 0
9, 58380, Note_on_c, 3, 65, 32
9, 58439, Note_on_c, 3, 65, 0
9, 58440, Note_on_c, 3, 62, 32
9, 58499, Note_on_c, 3, 62, 0
9, 58500, Note_on_c, 3, 58, 32
9, 58559, Note_on_c, 3, 58, 0
9, 58800, Control_c, 3, 11, 47
9, 59040, Note_on_c, 3, 66, 80
9, 59088, Control_c, 3, 11, 48
9, 59136, Control_c, 3, 11, 49
9, 59184, Control_c, 3, 11, 50
9, 59232, Control_c, 3, 11, 51
9, 59280, Control_c, 3, 11, 52
9, 59328, Control_c, 3, 11, 53
9, 59339, Note_on_c, 3, 66, 0
9, 59340, Note_on_c, 3, 65, 80
9, 59376, Control_c, 3, 11, 54
9, 59399, Note_on_c, 3, 65, 0
9, 59400, Note_on_c, 3, 63, 80
9, 59424, Control_c, 3, 11, 55
9, 59459, Note_on_c, 3, 63, 0
9, 59460, Note_on_c, 3, 60, 80
9, 59472, Control_c, 3, 11, 56
9, 59519, Note_on_c, 3, 60, 0
9, 59952, Control_c, 3, 11, 66
9, 60000, Control_c, 3, 11, 67
9, 60000, Note_on_c, 3, 67, 80
9, 60048, Control_c, 3, 11, 68
9, 60096, Control_c, 3, 11, 69
9, 60144, Control_c, 3, 11, 70
9, 60192, Control_c, 3, 11, 71
9, 60240, Control_c, 3, 11, 72
9, 60288, Control_c, 3, 11, 73
9, 60299, Note_on_c, 3, 67, 0
9, 60300, Note_on_c, 3, 65, 80
9, 60336, Control_c, 3, 11, 74
9, 60359, Note_on_c, 3, 65, 0
9, 60360, Note_on_c, 3, 62, 80
9, 60384, Control_c, 3, 11, 75
9, 60419, Note_on_c, 3, 62, 0
9, 60420, Note_on_c, 3, 58, 80
9, 60432, Control_c, 3, 11, 76
9, 60479, Note_on_c, 3, 58, 0
9, 60912, Control_c, 3, 11, 86
9, 60960, Note_on_c, 3, 66, 80
9, 60960, Control_c, 3, 11, 87
9, 61008, Control_c, 3, 11, 88
9, 61019, Note_on_c, 3, 66, 0
9, 61020, Note_on_c, 3, 65, 80
9, 61056, Control_c, 3, 11, 89
9, 61079, Note_on_c, 3, 65, 0
9, 61080, Note_on_c, 3, 63, 80
9, 61104, Control_c, 3, 11, 90
9, 61139, Note_on_c, 3, 63, 0
9, 61140, Note_on_c, 3, 60, 80
9, 61152, Control_c, 3, 11, 91
9, 61199, Note_on_c, 3, 60, 0
9, 61200, Control_c, 3, 11, 92
9, 61248, Control_c, 3, 11, 93
9, 61296, Control_c, 3, 11, 94
9, 61344, Control_c, 3, 11, 95
9, 61392, Control_c, 3, 11, 96
9, 61440, Note_on_c, 3, 67, 80
9, 61440, Control_c, 3, 11, 97
9, 61488, Control_c, 3, 11, 98
9, 61499, Note_on_c, 3, 67, 0
9, 61500, Note_on_c, 3, 65, 80
9, 61536, Control_c, 3, 11, 99
9, 61559, Note_on_c, 3, 65, 0
9, 61560, Note_on_c, 3, 62, 80
9, 61584, Control_c, 3, 11, 100
9, 61619, Note_on_c, 3, 62, 0
9, 61620, Note_on_c, 3, 58, 80
9, 61632, Control_c, 3, 11, 101
9, 61679, Note_on_c, 3, 58, 0
9, 61680, Control_c, 3, 11, 102
9, 61728, Control_c, 3, 11, 103
9, 61776, Control_c, 3, 11, 104
9, 61824, Control_c, 3, 11, 105
9, 61872, Control_c, 3, 11, 106
9, 61920, Note_on_c, 3, 41, 80
9, 61920, Control_c, 3, 11, 107
9, 61968, Control_c, 3, 11, 108
9, 61979, Note_on_c, 3, 41, 0
9, 61980, Note_on_c, 3, 51, 80
9, 62016, Control_c, 3, 11, 109
9, 62039, Note_on_c, 3, 51, 0
9, 62040, Note_on_c, 3, 41, 80
9, 62064, Control_c, 3, 11, 110
9, 62099, Note_on_c, 3, 41, 0
9, 62100, Note_on_c, 3, 51, 80
9, 62112, Control_c, 3, 11, 111
9, 62159, Note_on_c, 3, 51, 0
9, 62160, Note_on_c, 3, 41, 80
9, 62160, Control_c, 3, 11, 112
9, 62208, Control_c, 3, 11, 113
9, 62219, Note_on_c, 3, 41, 0
9, 62220, Note_on_c, 3, 51, 80
9, 62256, Control_c, 3, 11, 114
9, 62279, Note_on_c, 3, 51, 0
9, 62280, Note_on_c, 3, 41, 80
9, 62304, Control_c, 3, 11, 115
9, 62339, Note_on_c, 3, 41, 0
9, 62340, Note_on_c, 3, 50, 80
9, 62352, Control_c, 3, 11, 116
9, 62391, Note_on_c, 3, 50, 0
9, 62400, Control_c, 3, 11, 117
9, 62400, Note_on_c, 3, 41, 80
9, 62448, Control_c, 3, 11, 118
9, 62459, Note_on_c, 3, 41, 0
9, 62460, Note_on_c, 3, 51, 80
9, 62496, Control_c, 3, 11, 119
9, 62519, Note_on_c, 3, 51, 0
9, 62520, Note_on_c, 3, 41, 80
9, 62544, Control_c, 3, 11, 120
9, 62579, Note_on_c, 3, 41, 0
9, 62580, Note_on_c, 3, 48, 80
9, 62592, Control_c, 3, 11, 121
9, 62639, Note_on_c, 3, 48, 0
9, 62640, Note_on_c, 3, 41, 80
9, 62640, Control_c, 3, 11, 122
9, 62688, Control_c, 3, 11, 123
9, 62699, Note_on_c, 3, 41, 0
9, 62700, Note_on_c, 3, 45, 80
9, 62736, Control_c, 3, 11, 124
9, 62759, Note_on_c, 3, 45, 0
9, 62760, Note_on_c, 3, 41, 80
9, 62784, Control_c, 3, 11, 125
9, 62819, Note_on_c, 3, 41, 0
9, 62820, Note_on_c, 3, 34, 80
9, 62820, Note_on_c, 3, 46, 80
9, 62832, Control_c, 3, 11, 127
9, 62924, Note_on_c, 3, 34, 0
9, 62924, Note_on_c, 3, 46, 0
9, 62940, Note_on_c, 3, 48, 80
9, 62940, Note_on_c, 3, 36, 80
9, 62984, Note_on_c, 3, 48, 0
9, 62984, Note_on_c, 3, 36, 0
9, 63000, Note_on_c, 3, 51, 92
9, 63000, Note_on_c, 3, 63, 92
9, 63060, Control_c, 3, 11, 107
9, 63224, Note_on_c, 3, 51, 0
9, 63224, Note_on_c, 3, 63, 0
9, 63240, Note_on_c, 3, 36, 92
9, 63240, Note_on_c, 3, 48, 92
9, 63411, Note_on_c, 3, 36, 0
9, 63411, Note_on_c, 3, 48, 0
9, 63420, Note_on_c, 3, 38, 92
9, 63420, Note_on_c, 3, 50, 92
9, 63464, Note_on_c, 3, 38, 0
9, 63464, Note_on_c, 3, 50, 0
9, 63478, Control_c, 3, 11, 127
9, 63480, Note_on_c, 3, 53, 92
9, 63480, Note_on_c, 3, 65, 92
9, 63540, Control_c, 3, 11, 107
9, 63704, Note_on_c, 3, 53, 0
9, 63704, Note_on_c, 3, 65, 0
9, 63720, Note_on_c, 3, 38, 92
9, 63720, Note_on_c, 3, 50, 92
9, 63891, Note_on_c, 3, 38, 0
9, 63891, Note_on_c, 3, 50, 0
9, 63900, Note_on_c, 3, 39, 92
9, 63900, Note_on_c, 3, 51, 92
9, 63944, Note_on_c, 3, 39, 0
9, 63944, Note_on_c, 3, 51, 0
9, 63958, Control_c, 3, 11, 127
9, 63960, Note_on_c, 3, 67, 92
9, 63960, Note_on_c, 3, 55, 92
9, 64020, Control_c, 3, 11, 107
9, 64184, Note_on_c, 3, 67, 0
9, 64184, Note_on_c, 3, 55, 0
9, 64200, Note_on_c, 3, 51, 92
9, 64200, Note_on_c, 3, 39, 92
9, 64371, Note_on_c, 3, 51, 0
9, 64371, Note_on_c, 3, 39, 0
9, 64380, Note_on_c, 3, 41, 92
9, 64380, Note_on_c, 3, 53, 92
9, 64424, Note_on_c, 3, 41, 0
9, 64424, Note_on_c, 3, 53, 0
9, 64438, Control_c, 3, 11, 127
9, 64440, Note_on_c, 3, 68, 92
9, 64440, Note_on_c, 3, 56, 92
9, 64500, Control_c, 3, 11, 107
9, 64664, Note_on_c, 3, 68, 0
9, 64664, Note_on_c, 3, 56, 0
9, 64680, Note_on_c, 3, 41, 92
9, 64844, Note_on_c, 3, 41, 0
9, 64860, Note_on_c, 3, 43, 92
9, 64904, Note_on_c, 3, 43, 0
9, 64918, Control_c, 3, 11, 127
9, 64920, Note_on_c, 3, 58, 92
9, 64980, Control_c, 3, 11, 107
9, 65144, Note_on_c, 3, 58, 0
9, 65160, Note_on_c, 3, 43, 92
9, 65331, Note_on_c, 3, 43, 0
9, 65340, Note_on_c, 3, 45, 92
9, 65384, Note_on_c, 3, 45, 0
9, 65398, Control_c, 3, 11, 127
9, 65400, Note_on_c, 3, 60, 92
9, 65460, Control_c, 3, 11, 107
9, 65624, Note_on_c, 3, 60, 0
9, 65638, Control_c, 3, 11, 127
9, 65640, Note_on_c, 3, 63, 80
9, 65691, Note_on_c, 3, 63, 0
9, 65700, Note_on_c, 3, 51, 80
9, 65751, Note_on_c, 3, 51, 0
9, 65760, Note_on_c, 3, 62, 92
9, 65864, Note_on_c, 3, 62, 0
9, 65880, Note_on_c, 3, 50, 44
9, 65999, Note_on_c, 3, 50, 0
9, 66600, Note_on_c, 3, 62, 92
9, 66681, Note_on_c, 3, 62, 0
9, 66690, Note_on_c, 3, 62, 92
9, 66711, Note_on_c, 3, 62, 0
9, 66720, Note_on_c, 3, 63, 92
9, 66809, Note_on_c, 3, 63, 0
9, 66840, Note_on_c, 3, 51, 44
9, 66929, Note_on_c, 3, 51, 0
9, 67560, Note_on_c, 3, 63, 92
9, 67641, Note_on_c, 3, 63, 0
9, 67650, Note_on_c, 3, 63, 92
9, 67671, Note_on_c, 3, 63, 0
9, 67680, Note_on_c, 3, 65, 92
9, 67769, Note_on_c, 3, 65, 0
9, 67800, Note_on_c, 3, 53, 44
9, 67889, Note_on_c, 3, 53, 0
9, 68520, Note_on_c, 3, 65, 92
9, 68520, Note_on_c, 3, 53, 92
9, 68601, Note_on_c, 3, 65, 0
9, 68601, Note_on_c, 3, 53, 0
9, 68610, Note_on_c, 3, 65, 92
9, 68610, Note_on_c, 3, 53, 92
9, 68631, Note_on_c, 3, 65, 0
9, 68631, Note_on_c, 3, 53, 0
9, 68640, Note_on_c, 3, 55, 92
9, 68640, Note_on_c, 3, 67, 92
9, 68684, Note_on_c, 3, 67, 0
9, 68700, Note_on_c, 3, 58, 44
9, 68729, Note_on_c, 3, 55, 0
9, 68759, Note_on_c, 3, 58, 0
9, 68760, Note_on_c, 3, 63, 44
9, 68760, Note_on_c, 3, 43, 44
9, 68819, Note_on_c, 3, 63, 0
9, 68820, Note_on_c, 3, 56, 44
9, 68849, Note_on_c, 3, 43, 0
9, 68879, Note_on_c, 3, 56, 0
9, 68880, Note_on_c, 3, 56, 44
9, 68939, Note_on_c, 3, 56, 0
9, 68940, Note_on_c, 3, 55, 44
9, 68999, Note_on_c, 3, 55, 0
9, 69000, Note_on_c, 3, 58, 44
9, 69059, Note_on_c, 3, 58, 0
9, 69060, Note_on_c, 3, 53, 44
9, 69119, Note_on_c, 3, 53, 0
9, 69120, Note_on_c, 3, 53, 44
9, 69179, Note_on_c, 3, 53, 0
9, 69180, Note_on_c, 3, 51, 44
9, 69240, Note_on_c, 3, 55, 44
9, 69299, Note_on_c, 3, 51, 0
9, 69299, Note_on_c, 3, 55, 0
9, 69300, Note_on_c, 3, 58, 44
9, 69300, Note_on_c, 3, 50, 44
9, 69359, Note_on_c, 3, 58, 0
9, 69359, Note_on_c, 3, 50, 0
9, 69360, Note_on_c, 3, 48, 44
9, 69360, Note_on_c, 3, 60, 44
9, 69419, Note_on_c, 3, 48, 0
9, 69419, Note_on_c, 3, 60, 0
9, 69420, Note_on_c, 3, 46, 44
9, 69420, Note_on_c, 3, 58, 44
9, 69479, Note_on_c, 3, 46, 0
9, 69479, Note_on_c, 3, 58, 0
9, 69480, Note_on_c, 3, 56, 44
9, 69480, Note_on_c, 3, 44, 44
9, 69539, Note_on_c, 3, 56, 0
9, 69539, Note_on_c, 3, 44, 0
9, 69540, Note_on_c, 3, 43, 44
9, 69540, Note_on_c, 3, 55, 44
9, 69591, Note_on_c, 3, 43, 0
9, 69591, Note_on_c, 3, 55, 0
9, 69600, Note_on_c, 3, 54, 80
9, 69600, Note_on_c, 3, 42, 80
9, 69719, Note_on_c, 3, 54, 0
9, 69719, Note_on_c, 3, 42, 0
9, 69720, Note_on_c, 3, 53, 80
9, 69720, Note_on_c, 3, 41, 80
9, 69779, Note_on_c, 3, 53, 0
9, 69779, Note_on_c, 3, 41, 0
9, 69840, Note_on_c, 3, 53, 80
9, 69840, Note_on_c, 3, 41, 80
9, 69959, Note_on_c, 3, 53, 0
9, 69959, Note_on_c, 3, 41, 0
9, 69960, Note_on_c, 3, 52, 80
9, 69960, Note_on_c, 3, 40, 80
9, 70019, Note_on_c, 3, 52, 0
9, 70019, Note_on_c, 3, 40, 0
9, 70080, Note_on_c, 3, 52, 80
9, 70080, Note_on_c, 3, 40, 80
9, 70199, Note_on_c, 3, 52, 0
9, 70199, Note_on_c, 3, 40, 0
9, 70200, Note_on_c, 3, 53, 80
9, 70200, Note_on_c, 3, 41, 80
9, 70259, Note_on_c, 3, 53, 0
9, 70259, Note_on_c, 3, 41, 0
9, 70320, Note_on_c, 3, 53, 92
9, 70320, Note_on_c, 3, 41, 92
9, 70439, Note_on_c, 3, 53, 0
9, 70439, Note_on_c, 3, 41, 0
9, 70440, Note_on_c, 3, 65, 92
9, 70440, Note_on_c, 3, 53, 92
9, 70499, Note_on_c, 3, 65, 0
9, 70499, Note_on_c, 3, 53, 0
9, 70620, Note_on_c, 3, 51, 92
9, 70679, Note_on_c, 3, 51, 0
9, 70680, Note_on_c, 3, 62, 92
9, 70739, Note_on_c, 3, 62, 0
9, 70860, Note_on_c, 3, 50, 92
9, 70919, Note_on_c, 3, 50, 0
9, 70920, Note_on_c, 3, 60, 92
9, 70979, Note_on_c, 3, 60, 0
9, 71100, Note_on_c, 3, 48, 92
9, 71159, Note_on_c, 3, 48, 0
9, 71160, Note_on_c, 3, 58, 92
9, 71219, Note_on_c, 3, 58, 0
9, 71280, Note_on_c, 3, 62, 92
9, 71299, Note_on_c, 3, 62, 0
9, 71300, Note_on_c, 3, 63, 92
9, 71319, Note_on_c, 3, 63, 0
9, 71320, Note_on_c, 3, 62, 92
9, 71339, Note_on_c, 3, 62, 0
9, 71340, Note_on_c, 3, 63, 92
9, 71352, Note_on_c, 3, 63, 0
9, 71353, Note_on_c, 3, 62, 92
9, 71366, Note_on_c, 3, 62, 0
9, 71367, Note_on_c, 3, 60, 92
9, 71379, Note_on_c, 3, 60, 0
9, 71380, Note_on_c, 3, 62, 92
9, 71399, Note_on_c, 3, 62, 0
9, 71400, Note_on_c, 3, 63, 92
9, 71459, Note_on_c, 3, 63, 0
9, 71460, Note_on_c, 3, 60, 92
9, 71511, Note_on_c, 3, 60, 0
9, 71520, Note_on_c, 3, 34, 92
9, 71520, Note_on_c, 3, 46, 92
9, 71864, Note_on_c, 3, 34, 0
9, 71864, Note_on_c, 3, 46, 0
9, 71880, Note_on_c, 3, 46, 92
9, 71880, Note_on_c, 3, 34, 92
9, 71961, Note_on_c, 3, 46, 0
9, 71961, Note_on_c, 3, 34, 0
9, 71970, Note_on_c, 3, 46, 92
9, 71970, Note_on_c, 3, 34, 92
9, 71991, Note_on_c, 3, 46, 0
9, 71991, Note_on_c, 3, 34, 0
9, 72000, Note_on_c, 3, 38, 104
9, 72000, Note_on_c, 3, 50, 104
9, 72060, Control_c, 3, 11, 107
9, 72344, Note_on_c, 3, 38, 0
9, 72344, Note_on_c, 3, 50, 0
9, 72360, Note_on_c, 3, 50, 104
9, 72360, Note_on_c, 3, 38, 104
9, 72441, Note_on_c, 3, 50, 0
9, 72441, Note_on_c, 3, 38, 0
9, 72450, Note_on_c, 3, 38, 104
9, 72450, Note_on_c, 3, 50, 104
9, 72471, Note_on_c, 3, 38, 0
9, 72471, Note_on_c, 3, 50, 0
9, 72478, Control_c, 3, 11, 127
9, 72480, Note_on_c, 3, 53, 104
9, 72480, Note_on_c, 3, 41, 104
9, 72540, Control_c, 3, 11, 107
9, 72824, Note_on_c, 3, 53, 0
9, 72824, Note_on_c, 3, 41, 0
9, 72840, Note_on_c, 3, 53, 104
9, 72840, Note_on_c, 3, 41, 104
9, 72921, Note_on_c, 3, 53, 0
9, 72921, Note_on_c, 3, 41, 0
9, 72930, Note_on_c, 3, 53, 104
9, 72930, Note_on_c, 3, 41, 104
9, 72951, Note_on_c, 3, 53, 0
9, 72951, Note_on_c, 3, 41, 0
9, 72958, Control_c, 3, 11, 127
9, 72960, Note_on_c, 3, 46, 92
9, 72960, Note_on_c, 3, 58, 92
9, 73064, Note_on_c, 3, 46, 0
9, 73064, Note_on_c, 3, 58, 0
9, 73080, Note_on_c, 3, 46, 92
9, 73080, Note_on_c, 3, 58, 92
9, 73161, Note_on_c, 3, 46, 0
9, 73161, Note_on_c, 3, 58, 0
9, 73170, Note_on_c, 3, 58, 92
9, 73170, Note_on_c, 3, 46, 92
9, 73191, Note_on_c, 3, 58, 0
9, 73191, Note_on_c, 3, 46, 0
9, 73200, Note_on_c, 3, 50, 92
9, 73200, Note_on_c, 3, 62, 92
9, 73304, Note_on_c, 3, 50, 0
9, 73304, Note_on_c, 3, 62, 0
9, 73320, Note_on_c, 3, 50, 92
9, 73320, Note_on_c, 3, 62, 92
9, 73401, Note_on_c, 3, 50, 0
9, 73401, Note_on_c, 3, 62, 0
9, 73410, Note_on_c, 3, 62, 92
9, 73410, Note_on_c, 3, 50, 92
9, 73431, Note_on_c, 3, 62, 0
9, 73431, Note_on_c, 3, 50, 0
9, 73440, Note_on_c, 3, 65, 80
9, 73440, Note_on_c, 3, 53, 80
9, 73529, Note_on_c, 3, 65, 0
9, 73529, Note_on_c, 3, 53, 0
9, 73560, Note_on_c, 3, 58, 80
9, 73560, Note_on_c, 3, 46, 80
9, 73641, Note_on_c, 3, 58, 0
9, 73641, Note_on_c, 3, 46, 0
9, 73650, Note_on_c, 3, 58, 80
9, 73650, Note_on_c, 3, 46, 80
9, 73671, Note_on_c, 3, 58, 0
9, 73671, Note_on_c, 3, 46, 0
9, 73680, Note_on_c, 3, 50, 80
9, 73680, Note_on_c, 3, 62, 80
9, 73769, Note_on_c, 3, 50, 0
9, 73769, Note_on_c, 3, 62, 0
9, 73800, Note_on_c, 3, 41, 80
9, 73800, Note_on_c, 3, 53, 80
9, 73881, Note_on_c, 3, 41, 0
9, 73881, Note_on_c, 3, 53, 0
9, 73890, Note_on_c, 3, 53, 80
9, 73890, Note_on_c, 3, 41, 80
9, 73911, Note_on_c, 3, 53, 0
9, 73911, Note_on_c, 3, 41, 0
9, 73920, Note_on_c, 3, 46, 80
9, 73920, Note_on_c, 3, 58, 80
9, 74009, Note_on_c, 3, 46, 0
9, 74009, Note_on_c, 3, 58, 0
9, 74040, Note_on_c, 3, 38, 80
9, 74040, Note_on_c, 3, 50, 80
9, 74121, Note_on_c, 3, 38, 0
9, 74121, Note_on_c, 3, 50, 0
9, 74130, Note_on_c, 3, 38, 80
9, 74130, Note_on_c, 3, 50, 80
9, 74151, Note_on_c, 3, 38, 0
9, 74151, Note_on_c, 3, 50, 0
9, 74160, Note_on_c, 3, 41, 80
9, 74160, Note_on_c, 3, 53, 80
9, 74249, Note_on_c, 3, 41, 0
9, 74249, Note_on_c, 3, 53, 0
9, 74280, Note_on_c, 3, 34, 80
9, 74280, Note_on_c, 3, 46, 80
9, 74361, Note_on_c, 3, 34, 0
9, 74361, Note_on_c, 3, 46, 0
9, 74370, Note_on_c, 3, 46, 80
9, 74370, Note_on_c, 3, 34, 80
9, 74391, Note_on_c, 3, 46, 0
9, 74391, Note_on_c, 3, 34, 0
9, 74400, Note_on_c, 3, 50, 80
9, 74400, Note_on_c, 3, 38, 80
9, 74489, Note_on_c, 3, 50, 0
9, 74489, Note_on_c, 3, 38, 0
9, 74520, Note_on_c, 3, 53, 80
9, 74520, Note_on_c, 3, 41, 80
9, 74601, Note_on_c, 3, 53, 0
9, 74601, Note_on_c, 3, 41, 0
9, 74610, Note_on_c, 3, 41, 80
9, 74610, Note_on_c, 3, 53, 80
9, 74631, Note_on_c, 3, 41, 0
9, 74631, Note_on_c, 3, 53, 0
9, 74640, Note_on_c, 3, 46, 80
9, 74640, Note_on_c, 3, 58, 80
9, 74729, Note_on_c, 3, 46, 0
9, 74729, Note_on_c, 3, 58, 0
9, 74760, Note_on_c, 3, 50, 80
9, 74760, Note_on_c, 3, 38, 80
9, 74841, Note_on_c, 3, 50, 0
9, 74841, Note_on_c, 3, 38, 0
9, 74850, Note_on_c, 3, 50, 80
9, 74850, Note_on_c, 3, 38, 80
9, 74871, Note_on_c, 3, 50, 0
9, 74871, Note_on_c, 3, 38, 0
9, 74880, Note_on_c, 3, 41, 80
9, 74880, Note_on_c, 3, 53, 80
9, 74969, Note_on_c, 3, 41, 0
9, 74969, Note_on_c, 3, 53, 0
9, 75000, Note_on_c, 3, 46, 80
9, 75000, Note_on_c, 3, 34, 80
9, 75081, Note_on_c, 3, 46, 0
9, 75081, Note_on_c, 3, 34, 0
9, 75090, Note_on_c, 3, 34, 80
9, 75090, Note_on_c, 3, 46, 80
9, 75111, Note_on_c, 3, 34, 0
9, 75111, Note_on_c, 3, 46, 0
9, 75120, Note_on_c, 3, 46, 80
9, 75120, Note_on_c, 3, 58, 80
9, 75209, Note_on_c, 3, 46, 0
9, 75209, Note_on_c, 3, 58, 0
9, 75240, Note_on_c, 3, 34, 80
9, 75240, Note_on_c, 3, 46, 80
9, 75321, Note_on_c, 3, 34, 0
9, 75321, Note_on_c, 3, 46, 0
9, 75330, Note_on_c, 3, 34, 80
9, 75330, Note_on_c, 3, 46, 80
9, 75351, Note_on_c, 3, 34, 0
9, 75351, Note_on_c, 3, 46, 0
9, 75360, Note_on_c, 3, 58, 80
9, 75360, Note_on_c, 3, 46, 80
9, 75479, Note_on_c, 3, 58, 0
9, 75479, Note_on_c, 3, 46, 0
9, 75810, Note_on_c, 3, 58, 80
9, 75810, Note_on_c, 3, 46, 80
9, 75831, Note_on_c, 3, 58, 0
9, 75831, Note_on_c, 3, 46, 0
9, 75840, Note_on_c, 3, 34, 78
9, 75840, Note_on_c, 3, 46, 78
9, 75959, Note_on_c, 3, 34, 0
9, 75959, Note_on_c, 3, 46, 0
9, 76290, Note_on_c, 3, 34, 44
9, 76290, Note_on_c, 3, 46, 44
9, 76311, Note_on_c, 3, 34, 0
9, 76311, Note_on_c, 3, 46, 0
9, 76320, Note_on_c, 3, 45, 32
9, 76559, Note_on_c, 3, 45, 0
9, 81360, Note_on_c, 3, 54, 32
9, 81360, Note_on_c, 3, 57, 32
9, 83519, Note_on_c, 3, 54, 0
9, 83519, Note_on_c, 3, 57, 0
9, 83520, Note_on_c, 3, 54, 32
9, 83520, Note_on_c, 3, 57, 32
9, 85184, Note_on_c, 3, 54, 0
9, 85184, Note_on_c, 3, 57, 0
9, 85200, Note_on_c, 3, 58, 32
9, 85200, Note_on_c, 3, 55, 32
9, 85319, Note_on_c, 3, 58, 0
9, 85319, Note_on_c, 3, 55, 0
9, 85410, Note_on_c, 3, 50, 32
9, 85410, Note_on_c, 3, 62, 32
9, 85431, Note_on_c, 3, 50, 0
9, 85431, Note_on_c, 3, 62, 0
9, 85440, Note_on_c, 3, 45, 32
9, 85440, Note_on_c, 3, 55, 32
9, 85559, Note_on_c, 3, 55, 0
9, 85679, Note_on_c, 3, 45, 0
9, 85680, Note_on_c, 3, 55, 32
9, 85890, Note_on_c, 3, 62, 32
9, 85911, Note_on_c, 3, 62, 0
9, 85920, Note_on_c, 3, 58, 32
9, 86361, Note_on_c, 3, 58, 0
9, 86367, Note_on_c, 3, 55, 0
9, 86370, Note_on_c, 3, 55, 32
9, 86399, Note_on_c, 3, 55, 0
9, 86400, Note_on_c, 3, 50, 32
9, 86400, Note_on_c, 3, 55, 32
9, 86601, Note_on_c, 3, 50, 0
9, 86610, Note_on_c, 3, 46, 32
9, 86631, Note_on_c, 3, 46, 0
9, 86640, Note_on_c, 3, 43, 32
9, 86759, Note_on_c, 3, 43, 0
9, 86760, Note_on_c, 3, 58, 32
9, 87801, Note_on_c, 3, 58, 0
9, 87810, Note_on_c, 3, 62, 32
9, 87824, Note_on_c, 3, 55, 0
9, 87831, Note_on_c, 3, 62, 0
9, 87838, Control_c, 3, 11, 47
9, 87840, Note_on_c, 3, 57, 80
9, 87840, Note_on_c, 3, 60, 80
9, 88281, Note_on_c, 3, 60, 0
9, 88287, Note_on_c, 3, 57, 0
9, 88290, Note_on_c, 3, 57, 80
9, 88319, Note_on_c, 3, 57, 0
9, 88320, Note_on_c, 3, 57, 80
9, 88320, Note_on_c, 3, 54, 80
9, 88521, Note_on_c, 3, 54, 0
9, 88530, Note_on_c, 3, 50, 80
9, 88551, Note_on_c, 3, 50, 0
9, 88560, Note_on_c, 3, 48, 80
9, 88679, Note_on_c, 3, 48, 0
9, 88680, Note_on_c, 3, 60, 80
9, 88800, Control_c, 3, 11, 47
9, 88827, Control_c, 3, 11, 49
9, 88853, Control_c, 3, 11, 51
9, 88880, Control_c, 3, 11, 54
9, 88907, Control_c, 3, 11, 56
9, 88933, Control_c, 3, 11, 58
9, 88960, Control_c, 3, 11, 60
9, 88987, Control_c, 3, 11, 63
9, 89013, Control_c, 3, 11, 65
9, 89040, Control_c, 3, 11, 67
9, 89067, Control_c, 3, 11, 69
9, 89093, Control_c, 3, 11, 71
9, 89120, Control_c, 3, 11, 74
9, 89147, Control_c, 3, 11, 76
9, 89173, Control_c, 3, 11, 78
9, 89200, Control_c, 3, 11, 80
9, 89227, Control_c, 3, 11, 83
9, 89253, Control_c, 3, 11, 85
9, 89280, Control_c, 3, 11, 87
9, 89307, Control_c, 3, 11, 89
9, 89333, Control_c, 3, 11, 91
9, 89360, Control_c, 3, 11, 94
9, 89387, Control_c, 3, 11, 96
9, 89413, Control_c, 3, 11, 98
9, 89440, Control_c, 3, 11, 100
9, 89467, Control_c, 3, 11, 103
9, 89493, Control_c, 3, 11, 105
9, 89520, Control_c, 3, 11, 107
9, 89547, Control_c, 3, 11, 109
9, 89573, Control_c, 3, 11, 111
9, 89600, Control_c, 3, 11, 114
9, 89627, Control_c, 3, 11, 116
9, 89653, Control_c, 3, 11, 118
9, 89680, Control_c, 3, 11, 120
9, 89707, Control_c, 3, 11, 123
9, 89733, Control_c, 3, 11, 127
9, 89744, Note_on_c, 3, 57, 0
9, 89744, Note_on_c, 3, 60, 0
9, 89760, Note_on_c, 3, 48, 80
9, 89864, Note_on_c, 3, 48, 0
9, 89880, Note_on_c, 3, 60, 80
9, 89961, Note_on_c, 3, 60, 0
9, 89970, Note_on_c, 3, 60, 80
9, 89991, Note_on_c, 3, 60, 0
9, 90000, Note_on_c, 3, 63, 92
9, 90060, Control_c, 3, 11, 107
9, 90344, Note_on_c, 3, 63, 0
9, 90360, Note_on_c, 3, 57, 92
9, 90441, Note_on_c, 3, 57, 0
9, 90450, Note_on_c, 3, 57, 92
9, 90471, Note_on_c, 3, 57, 0
9, 90478, Control_c, 3, 11, 127
9, 90480, Note_on_c, 3, 60, 92
9, 90540, Control_c, 3, 11, 107
9, 90824, Note_on_c, 3, 60, 0
9, 90840, Note_on_c, 3, 54, 92
9, 90921, Note_on_c, 3, 54, 0
9, 90930, Note_on_c, 3, 54, 92
9, 90951, Note_on_c, 3, 54, 0
9, 90958, Control_c, 3, 11, 127
9, 90960, Note_on_c, 3, 57, 92
9, 91064, Note_on_c, 3, 57, 0
9, 91080, Note_on_c, 3, 48, 80
9, 91161, Note_on_c, 3, 48, 0
9, 91170, Note_on_c, 3, 48, 80
9, 91191, Note_on_c, 3, 48, 0
9, 91200, Note_on_c, 3, 51, 92
9, 91304, Note_on_c, 3, 51, 0
9, 91320, Note_on_c, 3, 43, 80
9, 91401, Note_on_c, 3, 43, 0
9, 91410, Note_on_c, 3, 43, 80
9, 91431, Note_on_c, 3, 43, 0
9, 91440, Note_on_c, 3, 50, 92
9, 91544, Note_on_c, 3, 50, 0
9, 91560, Note_on_c, 3, 50, 80
9, 91641, Note_on_c, 3, 50, 0
9, 91650, Note_on_c, 3, 50, 80
9, 91671, Note_on_c, 3, 50, 0
9, 91680, Note_on_c, 3, 58, 44
9, 91680, Note_on_c, 3, 55, 44
9, 91739, Note_on_c, 3, 58, 0
9, 91739, Note_on_c, 3, 55, 0
9, 91740, Note_on_c, 3, 62, 44
9, 91740, Note_on_c, 3, 58, 44
9, 91791, Note_on_c, 3, 62, 0
9, 91791, Note_on_c, 3, 58, 0
9, 91800, Note_on_c, 3, 60, 44
9, 91800, Note_on_c, 3, 57, 44
9, 91844, Note_on_c, 3, 60, 0
9, 91844, Note_on_c, 3, 57, 0
9, 91860, Note_on_c, 3, 55, 44
9, 91860, Note_on_c, 3, 58, 44
9, 91904, Note_on_c, 3, 55, 0
9, 91904, Note_on_c, 3, 58, 0
9, 91920, Note_on_c, 3, 58, 44
9, 91920, Note_on_c, 3, 55, 44
9, 92219, Note_on_c, 3, 58, 0
9, 92219, Note_on_c, 3, 55, 0
9, 92220, Note_on_c, 3, 62, 44
9, 92220, Note_on_c, 3, 58, 44
9, 92271, Note_on_c, 3, 62, 0
9, 92271, Note_on_c, 3, 58, 0
9, 92280, Note_on_c, 3, 60, 44
9, 92280, Note_on_c, 3, 57, 44
9, 92324, Note_on_c, 3, 60, 0
9, 92324, Note_on_c, 3, 57, 0
9, 92340, Note_on_c, 3, 58, 44
9, 92340, Note_on_c, 3, 55, 44
9, 92384, Note_on_c, 3, 58, 0
9, 92384, Note_on_c, 3, 55, 0
9, 92400, Note_on_c, 3, 55, 44
9, 92400, Note_on_c, 3, 58, 44
9, 92624, Note_on_c, 3, 55, 0
9, 92624, Note_on_c, 3, 58, 0
9, 92640, Note_on_c, 3, 55, 44
9, 92640, Note_on_c, 3, 63, 44
9, 92699, Note_on_c, 3, 55, 0
9, 92699, Note_on_c, 3, 63, 0
9, 92700, Note_on_c, 3, 67, 44
9, 92700, Note_on_c, 3, 63, 44
9, 92751, Note_on_c, 3, 67, 0
9, 92751, Note_on_c, 3, 63, 0
9, 92760, Note_on_c, 3, 62, 44
9, 92760, Note_on_c, 3, 65, 44
9, 92804, Note_on_c, 3, 62, 0
9, 92804, Note_on_c, 3, 65, 0
9, 92820, Note_on_c, 3, 60, 44
9, 92820, Note_on_c, 3, 63, 44
9, 92864, Note_on_c, 3, 60, 0
9, 92864, Note_on_c, 3, 63, 0
9, 92880, Note_on_c, 3, 63, 44
9, 92880, Note_on_c, 3, 60, 44
9, 93179, Note_on_c, 3, 63, 0
9, 93179, Note_on_c, 3, 60, 0
9, 93180, Note_on_c, 3, 67, 44
9, 93180, Note_on_c, 3, 63, 44
9, 93231, Note_on_c, 3, 67, 0
9, 93231, Note_on_c, 3, 63, 0
9, 93240, Note_on_c, 3, 62, 44
9, 93240, Note_on_c, 3, 65, 44
9, 93284, Note_on_c, 3, 62, 0
9, 93284, Note_on_c, 3, 65, 0
9, 93300, Note_on_c, 3, 63, 44
9, 93300, Note_on_c, 3, 60, 44
9, 93344, Note_on_c, 3, 63, 0
9, 93344, Note_on_c, 3, 60, 0
9, 93360, Note_on_c, 3, 60, 44
9, 93360, Note_on_c, 3, 63, 44
9, 93404, Note_on_c, 3, 60, 0
9, 93404, Note_on_c, 3, 63, 0
9, 93420, Note_on_c, 3, 67, 44
9, 93420, Note_on_c, 3, 60, 44
9, 93471, Note_on_c, 3, 67, 0
9, 93471, Note_on_c, 3, 60, 0
9, 93480, Note_on_c, 3, 60, 44
9, 93480, Note_on_c, 3, 65, 44
9, 93531, Note_on_c, 3, 60, 0
9, 93531, Note_on_c, 3, 65, 0
9, 93540, Note_on_c, 3, 60, 44
9, 93540, Note_on_c, 3, 63, 44
9, 93584, Note_on_c, 3, 60, 0
9, 93584, Note_on_c, 3, 63, 0
9, 93600, Note_on_c, 3, 61, 44
9, 93600, Note_on_c, 3, 64, 44
9, 93779, Note_on_c, 3, 61, 0
9, 93779, Note_on_c, 3, 64, 0
9, 93840, Note_on_c, 3, 64, 44
9, 93840, Note_on_c, 3, 61, 44
9, 94019, Note_on_c, 3, 64, 0
9, 94019, Note_on_c, 3, 61, 0
9, 94080, Note_on_c, 3, 63, 44
9, 94080, Note_on_c, 3, 51, 44
9, 94259, Note_on_c, 3, 63, 0
9, 94259, Note_on_c, 3, 51, 0
9, 94320, Note_on_c, 3, 62, 44
9, 94320, Note_on_c, 3, 50, 44
9, 94499, Note_on_c, 3, 62, 0
9, 94499, Note_on_c, 3, 50, 0
9, 94680, Note_on_c, 3, 46, 44
9, 94680, Note_on_c, 3, 43, 44
9, 94799, Note_on_c, 3, 46, 0
9, 94799, Note_on_c, 3, 43, 0
9, 94920, Note_on_c, 3, 46, 44
9, 94920, Note_on_c, 3, 50, 44
9, 95039, Note_on_c, 3, 46, 0
9, 95039, Note_on_c, 3, 50, 0
9, 95160, Note_on_c, 3, 50, 44
9, 95160, Note_on_c, 3, 55, 44
9, 95279, Note_on_c, 3, 50, 0
9, 95279, Note_on_c, 3, 55, 0
9, 95400, Note_on_c, 3, 58, 44
9, 95490, Note_on_c, 3, 62, 44
9, 95504, Note_on_c, 3, 58, 0
9, 95511, Note_on_c, 3, 62, 0
9, 95520, Note_on_c, 3, 58, 44
9, 95520, Note_on_c, 3, 43, 44
9, 95961, Note_on_c, 3, 58, 0
9, 95970, Note_on_c, 3, 55, 44
9, 95991, Note_on_c, 3, 55, 0
9, 96000, Note_on_c, 3, 50, 44
9, 96201, Note_on_c, 3, 50, 0
9, 96210, Note_on_c, 3, 46, 44
9, 96231, Note_on_c, 3, 46, 0
9, 96420, Note_on_c, 3, 65, 44
9, 96449, Note_on_c, 3, 65, 0
9, 96450, Note_on_c, 3, 62, 44
9, 96471, Note_on_c, 3, 62, 0
9, 96480, Note_on_c, 3, 59, 44
9, 96584, Note_on_c, 3, 43, 0
9, 96584, Note_on_c, 3, 59, 0
9, 96600, Note_on_c, 3, 47, 44
9, 96600, Note_on_c, 3, 43, 44
9, 96719, Note_on_c, 3, 47, 0
9, 96719, Note_on_c, 3, 43, 0
9, 96840, Note_on_c, 3, 50, 44
9, 96840, Note_on_c, 3, 47, 44
9, 96959, Note_on_c, 3, 50, 0
9, 96959, Note_on_c, 3, 47, 0
9, 96960, Control_c, 3, 11, 67
9, 97080, Note_on_c, 3, 53, 80
9, 97080, Note_on_c, 3, 50, 80
9, 97199, Note_on_c, 3, 53, 0
9, 97199, Note_on_c, 3, 50, 0
9, 97320, Note_on_c, 3, 50, 80
9, 97320, Note_on_c, 3, 59, 60
9, 97379, Note_on_c, 3, 59, 0
9, 97410, Note_on_c, 3, 68, 80
9, 97431, Note_on_c, 3, 68, 0
9, 97439, Note_on_c, 3, 50, 0
9, 97440, Note_on_c, 3, 43, 80
9, 97440, Control_c, 3, 11, 67
9, 97440, Note_on_c, 3, 67, 80
9, 97460, Control_c, 3, 11, 68
9, 97480, Control_c, 3, 11, 70
9, 97500, Control_c, 3, 11, 71
9, 97520, Control_c, 3, 11, 72
9, 97540, Control_c, 3, 11, 73
9, 97560, Control_c, 3, 11, 75
9, 97580, Control_c, 3, 11, 76
9, 97600, Control_c, 3, 11, 77
9, 97620, Control_c, 3, 11, 78
9, 97640, Control_c, 3, 11, 80
9, 97660, Control_c, 3, 11, 81
9, 97680, Control_c, 3, 11, 82
9, 97700, Control_c, 3, 11, 83
9, 97720, Control_c, 3, 11, 85
9, 97740, Control_c, 3, 11, 86
9, 97760, Control_c, 3, 11, 87
9, 97780, Control_c, 3, 11, 88
9, 97800, Control_c, 3, 11, 90
9, 97820, Control_c, 3, 11, 91
9, 97840, Control_c, 3, 11, 92
9, 97860, Control_c, 3, 11, 93
9, 97880, Control_c, 3, 11, 95
9, 97881, Note_on_c, 3, 67, 0
9, 97890, Note_on_c, 3, 65, 80
9, 97900, Control_c, 3, 11, 96
9, 97911, Note_on_c, 3, 65, 0
9, 97920, Note_on_c, 3, 62, 80
9, 97920, Control_c, 3, 11, 97
9, 97940, Control_c, 3, 11, 98
9, 97960, Control_c, 3, 11, 100
9, 97980, Control_c, 3, 11, 101
9, 98000, Control_c, 3, 11, 102
9, 98020, Control_c, 3, 11, 103
9, 98040, Control_c, 3, 11, 105
9, 98060, Control_c, 3, 11, 106
9, 98080, Control_c, 3, 11, 107
9, 98100, Control_c, 3, 11, 108
9, 98120, Control_c, 3, 11, 110
9, 98121, Note_on_c, 3, 62, 0
9, 98130, Note_on_c, 3, 59, 80
9, 98140, Control_c, 3, 11, 111
9, 98151, Note_on_c, 3, 59, 0
9, 98160, Note_on_c, 3, 55, 80
9, 98160, Control_c, 3, 11, 112
9, 98180, Control_c, 3, 11, 113
9, 98200, Control_c, 3, 11, 115
9, 98220, Control_c, 3, 11, 116
9, 98240, Control_c, 3, 11, 117
9, 98260, Control_c, 3, 11, 118
9, 98280, Control_c, 3, 11, 120
9, 98300, Control_c, 3, 11, 121
9, 98320, Control_c, 3, 11, 122
9, 98331, Note_on_c, 3, 43, 0
9, 98331, Note_on_c, 3, 55, 0
9, 98340, Note_on_c, 3, 53, 80
9, 98340, Note_on_c, 3, 41, 80
9, 98340, Control_c, 3, 11, 123
9, 98360, Control_c, 3, 11, 125
9, 98369, Note_on_c, 3, 53, 0
9, 98369, Note_on_c, 3, 41, 0
9, 98370, Note_on_c, 3, 38, 80
9, 98370, Note_on_c, 3, 50, 80
9, 98380, Control_c, 3, 11, 127
9, 98391, Note_on_c, 3, 38, 0
9, 98391, Note_on_c, 3, 50, 0
9, 98400, Note_on_c, 3, 35, 80
9, 98400, Note_on_c, 3, 47, 80
9, 98504, Note_on_c, 3, 35, 0
9, 98504, Note_on_c, 3, 47, 0
9, 98520, Note_on_c, 3, 53, 80
9, 98744, Note_on_c, 3, 53, 0
9, 98760, Note_on_c, 3, 53, 80
9, 98841, Note_on_c, 3, 53, 0
9, 98850, Note_on_c, 3, 53, 80
9, 98871, Note_on_c, 3, 53, 0
9, 98880, Note_on_c, 3, 56, 92
9, 98940, Control_c, 3, 11, 107
9, 99224, Note_on_c, 3, 56, 0
9, 99240, Note_on_c, 3, 50, 92
9, 99321, Note_on_c, 3, 50, 0
9, 99330, Note_on_c, 3, 50, 92
9, 99351, Note_on_c, 3, 50, 0
9, 99358, Control_c, 3, 11, 127
9, 99360, Note_on_c, 3, 53, 92
9, 99464, Note_on_c, 3, 53, 0
9, 99480, Note_on_c, 3, 59, 92
9, 99561, Note_on_c, 3, 59, 0
9, 99570, Note_on_c, 3, 59, 92
9, 99591, Note_on_c, 3, 59, 0
9, 99598, Control_c, 3, 11, 127
9, 99600, Note_on_c, 3, 62, 92
9, 99704, Note_on_c, 3, 62, 0
9, 99720, Note_on_c, 3, 53, 80
9, 99801, Note_on_c, 3, 53, 0
9, 99810, Note_on_c, 3, 53, 80
9, 99831, Note_on_c, 3, 53, 0
9, 99840, Note_on_c, 3, 56, 92
9, 99944, Note_on_c, 3, 56, 0
9, 99960, Note_on_c, 3, 53, 80
9, 100041, Note_on_c, 3, 53, 0
9, 100050, Note_on_c, 3, 53, 80
9, 100071, Note_on_c, 3, 53, 0
9, 100080, Note_on_c, 3, 55, 92
9, 100184, Note_on_c, 3, 55, 0
9, 100200, Note_on_c, 3, 43, 80
9, 100281, Note_on_c, 3, 43, 0
9, 100290, Note_on_c, 3, 43, 80
9, 100311, Note_on_c, 3, 43, 0
9, 100320, Note_on_c, 3, 48, 44
9, 100320, Note_on_c, 3, 60, 44
9, 100439, Note_on_c, 3, 48, 0
9, 100619, Note_on_c, 3, 60, 0
9, 100620, Note_on_c, 3, 63, 44
9, 100671, Note_on_c, 3, 63, 0
9, 100680, Note_on_c, 3, 62, 44
9, 100724, Note_on_c, 3, 62, 0
9, 100740, Note_on_c, 3, 60, 44
9, 100784, Note_on_c, 3, 60, 0
9, 100800, Note_on_c, 3, 60, 44
9, 101099, Note_on_c, 3, 60, 0
9, 101100, Note_on_c, 3, 63, 44
9, 101151, Note_on_c, 3, 63, 0
9, 101160, Note_on_c, 3, 62, 44
9, 101204, Note_on_c, 3, 62, 0
9, 101220, Note_on_c, 3, 60, 44
9, 101264, Note_on_c, 3, 60, 0
9, 101280, Note_on_c, 3, 60, 44
9, 101280, Note_on_c, 3, 56, 44
9, 101324, Note_on_c, 3, 60, 0
9, 101324, Note_on_c, 3, 56, 0
9, 101340, Note_on_c, 3, 60, 44
9, 101340, Note_on_c, 3, 56, 44
9, 101384, Note_on_c, 3, 60, 0
9, 101384, Note_on_c, 3, 56, 0
9, 101400, Note_on_c, 3, 58, 44
9, 101400, Note_on_c, 3, 55, 44
9, 101444, Note_on_c, 3, 58, 0
9, 101444, Note_on_c, 3, 55, 0
9, 101460, Note_on_c, 3, 53, 44
9, 101460, Note_on_c, 3, 56, 44
9, 101504, Note_on_c, 3, 53, 0
9, 101504, Note_on_c, 3, 56, 0
9, 101520, Note_on_c, 3, 56, 44
9, 101520, Note_on_c, 3, 53, 44
9, 101819, Note_on_c, 3, 56, 0
9, 101819, Note_on_c, 3, 53, 0
9, 101820, Note_on_c, 3, 60, 44
9, 101820, Note_on_c, 3, 56, 44
9, 101871, Note_on_c, 3, 60, 0
9, 101871, Note_on_c, 3, 56, 0
9, 101880, Note_on_c, 3, 58, 44
9, 101880, Note_on_c, 3, 55, 44
9, 101924, Note_on_c, 3, 58, 0
9, 101924, Note_on_c, 3, 55, 0
9, 101940, Note_on_c, 3, 53, 44
9, 101940, Note_on_c, 3, 56, 44
9, 101984, Note_on_c, 3, 53, 0
9, 101984, Note_on_c, 3, 56, 0
9, 102000, Note_on_c, 3, 53, 44
9, 102000, Note_on_c, 3, 56, 44
9, 102051, Note_on_c, 3, 53, 0
9, 102051, Note_on_c, 3, 56, 0
9, 102060, Note_on_c, 3, 62, 44
9, 102060, Note_on_c, 3, 53, 44
9, 102111, Note_on_c, 3, 62, 0
9, 102111, Note_on_c, 3, 53, 0
9, 102120, Note_on_c, 3, 55, 44
9, 102120, Note_on_c, 3, 62, 44
9, 102171, Note_on_c, 3, 55, 0
9, 102171, Note_on_c, 3, 62, 0
9, 102180, Note_on_c, 3, 62, 44
9, 102180, Note_on_c, 3, 57, 44
9, 102224, Note_on_c, 3, 62, 0
9, 102224, Note_on_c, 3, 57, 0
9, 102240, Note_on_c, 3, 54, 44
9, 102240, Note_on_c, 3, 57, 44
9, 102419, Note_on_c, 3, 54, 0
9, 102419, Note_on_c, 3, 57, 0
9, 102480, Note_on_c, 3, 54, 44
9, 102480, Note_on_c, 3, 57, 44
9, 102659, Note_on_c, 3, 54, 0
9, 102659, Note_on_c, 3, 57, 0
9, 102720, Note_on_c, 3, 65, 44
9, 102720, Note_on_c, 3, 55, 44
9, 102899, Note_on_c, 3, 65, 0
9, 102899, Note_on_c, 3, 55, 0
9, 102960, Note_on_c, 3, 62, 44
9, 102960, Note_on_c, 3, 55, 44
9, 103139, Note_on_c, 3, 62, 0
9, 103139, Note_on_c, 3, 55, 0
9, 103200, Note_on_c, 3, 48, 44
9, 103259, Note_on_c, 3, 48, 0
9, 103260, Note_on_c, 3, 59, 46
9, 103319, Note_on_c, 3, 59, 0
9, 103320, Note_on_c, 3, 60, 48
9, 103379, Note_on_c, 3, 60, 0
9, 103380, Note_on_c, 3, 59, 50
9, 103439, Note_on_c, 3, 59, 0
9, 103440, Note_on_c, 3, 60, 53
9, 103499, Note_on_c, 3, 60, 0
9, 103500, Note_on_c, 3, 59, 55
9, 103559, Note_on_c, 3, 59, 0
9, 103560, Note_on_c, 3, 60, 57
9, 103619, Note_on_c, 3, 60, 0
9, 103620, Note_on_c, 3, 62, 59
9, 103679, Note_on_c, 3, 62, 0
9, 103680, Note_on_c, 3, 63, 62
9, 103739, Note_on_c, 3, 63, 0
9, 103740, Note_on_c, 3, 62, 64
9, 103799, Note_on_c, 3, 62, 0
9, 103800, Note_on_c, 3, 63, 66
9, 103859, Note_on_c, 3, 63, 0
9, 103860, Note_on_c, 3, 65, 68
9, 103919, Note_on_c, 3, 65, 0
9, 103920, Note_on_c, 3, 67, 71
9, 103979, Note_on_c, 3, 67, 0
9, 103980, Note_on_c, 3, 55, 73
9, 104039, Note_on_c, 3, 55, 0
9, 104040, Note_on_c, 3, 56, 75
9, 104099, Note_on_c, 3, 56, 0
9, 104100, Note_on_c, 3, 55, 77
9, 104151, Note_on_c, 3, 55, 0
9, 104160, Note_on_c, 3, 48, 80
9, 104451, Note_on_c, 3, 48, 0
9, 104460, Note_on_c, 3, 51, 80
9, 104504, Note_on_c, 3, 51, 0
9, 104520, Note_on_c, 3, 50, 80
9, 104564, Note_on_c, 3, 50, 0
9, 104580, Note_on_c, 3, 48, 80
9, 104624, Note_on_c, 3, 48, 0
9, 104640, Note_on_c, 3, 55, 80
9, 104729, Note_on_c, 3, 55, 0
9, 104760, Note_on_c, 3, 53, 80
9, 104849, Note_on_c, 3, 53, 0
9, 104880, Note_on_c, 3, 50, 80
9, 104969, Note_on_c, 3, 50, 0
9, 105000, Note_on_c, 3, 55, 80
9, 105224, Note_on_c, 3, 55, 0
9, 105240, Note_on_c, 3, 51, 80
9, 105329, Note_on_c, 3, 51, 0
9, 105360, Note_on_c, 3, 48, 80
9, 105449, Note_on_c, 3, 48, 0
9, 105480, Note_on_c, 3, 55, 80
9, 105704, Note_on_c, 3, 55, 0
9, 105720, Note_on_c, 3, 50, 80
9, 105809, Note_on_c, 3, 50, 0
9, 105840, Note_on_c, 3, 47, 80
9, 105929, Note_on_c, 3, 47, 0
9, 105960, Note_on_c, 3, 55, 80
9, 106184, Note_on_c, 3, 55, 0
9, 106200, Note_on_c, 3, 53, 80
9, 106289, Note_on_c, 3, 53, 0
9, 106320, Note_on_c, 3, 51, 80
9, 106409, Note_on_c, 3, 51, 0
9, 106440, Note_on_c, 3, 50, 80
9, 106529, Note_on_c, 3, 50, 0
9, 106560, Note_on_c, 3, 48, 80
9, 106649, Note_on_c, 3, 48, 0
9, 106680, Note_on_c, 3, 49, 80
9, 106769, Note_on_c, 3, 49, 0
9, 106800, Note_on_c, 3, 50, 80
9, 106889, Note_on_c, 3, 50, 0
9, 106920, Note_on_c, 3, 50, 80
9, 107384, Note_on_c, 3, 50, 0
9, 107400, Note_on_c, 3, 38, 92
9, 107460, Control_c, 3, 11, 107
9, 107864, Note_on_c, 3, 38, 0
9, 107878, Control_c, 3, 11, 127
9, 107880, Note_on_c, 3, 38, 92
9, 107940, Control_c, 3, 11, 107
9, 108104, Note_on_c, 3, 38, 0
9, 108118, Control_c, 3, 11, 127
9, 108120, Note_on_c, 3, 62, 92
9, 108180, Control_c, 3, 11, 107
9, 108344, Note_on_c, 3, 62, 0
9, 108358, Control_c, 3, 11, 127
9, 108360, Note_on_c, 3, 38, 80
9, 108584, Note_on_c, 3, 38, 0
9, 108600, Note_on_c, 3, 62, 80
9, 108824, Note_on_c, 3, 62, 0
9, 108840, Note_on_c, 3, 38, 80
9, 109064, Note_on_c, 3, 38, 0
9, 109080, Note_on_c, 3, 43, 80
9, 109304, Note_on_c, 3, 43, 0
9, 109320, Note_on_c, 3, 55, 80
9, 109544, Note_on_c, 3, 55, 0
9, 109560, Note_on_c, 3, 60, 80
9, 109784, Note_on_c, 3, 60, 0
9, 109800, Note_on_c, 3, 48, 80
9, 110024, Note_on_c, 3, 48, 0
9, 110040, Note_on_c, 3, 41, 80
9, 110264, Note_on_c, 3, 41, 0
9, 110280, Note_on_c, 3, 53, 80
9, 110504, Note_on_c, 3, 53, 0
9, 110520, Note_on_c, 3, 53, 80
9, 110691, Note_on_c, 3, 53, 0
9, 110700, Note_on_c, 3, 57, 80
9, 110744, Note_on_c, 3, 57, 0
9, 110760, Note_on_c, 3, 55, 80
9, 110804, Note_on_c, 3, 55, 0
9, 110820, Note_on_c, 3, 53, 80
9, 110864, Note_on_c, 3, 53, 0
9, 110880, Note_on_c, 3, 58, 80
9, 110999, Note_on_c, 3, 58, 0
9, 112800, Note_on_c, 3, 58, 80
9, 113091, Note_on_c, 3, 58, 0
9, 113100, Note_on_c, 3, 62, 80
9, 113144, Note_on_c, 3, 62, 0
9, 113160, Note_on_c, 3, 60, 80
9, 113204, Note_on_c, 3, 60, 0
9, 113220, Note_on_c, 3, 58, 80
9, 113264, Note_on_c, 3, 58, 0
9, 113280, Note_on_c, 3, 65, 80
9, 113369, Note_on_c, 3, 65, 0
9, 113400, Note_on_c, 3, 63, 80
9, 113489, Note_on_c, 3, 63, 0
9, 113520, Note_on_c, 3, 60, 80
9, 113609, Note_on_c, 3, 60, 0
9, 113640, Note_on_c, 3, 65, 80
9, 113864, Note_on_c, 3, 65, 0
9, 113880, Note_on_c, 3, 62, 80
9, 113969, Note_on_c, 3, 62, 0
9, 114000, Note_on_c, 3, 58, 80
9, 114089, Note_on_c, 3, 58, 0
9, 114120, Note_on_c, 3, 65, 80
9, 114344, Note_on_c, 3, 65, 0
9, 114360, Note_on_c, 3, 60, 80
9, 114449, Note_on_c, 3, 60, 0
9, 114480, Note_on_c, 3, 57, 80
9, 114569, Note_on_c, 3, 57, 0
9, 114600, Note_on_c, 3, 65, 80
9, 114824, Note_on_c, 3, 65, 0
9, 114840, Note_on_c, 3, 62, 80
9, 114929, Note_on_c, 3, 62, 0
9, 114960, Note_on_c, 3, 58, 80
9, 115049, Note_on_c, 3, 58, 0
9, 115080, Note_on_c, 3, 67, 80
9, 115304, Note_on_c, 3, 67, 0
9, 115320, Note_on_c, 3, 62, 80
9, 115409, Note_on_c, 3, 62, 0
9, 115440, Note_on_c, 3, 50, 80
9, 115529, Note_on_c, 3, 50, 0
9, 115560, Note_on_c, 3, 67, 80
9, 115784, Note_on_c, 3, 67, 0
9, 115800, Note_on_c, 3, 62, 80
9, 115889, Note_on_c, 3, 62, 0
9, 115920, Note_on_c, 3, 50, 80
9, 116009, Note_on_c, 3, 50, 0
9, 116040, Note_on_c, 3, 65, 80
9, 116264, Note_on_c, 3, 65, 0
9, 116280, Note_on_c, 3, 59, 80
9, 116369, Note_on_c, 3, 59, 0
9, 116400, Note_on_c, 3, 50, 80
9, 116489, Note_on_c, 3, 50, 0
9, 116520, Note_on_c, 3, 65, 80
9, 116744, Note_on_c, 3, 65, 0
9, 116760, Note_on_c, 3, 59, 80
9, 116849, Note_on_c, 3, 59, 0
9, 116880, Note_on_c, 3, 50, 80
9, 116969, Note_on_c, 3, 50, 0
9, 117000, Note_on_c, 3, 64, 80
9, 117224, Note_on_c, 3, 64, 0
9, 117240, Note_on_c, 3, 57, 80
9, 117329, Note_on_c, 3, 57, 0
9, 117360, Note_on_c, 3, 50, 80
9, 117449, Note_on_c, 3, 50, 0
9, 117480, Note_on_c, 3, 64, 80
9, 117704, Note_on_c, 3, 64, 0
9, 117720, Note_on_c, 3, 57, 80
9, 117809, Note_on_c, 3, 57, 0
9, 117840, Note_on_c, 3, 50, 80
9, 117929, Note_on_c, 3, 50, 0
9, 117960, Note_on_c, 3, 62, 80
9, 118184, Note_on_c, 3, 62, 0
9, 118200, Note_on_c, 3, 52, 80
9, 118289, Note_on_c, 3, 52, 0
9, 118320, Note_on_c, 3, 45, 80
9, 118409, Note_on_c, 3, 45, 0
9, 118440, Note_on_c, 3, 62, 80
9, 118664, Note_on_c, 3, 62, 0
9, 118680, Note_on_c, 3, 52, 80
9, 118769, Note_on_c, 3, 52, 0
9, 118800, Note_on_c, 3, 45, 80
9, 118889, Note_on_c, 3, 45, 0
9, 118920, Note_on_c, 3, 60, 80
9, 119144, Note_on_c, 3, 60, 0
9, 119160, Note_on_c, 3, 56, 80
9, 119249, Note_on_c, 3, 56, 0
9, 119280, Note_on_c, 3, 53, 80
9, 119369, Note_on_c, 3, 53, 0
9, 119880, Note_on_c, 3, 60, 80
9, 120104, Note_on_c, 3, 60, 0
9, 120120, Note_on_c, 3, 56, 80
9, 120209, Note_on_c, 3, 56, 0
9, 120240, Note_on_c, 3, 53, 80
9, 120329, Note_on_c, 3, 53, 0
9, 121260, Note_on_c, 3, 62, 44
9, 121304, Note_on_c, 3, 62, 0
9, 121320, Note_on_c, 3, 64, 44
9, 121364, Note_on_c, 3, 64, 0
9, 121380, Note_on_c, 3, 65, 44
9, 121424, Note_on_c, 3, 65, 0
9, 121440, Note_on_c, 3, 65, 44
9, 121559, Note_on_c, 3, 65, 0
9, 121740, Note_on_c, 3, 62, 38
9, 121784, Note_on_c, 3, 62, 0
9, 121800, Note_on_c, 3, 64, 38
9, 121844, Note_on_c, 3, 64, 0
9, 121860, Note_on_c, 3, 65, 38
9, 121904, Note_on_c, 3, 65, 0
9, 121920, Note_on_c, 3, 60, 44
9, 121920, Note_on_c, 3, 57, 44
9, 122211, Note_on_c, 3, 60, 0
9, 122211, Note_on_c, 3, 57, 0
9, 122220, Note_on_c, 3, 64, 44
9, 122220, Note_on_c, 3, 60, 44
9, 122264, Note_on_c, 3, 64, 0
9, 122264, Note_on_c, 3, 60, 0
9, 122280, Note_on_c, 3, 59, 44
9, 122280, Note_on_c, 3, 62, 44
9, 122324, Note_on_c, 3, 59, 0
9, 122324, Note_on_c, 3, 62, 0
9, 122340, Note_on_c, 3, 57, 44
9, 122340, Note_on_c, 3, 60, 44
9, 122384, Note_on_c, 3, 57, 0
9, 122384, Note_on_c, 3, 60, 0
9, 122400, Note_on_c, 3, 60, 44
9, 122400, Note_on_c, 3, 57, 44
9, 122691, Note_on_c, 3, 60, 0
9, 122691, Note_on_c, 3, 57, 0
9, 122700, Note_on_c, 3, 60, 44
9, 122700, Note_on_c, 3, 64, 44
9, 122744, Note_on_c, 3, 60, 0
9, 122744, Note_on_c, 3, 64, 0
9, 122760, Note_on_c, 3, 59, 44
9, 122760, Note_on_c, 3, 62, 44
9, 122804, Note_on_c, 3, 59, 0
9, 122804, Note_on_c, 3, 62, 0
9, 122820, Note_on_c, 3, 57, 44
9, 122820, Note_on_c, 3, 60, 44
9, 122864, Note_on_c, 3, 57, 0
9, 122864, Note_on_c, 3, 60, 0
9, 122880, Note_on_c, 3, 56, 44
9, 122880, Note_on_c, 3, 59, 44
9, 122924, Note_on_c, 3, 59, 0
9, 122940, Note_on_c, 3, 59, 44
9, 122984, Note_on_c, 3, 59, 0
9, 122999, Note_on_c, 3, 56, 0
9, 123000, Note_on_c, 3, 60, 44
9, 123044, Note_on_c, 3, 60, 0
9, 123060, Note_on_c, 3, 62, 44
9, 123104, Note_on_c, 3, 62, 0
9, 123120, Note_on_c, 3, 62, 44
9, 123239, Note_on_c, 3, 62, 0
9, 123420, Note_on_c, 3, 59, 32
9, 123464, Note_on_c, 3, 59, 0
9, 123480, Note_on_c, 3, 60, 32
9, 123524, Note_on_c, 3, 60, 0
9, 123540, Note_on_c, 3, 62, 32
9, 123584, Note_on_c, 3, 62, 0
9, 123600, Note_on_c, 3, 62, 32
9, 123719, Note_on_c, 3, 62, 0
9, 126060, Note_on_c, 3, 57, 44
9, 126104, Note_on_c, 3, 57, 0
9, 126120, Note_on_c, 3, 59, 44
9, 126164, Note_on_c, 3, 59, 0
9, 126180, Note_on_c, 3, 60, 44
9, 126224, Note_on_c, 3, 60, 0
9, 126240, Note_on_c, 3, 60, 44
9, 126359, Note_on_c, 3, 60, 0
9, 126540, Note_on_c, 3, 57, 44
9, 126584, Note_on_c, 3, 57, 0
9, 126600, Note_on_c, 3, 59, 44
9, 126644, Note_on_c, 3, 59, 0
9, 126660, Note_on_c, 3, 60, 44
9, 126704, Note_on_c, 3, 60, 0
9, 126720, Note_on_c, 3, 62, 44
9, 126839, Note_on_c, 3, 62, 0
9, 127020, Note_on_c, 3, 59, 32
9, 127064, Note_on_c, 3, 59, 0
9, 127080, Note_on_c, 3, 60, 33
9, 127124, Note_on_c, 3, 60, 0
9, 127140, Note_on_c, 3, 62, 34
9, 127184, Note_on_c, 3, 62, 0
9, 127200, Note_on_c, 3, 62, 35
9, 127319, Note_on_c, 3, 62, 0
9, 127500, Note_on_c, 3, 59, 40
9, 127500, Note_on_c, 3, 52, 40
9, 127544, Note_on_c, 3, 59, 0
9, 127544, Note_on_c, 3, 52, 0
9, 127560, Note_on_c, 3, 52, 41
9, 127560, Note_on_c, 3, 60, 41
9, 127604, Note_on_c, 3, 52, 0
9, 127604, Note_on_c, 3, 60, 0
9, 127620, Note_on_c, 3, 64, 41
9, 127620, Note_on_c, 3, 52, 41
9, 127664, Note_on_c, 3, 64, 0
9, 127664, Note_on_c, 3, 52, 0
9, 127680, Note_on_c, 3, 53, 42
9, 127680, Note_on_c, 3, 65, 42
9, 127731, Note_on_c, 3, 53, 0
9, 127731, Note_on_c, 3, 65, 0
9, 127740, Note_on_c, 3, 41, 43
9, 127740, Note_on_c, 3, 53, 43
9, 127791, Note_on_c, 3, 41, 0
9, 127791, Note_on_c, 3, 53, 0
9, 127800, Note_on_c, 3, 53, 44
9, 127800, Note_on_c, 3, 41, 44
9, 127851, Note_on_c, 3, 53, 0
9, 127851, Note_on_c, 3, 41, 0
9, 127860, Note_on_c, 3, 53, 45
9, 127860, Note_on_c, 3, 41, 45
9, 127911, Note_on_c, 3, 53, 0
9, 127911, Note_on_c, 3, 41, 0
9, 127920, Note_on_c, 3, 60, 46
9, 127920, Note_on_c, 3, 48, 46
9, 127971, Note_on_c, 3, 60, 0
9, 127971, Note_on_c, 3, 48, 0
9, 127980, Note_on_c, 3, 36, 47
9, 127980, Note_on_c, 3, 48, 47
9, 128031, Note_on_c, 3, 36, 0
9, 128031, Note_on_c, 3, 48, 0
9, 128040, Note_on_c, 3, 48, 48
9, 128040, Note_on_c, 3, 36, 48
9, 128091, Note_on_c, 3, 48, 0
9, 128091, Note_on_c, 3, 36, 0
9, 128100, Note_on_c, 3, 36, 49
9, 128100, Note_on_c, 3, 48, 49
9, 128151, Note_on_c, 3, 36, 0
9, 128151, Note_on_c, 3, 48, 0
9, 128160, Note_on_c, 3, 38, 50
9, 128160, Note_on_c, 3, 50, 50
9, 128211, Note_on_c, 3, 38, 0
9, 128211, Note_on_c, 3, 50, 0
9, 128220, Note_on_c, 3, 50, 50
9, 128220, Note_on_c, 3, 38, 50
9, 128271, Note_on_c, 3, 50, 0
9, 128271, Note_on_c, 3, 38, 0
9, 128280, Note_on_c, 3, 50, 51
9, 128280, Note_on_c, 3, 38, 51
9, 128331, Note_on_c, 3, 50, 0
9, 128331, Note_on_c, 3, 38, 0
9, 128340, Note_on_c, 3, 50, 52
9, 128340, Note_on_c, 3, 38, 52
9, 128391, Note_on_c, 3, 50, 0
9, 128391, Note_on_c, 3, 38, 0
9, 128400, Note_on_c, 3, 45, 53
9, 128400, Note_on_c, 3, 57, 53
9, 128451, Note_on_c, 3, 45, 0
9, 128451, Note_on_c, 3, 57, 0
9, 128460, Note_on_c, 3, 45, 54
9, 128460, Note_on_c, 3, 57, 54
9, 128511, Note_on_c, 3, 45, 0
9, 128511, Note_on_c, 3, 57, 0
9, 128520, Note_on_c, 3, 45, 55
9, 128520, Note_on_c, 3, 57, 55
9, 128571, Note_on_c, 3, 45, 0
9, 128571, Note_on_c, 3, 57, 0
9, 128580, Note_on_c, 3, 57, 56
9, 128580, Note_on_c, 3, 45, 56
9, 128631, Note_on_c, 3, 57, 0
9, 128631, Note_on_c, 3, 45, 0
9, 128640, Note_on_c, 3, 62, 57
9, 128640, Note_on_c, 3, 50, 57
9, 128691, Note_on_c, 3, 62, 0
9, 128691, Note_on_c, 3, 50, 0
9, 128700, Note_on_c, 3, 50, 58
9, 128700, Note_on_c, 3, 62, 58
9, 128751, Note_on_c, 3, 50, 0
9, 128751, Note_on_c, 3, 62, 0
9, 128760, Note_on_c, 3, 50, 59
9, 128760, Note_on_c, 3, 62, 59
9, 128811, Note_on_c, 3, 50, 0
9, 128811, Note_on_c, 3, 62, 0
9, 128820, Note_on_c, 3, 50, 59
9, 128820, Note_on_c, 3, 62, 59
9, 128871, Note_on_c, 3, 50, 0
9, 128871, Note_on_c, 3, 62, 0
9, 128880, Note_on_c, 3, 65, 60
9, 128880, Note_on_c, 3, 53, 60
9, 128931, Note_on_c, 3, 65, 0
9, 128931, Note_on_c, 3, 53, 0
9, 128940, Note_on_c, 3, 53, 61
9, 128940, Note_on_c, 3, 65, 61
9, 128991, Note_on_c, 3, 53, 0
9, 128991, Note_on_c, 3, 65, 0
9, 129000, Note_on_c, 3, 65, 62
9, 129000, Note_on_c, 3, 53, 62
9, 129051, Note_on_c, 3, 65, 0
9, 129051, Note_on_c, 3, 53, 0
9, 129060, Note_on_c, 3, 65, 63
9, 129060, Note_on_c, 3, 53, 63
9, 129111, Note_on_c, 3, 65, 0
9, 129111, Note_on_c, 3, 53, 0
9, 129120, Note_on_c, 3, 67, 64
9, 129120, Note_on_c, 3, 55, 64
9, 129171, Note_on_c, 3, 67, 0
9, 129171, Note_on_c, 3, 55, 0
9, 129180, Note_on_c, 3, 67, 65
9, 129180, Note_on_c, 3, 55, 65
9, 129231, Note_on_c, 3, 67, 0
9, 129231, Note_on_c, 3, 55, 0
9, 129240, Note_on_c, 3, 55, 66
9, 129240, Note_on_c, 3, 67, 66
9, 129291, Note_on_c, 3, 55, 0
9, 129291, Note_on_c, 3, 67, 0
9, 129300, Note_on_c, 3, 55, 67
9, 129300, Note_on_c, 3, 67, 67
9, 129351, Note_on_c, 3, 55, 0
9, 129351, Note_on_c, 3, 67, 0
9, 129360, Note_on_c, 3, 69, 68
9, 129360, Note_on_c, 3, 57, 68
9, 129411, Note_on_c, 3, 69, 0
9, 129411, Note_on_c, 3, 57, 0
9, 129420, Note_on_c, 3, 60, 59
9, 129420, Note_on_c, 3, 57, 59
9, 129471, Note_on_c, 3, 60, 0
9, 129471, Note_on_c, 3, 57, 0
9, 129480, Note_on_c, 3, 57, 50
9, 129480, Note_on_c, 3, 60, 50
9, 129531, Note_on_c, 3, 57, 0
9, 129531, Note_on_c, 3, 60, 0
9, 129540, Note_on_c, 3, 57, 41
9, 129540, Note_on_c, 3, 60, 41
9, 129591, Note_on_c, 3, 57, 0
9, 129591, Note_on_c, 3, 60, 0
9, 129600, Note_on_c, 3, 56, 32
9, 129600, Note_on_c, 3, 59, 32
9, 129719, Note_on_c, 3, 56, 0
9, 129719, Note_on_c, 3, 59, 0
9, 129720, Note_on_c, 3, 57, 32
9, 129720, Note_on_c, 3, 60, 32
9, 129944, Note_on_c, 3, 57, 0
9, 129944, Note_on_c, 3, 60, 0
9, 129960, Note_on_c, 3, 57, 32
9, 129960, Note_on_c, 3, 60, 32
9, 130064, Note_on_c, 3, 57, 0
9, 130064, Note_on_c, 3, 60, 0
9, 130080, Note_on_c, 3, 59, 32
9, 130080, Note_on_c, 3, 56, 32
9, 130199, Note_on_c, 3, 59, 0
9, 130199, Note_on_c, 3, 56, 0
9, 130200, Note_on_c, 3, 57, 32
9, 130200, Note_on_c, 3, 60, 32
9, 130424, Note_on_c, 3, 57, 0
9, 130424, Note_on_c, 3, 60, 0
9, 130440, Note_on_c, 3, 60, 32
9, 130440, Note_on_c, 3, 57, 32
9, 130544, Note_on_c, 3, 60, 0
9, 130544, Note_on_c, 3, 57, 0
9, 130560, Note_on_c, 3, 59, 32
9, 130560, Note_on_c, 3, 56, 32
9, 130679, Note_on_c, 3, 59, 0
9, 130679, Note_on_c, 3, 56, 0
9, 130680, Note_on_c, 3, 60, 32
9, 130680, Note_on_c, 3, 57, 32
9, 130851, Note_on_c, 3, 60, 0
9, 130851, Note_on_c, 3, 57, 0
9, 130860, Note_on_c, 3, 65, 32
9, 130860, Note_on_c, 3, 53, 32
9, 130904, Note_on_c, 3, 65, 0
9, 130904, Note_on_c, 3, 53, 0
9, 130920, Note_on_c, 3, 52, 32
9, 130920, Note_on_c, 3, 64, 32
9, 130964, Note_on_c, 3, 52, 0
9, 130964, Note_on_c, 3, 64, 0
9, 130980, Note_on_c, 3, 62, 32
9, 130980, Note_on_c, 3, 50, 32
9, 131024, Note_on_c, 3, 62, 0
9, 131024, Note_on_c, 3, 50, 0
9, 131040, Note_on_c, 3, 60, 32
9, 131040, Note_on_c, 3, 48, 32
9, 131159, Note_on_c, 3, 60, 0
9, 131159, Note_on_c, 3, 48, 0
9, 131340, Note_on_c, 3, 50, 32
9, 131340, Note_on_c, 3, 38, 32
9, 131384, Note_on_c, 3, 50, 0
9, 131384, Note_on_c, 3, 38, 0
9, 131400, Note_on_c, 3, 48, 32
9, 131400, Note_on_c, 3, 36, 32
9, 131444, Note_on_c, 3, 48, 0
9, 131444, Note_on_c, 3, 36, 0
9, 131460, Note_on_c, 3, 35, 32
9, 131460, Note_on_c, 3, 47, 32
9, 131571, Note_on_c, 3, 35, 0
9, 131571, Note_on_c, 3, 47, 0
9, 131580, Note_on_c, 3, 45, 32
9, 131624, Note_on_c, 3, 45, 0
9, 131640, Note_on_c, 3, 36, 32
9, 131640, Note_on_c, 3, 48, 32
9, 131684, Note_on_c, 3, 36, 0
9, 131684, Note_on_c, 3, 48, 0
9, 131700, Note_on_c, 3, 52, 32
9, 131700, Note_on_c, 3, 40, 32
9, 131744, Note_on_c, 3, 52, 0
9, 131744, Note_on_c, 3, 40, 0
9, 131760, Note_on_c, 3, 57, 32
9, 131760, Note_on_c, 3, 45, 32
9, 131879, Note_on_c, 3, 57, 0
9, 131879, Note_on_c, 3, 45, 0
9, 132000, Note_on_c, 3, 36, 32
9, 132000, Note_on_c, 3, 48, 32
9, 132044, Note_on_c, 3, 36, 0
9, 132044, Note_on_c, 3, 48, 0
9, 132060, Note_on_c, 3, 40, 32
9, 132060, Note_on_c, 3, 52, 32
9, 132104, Note_on_c, 3, 40, 0
9, 132104, Note_on_c, 3, 52, 0
9, 132120, Note_on_c, 3, 45, 32
9, 132120, Note_on_c, 3, 57, 32
9, 132164, Note_on_c, 3, 45, 0
9, 132164, Note_on_c, 3, 57, 0
9, 132180, Note_on_c, 3, 59, 32
9, 132180, Note_on_c, 3, 47, 32
9, 132224, Note_on_c, 3, 59, 0
9, 132224, Note_on_c, 3, 47, 0
9, 132240, Note_on_c, 3, 60, 32
9, 132240, Note_on_c, 3, 48, 32
9, 132359, Note_on_c, 3, 60, 0
9, 132359, Note_on_c, 3, 48, 0
9, 132480, Note_on_c, 3, 47, 32
9, 132480, Note_on_c, 3, 35, 32
9, 132524, Note_on_c, 3, 47, 0
9, 132524, Note_on_c, 3, 35, 0
9, 132540, Note_on_c, 3, 38, 32
9, 132540, Note_on_c, 3, 50, 32
9, 132584, Note_on_c, 3, 38, 0
9, 132584, Note_on_c, 3, 50, 0
9, 132600, Note_on_c, 3, 53, 32
9, 132600, Note_on_c, 3, 41, 32
9, 132644, Note_on_c, 3, 53, 0
9, 132644, Note_on_c, 3, 41, 0
9, 132660, Note_on_c, 3, 44, 32
9, 132660, Note_on_c, 3, 56, 32
9, 132704, Note_on_c, 3, 44, 0
9, 132704, Note_on_c, 3, 56, 0
9, 132720, Note_on_c, 3, 59, 32
9, 132720, Note_on_c, 3, 47, 32
9, 132839, Note_on_c, 3, 59, 0
9, 132839, Note_on_c, 3, 47, 0
9, 132960, Note_on_c, 3, 50, 32
9, 132960, Note_on_c, 3, 38, 32
9, 133004, Note_on_c, 3, 50, 0
9, 133004, Note_on_c, 3, 38, 0
9, 133020, Note_on_c, 3, 41, 32
9, 133020, Note_on_c, 3, 53, 32
9, 133064, Note_on_c, 3, 41, 0
9, 133064, Note_on_c, 3, 53, 0
9, 133080, Note_on_c, 3, 56, 32
9, 133080, Note_on_c, 3, 44, 32
9, 133124, Note_on_c, 3, 56, 0
9, 133124, Note_on_c, 3, 44, 0
9, 133140, Note_on_c, 3, 47, 32
9, 133140, Note_on_c, 3, 59, 32
9, 133184, Note_on_c, 3, 47, 0
9, 133184, Note_on_c, 3, 59, 0
9, 133200, Note_on_c, 3, 62, 32
9, 133200, Note_on_c, 3, 50, 32
9, 133319, Note_on_c, 3, 62, 0
9, 133319, Note_on_c, 3, 50, 0
9, 135600, Note_on_c, 3, 45, 44
9, 135644, Note_on_c, 3, 45, 0
9, 135660, Note_on_c, 3, 48, 44
9, 135704, Note_on_c, 3, 48, 0
9, 135720, Note_on_c, 3, 53, 44
9, 135764, Note_on_c, 3, 53, 0
9, 135780, Note_on_c, 3, 57, 44
9, 135824, Note_on_c, 3, 57, 0
9, 135840, Note_on_c, 3, 60, 44
9, 135959, Note_on_c, 3, 60, 0
9, 136080, Note_on_c, 3, 45, 44
9, 136124, Note_on_c, 3, 45, 0
9, 136140, Note_on_c, 3, 48, 44
9, 136184, Note_on_c, 3, 48, 0
9, 136200, Note_on_c, 3, 53, 44
9, 136244, Note_on_c, 3, 53, 0
9, 136260, Note_on_c, 3, 57, 44
9, 136304, Note_on_c, 3, 57, 0
9, 136320, Note_on_c, 3, 46, 44
9, 136439, Note_on_c, 3, 46, 0
9, 136560, Note_on_c, 3, 52, 44
9, 136604, Note_on_c, 3, 52, 0
9, 136620, Note_on_c, 3, 55, 44
9, 136664, Note_on_c, 3, 55, 0
9, 136680, Note_on_c, 3, 48, 44
9, 136724, Note_on_c, 3, 48, 0
9, 136740, Note_on_c, 3, 52, 44
9, 136784, Note_on_c, 3, 52, 0
9, 136800, Note_on_c, 3, 55, 44
9, 136919, Note_on_c, 3, 55, 0
9, 137040, Note_on_c, 3, 55, 44
9, 137084, Note_on_c, 3, 55, 0
9, 137100, Note_on_c, 3, 48, 44
9, 137144, Note_on_c, 3, 48, 0
9, 137160, Note_on_c, 3, 52, 44
9, 137204, Note_on_c, 3, 52, 0
9, 137220, Note_on_c, 3, 55, 44
9, 137264, Note_on_c, 3, 55, 0
9, 137280, Note_on_c, 3, 53, 44
9, 138479, Note_on_c, 3, 53, 0
9, 138480, Note_on_c, 3, 52, 44
9, 139184, Note_on_c, 3, 52, 0
9, 139200, Note_on_c, 3, 53, 44
9, 139499, Note_on_c, 3, 53, 0
9, 139500, Note_on_c, 3, 57, 44
9, 139551, Note_on_c, 3, 57, 0
9, 139560, Note_on_c, 3, 55, 44
9, 139604, Note_on_c, 3, 55, 0
9, 139620, Note_on_c, 3, 53, 44
9, 139664, Note_on_c, 3, 53, 0
9, 139680, Note_on_c, 3, 53, 44
9, 139979, Note_on_c, 3, 53, 0
9, 139980, Note_on_c, 3, 57, 44
9, 140031, Note_on_c, 3, 57, 0
9, 140040, Note_on_c, 3, 55, 44
9, 140084, Note_on_c, 3, 55, 0
9, 140100, Note_on_c, 3, 53, 44
9, 140144, Note_on_c, 3, 53, 0
9, 140160, Note_on_c, 3, 53, 44
9, 140399, Note_on_c, 3, 53, 0
9, 140400, Note_on_c, 3, 52, 44
9, 141120, Control_c, 3, 11, 67
9, 141140, Control_c, 3, 11, 68
9, 141160, Control_c, 3, 11, 70
9, 141171, Note_on_c, 3, 52, 0
9, 141180, Note_on_c, 3, 55, 80
9, 141180, Note_on_c, 3, 64, 80
9, 141180, Control_c, 3, 11, 71
9, 141200, Control_c, 3, 11, 72
9, 141220, Control_c, 3, 11, 73
9, 141224, Note_on_c, 3, 55, 0
9, 141231, Note_on_c, 3, 64, 0
9, 141240, Note_on_c, 3, 65, 80
9, 141240, Control_c, 3, 11, 75
9, 141240, Note_on_c, 3, 57, 80
9, 141260, Control_c, 3, 11, 76
9, 141280, Control_c, 3, 11, 77
9, 141284, Note_on_c, 3, 57, 0
9, 141291, Note_on_c, 3, 65, 0
9, 141300, Note_on_c, 3, 67, 80
9, 141300, Note_on_c, 3, 58, 80
9, 141300, Control_c, 3, 11, 78
9, 141320, Control_c, 3, 11, 80
9, 141340, Control_c, 3, 11, 81
9, 141344, Note_on_c, 3, 58, 0
9, 141351, Note_on_c, 3, 67, 0
9, 141360, Note_on_c, 3, 58, 80
9, 141360, Control_c, 3, 11, 82
9, 141360, Note_on_c, 3, 67, 80
9, 141380, Control_c, 3, 11, 83
9, 141400, Control_c, 3, 11, 85
9, 141420, Control_c, 3, 11, 86
9, 141440, Control_c, 3, 11, 87
9, 141460, Control_c, 3, 11, 88
9, 141480, Control_c, 3, 11, 90
9, 141500, Control_c, 3, 11, 91
9, 141520, Control_c, 3, 11, 92
9, 141540, Control_c, 3, 11, 93
9, 141560, Control_c, 3, 11, 95
9, 141580, Control_c, 3, 11, 96
9, 141600, Control_c, 3, 11, 97
9, 141620, Control_c, 3, 11, 98
9, 141640, Control_c, 3, 11, 100
9, 141651, Note_on_c, 3, 58, 0
9, 141651, Note_on_c, 3, 67, 0
9, 141660, Control_c, 3, 11, 101
9, 141660, Note_on_c, 3, 64, 80
9, 141660, Note_on_c, 3, 55, 80
9, 141680, Control_c, 3, 11, 102
9, 141700, Control_c, 3, 11, 103
9, 141704, Note_on_c, 3, 64, 0
9, 141704, Note_on_c, 3, 55, 0
9, 141720, Note_on_c, 3, 57, 80
9, 141720, Control_c, 3, 11, 105
9, 141720, Note_on_c, 3, 65, 80
9, 141740, Control_c, 3, 11, 106
9, 141760, Control_c, 3, 11, 107
9, 141764, Note_on_c, 3, 57, 0
9, 141764, Note_on_c, 3, 65, 0
9, 141780, Control_c, 3, 11, 108
9, 141780, Note_on_c, 3, 58, 80
9, 141780, Note_on_c, 3, 67, 80
9, 141800, Control_c, 3, 11, 110
9, 141820, Control_c, 3, 11, 111
9, 141824, Note_on_c, 3, 58, 0
9, 141824, Note_on_c, 3, 67, 0
9, 141840, Note_on_c, 3, 67, 80
9, 141840, Note_on_c, 3, 58, 80
9, 141840, Control_c, 3, 11, 112
9, 141860, Control_c, 3, 11, 113
9, 141880, Control_c, 3, 11, 115
9, 141900, Control_c, 3, 11, 116
9, 141920, Control_c, 3, 11, 117
9, 141940, Control_c, 3, 11, 118
9, 141960, Control_c, 3, 11, 120
9, 141980, Control_c, 3, 11, 121
9, 142000, Control_c, 3, 11, 122
9, 142020, Control_c, 3, 11, 123
9, 142040, Control_c, 3, 11, 125
9, 142060, Control_c, 3, 11, 127
9, 142064, Note_on_c, 3, 67, 0
9, 142064, Note_on_c, 3, 58, 0
9, 142080, Note_on_c, 3, 67, 80
9, 142080, Note_on_c, 3, 58, 80
9, 142124, Note_on_c, 3, 67, 0
9, 142124, Note_on_c, 3, 58, 0
9, 142140, Note_on_c, 3, 67, 80
9, 142140, Note_on_c, 3, 55, 80
9, 142184, Note_on_c, 3, 67, 0
9, 142184, Note_on_c, 3, 55, 0
9, 142200, Note_on_c, 3, 53, 80
9, 142200, Note_on_c, 3, 65, 80
9, 142244, Note_on_c, 3, 53, 0
9, 142244, Note_on_c, 3, 65, 0
9, 142260, Note_on_c, 3, 52, 80
9, 142260, Note_on_c, 3, 64, 80
9, 142304, Note_on_c, 3, 52, 0
9, 142304, Note_on_c, 3, 64, 0
9, 142320, Note_on_c, 3, 61, 80
9, 142320, Note_on_c, 3, 49, 80
9, 142364, Note_on_c, 3, 61, 0
9, 142364, Note_on_c, 3, 49, 0
9, 142380, Note_on_c, 3, 64, 80
9, 142380, Note_on_c, 3, 52, 80
9, 142424, Note_on_c, 3, 64, 0
9, 142424, Note_on_c, 3, 52, 0
9, 142440, Note_on_c, 3, 62, 80
9, 142440, Note_on_c, 3, 50, 80
9, 142484, Note_on_c, 3, 62, 0
9, 142484, Note_on_c, 3, 50, 0
9, 142500, Note_on_c, 3, 49, 80
9, 142500, Note_on_c, 3, 61, 80
9, 142544, Note_on_c, 3, 49, 0
9, 142544, Note_on_c, 3, 61, 0
9, 142560, Note_on_c, 3, 55, 80
9, 142560, Note_on_c, 3, 43, 80
9, 142604, Note_on_c, 3, 55, 0
9, 142604, Note_on_c, 3, 43, 0
9, 142620, Note_on_c, 3, 46, 80
9, 142620, Note_on_c, 3, 58, 80
9, 142664, Note_on_c, 3, 46, 0
9, 142664, Note_on_c, 3, 58, 0
9, 142680, Note_on_c, 3, 45, 80
9, 142680, Note_on_c, 3, 57, 80
9, 142724, Note_on_c, 3, 45, 0
9, 142724, Note_on_c, 3, 57, 0
9, 142740, Note_on_c, 3, 55, 80
9, 142740, Note_on_c, 3, 43, 80
9, 142784, Note_on_c, 3, 55, 0
9, 142784, Note_on_c, 3, 43, 0
9, 142800, Note_on_c, 3, 40, 80
9, 142800, Note_on_c, 3, 52, 80
9, 142844, Note_on_c, 3, 40, 0
9, 142844, Note_on_c, 3, 52, 0
9, 142860, Note_on_c, 3, 43, 80
9, 142860, Note_on_c, 3, 55, 80
9, 142904, Note_on_c, 3, 43, 0
9, 142904, Note_on_c, 3, 55, 0
9, 142920, Note_on_c, 3, 41, 80
9, 142920, Note_on_c, 3, 53, 80
9, 142964, Note_on_c, 3, 41, 0
9, 142964, Note_on_c, 3, 53, 0
9, 142980, Note_on_c, 3, 52, 80
9, 142980, Note_on_c, 3, 40, 80
9, 143024, Note_on_c, 3, 52, 0
9, 143024, Note_on_c, 3, 40, 0
9, 143040, Note_on_c, 3, 49, 80
9, 143084, Note_on_c, 3, 49, 0
9, 143100, Note_on_c, 3, 52, 80
9, 143100, Note_on_c, 3, 64, 80
9, 143144, Note_on_c, 3, 52, 0
9, 143144, Note_on_c, 3, 64, 0
9, 143160, Note_on_c, 3, 62, 80
9, 143160, Note_on_c, 3, 50, 80
9, 143204, Note_on_c, 3, 62, 0
9, 143204, Note_on_c, 3, 50, 0
9, 143220, Note_on_c, 3, 61, 80
9, 143220, Note_on_c, 3, 49, 80
9, 143264, Note_on_c, 3, 61, 0
9, 143264, Note_on_c, 3, 49, 0
9, 143280, Note_on_c, 3, 55, 80
9, 143280, Note_on_c, 3, 43, 80
9, 143324, Note_on_c, 3, 55, 0
9, 143324, Note_on_c, 3, 43, 0
9, 143340, Note_on_c, 3, 58, 80
9, 143340, Note_on_c, 3, 46, 80
9, 143384, Note_on_c, 3, 58, 0
9, 143384, Note_on_c, 3, 46, 0
9, 143400, Note_on_c, 3, 45, 80
9, 143400, Note_on_c, 3, 57, 80
9, 143444, Note_on_c, 3, 45, 0
9, 143444, Note_on_c, 3, 57, 0
9, 143460, Note_on_c, 3, 43, 80
9, 143460, Note_on_c, 3, 55, 80
9, 143504, Note_on_c, 3, 43, 0
9, 143504, Note_on_c, 3, 55, 0
9, 143520, Note_on_c, 3, 52, 80
9, 143520, Note_on_c, 3, 40, 80
9, 143564, Note_on_c, 3, 52, 0
9, 143564, Note_on_c, 3, 40, 0
9, 143580, Note_on_c, 3, 53, 80
9, 143624, Note_on_c, 3, 53, 0
9, 143640, Note_on_c, 3, 52, 80
9, 143684, Note_on_c, 3, 52, 0
9, 143700, Note_on_c, 3, 50, 80
9, 143744, Note_on_c, 3, 50, 0
9, 143760, Note_on_c, 3, 49, 80
9, 143804, Note_on_c, 3, 49, 0
9, 143820, Note_on_c, 3, 46, 80
9, 143864, Note_on_c, 3, 46, 0
9, 143880, Note_on_c, 3, 45, 80
9, 143924, Note_on_c, 3, 45, 0
9, 143940, Note_on_c, 3, 43, 80
9, 143984, Note_on_c, 3, 43, 0
9, 144000, Note_on_c, 3, 42, 92
9, 145881, Note_on_c, 3, 42, 0
9, 145890, Note_on_c, 3, 42, 92
9, 145911, Note_on_c, 3, 42, 0
9, 145920, Note_on_c, 3, 42, 92
9, 147801, Note_on_c, 3, 42, 0
9, 147810, Note_on_c, 3, 42, 92
9, 147831, Note_on_c, 3, 42, 0
9, 147840, Note_on_c, 3, 42, 92
9, 148784, Note_on_c, 3, 42, 0
9, 148800, Note_on_c, 3, 42, 92
9, 149624, Note_on_c, 3, 42, 0
9, 149640, Note_on_c, 3, 41, 92
9, 149744, Note_on_c, 3, 41, 0
9, 149760, Note_on_c, 3, 34, 92
9, 150704, Note_on_c, 3, 34, 0
9, 150720, Note_on_c, 3, 41, 92
9, 150921, Note_on_c, 3, 41, 0
9, 150930, Note_on_c, 3, 41, 92
9, 150951, Note_on_c, 3, 41, 0
9, 150960, Note_on_c, 3, 45, 92
9, 151401, Note_on_c, 3, 45, 0
9, 151410, Note_on_c, 3, 45, 92
9, 151431, Note_on_c, 3, 45, 0
9, 151440, Note_on_c, 3, 50, 92
9, 151641, Note_on_c, 3, 50, 0
9, 151650, Note_on_c, 3, 50, 92
9, 151650, Note_on_c, 3, 62, 92
9, 151671, Note_on_c, 3, 50, 0
9, 151671, Note_on_c, 3, 62, 0
9, 151680, Note_on_c, 3, 57, 92
9, 151680, Note_on_c, 3, 45, 92
9, 152121, Note_on_c, 3, 57, 0
9, 152121, Note_on_c, 3, 45, 0
9, 152130, Note_on_c, 3, 53, 92
9, 152130, Note_on_c, 3, 41, 92
9, 152151, Note_on_c, 3, 53, 0
9, 152151, Note_on_c, 3, 41, 0
9, 152160, Note_on_c, 3, 62, 92
9, 152160, Note_on_c, 3, 50, 92
9, 152361, Note_on_c, 3, 62, 0
9, 152361, Note_on_c, 3, 50, 0
9, 152370, Note_on_c, 3, 45, 92
9, 152370, Note_on_c, 3, 57, 92
9, 152391, Note_on_c, 3, 45, 0
9, 152391, Note_on_c, 3, 57, 0
9, 152400, Note_on_c, 3, 41, 92
9, 152400, Note_on_c, 3, 53, 92
9, 152564, Note_on_c, 3, 41, 0
9, 152564, Note_on_c, 3, 53, 0
9, 152580, Note_on_c, 3, 57, 92
9, 152580, Note_on_c, 3, 45, 92
9, 152609, Note_on_c, 3, 57, 0
9, 152609, Note_on_c, 3, 45, 0
9, 152610, Note_on_c, 3, 53, 92
9, 152610, Note_on_c, 3, 41, 92
9, 152631, Note_on_c, 3, 53, 0
9, 152631, Note_on_c, 3, 41, 0
9, 152640, Note_on_c, 3, 50, 92
9, 152640, Note_on_c, 3, 38, 92
9, 153584, Note_on_c, 3, 50, 0
9, 153584, Note_on_c, 3, 38, 0
9, 153600, Note_on_c, 3, 50, 92
9, 153891, Note_on_c, 3, 50, 0
9, 153900, Note_on_c, 3, 53, 92
9, 153944, Note_on_c, 3, 53, 0
9, 153960, Note_on_c, 3, 52, 92
9, 154004, Note_on_c, 3, 52, 0
9, 154020, Note_on_c, 3, 50, 92
9, 154064, Note_on_c, 3, 50, 0
9, 154080, Note_on_c, 3, 57, 92
9, 154169, Note_on_c, 3, 57, 0
9, 154200, Note_on_c, 3, 55, 92
9, 154289, Note_on_c, 3, 55, 0
9, 154320, Note_on_c, 3, 52, 92
9, 154409, Note_on_c, 3, 52, 0
9, 154440, Note_on_c, 3, 57, 92
9, 154529, Note_on_c, 3, 57, 0
9, 154560, Note_on_c, 3, 54, 80
9, 155024, Note_on_c, 3, 54, 0
9, 155040, Note_on_c, 3, 51, 80
9, 155219, Note_on_c, 3, 51, 0
9, 155280, Note_on_c, 3, 54, 80
9, 155459, Note_on_c, 3, 54, 0
9, 155520, Note_on_c, 3, 55, 80
9, 155984, Note_on_c, 3, 55, 0
9, 156000, Note_on_c, 3, 55, 80
9, 156179, Note_on_c, 3, 55, 0
9, 156240, Note_on_c, 3, 55, 80
9, 156419, Note_on_c, 3, 55, 0
9, 156480, Note_on_c, 3, 55, 92
9, 156540, Control_c, 3, 11, 107
9, 157424, Note_on_c, 3, 55, 0
9, 157438, Control_c, 3, 11, 127
9, 157440, Note_on_c, 3, 57, 92
9, 157500, Control_c, 3, 11, 107
9, 157784, Note_on_c, 3, 57, 0
9, 157798, Control_c, 3, 11, 127
9, 157800, Note_on_c, 3, 55, 80
9, 157889, Note_on_c, 3, 55, 0
9, 157920, Note_on_c, 3, 54, 80
9, 158009, Note_on_c, 3, 54, 0
9, 158040, Note_on_c, 3, 51, 80
9, 158129, Note_on_c, 3, 51, 0
9, 158160, Note_on_c, 3, 50, 80
9, 158249, Note_on_c, 3, 50, 0
9, 158280, Note_on_c, 3, 48, 80
9, 158369, Note_on_c, 3, 48, 0
9, 158400, Note_on_c, 3, 47, 80
9, 158609, Note_on_c, 3, 47, 0
9, 158640, Note_on_c, 3, 46, 80
9, 158849, Note_on_c, 3, 46, 0
9, 159240, Note_on_c, 3, 49, 80
9, 159279, Note_on_c, 3, 49, 0
9, 159280, Note_on_c, 3, 50, 80
9, 159319, Note_on_c, 3, 50, 0
9, 159320, Note_on_c, 3, 52, 80
9, 159353, Note_on_c, 3, 52, 0
9, 159360, Note_on_c, 3, 53, 92
9, 159420, Control_c, 3, 11, 107
9, 159704, Note_on_c, 3, 53, 0
9, 159718, Control_c, 3, 11, 127
9, 159720, Note_on_c, 3, 52, 80
9, 159809, Note_on_c, 3, 52, 0
9, 159840, Note_on_c, 3, 50, 80
9, 159929, Note_on_c, 3, 50, 0
9, 159960, Note_on_c, 3, 48, 80
9, 160049, Note_on_c, 3, 48, 0
9, 160080, Note_on_c, 3, 46, 80
9, 160169, Note_on_c, 3, 46, 0
9, 160200, Note_on_c, 3, 45, 80
9, 160289, Note_on_c, 3, 45, 0
9, 160320, Note_on_c, 3, 44, 80
9, 160529, Note_on_c, 3, 44, 0
9, 160560, Note_on_c, 3, 43, 80
9, 160769, Note_on_c, 3, 43, 0
9, 161160, Note_on_c, 3, 49, 80
9, 161199, Note_on_c, 3, 49, 0
9, 161200, Note_on_c, 3, 50, 80
9, 161239, Note_on_c, 3, 50, 0
9, 161240, Note_on_c, 3, 52, 80
9, 161273, Note_on_c, 3, 52, 0
9, 161280, Note_on_c, 3, 52, 92
9, 161340, Control_c, 3, 11, 107
9, 161359, Control_c, 3, 11, 106
9, 161378, Control_c, 3, 11, 105
9, 161396, Control_c, 3, 11, 103
9, 161415, Control_c, 3, 11, 102
9, 161434, Control_c, 3, 11, 101
9, 161453, Control_c, 3, 11, 100
9, 161471, Control_c, 3, 11, 98
9, 161490, Control_c, 3, 11, 97
9, 161509, Control_c, 3, 11, 96
9, 161528, Control_c, 3, 11, 95
9, 161546, Control_c, 3, 11, 93
9, 161565, Control_c, 3, 11, 92
9, 161584, Control_c, 3, 11, 91
9, 161603, Control_c, 3, 11, 90
9, 161621, Control_c, 3, 11, 88
9, 161624, Note_on_c, 3, 52, 0
9, 161640, Note_on_c, 3, 50, 92
9, 161640, Control_c, 3, 11, 87
9, 161659, Control_c, 3, 11, 86
9, 161678, Control_c, 3, 11, 85
9, 161696, Control_c, 3, 11, 83
9, 161715, Control_c, 3, 11, 82
9, 161729, Note_on_c, 3, 50, 0
9, 161734, Control_c, 3, 11, 81
9, 161753, Control_c, 3, 11, 80
9, 161760, Note_on_c, 3, 49, 92
9, 161771, Control_c, 3, 11, 78
9, 161790, Control_c, 3, 11, 77
9, 161809, Control_c, 3, 11, 76
9, 161828, Control_c, 3, 11, 75
9, 161846, Control_c, 3, 11, 73
9, 161849, Note_on_c, 3, 49, 0
9, 161865, Control_c, 3, 11, 72
9, 161880, Note_on_c, 3, 47, 92
9, 161884, Control_c, 3, 11, 71
9, 161903, Control_c, 3, 11, 70
9, 161921, Control_c, 3, 11, 68
9, 161940, Control_c, 3, 11, 67
9, 161959, Control_c, 3, 11, 66
9, 161969, Note_on_c, 3, 47, 0
9, 161978, Control_c, 3, 11, 65
9, 161996, Control_c, 3, 11, 63
9, 162000, Note_on_c, 3, 45, 92
9, 162015, Control_c, 3, 11, 62
9, 162034, Control_c, 3, 11, 61
9, 162053, Control_c, 3, 11, 60
9, 162071, Control_c, 3, 11, 58
9, 162089, Note_on_c, 3, 45, 0
9, 162090, Control_c, 3, 11, 57
9, 162109, Control_c, 3, 11, 56
9, 162120, Note_on_c, 3, 43, 92
9, 162120, Note_on_c, 3, 55, 92
9, 162128, Control_c, 3, 11, 55
9, 162146, Control_c, 3, 11, 53
9, 162165, Control_c, 3, 11, 52
9, 162184, Control_c, 3, 11, 51
9, 162203, Control_c, 3, 11, 50
9, 162209, Note_on_c, 3, 43, 0
9, 162209, Note_on_c, 3, 55, 0
9, 162221, Control_c, 3, 11, 47
9, 162240, Note_on_c, 3, 55, 92
9, 162240, Note_on_c, 3, 52, 92
9, 162359, Note_on_c, 3, 55, 0
9, 162359, Note_on_c, 3, 52, 0
9, 162720, Control_c, 3, 11, 127
9, 162960, Note_on_c, 3, 64, 40
9, 163079, Note_on_c, 3, 64, 0
9, 163080, Note_on_c, 3, 62, 40
9, 163139, Note_on_c, 3, 62, 0
9, 163140, Note_on_c, 3, 61, 40
9, 163191, Note_on_c, 3, 61, 0
9, 163200, Note_on_c, 3, 67, 40
9, 163319, Note_on_c, 3, 67, 0
9, 163320, Note_on_c, 3, 66, 40
9, 163439, Note_on_c, 3, 66, 0
9, 164280, Note_on_c, 3, 64, 40
9, 164519, Note_on_c, 3, 64, 0
9, 164520, Note_on_c, 3, 66, 40
9, 164579, Note_on_c, 3, 66, 0
9, 164580, Note_on_c, 3, 67, 40
9, 164631, Note_on_c, 3, 67, 0
9, 164640, Note_on_c, 3, 67, 40
9, 164759, Note_on_c, 3, 67, 0
9, 164760, Note_on_c, 3, 66, 40
9, 164819, Note_on_c, 3, 66, 0
9, 164820, Note_on_c, 3, 64, 40
9, 164871, Note_on_c, 3, 64, 0
9, 164880, Note_on_c, 3, 64, 40
9, 164999, Note_on_c, 3, 64, 0
9, 165000, Note_on_c, 3, 66, 40
9, 165059, Note_on_c, 3, 66, 0
9, 165060, Note_on_c, 3, 67, 40
9, 165111, Note_on_c, 3, 67, 0
9, 165120, Note_on_c, 3, 66, 44
9, 165224, Note_on_c, 3, 66, 0
9, 165240, Note_on_c, 3, 54, 44
9, 165464, Note_on_c, 3, 54, 0
9, 165480, Note_on_c, 3, 59, 50
9, 165584, Note_on_c, 3, 59, 0
9, 165600, Note_on_c, 3, 57, 44
9, 165944, Note_on_c, 3, 57, 0
9, 165960, Note_on_c, 3, 62, 50
9, 166064, Note_on_c, 3, 62, 0
9, 166080, Note_on_c, 3, 61, 44
9, 166424, Note_on_c, 3, 61, 0
9, 166440, Note_on_c, 3, 67, 50
9, 166544, Note_on_c, 3, 67, 0
9, 166560, Note_on_c, 3, 52, 44
9, 166904, Note_on_c, 3, 52, 0
9, 166920, Note_on_c, 3, 59, 50
9, 167024, Note_on_c, 3, 59, 0
9, 167040, Note_on_c, 3, 57, 44
9, 167279, Note_on_c, 3, 57, 0
9, 168000, Control_c, 3, 11, 107
9, 168120, Control_c, 3, 11, 107
9, 168120, Note_on_c, 3, 53, 44
9, 168133, Control_c, 3, 11, 109
9, 168147, Control_c, 3, 11, 111
9, 168160, Control_c, 3, 11, 114
9, 168173, Control_c, 3, 11, 116
9, 168187, Control_c, 3, 11, 118
9, 168200, Control_c, 3, 11, 120
9, 168213, Control_c, 3, 11, 123
9, 168227, Control_c, 3, 11, 125
9, 168240, Control_c, 3, 11, 127
9, 168253, Control_c, 3, 11, 125
9, 168267, Control_c, 3, 11, 123
9, 168280, Control_c, 3, 11, 120
9, 168293, Control_c, 3, 11, 118
9, 168307, Control_c, 3, 11, 116
9, 168320, Control_c, 3, 11, 114
9, 168333, Control_c, 3, 11, 111
9, 168347, Control_c, 3, 11, 107
9, 168359, Note_on_c, 3, 53, 0
9, 168360, Note_on_c, 3, 58, 44
9, 168419, Note_on_c, 3, 58, 0
9, 168420, Note_on_c, 3, 57, 44
9, 168479, Note_on_c, 3, 57, 0
9, 169080, Note_on_c, 3, 61, 44
9, 169319, Note_on_c, 3, 61, 0
9, 169320, Note_on_c, 3, 65, 44
9, 169379, Note_on_c, 3, 65, 0
9, 169380, Note_on_c, 3, 64, 44
9, 169439, Note_on_c, 3, 64, 0
9, 169800, Note_on_c, 3, 67, 44
9, 169919, Note_on_c, 3, 67, 0
9, 169920, Note_on_c, 3, 65, 44
9, 170399, Note_on_c, 3, 65, 0
9, 170400, Note_on_c, 3, 66, 44
9, 170519, Note_on_c, 3, 66, 0
9, 170520, Note_on_c, 3, 67, 44
9, 170624, Note_on_c, 3, 67, 0
9, 170640, Note_on_c, 3, 61, 44
9, 170744, Note_on_c, 3, 61, 0
9, 170760, Note_on_c, 3, 61, 44
9, 170864, Note_on_c, 3, 61, 0
9, 170880, Note_on_c, 3, 62, 44
9, 170880, Note_on_c, 3, 50, 44
9, 171479, Note_on_c, 3, 62, 0
9, 171479, Note_on_c, 3, 50, 0
9, 171480, Note_on_c, 3, 45, 44
9, 171480, Note_on_c, 3, 57, 44
9, 171584, Note_on_c, 3, 45, 0
9, 171584, Note_on_c, 3, 57, 0
9, 171600, Note_on_c, 3, 45, 44
9, 171600, Note_on_c, 3, 57, 44
9, 171704, Note_on_c, 3, 45, 0
9, 171704, Note_on_c, 3, 57, 0
9, 171720, Note_on_c, 3, 45, 44
9, 171720, Note_on_c, 3, 57, 44
9, 171824, Note_on_c, 3, 45, 0
9, 171824, Note_on_c, 3, 57, 0
9, 171838, Control_c, 3, 11, 67
9, 171840, Note_on_c, 3, 34, 80
9, 171840, Control_c, 3, 11, 67
9, 171840, Note_on_c, 3, 46, 80
9, 171860, Control_c, 3, 11, 68
9, 171880, Control_c, 3, 11, 70
9, 171900, Control_c, 3, 11, 71
9, 171920, Control_c, 3, 11, 72
9, 171940, Control_c, 3, 11, 73
9, 171960, Control_c, 3, 11, 75
9, 171980, Control_c, 3, 11, 76
9, 172000, Control_c, 3, 11, 77
9, 172020, Control_c, 3, 11, 78
9, 172040, Control_c, 3, 11, 80
9, 172060, Control_c, 3, 11, 81
9, 172080, Control_c, 3, 11, 82
9, 172100, Control_c, 3, 11, 83
9, 172120, Control_c, 3, 11, 85
9, 172140, Control_c, 3, 11, 86
9, 172160, Control_c, 3, 11, 87
9, 172180, Control_c, 3, 11, 88
9, 172200, Control_c, 3, 11, 90
9, 172220, Control_c, 3, 11, 91
9, 172240, Control_c, 3, 11, 92
9, 172260, Control_c, 3, 11, 93
9, 172280, Control_c, 3, 11, 95
9, 172300, Control_c, 3, 11, 96
9, 172319, Note_on_c, 3, 34, 0
9, 172319, Note_on_c, 3, 46, 0
9, 172320, Note_on_c, 3, 45, 80
9, 172320, Control_c, 3, 11, 97
9, 172320, Note_on_c, 3, 57, 80
9, 172340, Control_c, 3, 11, 98
9, 172360, Control_c, 3, 11, 100
9, 172371, Note_on_c, 3, 45, 0
9, 172371, Note_on_c, 3, 57, 0
9, 172380, Note_on_c, 3, 43, 80
9, 172380, Control_c, 3, 11, 101
9, 172380, Note_on_c, 3, 55, 80
9, 172400, Control_c, 3, 11, 102
9, 172420, Control_c, 3, 11, 103
9, 172439, Note_on_c, 3, 43, 0
9, 172439, Note_on_c, 3, 55, 0
9, 172440, Note_on_c, 3, 42, 80
9, 172440, Note_on_c, 3, 54, 80
9, 172440, Control_c, 3, 11, 105
9, 172460, Control_c, 3, 11, 106
9, 172480, Control_c, 3, 11, 107
9, 172491, Note_on_c, 3, 42, 0
9, 172491, Note_on_c, 3, 54, 0
9, 172500, Note_on_c, 3, 51, 80
9, 172500, Control_c, 3, 11, 108
9, 172500, Note_on_c, 3, 39, 80
9, 172520, Control_c, 3, 11, 110
9, 172540, Control_c, 3, 11, 111
9, 172559, Note_on_c, 3, 51, 0
9, 172559, Note_on_c, 3, 39, 0
9, 172560, Control_c, 3, 11, 112
9, 172560, Note_on_c, 3, 38, 80
9, 172560, Note_on_c, 3, 50, 80
9, 172580, Control_c, 3, 11, 113
9, 172600, Control_c, 3, 11, 115
9, 172611, Note_on_c, 3, 38, 0
9, 172611, Note_on_c, 3, 50, 0
9, 172620, Note_on_c, 3, 54, 80
9, 172620, Note_on_c, 3, 48, 80
9, 172620, Control_c, 3, 11, 116
9, 172640, Control_c, 3, 11, 117
9, 172660, Control_c, 3, 11, 118
9, 172679, Note_on_c, 3, 54, 0
9, 172679, Note_on_c, 3, 48, 0
9, 172680, Note_on_c, 3, 55, 80
9, 172680, Control_c, 3, 11, 120
9, 172680, Note_on_c, 3, 46, 80
9, 172700, Control_c, 3, 11, 121
9, 172720, Control_c, 3, 11, 122
9, 172731, Note_on_c, 3, 55, 0
9, 172731, Note_on_c, 3, 46, 0
9, 172740, Control_c, 3, 11, 123
9, 172740, Note_on_c, 3, 57, 80
9, 172740, Note_on_c, 3, 45, 80
9, 172760, Control_c, 3, 11, 125
9, 172780, Control_c, 3, 11, 127
9, 172799, Note_on_c, 3, 57, 0
9, 172799, Note_on_c, 3, 45, 0
9, 172800, Note_on_c, 3, 58, 80
9, 172851, Note_on_c, 3, 58, 0
9, 172860, Note_on_c, 3, 60, 80
9, 172919, Note_on_c, 3, 60, 0
9, 172920, Note_on_c, 3, 62, 80
9, 172971, Note_on_c, 3, 62, 0
9, 172980, Note_on_c, 3, 64, 80
9, 173039, Note_on_c, 3, 64, 0
9, 173040, Note_on_c, 3, 65, 80
9, 173091, Note_on_c, 3, 65, 0
9, 173100, Note_on_c, 3, 67, 80
9, 173100, Note_on_c, 3, 62, 80
9, 173151, Note_on_c, 3, 62, 0
9, 173160, Note_on_c, 3, 60, 80
9, 173204, Note_on_c, 3, 67, 0
9, 173211, Note_on_c, 3, 60, 0
9, 173220, Note_on_c, 3, 58, 80
9, 173220, Note_on_c, 3, 67, 80
9, 173279, Note_on_c, 3, 58, 0
9, 173279, Note_on_c, 3, 67, 0
9, 173280, Note_on_c, 3, 65, 80
9, 173280, Note_on_c, 3, 57, 80
9, 173384, Note_on_c, 3, 65, 0
9, 173384, Note_on_c, 3, 57, 0
9, 173400, Note_on_c, 3, 62, 92
9, 173400, Note_on_c, 3, 65, 92
9, 173489, Note_on_c, 3, 62, 0
9, 173489, Note_on_c, 3, 65, 0
9, 173640, Note_on_c, 3, 57, 92
9, 173640, Note_on_c, 3, 61, 92
9, 173729, Note_on_c, 3, 57, 0
9, 173729, Note_on_c, 3, 61, 0
9, 174480, Control_c, 3, 11, 67
9, 174500, Control_c, 3, 11, 68
9, 174520, Control_c, 3, 11, 69
9, 174540, Note_on_c, 3, 48, 80
9, 174540, Control_c, 3, 11, 70
9, 174540, Note_on_c, 3, 60, 80
9, 174560, Control_c, 3, 11, 71
9, 174580, Control_c, 3, 11, 72
9, 174599, Note_on_c, 3, 48, 0
9, 174599, Note_on_c, 3, 60, 0
9, 174600, Note_on_c, 3, 58, 80
9, 174600, Note_on_c, 3, 46, 80
9, 174600, Control_c, 3, 11, 73
9, 174620, Control_c, 3, 11, 74
9, 174640, Control_c, 3, 11, 75
9, 174651, Note_on_c, 3, 58, 0
9, 174651, Note_on_c, 3, 46, 0
9, 174660, Note_on_c, 3, 57, 80
9, 174660, Note_on_c, 3, 45, 80
9, 174660, Control_c, 3, 11, 76
9, 174680, Control_c, 3, 11, 77
9, 174700, Control_c, 3, 11, 78
9, 174719, Note_on_c, 3, 57, 0
9, 174719, Note_on_c, 3, 45, 0
9, 174720, Note_on_c, 3, 55, 80
9, 174720, Control_c, 3, 11, 79
9, 174720, Note_on_c, 3, 43, 80
9, 174740, Control_c, 3, 11, 80
9, 174760, Control_c, 3, 11, 81
9, 174780, Control_c, 3, 11, 82
9, 174800, Control_c, 3, 11, 83
9, 174820, Control_c, 3, 11, 84
9, 174840, Control_c, 3, 11, 85
9, 174860, Control_c, 3, 11, 86
9, 174880, Control_c, 3, 11, 87
9, 174900, Control_c, 3, 11, 88
9, 174920, Control_c, 3, 11, 89
9, 174940, Control_c, 3, 11, 90
9, 174960, Control_c, 3, 11, 91
9, 174980, Control_c, 3, 11, 92
9, 175000, Control_c, 3, 11, 93
9, 175020, Control_c, 3, 11, 94
9, 175040, Control_c, 3, 11, 95
9, 175060, Control_c, 3, 11, 96
9, 175080, Control_c, 3, 11, 97
9, 175100, Control_c, 3, 11, 98
9, 175120, Control_c, 3, 11, 99
9, 175140, Control_c, 3, 11, 100
9, 175160, Control_c, 3, 11, 101
9, 175180, Control_c, 3, 11, 102
9, 175199, Note_on_c, 3, 55, 0
9, 175199, Note_on_c, 3, 43, 0
9, 175200, Note_on_c, 3, 53, 80
9, 175200, Note_on_c, 3, 65, 80
9, 175200, Control_c, 3, 11, 103
9, 175220, Control_c, 3, 11, 104
9, 175240, Control_c, 3, 11, 105
9, 175251, Note_on_c, 3, 53, 0
9, 175251, Note_on_c, 3, 65, 0
9, 175260, Note_on_c, 3, 51, 80
9, 175260, Control_c, 3, 11, 106
9, 175260, Note_on_c, 3, 63, 80
9, 175280, Control_c, 3, 11, 107
9, 175300, Control_c, 3, 11, 108
9, 175319, Note_on_c, 3, 51, 0
9, 175319, Note_on_c, 3, 63, 0
9, 175320, Note_on_c, 3, 50, 80
9, 175320, Control_c, 3, 11, 109
9, 175320, Note_on_c, 3, 62, 80
9, 175340, Control_c, 3, 11, 110
9, 175360, Control_c, 3, 11, 111
9, 175371, Note_on_c, 3, 50, 0
9, 175371, Note_on_c, 3, 62, 0
9, 175380, Note_on_c, 3, 60, 80
9, 175380, Control_c, 3, 11, 112
9, 175380, Note_on_c, 3, 48, 80
9, 175400, Control_c, 3, 11, 113
9, 175420, Control_c, 3, 11, 114
9, 175439, Note_on_c, 3, 60, 0
9, 175439, Note_on_c, 3, 48, 0
9, 175440, Note_on_c, 3, 46, 80
9, 175440, Note_on_c, 3, 58, 80
9, 175440, Control_c, 3, 11, 115
9, 175460, Control_c, 3, 11, 116
9, 175480, Control_c, 3, 11, 117
9, 175491, Note_on_c, 3, 46, 0
9, 175491, Note_on_c, 3, 58, 0
9, 175500, Note_on_c, 3, 44, 80
9, 175500, Note_on_c, 3, 56, 80
9, 175500, Control_c, 3, 11, 118
9, 175520, Control_c, 3, 11, 119
9, 175540, Control_c, 3, 11, 120
9, 175559, Note_on_c, 3, 44, 0
9, 175559, Note_on_c, 3, 56, 0
9, 175560, Note_on_c, 3, 55, 80
9, 175560, Control_c, 3, 11, 121
9, 175560, Note_on_c, 3, 43, 80
9, 175580, Control_c, 3, 11, 122
9, 175600, Control_c, 3, 11, 123
9, 175611, Note_on_c, 3, 55, 0
9, 175611, Note_on_c, 3, 43, 0
9, 175620, Note_on_c, 3, 53, 80
9, 175620, Note_on_c, 3, 41, 80
9, 175620, Control_c, 3, 11, 124
9, 175640, Control_c, 3, 11, 125
9, 175660, Control_c, 3, 11, 127
9, 175679, Note_on_c, 3, 53, 0
9, 175679, Note_on_c, 3, 41, 0
9, 175680, Note_on_c, 3, 39, 80
9, 175680, Note_on_c, 3, 51, 80
9, 176024, Note_on_c, 3, 39, 0
9, 176024, Note_on_c, 3, 51, 0
9, 176040, Note_on_c, 3, 38, 80
9, 176040, Note_on_c, 3, 50, 80
9, 176159, Note_on_c, 3, 38, 0
9, 176159, Note_on_c, 3, 50, 0
9, 176160, Note_on_c, 3, 49, 80
9, 176211, Note_on_c, 3, 49, 0
9, 176220, Note_on_c, 3, 58, 80
9, 176220, Note_on_c, 3, 46, 80
9, 176279, Note_on_c, 3, 58, 0
9, 176279, Note_on_c, 3, 46, 0
9, 176280, Note_on_c, 3, 45, 80
9, 176280, Note_on_c, 3, 57, 80
9, 176331, Note_on_c, 3, 45, 0
9, 176331, Note_on_c, 3, 57, 0
9, 176340, Note_on_c, 3, 43, 80
9, 176340, Note_on_c, 3, 55, 80
9, 176399, Note_on_c, 3, 43, 0
9, 176399, Note_on_c, 3, 55, 0
9, 176400, Note_on_c, 3, 53, 80
9, 176400, Note_on_c, 3, 41, 80
9, 176451, Note_on_c, 3, 53, 0
9, 176451, Note_on_c, 3, 41, 0
9, 176460, Note_on_c, 3, 52, 80
9, 176460, Note_on_c, 3, 40, 80
9, 176519, Note_on_c, 3, 52, 0
9, 176519, Note_on_c, 3, 40, 0
9, 176520, Note_on_c, 3, 38, 80
9, 176520, Note_on_c, 3, 50, 80
9, 176571, Note_on_c, 3, 38, 0
9, 176571, Note_on_c, 3, 50, 0
9, 176580, Note_on_c, 3, 49, 80
9, 176624, Note_on_c, 3, 49, 0
9, 176640, Note_on_c, 3, 41, 92
9, 176640, Note_on_c, 3, 53, 92
9, 176729, Note_on_c, 3, 41, 0
9, 176729, Note_on_c, 3, 53, 0
9, 176760, Note_on_c, 3, 41, 92
9, 176760, Note_on_c, 3, 53, 92
9, 176841, Note_on_c, 3, 41, 0
9, 176841, Note_on_c, 3, 53, 0
9, 176850, Note_on_c, 3, 53, 92
9, 176850, Note_on_c, 3, 41, 92
9, 176871, Note_on_c, 3, 53, 0
9, 176871, Note_on_c, 3, 41, 0
9, 176880, Note_on_c, 3, 54, 92
9, 176880, Note_on_c, 3, 42, 92
9, 176999, Note_on_c, 3, 54, 0
9, 176999, Note_on_c, 3, 42, 0
9, 177120, Note_on_c, 3, 43, 92
9, 177120, Note_on_c, 3, 55, 92
9, 177224, Note_on_c, 3, 43, 0
9, 177224, Note_on_c, 3, 55, 0
9, 177240, Note_on_c, 3, 54, 92
9, 177240, Note_on_c, 3, 42, 92
9, 177325, Note_on_c, 3, 54, 0
9, 177325, Note_on_c, 3, 42, 0
9, 177330, Note_on_c, 3, 42, 92
9, 177330, Note_on_c, 3, 54, 92
9, 177355, Note_on_c, 3, 42, 0
9, 177355, Note_on_c, 3, 54, 0
9, 177360, Note_on_c, 3, 55, 92
9, 177360, Note_on_c, 3, 43, 92
9, 177479, Note_on_c, 3, 55, 0
9, 177479, Note_on_c, 3, 43, 0
9, 177600, Note_on_c, 3, 55, 44
9, 177600, Note_on_c, 3, 43, 44
9, 177839, Note_on_c, 3, 55, 0
9, 177839, Note_on_c, 3, 43, 0
9, 177840, Note_on_c, 3, 67, 44
9, 177840, Note_on_c, 3, 55, 44
9, 178064, Note_on_c, 3, 67, 0
9, 178064, Note_on_c, 3, 55, 0
9, 178080, Note_on_c, 3, 57, 44
9, 178320, Note_on_c, 3, 45, 44
9, 178544, Note_on_c, 3, 57, 0
9, 178544, Note_on_c, 3, 45, 0
9, 178560, Note_on_c, 3, 50, 92
9, 178664, Note_on_c, 3, 50, 0
9, 178680, Note_on_c, 3, 49, 92
9, 178761, Note_on_c, 3, 49, 0
9, 178770, Note_on_c, 3, 49, 92
9, 178791, Note_on_c, 3, 49, 0
9, 178800, Note_on_c, 3, 50, 92
9, 178919, Note_on_c, 3, 50, 0
9, 179040, Note_on_c, 3, 51, 92
9, 179144, Note_on_c, 3, 51, 0
9, 179160, Note_on_c, 3, 50, 92
9, 179245, Note_on_c, 3, 50, 0
9, 179250, Note_on_c, 3, 50, 92
9, 179275, Note_on_c, 3, 50, 0
9, 179280, Note_on_c, 3, 51, 92
9, 179399, Note_on_c, 3, 51, 0
9, 180480, Note_on_c, 3, 63, 32
9, 180480, Note_on_c, 3, 55, 32
9, 181439, Note_on_c, 3, 63, 0
9, 181439, Note_on_c, 3, 55, 0
9, 181440, Note_on_c, 3, 65, 32
9, 181440, Note_on_c, 3, 56, 32
9, 182159, Note_on_c, 3, 56, 0
9, 182160, Note_on_c, 3, 58, 32
9, 182384, Note_on_c, 3, 65, 0
9, 182460, Note_on_c, 3, 56, 32
9, 182519, Note_on_c, 3, 58, 0
9, 182519, Note_on_c, 3, 56, 0
9, 182520, Note_on_c, 3, 55, 32
9, 182579, Note_on_c, 3, 55, 0
9, 182580, Note_on_c, 3, 53, 32
9, 182639, Note_on_c, 3, 53, 0
9, 182640, Note_on_c, 3, 51, 32
9, 182699, Note_on_c, 3, 51, 0
9, 182700, Note_on_c, 3, 50, 32
9, 182759, Note_on_c, 3, 50, 0
9, 182760, Note_on_c, 3, 48, 32
9, 182819, Note_on_c, 3, 48, 0
9, 182820, Note_on_c, 3, 46, 32
9, 182879, Note_on_c, 3, 46, 0
9, 182880, Note_on_c, 3, 44, 32
9, 182939, Note_on_c, 3, 44, 0
9, 182940, Note_on_c, 3, 43, 32
9, 182999, Note_on_c, 3, 43, 0
9, 183000, Note_on_c, 3, 41, 32
9, 183059, Note_on_c, 3, 41, 0
9, 183060, Note_on_c, 3, 39, 32
9, 183119, Note_on_c, 3, 39, 0
9, 183120, Note_on_c, 3, 38, 32
9, 183224, Note_on_c, 3, 38, 0
9, 183240, Note_on_c, 3, 50, 32
9, 183419, Note_on_c, 3, 50, 0
9, 183420, Note_on_c, 3, 49, 32
9, 183479, Note_on_c, 3, 49, 0
9, 183480, Note_on_c, 3, 57, 32
9, 183599, Note_on_c, 3, 57, 0
9, 183840, Note_on_c, 3, 50, 32
9, 183959, Note_on_c, 3, 50, 0
9, 183960, Note_on_c, 3, 58, 32
9, 184079, Note_on_c, 3, 58, 0
9, 184320, Note_on_c, 3, 53, 32
9, 184439, Note_on_c, 3, 53, 0
9, 184440, Note_on_c, 3, 62, 32
9, 184559, Note_on_c, 3, 62, 0
9, 184800, Note_on_c, 3, 57, 32
9, 184919, Note_on_c, 3, 57, 0
9, 184920, Note_on_c, 3, 66, 32
9, 185039, Note_on_c, 3, 66, 0
9, 185760, Note_on_c, 3, 58, 32
9, 186059, Note_on_c, 3, 58, 0
9, 186060, Note_on_c, 3, 57, 32
9, 186119, Note_on_c, 3, 57, 0
9, 186120, Note_on_c, 3, 55, 32
9, 186179, Note_on_c, 3, 55, 0
9, 186180, Note_on_c, 3, 52, 32
9, 186239, Note_on_c, 3, 52, 0
9, 186720, Note_on_c, 3, 59, 32
9, 187019, Note_on_c, 3, 59, 0
9, 187020, Note_on_c, 3, 57, 32
9, 187079, Note_on_c, 3, 57, 0
9, 187080, Note_on_c, 3, 54, 32
9, 187139, Note_on_c, 3, 54, 0
9, 187140, Note_on_c, 3, 50, 32
9, 187199, Note_on_c, 3, 50, 0
9, 187620, Control_c, 3, 11, 54
9, 187680, Note_on_c, 3, 58, 80
9, 187680, Control_c, 3, 11, 55
9, 187740, Control_c, 3, 11, 56
9, 187800, Control_c, 3, 11, 57
9, 187860, Control_c, 3, 11, 58
9, 187920, Control_c, 3, 11, 59
9, 187979, Note_on_c, 3, 58, 0
9, 187980, Control_c, 3, 11, 60
9, 187980, Note_on_c, 3, 57, 80
9, 188039, Note_on_c, 3, 57, 0
9, 188040, Note_on_c, 3, 55, 80
9, 188040, Control_c, 3, 11, 61
9, 188099, Note_on_c, 3, 55, 0
9, 188100, Control_c, 3, 11, 62
9, 188100, Note_on_c, 3, 52, 80
9, 188159, Note_on_c, 3, 52, 0
9, 188160, Control_c, 3, 11, 63
9, 188220, Control_c, 3, 11, 64
9, 188280, Control_c, 3, 11, 65
9, 188340, Control_c, 3, 11, 66
9, 188400, Control_c, 3, 11, 67
9, 188460, Control_c, 3, 11, 68
9, 188520, Control_c, 3, 11, 69
9, 188580, Control_c, 3, 11, 70
9, 188640, Note_on_c, 3, 59, 80
9, 188640, Control_c, 3, 11, 71
9, 188700, Control_c, 3, 11, 72
9, 188760, Control_c, 3, 11, 73
9, 188820, Control_c, 3, 11, 74
9, 188880, Control_c, 3, 11, 75
9, 188939, Note_on_c, 3, 59, 0
9, 188940, Note_on_c, 3, 57, 80
9, 188940, Control_c, 3, 11, 76
9, 188999, Note_on_c, 3, 57, 0
9, 189000, Control_c, 3, 11, 77
9, 189000, Note_on_c, 3, 54, 80
9, 189059, Note_on_c, 3, 54, 0
9, 189060, Note_on_c, 3, 50, 80
9, 189060, Control_c, 3, 11, 78
9, 189119, Note_on_c, 3, 50, 0
9, 189120, Control_c, 3, 11, 79
9, 189180, Control_c, 3, 11, 80
9, 189240, Control_c, 3, 11, 81
9, 189300, Control_c, 3, 11, 82
9, 189360, Note_on_c, 3, 58, 80
9, 189360, Control_c, 3, 11, 83
9, 189419, Note_on_c, 3, 58, 0
9, 189420, Note_on_c, 3, 57, 80
9, 189420, Control_c, 3, 11, 84
9, 189479, Note_on_c, 3, 57, 0
9, 189480, Note_on_c, 3, 55, 80
9, 189480, Control_c, 3, 11, 85
9, 189539, Note_on_c, 3, 55, 0
9, 189540, Control_c, 3, 11, 86
9, 189540, Note_on_c, 3, 52, 80
9, 189599, Note_on_c, 3, 52, 0
9, 189600, Control_c, 3, 11, 87
9, 189660, Control_c, 3, 11, 88
9, 189720, Control_c, 3, 11, 89
9, 189780, Control_c, 3, 11, 90
9, 189840, Control_c, 3, 11, 91
9, 189840, Note_on_c, 3, 59, 80
9, 189899, Note_on_c, 3, 59, 0
9, 189900, Note_on_c, 3, 57, 80
9, 189900, Control_c, 3, 11, 92
9, 189959, Note_on_c, 3, 57, 0
9, 189960, Note_on_c, 3, 54, 80
9, 189960, Control_c, 3, 11, 93
9, 190019, Note_on_c, 3, 54, 0
9, 190020, Note_on_c, 3, 50, 80
9, 190020, Control_c, 3, 11, 94
9, 190079, Note_on_c, 3, 50, 0
9, 190080, Control_c, 3, 11, 95
9, 190140, Control_c, 3, 11, 96
9, 190200, Control_c, 3, 11, 97
9, 190260, Control_c, 3, 11, 98
9, 190320, Note_on_c, 3, 58, 80
9, 190320, Control_c, 3, 11, 99
9, 190379, Note_on_c, 3, 58, 0
9, 190380, Note_on_c, 3, 57, 80
9, 190380, Control_c, 3, 11, 100
9, 190439, Note_on_c, 3, 57, 0
9, 190440, Control_c, 3, 11, 101
9, 190440, Note_on_c, 3, 55, 80
9, 190499, Note_on_c, 3, 55, 0
9, 190500, Note_on_c, 3, 52, 80
9, 190500, Control_c, 3, 11, 102
9, 190559, Note_on_c, 3, 52, 0
9, 190560, Control_c, 3, 11, 103
9, 190620, Control_c, 3, 11, 104
9, 190680, Control_c, 3, 11, 105
9, 190740, Control_c, 3, 11, 106
9, 190800, Control_c, 3, 11, 107
9, 190800, Note_on_c, 3, 58, 80
9, 190859, Note_on_c, 3, 58, 0
9, 190860, Control_c, 3, 11, 108
9, 190860, Note_on_c, 3, 57, 80
9, 190919, Note_on_c, 3, 57, 0
9, 190920, Control_c, 3, 11, 109
9, 190920, Note_on_c, 3, 53, 80
9, 190979, Note_on_c, 3, 53, 0
9, 190980, Note_on_c, 3, 50, 80
9, 190980, Control_c, 3, 11, 110
9, 191031, Note_on_c, 3, 50, 0
9, 191040, Note_on_c, 3, 58, 80
9, 191040, Control_c, 3, 11, 111
9, 191099, Note_on_c, 3, 58, 0
9, 191100, Control_c, 3, 11, 112
9, 191100, Note_on_c, 3, 57, 80
9, 191159, Note_on_c, 3, 57, 0
9, 191160, Note_on_c, 3, 61, 80
9, 191160, Control_c, 3, 11, 113
9, 191211, Note_on_c, 3, 61, 0
9, 191220, Control_c, 3, 11, 114
9, 191220, Note_on_c, 3, 61, 80
9, 191280, Control_c, 3, 11, 115
9, 191331, Note_on_c, 3, 61, 0
9, 191340, Control_c, 3, 11, 116
9, 191340, Note_on_c, 3, 61, 80
9, 191400, Control_c, 3, 11, 117
9, 191451, Note_on_c, 3, 61, 0
9, 191460, Control_c, 3, 11, 118
9, 191460, Note_on_c, 3, 62, 80
9, 191511, Note_on_c, 3, 62, 0
9, 191520, Note_on_c, 3, 58, 80
9, 191520, Control_c, 3, 11, 119
9, 191579, Note_on_c, 3, 58, 0
9, 191580, Control_c, 3, 11, 120
9, 191580, Note_on_c, 3, 57, 80
9, 191640, Control_c, 3, 11, 121
9, 191640, Note_on_c, 3, 67, 80
9, 191691, Note_on_c, 3, 57, 0
9, 191691, Note_on_c, 3, 67, 0
9, 191700, Note_on_c, 3, 67, 80
9, 191700, Note_on_c, 3, 57, 80
9, 191700, Control_c, 3, 11, 122
9, 191760, Control_c, 3, 11, 123
9, 191811, Note_on_c, 3, 67, 0
9, 191811, Note_on_c, 3, 57, 0
9, 191820, Control_c, 3, 11, 124
9, 191820, Note_on_c, 3, 67, 80
9, 191820, Note_on_c, 3, 57, 80
9, 191879, Note_on_c, 3, 57, 0
9, 191880, Control_c, 3, 11, 125
9, 191880, Note_on_c, 3, 58, 80
9, 191931, Note_on_c, 3, 67, 0
9, 191939, Note_on_c, 3, 58, 0
9, 191940, Note_on_c, 3, 65, 80
9, 191940, Control_c, 3, 11, 127
9, 191940, Note_on_c, 3, 57, 80
9, 191991, Note_on_c, 3, 65, 0
9, 191991, Note_on_c, 3, 57, 0
9, 192000, Note_on_c, 3, 50, 80
9, 192051, Note_on_c, 3, 50, 0
9, 192060, Note_on_c, 3, 52, 80
9, 192104, Note_on_c, 3, 52, 0
9, 192120, Note_on_c, 3, 67, 92
9, 192180, Control_c, 3, 11, 107
9, 192344, Note_on_c, 3, 67, 0
9, 192358, Control_c, 3, 11, 127
9, 192360, Note_on_c, 3, 52, 80
9, 192531, Note_on_c, 3, 52, 0
9, 192540, Note_on_c, 3, 53, 80
9, 192584, Note_on_c, 3, 53, 0
9, 192600, Note_on_c, 3, 69, 92
9, 192660, Control_c, 3, 11, 107
9, 192838, Control_c, 3, 11, 127
9, 192840, Note_on_c, 3, 43, 80
9, 192944, Note_on_c, 3, 69, 0
9, 193011, Note_on_c, 3, 43, 0
9, 193020, Note_on_c, 3, 45, 80
9, 193064, Note_on_c, 3, 45, 0
9, 193080, Note_on_c, 3, 58, 92
9, 193140, Control_c, 3, 11, 107
9, 193304, Note_on_c, 3, 58, 0
9, 193318, Control_c, 3, 11, 127
9, 193320, Note_on_c, 3, 43, 80
9, 193491, Note_on_c, 3, 43, 0
9, 193500, Note_on_c, 3, 45, 80
9, 193544, Note_on_c, 3, 45, 0
9, 193560, Note_on_c, 3, 60, 92
9, 193620, Control_c, 3, 11, 107
9, 193784, Note_on_c, 3, 60, 0
9, 193798, Control_c, 3, 11, 127
9, 193800, Note_on_c, 3, 45, 80
9, 193971, Note_on_c, 3, 45, 0
9, 193980, Note_on_c, 3, 46, 80
9, 194024, Note_on_c, 3, 46, 0
9, 194040, Note_on_c, 3, 62, 92
9, 194100, Control_c, 3, 11, 107
9, 194264, Note_on_c, 3, 62, 0
9, 194278, Control_c, 3, 11, 127
9, 194280, Note_on_c, 3, 47, 80
9, 194451, Note_on_c, 3, 47, 0
9, 194460, Note_on_c, 3, 49, 80
9, 194504, Note_on_c, 3, 49, 0
9, 194520, Note_on_c, 3, 64, 92
9, 194580, Control_c, 3, 11, 107
9, 194624, Note_on_c, 3, 64, 0
9, 194640, Note_on_c, 3, 67, 92
9, 194758, Control_c, 3, 11, 127
9, 194804, Note_on_c, 3, 67, 0
9, 194820, Note_on_c, 3, 55, 80
9, 194871, Note_on_c, 3, 55, 0
9, 194880, Note_on_c, 3, 53, 92
9, 194984, Note_on_c, 3, 53, 0
9, 195000, Note_on_c, 3, 41, 44
9, 195119, Note_on_c, 3, 41, 0
9, 195480, Note_on_c, 3, 55, 44
9, 195480, Note_on_c, 3, 61, 44
9, 195539, Note_on_c, 3, 55, 0
9, 195539, Note_on_c, 3, 61, 0
9, 195540, Note_on_c, 3, 53, 44
9, 195540, Note_on_c, 3, 62, 44
9, 195591, Note_on_c, 3, 53, 0
9, 195591, Note_on_c, 3, 62, 0
9, 195600, Note_on_c, 3, 53, 44
9, 195600, Note_on_c, 3, 62, 44
9, 195719, Note_on_c, 3, 53, 0
9, 195719, Note_on_c, 3, 62, 0
9, 196860, Note_on_c, 3, 60, 44
9, 196919, Note_on_c, 3, 60, 0
9, 196920, Note_on_c, 3, 63, 44
9, 196979, Note_on_c, 3, 63, 0
9, 196980, Note_on_c, 3, 58, 44
9, 197091, Note_on_c, 3, 58, 0
9, 197100, Note_on_c, 3, 57, 44
9, 197160, Note_on_c, 3, 60, 44
9, 197219, Note_on_c, 3, 57, 0
9, 197219, Note_on_c, 3, 60, 0
9, 197220, Note_on_c, 3, 55, 44
9, 197220, Note_on_c, 3, 58, 44
9, 197279, Note_on_c, 3, 55, 0
9, 197279, Note_on_c, 3, 58, 0
9, 197280, Note_on_c, 3, 54, 44
9, 197280, Note_on_c, 3, 57, 44
9, 197339, Note_on_c, 3, 54, 0
9, 197339, Note_on_c, 3, 57, 0
9, 197340, Note_on_c, 3, 60, 44
9, 197340, Note_on_c, 3, 57, 44
9, 197399, Note_on_c, 3, 60, 0
9, 197399, Note_on_c, 3, 57, 0
9, 197400, Note_on_c, 3, 58, 44
9, 197400, Note_on_c, 3, 62, 44
9, 197459, Note_on_c, 3, 58, 0
9, 197459, Note_on_c, 3, 62, 0
9, 197460, Note_on_c, 3, 60, 44
9, 197460, Note_on_c, 3, 63, 44
9, 197519, Note_on_c, 3, 60, 0
9, 197519, Note_on_c, 3, 63, 0
9, 197520, Note_on_c, 3, 58, 44
9, 197520, Note_on_c, 3, 62, 44
9, 197579, Note_on_c, 3, 58, 0
9, 197579, Note_on_c, 3, 62, 0
9, 197580, Note_on_c, 3, 57, 44
9, 197580, Note_on_c, 3, 60, 44
9, 197639, Note_on_c, 3, 57, 0
9, 197639, Note_on_c, 3, 60, 0
9, 198360, Note_on_c, 3, 60, 44
9, 198360, Note_on_c, 3, 63, 44
9, 198419, Note_on_c, 3, 60, 0
9, 198419, Note_on_c, 3, 63, 0
9, 198420, Note_on_c, 3, 58, 44
9, 198420, Note_on_c, 3, 62, 44
9, 198479, Note_on_c, 3, 58, 0
9, 198479, Note_on_c, 3, 62, 0
9, 198480, Note_on_c, 3, 60, 44
9, 198480, Note_on_c, 3, 63, 44
9, 198539, Note_on_c, 3, 60, 0
9, 198539, Note_on_c, 3, 63, 0
9, 198540, Note_on_c, 3, 62, 44
9, 198540, Note_on_c, 3, 58, 44
9, 198591, Note_on_c, 3, 62, 0
9, 198591, Note_on_c, 3, 58, 0
9, 198600, Note_on_c, 3, 62, 44
9, 198600, Note_on_c, 3, 58, 44
9, 198704, Note_on_c, 3, 62, 0
9, 198704, Note_on_c, 3, 58, 0
9, 198720, Note_on_c, 3, 58, 80
9, 198720, Note_on_c, 3, 62, 80
9, 198831, Note_on_c, 3, 58, 0
9, 198839, Note_on_c, 3, 62, 0
9, 198840, Note_on_c, 3, 63, 68
9, 198840, Note_on_c, 3, 58, 68
9, 198899, Note_on_c, 3, 63, 0
9, 198899, Note_on_c, 3, 58, 0
9, 198960, Note_on_c, 3, 64, 80
9, 198960, Note_on_c, 3, 58, 80
9, 199079, Note_on_c, 3, 64, 0
9, 199079, Note_on_c, 3, 58, 0
9, 199080, Note_on_c, 3, 65, 68
9, 199080, Note_on_c, 3, 57, 68
9, 199139, Note_on_c, 3, 65, 0
9, 199139, Note_on_c, 3, 57, 0
9, 199200, Note_on_c, 3, 62, 80
9, 199200, Note_on_c, 3, 55, 80
9, 199311, Note_on_c, 3, 55, 0
9, 199319, Note_on_c, 3, 62, 0
9, 199320, Note_on_c, 3, 63, 68
9, 199320, Note_on_c, 3, 55, 68
9, 199379, Note_on_c, 3, 63, 0
9, 199379, Note_on_c, 3, 55, 0
9, 199440, Note_on_c, 3, 65, 92
9, 199440, Note_on_c, 3, 57, 60
9, 199459, Note_on_c, 3, 65, 0
9, 199460, Note_on_c, 3, 67, 92
9, 199479, Note_on_c, 3, 67, 0
9, 199480, Note_on_c, 3, 65, 92
9, 199499, Note_on_c, 3, 65, 0
9, 199500, Note_on_c, 3, 67, 92
9, 199512, Note_on_c, 3, 67, 0
9, 199514, Note_on_c, 3, 65, 92
9, 199527, Note_on_c, 3, 65, 0
9, 199527, Note_on_c, 3, 64, 92
9, 199539, Note_on_c, 3, 64, 0
9, 199540, Note_on_c, 3, 65, 92
9, 199559, Note_on_c, 3, 57, 0
9, 199559, Note_on_c, 3, 65, 0
9, 199560, Note_on_c, 3, 67, 92
9, 199560, Note_on_c, 3, 57, 60
9, 199619, Note_on_c, 3, 67, 0
9, 199619, Note_on_c, 3, 57, 0
9, 199620, Note_on_c, 3, 64, 92
9, 199679, Note_on_c, 3, 64, 0
9, 199740, Note_on_c, 3, 62, 92
9, 199799, Note_on_c, 3, 62, 0
9, 199800, Note_on_c, 3, 63, 92
9, 199859, Note_on_c, 3, 63, 0
9, 199860, Note_on_c, 3, 58, 92
9, 199919, Note_on_c, 3, 58, 0
9, 199980, Note_on_c, 3, 61, 92
9, 200039, Note_on_c, 3, 61, 0
9, 200040, Note_on_c, 3, 62, 92
9, 200099, Note_on_c, 3, 62, 0
9, 200100, Note_on_c, 3, 57, 92
9, 200151, Note_on_c, 3, 57, 0
9, 200220, Note_on_c, 3, 55, 92
9, 200279, Note_on_c, 3, 55, 0
9, 200280, Note_on_c, 3, 58, 92
9, 200339, Note_on_c, 3, 58, 0
9, 200340, Note_on_c, 3, 43, 92
9, 200391, Note_on_c, 3, 43, 0
9, 200400, Note_on_c, 3, 65, 92
9, 200419, Note_on_c, 3, 65, 0
9, 200420, Note_on_c, 3, 67, 92
9, 200439, Note_on_c, 3, 67, 0
9, 200440, Note_on_c, 3, 65, 92
9, 200459, Note_on_c, 3, 65, 0
9, 200460, Note_on_c, 3, 67, 92
9, 200472, Note_on_c, 3, 67, 0
9, 200474, Note_on_c, 3, 65, 92
9, 200487, Note_on_c, 3, 65, 0
9, 200487, Note_on_c, 3, 64, 92
9, 200499, Note_on_c, 3, 64, 0
9, 200500, Note_on_c, 3, 65, 92
9, 200519, Note_on_c, 3, 65, 0
9, 200520, Note_on_c, 3, 67, 92
9, 200579, Note_on_c, 3, 67, 0
9, 200580, Note_on_c, 3, 64, 92
9, 200631, Note_on_c, 3, 64, 0
9, 200640, Note_on_c, 3, 38, 92
9, 200640, Note_on_c, 3, 50, 92
9, 200984, Note_on_c, 3, 38, 0
9, 200984, Note_on_c, 3, 50, 0
9, 201000, Note_on_c, 3, 50, 92
9, 201000, Note_on_c, 3, 38, 92
9, 201081, Note_on_c, 3, 50, 0
9, 201081, Note_on_c, 3, 38, 0
9, 201090, Note_on_c, 3, 38, 92
9, 201090, Note_on_c, 3, 50, 92
9, 201111, Note_on_c, 3, 38, 0
9, 201111, Note_on_c, 3, 50, 0
9, 201120, Note_on_c, 3, 41, 104
9, 201120, Note_on_c, 3, 53, 104
9, 201180, Control_c, 3, 11, 107
9, 201464, Note_on_c, 3, 41, 0
9, 201464, Note_on_c, 3, 53, 0
9, 201480, Note_on_c, 3, 53, 104
9, 201480, Note_on_c, 3, 41, 104
9, 201561, Note_on_c, 3, 53, 0
9, 201561, Note_on_c, 3, 41, 0
9, 201570, Note_on_c, 3, 53, 104
9, 201570, Note_on_c, 3, 41, 104
9, 201591, Note_on_c, 3, 53, 0
9, 201591, Note_on_c, 3, 41, 0
9, 201598, Control_c, 3, 11, 127
9, 201600, Note_on_c, 3, 57, 104
9, 201600, Note_on_c, 3, 45, 104
9, 201660, Control_c, 3, 11, 107
9, 201944, Note_on_c, 3, 57, 0
9, 201944, Note_on_c, 3, 45, 0
9, 201960, Note_on_c, 3, 45, 104
9, 201960, Note_on_c, 3, 57, 104
9, 202041, Note_on_c, 3, 45, 0
9, 202041, Note_on_c, 3, 57, 0
9, 202050, Note_on_c, 3, 45, 104
9, 202050, Note_on_c, 3, 57, 104
9, 202071, Note_on_c, 3, 45, 0
9, 202071, Note_on_c, 3, 57, 0
9, 202078, Control_c, 3, 11, 127
9, 202080, Note_on_c, 3, 50, 92
9, 202080, Note_on_c, 3, 62, 92
9, 202184, Note_on_c, 3, 50, 0
9, 202184, Note_on_c, 3, 62, 0
9, 202200, Note_on_c, 3, 62, 92
9, 202200, Note_on_c, 3, 50, 92
9, 202281, Note_on_c, 3, 62, 0
9, 202281, Note_on_c, 3, 50, 0
9, 202290, Note_on_c, 3, 62, 92
9, 202290, Note_on_c, 3, 50, 92
9, 202311, Note_on_c, 3, 62, 0
9, 202311, Note_on_c, 3, 50, 0
9, 202320, Note_on_c, 3, 65, 92
9, 202320, Note_on_c, 3, 53, 92
9, 202424, Note_on_c, 3, 65, 0
9, 202424, Note_on_c, 3, 53, 0
9, 202440, Note_on_c, 3, 65, 92
9, 202440, Note_on_c, 3, 53, 92
9, 202521, Note_on_c, 3, 65, 0
9, 202521, Note_on_c, 3, 53, 0
9, 202530, Note_on_c, 3, 53, 92
9, 202530, Note_on_c, 3, 65, 92
9, 202551, Note_on_c, 3, 53, 0
9, 202551, Note_on_c, 3, 65, 0
9, 202560, Note_on_c, 3, 57, 80
9, 202560, Note_on_c, 3, 69, 80
9, 202649, Note_on_c, 3, 57, 0
9, 202649, Note_on_c, 3, 69, 0
9, 202680, Note_on_c, 3, 62, 80
9, 202761, Note_on_c, 3, 62, 0
9, 202770, Note_on_c, 3, 62, 80
9, 202791, Note_on_c, 3, 62, 0
9, 202800, Note_on_c, 3, 65, 80
9, 202889, Note_on_c, 3, 65, 0
9, 202920, Note_on_c, 3, 57, 80
9, 203001, Note_on_c, 3, 57, 0
9, 203010, Note_on_c, 3, 57, 80
9, 203031, Note_on_c, 3, 57, 0
9, 203040, Note_on_c, 3, 62, 80
9, 203129, Note_on_c, 3, 62, 0
9, 203160, Note_on_c, 3, 53, 80
9, 203241, Note_on_c, 3, 53, 0
9, 203250, Note_on_c, 3, 53, 80
9, 203271, Note_on_c, 3, 53, 0
9, 203280, Note_on_c, 3, 57, 80
9, 203369, Note_on_c, 3, 57, 0
9, 203400, Note_on_c, 3, 50, 80
9, 203481, Note_on_c, 3, 50, 0
9, 203490, Note_on_c, 3, 50, 80
9, 203511, Note_on_c, 3, 50, 0
9, 203520, Note_on_c, 3, 53, 80
9, 203609, Note_on_c, 3, 53, 0
9, 203640, Note_on_c, 3, 45, 80
9, 203721, Note_on_c, 3, 45, 0
9, 203730, Note_on_c, 3, 45, 80
9, 203751, Note_on_c, 3, 45, 0
9, 203760, Note_on_c, 3, 50, 80
9, 203849, Note_on_c, 3, 50, 0
9, 203880, Note_on_c, 3, 41, 80
9, 203961, Note_on_c, 3, 41, 0
9, 203970, Note_on_c, 3, 41, 80
9, 203991, Note_on_c, 3, 41, 0
9, 204000, Note_on_c, 3, 45, 80
9, 204089, Note_on_c, 3, 45, 0
9, 204120, Note_on_c, 3, 38, 80
9, 204201, Note_on_c, 3, 38, 0
9, 204210, Note_on_c, 3, 38, 80
9, 204231, Note_on_c, 3, 38, 0
9, 204240, Note_on_c, 3, 62, 80
9, 204329, Note_on_c, 3, 62, 0
9, 204360, Note_on_c, 3, 38, 62
9, 204441, Note_on_c, 3, 38, 0
9, 204450, Note_on_c, 3, 62, 49
9, 204450, Note_on_c, 3, 38, 49
9, 204471, Note_on_c, 3, 62, 0
9, 204471, Note_on_c, 3, 38, 0
9, 204480, Note_on_c, 3, 38, 44
9, 204480, Note_on_c, 3, 57, 44
9, 204599, Note_on_c, 3, 38, 0
9, 204921, Note_on_c, 3, 57, 0
9, 204930, Note_on_c, 3, 53, 44
9, 204951, Note_on_c, 3, 53, 0
9, 204960, Note_on_c, 3, 50, 44
9, 205161, Note_on_c, 3, 50, 0
9, 205170, Note_on_c, 3, 45, 44
9, 205191, Note_on_c, 3, 45, 0
9, 205200, Note_on_c, 3, 41, 44
9, 205364, Note_on_c, 3, 41, 0
9, 205380, Note_on_c, 3, 45, 44
9, 205409, Note_on_c, 3, 45, 0
9, 205410, Note_on_c, 3, 41, 44
9, 205431, Note_on_c, 3, 41, 0
9, 205440, Note_on_c, 3, 38, 44
9, 205559, Note_on_c, 3, 38, 0
9, 206220, Note_on_c, 3, 58, 44
9, 206279, Note_on_c, 3, 58, 0
9, 206280, Note_on_c, 3, 57, 44
9, 206339, Note_on_c, 3, 57, 0
9, 206370, Note_on_c, 3, 55, 44
9, 206391, Note_on_c, 3, 55, 0
9, 206400, Note_on_c, 3, 67, 44
9, 206841, Note_on_c, 3, 67, 0
9, 206850, Note_on_c, 3, 64, 44
9, 206871, Note_on_c, 3, 64, 0
9, 206880, Note_on_c, 3, 61, 44
9, 207081, Note_on_c, 3, 61, 0
9, 207090, Note_on_c, 3, 58, 44
9, 207111, Note_on_c, 3, 58, 0
9, 207120, Note_on_c, 3, 55, 44
9, 207284, Note_on_c, 3, 55, 0
9, 207300, Note_on_c, 3, 55, 44
9, 207329, Note_on_c, 3, 55, 0
9, 207330, Note_on_c, 3, 52, 44
9, 207351, Note_on_c, 3, 52, 0
9, 207360, Note_on_c, 3, 49, 44
9, 207479, Note_on_c, 3, 49, 0
9, 208140, Note_on_c, 3, 60, 44
9, 208199, Note_on_c, 3, 60, 0
9, 208200, Note_on_c, 3, 58, 44
9, 208259, Note_on_c, 3, 58, 0
9, 208290, Note_on_c, 3, 57, 44
9, 208311, Note_on_c, 3, 57, 0
9, 208320, Note_on_c, 3, 60, 44
9, 208761, Note_on_c, 3, 60, 0
9, 208770, Note_on_c, 3, 57, 44
9, 208791, Note_on_c, 3, 57, 0
9, 208800, Note_on_c, 3, 54, 44
9, 209001, Note_on_c, 3, 54, 0
9, 209010, Note_on_c, 3, 51, 44
9, 209031, Note_on_c, 3, 51, 0
9, 209040, Note_on_c, 3, 48, 44
9, 209204, Note_on_c, 3, 48, 0
9, 209220, Note_on_c, 3, 60, 44
9, 209249, Note_on_c, 3, 60, 0
9, 209250, Note_on_c, 3, 57, 44
9, 209271, Note_on_c, 3, 57, 0
9, 209280, Note_on_c, 3, 54, 44
9, 209399, Note_on_c, 3, 54, 0
9, 210060, Note_on_c, 3, 63, 44
9, 210119, Note_on_c, 3, 63, 0
9, 210120, Note_on_c, 3, 62, 44
9, 210179, Note_on_c, 3, 62, 0
9, 210210, Note_on_c, 3, 60, 44
9, 210231, Note_on_c, 3, 60, 0
9, 210240, Note_on_c, 3, 60, 44
9, 210359, Note_on_c, 3, 60, 0
9, 210450, Note_on_c, 3, 60, 45
9, 210471, Note_on_c, 3, 60, 0
9, 210480, Note_on_c, 3, 57, 45
9, 210599, Note_on_c, 3, 57, 0
9, 210690, Note_on_c, 3, 54, 47
9, 210711, Note_on_c, 3, 54, 0
9, 210720, Note_on_c, 3, 50, 47
9, 210839, Note_on_c, 3, 50, 0
9, 210930, Note_on_c, 3, 48, 48
9, 210951, Note_on_c, 3, 48, 0
9, 210960, Note_on_c, 3, 47, 49
9, 211079, Note_on_c, 3, 47, 0
9, 211980, Note_on_c, 3, 55, 56
9, 212039, Note_on_c, 3, 55, 0
9, 212040, Note_on_c, 3, 53, 56
9, 212091, Note_on_c, 3, 53, 0
9, 212100, Note_on_c, 3, 52, 57
9, 212129, Note_on_c, 3, 52, 0
9, 212130, Note_on_c, 3, 60, 57
9, 212151, Note_on_c, 3, 60, 0
9, 212160, Note_on_c, 3, 58, 57
9, 212279, Note_on_c, 3, 58, 0
9, 212370, Note_on_c, 3, 55, 59
9, 212391, Note_on_c, 3, 55, 0
9, 212400, Note_on_c, 3, 52, 59
9, 212519, Note_on_c, 3, 52, 0
9, 212610, Note_on_c, 3, 48, 60
9, 212631, Note_on_c, 3, 48, 0
9, 212640, Note_on_c, 3, 46, 61
9, 212759, Note_on_c, 3, 46, 0
9, 212850, Note_on_c, 3, 43, 62
9, 212871, Note_on_c, 3, 43, 0
9, 212880, Note_on_c, 3, 40, 62
9, 212999, Note_on_c, 3, 40, 0
9, 213900, Note_on_c, 3, 67, 70
9, 213959, Note_on_c, 3, 67, 0
9, 213960, Note_on_c, 3, 65, 70
9, 214019, Note_on_c, 3, 65, 0
9, 214050, Note_on_c, 3, 64, 71
9, 214071, Note_on_c, 3, 64, 0
9, 214080, Note_on_c, 3, 61, 71
9, 214199, Note_on_c, 3, 61, 0
9, 214290, Note_on_c, 3, 58, 72
9, 214311, Note_on_c, 3, 58, 0
9, 214320, Note_on_c, 3, 55, 73
9, 214439, Note_on_c, 3, 55, 0
9, 214860, Note_on_c, 3, 58, 77
9, 214919, Note_on_c, 3, 58, 0
9, 214920, Note_on_c, 3, 57, 77
9, 214979, Note_on_c, 3, 57, 0
9, 215010, Note_on_c, 3, 55, 78
9, 215031, Note_on_c, 3, 55, 0
9, 215040, Note_on_c, 3, 55, 78
9, 215159, Note_on_c, 3, 55, 0
9, 215250, Note_on_c, 3, 52, 79
9, 215271, Note_on_c, 3, 52, 0
9, 215280, Note_on_c, 3, 49, 80
9, 215399, Note_on_c, 3, 49, 0
9, 215820, Note_on_c, 3, 58, 83
9, 215879, Note_on_c, 3, 58, 0
9, 215880, Note_on_c, 3, 57, 84
9, 215939, Note_on_c, 3, 57, 0
9, 215970, Note_on_c, 3, 55, 84
9, 215991, Note_on_c, 3, 55, 0
9, 216000, Note_on_c, 3, 55, 85
9, 216119, Note_on_c, 3, 55, 0
9, 216210, Note_on_c, 3, 52, 86
9, 216231, Note_on_c, 3, 52, 0
9, 216240, Note_on_c, 3, 49, 86
9, 216359, Note_on_c, 3, 49, 0
9, 216780, Note_on_c, 3, 58, 90
9, 216839, Note_on_c, 3, 58, 0
9, 216840, Note_on_c, 3, 57, 91
9, 216899, Note_on_c, 3, 57, 0
9, 216930, Note_on_c, 3, 58, 91
9, 216951, Note_on_c, 3, 58, 0
9, 216960, Note_on_c, 3, 53, 92
9, 216960, Note_on_c, 3, 57, 92
9, 217079, Note_on_c, 3, 57, 0
9, 217080, Note_on_c, 3, 69, 92
9, 217304, Note_on_c, 3, 53, 0
9, 217319, Note_on_c, 3, 69, 0
9, 217320, Note_on_c, 3, 68, 92
9, 217320, Note_on_c, 3, 53, 92
9, 217439, Note_on_c, 3, 68, 0
9, 217439, Note_on_c, 3, 53, 0
9, 217440, Note_on_c, 3, 67, 92
9, 217440, Note_on_c, 3, 52, 92
9, 217491, Note_on_c, 3, 67, 0
9, 217491, Note_on_c, 3, 52, 0
9, 217500, Note_on_c, 3, 62, 92
9, 217500, Note_on_c, 3, 65, 92
9, 217559, Note_on_c, 3, 62, 0
9, 217559, Note_on_c, 3, 65, 0
9, 217560, Note_on_c, 3, 64, 92
9, 217560, Note_on_c, 3, 61, 92
9, 217611, Note_on_c, 3, 64, 0
9, 217611, Note_on_c, 3, 61, 0
9, 217620, Note_on_c, 3, 58, 92
9, 217620, Note_on_c, 3, 62, 92
9, 217679, Note_on_c, 3, 58, 0
9, 217679, Note_on_c, 3, 62, 0
9, 217680, Note_on_c, 3, 61, 92
9, 217680, Note_on_c, 3, 57, 92
9, 217731, Note_on_c, 3, 61, 0
9, 217731, Note_on_c, 3, 57, 0
9, 217740, Note_on_c, 3, 58, 92
9, 217740, Note_on_c, 3, 55, 92
9, 217799, Note_on_c, 3, 58, 0
9, 217799, Note_on_c, 3, 55, 0
9, 217800, Note_on_c, 3, 53, 92
9, 217800, Note_on_c, 3, 57, 92
9, 217851, Note_on_c, 3, 53, 0
9, 217851, Note_on_c, 3, 57, 0
9, 217860, Note_on_c, 3, 52, 92
9, 217860, Note_on_c, 3, 55, 92
9, 217919, Note_on_c, 3, 52, 0
9, 217919, Note_on_c, 3, 55, 0
9, 217920, Note_on_c, 3, 50, 92
9, 217920, Note_on_c, 3, 53, 92
9, 217971, Note_on_c, 3, 50, 0
9, 217971, Note_on_c, 3, 53, 0
9, 217980, Note_on_c, 3, 55, 92
9, 217980, Note_on_c, 3, 48, 92
9, 218039, Note_on_c, 3, 55, 0
9, 218039, Note_on_c, 3, 48, 0
9, 218040, Note_on_c, 3, 57, 92
9, 218040, Note_on_c, 3, 46, 92
9, 218091, Note_on_c, 3, 57, 0
9, 218091, Note_on_c, 3, 46, 0
9, 218100, Note_on_c, 3, 58, 92
9, 218100, Note_on_c, 3, 45, 92
9, 218159, Note_on_c, 3, 58, 0
9, 218159, Note_on_c, 3, 45, 0
9, 218160, Note_on_c, 3, 60, 92
9, 218160, Note_on_c, 3, 43, 92
9, 218211, Note_on_c, 3, 60, 0
9, 218211, Note_on_c, 3, 43, 0
9, 218220, Note_on_c, 3, 41, 92
9, 218220, Note_on_c, 3, 62, 92
9, 218279, Note_on_c, 3, 41, 0
9, 218279, Note_on_c, 3, 62, 0
9, 218280, Note_on_c, 3, 64, 92
9, 218280, Note_on_c, 3, 40, 92
9, 218331, Note_on_c, 3, 64, 0
9, 218331, Note_on_c, 3, 40, 0
9, 218340, Note_on_c, 3, 65, 92
9, 218340, Note_on_c, 3, 38, 92
9, 218399, Note_on_c, 3, 65, 0
9, 218399, Note_on_c, 3, 38, 0
9, 218400, Note_on_c, 3, 55, 92
9, 218400, Note_on_c, 3, 58, 92
9, 218504, Note_on_c, 3, 55, 0
9, 218504, Note_on_c, 3, 58, 0
9, 218520, Note_on_c, 3, 67, 92
9, 218520, Note_on_c, 3, 58, 92
9, 218639, Note_on_c, 3, 67, 0
9, 218639, Note_on_c, 3, 58, 0
9, 218760, Note_on_c, 3, 61, 92
9, 218760, Note_on_c, 3, 64, 92
9, 218879, Note_on_c, 3, 61, 0
9, 218879, Note_on_c, 3, 64, 0
9, 218880, Control_c, 3, 11, 67
9, 218928, Control_c, 3, 11, 68
9, 218940, Note_on_c, 3, 45, 80
9, 218976, Control_c, 3, 11, 69
9, 218999, Note_on_c, 3, 45, 0
9, 219000, Note_on_c, 3, 46, 80
9, 219024, Control_c, 3, 11, 70
9, 219059, Note_on_c, 3, 46, 0
9, 219060, Note_on_c, 3, 45, 80
9, 219072, Control_c, 3, 11, 71
9, 219119, Note_on_c, 3, 45, 0
9, 219120, Control_c, 3, 11, 72
9, 219120, Note_on_c, 3, 46, 80
9, 219168, Control_c, 3, 11, 73
9, 219171, Note_on_c, 3, 46, 0
9, 219180, Note_on_c, 3, 47, 80
9, 219216, Control_c, 3, 11, 74
9, 219239, Note_on_c, 3, 47, 0
9, 219240, Note_on_c, 3, 49, 80
9, 219264, Control_c, 3, 11, 75
9, 219291, Note_on_c, 3, 49, 0
9, 219300, Note_on_c, 3, 50, 80
9, 219312, Control_c, 3, 11, 76
9, 219359, Note_on_c, 3, 50, 0
9, 219360, Control_c, 3, 11, 77
9, 219360, Note_on_c, 3, 52, 80
9, 219408, Control_c, 3, 11, 78
9, 219411, Note_on_c, 3, 52, 0
9, 219420, Note_on_c, 3, 53, 80
9, 219456, Control_c, 3, 11, 79
9, 219479, Note_on_c, 3, 53, 0
9, 219480, Note_on_c, 3, 55, 80
9, 219504, Control_c, 3, 11, 80
9, 219531, Note_on_c, 3, 55, 0
9, 219540, Note_on_c, 3, 57, 80
9, 219552, Control_c, 3, 11, 81
9, 219599, Note_on_c, 3, 57, 0
9, 219600, Note_on_c, 3, 58, 80
9, 219600, Control_c, 3, 11, 82
9, 219648, Control_c, 3, 11, 83
9, 219651, Note_on_c, 3, 58, 0
9, 219660, Note_on_c, 3, 61, 80
9, 219696, Control_c, 3, 11, 84
9, 219719, Note_on_c, 3, 61, 0
9, 219720, Note_on_c, 3, 62, 80
9, 219744, Control_c, 3, 11, 85
9, 219771, Note_on_c, 3, 62, 0
9, 219780, Note_on_c, 3, 64, 80
9, 219792, Control_c, 3, 11, 86
9, 219839, Note_on_c, 3, 64, 0
9, 219840, Note_on_c, 3, 38, 80
9, 219840, Control_c, 3, 11, 87
9, 219840, Note_on_c, 3, 50, 80
9, 219888, Control_c, 3, 11, 88
9, 219936, Control_c, 3, 11, 89
9, 219984, Control_c, 3, 11, 90
9, 220032, Control_c, 3, 11, 91
9, 220080, Control_c, 3, 11, 92
9, 220128, Control_c, 3, 11, 93
9, 220176, Control_c, 3, 11, 94
9, 220199, Note_on_c, 3, 38, 0
9, 220199, Note_on_c, 3, 50, 0
9, 220200, Note_on_c, 3, 48, 80
9, 220200, Note_on_c, 3, 36, 80
9, 220224, Control_c, 3, 11, 95
9, 220272, Control_c, 3, 11, 96
9, 220319, Note_on_c, 3, 48, 0
9, 220319, Note_on_c, 3, 36, 0
9, 220320, Note_on_c, 3, 60, 80
9, 220320, Control_c, 3, 11, 97
9, 220320, Note_on_c, 3, 48, 80
9, 220368, Control_c, 3, 11, 98
9, 220371, Note_on_c, 3, 60, 0
9, 220371, Note_on_c, 3, 48, 0
9, 220380, Note_on_c, 3, 58, 80
9, 220380, Note_on_c, 3, 46, 80
9, 220416, Control_c, 3, 11, 99
9, 220439, Note_on_c, 3, 58, 0
9, 220439, Note_on_c, 3, 46, 0
9, 220440, Note_on_c, 3, 57, 80
9, 220440, Note_on_c, 3, 45, 80
9, 220464, Control_c, 3, 11, 100
9, 220491, Note_on_c, 3, 57, 0
9, 220491, Note_on_c, 3, 45, 0
9, 220500, Note_on_c, 3, 55, 80
9, 220500, Note_on_c, 3, 43, 80
9, 220512, Control_c, 3, 11, 101
9, 220559, Note_on_c, 3, 55, 0
9, 220559, Note_on_c, 3, 43, 0
9, 220560, Control_c, 3, 11, 102
9, 220560, Note_on_c, 3, 53, 80
9, 220560, Note_on_c, 3, 41, 80
9, 220608, Control_c, 3, 11, 103
9, 220611, Note_on_c, 3, 53, 0
9, 220611, Note_on_c, 3, 41, 0
9, 220620, Note_on_c, 3, 51, 80
9, 220620, Note_on_c, 3, 39, 80
9, 220656, Control_c, 3, 11, 104
9, 220679, Note_on_c, 3, 51, 0
9, 220679, Note_on_c, 3, 39, 0
9, 220680, Note_on_c, 3, 38, 80
9, 220680, Note_on_c, 3, 50, 80
9, 220704, Control_c, 3, 11, 105
9, 220731, Note_on_c, 3, 38, 0
9, 220731, Note_on_c, 3, 50, 0
9, 220740, Note_on_c, 3, 48, 80
9, 220740, Note_on_c, 3, 36, 80
9, 220752, Control_c, 3, 11, 106
9, 220799, Note_on_c, 3, 48, 0
9, 220799, Note_on_c, 3, 36, 0
9, 220800, Note_on_c, 3, 34, 80
9, 220800, Control_c, 3, 11, 107
9, 220800, Note_on_c, 3, 46, 80
9, 220848, Control_c, 3, 11, 108
9, 220851, Note_on_c, 3, 34, 0
9, 220851, Note_on_c, 3, 46, 0
9, 220860, Note_on_c, 3, 54, 80
9, 220896, Control_c, 3, 11, 109
9, 220919, Note_on_c, 3, 54, 0
9, 220920, Note_on_c, 3, 55, 80
9, 220944, Control_c, 3, 11, 110
9, 220971, Note_on_c, 3, 55, 0
9, 220980, Note_on_c, 3, 57, 80
9, 220992, Control_c, 3, 11, 111
9, 221039, Note_on_c, 3, 57, 0
9, 221040, Control_c, 3, 11, 112
9, 221040, Note_on_c, 3, 58, 80
9, 221088, Control_c, 3, 11, 113
9, 221091, Note_on_c, 3, 58, 0
9, 221100, Note_on_c, 3, 48, 80
9, 221136, Control_c, 3, 11, 114
9, 221159, Note_on_c, 3, 48, 0
9, 221160, Note_on_c, 3, 50, 80
9, 221184, Control_c, 3, 11, 115
9, 221211, Note_on_c, 3, 50, 0
9, 221220, Note_on_c, 3, 52, 80
9, 221232, Control_c, 3, 11, 116
9, 221279, Note_on_c, 3, 52, 0
9, 221280, Note_on_c, 3, 54, 80
9, 221280, Control_c, 3, 11, 117
9, 221328, Control_c, 3, 11, 118
9, 221331, Note_on_c, 3, 54, 0
9, 221340, Note_on_c, 3, 55, 80
9, 221376, Control_c, 3, 11, 119
9, 221399, Note_on_c, 3, 55, 0
9, 221400, Note_on_c, 3, 57, 80
9, 221424, Control_c, 3, 11, 120
9, 221451, Note_on_c, 3, 57, 0
9, 221460, Note_on_c, 3, 58, 80
9, 221472, Control_c, 3, 11, 121
9, 221519, Note_on_c, 3, 58, 0
9, 221520, Note_on_c, 3, 60, 80
9, 221520, Control_c, 3, 11, 122
9, 221568, Control_c, 3, 11, 123
9, 221571, Note_on_c, 3, 60, 0
9, 221580, Note_on_c, 3, 62, 80
9, 221616, Control_c, 3, 11, 124
9, 221639, Note_on_c, 3, 62, 0
9, 221640, Note_on_c, 3, 64, 80
9, 221664, Control_c, 3, 11, 125
9, 221691, Note_on_c, 3, 64, 0
9, 221700, Note_on_c, 3, 66, 80
9, 221712, Control_c, 3, 11, 127
9, 221759, Note_on_c, 3, 66, 0
9, 221760, Note_on_c, 3, 67, 80
9, 221864, Note_on_c, 3, 67, 0
9, 221880, Note_on_c, 3, 58, 80
9, 221880, Note_on_c, 3, 55, 80
9, 221961, Note_on_c, 3, 58, 0
9, 221961, Note_on_c, 3, 55, 0
9, 221970, Note_on_c, 3, 55, 80
9, 221970, Note_on_c, 3, 58, 80
9, 221991, Note_on_c, 3, 55, 0
9, 221991, Note_on_c, 3, 58, 0
9, 222000, Note_on_c, 3, 58, 80
9, 222000, Note_on_c, 3, 55, 80
9, 222119, Note_on_c, 3, 58, 0
9, 222119, Note_on_c, 3, 55, 0
9, 222360, Note_on_c, 3, 58, 80
9, 222360, Note_on_c, 3, 55, 80
9, 222441, Note_on_c, 3, 58, 0
9, 222441, Note_on_c, 3, 55, 0
9, 222450, Note_on_c, 3, 58, 80
9, 222450, Note_on_c, 3, 55, 80
9, 222471, Note_on_c, 3, 58, 0
9, 222471, Note_on_c, 3, 55, 0
9, 222480, Note_on_c, 3, 58, 80
9, 222480, Note_on_c, 3, 55, 80
9, 222599, Note_on_c, 3, 58, 0
9, 222599, Note_on_c, 3, 55, 0
9, 222840, Note_on_c, 3, 45, 80
9, 222840, Note_on_c, 3, 57, 80
9, 222921, Note_on_c, 3, 45, 0
9, 222921, Note_on_c, 3, 57, 0
9, 222930, Note_on_c, 3, 45, 80
9, 222930, Note_on_c, 3, 57, 80
9, 222951, Note_on_c, 3, 45, 0
9, 222951, Note_on_c, 3, 57, 0
9, 222960, Note_on_c, 3, 57, 80
9, 222960, Note_on_c, 3, 45, 80
9, 223079, Note_on_c, 3, 57, 0
9, 223079, Note_on_c, 3, 45, 0
9, 223320, Note_on_c, 3, 57, 80
9, 223320, Note_on_c, 3, 45, 80
9, 223401, Note_on_c, 3, 57, 0
9, 223401, Note_on_c, 3, 45, 0
9, 223410, Note_on_c, 3, 45, 80
9, 223410, Note_on_c, 3, 57, 80
9, 223431, Note_on_c, 3, 45, 0
9, 223431, Note_on_c, 3, 57, 0
9, 223440, Note_on_c, 3, 57, 80
9, 223440, Note_on_c, 3, 45, 80
9, 223559, Note_on_c, 3, 57, 0
9, 223559, Note_on_c, 3, 45, 0
9, 223800, Note_on_c, 3, 46, 80
9, 223800, Note_on_c, 3, 58, 80
9, 223881, Note_on_c, 3, 46, 0
9, 223881, Note_on_c, 3, 58, 0
9, 223890, Note_on_c, 3, 46, 80
9, 223890, Note_on_c, 3, 58, 80
9, 223911, Note_on_c, 3, 46, 0
9, 223911, Note_on_c, 3, 58, 0
9, 223920, Note_on_c, 3, 58, 80
9, 223920, Note_on_c, 3, 46, 80
9, 224024, Note_on_c, 3, 58, 0
9, 224024, Note_on_c, 3, 46, 0
9, 224040, Note_on_c, 3, 59, 80
9, 224040, Note_on_c, 3, 47, 80
9, 224121, Note_on_c, 3, 59, 0
9, 224121, Note_on_c, 3, 47, 0
9, 224130, Note_on_c, 3, 59, 80
9, 224130, Note_on_c, 3, 47, 80
9, 224151, Note_on_c, 3, 59, 0
9, 224151, Note_on_c, 3, 47, 0
9, 224160, Note_on_c, 3, 47, 80
9, 224160, Note_on_c, 3, 59, 80
9, 224264, Note_on_c, 3, 47, 0
9, 224264, Note_on_c, 3, 59, 0
9, 224280, Note_on_c, 3, 60, 80
9, 224280, Note_on_c, 3, 48, 80
9, 224361, Note_on_c, 3, 60, 0
9, 224361, Note_on_c, 3, 48, 0
9, 224370, Note_on_c, 3, 60, 80
9, 224370, Note_on_c, 3, 48, 80
9, 224391, Note_on_c, 3, 60, 0
9, 224391, Note_on_c, 3, 48, 0
9, 224400, Note_on_c, 3, 61, 80
9, 224400, Note_on_c, 3, 49, 80
9, 224504, Note_on_c, 3, 61, 0
9, 224504, Note_on_c, 3, 49, 0
9, 224520, Note_on_c, 3, 57, 80
9, 224520, Note_on_c, 3, 45, 80
9, 224601, Note_on_c, 3, 57, 0
9, 224601, Note_on_c, 3, 45, 0
9, 224610, Note_on_c, 3, 57, 80
9, 224610, Note_on_c, 3, 45, 80
9, 224631, Note_on_c, 3, 57, 0
9, 224631, Note_on_c, 3, 45, 0
9, 224640, Note_on_c, 3, 45, 44
9, 224640, Note_on_c, 3, 57, 44
9, 224759, Note_on_c, 3, 45, 0
9, 224759, Note_on_c, 3, 57, 0
9, 226080, Note_on_c, 3, 61, 44
9, 226379, Note_on_c, 3, 61, 0
9, 226380, Note_on_c, 3, 64, 44
9, 226431, Note_on_c, 3, 64, 0
9, 226440, Note_on_c, 3, 62, 44
9, 226484, Note_on_c, 3, 62, 0
9, 226500, Note_on_c, 3, 61, 44
9, 226544, Note_on_c, 3, 61, 0
9, 226560, Note_on_c, 3, 62, 44
9, 226859, Note_on_c, 3, 62, 0
9, 226860, Note_on_c, 3, 66, 44
9, 226911, Note_on_c, 3, 66, 0
9, 226920, Note_on_c, 3, 64, 44
9, 226964, Note_on_c, 3, 64, 0
9, 226980, Note_on_c, 3, 62, 44
9, 227024, Note_on_c, 3, 62, 0
9, 227040, Note_on_c, 3, 61, 44
9, 227159, Note_on_c, 3, 61, 0
9, 227340, Note_on_c, 3, 61, 44
9, 227391, Note_on_c, 3, 61, 0
9, 227400, Note_on_c, 3, 62, 44
9, 227444, Note_on_c, 3, 62, 0
9, 227460, Note_on_c, 3, 64, 44
9, 227504, Note_on_c, 3, 64, 0
9, 227520, Note_on_c, 3, 62, 44
9, 227811, Note_on_c, 3, 62, 0
9, 227820, Note_on_c, 3, 62, 44
9, 227871, Note_on_c, 3, 62, 0
9, 227880, Note_on_c, 3, 64, 44
9, 227924, Note_on_c, 3, 64, 0
9, 227940, Note_on_c, 3, 66, 44
9, 227984, Note_on_c, 3, 66, 0
9, 228000, Note_on_c, 3, 67, 44
9, 228299, Note_on_c, 3, 67, 0
9, 228300, Note_on_c, 3, 64, 44
9, 228351, Note_on_c, 3, 64, 0
9, 228360, Note_on_c, 3, 66, 44
9, 228404, Note_on_c, 3, 66, 0
9, 228420, Note_on_c, 3, 67, 44
9, 228464, Note_on_c, 3, 67, 0
9, 228480, Note_on_c, 3, 65, 44
9, 228599, Note_on_c, 3, 65, 0
9, 230460, Note_on_c, 3, 57, 44
9, 230504, Note_on_c, 3, 57, 0
9, 230520, Note_on_c, 3, 67, 45
9, 230564, Note_on_c, 3, 67, 0
9, 230580, Note_on_c, 3, 65, 45
9, 230624, Note_on_c, 3, 65, 0
9, 230640, Note_on_c, 3, 64, 46
9, 230684, Note_on_c, 3, 64, 0
9, 230700, Note_on_c, 3, 62, 46
9, 230744, Note_on_c, 3, 62, 0
9, 230760, Note_on_c, 3, 61, 47
9, 230804, Note_on_c, 3, 61, 0
9, 230820, Note_on_c, 3, 62, 47
9, 230864, Note_on_c, 3, 62, 0
9, 230880, Note_on_c, 3, 62, 48
9, 230939, Note_on_c, 3, 62, 0
9, 230940, Note_on_c, 3, 61, 48
9, 230991, Note_on_c, 3, 61, 0
9, 231000, Note_on_c, 3, 61, 49
9, 231044, Note_on_c, 3, 61, 0
9, 231060, Note_on_c, 3, 64, 49
9, 231104, Note_on_c, 3, 64, 0
9, 231120, Note_on_c, 3, 61, 50
9, 231164, Note_on_c, 3, 61, 0
9, 231180, Note_on_c, 3, 64, 50
9, 231224, Note_on_c, 3, 64, 0
9, 231240, Note_on_c, 3, 62, 51
9, 231284, Note_on_c, 3, 62, 0
9, 231300, Note_on_c, 3, 61, 51
9, 231344, Note_on_c, 3, 61, 0
9, 232320, Note_on_c, 3, 53, 60
9, 232379, Note_on_c, 3, 53, 0
9, 232380, Note_on_c, 3, 52, 60
9, 232431, Note_on_c, 3, 52, 0
9, 232440, Note_on_c, 3, 52, 61
9, 232484, Note_on_c, 3, 52, 0
9, 232500, Note_on_c, 3, 55, 61
9, 232544, Note_on_c, 3, 55, 0
9, 232560, Note_on_c, 3, 52, 62
9, 232604, Note_on_c, 3, 52, 0
9, 232620, Note_on_c, 3, 55, 62
9, 232664, Note_on_c, 3, 55, 0
9, 232680, Note_on_c, 3, 53, 63
9, 232724, Note_on_c, 3, 53, 0
9, 232740, Note_on_c, 3, 52, 63
9, 232784, Note_on_c, 3, 52, 0
9, 234240, Note_on_c, 3, 60, 76
9, 234299, Note_on_c, 3, 60, 0
9, 234300, Note_on_c, 3, 58, 76
9, 234351, Note_on_c, 3, 58, 0
9, 234360, Note_on_c, 3, 58, 77
9, 234404, Note_on_c, 3, 58, 0
9, 234420, Note_on_c, 3, 62, 77
9, 234464, Note_on_c, 3, 62, 0
9, 234480, Note_on_c, 3, 50, 78
9, 234524, Note_on_c, 3, 50, 0
9, 234540, Note_on_c, 3, 62, 78
9, 234584, Note_on_c, 3, 62, 0
9, 234600, Note_on_c, 3, 60, 79
9, 234644, Note_on_c, 3, 60, 0
9, 234660, Note_on_c, 3, 58, 79
9, 234704, Note_on_c, 3, 58, 0
9, 236400, Control_c, 3, 11, 47
9, 236640, Note_on_c, 3, 64, 80
9, 236699, Note_on_c, 3, 64, 0
9, 236700, Note_on_c, 3, 62, 80
9, 236751, Note_on_c, 3, 62, 0
9, 236760, Note_on_c, 3, 62, 80
9, 236804, Note_on_c, 3, 62, 0
9, 236820, Note_on_c, 3, 65, 80
9, 236864, Note_on_c, 3, 65, 0
9, 236880, Note_on_c, 3, 62, 80
9, 236924, Note_on_c, 3, 62, 0
9, 236940, Note_on_c, 3, 65, 80
9, 236984, Note_on_c, 3, 65, 0
9, 237000, Note_on_c, 3, 64, 80
9, 237000, Control_c, 3, 11, 47
9, 237023, Control_c, 3, 11, 49
9, 237044, Note_on_c, 3, 64, 0
9, 237045, Control_c, 3, 11, 50
9, 237060, Note_on_c, 3, 62, 80
9, 237068, Control_c, 3, 11, 52
9, 237090, Control_c, 3, 11, 54
9, 237104, Note_on_c, 3, 62, 0
9, 237113, Control_c, 3, 11, 55
9, 237120, Note_on_c, 3, 53, 80
9, 237120, Note_on_c, 3, 65, 80
9, 237135, Control_c, 3, 11, 57
9, 237158, Control_c, 3, 11, 59
9, 237180, Control_c, 3, 11, 60
9, 237203, Control_c, 3, 11, 62
9, 237225, Control_c, 3, 11, 64
9, 237248, Control_c, 3, 11, 65
9, 237270, Control_c, 3, 11, 67
9, 237293, Control_c, 3, 11, 69
9, 237315, Control_c, 3, 11, 70
9, 237338, Control_c, 3, 11, 72
9, 237360, Control_c, 3, 11, 74
9, 237383, Control_c, 3, 11, 75
9, 237405, Control_c, 3, 11, 77
9, 237428, Control_c, 3, 11, 79
9, 237450, Control_c, 3, 11, 80
9, 237473, Control_c, 3, 11, 82
9, 237495, Control_c, 3, 11, 84
9, 237518, Control_c, 3, 11, 85
9, 237540, Control_c, 3, 11, 87
9, 237563, Control_c, 3, 11, 89
9, 237585, Control_c, 3, 11, 90
9, 237599, Note_on_c, 3, 53, 0
9, 237599, Note_on_c, 3, 65, 0
9, 237600, Note_on_c, 3, 67, 80
9, 237600, Note_on_c, 3, 55, 80
9, 237608, Control_c, 3, 11, 92
9, 237630, Control_c, 3, 11, 94
9, 237651, Note_on_c, 3, 67, 0
9, 237651, Note_on_c, 3, 55, 0
9, 237653, Control_c, 3, 11, 95
9, 237660, Note_on_c, 3, 53, 80
9, 237660, Note_on_c, 3, 65, 80
9, 237675, Control_c, 3, 11, 97
9, 237698, Control_c, 3, 11, 99
9, 237719, Note_on_c, 3, 53, 0
9, 237719, Note_on_c, 3, 65, 0
9, 237720, Control_c, 3, 11, 100
9, 237720, Note_on_c, 3, 52, 80
9, 237720, Note_on_c, 3, 64, 80
9, 237743, Control_c, 3, 11, 102
9, 237765, Control_c, 3, 11, 104
9, 237771, Note_on_c, 3, 52, 0
9, 237771, Note_on_c, 3, 64, 0
9, 237780, Note_on_c, 3, 50, 80
9, 237780, Note_on_c, 3, 62, 80
9, 237788, Control_c, 3, 11, 105
9, 237810, Control_c, 3, 11, 107
9, 237833, Control_c, 3, 11, 109
9, 237839, Note_on_c, 3, 50, 0
9, 237839, Note_on_c, 3, 62, 0
9, 237840, Note_on_c, 3, 61, 80
9, 237840, Note_on_c, 3, 49, 80
9, 237855, Control_c, 3, 11, 110
9, 237878, Control_c, 3, 11, 112
9, 237891, Note_on_c, 3, 61, 0
9, 237891, Note_on_c, 3, 49, 0
9, 237900, Note_on_c, 3, 46, 80
9, 237900, Control_c, 3, 11, 114
9, 237900, Note_on_c, 3, 58, 80
9, 237923, Control_c, 3, 11, 115
9, 237945, Control_c, 3, 11, 117
9, 237959, Note_on_c, 3, 46, 0
9, 237959, Note_on_c, 3, 58, 0
9, 237960, Note_on_c, 3, 45, 80
9, 237960, Note_on_c, 3, 57, 80
9, 237968, Control_c, 3, 11, 119
9, 237990, Control_c, 3, 11, 120
9, 238011, Note_on_c, 3, 45, 0
9, 238011, Note_on_c, 3, 57, 0
9, 238013, Control_c, 3, 11, 122
9, 238020, Note_on_c, 3, 43, 80
9, 238020, Note_on_c, 3, 55, 80
9, 238035, Control_c, 3, 11, 124
9, 238058, Control_c, 3, 11, 127
9, 238079, Note_on_c, 3, 43, 0
9, 238079, Note_on_c, 3, 55, 0
9, 238080, Note_on_c, 3, 62, 80
9, 238080, Note_on_c, 3, 50, 80
9, 238131, Note_on_c, 3, 62, 0
9, 238131, Note_on_c, 3, 50, 0
9, 238140, Note_on_c, 3, 48, 80
9, 238140, Note_on_c, 3, 60, 80
9, 238199, Note_on_c, 3, 48, 0
9, 238199, Note_on_c, 3, 60, 0
9, 238200, Note_on_c, 3, 46, 80
9, 238200, Note_on_c, 3, 58, 80
9, 238251, Note_on_c, 3, 46, 0
9, 238251, Note_on_c, 3, 58, 0
9, 238260, Note_on_c, 3, 45, 80
9, 238260, Note_on_c, 3, 57, 80
9, 238319, Note_on_c, 3, 45, 0
9, 238319, Note_on_c, 3, 57, 0
9, 238320, Note_on_c, 3, 43, 80
9, 238320, Note_on_c, 3, 55, 80
9, 238371, Note_on_c, 3, 43, 0
9, 238371, Note_on_c, 3, 55, 0
9, 238380, Note_on_c, 3, 53, 80
9, 238380, Note_on_c, 3, 41, 80
9, 238439, Note_on_c, 3, 53, 0
9, 238439, Note_on_c, 3, 41, 0
9, 238440, Note_on_c, 3, 52, 80
9, 238440, Note_on_c, 3, 40, 80
9, 238491, Note_on_c, 3, 52, 0
9, 238491, Note_on_c, 3, 40, 0
9, 238500, Note_on_c, 3, 38, 80
9, 238500, Note_on_c, 3, 50, 80
9, 238551, Note_on_c, 3, 38, 0
9, 238551, Note_on_c, 3, 50, 0
9, 238560, Note_on_c, 3, 55, 80
9, 238560, Note_on_c, 3, 43, 80
9, 238664, Note_on_c, 3, 55, 0
9, 238664, Note_on_c, 3, 43, 0
9, 238680, Note_on_c, 3, 58, 80
9, 238680, Note_on_c, 3, 46, 80
9, 238784, Note_on_c, 3, 58, 0
9, 238784, Note_on_c, 3, 46, 0
9, 238800, Note_on_c, 3, 57, 80
9, 238800, Note_on_c, 3, 45, 80
9, 238904, Note_on_c, 3, 57, 0
9, 238904, Note_on_c, 3, 45, 0
9, 238920, Note_on_c, 3, 57, 80
9, 238920, Note_on_c, 3, 45, 80
9, 239039, Note_on_c, 3, 57, 0
9, 239039, Note_on_c, 3, 45, 0
9, 240000, Note_on_c, 3, 57, 56
9, 240291, Note_on_c, 3, 57, 0
9, 240300, Note_on_c, 3, 59, 63
9, 240359, Note_on_c, 3, 59, 0
9, 240360, Note_on_c, 3, 61, 65
9, 240411, Note_on_c, 3, 61, 0
9, 240420, Note_on_c, 3, 62, 66
9, 240479, Note_on_c, 3, 62, 0
9, 240480, Note_on_c, 3, 64, 68
9, 240531, Note_on_c, 3, 64, 0
9, 240540, Note_on_c, 3, 65, 69
9, 240599, Note_on_c, 3, 65, 0
9, 240600, Note_on_c, 3, 67, 71
9, 240651, Note_on_c, 3, 67, 0
9, 240660, Note_on_c, 3, 67, 72
9, 240771, Note_on_c, 3, 67, 0
9, 240780, Note_on_c, 3, 52, 75
9, 240839, Note_on_c, 3, 52, 0
9, 240840, Note_on_c, 3, 53, 77
9, 240891, Note_on_c, 3, 53, 0
9, 240900, Note_on_c, 3, 55, 78
9, 240900, Note_on_c, 3, 52, 78
9, 240959, Note_on_c, 3, 55, 0
9, 240959, Note_on_c, 3, 52, 0
9, 240960, Note_on_c, 3, 53, 80
9, 240960, Note_on_c, 3, 57, 80
9, 241011, Note_on_c, 3, 53, 0
9, 241011, Note_on_c, 3, 57, 0
9, 241020, Note_on_c, 3, 58, 80
9, 241020, Note_on_c, 3, 55, 80
9, 241079, Note_on_c, 3, 58, 0
9, 241079, Note_on_c, 3, 55, 0
9, 241080, Note_on_c, 3, 57, 80
9, 241080, Note_on_c, 3, 60, 80
9, 241131, Note_on_c, 3, 57, 0
9, 241131, Note_on_c, 3, 60, 0
9, 241140, Note_on_c, 3, 62, 80
9, 241140, Note_on_c, 3, 58, 80
9, 241199, Note_on_c, 3, 62, 0
9, 241199, Note_on_c, 3, 58, 0
9, 241200, Note_on_c, 3, 61, 80
9, 241200, Note_on_c, 3, 64, 80
9, 241251, Note_on_c, 3, 61, 0
9, 241251, Note_on_c, 3, 64, 0
9, 241260, Note_on_c, 3, 62, 80
9, 241260, Note_on_c, 3, 65, 80
9, 241319, Note_on_c, 3, 62, 0
9, 241319, Note_on_c, 3, 65, 0
9, 241320, Note_on_c, 3, 67, 80
9, 241320, Note_on_c, 3, 64, 80
9, 241371, Note_on_c, 3, 67, 0
9, 241371, Note_on_c, 3, 64, 0
9, 241380, Note_on_c, 3, 69, 80
9, 241380, Note_on_c, 3, 65, 80
9, 241439, Note_on_c, 3, 69, 0
9, 241439, Note_on_c, 3, 65, 0
9, 241440, Note_on_c, 3, 64, 80
9, 241440, Note_on_c, 3, 67, 80
9, 241544, Note_on_c, 3, 64, 0
9, 241544, Note_on_c, 3, 67, 0
9, 241560, Note_on_c, 3, 64, 80
9, 241560, Note_on_c, 3, 67, 80
9, 241649, Note_on_c, 3, 64, 0
9, 241649, Note_on_c, 3, 67, 0
9, 241800, Note_on_c, 3, 67, 80
9, 241800, Note_on_c, 3, 64, 80
9, 241889, Note_on_c, 3, 67, 0
9, 241889, Note_on_c, 3, 64, 0
9, 242400, Note_on_c, 3, 61, 44
9, 242400, Note_on_c, 3, 64, 44
9, 242691, Note_on_c, 3, 61, 0
9, 242691, Note_on_c, 3, 64, 0
9, 242700, Note_on_c, 3, 61, 44
9, 242700, Note_on_c, 3, 64, 44
9, 242751, Note_on_c, 3, 61, 0
9, 242751, Note_on_c, 3, 64, 0
9, 242760, Note_on_c, 3, 61, 44
9, 242760, Note_on_c, 3, 64, 44
9, 242811, Note_on_c, 3, 61, 0
9, 242811, Note_on_c, 3, 64, 0
9, 242820, Note_on_c, 3, 61, 44
9, 242820, Note_on_c, 3, 64, 44
9, 242864, Note_on_c, 3, 61, 0
9, 242864, Note_on_c, 3, 64, 0
9, 242880, Note_on_c, 3, 56, 44
9, 242880, Note_on_c, 3, 59, 44
9, 243059, Note_on_c, 3, 56, 0
9, 243059, Note_on_c, 3, 59, 0
9, 243120, Note_on_c, 3, 58, 44
9, 243120, Note_on_c, 3, 62, 44
9, 243299, Note_on_c, 3, 58, 0
9, 243299, Note_on_c, 3, 62, 0
9, 243360, Note_on_c, 3, 57, 44
9, 243360, Note_on_c, 3, 64, 44
9, 243539, Note_on_c, 3, 57, 0
9, 243539, Note_on_c, 3, 64, 0
9, 243600, Note_on_c, 3, 57, 44
9, 243600, Note_on_c, 3, 64, 44
9, 243779, Note_on_c, 3, 57, 0
9, 243779, Note_on_c, 3, 64, 0
9, 243900, Note_on_c, 3, 55, 44
9, 243944, Note_on_c, 3, 55, 0
9, 243960, Note_on_c, 3, 57, 44
9, 244004, Note_on_c, 3, 57, 0
9, 244020, Note_on_c, 3, 58, 44
9, 244064, Note_on_c, 3, 58, 0
9, 244080, Note_on_c, 3, 58, 44
9, 244199, Note_on_c, 3, 58, 0
9, 244380, Note_on_c, 3, 55, 44
9, 244424, Note_on_c, 3, 55, 0
9, 244440, Note_on_c, 3, 57, 44
9, 244484, Note_on_c, 3, 57, 0
9, 244500, Note_on_c, 3, 58, 44
9, 244544, Note_on_c, 3, 58, 0
9, 244560, Note_on_c, 3, 58, 44
9, 244679, Note_on_c, 3, 58, 0
9, 245760, Note_on_c, 3, 38, 32
9, 245879, Note_on_c, 3, 38, 0
9, 245880, Note_on_c, 3, 49, 32
9, 245999, Note_on_c, 3, 49, 0
9, 246000, Note_on_c, 3, 48, 32
9, 246119, Note_on_c, 3, 48, 0
9, 246120, Note_on_c, 3, 47, 32
9, 246239, Note_on_c, 3, 47, 0
9, 246240, Note_on_c, 3, 46, 32
9, 246359, Note_on_c, 3, 46, 0
9, 246360, Note_on_c, 3, 45, 32
9, 246479, Note_on_c, 3, 45, 0
9, 246480, Note_on_c, 3, 47, 32
9, 246599, Note_on_c, 3, 47, 0
9, 246600, Note_on_c, 3, 49, 32
9, 246704, Note_on_c, 3, 49, 0
9, 246720, Note_on_c, 3, 50, 32
9, 246839, Note_on_c, 3, 50, 0
9, 246840, Note_on_c, 3, 49, 32
9, 246959, Note_on_c, 3, 49, 0
9, 246960, Note_on_c, 3, 48, 32
9, 247079, Note_on_c, 3, 48, 0
9, 247080, Note_on_c, 3, 47, 32
9, 247199, Note_on_c, 3, 47, 0
9, 247200, Note_on_c, 3, 46, 32
9, 247319, Note_on_c, 3, 46, 0
9, 247320, Note_on_c, 3, 45, 32
9, 247439, Note_on_c, 3, 45, 0
9, 247440, Note_on_c, 3, 47, 32
9, 247559, Note_on_c, 3, 47, 0
9, 247560, Note_on_c, 3, 49, 32
9, 247664, Note_on_c, 3, 49, 0
9, 247680, Note_on_c, 3, 50, 32
9, 247799, Note_on_c, 3, 50, 0
9, 247800, Note_on_c, 3, 49, 32
9, 247919, Note_on_c, 3, 49, 0
9, 247920, Note_on_c, 3, 48, 32
9, 248039, Note_on_c, 3, 48, 0
9, 248040, Note_on_c, 3, 47, 32
9, 248159, Note_on_c, 3, 47, 0
9, 248160, Note_on_c, 3, 46, 32
9, 248279, Note_on_c, 3, 46, 0
9, 248280, Note_on_c, 3, 45, 32
9, 248399, Note_on_c, 3, 45, 0
9, 248400, Note_on_c, 3, 47, 32
9, 248519, Note_on_c, 3, 47, 0
9, 248520, Note_on_c, 3, 49, 32
9, 248624, Note_on_c, 3, 49, 0
9, 248640, Note_on_c, 3, 50, 32
9, 248759, Note_on_c, 3, 50, 0
9, 248760, Note_on_c, 3, 49, 32
9, 248879, Note_on_c, 3, 49, 0
9, 248880, Note_on_c, 3, 48, 32
9, 248999, Note_on_c, 3, 48, 0
9, 249000, Note_on_c, 3, 47, 32
9, 249119, Note_on_c, 3, 47, 0
9, 249120, Note_on_c, 3, 46, 32
9, 249239, Note_on_c, 3, 46, 0
9, 249240, Note_on_c, 3, 45, 32
9, 249359, Note_on_c, 3, 45, 0
9, 249360, Note_on_c, 3, 47, 32
9, 249479, Note_on_c, 3, 47, 0
9, 249480, Note_on_c, 3, 49, 32
9, 249584, Note_on_c, 3, 49, 0
9, 249600, Note_on_c, 3, 38, 32
9, 249719, Note_on_c, 3, 38, 0
9, 249778, Control_c, 3, 11, 47
9, 249780, Note_on_c, 3, 57, 80
9, 249780, Note_on_c, 3, 53, 80
9, 249780, Control_c, 3, 11, 47
9, 249814, Control_c, 3, 11, 48
9, 249831, Note_on_c, 3, 57, 0
9, 249831, Note_on_c, 3, 53, 0
9, 249840, Note_on_c, 3, 53, 80
9, 249840, Note_on_c, 3, 62, 80
9, 249848, Control_c, 3, 11, 49
9, 249881, Control_c, 3, 11, 50
9, 249915, Control_c, 3, 11, 51
9, 249949, Control_c, 3, 11, 52
9, 249959, Note_on_c, 3, 53, 0
9, 249959, Note_on_c, 3, 62, 0
9, 249983, Control_c, 3, 11, 53
9, 250016, Control_c, 3, 11, 54
9, 250020, Note_on_c, 3, 65, 80
9, 250020, Note_on_c, 3, 57, 80
9, 250050, Control_c, 3, 11, 55
9, 250071, Note_on_c, 3, 65, 0
9, 250071, Note_on_c, 3, 57, 0
9, 250080, Note_on_c, 3, 57, 80
9, 250080, Note_on_c, 3, 65, 80
9, 250084, Control_c, 3, 11, 56
9, 250118, Control_c, 3, 11, 57
9, 250151, Control_c, 3, 11, 58
9, 250185, Control_c, 3, 11, 59
9, 250219, Control_c, 3, 11, 60
9, 250253, Control_c, 3, 11, 61
9, 250286, Control_c, 3, 11, 62
9, 250319, Note_on_c, 3, 57, 0
9, 250319, Note_on_c, 3, 65, 0
9, 250320, Note_on_c, 3, 64, 80
9, 250320, Control_c, 3, 11, 63
9, 250320, Note_on_c, 3, 55, 80
9, 250339, Note_on_c, 3, 64, 0
9, 250340, Note_on_c, 3, 65, 80
9, 250354, Control_c, 3, 11, 64
9, 250359, Note_on_c, 3, 65, 0
9, 250360, Note_on_c, 3, 64, 80
9, 250379, Note_on_c, 3, 64, 0
9, 250380, Note_on_c, 3, 65, 80
9, 250388, Control_c, 3, 11, 65
9, 250399, Note_on_c, 3, 65, 0
9, 250400, Note_on_c, 3, 64, 80
9, 250419, Note_on_c, 3, 64, 0
9, 250420, Note_on_c, 3, 65, 80
9, 250421, Control_c, 3, 11, 66
9, 250439, Note_on_c, 3, 65, 0
9, 250440, Note_on_c, 3, 64, 80
9, 250455, Control_c, 3, 11, 67
9, 250459, Note_on_c, 3, 64, 0
9, 250460, Note_on_c, 3, 65, 80
9, 250479, Note_on_c, 3, 65, 0
9, 250480, Note_on_c, 3, 64, 80
9, 250489, Control_c, 3, 11, 68
9, 250499, Note_on_c, 3, 64, 0
9, 250500, Note_on_c, 3, 65, 80
9, 250512, Note_on_c, 3, 65, 0
9, 250513, Note_on_c, 3, 64, 80
9, 250523, Control_c, 3, 11, 69
9, 250526, Note_on_c, 3, 64, 0
9, 250527, Note_on_c, 3, 62, 80
9, 250539, Note_on_c, 3, 62, 0
9, 250540, Note_on_c, 3, 64, 80
9, 250544, Note_on_c, 3, 55, 0
9, 250555, Note_on_c, 3, 64, 0
9, 250556, Control_c, 3, 11, 70
9, 250560, Note_on_c, 3, 53, 80
9, 250560, Note_on_c, 3, 62, 80
9, 250590, Control_c, 3, 11, 71
9, 250624, Control_c, 3, 11, 72
9, 250658, Control_c, 3, 11, 73
9, 250679, Note_on_c, 3, 53, 0
9, 250679, Note_on_c, 3, 62, 0
9, 250680, Note_on_c, 3, 61, 80
9, 250680, Note_on_c, 3, 49, 80
9, 250691, Control_c, 3, 11, 74
9, 250725, Control_c, 3, 11, 75
9, 250759, Control_c, 3, 11, 76
9, 250793, Control_c, 3, 11, 77
9, 250799, Note_on_c, 3, 61, 0
9, 250799, Note_on_c, 3, 49, 0
9, 250800, Note_on_c, 3, 48, 80
9, 250800, Note_on_c, 3, 60, 80
9, 250826, Control_c, 3, 11, 78
9, 250860, Control_c, 3, 11, 79
9, 250894, Control_c, 3, 11, 80
9, 250919, Note_on_c, 3, 48, 0
9, 250919, Note_on_c, 3, 60, 0
9, 250920, Note_on_c, 3, 59, 80
9, 250920, Note_on_c, 3, 47, 80
9, 250928, Control_c, 3, 11, 81
9, 250961, Control_c, 3, 11, 82
9, 250995, Control_c, 3, 11, 83
9, 251029, Control_c, 3, 11, 84
9, 251039, Note_on_c, 3, 59, 0
9, 251039, Note_on_c, 3, 47, 0
9, 251040, Note_on_c, 3, 58, 80
9, 251040, Note_on_c, 3, 46, 80
9, 251063, Control_c, 3, 11, 85
9, 251096, Control_c, 3, 11, 86
9, 251130, Control_c, 3, 11, 87
9, 251159, Note_on_c, 3, 58, 0
9, 251159, Note_on_c, 3, 46, 0
9, 251160, Note_on_c, 3, 57, 80
9, 251160, Note_on_c, 3, 45, 80
9, 251164, Control_c, 3, 11, 88
9, 251198, Control_c, 3, 11, 89
9, 251231, Control_c, 3, 11, 90
9, 251265, Control_c, 3, 11, 91
9, 251279, Note_on_c, 3, 57, 0
9, 251279, Note_on_c, 3, 45, 0
9, 251280, Note_on_c, 3, 59, 80
9, 251280, Note_on_c, 3, 47, 80
9, 251299, Control_c, 3, 11, 92
9, 251333, Control_c, 3, 11, 93
9, 251366, Control_c, 3, 11, 94
9, 251399, Note_on_c, 3, 59, 0
9, 251399, Note_on_c, 3, 47, 0
9, 251400, Note_on_c, 3, 49, 80
9, 251400, Control_c, 3, 11, 95
9, 251400, Note_on_c, 3, 61, 80
9, 251434, Control_c, 3, 11, 96
9, 251468, Control_c, 3, 11, 97
9, 251501, Control_c, 3, 11, 98
9, 251504, Note_on_c, 3, 49, 0
9, 251504, Note_on_c, 3, 61, 0
9, 251520, Note_on_c, 3, 50, 80
9, 251520, Note_on_c, 3, 62, 80
9, 251535, Control_c, 3, 11, 99
9, 251569, Control_c, 3, 11, 100
9, 251603, Control_c, 3, 11, 101
9, 251636, Control_c, 3, 11, 102
9, 251639, Note_on_c, 3, 50, 0
9, 251639, Note_on_c, 3, 62, 0
9, 251640, Note_on_c, 3, 61, 80
9, 251640, Note_on_c, 3, 49, 80
9, 251670, Control_c, 3, 11, 103
9, 251704, Control_c, 3, 11, 104
9, 251738, Control_c, 3, 11, 105
9, 251759, Note_on_c, 3, 61, 0
9, 251759, Note_on_c, 3, 49, 0
9, 251760, Note_on_c, 3, 48, 80
9, 251760, Note_on_c, 3, 60, 80
9, 251771, Control_c, 3, 11, 106
9, 251805, Control_c, 3, 11, 107
9, 251839, Control_c, 3, 11, 108
9, 251873, Control_c, 3, 11, 109
9, 251879, Note_on_c, 3, 48, 0
9, 251879, Note_on_c, 3, 60, 0
9, 251880, Note_on_c, 3, 47, 80
9, 251880, Note_on_c, 3, 59, 80
9, 251906, Control_c, 3, 11, 110
9, 251940, Control_c, 3, 11, 111
9, 251974, Control_c, 3, 11, 112
9, 251999, Note_on_c, 3, 47, 0
9, 251999, Note_on_c, 3, 59, 0
9, 252000, Note_on_c, 3, 46, 80
9, 252000, Note_on_c, 3, 58, 80
9, 252008, Control_c, 3, 11, 113
9, 252041, Control_c, 3, 11, 114
9, 252075, Control_c, 3, 11, 115
9, 252109, Control_c, 3, 11, 116
9, 252119, Note_on_c, 3, 46, 0
9, 252119, Note_on_c, 3, 58, 0
9, 252120, Note_on_c, 3, 57, 80
9, 252120, Note_on_c, 3, 45, 80
9, 252143, Control_c, 3, 11, 117
9, 252176, Control_c, 3, 11, 118
9, 252210, Control_c, 3, 11, 119
9, 252239, Note_on_c, 3, 57, 0
9, 252239, Note_on_c, 3, 45, 0
9, 252240, Note_on_c, 3, 47, 80
9, 252240, Note_on_c, 3, 59, 80
9, 252244, Control_c, 3, 11, 120
9, 252278, Control_c, 3, 11, 121
9, 252311, Control_c, 3, 11, 122
9, 252345, Control_c, 3, 11, 123
9, 252359, Note_on_c, 3, 47, 0
9, 252359, Note_on_c, 3, 59, 0
9, 252360, Note_on_c, 3, 49, 80
9, 252360, Note_on_c, 3, 61, 80
9, 252379, Control_c, 3, 11, 124
9, 252413, Control_c, 3, 11, 125
9, 252446, Control_c, 3, 11, 127
9, 252464, Note_on_c, 3, 49, 0
9, 252464, Note_on_c, 3, 61, 0
9, 252480, Note_on_c, 3, 50, 80
9, 252480, Note_on_c, 3, 62, 80
9, 252599, Note_on_c, 3, 50, 0
9, 252599, Note_on_c, 3, 62, 0
9, 252600, Note_on_c, 3, 45, 80
9, 252600, Note_on_c, 3, 57, 80
9, 252719, Note_on_c, 3, 45, 0
9, 252719, Note_on_c, 3, 57, 0
9, 252720, Note_on_c, 3, 58, 86
9, 252720, Note_on_c, 3, 46, 86
9, 252839, Note_on_c, 3, 58, 0
9, 252839, Note_on_c, 3, 46, 0
9, 252840, Note_on_c, 3, 45, 86
9, 252840, Note_on_c, 3, 57, 86
9, 252944, Note_on_c, 3, 45, 0
9, 252944, Note_on_c, 3, 57, 0
9, 252960, Note_on_c, 3, 55, 86
9, 252960, Note_on_c, 3, 43, 86
9, 253079, Note_on_c, 3, 55, 0
9, 253079, Note_on_c, 3, 43, 0
9, 253080, Note_on_c, 3, 58, 86
9, 253080, Note_on_c, 3, 46, 86
9, 253199, Note_on_c, 3, 58, 0
9, 253199, Note_on_c, 3, 46, 0
9, 253200, Note_on_c, 3, 45, 86
9, 253200, Note_on_c, 3, 57, 86
9, 253319, Note_on_c, 3, 45, 0
9, 253319, Note_on_c, 3, 57, 0
9, 253320, Note_on_c, 3, 61, 86
9, 253320, Note_on_c, 3, 49, 86
9, 253424, Note_on_c, 3, 61, 0
9, 253424, Note_on_c, 3, 49, 0
9, 253440, Note_on_c, 3, 62, 86
9, 253440, Note_on_c, 3, 50, 86
9, 253559, Note_on_c, 3, 62, 0
9, 253559, Note_on_c, 3, 50, 0
9, 253560, Note_on_c, 3, 45, 86
9, 253560, Note_on_c, 3, 57, 86
9, 253679, Note_on_c, 3, 45, 0
9, 253679, Note_on_c, 3, 57, 0
9, 253680, Note_on_c, 3, 46, 86
9, 253680, Note_on_c, 3, 58, 86
9, 253799, Note_on_c, 3, 46, 0
9, 253799, Note_on_c, 3, 58, 0
9, 253800, Note_on_c, 3, 57, 86
9, 253800, Note_on_c, 3, 45, 86
9, 253904, Note_on_c, 3, 57, 0
9, 253904, Note_on_c, 3, 45, 0
9, 253920, Note_on_c, 3, 43, 86
9, 253920, Note_on_c, 3, 55, 86
9, 254039, Note_on_c, 3, 43, 0
9, 254039, Note_on_c, 3, 55, 0
9, 254040, Note_on_c, 3, 46, 86
9, 254040, Note_on_c, 3, 58, 86
9, 254159, Note_on_c, 3, 46, 0
9, 254159, Note_on_c, 3, 58, 0
9, 254160, Note_on_c, 3, 45, 86
9, 254160, Note_on_c, 3, 57, 86
9, 254279, Note_on_c, 3, 45, 0
9, 254279, Note_on_c, 3, 57, 0
9, 254280, Note_on_c, 3, 49, 86
9, 254280, Note_on_c, 3, 61, 86
9, 254384, Note_on_c, 3, 49, 0
9, 254384, Note_on_c, 3, 61, 0
9, 254400, Note_on_c, 3, 60, 92
9, 254489, Note_on_c, 3, 60, 0
9, 254520, Note_on_c, 3, 48, 92
9, 254609, Note_on_c, 3, 48, 0
9, 254640, Note_on_c, 3, 38, 92
9, 254729, Note_on_c, 3, 38, 0
9, 254760, Note_on_c, 3, 60, 92
9, 254849, Note_on_c, 3, 60, 0
9, 254880, Note_on_c, 3, 60, 92
9, 254969, Note_on_c, 3, 60, 0
9, 255000, Note_on_c, 3, 48, 92
9, 255089, Note_on_c, 3, 48, 0
9, 255120, Note_on_c, 3, 38, 92
9, 255209, Note_on_c, 3, 38, 0
9, 255240, Note_on_c, 3, 60, 92
9, 255329, Note_on_c, 3, 60, 0
9, 255360, Note_on_c, 3, 59, 92
9, 255449, Note_on_c, 3, 59, 0
9, 255480, Note_on_c, 3, 47, 92
9, 255569, Note_on_c, 3, 47, 0
9, 255600, Note_on_c, 3, 38, 92
9, 255689, Note_on_c, 3, 38, 0
9, 255720, Note_on_c, 3, 59, 92
9, 255809, Note_on_c, 3, 59, 0
9, 255840, Note_on_c, 3, 61, 92
9, 255929, Note_on_c, 3, 61, 0
9, 255960, Note_on_c, 3, 49, 92
9, 256049, Note_on_c, 3, 49, 0
9, 256080, Note_on_c, 3, 38, 92
9, 256169, Note_on_c, 3, 38, 0
9, 256200, Note_on_c, 3, 61, 92
9, 256289, Note_on_c, 3, 61, 0
9, 256320, Note_on_c, 3, 54, 92
9, 256320, Note_on_c, 3, 66, 92
9, 256761, Note_on_c, 3, 54, 0
9, 256761, Note_on_c, 3, 66, 0
9, 256770, Note_on_c, 3, 54, 92
9, 256770, Note_on_c, 3, 66, 92
9, 256791, Note_on_c, 3, 54, 0
9, 256791, Note_on_c, 3, 66, 0
9, 256800, Note_on_c, 3, 66, 92
9, 256800, Note_on_c, 3, 54, 92
9, 257241, Note_on_c, 3, 66, 0
9, 257241, Note_on_c, 3, 54, 0
9, 257250, Note_on_c, 3, 54, 92
9, 257250, Note_on_c, 3, 66, 92
9, 257271, Note_on_c, 3, 54, 0
9, 257271, Note_on_c, 3, 66, 0
9, 257280, Note_on_c, 3, 68, 92
9, 257280, Note_on_c, 3, 56, 92
9, 257721, Note_on_c, 3, 68, 0
9, 257721, Note_on_c, 3, 56, 0
9, 257730, Note_on_c, 3, 56, 92
9, 257730, Note_on_c, 3, 68, 92
9, 257751, Note_on_c, 3, 56, 0
9, 257751, Note_on_c, 3, 68, 0
9, 257760, Note_on_c, 3, 57, 92
9, 257760, Note_on_c, 3, 69, 92
9, 258201, Note_on_c, 3, 57, 0
9, 258201, Note_on_c, 3, 69, 0
9, 258210, Note_on_c, 3, 62, 92
9, 258210, Note_on_c, 3, 50, 92
9, 258231, Note_on_c, 3, 62, 0
9, 258231, Note_on_c, 3, 50, 0
9, 258240, Note_on_c, 3, 57, 92
9, 258681, Note_on_c, 3, 57, 0
9, 258690, Note_on_c, 3, 53, 92
9, 258711, Note_on_c, 3, 53, 0
9, 258720, Note_on_c, 3, 50, 92
9, 258921, Note_on_c, 3, 50, 0
9, 258930, Note_on_c, 3, 45, 92
9, 258951, Note_on_c, 3, 45, 0
9, 258960, Note_on_c, 3, 41, 92
9, 259124, Note_on_c, 3, 41, 0
9, 259140, Note_on_c, 3, 45, 92
9, 259169, Note_on_c, 3, 45, 0
9, 259170, Note_on_c, 3, 41, 92
9, 259191, Note_on_c, 3, 41, 0
9, 259200, Note_on_c, 3, 38, 92
9, 259319, Note_on_c, 3, 38, 0
9, 259380, Note_on_c, 3, 45, 92
9, 259409, Note_on_c, 3, 45, 0
9, 259410, Note_on_c, 3, 41, 92
9, 259431, Note_on_c, 3, 41, 0
9, 259440, Note_on_c, 3, 38, 92
9, 259559, Note_on_c, 3, 38, 0
9, 259620, Note_on_c, 3, 50, 92
9, 259649, Note_on_c, 3, 50, 0
9, 259650, Note_on_c, 3, 45, 92
9, 259671, Note_on_c, 3, 45, 0
9, 259680, Note_on_c, 3, 41, 92
9, 259799, Note_on_c, 3, 41, 0
9, 259860, Note_on_c, 3, 53, 92
9, 259889, Note_on_c, 3, 53, 0
9, 259890, Note_on_c, 3, 50, 92
9, 259911, Note_on_c, 3, 50, 0
9, 259920, Note_on_c, 3, 45, 92
9, 260039, Note_on_c, 3, 45, 0
9, 260100, Note_on_c, 3, 57, 92
9, 260129, Note_on_c, 3, 57, 0
9, 260130, Note_on_c, 3, 53, 92
9, 260151, Note_on_c, 3, 53, 0
9, 260160, Note_on_c, 3, 50, 92
9, 260399, Note_on_c, 3, 50, 0
9, 260430, Note_on_c, 3, 50, 92
9, 260459, Note_on_c, 3, 50, 0
9, 260460, Note_on_c, 3, 52, 92
9, 260489, Note_on_c, 3, 52, 0
9, 260490, Note_on_c, 3, 53, 92
9, 260519, Note_on_c, 3, 53, 0
9, 260520, Note_on_c, 3, 55, 92
9, 260549, Note_on_c, 3, 55, 0
9, 260550, Note_on_c, 3, 57, 92
9, 260579, Note_on_c, 3, 57, 0
9, 260580, Note_on_c, 3, 59, 92
9, 260609, Note_on_c, 3, 59, 0
9, 260610, Note_on_c, 3, 61, 92
9, 260631, Note_on_c, 3, 61, 0
9, 260640, Note_on_c, 3, 62, 104
9, 260700, Control_c, 3, 11, 107
9, 260879, Note_on_c, 3, 62, 0
9, 260880, Control_c, 3, 11, 127
9, 260910, Note_on_c, 3, 38, 92
9, 260910, Note_on_c, 3, 50, 92
9, 260939, Note_on_c, 3, 38, 0
9, 260939, Note_on_c, 3, 50, 0
9, 260940, Note_on_c, 3, 40, 92
9, 260940, Note_on_c, 3, 52, 92
9, 260969, Note_on_c, 3, 40, 0
9, 260969, Note_on_c, 3, 52, 0
9, 260970, Note_on_c, 3, 41, 92
9, 260970, Note_on_c, 3, 53, 92
9, 260999, Note_on_c, 3, 41, 0
9, 260999, Note_on_c, 3, 53, 0
9, 261000, Note_on_c, 3, 55, 92
9, 261000, Note_on_c, 3, 43, 92
9, 261029, Note_on_c, 3, 55, 0
9, 261029, Note_on_c, 3, 43, 0
9, 261030, Note_on_c, 3, 45, 92
9, 261030, Note_on_c, 3, 57, 92
9, 261059, Note_on_c, 3, 45, 0
9, 261059, Note_on_c, 3, 57, 0
9, 261060, Note_on_c, 3, 59, 92
9, 261060, Note_on_c, 3, 47, 92
9, 261089, Note_on_c, 3, 59, 0
9, 261089, Note_on_c, 3, 47, 0
9, 261090, Note_on_c, 3, 61, 92
9, 261090, Note_on_c, 3, 49, 92
9, 261111, Note_on_c, 3, 61, 0
9, 261111, Note_on_c, 3, 49, 0
9, 261120, Note_on_c, 3, 50, 92
9, 261120, Note_on_c, 3, 62, 92
9, 261411, Note_on_c, 3, 50, 0
9, 261411, Note_on_c, 3, 62, 0
9, 261420, Note_on_c, 3, 53, 92
9, 261464, Note_on_c, 3, 53, 0
9, 261480, Note_on_c, 3, 52, 92
9, 261524, Note_on_c, 3, 52, 0
9, 261540, Note_on_c, 3, 50, 92
9, 261584, Note_on_c, 3, 50, 0
9, 261600, Note_on_c, 3, 57, 92
9, 261689, Note_on_c, 3, 57, 0
9, 261720, Note_on_c, 3, 55, 92
9, 261809, Note_on_c, 3, 55, 0
9, 261840, Note_on_c, 3, 52, 92
9, 261929, Note_on_c, 3, 52, 0
9, 261960, Note_on_c, 3, 57, 92
9, 262049, Note_on_c, 3, 57, 0
9, 262080, Note_on_c, 3, 50, 92
9, 262199, Note_on_c, 3, 50, 0
9, 262199, End_track
10, 0, Start_track
10, 0, Title_t, "French Horn in D"
10, 0, MIDI_port, 0
10, 0, Program_c, 4, 60
10, 0, Control_c, 4, 7, 104
10, 0, Control_c, 4, 10, 45
10, 0, Control_c, 4, 11, 29
10, 1, Note_on_c, 4, 64, 92
10, 1, Note_on_c, 4, 57, 92
10, 1919, Note_on_c, 4, 64, 0
10, 1919, Note_on_c, 4, 57, 0
10, 1920, Note_on_c, 4, 57, 92
10, 1920, Note_on_c, 4, 64, 92
10, 3839, Note_on_c, 4, 57, 0
10, 3839, Note_on_c, 4, 64, 0
10, 3840, Note_on_c, 4, 64, 92
10, 3840, Note_on_c, 4, 57, 92
10, 4800, Control_c, 4, 11, 29
10, 4836, Control_c, 4, 11, 30
10, 4873, Control_c, 4, 11, 31
10, 4909, Control_c, 4, 11, 32
10, 4946, Control_c, 4, 11, 34
10, 4982, Control_c, 4, 11, 35
10, 5019, Control_c, 4, 11, 36
10, 5055, Control_c, 4, 11, 37
10, 5092, Control_c, 4, 11, 39
10, 5128, Control_c, 4, 11, 40
10, 5165, Control_c, 4, 11, 41
10, 5201, Control_c, 4, 11, 42
10, 5237, Control_c, 4, 11, 44
10, 5274, Control_c, 4, 11, 45
10, 5310, Control_c, 4, 11, 46
10, 5347, Control_c, 4, 11, 47
10, 5383, Control_c, 4, 11, 49
10, 5420, Control_c, 4, 11, 50
10, 5456, Control_c, 4, 11, 51
10, 5493, Control_c, 4, 11, 52
10, 5529, Control_c, 4, 11, 54
10, 5566, Control_c, 4, 11, 55
10, 5602, Control_c, 4, 11, 56
10, 5638, Control_c, 4, 11, 57
10, 5675, Control_c, 4, 11, 59
10, 5711, Control_c, 4, 11, 60
10, 5748, Control_c, 4, 11, 61
10, 5784, Control_c, 4, 11, 62
10, 5821, Control_c, 4, 11, 64
10, 5857, Control_c, 4, 11, 65
10, 5894, Control_c, 4, 11, 66
10, 5930, Control_c, 4, 11, 67
10, 5967, Control_c, 4, 11, 69
10, 6003, Control_c, 4, 11, 70
10, 6039, Control_c, 4, 11, 71
10, 6076, Control_c, 4, 11, 72
10, 6112, Control_c, 4, 11, 74
10, 6149, Control_c, 4, 11, 75
10, 6185, Control_c, 4, 11, 76
10, 6222, Control_c, 4, 11, 77
10, 6258, Control_c, 4, 11, 79
10, 6295, Control_c, 4, 11, 80
10, 6331, Control_c, 4, 11, 81
10, 6368, Control_c, 4, 11, 82
10, 6404, Control_c, 4, 11, 84
10, 6441, Control_c, 4, 11, 85
10, 6477, Control_c, 4, 11, 86
10, 6513, Control_c, 4, 11, 87
10, 6550, Control_c, 4, 11, 89
10, 6584, Note_on_c, 4, 64, 0
10, 6584, Note_on_c, 4, 57, 0
10, 6586, Control_c, 4, 11, 90
10, 6600, Note_on_c, 4, 45, 92
10, 6600, Note_on_c, 4, 69, 92
10, 6623, Control_c, 4, 11, 91
10, 6659, Control_c, 4, 11, 92
10, 6696, Control_c, 4, 11, 94
10, 6732, Control_c, 4, 11, 95
10, 6769, Control_c, 4, 11, 96
10, 6805, Control_c, 4, 11, 97
10, 6842, Control_c, 4, 11, 99
10, 6878, Control_c, 4, 11, 100
10, 6914, Control_c, 4, 11, 101
10, 6951, Control_c, 4, 11, 102
10, 6987, Control_c, 4, 11, 104
10, 7024, Control_c, 4, 11, 105
10, 7060, Control_c, 4, 11, 106
10, 7097, Control_c, 4, 11, 107
10, 7133, Control_c, 4, 11, 109
10, 7170, Control_c, 4, 11, 110
10, 7206, Control_c, 4, 11, 111
10, 7243, Control_c, 4, 11, 112
10, 7279, Control_c, 4, 11, 114
10, 7315, Control_c, 4, 11, 115
10, 7352, Control_c, 4, 11, 116
10, 7388, Control_c, 4, 11, 117
10, 7425, Control_c, 4, 11, 119
10, 7461, Control_c, 4, 11, 120
10, 7498, Control_c, 4, 11, 121
10, 7534, Control_c, 4, 11, 122
10, 7571, Control_c, 4, 11, 124
10, 7607, Control_c, 4, 11, 125
10, 7641, Note_on_c, 4, 45, 0
10, 7641, Note_on_c, 4, 69, 0
10, 7644, Control_c, 4, 11, 127
10, 7650, Note_on_c, 4, 74, 92
10, 7650, Note_on_c, 4, 62, 92
10, 7671, Note_on_c, 4, 74, 0
10, 7671, Note_on_c, 4, 62, 0
10, 7680, Note_on_c, 4, 69, 92
10, 7680, Note_on_c, 4, 57, 92
10, 8121, Note_on_c, 4, 69, 0
10, 8121, Note_on_c, 4, 57, 0
10, 8130, Note_on_c, 4, 65, 92
10, 8130, Note_on_c, 4, 53, 92
10, 8151, Note_on_c, 4, 65, 0
10, 8151, Note_on_c, 4, 53, 0
10, 8160, Note_on_c, 4, 62, 92
10, 8160, Note_on_c, 4, 50, 92
10, 8361, Note_on_c, 4, 62, 0
10, 8361, Note_on_c, 4, 50, 0
10, 8370, Note_on_c, 4, 57, 92
10, 8370, Note_on_c, 4, 45, 92
10, 8391, Note_on_c, 4, 57, 0
10, 8391, Note_on_c, 4, 45, 0
10, 8400, Note_on_c, 4, 53, 92
10, 8400, Note_on_c, 4, 65, 92
10, 8579, Note_on_c, 4, 53, 0
10, 8579, Note_on_c, 4, 65, 0
10, 8580, Note_on_c, 4, 57, 92
10, 8580, Note_on_c, 4, 69, 92
10, 8609, Note_on_c, 4, 57, 0
10, 8609, Note_on_c, 4, 69, 0
10, 8610, Note_on_c, 4, 65, 92
10, 8610, Note_on_c, 4, 53, 92
10, 8631, Note_on_c, 4, 65, 0
10, 8631, Note_on_c, 4, 53, 0
10, 8640, Note_on_c, 4, 50, 92
10, 8640, Note_on_c, 4, 62, 92
10, 8924, Note_on_c, 4, 50, 0
10, 8924, Note_on_c, 4, 62, 0
10, 8940, Note_on_c, 4, 65, 92
10, 8984, Note_on_c, 4, 65, 0
10, 9000, Note_on_c, 4, 64, 92
10, 9044, Note_on_c, 4, 64, 0
10, 9060, Note_on_c, 4, 62, 92
10, 9104, Note_on_c, 4, 62, 0
10, 9120, Note_on_c, 4, 69, 92
10, 9209, Note_on_c, 4, 69, 0
10, 9240, Note_on_c, 4, 67, 92
10, 9329, Note_on_c, 4, 67, 0
10, 9360, Note_on_c, 4, 64, 92
10, 9449, Note_on_c, 4, 64, 0
10, 9480, Note_on_c, 4, 69, 92
10, 9569, Note_on_c, 4, 69, 0
10, 9600, Note_on_c, 4, 62, 104
10, 9600, Note_on_c, 4, 50, 104
10, 9779, Note_on_c, 4, 62, 0
10, 9779, Note_on_c, 4, 50, 0
10, 9840, Note_on_c, 4, 64, 92
10, 9840, Note_on_c, 4, 57, 92
10, 10019, Note_on_c, 4, 64, 0
10, 10019, Note_on_c, 4, 57, 0
10, 10080, Note_on_c, 4, 62, 92
10, 10080, Note_on_c, 4, 50, 92
10, 10259, Note_on_c, 4, 62, 0
10, 10259, Note_on_c, 4, 50, 0
10, 10560, Note_on_c, 4, 62, 92
10, 10560, Note_on_c, 4, 50, 92
10, 10739, Note_on_c, 4, 62, 0
10, 10739, Note_on_c, 4, 50, 0
10, 10800, Note_on_c, 4, 50, 92
10, 10800, Note_on_c, 4, 62, 92
10, 10979, Note_on_c, 4, 50, 0
10, 10979, Note_on_c, 4, 62, 0
10, 11040, Note_on_c, 4, 67, 92
10, 12104, Note_on_c, 4, 67, 0
10, 12120, Note_on_c, 4, 67, 92
10, 12224, Note_on_c, 4, 67, 0
10, 12240, Note_on_c, 4, 67, 92
10, 12344, Note_on_c, 4, 67, 0
10, 12360, Note_on_c, 4, 67, 92
10, 12449, Note_on_c, 4, 67, 0
10, 12480, Note_on_c, 4, 67, 104
10, 12599, Note_on_c, 4, 67, 0
10, 12960, Note_on_c, 4, 45, 44
10, 12960, Note_on_c, 4, 57, 44
10, 13424, Note_on_c, 4, 45, 0
10, 13424, Note_on_c, 4, 57, 0
10, 13440, Note_on_c, 4, 57, 44
10, 13440, Note_on_c, 4, 45, 44
10, 13559, Note_on_c, 4, 57, 0
10, 13559, Note_on_c, 4, 45, 0
10, 13920, Note_on_c, 4, 45, 44
10, 13920, Note_on_c, 4, 57, 44
10, 14384, Note_on_c, 4, 45, 0
10, 14384, Note_on_c, 4, 57, 0
10, 14400, Note_on_c, 4, 67, 80
10, 14400, Note_on_c, 4, 64, 80
10, 14519, Note_on_c, 4, 67, 0
10, 14519, Note_on_c, 4, 64, 0
10, 14640, Note_on_c, 4, 64, 92
10, 14700, Control_c, 4, 11, 109
10, 15104, Note_on_c, 4, 64, 0
10, 15118, Control_c, 4, 11, 127
10, 15120, Note_on_c, 4, 62, 92
10, 15120, Note_on_c, 4, 50, 92
10, 15180, Control_c, 4, 11, 109
10, 15584, Note_on_c, 4, 62, 0
10, 15584, Note_on_c, 4, 50, 0
10, 15598, Control_c, 4, 11, 127
10, 15600, Note_on_c, 4, 65, 92
10, 15600, Note_on_c, 4, 62, 92
10, 15719, Note_on_c, 4, 65, 0
10, 15719, Note_on_c, 4, 62, 0
10, 15838, Control_c, 4, 11, 109
10, 15840, Note_on_c, 4, 57, 92
10, 15840, Note_on_c, 4, 69, 92
10, 16304, Note_on_c, 4, 57, 0
10, 16304, Note_on_c, 4, 69, 0
10, 16320, Note_on_c, 4, 57, 92
10, 16320, Control_c, 4, 11, 109
10, 16320, Note_on_c, 4, 50, 92
10, 16347, Control_c, 4, 11, 104
10, 16373, Control_c, 4, 11, 100
10, 16400, Control_c, 4, 11, 95
10, 16427, Control_c, 4, 11, 91
10, 16453, Control_c, 4, 11, 86
10, 16480, Control_c, 4, 11, 82
10, 16507, Control_c, 4, 11, 77
10, 16533, Control_c, 4, 11, 74
10, 16560, Control_c, 4, 11, 69
10, 16587, Control_c, 4, 11, 64
10, 16613, Control_c, 4, 11, 60
10, 16640, Control_c, 4, 11, 55
10, 16667, Control_c, 4, 11, 51
10, 16693, Control_c, 4, 11, 46
10, 16720, Control_c, 4, 11, 42
10, 16747, Control_c, 4, 11, 37
10, 16773, Control_c, 4, 11, 29
10, 18719, Note_on_c, 4, 57, 0
10, 18719, Note_on_c, 4, 50, 0
10, 18720, Note_on_c, 4, 57, 92
10, 18720, Note_on_c, 4, 50, 92
10, 21119, Note_on_c, 4, 57, 0
10, 21119, Note_on_c, 4, 50, 0
10, 21120, Control_c, 4, 11, 29
10, 21120, Note_on_c, 4, 50, 92
10, 21120, Note_on_c, 4, 57, 92
10, 21156, Control_c, 4, 11, 30
10, 21193, Control_c, 4, 11, 31
10, 21229, Control_c, 4, 11, 32
10, 21266, Control_c, 4, 11, 34
10, 21302, Control_c, 4, 11, 35
10, 21339, Control_c, 4, 11, 36
10, 21375, Control_c, 4, 11, 37
10, 21412, Control_c, 4, 11, 39
10, 21448, Control_c, 4, 11, 40
10, 21485, Control_c, 4, 11, 41
10, 21521, Control_c, 4, 11, 42
10, 21557, Control_c, 4, 11, 44
10, 21594, Control_c, 4, 11, 45
10, 21630, Control_c, 4, 11, 46
10, 21667, Control_c, 4, 11, 47
10, 21703, Control_c, 4, 11, 49
10, 21740, Control_c, 4, 11, 50
10, 21776, Control_c, 4, 11, 51
10, 21813, Control_c, 4, 11, 52
10, 21849, Control_c, 4, 11, 54
10, 21886, Control_c, 4, 11, 55
10, 21922, Control_c, 4, 11, 56
10, 21958, Control_c, 4, 11, 57
10, 21995, Control_c, 4, 11, 59
10, 22031, Control_c, 4, 11, 60
10, 22068, Control_c, 4, 11, 61
10, 22104, Control_c, 4, 11, 62
10, 22141, Control_c, 4, 11, 64
10, 22177, Control_c, 4, 11, 65
10, 22214, Control_c, 4, 11, 66
10, 22250, Control_c, 4, 11, 67
10, 22287, Control_c, 4, 11, 69
10, 22323, Control_c, 4, 11, 70
10, 22359, Control_c, 4, 11, 71
10, 22396, Control_c, 4, 11, 72
10, 22432, Control_c, 4, 11, 74
10, 22469, Control_c, 4, 11, 75
10, 22505, Control_c, 4, 11, 76
10, 22542, Control_c, 4, 11, 77
10, 22578, Control_c, 4, 11, 79
10, 22615, Control_c, 4, 11, 80
10, 22651, Control_c, 4, 11, 81
10, 22688, Control_c, 4, 11, 82
10, 22724, Control_c, 4, 11, 84
10, 22761, Control_c, 4, 11, 85
10, 22797, Control_c, 4, 11, 86
10, 22833, Control_c, 4, 11, 87
10, 22870, Control_c, 4, 11, 89
10, 22904, Note_on_c, 4, 50, 0
10, 22904, Note_on_c, 4, 57, 0
10, 22906, Control_c, 4, 11, 90
10, 22920, Note_on_c, 4, 62, 92
10, 22920, Note_on_c, 4, 50, 92
10, 22943, Control_c, 4, 11, 91
10, 22979, Control_c, 4, 11, 92
10, 23016, Control_c, 4, 11, 94
10, 23052, Control_c, 4, 11, 95
10, 23089, Control_c, 4, 11, 96
10, 23125, Control_c, 4, 11, 97
10, 23162, Control_c, 4, 11, 99
10, 23198, Control_c, 4, 11, 100
10, 23234, Control_c, 4, 11, 101
10, 23271, Control_c, 4, 11, 102
10, 23307, Control_c, 4, 11, 104
10, 23344, Control_c, 4, 11, 105
10, 23380, Control_c, 4, 11, 106
10, 23417, Control_c, 4, 11, 107
10, 23453, Control_c, 4, 11, 109
10, 23490, Control_c, 4, 11, 110
10, 23526, Control_c, 4, 11, 111
10, 23563, Control_c, 4, 11, 112
10, 23599, Control_c, 4, 11, 114
10, 23635, Control_c, 4, 11, 115
10, 23672, Control_c, 4, 11, 116
10, 23708, Control_c, 4, 11, 117
10, 23745, Control_c, 4, 11, 119
10, 23781, Control_c, 4, 11, 120
10, 23818, Control_c, 4, 11, 121
10, 23854, Control_c, 4, 11, 122
10, 23891, Control_c, 4, 11, 124
10, 23927, Control_c, 4, 11, 125
10, 23961, Note_on_c, 4, 62, 0
10, 23961, Note_on_c, 4, 50, 0
10, 23964, Control_c, 4, 11, 127
10, 23970, Note_on_c, 4, 65, 92
10, 23991, Note_on_c, 4, 65, 0
10, 24000, Note_on_c, 4, 65, 92
10, 24441, Note_on_c, 4, 65, 0
10, 24450, Note_on_c, 4, 62, 92
10, 24471, Note_on_c, 4, 62, 0
10, 24480, Note_on_c, 4, 62, 92
10, 24480, Note_on_c, 4, 50, 92
10, 24599, Note_on_c, 4, 62, 0
10, 24599, Note_on_c, 4, 50, 0
10, 25800, Note_on_c, 4, 65, 92
10, 25904, Note_on_c, 4, 65, 0
10, 25920, Note_on_c, 4, 62, 92
10, 25920, Note_on_c, 4, 50, 92
10, 26039, Note_on_c, 4, 62, 0
10, 26039, Note_on_c, 4, 50, 0
10, 27420, Note_on_c, 4, 67, 92
10, 27464, Note_on_c, 4, 67, 0
10, 27480, Note_on_c, 4, 65, 92
10, 27524, Note_on_c, 4, 65, 0
10, 27540, Note_on_c, 4, 64, 92
10, 27584, Note_on_c, 4, 64, 0
10, 27600, Note_on_c, 4, 64, 92
10, 27719, Note_on_c, 4, 64, 0
10, 27840, Note_on_c, 4, 62, 104
10, 27840, Note_on_c, 4, 50, 104
10, 27959, Note_on_c, 4, 62, 0
10, 27959, Note_on_c, 4, 50, 0
10, 28380, Note_on_c, 4, 69, 92
10, 28424, Note_on_c, 4, 69, 0
10, 28440, Note_on_c, 4, 67, 92
10, 28484, Note_on_c, 4, 67, 0
10, 28500, Note_on_c, 4, 65, 92
10, 28544, Note_on_c, 4, 65, 0
10, 28560, Note_on_c, 4, 62, 92
10, 28679, Note_on_c, 4, 62, 0
10, 28860, Note_on_c, 4, 69, 92
10, 28904, Note_on_c, 4, 69, 0
10, 28920, Note_on_c, 4, 67, 92
10, 28964, Note_on_c, 4, 67, 0
10, 28980, Note_on_c, 4, 66, 92
10, 29024, Note_on_c, 4, 66, 0
10, 29040, Note_on_c, 4, 62, 104
10, 29084, Note_on_c, 4, 62, 0
10, 29100, Note_on_c, 4, 67, 92
10, 29144, Note_on_c, 4, 67, 0
10, 29160, Note_on_c, 4, 67, 92
10, 29204, Note_on_c, 4, 67, 0
10, 29220, Note_on_c, 4, 67, 92
10, 29264, Note_on_c, 4, 67, 0
10, 29280, Note_on_c, 4, 67, 104
10, 29324, Note_on_c, 4, 67, 0
10, 29340, Note_on_c, 4, 67, 92
10, 29384, Note_on_c, 4, 67, 0
10, 29400, Note_on_c, 4, 67, 92
10, 29444, Note_on_c, 4, 67, 0
10, 29460, Note_on_c, 4, 67, 92
10, 29504, Note_on_c, 4, 67, 0
10, 29520, Note_on_c, 4, 65, 92
10, 29564, Note_on_c, 4, 65, 0
10, 29580, Note_on_c, 4, 62, 92
10, 29580, Note_on_c, 4, 50, 92
10, 29624, Note_on_c, 4, 62, 0
10, 29624, Note_on_c, 4, 50, 0
10, 29640, Note_on_c, 4, 50, 92
10, 29640, Note_on_c, 4, 62, 92
10, 29684, Note_on_c, 4, 50, 0
10, 29684, Note_on_c, 4, 62, 0
10, 29700, Note_on_c, 4, 50, 92
10, 29700, Note_on_c, 4, 62, 92
10, 29744, Note_on_c, 4, 50, 0
10, 29744, Note_on_c, 4, 62, 0
10, 29760, Note_on_c, 4, 45, 104
10, 29760, Note_on_c, 4, 57, 104
10, 29820, Control_c, 4, 11, 109
10, 30224, Note_on_c, 4, 45, 0
10, 30224, Note_on_c, 4, 57, 0
10, 30238, Control_c, 4, 11, 127
10, 30240, Note_on_c, 4, 69, 104
10, 30300, Control_c, 4, 11, 109
10, 30704, Note_on_c, 4, 69, 0
10, 30718, Control_c, 4, 11, 127
10, 30720, Note_on_c, 4, 67, 92
10, 30809, Note_on_c, 4, 67, 0
10, 30840, Note_on_c, 4, 65, 92
10, 30929, Note_on_c, 4, 65, 0
10, 30960, Note_on_c, 4, 64, 92
10, 31049, Note_on_c, 4, 64, 0
10, 31080, Note_on_c, 4, 62, 92
10, 31169, Note_on_c, 4, 62, 0
10, 31200, Note_on_c, 4, 64, 104
10, 31200, Note_on_c, 4, 57, 104
10, 31379, Note_on_c, 4, 64, 0
10, 31379, Note_on_c, 4, 57, 0
10, 31440, Note_on_c, 4, 65, 104
10, 31440, Note_on_c, 4, 62, 104
10, 31619, Note_on_c, 4, 65, 0
10, 31619, Note_on_c, 4, 62, 0
10, 31680, Note_on_c, 4, 64, 104
10, 31680, Note_on_c, 4, 57, 104
10, 31859, Note_on_c, 4, 64, 0
10, 31859, Note_on_c, 4, 57, 0
10, 32160, Note_on_c, 4, 45, 104
10, 32160, Note_on_c, 4, 57, 104
10, 32220, Control_c, 4, 11, 107
10, 32624, Note_on_c, 4, 45, 0
10, 32624, Note_on_c, 4, 57, 0
10, 32640, Note_on_c, 4, 45, 104
10, 32640, Note_on_c, 4, 57, 104
10, 32744, Note_on_c, 4, 45, 0
10, 32744, Note_on_c, 4, 57, 0
10, 32760, Note_on_c, 4, 45, 104
10, 32760, Note_on_c, 4, 57, 104
10, 32864, Note_on_c, 4, 45, 0
10, 32864, Note_on_c, 4, 57, 0
10, 32880, Note_on_c, 4, 45, 104
10, 32880, Note_on_c, 4, 57, 104
10, 32984, Note_on_c, 4, 45, 0
10, 32984, Note_on_c, 4, 57, 0
10, 33000, Note_on_c, 4, 62, 104
10, 33000, Note_on_c, 4, 50, 104
10, 33119, Note_on_c, 4, 62, 0
10, 33119, Note_on_c, 4, 50, 0
10, 33360, Control_c, 4, 11, 127
10, 33600, Note_on_c, 4, 67, 104
10, 33779, Note_on_c, 4, 67, 0
10, 33840, Note_on_c, 4, 65, 104
10, 34019, Note_on_c, 4, 65, 0
10, 34080, Note_on_c, 4, 64, 104
10, 34259, Note_on_c, 4, 64, 0
10, 34320, Note_on_c, 4, 64, 104
10, 34499, Note_on_c, 4, 64, 0
10, 34560, Control_c, 4, 11, 127
10, 34560, Note_on_c, 4, 60, 92
10, 34587, Control_c, 4, 11, 124
10, 34613, Control_c, 4, 11, 120
10, 34640, Control_c, 4, 11, 117
10, 34667, Control_c, 4, 11, 114
10, 34693, Control_c, 4, 11, 110
10, 34720, Control_c, 4, 11, 107
10, 34739, Note_on_c, 4, 60, 0
10, 34747, Control_c, 4, 11, 104
10, 34773, Control_c, 4, 11, 100
10, 34800, Note_on_c, 4, 60, 92
10, 34800, Control_c, 4, 11, 97
10, 34827, Control_c, 4, 11, 94
10, 34853, Control_c, 4, 11, 90
10, 34880, Control_c, 4, 11, 87
10, 34907, Control_c, 4, 11, 84
10, 34933, Control_c, 4, 11, 80
10, 34960, Control_c, 4, 11, 77
10, 34979, Note_on_c, 4, 60, 0
10, 34987, Control_c, 4, 11, 74
10, 35013, Control_c, 4, 11, 70
10, 37920, Control_c, 4, 11, 127
10, 38160, Note_on_c, 4, 65, 44
10, 38279, Note_on_c, 4, 65, 0
10, 38640, Note_on_c, 4, 65, 44
10, 38759, Note_on_c, 4, 65, 0
10, 39120, Note_on_c, 4, 65, 44
10, 39239, Note_on_c, 4, 65, 0
10, 39600, Note_on_c, 4, 65, 44
10, 39719, Note_on_c, 4, 65, 0
10, 39840, Control_c, 4, 11, 87
10, 39960, Note_on_c, 4, 65, 68
10, 39981, Control_c, 4, 11, 88
10, 40002, Control_c, 4, 11, 89
10, 40023, Control_c, 4, 11, 90
10, 40044, Control_c, 4, 11, 91
10, 40065, Control_c, 4, 11, 92
10, 40086, Control_c, 4, 11, 93
10, 40107, Control_c, 4, 11, 94
10, 40128, Control_c, 4, 11, 95
10, 40149, Control_c, 4, 11, 96
10, 40170, Control_c, 4, 11, 97
10, 40184, Note_on_c, 4, 65, 0
10, 40191, Control_c, 4, 11, 98
10, 40200, Note_on_c, 4, 65, 68
10, 40212, Control_c, 4, 11, 99
10, 40233, Control_c, 4, 11, 100
10, 40254, Control_c, 4, 11, 101
10, 40275, Control_c, 4, 11, 102
10, 40296, Control_c, 4, 11, 103
10, 40317, Control_c, 4, 11, 104
10, 40319, Note_on_c, 4, 65, 0
10, 40338, Control_c, 4, 11, 105
10, 40359, Control_c, 4, 11, 106
10, 40380, Control_c, 4, 11, 107
10, 40401, Control_c, 4, 11, 108
10, 40422, Control_c, 4, 11, 109
10, 40440, Note_on_c, 4, 65, 68
10, 40443, Control_c, 4, 11, 110
10, 40464, Control_c, 4, 11, 111
10, 40485, Control_c, 4, 11, 112
10, 40506, Control_c, 4, 11, 113
10, 40527, Control_c, 4, 11, 114
10, 40548, Control_c, 4, 11, 115
10, 40569, Control_c, 4, 11, 116
10, 40590, Control_c, 4, 11, 117
10, 40611, Control_c, 4, 11, 118
10, 40632, Control_c, 4, 11, 119
10, 40653, Control_c, 4, 11, 120
10, 40664, Note_on_c, 4, 65, 0
10, 40674, Control_c, 4, 11, 121
10, 40680, Note_on_c, 4, 65, 68
10, 40695, Control_c, 4, 11, 122
10, 40716, Control_c, 4, 11, 123
10, 40737, Control_c, 4, 11, 124
10, 40758, Control_c, 4, 11, 125
10, 40779, Control_c, 4, 11, 126
10, 40799, Note_on_c, 4, 65, 0
10, 40800, Control_c, 4, 11, 127
10, 40824, Control_c, 4, 11, 126
10, 40848, Control_c, 4, 11, 125
10, 40872, Control_c, 4, 11, 124
10, 40896, Control_c, 4, 11, 123
10, 40920, Control_c, 4, 11, 122
10, 40920, Note_on_c, 4, 65, 68
10, 40944, Control_c, 4, 11, 121
10, 40968, Control_c, 4, 11, 120
10, 40992, Control_c, 4, 11, 119
10, 41016, Control_c, 4, 11, 118
10, 41040, Control_c, 4, 11, 117
10, 41064, Control_c, 4, 11, 116
10, 41088, Control_c, 4, 11, 115
10, 41112, Control_c, 4, 11, 114
10, 41136, Control_c, 4, 11, 113
10, 41144, Note_on_c, 4, 65, 0
10, 41160, Note_on_c, 4, 65, 68
10, 41160, Control_c, 4, 11, 112
10, 41184, Control_c, 4, 11, 111
10, 41208, Control_c, 4, 11, 110
10, 41232, Control_c, 4, 11, 109
10, 41256, Control_c, 4, 11, 108
10, 41279, Note_on_c, 4, 65, 0
10, 41280, Control_c, 4, 11, 107
10, 41304, Control_c, 4, 11, 106
10, 41328, Control_c, 4, 11, 105
10, 41352, Control_c, 4, 11, 104
10, 41376, Control_c, 4, 11, 103
10, 41400, Control_c, 4, 11, 102
10, 41400, Note_on_c, 4, 65, 68
10, 41424, Control_c, 4, 11, 101
10, 41448, Control_c, 4, 11, 100
10, 41472, Control_c, 4, 11, 99
10, 41496, Control_c, 4, 11, 98
10, 41520, Control_c, 4, 11, 97
10, 41544, Control_c, 4, 11, 96
10, 41568, Control_c, 4, 11, 95
10, 41592, Control_c, 4, 11, 94
10, 41616, Control_c, 4, 11, 93
10, 41624, Note_on_c, 4, 65, 0
10, 41640, Control_c, 4, 11, 92
10, 41640, Note_on_c, 4, 65, 68
10, 41664, Control_c, 4, 11, 91
10, 41688, Control_c, 4, 11, 90
10, 41712, Control_c, 4, 11, 89
10, 41736, Control_c, 4, 11, 87
10, 41744, Note_on_c, 4, 65, 0
10, 41760, Note_on_c, 4, 65, 68
10, 41879, Note_on_c, 4, 65, 0
10, 44640, Control_c, 4, 11, 127
10, 44880, Note_on_c, 4, 67, 80
10, 44931, Note_on_c, 4, 67, 0
10, 44940, Note_on_c, 4, 67, 80
10, 45051, Note_on_c, 4, 67, 0
10, 45060, Note_on_c, 4, 67, 80
10, 45119, Note_on_c, 4, 67, 0
10, 45120, Note_on_c, 4, 65, 80
10, 45239, Note_on_c, 4, 65, 0
10, 45360, Note_on_c, 4, 65, 80
10, 45449, Note_on_c, 4, 65, 0
10, 46320, Control_c, 4, 11, 107
10, 46560, Note_on_c, 4, 67, 56
10, 46608, Control_c, 4, 11, 108
10, 46656, Control_c, 4, 11, 109
10, 46704, Control_c, 4, 11, 110
10, 46752, Control_c, 4, 11, 111
10, 46800, Control_c, 4, 11, 112
10, 46848, Control_c, 4, 11, 113
10, 46896, Control_c, 4, 11, 114
10, 46944, Control_c, 4, 11, 115
10, 46992, Control_c, 4, 11, 116
10, 47040, Control_c, 4, 11, 117
10, 47088, Control_c, 4, 11, 118
10, 47091, Note_on_c, 4, 67, 0
10, 47100, Note_on_c, 4, 67, 56
10, 47136, Control_c, 4, 11, 119
10, 47184, Control_c, 4, 11, 120
10, 47211, Note_on_c, 4, 67, 0
10, 47220, Note_on_c, 4, 67, 56
10, 47232, Control_c, 4, 11, 121
10, 47280, Control_c, 4, 11, 122
10, 47328, Control_c, 4, 11, 123
10, 47331, Note_on_c, 4, 67, 0
10, 47340, Note_on_c, 4, 67, 56
10, 47376, Control_c, 4, 11, 124
10, 47424, Control_c, 4, 11, 125
10, 47451, Note_on_c, 4, 67, 0
10, 47460, Note_on_c, 4, 65, 56
10, 47472, Control_c, 4, 11, 127
10, 47519, Note_on_c, 4, 65, 0
10, 47520, Note_on_c, 4, 65, 56
10, 47571, Note_on_c, 4, 65, 0
10, 47580, Note_on_c, 4, 65, 58
10, 47691, Note_on_c, 4, 65, 0
10, 47700, Note_on_c, 4, 65, 62
10, 47811, Note_on_c, 4, 65, 0
10, 47820, Note_on_c, 4, 65, 67
10, 47931, Note_on_c, 4, 65, 0
10, 47940, Note_on_c, 4, 65, 71
10, 47999, Note_on_c, 4, 65, 0
10, 48000, Note_on_c, 4, 65, 74
10, 48051, Note_on_c, 4, 65, 0
10, 48060, Note_on_c, 4, 65, 76
10, 48171, Note_on_c, 4, 65, 0
10, 48180, Note_on_c, 4, 65, 80
10, 48291, Note_on_c, 4, 65, 0
10, 48300, Note_on_c, 4, 65, 85
10, 48411, Note_on_c, 4, 65, 0
10, 48420, Note_on_c, 4, 65, 89
10, 48464, Note_on_c, 4, 65, 0
10, 48480, Note_on_c, 4, 65, 92
10, 48569, Note_on_c, 4, 65, 0
10, 48600, Note_on_c, 4, 63, 92
10, 48666, Note_on_c, 4, 63, 0
10, 48690, Note_on_c, 4, 63, 92
10, 48711, Note_on_c, 4, 63, 0
10, 48720, Note_on_c, 4, 65, 92
10, 48839, Note_on_c, 4, 65, 0
10, 48960, Note_on_c, 4, 67, 92
10, 49049, Note_on_c, 4, 67, 0
10, 49080, Note_on_c, 4, 66, 92
10, 49146, Note_on_c, 4, 66, 0
10, 49170, Note_on_c, 4, 66, 92
10, 49191, Note_on_c, 4, 66, 0
10, 49200, Note_on_c, 4, 67, 92
10, 49319, Note_on_c, 4, 67, 0
10, 50400, Note_on_c, 4, 65, 92
10, 50489, Note_on_c, 4, 65, 0
10, 50520, Note_on_c, 4, 63, 92
10, 50586, Note_on_c, 4, 63, 0
10, 50610, Note_on_c, 4, 63, 92
10, 50631, Note_on_c, 4, 63, 0
10, 50640, Note_on_c, 4, 65, 92
10, 50759, Note_on_c, 4, 65, 0
10, 50880, Note_on_c, 4, 66, 92
10, 50969, Note_on_c, 4, 66, 0
10, 51000, Note_on_c, 4, 65, 92
10, 51066, Note_on_c, 4, 65, 0
10, 51090, Note_on_c, 4, 65, 92
10, 51111, Note_on_c, 4, 65, 0
10, 51120, Note_on_c, 4, 66, 92
10, 51239, Note_on_c, 4, 66, 0
10, 57120, Control_c, 4, 11, 47
10, 57360, Note_on_c, 4, 65, 80
10, 59039, Note_on_c, 4, 65, 0
10, 59040, Note_on_c, 4, 65, 80
10, 59040, Note_on_c, 4, 60, 80
10, 59040, Control_c, 4, 11, 47
10, 59088, Control_c, 4, 11, 48
10, 59136, Control_c, 4, 11, 49
10, 59184, Control_c, 4, 11, 50
10, 59232, Control_c, 4, 11, 51
10, 59280, Control_c, 4, 11, 52
10, 59328, Control_c, 4, 11, 53
10, 59376, Control_c, 4, 11, 54
10, 59424, Control_c, 4, 11, 55
10, 59472, Control_c, 4, 11, 56
10, 59520, Control_c, 4, 11, 57
10, 59568, Control_c, 4, 11, 58
10, 59616, Control_c, 4, 11, 59
10, 59664, Control_c, 4, 11, 60
10, 59712, Control_c, 4, 11, 61
10, 59760, Control_c, 4, 11, 62
10, 59808, Control_c, 4, 11, 63
10, 59856, Control_c, 4, 11, 64
10, 59904, Control_c, 4, 11, 65
10, 59952, Control_c, 4, 11, 66
10, 59984, Note_on_c, 4, 60, 0
10, 60000, Note_on_c, 4, 62, 80
10, 60000, Control_c, 4, 11, 67
10, 60048, Control_c, 4, 11, 68
10, 60096, Control_c, 4, 11, 69
10, 60144, Control_c, 4, 11, 70
10, 60192, Control_c, 4, 11, 71
10, 60240, Control_c, 4, 11, 72
10, 60288, Control_c, 4, 11, 73
10, 60336, Control_c, 4, 11, 74
10, 60384, Control_c, 4, 11, 75
10, 60432, Control_c, 4, 11, 76
10, 60480, Control_c, 4, 11, 77
10, 60528, Control_c, 4, 11, 78
10, 60576, Control_c, 4, 11, 79
10, 60624, Control_c, 4, 11, 80
10, 60672, Control_c, 4, 11, 81
10, 60720, Control_c, 4, 11, 82
10, 60768, Control_c, 4, 11, 83
10, 60816, Control_c, 4, 11, 84
10, 60864, Control_c, 4, 11, 85
10, 60912, Control_c, 4, 11, 86
10, 60944, Note_on_c, 4, 62, 0
10, 60959, Note_on_c, 4, 65, 0
10, 60960, Note_on_c, 4, 65, 80
10, 60960, Note_on_c, 4, 60, 80
10, 60960, Control_c, 4, 11, 87
10, 61008, Control_c, 4, 11, 88
10, 61056, Control_c, 4, 11, 89
10, 61104, Control_c, 4, 11, 90
10, 61152, Control_c, 4, 11, 91
10, 61200, Control_c, 4, 11, 92
10, 61248, Control_c, 4, 11, 93
10, 61296, Control_c, 4, 11, 94
10, 61344, Control_c, 4, 11, 95
10, 61392, Control_c, 4, 11, 96
10, 61424, Note_on_c, 4, 60, 0
10, 61440, Note_on_c, 4, 62, 80
10, 61440, Control_c, 4, 11, 97
10, 61488, Control_c, 4, 11, 98
10, 61536, Control_c, 4, 11, 99
10, 61584, Control_c, 4, 11, 100
10, 61632, Control_c, 4, 11, 101
10, 61680, Control_c, 4, 11, 102
10, 61728, Control_c, 4, 11, 103
10, 61776, Control_c, 4, 11, 104
10, 61824, Control_c, 4, 11, 105
10, 61872, Control_c, 4, 11, 106
10, 61904, Note_on_c, 4, 65, 0
10, 61904, Note_on_c, 4, 62, 0
10, 61920, Note_on_c, 4, 65, 80
10, 61920, Note_on_c, 4, 60, 80
10, 61920, Control_c, 4, 11, 107
10, 61968, Control_c, 4, 11, 108
10, 61971, Note_on_c, 4, 65, 0
10, 61971, Note_on_c, 4, 60, 0
10, 61980, Note_on_c, 4, 65, 80
10, 61980, Note_on_c, 4, 60, 80
10, 62016, Control_c, 4, 11, 109
10, 62064, Control_c, 4, 11, 110
10, 62091, Note_on_c, 4, 65, 0
10, 62091, Note_on_c, 4, 60, 0
10, 62100, Note_on_c, 4, 65, 80
10, 62100, Note_on_c, 4, 60, 80
10, 62112, Control_c, 4, 11, 111
10, 62160, Control_c, 4, 11, 112
10, 62208, Control_c, 4, 11, 113
10, 62211, Note_on_c, 4, 65, 0
10, 62211, Note_on_c, 4, 60, 0
10, 62220, Note_on_c, 4, 65, 80
10, 62220, Note_on_c, 4, 60, 80
10, 62256, Control_c, 4, 11, 114
10, 62279, Note_on_c, 4, 60, 0
10, 62280, Note_on_c, 4, 62, 80
10, 62304, Control_c, 4, 11, 115
10, 62331, Note_on_c, 4, 65, 0
10, 62331, Note_on_c, 4, 62, 0
10, 62340, Note_on_c, 4, 62, 80
10, 62340, Note_on_c, 4, 65, 80
10, 62352, Control_c, 4, 11, 116
10, 62399, Note_on_c, 4, 62, 0
10, 62399, Note_on_c, 4, 65, 0
10, 62400, Note_on_c, 4, 65, 80
10, 62400, Control_c, 4, 11, 117
10, 62400, Note_on_c, 4, 60, 80
10, 62448, Control_c, 4, 11, 118
10, 62451, Note_on_c, 4, 65, 0
10, 62451, Note_on_c, 4, 60, 0
10, 62460, Note_on_c, 4, 65, 80
10, 62460, Note_on_c, 4, 60, 80
10, 62496, Control_c, 4, 11, 119
10, 62544, Control_c, 4, 11, 120
10, 62571, Note_on_c, 4, 65, 0
10, 62571, Note_on_c, 4, 60, 0
10, 62580, Note_on_c, 4, 65, 80
10, 62580, Note_on_c, 4, 60, 80
10, 62592, Control_c, 4, 11, 121
10, 62640, Control_c, 4, 11, 122
10, 62688, Control_c, 4, 11, 123
10, 62691, Note_on_c, 4, 65, 0
10, 62691, Note_on_c, 4, 60, 0
10, 62700, Note_on_c, 4, 60, 80
10, 62700, Note_on_c, 4, 65, 80
10, 62736, Control_c, 4, 11, 124
10, 62759, Note_on_c, 4, 60, 0
10, 62760, Note_on_c, 4, 62, 80
10, 62784, Control_c, 4, 11, 125
10, 62811, Note_on_c, 4, 65, 0
10, 62811, Note_on_c, 4, 62, 0
10, 62820, Note_on_c, 4, 65, 80
10, 62820, Note_on_c, 4, 62, 80
10, 62832, Control_c, 4, 11, 127
10, 62879, Note_on_c, 4, 65, 0
10, 62879, Note_on_c, 4, 62, 0
10, 62880, Note_on_c, 4, 65, 80
10, 62984, Note_on_c, 4, 65, 0
10, 63000, Note_on_c, 4, 65, 92
10, 63060, Control_c, 4, 11, 107
10, 63464, Note_on_c, 4, 65, 0
10, 63478, Control_c, 4, 11, 127
10, 63480, Note_on_c, 4, 65, 92
10, 63540, Control_c, 4, 11, 107
10, 63824, Note_on_c, 4, 65, 0
10, 63840, Note_on_c, 4, 67, 92
10, 63944, Note_on_c, 4, 67, 0
10, 63958, Control_c, 4, 11, 127
10, 63960, Note_on_c, 4, 67, 92
10, 64020, Control_c, 4, 11, 107
10, 64371, Note_on_c, 4, 67, 0
10, 64380, Note_on_c, 4, 65, 92
10, 64424, Note_on_c, 4, 65, 0
10, 64438, Control_c, 4, 11, 127
10, 64440, Note_on_c, 4, 65, 92
10, 64500, Control_c, 4, 11, 107
10, 64799, Note_on_c, 4, 65, 0
10, 65280, Control_c, 4, 11, 127
10, 65400, Note_on_c, 4, 65, 92
10, 65460, Control_c, 4, 11, 107
10, 65624, Note_on_c, 4, 65, 0
10, 65638, Control_c, 4, 11, 127
10, 65640, Note_on_c, 4, 65, 80
10, 65759, Note_on_c, 4, 65, 0
10, 65760, Note_on_c, 4, 65, 92
10, 65864, Note_on_c, 4, 65, 0
10, 65880, Note_on_c, 4, 50, 44
10, 65880, Note_on_c, 4, 62, 44
10, 65999, Note_on_c, 4, 50, 0
10, 65999, Note_on_c, 4, 62, 0
10, 66600, Note_on_c, 4, 50, 92
10, 66600, Note_on_c, 4, 62, 92
10, 66681, Note_on_c, 4, 50, 0
10, 66681, Note_on_c, 4, 62, 0
10, 66690, Note_on_c, 4, 62, 92
10, 66690, Note_on_c, 4, 50, 92
10, 66711, Note_on_c, 4, 62, 0
10, 66711, Note_on_c, 4, 50, 0
10, 66720, Note_on_c, 4, 67, 92
10, 66824, Note_on_c, 4, 67, 0
10, 66840, Note_on_c, 4, 67, 44
10, 66959, Note_on_c, 4, 67, 0
10, 67560, Note_on_c, 4, 67, 92
10, 67641, Note_on_c, 4, 67, 0
10, 67650, Note_on_c, 4, 67, 92
10, 67671, Note_on_c, 4, 67, 0
10, 67680, Note_on_c, 4, 50, 92
10, 67680, Note_on_c, 4, 62, 92
10, 67784, Note_on_c, 4, 50, 0
10, 67784, Note_on_c, 4, 62, 0
10, 67800, Note_on_c, 4, 62, 44
10, 67800, Note_on_c, 4, 50, 44
10, 67919, Note_on_c, 4, 62, 0
10, 67919, Note_on_c, 4, 50, 0
10, 68520, Note_on_c, 4, 62, 92
10, 68520, Note_on_c, 4, 50, 92
10, 68601, Note_on_c, 4, 62, 0
10, 68601, Note_on_c, 4, 50, 0
10, 68610, Note_on_c, 4, 50, 92
10, 68610, Note_on_c, 4, 62, 92
10, 68631, Note_on_c, 4, 50, 0
10, 68631, Note_on_c, 4, 62, 0
10, 68640, Note_on_c, 4, 67, 92
10, 68744, Note_on_c, 4, 67, 0
10, 68760, Note_on_c, 4, 67, 44
10, 68879, Note_on_c, 4, 67, 0
10, 69720, Note_on_c, 4, 50, 80
10, 69720, Note_on_c, 4, 62, 80
10, 69839, Note_on_c, 4, 50, 0
10, 69839, Note_on_c, 4, 62, 0
10, 69960, Note_on_c, 4, 67, 80
10, 70079, Note_on_c, 4, 67, 0
10, 70200, Note_on_c, 4, 65, 80
10, 70319, Note_on_c, 4, 65, 0
10, 70440, Note_on_c, 4, 45, 80
10, 70440, Note_on_c, 4, 57, 80
10, 70559, Note_on_c, 4, 45, 0
10, 70559, Note_on_c, 4, 57, 0
10, 70680, Note_on_c, 4, 62, 80
10, 70680, Note_on_c, 4, 50, 80
10, 70799, Note_on_c, 4, 62, 0
10, 70799, Note_on_c, 4, 50, 0
10, 70920, Note_on_c, 4, 67, 80
10, 71039, Note_on_c, 4, 67, 0
10, 71160, Note_on_c, 4, 65, 80
10, 71279, Note_on_c, 4, 65, 0
10, 71400, Note_on_c, 4, 65, 80
10, 71504, Note_on_c, 4, 65, 0
10, 71520, Note_on_c, 4, 50, 92
10, 71520, Note_on_c, 4, 62, 92
10, 71639, Note_on_c, 4, 50, 0
10, 71639, Note_on_c, 4, 62, 0
10, 72000, Note_on_c, 4, 50, 80
10, 72000, Note_on_c, 4, 62, 80
10, 72119, Note_on_c, 4, 50, 0
10, 72119, Note_on_c, 4, 62, 0
10, 72480, Note_on_c, 4, 62, 80
10, 72480, Note_on_c, 4, 50, 80
10, 72599, Note_on_c, 4, 62, 0
10, 72599, Note_on_c, 4, 50, 0
10, 72960, Note_on_c, 4, 50, 80
10, 72960, Note_on_c, 4, 62, 80
10, 73079, Note_on_c, 4, 50, 0
10, 73079, Note_on_c, 4, 62, 0
10, 73200, Note_on_c, 4, 62, 80
10, 73200, Note_on_c, 4, 50, 80
10, 73319, Note_on_c, 4, 62, 0
10, 73319, Note_on_c, 4, 50, 0
10, 73440, Note_on_c, 4, 62, 80
10, 73440, Note_on_c, 4, 50, 80
10, 73559, Note_on_c, 4, 62, 0
10, 73559, Note_on_c, 4, 50, 0
10, 73680, Note_on_c, 4, 62, 80
10, 73680, Note_on_c, 4, 50, 80
10, 73799, Note_on_c, 4, 62, 0
10, 73799, Note_on_c, 4, 50, 0
10, 73920, Note_on_c, 4, 50, 80
10, 73920, Note_on_c, 4, 62, 80
10, 74039, Note_on_c, 4, 50, 0
10, 74039, Note_on_c, 4, 62, 0
10, 74160, Note_on_c, 4, 62, 80
10, 74160, Note_on_c, 4, 50, 80
10, 74279, Note_on_c, 4, 62, 0
10, 74279, Note_on_c, 4, 50, 0
10, 74400, Note_on_c, 4, 62, 80
10, 74400, Note_on_c, 4, 50, 80
10, 74519, Note_on_c, 4, 62, 0
10, 74519, Note_on_c, 4, 50, 0
10, 74640, Note_on_c, 4, 62, 80
10, 74640, Note_on_c, 4, 50, 80
10, 74759, Note_on_c, 4, 62, 0
10, 74759, Note_on_c, 4, 50, 0
10, 74880, Note_on_c, 4, 62, 80
10, 74880, Note_on_c, 4, 50, 80
10, 74999, Note_on_c, 4, 62, 0
10, 74999, Note_on_c, 4, 50, 0
10, 75120, Note_on_c, 4, 50, 80
10, 75120, Note_on_c, 4, 62, 80
10, 75239, Note_on_c, 4, 50, 0
10, 75239, Note_on_c, 4, 62, 0
10, 75360, Note_on_c, 4, 50, 80
10, 75360, Note_on_c, 4, 62, 80
10, 75479, Note_on_c, 4, 50, 0
10, 75479, Note_on_c, 4, 62, 0
10, 76320, Note_on_c, 4, 57, 32
10, 77280, Note_on_c, 4, 64, 32
10, 79199, Note_on_c, 4, 57, 0
10, 79199, Note_on_c, 4, 64, 0
10, 79200, Note_on_c, 4, 64, 32
10, 79200, Note_on_c, 4, 57, 32
10, 81359, Note_on_c, 4, 64, 0
10, 81360, Note_on_c, 4, 62, 32
10, 81599, Note_on_c, 4, 57, 0
10, 81599, Note_on_c, 4, 62, 0
10, 81600, Note_on_c, 4, 62, 32
10, 81600, Note_on_c, 4, 57, 32
10, 83519, Note_on_c, 4, 62, 0
10, 83519, Note_on_c, 4, 57, 0
10, 83520, Note_on_c, 4, 57, 32
10, 83520, Note_on_c, 4, 62, 32
10, 85079, Note_on_c, 4, 57, 0
10, 85079, Note_on_c, 4, 62, 0
10, 85200, Note_on_c, 4, 62, 32
10, 85200, Note_on_c, 4, 50, 32
10, 85319, Note_on_c, 4, 62, 0
10, 85319, Note_on_c, 4, 50, 0
10, 85890, Note_on_c, 4, 50, 32
10, 85890, Note_on_c, 4, 62, 32
10, 85911, Note_on_c, 4, 50, 0
10, 85911, Note_on_c, 4, 62, 0
10, 85920, Note_on_c, 4, 62, 32
10, 85920, Note_on_c, 4, 50, 32
10, 86159, Note_on_c, 4, 62, 0
10, 86159, Note_on_c, 4, 50, 0
10, 86850, Note_on_c, 4, 50, 32
10, 86850, Note_on_c, 4, 62, 32
10, 86871, Note_on_c, 4, 50, 0
10, 86871, Note_on_c, 4, 62, 0
10, 86880, Note_on_c, 4, 50, 32
10, 86880, Note_on_c, 4, 62, 32
10, 86999, Note_on_c, 4, 50, 0
10, 86999, Note_on_c, 4, 62, 0
10, 87810, Note_on_c, 4, 62, 32
10, 87810, Note_on_c, 4, 50, 32
10, 87831, Note_on_c, 4, 62, 0
10, 87831, Note_on_c, 4, 50, 0
10, 87840, Note_on_c, 4, 50, 32
10, 87840, Note_on_c, 4, 62, 32
10, 87959, Note_on_c, 4, 50, 0
10, 87959, Note_on_c, 4, 62, 0
10, 88320, Control_c, 4, 11, 47
10, 88740, Control_c, 4, 11, 47
10, 88761, Control_c, 4, 11, 49
10, 88770, Note_on_c, 4, 62, 80
10, 88770, Note_on_c, 4, 50, 80
10, 88783, Control_c, 4, 11, 50
10, 88791, Note_on_c, 4, 62, 0
10, 88791, Note_on_c, 4, 50, 0
10, 88800, Note_on_c, 4, 62, 80
10, 88800, Note_on_c, 4, 50, 80
10, 88804, Control_c, 4, 11, 52
10, 88825, Control_c, 4, 11, 54
10, 88846, Control_c, 4, 11, 55
10, 88868, Control_c, 4, 11, 57
10, 88889, Control_c, 4, 11, 59
10, 88910, Control_c, 4, 11, 60
10, 88931, Control_c, 4, 11, 62
10, 88953, Control_c, 4, 11, 64
10, 88974, Control_c, 4, 11, 65
10, 88995, Control_c, 4, 11, 67
10, 89016, Control_c, 4, 11, 69
10, 89038, Control_c, 4, 11, 70
10, 89039, Note_on_c, 4, 62, 0
10, 89039, Note_on_c, 4, 50, 0
10, 89718, Control_c, 4, 11, 124
10, 89730, Note_on_c, 4, 50, 80
10, 89730, Note_on_c, 4, 62, 80
10, 89739, Control_c, 4, 11, 127
10, 89751, Note_on_c, 4, 50, 0
10, 89751, Note_on_c, 4, 62, 0
10, 89760, Note_on_c, 4, 60, 80
10, 90104, Note_on_c, 4, 60, 0
10, 90120, Note_on_c, 4, 60, 80
10, 90201, Note_on_c, 4, 60, 0
10, 90210, Note_on_c, 4, 60, 80
10, 90231, Note_on_c, 4, 60, 0
10, 90240, Note_on_c, 4, 60, 80
10, 90359, Note_on_c, 4, 60, 0
10, 90720, Note_on_c, 4, 60, 80
10, 90824, Note_on_c, 4, 60, 0
10, 90840, Note_on_c, 4, 66, 80
10, 90840, Note_on_c, 4, 54, 80
10, 90921, Note_on_c, 4, 66, 0
10, 90921, Note_on_c, 4, 54, 0
10, 90930, Note_on_c, 4, 66, 80
10, 90930, Note_on_c, 4, 54, 80
10, 90951, Note_on_c, 4, 66, 0
10, 90951, Note_on_c, 4, 54, 0
10, 90960, Note_on_c, 4, 57, 92
10, 90960, Note_on_c, 4, 69, 92
10, 91079, Note_on_c, 4, 57, 0
10, 91079, Note_on_c, 4, 69, 0
10, 91320, Note_on_c, 4, 57, 80
10, 91401, Note_on_c, 4, 57, 0
10, 91410, Note_on_c, 4, 57, 80
10, 91431, Note_on_c, 4, 57, 0
10, 91440, Note_on_c, 4, 62, 92
10, 91544, Note_on_c, 4, 62, 0
10, 91560, Note_on_c, 4, 50, 80
10, 91560, Note_on_c, 4, 62, 80
10, 91641, Note_on_c, 4, 50, 0
10, 91641, Note_on_c, 4, 62, 0
10, 91650, Note_on_c, 4, 62, 80
10, 91650, Note_on_c, 4, 50, 80
10, 91671, Note_on_c, 4, 62, 0
10, 91671, Note_on_c, 4, 50, 0
10, 91680, Note_on_c, 4, 62, 44
10, 91680, Note_on_c, 4, 50, 44
10, 91799, Note_on_c, 4, 62, 0
10, 91799, Note_on_c, 4, 50, 0
10, 95010, Note_on_c, 4, 67, 44
10, 95031, Note_on_c, 4, 67, 0
10, 95040, Note_on_c, 4, 67, 44
10, 95159, Note_on_c, 4, 67, 0
10, 95970, Note_on_c, 4, 67, 44
10, 95991, Note_on_c, 4, 67, 0
10, 96000, Note_on_c, 4, 67, 44
10, 96119, Note_on_c, 4, 67, 0
10, 96240, Control_c, 4, 11, 67
10, 96360, Note_on_c, 4, 67, 80
10, 97424, Note_on_c, 4, 67, 0
10, 97440, Note_on_c, 4, 50, 80
10, 97440, Note_on_c, 4, 67, 80
10, 97460, Control_c, 4, 11, 68
10, 97480, Control_c, 4, 11, 70
10, 97500, Control_c, 4, 11, 71
10, 97520, Control_c, 4, 11, 72
10, 97540, Control_c, 4, 11, 73
10, 97560, Control_c, 4, 11, 75
10, 97580, Control_c, 4, 11, 76
10, 97600, Control_c, 4, 11, 77
10, 97620, Control_c, 4, 11, 78
10, 97640, Control_c, 4, 11, 80
10, 97660, Control_c, 4, 11, 81
10, 97680, Control_c, 4, 11, 82
10, 97700, Control_c, 4, 11, 83
10, 97720, Control_c, 4, 11, 85
10, 97740, Control_c, 4, 11, 86
10, 97760, Control_c, 4, 11, 87
10, 97780, Control_c, 4, 11, 88
10, 97800, Control_c, 4, 11, 90
10, 97820, Control_c, 4, 11, 91
10, 97840, Control_c, 4, 11, 92
10, 97860, Control_c, 4, 11, 93
10, 97880, Control_c, 4, 11, 95
10, 97900, Control_c, 4, 11, 96
10, 97920, Control_c, 4, 11, 97
10, 97940, Control_c, 4, 11, 98
10, 97960, Control_c, 4, 11, 100
10, 97980, Control_c, 4, 11, 101
10, 98000, Control_c, 4, 11, 102
10, 98020, Control_c, 4, 11, 103
10, 98040, Control_c, 4, 11, 105
10, 98060, Control_c, 4, 11, 106
10, 98080, Control_c, 4, 11, 107
10, 98100, Control_c, 4, 11, 108
10, 98120, Control_c, 4, 11, 110
10, 98140, Control_c, 4, 11, 111
10, 98160, Control_c, 4, 11, 112
10, 98180, Control_c, 4, 11, 113
10, 98200, Control_c, 4, 11, 115
10, 98220, Control_c, 4, 11, 116
10, 98240, Control_c, 4, 11, 117
10, 98260, Control_c, 4, 11, 118
10, 98264, Note_on_c, 4, 50, 0
10, 98264, Note_on_c, 4, 67, 0
10, 98280, Note_on_c, 4, 65, 80
10, 98280, Control_c, 4, 11, 120
10, 98300, Control_c, 4, 11, 121
10, 98320, Control_c, 4, 11, 122
10, 98340, Control_c, 4, 11, 123
10, 98360, Control_c, 4, 11, 125
10, 98380, Control_c, 4, 11, 127
10, 98384, Note_on_c, 4, 65, 0
10, 98400, Note_on_c, 4, 65, 80
10, 98519, Note_on_c, 4, 65, 0
10, 99000, Note_on_c, 4, 62, 80
10, 99000, Note_on_c, 4, 50, 80
10, 99081, Note_on_c, 4, 62, 0
10, 99081, Note_on_c, 4, 50, 0
10, 99090, Note_on_c, 4, 62, 80
10, 99090, Note_on_c, 4, 50, 80
10, 99111, Note_on_c, 4, 62, 0
10, 99111, Note_on_c, 4, 50, 0
10, 99118, Control_c, 4, 11, 127
10, 99120, Note_on_c, 4, 65, 92
10, 99120, Note_on_c, 4, 53, 92
10, 99180, Control_c, 4, 11, 107
10, 99479, Note_on_c, 4, 65, 0
10, 99479, Note_on_c, 4, 53, 0
10, 106560, Control_c, 4, 11, 127
10, 106920, Note_on_c, 4, 62, 80
10, 107384, Note_on_c, 4, 62, 0
10, 107400, Note_on_c, 4, 50, 92
10, 107460, Control_c, 4, 11, 107
10, 107864, Note_on_c, 4, 50, 0
10, 107878, Control_c, 4, 11, 127
10, 107880, Note_on_c, 4, 50, 92
10, 107940, Control_c, 4, 11, 107
10, 108104, Note_on_c, 4, 50, 0
10, 108118, Control_c, 4, 11, 127
10, 108120, Note_on_c, 4, 62, 92
10, 108180, Control_c, 4, 11, 107
10, 108344, Note_on_c, 4, 62, 0
10, 108358, Control_c, 4, 11, 127
10, 108360, Note_on_c, 4, 50, 80
10, 108584, Note_on_c, 4, 50, 0
10, 108600, Note_on_c, 4, 62, 80
10, 108824, Note_on_c, 4, 62, 0
10, 108840, Note_on_c, 4, 50, 80
10, 109064, Note_on_c, 4, 50, 0
10, 109080, Note_on_c, 4, 67, 80
10, 109304, Note_on_c, 4, 67, 0
10, 109320, Note_on_c, 4, 67, 80
10, 109544, Note_on_c, 4, 67, 0
10, 109560, Note_on_c, 4, 60, 80
10, 109784, Note_on_c, 4, 60, 0
10, 109800, Note_on_c, 4, 60, 80
10, 110024, Note_on_c, 4, 60, 0
10, 110040, Note_on_c, 4, 65, 80
10, 110264, Note_on_c, 4, 65, 0
10, 110280, Note_on_c, 4, 65, 80
10, 110504, Note_on_c, 4, 65, 0
10, 110520, Note_on_c, 4, 65, 80
10, 110744, Note_on_c, 4, 65, 0
10, 110760, Note_on_c, 4, 60, 80
10, 110864, Note_on_c, 4, 60, 0
10, 110880, Note_on_c, 4, 62, 80
10, 111119, Note_on_c, 4, 62, 0
10, 112920, Note_on_c, 4, 65, 80
10, 113024, Note_on_c, 4, 65, 0
10, 113040, Note_on_c, 4, 65, 80
10, 113159, Note_on_c, 4, 65, 0
10, 113400, Note_on_c, 4, 65, 80
10, 113504, Note_on_c, 4, 65, 0
10, 113520, Note_on_c, 4, 65, 80
10, 113639, Note_on_c, 4, 65, 0
10, 113880, Note_on_c, 4, 65, 80
10, 113984, Note_on_c, 4, 65, 0
10, 114000, Note_on_c, 4, 65, 80
10, 114119, Note_on_c, 4, 65, 0
10, 114360, Note_on_c, 4, 65, 80
10, 114464, Note_on_c, 4, 65, 0
10, 114480, Note_on_c, 4, 65, 80
10, 114599, Note_on_c, 4, 65, 0
10, 114720, Note_on_c, 4, 50, 80
10, 114824, Note_on_c, 4, 50, 0
10, 114840, Note_on_c, 4, 50, 92
10, 114840, Note_on_c, 4, 62, 92
10, 114900, Control_c, 4, 11, 107
10, 115064, Note_on_c, 4, 50, 0
10, 115064, Note_on_c, 4, 62, 0
10, 115080, Note_on_c, 4, 50, 92
10, 115304, Note_on_c, 4, 50, 0
10, 115318, Control_c, 4, 11, 127
10, 115320, Note_on_c, 4, 62, 92
10, 115320, Note_on_c, 4, 67, 92
10, 115380, Control_c, 4, 11, 107
10, 115544, Note_on_c, 4, 62, 0
10, 115544, Note_on_c, 4, 67, 0
10, 115560, Note_on_c, 4, 62, 92
10, 115560, Note_on_c, 4, 50, 92
10, 115784, Note_on_c, 4, 62, 0
10, 115784, Note_on_c, 4, 50, 0
10, 115798, Control_c, 4, 11, 127
10, 115800, Note_on_c, 4, 67, 92
10, 115800, Note_on_c, 4, 62, 92
10, 115860, Control_c, 4, 11, 107
10, 116024, Note_on_c, 4, 67, 0
10, 116024, Note_on_c, 4, 62, 0
10, 116040, Note_on_c, 4, 62, 92
10, 116040, Note_on_c, 4, 50, 92
10, 116264, Note_on_c, 4, 62, 0
10, 116264, Note_on_c, 4, 50, 0
10, 116278, Control_c, 4, 11, 127
10, 116280, Note_on_c, 4, 50, 92
10, 116280, Note_on_c, 4, 62, 92
10, 116340, Control_c, 4, 11, 107
10, 116504, Note_on_c, 4, 50, 0
10, 116504, Note_on_c, 4, 62, 0
10, 116520, Note_on_c, 4, 50, 92
10, 116744, Note_on_c, 4, 50, 0
10, 116758, Control_c, 4, 11, 127
10, 116760, Note_on_c, 4, 62, 92
10, 116760, Note_on_c, 4, 50, 92
10, 116820, Control_c, 4, 11, 107
10, 116984, Note_on_c, 4, 62, 0
10, 116984, Note_on_c, 4, 50, 0
10, 117000, Note_on_c, 4, 57, 92
10, 117000, Note_on_c, 4, 45, 92
10, 117224, Note_on_c, 4, 57, 0
10, 117224, Note_on_c, 4, 45, 0
10, 117238, Control_c, 4, 11, 127
10, 117240, Note_on_c, 4, 57, 80
10, 117240, Note_on_c, 4, 69, 80
10, 117464, Note_on_c, 4, 57, 0
10, 117464, Note_on_c, 4, 69, 0
10, 117480, Note_on_c, 4, 45, 80
10, 117480, Note_on_c, 4, 57, 80
10, 117704, Note_on_c, 4, 45, 0
10, 117704, Note_on_c, 4, 57, 0
10, 117720, Note_on_c, 4, 69, 80
10, 117720, Note_on_c, 4, 57, 80
10, 117944, Note_on_c, 4, 69, 0
10, 117944, Note_on_c, 4, 57, 0
10, 117960, Note_on_c, 4, 57, 80
10, 117960, Note_on_c, 4, 45, 80
10, 118184, Note_on_c, 4, 57, 0
10, 118184, Note_on_c, 4, 45, 0
10, 118200, Note_on_c, 4, 69, 80
10, 118200, Note_on_c, 4, 57, 80
10, 118424, Note_on_c, 4, 69, 0
10, 118424, Note_on_c, 4, 57, 0
10, 118440, Note_on_c, 4, 57, 80
10, 118440, Note_on_c, 4, 45, 80
10, 118664, Note_on_c, 4, 57, 0
10, 118664, Note_on_c, 4, 45, 0
10, 118680, Note_on_c, 4, 69, 80
10, 118680, Note_on_c, 4, 57, 80
10, 118904, Note_on_c, 4, 69, 0
10, 118904, Note_on_c, 4, 57, 0
10, 118920, Note_on_c, 4, 45, 80
10, 118920, Note_on_c, 4, 57, 80
10, 119144, Note_on_c, 4, 45, 0
10, 119144, Note_on_c, 4, 57, 0
10, 119160, Note_on_c, 4, 50, 80
10, 119160, Note_on_c, 4, 62, 80
10, 119384, Note_on_c, 4, 50, 0
10, 119384, Note_on_c, 4, 62, 0
10, 119400, Note_on_c, 4, 62, 80
10, 119400, Note_on_c, 4, 50, 80
10, 119624, Note_on_c, 4, 62, 0
10, 119624, Note_on_c, 4, 50, 0
10, 119640, Note_on_c, 4, 62, 80
10, 119640, Note_on_c, 4, 50, 80
10, 119864, Note_on_c, 4, 62, 0
10, 119864, Note_on_c, 4, 50, 0
10, 119880, Note_on_c, 4, 62, 80
10, 119880, Note_on_c, 4, 50, 80
10, 120104, Note_on_c, 4, 62, 0
10, 120104, Note_on_c, 4, 50, 0
10, 120120, Note_on_c, 4, 50, 80
10, 120120, Note_on_c, 4, 62, 80
10, 120344, Note_on_c, 4, 50, 0
10, 120344, Note_on_c, 4, 62, 0
10, 120360, Note_on_c, 4, 62, 80
10, 120360, Note_on_c, 4, 50, 80
10, 120584, Note_on_c, 4, 62, 0
10, 120584, Note_on_c, 4, 50, 0
10, 120600, Note_on_c, 4, 50, 80
10, 120600, Note_on_c, 4, 62, 80
10, 120824, Note_on_c, 4, 50, 0
10, 120824, Note_on_c, 4, 62, 0
10, 120840, Note_on_c, 4, 62, 80
10, 120840, Note_on_c, 4, 50, 80
10, 120840, Control_c, 4, 11, 127
10, 120853, Control_c, 4, 11, 120
10, 120867, Control_c, 4, 11, 114
10, 120880, Control_c, 4, 11, 107
10, 120893, Control_c, 4, 11, 100
10, 120907, Control_c, 4, 11, 94
10, 120920, Control_c, 4, 11, 87
10, 120933, Control_c, 4, 11, 80
10, 120944, Note_on_c, 4, 62, 0
10, 120944, Note_on_c, 4, 50, 0
10, 120947, Control_c, 4, 11, 74
10, 120953, Control_c, 4, 11, 67
10, 120960, Note_on_c, 4, 62, 80
10, 120960, Note_on_c, 4, 50, 80
10, 121199, Note_on_c, 4, 62, 0
10, 121199, Note_on_c, 4, 50, 0
10, 121440, Control_c, 4, 11, 127
10, 123840, Note_on_c, 4, 64, 32
10, 125984, Note_on_c, 4, 64, 0
10, 126000, Note_on_c, 4, 64, 32
10, 126224, Note_on_c, 4, 64, 0
10, 126240, Note_on_c, 4, 64, 32
10, 126464, Note_on_c, 4, 64, 0
10, 126480, Note_on_c, 4, 64, 32
10, 126704, Note_on_c, 4, 64, 0
10, 126720, Note_on_c, 4, 64, 32
10, 126944, Note_on_c, 4, 64, 0
10, 126960, Note_on_c, 4, 64, 35
10, 127184, Note_on_c, 4, 64, 0
10, 127200, Note_on_c, 4, 64, 39
10, 127424, Note_on_c, 4, 64, 0
10, 127440, Note_on_c, 4, 64, 42
10, 127664, Note_on_c, 4, 64, 0
10, 127680, Note_on_c, 4, 65, 46
10, 127799, Note_on_c, 4, 65, 0
10, 130860, Note_on_c, 4, 69, 32
10, 130860, Note_on_c, 4, 57, 32
10, 130911, Note_on_c, 4, 69, 0
10, 130911, Note_on_c, 4, 57, 0
10, 130920, Note_on_c, 4, 69, 32
10, 130920, Note_on_c, 4, 57, 32
10, 130971, Note_on_c, 4, 69, 0
10, 130971, Note_on_c, 4, 57, 0
10, 130980, Note_on_c, 4, 69, 32
10, 130980, Note_on_c, 4, 57, 32
10, 131031, Note_on_c, 4, 69, 0
10, 131031, Note_on_c, 4, 57, 0
10, 131040, Note_on_c, 4, 69, 32
10, 131040, Note_on_c, 4, 57, 32
10, 131159, Note_on_c, 4, 69, 0
10, 131159, Note_on_c, 4, 57, 0
10, 131340, Note_on_c, 4, 57, 32
10, 131340, Note_on_c, 4, 45, 32
10, 131391, Note_on_c, 4, 57, 0
10, 131391, Note_on_c, 4, 45, 0
10, 131400, Note_on_c, 4, 45, 32
10, 131400, Note_on_c, 4, 57, 32
10, 131451, Note_on_c, 4, 45, 0
10, 131451, Note_on_c, 4, 57, 0
10, 131460, Note_on_c, 4, 57, 32
10, 131460, Note_on_c, 4, 45, 32
10, 131511, Note_on_c, 4, 57, 0
10, 131511, Note_on_c, 4, 45, 0
10, 131520, Note_on_c, 4, 64, 32
10, 132464, Note_on_c, 4, 64, 0
10, 132480, Note_on_c, 4, 65, 32
10, 133304, Note_on_c, 4, 65, 0
10, 133320, Note_on_c, 4, 62, 38
10, 133439, Note_on_c, 4, 62, 0
10, 133440, Note_on_c, 4, 64, 32
10, 133559, Note_on_c, 4, 64, 0
10, 133560, Note_on_c, 4, 62, 32
10, 133679, Note_on_c, 4, 62, 0
10, 133680, Note_on_c, 4, 60, 32
10, 133799, Note_on_c, 4, 60, 0
10, 140160, Control_c, 4, 11, 67
10, 140280, Note_on_c, 4, 67, 80
10, 140744, Note_on_c, 4, 67, 0
10, 140760, Note_on_c, 4, 67, 80
10, 140760, Note_on_c, 4, 64, 80
10, 141120, Control_c, 4, 11, 67
10, 141140, Control_c, 4, 11, 68
10, 141160, Control_c, 4, 11, 70
10, 141180, Control_c, 4, 11, 71
10, 141200, Control_c, 4, 11, 72
10, 141220, Control_c, 4, 11, 73
10, 141224, Note_on_c, 4, 67, 0
10, 141224, Note_on_c, 4, 64, 0
10, 141240, Control_c, 4, 11, 75
10, 141240, Note_on_c, 4, 64, 80
10, 141240, Note_on_c, 4, 67, 80
10, 141260, Control_c, 4, 11, 76
10, 141280, Control_c, 4, 11, 77
10, 141300, Control_c, 4, 11, 78
10, 141320, Control_c, 4, 11, 80
10, 141340, Control_c, 4, 11, 81
10, 141360, Control_c, 4, 11, 82
10, 141380, Control_c, 4, 11, 83
10, 141400, Control_c, 4, 11, 85
10, 141420, Control_c, 4, 11, 86
10, 141440, Control_c, 4, 11, 87
10, 141460, Control_c, 4, 11, 88
10, 141480, Control_c, 4, 11, 90
10, 141500, Control_c, 4, 11, 91
10, 141520, Control_c, 4, 11, 92
10, 141540, Control_c, 4, 11, 93
10, 141560, Control_c, 4, 11, 95
10, 141580, Control_c, 4, 11, 96
10, 141600, Control_c, 4, 11, 97
10, 141620, Control_c, 4, 11, 98
10, 141640, Control_c, 4, 11, 100
10, 141660, Control_c, 4, 11, 101
10, 141680, Control_c, 4, 11, 102
10, 141700, Control_c, 4, 11, 103
10, 141704, Note_on_c, 4, 64, 0
10, 141704, Note_on_c, 4, 67, 0
10, 141720, Note_on_c, 4, 64, 80
10, 141720, Control_c, 4, 11, 105
10, 141720, Note_on_c, 4, 67, 80
10, 141740, Control_c, 4, 11, 106
10, 141760, Control_c, 4, 11, 107
10, 141780, Control_c, 4, 11, 108
10, 141800, Control_c, 4, 11, 110
10, 141820, Control_c, 4, 11, 111
10, 141840, Control_c, 4, 11, 112
10, 141860, Control_c, 4, 11, 113
10, 141880, Control_c, 4, 11, 115
10, 141900, Control_c, 4, 11, 116
10, 141920, Control_c, 4, 11, 117
10, 141940, Control_c, 4, 11, 118
10, 141960, Control_c, 4, 11, 120
10, 141980, Control_c, 4, 11, 121
10, 142000, Control_c, 4, 11, 122
10, 142020, Control_c, 4, 11, 123
10, 142040, Control_c, 4, 11, 125
10, 142060, Control_c, 4, 11, 127
10, 142064, Note_on_c, 4, 64, 0
10, 142064, Note_on_c, 4, 67, 0
10, 142080, Note_on_c, 4, 64, 80
10, 142080, Note_on_c, 4, 67, 80
10, 142199, Note_on_c, 4, 64, 0
10, 142199, Note_on_c, 4, 67, 0
10, 142320, Note_on_c, 4, 64, 80
10, 142320, Note_on_c, 4, 67, 80
10, 142439, Note_on_c, 4, 64, 0
10, 142439, Note_on_c, 4, 67, 0
10, 142560, Note_on_c, 4, 64, 80
10, 142560, Note_on_c, 4, 67, 80
10, 142679, Note_on_c, 4, 64, 0
10, 142679, Note_on_c, 4, 67, 0
10, 142800, Note_on_c, 4, 67, 80
10, 142800, Note_on_c, 4, 64, 80
10, 142919, Note_on_c, 4, 67, 0
10, 142919, Note_on_c, 4, 64, 0
10, 143040, Note_on_c, 4, 64, 80
10, 143040, Note_on_c, 4, 67, 80
10, 143159, Note_on_c, 4, 64, 0
10, 143159, Note_on_c, 4, 67, 0
10, 143280, Note_on_c, 4, 67, 80
10, 143280, Note_on_c, 4, 64, 80
10, 143399, Note_on_c, 4, 67, 0
10, 143399, Note_on_c, 4, 64, 0
10, 143520, Note_on_c, 4, 67, 80
10, 143520, Note_on_c, 4, 64, 80
10, 143639, Note_on_c, 4, 67, 0
10, 143639, Note_on_c, 4, 64, 0
10, 144000, Note_on_c, 4, 69, 92
10, 144000, Note_on_c, 4, 62, 92
10, 145881, Note_on_c, 4, 69, 0
10, 145881, Note_on_c, 4, 62, 0
10, 145890, Note_on_c, 4, 69, 92
10, 145890, Note_on_c, 4, 62, 92
10, 145911, Note_on_c, 4, 69, 0
10, 145911, Note_on_c, 4, 62, 0
10, 145920, Note_on_c, 4, 69, 92
10, 145920, Note_on_c, 4, 62, 92
10, 147801, Note_on_c, 4, 69, 0
10, 147801, Note_on_c, 4, 62, 0
10, 147810, Note_on_c, 4, 62, 92
10, 147810, Note_on_c, 4, 69, 92
10, 147831, Note_on_c, 4, 62, 0
10, 147831, Note_on_c, 4, 69, 0
10, 147840, Note_on_c, 4, 69, 92
10, 147840, Note_on_c, 4, 62, 92
10, 148761, Note_on_c, 4, 69, 0
10, 148761, Note_on_c, 4, 62, 0
10, 148770, Note_on_c, 4, 62, 92
10, 148770, Note_on_c, 4, 69, 92
10, 148791, Note_on_c, 4, 62, 0
10, 148791, Note_on_c, 4, 69, 0
10, 148800, Note_on_c, 4, 69, 92
10, 148800, Note_on_c, 4, 62, 92
10, 149444, Note_on_c, 4, 69, 0
10, 149444, Note_on_c, 4, 62, 0
10, 149460, Note_on_c, 4, 62, 92
10, 149571, Note_on_c, 4, 62, 0
10, 149580, Note_on_c, 4, 62, 92
10, 149631, Note_on_c, 4, 62, 0
10, 149640, Note_on_c, 4, 62, 92
10, 149691, Note_on_c, 4, 62, 0
10, 149700, Note_on_c, 4, 50, 92
10, 149751, Note_on_c, 4, 50, 0
10, 149760, Note_on_c, 4, 65, 92
10, 150704, Note_on_c, 4, 65, 0
10, 150720, Note_on_c, 4, 65, 92
10, 150720, Note_on_c, 4, 69, 92
10, 151641, Note_on_c, 4, 65, 0
10, 151641, Note_on_c, 4, 69, 0
10, 151650, Note_on_c, 4, 74, 92
10, 151650, Note_on_c, 4, 62, 92
10, 151671, Note_on_c, 4, 74, 0
10, 151671, Note_on_c, 4, 62, 0
10, 151680, Note_on_c, 4, 57, 92
10, 151680, Note_on_c, 4, 69, 92
10, 152121, Note_on_c, 4, 57, 0
10, 152121, Note_on_c, 4, 69, 0
10, 152130, Note_on_c, 4, 65, 92
10, 152130, Note_on_c, 4, 53, 92
10, 152151, Note_on_c, 4, 65, 0
10, 152151, Note_on_c, 4, 53, 0
10, 152160, Note_on_c, 4, 50, 92
10, 152160, Note_on_c, 4, 62, 92
10, 152361, Note_on_c, 4, 50, 0
10, 152361, Note_on_c, 4, 62, 0
10, 152370, Note_on_c, 4, 57, 92
10, 152370, Note_on_c, 4, 45, 92
10, 152391, Note_on_c, 4, 57, 0
10, 152391, Note_on_c, 4, 45, 0
10, 152400, Note_on_c, 4, 53, 92
10, 152564, Note_on_c, 4, 53, 0
10, 152580, Note_on_c, 4, 69, 92
10, 152580, Note_on_c, 4, 57, 92
10, 152609, Note_on_c, 4, 69, 0
10, 152609, Note_on_c, 4, 57, 0
10, 152610, Note_on_c, 4, 65, 92
10, 152610, Note_on_c, 4, 53, 92
10, 152631, Note_on_c, 4, 65, 0
10, 152631, Note_on_c, 4, 53, 0
10, 152640, Note_on_c, 4, 50, 92
10, 152640, Note_on_c, 4, 62, 92
10, 153584, Note_on_c, 4, 50, 0
10, 153584, Note_on_c, 4, 62, 0
10, 153600, Note_on_c, 4, 62, 92
10, 153600, Note_on_c, 4, 50, 92
10, 153891, Note_on_c, 4, 62, 0
10, 153891, Note_on_c, 4, 50, 0
10, 153900, Note_on_c, 4, 65, 92
10, 153944, Note_on_c, 4, 65, 0
10, 153960, Note_on_c, 4, 64, 92
10, 154004, Note_on_c, 4, 64, 0
10, 154020, Note_on_c, 4, 62, 92
10, 154064, Note_on_c, 4, 62, 0
10, 154080, Note_on_c, 4, 69, 92
10, 154169, Note_on_c, 4, 69, 0
10, 154200, Note_on_c, 4, 67, 92
10, 154289, Note_on_c, 4, 67, 0
10, 154320, Note_on_c, 4, 64, 92
10, 154409, Note_on_c, 4, 64, 0
10, 154440, Note_on_c, 4, 69, 92
10, 154529, Note_on_c, 4, 69, 0
10, 154560, Note_on_c, 4, 60, 80
10, 155024, Note_on_c, 4, 60, 0
10, 155040, Note_on_c, 4, 60, 80
10, 155219, Note_on_c, 4, 60, 0
10, 155280, Note_on_c, 4, 60, 80
10, 155459, Note_on_c, 4, 60, 0
10, 155520, Note_on_c, 4, 67, 80
10, 155984, Note_on_c, 4, 67, 0
10, 156000, Note_on_c, 4, 67, 80
10, 156179, Note_on_c, 4, 67, 0
10, 156240, Note_on_c, 4, 67, 80
10, 156419, Note_on_c, 4, 67, 0
10, 156480, Note_on_c, 4, 67, 92
10, 156540, Control_c, 4, 11, 107
10, 157424, Note_on_c, 4, 67, 0
10, 157438, Control_c, 4, 11, 127
10, 157440, Note_on_c, 4, 50, 92
10, 157440, Note_on_c, 4, 62, 92
10, 157500, Control_c, 4, 11, 107
10, 157784, Note_on_c, 4, 50, 0
10, 157784, Note_on_c, 4, 62, 0
10, 157798, Control_c, 4, 11, 127
10, 157800, Note_on_c, 4, 62, 80
10, 157800, Note_on_c, 4, 50, 80
10, 157889, Note_on_c, 4, 62, 0
10, 157889, Note_on_c, 4, 50, 0
10, 157920, Note_on_c, 4, 50, 80
10, 157920, Note_on_c, 4, 62, 80
10, 158009, Note_on_c, 4, 50, 0
10, 158009, Note_on_c, 4, 62, 0
10, 158040, Note_on_c, 4, 50, 80
10, 158040, Note_on_c, 4, 62, 80
10, 158129, Note_on_c, 4, 50, 0
10, 158129, Note_on_c, 4, 62, 0
10, 158160, Note_on_c, 4, 50, 80
10, 158160, Note_on_c, 4, 62, 80
10, 158249, Note_on_c, 4, 50, 0
10, 158249, Note_on_c, 4, 62, 0
10, 158280, Note_on_c, 4, 62, 80
10, 158280, Note_on_c, 4, 50, 80
10, 158369, Note_on_c, 4, 62, 0
10, 158369, Note_on_c, 4, 50, 0
10, 158400, Note_on_c, 4, 62, 80
10, 158400, Note_on_c, 4, 50, 80
10, 158519, Note_on_c, 4, 62, 0
10, 158519, Note_on_c, 4, 50, 0
10, 159360, Note_on_c, 4, 62, 92
10, 159360, Note_on_c, 4, 50, 92
10, 159420, Control_c, 4, 11, 107
10, 159704, Note_on_c, 4, 62, 0
10, 159704, Note_on_c, 4, 50, 0
10, 159718, Control_c, 4, 11, 127
10, 159720, Note_on_c, 4, 62, 80
10, 159720, Note_on_c, 4, 50, 80
10, 159809, Note_on_c, 4, 62, 0
10, 159809, Note_on_c, 4, 50, 0
10, 159840, Note_on_c, 4, 50, 80
10, 159840, Note_on_c, 4, 62, 80
10, 159929, Note_on_c, 4, 50, 0
10, 159929, Note_on_c, 4, 62, 0
10, 159960, Note_on_c, 4, 62, 80
10, 159960, Note_on_c, 4, 50, 80
10, 160049, Note_on_c, 4, 62, 0
10, 160049, Note_on_c, 4, 50, 0
10, 160080, Note_on_c, 4, 62, 80
10, 160080, Note_on_c, 4, 50, 80
10, 160169, Note_on_c, 4, 62, 0
10, 160169, Note_on_c, 4, 50, 0
10, 160200, Note_on_c, 4, 62, 80
10, 160200, Note_on_c, 4, 50, 80
10, 160289, Note_on_c, 4, 62, 0
10, 160289, Note_on_c, 4, 50, 0
10, 160320, Note_on_c, 4, 62, 80
10, 160320, Note_on_c, 4, 50, 80
10, 160439, Note_on_c, 4, 62, 0
10, 160439, Note_on_c, 4, 50, 0
10, 161280, Note_on_c, 4, 62, 92
10, 161280, Note_on_c, 4, 50, 92
10, 161340, Control_c, 4, 11, 107
10, 161359, Control_c, 4, 11, 106
10, 161378, Control_c, 4, 11, 105
10, 161396, Control_c, 4, 11, 103
10, 161415, Control_c, 4, 11, 102
10, 161434, Control_c, 4, 11, 101
10, 161453, Control_c, 4, 11, 100
10, 161471, Control_c, 4, 11, 98
10, 161490, Control_c, 4, 11, 97
10, 161509, Control_c, 4, 11, 96
10, 161528, Control_c, 4, 11, 95
10, 161546, Control_c, 4, 11, 93
10, 161565, Control_c, 4, 11, 92
10, 161584, Control_c, 4, 11, 91
10, 161603, Control_c, 4, 11, 90
10, 161621, Control_c, 4, 11, 88
10, 161624, Note_on_c, 4, 62, 0
10, 161624, Note_on_c, 4, 50, 0
10, 161640, Note_on_c, 4, 62, 92
10, 161640, Note_on_c, 4, 50, 92
10, 161640, Control_c, 4, 11, 87
10, 161659, Control_c, 4, 11, 86
10, 161678, Control_c, 4, 11, 85
10, 161696, Control_c, 4, 11, 83
10, 161715, Control_c, 4, 11, 82
10, 161729, Note_on_c, 4, 62, 0
10, 161729, Note_on_c, 4, 50, 0
10, 161734, Control_c, 4, 11, 81
10, 161753, Control_c, 4, 11, 80
10, 161760, Note_on_c, 4, 50, 92
10, 161760, Note_on_c, 4, 62, 92
10, 161771, Control_c, 4, 11, 78
10, 161790, Control_c, 4, 11, 77
10, 161809, Control_c, 4, 11, 76
10, 161828, Control_c, 4, 11, 75
10, 161846, Control_c, 4, 11, 73
10, 161849, Note_on_c, 4, 50, 0
10, 161849, Note_on_c, 4, 62, 0
10, 161865, Control_c, 4, 11, 72
10, 161880, Note_on_c, 4, 50, 92
10, 161880, Note_on_c, 4, 62, 92
10, 161884, Control_c, 4, 11, 71
10, 161903, Control_c, 4, 11, 70
10, 161921, Control_c, 4, 11, 68
10, 161940, Control_c, 4, 11, 67
10, 161959, Control_c, 4, 11, 66
10, 161969, Note_on_c, 4, 50, 0
10, 161969, Note_on_c, 4, 62, 0
10, 161978, Control_c, 4, 11, 65
10, 161996, Control_c, 4, 11, 63
10, 162000, Note_on_c, 4, 50, 92
10, 162000, Note_on_c, 4, 62, 92
10, 162015, Control_c, 4, 11, 62
10, 162034, Control_c, 4, 11, 61
10, 162053, Control_c, 4, 11, 60
10, 162071, Control_c, 4, 11, 58
10, 162089, Note_on_c, 4, 50, 0
10, 162089, Note_on_c, 4, 62, 0
10, 162090, Control_c, 4, 11, 57
10, 162109, Control_c, 4, 11, 56
10, 162120, Note_on_c, 4, 62, 92
10, 162120, Note_on_c, 4, 50, 92
10, 162128, Control_c, 4, 11, 55
10, 162146, Control_c, 4, 11, 53
10, 162165, Control_c, 4, 11, 52
10, 162184, Control_c, 4, 11, 51
10, 162203, Control_c, 4, 11, 50
10, 162209, Note_on_c, 4, 62, 0
10, 162209, Note_on_c, 4, 50, 0
10, 162221, Control_c, 4, 11, 47
10, 162240, Note_on_c, 4, 64, 86
10, 162240, Note_on_c, 4, 57, 86
10, 163184, Note_on_c, 4, 64, 0
10, 163184, Note_on_c, 4, 57, 0
10, 163198, Control_c, 4, 11, 67
10, 163200, Note_on_c, 4, 62, 74
10, 163200, Note_on_c, 4, 66, 74
10, 163559, Note_on_c, 4, 62, 0
10, 163559, Note_on_c, 4, 66, 0
10, 163560, Note_on_c, 4, 64, 74
10, 163560, Note_on_c, 4, 67, 74
10, 163619, Note_on_c, 4, 64, 0
10, 163619, Note_on_c, 4, 67, 0
10, 163620, Note_on_c, 4, 69, 74
10, 163620, Note_on_c, 4, 66, 74
10, 163671, Note_on_c, 4, 69, 0
10, 163671, Note_on_c, 4, 66, 0
10, 163680, Note_on_c, 4, 66, 74
10, 163680, Note_on_c, 4, 69, 74
10, 163799, Note_on_c, 4, 66, 0
10, 163799, Note_on_c, 4, 69, 0
10, 163800, Note_on_c, 4, 67, 74
10, 163800, Note_on_c, 4, 64, 74
10, 163859, Note_on_c, 4, 67, 0
10, 163859, Note_on_c, 4, 64, 0
10, 163860, Note_on_c, 4, 62, 74
10, 163860, Note_on_c, 4, 66, 74
10, 163911, Note_on_c, 4, 62, 0
10, 163911, Note_on_c, 4, 66, 0
10, 163920, Note_on_c, 4, 66, 74
10, 163920, Note_on_c, 4, 62, 74
10, 164039, Note_on_c, 4, 66, 0
10, 164039, Note_on_c, 4, 62, 0
10, 164040, Note_on_c, 4, 64, 74
10, 164040, Note_on_c, 4, 57, 74
10, 164099, Note_on_c, 4, 64, 0
10, 164099, Note_on_c, 4, 57, 0
10, 164100, Note_on_c, 4, 54, 74
10, 164100, Note_on_c, 4, 62, 74
10, 164151, Note_on_c, 4, 54, 0
10, 164151, Note_on_c, 4, 62, 0
10, 164160, Note_on_c, 4, 62, 74
10, 164160, Note_on_c, 4, 66, 74
10, 164279, Note_on_c, 4, 62, 0
10, 164279, Note_on_c, 4, 66, 0
10, 164280, Note_on_c, 4, 57, 74
10, 164280, Note_on_c, 4, 64, 74
10, 164984, Note_on_c, 4, 57, 0
10, 164984, Note_on_c, 4, 64, 0
10, 164998, Control_c, 4, 11, 87
10, 165000, Note_on_c, 4, 57, 68
10, 165000, Note_on_c, 4, 45, 68
10, 165464, Note_on_c, 4, 57, 0
10, 165464, Note_on_c, 4, 45, 0
10, 165480, Note_on_c, 4, 57, 68
10, 165480, Note_on_c, 4, 45, 68
10, 165944, Note_on_c, 4, 57, 0
10, 165944, Note_on_c, 4, 45, 0
10, 165960, Note_on_c, 4, 45, 68
10, 165960, Note_on_c, 4, 57, 68
10, 166424, Note_on_c, 4, 45, 0
10, 166424, Note_on_c, 4, 57, 0
10, 166440, Note_on_c, 4, 57, 68
10, 166440, Note_on_c, 4, 45, 68
10, 166904, Note_on_c, 4, 57, 0
10, 166904, Note_on_c, 4, 45, 0
10, 166920, Note_on_c, 4, 45, 68
10, 166920, Note_on_c, 4, 57, 68
10, 167160, Control_c, 4, 11, 87
10, 167187, Control_c, 4, 11, 89
10, 167213, Control_c, 4, 11, 91
10, 167240, Control_c, 4, 11, 94
10, 167267, Control_c, 4, 11, 96
10, 167293, Control_c, 4, 11, 98
10, 167320, Control_c, 4, 11, 100
10, 167347, Control_c, 4, 11, 103
10, 167373, Control_c, 4, 11, 105
10, 167384, Note_on_c, 4, 45, 0
10, 167384, Note_on_c, 4, 57, 0
10, 167400, Note_on_c, 4, 57, 68
10, 167400, Control_c, 4, 11, 107
10, 167400, Note_on_c, 4, 45, 68
10, 167427, Control_c, 4, 11, 109
10, 167453, Control_c, 4, 11, 111
10, 167480, Control_c, 4, 11, 114
10, 167507, Control_c, 4, 11, 116
10, 167533, Control_c, 4, 11, 118
10, 167560, Control_c, 4, 11, 120
10, 167587, Control_c, 4, 11, 123
10, 167613, Control_c, 4, 11, 125
10, 167640, Control_c, 4, 11, 127
10, 167670, Control_c, 4, 11, 124
10, 167700, Control_c, 4, 11, 120
10, 167730, Control_c, 4, 11, 117
10, 167760, Control_c, 4, 11, 114
10, 167790, Control_c, 4, 11, 110
10, 167820, Control_c, 4, 11, 107
10, 167850, Control_c, 4, 11, 104
10, 167864, Note_on_c, 4, 57, 0
10, 167864, Note_on_c, 4, 45, 0
10, 167880, Note_on_c, 4, 45, 68
10, 167880, Note_on_c, 4, 57, 68
10, 167880, Control_c, 4, 11, 100
10, 167910, Control_c, 4, 11, 97
10, 167940, Control_c, 4, 11, 94
10, 167970, Control_c, 4, 11, 90
10, 168000, Control_c, 4, 11, 87
10, 168120, Control_c, 4, 11, 87
10, 168141, Control_c, 4, 11, 88
10, 168162, Control_c, 4, 11, 89
10, 168183, Control_c, 4, 11, 90
10, 168204, Control_c, 4, 11, 91
10, 168225, Control_c, 4, 11, 92
10, 168246, Control_c, 4, 11, 93
10, 168267, Control_c, 4, 11, 94
10, 168288, Control_c, 4, 11, 95
10, 168309, Control_c, 4, 11, 96
10, 168330, Control_c, 4, 11, 97
10, 168344, Note_on_c, 4, 45, 0
10, 168344, Note_on_c, 4, 57, 0
10, 168351, Control_c, 4, 11, 98
10, 168360, Note_on_c, 4, 45, 68
10, 168360, Note_on_c, 4, 57, 68
10, 168372, Control_c, 4, 11, 99
10, 168393, Control_c, 4, 11, 100
10, 168414, Control_c, 4, 11, 101
10, 168435, Control_c, 4, 11, 102
10, 168456, Control_c, 4, 11, 103
10, 168477, Control_c, 4, 11, 104
10, 168498, Control_c, 4, 11, 105
10, 168519, Control_c, 4, 11, 106
10, 168540, Control_c, 4, 11, 107
10, 168561, Control_c, 4, 11, 108
10, 168582, Control_c, 4, 11, 109
10, 168603, Control_c, 4, 11, 110
10, 168624, Control_c, 4, 11, 111
10, 168645, Control_c, 4, 11, 112
10, 168666, Control_c, 4, 11, 113
10, 168687, Control_c, 4, 11, 114
10, 168708, Control_c, 4, 11, 115
10, 168729, Control_c, 4, 11, 116
10, 168750, Control_c, 4, 11, 117
10, 168771, Control_c, 4, 11, 118
10, 168792, Control_c, 4, 11, 119
10, 168813, Control_c, 4, 11, 120
10, 168824, Note_on_c, 4, 45, 0
10, 168824, Note_on_c, 4, 57, 0
10, 168834, Control_c, 4, 11, 121
10, 168840, Note_on_c, 4, 45, 68
10, 168840, Note_on_c, 4, 57, 68
10, 168855, Control_c, 4, 11, 122
10, 168876, Control_c, 4, 11, 123
10, 168897, Control_c, 4, 11, 124
10, 168918, Control_c, 4, 11, 125
10, 168939, Control_c, 4, 11, 126
10, 168960, Control_c, 4, 11, 127
10, 168984, Control_c, 4, 11, 126
10, 169008, Control_c, 4, 11, 125
10, 169032, Control_c, 4, 11, 124
10, 169056, Control_c, 4, 11, 123
10, 169080, Control_c, 4, 11, 122
10, 169104, Control_c, 4, 11, 121
10, 169128, Control_c, 4, 11, 120
10, 169152, Control_c, 4, 11, 119
10, 169176, Control_c, 4, 11, 118
10, 169200, Control_c, 4, 11, 117
10, 169224, Control_c, 4, 11, 116
10, 169248, Control_c, 4, 11, 115
10, 169272, Control_c, 4, 11, 114
10, 169296, Control_c, 4, 11, 113
10, 169304, Note_on_c, 4, 45, 0
10, 169304, Note_on_c, 4, 57, 0
10, 169320, Note_on_c, 4, 45, 68
10, 169320, Control_c, 4, 11, 112
10, 169320, Note_on_c, 4, 57, 68
10, 169344, Control_c, 4, 11, 111
10, 169368, Control_c, 4, 11, 110
10, 169392, Control_c, 4, 11, 109
10, 169416, Control_c, 4, 11, 108
10, 169440, Control_c, 4, 11, 107
10, 169464, Control_c, 4, 11, 106
10, 169488, Control_c, 4, 11, 105
10, 169512, Control_c, 4, 11, 104
10, 169536, Control_c, 4, 11, 103
10, 169560, Control_c, 4, 11, 102
10, 169584, Control_c, 4, 11, 101
10, 169608, Control_c, 4, 11, 100
10, 169632, Control_c, 4, 11, 99
10, 169656, Control_c, 4, 11, 98
10, 169680, Control_c, 4, 11, 97
10, 169704, Control_c, 4, 11, 96
10, 169728, Control_c, 4, 11, 95
10, 169752, Control_c, 4, 11, 94
10, 169776, Control_c, 4, 11, 93
10, 169784, Note_on_c, 4, 45, 0
10, 169784, Note_on_c, 4, 57, 0
10, 169800, Note_on_c, 4, 45, 68
10, 169800, Control_c, 4, 11, 92
10, 169800, Note_on_c, 4, 57, 68
10, 169824, Control_c, 4, 11, 91
10, 169848, Control_c, 4, 11, 90
10, 169872, Control_c, 4, 11, 89
10, 169896, Control_c, 4, 11, 87
10, 170264, Note_on_c, 4, 45, 0
10, 170264, Note_on_c, 4, 57, 0
10, 170880, Control_c, 4, 11, 127
10, 171000, Note_on_c, 4, 64, 44
10, 171119, Note_on_c, 4, 64, 0
10, 171120, Note_on_c, 4, 65, 44
10, 171464, Note_on_c, 4, 65, 0
10, 171480, Note_on_c, 4, 65, 44
10, 171584, Note_on_c, 4, 65, 0
10, 171600, Note_on_c, 4, 65, 44
10, 171704, Note_on_c, 4, 65, 0
10, 171720, Note_on_c, 4, 65, 44
10, 171824, Note_on_c, 4, 65, 0
10, 171838, Control_c, 4, 11, 67
10, 171840, Control_c, 4, 11, 67
10, 171840, Note_on_c, 4, 62, 80
10, 171860, Control_c, 4, 11, 68
10, 171880, Control_c, 4, 11, 70
10, 171900, Control_c, 4, 11, 71
10, 171920, Control_c, 4, 11, 72
10, 171940, Control_c, 4, 11, 73
10, 171960, Control_c, 4, 11, 75
10, 171980, Control_c, 4, 11, 76
10, 172000, Control_c, 4, 11, 77
10, 172020, Control_c, 4, 11, 78
10, 172040, Control_c, 4, 11, 80
10, 172060, Control_c, 4, 11, 81
10, 172080, Control_c, 4, 11, 82
10, 172100, Control_c, 4, 11, 83
10, 172120, Control_c, 4, 11, 85
10, 172140, Control_c, 4, 11, 86
10, 172160, Control_c, 4, 11, 87
10, 172180, Control_c, 4, 11, 88
10, 172200, Control_c, 4, 11, 90
10, 172220, Control_c, 4, 11, 91
10, 172240, Control_c, 4, 11, 92
10, 172260, Control_c, 4, 11, 93
10, 172280, Control_c, 4, 11, 95
10, 172300, Control_c, 4, 11, 96
10, 172320, Control_c, 4, 11, 97
10, 172340, Control_c, 4, 11, 98
10, 172360, Control_c, 4, 11, 100
10, 172371, Note_on_c, 4, 62, 0
10, 172380, Control_c, 4, 11, 101
10, 172380, Note_on_c, 4, 62, 80
10, 172400, Control_c, 4, 11, 102
10, 172420, Control_c, 4, 11, 103
10, 172440, Control_c, 4, 11, 105
10, 172460, Control_c, 4, 11, 106
10, 172480, Control_c, 4, 11, 107
10, 172491, Note_on_c, 4, 62, 0
10, 172500, Note_on_c, 4, 62, 80
10, 172500, Control_c, 4, 11, 108
10, 172520, Control_c, 4, 11, 110
10, 172540, Control_c, 4, 11, 111
10, 172560, Control_c, 4, 11, 112
10, 172580, Control_c, 4, 11, 113
10, 172600, Control_c, 4, 11, 115
10, 172611, Note_on_c, 4, 62, 0
10, 172620, Control_c, 4, 11, 116
10, 172620, Note_on_c, 4, 62, 80
10, 172640, Control_c, 4, 11, 117
10, 172660, Control_c, 4, 11, 118
10, 172680, Control_c, 4, 11, 120
10, 172700, Control_c, 4, 11, 121
10, 172720, Control_c, 4, 11, 122
10, 172731, Note_on_c, 4, 62, 0
10, 172740, Note_on_c, 4, 62, 80
10, 172740, Control_c, 4, 11, 123
10, 172760, Control_c, 4, 11, 125
10, 172780, Control_c, 4, 11, 127
10, 172851, Note_on_c, 4, 62, 0
10, 172860, Note_on_c, 4, 67, 80
10, 172860, Note_on_c, 4, 62, 80
10, 172971, Note_on_c, 4, 67, 0
10, 172971, Note_on_c, 4, 62, 0
10, 172980, Note_on_c, 4, 62, 80
10, 172980, Note_on_c, 4, 67, 80
10, 173091, Note_on_c, 4, 62, 0
10, 173091, Note_on_c, 4, 67, 0
10, 173100, Note_on_c, 4, 62, 80
10, 173100, Note_on_c, 4, 67, 80
10, 173211, Note_on_c, 4, 62, 0
10, 173211, Note_on_c, 4, 67, 0
10, 173220, Note_on_c, 4, 62, 80
10, 173220, Note_on_c, 4, 67, 80
10, 173279, Note_on_c, 4, 62, 0
10, 173279, Note_on_c, 4, 67, 0
10, 173280, Note_on_c, 4, 62, 80
10, 173280, Note_on_c, 4, 65, 80
10, 173384, Note_on_c, 4, 62, 0
10, 173384, Note_on_c, 4, 65, 0
10, 173400, Note_on_c, 4, 62, 92
10, 173400, Note_on_c, 4, 65, 92
10, 173489, Note_on_c, 4, 62, 0
10, 173489, Note_on_c, 4, 65, 0
10, 173640, Note_on_c, 4, 64, 92
10, 173640, Note_on_c, 4, 57, 92
10, 173729, Note_on_c, 4, 64, 0
10, 173729, Note_on_c, 4, 57, 0
10, 173758, Control_c, 4, 11, 67
10, 173760, Note_on_c, 4, 62, 80
10, 173760, Control_c, 4, 11, 67
10, 173760, Note_on_c, 4, 50, 80
10, 173792, Control_c, 4, 11, 68
10, 173824, Control_c, 4, 11, 69
10, 173856, Control_c, 4, 11, 70
10, 173888, Control_c, 4, 11, 71
10, 173920, Control_c, 4, 11, 72
10, 173952, Control_c, 4, 11, 73
10, 173984, Control_c, 4, 11, 74
10, 174016, Control_c, 4, 11, 75
10, 174048, Control_c, 4, 11, 76
10, 174080, Control_c, 4, 11, 77
10, 174112, Control_c, 4, 11, 78
10, 174144, Control_c, 4, 11, 79
10, 174176, Control_c, 4, 11, 80
10, 174208, Control_c, 4, 11, 81
10, 174240, Control_c, 4, 11, 82
10, 174272, Control_c, 4, 11, 83
10, 174291, Note_on_c, 4, 62, 0
10, 174291, Note_on_c, 4, 50, 0
10, 174300, Note_on_c, 4, 62, 80
10, 174300, Note_on_c, 4, 50, 80
10, 174304, Control_c, 4, 11, 84
10, 174336, Control_c, 4, 11, 85
10, 174368, Control_c, 4, 11, 86
10, 174400, Control_c, 4, 11, 87
10, 174411, Note_on_c, 4, 62, 0
10, 174411, Note_on_c, 4, 50, 0
10, 174420, Note_on_c, 4, 62, 80
10, 174420, Note_on_c, 4, 50, 80
10, 174432, Control_c, 4, 11, 88
10, 174464, Control_c, 4, 11, 89
10, 174496, Control_c, 4, 11, 90
10, 174528, Control_c, 4, 11, 91
10, 174531, Note_on_c, 4, 62, 0
10, 174531, Note_on_c, 4, 50, 0
10, 174540, Note_on_c, 4, 50, 80
10, 174540, Note_on_c, 4, 62, 80
10, 174560, Control_c, 4, 11, 92
10, 174592, Control_c, 4, 11, 93
10, 174624, Control_c, 4, 11, 94
10, 174651, Note_on_c, 4, 50, 0
10, 174651, Note_on_c, 4, 62, 0
10, 174656, Control_c, 4, 11, 95
10, 174660, Note_on_c, 4, 62, 80
10, 174660, Note_on_c, 4, 50, 80
10, 174688, Control_c, 4, 11, 96
10, 174711, Note_on_c, 4, 62, 0
10, 174711, Note_on_c, 4, 50, 0
10, 174720, Note_on_c, 4, 67, 80
10, 174720, Control_c, 4, 11, 97
10, 174752, Control_c, 4, 11, 98
10, 174784, Control_c, 4, 11, 99
10, 174816, Control_c, 4, 11, 100
10, 174839, Note_on_c, 4, 67, 0
10, 175648, Control_c, 4, 11, 127
10, 175680, Note_on_c, 4, 67, 80
10, 176144, Note_on_c, 4, 67, 0
10, 176160, Note_on_c, 4, 57, 80
10, 176160, Note_on_c, 4, 69, 80
10, 176211, Note_on_c, 4, 57, 0
10, 176211, Note_on_c, 4, 69, 0
10, 176220, Note_on_c, 4, 69, 80
10, 176220, Note_on_c, 4, 57, 80
10, 176331, Note_on_c, 4, 69, 0
10, 176331, Note_on_c, 4, 57, 0
10, 176340, Note_on_c, 4, 69, 80
10, 176340, Note_on_c, 4, 57, 80
10, 176451, Note_on_c, 4, 69, 0
10, 176451, Note_on_c, 4, 57, 0
10, 176460, Note_on_c, 4, 57, 80
10, 176460, Note_on_c, 4, 69, 80
10, 176571, Note_on_c, 4, 57, 0
10, 176571, Note_on_c, 4, 69, 0
10, 176580, Note_on_c, 4, 69, 80
10, 176580, Note_on_c, 4, 57, 80
10, 176624, Note_on_c, 4, 69, 0
10, 176624, Note_on_c, 4, 57, 0
10, 176640, Note_on_c, 4, 69, 92
10, 176640, Note_on_c, 4, 57, 92
10, 176729, Note_on_c, 4, 69, 0
10, 176729, Note_on_c, 4, 57, 0
10, 176760, Note_on_c, 4, 50, 92
10, 176760, Note_on_c, 4, 62, 92
10, 176841, Note_on_c, 4, 50, 0
10, 176841, Note_on_c, 4, 62, 0
10, 176850, Note_on_c, 4, 50, 92
10, 176850, Note_on_c, 4, 62, 92
10, 176871, Note_on_c, 4, 50, 0
10, 176871, Note_on_c, 4, 62, 0
10, 176880, Note_on_c, 4, 62, 92
10, 176880, Note_on_c, 4, 50, 92
10, 176999, Note_on_c, 4, 62, 0
10, 176999, Note_on_c, 4, 50, 0
10, 177120, Note_on_c, 4, 50, 92
10, 177120, Note_on_c, 4, 62, 92
10, 177224, Note_on_c, 4, 50, 0
10, 177224, Note_on_c, 4, 62, 0
10, 177240, Note_on_c, 4, 50, 92
10, 177240, Note_on_c, 4, 62, 92
10, 177321, Note_on_c, 4, 50, 0
10, 177321, Note_on_c, 4, 62, 0
10, 177330, Note_on_c, 4, 62, 92
10, 177330, Note_on_c, 4, 50, 92
10, 177351, Note_on_c, 4, 62, 0
10, 177351, Note_on_c, 4, 50, 0
10, 177360, Note_on_c, 4, 50, 92
10, 177360, Note_on_c, 4, 62, 92
10, 177479, Note_on_c, 4, 50, 0
10, 177479, Note_on_c, 4, 62, 0
10, 177600, Note_on_c, 4, 67, 44
10, 177600, Note_on_c, 4, 62, 44
10, 178064, Note_on_c, 4, 67, 0
10, 178064, Note_on_c, 4, 62, 0
10, 178080, Note_on_c, 4, 62, 44
10, 178080, Note_on_c, 4, 66, 44
10, 178319, Note_on_c, 4, 62, 0
10, 178319, Note_on_c, 4, 66, 0
10, 178320, Note_on_c, 4, 64, 44
10, 178320, Note_on_c, 4, 57, 44
10, 178544, Note_on_c, 4, 64, 0
10, 178544, Note_on_c, 4, 57, 0
10, 178560, Note_on_c, 4, 62, 92
10, 178560, Note_on_c, 4, 50, 92
10, 178664, Note_on_c, 4, 62, 0
10, 178664, Note_on_c, 4, 50, 0
10, 178680, Note_on_c, 4, 62, 92
10, 178680, Note_on_c, 4, 50, 92
10, 178761, Note_on_c, 4, 62, 0
10, 178761, Note_on_c, 4, 50, 0
10, 178770, Note_on_c, 4, 50, 92
10, 178770, Note_on_c, 4, 62, 92
10, 178791, Note_on_c, 4, 50, 0
10, 178791, Note_on_c, 4, 62, 0
10, 178800, Note_on_c, 4, 50, 92
10, 178800, Note_on_c, 4, 62, 92
10, 178919, Note_on_c, 4, 50, 0
10, 178919, Note_on_c, 4, 62, 0
10, 183720, Note_on_c, 4, 45, 32
10, 183720, Note_on_c, 4, 57, 32
10, 183839, Note_on_c, 4, 45, 0
10, 183839, Note_on_c, 4, 57, 0
10, 184200, Note_on_c, 4, 45, 32
10, 184200, Note_on_c, 4, 57, 32
10, 184319, Note_on_c, 4, 45, 0
10, 184319, Note_on_c, 4, 57, 0
10, 184680, Note_on_c, 4, 50, 32
10, 184680, Note_on_c, 4, 62, 32
10, 184799, Note_on_c, 4, 50, 0
10, 184799, Note_on_c, 4, 62, 0
10, 185160, Note_on_c, 4, 62, 32
10, 185160, Note_on_c, 4, 50, 32
10, 185264, Note_on_c, 4, 62, 0
10, 185264, Note_on_c, 4, 50, 0
10, 185280, Note_on_c, 4, 67, 32
10, 185280, Note_on_c, 4, 64, 32
10, 185984, Note_on_c, 4, 67, 0
10, 185984, Note_on_c, 4, 64, 0
10, 186000, Note_on_c, 4, 64, 32
10, 186120, Note_on_c, 4, 57, 32
10, 186239, Note_on_c, 4, 64, 0
10, 186240, Note_on_c, 4, 62, 32
10, 186479, Note_on_c, 4, 57, 0
10, 186480, Note_on_c, 4, 54, 32
10, 186704, Note_on_c, 4, 62, 0
10, 186720, Note_on_c, 4, 66, 32
10, 186959, Note_on_c, 4, 54, 0
10, 186960, Note_on_c, 4, 62, 32
10, 187184, Note_on_c, 4, 66, 0
10, 187184, Note_on_c, 4, 62, 0
10, 187198, Control_c, 4, 11, 47
10, 187200, Control_c, 4, 11, 47
10, 187200, Note_on_c, 4, 67, 80
10, 187260, Control_c, 4, 11, 48
10, 187320, Control_c, 4, 11, 49
10, 187320, Note_on_c, 4, 64, 80
10, 187380, Control_c, 4, 11, 50
10, 187440, Control_c, 4, 11, 51
10, 187500, Control_c, 4, 11, 52
10, 187560, Control_c, 4, 11, 53
10, 187620, Control_c, 4, 11, 54
10, 187680, Control_c, 4, 11, 55
10, 187740, Control_c, 4, 11, 56
10, 187800, Control_c, 4, 11, 57
10, 187860, Control_c, 4, 11, 58
10, 187904, Note_on_c, 4, 67, 0
10, 187904, Note_on_c, 4, 64, 0
10, 187920, Control_c, 4, 11, 59
10, 187920, Note_on_c, 4, 64, 80
10, 187980, Control_c, 4, 11, 60
10, 188040, Note_on_c, 4, 57, 80
10, 188040, Control_c, 4, 11, 61
10, 188100, Control_c, 4, 11, 62
10, 188144, Note_on_c, 4, 64, 0
10, 188160, Note_on_c, 4, 62, 80
10, 188160, Control_c, 4, 11, 63
10, 188220, Control_c, 4, 11, 64
10, 188280, Control_c, 4, 11, 65
10, 188340, Control_c, 4, 11, 66
10, 188399, Note_on_c, 4, 57, 0
10, 188400, Control_c, 4, 11, 67
10, 188400, Note_on_c, 4, 54, 80
10, 188460, Control_c, 4, 11, 68
10, 188520, Control_c, 4, 11, 69
10, 188580, Control_c, 4, 11, 70
10, 188624, Note_on_c, 4, 62, 0
10, 188640, Control_c, 4, 11, 71
10, 188640, Note_on_c, 4, 66, 80
10, 188700, Control_c, 4, 11, 72
10, 188760, Control_c, 4, 11, 73
10, 188820, Control_c, 4, 11, 74
10, 188879, Note_on_c, 4, 54, 0
10, 188880, Note_on_c, 4, 62, 80
10, 188880, Control_c, 4, 11, 75
10, 188940, Control_c, 4, 11, 76
10, 189000, Control_c, 4, 11, 77
10, 189060, Control_c, 4, 11, 78
10, 189104, Note_on_c, 4, 66, 0
10, 189104, Note_on_c, 4, 62, 0
10, 189120, Control_c, 4, 11, 79
10, 189120, Note_on_c, 4, 67, 80
10, 189180, Control_c, 4, 11, 80
10, 189240, Note_on_c, 4, 64, 80
10, 189240, Control_c, 4, 11, 81
10, 189300, Control_c, 4, 11, 82
10, 189360, Control_c, 4, 11, 83
10, 189420, Control_c, 4, 11, 84
10, 189464, Note_on_c, 4, 67, 0
10, 189464, Note_on_c, 4, 64, 0
10, 189480, Note_on_c, 4, 57, 80
10, 189480, Note_on_c, 4, 64, 80
10, 189480, Control_c, 4, 11, 85
10, 189540, Control_c, 4, 11, 86
10, 189599, Note_on_c, 4, 64, 0
10, 189600, Note_on_c, 4, 66, 80
10, 189600, Control_c, 4, 11, 87
10, 189660, Control_c, 4, 11, 88
10, 189720, Control_c, 4, 11, 89
10, 189780, Control_c, 4, 11, 90
10, 189839, Note_on_c, 4, 57, 0
10, 189840, Control_c, 4, 11, 91
10, 189840, Note_on_c, 4, 62, 80
10, 189900, Control_c, 4, 11, 92
10, 189960, Control_c, 4, 11, 93
10, 190020, Control_c, 4, 11, 94
10, 190064, Note_on_c, 4, 66, 0
10, 190064, Note_on_c, 4, 62, 0
10, 190080, Note_on_c, 4, 67, 80
10, 190080, Control_c, 4, 11, 95
10, 190140, Control_c, 4, 11, 96
10, 190200, Note_on_c, 4, 64, 80
10, 190200, Control_c, 4, 11, 97
10, 190260, Control_c, 4, 11, 98
10, 190320, Control_c, 4, 11, 99
10, 190380, Control_c, 4, 11, 100
10, 190424, Note_on_c, 4, 67, 0
10, 190424, Note_on_c, 4, 64, 0
10, 190440, Control_c, 4, 11, 101
10, 190440, Note_on_c, 4, 64, 80
10, 190440, Note_on_c, 4, 57, 80
10, 190500, Control_c, 4, 11, 102
10, 190544, Note_on_c, 4, 64, 0
10, 190560, Note_on_c, 4, 65, 80
10, 190560, Control_c, 4, 11, 103
10, 190620, Control_c, 4, 11, 104
10, 190680, Control_c, 4, 11, 105
10, 190740, Control_c, 4, 11, 106
10, 190799, Note_on_c, 4, 57, 0
10, 190800, Note_on_c, 4, 62, 80
10, 190800, Control_c, 4, 11, 107
10, 190860, Control_c, 4, 11, 108
10, 190920, Control_c, 4, 11, 109
10, 190980, Control_c, 4, 11, 110
10, 191024, Note_on_c, 4, 65, 0
10, 191039, Note_on_c, 4, 62, 0
10, 191040, Note_on_c, 4, 57, 80
10, 191040, Control_c, 4, 11, 111
10, 191040, Note_on_c, 4, 64, 80
10, 191091, Note_on_c, 4, 57, 0
10, 191091, Note_on_c, 4, 64, 0
10, 191100, Note_on_c, 4, 57, 80
10, 191100, Note_on_c, 4, 64, 80
10, 191100, Control_c, 4, 11, 112
10, 191160, Control_c, 4, 11, 113
10, 191211, Note_on_c, 4, 57, 0
10, 191211, Note_on_c, 4, 64, 0
10, 191220, Control_c, 4, 11, 114
10, 191220, Note_on_c, 4, 57, 80
10, 191220, Note_on_c, 4, 64, 80
10, 191280, Control_c, 4, 11, 115
10, 191331, Note_on_c, 4, 57, 0
10, 191331, Note_on_c, 4, 64, 0
10, 191340, Note_on_c, 4, 64, 80
10, 191340, Control_c, 4, 11, 116
10, 191340, Note_on_c, 4, 57, 80
10, 191400, Control_c, 4, 11, 117
10, 191451, Note_on_c, 4, 64, 0
10, 191451, Note_on_c, 4, 57, 0
10, 191460, Note_on_c, 4, 65, 80
10, 191460, Note_on_c, 4, 57, 80
10, 191460, Control_c, 4, 11, 118
10, 191511, Note_on_c, 4, 65, 0
10, 191520, Control_c, 4, 11, 119
10, 191520, Note_on_c, 4, 64, 80
10, 191571, Note_on_c, 4, 57, 0
10, 191571, Note_on_c, 4, 64, 0
10, 191580, Note_on_c, 4, 57, 80
10, 191580, Note_on_c, 4, 64, 80
10, 191580, Control_c, 4, 11, 120
10, 191640, Control_c, 4, 11, 121
10, 191691, Note_on_c, 4, 57, 0
10, 191691, Note_on_c, 4, 64, 0
10, 191700, Note_on_c, 4, 57, 80
10, 191700, Note_on_c, 4, 64, 80
10, 191700, Control_c, 4, 11, 122
10, 191760, Control_c, 4, 11, 123
10, 191811, Note_on_c, 4, 57, 0
10, 191811, Note_on_c, 4, 64, 0
10, 191820, Control_c, 4, 11, 124
10, 191820, Note_on_c, 4, 64, 80
10, 191820, Note_on_c, 4, 57, 80
10, 191880, Control_c, 4, 11, 125
10, 191931, Note_on_c, 4, 64, 0
10, 191931, Note_on_c, 4, 57, 0
10, 191940, Note_on_c, 4, 57, 80
10, 191940, Note_on_c, 4, 65, 80
10, 191940, Control_c, 4, 11, 127
10, 191991, Note_on_c, 4, 57, 0
10, 192000, Note_on_c, 4, 57, 80
10, 192051, Note_on_c, 4, 65, 0
10, 192060, Note_on_c, 4, 67, 80
10, 192104, Note_on_c, 4, 57, 0
10, 192104, Note_on_c, 4, 67, 0
10, 192120, Note_on_c, 4, 45, 92
10, 192120, Note_on_c, 4, 57, 92
10, 192180, Control_c, 4, 11, 107
10, 192584, Note_on_c, 4, 45, 0
10, 192584, Note_on_c, 4, 57, 0
10, 192598, Control_c, 4, 11, 127
10, 192600, Note_on_c, 4, 50, 92
10, 192600, Note_on_c, 4, 62, 92
10, 192660, Control_c, 4, 11, 107
10, 193064, Note_on_c, 4, 50, 0
10, 193064, Note_on_c, 4, 62, 0
10, 193078, Control_c, 4, 11, 127
10, 193080, Note_on_c, 4, 62, 92
10, 193080, Note_on_c, 4, 50, 92
10, 193140, Control_c, 4, 11, 107
10, 193544, Note_on_c, 4, 62, 0
10, 193544, Note_on_c, 4, 50, 0
10, 193558, Control_c, 4, 11, 127
10, 193560, Note_on_c, 4, 50, 92
10, 193560, Note_on_c, 4, 62, 92
10, 193620, Control_c, 4, 11, 107
10, 194024, Note_on_c, 4, 50, 0
10, 194024, Note_on_c, 4, 62, 0
10, 194038, Control_c, 4, 11, 127
10, 194040, Note_on_c, 4, 50, 92
10, 194040, Note_on_c, 4, 62, 92
10, 194100, Control_c, 4, 11, 107
10, 194451, Note_on_c, 4, 50, 0
10, 194451, Note_on_c, 4, 62, 0
10, 194460, Note_on_c, 4, 64, 92
10, 194511, Note_on_c, 4, 64, 0
10, 194518, Control_c, 4, 11, 127
10, 194520, Note_on_c, 4, 57, 92
10, 194520, Note_on_c, 4, 64, 92
10, 194580, Control_c, 4, 11, 107
10, 194744, Note_on_c, 4, 57, 0
10, 194744, Note_on_c, 4, 64, 0
10, 194760, Note_on_c, 4, 69, 92
10, 194760, Note_on_c, 4, 57, 92
10, 194880, Control_c, 4, 11, 127
10, 194984, Note_on_c, 4, 69, 0
10, 194984, Note_on_c, 4, 57, 0
10, 195000, Note_on_c, 4, 50, 44
10, 195000, Note_on_c, 4, 62, 44
10, 195119, Note_on_c, 4, 50, 0
10, 195119, Note_on_c, 4, 62, 0
10, 195720, Note_on_c, 4, 62, 92
10, 195801, Note_on_c, 4, 62, 0
10, 195810, Note_on_c, 4, 62, 92
10, 195831, Note_on_c, 4, 62, 0
10, 195840, Note_on_c, 4, 64, 92
10, 195944, Note_on_c, 4, 64, 0
10, 195960, Note_on_c, 4, 64, 44
10, 196079, Note_on_c, 4, 64, 0
10, 196680, Note_on_c, 4, 64, 92
10, 196761, Note_on_c, 4, 64, 0
10, 196770, Note_on_c, 4, 64, 92
10, 196791, Note_on_c, 4, 64, 0
10, 196800, Note_on_c, 4, 66, 92
10, 196800, Note_on_c, 4, 54, 92
10, 196904, Note_on_c, 4, 66, 0
10, 196904, Note_on_c, 4, 54, 0
10, 196920, Note_on_c, 4, 54, 44
10, 196920, Note_on_c, 4, 66, 44
10, 197039, Note_on_c, 4, 54, 0
10, 197039, Note_on_c, 4, 66, 0
10, 197640, Note_on_c, 4, 66, 92
10, 197721, Note_on_c, 4, 66, 0
10, 197730, Note_on_c, 4, 66, 92
10, 197751, Note_on_c, 4, 66, 0
10, 197760, Note_on_c, 4, 67, 92
10, 197864, Note_on_c, 4, 67, 0
10, 197880, Note_on_c, 4, 67, 44
10, 197999, Note_on_c, 4, 67, 0
10, 200400, Note_on_c, 4, 57, 92
10, 200400, Note_on_c, 4, 69, 92
10, 200519, Note_on_c, 4, 57, 0
10, 200519, Note_on_c, 4, 69, 0
10, 200520, Note_on_c, 4, 57, 92
10, 200520, Note_on_c, 4, 69, 92
10, 200579, Note_on_c, 4, 57, 0
10, 200579, Note_on_c, 4, 69, 0
10, 200640, Note_on_c, 4, 50, 92
10, 200640, Note_on_c, 4, 62, 92
10, 200984, Note_on_c, 4, 50, 0
10, 200984, Note_on_c, 4, 62, 0
10, 201000, Note_on_c, 4, 62, 92
10, 201000, Note_on_c, 4, 50, 92
10, 201081, Note_on_c, 4, 62, 0
10, 201081, Note_on_c, 4, 50, 0
10, 201090, Note_on_c, 4, 62, 92
10, 201090, Note_on_c, 4, 50, 92
10, 201111, Note_on_c, 4, 62, 0
10, 201111, Note_on_c, 4, 50, 0
10, 201120, Note_on_c, 4, 65, 104
10, 201120, Note_on_c, 4, 53, 104
10, 201180, Control_c, 4, 11, 107
10, 201464, Note_on_c, 4, 65, 0
10, 201464, Note_on_c, 4, 53, 0
10, 201480, Note_on_c, 4, 65, 104
10, 201480, Note_on_c, 4, 53, 104
10, 201561, Note_on_c, 4, 65, 0
10, 201561, Note_on_c, 4, 53, 0
10, 201570, Note_on_c, 4, 65, 104
10, 201570, Note_on_c, 4, 53, 104
10, 201591, Note_on_c, 4, 65, 0
10, 201591, Note_on_c, 4, 53, 0
10, 201598, Control_c, 4, 11, 127
10, 201600, Note_on_c, 4, 69, 104
10, 201600, Note_on_c, 4, 57, 104
10, 201660, Control_c, 4, 11, 107
10, 201944, Note_on_c, 4, 69, 0
10, 201944, Note_on_c, 4, 57, 0
10, 201960, Note_on_c, 4, 57, 104
10, 201960, Note_on_c, 4, 69, 104
10, 202041, Note_on_c, 4, 57, 0
10, 202041, Note_on_c, 4, 69, 0
10, 202050, Note_on_c, 4, 57, 104
10, 202050, Note_on_c, 4, 69, 104
10, 202071, Note_on_c, 4, 57, 0
10, 202071, Note_on_c, 4, 69, 0
10, 202078, Control_c, 4, 11, 127
10, 202080, Note_on_c, 4, 50, 92
10, 202080, Note_on_c, 4, 62, 92
10, 202184, Note_on_c, 4, 50, 0
10, 202184, Note_on_c, 4, 62, 0
10, 202200, Note_on_c, 4, 62, 92
10, 202200, Note_on_c, 4, 50, 92
10, 202281, Note_on_c, 4, 62, 0
10, 202281, Note_on_c, 4, 50, 0
10, 202290, Note_on_c, 4, 50, 92
10, 202290, Note_on_c, 4, 62, 92
10, 202311, Note_on_c, 4, 50, 0
10, 202311, Note_on_c, 4, 62, 0
10, 202320, Note_on_c, 4, 65, 92
10, 202320, Note_on_c, 4, 53, 92
10, 202424, Note_on_c, 4, 65, 0
10, 202424, Note_on_c, 4, 53, 0
10, 202440, Note_on_c, 4, 65, 92
10, 202440, Note_on_c, 4, 53, 92
10, 202521, Note_on_c, 4, 65, 0
10, 202521, Note_on_c, 4, 53, 0
10, 202530, Note_on_c, 4, 53, 92
10, 202530, Note_on_c, 4, 65, 92
10, 202551, Note_on_c, 4, 53, 0
10, 202551, Note_on_c, 4, 65, 0
10, 202560, Note_on_c, 4, 57, 80
10, 202560, Note_on_c, 4, 69, 80
10, 202649, Note_on_c, 4, 57, 0
10, 202649, Note_on_c, 4, 69, 0
10, 202680, Note_on_c, 4, 62, 80
10, 202680, Note_on_c, 4, 50, 80
10, 202761, Note_on_c, 4, 62, 0
10, 202761, Note_on_c, 4, 50, 0
10, 202770, Note_on_c, 4, 62, 80
10, 202770, Note_on_c, 4, 50, 80
10, 202791, Note_on_c, 4, 62, 0
10, 202791, Note_on_c, 4, 50, 0
10, 202800, Note_on_c, 4, 53, 80
10, 202800, Note_on_c, 4, 65, 80
10, 202889, Note_on_c, 4, 53, 0
10, 202889, Note_on_c, 4, 65, 0
10, 202920, Note_on_c, 4, 57, 80
10, 202920, Note_on_c, 4, 45, 80
10, 203001, Note_on_c, 4, 57, 0
10, 203001, Note_on_c, 4, 45, 0
10, 203010, Note_on_c, 4, 45, 80
10, 203010, Note_on_c, 4, 57, 80
10, 203031, Note_on_c, 4, 45, 0
10, 203031, Note_on_c, 4, 57, 0
10, 203040, Note_on_c, 4, 62, 80
10, 203040, Note_on_c, 4, 50, 80
10, 203129, Note_on_c, 4, 62, 0
10, 203129, Note_on_c, 4, 50, 0
10, 203160, Note_on_c, 4, 65, 80
10, 203160, Note_on_c, 4, 53, 80
10, 203241, Note_on_c, 4, 65, 0
10, 203241, Note_on_c, 4, 53, 0
10, 203250, Note_on_c, 4, 53, 80
10, 203250, Note_on_c, 4, 65, 80
10, 203271, Note_on_c, 4, 53, 0
10, 203271, Note_on_c, 4, 65, 0
10, 203280, Note_on_c, 4, 69, 80
10, 203280, Note_on_c, 4, 57, 80
10, 203369, Note_on_c, 4, 69, 0
10, 203369, Note_on_c, 4, 57, 0
10, 203400, Note_on_c, 4, 50, 80
10, 203400, Note_on_c, 4, 62, 80
10, 203481, Note_on_c, 4, 50, 0
10, 203481, Note_on_c, 4, 62, 0
10, 203490, Note_on_c, 4, 62, 80
10, 203490, Note_on_c, 4, 50, 80
10, 203511, Note_on_c, 4, 62, 0
10, 203511, Note_on_c, 4, 50, 0
10, 203520, Note_on_c, 4, 53, 80
10, 203520, Note_on_c, 4, 65, 80
10, 203609, Note_on_c, 4, 53, 0
10, 203609, Note_on_c, 4, 65, 0
10, 203640, Note_on_c, 4, 57, 80
10, 203640, Note_on_c, 4, 69, 80
10, 203721, Note_on_c, 4, 57, 0
10, 203721, Note_on_c, 4, 69, 0
10, 203730, Note_on_c, 4, 57, 80
10, 203730, Note_on_c, 4, 69, 80
10, 203751, Note_on_c, 4, 57, 0
10, 203751, Note_on_c, 4, 69, 0
10, 203760, Note_on_c, 4, 74, 80
10, 203760, Note_on_c, 4, 62, 80
10, 203849, Note_on_c, 4, 74, 0
10, 203849, Note_on_c, 4, 62, 0
10, 203880, Note_on_c, 4, 53, 80
10, 203880, Note_on_c, 4, 65, 80
10, 203961, Note_on_c, 4, 53, 0
10, 203961, Note_on_c, 4, 65, 0
10, 203970, Note_on_c, 4, 53, 80
10, 203970, Note_on_c, 4, 65, 80
10, 203991, Note_on_c, 4, 53, 0
10, 203991, Note_on_c, 4, 65, 0
10, 204000, Note_on_c, 4, 57, 80
10, 204000, Note_on_c, 4, 69, 80
10, 204089, Note_on_c, 4, 57, 0
10, 204089, Note_on_c, 4, 69, 0
10, 204120, Note_on_c, 4, 62, 80
10, 204120, Note_on_c, 4, 50, 80
10, 204201, Note_on_c, 4, 62, 0
10, 204201, Note_on_c, 4, 50, 0
10, 204210, Note_on_c, 4, 50, 80
10, 204210, Note_on_c, 4, 62, 80
10, 204231, Note_on_c, 4, 50, 0
10, 204231, Note_on_c, 4, 62, 0
10, 204240, Note_on_c, 4, 62, 80
10, 204240, Note_on_c, 4, 50, 80
10, 204329, Note_on_c, 4, 62, 0
10, 204329, Note_on_c, 4, 50, 0
10, 204360, Note_on_c, 4, 62, 62
10, 204360, Note_on_c, 4, 50, 62
10, 204441, Note_on_c, 4, 62, 0
10, 204441, Note_on_c, 4, 50, 0
10, 204450, Note_on_c, 4, 50, 49
10, 204450, Note_on_c, 4, 62, 49
10, 204471, Note_on_c, 4, 50, 0
10, 204471, Note_on_c, 4, 62, 0
10, 204480, Note_on_c, 4, 65, 44
10, 204480, Note_on_c, 4, 69, 44
10, 205401, Note_on_c, 4, 65, 0
10, 205401, Note_on_c, 4, 69, 0
10, 205410, Note_on_c, 4, 57, 44
10, 205410, Note_on_c, 4, 69, 44
10, 205431, Note_on_c, 4, 57, 0
10, 205431, Note_on_c, 4, 69, 0
10, 205440, Note_on_c, 4, 53, 44
10, 205440, Note_on_c, 4, 65, 44
10, 205881, Note_on_c, 4, 53, 0
10, 205881, Note_on_c, 4, 65, 0
10, 205890, Note_on_c, 4, 50, 44
10, 205890, Note_on_c, 4, 62, 44
10, 205911, Note_on_c, 4, 50, 0
10, 205911, Note_on_c, 4, 62, 0
10, 205920, Note_on_c, 4, 57, 44
10, 205920, Note_on_c, 4, 45, 44
10, 206084, Note_on_c, 4, 57, 0
10, 206084, Note_on_c, 4, 45, 0
10, 206100, Note_on_c, 4, 62, 44
10, 206100, Note_on_c, 4, 50, 44
10, 206129, Note_on_c, 4, 62, 0
10, 206129, Note_on_c, 4, 50, 0
10, 206130, Note_on_c, 4, 53, 44
10, 206130, Note_on_c, 4, 65, 44
10, 206151, Note_on_c, 4, 53, 0
10, 206151, Note_on_c, 4, 65, 0
10, 206160, Note_on_c, 4, 67, 44
10, 206160, Note_on_c, 4, 64, 44
10, 206361, Note_on_c, 4, 67, 0
10, 206361, Note_on_c, 4, 64, 0
10, 206370, Note_on_c, 4, 64, 44
10, 206370, Note_on_c, 4, 67, 44
10, 206391, Note_on_c, 4, 64, 0
10, 206391, Note_on_c, 4, 67, 0
10, 206398, Control_c, 4, 11, 47
10, 206400, Note_on_c, 4, 67, 92
10, 206400, Note_on_c, 4, 64, 92
10, 208079, Note_on_c, 4, 67, 0
10, 208079, Note_on_c, 4, 64, 0
10, 208080, Note_on_c, 4, 69, 92
10, 208080, Note_on_c, 4, 66, 92
10, 210240, Control_c, 4, 11, 47
10, 210324, Control_c, 4, 11, 48
10, 210408, Control_c, 4, 11, 49
10, 210492, Control_c, 4, 11, 50
10, 210576, Control_c, 4, 11, 51
10, 210660, Control_c, 4, 11, 52
10, 210744, Control_c, 4, 11, 53
10, 210828, Control_c, 4, 11, 54
10, 210912, Control_c, 4, 11, 55
10, 210959, Note_on_c, 4, 69, 0
10, 210959, Note_on_c, 4, 66, 0
10, 210960, Note_on_c, 4, 67, 92
10, 210996, Control_c, 4, 11, 56
10, 211080, Control_c, 4, 11, 57
10, 211164, Control_c, 4, 11, 58
10, 211248, Control_c, 4, 11, 59
10, 211332, Control_c, 4, 11, 60
10, 211416, Control_c, 4, 11, 61
10, 211500, Control_c, 4, 11, 62
10, 211584, Control_c, 4, 11, 63
10, 211668, Control_c, 4, 11, 64
10, 211752, Control_c, 4, 11, 65
10, 211836, Control_c, 4, 11, 66
10, 211919, Note_on_c, 4, 67, 0
10, 211920, Control_c, 4, 11, 67
10, 211920, Note_on_c, 4, 67, 92
10, 211920, Note_on_c, 4, 64, 92
10, 212004, Control_c, 4, 11, 68
10, 212088, Control_c, 4, 11, 69
10, 212172, Control_c, 4, 11, 70
10, 212256, Control_c, 4, 11, 71
10, 212340, Control_c, 4, 11, 72
10, 212424, Control_c, 4, 11, 73
10, 212508, Control_c, 4, 11, 74
10, 212592, Control_c, 4, 11, 75
10, 212676, Control_c, 4, 11, 76
10, 212760, Control_c, 4, 11, 77
10, 212844, Control_c, 4, 11, 78
10, 212928, Control_c, 4, 11, 79
10, 213012, Control_c, 4, 11, 80
10, 213096, Control_c, 4, 11, 81
10, 213180, Control_c, 4, 11, 82
10, 213264, Control_c, 4, 11, 83
10, 213348, Control_c, 4, 11, 84
10, 213432, Control_c, 4, 11, 85
10, 213516, Control_c, 4, 11, 86
10, 213600, Control_c, 4, 11, 87
10, 213684, Control_c, 4, 11, 88
10, 213768, Control_c, 4, 11, 89
10, 213852, Control_c, 4, 11, 90
10, 213936, Control_c, 4, 11, 91
10, 214020, Control_c, 4, 11, 92
10, 214079, Note_on_c, 4, 67, 0
10, 214079, Note_on_c, 4, 64, 0
10, 214080, Note_on_c, 4, 64, 92
10, 214080, Note_on_c, 4, 67, 92
10, 214104, Control_c, 4, 11, 93
10, 214188, Control_c, 4, 11, 94
10, 214272, Control_c, 4, 11, 95
10, 214356, Control_c, 4, 11, 96
10, 214440, Control_c, 4, 11, 97
10, 214524, Control_c, 4, 11, 98
10, 214608, Control_c, 4, 11, 99
10, 214692, Control_c, 4, 11, 100
10, 214776, Control_c, 4, 11, 101
10, 214860, Control_c, 4, 11, 102
10, 214944, Control_c, 4, 11, 103
10, 215028, Control_c, 4, 11, 104
10, 215112, Control_c, 4, 11, 105
10, 215196, Control_c, 4, 11, 106
10, 215280, Control_c, 4, 11, 107
10, 215364, Control_c, 4, 11, 108
10, 215448, Control_c, 4, 11, 109
10, 215532, Control_c, 4, 11, 110
10, 215616, Control_c, 4, 11, 111
10, 215700, Control_c, 4, 11, 112
10, 215784, Control_c, 4, 11, 113
10, 215868, Control_c, 4, 11, 114
10, 215952, Control_c, 4, 11, 115
10, 216036, Control_c, 4, 11, 116
10, 216120, Control_c, 4, 11, 117
10, 216204, Control_c, 4, 11, 118
10, 216288, Control_c, 4, 11, 119
10, 216372, Control_c, 4, 11, 120
10, 216456, Control_c, 4, 11, 121
10, 216540, Control_c, 4, 11, 122
10, 216624, Control_c, 4, 11, 123
10, 216708, Control_c, 4, 11, 124
10, 216792, Control_c, 4, 11, 125
10, 216876, Control_c, 4, 11, 127
10, 216944, Note_on_c, 4, 64, 0
10, 216944, Note_on_c, 4, 67, 0
10, 216960, Note_on_c, 4, 57, 92
10, 216960, Note_on_c, 4, 69, 92
10, 217304, Note_on_c, 4, 57, 0
10, 217304, Note_on_c, 4, 69, 0
10, 217320, Note_on_c, 4, 57, 92
10, 217320, Note_on_c, 4, 45, 92
10, 217491, Note_on_c, 4, 57, 0
10, 217491, Note_on_c, 4, 45, 0
10, 217500, Note_on_c, 4, 45, 92
10, 217500, Note_on_c, 4, 57, 92
10, 217611, Note_on_c, 4, 45, 0
10, 217611, Note_on_c, 4, 57, 0
10, 217620, Note_on_c, 4, 57, 92
10, 217620, Note_on_c, 4, 45, 92
10, 217731, Note_on_c, 4, 57, 0
10, 217731, Note_on_c, 4, 45, 0
10, 217740, Note_on_c, 4, 45, 92
10, 217740, Note_on_c, 4, 57, 92
10, 217851, Note_on_c, 4, 45, 0
10, 217851, Note_on_c, 4, 57, 0
10, 217860, Note_on_c, 4, 57, 92
10, 217860, Note_on_c, 4, 45, 92
10, 217919, Note_on_c, 4, 57, 0
10, 217919, Note_on_c, 4, 45, 0
10, 217920, Note_on_c, 4, 50, 92
10, 217920, Note_on_c, 4, 62, 92
10, 217971, Note_on_c, 4, 50, 0
10, 217971, Note_on_c, 4, 62, 0
10, 217980, Note_on_c, 4, 62, 92
10, 217980, Note_on_c, 4, 50, 92
10, 218091, Note_on_c, 4, 62, 0
10, 218091, Note_on_c, 4, 50, 0
10, 218100, Note_on_c, 4, 50, 92
10, 218100, Note_on_c, 4, 62, 92
10, 218211, Note_on_c, 4, 50, 0
10, 218211, Note_on_c, 4, 62, 0
10, 218220, Note_on_c, 4, 62, 92
10, 218220, Note_on_c, 4, 50, 92
10, 218331, Note_on_c, 4, 62, 0
10, 218331, Note_on_c, 4, 50, 0
10, 218340, Note_on_c, 4, 50, 92
10, 218340, Note_on_c, 4, 62, 92
10, 218391, Note_on_c, 4, 50, 0
10, 218391, Note_on_c, 4, 62, 0
10, 218400, Note_on_c, 4, 50, 92
10, 218400, Note_on_c, 4, 62, 92
10, 218504, Note_on_c, 4, 50, 0
10, 218504, Note_on_c, 4, 62, 0
10, 218520, Note_on_c, 4, 62, 92
10, 218520, Note_on_c, 4, 64, 92
10, 218639, Note_on_c, 4, 62, 0
10, 218639, Note_on_c, 4, 64, 0
10, 218758, Control_c, 4, 11, 67
10, 218760, Note_on_c, 4, 57, 80
10, 218760, Note_on_c, 4, 64, 80
10, 218864, Note_on_c, 4, 57, 0
10, 218864, Note_on_c, 4, 64, 0
10, 218880, Note_on_c, 4, 69, 80
10, 218880, Note_on_c, 4, 57, 80
10, 218880, Control_c, 4, 11, 67
10, 218928, Control_c, 4, 11, 68
10, 218976, Control_c, 4, 11, 69
10, 219024, Control_c, 4, 11, 70
10, 219072, Control_c, 4, 11, 71
10, 219120, Control_c, 4, 11, 72
10, 219168, Control_c, 4, 11, 73
10, 219216, Control_c, 4, 11, 74
10, 219264, Control_c, 4, 11, 75
10, 219312, Control_c, 4, 11, 76
10, 219360, Control_c, 4, 11, 77
10, 219408, Control_c, 4, 11, 78
10, 219411, Note_on_c, 4, 69, 0
10, 219411, Note_on_c, 4, 57, 0
10, 219420, Note_on_c, 4, 69, 80
10, 219420, Note_on_c, 4, 57, 80
10, 219456, Control_c, 4, 11, 79
10, 219504, Control_c, 4, 11, 80
10, 219531, Note_on_c, 4, 69, 0
10, 219531, Note_on_c, 4, 57, 0
10, 219540, Note_on_c, 4, 69, 80
10, 219540, Note_on_c, 4, 57, 80
10, 219552, Control_c, 4, 11, 81
10, 219600, Control_c, 4, 11, 82
10, 219648, Control_c, 4, 11, 83
10, 219651, Note_on_c, 4, 69, 0
10, 219651, Note_on_c, 4, 57, 0
10, 219660, Note_on_c, 4, 69, 80
10, 219660, Note_on_c, 4, 57, 80
10, 219696, Control_c, 4, 11, 84
10, 219744, Control_c, 4, 11, 85
10, 219771, Note_on_c, 4, 69, 0
10, 219771, Note_on_c, 4, 57, 0
10, 219780, Note_on_c, 4, 57, 80
10, 219780, Note_on_c, 4, 69, 80
10, 219792, Control_c, 4, 11, 86
10, 219831, Note_on_c, 4, 57, 0
10, 219831, Note_on_c, 4, 69, 0
10, 219840, Note_on_c, 4, 62, 80
10, 219840, Control_c, 4, 11, 87
10, 219840, Note_on_c, 4, 50, 80
10, 219888, Control_c, 4, 11, 88
10, 219936, Control_c, 4, 11, 89
10, 219959, Note_on_c, 4, 62, 0
10, 219959, Note_on_c, 4, 50, 0
10, 219984, Control_c, 4, 11, 90
10, 220752, Control_c, 4, 11, 106
10, 220800, Control_c, 4, 11, 107
10, 220800, Note_on_c, 4, 62, 80
10, 220800, Note_on_c, 4, 50, 80
10, 220848, Control_c, 4, 11, 108
10, 220896, Control_c, 4, 11, 109
10, 220944, Control_c, 4, 11, 110
10, 220992, Control_c, 4, 11, 111
10, 221040, Control_c, 4, 11, 112
10, 221088, Control_c, 4, 11, 113
10, 221136, Control_c, 4, 11, 114
10, 221184, Control_c, 4, 11, 115
10, 221232, Control_c, 4, 11, 116
10, 221280, Control_c, 4, 11, 117
10, 221328, Control_c, 4, 11, 118
10, 221331, Note_on_c, 4, 62, 0
10, 221331, Note_on_c, 4, 50, 0
10, 221340, Note_on_c, 4, 50, 80
10, 221340, Note_on_c, 4, 62, 80
10, 221376, Control_c, 4, 11, 119
10, 221424, Control_c, 4, 11, 120
10, 221451, Note_on_c, 4, 50, 0
10, 221451, Note_on_c, 4, 62, 0
10, 221460, Note_on_c, 4, 50, 80
10, 221460, Note_on_c, 4, 62, 80
10, 221472, Control_c, 4, 11, 121
10, 221520, Control_c, 4, 11, 122
10, 221568, Control_c, 4, 11, 123
10, 221571, Note_on_c, 4, 50, 0
10, 221571, Note_on_c, 4, 62, 0
10, 221580, Note_on_c, 4, 62, 80
10, 221580, Note_on_c, 4, 50, 80
10, 221616, Control_c, 4, 11, 124
10, 221664, Control_c, 4, 11, 125
10, 221691, Note_on_c, 4, 62, 0
10, 221691, Note_on_c, 4, 50, 0
10, 221700, Note_on_c, 4, 50, 80
10, 221700, Note_on_c, 4, 62, 80
10, 221712, Control_c, 4, 11, 127
10, 221864, Note_on_c, 4, 50, 0
10, 221864, Note_on_c, 4, 62, 0
10, 221880, Note_on_c, 4, 67, 80
10, 221961, Note_on_c, 4, 67, 0
10, 221970, Note_on_c, 4, 67, 80
10, 221991, Note_on_c, 4, 67, 0
10, 222000, Note_on_c, 4, 67, 80
10, 222119, Note_on_c, 4, 67, 0
10, 222360, Note_on_c, 4, 67, 80
10, 222441, Note_on_c, 4, 67, 0
10, 222450, Note_on_c, 4, 67, 80
10, 222471, Note_on_c, 4, 67, 0
10, 222480, Note_on_c, 4, 67, 80
10, 222599, Note_on_c, 4, 67, 0
10, 222840, Note_on_c, 4, 57, 80
10, 222840, Note_on_c, 4, 45, 80
10, 222921, Note_on_c, 4, 57, 0
10, 222921, Note_on_c, 4, 45, 0
10, 222930, Note_on_c, 4, 57, 80
10, 222930, Note_on_c, 4, 45, 80
10, 222951, Note_on_c, 4, 57, 0
10, 222951, Note_on_c, 4, 45, 0
10, 222960, Note_on_c, 4, 45, 80
10, 222960, Note_on_c, 4, 57, 80
10, 223079, Note_on_c, 4, 45, 0
10, 223079, Note_on_c, 4, 57, 0
10, 223320, Note_on_c, 4, 69, 80
10, 223320, Note_on_c, 4, 57, 80
10, 223401, Note_on_c, 4, 69, 0
10, 223401, Note_on_c, 4, 57, 0
10, 223410, Note_on_c, 4, 69, 80
10, 223410, Note_on_c, 4, 57, 80
10, 223431, Note_on_c, 4, 69, 0
10, 223431, Note_on_c, 4, 57, 0
10, 223440, Note_on_c, 4, 69, 80
10, 223440, Note_on_c, 4, 57, 80
10, 223559, Note_on_c, 4, 69, 0
10, 223559, Note_on_c, 4, 57, 0
10, 223800, Note_on_c, 4, 62, 80
10, 223881, Note_on_c, 4, 62, 0
10, 223890, Note_on_c, 4, 62, 80
10, 223911, Note_on_c, 4, 62, 0
10, 223920, Note_on_c, 4, 62, 80
10, 224024, Note_on_c, 4, 62, 0
10, 224040, Note_on_c, 4, 67, 80
10, 224040, Note_on_c, 4, 62, 80
10, 224121, Note_on_c, 4, 67, 0
10, 224121, Note_on_c, 4, 62, 0
10, 224130, Note_on_c, 4, 67, 80
10, 224130, Note_on_c, 4, 62, 80
10, 224151, Note_on_c, 4, 67, 0
10, 224151, Note_on_c, 4, 62, 0
10, 224160, Note_on_c, 4, 67, 80
10, 224160, Note_on_c, 4, 62, 80
10, 224264, Note_on_c, 4, 67, 0
10, 224264, Note_on_c, 4, 62, 0
10, 224280, Note_on_c, 4, 67, 80
10, 224280, Note_on_c, 4, 64, 80
10, 224361, Note_on_c, 4, 67, 0
10, 224361, Note_on_c, 4, 64, 0
10, 224370, Note_on_c, 4, 67, 80
10, 224370, Note_on_c, 4, 64, 80
10, 224391, Note_on_c, 4, 67, 0
10, 224391, Note_on_c, 4, 64, 0
10, 224400, Note_on_c, 4, 64, 80
10, 224504, Note_on_c, 4, 64, 0
10, 224520, Note_on_c, 4, 57, 80
10, 224520, Note_on_c, 4, 69, 80
10, 224601, Note_on_c, 4, 57, 0
10, 224601, Note_on_c, 4, 69, 0
10, 224610, Note_on_c, 4, 69, 80
10, 224610, Note_on_c, 4, 57, 80
10, 224631, Note_on_c, 4, 69, 0
10, 224631, Note_on_c, 4, 57, 0
10, 224638, Control_c, 4, 11, 67
10, 224640, Note_on_c, 4, 62, 74
10, 224640, Note_on_c, 4, 57, 80
10, 224744, Note_on_c, 4, 57, 0
10, 224760, Note_on_c, 4, 45, 80
10, 224931, Note_on_c, 4, 62, 0
10, 224940, Note_on_c, 4, 66, 74
10, 224984, Note_on_c, 4, 66, 0
10, 225000, Note_on_c, 4, 64, 74
10, 225044, Note_on_c, 4, 64, 0
10, 225060, Note_on_c, 4, 62, 74
10, 225104, Note_on_c, 4, 62, 0
10, 225120, Note_on_c, 4, 69, 74
10, 225209, Note_on_c, 4, 69, 0
10, 225240, Note_on_c, 4, 67, 74
10, 225329, Note_on_c, 4, 67, 0
10, 225360, Note_on_c, 4, 64, 74
10, 225449, Note_on_c, 4, 64, 0
10, 225479, Note_on_c, 4, 45, 0
10, 225480, Note_on_c, 4, 44, 80
10, 225480, Note_on_c, 4, 69, 74
10, 225539, Note_on_c, 4, 44, 0
10, 225540, Note_on_c, 4, 45, 80
10, 225591, Note_on_c, 4, 45, 0
10, 225600, Note_on_c, 4, 45, 80
10, 225704, Note_on_c, 4, 69, 0
10, 225720, Note_on_c, 4, 66, 74
10, 225809, Note_on_c, 4, 66, 0
10, 225840, Note_on_c, 4, 62, 74
10, 225929, Note_on_c, 4, 62, 0
10, 225959, Note_on_c, 4, 45, 0
10, 225960, Note_on_c, 4, 69, 74
10, 225960, Note_on_c, 4, 44, 80
10, 226019, Note_on_c, 4, 44, 0
10, 226020, Note_on_c, 4, 45, 80
10, 226071, Note_on_c, 4, 45, 0
10, 226080, Note_on_c, 4, 45, 80
10, 226184, Note_on_c, 4, 69, 0
10, 226200, Note_on_c, 4, 64, 74
10, 226289, Note_on_c, 4, 64, 0
10, 226320, Note_on_c, 4, 57, 74
10, 226409, Note_on_c, 4, 57, 0
10, 226439, Note_on_c, 4, 45, 0
10, 226440, Note_on_c, 4, 69, 74
10, 226440, Note_on_c, 4, 44, 80
10, 226499, Note_on_c, 4, 44, 0
10, 226500, Note_on_c, 4, 45, 80
10, 226551, Note_on_c, 4, 45, 0
10, 226560, Note_on_c, 4, 45, 80
10, 226664, Note_on_c, 4, 69, 0
10, 226680, Note_on_c, 4, 66, 74
10, 226769, Note_on_c, 4, 66, 0
10, 226800, Note_on_c, 4, 62, 74
10, 226889, Note_on_c, 4, 62, 0
10, 226919, Note_on_c, 4, 45, 0
10, 226920, Note_on_c, 4, 44, 80
10, 226920, Note_on_c, 4, 69, 74
10, 226979, Note_on_c, 4, 44, 0
10, 226980, Note_on_c, 4, 45, 80
10, 227031, Note_on_c, 4, 45, 0
10, 227040, Note_on_c, 4, 45, 80
10, 227144, Note_on_c, 4, 69, 0
10, 227160, Note_on_c, 4, 67, 74
10, 227249, Note_on_c, 4, 67, 0
10, 227280, Note_on_c, 4, 64, 74
10, 227369, Note_on_c, 4, 64, 0
10, 227399, Note_on_c, 4, 45, 0
10, 227400, Note_on_c, 4, 44, 80
10, 227400, Note_on_c, 4, 69, 74
10, 227459, Note_on_c, 4, 44, 0
10, 227460, Note_on_c, 4, 45, 80
10, 227511, Note_on_c, 4, 45, 0
10, 227520, Note_on_c, 4, 45, 80
10, 227624, Note_on_c, 4, 69, 0
10, 227640, Note_on_c, 4, 66, 74
10, 227729, Note_on_c, 4, 66, 0
10, 227760, Note_on_c, 4, 62, 74
10, 227849, Note_on_c, 4, 62, 0
10, 227879, Note_on_c, 4, 45, 0
10, 227880, Note_on_c, 4, 44, 80
10, 227880, Note_on_c, 4, 69, 74
10, 227939, Note_on_c, 4, 44, 0
10, 227940, Note_on_c, 4, 45, 80
10, 227991, Note_on_c, 4, 45, 0
10, 228000, Note_on_c, 4, 45, 80
10, 228104, Note_on_c, 4, 69, 0
10, 228120, Note_on_c, 4, 64, 74
10, 228209, Note_on_c, 4, 64, 0
10, 228240, Note_on_c, 4, 57, 74
10, 228329, Note_on_c, 4, 57, 0
10, 228359, Note_on_c, 4, 45, 0
10, 228360, Note_on_c, 4, 69, 80
10, 228360, Note_on_c, 4, 44, 80
10, 228419, Note_on_c, 4, 44, 0
10, 228420, Note_on_c, 4, 45, 80
10, 228471, Note_on_c, 4, 45, 0
10, 228480, Note_on_c, 4, 45, 80
10, 228584, Note_on_c, 4, 45, 0
10, 228600, Note_on_c, 4, 57, 80
10, 230399, Note_on_c, 4, 69, 0
10, 230399, Note_on_c, 4, 57, 0
10, 230400, Note_on_c, 4, 69, 80
10, 230400, Control_c, 4, 11, 67
10, 230400, Note_on_c, 4, 57, 80
10, 230460, Control_c, 4, 11, 68
10, 230520, Control_c, 4, 11, 69
10, 230580, Control_c, 4, 11, 70
10, 230640, Control_c, 4, 11, 71
10, 230700, Control_c, 4, 11, 72
10, 230760, Control_c, 4, 11, 73
10, 230820, Control_c, 4, 11, 74
10, 230880, Control_c, 4, 11, 75
10, 230940, Control_c, 4, 11, 76
10, 231000, Control_c, 4, 11, 77
10, 231060, Control_c, 4, 11, 78
10, 231120, Control_c, 4, 11, 79
10, 231180, Control_c, 4, 11, 80
10, 231240, Control_c, 4, 11, 81
10, 231300, Control_c, 4, 11, 82
10, 231360, Control_c, 4, 11, 83
10, 231420, Control_c, 4, 11, 84
10, 231480, Control_c, 4, 11, 85
10, 231540, Control_c, 4, 11, 86
10, 231600, Control_c, 4, 11, 87
10, 231660, Control_c, 4, 11, 88
10, 231720, Control_c, 4, 11, 89
10, 231780, Control_c, 4, 11, 90
10, 231840, Control_c, 4, 11, 91
10, 231900, Control_c, 4, 11, 92
10, 231944, Note_on_c, 4, 69, 0
10, 231944, Note_on_c, 4, 57, 0
10, 231960, Control_c, 4, 11, 93
10, 231960, Note_on_c, 4, 53, 80
10, 231960, Note_on_c, 4, 65, 80
10, 232020, Control_c, 4, 11, 94
10, 232049, Note_on_c, 4, 53, 0
10, 232049, Note_on_c, 4, 65, 0
10, 232080, Note_on_c, 4, 62, 80
10, 232080, Note_on_c, 4, 50, 80
10, 232080, Control_c, 4, 11, 95
10, 232140, Control_c, 4, 11, 96
10, 232169, Note_on_c, 4, 62, 0
10, 232169, Note_on_c, 4, 50, 0
10, 232200, Note_on_c, 4, 50, 80
10, 232200, Note_on_c, 4, 62, 80
10, 232200, Control_c, 4, 11, 97
10, 232260, Control_c, 4, 11, 98
10, 232320, Control_c, 4, 11, 99
10, 232380, Control_c, 4, 11, 100
10, 232424, Note_on_c, 4, 50, 0
10, 232424, Note_on_c, 4, 62, 0
10, 232440, Control_c, 4, 11, 101
10, 232440, Note_on_c, 4, 67, 80
10, 232500, Control_c, 4, 11, 102
10, 232544, Note_on_c, 4, 67, 0
10, 232560, Note_on_c, 4, 67, 80
10, 232560, Control_c, 4, 11, 103
10, 232620, Control_c, 4, 11, 104
10, 232664, Note_on_c, 4, 67, 0
10, 232680, Control_c, 4, 11, 105
10, 232680, Note_on_c, 4, 64, 80
10, 232740, Control_c, 4, 11, 106
10, 232800, Control_c, 4, 11, 107
10, 232860, Control_c, 4, 11, 108
10, 232904, Note_on_c, 4, 64, 0
10, 232920, Note_on_c, 4, 57, 80
10, 232920, Control_c, 4, 11, 109
10, 232920, Note_on_c, 4, 69, 80
10, 232980, Control_c, 4, 11, 110
10, 233024, Note_on_c, 4, 57, 0
10, 233024, Note_on_c, 4, 69, 0
10, 233040, Control_c, 4, 11, 111
10, 233040, Note_on_c, 4, 69, 80
10, 233040, Note_on_c, 4, 57, 80
10, 233100, Control_c, 4, 11, 112
10, 233144, Note_on_c, 4, 69, 0
10, 233144, Note_on_c, 4, 57, 0
10, 233160, Control_c, 4, 11, 113
10, 233160, Note_on_c, 4, 50, 80
10, 233160, Note_on_c, 4, 62, 80
10, 233220, Control_c, 4, 11, 114
10, 233280, Control_c, 4, 11, 115
10, 233340, Control_c, 4, 11, 116
10, 233384, Note_on_c, 4, 50, 0
10, 233384, Note_on_c, 4, 62, 0
10, 233400, Note_on_c, 4, 50, 80
10, 233400, Note_on_c, 4, 62, 80
10, 233400, Control_c, 4, 11, 117
10, 233460, Control_c, 4, 11, 118
10, 233504, Note_on_c, 4, 50, 0
10, 233504, Note_on_c, 4, 62, 0
10, 233520, Note_on_c, 4, 62, 80
10, 233520, Control_c, 4, 11, 119
10, 233520, Note_on_c, 4, 50, 80
10, 233580, Control_c, 4, 11, 120
10, 233639, Note_on_c, 4, 62, 0
10, 233639, Note_on_c, 4, 50, 0
10, 233640, Control_c, 4, 11, 121
10, 233940, Control_c, 4, 11, 127
10, 234120, Note_on_c, 4, 50, 80
10, 234120, Note_on_c, 4, 62, 80
10, 234344, Note_on_c, 4, 50, 0
10, 234344, Note_on_c, 4, 62, 0
10, 234360, Note_on_c, 4, 50, 80
10, 234360, Note_on_c, 4, 62, 80
10, 234464, Note_on_c, 4, 50, 0
10, 234464, Note_on_c, 4, 62, 0
10, 234480, Note_on_c, 4, 50, 80
10, 234480, Note_on_c, 4, 62, 80
10, 234584, Note_on_c, 4, 50, 0
10, 234584, Note_on_c, 4, 62, 0
10, 234600, Note_on_c, 4, 62, 92
10, 234600, Note_on_c, 4, 50, 92
10, 234824, Note_on_c, 4, 62, 0
10, 234824, Note_on_c, 4, 50, 0
10, 234840, Note_on_c, 4, 50, 92
10, 234840, Note_on_c, 4, 62, 92
10, 234944, Note_on_c, 4, 50, 0
10, 234944, Note_on_c, 4, 62, 0
10, 234960, Note_on_c, 4, 62, 92
10, 234960, Note_on_c, 4, 50, 92
10, 235079, Note_on_c, 4, 62, 0
10, 235079, Note_on_c, 4, 50, 0
10, 236400, Control_c, 4, 11, 47
10, 236520, Note_on_c, 4, 67, 80
10, 236744, Note_on_c, 4, 67, 0
10, 236760, Note_on_c, 4, 62, 80
10, 236849, Note_on_c, 4, 62, 0
10, 236880, Note_on_c, 4, 57, 80
10, 236969, Note_on_c, 4, 57, 0
10, 237000, Note_on_c, 4, 57, 80
10, 237000, Note_on_c, 4, 69, 80
10, 237000, Control_c, 4, 11, 47
10, 237023, Control_c, 4, 11, 49
10, 237045, Control_c, 4, 11, 50
10, 237068, Control_c, 4, 11, 52
10, 237090, Control_c, 4, 11, 54
10, 237113, Control_c, 4, 11, 55
10, 237135, Control_c, 4, 11, 57
10, 237158, Control_c, 4, 11, 59
10, 237180, Control_c, 4, 11, 60
10, 237203, Control_c, 4, 11, 62
10, 237225, Control_c, 4, 11, 64
10, 237248, Control_c, 4, 11, 65
10, 237270, Control_c, 4, 11, 67
10, 237293, Control_c, 4, 11, 69
10, 237315, Control_c, 4, 11, 70
10, 237338, Control_c, 4, 11, 72
10, 237360, Control_c, 4, 11, 74
10, 237383, Control_c, 4, 11, 75
10, 237405, Control_c, 4, 11, 77
10, 237428, Control_c, 4, 11, 79
10, 237450, Control_c, 4, 11, 80
10, 237473, Control_c, 4, 11, 82
10, 237495, Control_c, 4, 11, 84
10, 237518, Control_c, 4, 11, 85
10, 237540, Control_c, 4, 11, 87
10, 237563, Control_c, 4, 11, 89
10, 237585, Control_c, 4, 11, 90
10, 237608, Control_c, 4, 11, 92
10, 237630, Control_c, 4, 11, 94
10, 237651, Note_on_c, 4, 57, 0
10, 237651, Note_on_c, 4, 69, 0
10, 237653, Control_c, 4, 11, 95
10, 237660, Note_on_c, 4, 69, 80
10, 237660, Note_on_c, 4, 57, 80
10, 237675, Control_c, 4, 11, 97
10, 237698, Control_c, 4, 11, 99
10, 237720, Control_c, 4, 11, 100
10, 237743, Control_c, 4, 11, 102
10, 237765, Control_c, 4, 11, 104
10, 237771, Note_on_c, 4, 69, 0
10, 237771, Note_on_c, 4, 57, 0
10, 237780, Note_on_c, 4, 69, 80
10, 237780, Note_on_c, 4, 57, 80
10, 237788, Control_c, 4, 11, 105
10, 237810, Control_c, 4, 11, 107
10, 237833, Control_c, 4, 11, 109
10, 237855, Control_c, 4, 11, 110
10, 237878, Control_c, 4, 11, 112
10, 237891, Note_on_c, 4, 69, 0
10, 237891, Note_on_c, 4, 57, 0
10, 237900, Note_on_c, 4, 69, 80
10, 237900, Note_on_c, 4, 57, 80
10, 237900, Control_c, 4, 11, 114
10, 237923, Control_c, 4, 11, 115
10, 237945, Control_c, 4, 11, 117
10, 237968, Control_c, 4, 11, 119
10, 237990, Control_c, 4, 11, 120
10, 238011, Note_on_c, 4, 69, 0
10, 238011, Note_on_c, 4, 57, 0
10, 238013, Control_c, 4, 11, 122
10, 238020, Note_on_c, 4, 57, 80
10, 238020, Note_on_c, 4, 69, 80
10, 238035, Control_c, 4, 11, 124
10, 238058, Control_c, 4, 11, 127
10, 238079, Note_on_c, 4, 57, 0
10, 238079, Note_on_c, 4, 69, 0
10, 238080, Note_on_c, 4, 62, 80
10, 238080, Note_on_c, 4, 50, 80
10, 238131, Note_on_c, 4, 62, 0
10, 238131, Note_on_c, 4, 50, 0
10, 238140, Note_on_c, 4, 50, 80
10, 238140, Note_on_c, 4, 62, 80
10, 238251, Note_on_c, 4, 50, 0
10, 238251, Note_on_c, 4, 62, 0
10, 238260, Note_on_c, 4, 50, 80
10, 238260, Note_on_c, 4, 62, 80
10, 238371, Note_on_c, 4, 50, 0
10, 238371, Note_on_c, 4, 62, 0
10, 238380, Note_on_c, 4, 62, 80
10, 238380, Note_on_c, 4, 50, 80
10, 238491, Note_on_c, 4, 62, 0
10, 238491, Note_on_c, 4, 50, 0
10, 238500, Note_on_c, 4, 62, 80
10, 238500, Note_on_c, 4, 50, 80
10, 238551, Note_on_c, 4, 62, 0
10, 238551, Note_on_c, 4, 50, 0
10, 238560, Note_on_c, 4, 62, 80
10, 238560, Note_on_c, 4, 64, 80
10, 238664, Note_on_c, 4, 62, 0
10, 238664, Note_on_c, 4, 64, 0
10, 238680, Note_on_c, 4, 62, 80
10, 238680, Note_on_c, 4, 64, 80
10, 238799, Note_on_c, 4, 62, 0
10, 238799, Note_on_c, 4, 64, 0
10, 238920, Note_on_c, 4, 57, 80
10, 238920, Note_on_c, 4, 64, 80
10, 239039, Note_on_c, 4, 57, 0
10, 239039, Note_on_c, 4, 64, 0
10, 239280, Control_c, 4, 11, 67
10, 239520, Control_c, 4, 11, 67
10, 239520, Note_on_c, 4, 69, 80
10, 239520, Note_on_c, 4, 57, 80
10, 239550, Control_c, 4, 11, 68
10, 239580, Control_c, 4, 11, 70
10, 239610, Control_c, 4, 11, 71
10, 239640, Control_c, 4, 11, 72
10, 239670, Control_c, 4, 11, 73
10, 239700, Control_c, 4, 11, 75
10, 239730, Control_c, 4, 11, 76
10, 239760, Control_c, 4, 11, 77
10, 239790, Control_c, 4, 11, 78
10, 239820, Control_c, 4, 11, 80
10, 239850, Control_c, 4, 11, 81
10, 239880, Control_c, 4, 11, 82
10, 239910, Control_c, 4, 11, 83
10, 239940, Control_c, 4, 11, 85
10, 239970, Control_c, 4, 11, 86
10, 240000, Control_c, 4, 11, 87
10, 240030, Control_c, 4, 11, 88
10, 240060, Control_c, 4, 11, 90
10, 240090, Control_c, 4, 11, 91
10, 240120, Control_c, 4, 11, 92
10, 240150, Control_c, 4, 11, 93
10, 240180, Control_c, 4, 11, 95
10, 240210, Control_c, 4, 11, 96
10, 240240, Control_c, 4, 11, 97
10, 240270, Control_c, 4, 11, 98
10, 240300, Control_c, 4, 11, 100
10, 240330, Control_c, 4, 11, 101
10, 240360, Control_c, 4, 11, 102
10, 240390, Control_c, 4, 11, 103
10, 240420, Control_c, 4, 11, 105
10, 240450, Control_c, 4, 11, 106
10, 240480, Control_c, 4, 11, 107
10, 240510, Control_c, 4, 11, 108
10, 240531, Note_on_c, 4, 69, 0
10, 240531, Note_on_c, 4, 57, 0
10, 240540, Note_on_c, 4, 57, 80
10, 240540, Control_c, 4, 11, 110
10, 240540, Note_on_c, 4, 69, 80
10, 240570, Control_c, 4, 11, 111
10, 240600, Control_c, 4, 11, 112
10, 240630, Control_c, 4, 11, 113
10, 240651, Note_on_c, 4, 57, 0
10, 240651, Note_on_c, 4, 69, 0
10, 240660, Note_on_c, 4, 69, 80
10, 240660, Control_c, 4, 11, 115
10, 240660, Note_on_c, 4, 57, 80
10, 240690, Control_c, 4, 11, 116
10, 240720, Control_c, 4, 11, 117
10, 240750, Control_c, 4, 11, 118
10, 240771, Note_on_c, 4, 69, 0
10, 240771, Note_on_c, 4, 57, 0
10, 240780, Control_c, 4, 11, 120
10, 240780, Note_on_c, 4, 57, 80
10, 240780, Note_on_c, 4, 69, 80
10, 240810, Control_c, 4, 11, 121
10, 240840, Control_c, 4, 11, 122
10, 240870, Control_c, 4, 11, 123
10, 240891, Note_on_c, 4, 57, 0
10, 240891, Note_on_c, 4, 69, 0
10, 240900, Note_on_c, 4, 69, 80
10, 240900, Note_on_c, 4, 57, 80
10, 240900, Control_c, 4, 11, 125
10, 240930, Control_c, 4, 11, 127
10, 241011, Note_on_c, 4, 69, 0
10, 241011, Note_on_c, 4, 57, 0
10, 241020, Note_on_c, 4, 50, 80
10, 241020, Note_on_c, 4, 62, 80
10, 241131, Note_on_c, 4, 50, 0
10, 241131, Note_on_c, 4, 62, 0
10, 241140, Note_on_c, 4, 50, 80
10, 241140, Note_on_c, 4, 62, 80
10, 241251, Note_on_c, 4, 50, 0
10, 241251, Note_on_c, 4, 62, 0
10, 241260, Note_on_c, 4, 50, 80
10, 241260, Note_on_c, 4, 62, 80
10, 241371, Note_on_c, 4, 50, 0
10, 241371, Note_on_c, 4, 62, 0
10, 241380, Note_on_c, 4, 50, 80
10, 241380, Note_on_c, 4, 62, 80
10, 241439, Note_on_c, 4, 50, 0
10, 241440, Note_on_c, 4, 64, 80
10, 241491, Note_on_c, 4, 62, 0
10, 241491, Note_on_c, 4, 64, 0
10, 241500, Note_on_c, 4, 62, 80
10, 241500, Note_on_c, 4, 64, 80
10, 241611, Note_on_c, 4, 62, 0
10, 241611, Note_on_c, 4, 64, 0
10, 241620, Note_on_c, 4, 64, 80
10, 241620, Note_on_c, 4, 62, 80
10, 241731, Note_on_c, 4, 64, 0
10, 241731, Note_on_c, 4, 62, 0
10, 241740, Note_on_c, 4, 62, 80
10, 241740, Note_on_c, 4, 64, 80
10, 241799, Note_on_c, 4, 62, 0
10, 241800, Note_on_c, 4, 57, 80
10, 241851, Note_on_c, 4, 64, 0
10, 241851, Note_on_c, 4, 57, 0
10, 241860, Note_on_c, 4, 64, 80
10, 241860, Note_on_c, 4, 57, 80
10, 241911, Note_on_c, 4, 64, 0
10, 241911, Note_on_c, 4, 57, 0
10, 241920, Note_on_c, 4, 64, 44
10, 242039, Note_on_c, 4, 64, 0
10, 243360, Note_on_c, 4, 57, 44
10, 243360, Note_on_c, 4, 45, 44
10, 243539, Note_on_c, 4, 57, 0
10, 243539, Note_on_c, 4, 45, 0
10, 243600, Note_on_c, 4, 57, 44
10, 243600, Note_on_c, 4, 45, 44
10, 243779, Note_on_c, 4, 57, 0
10, 243779, Note_on_c, 4, 45, 0
10, 246000, Note_on_c, 4, 62, 44
10, 246000, Note_on_c, 4, 50, 44
10, 246359, Note_on_c, 4, 62, 0
10, 246359, Note_on_c, 4, 50, 0
10, 246420, Note_on_c, 4, 45, 44
10, 246420, Note_on_c, 4, 57, 44
10, 246471, Note_on_c, 4, 45, 0
10, 246471, Note_on_c, 4, 57, 0
10, 246480, Note_on_c, 4, 62, 44
10, 246480, Note_on_c, 4, 50, 44
10, 246599, Note_on_c, 4, 62, 0
10, 246599, Note_on_c, 4, 50, 0
10, 246660, Note_on_c, 4, 65, 44
10, 246660, Note_on_c, 4, 53, 44
10, 246711, Note_on_c, 4, 65, 0
10, 246711, Note_on_c, 4, 53, 0
10, 246720, Note_on_c, 4, 53, 44
10, 246720, Note_on_c, 4, 65, 44
10, 246959, Note_on_c, 4, 53, 0
10, 246959, Note_on_c, 4, 65, 0
10, 247920, Note_on_c, 4, 53, 44
10, 247920, Note_on_c, 4, 65, 44
10, 248279, Note_on_c, 4, 53, 0
10, 248279, Note_on_c, 4, 65, 0
10, 248340, Note_on_c, 4, 50, 44
10, 248340, Note_on_c, 4, 62, 44
10, 248391, Note_on_c, 4, 50, 0
10, 248391, Note_on_c, 4, 62, 0
10, 248400, Note_on_c, 4, 53, 44
10, 248400, Note_on_c, 4, 65, 44
10, 248519, Note_on_c, 4, 53, 0
10, 248519, Note_on_c, 4, 65, 0
10, 248580, Note_on_c, 4, 69, 44
10, 248580, Note_on_c, 4, 57, 44
10, 248631, Note_on_c, 4, 69, 0
10, 248631, Note_on_c, 4, 57, 0
10, 248640, Note_on_c, 4, 57, 44
10, 248640, Note_on_c, 4, 69, 44
10, 248759, Note_on_c, 4, 57, 0
10, 248759, Note_on_c, 4, 69, 0
10, 249360, Note_on_c, 4, 67, 44
10, 249360, Note_on_c, 4, 64, 44
10, 249599, Note_on_c, 4, 67, 0
10, 249599, Note_on_c, 4, 64, 0
10, 249600, Note_on_c, 4, 62, 44
10, 249600, Note_on_c, 4, 65, 44
10, 249719, Note_on_c, 4, 62, 0
10, 249719, Note_on_c, 4, 65, 0
10, 250280, Control_c, 4, 11, 77
10, 250320, Note_on_c, 4, 57, 80
10, 250320, Note_on_c, 4, 64, 80
10, 250335, Control_c, 4, 11, 78
10, 250390, Control_c, 4, 11, 80
10, 250445, Control_c, 4, 11, 81
10, 250500, Control_c, 4, 11, 82
10, 250544, Note_on_c, 4, 57, 0
10, 250544, Note_on_c, 4, 64, 0
10, 250555, Control_c, 4, 11, 83
10, 250560, Note_on_c, 4, 62, 80
10, 250560, Note_on_c, 4, 50, 80
10, 250610, Control_c, 4, 11, 85
10, 250665, Control_c, 4, 11, 86
10, 250720, Control_c, 4, 11, 87
10, 250775, Control_c, 4, 11, 88
10, 250799, Note_on_c, 4, 62, 0
10, 250799, Note_on_c, 4, 50, 0
10, 250830, Control_c, 4, 11, 90
10, 250885, Control_c, 4, 11, 91
10, 250940, Control_c, 4, 11, 92
10, 250980, Note_on_c, 4, 69, 80
10, 250980, Note_on_c, 4, 65, 80
10, 250995, Control_c, 4, 11, 93
10, 251031, Note_on_c, 4, 69, 0
10, 251031, Note_on_c, 4, 65, 0
10, 251040, Note_on_c, 4, 65, 80
10, 251040, Note_on_c, 4, 69, 80
10, 251050, Control_c, 4, 11, 95
10, 251105, Control_c, 4, 11, 96
10, 251160, Control_c, 4, 11, 97
10, 251215, Control_c, 4, 11, 98
10, 251270, Control_c, 4, 11, 100
10, 251279, Note_on_c, 4, 65, 0
10, 251279, Note_on_c, 4, 69, 0
10, 251280, Note_on_c, 4, 64, 80
10, 251280, Note_on_c, 4, 67, 80
10, 251325, Control_c, 4, 11, 101
10, 251380, Control_c, 4, 11, 102
10, 251435, Control_c, 4, 11, 103
10, 251490, Control_c, 4, 11, 105
10, 251504, Note_on_c, 4, 64, 0
10, 251504, Note_on_c, 4, 67, 0
10, 251520, Note_on_c, 4, 62, 80
10, 251520, Note_on_c, 4, 65, 80
10, 251545, Control_c, 4, 11, 106
10, 251600, Control_c, 4, 11, 107
10, 251639, Note_on_c, 4, 62, 0
10, 251639, Note_on_c, 4, 65, 0
10, 251655, Control_c, 4, 11, 108
10, 251710, Control_c, 4, 11, 110
10, 251765, Control_c, 4, 11, 111
10, 251820, Control_c, 4, 11, 112
10, 251875, Control_c, 4, 11, 113
10, 251930, Control_c, 4, 11, 115
10, 251940, Note_on_c, 4, 69, 80
10, 251940, Note_on_c, 4, 65, 80
10, 251985, Control_c, 4, 11, 116
10, 251991, Note_on_c, 4, 69, 0
10, 251991, Note_on_c, 4, 65, 0
10, 252000, Note_on_c, 4, 69, 80
10, 252000, Note_on_c, 4, 65, 80
10, 252040, Control_c, 4, 11, 117
10, 252095, Control_c, 4, 11, 118
10, 252150, Control_c, 4, 11, 120
10, 252205, Control_c, 4, 11, 121
10, 252239, Note_on_c, 4, 69, 0
10, 252239, Note_on_c, 4, 65, 0
10, 252240, Note_on_c, 4, 67, 80
10, 252240, Note_on_c, 4, 64, 80
10, 252260, Control_c, 4, 11, 122
10, 252315, Control_c, 4, 11, 123
10, 252370, Control_c, 4, 11, 125
10, 252425, Control_c, 4, 11, 127
10, 252464, Note_on_c, 4, 67, 0
10, 252464, Note_on_c, 4, 64, 0
10, 252480, Note_on_c, 4, 62, 80
10, 252480, Note_on_c, 4, 65, 80
10, 252719, Note_on_c, 4, 62, 0
10, 252719, Note_on_c, 4, 65, 0
10, 252900, Note_on_c, 4, 65, 86
10, 252900, Note_on_c, 4, 62, 86
10, 252951, Note_on_c, 4, 65, 0
10, 252951, Note_on_c, 4, 62, 0
10, 252960, Note_on_c, 4, 64, 86
10, 252960, Note_on_c, 4, 62, 86
10, 253199, Note_on_c, 4, 64, 0
10, 253199, Note_on_c, 4, 62, 0
10, 253380, Note_on_c, 4, 69, 86
10, 253380, Note_on_c, 4, 57, 86
10, 253431, Note_on_c, 4, 69, 0
10, 253431, Note_on_c, 4, 57, 0
10, 253440, Note_on_c, 4, 62, 86
10, 253440, Note_on_c, 4, 65, 86
10, 253679, Note_on_c, 4, 62, 0
10, 253679, Note_on_c, 4, 65, 0
10, 253860, Note_on_c, 4, 65, 86
10, 253860, Note_on_c, 4, 62, 86
10, 253911, Note_on_c, 4, 65, 0
10, 253911, Note_on_c, 4, 62, 0
10, 253920, Note_on_c, 4, 62, 86
10, 253920, Note_on_c, 4, 64, 86
10, 254159, Note_on_c, 4, 62, 0
10, 254159, Note_on_c, 4, 64, 0
10, 254340, Note_on_c, 4, 69, 86
10, 254340, Note_on_c, 4, 57, 86
10, 254391, Note_on_c, 4, 69, 0
10, 254391, Note_on_c, 4, 57, 0
10, 254400, Note_on_c, 4, 62, 92
10, 254400, Note_on_c, 4, 50, 92
10, 254841, Note_on_c, 4, 62, 0
10, 254841, Note_on_c, 4, 50, 0
10, 254850, Note_on_c, 4, 62, 92
10, 254850, Note_on_c, 4, 50, 92
10, 254871, Note_on_c, 4, 62, 0
10, 254871, Note_on_c, 4, 50, 0
10, 254880, Note_on_c, 4, 62, 92
10, 254880, Note_on_c, 4, 50, 92
10, 255321, Note_on_c, 4, 62, 0
10, 255321, Note_on_c, 4, 50, 0
10, 255330, Note_on_c, 4, 50, 92
10, 255330, Note_on_c, 4, 62, 92
10, 255351, Note_on_c, 4, 50, 0
10, 255351, Note_on_c, 4, 62, 0
10, 255360, Note_on_c, 4, 65, 92
10, 255801, Note_on_c, 4, 65, 0
10, 255810, Note_on_c, 4, 65, 92
10, 255831, Note_on_c, 4, 65, 0
10, 255840, Note_on_c, 4, 64, 92
10, 256281, Note_on_c, 4, 64, 0
10, 256290, Note_on_c, 4, 64, 92
10, 256311, Note_on_c, 4, 64, 0
10, 256320, Note_on_c, 4, 62, 92
10, 256320, Note_on_c, 4, 50, 92
10, 256761, Note_on_c, 4, 62, 0
10, 256761, Note_on_c, 4, 50, 0
10, 256770, Note_on_c, 4, 62, 92
10, 256770, Note_on_c, 4, 50, 92
10, 256791, Note_on_c, 4, 62, 0
10, 256791, Note_on_c, 4, 50, 0
10, 256800, Note_on_c, 4, 62, 92
10, 256800, Note_on_c, 4, 50, 92
10, 257241, Note_on_c, 4, 62, 0
10, 257241, Note_on_c, 4, 50, 0
10, 257250, Note_on_c, 4, 62, 92
10, 257250, Note_on_c, 4, 50, 92
10, 257271, Note_on_c, 4, 62, 0
10, 257271, Note_on_c, 4, 50, 0
10, 257280, Note_on_c, 4, 62, 92
10, 257280, Note_on_c, 4, 50, 92
10, 257721, Note_on_c, 4, 62, 0
10, 257721, Note_on_c, 4, 50, 0
10, 257730, Note_on_c, 4, 50, 92
10, 257730, Note_on_c, 4, 62, 92
10, 257751, Note_on_c, 4, 50, 0
10, 257751, Note_on_c, 4, 62, 0
10, 257760, Note_on_c, 4, 57, 92
10, 257760, Note_on_c, 4, 69, 92
10, 258201, Note_on_c, 4, 57, 0
10, 258201, Note_on_c, 4, 69, 0
10, 258210, Note_on_c, 4, 69, 92
10, 258210, Note_on_c, 4, 57, 92
10, 258231, Note_on_c, 4, 69, 0
10, 258231, Note_on_c, 4, 57, 0
10, 258240, Note_on_c, 4, 69, 92
10, 258240, Note_on_c, 4, 57, 92
10, 258681, Note_on_c, 4, 69, 0
10, 258681, Note_on_c, 4, 57, 0
10, 258690, Note_on_c, 4, 57, 92
10, 258690, Note_on_c, 4, 69, 92
10, 258711, Note_on_c, 4, 57, 0
10, 258711, Note_on_c, 4, 69, 0
10, 258720, Note_on_c, 4, 69, 92
10, 258720, Note_on_c, 4, 57, 92
10, 258921, Note_on_c, 4, 69, 0
10, 258921, Note_on_c, 4, 57, 0
10, 258930, Note_on_c, 4, 69, 92
10, 258930, Note_on_c, 4, 57, 92
10, 258951, Note_on_c, 4, 69, 0
10, 258951, Note_on_c, 4, 57, 0
10, 258960, Note_on_c, 4, 69, 92
10, 258960, Note_on_c, 4, 57, 92
10, 259161, Note_on_c, 4, 69, 0
10, 259161, Note_on_c, 4, 57, 0
10, 259170, Note_on_c, 4, 69, 92
10, 259170, Note_on_c, 4, 57, 92
10, 259191, Note_on_c, 4, 69, 0
10, 259191, Note_on_c, 4, 57, 0
10, 259200, Note_on_c, 4, 57, 92
10, 259200, Note_on_c, 4, 69, 92
10, 259319, Note_on_c, 4, 57, 0
10, 259319, Note_on_c, 4, 69, 0
10, 259380, Note_on_c, 4, 69, 92
10, 259380, Note_on_c, 4, 57, 92
10, 259431, Note_on_c, 4, 69, 0
10, 259431, Note_on_c, 4, 57, 0
10, 259440, Note_on_c, 4, 57, 92
10, 259440, Note_on_c, 4, 69, 92
10, 259559, Note_on_c, 4, 57, 0
10, 259559, Note_on_c, 4, 69, 0
10, 259620, Note_on_c, 4, 69, 92
10, 259620, Note_on_c, 4, 57, 92
10, 259671, Note_on_c, 4, 69, 0
10, 259671, Note_on_c, 4, 57, 0
10, 259680, Note_on_c, 4, 69, 92
10, 259680, Note_on_c, 4, 57, 92
10, 259799, Note_on_c, 4, 69, 0
10, 259799, Note_on_c, 4, 57, 0
10, 259860, Note_on_c, 4, 69, 92
10, 259860, Note_on_c, 4, 57, 92
10, 259911, Note_on_c, 4, 69, 0
10, 259911, Note_on_c, 4, 57, 0
10, 259920, Note_on_c, 4, 69, 92
10, 259920, Note_on_c, 4, 57, 92
10, 260039, Note_on_c, 4, 69, 0
10, 260039, Note_on_c, 4, 57, 0
10, 260100, Note_on_c, 4, 57, 92
10, 260100, Note_on_c, 4, 69, 92
10, 260151, Note_on_c, 4, 57, 0
10, 260151, Note_on_c, 4, 69, 0
10, 260160, Note_on_c, 4, 57, 92
10, 260160, Note_on_c, 4, 69, 92
10, 260399, Note_on_c, 4, 57, 0
10, 260399, Note_on_c, 4, 69, 0
10, 260640, Note_on_c, 4, 57, 104
10, 260640, Note_on_c, 4, 69, 104
10, 260700, Control_c, 4, 11, 107
10, 260879, Note_on_c, 4, 57, 0
10, 260879, Note_on_c, 4, 69, 0
10, 261000, Control_c, 4, 11, 127
10, 261120, Note_on_c, 4, 62, 92
10, 261120, Note_on_c, 4, 50, 92
10, 261359, Note_on_c, 4, 62, 0
10, 261359, Note_on_c, 4, 50, 0
10, 261960, Note_on_c, 4, 69, 92
10, 261960, Note_on_c, 4, 57, 92
10, 262049, Note_on_c, 4, 69, 0
10, 262049, Note_on_c, 4, 57, 0
10, 262080, Note_on_c, 4, 62, 92
10, 262080, Note_on_c, 4, 50, 92
10, 262199, Note_on_c, 4, 62, 0
10, 262199, Note_on_c, 4, 50, 0
10, 262199, End_track
11, 0, Start_track
11, 0, Title_t, "French Horn in B-flat basso"
11, 0, MIDI_port, 0
11, 0, Program_c, 5, 60
11, 0, Control_c, 5, 7, 104
11, 0, Control_c, 5, 10, 50
11, 6805, Control_c, 5, 11, 97
11, 6840, Note_on_c, 5, 50, 92
11, 6840, Note_on_c, 5, 62, 92
11, 6842, Control_c, 5, 11, 99
11, 6878, Control_c, 5, 11, 100
11, 6914, Control_c, 5, 11, 101
11, 6951, Control_c, 5, 11, 102
11, 6987, Control_c, 5, 11, 104
11, 7024, Control_c, 5, 11, 105
11, 7060, Control_c, 5, 11, 106
11, 7097, Control_c, 5, 11, 107
11, 7133, Control_c, 5, 11, 109
11, 7170, Control_c, 5, 11, 110
11, 7206, Control_c, 5, 11, 111
11, 7243, Control_c, 5, 11, 112
11, 7279, Control_c, 5, 11, 114
11, 7315, Control_c, 5, 11, 115
11, 7352, Control_c, 5, 11, 116
11, 7388, Control_c, 5, 11, 117
11, 7425, Control_c, 5, 11, 119
11, 7461, Control_c, 5, 11, 120
11, 7498, Control_c, 5, 11, 121
11, 7534, Control_c, 5, 11, 122
11, 7571, Control_c, 5, 11, 124
11, 7607, Control_c, 5, 11, 125
11, 7641, Note_on_c, 5, 50, 0
11, 7641, Note_on_c, 5, 62, 0
11, 7644, Control_c, 5, 11, 127
11, 7650, Note_on_c, 5, 50, 92
11, 7650, Note_on_c, 5, 62, 92
11, 7671, Note_on_c, 5, 50, 0
11, 7671, Note_on_c, 5, 62, 0
11, 7680, Note_on_c, 5, 50, 92
11, 7680, Note_on_c, 5, 62, 92
11, 8121, Note_on_c, 5, 50, 0
11, 8121, Note_on_c, 5, 62, 0
11, 8130, Note_on_c, 5, 62, 92
11, 8130, Note_on_c, 5, 50, 92
11, 8151, Note_on_c, 5, 62, 0
11, 8151, Note_on_c, 5, 50, 0
11, 8160, Note_on_c, 5, 50, 92
11, 8160, Note_on_c, 5, 62, 92
11, 8361, Note_on_c, 5, 50, 0
11, 8361, Note_on_c, 5, 62, 0
11, 8370, Note_on_c, 5, 62, 92
11, 8370, Note_on_c, 5, 50, 92
11, 8391, Note_on_c, 5, 62, 0
11, 8391, Note_on_c, 5, 50, 0
11, 8400, Note_on_c, 5, 62, 92
11, 8400, Note_on_c, 5, 50, 92
11, 8571, Note_on_c, 5, 62, 0
11, 8571, Note_on_c, 5, 50, 0
11, 8580, Note_on_c, 5, 50, 92
11, 8580, Note_on_c, 5, 62, 92
11, 8601, Note_on_c, 5, 50, 0
11, 8601, Note_on_c, 5, 62, 0
11, 8610, Note_on_c, 5, 62, 92
11, 8610, Note_on_c, 5, 50, 92
11, 8631, Note_on_c, 5, 62, 0
11, 8631, Note_on_c, 5, 50, 0
11, 8640, Note_on_c, 5, 50, 92
11, 8640, Note_on_c, 5, 62, 92
11, 8939, Note_on_c, 5, 50, 0
11, 8939, Note_on_c, 5, 62, 0
11, 9600, Note_on_c, 5, 62, 104
11, 9600, Note_on_c, 5, 50, 104
11, 9779, Note_on_c, 5, 62, 0
11, 9779, Note_on_c, 5, 50, 0
11, 10080, Note_on_c, 5, 62, 92
11, 10080, Note_on_c, 5, 50, 92
11, 10259, Note_on_c, 5, 62, 0
11, 10259, Note_on_c, 5, 50, 0
11, 10560, Note_on_c, 5, 50, 92
11, 10560, Note_on_c, 5, 62, 92
11, 10739, Note_on_c, 5, 50, 0
11, 10739, Note_on_c, 5, 62, 0
11, 10800, Note_on_c, 5, 62, 92
11, 10800, Note_on_c, 5, 50, 92
11, 10979, Note_on_c, 5, 62, 0
11, 10979, Note_on_c, 5, 50, 0
11, 11280, Note_on_c, 5, 58, 92
11, 12104, Note_on_c, 5, 58, 0
11, 12120, Note_on_c, 5, 58, 92
11, 12224, Note_on_c, 5, 58, 0
11, 12240, Note_on_c, 5, 58, 92
11, 12344, Note_on_c, 5, 58, 0
11, 12360, Note_on_c, 5, 58, 92
11, 12449, Note_on_c, 5, 58, 0
11, 12480, Note_on_c, 5, 58, 104
11, 12599, Note_on_c, 5, 58, 0
11, 14640, Note_on_c, 5, 58, 92
11, 14640, Note_on_c, 5, 46, 92
11, 14700, Control_c, 5, 11, 109
11, 15104, Note_on_c, 5, 58, 0
11, 15104, Note_on_c, 5, 46, 0
11, 15118, Control_c, 5, 11, 127
11, 15120, Note_on_c, 5, 65, 92
11, 15120, Note_on_c, 5, 53, 92
11, 15180, Control_c, 5, 11, 109
11, 15584, Note_on_c, 5, 65, 0
11, 15584, Note_on_c, 5, 53, 0
11, 15598, Control_c, 5, 11, 127
11, 15600, Note_on_c, 5, 65, 92
11, 15600, Note_on_c, 5, 53, 92
11, 15719, Note_on_c, 5, 65, 0
11, 15719, Note_on_c, 5, 53, 0
11, 22542, Control_c, 5, 11, 77
11, 22560, Note_on_c, 5, 50, 92
11, 22560, Note_on_c, 5, 62, 92
11, 22578, Control_c, 5, 11, 79
11, 22615, Control_c, 5, 11, 80
11, 22651, Control_c, 5, 11, 81
11, 22688, Control_c, 5, 11, 82
11, 22724, Control_c, 5, 11, 84
11, 22761, Control_c, 5, 11, 85
11, 22797, Control_c, 5, 11, 86
11, 22833, Control_c, 5, 11, 87
11, 22870, Control_c, 5, 11, 89
11, 22906, Control_c, 5, 11, 90
11, 22943, Control_c, 5, 11, 91
11, 22979, Control_c, 5, 11, 92
11, 23016, Control_c, 5, 11, 94
11, 23052, Control_c, 5, 11, 95
11, 23089, Control_c, 5, 11, 96
11, 23125, Control_c, 5, 11, 97
11, 23144, Note_on_c, 5, 50, 0
11, 23144, Note_on_c, 5, 62, 0
11, 23160, Note_on_c, 5, 58, 92
11, 23160, Note_on_c, 5, 46, 92
11, 23162, Control_c, 5, 11, 99
11, 23198, Control_c, 5, 11, 100
11, 23234, Control_c, 5, 11, 101
11, 23271, Control_c, 5, 11, 102
11, 23307, Control_c, 5, 11, 104
11, 23344, Control_c, 5, 11, 105
11, 23380, Control_c, 5, 11, 106
11, 23417, Control_c, 5, 11, 107
11, 23453, Control_c, 5, 11, 109
11, 23490, Control_c, 5, 11, 110
11, 23526, Control_c, 5, 11, 111
11, 23563, Control_c, 5, 11, 112
11, 23599, Control_c, 5, 11, 114
11, 23635, Control_c, 5, 11, 115
11, 23672, Control_c, 5, 11, 116
11, 23708, Control_c, 5, 11, 117
11, 23745, Control_c, 5, 11, 119
11, 23781, Control_c, 5, 11, 120
11, 23818, Control_c, 5, 11, 121
11, 23854, Control_c, 5, 11, 122
11, 23891, Control_c, 5, 11, 124
11, 23927, Control_c, 5, 11, 125
11, 23961, Note_on_c, 5, 58, 0
11, 23961, Note_on_c, 5, 46, 0
11, 23964, Control_c, 5, 11, 127
11, 23970, Note_on_c, 5, 58, 92
11, 23991, Note_on_c, 5, 58, 0
11, 24000, Note_on_c, 5, 53, 92
11, 24000, Note_on_c, 5, 65, 92
11, 24441, Note_on_c, 5, 53, 0
11, 24441, Note_on_c, 5, 65, 0
11, 24450, Note_on_c, 5, 50, 92
11, 24450, Note_on_c, 5, 62, 92
11, 24471, Note_on_c, 5, 50, 0
11, 24471, Note_on_c, 5, 62, 0
11, 24480, Note_on_c, 5, 58, 92
11, 24480, Note_on_c, 5, 46, 92
11, 24681, Note_on_c, 5, 58, 0
11, 24681, Note_on_c, 5, 46, 0
11, 24690, Note_on_c, 5, 41, 92
11, 24690, Note_on_c, 5, 53, 92
11, 24711, Note_on_c, 5, 41, 0
11, 24711, Note_on_c, 5, 53, 0
11, 24720, Note_on_c, 5, 62, 92
11, 24720, Note_on_c, 5, 50, 92
11, 24891, Note_on_c, 5, 62, 0
11, 24891, Note_on_c, 5, 50, 0
11, 24900, Note_on_c, 5, 53, 92
11, 24900, Note_on_c, 5, 65, 92
11, 24929, Note_on_c, 5, 53, 0
11, 24929, Note_on_c, 5, 65, 0
11, 24930, Note_on_c, 5, 62, 92
11, 24930, Note_on_c, 5, 50, 92
11, 24951, Note_on_c, 5, 62, 0
11, 24951, Note_on_c, 5, 50, 0
11, 24960, Note_on_c, 5, 46, 92
11, 24960, Note_on_c, 5, 58, 92
11, 25251, Note_on_c, 5, 46, 0
11, 25251, Note_on_c, 5, 58, 0
11, 25260, Note_on_c, 5, 62, 92
11, 25304, Note_on_c, 5, 62, 0
11, 25320, Note_on_c, 5, 60, 92
11, 25364, Note_on_c, 5, 60, 0
11, 25380, Note_on_c, 5, 58, 92
11, 25424, Note_on_c, 5, 58, 0
11, 25440, Note_on_c, 5, 65, 92
11, 25544, Note_on_c, 5, 65, 0
11, 25560, Note_on_c, 5, 63, 92
11, 25664, Note_on_c, 5, 63, 0
11, 25680, Note_on_c, 5, 60, 92
11, 25784, Note_on_c, 5, 60, 0
11, 25800, Note_on_c, 5, 65, 92
11, 25800, Note_on_c, 5, 53, 92
11, 25904, Note_on_c, 5, 65, 0
11, 25904, Note_on_c, 5, 53, 0
11, 25920, Note_on_c, 5, 62, 92
11, 25920, Note_on_c, 5, 50, 92
11, 26039, Note_on_c, 5, 62, 0
11, 26039, Note_on_c, 5, 50, 0
11, 26460, Note_on_c, 5, 46, 92
11, 26460, Note_on_c, 5, 58, 92
11, 26504, Note_on_c, 5, 46, 0
11, 26504, Note_on_c, 5, 58, 0
11, 26520, Note_on_c, 5, 58, 92
11, 26520, Note_on_c, 5, 46, 92
11, 26564, Note_on_c, 5, 58, 0
11, 26564, Note_on_c, 5, 46, 0
11, 26580, Note_on_c, 5, 46, 92
11, 26580, Note_on_c, 5, 58, 92
11, 26624, Note_on_c, 5, 46, 0
11, 26624, Note_on_c, 5, 58, 0
11, 26640, Note_on_c, 5, 58, 92
11, 26640, Note_on_c, 5, 46, 92
11, 26759, Note_on_c, 5, 58, 0
11, 26759, Note_on_c, 5, 46, 0
11, 26880, Note_on_c, 5, 58, 104
11, 26880, Note_on_c, 5, 46, 104
11, 26999, Note_on_c, 5, 58, 0
11, 26999, Note_on_c, 5, 46, 0
11, 27420, Note_on_c, 5, 46, 92
11, 27420, Note_on_c, 5, 58, 92
11, 27464, Note_on_c, 5, 46, 0
11, 27464, Note_on_c, 5, 58, 0
11, 27480, Note_on_c, 5, 58, 92
11, 27480, Note_on_c, 5, 46, 92
11, 27524, Note_on_c, 5, 58, 0
11, 27524, Note_on_c, 5, 46, 0
11, 27540, Note_on_c, 5, 46, 92
11, 27540, Note_on_c, 5, 58, 92
11, 27584, Note_on_c, 5, 46, 0
11, 27584, Note_on_c, 5, 58, 0
11, 27600, Note_on_c, 5, 46, 92
11, 27600, Note_on_c, 5, 58, 92
11, 27719, Note_on_c, 5, 46, 0
11, 27719, Note_on_c, 5, 58, 0
11, 27840, Note_on_c, 5, 53, 104
11, 27840, Note_on_c, 5, 65, 104
11, 27959, Note_on_c, 5, 53, 0
11, 27959, Note_on_c, 5, 65, 0
11, 28380, Note_on_c, 5, 62, 92
11, 28380, Note_on_c, 5, 50, 92
11, 28424, Note_on_c, 5, 62, 0
11, 28424, Note_on_c, 5, 50, 0
11, 28440, Note_on_c, 5, 50, 92
11, 28440, Note_on_c, 5, 62, 92
11, 28484, Note_on_c, 5, 50, 0
11, 28484, Note_on_c, 5, 62, 0
11, 28500, Note_on_c, 5, 62, 92
11, 28500, Note_on_c, 5, 50, 92
11, 28544, Note_on_c, 5, 62, 0
11, 28544, Note_on_c, 5, 50, 0
11, 28560, Note_on_c, 5, 62, 92
11, 28560, Note_on_c, 5, 50, 92
11, 28679, Note_on_c, 5, 62, 0
11, 28679, Note_on_c, 5, 50, 0
11, 28860, Note_on_c, 5, 50, 92
11, 28860, Note_on_c, 5, 62, 92
11, 28904, Note_on_c, 5, 50, 0
11, 28904, Note_on_c, 5, 62, 0
11, 28920, Note_on_c, 5, 62, 92
11, 28920, Note_on_c, 5, 50, 92
11, 28964, Note_on_c, 5, 62, 0
11, 28964, Note_on_c, 5, 50, 0
11, 28980, Note_on_c, 5, 62, 92
11, 28980, Note_on_c, 5, 50, 92
11, 29024, Note_on_c, 5, 62, 0
11, 29024, Note_on_c, 5, 50, 0
11, 29040, Note_on_c, 5, 50, 104
11, 29040, Note_on_c, 5, 62, 104
11, 29159, Note_on_c, 5, 50, 0
11, 29159, Note_on_c, 5, 62, 0
11, 29340, Note_on_c, 5, 62, 92
11, 29340, Note_on_c, 5, 50, 92
11, 29384, Note_on_c, 5, 62, 0
11, 29384, Note_on_c, 5, 50, 0
11, 29400, Note_on_c, 5, 50, 92
11, 29400, Note_on_c, 5, 62, 92
11, 29444, Note_on_c, 5, 50, 0
11, 29444, Note_on_c, 5, 62, 0
11, 29460, Note_on_c, 5, 50, 92
11, 29460, Note_on_c, 5, 62, 92
11, 29504, Note_on_c, 5, 50, 0
11, 29504, Note_on_c, 5, 62, 0
11, 29520, Note_on_c, 5, 62, 104
11, 29520, Note_on_c, 5, 50, 104
11, 29639, Note_on_c, 5, 62, 0
11, 29639, Note_on_c, 5, 50, 0
11, 33000, Note_on_c, 5, 62, 92
11, 33000, Note_on_c, 5, 50, 92
11, 33104, Note_on_c, 5, 62, 0
11, 33104, Note_on_c, 5, 50, 0
11, 33120, Note_on_c, 5, 46, 92
11, 33120, Note_on_c, 5, 58, 92
11, 33224, Note_on_c, 5, 46, 0
11, 33224, Note_on_c, 5, 58, 0
11, 33240, Note_on_c, 5, 46, 92
11, 33240, Note_on_c, 5, 58, 92
11, 33344, Note_on_c, 5, 46, 0
11, 33344, Note_on_c, 5, 58, 0
11, 33360, Note_on_c, 5, 46, 92
11, 33360, Note_on_c, 5, 58, 92
11, 33464, Note_on_c, 5, 46, 0
11, 33464, Note_on_c, 5, 58, 0
11, 33480, Note_on_c, 5, 58, 92
11, 33480, Note_on_c, 5, 46, 92
11, 33584, Note_on_c, 5, 58, 0
11, 33584, Note_on_c, 5, 46, 0
11, 33600, Note_on_c, 5, 58, 104
11, 33600, Note_on_c, 5, 46, 104
11, 33779, Note_on_c, 5, 58, 0
11, 33779, Note_on_c, 5, 46, 0
11, 33840, Note_on_c, 5, 58, 104
11, 33840, Note_on_c, 5, 46, 104
11, 34019, Note_on_c, 5, 58, 0
11, 34019, Note_on_c, 5, 46, 0
11, 34080, Note_on_c, 5, 60, 104
11, 34259, Note_on_c, 5, 60, 0
11, 34320, Note_on_c, 5, 60, 104
11, 34499, Note_on_c, 5, 60, 0
11, 34560, Note_on_c, 5, 60, 92
11, 34560, Control_c, 5, 11, 127
11, 34560, Note_on_c, 5, 53, 92
11, 34587, Control_c, 5, 11, 123
11, 34613, Control_c, 5, 11, 118
11, 34640, Control_c, 5, 11, 114
11, 34667, Control_c, 5, 11, 109
11, 34693, Control_c, 5, 11, 105
11, 34720, Control_c, 5, 11, 100
11, 34739, Note_on_c, 5, 60, 0
11, 34739, Note_on_c, 5, 53, 0
11, 34747, Control_c, 5, 11, 96
11, 34773, Control_c, 5, 11, 91
11, 34800, Control_c, 5, 11, 87
11, 34800, Note_on_c, 5, 41, 92
11, 34800, Note_on_c, 5, 53, 92
11, 34827, Control_c, 5, 11, 83
11, 34853, Control_c, 5, 11, 78
11, 34880, Control_c, 5, 11, 74
11, 34907, Control_c, 5, 11, 69
11, 34933, Control_c, 5, 11, 65
11, 34960, Control_c, 5, 11, 60
11, 34979, Note_on_c, 5, 41, 0
11, 34979, Note_on_c, 5, 53, 0
11, 35038, Control_c, 5, 11, 127
11, 35040, Note_on_c, 5, 60, 40
11, 35040, Note_on_c, 5, 53, 40
11, 35984, Note_on_c, 5, 60, 0
11, 35984, Note_on_c, 5, 53, 0
11, 36000, Note_on_c, 5, 58, 40
11, 36000, Note_on_c, 5, 62, 40
11, 36359, Note_on_c, 5, 58, 0
11, 36359, Note_on_c, 5, 62, 0
11, 36360, Note_on_c, 5, 63, 40
11, 36360, Note_on_c, 5, 60, 40
11, 36419, Note_on_c, 5, 63, 0
11, 36419, Note_on_c, 5, 60, 0
11, 36420, Note_on_c, 5, 65, 40
11, 36420, Note_on_c, 5, 62, 40
11, 36471, Note_on_c, 5, 65, 0
11, 36471, Note_on_c, 5, 62, 0
11, 36480, Note_on_c, 5, 65, 40
11, 36480, Note_on_c, 5, 62, 40
11, 36599, Note_on_c, 5, 65, 0
11, 36599, Note_on_c, 5, 62, 0
11, 36600, Note_on_c, 5, 60, 40
11, 36600, Note_on_c, 5, 63, 40
11, 36659, Note_on_c, 5, 60, 0
11, 36659, Note_on_c, 5, 63, 0
11, 36660, Note_on_c, 5, 58, 40
11, 36660, Note_on_c, 5, 62, 40
11, 36711, Note_on_c, 5, 58, 0
11, 36711, Note_on_c, 5, 62, 0
11, 36720, Note_on_c, 5, 58, 40
11, 36720, Note_on_c, 5, 62, 40
11, 36839, Note_on_c, 5, 58, 0
11, 36839, Note_on_c, 5, 62, 0
11, 36840, Note_on_c, 5, 60, 40
11, 36840, Note_on_c, 5, 53, 40
11, 36899, Note_on_c, 5, 60, 0
11, 36899, Note_on_c, 5, 53, 0
11, 36900, Note_on_c, 5, 58, 40
11, 36900, Note_on_c, 5, 50, 40
11, 36951, Note_on_c, 5, 58, 0
11, 36951, Note_on_c, 5, 50, 0
11, 36960, Note_on_c, 5, 53, 40
11, 36960, Note_on_c, 5, 60, 40
11, 37664, Note_on_c, 5, 53, 0
11, 37664, Note_on_c, 5, 60, 0
11, 37680, Note_on_c, 5, 41, 40
11, 37680, Note_on_c, 5, 53, 40
11, 38264, Note_on_c, 5, 41, 0
11, 38264, Note_on_c, 5, 53, 0
11, 38280, Note_on_c, 5, 53, 44
11, 38280, Note_on_c, 5, 41, 44
11, 38744, Note_on_c, 5, 53, 0
11, 38744, Note_on_c, 5, 41, 0
11, 38760, Note_on_c, 5, 41, 44
11, 38760, Note_on_c, 5, 53, 44
11, 39224, Note_on_c, 5, 41, 0
11, 39224, Note_on_c, 5, 53, 0
11, 39240, Note_on_c, 5, 53, 44
11, 39240, Note_on_c, 5, 41, 44
11, 39704, Note_on_c, 5, 53, 0
11, 39704, Note_on_c, 5, 41, 0
11, 39718, Control_c, 5, 11, 87
11, 39720, Note_on_c, 5, 53, 68
11, 39720, Note_on_c, 5, 41, 68
11, 39944, Note_on_c, 5, 53, 0
11, 39944, Note_on_c, 5, 41, 0
11, 39960, Control_c, 5, 11, 87
11, 39960, Note_on_c, 5, 53, 68
11, 39960, Note_on_c, 5, 41, 68
11, 39981, Control_c, 5, 11, 88
11, 40002, Control_c, 5, 11, 89
11, 40023, Control_c, 5, 11, 90
11, 40044, Control_c, 5, 11, 91
11, 40065, Control_c, 5, 11, 92
11, 40086, Control_c, 5, 11, 93
11, 40107, Control_c, 5, 11, 94
11, 40128, Control_c, 5, 11, 95
11, 40149, Control_c, 5, 11, 96
11, 40170, Control_c, 5, 11, 97
11, 40191, Control_c, 5, 11, 98
11, 40212, Control_c, 5, 11, 99
11, 40233, Control_c, 5, 11, 100
11, 40254, Control_c, 5, 11, 101
11, 40275, Control_c, 5, 11, 102
11, 40296, Control_c, 5, 11, 103
11, 40317, Control_c, 5, 11, 104
11, 40338, Control_c, 5, 11, 105
11, 40359, Control_c, 5, 11, 106
11, 40380, Control_c, 5, 11, 107
11, 40401, Control_c, 5, 11, 108
11, 40422, Control_c, 5, 11, 109
11, 40424, Note_on_c, 5, 53, 0
11, 40424, Note_on_c, 5, 41, 0
11, 40440, Note_on_c, 5, 53, 68
11, 40440, Note_on_c, 5, 41, 68
11, 40443, Control_c, 5, 11, 110
11, 40464, Control_c, 5, 11, 111
11, 40485, Control_c, 5, 11, 112
11, 40506, Control_c, 5, 11, 113
11, 40527, Control_c, 5, 11, 114
11, 40548, Control_c, 5, 11, 115
11, 40569, Control_c, 5, 11, 116
11, 40590, Control_c, 5, 11, 117
11, 40611, Control_c, 5, 11, 118
11, 40632, Control_c, 5, 11, 119
11, 40653, Control_c, 5, 11, 120
11, 40674, Control_c, 5, 11, 121
11, 40695, Control_c, 5, 11, 122
11, 40716, Control_c, 5, 11, 123
11, 40737, Control_c, 5, 11, 124
11, 40758, Control_c, 5, 11, 125
11, 40779, Control_c, 5, 11, 126
11, 40800, Control_c, 5, 11, 127
11, 40824, Control_c, 5, 11, 126
11, 40848, Control_c, 5, 11, 125
11, 40872, Control_c, 5, 11, 124
11, 40896, Control_c, 5, 11, 123
11, 40904, Note_on_c, 5, 53, 0
11, 40904, Note_on_c, 5, 41, 0
11, 40920, Note_on_c, 5, 41, 68
11, 40920, Control_c, 5, 11, 122
11, 40920, Note_on_c, 5, 53, 68
11, 40944, Control_c, 5, 11, 121
11, 40968, Control_c, 5, 11, 120
11, 40992, Control_c, 5, 11, 119
11, 41016, Control_c, 5, 11, 118
11, 41040, Control_c, 5, 11, 117
11, 41064, Control_c, 5, 11, 116
11, 41088, Control_c, 5, 11, 115
11, 41112, Control_c, 5, 11, 114
11, 41136, Control_c, 5, 11, 113
11, 41160, Control_c, 5, 11, 112
11, 41184, Control_c, 5, 11, 111
11, 41208, Control_c, 5, 11, 110
11, 41232, Control_c, 5, 11, 109
11, 41256, Control_c, 5, 11, 108
11, 41280, Control_c, 5, 11, 107
11, 41304, Control_c, 5, 11, 106
11, 41328, Control_c, 5, 11, 105
11, 41352, Control_c, 5, 11, 104
11, 41376, Control_c, 5, 11, 103
11, 41384, Note_on_c, 5, 41, 0
11, 41384, Note_on_c, 5, 53, 0
11, 41400, Note_on_c, 5, 53, 68
11, 41400, Note_on_c, 5, 41, 68
11, 41400, Control_c, 5, 11, 102
11, 41424, Control_c, 5, 11, 101
11, 41448, Control_c, 5, 11, 100
11, 41472, Control_c, 5, 11, 99
11, 41496, Control_c, 5, 11, 98
11, 41520, Control_c, 5, 11, 97
11, 41544, Control_c, 5, 11, 96
11, 41568, Control_c, 5, 11, 95
11, 41592, Control_c, 5, 11, 94
11, 41616, Control_c, 5, 11, 93
11, 41640, Control_c, 5, 11, 92
11, 41664, Control_c, 5, 11, 91
11, 41688, Control_c, 5, 11, 90
11, 41712, Control_c, 5, 11, 89
11, 41736, Control_c, 5, 11, 87
11, 41879, Note_on_c, 5, 53, 0
11, 41879, Note_on_c, 5, 41, 0
11, 43440, Control_c, 5, 11, 67
11, 43680, Note_on_c, 5, 58, 80
11, 43680, Note_on_c, 5, 46, 80
11, 43707, Control_c, 5, 11, 69
11, 43733, Control_c, 5, 11, 70
11, 43760, Control_c, 5, 11, 72
11, 43787, Control_c, 5, 11, 74
11, 43813, Control_c, 5, 11, 75
11, 43840, Control_c, 5, 11, 77
11, 43867, Control_c, 5, 11, 79
11, 43893, Control_c, 5, 11, 80
11, 43920, Control_c, 5, 11, 82
11, 43947, Control_c, 5, 11, 84
11, 43973, Control_c, 5, 11, 85
11, 44000, Control_c, 5, 11, 87
11, 44027, Control_c, 5, 11, 89
11, 44053, Control_c, 5, 11, 90
11, 44080, Control_c, 5, 11, 92
11, 44107, Control_c, 5, 11, 94
11, 44133, Control_c, 5, 11, 95
11, 44160, Control_c, 5, 11, 97
11, 44187, Control_c, 5, 11, 99
11, 44211, Note_on_c, 5, 58, 0
11, 44211, Note_on_c, 5, 46, 0
11, 44213, Control_c, 5, 11, 100
11, 44220, Note_on_c, 5, 58, 80
11, 44220, Note_on_c, 5, 46, 80
11, 44240, Control_c, 5, 11, 102
11, 44267, Control_c, 5, 11, 104
11, 44293, Control_c, 5, 11, 105
11, 44320, Control_c, 5, 11, 107
11, 44331, Note_on_c, 5, 58, 0
11, 44331, Note_on_c, 5, 46, 0
11, 44340, Note_on_c, 5, 46, 80
11, 44340, Note_on_c, 5, 58, 80
11, 44347, Control_c, 5, 11, 109
11, 44373, Control_c, 5, 11, 110
11, 44400, Control_c, 5, 11, 112
11, 44427, Control_c, 5, 11, 114
11, 44451, Note_on_c, 5, 46, 0
11, 44451, Note_on_c, 5, 58, 0
11, 44453, Control_c, 5, 11, 115
11, 44460, Note_on_c, 5, 46, 80
11, 44460, Note_on_c, 5, 58, 80
11, 44480, Control_c, 5, 11, 117
11, 44507, Control_c, 5, 11, 119
11, 44533, Control_c, 5, 11, 120
11, 44560, Control_c, 5, 11, 122
11, 44571, Note_on_c, 5, 46, 0
11, 44571, Note_on_c, 5, 58, 0
11, 44580, Note_on_c, 5, 46, 80
11, 44580, Note_on_c, 5, 58, 80
11, 44587, Control_c, 5, 11, 124
11, 44613, Control_c, 5, 11, 127
11, 44639, Note_on_c, 5, 46, 0
11, 44639, Note_on_c, 5, 58, 0
11, 44640, Note_on_c, 5, 46, 80
11, 44640, Note_on_c, 5, 58, 80
11, 44691, Note_on_c, 5, 46, 0
11, 44691, Note_on_c, 5, 58, 0
11, 44700, Note_on_c, 5, 58, 80
11, 44700, Note_on_c, 5, 46, 80
11, 44811, Note_on_c, 5, 58, 0
11, 44811, Note_on_c, 5, 46, 0
11, 44820, Note_on_c, 5, 46, 80
11, 44820, Note_on_c, 5, 58, 80
11, 44931, Note_on_c, 5, 46, 0
11, 44931, Note_on_c, 5, 58, 0
11, 44940, Note_on_c, 5, 46, 80
11, 44940, Note_on_c, 5, 58, 80
11, 45051, Note_on_c, 5, 46, 0
11, 45051, Note_on_c, 5, 58, 0
11, 45060, Note_on_c, 5, 46, 80
11, 45060, Note_on_c, 5, 58, 80
11, 45111, Note_on_c, 5, 46, 0
11, 45111, Note_on_c, 5, 58, 0
11, 45120, Note_on_c, 5, 62, 80
11, 45120, Note_on_c, 5, 58, 80
11, 45209, Note_on_c, 5, 62, 0
11, 45209, Note_on_c, 5, 58, 0
11, 45360, Note_on_c, 5, 60, 80
11, 45360, Note_on_c, 5, 53, 80
11, 45449, Note_on_c, 5, 60, 0
11, 45449, Note_on_c, 5, 53, 0
11, 45600, Note_on_c, 5, 46, 44
11, 45600, Note_on_c, 5, 58, 44
11, 46131, Note_on_c, 5, 46, 0
11, 46131, Note_on_c, 5, 58, 0
11, 46140, Note_on_c, 5, 46, 44
11, 46140, Note_on_c, 5, 58, 44
11, 46251, Note_on_c, 5, 46, 0
11, 46251, Note_on_c, 5, 58, 0
11, 46260, Note_on_c, 5, 46, 44
11, 46260, Note_on_c, 5, 58, 44
11, 46371, Note_on_c, 5, 46, 0
11, 46371, Note_on_c, 5, 58, 0
11, 46380, Note_on_c, 5, 46, 44
11, 46380, Note_on_c, 5, 58, 44
11, 46491, Note_on_c, 5, 46, 0
11, 46491, Note_on_c, 5, 58, 0
11, 46500, Note_on_c, 5, 46, 44
11, 46500, Note_on_c, 5, 58, 44
11, 46679, Note_on_c, 5, 46, 0
11, 46679, Note_on_c, 5, 58, 0
11, 47520, Note_on_c, 5, 41, 56
11, 47520, Note_on_c, 5, 53, 56
11, 47571, Note_on_c, 5, 41, 0
11, 47571, Note_on_c, 5, 53, 0
11, 47580, Note_on_c, 5, 53, 58
11, 47580, Note_on_c, 5, 41, 58
11, 47691, Note_on_c, 5, 53, 0
11, 47691, Note_on_c, 5, 41, 0
11, 47700, Note_on_c, 5, 41, 62
11, 47700, Note_on_c, 5, 53, 62
11, 47811, Note_on_c, 5, 41, 0
11, 47811, Note_on_c, 5, 53, 0
11, 47820, Note_on_c, 5, 41, 67
11, 47820, Note_on_c, 5, 53, 67
11, 47931, Note_on_c, 5, 41, 0
11, 47931, Note_on_c, 5, 53, 0
11, 47940, Note_on_c, 5, 41, 71
11, 47940, Note_on_c, 5, 53, 71
11, 47999, Note_on_c, 5, 41, 0
11, 47999, Note_on_c, 5, 53, 0
11, 48000, Note_on_c, 5, 41, 74
11, 48000, Note_on_c, 5, 53, 74
11, 48051, Note_on_c, 5, 41, 0
11, 48051, Note_on_c, 5, 53, 0
11, 48060, Note_on_c, 5, 41, 76
11, 48060, Note_on_c, 5, 53, 76
11, 48171, Note_on_c, 5, 41, 0
11, 48171, Note_on_c, 5, 53, 0
11, 48180, Note_on_c, 5, 41, 80
11, 48180, Note_on_c, 5, 53, 80
11, 48291, Note_on_c, 5, 41, 0
11, 48291, Note_on_c, 5, 53, 0
11, 48300, Note_on_c, 5, 53, 85
11, 48300, Note_on_c, 5, 41, 85
11, 48411, Note_on_c, 5, 53, 0
11, 48411, Note_on_c, 5, 41, 0
11, 48420, Note_on_c, 5, 41, 89
11, 48420, Note_on_c, 5, 53, 89
11, 48464, Note_on_c, 5, 41, 0
11, 48464, Note_on_c, 5, 53, 0
11, 48480, Note_on_c, 5, 58, 92
11, 48480, Note_on_c, 5, 46, 92
11, 48569, Note_on_c, 5, 58, 0
11, 48569, Note_on_c, 5, 46, 0
11, 48600, Note_on_c, 5, 46, 92
11, 48600, Note_on_c, 5, 58, 92
11, 48666, Note_on_c, 5, 46, 0
11, 48666, Note_on_c, 5, 58, 0
11, 48690, Note_on_c, 5, 58, 92
11, 48690, Note_on_c, 5, 46, 92
11, 48711, Note_on_c, 5, 58, 0
11, 48711, Note_on_c, 5, 46, 0
11, 48720, Note_on_c, 5, 46, 92
11, 48720, Note_on_c, 5, 58, 92
11, 48839, Note_on_c, 5, 46, 0
11, 48839, Note_on_c, 5, 58, 0
11, 48960, Note_on_c, 5, 58, 92
11, 48960, Note_on_c, 5, 46, 92
11, 49049, Note_on_c, 5, 58, 0
11, 49049, Note_on_c, 5, 46, 0
11, 49080, Note_on_c, 5, 46, 92
11, 49080, Note_on_c, 5, 58, 92
11, 49146, Note_on_c, 5, 46, 0
11, 49146, Note_on_c, 5, 58, 0
11, 49170, Note_on_c, 5, 46, 92
11, 49170, Note_on_c, 5, 58, 92
11, 49191, Note_on_c, 5, 46, 0
11, 49191, Note_on_c, 5, 58, 0
11, 49200, Note_on_c, 5, 58, 92
11, 49200, Note_on_c, 5, 46, 92
11, 49319, Note_on_c, 5, 58, 0
11, 49319, Note_on_c, 5, 46, 0
11, 50400, Note_on_c, 5, 46, 92
11, 50400, Note_on_c, 5, 58, 92
11, 50489, Note_on_c, 5, 46, 0
11, 50489, Note_on_c, 5, 58, 0
11, 50520, Note_on_c, 5, 58, 92
11, 50520, Note_on_c, 5, 46, 92
11, 50586, Note_on_c, 5, 58, 0
11, 50586, Note_on_c, 5, 46, 0
11, 50610, Note_on_c, 5, 58, 92
11, 50610, Note_on_c, 5, 46, 92
11, 50631, Note_on_c, 5, 58, 0
11, 50631, Note_on_c, 5, 46, 0
11, 50640, Note_on_c, 5, 46, 92
11, 50640, Note_on_c, 5, 58, 92
11, 50759, Note_on_c, 5, 46, 0
11, 50759, Note_on_c, 5, 58, 0
11, 50880, Note_on_c, 5, 58, 92
11, 50880, Note_on_c, 5, 46, 92
11, 50969, Note_on_c, 5, 58, 0
11, 50969, Note_on_c, 5, 46, 0
11, 51000, Note_on_c, 5, 58, 92
11, 51000, Note_on_c, 5, 46, 92
11, 51066, Note_on_c, 5, 58, 0
11, 51066, Note_on_c, 5, 46, 0
11, 51090, Note_on_c, 5, 58, 92
11, 51090, Note_on_c, 5, 46, 92
11, 51111, Note_on_c, 5, 58, 0
11, 51111, Note_on_c, 5, 46, 0
11, 51120, Note_on_c, 5, 58, 92
11, 51120, Note_on_c, 5, 46, 92
11, 51239, Note_on_c, 5, 58, 0
11, 51239, Note_on_c, 5, 46, 0
11, 55560, Note_on_c, 5, 65, 32
11, 55560, Note_on_c, 5, 53, 32
11, 55679, Note_on_c, 5, 65, 0
11, 55679, Note_on_c, 5, 53, 0
11, 55800, Note_on_c, 5, 58, 32
11, 55800, Note_on_c, 5, 46, 32
11, 55919, Note_on_c, 5, 58, 0
11, 55919, Note_on_c, 5, 46, 0
11, 56040, Note_on_c, 5, 53, 32
11, 56040, Note_on_c, 5, 65, 32
11, 56159, Note_on_c, 5, 53, 0
11, 56159, Note_on_c, 5, 65, 0
11, 56280, Note_on_c, 5, 58, 32
11, 56280, Note_on_c, 5, 46, 32
11, 56399, Note_on_c, 5, 58, 0
11, 56399, Note_on_c, 5, 46, 0
11, 56520, Note_on_c, 5, 46, 32
11, 56520, Note_on_c, 5, 58, 32
11, 56639, Note_on_c, 5, 46, 0
11, 56639, Note_on_c, 5, 58, 0
11, 56760, Note_on_c, 5, 46, 32
11, 56760, Note_on_c, 5, 58, 32
11, 56879, Note_on_c, 5, 46, 0
11, 56879, Note_on_c, 5, 58, 0
11, 57000, Note_on_c, 5, 63, 32
11, 57104, Note_on_c, 5, 63, 0
11, 57120, Note_on_c, 5, 60, 32
11, 57240, Note_on_c, 5, 53, 32
11, 58064, Note_on_c, 5, 60, 0
11, 58080, Note_on_c, 5, 62, 32
11, 58319, Note_on_c, 5, 53, 0
11, 58320, Note_on_c, 5, 58, 32
11, 58919, Note_on_c, 5, 58, 0
11, 58920, Note_on_c, 5, 53, 32
11, 59024, Note_on_c, 5, 62, 0
11, 59024, Note_on_c, 5, 53, 0
11, 59038, Control_c, 5, 11, 47
11, 59040, Control_c, 5, 11, 47
11, 59040, Note_on_c, 5, 53, 80
11, 59040, Note_on_c, 5, 60, 80
11, 59088, Control_c, 5, 11, 48
11, 59136, Control_c, 5, 11, 49
11, 59184, Control_c, 5, 11, 50
11, 59232, Control_c, 5, 11, 51
11, 59280, Control_c, 5, 11, 52
11, 59328, Control_c, 5, 11, 53
11, 59376, Control_c, 5, 11, 54
11, 59424, Control_c, 5, 11, 55
11, 59472, Control_c, 5, 11, 56
11, 59520, Control_c, 5, 11, 57
11, 59568, Control_c, 5, 11, 58
11, 59616, Control_c, 5, 11, 59
11, 59664, Control_c, 5, 11, 60
11, 59712, Control_c, 5, 11, 61
11, 59760, Control_c, 5, 11, 62
11, 59808, Control_c, 5, 11, 63
11, 59856, Control_c, 5, 11, 64
11, 59904, Control_c, 5, 11, 65
11, 59952, Control_c, 5, 11, 66
11, 59984, Note_on_c, 5, 60, 0
11, 60000, Note_on_c, 5, 58, 80
11, 60000, Control_c, 5, 11, 67
11, 60048, Control_c, 5, 11, 68
11, 60096, Control_c, 5, 11, 69
11, 60144, Control_c, 5, 11, 70
11, 60192, Control_c, 5, 11, 71
11, 60240, Control_c, 5, 11, 72
11, 60288, Control_c, 5, 11, 73
11, 60336, Control_c, 5, 11, 74
11, 60384, Control_c, 5, 11, 75
11, 60432, Control_c, 5, 11, 76
11, 60480, Control_c, 5, 11, 77
11, 60528, Control_c, 5, 11, 78
11, 60576, Control_c, 5, 11, 79
11, 60624, Control_c, 5, 11, 80
11, 60672, Control_c, 5, 11, 81
11, 60720, Control_c, 5, 11, 82
11, 60768, Control_c, 5, 11, 83
11, 60816, Control_c, 5, 11, 84
11, 60864, Control_c, 5, 11, 85
11, 60912, Control_c, 5, 11, 86
11, 60944, Note_on_c, 5, 58, 0
11, 60959, Note_on_c, 5, 53, 0
11, 60960, Control_c, 5, 11, 87
11, 60960, Note_on_c, 5, 53, 80
11, 60960, Note_on_c, 5, 60, 80
11, 61008, Control_c, 5, 11, 88
11, 61056, Control_c, 5, 11, 89
11, 61104, Control_c, 5, 11, 90
11, 61152, Control_c, 5, 11, 91
11, 61200, Control_c, 5, 11, 92
11, 61248, Control_c, 5, 11, 93
11, 61296, Control_c, 5, 11, 94
11, 61344, Control_c, 5, 11, 95
11, 61392, Control_c, 5, 11, 96
11, 61424, Note_on_c, 5, 60, 0
11, 61440, Control_c, 5, 11, 97
11, 61440, Note_on_c, 5, 58, 80
11, 61488, Control_c, 5, 11, 98
11, 61536, Control_c, 5, 11, 99
11, 61584, Control_c, 5, 11, 100
11, 61632, Control_c, 5, 11, 101
11, 61680, Control_c, 5, 11, 102
11, 61728, Control_c, 5, 11, 103
11, 61776, Control_c, 5, 11, 104
11, 61824, Control_c, 5, 11, 105
11, 61872, Control_c, 5, 11, 106
11, 61904, Note_on_c, 5, 53, 0
11, 61904, Note_on_c, 5, 58, 0
11, 61920, Note_on_c, 5, 60, 80
11, 61920, Control_c, 5, 11, 107
11, 61920, Note_on_c, 5, 53, 80
11, 61968, Control_c, 5, 11, 108
11, 61971, Note_on_c, 5, 60, 0
11, 61971, Note_on_c, 5, 53, 0
11, 61980, Note_on_c, 5, 60, 80
11, 61980, Note_on_c, 5, 53, 80
11, 62016, Control_c, 5, 11, 109
11, 62064, Control_c, 5, 11, 110
11, 62091, Note_on_c, 5, 60, 0
11, 62091, Note_on_c, 5, 53, 0
11, 62100, Note_on_c, 5, 60, 80
11, 62100, Note_on_c, 5, 53, 80
11, 62112, Control_c, 5, 11, 111
11, 62160, Control_c, 5, 11, 112
11, 62208, Control_c, 5, 11, 113
11, 62211, Note_on_c, 5, 60, 0
11, 62211, Note_on_c, 5, 53, 0
11, 62220, Note_on_c, 5, 53, 80
11, 62220, Note_on_c, 5, 60, 80
11, 62256, Control_c, 5, 11, 114
11, 62279, Note_on_c, 5, 60, 0
11, 62280, Note_on_c, 5, 62, 80
11, 62304, Control_c, 5, 11, 115
11, 62331, Note_on_c, 5, 53, 0
11, 62331, Note_on_c, 5, 62, 0
11, 62340, Note_on_c, 5, 62, 80
11, 62340, Note_on_c, 5, 53, 80
11, 62352, Control_c, 5, 11, 116
11, 62399, Note_on_c, 5, 62, 0
11, 62399, Note_on_c, 5, 53, 0
11, 62400, Note_on_c, 5, 53, 80
11, 62400, Control_c, 5, 11, 117
11, 62400, Note_on_c, 5, 60, 80
11, 62448, Control_c, 5, 11, 118
11, 62451, Note_on_c, 5, 53, 0
11, 62451, Note_on_c, 5, 60, 0
11, 62460, Note_on_c, 5, 60, 80
11, 62460, Note_on_c, 5, 53, 80
11, 62496, Control_c, 5, 11, 119
11, 62544, Control_c, 5, 11, 120
11, 62571, Note_on_c, 5, 60, 0
11, 62571, Note_on_c, 5, 53, 0
11, 62580, Note_on_c, 5, 53, 80
11, 62580, Note_on_c, 5, 60, 80
11, 62592, Control_c, 5, 11, 121
11, 62640, Control_c, 5, 11, 122
11, 62688, Control_c, 5, 11, 123
11, 62691, Note_on_c, 5, 53, 0
11, 62691, Note_on_c, 5, 60, 0
11, 62700, Note_on_c, 5, 53, 80
11, 62700, Note_on_c, 5, 60, 80
11, 62736, Control_c, 5, 11, 124
11, 62759, Note_on_c, 5, 60, 0
11, 62760, Note_on_c, 5, 62, 80
11, 62784, Control_c, 5, 11, 125
11, 62811, Note_on_c, 5, 53, 0
11, 62811, Note_on_c, 5, 62, 0
11, 62820, Note_on_c, 5, 62, 80
11, 62820, Note_on_c, 5, 53, 80
11, 62832, Control_c, 5, 11, 127
11, 62879, Note_on_c, 5, 62, 0
11, 62879, Note_on_c, 5, 53, 0
11, 62880, Note_on_c, 5, 65, 80
11, 62880, Note_on_c, 5, 53, 80
11, 62984, Note_on_c, 5, 65, 0
11, 62984, Note_on_c, 5, 53, 0
11, 63000, Note_on_c, 5, 41, 92
11, 63000, Note_on_c, 5, 53, 92
11, 63060, Control_c, 5, 11, 107
11, 63224, Note_on_c, 5, 41, 0
11, 63224, Note_on_c, 5, 53, 0
11, 63240, Note_on_c, 5, 53, 92
11, 63240, Note_on_c, 5, 65, 92
11, 63464, Note_on_c, 5, 53, 0
11, 63464, Note_on_c, 5, 65, 0
11, 63478, Control_c, 5, 11, 127
11, 63480, Note_on_c, 5, 41, 92
11, 63480, Note_on_c, 5, 53, 92
11, 63540, Control_c, 5, 11, 107
11, 63704, Note_on_c, 5, 41, 0
11, 63704, Note_on_c, 5, 53, 0
11, 63720, Note_on_c, 5, 58, 92
11, 63720, Note_on_c, 5, 46, 92
11, 63944, Note_on_c, 5, 58, 0
11, 63944, Note_on_c, 5, 46, 0
11, 63958, Control_c, 5, 11, 127
11, 63960, Note_on_c, 5, 46, 92
11, 64020, Control_c, 5, 11, 107
11, 64184, Note_on_c, 5, 46, 0
11, 64200, Note_on_c, 5, 46, 92
11, 64200, Note_on_c, 5, 58, 92
11, 64424, Note_on_c, 5, 46, 0
11, 64424, Note_on_c, 5, 58, 0
11, 64438, Control_c, 5, 11, 127
11, 64440, Note_on_c, 5, 46, 92
11, 64440, Note_on_c, 5, 58, 92
11, 64500, Control_c, 5, 11, 107
11, 64664, Note_on_c, 5, 46, 0
11, 64664, Note_on_c, 5, 58, 0
11, 64680, Note_on_c, 5, 58, 92
11, 64680, Note_on_c, 5, 46, 92
11, 64904, Note_on_c, 5, 58, 0
11, 64904, Note_on_c, 5, 46, 0
11, 64918, Control_c, 5, 11, 127
11, 64920, Note_on_c, 5, 46, 92
11, 64980, Control_c, 5, 11, 107
11, 65144, Note_on_c, 5, 46, 0
11, 65160, Note_on_c, 5, 58, 92
11, 65160, Note_on_c, 5, 46, 92
11, 65264, Note_on_c, 5, 58, 0
11, 65264, Note_on_c, 5, 46, 0
11, 65280, Note_on_c, 5, 53, 92
11, 65280, Note_on_c, 5, 60, 92
11, 65384, Note_on_c, 5, 53, 0
11, 65384, Note_on_c, 5, 60, 0
11, 65398, Control_c, 5, 11, 127
11, 65400, Note_on_c, 5, 41, 92
11, 65400, Note_on_c, 5, 53, 92
11, 65460, Control_c, 5, 11, 107
11, 65624, Note_on_c, 5, 41, 0
11, 65624, Note_on_c, 5, 53, 0
11, 65638, Control_c, 5, 11, 127
11, 65640, Note_on_c, 5, 53, 80
11, 65640, Note_on_c, 5, 41, 80
11, 65759, Note_on_c, 5, 53, 0
11, 65759, Note_on_c, 5, 41, 0
11, 65760, Note_on_c, 5, 53, 92
11, 65760, Note_on_c, 5, 65, 92
11, 65864, Note_on_c, 5, 53, 0
11, 65864, Note_on_c, 5, 65, 0
11, 65880, Note_on_c, 5, 46, 44
11, 65880, Note_on_c, 5, 58, 44
11, 65999, Note_on_c, 5, 46, 0
11, 65999, Note_on_c, 5, 58, 0
11, 66210, Note_on_c, 5, 58, 44
11, 66210, Note_on_c, 5, 46, 44
11, 66231, Note_on_c, 5, 58, 0
11, 66231, Note_on_c, 5, 46, 0
11, 66240, Note_on_c, 5, 58, 44
11, 66240, Note_on_c, 5, 46, 44
11, 66359, Note_on_c, 5, 58, 0
11, 66359, Note_on_c, 5, 46, 0
11, 66450, Note_on_c, 5, 46, 44
11, 66450, Note_on_c, 5, 58, 44
11, 66471, Note_on_c, 5, 46, 0
11, 66471, Note_on_c, 5, 58, 0
11, 66480, Note_on_c, 5, 58, 44
11, 66480, Note_on_c, 5, 46, 44
11, 66584, Note_on_c, 5, 58, 0
11, 66584, Note_on_c, 5, 46, 0
11, 66600, Note_on_c, 5, 46, 92
11, 66600, Note_on_c, 5, 58, 92
11, 66681, Note_on_c, 5, 46, 0
11, 66681, Note_on_c, 5, 58, 0
11, 66690, Note_on_c, 5, 58, 92
11, 66690, Note_on_c, 5, 46, 92
11, 66711, Note_on_c, 5, 58, 0
11, 66711, Note_on_c, 5, 46, 0
11, 66720, Note_on_c, 5, 58, 92
11, 66720, Note_on_c, 5, 46, 92
11, 66824, Note_on_c, 5, 58, 0
11, 66824, Note_on_c, 5, 46, 0
11, 66840, Note_on_c, 5, 46, 44
11, 66840, Note_on_c, 5, 58, 44
11, 66959, Note_on_c, 5, 46, 0
11, 66959, Note_on_c, 5, 58, 0
11, 67170, Note_on_c, 5, 46, 44
11, 67170, Note_on_c, 5, 58, 44
11, 67191, Note_on_c, 5, 46, 0
11, 67191, Note_on_c, 5, 58, 0
11, 67200, Note_on_c, 5, 58, 44
11, 67200, Note_on_c, 5, 46, 44
11, 67319, Note_on_c, 5, 58, 0
11, 67319, Note_on_c, 5, 46, 0
11, 67410, Note_on_c, 5, 46, 44
11, 67410, Note_on_c, 5, 58, 44
11, 67431, Note_on_c, 5, 46, 0
11, 67431, Note_on_c, 5, 58, 0
11, 67440, Note_on_c, 5, 46, 44
11, 67440, Note_on_c, 5, 58, 44
11, 67544, Note_on_c, 5, 46, 0
11, 67544, Note_on_c, 5, 58, 0
11, 67560, Note_on_c, 5, 58, 92
11, 67560, Note_on_c, 5, 46, 92
11, 67641, Note_on_c, 5, 58, 0
11, 67641, Note_on_c, 5, 46, 0
11, 67650, Note_on_c, 5, 58, 92
11, 67650, Note_on_c, 5, 46, 92
11, 67671, Note_on_c, 5, 58, 0
11, 67671, Note_on_c, 5, 46, 0
11, 67680, Note_on_c, 5, 46, 92
11, 67680, Note_on_c, 5, 58, 92
11, 67784, Note_on_c, 5, 46, 0
11, 67784, Note_on_c, 5, 58, 0
11, 67800, Note_on_c, 5, 58, 44
11, 67800, Note_on_c, 5, 46, 44
11, 67919, Note_on_c, 5, 58, 0
11, 67919, Note_on_c, 5, 46, 0
11, 68130, Note_on_c, 5, 58, 44
11, 68130, Note_on_c, 5, 46, 44
11, 68151, Note_on_c, 5, 58, 0
11, 68151, Note_on_c, 5, 46, 0
11, 68160, Note_on_c, 5, 58, 44
11, 68160, Note_on_c, 5, 46, 44
11, 68279, Note_on_c, 5, 58, 0
11, 68279, Note_on_c, 5, 46, 0
11, 68370, Note_on_c, 5, 58, 44
11, 68370, Note_on_c, 5, 46, 44
11, 68391, Note_on_c, 5, 58, 0
11, 68391, Note_on_c, 5, 46, 0
11, 68400, Note_on_c, 5, 58, 44
11, 68400, Note_on_c, 5, 46, 44
11, 68504, Note_on_c, 5, 58, 0
11, 68504, Note_on_c, 5, 46, 0
11, 68520, Note_on_c, 5, 46, 92
11, 68520, Note_on_c, 5, 58, 92
11, 68601, Note_on_c, 5, 46, 0
11, 68601, Note_on_c, 5, 58, 0
11, 68610, Note_on_c, 5, 58, 92
11, 68610, Note_on_c, 5, 46, 92
11, 68631, Note_on_c, 5, 58, 0
11, 68631, Note_on_c, 5, 46, 0
11, 68640, Note_on_c, 5, 58, 92
11, 68640, Note_on_c, 5, 46, 92
11, 68744, Note_on_c, 5, 58, 0
11, 68744, Note_on_c, 5, 46, 0
11, 68760, Note_on_c, 5, 46, 44
11, 68760, Note_on_c, 5, 58, 44
11, 68879, Note_on_c, 5, 46, 0
11, 68879, Note_on_c, 5, 58, 0
11, 69600, Note_on_c, 5, 58, 80
11, 69600, Note_on_c, 5, 46, 80
11, 69704, Note_on_c, 5, 58, 0
11, 69704, Note_on_c, 5, 46, 0
11, 69720, Note_on_c, 5, 46, 80
11, 69720, Note_on_c, 5, 58, 80
11, 69779, Note_on_c, 5, 46, 0
11, 69779, Note_on_c, 5, 58, 0
11, 69840, Note_on_c, 5, 46, 80
11, 69840, Note_on_c, 5, 58, 80
11, 69944, Note_on_c, 5, 46, 0
11, 69944, Note_on_c, 5, 58, 0
11, 69960, Note_on_c, 5, 46, 80
11, 69960, Note_on_c, 5, 58, 80
11, 70019, Note_on_c, 5, 46, 0
11, 70019, Note_on_c, 5, 58, 0
11, 70080, Note_on_c, 5, 46, 80
11, 70080, Note_on_c, 5, 58, 80
11, 70184, Note_on_c, 5, 46, 0
11, 70184, Note_on_c, 5, 58, 0
11, 70200, Note_on_c, 5, 58, 80
11, 70200, Note_on_c, 5, 46, 80
11, 70259, Note_on_c, 5, 58, 0
11, 70259, Note_on_c, 5, 46, 0
11, 70320, Note_on_c, 5, 58, 92
11, 70320, Note_on_c, 5, 62, 92
11, 70439, Note_on_c, 5, 58, 0
11, 70439, Note_on_c, 5, 62, 0
11, 70440, Note_on_c, 5, 60, 92
11, 70440, Note_on_c, 5, 63, 92
11, 70499, Note_on_c, 5, 60, 0
11, 70499, Note_on_c, 5, 63, 0
11, 70500, Note_on_c, 5, 53, 92
11, 70500, Note_on_c, 5, 60, 92
11, 70551, Note_on_c, 5, 53, 0
11, 70551, Note_on_c, 5, 60, 0
11, 70560, Note_on_c, 5, 58, 80
11, 70560, Note_on_c, 5, 46, 80
11, 70664, Note_on_c, 5, 58, 0
11, 70664, Note_on_c, 5, 46, 0
11, 70680, Note_on_c, 5, 58, 80
11, 70680, Note_on_c, 5, 46, 80
11, 70739, Note_on_c, 5, 58, 0
11, 70739, Note_on_c, 5, 46, 0
11, 70800, Note_on_c, 5, 46, 80
11, 70800, Note_on_c, 5, 58, 80
11, 70904, Note_on_c, 5, 46, 0
11, 70904, Note_on_c, 5, 58, 0
11, 70920, Note_on_c, 5, 46, 80
11, 70920, Note_on_c, 5, 58, 80
11, 70979, Note_on_c, 5, 46, 0
11, 70979, Note_on_c, 5, 58, 0
11, 71040, Note_on_c, 5, 58, 80
11, 71040, Note_on_c, 5, 46, 80
11, 71144, Note_on_c, 5, 58, 0
11, 71144, Note_on_c, 5, 46, 0
11, 71160, Note_on_c, 5, 58, 80
11, 71160, Note_on_c, 5, 46, 80
11, 71219, Note_on_c, 5, 58, 0
11, 71219, Note_on_c, 5, 46, 0
11, 71280, Note_on_c, 5, 62, 92
11, 71280, Note_on_c, 5, 58, 92
11, 71399, Note_on_c, 5, 62, 0
11, 71399, Note_on_c, 5, 58, 0
11, 71400, Note_on_c, 5, 63, 92
11, 71400, Note_on_c, 5, 60, 92
11, 71459, Note_on_c, 5, 63, 0
11, 71459, Note_on_c, 5, 60, 0
11, 71460, Note_on_c, 5, 53, 92
11, 71460, Note_on_c, 5, 60, 92
11, 71511, Note_on_c, 5, 53, 0
11, 71511, Note_on_c, 5, 60, 0
11, 71520, Note_on_c, 5, 58, 92
11, 71520, Note_on_c, 5, 46, 92
11, 71864, Note_on_c, 5, 58, 0
11, 71864, Note_on_c, 5, 46, 0
11, 71880, Note_on_c, 5, 46, 92
11, 71880, Note_on_c, 5, 58, 92
11, 71961, Note_on_c, 5, 46, 0
11, 71961, Note_on_c, 5, 58, 0
11, 71970, Note_on_c, 5, 46, 92
11, 71970, Note_on_c, 5, 58, 92
11, 71991, Note_on_c, 5, 46, 0
11, 71991, Note_on_c, 5, 58, 0
11, 72000, Note_on_c, 5, 62, 104
11, 72000, Note_on_c, 5, 50, 104
11, 72060, Control_c, 5, 11, 107
11, 72344, Note_on_c, 5, 62, 0
11, 72344, Note_on_c, 5, 50, 0
11, 72360, Note_on_c, 5, 62, 104
11, 72360, Note_on_c, 5, 50, 104
11, 72441, Note_on_c, 5, 62, 0
11, 72441, Note_on_c, 5, 50, 0
11, 72450, Note_on_c, 5, 62, 104
11, 72450, Note_on_c, 5, 50, 104
11, 72471, Note_on_c, 5, 62, 0
11, 72471, Note_on_c, 5, 50, 0
11, 72478, Control_c, 5, 11, 127
11, 72480, Note_on_c, 5, 65, 104
11, 72480, Note_on_c, 5, 53, 104
11, 72540, Control_c, 5, 11, 107
11, 72824, Note_on_c, 5, 65, 0
11, 72824, Note_on_c, 5, 53, 0
11, 72840, Note_on_c, 5, 65, 104
11, 72840, Note_on_c, 5, 53, 104
11, 72921, Note_on_c, 5, 65, 0
11, 72921, Note_on_c, 5, 53, 0
11, 72930, Note_on_c, 5, 65, 104
11, 72930, Note_on_c, 5, 53, 104
11, 72951, Note_on_c, 5, 65, 0
11, 72951, Note_on_c, 5, 53, 0
11, 72958, Control_c, 5, 11, 127
11, 72960, Note_on_c, 5, 46, 92
11, 72960, Note_on_c, 5, 58, 92
11, 73064, Note_on_c, 5, 46, 0
11, 73064, Note_on_c, 5, 58, 0
11, 73080, Note_on_c, 5, 46, 92
11, 73080, Note_on_c, 5, 58, 92
11, 73161, Note_on_c, 5, 46, 0
11, 73161, Note_on_c, 5, 58, 0
11, 73170, Note_on_c, 5, 58, 92
11, 73170, Note_on_c, 5, 46, 92
11, 73191, Note_on_c, 5, 58, 0
11, 73191, Note_on_c, 5, 46, 0
11, 73200, Note_on_c, 5, 62, 92
11, 73200, Note_on_c, 5, 50, 92
11, 73304, Note_on_c, 5, 62, 0
11, 73304, Note_on_c, 5, 50, 0
11, 73320, Note_on_c, 5, 62, 92
11, 73320, Note_on_c, 5, 50, 92
11, 73401, Note_on_c, 5, 62, 0
11, 73401, Note_on_c, 5, 50, 0
11, 73410, Note_on_c, 5, 50, 92
11, 73410, Note_on_c, 5, 62, 92
11, 73431, Note_on_c, 5, 50, 0
11, 73431, Note_on_c, 5, 62, 0
11, 73440, Note_on_c, 5, 53, 80
11, 73440, Note_on_c, 5, 65, 80
11, 73529, Note_on_c, 5, 53, 0
11, 73529, Note_on_c, 5, 65, 0
11, 73560, Note_on_c, 5, 46, 80
11, 73560, Note_on_c, 5, 58, 80
11, 73641, Note_on_c, 5, 46, 0
11, 73641, Note_on_c, 5, 58, 0
11, 73650, Note_on_c, 5, 58, 80
11, 73650, Note_on_c, 5, 46, 80
11, 73671, Note_on_c, 5, 58, 0
11, 73671, Note_on_c, 5, 46, 0
11, 73680, Note_on_c, 5, 62, 80
11, 73680, Note_on_c, 5, 50, 80
11, 73769, Note_on_c, 5, 62, 0
11, 73769, Note_on_c, 5, 50, 0
11, 73800, Note_on_c, 5, 53, 80
11, 73800, Note_on_c, 5, 41, 80
11, 73881, Note_on_c, 5, 53, 0
11, 73881, Note_on_c, 5, 41, 0
11, 73890, Note_on_c, 5, 53, 80
11, 73890, Note_on_c, 5, 41, 80
11, 73911, Note_on_c, 5, 53, 0
11, 73911, Note_on_c, 5, 41, 0
11, 73920, Note_on_c, 5, 58, 80
11, 73920, Note_on_c, 5, 46, 80
11, 74009, Note_on_c, 5, 58, 0
11, 74009, Note_on_c, 5, 46, 0
11, 74040, Note_on_c, 5, 50, 80
11, 74040, Note_on_c, 5, 62, 80
11, 74121, Note_on_c, 5, 50, 0
11, 74121, Note_on_c, 5, 62, 0
11, 74130, Note_on_c, 5, 50, 80
11, 74130, Note_on_c, 5, 62, 80
11, 74151, Note_on_c, 5, 50, 0
11, 74151, Note_on_c, 5, 62, 0
11, 74160, Note_on_c, 5, 53, 80
11, 74160, Note_on_c, 5, 65, 80
11, 74249, Note_on_c, 5, 53, 0
11, 74249, Note_on_c, 5, 65, 0
11, 74280, Note_on_c, 5, 58, 80
11, 74280, Note_on_c, 5, 46, 80
11, 74361, Note_on_c, 5, 58, 0
11, 74361, Note_on_c, 5, 46, 0
11, 74370, Note_on_c, 5, 58, 80
11, 74370, Note_on_c, 5, 46, 80
11, 74391, Note_on_c, 5, 58, 0
11, 74391, Note_on_c, 5, 46, 0
11, 74400, Note_on_c, 5, 62, 80
11, 74400, Note_on_c, 5, 50, 80
11, 74489, Note_on_c, 5, 62, 0
11, 74489, Note_on_c, 5, 50, 0
11, 74520, Note_on_c, 5, 41, 80
11, 74520, Note_on_c, 5, 53, 80
11, 74601, Note_on_c, 5, 41, 0
11, 74601, Note_on_c, 5, 53, 0
11, 74610, Note_on_c, 5, 53, 80
11, 74610, Note_on_c, 5, 41, 80
11, 74631, Note_on_c, 5, 53, 0
11, 74631, Note_on_c, 5, 41, 0
11, 74640, Note_on_c, 5, 58, 80
11, 74640, Note_on_c, 5, 46, 80
11, 74729, Note_on_c, 5, 58, 0
11, 74729, Note_on_c, 5, 46, 0
11, 74760, Note_on_c, 5, 50, 80
11, 74760, Note_on_c, 5, 62, 80
11, 74841, Note_on_c, 5, 50, 0
11, 74841, Note_on_c, 5, 62, 0
11, 74850, Note_on_c, 5, 62, 80
11, 74850, Note_on_c, 5, 50, 80
11, 74871, Note_on_c, 5, 62, 0
11, 74871, Note_on_c, 5, 50, 0
11, 74880, Note_on_c, 5, 65, 80
11, 74880, Note_on_c, 5, 53, 80
11, 74969, Note_on_c, 5, 65, 0
11, 74969, Note_on_c, 5, 53, 0
11, 75000, Note_on_c, 5, 58, 80
11, 75000, Note_on_c, 5, 46, 80
11, 75081, Note_on_c, 5, 58, 0
11, 75081, Note_on_c, 5, 46, 0
11, 75090, Note_on_c, 5, 58, 80
11, 75090, Note_on_c, 5, 46, 80
11, 75111, Note_on_c, 5, 58, 0
11, 75111, Note_on_c, 5, 46, 0
11, 75120, Note_on_c, 5, 46, 80
11, 75120, Note_on_c, 5, 58, 80
11, 75209, Note_on_c, 5, 46, 0
11, 75209, Note_on_c, 5, 58, 0
11, 75240, Note_on_c, 5, 58, 80
11, 75240, Note_on_c, 5, 46, 80
11, 75321, Note_on_c, 5, 58, 0
11, 75321, Note_on_c, 5, 46, 0
11, 75330, Note_on_c, 5, 46, 80
11, 75330, Note_on_c, 5, 58, 80
11, 75351, Note_on_c, 5, 46, 0
11, 75351, Note_on_c, 5, 58, 0
11, 75360, Note_on_c, 5, 46, 80
11, 75360, Note_on_c, 5, 58, 80
11, 75479, Note_on_c, 5, 46, 0
11, 75479, Note_on_c, 5, 58, 0
11, 81120, Control_c, 5, 11, 47
11, 81360, Note_on_c, 5, 50, 80
11, 81360, Note_on_c, 5, 62, 80
11, 83519, Note_on_c, 5, 50, 0
11, 83519, Note_on_c, 5, 62, 0
11, 83520, Note_on_c, 5, 50, 80
11, 83520, Note_on_c, 5, 62, 80
11, 85919, Note_on_c, 5, 50, 0
11, 85919, Note_on_c, 5, 62, 0
11, 85920, Note_on_c, 5, 62, 80
11, 85920, Note_on_c, 5, 50, 80
11, 88319, Note_on_c, 5, 62, 0
11, 88319, Note_on_c, 5, 50, 0
11, 88320, Note_on_c, 5, 50, 80
11, 88320, Note_on_c, 5, 62, 80
11, 88800, Control_c, 5, 11, 47
11, 88820, Control_c, 5, 11, 49
11, 88840, Control_c, 5, 11, 50
11, 88860, Control_c, 5, 11, 52
11, 88880, Control_c, 5, 11, 54
11, 88900, Control_c, 5, 11, 55
11, 88920, Control_c, 5, 11, 57
11, 88940, Control_c, 5, 11, 59
11, 88960, Control_c, 5, 11, 60
11, 88980, Control_c, 5, 11, 62
11, 89000, Control_c, 5, 11, 64
11, 89020, Control_c, 5, 11, 65
11, 89040, Control_c, 5, 11, 67
11, 89060, Control_c, 5, 11, 69
11, 89080, Control_c, 5, 11, 70
11, 89100, Control_c, 5, 11, 72
11, 89120, Control_c, 5, 11, 74
11, 89140, Control_c, 5, 11, 75
11, 89160, Control_c, 5, 11, 77
11, 89180, Control_c, 5, 11, 79
11, 89200, Control_c, 5, 11, 80
11, 89220, Control_c, 5, 11, 82
11, 89240, Control_c, 5, 11, 84
11, 89260, Control_c, 5, 11, 85
11, 89280, Control_c, 5, 11, 87
11, 89300, Control_c, 5, 11, 89
11, 89320, Control_c, 5, 11, 90
11, 89340, Control_c, 5, 11, 92
11, 89360, Control_c, 5, 11, 94
11, 89380, Control_c, 5, 11, 95
11, 89400, Control_c, 5, 11, 97
11, 89420, Control_c, 5, 11, 99
11, 89440, Control_c, 5, 11, 100
11, 89460, Control_c, 5, 11, 102
11, 89480, Control_c, 5, 11, 104
11, 89500, Control_c, 5, 11, 105
11, 89520, Control_c, 5, 11, 107
11, 89540, Control_c, 5, 11, 109
11, 89560, Control_c, 5, 11, 110
11, 89580, Control_c, 5, 11, 112
11, 89600, Control_c, 5, 11, 114
11, 89620, Control_c, 5, 11, 115
11, 89640, Control_c, 5, 11, 117
11, 89660, Control_c, 5, 11, 119
11, 89680, Control_c, 5, 11, 120
11, 89700, Control_c, 5, 11, 122
11, 89720, Control_c, 5, 11, 124
11, 89740, Control_c, 5, 11, 127
11, 89744, Note_on_c, 5, 50, 0
11, 89744, Note_on_c, 5, 62, 0
11, 89760, Note_on_c, 5, 60, 80
11, 90104, Note_on_c, 5, 60, 0
11, 90120, Note_on_c, 5, 60, 80
11, 90201, Note_on_c, 5, 60, 0
11, 90210, Note_on_c, 5, 60, 80
11, 90231, Note_on_c, 5, 60, 0
11, 90240, Note_on_c, 5, 63, 80
11, 90599, Note_on_c, 5, 63, 0
11, 91080, Note_on_c, 5, 60, 80
11, 91161, Note_on_c, 5, 60, 0
11, 91170, Note_on_c, 5, 60, 80
11, 91191, Note_on_c, 5, 60, 0
11, 91200, Note_on_c, 5, 63, 92
11, 91319, Note_on_c, 5, 63, 0
11, 91440, Note_on_c, 5, 62, 92
11, 91440, Note_on_c, 5, 50, 92
11, 91544, Note_on_c, 5, 62, 0
11, 91544, Note_on_c, 5, 50, 0
11, 91560, Note_on_c, 5, 62, 80
11, 91560, Note_on_c, 5, 50, 80
11, 91641, Note_on_c, 5, 62, 0
11, 91641, Note_on_c, 5, 50, 0
11, 91650, Note_on_c, 5, 50, 80
11, 91650, Note_on_c, 5, 62, 80
11, 91671, Note_on_c, 5, 50, 0
11, 91671, Note_on_c, 5, 62, 0
11, 91680, Note_on_c, 5, 50, 44
11, 91680, Note_on_c, 5, 62, 44
11, 91799, Note_on_c, 5, 50, 0
11, 91799, Note_on_c, 5, 62, 0
11, 94560, Note_on_c, 5, 50, 44
11, 94560, Note_on_c, 5, 62, 44
11, 97304, Note_on_c, 5, 50, 0
11, 97304, Note_on_c, 5, 62, 0
11, 97318, Control_c, 5, 11, 67
11, 97320, Note_on_c, 5, 65, 80
11, 97320, Note_on_c, 5, 62, 80
11, 97440, Control_c, 5, 11, 67
11, 97460, Control_c, 5, 11, 68
11, 97480, Control_c, 5, 11, 70
11, 97500, Control_c, 5, 11, 71
11, 97520, Control_c, 5, 11, 72
11, 97540, Control_c, 5, 11, 73
11, 97560, Control_c, 5, 11, 75
11, 97580, Control_c, 5, 11, 76
11, 97600, Control_c, 5, 11, 77
11, 97620, Control_c, 5, 11, 78
11, 97640, Control_c, 5, 11, 80
11, 97660, Control_c, 5, 11, 81
11, 97680, Control_c, 5, 11, 82
11, 97700, Control_c, 5, 11, 83
11, 97720, Control_c, 5, 11, 85
11, 97740, Control_c, 5, 11, 86
11, 97760, Control_c, 5, 11, 87
11, 97780, Control_c, 5, 11, 88
11, 97800, Control_c, 5, 11, 90
11, 97820, Control_c, 5, 11, 91
11, 97840, Control_c, 5, 11, 92
11, 97860, Control_c, 5, 11, 93
11, 97880, Control_c, 5, 11, 95
11, 97900, Control_c, 5, 11, 96
11, 97920, Control_c, 5, 11, 97
11, 97940, Control_c, 5, 11, 98
11, 97960, Control_c, 5, 11, 100
11, 97980, Control_c, 5, 11, 101
11, 98000, Control_c, 5, 11, 102
11, 98020, Control_c, 5, 11, 103
11, 98040, Control_c, 5, 11, 105
11, 98060, Control_c, 5, 11, 106
11, 98080, Control_c, 5, 11, 107
11, 98100, Control_c, 5, 11, 108
11, 98120, Control_c, 5, 11, 110
11, 98140, Control_c, 5, 11, 111
11, 98160, Control_c, 5, 11, 112
11, 98180, Control_c, 5, 11, 113
11, 98200, Control_c, 5, 11, 115
11, 98220, Control_c, 5, 11, 116
11, 98240, Control_c, 5, 11, 117
11, 98260, Control_c, 5, 11, 118
11, 98280, Control_c, 5, 11, 120
11, 98300, Control_c, 5, 11, 121
11, 98320, Control_c, 5, 11, 122
11, 98340, Control_c, 5, 11, 123
11, 98360, Control_c, 5, 11, 125
11, 98380, Control_c, 5, 11, 127
11, 98384, Note_on_c, 5, 62, 0
11, 98400, Note_on_c, 5, 53, 80
11, 98504, Note_on_c, 5, 65, 0
11, 98504, Note_on_c, 5, 53, 0
11, 98520, Note_on_c, 5, 65, 80
11, 98520, Note_on_c, 5, 53, 80
11, 98601, Note_on_c, 5, 65, 0
11, 98601, Note_on_c, 5, 53, 0
11, 98610, Note_on_c, 5, 53, 80
11, 98610, Note_on_c, 5, 65, 80
11, 98631, Note_on_c, 5, 53, 0
11, 98631, Note_on_c, 5, 65, 0
11, 98640, Note_on_c, 5, 53, 92
11, 98640, Note_on_c, 5, 65, 92
11, 98700, Control_c, 5, 11, 107
11, 98984, Note_on_c, 5, 53, 0
11, 98984, Note_on_c, 5, 65, 0
11, 99000, Note_on_c, 5, 50, 92
11, 99000, Note_on_c, 5, 62, 92
11, 99081, Note_on_c, 5, 50, 0
11, 99081, Note_on_c, 5, 62, 0
11, 99090, Note_on_c, 5, 50, 92
11, 99090, Note_on_c, 5, 62, 92
11, 99111, Note_on_c, 5, 50, 0
11, 99111, Note_on_c, 5, 62, 0
11, 99118, Control_c, 5, 11, 127
11, 99120, Note_on_c, 5, 53, 92
11, 99120, Note_on_c, 5, 65, 92
11, 99180, Control_c, 5, 11, 107
11, 99479, Note_on_c, 5, 53, 0
11, 99479, Note_on_c, 5, 65, 0
11, 106560, Control_c, 5, 11, 127
11, 106920, Note_on_c, 5, 62, 80
11, 107384, Note_on_c, 5, 62, 0
11, 107400, Note_on_c, 5, 50, 92
11, 107460, Control_c, 5, 11, 107
11, 107864, Note_on_c, 5, 50, 0
11, 107878, Control_c, 5, 11, 127
11, 107880, Note_on_c, 5, 50, 92
11, 107940, Control_c, 5, 11, 107
11, 108104, Note_on_c, 5, 50, 0
11, 108118, Control_c, 5, 11, 127
11, 108120, Note_on_c, 5, 62, 92
11, 108180, Control_c, 5, 11, 107
11, 108344, Note_on_c, 5, 62, 0
11, 108358, Control_c, 5, 11, 127
11, 108360, Note_on_c, 5, 50, 80
11, 108584, Note_on_c, 5, 50, 0
11, 108600, Note_on_c, 5, 62, 80
11, 108824, Note_on_c, 5, 62, 0
11, 108840, Note_on_c, 5, 50, 80
11, 109079, Note_on_c, 5, 50, 0
11, 109560, Note_on_c, 5, 60, 80
11, 109784, Note_on_c, 5, 60, 0
11, 109800, Note_on_c, 5, 60, 80
11, 110024, Note_on_c, 5, 60, 0
11, 110040, Note_on_c, 5, 53, 80
11, 110040, Note_on_c, 5, 60, 80
11, 110264, Note_on_c, 5, 53, 0
11, 110264, Note_on_c, 5, 60, 0
11, 110280, Note_on_c, 5, 53, 80
11, 110280, Note_on_c, 5, 60, 80
11, 110504, Note_on_c, 5, 53, 0
11, 110504, Note_on_c, 5, 60, 0
11, 110520, Note_on_c, 5, 53, 80
11, 110520, Note_on_c, 5, 60, 80
11, 110744, Note_on_c, 5, 53, 0
11, 110744, Note_on_c, 5, 60, 0
11, 110760, Note_on_c, 5, 53, 92
11, 110760, Note_on_c, 5, 65, 92
11, 110820, Control_c, 5, 11, 107
11, 111224, Note_on_c, 5, 53, 0
11, 111224, Note_on_c, 5, 65, 0
11, 111238, Control_c, 5, 11, 127
11, 111240, Note_on_c, 5, 53, 92
11, 111240, Note_on_c, 5, 41, 92
11, 111300, Control_c, 5, 11, 107
11, 111704, Note_on_c, 5, 53, 0
11, 111704, Note_on_c, 5, 41, 0
11, 111718, Control_c, 5, 11, 127
11, 111720, Note_on_c, 5, 41, 92
11, 111720, Note_on_c, 5, 53, 92
11, 111780, Control_c, 5, 11, 107
11, 111944, Note_on_c, 5, 41, 0
11, 111944, Note_on_c, 5, 53, 0
11, 111958, Control_c, 5, 11, 127
11, 111960, Note_on_c, 5, 65, 92
11, 111960, Note_on_c, 5, 53, 92
11, 112020, Control_c, 5, 11, 107
11, 112184, Note_on_c, 5, 65, 0
11, 112184, Note_on_c, 5, 53, 0
11, 112200, Note_on_c, 5, 41, 92
11, 112200, Note_on_c, 5, 53, 92
11, 112424, Note_on_c, 5, 41, 0
11, 112424, Note_on_c, 5, 53, 0
11, 112438, Control_c, 5, 11, 127
11, 112440, Note_on_c, 5, 53, 92
11, 112440, Note_on_c, 5, 65, 92
11, 112500, Control_c, 5, 11, 107
11, 112664, Note_on_c, 5, 53, 0
11, 112664, Note_on_c, 5, 65, 0
11, 112678, Control_c, 5, 11, 127
11, 112680, Note_on_c, 5, 53, 80
11, 112680, Note_on_c, 5, 65, 80
11, 113144, Note_on_c, 5, 53, 0
11, 113144, Note_on_c, 5, 65, 0
11, 113160, Note_on_c, 5, 53, 80
11, 113624, Note_on_c, 5, 53, 0
11, 113640, Note_on_c, 5, 53, 80
11, 113864, Note_on_c, 5, 53, 0
11, 113880, Note_on_c, 5, 65, 92
11, 113940, Control_c, 5, 11, 107
11, 114104, Note_on_c, 5, 65, 0
11, 114120, Note_on_c, 5, 53, 92
11, 114344, Note_on_c, 5, 53, 0
11, 114358, Control_c, 5, 11, 127
11, 114360, Note_on_c, 5, 65, 92
11, 114420, Control_c, 5, 11, 107
11, 114584, Note_on_c, 5, 65, 0
11, 114600, Note_on_c, 5, 53, 92
11, 114824, Note_on_c, 5, 53, 0
11, 114838, Control_c, 5, 11, 127
11, 114840, Note_on_c, 5, 53, 92
11, 114840, Note_on_c, 5, 65, 92
11, 114900, Control_c, 5, 11, 107
11, 115064, Note_on_c, 5, 53, 0
11, 115064, Note_on_c, 5, 65, 0
11, 115080, Note_on_c, 5, 62, 92
11, 115080, Note_on_c, 5, 50, 92
11, 115304, Note_on_c, 5, 62, 0
11, 115304, Note_on_c, 5, 50, 0
11, 115318, Control_c, 5, 11, 127
11, 115320, Note_on_c, 5, 50, 92
11, 115320, Note_on_c, 5, 62, 92
11, 115380, Control_c, 5, 11, 107
11, 115544, Note_on_c, 5, 50, 0
11, 115544, Note_on_c, 5, 62, 0
11, 115560, Note_on_c, 5, 62, 92
11, 115560, Note_on_c, 5, 50, 92
11, 115784, Note_on_c, 5, 62, 0
11, 115784, Note_on_c, 5, 50, 0
11, 115798, Control_c, 5, 11, 127
11, 115800, Note_on_c, 5, 50, 92
11, 115800, Note_on_c, 5, 62, 92
11, 115860, Control_c, 5, 11, 107
11, 116024, Note_on_c, 5, 50, 0
11, 116024, Note_on_c, 5, 62, 0
11, 116040, Note_on_c, 5, 62, 92
11, 116040, Note_on_c, 5, 50, 92
11, 116264, Note_on_c, 5, 62, 0
11, 116264, Note_on_c, 5, 50, 0
11, 116278, Control_c, 5, 11, 127
11, 116280, Note_on_c, 5, 53, 92
11, 116280, Note_on_c, 5, 65, 92
11, 116340, Control_c, 5, 11, 107
11, 116504, Note_on_c, 5, 53, 0
11, 116504, Note_on_c, 5, 65, 0
11, 116520, Note_on_c, 5, 62, 92
11, 116520, Note_on_c, 5, 50, 92
11, 116744, Note_on_c, 5, 62, 0
11, 116744, Note_on_c, 5, 50, 0
11, 117600, Control_c, 5, 11, 127
11, 117720, Note_on_c, 5, 50, 80
11, 117720, Note_on_c, 5, 62, 80
11, 117959, Note_on_c, 5, 50, 0
11, 117959, Note_on_c, 5, 62, 0
11, 118200, Note_on_c, 5, 62, 80
11, 118200, Note_on_c, 5, 50, 80
11, 118424, Note_on_c, 5, 62, 0
11, 118424, Note_on_c, 5, 50, 0
11, 118440, Note_on_c, 5, 50, 80
11, 118440, Note_on_c, 5, 62, 80
11, 118544, Note_on_c, 5, 50, 0
11, 118544, Note_on_c, 5, 62, 0
11, 118560, Note_on_c, 5, 60, 80
11, 118664, Note_on_c, 5, 60, 0
11, 118680, Note_on_c, 5, 60, 80
11, 118904, Note_on_c, 5, 60, 0
11, 118920, Note_on_c, 5, 60, 80
11, 119144, Note_on_c, 5, 60, 0
11, 119160, Note_on_c, 5, 65, 80
11, 119160, Note_on_c, 5, 53, 80
11, 119384, Note_on_c, 5, 65, 0
11, 119384, Note_on_c, 5, 53, 0
11, 119400, Note_on_c, 5, 65, 80
11, 119400, Note_on_c, 5, 53, 80
11, 119624, Note_on_c, 5, 65, 0
11, 119624, Note_on_c, 5, 53, 0
11, 119640, Note_on_c, 5, 65, 80
11, 119640, Note_on_c, 5, 53, 80
11, 119864, Note_on_c, 5, 65, 0
11, 119864, Note_on_c, 5, 53, 0
11, 119880, Note_on_c, 5, 53, 80
11, 119880, Note_on_c, 5, 65, 80
11, 120104, Note_on_c, 5, 53, 0
11, 120104, Note_on_c, 5, 65, 0
11, 120120, Note_on_c, 5, 65, 80
11, 120120, Note_on_c, 5, 53, 80
11, 120344, Note_on_c, 5, 65, 0
11, 120344, Note_on_c, 5, 53, 0
11, 120360, Note_on_c, 5, 65, 80
11, 120360, Note_on_c, 5, 53, 80
11, 120584, Note_on_c, 5, 65, 0
11, 120584, Note_on_c, 5, 53, 0
11, 120600, Note_on_c, 5, 53, 80
11, 120600, Note_on_c, 5, 65, 80
11, 120824, Note_on_c, 5, 53, 0
11, 120824, Note_on_c, 5, 65, 0
11, 120840, Control_c, 5, 11, 127
11, 120840, Note_on_c, 5, 65, 80
11, 120840, Note_on_c, 5, 53, 80
11, 120853, Control_c, 5, 11, 120
11, 120867, Control_c, 5, 11, 114
11, 120880, Control_c, 5, 11, 107
11, 120893, Control_c, 5, 11, 100
11, 120907, Control_c, 5, 11, 94
11, 120920, Control_c, 5, 11, 87
11, 120933, Control_c, 5, 11, 80
11, 120944, Note_on_c, 5, 65, 0
11, 120944, Note_on_c, 5, 53, 0
11, 120947, Control_c, 5, 11, 74
11, 120953, Control_c, 5, 11, 67
11, 120960, Note_on_c, 5, 53, 80
11, 120960, Note_on_c, 5, 65, 80
11, 121199, Note_on_c, 5, 53, 0
11, 121199, Note_on_c, 5, 65, 0
11, 121440, Control_c, 5, 11, 127
11, 133440, Note_on_c, 5, 60, 44
11, 135464, Note_on_c, 5, 60, 0
11, 135480, Note_on_c, 5, 60, 44
11, 135944, Note_on_c, 5, 60, 0
11, 135960, Note_on_c, 5, 60, 44
11, 136424, Note_on_c, 5, 60, 0
11, 136440, Note_on_c, 5, 60, 44
11, 136904, Note_on_c, 5, 60, 0
11, 136920, Note_on_c, 5, 60, 44
11, 137384, Note_on_c, 5, 60, 0
11, 137400, Note_on_c, 5, 60, 44
11, 137864, Note_on_c, 5, 60, 0
11, 137880, Note_on_c, 5, 60, 44
11, 138344, Note_on_c, 5, 60, 0
11, 138360, Note_on_c, 5, 60, 44
11, 138824, Note_on_c, 5, 60, 0
11, 138840, Note_on_c, 5, 60, 44
11, 139304, Note_on_c, 5, 60, 0
11, 139320, Note_on_c, 5, 60, 44
11, 139784, Note_on_c, 5, 60, 0
11, 139800, Note_on_c, 5, 60, 44
11, 140264, Note_on_c, 5, 60, 0
11, 140280, Note_on_c, 5, 60, 44
11, 140744, Note_on_c, 5, 60, 0
11, 140758, Control_c, 5, 11, 67
11, 140760, Note_on_c, 5, 58, 80
11, 141120, Control_c, 5, 11, 67
11, 141140, Control_c, 5, 11, 68
11, 141160, Control_c, 5, 11, 70
11, 141180, Control_c, 5, 11, 71
11, 141200, Control_c, 5, 11, 72
11, 141220, Control_c, 5, 11, 73
11, 141224, Note_on_c, 5, 58, 0
11, 141240, Control_c, 5, 11, 75
11, 141240, Note_on_c, 5, 58, 80
11, 141260, Control_c, 5, 11, 76
11, 141280, Control_c, 5, 11, 77
11, 141300, Control_c, 5, 11, 78
11, 141320, Control_c, 5, 11, 80
11, 141340, Control_c, 5, 11, 81
11, 141360, Control_c, 5, 11, 82
11, 141380, Control_c, 5, 11, 83
11, 141400, Control_c, 5, 11, 85
11, 141420, Control_c, 5, 11, 86
11, 141440, Control_c, 5, 11, 87
11, 141460, Control_c, 5, 11, 88
11, 141480, Control_c, 5, 11, 90
11, 141500, Control_c, 5, 11, 91
11, 141520, Control_c, 5, 11, 92
11, 141540, Control_c, 5, 11, 93
11, 141560, Control_c, 5, 11, 95
11, 141580, Control_c, 5, 11, 96
11, 141600, Control_c, 5, 11, 97
11, 141620, Control_c, 5, 11, 98
11, 141640, Control_c, 5, 11, 100
11, 141660, Control_c, 5, 11, 101
11, 141680, Control_c, 5, 11, 102
11, 141700, Control_c, 5, 11, 103
11, 141704, Note_on_c, 5, 58, 0
11, 141720, Control_c, 5, 11, 105
11, 141720, Note_on_c, 5, 58, 80
11, 141740, Control_c, 5, 11, 106
11, 141760, Control_c, 5, 11, 107
11, 141780, Control_c, 5, 11, 108
11, 141800, Control_c, 5, 11, 110
11, 141820, Control_c, 5, 11, 111
11, 141840, Control_c, 5, 11, 112
11, 141860, Control_c, 5, 11, 113
11, 141880, Control_c, 5, 11, 115
11, 141900, Control_c, 5, 11, 116
11, 141920, Control_c, 5, 11, 117
11, 141940, Control_c, 5, 11, 118
11, 141960, Control_c, 5, 11, 120
11, 141980, Control_c, 5, 11, 121
11, 142000, Control_c, 5, 11, 122
11, 142020, Control_c, 5, 11, 123
11, 142040, Control_c, 5, 11, 125
11, 142060, Control_c, 5, 11, 127
11, 142064, Note_on_c, 5, 58, 0
11, 142080, Note_on_c, 5, 58, 80
11, 142199, Note_on_c, 5, 58, 0
11, 142320, Note_on_c, 5, 58, 80
11, 142439, Note_on_c, 5, 58, 0
11, 142560, Note_on_c, 5, 58, 80
11, 142679, Note_on_c, 5, 58, 0
11, 142800, Note_on_c, 5, 58, 80
11, 142919, Note_on_c, 5, 58, 0
11, 143040, Note_on_c, 5, 58, 80
11, 143159, Note_on_c, 5, 58, 0
11, 143280, Note_on_c, 5, 58, 80
11, 143399, Note_on_c, 5, 58, 0
11, 143520, Note_on_c, 5, 58, 80
11, 143639, Note_on_c, 5, 58, 0
11, 144000, Note_on_c, 5, 62, 92
11, 144000, Note_on_c, 5, 50, 92
11, 145881, Note_on_c, 5, 62, 0
11, 145881, Note_on_c, 5, 50, 0
11, 145890, Note_on_c, 5, 50, 92
11, 145890, Note_on_c, 5, 62, 92
11, 145911, Note_on_c, 5, 50, 0
11, 145911, Note_on_c, 5, 62, 0
11, 145920, Note_on_c, 5, 62, 92
11, 145920, Note_on_c, 5, 50, 92
11, 147801, Note_on_c, 5, 62, 0
11, 147801, Note_on_c, 5, 50, 0
11, 147810, Note_on_c, 5, 50, 92
11, 147810, Note_on_c, 5, 62, 92
11, 147831, Note_on_c, 5, 50, 0
11, 147831, Note_on_c, 5, 62, 0
11, 147840, Note_on_c, 5, 62, 92
11, 147840, Note_on_c, 5, 50, 92
11, 148761, Note_on_c, 5, 62, 0
11, 148761, Note_on_c, 5, 50, 0
11, 148770, Note_on_c, 5, 62, 92
11, 148770, Note_on_c, 5, 50, 92
11, 148791, Note_on_c, 5, 62, 0
11, 148791, Note_on_c, 5, 50, 0
11, 148800, Note_on_c, 5, 50, 92
11, 148800, Note_on_c, 5, 62, 92
11, 149504, Note_on_c, 5, 50, 0
11, 149504, Note_on_c, 5, 62, 0
11, 149520, Note_on_c, 5, 58, 92
11, 149520, Note_on_c, 5, 46, 92
11, 149571, Note_on_c, 5, 58, 0
11, 149571, Note_on_c, 5, 46, 0
11, 149580, Note_on_c, 5, 46, 92
11, 149580, Note_on_c, 5, 58, 92
11, 149631, Note_on_c, 5, 46, 0
11, 149631, Note_on_c, 5, 58, 0
11, 149640, Note_on_c, 5, 46, 92
11, 149640, Note_on_c, 5, 58, 92
11, 149691, Note_on_c, 5, 46, 0
11, 149691, Note_on_c, 5, 58, 0
11, 149700, Note_on_c, 5, 46, 92
11, 149700, Note_on_c, 5, 58, 92
11, 149751, Note_on_c, 5, 46, 0
11, 149751, Note_on_c, 5, 58, 0
11, 149760, Note_on_c, 5, 58, 92
11, 149760, Note_on_c, 5, 46, 92
11, 150704, Note_on_c, 5, 58, 0
11, 150704, Note_on_c, 5, 46, 0
11, 150720, Note_on_c, 5, 65, 92
11, 150720, Note_on_c, 5, 53, 92
11, 151641, Note_on_c, 5, 65, 0
11, 151641, Note_on_c, 5, 53, 0
11, 151650, Note_on_c, 5, 62, 92
11, 151650, Note_on_c, 5, 65, 92
11, 151671, Note_on_c, 5, 62, 0
11, 151671, Note_on_c, 5, 65, 0
11, 151680, Note_on_c, 5, 62, 92
11, 151680, Note_on_c, 5, 65, 92
11, 153239, Note_on_c, 5, 62, 0
11, 153239, Note_on_c, 5, 65, 0
11, 153600, Note_on_c, 5, 62, 92
11, 153600, Note_on_c, 5, 50, 92
11, 154544, Note_on_c, 5, 62, 0
11, 154544, Note_on_c, 5, 50, 0
11, 154560, Note_on_c, 5, 50, 80
11, 154560, Note_on_c, 5, 62, 80
11, 155024, Note_on_c, 5, 50, 0
11, 155024, Note_on_c, 5, 62, 0
11, 155040, Note_on_c, 5, 62, 80
11, 155040, Note_on_c, 5, 50, 80
11, 155219, Note_on_c, 5, 62, 0
11, 155219, Note_on_c, 5, 50, 0
11, 155280, Note_on_c, 5, 50, 80
11, 155280, Note_on_c, 5, 62, 80
11, 155459, Note_on_c, 5, 50, 0
11, 155459, Note_on_c, 5, 62, 0
11, 155520, Note_on_c, 5, 50, 80
11, 155520, Note_on_c, 5, 62, 80
11, 155699, Note_on_c, 5, 50, 0
11, 155699, Note_on_c, 5, 62, 0
11, 155760, Note_on_c, 5, 60, 80
11, 155939, Note_on_c, 5, 60, 0
11, 156000, Note_on_c, 5, 58, 80
11, 156000, Note_on_c, 5, 46, 80
11, 156179, Note_on_c, 5, 58, 0
11, 156179, Note_on_c, 5, 46, 0
11, 156240, Note_on_c, 5, 58, 80
11, 156240, Note_on_c, 5, 46, 80
11, 156419, Note_on_c, 5, 58, 0
11, 156419, Note_on_c, 5, 46, 0
11, 156480, Note_on_c, 5, 46, 92
11, 156480, Note_on_c, 5, 58, 92
11, 156540, Control_c, 5, 11, 107
11, 156824, Note_on_c, 5, 46, 0
11, 156824, Note_on_c, 5, 58, 0
11, 156838, Control_c, 5, 11, 127
11, 156840, Note_on_c, 5, 62, 80
11, 156840, Note_on_c, 5, 50, 80
11, 156944, Note_on_c, 5, 62, 0
11, 156944, Note_on_c, 5, 50, 0
11, 156960, Note_on_c, 5, 50, 80
11, 156960, Note_on_c, 5, 62, 80
11, 157049, Note_on_c, 5, 50, 0
11, 157049, Note_on_c, 5, 62, 0
11, 157080, Note_on_c, 5, 50, 80
11, 157080, Note_on_c, 5, 62, 80
11, 157169, Note_on_c, 5, 50, 0
11, 157169, Note_on_c, 5, 62, 0
11, 157200, Note_on_c, 5, 62, 80
11, 157200, Note_on_c, 5, 50, 80
11, 157289, Note_on_c, 5, 62, 0
11, 157289, Note_on_c, 5, 50, 0
11, 157320, Note_on_c, 5, 62, 80
11, 157320, Note_on_c, 5, 50, 80
11, 157409, Note_on_c, 5, 62, 0
11, 157409, Note_on_c, 5, 50, 0
11, 157440, Note_on_c, 5, 62, 92
11, 157440, Note_on_c, 5, 50, 92
11, 157559, Note_on_c, 5, 62, 0
11, 157559, Note_on_c, 5, 50, 0
11, 158400, Note_on_c, 5, 62, 92
11, 158400, Note_on_c, 5, 50, 92
11, 158460, Control_c, 5, 11, 107
11, 158744, Note_on_c, 5, 62, 0
11, 158744, Note_on_c, 5, 50, 0
11, 158758, Control_c, 5, 11, 127
11, 158760, Note_on_c, 5, 62, 80
11, 158760, Note_on_c, 5, 50, 80
11, 158849, Note_on_c, 5, 62, 0
11, 158849, Note_on_c, 5, 50, 0
11, 158880, Note_on_c, 5, 50, 80
11, 158880, Note_on_c, 5, 62, 80
11, 158969, Note_on_c, 5, 50, 0
11, 158969, Note_on_c, 5, 62, 0
11, 159000, Note_on_c, 5, 50, 80
11, 159000, Note_on_c, 5, 62, 80
11, 159089, Note_on_c, 5, 50, 0
11, 159089, Note_on_c, 5, 62, 0
11, 159120, Note_on_c, 5, 50, 80
11, 159120, Note_on_c, 5, 62, 80
11, 159209, Note_on_c, 5, 50, 0
11, 159209, Note_on_c, 5, 62, 0
11, 159240, Note_on_c, 5, 62, 80
11, 159240, Note_on_c, 5, 50, 80
11, 159329, Note_on_c, 5, 62, 0
11, 159329, Note_on_c, 5, 50, 0
11, 159360, Note_on_c, 5, 62, 80
11, 159360, Note_on_c, 5, 50, 80
11, 159479, Note_on_c, 5, 62, 0
11, 159479, Note_on_c, 5, 50, 0
11, 160800, Note_on_c, 5, 50, 92
11, 160800, Note_on_c, 5, 62, 92
11, 160860, Control_c, 5, 11, 107
11, 161144, Note_on_c, 5, 50, 0
11, 161144, Note_on_c, 5, 62, 0
11, 161158, Control_c, 5, 11, 127
11, 161160, Note_on_c, 5, 50, 80
11, 161160, Note_on_c, 5, 62, 80
11, 161249, Note_on_c, 5, 50, 0
11, 161249, Note_on_c, 5, 62, 0
11, 161280, Note_on_c, 5, 62, 80
11, 161280, Note_on_c, 5, 50, 80
11, 161369, Note_on_c, 5, 62, 0
11, 161369, Note_on_c, 5, 50, 0
11, 161400, Note_on_c, 5, 50, 80
11, 161400, Note_on_c, 5, 62, 80
11, 161489, Note_on_c, 5, 50, 0
11, 161489, Note_on_c, 5, 62, 0
11, 161520, Note_on_c, 5, 50, 80
11, 161520, Note_on_c, 5, 62, 80
11, 161609, Note_on_c, 5, 50, 0
11, 161609, Note_on_c, 5, 62, 0
11, 161640, Note_on_c, 5, 62, 80
11, 161640, Note_on_c, 5, 50, 80
11, 161729, Note_on_c, 5, 62, 0
11, 161729, Note_on_c, 5, 50, 0
11, 161760, Note_on_c, 5, 50, 80
11, 161760, Note_on_c, 5, 62, 80
11, 161879, Note_on_c, 5, 50, 0
11, 161879, Note_on_c, 5, 62, 0
11, 170880, Control_c, 5, 11, 67
11, 171120, Note_on_c, 5, 53, 80
11, 171464, Note_on_c, 5, 53, 0
11, 171480, Note_on_c, 5, 53, 80
11, 171584, Note_on_c, 5, 53, 0
11, 171600, Note_on_c, 5, 53, 80
11, 171704, Note_on_c, 5, 53, 0
11, 171720, Note_on_c, 5, 53, 80
11, 171824, Note_on_c, 5, 53, 0
11, 171840, Note_on_c, 5, 50, 80
11, 171840, Control_c, 5, 11, 67
11, 171860, Control_c, 5, 11, 68
11, 171880, Control_c, 5, 11, 70
11, 171900, Control_c, 5, 11, 71
11, 171920, Control_c, 5, 11, 72
11, 171940, Control_c, 5, 11, 73
11, 171960, Control_c, 5, 11, 75
11, 171980, Control_c, 5, 11, 76
11, 172000, Control_c, 5, 11, 77
11, 172020, Control_c, 5, 11, 78
11, 172040, Control_c, 5, 11, 80
11, 172060, Control_c, 5, 11, 81
11, 172080, Control_c, 5, 11, 82
11, 172100, Control_c, 5, 11, 83
11, 172120, Control_c, 5, 11, 85
11, 172140, Control_c, 5, 11, 86
11, 172160, Control_c, 5, 11, 87
11, 172180, Control_c, 5, 11, 88
11, 172200, Control_c, 5, 11, 90
11, 172220, Control_c, 5, 11, 91
11, 172240, Control_c, 5, 11, 92
11, 172260, Control_c, 5, 11, 93
11, 172280, Control_c, 5, 11, 95
11, 172300, Control_c, 5, 11, 96
11, 172320, Control_c, 5, 11, 97
11, 172340, Control_c, 5, 11, 98
11, 172360, Control_c, 5, 11, 100
11, 172371, Note_on_c, 5, 50, 0
11, 172380, Note_on_c, 5, 50, 80
11, 172380, Control_c, 5, 11, 101
11, 172400, Control_c, 5, 11, 102
11, 172420, Control_c, 5, 11, 103
11, 172440, Control_c, 5, 11, 105
11, 172460, Control_c, 5, 11, 106
11, 172480, Control_c, 5, 11, 107
11, 172491, Note_on_c, 5, 50, 0
11, 172500, Note_on_c, 5, 50, 80
11, 172500, Control_c, 5, 11, 108
11, 172520, Control_c, 5, 11, 110
11, 172540, Control_c, 5, 11, 111
11, 172560, Control_c, 5, 11, 112
11, 172580, Control_c, 5, 11, 113
11, 172600, Control_c, 5, 11, 115
11, 172611, Note_on_c, 5, 50, 0
11, 172620, Note_on_c, 5, 50, 80
11, 172620, Control_c, 5, 11, 116
11, 172640, Control_c, 5, 11, 117
11, 172660, Control_c, 5, 11, 118
11, 172680, Control_c, 5, 11, 120
11, 172700, Control_c, 5, 11, 121
11, 172720, Control_c, 5, 11, 122
11, 172731, Note_on_c, 5, 50, 0
11, 172740, Note_on_c, 5, 50, 80
11, 172740, Control_c, 5, 11, 123
11, 172760, Control_c, 5, 11, 125
11, 172780, Control_c, 5, 11, 127
11, 172800, Note_on_c, 5, 62, 80
11, 172851, Note_on_c, 5, 50, 0
11, 172851, Note_on_c, 5, 62, 0
11, 172860, Note_on_c, 5, 62, 80
11, 172860, Note_on_c, 5, 50, 80
11, 172971, Note_on_c, 5, 62, 0
11, 172971, Note_on_c, 5, 50, 0
11, 172980, Note_on_c, 5, 62, 80
11, 172980, Note_on_c, 5, 50, 80
11, 173091, Note_on_c, 5, 62, 0
11, 173091, Note_on_c, 5, 50, 0
11, 173100, Note_on_c, 5, 62, 80
11, 173100, Note_on_c, 5, 50, 80
11, 173211, Note_on_c, 5, 62, 0
11, 173211, Note_on_c, 5, 50, 0
11, 173220, Note_on_c, 5, 50, 80
11, 173220, Note_on_c, 5, 62, 80
11, 173384, Note_on_c, 5, 50, 0
11, 173384, Note_on_c, 5, 62, 0
11, 173400, Note_on_c, 5, 50, 92
11, 173400, Note_on_c, 5, 62, 92
11, 173489, Note_on_c, 5, 50, 0
11, 173489, Note_on_c, 5, 62, 0
11, 174480, Control_c, 5, 11, 67
11, 174720, Note_on_c, 5, 46, 80
11, 174720, Control_c, 5, 11, 67
11, 174720, Note_on_c, 5, 58, 80
11, 174747, Control_c, 5, 11, 69
11, 174773, Control_c, 5, 11, 70
11, 174800, Control_c, 5, 11, 72
11, 174827, Control_c, 5, 11, 74
11, 174853, Control_c, 5, 11, 75
11, 174880, Control_c, 5, 11, 77
11, 174907, Control_c, 5, 11, 79
11, 174933, Control_c, 5, 11, 80
11, 174960, Control_c, 5, 11, 82
11, 174987, Control_c, 5, 11, 84
11, 175013, Control_c, 5, 11, 85
11, 175040, Control_c, 5, 11, 87
11, 175067, Control_c, 5, 11, 89
11, 175093, Control_c, 5, 11, 90
11, 175120, Control_c, 5, 11, 92
11, 175147, Control_c, 5, 11, 94
11, 175173, Control_c, 5, 11, 95
11, 175200, Control_c, 5, 11, 97
11, 175227, Control_c, 5, 11, 99
11, 175251, Note_on_c, 5, 46, 0
11, 175251, Note_on_c, 5, 58, 0
11, 175253, Control_c, 5, 11, 100
11, 175260, Note_on_c, 5, 46, 80
11, 175260, Note_on_c, 5, 58, 80
11, 175280, Control_c, 5, 11, 102
11, 175307, Control_c, 5, 11, 104
11, 175333, Control_c, 5, 11, 105
11, 175360, Control_c, 5, 11, 107
11, 175371, Note_on_c, 5, 46, 0
11, 175371, Note_on_c, 5, 58, 0
11, 175380, Note_on_c, 5, 46, 80
11, 175380, Note_on_c, 5, 58, 80
11, 175387, Control_c, 5, 11, 109
11, 175413, Control_c, 5, 11, 110
11, 175440, Control_c, 5, 11, 112
11, 175467, Control_c, 5, 11, 114
11, 175491, Note_on_c, 5, 46, 0
11, 175491, Note_on_c, 5, 58, 0
11, 175493, Control_c, 5, 11, 115
11, 175500, Note_on_c, 5, 46, 80
11, 175500, Note_on_c, 5, 58, 80
11, 175520, Control_c, 5, 11, 117
11, 175547, Control_c, 5, 11, 119
11, 175573, Control_c, 5, 11, 120
11, 175600, Control_c, 5, 11, 122
11, 175611, Note_on_c, 5, 46, 0
11, 175611, Note_on_c, 5, 58, 0
11, 175620, Note_on_c, 5, 46, 80
11, 175620, Note_on_c, 5, 58, 80
11, 175627, Control_c, 5, 11, 124
11, 175653, Control_c, 5, 11, 127
11, 175671, Note_on_c, 5, 46, 0
11, 175671, Note_on_c, 5, 58, 0
11, 175680, Note_on_c, 5, 63, 80
11, 176024, Note_on_c, 5, 63, 0
11, 176040, Note_on_c, 5, 62, 80
11, 176040, Note_on_c, 5, 50, 80
11, 176159, Note_on_c, 5, 62, 0
11, 176159, Note_on_c, 5, 50, 0
11, 178560, Note_on_c, 5, 62, 92
11, 178560, Note_on_c, 5, 50, 92
11, 178664, Note_on_c, 5, 62, 0
11, 178664, Note_on_c, 5, 50, 0
11, 178680, Note_on_c, 5, 62, 92
11, 178680, Note_on_c, 5, 50, 92
11, 178761, Note_on_c, 5, 62, 0
11, 178761, Note_on_c, 5, 50, 0
11, 178770, Note_on_c, 5, 62, 92
11, 178770, Note_on_c, 5, 50, 92
11, 178791, Note_on_c, 5, 62, 0
11, 178791, Note_on_c, 5, 50, 0
11, 178800, Note_on_c, 5, 62, 92
11, 178800, Note_on_c, 5, 50, 92
11, 178919, Note_on_c, 5, 62, 0
11, 178919, Note_on_c, 5, 50, 0
11, 179040, Note_on_c, 5, 63, 92
11, 179144, Note_on_c, 5, 63, 0
11, 179160, Note_on_c, 5, 62, 92
11, 179241, Note_on_c, 5, 62, 0
11, 179250, Note_on_c, 5, 62, 92
11, 179271, Note_on_c, 5, 62, 0
11, 179280, Note_on_c, 5, 63, 92
11, 179399, Note_on_c, 5, 63, 0
11, 180000, Note_on_c, 5, 58, 44
11, 180240, Note_on_c, 5, 46, 44
11, 180464, Note_on_c, 5, 58, 0
11, 180464, Note_on_c, 5, 46, 0
11, 180480, Note_on_c, 5, 46, 32
11, 180480, Note_on_c, 5, 58, 32
11, 182519, Note_on_c, 5, 46, 0
11, 182519, Note_on_c, 5, 58, 0
11, 194880, Note_on_c, 5, 50, 92
11, 194880, Note_on_c, 5, 62, 92
11, 194984, Note_on_c, 5, 50, 0
11, 194984, Note_on_c, 5, 62, 0
11, 195000, Note_on_c, 5, 50, 44
11, 195000, Note_on_c, 5, 62, 44
11, 195119, Note_on_c, 5, 50, 0
11, 195119, Note_on_c, 5, 62, 0
11, 195330, Note_on_c, 5, 50, 44
11, 195330, Note_on_c, 5, 62, 44
11, 195351, Note_on_c, 5, 50, 0
11, 195351, Note_on_c, 5, 62, 0
11, 195360, Note_on_c, 5, 62, 44
11, 195360, Note_on_c, 5, 50, 44
11, 195479, Note_on_c, 5, 62, 0
11, 195479, Note_on_c, 5, 50, 0
11, 195570, Note_on_c, 5, 50, 44
11, 195570, Note_on_c, 5, 62, 44
11, 195591, Note_on_c, 5, 50, 0
11, 195591, Note_on_c, 5, 62, 0
11, 195600, Note_on_c, 5, 62, 44
11, 195600, Note_on_c, 5, 50, 44
11, 195704, Note_on_c, 5, 62, 0
11, 195704, Note_on_c, 5, 50, 0
11, 195720, Note_on_c, 5, 62, 92
11, 195720, Note_on_c, 5, 50, 92
11, 195801, Note_on_c, 5, 62, 0
11, 195801, Note_on_c, 5, 50, 0
11, 195810, Note_on_c, 5, 62, 92
11, 195810, Note_on_c, 5, 50, 92
11, 195831, Note_on_c, 5, 62, 0
11, 195831, Note_on_c, 5, 50, 0
11, 195840, Note_on_c, 5, 50, 92
11, 195840, Note_on_c, 5, 62, 92
11, 195944, Note_on_c, 5, 50, 0
11, 195944, Note_on_c, 5, 62, 0
11, 195960, Note_on_c, 5, 62, 44
11, 195960, Note_on_c, 5, 50, 44
11, 196079, Note_on_c, 5, 62, 0
11, 196079, Note_on_c, 5, 50, 0
11, 196290, Note_on_c, 5, 50, 44
11, 196290, Note_on_c, 5, 62, 44
11, 196311, Note_on_c, 5, 50, 0
11, 196311, Note_on_c, 5, 62, 0
11, 196320, Note_on_c, 5, 62, 44
11, 196320, Note_on_c, 5, 50, 44
11, 196439, Note_on_c, 5, 62, 0
11, 196439, Note_on_c, 5, 50, 0
11, 196530, Note_on_c, 5, 50, 44
11, 196530, Note_on_c, 5, 62, 44
11, 196551, Note_on_c, 5, 50, 0
11, 196551, Note_on_c, 5, 62, 0
11, 196560, Note_on_c, 5, 50, 44
11, 196560, Note_on_c, 5, 62, 44
11, 196664, Note_on_c, 5, 50, 0
11, 196664, Note_on_c, 5, 62, 0
11, 196680, Note_on_c, 5, 62, 92
11, 196680, Note_on_c, 5, 50, 92
11, 196761, Note_on_c, 5, 62, 0
11, 196761, Note_on_c, 5, 50, 0
11, 196770, Note_on_c, 5, 50, 92
11, 196770, Note_on_c, 5, 62, 92
11, 196791, Note_on_c, 5, 50, 0
11, 196791, Note_on_c, 5, 62, 0
11, 196800, Note_on_c, 5, 62, 92
11, 196800, Note_on_c, 5, 50, 92
11, 196904, Note_on_c, 5, 62, 0
11, 196904, Note_on_c, 5, 50, 0
11, 196920, Note_on_c, 5, 50, 44
11, 196920, Note_on_c, 5, 62, 44
11, 197039, Note_on_c, 5, 50, 0
11, 197039, Note_on_c, 5, 62, 0
11, 197250, Note_on_c, 5, 62, 44
11, 197250, Note_on_c, 5, 50, 44
11, 197271, Note_on_c, 5, 62, 0
11, 197271, Note_on_c, 5, 50, 0
11, 197280, Note_on_c, 5, 62, 44
11, 197280, Note_on_c, 5, 50, 44
11, 197399, Note_on_c, 5, 62, 0
11, 197399, Note_on_c, 5, 50, 0
11, 197490, Note_on_c, 5, 50, 44
11, 197490, Note_on_c, 5, 62, 44
11, 197511, Note_on_c, 5, 50, 0
11, 197511, Note_on_c, 5, 62, 0
11, 197520, Note_on_c, 5, 50, 44
11, 197520, Note_on_c, 5, 62, 44
11, 197624, Note_on_c, 5, 50, 0
11, 197624, Note_on_c, 5, 62, 0
11, 197640, Note_on_c, 5, 62, 92
11, 197640, Note_on_c, 5, 50, 92
11, 197721, Note_on_c, 5, 62, 0
11, 197721, Note_on_c, 5, 50, 0
11, 197730, Note_on_c, 5, 50, 92
11, 197730, Note_on_c, 5, 62, 92
11, 197751, Note_on_c, 5, 50, 0
11, 197751, Note_on_c, 5, 62, 0
11, 197760, Note_on_c, 5, 46, 92
11, 197760, Note_on_c, 5, 58, 92
11, 197864, Note_on_c, 5, 46, 0
11, 197864, Note_on_c, 5, 58, 0
11, 197880, Note_on_c, 5, 46, 44
11, 197880, Note_on_c, 5, 58, 44
11, 197999, Note_on_c, 5, 46, 0
11, 197999, Note_on_c, 5, 58, 0
11, 200640, Note_on_c, 5, 62, 92
11, 200640, Note_on_c, 5, 50, 92
11, 200984, Note_on_c, 5, 62, 0
11, 200984, Note_on_c, 5, 50, 0
11, 201000, Note_on_c, 5, 50, 92
11, 201000, Note_on_c, 5, 62, 92
11, 201081, Note_on_c, 5, 50, 0
11, 201081, Note_on_c, 5, 62, 0
11, 201090, Note_on_c, 5, 62, 92
11, 201090, Note_on_c, 5, 50, 92
11, 201111, Note_on_c, 5, 62, 0
11, 201111, Note_on_c, 5, 50, 0
11, 201120, Note_on_c, 5, 50, 104
11, 201120, Note_on_c, 5, 62, 104
11, 201180, Control_c, 5, 11, 107
11, 201464, Note_on_c, 5, 50, 0
11, 201464, Note_on_c, 5, 62, 0
11, 201480, Note_on_c, 5, 62, 104
11, 201480, Note_on_c, 5, 50, 104
11, 201561, Note_on_c, 5, 62, 0
11, 201561, Note_on_c, 5, 50, 0
11, 201570, Note_on_c, 5, 62, 104
11, 201570, Note_on_c, 5, 50, 104
11, 201591, Note_on_c, 5, 62, 0
11, 201591, Note_on_c, 5, 50, 0
11, 201598, Control_c, 5, 11, 127
11, 201600, Note_on_c, 5, 50, 104
11, 201600, Note_on_c, 5, 62, 104
11, 201660, Control_c, 5, 11, 107
11, 201944, Note_on_c, 5, 50, 0
11, 201944, Note_on_c, 5, 62, 0
11, 201960, Note_on_c, 5, 50, 104
11, 201960, Note_on_c, 5, 62, 104
11, 202041, Note_on_c, 5, 50, 0
11, 202041, Note_on_c, 5, 62, 0
11, 202050, Note_on_c, 5, 50, 104
11, 202050, Note_on_c, 5, 62, 104
11, 202071, Note_on_c, 5, 50, 0
11, 202071, Note_on_c, 5, 62, 0
11, 202078, Control_c, 5, 11, 127
11, 202080, Note_on_c, 5, 62, 92
11, 202080, Note_on_c, 5, 50, 92
11, 202184, Note_on_c, 5, 62, 0
11, 202184, Note_on_c, 5, 50, 0
11, 202200, Note_on_c, 5, 50, 92
11, 202200, Note_on_c, 5, 62, 92
11, 202281, Note_on_c, 5, 50, 0
11, 202281, Note_on_c, 5, 62, 0
11, 202290, Note_on_c, 5, 62, 92
11, 202290, Note_on_c, 5, 50, 92
11, 202311, Note_on_c, 5, 62, 0
11, 202311, Note_on_c, 5, 50, 0
11, 202320, Note_on_c, 5, 50, 92
11, 202320, Note_on_c, 5, 62, 92
11, 202424, Note_on_c, 5, 50, 0
11, 202424, Note_on_c, 5, 62, 0
11, 202440, Note_on_c, 5, 50, 92
11, 202440, Note_on_c, 5, 62, 92
11, 202521, Note_on_c, 5, 50, 0
11, 202521, Note_on_c, 5, 62, 0
11, 202530, Note_on_c, 5, 50, 92
11, 202530, Note_on_c, 5, 62, 92
11, 202551, Note_on_c, 5, 50, 0
11, 202551, Note_on_c, 5, 62, 0
11, 202560, Note_on_c, 5, 62, 80
11, 202560, Note_on_c, 5, 50, 80
11, 202649, Note_on_c, 5, 62, 0
11, 202649, Note_on_c, 5, 50, 0
11, 202680, Note_on_c, 5, 50, 80
11, 202680, Note_on_c, 5, 62, 80
11, 202761, Note_on_c, 5, 50, 0
11, 202761, Note_on_c, 5, 62, 0
11, 202770, Note_on_c, 5, 62, 80
11, 202770, Note_on_c, 5, 50, 80
11, 202791, Note_on_c, 5, 62, 0
11, 202791, Note_on_c, 5, 50, 0
11, 202800, Note_on_c, 5, 50, 80
11, 202800, Note_on_c, 5, 62, 80
11, 202889, Note_on_c, 5, 50, 0
11, 202889, Note_on_c, 5, 62, 0
11, 202920, Note_on_c, 5, 62, 80
11, 202920, Note_on_c, 5, 50, 80
11, 203001, Note_on_c, 5, 62, 0
11, 203001, Note_on_c, 5, 50, 0
11, 203010, Note_on_c, 5, 50, 80
11, 203010, Note_on_c, 5, 62, 80
11, 203031, Note_on_c, 5, 50, 0
11, 203031, Note_on_c, 5, 62, 0
11, 203040, Note_on_c, 5, 50, 80
11, 203040, Note_on_c, 5, 62, 80
11, 203129, Note_on_c, 5, 50, 0
11, 203129, Note_on_c, 5, 62, 0
11, 203160, Note_on_c, 5, 50, 80
11, 203160, Note_on_c, 5, 62, 80
11, 203241, Note_on_c, 5, 50, 0
11, 203241, Note_on_c, 5, 62, 0
11, 203250, Note_on_c, 5, 62, 80
11, 203250, Note_on_c, 5, 50, 80
11, 203271, Note_on_c, 5, 62, 0
11, 203271, Note_on_c, 5, 50, 0
11, 203280, Note_on_c, 5, 50, 80
11, 203280, Note_on_c, 5, 62, 80
11, 203369, Note_on_c, 5, 50, 0
11, 203369, Note_on_c, 5, 62, 0
11, 203400, Note_on_c, 5, 62, 80
11, 203400, Note_on_c, 5, 50, 80
11, 203481, Note_on_c, 5, 62, 0
11, 203481, Note_on_c, 5, 50, 0
11, 203490, Note_on_c, 5, 50, 80
11, 203490, Note_on_c, 5, 62, 80
11, 203511, Note_on_c, 5, 50, 0
11, 203511, Note_on_c, 5, 62, 0
11, 203520, Note_on_c, 5, 50, 80
11, 203520, Note_on_c, 5, 62, 80
11, 203609, Note_on_c, 5, 50, 0
11, 203609, Note_on_c, 5, 62, 0
11, 203640, Note_on_c, 5, 62, 80
11, 203640, Note_on_c, 5, 50, 80
11, 203721, Note_on_c, 5, 62, 0
11, 203721, Note_on_c, 5, 50, 0
11, 203730, Note_on_c, 5, 50, 80
11, 203730, Note_on_c, 5, 62, 80
11, 203751, Note_on_c, 5, 50, 0
11, 203751, Note_on_c, 5, 62, 0
11, 203760, Note_on_c, 5, 62, 80
11, 203760, Note_on_c, 5, 50, 80
11, 203849, Note_on_c, 5, 62, 0
11, 203849, Note_on_c, 5, 50, 0
11, 203880, Note_on_c, 5, 62, 80
11, 203880, Note_on_c, 5, 50, 80
11, 203961, Note_on_c, 5, 62, 0
11, 203961, Note_on_c, 5, 50, 0
11, 203970, Note_on_c, 5, 50, 80
11, 203970, Note_on_c, 5, 62, 80
11, 203991, Note_on_c, 5, 50, 0
11, 203991, Note_on_c, 5, 62, 0
11, 204000, Note_on_c, 5, 62, 80
11, 204000, Note_on_c, 5, 50, 80
11, 204089, Note_on_c, 5, 62, 0
11, 204089, Note_on_c, 5, 50, 0
11, 204120, Note_on_c, 5, 62, 80
11, 204120, Note_on_c, 5, 50, 80
11, 204201, Note_on_c, 5, 62, 0
11, 204201, Note_on_c, 5, 50, 0
11, 204210, Note_on_c, 5, 50, 80
11, 204210, Note_on_c, 5, 62, 80
11, 204231, Note_on_c, 5, 50, 0
11, 204231, Note_on_c, 5, 62, 0
11, 204240, Note_on_c, 5, 62, 80
11, 204240, Note_on_c, 5, 50, 80
11, 204329, Note_on_c, 5, 62, 0
11, 204329, Note_on_c, 5, 50, 0
11, 204360, Note_on_c, 5, 62, 62
11, 204360, Note_on_c, 5, 50, 62
11, 204441, Note_on_c, 5, 62, 0
11, 204441, Note_on_c, 5, 50, 0
11, 204450, Note_on_c, 5, 50, 49
11, 204450, Note_on_c, 5, 62, 49
11, 204471, Note_on_c, 5, 50, 0
11, 204471, Note_on_c, 5, 62, 0
11, 204480, Note_on_c, 5, 62, 44
11, 204480, Note_on_c, 5, 50, 44
11, 206039, Note_on_c, 5, 62, 0
11, 206039, Note_on_c, 5, 50, 0
11, 207840, Control_c, 5, 11, 47
11, 208080, Note_on_c, 5, 60, 92
11, 208080, Note_on_c, 5, 63, 92
11, 210119, Note_on_c, 5, 63, 0
11, 210120, Note_on_c, 5, 62, 92
11, 210240, Control_c, 5, 11, 47
11, 210324, Control_c, 5, 11, 48
11, 210408, Control_c, 5, 11, 49
11, 210492, Control_c, 5, 11, 50
11, 210576, Control_c, 5, 11, 51
11, 210660, Control_c, 5, 11, 52
11, 210744, Control_c, 5, 11, 53
11, 210828, Control_c, 5, 11, 54
11, 210912, Control_c, 5, 11, 55
11, 210944, Note_on_c, 5, 60, 0
11, 210944, Note_on_c, 5, 62, 0
11, 210960, Note_on_c, 5, 62, 92
11, 210960, Note_on_c, 5, 50, 92
11, 210996, Control_c, 5, 11, 56
11, 211079, Note_on_c, 5, 62, 0
11, 211079, Note_on_c, 5, 50, 0
11, 211080, Control_c, 5, 11, 57
11, 211836, Control_c, 5, 11, 66
11, 211920, Note_on_c, 5, 58, 92
11, 211920, Control_c, 5, 11, 67
11, 211920, Note_on_c, 5, 60, 92
11, 212004, Control_c, 5, 11, 68
11, 212088, Control_c, 5, 11, 69
11, 212172, Control_c, 5, 11, 70
11, 212256, Control_c, 5, 11, 71
11, 212340, Control_c, 5, 11, 72
11, 212424, Control_c, 5, 11, 73
11, 212508, Control_c, 5, 11, 74
11, 212592, Control_c, 5, 11, 75
11, 212676, Control_c, 5, 11, 76
11, 212760, Control_c, 5, 11, 77
11, 212844, Control_c, 5, 11, 78
11, 212928, Control_c, 5, 11, 79
11, 213012, Control_c, 5, 11, 80
11, 213096, Control_c, 5, 11, 81
11, 213104, Note_on_c, 5, 58, 0
11, 213104, Note_on_c, 5, 60, 0
11, 213120, Note_on_c, 5, 61, 92
11, 213120, Note_on_c, 5, 58, 92
11, 213180, Control_c, 5, 11, 82
11, 213264, Control_c, 5, 11, 83
11, 213348, Control_c, 5, 11, 84
11, 213432, Control_c, 5, 11, 85
11, 213516, Control_c, 5, 11, 86
11, 213600, Control_c, 5, 11, 87
11, 213684, Control_c, 5, 11, 88
11, 213768, Control_c, 5, 11, 89
11, 213852, Control_c, 5, 11, 90
11, 213936, Control_c, 5, 11, 91
11, 214020, Control_c, 5, 11, 92
11, 214104, Control_c, 5, 11, 93
11, 214188, Control_c, 5, 11, 94
11, 214272, Control_c, 5, 11, 95
11, 214356, Control_c, 5, 11, 96
11, 214440, Control_c, 5, 11, 97
11, 214524, Control_c, 5, 11, 98
11, 214559, Note_on_c, 5, 61, 0
11, 214559, Note_on_c, 5, 58, 0
11, 214560, Note_on_c, 5, 61, 92
11, 214560, Note_on_c, 5, 58, 92
11, 214608, Control_c, 5, 11, 99
11, 214692, Control_c, 5, 11, 100
11, 214776, Control_c, 5, 11, 101
11, 214860, Control_c, 5, 11, 102
11, 214944, Control_c, 5, 11, 103
11, 215028, Control_c, 5, 11, 104
11, 215112, Control_c, 5, 11, 105
11, 215196, Control_c, 5, 11, 106
11, 215280, Control_c, 5, 11, 107
11, 215364, Control_c, 5, 11, 108
11, 215448, Control_c, 5, 11, 109
11, 215532, Control_c, 5, 11, 110
11, 215616, Control_c, 5, 11, 111
11, 215700, Control_c, 5, 11, 112
11, 215784, Control_c, 5, 11, 113
11, 215868, Control_c, 5, 11, 114
11, 215952, Control_c, 5, 11, 115
11, 216036, Control_c, 5, 11, 116
11, 216120, Control_c, 5, 11, 117
11, 216204, Control_c, 5, 11, 118
11, 216288, Control_c, 5, 11, 119
11, 216372, Control_c, 5, 11, 120
11, 216456, Control_c, 5, 11, 121
11, 216540, Control_c, 5, 11, 122
11, 216624, Control_c, 5, 11, 123
11, 216708, Control_c, 5, 11, 124
11, 216792, Control_c, 5, 11, 125
11, 216824, Note_on_c, 5, 61, 0
11, 216824, Note_on_c, 5, 58, 0
11, 216840, Note_on_c, 5, 58, 92
11, 216876, Control_c, 5, 11, 127
11, 216944, Note_on_c, 5, 58, 0
11, 216960, Note_on_c, 5, 50, 92
11, 216960, Note_on_c, 5, 62, 92
11, 217439, Note_on_c, 5, 50, 0
11, 217439, Note_on_c, 5, 62, 0
11, 217920, Note_on_c, 5, 65, 92
11, 217920, Note_on_c, 5, 53, 92
11, 217971, Note_on_c, 5, 65, 0
11, 217971, Note_on_c, 5, 53, 0
11, 217980, Note_on_c, 5, 65, 92
11, 217980, Note_on_c, 5, 53, 92
11, 218091, Note_on_c, 5, 65, 0
11, 218091, Note_on_c, 5, 53, 0
11, 218100, Note_on_c, 5, 53, 92
11, 218100, Note_on_c, 5, 65, 92
11, 218211, Note_on_c, 5, 53, 0
11, 218211, Note_on_c, 5, 65, 0
11, 218220, Note_on_c, 5, 53, 92
11, 218220, Note_on_c, 5, 65, 92
11, 218331, Note_on_c, 5, 53, 0
11, 218331, Note_on_c, 5, 65, 0
11, 218340, Note_on_c, 5, 65, 92
11, 218340, Note_on_c, 5, 53, 92
11, 218391, Note_on_c, 5, 65, 0
11, 218391, Note_on_c, 5, 53, 0
11, 218400, Note_on_c, 5, 46, 92
11, 218400, Note_on_c, 5, 58, 92
11, 218504, Note_on_c, 5, 46, 0
11, 218504, Note_on_c, 5, 58, 0
11, 218520, Note_on_c, 5, 50, 92
11, 218520, Note_on_c, 5, 62, 92
11, 218624, Note_on_c, 5, 50, 0
11, 218624, Note_on_c, 5, 62, 0
11, 218640, Note_on_c, 5, 62, 92
11, 218640, Note_on_c, 5, 50, 92
11, 218759, Note_on_c, 5, 62, 0
11, 218759, Note_on_c, 5, 50, 0
11, 219600, Control_c, 5, 11, 67
11, 219840, Note_on_c, 5, 53, 80
11, 219840, Note_on_c, 5, 65, 80
11, 219840, Control_c, 5, 11, 67
11, 219872, Control_c, 5, 11, 68
11, 219904, Control_c, 5, 11, 69
11, 219936, Control_c, 5, 11, 70
11, 219968, Control_c, 5, 11, 71
11, 220000, Control_c, 5, 11, 72
11, 220032, Control_c, 5, 11, 73
11, 220064, Control_c, 5, 11, 74
11, 220096, Control_c, 5, 11, 75
11, 220128, Control_c, 5, 11, 76
11, 220160, Control_c, 5, 11, 77
11, 220192, Control_c, 5, 11, 78
11, 220224, Control_c, 5, 11, 79
11, 220256, Control_c, 5, 11, 80
11, 220288, Control_c, 5, 11, 81
11, 220320, Control_c, 5, 11, 82
11, 220352, Control_c, 5, 11, 83
11, 220371, Note_on_c, 5, 53, 0
11, 220371, Note_on_c, 5, 65, 0
11, 220380, Note_on_c, 5, 53, 80
11, 220380, Note_on_c, 5, 65, 80
11, 220384, Control_c, 5, 11, 84
11, 220416, Control_c, 5, 11, 85
11, 220448, Control_c, 5, 11, 86
11, 220480, Control_c, 5, 11, 87
11, 220491, Note_on_c, 5, 53, 0
11, 220491, Note_on_c, 5, 65, 0
11, 220500, Note_on_c, 5, 65, 80
11, 220500, Note_on_c, 5, 53, 80
11, 220512, Control_c, 5, 11, 88
11, 220544, Control_c, 5, 11, 89
11, 220576, Control_c, 5, 11, 90
11, 220608, Control_c, 5, 11, 91
11, 220611, Note_on_c, 5, 65, 0
11, 220611, Note_on_c, 5, 53, 0
11, 220620, Note_on_c, 5, 65, 80
11, 220620, Note_on_c, 5, 53, 80
11, 220640, Control_c, 5, 11, 92
11, 220672, Control_c, 5, 11, 93
11, 220704, Control_c, 5, 11, 94
11, 220731, Note_on_c, 5, 65, 0
11, 220731, Note_on_c, 5, 53, 0
11, 220736, Control_c, 5, 11, 95
11, 220740, Note_on_c, 5, 65, 80
11, 220740, Note_on_c, 5, 53, 80
11, 220768, Control_c, 5, 11, 96
11, 220791, Note_on_c, 5, 65, 0
11, 220791, Note_on_c, 5, 53, 0
11, 220800, Note_on_c, 5, 62, 80
11, 220800, Control_c, 5, 11, 97
11, 220800, Note_on_c, 5, 50, 80
11, 220832, Control_c, 5, 11, 98
11, 220864, Control_c, 5, 11, 99
11, 220896, Control_c, 5, 11, 100
11, 220919, Note_on_c, 5, 62, 0
11, 220919, Note_on_c, 5, 50, 0
11, 220928, Control_c, 5, 11, 101
11, 221728, Control_c, 5, 11, 127
11, 221880, Note_on_c, 5, 46, 80
11, 221880, Note_on_c, 5, 58, 80
11, 221961, Note_on_c, 5, 46, 0
11, 221961, Note_on_c, 5, 58, 0
11, 221970, Note_on_c, 5, 46, 80
11, 221970, Note_on_c, 5, 58, 80
11, 221991, Note_on_c, 5, 46, 0
11, 221991, Note_on_c, 5, 58, 0
11, 222000, Note_on_c, 5, 58, 80
11, 222000, Note_on_c, 5, 46, 80
11, 222119, Note_on_c, 5, 58, 0
11, 222119, Note_on_c, 5, 46, 0
11, 222360, Note_on_c, 5, 58, 80
11, 222360, Note_on_c, 5, 46, 80
11, 222441, Note_on_c, 5, 58, 0
11, 222441, Note_on_c, 5, 46, 0
11, 222450, Note_on_c, 5, 46, 80
11, 222450, Note_on_c, 5, 58, 80
11, 222471, Note_on_c, 5, 46, 0
11, 222471, Note_on_c, 5, 58, 0
11, 222480, Note_on_c, 5, 58, 80
11, 222480, Note_on_c, 5, 46, 80
11, 222599, Note_on_c, 5, 58, 0
11, 222599, Note_on_c, 5, 46, 0
11, 223800, Note_on_c, 5, 62, 80
11, 223800, Note_on_c, 5, 50, 80
11, 223881, Note_on_c, 5, 62, 0
11, 223881, Note_on_c, 5, 50, 0
11, 223890, Note_on_c, 5, 50, 80
11, 223890, Note_on_c, 5, 62, 80
11, 223911, Note_on_c, 5, 50, 0
11, 223911, Note_on_c, 5, 62, 0
11, 223920, Note_on_c, 5, 50, 80
11, 223920, Note_on_c, 5, 62, 80
11, 224024, Note_on_c, 5, 50, 0
11, 224024, Note_on_c, 5, 62, 0
11, 224040, Note_on_c, 5, 50, 80
11, 224040, Note_on_c, 5, 62, 80
11, 224121, Note_on_c, 5, 50, 0
11, 224121, Note_on_c, 5, 62, 0
11, 224130, Note_on_c, 5, 50, 80
11, 224130, Note_on_c, 5, 62, 80
11, 224151, Note_on_c, 5, 50, 0
11, 224151, Note_on_c, 5, 62, 0
11, 224160, Note_on_c, 5, 50, 80
11, 224160, Note_on_c, 5, 62, 80
11, 224279, Note_on_c, 5, 50, 0
11, 224279, Note_on_c, 5, 62, 0
11, 233640, Note_on_c, 5, 63, 74
11, 233864, Note_on_c, 5, 63, 0
11, 233880, Note_on_c, 5, 60, 76
11, 233984, Note_on_c, 5, 60, 0
11, 234000, Note_on_c, 5, 60, 77
11, 234119, Note_on_c, 5, 60, 0
11, 234960, Control_c, 5, 11, 127
11, 234993, Control_c, 5, 11, 124
11, 235027, Control_c, 5, 11, 120
11, 235060, Control_c, 5, 11, 117
11, 235080, Note_on_c, 5, 58, 80
11, 235080, Note_on_c, 5, 46, 80
11, 235093, Control_c, 5, 11, 114
11, 235127, Control_c, 5, 11, 110
11, 235160, Control_c, 5, 11, 107
11, 235193, Control_c, 5, 11, 104
11, 235227, Control_c, 5, 11, 100
11, 235260, Control_c, 5, 11, 97
11, 235293, Control_c, 5, 11, 94
11, 235304, Note_on_c, 5, 58, 0
11, 235304, Note_on_c, 5, 46, 0
11, 235320, Note_on_c, 5, 58, 80
11, 235320, Note_on_c, 5, 46, 80
11, 235327, Control_c, 5, 11, 90
11, 235360, Control_c, 5, 11, 87
11, 235393, Control_c, 5, 11, 84
11, 235424, Note_on_c, 5, 58, 0
11, 235424, Note_on_c, 5, 46, 0
11, 235427, Control_c, 5, 11, 80
11, 235440, Note_on_c, 5, 58, 80
11, 235440, Note_on_c, 5, 46, 80
11, 235460, Control_c, 5, 11, 77
11, 235493, Control_c, 5, 11, 74
11, 235527, Control_c, 5, 11, 67
11, 235544, Note_on_c, 5, 58, 0
11, 235544, Note_on_c, 5, 46, 0
11, 235560, Note_on_c, 5, 46, 80
11, 235560, Note_on_c, 5, 58, 80
11, 235680, Control_c, 5, 11, 57
11, 235784, Note_on_c, 5, 46, 0
11, 235784, Note_on_c, 5, 58, 0
11, 235800, Note_on_c, 5, 58, 80
11, 235800, Note_on_c, 5, 46, 80
11, 235904, Note_on_c, 5, 58, 0
11, 235904, Note_on_c, 5, 46, 0
11, 235920, Note_on_c, 5, 46, 80
11, 235920, Note_on_c, 5, 58, 80
11, 236024, Note_on_c, 5, 46, 0
11, 236024, Note_on_c, 5, 58, 0
11, 236040, Note_on_c, 5, 58, 80
11, 236040, Note_on_c, 5, 46, 80
11, 236160, Control_c, 5, 11, 47
11, 236264, Note_on_c, 5, 58, 0
11, 236264, Note_on_c, 5, 46, 0
11, 236280, Note_on_c, 5, 50, 80
11, 236280, Note_on_c, 5, 62, 80
11, 236384, Note_on_c, 5, 50, 0
11, 236384, Note_on_c, 5, 62, 0
11, 236400, Note_on_c, 5, 50, 80
11, 236400, Note_on_c, 5, 62, 80
11, 236504, Note_on_c, 5, 50, 0
11, 236504, Note_on_c, 5, 62, 0
11, 236520, Note_on_c, 5, 50, 80
11, 236520, Note_on_c, 5, 62, 80
11, 236744, Note_on_c, 5, 50, 0
11, 236744, Note_on_c, 5, 62, 0
11, 236760, Note_on_c, 5, 62, 80
11, 236760, Note_on_c, 5, 50, 80
11, 236849, Note_on_c, 5, 62, 0
11, 236849, Note_on_c, 5, 50, 0
11, 236880, Note_on_c, 5, 50, 80
11, 236880, Note_on_c, 5, 62, 80
11, 236969, Note_on_c, 5, 50, 0
11, 236969, Note_on_c, 5, 62, 0
11, 237000, Note_on_c, 5, 65, 80
11, 237000, Note_on_c, 5, 53, 80
11, 237599, Note_on_c, 5, 65, 0
11, 237599, Note_on_c, 5, 53, 0
11, 237840, Control_c, 5, 11, 127
11, 238080, Note_on_c, 5, 62, 80
11, 238080, Note_on_c, 5, 50, 80
11, 238131, Note_on_c, 5, 62, 0
11, 238131, Note_on_c, 5, 50, 0
11, 238140, Note_on_c, 5, 50, 80
11, 238140, Note_on_c, 5, 62, 80
11, 238251, Note_on_c, 5, 50, 0
11, 238251, Note_on_c, 5, 62, 0
11, 238260, Note_on_c, 5, 50, 80
11, 238260, Note_on_c, 5, 62, 80
11, 238371, Note_on_c, 5, 50, 0
11, 238371, Note_on_c, 5, 62, 0
11, 238380, Note_on_c, 5, 62, 80
11, 238380, Note_on_c, 5, 50, 80
11, 238491, Note_on_c, 5, 62, 0
11, 238491, Note_on_c, 5, 50, 0
11, 238500, Note_on_c, 5, 62, 80
11, 238500, Note_on_c, 5, 50, 80
11, 238551, Note_on_c, 5, 62, 0
11, 238551, Note_on_c, 5, 50, 0
11, 238560, Note_on_c, 5, 58, 80
11, 238560, Note_on_c, 5, 62, 80
11, 238664, Note_on_c, 5, 58, 0
11, 238664, Note_on_c, 5, 62, 0
11, 238680, Note_on_c, 5, 58, 80
11, 238680, Note_on_c, 5, 62, 80
11, 238799, Note_on_c, 5, 58, 0
11, 238799, Note_on_c, 5, 62, 0
11, 240960, Note_on_c, 5, 65, 80
11, 240960, Note_on_c, 5, 53, 80
11, 241011, Note_on_c, 5, 65, 0
11, 241011, Note_on_c, 5, 53, 0
11, 241020, Note_on_c, 5, 65, 80
11, 241020, Note_on_c, 5, 53, 80
11, 241131, Note_on_c, 5, 65, 0
11, 241131, Note_on_c, 5, 53, 0
11, 241140, Note_on_c, 5, 65, 80
11, 241140, Note_on_c, 5, 53, 80
11, 241251, Note_on_c, 5, 65, 0
11, 241251, Note_on_c, 5, 53, 0
11, 241260, Note_on_c, 5, 65, 80
11, 241260, Note_on_c, 5, 53, 80
11, 241371, Note_on_c, 5, 65, 0
11, 241371, Note_on_c, 5, 53, 0
11, 241380, Note_on_c, 5, 53, 80
11, 241380, Note_on_c, 5, 65, 80
11, 241439, Note_on_c, 5, 53, 0
11, 241439, Note_on_c, 5, 65, 0
11, 241440, Note_on_c, 5, 58, 80
11, 241440, Note_on_c, 5, 46, 80
11, 241491, Note_on_c, 5, 58, 0
11, 241491, Note_on_c, 5, 46, 0
11, 241500, Note_on_c, 5, 50, 80
11, 241500, Note_on_c, 5, 62, 80
11, 241611, Note_on_c, 5, 50, 0
11, 241611, Note_on_c, 5, 62, 0
11, 241620, Note_on_c, 5, 62, 80
11, 241620, Note_on_c, 5, 50, 80
11, 241799, Note_on_c, 5, 62, 0
11, 241799, Note_on_c, 5, 50, 0
11, 246000, Note_on_c, 5, 50, 44
11, 246000, Note_on_c, 5, 62, 44
11, 246359, Note_on_c, 5, 50, 0
11, 246359, Note_on_c, 5, 62, 0
11, 246420, Note_on_c, 5, 50, 44
11, 246420, Note_on_c, 5, 62, 44
11, 246471, Note_on_c, 5, 50, 0
11, 246471, Note_on_c, 5, 62, 0
11, 246480, Note_on_c, 5, 50, 44
11, 246480, Note_on_c, 5, 62, 44
11, 246599, Note_on_c, 5, 50, 0
11, 246599, Note_on_c, 5, 62, 0
11, 246660, Note_on_c, 5, 62, 44
11, 246660, Note_on_c, 5, 50, 44
11, 246711, Note_on_c, 5, 62, 0
11, 246711, Note_on_c, 5, 50, 0
11, 246720, Note_on_c, 5, 62, 44
11, 246720, Note_on_c, 5, 50, 44
11, 246959, Note_on_c, 5, 62, 0
11, 246959, Note_on_c, 5, 50, 0
11, 247920, Note_on_c, 5, 50, 44
11, 247920, Note_on_c, 5, 53, 44
11, 248279, Note_on_c, 5, 50, 0
11, 248279, Note_on_c, 5, 53, 0
11, 248340, Note_on_c, 5, 53, 44
11, 248340, Note_on_c, 5, 50, 44
11, 248391, Note_on_c, 5, 53, 0
11, 248391, Note_on_c, 5, 50, 0
11, 248400, Note_on_c, 5, 50, 44
11, 248400, Note_on_c, 5, 53, 44
11, 248519, Note_on_c, 5, 50, 0
11, 248519, Note_on_c, 5, 53, 0
11, 248580, Note_on_c, 5, 50, 44
11, 248580, Note_on_c, 5, 53, 44
11, 248631, Note_on_c, 5, 50, 0
11, 248631, Note_on_c, 5, 53, 0
11, 248640, Note_on_c, 5, 50, 44
11, 248640, Note_on_c, 5, 53, 44
11, 248759, Note_on_c, 5, 50, 0
11, 248759, Note_on_c, 5, 53, 0
11, 249600, Note_on_c, 5, 62, 44
11, 249600, Note_on_c, 5, 50, 44
11, 249719, Note_on_c, 5, 62, 0
11, 249719, Note_on_c, 5, 50, 0
11, 250560, Note_on_c, 5, 62, 56
11, 250560, Note_on_c, 5, 50, 56
11, 250799, Note_on_c, 5, 62, 0
11, 250799, Note_on_c, 5, 50, 0
11, 251520, Note_on_c, 5, 62, 68
11, 251520, Note_on_c, 5, 50, 68
11, 251759, Note_on_c, 5, 62, 0
11, 251759, Note_on_c, 5, 50, 0
11, 252480, Note_on_c, 5, 62, 80
11, 252480, Note_on_c, 5, 50, 80
11, 252719, Note_on_c, 5, 62, 0
11, 252719, Note_on_c, 5, 50, 0
11, 252960, Note_on_c, 5, 62, 86
11, 252960, Note_on_c, 5, 50, 86
11, 253079, Note_on_c, 5, 62, 0
11, 253079, Note_on_c, 5, 50, 0
11, 253440, Note_on_c, 5, 50, 86
11, 253440, Note_on_c, 5, 62, 86
11, 253559, Note_on_c, 5, 50, 0
11, 253559, Note_on_c, 5, 62, 0
11, 253920, Note_on_c, 5, 62, 86
11, 253920, Note_on_c, 5, 50, 86
11, 254039, Note_on_c, 5, 62, 0
11, 254039, Note_on_c, 5, 50, 0
11, 254400, Note_on_c, 5, 62, 92
11, 254400, Note_on_c, 5, 50, 92
11, 254841, Note_on_c, 5, 62, 0
11, 254841, Note_on_c, 5, 50, 0
11, 254850, Note_on_c, 5, 50, 92
11, 254850, Note_on_c, 5, 62, 92
11, 254871, Note_on_c, 5, 50, 0
11, 254871, Note_on_c, 5, 62, 0
11, 254880, Note_on_c, 5, 50, 92
11, 254880, Note_on_c, 5, 62, 92
11, 255321, Note_on_c, 5, 50, 0
11, 255321, Note_on_c, 5, 62, 0
11, 255330, Note_on_c, 5, 62, 92
11, 255330, Note_on_c, 5, 50, 92
11, 255351, Note_on_c, 5, 62, 0
11, 255351, Note_on_c, 5, 50, 0
11, 255360, Note_on_c, 5, 62, 92
11, 255360, Note_on_c, 5, 50, 92
11, 255779, Note_on_c, 5, 62, 0
11, 255779, Note_on_c, 5, 50, 0
11, 256320, Note_on_c, 5, 50, 92
11, 256320, Note_on_c, 5, 62, 92
11, 256761, Note_on_c, 5, 50, 0
11, 256761, Note_on_c, 5, 62, 0
11, 256770, Note_on_c, 5, 50, 92
11, 256770, Note_on_c, 5, 62, 92
11, 256791, Note_on_c, 5, 50, 0
11, 256791, Note_on_c, 5, 62, 0
11, 256800, Note_on_c, 5, 50, 92
11, 256800, Note_on_c, 5, 62, 92
11, 257241, Note_on_c, 5, 50, 0
11, 257241, Note_on_c, 5, 62, 0
11, 257250, Note_on_c, 5, 62, 92
11, 257250, Note_on_c, 5, 50, 92
11, 257271, Note_on_c, 5, 62, 0
11, 257271, Note_on_c, 5, 50, 0
11, 257280, Note_on_c, 5, 53, 92
11, 257280, Note_on_c, 5, 65, 92
11, 257721, Note_on_c, 5, 53, 0
11, 257721, Note_on_c, 5, 65, 0
11, 257730, Note_on_c, 5, 53, 92
11, 257730, Note_on_c, 5, 65, 92
11, 257751, Note_on_c, 5, 53, 0
11, 257751, Note_on_c, 5, 65, 0
11, 257760, Note_on_c, 5, 65, 92
11, 257760, Note_on_c, 5, 53, 92
11, 258201, Note_on_c, 5, 65, 0
11, 258201, Note_on_c, 5, 53, 0
11, 258210, Note_on_c, 5, 53, 92
11, 258210, Note_on_c, 5, 65, 92
11, 258231, Note_on_c, 5, 53, 0
11, 258231, Note_on_c, 5, 65, 0
11, 258240, Note_on_c, 5, 53, 92
11, 258240, Note_on_c, 5, 65, 92
11, 258681, Note_on_c, 5, 53, 0
11, 258681, Note_on_c, 5, 65, 0
11, 258690, Note_on_c, 5, 65, 92
11, 258690, Note_on_c, 5, 53, 92
11, 258711, Note_on_c, 5, 65, 0
11, 258711, Note_on_c, 5, 53, 0
11, 258720, Note_on_c, 5, 53, 92
11, 258720, Note_on_c, 5, 65, 92
11, 258921, Note_on_c, 5, 53, 0
11, 258921, Note_on_c, 5, 65, 0
11, 258930, Note_on_c, 5, 65, 92
11, 258930, Note_on_c, 5, 53, 92
11, 258951, Note_on_c, 5, 65, 0
11, 258951, Note_on_c, 5, 53, 0
11, 258960, Note_on_c, 5, 53, 92
11, 258960, Note_on_c, 5, 65, 92
11, 259161, Note_on_c, 5, 53, 0
11, 259161, Note_on_c, 5, 65, 0
11, 259170, Note_on_c, 5, 53, 92
11, 259170, Note_on_c, 5, 65, 92
11, 259191, Note_on_c, 5, 53, 0
11, 259191, Note_on_c, 5, 65, 0
11, 259200, Note_on_c, 5, 65, 92
11, 259200, Note_on_c, 5, 53, 92
11, 259319, Note_on_c, 5, 65, 0
11, 259319, Note_on_c, 5, 53, 0
11, 259380, Note_on_c, 5, 53, 92
11, 259380, Note_on_c, 5, 65, 92
11, 259431, Note_on_c, 5, 53, 0
11, 259431, Note_on_c, 5, 65, 0
11, 259440, Note_on_c, 5, 65, 92
11, 259440, Note_on_c, 5, 53, 92
11, 259559, Note_on_c, 5, 65, 0
11, 259559, Note_on_c, 5, 53, 0
11, 259620, Note_on_c, 5, 65, 92
11, 259620, Note_on_c, 5, 53, 92
11, 259671, Note_on_c, 5, 65, 0
11, 259671, Note_on_c, 5, 53, 0
11, 259680, Note_on_c, 5, 65, 92
11, 259680, Note_on_c, 5, 53, 92
11, 259799, Note_on_c, 5, 65, 0
11, 259799, Note_on_c, 5, 53, 0
11, 259860, Note_on_c, 5, 53, 92
11, 259860, Note_on_c, 5, 65, 92
11, 259911, Note_on_c, 5, 53, 0
11, 259911, Note_on_c, 5, 65, 0
11, 259920, Note_on_c, 5, 53, 92
11, 259920, Note_on_c, 5, 65, 92
11, 260039, Note_on_c, 5, 53, 0
11, 260039, Note_on_c, 5, 65, 0
11, 260100, Note_on_c, 5, 53, 92
11, 260100, Note_on_c, 5, 65, 92
11, 260151, Note_on_c, 5, 53, 0
11, 260151, Note_on_c, 5, 65, 0
11, 260160, Note_on_c, 5, 65, 92
11, 260160, Note_on_c, 5, 53, 92
11, 260399, Note_on_c, 5, 65, 0
11, 260399, Note_on_c, 5, 53, 0
11, 260640, Note_on_c, 5, 53, 104
11, 260640, Note_on_c, 5, 65, 104
11, 260700, Control_c, 5, 11, 107
11, 260879, Note_on_c, 5, 53, 0
11, 260879, Note_on_c, 5, 65, 0
11, 261000, Control_c, 5, 11, 127
11, 261120, Note_on_c, 5, 50, 92
11, 261120, Note_on_c, 5, 62, 92
11, 261359, Note_on_c, 5, 50, 0
11, 261359, Note_on_c, 5, 62, 0
11, 262080, Note_on_c, 5, 62, 92
11, 262080, Note_on_c, 5, 50, 92
11, 262199, Note_on_c, 5, 62, 0
11, 262199, Note_on_c, 5, 50, 0
11, 262199, End_track
12, 0, Start_track
12, 0, Title_t, "Trumpet in D"
12, 0, MIDI_port, 0
12, 0, Program_c, 6, 56
12, 0, Control_c, 6, 7, 112
12, 0, Control_c, 6, 10, 60
12, 0, Control_c, 6, 11, 127
12, 7650, Note_on_c, 6, 74, 92
12, 7650, Note_on_c, 6, 62, 92
12, 7671, Note_on_c, 6, 74, 0
12, 7671, Note_on_c, 6, 62, 0
12, 7680, Note_on_c, 6, 57, 92
12, 7680, Note_on_c, 6, 69, 92
12, 8121, Note_on_c, 6, 57, 0
12, 8121, Note_on_c, 6, 69, 0
12, 8130, Note_on_c, 6, 74, 92
12, 8130, Note_on_c, 6, 62, 92
12, 8151, Note_on_c, 6, 74, 0
12, 8151, Note_on_c, 6, 62, 0
12, 8160, Note_on_c, 6, 62, 92
12, 8160, Note_on_c, 6, 74, 92
12, 8361, Note_on_c, 6, 62, 0
12, 8361, Note_on_c, 6, 74, 0
12, 8370, Note_on_c, 6, 57, 92
12, 8370, Note_on_c, 6, 69, 92
12, 8391, Note_on_c, 6, 57, 0
12, 8391, Note_on_c, 6, 69, 0
12, 8400, Note_on_c, 6, 74, 92
12, 8400, Note_on_c, 6, 62, 92
12, 8571, Note_on_c, 6, 74, 0
12, 8571, Note_on_c, 6, 62, 0
12, 8580, Note_on_c, 6, 62, 92
12, 8580, Note_on_c, 6, 74, 92
12, 8601, Note_on_c, 6, 62, 0
12, 8601, Note_on_c, 6, 74, 0
12, 8610, Note_on_c, 6, 62, 92
12, 8610, Note_on_c, 6, 74, 92
12, 8631, Note_on_c, 6, 62, 0
12, 8631, Note_on_c, 6, 74, 0
12, 8640, Note_on_c, 6, 74, 92
12, 8640, Note_on_c, 6, 62, 92
12, 8924, Note_on_c, 6, 74, 0
12, 8924, Note_on_c, 6, 62, 0
12, 8940, Note_on_c, 6, 74, 92
12, 8940, Note_on_c, 6, 62, 92
12, 8984, Note_on_c, 6, 74, 0
12, 8984, Note_on_c, 6, 62, 0
12, 9000, Note_on_c, 6, 62, 92
12, 9000, Note_on_c, 6, 74, 92
12, 9044, Note_on_c, 6, 62, 0
12, 9044, Note_on_c, 6, 74, 0
12, 9060, Note_on_c, 6, 74, 92
12, 9060, Note_on_c, 6, 62, 92
12, 9104, Note_on_c, 6, 74, 0
12, 9104, Note_on_c, 6, 62, 0
12, 9120, Note_on_c, 6, 57, 92
12, 9120, Note_on_c, 6, 69, 92
12, 9209, Note_on_c, 6, 57, 0
12, 9209, Note_on_c, 6, 69, 0
12, 9240, Note_on_c, 6, 69, 92
12, 9240, Note_on_c, 6, 57, 92
12, 9329, Note_on_c, 6, 69, 0
12, 9329, Note_on_c, 6, 57, 0
12, 9360, Note_on_c, 6, 57, 92
12, 9360, Note_on_c, 6, 69, 92
12, 9449, Note_on_c, 6, 57, 0
12, 9449, Note_on_c, 6, 69, 0
12, 9480, Note_on_c, 6, 69, 92
12, 9480, Note_on_c, 6, 57, 92
12, 9569, Note_on_c, 6, 69, 0
12, 9569, Note_on_c, 6, 57, 0
12, 9600, Note_on_c, 6, 74, 104
12, 9600, Note_on_c, 6, 62, 104
12, 9719, Note_on_c, 6, 74, 0
12, 9719, Note_on_c, 6, 62, 0
12, 9840, Note_on_c, 6, 57, 104
12, 9840, Note_on_c, 6, 69, 104
12, 9959, Note_on_c, 6, 57, 0
12, 9959, Note_on_c, 6, 69, 0
12, 10080, Note_on_c, 6, 62, 104
12, 10080, Note_on_c, 6, 74, 104
12, 10199, Note_on_c, 6, 62, 0
12, 10199, Note_on_c, 6, 74, 0
12, 10560, Note_on_c, 6, 62, 104
12, 10560, Note_on_c, 6, 74, 104
12, 10679, Note_on_c, 6, 62, 0
12, 10679, Note_on_c, 6, 74, 0
12, 10800, Note_on_c, 6, 62, 104
12, 10800, Note_on_c, 6, 74, 104
12, 10919, Note_on_c, 6, 62, 0
12, 10919, Note_on_c, 6, 74, 0
12, 11040, Note_on_c, 6, 79, 80
12, 11159, Note_on_c, 6, 79, 0
12, 12600, Note_on_c, 6, 57, 80
12, 12600, Note_on_c, 6, 69, 80
12, 12681, Note_on_c, 6, 57, 0
12, 12681, Note_on_c, 6, 69, 0
12, 12690, Note_on_c, 6, 69, 80
12, 12690, Note_on_c, 6, 57, 80
12, 12711, Note_on_c, 6, 69, 0
12, 12711, Note_on_c, 6, 57, 0
12, 12720, Note_on_c, 6, 69, 80
12, 12720, Note_on_c, 6, 57, 80
12, 12824, Note_on_c, 6, 69, 0
12, 12824, Note_on_c, 6, 57, 0
12, 12840, Note_on_c, 6, 69, 80
12, 12840, Note_on_c, 6, 57, 80
12, 12944, Note_on_c, 6, 69, 0
12, 12944, Note_on_c, 6, 57, 0
12, 12960, Note_on_c, 6, 57, 44
12, 12960, Note_on_c, 6, 69, 44
12, 13079, Note_on_c, 6, 57, 0
12, 13079, Note_on_c, 6, 69, 0
12, 13440, Note_on_c, 6, 57, 80
12, 13440, Note_on_c, 6, 69, 80
12, 13544, Note_on_c, 6, 57, 0
12, 13544, Note_on_c, 6, 69, 0
12, 13560, Note_on_c, 6, 57, 80
12, 13560, Note_on_c, 6, 69, 80
12, 13641, Note_on_c, 6, 57, 0
12, 13641, Note_on_c, 6, 69, 0
12, 13650, Note_on_c, 6, 57, 80
12, 13650, Note_on_c, 6, 69, 80
12, 13671, Note_on_c, 6, 57, 0
12, 13671, Note_on_c, 6, 69, 0
12, 13680, Note_on_c, 6, 57, 80
12, 13680, Note_on_c, 6, 69, 80
12, 13784, Note_on_c, 6, 57, 0
12, 13784, Note_on_c, 6, 69, 0
12, 13800, Note_on_c, 6, 57, 80
12, 13800, Note_on_c, 6, 69, 80
12, 13904, Note_on_c, 6, 57, 0
12, 13904, Note_on_c, 6, 69, 0
12, 13920, Note_on_c, 6, 69, 44
12, 13920, Note_on_c, 6, 57, 44
12, 14039, Note_on_c, 6, 69, 0
12, 14039, Note_on_c, 6, 57, 0
12, 14400, Note_on_c, 6, 69, 80
12, 14400, Note_on_c, 6, 57, 80
12, 14519, Note_on_c, 6, 69, 0
12, 14519, Note_on_c, 6, 57, 0
12, 14640, Note_on_c, 6, 57, 92
12, 14640, Note_on_c, 6, 69, 92
12, 14759, Note_on_c, 6, 57, 0
12, 14759, Note_on_c, 6, 69, 0
12, 15120, Note_on_c, 6, 74, 92
12, 15120, Note_on_c, 6, 62, 92
12, 15239, Note_on_c, 6, 74, 0
12, 15239, Note_on_c, 6, 62, 0
12, 15600, Note_on_c, 6, 62, 92
12, 15600, Note_on_c, 6, 74, 92
12, 15719, Note_on_c, 6, 62, 0
12, 15719, Note_on_c, 6, 74, 0
12, 15840, Note_on_c, 6, 69, 80
12, 15840, Note_on_c, 6, 57, 80
12, 16319, Note_on_c, 6, 69, 0
12, 16319, Note_on_c, 6, 57, 0
12, 16560, Note_on_c, 6, 62, 44
12, 16679, Note_on_c, 6, 62, 0
12, 23970, Note_on_c, 6, 62, 92
12, 23970, Note_on_c, 6, 74, 92
12, 23991, Note_on_c, 6, 62, 0
12, 23991, Note_on_c, 6, 74, 0
12, 24000, Note_on_c, 6, 62, 92
12, 24000, Note_on_c, 6, 74, 92
12, 24441, Note_on_c, 6, 62, 0
12, 24441, Note_on_c, 6, 74, 0
12, 24450, Note_on_c, 6, 74, 92
12, 24450, Note_on_c, 6, 62, 92
12, 24471, Note_on_c, 6, 74, 0
12, 24471, Note_on_c, 6, 62, 0
12, 24480, Note_on_c, 6, 62, 92
12, 24480, Note_on_c, 6, 74, 92
12, 24681, Note_on_c, 6, 62, 0
12, 24681, Note_on_c, 6, 74, 0
12, 24690, Note_on_c, 6, 62, 92
12, 24690, Note_on_c, 6, 74, 92
12, 24711, Note_on_c, 6, 62, 0
12, 24711, Note_on_c, 6, 74, 0
12, 24720, Note_on_c, 6, 62, 92
12, 24720, Note_on_c, 6, 74, 92
12, 24891, Note_on_c, 6, 62, 0
12, 24891, Note_on_c, 6, 74, 0
12, 24900, Note_on_c, 6, 62, 92
12, 24900, Note_on_c, 6, 74, 92
12, 24921, Note_on_c, 6, 62, 0
12, 24921, Note_on_c, 6, 74, 0
12, 24930, Note_on_c, 6, 74, 92
12, 24930, Note_on_c, 6, 62, 92
12, 24951, Note_on_c, 6, 74, 0
12, 24951, Note_on_c, 6, 62, 0
12, 24960, Note_on_c, 6, 74, 92
12, 24960, Note_on_c, 6, 62, 92
12, 25079, Note_on_c, 6, 74, 0
12, 25079, Note_on_c, 6, 62, 0
12, 25920, Note_on_c, 6, 62, 92
12, 25920, Note_on_c, 6, 74, 92
12, 26039, Note_on_c, 6, 62, 0
12, 26039, Note_on_c, 6, 74, 0
12, 26400, Note_on_c, 6, 62, 92
12, 26400, Note_on_c, 6, 74, 92
12, 26519, Note_on_c, 6, 62, 0
12, 26519, Note_on_c, 6, 74, 0
12, 26880, Note_on_c, 6, 76, 104
12, 26999, Note_on_c, 6, 76, 0
12, 27840, Note_on_c, 6, 62, 104
12, 27840, Note_on_c, 6, 74, 104
12, 27959, Note_on_c, 6, 62, 0
12, 27959, Note_on_c, 6, 74, 0
12, 28140, Note_on_c, 6, 74, 92
12, 28140, Note_on_c, 6, 62, 92
12, 28184, Note_on_c, 6, 74, 0
12, 28184, Note_on_c, 6, 62, 0
12, 28200, Note_on_c, 6, 62, 92
12, 28200, Note_on_c, 6, 74, 92
12, 28244, Note_on_c, 6, 62, 0
12, 28244, Note_on_c, 6, 74, 0
12, 28260, Note_on_c, 6, 74, 92
12, 28260, Note_on_c, 6, 62, 92
12, 28304, Note_on_c, 6, 74, 0
12, 28304, Note_on_c, 6, 62, 0
12, 28320, Note_on_c, 6, 74, 104
12, 28320, Note_on_c, 6, 62, 104
12, 28439, Note_on_c, 6, 74, 0
12, 28439, Note_on_c, 6, 62, 0
12, 28620, Note_on_c, 6, 74, 92
12, 28620, Note_on_c, 6, 62, 92
12, 28664, Note_on_c, 6, 74, 0
12, 28664, Note_on_c, 6, 62, 0
12, 28680, Note_on_c, 6, 74, 92
12, 28680, Note_on_c, 6, 62, 92
12, 28724, Note_on_c, 6, 74, 0
12, 28724, Note_on_c, 6, 62, 0
12, 28740, Note_on_c, 6, 74, 92
12, 28740, Note_on_c, 6, 62, 92
12, 28784, Note_on_c, 6, 74, 0
12, 28784, Note_on_c, 6, 62, 0
12, 28800, Note_on_c, 6, 74, 104
12, 28800, Note_on_c, 6, 62, 104
12, 28919, Note_on_c, 6, 74, 0
12, 28919, Note_on_c, 6, 62, 0
12, 29100, Note_on_c, 6, 74, 92
12, 29100, Note_on_c, 6, 62, 92
12, 29144, Note_on_c, 6, 74, 0
12, 29144, Note_on_c, 6, 62, 0
12, 29160, Note_on_c, 6, 62, 92
12, 29160, Note_on_c, 6, 74, 92
12, 29204, Note_on_c, 6, 62, 0
12, 29204, Note_on_c, 6, 74, 0
12, 29220, Note_on_c, 6, 74, 92
12, 29220, Note_on_c, 6, 62, 92
12, 29264, Note_on_c, 6, 74, 0
12, 29264, Note_on_c, 6, 62, 0
12, 29280, Note_on_c, 6, 62, 104
12, 29280, Note_on_c, 6, 74, 104
12, 29324, Note_on_c, 6, 62, 0
12, 29324, Note_on_c, 6, 74, 0
12, 29340, Note_on_c, 6, 62, 92
12, 29340, Note_on_c, 6, 74, 92
12, 29384, Note_on_c, 6, 62, 0
12, 29384, Note_on_c, 6, 74, 0
12, 29400, Note_on_c, 6, 62, 92
12, 29400, Note_on_c, 6, 74, 92
12, 29444, Note_on_c, 6, 62, 0
12, 29444, Note_on_c, 6, 74, 0
12, 29460, Note_on_c, 6, 62, 92
12, 29460, Note_on_c, 6, 74, 92
12, 29504, Note_on_c, 6, 62, 0
12, 29504, Note_on_c, 6, 74, 0
12, 29520, Note_on_c, 6, 62, 104
12, 29520, Note_on_c, 6, 74, 104
12, 29564, Note_on_c, 6, 62, 0
12, 29564, Note_on_c, 6, 74, 0
12, 29580, Note_on_c, 6, 62, 92
12, 29580, Note_on_c, 6, 74, 92
12, 29624, Note_on_c, 6, 62, 0
12, 29624, Note_on_c, 6, 74, 0
12, 29640, Note_on_c, 6, 62, 92
12, 29640, Note_on_c, 6, 74, 92
12, 29684, Note_on_c, 6, 62, 0
12, 29684, Note_on_c, 6, 74, 0
12, 29700, Note_on_c, 6, 62, 92
12, 29700, Note_on_c, 6, 74, 92
12, 29744, Note_on_c, 6, 62, 0
12, 29744, Note_on_c, 6, 74, 0
12, 29760, Note_on_c, 6, 57, 92
12, 29760, Note_on_c, 6, 69, 92
12, 29879, Note_on_c, 6, 57, 0
12, 29879, Note_on_c, 6, 69, 0
12, 30240, Note_on_c, 6, 69, 104
12, 30240, Note_on_c, 6, 57, 104
12, 30344, Note_on_c, 6, 69, 0
12, 30344, Note_on_c, 6, 57, 0
12, 30360, Note_on_c, 6, 57, 92
12, 30360, Note_on_c, 6, 69, 92
12, 30464, Note_on_c, 6, 57, 0
12, 30464, Note_on_c, 6, 69, 0
12, 30480, Note_on_c, 6, 69, 92
12, 30480, Note_on_c, 6, 57, 92
12, 30584, Note_on_c, 6, 69, 0
12, 30584, Note_on_c, 6, 57, 0
12, 30600, Note_on_c, 6, 57, 92
12, 30600, Note_on_c, 6, 69, 92
12, 30704, Note_on_c, 6, 57, 0
12, 30704, Note_on_c, 6, 69, 0
12, 30720, Note_on_c, 6, 69, 92
12, 30720, Note_on_c, 6, 57, 92
12, 30824, Note_on_c, 6, 69, 0
12, 30824, Note_on_c, 6, 57, 0
12, 30840, Note_on_c, 6, 57, 92
12, 30840, Note_on_c, 6, 69, 92
12, 30944, Note_on_c, 6, 57, 0
12, 30944, Note_on_c, 6, 69, 0
12, 30960, Note_on_c, 6, 57, 92
12, 30960, Note_on_c, 6, 69, 92
12, 31064, Note_on_c, 6, 57, 0
12, 31064, Note_on_c, 6, 69, 0
12, 31080, Note_on_c, 6, 57, 92
12, 31080, Note_on_c, 6, 69, 92
12, 31184, Note_on_c, 6, 57, 0
12, 31184, Note_on_c, 6, 69, 0
12, 31200, Note_on_c, 6, 76, 104
12, 31200, Note_on_c, 6, 69, 104
12, 31379, Note_on_c, 6, 76, 0
12, 31379, Note_on_c, 6, 69, 0
12, 31440, Note_on_c, 6, 74, 104
12, 31440, Note_on_c, 6, 62, 104
12, 31619, Note_on_c, 6, 74, 0
12, 31619, Note_on_c, 6, 62, 0
12, 31680, Note_on_c, 6, 57, 104
12, 31680, Note_on_c, 6, 69, 104
12, 31859, Note_on_c, 6, 57, 0
12, 31859, Note_on_c, 6, 69, 0
12, 32160, Note_on_c, 6, 57, 92
12, 32160, Note_on_c, 6, 69, 92
12, 32264, Note_on_c, 6, 57, 0
12, 32264, Note_on_c, 6, 69, 0
12, 32280, Note_on_c, 6, 69, 92
12, 32280, Note_on_c, 6, 57, 92
12, 32384, Note_on_c, 6, 69, 0
12, 32384, Note_on_c, 6, 57, 0
12, 32400, Note_on_c, 6, 57, 92
12, 32400, Note_on_c, 6, 69, 92
12, 32504, Note_on_c, 6, 57, 0
12, 32504, Note_on_c, 6, 69, 0
12, 32520, Note_on_c, 6, 57, 92
12, 32520, Note_on_c, 6, 69, 92
12, 32624, Note_on_c, 6, 57, 0
12, 32624, Note_on_c, 6, 69, 0
12, 32640, Note_on_c, 6, 69, 92
12, 32640, Note_on_c, 6, 57, 92
12, 32744, Note_on_c, 6, 69, 0
12, 32744, Note_on_c, 6, 57, 0
12, 32760, Note_on_c, 6, 69, 92
12, 32760, Note_on_c, 6, 57, 92
12, 32864, Note_on_c, 6, 69, 0
12, 32864, Note_on_c, 6, 57, 0
12, 32880, Note_on_c, 6, 69, 92
12, 32880, Note_on_c, 6, 57, 92
12, 32984, Note_on_c, 6, 69, 0
12, 32984, Note_on_c, 6, 57, 0
12, 33000, Note_on_c, 6, 62, 92
12, 33000, Note_on_c, 6, 74, 92
12, 33119, Note_on_c, 6, 62, 0
12, 33119, Note_on_c, 6, 74, 0
12, 34560, Note_on_c, 6, 57, 92
12, 34560, Note_on_c, 6, 69, 92
12, 34587, Control_c, 6, 11, 123
12, 34613, Control_c, 6, 11, 118
12, 34640, Control_c, 6, 11, 114
12, 34667, Control_c, 6, 11, 109
12, 34693, Control_c, 6, 11, 105
12, 34720, Control_c, 6, 11, 100
12, 34739, Note_on_c, 6, 57, 0
12, 34739, Note_on_c, 6, 69, 0
12, 34747, Control_c, 6, 11, 96
12, 34773, Control_c, 6, 11, 91
12, 34800, Control_c, 6, 11, 87
12, 34800, Note_on_c, 6, 69, 92
12, 34800, Note_on_c, 6, 57, 92
12, 34827, Control_c, 6, 11, 83
12, 34853, Control_c, 6, 11, 78
12, 34880, Control_c, 6, 11, 74
12, 34907, Control_c, 6, 11, 69
12, 34933, Control_c, 6, 11, 65
12, 34960, Control_c, 6, 11, 60
12, 34979, Note_on_c, 6, 69, 0
12, 34979, Note_on_c, 6, 57, 0
12, 35038, Control_c, 6, 11, 127
12, 35040, Note_on_c, 6, 69, 44
12, 35040, Note_on_c, 6, 57, 44
12, 35159, Note_on_c, 6, 69, 0
12, 35159, Note_on_c, 6, 57, 0
12, 45120, Note_on_c, 6, 74, 80
12, 45120, Note_on_c, 6, 62, 80
12, 45209, Note_on_c, 6, 74, 0
12, 45209, Note_on_c, 6, 62, 0
12, 45360, Note_on_c, 6, 72, 80
12, 45360, Note_on_c, 6, 57, 80
12, 45449, Note_on_c, 6, 72, 0
12, 45449, Note_on_c, 6, 57, 0
12, 48480, Note_on_c, 6, 74, 92
12, 48480, Note_on_c, 6, 62, 92
12, 48569, Note_on_c, 6, 74, 0
12, 48569, Note_on_c, 6, 62, 0
12, 48600, Note_on_c, 6, 62, 92
12, 48600, Note_on_c, 6, 74, 92
12, 48666, Note_on_c, 6, 62, 0
12, 48666, Note_on_c, 6, 74, 0
12, 48690, Note_on_c, 6, 74, 92
12, 48690, Note_on_c, 6, 62, 92
12, 48711, Note_on_c, 6, 74, 0
12, 48711, Note_on_c, 6, 62, 0
12, 48720, Note_on_c, 6, 74, 92
12, 48720, Note_on_c, 6, 62, 92
12, 48839, Note_on_c, 6, 74, 0
12, 48839, Note_on_c, 6, 62, 0
12, 50400, Note_on_c, 6, 74, 92
12, 50400, Note_on_c, 6, 62, 92
12, 50489, Note_on_c, 6, 74, 0
12, 50489, Note_on_c, 6, 62, 0
12, 50520, Note_on_c, 6, 62, 92
12, 50520, Note_on_c, 6, 74, 92
12, 50586, Note_on_c, 6, 62, 0
12, 50586, Note_on_c, 6, 74, 0
12, 50610, Note_on_c, 6, 62, 92
12, 50610, Note_on_c, 6, 74, 92
12, 50631, Note_on_c, 6, 62, 0
12, 50631, Note_on_c, 6, 74, 0
12, 50640, Note_on_c, 6, 62, 92
12, 50640, Note_on_c, 6, 74, 92
12, 50759, Note_on_c, 6, 62, 0
12, 50759, Note_on_c, 6, 74, 0
12, 63000, Note_on_c, 6, 69, 80
12, 63000, Note_on_c, 6, 57, 80
12, 63119, Note_on_c, 6, 69, 0
12, 63119, Note_on_c, 6, 57, 0
12, 63480, Note_on_c, 6, 74, 80
12, 63480, Note_on_c, 6, 62, 80
12, 63599, Note_on_c, 6, 74, 0
12, 63599, Note_on_c, 6, 62, 0
12, 64440, Note_on_c, 6, 74, 80
12, 64440, Note_on_c, 6, 62, 80
12, 64559, Note_on_c, 6, 74, 0
12, 64559, Note_on_c, 6, 62, 0
12, 65400, Note_on_c, 6, 69, 80
12, 65400, Note_on_c, 6, 57, 80
12, 65519, Note_on_c, 6, 69, 0
12, 65519, Note_on_c, 6, 57, 0
12, 65640, Note_on_c, 6, 69, 80
12, 65640, Note_on_c, 6, 57, 80
12, 65744, Note_on_c, 6, 69, 0
12, 65744, Note_on_c, 6, 57, 0
12, 65760, Note_on_c, 6, 62, 92
12, 65760, Note_on_c, 6, 74, 92
12, 65864, Note_on_c, 6, 62, 0
12, 65864, Note_on_c, 6, 74, 0
12, 65880, Note_on_c, 6, 74, 44
12, 65880, Note_on_c, 6, 62, 44
12, 65999, Note_on_c, 6, 74, 0
12, 65999, Note_on_c, 6, 62, 0
12, 67680, Note_on_c, 6, 62, 80
12, 67680, Note_on_c, 6, 74, 80
12, 67784, Note_on_c, 6, 62, 0
12, 67784, Note_on_c, 6, 74, 0
12, 67800, Note_on_c, 6, 62, 44
12, 67800, Note_on_c, 6, 74, 44
12, 67919, Note_on_c, 6, 62, 0
12, 67919, Note_on_c, 6, 74, 0
12, 70440, Note_on_c, 6, 69, 80
12, 70440, Note_on_c, 6, 57, 80
12, 70559, Note_on_c, 6, 69, 0
12, 70559, Note_on_c, 6, 57, 0
12, 70680, Note_on_c, 6, 62, 80
12, 70680, Note_on_c, 6, 74, 80
12, 70784, Note_on_c, 6, 62, 0
12, 70784, Note_on_c, 6, 74, 0
12, 70800, Note_on_c, 6, 74, 80
12, 70800, Note_on_c, 6, 62, 80
12, 70919, Note_on_c, 6, 74, 0
12, 70919, Note_on_c, 6, 62, 0
12, 71160, Note_on_c, 6, 74, 80
12, 71160, Note_on_c, 6, 62, 80
12, 71264, Note_on_c, 6, 74, 0
12, 71264, Note_on_c, 6, 62, 0
12, 71280, Note_on_c, 6, 74, 92
12, 71280, Note_on_c, 6, 62, 92
12, 71369, Note_on_c, 6, 74, 0
12, 71369, Note_on_c, 6, 62, 0
12, 71400, Note_on_c, 6, 69, 92
12, 71489, Note_on_c, 6, 69, 0
12, 71520, Note_on_c, 6, 62, 92
12, 71639, Note_on_c, 6, 62, 0
12, 72000, Note_on_c, 6, 62, 80
12, 72000, Note_on_c, 6, 74, 80
12, 72119, Note_on_c, 6, 62, 0
12, 72119, Note_on_c, 6, 74, 0
12, 72480, Note_on_c, 6, 74, 80
12, 72480, Note_on_c, 6, 62, 80
12, 72599, Note_on_c, 6, 74, 0
12, 72599, Note_on_c, 6, 62, 0
12, 72960, Note_on_c, 6, 62, 80
12, 72960, Note_on_c, 6, 74, 80
12, 73079, Note_on_c, 6, 62, 0
12, 73079, Note_on_c, 6, 74, 0
12, 73200, Note_on_c, 6, 62, 80
12, 73200, Note_on_c, 6, 74, 80
12, 73319, Note_on_c, 6, 62, 0
12, 73319, Note_on_c, 6, 74, 0
12, 73440, Note_on_c, 6, 74, 80
12, 73440, Note_on_c, 6, 62, 80
12, 73559, Note_on_c, 6, 74, 0
12, 73559, Note_on_c, 6, 62, 0
12, 73680, Note_on_c, 6, 74, 80
12, 73680, Note_on_c, 6, 62, 80
12, 73799, Note_on_c, 6, 74, 0
12, 73799, Note_on_c, 6, 62, 0
12, 73920, Note_on_c, 6, 74, 80
12, 73920, Note_on_c, 6, 62, 80
12, 74039, Note_on_c, 6, 74, 0
12, 74039, Note_on_c, 6, 62, 0
12, 74160, Note_on_c, 6, 62, 80
12, 74160, Note_on_c, 6, 74, 80
12, 74279, Note_on_c, 6, 62, 0
12, 74279, Note_on_c, 6, 74, 0
12, 74400, Note_on_c, 6, 74, 80
12, 74400, Note_on_c, 6, 62, 80
12, 74519, Note_on_c, 6, 74, 0
12, 74519, Note_on_c, 6, 62, 0
12, 74640, Note_on_c, 6, 74, 80
12, 74640, Note_on_c, 6, 62, 80
12, 74759, Note_on_c, 6, 74, 0
12, 74759, Note_on_c, 6, 62, 0
12, 74880, Note_on_c, 6, 74, 80
12, 74880, Note_on_c, 6, 62, 80
12, 74999, Note_on_c, 6, 74, 0
12, 74999, Note_on_c, 6, 62, 0
12, 75120, Note_on_c, 6, 74, 80
12, 75120, Note_on_c, 6, 62, 80
12, 75239, Note_on_c, 6, 74, 0
12, 75239, Note_on_c, 6, 62, 0
12, 75360, Note_on_c, 6, 62, 80
12, 75479, Note_on_c, 6, 62, 0
12, 76560, Note_on_c, 6, 57, 32
12, 76679, Note_on_c, 6, 57, 0
12, 79440, Note_on_c, 6, 57, 32
12, 79559, Note_on_c, 6, 57, 0
12, 81360, Note_on_c, 6, 62, 32
12, 81479, Note_on_c, 6, 62, 0
12, 83280, Note_on_c, 6, 62, 32
12, 83399, Note_on_c, 6, 62, 0
12, 85200, Note_on_c, 6, 62, 32
12, 85319, Note_on_c, 6, 62, 0
12, 85680, Note_on_c, 6, 62, 32
12, 85799, Note_on_c, 6, 62, 0
12, 86160, Note_on_c, 6, 62, 32
12, 86279, Note_on_c, 6, 62, 0
12, 86640, Note_on_c, 6, 62, 32
12, 86759, Note_on_c, 6, 62, 0
12, 87120, Note_on_c, 6, 62, 32
12, 87239, Note_on_c, 6, 62, 0
12, 87600, Note_on_c, 6, 62, 32
12, 87719, Note_on_c, 6, 62, 0
12, 87840, Note_on_c, 6, 62, 32
12, 87959, Note_on_c, 6, 62, 0
12, 88080, Note_on_c, 6, 62, 32
12, 88199, Note_on_c, 6, 62, 0
12, 88560, Note_on_c, 6, 62, 32
12, 88679, Note_on_c, 6, 62, 0
12, 89040, Note_on_c, 6, 62, 32
12, 89159, Note_on_c, 6, 62, 0
12, 89520, Note_on_c, 6, 62, 64
12, 89639, Note_on_c, 6, 62, 0
12, 89730, Note_on_c, 6, 72, 78
12, 89751, Note_on_c, 6, 72, 0
12, 89760, Note_on_c, 6, 72, 80
12, 89864, Note_on_c, 6, 72, 0
12, 89880, Note_on_c, 6, 72, 80
12, 89961, Note_on_c, 6, 72, 0
12, 89970, Note_on_c, 6, 72, 80
12, 89991, Note_on_c, 6, 72, 0
12, 90000, Note_on_c, 6, 72, 80
12, 90344, Note_on_c, 6, 72, 0
12, 90360, Note_on_c, 6, 72, 80
12, 90441, Note_on_c, 6, 72, 0
12, 90450, Note_on_c, 6, 72, 80
12, 90471, Note_on_c, 6, 72, 0
12, 90480, Note_on_c, 6, 72, 80
12, 90824, Note_on_c, 6, 72, 0
12, 90840, Note_on_c, 6, 66, 80
12, 90921, Note_on_c, 6, 66, 0
12, 90930, Note_on_c, 6, 66, 80
12, 90951, Note_on_c, 6, 66, 0
12, 90960, Note_on_c, 6, 69, 80
12, 91064, Note_on_c, 6, 69, 0
12, 91320, Note_on_c, 6, 69, 80
12, 91401, Note_on_c, 6, 69, 0
12, 91410, Note_on_c, 6, 69, 80
12, 91431, Note_on_c, 6, 69, 0
12, 91440, Note_on_c, 6, 74, 92
12, 91544, Note_on_c, 6, 74, 0
12, 91560, Note_on_c, 6, 62, 80
12, 91641, Note_on_c, 6, 62, 0
12, 91650, Note_on_c, 6, 62, 80
12, 91671, Note_on_c, 6, 62, 0
12, 91680, Note_on_c, 6, 62, 44
12, 91799, Note_on_c, 6, 62, 0
12, 94800, Note_on_c, 6, 62, 44
12, 94919, Note_on_c, 6, 62, 0
12, 95280, Note_on_c, 6, 62, 44
12, 95399, Note_on_c, 6, 62, 0
12, 95760, Note_on_c, 6, 62, 44
12, 95879, Note_on_c, 6, 62, 0
12, 96240, Note_on_c, 6, 62, 44
12, 96359, Note_on_c, 6, 62, 0
12, 96480, Note_on_c, 6, 62, 44
12, 96599, Note_on_c, 6, 62, 0
12, 96720, Note_on_c, 6, 62, 44
12, 96839, Note_on_c, 6, 62, 0
12, 97200, Note_on_c, 6, 62, 44
12, 97319, Note_on_c, 6, 62, 0
12, 97680, Note_on_c, 6, 62, 53
12, 97799, Note_on_c, 6, 62, 0
12, 98160, Note_on_c, 6, 62, 71
12, 98279, Note_on_c, 6, 62, 0
12, 98400, Note_on_c, 6, 74, 80
12, 98400, Note_on_c, 6, 62, 80
12, 98504, Note_on_c, 6, 74, 0
12, 98504, Note_on_c, 6, 62, 0
12, 98520, Note_on_c, 6, 74, 80
12, 98520, Note_on_c, 6, 62, 80
12, 98601, Note_on_c, 6, 74, 0
12, 98601, Note_on_c, 6, 62, 0
12, 98610, Note_on_c, 6, 62, 80
12, 98610, Note_on_c, 6, 74, 80
12, 98631, Note_on_c, 6, 62, 0
12, 98631, Note_on_c, 6, 74, 0
12, 98640, Note_on_c, 6, 62, 80
12, 98640, Note_on_c, 6, 74, 80
12, 98759, Note_on_c, 6, 62, 0
12, 98759, Note_on_c, 6, 74, 0
12, 99000, Note_on_c, 6, 74, 80
12, 99000, Note_on_c, 6, 62, 80
12, 99081, Note_on_c, 6, 74, 0
12, 99081, Note_on_c, 6, 62, 0
12, 99090, Note_on_c, 6, 62, 80
12, 99090, Note_on_c, 6, 74, 80
12, 99111, Note_on_c, 6, 62, 0
12, 99111, Note_on_c, 6, 74, 0
12, 99120, Note_on_c, 6, 62, 80
12, 99120, Note_on_c, 6, 74, 80
12, 99239, Note_on_c, 6, 62, 0
12, 99239, Note_on_c, 6, 74, 0
12, 99360, Note_on_c, 6, 74, 80
12, 99360, Note_on_c, 6, 62, 80
12, 99464, Note_on_c, 6, 74, 0
12, 99464, Note_on_c, 6, 62, 0
12, 99480, Note_on_c, 6, 62, 80
12, 99480, Note_on_c, 6, 74, 80
12, 99561, Note_on_c, 6, 62, 0
12, 99561, Note_on_c, 6, 74, 0
12, 99570, Note_on_c, 6, 74, 80
12, 99570, Note_on_c, 6, 62, 80
12, 99591, Note_on_c, 6, 74, 0
12, 99591, Note_on_c, 6, 62, 0
12, 99600, Note_on_c, 6, 74, 80
12, 99600, Note_on_c, 6, 62, 80
12, 99719, Note_on_c, 6, 74, 0
12, 99719, Note_on_c, 6, 62, 0
12, 99960, Note_on_c, 6, 74, 80
12, 99960, Note_on_c, 6, 62, 80
12, 100041, Note_on_c, 6, 74, 0
12, 100041, Note_on_c, 6, 62, 0
12, 100050, Note_on_c, 6, 62, 80
12, 100050, Note_on_c, 6, 74, 80
12, 100071, Note_on_c, 6, 62, 0
12, 100071, Note_on_c, 6, 74, 0
12, 100080, Note_on_c, 6, 74, 80
12, 100080, Note_on_c, 6, 62, 80
12, 100199, Note_on_c, 6, 74, 0
12, 100199, Note_on_c, 6, 62, 0
12, 106920, Note_on_c, 6, 62, 80
12, 106920, Note_on_c, 6, 74, 80
12, 107279, Note_on_c, 6, 62, 0
12, 107279, Note_on_c, 6, 74, 0
12, 107400, Note_on_c, 6, 62, 80
12, 107759, Note_on_c, 6, 62, 0
12, 107880, Note_on_c, 6, 62, 80
12, 108119, Note_on_c, 6, 62, 0
12, 108360, Note_on_c, 6, 62, 80
12, 108599, Note_on_c, 6, 62, 0
12, 108840, Note_on_c, 6, 62, 80
12, 109079, Note_on_c, 6, 62, 0
12, 112800, Note_on_c, 6, 74, 80
12, 112800, Note_on_c, 6, 62, 80
12, 113039, Note_on_c, 6, 74, 0
12, 113039, Note_on_c, 6, 62, 0
12, 113160, Note_on_c, 6, 74, 80
12, 113160, Note_on_c, 6, 62, 80
12, 113279, Note_on_c, 6, 74, 0
12, 113279, Note_on_c, 6, 62, 0
12, 113400, Note_on_c, 6, 69, 80
12, 113400, Note_on_c, 6, 57, 80
12, 113451, Note_on_c, 6, 69, 0
12, 113451, Note_on_c, 6, 57, 0
12, 113460, Note_on_c, 6, 57, 80
12, 113460, Note_on_c, 6, 69, 80
12, 113511, Note_on_c, 6, 57, 0
12, 113511, Note_on_c, 6, 69, 0
12, 113520, Note_on_c, 6, 69, 80
12, 113520, Note_on_c, 6, 57, 80
12, 113639, Note_on_c, 6, 69, 0
12, 113639, Note_on_c, 6, 57, 0
12, 113880, Note_on_c, 6, 62, 80
12, 113880, Note_on_c, 6, 74, 80
12, 113931, Note_on_c, 6, 62, 0
12, 113931, Note_on_c, 6, 74, 0
12, 113940, Note_on_c, 6, 62, 80
12, 113940, Note_on_c, 6, 74, 80
12, 113991, Note_on_c, 6, 62, 0
12, 113991, Note_on_c, 6, 74, 0
12, 114000, Note_on_c, 6, 74, 80
12, 114000, Note_on_c, 6, 62, 80
12, 114119, Note_on_c, 6, 74, 0
12, 114119, Note_on_c, 6, 62, 0
12, 114360, Note_on_c, 6, 69, 80
12, 114360, Note_on_c, 6, 57, 80
12, 114411, Note_on_c, 6, 69, 0
12, 114411, Note_on_c, 6, 57, 0
12, 114420, Note_on_c, 6, 69, 80
12, 114420, Note_on_c, 6, 57, 80
12, 114471, Note_on_c, 6, 69, 0
12, 114471, Note_on_c, 6, 57, 0
12, 114480, Note_on_c, 6, 57, 80
12, 114480, Note_on_c, 6, 69, 80
12, 114599, Note_on_c, 6, 57, 0
12, 114599, Note_on_c, 6, 69, 0
12, 114840, Note_on_c, 6, 62, 80
12, 114840, Note_on_c, 6, 74, 80
12, 114891, Note_on_c, 6, 62, 0
12, 114891, Note_on_c, 6, 74, 0
12, 114900, Note_on_c, 6, 74, 80
12, 114900, Note_on_c, 6, 62, 80
12, 114951, Note_on_c, 6, 74, 0
12, 114951, Note_on_c, 6, 62, 0
12, 114960, Note_on_c, 6, 74, 80
12, 114960, Note_on_c, 6, 62, 80
12, 115079, Note_on_c, 6, 74, 0
12, 115079, Note_on_c, 6, 62, 0
12, 115320, Note_on_c, 6, 62, 80
12, 115320, Note_on_c, 6, 74, 80
12, 115371, Note_on_c, 6, 62, 0
12, 115371, Note_on_c, 6, 74, 0
12, 115380, Note_on_c, 6, 74, 80
12, 115380, Note_on_c, 6, 62, 80
12, 115431, Note_on_c, 6, 74, 0
12, 115431, Note_on_c, 6, 62, 0
12, 115440, Note_on_c, 6, 74, 80
12, 115440, Note_on_c, 6, 62, 80
12, 115559, Note_on_c, 6, 74, 0
12, 115559, Note_on_c, 6, 62, 0
12, 115800, Note_on_c, 6, 74, 80
12, 115800, Note_on_c, 6, 62, 80
12, 115851, Note_on_c, 6, 74, 0
12, 115851, Note_on_c, 6, 62, 0
12, 115860, Note_on_c, 6, 62, 80
12, 115860, Note_on_c, 6, 74, 80
12, 115911, Note_on_c, 6, 62, 0
12, 115911, Note_on_c, 6, 74, 0
12, 115920, Note_on_c, 6, 62, 80
12, 115920, Note_on_c, 6, 74, 80
12, 116039, Note_on_c, 6, 62, 0
12, 116039, Note_on_c, 6, 74, 0
12, 116280, Note_on_c, 6, 62, 80
12, 116280, Note_on_c, 6, 74, 80
12, 116331, Note_on_c, 6, 62, 0
12, 116331, Note_on_c, 6, 74, 0
12, 116340, Note_on_c, 6, 74, 80
12, 116340, Note_on_c, 6, 62, 80
12, 116391, Note_on_c, 6, 74, 0
12, 116391, Note_on_c, 6, 62, 0
12, 116400, Note_on_c, 6, 74, 80
12, 116400, Note_on_c, 6, 62, 80
12, 116519, Note_on_c, 6, 74, 0
12, 116519, Note_on_c, 6, 62, 0
12, 116760, Note_on_c, 6, 74, 80
12, 116760, Note_on_c, 6, 62, 80
12, 116811, Note_on_c, 6, 74, 0
12, 116811, Note_on_c, 6, 62, 0
12, 116820, Note_on_c, 6, 62, 80
12, 116820, Note_on_c, 6, 74, 80
12, 116871, Note_on_c, 6, 62, 0
12, 116871, Note_on_c, 6, 74, 0
12, 116880, Note_on_c, 6, 74, 80
12, 116880, Note_on_c, 6, 62, 80
12, 116999, Note_on_c, 6, 74, 0
12, 116999, Note_on_c, 6, 62, 0
12, 117240, Note_on_c, 6, 69, 80
12, 117240, Note_on_c, 6, 57, 80
12, 117291, Note_on_c, 6, 69, 0
12, 117291, Note_on_c, 6, 57, 0
12, 117300, Note_on_c, 6, 57, 80
12, 117300, Note_on_c, 6, 69, 80
12, 117351, Note_on_c, 6, 57, 0
12, 117351, Note_on_c, 6, 69, 0
12, 117360, Note_on_c, 6, 69, 80
12, 117360, Note_on_c, 6, 57, 80
12, 117479, Note_on_c, 6, 69, 0
12, 117479, Note_on_c, 6, 57, 0
12, 117720, Note_on_c, 6, 69, 80
12, 117720, Note_on_c, 6, 57, 80
12, 117771, Note_on_c, 6, 69, 0
12, 117771, Note_on_c, 6, 57, 0
12, 117780, Note_on_c, 6, 57, 80
12, 117780, Note_on_c, 6, 69, 80
12, 117831, Note_on_c, 6, 57, 0
12, 117831, Note_on_c, 6, 69, 0
12, 117840, Note_on_c, 6, 57, 80
12, 117840, Note_on_c, 6, 69, 80
12, 117959, Note_on_c, 6, 57, 0
12, 117959, Note_on_c, 6, 69, 0
12, 118200, Note_on_c, 6, 57, 80
12, 118200, Note_on_c, 6, 69, 80
12, 118251, Note_on_c, 6, 57, 0
12, 118251, Note_on_c, 6, 69, 0
12, 118260, Note_on_c, 6, 57, 80
12, 118260, Note_on_c, 6, 69, 80
12, 118311, Note_on_c, 6, 57, 0
12, 118311, Note_on_c, 6, 69, 0
12, 118320, Note_on_c, 6, 69, 80
12, 118320, Note_on_c, 6, 57, 80
12, 118439, Note_on_c, 6, 69, 0
12, 118439, Note_on_c, 6, 57, 0
12, 118680, Note_on_c, 6, 62, 80
12, 118680, Note_on_c, 6, 74, 80
12, 118731, Note_on_c, 6, 62, 0
12, 118731, Note_on_c, 6, 74, 0
12, 118740, Note_on_c, 6, 62, 80
12, 118740, Note_on_c, 6, 74, 80
12, 118791, Note_on_c, 6, 62, 0
12, 118791, Note_on_c, 6, 74, 0
12, 118800, Note_on_c, 6, 74, 80
12, 118800, Note_on_c, 6, 62, 80
12, 118919, Note_on_c, 6, 74, 0
12, 118919, Note_on_c, 6, 62, 0
12, 119160, Note_on_c, 6, 74, 80
12, 119160, Note_on_c, 6, 62, 80
12, 119211, Note_on_c, 6, 74, 0
12, 119211, Note_on_c, 6, 62, 0
12, 119220, Note_on_c, 6, 62, 80
12, 119220, Note_on_c, 6, 74, 80
12, 119271, Note_on_c, 6, 62, 0
12, 119271, Note_on_c, 6, 74, 0
12, 119280, Note_on_c, 6, 74, 80
12, 119280, Note_on_c, 6, 62, 80
12, 119399, Note_on_c, 6, 74, 0
12, 119399, Note_on_c, 6, 62, 0
12, 119640, Note_on_c, 6, 62, 80
12, 119640, Note_on_c, 6, 74, 80
12, 119691, Note_on_c, 6, 62, 0
12, 119691, Note_on_c, 6, 74, 0
12, 119700, Note_on_c, 6, 74, 80
12, 119700, Note_on_c, 6, 62, 80
12, 119751, Note_on_c, 6, 74, 0
12, 119751, Note_on_c, 6, 62, 0
12, 119760, Note_on_c, 6, 62, 80
12, 119760, Note_on_c, 6, 74, 80
12, 119879, Note_on_c, 6, 62, 0
12, 119879, Note_on_c, 6, 74, 0
12, 120120, Note_on_c, 6, 74, 80
12, 120120, Note_on_c, 6, 62, 80
12, 120171, Note_on_c, 6, 74, 0
12, 120171, Note_on_c, 6, 62, 0
12, 120180, Note_on_c, 6, 74, 80
12, 120180, Note_on_c, 6, 62, 80
12, 120231, Note_on_c, 6, 74, 0
12, 120231, Note_on_c, 6, 62, 0
12, 120240, Note_on_c, 6, 62, 80
12, 120240, Note_on_c, 6, 74, 80
12, 120359, Note_on_c, 6, 62, 0
12, 120359, Note_on_c, 6, 74, 0
12, 120600, Note_on_c, 6, 74, 80
12, 120600, Note_on_c, 6, 62, 80
12, 120651, Note_on_c, 6, 74, 0
12, 120651, Note_on_c, 6, 62, 0
12, 120660, Note_on_c, 6, 62, 80
12, 120660, Note_on_c, 6, 74, 80
12, 120711, Note_on_c, 6, 62, 0
12, 120711, Note_on_c, 6, 74, 0
12, 120720, Note_on_c, 6, 62, 80
12, 120720, Note_on_c, 6, 74, 80
12, 120824, Note_on_c, 6, 62, 0
12, 120824, Note_on_c, 6, 74, 0
12, 120840, Control_c, 6, 11, 127
12, 120840, Note_on_c, 6, 62, 80
12, 120840, Note_on_c, 6, 74, 80
12, 120853, Control_c, 6, 11, 120
12, 120867, Control_c, 6, 11, 114
12, 120880, Control_c, 6, 11, 107
12, 120891, Note_on_c, 6, 62, 0
12, 120891, Note_on_c, 6, 74, 0
12, 120893, Control_c, 6, 11, 100
12, 120900, Note_on_c, 6, 62, 80
12, 120900, Note_on_c, 6, 74, 80
12, 120907, Control_c, 6, 11, 94
12, 120920, Control_c, 6, 11, 87
12, 120933, Control_c, 6, 11, 80
12, 120947, Control_c, 6, 11, 74
12, 120951, Note_on_c, 6, 62, 0
12, 120951, Note_on_c, 6, 74, 0
12, 120953, Control_c, 6, 11, 67
12, 120960, Note_on_c, 6, 62, 80
12, 121079, Note_on_c, 6, 62, 0
12, 121440, Control_c, 6, 11, 127
12, 131100, Note_on_c, 6, 57, 32
12, 131100, Note_on_c, 6, 69, 32
12, 131151, Note_on_c, 6, 57, 0
12, 131151, Note_on_c, 6, 69, 0
12, 131160, Note_on_c, 6, 57, 32
12, 131160, Note_on_c, 6, 69, 32
12, 131211, Note_on_c, 6, 57, 0
12, 131211, Note_on_c, 6, 69, 0
12, 131220, Note_on_c, 6, 69, 32
12, 131220, Note_on_c, 6, 57, 32
12, 131271, Note_on_c, 6, 69, 0
12, 131271, Note_on_c, 6, 57, 0
12, 131280, Note_on_c, 6, 69, 32
12, 131280, Note_on_c, 6, 57, 32
12, 131399, Note_on_c, 6, 69, 0
12, 131399, Note_on_c, 6, 57, 0
12, 133320, Note_on_c, 6, 57, 32
12, 133424, Note_on_c, 6, 57, 0
12, 133440, Note_on_c, 6, 57, 32
12, 133559, Note_on_c, 6, 57, 0
12, 135840, Note_on_c, 6, 69, 44
12, 135840, Note_on_c, 6, 57, 44
12, 135959, Note_on_c, 6, 69, 0
12, 135959, Note_on_c, 6, 57, 0
12, 137520, Note_on_c, 6, 57, 44
12, 137520, Note_on_c, 6, 69, 44
12, 137639, Note_on_c, 6, 57, 0
12, 137639, Note_on_c, 6, 69, 0
12, 138000, Note_on_c, 6, 57, 44
12, 138000, Note_on_c, 6, 69, 44
12, 138119, Note_on_c, 6, 57, 0
12, 138119, Note_on_c, 6, 69, 0
12, 138480, Note_on_c, 6, 72, 44
12, 138599, Note_on_c, 6, 72, 0
12, 138960, Note_on_c, 6, 72, 44
12, 139079, Note_on_c, 6, 72, 0
12, 139440, Note_on_c, 6, 69, 44
12, 139440, Note_on_c, 6, 57, 44
12, 139559, Note_on_c, 6, 69, 0
12, 139559, Note_on_c, 6, 57, 0
12, 139920, Note_on_c, 6, 57, 44
12, 139920, Note_on_c, 6, 69, 44
12, 140039, Note_on_c, 6, 57, 0
12, 140039, Note_on_c, 6, 69, 0
12, 140400, Note_on_c, 6, 72, 44
12, 140519, Note_on_c, 6, 72, 0
12, 140880, Note_on_c, 6, 72, 44
12, 140999, Note_on_c, 6, 72, 0
12, 141360, Note_on_c, 6, 76, 53
12, 141479, Note_on_c, 6, 76, 0
12, 141840, Note_on_c, 6, 76, 71
12, 141959, Note_on_c, 6, 76, 0
12, 142080, Note_on_c, 6, 69, 80
12, 142080, Note_on_c, 6, 76, 80
12, 142199, Note_on_c, 6, 69, 0
12, 142199, Note_on_c, 6, 76, 0
12, 142320, Note_on_c, 6, 76, 80
12, 142320, Note_on_c, 6, 69, 80
12, 142439, Note_on_c, 6, 76, 0
12, 142439, Note_on_c, 6, 69, 0
12, 142560, Note_on_c, 6, 76, 80
12, 142560, Note_on_c, 6, 69, 80
12, 142679, Note_on_c, 6, 76, 0
12, 142679, Note_on_c, 6, 69, 0
12, 142800, Note_on_c, 6, 69, 80
12, 142800, Note_on_c, 6, 76, 80
12, 142919, Note_on_c, 6, 69, 0
12, 142919, Note_on_c, 6, 76, 0
12, 143040, Note_on_c, 6, 76, 80
12, 143040, Note_on_c, 6, 69, 80
12, 143159, Note_on_c, 6, 76, 0
12, 143159, Note_on_c, 6, 69, 0
12, 143280, Note_on_c, 6, 69, 80
12, 143280, Note_on_c, 6, 76, 80
12, 143399, Note_on_c, 6, 69, 0
12, 143399, Note_on_c, 6, 76, 0
12, 143520, Note_on_c, 6, 69, 80
12, 143520, Note_on_c, 6, 57, 80
12, 143624, Note_on_c, 6, 69, 0
12, 143624, Note_on_c, 6, 57, 0
12, 143640, Note_on_c, 6, 57, 80
12, 143640, Note_on_c, 6, 69, 80
12, 143744, Note_on_c, 6, 57, 0
12, 143744, Note_on_c, 6, 69, 0
12, 143760, Note_on_c, 6, 57, 80
12, 143760, Note_on_c, 6, 69, 80
12, 143864, Note_on_c, 6, 57, 0
12, 143864, Note_on_c, 6, 69, 0
12, 143880, Note_on_c, 6, 57, 80
12, 143880, Note_on_c, 6, 69, 80
12, 143984, Note_on_c, 6, 57, 0
12, 143984, Note_on_c, 6, 69, 0
12, 144000, Note_on_c, 6, 62, 92
12, 144000, Note_on_c, 6, 74, 92
12, 145881, Note_on_c, 6, 62, 0
12, 145881, Note_on_c, 6, 74, 0
12, 145890, Note_on_c, 6, 69, 92
12, 145911, Note_on_c, 6, 69, 0
12, 145920, Note_on_c, 6, 62, 92
12, 145920, Note_on_c, 6, 74, 92
12, 147801, Note_on_c, 6, 62, 0
12, 147801, Note_on_c, 6, 74, 0
12, 147810, Note_on_c, 6, 69, 92
12, 147831, Note_on_c, 6, 69, 0
12, 147840, Note_on_c, 6, 62, 92
12, 147840, Note_on_c, 6, 74, 92
12, 148761, Note_on_c, 6, 62, 0
12, 148761, Note_on_c, 6, 74, 0
12, 148770, Note_on_c, 6, 62, 92
12, 148770, Note_on_c, 6, 74, 92
12, 148791, Note_on_c, 6, 62, 0
12, 148791, Note_on_c, 6, 74, 0
12, 148800, Note_on_c, 6, 62, 92
12, 148800, Note_on_c, 6, 74, 92
12, 149571, Note_on_c, 6, 62, 0
12, 149571, Note_on_c, 6, 74, 0
12, 149580, Note_on_c, 6, 74, 92
12, 149631, Note_on_c, 6, 74, 0
12, 149640, Note_on_c, 6, 74, 92
12, 149691, Note_on_c, 6, 74, 0
12, 149700, Note_on_c, 6, 62, 92
12, 149751, Note_on_c, 6, 62, 0
12, 149760, Note_on_c, 6, 74, 92
12, 149760, Note_on_c, 6, 62, 92
12, 150681, Note_on_c, 6, 74, 0
12, 150681, Note_on_c, 6, 62, 0
12, 150690, Note_on_c, 6, 62, 92
12, 150690, Note_on_c, 6, 74, 92
12, 150711, Note_on_c, 6, 62, 0
12, 150711, Note_on_c, 6, 74, 0
12, 150720, Note_on_c, 6, 69, 92
12, 150720, Note_on_c, 6, 57, 92
12, 151161, Note_on_c, 6, 69, 0
12, 151161, Note_on_c, 6, 57, 0
12, 151170, Note_on_c, 6, 69, 92
12, 151170, Note_on_c, 6, 57, 92
12, 151191, Note_on_c, 6, 69, 0
12, 151191, Note_on_c, 6, 57, 0
12, 151200, Note_on_c, 6, 57, 92
12, 151200, Note_on_c, 6, 69, 92
12, 151401, Note_on_c, 6, 57, 0
12, 151401, Note_on_c, 6, 69, 0
12, 151410, Note_on_c, 6, 69, 92
12, 151410, Note_on_c, 6, 57, 92
12, 151431, Note_on_c, 6, 69, 0
12, 151431, Note_on_c, 6, 57, 0
12, 151440, Note_on_c, 6, 57, 92
12, 151440, Note_on_c, 6, 69, 92
12, 151604, Note_on_c, 6, 57, 0
12, 151604, Note_on_c, 6, 69, 0
12, 151620, Note_on_c, 6, 62, 92
12, 151620, Note_on_c, 6, 74, 92
12, 151641, Note_on_c, 6, 62, 0
12, 151641, Note_on_c, 6, 74, 0
12, 151650, Note_on_c, 6, 74, 92
12, 151650, Note_on_c, 6, 62, 92
12, 151671, Note_on_c, 6, 74, 0
12, 151671, Note_on_c, 6, 62, 0
12, 151680, Note_on_c, 6, 69, 92
12, 151680, Note_on_c, 6, 57, 92
12, 152121, Note_on_c, 6, 69, 0
12, 152121, Note_on_c, 6, 57, 0
12, 152130, Note_on_c, 6, 57, 92
12, 152130, Note_on_c, 6, 69, 92
12, 152151, Note_on_c, 6, 57, 0
12, 152151, Note_on_c, 6, 69, 0
12, 152160, Note_on_c, 6, 69, 92
12, 152160, Note_on_c, 6, 57, 92
12, 152361, Note_on_c, 6, 69, 0
12, 152361, Note_on_c, 6, 57, 0
12, 152370, Note_on_c, 6, 69, 92
12, 152370, Note_on_c, 6, 57, 92
12, 152391, Note_on_c, 6, 69, 0
12, 152391, Note_on_c, 6, 57, 0
12, 152400, Note_on_c, 6, 69, 92
12, 152400, Note_on_c, 6, 57, 92
12, 152564, Note_on_c, 6, 69, 0
12, 152564, Note_on_c, 6, 57, 0
12, 152580, Note_on_c, 6, 62, 92
12, 152580, Note_on_c, 6, 74, 92
12, 152601, Note_on_c, 6, 62, 0
12, 152601, Note_on_c, 6, 74, 0
12, 152610, Note_on_c, 6, 62, 92
12, 152610, Note_on_c, 6, 74, 92
12, 152631, Note_on_c, 6, 62, 0
12, 152631, Note_on_c, 6, 74, 0
12, 152640, Note_on_c, 6, 62, 92
12, 152640, Note_on_c, 6, 74, 92
12, 152931, Note_on_c, 6, 62, 0
12, 152931, Note_on_c, 6, 74, 0
12, 152940, Note_on_c, 6, 74, 92
12, 152940, Note_on_c, 6, 62, 92
12, 152984, Note_on_c, 6, 74, 0
12, 152984, Note_on_c, 6, 62, 0
12, 153000, Note_on_c, 6, 74, 92
12, 153000, Note_on_c, 6, 62, 92
12, 153044, Note_on_c, 6, 74, 0
12, 153044, Note_on_c, 6, 62, 0
12, 153060, Note_on_c, 6, 74, 92
12, 153060, Note_on_c, 6, 62, 92
12, 153104, Note_on_c, 6, 74, 0
12, 153104, Note_on_c, 6, 62, 0
12, 153120, Note_on_c, 6, 69, 92
12, 153120, Note_on_c, 6, 57, 92
12, 153209, Note_on_c, 6, 69, 0
12, 153209, Note_on_c, 6, 57, 0
12, 153240, Note_on_c, 6, 69, 92
12, 153240, Note_on_c, 6, 57, 92
12, 153329, Note_on_c, 6, 69, 0
12, 153329, Note_on_c, 6, 57, 0
12, 153360, Note_on_c, 6, 57, 92
12, 153360, Note_on_c, 6, 69, 92
12, 153449, Note_on_c, 6, 57, 0
12, 153449, Note_on_c, 6, 69, 0
12, 153480, Note_on_c, 6, 57, 92
12, 153480, Note_on_c, 6, 69, 92
12, 153569, Note_on_c, 6, 57, 0
12, 153569, Note_on_c, 6, 69, 0
12, 153600, Note_on_c, 6, 62, 92
12, 153600, Note_on_c, 6, 74, 92
12, 153891, Note_on_c, 6, 62, 0
12, 153891, Note_on_c, 6, 74, 0
12, 153900, Note_on_c, 6, 62, 92
12, 153900, Note_on_c, 6, 74, 92
12, 153944, Note_on_c, 6, 62, 0
12, 153944, Note_on_c, 6, 74, 0
12, 153960, Note_on_c, 6, 74, 92
12, 153960, Note_on_c, 6, 62, 92
12, 154004, Note_on_c, 6, 74, 0
12, 154004, Note_on_c, 6, 62, 0
12, 154020, Note_on_c, 6, 74, 92
12, 154020, Note_on_c, 6, 62, 92
12, 154064, Note_on_c, 6, 74, 0
12, 154064, Note_on_c, 6, 62, 0
12, 154080, Note_on_c, 6, 57, 92
12, 154080, Note_on_c, 6, 69, 92
12, 154169, Note_on_c, 6, 57, 0
12, 154169, Note_on_c, 6, 69, 0
12, 154200, Note_on_c, 6, 69, 92
12, 154200, Note_on_c, 6, 57, 92
12, 154289, Note_on_c, 6, 69, 0
12, 154289, Note_on_c, 6, 57, 0
12, 154320, Note_on_c, 6, 57, 92
12, 154320, Note_on_c, 6, 69, 92
12, 154409, Note_on_c, 6, 57, 0
12, 154409, Note_on_c, 6, 69, 0
12, 154440, Note_on_c, 6, 57, 92
12, 154440, Note_on_c, 6, 69, 92
12, 154529, Note_on_c, 6, 57, 0
12, 154529, Note_on_c, 6, 69, 0
12, 154560, Note_on_c, 6, 62, 80
12, 154560, Note_on_c, 6, 74, 80
12, 154739, Note_on_c, 6, 62, 0
12, 154739, Note_on_c, 6, 74, 0
12, 154800, Note_on_c, 6, 72, 80
12, 154979, Note_on_c, 6, 72, 0
12, 155040, Note_on_c, 6, 72, 80
12, 155219, Note_on_c, 6, 72, 0
12, 155280, Note_on_c, 6, 62, 80
12, 155280, Note_on_c, 6, 74, 80
12, 155459, Note_on_c, 6, 62, 0
12, 155459, Note_on_c, 6, 74, 0
12, 155520, Note_on_c, 6, 74, 80
12, 155520, Note_on_c, 6, 62, 80
12, 155699, Note_on_c, 6, 74, 0
12, 155699, Note_on_c, 6, 62, 0
12, 155760, Note_on_c, 6, 69, 80
12, 155939, Note_on_c, 6, 69, 0
12, 156000, Note_on_c, 6, 79, 80
12, 156824, Note_on_c, 6, 79, 0
12, 156840, Note_on_c, 6, 79, 80
12, 156929, Note_on_c, 6, 79, 0
12, 156960, Note_on_c, 6, 79, 80
12, 157049, Note_on_c, 6, 79, 0
12, 157080, Note_on_c, 6, 79, 80
12, 157169, Note_on_c, 6, 79, 0
12, 157200, Note_on_c, 6, 79, 80
12, 157289, Note_on_c, 6, 79, 0
12, 157320, Note_on_c, 6, 79, 80
12, 157409, Note_on_c, 6, 79, 0
12, 157440, Note_on_c, 6, 76, 92
12, 157559, Note_on_c, 6, 76, 0
12, 157680, Note_on_c, 6, 78, 80
12, 157680, Note_on_c, 6, 66, 80
12, 157799, Note_on_c, 6, 78, 0
12, 157799, Note_on_c, 6, 66, 0
12, 158400, Note_on_c, 6, 79, 92
12, 158460, Control_c, 6, 11, 107
12, 158744, Note_on_c, 6, 79, 0
12, 158758, Control_c, 6, 11, 127
12, 158760, Note_on_c, 6, 79, 80
12, 158849, Note_on_c, 6, 79, 0
12, 158880, Note_on_c, 6, 79, 80
12, 158969, Note_on_c, 6, 79, 0
12, 159000, Note_on_c, 6, 79, 80
12, 159089, Note_on_c, 6, 79, 0
12, 159120, Note_on_c, 6, 79, 80
12, 159209, Note_on_c, 6, 79, 0
12, 159240, Note_on_c, 6, 79, 80
12, 159329, Note_on_c, 6, 79, 0
12, 159360, Note_on_c, 6, 74, 92
12, 159360, Note_on_c, 6, 62, 92
12, 159420, Control_c, 6, 11, 107
12, 159704, Note_on_c, 6, 74, 0
12, 159704, Note_on_c, 6, 62, 0
12, 159718, Control_c, 6, 11, 127
12, 159720, Note_on_c, 6, 62, 80
12, 159720, Note_on_c, 6, 74, 80
12, 159809, Note_on_c, 6, 62, 0
12, 159809, Note_on_c, 6, 74, 0
12, 159840, Note_on_c, 6, 62, 80
12, 159840, Note_on_c, 6, 74, 80
12, 159929, Note_on_c, 6, 62, 0
12, 159929, Note_on_c, 6, 74, 0
12, 159960, Note_on_c, 6, 62, 80
12, 159960, Note_on_c, 6, 74, 80
12, 160049, Note_on_c, 6, 62, 0
12, 160049, Note_on_c, 6, 74, 0
12, 160080, Note_on_c, 6, 62, 80
12, 160080, Note_on_c, 6, 74, 80
12, 160169, Note_on_c, 6, 62, 0
12, 160169, Note_on_c, 6, 74, 0
12, 160200, Note_on_c, 6, 62, 80
12, 160200, Note_on_c, 6, 74, 80
12, 160289, Note_on_c, 6, 62, 0
12, 160289, Note_on_c, 6, 74, 0
12, 160320, Note_on_c, 6, 74, 92
12, 160320, Note_on_c, 6, 62, 92
12, 160380, Control_c, 6, 11, 107
12, 160664, Note_on_c, 6, 74, 0
12, 160664, Note_on_c, 6, 62, 0
12, 160678, Control_c, 6, 11, 127
12, 160680, Note_on_c, 6, 62, 80
12, 160680, Note_on_c, 6, 74, 80
12, 160769, Note_on_c, 6, 62, 0
12, 160769, Note_on_c, 6, 74, 0
12, 160800, Note_on_c, 6, 74, 80
12, 160800, Note_on_c, 6, 62, 80
12, 160889, Note_on_c, 6, 74, 0
12, 160889, Note_on_c, 6, 62, 0
12, 160920, Note_on_c, 6, 62, 80
12, 160920, Note_on_c, 6, 74, 80
12, 161009, Note_on_c, 6, 62, 0
12, 161009, Note_on_c, 6, 74, 0
12, 161040, Note_on_c, 6, 74, 80
12, 161040, Note_on_c, 6, 62, 80
12, 161129, Note_on_c, 6, 74, 0
12, 161129, Note_on_c, 6, 62, 0
12, 161160, Note_on_c, 6, 62, 80
12, 161160, Note_on_c, 6, 74, 80
12, 161249, Note_on_c, 6, 62, 0
12, 161249, Note_on_c, 6, 74, 0
12, 161280, Note_on_c, 6, 62, 92
12, 161280, Note_on_c, 6, 74, 92
12, 161340, Control_c, 6, 11, 107
12, 161359, Control_c, 6, 11, 106
12, 161378, Control_c, 6, 11, 105
12, 161396, Control_c, 6, 11, 103
12, 161415, Control_c, 6, 11, 102
12, 161434, Control_c, 6, 11, 101
12, 161453, Control_c, 6, 11, 100
12, 161471, Control_c, 6, 11, 98
12, 161490, Control_c, 6, 11, 97
12, 161509, Control_c, 6, 11, 96
12, 161528, Control_c, 6, 11, 95
12, 161546, Control_c, 6, 11, 93
12, 161565, Control_c, 6, 11, 92
12, 161584, Control_c, 6, 11, 91
12, 161603, Control_c, 6, 11, 90
12, 161621, Control_c, 6, 11, 88
12, 161624, Note_on_c, 6, 62, 0
12, 161624, Note_on_c, 6, 74, 0
12, 161640, Note_on_c, 6, 74, 92
12, 161640, Control_c, 6, 11, 87
12, 161640, Note_on_c, 6, 62, 92
12, 161659, Control_c, 6, 11, 86
12, 161678, Control_c, 6, 11, 85
12, 161696, Control_c, 6, 11, 83
12, 161715, Control_c, 6, 11, 82
12, 161729, Note_on_c, 6, 74, 0
12, 161729, Note_on_c, 6, 62, 0
12, 161734, Control_c, 6, 11, 81
12, 161753, Control_c, 6, 11, 80
12, 161760, Note_on_c, 6, 74, 92
12, 161760, Note_on_c, 6, 62, 92
12, 161771, Control_c, 6, 11, 78
12, 161790, Control_c, 6, 11, 77
12, 161809, Control_c, 6, 11, 76
12, 161828, Control_c, 6, 11, 75
12, 161846, Control_c, 6, 11, 73
12, 161849, Note_on_c, 6, 74, 0
12, 161849, Note_on_c, 6, 62, 0
12, 161865, Control_c, 6, 11, 72
12, 161880, Note_on_c, 6, 62, 92
12, 161880, Note_on_c, 6, 74, 92
12, 161884, Control_c, 6, 11, 71
12, 161903, Control_c, 6, 11, 70
12, 161921, Control_c, 6, 11, 68
12, 161940, Control_c, 6, 11, 67
12, 161959, Control_c, 6, 11, 66
12, 161969, Note_on_c, 6, 62, 0
12, 161969, Note_on_c, 6, 74, 0
12, 161978, Control_c, 6, 11, 65
12, 161996, Control_c, 6, 11, 63
12, 162000, Note_on_c, 6, 74, 92
12, 162000, Note_on_c, 6, 62, 92
12, 162015, Control_c, 6, 11, 62
12, 162034, Control_c, 6, 11, 61
12, 162053, Control_c, 6, 11, 60
12, 162071, Control_c, 6, 11, 58
12, 162089, Note_on_c, 6, 74, 0
12, 162089, Note_on_c, 6, 62, 0
12, 162090, Control_c, 6, 11, 57
12, 162109, Control_c, 6, 11, 56
12, 162120, Note_on_c, 6, 62, 92
12, 162120, Note_on_c, 6, 74, 92
12, 162128, Control_c, 6, 11, 55
12, 162146, Control_c, 6, 11, 53
12, 162165, Control_c, 6, 11, 52
12, 162184, Control_c, 6, 11, 51
12, 162203, Control_c, 6, 11, 50
12, 162209, Note_on_c, 6, 62, 0
12, 162209, Note_on_c, 6, 74, 0
12, 162221, Control_c, 6, 11, 47
12, 162240, Note_on_c, 6, 69, 92
12, 162240, Note_on_c, 6, 76, 92
12, 162359, Note_on_c, 6, 69, 0
12, 162359, Note_on_c, 6, 76, 0
12, 162720, Control_c, 6, 11, 127
12, 162840, Note_on_c, 6, 69, 44
12, 162840, Note_on_c, 6, 57, 44
12, 162891, Note_on_c, 6, 69, 0
12, 162891, Note_on_c, 6, 57, 0
12, 162900, Note_on_c, 6, 69, 44
12, 162900, Note_on_c, 6, 57, 44
12, 162951, Note_on_c, 6, 69, 0
12, 162951, Note_on_c, 6, 57, 0
12, 162960, Note_on_c, 6, 69, 44
12, 162960, Note_on_c, 6, 57, 44
12, 163079, Note_on_c, 6, 69, 0
12, 163079, Note_on_c, 6, 57, 0
12, 163800, Note_on_c, 6, 69, 44
12, 163800, Note_on_c, 6, 57, 44
12, 163851, Note_on_c, 6, 69, 0
12, 163851, Note_on_c, 6, 57, 0
12, 163860, Note_on_c, 6, 57, 44
12, 163860, Note_on_c, 6, 69, 44
12, 163911, Note_on_c, 6, 57, 0
12, 163911, Note_on_c, 6, 69, 0
12, 163920, Note_on_c, 6, 57, 44
12, 163920, Note_on_c, 6, 69, 44
12, 164039, Note_on_c, 6, 57, 0
12, 164039, Note_on_c, 6, 69, 0
12, 164760, Note_on_c, 6, 57, 44
12, 164760, Note_on_c, 6, 69, 44
12, 164811, Note_on_c, 6, 57, 0
12, 164811, Note_on_c, 6, 69, 0
12, 164820, Note_on_c, 6, 69, 44
12, 164820, Note_on_c, 6, 57, 44
12, 164871, Note_on_c, 6, 69, 0
12, 164871, Note_on_c, 6, 57, 0
12, 164880, Note_on_c, 6, 69, 44
12, 164880, Note_on_c, 6, 57, 44
12, 164984, Note_on_c, 6, 69, 0
12, 164984, Note_on_c, 6, 57, 0
12, 165000, Note_on_c, 6, 57, 44
12, 165000, Note_on_c, 6, 69, 44
12, 165051, Note_on_c, 6, 57, 0
12, 165051, Note_on_c, 6, 69, 0
12, 165060, Note_on_c, 6, 57, 44
12, 165060, Note_on_c, 6, 69, 44
12, 165111, Note_on_c, 6, 57, 0
12, 165111, Note_on_c, 6, 69, 0
12, 165120, Note_on_c, 6, 62, 44
12, 165239, Note_on_c, 6, 62, 0
12, 167160, Note_on_c, 6, 62, 44
12, 167160, Note_on_c, 6, 74, 44
12, 167279, Note_on_c, 6, 62, 0
12, 167279, Note_on_c, 6, 74, 0
12, 167640, Note_on_c, 6, 74, 44
12, 167640, Note_on_c, 6, 62, 44
12, 167759, Note_on_c, 6, 74, 0
12, 167759, Note_on_c, 6, 62, 0
12, 168120, Note_on_c, 6, 62, 44
12, 168120, Note_on_c, 6, 74, 44
12, 168239, Note_on_c, 6, 62, 0
12, 168239, Note_on_c, 6, 74, 0
12, 168600, Note_on_c, 6, 62, 44
12, 168600, Note_on_c, 6, 74, 44
12, 168719, Note_on_c, 6, 62, 0
12, 168719, Note_on_c, 6, 74, 0
12, 169080, Note_on_c, 6, 69, 44
12, 169080, Note_on_c, 6, 57, 44
12, 169199, Note_on_c, 6, 69, 0
12, 169199, Note_on_c, 6, 57, 0
12, 169560, Note_on_c, 6, 57, 44
12, 169560, Note_on_c, 6, 69, 44
12, 169679, Note_on_c, 6, 57, 0
12, 169679, Note_on_c, 6, 69, 0
12, 171840, Note_on_c, 6, 74, 44
12, 171840, Note_on_c, 6, 62, 44
12, 172079, Note_on_c, 6, 74, 0
12, 172079, Note_on_c, 6, 62, 0
12, 172320, Note_on_c, 6, 62, 62
12, 172320, Note_on_c, 6, 74, 62
12, 172424, Note_on_c, 6, 62, 0
12, 172424, Note_on_c, 6, 74, 0
12, 172440, Note_on_c, 6, 74, 66
12, 172440, Note_on_c, 6, 62, 66
12, 172544, Note_on_c, 6, 74, 0
12, 172544, Note_on_c, 6, 62, 0
12, 172560, Note_on_c, 6, 62, 71
12, 172560, Note_on_c, 6, 74, 71
12, 172664, Note_on_c, 6, 62, 0
12, 172664, Note_on_c, 6, 74, 0
12, 172680, Note_on_c, 6, 74, 75
12, 172680, Note_on_c, 6, 62, 75
12, 172784, Note_on_c, 6, 74, 0
12, 172784, Note_on_c, 6, 62, 0
12, 172800, Note_on_c, 6, 74, 80
12, 172800, Note_on_c, 6, 62, 80
12, 172851, Note_on_c, 6, 74, 0
12, 172851, Note_on_c, 6, 62, 0
12, 172860, Note_on_c, 6, 74, 80
12, 172860, Note_on_c, 6, 62, 80
12, 172971, Note_on_c, 6, 74, 0
12, 172971, Note_on_c, 6, 62, 0
12, 172980, Note_on_c, 6, 74, 80
12, 172980, Note_on_c, 6, 62, 80
12, 173091, Note_on_c, 6, 74, 0
12, 173091, Note_on_c, 6, 62, 0
12, 173100, Note_on_c, 6, 62, 80
12, 173100, Note_on_c, 6, 74, 80
12, 173211, Note_on_c, 6, 62, 0
12, 173211, Note_on_c, 6, 74, 0
12, 173220, Note_on_c, 6, 62, 80
12, 173220, Note_on_c, 6, 74, 80
12, 173279, Note_on_c, 6, 62, 0
12, 173279, Note_on_c, 6, 74, 0
12, 173280, Note_on_c, 6, 69, 80
12, 173280, Note_on_c, 6, 57, 80
12, 173399, Note_on_c, 6, 69, 0
12, 173399, Note_on_c, 6, 57, 0
12, 173400, Note_on_c, 6, 69, 92
12, 173400, Note_on_c, 6, 57, 92
12, 173489, Note_on_c, 6, 69, 0
12, 173489, Note_on_c, 6, 57, 0
12, 173640, Note_on_c, 6, 69, 92
12, 173640, Note_on_c, 6, 57, 92
12, 173729, Note_on_c, 6, 69, 0
12, 173729, Note_on_c, 6, 57, 0
12, 173880, Note_on_c, 6, 74, 46
12, 173880, Note_on_c, 6, 62, 46
12, 173999, Note_on_c, 6, 74, 0
12, 173999, Note_on_c, 6, 62, 0
12, 174120, Note_on_c, 6, 62, 50
12, 174120, Note_on_c, 6, 74, 50
12, 174239, Note_on_c, 6, 62, 0
12, 174239, Note_on_c, 6, 74, 0
12, 174360, Note_on_c, 6, 62, 55
12, 174360, Note_on_c, 6, 74, 55
12, 174479, Note_on_c, 6, 62, 0
12, 174479, Note_on_c, 6, 74, 0
12, 174600, Note_on_c, 6, 74, 59
12, 174600, Note_on_c, 6, 62, 59
12, 174719, Note_on_c, 6, 74, 0
12, 174719, Note_on_c, 6, 62, 0
12, 176160, Note_on_c, 6, 69, 80
12, 176160, Note_on_c, 6, 57, 80
12, 176211, Note_on_c, 6, 69, 0
12, 176211, Note_on_c, 6, 57, 0
12, 176220, Note_on_c, 6, 69, 80
12, 176220, Note_on_c, 6, 57, 80
12, 176271, Note_on_c, 6, 69, 0
12, 176271, Note_on_c, 6, 57, 0
12, 176280, Note_on_c, 6, 57, 80
12, 176280, Note_on_c, 6, 69, 80
12, 176331, Note_on_c, 6, 57, 0
12, 176331, Note_on_c, 6, 69, 0
12, 176340, Note_on_c, 6, 57, 80
12, 176340, Note_on_c, 6, 69, 80
12, 176391, Note_on_c, 6, 57, 0
12, 176391, Note_on_c, 6, 69, 0
12, 176400, Note_on_c, 6, 57, 80
12, 176400, Note_on_c, 6, 69, 80
12, 176451, Note_on_c, 6, 57, 0
12, 176451, Note_on_c, 6, 69, 0
12, 176460, Note_on_c, 6, 57, 80
12, 176460, Note_on_c, 6, 69, 80
12, 176511, Note_on_c, 6, 57, 0
12, 176511, Note_on_c, 6, 69, 0
12, 176520, Note_on_c, 6, 69, 80
12, 176520, Note_on_c, 6, 57, 80
12, 176571, Note_on_c, 6, 69, 0
12, 176571, Note_on_c, 6, 57, 0
12, 176580, Note_on_c, 6, 69, 80
12, 176580, Note_on_c, 6, 57, 80
12, 176631, Note_on_c, 6, 69, 0
12, 176631, Note_on_c, 6, 57, 0
12, 176640, Note_on_c, 6, 69, 92
12, 176640, Note_on_c, 6, 57, 92
12, 176729, Note_on_c, 6, 69, 0
12, 176729, Note_on_c, 6, 57, 0
12, 176760, Note_on_c, 6, 62, 92
12, 176760, Note_on_c, 6, 74, 92
12, 176841, Note_on_c, 6, 62, 0
12, 176841, Note_on_c, 6, 74, 0
12, 176850, Note_on_c, 6, 74, 92
12, 176850, Note_on_c, 6, 62, 92
12, 176871, Note_on_c, 6, 74, 0
12, 176871, Note_on_c, 6, 62, 0
12, 176880, Note_on_c, 6, 62, 92
12, 176880, Note_on_c, 6, 74, 92
12, 176999, Note_on_c, 6, 62, 0
12, 176999, Note_on_c, 6, 74, 0
12, 177120, Note_on_c, 6, 62, 92
12, 177120, Note_on_c, 6, 74, 92
12, 177209, Note_on_c, 6, 62, 0
12, 177209, Note_on_c, 6, 74, 0
12, 177240, Note_on_c, 6, 74, 92
12, 177240, Note_on_c, 6, 62, 92
12, 177321, Note_on_c, 6, 74, 0
12, 177321, Note_on_c, 6, 62, 0
12, 177330, Note_on_c, 6, 74, 92
12, 177330, Note_on_c, 6, 62, 92
12, 177351, Note_on_c, 6, 74, 0
12, 177351, Note_on_c, 6, 62, 0
12, 177360, Note_on_c, 6, 62, 92
12, 177360, Note_on_c, 6, 74, 92
12, 177479, Note_on_c, 6, 62, 0
12, 177479, Note_on_c, 6, 74, 0
12, 178320, Note_on_c, 6, 69, 44
12, 178320, Note_on_c, 6, 57, 44
12, 178439, Note_on_c, 6, 69, 0
12, 178439, Note_on_c, 6, 57, 0
12, 178560, Note_on_c, 6, 74, 92
12, 178560, Note_on_c, 6, 62, 92
12, 178649, Note_on_c, 6, 74, 0
12, 178649, Note_on_c, 6, 62, 0
12, 178680, Note_on_c, 6, 62, 92
12, 178680, Note_on_c, 6, 74, 92
12, 178761, Note_on_c, 6, 62, 0
12, 178761, Note_on_c, 6, 74, 0
12, 178770, Note_on_c, 6, 74, 92
12, 178770, Note_on_c, 6, 62, 92
12, 178791, Note_on_c, 6, 74, 0
12, 178791, Note_on_c, 6, 62, 0
12, 178800, Note_on_c, 6, 74, 92
12, 178800, Note_on_c, 6, 62, 92
12, 178919, Note_on_c, 6, 74, 0
12, 178919, Note_on_c, 6, 62, 0
12, 180240, Note_on_c, 6, 74, 44
12, 180240, Note_on_c, 6, 62, 44
12, 180359, Note_on_c, 6, 74, 0
12, 180359, Note_on_c, 6, 62, 0
12, 185280, Note_on_c, 6, 69, 32
12, 185280, Note_on_c, 6, 57, 32
12, 185384, Note_on_c, 6, 69, 0
12, 185384, Note_on_c, 6, 57, 0
12, 185400, Note_on_c, 6, 69, 32
12, 185400, Note_on_c, 6, 57, 32
12, 185481, Note_on_c, 6, 69, 0
12, 185481, Note_on_c, 6, 57, 0
12, 185490, Note_on_c, 6, 69, 32
12, 185490, Note_on_c, 6, 57, 32
12, 185511, Note_on_c, 6, 69, 0
12, 185511, Note_on_c, 6, 57, 0
12, 185520, Note_on_c, 6, 57, 32
12, 185520, Note_on_c, 6, 69, 32
12, 185639, Note_on_c, 6, 57, 0
12, 185639, Note_on_c, 6, 69, 0
12, 185760, Note_on_c, 6, 57, 32
12, 185760, Note_on_c, 6, 69, 32
12, 185864, Note_on_c, 6, 57, 0
12, 185864, Note_on_c, 6, 69, 0
12, 185880, Note_on_c, 6, 57, 32
12, 185880, Note_on_c, 6, 69, 32
12, 185961, Note_on_c, 6, 57, 0
12, 185961, Note_on_c, 6, 69, 0
12, 185970, Note_on_c, 6, 69, 32
12, 185970, Note_on_c, 6, 57, 32
12, 185991, Note_on_c, 6, 69, 0
12, 185991, Note_on_c, 6, 57, 0
12, 186000, Note_on_c, 6, 69, 32
12, 186000, Note_on_c, 6, 57, 32
12, 186119, Note_on_c, 6, 69, 0
12, 186119, Note_on_c, 6, 57, 0
12, 186240, Note_on_c, 6, 62, 32
12, 186240, Note_on_c, 6, 74, 32
12, 186344, Note_on_c, 6, 62, 0
12, 186344, Note_on_c, 6, 74, 0
12, 186360, Note_on_c, 6, 62, 32
12, 186360, Note_on_c, 6, 74, 32
12, 186441, Note_on_c, 6, 62, 0
12, 186441, Note_on_c, 6, 74, 0
12, 186450, Note_on_c, 6, 62, 32
12, 186450, Note_on_c, 6, 74, 32
12, 186471, Note_on_c, 6, 62, 0
12, 186471, Note_on_c, 6, 74, 0
12, 186480, Note_on_c, 6, 74, 32
12, 186480, Note_on_c, 6, 62, 32
12, 186599, Note_on_c, 6, 74, 0
12, 186599, Note_on_c, 6, 62, 0
12, 186720, Note_on_c, 6, 62, 32
12, 186720, Note_on_c, 6, 74, 32
12, 186824, Note_on_c, 6, 62, 0
12, 186824, Note_on_c, 6, 74, 0
12, 186840, Note_on_c, 6, 74, 32
12, 186840, Note_on_c, 6, 62, 32
12, 186921, Note_on_c, 6, 74, 0
12, 186921, Note_on_c, 6, 62, 0
12, 186930, Note_on_c, 6, 62, 32
12, 186930, Note_on_c, 6, 74, 32
12, 186951, Note_on_c, 6, 62, 0
12, 186951, Note_on_c, 6, 74, 0
12, 186960, Note_on_c, 6, 74, 32
12, 186960, Note_on_c, 6, 62, 32
12, 187079, Note_on_c, 6, 74, 0
12, 187079, Note_on_c, 6, 62, 0
12, 187200, Note_on_c, 6, 57, 32
12, 187200, Note_on_c, 6, 69, 32
12, 187304, Note_on_c, 6, 57, 0
12, 187304, Note_on_c, 6, 69, 0
12, 187320, Note_on_c, 6, 57, 33
12, 187320, Note_on_c, 6, 69, 33
12, 187401, Note_on_c, 6, 57, 0
12, 187401, Note_on_c, 6, 69, 0
12, 187410, Note_on_c, 6, 69, 34
12, 187410, Note_on_c, 6, 57, 34
12, 187431, Note_on_c, 6, 69, 0
12, 187431, Note_on_c, 6, 57, 0
12, 187440, Note_on_c, 6, 69, 34
12, 187440, Note_on_c, 6, 57, 34
12, 187559, Note_on_c, 6, 69, 0
12, 187559, Note_on_c, 6, 57, 0
12, 187680, Note_on_c, 6, 69, 36
12, 187680, Note_on_c, 6, 57, 36
12, 187784, Note_on_c, 6, 69, 0
12, 187784, Note_on_c, 6, 57, 0
12, 187800, Note_on_c, 6, 57, 38
12, 187800, Note_on_c, 6, 69, 38
12, 187881, Note_on_c, 6, 57, 0
12, 187881, Note_on_c, 6, 69, 0
12, 187890, Note_on_c, 6, 69, 38
12, 187890, Note_on_c, 6, 57, 38
12, 187911, Note_on_c, 6, 69, 0
12, 187911, Note_on_c, 6, 57, 0
12, 187920, Note_on_c, 6, 69, 39
12, 187920, Note_on_c, 6, 57, 39
12, 188039, Note_on_c, 6, 69, 0
12, 188039, Note_on_c, 6, 57, 0
12, 188160, Note_on_c, 6, 74, 41
12, 188160, Note_on_c, 6, 62, 41
12, 188264, Note_on_c, 6, 74, 0
12, 188264, Note_on_c, 6, 62, 0
12, 188280, Note_on_c, 6, 74, 42
12, 188280, Note_on_c, 6, 62, 42
12, 188361, Note_on_c, 6, 74, 0
12, 188361, Note_on_c, 6, 62, 0
12, 188370, Note_on_c, 6, 62, 43
12, 188370, Note_on_c, 6, 74, 43
12, 188391, Note_on_c, 6, 62, 0
12, 188391, Note_on_c, 6, 74, 0
12, 188400, Note_on_c, 6, 74, 44
12, 188400, Note_on_c, 6, 62, 44
12, 188519, Note_on_c, 6, 74, 0
12, 188519, Note_on_c, 6, 62, 0
12, 188640, Note_on_c, 6, 74, 46
12, 188640, Note_on_c, 6, 62, 46
12, 188744, Note_on_c, 6, 74, 0
12, 188744, Note_on_c, 6, 62, 0
12, 188760, Note_on_c, 6, 74, 47
12, 188760, Note_on_c, 6, 62, 47
12, 188841, Note_on_c, 6, 74, 0
12, 188841, Note_on_c, 6, 62, 0
12, 188850, Note_on_c, 6, 62, 48
12, 188850, Note_on_c, 6, 74, 48
12, 188871, Note_on_c, 6, 62, 0
12, 188871, Note_on_c, 6, 74, 0
12, 188880, Note_on_c, 6, 62, 48
12, 188880, Note_on_c, 6, 74, 48
12, 188999, Note_on_c, 6, 62, 0
12, 188999, Note_on_c, 6, 74, 0
12, 189120, Note_on_c, 6, 69, 51
12, 189120, Note_on_c, 6, 57, 51
12, 189224, Note_on_c, 6, 69, 0
12, 189224, Note_on_c, 6, 57, 0
12, 189240, Note_on_c, 6, 69, 52
12, 189240, Note_on_c, 6, 57, 52
12, 189321, Note_on_c, 6, 69, 0
12, 189321, Note_on_c, 6, 57, 0
12, 189330, Note_on_c, 6, 69, 53
12, 189330, Note_on_c, 6, 57, 53
12, 189351, Note_on_c, 6, 69, 0
12, 189351, Note_on_c, 6, 57, 0
12, 189360, Note_on_c, 6, 57, 53
12, 189360, Note_on_c, 6, 69, 53
12, 189479, Note_on_c, 6, 57, 0
12, 189479, Note_on_c, 6, 69, 0
12, 189600, Note_on_c, 6, 74, 56
12, 189600, Note_on_c, 6, 62, 56
12, 189704, Note_on_c, 6, 74, 0
12, 189704, Note_on_c, 6, 62, 0
12, 189720, Note_on_c, 6, 62, 57
12, 189720, Note_on_c, 6, 74, 57
12, 189801, Note_on_c, 6, 62, 0
12, 189801, Note_on_c, 6, 74, 0
12, 189810, Note_on_c, 6, 62, 58
12, 189810, Note_on_c, 6, 74, 58
12, 189831, Note_on_c, 6, 62, 0
12, 189831, Note_on_c, 6, 74, 0
12, 189840, Note_on_c, 6, 74, 58
12, 189840, Note_on_c, 6, 62, 58
12, 189959, Note_on_c, 6, 74, 0
12, 189959, Note_on_c, 6, 62, 0
12, 190080, Note_on_c, 6, 69, 60
12, 190080, Note_on_c, 6, 57, 60
12, 190184, Note_on_c, 6, 69, 0
12, 190184, Note_on_c, 6, 57, 0
12, 190200, Note_on_c, 6, 69, 62
12, 190200, Note_on_c, 6, 57, 62
12, 190281, Note_on_c, 6, 69, 0
12, 190281, Note_on_c, 6, 57, 0
12, 190290, Note_on_c, 6, 57, 62
12, 190290, Note_on_c, 6, 69, 62
12, 190311, Note_on_c, 6, 57, 0
12, 190311, Note_on_c, 6, 69, 0
12, 190320, Note_on_c, 6, 57, 63
12, 190320, Note_on_c, 6, 69, 63
12, 190439, Note_on_c, 6, 57, 0
12, 190439, Note_on_c, 6, 69, 0
12, 190560, Note_on_c, 6, 62, 65
12, 190560, Note_on_c, 6, 74, 65
12, 190664, Note_on_c, 6, 62, 0
12, 190664, Note_on_c, 6, 74, 0
12, 190680, Note_on_c, 6, 74, 66
12, 190680, Note_on_c, 6, 62, 66
12, 190761, Note_on_c, 6, 74, 0
12, 190761, Note_on_c, 6, 62, 0
12, 190770, Note_on_c, 6, 62, 67
12, 190770, Note_on_c, 6, 74, 67
12, 190791, Note_on_c, 6, 62, 0
12, 190791, Note_on_c, 6, 74, 0
12, 190800, Note_on_c, 6, 62, 68
12, 190800, Note_on_c, 6, 74, 68
12, 190919, Note_on_c, 6, 62, 0
12, 190919, Note_on_c, 6, 74, 0
12, 191040, Note_on_c, 6, 57, 70
12, 191040, Note_on_c, 6, 69, 70
12, 191144, Note_on_c, 6, 57, 0
12, 191144, Note_on_c, 6, 69, 0
12, 191160, Note_on_c, 6, 69, 71
12, 191160, Note_on_c, 6, 57, 71
12, 191241, Note_on_c, 6, 69, 0
12, 191241, Note_on_c, 6, 57, 0
12, 191250, Note_on_c, 6, 69, 72
12, 191250, Note_on_c, 6, 57, 72
12, 191271, Note_on_c, 6, 69, 0
12, 191271, Note_on_c, 6, 57, 0
12, 191280, Note_on_c, 6, 69, 72
12, 191280, Note_on_c, 6, 57, 72
12, 191384, Note_on_c, 6, 69, 0
12, 191384, Note_on_c, 6, 57, 0
12, 191400, Note_on_c, 6, 69, 74
12, 191400, Note_on_c, 6, 57, 74
12, 191481, Note_on_c, 6, 69, 0
12, 191481, Note_on_c, 6, 57, 0
12, 191490, Note_on_c, 6, 69, 74
12, 191490, Note_on_c, 6, 57, 74
12, 191511, Note_on_c, 6, 69, 0
12, 191511, Note_on_c, 6, 57, 0
12, 191520, Note_on_c, 6, 69, 75
12, 191520, Note_on_c, 6, 57, 75
12, 191624, Note_on_c, 6, 69, 0
12, 191624, Note_on_c, 6, 57, 0
12, 191640, Note_on_c, 6, 69, 76
12, 191640, Note_on_c, 6, 57, 76
12, 191721, Note_on_c, 6, 69, 0
12, 191721, Note_on_c, 6, 57, 0
12, 191730, Note_on_c, 6, 57, 77
12, 191730, Note_on_c, 6, 69, 77
12, 191751, Note_on_c, 6, 57, 0
12, 191751, Note_on_c, 6, 69, 0
12, 191760, Note_on_c, 6, 69, 77
12, 191760, Note_on_c, 6, 57, 77
12, 191864, Note_on_c, 6, 69, 0
12, 191864, Note_on_c, 6, 57, 0
12, 191880, Note_on_c, 6, 57, 78
12, 191880, Note_on_c, 6, 69, 78
12, 191961, Note_on_c, 6, 57, 0
12, 191961, Note_on_c, 6, 69, 0
12, 191970, Note_on_c, 6, 69, 79
12, 191970, Note_on_c, 6, 57, 79
12, 191991, Note_on_c, 6, 69, 0
12, 191991, Note_on_c, 6, 57, 0
12, 192000, Note_on_c, 6, 69, 80
12, 192000, Note_on_c, 6, 57, 80
12, 192081, Note_on_c, 6, 69, 0
12, 192081, Note_on_c, 6, 57, 0
12, 192090, Note_on_c, 6, 69, 80
12, 192090, Note_on_c, 6, 57, 80
12, 192111, Note_on_c, 6, 69, 0
12, 192111, Note_on_c, 6, 57, 0
12, 192120, Note_on_c, 6, 57, 80
12, 192120, Note_on_c, 6, 69, 80
12, 192239, Note_on_c, 6, 57, 0
12, 192239, Note_on_c, 6, 69, 0
12, 192360, Note_on_c, 6, 57, 80
12, 192360, Note_on_c, 6, 69, 80
12, 192464, Note_on_c, 6, 57, 0
12, 192464, Note_on_c, 6, 69, 0
12, 192480, Note_on_c, 6, 57, 80
12, 192480, Note_on_c, 6, 69, 80
12, 192561, Note_on_c, 6, 57, 0
12, 192561, Note_on_c, 6, 69, 0
12, 192570, Note_on_c, 6, 57, 80
12, 192570, Note_on_c, 6, 69, 80
12, 192591, Note_on_c, 6, 57, 0
12, 192591, Note_on_c, 6, 69, 0
12, 192600, Note_on_c, 6, 74, 80
12, 192600, Note_on_c, 6, 62, 80
12, 192719, Note_on_c, 6, 74, 0
12, 192719, Note_on_c, 6, 62, 0
12, 192840, Note_on_c, 6, 74, 80
12, 192840, Note_on_c, 6, 62, 80
12, 192944, Note_on_c, 6, 74, 0
12, 192944, Note_on_c, 6, 62, 0
12, 192960, Note_on_c, 6, 74, 80
12, 192960, Note_on_c, 6, 62, 80
12, 193041, Note_on_c, 6, 74, 0
12, 193041, Note_on_c, 6, 62, 0
12, 193050, Note_on_c, 6, 62, 80
12, 193050, Note_on_c, 6, 74, 80
12, 193071, Note_on_c, 6, 62, 0
12, 193071, Note_on_c, 6, 74, 0
12, 193080, Note_on_c, 6, 62, 80
12, 193080, Note_on_c, 6, 74, 80
12, 193199, Note_on_c, 6, 62, 0
12, 193199, Note_on_c, 6, 74, 0
12, 193320, Note_on_c, 6, 62, 80
12, 193320, Note_on_c, 6, 74, 80
12, 193424, Note_on_c, 6, 62, 0
12, 193424, Note_on_c, 6, 74, 0
12, 193440, Note_on_c, 6, 62, 80
12, 193440, Note_on_c, 6, 74, 80
12, 193521, Note_on_c, 6, 62, 0
12, 193521, Note_on_c, 6, 74, 0
12, 193530, Note_on_c, 6, 62, 80
12, 193530, Note_on_c, 6, 74, 80
12, 193551, Note_on_c, 6, 62, 0
12, 193551, Note_on_c, 6, 74, 0
12, 193560, Note_on_c, 6, 74, 80
12, 193560, Note_on_c, 6, 62, 80
12, 193679, Note_on_c, 6, 74, 0
12, 193679, Note_on_c, 6, 62, 0
12, 193800, Note_on_c, 6, 74, 80
12, 193800, Note_on_c, 6, 62, 80
12, 193904, Note_on_c, 6, 74, 0
12, 193904, Note_on_c, 6, 62, 0
12, 193920, Note_on_c, 6, 74, 80
12, 193920, Note_on_c, 6, 62, 80
12, 194001, Note_on_c, 6, 74, 0
12, 194001, Note_on_c, 6, 62, 0
12, 194010, Note_on_c, 6, 74, 80
12, 194010, Note_on_c, 6, 62, 80
12, 194031, Note_on_c, 6, 74, 0
12, 194031, Note_on_c, 6, 62, 0
12, 194040, Note_on_c, 6, 74, 80
12, 194040, Note_on_c, 6, 62, 80
12, 194159, Note_on_c, 6, 74, 0
12, 194159, Note_on_c, 6, 62, 0
12, 194280, Note_on_c, 6, 62, 80
12, 194280, Note_on_c, 6, 74, 80
12, 194384, Note_on_c, 6, 62, 0
12, 194384, Note_on_c, 6, 74, 0
12, 194400, Note_on_c, 6, 74, 80
12, 194400, Note_on_c, 6, 62, 80
12, 194451, Note_on_c, 6, 74, 0
12, 194451, Note_on_c, 6, 62, 0
12, 194460, Note_on_c, 6, 76, 80
12, 194460, Note_on_c, 6, 66, 80
12, 194511, Note_on_c, 6, 76, 0
12, 194511, Note_on_c, 6, 66, 0
12, 194520, Note_on_c, 6, 66, 80
12, 194520, Note_on_c, 6, 76, 80
12, 194744, Note_on_c, 6, 66, 0
12, 194744, Note_on_c, 6, 76, 0
12, 194760, Note_on_c, 6, 66, 80
12, 194760, Note_on_c, 6, 76, 80
12, 194841, Note_on_c, 6, 66, 0
12, 194841, Note_on_c, 6, 76, 0
12, 194850, Note_on_c, 6, 66, 80
12, 194850, Note_on_c, 6, 76, 80
12, 194871, Note_on_c, 6, 66, 0
12, 194871, Note_on_c, 6, 76, 0
12, 194880, Note_on_c, 6, 74, 92
12, 194880, Note_on_c, 6, 62, 92
12, 194984, Note_on_c, 6, 74, 0
12, 194984, Note_on_c, 6, 62, 0
12, 195000, Note_on_c, 6, 62, 44
12, 195000, Note_on_c, 6, 74, 44
12, 195119, Note_on_c, 6, 62, 0
12, 195119, Note_on_c, 6, 74, 0
12, 195720, Note_on_c, 6, 74, 92
12, 195720, Note_on_c, 6, 62, 92
12, 195801, Note_on_c, 6, 74, 0
12, 195801, Note_on_c, 6, 62, 0
12, 195810, Note_on_c, 6, 62, 92
12, 195810, Note_on_c, 6, 74, 92
12, 195831, Note_on_c, 6, 62, 0
12, 195831, Note_on_c, 6, 74, 0
12, 195840, Note_on_c, 6, 74, 92
12, 195840, Note_on_c, 6, 62, 92
12, 195944, Note_on_c, 6, 74, 0
12, 195944, Note_on_c, 6, 62, 0
12, 195960, Note_on_c, 6, 62, 44
12, 195960, Note_on_c, 6, 74, 44
12, 196079, Note_on_c, 6, 62, 0
12, 196079, Note_on_c, 6, 74, 0
12, 196680, Note_on_c, 6, 74, 92
12, 196680, Note_on_c, 6, 62, 92
12, 196761, Note_on_c, 6, 74, 0
12, 196761, Note_on_c, 6, 62, 0
12, 196770, Note_on_c, 6, 74, 92
12, 196770, Note_on_c, 6, 62, 92
12, 196791, Note_on_c, 6, 74, 0
12, 196791, Note_on_c, 6, 62, 0
12, 196800, Note_on_c, 6, 62, 92
12, 196800, Note_on_c, 6, 74, 92
12, 196904, Note_on_c, 6, 62, 0
12, 196904, Note_on_c, 6, 74, 0
12, 196920, Note_on_c, 6, 62, 44
12, 196920, Note_on_c, 6, 74, 44
12, 197039, Note_on_c, 6, 62, 0
12, 197039, Note_on_c, 6, 74, 0
12, 197640, Note_on_c, 6, 62, 92
12, 197640, Note_on_c, 6, 74, 92
12, 197721, Note_on_c, 6, 62, 0
12, 197721, Note_on_c, 6, 74, 0
12, 197730, Note_on_c, 6, 62, 92
12, 197730, Note_on_c, 6, 74, 92
12, 197751, Note_on_c, 6, 62, 0
12, 197751, Note_on_c, 6, 74, 0
12, 197760, Note_on_c, 6, 74, 92
12, 197760, Note_on_c, 6, 62, 92
12, 197864, Note_on_c, 6, 74, 0
12, 197864, Note_on_c, 6, 62, 0
12, 197880, Note_on_c, 6, 62, 44
12, 197880, Note_on_c, 6, 74, 44
12, 197999, Note_on_c, 6, 62, 0
12, 197999, Note_on_c, 6, 74, 0
12, 199920, Note_on_c, 6, 69, 80
12, 199920, Note_on_c, 6, 57, 80
12, 200024, Note_on_c, 6, 69, 0
12, 200024, Note_on_c, 6, 57, 0
12, 200040, Note_on_c, 6, 57, 80
12, 200040, Note_on_c, 6, 69, 80
12, 200159, Note_on_c, 6, 57, 0
12, 200159, Note_on_c, 6, 69, 0
12, 200400, Note_on_c, 6, 57, 92
12, 200400, Note_on_c, 6, 69, 92
12, 200504, Note_on_c, 6, 57, 0
12, 200504, Note_on_c, 6, 69, 0
12, 200520, Note_on_c, 6, 69, 92
12, 200520, Note_on_c, 6, 57, 92
12, 200624, Note_on_c, 6, 69, 0
12, 200624, Note_on_c, 6, 57, 0
12, 200640, Note_on_c, 6, 74, 92
12, 200640, Note_on_c, 6, 62, 92
12, 200984, Note_on_c, 6, 74, 0
12, 200984, Note_on_c, 6, 62, 0
12, 201000, Note_on_c, 6, 74, 92
12, 201000, Note_on_c, 6, 62, 92
12, 201081, Note_on_c, 6, 74, 0
12, 201081, Note_on_c, 6, 62, 0
12, 201090, Note_on_c, 6, 62, 92
12, 201090, Note_on_c, 6, 74, 92
12, 201111, Note_on_c, 6, 62, 0
12, 201111, Note_on_c, 6, 74, 0
12, 201120, Note_on_c, 6, 62, 104
12, 201120, Note_on_c, 6, 74, 104
12, 201180, Control_c, 6, 11, 107
12, 201464, Note_on_c, 6, 62, 0
12, 201464, Note_on_c, 6, 74, 0
12, 201480, Note_on_c, 6, 62, 104
12, 201480, Note_on_c, 6, 74, 104
12, 201561, Note_on_c, 6, 62, 0
12, 201561, Note_on_c, 6, 74, 0
12, 201570, Note_on_c, 6, 62, 104
12, 201570, Note_on_c, 6, 74, 104
12, 201591, Note_on_c, 6, 62, 0
12, 201591, Note_on_c, 6, 74, 0
12, 201598, Control_c, 6, 11, 127
12, 201600, Note_on_c, 6, 62, 104
12, 201600, Note_on_c, 6, 74, 104
12, 201660, Control_c, 6, 11, 107
12, 201944, Note_on_c, 6, 62, 0
12, 201944, Note_on_c, 6, 74, 0
12, 201960, Note_on_c, 6, 62, 104
12, 201960, Note_on_c, 6, 74, 104
12, 202041, Note_on_c, 6, 62, 0
12, 202041, Note_on_c, 6, 74, 0
12, 202050, Note_on_c, 6, 74, 104
12, 202050, Note_on_c, 6, 62, 104
12, 202071, Note_on_c, 6, 74, 0
12, 202071, Note_on_c, 6, 62, 0
12, 202078, Control_c, 6, 11, 127
12, 202080, Note_on_c, 6, 74, 92
12, 202080, Note_on_c, 6, 62, 92
12, 202184, Note_on_c, 6, 74, 0
12, 202184, Note_on_c, 6, 62, 0
12, 202200, Note_on_c, 6, 74, 92
12, 202200, Note_on_c, 6, 62, 92
12, 202281, Note_on_c, 6, 74, 0
12, 202281, Note_on_c, 6, 62, 0
12, 202290, Note_on_c, 6, 62, 92
12, 202290, Note_on_c, 6, 74, 92
12, 202311, Note_on_c, 6, 62, 0
12, 202311, Note_on_c, 6, 74, 0
12, 202320, Note_on_c, 6, 62, 92
12, 202320, Note_on_c, 6, 74, 92
12, 202424, Note_on_c, 6, 62, 0
12, 202424, Note_on_c, 6, 74, 0
12, 202440, Note_on_c, 6, 74, 92
12, 202440, Note_on_c, 6, 62, 92
12, 202521, Note_on_c, 6, 74, 0
12, 202521, Note_on_c, 6, 62, 0
12, 202530, Note_on_c, 6, 62, 92
12, 202530, Note_on_c, 6, 74, 92
12, 202551, Note_on_c, 6, 62, 0
12, 202551, Note_on_c, 6, 74, 0
12, 202560, Note_on_c, 6, 62, 80
12, 202560, Note_on_c, 6, 74, 80
12, 202649, Note_on_c, 6, 62, 0
12, 202649, Note_on_c, 6, 74, 0
12, 202680, Note_on_c, 6, 62, 80
12, 202680, Note_on_c, 6, 74, 80
12, 202761, Note_on_c, 6, 62, 0
12, 202761, Note_on_c, 6, 74, 0
12, 202770, Note_on_c, 6, 62, 80
12, 202770, Note_on_c, 6, 74, 80
12, 202791, Note_on_c, 6, 62, 0
12, 202791, Note_on_c, 6, 74, 0
12, 202800, Note_on_c, 6, 74, 80
12, 202800, Note_on_c, 6, 62, 80
12, 202889, Note_on_c, 6, 74, 0
12, 202889, Note_on_c, 6, 62, 0
12, 202920, Note_on_c, 6, 62, 80
12, 202920, Note_on_c, 6, 74, 80
12, 203001, Note_on_c, 6, 62, 0
12, 203001, Note_on_c, 6, 74, 0
12, 203010, Note_on_c, 6, 74, 80
12, 203010, Note_on_c, 6, 62, 80
12, 203031, Note_on_c, 6, 74, 0
12, 203031, Note_on_c, 6, 62, 0
12, 203040, Note_on_c, 6, 62, 80
12, 203040, Note_on_c, 6, 74, 80
12, 203129, Note_on_c, 6, 62, 0
12, 203129, Note_on_c, 6, 74, 0
12, 203160, Note_on_c, 6, 74, 80
12, 203160, Note_on_c, 6, 62, 80
12, 203241, Note_on_c, 6, 74, 0
12, 203241, Note_on_c, 6, 62, 0
12, 203250, Note_on_c, 6, 62, 80
12, 203250, Note_on_c, 6, 74, 80
12, 203271, Note_on_c, 6, 62, 0
12, 203271, Note_on_c, 6, 74, 0
12, 203280, Note_on_c, 6, 62, 80
12, 203280, Note_on_c, 6, 74, 80
12, 203369, Note_on_c, 6, 62, 0
12, 203369, Note_on_c, 6, 74, 0
12, 203400, Note_on_c, 6, 62, 80
12, 203400, Note_on_c, 6, 74, 80
12, 203481, Note_on_c, 6, 62, 0
12, 203481, Note_on_c, 6, 74, 0
12, 203490, Note_on_c, 6, 62, 80
12, 203490, Note_on_c, 6, 74, 80
12, 203511, Note_on_c, 6, 62, 0
12, 203511, Note_on_c, 6, 74, 0
12, 203520, Note_on_c, 6, 74, 80
12, 203520, Note_on_c, 6, 62, 80
12, 203609, Note_on_c, 6, 74, 0
12, 203609, Note_on_c, 6, 62, 0
12, 203640, Note_on_c, 6, 74, 80
12, 203640, Note_on_c, 6, 62, 80
12, 203721, Note_on_c, 6, 74, 0
12, 203721, Note_on_c, 6, 62, 0
12, 203730, Note_on_c, 6, 62, 80
12, 203730, Note_on_c, 6, 74, 80
12, 203751, Note_on_c, 6, 62, 0
12, 203751, Note_on_c, 6, 74, 0
12, 203760, Note_on_c, 6, 74, 80
12, 203760, Note_on_c, 6, 62, 80
12, 203849, Note_on_c, 6, 74, 0
12, 203849, Note_on_c, 6, 62, 0
12, 203880, Note_on_c, 6, 62, 80
12, 203880, Note_on_c, 6, 74, 80
12, 203961, Note_on_c, 6, 62, 0
12, 203961, Note_on_c, 6, 74, 0
12, 203970, Note_on_c, 6, 74, 80
12, 203970, Note_on_c, 6, 62, 80
12, 203991, Note_on_c, 6, 74, 0
12, 203991, Note_on_c, 6, 62, 0
12, 204000, Note_on_c, 6, 74, 80
12, 204000, Note_on_c, 6, 62, 80
12, 204089, Note_on_c, 6, 74, 0
12, 204089, Note_on_c, 6, 62, 0
12, 204120, Note_on_c, 6, 74, 80
12, 204120, Note_on_c, 6, 62, 80
12, 204201, Note_on_c, 6, 74, 0
12, 204201, Note_on_c, 6, 62, 0
12, 204210, Note_on_c, 6, 62, 80
12, 204210, Note_on_c, 6, 74, 80
12, 204231, Note_on_c, 6, 62, 0
12, 204231, Note_on_c, 6, 74, 0
12, 204240, Note_on_c, 6, 62, 80
12, 204240, Note_on_c, 6, 74, 80
12, 204329, Note_on_c, 6, 62, 0
12, 204329, Note_on_c, 6, 74, 0
12, 204360, Note_on_c, 6, 74, 62
12, 204360, Note_on_c, 6, 62, 62
12, 204441, Note_on_c, 6, 74, 0
12, 204441, Note_on_c, 6, 62, 0
12, 204450, Note_on_c, 6, 62, 49
12, 204450, Note_on_c, 6, 74, 49
12, 204471, Note_on_c, 6, 62, 0
12, 204471, Note_on_c, 6, 74, 0
12, 204480, Note_on_c, 6, 69, 44
12, 204480, Note_on_c, 6, 57, 44
12, 204599, Note_on_c, 6, 69, 0
12, 204599, Note_on_c, 6, 57, 0
12, 216960, Note_on_c, 6, 69, 92
12, 216960, Note_on_c, 6, 57, 92
12, 217424, Note_on_c, 6, 69, 0
12, 217424, Note_on_c, 6, 57, 0
12, 217440, Note_on_c, 6, 57, 92
12, 217440, Note_on_c, 6, 69, 92
12, 217491, Note_on_c, 6, 57, 0
12, 217491, Note_on_c, 6, 69, 0
12, 217500, Note_on_c, 6, 69, 92
12, 217500, Note_on_c, 6, 57, 92
12, 217611, Note_on_c, 6, 69, 0
12, 217611, Note_on_c, 6, 57, 0
12, 217620, Note_on_c, 6, 69, 92
12, 217620, Note_on_c, 6, 57, 92
12, 217731, Note_on_c, 6, 69, 0
12, 217731, Note_on_c, 6, 57, 0
12, 217740, Note_on_c, 6, 57, 92
12, 217740, Note_on_c, 6, 69, 92
12, 217851, Note_on_c, 6, 57, 0
12, 217851, Note_on_c, 6, 69, 0
12, 217860, Note_on_c, 6, 57, 92
12, 217860, Note_on_c, 6, 69, 92
12, 217919, Note_on_c, 6, 57, 0
12, 217919, Note_on_c, 6, 69, 0
12, 217920, Note_on_c, 6, 74, 92
12, 217920, Note_on_c, 6, 62, 92
12, 217971, Note_on_c, 6, 74, 0
12, 217971, Note_on_c, 6, 62, 0
12, 217980, Note_on_c, 6, 62, 92
12, 217980, Note_on_c, 6, 74, 92
12, 218091, Note_on_c, 6, 62, 0
12, 218091, Note_on_c, 6, 74, 0
12, 218100, Note_on_c, 6, 62, 92
12, 218100, Note_on_c, 6, 74, 92
12, 218211, Note_on_c, 6, 62, 0
12, 218211, Note_on_c, 6, 74, 0
12, 218220, Note_on_c, 6, 62, 92
12, 218220, Note_on_c, 6, 74, 92
12, 218331, Note_on_c, 6, 62, 0
12, 218331, Note_on_c, 6, 74, 0
12, 218340, Note_on_c, 6, 74, 92
12, 218340, Note_on_c, 6, 62, 92
12, 218391, Note_on_c, 6, 74, 0
12, 218391, Note_on_c, 6, 62, 0
12, 218400, Note_on_c, 6, 74, 92
12, 218400, Note_on_c, 6, 62, 92
12, 218504, Note_on_c, 6, 74, 0
12, 218504, Note_on_c, 6, 62, 0
12, 218520, Note_on_c, 6, 74, 92
12, 218520, Note_on_c, 6, 62, 92
12, 218639, Note_on_c, 6, 74, 0
12, 218639, Note_on_c, 6, 62, 0
12, 218760, Note_on_c, 6, 57, 92
12, 218760, Note_on_c, 6, 69, 92
12, 218864, Note_on_c, 6, 57, 0
12, 218864, Note_on_c, 6, 69, 0
12, 218880, Note_on_c, 6, 69, 44
12, 218880, Note_on_c, 6, 57, 44
12, 218999, Note_on_c, 6, 69, 0
12, 218999, Note_on_c, 6, 57, 0
12, 219240, Note_on_c, 6, 69, 45
12, 219240, Note_on_c, 6, 57, 45
12, 219321, Note_on_c, 6, 69, 0
12, 219321, Note_on_c, 6, 57, 0
12, 219330, Note_on_c, 6, 57, 46
12, 219330, Note_on_c, 6, 69, 46
12, 219351, Note_on_c, 6, 57, 0
12, 219351, Note_on_c, 6, 69, 0
12, 219360, Note_on_c, 6, 69, 47
12, 219360, Note_on_c, 6, 57, 47
12, 219479, Note_on_c, 6, 69, 0
12, 219479, Note_on_c, 6, 57, 0
12, 219720, Note_on_c, 6, 57, 52
12, 219720, Note_on_c, 6, 69, 52
12, 219801, Note_on_c, 6, 57, 0
12, 219801, Note_on_c, 6, 69, 0
12, 219810, Note_on_c, 6, 69, 53
12, 219810, Note_on_c, 6, 57, 53
12, 219831, Note_on_c, 6, 69, 0
12, 219831, Note_on_c, 6, 57, 0
12, 219840, Note_on_c, 6, 62, 53
12, 219840, Note_on_c, 6, 74, 53
12, 219959, Note_on_c, 6, 62, 0
12, 219959, Note_on_c, 6, 74, 0
12, 220800, Note_on_c, 6, 62, 66
12, 220800, Note_on_c, 6, 74, 66
12, 220919, Note_on_c, 6, 62, 0
12, 220919, Note_on_c, 6, 74, 0
12, 221160, Note_on_c, 6, 74, 71
12, 221160, Note_on_c, 6, 62, 71
12, 221241, Note_on_c, 6, 74, 0
12, 221241, Note_on_c, 6, 62, 0
12, 221250, Note_on_c, 6, 74, 73
12, 221250, Note_on_c, 6, 62, 73
12, 221271, Note_on_c, 6, 74, 0
12, 221271, Note_on_c, 6, 62, 0
12, 221280, Note_on_c, 6, 62, 73
12, 221280, Note_on_c, 6, 74, 73
12, 221331, Note_on_c, 6, 62, 0
12, 221331, Note_on_c, 6, 74, 0
12, 221340, Note_on_c, 6, 62, 74
12, 221340, Note_on_c, 6, 74, 74
12, 221451, Note_on_c, 6, 62, 0
12, 221451, Note_on_c, 6, 74, 0
12, 221460, Note_on_c, 6, 74, 75
12, 221460, Note_on_c, 6, 62, 75
12, 221571, Note_on_c, 6, 74, 0
12, 221571, Note_on_c, 6, 62, 0
12, 221580, Note_on_c, 6, 62, 77
12, 221580, Note_on_c, 6, 74, 77
12, 221691, Note_on_c, 6, 62, 0
12, 221691, Note_on_c, 6, 74, 0
12, 221700, Note_on_c, 6, 74, 79
12, 221700, Note_on_c, 6, 62, 79
12, 221864, Note_on_c, 6, 74, 0
12, 221864, Note_on_c, 6, 62, 0
12, 221880, Note_on_c, 6, 74, 80
12, 221880, Note_on_c, 6, 62, 80
12, 221961, Note_on_c, 6, 74, 0
12, 221961, Note_on_c, 6, 62, 0
12, 221970, Note_on_c, 6, 62, 80
12, 221970, Note_on_c, 6, 74, 80
12, 221991, Note_on_c, 6, 62, 0
12, 221991, Note_on_c, 6, 74, 0
12, 222000, Note_on_c, 6, 74, 80
12, 222000, Note_on_c, 6, 62, 80
12, 222119, Note_on_c, 6, 74, 0
12, 222119, Note_on_c, 6, 62, 0
12, 222240, Note_on_c, 6, 62, 80
12, 222240, Note_on_c, 6, 74, 80
12, 222344, Note_on_c, 6, 62, 0
12, 222344, Note_on_c, 6, 74, 0
12, 222360, Note_on_c, 6, 74, 80
12, 222360, Note_on_c, 6, 62, 80
12, 222479, Note_on_c, 6, 74, 0
12, 222479, Note_on_c, 6, 62, 0
12, 222840, Note_on_c, 6, 69, 80
12, 222840, Note_on_c, 6, 57, 80
12, 222921, Note_on_c, 6, 69, 0
12, 222921, Note_on_c, 6, 57, 0
12, 222930, Note_on_c, 6, 57, 80
12, 222930, Note_on_c, 6, 69, 80
12, 222951, Note_on_c, 6, 57, 0
12, 222951, Note_on_c, 6, 69, 0
12, 222960, Note_on_c, 6, 57, 80
12, 222960, Note_on_c, 6, 69, 80
12, 223079, Note_on_c, 6, 57, 0
12, 223079, Note_on_c, 6, 69, 0
12, 223320, Note_on_c, 6, 69, 80
12, 223320, Note_on_c, 6, 57, 80
12, 223401, Note_on_c, 6, 69, 0
12, 223401, Note_on_c, 6, 57, 0
12, 223410, Note_on_c, 6, 69, 80
12, 223410, Note_on_c, 6, 57, 80
12, 223431, Note_on_c, 6, 69, 0
12, 223431, Note_on_c, 6, 57, 0
12, 223440, Note_on_c, 6, 69, 80
12, 223440, Note_on_c, 6, 57, 80
12, 223559, Note_on_c, 6, 69, 0
12, 223559, Note_on_c, 6, 57, 0
12, 223800, Note_on_c, 6, 74, 80
12, 223800, Note_on_c, 6, 62, 80
12, 223881, Note_on_c, 6, 74, 0
12, 223881, Note_on_c, 6, 62, 0
12, 223890, Note_on_c, 6, 62, 80
12, 223890, Note_on_c, 6, 74, 80
12, 223911, Note_on_c, 6, 62, 0
12, 223911, Note_on_c, 6, 74, 0
12, 223920, Note_on_c, 6, 74, 80
12, 223920, Note_on_c, 6, 62, 80
12, 224024, Note_on_c, 6, 74, 0
12, 224024, Note_on_c, 6, 62, 0
12, 224040, Note_on_c, 6, 62, 80
12, 224040, Note_on_c, 6, 74, 80
12, 224121, Note_on_c, 6, 62, 0
12, 224121, Note_on_c, 6, 74, 0
12, 224130, Note_on_c, 6, 74, 80
12, 224130, Note_on_c, 6, 62, 80
12, 224151, Note_on_c, 6, 74, 0
12, 224151, Note_on_c, 6, 62, 0
12, 224160, Note_on_c, 6, 74, 80
12, 224160, Note_on_c, 6, 62, 80
12, 224264, Note_on_c, 6, 74, 0
12, 224264, Note_on_c, 6, 62, 0
12, 224280, Note_on_c, 6, 76, 80
12, 224361, Note_on_c, 6, 76, 0
12, 224370, Note_on_c, 6, 76, 80
12, 224391, Note_on_c, 6, 76, 0
12, 224400, Note_on_c, 6, 76, 80
12, 224504, Note_on_c, 6, 76, 0
12, 224520, Note_on_c, 6, 57, 80
12, 224520, Note_on_c, 6, 69, 80
12, 224601, Note_on_c, 6, 57, 0
12, 224601, Note_on_c, 6, 69, 0
12, 224610, Note_on_c, 6, 69, 80
12, 224610, Note_on_c, 6, 57, 80
12, 224631, Note_on_c, 6, 69, 0
12, 224631, Note_on_c, 6, 57, 0
12, 224640, Note_on_c, 6, 57, 44
12, 224640, Note_on_c, 6, 69, 44
12, 224759, Note_on_c, 6, 57, 0
12, 224759, Note_on_c, 6, 69, 0
12, 225240, Note_on_c, 6, 57, 44
12, 225240, Note_on_c, 6, 69, 44
12, 225359, Note_on_c, 6, 57, 0
12, 225359, Note_on_c, 6, 69, 0
12, 225720, Note_on_c, 6, 57, 44
12, 225720, Note_on_c, 6, 69, 44
12, 225839, Note_on_c, 6, 57, 0
12, 225839, Note_on_c, 6, 69, 0
12, 226200, Note_on_c, 6, 69, 44
12, 226200, Note_on_c, 6, 57, 44
12, 226319, Note_on_c, 6, 69, 0
12, 226319, Note_on_c, 6, 57, 0
12, 226680, Note_on_c, 6, 57, 44
12, 226680, Note_on_c, 6, 69, 44
12, 226799, Note_on_c, 6, 57, 0
12, 226799, Note_on_c, 6, 69, 0
12, 227160, Note_on_c, 6, 69, 44
12, 227160, Note_on_c, 6, 57, 44
12, 227279, Note_on_c, 6, 69, 0
12, 227279, Note_on_c, 6, 57, 0
12, 227640, Note_on_c, 6, 69, 44
12, 227640, Note_on_c, 6, 57, 44
12, 227759, Note_on_c, 6, 69, 0
12, 227759, Note_on_c, 6, 57, 0
12, 228120, Note_on_c, 6, 69, 44
12, 228120, Note_on_c, 6, 57, 44
12, 228239, Note_on_c, 6, 69, 0
12, 228239, Note_on_c, 6, 57, 0
12, 228600, Note_on_c, 6, 57, 44
12, 228600, Note_on_c, 6, 69, 44
12, 228704, Note_on_c, 6, 57, 0
12, 228704, Note_on_c, 6, 69, 0
12, 228720, Note_on_c, 6, 57, 44
12, 228720, Note_on_c, 6, 69, 44
12, 228839, Note_on_c, 6, 57, 0
12, 228839, Note_on_c, 6, 69, 0
12, 229080, Note_on_c, 6, 69, 44
12, 229080, Note_on_c, 6, 57, 44
12, 229184, Note_on_c, 6, 69, 0
12, 229184, Note_on_c, 6, 57, 0
12, 229200, Note_on_c, 6, 69, 44
12, 229200, Note_on_c, 6, 57, 44
12, 229319, Note_on_c, 6, 69, 0
12, 229319, Note_on_c, 6, 57, 0
12, 229560, Note_on_c, 6, 57, 44
12, 229560, Note_on_c, 6, 69, 44
12, 229664, Note_on_c, 6, 57, 0
12, 229664, Note_on_c, 6, 69, 0
12, 229680, Note_on_c, 6, 69, 44
12, 229680, Note_on_c, 6, 57, 44
12, 229799, Note_on_c, 6, 69, 0
12, 229799, Note_on_c, 6, 57, 0
12, 230040, Note_on_c, 6, 57, 44
12, 230040, Note_on_c, 6, 69, 44
12, 230144, Note_on_c, 6, 57, 0
12, 230144, Note_on_c, 6, 69, 0
12, 230160, Note_on_c, 6, 57, 44
12, 230160, Note_on_c, 6, 69, 44
12, 230279, Note_on_c, 6, 57, 0
12, 230279, Note_on_c, 6, 69, 0
12, 230520, Note_on_c, 6, 57, 45
12, 230520, Note_on_c, 6, 69, 45
12, 230624, Note_on_c, 6, 57, 0
12, 230624, Note_on_c, 6, 69, 0
12, 230640, Note_on_c, 6, 57, 46
12, 230640, Note_on_c, 6, 69, 46
12, 230744, Note_on_c, 6, 57, 0
12, 230744, Note_on_c, 6, 69, 0
12, 230760, Note_on_c, 6, 69, 47
12, 230760, Note_on_c, 6, 57, 47
12, 230864, Note_on_c, 6, 69, 0
12, 230864, Note_on_c, 6, 57, 0
12, 230880, Note_on_c, 6, 57, 48
12, 230880, Note_on_c, 6, 69, 48
12, 230984, Note_on_c, 6, 57, 0
12, 230984, Note_on_c, 6, 69, 0
12, 231000, Note_on_c, 6, 69, 50
12, 231000, Note_on_c, 6, 57, 50
12, 231104, Note_on_c, 6, 69, 0
12, 231104, Note_on_c, 6, 57, 0
12, 231120, Note_on_c, 6, 69, 51
12, 231120, Note_on_c, 6, 57, 51
12, 231224, Note_on_c, 6, 69, 0
12, 231224, Note_on_c, 6, 57, 0
12, 231240, Note_on_c, 6, 69, 52
12, 231240, Note_on_c, 6, 57, 52
12, 231344, Note_on_c, 6, 69, 0
12, 231344, Note_on_c, 6, 57, 0
12, 231360, Note_on_c, 6, 69, 53
12, 231360, Note_on_c, 6, 57, 53
12, 231464, Note_on_c, 6, 69, 0
12, 231464, Note_on_c, 6, 57, 0
12, 231480, Note_on_c, 6, 69, 54
12, 231480, Note_on_c, 6, 57, 54
12, 231584, Note_on_c, 6, 69, 0
12, 231584, Note_on_c, 6, 57, 0
12, 231600, Note_on_c, 6, 69, 56
12, 231600, Note_on_c, 6, 57, 56
12, 231704, Note_on_c, 6, 69, 0
12, 231704, Note_on_c, 6, 57, 0
12, 231720, Note_on_c, 6, 69, 57
12, 231720, Note_on_c, 6, 57, 57
12, 231824, Note_on_c, 6, 69, 0
12, 231824, Note_on_c, 6, 57, 0
12, 231840, Note_on_c, 6, 57, 58
12, 231840, Note_on_c, 6, 69, 58
12, 231944, Note_on_c, 6, 57, 0
12, 231944, Note_on_c, 6, 69, 0
12, 231960, Note_on_c, 6, 62, 59
12, 231960, Note_on_c, 6, 74, 59
12, 232064, Note_on_c, 6, 62, 0
12, 232064, Note_on_c, 6, 74, 0
12, 232080, Note_on_c, 6, 74, 60
12, 232080, Note_on_c, 6, 62, 60
12, 232184, Note_on_c, 6, 74, 0
12, 232184, Note_on_c, 6, 62, 0
12, 232200, Note_on_c, 6, 74, 62
12, 232200, Note_on_c, 6, 62, 62
12, 232319, Note_on_c, 6, 74, 0
12, 232319, Note_on_c, 6, 62, 0
12, 232680, Note_on_c, 6, 57, 66
12, 232680, Note_on_c, 6, 69, 66
12, 232784, Note_on_c, 6, 57, 0
12, 232784, Note_on_c, 6, 69, 0
12, 232800, Note_on_c, 6, 57, 68
12, 232800, Note_on_c, 6, 69, 68
12, 232904, Note_on_c, 6, 57, 0
12, 232904, Note_on_c, 6, 69, 0
12, 232920, Note_on_c, 6, 69, 69
12, 232920, Note_on_c, 6, 57, 69
12, 233024, Note_on_c, 6, 69, 0
12, 233024, Note_on_c, 6, 57, 0
12, 233040, Note_on_c, 6, 74, 70
12, 233040, Note_on_c, 6, 62, 70
12, 233144, Note_on_c, 6, 74, 0
12, 233144, Note_on_c, 6, 62, 0
12, 233160, Note_on_c, 6, 74, 71
12, 233160, Note_on_c, 6, 62, 71
12, 233264, Note_on_c, 6, 74, 0
12, 233264, Note_on_c, 6, 62, 0
12, 233280, Note_on_c, 6, 62, 72
12, 233280, Note_on_c, 6, 74, 72
12, 233384, Note_on_c, 6, 62, 0
12, 233384, Note_on_c, 6, 74, 0
12, 233400, Note_on_c, 6, 74, 74
12, 233400, Note_on_c, 6, 62, 74
12, 233504, Note_on_c, 6, 74, 0
12, 233504, Note_on_c, 6, 62, 0
12, 233520, Note_on_c, 6, 74, 75
12, 233520, Note_on_c, 6, 62, 75
12, 233639, Note_on_c, 6, 74, 0
12, 233639, Note_on_c, 6, 62, 0
12, 234120, Note_on_c, 6, 74, 80
12, 234120, Note_on_c, 6, 62, 80
12, 234344, Note_on_c, 6, 74, 0
12, 234344, Note_on_c, 6, 62, 0
12, 234360, Note_on_c, 6, 74, 80
12, 234360, Note_on_c, 6, 62, 80
12, 234464, Note_on_c, 6, 74, 0
12, 234464, Note_on_c, 6, 62, 0
12, 234480, Note_on_c, 6, 62, 80
12, 234480, Note_on_c, 6, 74, 80
12, 234584, Note_on_c, 6, 62, 0
12, 234584, Note_on_c, 6, 74, 0
12, 234600, Note_on_c, 6, 74, 92
12, 234600, Note_on_c, 6, 62, 92
12, 234824, Note_on_c, 6, 74, 0
12, 234824, Note_on_c, 6, 62, 0
12, 234840, Note_on_c, 6, 74, 92
12, 234840, Note_on_c, 6, 62, 92
12, 234944, Note_on_c, 6, 74, 0
12, 234944, Note_on_c, 6, 62, 0
12, 234960, Note_on_c, 6, 74, 92
12, 234960, Note_on_c, 6, 62, 92
12, 235050, Control_c, 6, 11, 117
12, 235064, Note_on_c, 6, 74, 0
12, 235064, Note_on_c, 6, 62, 0
12, 235080, Note_on_c, 6, 74, 92
12, 235080, Control_c, 6, 11, 114
12, 235080, Note_on_c, 6, 62, 92
12, 235110, Control_c, 6, 11, 110
12, 235140, Control_c, 6, 11, 107
12, 235170, Control_c, 6, 11, 104
12, 235200, Control_c, 6, 11, 100
12, 235230, Control_c, 6, 11, 97
12, 235260, Control_c, 6, 11, 94
12, 235290, Control_c, 6, 11, 90
12, 235304, Note_on_c, 6, 74, 0
12, 235304, Note_on_c, 6, 62, 0
12, 235320, Note_on_c, 6, 62, 92
12, 235320, Note_on_c, 6, 74, 92
12, 235320, Control_c, 6, 11, 87
12, 235350, Control_c, 6, 11, 84
12, 235380, Control_c, 6, 11, 80
12, 235410, Control_c, 6, 11, 77
12, 235424, Note_on_c, 6, 62, 0
12, 235424, Note_on_c, 6, 74, 0
12, 235440, Control_c, 6, 11, 74
12, 235440, Note_on_c, 6, 74, 92
12, 235440, Note_on_c, 6, 62, 92
12, 235470, Control_c, 6, 11, 70
12, 235500, Control_c, 6, 11, 67
12, 235530, Control_c, 6, 11, 64
12, 235544, Note_on_c, 6, 74, 0
12, 235544, Note_on_c, 6, 62, 0
12, 235560, Control_c, 6, 11, 60
12, 235590, Control_c, 6, 11, 57
12, 236160, Control_c, 6, 11, 67
12, 236280, Note_on_c, 6, 62, 80
12, 236280, Note_on_c, 6, 74, 80
12, 236384, Note_on_c, 6, 62, 0
12, 236384, Note_on_c, 6, 74, 0
12, 236400, Note_on_c, 6, 74, 80
12, 236400, Note_on_c, 6, 62, 80
12, 236504, Note_on_c, 6, 74, 0
12, 236504, Note_on_c, 6, 62, 0
12, 236520, Note_on_c, 6, 62, 80
12, 236520, Note_on_c, 6, 74, 80
12, 236744, Note_on_c, 6, 62, 0
12, 236744, Note_on_c, 6, 74, 0
12, 236760, Note_on_c, 6, 62, 80
12, 236760, Note_on_c, 6, 74, 80
12, 236864, Note_on_c, 6, 62, 0
12, 236864, Note_on_c, 6, 74, 0
12, 236880, Note_on_c, 6, 62, 80
12, 236880, Note_on_c, 6, 74, 80
12, 236984, Note_on_c, 6, 62, 0
12, 236984, Note_on_c, 6, 74, 0
12, 237000, Note_on_c, 6, 69, 80
12, 237000, Control_c, 6, 11, 67
12, 237000, Note_on_c, 6, 57, 80
12, 237023, Control_c, 6, 11, 68
12, 237045, Control_c, 6, 11, 70
12, 237068, Control_c, 6, 11, 71
12, 237090, Control_c, 6, 11, 72
12, 237113, Control_c, 6, 11, 73
12, 237135, Control_c, 6, 11, 75
12, 237158, Control_c, 6, 11, 76
12, 237180, Control_c, 6, 11, 77
12, 237203, Control_c, 6, 11, 78
12, 237225, Control_c, 6, 11, 80
12, 237248, Control_c, 6, 11, 81
12, 237270, Control_c, 6, 11, 82
12, 237293, Control_c, 6, 11, 83
12, 237315, Control_c, 6, 11, 85
12, 237338, Control_c, 6, 11, 86
12, 237360, Control_c, 6, 11, 87
12, 237383, Control_c, 6, 11, 88
12, 237405, Control_c, 6, 11, 90
12, 237428, Control_c, 6, 11, 91
12, 237450, Control_c, 6, 11, 92
12, 237473, Control_c, 6, 11, 93
12, 237495, Control_c, 6, 11, 95
12, 237518, Control_c, 6, 11, 96
12, 237540, Control_c, 6, 11, 97
12, 237563, Control_c, 6, 11, 98
12, 237585, Control_c, 6, 11, 100
12, 237608, Control_c, 6, 11, 101
12, 237630, Control_c, 6, 11, 102
12, 237651, Note_on_c, 6, 69, 0
12, 237651, Note_on_c, 6, 57, 0
12, 237653, Control_c, 6, 11, 103
12, 237660, Note_on_c, 6, 69, 80
12, 237660, Note_on_c, 6, 57, 80
12, 237675, Control_c, 6, 11, 105
12, 237698, Control_c, 6, 11, 106
12, 237711, Note_on_c, 6, 69, 0
12, 237711, Note_on_c, 6, 57, 0
12, 237720, Control_c, 6, 11, 107
12, 237720, Note_on_c, 6, 57, 80
12, 237720, Note_on_c, 6, 69, 80
12, 237743, Control_c, 6, 11, 108
12, 237765, Control_c, 6, 11, 110
12, 237771, Note_on_c, 6, 57, 0
12, 237771, Note_on_c, 6, 69, 0
12, 237780, Note_on_c, 6, 69, 80
12, 237780, Note_on_c, 6, 57, 80
12, 237788, Control_c, 6, 11, 111
12, 237810, Control_c, 6, 11, 112
12, 237831, Note_on_c, 6, 69, 0
12, 237831, Note_on_c, 6, 57, 0
12, 237833, Control_c, 6, 11, 113
12, 237840, Note_on_c, 6, 57, 80
12, 237840, Note_on_c, 6, 69, 80
12, 237855, Control_c, 6, 11, 115
12, 237878, Control_c, 6, 11, 116
12, 237891, Note_on_c, 6, 57, 0
12, 237891, Note_on_c, 6, 69, 0
12, 237900, Control_c, 6, 11, 117
12, 237900, Note_on_c, 6, 57, 80
12, 237900, Note_on_c, 6, 69, 80
12, 237923, Control_c, 6, 11, 118
12, 237945, Control_c, 6, 11, 120
12, 237951, Note_on_c, 6, 57, 0
12, 237951, Note_on_c, 6, 69, 0
12, 237960, Note_on_c, 6, 57, 80
12, 237960, Note_on_c, 6, 69, 80
12, 237968, Control_c, 6, 11, 121
12, 237990, Control_c, 6, 11, 122
12, 238011, Note_on_c, 6, 57, 0
12, 238011, Note_on_c, 6, 69, 0
12, 238013, Control_c, 6, 11, 123
12, 238020, Note_on_c, 6, 57, 80
12, 238020, Note_on_c, 6, 69, 80
12, 238035, Control_c, 6, 11, 125
12, 238058, Control_c, 6, 11, 127
12, 238071, Note_on_c, 6, 57, 0
12, 238071, Note_on_c, 6, 69, 0
12, 238080, Note_on_c, 6, 62, 80
12, 238080, Note_on_c, 6, 74, 80
12, 238131, Note_on_c, 6, 62, 0
12, 238131, Note_on_c, 6, 74, 0
12, 238140, Note_on_c, 6, 74, 80
12, 238140, Note_on_c, 6, 62, 80
12, 238191, Note_on_c, 6, 74, 0
12, 238191, Note_on_c, 6, 62, 0
12, 238200, Note_on_c, 6, 74, 80
12, 238200, Note_on_c, 6, 62, 80
12, 238251, Note_on_c, 6, 74, 0
12, 238251, Note_on_c, 6, 62, 0
12, 238260, Note_on_c, 6, 74, 80
12, 238260, Note_on_c, 6, 62, 80
12, 238311, Note_on_c, 6, 74, 0
12, 238311, Note_on_c, 6, 62, 0
12, 238320, Note_on_c, 6, 74, 80
12, 238320, Note_on_c, 6, 62, 80
12, 238371, Note_on_c, 6, 74, 0
12, 238371, Note_on_c, 6, 62, 0
12, 238380, Note_on_c, 6, 62, 80
12, 238380, Note_on_c, 6, 74, 80
12, 238431, Note_on_c, 6, 62, 0
12, 238431, Note_on_c, 6, 74, 0
12, 238440, Note_on_c, 6, 62, 80
12, 238440, Note_on_c, 6, 74, 80
12, 238491, Note_on_c, 6, 62, 0
12, 238491, Note_on_c, 6, 74, 0
12, 238500, Note_on_c, 6, 62, 80
12, 238500, Note_on_c, 6, 74, 80
12, 238551, Note_on_c, 6, 62, 0
12, 238551, Note_on_c, 6, 74, 0
12, 238560, Note_on_c, 6, 74, 80
12, 238560, Note_on_c, 6, 62, 80
12, 238664, Note_on_c, 6, 74, 0
12, 238664, Note_on_c, 6, 62, 0
12, 238680, Note_on_c, 6, 62, 80
12, 238680, Note_on_c, 6, 74, 80
12, 238784, Note_on_c, 6, 62, 0
12, 238784, Note_on_c, 6, 74, 0
12, 238800, Note_on_c, 6, 57, 80
12, 238800, Note_on_c, 6, 69, 80
12, 238904, Note_on_c, 6, 57, 0
12, 238904, Note_on_c, 6, 69, 0
12, 238920, Note_on_c, 6, 69, 80
12, 238920, Note_on_c, 6, 57, 80
12, 239024, Note_on_c, 6, 69, 0
12, 239024, Note_on_c, 6, 57, 0
12, 239038, Control_c, 6, 11, 67
12, 239040, Note_on_c, 6, 57, 80
12, 239040, Note_on_c, 6, 69, 80
12, 239040, Control_c, 6, 11, 67
12, 239072, Control_c, 6, 11, 68
12, 239104, Control_c, 6, 11, 69
12, 239136, Control_c, 6, 11, 70
12, 239168, Control_c, 6, 11, 71
12, 239200, Control_c, 6, 11, 72
12, 239232, Control_c, 6, 11, 73
12, 239264, Control_c, 6, 11, 74
12, 239296, Control_c, 6, 11, 75
12, 239328, Control_c, 6, 11, 76
12, 239360, Control_c, 6, 11, 77
12, 239392, Control_c, 6, 11, 78
12, 239424, Control_c, 6, 11, 79
12, 239456, Control_c, 6, 11, 80
12, 239488, Control_c, 6, 11, 81
12, 239520, Control_c, 6, 11, 82
12, 239552, Control_c, 6, 11, 83
12, 239571, Note_on_c, 6, 57, 0
12, 239571, Note_on_c, 6, 69, 0
12, 239580, Note_on_c, 6, 57, 80
12, 239580, Note_on_c, 6, 69, 80
12, 239584, Control_c, 6, 11, 84
12, 239616, Control_c, 6, 11, 85
12, 239648, Control_c, 6, 11, 86
12, 239680, Control_c, 6, 11, 87
12, 239691, Note_on_c, 6, 57, 0
12, 239691, Note_on_c, 6, 69, 0
12, 239700, Note_on_c, 6, 57, 80
12, 239700, Note_on_c, 6, 69, 80
12, 239712, Control_c, 6, 11, 88
12, 239744, Control_c, 6, 11, 89
12, 239776, Control_c, 6, 11, 90
12, 239808, Control_c, 6, 11, 91
12, 239811, Note_on_c, 6, 57, 0
12, 239811, Note_on_c, 6, 69, 0
12, 239820, Note_on_c, 6, 57, 80
12, 239820, Note_on_c, 6, 69, 80
12, 239840, Control_c, 6, 11, 92
12, 239872, Control_c, 6, 11, 93
12, 239904, Control_c, 6, 11, 94
12, 239931, Note_on_c, 6, 57, 0
12, 239931, Note_on_c, 6, 69, 0
12, 239936, Control_c, 6, 11, 95
12, 239940, Note_on_c, 6, 69, 80
12, 239940, Note_on_c, 6, 57, 80
12, 239968, Control_c, 6, 11, 96
12, 240000, Control_c, 6, 11, 97
12, 240032, Control_c, 6, 11, 98
12, 240051, Note_on_c, 6, 69, 0
12, 240051, Note_on_c, 6, 57, 0
12, 240060, Note_on_c, 6, 57, 80
12, 240060, Note_on_c, 6, 69, 80
12, 240064, Control_c, 6, 11, 99
12, 240096, Control_c, 6, 11, 100
12, 240128, Control_c, 6, 11, 101
12, 240160, Control_c, 6, 11, 102
12, 240171, Note_on_c, 6, 57, 0
12, 240171, Note_on_c, 6, 69, 0
12, 240180, Note_on_c, 6, 57, 80
12, 240180, Note_on_c, 6, 69, 80
12, 240192, Control_c, 6, 11, 103
12, 240224, Control_c, 6, 11, 104
12, 240256, Control_c, 6, 11, 105
12, 240288, Control_c, 6, 11, 106
12, 240291, Note_on_c, 6, 57, 0
12, 240291, Note_on_c, 6, 69, 0
12, 240300, Note_on_c, 6, 69, 80
12, 240300, Note_on_c, 6, 57, 80
12, 240320, Control_c, 6, 11, 107
12, 240352, Control_c, 6, 11, 108
12, 240384, Control_c, 6, 11, 109
12, 240411, Note_on_c, 6, 69, 0
12, 240411, Note_on_c, 6, 57, 0
12, 240416, Control_c, 6, 11, 110
12, 240420, Note_on_c, 6, 69, 80
12, 240420, Note_on_c, 6, 57, 80
12, 240448, Control_c, 6, 11, 111
12, 240471, Note_on_c, 6, 69, 0
12, 240471, Note_on_c, 6, 57, 0
12, 240480, Note_on_c, 6, 69, 80
12, 240480, Control_c, 6, 11, 112
12, 240480, Note_on_c, 6, 57, 80
12, 240512, Control_c, 6, 11, 113
12, 240531, Note_on_c, 6, 69, 0
12, 240531, Note_on_c, 6, 57, 0
12, 240540, Note_on_c, 6, 69, 80
12, 240540, Note_on_c, 6, 57, 80
12, 240544, Control_c, 6, 11, 114
12, 240576, Control_c, 6, 11, 115
12, 240591, Note_on_c, 6, 69, 0
12, 240591, Note_on_c, 6, 57, 0
12, 240600, Note_on_c, 6, 57, 80
12, 240600, Note_on_c, 6, 69, 80
12, 240608, Control_c, 6, 11, 116
12, 240640, Control_c, 6, 11, 117
12, 240651, Note_on_c, 6, 57, 0
12, 240651, Note_on_c, 6, 69, 0
12, 240660, Note_on_c, 6, 69, 80
12, 240660, Note_on_c, 6, 57, 80
12, 240672, Control_c, 6, 11, 118
12, 240704, Control_c, 6, 11, 119
12, 240711, Note_on_c, 6, 69, 0
12, 240711, Note_on_c, 6, 57, 0
12, 240720, Note_on_c, 6, 69, 80
12, 240720, Note_on_c, 6, 57, 80
12, 240736, Control_c, 6, 11, 120
12, 240768, Control_c, 6, 11, 121
12, 240771, Note_on_c, 6, 69, 0
12, 240771, Note_on_c, 6, 57, 0
12, 240780, Note_on_c, 6, 57, 80
12, 240780, Note_on_c, 6, 69, 80
12, 240800, Control_c, 6, 11, 122
12, 240831, Note_on_c, 6, 57, 0
12, 240831, Note_on_c, 6, 69, 0
12, 240832, Control_c, 6, 11, 123
12, 240840, Note_on_c, 6, 69, 80
12, 240840, Note_on_c, 6, 57, 80
12, 240864, Control_c, 6, 11, 124
12, 240891, Note_on_c, 6, 69, 0
12, 240891, Note_on_c, 6, 57, 0
12, 240896, Control_c, 6, 11, 125
12, 240900, Note_on_c, 6, 57, 80
12, 240900, Note_on_c, 6, 69, 80
12, 240928, Control_c, 6, 11, 127
12, 240951, Note_on_c, 6, 57, 0
12, 240951, Note_on_c, 6, 69, 0
12, 240960, Note_on_c, 6, 62, 80
12, 240960, Note_on_c, 6, 74, 80
12, 241011, Note_on_c, 6, 62, 0
12, 241011, Note_on_c, 6, 74, 0
12, 241020, Note_on_c, 6, 62, 80
12, 241020, Note_on_c, 6, 74, 80
12, 241071, Note_on_c, 6, 62, 0
12, 241071, Note_on_c, 6, 74, 0
12, 241080, Note_on_c, 6, 74, 80
12, 241080, Note_on_c, 6, 62, 80
12, 241131, Note_on_c, 6, 74, 0
12, 241131, Note_on_c, 6, 62, 0
12, 241140, Note_on_c, 6, 62, 80
12, 241140, Note_on_c, 6, 74, 80
12, 241191, Note_on_c, 6, 62, 0
12, 241191, Note_on_c, 6, 74, 0
12, 241200, Note_on_c, 6, 62, 80
12, 241200, Note_on_c, 6, 74, 80
12, 241251, Note_on_c, 6, 62, 0
12, 241251, Note_on_c, 6, 74, 0
12, 241260, Note_on_c, 6, 62, 80
12, 241260, Note_on_c, 6, 74, 80
12, 241311, Note_on_c, 6, 62, 0
12, 241311, Note_on_c, 6, 74, 0
12, 241320, Note_on_c, 6, 74, 80
12, 241320, Note_on_c, 6, 62, 80
12, 241371, Note_on_c, 6, 74, 0
12, 241371, Note_on_c, 6, 62, 0
12, 241380, Note_on_c, 6, 74, 80
12, 241380, Note_on_c, 6, 62, 80
12, 241431, Note_on_c, 6, 74, 0
12, 241431, Note_on_c, 6, 62, 0
12, 241440, Note_on_c, 6, 74, 80
12, 241440, Note_on_c, 6, 62, 80
12, 241491, Note_on_c, 6, 74, 0
12, 241491, Note_on_c, 6, 62, 0
12, 241500, Note_on_c, 6, 62, 80
12, 241500, Note_on_c, 6, 74, 80
12, 241551, Note_on_c, 6, 62, 0
12, 241551, Note_on_c, 6, 74, 0
12, 241560, Note_on_c, 6, 74, 80
12, 241560, Note_on_c, 6, 62, 80
12, 241611, Note_on_c, 6, 74, 0
12, 241611, Note_on_c, 6, 62, 0
12, 241620, Note_on_c, 6, 62, 80
12, 241620, Note_on_c, 6, 74, 80
12, 241671, Note_on_c, 6, 62, 0
12, 241671, Note_on_c, 6, 74, 0
12, 241680, Note_on_c, 6, 74, 80
12, 241680, Note_on_c, 6, 62, 80
12, 241769, Note_on_c, 6, 74, 0
12, 241769, Note_on_c, 6, 62, 0
12, 241800, Note_on_c, 6, 57, 80
12, 241800, Note_on_c, 6, 69, 80
12, 241889, Note_on_c, 6, 57, 0
12, 241889, Note_on_c, 6, 69, 0
12, 246000, Note_on_c, 6, 62, 44
12, 246404, Note_on_c, 6, 62, 0
12, 246420, Note_on_c, 6, 62, 44
12, 246471, Note_on_c, 6, 62, 0
12, 246480, Note_on_c, 6, 62, 44
12, 246644, Note_on_c, 6, 62, 0
12, 246660, Note_on_c, 6, 62, 44
12, 246711, Note_on_c, 6, 62, 0
12, 246720, Note_on_c, 6, 62, 44
12, 246959, Note_on_c, 6, 62, 0
12, 247170, Note_on_c, 6, 62, 44
12, 247191, Note_on_c, 6, 62, 0
12, 247200, Note_on_c, 6, 57, 44
12, 247319, Note_on_c, 6, 57, 0
12, 247440, Note_on_c, 6, 57, 44
12, 247559, Note_on_c, 6, 57, 0
12, 247680, Note_on_c, 6, 62, 44
12, 247799, Note_on_c, 6, 62, 0
12, 247920, Note_on_c, 6, 74, 44
12, 247920, Note_on_c, 6, 69, 44
12, 248279, Note_on_c, 6, 74, 0
12, 248279, Note_on_c, 6, 69, 0
12, 248340, Note_on_c, 6, 74, 44
12, 248340, Note_on_c, 6, 69, 44
12, 248391, Note_on_c, 6, 74, 0
12, 248391, Note_on_c, 6, 69, 0
12, 248400, Note_on_c, 6, 69, 44
12, 248400, Note_on_c, 6, 74, 44
12, 248519, Note_on_c, 6, 69, 0
12, 248519, Note_on_c, 6, 74, 0
12, 248580, Note_on_c, 6, 74, 44
12, 248580, Note_on_c, 6, 69, 44
12, 248631, Note_on_c, 6, 74, 0
12, 248631, Note_on_c, 6, 69, 0
12, 248640, Note_on_c, 6, 69, 44
12, 248640, Note_on_c, 6, 74, 44
12, 248879, Note_on_c, 6, 69, 0
12, 248879, Note_on_c, 6, 74, 0
12, 249090, Note_on_c, 6, 62, 44
12, 249111, Note_on_c, 6, 62, 0
12, 249120, Note_on_c, 6, 57, 44
12, 249359, Note_on_c, 6, 57, 0
12, 249570, Note_on_c, 6, 57, 44
12, 249591, Note_on_c, 6, 57, 0
12, 249600, Note_on_c, 6, 62, 44
12, 249839, Note_on_c, 6, 62, 0
12, 250050, Note_on_c, 6, 62, 49
12, 250071, Note_on_c, 6, 62, 0
12, 250080, Note_on_c, 6, 57, 50
12, 250319, Note_on_c, 6, 57, 0
12, 250530, Note_on_c, 6, 57, 55
12, 250551, Note_on_c, 6, 57, 0
12, 250560, Note_on_c, 6, 62, 56
12, 250799, Note_on_c, 6, 62, 0
12, 251010, Note_on_c, 6, 62, 61
12, 251031, Note_on_c, 6, 62, 0
12, 251040, Note_on_c, 6, 62, 62
12, 251279, Note_on_c, 6, 62, 0
12, 251490, Note_on_c, 6, 57, 67
12, 251511, Note_on_c, 6, 57, 0
12, 251520, Note_on_c, 6, 62, 68
12, 251639, Note_on_c, 6, 62, 0
12, 251730, Note_on_c, 6, 62, 70
12, 251751, Note_on_c, 6, 62, 0
12, 251760, Note_on_c, 6, 62, 71
12, 251879, Note_on_c, 6, 62, 0
12, 251970, Note_on_c, 6, 62, 73
12, 251991, Note_on_c, 6, 62, 0
12, 252000, Note_on_c, 6, 62, 74
12, 252119, Note_on_c, 6, 62, 0
12, 252210, Note_on_c, 6, 62, 76
12, 252231, Note_on_c, 6, 62, 0
12, 252240, Note_on_c, 6, 69, 77
12, 252240, Note_on_c, 6, 57, 77
12, 252359, Note_on_c, 6, 69, 0
12, 252359, Note_on_c, 6, 57, 0
12, 252450, Note_on_c, 6, 57, 79
12, 252450, Note_on_c, 6, 69, 79
12, 252471, Note_on_c, 6, 57, 0
12, 252471, Note_on_c, 6, 69, 0
12, 252480, Note_on_c, 6, 74, 80
12, 252480, Note_on_c, 6, 62, 80
12, 252584, Note_on_c, 6, 74, 0
12, 252584, Note_on_c, 6, 62, 0
12, 252600, Note_on_c, 6, 62, 80
12, 252600, Note_on_c, 6, 74, 80
12, 252719, Note_on_c, 6, 62, 0
12, 252719, Note_on_c, 6, 74, 0
12, 252840, Note_on_c, 6, 62, 86
12, 252840, Note_on_c, 6, 74, 86
12, 252959, Note_on_c, 6, 62, 0
12, 252959, Note_on_c, 6, 74, 0
12, 253080, Note_on_c, 6, 74, 86
12, 253080, Note_on_c, 6, 62, 86
12, 253199, Note_on_c, 6, 74, 0
12, 253199, Note_on_c, 6, 62, 0
12, 253320, Note_on_c, 6, 69, 86
12, 253320, Note_on_c, 6, 57, 86
12, 253424, Note_on_c, 6, 69, 0
12, 253424, Note_on_c, 6, 57, 0
12, 253440, Note_on_c, 6, 62, 86
12, 253440, Note_on_c, 6, 74, 86
12, 253544, Note_on_c, 6, 62, 0
12, 253544, Note_on_c, 6, 74, 0
12, 253560, Note_on_c, 6, 62, 86
12, 253560, Note_on_c, 6, 74, 86
12, 253679, Note_on_c, 6, 62, 0
12, 253679, Note_on_c, 6, 74, 0
12, 253800, Note_on_c, 6, 62, 86
12, 253800, Note_on_c, 6, 74, 86
12, 253919, Note_on_c, 6, 62, 0
12, 253919, Note_on_c, 6, 74, 0
12, 254040, Note_on_c, 6, 74, 86
12, 254040, Note_on_c, 6, 62, 86
12, 254159, Note_on_c, 6, 74, 0
12, 254159, Note_on_c, 6, 62, 0
12, 254280, Note_on_c, 6, 57, 86
12, 254280, Note_on_c, 6, 69, 86
12, 254384, Note_on_c, 6, 57, 0
12, 254384, Note_on_c, 6, 69, 0
12, 254400, Note_on_c, 6, 62, 92
12, 254400, Note_on_c, 6, 74, 92
12, 254841, Note_on_c, 6, 62, 0
12, 254841, Note_on_c, 6, 74, 0
12, 254850, Note_on_c, 6, 74, 92
12, 254850, Note_on_c, 6, 62, 92
12, 254871, Note_on_c, 6, 74, 0
12, 254871, Note_on_c, 6, 62, 0
12, 254880, Note_on_c, 6, 74, 92
12, 254880, Note_on_c, 6, 62, 92
12, 255321, Note_on_c, 6, 74, 0
12, 255321, Note_on_c, 6, 62, 0
12, 255330, Note_on_c, 6, 74, 92
12, 255330, Note_on_c, 6, 62, 92
12, 255351, Note_on_c, 6, 74, 0
12, 255351, Note_on_c, 6, 62, 0
12, 255360, Note_on_c, 6, 62, 92
12, 255360, Note_on_c, 6, 74, 92
12, 255801, Note_on_c, 6, 62, 0
12, 255801, Note_on_c, 6, 74, 0
12, 255810, Note_on_c, 6, 62, 92
12, 255810, Note_on_c, 6, 74, 92
12, 255831, Note_on_c, 6, 62, 0
12, 255831, Note_on_c, 6, 74, 0
12, 255840, Note_on_c, 6, 57, 92
12, 255840, Note_on_c, 6, 69, 92
12, 256281, Note_on_c, 6, 57, 0
12, 256281, Note_on_c, 6, 69, 0
12, 256290, Note_on_c, 6, 69, 92
12, 256290, Note_on_c, 6, 57, 92
12, 256311, Note_on_c, 6, 69, 0
12, 256311, Note_on_c, 6, 57, 0
12, 256320, Note_on_c, 6, 62, 92
12, 256320, Note_on_c, 6, 74, 92
12, 256761, Note_on_c, 6, 62, 0
12, 256761, Note_on_c, 6, 74, 0
12, 256770, Note_on_c, 6, 62, 92
12, 256770, Note_on_c, 6, 74, 92
12, 256791, Note_on_c, 6, 62, 0
12, 256791, Note_on_c, 6, 74, 0
12, 256800, Note_on_c, 6, 74, 92
12, 256800, Note_on_c, 6, 62, 92
12, 257241, Note_on_c, 6, 74, 0
12, 257241, Note_on_c, 6, 62, 0
12, 257250, Note_on_c, 6, 74, 92
12, 257250, Note_on_c, 6, 62, 92
12, 257271, Note_on_c, 6, 74, 0
12, 257271, Note_on_c, 6, 62, 0
12, 257280, Note_on_c, 6, 74, 92
12, 257280, Note_on_c, 6, 62, 92
12, 257721, Note_on_c, 6, 74, 0
12, 257721, Note_on_c, 6, 62, 0
12, 257730, Note_on_c, 6, 74, 92
12, 257730, Note_on_c, 6, 62, 92
12, 257751, Note_on_c, 6, 74, 0
12, 257751, Note_on_c, 6, 62, 0
12, 257760, Note_on_c, 6, 57, 92
12, 257760, Note_on_c, 6, 69, 92
12, 258201, Note_on_c, 6, 57, 0
12, 258201, Note_on_c, 6, 69, 0
12, 258210, Note_on_c, 6, 74, 92
12, 258210, Note_on_c, 6, 62, 92
12, 258231, Note_on_c, 6, 74, 0
12, 258231, Note_on_c, 6, 62, 0
12, 258240, Note_on_c, 6, 69, 92
12, 258240, Note_on_c, 6, 57, 92
12, 258681, Note_on_c, 6, 69, 0
12, 258681, Note_on_c, 6, 57, 0
12, 258690, Note_on_c, 6, 74, 92
12, 258690, Note_on_c, 6, 62, 92
12, 258711, Note_on_c, 6, 74, 0
12, 258711, Note_on_c, 6, 62, 0
12, 258720, Note_on_c, 6, 74, 92
12, 258720, Note_on_c, 6, 62, 92
12, 258921, Note_on_c, 6, 74, 0
12, 258921, Note_on_c, 6, 62, 0
12, 258930, Note_on_c, 6, 57, 92
12, 258930, Note_on_c, 6, 69, 92
12, 258951, Note_on_c, 6, 57, 0
12, 258951, Note_on_c, 6, 69, 0
12, 258960, Note_on_c, 6, 57, 92
12, 258960, Note_on_c, 6, 69, 92
12, 259161, Note_on_c, 6, 57, 0
12, 259161, Note_on_c, 6, 69, 0
12, 259170, Note_on_c, 6, 69, 92
12, 259170, Note_on_c, 6, 57, 92
12, 259191, Note_on_c, 6, 69, 0
12, 259191, Note_on_c, 6, 57, 0
12, 259200, Note_on_c, 6, 62, 92
12, 259319, Note_on_c, 6, 62, 0
12, 259440, Note_on_c, 6, 62, 92
12, 259440, Note_on_c, 6, 74, 92
12, 259559, Note_on_c, 6, 62, 0
12, 259559, Note_on_c, 6, 74, 0
12, 259680, Note_on_c, 6, 62, 92
12, 259680, Note_on_c, 6, 74, 92
12, 259799, Note_on_c, 6, 62, 0
12, 259799, Note_on_c, 6, 74, 0
12, 259920, Note_on_c, 6, 62, 92
12, 259920, Note_on_c, 6, 74, 92
12, 260039, Note_on_c, 6, 62, 0
12, 260039, Note_on_c, 6, 74, 0
12, 260160, Note_on_c, 6, 62, 92
12, 260160, Note_on_c, 6, 74, 92
12, 260399, Note_on_c, 6, 62, 0
12, 260399, Note_on_c, 6, 74, 0
12, 260520, Note_on_c, 6, 74, 92
12, 260520, Note_on_c, 6, 62, 92
12, 260571, Note_on_c, 6, 74, 0
12, 260571, Note_on_c, 6, 62, 0
12, 260580, Note_on_c, 6, 62, 92
12, 260580, Note_on_c, 6, 74, 92
12, 260631, Note_on_c, 6, 62, 0
12, 260631, Note_on_c, 6, 74, 0
12, 260640, Note_on_c, 6, 62, 104
12, 260640, Note_on_c, 6, 74, 104
12, 260700, Control_c, 6, 11, 107
12, 260879, Note_on_c, 6, 62, 0
12, 260879, Note_on_c, 6, 74, 0
12, 261000, Control_c, 6, 11, 127
12, 261000, Note_on_c, 6, 62, 92
12, 261000, Note_on_c, 6, 74, 92
12, 261051, Note_on_c, 6, 62, 0
12, 261051, Note_on_c, 6, 74, 0
12, 261060, Note_on_c, 6, 62, 92
12, 261060, Note_on_c, 6, 74, 92
12, 261111, Note_on_c, 6, 62, 0
12, 261111, Note_on_c, 6, 74, 0
12, 261120, Note_on_c, 6, 74, 92
12, 261120, Note_on_c, 6, 62, 92
12, 261359, Note_on_c, 6, 74, 0
12, 261359, Note_on_c, 6, 62, 0
12, 261960, Note_on_c, 6, 57, 92
12, 261960, Note_on_c, 6, 69, 92
12, 262049, Note_on_c, 6, 57, 0
12, 262049, Note_on_c, 6, 69, 0
12, 262080, Note_on_c, 6, 62, 92
12, 262080, Note_on_c, 6, 74, 92
12, 262199, Note_on_c, 6, 62, 0
12, 262199, Note_on_c, 6, 74, 0
12, 262199, End_track
13, 0, Start_track
13, 0, Title_t, "Timpani"
13, 0, MIDI_port, 0
13, 0, Program_c, 10, 47
13, 0, Control_c, 10, 7, 96
13, 0, Control_c, 10, 10, 25
13, 0, Control_c, 10, 11, 127
13, 7650, Note_on_c, 10, 50, 92
13, 7679, Note_on_c, 10, 50, 0
13, 7680, Note_on_c, 10, 45, 92
13, 7699, Note_on_c, 10, 45, 0
13, 7700, Note_on_c, 10, 45, 92
13, 7719, Note_on_c, 10, 45, 0
13, 7720, Note_on_c, 10, 45, 92
13, 7739, Note_on_c, 10, 45, 0
13, 7740, Note_on_c, 10, 45, 92
13, 7759, Note_on_c, 10, 45, 0
13, 7760, Note_on_c, 10, 45, 92
13, 7779, Note_on_c, 10, 45, 0
13, 7780, Note_on_c, 10, 45, 92
13, 7799, Note_on_c, 10, 45, 0
13, 7800, Note_on_c, 10, 45, 92
13, 7819, Note_on_c, 10, 45, 0
13, 7820, Note_on_c, 10, 45, 92
13, 7839, Note_on_c, 10, 45, 0
13, 7840, Note_on_c, 10, 45, 92
13, 7859, Note_on_c, 10, 45, 0
13, 7860, Note_on_c, 10, 45, 92
13, 7879, Note_on_c, 10, 45, 0
13, 7880, Note_on_c, 10, 45, 92
13, 7899, Note_on_c, 10, 45, 0
13, 7900, Note_on_c, 10, 45, 92
13, 7919, Note_on_c, 10, 45, 0
13, 7920, Note_on_c, 10, 45, 92
13, 8129, Note_on_c, 10, 45, 0
13, 8130, Note_on_c, 10, 50, 92
13, 8159, Note_on_c, 10, 50, 0
13, 8160, Note_on_c, 10, 50, 92
13, 8279, Note_on_c, 10, 50, 0
13, 8370, Note_on_c, 10, 45, 92
13, 8399, Note_on_c, 10, 45, 0
13, 8400, Note_on_c, 10, 50, 92
13, 8519, Note_on_c, 10, 50, 0
13, 8580, Note_on_c, 10, 50, 92
13, 8609, Note_on_c, 10, 50, 0
13, 8610, Note_on_c, 10, 50, 92
13, 8639, Note_on_c, 10, 50, 0
13, 8640, Note_on_c, 10, 50, 92
13, 8759, Note_on_c, 10, 50, 0
13, 8940, Note_on_c, 10, 50, 92
13, 8984, Note_on_c, 10, 50, 0
13, 9000, Note_on_c, 10, 50, 92
13, 9044, Note_on_c, 10, 50, 0
13, 9060, Note_on_c, 10, 50, 92
13, 9104, Note_on_c, 10, 50, 0
13, 9120, Note_on_c, 10, 45, 92
13, 9209, Note_on_c, 10, 45, 0
13, 9240, Note_on_c, 10, 45, 92
13, 9329, Note_on_c, 10, 45, 0
13, 9360, Note_on_c, 10, 45, 92
13, 9449, Note_on_c, 10, 45, 0
13, 9480, Note_on_c, 10, 45, 92
13, 9569, Note_on_c, 10, 45, 0
13, 9600, Note_on_c, 10, 50, 104
13, 9719, Note_on_c, 10, 50, 0
13, 9840, Note_on_c, 10, 45, 104
13, 9959, Note_on_c, 10, 45, 0
13, 10080, Note_on_c, 10, 50, 104
13, 10199, Note_on_c, 10, 50, 0
13, 10560, Note_on_c, 10, 50, 104
13, 10679, Note_on_c, 10, 50, 0
13, 10800, Note_on_c, 10, 50, 104
13, 10919, Note_on_c, 10, 50, 0
13, 12600, Note_on_c, 10, 45, 80
13, 12689, Note_on_c, 10, 45, 0
13, 12690, Note_on_c, 10, 45, 80
13, 12719, Note_on_c, 10, 45, 0
13, 12720, Note_on_c, 10, 45, 80
13, 12839, Note_on_c, 10, 45, 0
13, 12840, Note_on_c, 10, 45, 80
13, 12959, Note_on_c, 10, 45, 0
13, 12960, Note_on_c, 10, 45, 44
13, 13079, Note_on_c, 10, 45, 0
13, 13440, Note_on_c, 10, 45, 80
13, 13559, Note_on_c, 10, 45, 0
13, 13560, Note_on_c, 10, 45, 80
13, 13649, Note_on_c, 10, 45, 0
13, 13650, Note_on_c, 10, 45, 80
13, 13679, Note_on_c, 10, 45, 0
13, 13680, Note_on_c, 10, 45, 80
13, 13799, Note_on_c, 10, 45, 0
13, 13800, Note_on_c, 10, 45, 80
13, 13919, Note_on_c, 10, 45, 0
13, 13920, Note_on_c, 10, 45, 44
13, 14039, Note_on_c, 10, 45, 0
13, 14400, Note_on_c, 10, 45, 80
13, 14519, Note_on_c, 10, 45, 0
13, 14640, Note_on_c, 10, 45, 92
13, 14759, Note_on_c, 10, 45, 0
13, 15120, Note_on_c, 10, 50, 92
13, 15239, Note_on_c, 10, 50, 0
13, 15600, Note_on_c, 10, 45, 92
13, 15719, Note_on_c, 10, 45, 0
13, 16080, Note_on_c, 10, 45, 92
13, 16199, Note_on_c, 10, 45, 0
13, 16800, Note_on_c, 10, 50, 44
13, 17039, Note_on_c, 10, 50, 0
13, 23970, Note_on_c, 10, 50, 92
13, 23999, Note_on_c, 10, 50, 0
13, 24000, Note_on_c, 10, 50, 92
13, 24019, Note_on_c, 10, 50, 0
13, 24020, Note_on_c, 10, 50, 92
13, 24039, Note_on_c, 10, 50, 0
13, 24040, Note_on_c, 10, 50, 92
13, 24059, Note_on_c, 10, 50, 0
13, 24060, Note_on_c, 10, 50, 92
13, 24060, Note_on_c, 10, 50, 92
13, 24079, Note_on_c, 10, 50, 0
13, 24079, Note_on_c, 10, 50, 0
13, 24080, Note_on_c, 10, 50, 92
13, 24099, Note_on_c, 10, 50, 0
13, 24100, Note_on_c, 10, 50, 92
13, 24119, Note_on_c, 10, 50, 0
13, 24120, Note_on_c, 10, 50, 92
13, 24120, Note_on_c, 10, 50, 92
13, 24139, Note_on_c, 10, 50, 0
13, 24139, Note_on_c, 10, 50, 0
13, 24140, Note_on_c, 10, 50, 92
13, 24159, Note_on_c, 10, 50, 0
13, 24160, Note_on_c, 10, 50, 92
13, 24179, Note_on_c, 10, 50, 0
13, 24180, Note_on_c, 10, 50, 92
13, 24199, Note_on_c, 10, 50, 0
13, 24200, Note_on_c, 10, 50, 92
13, 24219, Note_on_c, 10, 50, 0
13, 24220, Note_on_c, 10, 50, 92
13, 24239, Note_on_c, 10, 50, 0
13, 24240, Note_on_c, 10, 50, 92
13, 24449, Note_on_c, 10, 50, 0
13, 24450, Note_on_c, 10, 50, 92
13, 24479, Note_on_c, 10, 50, 0
13, 24480, Note_on_c, 10, 50, 92
13, 24599, Note_on_c, 10, 50, 0
13, 24690, Note_on_c, 10, 50, 92
13, 24719, Note_on_c, 10, 50, 0
13, 24720, Note_on_c, 10, 50, 92
13, 24839, Note_on_c, 10, 50, 0
13, 24900, Note_on_c, 10, 50, 92
13, 24929, Note_on_c, 10, 50, 0
13, 24930, Note_on_c, 10, 50, 92
13, 24959, Note_on_c, 10, 50, 0
13, 24960, Note_on_c, 10, 50, 92
13, 25079, Note_on_c, 10, 50, 0
13, 25920, Note_on_c, 10, 50, 92
13, 26039, Note_on_c, 10, 50, 0
13, 26400, Note_on_c, 10, 50, 92
13, 26519, Note_on_c, 10, 50, 0
13, 27840, Note_on_c, 10, 50, 104
13, 27959, Note_on_c, 10, 50, 0
13, 28140, Note_on_c, 10, 50, 92
13, 28184, Note_on_c, 10, 50, 0
13, 28200, Note_on_c, 10, 50, 92
13, 28244, Note_on_c, 10, 50, 0
13, 28260, Note_on_c, 10, 50, 92
13, 28304, Note_on_c, 10, 50, 0
13, 28320, Note_on_c, 10, 50, 104
13, 28439, Note_on_c, 10, 50, 0
13, 28620, Note_on_c, 10, 50, 92
13, 28664, Note_on_c, 10, 50, 0
13, 28680, Note_on_c, 10, 50, 92
13, 28724, Note_on_c, 10, 50, 0
13, 28740, Note_on_c, 10, 50, 92
13, 28784, Note_on_c, 10, 50, 0
13, 28800, Note_on_c, 10, 50, 104
13, 28919, Note_on_c, 10, 50, 0
13, 29100, Note_on_c, 10, 50, 92
13, 29144, Note_on_c, 10, 50, 0
13, 29160, Note_on_c, 10, 50, 92
13, 29204, Note_on_c, 10, 50, 0
13, 29220, Note_on_c, 10, 50, 92
13, 29264, Note_on_c, 10, 50, 0
13, 29280, Note_on_c, 10, 50, 104
13, 29324, Note_on_c, 10, 50, 0
13, 29340, Note_on_c, 10, 50, 92
13, 29384, Note_on_c, 10, 50, 0
13, 29400, Note_on_c, 10, 50, 92
13, 29444, Note_on_c, 10, 50, 0
13, 29460, Note_on_c, 10, 50, 92
13, 29504, Note_on_c, 10, 50, 0
13, 29520, Note_on_c, 10, 50, 104
13, 29564, Note_on_c, 10, 50, 0
13, 29580, Note_on_c, 10, 50, 92
13, 29624, Note_on_c, 10, 50, 0
13, 29640, Note_on_c, 10, 50, 92
13, 29684, Note_on_c, 10, 50, 0
13, 29700, Note_on_c, 10, 50, 92
13, 29744, Note_on_c, 10, 50, 0
13, 29760, Note_on_c, 10, 45, 92
13, 29879, Note_on_c, 10, 45, 0
13, 30240, Note_on_c, 10, 45, 104
13, 30359, Note_on_c, 10, 45, 0
13, 30360, Note_on_c, 10, 45, 92
13, 30479, Note_on_c, 10, 45, 0
13, 30480, Note_on_c, 10, 45, 92
13, 30599, Note_on_c, 10, 45, 0
13, 30600, Note_on_c, 10, 45, 92
13, 30719, Note_on_c, 10, 45, 0
13, 30720, Note_on_c, 10, 45, 92
13, 30839, Note_on_c, 10, 45, 0
13, 30840, Note_on_c, 10, 45, 92
13, 30959, Note_on_c, 10, 45, 0
13, 30960, Note_on_c, 10, 45, 92
13, 31079, Note_on_c, 10, 45, 0
13, 31080, Note_on_c, 10, 45, 92
13, 31199, Note_on_c, 10, 45, 0
13, 31200, Note_on_c, 10, 45, 104
13, 31379, Note_on_c, 10, 45, 0
13, 31440, Note_on_c, 10, 50, 104
13, 31619, Note_on_c, 10, 50, 0
13, 31680, Note_on_c, 10, 45, 104
13, 31859, Note_on_c, 10, 45, 0
13, 32160, Note_on_c, 10, 45, 92
13, 32279, Note_on_c, 10, 45, 0
13, 32280, Note_on_c, 10, 45, 92
13, 32399, Note_on_c, 10, 45, 0
13, 32400, Note_on_c, 10, 45, 92
13, 32519, Note_on_c, 10, 45, 0
13, 32520, Note_on_c, 10, 45, 92
13, 32639, Note_on_c, 10, 45, 0
13, 32640, Note_on_c, 10, 45, 92
13, 32759, Note_on_c, 10, 45, 0
13, 32760, Note_on_c, 10, 45, 92
13, 32879, Note_on_c, 10, 45, 0
13, 32880, Note_on_c, 10, 45, 92
13, 32999, Note_on_c, 10, 45, 0
13, 33000, Note_on_c, 10, 50, 92
13, 33119, Note_on_c, 10, 50, 0
13, 34560, Note_on_c, 10, 45, 92
13, 34739, Note_on_c, 10, 45, 0
13, 34800, Note_on_c, 10, 45, 68
13, 34979, Note_on_c, 10, 45, 0
13, 35040, Note_on_c, 10, 45, 44
13, 35159, Note_on_c, 10, 45, 0
13, 45120, Note_on_c, 10, 50, 80
13, 45239, Note_on_c, 10, 50, 0
13, 45360, Note_on_c, 10, 45, 80
13, 45479, Note_on_c, 10, 45, 0
13, 48480, Note_on_c, 10, 50, 92
13, 48569, Note_on_c, 10, 50, 0
13, 48600, Note_on_c, 10, 50, 92
13, 48666, Note_on_c, 10, 50, 0
13, 48690, Note_on_c, 10, 50, 92
13, 48711, Note_on_c, 10, 50, 0
13, 48720, Note_on_c, 10, 50, 92
13, 48839, Note_on_c, 10, 50, 0
13, 50400, Note_on_c, 10, 50, 92
13, 50489, Note_on_c, 10, 50, 0
13, 50520, Note_on_c, 10, 50, 92
13, 50586, Note_on_c, 10, 50, 0
13, 50610, Note_on_c, 10, 50, 92
13, 50631, Note_on_c, 10, 50, 0
13, 50640, Note_on_c, 10, 50, 92
13, 50759, Note_on_c, 10, 50, 0
13, 57120, Note_on_c, 10, 45, 32
13, 57239, Note_on_c, 10, 45, 0
13, 57240, Note_on_c, 10, 45, 32
13, 57329, Note_on_c, 10, 45, 0
13, 57330, Note_on_c, 10, 45, 32
13, 57359, Note_on_c, 10, 45, 0
13, 57360, Note_on_c, 10, 45, 32
13, 57479, Note_on_c, 10, 45, 0
13, 57600, Note_on_c, 10, 45, 32
13, 57719, Note_on_c, 10, 45, 0
13, 57720, Note_on_c, 10, 45, 32
13, 57809, Note_on_c, 10, 45, 0
13, 57810, Note_on_c, 10, 45, 32
13, 57839, Note_on_c, 10, 45, 0
13, 57840, Note_on_c, 10, 45, 32
13, 57959, Note_on_c, 10, 45, 0
13, 58080, Note_on_c, 10, 50, 32
13, 58199, Note_on_c, 10, 50, 0
13, 58200, Note_on_c, 10, 50, 32
13, 58289, Note_on_c, 10, 50, 0
13, 58290, Note_on_c, 10, 50, 32
13, 58319, Note_on_c, 10, 50, 0
13, 58320, Note_on_c, 10, 50, 32
13, 58439, Note_on_c, 10, 50, 0
13, 58560, Note_on_c, 10, 50, 32
13, 58679, Note_on_c, 10, 50, 0
13, 58680, Note_on_c, 10, 50, 32
13, 58769, Note_on_c, 10, 50, 0
13, 58770, Note_on_c, 10, 50, 32
13, 58799, Note_on_c, 10, 50, 0
13, 58800, Note_on_c, 10, 50, 32
13, 58919, Note_on_c, 10, 50, 0
13, 59040, Note_on_c, 10, 45, 32
13, 59159, Note_on_c, 10, 45, 0
13, 59160, Note_on_c, 10, 45, 33
13, 59249, Note_on_c, 10, 45, 0
13, 59250, Note_on_c, 10, 45, 34
13, 59279, Note_on_c, 10, 45, 0
13, 59280, Note_on_c, 10, 45, 35
13, 59399, Note_on_c, 10, 45, 0
13, 59520, Note_on_c, 10, 45, 38
13, 59639, Note_on_c, 10, 45, 0
13, 59640, Note_on_c, 10, 45, 39
13, 59729, Note_on_c, 10, 45, 0
13, 59730, Note_on_c, 10, 45, 40
13, 59759, Note_on_c, 10, 45, 0
13, 59760, Note_on_c, 10, 45, 41
13, 59879, Note_on_c, 10, 45, 0
13, 60000, Note_on_c, 10, 50, 44
13, 60119, Note_on_c, 10, 50, 0
13, 60120, Note_on_c, 10, 50, 45
13, 60209, Note_on_c, 10, 50, 0
13, 60210, Note_on_c, 10, 50, 46
13, 60239, Note_on_c, 10, 50, 0
13, 60240, Note_on_c, 10, 50, 47
13, 60359, Note_on_c, 10, 50, 0
13, 60480, Note_on_c, 10, 50, 50
13, 60599, Note_on_c, 10, 50, 0
13, 60600, Note_on_c, 10, 50, 51
13, 60689, Note_on_c, 10, 50, 0
13, 60690, Note_on_c, 10, 50, 52
13, 60719, Note_on_c, 10, 50, 0
13, 60720, Note_on_c, 10, 50, 53
13, 60839, Note_on_c, 10, 50, 0
13, 60960, Note_on_c, 10, 45, 56
13, 61079, Note_on_c, 10, 45, 0
13, 61080, Note_on_c, 10, 45, 57
13, 61169, Note_on_c, 10, 45, 0
13, 61170, Note_on_c, 10, 45, 58
13, 61199, Note_on_c, 10, 45, 0
13, 61200, Note_on_c, 10, 45, 59
13, 61319, Note_on_c, 10, 45, 0
13, 61440, Note_on_c, 10, 50, 62
13, 61559, Note_on_c, 10, 50, 0
13, 61560, Note_on_c, 10, 50, 63
13, 61649, Note_on_c, 10, 50, 0
13, 61650, Note_on_c, 10, 50, 64
13, 61679, Note_on_c, 10, 50, 0
13, 61680, Note_on_c, 10, 50, 65
13, 61799, Note_on_c, 10, 50, 0
13, 62040, Note_on_c, 10, 45, 69
13, 62129, Note_on_c, 10, 45, 0
13, 62130, Note_on_c, 10, 45, 70
13, 62159, Note_on_c, 10, 45, 0
13, 62160, Note_on_c, 10, 45, 71
13, 62279, Note_on_c, 10, 45, 0
13, 62280, Note_on_c, 10, 50, 72
13, 62399, Note_on_c, 10, 50, 0
13, 62520, Note_on_c, 10, 45, 75
13, 62609, Note_on_c, 10, 45, 0
13, 62610, Note_on_c, 10, 45, 76
13, 62639, Note_on_c, 10, 45, 0
13, 62640, Note_on_c, 10, 45, 77
13, 62759, Note_on_c, 10, 45, 0
13, 62760, Note_on_c, 10, 50, 78
13, 62879, Note_on_c, 10, 50, 0
13, 62880, Note_on_c, 10, 45, 80
13, 62999, Note_on_c, 10, 45, 0
13, 63360, Note_on_c, 10, 50, 80
13, 63479, Note_on_c, 10, 50, 0
13, 64440, Note_on_c, 10, 50, 80
13, 64559, Note_on_c, 10, 50, 0
13, 65400, Note_on_c, 10, 45, 80
13, 65519, Note_on_c, 10, 45, 0
13, 65640, Note_on_c, 10, 45, 80
13, 65759, Note_on_c, 10, 45, 0
13, 65760, Note_on_c, 10, 50, 92
13, 65879, Note_on_c, 10, 50, 0
13, 65880, Note_on_c, 10, 50, 44
13, 65999, Note_on_c, 10, 50, 0
13, 67680, Note_on_c, 10, 50, 80
13, 67799, Note_on_c, 10, 50, 0
13, 67800, Note_on_c, 10, 50, 44
13, 67919, Note_on_c, 10, 50, 0
13, 70440, Note_on_c, 10, 45, 80
13, 70559, Note_on_c, 10, 45, 0
13, 70680, Note_on_c, 10, 50, 80
13, 70799, Note_on_c, 10, 50, 0
13, 70800, Note_on_c, 10, 50, 80
13, 70919, Note_on_c, 10, 50, 0
13, 71160, Note_on_c, 10, 50, 80
13, 71279, Note_on_c, 10, 50, 0
13, 71280, Note_on_c, 10, 50, 92
13, 71399, Note_on_c, 10, 50, 0
13, 71400, Note_on_c, 10, 45, 92
13, 71519, Note_on_c, 10, 45, 0
13, 71520, Note_on_c, 10, 50, 92
13, 71639, Note_on_c, 10, 50, 0
13, 72000, Note_on_c, 10, 50, 80
13, 72119, Note_on_c, 10, 50, 0
13, 72480, Note_on_c, 10, 50, 80
13, 72599, Note_on_c, 10, 50, 0
13, 72960, Note_on_c, 10, 50, 80
13, 73079, Note_on_c, 10, 50, 0
13, 73200, Note_on_c, 10, 50, 80
13, 73319, Note_on_c, 10, 50, 0
13, 73440, Note_on_c, 10, 50, 80
13, 73559, Note_on_c, 10, 50, 0
13, 73680, Note_on_c, 10, 50, 80
13, 73799, Note_on_c, 10, 50, 0
13, 73920, Note_on_c, 10, 50, 80
13, 74039, Note_on_c, 10, 50, 0
13, 74160, Note_on_c, 10, 50, 80
13, 74279, Note_on_c, 10, 50, 0
13, 74400, Note_on_c, 10, 50, 80
13, 74519, Note_on_c, 10, 50, 0
13, 74640, Note_on_c, 10, 50, 80
13, 74759, Note_on_c, 10, 50, 0
13, 74880, Note_on_c, 10, 50, 80
13, 74999, Note_on_c, 10, 50, 0
13, 75120, Note_on_c, 10, 50, 80
13, 75239, Note_on_c, 10, 50, 0
13, 75360, Note_on_c, 10, 50, 80
13, 75479, Note_on_c, 10, 50, 0
13, 76560, Note_on_c, 10, 45, 32
13, 76679, Note_on_c, 10, 45, 0
13, 79440, Note_on_c, 10, 45, 32
13, 79559, Note_on_c, 10, 45, 0
13, 81360, Note_on_c, 10, 50, 32
13, 81479, Note_on_c, 10, 50, 0
13, 83280, Note_on_c, 10, 50, 32
13, 83399, Note_on_c, 10, 50, 0
13, 85200, Note_on_c, 10, 50, 32
13, 85319, Note_on_c, 10, 50, 0
13, 85680, Note_on_c, 10, 50, 32
13, 85799, Note_on_c, 10, 50, 0
13, 86160, Note_on_c, 10, 50, 32
13, 86279, Note_on_c, 10, 50, 0
13, 86640, Note_on_c, 10, 50, 32
13, 86759, Note_on_c, 10, 50, 0
13, 87120, Note_on_c, 10, 50, 32
13, 87239, Note_on_c, 10, 50, 0
13, 87600, Note_on_c, 10, 50, 32
13, 87719, Note_on_c, 10, 50, 0
13, 87840, Note_on_c, 10, 50, 32
13, 87959, Note_on_c, 10, 50, 0
13, 88080, Note_on_c, 10, 50, 32
13, 88199, Note_on_c, 10, 50, 0
13, 88560, Note_on_c, 10, 50, 32
13, 88679, Note_on_c, 10, 50, 0
13, 89040, Note_on_c, 10, 50, 32
13, 89159, Note_on_c, 10, 50, 0
13, 89520, Note_on_c, 10, 50, 64
13, 89639, Note_on_c, 10, 50, 0
13, 89760, Note_on_c, 10, 45, 80
13, 89879, Note_on_c, 10, 45, 0
13, 90120, Note_on_c, 10, 45, 80
13, 90209, Note_on_c, 10, 45, 0
13, 90210, Note_on_c, 10, 45, 80
13, 90239, Note_on_c, 10, 45, 0
13, 90240, Note_on_c, 10, 45, 80
13, 90359, Note_on_c, 10, 45, 0
13, 90600, Note_on_c, 10, 45, 80
13, 90689, Note_on_c, 10, 45, 0
13, 90690, Note_on_c, 10, 45, 80
13, 90719, Note_on_c, 10, 45, 0
13, 90720, Note_on_c, 10, 45, 80
13, 90839, Note_on_c, 10, 45, 0
13, 90840, Note_on_c, 10, 45, 80
13, 90929, Note_on_c, 10, 45, 0
13, 90930, Note_on_c, 10, 45, 80
13, 90959, Note_on_c, 10, 45, 0
13, 90960, Note_on_c, 10, 45, 80
13, 91079, Note_on_c, 10, 45, 0
13, 91320, Note_on_c, 10, 45, 80
13, 91409, Note_on_c, 10, 45, 0
13, 91410, Note_on_c, 10, 45, 80
13, 91439, Note_on_c, 10, 45, 0
13, 91440, Note_on_c, 10, 50, 92
13, 91559, Note_on_c, 10, 50, 0
13, 91560, Note_on_c, 10, 50, 80
13, 91649, Note_on_c, 10, 50, 0
13, 91650, Note_on_c, 10, 50, 80
13, 91679, Note_on_c, 10, 50, 0
13, 91680, Note_on_c, 10, 50, 44
13, 91799, Note_on_c, 10, 50, 0
13, 94800, Note_on_c, 10, 50, 44
13, 94919, Note_on_c, 10, 50, 0
13, 95280, Note_on_c, 10, 50, 44
13, 95399, Note_on_c, 10, 50, 0
13, 95760, Note_on_c, 10, 50, 44
13, 95879, Note_on_c, 10, 50, 0
13, 96240, Note_on_c, 10, 50, 44
13, 96359, Note_on_c, 10, 50, 0
13, 96480, Note_on_c, 10, 50, 44
13, 96599, Note_on_c, 10, 50, 0
13, 96720, Note_on_c, 10, 50, 44
13, 96839, Note_on_c, 10, 50, 0
13, 97200, Note_on_c, 10, 50, 44
13, 97319, Note_on_c, 10, 50, 0
13, 97680, Note_on_c, 10, 50, 53
13, 97799, Note_on_c, 10, 50, 0
13, 98160, Note_on_c, 10, 50, 71
13, 98279, Note_on_c, 10, 50, 0
13, 98400, Note_on_c, 10, 50, 80
13, 98519, Note_on_c, 10, 50, 0
13, 98520, Note_on_c, 10, 50, 80
13, 98609, Note_on_c, 10, 50, 0
13, 98610, Note_on_c, 10, 50, 80
13, 98639, Note_on_c, 10, 50, 0
13, 98640, Note_on_c, 10, 50, 80
13, 98759, Note_on_c, 10, 50, 0
13, 99000, Note_on_c, 10, 50, 80
13, 99089, Note_on_c, 10, 50, 0
13, 99090, Note_on_c, 10, 50, 80
13, 99119, Note_on_c, 10, 50, 0
13, 99120, Note_on_c, 10, 50, 80
13, 99239, Note_on_c, 10, 50, 0
13, 99360, Note_on_c, 10, 50, 80
13, 99479, Note_on_c, 10, 50, 0
13, 99480, Note_on_c, 10, 50, 80
13, 99569, Note_on_c, 10, 50, 0
13, 99570, Note_on_c, 10, 50, 80
13, 99599, Note_on_c, 10, 50, 0
13, 99600, Note_on_c, 10, 50, 80
13, 99719, Note_on_c, 10, 50, 0
13, 99960, Note_on_c, 10, 50, 80
13, 100049, Note_on_c, 10, 50, 0
13, 100050, Note_on_c, 10, 50, 80
13, 100079, Note_on_c, 10, 50, 0
13, 100080, Note_on_c, 10, 50, 80
13, 100199, Note_on_c, 10, 50, 0
13, 106920, Note_on_c, 10, 50, 80
13, 107039, Note_on_c, 10, 50, 0
13, 107040, Note_on_c, 10, 50, 80
13, 107279, Note_on_c, 10, 50, 0
13, 107400, Note_on_c, 10, 50, 80
13, 107519, Note_on_c, 10, 50, 0
13, 107520, Note_on_c, 10, 50, 80
13, 107759, Note_on_c, 10, 50, 0
13, 107880, Note_on_c, 10, 50, 80
13, 107999, Note_on_c, 10, 50, 0
13, 108000, Note_on_c, 10, 50, 80
13, 108239, Note_on_c, 10, 50, 0
13, 108360, Note_on_c, 10, 50, 80
13, 108479, Note_on_c, 10, 50, 0
13, 108480, Note_on_c, 10, 50, 80
13, 108719, Note_on_c, 10, 50, 0
13, 108840, Note_on_c, 10, 50, 80
13, 108959, Note_on_c, 10, 50, 0
13, 108960, Note_on_c, 10, 50, 80
13, 109079, Note_on_c, 10, 50, 0
13, 112800, Note_on_c, 10, 50, 80
13, 113039, Note_on_c, 10, 50, 0
13, 113160, Note_on_c, 10, 50, 80
13, 113279, Note_on_c, 10, 50, 0
13, 113400, Note_on_c, 10, 45, 80
13, 113459, Note_on_c, 10, 45, 0
13, 113460, Note_on_c, 10, 45, 80
13, 113519, Note_on_c, 10, 45, 0
13, 113520, Note_on_c, 10, 45, 80
13, 113639, Note_on_c, 10, 45, 0
13, 113880, Note_on_c, 10, 50, 80
13, 113939, Note_on_c, 10, 50, 0
13, 113940, Note_on_c, 10, 50, 80
13, 113999, Note_on_c, 10, 50, 0
13, 114000, Note_on_c, 10, 50, 80
13, 114119, Note_on_c, 10, 50, 0
13, 114360, Note_on_c, 10, 45, 80
13, 114419, Note_on_c, 10, 45, 0
13, 114420, Note_on_c, 10, 45, 80
13, 114479, Note_on_c, 10, 45, 0
13, 114480, Note_on_c, 10, 45, 80
13, 114599, Note_on_c, 10, 45, 0
13, 114840, Note_on_c, 10, 50, 80
13, 114899, Note_on_c, 10, 50, 0
13, 114900, Note_on_c, 10, 50, 80
13, 114959, Note_on_c, 10, 50, 0
13, 114960, Note_on_c, 10, 50, 80
13, 115079, Note_on_c, 10, 50, 0
13, 115320, Note_on_c, 10, 50, 80
13, 115379, Note_on_c, 10, 50, 0
13, 115380, Note_on_c, 10, 50, 80
13, 115439, Note_on_c, 10, 50, 0
13, 115440, Note_on_c, 10, 50, 80
13, 115559, Note_on_c, 10, 50, 0
13, 115800, Note_on_c, 10, 50, 80
13, 115859, Note_on_c, 10, 50, 0
13, 115860, Note_on_c, 10, 50, 80
13, 115919, Note_on_c, 10, 50, 0
13, 115920, Note_on_c, 10, 50, 80
13, 116039, Note_on_c, 10, 50, 0
13, 116280, Note_on_c, 10, 50, 80
13, 116339, Note_on_c, 10, 50, 0
13, 116340, Note_on_c, 10, 50, 80
13, 116399, Note_on_c, 10, 50, 0
13, 116400, Note_on_c, 10, 50, 80
13, 116519, Note_on_c, 10, 50, 0
13, 116760, Note_on_c, 10, 50, 80
13, 116819, Note_on_c, 10, 50, 0
13, 116820, Note_on_c, 10, 50, 80
13, 116879, Note_on_c, 10, 50, 0
13, 116880, Note_on_c, 10, 50, 80
13, 116999, Note_on_c, 10, 50, 0
13, 117240, Note_on_c, 10, 45, 80
13, 117299, Note_on_c, 10, 45, 0
13, 117300, Note_on_c, 10, 45, 80
13, 117359, Note_on_c, 10, 45, 0
13, 117360, Note_on_c, 10, 45, 80
13, 117479, Note_on_c, 10, 45, 0
13, 117720, Note_on_c, 10, 45, 80
13, 117779, Note_on_c, 10, 45, 0
13, 117780, Note_on_c, 10, 45, 80
13, 117839, Note_on_c, 10, 45, 0
13, 117840, Note_on_c, 10, 45, 80
13, 117959, Note_on_c, 10, 45, 0
13, 118200, Note_on_c, 10, 45, 80
13, 118259, Note_on_c, 10, 45, 0
13, 118260, Note_on_c, 10, 45, 80
13, 118319, Note_on_c, 10, 45, 0
13, 118320, Note_on_c, 10, 45, 80
13, 118439, Note_on_c, 10, 45, 0
13, 118680, Note_on_c, 10, 45, 80
13, 118739, Note_on_c, 10, 45, 0
13, 118740, Note_on_c, 10, 45, 80
13, 118799, Note_on_c, 10, 45, 0
13, 118800, Note_on_c, 10, 45, 80
13, 118919, Note_on_c, 10, 45, 0
13, 119160, Note_on_c, 10, 50, 80
13, 119219, Note_on_c, 10, 50, 0
13, 119220, Note_on_c, 10, 50, 80
13, 119279, Note_on_c, 10, 50, 0
13, 119280, Note_on_c, 10, 50, 80
13, 119399, Note_on_c, 10, 50, 0
13, 119640, Note_on_c, 10, 50, 80
13, 119699, Note_on_c, 10, 50, 0
13, 119700, Note_on_c, 10, 50, 80
13, 119759, Note_on_c, 10, 50, 0
13, 119760, Note_on_c, 10, 50, 80
13, 119879, Note_on_c, 10, 50, 0
13, 120120, Note_on_c, 10, 50, 80
13, 120179, Note_on_c, 10, 50, 0
13, 120180, Note_on_c, 10, 50, 80
13, 120239, Note_on_c, 10, 50, 0
13, 120240, Note_on_c, 10, 50, 80
13, 120359, Note_on_c, 10, 50, 0
13, 120600, Note_on_c, 10, 50, 80
13, 120659, Note_on_c, 10, 50, 0
13, 120660, Note_on_c, 10, 50, 80
13, 120719, Note_on_c, 10, 50, 0
13, 120720, Note_on_c, 10, 50, 80
13, 120839, Note_on_c, 10, 50, 0
13, 120840, Note_on_c, 10, 50, 80
13, 120899, Note_on_c, 10, 50, 0
13, 120900, Note_on_c, 10, 50, 62
13, 120959, Note_on_c, 10, 50, 0
13, 120960, Note_on_c, 10, 50, 44
13, 121079, Note_on_c, 10, 50, 0
13, 131100, Note_on_c, 10, 45, 32
13, 131159, Note_on_c, 10, 45, 0
13, 131160, Note_on_c, 10, 45, 32
13, 131219, Note_on_c, 10, 45, 0
13, 131220, Note_on_c, 10, 45, 32
13, 131279, Note_on_c, 10, 45, 0
13, 131280, Note_on_c, 10, 45, 32
13, 131399, Note_on_c, 10, 45, 0
13, 133320, Note_on_c, 10, 45, 32
13, 133439, Note_on_c, 10, 45, 0
13, 133440, Note_on_c, 10, 45, 32
13, 133559, Note_on_c, 10, 45, 0
13, 135840, Note_on_c, 10, 45, 44
13, 135959, Note_on_c, 10, 45, 0
13, 137520, Note_on_c, 10, 45, 44
13, 137639, Note_on_c, 10, 45, 0
13, 138000, Note_on_c, 10, 45, 44
13, 138119, Note_on_c, 10, 45, 0
13, 139440, Note_on_c, 10, 45, 44
13, 139559, Note_on_c, 10, 45, 0
13, 139920, Note_on_c, 10, 45, 44
13, 140039, Note_on_c, 10, 45, 0
13, 142080, Note_on_c, 10, 45, 80
13, 142199, Note_on_c, 10, 45, 0
13, 142320, Note_on_c, 10, 45, 80
13, 142439, Note_on_c, 10, 45, 0
13, 142560, Note_on_c, 10, 45, 80
13, 142679, Note_on_c, 10, 45, 0
13, 142800, Note_on_c, 10, 45, 80
13, 142919, Note_on_c, 10, 45, 0
13, 143040, Note_on_c, 10, 45, 80
13, 143159, Note_on_c, 10, 45, 0
13, 143280, Note_on_c, 10, 45, 80
13, 143399, Note_on_c, 10, 45, 0
13, 143520, Note_on_c, 10, 45, 80
13, 143639, Note_on_c, 10, 45, 0
13, 143640, Note_on_c, 10, 45, 80
13, 143759, Note_on_c, 10, 45, 0
13, 143760, Note_on_c, 10, 45, 80
13, 143879, Note_on_c, 10, 45, 0
13, 143880, Note_on_c, 10, 45, 80
13, 143999, Note_on_c, 10, 45, 0
13, 144000, Note_on_c, 10, 50, 88
13, 144029, Note_on_c, 10, 50, 0
13, 144030, Note_on_c, 10, 50, 92
13, 144059, Note_on_c, 10, 50, 0
13, 144060, Note_on_c, 10, 50, 89
13, 144089, Note_on_c, 10, 50, 0
13, 144090, Note_on_c, 10, 50, 94
13, 144119, Note_on_c, 10, 50, 0
13, 144120, Note_on_c, 10, 50, 92
13, 144149, Note_on_c, 10, 50, 0
13, 144150, Note_on_c, 10, 50, 91
13, 144179, Note_on_c, 10, 50, 0
13, 144180, Note_on_c, 10, 50, 90
13, 144209, Note_on_c, 10, 50, 0
13, 144210, Note_on_c, 10, 50, 95
13, 144239, Note_on_c, 10, 50, 0
13, 144240, Note_on_c, 10, 50, 94
13, 144269, Note_on_c, 10, 50, 0
13, 144270, Note_on_c, 10, 50, 93
13, 144299, Note_on_c, 10, 50, 0
13, 144300, Note_on_c, 10, 50, 89
13, 144329, Note_on_c, 10, 50, 0
13, 144330, Note_on_c, 10, 50, 94
13, 144359, Note_on_c, 10, 50, 0
13, 144360, Note_on_c, 10, 50, 93
13, 144389, Note_on_c, 10, 50, 0
13, 144390, Note_on_c, 10, 50, 92
13, 144419, Note_on_c, 10, 50, 0
13, 144420, Note_on_c, 10, 50, 90
13, 144449, Note_on_c, 10, 50, 0
13, 144450, Note_on_c, 10, 50, 88
13, 144479, Note_on_c, 10, 50, 0
13, 144480, Note_on_c, 10, 50, 88
13, 144509, Note_on_c, 10, 50, 0
13, 144510, Note_on_c, 10, 50, 90
13, 144539, Note_on_c, 10, 50, 0
13, 144540, Note_on_c, 10, 50, 89
13, 144569, Note_on_c, 10, 50, 0
13, 144570, Note_on_c, 10, 50, 89
13, 144599, Note_on_c, 10, 50, 0
13, 144600, Note_on_c, 10, 50, 95
13, 144629, Note_on_c, 10, 50, 0
13, 144630, Note_on_c, 10, 50, 91
13, 144659, Note_on_c, 10, 50, 0
13, 144660, Note_on_c, 10, 50, 88
13, 144689, Note_on_c, 10, 50, 0
13, 144690, Note_on_c, 10, 50, 88
13, 144719, Note_on_c, 10, 50, 0
13, 144720, Note_on_c, 10, 50, 88
13, 144749, Note_on_c, 10, 50, 0
13, 144750, Note_on_c, 10, 50, 91
13, 144779, Note_on_c, 10, 50, 0
13, 144780, Note_on_c, 10, 50, 92
13, 144809, Note_on_c, 10, 50, 0
13, 144810, Note_on_c, 10, 50, 92
13, 144839, Note_on_c, 10, 50, 0
13, 144840, Note_on_c, 10, 50, 92
13, 144869, Note_on_c, 10, 50, 0
13, 144870, Note_on_c, 10, 50, 92
13, 144899, Note_on_c, 10, 50, 0
13, 144900, Note_on_c, 10, 50, 89
13, 144929, Note_on_c, 10, 50, 0
13, 144930, Note_on_c, 10, 50, 93
13, 144959, Note_on_c, 10, 50, 0
13, 144960, Note_on_c, 10, 50, 91
13, 144989, Note_on_c, 10, 50, 0
13, 144990, Note_on_c, 10, 50, 90
13, 145019, Note_on_c, 10, 50, 0
13, 145020, Note_on_c, 10, 50, 88
13, 145049, Note_on_c, 10, 50, 0
13, 145050, Note_on_c, 10, 50, 92
13, 145079, Note_on_c, 10, 50, 0
13, 145080, Note_on_c, 10, 50, 94
13, 145109, Note_on_c, 10, 50, 0
13, 145110, Note_on_c, 10, 50, 94
13, 145139, Note_on_c, 10, 50, 0
13, 145140, Note_on_c, 10, 50, 92
13, 145169, Note_on_c, 10, 50, 0
13, 145170, Note_on_c, 10, 50, 90
13, 145199, Note_on_c, 10, 50, 0
13, 145200, Note_on_c, 10, 50, 95
13, 145229, Note_on_c, 10, 50, 0
13, 145230, Note_on_c, 10, 50, 93
13, 145259, Note_on_c, 10, 50, 0
13, 145260, Note_on_c, 10, 50, 95
13, 145289, Note_on_c, 10, 50, 0
13, 145290, Note_on_c, 10, 50, 95
13, 145319, Note_on_c, 10, 50, 0
13, 145320, Note_on_c, 10, 50, 92
13, 145349, Note_on_c, 10, 50, 0
13, 145350, Note_on_c, 10, 50, 89
13, 145379, Note_on_c, 10, 50, 0
13, 145380, Note_on_c, 10, 50, 91
13, 145409, Note_on_c, 10, 50, 0
13, 145410, Note_on_c, 10, 50, 89
13, 145439, Note_on_c, 10, 50, 0
13, 145440, Note_on_c, 10, 50, 94
13, 145469, Note_on_c, 10, 50, 0
13, 145470, Note_on_c, 10, 50, 89
13, 145499, Note_on_c, 10, 50, 0
13, 145500, Note_on_c, 10, 50, 94
13, 145529, Note_on_c, 10, 50, 0
13, 145530, Note_on_c, 10, 50, 94
13, 145559, Note_on_c, 10, 50, 0
13, 145560, Note_on_c, 10, 50, 95
13, 145589, Note_on_c, 10, 50, 0
13, 145590, Note_on_c, 10, 50, 95
13, 145619, Note_on_c, 10, 50, 0
13, 145620, Note_on_c, 10, 50, 92
13, 145649, Note_on_c, 10, 50, 0
13, 145650, Note_on_c, 10, 50, 91
13, 145679, Note_on_c, 10, 50, 0
13, 145680, Note_on_c, 10, 50, 90
13, 145709, Note_on_c, 10, 50, 0
13, 145710, Note_on_c, 10, 50, 90
13, 145739, Note_on_c, 10, 50, 0
13, 145740, Note_on_c, 10, 50, 94
13, 145769, Note_on_c, 10, 50, 0
13, 145770, Note_on_c, 10, 50, 88
13, 145799, Note_on_c, 10, 50, 0
13, 145800, Note_on_c, 10, 50, 91
13, 145829, Note_on_c, 10, 50, 0
13, 145830, Note_on_c, 10, 50, 88
13, 145859, Note_on_c, 10, 50, 0
13, 145860, Note_on_c, 10, 50, 93
13, 145889, Note_on_c, 10, 50, 0
13, 145890, Note_on_c, 10, 45, 88
13, 145919, Note_on_c, 10, 45, 0
13, 145920, Note_on_c, 10, 50, 88
13, 145949, Note_on_c, 10, 50, 0
13, 145950, Note_on_c, 10, 50, 95
13, 145979, Note_on_c, 10, 50, 0
13, 145980, Note_on_c, 10, 50, 90
13, 146009, Note_on_c, 10, 50, 0
13, 146010, Note_on_c, 10, 50, 90
13, 146039, Note_on_c, 10, 50, 0
13, 146040, Note_on_c, 10, 50, 92
13, 146069, Note_on_c, 10, 50, 0
13, 146070, Note_on_c, 10, 50, 93
13, 146099, Note_on_c, 10, 50, 0
13, 146100, Note_on_c, 10, 50, 94
13, 146129, Note_on_c, 10, 50, 0
13, 146130, Note_on_c, 10, 50, 93
13, 146159, Note_on_c, 10, 50, 0
13, 146160, Note_on_c, 10, 50, 91
13, 146189, Note_on_c, 10, 50, 0
13, 146190, Note_on_c, 10, 50, 89
13, 146219, Note_on_c, 10, 50, 0
13, 146220, Note_on_c, 10, 50, 93
13, 146249, Note_on_c, 10, 50, 0
13, 146250, Note_on_c, 10, 50, 91
13, 146279, Note_on_c, 10, 50, 0
13, 146280, Note_on_c, 10, 50, 91
13, 146309, Note_on_c, 10, 50, 0
13, 146310, Note_on_c, 10, 50, 95
13, 146339, Note_on_c, 10, 50, 0
13, 146340, Note_on_c, 10, 50, 93
13, 146369, Note_on_c, 10, 50, 0
13, 146370, Note_on_c, 10, 50, 88
13, 146399, Note_on_c, 10, 50, 0
13, 146400, Note_on_c, 10, 50, 92
13, 146429, Note_on_c, 10, 50, 0
13, 146430, Note_on_c, 10, 50, 91
13, 146459, Note_on_c, 10, 50, 0
13, 146460, Note_on_c, 10, 50, 93
13, 146489, Note_on_c, 10, 50, 0
13, 146490, Note_on_c, 10, 50, 92
13, 146519, Note_on_c, 10, 50, 0
13, 146520, Note_on_c, 10, 50, 92
13, 146549, Note_on_c, 10, 50, 0
13, 146550, Note_on_c, 10, 50, 90
13, 146579, Note_on_c, 10, 50, 0
13, 146580, Note_on_c, 10, 50, 89
13, 146609, Note_on_c, 10, 50, 0
13, 146610, Note_on_c, 10, 50, 89
13, 146639, Note_on_c, 10, 50, 0
13, 146640, Note_on_c, 10, 50, 91
13, 146669, Note_on_c, 10, 50, 0
13, 146670, Note_on_c, 10, 50, 94
13, 146699, Note_on_c, 10, 50, 0
13, 146700, Note_on_c, 10, 50, 92
13, 146729, Note_on_c, 10, 50, 0
13, 146730, Note_on_c, 10, 50, 95
13, 146759, Note_on_c, 10, 50, 0
13, 146760, Note_on_c, 10, 50, 94
13, 146789, Note_on_c, 10, 50, 0
13, 146790, Note_on_c, 10, 50, 90
13, 146819, Note_on_c, 10, 50, 0
13, 146820, Note_on_c, 10, 50, 89
13, 146849, Note_on_c, 10, 50, 0
13, 146850, Note_on_c, 10, 50, 93
13, 146879, Note_on_c, 10, 50, 0
13, 146880, Note_on_c, 10, 50, 91
13, 146909, Note_on_c, 10, 50, 0
13, 146910, Note_on_c, 10, 50, 88
13, 146939, Note_on_c, 10, 50, 0
13, 146940, Note_on_c, 10, 50, 93
13, 146969, Note_on_c, 10, 50, 0
13, 146970, Note_on_c, 10, 50, 92
13, 146999, Note_on_c, 10, 50, 0
13, 147000, Note_on_c, 10, 50, 89
13, 147029, Note_on_c, 10, 50, 0
13, 147030, Note_on_c, 10, 50, 95
13, 147059, Note_on_c, 10, 50, 0
13, 147060, Note_on_c, 10, 50, 89
13, 147089, Note_on_c, 10, 50, 0
13, 147090, Note_on_c, 10, 50, 95
13, 147119, Note_on_c, 10, 50, 0
13, 147120, Note_on_c, 10, 50, 93
13, 147149, Note_on_c, 10, 50, 0
13, 147150, Note_on_c, 10, 50, 90
13, 147179, Note_on_c, 10, 50, 0
13, 147180, Note_on_c, 10, 50, 91
13, 147209, Note_on_c, 10, 50, 0
13, 147210, Note_on_c, 10, 50, 88
13, 147239, Note_on_c, 10, 50, 0
13, 147240, Note_on_c, 10, 50, 95
13, 147269, Note_on_c, 10, 50, 0
13, 147270, Note_on_c, 10, 50, 93
13, 147299, Note_on_c, 10, 50, 0
13, 147300, Note_on_c, 10, 50, 89
13, 147329, Note_on_c, 10, 50, 0
13, 147330, Note_on_c, 10, 50, 95
13, 147359, Note_on_c, 10, 50, 0
13, 147360, Note_on_c, 10, 50, 94
13, 147389, Note_on_c, 10, 50, 0
13, 147390, Note_on_c, 10, 50, 92
13, 147419, Note_on_c, 10, 50, 0
13, 147420, Note_on_c, 10, 50, 89
13, 147449, Note_on_c, 10, 50, 0
13, 147450, Note_on_c, 10, 50, 89
13, 147479, Note_on_c, 10, 50, 0
13, 147480, Note_on_c, 10, 50, 94
13, 147509, Note_on_c, 10, 50, 0
13, 147510, Note_on_c, 10, 50, 91
13, 147539, Note_on_c, 10, 50, 0
13, 147540, Note_on_c, 10, 50, 89
13, 147569, Note_on_c, 10, 50, 0
13, 147570, Note_on_c, 10, 50, 92
13, 147599, Note_on_c, 10, 50, 0
13, 147600, Note_on_c, 10, 50, 93
13, 147629, Note_on_c, 10, 50, 0
13, 147630, Note_on_c, 10, 50, 91
13, 147659, Note_on_c, 10, 50, 0
13, 147660, Note_on_c, 10, 50, 90
13, 147689, Note_on_c, 10, 50, 0
13, 147690, Note_on_c, 10, 50, 92
13, 147719, Note_on_c, 10, 50, 0
13, 147720, Note_on_c, 10, 50, 93
13, 147749, Note_on_c, 10, 50, 0
13, 147750, Note_on_c, 10, 50, 94
13, 147779, Note_on_c, 10, 50, 0
13, 147780, Note_on_c, 10, 50, 93
13, 147809, Note_on_c, 10, 50, 0
13, 147810, Note_on_c, 10, 45, 91
13, 147839, Note_on_c, 10, 45, 0
13, 147840, Note_on_c, 10, 50, 88
13, 147869, Note_on_c, 10, 50, 0
13, 147870, Note_on_c, 10, 50, 90
13, 147899, Note_on_c, 10, 50, 0
13, 147900, Note_on_c, 10, 50, 94
13, 147929, Note_on_c, 10, 50, 0
13, 147930, Note_on_c, 10, 50, 88
13, 147959, Note_on_c, 10, 50, 0
13, 147960, Note_on_c, 10, 50, 92
13, 147989, Note_on_c, 10, 50, 0
13, 147990, Note_on_c, 10, 50, 93
13, 148019, Note_on_c, 10, 50, 0
13, 148020, Note_on_c, 10, 50, 91
13, 148049, Note_on_c, 10, 50, 0
13, 148050, Note_on_c, 10, 50, 88
13, 148079, Note_on_c, 10, 50, 0
13, 148080, Note_on_c, 10, 50, 95
13, 148109, Note_on_c, 10, 50, 0
13, 148110, Note_on_c, 10, 50, 95
13, 148139, Note_on_c, 10, 50, 0
13, 148140, Note_on_c, 10, 50, 92
13, 148169, Note_on_c, 10, 50, 0
13, 148170, Note_on_c, 10, 50, 90
13, 148199, Note_on_c, 10, 50, 0
13, 148200, Note_on_c, 10, 50, 91
13, 148229, Note_on_c, 10, 50, 0
13, 148230, Note_on_c, 10, 50, 90
13, 148259, Note_on_c, 10, 50, 0
13, 148260, Note_on_c, 10, 50, 94
13, 148289, Note_on_c, 10, 50, 0
13, 148290, Note_on_c, 10, 50, 90
13, 148319, Note_on_c, 10, 50, 0
13, 148320, Note_on_c, 10, 50, 91
13, 148349, Note_on_c, 10, 50, 0
13, 148350, Note_on_c, 10, 50, 90
13, 148379, Note_on_c, 10, 50, 0
13, 148380, Note_on_c, 10, 50, 95
13, 148409, Note_on_c, 10, 50, 0
13, 148410, Note_on_c, 10, 50, 90
13, 148439, Note_on_c, 10, 50, 0
13, 148440, Note_on_c, 10, 50, 93
13, 148469, Note_on_c, 10, 50, 0
13, 148470, Note_on_c, 10, 50, 92
13, 148499, Note_on_c, 10, 50, 0
13, 148500, Note_on_c, 10, 50, 89
13, 148529, Note_on_c, 10, 50, 0
13, 148530, Note_on_c, 10, 50, 94
13, 148559, Note_on_c, 10, 50, 0
13, 148560, Note_on_c, 10, 50, 94
13, 148589, Note_on_c, 10, 50, 0
13, 148590, Note_on_c, 10, 50, 91
13, 148619, Note_on_c, 10, 50, 0
13, 148620, Note_on_c, 10, 50, 92
13, 148649, Note_on_c, 10, 50, 0
13, 148650, Note_on_c, 10, 50, 95
13, 148679, Note_on_c, 10, 50, 0
13, 148680, Note_on_c, 10, 50, 88
13, 148709, Note_on_c, 10, 50, 0
13, 148710, Note_on_c, 10, 50, 95
13, 148739, Note_on_c, 10, 50, 0
13, 148740, Note_on_c, 10, 50, 92
13, 148769, Note_on_c, 10, 50, 0
13, 148770, Note_on_c, 10, 45, 88
13, 148799, Note_on_c, 10, 45, 0
13, 148800, Note_on_c, 10, 50, 92
13, 148829, Note_on_c, 10, 50, 0
13, 148830, Note_on_c, 10, 50, 89
13, 148859, Note_on_c, 10, 50, 0
13, 148860, Note_on_c, 10, 50, 94
13, 148889, Note_on_c, 10, 50, 0
13, 148890, Note_on_c, 10, 50, 93
13, 148919, Note_on_c, 10, 50, 0
13, 148920, Note_on_c, 10, 50, 93
13, 148949, Note_on_c, 10, 50, 0
13, 148950, Note_on_c, 10, 50, 89
13, 148979, Note_on_c, 10, 50, 0
13, 148980, Note_on_c, 10, 50, 94
13, 149009, Note_on_c, 10, 50, 0
13, 149010, Note_on_c, 10, 50, 88
13, 149039, Note_on_c, 10, 50, 0
13, 149040, Note_on_c, 10, 50, 88
13, 149069, Note_on_c, 10, 50, 0
13, 149070, Note_on_c, 10, 50, 93
13, 149099, Note_on_c, 10, 50, 0
13, 149100, Note_on_c, 10, 50, 90
13, 149129, Note_on_c, 10, 50, 0
13, 149130, Note_on_c, 10, 50, 95
13, 149159, Note_on_c, 10, 50, 0
13, 149160, Note_on_c, 10, 50, 90
13, 149189, Note_on_c, 10, 50, 0
13, 149190, Note_on_c, 10, 50, 90
13, 149219, Note_on_c, 10, 50, 0
13, 149220, Note_on_c, 10, 50, 89
13, 149249, Note_on_c, 10, 50, 0
13, 149250, Note_on_c, 10, 50, 93
13, 149279, Note_on_c, 10, 50, 0
13, 149280, Note_on_c, 10, 50, 94
13, 149309, Note_on_c, 10, 50, 0
13, 149310, Note_on_c, 10, 50, 93
13, 149339, Note_on_c, 10, 50, 0
13, 149340, Note_on_c, 10, 50, 92
13, 149369, Note_on_c, 10, 50, 0
13, 149370, Note_on_c, 10, 50, 93
13, 149399, Note_on_c, 10, 50, 0
13, 149400, Note_on_c, 10, 50, 90
13, 149429, Note_on_c, 10, 50, 0
13, 149430, Note_on_c, 10, 50, 89
13, 149459, Note_on_c, 10, 50, 0
13, 149460, Note_on_c, 10, 50, 88
13, 149489, Note_on_c, 10, 50, 0
13, 149490, Note_on_c, 10, 50, 88
13, 149519, Note_on_c, 10, 50, 0
13, 149520, Note_on_c, 10, 50, 94
13, 149549, Note_on_c, 10, 50, 0
13, 149550, Note_on_c, 10, 50, 94
13, 149579, Note_on_c, 10, 50, 0
13, 149580, Note_on_c, 10, 50, 89
13, 149609, Note_on_c, 10, 50, 0
13, 149610, Note_on_c, 10, 50, 88
13, 149639, Note_on_c, 10, 50, 0
13, 149640, Note_on_c, 10, 50, 92
13, 149669, Note_on_c, 10, 50, 0
13, 149670, Note_on_c, 10, 50, 88
13, 149699, Note_on_c, 10, 50, 0
13, 149700, Note_on_c, 10, 50, 88
13, 149729, Note_on_c, 10, 50, 0
13, 149730, Note_on_c, 10, 50, 91
13, 149759, Note_on_c, 10, 50, 0
13, 149760, Note_on_c, 10, 50, 94
13, 149789, Note_on_c, 10, 50, 0
13, 149790, Note_on_c, 10, 50, 93
13, 149819, Note_on_c, 10, 50, 0
13, 149820, Note_on_c, 10, 50, 92
13, 149849, Note_on_c, 10, 50, 0
13, 149850, Note_on_c, 10, 50, 88
13, 149879, Note_on_c, 10, 50, 0
13, 149880, Note_on_c, 10, 50, 91
13, 149909, Note_on_c, 10, 50, 0
13, 149910, Note_on_c, 10, 50, 89
13, 149939, Note_on_c, 10, 50, 0
13, 149940, Note_on_c, 10, 50, 93
13, 149969, Note_on_c, 10, 50, 0
13, 149970, Note_on_c, 10, 50, 90
13, 149999, Note_on_c, 10, 50, 0
13, 150000, Note_on_c, 10, 50, 91
13, 150029, Note_on_c, 10, 50, 0
13, 150030, Note_on_c, 10, 50, 89
13, 150059, Note_on_c, 10, 50, 0
13, 150060, Note_on_c, 10, 50, 92
13, 150089, Note_on_c, 10, 50, 0
13, 150090, Note_on_c, 10, 50, 92
13, 150119, Note_on_c, 10, 50, 0
13, 150120, Note_on_c, 10, 50, 93
13, 150149, Note_on_c, 10, 50, 0
13, 150150, Note_on_c, 10, 50, 89
13, 150179, Note_on_c, 10, 50, 0
13, 150180, Note_on_c, 10, 50, 92
13, 150209, Note_on_c, 10, 50, 0
13, 150210, Note_on_c, 10, 50, 95
13, 150239, Note_on_c, 10, 50, 0
13, 150240, Note_on_c, 10, 50, 93
13, 150269, Note_on_c, 10, 50, 0
13, 150270, Note_on_c, 10, 50, 95
13, 150299, Note_on_c, 10, 50, 0
13, 150300, Note_on_c, 10, 50, 89
13, 150329, Note_on_c, 10, 50, 0
13, 150330, Note_on_c, 10, 50, 90
13, 150359, Note_on_c, 10, 50, 0
13, 150360, Note_on_c, 10, 50, 89
13, 150389, Note_on_c, 10, 50, 0
13, 150390, Note_on_c, 10, 50, 95
13, 150419, Note_on_c, 10, 50, 0
13, 150420, Note_on_c, 10, 50, 91
13, 150449, Note_on_c, 10, 50, 0
13, 150450, Note_on_c, 10, 50, 95
13, 150479, Note_on_c, 10, 50, 0
13, 150480, Note_on_c, 10, 50, 88
13, 150509, Note_on_c, 10, 50, 0
13, 150510, Note_on_c, 10, 50, 93
13, 150539, Note_on_c, 10, 50, 0
13, 150540, Note_on_c, 10, 50, 88
13, 150569, Note_on_c, 10, 50, 0
13, 150570, Note_on_c, 10, 50, 91
13, 150599, Note_on_c, 10, 50, 0
13, 150600, Note_on_c, 10, 50, 95
13, 150629, Note_on_c, 10, 50, 0
13, 150630, Note_on_c, 10, 50, 88
13, 150659, Note_on_c, 10, 50, 0
13, 150660, Note_on_c, 10, 50, 95
13, 150689, Note_on_c, 10, 50, 0
13, 150690, Note_on_c, 10, 50, 90
13, 150719, Note_on_c, 10, 50, 0
13, 150720, Note_on_c, 10, 50, 89
13, 150749, Note_on_c, 10, 50, 0
13, 150750, Note_on_c, 10, 50, 94
13, 150779, Note_on_c, 10, 50, 0
13, 150780, Note_on_c, 10, 50, 91
13, 150809, Note_on_c, 10, 50, 0
13, 150810, Note_on_c, 10, 50, 89
13, 150839, Note_on_c, 10, 50, 0
13, 150840, Note_on_c, 10, 50, 93
13, 150869, Note_on_c, 10, 50, 0
13, 150870, Note_on_c, 10, 50, 92
13, 150899, Note_on_c, 10, 50, 0
13, 150900, Note_on_c, 10, 50, 91
13, 150929, Note_on_c, 10, 50, 0
13, 150930, Note_on_c, 10, 50, 91
13, 150959, Note_on_c, 10, 50, 0
13, 150960, Note_on_c, 10, 50, 92
13, 150989, Note_on_c, 10, 50, 0
13, 150990, Note_on_c, 10, 50, 93
13, 151019, Note_on_c, 10, 50, 0
13, 151020, Note_on_c, 10, 50, 94
13, 151049, Note_on_c, 10, 50, 0
13, 151050, Note_on_c, 10, 50, 94
13, 151079, Note_on_c, 10, 50, 0
13, 151080, Note_on_c, 10, 50, 92
13, 151109, Note_on_c, 10, 50, 0
13, 151110, Note_on_c, 10, 50, 93
13, 151139, Note_on_c, 10, 50, 0
13, 151140, Note_on_c, 10, 50, 92
13, 151169, Note_on_c, 10, 50, 0
13, 151170, Note_on_c, 10, 50, 91
13, 151199, Note_on_c, 10, 50, 0
13, 151200, Note_on_c, 10, 50, 89
13, 151229, Note_on_c, 10, 50, 0
13, 151230, Note_on_c, 10, 50, 93
13, 151259, Note_on_c, 10, 50, 0
13, 151260, Note_on_c, 10, 50, 92
13, 151289, Note_on_c, 10, 50, 0
13, 151290, Note_on_c, 10, 50, 95
13, 151319, Note_on_c, 10, 50, 0
13, 151320, Note_on_c, 10, 50, 89
13, 151349, Note_on_c, 10, 50, 0
13, 151350, Note_on_c, 10, 50, 89
13, 151379, Note_on_c, 10, 50, 0
13, 151380, Note_on_c, 10, 50, 92
13, 151409, Note_on_c, 10, 50, 0
13, 151410, Note_on_c, 10, 50, 93
13, 151439, Note_on_c, 10, 50, 0
13, 151440, Note_on_c, 10, 50, 92
13, 151469, Note_on_c, 10, 50, 0
13, 151470, Note_on_c, 10, 50, 90
13, 151499, Note_on_c, 10, 50, 0
13, 151500, Note_on_c, 10, 50, 91
13, 151529, Note_on_c, 10, 50, 0
13, 151530, Note_on_c, 10, 50, 88
13, 151559, Note_on_c, 10, 50, 0
13, 151560, Note_on_c, 10, 50, 93
13, 151589, Note_on_c, 10, 50, 0
13, 151590, Note_on_c, 10, 50, 92
13, 151619, Note_on_c, 10, 50, 0
13, 151620, Note_on_c, 10, 50, 92
13, 151649, Note_on_c, 10, 50, 0
13, 151650, Note_on_c, 10, 50, 93
13, 151679, Note_on_c, 10, 50, 0
13, 151680, Note_on_c, 10, 50, 94
13, 151709, Note_on_c, 10, 50, 0
13, 151710, Note_on_c, 10, 50, 89
13, 151739, Note_on_c, 10, 50, 0
13, 151740, Note_on_c, 10, 50, 92
13, 151769, Note_on_c, 10, 50, 0
13, 151770, Note_on_c, 10, 50, 94
13, 151799, Note_on_c, 10, 50, 0
13, 151800, Note_on_c, 10, 50, 95
13, 151829, Note_on_c, 10, 50, 0
13, 151830, Note_on_c, 10, 50, 92
13, 151859, Note_on_c, 10, 50, 0
13, 151860, Note_on_c, 10, 50, 93
13, 151889, Note_on_c, 10, 50, 0
13, 151890, Note_on_c, 10, 50, 88
13, 151919, Note_on_c, 10, 50, 0
13, 151920, Note_on_c, 10, 50, 93
13, 151949, Note_on_c, 10, 50, 0
13, 151950, Note_on_c, 10, 50, 95
13, 151979, Note_on_c, 10, 50, 0
13, 151980, Note_on_c, 10, 50, 90
13, 152009, Note_on_c, 10, 50, 0
13, 152010, Note_on_c, 10, 50, 92
13, 152039, Note_on_c, 10, 50, 0
13, 152040, Note_on_c, 10, 50, 90
13, 152069, Note_on_c, 10, 50, 0
13, 152070, Note_on_c, 10, 50, 89
13, 152099, Note_on_c, 10, 50, 0
13, 152100, Note_on_c, 10, 50, 88
13, 152129, Note_on_c, 10, 50, 0
13, 152130, Note_on_c, 10, 50, 94
13, 152159, Note_on_c, 10, 50, 0
13, 152160, Note_on_c, 10, 50, 94
13, 152189, Note_on_c, 10, 50, 0
13, 152190, Note_on_c, 10, 50, 93
13, 152219, Note_on_c, 10, 50, 0
13, 152220, Note_on_c, 10, 50, 89
13, 152249, Note_on_c, 10, 50, 0
13, 152250, Note_on_c, 10, 50, 90
13, 152279, Note_on_c, 10, 50, 0
13, 152280, Note_on_c, 10, 50, 88
13, 152309, Note_on_c, 10, 50, 0
13, 152310, Note_on_c, 10, 50, 88
13, 152339, Note_on_c, 10, 50, 0
13, 152340, Note_on_c, 10, 50, 93
13, 152369, Note_on_c, 10, 50, 0
13, 152370, Note_on_c, 10, 50, 94
13, 152399, Note_on_c, 10, 50, 0
13, 152400, Note_on_c, 10, 50, 92
13, 152429, Note_on_c, 10, 50, 0
13, 152430, Note_on_c, 10, 50, 91
13, 152459, Note_on_c, 10, 50, 0
13, 152460, Note_on_c, 10, 50, 91
13, 152489, Note_on_c, 10, 50, 0
13, 152490, Note_on_c, 10, 50, 90
13, 152519, Note_on_c, 10, 50, 0
13, 152520, Note_on_c, 10, 50, 91
13, 152549, Note_on_c, 10, 50, 0
13, 152550, Note_on_c, 10, 50, 92
13, 152579, Note_on_c, 10, 50, 0
13, 152580, Note_on_c, 10, 50, 89
13, 152609, Note_on_c, 10, 50, 0
13, 152610, Note_on_c, 10, 50, 90
13, 152639, Note_on_c, 10, 50, 0
13, 152640, Note_on_c, 10, 50, 93
13, 152669, Note_on_c, 10, 50, 0
13, 152670, Note_on_c, 10, 50, 90
13, 152699, Note_on_c, 10, 50, 0
13, 152700, Note_on_c, 10, 50, 94
13, 152729, Note_on_c, 10, 50, 0
13, 152730, Note_on_c, 10, 50, 95
13, 152759, Note_on_c, 10, 50, 0
13, 152760, Note_on_c, 10, 50, 94
13, 152789, Note_on_c, 10, 50, 0
13, 152790, Note_on_c, 10, 50, 93
13, 152819, Note_on_c, 10, 50, 0
13, 152820, Note_on_c, 10, 50, 90
13, 152849, Note_on_c, 10, 50, 0
13, 152850, Note_on_c, 10, 50, 95
13, 152879, Note_on_c, 10, 50, 0
13, 152880, Note_on_c, 10, 50, 89
13, 152909, Note_on_c, 10, 50, 0
13, 152910, Note_on_c, 10, 50, 88
13, 152939, Note_on_c, 10, 50, 0
13, 152940, Note_on_c, 10, 50, 94
13, 152969, Note_on_c, 10, 50, 0
13, 152970, Note_on_c, 10, 50, 92
13, 152999, Note_on_c, 10, 50, 0
13, 153000, Note_on_c, 10, 50, 92
13, 153029, Note_on_c, 10, 50, 0
13, 153030, Note_on_c, 10, 50, 95
13, 153059, Note_on_c, 10, 50, 0
13, 153060, Note_on_c, 10, 50, 88
13, 153089, Note_on_c, 10, 50, 0
13, 153090, Note_on_c, 10, 50, 95
13, 153119, Note_on_c, 10, 50, 0
13, 153120, Note_on_c, 10, 50, 93
13, 153149, Note_on_c, 10, 50, 0
13, 153150, Note_on_c, 10, 50, 90
13, 153179, Note_on_c, 10, 50, 0
13, 153180, Note_on_c, 10, 50, 88
13, 153209, Note_on_c, 10, 50, 0
13, 153210, Note_on_c, 10, 50, 92
13, 153239, Note_on_c, 10, 50, 0
13, 153240, Note_on_c, 10, 50, 89
13, 153269, Note_on_c, 10, 50, 0
13, 153270, Note_on_c, 10, 50, 90
13, 153299, Note_on_c, 10, 50, 0
13, 153300, Note_on_c, 10, 50, 95
13, 153329, Note_on_c, 10, 50, 0
13, 153330, Note_on_c, 10, 50, 92
13, 153359, Note_on_c, 10, 50, 0
13, 153360, Note_on_c, 10, 50, 93
13, 153389, Note_on_c, 10, 50, 0
13, 153390, Note_on_c, 10, 50, 88
13, 153419, Note_on_c, 10, 50, 0
13, 153420, Note_on_c, 10, 50, 91
13, 153449, Note_on_c, 10, 50, 0
13, 153450, Note_on_c, 10, 50, 91
13, 153479, Note_on_c, 10, 50, 0
13, 153480, Note_on_c, 10, 50, 91
13, 153509, Note_on_c, 10, 50, 0
13, 153510, Note_on_c, 10, 50, 94
13, 153539, Note_on_c, 10, 50, 0
13, 153540, Note_on_c, 10, 50, 92
13, 153569, Note_on_c, 10, 50, 0
13, 153570, Note_on_c, 10, 50, 91
13, 153599, Note_on_c, 10, 50, 0
13, 153600, Note_on_c, 10, 50, 93
13, 153629, Note_on_c, 10, 50, 0
13, 153630, Note_on_c, 10, 50, 92
13, 153659, Note_on_c, 10, 50, 0
13, 153660, Note_on_c, 10, 50, 92
13, 153689, Note_on_c, 10, 50, 0
13, 153690, Note_on_c, 10, 50, 91
13, 153719, Note_on_c, 10, 50, 0
13, 153720, Note_on_c, 10, 50, 88
13, 153749, Note_on_c, 10, 50, 0
13, 153750, Note_on_c, 10, 50, 93
13, 153779, Note_on_c, 10, 50, 0
13, 153780, Note_on_c, 10, 50, 88
13, 153809, Note_on_c, 10, 50, 0
13, 153810, Note_on_c, 10, 50, 92
13, 153839, Note_on_c, 10, 50, 0
13, 153840, Note_on_c, 10, 50, 94
13, 153869, Note_on_c, 10, 50, 0
13, 153870, Note_on_c, 10, 50, 91
13, 153899, Note_on_c, 10, 50, 0
13, 153900, Note_on_c, 10, 50, 93
13, 153929, Note_on_c, 10, 50, 0
13, 153930, Note_on_c, 10, 50, 91
13, 153959, Note_on_c, 10, 50, 0
13, 153960, Note_on_c, 10, 50, 91
13, 153989, Note_on_c, 10, 50, 0
13, 153990, Note_on_c, 10, 50, 94
13, 154019, Note_on_c, 10, 50, 0
13, 154020, Note_on_c, 10, 50, 92
13, 154049, Note_on_c, 10, 50, 0
13, 154050, Note_on_c, 10, 50, 90
13, 154079, Note_on_c, 10, 50, 0
13, 154080, Note_on_c, 10, 50, 83
13, 154109, Note_on_c, 10, 50, 0
13, 154110, Note_on_c, 10, 50, 81
13, 154139, Note_on_c, 10, 50, 0
13, 154140, Note_on_c, 10, 50, 77
13, 154169, Note_on_c, 10, 50, 0
13, 154170, Note_on_c, 10, 50, 78
13, 154199, Note_on_c, 10, 50, 0
13, 154200, Note_on_c, 10, 50, 77
13, 154229, Note_on_c, 10, 50, 0
13, 154230, Note_on_c, 10, 50, 81
13, 154259, Note_on_c, 10, 50, 0
13, 154260, Note_on_c, 10, 50, 83
13, 154289, Note_on_c, 10, 50, 0
13, 154290, Note_on_c, 10, 50, 80
13, 154319, Note_on_c, 10, 50, 0
13, 154320, Note_on_c, 10, 50, 76
13, 154349, Note_on_c, 10, 50, 0
13, 154350, Note_on_c, 10, 50, 78
13, 154379, Note_on_c, 10, 50, 0
13, 154380, Note_on_c, 10, 50, 76
13, 154409, Note_on_c, 10, 50, 0
13, 154410, Note_on_c, 10, 50, 81
13, 154439, Note_on_c, 10, 50, 0
13, 154440, Note_on_c, 10, 50, 77
13, 154469, Note_on_c, 10, 50, 0
13, 154470, Note_on_c, 10, 50, 82
13, 154499, Note_on_c, 10, 50, 0
13, 154500, Note_on_c, 10, 50, 82
13, 154529, Note_on_c, 10, 50, 0
13, 154530, Note_on_c, 10, 50, 80
13, 154559, Note_on_c, 10, 50, 0
13, 154560, Note_on_c, 10, 50, 81
13, 154589, Note_on_c, 10, 50, 0
13, 154590, Note_on_c, 10, 50, 82
13, 154619, Note_on_c, 10, 50, 0
13, 154620, Note_on_c, 10, 50, 76
13, 154649, Note_on_c, 10, 50, 0
13, 154650, Note_on_c, 10, 50, 77
13, 154679, Note_on_c, 10, 50, 0
13, 154680, Note_on_c, 10, 50, 81
13, 154709, Note_on_c, 10, 50, 0
13, 154710, Note_on_c, 10, 50, 80
13, 154739, Note_on_c, 10, 50, 0
13, 154740, Note_on_c, 10, 50, 77
13, 154769, Note_on_c, 10, 50, 0
13, 154770, Note_on_c, 10, 50, 76
13, 154799, Note_on_c, 10, 50, 0
13, 154800, Note_on_c, 10, 50, 77
13, 154829, Note_on_c, 10, 50, 0
13, 154830, Note_on_c, 10, 50, 80
13, 154859, Note_on_c, 10, 50, 0
13, 154860, Note_on_c, 10, 50, 78
13, 154889, Note_on_c, 10, 50, 0
13, 154890, Note_on_c, 10, 50, 78
13, 154919, Note_on_c, 10, 50, 0
13, 154920, Note_on_c, 10, 50, 78
13, 154949, Note_on_c, 10, 50, 0
13, 154950, Note_on_c, 10, 50, 81
13, 154979, Note_on_c, 10, 50, 0
13, 154980, Note_on_c, 10, 50, 82
13, 155009, Note_on_c, 10, 50, 0
13, 155010, Note_on_c, 10, 50, 82
13, 155039, Note_on_c, 10, 50, 0
13, 155040, Note_on_c, 10, 50, 80
13, 155069, Note_on_c, 10, 50, 0
13, 155070, Note_on_c, 10, 50, 80
13, 155099, Note_on_c, 10, 50, 0
13, 155100, Note_on_c, 10, 50, 82
13, 155129, Note_on_c, 10, 50, 0
13, 155130, Note_on_c, 10, 50, 83
13, 155159, Note_on_c, 10, 50, 0
13, 155160, Note_on_c, 10, 50, 77
13, 155189, Note_on_c, 10, 50, 0
13, 155190, Note_on_c, 10, 50, 81
13, 155219, Note_on_c, 10, 50, 0
13, 155220, Note_on_c, 10, 50, 79
13, 155249, Note_on_c, 10, 50, 0
13, 155250, Note_on_c, 10, 50, 78
13, 155279, Note_on_c, 10, 50, 0
13, 155280, Note_on_c, 10, 50, 77
13, 155309, Note_on_c, 10, 50, 0
13, 155310, Note_on_c, 10, 50, 82
13, 155339, Note_on_c, 10, 50, 0
13, 155340, Note_on_c, 10, 50, 76
13, 155369, Note_on_c, 10, 50, 0
13, 155370, Note_on_c, 10, 50, 79
13, 155399, Note_on_c, 10, 50, 0
13, 155400, Note_on_c, 10, 50, 80
13, 155429, Note_on_c, 10, 50, 0
13, 155430, Note_on_c, 10, 50, 78
13, 155459, Note_on_c, 10, 50, 0
13, 155460, Note_on_c, 10, 50, 80
13, 155489, Note_on_c, 10, 50, 0
13, 155490, Note_on_c, 10, 50, 77
13, 155519, Note_on_c, 10, 50, 0
13, 155520, Note_on_c, 10, 50, 78
13, 155549, Note_on_c, 10, 50, 0
13, 155550, Note_on_c, 10, 50, 76
13, 155579, Note_on_c, 10, 50, 0
13, 155580, Note_on_c, 10, 50, 82
13, 155609, Note_on_c, 10, 50, 0
13, 155610, Note_on_c, 10, 50, 77
13, 155639, Note_on_c, 10, 50, 0
13, 155640, Note_on_c, 10, 50, 78
13, 155669, Note_on_c, 10, 50, 0
13, 155670, Note_on_c, 10, 50, 82
13, 155699, Note_on_c, 10, 50, 0
13, 155700, Note_on_c, 10, 50, 83
13, 155729, Note_on_c, 10, 50, 0
13, 155730, Note_on_c, 10, 50, 82
13, 155759, Note_on_c, 10, 50, 0
13, 155760, Note_on_c, 10, 50, 81
13, 155789, Note_on_c, 10, 50, 0
13, 155790, Note_on_c, 10, 50, 80
13, 155819, Note_on_c, 10, 50, 0
13, 155820, Note_on_c, 10, 50, 78
13, 155849, Note_on_c, 10, 50, 0
13, 155850, Note_on_c, 10, 50, 82
13, 155879, Note_on_c, 10, 50, 0
13, 155880, Note_on_c, 10, 50, 77
13, 155909, Note_on_c, 10, 50, 0
13, 155910, Note_on_c, 10, 50, 82
13, 155939, Note_on_c, 10, 50, 0
13, 155940, Note_on_c, 10, 50, 77
13, 155969, Note_on_c, 10, 50, 0
13, 155970, Note_on_c, 10, 50, 77
13, 155999, Note_on_c, 10, 50, 0
13, 156000, Note_on_c, 10, 50, 80
13, 156029, Note_on_c, 10, 50, 0
13, 156030, Note_on_c, 10, 50, 83
13, 156059, Note_on_c, 10, 50, 0
13, 156060, Note_on_c, 10, 50, 76
13, 156089, Note_on_c, 10, 50, 0
13, 156090, Note_on_c, 10, 50, 76
13, 156119, Note_on_c, 10, 50, 0
13, 156120, Note_on_c, 10, 50, 80
13, 156149, Note_on_c, 10, 50, 0
13, 156150, Note_on_c, 10, 50, 79
13, 156179, Note_on_c, 10, 50, 0
13, 156180, Note_on_c, 10, 50, 76
13, 156209, Note_on_c, 10, 50, 0
13, 156210, Note_on_c, 10, 50, 78
13, 156239, Note_on_c, 10, 50, 0
13, 156240, Note_on_c, 10, 50, 83
13, 156269, Note_on_c, 10, 50, 0
13, 156270, Note_on_c, 10, 50, 77
13, 156299, Note_on_c, 10, 50, 0
13, 156300, Note_on_c, 10, 50, 77
13, 156329, Note_on_c, 10, 50, 0
13, 156330, Note_on_c, 10, 50, 77
13, 156359, Note_on_c, 10, 50, 0
13, 156360, Note_on_c, 10, 50, 83
13, 156389, Note_on_c, 10, 50, 0
13, 156390, Note_on_c, 10, 50, 76
13, 156419, Note_on_c, 10, 50, 0
13, 156420, Note_on_c, 10, 50, 76
13, 156449, Note_on_c, 10, 50, 0
13, 156450, Note_on_c, 10, 50, 76
13, 156479, Note_on_c, 10, 50, 0
13, 156480, Note_on_c, 10, 50, 88
13, 156509, Note_on_c, 10, 50, 0
13, 156510, Note_on_c, 10, 50, 78
13, 156539, Note_on_c, 10, 50, 0
13, 156540, Note_on_c, 10, 50, 83
13, 156569, Note_on_c, 10, 50, 0
13, 156570, Note_on_c, 10, 50, 79
13, 156599, Note_on_c, 10, 50, 0
13, 156600, Note_on_c, 10, 50, 79
13, 156629, Note_on_c, 10, 50, 0
13, 156630, Note_on_c, 10, 50, 83
13, 156659, Note_on_c, 10, 50, 0
13, 156660, Note_on_c, 10, 50, 82
13, 156689, Note_on_c, 10, 50, 0
13, 156690, Note_on_c, 10, 50, 80
13, 156719, Note_on_c, 10, 50, 0
13, 156720, Note_on_c, 10, 50, 82
13, 156749, Note_on_c, 10, 50, 0
13, 156750, Note_on_c, 10, 50, 81
13, 156779, Note_on_c, 10, 50, 0
13, 156780, Note_on_c, 10, 50, 79
13, 156809, Note_on_c, 10, 50, 0
13, 156810, Note_on_c, 10, 50, 78
13, 156839, Note_on_c, 10, 50, 0
13, 156840, Note_on_c, 10, 50, 76
13, 156869, Note_on_c, 10, 50, 0
13, 156870, Note_on_c, 10, 50, 80
13, 156899, Note_on_c, 10, 50, 0
13, 156900, Note_on_c, 10, 50, 83
13, 156929, Note_on_c, 10, 50, 0
13, 156930, Note_on_c, 10, 50, 79
13, 156959, Note_on_c, 10, 50, 0
13, 156960, Note_on_c, 10, 50, 77
13, 156989, Note_on_c, 10, 50, 0
13, 156990, Note_on_c, 10, 50, 80
13, 157019, Note_on_c, 10, 50, 0
13, 157020, Note_on_c, 10, 50, 78
13, 157049, Note_on_c, 10, 50, 0
13, 157050, Note_on_c, 10, 50, 81
13, 157079, Note_on_c, 10, 50, 0
13, 157080, Note_on_c, 10, 50, 83
13, 157109, Note_on_c, 10, 50, 0
13, 157110, Note_on_c, 10, 50, 79
13, 157139, Note_on_c, 10, 50, 0
13, 157140, Note_on_c, 10, 50, 83
13, 157169, Note_on_c, 10, 50, 0
13, 157170, Note_on_c, 10, 50, 76
13, 157199, Note_on_c, 10, 50, 0
13, 157200, Note_on_c, 10, 50, 83
13, 157229, Note_on_c, 10, 50, 0
13, 157230, Note_on_c, 10, 50, 80
13, 157259, Note_on_c, 10, 50, 0
13, 157260, Note_on_c, 10, 50, 82
13, 157289, Note_on_c, 10, 50, 0
13, 157290, Note_on_c, 10, 50, 80
13, 157319, Note_on_c, 10, 50, 0
13, 157320, Note_on_c, 10, 50, 77
13, 157349, Note_on_c, 10, 50, 0
13, 157350, Note_on_c, 10, 50, 77
13, 157379, Note_on_c, 10, 50, 0
13, 157380, Note_on_c, 10, 50, 79
13, 157409, Note_on_c, 10, 50, 0
13, 157410, Note_on_c, 10, 50, 76
13, 157439, Note_on_c, 10, 50, 0
13, 157440, Note_on_c, 10, 50, 88
13, 157469, Note_on_c, 10, 50, 0
13, 157470, Note_on_c, 10, 50, 79
13, 157499, Note_on_c, 10, 50, 0
13, 157500, Note_on_c, 10, 50, 76
13, 157529, Note_on_c, 10, 50, 0
13, 157530, Note_on_c, 10, 50, 81
13, 157559, Note_on_c, 10, 50, 0
13, 157560, Note_on_c, 10, 50, 82
13, 157589, Note_on_c, 10, 50, 0
13, 157590, Note_on_c, 10, 50, 76
13, 157619, Note_on_c, 10, 50, 0
13, 157620, Note_on_c, 10, 50, 82
13, 157649, Note_on_c, 10, 50, 0
13, 157650, Note_on_c, 10, 50, 81
13, 157679, Note_on_c, 10, 50, 0
13, 157680, Note_on_c, 10, 50, 81
13, 157709, Note_on_c, 10, 50, 0
13, 157710, Note_on_c, 10, 50, 82
13, 157739, Note_on_c, 10, 50, 0
13, 157740, Note_on_c, 10, 50, 80
13, 157769, Note_on_c, 10, 50, 0
13, 157770, Note_on_c, 10, 50, 81
13, 157799, Note_on_c, 10, 50, 0
13, 157800, Note_on_c, 10, 50, 77
13, 157829, Note_on_c, 10, 50, 0
13, 157830, Note_on_c, 10, 50, 81
13, 157859, Note_on_c, 10, 50, 0
13, 157860, Note_on_c, 10, 50, 81
13, 157889, Note_on_c, 10, 50, 0
13, 157890, Note_on_c, 10, 50, 82
13, 157919, Note_on_c, 10, 50, 0
13, 157920, Note_on_c, 10, 50, 76
13, 157949, Note_on_c, 10, 50, 0
13, 157950, Note_on_c, 10, 50, 82
13, 157979, Note_on_c, 10, 50, 0
13, 157980, Note_on_c, 10, 50, 81
13, 158009, Note_on_c, 10, 50, 0
13, 158010, Note_on_c, 10, 50, 81
13, 158039, Note_on_c, 10, 50, 0
13, 158040, Note_on_c, 10, 50, 76
13, 158069, Note_on_c, 10, 50, 0
13, 158070, Note_on_c, 10, 50, 80
13, 158099, Note_on_c, 10, 50, 0
13, 158100, Note_on_c, 10, 50, 83
13, 158129, Note_on_c, 10, 50, 0
13, 158130, Note_on_c, 10, 50, 76
13, 158159, Note_on_c, 10, 50, 0
13, 158160, Note_on_c, 10, 50, 78
13, 158189, Note_on_c, 10, 50, 0
13, 158190, Note_on_c, 10, 50, 77
13, 158219, Note_on_c, 10, 50, 0
13, 158220, Note_on_c, 10, 50, 83
13, 158249, Note_on_c, 10, 50, 0
13, 158250, Note_on_c, 10, 50, 80
13, 158279, Note_on_c, 10, 50, 0
13, 158280, Note_on_c, 10, 50, 78
13, 158309, Note_on_c, 10, 50, 0
13, 158310, Note_on_c, 10, 50, 83
13, 158339, Note_on_c, 10, 50, 0
13, 158340, Note_on_c, 10, 50, 78
13, 158369, Note_on_c, 10, 50, 0
13, 158370, Note_on_c, 10, 50, 81
13, 158399, Note_on_c, 10, 50, 0
13, 158400, Note_on_c, 10, 50, 88
13, 158429, Note_on_c, 10, 50, 0
13, 158430, Note_on_c, 10, 50, 77
13, 158459, Note_on_c, 10, 50, 0
13, 158460, Note_on_c, 10, 50, 77
13, 158489, Note_on_c, 10, 50, 0
13, 158490, Note_on_c, 10, 50, 77
13, 158519, Note_on_c, 10, 50, 0
13, 158520, Note_on_c, 10, 50, 80
13, 158549, Note_on_c, 10, 50, 0
13, 158550, Note_on_c, 10, 50, 83
13, 158579, Note_on_c, 10, 50, 0
13, 158580, Note_on_c, 10, 50, 76
13, 158609, Note_on_c, 10, 50, 0
13, 158610, Note_on_c, 10, 50, 83
13, 158639, Note_on_c, 10, 50, 0
13, 158640, Note_on_c, 10, 50, 79
13, 158669, Note_on_c, 10, 50, 0
13, 158670, Note_on_c, 10, 50, 76
13, 158699, Note_on_c, 10, 50, 0
13, 158700, Note_on_c, 10, 50, 82
13, 158729, Note_on_c, 10, 50, 0
13, 158730, Note_on_c, 10, 50, 77
13, 158759, Note_on_c, 10, 50, 0
13, 158760, Note_on_c, 10, 50, 83
13, 158789, Note_on_c, 10, 50, 0
13, 158790, Note_on_c, 10, 50, 82
13, 158819, Note_on_c, 10, 50, 0
13, 158820, Note_on_c, 10, 50, 82
13, 158849, Note_on_c, 10, 50, 0
13, 158850, Note_on_c, 10, 50, 77
13, 158879, Note_on_c, 10, 50, 0
13, 158880, Note_on_c, 10, 50, 79
13, 158909, Note_on_c, 10, 50, 0
13, 158910, Note_on_c, 10, 50, 76
13, 158939, Note_on_c, 10, 50, 0
13, 158940, Note_on_c, 10, 50, 82
13, 158969, Note_on_c, 10, 50, 0
13, 158970, Note_on_c, 10, 50, 76
13, 158999, Note_on_c, 10, 50, 0
13, 159000, Note_on_c, 10, 50, 79
13, 159029, Note_on_c, 10, 50, 0
13, 159030, Note_on_c, 10, 50, 78
13, 159059, Note_on_c, 10, 50, 0
13, 159060, Note_on_c, 10, 50, 83
13, 159089, Note_on_c, 10, 50, 0
13, 159090, Note_on_c, 10, 50, 76
13, 159119, Note_on_c, 10, 50, 0
13, 159120, Note_on_c, 10, 50, 78
13, 159149, Note_on_c, 10, 50, 0
13, 159150, Note_on_c, 10, 50, 77
13, 159179, Note_on_c, 10, 50, 0
13, 159180, Note_on_c, 10, 50, 77
13, 159209, Note_on_c, 10, 50, 0
13, 159210, Note_on_c, 10, 50, 77
13, 159239, Note_on_c, 10, 50, 0
13, 159240, Note_on_c, 10, 50, 80
13, 159269, Note_on_c, 10, 50, 0
13, 159270, Note_on_c, 10, 50, 83
13, 159299, Note_on_c, 10, 50, 0
13, 159300, Note_on_c, 10, 50, 83
13, 159329, Note_on_c, 10, 50, 0
13, 159330, Note_on_c, 10, 50, 77
13, 159359, Note_on_c, 10, 50, 0
13, 159360, Note_on_c, 10, 50, 88
13, 159389, Note_on_c, 10, 50, 0
13, 159390, Note_on_c, 10, 50, 82
13, 159419, Note_on_c, 10, 50, 0
13, 159420, Note_on_c, 10, 50, 81
13, 159449, Note_on_c, 10, 50, 0
13, 159450, Note_on_c, 10, 50, 81
13, 159479, Note_on_c, 10, 50, 0
13, 159480, Note_on_c, 10, 50, 83
13, 159509, Note_on_c, 10, 50, 0
13, 159510, Note_on_c, 10, 50, 79
13, 159539, Note_on_c, 10, 50, 0
13, 159540, Note_on_c, 10, 50, 83
13, 159569, Note_on_c, 10, 50, 0
13, 159570, Note_on_c, 10, 50, 81
13, 159599, Note_on_c, 10, 50, 0
13, 159600, Note_on_c, 10, 50, 77
13, 159629, Note_on_c, 10, 50, 0
13, 159630, Note_on_c, 10, 50, 81
13, 159659, Note_on_c, 10, 50, 0
13, 159660, Note_on_c, 10, 50, 80
13, 159689, Note_on_c, 10, 50, 0
13, 159690, Note_on_c, 10, 50, 79
13, 159719, Note_on_c, 10, 50, 0
13, 159720, Note_on_c, 10, 50, 83
13, 159749, Note_on_c, 10, 50, 0
13, 159750, Note_on_c, 10, 50, 80
13, 159779, Note_on_c, 10, 50, 0
13, 159780, Note_on_c, 10, 50, 80
13, 159809, Note_on_c, 10, 50, 0
13, 159810, Note_on_c, 10, 50, 80
13, 159839, Note_on_c, 10, 50, 0
13, 159840, Note_on_c, 10, 50, 78
13, 159869, Note_on_c, 10, 50, 0
13, 159870, Note_on_c, 10, 50, 79
13, 159899, Note_on_c, 10, 50, 0
13, 159900, Note_on_c, 10, 50, 78
13, 159929, Note_on_c, 10, 50, 0
13, 159930, Note_on_c, 10, 50, 76
13, 159959, Note_on_c, 10, 50, 0
13, 159960, Note_on_c, 10, 50, 82
13, 159989, Note_on_c, 10, 50, 0
13, 159990, Note_on_c, 10, 50, 77
13, 160019, Note_on_c, 10, 50, 0
13, 160020, Note_on_c, 10, 50, 76
13, 160049, Note_on_c, 10, 50, 0
13, 160050, Note_on_c, 10, 50, 79
13, 160079, Note_on_c, 10, 50, 0
13, 160080, Note_on_c, 10, 50, 80
13, 160109, Note_on_c, 10, 50, 0
13, 160110, Note_on_c, 10, 50, 76
13, 160139, Note_on_c, 10, 50, 0
13, 160140, Note_on_c, 10, 50, 77
13, 160169, Note_on_c, 10, 50, 0
13, 160170, Note_on_c, 10, 50, 77
13, 160199, Note_on_c, 10, 50, 0
13, 160200, Note_on_c, 10, 50, 81
13, 160229, Note_on_c, 10, 50, 0
13, 160230, Note_on_c, 10, 50, 79
13, 160259, Note_on_c, 10, 50, 0
13, 160260, Note_on_c, 10, 50, 80
13, 160289, Note_on_c, 10, 50, 0
13, 160290, Note_on_c, 10, 50, 81
13, 160319, Note_on_c, 10, 50, 0
13, 160320, Note_on_c, 10, 50, 88
13, 160349, Note_on_c, 10, 50, 0
13, 160350, Note_on_c, 10, 50, 79
13, 160379, Note_on_c, 10, 50, 0
13, 160380, Note_on_c, 10, 50, 81
13, 160409, Note_on_c, 10, 50, 0
13, 160410, Note_on_c, 10, 50, 79
13, 160439, Note_on_c, 10, 50, 0
13, 160440, Note_on_c, 10, 50, 82
13, 160469, Note_on_c, 10, 50, 0
13, 160470, Note_on_c, 10, 50, 80
13, 160499, Note_on_c, 10, 50, 0
13, 160500, Note_on_c, 10, 50, 77
13, 160529, Note_on_c, 10, 50, 0
13, 160530, Note_on_c, 10, 50, 83
13, 160559, Note_on_c, 10, 50, 0
13, 160560, Note_on_c, 10, 50, 83
13, 160589, Note_on_c, 10, 50, 0
13, 160590, Note_on_c, 10, 50, 79
13, 160619, Note_on_c, 10, 50, 0
13, 160620, Note_on_c, 10, 50, 83
13, 160649, Note_on_c, 10, 50, 0
13, 160650, Note_on_c, 10, 50, 77
13, 160679, Note_on_c, 10, 50, 0
13, 160680, Note_on_c, 10, 50, 83
13, 160709, Note_on_c, 10, 50, 0
13, 160710, Note_on_c, 10, 50, 80
13, 160739, Note_on_c, 10, 50, 0
13, 160740, Note_on_c, 10, 50, 79
13, 160769, Note_on_c, 10, 50, 0
13, 160770, Note_on_c, 10, 50, 81
13, 160799, Note_on_c, 10, 50, 0
13, 160800, Note_on_c, 10, 50, 81
13, 160829, Note_on_c, 10, 50, 0
13, 160830, Note_on_c, 10, 50, 76
13, 160859, Note_on_c, 10, 50, 0
13, 160860, Note_on_c, 10, 50, 78
13, 160889, Note_on_c, 10, 50, 0
13, 160890, Note_on_c, 10, 50, 78
13, 160919, Note_on_c, 10, 50, 0
13, 160920, Note_on_c, 10, 50, 79
13, 160949, Note_on_c, 10, 50, 0
13, 160950, Note_on_c, 10, 50, 83
13, 160979, Note_on_c, 10, 50, 0
13, 160980, Note_on_c, 10, 50, 81
13, 161009, Note_on_c, 10, 50, 0
13, 161010, Note_on_c, 10, 50, 81
13, 161039, Note_on_c, 10, 50, 0
13, 161040, Note_on_c, 10, 50, 83
13, 161069, Note_on_c, 10, 50, 0
13, 161070, Note_on_c, 10, 50, 79
13, 161099, Note_on_c, 10, 50, 0
13, 161100, Note_on_c, 10, 50, 79
13, 161129, Note_on_c, 10, 50, 0
13, 161130, Note_on_c, 10, 50, 83
13, 161159, Note_on_c, 10, 50, 0
13, 161160, Note_on_c, 10, 50, 78
13, 161189, Note_on_c, 10, 50, 0
13, 161190, Note_on_c, 10, 50, 79
13, 161219, Note_on_c, 10, 50, 0
13, 161220, Note_on_c, 10, 50, 80
13, 161249, Note_on_c, 10, 50, 0
13, 161250, Note_on_c, 10, 50, 78
13, 161279, Note_on_c, 10, 50, 0
13, 161280, Note_on_c, 10, 50, 92
13, 161309, Note_on_c, 10, 50, 0
13, 161310, Note_on_c, 10, 50, 79
13, 161339, Note_on_c, 10, 50, 0
13, 161340, Note_on_c, 10, 50, 78
13, 161369, Note_on_c, 10, 50, 0
13, 161370, Note_on_c, 10, 50, 77
13, 161399, Note_on_c, 10, 50, 0
13, 161400, Note_on_c, 10, 50, 76
13, 161429, Note_on_c, 10, 50, 0
13, 161430, Note_on_c, 10, 50, 75
13, 161459, Note_on_c, 10, 50, 0
13, 161460, Note_on_c, 10, 50, 74
13, 161489, Note_on_c, 10, 50, 0
13, 161490, Note_on_c, 10, 50, 73
13, 161519, Note_on_c, 10, 50, 0
13, 161520, Note_on_c, 10, 50, 71
13, 161549, Note_on_c, 10, 50, 0
13, 161550, Note_on_c, 10, 50, 70
13, 161579, Note_on_c, 10, 50, 0
13, 161580, Note_on_c, 10, 50, 69
13, 161609, Note_on_c, 10, 50, 0
13, 161610, Note_on_c, 10, 50, 68
13, 161639, Note_on_c, 10, 50, 0
13, 161640, Note_on_c, 10, 50, 67
13, 161669, Note_on_c, 10, 50, 0
13, 161670, Note_on_c, 10, 50, 66
13, 161699, Note_on_c, 10, 50, 0
13, 161700, Note_on_c, 10, 50, 65
13, 161729, Note_on_c, 10, 50, 0
13, 161730, Note_on_c, 10, 50, 64
13, 161759, Note_on_c, 10, 50, 0
13, 161760, Note_on_c, 10, 50, 62
13, 161789, Note_on_c, 10, 50, 0
13, 161790, Note_on_c, 10, 50, 61
13, 161819, Note_on_c, 10, 50, 0
13, 161820, Note_on_c, 10, 50, 60
13, 161849, Note_on_c, 10, 50, 0
13, 161850, Note_on_c, 10, 50, 59
13, 161879, Note_on_c, 10, 50, 0
13, 161880, Note_on_c, 10, 50, 58
13, 161909, Note_on_c, 10, 50, 0
13, 161910, Note_on_c, 10, 50, 57
13, 161939, Note_on_c, 10, 50, 0
13, 161940, Note_on_c, 10, 50, 56
13, 161969, Note_on_c, 10, 50, 0
13, 161970, Note_on_c, 10, 50, 55
13, 161999, Note_on_c, 10, 50, 0
13, 162000, Note_on_c, 10, 50, 53
13, 162029, Note_on_c, 10, 50, 0
13, 162030, Note_on_c, 10, 50, 52
13, 162059, Note_on_c, 10, 50, 0
13, 162060, Note_on_c, 10, 50, 51
13, 162089, Note_on_c, 10, 50, 0
13, 162090, Note_on_c, 10, 50, 50
13, 162119, Note_on_c, 10, 50, 0
13, 162120, Note_on_c, 10, 50, 49
13, 162149, Note_on_c, 10, 50, 0
13, 162150, Note_on_c, 10, 50, 48
13, 162179, Note_on_c, 10, 50, 0
13, 162180, Note_on_c, 10, 50, 47
13, 162209, Note_on_c, 10, 50, 0
13, 162210, Note_on_c, 10, 50, 46
13, 162239, Note_on_c, 10, 50, 0
13, 162240, Note_on_c, 10, 45, 44
13, 162359, Note_on_c, 10, 45, 0
13, 162840, Note_on_c, 10, 45, 44
13, 162899, Note_on_c, 10, 45, 0
13, 162900, Note_on_c, 10, 45, 44
13, 162959, Note_on_c, 10, 45, 0
13, 162960, Note_on_c, 10, 45, 44
13, 163079, Note_on_c, 10, 45, 0
13, 163920, Note_on_c, 10, 45, 44
13, 163979, Note_on_c, 10, 45, 0
13, 163980, Note_on_c, 10, 45, 44
13, 164039, Note_on_c, 10, 45, 0
13, 164040, Note_on_c, 10, 45, 44
13, 164159, Note_on_c, 10, 45, 0
13, 164280, Note_on_c, 10, 45, 44
13, 164339, Note_on_c, 10, 45, 0
13, 164340, Note_on_c, 10, 45, 44
13, 164399, Note_on_c, 10, 45, 0
13, 164400, Note_on_c, 10, 45, 44
13, 164519, Note_on_c, 10, 45, 0
13, 164520, Note_on_c, 10, 45, 44
13, 164579, Note_on_c, 10, 45, 0
13, 164580, Note_on_c, 10, 45, 44
13, 164639, Note_on_c, 10, 45, 0
13, 164640, Note_on_c, 10, 50, 44
13, 164759, Note_on_c, 10, 50, 0
13, 167160, Note_on_c, 10, 50, 44
13, 167279, Note_on_c, 10, 50, 0
13, 167640, Note_on_c, 10, 50, 44
13, 167759, Note_on_c, 10, 50, 0
13, 168120, Note_on_c, 10, 50, 44
13, 168239, Note_on_c, 10, 50, 0
13, 168600, Note_on_c, 10, 50, 44
13, 168719, Note_on_c, 10, 50, 0
13, 169080, Note_on_c, 10, 45, 44
13, 169199, Note_on_c, 10, 45, 0
13, 169560, Note_on_c, 10, 45, 44
13, 169679, Note_on_c, 10, 45, 0
13, 171840, Note_on_c, 10, 50, 44
13, 172079, Note_on_c, 10, 50, 0
13, 172320, Note_on_c, 10, 50, 62
13, 172439, Note_on_c, 10, 50, 0
13, 172440, Note_on_c, 10, 50, 66
13, 172559, Note_on_c, 10, 50, 0
13, 172560, Note_on_c, 10, 50, 71
13, 172679, Note_on_c, 10, 50, 0
13, 172680, Note_on_c, 10, 50, 75
13, 172799, Note_on_c, 10, 50, 0
13, 172800, Note_on_c, 10, 50, 80
13, 172859, Note_on_c, 10, 50, 0
13, 172860, Note_on_c, 10, 50, 80
13, 172919, Note_on_c, 10, 50, 0
13, 172920, Note_on_c, 10, 50, 80
13, 172979, Note_on_c, 10, 50, 0
13, 172980, Note_on_c, 10, 50, 80
13, 173039, Note_on_c, 10, 50, 0
13, 173040, Note_on_c, 10, 50, 80
13, 173099, Note_on_c, 10, 50, 0
13, 173100, Note_on_c, 10, 50, 80
13, 173159, Note_on_c, 10, 50, 0
13, 173160, Note_on_c, 10, 50, 80
13, 173219, Note_on_c, 10, 50, 0
13, 173220, Note_on_c, 10, 50, 80
13, 173279, Note_on_c, 10, 50, 0
13, 173280, Note_on_c, 10, 45, 80
13, 173399, Note_on_c, 10, 45, 0
13, 173400, Note_on_c, 10, 45, 92
13, 173519, Note_on_c, 10, 45, 0
13, 173640, Note_on_c, 10, 45, 92
13, 173759, Note_on_c, 10, 45, 0
13, 173880, Note_on_c, 10, 50, 46
13, 173999, Note_on_c, 10, 50, 0
13, 174120, Note_on_c, 10, 50, 50
13, 174239, Note_on_c, 10, 50, 0
13, 174360, Note_on_c, 10, 50, 55
13, 174479, Note_on_c, 10, 50, 0
13, 174600, Note_on_c, 10, 50, 59
13, 174719, Note_on_c, 10, 50, 0
13, 176160, Note_on_c, 10, 45, 80
13, 176211, Note_on_c, 10, 45, 0
13, 176220, Note_on_c, 10, 45, 80
13, 176271, Note_on_c, 10, 45, 0
13, 176280, Note_on_c, 10, 45, 80
13, 176331, Note_on_c, 10, 45, 0
13, 176340, Note_on_c, 10, 45, 80
13, 176391, Note_on_c, 10, 45, 0
13, 176400, Note_on_c, 10, 45, 80
13, 176451, Note_on_c, 10, 45, 0
13, 176460, Note_on_c, 10, 45, 80
13, 176511, Note_on_c, 10, 45, 0
13, 176520, Note_on_c, 10, 45, 80
13, 176571, Note_on_c, 10, 45, 0
13, 176580, Note_on_c, 10, 45, 80
13, 176631, Note_on_c, 10, 45, 0
13, 176640, Note_on_c, 10, 45, 92
13, 176729, Note_on_c, 10, 45, 0
13, 176760, Note_on_c, 10, 50, 92
13, 176841, Note_on_c, 10, 50, 0
13, 176850, Note_on_c, 10, 50, 92
13, 176871, Note_on_c, 10, 50, 0
13, 176880, Note_on_c, 10, 50, 92
13, 176999, Note_on_c, 10, 50, 0
13, 177120, Note_on_c, 10, 50, 92
13, 177209, Note_on_c, 10, 50, 0
13, 177240, Note_on_c, 10, 50, 92
13, 177321, Note_on_c, 10, 50, 0
13, 177330, Note_on_c, 10, 50, 92
13, 177351, Note_on_c, 10, 50, 0
13, 177360, Note_on_c, 10, 50, 92
13, 177479, Note_on_c, 10, 50, 0
13, 178320, Note_on_c, 10, 45, 44
13, 178439, Note_on_c, 10, 45, 0
13, 178560, Note_on_c, 10, 50, 92
13, 178649, Note_on_c, 10, 50, 0
13, 178680, Note_on_c, 10, 50, 92
13, 178761, Note_on_c, 10, 50, 0
13, 178770, Note_on_c, 10, 50, 92
13, 178791, Note_on_c, 10, 50, 0
13, 178800, Note_on_c, 10, 50, 92
13, 178919, Note_on_c, 10, 50, 0
13, 185280, Note_on_c, 10, 45, 32
13, 185309, Note_on_c, 10, 45, 0
13, 185310, Note_on_c, 10, 45, 32
13, 185339, Note_on_c, 10, 45, 0
13, 185340, Note_on_c, 10, 45, 32
13, 185369, Note_on_c, 10, 45, 0
13, 185370, Note_on_c, 10, 45, 32
13, 185399, Note_on_c, 10, 45, 0
13, 185400, Note_on_c, 10, 45, 32
13, 185429, Note_on_c, 10, 45, 0
13, 185430, Note_on_c, 10, 45, 32
13, 185459, Note_on_c, 10, 45, 0
13, 185460, Note_on_c, 10, 45, 32
13, 185489, Note_on_c, 10, 45, 0
13, 185490, Note_on_c, 10, 45, 32
13, 185519, Note_on_c, 10, 45, 0
13, 185520, Note_on_c, 10, 45, 32
13, 185549, Note_on_c, 10, 45, 0
13, 185550, Note_on_c, 10, 45, 32
13, 185579, Note_on_c, 10, 45, 0
13, 185580, Note_on_c, 10, 45, 32
13, 185609, Note_on_c, 10, 45, 0
13, 185610, Note_on_c, 10, 45, 32
13, 185639, Note_on_c, 10, 45, 0
13, 185640, Note_on_c, 10, 45, 32
13, 185669, Note_on_c, 10, 45, 0
13, 185670, Note_on_c, 10, 45, 32
13, 185699, Note_on_c, 10, 45, 0
13, 185700, Note_on_c, 10, 45, 32
13, 185729, Note_on_c, 10, 45, 0
13, 185730, Note_on_c, 10, 45, 32
13, 185759, Note_on_c, 10, 45, 0
13, 185760, Note_on_c, 10, 45, 32
13, 185789, Note_on_c, 10, 45, 0
13, 185790, Note_on_c, 10, 45, 32
13, 185819, Note_on_c, 10, 45, 0
13, 185820, Note_on_c, 10, 45, 32
13, 185849, Note_on_c, 10, 45, 0
13, 185850, Note_on_c, 10, 45, 32
13, 185879, Note_on_c, 10, 45, 0
13, 185880, Note_on_c, 10, 45, 32
13, 185909, Note_on_c, 10, 45, 0
13, 185910, Note_on_c, 10, 45, 32
13, 185939, Note_on_c, 10, 45, 0
13, 185940, Note_on_c, 10, 45, 32
13, 185969, Note_on_c, 10, 45, 0
13, 185970, Note_on_c, 10, 45, 32
13, 185999, Note_on_c, 10, 45, 0
13, 186000, Note_on_c, 10, 45, 32
13, 186029, Note_on_c, 10, 45, 0
13, 186030, Note_on_c, 10, 45, 32
13, 186059, Note_on_c, 10, 45, 0
13, 186060, Note_on_c, 10, 45, 32
13, 186089, Note_on_c, 10, 45, 0
13, 186090, Note_on_c, 10, 45, 32
13, 186119, Note_on_c, 10, 45, 0
13, 186120, Note_on_c, 10, 45, 32
13, 186149, Note_on_c, 10, 45, 0
13, 186150, Note_on_c, 10, 45, 32
13, 186179, Note_on_c, 10, 45, 0
13, 186180, Note_on_c, 10, 45, 32
13, 186209, Note_on_c, 10, 45, 0
13, 186210, Note_on_c, 10, 45, 32
13, 186239, Note_on_c, 10, 45, 0
13, 186240, Note_on_c, 10, 50, 32
13, 186269, Note_on_c, 10, 50, 0
13, 186270, Note_on_c, 10, 50, 32
13, 186299, Note_on_c, 10, 50, 0
13, 186300, Note_on_c, 10, 50, 32
13, 186329, Note_on_c, 10, 50, 0
13, 186330, Note_on_c, 10, 50, 32
13, 186359, Note_on_c, 10, 50, 0
13, 186360, Note_on_c, 10, 50, 32
13, 186389, Note_on_c, 10, 50, 0
13, 186390, Note_on_c, 10, 50, 32
13, 186419, Note_on_c, 10, 50, 0
13, 186420, Note_on_c, 10, 50, 32
13, 186449, Note_on_c, 10, 50, 0
13, 186450, Note_on_c, 10, 50, 32
13, 186479, Note_on_c, 10, 50, 0
13, 186480, Note_on_c, 10, 50, 32
13, 186509, Note_on_c, 10, 50, 0
13, 186510, Note_on_c, 10, 50, 32
13, 186539, Note_on_c, 10, 50, 0
13, 186540, Note_on_c, 10, 50, 32
13, 186569, Note_on_c, 10, 50, 0
13, 186570, Note_on_c, 10, 50, 32
13, 186599, Note_on_c, 10, 50, 0
13, 186600, Note_on_c, 10, 50, 32
13, 186629, Note_on_c, 10, 50, 0
13, 186630, Note_on_c, 10, 50, 32
13, 186659, Note_on_c, 10, 50, 0
13, 186660, Note_on_c, 10, 50, 32
13, 186689, Note_on_c, 10, 50, 0
13, 186690, Note_on_c, 10, 50, 32
13, 186719, Note_on_c, 10, 50, 0
13, 186720, Note_on_c, 10, 50, 32
13, 186749, Note_on_c, 10, 50, 0
13, 186750, Note_on_c, 10, 50, 32
13, 186779, Note_on_c, 10, 50, 0
13, 186780, Note_on_c, 10, 50, 32
13, 186809, Note_on_c, 10, 50, 0
13, 186810, Note_on_c, 10, 50, 32
13, 186839, Note_on_c, 10, 50, 0
13, 186840, Note_on_c, 10, 50, 32
13, 186869, Note_on_c, 10, 50, 0
13, 186870, Note_on_c, 10, 50, 32
13, 186899, Note_on_c, 10, 50, 0
13, 186900, Note_on_c, 10, 50, 32
13, 186929, Note_on_c, 10, 50, 0
13, 186930, Note_on_c, 10, 50, 32
13, 186959, Note_on_c, 10, 50, 0
13, 186960, Note_on_c, 10, 50, 32
13, 186989, Note_on_c, 10, 50, 0
13, 186990, Note_on_c, 10, 50, 32
13, 187019, Note_on_c, 10, 50, 0
13, 187020, Note_on_c, 10, 50, 32
13, 187049, Note_on_c, 10, 50, 0
13, 187050, Note_on_c, 10, 50, 32
13, 187079, Note_on_c, 10, 50, 0
13, 187080, Note_on_c, 10, 50, 32
13, 187109, Note_on_c, 10, 50, 0
13, 187110, Note_on_c, 10, 50, 32
13, 187139, Note_on_c, 10, 50, 0
13, 187140, Note_on_c, 10, 50, 32
13, 187169, Note_on_c, 10, 50, 0
13, 187170, Note_on_c, 10, 50, 32
13, 187199, Note_on_c, 10, 50, 0
13, 187200, Note_on_c, 10, 45, 32
13, 187229, Note_on_c, 10, 45, 0
13, 187230, Note_on_c, 10, 45, 32
13, 187259, Note_on_c, 10, 45, 0
13, 187260, Note_on_c, 10, 45, 32
13, 187289, Note_on_c, 10, 45, 0
13, 187290, Note_on_c, 10, 45, 32
13, 187319, Note_on_c, 10, 45, 0
13, 187320, Note_on_c, 10, 45, 33
13, 187349, Note_on_c, 10, 45, 0
13, 187350, Note_on_c, 10, 45, 33
13, 187379, Note_on_c, 10, 45, 0
13, 187380, Note_on_c, 10, 45, 33
13, 187409, Note_on_c, 10, 45, 0
13, 187410, Note_on_c, 10, 45, 34
13, 187439, Note_on_c, 10, 45, 0
13, 187440, Note_on_c, 10, 45, 34
13, 187469, Note_on_c, 10, 45, 0
13, 187470, Note_on_c, 10, 45, 34
13, 187499, Note_on_c, 10, 45, 0
13, 187500, Note_on_c, 10, 45, 35
13, 187529, Note_on_c, 10, 45, 0
13, 187530, Note_on_c, 10, 45, 35
13, 187559, Note_on_c, 10, 45, 0
13, 187560, Note_on_c, 10, 45, 35
13, 187589, Note_on_c, 10, 45, 0
13, 187590, Note_on_c, 10, 45, 35
13, 187619, Note_on_c, 10, 45, 0
13, 187620, Note_on_c, 10, 45, 36
13, 187649, Note_on_c, 10, 45, 0
13, 187650, Note_on_c, 10, 45, 36
13, 187679, Note_on_c, 10, 45, 0
13, 187680, Note_on_c, 10, 45, 36
13, 187709, Note_on_c, 10, 45, 0
13, 187710, Note_on_c, 10, 45, 37
13, 187739, Note_on_c, 10, 45, 0
13, 187740, Note_on_c, 10, 45, 37
13, 187769, Note_on_c, 10, 45, 0
13, 187770, Note_on_c, 10, 45, 37
13, 187799, Note_on_c, 10, 45, 0
13, 187800, Note_on_c, 10, 45, 38
13, 187829, Note_on_c, 10, 45, 0
13, 187830, Note_on_c, 10, 45, 38
13, 187859, Note_on_c, 10, 45, 0
13, 187860, Note_on_c, 10, 45, 38
13, 187889, Note_on_c, 10, 45, 0
13, 187890, Note_on_c, 10, 45, 38
13, 187919, Note_on_c, 10, 45, 0
13, 187920, Note_on_c, 10, 45, 39
13, 187949, Note_on_c, 10, 45, 0
13, 187950, Note_on_c, 10, 45, 39
13, 187979, Note_on_c, 10, 45, 0
13, 187980, Note_on_c, 10, 45, 39
13, 188009, Note_on_c, 10, 45, 0
13, 188010, Note_on_c, 10, 45, 40
13, 188039, Note_on_c, 10, 45, 0
13, 188040, Note_on_c, 10, 45, 40
13, 188069, Note_on_c, 10, 45, 0
13, 188070, Note_on_c, 10, 45, 40
13, 188099, Note_on_c, 10, 45, 0
13, 188100, Note_on_c, 10, 45, 41
13, 188129, Note_on_c, 10, 45, 0
13, 188130, Note_on_c, 10, 45, 41
13, 188159, Note_on_c, 10, 45, 0
13, 188160, Note_on_c, 10, 50, 41
13, 188189, Note_on_c, 10, 50, 0
13, 188190, Note_on_c, 10, 50, 41
13, 188219, Note_on_c, 10, 50, 0
13, 188220, Note_on_c, 10, 50, 42
13, 188249, Note_on_c, 10, 50, 0
13, 188250, Note_on_c, 10, 50, 42
13, 188279, Note_on_c, 10, 50, 0
13, 188280, Note_on_c, 10, 50, 42
13, 188309, Note_on_c, 10, 50, 0
13, 188310, Note_on_c, 10, 50, 43
13, 188339, Note_on_c, 10, 50, 0
13, 188340, Note_on_c, 10, 50, 43
13, 188369, Note_on_c, 10, 50, 0
13, 188370, Note_on_c, 10, 50, 43
13, 188399, Note_on_c, 10, 50, 0
13, 188400, Note_on_c, 10, 50, 44
13, 188429, Note_on_c, 10, 50, 0
13, 188430, Note_on_c, 10, 50, 44
13, 188459, Note_on_c, 10, 50, 0
13, 188460, Note_on_c, 10, 50, 44
13, 188489, Note_on_c, 10, 50, 0
13, 188490, Note_on_c, 10, 50, 44
13, 188519, Note_on_c, 10, 50, 0
13, 188520, Note_on_c, 10, 50, 45
13, 188549, Note_on_c, 10, 50, 0
13, 188550, Note_on_c, 10, 50, 45
13, 188579, Note_on_c, 10, 50, 0
13, 188580, Note_on_c, 10, 50, 45
13, 188609, Note_on_c, 10, 50, 0
13, 188610, Note_on_c, 10, 50, 46
13, 188639, Note_on_c, 10, 50, 0
13, 188640, Note_on_c, 10, 50, 46
13, 188669, Note_on_c, 10, 50, 0
13, 188670, Note_on_c, 10, 50, 46
13, 188699, Note_on_c, 10, 50, 0
13, 188700, Note_on_c, 10, 50, 47
13, 188729, Note_on_c, 10, 50, 0
13, 188730, Note_on_c, 10, 50, 47
13, 188759, Note_on_c, 10, 50, 0
13, 188760, Note_on_c, 10, 50, 47
13, 188789, Note_on_c, 10, 50, 0
13, 188790, Note_on_c, 10, 50, 47
13, 188819, Note_on_c, 10, 50, 0
13, 188820, Note_on_c, 10, 50, 48
13, 188849, Note_on_c, 10, 50, 0
13, 188850, Note_on_c, 10, 50, 48
13, 188879, Note_on_c, 10, 50, 0
13, 188880, Note_on_c, 10, 50, 48
13, 188909, Note_on_c, 10, 50, 0
13, 188910, Note_on_c, 10, 50, 49
13, 188939, Note_on_c, 10, 50, 0
13, 188940, Note_on_c, 10, 50, 49
13, 188969, Note_on_c, 10, 50, 0
13, 188970, Note_on_c, 10, 50, 49
13, 188999, Note_on_c, 10, 50, 0
13, 189000, Note_on_c, 10, 50, 50
13, 189029, Note_on_c, 10, 50, 0
13, 189030, Note_on_c, 10, 50, 50
13, 189059, Note_on_c, 10, 50, 0
13, 189060, Note_on_c, 10, 50, 50
13, 189089, Note_on_c, 10, 50, 0
13, 189090, Note_on_c, 10, 50, 50
13, 189119, Note_on_c, 10, 50, 0
13, 189120, Note_on_c, 10, 45, 51
13, 189149, Note_on_c, 10, 45, 0
13, 189150, Note_on_c, 10, 45, 51
13, 189179, Note_on_c, 10, 45, 0
13, 189180, Note_on_c, 10, 45, 51
13, 189209, Note_on_c, 10, 45, 0
13, 189210, Note_on_c, 10, 45, 52
13, 189239, Note_on_c, 10, 45, 0
13, 189240, Note_on_c, 10, 45, 52
13, 189269, Note_on_c, 10, 45, 0
13, 189270, Note_on_c, 10, 45, 52
13, 189299, Note_on_c, 10, 45, 0
13, 189300, Note_on_c, 10, 45, 53
13, 189329, Note_on_c, 10, 45, 0
13, 189330, Note_on_c, 10, 45, 53
13, 189359, Note_on_c, 10, 45, 0
13, 189360, Note_on_c, 10, 45, 53
13, 189389, Note_on_c, 10, 45, 0
13, 189390, Note_on_c, 10, 45, 53
13, 189419, Note_on_c, 10, 45, 0
13, 189420, Note_on_c, 10, 45, 54
13, 189449, Note_on_c, 10, 45, 0
13, 189450, Note_on_c, 10, 45, 54
13, 189479, Note_on_c, 10, 45, 0
13, 189480, Note_on_c, 10, 45, 54
13, 189509, Note_on_c, 10, 45, 0
13, 189510, Note_on_c, 10, 45, 55
13, 189539, Note_on_c, 10, 45, 0
13, 189540, Note_on_c, 10, 45, 55
13, 189569, Note_on_c, 10, 45, 0
13, 189570, Note_on_c, 10, 45, 55
13, 189599, Note_on_c, 10, 45, 0
13, 189600, Note_on_c, 10, 50, 56
13, 189629, Note_on_c, 10, 50, 0
13, 189630, Note_on_c, 10, 50, 56
13, 189659, Note_on_c, 10, 50, 0
13, 189660, Note_on_c, 10, 50, 56
13, 189689, Note_on_c, 10, 50, 0
13, 189690, Note_on_c, 10, 50, 56
13, 189719, Note_on_c, 10, 50, 0
13, 189720, Note_on_c, 10, 50, 57
13, 189749, Note_on_c, 10, 50, 0
13, 189750, Note_on_c, 10, 50, 57
13, 189779, Note_on_c, 10, 50, 0
13, 189780, Note_on_c, 10, 50, 57
13, 189809, Note_on_c, 10, 50, 0
13, 189810, Note_on_c, 10, 50, 58
13, 189839, Note_on_c, 10, 50, 0
13, 189840, Note_on_c, 10, 50, 58
13, 189869, Note_on_c, 10, 50, 0
13, 189870, Note_on_c, 10, 50, 58
13, 189899, Note_on_c, 10, 50, 0
13, 189900, Note_on_c, 10, 50, 59
13, 189929, Note_on_c, 10, 50, 0
13, 189930, Note_on_c, 10, 50, 59
13, 189959, Note_on_c, 10, 50, 0
13, 189960, Note_on_c, 10, 50, 59
13, 189989, Note_on_c, 10, 50, 0
13, 189990, Note_on_c, 10, 50, 59
13, 190019, Note_on_c, 10, 50, 0
13, 190020, Note_on_c, 10, 50, 60
13, 190049, Note_on_c, 10, 50, 0
13, 190050, Note_on_c, 10, 50, 60
13, 190079, Note_on_c, 10, 50, 0
13, 190080, Note_on_c, 10, 45, 60
13, 190109, Note_on_c, 10, 45, 0
13, 190110, Note_on_c, 10, 45, 61
13, 190139, Note_on_c, 10, 45, 0
13, 190140, Note_on_c, 10, 45, 61
13, 190169, Note_on_c, 10, 45, 0
13, 190170, Note_on_c, 10, 45, 61
13, 190199, Note_on_c, 10, 45, 0
13, 190200, Note_on_c, 10, 45, 62
13, 190229, Note_on_c, 10, 45, 0
13, 190230, Note_on_c, 10, 45, 62
13, 190259, Note_on_c, 10, 45, 0
13, 190260, Note_on_c, 10, 45, 62
13, 190289, Note_on_c, 10, 45, 0
13, 190290, Note_on_c, 10, 45, 62
13, 190319, Note_on_c, 10, 45, 0
13, 190320, Note_on_c, 10, 45, 63
13, 190349, Note_on_c, 10, 45, 0
13, 190350, Note_on_c, 10, 45, 63
13, 190379, Note_on_c, 10, 45, 0
13, 190380, Note_on_c, 10, 45, 63
13, 190409, Note_on_c, 10, 45, 0
13, 190410, Note_on_c, 10, 45, 64
13, 190439, Note_on_c, 10, 45, 0
13, 190440, Note_on_c, 10, 45, 64
13, 190469, Note_on_c, 10, 45, 0
13, 190470, Note_on_c, 10, 45, 64
13, 190499, Note_on_c, 10, 45, 0
13, 190500, Note_on_c, 10, 45, 65
13, 190529, Note_on_c, 10, 45, 0
13, 190530, Note_on_c, 10, 45, 65
13, 190559, Note_on_c, 10, 45, 0
13, 190560, Note_on_c, 10, 50, 65
13, 190589, Note_on_c, 10, 50, 0
13, 190590, Note_on_c, 10, 50, 65
13, 190619, Note_on_c, 10, 50, 0
13, 190620, Note_on_c, 10, 50, 66
13, 190649, Note_on_c, 10, 50, 0
13, 190650, Note_on_c, 10, 50, 66
13, 190679, Note_on_c, 10, 50, 0
13, 190680, Note_on_c, 10, 50, 66
13, 190709, Note_on_c, 10, 50, 0
13, 190710, Note_on_c, 10, 50, 67
13, 190739, Note_on_c, 10, 50, 0
13, 190740, Note_on_c, 10, 50, 67
13, 190769, Note_on_c, 10, 50, 0
13, 190770, Note_on_c, 10, 50, 67
13, 190799, Note_on_c, 10, 50, 0
13, 190800, Note_on_c, 10, 50, 68
13, 190829, Note_on_c, 10, 50, 0
13, 190830, Note_on_c, 10, 50, 68
13, 190859, Note_on_c, 10, 50, 0
13, 190860, Note_on_c, 10, 50, 68
13, 190889, Note_on_c, 10, 50, 0
13, 190890, Note_on_c, 10, 50, 68
13, 190919, Note_on_c, 10, 50, 0
13, 190920, Note_on_c, 10, 50, 69
13, 190949, Note_on_c, 10, 50, 0
13, 190950, Note_on_c, 10, 50, 69
13, 190979, Note_on_c, 10, 50, 0
13, 190980, Note_on_c, 10, 50, 69
13, 191009, Note_on_c, 10, 50, 0
13, 191010, Note_on_c, 10, 50, 70
13, 191039, Note_on_c, 10, 50, 0
13, 191040, Note_on_c, 10, 45, 70
13, 191069, Note_on_c, 10, 45, 0
13, 191070, Note_on_c, 10, 45, 70
13, 191099, Note_on_c, 10, 45, 0
13, 191100, Note_on_c, 10, 45, 71
13, 191129, Note_on_c, 10, 45, 0
13, 191130, Note_on_c, 10, 45, 71
13, 191159, Note_on_c, 10, 45, 0
13, 191160, Note_on_c, 10, 45, 71
13, 191189, Note_on_c, 10, 45, 0
13, 191190, Note_on_c, 10, 45, 71
13, 191219, Note_on_c, 10, 45, 0
13, 191220, Note_on_c, 10, 45, 72
13, 191249, Note_on_c, 10, 45, 0
13, 191250, Note_on_c, 10, 45, 72
13, 191279, Note_on_c, 10, 45, 0
13, 191280, Note_on_c, 10, 45, 72
13, 191309, Note_on_c, 10, 45, 0
13, 191310, Note_on_c, 10, 45, 73
13, 191339, Note_on_c, 10, 45, 0
13, 191340, Note_on_c, 10, 45, 73
13, 191369, Note_on_c, 10, 45, 0
13, 191370, Note_on_c, 10, 45, 73
13, 191399, Note_on_c, 10, 45, 0
13, 191400, Note_on_c, 10, 45, 74
13, 191429, Note_on_c, 10, 45, 0
13, 191430, Note_on_c, 10, 45, 74
13, 191459, Note_on_c, 10, 45, 0
13, 191460, Note_on_c, 10, 45, 74
13, 191489, Note_on_c, 10, 45, 0
13, 191490, Note_on_c, 10, 45, 74
13, 191519, Note_on_c, 10, 45, 0
13, 191520, Note_on_c, 10, 45, 75
13, 191549, Note_on_c, 10, 45, 0
13, 191550, Note_on_c, 10, 45, 75
13, 191579, Note_on_c, 10, 45, 0
13, 191580, Note_on_c, 10, 45, 75
13, 191609, Note_on_c, 10, 45, 0
13, 191610, Note_on_c, 10, 45, 76
13, 191639, Note_on_c, 10, 45, 0
13, 191640, Note_on_c, 10, 45, 76
13, 191669, Note_on_c, 10, 45, 0
13, 191670, Note_on_c, 10, 45, 76
13, 191699, Note_on_c, 10, 45, 0
13, 191700, Note_on_c, 10, 45, 77
13, 191729, Note_on_c, 10, 45, 0
13, 191730, Note_on_c, 10, 45, 77
13, 191759, Note_on_c, 10, 45, 0
13, 191760, Note_on_c, 10, 45, 77
13, 191789, Note_on_c, 10, 45, 0
13, 191790, Note_on_c, 10, 45, 77
13, 191819, Note_on_c, 10, 45, 0
13, 191820, Note_on_c, 10, 45, 78
13, 191849, Note_on_c, 10, 45, 0
13, 191850, Note_on_c, 10, 45, 78
13, 191879, Note_on_c, 10, 45, 0
13, 191880, Note_on_c, 10, 45, 78
13, 191909, Note_on_c, 10, 45, 0
13, 191910, Note_on_c, 10, 45, 79
13, 191939, Note_on_c, 10, 45, 0
13, 191940, Note_on_c, 10, 45, 79
13, 191969, Note_on_c, 10, 45, 0
13, 191970, Note_on_c, 10, 45, 79
13, 191999, Note_on_c, 10, 45, 0
13, 192000, Note_on_c, 10, 45, 80
13, 192029, Note_on_c, 10, 45, 0
13, 192030, Note_on_c, 10, 45, 80
13, 192059, Note_on_c, 10, 45, 0
13, 192060, Note_on_c, 10, 45, 80
13, 192089, Note_on_c, 10, 45, 0
13, 192090, Note_on_c, 10, 45, 80
13, 192119, Note_on_c, 10, 45, 0
13, 192120, Note_on_c, 10, 45, 80
13, 192239, Note_on_c, 10, 45, 0
13, 192360, Note_on_c, 10, 45, 80
13, 192479, Note_on_c, 10, 45, 0
13, 192480, Note_on_c, 10, 45, 80
13, 192509, Note_on_c, 10, 45, 0
13, 192510, Note_on_c, 10, 45, 80
13, 192539, Note_on_c, 10, 45, 0
13, 192540, Note_on_c, 10, 45, 80
13, 192569, Note_on_c, 10, 45, 0
13, 192570, Note_on_c, 10, 45, 80
13, 192599, Note_on_c, 10, 45, 0
13, 192600, Note_on_c, 10, 50, 80
13, 192719, Note_on_c, 10, 50, 0
13, 192840, Note_on_c, 10, 50, 80
13, 192959, Note_on_c, 10, 50, 0
13, 192960, Note_on_c, 10, 50, 80
13, 192989, Note_on_c, 10, 50, 0
13, 192990, Note_on_c, 10, 50, 80
13, 193019, Note_on_c, 10, 50, 0
13, 193020, Note_on_c, 10, 50, 80
13, 193049, Note_on_c, 10, 50, 0
13, 193050, Note_on_c, 10, 50, 80
13, 193079, Note_on_c, 10, 50, 0
13, 193080, Note_on_c, 10, 50, 80
13, 193199, Note_on_c, 10, 50, 0
13, 193320, Note_on_c, 10, 50, 80
13, 193439, Note_on_c, 10, 50, 0
13, 193440, Note_on_c, 10, 50, 80
13, 193469, Note_on_c, 10, 50, 0
13, 193470, Note_on_c, 10, 50, 80
13, 193499, Note_on_c, 10, 50, 0
13, 193500, Note_on_c, 10, 50, 80
13, 193529, Note_on_c, 10, 50, 0
13, 193530, Note_on_c, 10, 50, 80
13, 193559, Note_on_c, 10, 50, 0
13, 193560, Note_on_c, 10, 50, 80
13, 193679, Note_on_c, 10, 50, 0
13, 193800, Note_on_c, 10, 50, 80
13, 193919, Note_on_c, 10, 50, 0
13, 193920, Note_on_c, 10, 50, 80
13, 193949, Note_on_c, 10, 50, 0
13, 193950, Note_on_c, 10, 50, 80
13, 193979, Note_on_c, 10, 50, 0
13, 193980, Note_on_c, 10, 50, 80
13, 194009, Note_on_c, 10, 50, 0
13, 194010, Note_on_c, 10, 50, 80
13, 194039, Note_on_c, 10, 50, 0
13, 194040, Note_on_c, 10, 50, 80
13, 194159, Note_on_c, 10, 50, 0
13, 194280, Note_on_c, 10, 50, 80
13, 194399, Note_on_c, 10, 50, 0
13, 194520, Note_on_c, 10, 45, 80
13, 194549, Note_on_c, 10, 45, 0
13, 194550, Note_on_c, 10, 45, 80
13, 194579, Note_on_c, 10, 45, 0
13, 194580, Note_on_c, 10, 45, 80
13, 194609, Note_on_c, 10, 45, 0
13, 194610, Note_on_c, 10, 45, 80
13, 194639, Note_on_c, 10, 45, 0
13, 194640, Note_on_c, 10, 45, 80
13, 194669, Note_on_c, 10, 45, 0
13, 194670, Note_on_c, 10, 45, 80
13, 194699, Note_on_c, 10, 45, 0
13, 194700, Note_on_c, 10, 45, 80
13, 194729, Note_on_c, 10, 45, 0
13, 194730, Note_on_c, 10, 45, 80
13, 194759, Note_on_c, 10, 45, 0
13, 194760, Note_on_c, 10, 45, 80
13, 194789, Note_on_c, 10, 45, 0
13, 194790, Note_on_c, 10, 45, 80
13, 194819, Note_on_c, 10, 45, 0
13, 194820, Note_on_c, 10, 45, 80
13, 194849, Note_on_c, 10, 45, 0
13, 194850, Note_on_c, 10, 45, 80
13, 194879, Note_on_c, 10, 45, 0
13, 194880, Note_on_c, 10, 50, 92
13, 194999, Note_on_c, 10, 50, 0
13, 195000, Note_on_c, 10, 50, 44
13, 195119, Note_on_c, 10, 50, 0
13, 195720, Note_on_c, 10, 50, 92
13, 195809, Note_on_c, 10, 50, 0
13, 195810, Note_on_c, 10, 50, 92
13, 195839, Note_on_c, 10, 50, 0
13, 195840, Note_on_c, 10, 50, 92
13, 195959, Note_on_c, 10, 50, 0
13, 195960, Note_on_c, 10, 50, 44
13, 196079, Note_on_c, 10, 50, 0
13, 196680, Note_on_c, 10, 50, 92
13, 196769, Note_on_c, 10, 50, 0
13, 196770, Note_on_c, 10, 50, 92
13, 196799, Note_on_c, 10, 50, 0
13, 196800, Note_on_c, 10, 50, 92
13, 196919, Note_on_c, 10, 50, 0
13, 196920, Note_on_c, 10, 50, 44
13, 197039, Note_on_c, 10, 50, 0
13, 197640, Note_on_c, 10, 50, 92
13, 197729, Note_on_c, 10, 50, 0
13, 197730, Note_on_c, 10, 50, 92
13, 197759, Note_on_c, 10, 50, 0
13, 197760, Note_on_c, 10, 50, 92
13, 197879, Note_on_c, 10, 50, 0
13, 197880, Note_on_c, 10, 50, 44
13, 197999, Note_on_c, 10, 50, 0
13, 199920, Note_on_c, 10, 45, 80
13, 200039, Note_on_c, 10, 45, 0
13, 200040, Note_on_c, 10, 45, 80
13, 200159, Note_on_c, 10, 45, 0
13, 200400, Note_on_c, 10, 45, 92
13, 200519, Note_on_c, 10, 45, 0
13, 200520, Note_on_c, 10, 45, 92
13, 200639, Note_on_c, 10, 45, 0
13, 200640, Note_on_c, 10, 50, 92
13, 200879, Note_on_c, 10, 50, 0
13, 201000, Note_on_c, 10, 50, 92
13, 201089, Note_on_c, 10, 50, 0
13, 201090, Note_on_c, 10, 50, 92
13, 201119, Note_on_c, 10, 50, 0
13, 201120, Note_on_c, 10, 50, 104
13, 201479, Note_on_c, 10, 50, 0
13, 201480, Note_on_c, 10, 50, 92
13, 201569, Note_on_c, 10, 50, 0
13, 201570, Note_on_c, 10, 50, 92
13, 201599, Note_on_c, 10, 50, 0
13, 201600, Note_on_c, 10, 50, 104
13, 201959, Note_on_c, 10, 50, 0
13, 201960, Note_on_c, 10, 50, 92
13, 202049, Note_on_c, 10, 50, 0
13, 202050, Note_on_c, 10, 50, 92
13, 202079, Note_on_c, 10, 50, 0
13, 202080, Note_on_c, 10, 50, 92
13, 202199, Note_on_c, 10, 50, 0
13, 202200, Note_on_c, 10, 50, 92
13, 202289, Note_on_c, 10, 50, 0
13, 202290, Note_on_c, 10, 50, 92
13, 202319, Note_on_c, 10, 50, 0
13, 202320, Note_on_c, 10, 50, 92
13, 202439, Note_on_c, 10, 50, 0
13, 202440, Note_on_c, 10, 50, 92
13, 202529, Note_on_c, 10, 50, 0
13, 202530, Note_on_c, 10, 50, 92
13, 202559, Note_on_c, 10, 50, 0
13, 202560, Note_on_c, 10, 50, 80
13, 202679, Note_on_c, 10, 50, 0
13, 202680, Note_on_c, 10, 50, 80
13, 202769, Note_on_c, 10, 50, 0
13, 202770, Note_on_c, 10, 50, 80
13, 202799, Note_on_c, 10, 50, 0
13, 202800, Note_on_c, 10, 50, 80
13, 202919, Note_on_c, 10, 50, 0
13, 202920, Note_on_c, 10, 50, 80
13, 203009, Note_on_c, 10, 50, 0
13, 203010, Note_on_c, 10, 50, 80
13, 203039, Note_on_c, 10, 50, 0
13, 203040, Note_on_c, 10, 50, 80
13, 203159, Note_on_c, 10, 50, 0
13, 203160, Note_on_c, 10, 50, 80
13, 203249, Note_on_c, 10, 50, 0
13, 203250, Note_on_c, 10, 50, 80
13, 203279, Note_on_c, 10, 50, 0
13, 203280, Note_on_c, 10, 50, 80
13, 203399, Note_on_c, 10, 50, 0
13, 203400, Note_on_c, 10, 50, 80
13, 203489, Note_on_c, 10, 50, 0
13, 203490, Note_on_c, 10, 50, 80
13, 203519, Note_on_c, 10, 50, 0
13, 203520, Note_on_c, 10, 50, 80
13, 203639, Note_on_c, 10, 50, 0
13, 203640, Note_on_c, 10, 50, 80
13, 203729, Note_on_c, 10, 50, 0
13, 203730, Note_on_c, 10, 50, 80
13, 203759, Note_on_c, 10, 50, 0
13, 203760, Note_on_c, 10, 50, 80
13, 203879, Note_on_c, 10, 50, 0
13, 203880, Note_on_c, 10, 50, 80
13, 203969, Note_on_c, 10, 50, 0
13, 203970, Note_on_c, 10, 50, 80
13, 203999, Note_on_c, 10, 50, 0
13, 204000, Note_on_c, 10, 50, 80
13, 204119, Note_on_c, 10, 50, 0
13, 204120, Note_on_c, 10, 50, 80
13, 204209, Note_on_c, 10, 50, 0
13, 204210, Note_on_c, 10, 50, 80
13, 204239, Note_on_c, 10, 50, 0
13, 204240, Note_on_c, 10, 50, 80
13, 204359, Note_on_c, 10, 50, 0
13, 204360, Note_on_c, 10, 50, 80
13, 204449, Note_on_c, 10, 50, 0
13, 204450, Note_on_c, 10, 50, 53
13, 204479, Note_on_c, 10, 50, 0
13, 204480, Note_on_c, 10, 50, 44
13, 204599, Note_on_c, 10, 50, 0
13, 216960, Note_on_c, 10, 45, 92
13, 216989, Note_on_c, 10, 45, 0
13, 216990, Note_on_c, 10, 45, 92
13, 217019, Note_on_c, 10, 45, 0
13, 217020, Note_on_c, 10, 45, 92
13, 217049, Note_on_c, 10, 45, 0
13, 217050, Note_on_c, 10, 45, 92
13, 217079, Note_on_c, 10, 45, 0
13, 217080, Note_on_c, 10, 45, 92
13, 217109, Note_on_c, 10, 45, 0
13, 217110, Note_on_c, 10, 45, 92
13, 217139, Note_on_c, 10, 45, 0
13, 217140, Note_on_c, 10, 45, 92
13, 217169, Note_on_c, 10, 45, 0
13, 217170, Note_on_c, 10, 45, 92
13, 217199, Note_on_c, 10, 45, 0
13, 217200, Note_on_c, 10, 45, 92
13, 217229, Note_on_c, 10, 45, 0
13, 217230, Note_on_c, 10, 45, 92
13, 217259, Note_on_c, 10, 45, 0
13, 217260, Note_on_c, 10, 45, 92
13, 217289, Note_on_c, 10, 45, 0
13, 217290, Note_on_c, 10, 45, 92
13, 217319, Note_on_c, 10, 45, 0
13, 217320, Note_on_c, 10, 45, 92
13, 217349, Note_on_c, 10, 45, 0
13, 217350, Note_on_c, 10, 45, 92
13, 217379, Note_on_c, 10, 45, 0
13, 217380, Note_on_c, 10, 45, 92
13, 217409, Note_on_c, 10, 45, 0
13, 217410, Note_on_c, 10, 45, 92
13, 217439, Note_on_c, 10, 45, 0
13, 217440, Note_on_c, 10, 45, 92
13, 217469, Note_on_c, 10, 45, 0
13, 217470, Note_on_c, 10, 45, 92
13, 217499, Note_on_c, 10, 45, 0
13, 217500, Note_on_c, 10, 45, 92
13, 217529, Note_on_c, 10, 45, 0
13, 217530, Note_on_c, 10, 45, 92
13, 217559, Note_on_c, 10, 45, 0
13, 217560, Note_on_c, 10, 45, 92
13, 217589, Note_on_c, 10, 45, 0
13, 217590, Note_on_c, 10, 45, 92
13, 217619, Note_on_c, 10, 45, 0
13, 217620, Note_on_c, 10, 45, 92
13, 217649, Note_on_c, 10, 45, 0
13, 217650, Note_on_c, 10, 45, 92
13, 217679, Note_on_c, 10, 45, 0
13, 217680, Note_on_c, 10, 45, 92
13, 217709, Note_on_c, 10, 45, 0
13, 217710, Note_on_c, 10, 45, 92
13, 217739, Note_on_c, 10, 45, 0
13, 217740, Note_on_c, 10, 45, 92
13, 217769, Note_on_c, 10, 45, 0
13, 217770, Note_on_c, 10, 45, 92
13, 217799, Note_on_c, 10, 45, 0
13, 217800, Note_on_c, 10, 45, 92
13, 217829, Note_on_c, 10, 45, 0
13, 217830, Note_on_c, 10, 45, 92
13, 217859, Note_on_c, 10, 45, 0
13, 217860, Note_on_c, 10, 45, 92
13, 217889, Note_on_c, 10, 45, 0
13, 217890, Note_on_c, 10, 45, 92
13, 217919, Note_on_c, 10, 45, 0
13, 217920, Note_on_c, 10, 50, 92
13, 217949, Note_on_c, 10, 50, 0
13, 217950, Note_on_c, 10, 50, 92
13, 217979, Note_on_c, 10, 50, 0
13, 217980, Note_on_c, 10, 50, 92
13, 218009, Note_on_c, 10, 50, 0
13, 218010, Note_on_c, 10, 50, 92
13, 218039, Note_on_c, 10, 50, 0
13, 218040, Note_on_c, 10, 50, 92
13, 218069, Note_on_c, 10, 50, 0
13, 218070, Note_on_c, 10, 50, 92
13, 218099, Note_on_c, 10, 50, 0
13, 218100, Note_on_c, 10, 50, 92
13, 218129, Note_on_c, 10, 50, 0
13, 218130, Note_on_c, 10, 50, 92
13, 218159, Note_on_c, 10, 50, 0
13, 218160, Note_on_c, 10, 50, 92
13, 218189, Note_on_c, 10, 50, 0
13, 218190, Note_on_c, 10, 50, 92
13, 218219, Note_on_c, 10, 50, 0
13, 218220, Note_on_c, 10, 50, 92
13, 218249, Note_on_c, 10, 50, 0
13, 218250, Note_on_c, 10, 50, 92
13, 218279, Note_on_c, 10, 50, 0
13, 218280, Note_on_c, 10, 50, 92
13, 218309, Note_on_c, 10, 50, 0
13, 218310, Note_on_c, 10, 50, 92
13, 218339, Note_on_c, 10, 50, 0
13, 218340, Note_on_c, 10, 50, 92
13, 218369, Note_on_c, 10, 50, 0
13, 218370, Note_on_c, 10, 50, 92
13, 218399, Note_on_c, 10, 50, 0
13, 218400, Note_on_c, 10, 50, 92
13, 218519, Note_on_c, 10, 50, 0
13, 218520, Note_on_c, 10, 50, 92
13, 218639, Note_on_c, 10, 50, 0
13, 218760, Note_on_c, 10, 45, 92
13, 218879, Note_on_c, 10, 45, 0
13, 218880, Note_on_c, 10, 45, 44
13, 218999, Note_on_c, 10, 45, 0
13, 219240, Note_on_c, 10, 45, 48
13, 219329, Note_on_c, 10, 45, 0
13, 219330, Note_on_c, 10, 45, 49
13, 219359, Note_on_c, 10, 45, 0
13, 219360, Note_on_c, 10, 45, 50
13, 219479, Note_on_c, 10, 45, 0
13, 219720, Note_on_c, 10, 45, 54
13, 219809, Note_on_c, 10, 45, 0
13, 219810, Note_on_c, 10, 45, 55
13, 219839, Note_on_c, 10, 45, 0
13, 219840, Note_on_c, 10, 50, 56
13, 219959, Note_on_c, 10, 50, 0
13, 220800, Note_on_c, 10, 50, 68
13, 220919, Note_on_c, 10, 50, 0
13, 221160, Note_on_c, 10, 50, 72
13, 221249, Note_on_c, 10, 50, 0
13, 221250, Note_on_c, 10, 50, 73
13, 221279, Note_on_c, 10, 50, 0
13, 221280, Note_on_c, 10, 50, 74
13, 221339, Note_on_c, 10, 50, 0
13, 221340, Note_on_c, 10, 50, 74
13, 221399, Note_on_c, 10, 50, 0
13, 221400, Note_on_c, 10, 50, 75
13, 221459, Note_on_c, 10, 50, 0
13, 221460, Note_on_c, 10, 50, 76
13, 221519, Note_on_c, 10, 50, 0
13, 221520, Note_on_c, 10, 50, 77
13, 221579, Note_on_c, 10, 50, 0
13, 221580, Note_on_c, 10, 50, 77
13, 221639, Note_on_c, 10, 50, 0
13, 221640, Note_on_c, 10, 50, 78
13, 221699, Note_on_c, 10, 50, 0
13, 221700, Note_on_c, 10, 50, 79
13, 221759, Note_on_c, 10, 50, 0
13, 221760, Note_on_c, 10, 50, 80
13, 221879, Note_on_c, 10, 50, 0
13, 221880, Note_on_c, 10, 50, 80
13, 221969, Note_on_c, 10, 50, 0
13, 221970, Note_on_c, 10, 50, 80
13, 221999, Note_on_c, 10, 50, 0
13, 222000, Note_on_c, 10, 50, 80
13, 222119, Note_on_c, 10, 50, 0
13, 222240, Note_on_c, 10, 50, 80
13, 222359, Note_on_c, 10, 50, 0
13, 222360, Note_on_c, 10, 50, 80
13, 222479, Note_on_c, 10, 50, 0
13, 222840, Note_on_c, 10, 45, 80
13, 222929, Note_on_c, 10, 45, 0
13, 222930, Note_on_c, 10, 45, 80
13, 222959, Note_on_c, 10, 45, 0
13, 222960, Note_on_c, 10, 45, 80
13, 223079, Note_on_c, 10, 45, 0
13, 223320, Note_on_c, 10, 45, 80
13, 223409, Note_on_c, 10, 45, 0
13, 223410, Note_on_c, 10, 45, 80
13, 223439, Note_on_c, 10, 45, 0
13, 223440, Note_on_c, 10, 45, 80
13, 223559, Note_on_c, 10, 45, 0
13, 223800, Note_on_c, 10, 50, 80
13, 223889, Note_on_c, 10, 50, 0
13, 223890, Note_on_c, 10, 50, 80
13, 223919, Note_on_c, 10, 50, 0
13, 223920, Note_on_c, 10, 50, 80
13, 224039, Note_on_c, 10, 50, 0
13, 224040, Note_on_c, 10, 50, 80
13, 224129, Note_on_c, 10, 50, 0
13, 224130, Note_on_c, 10, 50, 80
13, 224159, Note_on_c, 10, 50, 0
13, 224160, Note_on_c, 10, 50, 80
13, 224279, Note_on_c, 10, 50, 0
13, 224520, Note_on_c, 10, 45, 80
13, 224609, Note_on_c, 10, 45, 0
13, 224610, Note_on_c, 10, 45, 80
13, 224639, Note_on_c, 10, 45, 0
13, 224640, Note_on_c, 10, 45, 44
13, 224759, Note_on_c, 10, 45, 0
13, 225240, Note_on_c, 10, 45, 44
13, 225359, Note_on_c, 10, 45, 0
13, 225720, Note_on_c, 10, 45, 44
13, 225839, Note_on_c, 10, 45, 0
13, 226200, Note_on_c, 10, 45, 44
13, 226319, Note_on_c, 10, 45, 0
13, 226680, Note_on_c, 10, 45, 44
13, 226799, Note_on_c, 10, 45, 0
13, 227160, Note_on_c, 10, 45, 44
13, 227279, Note_on_c, 10, 45, 0
13, 227640, Note_on_c, 10, 45, 44
13, 227759, Note_on_c, 10, 45, 0
13, 228120, Note_on_c, 10, 45, 44
13, 228239, Note_on_c, 10, 45, 0
13, 228600, Note_on_c, 10, 45, 44
13, 228719, Note_on_c, 10, 45, 0
13, 228720, Note_on_c, 10, 45, 44
13, 228839, Note_on_c, 10, 45, 0
13, 229080, Note_on_c, 10, 45, 44
13, 229199, Note_on_c, 10, 45, 0
13, 229200, Note_on_c, 10, 45, 44
13, 229319, Note_on_c, 10, 45, 0
13, 229560, Note_on_c, 10, 45, 44
13, 229679, Note_on_c, 10, 45, 0
13, 229680, Note_on_c, 10, 45, 44
13, 229799, Note_on_c, 10, 45, 0
13, 230040, Note_on_c, 10, 45, 44
13, 230159, Note_on_c, 10, 45, 0
13, 230160, Note_on_c, 10, 45, 44
13, 230279, Note_on_c, 10, 45, 0
13, 230520, Note_on_c, 10, 45, 45
13, 230639, Note_on_c, 10, 45, 0
13, 230640, Note_on_c, 10, 45, 46
13, 230759, Note_on_c, 10, 45, 0
13, 230760, Note_on_c, 10, 45, 48
13, 230879, Note_on_c, 10, 45, 0
13, 230880, Note_on_c, 10, 45, 49
13, 230999, Note_on_c, 10, 45, 0
13, 231000, Note_on_c, 10, 45, 50
13, 231119, Note_on_c, 10, 45, 0
13, 231120, Note_on_c, 10, 45, 52
13, 231239, Note_on_c, 10, 45, 0
13, 231240, Note_on_c, 10, 45, 53
13, 231359, Note_on_c, 10, 45, 0
13, 231360, Note_on_c, 10, 45, 54
13, 231479, Note_on_c, 10, 45, 0
13, 231480, Note_on_c, 10, 45, 56
13, 231599, Note_on_c, 10, 45, 0
13, 231600, Note_on_c, 10, 45, 57
13, 231719, Note_on_c, 10, 45, 0
13, 231720, Note_on_c, 10, 45, 58
13, 231839, Note_on_c, 10, 45, 0
13, 231840, Note_on_c, 10, 45, 60
13, 231959, Note_on_c, 10, 45, 0
13, 231960, Note_on_c, 10, 50, 61
13, 232079, Note_on_c, 10, 50, 0
13, 232080, Note_on_c, 10, 50, 62
13, 232199, Note_on_c, 10, 50, 0
13, 232200, Note_on_c, 10, 50, 64
13, 232319, Note_on_c, 10, 50, 0
13, 232680, Note_on_c, 10, 45, 69
13, 232799, Note_on_c, 10, 45, 0
13, 232800, Note_on_c, 10, 45, 70
13, 232919, Note_on_c, 10, 45, 0
13, 232920, Note_on_c, 10, 45, 72
13, 233039, Note_on_c, 10, 45, 0
13, 233040, Note_on_c, 10, 50, 73
13, 233159, Note_on_c, 10, 50, 0
13, 233160, Note_on_c, 10, 50, 74
13, 233279, Note_on_c, 10, 50, 0
13, 233280, Note_on_c, 10, 50, 76
13, 233399, Note_on_c, 10, 50, 0
13, 233400, Note_on_c, 10, 50, 77
13, 233519, Note_on_c, 10, 50, 0
13, 233520, Note_on_c, 10, 50, 78
13, 233639, Note_on_c, 10, 50, 0
13, 234120, Note_on_c, 10, 50, 80
13, 234239, Note_on_c, 10, 50, 0
13, 234240, Note_on_c, 10, 50, 80
13, 234359, Note_on_c, 10, 50, 0
13, 234360, Note_on_c, 10, 50, 80
13, 234479, Note_on_c, 10, 50, 0
13, 234480, Note_on_c, 10, 50, 80
13, 234599, Note_on_c, 10, 50, 0
13, 234600, Note_on_c, 10, 50, 92
13, 234719, Note_on_c, 10, 50, 0
13, 234720, Note_on_c, 10, 50, 92
13, 234839, Note_on_c, 10, 50, 0
13, 234840, Note_on_c, 10, 50, 92
13, 234959, Note_on_c, 10, 50, 0
13, 234960, Note_on_c, 10, 50, 92
13, 235079, Note_on_c, 10, 50, 0
13, 235080, Note_on_c, 10, 50, 92
13, 235199, Note_on_c, 10, 50, 0
13, 235200, Note_on_c, 10, 50, 83
13, 235319, Note_on_c, 10, 50, 0
13, 235320, Note_on_c, 10, 50, 73
13, 235439, Note_on_c, 10, 50, 0
13, 235440, Note_on_c, 10, 50, 64
13, 235559, Note_on_c, 10, 50, 0
13, 236280, Note_on_c, 10, 50, 32
13, 236399, Note_on_c, 10, 50, 0
13, 236400, Note_on_c, 10, 50, 32
13, 236519, Note_on_c, 10, 50, 0
13, 236520, Note_on_c, 10, 50, 32
13, 236639, Note_on_c, 10, 50, 0
13, 236640, Note_on_c, 10, 50, 32
13, 236759, Note_on_c, 10, 50, 0
13, 236760, Note_on_c, 10, 50, 32
13, 236879, Note_on_c, 10, 50, 0
13, 236880, Note_on_c, 10, 50, 32
13, 236999, Note_on_c, 10, 50, 0
13, 237000, Note_on_c, 10, 45, 32
13, 237029, Note_on_c, 10, 45, 0
13, 237030, Note_on_c, 10, 45, 33
13, 237059, Note_on_c, 10, 45, 0
13, 237060, Note_on_c, 10, 45, 34
13, 237089, Note_on_c, 10, 45, 0
13, 237090, Note_on_c, 10, 45, 36
13, 237119, Note_on_c, 10, 45, 0
13, 237120, Note_on_c, 10, 45, 37
13, 237149, Note_on_c, 10, 45, 0
13, 237150, Note_on_c, 10, 45, 38
13, 237179, Note_on_c, 10, 45, 0
13, 237180, Note_on_c, 10, 45, 40
13, 237209, Note_on_c, 10, 45, 0
13, 237210, Note_on_c, 10, 45, 41
13, 237239, Note_on_c, 10, 45, 0
13, 237240, Note_on_c, 10, 45, 42
13, 237269, Note_on_c, 10, 45, 0
13, 237270, Note_on_c, 10, 45, 44
13, 237299, Note_on_c, 10, 45, 0
13, 237300, Note_on_c, 10, 45, 45
13, 237329, Note_on_c, 10, 45, 0
13, 237330, Note_on_c, 10, 45, 46
13, 237359, Note_on_c, 10, 45, 0
13, 237360, Note_on_c, 10, 45, 48
13, 237389, Note_on_c, 10, 45, 0
13, 237390, Note_on_c, 10, 45, 49
13, 237419, Note_on_c, 10, 45, 0
13, 237420, Note_on_c, 10, 45, 50
13, 237449, Note_on_c, 10, 45, 0
13, 237450, Note_on_c, 10, 45, 52
13, 237479, Note_on_c, 10, 45, 0
13, 237480, Note_on_c, 10, 45, 53
13, 237509, Note_on_c, 10, 45, 0
13, 237510, Note_on_c, 10, 45, 54
13, 237539, Note_on_c, 10, 45, 0
13, 237540, Note_on_c, 10, 45, 56
13, 237569, Note_on_c, 10, 45, 0
13, 237570, Note_on_c, 10, 45, 57
13, 237599, Note_on_c, 10, 45, 0
13, 237600, Note_on_c, 10, 45, 58
13, 237629, Note_on_c, 10, 45, 0
13, 237630, Note_on_c, 10, 45, 60
13, 237659, Note_on_c, 10, 45, 0
13, 237660, Note_on_c, 10, 45, 61
13, 237689, Note_on_c, 10, 45, 0
13, 237690, Note_on_c, 10, 45, 62
13, 237719, Note_on_c, 10, 45, 0
13, 237720, Note_on_c, 10, 45, 64
13, 237749, Note_on_c, 10, 45, 0
13, 237750, Note_on_c, 10, 45, 65
13, 237779, Note_on_c, 10, 45, 0
13, 237780, Note_on_c, 10, 45, 66
13, 237809, Note_on_c, 10, 45, 0
13, 237810, Note_on_c, 10, 45, 68
13, 237839, Note_on_c, 10, 45, 0
13, 237840, Note_on_c, 10, 45, 69
13, 237869, Note_on_c, 10, 45, 0
13, 237870, Note_on_c, 10, 45, 70
13, 237899, Note_on_c, 10, 45, 0
13, 237900, Note_on_c, 10, 45, 72
13, 237929, Note_on_c, 10, 45, 0
13, 237930, Note_on_c, 10, 45, 73
13, 237959, Note_on_c, 10, 45, 0
13, 237960, Note_on_c, 10, 45, 74
13, 237989, Note_on_c, 10, 45, 0
13, 237990, Note_on_c, 10, 45, 76
13, 238019, Note_on_c, 10, 45, 0
13, 238020, Note_on_c, 10, 45, 77
13, 238049, Note_on_c, 10, 45, 0
13, 238050, Note_on_c, 10, 45, 78
13, 238079, Note_on_c, 10, 45, 0
13, 238080, Note_on_c, 10, 50, 80
13, 238199, Note_on_c, 10, 50, 0
13, 238560, Note_on_c, 10, 50, 80
13, 238679, Note_on_c, 10, 50, 0
13, 238680, Note_on_c, 10, 50, 80
13, 238799, Note_on_c, 10, 50, 0
13, 238800, Note_on_c, 10, 45, 80
13, 238919, Note_on_c, 10, 45, 0
13, 238920, Note_on_c, 10, 45, 80
13, 239039, Note_on_c, 10, 45, 0
13, 239040, Note_on_c, 10, 45, 44
13, 239069, Note_on_c, 10, 45, 0
13, 239070, Note_on_c, 10, 45, 44
13, 239099, Note_on_c, 10, 45, 0
13, 239100, Note_on_c, 10, 45, 45
13, 239129, Note_on_c, 10, 45, 0
13, 239130, Note_on_c, 10, 45, 45
13, 239159, Note_on_c, 10, 45, 0
13, 239160, Note_on_c, 10, 45, 46
13, 239189, Note_on_c, 10, 45, 0
13, 239190, Note_on_c, 10, 45, 46
13, 239219, Note_on_c, 10, 45, 0
13, 239220, Note_on_c, 10, 45, 47
13, 239249, Note_on_c, 10, 45, 0
13, 239250, Note_on_c, 10, 45, 47
13, 239279, Note_on_c, 10, 45, 0
13, 239280, Note_on_c, 10, 45, 48
13, 239309, Note_on_c, 10, 45, 0
13, 239310, Note_on_c, 10, 45, 49
13, 239339, Note_on_c, 10, 45, 0
13, 239340, Note_on_c, 10, 45, 49
13, 239369, Note_on_c, 10, 45, 0
13, 239370, Note_on_c, 10, 45, 50
13, 239399, Note_on_c, 10, 45, 0
13, 239400, Note_on_c, 10, 45, 50
13, 239429, Note_on_c, 10, 45, 0
13, 239430, Note_on_c, 10, 45, 51
13, 239459, Note_on_c, 10, 45, 0
13, 239460, Note_on_c, 10, 45, 51
13, 239489, Note_on_c, 10, 45, 0
13, 239490, Note_on_c, 10, 45, 52
13, 239519, Note_on_c, 10, 45, 0
13, 239520, Note_on_c, 10, 45, 53
13, 239549, Note_on_c, 10, 45, 0
13, 239550, Note_on_c, 10, 45, 53
13, 239579, Note_on_c, 10, 45, 0
13, 239580, Note_on_c, 10, 45, 54
13, 239609, Note_on_c, 10, 45, 0
13, 239610, Note_on_c, 10, 45, 54
13, 239639, Note_on_c, 10, 45, 0
13, 239640, Note_on_c, 10, 45, 55
13, 239669, Note_on_c, 10, 45, 0
13, 239670, Note_on_c, 10, 45, 55
13, 239699, Note_on_c, 10, 45, 0
13, 239700, Note_on_c, 10, 45, 56
13, 239729, Note_on_c, 10, 45, 0
13, 239730, Note_on_c, 10, 45, 56
13, 239759, Note_on_c, 10, 45, 0
13, 239760, Note_on_c, 10, 45, 57
13, 239789, Note_on_c, 10, 45, 0
13, 239790, Note_on_c, 10, 45, 58
13, 239819, Note_on_c, 10, 45, 0
13, 239820, Note_on_c, 10, 45, 58
13, 239849, Note_on_c, 10, 45, 0
13, 239850, Note_on_c, 10, 45, 59
13, 239879, Note_on_c, 10, 45, 0
13, 239880, Note_on_c, 10, 45, 59
13, 239909, Note_on_c, 10, 45, 0
13, 239910, Note_on_c, 10, 45, 60
13, 239939, Note_on_c, 10, 45, 0
13, 239940, Note_on_c, 10, 45, 60
13, 239969, Note_on_c, 10, 45, 0
13, 239970, Note_on_c, 10, 45, 61
13, 239999, Note_on_c, 10, 45, 0
13, 240000, Note_on_c, 10, 45, 62
13, 240029, Note_on_c, 10, 45, 0
13, 240030, Note_on_c, 10, 45, 62
13, 240059, Note_on_c, 10, 45, 0
13, 240060, Note_on_c, 10, 45, 63
13, 240089, Note_on_c, 10, 45, 0
13, 240090, Note_on_c, 10, 45, 63
13, 240119, Note_on_c, 10, 45, 0
13, 240120, Note_on_c, 10, 45, 64
13, 240149, Note_on_c, 10, 45, 0
13, 240150, Note_on_c, 10, 45, 64
13, 240179, Note_on_c, 10, 45, 0
13, 240180, Note_on_c, 10, 45, 65
13, 240209, Note_on_c, 10, 45, 0
13, 240210, Note_on_c, 10, 45, 65
13, 240239, Note_on_c, 10, 45, 0
13, 240240, Note_on_c, 10, 45, 66
13, 240269, Note_on_c, 10, 45, 0
13, 240270, Note_on_c, 10, 45, 67
13, 240299, Note_on_c, 10, 45, 0
13, 240300, Note_on_c, 10, 45, 67
13, 240329, Note_on_c, 10, 45, 0
13, 240330, Note_on_c, 10, 45, 68
13, 240359, Note_on_c, 10, 45, 0
13, 240360, Note_on_c, 10, 45, 68
13, 240389, Note_on_c, 10, 45, 0
13, 240390, Note_on_c, 10, 45, 69
13, 240419, Note_on_c, 10, 45, 0
13, 240420, Note_on_c, 10, 45, 69
13, 240449, Note_on_c, 10, 45, 0
13, 240450, Note_on_c, 10, 45, 70
13, 240479, Note_on_c, 10, 45, 0
13, 240480, Note_on_c, 10, 45, 71
13, 240509, Note_on_c, 10, 45, 0
13, 240510, Note_on_c, 10, 45, 71
13, 240539, Note_on_c, 10, 45, 0
13, 240540, Note_on_c, 10, 45, 72
13, 240569, Note_on_c, 10, 45, 0
13, 240570, Note_on_c, 10, 45, 72
13, 240599, Note_on_c, 10, 45, 0
13, 240600, Note_on_c, 10, 45, 73
13, 240629, Note_on_c, 10, 45, 0
13, 240630, Note_on_c, 10, 45, 73
13, 240659, Note_on_c, 10, 45, 0
13, 240660, Note_on_c, 10, 45, 74
13, 240689, Note_on_c, 10, 45, 0
13, 240690, Note_on_c, 10, 45, 74
13, 240719, Note_on_c, 10, 45, 0
13, 240720, Note_on_c, 10, 45, 75
13, 240749, Note_on_c, 10, 45, 0
13, 240750, Note_on_c, 10, 45, 76
13, 240779, Note_on_c, 10, 45, 0
13, 240780, Note_on_c, 10, 45, 76
13, 240809, Note_on_c, 10, 45, 0
13, 240810, Note_on_c, 10, 45, 77
13, 240839, Note_on_c, 10, 45, 0
13, 240840, Note_on_c, 10, 45, 77
13, 240869, Note_on_c, 10, 45, 0
13, 240870, Note_on_c, 10, 45, 78
13, 240899, Note_on_c, 10, 45, 0
13, 240900, Note_on_c, 10, 45, 78
13, 240929, Note_on_c, 10, 45, 0
13, 240930, Note_on_c, 10, 45, 79
13, 240959, Note_on_c, 10, 45, 0
13, 240960, Note_on_c, 10, 50, 80
13, 240989, Note_on_c, 10, 50, 0
13, 240990, Note_on_c, 10, 50, 80
13, 241019, Note_on_c, 10, 50, 0
13, 241020, Note_on_c, 10, 50, 80
13, 241049, Note_on_c, 10, 50, 0
13, 241050, Note_on_c, 10, 50, 80
13, 241079, Note_on_c, 10, 50, 0
13, 241080, Note_on_c, 10, 50, 80
13, 241109, Note_on_c, 10, 50, 0
13, 241110, Note_on_c, 10, 50, 80
13, 241139, Note_on_c, 10, 50, 0
13, 241140, Note_on_c, 10, 50, 80
13, 241169, Note_on_c, 10, 50, 0
13, 241170, Note_on_c, 10, 50, 80
13, 241199, Note_on_c, 10, 50, 0
13, 241200, Note_on_c, 10, 50, 80
13, 241229, Note_on_c, 10, 50, 0
13, 241230, Note_on_c, 10, 50, 80
13, 241259, Note_on_c, 10, 50, 0
13, 241260, Note_on_c, 10, 50, 80
13, 241289, Note_on_c, 10, 50, 0
13, 241290, Note_on_c, 10, 50, 80
13, 241319, Note_on_c, 10, 50, 0
13, 241320, Note_on_c, 10, 50, 80
13, 241349, Note_on_c, 10, 50, 0
13, 241350, Note_on_c, 10, 50, 80
13, 241379, Note_on_c, 10, 50, 0
13, 241380, Note_on_c, 10, 50, 80
13, 241409, Note_on_c, 10, 50, 0
13, 241410, Note_on_c, 10, 50, 80
13, 241439, Note_on_c, 10, 50, 0
13, 241440, Note_on_c, 10, 50, 80
13, 241559, Note_on_c, 10, 50, 0
13, 241560, Note_on_c, 10, 50, 80
13, 241679, Note_on_c, 10, 50, 0
13, 241680, Note_on_c, 10, 50, 80
13, 241799, Note_on_c, 10, 50, 0
13, 241800, Note_on_c, 10, 45, 80
13, 241919, Note_on_c, 10, 45, 0
13, 246000, Note_on_c, 10, 50, 44
13, 246119, Note_on_c, 10, 50, 0
13, 246420, Note_on_c, 10, 50, 44
13, 246479, Note_on_c, 10, 50, 0
13, 246480, Note_on_c, 10, 50, 44
13, 246599, Note_on_c, 10, 50, 0
13, 246660, Note_on_c, 10, 50, 44
13, 246719, Note_on_c, 10, 50, 0
13, 246720, Note_on_c, 10, 50, 44
13, 246959, Note_on_c, 10, 50, 0
13, 247170, Note_on_c, 10, 50, 44
13, 247199, Note_on_c, 10, 50, 0
13, 247200, Note_on_c, 10, 45, 44
13, 247439, Note_on_c, 10, 45, 0
13, 247650, Note_on_c, 10, 45, 44
13, 247679, Note_on_c, 10, 45, 0
13, 247680, Note_on_c, 10, 50, 44
13, 247799, Note_on_c, 10, 50, 0
13, 247920, Note_on_c, 10, 50, 44
13, 248039, Note_on_c, 10, 50, 0
13, 248340, Note_on_c, 10, 50, 44
13, 248399, Note_on_c, 10, 50, 0
13, 248400, Note_on_c, 10, 50, 44
13, 248519, Note_on_c, 10, 50, 0
13, 248580, Note_on_c, 10, 50, 44
13, 248639, Note_on_c, 10, 50, 0
13, 248640, Note_on_c, 10, 50, 44
13, 248759, Note_on_c, 10, 50, 0
13, 249090, Note_on_c, 10, 50, 44
13, 249119, Note_on_c, 10, 50, 0
13, 249120, Note_on_c, 10, 45, 44
13, 249359, Note_on_c, 10, 45, 0
13, 249570, Note_on_c, 10, 45, 44
13, 249599, Note_on_c, 10, 45, 0
13, 249600, Note_on_c, 10, 50, 44
13, 249839, Note_on_c, 10, 50, 0
13, 250050, Note_on_c, 10, 50, 49
13, 250079, Note_on_c, 10, 50, 0
13, 250080, Note_on_c, 10, 45, 50
13, 250319, Note_on_c, 10, 45, 0
13, 250530, Note_on_c, 10, 45, 55
13, 250559, Note_on_c, 10, 45, 0
13, 250560, Note_on_c, 10, 50, 56
13, 250799, Note_on_c, 10, 50, 0
13, 251010, Note_on_c, 10, 50, 61
13, 251039, Note_on_c, 10, 50, 0
13, 251040, Note_on_c, 10, 50, 62
13, 251279, Note_on_c, 10, 50, 0
13, 251490, Note_on_c, 10, 45, 67
13, 251519, Note_on_c, 10, 45, 0
13, 251520, Note_on_c, 10, 50, 68
13, 251639, Note_on_c, 10, 50, 0
13, 251730, Note_on_c, 10, 50, 70
13, 251759, Note_on_c, 10, 50, 0
13, 251760, Note_on_c, 10, 50, 71
13, 251879, Note_on_c, 10, 50, 0
13, 251970, Note_on_c, 10, 50, 73
13, 251999, Note_on_c, 10, 50, 0
13, 252000, Note_on_c, 10, 50, 74
13, 252119, Note_on_c, 10, 50, 0
13, 252210, Note_on_c, 10, 50, 76
13, 252239, Note_on_c, 10, 50, 0
13, 252240, Note_on_c, 10, 45, 77
13, 252359, Note_on_c, 10, 45, 0
13, 252450, Note_on_c, 10, 45, 79
13, 252479, Note_on_c, 10, 45, 0
13, 252480, Note_on_c, 10, 50, 80
13, 252509, Note_on_c, 10, 50, 0
13, 252510, Note_on_c, 10, 50, 80
13, 252539, Note_on_c, 10, 50, 0
13, 252540, Note_on_c, 10, 50, 80
13, 252569, Note_on_c, 10, 50, 0
13, 252570, Note_on_c, 10, 50, 80
13, 252599, Note_on_c, 10, 50, 0
13, 252600, Note_on_c, 10, 45, 80
13, 252719, Note_on_c, 10, 45, 0
13, 252840, Note_on_c, 10, 45, 86
13, 252959, Note_on_c, 10, 45, 0
13, 252960, Note_on_c, 10, 50, 86
13, 252989, Note_on_c, 10, 50, 0
13, 252990, Note_on_c, 10, 50, 86
13, 253019, Note_on_c, 10, 50, 0
13, 253020, Note_on_c, 10, 50, 86
13, 253049, Note_on_c, 10, 50, 0
13, 253050, Note_on_c, 10, 50, 86
13, 253079, Note_on_c, 10, 50, 0
13, 253080, Note_on_c, 10, 50, 86
13, 253199, Note_on_c, 10, 50, 0
13, 253320, Note_on_c, 10, 45, 86
13, 253439, Note_on_c, 10, 45, 0
13, 253440, Note_on_c, 10, 50, 86
13, 253469, Note_on_c, 10, 50, 0
13, 253470, Note_on_c, 10, 50, 86
13, 253499, Note_on_c, 10, 50, 0
13, 253500, Note_on_c, 10, 50, 86
13, 253529, Note_on_c, 10, 50, 0
13, 253530, Note_on_c, 10, 50, 86
13, 253559, Note_on_c, 10, 50, 0
13, 253560, Note_on_c, 10, 45, 86
13, 253679, Note_on_c, 10, 45, 0
13, 253800, Note_on_c, 10, 45, 86
13, 253919, Note_on_c, 10, 45, 0
13, 253920, Note_on_c, 10, 50, 86
13, 253949, Note_on_c, 10, 50, 0
13, 253950, Note_on_c, 10, 50, 86
13, 253979, Note_on_c, 10, 50, 0
13, 253980, Note_on_c, 10, 50, 86
13, 254009, Note_on_c, 10, 50, 0
13, 254010, Note_on_c, 10, 50, 86
13, 254039, Note_on_c, 10, 50, 0
13, 254040, Note_on_c, 10, 50, 86
13, 254159, Note_on_c, 10, 50, 0
13, 254280, Note_on_c, 10, 45, 86
13, 254399, Note_on_c, 10, 45, 0
13, 254400, Note_on_c, 10, 50, 92
13, 254429, Note_on_c, 10, 50, 0
13, 254430, Note_on_c, 10, 50, 92
13, 254459, Note_on_c, 10, 50, 0
13, 254460, Note_on_c, 10, 50, 92
13, 254489, Note_on_c, 10, 50, 0
13, 254490, Note_on_c, 10, 50, 92
13, 254519, Note_on_c, 10, 50, 0
13, 254520, Note_on_c, 10, 50, 92
13, 254549, Note_on_c, 10, 50, 0
13, 254550, Note_on_c, 10, 50, 92
13, 254579, Note_on_c, 10, 50, 0
13, 254580, Note_on_c, 10, 50, 92
13, 254609, Note_on_c, 10, 50, 0
13, 254610, Note_on_c, 10, 50, 92
13, 254639, Note_on_c, 10, 50, 0
13, 254640, Note_on_c, 10, 50, 92
13, 254759, Note_on_c, 10, 50, 0
13, 254880, Note_on_c, 10, 50, 92
13, 254909, Note_on_c, 10, 50, 0
13, 254910, Note_on_c, 10, 50, 92
13, 254939, Note_on_c, 10, 50, 0
13, 254940, Note_on_c, 10, 50, 92
13, 254969, Note_on_c, 10, 50, 0
13, 254970, Note_on_c, 10, 50, 92
13, 254999, Note_on_c, 10, 50, 0
13, 255000, Note_on_c, 10, 50, 92
13, 255029, Note_on_c, 10, 50, 0
13, 255030, Note_on_c, 10, 50, 92
13, 255059, Note_on_c, 10, 50, 0
13, 255060, Note_on_c, 10, 50, 92
13, 255089, Note_on_c, 10, 50, 0
13, 255090, Note_on_c, 10, 50, 92
13, 255119, Note_on_c, 10, 50, 0
13, 255120, Note_on_c, 10, 50, 92
13, 255239, Note_on_c, 10, 50, 0
13, 255360, Note_on_c, 10, 50, 92
13, 255389, Note_on_c, 10, 50, 0
13, 255390, Note_on_c, 10, 50, 92
13, 255419, Note_on_c, 10, 50, 0
13, 255420, Note_on_c, 10, 50, 92
13, 255449, Note_on_c, 10, 50, 0
13, 255450, Note_on_c, 10, 50, 92
13, 255479, Note_on_c, 10, 50, 0
13, 255480, Note_on_c, 10, 50, 92
13, 255509, Note_on_c, 10, 50, 0
13, 255510, Note_on_c, 10, 50, 92
13, 255539, Note_on_c, 10, 50, 0
13, 255540, Note_on_c, 10, 50, 92
13, 255569, Note_on_c, 10, 50, 0
13, 255570, Note_on_c, 10, 50, 92
13, 255599, Note_on_c, 10, 50, 0
13, 255600, Note_on_c, 10, 50, 92
13, 255719, Note_on_c, 10, 50, 0
13, 255840, Note_on_c, 10, 45, 92
13, 255869, Note_on_c, 10, 45, 0
13, 255870, Note_on_c, 10, 45, 92
13, 255899, Note_on_c, 10, 45, 0
13, 255900, Note_on_c, 10, 45, 92
13, 255929, Note_on_c, 10, 45, 0
13, 255930, Note_on_c, 10, 45, 92
13, 255959, Note_on_c, 10, 45, 0
13, 255960, Note_on_c, 10, 45, 92
13, 255989, Note_on_c, 10, 45, 0
13, 255990, Note_on_c, 10, 45, 92
13, 256019, Note_on_c, 10, 45, 0
13, 256020, Note_on_c, 10, 45, 92
13, 256049, Note_on_c, 10, 45, 0
13, 256050, Note_on_c, 10, 45, 92
13, 256079, Note_on_c, 10, 45, 0
13, 256080, Note_on_c, 10, 45, 92
13, 256199, Note_on_c, 10, 45, 0
13, 256320, Note_on_c, 10, 50, 92
13, 256349, Note_on_c, 10, 50, 0
13, 256350, Note_on_c, 10, 50, 92
13, 256379, Note_on_c, 10, 50, 0
13, 256380, Note_on_c, 10, 50, 92
13, 256409, Note_on_c, 10, 50, 0
13, 256410, Note_on_c, 10, 50, 92
13, 256439, Note_on_c, 10, 50, 0
13, 256440, Note_on_c, 10, 50, 92
13, 256469, Note_on_c, 10, 50, 0
13, 256470, Note_on_c, 10, 50, 92
13, 256499, Note_on_c, 10, 50, 0
13, 256500, Note_on_c, 10, 50, 92
13, 256529, Note_on_c, 10, 50, 0
13, 256530, Note_on_c, 10, 50, 92
13, 256559, Note_on_c, 10, 50, 0
13, 256560, Note_on_c, 10, 50, 92
13, 256679, Note_on_c, 10, 50, 0
13, 256800, Note_on_c, 10, 50, 92
13, 256829, Note_on_c, 10, 50, 0
13, 256830, Note_on_c, 10, 50, 92
13, 256859, Note_on_c, 10, 50, 0
13, 256860, Note_on_c, 10, 50, 92
13, 256889, Note_on_c, 10, 50, 0
13, 256890, Note_on_c, 10, 50, 92
13, 256919, Note_on_c, 10, 50, 0
13, 256920, Note_on_c, 10, 50, 92
13, 256949, Note_on_c, 10, 50, 0
13, 256950, Note_on_c, 10, 50, 92
13, 256979, Note_on_c, 10, 50, 0
13, 256980, Note_on_c, 10, 50, 92
13, 257009, Note_on_c, 10, 50, 0
13, 257010, Note_on_c, 10, 50, 92
13, 257039, Note_on_c, 10, 50, 0
13, 257040, Note_on_c, 10, 50, 92
13, 257159, Note_on_c, 10, 50, 0
13, 257280, Note_on_c, 10, 50, 92
13, 257309, Note_on_c, 10, 50, 0
13, 257310, Note_on_c, 10, 50, 92
13, 257339, Note_on_c, 10, 50, 0
13, 257340, Note_on_c, 10, 50, 92
13, 257369, Note_on_c, 10, 50, 0
13, 257370, Note_on_c, 10, 50, 92
13, 257399, Note_on_c, 10, 50, 0
13, 257400, Note_on_c, 10, 50, 92
13, 257429, Note_on_c, 10, 50, 0
13, 257430, Note_on_c, 10, 50, 92
13, 257459, Note_on_c, 10, 50, 0
13, 257460, Note_on_c, 10, 50, 92
13, 257489, Note_on_c, 10, 50, 0
13, 257490, Note_on_c, 10, 50, 92
13, 257519, Note_on_c, 10, 50, 0
13, 257520, Note_on_c, 10, 50, 92
13, 257639, Note_on_c, 10, 50, 0
13, 257760, Note_on_c, 10, 45, 92
13, 257789, Note_on_c, 10, 45, 0
13, 257790, Note_on_c, 10, 45, 92
13, 257819, Note_on_c, 10, 45, 0
13, 257820, Note_on_c, 10, 45, 92
13, 257849, Note_on_c, 10, 45, 0
13, 257850, Note_on_c, 10, 45, 92
13, 257879, Note_on_c, 10, 45, 0
13, 257880, Note_on_c, 10, 45, 92
13, 257909, Note_on_c, 10, 45, 0
13, 257910, Note_on_c, 10, 45, 92
13, 257939, Note_on_c, 10, 45, 0
13, 257940, Note_on_c, 10, 45, 92
13, 257969, Note_on_c, 10, 45, 0
13, 257970, Note_on_c, 10, 45, 92
13, 257999, Note_on_c, 10, 45, 0
13, 258000, Note_on_c, 10, 45, 92
13, 258119, Note_on_c, 10, 45, 0
13, 258210, Note_on_c, 10, 50, 92
13, 258239, Note_on_c, 10, 50, 0
13, 258240, Note_on_c, 10, 45, 92
13, 258259, Note_on_c, 10, 45, 0
13, 258260, Note_on_c, 10, 45, 92
13, 258279, Note_on_c, 10, 45, 0
13, 258280, Note_on_c, 10, 45, 92
13, 258299, Note_on_c, 10, 45, 0
13, 258300, Note_on_c, 10, 45, 92
13, 258319, Note_on_c, 10, 45, 0
13, 258320, Note_on_c, 10, 45, 92
13, 258339, Note_on_c, 10, 45, 0
13, 258340, Note_on_c, 10, 45, 92
13, 258359, Note_on_c, 10, 45, 0
13, 258360, Note_on_c, 10, 45, 92
13, 258379, Note_on_c, 10, 45, 0
13, 258380, Note_on_c, 10, 45, 92
13, 258399, Note_on_c, 10, 45, 0
13, 258400, Note_on_c, 10, 45, 92
13, 258419, Note_on_c, 10, 45, 0
13, 258420, Note_on_c, 10, 45, 92
13, 258439, Note_on_c, 10, 45, 0
13, 258440, Note_on_c, 10, 45, 92
13, 258459, Note_on_c, 10, 45, 0
13, 258460, Note_on_c, 10, 45, 92
13, 258479, Note_on_c, 10, 45, 0
13, 258480, Note_on_c, 10, 45, 92
13, 258499, Note_on_c, 10, 45, 0
13, 258500, Note_on_c, 10, 45, 92
13, 258519, Note_on_c, 10, 45, 0
13, 258520, Note_on_c, 10, 45, 92
13, 258539, Note_on_c, 10, 45, 0
13, 258540, Note_on_c, 10, 45, 92
13, 258559, Note_on_c, 10, 45, 0
13, 258560, Note_on_c, 10, 45, 92
13, 258579, Note_on_c, 10, 45, 0
13, 258580, Note_on_c, 10, 45, 92
13, 258599, Note_on_c, 10, 45, 0
13, 258600, Note_on_c, 10, 45, 92
13, 258619, Note_on_c, 10, 45, 0
13, 258620, Note_on_c, 10, 45, 92
13, 258639, Note_on_c, 10, 45, 0
13, 258640, Note_on_c, 10, 45, 92
13, 258659, Note_on_c, 10, 45, 0
13, 258660, Note_on_c, 10, 45, 92
13, 258679, Note_on_c, 10, 45, 0
13, 258690, Note_on_c, 10, 50, 92
13, 258719, Note_on_c, 10, 50, 0
13, 258720, Note_on_c, 10, 50, 92
13, 258839, Note_on_c, 10, 50, 0
13, 258930, Note_on_c, 10, 45, 92
13, 258959, Note_on_c, 10, 45, 0
13, 258960, Note_on_c, 10, 45, 92
13, 259079, Note_on_c, 10, 45, 0
13, 259170, Note_on_c, 10, 45, 92
13, 259199, Note_on_c, 10, 45, 0
13, 259200, Note_on_c, 10, 50, 92
13, 259319, Note_on_c, 10, 50, 0
13, 259380, Note_on_c, 10, 50, 92
13, 259409, Note_on_c, 10, 50, 0
13, 259410, Note_on_c, 10, 50, 92
13, 259439, Note_on_c, 10, 50, 0
13, 259440, Note_on_c, 10, 50, 92
13, 259559, Note_on_c, 10, 50, 0
13, 259620, Note_on_c, 10, 50, 92
13, 259649, Note_on_c, 10, 50, 0
13, 259650, Note_on_c, 10, 50, 92
13, 259679, Note_on_c, 10, 50, 0
13, 259680, Note_on_c, 10, 50, 92
13, 259799, Note_on_c, 10, 50, 0
13, 259860, Note_on_c, 10, 50, 92
13, 259889, Note_on_c, 10, 50, 0
13, 259890, Note_on_c, 10, 50, 92
13, 259919, Note_on_c, 10, 50, 0
13, 259920, Note_on_c, 10, 50, 92
13, 260039, Note_on_c, 10, 50, 0
13, 260100, Note_on_c, 10, 50, 92
13, 260129, Note_on_c, 10, 50, 0
13, 260130, Note_on_c, 10, 50, 92
13, 260159, Note_on_c, 10, 50, 0
13, 260160, Note_on_c, 10, 50, 92
13, 260399, Note_on_c, 10, 50, 0
13, 260520, Note_on_c, 10, 50, 92
13, 260539, Note_on_c, 10, 50, 0
13, 260540, Note_on_c, 10, 50, 92
13, 260559, Note_on_c, 10, 50, 0
13, 260560, Note_on_c, 10, 50, 92
13, 260579, Note_on_c, 10, 50, 0
13, 260580, Note_on_c, 10, 50, 92
13, 260599, Note_on_c, 10, 50, 0
13, 260600, Note_on_c, 10, 50, 92
13, 260619, Note_on_c, 10, 50, 0
13, 260620, Note_on_c, 10, 50, 92
13, 260639, Note_on_c, 10, 50, 0
13, 260640, Note_on_c, 10, 50, 104
13, 260879, Note_on_c, 10, 50, 0
13, 261000, Note_on_c, 10, 50, 92
13, 261019, Note_on_c, 10, 50, 0
13, 261020, Note_on_c, 10, 50, 92
13, 261039, Note_on_c, 10, 50, 0
13, 261040, Note_on_c, 10, 50, 92
13, 261059, Note_on_c, 10, 50, 0
13, 261060, Note_on_c, 10, 50, 92
13, 261079, Note_on_c, 10, 50, 0
13, 261080, Note_on_c, 10, 50, 92
13, 261099, Note_on_c, 10, 50, 0
13, 261100, Note_on_c, 10, 50, 92
13, 261119, Note_on_c, 10, 50, 0
13, 261120, Note_on_c, 10, 50, 92
13, 261239, Note_on_c, 10, 50, 0
13, 261960, Note_on_c, 10, 45, 92
13, 262079, Note_on_c, 10, 45, 0
13, 262080, Note_on_c, 10, 50, 92
13, 262199, Note_on_c, 10, 50, 0
13, 262199, End_track
14, 0, Start_track
14, 0, Title_t, "Violin I"
14, 0, MIDI_port, 0
14, 0, Program_c, 11, 48
14, 0, Control_c, 11, 7, 96
14, 0, Control_c, 11, 10, 48
14, 0, Control_c, 11, 11, 127
14, 930, Note_on_c, 11, 76, 23
14, 951, Note_on_c, 11, 76, 0
14, 960, Note_on_c, 11, 69, 23
14, 1199, Note_on_c, 11, 69, 0
14, 1410, Note_on_c, 11, 69, 23
14, 1431, Note_on_c, 11, 69, 0
14, 1440, Note_on_c, 11, 64, 23
14, 1679, Note_on_c, 11, 64, 0
14, 2850, Note_on_c, 11, 81, 23
14, 2871, Note_on_c, 11, 81, 0
14, 2880, Note_on_c, 11, 76, 23
14, 3119, Note_on_c, 11, 76, 0
14, 3330, Note_on_c, 11, 76, 23
14, 3351, Note_on_c, 11, 76, 0
14, 3360, Note_on_c, 11, 69, 23
14, 3599, Note_on_c, 11, 69, 0
14, 5010, Note_on_c, 11, 81, 35
14, 5031, Note_on_c, 11, 81, 0
14, 5040, Note_on_c, 11, 76, 37
14, 5159, Note_on_c, 11, 76, 0
14, 5250, Note_on_c, 11, 76, 41
14, 5271, Note_on_c, 11, 76, 0
14, 5280, Note_on_c, 11, 69, 41
14, 5399, Note_on_c, 11, 69, 0
14, 5490, Note_on_c, 11, 69, 46
14, 5511, Note_on_c, 11, 69, 0
14, 5520, Note_on_c, 11, 64, 47
14, 5639, Note_on_c, 11, 64, 0
14, 5820, Note_on_c, 11, 81, 53
14, 5864, Note_on_c, 11, 81, 0
14, 5880, Note_on_c, 11, 81, 55
14, 5939, Note_on_c, 11, 81, 0
14, 5940, Note_on_c, 11, 76, 55
14, 5999, Note_on_c, 11, 76, 0
14, 6060, Note_on_c, 11, 76, 58
14, 6104, Note_on_c, 11, 76, 0
14, 6120, Note_on_c, 11, 76, 59
14, 6179, Note_on_c, 11, 76, 0
14, 6180, Note_on_c, 11, 69, 61
14, 6239, Note_on_c, 11, 69, 0
14, 6300, Note_on_c, 11, 69, 62
14, 6344, Note_on_c, 11, 69, 0
14, 6360, Note_on_c, 11, 69, 64
14, 6419, Note_on_c, 11, 69, 0
14, 6420, Note_on_c, 11, 64, 65
14, 6479, Note_on_c, 11, 64, 0
14, 6780, Note_on_c, 11, 81, 72
14, 6824, Note_on_c, 11, 81, 0
14, 6840, Note_on_c, 11, 81, 74
14, 6899, Note_on_c, 11, 81, 0
14, 6900, Note_on_c, 11, 69, 75
14, 6951, Note_on_c, 11, 69, 0
14, 6960, Note_on_c, 11, 69, 77
14, 7019, Note_on_c, 11, 69, 0
14, 7020, Note_on_c, 11, 57, 77
14, 7071, Note_on_c, 11, 57, 0
14, 7080, Note_on_c, 11, 57, 78
14, 7139, Note_on_c, 11, 57, 0
14, 7140, Note_on_c, 11, 69, 80
14, 7191, Note_on_c, 11, 69, 0
14, 7200, Note_on_c, 11, 69, 81
14, 7259, Note_on_c, 11, 69, 0
14, 7260, Note_on_c, 11, 81, 83
14, 7311, Note_on_c, 11, 81, 0
14, 7320, Note_on_c, 11, 81, 84
14, 7379, Note_on_c, 11, 81, 0
14, 7380, Note_on_c, 11, 69, 84
14, 7431, Note_on_c, 11, 69, 0
14, 7440, Note_on_c, 11, 69, 86
14, 7499, Note_on_c, 11, 69, 0
14, 7500, Note_on_c, 11, 81, 87
14, 7551, Note_on_c, 11, 81, 0
14, 7560, Note_on_c, 11, 69, 89
14, 7604, Note_on_c, 11, 69, 0
14, 7650, Note_on_c, 11, 86, 92
14, 7671, Note_on_c, 11, 86, 0
14, 7680, Note_on_c, 11, 81, 92
14, 8121, Note_on_c, 11, 81, 0
14, 8130, Note_on_c, 11, 77, 92
14, 8151, Note_on_c, 11, 77, 0
14, 8160, Note_on_c, 11, 74, 92
14, 8361, Note_on_c, 11, 74, 0
14, 8370, Note_on_c, 11, 69, 92
14, 8391, Note_on_c, 11, 69, 0
14, 8400, Note_on_c, 11, 65, 92
14, 8571, Note_on_c, 11, 65, 0
14, 8580, Note_on_c, 11, 69, 92
14, 8609, Note_on_c, 11, 69, 0
14, 8610, Note_on_c, 11, 65, 92
14, 8631, Note_on_c, 11, 65, 0
14, 8640, Note_on_c, 11, 62, 92
14, 8931, Note_on_c, 11, 62, 0
14, 8940, Note_on_c, 11, 77, 92
14, 8984, Note_on_c, 11, 77, 0
14, 9000, Note_on_c, 11, 76, 92
14, 9044, Note_on_c, 11, 76, 0
14, 9060, Note_on_c, 11, 74, 92
14, 9104, Note_on_c, 11, 74, 0
14, 9120, Note_on_c, 11, 81, 92
14, 9209, Note_on_c, 11, 81, 0
14, 9240, Note_on_c, 11, 79, 92
14, 9329, Note_on_c, 11, 79, 0
14, 9360, Note_on_c, 11, 76, 92
14, 9449, Note_on_c, 11, 76, 0
14, 9480, Note_on_c, 11, 81, 92
14, 9569, Note_on_c, 11, 81, 0
14, 9600, Note_on_c, 11, 74, 104
14, 9779, Note_on_c, 11, 74, 0
14, 9840, Note_on_c, 11, 64, 104
14, 9840, Note_on_c, 11, 76, 104
14, 9840, Note_on_c, 11, 61, 104
14, 9840, Note_on_c, 11, 69, 104
14, 9959, Note_on_c, 11, 64, 0
14, 9959, Note_on_c, 11, 61, 0
14, 9959, Note_on_c, 11, 69, 0
14, 10019, Note_on_c, 11, 76, 0
14, 10080, Note_on_c, 11, 62, 104
14, 10080, Note_on_c, 11, 69, 104
14, 10080, Note_on_c, 11, 77, 104
14, 10199, Note_on_c, 11, 62, 0
14, 10199, Note_on_c, 11, 69, 0
14, 10259, Note_on_c, 11, 77, 0
14, 10560, Note_on_c, 11, 70, 104
14, 10560, Note_on_c, 11, 62, 104
14, 10560, Note_on_c, 11, 79, 104
14, 10679, Note_on_c, 11, 70, 0
14, 10679, Note_on_c, 11, 62, 0
14, 10739, Note_on_c, 11, 79, 0
14, 10800, Note_on_c, 11, 81, 104
14, 10800, Note_on_c, 11, 66, 104
14, 10800, Note_on_c, 11, 69, 104
14, 10919, Note_on_c, 11, 66, 0
14, 10919, Note_on_c, 11, 69, 0
14, 10979, Note_on_c, 11, 81, 0
14, 11020, Note_on_c, 11, 70, 92
14, 11039, Note_on_c, 11, 70, 0
14, 11040, Note_on_c, 11, 82, 92
14, 11864, Note_on_c, 11, 82, 0
14, 11880, Note_on_c, 11, 81, 92
14, 11984, Note_on_c, 11, 81, 0
14, 12000, Note_on_c, 11, 79, 92
14, 12104, Note_on_c, 11, 79, 0
14, 12120, Note_on_c, 11, 77, 92
14, 12224, Note_on_c, 11, 77, 0
14, 12240, Note_on_c, 11, 75, 92
14, 12344, Note_on_c, 11, 75, 0
14, 12360, Note_on_c, 11, 74, 92
14, 12449, Note_on_c, 11, 74, 0
14, 12480, Note_on_c, 11, 73, 104
14, 12599, Note_on_c, 11, 73, 0
14, 12960, Note_on_c, 11, 61, 44
14, 13079, Note_on_c, 11, 61, 0
14, 13440, Note_on_c, 11, 62, 80
14, 13440, Note_on_c, 11, 69, 80
14, 13440, Note_on_c, 11, 77, 80
14, 13559, Note_on_c, 11, 62, 0
14, 13559, Note_on_c, 11, 69, 0
14, 13559, Note_on_c, 11, 77, 0
14, 13920, Note_on_c, 11, 65, 44
14, 14039, Note_on_c, 11, 65, 0
14, 14400, Note_on_c, 11, 79, 80
14, 14400, Note_on_c, 11, 64, 80
14, 14400, Note_on_c, 11, 73, 80
14, 14519, Note_on_c, 11, 79, 0
14, 14519, Note_on_c, 11, 64, 0
14, 14519, Note_on_c, 11, 73, 0
14, 14640, Note_on_c, 11, 82, 92
14, 14699, Note_on_c, 11, 82, 0
14, 14700, Note_on_c, 11, 82, 80
14, 15104, Note_on_c, 11, 82, 0
14, 15120, Note_on_c, 11, 86, 92
14, 15179, Note_on_c, 11, 86, 0
14, 15180, Note_on_c, 11, 86, 80
14, 15584, Note_on_c, 11, 86, 0
14, 15600, Note_on_c, 11, 77, 92
14, 15600, Note_on_c, 11, 62, 92
14, 15600, Note_on_c, 11, 69, 92
14, 15719, Note_on_c, 11, 77, 0
14, 15719, Note_on_c, 11, 62, 0
14, 15719, Note_on_c, 11, 69, 0
14, 15840, Note_on_c, 11, 81, 80
14, 16139, Note_on_c, 11, 81, 0
14, 16140, Note_on_c, 11, 82, 80
14, 16169, Note_on_c, 11, 82, 0
14, 16170, Note_on_c, 11, 81, 80
14, 16199, Note_on_c, 11, 81, 0
14, 16200, Note_on_c, 11, 79, 80
14, 16229, Note_on_c, 11, 79, 0
14, 16230, Note_on_c, 11, 77, 80
14, 16259, Note_on_c, 11, 77, 0
14, 16260, Note_on_c, 11, 76, 80
14, 16289, Note_on_c, 11, 76, 0
14, 16290, Note_on_c, 11, 74, 80
14, 16319, Note_on_c, 11, 74, 0
14, 16320, Note_on_c, 11, 73, 80
14, 16349, Note_on_c, 11, 73, 0
14, 16350, Note_on_c, 11, 74, 75
14, 16379, Note_on_c, 11, 74, 0
14, 16380, Note_on_c, 11, 72, 71
14, 16409, Note_on_c, 11, 72, 0
14, 16410, Note_on_c, 11, 70, 67
14, 16439, Note_on_c, 11, 70, 0
14, 16440, Note_on_c, 11, 69, 62
14, 16469, Note_on_c, 11, 69, 0
14, 16470, Note_on_c, 11, 67, 58
14, 16499, Note_on_c, 11, 67, 0
14, 16500, Note_on_c, 11, 65, 53
14, 16529, Note_on_c, 11, 65, 0
14, 16530, Note_on_c, 11, 64, 49
14, 16551, Note_on_c, 11, 64, 0
14, 16560, Note_on_c, 11, 62, 44
14, 16679, Note_on_c, 11, 62, 0
14, 17250, Note_on_c, 11, 74, 23
14, 17271, Note_on_c, 11, 74, 0
14, 17280, Note_on_c, 11, 69, 23
14, 17519, Note_on_c, 11, 69, 0
14, 17730, Note_on_c, 11, 69, 23
14, 17751, Note_on_c, 11, 69, 0
14, 17760, Note_on_c, 11, 62, 23
14, 17999, Note_on_c, 11, 62, 0
14, 19170, Note_on_c, 11, 81, 23
14, 19191, Note_on_c, 11, 81, 0
14, 19200, Note_on_c, 11, 74, 23
14, 19439, Note_on_c, 11, 74, 0
14, 19650, Note_on_c, 11, 74, 23
14, 19671, Note_on_c, 11, 74, 0
14, 19680, Note_on_c, 11, 69, 23
14, 19919, Note_on_c, 11, 69, 0
14, 21330, Note_on_c, 11, 81, 35
14, 21351, Note_on_c, 11, 81, 0
14, 21360, Note_on_c, 11, 74, 37
14, 21479, Note_on_c, 11, 74, 0
14, 21570, Note_on_c, 11, 74, 41
14, 21591, Note_on_c, 11, 74, 0
14, 21600, Note_on_c, 11, 69, 41
14, 21719, Note_on_c, 11, 69, 0
14, 21810, Note_on_c, 11, 69, 46
14, 21831, Note_on_c, 11, 69, 0
14, 21840, Note_on_c, 11, 62, 47
14, 21959, Note_on_c, 11, 62, 0
14, 22140, Note_on_c, 11, 81, 53
14, 22184, Note_on_c, 11, 81, 0
14, 22200, Note_on_c, 11, 81, 55
14, 22259, Note_on_c, 11, 81, 0
14, 22260, Note_on_c, 11, 74, 55
14, 22319, Note_on_c, 11, 74, 0
14, 22380, Note_on_c, 11, 74, 58
14, 22424, Note_on_c, 11, 74, 0
14, 22440, Note_on_c, 11, 74, 59
14, 22499, Note_on_c, 11, 74, 0
14, 22500, Note_on_c, 11, 69, 61
14, 22559, Note_on_c, 11, 69, 0
14, 22620, Note_on_c, 11, 69, 62
14, 22664, Note_on_c, 11, 69, 0
14, 22680, Note_on_c, 11, 69, 64
14, 22739, Note_on_c, 11, 69, 0
14, 22740, Note_on_c, 11, 62, 65
14, 22799, Note_on_c, 11, 62, 0
14, 23100, Note_on_c, 11, 86, 72
14, 23144, Note_on_c, 11, 86, 0
14, 23160, Note_on_c, 11, 86, 74
14, 23219, Note_on_c, 11, 86, 0
14, 23220, Note_on_c, 11, 74, 75
14, 23271, Note_on_c, 11, 74, 0
14, 23280, Note_on_c, 11, 74, 77
14, 23339, Note_on_c, 11, 74, 0
14, 23340, Note_on_c, 11, 62, 77
14, 23391, Note_on_c, 11, 62, 0
14, 23400, Note_on_c, 11, 62, 78
14, 23459, Note_on_c, 11, 62, 0
14, 23460, Note_on_c, 11, 74, 80
14, 23511, Note_on_c, 11, 74, 0
14, 23520, Note_on_c, 11, 74, 81
14, 23579, Note_on_c, 11, 74, 0
14, 23580, Note_on_c, 11, 62, 83
14, 23631, Note_on_c, 11, 62, 0
14, 23640, Note_on_c, 11, 62, 84
14, 23699, Note_on_c, 11, 62, 0
14, 23700, Note_on_c, 11, 74, 84
14, 23751, Note_on_c, 11, 74, 0
14, 23760, Note_on_c, 11, 62, 86
14, 23819, Note_on_c, 11, 62, 0
14, 23820, Note_on_c, 11, 74, 87
14, 23871, Note_on_c, 11, 74, 0
14, 23880, Note_on_c, 11, 62, 89
14, 23924, Note_on_c, 11, 62, 0
14, 23970, Note_on_c, 11, 82, 92
14, 23991, Note_on_c, 11, 82, 0
14, 24000, Note_on_c, 11, 77, 92
14, 24441, Note_on_c, 11, 77, 0
14, 24450, Note_on_c, 11, 74, 92
14, 24471, Note_on_c, 11, 74, 0
14, 24480, Note_on_c, 11, 70, 92
14, 24681, Note_on_c, 11, 70, 0
14, 24690, Note_on_c, 11, 65, 92
14, 24711, Note_on_c, 11, 65, 0
14, 24720, Note_on_c, 11, 62, 92
14, 24891, Note_on_c, 11, 62, 0
14, 24900, Note_on_c, 11, 65, 92
14, 24929, Note_on_c, 11, 65, 0
14, 24930, Note_on_c, 11, 62, 92
14, 24951, Note_on_c, 11, 62, 0
14, 24960, Note_on_c, 11, 58, 92
14, 25251, Note_on_c, 11, 58, 0
14, 25260, Note_on_c, 11, 74, 92
14, 25304, Note_on_c, 11, 74, 0
14, 25320, Note_on_c, 11, 72, 92
14, 25364, Note_on_c, 11, 72, 0
14, 25380, Note_on_c, 11, 70, 92
14, 25424, Note_on_c, 11, 70, 0
14, 25440, Note_on_c, 11, 77, 92
14, 25529, Note_on_c, 11, 77, 0
14, 25560, Note_on_c, 11, 75, 92
14, 25649, Note_on_c, 11, 75, 0
14, 25680, Note_on_c, 11, 72, 92
14, 25769, Note_on_c, 11, 72, 0
14, 25800, Note_on_c, 11, 77, 92
14, 25889, Note_on_c, 11, 77, 0
14, 25920, Note_on_c, 11, 62, 104
14, 25920, Note_on_c, 11, 74, 104
14, 26039, Note_on_c, 11, 62, 0
14, 26039, Note_on_c, 11, 74, 0
14, 26220, Note_on_c, 11, 77, 92
14, 26264, Note_on_c, 11, 77, 0
14, 26280, Note_on_c, 11, 75, 92
14, 26324, Note_on_c, 11, 75, 0
14, 26340, Note_on_c, 11, 74, 92
14, 26384, Note_on_c, 11, 74, 0
14, 26400, Note_on_c, 11, 82, 104
14, 26519, Note_on_c, 11, 82, 0
14, 26880, Note_on_c, 11, 76, 104
14, 26880, Note_on_c, 11, 64, 104
14, 26999, Note_on_c, 11, 76, 0
14, 26999, Note_on_c, 11, 64, 0
14, 27180, Note_on_c, 11, 79, 92
14, 27224, Note_on_c, 11, 79, 0
14, 27240, Note_on_c, 11, 77, 92
14, 27284, Note_on_c, 11, 77, 0
14, 27300, Note_on_c, 11, 76, 92
14, 27344, Note_on_c, 11, 76, 0
14, 27360, Note_on_c, 11, 85, 104
14, 27479, Note_on_c, 11, 85, 0
14, 27840, Note_on_c, 11, 77, 104
14, 27959, Note_on_c, 11, 77, 0
14, 28140, Note_on_c, 11, 81, 92
14, 28184, Note_on_c, 11, 81, 0
14, 28200, Note_on_c, 11, 79, 92
14, 28244, Note_on_c, 11, 79, 0
14, 28260, Note_on_c, 11, 77, 92
14, 28304, Note_on_c, 11, 77, 0
14, 28320, Note_on_c, 11, 86, 104
14, 28439, Note_on_c, 11, 86, 0
14, 28620, Note_on_c, 11, 81, 92
14, 28664, Note_on_c, 11, 81, 0
14, 28680, Note_on_c, 11, 79, 92
14, 28724, Note_on_c, 11, 79, 0
14, 28740, Note_on_c, 11, 78, 92
14, 28784, Note_on_c, 11, 78, 0
14, 28800, Note_on_c, 11, 86, 104
14, 28919, Note_on_c, 11, 86, 0
14, 29100, Note_on_c, 11, 82, 92
14, 29144, Note_on_c, 11, 82, 0
14, 29160, Note_on_c, 11, 81, 92
14, 29204, Note_on_c, 11, 81, 0
14, 29220, Note_on_c, 11, 79, 92
14, 29264, Note_on_c, 11, 79, 0
14, 29280, Note_on_c, 11, 86, 104
14, 29324, Note_on_c, 11, 86, 0
14, 29340, Note_on_c, 11, 58, 92
14, 29384, Note_on_c, 11, 58, 0
14, 29400, Note_on_c, 11, 57, 92
14, 29444, Note_on_c, 11, 57, 0
14, 29460, Note_on_c, 11, 55, 92
14, 29504, Note_on_c, 11, 55, 0
14, 29520, Note_on_c, 11, 77, 104
14, 29564, Note_on_c, 11, 77, 0
14, 29580, Note_on_c, 11, 77, 92
14, 29624, Note_on_c, 11, 77, 0
14, 29640, Note_on_c, 11, 76, 92
14, 29684, Note_on_c, 11, 76, 0
14, 29700, Note_on_c, 11, 74, 92
14, 29744, Note_on_c, 11, 74, 0
14, 29760, Note_on_c, 11, 81, 104
14, 29819, Note_on_c, 11, 81, 0
14, 29820, Note_on_c, 11, 81, 92
14, 30224, Note_on_c, 11, 81, 0
14, 30240, Note_on_c, 11, 79, 92
14, 30329, Note_on_c, 11, 79, 0
14, 30360, Note_on_c, 11, 77, 92
14, 30449, Note_on_c, 11, 77, 0
14, 30480, Note_on_c, 11, 76, 92
14, 30569, Note_on_c, 11, 76, 0
14, 30600, Note_on_c, 11, 74, 92
14, 30689, Note_on_c, 11, 74, 0
14, 30720, Note_on_c, 11, 73, 92
14, 30809, Note_on_c, 11, 73, 0
14, 30840, Note_on_c, 11, 74, 92
14, 30929, Note_on_c, 11, 74, 0
14, 30960, Note_on_c, 11, 76, 92
14, 31049, Note_on_c, 11, 76, 0
14, 31080, Note_on_c, 11, 77, 92
14, 31169, Note_on_c, 11, 77, 0
14, 31200, Note_on_c, 11, 79, 104
14, 31200, Note_on_c, 11, 69, 104
14, 31379, Note_on_c, 11, 79, 0
14, 31379, Note_on_c, 11, 69, 0
14, 31440, Note_on_c, 11, 77, 104
14, 31440, Note_on_c, 11, 69, 104
14, 31619, Note_on_c, 11, 77, 0
14, 31619, Note_on_c, 11, 69, 0
14, 31680, Note_on_c, 11, 76, 104
14, 31680, Note_on_c, 11, 69, 104
14, 31859, Note_on_c, 11, 76, 0
14, 31859, Note_on_c, 11, 69, 0
14, 32160, Note_on_c, 11, 69, 92
14, 32211, Note_on_c, 11, 69, 0
14, 32220, Note_on_c, 11, 81, 92
14, 32279, Note_on_c, 11, 81, 0
14, 32280, Note_on_c, 11, 82, 92
14, 32331, Note_on_c, 11, 82, 0
14, 32340, Note_on_c, 11, 81, 92
14, 32399, Note_on_c, 11, 81, 0
14, 32400, Note_on_c, 11, 82, 92
14, 32451, Note_on_c, 11, 82, 0
14, 32460, Note_on_c, 11, 81, 92
14, 32519, Note_on_c, 11, 81, 0
14, 32520, Note_on_c, 11, 82, 92
14, 32571, Note_on_c, 11, 82, 0
14, 32580, Note_on_c, 11, 81, 92
14, 32639, Note_on_c, 11, 81, 0
14, 32640, Note_on_c, 11, 79, 92
14, 32691, Note_on_c, 11, 79, 0
14, 32700, Note_on_c, 11, 81, 92
14, 32759, Note_on_c, 11, 81, 0
14, 32760, Note_on_c, 11, 77, 92
14, 32811, Note_on_c, 11, 77, 0
14, 32820, Note_on_c, 11, 81, 92
14, 32879, Note_on_c, 11, 81, 0
14, 32880, Note_on_c, 11, 76, 92
14, 32931, Note_on_c, 11, 76, 0
14, 32940, Note_on_c, 11, 81, 92
14, 32991, Note_on_c, 11, 81, 0
14, 33000, Note_on_c, 11, 74, 92
14, 33051, Note_on_c, 11, 74, 0
14, 33060, Note_on_c, 11, 81, 92
14, 33119, Note_on_c, 11, 81, 0
14, 33120, Note_on_c, 11, 73, 92
14, 33171, Note_on_c, 11, 73, 0
14, 33180, Note_on_c, 11, 82, 92
14, 33239, Note_on_c, 11, 82, 0
14, 33240, Note_on_c, 11, 70, 92
14, 33291, Note_on_c, 11, 70, 0
14, 33300, Note_on_c, 11, 82, 92
14, 33359, Note_on_c, 11, 82, 0
14, 33360, Note_on_c, 11, 70, 92
14, 33411, Note_on_c, 11, 70, 0
14, 33420, Note_on_c, 11, 82, 92
14, 33479, Note_on_c, 11, 82, 0
14, 33480, Note_on_c, 11, 70, 92
14, 33531, Note_on_c, 11, 70, 0
14, 33540, Note_on_c, 11, 82, 92
14, 33599, Note_on_c, 11, 82, 0
14, 33600, Note_on_c, 11, 70, 92
14, 33651, Note_on_c, 11, 70, 0
14, 33660, Note_on_c, 11, 82, 92
14, 33719, Note_on_c, 11, 82, 0
14, 33720, Note_on_c, 11, 70, 92
14, 33771, Note_on_c, 11, 70, 0
14, 33780, Note_on_c, 11, 82, 92
14, 33839, Note_on_c, 11, 82, 0
14, 33840, Note_on_c, 11, 70, 92
14, 33891, Note_on_c, 11, 70, 0
14, 33900, Note_on_c, 11, 82, 92
14, 33959, Note_on_c, 11, 82, 0
14, 33960, Note_on_c, 11, 70, 92
14, 34011, Note_on_c, 11, 70, 0
14, 34020, Note_on_c, 11, 82, 92
14, 34079, Note_on_c, 11, 82, 0
14, 34080, Note_on_c, 11, 76, 92
14, 34131, Note_on_c, 11, 76, 0
14, 34140, Note_on_c, 11, 79, 92
14, 34199, Note_on_c, 11, 79, 0
14, 34200, Note_on_c, 11, 76, 92
14, 34251, Note_on_c, 11, 76, 0
14, 34260, Note_on_c, 11, 79, 92
14, 34319, Note_on_c, 11, 79, 0
14, 34320, Note_on_c, 11, 70, 92
14, 34371, Note_on_c, 11, 70, 0
14, 34380, Note_on_c, 11, 82, 92
14, 34439, Note_on_c, 11, 82, 0
14, 34440, Note_on_c, 11, 70, 92
14, 34491, Note_on_c, 11, 70, 0
14, 34500, Note_on_c, 11, 82, 92
14, 34559, Note_on_c, 11, 82, 0
14, 34560, Note_on_c, 11, 69, 92
14, 34611, Note_on_c, 11, 69, 0
14, 34620, Note_on_c, 11, 84, 86
14, 34679, Note_on_c, 11, 84, 0
14, 34680, Note_on_c, 11, 69, 80
14, 34731, Note_on_c, 11, 69, 0
14, 34740, Note_on_c, 11, 84, 74
14, 34799, Note_on_c, 11, 84, 0
14, 34800, Note_on_c, 11, 69, 68
14, 34851, Note_on_c, 11, 69, 0
14, 34860, Note_on_c, 11, 84, 62
14, 34919, Note_on_c, 11, 84, 0
14, 34920, Note_on_c, 11, 69, 56
14, 34971, Note_on_c, 11, 69, 0
14, 34980, Note_on_c, 11, 84, 50
14, 35031, Note_on_c, 11, 84, 0
14, 35040, Note_on_c, 11, 84, 44
14, 35144, Note_on_c, 11, 84, 0
14, 35160, Note_on_c, 11, 63, 44
14, 35211, Note_on_c, 11, 63, 0
14, 35220, Note_on_c, 11, 63, 44
14, 35271, Note_on_c, 11, 63, 0
14, 35280, Note_on_c, 11, 63, 44
14, 35399, Note_on_c, 11, 63, 0
14, 36120, Note_on_c, 11, 62, 44
14, 36171, Note_on_c, 11, 62, 0
14, 36180, Note_on_c, 11, 62, 44
14, 36231, Note_on_c, 11, 62, 0
14, 36240, Note_on_c, 11, 62, 44
14, 36359, Note_on_c, 11, 62, 0
14, 37080, Note_on_c, 11, 63, 44
14, 37131, Note_on_c, 11, 63, 0
14, 37140, Note_on_c, 11, 63, 44
14, 37191, Note_on_c, 11, 63, 0
14, 37200, Note_on_c, 11, 63, 44
14, 37319, Note_on_c, 11, 63, 0
14, 37800, Note_on_c, 11, 57, 44
14, 37971, Note_on_c, 11, 57, 0
14, 37980, Note_on_c, 11, 58, 44
14, 38024, Note_on_c, 11, 58, 0
14, 38040, Note_on_c, 11, 61, 44
14, 38084, Note_on_c, 11, 61, 0
14, 38100, Note_on_c, 11, 62, 44
14, 38144, Note_on_c, 11, 62, 0
14, 38160, Note_on_c, 11, 65, 44
14, 38279, Note_on_c, 11, 65, 0
14, 38400, Note_on_c, 11, 61, 44
14, 38444, Note_on_c, 11, 61, 0
14, 38460, Note_on_c, 11, 62, 44
14, 38504, Note_on_c, 11, 62, 0
14, 38520, Note_on_c, 11, 65, 44
14, 38564, Note_on_c, 11, 65, 0
14, 38580, Note_on_c, 11, 69, 44
14, 38624, Note_on_c, 11, 69, 0
14, 38640, Note_on_c, 11, 70, 44
14, 38759, Note_on_c, 11, 70, 0
14, 38880, Note_on_c, 11, 60, 44
14, 38924, Note_on_c, 11, 60, 0
14, 38940, Note_on_c, 11, 65, 44
14, 38984, Note_on_c, 11, 65, 0
14, 39000, Note_on_c, 11, 69, 44
14, 39044, Note_on_c, 11, 69, 0
14, 39060, Note_on_c, 11, 71, 44
14, 39104, Note_on_c, 11, 71, 0
14, 39120, Note_on_c, 11, 72, 44
14, 39239, Note_on_c, 11, 72, 0
14, 39360, Note_on_c, 11, 63, 44
14, 39404, Note_on_c, 11, 63, 0
14, 39420, Note_on_c, 11, 65, 44
14, 39464, Note_on_c, 11, 65, 0
14, 39480, Note_on_c, 11, 69, 44
14, 39524, Note_on_c, 11, 69, 0
14, 39540, Note_on_c, 11, 72, 44
14, 39584, Note_on_c, 11, 72, 0
14, 39600, Note_on_c, 11, 75, 44
14, 39719, Note_on_c, 11, 75, 0
14, 39840, Note_on_c, 11, 63, 44
14, 39884, Note_on_c, 11, 63, 0
14, 39900, Note_on_c, 11, 62, 45
14, 39944, Note_on_c, 11, 62, 0
14, 39960, Note_on_c, 11, 65, 47
14, 40004, Note_on_c, 11, 65, 0
14, 40020, Note_on_c, 11, 69, 48
14, 40064, Note_on_c, 11, 69, 0
14, 40080, Note_on_c, 11, 70, 50
14, 40199, Note_on_c, 11, 70, 0
14, 40320, Note_on_c, 11, 62, 56
14, 40364, Note_on_c, 11, 62, 0
14, 40380, Note_on_c, 11, 65, 57
14, 40424, Note_on_c, 11, 65, 0
14, 40440, Note_on_c, 11, 69, 59
14, 40484, Note_on_c, 11, 69, 0
14, 40500, Note_on_c, 11, 70, 60
14, 40544, Note_on_c, 11, 70, 0
14, 40560, Note_on_c, 11, 74, 62
14, 40679, Note_on_c, 11, 74, 0
14, 40800, Note_on_c, 11, 60, 68
14, 40844, Note_on_c, 11, 60, 0
14, 40860, Note_on_c, 11, 63, 67
14, 40904, Note_on_c, 11, 63, 0
14, 40920, Note_on_c, 11, 65, 65
14, 40964, Note_on_c, 11, 65, 0
14, 40980, Note_on_c, 11, 69, 64
14, 41024, Note_on_c, 11, 69, 0
14, 41040, Note_on_c, 11, 72, 62
14, 41159, Note_on_c, 11, 72, 0
14, 41280, Note_on_c, 11, 63, 56
14, 41324, Note_on_c, 11, 63, 0
14, 41340, Note_on_c, 11, 65, 55
14, 41384, Note_on_c, 11, 65, 0
14, 41400, Note_on_c, 11, 69, 53
14, 41444, Note_on_c, 11, 69, 0
14, 41460, Note_on_c, 11, 70, 52
14, 41504, Note_on_c, 11, 70, 0
14, 41520, Note_on_c, 11, 72, 50
14, 41564, Note_on_c, 11, 72, 0
14, 41580, Note_on_c, 11, 60, 49
14, 41624, Note_on_c, 11, 60, 0
14, 41640, Note_on_c, 11, 60, 47
14, 41684, Note_on_c, 11, 60, 0
14, 41700, Note_on_c, 11, 60, 46
14, 41744, Note_on_c, 11, 60, 0
14, 41760, Note_on_c, 11, 62, 44
14, 41879, Note_on_c, 11, 62, 0
14, 42300, Note_on_c, 11, 77, 44
14, 42359, Note_on_c, 11, 77, 0
14, 42360, Note_on_c, 11, 84, 44
14, 42419, Note_on_c, 11, 84, 0
14, 42420, Note_on_c, 11, 77, 44
14, 42479, Note_on_c, 11, 77, 0
14, 42480, Note_on_c, 11, 84, 44
14, 42599, Note_on_c, 11, 84, 0
14, 43260, Note_on_c, 11, 74, 44
14, 43319, Note_on_c, 11, 74, 0
14, 43320, Note_on_c, 11, 81, 44
14, 43379, Note_on_c, 11, 81, 0
14, 43380, Note_on_c, 11, 74, 44
14, 43439, Note_on_c, 11, 74, 0
14, 43440, Note_on_c, 11, 81, 44
14, 43559, Note_on_c, 11, 81, 0
14, 43678, Control_c, 11, 11, 67
14, 43680, Note_on_c, 11, 82, 80
14, 43707, Control_c, 11, 11, 69
14, 43733, Control_c, 11, 11, 70
14, 43760, Control_c, 11, 11, 72
14, 43787, Control_c, 11, 11, 74
14, 43813, Control_c, 11, 11, 75
14, 43840, Control_c, 11, 11, 77
14, 43867, Control_c, 11, 11, 79
14, 43893, Control_c, 11, 11, 80
14, 43920, Control_c, 11, 11, 82
14, 43947, Control_c, 11, 11, 84
14, 43973, Control_c, 11, 11, 85
14, 44000, Control_c, 11, 11, 87
14, 44027, Control_c, 11, 11, 89
14, 44039, Note_on_c, 11, 82, 0
14, 44040, Note_on_c, 11, 81, 80
14, 44053, Control_c, 11, 11, 90
14, 44080, Control_c, 11, 11, 92
14, 44107, Control_c, 11, 11, 94
14, 44133, Control_c, 11, 11, 95
14, 44159, Note_on_c, 11, 81, 0
14, 44160, Note_on_c, 11, 80, 80
14, 44160, Control_c, 11, 11, 97
14, 44187, Control_c, 11, 11, 99
14, 44211, Note_on_c, 11, 80, 0
14, 44213, Control_c, 11, 11, 100
14, 44220, Note_on_c, 11, 79, 80
14, 44240, Control_c, 11, 11, 102
14, 44267, Control_c, 11, 11, 104
14, 44279, Note_on_c, 11, 79, 0
14, 44280, Note_on_c, 11, 77, 80
14, 44293, Control_c, 11, 11, 105
14, 44320, Control_c, 11, 11, 107
14, 44331, Note_on_c, 11, 77, 0
14, 44340, Note_on_c, 11, 75, 80
14, 44347, Control_c, 11, 11, 109
14, 44373, Control_c, 11, 11, 110
14, 44399, Note_on_c, 11, 75, 0
14, 44400, Note_on_c, 11, 74, 80
14, 44400, Control_c, 11, 11, 112
14, 44427, Control_c, 11, 11, 114
14, 44451, Note_on_c, 11, 74, 0
14, 44453, Control_c, 11, 11, 115
14, 44460, Note_on_c, 11, 72, 80
14, 44480, Control_c, 11, 11, 117
14, 44507, Control_c, 11, 11, 119
14, 44519, Note_on_c, 11, 72, 0
14, 44520, Note_on_c, 11, 70, 80
14, 44533, Control_c, 11, 11, 120
14, 44560, Control_c, 11, 11, 122
14, 44571, Note_on_c, 11, 70, 0
14, 44580, Note_on_c, 11, 68, 80
14, 44587, Control_c, 11, 11, 124
14, 44613, Control_c, 11, 11, 127
14, 44639, Note_on_c, 11, 68, 0
14, 44640, Note_on_c, 11, 67, 80
14, 44691, Note_on_c, 11, 67, 0
14, 44700, Note_on_c, 11, 65, 80
14, 44759, Note_on_c, 11, 65, 0
14, 44760, Note_on_c, 11, 63, 80
14, 44811, Note_on_c, 11, 63, 0
14, 44820, Note_on_c, 11, 62, 80
14, 44879, Note_on_c, 11, 62, 0
14, 44880, Note_on_c, 11, 60, 80
14, 44931, Note_on_c, 11, 60, 0
14, 44940, Note_on_c, 11, 58, 80
14, 44999, Note_on_c, 11, 58, 0
14, 45000, Note_on_c, 11, 57, 80
14, 45051, Note_on_c, 11, 57, 0
14, 45060, Note_on_c, 11, 55, 80
14, 45119, Note_on_c, 11, 55, 0
14, 45120, Note_on_c, 11, 65, 80
14, 45224, Note_on_c, 11, 65, 0
14, 45240, Note_on_c, 11, 74, 80
14, 45240, Note_on_c, 11, 82, 80
14, 45240, Note_on_c, 11, 65, 80
14, 45329, Note_on_c, 11, 74, 0
14, 45329, Note_on_c, 11, 82, 0
14, 45329, Note_on_c, 11, 65, 0
14, 45480, Note_on_c, 11, 81, 80
14, 45480, Note_on_c, 11, 65, 80
14, 45480, Note_on_c, 11, 72, 80
14, 45569, Note_on_c, 11, 81, 0
14, 45569, Note_on_c, 11, 65, 0
14, 45569, Note_on_c, 11, 72, 0
14, 46140, Note_on_c, 11, 70, 44
14, 46199, Note_on_c, 11, 70, 0
14, 46200, Note_on_c, 11, 72, 44
14, 46251, Note_on_c, 11, 72, 0
14, 46260, Note_on_c, 11, 74, 44
14, 46319, Note_on_c, 11, 74, 0
14, 46320, Note_on_c, 11, 75, 44
14, 46371, Note_on_c, 11, 75, 0
14, 46380, Note_on_c, 11, 77, 44
14, 46439, Note_on_c, 11, 77, 0
14, 46440, Note_on_c, 11, 79, 44
14, 46491, Note_on_c, 11, 79, 0
14, 46500, Note_on_c, 11, 80, 44
14, 46559, Note_on_c, 11, 80, 0
14, 46560, Note_on_c, 11, 79, 44
14, 46679, Note_on_c, 11, 79, 0
14, 47088, Control_c, 11, 11, 58
14, 47100, Note_on_c, 11, 79, 92
14, 47136, Control_c, 11, 11, 59
14, 47159, Note_on_c, 11, 79, 0
14, 47160, Note_on_c, 11, 81, 92
14, 47184, Control_c, 11, 11, 60
14, 47211, Note_on_c, 11, 81, 0
14, 47220, Note_on_c, 11, 83, 92
14, 47232, Control_c, 11, 11, 61
14, 47279, Note_on_c, 11, 83, 0
14, 47280, Control_c, 11, 11, 62
14, 47280, Note_on_c, 11, 84, 92
14, 47328, Control_c, 11, 11, 63
14, 47331, Note_on_c, 11, 84, 0
14, 47340, Note_on_c, 11, 86, 92
14, 47376, Control_c, 11, 11, 64
14, 47399, Note_on_c, 11, 86, 0
14, 47400, Note_on_c, 11, 87, 92
14, 47424, Control_c, 11, 11, 65
14, 47451, Note_on_c, 11, 87, 0
14, 47460, Note_on_c, 11, 89, 92
14, 47472, Control_c, 11, 11, 66
14, 47519, Note_on_c, 11, 89, 0
14, 47520, Note_on_c, 11, 87, 92
14, 47520, Control_c, 11, 11, 67
14, 47547, Control_c, 11, 11, 69
14, 47573, Control_c, 11, 11, 70
14, 47600, Control_c, 11, 11, 72
14, 47627, Control_c, 11, 11, 74
14, 47653, Control_c, 11, 11, 75
14, 47680, Control_c, 11, 11, 77
14, 47707, Control_c, 11, 11, 79
14, 47733, Control_c, 11, 11, 80
14, 47760, Control_c, 11, 11, 82
14, 47787, Control_c, 11, 11, 84
14, 47813, Control_c, 11, 11, 85
14, 47840, Control_c, 11, 11, 87
14, 47864, Note_on_c, 11, 87, 0
14, 47867, Control_c, 11, 11, 89
14, 47880, Note_on_c, 11, 86, 92
14, 47893, Control_c, 11, 11, 90
14, 47920, Control_c, 11, 11, 92
14, 47947, Control_c, 11, 11, 94
14, 47973, Control_c, 11, 11, 95
14, 47999, Note_on_c, 11, 86, 0
14, 48000, Note_on_c, 11, 84, 92
14, 48000, Control_c, 11, 11, 97
14, 48027, Control_c, 11, 11, 99
14, 48051, Note_on_c, 11, 84, 0
14, 48053, Control_c, 11, 11, 100
14, 48060, Note_on_c, 11, 82, 92
14, 48080, Control_c, 11, 11, 102
14, 48107, Control_c, 11, 11, 104
14, 48119, Note_on_c, 11, 82, 0
14, 48120, Note_on_c, 11, 81, 92
14, 48133, Control_c, 11, 11, 105
14, 48160, Control_c, 11, 11, 107
14, 48171, Note_on_c, 11, 81, 0
14, 48180, Note_on_c, 11, 79, 92
14, 48187, Control_c, 11, 11, 109
14, 48213, Control_c, 11, 11, 110
14, 48239, Note_on_c, 11, 79, 0
14, 48240, Control_c, 11, 11, 112
14, 48240, Note_on_c, 11, 77, 92
14, 48267, Control_c, 11, 11, 114
14, 48291, Note_on_c, 11, 77, 0
14, 48293, Control_c, 11, 11, 115
14, 48300, Note_on_c, 11, 75, 92
14, 48320, Control_c, 11, 11, 117
14, 48347, Control_c, 11, 11, 119
14, 48359, Note_on_c, 11, 75, 0
14, 48360, Note_on_c, 11, 74, 92
14, 48373, Control_c, 11, 11, 120
14, 48400, Control_c, 11, 11, 122
14, 48411, Note_on_c, 11, 74, 0
14, 48420, Note_on_c, 11, 72, 92
14, 48427, Control_c, 11, 11, 124
14, 48453, Control_c, 11, 11, 127
14, 48464, Note_on_c, 11, 72, 0
14, 48480, Note_on_c, 11, 77, 92
14, 48569, Note_on_c, 11, 77, 0
14, 48600, Note_on_c, 11, 76, 92
14, 48666, Note_on_c, 11, 76, 0
14, 48690, Note_on_c, 11, 76, 92
14, 48711, Note_on_c, 11, 76, 0
14, 48720, Note_on_c, 11, 77, 92
14, 48839, Note_on_c, 11, 77, 0
14, 48960, Note_on_c, 11, 79, 92
14, 49049, Note_on_c, 11, 79, 0
14, 49080, Note_on_c, 11, 78, 92
14, 49146, Note_on_c, 11, 78, 0
14, 49170, Note_on_c, 11, 78, 92
14, 49191, Note_on_c, 11, 78, 0
14, 49200, Note_on_c, 11, 79, 92
14, 49319, Note_on_c, 11, 79, 0
14, 50160, Note_on_c, 11, 72, 44
14, 50279, Note_on_c, 11, 72, 0
14, 50280, Note_on_c, 11, 74, 44
14, 50339, Note_on_c, 11, 74, 0
14, 50340, Note_on_c, 11, 75, 44
14, 50391, Note_on_c, 11, 75, 0
14, 50400, Note_on_c, 11, 77, 92
14, 50489, Note_on_c, 11, 77, 0
14, 50520, Note_on_c, 11, 76, 92
14, 50586, Note_on_c, 11, 76, 0
14, 50610, Note_on_c, 11, 76, 92
14, 50631, Note_on_c, 11, 76, 0
14, 50640, Note_on_c, 11, 77, 92
14, 50759, Note_on_c, 11, 77, 0
14, 50880, Note_on_c, 11, 78, 92
14, 50969, Note_on_c, 11, 78, 0
14, 51000, Note_on_c, 11, 77, 92
14, 51066, Note_on_c, 11, 77, 0
14, 51090, Note_on_c, 11, 77, 92
14, 51111, Note_on_c, 11, 77, 0
14, 51120, Note_on_c, 11, 78, 92
14, 51239, Note_on_c, 11, 78, 0
14, 51360, Note_on_c, 11, 78, 44
14, 51599, Note_on_c, 11, 78, 0
14, 51600, Note_on_c, 11, 80, 44
14, 51719, Note_on_c, 11, 80, 0
14, 51720, Note_on_c, 11, 82, 44
14, 51779, Note_on_c, 11, 82, 0
14, 51780, Note_on_c, 11, 83, 44
14, 51839, Note_on_c, 11, 83, 0
14, 51840, Note_on_c, 11, 75, 44
14, 52079, Note_on_c, 11, 75, 0
14, 52080, Note_on_c, 11, 73, 44
14, 52199, Note_on_c, 11, 73, 0
14, 52200, Note_on_c, 11, 78, 44
14, 52304, Note_on_c, 11, 78, 0
14, 52320, Note_on_c, 11, 78, 32
14, 52799, Note_on_c, 11, 78, 0
14, 52800, Note_on_c, 11, 83, 32
14, 53264, Note_on_c, 11, 83, 0
14, 53280, Note_on_c, 11, 73, 32
14, 53759, Note_on_c, 11, 73, 0
14, 53760, Note_on_c, 11, 78, 32
14, 54299, Note_on_c, 11, 78, 0
14, 54300, Note_on_c, 11, 76, 32
14, 54359, Note_on_c, 11, 76, 0
14, 54360, Note_on_c, 11, 75, 32
14, 54419, Note_on_c, 11, 75, 0
14, 54420, Note_on_c, 11, 73, 32
14, 54479, Note_on_c, 11, 73, 0
14, 54480, Note_on_c, 11, 71, 32
14, 54539, Note_on_c, 11, 71, 0
14, 54540, Note_on_c, 11, 70, 32
14, 54599, Note_on_c, 11, 70, 0
14, 54600, Note_on_c, 11, 68, 32
14, 54659, Note_on_c, 11, 68, 0
14, 54660, Note_on_c, 11, 66, 32
14, 54719, Note_on_c, 11, 66, 0
14, 54720, Note_on_c, 11, 64, 32
14, 54779, Note_on_c, 11, 64, 0
14, 54780, Note_on_c, 11, 63, 32
14, 54839, Note_on_c, 11, 63, 0
14, 54840, Note_on_c, 11, 61, 32
14, 54899, Note_on_c, 11, 61, 0
14, 54900, Note_on_c, 11, 59, 32
14, 54959, Note_on_c, 11, 59, 0
14, 54960, Note_on_c, 11, 58, 32
14, 55019, Note_on_c, 11, 58, 0
14, 55020, Note_on_c, 11, 59, 32
14, 55079, Note_on_c, 11, 59, 0
14, 55080, Note_on_c, 11, 58, 32
14, 55131, Note_on_c, 11, 58, 0
14, 55140, Note_on_c, 11, 58, 32
14, 55259, Note_on_c, 11, 58, 0
14, 55260, Note_on_c, 11, 57, 32
14, 55319, Note_on_c, 11, 57, 0
14, 55320, Note_on_c, 11, 64, 32
14, 55379, Note_on_c, 11, 64, 0
14, 55380, Note_on_c, 11, 65, 32
14, 55439, Note_on_c, 11, 65, 0
14, 55440, Note_on_c, 11, 66, 32
14, 55499, Note_on_c, 11, 66, 0
14, 55500, Note_on_c, 11, 64, 32
14, 55559, Note_on_c, 11, 64, 0
14, 55560, Note_on_c, 11, 65, 32
14, 55619, Note_on_c, 11, 65, 0
14, 55620, Note_on_c, 11, 57, 32
14, 55679, Note_on_c, 11, 57, 0
14, 55680, Note_on_c, 11, 58, 32
14, 55739, Note_on_c, 11, 58, 0
14, 55740, Note_on_c, 11, 68, 32
14, 55799, Note_on_c, 11, 68, 0
14, 55800, Note_on_c, 11, 66, 32
14, 55859, Note_on_c, 11, 66, 0
14, 55860, Note_on_c, 11, 67, 32
14, 55919, Note_on_c, 11, 67, 0
14, 55920, Note_on_c, 11, 70, 32
14, 55979, Note_on_c, 11, 70, 0
14, 55980, Note_on_c, 11, 68, 32
14, 56039, Note_on_c, 11, 68, 0
14, 56040, Note_on_c, 11, 69, 32
14, 56099, Note_on_c, 11, 69, 0
14, 56100, Note_on_c, 11, 60, 32
14, 56151, Note_on_c, 11, 60, 0
14, 56160, Note_on_c, 11, 62, 32
14, 56219, Note_on_c, 11, 62, 0
14, 56220, Note_on_c, 11, 72, 32
14, 56279, Note_on_c, 11, 72, 0
14, 56280, Note_on_c, 11, 69, 32
14, 56339, Note_on_c, 11, 69, 0
14, 56340, Note_on_c, 11, 70, 32
14, 56399, Note_on_c, 11, 70, 0
14, 56400, Note_on_c, 11, 74, 32
14, 56459, Note_on_c, 11, 74, 0
14, 56460, Note_on_c, 11, 71, 32
14, 56519, Note_on_c, 11, 71, 0
14, 56520, Note_on_c, 11, 72, 32
14, 56579, Note_on_c, 11, 72, 0
14, 56580, Note_on_c, 11, 63, 32
14, 56639, Note_on_c, 11, 63, 0
14, 56640, Note_on_c, 11, 75, 32
14, 56699, Note_on_c, 11, 75, 0
14, 56700, Note_on_c, 11, 73, 32
14, 56759, Note_on_c, 11, 73, 0
14, 56760, Note_on_c, 11, 74, 32
14, 56819, Note_on_c, 11, 74, 0
14, 56820, Note_on_c, 11, 65, 32
14, 56879, Note_on_c, 11, 65, 0
14, 56880, Note_on_c, 11, 77, 32
14, 56939, Note_on_c, 11, 77, 0
14, 56940, Note_on_c, 11, 74, 32
14, 56999, Note_on_c, 11, 74, 0
14, 57000, Note_on_c, 11, 75, 32
14, 57059, Note_on_c, 11, 75, 0
14, 57060, Note_on_c, 11, 67, 32
14, 57111, Note_on_c, 11, 67, 0
14, 57120, Note_on_c, 11, 78, 32
14, 57419, Note_on_c, 11, 78, 0
14, 57420, Note_on_c, 11, 77, 32
14, 57479, Note_on_c, 11, 77, 0
14, 57480, Note_on_c, 11, 75, 32
14, 57539, Note_on_c, 11, 75, 0
14, 57540, Note_on_c, 11, 72, 32
14, 57599, Note_on_c, 11, 72, 0
14, 58080, Note_on_c, 11, 79, 32
14, 58379, Note_on_c, 11, 79, 0
14, 58380, Note_on_c, 11, 77, 32
14, 58439, Note_on_c, 11, 77, 0
14, 58440, Note_on_c, 11, 74, 32
14, 58499, Note_on_c, 11, 74, 0
14, 58500, Note_on_c, 11, 70, 32
14, 58559, Note_on_c, 11, 70, 0
14, 58800, Control_c, 11, 11, 47
14, 59040, Note_on_c, 11, 78, 80
14, 59088, Control_c, 11, 11, 48
14, 59136, Control_c, 11, 11, 49
14, 59184, Control_c, 11, 11, 50
14, 59232, Control_c, 11, 11, 51
14, 59280, Control_c, 11, 11, 52
14, 59328, Control_c, 11, 11, 53
14, 59339, Note_on_c, 11, 78, 0
14, 59340, Note_on_c, 11, 77, 80
14, 59376, Control_c, 11, 11, 54
14, 59399, Note_on_c, 11, 77, 0
14, 59400, Note_on_c, 11, 75, 80
14, 59424, Control_c, 11, 11, 55
14, 59459, Note_on_c, 11, 75, 0
14, 59460, Note_on_c, 11, 72, 80
14, 59472, Control_c, 11, 11, 56
14, 59519, Note_on_c, 11, 72, 0
14, 59520, Control_c, 11, 11, 57
14, 59568, Control_c, 11, 11, 58
14, 59616, Control_c, 11, 11, 59
14, 59664, Control_c, 11, 11, 60
14, 59712, Control_c, 11, 11, 61
14, 59760, Control_c, 11, 11, 62
14, 59808, Control_c, 11, 11, 63
14, 59856, Control_c, 11, 11, 64
14, 59904, Control_c, 11, 11, 65
14, 59952, Control_c, 11, 11, 66
14, 60000, Note_on_c, 11, 79, 80
14, 60000, Control_c, 11, 11, 67
14, 60048, Control_c, 11, 11, 68
14, 60096, Control_c, 11, 11, 69
14, 60144, Control_c, 11, 11, 70
14, 60192, Control_c, 11, 11, 71
14, 60240, Control_c, 11, 11, 72
14, 60288, Control_c, 11, 11, 73
14, 60299, Note_on_c, 11, 79, 0
14, 60300, Note_on_c, 11, 77, 80
14, 60336, Control_c, 11, 11, 74
14, 60359, Note_on_c, 11, 77, 0
14, 60360, Note_on_c, 11, 74, 80
14, 60384, Control_c, 11, 11, 75
14, 60419, Note_on_c, 11, 74, 0
14, 60420, Note_on_c, 11, 70, 80
14, 60432, Control_c, 11, 11, 76
14, 60479, Note_on_c, 11, 70, 0
14, 60480, Control_c, 11, 11, 77
14, 60528, Control_c, 11, 11, 78
14, 60576, Control_c, 11, 11, 79
14, 60624, Control_c, 11, 11, 80
14, 60672, Control_c, 11, 11, 81
14, 60720, Control_c, 11, 11, 82
14, 60768, Control_c, 11, 11, 83
14, 60816, Control_c, 11, 11, 84
14, 60864, Control_c, 11, 11, 85
14, 60912, Control_c, 11, 11, 86
14, 60960, Control_c, 11, 11, 87
14, 60960, Note_on_c, 11, 78, 80
14, 61008, Control_c, 11, 11, 88
14, 61019, Note_on_c, 11, 78, 0
14, 61020, Note_on_c, 11, 77, 80
14, 61056, Control_c, 11, 11, 89
14, 61079, Note_on_c, 11, 77, 0
14, 61080, Note_on_c, 11, 75, 80
14, 61104, Control_c, 11, 11, 90
14, 61139, Note_on_c, 11, 75, 0
14, 61140, Note_on_c, 11, 72, 80
14, 61152, Control_c, 11, 11, 91
14, 61199, Note_on_c, 11, 72, 0
14, 61200, Control_c, 11, 11, 92
14, 61248, Control_c, 11, 11, 93
14, 61296, Control_c, 11, 11, 94
14, 61344, Control_c, 11, 11, 95
14, 61392, Control_c, 11, 11, 96
14, 61440, Control_c, 11, 11, 97
14, 61440, Note_on_c, 11, 79, 80
14, 61488, Control_c, 11, 11, 98
14, 61499, Note_on_c, 11, 79, 0
14, 61500, Note_on_c, 11, 77, 80
14, 61536, Control_c, 11, 11, 99
14, 61559, Note_on_c, 11, 77, 0
14, 61560, Note_on_c, 11, 74, 80
14, 61584, Control_c, 11, 11, 100
14, 61619, Note_on_c, 11, 74, 0
14, 61620, Note_on_c, 11, 70, 80
14, 61632, Control_c, 11, 11, 101
14, 61679, Note_on_c, 11, 70, 0
14, 61680, Control_c, 11, 11, 102
14, 61728, Control_c, 11, 11, 103
14, 61776, Control_c, 11, 11, 104
14, 61824, Control_c, 11, 11, 105
14, 61872, Control_c, 11, 11, 106
14, 61920, Control_c, 11, 11, 107
14, 61920, Note_on_c, 11, 78, 80
14, 61968, Control_c, 11, 11, 108
14, 61979, Note_on_c, 11, 78, 0
14, 61980, Note_on_c, 11, 77, 80
14, 62016, Control_c, 11, 11, 109
14, 62039, Note_on_c, 11, 77, 0
14, 62040, Note_on_c, 11, 81, 80
14, 62064, Control_c, 11, 11, 110
14, 62099, Note_on_c, 11, 81, 0
14, 62100, Note_on_c, 11, 77, 80
14, 62112, Control_c, 11, 11, 111
14, 62159, Note_on_c, 11, 77, 0
14, 62160, Control_c, 11, 11, 112
14, 62160, Note_on_c, 11, 84, 80
14, 62208, Control_c, 11, 11, 113
14, 62219, Note_on_c, 11, 84, 0
14, 62220, Note_on_c, 11, 77, 80
14, 62256, Control_c, 11, 11, 114
14, 62279, Note_on_c, 11, 77, 0
14, 62280, Note_on_c, 11, 84, 80
14, 62304, Control_c, 11, 11, 115
14, 62339, Note_on_c, 11, 84, 0
14, 62340, Note_on_c, 11, 82, 80
14, 62352, Control_c, 11, 11, 116
14, 62391, Note_on_c, 11, 82, 0
14, 62400, Note_on_c, 11, 78, 80
14, 62400, Control_c, 11, 11, 117
14, 62448, Control_c, 11, 11, 118
14, 62459, Note_on_c, 11, 78, 0
14, 62460, Note_on_c, 11, 77, 80
14, 62496, Control_c, 11, 11, 119
14, 62519, Note_on_c, 11, 77, 0
14, 62520, Note_on_c, 11, 81, 80
14, 62544, Control_c, 11, 11, 120
14, 62579, Note_on_c, 11, 81, 0
14, 62580, Note_on_c, 11, 77, 80
14, 62592, Control_c, 11, 11, 121
14, 62639, Note_on_c, 11, 77, 0
14, 62640, Note_on_c, 11, 84, 80
14, 62640, Control_c, 11, 11, 122
14, 62688, Control_c, 11, 11, 123
14, 62699, Note_on_c, 11, 84, 0
14, 62700, Note_on_c, 11, 77, 80
14, 62736, Control_c, 11, 11, 124
14, 62759, Note_on_c, 11, 77, 0
14, 62760, Note_on_c, 11, 84, 80
14, 62784, Control_c, 11, 11, 125
14, 62819, Note_on_c, 11, 84, 0
14, 62820, Note_on_c, 11, 82, 80
14, 62832, Control_c, 11, 11, 127
14, 62879, Note_on_c, 11, 82, 0
14, 62880, Note_on_c, 11, 87, 80
14, 62905, Note_on_c, 11, 87, 0
14, 62910, Note_on_c, 11, 77, 80
14, 62935, Note_on_c, 11, 77, 0
14, 62940, Note_on_c, 11, 75, 80
14, 62965, Note_on_c, 11, 75, 0
14, 62970, Note_on_c, 11, 74, 80
14, 62995, Note_on_c, 11, 74, 0
14, 63000, Note_on_c, 11, 72, 80
14, 63025, Note_on_c, 11, 72, 0
14, 63030, Note_on_c, 11, 74, 80
14, 63055, Note_on_c, 11, 74, 0
14, 63060, Note_on_c, 11, 72, 80
14, 63085, Note_on_c, 11, 72, 0
14, 63090, Note_on_c, 11, 70, 80
14, 63115, Note_on_c, 11, 70, 0
14, 63120, Note_on_c, 11, 69, 80
14, 63145, Note_on_c, 11, 69, 0
14, 63150, Note_on_c, 11, 70, 80
14, 63175, Note_on_c, 11, 70, 0
14, 63180, Note_on_c, 11, 72, 80
14, 63205, Note_on_c, 11, 72, 0
14, 63210, Note_on_c, 11, 74, 80
14, 63235, Note_on_c, 11, 74, 0
14, 63240, Note_on_c, 11, 75, 80
14, 63265, Note_on_c, 11, 75, 0
14, 63270, Note_on_c, 11, 77, 80
14, 63295, Note_on_c, 11, 77, 0
14, 63300, Note_on_c, 11, 79, 80
14, 63325, Note_on_c, 11, 79, 0
14, 63330, Note_on_c, 11, 81, 80
14, 63355, Note_on_c, 11, 81, 0
14, 63360, Note_on_c, 11, 82, 80
14, 63479, Note_on_c, 11, 82, 0
14, 63840, Note_on_c, 11, 79, 80
14, 63865, Note_on_c, 11, 79, 0
14, 63870, Note_on_c, 11, 81, 80
14, 63895, Note_on_c, 11, 81, 0
14, 63900, Note_on_c, 11, 79, 80
14, 63925, Note_on_c, 11, 79, 0
14, 63930, Note_on_c, 11, 77, 80
14, 63955, Note_on_c, 11, 77, 0
14, 63960, Note_on_c, 11, 75, 80
14, 63985, Note_on_c, 11, 75, 0
14, 63990, Note_on_c, 11, 77, 80
14, 64015, Note_on_c, 11, 77, 0
14, 64020, Note_on_c, 11, 75, 80
14, 64045, Note_on_c, 11, 75, 0
14, 64050, Note_on_c, 11, 74, 80
14, 64075, Note_on_c, 11, 74, 0
14, 64080, Note_on_c, 11, 72, 80
14, 64105, Note_on_c, 11, 72, 0
14, 64110, Note_on_c, 11, 74, 80
14, 64135, Note_on_c, 11, 74, 0
14, 64140, Note_on_c, 11, 75, 80
14, 64165, Note_on_c, 11, 75, 0
14, 64170, Note_on_c, 11, 77, 80
14, 64195, Note_on_c, 11, 77, 0
14, 64200, Note_on_c, 11, 79, 80
14, 64225, Note_on_c, 11, 79, 0
14, 64230, Note_on_c, 11, 81, 80
14, 64255, Note_on_c, 11, 81, 0
14, 64260, Note_on_c, 11, 82, 80
14, 64285, Note_on_c, 11, 82, 0
14, 64290, Note_on_c, 11, 84, 80
14, 64315, Note_on_c, 11, 84, 0
14, 64320, Note_on_c, 11, 86, 80
14, 64439, Note_on_c, 11, 86, 0
14, 64800, Note_on_c, 11, 82, 80
14, 64825, Note_on_c, 11, 82, 0
14, 64830, Note_on_c, 11, 84, 80
14, 64855, Note_on_c, 11, 84, 0
14, 64860, Note_on_c, 11, 82, 80
14, 64885, Note_on_c, 11, 82, 0
14, 64890, Note_on_c, 11, 80, 80
14, 64915, Note_on_c, 11, 80, 0
14, 64920, Note_on_c, 11, 79, 80
14, 64945, Note_on_c, 11, 79, 0
14, 64950, Note_on_c, 11, 80, 80
14, 64975, Note_on_c, 11, 80, 0
14, 64980, Note_on_c, 11, 79, 80
14, 65005, Note_on_c, 11, 79, 0
14, 65010, Note_on_c, 11, 77, 80
14, 65035, Note_on_c, 11, 77, 0
14, 65040, Note_on_c, 11, 75, 80
14, 65065, Note_on_c, 11, 75, 0
14, 65070, Note_on_c, 11, 77, 80
14, 65095, Note_on_c, 11, 77, 0
14, 65100, Note_on_c, 11, 79, 80
14, 65125, Note_on_c, 11, 79, 0
14, 65130, Note_on_c, 11, 80, 80
14, 65155, Note_on_c, 11, 80, 0
14, 65160, Note_on_c, 11, 82, 80
14, 65185, Note_on_c, 11, 82, 0
14, 65190, Note_on_c, 11, 84, 80
14, 65215, Note_on_c, 11, 84, 0
14, 65220, Note_on_c, 11, 86, 80
14, 65245, Note_on_c, 11, 86, 0
14, 65250, Note_on_c, 11, 87, 80
14, 65275, Note_on_c, 11, 87, 0
14, 65280, Note_on_c, 11, 87, 80
14, 65384, Note_on_c, 11, 87, 0
14, 65400, Note_on_c, 11, 69, 80
14, 65425, Note_on_c, 11, 69, 0
14, 65430, Note_on_c, 11, 82, 80
14, 65455, Note_on_c, 11, 82, 0
14, 65460, Note_on_c, 11, 81, 80
14, 65485, Note_on_c, 11, 81, 0
14, 65490, Note_on_c, 11, 79, 80
14, 65515, Note_on_c, 11, 79, 0
14, 65520, Note_on_c, 11, 77, 80
14, 65545, Note_on_c, 11, 77, 0
14, 65550, Note_on_c, 11, 79, 80
14, 65575, Note_on_c, 11, 79, 0
14, 65580, Note_on_c, 11, 81, 80
14, 65605, Note_on_c, 11, 81, 0
14, 65610, Note_on_c, 11, 82, 80
14, 65635, Note_on_c, 11, 82, 0
14, 65640, Note_on_c, 11, 84, 80
14, 65665, Note_on_c, 11, 84, 0
14, 65670, Note_on_c, 11, 86, 80
14, 65695, Note_on_c, 11, 86, 0
14, 65700, Note_on_c, 11, 87, 80
14, 65725, Note_on_c, 11, 87, 0
14, 65730, Note_on_c, 11, 89, 80
14, 65755, Note_on_c, 11, 89, 0
14, 65760, Note_on_c, 11, 70, 92
14, 65864, Note_on_c, 11, 70, 0
14, 65880, Note_on_c, 11, 82, 44
14, 65999, Note_on_c, 11, 82, 0
14, 66600, Note_on_c, 11, 82, 92
14, 66681, Note_on_c, 11, 82, 0
14, 66690, Note_on_c, 11, 82, 92
14, 66711, Note_on_c, 11, 82, 0
14, 66720, Note_on_c, 11, 72, 92
14, 66809, Note_on_c, 11, 72, 0
14, 66840, Note_on_c, 11, 84, 44
14, 66929, Note_on_c, 11, 84, 0
14, 67560, Note_on_c, 11, 84, 92
14, 67641, Note_on_c, 11, 84, 0
14, 67650, Note_on_c, 11, 84, 92
14, 67671, Note_on_c, 11, 84, 0
14, 67680, Note_on_c, 11, 74, 92
14, 67769, Note_on_c, 11, 74, 0
14, 67800, Note_on_c, 11, 86, 44
14, 67889, Note_on_c, 11, 86, 0
14, 68520, Note_on_c, 11, 86, 92
14, 68601, Note_on_c, 11, 86, 0
14, 68610, Note_on_c, 11, 86, 92
14, 68631, Note_on_c, 11, 86, 0
14, 68640, Note_on_c, 11, 75, 92
14, 68729, Note_on_c, 11, 75, 0
14, 68760, Note_on_c, 11, 87, 44
14, 68849, Note_on_c, 11, 87, 0
14, 70440, Note_on_c, 11, 87, 80
14, 70559, Note_on_c, 11, 87, 0
14, 70560, Note_on_c, 11, 87, 80
14, 70679, Note_on_c, 11, 87, 0
14, 70680, Note_on_c, 11, 86, 80
14, 70739, Note_on_c, 11, 86, 0
14, 70800, Note_on_c, 11, 86, 80
14, 70919, Note_on_c, 11, 86, 0
14, 70920, Note_on_c, 11, 84, 80
14, 70979, Note_on_c, 11, 84, 0
14, 71040, Note_on_c, 11, 84, 80
14, 71159, Note_on_c, 11, 84, 0
14, 71160, Note_on_c, 11, 82, 80
14, 71219, Note_on_c, 11, 82, 0
14, 71280, Note_on_c, 11, 82, 92
14, 71299, Note_on_c, 11, 82, 0
14, 71300, Note_on_c, 11, 84, 92
14, 71319, Note_on_c, 11, 84, 0
14, 71320, Note_on_c, 11, 82, 92
14, 71339, Note_on_c, 11, 82, 0
14, 71340, Note_on_c, 11, 84, 92
14, 71352, Note_on_c, 11, 84, 0
14, 71353, Note_on_c, 11, 82, 92
14, 71366, Note_on_c, 11, 82, 0
14, 71367, Note_on_c, 11, 81, 92
14, 71379, Note_on_c, 11, 81, 0
14, 71380, Note_on_c, 11, 82, 92
14, 71399, Note_on_c, 11, 82, 0
14, 71400, Note_on_c, 11, 84, 92
14, 71459, Note_on_c, 11, 84, 0
14, 71460, Note_on_c, 11, 81, 92
14, 71511, Note_on_c, 11, 81, 0
14, 71520, Note_on_c, 11, 82, 92
14, 71624, Note_on_c, 11, 82, 0
14, 71640, Note_on_c, 11, 70, 92
14, 71721, Note_on_c, 11, 70, 0
14, 71730, Note_on_c, 11, 70, 92
14, 71751, Note_on_c, 11, 70, 0
14, 71760, Note_on_c, 11, 74, 104
14, 71819, Note_on_c, 11, 74, 0
14, 71820, Note_on_c, 11, 74, 92
14, 72104, Note_on_c, 11, 74, 0
14, 72120, Note_on_c, 11, 74, 92
14, 72201, Note_on_c, 11, 74, 0
14, 72210, Note_on_c, 11, 74, 92
14, 72231, Note_on_c, 11, 74, 0
14, 72240, Note_on_c, 11, 77, 104
14, 72299, Note_on_c, 11, 77, 0
14, 72300, Note_on_c, 11, 77, 92
14, 72584, Note_on_c, 11, 77, 0
14, 72600, Note_on_c, 11, 77, 92
14, 72681, Note_on_c, 11, 77, 0
14, 72690, Note_on_c, 11, 77, 92
14, 72711, Note_on_c, 11, 77, 0
14, 72720, Note_on_c, 11, 82, 104
14, 72779, Note_on_c, 11, 82, 0
14, 72780, Note_on_c, 11, 82, 92
14, 73064, Note_on_c, 11, 82, 0
14, 73080, Note_on_c, 11, 82, 92
14, 73161, Note_on_c, 11, 82, 0
14, 73170, Note_on_c, 11, 82, 92
14, 73191, Note_on_c, 11, 82, 0
14, 73200, Note_on_c, 11, 86, 92
14, 73304, Note_on_c, 11, 86, 0
14, 73320, Note_on_c, 11, 86, 92
14, 73401, Note_on_c, 11, 86, 0
14, 73410, Note_on_c, 11, 86, 92
14, 73431, Note_on_c, 11, 86, 0
14, 73440, Note_on_c, 11, 89, 80
14, 73529, Note_on_c, 11, 89, 0
14, 73560, Note_on_c, 11, 82, 80
14, 73641, Note_on_c, 11, 82, 0
14, 73650, Note_on_c, 11, 82, 80
14, 73671, Note_on_c, 11, 82, 0
14, 73680, Note_on_c, 11, 86, 80
14, 73769, Note_on_c, 11, 86, 0
14, 73800, Note_on_c, 11, 77, 80
14, 73881, Note_on_c, 11, 77, 0
14, 73890, Note_on_c, 11, 77, 80
14, 73911, Note_on_c, 11, 77, 0
14, 73920, Note_on_c, 11, 82, 80
14, 74009, Note_on_c, 11, 82, 0
14, 74040, Note_on_c, 11, 74, 80
14, 74121, Note_on_c, 11, 74, 0
14, 74130, Note_on_c, 11, 74, 80
14, 74151, Note_on_c, 11, 74, 0
14, 74160, Note_on_c, 11, 77, 80
14, 74249, Note_on_c, 11, 77, 0
14, 74280, Note_on_c, 11, 70, 80
14, 74361, Note_on_c, 11, 70, 0
14, 74370, Note_on_c, 11, 70, 80
14, 74391, Note_on_c, 11, 70, 0
14, 74400, Note_on_c, 11, 74, 80
14, 74489, Note_on_c, 11, 74, 0
14, 74520, Note_on_c, 11, 65, 80
14, 74601, Note_on_c, 11, 65, 0
14, 74610, Note_on_c, 11, 65, 80
14, 74631, Note_on_c, 11, 65, 0
14, 74640, Note_on_c, 11, 70, 80
14, 74729, Note_on_c, 11, 70, 0
14, 74760, Note_on_c, 11, 62, 80
14, 74841, Note_on_c, 11, 62, 0
14, 74850, Note_on_c, 11, 62, 80
14, 74871, Note_on_c, 11, 62, 0
14, 74880, Note_on_c, 11, 65, 80
14, 74969, Note_on_c, 11, 65, 0
14, 75000, Note_on_c, 11, 58, 80
14, 75081, Note_on_c, 11, 58, 0
14, 75090, Note_on_c, 11, 58, 80
14, 75111, Note_on_c, 11, 58, 0
14, 75120, Note_on_c, 11, 70, 80
14, 75209, Note_on_c, 11, 70, 0
14, 75240, Note_on_c, 11, 58, 80
14, 75321, Note_on_c, 11, 58, 0
14, 75330, Note_on_c, 11, 58, 80
14, 75351, Note_on_c, 11, 58, 0
14, 75360, Note_on_c, 11, 82, 80
14, 75479, Note_on_c, 11, 82, 0
14, 75810, Note_on_c, 11, 70, 80
14, 75810, Control_c, 11, 11, 127
14, 75831, Note_on_c, 11, 70, 0
14, 75837, Control_c, 11, 11, 124
14, 75840, Note_on_c, 11, 58, 80
14, 75863, Control_c, 11, 11, 120
14, 75890, Control_c, 11, 11, 117
14, 75917, Control_c, 11, 11, 114
14, 75943, Control_c, 11, 11, 110
14, 75970, Control_c, 11, 11, 107
14, 75997, Control_c, 11, 11, 104
14, 76023, Control_c, 11, 11, 100
14, 76050, Control_c, 11, 11, 97
14, 76077, Control_c, 11, 11, 94
14, 76079, Note_on_c, 11, 58, 0
14, 76263, Control_c, 11, 11, 127
14, 76290, Note_on_c, 11, 58, 44
14, 76311, Note_on_c, 11, 58, 0
14, 76320, Note_on_c, 11, 57, 32
14, 76559, Note_on_c, 11, 57, 0
14, 78210, Note_on_c, 11, 76, 32
14, 78231, Note_on_c, 11, 76, 0
14, 78240, Note_on_c, 11, 69, 32
14, 78479, Note_on_c, 11, 69, 0
14, 78690, Note_on_c, 11, 69, 32
14, 78711, Note_on_c, 11, 69, 0
14, 78720, Note_on_c, 11, 64, 32
14, 78959, Note_on_c, 11, 64, 0
14, 80130, Note_on_c, 11, 81, 32
14, 80151, Note_on_c, 11, 81, 0
14, 80160, Note_on_c, 11, 76, 32
14, 80399, Note_on_c, 11, 76, 0
14, 80610, Note_on_c, 11, 76, 32
14, 80631, Note_on_c, 11, 76, 0
14, 80640, Note_on_c, 11, 69, 32
14, 80879, Note_on_c, 11, 69, 0
14, 82050, Note_on_c, 11, 81, 32
14, 82071, Note_on_c, 11, 81, 0
14, 82080, Note_on_c, 11, 74, 32
14, 82319, Note_on_c, 11, 74, 0
14, 82530, Note_on_c, 11, 74, 32
14, 82551, Note_on_c, 11, 74, 0
14, 82560, Note_on_c, 11, 69, 32
14, 82799, Note_on_c, 11, 69, 0
14, 83970, Note_on_c, 11, 86, 32
14, 83991, Note_on_c, 11, 86, 0
14, 84000, Note_on_c, 11, 81, 32
14, 84239, Note_on_c, 11, 81, 0
14, 84450, Note_on_c, 11, 81, 32
14, 84471, Note_on_c, 11, 81, 0
14, 84480, Note_on_c, 11, 74, 32
14, 84719, Note_on_c, 11, 74, 0
14, 85650, Note_on_c, 11, 86, 32
14, 85671, Note_on_c, 11, 86, 0
14, 85680, Note_on_c, 11, 79, 32
14, 85799, Note_on_c, 11, 79, 0
14, 85890, Note_on_c, 11, 74, 32
14, 85911, Note_on_c, 11, 74, 0
14, 85920, Note_on_c, 11, 70, 32
14, 86024, Note_on_c, 11, 70, 0
14, 86040, Note_on_c, 11, 67, 32
14, 86159, Note_on_c, 11, 67, 0
14, 86280, Note_on_c, 11, 70, 32
14, 86399, Note_on_c, 11, 70, 0
14, 86520, Note_on_c, 11, 74, 32
14, 86639, Note_on_c, 11, 74, 0
14, 86760, Note_on_c, 11, 79, 32
14, 86879, Note_on_c, 11, 79, 0
14, 87000, Note_on_c, 11, 70, 32
14, 87119, Note_on_c, 11, 70, 0
14, 87240, Note_on_c, 11, 74, 32
14, 87359, Note_on_c, 11, 74, 0
14, 87360, Note_on_c, 11, 79, 32
14, 87479, Note_on_c, 11, 79, 0
14, 87600, Note_on_c, 11, 86, 32
14, 87719, Note_on_c, 11, 86, 0
14, 87960, Note_on_c, 11, 66, 32
14, 88079, Note_on_c, 11, 66, 0
14, 88200, Note_on_c, 11, 69, 32
14, 88319, Note_on_c, 11, 69, 0
14, 88440, Note_on_c, 11, 72, 32
14, 88559, Note_on_c, 11, 72, 0
14, 88680, Note_on_c, 11, 74, 32
14, 88799, Note_on_c, 11, 74, 0
14, 88920, Note_on_c, 11, 74, 39
14, 89039, Note_on_c, 11, 74, 0
14, 89160, Note_on_c, 11, 81, 54
14, 89279, Note_on_c, 11, 81, 0
14, 89400, Note_on_c, 11, 84, 69
14, 89519, Note_on_c, 11, 84, 0
14, 89700, Note_on_c, 11, 69, 88
14, 89729, Note_on_c, 11, 69, 0
14, 89730, Note_on_c, 11, 66, 90
14, 89751, Note_on_c, 11, 66, 0
14, 89760, Note_on_c, 11, 60, 92
14, 89864, Note_on_c, 11, 60, 0
14, 89880, Note_on_c, 11, 84, 92
14, 89961, Note_on_c, 11, 84, 0
14, 89970, Note_on_c, 11, 84, 92
14, 89991, Note_on_c, 11, 84, 0
14, 90000, Note_on_c, 11, 87, 104
14, 90059, Note_on_c, 11, 87, 0
14, 90060, Note_on_c, 11, 87, 92
14, 90344, Note_on_c, 11, 87, 0
14, 90360, Note_on_c, 11, 81, 92
14, 90441, Note_on_c, 11, 81, 0
14, 90450, Note_on_c, 11, 81, 92
14, 90471, Note_on_c, 11, 81, 0
14, 90480, Note_on_c, 11, 84, 104
14, 90539, Note_on_c, 11, 84, 0
14, 90540, Note_on_c, 11, 84, 92
14, 90824, Note_on_c, 11, 84, 0
14, 90840, Note_on_c, 11, 78, 92
14, 90921, Note_on_c, 11, 78, 0
14, 90930, Note_on_c, 11, 78, 92
14, 90951, Note_on_c, 11, 78, 0
14, 90960, Note_on_c, 11, 81, 104
14, 91064, Note_on_c, 11, 81, 0
14, 91080, Note_on_c, 11, 72, 92
14, 91161, Note_on_c, 11, 72, 0
14, 91170, Note_on_c, 11, 72, 92
14, 91191, Note_on_c, 11, 72, 0
14, 91200, Note_on_c, 11, 75, 104
14, 91304, Note_on_c, 11, 75, 0
14, 91320, Note_on_c, 11, 69, 92
14, 91401, Note_on_c, 11, 69, 0
14, 91410, Note_on_c, 11, 69, 92
14, 91431, Note_on_c, 11, 69, 0
14, 91440, Note_on_c, 11, 74, 104
14, 91544, Note_on_c, 11, 74, 0
14, 91560, Note_on_c, 11, 62, 92
14, 91641, Note_on_c, 11, 62, 0
14, 91650, Note_on_c, 11, 62, 92
14, 91671, Note_on_c, 11, 62, 0
14, 91680, Note_on_c, 11, 55, 44
14, 91799, Note_on_c, 11, 55, 0
14, 94530, Note_on_c, 11, 86, 44
14, 94551, Note_on_c, 11, 86, 0
14, 94560, Note_on_c, 11, 82, 44
14, 95001, Note_on_c, 11, 82, 0
14, 95010, Note_on_c, 11, 79, 44
14, 95031, Note_on_c, 11, 79, 0
14, 95040, Note_on_c, 11, 74, 44
14, 95241, Note_on_c, 11, 74, 0
14, 95250, Note_on_c, 11, 70, 44
14, 95271, Note_on_c, 11, 70, 0
14, 95280, Note_on_c, 11, 67, 44
14, 95399, Note_on_c, 11, 67, 0
14, 95460, Note_on_c, 11, 62, 44
14, 95489, Note_on_c, 11, 62, 0
14, 95490, Note_on_c, 11, 58, 44
14, 95511, Note_on_c, 11, 58, 0
14, 95520, Note_on_c, 11, 55, 44
14, 95639, Note_on_c, 11, 55, 0
14, 95700, Note_on_c, 11, 74, 44
14, 95729, Note_on_c, 11, 74, 0
14, 95730, Note_on_c, 11, 70, 44
14, 95751, Note_on_c, 11, 70, 0
14, 95760, Note_on_c, 11, 67, 44
14, 95879, Note_on_c, 11, 67, 0
14, 96120, Note_on_c, 11, 79, 44
14, 96449, Note_on_c, 11, 79, 0
14, 96450, Note_on_c, 11, 80, 44
14, 96471, Note_on_c, 11, 80, 0
14, 96480, Note_on_c, 11, 79, 44
14, 96921, Note_on_c, 11, 79, 0
14, 96930, Note_on_c, 11, 77, 44
14, 96951, Note_on_c, 11, 77, 0
14, 96960, Note_on_c, 11, 74, 44
14, 97161, Note_on_c, 11, 74, 0
14, 97170, Note_on_c, 11, 71, 44
14, 97191, Note_on_c, 11, 71, 0
14, 97200, Note_on_c, 11, 67, 44
14, 97319, Note_on_c, 11, 67, 0
14, 97380, Note_on_c, 11, 65, 44
14, 97409, Note_on_c, 11, 65, 0
14, 97410, Note_on_c, 11, 62, 44
14, 97431, Note_on_c, 11, 62, 0
14, 97438, Control_c, 11, 11, 67
14, 97440, Control_c, 11, 11, 67
14, 97440, Note_on_c, 11, 59, 80
14, 97460, Control_c, 11, 11, 68
14, 97480, Control_c, 11, 11, 70
14, 97500, Control_c, 11, 11, 71
14, 97520, Control_c, 11, 11, 72
14, 97540, Control_c, 11, 11, 73
14, 97559, Note_on_c, 11, 59, 0
14, 97560, Control_c, 11, 11, 75
14, 97580, Control_c, 11, 11, 76
14, 97600, Control_c, 11, 11, 77
14, 97620, Control_c, 11, 11, 78
14, 97620, Note_on_c, 11, 77, 80
14, 97640, Control_c, 11, 11, 80
14, 97649, Note_on_c, 11, 77, 0
14, 97650, Note_on_c, 11, 74, 80
14, 97660, Control_c, 11, 11, 81
14, 97671, Note_on_c, 11, 74, 0
14, 97680, Control_c, 11, 11, 82
14, 97680, Note_on_c, 11, 71, 80
14, 97700, Control_c, 11, 11, 83
14, 97720, Control_c, 11, 11, 85
14, 97740, Control_c, 11, 11, 86
14, 97760, Control_c, 11, 11, 87
14, 97780, Control_c, 11, 11, 88
14, 97799, Note_on_c, 11, 71, 0
14, 97800, Control_c, 11, 11, 90
14, 97820, Control_c, 11, 11, 91
14, 97840, Control_c, 11, 11, 92
14, 97860, Control_c, 11, 11, 93
14, 97880, Control_c, 11, 11, 95
14, 97900, Control_c, 11, 11, 96
14, 97920, Control_c, 11, 11, 97
14, 97940, Control_c, 11, 11, 98
14, 97960, Control_c, 11, 11, 100
14, 97980, Control_c, 11, 11, 101
14, 98000, Control_c, 11, 11, 102
14, 98020, Control_c, 11, 11, 103
14, 98040, Control_c, 11, 11, 105
14, 98040, Note_on_c, 11, 77, 80
14, 98060, Control_c, 11, 11, 106
14, 98080, Control_c, 11, 11, 107
14, 98100, Control_c, 11, 11, 108
14, 98120, Control_c, 11, 11, 110
14, 98140, Control_c, 11, 11, 111
14, 98160, Control_c, 11, 11, 112
14, 98180, Control_c, 11, 11, 113
14, 98200, Control_c, 11, 11, 115
14, 98220, Control_c, 11, 11, 116
14, 98240, Control_c, 11, 11, 117
14, 98260, Control_c, 11, 11, 118
14, 98280, Control_c, 11, 11, 120
14, 98300, Control_c, 11, 11, 121
14, 98320, Control_c, 11, 11, 122
14, 98324, Note_on_c, 11, 77, 0
14, 98340, Control_c, 11, 11, 123
14, 98340, Note_on_c, 11, 65, 80
14, 98360, Control_c, 11, 11, 125
14, 98369, Note_on_c, 11, 65, 0
14, 98370, Note_on_c, 11, 62, 80
14, 98380, Control_c, 11, 11, 127
14, 98391, Note_on_c, 11, 62, 0
14, 98400, Note_on_c, 11, 59, 80
14, 98504, Note_on_c, 11, 59, 0
14, 98520, Note_on_c, 11, 77, 80
14, 98601, Note_on_c, 11, 77, 0
14, 98610, Note_on_c, 11, 77, 80
14, 98631, Note_on_c, 11, 77, 0
14, 98640, Note_on_c, 11, 80, 92
14, 98699, Note_on_c, 11, 80, 0
14, 98700, Note_on_c, 11, 80, 80
14, 98984, Note_on_c, 11, 80, 0
14, 99000, Note_on_c, 11, 74, 80
14, 99081, Note_on_c, 11, 74, 0
14, 99090, Note_on_c, 11, 74, 80
14, 99111, Note_on_c, 11, 74, 0
14, 99120, Note_on_c, 11, 77, 92
14, 99179, Note_on_c, 11, 77, 0
14, 99180, Note_on_c, 11, 77, 80
14, 99464, Note_on_c, 11, 77, 0
14, 99480, Note_on_c, 11, 71, 80
14, 99561, Note_on_c, 11, 71, 0
14, 99570, Note_on_c, 11, 71, 80
14, 99591, Note_on_c, 11, 71, 0
14, 99600, Note_on_c, 11, 74, 92
14, 99704, Note_on_c, 11, 74, 0
14, 99720, Note_on_c, 11, 65, 80
14, 99801, Note_on_c, 11, 65, 0
14, 99810, Note_on_c, 11, 65, 80
14, 99831, Note_on_c, 11, 65, 0
14, 99840, Note_on_c, 11, 68, 92
14, 99944, Note_on_c, 11, 68, 0
14, 99960, Note_on_c, 11, 62, 80
14, 100041, Note_on_c, 11, 62, 0
14, 100050, Note_on_c, 11, 62, 80
14, 100071, Note_on_c, 11, 62, 0
14, 100080, Note_on_c, 11, 67, 92
14, 100184, Note_on_c, 11, 67, 0
14, 100200, Note_on_c, 11, 55, 80
14, 100281, Note_on_c, 11, 55, 0
14, 100290, Note_on_c, 11, 55, 80
14, 100311, Note_on_c, 11, 55, 0
14, 100320, Note_on_c, 11, 60, 44
14, 100439, Note_on_c, 11, 60, 0
14, 102960, Control_c, 11, 11, 67
14, 103200, Control_c, 11, 11, 67
14, 103200, Note_on_c, 11, 75, 80
14, 103223, Control_c, 11, 11, 69
14, 103247, Control_c, 11, 11, 70
14, 103270, Control_c, 11, 11, 72
14, 103293, Control_c, 11, 11, 74
14, 103317, Control_c, 11, 11, 75
14, 103340, Control_c, 11, 11, 77
14, 103363, Control_c, 11, 11, 79
14, 103379, Note_on_c, 11, 75, 0
14, 103387, Control_c, 11, 11, 80
14, 103410, Control_c, 11, 11, 82
14, 103433, Control_c, 11, 11, 84
14, 103440, Note_on_c, 11, 74, 80
14, 103457, Control_c, 11, 11, 85
14, 103480, Control_c, 11, 11, 87
14, 103503, Control_c, 11, 11, 89
14, 103527, Control_c, 11, 11, 90
14, 103550, Control_c, 11, 11, 92
14, 103573, Control_c, 11, 11, 94
14, 103597, Control_c, 11, 11, 95
14, 103619, Note_on_c, 11, 74, 0
14, 103620, Control_c, 11, 11, 97
14, 103643, Control_c, 11, 11, 99
14, 103667, Control_c, 11, 11, 100
14, 103680, Note_on_c, 11, 72, 80
14, 103690, Control_c, 11, 11, 102
14, 103713, Control_c, 11, 11, 104
14, 103737, Control_c, 11, 11, 105
14, 103760, Control_c, 11, 11, 107
14, 103783, Control_c, 11, 11, 109
14, 103807, Control_c, 11, 11, 110
14, 103830, Control_c, 11, 11, 112
14, 103853, Control_c, 11, 11, 114
14, 103859, Note_on_c, 11, 72, 0
14, 103877, Control_c, 11, 11, 115
14, 103900, Control_c, 11, 11, 117
14, 103920, Note_on_c, 11, 71, 80
14, 103923, Control_c, 11, 11, 119
14, 103947, Control_c, 11, 11, 120
14, 103970, Control_c, 11, 11, 122
14, 103993, Control_c, 11, 11, 124
14, 104017, Control_c, 11, 11, 127
14, 104024, Note_on_c, 11, 71, 0
14, 104040, Note_on_c, 11, 79, 80
14, 104504, Note_on_c, 11, 79, 0
14, 104520, Note_on_c, 11, 55, 92
14, 104579, Note_on_c, 11, 55, 0
14, 104580, Note_on_c, 11, 55, 80
14, 104984, Note_on_c, 11, 55, 0
14, 105000, Note_on_c, 11, 55, 92
14, 105059, Note_on_c, 11, 55, 0
14, 105060, Note_on_c, 11, 55, 80
14, 105224, Note_on_c, 11, 55, 0
14, 105240, Note_on_c, 11, 79, 92
14, 105299, Note_on_c, 11, 79, 0
14, 105300, Note_on_c, 11, 79, 80
14, 105464, Note_on_c, 11, 79, 0
14, 105480, Note_on_c, 11, 55, 80
14, 105704, Note_on_c, 11, 55, 0
14, 105720, Note_on_c, 11, 79, 80
14, 105944, Note_on_c, 11, 79, 0
14, 105960, Note_on_c, 11, 79, 80
14, 106184, Note_on_c, 11, 79, 0
14, 106200, Note_on_c, 11, 81, 80
14, 106251, Note_on_c, 11, 81, 0
14, 106260, Note_on_c, 11, 83, 80
14, 106311, Note_on_c, 11, 83, 0
14, 106320, Note_on_c, 11, 84, 80
14, 106409, Note_on_c, 11, 84, 0
14, 106440, Note_on_c, 11, 86, 80
14, 106529, Note_on_c, 11, 86, 0
14, 106560, Note_on_c, 11, 87, 80
14, 106649, Note_on_c, 11, 87, 0
14, 106680, Note_on_c, 11, 88, 80
14, 106769, Note_on_c, 11, 88, 0
14, 106800, Note_on_c, 11, 86, 80
14, 106889, Note_on_c, 11, 86, 0
14, 106920, Note_on_c, 11, 74, 80
14, 107009, Note_on_c, 11, 74, 0
14, 107040, Note_on_c, 11, 67, 80
14, 107331, Note_on_c, 11, 67, 0
14, 107340, Note_on_c, 11, 70, 80
14, 107384, Note_on_c, 11, 70, 0
14, 107400, Note_on_c, 11, 69, 80
14, 107444, Note_on_c, 11, 69, 0
14, 107460, Note_on_c, 11, 67, 80
14, 107504, Note_on_c, 11, 67, 0
14, 107520, Note_on_c, 11, 74, 80
14, 107609, Note_on_c, 11, 74, 0
14, 107640, Note_on_c, 11, 72, 80
14, 107729, Note_on_c, 11, 72, 0
14, 107760, Note_on_c, 11, 69, 80
14, 107849, Note_on_c, 11, 69, 0
14, 107880, Note_on_c, 11, 74, 80
14, 108104, Note_on_c, 11, 74, 0
14, 108120, Note_on_c, 11, 70, 80
14, 108209, Note_on_c, 11, 70, 0
14, 108240, Note_on_c, 11, 67, 80
14, 108329, Note_on_c, 11, 67, 0
14, 108360, Note_on_c, 11, 74, 80
14, 108584, Note_on_c, 11, 74, 0
14, 108600, Note_on_c, 11, 69, 80
14, 108689, Note_on_c, 11, 69, 0
14, 108720, Note_on_c, 11, 66, 80
14, 108809, Note_on_c, 11, 66, 0
14, 108840, Note_on_c, 11, 74, 80
14, 109064, Note_on_c, 11, 74, 0
14, 109080, Note_on_c, 11, 72, 80
14, 109169, Note_on_c, 11, 72, 0
14, 109200, Note_on_c, 11, 70, 80
14, 109289, Note_on_c, 11, 70, 0
14, 109320, Note_on_c, 11, 69, 80
14, 109409, Note_on_c, 11, 69, 0
14, 109440, Note_on_c, 11, 67, 80
14, 109529, Note_on_c, 11, 67, 0
14, 109560, Note_on_c, 11, 65, 80
14, 109649, Note_on_c, 11, 65, 0
14, 109680, Note_on_c, 11, 63, 80
14, 109769, Note_on_c, 11, 63, 0
14, 109800, Note_on_c, 11, 75, 80
14, 110024, Note_on_c, 11, 75, 0
14, 110040, Note_on_c, 11, 76, 80
14, 110129, Note_on_c, 11, 76, 0
14, 110160, Note_on_c, 11, 77, 80
14, 110249, Note_on_c, 11, 77, 0
14, 110280, Note_on_c, 11, 79, 80
14, 110459, Note_on_c, 11, 79, 0
14, 110460, Note_on_c, 11, 77, 80
14, 110511, Note_on_c, 11, 77, 0
14, 110520, Note_on_c, 11, 77, 80
14, 110564, Note_on_c, 11, 77, 0
14, 110580, Note_on_c, 11, 75, 80
14, 110624, Note_on_c, 11, 75, 0
14, 110640, Note_on_c, 11, 75, 80
14, 110684, Note_on_c, 11, 75, 0
14, 110700, Note_on_c, 11, 74, 80
14, 110744, Note_on_c, 11, 74, 0
14, 110760, Note_on_c, 11, 75, 80
14, 110804, Note_on_c, 11, 75, 0
14, 110820, Note_on_c, 11, 77, 80
14, 110864, Note_on_c, 11, 77, 0
14, 110880, Note_on_c, 11, 74, 80
14, 111119, Note_on_c, 11, 74, 0
14, 111180, Note_on_c, 11, 77, 80
14, 111224, Note_on_c, 11, 77, 0
14, 111240, Note_on_c, 11, 75, 80
14, 111284, Note_on_c, 11, 75, 0
14, 111300, Note_on_c, 11, 74, 80
14, 111344, Note_on_c, 11, 74, 0
14, 111360, Note_on_c, 11, 74, 80
14, 111419, Note_on_c, 11, 74, 0
14, 111420, Note_on_c, 11, 72, 80
14, 111471, Note_on_c, 11, 72, 0
14, 111480, Note_on_c, 11, 72, 80
14, 111524, Note_on_c, 11, 72, 0
14, 111540, Note_on_c, 11, 75, 80
14, 111584, Note_on_c, 11, 75, 0
14, 111600, Note_on_c, 11, 75, 80
14, 111644, Note_on_c, 11, 75, 0
14, 111660, Note_on_c, 11, 75, 80
14, 111704, Note_on_c, 11, 75, 0
14, 111720, Note_on_c, 11, 74, 80
14, 111764, Note_on_c, 11, 74, 0
14, 111780, Note_on_c, 11, 72, 80
14, 111824, Note_on_c, 11, 72, 0
14, 111840, Note_on_c, 11, 75, 80
14, 111899, Note_on_c, 11, 75, 0
14, 111900, Note_on_c, 11, 74, 80
14, 111951, Note_on_c, 11, 74, 0
14, 111960, Note_on_c, 11, 74, 80
14, 112004, Note_on_c, 11, 74, 0
14, 112020, Note_on_c, 11, 77, 80
14, 112064, Note_on_c, 11, 77, 0
14, 112080, Note_on_c, 11, 74, 80
14, 112124, Note_on_c, 11, 74, 0
14, 112140, Note_on_c, 11, 77, 80
14, 112184, Note_on_c, 11, 77, 0
14, 112200, Note_on_c, 11, 75, 80
14, 112244, Note_on_c, 11, 75, 0
14, 112260, Note_on_c, 11, 74, 80
14, 112304, Note_on_c, 11, 74, 0
14, 112320, Note_on_c, 11, 82, 80
14, 112379, Note_on_c, 11, 82, 0
14, 112380, Note_on_c, 11, 81, 80
14, 112431, Note_on_c, 11, 81, 0
14, 112440, Note_on_c, 11, 81, 80
14, 112484, Note_on_c, 11, 81, 0
14, 112500, Note_on_c, 11, 84, 80
14, 112544, Note_on_c, 11, 84, 0
14, 112560, Note_on_c, 11, 81, 80
14, 112604, Note_on_c, 11, 81, 0
14, 112620, Note_on_c, 11, 81, 80
14, 112664, Note_on_c, 11, 81, 0
14, 112680, Note_on_c, 11, 82, 80
14, 112724, Note_on_c, 11, 82, 0
14, 112740, Note_on_c, 11, 84, 80
14, 112784, Note_on_c, 11, 84, 0
14, 112800, Note_on_c, 11, 70, 80
14, 113091, Note_on_c, 11, 70, 0
14, 113100, Note_on_c, 11, 74, 80
14, 113144, Note_on_c, 11, 74, 0
14, 113160, Note_on_c, 11, 72, 80
14, 113204, Note_on_c, 11, 72, 0
14, 113220, Note_on_c, 11, 70, 80
14, 113264, Note_on_c, 11, 70, 0
14, 113280, Note_on_c, 11, 77, 80
14, 113369, Note_on_c, 11, 77, 0
14, 113400, Note_on_c, 11, 75, 80
14, 113489, Note_on_c, 11, 75, 0
14, 113520, Note_on_c, 11, 72, 80
14, 113609, Note_on_c, 11, 72, 0
14, 113640, Note_on_c, 11, 77, 80
14, 113864, Note_on_c, 11, 77, 0
14, 113880, Note_on_c, 11, 74, 80
14, 113969, Note_on_c, 11, 74, 0
14, 114000, Note_on_c, 11, 70, 80
14, 114089, Note_on_c, 11, 70, 0
14, 114120, Note_on_c, 11, 77, 80
14, 114344, Note_on_c, 11, 77, 0
14, 114360, Note_on_c, 11, 72, 80
14, 114449, Note_on_c, 11, 72, 0
14, 114480, Note_on_c, 11, 69, 80
14, 114569, Note_on_c, 11, 69, 0
14, 114600, Note_on_c, 11, 77, 80
14, 114824, Note_on_c, 11, 77, 0
14, 114840, Note_on_c, 11, 74, 80
14, 114929, Note_on_c, 11, 74, 0
14, 114960, Note_on_c, 11, 70, 80
14, 115049, Note_on_c, 11, 70, 0
14, 115080, Note_on_c, 11, 79, 80
14, 115304, Note_on_c, 11, 79, 0
14, 115320, Note_on_c, 11, 74, 80
14, 115409, Note_on_c, 11, 74, 0
14, 115440, Note_on_c, 11, 62, 80
14, 115529, Note_on_c, 11, 62, 0
14, 115560, Note_on_c, 11, 79, 80
14, 115784, Note_on_c, 11, 79, 0
14, 115800, Note_on_c, 11, 74, 80
14, 115889, Note_on_c, 11, 74, 0
14, 115920, Note_on_c, 11, 62, 80
14, 116009, Note_on_c, 11, 62, 0
14, 116040, Note_on_c, 11, 77, 80
14, 116264, Note_on_c, 11, 77, 0
14, 116280, Note_on_c, 11, 71, 80
14, 116369, Note_on_c, 11, 71, 0
14, 116400, Note_on_c, 11, 62, 80
14, 116489, Note_on_c, 11, 62, 0
14, 116520, Note_on_c, 11, 77, 80
14, 116744, Note_on_c, 11, 77, 0
14, 116760, Note_on_c, 11, 71, 80
14, 116849, Note_on_c, 11, 71, 0
14, 116880, Note_on_c, 11, 62, 80
14, 116969, Note_on_c, 11, 62, 0
14, 117000, Note_on_c, 11, 88, 80
14, 117224, Note_on_c, 11, 88, 0
14, 117240, Note_on_c, 11, 69, 80
14, 117329, Note_on_c, 11, 69, 0
14, 117360, Note_on_c, 11, 62, 80
14, 117449, Note_on_c, 11, 62, 0
14, 117480, Note_on_c, 11, 88, 80
14, 117704, Note_on_c, 11, 88, 0
14, 117720, Note_on_c, 11, 69, 80
14, 117809, Note_on_c, 11, 69, 0
14, 117840, Note_on_c, 11, 62, 80
14, 117929, Note_on_c, 11, 62, 0
14, 117960, Note_on_c, 11, 86, 80
14, 118184, Note_on_c, 11, 86, 0
14, 118200, Note_on_c, 11, 76, 80
14, 118289, Note_on_c, 11, 76, 0
14, 118320, Note_on_c, 11, 69, 80
14, 118409, Note_on_c, 11, 69, 0
14, 118440, Note_on_c, 11, 86, 80
14, 118664, Note_on_c, 11, 86, 0
14, 118680, Note_on_c, 11, 76, 80
14, 118769, Note_on_c, 11, 76, 0
14, 118800, Note_on_c, 11, 69, 80
14, 118889, Note_on_c, 11, 69, 0
14, 118920, Note_on_c, 11, 84, 80
14, 119144, Note_on_c, 11, 84, 0
14, 119160, Note_on_c, 11, 80, 80
14, 119249, Note_on_c, 11, 80, 0
14, 119280, Note_on_c, 11, 77, 80
14, 119369, Note_on_c, 11, 77, 0
14, 119880, Note_on_c, 11, 84, 80
14, 120104, Note_on_c, 11, 84, 0
14, 120120, Note_on_c, 11, 80, 80
14, 120209, Note_on_c, 11, 80, 0
14, 120240, Note_on_c, 11, 77, 80
14, 120329, Note_on_c, 11, 77, 0
14, 120840, Control_c, 11, 11, 127
14, 120840, Note_on_c, 11, 71, 80
14, 120853, Control_c, 11, 11, 120
14, 120867, Control_c, 11, 11, 114
14, 120880, Control_c, 11, 11, 107
14, 120893, Control_c, 11, 11, 100
14, 120907, Control_c, 11, 11, 94
14, 120920, Control_c, 11, 11, 87
14, 120933, Control_c, 11, 11, 80
14, 120947, Control_c, 11, 11, 74
14, 120953, Control_c, 11, 11, 67
14, 120959, Note_on_c, 11, 71, 0
14, 120960, Note_on_c, 11, 71, 80
14, 121251, Note_on_c, 11, 71, 0
14, 121260, Note_on_c, 11, 74, 80
14, 121304, Note_on_c, 11, 74, 0
14, 121320, Note_on_c, 11, 72, 80
14, 121364, Note_on_c, 11, 72, 0
14, 121380, Note_on_c, 11, 71, 80
14, 121424, Note_on_c, 11, 71, 0
14, 121440, Note_on_c, 11, 71, 74
14, 121731, Note_on_c, 11, 71, 0
14, 121740, Note_on_c, 11, 74, 74
14, 121784, Note_on_c, 11, 74, 0
14, 121800, Note_on_c, 11, 72, 74
14, 121844, Note_on_c, 11, 72, 0
14, 121860, Note_on_c, 11, 71, 74
14, 121904, Note_on_c, 11, 71, 0
14, 121920, Note_on_c, 11, 72, 74
14, 122039, Note_on_c, 11, 72, 0
14, 122160, Control_c, 11, 11, 127
14, 122220, Note_on_c, 11, 69, 38
14, 122264, Note_on_c, 11, 69, 0
14, 122280, Note_on_c, 11, 71, 38
14, 122324, Note_on_c, 11, 71, 0
14, 122340, Note_on_c, 11, 72, 38
14, 122384, Note_on_c, 11, 72, 0
14, 122400, Note_on_c, 11, 72, 38
14, 122519, Note_on_c, 11, 72, 0
14, 122700, Note_on_c, 11, 72, 38
14, 122744, Note_on_c, 11, 72, 0
14, 122760, Note_on_c, 11, 74, 38
14, 122804, Note_on_c, 11, 74, 0
14, 122820, Note_on_c, 11, 76, 38
14, 122864, Note_on_c, 11, 76, 0
14, 122880, Note_on_c, 11, 71, 38
14, 123171, Note_on_c, 11, 71, 0
14, 123180, Note_on_c, 11, 74, 38
14, 123224, Note_on_c, 11, 74, 0
14, 123240, Note_on_c, 11, 72, 38
14, 123284, Note_on_c, 11, 72, 0
14, 123300, Note_on_c, 11, 71, 38
14, 123344, Note_on_c, 11, 71, 0
14, 123360, Note_on_c, 11, 71, 32
14, 123651, Note_on_c, 11, 71, 0
14, 123660, Note_on_c, 11, 74, 32
14, 123704, Note_on_c, 11, 74, 0
14, 123720, Note_on_c, 11, 72, 32
14, 123764, Note_on_c, 11, 72, 0
14, 123780, Note_on_c, 11, 71, 32
14, 123824, Note_on_c, 11, 71, 0
14, 123840, Note_on_c, 11, 69, 32
14, 124139, Note_on_c, 11, 69, 0
14, 124140, Note_on_c, 11, 72, 32
14, 124191, Note_on_c, 11, 72, 0
14, 124200, Note_on_c, 11, 71, 32
14, 124244, Note_on_c, 11, 71, 0
14, 124260, Note_on_c, 11, 69, 32
14, 124304, Note_on_c, 11, 69, 0
14, 124320, Note_on_c, 11, 69, 32
14, 124619, Note_on_c, 11, 69, 0
14, 124620, Note_on_c, 11, 72, 32
14, 124671, Note_on_c, 11, 72, 0
14, 124680, Note_on_c, 11, 71, 32
14, 124724, Note_on_c, 11, 71, 0
14, 124740, Note_on_c, 11, 69, 32
14, 124784, Note_on_c, 11, 69, 0
14, 124800, Note_on_c, 11, 69, 32
14, 125039, Note_on_c, 11, 69, 0
14, 125040, Note_on_c, 11, 68, 32
14, 125279, Note_on_c, 11, 68, 0
14, 125280, Note_on_c, 11, 68, 32
14, 125744, Note_on_c, 11, 68, 0
14, 125760, Note_on_c, 11, 81, 32
14, 126059, Note_on_c, 11, 81, 0
14, 126060, Note_on_c, 11, 84, 32
14, 126111, Note_on_c, 11, 84, 0
14, 126120, Note_on_c, 11, 83, 32
14, 126164, Note_on_c, 11, 83, 0
14, 126180, Note_on_c, 11, 81, 32
14, 126224, Note_on_c, 11, 81, 0
14, 126240, Note_on_c, 11, 81, 32
14, 126539, Note_on_c, 11, 81, 0
14, 126540, Note_on_c, 11, 84, 32
14, 126591, Note_on_c, 11, 84, 0
14, 126600, Note_on_c, 11, 83, 32
14, 126644, Note_on_c, 11, 83, 0
14, 126660, Note_on_c, 11, 81, 32
14, 126704, Note_on_c, 11, 81, 0
14, 126718, Control_c, 11, 11, 67
14, 126720, Note_on_c, 11, 81, 68
14, 126720, Control_c, 11, 11, 67
14, 126760, Control_c, 11, 11, 68
14, 126800, Control_c, 11, 11, 69
14, 126840, Control_c, 11, 11, 70
14, 126880, Control_c, 11, 11, 71
14, 126920, Control_c, 11, 11, 72
14, 126959, Note_on_c, 11, 81, 0
14, 126960, Control_c, 11, 11, 73
14, 126960, Note_on_c, 11, 80, 68
14, 127000, Control_c, 11, 11, 74
14, 127040, Control_c, 11, 11, 75
14, 127080, Control_c, 11, 11, 76
14, 127120, Control_c, 11, 11, 77
14, 127160, Control_c, 11, 11, 78
14, 127199, Note_on_c, 11, 80, 0
14, 127200, Note_on_c, 11, 80, 68
14, 127200, Control_c, 11, 11, 79
14, 127240, Control_c, 11, 11, 80
14, 127280, Control_c, 11, 11, 81
14, 127320, Control_c, 11, 11, 82
14, 127360, Control_c, 11, 11, 83
14, 127400, Control_c, 11, 11, 84
14, 127440, Control_c, 11, 11, 85
14, 127480, Control_c, 11, 11, 86
14, 127520, Control_c, 11, 11, 87
14, 127560, Control_c, 11, 11, 88
14, 127600, Control_c, 11, 11, 89
14, 127640, Control_c, 11, 11, 90
14, 127664, Note_on_c, 11, 80, 0
14, 127680, Note_on_c, 11, 81, 68
14, 127680, Control_c, 11, 11, 91
14, 127720, Control_c, 11, 11, 92
14, 127760, Control_c, 11, 11, 93
14, 127799, Note_on_c, 11, 81, 0
14, 127800, Control_c, 11, 11, 94
14, 131040, Control_c, 11, 11, 127
14, 131100, Note_on_c, 11, 69, 32
14, 131144, Note_on_c, 11, 69, 0
14, 131160, Note_on_c, 11, 67, 32
14, 131204, Note_on_c, 11, 67, 0
14, 131220, Note_on_c, 11, 65, 32
14, 131264, Note_on_c, 11, 65, 0
14, 131280, Note_on_c, 11, 64, 32
14, 131399, Note_on_c, 11, 64, 0
14, 131760, Note_on_c, 11, 64, 32
14, 131879, Note_on_c, 11, 64, 0
14, 132240, Note_on_c, 11, 69, 32
14, 132359, Note_on_c, 11, 69, 0
14, 132720, Note_on_c, 11, 68, 32
14, 132839, Note_on_c, 11, 68, 0
14, 133200, Note_on_c, 11, 71, 32
14, 133304, Note_on_c, 11, 71, 0
14, 133320, Note_on_c, 11, 74, 38
14, 133439, Note_on_c, 11, 74, 0
14, 133440, Note_on_c, 11, 74, 38
14, 133499, Note_on_c, 11, 74, 0
14, 133500, Note_on_c, 11, 72, 38
14, 133544, Note_on_c, 11, 72, 0
14, 133560, Note_on_c, 11, 76, 38
14, 133604, Note_on_c, 11, 76, 0
14, 133620, Note_on_c, 11, 80, 38
14, 133664, Note_on_c, 11, 80, 0
14, 133680, Note_on_c, 11, 81, 38
14, 133799, Note_on_c, 11, 81, 0
14, 133920, Note_on_c, 11, 69, 38
14, 133979, Note_on_c, 11, 69, 0
14, 133980, Note_on_c, 11, 72, 38
14, 134024, Note_on_c, 11, 72, 0
14, 134040, Note_on_c, 11, 77, 38
14, 134084, Note_on_c, 11, 77, 0
14, 134100, Note_on_c, 11, 79, 38
14, 134144, Note_on_c, 11, 79, 0
14, 134160, Note_on_c, 11, 81, 38
14, 134279, Note_on_c, 11, 81, 0
14, 134400, Note_on_c, 11, 72, 38
14, 134459, Note_on_c, 11, 72, 0
14, 134460, Note_on_c, 11, 76, 38
14, 134504, Note_on_c, 11, 76, 0
14, 134520, Note_on_c, 11, 79, 38
14, 134564, Note_on_c, 11, 79, 0
14, 134580, Note_on_c, 11, 81, 38
14, 134624, Note_on_c, 11, 81, 0
14, 134640, Note_on_c, 11, 82, 38
14, 134759, Note_on_c, 11, 82, 0
14, 134880, Note_on_c, 11, 70, 38
14, 134939, Note_on_c, 11, 70, 0
14, 134940, Note_on_c, 11, 76, 38
14, 134984, Note_on_c, 11, 76, 0
14, 135000, Note_on_c, 11, 79, 38
14, 135044, Note_on_c, 11, 79, 0
14, 135060, Note_on_c, 11, 81, 38
14, 135104, Note_on_c, 11, 81, 0
14, 135120, Note_on_c, 11, 82, 38
14, 135239, Note_on_c, 11, 82, 0
14, 135360, Control_c, 11, 11, 67
14, 135384, Control_c, 11, 11, 68
14, 135408, Control_c, 11, 11, 69
14, 135432, Control_c, 11, 11, 70
14, 135456, Control_c, 11, 11, 71
14, 135480, Note_on_c, 11, 69, 68
14, 135480, Control_c, 11, 11, 72
14, 135504, Control_c, 11, 11, 73
14, 135528, Control_c, 11, 11, 74
14, 135552, Control_c, 11, 11, 75
14, 135576, Control_c, 11, 11, 76
14, 135600, Control_c, 11, 11, 77
14, 135624, Control_c, 11, 11, 78
14, 135648, Control_c, 11, 11, 79
14, 135672, Control_c, 11, 11, 80
14, 135696, Control_c, 11, 11, 81
14, 135719, Note_on_c, 11, 69, 0
14, 135720, Control_c, 11, 11, 82
14, 135720, Note_on_c, 11, 74, 68
14, 135744, Control_c, 11, 11, 83
14, 135768, Control_c, 11, 11, 84
14, 135779, Note_on_c, 11, 74, 0
14, 135780, Note_on_c, 11, 72, 68
14, 135792, Control_c, 11, 11, 85
14, 135816, Control_c, 11, 11, 86
14, 135839, Note_on_c, 11, 72, 0
14, 135840, Control_c, 11, 11, 87
14, 135864, Control_c, 11, 11, 88
14, 135888, Control_c, 11, 11, 89
14, 135912, Control_c, 11, 11, 90
14, 135936, Control_c, 11, 11, 91
14, 135960, Control_c, 11, 11, 92
14, 135960, Note_on_c, 11, 72, 68
14, 135984, Control_c, 11, 11, 93
14, 136008, Control_c, 11, 11, 94
14, 136032, Control_c, 11, 11, 95
14, 136056, Control_c, 11, 11, 96
14, 136080, Control_c, 11, 11, 97
14, 136104, Control_c, 11, 11, 98
14, 136128, Control_c, 11, 11, 99
14, 136152, Control_c, 11, 11, 100
14, 136176, Control_c, 11, 11, 101
14, 136199, Note_on_c, 11, 72, 0
14, 136200, Control_c, 11, 11, 102
14, 136200, Note_on_c, 11, 79, 68
14, 136224, Control_c, 11, 11, 103
14, 136248, Control_c, 11, 11, 104
14, 136259, Note_on_c, 11, 79, 0
14, 136260, Note_on_c, 11, 77, 68
14, 136272, Control_c, 11, 11, 105
14, 136296, Control_c, 11, 11, 106
14, 136319, Note_on_c, 11, 77, 0
14, 136320, Control_c, 11, 11, 107
14, 136344, Control_c, 11, 11, 108
14, 136368, Control_c, 11, 11, 109
14, 136392, Control_c, 11, 11, 110
14, 136416, Control_c, 11, 11, 111
14, 136440, Control_c, 11, 11, 112
14, 136440, Note_on_c, 11, 76, 68
14, 136464, Control_c, 11, 11, 113
14, 136488, Control_c, 11, 11, 114
14, 136512, Control_c, 11, 11, 115
14, 136536, Control_c, 11, 11, 116
14, 136560, Control_c, 11, 11, 117
14, 136584, Control_c, 11, 11, 118
14, 136608, Control_c, 11, 11, 119
14, 136632, Control_c, 11, 11, 120
14, 136656, Control_c, 11, 11, 121
14, 136679, Note_on_c, 11, 76, 0
14, 136680, Note_on_c, 11, 84, 68
14, 136680, Control_c, 11, 11, 122
14, 136704, Control_c, 11, 11, 123
14, 136728, Control_c, 11, 11, 124
14, 136739, Note_on_c, 11, 84, 0
14, 136740, Note_on_c, 11, 82, 68
14, 136752, Control_c, 11, 11, 125
14, 136776, Control_c, 11, 11, 127
14, 136799, Note_on_c, 11, 82, 0
14, 136920, Control_c, 11, 11, 127
14, 136920, Note_on_c, 11, 79, 68
14, 136940, Control_c, 11, 11, 125
14, 136960, Control_c, 11, 11, 123
14, 136980, Control_c, 11, 11, 120
14, 137000, Control_c, 11, 11, 118
14, 137020, Control_c, 11, 11, 116
14, 137040, Control_c, 11, 11, 114
14, 137060, Control_c, 11, 11, 111
14, 137080, Control_c, 11, 11, 109
14, 137100, Control_c, 11, 11, 107
14, 137120, Control_c, 11, 11, 105
14, 137140, Control_c, 11, 11, 103
14, 137159, Note_on_c, 11, 79, 0
14, 137160, Control_c, 11, 11, 100
14, 137160, Note_on_c, 11, 86, 68
14, 137180, Control_c, 11, 11, 98
14, 137200, Control_c, 11, 11, 96
14, 137219, Note_on_c, 11, 86, 0
14, 137220, Note_on_c, 11, 84, 68
14, 137220, Control_c, 11, 11, 94
14, 137240, Control_c, 11, 11, 91
14, 137260, Control_c, 11, 11, 87
14, 137271, Note_on_c, 11, 84, 0
14, 137280, Note_on_c, 11, 84, 68
14, 137324, Note_on_c, 11, 84, 0
14, 137340, Note_on_c, 11, 84, 68
14, 137384, Note_on_c, 11, 84, 0
14, 137400, Note_on_c, 11, 86, 68
14, 137444, Note_on_c, 11, 86, 0
14, 137460, Note_on_c, 11, 88, 68
14, 137504, Note_on_c, 11, 88, 0
14, 137520, Note_on_c, 11, 89, 68
14, 137811, Note_on_c, 11, 89, 0
14, 137820, Note_on_c, 11, 84, 68
14, 137864, Note_on_c, 11, 84, 0
14, 137880, Note_on_c, 11, 86, 68
14, 137924, Note_on_c, 11, 86, 0
14, 137940, Note_on_c, 11, 88, 68
14, 137984, Note_on_c, 11, 88, 0
14, 138000, Note_on_c, 11, 89, 68
14, 138119, Note_on_c, 11, 89, 0
14, 138120, Note_on_c, 11, 81, 68
14, 138224, Note_on_c, 11, 81, 0
14, 138240, Note_on_c, 11, 82, 68
14, 138539, Note_on_c, 11, 82, 0
14, 138540, Note_on_c, 11, 86, 68
14, 138591, Note_on_c, 11, 86, 0
14, 138600, Note_on_c, 11, 84, 68
14, 138644, Note_on_c, 11, 84, 0
14, 138660, Note_on_c, 11, 82, 68
14, 138704, Note_on_c, 11, 82, 0
14, 138720, Note_on_c, 11, 82, 68
14, 139019, Note_on_c, 11, 82, 0
14, 139020, Note_on_c, 11, 86, 68
14, 139071, Note_on_c, 11, 86, 0
14, 139080, Note_on_c, 11, 84, 68
14, 139124, Note_on_c, 11, 84, 0
14, 139140, Note_on_c, 11, 82, 68
14, 139184, Note_on_c, 11, 82, 0
14, 139200, Note_on_c, 11, 81, 68
14, 139244, Note_on_c, 11, 81, 0
14, 139260, Note_on_c, 11, 69, 68
14, 139304, Note_on_c, 11, 69, 0
14, 139320, Note_on_c, 11, 70, 68
14, 139364, Note_on_c, 11, 70, 0
14, 139380, Note_on_c, 11, 72, 68
14, 139424, Note_on_c, 11, 72, 0
14, 139440, Note_on_c, 11, 72, 68
14, 139731, Note_on_c, 11, 72, 0
14, 139740, Note_on_c, 11, 69, 68
14, 139784, Note_on_c, 11, 69, 0
14, 139800, Note_on_c, 11, 70, 68
14, 139844, Note_on_c, 11, 70, 0
14, 139860, Note_on_c, 11, 72, 68
14, 139904, Note_on_c, 11, 72, 0
14, 139920, Note_on_c, 11, 72, 68
14, 140211, Note_on_c, 11, 72, 0
14, 140220, Note_on_c, 11, 76, 68
14, 140264, Note_on_c, 11, 76, 0
14, 140280, Note_on_c, 11, 77, 68
14, 140324, Note_on_c, 11, 77, 0
14, 140340, Note_on_c, 11, 79, 68
14, 140384, Note_on_c, 11, 79, 0
14, 140400, Note_on_c, 11, 79, 68
14, 140691, Note_on_c, 11, 79, 0
14, 140700, Note_on_c, 11, 76, 68
14, 140744, Note_on_c, 11, 76, 0
14, 140760, Note_on_c, 11, 77, 68
14, 140804, Note_on_c, 11, 77, 0
14, 140820, Note_on_c, 11, 79, 68
14, 140864, Note_on_c, 11, 79, 0
14, 140880, Note_on_c, 11, 79, 68
14, 141104, Note_on_c, 11, 79, 0
14, 141118, Control_c, 11, 11, 67
14, 141120, Control_c, 11, 11, 67
14, 141120, Note_on_c, 11, 79, 80
14, 141140, Control_c, 11, 11, 68
14, 141160, Control_c, 11, 11, 70
14, 141180, Control_c, 11, 11, 71
14, 141200, Control_c, 11, 11, 72
14, 141220, Control_c, 11, 11, 73
14, 141240, Control_c, 11, 11, 75
14, 141260, Control_c, 11, 11, 76
14, 141280, Control_c, 11, 11, 77
14, 141300, Control_c, 11, 11, 78
14, 141320, Control_c, 11, 11, 80
14, 141340, Control_c, 11, 11, 81
14, 141360, Control_c, 11, 11, 82
14, 141380, Control_c, 11, 11, 83
14, 141400, Control_c, 11, 11, 85
14, 141419, Note_on_c, 11, 79, 0
14, 141420, Note_on_c, 11, 82, 80
14, 141420, Control_c, 11, 11, 86
14, 141440, Control_c, 11, 11, 87
14, 141460, Control_c, 11, 11, 88
14, 141471, Note_on_c, 11, 82, 0
14, 141480, Note_on_c, 11, 81, 80
14, 141480, Control_c, 11, 11, 90
14, 141500, Control_c, 11, 11, 91
14, 141520, Control_c, 11, 11, 92
14, 141524, Note_on_c, 11, 81, 0
14, 141540, Control_c, 11, 11, 93
14, 141540, Note_on_c, 11, 79, 80
14, 141560, Control_c, 11, 11, 95
14, 141580, Control_c, 11, 11, 96
14, 141584, Note_on_c, 11, 79, 0
14, 141600, Control_c, 11, 11, 97
14, 141600, Note_on_c, 11, 79, 80
14, 141620, Control_c, 11, 11, 98
14, 141640, Control_c, 11, 11, 100
14, 141660, Control_c, 11, 11, 101
14, 141680, Control_c, 11, 11, 102
14, 141700, Control_c, 11, 11, 103
14, 141720, Control_c, 11, 11, 105
14, 141740, Control_c, 11, 11, 106
14, 141760, Control_c, 11, 11, 107
14, 141780, Control_c, 11, 11, 108
14, 141800, Control_c, 11, 11, 110
14, 141820, Control_c, 11, 11, 111
14, 141840, Control_c, 11, 11, 112
14, 141860, Control_c, 11, 11, 113
14, 141880, Control_c, 11, 11, 115
14, 141899, Note_on_c, 11, 79, 0
14, 141900, Control_c, 11, 11, 116
14, 141900, Note_on_c, 11, 82, 80
14, 141920, Control_c, 11, 11, 117
14, 141940, Control_c, 11, 11, 118
14, 141951, Note_on_c, 11, 82, 0
14, 141960, Note_on_c, 11, 81, 80
14, 141960, Control_c, 11, 11, 120
14, 141980, Control_c, 11, 11, 121
14, 142000, Control_c, 11, 11, 122
14, 142004, Note_on_c, 11, 81, 0
14, 142020, Note_on_c, 11, 79, 80
14, 142020, Control_c, 11, 11, 123
14, 142040, Control_c, 11, 11, 125
14, 142060, Control_c, 11, 11, 127
14, 142064, Note_on_c, 11, 79, 0
14, 142080, Note_on_c, 11, 79, 80
14, 142124, Note_on_c, 11, 79, 0
14, 142140, Note_on_c, 11, 79, 80
14, 142184, Note_on_c, 11, 79, 0
14, 142200, Note_on_c, 11, 77, 80
14, 142244, Note_on_c, 11, 77, 0
14, 142260, Note_on_c, 11, 76, 80
14, 142304, Note_on_c, 11, 76, 0
14, 142320, Note_on_c, 11, 73, 80
14, 142364, Note_on_c, 11, 73, 0
14, 142380, Note_on_c, 11, 88, 80
14, 142424, Note_on_c, 11, 88, 0
14, 142440, Note_on_c, 11, 86, 80
14, 142484, Note_on_c, 11, 86, 0
14, 142500, Note_on_c, 11, 85, 80
14, 142544, Note_on_c, 11, 85, 0
14, 142560, Note_on_c, 11, 79, 80
14, 142604, Note_on_c, 11, 79, 0
14, 142620, Note_on_c, 11, 82, 80
14, 142664, Note_on_c, 11, 82, 0
14, 142680, Note_on_c, 11, 81, 80
14, 142724, Note_on_c, 11, 81, 0
14, 142740, Note_on_c, 11, 79, 80
14, 142784, Note_on_c, 11, 79, 0
14, 142800, Note_on_c, 11, 76, 80
14, 142844, Note_on_c, 11, 76, 0
14, 142860, Note_on_c, 11, 79, 80
14, 142904, Note_on_c, 11, 79, 0
14, 142920, Note_on_c, 11, 77, 80
14, 142964, Note_on_c, 11, 77, 0
14, 142980, Note_on_c, 11, 76, 80
14, 143024, Note_on_c, 11, 76, 0
14, 143040, Note_on_c, 11, 73, 80
14, 143084, Note_on_c, 11, 73, 0
14, 143100, Note_on_c, 11, 76, 80
14, 143144, Note_on_c, 11, 76, 0
14, 143160, Note_on_c, 11, 74, 80
14, 143204, Note_on_c, 11, 74, 0
14, 143220, Note_on_c, 11, 73, 80
14, 143264, Note_on_c, 11, 73, 0
14, 143280, Note_on_c, 11, 67, 80
14, 143324, Note_on_c, 11, 67, 0
14, 143340, Note_on_c, 11, 70, 80
14, 143384, Note_on_c, 11, 70, 0
14, 143400, Note_on_c, 11, 69, 80
14, 143444, Note_on_c, 11, 69, 0
14, 143460, Note_on_c, 11, 67, 80
14, 143504, Note_on_c, 11, 67, 0
14, 143520, Note_on_c, 11, 64, 80
14, 143564, Note_on_c, 11, 64, 0
14, 143580, Note_on_c, 11, 65, 80
14, 143624, Note_on_c, 11, 65, 0
14, 143640, Note_on_c, 11, 64, 80
14, 143684, Note_on_c, 11, 64, 0
14, 143700, Note_on_c, 11, 62, 80
14, 143744, Note_on_c, 11, 62, 0
14, 143760, Note_on_c, 11, 61, 80
14, 143804, Note_on_c, 11, 61, 0
14, 143820, Note_on_c, 11, 58, 80
14, 143864, Note_on_c, 11, 58, 0
14, 143880, Note_on_c, 11, 57, 80
14, 143924, Note_on_c, 11, 57, 0
14, 143940, Note_on_c, 11, 55, 80
14, 143984, Note_on_c, 11, 55, 0
14, 144000, Note_on_c, 11, 86, 92
14, 144000, Note_on_c, 11, 62, 92
14, 144000, Note_on_c, 11, 74, 92
14, 144239, Note_on_c, 11, 86, 0
14, 144239, Note_on_c, 11, 62, 0
14, 144239, Note_on_c, 11, 74, 0
14, 144930, Note_on_c, 11, 81, 92
14, 144951, Note_on_c, 11, 81, 0
14, 144960, Note_on_c, 11, 74, 92
14, 145199, Note_on_c, 11, 74, 0
14, 145410, Note_on_c, 11, 74, 92
14, 145431, Note_on_c, 11, 74, 0
14, 145440, Note_on_c, 11, 69, 92
14, 145679, Note_on_c, 11, 69, 0
14, 145920, Note_on_c, 11, 86, 92
14, 145920, Note_on_c, 11, 62, 92
14, 145920, Note_on_c, 11, 74, 92
14, 146159, Note_on_c, 11, 86, 0
14, 146159, Note_on_c, 11, 62, 0
14, 146159, Note_on_c, 11, 74, 0
14, 146850, Note_on_c, 11, 86, 92
14, 146871, Note_on_c, 11, 86, 0
14, 146880, Note_on_c, 11, 81, 92
14, 147119, Note_on_c, 11, 81, 0
14, 147330, Note_on_c, 11, 81, 92
14, 147351, Note_on_c, 11, 81, 0
14, 147360, Note_on_c, 11, 74, 92
14, 147599, Note_on_c, 11, 74, 0
14, 147840, Note_on_c, 11, 62, 92
14, 147840, Note_on_c, 11, 74, 92
14, 147840, Note_on_c, 11, 86, 92
14, 147959, Note_on_c, 11, 62, 0
14, 147959, Note_on_c, 11, 74, 0
14, 147959, Note_on_c, 11, 86, 0
14, 148050, Note_on_c, 11, 81, 92
14, 148071, Note_on_c, 11, 81, 0
14, 148080, Note_on_c, 11, 74, 92
14, 148199, Note_on_c, 11, 74, 0
14, 148290, Note_on_c, 11, 69, 92
14, 148311, Note_on_c, 11, 69, 0
14, 148320, Note_on_c, 11, 62, 92
14, 148439, Note_on_c, 11, 62, 0
14, 148800, Note_on_c, 11, 62, 92
14, 148800, Note_on_c, 11, 86, 92
14, 148800, Note_on_c, 11, 74, 92
14, 148851, Note_on_c, 11, 62, 0
14, 148851, Note_on_c, 11, 86, 0
14, 148851, Note_on_c, 11, 74, 0
14, 148860, Note_on_c, 11, 81, 92
14, 148904, Note_on_c, 11, 81, 0
14, 148920, Note_on_c, 11, 81, 92
14, 148979, Note_on_c, 11, 81, 0
14, 148980, Note_on_c, 11, 74, 92
14, 149039, Note_on_c, 11, 74, 0
14, 149100, Note_on_c, 11, 74, 92
14, 149144, Note_on_c, 11, 74, 0
14, 149160, Note_on_c, 11, 74, 92
14, 149219, Note_on_c, 11, 74, 0
14, 149220, Note_on_c, 11, 69, 92
14, 149279, Note_on_c, 11, 69, 0
14, 149340, Note_on_c, 11, 69, 92
14, 149384, Note_on_c, 11, 69, 0
14, 149400, Note_on_c, 11, 69, 92
14, 149459, Note_on_c, 11, 69, 0
14, 149460, Note_on_c, 11, 62, 92
14, 149519, Note_on_c, 11, 62, 0
14, 149760, Note_on_c, 11, 74, 92
14, 149760, Note_on_c, 11, 62, 92
14, 149760, Note_on_c, 11, 86, 92
14, 149811, Note_on_c, 11, 74, 0
14, 149811, Note_on_c, 11, 62, 0
14, 149811, Note_on_c, 11, 86, 0
14, 149820, Note_on_c, 11, 86, 92
14, 149864, Note_on_c, 11, 86, 0
14, 149880, Note_on_c, 11, 86, 92
14, 149939, Note_on_c, 11, 86, 0
14, 149940, Note_on_c, 11, 74, 92
14, 149991, Note_on_c, 11, 74, 0
14, 150000, Note_on_c, 11, 74, 92
14, 150059, Note_on_c, 11, 74, 0
14, 150060, Note_on_c, 11, 62, 92
14, 150111, Note_on_c, 11, 62, 0
14, 150120, Note_on_c, 11, 62, 92
14, 150179, Note_on_c, 11, 62, 0
14, 150180, Note_on_c, 11, 74, 92
14, 150231, Note_on_c, 11, 74, 0
14, 150240, Note_on_c, 11, 74, 92
14, 150299, Note_on_c, 11, 74, 0
14, 150300, Note_on_c, 11, 86, 92
14, 150351, Note_on_c, 11, 86, 0
14, 150360, Note_on_c, 11, 86, 92
14, 150419, Note_on_c, 11, 86, 0
14, 150420, Note_on_c, 11, 74, 92
14, 150471, Note_on_c, 11, 74, 0
14, 150480, Note_on_c, 11, 74, 92
14, 150539, Note_on_c, 11, 74, 0
14, 150540, Note_on_c, 11, 62, 92
14, 150591, Note_on_c, 11, 62, 0
14, 150600, Note_on_c, 11, 62, 92
14, 150644, Note_on_c, 11, 62, 0
14, 150690, Note_on_c, 11, 86, 92
14, 150711, Note_on_c, 11, 86, 0
14, 150720, Note_on_c, 11, 81, 92
14, 151161, Note_on_c, 11, 81, 0
14, 151170, Note_on_c, 11, 77, 92
14, 151191, Note_on_c, 11, 77, 0
14, 151200, Note_on_c, 11, 74, 92
14, 151401, Note_on_c, 11, 74, 0
14, 151410, Note_on_c, 11, 69, 92
14, 151431, Note_on_c, 11, 69, 0
14, 151440, Note_on_c, 11, 65, 92
14, 151604, Note_on_c, 11, 65, 0
14, 151620, Note_on_c, 11, 69, 92
14, 151649, Note_on_c, 11, 69, 0
14, 151650, Note_on_c, 11, 65, 92
14, 151671, Note_on_c, 11, 65, 0
14, 151680, Note_on_c, 11, 62, 92
14, 151705, Note_on_c, 11, 62, 0
14, 151710, Note_on_c, 11, 74, 92
14, 151710, Note_on_c, 11, 62, 92
14, 151735, Note_on_c, 11, 74, 0
14, 151735, Note_on_c, 11, 62, 0
14, 151740, Note_on_c, 11, 62, 92
14, 151740, Note_on_c, 11, 74, 92
14, 151765, Note_on_c, 11, 62, 0
14, 151765, Note_on_c, 11, 74, 0
14, 151770, Note_on_c, 11, 74, 92
14, 151770, Note_on_c, 11, 62, 92
14, 151795, Note_on_c, 11, 74, 0
14, 151795, Note_on_c, 11, 62, 0
14, 151800, Note_on_c, 11, 74, 92
14, 151800, Note_on_c, 11, 62, 92
14, 151825, Note_on_c, 11, 74, 0
14, 151825, Note_on_c, 11, 62, 0
14, 151830, Note_on_c, 11, 74, 92
14, 151830, Note_on_c, 11, 62, 92
14, 151855, Note_on_c, 11, 74, 0
14, 151855, Note_on_c, 11, 62, 0
14, 151860, Note_on_c, 11, 74, 92
14, 151860, Note_on_c, 11, 62, 92
14, 151885, Note_on_c, 11, 74, 0
14, 151885, Note_on_c, 11, 62, 0
14, 151890, Note_on_c, 11, 62, 92
14, 151890, Note_on_c, 11, 74, 92
14, 151915, Note_on_c, 11, 62, 0
14, 151915, Note_on_c, 11, 74, 0
14, 151920, Note_on_c, 11, 74, 92
14, 151920, Note_on_c, 11, 62, 92
14, 151945, Note_on_c, 11, 74, 0
14, 151945, Note_on_c, 11, 62, 0
14, 151950, Note_on_c, 11, 74, 92
14, 151950, Note_on_c, 11, 62, 92
14, 151975, Note_on_c, 11, 74, 0
14, 151975, Note_on_c, 11, 62, 0
14, 151980, Note_on_c, 11, 62, 92
14, 151980, Note_on_c, 11, 74, 92
14, 152005, Note_on_c, 11, 62, 0
14, 152005, Note_on_c, 11, 74, 0
14, 152010, Note_on_c, 11, 74, 92
14, 152010, Note_on_c, 11, 62, 92
14, 152035, Note_on_c, 11, 74, 0
14, 152035, Note_on_c, 11, 62, 0
14, 152040, Note_on_c, 11, 74, 92
14, 152040, Note_on_c, 11, 62, 92
14, 152065, Note_on_c, 11, 74, 0
14, 152065, Note_on_c, 11, 62, 0
14, 152070, Note_on_c, 11, 74, 92
14, 152070, Note_on_c, 11, 62, 92
14, 152095, Note_on_c, 11, 74, 0
14, 152095, Note_on_c, 11, 62, 0
14, 152100, Note_on_c, 11, 62, 92
14, 152100, Note_on_c, 11, 74, 92
14, 152125, Note_on_c, 11, 62, 0
14, 152125, Note_on_c, 11, 74, 0
14, 152130, Note_on_c, 11, 74, 92
14, 152130, Note_on_c, 11, 62, 92
14, 152155, Note_on_c, 11, 74, 0
14, 152155, Note_on_c, 11, 62, 0
14, 152160, Note_on_c, 11, 74, 92
14, 152160, Note_on_c, 11, 62, 92
14, 152185, Note_on_c, 11, 74, 0
14, 152185, Note_on_c, 11, 62, 0
14, 152190, Note_on_c, 11, 62, 92
14, 152190, Note_on_c, 11, 74, 92
14, 152215, Note_on_c, 11, 62, 0
14, 152215, Note_on_c, 11, 74, 0
14, 152220, Note_on_c, 11, 62, 92
14, 152220, Note_on_c, 11, 74, 92
14, 152245, Note_on_c, 11, 62, 0
14, 152245, Note_on_c, 11, 74, 0
14, 152250, Note_on_c, 11, 62, 92
14, 152250, Note_on_c, 11, 74, 92
14, 152275, Note_on_c, 11, 62, 0
14, 152275, Note_on_c, 11, 74, 0
14, 152280, Note_on_c, 11, 74, 92
14, 152280, Note_on_c, 11, 62, 92
14, 152305, Note_on_c, 11, 74, 0
14, 152305, Note_on_c, 11, 62, 0
14, 152310, Note_on_c, 11, 62, 92
14, 152310, Note_on_c, 11, 74, 92
14, 152335, Note_on_c, 11, 62, 0
14, 152335, Note_on_c, 11, 74, 0
14, 152340, Note_on_c, 11, 62, 92
14, 152340, Note_on_c, 11, 74, 92
14, 152365, Note_on_c, 11, 62, 0
14, 152365, Note_on_c, 11, 74, 0
14, 152370, Note_on_c, 11, 74, 92
14, 152370, Note_on_c, 11, 62, 92
14, 152395, Note_on_c, 11, 74, 0
14, 152395, Note_on_c, 11, 62, 0
14, 152400, Note_on_c, 11, 74, 92
14, 152400, Note_on_c, 11, 62, 92
14, 152425, Note_on_c, 11, 74, 0
14, 152425, Note_on_c, 11, 62, 0
14, 152430, Note_on_c, 11, 62, 92
14, 152430, Note_on_c, 11, 74, 92
14, 152455, Note_on_c, 11, 62, 0
14, 152455, Note_on_c, 11, 74, 0
14, 152460, Note_on_c, 11, 62, 92
14, 152460, Note_on_c, 11, 74, 92
14, 152485, Note_on_c, 11, 62, 0
14, 152485, Note_on_c, 11, 74, 0
14, 152490, Note_on_c, 11, 74, 92
14, 152490, Note_on_c, 11, 62, 92
14, 152515, Note_on_c, 11, 74, 0
14, 152515, Note_on_c, 11, 62, 0
14, 152520, Note_on_c, 11, 74, 92
14, 152520, Note_on_c, 11, 62, 92
14, 152545, Note_on_c, 11, 74, 0
14, 152545, Note_on_c, 11, 62, 0
14, 152550, Note_on_c, 11, 62, 92
14, 152550, Note_on_c, 11, 74, 92
14, 152575, Note_on_c, 11, 62, 0
14, 152575, Note_on_c, 11, 74, 0
14, 152580, Note_on_c, 11, 74, 92
14, 152580, Note_on_c, 11, 62, 92
14, 152605, Note_on_c, 11, 74, 0
14, 152605, Note_on_c, 11, 62, 0
14, 152610, Note_on_c, 11, 74, 92
14, 152610, Note_on_c, 11, 62, 92
14, 152635, Note_on_c, 11, 74, 0
14, 152635, Note_on_c, 11, 62, 0
14, 152640, Note_on_c, 11, 74, 92
14, 152640, Note_on_c, 11, 62, 92
14, 152931, Note_on_c, 11, 74, 0
14, 152931, Note_on_c, 11, 62, 0
14, 152940, Note_on_c, 11, 77, 92
14, 152984, Note_on_c, 11, 77, 0
14, 153000, Note_on_c, 11, 76, 92
14, 153044, Note_on_c, 11, 76, 0
14, 153060, Note_on_c, 11, 74, 92
14, 153104, Note_on_c, 11, 74, 0
14, 153120, Note_on_c, 11, 81, 92
14, 153209, Note_on_c, 11, 81, 0
14, 153240, Note_on_c, 11, 79, 92
14, 153329, Note_on_c, 11, 79, 0
14, 153360, Note_on_c, 11, 76, 92
14, 153449, Note_on_c, 11, 76, 0
14, 153480, Note_on_c, 11, 81, 92
14, 153569, Note_on_c, 11, 81, 0
14, 153600, Note_on_c, 11, 62, 92
14, 153600, Note_on_c, 11, 74, 92
14, 153625, Note_on_c, 11, 62, 0
14, 153625, Note_on_c, 11, 74, 0
14, 153630, Note_on_c, 11, 62, 92
14, 153630, Note_on_c, 11, 74, 92
14, 153655, Note_on_c, 11, 62, 0
14, 153655, Note_on_c, 11, 74, 0
14, 153660, Note_on_c, 11, 74, 92
14, 153660, Note_on_c, 11, 62, 92
14, 153685, Note_on_c, 11, 74, 0
14, 153685, Note_on_c, 11, 62, 0
14, 153690, Note_on_c, 11, 62, 92
14, 153690, Note_on_c, 11, 74, 92
14, 153715, Note_on_c, 11, 62, 0
14, 153715, Note_on_c, 11, 74, 0
14, 153720, Note_on_c, 11, 74, 92
14, 153720, Note_on_c, 11, 62, 92
14, 153745, Note_on_c, 11, 74, 0
14, 153745, Note_on_c, 11, 62, 0
14, 153750, Note_on_c, 11, 62, 92
14, 153750, Note_on_c, 11, 74, 92
14, 153775, Note_on_c, 11, 62, 0
14, 153775, Note_on_c, 11, 74, 0
14, 153780, Note_on_c, 11, 74, 92
14, 153780, Note_on_c, 11, 62, 92
14, 153805, Note_on_c, 11, 74, 0
14, 153805, Note_on_c, 11, 62, 0
14, 153810, Note_on_c, 11, 74, 92
14, 153810, Note_on_c, 11, 62, 92
14, 153835, Note_on_c, 11, 74, 0
14, 153835, Note_on_c, 11, 62, 0
14, 153840, Note_on_c, 11, 74, 92
14, 153840, Note_on_c, 11, 62, 92
14, 153865, Note_on_c, 11, 74, 0
14, 153865, Note_on_c, 11, 62, 0
14, 153870, Note_on_c, 11, 74, 92
14, 153870, Note_on_c, 11, 62, 92
14, 153895, Note_on_c, 11, 74, 0
14, 153895, Note_on_c, 11, 62, 0
14, 153900, Note_on_c, 11, 74, 92
14, 153900, Note_on_c, 11, 62, 92
14, 153925, Note_on_c, 11, 74, 0
14, 153925, Note_on_c, 11, 62, 0
14, 153930, Note_on_c, 11, 62, 92
14, 153930, Note_on_c, 11, 74, 92
14, 153955, Note_on_c, 11, 62, 0
14, 153955, Note_on_c, 11, 74, 0
14, 153960, Note_on_c, 11, 74, 92
14, 153960, Note_on_c, 11, 62, 92
14, 153985, Note_on_c, 11, 74, 0
14, 153985, Note_on_c, 11, 62, 0
14, 153990, Note_on_c, 11, 74, 92
14, 153990, Note_on_c, 11, 62, 92
14, 154015, Note_on_c, 11, 74, 0
14, 154015, Note_on_c, 11, 62, 0
14, 154020, Note_on_c, 11, 62, 92
14, 154020, Note_on_c, 11, 74, 92
14, 154045, Note_on_c, 11, 62, 0
14, 154045, Note_on_c, 11, 74, 0
14, 154050, Note_on_c, 11, 62, 92
14, 154050, Note_on_c, 11, 74, 92
14, 154075, Note_on_c, 11, 62, 0
14, 154075, Note_on_c, 11, 74, 0
14, 154080, Note_on_c, 11, 74, 92
14, 154080, Note_on_c, 11, 62, 92
14, 154105, Note_on_c, 11, 74, 0
14, 154105, Note_on_c, 11, 62, 0
14, 154110, Note_on_c, 11, 74, 92
14, 154110, Note_on_c, 11, 62, 92
14, 154135, Note_on_c, 11, 74, 0
14, 154135, Note_on_c, 11, 62, 0
14, 154140, Note_on_c, 11, 62, 92
14, 154140, Note_on_c, 11, 74, 92
14, 154165, Note_on_c, 11, 62, 0
14, 154165, Note_on_c, 11, 74, 0
14, 154170, Note_on_c, 11, 62, 92
14, 154170, Note_on_c, 11, 74, 92
14, 154195, Note_on_c, 11, 62, 0
14, 154195, Note_on_c, 11, 74, 0
14, 154200, Note_on_c, 11, 74, 92
14, 154200, Note_on_c, 11, 62, 92
14, 154225, Note_on_c, 11, 74, 0
14, 154225, Note_on_c, 11, 62, 0
14, 154230, Note_on_c, 11, 62, 92
14, 154230, Note_on_c, 11, 74, 92
14, 154255, Note_on_c, 11, 62, 0
14, 154255, Note_on_c, 11, 74, 0
14, 154260, Note_on_c, 11, 74, 92
14, 154260, Note_on_c, 11, 62, 92
14, 154285, Note_on_c, 11, 74, 0
14, 154285, Note_on_c, 11, 62, 0
14, 154290, Note_on_c, 11, 62, 92
14, 154290, Note_on_c, 11, 74, 92
14, 154315, Note_on_c, 11, 62, 0
14, 154315, Note_on_c, 11, 74, 0
14, 154320, Note_on_c, 11, 74, 92
14, 154320, Note_on_c, 11, 62, 92
14, 154345, Note_on_c, 11, 74, 0
14, 154345, Note_on_c, 11, 62, 0
14, 154350, Note_on_c, 11, 62, 92
14, 154350, Note_on_c, 11, 74, 92
14, 154375, Note_on_c, 11, 62, 0
14, 154375, Note_on_c, 11, 74, 0
14, 154380, Note_on_c, 11, 74, 92
14, 154380, Note_on_c, 11, 62, 92
14, 154405, Note_on_c, 11, 74, 0
14, 154405, Note_on_c, 11, 62, 0
14, 154410, Note_on_c, 11, 74, 92
14, 154410, Note_on_c, 11, 62, 92
14, 154435, Note_on_c, 11, 74, 0
14, 154435, Note_on_c, 11, 62, 0
14, 154440, Note_on_c, 11, 62, 92
14, 154440, Note_on_c, 11, 74, 92
14, 154465, Note_on_c, 11, 62, 0
14, 154465, Note_on_c, 11, 74, 0
14, 154470, Note_on_c, 11, 74, 92
14, 154470, Note_on_c, 11, 62, 92
14, 154495, Note_on_c, 11, 74, 0
14, 154495, Note_on_c, 11, 62, 0
14, 154500, Note_on_c, 11, 74, 92
14, 154500, Note_on_c, 11, 62, 92
14, 154525, Note_on_c, 11, 74, 0
14, 154525, Note_on_c, 11, 62, 0
14, 154530, Note_on_c, 11, 74, 92
14, 154530, Note_on_c, 11, 62, 92
14, 154555, Note_on_c, 11, 74, 0
14, 154555, Note_on_c, 11, 62, 0
14, 154560, Note_on_c, 11, 74, 80
14, 154739, Note_on_c, 11, 74, 0
14, 154800, Note_on_c, 11, 75, 80
14, 154979, Note_on_c, 11, 75, 0
14, 155040, Note_on_c, 11, 78, 80
14, 155065, Note_on_c, 11, 78, 0
14, 155070, Note_on_c, 11, 78, 80
14, 155095, Note_on_c, 11, 78, 0
14, 155100, Note_on_c, 11, 78, 80
14, 155125, Note_on_c, 11, 78, 0
14, 155130, Note_on_c, 11, 78, 80
14, 155155, Note_on_c, 11, 78, 0
14, 155160, Note_on_c, 11, 78, 80
14, 155185, Note_on_c, 11, 78, 0
14, 155190, Note_on_c, 11, 78, 80
14, 155215, Note_on_c, 11, 78, 0
14, 155220, Note_on_c, 11, 78, 80
14, 155245, Note_on_c, 11, 78, 0
14, 155250, Note_on_c, 11, 78, 80
14, 155275, Note_on_c, 11, 78, 0
14, 155280, Note_on_c, 11, 78, 80
14, 155305, Note_on_c, 11, 78, 0
14, 155310, Note_on_c, 11, 78, 80
14, 155335, Note_on_c, 11, 78, 0
14, 155340, Note_on_c, 11, 78, 80
14, 155365, Note_on_c, 11, 78, 0
14, 155370, Note_on_c, 11, 78, 80
14, 155395, Note_on_c, 11, 78, 0
14, 155400, Note_on_c, 11, 78, 80
14, 155425, Note_on_c, 11, 78, 0
14, 155430, Note_on_c, 11, 78, 80
14, 155455, Note_on_c, 11, 78, 0
14, 155460, Note_on_c, 11, 78, 80
14, 155485, Note_on_c, 11, 78, 0
14, 155490, Note_on_c, 11, 78, 80
14, 155515, Note_on_c, 11, 78, 0
14, 155520, Note_on_c, 11, 79, 80
14, 155699, Note_on_c, 11, 79, 0
14, 155760, Note_on_c, 11, 81, 80
14, 155939, Note_on_c, 11, 81, 0
14, 156000, Note_on_c, 11, 82, 80
14, 156000, Note_on_c, 11, 70, 80
14, 156025, Note_on_c, 11, 82, 0
14, 156025, Note_on_c, 11, 70, 0
14, 156030, Note_on_c, 11, 70, 80
14, 156030, Note_on_c, 11, 82, 80
14, 156055, Note_on_c, 11, 70, 0
14, 156055, Note_on_c, 11, 82, 0
14, 156060, Note_on_c, 11, 82, 80
14, 156060, Note_on_c, 11, 70, 80
14, 156085, Note_on_c, 11, 82, 0
14, 156085, Note_on_c, 11, 70, 0
14, 156090, Note_on_c, 11, 82, 80
14, 156090, Note_on_c, 11, 70, 80
14, 156115, Note_on_c, 11, 82, 0
14, 156115, Note_on_c, 11, 70, 0
14, 156120, Note_on_c, 11, 70, 80
14, 156120, Note_on_c, 11, 82, 80
14, 156145, Note_on_c, 11, 70, 0
14, 156145, Note_on_c, 11, 82, 0
14, 156150, Note_on_c, 11, 82, 80
14, 156150, Note_on_c, 11, 70, 80
14, 156175, Note_on_c, 11, 82, 0
14, 156175, Note_on_c, 11, 70, 0
14, 156180, Note_on_c, 11, 82, 80
14, 156180, Note_on_c, 11, 70, 80
14, 156205, Note_on_c, 11, 82, 0
14, 156205, Note_on_c, 11, 70, 0
14, 156210, Note_on_c, 11, 82, 80
14, 156210, Note_on_c, 11, 70, 80
14, 156235, Note_on_c, 11, 82, 0
14, 156235, Note_on_c, 11, 70, 0
14, 156240, Note_on_c, 11, 70, 80
14, 156240, Note_on_c, 11, 82, 80
14, 156265, Note_on_c, 11, 70, 0
14, 156265, Note_on_c, 11, 82, 0
14, 156270, Note_on_c, 11, 82, 80
14, 156270, Note_on_c, 11, 70, 80
14, 156295, Note_on_c, 11, 82, 0
14, 156295, Note_on_c, 11, 70, 0
14, 156300, Note_on_c, 11, 70, 80
14, 156300, Note_on_c, 11, 82, 80
14, 156325, Note_on_c, 11, 70, 0
14, 156325, Note_on_c, 11, 82, 0
14, 156330, Note_on_c, 11, 82, 80
14, 156330, Note_on_c, 11, 70, 80
14, 156355, Note_on_c, 11, 82, 0
14, 156355, Note_on_c, 11, 70, 0
14, 156360, Note_on_c, 11, 70, 80
14, 156360, Note_on_c, 11, 82, 80
14, 156385, Note_on_c, 11, 70, 0
14, 156385, Note_on_c, 11, 82, 0
14, 156390, Note_on_c, 11, 70, 80
14, 156390, Note_on_c, 11, 82, 80
14, 156415, Note_on_c, 11, 70, 0
14, 156415, Note_on_c, 11, 82, 0
14, 156420, Note_on_c, 11, 82, 80
14, 156420, Note_on_c, 11, 70, 80
14, 156445, Note_on_c, 11, 82, 0
14, 156445, Note_on_c, 11, 70, 0
14, 156450, Note_on_c, 11, 70, 80
14, 156450, Note_on_c, 11, 82, 80
14, 156475, Note_on_c, 11, 70, 0
14, 156475, Note_on_c, 11, 82, 0
14, 156480, Note_on_c, 11, 82, 92
14, 156539, Note_on_c, 11, 82, 0
14, 156540, Note_on_c, 11, 82, 80
14, 156824, Note_on_c, 11, 82, 0
14, 156840, Note_on_c, 11, 81, 80
14, 156929, Note_on_c, 11, 81, 0
14, 156960, Note_on_c, 11, 79, 80
14, 157049, Note_on_c, 11, 79, 0
14, 157080, Note_on_c, 11, 77, 80
14, 157169, Note_on_c, 11, 77, 0
14, 157200, Note_on_c, 11, 75, 80
14, 157289, Note_on_c, 11, 75, 0
14, 157320, Note_on_c, 11, 74, 80
14, 157409, Note_on_c, 11, 74, 0
14, 157440, Note_on_c, 11, 73, 80
14, 157649, Note_on_c, 11, 73, 0
14, 157680, Note_on_c, 11, 72, 80
14, 157889, Note_on_c, 11, 72, 0
14, 158280, Note_on_c, 11, 74, 80
14, 158319, Note_on_c, 11, 74, 0
14, 158320, Note_on_c, 11, 76, 80
14, 158359, Note_on_c, 11, 76, 0
14, 158360, Note_on_c, 11, 78, 80
14, 158393, Note_on_c, 11, 78, 0
14, 158400, Note_on_c, 11, 79, 92
14, 158459, Note_on_c, 11, 79, 0
14, 158460, Note_on_c, 11, 79, 80
14, 158744, Note_on_c, 11, 79, 0
14, 158760, Note_on_c, 11, 77, 80
14, 158849, Note_on_c, 11, 77, 0
14, 158880, Note_on_c, 11, 76, 80
14, 158969, Note_on_c, 11, 76, 0
14, 159000, Note_on_c, 11, 74, 80
14, 159089, Note_on_c, 11, 74, 0
14, 159120, Note_on_c, 11, 73, 80
14, 159209, Note_on_c, 11, 73, 0
14, 159240, Note_on_c, 11, 70, 80
14, 159329, Note_on_c, 11, 70, 0
14, 159360, Note_on_c, 11, 69, 80
14, 159569, Note_on_c, 11, 69, 0
14, 159600, Note_on_c, 11, 68, 80
14, 159809, Note_on_c, 11, 68, 0
14, 160200, Note_on_c, 11, 71, 80
14, 160239, Note_on_c, 11, 71, 0
14, 160240, Note_on_c, 11, 73, 80
14, 160279, Note_on_c, 11, 73, 0
14, 160280, Note_on_c, 11, 74, 80
14, 160313, Note_on_c, 11, 74, 0
14, 160320, Note_on_c, 11, 76, 92
14, 160379, Note_on_c, 11, 76, 0
14, 160380, Note_on_c, 11, 76, 80
14, 160664, Note_on_c, 11, 76, 0
14, 160680, Note_on_c, 11, 74, 80
14, 160769, Note_on_c, 11, 74, 0
14, 160800, Note_on_c, 11, 73, 80
14, 160889, Note_on_c, 11, 73, 0
14, 160920, Note_on_c, 11, 70, 80
14, 161009, Note_on_c, 11, 70, 0
14, 161040, Note_on_c, 11, 69, 80
14, 161129, Note_on_c, 11, 69, 0
14, 161160, Note_on_c, 11, 67, 80
14, 161249, Note_on_c, 11, 67, 0
14, 161280, Note_on_c, 11, 67, 92
14, 161305, Note_on_c, 11, 67, 0
14, 161310, Note_on_c, 11, 67, 79
14, 161335, Note_on_c, 11, 67, 0
14, 161340, Note_on_c, 11, 67, 78
14, 161365, Note_on_c, 11, 67, 0
14, 161370, Note_on_c, 11, 67, 77
14, 161395, Note_on_c, 11, 67, 0
14, 161400, Note_on_c, 11, 67, 76
14, 161425, Note_on_c, 11, 67, 0
14, 161430, Note_on_c, 11, 67, 75
14, 161455, Note_on_c, 11, 67, 0
14, 161460, Note_on_c, 11, 67, 74
14, 161485, Note_on_c, 11, 67, 0
14, 161490, Note_on_c, 11, 67, 73
14, 161515, Note_on_c, 11, 67, 0
14, 161520, Note_on_c, 11, 67, 71
14, 161545, Note_on_c, 11, 67, 0
14, 161550, Note_on_c, 11, 67, 70
14, 161575, Note_on_c, 11, 67, 0
14, 161580, Note_on_c, 11, 67, 69
14, 161605, Note_on_c, 11, 67, 0
14, 161610, Note_on_c, 11, 67, 68
14, 161635, Note_on_c, 11, 67, 0
14, 161640, Note_on_c, 11, 67, 67
14, 161665, Note_on_c, 11, 67, 0
14, 161670, Note_on_c, 11, 67, 66
14, 161695, Note_on_c, 11, 67, 0
14, 161700, Note_on_c, 11, 67, 65
14, 161725, Note_on_c, 11, 67, 0
14, 161730, Note_on_c, 11, 67, 64
14, 161755, Note_on_c, 11, 67, 0
14, 161760, Note_on_c, 11, 67, 62
14, 161785, Note_on_c, 11, 67, 0
14, 161790, Note_on_c, 11, 67, 61
14, 161815, Note_on_c, 11, 67, 0
14, 161820, Note_on_c, 11, 67, 60
14, 161845, Note_on_c, 11, 67, 0
14, 161850, Note_on_c, 11, 67, 59
14, 161875, Note_on_c, 11, 67, 0
14, 161880, Note_on_c, 11, 67, 58
14, 161905, Note_on_c, 11, 67, 0
14, 161910, Note_on_c, 11, 67, 57
14, 161935, Note_on_c, 11, 67, 0
14, 161940, Note_on_c, 11, 67, 56
14, 161965, Note_on_c, 11, 67, 0
14, 161970, Note_on_c, 11, 67, 55
14, 161995, Note_on_c, 11, 67, 0
14, 162000, Note_on_c, 11, 67, 53
14, 162025, Note_on_c, 11, 67, 0
14, 162030, Note_on_c, 11, 67, 52
14, 162055, Note_on_c, 11, 67, 0
14, 162060, Note_on_c, 11, 67, 51
14, 162085, Note_on_c, 11, 67, 0
14, 162090, Note_on_c, 11, 67, 50
14, 162115, Note_on_c, 11, 67, 0
14, 162120, Note_on_c, 11, 67, 49
14, 162145, Note_on_c, 11, 67, 0
14, 162150, Note_on_c, 11, 67, 48
14, 162175, Note_on_c, 11, 67, 0
14, 162180, Note_on_c, 11, 67, 47
14, 162205, Note_on_c, 11, 67, 0
14, 162210, Note_on_c, 11, 67, 46
14, 162235, Note_on_c, 11, 67, 0
14, 162240, Note_on_c, 11, 67, 44
14, 162344, Note_on_c, 11, 67, 0
14, 162360, Note_on_c, 11, 64, 44
14, 162411, Note_on_c, 11, 64, 0
14, 162420, Note_on_c, 11, 64, 44
14, 162471, Note_on_c, 11, 64, 0
14, 162480, Note_on_c, 11, 64, 44
14, 162599, Note_on_c, 11, 64, 0
14, 163320, Note_on_c, 11, 66, 44
14, 163371, Note_on_c, 11, 66, 0
14, 163380, Note_on_c, 11, 66, 44
14, 163431, Note_on_c, 11, 66, 0
14, 163440, Note_on_c, 11, 66, 44
14, 163559, Note_on_c, 11, 66, 0
14, 164280, Note_on_c, 11, 67, 44
14, 164331, Note_on_c, 11, 67, 0
14, 164340, Note_on_c, 11, 67, 44
14, 164391, Note_on_c, 11, 67, 0
14, 164400, Note_on_c, 11, 67, 44
14, 164519, Note_on_c, 11, 67, 0
14, 165000, Note_on_c, 11, 61, 44
14, 165171, Note_on_c, 11, 61, 0
14, 165180, Note_on_c, 11, 62, 44
14, 165224, Note_on_c, 11, 62, 0
14, 165240, Note_on_c, 11, 65, 44
14, 165284, Note_on_c, 11, 65, 0
14, 165300, Note_on_c, 11, 66, 44
14, 165344, Note_on_c, 11, 66, 0
14, 165360, Note_on_c, 11, 69, 44
14, 165479, Note_on_c, 11, 69, 0
14, 165600, Note_on_c, 11, 65, 44
14, 165644, Note_on_c, 11, 65, 0
14, 165660, Note_on_c, 11, 66, 44
14, 165704, Note_on_c, 11, 66, 0
14, 165720, Note_on_c, 11, 69, 44
14, 165764, Note_on_c, 11, 69, 0
14, 165780, Note_on_c, 11, 73, 44
14, 165824, Note_on_c, 11, 73, 0
14, 165840, Note_on_c, 11, 74, 44
14, 165959, Note_on_c, 11, 74, 0
14, 166080, Note_on_c, 11, 64, 44
14, 166124, Note_on_c, 11, 64, 0
14, 166140, Note_on_c, 11, 67, 44
14, 166184, Note_on_c, 11, 67, 0
14, 166200, Note_on_c, 11, 69, 44
14, 166244, Note_on_c, 11, 69, 0
14, 166260, Note_on_c, 11, 73, 44
14, 166304, Note_on_c, 11, 73, 0
14, 166320, Note_on_c, 11, 76, 44
14, 166439, Note_on_c, 11, 76, 0
14, 166560, Note_on_c, 11, 55, 44
14, 166604, Note_on_c, 11, 55, 0
14, 166620, Note_on_c, 11, 61, 44
14, 166664, Note_on_c, 11, 61, 0
14, 166680, Note_on_c, 11, 64, 44
14, 166724, Note_on_c, 11, 64, 0
14, 166740, Note_on_c, 11, 66, 44
14, 166784, Note_on_c, 11, 66, 0
14, 166800, Note_on_c, 11, 67, 44
14, 166919, Note_on_c, 11, 67, 0
14, 167040, Control_c, 11, 11, 87
14, 167160, Control_c, 11, 11, 87
14, 167160, Note_on_c, 11, 66, 68
14, 167185, Control_c, 11, 11, 89
14, 167210, Control_c, 11, 11, 90
14, 167235, Control_c, 11, 11, 92
14, 167260, Control_c, 11, 11, 94
14, 167285, Control_c, 11, 11, 95
14, 167310, Control_c, 11, 11, 97
14, 167335, Control_c, 11, 11, 99
14, 167360, Control_c, 11, 11, 100
14, 167385, Control_c, 11, 11, 102
14, 167399, Note_on_c, 11, 66, 0
14, 167400, Note_on_c, 11, 71, 68
14, 167410, Control_c, 11, 11, 104
14, 167435, Control_c, 11, 11, 105
14, 167459, Note_on_c, 11, 71, 0
14, 167460, Control_c, 11, 11, 107
14, 167460, Note_on_c, 11, 69, 68
14, 167485, Control_c, 11, 11, 109
14, 167510, Control_c, 11, 11, 110
14, 167519, Note_on_c, 11, 69, 0
14, 167535, Control_c, 11, 11, 112
14, 167560, Control_c, 11, 11, 114
14, 167585, Control_c, 11, 11, 115
14, 167610, Control_c, 11, 11, 117
14, 167635, Control_c, 11, 11, 119
14, 167640, Note_on_c, 11, 69, 68
14, 167660, Control_c, 11, 11, 120
14, 167685, Control_c, 11, 11, 122
14, 167710, Control_c, 11, 11, 124
14, 167735, Control_c, 11, 11, 125
14, 167760, Control_c, 11, 11, 127
14, 167780, Control_c, 11, 11, 124
14, 167800, Control_c, 11, 11, 120
14, 167820, Control_c, 11, 11, 117
14, 167840, Control_c, 11, 11, 114
14, 167860, Control_c, 11, 11, 110
14, 167879, Note_on_c, 11, 69, 0
14, 167880, Control_c, 11, 11, 107
14, 167880, Note_on_c, 11, 76, 68
14, 167900, Control_c, 11, 11, 104
14, 167920, Control_c, 11, 11, 100
14, 167939, Note_on_c, 11, 76, 0
14, 167940, Control_c, 11, 11, 97
14, 167940, Note_on_c, 11, 74, 68
14, 167960, Control_c, 11, 11, 94
14, 167980, Control_c, 11, 11, 90
14, 167991, Note_on_c, 11, 74, 0
14, 168000, Note_on_c, 11, 62, 68
14, 168000, Control_c, 11, 11, 87
14, 168040, Control_c, 11, 11, 89
14, 168044, Note_on_c, 11, 62, 0
14, 168060, Note_on_c, 11, 65, 68
14, 168080, Control_c, 11, 11, 90
14, 168104, Note_on_c, 11, 65, 0
14, 168120, Note_on_c, 11, 68, 68
14, 168120, Control_c, 11, 11, 92
14, 168160, Control_c, 11, 11, 94
14, 168164, Note_on_c, 11, 68, 0
14, 168180, Note_on_c, 11, 69, 68
14, 168200, Control_c, 11, 11, 95
14, 168224, Note_on_c, 11, 69, 0
14, 168240, Note_on_c, 11, 69, 68
14, 168240, Control_c, 11, 11, 97
14, 168280, Control_c, 11, 11, 99
14, 168320, Control_c, 11, 11, 100
14, 168359, Note_on_c, 11, 69, 0
14, 168360, Control_c, 11, 11, 102
14, 168400, Control_c, 11, 11, 104
14, 168440, Control_c, 11, 11, 105
14, 168480, Note_on_c, 11, 65, 68
14, 168480, Control_c, 11, 11, 107
14, 168520, Control_c, 11, 11, 109
14, 168524, Note_on_c, 11, 65, 0
14, 168540, Note_on_c, 11, 69, 68
14, 168560, Control_c, 11, 11, 110
14, 168584, Note_on_c, 11, 69, 0
14, 168600, Note_on_c, 11, 73, 68
14, 168600, Control_c, 11, 11, 112
14, 168640, Control_c, 11, 11, 114
14, 168644, Note_on_c, 11, 73, 0
14, 168660, Note_on_c, 11, 74, 68
14, 168680, Control_c, 11, 11, 115
14, 168704, Note_on_c, 11, 74, 0
14, 168720, Note_on_c, 11, 74, 68
14, 168720, Control_c, 11, 11, 117
14, 168760, Control_c, 11, 11, 119
14, 168800, Control_c, 11, 11, 120
14, 168839, Note_on_c, 11, 74, 0
14, 168840, Control_c, 11, 11, 122
14, 168880, Control_c, 11, 11, 124
14, 168920, Control_c, 11, 11, 127
14, 168960, Note_on_c, 11, 67, 68
14, 169004, Note_on_c, 11, 67, 0
14, 169020, Note_on_c, 11, 73, 67
14, 169064, Note_on_c, 11, 73, 0
14, 169080, Note_on_c, 11, 76, 65
14, 169124, Note_on_c, 11, 76, 0
14, 169140, Note_on_c, 11, 77, 64
14, 169184, Note_on_c, 11, 77, 0
14, 169200, Note_on_c, 11, 79, 62
14, 169319, Note_on_c, 11, 79, 0
14, 169440, Note_on_c, 11, 55, 56
14, 169484, Note_on_c, 11, 55, 0
14, 169500, Note_on_c, 11, 61, 55
14, 169544, Note_on_c, 11, 61, 0
14, 169560, Note_on_c, 11, 64, 53
14, 169604, Note_on_c, 11, 64, 0
14, 169620, Note_on_c, 11, 67, 52
14, 169664, Note_on_c, 11, 67, 0
14, 169680, Note_on_c, 11, 67, 50
14, 169724, Note_on_c, 11, 67, 0
14, 169740, Note_on_c, 11, 64, 49
14, 169784, Note_on_c, 11, 64, 0
14, 169800, Note_on_c, 11, 64, 47
14, 169844, Note_on_c, 11, 64, 0
14, 169860, Note_on_c, 11, 64, 46
14, 169904, Note_on_c, 11, 64, 0
14, 169920, Note_on_c, 11, 69, 44
14, 170039, Note_on_c, 11, 69, 0
14, 170460, Note_on_c, 11, 69, 44
14, 170519, Note_on_c, 11, 69, 0
14, 170520, Note_on_c, 11, 76, 44
14, 170579, Note_on_c, 11, 76, 0
14, 170580, Note_on_c, 11, 69, 44
14, 170639, Note_on_c, 11, 69, 0
14, 170640, Note_on_c, 11, 76, 44
14, 170759, Note_on_c, 11, 76, 0
14, 171420, Note_on_c, 11, 65, 44
14, 171479, Note_on_c, 11, 65, 0
14, 171480, Note_on_c, 11, 72, 44
14, 171539, Note_on_c, 11, 72, 0
14, 171540, Note_on_c, 11, 65, 44
14, 171599, Note_on_c, 11, 65, 0
14, 171600, Note_on_c, 11, 72, 44
14, 171719, Note_on_c, 11, 72, 0
14, 171838, Control_c, 11, 11, 67
14, 171840, Control_c, 11, 11, 67
14, 171840, Note_on_c, 11, 86, 80
14, 171860, Control_c, 11, 11, 68
14, 171880, Control_c, 11, 11, 70
14, 171900, Control_c, 11, 11, 71
14, 171920, Control_c, 11, 11, 72
14, 171940, Control_c, 11, 11, 73
14, 171960, Control_c, 11, 11, 75
14, 171980, Control_c, 11, 11, 76
14, 172000, Control_c, 11, 11, 77
14, 172020, Control_c, 11, 11, 78
14, 172040, Control_c, 11, 11, 80
14, 172060, Control_c, 11, 11, 81
14, 172080, Control_c, 11, 11, 82
14, 172100, Control_c, 11, 11, 83
14, 172120, Control_c, 11, 11, 85
14, 172140, Control_c, 11, 11, 86
14, 172160, Control_c, 11, 11, 87
14, 172180, Control_c, 11, 11, 88
14, 172199, Note_on_c, 11, 86, 0
14, 172200, Control_c, 11, 11, 90
14, 172200, Note_on_c, 11, 85, 80
14, 172220, Control_c, 11, 11, 91
14, 172240, Control_c, 11, 11, 92
14, 172260, Control_c, 11, 11, 93
14, 172280, Control_c, 11, 11, 95
14, 172300, Control_c, 11, 11, 96
14, 172319, Note_on_c, 11, 85, 0
14, 172320, Control_c, 11, 11, 97
14, 172320, Note_on_c, 11, 84, 80
14, 172340, Control_c, 11, 11, 98
14, 172360, Control_c, 11, 11, 100
14, 172371, Note_on_c, 11, 84, 0
14, 172380, Control_c, 11, 11, 101
14, 172380, Note_on_c, 11, 82, 80
14, 172400, Control_c, 11, 11, 102
14, 172420, Control_c, 11, 11, 103
14, 172439, Note_on_c, 11, 82, 0
14, 172440, Control_c, 11, 11, 105
14, 172440, Note_on_c, 11, 81, 80
14, 172460, Control_c, 11, 11, 106
14, 172480, Control_c, 11, 11, 107
14, 172491, Note_on_c, 11, 81, 0
14, 172500, Note_on_c, 11, 79, 80
14, 172500, Control_c, 11, 11, 108
14, 172520, Control_c, 11, 11, 110
14, 172540, Control_c, 11, 11, 111
14, 172559, Note_on_c, 11, 79, 0
14, 172560, Control_c, 11, 11, 112
14, 172560, Note_on_c, 11, 78, 80
14, 172580, Control_c, 11, 11, 113
14, 172600, Control_c, 11, 11, 115
14, 172611, Note_on_c, 11, 78, 0
14, 172620, Control_c, 11, 11, 116
14, 172620, Note_on_c, 11, 75, 80
14, 172640, Control_c, 11, 11, 117
14, 172660, Control_c, 11, 11, 118
14, 172679, Note_on_c, 11, 75, 0
14, 172680, Note_on_c, 11, 74, 80
14, 172680, Control_c, 11, 11, 120
14, 172700, Control_c, 11, 11, 121
14, 172720, Control_c, 11, 11, 122
14, 172731, Note_on_c, 11, 74, 0
14, 172740, Note_on_c, 11, 72, 80
14, 172740, Control_c, 11, 11, 123
14, 172760, Control_c, 11, 11, 125
14, 172780, Control_c, 11, 11, 127
14, 172799, Note_on_c, 11, 72, 0
14, 172800, Note_on_c, 11, 70, 80
14, 172851, Note_on_c, 11, 70, 0
14, 172860, Note_on_c, 11, 69, 80
14, 172919, Note_on_c, 11, 69, 0
14, 172920, Note_on_c, 11, 67, 80
14, 172971, Note_on_c, 11, 67, 0
14, 172980, Note_on_c, 11, 65, 80
14, 173039, Note_on_c, 11, 65, 0
14, 173040, Note_on_c, 11, 64, 80
14, 173091, Note_on_c, 11, 64, 0
14, 173100, Note_on_c, 11, 62, 80
14, 173159, Note_on_c, 11, 62, 0
14, 173160, Note_on_c, 11, 60, 80
14, 173211, Note_on_c, 11, 60, 0
14, 173220, Note_on_c, 11, 58, 80
14, 173279, Note_on_c, 11, 58, 0
14, 173280, Note_on_c, 11, 57, 80
14, 173384, Note_on_c, 11, 57, 0
14, 173400, Note_on_c, 11, 77, 92
14, 173400, Note_on_c, 11, 69, 92
14, 173489, Note_on_c, 11, 77, 0
14, 173489, Note_on_c, 11, 69, 0
14, 173640, Note_on_c, 11, 81, 92
14, 173640, Note_on_c, 11, 69, 92
14, 173744, Note_on_c, 11, 81, 0
14, 173744, Note_on_c, 11, 69, 0
14, 173758, Control_c, 11, 11, 67
14, 173760, Control_c, 11, 11, 67
14, 173760, Note_on_c, 11, 86, 80
14, 173792, Control_c, 11, 11, 68
14, 173824, Control_c, 11, 11, 69
14, 173856, Control_c, 11, 11, 70
14, 173888, Control_c, 11, 11, 71
14, 173920, Control_c, 11, 11, 72
14, 173952, Control_c, 11, 11, 73
14, 173984, Control_c, 11, 11, 74
14, 174016, Control_c, 11, 11, 75
14, 174048, Control_c, 11, 11, 76
14, 174080, Control_c, 11, 11, 77
14, 174112, Control_c, 11, 11, 78
14, 174119, Note_on_c, 11, 86, 0
14, 174120, Note_on_c, 11, 85, 80
14, 174144, Control_c, 11, 11, 79
14, 174176, Control_c, 11, 11, 80
14, 174208, Control_c, 11, 11, 81
14, 174239, Note_on_c, 11, 85, 0
14, 174240, Control_c, 11, 11, 82
14, 174240, Note_on_c, 11, 84, 80
14, 174272, Control_c, 11, 11, 83
14, 174291, Note_on_c, 11, 84, 0
14, 174300, Note_on_c, 11, 82, 80
14, 174304, Control_c, 11, 11, 84
14, 174336, Control_c, 11, 11, 85
14, 174359, Note_on_c, 11, 82, 0
14, 174360, Note_on_c, 11, 81, 80
14, 174368, Control_c, 11, 11, 86
14, 174400, Control_c, 11, 11, 87
14, 174411, Note_on_c, 11, 81, 0
14, 174420, Note_on_c, 11, 79, 80
14, 174432, Control_c, 11, 11, 88
14, 174464, Control_c, 11, 11, 89
14, 174479, Note_on_c, 11, 79, 0
14, 174480, Note_on_c, 11, 78, 80
14, 174496, Control_c, 11, 11, 90
14, 174528, Control_c, 11, 11, 91
14, 174531, Note_on_c, 11, 78, 0
14, 174540, Note_on_c, 11, 75, 80
14, 174560, Control_c, 11, 11, 92
14, 174592, Control_c, 11, 11, 93
14, 174599, Note_on_c, 11, 75, 0
14, 174600, Note_on_c, 11, 74, 80
14, 174624, Control_c, 11, 11, 94
14, 174651, Note_on_c, 11, 74, 0
14, 174656, Control_c, 11, 11, 95
14, 174660, Note_on_c, 11, 72, 80
14, 174688, Control_c, 11, 11, 96
14, 174719, Note_on_c, 11, 72, 0
14, 174720, Note_on_c, 11, 70, 80
14, 174720, Control_c, 11, 11, 97
14, 174752, Control_c, 11, 11, 98
14, 174784, Control_c, 11, 11, 99
14, 174816, Control_c, 11, 11, 100
14, 174839, Note_on_c, 11, 70, 0
14, 174848, Control_c, 11, 11, 101
14, 174880, Control_c, 11, 11, 102
14, 174912, Control_c, 11, 11, 103
14, 174944, Control_c, 11, 11, 104
14, 175232, Control_c, 11, 11, 113
14, 175260, Note_on_c, 11, 70, 80
14, 175264, Control_c, 11, 11, 114
14, 175296, Control_c, 11, 11, 115
14, 175319, Note_on_c, 11, 70, 0
14, 175320, Note_on_c, 11, 72, 80
14, 175328, Control_c, 11, 11, 116
14, 175360, Control_c, 11, 11, 117
14, 175371, Note_on_c, 11, 72, 0
14, 175380, Note_on_c, 11, 74, 80
14, 175392, Control_c, 11, 11, 118
14, 175424, Control_c, 11, 11, 119
14, 175439, Note_on_c, 11, 74, 0
14, 175440, Note_on_c, 11, 75, 80
14, 175456, Control_c, 11, 11, 120
14, 175488, Control_c, 11, 11, 121
14, 175491, Note_on_c, 11, 75, 0
14, 175500, Note_on_c, 11, 77, 80
14, 175520, Control_c, 11, 11, 122
14, 175552, Control_c, 11, 11, 123
14, 175559, Note_on_c, 11, 77, 0
14, 175560, Note_on_c, 11, 79, 80
14, 175584, Control_c, 11, 11, 124
14, 175611, Note_on_c, 11, 79, 0
14, 175616, Control_c, 11, 11, 125
14, 175620, Note_on_c, 11, 80, 80
14, 175648, Control_c, 11, 11, 127
14, 175679, Note_on_c, 11, 80, 0
14, 175680, Note_on_c, 11, 79, 80
14, 176024, Note_on_c, 11, 79, 0
14, 176040, Note_on_c, 11, 77, 80
14, 176159, Note_on_c, 11, 77, 0
14, 176160, Note_on_c, 11, 76, 80
14, 176211, Note_on_c, 11, 76, 0
14, 176220, Note_on_c, 11, 86, 80
14, 176279, Note_on_c, 11, 86, 0
14, 176280, Note_on_c, 11, 85, 80
14, 176331, Note_on_c, 11, 85, 0
14, 176340, Note_on_c, 11, 82, 80
14, 176399, Note_on_c, 11, 82, 0
14, 176400, Note_on_c, 11, 81, 80
14, 176451, Note_on_c, 11, 81, 0
14, 176460, Note_on_c, 11, 79, 80
14, 176519, Note_on_c, 11, 79, 0
14, 176520, Note_on_c, 11, 77, 80
14, 176571, Note_on_c, 11, 77, 0
14, 176580, Note_on_c, 11, 76, 80
14, 176624, Note_on_c, 11, 76, 0
14, 176640, Note_on_c, 11, 69, 92
14, 176640, Note_on_c, 11, 81, 92
14, 176729, Note_on_c, 11, 69, 0
14, 176729, Note_on_c, 11, 81, 0
14, 176760, Note_on_c, 11, 80, 92
14, 176841, Note_on_c, 11, 80, 0
14, 176850, Note_on_c, 11, 80, 92
14, 176871, Note_on_c, 11, 80, 0
14, 176880, Note_on_c, 11, 81, 92
14, 176880, Note_on_c, 11, 69, 92
14, 176999, Note_on_c, 11, 81, 0
14, 176999, Note_on_c, 11, 69, 0
14, 177120, Note_on_c, 11, 82, 92
14, 177224, Note_on_c, 11, 82, 0
14, 177240, Note_on_c, 11, 81, 92
14, 177321, Note_on_c, 11, 81, 0
14, 177330, Note_on_c, 11, 81, 92
14, 177351, Note_on_c, 11, 81, 0
14, 177360, Note_on_c, 11, 82, 92
14, 177479, Note_on_c, 11, 82, 0
14, 178560, Note_on_c, 11, 74, 92
14, 178560, Note_on_c, 11, 62, 92
14, 178664, Note_on_c, 11, 74, 0
14, 178664, Note_on_c, 11, 62, 0
14, 178680, Note_on_c, 11, 73, 92
14, 178761, Note_on_c, 11, 73, 0
14, 178770, Note_on_c, 11, 73, 92
14, 178791, Note_on_c, 11, 73, 0
14, 178800, Note_on_c, 11, 74, 92
14, 178800, Note_on_c, 11, 62, 92
14, 178919, Note_on_c, 11, 74, 0
14, 178919, Note_on_c, 11, 62, 0
14, 179040, Note_on_c, 11, 63, 92
14, 179040, Note_on_c, 11, 75, 92
14, 179144, Note_on_c, 11, 63, 0
14, 179144, Note_on_c, 11, 75, 0
14, 179160, Note_on_c, 11, 62, 92
14, 179160, Note_on_c, 11, 74, 92
14, 179241, Note_on_c, 11, 62, 0
14, 179241, Note_on_c, 11, 74, 0
14, 179250, Note_on_c, 11, 74, 92
14, 179250, Note_on_c, 11, 62, 92
14, 179271, Note_on_c, 11, 74, 0
14, 179271, Note_on_c, 11, 62, 0
14, 179280, Note_on_c, 11, 75, 92
14, 179280, Note_on_c, 11, 63, 92
14, 179399, Note_on_c, 11, 75, 0
14, 179399, Note_on_c, 11, 63, 0
14, 180720, Note_on_c, 11, 70, 32
14, 180720, Note_on_c, 11, 67, 32
14, 180959, Note_on_c, 11, 70, 0
14, 180959, Note_on_c, 11, 67, 0
14, 181200, Note_on_c, 11, 75, 32
14, 181200, Note_on_c, 11, 67, 32
14, 181439, Note_on_c, 11, 75, 0
14, 181439, Note_on_c, 11, 67, 0
14, 181680, Note_on_c, 11, 77, 32
14, 181919, Note_on_c, 11, 77, 0
14, 182160, Note_on_c, 11, 82, 32
14, 182160, Note_on_c, 11, 70, 32
14, 182399, Note_on_c, 11, 70, 0
14, 182459, Note_on_c, 11, 82, 0
14, 182460, Note_on_c, 11, 80, 32
14, 182519, Note_on_c, 11, 80, 0
14, 182520, Note_on_c, 11, 79, 32
14, 182579, Note_on_c, 11, 79, 0
14, 182580, Note_on_c, 11, 77, 32
14, 182639, Note_on_c, 11, 77, 0
14, 182640, Note_on_c, 11, 75, 32
14, 182699, Note_on_c, 11, 75, 0
14, 182700, Note_on_c, 11, 74, 32
14, 182759, Note_on_c, 11, 74, 0
14, 182760, Note_on_c, 11, 72, 32
14, 182819, Note_on_c, 11, 72, 0
14, 182820, Note_on_c, 11, 70, 32
14, 182879, Note_on_c, 11, 70, 0
14, 182880, Note_on_c, 11, 68, 32
14, 182939, Note_on_c, 11, 68, 0
14, 182940, Note_on_c, 11, 67, 32
14, 182999, Note_on_c, 11, 67, 0
14, 183000, Note_on_c, 11, 65, 32
14, 183059, Note_on_c, 11, 65, 0
14, 183060, Note_on_c, 11, 63, 32
14, 183119, Note_on_c, 11, 63, 0
14, 183120, Note_on_c, 11, 62, 32
14, 183179, Note_on_c, 11, 62, 0
14, 183180, Note_on_c, 11, 61, 32
14, 183239, Note_on_c, 11, 61, 0
14, 183240, Note_on_c, 11, 62, 32
14, 183291, Note_on_c, 11, 62, 0
14, 183300, Note_on_c, 11, 62, 32
14, 183411, Note_on_c, 11, 62, 0
14, 183420, Note_on_c, 11, 61, 32
14, 183479, Note_on_c, 11, 61, 0
14, 183480, Note_on_c, 11, 68, 32
14, 183539, Note_on_c, 11, 68, 0
14, 183540, Note_on_c, 11, 69, 32
14, 183599, Note_on_c, 11, 69, 0
14, 183600, Note_on_c, 11, 70, 32
14, 183659, Note_on_c, 11, 70, 0
14, 183660, Note_on_c, 11, 68, 32
14, 183719, Note_on_c, 11, 68, 0
14, 183720, Note_on_c, 11, 69, 32
14, 183779, Note_on_c, 11, 69, 0
14, 183780, Note_on_c, 11, 61, 32
14, 183839, Note_on_c, 11, 61, 0
14, 183840, Note_on_c, 11, 62, 32
14, 183899, Note_on_c, 11, 62, 0
14, 183900, Note_on_c, 11, 72, 32
14, 183959, Note_on_c, 11, 72, 0
14, 183960, Note_on_c, 11, 69, 32
14, 184019, Note_on_c, 11, 69, 0
14, 184020, Note_on_c, 11, 70, 32
14, 184079, Note_on_c, 11, 70, 0
14, 184080, Note_on_c, 11, 74, 32
14, 184139, Note_on_c, 11, 74, 0
14, 184140, Note_on_c, 11, 71, 32
14, 184199, Note_on_c, 11, 71, 0
14, 184200, Note_on_c, 11, 73, 32
14, 184259, Note_on_c, 11, 73, 0
14, 184260, Note_on_c, 11, 64, 32
14, 184311, Note_on_c, 11, 64, 0
14, 184320, Note_on_c, 11, 65, 32
14, 184379, Note_on_c, 11, 65, 0
14, 184380, Note_on_c, 11, 76, 32
14, 184439, Note_on_c, 11, 76, 0
14, 184440, Note_on_c, 11, 73, 32
14, 184499, Note_on_c, 11, 73, 0
14, 184500, Note_on_c, 11, 74, 32
14, 184559, Note_on_c, 11, 74, 0
14, 184560, Note_on_c, 11, 77, 32
14, 184619, Note_on_c, 11, 77, 0
14, 184620, Note_on_c, 11, 74, 32
14, 184679, Note_on_c, 11, 74, 0
14, 184680, Note_on_c, 11, 76, 32
14, 184739, Note_on_c, 11, 76, 0
14, 184740, Note_on_c, 11, 67, 32
14, 184799, Note_on_c, 11, 67, 0
14, 184800, Note_on_c, 11, 79, 32
14, 184859, Note_on_c, 11, 79, 0
14, 184860, Note_on_c, 11, 76, 32
14, 184919, Note_on_c, 11, 76, 0
14, 184920, Note_on_c, 11, 78, 32
14, 184979, Note_on_c, 11, 78, 0
14, 184980, Note_on_c, 11, 69, 32
14, 185039, Note_on_c, 11, 69, 0
14, 185040, Note_on_c, 11, 81, 32
14, 185099, Note_on_c, 11, 81, 0
14, 185100, Note_on_c, 11, 78, 32
14, 185159, Note_on_c, 11, 78, 0
14, 185160, Note_on_c, 11, 79, 32
14, 185219, Note_on_c, 11, 79, 0
14, 185220, Note_on_c, 11, 70, 32
14, 185271, Note_on_c, 11, 70, 0
14, 185280, Note_on_c, 11, 82, 32
14, 185519, Note_on_c, 11, 82, 0
14, 185520, Note_on_c, 11, 82, 32
14, 185579, Note_on_c, 11, 82, 0
14, 185580, Note_on_c, 11, 81, 32
14, 185639, Note_on_c, 11, 81, 0
14, 185640, Note_on_c, 11, 79, 32
14, 185699, Note_on_c, 11, 79, 0
14, 185700, Note_on_c, 11, 76, 32
14, 185759, Note_on_c, 11, 76, 0
14, 186240, Note_on_c, 11, 83, 32
14, 186479, Note_on_c, 11, 83, 0
14, 186480, Note_on_c, 11, 83, 32
14, 186539, Note_on_c, 11, 83, 0
14, 186540, Note_on_c, 11, 81, 32
14, 186599, Note_on_c, 11, 81, 0
14, 186600, Note_on_c, 11, 78, 32
14, 186659, Note_on_c, 11, 78, 0
14, 186660, Note_on_c, 11, 74, 32
14, 186719, Note_on_c, 11, 74, 0
14, 187200, Note_on_c, 11, 82, 32
14, 187439, Note_on_c, 11, 82, 0
14, 187440, Note_on_c, 11, 82, 34
14, 187499, Note_on_c, 11, 82, 0
14, 187500, Note_on_c, 11, 81, 35
14, 187559, Note_on_c, 11, 81, 0
14, 187560, Note_on_c, 11, 79, 35
14, 187619, Note_on_c, 11, 79, 0
14, 187620, Note_on_c, 11, 76, 36
14, 187679, Note_on_c, 11, 76, 0
14, 188160, Note_on_c, 11, 83, 41
14, 188399, Note_on_c, 11, 83, 0
14, 188400, Note_on_c, 11, 83, 44
14, 188459, Note_on_c, 11, 83, 0
14, 188460, Note_on_c, 11, 81, 44
14, 188519, Note_on_c, 11, 81, 0
14, 188520, Note_on_c, 11, 78, 45
14, 188579, Note_on_c, 11, 78, 0
14, 188580, Note_on_c, 11, 74, 45
14, 188639, Note_on_c, 11, 74, 0
14, 189120, Note_on_c, 11, 82, 51
14, 189179, Note_on_c, 11, 82, 0
14, 189180, Note_on_c, 11, 81, 51
14, 189239, Note_on_c, 11, 81, 0
14, 189240, Note_on_c, 11, 79, 52
14, 189299, Note_on_c, 11, 79, 0
14, 189300, Note_on_c, 11, 76, 53
14, 189359, Note_on_c, 11, 76, 0
14, 189600, Note_on_c, 11, 83, 56
14, 189659, Note_on_c, 11, 83, 0
14, 189660, Note_on_c, 11, 81, 56
14, 189719, Note_on_c, 11, 81, 0
14, 189720, Note_on_c, 11, 78, 57
14, 189779, Note_on_c, 11, 78, 0
14, 189780, Note_on_c, 11, 74, 57
14, 189839, Note_on_c, 11, 74, 0
14, 190080, Note_on_c, 11, 82, 60
14, 190139, Note_on_c, 11, 82, 0
14, 190140, Note_on_c, 11, 81, 61
14, 190199, Note_on_c, 11, 81, 0
14, 190200, Note_on_c, 11, 79, 62
14, 190259, Note_on_c, 11, 79, 0
14, 190260, Note_on_c, 11, 76, 62
14, 190319, Note_on_c, 11, 76, 0
14, 190320, Note_on_c, 11, 82, 63
14, 190379, Note_on_c, 11, 82, 0
14, 190380, Note_on_c, 11, 81, 63
14, 190439, Note_on_c, 11, 81, 0
14, 190440, Note_on_c, 11, 79, 64
14, 190499, Note_on_c, 11, 79, 0
14, 190500, Note_on_c, 11, 76, 65
14, 190551, Note_on_c, 11, 76, 0
14, 190560, Note_on_c, 11, 82, 65
14, 190619, Note_on_c, 11, 82, 0
14, 190620, Note_on_c, 11, 81, 66
14, 190679, Note_on_c, 11, 81, 0
14, 190680, Note_on_c, 11, 77, 66
14, 190739, Note_on_c, 11, 77, 0
14, 190740, Note_on_c, 11, 74, 67
14, 190799, Note_on_c, 11, 74, 0
14, 190800, Note_on_c, 11, 82, 68
14, 190859, Note_on_c, 11, 82, 0
14, 190860, Note_on_c, 11, 81, 68
14, 190919, Note_on_c, 11, 81, 0
14, 190920, Note_on_c, 11, 77, 69
14, 190979, Note_on_c, 11, 77, 0
14, 190980, Note_on_c, 11, 74, 69
14, 191031, Note_on_c, 11, 74, 0
14, 191040, Note_on_c, 11, 82, 70
14, 191099, Note_on_c, 11, 82, 0
14, 191100, Note_on_c, 11, 81, 71
14, 191159, Note_on_c, 11, 81, 0
14, 191160, Note_on_c, 11, 85, 71
14, 191219, Note_on_c, 11, 85, 0
14, 191220, Note_on_c, 11, 81, 72
14, 191279, Note_on_c, 11, 81, 0
14, 191280, Note_on_c, 11, 88, 72
14, 191339, Note_on_c, 11, 88, 0
14, 191340, Note_on_c, 11, 81, 73
14, 191399, Note_on_c, 11, 81, 0
14, 191400, Note_on_c, 11, 88, 74
14, 191459, Note_on_c, 11, 88, 0
14, 191460, Note_on_c, 11, 86, 74
14, 191511, Note_on_c, 11, 86, 0
14, 191520, Note_on_c, 11, 82, 75
14, 191579, Note_on_c, 11, 82, 0
14, 191580, Note_on_c, 11, 81, 75
14, 191639, Note_on_c, 11, 81, 0
14, 191640, Note_on_c, 11, 85, 76
14, 191699, Note_on_c, 11, 85, 0
14, 191700, Note_on_c, 11, 81, 77
14, 191759, Note_on_c, 11, 81, 0
14, 191760, Note_on_c, 11, 88, 77
14, 191819, Note_on_c, 11, 88, 0
14, 191820, Note_on_c, 11, 81, 78
14, 191879, Note_on_c, 11, 81, 0
14, 191880, Note_on_c, 11, 88, 78
14, 191939, Note_on_c, 11, 88, 0
14, 191940, Note_on_c, 11, 86, 79
14, 191991, Note_on_c, 11, 86, 0
14, 192000, Note_on_c, 11, 79, 80
14, 192025, Note_on_c, 11, 79, 0
14, 192030, Note_on_c, 11, 81, 80
14, 192055, Note_on_c, 11, 81, 0
14, 192060, Note_on_c, 11, 79, 80
14, 192085, Note_on_c, 11, 79, 0
14, 192090, Note_on_c, 11, 77, 80
14, 192115, Note_on_c, 11, 77, 0
14, 192120, Note_on_c, 11, 76, 80
14, 192145, Note_on_c, 11, 76, 0
14, 192150, Note_on_c, 11, 77, 80
14, 192175, Note_on_c, 11, 77, 0
14, 192180, Note_on_c, 11, 76, 80
14, 192205, Note_on_c, 11, 76, 0
14, 192210, Note_on_c, 11, 74, 80
14, 192235, Note_on_c, 11, 74, 0
14, 192240, Note_on_c, 11, 73, 80
14, 192265, Note_on_c, 11, 73, 0
14, 192270, Note_on_c, 11, 74, 80
14, 192295, Note_on_c, 11, 74, 0
14, 192300, Note_on_c, 11, 76, 80
14, 192325, Note_on_c, 11, 76, 0
14, 192330, Note_on_c, 11, 77, 80
14, 192355, Note_on_c, 11, 77, 0
14, 192360, Note_on_c, 11, 79, 80
14, 192385, Note_on_c, 11, 79, 0
14, 192390, Note_on_c, 11, 81, 80
14, 192415, Note_on_c, 11, 81, 0
14, 192420, Note_on_c, 11, 83, 80
14, 192445, Note_on_c, 11, 83, 0
14, 192450, Note_on_c, 11, 85, 80
14, 192475, Note_on_c, 11, 85, 0
14, 192480, Note_on_c, 11, 86, 80
14, 192599, Note_on_c, 11, 86, 0
14, 192960, Note_on_c, 11, 82, 80
14, 192985, Note_on_c, 11, 82, 0
14, 192990, Note_on_c, 11, 84, 80
14, 193015, Note_on_c, 11, 84, 0
14, 193020, Note_on_c, 11, 82, 80
14, 193045, Note_on_c, 11, 82, 0
14, 193050, Note_on_c, 11, 81, 80
14, 193075, Note_on_c, 11, 81, 0
14, 193080, Note_on_c, 11, 79, 80
14, 193105, Note_on_c, 11, 79, 0
14, 193110, Note_on_c, 11, 81, 80
14, 193135, Note_on_c, 11, 81, 0
14, 193140, Note_on_c, 11, 79, 80
14, 193165, Note_on_c, 11, 79, 0
14, 193170, Note_on_c, 11, 77, 80
14, 193195, Note_on_c, 11, 77, 0
14, 193200, Note_on_c, 11, 76, 80
14, 193225, Note_on_c, 11, 76, 0
14, 193230, Note_on_c, 11, 77, 80
14, 193255, Note_on_c, 11, 77, 0
14, 193260, Note_on_c, 11, 79, 80
14, 193285, Note_on_c, 11, 79, 0
14, 193290, Note_on_c, 11, 81, 80
14, 193315, Note_on_c, 11, 81, 0
14, 193320, Note_on_c, 11, 82, 80
14, 193345, Note_on_c, 11, 82, 0
14, 193350, Note_on_c, 11, 84, 80
14, 193375, Note_on_c, 11, 84, 0
14, 193380, Note_on_c, 11, 86, 80
14, 193405, Note_on_c, 11, 86, 0
14, 193410, Note_on_c, 11, 88, 80
14, 193435, Note_on_c, 11, 88, 0
14, 193440, Note_on_c, 11, 90, 80
14, 193559, Note_on_c, 11, 90, 0
14, 193920, Note_on_c, 11, 74, 80
14, 193945, Note_on_c, 11, 74, 0
14, 193950, Note_on_c, 11, 75, 80
14, 193975, Note_on_c, 11, 75, 0
14, 193980, Note_on_c, 11, 74, 80
14, 194005, Note_on_c, 11, 74, 0
14, 194010, Note_on_c, 11, 72, 80
14, 194035, Note_on_c, 11, 72, 0
14, 194040, Note_on_c, 11, 70, 80
14, 194065, Note_on_c, 11, 70, 0
14, 194070, Note_on_c, 11, 72, 80
14, 194095, Note_on_c, 11, 72, 0
14, 194100, Note_on_c, 11, 70, 80
14, 194125, Note_on_c, 11, 70, 0
14, 194130, Note_on_c, 11, 69, 80
14, 194155, Note_on_c, 11, 69, 0
14, 194160, Note_on_c, 11, 67, 80
14, 194185, Note_on_c, 11, 67, 0
14, 194190, Note_on_c, 11, 69, 80
14, 194215, Note_on_c, 11, 69, 0
14, 194220, Note_on_c, 11, 70, 80
14, 194245, Note_on_c, 11, 70, 0
14, 194250, Note_on_c, 11, 72, 80
14, 194275, Note_on_c, 11, 72, 0
14, 194280, Note_on_c, 11, 74, 80
14, 194305, Note_on_c, 11, 74, 0
14, 194310, Note_on_c, 11, 76, 80
14, 194335, Note_on_c, 11, 76, 0
14, 194340, Note_on_c, 11, 78, 80
14, 194365, Note_on_c, 11, 78, 0
14, 194370, Note_on_c, 11, 79, 80
14, 194395, Note_on_c, 11, 79, 0
14, 194400, Note_on_c, 11, 79, 80
14, 194504, Note_on_c, 11, 79, 0
14, 194520, Note_on_c, 11, 55, 80
14, 194624, Note_on_c, 11, 55, 0
14, 194640, Note_on_c, 11, 85, 80
14, 194659, Note_on_c, 11, 85, 0
14, 194660, Note_on_c, 11, 86, 80
14, 194679, Note_on_c, 11, 86, 0
14, 194680, Note_on_c, 11, 85, 80
14, 194699, Note_on_c, 11, 85, 0
14, 194700, Note_on_c, 11, 86, 80
14, 194719, Note_on_c, 11, 86, 0
14, 194720, Note_on_c, 11, 85, 80
14, 194739, Note_on_c, 11, 85, 0
14, 194740, Note_on_c, 11, 86, 80
14, 194759, Note_on_c, 11, 86, 0
14, 194760, Note_on_c, 11, 85, 80
14, 194779, Note_on_c, 11, 85, 0
14, 194780, Note_on_c, 11, 86, 80
14, 194799, Note_on_c, 11, 86, 0
14, 194800, Note_on_c, 11, 85, 80
14, 194819, Note_on_c, 11, 85, 0
14, 194820, Note_on_c, 11, 86, 80
14, 194832, Note_on_c, 11, 86, 0
14, 194833, Note_on_c, 11, 85, 80
14, 194846, Note_on_c, 11, 85, 0
14, 194847, Note_on_c, 11, 83, 80
14, 194859, Note_on_c, 11, 83, 0
14, 194860, Note_on_c, 11, 85, 80
14, 194875, Note_on_c, 11, 85, 0
14, 194880, Note_on_c, 11, 86, 92
14, 194880, Note_on_c, 11, 62, 92
14, 194880, Note_on_c, 11, 74, 92
14, 194984, Note_on_c, 11, 86, 0
14, 194984, Note_on_c, 11, 62, 0
14, 194984, Note_on_c, 11, 74, 0
14, 195000, Note_on_c, 11, 86, 44
14, 195000, Note_on_c, 11, 74, 44
14, 195119, Note_on_c, 11, 86, 0
14, 195119, Note_on_c, 11, 74, 0
14, 195720, Note_on_c, 11, 86, 92
14, 195801, Note_on_c, 11, 86, 0
14, 195810, Note_on_c, 11, 86, 92
14, 195831, Note_on_c, 11, 86, 0
14, 195840, Note_on_c, 11, 76, 92
14, 195929, Note_on_c, 11, 76, 0
14, 195960, Note_on_c, 11, 88, 44
14, 196049, Note_on_c, 11, 88, 0
14, 196680, Note_on_c, 11, 88, 92
14, 196761, Note_on_c, 11, 88, 0
14, 196770, Note_on_c, 11, 88, 92
14, 196791, Note_on_c, 11, 88, 0
14, 196800, Note_on_c, 11, 78, 92
14, 196889, Note_on_c, 11, 78, 0
14, 196920, Note_on_c, 11, 90, 44
14, 197009, Note_on_c, 11, 90, 0
14, 197640, Note_on_c, 11, 78, 92
14, 197721, Note_on_c, 11, 78, 0
14, 197730, Note_on_c, 11, 78, 92
14, 197751, Note_on_c, 11, 78, 0
14, 197760, Note_on_c, 11, 67, 92
14, 197849, Note_on_c, 11, 67, 0
14, 197880, Note_on_c, 11, 79, 44
14, 197969, Note_on_c, 11, 79, 0
14, 199440, Note_on_c, 11, 82, 92
14, 199559, Note_on_c, 11, 82, 0
14, 199560, Note_on_c, 11, 81, 80
14, 199619, Note_on_c, 11, 81, 0
14, 199680, Note_on_c, 11, 81, 80
14, 199799, Note_on_c, 11, 81, 0
14, 199800, Note_on_c, 11, 79, 80
14, 199859, Note_on_c, 11, 79, 0
14, 199920, Note_on_c, 11, 79, 80
14, 200039, Note_on_c, 11, 79, 0
14, 200040, Note_on_c, 11, 77, 80
14, 200099, Note_on_c, 11, 77, 0
14, 200160, Note_on_c, 11, 77, 80
14, 200279, Note_on_c, 11, 77, 0
14, 200280, Note_on_c, 11, 75, 80
14, 200339, Note_on_c, 11, 75, 0
14, 200400, Note_on_c, 11, 86, 92
14, 200419, Note_on_c, 11, 86, 0
14, 200420, Note_on_c, 11, 88, 92
14, 200439, Note_on_c, 11, 88, 0
14, 200440, Note_on_c, 11, 86, 92
14, 200459, Note_on_c, 11, 86, 0
14, 200460, Note_on_c, 11, 88, 92
14, 200472, Note_on_c, 11, 88, 0
14, 200474, Note_on_c, 11, 86, 92
14, 200487, Note_on_c, 11, 86, 0
14, 200487, Note_on_c, 11, 85, 92
14, 200499, Note_on_c, 11, 85, 0
14, 200500, Note_on_c, 11, 86, 92
14, 200519, Note_on_c, 11, 86, 0
14, 200520, Note_on_c, 11, 88, 92
14, 200579, Note_on_c, 11, 88, 0
14, 200580, Note_on_c, 11, 85, 92
14, 200631, Note_on_c, 11, 85, 0
14, 200640, Note_on_c, 11, 86, 92
14, 200744, Note_on_c, 11, 86, 0
14, 200760, Note_on_c, 11, 74, 92
14, 200841, Note_on_c, 11, 74, 0
14, 200850, Note_on_c, 11, 74, 92
14, 200871, Note_on_c, 11, 74, 0
14, 200880, Note_on_c, 11, 77, 104
14, 200939, Note_on_c, 11, 77, 0
14, 200940, Note_on_c, 11, 77, 92
14, 201224, Note_on_c, 11, 77, 0
14, 201240, Note_on_c, 11, 77, 92
14, 201321, Note_on_c, 11, 77, 0
14, 201330, Note_on_c, 11, 77, 92
14, 201351, Note_on_c, 11, 77, 0
14, 201360, Note_on_c, 11, 81, 104
14, 201419, Note_on_c, 11, 81, 0
14, 201420, Note_on_c, 11, 81, 92
14, 201704, Note_on_c, 11, 81, 0
14, 201720, Note_on_c, 11, 81, 92
14, 201801, Note_on_c, 11, 81, 0
14, 201810, Note_on_c, 11, 81, 92
14, 201831, Note_on_c, 11, 81, 0
14, 201840, Note_on_c, 11, 86, 104
14, 201899, Note_on_c, 11, 86, 0
14, 201900, Note_on_c, 11, 86, 92
14, 202184, Note_on_c, 11, 86, 0
14, 202200, Note_on_c, 11, 86, 92
14, 202281, Note_on_c, 11, 86, 0
14, 202290, Note_on_c, 11, 86, 92
14, 202311, Note_on_c, 11, 86, 0
14, 202320, Note_on_c, 11, 89, 92
14, 202424, Note_on_c, 11, 89, 0
14, 202440, Note_on_c, 11, 89, 92
14, 202521, Note_on_c, 11, 89, 0
14, 202530, Note_on_c, 11, 89, 92
14, 202551, Note_on_c, 11, 89, 0
14, 202560, Note_on_c, 11, 93, 80
14, 202649, Note_on_c, 11, 93, 0
14, 202680, Note_on_c, 11, 86, 80
14, 202761, Note_on_c, 11, 86, 0
14, 202770, Note_on_c, 11, 86, 80
14, 202791, Note_on_c, 11, 86, 0
14, 202800, Note_on_c, 11, 89, 80
14, 202889, Note_on_c, 11, 89, 0
14, 202920, Note_on_c, 11, 81, 80
14, 203001, Note_on_c, 11, 81, 0
14, 203010, Note_on_c, 11, 81, 80
14, 203031, Note_on_c, 11, 81, 0
14, 203040, Note_on_c, 11, 86, 80
14, 203129, Note_on_c, 11, 86, 0
14, 203160, Note_on_c, 11, 77, 80
14, 203241, Note_on_c, 11, 77, 0
14, 203250, Note_on_c, 11, 77, 80
14, 203271, Note_on_c, 11, 77, 0
14, 203280, Note_on_c, 11, 81, 80
14, 203369, Note_on_c, 11, 81, 0
14, 203400, Note_on_c, 11, 74, 80
14, 203481, Note_on_c, 11, 74, 0
14, 203490, Note_on_c, 11, 74, 80
14, 203511, Note_on_c, 11, 74, 0
14, 203520, Note_on_c, 11, 77, 80
14, 203609, Note_on_c, 11, 77, 0
14, 203640, Note_on_c, 11, 69, 80
14, 203721, Note_on_c, 11, 69, 0
14, 203730, Note_on_c, 11, 69, 80
14, 203751, Note_on_c, 11, 69, 0
14, 203760, Note_on_c, 11, 74, 80
14, 203849, Note_on_c, 11, 74, 0
14, 203880, Note_on_c, 11, 65, 80
14, 203961, Note_on_c, 11, 65, 0
14, 203970, Note_on_c, 11, 65, 80
14, 203991, Note_on_c, 11, 65, 0
14, 204000, Note_on_c, 11, 69, 80
14, 204089, Note_on_c, 11, 69, 0
14, 204120, Note_on_c, 11, 62, 80
14, 204201, Note_on_c, 11, 62, 0
14, 204210, Note_on_c, 11, 62, 80
14, 204231, Note_on_c, 11, 62, 0
14, 204240, Note_on_c, 11, 86, 80
14, 204329, Note_on_c, 11, 86, 0
14, 204360, Note_on_c, 11, 62, 80
14, 204441, Note_on_c, 11, 62, 0
14, 204450, Note_on_c, 11, 86, 53
14, 204471, Note_on_c, 11, 86, 0
14, 204480, Note_on_c, 11, 81, 44
14, 204719, Note_on_c, 11, 81, 0
14, 204720, Note_on_c, 11, 81, 44
14, 204921, Note_on_c, 11, 81, 0
14, 204930, Note_on_c, 11, 77, 44
14, 204951, Note_on_c, 11, 77, 0
14, 204960, Note_on_c, 11, 74, 44
14, 205161, Note_on_c, 11, 74, 0
14, 205170, Note_on_c, 11, 69, 44
14, 205191, Note_on_c, 11, 69, 0
14, 205200, Note_on_c, 11, 65, 44
14, 205364, Note_on_c, 11, 65, 0
14, 205380, Note_on_c, 11, 69, 44
14, 205409, Note_on_c, 11, 69, 0
14, 205410, Note_on_c, 11, 65, 44
14, 205431, Note_on_c, 11, 65, 0
14, 205440, Note_on_c, 11, 62, 44
14, 205739, Note_on_c, 11, 62, 0
14, 205740, Note_on_c, 11, 65, 44
14, 205791, Note_on_c, 11, 65, 0
14, 205800, Note_on_c, 11, 64, 44
14, 205844, Note_on_c, 11, 64, 0
14, 205860, Note_on_c, 11, 62, 44
14, 205904, Note_on_c, 11, 62, 0
14, 205920, Note_on_c, 11, 62, 44
14, 206159, Note_on_c, 11, 62, 0
14, 206160, Note_on_c, 11, 61, 44
14, 206219, Note_on_c, 11, 61, 0
14, 206220, Note_on_c, 11, 70, 44
14, 206271, Note_on_c, 11, 70, 0
14, 206280, Note_on_c, 11, 69, 44
14, 206324, Note_on_c, 11, 69, 0
14, 206370, Note_on_c, 11, 79, 44
14, 206391, Note_on_c, 11, 79, 0
14, 206400, Note_on_c, 11, 79, 44
14, 206639, Note_on_c, 11, 79, 0
14, 206640, Note_on_c, 11, 79, 44
14, 206841, Note_on_c, 11, 79, 0
14, 206850, Note_on_c, 11, 76, 44
14, 206871, Note_on_c, 11, 76, 0
14, 206880, Note_on_c, 11, 73, 44
14, 207081, Note_on_c, 11, 73, 0
14, 207090, Note_on_c, 11, 70, 44
14, 207111, Note_on_c, 11, 70, 0
14, 207120, Note_on_c, 11, 67, 44
14, 207284, Note_on_c, 11, 67, 0
14, 207300, Note_on_c, 11, 67, 44
14, 207329, Note_on_c, 11, 67, 0
14, 207330, Note_on_c, 11, 64, 44
14, 207351, Note_on_c, 11, 64, 0
14, 207360, Note_on_c, 11, 61, 44
14, 207659, Note_on_c, 11, 61, 0
14, 207660, Note_on_c, 11, 70, 44
14, 207711, Note_on_c, 11, 70, 0
14, 207720, Note_on_c, 11, 69, 44
14, 207764, Note_on_c, 11, 69, 0
14, 207780, Note_on_c, 11, 67, 44
14, 207824, Note_on_c, 11, 67, 0
14, 207840, Note_on_c, 11, 67, 44
14, 208079, Note_on_c, 11, 67, 0
14, 208080, Note_on_c, 11, 69, 44
14, 208139, Note_on_c, 11, 69, 0
14, 208140, Note_on_c, 11, 72, 44
14, 208191, Note_on_c, 11, 72, 0
14, 208200, Note_on_c, 11, 70, 44
14, 208244, Note_on_c, 11, 70, 0
14, 208260, Note_on_c, 11, 69, 44
14, 208289, Note_on_c, 11, 69, 0
14, 208290, Note_on_c, 11, 84, 44
14, 208311, Note_on_c, 11, 84, 0
14, 208320, Note_on_c, 11, 84, 44
14, 208559, Note_on_c, 11, 84, 0
14, 208560, Note_on_c, 11, 84, 44
14, 208761, Note_on_c, 11, 84, 0
14, 208770, Note_on_c, 11, 81, 44
14, 208791, Note_on_c, 11, 81, 0
14, 208800, Note_on_c, 11, 78, 44
14, 209001, Note_on_c, 11, 78, 0
14, 209010, Note_on_c, 11, 75, 44
14, 209031, Note_on_c, 11, 75, 0
14, 209040, Note_on_c, 11, 72, 44
14, 209204, Note_on_c, 11, 72, 0
14, 209220, Note_on_c, 11, 72, 44
14, 209249, Note_on_c, 11, 72, 0
14, 209250, Note_on_c, 11, 69, 44
14, 209271, Note_on_c, 11, 69, 0
14, 209280, Note_on_c, 11, 66, 44
14, 209579, Note_on_c, 11, 66, 0
14, 209580, Note_on_c, 11, 69, 44
14, 209631, Note_on_c, 11, 69, 0
14, 209640, Note_on_c, 11, 67, 44
14, 209684, Note_on_c, 11, 67, 0
14, 209700, Note_on_c, 11, 66, 44
14, 209744, Note_on_c, 11, 66, 0
14, 209760, Note_on_c, 11, 66, 44
14, 210059, Note_on_c, 11, 66, 0
14, 210060, Note_on_c, 11, 75, 44
14, 210111, Note_on_c, 11, 75, 0
14, 210120, Note_on_c, 11, 74, 44
14, 210164, Note_on_c, 11, 74, 0
14, 210210, Note_on_c, 11, 86, 44
14, 210231, Note_on_c, 11, 86, 0
14, 210240, Note_on_c, 11, 84, 44
14, 210359, Note_on_c, 11, 84, 0
14, 210450, Note_on_c, 11, 84, 45
14, 210471, Note_on_c, 11, 84, 0
14, 210480, Note_on_c, 11, 81, 45
14, 210599, Note_on_c, 11, 81, 0
14, 210690, Note_on_c, 11, 78, 47
14, 210711, Note_on_c, 11, 78, 0
14, 210720, Note_on_c, 11, 74, 47
14, 210839, Note_on_c, 11, 74, 0
14, 210930, Note_on_c, 11, 72, 48
14, 210951, Note_on_c, 11, 72, 0
14, 210960, Note_on_c, 11, 71, 49
14, 211079, Note_on_c, 11, 71, 0
14, 211200, Note_on_c, 11, 62, 50
14, 211499, Note_on_c, 11, 62, 0
14, 211500, Note_on_c, 11, 65, 53
14, 211551, Note_on_c, 11, 65, 0
14, 211560, Note_on_c, 11, 63, 53
14, 211604, Note_on_c, 11, 63, 0
14, 211620, Note_on_c, 11, 62, 53
14, 211664, Note_on_c, 11, 62, 0
14, 211680, Note_on_c, 11, 62, 54
14, 211904, Note_on_c, 11, 62, 0
14, 211920, Note_on_c, 11, 64, 56
14, 211979, Note_on_c, 11, 64, 0
14, 211980, Note_on_c, 11, 79, 56
14, 212031, Note_on_c, 11, 79, 0
14, 212040, Note_on_c, 11, 77, 56
14, 212084, Note_on_c, 11, 77, 0
14, 212100, Note_on_c, 11, 76, 57
14, 212129, Note_on_c, 11, 76, 0
14, 212130, Note_on_c, 11, 84, 57
14, 212151, Note_on_c, 11, 84, 0
14, 212160, Note_on_c, 11, 82, 57
14, 212279, Note_on_c, 11, 82, 0
14, 212370, Note_on_c, 11, 79, 59
14, 212391, Note_on_c, 11, 79, 0
14, 212400, Note_on_c, 11, 76, 59
14, 212519, Note_on_c, 11, 76, 0
14, 212610, Note_on_c, 11, 72, 60
14, 212631, Note_on_c, 11, 72, 0
14, 212640, Note_on_c, 11, 70, 61
14, 212759, Note_on_c, 11, 70, 0
14, 212850, Note_on_c, 11, 67, 62
14, 212871, Note_on_c, 11, 67, 0
14, 212880, Note_on_c, 11, 64, 62
14, 212999, Note_on_c, 11, 64, 0
14, 213120, Note_on_c, 11, 64, 64
14, 213419, Note_on_c, 11, 64, 0
14, 213420, Note_on_c, 11, 67, 66
14, 213471, Note_on_c, 11, 67, 0
14, 213480, Note_on_c, 11, 65, 67
14, 213524, Note_on_c, 11, 65, 0
14, 213540, Note_on_c, 11, 64, 67
14, 213584, Note_on_c, 11, 64, 0
14, 213600, Note_on_c, 11, 64, 68
14, 213899, Note_on_c, 11, 64, 0
14, 213900, Note_on_c, 11, 79, 70
14, 213951, Note_on_c, 11, 79, 0
14, 213960, Note_on_c, 11, 77, 70
14, 214004, Note_on_c, 11, 77, 0
14, 214050, Note_on_c, 11, 76, 71
14, 214071, Note_on_c, 11, 76, 0
14, 214080, Note_on_c, 11, 73, 71
14, 214199, Note_on_c, 11, 73, 0
14, 214290, Note_on_c, 11, 70, 72
14, 214311, Note_on_c, 11, 70, 0
14, 214320, Note_on_c, 11, 67, 73
14, 214439, Note_on_c, 11, 67, 0
14, 214860, Note_on_c, 11, 82, 77
14, 214919, Note_on_c, 11, 82, 0
14, 214920, Note_on_c, 11, 81, 77
14, 214979, Note_on_c, 11, 81, 0
14, 215010, Note_on_c, 11, 79, 78
14, 215031, Note_on_c, 11, 79, 0
14, 215040, Note_on_c, 11, 79, 78
14, 215159, Note_on_c, 11, 79, 0
14, 215250, Note_on_c, 11, 76, 79
14, 215271, Note_on_c, 11, 76, 0
14, 215280, Note_on_c, 11, 73, 80
14, 215399, Note_on_c, 11, 73, 0
14, 215820, Note_on_c, 11, 82, 83
14, 215879, Note_on_c, 11, 82, 0
14, 215880, Note_on_c, 11, 81, 84
14, 215939, Note_on_c, 11, 81, 0
14, 215970, Note_on_c, 11, 79, 84
14, 215991, Note_on_c, 11, 79, 0
14, 216000, Note_on_c, 11, 79, 85
14, 216119, Note_on_c, 11, 79, 0
14, 216210, Note_on_c, 11, 76, 86
14, 216231, Note_on_c, 11, 76, 0
14, 216240, Note_on_c, 11, 73, 86
14, 216359, Note_on_c, 11, 73, 0
14, 216780, Note_on_c, 11, 82, 90
14, 216839, Note_on_c, 11, 82, 0
14, 216840, Note_on_c, 11, 81, 91
14, 216899, Note_on_c, 11, 81, 0
14, 216930, Note_on_c, 11, 82, 91
14, 216951, Note_on_c, 11, 82, 0
14, 216960, Note_on_c, 11, 81, 92
14, 217319, Note_on_c, 11, 81, 0
14, 217320, Note_on_c, 11, 80, 92
14, 217439, Note_on_c, 11, 80, 0
14, 217440, Note_on_c, 11, 79, 92
14, 217491, Note_on_c, 11, 79, 0
14, 217500, Note_on_c, 11, 77, 92
14, 217559, Note_on_c, 11, 77, 0
14, 217560, Note_on_c, 11, 76, 92
14, 217611, Note_on_c, 11, 76, 0
14, 217620, Note_on_c, 11, 74, 92
14, 217679, Note_on_c, 11, 74, 0
14, 217680, Note_on_c, 11, 73, 92
14, 217731, Note_on_c, 11, 73, 0
14, 217740, Note_on_c, 11, 70, 92
14, 217799, Note_on_c, 11, 70, 0
14, 217800, Note_on_c, 11, 69, 92
14, 217851, Note_on_c, 11, 69, 0
14, 217860, Note_on_c, 11, 67, 92
14, 217919, Note_on_c, 11, 67, 0
14, 217920, Note_on_c, 11, 65, 92
14, 217971, Note_on_c, 11, 65, 0
14, 217980, Note_on_c, 11, 64, 92
14, 218039, Note_on_c, 11, 64, 0
14, 218040, Note_on_c, 11, 62, 92
14, 218091, Note_on_c, 11, 62, 0
14, 218100, Note_on_c, 11, 60, 92
14, 218159, Note_on_c, 11, 60, 0
14, 218160, Note_on_c, 11, 58, 92
14, 218211, Note_on_c, 11, 58, 0
14, 218220, Note_on_c, 11, 57, 92
14, 218279, Note_on_c, 11, 57, 0
14, 218280, Note_on_c, 11, 55, 92
14, 218331, Note_on_c, 11, 55, 0
14, 218340, Note_on_c, 11, 77, 92
14, 218399, Note_on_c, 11, 77, 0
14, 218400, Note_on_c, 11, 76, 92
14, 218504, Note_on_c, 11, 76, 0
14, 218520, Note_on_c, 11, 88, 92
14, 218639, Note_on_c, 11, 88, 0
14, 218760, Note_on_c, 11, 69, 92
14, 218760, Note_on_c, 11, 88, 92
14, 218864, Note_on_c, 11, 69, 0
14, 218864, Note_on_c, 11, 88, 0
14, 218878, Control_c, 11, 11, 67
14, 218880, Note_on_c, 11, 81, 80
14, 218880, Control_c, 11, 11, 67
14, 218928, Control_c, 11, 11, 68
14, 218976, Control_c, 11, 11, 69
14, 219024, Control_c, 11, 11, 70
14, 219072, Control_c, 11, 11, 71
14, 219120, Control_c, 11, 11, 72
14, 219168, Control_c, 11, 11, 73
14, 219216, Control_c, 11, 11, 74
14, 219239, Note_on_c, 11, 81, 0
14, 219240, Note_on_c, 11, 80, 80
14, 219264, Control_c, 11, 11, 75
14, 219312, Control_c, 11, 11, 76
14, 219359, Note_on_c, 11, 80, 0
14, 219360, Control_c, 11, 11, 77
14, 219360, Note_on_c, 11, 79, 80
14, 219408, Control_c, 11, 11, 78
14, 219411, Note_on_c, 11, 79, 0
14, 219420, Note_on_c, 11, 77, 80
14, 219456, Control_c, 11, 11, 79
14, 219479, Note_on_c, 11, 77, 0
14, 219480, Note_on_c, 11, 76, 80
14, 219504, Control_c, 11, 11, 80
14, 219531, Note_on_c, 11, 76, 0
14, 219540, Note_on_c, 11, 74, 80
14, 219552, Control_c, 11, 11, 81
14, 219599, Note_on_c, 11, 74, 0
14, 219600, Control_c, 11, 11, 82
14, 219600, Note_on_c, 11, 73, 80
14, 219648, Control_c, 11, 11, 83
14, 219651, Note_on_c, 11, 73, 0
14, 219660, Note_on_c, 11, 70, 80
14, 219696, Control_c, 11, 11, 84
14, 219719, Note_on_c, 11, 70, 0
14, 219720, Note_on_c, 11, 69, 80
14, 219744, Control_c, 11, 11, 85
14, 219771, Note_on_c, 11, 69, 0
14, 219780, Note_on_c, 11, 67, 80
14, 219792, Control_c, 11, 11, 86
14, 219839, Note_on_c, 11, 67, 0
14, 219840, Control_c, 11, 11, 87
14, 219888, Control_c, 11, 11, 88
14, 219936, Control_c, 11, 11, 89
14, 219960, Note_on_c, 11, 65, 80
14, 219984, Control_c, 11, 11, 90
14, 220032, Control_c, 11, 11, 91
14, 220080, Control_c, 11, 11, 92
14, 220128, Control_c, 11, 11, 93
14, 220131, Note_on_c, 11, 65, 0
14, 220140, Note_on_c, 11, 67, 80
14, 220176, Control_c, 11, 11, 94
14, 220199, Note_on_c, 11, 67, 0
14, 220200, Note_on_c, 11, 69, 80
14, 220224, Control_c, 11, 11, 95
14, 220251, Note_on_c, 11, 69, 0
14, 220260, Note_on_c, 11, 70, 80
14, 220272, Control_c, 11, 11, 96
14, 220319, Note_on_c, 11, 70, 0
14, 220320, Note_on_c, 11, 72, 80
14, 220320, Control_c, 11, 11, 97
14, 220368, Control_c, 11, 11, 98
14, 220371, Note_on_c, 11, 72, 0
14, 220380, Note_on_c, 11, 74, 80
14, 220416, Control_c, 11, 11, 99
14, 220439, Note_on_c, 11, 74, 0
14, 220440, Note_on_c, 11, 75, 80
14, 220464, Control_c, 11, 11, 100
14, 220491, Note_on_c, 11, 75, 0
14, 220500, Note_on_c, 11, 77, 80
14, 220512, Control_c, 11, 11, 101
14, 220559, Note_on_c, 11, 77, 0
14, 220560, Note_on_c, 11, 79, 80
14, 220560, Control_c, 11, 11, 102
14, 220608, Control_c, 11, 11, 103
14, 220611, Note_on_c, 11, 79, 0
14, 220620, Note_on_c, 11, 81, 80
14, 220656, Control_c, 11, 11, 104
14, 220679, Note_on_c, 11, 81, 0
14, 220680, Note_on_c, 11, 82, 80
14, 220704, Control_c, 11, 11, 105
14, 220731, Note_on_c, 11, 82, 0
14, 220740, Note_on_c, 11, 84, 80
14, 220752, Control_c, 11, 11, 106
14, 220791, Note_on_c, 11, 84, 0
14, 220800, Note_on_c, 11, 86, 80
14, 220800, Control_c, 11, 11, 107
14, 220848, Control_c, 11, 11, 108
14, 220896, Control_c, 11, 11, 109
14, 220944, Control_c, 11, 11, 110
14, 220992, Control_c, 11, 11, 111
14, 221040, Control_c, 11, 11, 112
14, 221088, Control_c, 11, 11, 113
14, 221136, Control_c, 11, 11, 114
14, 221159, Note_on_c, 11, 86, 0
14, 221160, Note_on_c, 11, 85, 80
14, 221184, Control_c, 11, 11, 115
14, 221232, Control_c, 11, 11, 116
14, 221279, Note_on_c, 11, 85, 0
14, 221280, Note_on_c, 11, 84, 80
14, 221280, Control_c, 11, 11, 117
14, 221328, Control_c, 11, 11, 118
14, 221331, Note_on_c, 11, 84, 0
14, 221340, Note_on_c, 11, 82, 80
14, 221376, Control_c, 11, 11, 119
14, 221399, Note_on_c, 11, 82, 0
14, 221400, Note_on_c, 11, 81, 80
14, 221424, Control_c, 11, 11, 120
14, 221451, Note_on_c, 11, 81, 0
14, 221460, Note_on_c, 11, 79, 80
14, 221472, Control_c, 11, 11, 121
14, 221519, Note_on_c, 11, 79, 0
14, 221520, Control_c, 11, 11, 122
14, 221520, Note_on_c, 11, 78, 80
14, 221568, Control_c, 11, 11, 123
14, 221571, Note_on_c, 11, 78, 0
14, 221580, Note_on_c, 11, 75, 80
14, 221616, Control_c, 11, 11, 124
14, 221639, Note_on_c, 11, 75, 0
14, 221640, Note_on_c, 11, 74, 80
14, 221664, Control_c, 11, 11, 125
14, 221691, Note_on_c, 11, 74, 0
14, 221700, Note_on_c, 11, 72, 80
14, 221712, Control_c, 11, 11, 127
14, 221751, Note_on_c, 11, 72, 0
14, 221760, Note_on_c, 11, 70, 80
14, 221864, Note_on_c, 11, 70, 0
14, 221880, Note_on_c, 11, 70, 80
14, 221961, Note_on_c, 11, 70, 0
14, 221970, Note_on_c, 11, 70, 80
14, 221991, Note_on_c, 11, 70, 0
14, 222000, Note_on_c, 11, 70, 92
14, 222059, Note_on_c, 11, 70, 0
14, 222060, Note_on_c, 11, 70, 80
14, 222344, Note_on_c, 11, 70, 0
14, 222360, Note_on_c, 11, 70, 80
14, 222441, Note_on_c, 11, 70, 0
14, 222450, Note_on_c, 11, 70, 80
14, 222471, Note_on_c, 11, 70, 0
14, 222480, Note_on_c, 11, 75, 92
14, 222539, Note_on_c, 11, 75, 0
14, 222540, Note_on_c, 11, 75, 80
14, 222824, Note_on_c, 11, 75, 0
14, 222840, Note_on_c, 11, 73, 80
14, 222921, Note_on_c, 11, 73, 0
14, 222930, Note_on_c, 11, 73, 80
14, 222951, Note_on_c, 11, 73, 0
14, 222960, Note_on_c, 11, 73, 92
14, 223019, Note_on_c, 11, 73, 0
14, 223020, Note_on_c, 11, 73, 80
14, 223304, Note_on_c, 11, 73, 0
14, 223320, Note_on_c, 11, 77, 80
14, 223401, Note_on_c, 11, 77, 0
14, 223410, Note_on_c, 11, 77, 80
14, 223431, Note_on_c, 11, 77, 0
14, 223440, Note_on_c, 11, 77, 92
14, 223499, Note_on_c, 11, 77, 0
14, 223500, Note_on_c, 11, 77, 80
14, 223784, Note_on_c, 11, 77, 0
14, 223800, Note_on_c, 11, 74, 80
14, 223881, Note_on_c, 11, 74, 0
14, 223890, Note_on_c, 11, 74, 80
14, 223911, Note_on_c, 11, 74, 0
14, 223920, Note_on_c, 11, 74, 80
14, 224024, Note_on_c, 11, 74, 0
14, 224040, Note_on_c, 11, 79, 80
14, 224121, Note_on_c, 11, 79, 0
14, 224130, Note_on_c, 11, 79, 80
14, 224151, Note_on_c, 11, 79, 0
14, 224160, Note_on_c, 11, 79, 80
14, 224264, Note_on_c, 11, 79, 0
14, 224280, Note_on_c, 11, 76, 80
14, 224361, Note_on_c, 11, 76, 0
14, 224370, Note_on_c, 11, 76, 80
14, 224391, Note_on_c, 11, 76, 0
14, 224400, Note_on_c, 11, 76, 80
14, 224504, Note_on_c, 11, 76, 0
14, 224520, Note_on_c, 11, 69, 80
14, 224520, Note_on_c, 11, 81, 80
14, 224601, Note_on_c, 11, 69, 0
14, 224601, Note_on_c, 11, 81, 0
14, 224610, Note_on_c, 11, 81, 80
14, 224610, Note_on_c, 11, 69, 80
14, 224631, Note_on_c, 11, 81, 0
14, 224631, Note_on_c, 11, 69, 0
14, 224640, Note_on_c, 11, 81, 44
14, 225119, Note_on_c, 11, 81, 0
14, 225120, Note_on_c, 11, 81, 44
14, 225599, Note_on_c, 11, 81, 0
14, 225600, Note_on_c, 11, 81, 44
14, 226079, Note_on_c, 11, 81, 0
14, 226080, Note_on_c, 11, 81, 44
14, 226559, Note_on_c, 11, 81, 0
14, 226560, Note_on_c, 11, 81, 44
14, 227039, Note_on_c, 11, 81, 0
14, 227040, Note_on_c, 11, 81, 44
14, 227519, Note_on_c, 11, 81, 0
14, 227520, Note_on_c, 11, 81, 44
14, 227999, Note_on_c, 11, 81, 0
14, 228000, Note_on_c, 11, 81, 44
14, 228464, Note_on_c, 11, 81, 0
14, 228480, Note_on_c, 11, 74, 44
14, 228771, Note_on_c, 11, 74, 0
14, 228780, Note_on_c, 11, 77, 44
14, 228824, Note_on_c, 11, 77, 0
14, 228840, Note_on_c, 11, 76, 44
14, 228884, Note_on_c, 11, 76, 0
14, 228900, Note_on_c, 11, 74, 44
14, 228944, Note_on_c, 11, 74, 0
14, 228960, Note_on_c, 11, 81, 44
14, 229049, Note_on_c, 11, 81, 0
14, 229080, Note_on_c, 11, 79, 44
14, 229169, Note_on_c, 11, 79, 0
14, 229200, Note_on_c, 11, 76, 44
14, 229289, Note_on_c, 11, 76, 0
14, 229320, Note_on_c, 11, 81, 44
14, 229439, Note_on_c, 11, 81, 0
14, 229440, Note_on_c, 11, 81, 44
14, 229559, Note_on_c, 11, 81, 0
14, 229560, Note_on_c, 11, 77, 44
14, 229649, Note_on_c, 11, 77, 0
14, 229680, Note_on_c, 11, 74, 44
14, 229769, Note_on_c, 11, 74, 0
14, 229800, Note_on_c, 11, 81, 44
14, 229919, Note_on_c, 11, 81, 0
14, 229920, Note_on_c, 11, 81, 44
14, 230024, Note_on_c, 11, 81, 0
14, 230040, Note_on_c, 11, 76, 44
14, 230129, Note_on_c, 11, 76, 0
14, 230160, Note_on_c, 11, 73, 44
14, 230249, Note_on_c, 11, 73, 0
14, 230280, Note_on_c, 11, 81, 44
14, 230399, Note_on_c, 11, 81, 0
14, 230400, Note_on_c, 11, 81, 44
14, 230504, Note_on_c, 11, 81, 0
14, 230520, Note_on_c, 11, 77, 45
14, 230609, Note_on_c, 11, 77, 0
14, 230640, Note_on_c, 11, 74, 46
14, 230729, Note_on_c, 11, 74, 0
14, 230760, Note_on_c, 11, 81, 47
14, 230879, Note_on_c, 11, 81, 0
14, 230880, Note_on_c, 11, 81, 48
14, 230984, Note_on_c, 11, 81, 0
14, 231000, Note_on_c, 11, 79, 49
14, 231089, Note_on_c, 11, 79, 0
14, 231120, Note_on_c, 11, 76, 50
14, 231209, Note_on_c, 11, 76, 0
14, 231240, Note_on_c, 11, 81, 52
14, 231359, Note_on_c, 11, 81, 0
14, 231360, Note_on_c, 11, 81, 53
14, 231464, Note_on_c, 11, 81, 0
14, 231480, Note_on_c, 11, 77, 54
14, 231569, Note_on_c, 11, 77, 0
14, 231600, Note_on_c, 11, 74, 55
14, 231689, Note_on_c, 11, 74, 0
14, 231720, Note_on_c, 11, 81, 56
14, 231839, Note_on_c, 11, 81, 0
14, 231840, Note_on_c, 11, 81, 57
14, 231944, Note_on_c, 11, 81, 0
14, 231960, Note_on_c, 11, 77, 59
14, 232049, Note_on_c, 11, 77, 0
14, 232080, Note_on_c, 11, 74, 60
14, 232169, Note_on_c, 11, 74, 0
14, 232200, Note_on_c, 11, 82, 61
14, 232319, Note_on_c, 11, 82, 0
14, 232320, Note_on_c, 11, 82, 62
14, 232424, Note_on_c, 11, 82, 0
14, 232440, Note_on_c, 11, 79, 63
14, 232529, Note_on_c, 11, 79, 0
14, 232560, Note_on_c, 11, 76, 64
14, 232649, Note_on_c, 11, 76, 0
14, 232680, Note_on_c, 11, 85, 66
14, 232799, Note_on_c, 11, 85, 0
14, 232800, Note_on_c, 11, 85, 67
14, 232904, Note_on_c, 11, 85, 0
14, 232920, Note_on_c, 11, 81, 68
14, 233009, Note_on_c, 11, 81, 0
14, 233040, Note_on_c, 11, 77, 69
14, 233129, Note_on_c, 11, 77, 0
14, 233160, Note_on_c, 11, 86, 70
14, 233279, Note_on_c, 11, 86, 0
14, 233280, Note_on_c, 11, 86, 71
14, 233384, Note_on_c, 11, 86, 0
14, 233400, Note_on_c, 11, 82, 73
14, 233489, Note_on_c, 11, 82, 0
14, 233520, Note_on_c, 11, 79, 74
14, 233609, Note_on_c, 11, 79, 0
14, 233640, Note_on_c, 11, 87, 75
14, 233759, Note_on_c, 11, 87, 0
14, 233760, Note_on_c, 11, 87, 76
14, 233864, Note_on_c, 11, 87, 0
14, 233880, Note_on_c, 11, 84, 77
14, 233969, Note_on_c, 11, 84, 0
14, 234000, Note_on_c, 11, 81, 78
14, 234089, Note_on_c, 11, 81, 0
14, 234120, Note_on_c, 11, 78, 80
14, 234239, Note_on_c, 11, 78, 0
14, 234240, Note_on_c, 11, 78, 80
14, 234344, Note_on_c, 11, 78, 0
14, 234360, Note_on_c, 11, 74, 80
14, 234449, Note_on_c, 11, 74, 0
14, 234480, Note_on_c, 11, 70, 80
14, 234569, Note_on_c, 11, 70, 0
14, 234600, Note_on_c, 11, 80, 92
14, 234719, Note_on_c, 11, 80, 0
14, 234720, Note_on_c, 11, 80, 92
14, 234824, Note_on_c, 11, 80, 0
14, 234840, Note_on_c, 11, 74, 92
14, 234929, Note_on_c, 11, 74, 0
14, 234960, Note_on_c, 11, 70, 92
14, 235049, Note_on_c, 11, 70, 0
14, 235080, Note_on_c, 11, 80, 92
14, 235199, Note_on_c, 11, 80, 0
14, 235200, Note_on_c, 11, 80, 83
14, 235304, Note_on_c, 11, 80, 0
14, 235320, Note_on_c, 11, 74, 73
14, 235409, Note_on_c, 11, 74, 0
14, 235440, Note_on_c, 11, 70, 64
14, 235529, Note_on_c, 11, 70, 0
14, 235560, Note_on_c, 11, 79, 54
14, 235679, Note_on_c, 11, 79, 0
14, 235680, Note_on_c, 11, 79, 44
14, 235784, Note_on_c, 11, 79, 0
14, 235800, Note_on_c, 11, 75, 38
14, 235889, Note_on_c, 11, 75, 0
14, 235920, Note_on_c, 11, 70, 38
14, 236009, Note_on_c, 11, 70, 0
14, 236040, Note_on_c, 11, 79, 38
14, 236159, Note_on_c, 11, 79, 0
14, 236160, Note_on_c, 11, 79, 32
14, 236264, Note_on_c, 11, 79, 0
14, 236280, Note_on_c, 11, 74, 32
14, 236369, Note_on_c, 11, 74, 0
14, 236400, Note_on_c, 11, 70, 32
14, 236489, Note_on_c, 11, 70, 0
14, 236520, Note_on_c, 11, 79, 32
14, 236639, Note_on_c, 11, 79, 0
14, 236640, Note_on_c, 11, 79, 32
14, 236744, Note_on_c, 11, 79, 0
14, 236760, Note_on_c, 11, 74, 32
14, 236849, Note_on_c, 11, 74, 0
14, 236880, Note_on_c, 11, 69, 32
14, 236969, Note_on_c, 11, 69, 0
14, 237000, Note_on_c, 11, 81, 32
14, 237025, Note_on_c, 11, 81, 0
14, 237030, Note_on_c, 11, 81, 33
14, 237055, Note_on_c, 11, 81, 0
14, 237060, Note_on_c, 11, 81, 34
14, 237085, Note_on_c, 11, 81, 0
14, 237090, Note_on_c, 11, 81, 36
14, 237115, Note_on_c, 11, 81, 0
14, 237120, Note_on_c, 11, 81, 37
14, 237145, Note_on_c, 11, 81, 0
14, 237150, Note_on_c, 11, 81, 38
14, 237175, Note_on_c, 11, 81, 0
14, 237180, Note_on_c, 11, 81, 40
14, 237205, Note_on_c, 11, 81, 0
14, 237210, Note_on_c, 11, 81, 41
14, 237235, Note_on_c, 11, 81, 0
14, 237240, Note_on_c, 11, 83, 42
14, 237265, Note_on_c, 11, 83, 0
14, 237270, Note_on_c, 11, 83, 44
14, 237295, Note_on_c, 11, 83, 0
14, 237300, Note_on_c, 11, 83, 45
14, 237325, Note_on_c, 11, 83, 0
14, 237330, Note_on_c, 11, 83, 46
14, 237355, Note_on_c, 11, 83, 0
14, 237360, Note_on_c, 11, 85, 48
14, 237385, Note_on_c, 11, 85, 0
14, 237390, Note_on_c, 11, 85, 49
14, 237415, Note_on_c, 11, 85, 0
14, 237420, Note_on_c, 11, 85, 50
14, 237445, Note_on_c, 11, 85, 0
14, 237450, Note_on_c, 11, 85, 52
14, 237475, Note_on_c, 11, 85, 0
14, 237480, Note_on_c, 11, 86, 53
14, 237505, Note_on_c, 11, 86, 0
14, 237510, Note_on_c, 11, 86, 54
14, 237535, Note_on_c, 11, 86, 0
14, 237540, Note_on_c, 11, 86, 56
14, 237565, Note_on_c, 11, 86, 0
14, 237570, Note_on_c, 11, 86, 57
14, 237595, Note_on_c, 11, 86, 0
14, 237600, Note_on_c, 11, 88, 58
14, 237625, Note_on_c, 11, 88, 0
14, 237630, Note_on_c, 11, 88, 60
14, 237655, Note_on_c, 11, 88, 0
14, 237660, Note_on_c, 11, 88, 61
14, 237685, Note_on_c, 11, 88, 0
14, 237690, Note_on_c, 11, 88, 62
14, 237715, Note_on_c, 11, 88, 0
14, 237720, Note_on_c, 11, 89, 64
14, 237745, Note_on_c, 11, 89, 0
14, 237750, Note_on_c, 11, 89, 65
14, 237775, Note_on_c, 11, 89, 0
14, 237780, Note_on_c, 11, 89, 66
14, 237805, Note_on_c, 11, 89, 0
14, 237810, Note_on_c, 11, 89, 68
14, 237835, Note_on_c, 11, 89, 0
14, 237840, Note_on_c, 11, 91, 69
14, 237865, Note_on_c, 11, 91, 0
14, 237870, Note_on_c, 11, 91, 70
14, 237895, Note_on_c, 11, 91, 0
14, 237900, Note_on_c, 11, 91, 72
14, 237925, Note_on_c, 11, 91, 0
14, 237930, Note_on_c, 11, 91, 73
14, 237955, Note_on_c, 11, 91, 0
14, 237960, Note_on_c, 11, 93, 74
14, 237985, Note_on_c, 11, 93, 0
14, 237990, Note_on_c, 11, 93, 76
14, 238015, Note_on_c, 11, 93, 0
14, 238020, Note_on_c, 11, 93, 77
14, 238045, Note_on_c, 11, 93, 0
14, 238050, Note_on_c, 11, 93, 78
14, 238075, Note_on_c, 11, 93, 0
14, 238080, Note_on_c, 11, 93, 80
14, 238199, Note_on_c, 11, 93, 0
14, 238680, Note_on_c, 11, 74, 80
14, 238680, Note_on_c, 11, 76, 80
14, 238799, Note_on_c, 11, 74, 0
14, 238799, Note_on_c, 11, 76, 0
14, 238920, Note_on_c, 11, 76, 80
14, 238920, Note_on_c, 11, 73, 80
14, 239039, Note_on_c, 11, 76, 0
14, 239039, Note_on_c, 11, 73, 0
14, 239968, Control_c, 11, 11, 96
14, 240000, Note_on_c, 11, 81, 80
14, 240000, Control_c, 11, 11, 97
14, 240032, Control_c, 11, 11, 98
14, 240064, Control_c, 11, 11, 99
14, 240096, Control_c, 11, 11, 100
14, 240128, Control_c, 11, 11, 101
14, 240160, Control_c, 11, 11, 102
14, 240192, Control_c, 11, 11, 103
14, 240224, Control_c, 11, 11, 104
14, 240256, Control_c, 11, 11, 105
14, 240288, Control_c, 11, 11, 106
14, 240320, Control_c, 11, 11, 107
14, 240352, Control_c, 11, 11, 108
14, 240359, Note_on_c, 11, 81, 0
14, 240360, Note_on_c, 11, 80, 80
14, 240384, Control_c, 11, 11, 109
14, 240416, Control_c, 11, 11, 110
14, 240448, Control_c, 11, 11, 111
14, 240479, Note_on_c, 11, 80, 0
14, 240480, Note_on_c, 11, 79, 80
14, 240480, Control_c, 11, 11, 112
14, 240512, Control_c, 11, 11, 113
14, 240531, Note_on_c, 11, 79, 0
14, 240540, Note_on_c, 11, 77, 80
14, 240544, Control_c, 11, 11, 114
14, 240576, Control_c, 11, 11, 115
14, 240599, Note_on_c, 11, 77, 0
14, 240600, Note_on_c, 11, 88, 80
14, 240608, Control_c, 11, 11, 116
14, 240640, Control_c, 11, 11, 117
14, 240651, Note_on_c, 11, 88, 0
14, 240660, Note_on_c, 11, 86, 80
14, 240672, Control_c, 11, 11, 118
14, 240704, Control_c, 11, 11, 119
14, 240719, Note_on_c, 11, 86, 0
14, 240720, Note_on_c, 11, 85, 80
14, 240736, Control_c, 11, 11, 120
14, 240768, Control_c, 11, 11, 121
14, 240771, Note_on_c, 11, 85, 0
14, 240780, Note_on_c, 11, 82, 80
14, 240800, Control_c, 11, 11, 122
14, 240832, Control_c, 11, 11, 123
14, 240839, Note_on_c, 11, 82, 0
14, 240840, Note_on_c, 11, 81, 80
14, 240864, Control_c, 11, 11, 124
14, 240891, Note_on_c, 11, 81, 0
14, 240896, Control_c, 11, 11, 125
14, 240900, Note_on_c, 11, 79, 80
14, 240928, Control_c, 11, 11, 127
14, 240959, Note_on_c, 11, 79, 0
14, 240960, Note_on_c, 11, 77, 80
14, 241011, Note_on_c, 11, 77, 0
14, 241020, Note_on_c, 11, 76, 80
14, 241079, Note_on_c, 11, 76, 0
14, 241080, Note_on_c, 11, 74, 80
14, 241131, Note_on_c, 11, 74, 0
14, 241140, Note_on_c, 11, 72, 80
14, 241199, Note_on_c, 11, 72, 0
14, 241200, Note_on_c, 11, 70, 80
14, 241251, Note_on_c, 11, 70, 0
14, 241260, Note_on_c, 11, 69, 80
14, 241319, Note_on_c, 11, 69, 0
14, 241320, Note_on_c, 11, 67, 80
14, 241371, Note_on_c, 11, 67, 0
14, 241380, Note_on_c, 11, 65, 80
14, 241439, Note_on_c, 11, 65, 0
14, 241440, Note_on_c, 11, 64, 80
14, 241544, Note_on_c, 11, 64, 0
14, 241560, Note_on_c, 11, 88, 80
14, 241649, Note_on_c, 11, 88, 0
14, 241800, Note_on_c, 11, 88, 80
14, 241889, Note_on_c, 11, 88, 0
14, 241920, Note_on_c, 11, 88, 44
14, 242039, Note_on_c, 11, 88, 0
14, 244620, Note_on_c, 11, 70, 44
14, 244671, Note_on_c, 11, 70, 0
14, 244680, Note_on_c, 11, 69, 44
14, 244731, Note_on_c, 11, 69, 0
14, 244740, Note_on_c, 11, 67, 44
14, 244784, Note_on_c, 11, 67, 0
14, 244800, Note_on_c, 11, 65, 44
14, 244979, Note_on_c, 11, 65, 0
14, 245040, Note_on_c, 11, 64, 44
14, 245219, Note_on_c, 11, 64, 0
14, 245280, Note_on_c, 11, 62, 44
14, 245459, Note_on_c, 11, 62, 0
14, 245520, Note_on_c, 11, 61, 44
14, 245699, Note_on_c, 11, 61, 0
14, 248640, Note_on_c, 11, 62, 32
14, 248665, Note_on_c, 11, 62, 0
14, 248670, Note_on_c, 11, 62, 32
14, 248695, Note_on_c, 11, 62, 0
14, 248700, Note_on_c, 11, 62, 32
14, 248725, Note_on_c, 11, 62, 0
14, 248730, Note_on_c, 11, 62, 32
14, 248755, Note_on_c, 11, 62, 0
14, 248760, Note_on_c, 11, 61, 32
14, 248785, Note_on_c, 11, 61, 0
14, 248790, Note_on_c, 11, 61, 32
14, 248815, Note_on_c, 11, 61, 0
14, 248820, Note_on_c, 11, 61, 32
14, 248845, Note_on_c, 11, 61, 0
14, 248850, Note_on_c, 11, 61, 32
14, 248875, Note_on_c, 11, 61, 0
14, 248880, Note_on_c, 11, 60, 32
14, 248905, Note_on_c, 11, 60, 0
14, 248910, Note_on_c, 11, 60, 32
14, 248935, Note_on_c, 11, 60, 0
14, 248940, Note_on_c, 11, 60, 32
14, 248965, Note_on_c, 11, 60, 0
14, 248970, Note_on_c, 11, 60, 32
14, 248995, Note_on_c, 11, 60, 0
14, 249000, Note_on_c, 11, 59, 32
14, 249025, Note_on_c, 11, 59, 0
14, 249030, Note_on_c, 11, 59, 32
14, 249055, Note_on_c, 11, 59, 0
14, 249060, Note_on_c, 11, 59, 32
14, 249085, Note_on_c, 11, 59, 0
14, 249090, Note_on_c, 11, 59, 32
14, 249115, Note_on_c, 11, 59, 0
14, 249120, Note_on_c, 11, 58, 32
14, 249145, Note_on_c, 11, 58, 0
14, 249150, Note_on_c, 11, 58, 32
14, 249175, Note_on_c, 11, 58, 0
14, 249180, Note_on_c, 11, 58, 32
14, 249205, Note_on_c, 11, 58, 0
14, 249210, Note_on_c, 11, 58, 32
14, 249235, Note_on_c, 11, 58, 0
14, 249240, Note_on_c, 11, 57, 32
14, 249265, Note_on_c, 11, 57, 0
14, 249270, Note_on_c, 11, 57, 32
14, 249295, Note_on_c, 11, 57, 0
14, 249300, Note_on_c, 11, 57, 32
14, 249325, Note_on_c, 11, 57, 0
14, 249330, Note_on_c, 11, 57, 32
14, 249355, Note_on_c, 11, 57, 0
14, 249360, Note_on_c, 11, 59, 32
14, 249385, Note_on_c, 11, 59, 0
14, 249390, Note_on_c, 11, 59, 32
14, 249415, Note_on_c, 11, 59, 0
14, 249420, Note_on_c, 11, 59, 32
14, 249445, Note_on_c, 11, 59, 0
14, 249450, Note_on_c, 11, 59, 32
14, 249475, Note_on_c, 11, 59, 0
14, 249480, Note_on_c, 11, 61, 32
14, 249505, Note_on_c, 11, 61, 0
14, 249510, Note_on_c, 11, 61, 32
14, 249535, Note_on_c, 11, 61, 0
14, 249540, Note_on_c, 11, 61, 32
14, 249565, Note_on_c, 11, 61, 0
14, 249570, Note_on_c, 11, 61, 32
14, 249595, Note_on_c, 11, 61, 0
14, 249600, Note_on_c, 11, 62, 32
14, 249625, Note_on_c, 11, 62, 0
14, 249630, Note_on_c, 11, 62, 32
14, 249655, Note_on_c, 11, 62, 0
14, 249660, Note_on_c, 11, 62, 33
14, 249685, Note_on_c, 11, 62, 0
14, 249690, Note_on_c, 11, 62, 33
14, 249715, Note_on_c, 11, 62, 0
14, 249720, Note_on_c, 11, 61, 34
14, 249745, Note_on_c, 11, 61, 0
14, 249750, Note_on_c, 11, 61, 34
14, 249775, Note_on_c, 11, 61, 0
14, 249780, Note_on_c, 11, 61, 35
14, 249805, Note_on_c, 11, 61, 0
14, 249810, Note_on_c, 11, 61, 35
14, 249835, Note_on_c, 11, 61, 0
14, 249840, Note_on_c, 11, 60, 36
14, 249865, Note_on_c, 11, 60, 0
14, 249870, Note_on_c, 11, 60, 36
14, 249895, Note_on_c, 11, 60, 0
14, 249900, Note_on_c, 11, 60, 37
14, 249925, Note_on_c, 11, 60, 0
14, 249930, Note_on_c, 11, 60, 37
14, 249955, Note_on_c, 11, 60, 0
14, 249960, Note_on_c, 11, 59, 38
14, 249985, Note_on_c, 11, 59, 0
14, 249990, Note_on_c, 11, 59, 38
14, 250015, Note_on_c, 11, 59, 0
14, 250020, Note_on_c, 11, 59, 39
14, 250045, Note_on_c, 11, 59, 0
14, 250050, Note_on_c, 11, 59, 39
14, 250075, Note_on_c, 11, 59, 0
14, 250080, Note_on_c, 11, 58, 40
14, 250105, Note_on_c, 11, 58, 0
14, 250110, Note_on_c, 11, 58, 40
14, 250135, Note_on_c, 11, 58, 0
14, 250140, Note_on_c, 11, 58, 41
14, 250165, Note_on_c, 11, 58, 0
14, 250170, Note_on_c, 11, 58, 41
14, 250195, Note_on_c, 11, 58, 0
14, 250200, Note_on_c, 11, 57, 42
14, 250225, Note_on_c, 11, 57, 0
14, 250230, Note_on_c, 11, 57, 42
14, 250255, Note_on_c, 11, 57, 0
14, 250260, Note_on_c, 11, 57, 43
14, 250285, Note_on_c, 11, 57, 0
14, 250290, Note_on_c, 11, 57, 43
14, 250315, Note_on_c, 11, 57, 0
14, 250320, Note_on_c, 11, 59, 44
14, 250345, Note_on_c, 11, 59, 0
14, 250350, Note_on_c, 11, 59, 44
14, 250375, Note_on_c, 11, 59, 0
14, 250380, Note_on_c, 11, 59, 45
14, 250405, Note_on_c, 11, 59, 0
14, 250410, Note_on_c, 11, 59, 45
14, 250435, Note_on_c, 11, 59, 0
14, 250440, Note_on_c, 11, 61, 46
14, 250465, Note_on_c, 11, 61, 0
14, 250470, Note_on_c, 11, 61, 46
14, 250495, Note_on_c, 11, 61, 0
14, 250500, Note_on_c, 11, 61, 47
14, 250525, Note_on_c, 11, 61, 0
14, 250530, Note_on_c, 11, 61, 47
14, 250555, Note_on_c, 11, 61, 0
14, 250560, Note_on_c, 11, 62, 48
14, 250585, Note_on_c, 11, 62, 0
14, 250590, Note_on_c, 11, 74, 48
14, 250615, Note_on_c, 11, 74, 0
14, 250620, Note_on_c, 11, 74, 49
14, 250645, Note_on_c, 11, 74, 0
14, 250650, Note_on_c, 11, 74, 49
14, 250675, Note_on_c, 11, 74, 0
14, 250680, Note_on_c, 11, 73, 50
14, 250705, Note_on_c, 11, 73, 0
14, 250710, Note_on_c, 11, 73, 50
14, 250735, Note_on_c, 11, 73, 0
14, 250740, Note_on_c, 11, 73, 51
14, 250765, Note_on_c, 11, 73, 0
14, 250770, Note_on_c, 11, 73, 51
14, 250795, Note_on_c, 11, 73, 0
14, 250800, Note_on_c, 11, 72, 52
14, 250825, Note_on_c, 11, 72, 0
14, 250830, Note_on_c, 11, 72, 52
14, 250855, Note_on_c, 11, 72, 0
14, 250860, Note_on_c, 11, 72, 53
14, 250885, Note_on_c, 11, 72, 0
14, 250890, Note_on_c, 11, 72, 53
14, 250915, Note_on_c, 11, 72, 0
14, 250920, Note_on_c, 11, 71, 54
14, 250945, Note_on_c, 11, 71, 0
14, 250950, Note_on_c, 11, 71, 54
14, 250975, Note_on_c, 11, 71, 0
14, 250980, Note_on_c, 11, 71, 55
14, 251005, Note_on_c, 11, 71, 0
14, 251010, Note_on_c, 11, 71, 55
14, 251035, Note_on_c, 11, 71, 0
14, 251040, Note_on_c, 11, 70, 56
14, 251065, Note_on_c, 11, 70, 0
14, 251070, Note_on_c, 11, 70, 56
14, 251095, Note_on_c, 11, 70, 0
14, 251100, Note_on_c, 11, 70, 57
14, 251125, Note_on_c, 11, 70, 0
14, 251130, Note_on_c, 11, 70, 57
14, 251155, Note_on_c, 11, 70, 0
14, 251160, Note_on_c, 11, 69, 58
14, 251185, Note_on_c, 11, 69, 0
14, 251190, Note_on_c, 11, 69, 58
14, 251215, Note_on_c, 11, 69, 0
14, 251220, Note_on_c, 11, 69, 59
14, 251245, Note_on_c, 11, 69, 0
14, 251250, Note_on_c, 11, 69, 59
14, 251275, Note_on_c, 11, 69, 0
14, 251280, Note_on_c, 11, 71, 60
14, 251305, Note_on_c, 11, 71, 0
14, 251310, Note_on_c, 11, 71, 60
14, 251335, Note_on_c, 11, 71, 0
14, 251340, Note_on_c, 11, 71, 61
14, 251365, Note_on_c, 11, 71, 0
14, 251370, Note_on_c, 11, 71, 61
14, 251395, Note_on_c, 11, 71, 0
14, 251400, Note_on_c, 11, 73, 62
14, 251425, Note_on_c, 11, 73, 0
14, 251430, Note_on_c, 11, 73, 62
14, 251455, Note_on_c, 11, 73, 0
14, 251460, Note_on_c, 11, 73, 63
14, 251485, Note_on_c, 11, 73, 0
14, 251490, Note_on_c, 11, 73, 63
14, 251515, Note_on_c, 11, 73, 0
14, 251520, Note_on_c, 11, 74, 64
14, 251545, Note_on_c, 11, 74, 0
14, 251550, Note_on_c, 11, 86, 64
14, 251575, Note_on_c, 11, 86, 0
14, 251580, Note_on_c, 11, 86, 65
14, 251605, Note_on_c, 11, 86, 0
14, 251610, Note_on_c, 11, 86, 65
14, 251635, Note_on_c, 11, 86, 0
14, 251640, Note_on_c, 11, 85, 66
14, 251665, Note_on_c, 11, 85, 0
14, 251670, Note_on_c, 11, 85, 66
14, 251695, Note_on_c, 11, 85, 0
14, 251700, Note_on_c, 11, 85, 67
14, 251725, Note_on_c, 11, 85, 0
14, 251730, Note_on_c, 11, 85, 67
14, 251755, Note_on_c, 11, 85, 0
14, 251760, Note_on_c, 11, 84, 68
14, 251785, Note_on_c, 11, 84, 0
14, 251790, Note_on_c, 11, 84, 68
14, 251815, Note_on_c, 11, 84, 0
14, 251820, Note_on_c, 11, 84, 69
14, 251845, Note_on_c, 11, 84, 0
14, 251850, Note_on_c, 11, 84, 69
14, 251875, Note_on_c, 11, 84, 0
14, 251880, Note_on_c, 11, 83, 70
14, 251905, Note_on_c, 11, 83, 0
14, 251910, Note_on_c, 11, 83, 70
14, 251935, Note_on_c, 11, 83, 0
14, 251940, Note_on_c, 11, 83, 71
14, 251965, Note_on_c, 11, 83, 0
14, 251970, Note_on_c, 11, 83, 71
14, 251995, Note_on_c, 11, 83, 0
14, 252000, Note_on_c, 11, 82, 72
14, 252025, Note_on_c, 11, 82, 0
14, 252030, Note_on_c, 11, 82, 72
14, 252055, Note_on_c, 11, 82, 0
14, 252060, Note_on_c, 11, 82, 73
14, 252085, Note_on_c, 11, 82, 0
14, 252090, Note_on_c, 11, 82, 73
14, 252115, Note_on_c, 11, 82, 0
14, 252120, Note_on_c, 11, 81, 74
14, 252145, Note_on_c, 11, 81, 0
14, 252150, Note_on_c, 11, 81, 74
14, 252175, Note_on_c, 11, 81, 0
14, 252180, Note_on_c, 11, 81, 75
14, 252205, Note_on_c, 11, 81, 0
14, 252210, Note_on_c, 11, 81, 75
14, 252235, Note_on_c, 11, 81, 0
14, 252240, Note_on_c, 11, 83, 76
14, 252265, Note_on_c, 11, 83, 0
14, 252270, Note_on_c, 11, 83, 76
14, 252295, Note_on_c, 11, 83, 0
14, 252300, Note_on_c, 11, 83, 77
14, 252325, Note_on_c, 11, 83, 0
14, 252330, Note_on_c, 11, 83, 77
14, 252355, Note_on_c, 11, 83, 0
14, 252360, Note_on_c, 11, 85, 78
14, 252385, Note_on_c, 11, 85, 0
14, 252390, Note_on_c, 11, 85, 78
14, 252415, Note_on_c, 11, 85, 0
14, 252420, Note_on_c, 11, 85, 79
14, 252445, Note_on_c, 11, 85, 0
14, 252450, Note_on_c, 11, 85, 79
14, 252475, Note_on_c, 11, 85, 0
14, 252480, Note_on_c, 11, 86, 80
14, 252505, Note_on_c, 11, 86, 0
14, 252510, Note_on_c, 11, 86, 80
14, 252535, Note_on_c, 11, 86, 0
14, 252540, Note_on_c, 11, 86, 80
14, 252565, Note_on_c, 11, 86, 0
14, 252570, Note_on_c, 11, 86, 80
14, 252595, Note_on_c, 11, 86, 0
14, 252600, Note_on_c, 11, 81, 80
14, 252625, Note_on_c, 11, 81, 0
14, 252630, Note_on_c, 11, 81, 80
14, 252655, Note_on_c, 11, 81, 0
14, 252660, Note_on_c, 11, 81, 80
14, 252685, Note_on_c, 11, 81, 0
14, 252690, Note_on_c, 11, 81, 80
14, 252715, Note_on_c, 11, 81, 0
14, 252720, Note_on_c, 11, 82, 86
14, 252745, Note_on_c, 11, 82, 0
14, 252750, Note_on_c, 11, 82, 86
14, 252775, Note_on_c, 11, 82, 0
14, 252780, Note_on_c, 11, 82, 86
14, 252805, Note_on_c, 11, 82, 0
14, 252810, Note_on_c, 11, 82, 86
14, 252835, Note_on_c, 11, 82, 0
14, 252840, Note_on_c, 11, 81, 86
14, 252865, Note_on_c, 11, 81, 0
14, 252870, Note_on_c, 11, 81, 86
14, 252895, Note_on_c, 11, 81, 0
14, 252900, Note_on_c, 11, 81, 86
14, 252925, Note_on_c, 11, 81, 0
14, 252930, Note_on_c, 11, 81, 86
14, 252955, Note_on_c, 11, 81, 0
14, 252960, Note_on_c, 11, 79, 86
14, 252985, Note_on_c, 11, 79, 0
14, 252990, Note_on_c, 11, 79, 86
14, 253015, Note_on_c, 11, 79, 0
14, 253020, Note_on_c, 11, 79, 86
14, 253045, Note_on_c, 11, 79, 0
14, 253050, Note_on_c, 11, 79, 86
14, 253075, Note_on_c, 11, 79, 0
14, 253080, Note_on_c, 11, 82, 86
14, 253105, Note_on_c, 11, 82, 0
14, 253110, Note_on_c, 11, 82, 86
14, 253135, Note_on_c, 11, 82, 0
14, 253140, Note_on_c, 11, 82, 86
14, 253165, Note_on_c, 11, 82, 0
14, 253170, Note_on_c, 11, 82, 86
14, 253195, Note_on_c, 11, 82, 0
14, 253200, Note_on_c, 11, 81, 86
14, 253225, Note_on_c, 11, 81, 0
14, 253230, Note_on_c, 11, 81, 86
14, 253255, Note_on_c, 11, 81, 0
14, 253260, Note_on_c, 11, 81, 86
14, 253285, Note_on_c, 11, 81, 0
14, 253290, Note_on_c, 11, 81, 86
14, 253315, Note_on_c, 11, 81, 0
14, 253320, Note_on_c, 11, 85, 86
14, 253345, Note_on_c, 11, 85, 0
14, 253350, Note_on_c, 11, 85, 86
14, 253375, Note_on_c, 11, 85, 0
14, 253380, Note_on_c, 11, 85, 86
14, 253405, Note_on_c, 11, 85, 0
14, 253410, Note_on_c, 11, 85, 86
14, 253435, Note_on_c, 11, 85, 0
14, 253440, Note_on_c, 11, 86, 86
14, 253465, Note_on_c, 11, 86, 0
14, 253470, Note_on_c, 11, 86, 86
14, 253495, Note_on_c, 11, 86, 0
14, 253500, Note_on_c, 11, 86, 86
14, 253525, Note_on_c, 11, 86, 0
14, 253530, Note_on_c, 11, 86, 86
14, 253555, Note_on_c, 11, 86, 0
14, 253560, Note_on_c, 11, 81, 86
14, 253585, Note_on_c, 11, 81, 0
14, 253590, Note_on_c, 11, 81, 86
14, 253615, Note_on_c, 11, 81, 0
14, 253620, Note_on_c, 11, 81, 86
14, 253645, Note_on_c, 11, 81, 0
14, 253650, Note_on_c, 11, 81, 86
14, 253675, Note_on_c, 11, 81, 0
14, 253680, Note_on_c, 11, 82, 86
14, 253705, Note_on_c, 11, 82, 0
14, 253710, Note_on_c, 11, 82, 86
14, 253735, Note_on_c, 11, 82, 0
14, 253740, Note_on_c, 11, 82, 86
14, 253765, Note_on_c, 11, 82, 0
14, 253770, Note_on_c, 11, 82, 86
14, 253795, Note_on_c, 11, 82, 0
14, 253800, Note_on_c, 11, 81, 86
14, 253825, Note_on_c, 11, 81, 0
14, 253830, Note_on_c, 11, 81, 86
14, 253855, Note_on_c, 11, 81, 0
14, 253860, Note_on_c, 11, 81, 86
14, 253885, Note_on_c, 11, 81, 0
14, 253890, Note_on_c, 11, 81, 86
14, 253915, Note_on_c, 11, 81, 0
14, 253920, Note_on_c, 11, 79, 86
14, 253945, Note_on_c, 11, 79, 0
14, 253950, Note_on_c, 11, 79, 86
14, 253975, Note_on_c, 11, 79, 0
14, 253980, Note_on_c, 11, 79, 86
14, 254005, Note_on_c, 11, 79, 0
14, 254010, Note_on_c, 11, 79, 86
14, 254035, Note_on_c, 11, 79, 0
14, 254040, Note_on_c, 11, 82, 86
14, 254065, Note_on_c, 11, 82, 0
14, 254070, Note_on_c, 11, 82, 86
14, 254095, Note_on_c, 11, 82, 0
14, 254100, Note_on_c, 11, 82, 86
14, 254125, Note_on_c, 11, 82, 0
14, 254130, Note_on_c, 11, 82, 86
14, 254155, Note_on_c, 11, 82, 0
14, 254160, Note_on_c, 11, 81, 86
14, 254185, Note_on_c, 11, 81, 0
14, 254190, Note_on_c, 11, 81, 86
14, 254215, Note_on_c, 11, 81, 0
14, 254220, Note_on_c, 11, 81, 86
14, 254245, Note_on_c, 11, 81, 0
14, 254250, Note_on_c, 11, 81, 86
14, 254275, Note_on_c, 11, 81, 0
14, 254280, Note_on_c, 11, 85, 86
14, 254305, Note_on_c, 11, 85, 0
14, 254310, Note_on_c, 11, 85, 86
14, 254335, Note_on_c, 11, 85, 0
14, 254340, Note_on_c, 11, 85, 86
14, 254365, Note_on_c, 11, 85, 0
14, 254370, Note_on_c, 11, 85, 86
14, 254395, Note_on_c, 11, 85, 0
14, 254400, Note_on_c, 11, 84, 92
14, 254425, Note_on_c, 11, 84, 0
14, 254430, Note_on_c, 11, 84, 92
14, 254455, Note_on_c, 11, 84, 0
14, 254460, Note_on_c, 11, 84, 92
14, 254485, Note_on_c, 11, 84, 0
14, 254490, Note_on_c, 11, 84, 92
14, 254515, Note_on_c, 11, 84, 0
14, 254520, Note_on_c, 11, 72, 92
14, 254545, Note_on_c, 11, 72, 0
14, 254550, Note_on_c, 11, 72, 92
14, 254575, Note_on_c, 11, 72, 0
14, 254580, Note_on_c, 11, 72, 92
14, 254605, Note_on_c, 11, 72, 0
14, 254610, Note_on_c, 11, 72, 92
14, 254635, Note_on_c, 11, 72, 0
14, 254640, Note_on_c, 11, 62, 92
14, 254665, Note_on_c, 11, 62, 0
14, 254670, Note_on_c, 11, 62, 92
14, 254695, Note_on_c, 11, 62, 0
14, 254700, Note_on_c, 11, 62, 92
14, 254725, Note_on_c, 11, 62, 0
14, 254730, Note_on_c, 11, 62, 92
14, 254755, Note_on_c, 11, 62, 0
14, 254760, Note_on_c, 11, 84, 92
14, 254785, Note_on_c, 11, 84, 0
14, 254790, Note_on_c, 11, 84, 92
14, 254815, Note_on_c, 11, 84, 0
14, 254820, Note_on_c, 11, 84, 92
14, 254845, Note_on_c, 11, 84, 0
14, 254850, Note_on_c, 11, 84, 92
14, 254875, Note_on_c, 11, 84, 0
14, 254880, Note_on_c, 11, 84, 92
14, 254905, Note_on_c, 11, 84, 0
14, 254910, Note_on_c, 11, 84, 92
14, 254935, Note_on_c, 11, 84, 0
14, 254940, Note_on_c, 11, 84, 92
14, 254965, Note_on_c, 11, 84, 0
14, 254970, Note_on_c, 11, 84, 92
14, 254995, Note_on_c, 11, 84, 0
14, 255000, Note_on_c, 11, 72, 92
14, 255025, Note_on_c, 11, 72, 0
14, 255030, Note_on_c, 11, 72, 92
14, 255055, Note_on_c, 11, 72, 0
14, 255060, Note_on_c, 11, 72, 92
14, 255085, Note_on_c, 11, 72, 0
14, 255090, Note_on_c, 11, 72, 92
14, 255115, Note_on_c, 11, 72, 0
14, 255120, Note_on_c, 11, 62, 92
14, 255145, Note_on_c, 11, 62, 0
14, 255150, Note_on_c, 11, 62, 92
14, 255175, Note_on_c, 11, 62, 0
14, 255180, Note_on_c, 11, 62, 92
14, 255205, Note_on_c, 11, 62, 0
14, 255210, Note_on_c, 11, 62, 92
14, 255235, Note_on_c, 11, 62, 0
14, 255240, Note_on_c, 11, 84, 92
14, 255265, Note_on_c, 11, 84, 0
14, 255270, Note_on_c, 11, 84, 92
14, 255295, Note_on_c, 11, 84, 0
14, 255300, Note_on_c, 11, 84, 92
14, 255325, Note_on_c, 11, 84, 0
14, 255330, Note_on_c, 11, 84, 92
14, 255355, Note_on_c, 11, 84, 0
14, 255360, Note_on_c, 11, 83, 92
14, 255385, Note_on_c, 11, 83, 0
14, 255390, Note_on_c, 11, 83, 92
14, 255415, Note_on_c, 11, 83, 0
14, 255420, Note_on_c, 11, 83, 92
14, 255445, Note_on_c, 11, 83, 0
14, 255450, Note_on_c, 11, 83, 92
14, 255475, Note_on_c, 11, 83, 0
14, 255480, Note_on_c, 11, 71, 92
14, 255505, Note_on_c, 11, 71, 0
14, 255510, Note_on_c, 11, 71, 92
14, 255535, Note_on_c, 11, 71, 0
14, 255540, Note_on_c, 11, 71, 92
14, 255565, Note_on_c, 11, 71, 0
14, 255570, Note_on_c, 11, 71, 92
14, 255595, Note_on_c, 11, 71, 0
14, 255600, Note_on_c, 11, 62, 92
14, 255625, Note_on_c, 11, 62, 0
14, 255630, Note_on_c, 11, 62, 92
14, 255655, Note_on_c, 11, 62, 0
14, 255660, Note_on_c, 11, 62, 92
14, 255685, Note_on_c, 11, 62, 0
14, 255690, Note_on_c, 11, 62, 92
14, 255715, Note_on_c, 11, 62, 0
14, 255720, Note_on_c, 11, 83, 92
14, 255745, Note_on_c, 11, 83, 0
14, 255750, Note_on_c, 11, 83, 92
14, 255775, Note_on_c, 11, 83, 0
14, 255780, Note_on_c, 11, 83, 92
14, 255805, Note_on_c, 11, 83, 0
14, 255810, Note_on_c, 11, 83, 92
14, 255835, Note_on_c, 11, 83, 0
14, 255840, Note_on_c, 11, 85, 92
14, 255865, Note_on_c, 11, 85, 0
14, 255870, Note_on_c, 11, 85, 92
14, 255895, Note_on_c, 11, 85, 0
14, 255900, Note_on_c, 11, 85, 92
14, 255925, Note_on_c, 11, 85, 0
14, 255930, Note_on_c, 11, 85, 92
14, 255955, Note_on_c, 11, 85, 0
14, 255960, Note_on_c, 11, 73, 92
14, 255985, Note_on_c, 11, 73, 0
14, 255990, Note_on_c, 11, 73, 92
14, 256015, Note_on_c, 11, 73, 0
14, 256020, Note_on_c, 11, 73, 92
14, 256045, Note_on_c, 11, 73, 0
14, 256050, Note_on_c, 11, 73, 92
14, 256075, Note_on_c, 11, 73, 0
14, 256080, Note_on_c, 11, 62, 92
14, 256105, Note_on_c, 11, 62, 0
14, 256110, Note_on_c, 11, 62, 92
14, 256135, Note_on_c, 11, 62, 0
14, 256140, Note_on_c, 11, 62, 92
14, 256165, Note_on_c, 11, 62, 0
14, 256170, Note_on_c, 11, 62, 92
14, 256195, Note_on_c, 11, 62, 0
14, 256200, Note_on_c, 11, 85, 92
14, 256225, Note_on_c, 11, 85, 0
14, 256230, Note_on_c, 11, 85, 92
14, 256255, Note_on_c, 11, 85, 0
14, 256260, Note_on_c, 11, 85, 92
14, 256285, Note_on_c, 11, 85, 0
14, 256290, Note_on_c, 11, 85, 92
14, 256315, Note_on_c, 11, 85, 0
14, 256320, Note_on_c, 11, 84, 92
14, 256345, Note_on_c, 11, 84, 0
14, 256350, Note_on_c, 11, 84, 92
14, 256375, Note_on_c, 11, 84, 0
14, 256380, Note_on_c, 11, 84, 92
14, 256405, Note_on_c, 11, 84, 0
14, 256410, Note_on_c, 11, 84, 92
14, 256435, Note_on_c, 11, 84, 0
14, 256440, Note_on_c, 11, 72, 92
14, 256465, Note_on_c, 11, 72, 0
14, 256470, Note_on_c, 11, 72, 92
14, 256495, Note_on_c, 11, 72, 0
14, 256500, Note_on_c, 11, 72, 92
14, 256525, Note_on_c, 11, 72, 0
14, 256530, Note_on_c, 11, 72, 92
14, 256555, Note_on_c, 11, 72, 0
14, 256560, Note_on_c, 11, 62, 92
14, 256585, Note_on_c, 11, 62, 0
14, 256590, Note_on_c, 11, 62, 92
14, 256615, Note_on_c, 11, 62, 0
14, 256620, Note_on_c, 11, 62, 92
14, 256645, Note_on_c, 11, 62, 0
14, 256650, Note_on_c, 11, 62, 92
14, 256675, Note_on_c, 11, 62, 0
14, 256680, Note_on_c, 11, 84, 92
14, 256705, Note_on_c, 11, 84, 0
14, 256710, Note_on_c, 11, 84, 92
14, 256735, Note_on_c, 11, 84, 0
14, 256740, Note_on_c, 11, 84, 92
14, 256765, Note_on_c, 11, 84, 0
14, 256770, Note_on_c, 11, 84, 92
14, 256795, Note_on_c, 11, 84, 0
14, 256800, Note_on_c, 11, 84, 92
14, 256825, Note_on_c, 11, 84, 0
14, 256830, Note_on_c, 11, 84, 92
14, 256855, Note_on_c, 11, 84, 0
14, 256860, Note_on_c, 11, 84, 92
14, 256885, Note_on_c, 11, 84, 0
14, 256890, Note_on_c, 11, 84, 92
14, 256915, Note_on_c, 11, 84, 0
14, 256920, Note_on_c, 11, 72, 92
14, 256945, Note_on_c, 11, 72, 0
14, 256950, Note_on_c, 11, 72, 92
14, 256975, Note_on_c, 11, 72, 0
14, 256980, Note_on_c, 11, 72, 92
14, 257005, Note_on_c, 11, 72, 0
14, 257010, Note_on_c, 11, 72, 92
14, 257035, Note_on_c, 11, 72, 0
14, 257040, Note_on_c, 11, 62, 92
14, 257065, Note_on_c, 11, 62, 0
14, 257070, Note_on_c, 11, 62, 92
14, 257095, Note_on_c, 11, 62, 0
14, 257100, Note_on_c, 11, 62, 92
14, 257125, Note_on_c, 11, 62, 0
14, 257130, Note_on_c, 11, 62, 92
14, 257155, Note_on_c, 11, 62, 0
14, 257160, Note_on_c, 11, 84, 92
14, 257185, Note_on_c, 11, 84, 0
14, 257190, Note_on_c, 11, 84, 92
14, 257215, Note_on_c, 11, 84, 0
14, 257220, Note_on_c, 11, 84, 92
14, 257245, Note_on_c, 11, 84, 0
14, 257250, Note_on_c, 11, 84, 92
14, 257275, Note_on_c, 11, 84, 0
14, 257280, Note_on_c, 11, 83, 92
14, 257305, Note_on_c, 11, 83, 0
14, 257310, Note_on_c, 11, 83, 92
14, 257335, Note_on_c, 11, 83, 0
14, 257340, Note_on_c, 11, 83, 92
14, 257365, Note_on_c, 11, 83, 0
14, 257370, Note_on_c, 11, 83, 92
14, 257395, Note_on_c, 11, 83, 0
14, 257400, Note_on_c, 11, 71, 92
14, 257425, Note_on_c, 11, 71, 0
14, 257430, Note_on_c, 11, 71, 92
14, 257455, Note_on_c, 11, 71, 0
14, 257460, Note_on_c, 11, 71, 92
14, 257485, Note_on_c, 11, 71, 0
14, 257490, Note_on_c, 11, 71, 92
14, 257515, Note_on_c, 11, 71, 0
14, 257520, Note_on_c, 11, 62, 92
14, 257545, Note_on_c, 11, 62, 0
14, 257550, Note_on_c, 11, 62, 92
14, 257575, Note_on_c, 11, 62, 0
14, 257580, Note_on_c, 11, 62, 92
14, 257605, Note_on_c, 11, 62, 0
14, 257610, Note_on_c, 11, 62, 92
14, 257635, Note_on_c, 11, 62, 0
14, 257640, Note_on_c, 11, 83, 92
14, 257665, Note_on_c, 11, 83, 0
14, 257670, Note_on_c, 11, 83, 92
14, 257695, Note_on_c, 11, 83, 0
14, 257700, Note_on_c, 11, 83, 92
14, 257725, Note_on_c, 11, 83, 0
14, 257730, Note_on_c, 11, 83, 92
14, 257755, Note_on_c, 11, 83, 0
14, 257760, Note_on_c, 11, 85, 92
14, 257785, Note_on_c, 11, 85, 0
14, 257790, Note_on_c, 11, 85, 92
14, 257815, Note_on_c, 11, 85, 0
14, 257820, Note_on_c, 11, 85, 92
14, 257845, Note_on_c, 11, 85, 0
14, 257850, Note_on_c, 11, 85, 92
14, 257875, Note_on_c, 11, 85, 0
14, 257880, Note_on_c, 11, 73, 92
14, 257905, Note_on_c, 11, 73, 0
14, 257910, Note_on_c, 11, 73, 92
14, 257935, Note_on_c, 11, 73, 0
14, 257940, Note_on_c, 11, 73, 92
14, 257965, Note_on_c, 11, 73, 0
14, 257970, Note_on_c, 11, 73, 92
14, 257995, Note_on_c, 11, 73, 0
14, 258000, Note_on_c, 11, 62, 92
14, 258025, Note_on_c, 11, 62, 0
14, 258030, Note_on_c, 11, 62, 92
14, 258055, Note_on_c, 11, 62, 0
14, 258060, Note_on_c, 11, 62, 92
14, 258085, Note_on_c, 11, 62, 0
14, 258090, Note_on_c, 11, 62, 92
14, 258115, Note_on_c, 11, 62, 0
14, 258120, Note_on_c, 11, 86, 92
14, 258145, Note_on_c, 11, 86, 0
14, 258150, Note_on_c, 11, 86, 92
14, 258175, Note_on_c, 11, 86, 0
14, 258180, Note_on_c, 11, 86, 92
14, 258205, Note_on_c, 11, 86, 0
14, 258210, Note_on_c, 11, 86, 92
14, 258235, Note_on_c, 11, 86, 0
14, 258240, Note_on_c, 11, 81, 92
14, 258479, Note_on_c, 11, 81, 0
14, 258480, Note_on_c, 11, 81, 92
14, 258681, Note_on_c, 11, 81, 0
14, 258690, Note_on_c, 11, 77, 92
14, 258711, Note_on_c, 11, 77, 0
14, 258720, Note_on_c, 11, 74, 92
14, 258921, Note_on_c, 11, 74, 0
14, 258930, Note_on_c, 11, 69, 92
14, 258951, Note_on_c, 11, 69, 0
14, 258960, Note_on_c, 11, 65, 92
14, 259124, Note_on_c, 11, 65, 0
14, 259140, Note_on_c, 11, 69, 92
14, 259169, Note_on_c, 11, 69, 0
14, 259170, Note_on_c, 11, 65, 92
14, 259191, Note_on_c, 11, 65, 0
14, 259200, Note_on_c, 11, 62, 92
14, 259319, Note_on_c, 11, 62, 0
14, 259380, Note_on_c, 11, 69, 92
14, 259409, Note_on_c, 11, 69, 0
14, 259410, Note_on_c, 11, 65, 92
14, 259431, Note_on_c, 11, 65, 0
14, 259440, Note_on_c, 11, 62, 92
14, 259559, Note_on_c, 11, 62, 0
14, 259620, Note_on_c, 11, 74, 92
14, 259649, Note_on_c, 11, 74, 0
14, 259650, Note_on_c, 11, 69, 92
14, 259671, Note_on_c, 11, 69, 0
14, 259680, Note_on_c, 11, 65, 92
14, 259799, Note_on_c, 11, 65, 0
14, 259860, Note_on_c, 11, 77, 92
14, 259889, Note_on_c, 11, 77, 0
14, 259890, Note_on_c, 11, 74, 92
14, 259911, Note_on_c, 11, 74, 0
14, 259920, Note_on_c, 11, 69, 92
14, 260039, Note_on_c, 11, 69, 0
14, 260100, Note_on_c, 11, 81, 92
14, 260129, Note_on_c, 11, 81, 0
14, 260130, Note_on_c, 11, 77, 92
14, 260151, Note_on_c, 11, 77, 0
14, 260160, Note_on_c, 11, 62, 92
14, 260160, Note_on_c, 11, 74, 92
14, 260399, Note_on_c, 11, 62, 0
14, 260399, Note_on_c, 11, 74, 0
14, 260430, Note_on_c, 11, 74, 92
14, 260459, Note_on_c, 11, 74, 0
14, 260460, Note_on_c, 11, 76, 92
14, 260489, Note_on_c, 11, 76, 0
14, 260490, Note_on_c, 11, 77, 92
14, 260519, Note_on_c, 11, 77, 0
14, 260520, Note_on_c, 11, 79, 92
14, 260549, Note_on_c, 11, 79, 0
14, 260550, Note_on_c, 11, 81, 92
14, 260579, Note_on_c, 11, 81, 0
14, 260580, Note_on_c, 11, 83, 92
14, 260609, Note_on_c, 11, 83, 0
14, 260610, Note_on_c, 11, 85, 92
14, 260631, Note_on_c, 11, 85, 0
14, 260640, Note_on_c, 11, 86, 104
14, 260699, Note_on_c, 11, 86, 0
14, 260700, Note_on_c, 11, 86, 92
14, 260879, Note_on_c, 11, 86, 0
14, 260910, Note_on_c, 11, 62, 92
14, 260939, Note_on_c, 11, 62, 0
14, 260940, Note_on_c, 11, 64, 92
14, 260969, Note_on_c, 11, 64, 0
14, 260970, Note_on_c, 11, 65, 92
14, 260999, Note_on_c, 11, 65, 0
14, 261000, Note_on_c, 11, 67, 92
14, 261029, Note_on_c, 11, 67, 0
14, 261030, Note_on_c, 11, 69, 92
14, 261059, Note_on_c, 11, 69, 0
14, 261060, Note_on_c, 11, 71, 92
14, 261089, Note_on_c, 11, 71, 0
14, 261090, Note_on_c, 11, 73, 92
14, 261111, Note_on_c, 11, 73, 0
14, 261120, Note_on_c, 11, 74, 92
14, 261120, Note_on_c, 11, 62, 92
14, 261411, Note_on_c, 11, 74, 0
14, 261411, Note_on_c, 11, 62, 0
14, 261420, Note_on_c, 11, 77, 92
14, 261464, Note_on_c, 11, 77, 0
14, 261480, Note_on_c, 11, 76, 92
14, 261524, Note_on_c, 11, 76, 0
14, 261540, Note_on_c, 11, 74, 92
14, 261584, Note_on_c, 11, 74, 0
14, 261600, Note_on_c, 11, 81, 92
14, 261689, Note_on_c, 11, 81, 0
14, 261720, Note_on_c, 11, 79, 92
14, 261809, Note_on_c, 11, 79, 0
14, 261840, Note_on_c, 11, 76, 92
14, 261929, Note_on_c, 11, 76, 0
14, 261960, Note_on_c, 11, 81, 92
14, 261960, Note_on_c, 11, 69, 92
14, 262049, Note_on_c, 11, 81, 0
14, 262049, Note_on_c, 11, 69, 0
14, 262080, Note_on_c, 11, 62, 92
14, 262080, Note_on_c, 11, 74, 92
14, 262199, Note_on_c, 11, 62, 0
14, 262199, Note_on_c, 11, 74, 0
14, 262199, End_track
15, 0, Start_track
15, 0, Title_t, "Violin II"
15, 0, MIDI_port, 0
15, 0, Program_c, 12, 48
15, 0, Control_c, 12, 7, 96
15, 0, Control_c, 12, 10, 24
15, 0, Control_c, 12, 11, 127
15, 0, Note_on_c, 12, 64, 32
15, 0, Note_on_c, 12, 57, 32
15, 33, Note_on_c, 12, 64, 0
15, 33, Note_on_c, 12, 57, 0
15, 40, Note_on_c, 12, 57, 32
15, 40, Note_on_c, 12, 64, 32
15, 73, Note_on_c, 12, 57, 0
15, 73, Note_on_c, 12, 64, 0
15, 80, Note_on_c, 12, 64, 32
15, 80, Note_on_c, 12, 57, 32
15, 113, Note_on_c, 12, 64, 0
15, 113, Note_on_c, 12, 57, 0
15, 120, Note_on_c, 12, 57, 32
15, 120, Note_on_c, 12, 64, 32
15, 153, Note_on_c, 12, 57, 0
15, 153, Note_on_c, 12, 64, 0
15, 160, Note_on_c, 12, 64, 32
15, 160, Note_on_c, 12, 57, 32
15, 193, Note_on_c, 12, 64, 0
15, 193, Note_on_c, 12, 57, 0
15, 200, Note_on_c, 12, 64, 32
15, 200, Note_on_c, 12, 57, 32
15, 233, Note_on_c, 12, 64, 0
15, 233, Note_on_c, 12, 57, 0
15, 240, Note_on_c, 12, 64, 32
15, 240, Note_on_c, 12, 57, 32
15, 273, Note_on_c, 12, 64, 0
15, 273, Note_on_c, 12, 57, 0
15, 280, Note_on_c, 12, 57, 32
15, 280, Note_on_c, 12, 64, 32
15, 313, Note_on_c, 12, 57, 0
15, 313, Note_on_c, 12, 64, 0
15, 320, Note_on_c, 12, 57, 32
15, 320, Note_on_c, 12, 64, 32
15, 353, Note_on_c, 12, 57, 0
15, 353, Note_on_c, 12, 64, 0
15, 360, Note_on_c, 12, 57, 32
15, 360, Note_on_c, 12, 64, 32
15, 393, Note_on_c, 12, 57, 0
15, 393, Note_on_c, 12, 64, 0
15, 400, Note_on_c, 12, 64, 32
15, 400, Note_on_c, 12, 57, 32
15, 433, Note_on_c, 12, 64, 0
15, 433, Note_on_c, 12, 57, 0
15, 440, Note_on_c, 12, 64, 32
15, 440, Note_on_c, 12, 57, 32
15, 473, Note_on_c, 12, 64, 0
15, 473, Note_on_c, 12, 57, 0
15, 480, Note_on_c, 12, 64, 32
15, 480, Note_on_c, 12, 57, 32
15, 513, Note_on_c, 12, 64, 0
15, 513, Note_on_c, 12, 57, 0
15, 520, Note_on_c, 12, 57, 32
15, 520, Note_on_c, 12, 64, 32
15, 553, Note_on_c, 12, 57, 0
15, 553, Note_on_c, 12, 64, 0
15, 560, Note_on_c, 12, 64, 32
15, 560, Note_on_c, 12, 57, 32
15, 593, Note_on_c, 12, 64, 0
15, 593, Note_on_c, 12, 57, 0
15, 600, Note_on_c, 12, 64, 32
15, 600, Note_on_c, 12, 57, 32
15, 633, Note_on_c, 12, 64, 0
15, 633, Note_on_c, 12, 57, 0
15, 640, Note_on_c, 12, 57, 32
15, 640, Note_on_c, 12, 64, 32
15, 673, Note_on_c, 12, 57, 0
15, 673, Note_on_c, 12, 64, 0
15, 680, Note_on_c, 12, 57, 32
15, 680, Note_on_c, 12, 64, 32
15, 713, Note_on_c, 12, 57, 0
15, 713, Note_on_c, 12, 64, 0
15, 720, Note_on_c, 12, 57, 32
15, 720, Note_on_c, 12, 64, 32
15, 753, Note_on_c, 12, 57, 0
15, 753, Note_on_c, 12, 64, 0
15, 760, Note_on_c, 12, 57, 32
15, 760, Note_on_c, 12, 64, 32
15, 793, Note_on_c, 12, 57, 0
15, 793, Note_on_c, 12, 64, 0
15, 800, Note_on_c, 12, 57, 32
15, 800, Note_on_c, 12, 64, 32
15, 833, Note_on_c, 12, 57, 0
15, 833, Note_on_c, 12, 64, 0
15, 840, Note_on_c, 12, 64, 32
15, 840, Note_on_c, 12, 57, 32
15, 873, Note_on_c, 12, 64, 0
15, 873, Note_on_c, 12, 57, 0
15, 880, Note_on_c, 12, 64, 32
15, 880, Note_on_c, 12, 57, 32
15, 913, Note_on_c, 12, 64, 0
15, 913, Note_on_c, 12, 57, 0
15, 920, Note_on_c, 12, 64, 32
15, 920, Note_on_c, 12, 57, 32
15, 953, Note_on_c, 12, 64, 0
15, 953, Note_on_c, 12, 57, 0
15, 960, Note_on_c, 12, 64, 32
15, 960, Note_on_c, 12, 57, 32
15, 993, Note_on_c, 12, 64, 0
15, 993, Note_on_c, 12, 57, 0
15, 1000, Note_on_c, 12, 57, 32
15, 1000, Note_on_c, 12, 64, 32
15, 1033, Note_on_c, 12, 57, 0
15, 1033, Note_on_c, 12, 64, 0
15, 1040, Note_on_c, 12, 64, 32
15, 1040, Note_on_c, 12, 57, 32
15, 1073, Note_on_c, 12, 64, 0
15, 1073, Note_on_c, 12, 57, 0
15, 1080, Note_on_c, 12, 57, 32
15, 1080, Note_on_c, 12, 64, 32
15, 1113, Note_on_c, 12, 57, 0
15, 1113, Note_on_c, 12, 64, 0
15, 1120, Note_on_c, 12, 64, 32
15, 1120, Note_on_c, 12, 57, 32
15, 1153, Note_on_c, 12, 64, 0
15, 1153, Note_on_c, 12, 57, 0
15, 1160, Note_on_c, 12, 64, 32
15, 1160, Note_on_c, 12, 57, 32
15, 1193, Note_on_c, 12, 64, 0
15, 1193, Note_on_c, 12, 57, 0
15, 1200, Note_on_c, 12, 64, 32
15, 1200, Note_on_c, 12, 57, 32
15, 1233, Note_on_c, 12, 64, 0
15, 1233, Note_on_c, 12, 57, 0
15, 1240, Note_on_c, 12, 64, 32
15, 1240, Note_on_c, 12, 57, 32
15, 1273, Note_on_c, 12, 64, 0
15, 1273, Note_on_c, 12, 57, 0
15, 1280, Note_on_c, 12, 64, 32
15, 1280, Note_on_c, 12, 57, 32
15, 1313, Note_on_c, 12, 64, 0
15, 1313, Note_on_c, 12, 57, 0
15, 1320, Note_on_c, 12, 57, 32
15, 1320, Note_on_c, 12, 64, 32
15, 1353, Note_on_c, 12, 57, 0
15, 1353, Note_on_c, 12, 64, 0
15, 1360, Note_on_c, 12, 64, 32
15, 1360, Note_on_c, 12, 57, 32
15, 1393, Note_on_c, 12, 64, 0
15, 1393, Note_on_c, 12, 57, 0
15, 1400, Note_on_c, 12, 64, 32
15, 1400, Note_on_c, 12, 57, 32
15, 1433, Note_on_c, 12, 64, 0
15, 1433, Note_on_c, 12, 57, 0
15, 1440, Note_on_c, 12, 64, 32
15, 1440, Note_on_c, 12, 57, 32
15, 1473, Note_on_c, 12, 64, 0
15, 1473, Note_on_c, 12, 57, 0
15, 1480, Note_on_c, 12, 57, 32
15, 1480, Note_on_c, 12, 64, 32
15, 1513, Note_on_c, 12, 57, 0
15, 1513, Note_on_c, 12, 64, 0
15, 1520, Note_on_c, 12, 64, 32
15, 1520, Note_on_c, 12, 57, 32
15, 1553, Note_on_c, 12, 64, 0
15, 1553, Note_on_c, 12, 57, 0
15, 1560, Note_on_c, 12, 64, 32
15, 1560, Note_on_c, 12, 57, 32
15, 1593, Note_on_c, 12, 64, 0
15, 1593, Note_on_c, 12, 57, 0
15, 1600, Note_on_c, 12, 64, 32
15, 1600, Note_on_c, 12, 57, 32
15, 1633, Note_on_c, 12, 64, 0
15, 1633, Note_on_c, 12, 57, 0
15, 1640, Note_on_c, 12, 57, 32
15, 1640, Note_on_c, 12, 64, 32
15, 1673, Note_on_c, 12, 57, 0
15, 1673, Note_on_c, 12, 64, 0
15, 1680, Note_on_c, 12, 64, 32
15, 1680, Note_on_c, 12, 57, 32
15, 1713, Note_on_c, 12, 64, 0
15, 1713, Note_on_c, 12, 57, 0
15, 1720, Note_on_c, 12, 57, 32
15, 1720, Note_on_c, 12, 64, 32
15, 1753, Note_on_c, 12, 57, 0
15, 1753, Note_on_c, 12, 64, 0
15, 1760, Note_on_c, 12, 64, 32
15, 1760, Note_on_c, 12, 57, 32
15, 1793, Note_on_c, 12, 64, 0
15, 1793, Note_on_c, 12, 57, 0
15, 1800, Note_on_c, 12, 64, 32
15, 1800, Note_on_c, 12, 57, 32
15, 1833, Note_on_c, 12, 64, 0
15, 1833, Note_on_c, 12, 57, 0
15, 1840, Note_on_c, 12, 57, 32
15, 1840, Note_on_c, 12, 64, 32
15, 1873, Note_on_c, 12, 57, 0
15, 1873, Note_on_c, 12, 64, 0
15, 1880, Note_on_c, 12, 64, 32
15, 1880, Note_on_c, 12, 57, 32
15, 1913, Note_on_c, 12, 64, 0
15, 1913, Note_on_c, 12, 57, 0
15, 1920, Note_on_c, 12, 57, 32
15, 1920, Note_on_c, 12, 64, 32
15, 1953, Note_on_c, 12, 57, 0
15, 1953, Note_on_c, 12, 64, 0
15, 1960, Note_on_c, 12, 57, 32
15, 1960, Note_on_c, 12, 64, 32
15, 1993, Note_on_c, 12, 57, 0
15, 1993, Note_on_c, 12, 64, 0
15, 2000, Note_on_c, 12, 64, 32
15, 2000, Note_on_c, 12, 57, 32
15, 2033, Note_on_c, 12, 64, 0
15, 2033, Note_on_c, 12, 57, 0
15, 2040, Note_on_c, 12, 64, 32
15, 2040, Note_on_c, 12, 57, 32
15, 2073, Note_on_c, 12, 64, 0
15, 2073, Note_on_c, 12, 57, 0
15, 2080, Note_on_c, 12, 57, 32
15, 2080, Note_on_c, 12, 64, 32
15, 2113, Note_on_c, 12, 57, 0
15, 2113, Note_on_c, 12, 64, 0
15, 2120, Note_on_c, 12, 57, 32
15, 2120, Note_on_c, 12, 64, 32
15, 2153, Note_on_c, 12, 57, 0
15, 2153, Note_on_c, 12, 64, 0
15, 2160, Note_on_c, 12, 57, 32
15, 2160, Note_on_c, 12, 64, 32
15, 2193, Note_on_c, 12, 57, 0
15, 2193, Note_on_c, 12, 64, 0
15, 2200, Note_on_c, 12, 64, 32
15, 2200, Note_on_c, 12, 57, 32
15, 2233, Note_on_c, 12, 64, 0
15, 2233, Note_on_c, 12, 57, 0
15, 2240, Note_on_c, 12, 64, 32
15, 2240, Note_on_c, 12, 57, 32
15, 2273, Note_on_c, 12, 64, 0
15, 2273, Note_on_c, 12, 57, 0
15, 2280, Note_on_c, 12, 64, 32
15, 2280, Note_on_c, 12, 57, 32
15, 2313, Note_on_c, 12, 64, 0
15, 2313, Note_on_c, 12, 57, 0
15, 2320, Note_on_c, 12, 57, 32
15, 2320, Note_on_c, 12, 64, 32
15, 2353, Note_on_c, 12, 57, 0
15, 2353, Note_on_c, 12, 64, 0
15, 2360, Note_on_c, 12, 64, 32
15, 2360, Note_on_c, 12, 57, 32
15, 2393, Note_on_c, 12, 64, 0
15, 2393, Note_on_c, 12, 57, 0
15, 2400, Note_on_c, 12, 57, 32
15, 2400, Note_on_c, 12, 64, 32
15, 2433, Note_on_c, 12, 57, 0
15, 2433, Note_on_c, 12, 64, 0
15, 2440, Note_on_c, 12, 57, 32
15, 2440, Note_on_c, 12, 64, 32
15, 2473, Note_on_c, 12, 57, 0
15, 2473, Note_on_c, 12, 64, 0
15, 2480, Note_on_c, 12, 64, 32
15, 2480, Note_on_c, 12, 57, 32
15, 2513, Note_on_c, 12, 64, 0
15, 2513, Note_on_c, 12, 57, 0
15, 2520, Note_on_c, 12, 64, 32
15, 2520, Note_on_c, 12, 57, 32
15, 2553, Note_on_c, 12, 64, 0
15, 2553, Note_on_c, 12, 57, 0
15, 2560, Note_on_c, 12, 57, 32
15, 2560, Note_on_c, 12, 64, 32
15, 2593, Note_on_c, 12, 57, 0
15, 2593, Note_on_c, 12, 64, 0
15, 2600, Note_on_c, 12, 64, 32
15, 2600, Note_on_c, 12, 57, 32
15, 2633, Note_on_c, 12, 64, 0
15, 2633, Note_on_c, 12, 57, 0
15, 2640, Note_on_c, 12, 57, 32
15, 2640, Note_on_c, 12, 64, 32
15, 2673, Note_on_c, 12, 57, 0
15, 2673, Note_on_c, 12, 64, 0
15, 2680, Note_on_c, 12, 57, 32
15, 2680, Note_on_c, 12, 64, 32
15, 2713, Note_on_c, 12, 57, 0
15, 2713, Note_on_c, 12, 64, 0
15, 2720, Note_on_c, 12, 57, 32
15, 2720, Note_on_c, 12, 64, 32
15, 2753, Note_on_c, 12, 57, 0
15, 2753, Note_on_c, 12, 64, 0
15, 2760, Note_on_c, 12, 57, 32
15, 2760, Note_on_c, 12, 64, 32
15, 2793, Note_on_c, 12, 57, 0
15, 2793, Note_on_c, 12, 64, 0
15, 2800, Note_on_c, 12, 64, 32
15, 2800, Note_on_c, 12, 57, 32
15, 2833, Note_on_c, 12, 64, 0
15, 2833, Note_on_c, 12, 57, 0
15, 2840, Note_on_c, 12, 57, 32
15, 2840, Note_on_c, 12, 64, 32
15, 2873, Note_on_c, 12, 57, 0
15, 2873, Note_on_c, 12, 64, 0
15, 2880, Note_on_c, 12, 57, 32
15, 2880, Note_on_c, 12, 64, 32
15, 2913, Note_on_c, 12, 57, 0
15, 2913, Note_on_c, 12, 64, 0
15, 2920, Note_on_c, 12, 57, 32
15, 2920, Note_on_c, 12, 64, 32
15, 2953, Note_on_c, 12, 57, 0
15, 2953, Note_on_c, 12, 64, 0
15, 2960, Note_on_c, 12, 64, 32
15, 2960, Note_on_c, 12, 57, 32
15, 2993, Note_on_c, 12, 64, 0
15, 2993, Note_on_c, 12, 57, 0
15, 3000, Note_on_c, 12, 64, 32
15, 3000, Note_on_c, 12, 57, 32
15, 3033, Note_on_c, 12, 64, 0
15, 3033, Note_on_c, 12, 57, 0
15, 3040, Note_on_c, 12, 57, 32
15, 3040, Note_on_c, 12, 64, 32
15, 3073, Note_on_c, 12, 57, 0
15, 3073, Note_on_c, 12, 64, 0
15, 3080, Note_on_c, 12, 57, 32
15, 3080, Note_on_c, 12, 64, 32
15, 3113, Note_on_c, 12, 57, 0
15, 3113, Note_on_c, 12, 64, 0
15, 3120, Note_on_c, 12, 57, 32
15, 3120, Note_on_c, 12, 64, 32
15, 3153, Note_on_c, 12, 57, 0
15, 3153, Note_on_c, 12, 64, 0
15, 3160, Note_on_c, 12, 64, 32
15, 3160, Note_on_c, 12, 57, 32
15, 3193, Note_on_c, 12, 64, 0
15, 3193, Note_on_c, 12, 57, 0
15, 3200, Note_on_c, 12, 64, 32
15, 3200, Note_on_c, 12, 57, 32
15, 3233, Note_on_c, 12, 64, 0
15, 3233, Note_on_c, 12, 57, 0
15, 3240, Note_on_c, 12, 57, 32
15, 3240, Note_on_c, 12, 64, 32
15, 3273, Note_on_c, 12, 57, 0
15, 3273, Note_on_c, 12, 64, 0
15, 3280, Note_on_c, 12, 57, 32
15, 3280, Note_on_c, 12, 64, 32
15, 3313, Note_on_c, 12, 57, 0
15, 3313, Note_on_c, 12, 64, 0
15, 3320, Note_on_c, 12, 64, 32
15, 3320, Note_on_c, 12, 57, 32
15, 3353, Note_on_c, 12, 64, 0
15, 3353, Note_on_c, 12, 57, 0
15, 3360, Note_on_c, 12, 57, 32
15, 3360, Note_on_c, 12, 64, 32
15, 3393, Note_on_c, 12, 57, 0
15, 3393, Note_on_c, 12, 64, 0
15, 3400, Note_on_c, 12, 64, 32
15, 3400, Note_on_c, 12, 57, 32
15, 3433, Note_on_c, 12, 64, 0
15, 3433, Note_on_c, 12, 57, 0
15, 3440, Note_on_c, 12, 64, 32
15, 3440, Note_on_c, 12, 57, 32
15, 3473, Note_on_c, 12, 64, 0
15, 3473, Note_on_c, 12, 57, 0
15, 3480, Note_on_c, 12, 57, 32
15, 3480, Note_on_c, 12, 64, 32
15, 3513, Note_on_c, 12, 57, 0
15, 3513, Note_on_c, 12, 64, 0
15, 3520, Note_on_c, 12, 64, 32
15, 3520, Note_on_c, 12, 57, 32
15, 3553, Note_on_c, 12, 64, 0
15, 3553, Note_on_c, 12, 57, 0
15, 3560, Note_on_c, 12, 64, 32
15, 3560, Note_on_c, 12, 57, 32
15, 3593, Note_on_c, 12, 64, 0
15, 3593, Note_on_c, 12, 57, 0
15, 3600, Note_on_c, 12, 57, 32
15, 3600, Note_on_c, 12, 64, 32
15, 3633, Note_on_c, 12, 57, 0
15, 3633, Note_on_c, 12, 64, 0
15, 3640, Note_on_c, 12, 57, 32
15, 3640, Note_on_c, 12, 64, 32
15, 3673, Note_on_c, 12, 57, 0
15, 3673, Note_on_c, 12, 64, 0
15, 3680, Note_on_c, 12, 57, 32
15, 3680, Note_on_c, 12, 64, 32
15, 3713, Note_on_c, 12, 57, 0
15, 3713, Note_on_c, 12, 64, 0
15, 3720, Note_on_c, 12, 57, 32
15, 3720, Note_on_c, 12, 64, 32
15, 3753, Note_on_c, 12, 57, 0
15, 3753, Note_on_c, 12, 64, 0
15, 3760, Note_on_c, 12, 64, 32
15, 3760, Note_on_c, 12, 57, 32
15, 3793, Note_on_c, 12, 64, 0
15, 3793, Note_on_c, 12, 57, 0
15, 3800, Note_on_c, 12, 64, 32
15, 3800, Note_on_c, 12, 57, 32
15, 3833, Note_on_c, 12, 64, 0
15, 3833, Note_on_c, 12, 57, 0
15, 3840, Note_on_c, 12, 57, 32
15, 3840, Note_on_c, 12, 64, 32
15, 3873, Note_on_c, 12, 57, 0
15, 3873, Note_on_c, 12, 64, 0
15, 3880, Note_on_c, 12, 64, 32
15, 3880, Note_on_c, 12, 57, 32
15, 3913, Note_on_c, 12, 64, 0
15, 3913, Note_on_c, 12, 57, 0
15, 3920, Note_on_c, 12, 64, 32
15, 3920, Note_on_c, 12, 57, 32
15, 3953, Note_on_c, 12, 64, 0
15, 3953, Note_on_c, 12, 57, 0
15, 3960, Note_on_c, 12, 64, 32
15, 3960, Note_on_c, 12, 57, 32
15, 3993, Note_on_c, 12, 64, 0
15, 3993, Note_on_c, 12, 57, 0
15, 4000, Note_on_c, 12, 64, 32
15, 4000, Note_on_c, 12, 57, 32
15, 4033, Note_on_c, 12, 64, 0
15, 4033, Note_on_c, 12, 57, 0
15, 4040, Note_on_c, 12, 64, 32
15, 4040, Note_on_c, 12, 57, 32
15, 4073, Note_on_c, 12, 64, 0
15, 4073, Note_on_c, 12, 57, 0
15, 4080, Note_on_c, 12, 64, 32
15, 4080, Note_on_c, 12, 57, 32
15, 4113, Note_on_c, 12, 64, 0
15, 4113, Note_on_c, 12, 57, 0
15, 4120, Note_on_c, 12, 64, 32
15, 4120, Note_on_c, 12, 57, 32
15, 4153, Note_on_c, 12, 64, 0
15, 4153, Note_on_c, 12, 57, 0
15, 4160, Note_on_c, 12, 57, 32
15, 4160, Note_on_c, 12, 64, 32
15, 4193, Note_on_c, 12, 57, 0
15, 4193, Note_on_c, 12, 64, 0
15, 4200, Note_on_c, 12, 57, 32
15, 4200, Note_on_c, 12, 64, 32
15, 4233, Note_on_c, 12, 57, 0
15, 4233, Note_on_c, 12, 64, 0
15, 4240, Note_on_c, 12, 57, 32
15, 4240, Note_on_c, 12, 64, 32
15, 4273, Note_on_c, 12, 57, 0
15, 4273, Note_on_c, 12, 64, 0
15, 4280, Note_on_c, 12, 64, 32
15, 4280, Note_on_c, 12, 57, 32
15, 4313, Note_on_c, 12, 64, 0
15, 4313, Note_on_c, 12, 57, 0
15, 4320, Note_on_c, 12, 57, 32
15, 4320, Note_on_c, 12, 64, 32
15, 4353, Note_on_c, 12, 57, 0
15, 4353, Note_on_c, 12, 64, 0
15, 4360, Note_on_c, 12, 64, 32
15, 4360, Note_on_c, 12, 57, 32
15, 4393, Note_on_c, 12, 64, 0
15, 4393, Note_on_c, 12, 57, 0
15, 4400, Note_on_c, 12, 57, 32
15, 4400, Note_on_c, 12, 64, 32
15, 4433, Note_on_c, 12, 57, 0
15, 4433, Note_on_c, 12, 64, 0
15, 4440, Note_on_c, 12, 64, 32
15, 4440, Note_on_c, 12, 57, 32
15, 4473, Note_on_c, 12, 64, 0
15, 4473, Note_on_c, 12, 57, 0
15, 4480, Note_on_c, 12, 57, 32
15, 4480, Note_on_c, 12, 64, 32
15, 4513, Note_on_c, 12, 57, 0
15, 4513, Note_on_c, 12, 64, 0
15, 4520, Note_on_c, 12, 64, 32
15, 4520, Note_on_c, 12, 57, 32
15, 4553, Note_on_c, 12, 64, 0
15, 4553, Note_on_c, 12, 57, 0
15, 4560, Note_on_c, 12, 57, 32
15, 4560, Note_on_c, 12, 64, 32
15, 4593, Note_on_c, 12, 57, 0
15, 4593, Note_on_c, 12, 64, 0
15, 4600, Note_on_c, 12, 64, 32
15, 4600, Note_on_c, 12, 57, 32
15, 4633, Note_on_c, 12, 64, 0
15, 4633, Note_on_c, 12, 57, 0
15, 4640, Note_on_c, 12, 57, 32
15, 4640, Note_on_c, 12, 64, 32
15, 4673, Note_on_c, 12, 57, 0
15, 4673, Note_on_c, 12, 64, 0
15, 4680, Note_on_c, 12, 64, 32
15, 4680, Note_on_c, 12, 57, 32
15, 4713, Note_on_c, 12, 64, 0
15, 4713, Note_on_c, 12, 57, 0
15, 4720, Note_on_c, 12, 64, 32
15, 4720, Note_on_c, 12, 57, 32
15, 4753, Note_on_c, 12, 64, 0
15, 4753, Note_on_c, 12, 57, 0
15, 4760, Note_on_c, 12, 64, 32
15, 4760, Note_on_c, 12, 57, 32
15, 4793, Note_on_c, 12, 64, 0
15, 4793, Note_on_c, 12, 57, 0
15, 4800, Note_on_c, 12, 57, 32
15, 4800, Note_on_c, 12, 64, 32
15, 4833, Note_on_c, 12, 57, 0
15, 4833, Note_on_c, 12, 64, 0
15, 4840, Note_on_c, 12, 64, 32
15, 4840, Note_on_c, 12, 57, 32
15, 4873, Note_on_c, 12, 64, 0
15, 4873, Note_on_c, 12, 57, 0
15, 4880, Note_on_c, 12, 57, 34
15, 4880, Note_on_c, 12, 64, 34
15, 4913, Note_on_c, 12, 57, 0
15, 4913, Note_on_c, 12, 64, 0
15, 4920, Note_on_c, 12, 64, 34
15, 4920, Note_on_c, 12, 57, 34
15, 4953, Note_on_c, 12, 64, 0
15, 4953, Note_on_c, 12, 57, 0
15, 4960, Note_on_c, 12, 57, 35
15, 4960, Note_on_c, 12, 64, 35
15, 4993, Note_on_c, 12, 57, 0
15, 4993, Note_on_c, 12, 64, 0
15, 5000, Note_on_c, 12, 64, 35
15, 5000, Note_on_c, 12, 57, 35
15, 5033, Note_on_c, 12, 64, 0
15, 5033, Note_on_c, 12, 57, 0
15, 5040, Note_on_c, 12, 57, 37
15, 5040, Note_on_c, 12, 64, 37
15, 5073, Note_on_c, 12, 57, 0
15, 5073, Note_on_c, 12, 64, 0
15, 5080, Note_on_c, 12, 57, 37
15, 5080, Note_on_c, 12, 64, 37
15, 5113, Note_on_c, 12, 57, 0
15, 5113, Note_on_c, 12, 64, 0
15, 5120, Note_on_c, 12, 57, 38
15, 5120, Note_on_c, 12, 64, 38
15, 5153, Note_on_c, 12, 57, 0
15, 5153, Note_on_c, 12, 64, 0
15, 5160, Note_on_c, 12, 64, 40
15, 5160, Note_on_c, 12, 57, 40
15, 5193, Note_on_c, 12, 64, 0
15, 5193, Note_on_c, 12, 57, 0
15, 5200, Note_on_c, 12, 57, 40
15, 5200, Note_on_c, 12, 64, 40
15, 5233, Note_on_c, 12, 57, 0
15, 5233, Note_on_c, 12, 64, 0
15, 5240, Note_on_c, 12, 57, 41
15, 5240, Note_on_c, 12, 64, 41
15, 5273, Note_on_c, 12, 57, 0
15, 5273, Note_on_c, 12, 64, 0
15, 5280, Note_on_c, 12, 57, 41
15, 5280, Note_on_c, 12, 64, 41
15, 5313, Note_on_c, 12, 57, 0
15, 5313, Note_on_c, 12, 64, 0
15, 5320, Note_on_c, 12, 57, 43
15, 5320, Note_on_c, 12, 64, 43
15, 5353, Note_on_c, 12, 57, 0
15, 5353, Note_on_c, 12, 64, 0
15, 5360, Note_on_c, 12, 57, 43
15, 5360, Note_on_c, 12, 64, 43
15, 5393, Note_on_c, 12, 57, 0
15, 5393, Note_on_c, 12, 64, 0
15, 5400, Note_on_c, 12, 57, 44
15, 5400, Note_on_c, 12, 64, 44
15, 5433, Note_on_c, 12, 57, 0
15, 5433, Note_on_c, 12, 64, 0
15, 5440, Note_on_c, 12, 57, 44
15, 5440, Note_on_c, 12, 64, 44
15, 5473, Note_on_c, 12, 57, 0
15, 5473, Note_on_c, 12, 64, 0
15, 5480, Note_on_c, 12, 57, 46
15, 5480, Note_on_c, 12, 64, 46
15, 5513, Note_on_c, 12, 57, 0
15, 5513, Note_on_c, 12, 64, 0
15, 5520, Note_on_c, 12, 64, 47
15, 5520, Note_on_c, 12, 57, 47
15, 5553, Note_on_c, 12, 64, 0
15, 5553, Note_on_c, 12, 57, 0
15, 5560, Note_on_c, 12, 64, 47
15, 5560, Note_on_c, 12, 57, 47
15, 5593, Note_on_c, 12, 64, 0
15, 5593, Note_on_c, 12, 57, 0
15, 5600, Note_on_c, 12, 57, 49
15, 5600, Note_on_c, 12, 64, 49
15, 5633, Note_on_c, 12, 57, 0
15, 5633, Note_on_c, 12, 64, 0
15, 5640, Note_on_c, 12, 64, 49
15, 5640, Note_on_c, 12, 57, 49
15, 5673, Note_on_c, 12, 64, 0
15, 5673, Note_on_c, 12, 57, 0
15, 5680, Note_on_c, 12, 64, 50
15, 5680, Note_on_c, 12, 57, 50
15, 5713, Note_on_c, 12, 64, 0
15, 5713, Note_on_c, 12, 57, 0
15, 5720, Note_on_c, 12, 57, 50
15, 5720, Note_on_c, 12, 64, 50
15, 5753, Note_on_c, 12, 57, 0
15, 5753, Note_on_c, 12, 64, 0
15, 5760, Note_on_c, 12, 57, 52
15, 5760, Note_on_c, 12, 64, 52
15, 5793, Note_on_c, 12, 57, 0
15, 5793, Note_on_c, 12, 64, 0
15, 5800, Note_on_c, 12, 64, 52
15, 5800, Note_on_c, 12, 57, 52
15, 5833, Note_on_c, 12, 64, 0
15, 5833, Note_on_c, 12, 57, 0
15, 5840, Note_on_c, 12, 64, 53
15, 5840, Note_on_c, 12, 57, 53
15, 5873, Note_on_c, 12, 64, 0
15, 5873, Note_on_c, 12, 57, 0
15, 5880, Note_on_c, 12, 57, 55
15, 5880, Note_on_c, 12, 64, 55
15, 5913, Note_on_c, 12, 57, 0
15, 5913, Note_on_c, 12, 64, 0
15, 5920, Note_on_c, 12, 64, 55
15, 5920, Note_on_c, 12, 57, 55
15, 5953, Note_on_c, 12, 64, 0
15, 5953, Note_on_c, 12, 57, 0
15, 5960, Note_on_c, 12, 64, 56
15, 5960, Note_on_c, 12, 57, 56
15, 5993, Note_on_c, 12, 64, 0
15, 5993, Note_on_c, 12, 57, 0
15, 6000, Note_on_c, 12, 64, 56
15, 6000, Note_on_c, 12, 57, 56
15, 6033, Note_on_c, 12, 64, 0
15, 6033, Note_on_c, 12, 57, 0
15, 6040, Note_on_c, 12, 64, 58
15, 6040, Note_on_c, 12, 57, 58
15, 6073, Note_on_c, 12, 64, 0
15, 6073, Note_on_c, 12, 57, 0
15, 6080, Note_on_c, 12, 57, 58
15, 6080, Note_on_c, 12, 64, 58
15, 6113, Note_on_c, 12, 57, 0
15, 6113, Note_on_c, 12, 64, 0
15, 6120, Note_on_c, 12, 57, 59
15, 6120, Note_on_c, 12, 64, 59
15, 6153, Note_on_c, 12, 57, 0
15, 6153, Note_on_c, 12, 64, 0
15, 6160, Note_on_c, 12, 64, 59
15, 6160, Note_on_c, 12, 57, 59
15, 6193, Note_on_c, 12, 64, 0
15, 6193, Note_on_c, 12, 57, 0
15, 6200, Note_on_c, 12, 64, 61
15, 6200, Note_on_c, 12, 57, 61
15, 6233, Note_on_c, 12, 64, 0
15, 6233, Note_on_c, 12, 57, 0
15, 6240, Note_on_c, 12, 64, 62
15, 6240, Note_on_c, 12, 57, 62
15, 6273, Note_on_c, 12, 64, 0
15, 6273, Note_on_c, 12, 57, 0
15, 6280, Note_on_c, 12, 57, 62
15, 6280, Note_on_c, 12, 64, 62
15, 6313, Note_on_c, 12, 57, 0
15, 6313, Note_on_c, 12, 64, 0
15, 6320, Note_on_c, 12, 57, 64
15, 6320, Note_on_c, 12, 64, 64
15, 6353, Note_on_c, 12, 57, 0
15, 6353, Note_on_c, 12, 64, 0
15, 6360, Note_on_c, 12, 64, 64
15, 6360, Note_on_c, 12, 57, 64
15, 6393, Note_on_c, 12, 64, 0
15, 6393, Note_on_c, 12, 57, 0
15, 6400, Note_on_c, 12, 57, 65
15, 6400, Note_on_c, 12, 64, 65
15, 6433, Note_on_c, 12, 57, 0
15, 6433, Note_on_c, 12, 64, 0
15, 6440, Note_on_c, 12, 64, 65
15, 6440, Note_on_c, 12, 57, 65
15, 6473, Note_on_c, 12, 64, 0
15, 6473, Note_on_c, 12, 57, 0
15, 6480, Note_on_c, 12, 64, 67
15, 6480, Note_on_c, 12, 57, 67
15, 6513, Note_on_c, 12, 64, 0
15, 6513, Note_on_c, 12, 57, 0
15, 6520, Note_on_c, 12, 57, 67
15, 6520, Note_on_c, 12, 64, 67
15, 6553, Note_on_c, 12, 57, 0
15, 6553, Note_on_c, 12, 64, 0
15, 6560, Note_on_c, 12, 64, 68
15, 6560, Note_on_c, 12, 57, 68
15, 6593, Note_on_c, 12, 64, 0
15, 6593, Note_on_c, 12, 57, 0
15, 6600, Note_on_c, 12, 69, 69
15, 6600, Note_on_c, 12, 57, 69
15, 6633, Note_on_c, 12, 69, 0
15, 6633, Note_on_c, 12, 57, 0
15, 6640, Note_on_c, 12, 69, 69
15, 6640, Note_on_c, 12, 57, 69
15, 6673, Note_on_c, 12, 69, 0
15, 6673, Note_on_c, 12, 57, 0
15, 6680, Note_on_c, 12, 69, 71
15, 6680, Note_on_c, 12, 57, 71
15, 6713, Note_on_c, 12, 69, 0
15, 6713, Note_on_c, 12, 57, 0
15, 6720, Note_on_c, 12, 57, 71
15, 6720, Note_on_c, 12, 69, 71
15, 6753, Note_on_c, 12, 57, 0
15, 6753, Note_on_c, 12, 69, 0
15, 6760, Note_on_c, 12, 69, 72
15, 6760, Note_on_c, 12, 57, 72
15, 6793, Note_on_c, 12, 69, 0
15, 6793, Note_on_c, 12, 57, 0
15, 6800, Note_on_c, 12, 69, 72
15, 6800, Note_on_c, 12, 57, 72
15, 6833, Note_on_c, 12, 69, 0
15, 6833, Note_on_c, 12, 57, 0
15, 6840, Note_on_c, 12, 57, 74
15, 6840, Note_on_c, 12, 69, 74
15, 6873, Note_on_c, 12, 57, 0
15, 6873, Note_on_c, 12, 69, 0
15, 6880, Note_on_c, 12, 69, 74
15, 6880, Note_on_c, 12, 57, 74
15, 6913, Note_on_c, 12, 69, 0
15, 6913, Note_on_c, 12, 57, 0
15, 6920, Note_on_c, 12, 69, 75
15, 6920, Note_on_c, 12, 57, 75
15, 6953, Note_on_c, 12, 69, 0
15, 6953, Note_on_c, 12, 57, 0
15, 6960, Note_on_c, 12, 57, 77
15, 6960, Note_on_c, 12, 69, 77
15, 6993, Note_on_c, 12, 57, 0
15, 6993, Note_on_c, 12, 69, 0
15, 7000, Note_on_c, 12, 69, 77
15, 7000, Note_on_c, 12, 57, 77
15, 7033, Note_on_c, 12, 69, 0
15, 7033, Note_on_c, 12, 57, 0
15, 7040, Note_on_c, 12, 57, 78
15, 7040, Note_on_c, 12, 69, 78
15, 7073, Note_on_c, 12, 57, 0
15, 7073, Note_on_c, 12, 69, 0
15, 7080, Note_on_c, 12, 57, 78
15, 7080, Note_on_c, 12, 69, 78
15, 7113, Note_on_c, 12, 57, 0
15, 7113, Note_on_c, 12, 69, 0
15, 7120, Note_on_c, 12, 57, 80
15, 7120, Note_on_c, 12, 69, 80
15, 7153, Note_on_c, 12, 57, 0
15, 7153, Note_on_c, 12, 69, 0
15, 7160, Note_on_c, 12, 69, 80
15, 7160, Note_on_c, 12, 57, 80
15, 7193, Note_on_c, 12, 69, 0
15, 7193, Note_on_c, 12, 57, 0
15, 7200, Note_on_c, 12, 69, 81
15, 7200, Note_on_c, 12, 57, 81
15, 7233, Note_on_c, 12, 69, 0
15, 7233, Note_on_c, 12, 57, 0
15, 7240, Note_on_c, 12, 69, 81
15, 7240, Note_on_c, 12, 57, 81
15, 7273, Note_on_c, 12, 69, 0
15, 7273, Note_on_c, 12, 57, 0
15, 7280, Note_on_c, 12, 57, 83
15, 7280, Note_on_c, 12, 69, 83
15, 7313, Note_on_c, 12, 57, 0
15, 7313, Note_on_c, 12, 69, 0
15, 7320, Note_on_c, 12, 57, 84
15, 7320, Note_on_c, 12, 69, 84
15, 7353, Note_on_c, 12, 57, 0
15, 7353, Note_on_c, 12, 69, 0
15, 7360, Note_on_c, 12, 69, 84
15, 7360, Note_on_c, 12, 57, 84
15, 7393, Note_on_c, 12, 69, 0
15, 7393, Note_on_c, 12, 57, 0
15, 7400, Note_on_c, 12, 69, 86
15, 7400, Note_on_c, 12, 57, 86
15, 7433, Note_on_c, 12, 69, 0
15, 7433, Note_on_c, 12, 57, 0
15, 7440, Note_on_c, 12, 69, 86
15, 7440, Note_on_c, 12, 57, 86
15, 7473, Note_on_c, 12, 69, 0
15, 7473, Note_on_c, 12, 57, 0
15, 7480, Note_on_c, 12, 69, 87
15, 7480, Note_on_c, 12, 57, 87
15, 7513, Note_on_c, 12, 69, 0
15, 7513, Note_on_c, 12, 57, 0
15, 7520, Note_on_c, 12, 57, 87
15, 7520, Note_on_c, 12, 69, 87
15, 7553, Note_on_c, 12, 57, 0
15, 7553, Note_on_c, 12, 69, 0
15, 7560, Note_on_c, 12, 69, 89
15, 7560, Note_on_c, 12, 57, 89
15, 7619, Note_on_c, 12, 69, 0
15, 7619, Note_on_c, 12, 57, 0
15, 7650, Note_on_c, 12, 86, 92
15, 7671, Note_on_c, 12, 86, 0
15, 7680, Note_on_c, 12, 81, 92
15, 8121, Note_on_c, 12, 81, 0
15, 8130, Note_on_c, 12, 77, 92
15, 8151, Note_on_c, 12, 77, 0
15, 8160, Note_on_c, 12, 74, 92
15, 8361, Note_on_c, 12, 74, 0
15, 8370, Note_on_c, 12, 69, 92
15, 8391, Note_on_c, 12, 69, 0
15, 8400, Note_on_c, 12, 65, 92
15, 8571, Note_on_c, 12, 65, 0
15, 8580, Note_on_c, 12, 69, 92
15, 8609, Note_on_c, 12, 69, 0
15, 8610, Note_on_c, 12, 65, 92
15, 8631, Note_on_c, 12, 65, 0
15, 8640, Note_on_c, 12, 62, 92
15, 8931, Note_on_c, 12, 62, 0
15, 8940, Note_on_c, 12, 77, 92
15, 8984, Note_on_c, 12, 77, 0
15, 9000, Note_on_c, 12, 76, 92
15, 9044, Note_on_c, 12, 76, 0
15, 9060, Note_on_c, 12, 74, 92
15, 9104, Note_on_c, 12, 74, 0
15, 9120, Note_on_c, 12, 81, 92
15, 9209, Note_on_c, 12, 81, 0
15, 9240, Note_on_c, 12, 79, 92
15, 9329, Note_on_c, 12, 79, 0
15, 9360, Note_on_c, 12, 76, 92
15, 9449, Note_on_c, 12, 76, 0
15, 9480, Note_on_c, 12, 81, 92
15, 9569, Note_on_c, 12, 81, 0
15, 9600, Note_on_c, 12, 74, 104
15, 9779, Note_on_c, 12, 74, 0
15, 9840, Note_on_c, 12, 69, 104
15, 9840, Note_on_c, 12, 64, 104
15, 9840, Note_on_c, 12, 61, 104
15, 9840, Note_on_c, 12, 76, 104
15, 9959, Note_on_c, 12, 69, 0
15, 9959, Note_on_c, 12, 64, 0
15, 9959, Note_on_c, 12, 61, 0
15, 10019, Note_on_c, 12, 76, 0
15, 10080, Note_on_c, 12, 62, 104
15, 10080, Note_on_c, 12, 69, 104
15, 10080, Note_on_c, 12, 77, 104
15, 10199, Note_on_c, 12, 62, 0
15, 10199, Note_on_c, 12, 69, 0
15, 10259, Note_on_c, 12, 77, 0
15, 10560, Note_on_c, 12, 62, 104
15, 10560, Note_on_c, 12, 79, 104
15, 10560, Note_on_c, 12, 70, 104
15, 10679, Note_on_c, 12, 62, 0
15, 10679, Note_on_c, 12, 70, 0
15, 10739, Note_on_c, 12, 79, 0
15, 10800, Note_on_c, 12, 66, 104
15, 10800, Note_on_c, 12, 81, 104
15, 10800, Note_on_c, 12, 69, 104
15, 10919, Note_on_c, 12, 66, 0
15, 10919, Note_on_c, 12, 69, 0
15, 10979, Note_on_c, 12, 81, 0
15, 11000, Note_on_c, 12, 55, 92
15, 11019, Note_on_c, 12, 55, 0
15, 11020, Note_on_c, 12, 67, 92
15, 11039, Note_on_c, 12, 67, 0
15, 11040, Note_on_c, 12, 70, 92
15, 11040, Note_on_c, 12, 79, 92
15, 11519, Note_on_c, 12, 70, 0
15, 11519, Note_on_c, 12, 79, 0
15, 11520, Note_on_c, 12, 70, 92
15, 11520, Note_on_c, 12, 79, 92
15, 12104, Note_on_c, 12, 70, 0
15, 12104, Note_on_c, 12, 79, 0
15, 12120, Note_on_c, 12, 55, 92
15, 12224, Note_on_c, 12, 55, 0
15, 12240, Note_on_c, 12, 55, 92
15, 12344, Note_on_c, 12, 55, 0
15, 12360, Note_on_c, 12, 70, 92
15, 12449, Note_on_c, 12, 70, 0
15, 12480, Note_on_c, 12, 67, 104
15, 12480, Note_on_c, 12, 70, 104
15, 12599, Note_on_c, 12, 67, 0
15, 12599, Note_on_c, 12, 70, 0
15, 12960, Note_on_c, 12, 73, 44
15, 13079, Note_on_c, 12, 73, 0
15, 13440, Note_on_c, 12, 77, 80
15, 13440, Note_on_c, 12, 62, 80
15, 13440, Note_on_c, 12, 69, 80
15, 13559, Note_on_c, 12, 77, 0
15, 13559, Note_on_c, 12, 62, 0
15, 13559, Note_on_c, 12, 69, 0
15, 13920, Note_on_c, 12, 65, 44
15, 13920, Note_on_c, 12, 69, 44
15, 14039, Note_on_c, 12, 65, 0
15, 14039, Note_on_c, 12, 69, 0
15, 14400, Note_on_c, 12, 73, 80
15, 14400, Note_on_c, 12, 79, 80
15, 14400, Note_on_c, 12, 64, 80
15, 14519, Note_on_c, 12, 73, 0
15, 14519, Note_on_c, 12, 79, 0
15, 14519, Note_on_c, 12, 64, 0
15, 14640, Note_on_c, 12, 73, 92
15, 14640, Note_on_c, 12, 76, 92
15, 14699, Note_on_c, 12, 73, 0
15, 14699, Note_on_c, 12, 76, 0
15, 14700, Note_on_c, 12, 73, 80
15, 14700, Note_on_c, 12, 76, 80
15, 15104, Note_on_c, 12, 73, 0
15, 15104, Note_on_c, 12, 76, 0
15, 15120, Note_on_c, 12, 74, 92
15, 15120, Note_on_c, 12, 77, 92
15, 15179, Note_on_c, 12, 74, 0
15, 15179, Note_on_c, 12, 77, 0
15, 15180, Note_on_c, 12, 77, 80
15, 15180, Note_on_c, 12, 74, 80
15, 15584, Note_on_c, 12, 77, 0
15, 15584, Note_on_c, 12, 74, 0
15, 15600, Note_on_c, 12, 74, 92
15, 15600, Note_on_c, 12, 77, 92
15, 15659, Note_on_c, 12, 74, 0
15, 15659, Note_on_c, 12, 77, 0
15, 15660, Note_on_c, 12, 74, 80
15, 15660, Note_on_c, 12, 77, 80
15, 16113, Note_on_c, 12, 74, 0
15, 16113, Note_on_c, 12, 77, 0
15, 16120, Note_on_c, 12, 69, 80
15, 16120, Note_on_c, 12, 62, 80
15, 16153, Note_on_c, 12, 69, 0
15, 16153, Note_on_c, 12, 62, 0
15, 16160, Note_on_c, 12, 62, 80
15, 16160, Note_on_c, 12, 69, 80
15, 16193, Note_on_c, 12, 62, 0
15, 16193, Note_on_c, 12, 69, 0
15, 16200, Note_on_c, 12, 62, 80
15, 16200, Note_on_c, 12, 69, 80
15, 16233, Note_on_c, 12, 62, 0
15, 16233, Note_on_c, 12, 69, 0
15, 16240, Note_on_c, 12, 62, 80
15, 16240, Note_on_c, 12, 69, 80
15, 16273, Note_on_c, 12, 62, 0
15, 16273, Note_on_c, 12, 69, 0
15, 16280, Note_on_c, 12, 62, 80
15, 16280, Note_on_c, 12, 69, 80
15, 16313, Note_on_c, 12, 62, 0
15, 16313, Note_on_c, 12, 69, 0
15, 16320, Note_on_c, 12, 69, 80
15, 16320, Note_on_c, 12, 62, 80
15, 16353, Note_on_c, 12, 69, 0
15, 16353, Note_on_c, 12, 62, 0
15, 16360, Note_on_c, 12, 62, 74
15, 16360, Note_on_c, 12, 69, 74
15, 16393, Note_on_c, 12, 62, 0
15, 16393, Note_on_c, 12, 69, 0
15, 16400, Note_on_c, 12, 69, 68
15, 16400, Note_on_c, 12, 62, 68
15, 16433, Note_on_c, 12, 69, 0
15, 16433, Note_on_c, 12, 62, 0
15, 16440, Note_on_c, 12, 69, 62
15, 16440, Note_on_c, 12, 62, 62
15, 16473, Note_on_c, 12, 69, 0
15, 16473, Note_on_c, 12, 62, 0
15, 16480, Note_on_c, 12, 62, 56
15, 16480, Note_on_c, 12, 69, 56
15, 16513, Note_on_c, 12, 62, 0
15, 16513, Note_on_c, 12, 69, 0
15, 16520, Note_on_c, 12, 62, 50
15, 16520, Note_on_c, 12, 69, 50
15, 16553, Note_on_c, 12, 62, 0
15, 16553, Note_on_c, 12, 69, 0
15, 16560, Note_on_c, 12, 62, 44
15, 16560, Note_on_c, 12, 69, 44
15, 16593, Note_on_c, 12, 62, 0
15, 16593, Note_on_c, 12, 69, 0
15, 16600, Note_on_c, 12, 69, 44
15, 16600, Note_on_c, 12, 62, 44
15, 16633, Note_on_c, 12, 69, 0
15, 16633, Note_on_c, 12, 62, 0
15, 16640, Note_on_c, 12, 62, 44
15, 16640, Note_on_c, 12, 69, 44
15, 16673, Note_on_c, 12, 62, 0
15, 16673, Note_on_c, 12, 69, 0
15, 16680, Note_on_c, 12, 62, 44
15, 16680, Note_on_c, 12, 69, 44
15, 16713, Note_on_c, 12, 62, 0
15, 16713, Note_on_c, 12, 69, 0
15, 16720, Note_on_c, 12, 69, 44
15, 16720, Note_on_c, 12, 62, 44
15, 16753, Note_on_c, 12, 69, 0
15, 16753, Note_on_c, 12, 62, 0
15, 16760, Note_on_c, 12, 62, 44
15, 16760, Note_on_c, 12, 69, 44
15, 16793, Note_on_c, 12, 62, 0
15, 16793, Note_on_c, 12, 69, 0
15, 16800, Note_on_c, 12, 62, 32
15, 16800, Note_on_c, 12, 69, 32
15, 16833, Note_on_c, 12, 62, 0
15, 16833, Note_on_c, 12, 69, 0
15, 16840, Note_on_c, 12, 62, 32
15, 16840, Note_on_c, 12, 69, 32
15, 16873, Note_on_c, 12, 62, 0
15, 16873, Note_on_c, 12, 69, 0
15, 16880, Note_on_c, 12, 62, 32
15, 16880, Note_on_c, 12, 69, 32
15, 16913, Note_on_c, 12, 62, 0
15, 16913, Note_on_c, 12, 69, 0
15, 16920, Note_on_c, 12, 62, 32
15, 16920, Note_on_c, 12, 69, 32
15, 16953, Note_on_c, 12, 62, 0
15, 16953, Note_on_c, 12, 69, 0
15, 16960, Note_on_c, 12, 69, 32
15, 16960, Note_on_c, 12, 62, 32
15, 16993, Note_on_c, 12, 69, 0
15, 16993, Note_on_c, 12, 62, 0
15, 17000, Note_on_c, 12, 62, 32
15, 17000, Note_on_c, 12, 69, 32
15, 17033, Note_on_c, 12, 62, 0
15, 17033, Note_on_c, 12, 69, 0
15, 17040, Note_on_c, 12, 69, 32
15, 17040, Note_on_c, 12, 62, 32
15, 17073, Note_on_c, 12, 69, 0
15, 17073, Note_on_c, 12, 62, 0
15, 17080, Note_on_c, 12, 69, 32
15, 17080, Note_on_c, 12, 62, 32
15, 17113, Note_on_c, 12, 69, 0
15, 17113, Note_on_c, 12, 62, 0
15, 17120, Note_on_c, 12, 62, 32
15, 17120, Note_on_c, 12, 69, 32
15, 17153, Note_on_c, 12, 62, 0
15, 17153, Note_on_c, 12, 69, 0
15, 17160, Note_on_c, 12, 69, 32
15, 17160, Note_on_c, 12, 62, 32
15, 17193, Note_on_c, 12, 69, 0
15, 17193, Note_on_c, 12, 62, 0
15, 17200, Note_on_c, 12, 62, 32
15, 17200, Note_on_c, 12, 69, 32
15, 17233, Note_on_c, 12, 62, 0
15, 17233, Note_on_c, 12, 69, 0
15, 17240, Note_on_c, 12, 62, 32
15, 17240, Note_on_c, 12, 69, 32
15, 17273, Note_on_c, 12, 62, 0
15, 17273, Note_on_c, 12, 69, 0
15, 17280, Note_on_c, 12, 69, 32
15, 17280, Note_on_c, 12, 62, 32
15, 17313, Note_on_c, 12, 69, 0
15, 17313, Note_on_c, 12, 62, 0
15, 17320, Note_on_c, 12, 62, 32
15, 17320, Note_on_c, 12, 69, 32
15, 17353, Note_on_c, 12, 62, 0
15, 17353, Note_on_c, 12, 69, 0
15, 17360, Note_on_c, 12, 69, 32
15, 17360, Note_on_c, 12, 62, 32
15, 17393, Note_on_c, 12, 69, 0
15, 17393, Note_on_c, 12, 62, 0
15, 17400, Note_on_c, 12, 69, 32
15, 17400, Note_on_c, 12, 62, 32
15, 17433, Note_on_c, 12, 69, 0
15, 17433, Note_on_c, 12, 62, 0
15, 17440, Note_on_c, 12, 69, 32
15, 17440, Note_on_c, 12, 62, 32
15, 17473, Note_on_c, 12, 69, 0
15, 17473, Note_on_c, 12, 62, 0
15, 17480, Note_on_c, 12, 69, 32
15, 17480, Note_on_c, 12, 62, 32
15, 17513, Note_on_c, 12, 69, 0
15, 17513, Note_on_c, 12, 62, 0
15, 17520, Note_on_c, 12, 62, 32
15, 17520, Note_on_c, 12, 69, 32
15, 17553, Note_on_c, 12, 62, 0
15, 17553, Note_on_c, 12, 69, 0
15, 17560, Note_on_c, 12, 69, 32
15, 17560, Note_on_c, 12, 62, 32
15, 17593, Note_on_c, 12, 69, 0
15, 17593, Note_on_c, 12, 62, 0
15, 17600, Note_on_c, 12, 62, 32
15, 17600, Note_on_c, 12, 69, 32
15, 17633, Note_on_c, 12, 62, 0
15, 17633, Note_on_c, 12, 69, 0
15, 17640, Note_on_c, 12, 62, 32
15, 17640, Note_on_c, 12, 69, 32
15, 17673, Note_on_c, 12, 62, 0
15, 17673, Note_on_c, 12, 69, 0
15, 17680, Note_on_c, 12, 69, 32
15, 17680, Note_on_c, 12, 62, 32
15, 17713, Note_on_c, 12, 69, 0
15, 17713, Note_on_c, 12, 62, 0
15, 17720, Note_on_c, 12, 62, 32
15, 17720, Note_on_c, 12, 69, 32
15, 17753, Note_on_c, 12, 62, 0
15, 17753, Note_on_c, 12, 69, 0
15, 17760, Note_on_c, 12, 62, 32
15, 17760, Note_on_c, 12, 69, 32
15, 17793, Note_on_c, 12, 62, 0
15, 17793, Note_on_c, 12, 69, 0
15, 17800, Note_on_c, 12, 69, 32
15, 17800, Note_on_c, 12, 62, 32
15, 17833, Note_on_c, 12, 69, 0
15, 17833, Note_on_c, 12, 62, 0
15, 17840, Note_on_c, 12, 69, 32
15, 17840, Note_on_c, 12, 62, 32
15, 17873, Note_on_c, 12, 69, 0
15, 17873, Note_on_c, 12, 62, 0
15, 17880, Note_on_c, 12, 69, 32
15, 17880, Note_on_c, 12, 62, 32
15, 17913, Note_on_c, 12, 69, 0
15, 17913, Note_on_c, 12, 62, 0
15, 17920, Note_on_c, 12, 69, 32
15, 17920, Note_on_c, 12, 62, 32
15, 17953, Note_on_c, 12, 69, 0
15, 17953, Note_on_c, 12, 62, 0
15, 17960, Note_on_c, 12, 62, 32
15, 17960, Note_on_c, 12, 69, 32
15, 17993, Note_on_c, 12, 62, 0
15, 17993, Note_on_c, 12, 69, 0
15, 18000, Note_on_c, 12, 69, 32
15, 18000, Note_on_c, 12, 62, 32
15, 18033, Note_on_c, 12, 69, 0
15, 18033, Note_on_c, 12, 62, 0
15, 18040, Note_on_c, 12, 62, 32
15, 18040, Note_on_c, 12, 69, 32
15, 18073, Note_on_c, 12, 62, 0
15, 18073, Note_on_c, 12, 69, 0
15, 18080, Note_on_c, 12, 69, 32
15, 18080, Note_on_c, 12, 62, 32
15, 18113, Note_on_c, 12, 69, 0
15, 18113, Note_on_c, 12, 62, 0
15, 18120, Note_on_c, 12, 62, 32
15, 18120, Note_on_c, 12, 69, 32
15, 18153, Note_on_c, 12, 62, 0
15, 18153, Note_on_c, 12, 69, 0
15, 18160, Note_on_c, 12, 62, 32
15, 18160, Note_on_c, 12, 69, 32
15, 18193, Note_on_c, 12, 62, 0
15, 18193, Note_on_c, 12, 69, 0
15, 18200, Note_on_c, 12, 69, 32
15, 18200, Note_on_c, 12, 62, 32
15, 18233, Note_on_c, 12, 69, 0
15, 18233, Note_on_c, 12, 62, 0
15, 18240, Note_on_c, 12, 62, 32
15, 18240, Note_on_c, 12, 69, 32
15, 18273, Note_on_c, 12, 62, 0
15, 18273, Note_on_c, 12, 69, 0
15, 18280, Note_on_c, 12, 62, 32
15, 18280, Note_on_c, 12, 69, 32
15, 18313, Note_on_c, 12, 62, 0
15, 18313, Note_on_c, 12, 69, 0
15, 18320, Note_on_c, 12, 62, 32
15, 18320, Note_on_c, 12, 69, 32
15, 18353, Note_on_c, 12, 62, 0
15, 18353, Note_on_c, 12, 69, 0
15, 18360, Note_on_c, 12, 69, 32
15, 18360, Note_on_c, 12, 62, 32
15, 18393, Note_on_c, 12, 69, 0
15, 18393, Note_on_c, 12, 62, 0
15, 18400, Note_on_c, 12, 69, 32
15, 18400, Note_on_c, 12, 62, 32
15, 18433, Note_on_c, 12, 69, 0
15, 18433, Note_on_c, 12, 62, 0
15, 18440, Note_on_c, 12, 62, 32
15, 18440, Note_on_c, 12, 69, 32
15, 18473, Note_on_c, 12, 62, 0
15, 18473, Note_on_c, 12, 69, 0
15, 18480, Note_on_c, 12, 69, 32
15, 18480, Note_on_c, 12, 62, 32
15, 18513, Note_on_c, 12, 69, 0
15, 18513, Note_on_c, 12, 62, 0
15, 18520, Note_on_c, 12, 62, 32
15, 18520, Note_on_c, 12, 69, 32
15, 18553, Note_on_c, 12, 62, 0
15, 18553, Note_on_c, 12, 69, 0
15, 18560, Note_on_c, 12, 62, 32
15, 18560, Note_on_c, 12, 69, 32
15, 18593, Note_on_c, 12, 62, 0
15, 18593, Note_on_c, 12, 69, 0
15, 18600, Note_on_c, 12, 69, 32
15, 18600, Note_on_c, 12, 62, 32
15, 18633, Note_on_c, 12, 69, 0
15, 18633, Note_on_c, 12, 62, 0
15, 18640, Note_on_c, 12, 69, 32
15, 18640, Note_on_c, 12, 62, 32
15, 18673, Note_on_c, 12, 69, 0
15, 18673, Note_on_c, 12, 62, 0
15, 18680, Note_on_c, 12, 69, 32
15, 18680, Note_on_c, 12, 62, 32
15, 18713, Note_on_c, 12, 69, 0
15, 18713, Note_on_c, 12, 62, 0
15, 18720, Note_on_c, 12, 69, 32
15, 18720, Note_on_c, 12, 62, 32
15, 18753, Note_on_c, 12, 69, 0
15, 18753, Note_on_c, 12, 62, 0
15, 18760, Note_on_c, 12, 62, 32
15, 18760, Note_on_c, 12, 69, 32
15, 18793, Note_on_c, 12, 62, 0
15, 18793, Note_on_c, 12, 69, 0
15, 18800, Note_on_c, 12, 62, 32
15, 18800, Note_on_c, 12, 69, 32
15, 18833, Note_on_c, 12, 62, 0
15, 18833, Note_on_c, 12, 69, 0
15, 18840, Note_on_c, 12, 62, 32
15, 18840, Note_on_c, 12, 69, 32
15, 18873, Note_on_c, 12, 62, 0
15, 18873, Note_on_c, 12, 69, 0
15, 18880, Note_on_c, 12, 62, 32
15, 18880, Note_on_c, 12, 69, 32
15, 18913, Note_on_c, 12, 62, 0
15, 18913, Note_on_c, 12, 69, 0
15, 18920, Note_on_c, 12, 62, 32
15, 18920, Note_on_c, 12, 69, 32
15, 18953, Note_on_c, 12, 62, 0
15, 18953, Note_on_c, 12, 69, 0
15, 18960, Note_on_c, 12, 69, 32
15, 18960, Note_on_c, 12, 62, 32
15, 18993, Note_on_c, 12, 69, 0
15, 18993, Note_on_c, 12, 62, 0
15, 19000, Note_on_c, 12, 69, 32
15, 19000, Note_on_c, 12, 62, 32
15, 19033, Note_on_c, 12, 69, 0
15, 19033, Note_on_c, 12, 62, 0
15, 19040, Note_on_c, 12, 69, 32
15, 19040, Note_on_c, 12, 62, 32
15, 19073, Note_on_c, 12, 69, 0
15, 19073, Note_on_c, 12, 62, 0
15, 19080, Note_on_c, 12, 69, 32
15, 19080, Note_on_c, 12, 62, 32
15, 19113, Note_on_c, 12, 69, 0
15, 19113, Note_on_c, 12, 62, 0
15, 19120, Note_on_c, 12, 62, 32
15, 19120, Note_on_c, 12, 69, 32
15, 19153, Note_on_c, 12, 62, 0
15, 19153, Note_on_c, 12, 69, 0
15, 19160, Note_on_c, 12, 69, 32
15, 19160, Note_on_c, 12, 62, 32
15, 19193, Note_on_c, 12, 69, 0
15, 19193, Note_on_c, 12, 62, 0
15, 19200, Note_on_c, 12, 62, 32
15, 19200, Note_on_c, 12, 69, 32
15, 19233, Note_on_c, 12, 62, 0
15, 19233, Note_on_c, 12, 69, 0
15, 19240, Note_on_c, 12, 62, 32
15, 19240, Note_on_c, 12, 69, 32
15, 19273, Note_on_c, 12, 62, 0
15, 19273, Note_on_c, 12, 69, 0
15, 19280, Note_on_c, 12, 69, 32
15, 19280, Note_on_c, 12, 62, 32
15, 19313, Note_on_c, 12, 69, 0
15, 19313, Note_on_c, 12, 62, 0
15, 19320, Note_on_c, 12, 69, 32
15, 19320, Note_on_c, 12, 62, 32
15, 19353, Note_on_c, 12, 69, 0
15, 19353, Note_on_c, 12, 62, 0
15, 19360, Note_on_c, 12, 62, 32
15, 19360, Note_on_c, 12, 69, 32
15, 19393, Note_on_c, 12, 62, 0
15, 19393, Note_on_c, 12, 69, 0
15, 19400, Note_on_c, 12, 69, 32
15, 19400, Note_on_c, 12, 62, 32
15, 19433, Note_on_c, 12, 69, 0
15, 19433, Note_on_c, 12, 62, 0
15, 19440, Note_on_c, 12, 69, 32
15, 19440, Note_on_c, 12, 62, 32
15, 19473, Note_on_c, 12, 69, 0
15, 19473, Note_on_c, 12, 62, 0
15, 19480, Note_on_c, 12, 69, 32
15, 19480, Note_on_c, 12, 62, 32
15, 19513, Note_on_c, 12, 69, 0
15, 19513, Note_on_c, 12, 62, 0
15, 19520, Note_on_c, 12, 62, 32
15, 19520, Note_on_c, 12, 69, 32
15, 19553, Note_on_c, 12, 62, 0
15, 19553, Note_on_c, 12, 69, 0
15, 19560, Note_on_c, 12, 62, 32
15, 19560, Note_on_c, 12, 69, 32
15, 19593, Note_on_c, 12, 62, 0
15, 19593, Note_on_c, 12, 69, 0
15, 19600, Note_on_c, 12, 69, 32
15, 19600, Note_on_c, 12, 62, 32
15, 19633, Note_on_c, 12, 69, 0
15, 19633, Note_on_c, 12, 62, 0
15, 19640, Note_on_c, 12, 62, 32
15, 19640, Note_on_c, 12, 69, 32
15, 19673, Note_on_c, 12, 62, 0
15, 19673, Note_on_c, 12, 69, 0
15, 19680, Note_on_c, 12, 62, 32
15, 19680, Note_on_c, 12, 69, 32
15, 19713, Note_on_c, 12, 62, 0
15, 19713, Note_on_c, 12, 69, 0
15, 19720, Note_on_c, 12, 62, 32
15, 19720, Note_on_c, 12, 69, 32
15, 19753, Note_on_c, 12, 62, 0
15, 19753, Note_on_c, 12, 69, 0
15, 19760, Note_on_c, 12, 62, 32
15, 19760, Note_on_c, 12, 69, 32
15, 19793, Note_on_c, 12, 62, 0
15, 19793, Note_on_c, 12, 69, 0
15, 19800, Note_on_c, 12, 62, 32
15, 19800, Note_on_c, 12, 69, 32
15, 19833, Note_on_c, 12, 62, 0
15, 19833, Note_on_c, 12, 69, 0
15, 19840, Note_on_c, 12, 62, 32
15, 19840, Note_on_c, 12, 69, 32
15, 19873, Note_on_c, 12, 62, 0
15, 19873, Note_on_c, 12, 69, 0
15, 19880, Note_on_c, 12, 69, 32
15, 19880, Note_on_c, 12, 62, 32
15, 19913, Note_on_c, 12, 69, 0
15, 19913, Note_on_c, 12, 62, 0
15, 19920, Note_on_c, 12, 69, 32
15, 19920, Note_on_c, 12, 62, 32
15, 19953, Note_on_c, 12, 69, 0
15, 19953, Note_on_c, 12, 62, 0
15, 19960, Note_on_c, 12, 62, 32
15, 19960, Note_on_c, 12, 69, 32
15, 19993, Note_on_c, 12, 62, 0
15, 19993, Note_on_c, 12, 69, 0
15, 20000, Note_on_c, 12, 62, 32
15, 20000, Note_on_c, 12, 69, 32
15, 20033, Note_on_c, 12, 62, 0
15, 20033, Note_on_c, 12, 69, 0
15, 20040, Note_on_c, 12, 69, 32
15, 20040, Note_on_c, 12, 62, 32
15, 20073, Note_on_c, 12, 69, 0
15, 20073, Note_on_c, 12, 62, 0
15, 20080, Note_on_c, 12, 62, 32
15, 20080, Note_on_c, 12, 69, 32
15, 20113, Note_on_c, 12, 62, 0
15, 20113, Note_on_c, 12, 69, 0
15, 20120, Note_on_c, 12, 62, 32
15, 20120, Note_on_c, 12, 69, 32
15, 20153, Note_on_c, 12, 62, 0
15, 20153, Note_on_c, 12, 69, 0
15, 20160, Note_on_c, 12, 62, 32
15, 20160, Note_on_c, 12, 69, 32
15, 20193, Note_on_c, 12, 62, 0
15, 20193, Note_on_c, 12, 69, 0
15, 20200, Note_on_c, 12, 62, 32
15, 20200, Note_on_c, 12, 69, 32
15, 20233, Note_on_c, 12, 62, 0
15, 20233, Note_on_c, 12, 69, 0
15, 20240, Note_on_c, 12, 62, 32
15, 20240, Note_on_c, 12, 69, 32
15, 20273, Note_on_c, 12, 62, 0
15, 20273, Note_on_c, 12, 69, 0
15, 20280, Note_on_c, 12, 69, 32
15, 20280, Note_on_c, 12, 62, 32
15, 20313, Note_on_c, 12, 69, 0
15, 20313, Note_on_c, 12, 62, 0
15, 20320, Note_on_c, 12, 69, 32
15, 20320, Note_on_c, 12, 62, 32
15, 20353, Note_on_c, 12, 69, 0
15, 20353, Note_on_c, 12, 62, 0
15, 20360, Note_on_c, 12, 69, 32
15, 20360, Note_on_c, 12, 62, 32
15, 20393, Note_on_c, 12, 69, 0
15, 20393, Note_on_c, 12, 62, 0
15, 20400, Note_on_c, 12, 62, 32
15, 20400, Note_on_c, 12, 69, 32
15, 20433, Note_on_c, 12, 62, 0
15, 20433, Note_on_c, 12, 69, 0
15, 20440, Note_on_c, 12, 69, 32
15, 20440, Note_on_c, 12, 62, 32
15, 20473, Note_on_c, 12, 69, 0
15, 20473, Note_on_c, 12, 62, 0
15, 20480, Note_on_c, 12, 62, 32
15, 20480, Note_on_c, 12, 69, 32
15, 20513, Note_on_c, 12, 62, 0
15, 20513, Note_on_c, 12, 69, 0
15, 20520, Note_on_c, 12, 62, 32
15, 20520, Note_on_c, 12, 69, 32
15, 20553, Note_on_c, 12, 62, 0
15, 20553, Note_on_c, 12, 69, 0
15, 20560, Note_on_c, 12, 69, 32
15, 20560, Note_on_c, 12, 62, 32
15, 20593, Note_on_c, 12, 69, 0
15, 20593, Note_on_c, 12, 62, 0
15, 20600, Note_on_c, 12, 62, 32
15, 20600, Note_on_c, 12, 69, 32
15, 20633, Note_on_c, 12, 62, 0
15, 20633, Note_on_c, 12, 69, 0
15, 20640, Note_on_c, 12, 62, 32
15, 20640, Note_on_c, 12, 69, 32
15, 20673, Note_on_c, 12, 62, 0
15, 20673, Note_on_c, 12, 69, 0
15, 20680, Note_on_c, 12, 62, 32
15, 20680, Note_on_c, 12, 69, 32
15, 20713, Note_on_c, 12, 62, 0
15, 20713, Note_on_c, 12, 69, 0
15, 20720, Note_on_c, 12, 69, 32
15, 20720, Note_on_c, 12, 62, 32
15, 20753, Note_on_c, 12, 69, 0
15, 20753, Note_on_c, 12, 62, 0
15, 20760, Note_on_c, 12, 62, 32
15, 20760, Note_on_c, 12, 69, 32
15, 20793, Note_on_c, 12, 62, 0
15, 20793, Note_on_c, 12, 69, 0
15, 20800, Note_on_c, 12, 62, 32
15, 20800, Note_on_c, 12, 69, 32
15, 20833, Note_on_c, 12, 62, 0
15, 20833, Note_on_c, 12, 69, 0
15, 20840, Note_on_c, 12, 62, 32
15, 20840, Note_on_c, 12, 69, 32
15, 20873, Note_on_c, 12, 62, 0
15, 20873, Note_on_c, 12, 69, 0
15, 20880, Note_on_c, 12, 62, 32
15, 20880, Note_on_c, 12, 69, 32
15, 20913, Note_on_c, 12, 62, 0
15, 20913, Note_on_c, 12, 69, 0
15, 20920, Note_on_c, 12, 69, 32
15, 20920, Note_on_c, 12, 62, 32
15, 20953, Note_on_c, 12, 69, 0
15, 20953, Note_on_c, 12, 62, 0
15, 20960, Note_on_c, 12, 62, 32
15, 20960, Note_on_c, 12, 69, 32
15, 20993, Note_on_c, 12, 62, 0
15, 20993, Note_on_c, 12, 69, 0
15, 21000, Note_on_c, 12, 62, 32
15, 21000, Note_on_c, 12, 69, 32
15, 21033, Note_on_c, 12, 62, 0
15, 21033, Note_on_c, 12, 69, 0
15, 21040, Note_on_c, 12, 62, 32
15, 21040, Note_on_c, 12, 69, 32
15, 21073, Note_on_c, 12, 62, 0
15, 21073, Note_on_c, 12, 69, 0
15, 21080, Note_on_c, 12, 69, 32
15, 21080, Note_on_c, 12, 62, 32
15, 21113, Note_on_c, 12, 69, 0
15, 21113, Note_on_c, 12, 62, 0
15, 21120, Note_on_c, 12, 62, 32
15, 21120, Note_on_c, 12, 69, 32
15, 21153, Note_on_c, 12, 62, 0
15, 21153, Note_on_c, 12, 69, 0
15, 21160, Note_on_c, 12, 69, 32
15, 21160, Note_on_c, 12, 62, 32
15, 21193, Note_on_c, 12, 69, 0
15, 21193, Note_on_c, 12, 62, 0
15, 21200, Note_on_c, 12, 62, 34
15, 21200, Note_on_c, 12, 69, 34
15, 21233, Note_on_c, 12, 62, 0
15, 21233, Note_on_c, 12, 69, 0
15, 21240, Note_on_c, 12, 69, 34
15, 21240, Note_on_c, 12, 62, 34
15, 21273, Note_on_c, 12, 69, 0
15, 21273, Note_on_c, 12, 62, 0
15, 21280, Note_on_c, 12, 62, 35
15, 21280, Note_on_c, 12, 69, 35
15, 21313, Note_on_c, 12, 62, 0
15, 21313, Note_on_c, 12, 69, 0
15, 21320, Note_on_c, 12, 62, 35
15, 21320, Note_on_c, 12, 69, 35
15, 21353, Note_on_c, 12, 62, 0
15, 21353, Note_on_c, 12, 69, 0
15, 21360, Note_on_c, 12, 69, 37
15, 21360, Note_on_c, 12, 62, 37
15, 21393, Note_on_c, 12, 69, 0
15, 21393, Note_on_c, 12, 62, 0
15, 21400, Note_on_c, 12, 69, 37
15, 21400, Note_on_c, 12, 62, 37
15, 21433, Note_on_c, 12, 69, 0
15, 21433, Note_on_c, 12, 62, 0
15, 21440, Note_on_c, 12, 62, 38
15, 21440, Note_on_c, 12, 69, 38
15, 21473, Note_on_c, 12, 62, 0
15, 21473, Note_on_c, 12, 69, 0
15, 21480, Note_on_c, 12, 69, 40
15, 21480, Note_on_c, 12, 62, 40
15, 21513, Note_on_c, 12, 69, 0
15, 21513, Note_on_c, 12, 62, 0
15, 21520, Note_on_c, 12, 62, 40
15, 21520, Note_on_c, 12, 69, 40
15, 21553, Note_on_c, 12, 62, 0
15, 21553, Note_on_c, 12, 69, 0
15, 21560, Note_on_c, 12, 69, 41
15, 21560, Note_on_c, 12, 62, 41
15, 21593, Note_on_c, 12, 69, 0
15, 21593, Note_on_c, 12, 62, 0
15, 21600, Note_on_c, 12, 69, 41
15, 21600, Note_on_c, 12, 62, 41
15, 21633, Note_on_c, 12, 69, 0
15, 21633, Note_on_c, 12, 62, 0
15, 21640, Note_on_c, 12, 69, 43
15, 21640, Note_on_c, 12, 62, 43
15, 21673, Note_on_c, 12, 69, 0
15, 21673, Note_on_c, 12, 62, 0
15, 21680, Note_on_c, 12, 62, 43
15, 21680, Note_on_c, 12, 69, 43
15, 21713, Note_on_c, 12, 62, 0
15, 21713, Note_on_c, 12, 69, 0
15, 21720, Note_on_c, 12, 62, 44
15, 21720, Note_on_c, 12, 69, 44
15, 21753, Note_on_c, 12, 62, 0
15, 21753, Note_on_c, 12, 69, 0
15, 21760, Note_on_c, 12, 62, 44
15, 21760, Note_on_c, 12, 69, 44
15, 21793, Note_on_c, 12, 62, 0
15, 21793, Note_on_c, 12, 69, 0
15, 21800, Note_on_c, 12, 69, 46
15, 21800, Note_on_c, 12, 62, 46
15, 21833, Note_on_c, 12, 69, 0
15, 21833, Note_on_c, 12, 62, 0
15, 21840, Note_on_c, 12, 62, 47
15, 21840, Note_on_c, 12, 69, 47
15, 21873, Note_on_c, 12, 62, 0
15, 21873, Note_on_c, 12, 69, 0
15, 21880, Note_on_c, 12, 62, 47
15, 21880, Note_on_c, 12, 69, 47
15, 21913, Note_on_c, 12, 62, 0
15, 21913, Note_on_c, 12, 69, 0
15, 21920, Note_on_c, 12, 69, 49
15, 21920, Note_on_c, 12, 62, 49
15, 21953, Note_on_c, 12, 69, 0
15, 21953, Note_on_c, 12, 62, 0
15, 21960, Note_on_c, 12, 69, 49
15, 21960, Note_on_c, 12, 62, 49
15, 21993, Note_on_c, 12, 69, 0
15, 21993, Note_on_c, 12, 62, 0
15, 22000, Note_on_c, 12, 62, 50
15, 22000, Note_on_c, 12, 69, 50
15, 22033, Note_on_c, 12, 62, 0
15, 22033, Note_on_c, 12, 69, 0
15, 22040, Note_on_c, 12, 69, 50
15, 22040, Note_on_c, 12, 62, 50
15, 22073, Note_on_c, 12, 69, 0
15, 22073, Note_on_c, 12, 62, 0
15, 22080, Note_on_c, 12, 62, 52
15, 22080, Note_on_c, 12, 69, 52
15, 22113, Note_on_c, 12, 62, 0
15, 22113, Note_on_c, 12, 69, 0
15, 22120, Note_on_c, 12, 69, 52
15, 22120, Note_on_c, 12, 62, 52
15, 22153, Note_on_c, 12, 69, 0
15, 22153, Note_on_c, 12, 62, 0
15, 22160, Note_on_c, 12, 69, 53
15, 22160, Note_on_c, 12, 62, 53
15, 22193, Note_on_c, 12, 69, 0
15, 22193, Note_on_c, 12, 62, 0
15, 22200, Note_on_c, 12, 69, 55
15, 22200, Note_on_c, 12, 62, 55
15, 22233, Note_on_c, 12, 69, 0
15, 22233, Note_on_c, 12, 62, 0
15, 22240, Note_on_c, 12, 69, 55
15, 22240, Note_on_c, 12, 62, 55
15, 22273, Note_on_c, 12, 69, 0
15, 22273, Note_on_c, 12, 62, 0
15, 22280, Note_on_c, 12, 69, 56
15, 22280, Note_on_c, 12, 62, 56
15, 22313, Note_on_c, 12, 69, 0
15, 22313, Note_on_c, 12, 62, 0
15, 22320, Note_on_c, 12, 69, 56
15, 22320, Note_on_c, 12, 62, 56
15, 22353, Note_on_c, 12, 69, 0
15, 22353, Note_on_c, 12, 62, 0
15, 22360, Note_on_c, 12, 69, 58
15, 22360, Note_on_c, 12, 62, 58
15, 22393, Note_on_c, 12, 69, 0
15, 22393, Note_on_c, 12, 62, 0
15, 22400, Note_on_c, 12, 69, 58
15, 22400, Note_on_c, 12, 62, 58
15, 22433, Note_on_c, 12, 69, 0
15, 22433, Note_on_c, 12, 62, 0
15, 22440, Note_on_c, 12, 69, 59
15, 22440, Note_on_c, 12, 62, 59
15, 22473, Note_on_c, 12, 69, 0
15, 22473, Note_on_c, 12, 62, 0
15, 22480, Note_on_c, 12, 69, 59
15, 22480, Note_on_c, 12, 62, 59
15, 22513, Note_on_c, 12, 69, 0
15, 22513, Note_on_c, 12, 62, 0
15, 22520, Note_on_c, 12, 62, 61
15, 22520, Note_on_c, 12, 69, 61
15, 22553, Note_on_c, 12, 62, 0
15, 22553, Note_on_c, 12, 69, 0
15, 22560, Note_on_c, 12, 62, 62
15, 22560, Note_on_c, 12, 69, 62
15, 22593, Note_on_c, 12, 62, 0
15, 22593, Note_on_c, 12, 69, 0
15, 22600, Note_on_c, 12, 62, 62
15, 22600, Note_on_c, 12, 69, 62
15, 22633, Note_on_c, 12, 62, 0
15, 22633, Note_on_c, 12, 69, 0
15, 22640, Note_on_c, 12, 69, 64
15, 22640, Note_on_c, 12, 62, 64
15, 22673, Note_on_c, 12, 69, 0
15, 22673, Note_on_c, 12, 62, 0
15, 22680, Note_on_c, 12, 69, 64
15, 22680, Note_on_c, 12, 62, 64
15, 22713, Note_on_c, 12, 69, 0
15, 22713, Note_on_c, 12, 62, 0
15, 22720, Note_on_c, 12, 69, 65
15, 22720, Note_on_c, 12, 62, 65
15, 22753, Note_on_c, 12, 69, 0
15, 22753, Note_on_c, 12, 62, 0
15, 22760, Note_on_c, 12, 69, 65
15, 22760, Note_on_c, 12, 62, 65
15, 22793, Note_on_c, 12, 69, 0
15, 22793, Note_on_c, 12, 62, 0
15, 22800, Note_on_c, 12, 62, 67
15, 22800, Note_on_c, 12, 69, 67
15, 22833, Note_on_c, 12, 62, 0
15, 22833, Note_on_c, 12, 69, 0
15, 22840, Note_on_c, 12, 69, 67
15, 22840, Note_on_c, 12, 62, 67
15, 22873, Note_on_c, 12, 69, 0
15, 22873, Note_on_c, 12, 62, 0
15, 22880, Note_on_c, 12, 69, 68
15, 22880, Note_on_c, 12, 62, 68
15, 22913, Note_on_c, 12, 69, 0
15, 22913, Note_on_c, 12, 62, 0
15, 22920, Note_on_c, 12, 62, 69
15, 22920, Note_on_c, 12, 74, 69
15, 22953, Note_on_c, 12, 62, 0
15, 22953, Note_on_c, 12, 74, 0
15, 22960, Note_on_c, 12, 74, 69
15, 22960, Note_on_c, 12, 62, 69
15, 22993, Note_on_c, 12, 74, 0
15, 22993, Note_on_c, 12, 62, 0
15, 23000, Note_on_c, 12, 62, 71
15, 23000, Note_on_c, 12, 74, 71
15, 23033, Note_on_c, 12, 62, 0
15, 23033, Note_on_c, 12, 74, 0
15, 23040, Note_on_c, 12, 74, 71
15, 23040, Note_on_c, 12, 62, 71
15, 23073, Note_on_c, 12, 74, 0
15, 23073, Note_on_c, 12, 62, 0
15, 23080, Note_on_c, 12, 62, 72
15, 23080, Note_on_c, 12, 74, 72
15, 23113, Note_on_c, 12, 62, 0
15, 23113, Note_on_c, 12, 74, 0
15, 23120, Note_on_c, 12, 62, 72
15, 23120, Note_on_c, 12, 74, 72
15, 23153, Note_on_c, 12, 62, 0
15, 23153, Note_on_c, 12, 74, 0
15, 23160, Note_on_c, 12, 62, 74
15, 23160, Note_on_c, 12, 74, 74
15, 23193, Note_on_c, 12, 62, 0
15, 23193, Note_on_c, 12, 74, 0
15, 23200, Note_on_c, 12, 74, 74
15, 23200, Note_on_c, 12, 62, 74
15, 23233, Note_on_c, 12, 74, 0
15, 23233, Note_on_c, 12, 62, 0
15, 23240, Note_on_c, 12, 62, 75
15, 23240, Note_on_c, 12, 74, 75
15, 23273, Note_on_c, 12, 62, 0
15, 23273, Note_on_c, 12, 74, 0
15, 23280, Note_on_c, 12, 74, 77
15, 23280, Note_on_c, 12, 62, 77
15, 23313, Note_on_c, 12, 74, 0
15, 23313, Note_on_c, 12, 62, 0
15, 23320, Note_on_c, 12, 74, 77
15, 23320, Note_on_c, 12, 62, 77
15, 23353, Note_on_c, 12, 74, 0
15, 23353, Note_on_c, 12, 62, 0
15, 23360, Note_on_c, 12, 74, 78
15, 23360, Note_on_c, 12, 62, 78
15, 23393, Note_on_c, 12, 74, 0
15, 23393, Note_on_c, 12, 62, 0
15, 23400, Note_on_c, 12, 62, 78
15, 23400, Note_on_c, 12, 74, 78
15, 23433, Note_on_c, 12, 62, 0
15, 23433, Note_on_c, 12, 74, 0
15, 23440, Note_on_c, 12, 74, 80
15, 23440, Note_on_c, 12, 62, 80
15, 23473, Note_on_c, 12, 74, 0
15, 23473, Note_on_c, 12, 62, 0
15, 23480, Note_on_c, 12, 62, 80
15, 23480, Note_on_c, 12, 74, 80
15, 23513, Note_on_c, 12, 62, 0
15, 23513, Note_on_c, 12, 74, 0
15, 23520, Note_on_c, 12, 62, 81
15, 23520, Note_on_c, 12, 74, 81
15, 23553, Note_on_c, 12, 62, 0
15, 23553, Note_on_c, 12, 74, 0
15, 23560, Note_on_c, 12, 74, 81
15, 23560, Note_on_c, 12, 62, 81
15, 23593, Note_on_c, 12, 74, 0
15, 23593, Note_on_c, 12, 62, 0
15, 23600, Note_on_c, 12, 62, 83
15, 23600, Note_on_c, 12, 74, 83
15, 23633, Note_on_c, 12, 62, 0
15, 23633, Note_on_c, 12, 74, 0
15, 23640, Note_on_c, 12, 74, 84
15, 23640, Note_on_c, 12, 62, 84
15, 23673, Note_on_c, 12, 74, 0
15, 23673, Note_on_c, 12, 62, 0
15, 23680, Note_on_c, 12, 74, 84
15, 23680, Note_on_c, 12, 62, 84
15, 23713, Note_on_c, 12, 74, 0
15, 23713, Note_on_c, 12, 62, 0
15, 23720, Note_on_c, 12, 62, 86
15, 23720, Note_on_c, 12, 74, 86
15, 23753, Note_on_c, 12, 62, 0
15, 23753, Note_on_c, 12, 74, 0
15, 23760, Note_on_c, 12, 74, 86
15, 23760, Note_on_c, 12, 62, 86
15, 23793, Note_on_c, 12, 74, 0
15, 23793, Note_on_c, 12, 62, 0
15, 23800, Note_on_c, 12, 74, 87
15, 23800, Note_on_c, 12, 62, 87
15, 23833, Note_on_c, 12, 74, 0
15, 23833, Note_on_c, 12, 62, 0
15, 23840, Note_on_c, 12, 74, 87
15, 23840, Note_on_c, 12, 62, 87
15, 23873, Note_on_c, 12, 74, 0
15, 23873, Note_on_c, 12, 62, 0
15, 23880, Note_on_c, 12, 62, 89
15, 23880, Note_on_c, 12, 74, 89
15, 23939, Note_on_c, 12, 62, 0
15, 23939, Note_on_c, 12, 74, 0
15, 23970, Note_on_c, 12, 82, 92
15, 23991, Note_on_c, 12, 82, 0
15, 24000, Note_on_c, 12, 77, 92
15, 24441, Note_on_c, 12, 77, 0
15, 24450, Note_on_c, 12, 74, 92
15, 24471, Note_on_c, 12, 74, 0
15, 24480, Note_on_c, 12, 70, 92
15, 24681, Note_on_c, 12, 70, 0
15, 24690, Note_on_c, 12, 65, 92
15, 24711, Note_on_c, 12, 65, 0
15, 24720, Note_on_c, 12, 62, 92
15, 24891, Note_on_c, 12, 62, 0
15, 24900, Note_on_c, 12, 65, 92
15, 24929, Note_on_c, 12, 65, 0
15, 24930, Note_on_c, 12, 62, 92
15, 24951, Note_on_c, 12, 62, 0
15, 24960, Note_on_c, 12, 58, 92
15, 25251, Note_on_c, 12, 58, 0
15, 25260, Note_on_c, 12, 74, 92
15, 25304, Note_on_c, 12, 74, 0
15, 25320, Note_on_c, 12, 72, 92
15, 25364, Note_on_c, 12, 72, 0
15, 25380, Note_on_c, 12, 70, 92
15, 25424, Note_on_c, 12, 70, 0
15, 25440, Note_on_c, 12, 77, 92
15, 25529, Note_on_c, 12, 77, 0
15, 25560, Note_on_c, 12, 75, 92
15, 25649, Note_on_c, 12, 75, 0
15, 25680, Note_on_c, 12, 72, 92
15, 25769, Note_on_c, 12, 72, 0
15, 25800, Note_on_c, 12, 77, 92
15, 25889, Note_on_c, 12, 77, 0
15, 25920, Note_on_c, 12, 62, 104
15, 25920, Note_on_c, 12, 74, 104
15, 26039, Note_on_c, 12, 62, 0
15, 26039, Note_on_c, 12, 74, 0
15, 26220, Note_on_c, 12, 77, 92
15, 26264, Note_on_c, 12, 77, 0
15, 26280, Note_on_c, 12, 75, 92
15, 26324, Note_on_c, 12, 75, 0
15, 26340, Note_on_c, 12, 74, 92
15, 26384, Note_on_c, 12, 74, 0
15, 26400, Note_on_c, 12, 82, 104
15, 26519, Note_on_c, 12, 82, 0
15, 26880, Note_on_c, 12, 64, 104
15, 26880, Note_on_c, 12, 76, 104
15, 26999, Note_on_c, 12, 64, 0
15, 26999, Note_on_c, 12, 76, 0
15, 27180, Note_on_c, 12, 79, 92
15, 27224, Note_on_c, 12, 79, 0
15, 27240, Note_on_c, 12, 77, 92
15, 27284, Note_on_c, 12, 77, 0
15, 27300, Note_on_c, 12, 76, 92
15, 27344, Note_on_c, 12, 76, 0
15, 27360, Note_on_c, 12, 85, 104
15, 27479, Note_on_c, 12, 85, 0
15, 27840, Note_on_c, 12, 77, 104
15, 27959, Note_on_c, 12, 77, 0
15, 28140, Note_on_c, 12, 81, 92
15, 28184, Note_on_c, 12, 81, 0
15, 28200, Note_on_c, 12, 79, 92
15, 28244, Note_on_c, 12, 79, 0
15, 28260, Note_on_c, 12, 77, 92
15, 28304, Note_on_c, 12, 77, 0
15, 28320, Note_on_c, 12, 86, 104
15, 28439, Note_on_c, 12, 86, 0
15, 28620, Note_on_c, 12, 81, 92
15, 28664, Note_on_c, 12, 81, 0
15, 28680, Note_on_c, 12, 79, 92
15, 28724, Note_on_c, 12, 79, 0
15, 28740, Note_on_c, 12, 78, 92
15, 28784, Note_on_c, 12, 78, 0
15, 28800, Note_on_c, 12, 86, 104
15, 28919, Note_on_c, 12, 86, 0
15, 29100, Note_on_c, 12, 82, 92
15, 29144, Note_on_c, 12, 82, 0
15, 29160, Note_on_c, 12, 81, 92
15, 29204, Note_on_c, 12, 81, 0
15, 29220, Note_on_c, 12, 79, 92
15, 29264, Note_on_c, 12, 79, 0
15, 29280, Note_on_c, 12, 86, 104
15, 29324, Note_on_c, 12, 86, 0
15, 29340, Note_on_c, 12, 58, 92
15, 29384, Note_on_c, 12, 58, 0
15, 29400, Note_on_c, 12, 57, 92
15, 29444, Note_on_c, 12, 57, 0
15, 29460, Note_on_c, 12, 55, 92
15, 29504, Note_on_c, 12, 55, 0
15, 29520, Note_on_c, 12, 65, 104
15, 29564, Note_on_c, 12, 65, 0
15, 29580, Note_on_c, 12, 65, 92
15, 29624, Note_on_c, 12, 65, 0
15, 29640, Note_on_c, 12, 64, 92
15, 29684, Note_on_c, 12, 64, 0
15, 29700, Note_on_c, 12, 62, 92
15, 29744, Note_on_c, 12, 62, 0
15, 29760, Note_on_c, 12, 69, 92
15, 29760, Note_on_c, 12, 81, 92
15, 29811, Note_on_c, 12, 69, 0
15, 29811, Note_on_c, 12, 81, 0
15, 29820, Note_on_c, 12, 57, 92
15, 29879, Note_on_c, 12, 57, 0
15, 29880, Note_on_c, 12, 58, 92
15, 29931, Note_on_c, 12, 58, 0
15, 29940, Note_on_c, 12, 57, 92
15, 29999, Note_on_c, 12, 57, 0
15, 30000, Note_on_c, 12, 58, 92
15, 30051, Note_on_c, 12, 58, 0
15, 30060, Note_on_c, 12, 57, 92
15, 30119, Note_on_c, 12, 57, 0
15, 30120, Note_on_c, 12, 58, 92
15, 30171, Note_on_c, 12, 58, 0
15, 30180, Note_on_c, 12, 57, 92
15, 30239, Note_on_c, 12, 57, 0
15, 30240, Note_on_c, 12, 64, 92
15, 30291, Note_on_c, 12, 64, 0
15, 30300, Note_on_c, 12, 57, 92
15, 30359, Note_on_c, 12, 57, 0
15, 30360, Note_on_c, 12, 65, 92
15, 30411, Note_on_c, 12, 65, 0
15, 30420, Note_on_c, 12, 57, 92
15, 30479, Note_on_c, 12, 57, 0
15, 30480, Note_on_c, 12, 67, 92
15, 30531, Note_on_c, 12, 67, 0
15, 30540, Note_on_c, 12, 57, 92
15, 30599, Note_on_c, 12, 57, 0
15, 30600, Note_on_c, 12, 69, 92
15, 30651, Note_on_c, 12, 69, 0
15, 30660, Note_on_c, 12, 57, 92
15, 30719, Note_on_c, 12, 57, 0
15, 30720, Note_on_c, 12, 70, 92
15, 30771, Note_on_c, 12, 70, 0
15, 30780, Note_on_c, 12, 57, 92
15, 30839, Note_on_c, 12, 57, 0
15, 30840, Note_on_c, 12, 69, 92
15, 30891, Note_on_c, 12, 69, 0
15, 30900, Note_on_c, 12, 57, 92
15, 30959, Note_on_c, 12, 57, 0
15, 30960, Note_on_c, 12, 67, 92
15, 31011, Note_on_c, 12, 67, 0
15, 31020, Note_on_c, 12, 57, 92
15, 31079, Note_on_c, 12, 57, 0
15, 31080, Note_on_c, 12, 65, 92
15, 31131, Note_on_c, 12, 65, 0
15, 31140, Note_on_c, 12, 57, 92
15, 31199, Note_on_c, 12, 57, 0
15, 31200, Note_on_c, 12, 64, 92
15, 31251, Note_on_c, 12, 64, 0
15, 31260, Note_on_c, 12, 57, 92
15, 31319, Note_on_c, 12, 57, 0
15, 31320, Note_on_c, 12, 58, 92
15, 31371, Note_on_c, 12, 58, 0
15, 31380, Note_on_c, 12, 57, 92
15, 31439, Note_on_c, 12, 57, 0
15, 31440, Note_on_c, 12, 62, 92
15, 31491, Note_on_c, 12, 62, 0
15, 31500, Note_on_c, 12, 57, 92
15, 31559, Note_on_c, 12, 57, 0
15, 31560, Note_on_c, 12, 58, 92
15, 31611, Note_on_c, 12, 58, 0
15, 31620, Note_on_c, 12, 57, 92
15, 31671, Note_on_c, 12, 57, 0
15, 31680, Note_on_c, 12, 76, 104
15, 31680, Note_on_c, 12, 73, 104
15, 31799, Note_on_c, 12, 76, 0
15, 31799, Note_on_c, 12, 73, 0
15, 32160, Note_on_c, 12, 57, 92
15, 32211, Note_on_c, 12, 57, 0
15, 32220, Note_on_c, 12, 69, 92
15, 32279, Note_on_c, 12, 69, 0
15, 32280, Note_on_c, 12, 70, 92
15, 32331, Note_on_c, 12, 70, 0
15, 32340, Note_on_c, 12, 69, 92
15, 32399, Note_on_c, 12, 69, 0
15, 32400, Note_on_c, 12, 70, 92
15, 32451, Note_on_c, 12, 70, 0
15, 32460, Note_on_c, 12, 69, 92
15, 32519, Note_on_c, 12, 69, 0
15, 32520, Note_on_c, 12, 70, 92
15, 32571, Note_on_c, 12, 70, 0
15, 32580, Note_on_c, 12, 69, 92
15, 32639, Note_on_c, 12, 69, 0
15, 32640, Note_on_c, 12, 67, 92
15, 32691, Note_on_c, 12, 67, 0
15, 32700, Note_on_c, 12, 69, 92
15, 32759, Note_on_c, 12, 69, 0
15, 32760, Note_on_c, 12, 65, 92
15, 32811, Note_on_c, 12, 65, 0
15, 32820, Note_on_c, 12, 69, 92
15, 32879, Note_on_c, 12, 69, 0
15, 32880, Note_on_c, 12, 64, 92
15, 32931, Note_on_c, 12, 64, 0
15, 32940, Note_on_c, 12, 69, 92
15, 32991, Note_on_c, 12, 69, 0
15, 33000, Note_on_c, 12, 62, 92
15, 33051, Note_on_c, 12, 62, 0
15, 33060, Note_on_c, 12, 69, 92
15, 33119, Note_on_c, 12, 69, 0
15, 33120, Note_on_c, 12, 61, 92
15, 33171, Note_on_c, 12, 61, 0
15, 33180, Note_on_c, 12, 58, 92
15, 33239, Note_on_c, 12, 58, 0
15, 33240, Note_on_c, 12, 55, 92
15, 33291, Note_on_c, 12, 55, 0
15, 33300, Note_on_c, 12, 58, 92
15, 33359, Note_on_c, 12, 58, 0
15, 33360, Note_on_c, 12, 55, 92
15, 33411, Note_on_c, 12, 55, 0
15, 33420, Note_on_c, 12, 58, 92
15, 33479, Note_on_c, 12, 58, 0
15, 33480, Note_on_c, 12, 55, 92
15, 33531, Note_on_c, 12, 55, 0
15, 33540, Note_on_c, 12, 58, 92
15, 33599, Note_on_c, 12, 58, 0
15, 33600, Note_on_c, 12, 67, 92
15, 33651, Note_on_c, 12, 67, 0
15, 33660, Note_on_c, 12, 58, 92
15, 33719, Note_on_c, 12, 58, 0
15, 33720, Note_on_c, 12, 67, 92
15, 33771, Note_on_c, 12, 67, 0
15, 33780, Note_on_c, 12, 58, 92
15, 33839, Note_on_c, 12, 58, 0
15, 33840, Note_on_c, 12, 65, 92
15, 33891, Note_on_c, 12, 65, 0
15, 33900, Note_on_c, 12, 58, 92
15, 33959, Note_on_c, 12, 58, 0
15, 33960, Note_on_c, 12, 65, 92
15, 34011, Note_on_c, 12, 65, 0
15, 34020, Note_on_c, 12, 58, 92
15, 34079, Note_on_c, 12, 58, 0
15, 34080, Note_on_c, 12, 67, 92
15, 34131, Note_on_c, 12, 67, 0
15, 34140, Note_on_c, 12, 64, 92
15, 34199, Note_on_c, 12, 64, 0
15, 34200, Note_on_c, 12, 67, 92
15, 34251, Note_on_c, 12, 67, 0
15, 34260, Note_on_c, 12, 64, 92
15, 34319, Note_on_c, 12, 64, 0
15, 34320, Note_on_c, 12, 72, 92
15, 34371, Note_on_c, 12, 72, 0
15, 34380, Note_on_c, 12, 64, 92
15, 34439, Note_on_c, 12, 64, 0
15, 34440, Note_on_c, 12, 72, 92
15, 34491, Note_on_c, 12, 72, 0
15, 34500, Note_on_c, 12, 64, 92
15, 34559, Note_on_c, 12, 64, 0
15, 34560, Note_on_c, 12, 72, 92
15, 34611, Note_on_c, 12, 72, 0
15, 34620, Note_on_c, 12, 63, 86
15, 34679, Note_on_c, 12, 63, 0
15, 34680, Note_on_c, 12, 75, 80
15, 34731, Note_on_c, 12, 75, 0
15, 34740, Note_on_c, 12, 72, 74
15, 34799, Note_on_c, 12, 72, 0
15, 34800, Note_on_c, 12, 75, 68
15, 34851, Note_on_c, 12, 75, 0
15, 34860, Note_on_c, 12, 72, 62
15, 34919, Note_on_c, 12, 72, 0
15, 34920, Note_on_c, 12, 75, 56
15, 34971, Note_on_c, 12, 75, 0
15, 34980, Note_on_c, 12, 72, 50
15, 35031, Note_on_c, 12, 72, 0
15, 35040, Note_on_c, 12, 75, 44
15, 35144, Note_on_c, 12, 75, 0
15, 35160, Note_on_c, 12, 60, 44
15, 35211, Note_on_c, 12, 60, 0
15, 35220, Note_on_c, 12, 60, 44
15, 35271, Note_on_c, 12, 60, 0
15, 35280, Note_on_c, 12, 60, 44
15, 35399, Note_on_c, 12, 60, 0
15, 36120, Note_on_c, 12, 58, 44
15, 36171, Note_on_c, 12, 58, 0
15, 36180, Note_on_c, 12, 58, 44
15, 36231, Note_on_c, 12, 58, 0
15, 36240, Note_on_c, 12, 58, 44
15, 36359, Note_on_c, 12, 58, 0
15, 37080, Note_on_c, 12, 60, 44
15, 37131, Note_on_c, 12, 60, 0
15, 37140, Note_on_c, 12, 60, 44
15, 37191, Note_on_c, 12, 60, 0
15, 37200, Note_on_c, 12, 60, 44
15, 37319, Note_on_c, 12, 60, 0
15, 37800, Note_on_c, 12, 57, 44
15, 37971, Note_on_c, 12, 57, 0
15, 37980, Note_on_c, 12, 58, 44
15, 38024, Note_on_c, 12, 58, 0
15, 38040, Note_on_c, 12, 61, 44
15, 38084, Note_on_c, 12, 61, 0
15, 38100, Note_on_c, 12, 62, 44
15, 38144, Note_on_c, 12, 62, 0
15, 38160, Note_on_c, 12, 65, 44
15, 38279, Note_on_c, 12, 65, 0
15, 38400, Note_on_c, 12, 61, 44
15, 38444, Note_on_c, 12, 61, 0
15, 38460, Note_on_c, 12, 62, 44
15, 38504, Note_on_c, 12, 62, 0
15, 38520, Note_on_c, 12, 65, 44
15, 38564, Note_on_c, 12, 65, 0
15, 38580, Note_on_c, 12, 69, 44
15, 38624, Note_on_c, 12, 69, 0
15, 38640, Note_on_c, 12, 70, 44
15, 38759, Note_on_c, 12, 70, 0
15, 38880, Note_on_c, 12, 60, 44
15, 38924, Note_on_c, 12, 60, 0
15, 38940, Note_on_c, 12, 65, 44
15, 38984, Note_on_c, 12, 65, 0
15, 39000, Note_on_c, 12, 69, 44
15, 39044, Note_on_c, 12, 69, 0
15, 39060, Note_on_c, 12, 71, 44
15, 39104, Note_on_c, 12, 71, 0
15, 39120, Note_on_c, 12, 72, 44
15, 39239, Note_on_c, 12, 72, 0
15, 39360, Note_on_c, 12, 63, 44
15, 39404, Note_on_c, 12, 63, 0
15, 39420, Note_on_c, 12, 65, 44
15, 39464, Note_on_c, 12, 65, 0
15, 39480, Note_on_c, 12, 69, 44
15, 39524, Note_on_c, 12, 69, 0
15, 39540, Note_on_c, 12, 72, 44
15, 39584, Note_on_c, 12, 72, 0
15, 39600, Note_on_c, 12, 75, 44
15, 39719, Note_on_c, 12, 75, 0
15, 40080, Note_on_c, 12, 62, 50
15, 40124, Note_on_c, 12, 62, 0
15, 40140, Note_on_c, 12, 65, 51
15, 40184, Note_on_c, 12, 65, 0
15, 40200, Note_on_c, 12, 69, 53
15, 40244, Note_on_c, 12, 69, 0
15, 40260, Note_on_c, 12, 70, 54
15, 40304, Note_on_c, 12, 70, 0
15, 40320, Note_on_c, 12, 74, 56
15, 40439, Note_on_c, 12, 74, 0
15, 40560, Note_on_c, 12, 62, 62
15, 40604, Note_on_c, 12, 62, 0
15, 40620, Note_on_c, 12, 65, 63
15, 40664, Note_on_c, 12, 65, 0
15, 40680, Note_on_c, 12, 69, 65
15, 40724, Note_on_c, 12, 69, 0
15, 40740, Note_on_c, 12, 70, 66
15, 40784, Note_on_c, 12, 70, 0
15, 40800, Note_on_c, 12, 72, 68
15, 40919, Note_on_c, 12, 72, 0
15, 41040, Note_on_c, 12, 60, 62
15, 41084, Note_on_c, 12, 60, 0
15, 41100, Note_on_c, 12, 63, 61
15, 41144, Note_on_c, 12, 63, 0
15, 41160, Note_on_c, 12, 65, 59
15, 41204, Note_on_c, 12, 65, 0
15, 41220, Note_on_c, 12, 69, 58
15, 41264, Note_on_c, 12, 69, 0
15, 41280, Note_on_c, 12, 72, 56
15, 41399, Note_on_c, 12, 72, 0
15, 41520, Note_on_c, 12, 60, 50
15, 41564, Note_on_c, 12, 60, 0
15, 41580, Note_on_c, 12, 65, 49
15, 41624, Note_on_c, 12, 65, 0
15, 41640, Note_on_c, 12, 65, 47
15, 41684, Note_on_c, 12, 65, 0
15, 41700, Note_on_c, 12, 65, 46
15, 41744, Note_on_c, 12, 65, 0
15, 41760, Note_on_c, 12, 65, 44
15, 41804, Note_on_c, 12, 65, 0
15, 41820, Note_on_c, 12, 70, 44
15, 41879, Note_on_c, 12, 70, 0
15, 41880, Note_on_c, 12, 76, 44
15, 41939, Note_on_c, 12, 76, 0
15, 41940, Note_on_c, 12, 70, 44
15, 41999, Note_on_c, 12, 70, 0
15, 42000, Note_on_c, 12, 77, 44
15, 42119, Note_on_c, 12, 77, 0
15, 42780, Note_on_c, 12, 67, 44
15, 42839, Note_on_c, 12, 67, 0
15, 42840, Note_on_c, 12, 73, 44
15, 42899, Note_on_c, 12, 73, 0
15, 42900, Note_on_c, 12, 67, 44
15, 42959, Note_on_c, 12, 67, 0
15, 42960, Note_on_c, 12, 74, 44
15, 43079, Note_on_c, 12, 74, 0
15, 43440, Control_c, 12, 11, 67
15, 43680, Note_on_c, 12, 70, 80
15, 43707, Control_c, 12, 11, 69
15, 43733, Control_c, 12, 11, 70
15, 43760, Control_c, 12, 11, 72
15, 43787, Control_c, 12, 11, 74
15, 43813, Control_c, 12, 11, 75
15, 43840, Control_c, 12, 11, 77
15, 43867, Control_c, 12, 11, 79
15, 43893, Control_c, 12, 11, 80
15, 43920, Control_c, 12, 11, 82
15, 43947, Control_c, 12, 11, 84
15, 43973, Control_c, 12, 11, 85
15, 44000, Control_c, 12, 11, 87
15, 44027, Control_c, 12, 11, 89
15, 44039, Note_on_c, 12, 70, 0
15, 44040, Note_on_c, 12, 69, 80
15, 44053, Control_c, 12, 11, 90
15, 44080, Control_c, 12, 11, 92
15, 44107, Control_c, 12, 11, 94
15, 44133, Control_c, 12, 11, 95
15, 44159, Note_on_c, 12, 69, 0
15, 44160, Control_c, 12, 11, 97
15, 44160, Note_on_c, 12, 68, 80
15, 44187, Control_c, 12, 11, 99
15, 44211, Note_on_c, 12, 68, 0
15, 44213, Control_c, 12, 11, 100
15, 44220, Note_on_c, 12, 67, 80
15, 44240, Control_c, 12, 11, 102
15, 44267, Control_c, 12, 11, 104
15, 44279, Note_on_c, 12, 67, 0
15, 44280, Note_on_c, 12, 65, 80
15, 44293, Control_c, 12, 11, 105
15, 44320, Control_c, 12, 11, 107
15, 44331, Note_on_c, 12, 65, 0
15, 44340, Note_on_c, 12, 63, 80
15, 44347, Control_c, 12, 11, 109
15, 44373, Control_c, 12, 11, 110
15, 44399, Note_on_c, 12, 63, 0
15, 44400, Control_c, 12, 11, 112
15, 44400, Note_on_c, 12, 62, 80
15, 44427, Control_c, 12, 11, 114
15, 44451, Note_on_c, 12, 62, 0
15, 44453, Control_c, 12, 11, 115
15, 44460, Note_on_c, 12, 60, 80
15, 44480, Control_c, 12, 11, 117
15, 44507, Control_c, 12, 11, 119
15, 44519, Note_on_c, 12, 60, 0
15, 44520, Note_on_c, 12, 58, 80
15, 44533, Control_c, 12, 11, 120
15, 44560, Control_c, 12, 11, 122
15, 44571, Note_on_c, 12, 58, 0
15, 44580, Note_on_c, 12, 56, 80
15, 44587, Control_c, 12, 11, 124
15, 44613, Control_c, 12, 11, 127
15, 44639, Note_on_c, 12, 56, 0
15, 44640, Note_on_c, 12, 67, 80
15, 44691, Note_on_c, 12, 67, 0
15, 44700, Note_on_c, 12, 65, 80
15, 44759, Note_on_c, 12, 65, 0
15, 44760, Note_on_c, 12, 63, 80
15, 44811, Note_on_c, 12, 63, 0
15, 44820, Note_on_c, 12, 62, 80
15, 44879, Note_on_c, 12, 62, 0
15, 44880, Note_on_c, 12, 60, 80
15, 44931, Note_on_c, 12, 60, 0
15, 44940, Note_on_c, 12, 58, 80
15, 44999, Note_on_c, 12, 58, 0
15, 45000, Note_on_c, 12, 57, 80
15, 45051, Note_on_c, 12, 57, 0
15, 45060, Note_on_c, 12, 55, 80
15, 45119, Note_on_c, 12, 55, 0
15, 45120, Note_on_c, 12, 65, 80
15, 45224, Note_on_c, 12, 65, 0
15, 45240, Note_on_c, 12, 74, 80
15, 45240, Note_on_c, 12, 82, 80
15, 45240, Note_on_c, 12, 65, 80
15, 45329, Note_on_c, 12, 74, 0
15, 45329, Note_on_c, 12, 82, 0
15, 45329, Note_on_c, 12, 65, 0
15, 45480, Note_on_c, 12, 81, 80
15, 45480, Note_on_c, 12, 65, 80
15, 45480, Note_on_c, 12, 72, 80
15, 45569, Note_on_c, 12, 81, 0
15, 45569, Note_on_c, 12, 65, 0
15, 45569, Note_on_c, 12, 72, 0
15, 45660, Note_on_c, 12, 58, 44
15, 45719, Note_on_c, 12, 58, 0
15, 45720, Note_on_c, 12, 60, 44
15, 45771, Note_on_c, 12, 60, 0
15, 45780, Note_on_c, 12, 62, 44
15, 45839, Note_on_c, 12, 62, 0
15, 45840, Note_on_c, 12, 63, 44
15, 45891, Note_on_c, 12, 63, 0
15, 45900, Note_on_c, 12, 65, 44
15, 45959, Note_on_c, 12, 65, 0
15, 45960, Note_on_c, 12, 67, 44
15, 46011, Note_on_c, 12, 67, 0
15, 46020, Note_on_c, 12, 69, 44
15, 46079, Note_on_c, 12, 69, 0
15, 46080, Note_on_c, 12, 70, 44
15, 46199, Note_on_c, 12, 70, 0
15, 46620, Note_on_c, 12, 67, 45
15, 46679, Note_on_c, 12, 67, 0
15, 46680, Note_on_c, 12, 68, 46
15, 46731, Note_on_c, 12, 68, 0
15, 46740, Note_on_c, 12, 70, 47
15, 46799, Note_on_c, 12, 70, 0
15, 46800, Note_on_c, 12, 72, 48
15, 46851, Note_on_c, 12, 72, 0
15, 46860, Note_on_c, 12, 74, 49
15, 46919, Note_on_c, 12, 74, 0
15, 46920, Note_on_c, 12, 75, 50
15, 46971, Note_on_c, 12, 75, 0
15, 46980, Note_on_c, 12, 77, 51
15, 47039, Note_on_c, 12, 77, 0
15, 47040, Note_on_c, 12, 79, 52
15, 47159, Note_on_c, 12, 79, 0
15, 47518, Control_c, 12, 11, 67
15, 47520, Note_on_c, 12, 75, 92
15, 47547, Control_c, 12, 11, 69
15, 47573, Control_c, 12, 11, 70
15, 47600, Control_c, 12, 11, 72
15, 47627, Control_c, 12, 11, 74
15, 47653, Control_c, 12, 11, 75
15, 47680, Control_c, 12, 11, 77
15, 47707, Control_c, 12, 11, 79
15, 47733, Control_c, 12, 11, 80
15, 47760, Control_c, 12, 11, 82
15, 47787, Control_c, 12, 11, 84
15, 47813, Control_c, 12, 11, 85
15, 47840, Control_c, 12, 11, 87
15, 47864, Note_on_c, 12, 75, 0
15, 47867, Control_c, 12, 11, 89
15, 47880, Note_on_c, 12, 74, 92
15, 47893, Control_c, 12, 11, 90
15, 47920, Control_c, 12, 11, 92
15, 47947, Control_c, 12, 11, 94
15, 47973, Control_c, 12, 11, 95
15, 47999, Note_on_c, 12, 74, 0
15, 48000, Control_c, 12, 11, 97
15, 48000, Note_on_c, 12, 72, 92
15, 48027, Control_c, 12, 11, 99
15, 48051, Note_on_c, 12, 72, 0
15, 48053, Control_c, 12, 11, 100
15, 48060, Note_on_c, 12, 70, 92
15, 48080, Control_c, 12, 11, 102
15, 48107, Control_c, 12, 11, 104
15, 48119, Note_on_c, 12, 70, 0
15, 48120, Note_on_c, 12, 69, 92
15, 48133, Control_c, 12, 11, 105
15, 48160, Control_c, 12, 11, 107
15, 48171, Note_on_c, 12, 69, 0
15, 48180, Note_on_c, 12, 67, 92
15, 48187, Control_c, 12, 11, 109
15, 48213, Control_c, 12, 11, 110
15, 48239, Note_on_c, 12, 67, 0
15, 48240, Note_on_c, 12, 65, 92
15, 48240, Control_c, 12, 11, 112
15, 48267, Control_c, 12, 11, 114
15, 48291, Note_on_c, 12, 65, 0
15, 48293, Control_c, 12, 11, 115
15, 48300, Note_on_c, 12, 63, 92
15, 48320, Control_c, 12, 11, 117
15, 48347, Control_c, 12, 11, 119
15, 48359, Note_on_c, 12, 63, 0
15, 48360, Note_on_c, 12, 62, 92
15, 48373, Control_c, 12, 11, 120
15, 48400, Control_c, 12, 11, 122
15, 48411, Note_on_c, 12, 62, 0
15, 48420, Note_on_c, 12, 60, 92
15, 48427, Control_c, 12, 11, 124
15, 48453, Control_c, 12, 11, 127
15, 48464, Note_on_c, 12, 60, 0
15, 48480, Note_on_c, 12, 70, 92
15, 48569, Note_on_c, 12, 70, 0
15, 48600, Note_on_c, 12, 58, 92
15, 48666, Note_on_c, 12, 58, 0
15, 48690, Note_on_c, 12, 58, 92
15, 48711, Note_on_c, 12, 58, 0
15, 48720, Note_on_c, 12, 70, 92
15, 48839, Note_on_c, 12, 70, 0
15, 48960, Note_on_c, 12, 58, 92
15, 49049, Note_on_c, 12, 58, 0
15, 49080, Note_on_c, 12, 70, 92
15, 49146, Note_on_c, 12, 70, 0
15, 49170, Note_on_c, 12, 70, 92
15, 49191, Note_on_c, 12, 70, 0
15, 49200, Note_on_c, 12, 58, 92
15, 49319, Note_on_c, 12, 58, 0
15, 50400, Note_on_c, 12, 82, 92
15, 50400, Note_on_c, 12, 70, 92
15, 50489, Note_on_c, 12, 82, 0
15, 50489, Note_on_c, 12, 70, 0
15, 50520, Note_on_c, 12, 82, 92
15, 50520, Note_on_c, 12, 70, 92
15, 50586, Note_on_c, 12, 82, 0
15, 50586, Note_on_c, 12, 70, 0
15, 50610, Note_on_c, 12, 70, 92
15, 50610, Note_on_c, 12, 82, 92
15, 50631, Note_on_c, 12, 70, 0
15, 50631, Note_on_c, 12, 82, 0
15, 50640, Note_on_c, 12, 82, 92
15, 50640, Note_on_c, 12, 70, 92
15, 50759, Note_on_c, 12, 82, 0
15, 50759, Note_on_c, 12, 70, 0
15, 50880, Note_on_c, 12, 66, 92
15, 50969, Note_on_c, 12, 66, 0
15, 51000, Note_on_c, 12, 65, 92
15, 51066, Note_on_c, 12, 65, 0
15, 51090, Note_on_c, 12, 65, 92
15, 51111, Note_on_c, 12, 65, 0
15, 51120, Note_on_c, 12, 66, 92
15, 51239, Note_on_c, 12, 66, 0
15, 51360, Note_on_c, 12, 71, 44
15, 51839, Note_on_c, 12, 71, 0
15, 51840, Note_on_c, 12, 71, 44
15, 52079, Note_on_c, 12, 71, 0
15, 52080, Note_on_c, 12, 70, 44
15, 52199, Note_on_c, 12, 70, 0
15, 52200, Note_on_c, 12, 66, 44
15, 52319, Note_on_c, 12, 66, 0
15, 52320, Note_on_c, 12, 75, 32
15, 52799, Note_on_c, 12, 75, 0
15, 52800, Note_on_c, 12, 75, 32
15, 53264, Note_on_c, 12, 75, 0
15, 53280, Note_on_c, 12, 76, 32
15, 53744, Note_on_c, 12, 76, 0
15, 53760, Note_on_c, 12, 64, 32
15, 53760, Note_on_c, 12, 61, 32
15, 54224, Note_on_c, 12, 64, 0
15, 54224, Note_on_c, 12, 61, 0
15, 54240, Note_on_c, 12, 66, 32
15, 54299, Note_on_c, 12, 66, 0
15, 54300, Note_on_c, 12, 64, 32
15, 54359, Note_on_c, 12, 64, 0
15, 54360, Note_on_c, 12, 63, 32
15, 54419, Note_on_c, 12, 63, 0
15, 54420, Note_on_c, 12, 61, 32
15, 54479, Note_on_c, 12, 61, 0
15, 54480, Note_on_c, 12, 71, 32
15, 54539, Note_on_c, 12, 71, 0
15, 54540, Note_on_c, 12, 70, 32
15, 54599, Note_on_c, 12, 70, 0
15, 54600, Note_on_c, 12, 68, 32
15, 54659, Note_on_c, 12, 68, 0
15, 54660, Note_on_c, 12, 66, 32
15, 54719, Note_on_c, 12, 66, 0
15, 54720, Note_on_c, 12, 64, 32
15, 54779, Note_on_c, 12, 64, 0
15, 54780, Note_on_c, 12, 63, 32
15, 54839, Note_on_c, 12, 63, 0
15, 54840, Note_on_c, 12, 61, 32
15, 54899, Note_on_c, 12, 61, 0
15, 54900, Note_on_c, 12, 59, 32
15, 54959, Note_on_c, 12, 59, 0
15, 54960, Note_on_c, 12, 58, 32
15, 55019, Note_on_c, 12, 58, 0
15, 55020, Note_on_c, 12, 59, 32
15, 55079, Note_on_c, 12, 59, 0
15, 55080, Note_on_c, 12, 58, 32
15, 55131, Note_on_c, 12, 58, 0
15, 55140, Note_on_c, 12, 58, 32
15, 55259, Note_on_c, 12, 58, 0
15, 55260, Note_on_c, 12, 57, 32
15, 55319, Note_on_c, 12, 57, 0
15, 55320, Note_on_c, 12, 64, 32
15, 55379, Note_on_c, 12, 64, 0
15, 55380, Note_on_c, 12, 65, 32
15, 55439, Note_on_c, 12, 65, 0
15, 55440, Note_on_c, 12, 66, 32
15, 55499, Note_on_c, 12, 66, 0
15, 55500, Note_on_c, 12, 64, 32
15, 55559, Note_on_c, 12, 64, 0
15, 55560, Note_on_c, 12, 65, 32
15, 55619, Note_on_c, 12, 65, 0
15, 55620, Note_on_c, 12, 57, 32
15, 55679, Note_on_c, 12, 57, 0
15, 55680, Note_on_c, 12, 58, 32
15, 55739, Note_on_c, 12, 58, 0
15, 55740, Note_on_c, 12, 68, 32
15, 55799, Note_on_c, 12, 68, 0
15, 55800, Note_on_c, 12, 66, 32
15, 55859, Note_on_c, 12, 66, 0
15, 55860, Note_on_c, 12, 67, 32
15, 55919, Note_on_c, 12, 67, 0
15, 55920, Note_on_c, 12, 70, 32
15, 55979, Note_on_c, 12, 70, 0
15, 55980, Note_on_c, 12, 68, 32
15, 56039, Note_on_c, 12, 68, 0
15, 56040, Note_on_c, 12, 69, 32
15, 56099, Note_on_c, 12, 69, 0
15, 56100, Note_on_c, 12, 60, 32
15, 56151, Note_on_c, 12, 60, 0
15, 56160, Note_on_c, 12, 62, 32
15, 56219, Note_on_c, 12, 62, 0
15, 56220, Note_on_c, 12, 72, 32
15, 56279, Note_on_c, 12, 72, 0
15, 56280, Note_on_c, 12, 69, 32
15, 56339, Note_on_c, 12, 69, 0
15, 56340, Note_on_c, 12, 70, 32
15, 56399, Note_on_c, 12, 70, 0
15, 56400, Note_on_c, 12, 74, 32
15, 56459, Note_on_c, 12, 74, 0
15, 56460, Note_on_c, 12, 71, 32
15, 56519, Note_on_c, 12, 71, 0
15, 56520, Note_on_c, 12, 72, 32
15, 56579, Note_on_c, 12, 72, 0
15, 56580, Note_on_c, 12, 63, 32
15, 56639, Note_on_c, 12, 63, 0
15, 56640, Note_on_c, 12, 75, 32
15, 56699, Note_on_c, 12, 75, 0
15, 56700, Note_on_c, 12, 73, 32
15, 56759, Note_on_c, 12, 73, 0
15, 56760, Note_on_c, 12, 74, 32
15, 56819, Note_on_c, 12, 74, 0
15, 56820, Note_on_c, 12, 65, 32
15, 56879, Note_on_c, 12, 65, 0
15, 56880, Note_on_c, 12, 77, 32
15, 56939, Note_on_c, 12, 77, 0
15, 56940, Note_on_c, 12, 74, 32
15, 56999, Note_on_c, 12, 74, 0
15, 57000, Note_on_c, 12, 75, 32
15, 57059, Note_on_c, 12, 75, 0
15, 57060, Note_on_c, 12, 67, 32
15, 57111, Note_on_c, 12, 67, 0
15, 57120, Note_on_c, 12, 78, 32
15, 57239, Note_on_c, 12, 78, 0
15, 57600, Note_on_c, 12, 66, 32
15, 57899, Note_on_c, 12, 66, 0
15, 57900, Note_on_c, 12, 65, 32
15, 57959, Note_on_c, 12, 65, 0
15, 57960, Note_on_c, 12, 63, 32
15, 58019, Note_on_c, 12, 63, 0
15, 58020, Note_on_c, 12, 60, 32
15, 58079, Note_on_c, 12, 60, 0
15, 58560, Note_on_c, 12, 67, 32
15, 58859, Note_on_c, 12, 67, 0
15, 58860, Note_on_c, 12, 65, 32
15, 58919, Note_on_c, 12, 65, 0
15, 58920, Note_on_c, 12, 62, 32
15, 58979, Note_on_c, 12, 62, 0
15, 58980, Note_on_c, 12, 58, 32
15, 59039, Note_on_c, 12, 58, 0
15, 59472, Control_c, 12, 11, 56
15, 59520, Note_on_c, 12, 66, 80
15, 59520, Control_c, 12, 11, 57
15, 59568, Control_c, 12, 11, 58
15, 59616, Control_c, 12, 11, 59
15, 59664, Control_c, 12, 11, 60
15, 59712, Control_c, 12, 11, 61
15, 59760, Control_c, 12, 11, 62
15, 59808, Control_c, 12, 11, 63
15, 59819, Note_on_c, 12, 66, 0
15, 59820, Note_on_c, 12, 65, 80
15, 59856, Control_c, 12, 11, 64
15, 59879, Note_on_c, 12, 65, 0
15, 59880, Note_on_c, 12, 63, 80
15, 59904, Control_c, 12, 11, 65
15, 59939, Note_on_c, 12, 63, 0
15, 59940, Note_on_c, 12, 60, 80
15, 59952, Control_c, 12, 11, 66
15, 59999, Note_on_c, 12, 60, 0
15, 60432, Control_c, 12, 11, 76
15, 60480, Note_on_c, 12, 67, 80
15, 60480, Control_c, 12, 11, 77
15, 60528, Control_c, 12, 11, 78
15, 60576, Control_c, 12, 11, 79
15, 60624, Control_c, 12, 11, 80
15, 60672, Control_c, 12, 11, 81
15, 60720, Control_c, 12, 11, 82
15, 60768, Control_c, 12, 11, 83
15, 60779, Note_on_c, 12, 67, 0
15, 60780, Note_on_c, 12, 65, 80
15, 60816, Control_c, 12, 11, 84
15, 60839, Note_on_c, 12, 65, 0
15, 60840, Note_on_c, 12, 62, 80
15, 60864, Control_c, 12, 11, 85
15, 60899, Note_on_c, 12, 62, 0
15, 60900, Note_on_c, 12, 58, 80
15, 60912, Control_c, 12, 11, 86
15, 60959, Note_on_c, 12, 58, 0
15, 60960, Control_c, 12, 11, 87
15, 61008, Control_c, 12, 11, 88
15, 61056, Control_c, 12, 11, 89
15, 61104, Control_c, 12, 11, 90
15, 61152, Control_c, 12, 11, 91
15, 61200, Note_on_c, 12, 66, 80
15, 61200, Control_c, 12, 11, 92
15, 61248, Control_c, 12, 11, 93
15, 61259, Note_on_c, 12, 66, 0
15, 61260, Note_on_c, 12, 65, 80
15, 61296, Control_c, 12, 11, 94
15, 61319, Note_on_c, 12, 65, 0
15, 61320, Note_on_c, 12, 63, 80
15, 61344, Control_c, 12, 11, 95
15, 61379, Note_on_c, 12, 63, 0
15, 61380, Note_on_c, 12, 60, 80
15, 61392, Control_c, 12, 11, 96
15, 61439, Note_on_c, 12, 60, 0
15, 61440, Control_c, 12, 11, 97
15, 61488, Control_c, 12, 11, 98
15, 61536, Control_c, 12, 11, 99
15, 61584, Control_c, 12, 11, 100
15, 61632, Control_c, 12, 11, 101
15, 61680, Control_c, 12, 11, 102
15, 61680, Note_on_c, 12, 67, 80
15, 61728, Control_c, 12, 11, 103
15, 61739, Note_on_c, 12, 67, 0
15, 61740, Note_on_c, 12, 65, 80
15, 61776, Control_c, 12, 11, 104
15, 61799, Note_on_c, 12, 65, 0
15, 61800, Note_on_c, 12, 62, 80
15, 61824, Control_c, 12, 11, 105
15, 61859, Note_on_c, 12, 62, 0
15, 61860, Note_on_c, 12, 58, 80
15, 61872, Control_c, 12, 11, 106
15, 61911, Note_on_c, 12, 58, 0
15, 61920, Control_c, 12, 11, 107
15, 61920, Note_on_c, 12, 57, 80
15, 61968, Control_c, 12, 11, 108
15, 61979, Note_on_c, 12, 57, 0
15, 61980, Note_on_c, 12, 60, 80
15, 62016, Control_c, 12, 11, 109
15, 62039, Note_on_c, 12, 60, 0
15, 62040, Note_on_c, 12, 57, 80
15, 62064, Control_c, 12, 11, 110
15, 62099, Note_on_c, 12, 57, 0
15, 62100, Note_on_c, 12, 60, 80
15, 62112, Control_c, 12, 11, 111
15, 62159, Note_on_c, 12, 60, 0
15, 62160, Note_on_c, 12, 57, 80
15, 62160, Control_c, 12, 11, 112
15, 62208, Control_c, 12, 11, 113
15, 62219, Note_on_c, 12, 57, 0
15, 62220, Note_on_c, 12, 60, 80
15, 62256, Control_c, 12, 11, 114
15, 62279, Note_on_c, 12, 60, 0
15, 62280, Note_on_c, 12, 57, 80
15, 62304, Control_c, 12, 11, 115
15, 62339, Note_on_c, 12, 57, 0
15, 62340, Note_on_c, 12, 58, 80
15, 62352, Control_c, 12, 11, 116
15, 62391, Note_on_c, 12, 58, 0
15, 62400, Control_c, 12, 11, 117
15, 62400, Note_on_c, 12, 57, 80
15, 62448, Control_c, 12, 11, 118
15, 62459, Note_on_c, 12, 57, 0
15, 62460, Note_on_c, 12, 60, 80
15, 62496, Control_c, 12, 11, 119
15, 62519, Note_on_c, 12, 60, 0
15, 62520, Note_on_c, 12, 57, 80
15, 62544, Control_c, 12, 11, 120
15, 62579, Note_on_c, 12, 57, 0
15, 62580, Note_on_c, 12, 60, 80
15, 62592, Control_c, 12, 11, 121
15, 62639, Note_on_c, 12, 60, 0
15, 62640, Control_c, 12, 11, 122
15, 62640, Note_on_c, 12, 57, 80
15, 62688, Control_c, 12, 11, 123
15, 62699, Note_on_c, 12, 57, 0
15, 62700, Note_on_c, 12, 63, 80
15, 62736, Control_c, 12, 11, 124
15, 62759, Note_on_c, 12, 63, 0
15, 62760, Note_on_c, 12, 63, 80
15, 62784, Control_c, 12, 11, 125
15, 62819, Note_on_c, 12, 63, 0
15, 62820, Note_on_c, 12, 62, 80
15, 62832, Control_c, 12, 11, 127
15, 62879, Note_on_c, 12, 62, 0
15, 62880, Note_on_c, 12, 62, 80
15, 62905, Note_on_c, 12, 62, 0
15, 62910, Note_on_c, 12, 62, 80
15, 62935, Note_on_c, 12, 62, 0
15, 62940, Note_on_c, 12, 63, 80
15, 62965, Note_on_c, 12, 63, 0
15, 62970, Note_on_c, 12, 63, 80
15, 62995, Note_on_c, 12, 63, 0
15, 63000, Note_on_c, 12, 72, 80
15, 63025, Note_on_c, 12, 72, 0
15, 63030, Note_on_c, 12, 72, 80
15, 63055, Note_on_c, 12, 72, 0
15, 63060, Note_on_c, 12, 72, 80
15, 63085, Note_on_c, 12, 72, 0
15, 63090, Note_on_c, 12, 72, 80
15, 63115, Note_on_c, 12, 72, 0
15, 63120, Note_on_c, 12, 72, 80
15, 63145, Note_on_c, 12, 72, 0
15, 63150, Note_on_c, 12, 72, 80
15, 63175, Note_on_c, 12, 72, 0
15, 63180, Note_on_c, 12, 72, 80
15, 63205, Note_on_c, 12, 72, 0
15, 63210, Note_on_c, 12, 72, 80
15, 63235, Note_on_c, 12, 72, 0
15, 63240, Note_on_c, 12, 65, 80
15, 63265, Note_on_c, 12, 65, 0
15, 63270, Note_on_c, 12, 65, 80
15, 63295, Note_on_c, 12, 65, 0
15, 63300, Note_on_c, 12, 65, 80
15, 63325, Note_on_c, 12, 65, 0
15, 63330, Note_on_c, 12, 65, 80
15, 63355, Note_on_c, 12, 65, 0
15, 63360, Note_on_c, 12, 77, 80
15, 63385, Note_on_c, 12, 77, 0
15, 63390, Note_on_c, 12, 79, 80
15, 63415, Note_on_c, 12, 79, 0
15, 63420, Note_on_c, 12, 77, 80
15, 63445, Note_on_c, 12, 77, 0
15, 63450, Note_on_c, 12, 75, 80
15, 63475, Note_on_c, 12, 75, 0
15, 63480, Note_on_c, 12, 74, 80
15, 63505, Note_on_c, 12, 74, 0
15, 63510, Note_on_c, 12, 75, 80
15, 63535, Note_on_c, 12, 75, 0
15, 63540, Note_on_c, 12, 74, 80
15, 63565, Note_on_c, 12, 74, 0
15, 63570, Note_on_c, 12, 72, 80
15, 63595, Note_on_c, 12, 72, 0
15, 63600, Note_on_c, 12, 70, 80
15, 63625, Note_on_c, 12, 70, 0
15, 63630, Note_on_c, 12, 72, 80
15, 63655, Note_on_c, 12, 72, 0
15, 63660, Note_on_c, 12, 74, 80
15, 63685, Note_on_c, 12, 74, 0
15, 63690, Note_on_c, 12, 75, 80
15, 63715, Note_on_c, 12, 75, 0
15, 63720, Note_on_c, 12, 77, 80
15, 63745, Note_on_c, 12, 77, 0
15, 63750, Note_on_c, 12, 79, 80
15, 63775, Note_on_c, 12, 79, 0
15, 63780, Note_on_c, 12, 81, 80
15, 63805, Note_on_c, 12, 81, 0
15, 63810, Note_on_c, 12, 82, 80
15, 63835, Note_on_c, 12, 82, 0
15, 63840, Note_on_c, 12, 84, 80
15, 63865, Note_on_c, 12, 84, 0
15, 63870, Note_on_c, 12, 67, 80
15, 63895, Note_on_c, 12, 67, 0
15, 63900, Note_on_c, 12, 67, 80
15, 63925, Note_on_c, 12, 67, 0
15, 63930, Note_on_c, 12, 67, 80
15, 63955, Note_on_c, 12, 67, 0
15, 63960, Note_on_c, 12, 75, 80
15, 63985, Note_on_c, 12, 75, 0
15, 63990, Note_on_c, 12, 75, 80
15, 64015, Note_on_c, 12, 75, 0
15, 64020, Note_on_c, 12, 75, 80
15, 64045, Note_on_c, 12, 75, 0
15, 64050, Note_on_c, 12, 75, 80
15, 64075, Note_on_c, 12, 75, 0
15, 64080, Note_on_c, 12, 75, 80
15, 64105, Note_on_c, 12, 75, 0
15, 64110, Note_on_c, 12, 75, 80
15, 64135, Note_on_c, 12, 75, 0
15, 64140, Note_on_c, 12, 75, 80
15, 64165, Note_on_c, 12, 75, 0
15, 64170, Note_on_c, 12, 75, 80
15, 64195, Note_on_c, 12, 75, 0
15, 64200, Note_on_c, 12, 55, 80
15, 64225, Note_on_c, 12, 55, 0
15, 64230, Note_on_c, 12, 55, 80
15, 64255, Note_on_c, 12, 55, 0
15, 64260, Note_on_c, 12, 55, 80
15, 64285, Note_on_c, 12, 55, 0
15, 64290, Note_on_c, 12, 55, 80
15, 64315, Note_on_c, 12, 55, 0
15, 64320, Note_on_c, 12, 68, 80
15, 64345, Note_on_c, 12, 68, 0
15, 64350, Note_on_c, 12, 70, 80
15, 64375, Note_on_c, 12, 70, 0
15, 64380, Note_on_c, 12, 68, 80
15, 64405, Note_on_c, 12, 68, 0
15, 64410, Note_on_c, 12, 67, 80
15, 64435, Note_on_c, 12, 67, 0
15, 64440, Note_on_c, 12, 65, 80
15, 64465, Note_on_c, 12, 65, 0
15, 64470, Note_on_c, 12, 67, 80
15, 64495, Note_on_c, 12, 67, 0
15, 64500, Note_on_c, 12, 65, 80
15, 64525, Note_on_c, 12, 65, 0
15, 64530, Note_on_c, 12, 63, 80
15, 64555, Note_on_c, 12, 63, 0
15, 64560, Note_on_c, 12, 62, 80
15, 64585, Note_on_c, 12, 62, 0
15, 64590, Note_on_c, 12, 63, 80
15, 64615, Note_on_c, 12, 63, 0
15, 64620, Note_on_c, 12, 65, 80
15, 64645, Note_on_c, 12, 65, 0
15, 64650, Note_on_c, 12, 67, 80
15, 64675, Note_on_c, 12, 67, 0
15, 64680, Note_on_c, 12, 68, 80
15, 64705, Note_on_c, 12, 68, 0
15, 64710, Note_on_c, 12, 70, 80
15, 64735, Note_on_c, 12, 70, 0
15, 64740, Note_on_c, 12, 72, 80
15, 64765, Note_on_c, 12, 72, 0
15, 64770, Note_on_c, 12, 74, 80
15, 64795, Note_on_c, 12, 74, 0
15, 64800, Note_on_c, 12, 74, 80
15, 64825, Note_on_c, 12, 74, 0
15, 64830, Note_on_c, 12, 74, 80
15, 64855, Note_on_c, 12, 74, 0
15, 64860, Note_on_c, 12, 75, 80
15, 64885, Note_on_c, 12, 75, 0
15, 64890, Note_on_c, 12, 75, 80
15, 64915, Note_on_c, 12, 75, 0
15, 64920, Note_on_c, 12, 55, 80
15, 64945, Note_on_c, 12, 55, 0
15, 64950, Note_on_c, 12, 55, 80
15, 64975, Note_on_c, 12, 55, 0
15, 64980, Note_on_c, 12, 55, 80
15, 65005, Note_on_c, 12, 55, 0
15, 65010, Note_on_c, 12, 55, 80
15, 65035, Note_on_c, 12, 55, 0
15, 65040, Note_on_c, 12, 55, 80
15, 65065, Note_on_c, 12, 55, 0
15, 65070, Note_on_c, 12, 55, 80
15, 65095, Note_on_c, 12, 55, 0
15, 65100, Note_on_c, 12, 55, 80
15, 65125, Note_on_c, 12, 55, 0
15, 65130, Note_on_c, 12, 55, 80
15, 65155, Note_on_c, 12, 55, 0
15, 65160, Note_on_c, 12, 75, 80
15, 65185, Note_on_c, 12, 75, 0
15, 65190, Note_on_c, 12, 75, 80
15, 65215, Note_on_c, 12, 75, 0
15, 65220, Note_on_c, 12, 75, 80
15, 65245, Note_on_c, 12, 75, 0
15, 65250, Note_on_c, 12, 75, 80
15, 65275, Note_on_c, 12, 75, 0
15, 65280, Note_on_c, 12, 72, 80
15, 65305, Note_on_c, 12, 72, 0
15, 65310, Note_on_c, 12, 74, 80
15, 65335, Note_on_c, 12, 74, 0
15, 65340, Note_on_c, 12, 72, 80
15, 65365, Note_on_c, 12, 72, 0
15, 65370, Note_on_c, 12, 70, 80
15, 65395, Note_on_c, 12, 70, 0
15, 65400, Note_on_c, 12, 69, 80
15, 65425, Note_on_c, 12, 69, 0
15, 65430, Note_on_c, 12, 70, 80
15, 65455, Note_on_c, 12, 70, 0
15, 65460, Note_on_c, 12, 69, 80
15, 65485, Note_on_c, 12, 69, 0
15, 65490, Note_on_c, 12, 67, 80
15, 65515, Note_on_c, 12, 67, 0
15, 65520, Note_on_c, 12, 65, 80
15, 65545, Note_on_c, 12, 65, 0
15, 65550, Note_on_c, 12, 67, 80
15, 65575, Note_on_c, 12, 67, 0
15, 65580, Note_on_c, 12, 69, 80
15, 65605, Note_on_c, 12, 69, 0
15, 65610, Note_on_c, 12, 70, 80
15, 65635, Note_on_c, 12, 70, 0
15, 65640, Note_on_c, 12, 72, 80
15, 65665, Note_on_c, 12, 72, 0
15, 65670, Note_on_c, 12, 74, 80
15, 65695, Note_on_c, 12, 74, 0
15, 65700, Note_on_c, 12, 75, 80
15, 65725, Note_on_c, 12, 75, 0
15, 65730, Note_on_c, 12, 77, 80
15, 65755, Note_on_c, 12, 77, 0
15, 65760, Note_on_c, 12, 77, 92
15, 65760, Note_on_c, 12, 70, 92
15, 65864, Note_on_c, 12, 77, 0
15, 65864, Note_on_c, 12, 70, 0
15, 65880, Note_on_c, 12, 70, 44
15, 65999, Note_on_c, 12, 70, 0
15, 66600, Note_on_c, 12, 82, 92
15, 66681, Note_on_c, 12, 82, 0
15, 66690, Note_on_c, 12, 70, 92
15, 66711, Note_on_c, 12, 70, 0
15, 66720, Note_on_c, 12, 67, 92
15, 66809, Note_on_c, 12, 67, 0
15, 66840, Note_on_c, 12, 55, 44
15, 66929, Note_on_c, 12, 55, 0
15, 67560, Note_on_c, 12, 79, 92
15, 67641, Note_on_c, 12, 79, 0
15, 67650, Note_on_c, 12, 79, 92
15, 67671, Note_on_c, 12, 79, 0
15, 67680, Note_on_c, 12, 68, 92
15, 67769, Note_on_c, 12, 68, 0
15, 67800, Note_on_c, 12, 80, 44
15, 67889, Note_on_c, 12, 80, 0
15, 68520, Note_on_c, 12, 70, 92
15, 68601, Note_on_c, 12, 70, 0
15, 68610, Note_on_c, 12, 70, 92
15, 68631, Note_on_c, 12, 70, 0
15, 68640, Note_on_c, 12, 70, 92
15, 68729, Note_on_c, 12, 70, 0
15, 68760, Note_on_c, 12, 82, 44
15, 68849, Note_on_c, 12, 82, 0
15, 70440, Note_on_c, 12, 69, 80
15, 70544, Note_on_c, 12, 69, 0
15, 70560, Note_on_c, 12, 81, 80
15, 70679, Note_on_c, 12, 81, 0
15, 70680, Note_on_c, 12, 82, 80
15, 70739, Note_on_c, 12, 82, 0
15, 70800, Note_on_c, 12, 74, 80
15, 70919, Note_on_c, 12, 74, 0
15, 70920, Note_on_c, 12, 79, 80
15, 70979, Note_on_c, 12, 79, 0
15, 71040, Note_on_c, 12, 72, 80
15, 71159, Note_on_c, 12, 72, 0
15, 71160, Note_on_c, 12, 77, 80
15, 71219, Note_on_c, 12, 77, 0
15, 71280, Note_on_c, 12, 77, 92
15, 71299, Note_on_c, 12, 77, 0
15, 71300, Note_on_c, 12, 79, 92
15, 71319, Note_on_c, 12, 79, 0
15, 71320, Note_on_c, 12, 77, 92
15, 71339, Note_on_c, 12, 77, 0
15, 71340, Note_on_c, 12, 79, 92
15, 71352, Note_on_c, 12, 79, 0
15, 71353, Note_on_c, 12, 77, 92
15, 71366, Note_on_c, 12, 77, 0
15, 71367, Note_on_c, 12, 76, 92
15, 71379, Note_on_c, 12, 76, 0
15, 71380, Note_on_c, 12, 77, 92
15, 71399, Note_on_c, 12, 77, 0
15, 71400, Note_on_c, 12, 72, 92
15, 71459, Note_on_c, 12, 72, 0
15, 71460, Note_on_c, 12, 77, 92
15, 71511, Note_on_c, 12, 77, 0
15, 71520, Note_on_c, 12, 70, 92
15, 71624, Note_on_c, 12, 70, 0
15, 71640, Note_on_c, 12, 58, 92
15, 71721, Note_on_c, 12, 58, 0
15, 71730, Note_on_c, 12, 58, 92
15, 71751, Note_on_c, 12, 58, 0
15, 71760, Note_on_c, 12, 62, 104
15, 71819, Note_on_c, 12, 62, 0
15, 71820, Note_on_c, 12, 62, 92
15, 72104, Note_on_c, 12, 62, 0
15, 72120, Note_on_c, 12, 62, 92
15, 72201, Note_on_c, 12, 62, 0
15, 72210, Note_on_c, 12, 62, 92
15, 72231, Note_on_c, 12, 62, 0
15, 72240, Note_on_c, 12, 65, 104
15, 72299, Note_on_c, 12, 65, 0
15, 72300, Note_on_c, 12, 65, 92
15, 72584, Note_on_c, 12, 65, 0
15, 72600, Note_on_c, 12, 65, 92
15, 72681, Note_on_c, 12, 65, 0
15, 72690, Note_on_c, 12, 65, 92
15, 72711, Note_on_c, 12, 65, 0
15, 72720, Note_on_c, 12, 70, 104
15, 72779, Note_on_c, 12, 70, 0
15, 72780, Note_on_c, 12, 70, 92
15, 73064, Note_on_c, 12, 70, 0
15, 73080, Note_on_c, 12, 70, 92
15, 73161, Note_on_c, 12, 70, 0
15, 73170, Note_on_c, 12, 70, 92
15, 73191, Note_on_c, 12, 70, 0
15, 73200, Note_on_c, 12, 74, 92
15, 73304, Note_on_c, 12, 74, 0
15, 73320, Note_on_c, 12, 74, 92
15, 73401, Note_on_c, 12, 74, 0
15, 73410, Note_on_c, 12, 74, 92
15, 73431, Note_on_c, 12, 74, 0
15, 73440, Note_on_c, 12, 77, 80
15, 73529, Note_on_c, 12, 77, 0
15, 73560, Note_on_c, 12, 82, 80
15, 73641, Note_on_c, 12, 82, 0
15, 73650, Note_on_c, 12, 82, 80
15, 73671, Note_on_c, 12, 82, 0
15, 73680, Note_on_c, 12, 86, 80
15, 73769, Note_on_c, 12, 86, 0
15, 73800, Note_on_c, 12, 77, 80
15, 73881, Note_on_c, 12, 77, 0
15, 73890, Note_on_c, 12, 77, 80
15, 73911, Note_on_c, 12, 77, 0
15, 73920, Note_on_c, 12, 82, 80
15, 74009, Note_on_c, 12, 82, 0
15, 74040, Note_on_c, 12, 74, 80
15, 74121, Note_on_c, 12, 74, 0
15, 74130, Note_on_c, 12, 74, 80
15, 74151, Note_on_c, 12, 74, 0
15, 74160, Note_on_c, 12, 77, 80
15, 74249, Note_on_c, 12, 77, 0
15, 74280, Note_on_c, 12, 70, 80
15, 74361, Note_on_c, 12, 70, 0
15, 74370, Note_on_c, 12, 70, 80
15, 74391, Note_on_c, 12, 70, 0
15, 74400, Note_on_c, 12, 74, 80
15, 74489, Note_on_c, 12, 74, 0
15, 74520, Note_on_c, 12, 65, 80
15, 74601, Note_on_c, 12, 65, 0
15, 74610, Note_on_c, 12, 65, 80
15, 74631, Note_on_c, 12, 65, 0
15, 74640, Note_on_c, 12, 70, 80
15, 74729, Note_on_c, 12, 70, 0
15, 74760, Note_on_c, 12, 62, 80
15, 74841, Note_on_c, 12, 62, 0
15, 74850, Note_on_c, 12, 62, 80
15, 74871, Note_on_c, 12, 62, 0
15, 74880, Note_on_c, 12, 65, 80
15, 74969, Note_on_c, 12, 65, 0
15, 75000, Note_on_c, 12, 58, 80
15, 75081, Note_on_c, 12, 58, 0
15, 75090, Note_on_c, 12, 58, 80
15, 75111, Note_on_c, 12, 58, 0
15, 75120, Note_on_c, 12, 70, 80
15, 75209, Note_on_c, 12, 70, 0
15, 75240, Note_on_c, 12, 58, 80
15, 75321, Note_on_c, 12, 58, 0
15, 75330, Note_on_c, 12, 58, 80
15, 75351, Note_on_c, 12, 58, 0
15, 75360, Note_on_c, 12, 82, 80
15, 75479, Note_on_c, 12, 82, 0
15, 75810, Control_c, 12, 11, 127
15, 75810, Note_on_c, 12, 70, 80
15, 75831, Note_on_c, 12, 70, 0
15, 75837, Control_c, 12, 11, 124
15, 75840, Note_on_c, 12, 58, 80
15, 75863, Control_c, 12, 11, 120
15, 75890, Control_c, 12, 11, 117
15, 75917, Control_c, 12, 11, 114
15, 75943, Control_c, 12, 11, 110
15, 75970, Control_c, 12, 11, 107
15, 75997, Control_c, 12, 11, 104
15, 76023, Control_c, 12, 11, 100
15, 76050, Control_c, 12, 11, 97
15, 76077, Control_c, 12, 11, 94
15, 76079, Note_on_c, 12, 58, 0
15, 76263, Control_c, 12, 11, 127
15, 76290, Note_on_c, 12, 58, 44
15, 76311, Note_on_c, 12, 58, 0
15, 76320, Note_on_c, 12, 57, 32
15, 76353, Note_on_c, 12, 57, 0
15, 76360, Note_on_c, 12, 57, 32
15, 76393, Note_on_c, 12, 57, 0
15, 76400, Note_on_c, 12, 57, 32
15, 76433, Note_on_c, 12, 57, 0
15, 76440, Note_on_c, 12, 57, 32
15, 76473, Note_on_c, 12, 57, 0
15, 76480, Note_on_c, 12, 57, 32
15, 76513, Note_on_c, 12, 57, 0
15, 76520, Note_on_c, 12, 57, 32
15, 76553, Note_on_c, 12, 57, 0
15, 76560, Note_on_c, 12, 57, 32
15, 76593, Note_on_c, 12, 57, 0
15, 76600, Note_on_c, 12, 57, 32
15, 76633, Note_on_c, 12, 57, 0
15, 76640, Note_on_c, 12, 57, 32
15, 76673, Note_on_c, 12, 57, 0
15, 76680, Note_on_c, 12, 57, 32
15, 76713, Note_on_c, 12, 57, 0
15, 76720, Note_on_c, 12, 57, 32
15, 76753, Note_on_c, 12, 57, 0
15, 76760, Note_on_c, 12, 57, 32
15, 76793, Note_on_c, 12, 57, 0
15, 76800, Note_on_c, 12, 57, 32
15, 76833, Note_on_c, 12, 57, 0
15, 76840, Note_on_c, 12, 57, 32
15, 76873, Note_on_c, 12, 57, 0
15, 76880, Note_on_c, 12, 57, 32
15, 76913, Note_on_c, 12, 57, 0
15, 76920, Note_on_c, 12, 57, 32
15, 76953, Note_on_c, 12, 57, 0
15, 76960, Note_on_c, 12, 57, 32
15, 76993, Note_on_c, 12, 57, 0
15, 77000, Note_on_c, 12, 57, 32
15, 77033, Note_on_c, 12, 57, 0
15, 77040, Note_on_c, 12, 57, 32
15, 77073, Note_on_c, 12, 57, 0
15, 77080, Note_on_c, 12, 57, 32
15, 77113, Note_on_c, 12, 57, 0
15, 77120, Note_on_c, 12, 57, 32
15, 77153, Note_on_c, 12, 57, 0
15, 77160, Note_on_c, 12, 57, 32
15, 77193, Note_on_c, 12, 57, 0
15, 77200, Note_on_c, 12, 57, 32
15, 77233, Note_on_c, 12, 57, 0
15, 77240, Note_on_c, 12, 57, 32
15, 77273, Note_on_c, 12, 57, 0
15, 77280, Note_on_c, 12, 64, 32
15, 77280, Note_on_c, 12, 57, 32
15, 77313, Note_on_c, 12, 64, 0
15, 77313, Note_on_c, 12, 57, 0
15, 77320, Note_on_c, 12, 57, 32
15, 77320, Note_on_c, 12, 64, 32
15, 77353, Note_on_c, 12, 57, 0
15, 77353, Note_on_c, 12, 64, 0
15, 77360, Note_on_c, 12, 57, 32
15, 77360, Note_on_c, 12, 64, 32
15, 77393, Note_on_c, 12, 57, 0
15, 77393, Note_on_c, 12, 64, 0
15, 77400, Note_on_c, 12, 64, 32
15, 77400, Note_on_c, 12, 57, 32
15, 77433, Note_on_c, 12, 64, 0
15, 77433, Note_on_c, 12, 57, 0
15, 77440, Note_on_c, 12, 57, 32
15, 77440, Note_on_c, 12, 64, 32
15, 77473, Note_on_c, 12, 57, 0
15, 77473, Note_on_c, 12, 64, 0
15, 77480, Note_on_c, 12, 57, 32
15, 77480, Note_on_c, 12, 64, 32
15, 77513, Note_on_c, 12, 57, 0
15, 77513, Note_on_c, 12, 64, 0
15, 77520, Note_on_c, 12, 57, 32
15, 77520, Note_on_c, 12, 64, 32
15, 77553, Note_on_c, 12, 57, 0
15, 77553, Note_on_c, 12, 64, 0
15, 77560, Note_on_c, 12, 57, 32
15, 77560, Note_on_c, 12, 64, 32
15, 77593, Note_on_c, 12, 57, 0
15, 77593, Note_on_c, 12, 64, 0
15, 77600, Note_on_c, 12, 64, 32
15, 77600, Note_on_c, 12, 57, 32
15, 77633, Note_on_c, 12, 64, 0
15, 77633, Note_on_c, 12, 57, 0
15, 77640, Note_on_c, 12, 57, 32
15, 77640, Note_on_c, 12, 64, 32
15, 77673, Note_on_c, 12, 57, 0
15, 77673, Note_on_c, 12, 64, 0
15, 77680, Note_on_c, 12, 64, 32
15, 77680, Note_on_c, 12, 57, 32
15, 77713, Note_on_c, 12, 64, 0
15, 77713, Note_on_c, 12, 57, 0
15, 77720, Note_on_c, 12, 57, 32
15, 77720, Note_on_c, 12, 64, 32
15, 77753, Note_on_c, 12, 57, 0
15, 77753, Note_on_c, 12, 64, 0
15, 77760, Note_on_c, 12, 64, 32
15, 77760, Note_on_c, 12, 57, 32
15, 77793, Note_on_c, 12, 64, 0
15, 77793, Note_on_c, 12, 57, 0
15, 77800, Note_on_c, 12, 64, 32
15, 77800, Note_on_c, 12, 57, 32
15, 77833, Note_on_c, 12, 64, 0
15, 77833, Note_on_c, 12, 57, 0
15, 77840, Note_on_c, 12, 64, 32
15, 77840, Note_on_c, 12, 57, 32
15, 77873, Note_on_c, 12, 64, 0
15, 77873, Note_on_c, 12, 57, 0
15, 77880, Note_on_c, 12, 64, 32
15, 77880, Note_on_c, 12, 57, 32
15, 77913, Note_on_c, 12, 64, 0
15, 77913, Note_on_c, 12, 57, 0
15, 77920, Note_on_c, 12, 64, 32
15, 77920, Note_on_c, 12, 57, 32
15, 77953, Note_on_c, 12, 64, 0
15, 77953, Note_on_c, 12, 57, 0
15, 77960, Note_on_c, 12, 64, 32
15, 77960, Note_on_c, 12, 57, 32
15, 77993, Note_on_c, 12, 64, 0
15, 77993, Note_on_c, 12, 57, 0
15, 78000, Note_on_c, 12, 57, 32
15, 78000, Note_on_c, 12, 64, 32
15, 78033, Note_on_c, 12, 57, 0
15, 78033, Note_on_c, 12, 64, 0
15, 78040, Note_on_c, 12, 64, 32
15, 78040, Note_on_c, 12, 57, 32
15, 78073, Note_on_c, 12, 64, 0
15, 78073, Note_on_c, 12, 57, 0
15, 78080, Note_on_c, 12, 57, 32
15, 78080, Note_on_c, 12, 64, 32
15, 78113, Note_on_c, 12, 57, 0
15, 78113, Note_on_c, 12, 64, 0
15, 78120, Note_on_c, 12, 57, 32
15, 78120, Note_on_c, 12, 64, 32
15, 78153, Note_on_c, 12, 57, 0
15, 78153, Note_on_c, 12, 64, 0
15, 78160, Note_on_c, 12, 64, 32
15, 78160, Note_on_c, 12, 57, 32
15, 78193, Note_on_c, 12, 64, 0
15, 78193, Note_on_c, 12, 57, 0
15, 78200, Note_on_c, 12, 57, 32
15, 78200, Note_on_c, 12, 64, 32
15, 78233, Note_on_c, 12, 57, 0
15, 78233, Note_on_c, 12, 64, 0
15, 78240, Note_on_c, 12, 64, 32
15, 78240, Note_on_c, 12, 57, 32
15, 78273, Note_on_c, 12, 64, 0
15, 78273, Note_on_c, 12, 57, 0
15, 78280, Note_on_c, 12, 57, 32
15, 78280, Note_on_c, 12, 64, 32
15, 78313, Note_on_c, 12, 57, 0
15, 78313, Note_on_c, 12, 64, 0
15, 78320, Note_on_c, 12, 57, 32
15, 78320, Note_on_c, 12, 64, 32
15, 78353, Note_on_c, 12, 57, 0
15, 78353, Note_on_c, 12, 64, 0
15, 78360, Note_on_c, 12, 64, 32
15, 78360, Note_on_c, 12, 57, 32
15, 78393, Note_on_c, 12, 64, 0
15, 78393, Note_on_c, 12, 57, 0
15, 78400, Note_on_c, 12, 64, 32
15, 78400, Note_on_c, 12, 57, 32
15, 78433, Note_on_c, 12, 64, 0
15, 78433, Note_on_c, 12, 57, 0
15, 78440, Note_on_c, 12, 57, 32
15, 78440, Note_on_c, 12, 64, 32
15, 78473, Note_on_c, 12, 57, 0
15, 78473, Note_on_c, 12, 64, 0
15, 78480, Note_on_c, 12, 64, 32
15, 78480, Note_on_c, 12, 57, 32
15, 78513, Note_on_c, 12, 64, 0
15, 78513, Note_on_c, 12, 57, 0
15, 78520, Note_on_c, 12, 57, 32
15, 78520, Note_on_c, 12, 64, 32
15, 78553, Note_on_c, 12, 57, 0
15, 78553, Note_on_c, 12, 64, 0
15, 78560, Note_on_c, 12, 57, 32
15, 78560, Note_on_c, 12, 64, 32
15, 78593, Note_on_c, 12, 57, 0
15, 78593, Note_on_c, 12, 64, 0
15, 78600, Note_on_c, 12, 64, 32
15, 78600, Note_on_c, 12, 57, 32
15, 78633, Note_on_c, 12, 64, 0
15, 78633, Note_on_c, 12, 57, 0
15, 78640, Note_on_c, 12, 57, 32
15, 78640, Note_on_c, 12, 64, 32
15, 78673, Note_on_c, 12, 57, 0
15, 78673, Note_on_c, 12, 64, 0
15, 78680, Note_on_c, 12, 64, 32
15, 78680, Note_on_c, 12, 57, 32
15, 78713, Note_on_c, 12, 64, 0
15, 78713, Note_on_c, 12, 57, 0
15, 78720, Note_on_c, 12, 57, 32
15, 78720, Note_on_c, 12, 64, 32
15, 78753, Note_on_c, 12, 57, 0
15, 78753, Note_on_c, 12, 64, 0
15, 78760, Note_on_c, 12, 64, 32
15, 78760, Note_on_c, 12, 57, 32
15, 78793, Note_on_c, 12, 64, 0
15, 78793, Note_on_c, 12, 57, 0
15, 78800, Note_on_c, 12, 57, 32
15, 78800, Note_on_c, 12, 64, 32
15, 78833, Note_on_c, 12, 57, 0
15, 78833, Note_on_c, 12, 64, 0
15, 78840, Note_on_c, 12, 64, 32
15, 78840, Note_on_c, 12, 57, 32
15, 78873, Note_on_c, 12, 64, 0
15, 78873, Note_on_c, 12, 57, 0
15, 78880, Note_on_c, 12, 64, 32
15, 78880, Note_on_c, 12, 57, 32
15, 78913, Note_on_c, 12, 64, 0
15, 78913, Note_on_c, 12, 57, 0
15, 78920, Note_on_c, 12, 57, 32
15, 78920, Note_on_c, 12, 64, 32
15, 78953, Note_on_c, 12, 57, 0
15, 78953, Note_on_c, 12, 64, 0
15, 78960, Note_on_c, 12, 64, 32
15, 78960, Note_on_c, 12, 57, 32
15, 78993, Note_on_c, 12, 64, 0
15, 78993, Note_on_c, 12, 57, 0
15, 79000, Note_on_c, 12, 64, 32
15, 79000, Note_on_c, 12, 57, 32
15, 79033, Note_on_c, 12, 64, 0
15, 79033, Note_on_c, 12, 57, 0
15, 79040, Note_on_c, 12, 64, 32
15, 79040, Note_on_c, 12, 57, 32
15, 79073, Note_on_c, 12, 64, 0
15, 79073, Note_on_c, 12, 57, 0
15, 79080, Note_on_c, 12, 57, 32
15, 79080, Note_on_c, 12, 64, 32
15, 79113, Note_on_c, 12, 57, 0
15, 79113, Note_on_c, 12, 64, 0
15, 79120, Note_on_c, 12, 57, 32
15, 79120, Note_on_c, 12, 64, 32
15, 79153, Note_on_c, 12, 57, 0
15, 79153, Note_on_c, 12, 64, 0
15, 79160, Note_on_c, 12, 57, 32
15, 79160, Note_on_c, 12, 64, 32
15, 79193, Note_on_c, 12, 57, 0
15, 79193, Note_on_c, 12, 64, 0
15, 79200, Note_on_c, 12, 57, 32
15, 79200, Note_on_c, 12, 64, 32
15, 79233, Note_on_c, 12, 57, 0
15, 79233, Note_on_c, 12, 64, 0
15, 79240, Note_on_c, 12, 64, 32
15, 79240, Note_on_c, 12, 57, 32
15, 79273, Note_on_c, 12, 64, 0
15, 79273, Note_on_c, 12, 57, 0
15, 79280, Note_on_c, 12, 64, 32
15, 79280, Note_on_c, 12, 57, 32
15, 79313, Note_on_c, 12, 64, 0
15, 79313, Note_on_c, 12, 57, 0
15, 79320, Note_on_c, 12, 57, 32
15, 79320, Note_on_c, 12, 64, 32
15, 79353, Note_on_c, 12, 57, 0
15, 79353, Note_on_c, 12, 64, 0
15, 79360, Note_on_c, 12, 64, 32
15, 79360, Note_on_c, 12, 57, 32
15, 79393, Note_on_c, 12, 64, 0
15, 79393, Note_on_c, 12, 57, 0
15, 79400, Note_on_c, 12, 64, 32
15, 79400, Note_on_c, 12, 57, 32
15, 79433, Note_on_c, 12, 64, 0
15, 79433, Note_on_c, 12, 57, 0
15, 79440, Note_on_c, 12, 57, 32
15, 79440, Note_on_c, 12, 64, 32
15, 79473, Note_on_c, 12, 57, 0
15, 79473, Note_on_c, 12, 64, 0
15, 79480, Note_on_c, 12, 64, 32
15, 79480, Note_on_c, 12, 57, 32
15, 79513, Note_on_c, 12, 64, 0
15, 79513, Note_on_c, 12, 57, 0
15, 79520, Note_on_c, 12, 57, 32
15, 79520, Note_on_c, 12, 64, 32
15, 79553, Note_on_c, 12, 57, 0
15, 79553, Note_on_c, 12, 64, 0
15, 79560, Note_on_c, 12, 64, 32
15, 79560, Note_on_c, 12, 57, 32
15, 79593, Note_on_c, 12, 64, 0
15, 79593, Note_on_c, 12, 57, 0
15, 79600, Note_on_c, 12, 57, 32
15, 79600, Note_on_c, 12, 64, 32
15, 79633, Note_on_c, 12, 57, 0
15, 79633, Note_on_c, 12, 64, 0
15, 79640, Note_on_c, 12, 64, 32
15, 79640, Note_on_c, 12, 57, 32
15, 79673, Note_on_c, 12, 64, 0
15, 79673, Note_on_c, 12, 57, 0
15, 79680, Note_on_c, 12, 57, 32
15, 79680, Note_on_c, 12, 64, 32
15, 79713, Note_on_c, 12, 57, 0
15, 79713, Note_on_c, 12, 64, 0
15, 79720, Note_on_c, 12, 57, 32
15, 79720, Note_on_c, 12, 64, 32
15, 79753, Note_on_c, 12, 57, 0
15, 79753, Note_on_c, 12, 64, 0
15, 79760, Note_on_c, 12, 57, 32
15, 79760, Note_on_c, 12, 64, 32
15, 79793, Note_on_c, 12, 57, 0
15, 79793, Note_on_c, 12, 64, 0
15, 79800, Note_on_c, 12, 64, 32
15, 79800, Note_on_c, 12, 57, 32
15, 79833, Note_on_c, 12, 64, 0
15, 79833, Note_on_c, 12, 57, 0
15, 79840, Note_on_c, 12, 64, 32
15, 79840, Note_on_c, 12, 57, 32
15, 79873, Note_on_c, 12, 64, 0
15, 79873, Note_on_c, 12, 57, 0
15, 79880, Note_on_c, 12, 57, 32
15, 79880, Note_on_c, 12, 64, 32
15, 79913, Note_on_c, 12, 57, 0
15, 79913, Note_on_c, 12, 64, 0
15, 79920, Note_on_c, 12, 57, 32
15, 79920, Note_on_c, 12, 64, 32
15, 79953, Note_on_c, 12, 57, 0
15, 79953, Note_on_c, 12, 64, 0
15, 79960, Note_on_c, 12, 57, 32
15, 79960, Note_on_c, 12, 64, 32
15, 79993, Note_on_c, 12, 57, 0
15, 79993, Note_on_c, 12, 64, 0
15, 80000, Note_on_c, 12, 64, 32
15, 80000, Note_on_c, 12, 57, 32
15, 80033, Note_on_c, 12, 64, 0
15, 80033, Note_on_c, 12, 57, 0
15, 80040, Note_on_c, 12, 64, 32
15, 80040, Note_on_c, 12, 57, 32
15, 80073, Note_on_c, 12, 64, 0
15, 80073, Note_on_c, 12, 57, 0
15, 80080, Note_on_c, 12, 64, 32
15, 80080, Note_on_c, 12, 57, 32
15, 80113, Note_on_c, 12, 64, 0
15, 80113, Note_on_c, 12, 57, 0
15, 80120, Note_on_c, 12, 57, 32
15, 80120, Note_on_c, 12, 64, 32
15, 80153, Note_on_c, 12, 57, 0
15, 80153, Note_on_c, 12, 64, 0
15, 80160, Note_on_c, 12, 64, 32
15, 80160, Note_on_c, 12, 57, 32
15, 80193, Note_on_c, 12, 64, 0
15, 80193, Note_on_c, 12, 57, 0
15, 80200, Note_on_c, 12, 64, 32
15, 80200, Note_on_c, 12, 57, 32
15, 80233, Note_on_c, 12, 64, 0
15, 80233, Note_on_c, 12, 57, 0
15, 80240, Note_on_c, 12, 64, 32
15, 80240, Note_on_c, 12, 57, 32
15, 80273, Note_on_c, 12, 64, 0
15, 80273, Note_on_c, 12, 57, 0
15, 80280, Note_on_c, 12, 64, 32
15, 80280, Note_on_c, 12, 57, 32
15, 80313, Note_on_c, 12, 64, 0
15, 80313, Note_on_c, 12, 57, 0
15, 80320, Note_on_c, 12, 57, 32
15, 80320, Note_on_c, 12, 64, 32
15, 80353, Note_on_c, 12, 57, 0
15, 80353, Note_on_c, 12, 64, 0
15, 80360, Note_on_c, 12, 64, 32
15, 80360, Note_on_c, 12, 57, 32
15, 80393, Note_on_c, 12, 64, 0
15, 80393, Note_on_c, 12, 57, 0
15, 80400, Note_on_c, 12, 64, 32
15, 80400, Note_on_c, 12, 57, 32
15, 80433, Note_on_c, 12, 64, 0
15, 80433, Note_on_c, 12, 57, 0
15, 80440, Note_on_c, 12, 57, 32
15, 80440, Note_on_c, 12, 64, 32
15, 80473, Note_on_c, 12, 57, 0
15, 80473, Note_on_c, 12, 64, 0
15, 80480, Note_on_c, 12, 64, 32
15, 80480, Note_on_c, 12, 57, 32
15, 80513, Note_on_c, 12, 64, 0
15, 80513, Note_on_c, 12, 57, 0
15, 80520, Note_on_c, 12, 57, 32
15, 80520, Note_on_c, 12, 64, 32
15, 80553, Note_on_c, 12, 57, 0
15, 80553, Note_on_c, 12, 64, 0
15, 80560, Note_on_c, 12, 57, 32
15, 80560, Note_on_c, 12, 64, 32
15, 80593, Note_on_c, 12, 57, 0
15, 80593, Note_on_c, 12, 64, 0
15, 80600, Note_on_c, 12, 57, 32
15, 80600, Note_on_c, 12, 64, 32
15, 80633, Note_on_c, 12, 57, 0
15, 80633, Note_on_c, 12, 64, 0
15, 80640, Note_on_c, 12, 57, 32
15, 80640, Note_on_c, 12, 64, 32
15, 80673, Note_on_c, 12, 57, 0
15, 80673, Note_on_c, 12, 64, 0
15, 80680, Note_on_c, 12, 64, 32
15, 80680, Note_on_c, 12, 57, 32
15, 80713, Note_on_c, 12, 64, 0
15, 80713, Note_on_c, 12, 57, 0
15, 80720, Note_on_c, 12, 57, 32
15, 80720, Note_on_c, 12, 64, 32
15, 80753, Note_on_c, 12, 57, 0
15, 80753, Note_on_c, 12, 64, 0
15, 80760, Note_on_c, 12, 57, 32
15, 80760, Note_on_c, 12, 64, 32
15, 80793, Note_on_c, 12, 57, 0
15, 80793, Note_on_c, 12, 64, 0
15, 80800, Note_on_c, 12, 64, 32
15, 80800, Note_on_c, 12, 57, 32
15, 80833, Note_on_c, 12, 64, 0
15, 80833, Note_on_c, 12, 57, 0
15, 80840, Note_on_c, 12, 57, 32
15, 80840, Note_on_c, 12, 64, 32
15, 80873, Note_on_c, 12, 57, 0
15, 80873, Note_on_c, 12, 64, 0
15, 80880, Note_on_c, 12, 57, 32
15, 80880, Note_on_c, 12, 64, 32
15, 80913, Note_on_c, 12, 57, 0
15, 80913, Note_on_c, 12, 64, 0
15, 80920, Note_on_c, 12, 57, 32
15, 80920, Note_on_c, 12, 64, 32
15, 80953, Note_on_c, 12, 57, 0
15, 80953, Note_on_c, 12, 64, 0
15, 80960, Note_on_c, 12, 64, 32
15, 80960, Note_on_c, 12, 57, 32
15, 80993, Note_on_c, 12, 64, 0
15, 80993, Note_on_c, 12, 57, 0
15, 81000, Note_on_c, 12, 64, 32
15, 81000, Note_on_c, 12, 57, 32
15, 81033, Note_on_c, 12, 64, 0
15, 81033, Note_on_c, 12, 57, 0
15, 81040, Note_on_c, 12, 64, 32
15, 81040, Note_on_c, 12, 57, 32
15, 81073, Note_on_c, 12, 64, 0
15, 81073, Note_on_c, 12, 57, 0
15, 81080, Note_on_c, 12, 57, 32
15, 81080, Note_on_c, 12, 64, 32
15, 81113, Note_on_c, 12, 57, 0
15, 81113, Note_on_c, 12, 64, 0
15, 81120, Note_on_c, 12, 64, 32
15, 81120, Note_on_c, 12, 57, 32
15, 81153, Note_on_c, 12, 64, 0
15, 81153, Note_on_c, 12, 57, 0
15, 81160, Note_on_c, 12, 57, 32
15, 81160, Note_on_c, 12, 69, 32
15, 81193, Note_on_c, 12, 57, 0
15, 81193, Note_on_c, 12, 69, 0
15, 81200, Note_on_c, 12, 57, 32
15, 81200, Note_on_c, 12, 69, 32
15, 81233, Note_on_c, 12, 57, 0
15, 81233, Note_on_c, 12, 69, 0
15, 81240, Note_on_c, 12, 57, 32
15, 81240, Note_on_c, 12, 69, 32
15, 81273, Note_on_c, 12, 57, 0
15, 81273, Note_on_c, 12, 69, 0
15, 81280, Note_on_c, 12, 57, 32
15, 81280, Note_on_c, 12, 69, 32
15, 81313, Note_on_c, 12, 57, 0
15, 81313, Note_on_c, 12, 69, 0
15, 81320, Note_on_c, 12, 69, 32
15, 81320, Note_on_c, 12, 57, 32
15, 81353, Note_on_c, 12, 69, 0
15, 81353, Note_on_c, 12, 57, 0
15, 81360, Note_on_c, 12, 62, 32
15, 81360, Note_on_c, 12, 69, 32
15, 81393, Note_on_c, 12, 62, 0
15, 81393, Note_on_c, 12, 69, 0
15, 81400, Note_on_c, 12, 62, 32
15, 81400, Note_on_c, 12, 69, 32
15, 81433, Note_on_c, 12, 62, 0
15, 81433, Note_on_c, 12, 69, 0
15, 81440, Note_on_c, 12, 62, 32
15, 81440, Note_on_c, 12, 69, 32
15, 81473, Note_on_c, 12, 62, 0
15, 81473, Note_on_c, 12, 69, 0
15, 81480, Note_on_c, 12, 69, 32
15, 81480, Note_on_c, 12, 62, 32
15, 81513, Note_on_c, 12, 69, 0
15, 81513, Note_on_c, 12, 62, 0
15, 81520, Note_on_c, 12, 62, 32
15, 81520, Note_on_c, 12, 69, 32
15, 81553, Note_on_c, 12, 62, 0
15, 81553, Note_on_c, 12, 69, 0
15, 81560, Note_on_c, 12, 62, 32
15, 81560, Note_on_c, 12, 69, 32
15, 81593, Note_on_c, 12, 62, 0
15, 81593, Note_on_c, 12, 69, 0
15, 81600, Note_on_c, 12, 69, 32
15, 81600, Note_on_c, 12, 62, 32
15, 81633, Note_on_c, 12, 69, 0
15, 81633, Note_on_c, 12, 62, 0
15, 81640, Note_on_c, 12, 62, 32
15, 81640, Note_on_c, 12, 69, 32
15, 81673, Note_on_c, 12, 62, 0
15, 81673, Note_on_c, 12, 69, 0
15, 81680, Note_on_c, 12, 69, 32
15, 81680, Note_on_c, 12, 62, 32
15, 81713, Note_on_c, 12, 69, 0
15, 81713, Note_on_c, 12, 62, 0
15, 81720, Note_on_c, 12, 69, 32
15, 81720, Note_on_c, 12, 62, 32
15, 81753, Note_on_c, 12, 69, 0
15, 81753, Note_on_c, 12, 62, 0
15, 81760, Note_on_c, 12, 69, 32
15, 81760, Note_on_c, 12, 62, 32
15, 81793, Note_on_c, 12, 69, 0
15, 81793, Note_on_c, 12, 62, 0
15, 81800, Note_on_c, 12, 69, 32
15, 81800, Note_on_c, 12, 62, 32
15, 81833, Note_on_c, 12, 69, 0
15, 81833, Note_on_c, 12, 62, 0
15, 81840, Note_on_c, 12, 62, 32
15, 81840, Note_on_c, 12, 69, 32
15, 81873, Note_on_c, 12, 62, 0
15, 81873, Note_on_c, 12, 69, 0
15, 81880, Note_on_c, 12, 62, 32
15, 81880, Note_on_c, 12, 69, 32
15, 81913, Note_on_c, 12, 62, 0
15, 81913, Note_on_c, 12, 69, 0
15, 81920, Note_on_c, 12, 62, 32
15, 81920, Note_on_c, 12, 69, 32
15, 81953, Note_on_c, 12, 62, 0
15, 81953, Note_on_c, 12, 69, 0
15, 81960, Note_on_c, 12, 62, 32
15, 81960, Note_on_c, 12, 69, 32
15, 81993, Note_on_c, 12, 62, 0
15, 81993, Note_on_c, 12, 69, 0
15, 82000, Note_on_c, 12, 69, 32
15, 82000, Note_on_c, 12, 62, 32
15, 82033, Note_on_c, 12, 69, 0
15, 82033, Note_on_c, 12, 62, 0
15, 82040, Note_on_c, 12, 62, 32
15, 82040, Note_on_c, 12, 69, 32
15, 82073, Note_on_c, 12, 62, 0
15, 82073, Note_on_c, 12, 69, 0
15, 82080, Note_on_c, 12, 69, 32
15, 82080, Note_on_c, 12, 62, 32
15, 82113, Note_on_c, 12, 69, 0
15, 82113, Note_on_c, 12, 62, 0
15, 82120, Note_on_c, 12, 62, 32
15, 82120, Note_on_c, 12, 69, 32
15, 82153, Note_on_c, 12, 62, 0
15, 82153, Note_on_c, 12, 69, 0
15, 82160, Note_on_c, 12, 69, 32
15, 82160, Note_on_c, 12, 62, 32
15, 82193, Note_on_c, 12, 69, 0
15, 82193, Note_on_c, 12, 62, 0
15, 82200, Note_on_c, 12, 62, 32
15, 82200, Note_on_c, 12, 69, 32
15, 82233, Note_on_c, 12, 62, 0
15, 82233, Note_on_c, 12, 69, 0
15, 82240, Note_on_c, 12, 62, 32
15, 82240, Note_on_c, 12, 69, 32
15, 82273, Note_on_c, 12, 62, 0
15, 82273, Note_on_c, 12, 69, 0
15, 82280, Note_on_c, 12, 69, 32
15, 82280, Note_on_c, 12, 62, 32
15, 82313, Note_on_c, 12, 69, 0
15, 82313, Note_on_c, 12, 62, 0
15, 82320, Note_on_c, 12, 69, 32
15, 82320, Note_on_c, 12, 62, 32
15, 82353, Note_on_c, 12, 69, 0
15, 82353, Note_on_c, 12, 62, 0
15, 82360, Note_on_c, 12, 62, 32
15, 82360, Note_on_c, 12, 69, 32
15, 82393, Note_on_c, 12, 62, 0
15, 82393, Note_on_c, 12, 69, 0
15, 82400, Note_on_c, 12, 69, 32
15, 82400, Note_on_c, 12, 62, 32
15, 82433, Note_on_c, 12, 69, 0
15, 82433, Note_on_c, 12, 62, 0
15, 82440, Note_on_c, 12, 69, 32
15, 82440, Note_on_c, 12, 62, 32
15, 82473, Note_on_c, 12, 69, 0
15, 82473, Note_on_c, 12, 62, 0
15, 82480, Note_on_c, 12, 62, 32
15, 82480, Note_on_c, 12, 69, 32
15, 82513, Note_on_c, 12, 62, 0
15, 82513, Note_on_c, 12, 69, 0
15, 82520, Note_on_c, 12, 69, 32
15, 82520, Note_on_c, 12, 62, 32
15, 82553, Note_on_c, 12, 69, 0
15, 82553, Note_on_c, 12, 62, 0
15, 82560, Note_on_c, 12, 62, 32
15, 82560, Note_on_c, 12, 69, 32
15, 82593, Note_on_c, 12, 62, 0
15, 82593, Note_on_c, 12, 69, 0
15, 82600, Note_on_c, 12, 62, 32
15, 82600, Note_on_c, 12, 69, 32
15, 82633, Note_on_c, 12, 62, 0
15, 82633, Note_on_c, 12, 69, 0
15, 82640, Note_on_c, 12, 62, 32
15, 82640, Note_on_c, 12, 69, 32
15, 82673, Note_on_c, 12, 62, 0
15, 82673, Note_on_c, 12, 69, 0
15, 82680, Note_on_c, 12, 62, 32
15, 82680, Note_on_c, 12, 69, 32
15, 82713, Note_on_c, 12, 62, 0
15, 82713, Note_on_c, 12, 69, 0
15, 82720, Note_on_c, 12, 69, 32
15, 82720, Note_on_c, 12, 62, 32
15, 82753, Note_on_c, 12, 69, 0
15, 82753, Note_on_c, 12, 62, 0
15, 82760, Note_on_c, 12, 69, 32
15, 82760, Note_on_c, 12, 62, 32
15, 82793, Note_on_c, 12, 69, 0
15, 82793, Note_on_c, 12, 62, 0
15, 82800, Note_on_c, 12, 69, 32
15, 82800, Note_on_c, 12, 62, 32
15, 82833, Note_on_c, 12, 69, 0
15, 82833, Note_on_c, 12, 62, 0
15, 82840, Note_on_c, 12, 69, 32
15, 82840, Note_on_c, 12, 62, 32
15, 82873, Note_on_c, 12, 69, 0
15, 82873, Note_on_c, 12, 62, 0
15, 82880, Note_on_c, 12, 62, 32
15, 82880, Note_on_c, 12, 69, 32
15, 82913, Note_on_c, 12, 62, 0
15, 82913, Note_on_c, 12, 69, 0
15, 82920, Note_on_c, 12, 69, 32
15, 82920, Note_on_c, 12, 62, 32
15, 82953, Note_on_c, 12, 69, 0
15, 82953, Note_on_c, 12, 62, 0
15, 82960, Note_on_c, 12, 69, 32
15, 82960, Note_on_c, 12, 62, 32
15, 82993, Note_on_c, 12, 69, 0
15, 82993, Note_on_c, 12, 62, 0
15, 83000, Note_on_c, 12, 69, 32
15, 83000, Note_on_c, 12, 62, 32
15, 83033, Note_on_c, 12, 69, 0
15, 83033, Note_on_c, 12, 62, 0
15, 83040, Note_on_c, 12, 62, 32
15, 83040, Note_on_c, 12, 69, 32
15, 83073, Note_on_c, 12, 62, 0
15, 83073, Note_on_c, 12, 69, 0
15, 83080, Note_on_c, 12, 69, 32
15, 83080, Note_on_c, 12, 62, 32
15, 83113, Note_on_c, 12, 69, 0
15, 83113, Note_on_c, 12, 62, 0
15, 83120, Note_on_c, 12, 62, 32
15, 83120, Note_on_c, 12, 69, 32
15, 83153, Note_on_c, 12, 62, 0
15, 83153, Note_on_c, 12, 69, 0
15, 83160, Note_on_c, 12, 69, 32
15, 83160, Note_on_c, 12, 62, 32
15, 83193, Note_on_c, 12, 69, 0
15, 83193, Note_on_c, 12, 62, 0
15, 83200, Note_on_c, 12, 62, 32
15, 83200, Note_on_c, 12, 69, 32
15, 83233, Note_on_c, 12, 62, 0
15, 83233, Note_on_c, 12, 69, 0
15, 83240, Note_on_c, 12, 62, 32
15, 83240, Note_on_c, 12, 69, 32
15, 83273, Note_on_c, 12, 62, 0
15, 83273, Note_on_c, 12, 69, 0
15, 83280, Note_on_c, 12, 62, 32
15, 83280, Note_on_c, 12, 69, 32
15, 83313, Note_on_c, 12, 62, 0
15, 83313, Note_on_c, 12, 69, 0
15, 83320, Note_on_c, 12, 69, 32
15, 83320, Note_on_c, 12, 62, 32
15, 83353, Note_on_c, 12, 69, 0
15, 83353, Note_on_c, 12, 62, 0
15, 83360, Note_on_c, 12, 62, 32
15, 83360, Note_on_c, 12, 69, 32
15, 83393, Note_on_c, 12, 62, 0
15, 83393, Note_on_c, 12, 69, 0
15, 83400, Note_on_c, 12, 62, 32
15, 83400, Note_on_c, 12, 69, 32
15, 83433, Note_on_c, 12, 62, 0
15, 83433, Note_on_c, 12, 69, 0
15, 83440, Note_on_c, 12, 62, 32
15, 83440, Note_on_c, 12, 69, 32
15, 83473, Note_on_c, 12, 62, 0
15, 83473, Note_on_c, 12, 69, 0
15, 83480, Note_on_c, 12, 62, 32
15, 83480, Note_on_c, 12, 69, 32
15, 83513, Note_on_c, 12, 62, 0
15, 83513, Note_on_c, 12, 69, 0
15, 83520, Note_on_c, 12, 62, 32
15, 83520, Note_on_c, 12, 69, 32
15, 83553, Note_on_c, 12, 62, 0
15, 83553, Note_on_c, 12, 69, 0
15, 83560, Note_on_c, 12, 62, 32
15, 83560, Note_on_c, 12, 69, 32
15, 83593, Note_on_c, 12, 62, 0
15, 83593, Note_on_c, 12, 69, 0
15, 83600, Note_on_c, 12, 69, 32
15, 83600, Note_on_c, 12, 62, 32
15, 83633, Note_on_c, 12, 69, 0
15, 83633, Note_on_c, 12, 62, 0
15, 83640, Note_on_c, 12, 62, 32
15, 83640, Note_on_c, 12, 69, 32
15, 83673, Note_on_c, 12, 62, 0
15, 83673, Note_on_c, 12, 69, 0
15, 83680, Note_on_c, 12, 69, 32
15, 83680, Note_on_c, 12, 62, 32
15, 83713, Note_on_c, 12, 69, 0
15, 83713, Note_on_c, 12, 62, 0
15, 83720, Note_on_c, 12, 62, 32
15, 83720, Note_on_c, 12, 69, 32
15, 83753, Note_on_c, 12, 62, 0
15, 83753, Note_on_c, 12, 69, 0
15, 83760, Note_on_c, 12, 69, 32
15, 83760, Note_on_c, 12, 62, 32
15, 83793, Note_on_c, 12, 69, 0
15, 83793, Note_on_c, 12, 62, 0
15, 83800, Note_on_c, 12, 62, 32
15, 83800, Note_on_c, 12, 69, 32
15, 83833, Note_on_c, 12, 62, 0
15, 83833, Note_on_c, 12, 69, 0
15, 83840, Note_on_c, 12, 69, 32
15, 83840, Note_on_c, 12, 62, 32
15, 83873, Note_on_c, 12, 69, 0
15, 83873, Note_on_c, 12, 62, 0
15, 83880, Note_on_c, 12, 62, 32
15, 83880, Note_on_c, 12, 69, 32
15, 83913, Note_on_c, 12, 62, 0
15, 83913, Note_on_c, 12, 69, 0
15, 83920, Note_on_c, 12, 69, 32
15, 83920, Note_on_c, 12, 62, 32
15, 83953, Note_on_c, 12, 69, 0
15, 83953, Note_on_c, 12, 62, 0
15, 83960, Note_on_c, 12, 69, 32
15, 83960, Note_on_c, 12, 62, 32
15, 83993, Note_on_c, 12, 69, 0
15, 83993, Note_on_c, 12, 62, 0
15, 84000, Note_on_c, 12, 62, 32
15, 84000, Note_on_c, 12, 69, 32
15, 84033, Note_on_c, 12, 62, 0
15, 84033, Note_on_c, 12, 69, 0
15, 84040, Note_on_c, 12, 62, 32
15, 84040, Note_on_c, 12, 69, 32
15, 84073, Note_on_c, 12, 62, 0
15, 84073, Note_on_c, 12, 69, 0
15, 84080, Note_on_c, 12, 62, 32
15, 84080, Note_on_c, 12, 69, 32
15, 84113, Note_on_c, 12, 62, 0
15, 84113, Note_on_c, 12, 69, 0
15, 84120, Note_on_c, 12, 69, 32
15, 84120, Note_on_c, 12, 62, 32
15, 84153, Note_on_c, 12, 69, 0
15, 84153, Note_on_c, 12, 62, 0
15, 84160, Note_on_c, 12, 69, 32
15, 84160, Note_on_c, 12, 62, 32
15, 84193, Note_on_c, 12, 69, 0
15, 84193, Note_on_c, 12, 62, 0
15, 84200, Note_on_c, 12, 69, 32
15, 84200, Note_on_c, 12, 62, 32
15, 84233, Note_on_c, 12, 69, 0
15, 84233, Note_on_c, 12, 62, 0
15, 84240, Note_on_c, 12, 69, 32
15, 84240, Note_on_c, 12, 62, 32
15, 84273, Note_on_c, 12, 69, 0
15, 84273, Note_on_c, 12, 62, 0
15, 84280, Note_on_c, 12, 69, 32
15, 84280, Note_on_c, 12, 62, 32
15, 84313, Note_on_c, 12, 69, 0
15, 84313, Note_on_c, 12, 62, 0
15, 84320, Note_on_c, 12, 62, 32
15, 84320, Note_on_c, 12, 69, 32
15, 84353, Note_on_c, 12, 62, 0
15, 84353, Note_on_c, 12, 69, 0
15, 84360, Note_on_c, 12, 62, 32
15, 84360, Note_on_c, 12, 69, 32
15, 84393, Note_on_c, 12, 62, 0
15, 84393, Note_on_c, 12, 69, 0
15, 84400, Note_on_c, 12, 62, 32
15, 84400, Note_on_c, 12, 69, 32
15, 84433, Note_on_c, 12, 62, 0
15, 84433, Note_on_c, 12, 69, 0
15, 84440, Note_on_c, 12, 69, 32
15, 84440, Note_on_c, 12, 62, 32
15, 84473, Note_on_c, 12, 69, 0
15, 84473, Note_on_c, 12, 62, 0
15, 84480, Note_on_c, 12, 62, 32
15, 84480, Note_on_c, 12, 69, 32
15, 84513, Note_on_c, 12, 62, 0
15, 84513, Note_on_c, 12, 69, 0
15, 84520, Note_on_c, 12, 62, 32
15, 84520, Note_on_c, 12, 69, 32
15, 84553, Note_on_c, 12, 62, 0
15, 84553, Note_on_c, 12, 69, 0
15, 84560, Note_on_c, 12, 62, 32
15, 84560, Note_on_c, 12, 69, 32
15, 84593, Note_on_c, 12, 62, 0
15, 84593, Note_on_c, 12, 69, 0
15, 84600, Note_on_c, 12, 69, 32
15, 84600, Note_on_c, 12, 62, 32
15, 84633, Note_on_c, 12, 69, 0
15, 84633, Note_on_c, 12, 62, 0
15, 84640, Note_on_c, 12, 69, 32
15, 84640, Note_on_c, 12, 62, 32
15, 84673, Note_on_c, 12, 69, 0
15, 84673, Note_on_c, 12, 62, 0
15, 84680, Note_on_c, 12, 62, 32
15, 84680, Note_on_c, 12, 69, 32
15, 84713, Note_on_c, 12, 62, 0
15, 84713, Note_on_c, 12, 69, 0
15, 84720, Note_on_c, 12, 69, 32
15, 84720, Note_on_c, 12, 62, 32
15, 84753, Note_on_c, 12, 69, 0
15, 84753, Note_on_c, 12, 62, 0
15, 84760, Note_on_c, 12, 69, 32
15, 84760, Note_on_c, 12, 62, 32
15, 84793, Note_on_c, 12, 69, 0
15, 84793, Note_on_c, 12, 62, 0
15, 84800, Note_on_c, 12, 69, 32
15, 84800, Note_on_c, 12, 62, 32
15, 84833, Note_on_c, 12, 69, 0
15, 84833, Note_on_c, 12, 62, 0
15, 84840, Note_on_c, 12, 62, 32
15, 84840, Note_on_c, 12, 69, 32
15, 84873, Note_on_c, 12, 62, 0
15, 84873, Note_on_c, 12, 69, 0
15, 84880, Note_on_c, 12, 69, 32
15, 84880, Note_on_c, 12, 62, 32
15, 84913, Note_on_c, 12, 69, 0
15, 84913, Note_on_c, 12, 62, 0
15, 84920, Note_on_c, 12, 62, 32
15, 84920, Note_on_c, 12, 69, 32
15, 84953, Note_on_c, 12, 62, 0
15, 84953, Note_on_c, 12, 69, 0
15, 84960, Note_on_c, 12, 69, 32
15, 84960, Note_on_c, 12, 62, 32
15, 84993, Note_on_c, 12, 69, 0
15, 84993, Note_on_c, 12, 62, 0
15, 85000, Note_on_c, 12, 62, 32
15, 85000, Note_on_c, 12, 69, 32
15, 85033, Note_on_c, 12, 62, 0
15, 85033, Note_on_c, 12, 69, 0
15, 85040, Note_on_c, 12, 62, 32
15, 85040, Note_on_c, 12, 69, 32
15, 85073, Note_on_c, 12, 62, 0
15, 85073, Note_on_c, 12, 69, 0
15, 85080, Note_on_c, 12, 69, 32
15, 85080, Note_on_c, 12, 62, 32
15, 85113, Note_on_c, 12, 69, 0
15, 85113, Note_on_c, 12, 62, 0
15, 85120, Note_on_c, 12, 69, 32
15, 85120, Note_on_c, 12, 62, 32
15, 85153, Note_on_c, 12, 69, 0
15, 85153, Note_on_c, 12, 62, 0
15, 85160, Note_on_c, 12, 69, 32
15, 85160, Note_on_c, 12, 62, 32
15, 85193, Note_on_c, 12, 69, 0
15, 85193, Note_on_c, 12, 62, 0
15, 85200, Note_on_c, 12, 70, 32
15, 85200, Note_on_c, 12, 62, 32
15, 85233, Note_on_c, 12, 70, 0
15, 85233, Note_on_c, 12, 62, 0
15, 85240, Note_on_c, 12, 62, 32
15, 85240, Note_on_c, 12, 70, 32
15, 85273, Note_on_c, 12, 62, 0
15, 85273, Note_on_c, 12, 70, 0
15, 85280, Note_on_c, 12, 70, 32
15, 85280, Note_on_c, 12, 62, 32
15, 85313, Note_on_c, 12, 70, 0
15, 85313, Note_on_c, 12, 62, 0
15, 85320, Note_on_c, 12, 70, 32
15, 85320, Note_on_c, 12, 62, 32
15, 85353, Note_on_c, 12, 70, 0
15, 85353, Note_on_c, 12, 62, 0
15, 85360, Note_on_c, 12, 62, 32
15, 85360, Note_on_c, 12, 70, 32
15, 85393, Note_on_c, 12, 62, 0
15, 85393, Note_on_c, 12, 70, 0
15, 85400, Note_on_c, 12, 70, 32
15, 85400, Note_on_c, 12, 62, 32
15, 85433, Note_on_c, 12, 70, 0
15, 85433, Note_on_c, 12, 62, 0
15, 85440, Note_on_c, 12, 70, 32
15, 85440, Note_on_c, 12, 62, 32
15, 85473, Note_on_c, 12, 70, 0
15, 85473, Note_on_c, 12, 62, 0
15, 85480, Note_on_c, 12, 70, 32
15, 85480, Note_on_c, 12, 62, 32
15, 85513, Note_on_c, 12, 70, 0
15, 85513, Note_on_c, 12, 62, 0
15, 85520, Note_on_c, 12, 62, 32
15, 85520, Note_on_c, 12, 70, 32
15, 85553, Note_on_c, 12, 62, 0
15, 85553, Note_on_c, 12, 70, 0
15, 85560, Note_on_c, 12, 62, 32
15, 85560, Note_on_c, 12, 70, 32
15, 85593, Note_on_c, 12, 62, 0
15, 85593, Note_on_c, 12, 70, 0
15, 85600, Note_on_c, 12, 70, 32
15, 85600, Note_on_c, 12, 62, 32
15, 85633, Note_on_c, 12, 70, 0
15, 85633, Note_on_c, 12, 62, 0
15, 85640, Note_on_c, 12, 62, 32
15, 85640, Note_on_c, 12, 70, 32
15, 85673, Note_on_c, 12, 62, 0
15, 85673, Note_on_c, 12, 70, 0
15, 85680, Note_on_c, 12, 62, 32
15, 85680, Note_on_c, 12, 70, 32
15, 85713, Note_on_c, 12, 62, 0
15, 85713, Note_on_c, 12, 70, 0
15, 85720, Note_on_c, 12, 70, 32
15, 85720, Note_on_c, 12, 62, 32
15, 85753, Note_on_c, 12, 70, 0
15, 85753, Note_on_c, 12, 62, 0
15, 85760, Note_on_c, 12, 70, 32
15, 85760, Note_on_c, 12, 62, 32
15, 85793, Note_on_c, 12, 70, 0
15, 85793, Note_on_c, 12, 62, 0
15, 85800, Note_on_c, 12, 70, 32
15, 85800, Note_on_c, 12, 62, 32
15, 85833, Note_on_c, 12, 70, 0
15, 85833, Note_on_c, 12, 62, 0
15, 85840, Note_on_c, 12, 70, 32
15, 85840, Note_on_c, 12, 62, 32
15, 85873, Note_on_c, 12, 70, 0
15, 85873, Note_on_c, 12, 62, 0
15, 85880, Note_on_c, 12, 62, 32
15, 85880, Note_on_c, 12, 70, 32
15, 85913, Note_on_c, 12, 62, 0
15, 85913, Note_on_c, 12, 70, 0
15, 85920, Note_on_c, 12, 62, 32
15, 85920, Note_on_c, 12, 70, 32
15, 85953, Note_on_c, 12, 62, 0
15, 85953, Note_on_c, 12, 70, 0
15, 85960, Note_on_c, 12, 70, 32
15, 85960, Note_on_c, 12, 62, 32
15, 85993, Note_on_c, 12, 70, 0
15, 85993, Note_on_c, 12, 62, 0
15, 86000, Note_on_c, 12, 62, 32
15, 86000, Note_on_c, 12, 70, 32
15, 86033, Note_on_c, 12, 62, 0
15, 86033, Note_on_c, 12, 70, 0
15, 86040, Note_on_c, 12, 70, 32
15, 86040, Note_on_c, 12, 62, 32
15, 86073, Note_on_c, 12, 70, 0
15, 86073, Note_on_c, 12, 62, 0
15, 86080, Note_on_c, 12, 70, 32
15, 86080, Note_on_c, 12, 62, 32
15, 86113, Note_on_c, 12, 70, 0
15, 86113, Note_on_c, 12, 62, 0
15, 86120, Note_on_c, 12, 70, 32
15, 86120, Note_on_c, 12, 62, 32
15, 86153, Note_on_c, 12, 70, 0
15, 86153, Note_on_c, 12, 62, 0
15, 86160, Note_on_c, 12, 70, 32
15, 86160, Note_on_c, 12, 62, 32
15, 86193, Note_on_c, 12, 70, 0
15, 86193, Note_on_c, 12, 62, 0
15, 86200, Note_on_c, 12, 62, 32
15, 86200, Note_on_c, 12, 70, 32
15, 86233, Note_on_c, 12, 62, 0
15, 86233, Note_on_c, 12, 70, 0
15, 86240, Note_on_c, 12, 70, 32
15, 86240, Note_on_c, 12, 62, 32
15, 86273, Note_on_c, 12, 70, 0
15, 86273, Note_on_c, 12, 62, 0
15, 86280, Note_on_c, 12, 62, 32
15, 86280, Note_on_c, 12, 70, 32
15, 86313, Note_on_c, 12, 62, 0
15, 86313, Note_on_c, 12, 70, 0
15, 86320, Note_on_c, 12, 62, 32
15, 86320, Note_on_c, 12, 70, 32
15, 86353, Note_on_c, 12, 62, 0
15, 86353, Note_on_c, 12, 70, 0
15, 86360, Note_on_c, 12, 70, 32
15, 86360, Note_on_c, 12, 62, 32
15, 86393, Note_on_c, 12, 70, 0
15, 86393, Note_on_c, 12, 62, 0
15, 86400, Note_on_c, 12, 62, 32
15, 86400, Note_on_c, 12, 70, 32
15, 86433, Note_on_c, 12, 62, 0
15, 86433, Note_on_c, 12, 70, 0
15, 86440, Note_on_c, 12, 70, 32
15, 86440, Note_on_c, 12, 62, 32
15, 86473, Note_on_c, 12, 70, 0
15, 86473, Note_on_c, 12, 62, 0
15, 86480, Note_on_c, 12, 62, 32
15, 86480, Note_on_c, 12, 70, 32
15, 86513, Note_on_c, 12, 62, 0
15, 86513, Note_on_c, 12, 70, 0
15, 86520, Note_on_c, 12, 62, 32
15, 86520, Note_on_c, 12, 70, 32
15, 86553, Note_on_c, 12, 62, 0
15, 86553, Note_on_c, 12, 70, 0
15, 86560, Note_on_c, 12, 70, 32
15, 86560, Note_on_c, 12, 62, 32
15, 86593, Note_on_c, 12, 70, 0
15, 86593, Note_on_c, 12, 62, 0
15, 86600, Note_on_c, 12, 70, 32
15, 86600, Note_on_c, 12, 62, 32
15, 86633, Note_on_c, 12, 70, 0
15, 86633, Note_on_c, 12, 62, 0
15, 86640, Note_on_c, 12, 70, 32
15, 86640, Note_on_c, 12, 62, 32
15, 86673, Note_on_c, 12, 70, 0
15, 86673, Note_on_c, 12, 62, 0
15, 86680, Note_on_c, 12, 62, 32
15, 86680, Note_on_c, 12, 70, 32
15, 86713, Note_on_c, 12, 62, 0
15, 86713, Note_on_c, 12, 70, 0
15, 86720, Note_on_c, 12, 70, 32
15, 86720, Note_on_c, 12, 62, 32
15, 86753, Note_on_c, 12, 70, 0
15, 86753, Note_on_c, 12, 62, 0
15, 86760, Note_on_c, 12, 62, 32
15, 86760, Note_on_c, 12, 70, 32
15, 86793, Note_on_c, 12, 62, 0
15, 86793, Note_on_c, 12, 70, 0
15, 86800, Note_on_c, 12, 62, 32
15, 86800, Note_on_c, 12, 70, 32
15, 86833, Note_on_c, 12, 62, 0
15, 86833, Note_on_c, 12, 70, 0
15, 86840, Note_on_c, 12, 70, 32
15, 86840, Note_on_c, 12, 62, 32
15, 86873, Note_on_c, 12, 70, 0
15, 86873, Note_on_c, 12, 62, 0
15, 86880, Note_on_c, 12, 62, 32
15, 86880, Note_on_c, 12, 70, 32
15, 86913, Note_on_c, 12, 62, 0
15, 86913, Note_on_c, 12, 70, 0
15, 86920, Note_on_c, 12, 58, 32
15, 86920, Note_on_c, 12, 62, 32
15, 86953, Note_on_c, 12, 58, 0
15, 86953, Note_on_c, 12, 62, 0
15, 86960, Note_on_c, 12, 62, 32
15, 86960, Note_on_c, 12, 58, 32
15, 86993, Note_on_c, 12, 62, 0
15, 86993, Note_on_c, 12, 58, 0
15, 87000, Note_on_c, 12, 62, 32
15, 87000, Note_on_c, 12, 58, 32
15, 87033, Note_on_c, 12, 62, 0
15, 87033, Note_on_c, 12, 58, 0
15, 87040, Note_on_c, 12, 62, 32
15, 87040, Note_on_c, 12, 58, 32
15, 87073, Note_on_c, 12, 62, 0
15, 87073, Note_on_c, 12, 58, 0
15, 87080, Note_on_c, 12, 62, 32
15, 87080, Note_on_c, 12, 58, 32
15, 87113, Note_on_c, 12, 62, 0
15, 87113, Note_on_c, 12, 58, 0
15, 87120, Note_on_c, 12, 58, 32
15, 87120, Note_on_c, 12, 62, 32
15, 87153, Note_on_c, 12, 58, 0
15, 87153, Note_on_c, 12, 62, 0
15, 87160, Note_on_c, 12, 62, 32
15, 87160, Note_on_c, 12, 58, 32
15, 87193, Note_on_c, 12, 62, 0
15, 87193, Note_on_c, 12, 58, 0
15, 87200, Note_on_c, 12, 62, 32
15, 87200, Note_on_c, 12, 58, 32
15, 87233, Note_on_c, 12, 62, 0
15, 87233, Note_on_c, 12, 58, 0
15, 87240, Note_on_c, 12, 58, 32
15, 87240, Note_on_c, 12, 62, 32
15, 87273, Note_on_c, 12, 58, 0
15, 87273, Note_on_c, 12, 62, 0
15, 87280, Note_on_c, 12, 58, 32
15, 87280, Note_on_c, 12, 62, 32
15, 87313, Note_on_c, 12, 58, 0
15, 87313, Note_on_c, 12, 62, 0
15, 87320, Note_on_c, 12, 62, 32
15, 87320, Note_on_c, 12, 58, 32
15, 87353, Note_on_c, 12, 62, 0
15, 87353, Note_on_c, 12, 58, 0
15, 87360, Note_on_c, 12, 62, 32
15, 87360, Note_on_c, 12, 58, 32
15, 87393, Note_on_c, 12, 62, 0
15, 87393, Note_on_c, 12, 58, 0
15, 87400, Note_on_c, 12, 62, 32
15, 87400, Note_on_c, 12, 58, 32
15, 87433, Note_on_c, 12, 62, 0
15, 87433, Note_on_c, 12, 58, 0
15, 87440, Note_on_c, 12, 62, 32
15, 87440, Note_on_c, 12, 58, 32
15, 87473, Note_on_c, 12, 62, 0
15, 87473, Note_on_c, 12, 58, 0
15, 87480, Note_on_c, 12, 58, 32
15, 87480, Note_on_c, 12, 62, 32
15, 87513, Note_on_c, 12, 58, 0
15, 87513, Note_on_c, 12, 62, 0
15, 87520, Note_on_c, 12, 62, 32
15, 87520, Note_on_c, 12, 58, 32
15, 87553, Note_on_c, 12, 62, 0
15, 87553, Note_on_c, 12, 58, 0
15, 87560, Note_on_c, 12, 62, 32
15, 87560, Note_on_c, 12, 58, 32
15, 87593, Note_on_c, 12, 62, 0
15, 87593, Note_on_c, 12, 58, 0
15, 87600, Note_on_c, 12, 58, 32
15, 87600, Note_on_c, 12, 62, 32
15, 87633, Note_on_c, 12, 58, 0
15, 87633, Note_on_c, 12, 62, 0
15, 87640, Note_on_c, 12, 58, 32
15, 87640, Note_on_c, 12, 62, 32
15, 87673, Note_on_c, 12, 58, 0
15, 87673, Note_on_c, 12, 62, 0
15, 87680, Note_on_c, 12, 58, 32
15, 87680, Note_on_c, 12, 62, 32
15, 87713, Note_on_c, 12, 58, 0
15, 87713, Note_on_c, 12, 62, 0
15, 87720, Note_on_c, 12, 62, 32
15, 87720, Note_on_c, 12, 70, 32
15, 87753, Note_on_c, 12, 62, 0
15, 87753, Note_on_c, 12, 70, 0
15, 87760, Note_on_c, 12, 70, 32
15, 87760, Note_on_c, 12, 62, 32
15, 87793, Note_on_c, 12, 70, 0
15, 87793, Note_on_c, 12, 62, 0
15, 87800, Note_on_c, 12, 70, 32
15, 87800, Note_on_c, 12, 62, 32
15, 87833, Note_on_c, 12, 70, 0
15, 87833, Note_on_c, 12, 62, 0
15, 87840, Note_on_c, 12, 72, 32
15, 87840, Note_on_c, 12, 66, 32
15, 87873, Note_on_c, 12, 72, 0
15, 87873, Note_on_c, 12, 66, 0
15, 87880, Note_on_c, 12, 72, 32
15, 87880, Note_on_c, 12, 66, 32
15, 87913, Note_on_c, 12, 72, 0
15, 87913, Note_on_c, 12, 66, 0
15, 87920, Note_on_c, 12, 66, 32
15, 87920, Note_on_c, 12, 72, 32
15, 87953, Note_on_c, 12, 66, 0
15, 87953, Note_on_c, 12, 72, 0
15, 87960, Note_on_c, 12, 72, 32
15, 87960, Note_on_c, 12, 66, 32
15, 87993, Note_on_c, 12, 72, 0
15, 87993, Note_on_c, 12, 66, 0
15, 88000, Note_on_c, 12, 72, 32
15, 88000, Note_on_c, 12, 66, 32
15, 88033, Note_on_c, 12, 72, 0
15, 88033, Note_on_c, 12, 66, 0
15, 88040, Note_on_c, 12, 66, 32
15, 88040, Note_on_c, 12, 72, 32
15, 88073, Note_on_c, 12, 66, 0
15, 88073, Note_on_c, 12, 72, 0
15, 88080, Note_on_c, 12, 66, 32
15, 88080, Note_on_c, 12, 72, 32
15, 88113, Note_on_c, 12, 66, 0
15, 88113, Note_on_c, 12, 72, 0
15, 88120, Note_on_c, 12, 72, 32
15, 88120, Note_on_c, 12, 66, 32
15, 88153, Note_on_c, 12, 72, 0
15, 88153, Note_on_c, 12, 66, 0
15, 88160, Note_on_c, 12, 66, 32
15, 88160, Note_on_c, 12, 72, 32
15, 88193, Note_on_c, 12, 66, 0
15, 88193, Note_on_c, 12, 72, 0
15, 88200, Note_on_c, 12, 72, 32
15, 88200, Note_on_c, 12, 66, 32
15, 88233, Note_on_c, 12, 72, 0
15, 88233, Note_on_c, 12, 66, 0
15, 88240, Note_on_c, 12, 72, 32
15, 88240, Note_on_c, 12, 66, 32
15, 88273, Note_on_c, 12, 72, 0
15, 88273, Note_on_c, 12, 66, 0
15, 88280, Note_on_c, 12, 72, 32
15, 88280, Note_on_c, 12, 66, 32
15, 88313, Note_on_c, 12, 72, 0
15, 88313, Note_on_c, 12, 66, 0
15, 88320, Note_on_c, 12, 66, 32
15, 88320, Note_on_c, 12, 72, 32
15, 88353, Note_on_c, 12, 66, 0
15, 88353, Note_on_c, 12, 72, 0
15, 88360, Note_on_c, 12, 66, 32
15, 88360, Note_on_c, 12, 72, 32
15, 88393, Note_on_c, 12, 66, 0
15, 88393, Note_on_c, 12, 72, 0
15, 88400, Note_on_c, 12, 72, 32
15, 88400, Note_on_c, 12, 66, 32
15, 88433, Note_on_c, 12, 72, 0
15, 88433, Note_on_c, 12, 66, 0
15, 88440, Note_on_c, 12, 66, 32
15, 88440, Note_on_c, 12, 72, 32
15, 88473, Note_on_c, 12, 66, 0
15, 88473, Note_on_c, 12, 72, 0
15, 88480, Note_on_c, 12, 66, 32
15, 88480, Note_on_c, 12, 72, 32
15, 88513, Note_on_c, 12, 66, 0
15, 88513, Note_on_c, 12, 72, 0
15, 88520, Note_on_c, 12, 72, 32
15, 88520, Note_on_c, 12, 66, 32
15, 88553, Note_on_c, 12, 72, 0
15, 88553, Note_on_c, 12, 66, 0
15, 88560, Note_on_c, 12, 72, 32
15, 88560, Note_on_c, 12, 66, 32
15, 88593, Note_on_c, 12, 72, 0
15, 88593, Note_on_c, 12, 66, 0
15, 88600, Note_on_c, 12, 72, 32
15, 88600, Note_on_c, 12, 66, 32
15, 88633, Note_on_c, 12, 72, 0
15, 88633, Note_on_c, 12, 66, 0
15, 88640, Note_on_c, 12, 72, 32
15, 88640, Note_on_c, 12, 66, 32
15, 88673, Note_on_c, 12, 72, 0
15, 88673, Note_on_c, 12, 66, 0
15, 88680, Note_on_c, 12, 72, 32
15, 88680, Note_on_c, 12, 66, 32
15, 88713, Note_on_c, 12, 72, 0
15, 88713, Note_on_c, 12, 66, 0
15, 88720, Note_on_c, 12, 66, 32
15, 88720, Note_on_c, 12, 72, 32
15, 88753, Note_on_c, 12, 66, 0
15, 88753, Note_on_c, 12, 72, 0
15, 88760, Note_on_c, 12, 72, 32
15, 88760, Note_on_c, 12, 66, 32
15, 88793, Note_on_c, 12, 72, 0
15, 88793, Note_on_c, 12, 66, 0
15, 88800, Note_on_c, 12, 69, 32
15, 88800, Note_on_c, 12, 72, 32
15, 88833, Note_on_c, 12, 69, 0
15, 88833, Note_on_c, 12, 72, 0
15, 88840, Note_on_c, 12, 69, 34
15, 88840, Note_on_c, 12, 72, 34
15, 88873, Note_on_c, 12, 69, 0
15, 88873, Note_on_c, 12, 72, 0
15, 88880, Note_on_c, 12, 72, 37
15, 88880, Note_on_c, 12, 69, 37
15, 88913, Note_on_c, 12, 72, 0
15, 88913, Note_on_c, 12, 69, 0
15, 88920, Note_on_c, 12, 69, 39
15, 88920, Note_on_c, 12, 72, 39
15, 88953, Note_on_c, 12, 69, 0
15, 88953, Note_on_c, 12, 72, 0
15, 88960, Note_on_c, 12, 72, 42
15, 88960, Note_on_c, 12, 69, 42
15, 88993, Note_on_c, 12, 72, 0
15, 88993, Note_on_c, 12, 69, 0
15, 89000, Note_on_c, 12, 72, 44
15, 89000, Note_on_c, 12, 69, 44
15, 89033, Note_on_c, 12, 72, 0
15, 89033, Note_on_c, 12, 69, 0
15, 89040, Note_on_c, 12, 69, 47
15, 89040, Note_on_c, 12, 72, 47
15, 89073, Note_on_c, 12, 69, 0
15, 89073, Note_on_c, 12, 72, 0
15, 89080, Note_on_c, 12, 69, 49
15, 89080, Note_on_c, 12, 72, 49
15, 89113, Note_on_c, 12, 69, 0
15, 89113, Note_on_c, 12, 72, 0
15, 89120, Note_on_c, 12, 72, 52
15, 89120, Note_on_c, 12, 69, 52
15, 89153, Note_on_c, 12, 72, 0
15, 89153, Note_on_c, 12, 69, 0
15, 89160, Note_on_c, 12, 72, 54
15, 89160, Note_on_c, 12, 69, 54
15, 89193, Note_on_c, 12, 72, 0
15, 89193, Note_on_c, 12, 69, 0
15, 89200, Note_on_c, 12, 72, 57
15, 89200, Note_on_c, 12, 69, 57
15, 89233, Note_on_c, 12, 72, 0
15, 89233, Note_on_c, 12, 69, 0
15, 89240, Note_on_c, 12, 72, 59
15, 89240, Note_on_c, 12, 69, 59
15, 89273, Note_on_c, 12, 72, 0
15, 89273, Note_on_c, 12, 69, 0
15, 89280, Note_on_c, 12, 72, 62
15, 89280, Note_on_c, 12, 69, 62
15, 89313, Note_on_c, 12, 72, 0
15, 89313, Note_on_c, 12, 69, 0
15, 89320, Note_on_c, 12, 72, 64
15, 89320, Note_on_c, 12, 69, 64
15, 89353, Note_on_c, 12, 72, 0
15, 89353, Note_on_c, 12, 69, 0
15, 89360, Note_on_c, 12, 69, 67
15, 89360, Note_on_c, 12, 72, 67
15, 89393, Note_on_c, 12, 69, 0
15, 89393, Note_on_c, 12, 72, 0
15, 89400, Note_on_c, 12, 69, 69
15, 89400, Note_on_c, 12, 72, 69
15, 89433, Note_on_c, 12, 69, 0
15, 89433, Note_on_c, 12, 72, 0
15, 89440, Note_on_c, 12, 72, 72
15, 89440, Note_on_c, 12, 69, 72
15, 89473, Note_on_c, 12, 72, 0
15, 89473, Note_on_c, 12, 69, 0
15, 89480, Note_on_c, 12, 72, 74
15, 89480, Note_on_c, 12, 69, 74
15, 89513, Note_on_c, 12, 72, 0
15, 89513, Note_on_c, 12, 69, 0
15, 89520, Note_on_c, 12, 72, 77
15, 89520, Note_on_c, 12, 69, 77
15, 89553, Note_on_c, 12, 72, 0
15, 89553, Note_on_c, 12, 69, 0
15, 89560, Note_on_c, 12, 72, 79
15, 89560, Note_on_c, 12, 69, 79
15, 89593, Note_on_c, 12, 72, 0
15, 89593, Note_on_c, 12, 69, 0
15, 89600, Note_on_c, 12, 69, 82
15, 89600, Note_on_c, 12, 72, 82
15, 89633, Note_on_c, 12, 69, 0
15, 89633, Note_on_c, 12, 72, 0
15, 89640, Note_on_c, 12, 69, 84
15, 89640, Note_on_c, 12, 72, 84
15, 89673, Note_on_c, 12, 69, 0
15, 89673, Note_on_c, 12, 72, 0
15, 89680, Note_on_c, 12, 69, 87
15, 89680, Note_on_c, 12, 72, 87
15, 89713, Note_on_c, 12, 69, 0
15, 89713, Note_on_c, 12, 72, 0
15, 89720, Note_on_c, 12, 69, 89
15, 89720, Note_on_c, 12, 72, 89
15, 89753, Note_on_c, 12, 69, 0
15, 89753, Note_on_c, 12, 72, 0
15, 89760, Note_on_c, 12, 72, 92
15, 89760, Note_on_c, 12, 63, 92
15, 89785, Note_on_c, 12, 72, 0
15, 89785, Note_on_c, 12, 63, 0
15, 89790, Note_on_c, 12, 72, 92
15, 89790, Note_on_c, 12, 63, 92
15, 89815, Note_on_c, 12, 72, 0
15, 89815, Note_on_c, 12, 63, 0
15, 89820, Note_on_c, 12, 63, 92
15, 89820, Note_on_c, 12, 72, 92
15, 89845, Note_on_c, 12, 63, 0
15, 89845, Note_on_c, 12, 72, 0
15, 89850, Note_on_c, 12, 63, 92
15, 89850, Note_on_c, 12, 72, 92
15, 89875, Note_on_c, 12, 63, 0
15, 89875, Note_on_c, 12, 72, 0
15, 89880, Note_on_c, 12, 63, 92
15, 89880, Note_on_c, 12, 72, 92
15, 89905, Note_on_c, 12, 63, 0
15, 89905, Note_on_c, 12, 72, 0
15, 89910, Note_on_c, 12, 72, 92
15, 89910, Note_on_c, 12, 63, 92
15, 89935, Note_on_c, 12, 72, 0
15, 89935, Note_on_c, 12, 63, 0
15, 89940, Note_on_c, 12, 72, 92
15, 89940, Note_on_c, 12, 63, 92
15, 89965, Note_on_c, 12, 72, 0
15, 89965, Note_on_c, 12, 63, 0
15, 89970, Note_on_c, 12, 63, 92
15, 89970, Note_on_c, 12, 72, 92
15, 89995, Note_on_c, 12, 63, 0
15, 89995, Note_on_c, 12, 72, 0
15, 90000, Note_on_c, 12, 63, 92
15, 90000, Note_on_c, 12, 72, 92
15, 90025, Note_on_c, 12, 63, 0
15, 90025, Note_on_c, 12, 72, 0
15, 90030, Note_on_c, 12, 63, 92
15, 90030, Note_on_c, 12, 72, 92
15, 90055, Note_on_c, 12, 63, 0
15, 90055, Note_on_c, 12, 72, 0
15, 90060, Note_on_c, 12, 63, 92
15, 90060, Note_on_c, 12, 72, 92
15, 90085, Note_on_c, 12, 63, 0
15, 90085, Note_on_c, 12, 72, 0
15, 90090, Note_on_c, 12, 63, 92
15, 90090, Note_on_c, 12, 72, 92
15, 90115, Note_on_c, 12, 63, 0
15, 90115, Note_on_c, 12, 72, 0
15, 90120, Note_on_c, 12, 72, 92
15, 90120, Note_on_c, 12, 63, 92
15, 90145, Note_on_c, 12, 72, 0
15, 90145, Note_on_c, 12, 63, 0
15, 90150, Note_on_c, 12, 72, 92
15, 90150, Note_on_c, 12, 63, 92
15, 90175, Note_on_c, 12, 72, 0
15, 90175, Note_on_c, 12, 63, 0
15, 90180, Note_on_c, 12, 72, 92
15, 90180, Note_on_c, 12, 63, 92
15, 90205, Note_on_c, 12, 72, 0
15, 90205, Note_on_c, 12, 63, 0
15, 90210, Note_on_c, 12, 63, 92
15, 90210, Note_on_c, 12, 72, 92
15, 90235, Note_on_c, 12, 63, 0
15, 90235, Note_on_c, 12, 72, 0
15, 90240, Note_on_c, 12, 63, 92
15, 90240, Note_on_c, 12, 72, 92
15, 90344, Note_on_c, 12, 63, 0
15, 90344, Note_on_c, 12, 72, 0
15, 90360, Note_on_c, 12, 69, 92
15, 90441, Note_on_c, 12, 69, 0
15, 90450, Note_on_c, 12, 69, 92
15, 90471, Note_on_c, 12, 69, 0
15, 90480, Note_on_c, 12, 72, 104
15, 90539, Note_on_c, 12, 72, 0
15, 90540, Note_on_c, 12, 72, 92
15, 90824, Note_on_c, 12, 72, 0
15, 90840, Note_on_c, 12, 66, 92
15, 90921, Note_on_c, 12, 66, 0
15, 90930, Note_on_c, 12, 66, 92
15, 90951, Note_on_c, 12, 66, 0
15, 90960, Note_on_c, 12, 69, 104
15, 91064, Note_on_c, 12, 69, 0
15, 91080, Note_on_c, 12, 72, 92
15, 91161, Note_on_c, 12, 72, 0
15, 91170, Note_on_c, 12, 72, 92
15, 91191, Note_on_c, 12, 72, 0
15, 91200, Note_on_c, 12, 75, 104
15, 91304, Note_on_c, 12, 75, 0
15, 91320, Note_on_c, 12, 69, 92
15, 91401, Note_on_c, 12, 69, 0
15, 91410, Note_on_c, 12, 69, 92
15, 91431, Note_on_c, 12, 69, 0
15, 91440, Note_on_c, 12, 74, 104
15, 91544, Note_on_c, 12, 74, 0
15, 91560, Note_on_c, 12, 62, 92
15, 91641, Note_on_c, 12, 62, 0
15, 91650, Note_on_c, 12, 62, 92
15, 91671, Note_on_c, 12, 62, 0
15, 91680, Note_on_c, 12, 55, 44
15, 91799, Note_on_c, 12, 55, 0
15, 94560, Note_on_c, 12, 62, 44
15, 94560, Note_on_c, 12, 70, 44
15, 94593, Note_on_c, 12, 62, 0
15, 94593, Note_on_c, 12, 70, 0
15, 94600, Note_on_c, 12, 70, 44
15, 94600, Note_on_c, 12, 62, 44
15, 94633, Note_on_c, 12, 70, 0
15, 94633, Note_on_c, 12, 62, 0
15, 94640, Note_on_c, 12, 62, 44
15, 94640, Note_on_c, 12, 70, 44
15, 94673, Note_on_c, 12, 62, 0
15, 94673, Note_on_c, 12, 70, 0
15, 94680, Note_on_c, 12, 70, 44
15, 94680, Note_on_c, 12, 62, 44
15, 94713, Note_on_c, 12, 70, 0
15, 94713, Note_on_c, 12, 62, 0
15, 94720, Note_on_c, 12, 70, 44
15, 94720, Note_on_c, 12, 62, 44
15, 94753, Note_on_c, 12, 70, 0
15, 94753, Note_on_c, 12, 62, 0
15, 94760, Note_on_c, 12, 70, 44
15, 94760, Note_on_c, 12, 62, 44
15, 94793, Note_on_c, 12, 70, 0
15, 94793, Note_on_c, 12, 62, 0
15, 94800, Note_on_c, 12, 70, 44
15, 94800, Note_on_c, 12, 62, 44
15, 94833, Note_on_c, 12, 70, 0
15, 94833, Note_on_c, 12, 62, 0
15, 94840, Note_on_c, 12, 62, 44
15, 94840, Note_on_c, 12, 70, 44
15, 94873, Note_on_c, 12, 62, 0
15, 94873, Note_on_c, 12, 70, 0
15, 94880, Note_on_c, 12, 70, 44
15, 94880, Note_on_c, 12, 62, 44
15, 94913, Note_on_c, 12, 70, 0
15, 94913, Note_on_c, 12, 62, 0
15, 94920, Note_on_c, 12, 70, 44
15, 94920, Note_on_c, 12, 62, 44
15, 94953, Note_on_c, 12, 70, 0
15, 94953, Note_on_c, 12, 62, 0
15, 94960, Note_on_c, 12, 62, 44
15, 94960, Note_on_c, 12, 70, 44
15, 94993, Note_on_c, 12, 62, 0
15, 94993, Note_on_c, 12, 70, 0
15, 95000, Note_on_c, 12, 70, 44
15, 95000, Note_on_c, 12, 62, 44
15, 95033, Note_on_c, 12, 70, 0
15, 95033, Note_on_c, 12, 62, 0
15, 95040, Note_on_c, 12, 70, 44
15, 95040, Note_on_c, 12, 62, 44
15, 95073, Note_on_c, 12, 70, 0
15, 95073, Note_on_c, 12, 62, 0
15, 95080, Note_on_c, 12, 70, 44
15, 95080, Note_on_c, 12, 62, 44
15, 95113, Note_on_c, 12, 70, 0
15, 95113, Note_on_c, 12, 62, 0
15, 95120, Note_on_c, 12, 62, 44
15, 95120, Note_on_c, 12, 70, 44
15, 95153, Note_on_c, 12, 62, 0
15, 95153, Note_on_c, 12, 70, 0
15, 95160, Note_on_c, 12, 70, 44
15, 95160, Note_on_c, 12, 62, 44
15, 95193, Note_on_c, 12, 70, 0
15, 95193, Note_on_c, 12, 62, 0
15, 95200, Note_on_c, 12, 62, 44
15, 95200, Note_on_c, 12, 70, 44
15, 95233, Note_on_c, 12, 62, 0
15, 95233, Note_on_c, 12, 70, 0
15, 95240, Note_on_c, 12, 62, 44
15, 95240, Note_on_c, 12, 70, 44
15, 95273, Note_on_c, 12, 62, 0
15, 95273, Note_on_c, 12, 70, 0
15, 95280, Note_on_c, 12, 70, 44
15, 95280, Note_on_c, 12, 62, 44
15, 95313, Note_on_c, 12, 70, 0
15, 95313, Note_on_c, 12, 62, 0
15, 95320, Note_on_c, 12, 70, 44
15, 95320, Note_on_c, 12, 62, 44
15, 95353, Note_on_c, 12, 70, 0
15, 95353, Note_on_c, 12, 62, 0
15, 95360, Note_on_c, 12, 70, 44
15, 95360, Note_on_c, 12, 62, 44
15, 95393, Note_on_c, 12, 70, 0
15, 95393, Note_on_c, 12, 62, 0
15, 95400, Note_on_c, 12, 70, 44
15, 95400, Note_on_c, 12, 62, 44
15, 95433, Note_on_c, 12, 70, 0
15, 95433, Note_on_c, 12, 62, 0
15, 95440, Note_on_c, 12, 62, 44
15, 95440, Note_on_c, 12, 70, 44
15, 95473, Note_on_c, 12, 62, 0
15, 95473, Note_on_c, 12, 70, 0
15, 95480, Note_on_c, 12, 70, 44
15, 95480, Note_on_c, 12, 62, 44
15, 95513, Note_on_c, 12, 70, 0
15, 95513, Note_on_c, 12, 62, 0
15, 95520, Note_on_c, 12, 62, 44
15, 95520, Note_on_c, 12, 70, 44
15, 95553, Note_on_c, 12, 62, 0
15, 95553, Note_on_c, 12, 70, 0
15, 95560, Note_on_c, 12, 62, 44
15, 95560, Note_on_c, 12, 70, 44
15, 95593, Note_on_c, 12, 62, 0
15, 95593, Note_on_c, 12, 70, 0
15, 95600, Note_on_c, 12, 70, 44
15, 95600, Note_on_c, 12, 62, 44
15, 95633, Note_on_c, 12, 70, 0
15, 95633, Note_on_c, 12, 62, 0
15, 95640, Note_on_c, 12, 62, 44
15, 95640, Note_on_c, 12, 70, 44
15, 95673, Note_on_c, 12, 62, 0
15, 95673, Note_on_c, 12, 70, 0
15, 95680, Note_on_c, 12, 70, 44
15, 95680, Note_on_c, 12, 62, 44
15, 95713, Note_on_c, 12, 70, 0
15, 95713, Note_on_c, 12, 62, 0
15, 95720, Note_on_c, 12, 70, 44
15, 95720, Note_on_c, 12, 62, 44
15, 95753, Note_on_c, 12, 70, 0
15, 95753, Note_on_c, 12, 62, 0
15, 95760, Note_on_c, 12, 70, 44
15, 95760, Note_on_c, 12, 62, 44
15, 95793, Note_on_c, 12, 70, 0
15, 95793, Note_on_c, 12, 62, 0
15, 95800, Note_on_c, 12, 70, 44
15, 95800, Note_on_c, 12, 62, 44
15, 95833, Note_on_c, 12, 70, 0
15, 95833, Note_on_c, 12, 62, 0
15, 95840, Note_on_c, 12, 70, 44
15, 95840, Note_on_c, 12, 62, 44
15, 95873, Note_on_c, 12, 70, 0
15, 95873, Note_on_c, 12, 62, 0
15, 95880, Note_on_c, 12, 70, 44
15, 95880, Note_on_c, 12, 62, 44
15, 95913, Note_on_c, 12, 70, 0
15, 95913, Note_on_c, 12, 62, 0
15, 95920, Note_on_c, 12, 70, 44
15, 95920, Note_on_c, 12, 62, 44
15, 95953, Note_on_c, 12, 70, 0
15, 95953, Note_on_c, 12, 62, 0
15, 95960, Note_on_c, 12, 70, 44
15, 95960, Note_on_c, 12, 62, 44
15, 95993, Note_on_c, 12, 70, 0
15, 95993, Note_on_c, 12, 62, 0
15, 96000, Note_on_c, 12, 70, 44
15, 96000, Note_on_c, 12, 62, 44
15, 96033, Note_on_c, 12, 70, 0
15, 96033, Note_on_c, 12, 62, 0
15, 96040, Note_on_c, 12, 62, 44
15, 96040, Note_on_c, 12, 70, 44
15, 96073, Note_on_c, 12, 62, 0
15, 96073, Note_on_c, 12, 70, 0
15, 96080, Note_on_c, 12, 70, 44
15, 96080, Note_on_c, 12, 62, 44
15, 96113, Note_on_c, 12, 70, 0
15, 96113, Note_on_c, 12, 62, 0
15, 96120, Note_on_c, 12, 70, 44
15, 96120, Note_on_c, 12, 62, 44
15, 96153, Note_on_c, 12, 70, 0
15, 96153, Note_on_c, 12, 62, 0
15, 96160, Note_on_c, 12, 62, 44
15, 96160, Note_on_c, 12, 70, 44
15, 96193, Note_on_c, 12, 62, 0
15, 96193, Note_on_c, 12, 70, 0
15, 96200, Note_on_c, 12, 62, 44
15, 96200, Note_on_c, 12, 70, 44
15, 96233, Note_on_c, 12, 62, 0
15, 96233, Note_on_c, 12, 70, 0
15, 96240, Note_on_c, 12, 71, 44
15, 96240, Note_on_c, 12, 62, 44
15, 96273, Note_on_c, 12, 71, 0
15, 96273, Note_on_c, 12, 62, 0
15, 96280, Note_on_c, 12, 62, 44
15, 96280, Note_on_c, 12, 71, 44
15, 96313, Note_on_c, 12, 62, 0
15, 96313, Note_on_c, 12, 71, 0
15, 96320, Note_on_c, 12, 71, 44
15, 96320, Note_on_c, 12, 62, 44
15, 96353, Note_on_c, 12, 71, 0
15, 96353, Note_on_c, 12, 62, 0
15, 96360, Note_on_c, 12, 62, 44
15, 96360, Note_on_c, 12, 71, 44
15, 96393, Note_on_c, 12, 62, 0
15, 96393, Note_on_c, 12, 71, 0
15, 96400, Note_on_c, 12, 62, 44
15, 96400, Note_on_c, 12, 71, 44
15, 96433, Note_on_c, 12, 62, 0
15, 96433, Note_on_c, 12, 71, 0
15, 96440, Note_on_c, 12, 71, 44
15, 96440, Note_on_c, 12, 62, 44
15, 96473, Note_on_c, 12, 71, 0
15, 96473, Note_on_c, 12, 62, 0
15, 96480, Note_on_c, 12, 65, 44
15, 96480, Note_on_c, 12, 71, 44
15, 96513, Note_on_c, 12, 65, 0
15, 96513, Note_on_c, 12, 71, 0
15, 96520, Note_on_c, 12, 65, 44
15, 96520, Note_on_c, 12, 71, 44
15, 96553, Note_on_c, 12, 65, 0
15, 96553, Note_on_c, 12, 71, 0
15, 96560, Note_on_c, 12, 65, 44
15, 96560, Note_on_c, 12, 71, 44
15, 96593, Note_on_c, 12, 65, 0
15, 96593, Note_on_c, 12, 71, 0
15, 96600, Note_on_c, 12, 65, 44
15, 96600, Note_on_c, 12, 71, 44
15, 96633, Note_on_c, 12, 65, 0
15, 96633, Note_on_c, 12, 71, 0
15, 96640, Note_on_c, 12, 65, 44
15, 96640, Note_on_c, 12, 71, 44
15, 96673, Note_on_c, 12, 65, 0
15, 96673, Note_on_c, 12, 71, 0
15, 96680, Note_on_c, 12, 65, 44
15, 96680, Note_on_c, 12, 71, 44
15, 96713, Note_on_c, 12, 65, 0
15, 96713, Note_on_c, 12, 71, 0
15, 96720, Note_on_c, 12, 71, 44
15, 96720, Note_on_c, 12, 65, 44
15, 96753, Note_on_c, 12, 71, 0
15, 96753, Note_on_c, 12, 65, 0
15, 96760, Note_on_c, 12, 65, 44
15, 96760, Note_on_c, 12, 71, 44
15, 96793, Note_on_c, 12, 65, 0
15, 96793, Note_on_c, 12, 71, 0
15, 96800, Note_on_c, 12, 71, 44
15, 96800, Note_on_c, 12, 65, 44
15, 96833, Note_on_c, 12, 71, 0
15, 96833, Note_on_c, 12, 65, 0
15, 96840, Note_on_c, 12, 65, 44
15, 96840, Note_on_c, 12, 71, 44
15, 96873, Note_on_c, 12, 65, 0
15, 96873, Note_on_c, 12, 71, 0
15, 96880, Note_on_c, 12, 71, 44
15, 96880, Note_on_c, 12, 65, 44
15, 96913, Note_on_c, 12, 71, 0
15, 96913, Note_on_c, 12, 65, 0
15, 96920, Note_on_c, 12, 65, 44
15, 96920, Note_on_c, 12, 71, 44
15, 96953, Note_on_c, 12, 65, 0
15, 96953, Note_on_c, 12, 71, 0
15, 96960, Note_on_c, 12, 65, 44
15, 96960, Note_on_c, 12, 71, 44
15, 96993, Note_on_c, 12, 65, 0
15, 96993, Note_on_c, 12, 71, 0
15, 97000, Note_on_c, 12, 65, 44
15, 97000, Note_on_c, 12, 71, 44
15, 97033, Note_on_c, 12, 65, 0
15, 97033, Note_on_c, 12, 71, 0
15, 97040, Note_on_c, 12, 65, 44
15, 97040, Note_on_c, 12, 71, 44
15, 97073, Note_on_c, 12, 65, 0
15, 97073, Note_on_c, 12, 71, 0
15, 97080, Note_on_c, 12, 65, 44
15, 97080, Note_on_c, 12, 71, 44
15, 97113, Note_on_c, 12, 65, 0
15, 97113, Note_on_c, 12, 71, 0
15, 97120, Note_on_c, 12, 65, 44
15, 97120, Note_on_c, 12, 71, 44
15, 97153, Note_on_c, 12, 65, 0
15, 97153, Note_on_c, 12, 71, 0
15, 97160, Note_on_c, 12, 71, 44
15, 97160, Note_on_c, 12, 65, 44
15, 97193, Note_on_c, 12, 71, 0
15, 97193, Note_on_c, 12, 65, 0
15, 97200, Note_on_c, 12, 65, 44
15, 97200, Note_on_c, 12, 71, 44
15, 97233, Note_on_c, 12, 65, 0
15, 97233, Note_on_c, 12, 71, 0
15, 97240, Note_on_c, 12, 71, 44
15, 97240, Note_on_c, 12, 65, 44
15, 97273, Note_on_c, 12, 71, 0
15, 97273, Note_on_c, 12, 65, 0
15, 97280, Note_on_c, 12, 71, 44
15, 97280, Note_on_c, 12, 65, 44
15, 97313, Note_on_c, 12, 71, 0
15, 97313, Note_on_c, 12, 65, 0
15, 97320, Note_on_c, 12, 65, 44
15, 97320, Note_on_c, 12, 71, 44
15, 97353, Note_on_c, 12, 65, 0
15, 97353, Note_on_c, 12, 71, 0
15, 97360, Note_on_c, 12, 65, 44
15, 97360, Note_on_c, 12, 71, 44
15, 97393, Note_on_c, 12, 65, 0
15, 97393, Note_on_c, 12, 71, 0
15, 97400, Note_on_c, 12, 65, 44
15, 97400, Note_on_c, 12, 71, 44
15, 97433, Note_on_c, 12, 65, 0
15, 97433, Note_on_c, 12, 71, 0
15, 97440, Note_on_c, 12, 71, 44
15, 97440, Note_on_c, 12, 62, 44
15, 97473, Note_on_c, 12, 71, 0
15, 97473, Note_on_c, 12, 62, 0
15, 97480, Note_on_c, 12, 62, 45
15, 97480, Note_on_c, 12, 71, 45
15, 97513, Note_on_c, 12, 62, 0
15, 97513, Note_on_c, 12, 71, 0
15, 97520, Note_on_c, 12, 62, 47
15, 97520, Note_on_c, 12, 71, 47
15, 97553, Note_on_c, 12, 62, 0
15, 97553, Note_on_c, 12, 71, 0
15, 97560, Note_on_c, 12, 62, 48
15, 97560, Note_on_c, 12, 71, 48
15, 97593, Note_on_c, 12, 62, 0
15, 97593, Note_on_c, 12, 71, 0
15, 97600, Note_on_c, 12, 71, 50
15, 97600, Note_on_c, 12, 62, 50
15, 97633, Note_on_c, 12, 71, 0
15, 97633, Note_on_c, 12, 62, 0
15, 97640, Note_on_c, 12, 62, 51
15, 97640, Note_on_c, 12, 71, 51
15, 97673, Note_on_c, 12, 62, 0
15, 97673, Note_on_c, 12, 71, 0
15, 97680, Note_on_c, 12, 62, 53
15, 97680, Note_on_c, 12, 71, 53
15, 97713, Note_on_c, 12, 62, 0
15, 97713, Note_on_c, 12, 71, 0
15, 97720, Note_on_c, 12, 62, 54
15, 97720, Note_on_c, 12, 71, 54
15, 97753, Note_on_c, 12, 62, 0
15, 97753, Note_on_c, 12, 71, 0
15, 97760, Note_on_c, 12, 62, 56
15, 97760, Note_on_c, 12, 71, 56
15, 97793, Note_on_c, 12, 62, 0
15, 97793, Note_on_c, 12, 71, 0
15, 97800, Note_on_c, 12, 71, 57
15, 97800, Note_on_c, 12, 62, 57
15, 97833, Note_on_c, 12, 71, 0
15, 97833, Note_on_c, 12, 62, 0
15, 97840, Note_on_c, 12, 71, 59
15, 97840, Note_on_c, 12, 62, 59
15, 97873, Note_on_c, 12, 71, 0
15, 97873, Note_on_c, 12, 62, 0
15, 97880, Note_on_c, 12, 71, 60
15, 97880, Note_on_c, 12, 62, 60
15, 97913, Note_on_c, 12, 71, 0
15, 97913, Note_on_c, 12, 62, 0
15, 97920, Note_on_c, 12, 62, 62
15, 97920, Note_on_c, 12, 71, 62
15, 97953, Note_on_c, 12, 62, 0
15, 97953, Note_on_c, 12, 71, 0
15, 97960, Note_on_c, 12, 62, 63
15, 97960, Note_on_c, 12, 71, 63
15, 97993, Note_on_c, 12, 62, 0
15, 97993, Note_on_c, 12, 71, 0
15, 98000, Note_on_c, 12, 62, 65
15, 98000, Note_on_c, 12, 71, 65
15, 98033, Note_on_c, 12, 62, 0
15, 98033, Note_on_c, 12, 71, 0
15, 98040, Note_on_c, 12, 71, 66
15, 98040, Note_on_c, 12, 62, 66
15, 98073, Note_on_c, 12, 71, 0
15, 98073, Note_on_c, 12, 62, 0
15, 98080, Note_on_c, 12, 62, 68
15, 98080, Note_on_c, 12, 71, 68
15, 98113, Note_on_c, 12, 62, 0
15, 98113, Note_on_c, 12, 71, 0
15, 98120, Note_on_c, 12, 62, 69
15, 98120, Note_on_c, 12, 71, 69
15, 98153, Note_on_c, 12, 62, 0
15, 98153, Note_on_c, 12, 71, 0
15, 98160, Note_on_c, 12, 65, 71
15, 98160, Note_on_c, 12, 71, 71
15, 98193, Note_on_c, 12, 65, 0
15, 98193, Note_on_c, 12, 71, 0
15, 98200, Note_on_c, 12, 65, 72
15, 98200, Note_on_c, 12, 71, 72
15, 98233, Note_on_c, 12, 65, 0
15, 98233, Note_on_c, 12, 71, 0
15, 98240, Note_on_c, 12, 65, 74
15, 98240, Note_on_c, 12, 71, 74
15, 98273, Note_on_c, 12, 65, 0
15, 98273, Note_on_c, 12, 71, 0
15, 98280, Note_on_c, 12, 65, 75
15, 98280, Note_on_c, 12, 74, 75
15, 98313, Note_on_c, 12, 65, 0
15, 98313, Note_on_c, 12, 74, 0
15, 98320, Note_on_c, 12, 65, 77
15, 98320, Note_on_c, 12, 74, 77
15, 98353, Note_on_c, 12, 65, 0
15, 98353, Note_on_c, 12, 74, 0
15, 98360, Note_on_c, 12, 74, 78
15, 98360, Note_on_c, 12, 65, 78
15, 98393, Note_on_c, 12, 74, 0
15, 98393, Note_on_c, 12, 65, 0
15, 98400, Note_on_c, 12, 74, 80
15, 98400, Note_on_c, 12, 65, 80
15, 98425, Note_on_c, 12, 74, 0
15, 98425, Note_on_c, 12, 65, 0
15, 98430, Note_on_c, 12, 65, 80
15, 98430, Note_on_c, 12, 74, 80
15, 98455, Note_on_c, 12, 65, 0
15, 98455, Note_on_c, 12, 74, 0
15, 98460, Note_on_c, 12, 74, 80
15, 98460, Note_on_c, 12, 65, 80
15, 98485, Note_on_c, 12, 74, 0
15, 98485, Note_on_c, 12, 65, 0
15, 98490, Note_on_c, 12, 65, 80
15, 98490, Note_on_c, 12, 74, 80
15, 98515, Note_on_c, 12, 65, 0
15, 98515, Note_on_c, 12, 74, 0
15, 98520, Note_on_c, 12, 74, 80
15, 98520, Note_on_c, 12, 65, 80
15, 98545, Note_on_c, 12, 74, 0
15, 98545, Note_on_c, 12, 65, 0
15, 98550, Note_on_c, 12, 65, 80
15, 98550, Note_on_c, 12, 74, 80
15, 98575, Note_on_c, 12, 65, 0
15, 98575, Note_on_c, 12, 74, 0
15, 98580, Note_on_c, 12, 74, 80
15, 98580, Note_on_c, 12, 65, 80
15, 98605, Note_on_c, 12, 74, 0
15, 98605, Note_on_c, 12, 65, 0
15, 98610, Note_on_c, 12, 65, 80
15, 98610, Note_on_c, 12, 74, 80
15, 98635, Note_on_c, 12, 65, 0
15, 98635, Note_on_c, 12, 74, 0
15, 98640, Note_on_c, 12, 65, 80
15, 98640, Note_on_c, 12, 74, 80
15, 98665, Note_on_c, 12, 65, 0
15, 98665, Note_on_c, 12, 74, 0
15, 98670, Note_on_c, 12, 65, 80
15, 98670, Note_on_c, 12, 74, 80
15, 98695, Note_on_c, 12, 65, 0
15, 98695, Note_on_c, 12, 74, 0
15, 98700, Note_on_c, 12, 65, 80
15, 98700, Note_on_c, 12, 74, 80
15, 98725, Note_on_c, 12, 65, 0
15, 98725, Note_on_c, 12, 74, 0
15, 98730, Note_on_c, 12, 65, 80
15, 98730, Note_on_c, 12, 74, 80
15, 98755, Note_on_c, 12, 65, 0
15, 98755, Note_on_c, 12, 74, 0
15, 98760, Note_on_c, 12, 65, 80
15, 98760, Note_on_c, 12, 74, 80
15, 98785, Note_on_c, 12, 65, 0
15, 98785, Note_on_c, 12, 74, 0
15, 98790, Note_on_c, 12, 65, 80
15, 98790, Note_on_c, 12, 74, 80
15, 98815, Note_on_c, 12, 65, 0
15, 98815, Note_on_c, 12, 74, 0
15, 98820, Note_on_c, 12, 65, 80
15, 98820, Note_on_c, 12, 74, 80
15, 98845, Note_on_c, 12, 65, 0
15, 98845, Note_on_c, 12, 74, 0
15, 98850, Note_on_c, 12, 65, 80
15, 98850, Note_on_c, 12, 74, 80
15, 98875, Note_on_c, 12, 65, 0
15, 98875, Note_on_c, 12, 74, 0
15, 98880, Note_on_c, 12, 74, 80
15, 98880, Note_on_c, 12, 65, 80
15, 98905, Note_on_c, 12, 74, 0
15, 98905, Note_on_c, 12, 65, 0
15, 98910, Note_on_c, 12, 74, 80
15, 98910, Note_on_c, 12, 65, 80
15, 98935, Note_on_c, 12, 74, 0
15, 98935, Note_on_c, 12, 65, 0
15, 98940, Note_on_c, 12, 74, 80
15, 98940, Note_on_c, 12, 65, 80
15, 98965, Note_on_c, 12, 74, 0
15, 98965, Note_on_c, 12, 65, 0
15, 98970, Note_on_c, 12, 65, 80
15, 98970, Note_on_c, 12, 74, 80
15, 98995, Note_on_c, 12, 65, 0
15, 98995, Note_on_c, 12, 74, 0
15, 99000, Note_on_c, 12, 74, 80
15, 99000, Note_on_c, 12, 65, 80
15, 99025, Note_on_c, 12, 74, 0
15, 99025, Note_on_c, 12, 65, 0
15, 99030, Note_on_c, 12, 65, 80
15, 99030, Note_on_c, 12, 74, 80
15, 99055, Note_on_c, 12, 65, 0
15, 99055, Note_on_c, 12, 74, 0
15, 99060, Note_on_c, 12, 74, 80
15, 99060, Note_on_c, 12, 65, 80
15, 99085, Note_on_c, 12, 74, 0
15, 99085, Note_on_c, 12, 65, 0
15, 99090, Note_on_c, 12, 74, 80
15, 99090, Note_on_c, 12, 65, 80
15, 99115, Note_on_c, 12, 74, 0
15, 99115, Note_on_c, 12, 65, 0
15, 99120, Note_on_c, 12, 65, 80
15, 99120, Note_on_c, 12, 74, 80
15, 99145, Note_on_c, 12, 65, 0
15, 99145, Note_on_c, 12, 74, 0
15, 99150, Note_on_c, 12, 65, 80
15, 99150, Note_on_c, 12, 74, 80
15, 99175, Note_on_c, 12, 65, 0
15, 99175, Note_on_c, 12, 74, 0
15, 99180, Note_on_c, 12, 65, 80
15, 99180, Note_on_c, 12, 74, 80
15, 99205, Note_on_c, 12, 65, 0
15, 99205, Note_on_c, 12, 74, 0
15, 99210, Note_on_c, 12, 65, 80
15, 99210, Note_on_c, 12, 74, 80
15, 99235, Note_on_c, 12, 65, 0
15, 99235, Note_on_c, 12, 74, 0
15, 99240, Note_on_c, 12, 65, 80
15, 99240, Note_on_c, 12, 74, 80
15, 99265, Note_on_c, 12, 65, 0
15, 99265, Note_on_c, 12, 74, 0
15, 99270, Note_on_c, 12, 65, 80
15, 99270, Note_on_c, 12, 74, 80
15, 99295, Note_on_c, 12, 65, 0
15, 99295, Note_on_c, 12, 74, 0
15, 99300, Note_on_c, 12, 65, 80
15, 99300, Note_on_c, 12, 74, 80
15, 99325, Note_on_c, 12, 65, 0
15, 99325, Note_on_c, 12, 74, 0
15, 99330, Note_on_c, 12, 74, 80
15, 99330, Note_on_c, 12, 65, 80
15, 99355, Note_on_c, 12, 74, 0
15, 99355, Note_on_c, 12, 65, 0
15, 99360, Note_on_c, 12, 79, 92
15, 99464, Note_on_c, 12, 79, 0
15, 99480, Note_on_c, 12, 71, 80
15, 99561, Note_on_c, 12, 71, 0
15, 99570, Note_on_c, 12, 71, 80
15, 99591, Note_on_c, 12, 71, 0
15, 99600, Note_on_c, 12, 74, 92
15, 99704, Note_on_c, 12, 74, 0
15, 99720, Note_on_c, 12, 65, 80
15, 99801, Note_on_c, 12, 65, 0
15, 99810, Note_on_c, 12, 65, 80
15, 99831, Note_on_c, 12, 65, 0
15, 99840, Note_on_c, 12, 68, 92
15, 99944, Note_on_c, 12, 68, 0
15, 99960, Note_on_c, 12, 62, 80
15, 100041, Note_on_c, 12, 62, 0
15, 100050, Note_on_c, 12, 62, 80
15, 100071, Note_on_c, 12, 62, 0
15, 100080, Note_on_c, 12, 67, 92
15, 100184, Note_on_c, 12, 67, 0
15, 100200, Note_on_c, 12, 55, 80
15, 100281, Note_on_c, 12, 55, 0
15, 100290, Note_on_c, 12, 55, 80
15, 100311, Note_on_c, 12, 55, 0
15, 100320, Note_on_c, 12, 60, 44
15, 100439, Note_on_c, 12, 60, 0
15, 102960, Control_c, 12, 11, 67
15, 103200, Control_c, 12, 11, 67
15, 103200, Note_on_c, 12, 69, 80
15, 103223, Control_c, 12, 11, 69
15, 103247, Control_c, 12, 11, 70
15, 103270, Control_c, 12, 11, 72
15, 103293, Control_c, 12, 11, 74
15, 103317, Control_c, 12, 11, 75
15, 103340, Control_c, 12, 11, 77
15, 103363, Control_c, 12, 11, 79
15, 103379, Note_on_c, 12, 69, 0
15, 103387, Control_c, 12, 11, 80
15, 103410, Control_c, 12, 11, 82
15, 103433, Control_c, 12, 11, 84
15, 103440, Note_on_c, 12, 66, 80
15, 103457, Control_c, 12, 11, 85
15, 103480, Control_c, 12, 11, 87
15, 103503, Control_c, 12, 11, 89
15, 103527, Control_c, 12, 11, 90
15, 103550, Control_c, 12, 11, 92
15, 103573, Control_c, 12, 11, 94
15, 103597, Control_c, 12, 11, 95
15, 103619, Note_on_c, 12, 66, 0
15, 103620, Control_c, 12, 11, 97
15, 103643, Control_c, 12, 11, 99
15, 103667, Control_c, 12, 11, 100
15, 103680, Note_on_c, 12, 68, 80
15, 103690, Control_c, 12, 11, 102
15, 103713, Control_c, 12, 11, 104
15, 103737, Control_c, 12, 11, 105
15, 103760, Control_c, 12, 11, 107
15, 103783, Control_c, 12, 11, 109
15, 103807, Control_c, 12, 11, 110
15, 103830, Control_c, 12, 11, 112
15, 103853, Control_c, 12, 11, 114
15, 103859, Note_on_c, 12, 68, 0
15, 103877, Control_c, 12, 11, 115
15, 103900, Control_c, 12, 11, 117
15, 103920, Note_on_c, 12, 65, 80
15, 103923, Control_c, 12, 11, 119
15, 103947, Control_c, 12, 11, 120
15, 103970, Control_c, 12, 11, 122
15, 103993, Control_c, 12, 11, 124
15, 104017, Control_c, 12, 11, 127
15, 104099, Note_on_c, 12, 65, 0
15, 104220, Note_on_c, 12, 67, 80
15, 104264, Note_on_c, 12, 67, 0
15, 104280, Note_on_c, 12, 65, 80
15, 104324, Note_on_c, 12, 65, 0
15, 104340, Note_on_c, 12, 63, 80
15, 104384, Note_on_c, 12, 63, 0
15, 104400, Note_on_c, 12, 62, 80
15, 104444, Note_on_c, 12, 62, 0
15, 104460, Note_on_c, 12, 60, 80
15, 104504, Note_on_c, 12, 60, 0
15, 104520, Note_on_c, 12, 59, 80
15, 104564, Note_on_c, 12, 59, 0
15, 104580, Note_on_c, 12, 60, 80
15, 104624, Note_on_c, 12, 60, 0
15, 104640, Note_on_c, 12, 60, 80
15, 104699, Note_on_c, 12, 60, 0
15, 104700, Note_on_c, 12, 59, 80
15, 104751, Note_on_c, 12, 59, 0
15, 104760, Note_on_c, 12, 59, 80
15, 104804, Note_on_c, 12, 59, 0
15, 104820, Note_on_c, 12, 62, 80
15, 104864, Note_on_c, 12, 62, 0
15, 104880, Note_on_c, 12, 59, 80
15, 104924, Note_on_c, 12, 59, 0
15, 104940, Note_on_c, 12, 62, 80
15, 104984, Note_on_c, 12, 62, 0
15, 105000, Note_on_c, 12, 60, 80
15, 105044, Note_on_c, 12, 60, 0
15, 105060, Note_on_c, 12, 59, 80
15, 105104, Note_on_c, 12, 59, 0
15, 105120, Note_on_c, 12, 62, 80
15, 105179, Note_on_c, 12, 62, 0
15, 105180, Note_on_c, 12, 60, 80
15, 105231, Note_on_c, 12, 60, 0
15, 105240, Note_on_c, 12, 60, 80
15, 105284, Note_on_c, 12, 60, 0
15, 105300, Note_on_c, 12, 63, 80
15, 105344, Note_on_c, 12, 63, 0
15, 105360, Note_on_c, 12, 60, 80
15, 105404, Note_on_c, 12, 60, 0
15, 105420, Note_on_c, 12, 63, 80
15, 105464, Note_on_c, 12, 63, 0
15, 105480, Note_on_c, 12, 62, 80
15, 105524, Note_on_c, 12, 62, 0
15, 105540, Note_on_c, 12, 60, 80
15, 105584, Note_on_c, 12, 60, 0
15, 105600, Note_on_c, 12, 63, 80
15, 105659, Note_on_c, 12, 63, 0
15, 105660, Note_on_c, 12, 62, 80
15, 105711, Note_on_c, 12, 62, 0
15, 105720, Note_on_c, 12, 62, 80
15, 105764, Note_on_c, 12, 62, 0
15, 105780, Note_on_c, 12, 65, 80
15, 105824, Note_on_c, 12, 65, 0
15, 105840, Note_on_c, 12, 62, 80
15, 105884, Note_on_c, 12, 62, 0
15, 105900, Note_on_c, 12, 65, 80
15, 105944, Note_on_c, 12, 65, 0
15, 105960, Note_on_c, 12, 63, 80
15, 106004, Note_on_c, 12, 63, 0
15, 106020, Note_on_c, 12, 62, 80
15, 106064, Note_on_c, 12, 62, 0
15, 106080, Note_on_c, 12, 65, 80
15, 106139, Note_on_c, 12, 65, 0
15, 106140, Note_on_c, 12, 63, 80
15, 106191, Note_on_c, 12, 63, 0
15, 106200, Note_on_c, 12, 63, 80
15, 106244, Note_on_c, 12, 63, 0
15, 106260, Note_on_c, 12, 62, 80
15, 106304, Note_on_c, 12, 62, 0
15, 106320, Note_on_c, 12, 62, 80
15, 106379, Note_on_c, 12, 62, 0
15, 106380, Note_on_c, 12, 60, 80
15, 106431, Note_on_c, 12, 60, 0
15, 106440, Note_on_c, 12, 60, 80
15, 106484, Note_on_c, 12, 60, 0
15, 106500, Note_on_c, 12, 58, 80
15, 106544, Note_on_c, 12, 58, 0
15, 106560, Note_on_c, 12, 58, 80
15, 106619, Note_on_c, 12, 58, 0
15, 106620, Note_on_c, 12, 57, 80
15, 106671, Note_on_c, 12, 57, 0
15, 106680, Note_on_c, 12, 57, 80
15, 106724, Note_on_c, 12, 57, 0
15, 106740, Note_on_c, 12, 67, 80
15, 106784, Note_on_c, 12, 67, 0
15, 106800, Note_on_c, 12, 66, 80
15, 106844, Note_on_c, 12, 66, 0
15, 106860, Note_on_c, 12, 67, 80
15, 106904, Note_on_c, 12, 67, 0
15, 106920, Note_on_c, 12, 69, 80
15, 106920, Note_on_c, 12, 66, 80
15, 106964, Note_on_c, 12, 69, 0
15, 106964, Note_on_c, 12, 66, 0
15, 106980, Note_on_c, 12, 60, 80
15, 107024, Note_on_c, 12, 60, 0
15, 107040, Note_on_c, 12, 58, 80
15, 107084, Note_on_c, 12, 58, 0
15, 107100, Note_on_c, 12, 58, 80
15, 107144, Note_on_c, 12, 58, 0
15, 107160, Note_on_c, 12, 57, 80
15, 107204, Note_on_c, 12, 57, 0
15, 107220, Note_on_c, 12, 55, 80
15, 107264, Note_on_c, 12, 55, 0
15, 107280, Note_on_c, 12, 60, 80
15, 107324, Note_on_c, 12, 60, 0
15, 107340, Note_on_c, 12, 58, 80
15, 107384, Note_on_c, 12, 58, 0
15, 107400, Note_on_c, 12, 72, 80
15, 107444, Note_on_c, 12, 72, 0
15, 107460, Note_on_c, 12, 70, 80
15, 107504, Note_on_c, 12, 70, 0
15, 107520, Note_on_c, 12, 70, 80
15, 107579, Note_on_c, 12, 70, 0
15, 107580, Note_on_c, 12, 69, 80
15, 107631, Note_on_c, 12, 69, 0
15, 107640, Note_on_c, 12, 69, 80
15, 107684, Note_on_c, 12, 69, 0
15, 107700, Note_on_c, 12, 72, 80
15, 107744, Note_on_c, 12, 72, 0
15, 107760, Note_on_c, 12, 60, 80
15, 107804, Note_on_c, 12, 60, 0
15, 107820, Note_on_c, 12, 72, 80
15, 107864, Note_on_c, 12, 72, 0
15, 107880, Note_on_c, 12, 70, 80
15, 107924, Note_on_c, 12, 70, 0
15, 107940, Note_on_c, 12, 69, 80
15, 107984, Note_on_c, 12, 69, 0
15, 108000, Note_on_c, 12, 72, 80
15, 108059, Note_on_c, 12, 72, 0
15, 108060, Note_on_c, 12, 70, 80
15, 108111, Note_on_c, 12, 70, 0
15, 108120, Note_on_c, 12, 70, 80
15, 108164, Note_on_c, 12, 70, 0
15, 108180, Note_on_c, 12, 74, 80
15, 108224, Note_on_c, 12, 74, 0
15, 108240, Note_on_c, 12, 74, 80
15, 108284, Note_on_c, 12, 74, 0
15, 108300, Note_on_c, 12, 62, 80
15, 108344, Note_on_c, 12, 62, 0
15, 108360, Note_on_c, 12, 60, 80
15, 108404, Note_on_c, 12, 60, 0
15, 108420, Note_on_c, 12, 58, 80
15, 108464, Note_on_c, 12, 58, 0
15, 108480, Note_on_c, 12, 67, 80
15, 108539, Note_on_c, 12, 67, 0
15, 108540, Note_on_c, 12, 66, 80
15, 108591, Note_on_c, 12, 66, 0
15, 108600, Note_on_c, 12, 66, 80
15, 108644, Note_on_c, 12, 66, 0
15, 108660, Note_on_c, 12, 69, 80
15, 108704, Note_on_c, 12, 69, 0
15, 108720, Note_on_c, 12, 60, 80
15, 108764, Note_on_c, 12, 60, 0
15, 108780, Note_on_c, 12, 69, 80
15, 108824, Note_on_c, 12, 69, 0
15, 108840, Note_on_c, 12, 67, 80
15, 108884, Note_on_c, 12, 67, 0
15, 108900, Note_on_c, 12, 66, 80
15, 108944, Note_on_c, 12, 66, 0
15, 108960, Note_on_c, 12, 69, 80
15, 109019, Note_on_c, 12, 69, 0
15, 109020, Note_on_c, 12, 67, 80
15, 109071, Note_on_c, 12, 67, 0
15, 109080, Note_on_c, 12, 67, 80
15, 109124, Note_on_c, 12, 67, 0
15, 109140, Note_on_c, 12, 66, 80
15, 109184, Note_on_c, 12, 66, 0
15, 109200, Note_on_c, 12, 66, 80
15, 109259, Note_on_c, 12, 66, 0
15, 109260, Note_on_c, 12, 67, 80
15, 109311, Note_on_c, 12, 67, 0
15, 109320, Note_on_c, 12, 60, 80
15, 109364, Note_on_c, 12, 60, 0
15, 109380, Note_on_c, 12, 62, 80
15, 109424, Note_on_c, 12, 62, 0
15, 109440, Note_on_c, 12, 62, 80
15, 109499, Note_on_c, 12, 62, 0
15, 109500, Note_on_c, 12, 63, 80
15, 109551, Note_on_c, 12, 63, 0
15, 109560, Note_on_c, 12, 57, 80
15, 109604, Note_on_c, 12, 57, 0
15, 109620, Note_on_c, 12, 59, 80
15, 109664, Note_on_c, 12, 59, 0
15, 109680, Note_on_c, 12, 60, 80
15, 109724, Note_on_c, 12, 60, 0
15, 109740, Note_on_c, 12, 65, 80
15, 109784, Note_on_c, 12, 65, 0
15, 109800, Note_on_c, 12, 63, 80
15, 109844, Note_on_c, 12, 63, 0
15, 109860, Note_on_c, 12, 62, 80
15, 109904, Note_on_c, 12, 62, 0
15, 109920, Note_on_c, 12, 62, 80
15, 109979, Note_on_c, 12, 62, 0
15, 109980, Note_on_c, 12, 60, 80
15, 110031, Note_on_c, 12, 60, 0
15, 110040, Note_on_c, 12, 60, 80
15, 110084, Note_on_c, 12, 60, 0
15, 110100, Note_on_c, 12, 58, 80
15, 110144, Note_on_c, 12, 58, 0
15, 110160, Note_on_c, 12, 58, 80
15, 110219, Note_on_c, 12, 58, 0
15, 110220, Note_on_c, 12, 57, 80
15, 110271, Note_on_c, 12, 57, 0
15, 110280, Note_on_c, 12, 57, 80
15, 110324, Note_on_c, 12, 57, 0
15, 110340, Note_on_c, 12, 60, 80
15, 110384, Note_on_c, 12, 60, 0
15, 110400, Note_on_c, 12, 60, 80
15, 110459, Note_on_c, 12, 60, 0
15, 110460, Note_on_c, 12, 62, 80
15, 110511, Note_on_c, 12, 62, 0
15, 110520, Note_on_c, 12, 62, 80
15, 110564, Note_on_c, 12, 62, 0
15, 110580, Note_on_c, 12, 63, 80
15, 110624, Note_on_c, 12, 63, 0
15, 110640, Note_on_c, 12, 63, 80
15, 110684, Note_on_c, 12, 63, 0
15, 110700, Note_on_c, 12, 72, 80
15, 110744, Note_on_c, 12, 72, 0
15, 110760, Note_on_c, 12, 70, 80
15, 110804, Note_on_c, 12, 70, 0
15, 110820, Note_on_c, 12, 69, 80
15, 110864, Note_on_c, 12, 69, 0
15, 110880, Note_on_c, 12, 70, 92
15, 110939, Note_on_c, 12, 70, 0
15, 110940, Note_on_c, 12, 70, 80
15, 111164, Note_on_c, 12, 70, 0
15, 111180, Note_on_c, 12, 74, 80
15, 111224, Note_on_c, 12, 74, 0
15, 111240, Note_on_c, 12, 72, 80
15, 111284, Note_on_c, 12, 72, 0
15, 111300, Note_on_c, 12, 70, 80
15, 111344, Note_on_c, 12, 70, 0
15, 111360, Note_on_c, 12, 77, 80
15, 111449, Note_on_c, 12, 77, 0
15, 111480, Note_on_c, 12, 75, 80
15, 111569, Note_on_c, 12, 75, 0
15, 111600, Note_on_c, 12, 72, 80
15, 111689, Note_on_c, 12, 72, 0
15, 111720, Note_on_c, 12, 77, 80
15, 111944, Note_on_c, 12, 77, 0
15, 111960, Note_on_c, 12, 74, 80
15, 112049, Note_on_c, 12, 74, 0
15, 112080, Note_on_c, 12, 70, 80
15, 112169, Note_on_c, 12, 70, 0
15, 112200, Note_on_c, 12, 77, 80
15, 112424, Note_on_c, 12, 77, 0
15, 112440, Note_on_c, 12, 72, 80
15, 112529, Note_on_c, 12, 72, 0
15, 112560, Note_on_c, 12, 69, 80
15, 112649, Note_on_c, 12, 69, 0
15, 112680, Note_on_c, 12, 77, 80
15, 113144, Note_on_c, 12, 77, 0
15, 113160, Note_on_c, 12, 65, 92
15, 113219, Note_on_c, 12, 65, 0
15, 113220, Note_on_c, 12, 65, 80
15, 113624, Note_on_c, 12, 65, 0
15, 113640, Note_on_c, 12, 65, 92
15, 113699, Note_on_c, 12, 65, 0
15, 113700, Note_on_c, 12, 65, 80
15, 113864, Note_on_c, 12, 65, 0
15, 113880, Note_on_c, 12, 77, 80
15, 114104, Note_on_c, 12, 77, 0
15, 114120, Note_on_c, 12, 65, 80
15, 114344, Note_on_c, 12, 65, 0
15, 114360, Note_on_c, 12, 77, 92
15, 114419, Note_on_c, 12, 77, 0
15, 114420, Note_on_c, 12, 77, 80
15, 114584, Note_on_c, 12, 77, 0
15, 114600, Note_on_c, 12, 65, 80
15, 114753, Note_on_c, 12, 65, 0
15, 114760, Note_on_c, 12, 74, 80
15, 114760, Note_on_c, 12, 62, 80
15, 114793, Note_on_c, 12, 74, 0
15, 114793, Note_on_c, 12, 62, 0
15, 114800, Note_on_c, 12, 62, 80
15, 114800, Note_on_c, 12, 74, 80
15, 114833, Note_on_c, 12, 62, 0
15, 114833, Note_on_c, 12, 74, 0
15, 114840, Note_on_c, 12, 74, 80
15, 114840, Note_on_c, 12, 62, 80
15, 114873, Note_on_c, 12, 74, 0
15, 114873, Note_on_c, 12, 62, 0
15, 114880, Note_on_c, 12, 62, 80
15, 114880, Note_on_c, 12, 74, 80
15, 114913, Note_on_c, 12, 62, 0
15, 114913, Note_on_c, 12, 74, 0
15, 114920, Note_on_c, 12, 74, 80
15, 114920, Note_on_c, 12, 62, 80
15, 114953, Note_on_c, 12, 74, 0
15, 114953, Note_on_c, 12, 62, 0
15, 114960, Note_on_c, 12, 74, 80
15, 114960, Note_on_c, 12, 62, 80
15, 114993, Note_on_c, 12, 74, 0
15, 114993, Note_on_c, 12, 62, 0
15, 115000, Note_on_c, 12, 74, 80
15, 115000, Note_on_c, 12, 62, 80
15, 115033, Note_on_c, 12, 74, 0
15, 115033, Note_on_c, 12, 62, 0
15, 115040, Note_on_c, 12, 74, 80
15, 115040, Note_on_c, 12, 62, 80
15, 115073, Note_on_c, 12, 74, 0
15, 115073, Note_on_c, 12, 62, 0
15, 115080, Note_on_c, 12, 62, 80
15, 115080, Note_on_c, 12, 74, 80
15, 115113, Note_on_c, 12, 62, 0
15, 115113, Note_on_c, 12, 74, 0
15, 115120, Note_on_c, 12, 74, 80
15, 115120, Note_on_c, 12, 62, 80
15, 115153, Note_on_c, 12, 74, 0
15, 115153, Note_on_c, 12, 62, 0
15, 115160, Note_on_c, 12, 74, 80
15, 115160, Note_on_c, 12, 62, 80
15, 115193, Note_on_c, 12, 74, 0
15, 115193, Note_on_c, 12, 62, 0
15, 115200, Note_on_c, 12, 62, 80
15, 115200, Note_on_c, 12, 74, 80
15, 115233, Note_on_c, 12, 62, 0
15, 115233, Note_on_c, 12, 74, 0
15, 115240, Note_on_c, 12, 62, 80
15, 115240, Note_on_c, 12, 74, 80
15, 115273, Note_on_c, 12, 62, 0
15, 115273, Note_on_c, 12, 74, 0
15, 115280, Note_on_c, 12, 62, 80
15, 115280, Note_on_c, 12, 74, 80
15, 115313, Note_on_c, 12, 62, 0
15, 115313, Note_on_c, 12, 74, 0
15, 115320, Note_on_c, 12, 74, 80
15, 115320, Note_on_c, 12, 62, 80
15, 115353, Note_on_c, 12, 74, 0
15, 115353, Note_on_c, 12, 62, 0
15, 115360, Note_on_c, 12, 62, 80
15, 115360, Note_on_c, 12, 74, 80
15, 115393, Note_on_c, 12, 62, 0
15, 115393, Note_on_c, 12, 74, 0
15, 115400, Note_on_c, 12, 62, 80
15, 115400, Note_on_c, 12, 74, 80
15, 115433, Note_on_c, 12, 62, 0
15, 115433, Note_on_c, 12, 74, 0
15, 115440, Note_on_c, 12, 62, 80
15, 115440, Note_on_c, 12, 74, 80
15, 115473, Note_on_c, 12, 62, 0
15, 115473, Note_on_c, 12, 74, 0
15, 115480, Note_on_c, 12, 74, 80
15, 115480, Note_on_c, 12, 62, 80
15, 115513, Note_on_c, 12, 74, 0
15, 115513, Note_on_c, 12, 62, 0
15, 115520, Note_on_c, 12, 74, 80
15, 115520, Note_on_c, 12, 62, 80
15, 115553, Note_on_c, 12, 74, 0
15, 115553, Note_on_c, 12, 62, 0
15, 115560, Note_on_c, 12, 62, 80
15, 115560, Note_on_c, 12, 74, 80
15, 115593, Note_on_c, 12, 62, 0
15, 115593, Note_on_c, 12, 74, 0
15, 115600, Note_on_c, 12, 74, 80
15, 115600, Note_on_c, 12, 62, 80
15, 115633, Note_on_c, 12, 74, 0
15, 115633, Note_on_c, 12, 62, 0
15, 115640, Note_on_c, 12, 74, 80
15, 115640, Note_on_c, 12, 62, 80
15, 115673, Note_on_c, 12, 74, 0
15, 115673, Note_on_c, 12, 62, 0
15, 115680, Note_on_c, 12, 62, 80
15, 115680, Note_on_c, 12, 74, 80
15, 115713, Note_on_c, 12, 62, 0
15, 115713, Note_on_c, 12, 74, 0
15, 115720, Note_on_c, 12, 74, 80
15, 115720, Note_on_c, 12, 62, 80
15, 115753, Note_on_c, 12, 74, 0
15, 115753, Note_on_c, 12, 62, 0
15, 115760, Note_on_c, 12, 74, 80
15, 115760, Note_on_c, 12, 62, 80
15, 115793, Note_on_c, 12, 74, 0
15, 115793, Note_on_c, 12, 62, 0
15, 115800, Note_on_c, 12, 62, 80
15, 115800, Note_on_c, 12, 74, 80
15, 115833, Note_on_c, 12, 62, 0
15, 115833, Note_on_c, 12, 74, 0
15, 115840, Note_on_c, 12, 62, 80
15, 115840, Note_on_c, 12, 74, 80
15, 115873, Note_on_c, 12, 62, 0
15, 115873, Note_on_c, 12, 74, 0
15, 115880, Note_on_c, 12, 74, 80
15, 115880, Note_on_c, 12, 62, 80
15, 115913, Note_on_c, 12, 74, 0
15, 115913, Note_on_c, 12, 62, 0
15, 115920, Note_on_c, 12, 74, 80
15, 115920, Note_on_c, 12, 62, 80
15, 115953, Note_on_c, 12, 74, 0
15, 115953, Note_on_c, 12, 62, 0
15, 115960, Note_on_c, 12, 62, 80
15, 115960, Note_on_c, 12, 74, 80
15, 115993, Note_on_c, 12, 62, 0
15, 115993, Note_on_c, 12, 74, 0
15, 116000, Note_on_c, 12, 62, 80
15, 116000, Note_on_c, 12, 74, 80
15, 116033, Note_on_c, 12, 62, 0
15, 116033, Note_on_c, 12, 74, 0
15, 116040, Note_on_c, 12, 62, 80
15, 116040, Note_on_c, 12, 74, 80
15, 116073, Note_on_c, 12, 62, 0
15, 116073, Note_on_c, 12, 74, 0
15, 116080, Note_on_c, 12, 62, 80
15, 116080, Note_on_c, 12, 74, 80
15, 116113, Note_on_c, 12, 62, 0
15, 116113, Note_on_c, 12, 74, 0
15, 116120, Note_on_c, 12, 62, 80
15, 116120, Note_on_c, 12, 74, 80
15, 116153, Note_on_c, 12, 62, 0
15, 116153, Note_on_c, 12, 74, 0
15, 116160, Note_on_c, 12, 74, 80
15, 116160, Note_on_c, 12, 62, 80
15, 116193, Note_on_c, 12, 74, 0
15, 116193, Note_on_c, 12, 62, 0
15, 116200, Note_on_c, 12, 62, 80
15, 116200, Note_on_c, 12, 74, 80
15, 116233, Note_on_c, 12, 62, 0
15, 116233, Note_on_c, 12, 74, 0
15, 116240, Note_on_c, 12, 62, 80
15, 116240, Note_on_c, 12, 74, 80
15, 116273, Note_on_c, 12, 62, 0
15, 116273, Note_on_c, 12, 74, 0
15, 116280, Note_on_c, 12, 62, 80
15, 116280, Note_on_c, 12, 74, 80
15, 116313, Note_on_c, 12, 62, 0
15, 116313, Note_on_c, 12, 74, 0
15, 116320, Note_on_c, 12, 74, 80
15, 116320, Note_on_c, 12, 62, 80
15, 116353, Note_on_c, 12, 74, 0
15, 116353, Note_on_c, 12, 62, 0
15, 116360, Note_on_c, 12, 74, 80
15, 116360, Note_on_c, 12, 62, 80
15, 116393, Note_on_c, 12, 74, 0
15, 116393, Note_on_c, 12, 62, 0
15, 116400, Note_on_c, 12, 74, 80
15, 116400, Note_on_c, 12, 62, 80
15, 116433, Note_on_c, 12, 74, 0
15, 116433, Note_on_c, 12, 62, 0
15, 116440, Note_on_c, 12, 74, 80
15, 116440, Note_on_c, 12, 62, 80
15, 116473, Note_on_c, 12, 74, 0
15, 116473, Note_on_c, 12, 62, 0
15, 116480, Note_on_c, 12, 74, 80
15, 116480, Note_on_c, 12, 62, 80
15, 116513, Note_on_c, 12, 74, 0
15, 116513, Note_on_c, 12, 62, 0
15, 116520, Note_on_c, 12, 74, 80
15, 116520, Note_on_c, 12, 62, 80
15, 116553, Note_on_c, 12, 74, 0
15, 116553, Note_on_c, 12, 62, 0
15, 116560, Note_on_c, 12, 74, 80
15, 116560, Note_on_c, 12, 62, 80
15, 116593, Note_on_c, 12, 74, 0
15, 116593, Note_on_c, 12, 62, 0
15, 116600, Note_on_c, 12, 74, 80
15, 116600, Note_on_c, 12, 62, 80
15, 116633, Note_on_c, 12, 74, 0
15, 116633, Note_on_c, 12, 62, 0
15, 116640, Note_on_c, 12, 74, 80
15, 116640, Note_on_c, 12, 62, 80
15, 116673, Note_on_c, 12, 74, 0
15, 116673, Note_on_c, 12, 62, 0
15, 116680, Note_on_c, 12, 74, 80
15, 116680, Note_on_c, 12, 62, 80
15, 116713, Note_on_c, 12, 74, 0
15, 116713, Note_on_c, 12, 62, 0
15, 116720, Note_on_c, 12, 62, 80
15, 116720, Note_on_c, 12, 74, 80
15, 116753, Note_on_c, 12, 62, 0
15, 116753, Note_on_c, 12, 74, 0
15, 116760, Note_on_c, 12, 74, 80
15, 116760, Note_on_c, 12, 62, 80
15, 116793, Note_on_c, 12, 74, 0
15, 116793, Note_on_c, 12, 62, 0
15, 116800, Note_on_c, 12, 74, 80
15, 116800, Note_on_c, 12, 62, 80
15, 116833, Note_on_c, 12, 74, 0
15, 116833, Note_on_c, 12, 62, 0
15, 116840, Note_on_c, 12, 74, 80
15, 116840, Note_on_c, 12, 62, 80
15, 116873, Note_on_c, 12, 74, 0
15, 116873, Note_on_c, 12, 62, 0
15, 116880, Note_on_c, 12, 62, 80
15, 116880, Note_on_c, 12, 74, 80
15, 116913, Note_on_c, 12, 62, 0
15, 116913, Note_on_c, 12, 74, 0
15, 116920, Note_on_c, 12, 62, 80
15, 116920, Note_on_c, 12, 74, 80
15, 116953, Note_on_c, 12, 62, 0
15, 116953, Note_on_c, 12, 74, 0
15, 116960, Note_on_c, 12, 74, 80
15, 116960, Note_on_c, 12, 62, 80
15, 116993, Note_on_c, 12, 74, 0
15, 116993, Note_on_c, 12, 62, 0
15, 117000, Note_on_c, 12, 73, 80
15, 117033, Note_on_c, 12, 73, 0
15, 117040, Note_on_c, 12, 76, 80
15, 117073, Note_on_c, 12, 76, 0
15, 117080, Note_on_c, 12, 76, 80
15, 117113, Note_on_c, 12, 76, 0
15, 117120, Note_on_c, 12, 69, 80
15, 117120, Note_on_c, 12, 57, 80
15, 117153, Note_on_c, 12, 69, 0
15, 117153, Note_on_c, 12, 57, 0
15, 117160, Note_on_c, 12, 57, 80
15, 117160, Note_on_c, 12, 69, 80
15, 117193, Note_on_c, 12, 57, 0
15, 117193, Note_on_c, 12, 69, 0
15, 117200, Note_on_c, 12, 57, 80
15, 117200, Note_on_c, 12, 69, 80
15, 117233, Note_on_c, 12, 57, 0
15, 117233, Note_on_c, 12, 69, 0
15, 117240, Note_on_c, 12, 69, 80
15, 117240, Note_on_c, 12, 57, 80
15, 117273, Note_on_c, 12, 69, 0
15, 117273, Note_on_c, 12, 57, 0
15, 117280, Note_on_c, 12, 57, 80
15, 117280, Note_on_c, 12, 69, 80
15, 117313, Note_on_c, 12, 57, 0
15, 117313, Note_on_c, 12, 69, 0
15, 117320, Note_on_c, 12, 57, 80
15, 117320, Note_on_c, 12, 69, 80
15, 117353, Note_on_c, 12, 57, 0
15, 117353, Note_on_c, 12, 69, 0
15, 117360, Note_on_c, 12, 81, 80
15, 117360, Note_on_c, 12, 69, 80
15, 117393, Note_on_c, 12, 81, 0
15, 117393, Note_on_c, 12, 69, 0
15, 117400, Note_on_c, 12, 81, 80
15, 117400, Note_on_c, 12, 69, 80
15, 117433, Note_on_c, 12, 81, 0
15, 117433, Note_on_c, 12, 69, 0
15, 117440, Note_on_c, 12, 81, 80
15, 117440, Note_on_c, 12, 69, 80
15, 117473, Note_on_c, 12, 81, 0
15, 117473, Note_on_c, 12, 69, 0
15, 117480, Note_on_c, 12, 81, 80
15, 117480, Note_on_c, 12, 69, 80
15, 117513, Note_on_c, 12, 81, 0
15, 117513, Note_on_c, 12, 69, 0
15, 117520, Note_on_c, 12, 81, 80
15, 117520, Note_on_c, 12, 69, 80
15, 117553, Note_on_c, 12, 81, 0
15, 117553, Note_on_c, 12, 69, 0
15, 117560, Note_on_c, 12, 81, 80
15, 117560, Note_on_c, 12, 69, 80
15, 117593, Note_on_c, 12, 81, 0
15, 117593, Note_on_c, 12, 69, 0
15, 117600, Note_on_c, 12, 69, 80
15, 117600, Note_on_c, 12, 81, 80
15, 117633, Note_on_c, 12, 69, 0
15, 117633, Note_on_c, 12, 81, 0
15, 117640, Note_on_c, 12, 69, 80
15, 117640, Note_on_c, 12, 81, 80
15, 117673, Note_on_c, 12, 69, 0
15, 117673, Note_on_c, 12, 81, 0
15, 117680, Note_on_c, 12, 81, 80
15, 117680, Note_on_c, 12, 69, 80
15, 117713, Note_on_c, 12, 81, 0
15, 117713, Note_on_c, 12, 69, 0
15, 117720, Note_on_c, 12, 81, 80
15, 117720, Note_on_c, 12, 69, 80
15, 117753, Note_on_c, 12, 81, 0
15, 117753, Note_on_c, 12, 69, 0
15, 117760, Note_on_c, 12, 69, 80
15, 117760, Note_on_c, 12, 81, 80
15, 117793, Note_on_c, 12, 69, 0
15, 117793, Note_on_c, 12, 81, 0
15, 117800, Note_on_c, 12, 81, 80
15, 117800, Note_on_c, 12, 69, 80
15, 117833, Note_on_c, 12, 81, 0
15, 117833, Note_on_c, 12, 69, 0
15, 117840, Note_on_c, 12, 69, 80
15, 117840, Note_on_c, 12, 81, 80
15, 117873, Note_on_c, 12, 69, 0
15, 117873, Note_on_c, 12, 81, 0
15, 117880, Note_on_c, 12, 69, 80
15, 117880, Note_on_c, 12, 81, 80
15, 117913, Note_on_c, 12, 69, 0
15, 117913, Note_on_c, 12, 81, 0
15, 117920, Note_on_c, 12, 69, 80
15, 117920, Note_on_c, 12, 81, 80
15, 117953, Note_on_c, 12, 69, 0
15, 117953, Note_on_c, 12, 81, 0
15, 117960, Note_on_c, 12, 69, 80
15, 117960, Note_on_c, 12, 81, 80
15, 117993, Note_on_c, 12, 69, 0
15, 117993, Note_on_c, 12, 81, 0
15, 118000, Note_on_c, 12, 69, 80
15, 118000, Note_on_c, 12, 81, 80
15, 118033, Note_on_c, 12, 69, 0
15, 118033, Note_on_c, 12, 81, 0
15, 118040, Note_on_c, 12, 69, 80
15, 118040, Note_on_c, 12, 81, 80
15, 118073, Note_on_c, 12, 69, 0
15, 118073, Note_on_c, 12, 81, 0
15, 118080, Note_on_c, 12, 81, 80
15, 118080, Note_on_c, 12, 69, 80
15, 118113, Note_on_c, 12, 81, 0
15, 118113, Note_on_c, 12, 69, 0
15, 118120, Note_on_c, 12, 69, 80
15, 118120, Note_on_c, 12, 81, 80
15, 118153, Note_on_c, 12, 69, 0
15, 118153, Note_on_c, 12, 81, 0
15, 118160, Note_on_c, 12, 81, 80
15, 118160, Note_on_c, 12, 69, 80
15, 118193, Note_on_c, 12, 81, 0
15, 118193, Note_on_c, 12, 69, 0
15, 118200, Note_on_c, 12, 69, 80
15, 118200, Note_on_c, 12, 81, 80
15, 118233, Note_on_c, 12, 69, 0
15, 118233, Note_on_c, 12, 81, 0
15, 118240, Note_on_c, 12, 81, 80
15, 118240, Note_on_c, 12, 69, 80
15, 118273, Note_on_c, 12, 81, 0
15, 118273, Note_on_c, 12, 69, 0
15, 118280, Note_on_c, 12, 81, 80
15, 118280, Note_on_c, 12, 69, 80
15, 118313, Note_on_c, 12, 81, 0
15, 118313, Note_on_c, 12, 69, 0
15, 118320, Note_on_c, 12, 81, 80
15, 118320, Note_on_c, 12, 69, 80
15, 118353, Note_on_c, 12, 81, 0
15, 118353, Note_on_c, 12, 69, 0
15, 118360, Note_on_c, 12, 81, 80
15, 118360, Note_on_c, 12, 69, 80
15, 118393, Note_on_c, 12, 81, 0
15, 118393, Note_on_c, 12, 69, 0
15, 118400, Note_on_c, 12, 81, 80
15, 118400, Note_on_c, 12, 69, 80
15, 118433, Note_on_c, 12, 81, 0
15, 118433, Note_on_c, 12, 69, 0
15, 118440, Note_on_c, 12, 69, 80
15, 118440, Note_on_c, 12, 81, 80
15, 118473, Note_on_c, 12, 69, 0
15, 118473, Note_on_c, 12, 81, 0
15, 118480, Note_on_c, 12, 81, 80
15, 118480, Note_on_c, 12, 69, 80
15, 118513, Note_on_c, 12, 81, 0
15, 118513, Note_on_c, 12, 69, 0
15, 118520, Note_on_c, 12, 81, 80
15, 118520, Note_on_c, 12, 69, 80
15, 118553, Note_on_c, 12, 81, 0
15, 118553, Note_on_c, 12, 69, 0
15, 118560, Note_on_c, 12, 69, 80
15, 118560, Note_on_c, 12, 81, 80
15, 118593, Note_on_c, 12, 69, 0
15, 118593, Note_on_c, 12, 81, 0
15, 118600, Note_on_c, 12, 69, 80
15, 118600, Note_on_c, 12, 81, 80
15, 118633, Note_on_c, 12, 69, 0
15, 118633, Note_on_c, 12, 81, 0
15, 118640, Note_on_c, 12, 69, 80
15, 118640, Note_on_c, 12, 81, 80
15, 118673, Note_on_c, 12, 69, 0
15, 118673, Note_on_c, 12, 81, 0
15, 118680, Note_on_c, 12, 81, 80
15, 118680, Note_on_c, 12, 69, 80
15, 118713, Note_on_c, 12, 81, 0
15, 118713, Note_on_c, 12, 69, 0
15, 118720, Note_on_c, 12, 81, 80
15, 118720, Note_on_c, 12, 69, 80
15, 118753, Note_on_c, 12, 81, 0
15, 118753, Note_on_c, 12, 69, 0
15, 118760, Note_on_c, 12, 81, 80
15, 118760, Note_on_c, 12, 69, 80
15, 118793, Note_on_c, 12, 81, 0
15, 118793, Note_on_c, 12, 69, 0
15, 118800, Note_on_c, 12, 81, 80
15, 118800, Note_on_c, 12, 69, 80
15, 118833, Note_on_c, 12, 81, 0
15, 118833, Note_on_c, 12, 69, 0
15, 118840, Note_on_c, 12, 69, 80
15, 118840, Note_on_c, 12, 81, 80
15, 118873, Note_on_c, 12, 69, 0
15, 118873, Note_on_c, 12, 81, 0
15, 118880, Note_on_c, 12, 69, 80
15, 118880, Note_on_c, 12, 81, 80
15, 118913, Note_on_c, 12, 69, 0
15, 118913, Note_on_c, 12, 81, 0
15, 118920, Note_on_c, 12, 72, 80
15, 118953, Note_on_c, 12, 72, 0
15, 118960, Note_on_c, 12, 72, 80
15, 118993, Note_on_c, 12, 72, 0
15, 119000, Note_on_c, 12, 72, 80
15, 119033, Note_on_c, 12, 72, 0
15, 119040, Note_on_c, 12, 72, 80
15, 119073, Note_on_c, 12, 72, 0
15, 119080, Note_on_c, 12, 72, 80
15, 119113, Note_on_c, 12, 72, 0
15, 119120, Note_on_c, 12, 72, 80
15, 119153, Note_on_c, 12, 72, 0
15, 119160, Note_on_c, 12, 68, 80
15, 119193, Note_on_c, 12, 68, 0
15, 119200, Note_on_c, 12, 68, 80
15, 119233, Note_on_c, 12, 68, 0
15, 119240, Note_on_c, 12, 68, 80
15, 119273, Note_on_c, 12, 68, 0
15, 119280, Note_on_c, 12, 65, 80
15, 119280, Note_on_c, 12, 59, 80
15, 119313, Note_on_c, 12, 65, 0
15, 119313, Note_on_c, 12, 59, 0
15, 119320, Note_on_c, 12, 65, 80
15, 119320, Note_on_c, 12, 59, 80
15, 119353, Note_on_c, 12, 65, 0
15, 119353, Note_on_c, 12, 59, 0
15, 119360, Note_on_c, 12, 65, 80
15, 119360, Note_on_c, 12, 59, 80
15, 119393, Note_on_c, 12, 65, 0
15, 119393, Note_on_c, 12, 59, 0
15, 119400, Note_on_c, 12, 68, 80
15, 119400, Note_on_c, 12, 59, 80
15, 119433, Note_on_c, 12, 68, 0
15, 119433, Note_on_c, 12, 59, 0
15, 119440, Note_on_c, 12, 68, 80
15, 119440, Note_on_c, 12, 59, 80
15, 119473, Note_on_c, 12, 68, 0
15, 119473, Note_on_c, 12, 59, 0
15, 119480, Note_on_c, 12, 68, 80
15, 119480, Note_on_c, 12, 59, 80
15, 119513, Note_on_c, 12, 68, 0
15, 119513, Note_on_c, 12, 59, 0
15, 119520, Note_on_c, 12, 59, 80
15, 119520, Note_on_c, 12, 68, 80
15, 119553, Note_on_c, 12, 59, 0
15, 119553, Note_on_c, 12, 68, 0
15, 119560, Note_on_c, 12, 59, 80
15, 119560, Note_on_c, 12, 68, 80
15, 119593, Note_on_c, 12, 59, 0
15, 119593, Note_on_c, 12, 68, 0
15, 119600, Note_on_c, 12, 68, 80
15, 119600, Note_on_c, 12, 59, 80
15, 119633, Note_on_c, 12, 68, 0
15, 119633, Note_on_c, 12, 59, 0
15, 119640, Note_on_c, 12, 59, 80
15, 119640, Note_on_c, 12, 68, 80
15, 119673, Note_on_c, 12, 59, 0
15, 119673, Note_on_c, 12, 68, 0
15, 119680, Note_on_c, 12, 59, 80
15, 119680, Note_on_c, 12, 68, 80
15, 119713, Note_on_c, 12, 59, 0
15, 119713, Note_on_c, 12, 68, 0
15, 119720, Note_on_c, 12, 68, 80
15, 119720, Note_on_c, 12, 59, 80
15, 119753, Note_on_c, 12, 68, 0
15, 119753, Note_on_c, 12, 59, 0
15, 119760, Note_on_c, 12, 68, 80
15, 119760, Note_on_c, 12, 59, 80
15, 119793, Note_on_c, 12, 68, 0
15, 119793, Note_on_c, 12, 59, 0
15, 119800, Note_on_c, 12, 59, 80
15, 119800, Note_on_c, 12, 68, 80
15, 119833, Note_on_c, 12, 59, 0
15, 119833, Note_on_c, 12, 68, 0
15, 119840, Note_on_c, 12, 59, 80
15, 119840, Note_on_c, 12, 68, 80
15, 119873, Note_on_c, 12, 59, 0
15, 119873, Note_on_c, 12, 68, 0
15, 119880, Note_on_c, 12, 72, 80
15, 119913, Note_on_c, 12, 72, 0
15, 119920, Note_on_c, 12, 72, 80
15, 119953, Note_on_c, 12, 72, 0
15, 119960, Note_on_c, 12, 72, 80
15, 119993, Note_on_c, 12, 72, 0
15, 120000, Note_on_c, 12, 72, 80
15, 120033, Note_on_c, 12, 72, 0
15, 120040, Note_on_c, 12, 72, 80
15, 120073, Note_on_c, 12, 72, 0
15, 120080, Note_on_c, 12, 72, 80
15, 120113, Note_on_c, 12, 72, 0
15, 120120, Note_on_c, 12, 68, 80
15, 120153, Note_on_c, 12, 68, 0
15, 120160, Note_on_c, 12, 68, 80
15, 120193, Note_on_c, 12, 68, 0
15, 120200, Note_on_c, 12, 68, 80
15, 120233, Note_on_c, 12, 68, 0
15, 120240, Note_on_c, 12, 65, 80
15, 120240, Note_on_c, 12, 59, 80
15, 120273, Note_on_c, 12, 65, 0
15, 120273, Note_on_c, 12, 59, 0
15, 120280, Note_on_c, 12, 59, 80
15, 120280, Note_on_c, 12, 65, 80
15, 120313, Note_on_c, 12, 59, 0
15, 120313, Note_on_c, 12, 65, 0
15, 120320, Note_on_c, 12, 59, 80
15, 120320, Note_on_c, 12, 65, 80
15, 120353, Note_on_c, 12, 59, 0
15, 120353, Note_on_c, 12, 65, 0
15, 120360, Note_on_c, 12, 59, 80
15, 120360, Note_on_c, 12, 68, 80
15, 120393, Note_on_c, 12, 59, 0
15, 120393, Note_on_c, 12, 68, 0
15, 120400, Note_on_c, 12, 68, 80
15, 120400, Note_on_c, 12, 59, 80
15, 120433, Note_on_c, 12, 68, 0
15, 120433, Note_on_c, 12, 59, 0
15, 120440, Note_on_c, 12, 68, 80
15, 120440, Note_on_c, 12, 59, 80
15, 120473, Note_on_c, 12, 68, 0
15, 120473, Note_on_c, 12, 59, 0
15, 120480, Note_on_c, 12, 68, 80
15, 120480, Note_on_c, 12, 59, 80
15, 120513, Note_on_c, 12, 68, 0
15, 120513, Note_on_c, 12, 59, 0
15, 120520, Note_on_c, 12, 59, 80
15, 120520, Note_on_c, 12, 68, 80
15, 120553, Note_on_c, 12, 59, 0
15, 120553, Note_on_c, 12, 68, 0
15, 120560, Note_on_c, 12, 68, 80
15, 120560, Note_on_c, 12, 59, 80
15, 120593, Note_on_c, 12, 68, 0
15, 120593, Note_on_c, 12, 59, 0
15, 120600, Note_on_c, 12, 68, 80
15, 120600, Note_on_c, 12, 59, 80
15, 120633, Note_on_c, 12, 68, 0
15, 120633, Note_on_c, 12, 59, 0
15, 120640, Note_on_c, 12, 68, 80
15, 120640, Note_on_c, 12, 59, 80
15, 120673, Note_on_c, 12, 68, 0
15, 120673, Note_on_c, 12, 59, 0
15, 120680, Note_on_c, 12, 68, 80
15, 120680, Note_on_c, 12, 59, 80
15, 120713, Note_on_c, 12, 68, 0
15, 120713, Note_on_c, 12, 59, 0
15, 120720, Note_on_c, 12, 59, 80
15, 120720, Note_on_c, 12, 68, 80
15, 120753, Note_on_c, 12, 59, 0
15, 120753, Note_on_c, 12, 68, 0
15, 120760, Note_on_c, 12, 59, 80
15, 120760, Note_on_c, 12, 68, 80
15, 120793, Note_on_c, 12, 59, 0
15, 120793, Note_on_c, 12, 68, 0
15, 120800, Note_on_c, 12, 59, 80
15, 120800, Note_on_c, 12, 68, 80
15, 120833, Note_on_c, 12, 59, 0
15, 120833, Note_on_c, 12, 68, 0
15, 120840, Note_on_c, 12, 59, 80
15, 120840, Note_on_c, 12, 68, 80
15, 120873, Note_on_c, 12, 59, 0
15, 120873, Note_on_c, 12, 68, 0
15, 120880, Note_on_c, 12, 68, 68
15, 120880, Note_on_c, 12, 59, 68
15, 120913, Note_on_c, 12, 68, 0
15, 120913, Note_on_c, 12, 59, 0
15, 120920, Note_on_c, 12, 68, 56
15, 120920, Note_on_c, 12, 59, 56
15, 120953, Note_on_c, 12, 68, 0
15, 120953, Note_on_c, 12, 59, 0
15, 120960, Note_on_c, 12, 68, 44
15, 120960, Note_on_c, 12, 59, 44
15, 121004, Note_on_c, 12, 68, 0
15, 121004, Note_on_c, 12, 59, 0
15, 121020, Note_on_c, 12, 62, 44
15, 121064, Note_on_c, 12, 62, 0
15, 121080, Note_on_c, 12, 64, 44
15, 121124, Note_on_c, 12, 64, 0
15, 121140, Note_on_c, 12, 65, 44
15, 121184, Note_on_c, 12, 65, 0
15, 121200, Note_on_c, 12, 65, 44
15, 121244, Note_on_c, 12, 65, 0
15, 121260, Note_on_c, 12, 71, 44
15, 121304, Note_on_c, 12, 71, 0
15, 121320, Note_on_c, 12, 69, 44
15, 121364, Note_on_c, 12, 69, 0
15, 121380, Note_on_c, 12, 68, 44
15, 121424, Note_on_c, 12, 68, 0
15, 121440, Note_on_c, 12, 68, 38
15, 121484, Note_on_c, 12, 68, 0
15, 121500, Note_on_c, 12, 62, 38
15, 121544, Note_on_c, 12, 62, 0
15, 121560, Note_on_c, 12, 64, 38
15, 121604, Note_on_c, 12, 64, 0
15, 121620, Note_on_c, 12, 65, 38
15, 121664, Note_on_c, 12, 65, 0
15, 121680, Note_on_c, 12, 65, 38
15, 121724, Note_on_c, 12, 65, 0
15, 121740, Note_on_c, 12, 71, 38
15, 121784, Note_on_c, 12, 71, 0
15, 121800, Note_on_c, 12, 69, 38
15, 121844, Note_on_c, 12, 69, 0
15, 121860, Note_on_c, 12, 68, 38
15, 121904, Note_on_c, 12, 68, 0
15, 121920, Note_on_c, 12, 69, 38
15, 122039, Note_on_c, 12, 69, 0
15, 122220, Note_on_c, 12, 57, 38
15, 122264, Note_on_c, 12, 57, 0
15, 122280, Note_on_c, 12, 59, 38
15, 122324, Note_on_c, 12, 59, 0
15, 122340, Note_on_c, 12, 60, 38
15, 122384, Note_on_c, 12, 60, 0
15, 122400, Note_on_c, 12, 60, 38
15, 122519, Note_on_c, 12, 60, 0
15, 122700, Note_on_c, 12, 60, 38
15, 122744, Note_on_c, 12, 60, 0
15, 122760, Note_on_c, 12, 62, 38
15, 122804, Note_on_c, 12, 62, 0
15, 122820, Note_on_c, 12, 64, 38
15, 122864, Note_on_c, 12, 64, 0
15, 122880, Note_on_c, 12, 68, 38
15, 122924, Note_on_c, 12, 68, 0
15, 122940, Note_on_c, 12, 62, 38
15, 122984, Note_on_c, 12, 62, 0
15, 123000, Note_on_c, 12, 64, 38
15, 123044, Note_on_c, 12, 64, 0
15, 123060, Note_on_c, 12, 65, 38
15, 123104, Note_on_c, 12, 65, 0
15, 123120, Note_on_c, 12, 65, 38
15, 123164, Note_on_c, 12, 65, 0
15, 123180, Note_on_c, 12, 62, 38
15, 123224, Note_on_c, 12, 62, 0
15, 123240, Note_on_c, 12, 69, 38
15, 123284, Note_on_c, 12, 69, 0
15, 123300, Note_on_c, 12, 68, 38
15, 123344, Note_on_c, 12, 68, 0
15, 123360, Note_on_c, 12, 68, 32
15, 123404, Note_on_c, 12, 68, 0
15, 123420, Note_on_c, 12, 62, 32
15, 123464, Note_on_c, 12, 62, 0
15, 123480, Note_on_c, 12, 64, 32
15, 123524, Note_on_c, 12, 64, 0
15, 123540, Note_on_c, 12, 65, 32
15, 123584, Note_on_c, 12, 65, 0
15, 123600, Note_on_c, 12, 65, 32
15, 123644, Note_on_c, 12, 65, 0
15, 123660, Note_on_c, 12, 62, 32
15, 123704, Note_on_c, 12, 62, 0
15, 123720, Note_on_c, 12, 69, 32
15, 123764, Note_on_c, 12, 69, 0
15, 123780, Note_on_c, 12, 68, 32
15, 123824, Note_on_c, 12, 68, 0
15, 123840, Note_on_c, 12, 60, 32
15, 123884, Note_on_c, 12, 60, 0
15, 123900, Note_on_c, 12, 64, 32
15, 123959, Note_on_c, 12, 64, 0
15, 123960, Note_on_c, 12, 65, 32
15, 124019, Note_on_c, 12, 65, 0
15, 124020, Note_on_c, 12, 64, 32
15, 124071, Note_on_c, 12, 64, 0
15, 124080, Note_on_c, 12, 64, 32
15, 124131, Note_on_c, 12, 64, 0
15, 124140, Note_on_c, 12, 64, 32
15, 124184, Note_on_c, 12, 64, 0
15, 124200, Note_on_c, 12, 64, 32
15, 124244, Note_on_c, 12, 64, 0
15, 124260, Note_on_c, 12, 64, 32
15, 124304, Note_on_c, 12, 64, 0
15, 124320, Note_on_c, 12, 64, 32
15, 124364, Note_on_c, 12, 64, 0
15, 124380, Note_on_c, 12, 64, 32
15, 124439, Note_on_c, 12, 64, 0
15, 124440, Note_on_c, 12, 65, 32
15, 124499, Note_on_c, 12, 65, 0
15, 124500, Note_on_c, 12, 64, 32
15, 124551, Note_on_c, 12, 64, 0
15, 124560, Note_on_c, 12, 64, 32
15, 124611, Note_on_c, 12, 64, 0
15, 124620, Note_on_c, 12, 64, 32
15, 124671, Note_on_c, 12, 64, 0
15, 124680, Note_on_c, 12, 64, 32
15, 124731, Note_on_c, 12, 64, 0
15, 124740, Note_on_c, 12, 64, 32
15, 124791, Note_on_c, 12, 64, 0
15, 124800, Note_on_c, 12, 74, 32
15, 125099, Note_on_c, 12, 74, 0
15, 125100, Note_on_c, 12, 77, 32
15, 125151, Note_on_c, 12, 77, 0
15, 125160, Note_on_c, 12, 76, 32
15, 125204, Note_on_c, 12, 76, 0
15, 125220, Note_on_c, 12, 74, 32
15, 125264, Note_on_c, 12, 74, 0
15, 125280, Note_on_c, 12, 74, 32
15, 125579, Note_on_c, 12, 74, 0
15, 125580, Note_on_c, 12, 77, 32
15, 125631, Note_on_c, 12, 77, 0
15, 125640, Note_on_c, 12, 76, 32
15, 125684, Note_on_c, 12, 76, 0
15, 125700, Note_on_c, 12, 74, 32
15, 125744, Note_on_c, 12, 74, 0
15, 125760, Note_on_c, 12, 74, 32
15, 125999, Note_on_c, 12, 74, 0
15, 126000, Note_on_c, 12, 72, 32
15, 126479, Note_on_c, 12, 72, 0
15, 126480, Note_on_c, 12, 76, 32
15, 126704, Note_on_c, 12, 76, 0
15, 126718, Control_c, 12, 11, 67
15, 126720, Control_c, 12, 11, 67
15, 126720, Note_on_c, 12, 74, 68
15, 126760, Control_c, 12, 11, 68
15, 126800, Control_c, 12, 11, 69
15, 126840, Control_c, 12, 11, 70
15, 126880, Control_c, 12, 11, 71
15, 126920, Control_c, 12, 11, 72
15, 126960, Control_c, 12, 11, 73
15, 127000, Control_c, 12, 11, 74
15, 127019, Note_on_c, 12, 74, 0
15, 127020, Note_on_c, 12, 77, 68
15, 127040, Control_c, 12, 11, 75
15, 127071, Note_on_c, 12, 77, 0
15, 127080, Control_c, 12, 11, 76
15, 127080, Note_on_c, 12, 76, 68
15, 127120, Control_c, 12, 11, 77
15, 127124, Note_on_c, 12, 76, 0
15, 127140, Note_on_c, 12, 74, 68
15, 127160, Control_c, 12, 11, 78
15, 127184, Note_on_c, 12, 74, 0
15, 127200, Control_c, 12, 11, 79
15, 127200, Note_on_c, 12, 74, 68
15, 127240, Control_c, 12, 11, 80
15, 127280, Control_c, 12, 11, 81
15, 127320, Control_c, 12, 11, 82
15, 127360, Control_c, 12, 11, 83
15, 127400, Control_c, 12, 11, 84
15, 127440, Control_c, 12, 11, 85
15, 127480, Control_c, 12, 11, 86
15, 127499, Note_on_c, 12, 74, 0
15, 127500, Note_on_c, 12, 77, 68
15, 127520, Control_c, 12, 11, 87
15, 127551, Note_on_c, 12, 77, 0
15, 127560, Note_on_c, 12, 76, 68
15, 127560, Control_c, 12, 11, 88
15, 127600, Control_c, 12, 11, 89
15, 127604, Note_on_c, 12, 76, 0
15, 127620, Note_on_c, 12, 74, 68
15, 127640, Control_c, 12, 11, 90
15, 127664, Note_on_c, 12, 74, 0
15, 127680, Note_on_c, 12, 72, 68
15, 127680, Control_c, 12, 11, 91
15, 127720, Control_c, 12, 11, 92
15, 127760, Control_c, 12, 11, 93
15, 127799, Note_on_c, 12, 72, 0
15, 127800, Control_c, 12, 11, 94
15, 131040, Control_c, 12, 11, 127
15, 131100, Note_on_c, 12, 57, 32
15, 131144, Note_on_c, 12, 57, 0
15, 131160, Note_on_c, 12, 57, 32
15, 131204, Note_on_c, 12, 57, 0
15, 131220, Note_on_c, 12, 57, 32
15, 131264, Note_on_c, 12, 57, 0
15, 131280, Note_on_c, 12, 57, 32
15, 131399, Note_on_c, 12, 57, 0
15, 131760, Note_on_c, 12, 60, 32
15, 131879, Note_on_c, 12, 60, 0
15, 132240, Note_on_c, 12, 64, 32
15, 132359, Note_on_c, 12, 64, 0
15, 132720, Note_on_c, 12, 65, 32
15, 132839, Note_on_c, 12, 65, 0
15, 133200, Note_on_c, 12, 62, 32
15, 133200, Note_on_c, 12, 65, 32
15, 133304, Note_on_c, 12, 62, 0
15, 133304, Note_on_c, 12, 65, 0
15, 133320, Note_on_c, 12, 62, 38
15, 133439, Note_on_c, 12, 62, 0
15, 133440, Note_on_c, 12, 62, 38
15, 133499, Note_on_c, 12, 62, 0
15, 133500, Note_on_c, 12, 60, 38
15, 133544, Note_on_c, 12, 60, 0
15, 133560, Note_on_c, 12, 64, 38
15, 133604, Note_on_c, 12, 64, 0
15, 133620, Note_on_c, 12, 68, 38
15, 133664, Note_on_c, 12, 68, 0
15, 133680, Note_on_c, 12, 69, 38
15, 133799, Note_on_c, 12, 69, 0
15, 133920, Note_on_c, 12, 57, 38
15, 133979, Note_on_c, 12, 57, 0
15, 133980, Note_on_c, 12, 60, 38
15, 134024, Note_on_c, 12, 60, 0
15, 134040, Note_on_c, 12, 65, 38
15, 134084, Note_on_c, 12, 65, 0
15, 134100, Note_on_c, 12, 67, 38
15, 134144, Note_on_c, 12, 67, 0
15, 134160, Note_on_c, 12, 69, 38
15, 134279, Note_on_c, 12, 69, 0
15, 134400, Note_on_c, 12, 60, 38
15, 134459, Note_on_c, 12, 60, 0
15, 134460, Note_on_c, 12, 64, 38
15, 134504, Note_on_c, 12, 64, 0
15, 134520, Note_on_c, 12, 67, 38
15, 134564, Note_on_c, 12, 67, 0
15, 134580, Note_on_c, 12, 69, 38
15, 134624, Note_on_c, 12, 69, 0
15, 134640, Note_on_c, 12, 70, 38
15, 134759, Note_on_c, 12, 70, 0
15, 134880, Note_on_c, 12, 58, 38
15, 134939, Note_on_c, 12, 58, 0
15, 134940, Note_on_c, 12, 64, 38
15, 134984, Note_on_c, 12, 64, 0
15, 135000, Note_on_c, 12, 64, 38
15, 135044, Note_on_c, 12, 64, 0
15, 135060, Note_on_c, 12, 65, 38
15, 135104, Note_on_c, 12, 65, 0
15, 135120, Note_on_c, 12, 67, 38
15, 135239, Note_on_c, 12, 67, 0
15, 135360, Control_c, 12, 11, 67
15, 135384, Control_c, 12, 11, 68
15, 135408, Control_c, 12, 11, 69
15, 135432, Control_c, 12, 11, 70
15, 135456, Control_c, 12, 11, 71
15, 135480, Note_on_c, 12, 57, 68
15, 135480, Control_c, 12, 11, 72
15, 135504, Control_c, 12, 11, 73
15, 135528, Control_c, 12, 11, 74
15, 135552, Control_c, 12, 11, 75
15, 135576, Control_c, 12, 11, 76
15, 135600, Control_c, 12, 11, 77
15, 135624, Control_c, 12, 11, 78
15, 135648, Control_c, 12, 11, 79
15, 135672, Control_c, 12, 11, 80
15, 135696, Control_c, 12, 11, 81
15, 135719, Note_on_c, 12, 57, 0
15, 135720, Note_on_c, 12, 62, 68
15, 135720, Control_c, 12, 11, 82
15, 135744, Control_c, 12, 11, 83
15, 135768, Control_c, 12, 11, 84
15, 135779, Note_on_c, 12, 62, 0
15, 135780, Note_on_c, 12, 60, 68
15, 135792, Control_c, 12, 11, 85
15, 135816, Control_c, 12, 11, 86
15, 135839, Note_on_c, 12, 60, 0
15, 135840, Control_c, 12, 11, 87
15, 135864, Control_c, 12, 11, 88
15, 135888, Control_c, 12, 11, 89
15, 135912, Control_c, 12, 11, 90
15, 135936, Control_c, 12, 11, 91
15, 135960, Note_on_c, 12, 60, 68
15, 135960, Control_c, 12, 11, 92
15, 135984, Control_c, 12, 11, 93
15, 136008, Control_c, 12, 11, 94
15, 136032, Control_c, 12, 11, 95
15, 136056, Control_c, 12, 11, 96
15, 136080, Control_c, 12, 11, 97
15, 136104, Control_c, 12, 11, 98
15, 136128, Control_c, 12, 11, 99
15, 136152, Control_c, 12, 11, 100
15, 136176, Control_c, 12, 11, 101
15, 136199, Note_on_c, 12, 60, 0
15, 136200, Control_c, 12, 11, 102
15, 136200, Note_on_c, 12, 67, 68
15, 136224, Control_c, 12, 11, 103
15, 136248, Control_c, 12, 11, 104
15, 136259, Note_on_c, 12, 67, 0
15, 136260, Note_on_c, 12, 65, 68
15, 136272, Control_c, 12, 11, 105
15, 136296, Control_c, 12, 11, 106
15, 136319, Note_on_c, 12, 65, 0
15, 136320, Control_c, 12, 11, 107
15, 136344, Control_c, 12, 11, 108
15, 136368, Control_c, 12, 11, 109
15, 136392, Control_c, 12, 11, 110
15, 136416, Control_c, 12, 11, 111
15, 136440, Note_on_c, 12, 64, 68
15, 136440, Control_c, 12, 11, 112
15, 136464, Control_c, 12, 11, 113
15, 136488, Control_c, 12, 11, 114
15, 136512, Control_c, 12, 11, 115
15, 136536, Control_c, 12, 11, 116
15, 136560, Control_c, 12, 11, 117
15, 136584, Control_c, 12, 11, 118
15, 136608, Control_c, 12, 11, 119
15, 136632, Control_c, 12, 11, 120
15, 136656, Control_c, 12, 11, 121
15, 136679, Note_on_c, 12, 64, 0
15, 136680, Note_on_c, 12, 72, 68
15, 136680, Control_c, 12, 11, 122
15, 136704, Control_c, 12, 11, 123
15, 136728, Control_c, 12, 11, 124
15, 136739, Note_on_c, 12, 72, 0
15, 136740, Note_on_c, 12, 70, 68
15, 136752, Control_c, 12, 11, 125
15, 136776, Control_c, 12, 11, 127
15, 136799, Note_on_c, 12, 70, 0
15, 136920, Note_on_c, 12, 67, 68
15, 136920, Control_c, 12, 11, 127
15, 136940, Control_c, 12, 11, 125
15, 136960, Control_c, 12, 11, 123
15, 136980, Control_c, 12, 11, 120
15, 137000, Control_c, 12, 11, 118
15, 137020, Control_c, 12, 11, 116
15, 137040, Control_c, 12, 11, 114
15, 137060, Control_c, 12, 11, 111
15, 137080, Control_c, 12, 11, 109
15, 137100, Control_c, 12, 11, 107
15, 137120, Control_c, 12, 11, 105
15, 137140, Control_c, 12, 11, 103
15, 137159, Note_on_c, 12, 67, 0
15, 137160, Control_c, 12, 11, 100
15, 137160, Note_on_c, 12, 74, 68
15, 137180, Control_c, 12, 11, 98
15, 137200, Control_c, 12, 11, 96
15, 137219, Note_on_c, 12, 74, 0
15, 137220, Control_c, 12, 11, 94
15, 137220, Note_on_c, 12, 72, 68
15, 137240, Control_c, 12, 11, 91
15, 137260, Control_c, 12, 11, 87
15, 137271, Note_on_c, 12, 72, 0
15, 137280, Note_on_c, 12, 77, 68
15, 137579, Note_on_c, 12, 77, 0
15, 137580, Note_on_c, 12, 81, 68
15, 137631, Note_on_c, 12, 81, 0
15, 137640, Note_on_c, 12, 79, 68
15, 137684, Note_on_c, 12, 79, 0
15, 137700, Note_on_c, 12, 77, 68
15, 137744, Note_on_c, 12, 77, 0
15, 137760, Note_on_c, 12, 77, 68
15, 138059, Note_on_c, 12, 77, 0
15, 138060, Note_on_c, 12, 81, 68
15, 138111, Note_on_c, 12, 81, 0
15, 138120, Note_on_c, 12, 79, 68
15, 138164, Note_on_c, 12, 79, 0
15, 138180, Note_on_c, 12, 77, 68
15, 138224, Note_on_c, 12, 77, 0
15, 138240, Note_on_c, 12, 82, 68
15, 138284, Note_on_c, 12, 82, 0
15, 138300, Note_on_c, 12, 79, 68
15, 138344, Note_on_c, 12, 79, 0
15, 138360, Note_on_c, 12, 81, 68
15, 138404, Note_on_c, 12, 81, 0
15, 138420, Note_on_c, 12, 82, 68
15, 138464, Note_on_c, 12, 82, 0
15, 138480, Note_on_c, 12, 82, 68
15, 138771, Note_on_c, 12, 82, 0
15, 138780, Note_on_c, 12, 76, 68
15, 138824, Note_on_c, 12, 76, 0
15, 138840, Note_on_c, 12, 79, 68
15, 138884, Note_on_c, 12, 79, 0
15, 138900, Note_on_c, 12, 81, 68
15, 138944, Note_on_c, 12, 81, 0
15, 138960, Note_on_c, 12, 82, 68
15, 139004, Note_on_c, 12, 82, 0
15, 139020, Note_on_c, 12, 82, 68
15, 139064, Note_on_c, 12, 82, 0
15, 139080, Note_on_c, 12, 81, 68
15, 139124, Note_on_c, 12, 81, 0
15, 139140, Note_on_c, 12, 79, 68
15, 139184, Note_on_c, 12, 79, 0
15, 139200, Note_on_c, 12, 77, 68
15, 139244, Note_on_c, 12, 77, 0
15, 139260, Note_on_c, 12, 65, 68
15, 139304, Note_on_c, 12, 65, 0
15, 139320, Note_on_c, 12, 67, 68
15, 139364, Note_on_c, 12, 67, 0
15, 139380, Note_on_c, 12, 69, 68
15, 139424, Note_on_c, 12, 69, 0
15, 139440, Note_on_c, 12, 69, 68
15, 139731, Note_on_c, 12, 69, 0
15, 139740, Note_on_c, 12, 65, 68
15, 139784, Note_on_c, 12, 65, 0
15, 139800, Note_on_c, 12, 67, 68
15, 139844, Note_on_c, 12, 67, 0
15, 139860, Note_on_c, 12, 69, 68
15, 139904, Note_on_c, 12, 69, 0
15, 139920, Note_on_c, 12, 69, 68
15, 140159, Note_on_c, 12, 69, 0
15, 140160, Note_on_c, 12, 70, 68
15, 140211, Note_on_c, 12, 70, 0
15, 140220, Note_on_c, 12, 67, 68
15, 140264, Note_on_c, 12, 67, 0
15, 140280, Note_on_c, 12, 69, 68
15, 140324, Note_on_c, 12, 69, 0
15, 140340, Note_on_c, 12, 70, 68
15, 140384, Note_on_c, 12, 70, 0
15, 140400, Note_on_c, 12, 70, 68
15, 140691, Note_on_c, 12, 70, 0
15, 140700, Note_on_c, 12, 67, 68
15, 140744, Note_on_c, 12, 67, 0
15, 140760, Note_on_c, 12, 69, 68
15, 140804, Note_on_c, 12, 69, 0
15, 140820, Note_on_c, 12, 70, 68
15, 140864, Note_on_c, 12, 70, 0
15, 140880, Note_on_c, 12, 70, 68
15, 141104, Note_on_c, 12, 70, 0
15, 141118, Control_c, 12, 11, 67
15, 141120, Note_on_c, 12, 76, 80
15, 141120, Control_c, 12, 11, 67
15, 141140, Control_c, 12, 11, 68
15, 141160, Control_c, 12, 11, 70
15, 141180, Control_c, 12, 11, 71
15, 141200, Control_c, 12, 11, 72
15, 141220, Control_c, 12, 11, 73
15, 141224, Note_on_c, 12, 76, 0
15, 141240, Control_c, 12, 11, 75
15, 141240, Note_on_c, 12, 64, 80
15, 141260, Control_c, 12, 11, 76
15, 141280, Control_c, 12, 11, 77
15, 141300, Control_c, 12, 11, 78
15, 141320, Control_c, 12, 11, 80
15, 141340, Control_c, 12, 11, 81
15, 141360, Control_c, 12, 11, 82
15, 141380, Control_c, 12, 11, 83
15, 141400, Control_c, 12, 11, 85
15, 141411, Note_on_c, 12, 64, 0
15, 141420, Control_c, 12, 11, 86
15, 141420, Note_on_c, 12, 79, 80
15, 141440, Control_c, 12, 11, 87
15, 141460, Control_c, 12, 11, 88
15, 141464, Note_on_c, 12, 79, 0
15, 141480, Control_c, 12, 11, 90
15, 141480, Note_on_c, 12, 77, 80
15, 141500, Control_c, 12, 11, 91
15, 141520, Control_c, 12, 11, 92
15, 141524, Note_on_c, 12, 77, 0
15, 141540, Note_on_c, 12, 76, 80
15, 141540, Control_c, 12, 11, 93
15, 141560, Control_c, 12, 11, 95
15, 141580, Control_c, 12, 11, 96
15, 141584, Note_on_c, 12, 76, 0
15, 141600, Control_c, 12, 11, 97
15, 141600, Note_on_c, 12, 76, 80
15, 141620, Control_c, 12, 11, 98
15, 141640, Control_c, 12, 11, 100
15, 141660, Control_c, 12, 11, 101
15, 141680, Control_c, 12, 11, 102
15, 141700, Control_c, 12, 11, 103
15, 141704, Note_on_c, 12, 76, 0
15, 141720, Control_c, 12, 11, 105
15, 141720, Note_on_c, 12, 64, 80
15, 141740, Control_c, 12, 11, 106
15, 141760, Control_c, 12, 11, 107
15, 141780, Control_c, 12, 11, 108
15, 141800, Control_c, 12, 11, 110
15, 141820, Control_c, 12, 11, 111
15, 141840, Control_c, 12, 11, 112
15, 141860, Control_c, 12, 11, 113
15, 141880, Control_c, 12, 11, 115
15, 141891, Note_on_c, 12, 64, 0
15, 141900, Note_on_c, 12, 79, 80
15, 141900, Control_c, 12, 11, 116
15, 141920, Control_c, 12, 11, 117
15, 141940, Control_c, 12, 11, 118
15, 141944, Note_on_c, 12, 79, 0
15, 141960, Note_on_c, 12, 77, 80
15, 141960, Control_c, 12, 11, 120
15, 141980, Control_c, 12, 11, 121
15, 142000, Control_c, 12, 11, 122
15, 142004, Note_on_c, 12, 77, 0
15, 142020, Control_c, 12, 11, 123
15, 142020, Note_on_c, 12, 76, 80
15, 142040, Control_c, 12, 11, 125
15, 142060, Control_c, 12, 11, 127
15, 142064, Note_on_c, 12, 76, 0
15, 142080, Note_on_c, 12, 76, 80
15, 142124, Note_on_c, 12, 76, 0
15, 142140, Note_on_c, 12, 79, 80
15, 142184, Note_on_c, 12, 79, 0
15, 142200, Note_on_c, 12, 77, 80
15, 142244, Note_on_c, 12, 77, 0
15, 142260, Note_on_c, 12, 76, 80
15, 142304, Note_on_c, 12, 76, 0
15, 142320, Note_on_c, 12, 73, 80
15, 142364, Note_on_c, 12, 73, 0
15, 142380, Note_on_c, 12, 76, 80
15, 142424, Note_on_c, 12, 76, 0
15, 142440, Note_on_c, 12, 74, 80
15, 142484, Note_on_c, 12, 74, 0
15, 142500, Note_on_c, 12, 73, 80
15, 142544, Note_on_c, 12, 73, 0
15, 142560, Note_on_c, 12, 79, 80
15, 142604, Note_on_c, 12, 79, 0
15, 142620, Note_on_c, 12, 82, 80
15, 142664, Note_on_c, 12, 82, 0
15, 142680, Note_on_c, 12, 81, 80
15, 142724, Note_on_c, 12, 81, 0
15, 142740, Note_on_c, 12, 79, 80
15, 142784, Note_on_c, 12, 79, 0
15, 142800, Note_on_c, 12, 76, 80
15, 142844, Note_on_c, 12, 76, 0
15, 142860, Note_on_c, 12, 79, 80
15, 142904, Note_on_c, 12, 79, 0
15, 142920, Note_on_c, 12, 77, 80
15, 142964, Note_on_c, 12, 77, 0
15, 142980, Note_on_c, 12, 76, 80
15, 143024, Note_on_c, 12, 76, 0
15, 143040, Note_on_c, 12, 73, 80
15, 143084, Note_on_c, 12, 73, 0
15, 143100, Note_on_c, 12, 76, 80
15, 143144, Note_on_c, 12, 76, 0
15, 143160, Note_on_c, 12, 74, 80
15, 143204, Note_on_c, 12, 74, 0
15, 143220, Note_on_c, 12, 73, 80
15, 143264, Note_on_c, 12, 73, 0
15, 143280, Note_on_c, 12, 67, 80
15, 143324, Note_on_c, 12, 67, 0
15, 143340, Note_on_c, 12, 70, 80
15, 143384, Note_on_c, 12, 70, 0
15, 143400, Note_on_c, 12, 69, 80
15, 143444, Note_on_c, 12, 69, 0
15, 143460, Note_on_c, 12, 67, 80
15, 143504, Note_on_c, 12, 67, 0
15, 143520, Note_on_c, 12, 64, 80
15, 143564, Note_on_c, 12, 64, 0
15, 143580, Note_on_c, 12, 65, 80
15, 143624, Note_on_c, 12, 65, 0
15, 143640, Note_on_c, 12, 64, 80
15, 143684, Note_on_c, 12, 64, 0
15, 143700, Note_on_c, 12, 62, 80
15, 143744, Note_on_c, 12, 62, 0
15, 143760, Note_on_c, 12, 61, 80
15, 143804, Note_on_c, 12, 61, 0
15, 143820, Note_on_c, 12, 58, 80
15, 143864, Note_on_c, 12, 58, 0
15, 143880, Note_on_c, 12, 57, 80
15, 143924, Note_on_c, 12, 57, 0
15, 143940, Note_on_c, 12, 55, 80
15, 143984, Note_on_c, 12, 55, 0
15, 144000, Note_on_c, 12, 81, 92
15, 144000, Note_on_c, 12, 62, 92
15, 144000, Note_on_c, 12, 74, 92
15, 144239, Note_on_c, 12, 81, 0
15, 144239, Note_on_c, 12, 62, 0
15, 144239, Note_on_c, 12, 74, 0
15, 144930, Note_on_c, 12, 81, 92
15, 144951, Note_on_c, 12, 81, 0
15, 144960, Note_on_c, 12, 74, 92
15, 145199, Note_on_c, 12, 74, 0
15, 145410, Note_on_c, 12, 74, 92
15, 145431, Note_on_c, 12, 74, 0
15, 145440, Note_on_c, 12, 69, 92
15, 145679, Note_on_c, 12, 69, 0
15, 145920, Note_on_c, 12, 86, 92
15, 145920, Note_on_c, 12, 62, 92
15, 145920, Note_on_c, 12, 74, 92
15, 146159, Note_on_c, 12, 86, 0
15, 146159, Note_on_c, 12, 62, 0
15, 146159, Note_on_c, 12, 74, 0
15, 146850, Note_on_c, 12, 74, 92
15, 146871, Note_on_c, 12, 74, 0
15, 146880, Note_on_c, 12, 69, 92
15, 147119, Note_on_c, 12, 69, 0
15, 147330, Note_on_c, 12, 69, 92
15, 147351, Note_on_c, 12, 69, 0
15, 147360, Note_on_c, 12, 62, 92
15, 147599, Note_on_c, 12, 62, 0
15, 147840, Note_on_c, 12, 74, 92
15, 147840, Note_on_c, 12, 86, 92
15, 147840, Note_on_c, 12, 62, 92
15, 147959, Note_on_c, 12, 74, 0
15, 147959, Note_on_c, 12, 86, 0
15, 147959, Note_on_c, 12, 62, 0
15, 148050, Note_on_c, 12, 69, 92
15, 148071, Note_on_c, 12, 69, 0
15, 148080, Note_on_c, 12, 62, 92
15, 148199, Note_on_c, 12, 62, 0
15, 148290, Note_on_c, 12, 57, 92
15, 148311, Note_on_c, 12, 57, 0
15, 148320, Note_on_c, 12, 62, 92
15, 148439, Note_on_c, 12, 62, 0
15, 148800, Note_on_c, 12, 74, 92
15, 148800, Note_on_c, 12, 62, 92
15, 148800, Note_on_c, 12, 86, 92
15, 148851, Note_on_c, 12, 74, 0
15, 148851, Note_on_c, 12, 62, 0
15, 148851, Note_on_c, 12, 86, 0
15, 148860, Note_on_c, 12, 69, 92
15, 148904, Note_on_c, 12, 69, 0
15, 148920, Note_on_c, 12, 69, 92
15, 148979, Note_on_c, 12, 69, 0
15, 148980, Note_on_c, 12, 62, 92
15, 149039, Note_on_c, 12, 62, 0
15, 149100, Note_on_c, 12, 62, 92
15, 149144, Note_on_c, 12, 62, 0
15, 149160, Note_on_c, 12, 62, 92
15, 149219, Note_on_c, 12, 62, 0
15, 149220, Note_on_c, 12, 57, 92
15, 149279, Note_on_c, 12, 57, 0
15, 149340, Note_on_c, 12, 57, 92
15, 149384, Note_on_c, 12, 57, 0
15, 149400, Note_on_c, 12, 57, 92
15, 149459, Note_on_c, 12, 57, 0
15, 149460, Note_on_c, 12, 62, 92
15, 149519, Note_on_c, 12, 62, 0
15, 149760, Note_on_c, 12, 86, 92
15, 149760, Note_on_c, 12, 62, 92
15, 149760, Note_on_c, 12, 74, 92
15, 149811, Note_on_c, 12, 86, 0
15, 149811, Note_on_c, 12, 62, 0
15, 149811, Note_on_c, 12, 74, 0
15, 149820, Note_on_c, 12, 74, 92
15, 149864, Note_on_c, 12, 74, 0
15, 149880, Note_on_c, 12, 74, 92
15, 149939, Note_on_c, 12, 74, 0
15, 149940, Note_on_c, 12, 62, 92
15, 149991, Note_on_c, 12, 62, 0
15, 150000, Note_on_c, 12, 74, 92
15, 150059, Note_on_c, 12, 74, 0
15, 150060, Note_on_c, 12, 62, 92
15, 150111, Note_on_c, 12, 62, 0
15, 150120, Note_on_c, 12, 62, 92
15, 150179, Note_on_c, 12, 62, 0
15, 150180, Note_on_c, 12, 74, 92
15, 150231, Note_on_c, 12, 74, 0
15, 150240, Note_on_c, 12, 62, 92
15, 150299, Note_on_c, 12, 62, 0
15, 150300, Note_on_c, 12, 74, 92
15, 150351, Note_on_c, 12, 74, 0
15, 150360, Note_on_c, 12, 74, 92
15, 150419, Note_on_c, 12, 74, 0
15, 150420, Note_on_c, 12, 62, 92
15, 150471, Note_on_c, 12, 62, 0
15, 150480, Note_on_c, 12, 74, 92
15, 150539, Note_on_c, 12, 74, 0
15, 150540, Note_on_c, 12, 62, 92
15, 150591, Note_on_c, 12, 62, 0
15, 150600, Note_on_c, 12, 62, 92
15, 150644, Note_on_c, 12, 62, 0
15, 150690, Note_on_c, 12, 74, 92
15, 150711, Note_on_c, 12, 74, 0
15, 150720, Note_on_c, 12, 69, 92
15, 151161, Note_on_c, 12, 69, 0
15, 151170, Note_on_c, 12, 65, 92
15, 151191, Note_on_c, 12, 65, 0
15, 151200, Note_on_c, 12, 62, 92
15, 151401, Note_on_c, 12, 62, 0
15, 151410, Note_on_c, 12, 57, 92
15, 151431, Note_on_c, 12, 57, 0
15, 151440, Note_on_c, 12, 65, 92
15, 151604, Note_on_c, 12, 65, 0
15, 151620, Note_on_c, 12, 69, 92
15, 151649, Note_on_c, 12, 69, 0
15, 151650, Note_on_c, 12, 65, 92
15, 151671, Note_on_c, 12, 65, 0
15, 151680, Note_on_c, 12, 62, 92
15, 151680, Note_on_c, 12, 57, 92
15, 151705, Note_on_c, 12, 62, 0
15, 151705, Note_on_c, 12, 57, 0
15, 151710, Note_on_c, 12, 62, 92
15, 151710, Note_on_c, 12, 57, 92
15, 151735, Note_on_c, 12, 62, 0
15, 151735, Note_on_c, 12, 57, 0
15, 151740, Note_on_c, 12, 62, 92
15, 151740, Note_on_c, 12, 57, 92
15, 151765, Note_on_c, 12, 62, 0
15, 151765, Note_on_c, 12, 57, 0
15, 151770, Note_on_c, 12, 57, 92
15, 151770, Note_on_c, 12, 62, 92
15, 151795, Note_on_c, 12, 57, 0
15, 151795, Note_on_c, 12, 62, 0
15, 151800, Note_on_c, 12, 57, 92
15, 151800, Note_on_c, 12, 62, 92
15, 151825, Note_on_c, 12, 57, 0
15, 151825, Note_on_c, 12, 62, 0
15, 151830, Note_on_c, 12, 57, 92
15, 151830, Note_on_c, 12, 62, 92
15, 151855, Note_on_c, 12, 57, 0
15, 151855, Note_on_c, 12, 62, 0
15, 151860, Note_on_c, 12, 57, 92
15, 151860, Note_on_c, 12, 62, 92
15, 151885, Note_on_c, 12, 57, 0
15, 151885, Note_on_c, 12, 62, 0
15, 151890, Note_on_c, 12, 62, 92
15, 151890, Note_on_c, 12, 57, 92
15, 151915, Note_on_c, 12, 62, 0
15, 151915, Note_on_c, 12, 57, 0
15, 151920, Note_on_c, 12, 57, 92
15, 151920, Note_on_c, 12, 62, 92
15, 151945, Note_on_c, 12, 57, 0
15, 151945, Note_on_c, 12, 62, 0
15, 151950, Note_on_c, 12, 57, 92
15, 151950, Note_on_c, 12, 62, 92
15, 151975, Note_on_c, 12, 57, 0
15, 151975, Note_on_c, 12, 62, 0
15, 151980, Note_on_c, 12, 57, 92
15, 151980, Note_on_c, 12, 62, 92
15, 152005, Note_on_c, 12, 57, 0
15, 152005, Note_on_c, 12, 62, 0
15, 152010, Note_on_c, 12, 57, 92
15, 152010, Note_on_c, 12, 62, 92
15, 152035, Note_on_c, 12, 57, 0
15, 152035, Note_on_c, 12, 62, 0
15, 152040, Note_on_c, 12, 57, 92
15, 152040, Note_on_c, 12, 62, 92
15, 152065, Note_on_c, 12, 57, 0
15, 152065, Note_on_c, 12, 62, 0
15, 152070, Note_on_c, 12, 62, 92
15, 152070, Note_on_c, 12, 57, 92
15, 152095, Note_on_c, 12, 62, 0
15, 152095, Note_on_c, 12, 57, 0
15, 152100, Note_on_c, 12, 57, 92
15, 152100, Note_on_c, 12, 62, 92
15, 152125, Note_on_c, 12, 57, 0
15, 152125, Note_on_c, 12, 62, 0
15, 152130, Note_on_c, 12, 62, 92
15, 152130, Note_on_c, 12, 57, 92
15, 152155, Note_on_c, 12, 62, 0
15, 152155, Note_on_c, 12, 57, 0
15, 152160, Note_on_c, 12, 62, 92
15, 152160, Note_on_c, 12, 57, 92
15, 152185, Note_on_c, 12, 62, 0
15, 152185, Note_on_c, 12, 57, 0
15, 152190, Note_on_c, 12, 57, 92
15, 152190, Note_on_c, 12, 62, 92
15, 152215, Note_on_c, 12, 57, 0
15, 152215, Note_on_c, 12, 62, 0
15, 152220, Note_on_c, 12, 57, 92
15, 152220, Note_on_c, 12, 62, 92
15, 152245, Note_on_c, 12, 57, 0
15, 152245, Note_on_c, 12, 62, 0
15, 152250, Note_on_c, 12, 62, 92
15, 152250, Note_on_c, 12, 57, 92
15, 152275, Note_on_c, 12, 62, 0
15, 152275, Note_on_c, 12, 57, 0
15, 152280, Note_on_c, 12, 57, 92
15, 152280, Note_on_c, 12, 62, 92
15, 152305, Note_on_c, 12, 57, 0
15, 152305, Note_on_c, 12, 62, 0
15, 152310, Note_on_c, 12, 57, 92
15, 152310, Note_on_c, 12, 62, 92
15, 152335, Note_on_c, 12, 57, 0
15, 152335, Note_on_c, 12, 62, 0
15, 152340, Note_on_c, 12, 62, 92
15, 152340, Note_on_c, 12, 57, 92
15, 152365, Note_on_c, 12, 62, 0
15, 152365, Note_on_c, 12, 57, 0
15, 152370, Note_on_c, 12, 62, 92
15, 152370, Note_on_c, 12, 57, 92
15, 152395, Note_on_c, 12, 62, 0
15, 152395, Note_on_c, 12, 57, 0
15, 152400, Note_on_c, 12, 57, 92
15, 152400, Note_on_c, 12, 62, 92
15, 152425, Note_on_c, 12, 57, 0
15, 152425, Note_on_c, 12, 62, 0
15, 152430, Note_on_c, 12, 62, 92
15, 152430, Note_on_c, 12, 57, 92
15, 152455, Note_on_c, 12, 62, 0
15, 152455, Note_on_c, 12, 57, 0
15, 152460, Note_on_c, 12, 62, 92
15, 152460, Note_on_c, 12, 57, 92
15, 152485, Note_on_c, 12, 62, 0
15, 152485, Note_on_c, 12, 57, 0
15, 152490, Note_on_c, 12, 57, 92
15, 152490, Note_on_c, 12, 62, 92
15, 152515, Note_on_c, 12, 57, 0
15, 152515, Note_on_c, 12, 62, 0
15, 152520, Note_on_c, 12, 57, 92
15, 152520, Note_on_c, 12, 62, 92
15, 152545, Note_on_c, 12, 57, 0
15, 152545, Note_on_c, 12, 62, 0
15, 152550, Note_on_c, 12, 62, 92
15, 152550, Note_on_c, 12, 57, 92
15, 152575, Note_on_c, 12, 62, 0
15, 152575, Note_on_c, 12, 57, 0
15, 152580, Note_on_c, 12, 62, 92
15, 152580, Note_on_c, 12, 57, 92
15, 152605, Note_on_c, 12, 62, 0
15, 152605, Note_on_c, 12, 57, 0
15, 152610, Note_on_c, 12, 62, 92
15, 152610, Note_on_c, 12, 57, 92
15, 152635, Note_on_c, 12, 62, 0
15, 152635, Note_on_c, 12, 57, 0
15, 152640, Note_on_c, 12, 62, 92
15, 152640, Note_on_c, 12, 74, 92
15, 152931, Note_on_c, 12, 62, 0
15, 152931, Note_on_c, 12, 74, 0
15, 152940, Note_on_c, 12, 65, 92
15, 152984, Note_on_c, 12, 65, 0
15, 153000, Note_on_c, 12, 64, 92
15, 153044, Note_on_c, 12, 64, 0
15, 153060, Note_on_c, 12, 62, 92
15, 153104, Note_on_c, 12, 62, 0
15, 153120, Note_on_c, 12, 69, 92
15, 153209, Note_on_c, 12, 69, 0
15, 153240, Note_on_c, 12, 67, 92
15, 153329, Note_on_c, 12, 67, 0
15, 153360, Note_on_c, 12, 64, 92
15, 153449, Note_on_c, 12, 64, 0
15, 153480, Note_on_c, 12, 69, 92
15, 153569, Note_on_c, 12, 69, 0
15, 153600, Note_on_c, 12, 74, 92
15, 153600, Note_on_c, 12, 62, 92
15, 153625, Note_on_c, 12, 74, 0
15, 153625, Note_on_c, 12, 62, 0
15, 153630, Note_on_c, 12, 74, 92
15, 153630, Note_on_c, 12, 62, 92
15, 153655, Note_on_c, 12, 74, 0
15, 153655, Note_on_c, 12, 62, 0
15, 153660, Note_on_c, 12, 74, 92
15, 153660, Note_on_c, 12, 62, 92
15, 153685, Note_on_c, 12, 74, 0
15, 153685, Note_on_c, 12, 62, 0
15, 153690, Note_on_c, 12, 62, 92
15, 153690, Note_on_c, 12, 74, 92
15, 153715, Note_on_c, 12, 62, 0
15, 153715, Note_on_c, 12, 74, 0
15, 153720, Note_on_c, 12, 62, 92
15, 153720, Note_on_c, 12, 74, 92
15, 153745, Note_on_c, 12, 62, 0
15, 153745, Note_on_c, 12, 74, 0
15, 153750, Note_on_c, 12, 62, 92
15, 153750, Note_on_c, 12, 74, 92
15, 153775, Note_on_c, 12, 62, 0
15, 153775, Note_on_c, 12, 74, 0
15, 153780, Note_on_c, 12, 74, 92
15, 153780, Note_on_c, 12, 62, 92
15, 153805, Note_on_c, 12, 74, 0
15, 153805, Note_on_c, 12, 62, 0
15, 153810, Note_on_c, 12, 62, 92
15, 153810, Note_on_c, 12, 74, 92
15, 153835, Note_on_c, 12, 62, 0
15, 153835, Note_on_c, 12, 74, 0
15, 153840, Note_on_c, 12, 74, 92
15, 153840, Note_on_c, 12, 62, 92
15, 153865, Note_on_c, 12, 74, 0
15, 153865, Note_on_c, 12, 62, 0
15, 153870, Note_on_c, 12, 74, 92
15, 153870, Note_on_c, 12, 62, 92
15, 153895, Note_on_c, 12, 74, 0
15, 153895, Note_on_c, 12, 62, 0
15, 153900, Note_on_c, 12, 62, 92
15, 153900, Note_on_c, 12, 74, 92
15, 153925, Note_on_c, 12, 62, 0
15, 153925, Note_on_c, 12, 74, 0
15, 153930, Note_on_c, 12, 74, 92
15, 153930, Note_on_c, 12, 62, 92
15, 153955, Note_on_c, 12, 74, 0
15, 153955, Note_on_c, 12, 62, 0
15, 153960, Note_on_c, 12, 74, 92
15, 153960, Note_on_c, 12, 62, 92
15, 153985, Note_on_c, 12, 74, 0
15, 153985, Note_on_c, 12, 62, 0
15, 153990, Note_on_c, 12, 74, 92
15, 153990, Note_on_c, 12, 62, 92
15, 154015, Note_on_c, 12, 74, 0
15, 154015, Note_on_c, 12, 62, 0
15, 154020, Note_on_c, 12, 62, 92
15, 154020, Note_on_c, 12, 74, 92
15, 154045, Note_on_c, 12, 62, 0
15, 154045, Note_on_c, 12, 74, 0
15, 154050, Note_on_c, 12, 74, 92
15, 154050, Note_on_c, 12, 62, 92
15, 154075, Note_on_c, 12, 74, 0
15, 154075, Note_on_c, 12, 62, 0
15, 154080, Note_on_c, 12, 62, 92
15, 154080, Note_on_c, 12, 74, 92
15, 154105, Note_on_c, 12, 62, 0
15, 154105, Note_on_c, 12, 74, 0
15, 154110, Note_on_c, 12, 62, 92
15, 154110, Note_on_c, 12, 74, 92
15, 154135, Note_on_c, 12, 62, 0
15, 154135, Note_on_c, 12, 74, 0
15, 154140, Note_on_c, 12, 74, 92
15, 154140, Note_on_c, 12, 62, 92
15, 154165, Note_on_c, 12, 74, 0
15, 154165, Note_on_c, 12, 62, 0
15, 154170, Note_on_c, 12, 74, 92
15, 154170, Note_on_c, 12, 62, 92
15, 154195, Note_on_c, 12, 74, 0
15, 154195, Note_on_c, 12, 62, 0
15, 154200, Note_on_c, 12, 74, 92
15, 154200, Note_on_c, 12, 62, 92
15, 154225, Note_on_c, 12, 74, 0
15, 154225, Note_on_c, 12, 62, 0
15, 154230, Note_on_c, 12, 74, 92
15, 154230, Note_on_c, 12, 62, 92
15, 154255, Note_on_c, 12, 74, 0
15, 154255, Note_on_c, 12, 62, 0
15, 154260, Note_on_c, 12, 62, 92
15, 154260, Note_on_c, 12, 74, 92
15, 154285, Note_on_c, 12, 62, 0
15, 154285, Note_on_c, 12, 74, 0
15, 154290, Note_on_c, 12, 74, 92
15, 154290, Note_on_c, 12, 62, 92
15, 154315, Note_on_c, 12, 74, 0
15, 154315, Note_on_c, 12, 62, 0
15, 154320, Note_on_c, 12, 62, 92
15, 154320, Note_on_c, 12, 74, 92
15, 154345, Note_on_c, 12, 62, 0
15, 154345, Note_on_c, 12, 74, 0
15, 154350, Note_on_c, 12, 62, 92
15, 154350, Note_on_c, 12, 74, 92
15, 154375, Note_on_c, 12, 62, 0
15, 154375, Note_on_c, 12, 74, 0
15, 154380, Note_on_c, 12, 62, 92
15, 154380, Note_on_c, 12, 74, 92
15, 154405, Note_on_c, 12, 62, 0
15, 154405, Note_on_c, 12, 74, 0
15, 154410, Note_on_c, 12, 74, 92
15, 154410, Note_on_c, 12, 62, 92
15, 154435, Note_on_c, 12, 74, 0
15, 154435, Note_on_c, 12, 62, 0
15, 154440, Note_on_c, 12, 74, 92
15, 154440, Note_on_c, 12, 62, 92
15, 154465, Note_on_c, 12, 74, 0
15, 154465, Note_on_c, 12, 62, 0
15, 154470, Note_on_c, 12, 74, 92
15, 154470, Note_on_c, 12, 62, 92
15, 154495, Note_on_c, 12, 74, 0
15, 154495, Note_on_c, 12, 62, 0
15, 154500, Note_on_c, 12, 62, 92
15, 154500, Note_on_c, 12, 74, 92
15, 154525, Note_on_c, 12, 62, 0
15, 154525, Note_on_c, 12, 74, 0
15, 154530, Note_on_c, 12, 62, 92
15, 154530, Note_on_c, 12, 74, 92
15, 154555, Note_on_c, 12, 62, 0
15, 154555, Note_on_c, 12, 74, 0
15, 154560, Note_on_c, 12, 62, 80
15, 154739, Note_on_c, 12, 62, 0
15, 154800, Note_on_c, 12, 63, 80
15, 154979, Note_on_c, 12, 63, 0
15, 155040, Note_on_c, 12, 66, 80
15, 155065, Note_on_c, 12, 66, 0
15, 155070, Note_on_c, 12, 66, 80
15, 155095, Note_on_c, 12, 66, 0
15, 155100, Note_on_c, 12, 66, 80
15, 155125, Note_on_c, 12, 66, 0
15, 155130, Note_on_c, 12, 66, 80
15, 155155, Note_on_c, 12, 66, 0
15, 155160, Note_on_c, 12, 66, 80
15, 155185, Note_on_c, 12, 66, 0
15, 155190, Note_on_c, 12, 66, 80
15, 155215, Note_on_c, 12, 66, 0
15, 155220, Note_on_c, 12, 66, 80
15, 155245, Note_on_c, 12, 66, 0
15, 155250, Note_on_c, 12, 66, 80
15, 155275, Note_on_c, 12, 66, 0
15, 155280, Note_on_c, 12, 66, 80
15, 155305, Note_on_c, 12, 66, 0
15, 155310, Note_on_c, 12, 66, 80
15, 155335, Note_on_c, 12, 66, 0
15, 155340, Note_on_c, 12, 66, 80
15, 155365, Note_on_c, 12, 66, 0
15, 155370, Note_on_c, 12, 66, 80
15, 155395, Note_on_c, 12, 66, 0
15, 155400, Note_on_c, 12, 66, 80
15, 155425, Note_on_c, 12, 66, 0
15, 155430, Note_on_c, 12, 66, 80
15, 155455, Note_on_c, 12, 66, 0
15, 155460, Note_on_c, 12, 66, 80
15, 155485, Note_on_c, 12, 66, 0
15, 155490, Note_on_c, 12, 66, 80
15, 155515, Note_on_c, 12, 66, 0
15, 155520, Note_on_c, 12, 70, 80
15, 155520, Note_on_c, 12, 62, 80
15, 155520, Note_on_c, 12, 58, 80
15, 155699, Note_on_c, 12, 70, 0
15, 155699, Note_on_c, 12, 62, 0
15, 155699, Note_on_c, 12, 58, 0
15, 155760, Note_on_c, 12, 66, 80
15, 155760, Note_on_c, 12, 75, 80
15, 155939, Note_on_c, 12, 66, 0
15, 155939, Note_on_c, 12, 75, 0
15, 156000, Note_on_c, 12, 67, 80
15, 156000, Note_on_c, 12, 74, 80
15, 156025, Note_on_c, 12, 67, 0
15, 156025, Note_on_c, 12, 74, 0
15, 156030, Note_on_c, 12, 74, 80
15, 156030, Note_on_c, 12, 67, 80
15, 156055, Note_on_c, 12, 74, 0
15, 156055, Note_on_c, 12, 67, 0
15, 156060, Note_on_c, 12, 67, 80
15, 156060, Note_on_c, 12, 74, 80
15, 156085, Note_on_c, 12, 67, 0
15, 156085, Note_on_c, 12, 74, 0
15, 156090, Note_on_c, 12, 74, 80
15, 156090, Note_on_c, 12, 67, 80
15, 156115, Note_on_c, 12, 74, 0
15, 156115, Note_on_c, 12, 67, 0
15, 156120, Note_on_c, 12, 79, 80
15, 156145, Note_on_c, 12, 79, 0
15, 156150, Note_on_c, 12, 79, 80
15, 156175, Note_on_c, 12, 79, 0
15, 156180, Note_on_c, 12, 79, 80
15, 156205, Note_on_c, 12, 79, 0
15, 156210, Note_on_c, 12, 79, 80
15, 156235, Note_on_c, 12, 79, 0
15, 156240, Note_on_c, 12, 79, 80
15, 156265, Note_on_c, 12, 79, 0
15, 156270, Note_on_c, 12, 79, 80
15, 156295, Note_on_c, 12, 79, 0
15, 156300, Note_on_c, 12, 79, 80
15, 156325, Note_on_c, 12, 79, 0
15, 156330, Note_on_c, 12, 79, 80
15, 156355, Note_on_c, 12, 79, 0
15, 156360, Note_on_c, 12, 79, 80
15, 156385, Note_on_c, 12, 79, 0
15, 156390, Note_on_c, 12, 79, 80
15, 156415, Note_on_c, 12, 79, 0
15, 156420, Note_on_c, 12, 79, 80
15, 156445, Note_on_c, 12, 79, 0
15, 156450, Note_on_c, 12, 79, 80
15, 156475, Note_on_c, 12, 79, 0
15, 156480, Note_on_c, 12, 70, 92
15, 156539, Note_on_c, 12, 70, 0
15, 156540, Note_on_c, 12, 70, 80
15, 156824, Note_on_c, 12, 70, 0
15, 156840, Note_on_c, 12, 69, 80
15, 156929, Note_on_c, 12, 69, 0
15, 156960, Note_on_c, 12, 67, 80
15, 157049, Note_on_c, 12, 67, 0
15, 157080, Note_on_c, 12, 65, 80
15, 157169, Note_on_c, 12, 65, 0
15, 157200, Note_on_c, 12, 63, 80
15, 157289, Note_on_c, 12, 63, 0
15, 157320, Note_on_c, 12, 62, 80
15, 157409, Note_on_c, 12, 62, 0
15, 157440, Note_on_c, 12, 61, 80
15, 157649, Note_on_c, 12, 61, 0
15, 157680, Note_on_c, 12, 60, 80
15, 157889, Note_on_c, 12, 60, 0
15, 158280, Note_on_c, 12, 62, 80
15, 158319, Note_on_c, 12, 62, 0
15, 158320, Note_on_c, 12, 64, 80
15, 158359, Note_on_c, 12, 64, 0
15, 158360, Note_on_c, 12, 66, 80
15, 158393, Note_on_c, 12, 66, 0
15, 158400, Note_on_c, 12, 67, 92
15, 158459, Note_on_c, 12, 67, 0
15, 158460, Note_on_c, 12, 67, 80
15, 158744, Note_on_c, 12, 67, 0
15, 158760, Note_on_c, 12, 65, 80
15, 158849, Note_on_c, 12, 65, 0
15, 158880, Note_on_c, 12, 64, 80
15, 158969, Note_on_c, 12, 64, 0
15, 159000, Note_on_c, 12, 62, 80
15, 159089, Note_on_c, 12, 62, 0
15, 159120, Note_on_c, 12, 61, 80
15, 159209, Note_on_c, 12, 61, 0
15, 159240, Note_on_c, 12, 58, 80
15, 159329, Note_on_c, 12, 58, 0
15, 159360, Note_on_c, 12, 57, 80
15, 159569, Note_on_c, 12, 57, 0
15, 159600, Note_on_c, 12, 56, 80
15, 159809, Note_on_c, 12, 56, 0
15, 160200, Note_on_c, 12, 59, 80
15, 160239, Note_on_c, 12, 59, 0
15, 160240, Note_on_c, 12, 61, 80
15, 160279, Note_on_c, 12, 61, 0
15, 160280, Note_on_c, 12, 62, 80
15, 160313, Note_on_c, 12, 62, 0
15, 160320, Note_on_c, 12, 64, 92
15, 160379, Note_on_c, 12, 64, 0
15, 160380, Note_on_c, 12, 64, 80
15, 160664, Note_on_c, 12, 64, 0
15, 160680, Note_on_c, 12, 62, 80
15, 160769, Note_on_c, 12, 62, 0
15, 160800, Note_on_c, 12, 61, 80
15, 160889, Note_on_c, 12, 61, 0
15, 160920, Note_on_c, 12, 58, 80
15, 161009, Note_on_c, 12, 58, 0
15, 161040, Note_on_c, 12, 57, 80
15, 161129, Note_on_c, 12, 57, 0
15, 161160, Note_on_c, 12, 55, 80
15, 161249, Note_on_c, 12, 55, 0
15, 161280, Note_on_c, 12, 64, 92
15, 161305, Note_on_c, 12, 64, 0
15, 161310, Note_on_c, 12, 64, 79
15, 161335, Note_on_c, 12, 64, 0
15, 161340, Note_on_c, 12, 64, 78
15, 161365, Note_on_c, 12, 64, 0
15, 161370, Note_on_c, 12, 64, 77
15, 161395, Note_on_c, 12, 64, 0
15, 161400, Note_on_c, 12, 64, 76
15, 161425, Note_on_c, 12, 64, 0
15, 161430, Note_on_c, 12, 64, 75
15, 161455, Note_on_c, 12, 64, 0
15, 161460, Note_on_c, 12, 64, 74
15, 161485, Note_on_c, 12, 64, 0
15, 161490, Note_on_c, 12, 64, 73
15, 161515, Note_on_c, 12, 64, 0
15, 161520, Note_on_c, 12, 64, 71
15, 161545, Note_on_c, 12, 64, 0
15, 161550, Note_on_c, 12, 64, 70
15, 161575, Note_on_c, 12, 64, 0
15, 161580, Note_on_c, 12, 64, 69
15, 161605, Note_on_c, 12, 64, 0
15, 161610, Note_on_c, 12, 64, 68
15, 161635, Note_on_c, 12, 64, 0
15, 161640, Note_on_c, 12, 64, 67
15, 161665, Note_on_c, 12, 64, 0
15, 161670, Note_on_c, 12, 64, 66
15, 161695, Note_on_c, 12, 64, 0
15, 161700, Note_on_c, 12, 64, 65
15, 161725, Note_on_c, 12, 64, 0
15, 161730, Note_on_c, 12, 64, 64
15, 161755, Note_on_c, 12, 64, 0
15, 161760, Note_on_c, 12, 64, 62
15, 161785, Note_on_c, 12, 64, 0
15, 161790, Note_on_c, 12, 64, 61
15, 161815, Note_on_c, 12, 64, 0
15, 161820, Note_on_c, 12, 64, 60
15, 161845, Note_on_c, 12, 64, 0
15, 161850, Note_on_c, 12, 64, 59
15, 161875, Note_on_c, 12, 64, 0
15, 161880, Note_on_c, 12, 64, 58
15, 161905, Note_on_c, 12, 64, 0
15, 161910, Note_on_c, 12, 64, 57
15, 161935, Note_on_c, 12, 64, 0
15, 161940, Note_on_c, 12, 64, 56
15, 161965, Note_on_c, 12, 64, 0
15, 161970, Note_on_c, 12, 64, 55
15, 161995, Note_on_c, 12, 64, 0
15, 162000, Note_on_c, 12, 64, 53
15, 162025, Note_on_c, 12, 64, 0
15, 162030, Note_on_c, 12, 64, 52
15, 162055, Note_on_c, 12, 64, 0
15, 162060, Note_on_c, 12, 64, 51
15, 162085, Note_on_c, 12, 64, 0
15, 162090, Note_on_c, 12, 64, 50
15, 162115, Note_on_c, 12, 64, 0
15, 162120, Note_on_c, 12, 64, 49
15, 162145, Note_on_c, 12, 64, 0
15, 162150, Note_on_c, 12, 64, 48
15, 162175, Note_on_c, 12, 64, 0
15, 162180, Note_on_c, 12, 64, 47
15, 162205, Note_on_c, 12, 64, 0
15, 162210, Note_on_c, 12, 64, 46
15, 162235, Note_on_c, 12, 64, 0
15, 162240, Note_on_c, 12, 64, 44
15, 162344, Note_on_c, 12, 64, 0
15, 162360, Note_on_c, 12, 61, 44
15, 162411, Note_on_c, 12, 61, 0
15, 162420, Note_on_c, 12, 61, 44
15, 162471, Note_on_c, 12, 61, 0
15, 162480, Note_on_c, 12, 61, 44
15, 162599, Note_on_c, 12, 61, 0
15, 163320, Note_on_c, 12, 62, 44
15, 163371, Note_on_c, 12, 62, 0
15, 163380, Note_on_c, 12, 62, 44
15, 163431, Note_on_c, 12, 62, 0
15, 163440, Note_on_c, 12, 62, 44
15, 163559, Note_on_c, 12, 62, 0
15, 164280, Note_on_c, 12, 64, 44
15, 164331, Note_on_c, 12, 64, 0
15, 164340, Note_on_c, 12, 64, 44
15, 164391, Note_on_c, 12, 64, 0
15, 164400, Note_on_c, 12, 64, 44
15, 164519, Note_on_c, 12, 64, 0
15, 165000, Note_on_c, 12, 61, 44
15, 165171, Note_on_c, 12, 61, 0
15, 165180, Note_on_c, 12, 62, 44
15, 165224, Note_on_c, 12, 62, 0
15, 165240, Note_on_c, 12, 65, 44
15, 165284, Note_on_c, 12, 65, 0
15, 165300, Note_on_c, 12, 66, 44
15, 165344, Note_on_c, 12, 66, 0
15, 165360, Note_on_c, 12, 69, 44
15, 165479, Note_on_c, 12, 69, 0
15, 165600, Note_on_c, 12, 65, 44
15, 165644, Note_on_c, 12, 65, 0
15, 165660, Note_on_c, 12, 66, 44
15, 165704, Note_on_c, 12, 66, 0
15, 165720, Note_on_c, 12, 69, 44
15, 165764, Note_on_c, 12, 69, 0
15, 165780, Note_on_c, 12, 73, 44
15, 165824, Note_on_c, 12, 73, 0
15, 165840, Note_on_c, 12, 74, 44
15, 165959, Note_on_c, 12, 74, 0
15, 166080, Note_on_c, 12, 64, 44
15, 166124, Note_on_c, 12, 64, 0
15, 166140, Note_on_c, 12, 67, 44
15, 166184, Note_on_c, 12, 67, 0
15, 166200, Note_on_c, 12, 69, 44
15, 166244, Note_on_c, 12, 69, 0
15, 166260, Note_on_c, 12, 73, 44
15, 166304, Note_on_c, 12, 73, 0
15, 166320, Note_on_c, 12, 76, 44
15, 166439, Note_on_c, 12, 76, 0
15, 166560, Note_on_c, 12, 55, 44
15, 166604, Note_on_c, 12, 55, 0
15, 166620, Note_on_c, 12, 61, 44
15, 166664, Note_on_c, 12, 61, 0
15, 166680, Note_on_c, 12, 64, 44
15, 166724, Note_on_c, 12, 64, 0
15, 166740, Note_on_c, 12, 66, 44
15, 166784, Note_on_c, 12, 66, 0
15, 166800, Note_on_c, 12, 67, 44
15, 166919, Note_on_c, 12, 67, 0
15, 167280, Note_on_c, 12, 66, 44
15, 167280, Note_on_c, 12, 57, 44
15, 167399, Note_on_c, 12, 66, 0
15, 167399, Note_on_c, 12, 57, 0
15, 167760, Note_on_c, 12, 57, 44
15, 167760, Note_on_c, 12, 66, 44
15, 167879, Note_on_c, 12, 57, 0
15, 167879, Note_on_c, 12, 66, 0
15, 168240, Note_on_c, 12, 65, 50
15, 168240, Note_on_c, 12, 57, 50
15, 168284, Note_on_c, 12, 65, 0
15, 168284, Note_on_c, 12, 57, 0
15, 168300, Note_on_c, 12, 65, 51
15, 168344, Note_on_c, 12, 65, 0
15, 168360, Note_on_c, 12, 68, 53
15, 168404, Note_on_c, 12, 68, 0
15, 168420, Note_on_c, 12, 69, 54
15, 168464, Note_on_c, 12, 69, 0
15, 168480, Note_on_c, 12, 69, 56
15, 168599, Note_on_c, 12, 69, 0
15, 168720, Note_on_c, 12, 65, 62
15, 168764, Note_on_c, 12, 65, 0
15, 168780, Note_on_c, 12, 69, 63
15, 168824, Note_on_c, 12, 69, 0
15, 168840, Note_on_c, 12, 73, 65
15, 168884, Note_on_c, 12, 73, 0
15, 168900, Note_on_c, 12, 74, 66
15, 168944, Note_on_c, 12, 74, 0
15, 168960, Note_on_c, 12, 76, 68
15, 168960, Note_on_c, 12, 64, 68
15, 169079, Note_on_c, 12, 76, 0
15, 169079, Note_on_c, 12, 64, 0
15, 169200, Note_on_c, 12, 64, 62
15, 169244, Note_on_c, 12, 64, 0
15, 169260, Note_on_c, 12, 67, 61
15, 169304, Note_on_c, 12, 67, 0
15, 169320, Note_on_c, 12, 69, 59
15, 169364, Note_on_c, 12, 69, 0
15, 169380, Note_on_c, 12, 73, 58
15, 169424, Note_on_c, 12, 73, 0
15, 169440, Note_on_c, 12, 64, 56
15, 169559, Note_on_c, 12, 64, 0
15, 169680, Note_on_c, 12, 55, 50
15, 169724, Note_on_c, 12, 55, 0
15, 169740, Note_on_c, 12, 61, 49
15, 169784, Note_on_c, 12, 61, 0
15, 169800, Note_on_c, 12, 61, 47
15, 169844, Note_on_c, 12, 61, 0
15, 169860, Note_on_c, 12, 61, 46
15, 169904, Note_on_c, 12, 61, 0
15, 169920, Note_on_c, 12, 62, 44
15, 170039, Note_on_c, 12, 62, 0
15, 170220, Note_on_c, 12, 69, 44
15, 170279, Note_on_c, 12, 69, 0
15, 170280, Note_on_c, 12, 74, 44
15, 170339, Note_on_c, 12, 74, 0
15, 170340, Note_on_c, 12, 69, 44
15, 170399, Note_on_c, 12, 69, 0
15, 170400, Note_on_c, 12, 75, 44
15, 170459, Note_on_c, 12, 75, 0
15, 171180, Note_on_c, 12, 65, 44
15, 171239, Note_on_c, 12, 65, 0
15, 171240, Note_on_c, 12, 70, 44
15, 171299, Note_on_c, 12, 70, 0
15, 171300, Note_on_c, 12, 65, 44
15, 171359, Note_on_c, 12, 65, 0
15, 171360, Note_on_c, 12, 71, 44
15, 171419, Note_on_c, 12, 71, 0
15, 171838, Control_c, 12, 11, 67
15, 171840, Note_on_c, 12, 74, 80
15, 171840, Control_c, 12, 11, 67
15, 171860, Control_c, 12, 11, 68
15, 171880, Control_c, 12, 11, 70
15, 171900, Control_c, 12, 11, 71
15, 171920, Control_c, 12, 11, 72
15, 171940, Control_c, 12, 11, 73
15, 171960, Control_c, 12, 11, 75
15, 171980, Control_c, 12, 11, 76
15, 172000, Control_c, 12, 11, 77
15, 172020, Control_c, 12, 11, 78
15, 172040, Control_c, 12, 11, 80
15, 172060, Control_c, 12, 11, 81
15, 172080, Control_c, 12, 11, 82
15, 172100, Control_c, 12, 11, 83
15, 172120, Control_c, 12, 11, 85
15, 172140, Control_c, 12, 11, 86
15, 172160, Control_c, 12, 11, 87
15, 172180, Control_c, 12, 11, 88
15, 172199, Note_on_c, 12, 74, 0
15, 172200, Control_c, 12, 11, 90
15, 172200, Note_on_c, 12, 73, 80
15, 172220, Control_c, 12, 11, 91
15, 172240, Control_c, 12, 11, 92
15, 172260, Control_c, 12, 11, 93
15, 172280, Control_c, 12, 11, 95
15, 172300, Control_c, 12, 11, 96
15, 172319, Note_on_c, 12, 73, 0
15, 172320, Note_on_c, 12, 72, 80
15, 172320, Control_c, 12, 11, 97
15, 172340, Control_c, 12, 11, 98
15, 172360, Control_c, 12, 11, 100
15, 172371, Note_on_c, 12, 72, 0
15, 172380, Note_on_c, 12, 70, 80
15, 172380, Control_c, 12, 11, 101
15, 172400, Control_c, 12, 11, 102
15, 172420, Control_c, 12, 11, 103
15, 172439, Note_on_c, 12, 70, 0
15, 172440, Note_on_c, 12, 69, 80
15, 172440, Control_c, 12, 11, 105
15, 172460, Control_c, 12, 11, 106
15, 172480, Control_c, 12, 11, 107
15, 172491, Note_on_c, 12, 69, 0
15, 172500, Note_on_c, 12, 67, 80
15, 172500, Control_c, 12, 11, 108
15, 172520, Control_c, 12, 11, 110
15, 172540, Control_c, 12, 11, 111
15, 172559, Note_on_c, 12, 67, 0
15, 172560, Control_c, 12, 11, 112
15, 172560, Note_on_c, 12, 66, 80
15, 172580, Control_c, 12, 11, 113
15, 172600, Control_c, 12, 11, 115
15, 172611, Note_on_c, 12, 66, 0
15, 172620, Control_c, 12, 11, 116
15, 172620, Note_on_c, 12, 63, 80
15, 172640, Control_c, 12, 11, 117
15, 172660, Control_c, 12, 11, 118
15, 172679, Note_on_c, 12, 63, 0
15, 172680, Control_c, 12, 11, 120
15, 172680, Note_on_c, 12, 62, 80
15, 172700, Control_c, 12, 11, 121
15, 172720, Control_c, 12, 11, 122
15, 172731, Note_on_c, 12, 62, 0
15, 172740, Control_c, 12, 11, 123
15, 172740, Note_on_c, 12, 60, 80
15, 172760, Control_c, 12, 11, 125
15, 172780, Control_c, 12, 11, 127
15, 172799, Note_on_c, 12, 60, 0
15, 172800, Note_on_c, 12, 58, 80
15, 172851, Note_on_c, 12, 58, 0
15, 172860, Note_on_c, 12, 57, 80
15, 172919, Note_on_c, 12, 57, 0
15, 172920, Note_on_c, 12, 55, 80
15, 172971, Note_on_c, 12, 55, 0
15, 172980, Note_on_c, 12, 65, 80
15, 173039, Note_on_c, 12, 65, 0
15, 173040, Note_on_c, 12, 64, 80
15, 173091, Note_on_c, 12, 64, 0
15, 173100, Note_on_c, 12, 62, 80
15, 173159, Note_on_c, 12, 62, 0
15, 173160, Note_on_c, 12, 60, 80
15, 173211, Note_on_c, 12, 60, 0
15, 173220, Note_on_c, 12, 58, 80
15, 173279, Note_on_c, 12, 58, 0
15, 173280, Note_on_c, 12, 57, 80
15, 173384, Note_on_c, 12, 57, 0
15, 173400, Note_on_c, 12, 77, 92
15, 173400, Note_on_c, 12, 74, 92
15, 173489, Note_on_c, 12, 77, 0
15, 173489, Note_on_c, 12, 74, 0
15, 173640, Note_on_c, 12, 81, 92
15, 173640, Note_on_c, 12, 73, 92
15, 173744, Note_on_c, 12, 81, 0
15, 173744, Note_on_c, 12, 73, 0
15, 173760, Note_on_c, 12, 55, 44
15, 173811, Note_on_c, 12, 55, 0
15, 173820, Note_on_c, 12, 57, 45
15, 173879, Note_on_c, 12, 57, 0
15, 173880, Note_on_c, 12, 58, 46
15, 173931, Note_on_c, 12, 58, 0
15, 173940, Note_on_c, 12, 60, 47
15, 173999, Note_on_c, 12, 60, 0
15, 174000, Note_on_c, 12, 62, 48
15, 174051, Note_on_c, 12, 62, 0
15, 174060, Note_on_c, 12, 64, 49
15, 174119, Note_on_c, 12, 64, 0
15, 174120, Note_on_c, 12, 66, 50
15, 174171, Note_on_c, 12, 66, 0
15, 174180, Note_on_c, 12, 67, 51
15, 174239, Note_on_c, 12, 67, 0
15, 174240, Note_on_c, 12, 69, 53
15, 174291, Note_on_c, 12, 69, 0
15, 174300, Note_on_c, 12, 70, 54
15, 174359, Note_on_c, 12, 70, 0
15, 174360, Note_on_c, 12, 72, 55
15, 174411, Note_on_c, 12, 72, 0
15, 174420, Note_on_c, 12, 67, 56
15, 174479, Note_on_c, 12, 67, 0
15, 174480, Note_on_c, 12, 66, 57
15, 174531, Note_on_c, 12, 66, 0
15, 174540, Note_on_c, 12, 63, 58
15, 174599, Note_on_c, 12, 63, 0
15, 174600, Note_on_c, 12, 62, 59
15, 174651, Note_on_c, 12, 62, 0
15, 174660, Note_on_c, 12, 60, 60
15, 174719, Note_on_c, 12, 60, 0
15, 174720, Note_on_c, 12, 58, 62
15, 174771, Note_on_c, 12, 58, 0
15, 174780, Note_on_c, 12, 58, 63
15, 174839, Note_on_c, 12, 58, 0
15, 174840, Note_on_c, 12, 60, 64
15, 174891, Note_on_c, 12, 60, 0
15, 174900, Note_on_c, 12, 62, 65
15, 174959, Note_on_c, 12, 62, 0
15, 174960, Note_on_c, 12, 63, 66
15, 175011, Note_on_c, 12, 63, 0
15, 175020, Note_on_c, 12, 65, 67
15, 175079, Note_on_c, 12, 65, 0
15, 175080, Note_on_c, 12, 67, 68
15, 175131, Note_on_c, 12, 67, 0
15, 175140, Note_on_c, 12, 69, 69
15, 175199, Note_on_c, 12, 69, 0
15, 175200, Note_on_c, 12, 70, 71
15, 175319, Note_on_c, 12, 70, 0
15, 175680, Note_on_c, 12, 67, 80
15, 176024, Note_on_c, 12, 67, 0
15, 176040, Note_on_c, 12, 65, 80
15, 176159, Note_on_c, 12, 65, 0
15, 176160, Note_on_c, 12, 64, 80
15, 176211, Note_on_c, 12, 64, 0
15, 176220, Note_on_c, 12, 74, 80
15, 176279, Note_on_c, 12, 74, 0
15, 176280, Note_on_c, 12, 73, 80
15, 176331, Note_on_c, 12, 73, 0
15, 176340, Note_on_c, 12, 70, 80
15, 176399, Note_on_c, 12, 70, 0
15, 176400, Note_on_c, 12, 69, 80
15, 176451, Note_on_c, 12, 69, 0
15, 176460, Note_on_c, 12, 67, 80
15, 176519, Note_on_c, 12, 67, 0
15, 176520, Note_on_c, 12, 65, 80
15, 176571, Note_on_c, 12, 65, 0
15, 176580, Note_on_c, 12, 64, 80
15, 176624, Note_on_c, 12, 64, 0
15, 176640, Note_on_c, 12, 69, 92
15, 176729, Note_on_c, 12, 69, 0
15, 176760, Note_on_c, 12, 62, 92
15, 176841, Note_on_c, 12, 62, 0
15, 176850, Note_on_c, 12, 62, 92
15, 176871, Note_on_c, 12, 62, 0
15, 176880, Note_on_c, 12, 57, 92
15, 176999, Note_on_c, 12, 57, 0
15, 177120, Note_on_c, 12, 55, 92
15, 177120, Note_on_c, 12, 70, 92
15, 177120, Note_on_c, 12, 62, 92
15, 177224, Note_on_c, 12, 55, 0
15, 177224, Note_on_c, 12, 70, 0
15, 177224, Note_on_c, 12, 62, 0
15, 177240, Note_on_c, 12, 57, 92
15, 177321, Note_on_c, 12, 57, 0
15, 177330, Note_on_c, 12, 57, 92
15, 177351, Note_on_c, 12, 57, 0
15, 177360, Note_on_c, 12, 58, 92
15, 177479, Note_on_c, 12, 58, 0
15, 178560, Note_on_c, 12, 62, 92
15, 178560, Note_on_c, 12, 74, 92
15, 178664, Note_on_c, 12, 62, 0
15, 178664, Note_on_c, 12, 74, 0
15, 178680, Note_on_c, 12, 73, 92
15, 178761, Note_on_c, 12, 73, 0
15, 178770, Note_on_c, 12, 73, 92
15, 178791, Note_on_c, 12, 73, 0
15, 178800, Note_on_c, 12, 74, 92
15, 178800, Note_on_c, 12, 62, 92
15, 178919, Note_on_c, 12, 74, 0
15, 178919, Note_on_c, 12, 62, 0
15, 179040, Note_on_c, 12, 75, 92
15, 179040, Note_on_c, 12, 63, 92
15, 179144, Note_on_c, 12, 75, 0
15, 179144, Note_on_c, 12, 63, 0
15, 179160, Note_on_c, 12, 74, 92
15, 179160, Note_on_c, 12, 62, 92
15, 179241, Note_on_c, 12, 74, 0
15, 179241, Note_on_c, 12, 62, 0
15, 179250, Note_on_c, 12, 62, 92
15, 179250, Note_on_c, 12, 74, 92
15, 179271, Note_on_c, 12, 62, 0
15, 179271, Note_on_c, 12, 74, 0
15, 179280, Note_on_c, 12, 63, 92
15, 179280, Note_on_c, 12, 75, 92
15, 179399, Note_on_c, 12, 63, 0
15, 179399, Note_on_c, 12, 75, 0
15, 180720, Note_on_c, 12, 67, 32
15, 180720, Note_on_c, 12, 58, 32
15, 180959, Note_on_c, 12, 67, 0
15, 180959, Note_on_c, 12, 58, 0
15, 181200, Note_on_c, 12, 67, 32
15, 181200, Note_on_c, 12, 58, 32
15, 181439, Note_on_c, 12, 67, 0
15, 181439, Note_on_c, 12, 58, 0
15, 181680, Note_on_c, 12, 68, 32
15, 181680, Note_on_c, 12, 58, 32
15, 181919, Note_on_c, 12, 68, 0
15, 181919, Note_on_c, 12, 58, 0
15, 182160, Note_on_c, 12, 58, 32
15, 182160, Note_on_c, 12, 65, 32
15, 182451, Note_on_c, 12, 58, 0
15, 182451, Note_on_c, 12, 65, 0
15, 182460, Note_on_c, 12, 68, 32
15, 182519, Note_on_c, 12, 68, 0
15, 182520, Note_on_c, 12, 67, 32
15, 182579, Note_on_c, 12, 67, 0
15, 182580, Note_on_c, 12, 65, 32
15, 182639, Note_on_c, 12, 65, 0
15, 182640, Note_on_c, 12, 63, 32
15, 182699, Note_on_c, 12, 63, 0
15, 182700, Note_on_c, 12, 62, 32
15, 182759, Note_on_c, 12, 62, 0
15, 182760, Note_on_c, 12, 60, 32
15, 182819, Note_on_c, 12, 60, 0
15, 182820, Note_on_c, 12, 58, 32
15, 182879, Note_on_c, 12, 58, 0
15, 182880, Note_on_c, 12, 56, 32
15, 182939, Note_on_c, 12, 56, 0
15, 182940, Note_on_c, 12, 55, 32
15, 182999, Note_on_c, 12, 55, 0
15, 183000, Note_on_c, 12, 65, 32
15, 183059, Note_on_c, 12, 65, 0
15, 183060, Note_on_c, 12, 63, 32
15, 183119, Note_on_c, 12, 63, 0
15, 183120, Note_on_c, 12, 62, 32
15, 183179, Note_on_c, 12, 62, 0
15, 183180, Note_on_c, 12, 61, 32
15, 183239, Note_on_c, 12, 61, 0
15, 183240, Note_on_c, 12, 62, 32
15, 183291, Note_on_c, 12, 62, 0
15, 183300, Note_on_c, 12, 62, 32
15, 183411, Note_on_c, 12, 62, 0
15, 183420, Note_on_c, 12, 61, 32
15, 183479, Note_on_c, 12, 61, 0
15, 183480, Note_on_c, 12, 68, 32
15, 183539, Note_on_c, 12, 68, 0
15, 183540, Note_on_c, 12, 69, 32
15, 183599, Note_on_c, 12, 69, 0
15, 183600, Note_on_c, 12, 70, 32
15, 183659, Note_on_c, 12, 70, 0
15, 183660, Note_on_c, 12, 68, 32
15, 183719, Note_on_c, 12, 68, 0
15, 183720, Note_on_c, 12, 69, 32
15, 183779, Note_on_c, 12, 69, 0
15, 183780, Note_on_c, 12, 61, 32
15, 183839, Note_on_c, 12, 61, 0
15, 183840, Note_on_c, 12, 62, 32
15, 183899, Note_on_c, 12, 62, 0
15, 183900, Note_on_c, 12, 72, 32
15, 183959, Note_on_c, 12, 72, 0
15, 183960, Note_on_c, 12, 69, 32
15, 184019, Note_on_c, 12, 69, 0
15, 184020, Note_on_c, 12, 70, 32
15, 184079, Note_on_c, 12, 70, 0
15, 184080, Note_on_c, 12, 74, 32
15, 184139, Note_on_c, 12, 74, 0
15, 184140, Note_on_c, 12, 71, 32
15, 184199, Note_on_c, 12, 71, 0
15, 184200, Note_on_c, 12, 73, 32
15, 184259, Note_on_c, 12, 73, 0
15, 184260, Note_on_c, 12, 64, 32
15, 184311, Note_on_c, 12, 64, 0
15, 184320, Note_on_c, 12, 65, 32
15, 184379, Note_on_c, 12, 65, 0
15, 184380, Note_on_c, 12, 64, 32
15, 184439, Note_on_c, 12, 64, 0
15, 184440, Note_on_c, 12, 61, 32
15, 184499, Note_on_c, 12, 61, 0
15, 184500, Note_on_c, 12, 62, 32
15, 184559, Note_on_c, 12, 62, 0
15, 184560, Note_on_c, 12, 65, 32
15, 184619, Note_on_c, 12, 65, 0
15, 184620, Note_on_c, 12, 62, 32
15, 184679, Note_on_c, 12, 62, 0
15, 184680, Note_on_c, 12, 64, 32
15, 184739, Note_on_c, 12, 64, 0
15, 184740, Note_on_c, 12, 55, 32
15, 184799, Note_on_c, 12, 55, 0
15, 184800, Note_on_c, 12, 67, 32
15, 184859, Note_on_c, 12, 67, 0
15, 184860, Note_on_c, 12, 64, 32
15, 184919, Note_on_c, 12, 64, 0
15, 184920, Note_on_c, 12, 66, 32
15, 184979, Note_on_c, 12, 66, 0
15, 184980, Note_on_c, 12, 57, 32
15, 185039, Note_on_c, 12, 57, 0
15, 185040, Note_on_c, 12, 69, 32
15, 185099, Note_on_c, 12, 69, 0
15, 185100, Note_on_c, 12, 66, 32
15, 185159, Note_on_c, 12, 66, 0
15, 185160, Note_on_c, 12, 67, 32
15, 185219, Note_on_c, 12, 67, 0
15, 185220, Note_on_c, 12, 58, 32
15, 185271, Note_on_c, 12, 58, 0
15, 185280, Note_on_c, 12, 70, 32
15, 185399, Note_on_c, 12, 70, 0
15, 185760, Note_on_c, 12, 70, 32
15, 185999, Note_on_c, 12, 70, 0
15, 186000, Note_on_c, 12, 70, 32
15, 186059, Note_on_c, 12, 70, 0
15, 186060, Note_on_c, 12, 69, 32
15, 186119, Note_on_c, 12, 69, 0
15, 186120, Note_on_c, 12, 67, 32
15, 186179, Note_on_c, 12, 67, 0
15, 186180, Note_on_c, 12, 64, 32
15, 186239, Note_on_c, 12, 64, 0
15, 186720, Note_on_c, 12, 71, 32
15, 186959, Note_on_c, 12, 71, 0
15, 186960, Note_on_c, 12, 71, 32
15, 187019, Note_on_c, 12, 71, 0
15, 187020, Note_on_c, 12, 69, 32
15, 187079, Note_on_c, 12, 69, 0
15, 187080, Note_on_c, 12, 66, 32
15, 187139, Note_on_c, 12, 66, 0
15, 187140, Note_on_c, 12, 62, 32
15, 187199, Note_on_c, 12, 62, 0
15, 187680, Note_on_c, 12, 70, 36
15, 187919, Note_on_c, 12, 70, 0
15, 187920, Note_on_c, 12, 70, 39
15, 187979, Note_on_c, 12, 70, 0
15, 187980, Note_on_c, 12, 69, 39
15, 188039, Note_on_c, 12, 69, 0
15, 188040, Note_on_c, 12, 67, 40
15, 188099, Note_on_c, 12, 67, 0
15, 188100, Note_on_c, 12, 64, 41
15, 188159, Note_on_c, 12, 64, 0
15, 188640, Note_on_c, 12, 71, 46
15, 188879, Note_on_c, 12, 71, 0
15, 188880, Note_on_c, 12, 71, 48
15, 188939, Note_on_c, 12, 71, 0
15, 188940, Note_on_c, 12, 69, 49
15, 188999, Note_on_c, 12, 69, 0
15, 189000, Note_on_c, 12, 66, 50
15, 189059, Note_on_c, 12, 66, 0
15, 189060, Note_on_c, 12, 62, 50
15, 189119, Note_on_c, 12, 62, 0
15, 189360, Note_on_c, 12, 70, 53
15, 189419, Note_on_c, 12, 70, 0
15, 189420, Note_on_c, 12, 69, 54
15, 189479, Note_on_c, 12, 69, 0
15, 189480, Note_on_c, 12, 67, 54
15, 189539, Note_on_c, 12, 67, 0
15, 189540, Note_on_c, 12, 64, 55
15, 189599, Note_on_c, 12, 64, 0
15, 189840, Note_on_c, 12, 71, 58
15, 189899, Note_on_c, 12, 71, 0
15, 189900, Note_on_c, 12, 69, 59
15, 189959, Note_on_c, 12, 69, 0
15, 189960, Note_on_c, 12, 66, 59
15, 190019, Note_on_c, 12, 66, 0
15, 190020, Note_on_c, 12, 62, 60
15, 190071, Note_on_c, 12, 62, 0
15, 190080, Note_on_c, 12, 70, 60
15, 190139, Note_on_c, 12, 70, 0
15, 190140, Note_on_c, 12, 69, 61
15, 190199, Note_on_c, 12, 69, 0
15, 190200, Note_on_c, 12, 67, 62
15, 190259, Note_on_c, 12, 67, 0
15, 190260, Note_on_c, 12, 64, 62
15, 190319, Note_on_c, 12, 64, 0
15, 190320, Note_on_c, 12, 70, 63
15, 190379, Note_on_c, 12, 70, 0
15, 190380, Note_on_c, 12, 69, 63
15, 190439, Note_on_c, 12, 69, 0
15, 190440, Note_on_c, 12, 67, 64
15, 190499, Note_on_c, 12, 67, 0
15, 190500, Note_on_c, 12, 64, 65
15, 190551, Note_on_c, 12, 64, 0
15, 190560, Note_on_c, 12, 70, 65
15, 190619, Note_on_c, 12, 70, 0
15, 190620, Note_on_c, 12, 69, 66
15, 190679, Note_on_c, 12, 69, 0
15, 190680, Note_on_c, 12, 65, 66
15, 190739, Note_on_c, 12, 65, 0
15, 190740, Note_on_c, 12, 62, 67
15, 190799, Note_on_c, 12, 62, 0
15, 190800, Note_on_c, 12, 70, 68
15, 190859, Note_on_c, 12, 70, 0
15, 190860, Note_on_c, 12, 69, 68
15, 190919, Note_on_c, 12, 69, 0
15, 190920, Note_on_c, 12, 65, 69
15, 190979, Note_on_c, 12, 65, 0
15, 190980, Note_on_c, 12, 62, 69
15, 191031, Note_on_c, 12, 62, 0
15, 191040, Note_on_c, 12, 70, 70
15, 191099, Note_on_c, 12, 70, 0
15, 191100, Note_on_c, 12, 69, 71
15, 191159, Note_on_c, 12, 69, 0
15, 191160, Note_on_c, 12, 73, 71
15, 191219, Note_on_c, 12, 73, 0
15, 191220, Note_on_c, 12, 69, 72
15, 191279, Note_on_c, 12, 69, 0
15, 191280, Note_on_c, 12, 76, 72
15, 191339, Note_on_c, 12, 76, 0
15, 191340, Note_on_c, 12, 69, 73
15, 191399, Note_on_c, 12, 69, 0
15, 191400, Note_on_c, 12, 76, 74
15, 191459, Note_on_c, 12, 76, 0
15, 191460, Note_on_c, 12, 74, 74
15, 191511, Note_on_c, 12, 74, 0
15, 191520, Note_on_c, 12, 70, 75
15, 191579, Note_on_c, 12, 70, 0
15, 191580, Note_on_c, 12, 69, 75
15, 191639, Note_on_c, 12, 69, 0
15, 191640, Note_on_c, 12, 73, 76
15, 191699, Note_on_c, 12, 73, 0
15, 191700, Note_on_c, 12, 69, 77
15, 191759, Note_on_c, 12, 69, 0
15, 191760, Note_on_c, 12, 76, 77
15, 191819, Note_on_c, 12, 76, 0
15, 191820, Note_on_c, 12, 69, 78
15, 191879, Note_on_c, 12, 69, 0
15, 191880, Note_on_c, 12, 76, 78
15, 191939, Note_on_c, 12, 76, 0
15, 191940, Note_on_c, 12, 74, 79
15, 191991, Note_on_c, 12, 74, 0
15, 192000, Note_on_c, 12, 67, 80
15, 192119, Note_on_c, 12, 67, 0
15, 192480, Note_on_c, 12, 69, 80
15, 192505, Note_on_c, 12, 69, 0
15, 192510, Note_on_c, 12, 70, 80
15, 192535, Note_on_c, 12, 70, 0
15, 192540, Note_on_c, 12, 69, 80
15, 192565, Note_on_c, 12, 69, 0
15, 192570, Note_on_c, 12, 67, 80
15, 192595, Note_on_c, 12, 67, 0
15, 192600, Note_on_c, 12, 65, 80
15, 192625, Note_on_c, 12, 65, 0
15, 192630, Note_on_c, 12, 67, 80
15, 192655, Note_on_c, 12, 67, 0
15, 192660, Note_on_c, 12, 65, 80
15, 192685, Note_on_c, 12, 65, 0
15, 192690, Note_on_c, 12, 64, 80
15, 192715, Note_on_c, 12, 64, 0
15, 192720, Note_on_c, 12, 62, 80
15, 192745, Note_on_c, 12, 62, 0
15, 192750, Note_on_c, 12, 64, 80
15, 192775, Note_on_c, 12, 64, 0
15, 192780, Note_on_c, 12, 65, 80
15, 192805, Note_on_c, 12, 65, 0
15, 192810, Note_on_c, 12, 67, 80
15, 192835, Note_on_c, 12, 67, 0
15, 192840, Note_on_c, 12, 69, 80
15, 192865, Note_on_c, 12, 69, 0
15, 192870, Note_on_c, 12, 70, 80
15, 192895, Note_on_c, 12, 70, 0
15, 192900, Note_on_c, 12, 72, 80
15, 192925, Note_on_c, 12, 72, 0
15, 192930, Note_on_c, 12, 74, 80
15, 192955, Note_on_c, 12, 74, 0
15, 192960, Note_on_c, 12, 76, 80
15, 193079, Note_on_c, 12, 76, 0
15, 193440, Note_on_c, 12, 72, 80
15, 193465, Note_on_c, 12, 72, 0
15, 193470, Note_on_c, 12, 74, 80
15, 193495, Note_on_c, 12, 74, 0
15, 193500, Note_on_c, 12, 72, 80
15, 193525, Note_on_c, 12, 72, 0
15, 193530, Note_on_c, 12, 70, 80
15, 193555, Note_on_c, 12, 70, 0
15, 193560, Note_on_c, 12, 69, 80
15, 193585, Note_on_c, 12, 69, 0
15, 193590, Note_on_c, 12, 70, 80
15, 193615, Note_on_c, 12, 70, 0
15, 193620, Note_on_c, 12, 69, 80
15, 193645, Note_on_c, 12, 69, 0
15, 193650, Note_on_c, 12, 67, 80
15, 193675, Note_on_c, 12, 67, 0
15, 193680, Note_on_c, 12, 66, 80
15, 193705, Note_on_c, 12, 66, 0
15, 193710, Note_on_c, 12, 67, 80
15, 193735, Note_on_c, 12, 67, 0
15, 193740, Note_on_c, 12, 69, 80
15, 193765, Note_on_c, 12, 69, 0
15, 193770, Note_on_c, 12, 70, 80
15, 193795, Note_on_c, 12, 70, 0
15, 193800, Note_on_c, 12, 72, 80
15, 193825, Note_on_c, 12, 72, 0
15, 193830, Note_on_c, 12, 74, 80
15, 193855, Note_on_c, 12, 74, 0
15, 193860, Note_on_c, 12, 76, 80
15, 193885, Note_on_c, 12, 76, 0
15, 193890, Note_on_c, 12, 78, 80
15, 193915, Note_on_c, 12, 78, 0
15, 193920, Note_on_c, 12, 79, 80
15, 194039, Note_on_c, 12, 79, 0
15, 194400, Note_on_c, 12, 64, 80
15, 194425, Note_on_c, 12, 64, 0
15, 194430, Note_on_c, 12, 65, 80
15, 194455, Note_on_c, 12, 65, 0
15, 194460, Note_on_c, 12, 64, 80
15, 194485, Note_on_c, 12, 64, 0
15, 194490, Note_on_c, 12, 62, 80
15, 194515, Note_on_c, 12, 62, 0
15, 194520, Note_on_c, 12, 61, 80
15, 194545, Note_on_c, 12, 61, 0
15, 194550, Note_on_c, 12, 62, 80
15, 194575, Note_on_c, 12, 62, 0
15, 194580, Note_on_c, 12, 61, 80
15, 194605, Note_on_c, 12, 61, 0
15, 194610, Note_on_c, 12, 59, 80
15, 194635, Note_on_c, 12, 59, 0
15, 194640, Note_on_c, 12, 57, 80
15, 194665, Note_on_c, 12, 57, 0
15, 194670, Note_on_c, 12, 58, 80
15, 194695, Note_on_c, 12, 58, 0
15, 194700, Note_on_c, 12, 61, 80
15, 194725, Note_on_c, 12, 61, 0
15, 194730, Note_on_c, 12, 62, 80
15, 194755, Note_on_c, 12, 62, 0
15, 194760, Note_on_c, 12, 64, 80
15, 194785, Note_on_c, 12, 64, 0
15, 194790, Note_on_c, 12, 65, 80
15, 194815, Note_on_c, 12, 65, 0
15, 194820, Note_on_c, 12, 67, 80
15, 194845, Note_on_c, 12, 67, 0
15, 194850, Note_on_c, 12, 69, 80
15, 194875, Note_on_c, 12, 69, 0
15, 194880, Note_on_c, 12, 69, 92
15, 194984, Note_on_c, 12, 69, 0
15, 195000, Note_on_c, 12, 62, 44
15, 195000, Note_on_c, 12, 81, 44
15, 195000, Note_on_c, 12, 69, 44
15, 195119, Note_on_c, 12, 62, 0
15, 195119, Note_on_c, 12, 81, 0
15, 195119, Note_on_c, 12, 69, 0
15, 195720, Note_on_c, 12, 74, 92
15, 195801, Note_on_c, 12, 74, 0
15, 195810, Note_on_c, 12, 74, 92
15, 195831, Note_on_c, 12, 74, 0
15, 195840, Note_on_c, 12, 64, 92
15, 195929, Note_on_c, 12, 64, 0
15, 195960, Note_on_c, 12, 76, 44
15, 196049, Note_on_c, 12, 76, 0
15, 196680, Note_on_c, 12, 64, 92
15, 196761, Note_on_c, 12, 64, 0
15, 196770, Note_on_c, 12, 76, 92
15, 196791, Note_on_c, 12, 76, 0
15, 196800, Note_on_c, 12, 78, 92
15, 196889, Note_on_c, 12, 78, 0
15, 196920, Note_on_c, 12, 66, 44
15, 197009, Note_on_c, 12, 66, 0
15, 197640, Note_on_c, 12, 72, 92
15, 197721, Note_on_c, 12, 72, 0
15, 197730, Note_on_c, 12, 60, 92
15, 197751, Note_on_c, 12, 60, 0
15, 197760, Note_on_c, 12, 62, 92
15, 197849, Note_on_c, 12, 62, 0
15, 197880, Note_on_c, 12, 62, 44
15, 197880, Note_on_c, 12, 74, 44
15, 197969, Note_on_c, 12, 62, 0
15, 197969, Note_on_c, 12, 74, 0
15, 199440, Note_on_c, 12, 70, 92
15, 199559, Note_on_c, 12, 70, 0
15, 199560, Note_on_c, 12, 69, 80
15, 199619, Note_on_c, 12, 69, 0
15, 199680, Note_on_c, 12, 69, 80
15, 199799, Note_on_c, 12, 69, 0
15, 199800, Note_on_c, 12, 67, 80
15, 199859, Note_on_c, 12, 67, 0
15, 199920, Note_on_c, 12, 67, 80
15, 200039, Note_on_c, 12, 67, 0
15, 200040, Note_on_c, 12, 65, 80
15, 200099, Note_on_c, 12, 65, 0
15, 200160, Note_on_c, 12, 70, 80
15, 200279, Note_on_c, 12, 70, 0
15, 200280, Note_on_c, 12, 75, 80
15, 200339, Note_on_c, 12, 75, 0
15, 200400, Note_on_c, 12, 74, 92
15, 200419, Note_on_c, 12, 74, 0
15, 200420, Note_on_c, 12, 76, 92
15, 200439, Note_on_c, 12, 76, 0
15, 200440, Note_on_c, 12, 74, 92
15, 200459, Note_on_c, 12, 74, 0
15, 200460, Note_on_c, 12, 76, 92
15, 200472, Note_on_c, 12, 76, 0
15, 200474, Note_on_c, 12, 74, 92
15, 200487, Note_on_c, 12, 74, 0
15, 200487, Note_on_c, 12, 73, 92
15, 200499, Note_on_c, 12, 73, 0
15, 200500, Note_on_c, 12, 74, 92
15, 200519, Note_on_c, 12, 74, 0
15, 200520, Note_on_c, 12, 76, 92
15, 200579, Note_on_c, 12, 76, 0
15, 200580, Note_on_c, 12, 73, 92
15, 200631, Note_on_c, 12, 73, 0
15, 200640, Note_on_c, 12, 74, 92
15, 200744, Note_on_c, 12, 74, 0
15, 200760, Note_on_c, 12, 62, 92
15, 200841, Note_on_c, 12, 62, 0
15, 200850, Note_on_c, 12, 62, 92
15, 200871, Note_on_c, 12, 62, 0
15, 200880, Note_on_c, 12, 65, 104
15, 200939, Note_on_c, 12, 65, 0
15, 200940, Note_on_c, 12, 65, 92
15, 201224, Note_on_c, 12, 65, 0
15, 201240, Note_on_c, 12, 65, 92
15, 201321, Note_on_c, 12, 65, 0
15, 201330, Note_on_c, 12, 65, 92
15, 201351, Note_on_c, 12, 65, 0
15, 201360, Note_on_c, 12, 69, 104
15, 201419, Note_on_c, 12, 69, 0
15, 201420, Note_on_c, 12, 69, 92
15, 201704, Note_on_c, 12, 69, 0
15, 201720, Note_on_c, 12, 69, 92
15, 201801, Note_on_c, 12, 69, 0
15, 201810, Note_on_c, 12, 69, 92
15, 201831, Note_on_c, 12, 69, 0
15, 201840, Note_on_c, 12, 74, 104
15, 201899, Note_on_c, 12, 74, 0
15, 201900, Note_on_c, 12, 74, 92
15, 202184, Note_on_c, 12, 74, 0
15, 202200, Note_on_c, 12, 74, 92
15, 202281, Note_on_c, 12, 74, 0
15, 202290, Note_on_c, 12, 74, 92
15, 202311, Note_on_c, 12, 74, 0
15, 202320, Note_on_c, 12, 77, 92
15, 202424, Note_on_c, 12, 77, 0
15, 202440, Note_on_c, 12, 77, 92
15, 202521, Note_on_c, 12, 77, 0
15, 202530, Note_on_c, 12, 77, 92
15, 202551, Note_on_c, 12, 77, 0
15, 202560, Note_on_c, 12, 81, 80
15, 202649, Note_on_c, 12, 81, 0
15, 202680, Note_on_c, 12, 74, 80
15, 202761, Note_on_c, 12, 74, 0
15, 202770, Note_on_c, 12, 74, 80
15, 202791, Note_on_c, 12, 74, 0
15, 202800, Note_on_c, 12, 77, 80
15, 202889, Note_on_c, 12, 77, 0
15, 202920, Note_on_c, 12, 69, 80
15, 203001, Note_on_c, 12, 69, 0
15, 203010, Note_on_c, 12, 69, 80
15, 203031, Note_on_c, 12, 69, 0
15, 203040, Note_on_c, 12, 74, 80
15, 203129, Note_on_c, 12, 74, 0
15, 203160, Note_on_c, 12, 77, 80
15, 203241, Note_on_c, 12, 77, 0
15, 203250, Note_on_c, 12, 77, 80
15, 203271, Note_on_c, 12, 77, 0
15, 203280, Note_on_c, 12, 81, 80
15, 203369, Note_on_c, 12, 81, 0
15, 203400, Note_on_c, 12, 74, 80
15, 203481, Note_on_c, 12, 74, 0
15, 203490, Note_on_c, 12, 74, 80
15, 203511, Note_on_c, 12, 74, 0
15, 203520, Note_on_c, 12, 77, 80
15, 203609, Note_on_c, 12, 77, 0
15, 203640, Note_on_c, 12, 69, 80
15, 203721, Note_on_c, 12, 69, 0
15, 203730, Note_on_c, 12, 69, 80
15, 203751, Note_on_c, 12, 69, 0
15, 203760, Note_on_c, 12, 74, 80
15, 203849, Note_on_c, 12, 74, 0
15, 203880, Note_on_c, 12, 65, 80
15, 203961, Note_on_c, 12, 65, 0
15, 203970, Note_on_c, 12, 65, 80
15, 203991, Note_on_c, 12, 65, 0
15, 204000, Note_on_c, 12, 69, 80
15, 204089, Note_on_c, 12, 69, 0
15, 204120, Note_on_c, 12, 62, 80
15, 204201, Note_on_c, 12, 62, 0
15, 204210, Note_on_c, 12, 62, 80
15, 204231, Note_on_c, 12, 62, 0
15, 204240, Note_on_c, 12, 86, 80
15, 204329, Note_on_c, 12, 86, 0
15, 204360, Note_on_c, 12, 62, 80
15, 204441, Note_on_c, 12, 62, 0
15, 204450, Note_on_c, 12, 62, 53
15, 204471, Note_on_c, 12, 62, 0
15, 204480, Note_on_c, 12, 69, 44
15, 204480, Note_on_c, 12, 65, 44
15, 204513, Note_on_c, 12, 69, 0
15, 204513, Note_on_c, 12, 65, 0
15, 204520, Note_on_c, 12, 65, 44
15, 204520, Note_on_c, 12, 69, 44
15, 204553, Note_on_c, 12, 65, 0
15, 204553, Note_on_c, 12, 69, 0
15, 204560, Note_on_c, 12, 69, 44
15, 204560, Note_on_c, 12, 65, 44
15, 204593, Note_on_c, 12, 69, 0
15, 204593, Note_on_c, 12, 65, 0
15, 204600, Note_on_c, 12, 69, 44
15, 204600, Note_on_c, 12, 65, 44
15, 204633, Note_on_c, 12, 69, 0
15, 204633, Note_on_c, 12, 65, 0
15, 204640, Note_on_c, 12, 65, 44
15, 204640, Note_on_c, 12, 69, 44
15, 204673, Note_on_c, 12, 65, 0
15, 204673, Note_on_c, 12, 69, 0
15, 204680, Note_on_c, 12, 69, 44
15, 204680, Note_on_c, 12, 65, 44
15, 204713, Note_on_c, 12, 69, 0
15, 204713, Note_on_c, 12, 65, 0
15, 204720, Note_on_c, 12, 69, 44
15, 204720, Note_on_c, 12, 65, 44
15, 204753, Note_on_c, 12, 69, 0
15, 204753, Note_on_c, 12, 65, 0
15, 204760, Note_on_c, 12, 69, 44
15, 204760, Note_on_c, 12, 65, 44
15, 204793, Note_on_c, 12, 69, 0
15, 204793, Note_on_c, 12, 65, 0
15, 204800, Note_on_c, 12, 65, 44
15, 204800, Note_on_c, 12, 69, 44
15, 204833, Note_on_c, 12, 65, 0
15, 204833, Note_on_c, 12, 69, 0
15, 204840, Note_on_c, 12, 69, 44
15, 204840, Note_on_c, 12, 65, 44
15, 204873, Note_on_c, 12, 69, 0
15, 204873, Note_on_c, 12, 65, 0
15, 204880, Note_on_c, 12, 65, 44
15, 204880, Note_on_c, 12, 69, 44
15, 204913, Note_on_c, 12, 65, 0
15, 204913, Note_on_c, 12, 69, 0
15, 204920, Note_on_c, 12, 65, 44
15, 204920, Note_on_c, 12, 69, 44
15, 204953, Note_on_c, 12, 65, 0
15, 204953, Note_on_c, 12, 69, 0
15, 204960, Note_on_c, 12, 65, 44
15, 204960, Note_on_c, 12, 69, 44
15, 204993, Note_on_c, 12, 65, 0
15, 204993, Note_on_c, 12, 69, 0
15, 205000, Note_on_c, 12, 69, 44
15, 205000, Note_on_c, 12, 65, 44
15, 205033, Note_on_c, 12, 69, 0
15, 205033, Note_on_c, 12, 65, 0
15, 205040, Note_on_c, 12, 69, 44
15, 205040, Note_on_c, 12, 65, 44
15, 205073, Note_on_c, 12, 69, 0
15, 205073, Note_on_c, 12, 65, 0
15, 205080, Note_on_c, 12, 65, 44
15, 205080, Note_on_c, 12, 69, 44
15, 205113, Note_on_c, 12, 65, 0
15, 205113, Note_on_c, 12, 69, 0
15, 205120, Note_on_c, 12, 69, 44
15, 205120, Note_on_c, 12, 65, 44
15, 205153, Note_on_c, 12, 69, 0
15, 205153, Note_on_c, 12, 65, 0
15, 205160, Note_on_c, 12, 69, 44
15, 205160, Note_on_c, 12, 65, 44
15, 205193, Note_on_c, 12, 69, 0
15, 205193, Note_on_c, 12, 65, 0
15, 205200, Note_on_c, 12, 69, 44
15, 205200, Note_on_c, 12, 65, 44
15, 205233, Note_on_c, 12, 69, 0
15, 205233, Note_on_c, 12, 65, 0
15, 205240, Note_on_c, 12, 69, 44
15, 205240, Note_on_c, 12, 65, 44
15, 205273, Note_on_c, 12, 69, 0
15, 205273, Note_on_c, 12, 65, 0
15, 205280, Note_on_c, 12, 69, 44
15, 205280, Note_on_c, 12, 65, 44
15, 205313, Note_on_c, 12, 69, 0
15, 205313, Note_on_c, 12, 65, 0
15, 205320, Note_on_c, 12, 65, 44
15, 205320, Note_on_c, 12, 69, 44
15, 205353, Note_on_c, 12, 65, 0
15, 205353, Note_on_c, 12, 69, 0
15, 205360, Note_on_c, 12, 65, 44
15, 205360, Note_on_c, 12, 69, 44
15, 205393, Note_on_c, 12, 65, 0
15, 205393, Note_on_c, 12, 69, 0
15, 205400, Note_on_c, 12, 65, 44
15, 205400, Note_on_c, 12, 69, 44
15, 205433, Note_on_c, 12, 65, 0
15, 205433, Note_on_c, 12, 69, 0
15, 205440, Note_on_c, 12, 69, 44
15, 205440, Note_on_c, 12, 65, 44
15, 205473, Note_on_c, 12, 69, 0
15, 205473, Note_on_c, 12, 65, 0
15, 205480, Note_on_c, 12, 65, 44
15, 205480, Note_on_c, 12, 69, 44
15, 205513, Note_on_c, 12, 65, 0
15, 205513, Note_on_c, 12, 69, 0
15, 205520, Note_on_c, 12, 65, 44
15, 205520, Note_on_c, 12, 69, 44
15, 205553, Note_on_c, 12, 65, 0
15, 205553, Note_on_c, 12, 69, 0
15, 205560, Note_on_c, 12, 65, 44
15, 205560, Note_on_c, 12, 69, 44
15, 205593, Note_on_c, 12, 65, 0
15, 205593, Note_on_c, 12, 69, 0
15, 205600, Note_on_c, 12, 65, 44
15, 205600, Note_on_c, 12, 69, 44
15, 205633, Note_on_c, 12, 65, 0
15, 205633, Note_on_c, 12, 69, 0
15, 205640, Note_on_c, 12, 69, 44
15, 205640, Note_on_c, 12, 65, 44
15, 205673, Note_on_c, 12, 69, 0
15, 205673, Note_on_c, 12, 65, 0
15, 205680, Note_on_c, 12, 65, 44
15, 205680, Note_on_c, 12, 69, 44
15, 205713, Note_on_c, 12, 65, 0
15, 205713, Note_on_c, 12, 69, 0
15, 205720, Note_on_c, 12, 69, 44
15, 205720, Note_on_c, 12, 65, 44
15, 205753, Note_on_c, 12, 69, 0
15, 205753, Note_on_c, 12, 65, 0
15, 205760, Note_on_c, 12, 65, 44
15, 205760, Note_on_c, 12, 69, 44
15, 205793, Note_on_c, 12, 65, 0
15, 205793, Note_on_c, 12, 69, 0
15, 205800, Note_on_c, 12, 69, 44
15, 205800, Note_on_c, 12, 65, 44
15, 205833, Note_on_c, 12, 69, 0
15, 205833, Note_on_c, 12, 65, 0
15, 205840, Note_on_c, 12, 65, 44
15, 205840, Note_on_c, 12, 69, 44
15, 205873, Note_on_c, 12, 65, 0
15, 205873, Note_on_c, 12, 69, 0
15, 205880, Note_on_c, 12, 65, 44
15, 205880, Note_on_c, 12, 69, 44
15, 205913, Note_on_c, 12, 65, 0
15, 205913, Note_on_c, 12, 69, 0
15, 205920, Note_on_c, 12, 65, 44
15, 205920, Note_on_c, 12, 69, 44
15, 205953, Note_on_c, 12, 65, 0
15, 205953, Note_on_c, 12, 69, 0
15, 205960, Note_on_c, 12, 69, 44
15, 205960, Note_on_c, 12, 65, 44
15, 205993, Note_on_c, 12, 69, 0
15, 205993, Note_on_c, 12, 65, 0
15, 206000, Note_on_c, 12, 65, 44
15, 206000, Note_on_c, 12, 69, 44
15, 206033, Note_on_c, 12, 65, 0
15, 206033, Note_on_c, 12, 69, 0
15, 206040, Note_on_c, 12, 69, 44
15, 206040, Note_on_c, 12, 65, 44
15, 206073, Note_on_c, 12, 69, 0
15, 206073, Note_on_c, 12, 65, 0
15, 206080, Note_on_c, 12, 69, 44
15, 206080, Note_on_c, 12, 65, 44
15, 206113, Note_on_c, 12, 69, 0
15, 206113, Note_on_c, 12, 65, 0
15, 206120, Note_on_c, 12, 65, 44
15, 206120, Note_on_c, 12, 69, 44
15, 206153, Note_on_c, 12, 65, 0
15, 206153, Note_on_c, 12, 69, 0
15, 206160, Note_on_c, 12, 67, 44
15, 206160, Note_on_c, 12, 70, 44
15, 206193, Note_on_c, 12, 67, 0
15, 206193, Note_on_c, 12, 70, 0
15, 206200, Note_on_c, 12, 70, 44
15, 206200, Note_on_c, 12, 67, 44
15, 206233, Note_on_c, 12, 70, 0
15, 206233, Note_on_c, 12, 67, 0
15, 206240, Note_on_c, 12, 70, 44
15, 206240, Note_on_c, 12, 67, 44
15, 206273, Note_on_c, 12, 70, 0
15, 206273, Note_on_c, 12, 67, 0
15, 206280, Note_on_c, 12, 70, 44
15, 206280, Note_on_c, 12, 67, 44
15, 206313, Note_on_c, 12, 70, 0
15, 206313, Note_on_c, 12, 67, 0
15, 206320, Note_on_c, 12, 67, 44
15, 206320, Note_on_c, 12, 70, 44
15, 206353, Note_on_c, 12, 67, 0
15, 206353, Note_on_c, 12, 70, 0
15, 206360, Note_on_c, 12, 67, 44
15, 206360, Note_on_c, 12, 70, 44
15, 206393, Note_on_c, 12, 67, 0
15, 206393, Note_on_c, 12, 70, 0
15, 206400, Note_on_c, 12, 70, 44
15, 206400, Note_on_c, 12, 67, 44
15, 206433, Note_on_c, 12, 70, 0
15, 206433, Note_on_c, 12, 67, 0
15, 206440, Note_on_c, 12, 70, 44
15, 206440, Note_on_c, 12, 67, 44
15, 206473, Note_on_c, 12, 70, 0
15, 206473, Note_on_c, 12, 67, 0
15, 206480, Note_on_c, 12, 67, 44
15, 206480, Note_on_c, 12, 70, 44
15, 206513, Note_on_c, 12, 67, 0
15, 206513, Note_on_c, 12, 70, 0
15, 206520, Note_on_c, 12, 70, 44
15, 206520, Note_on_c, 12, 67, 44
15, 206553, Note_on_c, 12, 70, 0
15, 206553, Note_on_c, 12, 67, 0
15, 206560, Note_on_c, 12, 70, 44
15, 206560, Note_on_c, 12, 67, 44
15, 206593, Note_on_c, 12, 70, 0
15, 206593, Note_on_c, 12, 67, 0
15, 206600, Note_on_c, 12, 67, 44
15, 206600, Note_on_c, 12, 70, 44
15, 206633, Note_on_c, 12, 67, 0
15, 206633, Note_on_c, 12, 70, 0
15, 206640, Note_on_c, 12, 70, 44
15, 206640, Note_on_c, 12, 67, 44
15, 206673, Note_on_c, 12, 70, 0
15, 206673, Note_on_c, 12, 67, 0
15, 206680, Note_on_c, 12, 70, 44
15, 206680, Note_on_c, 12, 67, 44
15, 206713, Note_on_c, 12, 70, 0
15, 206713, Note_on_c, 12, 67, 0
15, 206720, Note_on_c, 12, 67, 44
15, 206720, Note_on_c, 12, 70, 44
15, 206753, Note_on_c, 12, 67, 0
15, 206753, Note_on_c, 12, 70, 0
15, 206760, Note_on_c, 12, 67, 44
15, 206760, Note_on_c, 12, 70, 44
15, 206793, Note_on_c, 12, 67, 0
15, 206793, Note_on_c, 12, 70, 0
15, 206800, Note_on_c, 12, 67, 44
15, 206800, Note_on_c, 12, 70, 44
15, 206833, Note_on_c, 12, 67, 0
15, 206833, Note_on_c, 12, 70, 0
15, 206840, Note_on_c, 12, 67, 44
15, 206840, Note_on_c, 12, 70, 44
15, 206873, Note_on_c, 12, 67, 0
15, 206873, Note_on_c, 12, 70, 0
15, 206880, Note_on_c, 12, 67, 44
15, 206880, Note_on_c, 12, 70, 44
15, 206913, Note_on_c, 12, 67, 0
15, 206913, Note_on_c, 12, 70, 0
15, 206920, Note_on_c, 12, 67, 44
15, 206920, Note_on_c, 12, 70, 44
15, 206953, Note_on_c, 12, 67, 0
15, 206953, Note_on_c, 12, 70, 0
15, 206960, Note_on_c, 12, 70, 44
15, 206960, Note_on_c, 12, 67, 44
15, 206993, Note_on_c, 12, 70, 0
15, 206993, Note_on_c, 12, 67, 0
15, 207000, Note_on_c, 12, 70, 44
15, 207000, Note_on_c, 12, 67, 44
15, 207033, Note_on_c, 12, 70, 0
15, 207033, Note_on_c, 12, 67, 0
15, 207040, Note_on_c, 12, 70, 44
15, 207040, Note_on_c, 12, 67, 44
15, 207073, Note_on_c, 12, 70, 0
15, 207073, Note_on_c, 12, 67, 0
15, 207080, Note_on_c, 12, 70, 44
15, 207080, Note_on_c, 12, 67, 44
15, 207113, Note_on_c, 12, 70, 0
15, 207113, Note_on_c, 12, 67, 0
15, 207120, Note_on_c, 12, 67, 44
15, 207120, Note_on_c, 12, 70, 44
15, 207153, Note_on_c, 12, 67, 0
15, 207153, Note_on_c, 12, 70, 0
15, 207160, Note_on_c, 12, 67, 44
15, 207160, Note_on_c, 12, 70, 44
15, 207193, Note_on_c, 12, 67, 0
15, 207193, Note_on_c, 12, 70, 0
15, 207200, Note_on_c, 12, 70, 44
15, 207200, Note_on_c, 12, 67, 44
15, 207233, Note_on_c, 12, 70, 0
15, 207233, Note_on_c, 12, 67, 0
15, 207240, Note_on_c, 12, 67, 44
15, 207240, Note_on_c, 12, 70, 44
15, 207273, Note_on_c, 12, 67, 0
15, 207273, Note_on_c, 12, 70, 0
15, 207280, Note_on_c, 12, 70, 44
15, 207280, Note_on_c, 12, 67, 44
15, 207313, Note_on_c, 12, 70, 0
15, 207313, Note_on_c, 12, 67, 0
15, 207320, Note_on_c, 12, 67, 44
15, 207320, Note_on_c, 12, 70, 44
15, 207353, Note_on_c, 12, 67, 0
15, 207353, Note_on_c, 12, 70, 0
15, 207360, Note_on_c, 12, 70, 44
15, 207360, Note_on_c, 12, 67, 44
15, 207393, Note_on_c, 12, 70, 0
15, 207393, Note_on_c, 12, 67, 0
15, 207400, Note_on_c, 12, 67, 44
15, 207400, Note_on_c, 12, 70, 44
15, 207433, Note_on_c, 12, 67, 0
15, 207433, Note_on_c, 12, 70, 0
15, 207440, Note_on_c, 12, 70, 44
15, 207440, Note_on_c, 12, 67, 44
15, 207473, Note_on_c, 12, 70, 0
15, 207473, Note_on_c, 12, 67, 0
15, 207480, Note_on_c, 12, 67, 44
15, 207480, Note_on_c, 12, 70, 44
15, 207513, Note_on_c, 12, 67, 0
15, 207513, Note_on_c, 12, 70, 0
15, 207520, Note_on_c, 12, 70, 44
15, 207520, Note_on_c, 12, 67, 44
15, 207553, Note_on_c, 12, 70, 0
15, 207553, Note_on_c, 12, 67, 0
15, 207560, Note_on_c, 12, 67, 44
15, 207560, Note_on_c, 12, 70, 44
15, 207593, Note_on_c, 12, 67, 0
15, 207593, Note_on_c, 12, 70, 0
15, 207600, Note_on_c, 12, 67, 44
15, 207600, Note_on_c, 12, 70, 44
15, 207633, Note_on_c, 12, 67, 0
15, 207633, Note_on_c, 12, 70, 0
15, 207640, Note_on_c, 12, 70, 44
15, 207640, Note_on_c, 12, 67, 44
15, 207673, Note_on_c, 12, 70, 0
15, 207673, Note_on_c, 12, 67, 0
15, 207680, Note_on_c, 12, 70, 44
15, 207680, Note_on_c, 12, 67, 44
15, 207713, Note_on_c, 12, 70, 0
15, 207713, Note_on_c, 12, 67, 0
15, 207720, Note_on_c, 12, 70, 44
15, 207720, Note_on_c, 12, 67, 44
15, 207753, Note_on_c, 12, 70, 0
15, 207753, Note_on_c, 12, 67, 0
15, 207760, Note_on_c, 12, 70, 44
15, 207760, Note_on_c, 12, 67, 44
15, 207793, Note_on_c, 12, 70, 0
15, 207793, Note_on_c, 12, 67, 0
15, 207800, Note_on_c, 12, 70, 44
15, 207800, Note_on_c, 12, 67, 44
15, 207833, Note_on_c, 12, 70, 0
15, 207833, Note_on_c, 12, 67, 0
15, 207840, Note_on_c, 12, 70, 44
15, 207840, Note_on_c, 12, 67, 44
15, 207873, Note_on_c, 12, 70, 0
15, 207873, Note_on_c, 12, 67, 0
15, 207880, Note_on_c, 12, 67, 44
15, 207880, Note_on_c, 12, 70, 44
15, 207913, Note_on_c, 12, 67, 0
15, 207913, Note_on_c, 12, 70, 0
15, 207920, Note_on_c, 12, 70, 44
15, 207920, Note_on_c, 12, 67, 44
15, 207953, Note_on_c, 12, 70, 0
15, 207953, Note_on_c, 12, 67, 0
15, 207960, Note_on_c, 12, 70, 44
15, 207960, Note_on_c, 12, 67, 44
15, 207993, Note_on_c, 12, 70, 0
15, 207993, Note_on_c, 12, 67, 0
15, 208000, Note_on_c, 12, 67, 44
15, 208000, Note_on_c, 12, 70, 44
15, 208033, Note_on_c, 12, 67, 0
15, 208033, Note_on_c, 12, 70, 0
15, 208040, Note_on_c, 12, 70, 44
15, 208040, Note_on_c, 12, 67, 44
15, 208073, Note_on_c, 12, 70, 0
15, 208073, Note_on_c, 12, 67, 0
15, 208080, Note_on_c, 12, 72, 44
15, 208080, Note_on_c, 12, 66, 44
15, 208113, Note_on_c, 12, 72, 0
15, 208113, Note_on_c, 12, 66, 0
15, 208120, Note_on_c, 12, 72, 44
15, 208120, Note_on_c, 12, 66, 44
15, 208153, Note_on_c, 12, 72, 0
15, 208153, Note_on_c, 12, 66, 0
15, 208160, Note_on_c, 12, 66, 44
15, 208160, Note_on_c, 12, 72, 44
15, 208193, Note_on_c, 12, 66, 0
15, 208193, Note_on_c, 12, 72, 0
15, 208200, Note_on_c, 12, 66, 44
15, 208200, Note_on_c, 12, 72, 44
15, 208233, Note_on_c, 12, 66, 0
15, 208233, Note_on_c, 12, 72, 0
15, 208240, Note_on_c, 12, 72, 44
15, 208240, Note_on_c, 12, 66, 44
15, 208273, Note_on_c, 12, 72, 0
15, 208273, Note_on_c, 12, 66, 0
15, 208280, Note_on_c, 12, 72, 44
15, 208280, Note_on_c, 12, 66, 44
15, 208313, Note_on_c, 12, 72, 0
15, 208313, Note_on_c, 12, 66, 0
15, 208320, Note_on_c, 12, 72, 44
15, 208320, Note_on_c, 12, 66, 44
15, 208353, Note_on_c, 12, 72, 0
15, 208353, Note_on_c, 12, 66, 0
15, 208360, Note_on_c, 12, 66, 44
15, 208360, Note_on_c, 12, 72, 44
15, 208393, Note_on_c, 12, 66, 0
15, 208393, Note_on_c, 12, 72, 0
15, 208400, Note_on_c, 12, 72, 44
15, 208400, Note_on_c, 12, 66, 44
15, 208433, Note_on_c, 12, 72, 0
15, 208433, Note_on_c, 12, 66, 0
15, 208440, Note_on_c, 12, 72, 44
15, 208440, Note_on_c, 12, 66, 44
15, 208473, Note_on_c, 12, 72, 0
15, 208473, Note_on_c, 12, 66, 0
15, 208480, Note_on_c, 12, 72, 44
15, 208480, Note_on_c, 12, 66, 44
15, 208513, Note_on_c, 12, 72, 0
15, 208513, Note_on_c, 12, 66, 0
15, 208520, Note_on_c, 12, 72, 44
15, 208520, Note_on_c, 12, 66, 44
15, 208553, Note_on_c, 12, 72, 0
15, 208553, Note_on_c, 12, 66, 0
15, 208560, Note_on_c, 12, 66, 44
15, 208560, Note_on_c, 12, 72, 44
15, 208593, Note_on_c, 12, 66, 0
15, 208593, Note_on_c, 12, 72, 0
15, 208600, Note_on_c, 12, 72, 44
15, 208600, Note_on_c, 12, 66, 44
15, 208633, Note_on_c, 12, 72, 0
15, 208633, Note_on_c, 12, 66, 0
15, 208640, Note_on_c, 12, 66, 44
15, 208640, Note_on_c, 12, 72, 44
15, 208673, Note_on_c, 12, 66, 0
15, 208673, Note_on_c, 12, 72, 0
15, 208680, Note_on_c, 12, 66, 44
15, 208680, Note_on_c, 12, 72, 44
15, 208713, Note_on_c, 12, 66, 0
15, 208713, Note_on_c, 12, 72, 0
15, 208720, Note_on_c, 12, 72, 44
15, 208720, Note_on_c, 12, 66, 44
15, 208753, Note_on_c, 12, 72, 0
15, 208753, Note_on_c, 12, 66, 0
15, 208760, Note_on_c, 12, 66, 44
15, 208760, Note_on_c, 12, 72, 44
15, 208793, Note_on_c, 12, 66, 0
15, 208793, Note_on_c, 12, 72, 0
15, 208800, Note_on_c, 12, 66, 44
15, 208800, Note_on_c, 12, 72, 44
15, 208833, Note_on_c, 12, 66, 0
15, 208833, Note_on_c, 12, 72, 0
15, 208840, Note_on_c, 12, 66, 44
15, 208840, Note_on_c, 12, 72, 44
15, 208873, Note_on_c, 12, 66, 0
15, 208873, Note_on_c, 12, 72, 0
15, 208880, Note_on_c, 12, 66, 44
15, 208880, Note_on_c, 12, 72, 44
15, 208913, Note_on_c, 12, 66, 0
15, 208913, Note_on_c, 12, 72, 0
15, 208920, Note_on_c, 12, 66, 44
15, 208920, Note_on_c, 12, 72, 44
15, 208953, Note_on_c, 12, 66, 0
15, 208953, Note_on_c, 12, 72, 0
15, 208960, Note_on_c, 12, 66, 44
15, 208960, Note_on_c, 12, 72, 44
15, 208993, Note_on_c, 12, 66, 0
15, 208993, Note_on_c, 12, 72, 0
15, 209000, Note_on_c, 12, 72, 44
15, 209000, Note_on_c, 12, 66, 44
15, 209033, Note_on_c, 12, 72, 0
15, 209033, Note_on_c, 12, 66, 0
15, 209040, Note_on_c, 12, 66, 44
15, 209040, Note_on_c, 12, 72, 44
15, 209073, Note_on_c, 12, 66, 0
15, 209073, Note_on_c, 12, 72, 0
15, 209080, Note_on_c, 12, 66, 44
15, 209080, Note_on_c, 12, 72, 44
15, 209113, Note_on_c, 12, 66, 0
15, 209113, Note_on_c, 12, 72, 0
15, 209120, Note_on_c, 12, 72, 44
15, 209120, Note_on_c, 12, 66, 44
15, 209153, Note_on_c, 12, 72, 0
15, 209153, Note_on_c, 12, 66, 0
15, 209160, Note_on_c, 12, 72, 44
15, 209160, Note_on_c, 12, 66, 44
15, 209193, Note_on_c, 12, 72, 0
15, 209193, Note_on_c, 12, 66, 0
15, 209200, Note_on_c, 12, 66, 44
15, 209200, Note_on_c, 12, 72, 44
15, 209233, Note_on_c, 12, 66, 0
15, 209233, Note_on_c, 12, 72, 0
15, 209240, Note_on_c, 12, 72, 44
15, 209240, Note_on_c, 12, 66, 44
15, 209273, Note_on_c, 12, 72, 0
15, 209273, Note_on_c, 12, 66, 0
15, 209280, Note_on_c, 12, 72, 44
15, 209280, Note_on_c, 12, 66, 44
15, 209313, Note_on_c, 12, 72, 0
15, 209313, Note_on_c, 12, 66, 0
15, 209320, Note_on_c, 12, 66, 44
15, 209320, Note_on_c, 12, 72, 44
15, 209353, Note_on_c, 12, 66, 0
15, 209353, Note_on_c, 12, 72, 0
15, 209360, Note_on_c, 12, 72, 44
15, 209360, Note_on_c, 12, 66, 44
15, 209393, Note_on_c, 12, 72, 0
15, 209393, Note_on_c, 12, 66, 0
15, 209400, Note_on_c, 12, 66, 44
15, 209400, Note_on_c, 12, 72, 44
15, 209433, Note_on_c, 12, 66, 0
15, 209433, Note_on_c, 12, 72, 0
15, 209440, Note_on_c, 12, 66, 44
15, 209440, Note_on_c, 12, 72, 44
15, 209473, Note_on_c, 12, 66, 0
15, 209473, Note_on_c, 12, 72, 0
15, 209480, Note_on_c, 12, 66, 44
15, 209480, Note_on_c, 12, 72, 44
15, 209513, Note_on_c, 12, 66, 0
15, 209513, Note_on_c, 12, 72, 0
15, 209520, Note_on_c, 12, 66, 44
15, 209520, Note_on_c, 12, 72, 44
15, 209553, Note_on_c, 12, 66, 0
15, 209553, Note_on_c, 12, 72, 0
15, 209560, Note_on_c, 12, 72, 44
15, 209560, Note_on_c, 12, 66, 44
15, 209593, Note_on_c, 12, 72, 0
15, 209593, Note_on_c, 12, 66, 0
15, 209600, Note_on_c, 12, 72, 44
15, 209600, Note_on_c, 12, 66, 44
15, 209633, Note_on_c, 12, 72, 0
15, 209633, Note_on_c, 12, 66, 0
15, 209640, Note_on_c, 12, 66, 44
15, 209640, Note_on_c, 12, 72, 44
15, 209673, Note_on_c, 12, 66, 0
15, 209673, Note_on_c, 12, 72, 0
15, 209680, Note_on_c, 12, 66, 44
15, 209680, Note_on_c, 12, 72, 44
15, 209713, Note_on_c, 12, 66, 0
15, 209713, Note_on_c, 12, 72, 0
15, 209720, Note_on_c, 12, 66, 44
15, 209720, Note_on_c, 12, 72, 44
15, 209753, Note_on_c, 12, 66, 0
15, 209753, Note_on_c, 12, 72, 0
15, 209760, Note_on_c, 12, 72, 44
15, 209760, Note_on_c, 12, 66, 44
15, 209793, Note_on_c, 12, 72, 0
15, 209793, Note_on_c, 12, 66, 0
15, 209800, Note_on_c, 12, 66, 44
15, 209800, Note_on_c, 12, 72, 44
15, 209833, Note_on_c, 12, 66, 0
15, 209833, Note_on_c, 12, 72, 0
15, 209840, Note_on_c, 12, 66, 44
15, 209840, Note_on_c, 12, 72, 44
15, 209873, Note_on_c, 12, 66, 0
15, 209873, Note_on_c, 12, 72, 0
15, 209880, Note_on_c, 12, 72, 44
15, 209880, Note_on_c, 12, 66, 44
15, 209913, Note_on_c, 12, 72, 0
15, 209913, Note_on_c, 12, 66, 0
15, 209920, Note_on_c, 12, 66, 44
15, 209920, Note_on_c, 12, 72, 44
15, 209953, Note_on_c, 12, 66, 0
15, 209953, Note_on_c, 12, 72, 0
15, 209960, Note_on_c, 12, 66, 44
15, 209960, Note_on_c, 12, 72, 44
15, 209993, Note_on_c, 12, 66, 0
15, 209993, Note_on_c, 12, 72, 0
15, 210000, Note_on_c, 12, 63, 44
15, 210000, Note_on_c, 12, 72, 44
15, 210033, Note_on_c, 12, 63, 0
15, 210033, Note_on_c, 12, 72, 0
15, 210040, Note_on_c, 12, 63, 44
15, 210040, Note_on_c, 12, 72, 44
15, 210073, Note_on_c, 12, 63, 0
15, 210073, Note_on_c, 12, 72, 0
15, 210080, Note_on_c, 12, 63, 44
15, 210080, Note_on_c, 12, 72, 44
15, 210113, Note_on_c, 12, 63, 0
15, 210113, Note_on_c, 12, 72, 0
15, 210120, Note_on_c, 12, 72, 44
15, 210120, Note_on_c, 12, 62, 44
15, 210153, Note_on_c, 12, 72, 0
15, 210153, Note_on_c, 12, 62, 0
15, 210160, Note_on_c, 12, 62, 44
15, 210160, Note_on_c, 12, 72, 44
15, 210193, Note_on_c, 12, 62, 0
15, 210193, Note_on_c, 12, 72, 0
15, 210200, Note_on_c, 12, 62, 44
15, 210200, Note_on_c, 12, 72, 44
15, 210233, Note_on_c, 12, 62, 0
15, 210233, Note_on_c, 12, 72, 0
15, 210240, Note_on_c, 12, 72, 44
15, 210240, Note_on_c, 12, 69, 44
15, 210273, Note_on_c, 12, 72, 0
15, 210273, Note_on_c, 12, 69, 0
15, 210280, Note_on_c, 12, 69, 44
15, 210280, Note_on_c, 12, 72, 44
15, 210313, Note_on_c, 12, 69, 0
15, 210313, Note_on_c, 12, 72, 0
15, 210320, Note_on_c, 12, 69, 44
15, 210320, Note_on_c, 12, 72, 44
15, 210353, Note_on_c, 12, 69, 0
15, 210353, Note_on_c, 12, 72, 0
15, 210360, Note_on_c, 12, 69, 44
15, 210360, Note_on_c, 12, 72, 44
15, 210393, Note_on_c, 12, 69, 0
15, 210393, Note_on_c, 12, 72, 0
15, 210400, Note_on_c, 12, 72, 45
15, 210400, Note_on_c, 12, 69, 45
15, 210433, Note_on_c, 12, 72, 0
15, 210433, Note_on_c, 12, 69, 0
15, 210440, Note_on_c, 12, 69, 45
15, 210440, Note_on_c, 12, 72, 45
15, 210473, Note_on_c, 12, 69, 0
15, 210473, Note_on_c, 12, 72, 0
15, 210480, Note_on_c, 12, 72, 45
15, 210480, Note_on_c, 12, 69, 45
15, 210513, Note_on_c, 12, 72, 0
15, 210513, Note_on_c, 12, 69, 0
15, 210520, Note_on_c, 12, 72, 46
15, 210520, Note_on_c, 12, 69, 46
15, 210553, Note_on_c, 12, 72, 0
15, 210553, Note_on_c, 12, 69, 0
15, 210560, Note_on_c, 12, 69, 46
15, 210560, Note_on_c, 12, 72, 46
15, 210593, Note_on_c, 12, 69, 0
15, 210593, Note_on_c, 12, 72, 0
15, 210600, Note_on_c, 12, 69, 46
15, 210600, Note_on_c, 12, 72, 46
15, 210633, Note_on_c, 12, 69, 0
15, 210633, Note_on_c, 12, 72, 0
15, 210640, Note_on_c, 12, 69, 46
15, 210640, Note_on_c, 12, 72, 46
15, 210673, Note_on_c, 12, 69, 0
15, 210673, Note_on_c, 12, 72, 0
15, 210680, Note_on_c, 12, 72, 47
15, 210680, Note_on_c, 12, 69, 47
15, 210713, Note_on_c, 12, 72, 0
15, 210713, Note_on_c, 12, 69, 0
15, 210720, Note_on_c, 12, 72, 47
15, 210720, Note_on_c, 12, 69, 47
15, 210753, Note_on_c, 12, 72, 0
15, 210753, Note_on_c, 12, 69, 0
15, 210760, Note_on_c, 12, 72, 47
15, 210760, Note_on_c, 12, 69, 47
15, 210793, Note_on_c, 12, 72, 0
15, 210793, Note_on_c, 12, 69, 0
15, 210800, Note_on_c, 12, 72, 48
15, 210800, Note_on_c, 12, 69, 48
15, 210833, Note_on_c, 12, 72, 0
15, 210833, Note_on_c, 12, 69, 0
15, 210840, Note_on_c, 12, 69, 48
15, 210840, Note_on_c, 12, 72, 48
15, 210873, Note_on_c, 12, 69, 0
15, 210873, Note_on_c, 12, 72, 0
15, 210880, Note_on_c, 12, 72, 48
15, 210880, Note_on_c, 12, 69, 48
15, 210913, Note_on_c, 12, 72, 0
15, 210913, Note_on_c, 12, 69, 0
15, 210920, Note_on_c, 12, 72, 48
15, 210920, Note_on_c, 12, 69, 48
15, 210953, Note_on_c, 12, 72, 0
15, 210953, Note_on_c, 12, 69, 0
15, 210960, Note_on_c, 12, 62, 49
15, 210960, Note_on_c, 12, 74, 49
15, 210993, Note_on_c, 12, 62, 0
15, 210993, Note_on_c, 12, 74, 0
15, 211000, Note_on_c, 12, 71, 49
15, 211000, Note_on_c, 12, 62, 49
15, 211033, Note_on_c, 12, 71, 0
15, 211033, Note_on_c, 12, 62, 0
15, 211040, Note_on_c, 12, 71, 49
15, 211040, Note_on_c, 12, 62, 49
15, 211073, Note_on_c, 12, 71, 0
15, 211073, Note_on_c, 12, 62, 0
15, 211080, Note_on_c, 12, 62, 50
15, 211080, Note_on_c, 12, 71, 50
15, 211113, Note_on_c, 12, 62, 0
15, 211113, Note_on_c, 12, 71, 0
15, 211120, Note_on_c, 12, 71, 50
15, 211120, Note_on_c, 12, 62, 50
15, 211153, Note_on_c, 12, 71, 0
15, 211153, Note_on_c, 12, 62, 0
15, 211160, Note_on_c, 12, 62, 50
15, 211160, Note_on_c, 12, 71, 50
15, 211193, Note_on_c, 12, 62, 0
15, 211193, Note_on_c, 12, 71, 0
15, 211200, Note_on_c, 12, 74, 50
15, 211200, Note_on_c, 12, 65, 50
15, 211233, Note_on_c, 12, 74, 0
15, 211233, Note_on_c, 12, 65, 0
15, 211240, Note_on_c, 12, 65, 51
15, 211240, Note_on_c, 12, 74, 51
15, 211273, Note_on_c, 12, 65, 0
15, 211273, Note_on_c, 12, 74, 0
15, 211280, Note_on_c, 12, 65, 51
15, 211280, Note_on_c, 12, 74, 51
15, 211313, Note_on_c, 12, 65, 0
15, 211313, Note_on_c, 12, 74, 0
15, 211320, Note_on_c, 12, 74, 51
15, 211320, Note_on_c, 12, 65, 51
15, 211353, Note_on_c, 12, 74, 0
15, 211353, Note_on_c, 12, 65, 0
15, 211360, Note_on_c, 12, 65, 52
15, 211360, Note_on_c, 12, 74, 52
15, 211393, Note_on_c, 12, 65, 0
15, 211393, Note_on_c, 12, 74, 0
15, 211400, Note_on_c, 12, 74, 52
15, 211400, Note_on_c, 12, 65, 52
15, 211433, Note_on_c, 12, 74, 0
15, 211433, Note_on_c, 12, 65, 0
15, 211440, Note_on_c, 12, 65, 52
15, 211440, Note_on_c, 12, 74, 52
15, 211473, Note_on_c, 12, 65, 0
15, 211473, Note_on_c, 12, 74, 0
15, 211480, Note_on_c, 12, 74, 52
15, 211480, Note_on_c, 12, 65, 52
15, 211513, Note_on_c, 12, 74, 0
15, 211513, Note_on_c, 12, 65, 0
15, 211520, Note_on_c, 12, 65, 53
15, 211520, Note_on_c, 12, 74, 53
15, 211553, Note_on_c, 12, 65, 0
15, 211553, Note_on_c, 12, 74, 0
15, 211560, Note_on_c, 12, 74, 53
15, 211560, Note_on_c, 12, 65, 53
15, 211593, Note_on_c, 12, 74, 0
15, 211593, Note_on_c, 12, 65, 0
15, 211600, Note_on_c, 12, 65, 53
15, 211600, Note_on_c, 12, 74, 53
15, 211633, Note_on_c, 12, 65, 0
15, 211633, Note_on_c, 12, 74, 0
15, 211640, Note_on_c, 12, 65, 54
15, 211640, Note_on_c, 12, 74, 54
15, 211673, Note_on_c, 12, 65, 0
15, 211673, Note_on_c, 12, 74, 0
15, 211680, Note_on_c, 12, 74, 54
15, 211680, Note_on_c, 12, 65, 54
15, 211713, Note_on_c, 12, 74, 0
15, 211713, Note_on_c, 12, 65, 0
15, 211720, Note_on_c, 12, 74, 54
15, 211720, Note_on_c, 12, 65, 54
15, 211753, Note_on_c, 12, 74, 0
15, 211753, Note_on_c, 12, 65, 0
15, 211760, Note_on_c, 12, 65, 54
15, 211760, Note_on_c, 12, 74, 54
15, 211793, Note_on_c, 12, 65, 0
15, 211793, Note_on_c, 12, 74, 0
15, 211800, Note_on_c, 12, 65, 55
15, 211800, Note_on_c, 12, 74, 55
15, 211833, Note_on_c, 12, 65, 0
15, 211833, Note_on_c, 12, 74, 0
15, 211840, Note_on_c, 12, 65, 55
15, 211840, Note_on_c, 12, 74, 55
15, 211873, Note_on_c, 12, 65, 0
15, 211873, Note_on_c, 12, 74, 0
15, 211880, Note_on_c, 12, 74, 55
15, 211880, Note_on_c, 12, 65, 55
15, 211913, Note_on_c, 12, 74, 0
15, 211913, Note_on_c, 12, 65, 0
15, 211920, Note_on_c, 12, 64, 56
15, 211920, Note_on_c, 12, 76, 56
15, 211953, Note_on_c, 12, 64, 0
15, 211953, Note_on_c, 12, 76, 0
15, 211960, Note_on_c, 12, 76, 56
15, 211960, Note_on_c, 12, 64, 56
15, 211993, Note_on_c, 12, 76, 0
15, 211993, Note_on_c, 12, 64, 0
15, 212000, Note_on_c, 12, 76, 56
15, 212000, Note_on_c, 12, 64, 56
15, 212033, Note_on_c, 12, 76, 0
15, 212033, Note_on_c, 12, 64, 0
15, 212040, Note_on_c, 12, 64, 56
15, 212040, Note_on_c, 12, 76, 56
15, 212073, Note_on_c, 12, 64, 0
15, 212073, Note_on_c, 12, 76, 0
15, 212080, Note_on_c, 12, 67, 57
15, 212113, Note_on_c, 12, 67, 0
15, 212120, Note_on_c, 12, 67, 57
15, 212153, Note_on_c, 12, 67, 0
15, 212160, Note_on_c, 12, 67, 57
15, 212160, Note_on_c, 12, 70, 57
15, 212193, Note_on_c, 12, 67, 0
15, 212193, Note_on_c, 12, 70, 0
15, 212200, Note_on_c, 12, 67, 58
15, 212200, Note_on_c, 12, 70, 58
15, 212233, Note_on_c, 12, 67, 0
15, 212233, Note_on_c, 12, 70, 0
15, 212240, Note_on_c, 12, 70, 58
15, 212240, Note_on_c, 12, 67, 58
15, 212273, Note_on_c, 12, 70, 0
15, 212273, Note_on_c, 12, 67, 0
15, 212280, Note_on_c, 12, 67, 58
15, 212280, Note_on_c, 12, 70, 58
15, 212313, Note_on_c, 12, 67, 0
15, 212313, Note_on_c, 12, 70, 0
15, 212320, Note_on_c, 12, 70, 58
15, 212320, Note_on_c, 12, 67, 58
15, 212353, Note_on_c, 12, 70, 0
15, 212353, Note_on_c, 12, 67, 0
15, 212360, Note_on_c, 12, 67, 59
15, 212360, Note_on_c, 12, 70, 59
15, 212393, Note_on_c, 12, 67, 0
15, 212393, Note_on_c, 12, 70, 0
15, 212400, Note_on_c, 12, 70, 59
15, 212400, Note_on_c, 12, 67, 59
15, 212433, Note_on_c, 12, 70, 0
15, 212433, Note_on_c, 12, 67, 0
15, 212440, Note_on_c, 12, 70, 59
15, 212440, Note_on_c, 12, 67, 59
15, 212473, Note_on_c, 12, 70, 0
15, 212473, Note_on_c, 12, 67, 0
15, 212480, Note_on_c, 12, 67, 60
15, 212480, Note_on_c, 12, 70, 60
15, 212513, Note_on_c, 12, 67, 0
15, 212513, Note_on_c, 12, 70, 0
15, 212520, Note_on_c, 12, 70, 60
15, 212520, Note_on_c, 12, 67, 60
15, 212553, Note_on_c, 12, 70, 0
15, 212553, Note_on_c, 12, 67, 0
15, 212560, Note_on_c, 12, 67, 60
15, 212560, Note_on_c, 12, 70, 60
15, 212593, Note_on_c, 12, 67, 0
15, 212593, Note_on_c, 12, 70, 0
15, 212600, Note_on_c, 12, 70, 60
15, 212600, Note_on_c, 12, 67, 60
15, 212633, Note_on_c, 12, 70, 0
15, 212633, Note_on_c, 12, 67, 0
15, 212640, Note_on_c, 12, 67, 61
15, 212640, Note_on_c, 12, 70, 61
15, 212673, Note_on_c, 12, 67, 0
15, 212673, Note_on_c, 12, 70, 0
15, 212680, Note_on_c, 12, 70, 61
15, 212680, Note_on_c, 12, 67, 61
15, 212713, Note_on_c, 12, 70, 0
15, 212713, Note_on_c, 12, 67, 0
15, 212720, Note_on_c, 12, 67, 61
15, 212720, Note_on_c, 12, 70, 61
15, 212753, Note_on_c, 12, 67, 0
15, 212753, Note_on_c, 12, 70, 0
15, 212760, Note_on_c, 12, 70, 62
15, 212760, Note_on_c, 12, 67, 62
15, 212793, Note_on_c, 12, 70, 0
15, 212793, Note_on_c, 12, 67, 0
15, 212800, Note_on_c, 12, 70, 62
15, 212800, Note_on_c, 12, 67, 62
15, 212833, Note_on_c, 12, 70, 0
15, 212833, Note_on_c, 12, 67, 0
15, 212840, Note_on_c, 12, 70, 62
15, 212840, Note_on_c, 12, 67, 62
15, 212873, Note_on_c, 12, 70, 0
15, 212873, Note_on_c, 12, 67, 0
15, 212880, Note_on_c, 12, 67, 62
15, 212880, Note_on_c, 12, 70, 62
15, 212913, Note_on_c, 12, 67, 0
15, 212913, Note_on_c, 12, 70, 0
15, 212920, Note_on_c, 12, 67, 63
15, 212920, Note_on_c, 12, 70, 63
15, 212953, Note_on_c, 12, 67, 0
15, 212953, Note_on_c, 12, 70, 0
15, 212960, Note_on_c, 12, 70, 63
15, 212960, Note_on_c, 12, 67, 63
15, 212993, Note_on_c, 12, 70, 0
15, 212993, Note_on_c, 12, 67, 0
15, 213000, Note_on_c, 12, 67, 63
15, 213000, Note_on_c, 12, 70, 63
15, 213033, Note_on_c, 12, 67, 0
15, 213033, Note_on_c, 12, 70, 0
15, 213040, Note_on_c, 12, 67, 64
15, 213040, Note_on_c, 12, 70, 64
15, 213073, Note_on_c, 12, 67, 0
15, 213073, Note_on_c, 12, 70, 0
15, 213080, Note_on_c, 12, 70, 64
15, 213080, Note_on_c, 12, 67, 64
15, 213113, Note_on_c, 12, 70, 0
15, 213113, Note_on_c, 12, 67, 0
15, 213120, Note_on_c, 12, 67, 64
15, 213120, Note_on_c, 12, 70, 64
15, 213153, Note_on_c, 12, 67, 0
15, 213153, Note_on_c, 12, 70, 0
15, 213160, Note_on_c, 12, 70, 64
15, 213160, Note_on_c, 12, 67, 64
15, 213193, Note_on_c, 12, 70, 0
15, 213193, Note_on_c, 12, 67, 0
15, 213200, Note_on_c, 12, 67, 65
15, 213200, Note_on_c, 12, 70, 65
15, 213233, Note_on_c, 12, 67, 0
15, 213233, Note_on_c, 12, 70, 0
15, 213240, Note_on_c, 12, 67, 65
15, 213240, Note_on_c, 12, 70, 65
15, 213273, Note_on_c, 12, 67, 0
15, 213273, Note_on_c, 12, 70, 0
15, 213280, Note_on_c, 12, 70, 65
15, 213280, Note_on_c, 12, 67, 65
15, 213313, Note_on_c, 12, 70, 0
15, 213313, Note_on_c, 12, 67, 0
15, 213320, Note_on_c, 12, 70, 66
15, 213320, Note_on_c, 12, 67, 66
15, 213353, Note_on_c, 12, 70, 0
15, 213353, Note_on_c, 12, 67, 0
15, 213360, Note_on_c, 12, 67, 66
15, 213360, Note_on_c, 12, 70, 66
15, 213393, Note_on_c, 12, 67, 0
15, 213393, Note_on_c, 12, 70, 0
15, 213400, Note_on_c, 12, 67, 66
15, 213400, Note_on_c, 12, 70, 66
15, 213433, Note_on_c, 12, 67, 0
15, 213433, Note_on_c, 12, 70, 0
15, 213440, Note_on_c, 12, 67, 66
15, 213440, Note_on_c, 12, 70, 66
15, 213473, Note_on_c, 12, 67, 0
15, 213473, Note_on_c, 12, 70, 0
15, 213480, Note_on_c, 12, 70, 67
15, 213480, Note_on_c, 12, 67, 67
15, 213513, Note_on_c, 12, 70, 0
15, 213513, Note_on_c, 12, 67, 0
15, 213520, Note_on_c, 12, 67, 67
15, 213520, Note_on_c, 12, 70, 67
15, 213553, Note_on_c, 12, 67, 0
15, 213553, Note_on_c, 12, 70, 0
15, 213560, Note_on_c, 12, 67, 67
15, 213560, Note_on_c, 12, 70, 67
15, 213593, Note_on_c, 12, 67, 0
15, 213593, Note_on_c, 12, 70, 0
15, 213600, Note_on_c, 12, 67, 68
15, 213600, Note_on_c, 12, 70, 68
15, 213633, Note_on_c, 12, 67, 0
15, 213633, Note_on_c, 12, 70, 0
15, 213640, Note_on_c, 12, 67, 68
15, 213640, Note_on_c, 12, 70, 68
15, 213673, Note_on_c, 12, 67, 0
15, 213673, Note_on_c, 12, 70, 0
15, 213680, Note_on_c, 12, 70, 68
15, 213680, Note_on_c, 12, 67, 68
15, 213713, Note_on_c, 12, 70, 0
15, 213713, Note_on_c, 12, 67, 0
15, 213720, Note_on_c, 12, 67, 68
15, 213720, Note_on_c, 12, 70, 68
15, 213753, Note_on_c, 12, 67, 0
15, 213753, Note_on_c, 12, 70, 0
15, 213760, Note_on_c, 12, 67, 69
15, 213760, Note_on_c, 12, 70, 69
15, 213793, Note_on_c, 12, 67, 0
15, 213793, Note_on_c, 12, 70, 0
15, 213800, Note_on_c, 12, 70, 69
15, 213800, Note_on_c, 12, 67, 69
15, 213833, Note_on_c, 12, 70, 0
15, 213833, Note_on_c, 12, 67, 0
15, 213840, Note_on_c, 12, 67, 69
15, 213840, Note_on_c, 12, 70, 69
15, 213873, Note_on_c, 12, 67, 0
15, 213873, Note_on_c, 12, 70, 0
15, 213880, Note_on_c, 12, 67, 70
15, 213880, Note_on_c, 12, 70, 70
15, 213913, Note_on_c, 12, 67, 0
15, 213913, Note_on_c, 12, 70, 0
15, 213920, Note_on_c, 12, 70, 70
15, 213920, Note_on_c, 12, 67, 70
15, 213953, Note_on_c, 12, 70, 0
15, 213953, Note_on_c, 12, 67, 0
15, 213960, Note_on_c, 12, 70, 70
15, 213960, Note_on_c, 12, 67, 70
15, 213993, Note_on_c, 12, 70, 0
15, 213993, Note_on_c, 12, 67, 0
15, 214000, Note_on_c, 12, 70, 70
15, 214000, Note_on_c, 12, 67, 70
15, 214033, Note_on_c, 12, 70, 0
15, 214033, Note_on_c, 12, 67, 0
15, 214040, Note_on_c, 12, 67, 71
15, 214040, Note_on_c, 12, 70, 71
15, 214073, Note_on_c, 12, 67, 0
15, 214073, Note_on_c, 12, 70, 0
15, 214080, Note_on_c, 12, 70, 71
15, 214080, Note_on_c, 12, 67, 71
15, 214113, Note_on_c, 12, 70, 0
15, 214113, Note_on_c, 12, 67, 0
15, 214120, Note_on_c, 12, 70, 71
15, 214120, Note_on_c, 12, 67, 71
15, 214153, Note_on_c, 12, 70, 0
15, 214153, Note_on_c, 12, 67, 0
15, 214160, Note_on_c, 12, 67, 72
15, 214160, Note_on_c, 12, 70, 72
15, 214193, Note_on_c, 12, 67, 0
15, 214193, Note_on_c, 12, 70, 0
15, 214200, Note_on_c, 12, 67, 72
15, 214200, Note_on_c, 12, 70, 72
15, 214233, Note_on_c, 12, 67, 0
15, 214233, Note_on_c, 12, 70, 0
15, 214240, Note_on_c, 12, 67, 72
15, 214240, Note_on_c, 12, 70, 72
15, 214273, Note_on_c, 12, 67, 0
15, 214273, Note_on_c, 12, 70, 0
15, 214280, Note_on_c, 12, 67, 72
15, 214280, Note_on_c, 12, 70, 72
15, 214313, Note_on_c, 12, 67, 0
15, 214313, Note_on_c, 12, 70, 0
15, 214320, Note_on_c, 12, 70, 73
15, 214320, Note_on_c, 12, 67, 73
15, 214353, Note_on_c, 12, 70, 0
15, 214353, Note_on_c, 12, 67, 0
15, 214360, Note_on_c, 12, 70, 73
15, 214360, Note_on_c, 12, 67, 73
15, 214393, Note_on_c, 12, 70, 0
15, 214393, Note_on_c, 12, 67, 0
15, 214400, Note_on_c, 12, 70, 73
15, 214400, Note_on_c, 12, 67, 73
15, 214433, Note_on_c, 12, 70, 0
15, 214433, Note_on_c, 12, 67, 0
15, 214440, Note_on_c, 12, 67, 74
15, 214440, Note_on_c, 12, 70, 74
15, 214473, Note_on_c, 12, 67, 0
15, 214473, Note_on_c, 12, 70, 0
15, 214480, Note_on_c, 12, 67, 74
15, 214480, Note_on_c, 12, 70, 74
15, 214513, Note_on_c, 12, 67, 0
15, 214513, Note_on_c, 12, 70, 0
15, 214520, Note_on_c, 12, 67, 74
15, 214520, Note_on_c, 12, 70, 74
15, 214553, Note_on_c, 12, 67, 0
15, 214553, Note_on_c, 12, 70, 0
15, 214560, Note_on_c, 12, 67, 74
15, 214560, Note_on_c, 12, 70, 74
15, 214593, Note_on_c, 12, 67, 0
15, 214593, Note_on_c, 12, 70, 0
15, 214600, Note_on_c, 12, 67, 75
15, 214600, Note_on_c, 12, 70, 75
15, 214633, Note_on_c, 12, 67, 0
15, 214633, Note_on_c, 12, 70, 0
15, 214640, Note_on_c, 12, 70, 75
15, 214640, Note_on_c, 12, 67, 75
15, 214673, Note_on_c, 12, 70, 0
15, 214673, Note_on_c, 12, 67, 0
15, 214680, Note_on_c, 12, 67, 75
15, 214680, Note_on_c, 12, 70, 75
15, 214713, Note_on_c, 12, 67, 0
15, 214713, Note_on_c, 12, 70, 0
15, 214720, Note_on_c, 12, 67, 76
15, 214720, Note_on_c, 12, 70, 76
15, 214753, Note_on_c, 12, 67, 0
15, 214753, Note_on_c, 12, 70, 0
15, 214760, Note_on_c, 12, 67, 76
15, 214760, Note_on_c, 12, 70, 76
15, 214793, Note_on_c, 12, 67, 0
15, 214793, Note_on_c, 12, 70, 0
15, 214800, Note_on_c, 12, 70, 76
15, 214800, Note_on_c, 12, 67, 76
15, 214833, Note_on_c, 12, 70, 0
15, 214833, Note_on_c, 12, 67, 0
15, 214840, Note_on_c, 12, 67, 76
15, 214840, Note_on_c, 12, 70, 76
15, 214873, Note_on_c, 12, 67, 0
15, 214873, Note_on_c, 12, 70, 0
15, 214880, Note_on_c, 12, 70, 77
15, 214880, Note_on_c, 12, 67, 77
15, 214913, Note_on_c, 12, 70, 0
15, 214913, Note_on_c, 12, 67, 0
15, 214920, Note_on_c, 12, 70, 77
15, 214920, Note_on_c, 12, 67, 77
15, 214953, Note_on_c, 12, 70, 0
15, 214953, Note_on_c, 12, 67, 0
15, 214960, Note_on_c, 12, 67, 77
15, 214960, Note_on_c, 12, 70, 77
15, 214993, Note_on_c, 12, 67, 0
15, 214993, Note_on_c, 12, 70, 0
15, 215000, Note_on_c, 12, 70, 78
15, 215000, Note_on_c, 12, 67, 78
15, 215033, Note_on_c, 12, 70, 0
15, 215033, Note_on_c, 12, 67, 0
15, 215040, Note_on_c, 12, 67, 78
15, 215040, Note_on_c, 12, 70, 78
15, 215073, Note_on_c, 12, 67, 0
15, 215073, Note_on_c, 12, 70, 0
15, 215080, Note_on_c, 12, 67, 78
15, 215080, Note_on_c, 12, 70, 78
15, 215113, Note_on_c, 12, 67, 0
15, 215113, Note_on_c, 12, 70, 0
15, 215120, Note_on_c, 12, 70, 78
15, 215120, Note_on_c, 12, 67, 78
15, 215153, Note_on_c, 12, 70, 0
15, 215153, Note_on_c, 12, 67, 0
15, 215160, Note_on_c, 12, 70, 79
15, 215160, Note_on_c, 12, 67, 79
15, 215193, Note_on_c, 12, 70, 0
15, 215193, Note_on_c, 12, 67, 0
15, 215200, Note_on_c, 12, 67, 79
15, 215200, Note_on_c, 12, 70, 79
15, 215233, Note_on_c, 12, 67, 0
15, 215233, Note_on_c, 12, 70, 0
15, 215240, Note_on_c, 12, 67, 79
15, 215240, Note_on_c, 12, 70, 79
15, 215273, Note_on_c, 12, 67, 0
15, 215273, Note_on_c, 12, 70, 0
15, 215280, Note_on_c, 12, 70, 80
15, 215280, Note_on_c, 12, 67, 80
15, 215313, Note_on_c, 12, 70, 0
15, 215313, Note_on_c, 12, 67, 0
15, 215320, Note_on_c, 12, 67, 80
15, 215320, Note_on_c, 12, 70, 80
15, 215353, Note_on_c, 12, 67, 0
15, 215353, Note_on_c, 12, 70, 0
15, 215360, Note_on_c, 12, 67, 80
15, 215360, Note_on_c, 12, 70, 80
15, 215393, Note_on_c, 12, 67, 0
15, 215393, Note_on_c, 12, 70, 0
15, 215400, Note_on_c, 12, 67, 80
15, 215400, Note_on_c, 12, 70, 80
15, 215433, Note_on_c, 12, 67, 0
15, 215433, Note_on_c, 12, 70, 0
15, 215440, Note_on_c, 12, 67, 81
15, 215440, Note_on_c, 12, 70, 81
15, 215473, Note_on_c, 12, 67, 0
15, 215473, Note_on_c, 12, 70, 0
15, 215480, Note_on_c, 12, 70, 81
15, 215480, Note_on_c, 12, 67, 81
15, 215513, Note_on_c, 12, 70, 0
15, 215513, Note_on_c, 12, 67, 0
15, 215520, Note_on_c, 12, 67, 81
15, 215520, Note_on_c, 12, 70, 81
15, 215553, Note_on_c, 12, 67, 0
15, 215553, Note_on_c, 12, 70, 0
15, 215560, Note_on_c, 12, 70, 82
15, 215560, Note_on_c, 12, 67, 82
15, 215593, Note_on_c, 12, 70, 0
15, 215593, Note_on_c, 12, 67, 0
15, 215600, Note_on_c, 12, 67, 82
15, 215600, Note_on_c, 12, 70, 82
15, 215633, Note_on_c, 12, 67, 0
15, 215633, Note_on_c, 12, 70, 0
15, 215640, Note_on_c, 12, 67, 82
15, 215640, Note_on_c, 12, 70, 82
15, 215673, Note_on_c, 12, 67, 0
15, 215673, Note_on_c, 12, 70, 0
15, 215680, Note_on_c, 12, 67, 82
15, 215680, Note_on_c, 12, 70, 82
15, 215713, Note_on_c, 12, 67, 0
15, 215713, Note_on_c, 12, 70, 0
15, 215720, Note_on_c, 12, 67, 83
15, 215720, Note_on_c, 12, 70, 83
15, 215753, Note_on_c, 12, 67, 0
15, 215753, Note_on_c, 12, 70, 0
15, 215760, Note_on_c, 12, 67, 83
15, 215760, Note_on_c, 12, 70, 83
15, 215793, Note_on_c, 12, 67, 0
15, 215793, Note_on_c, 12, 70, 0
15, 215800, Note_on_c, 12, 70, 83
15, 215800, Note_on_c, 12, 67, 83
15, 215833, Note_on_c, 12, 70, 0
15, 215833, Note_on_c, 12, 67, 0
15, 215840, Note_on_c, 12, 70, 84
15, 215840, Note_on_c, 12, 67, 84
15, 215873, Note_on_c, 12, 70, 0
15, 215873, Note_on_c, 12, 67, 0
15, 215880, Note_on_c, 12, 67, 84
15, 215880, Note_on_c, 12, 70, 84
15, 215913, Note_on_c, 12, 67, 0
15, 215913, Note_on_c, 12, 70, 0
15, 215920, Note_on_c, 12, 67, 84
15, 215920, Note_on_c, 12, 70, 84
15, 215953, Note_on_c, 12, 67, 0
15, 215953, Note_on_c, 12, 70, 0
15, 215960, Note_on_c, 12, 67, 84
15, 215960, Note_on_c, 12, 70, 84
15, 215993, Note_on_c, 12, 67, 0
15, 215993, Note_on_c, 12, 70, 0
15, 216000, Note_on_c, 12, 67, 85
15, 216000, Note_on_c, 12, 70, 85
15, 216033, Note_on_c, 12, 67, 0
15, 216033, Note_on_c, 12, 70, 0
15, 216040, Note_on_c, 12, 67, 85
15, 216040, Note_on_c, 12, 70, 85
15, 216073, Note_on_c, 12, 67, 0
15, 216073, Note_on_c, 12, 70, 0
15, 216080, Note_on_c, 12, 70, 85
15, 216080, Note_on_c, 12, 67, 85
15, 216113, Note_on_c, 12, 70, 0
15, 216113, Note_on_c, 12, 67, 0
15, 216120, Note_on_c, 12, 70, 86
15, 216120, Note_on_c, 12, 67, 86
15, 216153, Note_on_c, 12, 70, 0
15, 216153, Note_on_c, 12, 67, 0
15, 216160, Note_on_c, 12, 67, 86
15, 216160, Note_on_c, 12, 70, 86
15, 216193, Note_on_c, 12, 67, 0
15, 216193, Note_on_c, 12, 70, 0
15, 216200, Note_on_c, 12, 70, 86
15, 216200, Note_on_c, 12, 67, 86
15, 216233, Note_on_c, 12, 70, 0
15, 216233, Note_on_c, 12, 67, 0
15, 216240, Note_on_c, 12, 67, 86
15, 216240, Note_on_c, 12, 70, 86
15, 216273, Note_on_c, 12, 67, 0
15, 216273, Note_on_c, 12, 70, 0
15, 216280, Note_on_c, 12, 70, 87
15, 216280, Note_on_c, 12, 67, 87
15, 216313, Note_on_c, 12, 70, 0
15, 216313, Note_on_c, 12, 67, 0
15, 216320, Note_on_c, 12, 67, 87
15, 216320, Note_on_c, 12, 70, 87
15, 216353, Note_on_c, 12, 67, 0
15, 216353, Note_on_c, 12, 70, 0
15, 216360, Note_on_c, 12, 67, 87
15, 216360, Note_on_c, 12, 70, 87
15, 216393, Note_on_c, 12, 67, 0
15, 216393, Note_on_c, 12, 70, 0
15, 216400, Note_on_c, 12, 70, 88
15, 216400, Note_on_c, 12, 67, 88
15, 216433, Note_on_c, 12, 70, 0
15, 216433, Note_on_c, 12, 67, 0
15, 216440, Note_on_c, 12, 67, 88
15, 216440, Note_on_c, 12, 70, 88
15, 216473, Note_on_c, 12, 67, 0
15, 216473, Note_on_c, 12, 70, 0
15, 216480, Note_on_c, 12, 70, 88
15, 216480, Note_on_c, 12, 67, 88
15, 216505, Note_on_c, 12, 70, 0
15, 216505, Note_on_c, 12, 67, 0
15, 216510, Note_on_c, 12, 64, 88
15, 216510, Note_on_c, 12, 73, 88
15, 216535, Note_on_c, 12, 64, 0
15, 216535, Note_on_c, 12, 73, 0
15, 216540, Note_on_c, 12, 73, 89
15, 216540, Note_on_c, 12, 64, 89
15, 216565, Note_on_c, 12, 73, 0
15, 216565, Note_on_c, 12, 64, 0
15, 216570, Note_on_c, 12, 64, 89
15, 216570, Note_on_c, 12, 73, 89
15, 216595, Note_on_c, 12, 64, 0
15, 216595, Note_on_c, 12, 73, 0
15, 216600, Note_on_c, 12, 73, 89
15, 216600, Note_on_c, 12, 64, 89
15, 216625, Note_on_c, 12, 73, 0
15, 216625, Note_on_c, 12, 64, 0
15, 216630, Note_on_c, 12, 73, 89
15, 216630, Note_on_c, 12, 64, 89
15, 216655, Note_on_c, 12, 73, 0
15, 216655, Note_on_c, 12, 64, 0
15, 216660, Note_on_c, 12, 64, 89
15, 216660, Note_on_c, 12, 73, 89
15, 216685, Note_on_c, 12, 64, 0
15, 216685, Note_on_c, 12, 73, 0
15, 216690, Note_on_c, 12, 73, 90
15, 216690, Note_on_c, 12, 64, 90
15, 216715, Note_on_c, 12, 73, 0
15, 216715, Note_on_c, 12, 64, 0
15, 216720, Note_on_c, 12, 73, 90
15, 216720, Note_on_c, 12, 64, 90
15, 216745, Note_on_c, 12, 73, 0
15, 216745, Note_on_c, 12, 64, 0
15, 216750, Note_on_c, 12, 73, 90
15, 216750, Note_on_c, 12, 76, 90
15, 216775, Note_on_c, 12, 73, 0
15, 216775, Note_on_c, 12, 76, 0
15, 216780, Note_on_c, 12, 76, 90
15, 216780, Note_on_c, 12, 73, 90
15, 216805, Note_on_c, 12, 76, 0
15, 216805, Note_on_c, 12, 73, 0
15, 216810, Note_on_c, 12, 76, 90
15, 216810, Note_on_c, 12, 73, 90
15, 216835, Note_on_c, 12, 76, 0
15, 216835, Note_on_c, 12, 73, 0
15, 216840, Note_on_c, 12, 76, 91
15, 216840, Note_on_c, 12, 73, 91
15, 216865, Note_on_c, 12, 76, 0
15, 216865, Note_on_c, 12, 73, 0
15, 216870, Note_on_c, 12, 73, 91
15, 216870, Note_on_c, 12, 76, 91
15, 216895, Note_on_c, 12, 73, 0
15, 216895, Note_on_c, 12, 76, 0
15, 216900, Note_on_c, 12, 73, 91
15, 216900, Note_on_c, 12, 76, 91
15, 216925, Note_on_c, 12, 73, 0
15, 216925, Note_on_c, 12, 76, 0
15, 216930, Note_on_c, 12, 73, 91
15, 216930, Note_on_c, 12, 76, 91
15, 216955, Note_on_c, 12, 73, 0
15, 216955, Note_on_c, 12, 76, 0
15, 216960, Note_on_c, 12, 69, 92
15, 216960, Note_on_c, 12, 81, 92
15, 217064, Note_on_c, 12, 69, 0
15, 217064, Note_on_c, 12, 81, 0
15, 217080, Note_on_c, 12, 59, 92
15, 217319, Note_on_c, 12, 59, 0
15, 217320, Note_on_c, 12, 61, 92
15, 217379, Note_on_c, 12, 61, 0
15, 217380, Note_on_c, 12, 62, 92
15, 217439, Note_on_c, 12, 62, 0
15, 217440, Note_on_c, 12, 64, 92
15, 217491, Note_on_c, 12, 64, 0
15, 217500, Note_on_c, 12, 65, 92
15, 217559, Note_on_c, 12, 65, 0
15, 217560, Note_on_c, 12, 67, 92
15, 217611, Note_on_c, 12, 67, 0
15, 217620, Note_on_c, 12, 69, 92
15, 217679, Note_on_c, 12, 69, 0
15, 217680, Note_on_c, 12, 70, 92
15, 217731, Note_on_c, 12, 70, 0
15, 217740, Note_on_c, 12, 73, 92
15, 217799, Note_on_c, 12, 73, 0
15, 217800, Note_on_c, 12, 74, 92
15, 217851, Note_on_c, 12, 74, 0
15, 217860, Note_on_c, 12, 76, 92
15, 217919, Note_on_c, 12, 76, 0
15, 217920, Note_on_c, 12, 77, 92
15, 217971, Note_on_c, 12, 77, 0
15, 217980, Note_on_c, 12, 79, 92
15, 218039, Note_on_c, 12, 79, 0
15, 218040, Note_on_c, 12, 81, 92
15, 218091, Note_on_c, 12, 81, 0
15, 218100, Note_on_c, 12, 82, 92
15, 218159, Note_on_c, 12, 82, 0
15, 218160, Note_on_c, 12, 84, 92
15, 218211, Note_on_c, 12, 84, 0
15, 218220, Note_on_c, 12, 86, 92
15, 218279, Note_on_c, 12, 86, 0
15, 218280, Note_on_c, 12, 88, 92
15, 218331, Note_on_c, 12, 88, 0
15, 218340, Note_on_c, 12, 89, 92
15, 218399, Note_on_c, 12, 89, 0
15, 218400, Note_on_c, 12, 76, 92
15, 218400, Note_on_c, 12, 74, 92
15, 218504, Note_on_c, 12, 76, 0
15, 218504, Note_on_c, 12, 74, 0
15, 218520, Note_on_c, 12, 76, 92
15, 218520, Note_on_c, 12, 74, 92
15, 218639, Note_on_c, 12, 76, 0
15, 218639, Note_on_c, 12, 74, 0
15, 218760, Note_on_c, 12, 76, 92
15, 218760, Note_on_c, 12, 73, 92
15, 218864, Note_on_c, 12, 76, 0
15, 218864, Note_on_c, 12, 73, 0
15, 219936, Control_c, 12, 11, 89
15, 219960, Note_on_c, 12, 65, 80
15, 219984, Control_c, 12, 11, 90
15, 220032, Control_c, 12, 11, 91
15, 220080, Control_c, 12, 11, 92
15, 220128, Control_c, 12, 11, 93
15, 220176, Control_c, 12, 11, 94
15, 220224, Control_c, 12, 11, 95
15, 220251, Note_on_c, 12, 65, 0
15, 220260, Note_on_c, 12, 67, 80
15, 220272, Control_c, 12, 11, 96
15, 220319, Note_on_c, 12, 67, 0
15, 220320, Note_on_c, 12, 69, 80
15, 220320, Control_c, 12, 11, 97
15, 220368, Control_c, 12, 11, 98
15, 220371, Note_on_c, 12, 69, 0
15, 220380, Note_on_c, 12, 70, 80
15, 220416, Control_c, 12, 11, 99
15, 220439, Note_on_c, 12, 70, 0
15, 220440, Note_on_c, 12, 72, 80
15, 220464, Control_c, 12, 11, 100
15, 220491, Note_on_c, 12, 72, 0
15, 220500, Note_on_c, 12, 74, 80
15, 220512, Control_c, 12, 11, 101
15, 220559, Note_on_c, 12, 74, 0
15, 220560, Control_c, 12, 11, 102
15, 220560, Note_on_c, 12, 75, 80
15, 220608, Control_c, 12, 11, 103
15, 220611, Note_on_c, 12, 75, 0
15, 220620, Note_on_c, 12, 77, 80
15, 220656, Control_c, 12, 11, 104
15, 220679, Note_on_c, 12, 77, 0
15, 220680, Note_on_c, 12, 79, 80
15, 220704, Control_c, 12, 11, 105
15, 220731, Note_on_c, 12, 79, 0
15, 220740, Note_on_c, 12, 81, 80
15, 220752, Control_c, 12, 11, 106
15, 220791, Note_on_c, 12, 81, 0
15, 220800, Control_c, 12, 11, 107
15, 220800, Note_on_c, 12, 74, 80
15, 220848, Control_c, 12, 11, 108
15, 220896, Control_c, 12, 11, 109
15, 220944, Control_c, 12, 11, 110
15, 220992, Control_c, 12, 11, 111
15, 221040, Control_c, 12, 11, 112
15, 221088, Control_c, 12, 11, 113
15, 221136, Control_c, 12, 11, 114
15, 221159, Note_on_c, 12, 74, 0
15, 221160, Note_on_c, 12, 73, 80
15, 221184, Control_c, 12, 11, 115
15, 221232, Control_c, 12, 11, 116
15, 221279, Note_on_c, 12, 73, 0
15, 221280, Control_c, 12, 11, 117
15, 221280, Note_on_c, 12, 72, 80
15, 221328, Control_c, 12, 11, 118
15, 221331, Note_on_c, 12, 72, 0
15, 221340, Note_on_c, 12, 70, 80
15, 221376, Control_c, 12, 11, 119
15, 221399, Note_on_c, 12, 70, 0
15, 221400, Note_on_c, 12, 69, 80
15, 221424, Control_c, 12, 11, 120
15, 221451, Note_on_c, 12, 69, 0
15, 221460, Note_on_c, 12, 67, 80
15, 221472, Control_c, 12, 11, 121
15, 221519, Note_on_c, 12, 67, 0
15, 221520, Control_c, 12, 11, 122
15, 221520, Note_on_c, 12, 66, 80
15, 221568, Control_c, 12, 11, 123
15, 221571, Note_on_c, 12, 66, 0
15, 221580, Note_on_c, 12, 63, 80
15, 221616, Control_c, 12, 11, 124
15, 221639, Note_on_c, 12, 63, 0
15, 221640, Note_on_c, 12, 62, 80
15, 221664, Control_c, 12, 11, 125
15, 221691, Note_on_c, 12, 62, 0
15, 221700, Note_on_c, 12, 60, 80
15, 221712, Control_c, 12, 11, 127
15, 221751, Note_on_c, 12, 60, 0
15, 221760, Note_on_c, 12, 58, 80
15, 221864, Note_on_c, 12, 58, 0
15, 221880, Note_on_c, 12, 58, 80
15, 221961, Note_on_c, 12, 58, 0
15, 221970, Note_on_c, 12, 58, 80
15, 221991, Note_on_c, 12, 58, 0
15, 222000, Note_on_c, 12, 58, 92
15, 222059, Note_on_c, 12, 58, 0
15, 222060, Note_on_c, 12, 58, 80
15, 222344, Note_on_c, 12, 58, 0
15, 222360, Note_on_c, 12, 58, 80
15, 222441, Note_on_c, 12, 58, 0
15, 222450, Note_on_c, 12, 58, 80
15, 222471, Note_on_c, 12, 58, 0
15, 222480, Note_on_c, 12, 63, 92
15, 222539, Note_on_c, 12, 63, 0
15, 222540, Note_on_c, 12, 63, 80
15, 222824, Note_on_c, 12, 63, 0
15, 222840, Note_on_c, 12, 61, 80
15, 222921, Note_on_c, 12, 61, 0
15, 222930, Note_on_c, 12, 61, 80
15, 222951, Note_on_c, 12, 61, 0
15, 222960, Note_on_c, 12, 61, 92
15, 223019, Note_on_c, 12, 61, 0
15, 223020, Note_on_c, 12, 61, 80
15, 223304, Note_on_c, 12, 61, 0
15, 223320, Note_on_c, 12, 65, 80
15, 223401, Note_on_c, 12, 65, 0
15, 223410, Note_on_c, 12, 65, 80
15, 223431, Note_on_c, 12, 65, 0
15, 223440, Note_on_c, 12, 65, 92
15, 223499, Note_on_c, 12, 65, 0
15, 223500, Note_on_c, 12, 65, 80
15, 223784, Note_on_c, 12, 65, 0
15, 223800, Note_on_c, 12, 62, 80
15, 223881, Note_on_c, 12, 62, 0
15, 223890, Note_on_c, 12, 62, 80
15, 223911, Note_on_c, 12, 62, 0
15, 223920, Note_on_c, 12, 62, 80
15, 224024, Note_on_c, 12, 62, 0
15, 224040, Note_on_c, 12, 67, 80
15, 224121, Note_on_c, 12, 67, 0
15, 224130, Note_on_c, 12, 67, 80
15, 224151, Note_on_c, 12, 67, 0
15, 224160, Note_on_c, 12, 67, 80
15, 224264, Note_on_c, 12, 67, 0
15, 224280, Note_on_c, 12, 64, 80
15, 224361, Note_on_c, 12, 64, 0
15, 224370, Note_on_c, 12, 64, 80
15, 224391, Note_on_c, 12, 64, 0
15, 224400, Note_on_c, 12, 64, 80
15, 224504, Note_on_c, 12, 64, 0
15, 224520, Note_on_c, 12, 57, 80
15, 224520, Note_on_c, 12, 69, 80
15, 224601, Note_on_c, 12, 57, 0
15, 224601, Note_on_c, 12, 69, 0
15, 224610, Note_on_c, 12, 69, 80
15, 224610, Note_on_c, 12, 57, 80
15, 224631, Note_on_c, 12, 69, 0
15, 224631, Note_on_c, 12, 57, 0
15, 224640, Note_on_c, 12, 69, 44
15, 225119, Note_on_c, 12, 69, 0
15, 225120, Note_on_c, 12, 69, 44
15, 225599, Note_on_c, 12, 69, 0
15, 225600, Note_on_c, 12, 69, 44
15, 226079, Note_on_c, 12, 69, 0
15, 226080, Note_on_c, 12, 69, 44
15, 226559, Note_on_c, 12, 69, 0
15, 226560, Note_on_c, 12, 69, 44
15, 227039, Note_on_c, 12, 69, 0
15, 227040, Note_on_c, 12, 69, 44
15, 227519, Note_on_c, 12, 69, 0
15, 227520, Note_on_c, 12, 69, 44
15, 227999, Note_on_c, 12, 69, 0
15, 228000, Note_on_c, 12, 69, 44
15, 228464, Note_on_c, 12, 69, 0
15, 228480, Note_on_c, 12, 62, 44
15, 228771, Note_on_c, 12, 62, 0
15, 228780, Note_on_c, 12, 65, 44
15, 228824, Note_on_c, 12, 65, 0
15, 228840, Note_on_c, 12, 64, 44
15, 228884, Note_on_c, 12, 64, 0
15, 228900, Note_on_c, 12, 62, 44
15, 228944, Note_on_c, 12, 62, 0
15, 228960, Note_on_c, 12, 69, 44
15, 229049, Note_on_c, 12, 69, 0
15, 229080, Note_on_c, 12, 67, 44
15, 229169, Note_on_c, 12, 67, 0
15, 229200, Note_on_c, 12, 64, 44
15, 229289, Note_on_c, 12, 64, 0
15, 229320, Note_on_c, 12, 69, 44
15, 229439, Note_on_c, 12, 69, 0
15, 229440, Note_on_c, 12, 69, 44
15, 229559, Note_on_c, 12, 69, 0
15, 229560, Note_on_c, 12, 65, 44
15, 229649, Note_on_c, 12, 65, 0
15, 229680, Note_on_c, 12, 62, 44
15, 229769, Note_on_c, 12, 62, 0
15, 229800, Note_on_c, 12, 69, 44
15, 229919, Note_on_c, 12, 69, 0
15, 229920, Note_on_c, 12, 69, 44
15, 230024, Note_on_c, 12, 69, 0
15, 230040, Note_on_c, 12, 64, 44
15, 230129, Note_on_c, 12, 64, 0
15, 230160, Note_on_c, 12, 61, 44
15, 230249, Note_on_c, 12, 61, 0
15, 230280, Note_on_c, 12, 69, 44
15, 230399, Note_on_c, 12, 69, 0
15, 230400, Note_on_c, 12, 69, 44
15, 230504, Note_on_c, 12, 69, 0
15, 230520, Note_on_c, 12, 65, 45
15, 230609, Note_on_c, 12, 65, 0
15, 230640, Note_on_c, 12, 62, 46
15, 230729, Note_on_c, 12, 62, 0
15, 230760, Note_on_c, 12, 69, 47
15, 230879, Note_on_c, 12, 69, 0
15, 230880, Note_on_c, 12, 69, 48
15, 230984, Note_on_c, 12, 69, 0
15, 231000, Note_on_c, 12, 67, 49
15, 231089, Note_on_c, 12, 67, 0
15, 231120, Note_on_c, 12, 64, 50
15, 231209, Note_on_c, 12, 64, 0
15, 231240, Note_on_c, 12, 69, 52
15, 231359, Note_on_c, 12, 69, 0
15, 231360, Note_on_c, 12, 69, 53
15, 231464, Note_on_c, 12, 69, 0
15, 231480, Note_on_c, 12, 65, 54
15, 231569, Note_on_c, 12, 65, 0
15, 231600, Note_on_c, 12, 62, 55
15, 231689, Note_on_c, 12, 62, 0
15, 231720, Note_on_c, 12, 69, 56
15, 231839, Note_on_c, 12, 69, 0
15, 231840, Note_on_c, 12, 69, 57
15, 231944, Note_on_c, 12, 69, 0
15, 231960, Note_on_c, 12, 65, 59
15, 232049, Note_on_c, 12, 65, 0
15, 232080, Note_on_c, 12, 62, 60
15, 232169, Note_on_c, 12, 62, 0
15, 232200, Note_on_c, 12, 70, 61
15, 232319, Note_on_c, 12, 70, 0
15, 232320, Note_on_c, 12, 70, 62
15, 232424, Note_on_c, 12, 70, 0
15, 232440, Note_on_c, 12, 67, 63
15, 232529, Note_on_c, 12, 67, 0
15, 232560, Note_on_c, 12, 64, 64
15, 232649, Note_on_c, 12, 64, 0
15, 232680, Note_on_c, 12, 73, 66
15, 232799, Note_on_c, 12, 73, 0
15, 232800, Note_on_c, 12, 73, 67
15, 232904, Note_on_c, 12, 73, 0
15, 232920, Note_on_c, 12, 69, 68
15, 233009, Note_on_c, 12, 69, 0
15, 233040, Note_on_c, 12, 65, 69
15, 233129, Note_on_c, 12, 65, 0
15, 233160, Note_on_c, 12, 74, 70
15, 233279, Note_on_c, 12, 74, 0
15, 233280, Note_on_c, 12, 74, 71
15, 233384, Note_on_c, 12, 74, 0
15, 233400, Note_on_c, 12, 70, 73
15, 233489, Note_on_c, 12, 70, 0
15, 233520, Note_on_c, 12, 67, 74
15, 233609, Note_on_c, 12, 67, 0
15, 233640, Note_on_c, 12, 75, 75
15, 233759, Note_on_c, 12, 75, 0
15, 233760, Note_on_c, 12, 75, 76
15, 233864, Note_on_c, 12, 75, 0
15, 233880, Note_on_c, 12, 72, 77
15, 233969, Note_on_c, 12, 72, 0
15, 234000, Note_on_c, 12, 69, 78
15, 234089, Note_on_c, 12, 69, 0
15, 234120, Note_on_c, 12, 78, 80
15, 234239, Note_on_c, 12, 78, 0
15, 234240, Note_on_c, 12, 78, 80
15, 234344, Note_on_c, 12, 78, 0
15, 234360, Note_on_c, 12, 74, 80
15, 234449, Note_on_c, 12, 74, 0
15, 234480, Note_on_c, 12, 70, 80
15, 234569, Note_on_c, 12, 70, 0
15, 234600, Note_on_c, 12, 80, 92
15, 234719, Note_on_c, 12, 80, 0
15, 234720, Note_on_c, 12, 80, 92
15, 234824, Note_on_c, 12, 80, 0
15, 234840, Note_on_c, 12, 74, 92
15, 234929, Note_on_c, 12, 74, 0
15, 234960, Note_on_c, 12, 70, 92
15, 235049, Note_on_c, 12, 70, 0
15, 235080, Note_on_c, 12, 68, 92
15, 235199, Note_on_c, 12, 68, 0
15, 235200, Note_on_c, 12, 68, 83
15, 235304, Note_on_c, 12, 68, 0
15, 235320, Note_on_c, 12, 62, 73
15, 235409, Note_on_c, 12, 62, 0
15, 235440, Note_on_c, 12, 58, 64
15, 235529, Note_on_c, 12, 58, 0
15, 235560, Note_on_c, 12, 67, 54
15, 235679, Note_on_c, 12, 67, 0
15, 235680, Note_on_c, 12, 67, 44
15, 235784, Note_on_c, 12, 67, 0
15, 235800, Note_on_c, 12, 63, 38
15, 235889, Note_on_c, 12, 63, 0
15, 235920, Note_on_c, 12, 58, 38
15, 236009, Note_on_c, 12, 58, 0
15, 236040, Note_on_c, 12, 67, 38
15, 236159, Note_on_c, 12, 67, 0
15, 236160, Note_on_c, 12, 67, 32
15, 236264, Note_on_c, 12, 67, 0
15, 236280, Note_on_c, 12, 62, 32
15, 236369, Note_on_c, 12, 62, 0
15, 236400, Note_on_c, 12, 58, 32
15, 236489, Note_on_c, 12, 58, 0
15, 236520, Note_on_c, 12, 67, 32
15, 236639, Note_on_c, 12, 67, 0
15, 236640, Note_on_c, 12, 67, 32
15, 236744, Note_on_c, 12, 67, 0
15, 236760, Note_on_c, 12, 62, 32
15, 236849, Note_on_c, 12, 62, 0
15, 236880, Note_on_c, 12, 57, 32
15, 236969, Note_on_c, 12, 57, 0
15, 237000, Note_on_c, 12, 69, 32
15, 237025, Note_on_c, 12, 69, 0
15, 237030, Note_on_c, 12, 69, 33
15, 237055, Note_on_c, 12, 69, 0
15, 237060, Note_on_c, 12, 69, 34
15, 237085, Note_on_c, 12, 69, 0
15, 237090, Note_on_c, 12, 69, 36
15, 237115, Note_on_c, 12, 69, 0
15, 237120, Note_on_c, 12, 69, 37
15, 237145, Note_on_c, 12, 69, 0
15, 237150, Note_on_c, 12, 69, 38
15, 237175, Note_on_c, 12, 69, 0
15, 237180, Note_on_c, 12, 69, 40
15, 237205, Note_on_c, 12, 69, 0
15, 237210, Note_on_c, 12, 69, 41
15, 237235, Note_on_c, 12, 69, 0
15, 237240, Note_on_c, 12, 71, 42
15, 237265, Note_on_c, 12, 71, 0
15, 237270, Note_on_c, 12, 71, 44
15, 237295, Note_on_c, 12, 71, 0
15, 237300, Note_on_c, 12, 71, 45
15, 237325, Note_on_c, 12, 71, 0
15, 237330, Note_on_c, 12, 71, 46
15, 237355, Note_on_c, 12, 71, 0
15, 237360, Note_on_c, 12, 73, 48
15, 237385, Note_on_c, 12, 73, 0
15, 237390, Note_on_c, 12, 73, 49
15, 237415, Note_on_c, 12, 73, 0
15, 237420, Note_on_c, 12, 73, 50
15, 237445, Note_on_c, 12, 73, 0
15, 237450, Note_on_c, 12, 73, 52
15, 237475, Note_on_c, 12, 73, 0
15, 237480, Note_on_c, 12, 74, 53
15, 237505, Note_on_c, 12, 74, 0
15, 237510, Note_on_c, 12, 74, 54
15, 237535, Note_on_c, 12, 74, 0
15, 237540, Note_on_c, 12, 74, 56
15, 237565, Note_on_c, 12, 74, 0
15, 237570, Note_on_c, 12, 74, 57
15, 237595, Note_on_c, 12, 74, 0
15, 237600, Note_on_c, 12, 76, 58
15, 237625, Note_on_c, 12, 76, 0
15, 237630, Note_on_c, 12, 76, 60
15, 237655, Note_on_c, 12, 76, 0
15, 237660, Note_on_c, 12, 76, 61
15, 237685, Note_on_c, 12, 76, 0
15, 237690, Note_on_c, 12, 76, 62
15, 237715, Note_on_c, 12, 76, 0
15, 237720, Note_on_c, 12, 77, 64
15, 237745, Note_on_c, 12, 77, 0
15, 237750, Note_on_c, 12, 77, 65
15, 237775, Note_on_c, 12, 77, 0
15, 237780, Note_on_c, 12, 77, 66
15, 237805, Note_on_c, 12, 77, 0
15, 237810, Note_on_c, 12, 77, 68
15, 237835, Note_on_c, 12, 77, 0
15, 237840, Note_on_c, 12, 79, 69
15, 237865, Note_on_c, 12, 79, 0
15, 237870, Note_on_c, 12, 79, 70
15, 237895, Note_on_c, 12, 79, 0
15, 237900, Note_on_c, 12, 79, 72
15, 237925, Note_on_c, 12, 79, 0
15, 237930, Note_on_c, 12, 79, 73
15, 237955, Note_on_c, 12, 79, 0
15, 237960, Note_on_c, 12, 81, 74
15, 237985, Note_on_c, 12, 81, 0
15, 237990, Note_on_c, 12, 81, 76
15, 238015, Note_on_c, 12, 81, 0
15, 238020, Note_on_c, 12, 81, 77
15, 238045, Note_on_c, 12, 81, 0
15, 238050, Note_on_c, 12, 81, 78
15, 238075, Note_on_c, 12, 81, 0
15, 238080, Note_on_c, 12, 69, 80
15, 238080, Note_on_c, 12, 81, 80
15, 238199, Note_on_c, 12, 69, 0
15, 238199, Note_on_c, 12, 81, 0
15, 238680, Note_on_c, 12, 76, 80
15, 238680, Note_on_c, 12, 74, 80
15, 238799, Note_on_c, 12, 76, 0
15, 238799, Note_on_c, 12, 74, 0
15, 238920, Note_on_c, 12, 73, 80
15, 238920, Note_on_c, 12, 76, 80
15, 239039, Note_on_c, 12, 73, 0
15, 239039, Note_on_c, 12, 76, 0
15, 240000, Note_on_c, 12, 69, 62
15, 240051, Note_on_c, 12, 69, 0
15, 240060, Note_on_c, 12, 67, 63
15, 240119, Note_on_c, 12, 67, 0
15, 240120, Note_on_c, 12, 65, 64
15, 240171, Note_on_c, 12, 65, 0
15, 240180, Note_on_c, 12, 64, 65
15, 240239, Note_on_c, 12, 64, 0
15, 240240, Note_on_c, 12, 62, 66
15, 240291, Note_on_c, 12, 62, 0
15, 240300, Note_on_c, 12, 74, 67
15, 240359, Note_on_c, 12, 74, 0
15, 240360, Note_on_c, 12, 76, 68
15, 240411, Note_on_c, 12, 76, 0
15, 240420, Note_on_c, 12, 77, 69
15, 240479, Note_on_c, 12, 77, 0
15, 240480, Note_on_c, 12, 79, 71
15, 240531, Note_on_c, 12, 79, 0
15, 240540, Note_on_c, 12, 77, 72
15, 240599, Note_on_c, 12, 77, 0
15, 240600, Note_on_c, 12, 76, 73
15, 240651, Note_on_c, 12, 76, 0
15, 240660, Note_on_c, 12, 74, 74
15, 240719, Note_on_c, 12, 74, 0
15, 240720, Note_on_c, 12, 73, 75
15, 240771, Note_on_c, 12, 73, 0
15, 240780, Note_on_c, 12, 70, 76
15, 240839, Note_on_c, 12, 70, 0
15, 240840, Note_on_c, 12, 69, 77
15, 240891, Note_on_c, 12, 69, 0
15, 240900, Note_on_c, 12, 67, 78
15, 240959, Note_on_c, 12, 67, 0
15, 240960, Note_on_c, 12, 65, 80
15, 241011, Note_on_c, 12, 65, 0
15, 241020, Note_on_c, 12, 64, 80
15, 241079, Note_on_c, 12, 64, 0
15, 241080, Note_on_c, 12, 62, 80
15, 241131, Note_on_c, 12, 62, 0
15, 241140, Note_on_c, 12, 60, 80
15, 241199, Note_on_c, 12, 60, 0
15, 241200, Note_on_c, 12, 58, 80
15, 241251, Note_on_c, 12, 58, 0
15, 241260, Note_on_c, 12, 57, 80
15, 241319, Note_on_c, 12, 57, 0
15, 241320, Note_on_c, 12, 55, 80
15, 241371, Note_on_c, 12, 55, 0
15, 241380, Note_on_c, 12, 65, 80
15, 241439, Note_on_c, 12, 65, 0
15, 241440, Note_on_c, 12, 64, 80
15, 241544, Note_on_c, 12, 64, 0
15, 241560, Note_on_c, 12, 76, 80
15, 241560, Note_on_c, 12, 79, 80
15, 241649, Note_on_c, 12, 76, 0
15, 241649, Note_on_c, 12, 79, 0
15, 241800, Note_on_c, 12, 76, 80
15, 241800, Note_on_c, 12, 73, 80
15, 241889, Note_on_c, 12, 76, 0
15, 241889, Note_on_c, 12, 73, 0
15, 241920, Note_on_c, 12, 76, 44
15, 241920, Note_on_c, 12, 73, 44
15, 242039, Note_on_c, 12, 76, 0
15, 242039, Note_on_c, 12, 73, 0
15, 244620, Note_on_c, 12, 55, 44
15, 244671, Note_on_c, 12, 55, 0
15, 244680, Note_on_c, 12, 57, 44
15, 244731, Note_on_c, 12, 57, 0
15, 244740, Note_on_c, 12, 58, 44
15, 244784, Note_on_c, 12, 58, 0
15, 244800, Note_on_c, 12, 59, 44
15, 244979, Note_on_c, 12, 59, 0
15, 245040, Note_on_c, 12, 55, 44
15, 245040, Note_on_c, 12, 62, 44
15, 245219, Note_on_c, 12, 55, 0
15, 245219, Note_on_c, 12, 62, 0
15, 245280, Note_on_c, 12, 58, 44
15, 245459, Note_on_c, 12, 58, 0
15, 245520, Note_on_c, 12, 55, 44
15, 245699, Note_on_c, 12, 55, 0
15, 247680, Note_on_c, 12, 62, 32
15, 247705, Note_on_c, 12, 62, 0
15, 247710, Note_on_c, 12, 62, 32
15, 247735, Note_on_c, 12, 62, 0
15, 247740, Note_on_c, 12, 62, 32
15, 247765, Note_on_c, 12, 62, 0
15, 247770, Note_on_c, 12, 62, 32
15, 247795, Note_on_c, 12, 62, 0
15, 247800, Note_on_c, 12, 61, 32
15, 247825, Note_on_c, 12, 61, 0
15, 247830, Note_on_c, 12, 61, 32
15, 247855, Note_on_c, 12, 61, 0
15, 247860, Note_on_c, 12, 61, 32
15, 247885, Note_on_c, 12, 61, 0
15, 247890, Note_on_c, 12, 61, 32
15, 247915, Note_on_c, 12, 61, 0
15, 247920, Note_on_c, 12, 60, 32
15, 247945, Note_on_c, 12, 60, 0
15, 247950, Note_on_c, 12, 60, 32
15, 247975, Note_on_c, 12, 60, 0
15, 247980, Note_on_c, 12, 60, 32
15, 248005, Note_on_c, 12, 60, 0
15, 248010, Note_on_c, 12, 60, 32
15, 248035, Note_on_c, 12, 60, 0
15, 248040, Note_on_c, 12, 59, 32
15, 248065, Note_on_c, 12, 59, 0
15, 248070, Note_on_c, 12, 59, 32
15, 248095, Note_on_c, 12, 59, 0
15, 248100, Note_on_c, 12, 59, 32
15, 248125, Note_on_c, 12, 59, 0
15, 248130, Note_on_c, 12, 59, 32
15, 248155, Note_on_c, 12, 59, 0
15, 248160, Note_on_c, 12, 58, 32
15, 248185, Note_on_c, 12, 58, 0
15, 248190, Note_on_c, 12, 58, 32
15, 248215, Note_on_c, 12, 58, 0
15, 248220, Note_on_c, 12, 58, 32
15, 248245, Note_on_c, 12, 58, 0
15, 248250, Note_on_c, 12, 58, 32
15, 248275, Note_on_c, 12, 58, 0
15, 248280, Note_on_c, 12, 57, 32
15, 248305, Note_on_c, 12, 57, 0
15, 248310, Note_on_c, 12, 57, 32
15, 248335, Note_on_c, 12, 57, 0
15, 248340, Note_on_c, 12, 57, 32
15, 248365, Note_on_c, 12, 57, 0
15, 248370, Note_on_c, 12, 57, 32
15, 248395, Note_on_c, 12, 57, 0
15, 248400, Note_on_c, 12, 59, 32
15, 248425, Note_on_c, 12, 59, 0
15, 248430, Note_on_c, 12, 59, 32
15, 248455, Note_on_c, 12, 59, 0
15, 248460, Note_on_c, 12, 59, 32
15, 248485, Note_on_c, 12, 59, 0
15, 248490, Note_on_c, 12, 59, 32
15, 248515, Note_on_c, 12, 59, 0
15, 248520, Note_on_c, 12, 61, 32
15, 248545, Note_on_c, 12, 61, 0
15, 248550, Note_on_c, 12, 61, 32
15, 248575, Note_on_c, 12, 61, 0
15, 248580, Note_on_c, 12, 61, 32
15, 248605, Note_on_c, 12, 61, 0
15, 248610, Note_on_c, 12, 61, 32
15, 248635, Note_on_c, 12, 61, 0
15, 248640, Note_on_c, 12, 62, 32
15, 248665, Note_on_c, 12, 62, 0
15, 248670, Note_on_c, 12, 62, 32
15, 248695, Note_on_c, 12, 62, 0
15, 248700, Note_on_c, 12, 62, 32
15, 248725, Note_on_c, 12, 62, 0
15, 248730, Note_on_c, 12, 62, 32
15, 248755, Note_on_c, 12, 62, 0
15, 248760, Note_on_c, 12, 61, 32
15, 248785, Note_on_c, 12, 61, 0
15, 248790, Note_on_c, 12, 61, 32
15, 248815, Note_on_c, 12, 61, 0
15, 248820, Note_on_c, 12, 61, 32
15, 248845, Note_on_c, 12, 61, 0
15, 248850, Note_on_c, 12, 61, 32
15, 248875, Note_on_c, 12, 61, 0
15, 248880, Note_on_c, 12, 60, 32
15, 248905, Note_on_c, 12, 60, 0
15, 248910, Note_on_c, 12, 60, 32
15, 248935, Note_on_c, 12, 60, 0
15, 248940, Note_on_c, 12, 60, 32
15, 248965, Note_on_c, 12, 60, 0
15, 248970, Note_on_c, 12, 60, 32
15, 248995, Note_on_c, 12, 60, 0
15, 249000, Note_on_c, 12, 59, 32
15, 249025, Note_on_c, 12, 59, 0
15, 249030, Note_on_c, 12, 59, 32
15, 249055, Note_on_c, 12, 59, 0
15, 249060, Note_on_c, 12, 59, 32
15, 249085, Note_on_c, 12, 59, 0
15, 249090, Note_on_c, 12, 59, 32
15, 249115, Note_on_c, 12, 59, 0
15, 249120, Note_on_c, 12, 58, 32
15, 249145, Note_on_c, 12, 58, 0
15, 249150, Note_on_c, 12, 58, 32
15, 249175, Note_on_c, 12, 58, 0
15, 249180, Note_on_c, 12, 58, 32
15, 249205, Note_on_c, 12, 58, 0
15, 249210, Note_on_c, 12, 58, 32
15, 249235, Note_on_c, 12, 58, 0
15, 249240, Note_on_c, 12, 57, 32
15, 249265, Note_on_c, 12, 57, 0
15, 249270, Note_on_c, 12, 57, 32
15, 249295, Note_on_c, 12, 57, 0
15, 249300, Note_on_c, 12, 57, 32
15, 249325, Note_on_c, 12, 57, 0
15, 249330, Note_on_c, 12, 57, 32
15, 249355, Note_on_c, 12, 57, 0
15, 249360, Note_on_c, 12, 59, 32
15, 249385, Note_on_c, 12, 59, 0
15, 249390, Note_on_c, 12, 59, 32
15, 249415, Note_on_c, 12, 59, 0
15, 249420, Note_on_c, 12, 59, 32
15, 249445, Note_on_c, 12, 59, 0
15, 249450, Note_on_c, 12, 59, 32
15, 249475, Note_on_c, 12, 59, 0
15, 249480, Note_on_c, 12, 61, 32
15, 249505, Note_on_c, 12, 61, 0
15, 249510, Note_on_c, 12, 61, 32
15, 249535, Note_on_c, 12, 61, 0
15, 249540, Note_on_c, 12, 61, 32
15, 249565, Note_on_c, 12, 61, 0
15, 249570, Note_on_c, 12, 61, 32
15, 249595, Note_on_c, 12, 61, 0
15, 249600, Note_on_c, 12, 62, 32
15, 249625, Note_on_c, 12, 62, 0
15, 249630, Note_on_c, 12, 62, 32
15, 249655, Note_on_c, 12, 62, 0
15, 249660, Note_on_c, 12, 62, 33
15, 249685, Note_on_c, 12, 62, 0
15, 249690, Note_on_c, 12, 62, 33
15, 249715, Note_on_c, 12, 62, 0
15, 249720, Note_on_c, 12, 61, 34
15, 249745, Note_on_c, 12, 61, 0
15, 249750, Note_on_c, 12, 61, 34
15, 249775, Note_on_c, 12, 61, 0
15, 249780, Note_on_c, 12, 61, 35
15, 249805, Note_on_c, 12, 61, 0
15, 249810, Note_on_c, 12, 61, 35
15, 249835, Note_on_c, 12, 61, 0
15, 249840, Note_on_c, 12, 60, 36
15, 249865, Note_on_c, 12, 60, 0
15, 249870, Note_on_c, 12, 60, 36
15, 249895, Note_on_c, 12, 60, 0
15, 249900, Note_on_c, 12, 60, 37
15, 249925, Note_on_c, 12, 60, 0
15, 249930, Note_on_c, 12, 60, 37
15, 249955, Note_on_c, 12, 60, 0
15, 249960, Note_on_c, 12, 59, 38
15, 249985, Note_on_c, 12, 59, 0
15, 249990, Note_on_c, 12, 59, 38
15, 250015, Note_on_c, 12, 59, 0
15, 250020, Note_on_c, 12, 59, 39
15, 250045, Note_on_c, 12, 59, 0
15, 250050, Note_on_c, 12, 59, 39
15, 250075, Note_on_c, 12, 59, 0
15, 250080, Note_on_c, 12, 58, 40
15, 250105, Note_on_c, 12, 58, 0
15, 250110, Note_on_c, 12, 58, 40
15, 250135, Note_on_c, 12, 58, 0
15, 250140, Note_on_c, 12, 58, 41
15, 250165, Note_on_c, 12, 58, 0
15, 250170, Note_on_c, 12, 58, 41
15, 250195, Note_on_c, 12, 58, 0
15, 250200, Note_on_c, 12, 57, 42
15, 250225, Note_on_c, 12, 57, 0
15, 250230, Note_on_c, 12, 57, 42
15, 250255, Note_on_c, 12, 57, 0
15, 250260, Note_on_c, 12, 57, 43
15, 250285, Note_on_c, 12, 57, 0
15, 250290, Note_on_c, 12, 57, 43
15, 250315, Note_on_c, 12, 57, 0
15, 250320, Note_on_c, 12, 59, 44
15, 250345, Note_on_c, 12, 59, 0
15, 250350, Note_on_c, 12, 59, 44
15, 250375, Note_on_c, 12, 59, 0
15, 250380, Note_on_c, 12, 59, 45
15, 250405, Note_on_c, 12, 59, 0
15, 250410, Note_on_c, 12, 59, 45
15, 250435, Note_on_c, 12, 59, 0
15, 250440, Note_on_c, 12, 61, 46
15, 250465, Note_on_c, 12, 61, 0
15, 250470, Note_on_c, 12, 61, 46
15, 250495, Note_on_c, 12, 61, 0
15, 250500, Note_on_c, 12, 61, 47
15, 250525, Note_on_c, 12, 61, 0
15, 250530, Note_on_c, 12, 61, 47
15, 250555, Note_on_c, 12, 61, 0
15, 250560, Note_on_c, 12, 62, 48
15, 250585, Note_on_c, 12, 62, 0
15, 250590, Note_on_c, 12, 62, 48
15, 250615, Note_on_c, 12, 62, 0
15, 250620, Note_on_c, 12, 62, 49
15, 250645, Note_on_c, 12, 62, 0
15, 250650, Note_on_c, 12, 62, 49
15, 250675, Note_on_c, 12, 62, 0
15, 250680, Note_on_c, 12, 61, 50
15, 250705, Note_on_c, 12, 61, 0
15, 250710, Note_on_c, 12, 61, 50
15, 250735, Note_on_c, 12, 61, 0
15, 250740, Note_on_c, 12, 61, 51
15, 250765, Note_on_c, 12, 61, 0
15, 250770, Note_on_c, 12, 61, 51
15, 250795, Note_on_c, 12, 61, 0
15, 250800, Note_on_c, 12, 60, 52
15, 250825, Note_on_c, 12, 60, 0
15, 250830, Note_on_c, 12, 60, 52
15, 250855, Note_on_c, 12, 60, 0
15, 250860, Note_on_c, 12, 60, 53
15, 250885, Note_on_c, 12, 60, 0
15, 250890, Note_on_c, 12, 60, 53
15, 250915, Note_on_c, 12, 60, 0
15, 250920, Note_on_c, 12, 59, 54
15, 250945, Note_on_c, 12, 59, 0
15, 250950, Note_on_c, 12, 59, 54
15, 250975, Note_on_c, 12, 59, 0
15, 250980, Note_on_c, 12, 59, 55
15, 251005, Note_on_c, 12, 59, 0
15, 251010, Note_on_c, 12, 59, 55
15, 251035, Note_on_c, 12, 59, 0
15, 251040, Note_on_c, 12, 58, 56
15, 251065, Note_on_c, 12, 58, 0
15, 251070, Note_on_c, 12, 58, 56
15, 251095, Note_on_c, 12, 58, 0
15, 251100, Note_on_c, 12, 58, 57
15, 251125, Note_on_c, 12, 58, 0
15, 251130, Note_on_c, 12, 58, 57
15, 251155, Note_on_c, 12, 58, 0
15, 251160, Note_on_c, 12, 57, 58
15, 251185, Note_on_c, 12, 57, 0
15, 251190, Note_on_c, 12, 57, 58
15, 251215, Note_on_c, 12, 57, 0
15, 251220, Note_on_c, 12, 57, 59
15, 251245, Note_on_c, 12, 57, 0
15, 251250, Note_on_c, 12, 57, 59
15, 251275, Note_on_c, 12, 57, 0
15, 251280, Note_on_c, 12, 59, 60
15, 251305, Note_on_c, 12, 59, 0
15, 251310, Note_on_c, 12, 59, 60
15, 251335, Note_on_c, 12, 59, 0
15, 251340, Note_on_c, 12, 59, 61
15, 251365, Note_on_c, 12, 59, 0
15, 251370, Note_on_c, 12, 59, 61
15, 251395, Note_on_c, 12, 59, 0
15, 251400, Note_on_c, 12, 61, 62
15, 251425, Note_on_c, 12, 61, 0
15, 251430, Note_on_c, 12, 61, 62
15, 251455, Note_on_c, 12, 61, 0
15, 251460, Note_on_c, 12, 61, 63
15, 251485, Note_on_c, 12, 61, 0
15, 251490, Note_on_c, 12, 61, 63
15, 251515, Note_on_c, 12, 61, 0
15, 251520, Note_on_c, 12, 62, 64
15, 251545, Note_on_c, 12, 62, 0
15, 251550, Note_on_c, 12, 74, 64
15, 251575, Note_on_c, 12, 74, 0
15, 251580, Note_on_c, 12, 74, 65
15, 251605, Note_on_c, 12, 74, 0
15, 251610, Note_on_c, 12, 74, 65
15, 251635, Note_on_c, 12, 74, 0
15, 251640, Note_on_c, 12, 73, 66
15, 251665, Note_on_c, 12, 73, 0
15, 251670, Note_on_c, 12, 73, 66
15, 251695, Note_on_c, 12, 73, 0
15, 251700, Note_on_c, 12, 73, 67
15, 251725, Note_on_c, 12, 73, 0
15, 251730, Note_on_c, 12, 73, 67
15, 251755, Note_on_c, 12, 73, 0
15, 251760, Note_on_c, 12, 72, 68
15, 251785, Note_on_c, 12, 72, 0
15, 251790, Note_on_c, 12, 72, 68
15, 251815, Note_on_c, 12, 72, 0
15, 251820, Note_on_c, 12, 72, 69
15, 251845, Note_on_c, 12, 72, 0
15, 251850, Note_on_c, 12, 72, 69
15, 251875, Note_on_c, 12, 72, 0
15, 251880, Note_on_c, 12, 71, 70
15, 251905, Note_on_c, 12, 71, 0
15, 251910, Note_on_c, 12, 71, 70
15, 251935, Note_on_c, 12, 71, 0
15, 251940, Note_on_c, 12, 71, 71
15, 251965, Note_on_c, 12, 71, 0
15, 251970, Note_on_c, 12, 71, 71
15, 251995, Note_on_c, 12, 71, 0
15, 252000, Note_on_c, 12, 70, 72
15, 252025, Note_on_c, 12, 70, 0
15, 252030, Note_on_c, 12, 70, 72
15, 252055, Note_on_c, 12, 70, 0
15, 252060, Note_on_c, 12, 70, 73
15, 252085, Note_on_c, 12, 70, 0
15, 252090, Note_on_c, 12, 70, 73
15, 252115, Note_on_c, 12, 70, 0
15, 252120, Note_on_c, 12, 69, 74
15, 252145, Note_on_c, 12, 69, 0
15, 252150, Note_on_c, 12, 69, 74
15, 252175, Note_on_c, 12, 69, 0
15, 252180, Note_on_c, 12, 69, 75
15, 252205, Note_on_c, 12, 69, 0
15, 252210, Note_on_c, 12, 69, 75
15, 252235, Note_on_c, 12, 69, 0
15, 252240, Note_on_c, 12, 71, 76
15, 252265, Note_on_c, 12, 71, 0
15, 252270, Note_on_c, 12, 71, 76
15, 252295, Note_on_c, 12, 71, 0
15, 252300, Note_on_c, 12, 71, 77
15, 252325, Note_on_c, 12, 71, 0
15, 252330, Note_on_c, 12, 71, 77
15, 252355, Note_on_c, 12, 71, 0
15, 252360, Note_on_c, 12, 73, 78
15, 252385, Note_on_c, 12, 73, 0
15, 252390, Note_on_c, 12, 73, 78
15, 252415, Note_on_c, 12, 73, 0
15, 252420, Note_on_c, 12, 73, 79
15, 252445, Note_on_c, 12, 73, 0
15, 252450, Note_on_c, 12, 73, 79
15, 252475, Note_on_c, 12, 73, 0
15, 252480, Note_on_c, 12, 74, 80
15, 252505, Note_on_c, 12, 74, 0
15, 252510, Note_on_c, 12, 74, 80
15, 252535, Note_on_c, 12, 74, 0
15, 252540, Note_on_c, 12, 74, 80
15, 252565, Note_on_c, 12, 74, 0
15, 252570, Note_on_c, 12, 74, 80
15, 252595, Note_on_c, 12, 74, 0
15, 252600, Note_on_c, 12, 69, 80
15, 252625, Note_on_c, 12, 69, 0
15, 252630, Note_on_c, 12, 69, 80
15, 252655, Note_on_c, 12, 69, 0
15, 252660, Note_on_c, 12, 69, 80
15, 252685, Note_on_c, 12, 69, 0
15, 252690, Note_on_c, 12, 69, 80
15, 252715, Note_on_c, 12, 69, 0
15, 252720, Note_on_c, 12, 70, 86
15, 252745, Note_on_c, 12, 70, 0
15, 252750, Note_on_c, 12, 70, 86
15, 252775, Note_on_c, 12, 70, 0
15, 252780, Note_on_c, 12, 70, 86
15, 252805, Note_on_c, 12, 70, 0
15, 252810, Note_on_c, 12, 70, 86
15, 252835, Note_on_c, 12, 70, 0
15, 252840, Note_on_c, 12, 69, 86
15, 252865, Note_on_c, 12, 69, 0
15, 252870, Note_on_c, 12, 69, 86
15, 252895, Note_on_c, 12, 69, 0
15, 252900, Note_on_c, 12, 69, 86
15, 252925, Note_on_c, 12, 69, 0
15, 252930, Note_on_c, 12, 69, 86
15, 252955, Note_on_c, 12, 69, 0
15, 252960, Note_on_c, 12, 67, 86
15, 252985, Note_on_c, 12, 67, 0
15, 252990, Note_on_c, 12, 67, 86
15, 253015, Note_on_c, 12, 67, 0
15, 253020, Note_on_c, 12, 67, 86
15, 253045, Note_on_c, 12, 67, 0
15, 253050, Note_on_c, 12, 67, 86
15, 253075, Note_on_c, 12, 67, 0
15, 253080, Note_on_c, 12, 70, 86
15, 253105, Note_on_c, 12, 70, 0
15, 253110, Note_on_c, 12, 70, 86
15, 253135, Note_on_c, 12, 70, 0
15, 253140, Note_on_c, 12, 70, 86
15, 253165, Note_on_c, 12, 70, 0
15, 253170, Note_on_c, 12, 70, 86
15, 253195, Note_on_c, 12, 70, 0
15, 253200, Note_on_c, 12, 69, 86
15, 253225, Note_on_c, 12, 69, 0
15, 253230, Note_on_c, 12, 69, 86
15, 253255, Note_on_c, 12, 69, 0
15, 253260, Note_on_c, 12, 69, 86
15, 253285, Note_on_c, 12, 69, 0
15, 253290, Note_on_c, 12, 69, 86
15, 253315, Note_on_c, 12, 69, 0
15, 253320, Note_on_c, 12, 73, 86
15, 253345, Note_on_c, 12, 73, 0
15, 253350, Note_on_c, 12, 73, 86
15, 253375, Note_on_c, 12, 73, 0
15, 253380, Note_on_c, 12, 73, 86
15, 253405, Note_on_c, 12, 73, 0
15, 253410, Note_on_c, 12, 73, 86
15, 253435, Note_on_c, 12, 73, 0
15, 253440, Note_on_c, 12, 74, 86
15, 253465, Note_on_c, 12, 74, 0
15, 253470, Note_on_c, 12, 74, 86
15, 253495, Note_on_c, 12, 74, 0
15, 253500, Note_on_c, 12, 74, 86
15, 253525, Note_on_c, 12, 74, 0
15, 253530, Note_on_c, 12, 74, 86
15, 253555, Note_on_c, 12, 74, 0
15, 253560, Note_on_c, 12, 69, 86
15, 253585, Note_on_c, 12, 69, 0
15, 253590, Note_on_c, 12, 69, 86
15, 253615, Note_on_c, 12, 69, 0
15, 253620, Note_on_c, 12, 69, 86
15, 253645, Note_on_c, 12, 69, 0
15, 253650, Note_on_c, 12, 69, 86
15, 253675, Note_on_c, 12, 69, 0
15, 253680, Note_on_c, 12, 70, 86
15, 253705, Note_on_c, 12, 70, 0
15, 253710, Note_on_c, 12, 70, 86
15, 253735, Note_on_c, 12, 70, 0
15, 253740, Note_on_c, 12, 70, 86
15, 253765, Note_on_c, 12, 70, 0
15, 253770, Note_on_c, 12, 70, 86
15, 253795, Note_on_c, 12, 70, 0
15, 253800, Note_on_c, 12, 69, 86
15, 253825, Note_on_c, 12, 69, 0
15, 253830, Note_on_c, 12, 69, 86
15, 253855, Note_on_c, 12, 69, 0
15, 253860, Note_on_c, 12, 69, 86
15, 253885, Note_on_c, 12, 69, 0
15, 253890, Note_on_c, 12, 69, 86
15, 253915, Note_on_c, 12, 69, 0
15, 253920, Note_on_c, 12, 67, 86
15, 253945, Note_on_c, 12, 67, 0
15, 253950, Note_on_c, 12, 67, 86
15, 253975, Note_on_c, 12, 67, 0
15, 253980, Note_on_c, 12, 67, 86
15, 254005, Note_on_c, 12, 67, 0
15, 254010, Note_on_c, 12, 67, 86
15, 254035, Note_on_c, 12, 67, 0
15, 254040, Note_on_c, 12, 70, 86
15, 254065, Note_on_c, 12, 70, 0
15, 254070, Note_on_c, 12, 70, 86
15, 254095, Note_on_c, 12, 70, 0
15, 254100, Note_on_c, 12, 70, 86
15, 254125, Note_on_c, 12, 70, 0
15, 254130, Note_on_c, 12, 70, 86
15, 254155, Note_on_c, 12, 70, 0
15, 254160, Note_on_c, 12, 69, 86
15, 254185, Note_on_c, 12, 69, 0
15, 254190, Note_on_c, 12, 69, 86
15, 254215, Note_on_c, 12, 69, 0
15, 254220, Note_on_c, 12, 69, 86
15, 254245, Note_on_c, 12, 69, 0
15, 254250, Note_on_c, 12, 69, 86
15, 254275, Note_on_c, 12, 69, 0
15, 254280, Note_on_c, 12, 85, 86
15, 254305, Note_on_c, 12, 85, 0
15, 254310, Note_on_c, 12, 85, 86
15, 254335, Note_on_c, 12, 85, 0
15, 254340, Note_on_c, 12, 85, 86
15, 254365, Note_on_c, 12, 85, 0
15, 254370, Note_on_c, 12, 85, 86
15, 254395, Note_on_c, 12, 85, 0
15, 254400, Note_on_c, 12, 84, 92
15, 254425, Note_on_c, 12, 84, 0
15, 254430, Note_on_c, 12, 84, 92
15, 254455, Note_on_c, 12, 84, 0
15, 254460, Note_on_c, 12, 84, 92
15, 254485, Note_on_c, 12, 84, 0
15, 254490, Note_on_c, 12, 84, 92
15, 254515, Note_on_c, 12, 84, 0
15, 254520, Note_on_c, 12, 72, 92
15, 254545, Note_on_c, 12, 72, 0
15, 254550, Note_on_c, 12, 72, 92
15, 254575, Note_on_c, 12, 72, 0
15, 254580, Note_on_c, 12, 72, 92
15, 254605, Note_on_c, 12, 72, 0
15, 254610, Note_on_c, 12, 72, 92
15, 254635, Note_on_c, 12, 72, 0
15, 254640, Note_on_c, 12, 62, 92
15, 254665, Note_on_c, 12, 62, 0
15, 254670, Note_on_c, 12, 62, 92
15, 254695, Note_on_c, 12, 62, 0
15, 254700, Note_on_c, 12, 62, 92
15, 254725, Note_on_c, 12, 62, 0
15, 254730, Note_on_c, 12, 62, 92
15, 254755, Note_on_c, 12, 62, 0
15, 254760, Note_on_c, 12, 84, 92
15, 254785, Note_on_c, 12, 84, 0
15, 254790, Note_on_c, 12, 84, 92
15, 254815, Note_on_c, 12, 84, 0
15, 254820, Note_on_c, 12, 84, 92
15, 254845, Note_on_c, 12, 84, 0
15, 254850, Note_on_c, 12, 84, 92
15, 254875, Note_on_c, 12, 84, 0
15, 254880, Note_on_c, 12, 84, 92
15, 254905, Note_on_c, 12, 84, 0
15, 254910, Note_on_c, 12, 84, 92
15, 254935, Note_on_c, 12, 84, 0
15, 254940, Note_on_c, 12, 84, 92
15, 254965, Note_on_c, 12, 84, 0
15, 254970, Note_on_c, 12, 84, 92
15, 254995, Note_on_c, 12, 84, 0
15, 255000, Note_on_c, 12, 72, 92
15, 255025, Note_on_c, 12, 72, 0
15, 255030, Note_on_c, 12, 72, 92
15, 255055, Note_on_c, 12, 72, 0
15, 255060, Note_on_c, 12, 72, 92
15, 255085, Note_on_c, 12, 72, 0
15, 255090, Note_on_c, 12, 72, 92
15, 255115, Note_on_c, 12, 72, 0
15, 255120, Note_on_c, 12, 62, 92
15, 255145, Note_on_c, 12, 62, 0
15, 255150, Note_on_c, 12, 62, 92
15, 255175, Note_on_c, 12, 62, 0
15, 255180, Note_on_c, 12, 62, 92
15, 255205, Note_on_c, 12, 62, 0
15, 255210, Note_on_c, 12, 62, 92
15, 255235, Note_on_c, 12, 62, 0
15, 255240, Note_on_c, 12, 84, 92
15, 255265, Note_on_c, 12, 84, 0
15, 255270, Note_on_c, 12, 84, 92
15, 255295, Note_on_c, 12, 84, 0
15, 255300, Note_on_c, 12, 84, 92
15, 255325, Note_on_c, 12, 84, 0
15, 255330, Note_on_c, 12, 84, 92
15, 255355, Note_on_c, 12, 84, 0
15, 255360, Note_on_c, 12, 83, 92
15, 255385, Note_on_c, 12, 83, 0
15, 255390, Note_on_c, 12, 83, 92
15, 255415, Note_on_c, 12, 83, 0
15, 255420, Note_on_c, 12, 83, 92
15, 255445, Note_on_c, 12, 83, 0
15, 255450, Note_on_c, 12, 83, 92
15, 255475, Note_on_c, 12, 83, 0
15, 255480, Note_on_c, 12, 71, 92
15, 255505, Note_on_c, 12, 71, 0
15, 255510, Note_on_c, 12, 71, 92
15, 255535, Note_on_c, 12, 71, 0
15, 255540, Note_on_c, 12, 71, 92
15, 255565, Note_on_c, 12, 71, 0
15, 255570, Note_on_c, 12, 71, 92
15, 255595, Note_on_c, 12, 71, 0
15, 255600, Note_on_c, 12, 62, 92
15, 255625, Note_on_c, 12, 62, 0
15, 255630, Note_on_c, 12, 62, 92
15, 255655, Note_on_c, 12, 62, 0
15, 255660, Note_on_c, 12, 62, 92
15, 255685, Note_on_c, 12, 62, 0
15, 255690, Note_on_c, 12, 62, 92
15, 255715, Note_on_c, 12, 62, 0
15, 255720, Note_on_c, 12, 83, 92
15, 255745, Note_on_c, 12, 83, 0
15, 255750, Note_on_c, 12, 83, 92
15, 255775, Note_on_c, 12, 83, 0
15, 255780, Note_on_c, 12, 83, 92
15, 255805, Note_on_c, 12, 83, 0
15, 255810, Note_on_c, 12, 83, 92
15, 255835, Note_on_c, 12, 83, 0
15, 255840, Note_on_c, 12, 85, 92
15, 255865, Note_on_c, 12, 85, 0
15, 255870, Note_on_c, 12, 85, 92
15, 255895, Note_on_c, 12, 85, 0
15, 255900, Note_on_c, 12, 85, 92
15, 255925, Note_on_c, 12, 85, 0
15, 255930, Note_on_c, 12, 85, 92
15, 255955, Note_on_c, 12, 85, 0
15, 255960, Note_on_c, 12, 73, 92
15, 255985, Note_on_c, 12, 73, 0
15, 255990, Note_on_c, 12, 73, 92
15, 256015, Note_on_c, 12, 73, 0
15, 256020, Note_on_c, 12, 73, 92
15, 256045, Note_on_c, 12, 73, 0
15, 256050, Note_on_c, 12, 73, 92
15, 256075, Note_on_c, 12, 73, 0
15, 256080, Note_on_c, 12, 62, 92
15, 256105, Note_on_c, 12, 62, 0
15, 256110, Note_on_c, 12, 62, 92
15, 256135, Note_on_c, 12, 62, 0
15, 256140, Note_on_c, 12, 62, 92
15, 256165, Note_on_c, 12, 62, 0
15, 256170, Note_on_c, 12, 62, 92
15, 256195, Note_on_c, 12, 62, 0
15, 256200, Note_on_c, 12, 85, 92
15, 256225, Note_on_c, 12, 85, 0
15, 256230, Note_on_c, 12, 85, 92
15, 256255, Note_on_c, 12, 85, 0
15, 256260, Note_on_c, 12, 85, 92
15, 256285, Note_on_c, 12, 85, 0
15, 256290, Note_on_c, 12, 85, 92
15, 256315, Note_on_c, 12, 85, 0
15, 256320, Note_on_c, 12, 84, 92
15, 256345, Note_on_c, 12, 84, 0
15, 256350, Note_on_c, 12, 84, 92
15, 256375, Note_on_c, 12, 84, 0
15, 256380, Note_on_c, 12, 84, 92
15, 256405, Note_on_c, 12, 84, 0
15, 256410, Note_on_c, 12, 84, 92
15, 256435, Note_on_c, 12, 84, 0
15, 256440, Note_on_c, 12, 72, 92
15, 256465, Note_on_c, 12, 72, 0
15, 256470, Note_on_c, 12, 72, 92
15, 256495, Note_on_c, 12, 72, 0
15, 256500, Note_on_c, 12, 72, 92
15, 256525, Note_on_c, 12, 72, 0
15, 256530, Note_on_c, 12, 72, 92
15, 256555, Note_on_c, 12, 72, 0
15, 256560, Note_on_c, 12, 62, 92
15, 256585, Note_on_c, 12, 62, 0
15, 256590, Note_on_c, 12, 62, 92
15, 256615, Note_on_c, 12, 62, 0
15, 256620, Note_on_c, 12, 62, 92
15, 256645, Note_on_c, 12, 62, 0
15, 256650, Note_on_c, 12, 62, 92
15, 256675, Note_on_c, 12, 62, 0
15, 256680, Note_on_c, 12, 84, 92
15, 256705, Note_on_c, 12, 84, 0
15, 256710, Note_on_c, 12, 84, 92
15, 256735, Note_on_c, 12, 84, 0
15, 256740, Note_on_c, 12, 84, 92
15, 256765, Note_on_c, 12, 84, 0
15, 256770, Note_on_c, 12, 84, 92
15, 256795, Note_on_c, 12, 84, 0
15, 256800, Note_on_c, 12, 84, 92
15, 256825, Note_on_c, 12, 84, 0
15, 256830, Note_on_c, 12, 84, 92
15, 256855, Note_on_c, 12, 84, 0
15, 256860, Note_on_c, 12, 84, 92
15, 256885, Note_on_c, 12, 84, 0
15, 256890, Note_on_c, 12, 84, 92
15, 256915, Note_on_c, 12, 84, 0
15, 256920, Note_on_c, 12, 72, 92
15, 256945, Note_on_c, 12, 72, 0
15, 256950, Note_on_c, 12, 72, 92
15, 256975, Note_on_c, 12, 72, 0
15, 256980, Note_on_c, 12, 72, 92
15, 257005, Note_on_c, 12, 72, 0
15, 257010, Note_on_c, 12, 72, 92
15, 257035, Note_on_c, 12, 72, 0
15, 257040, Note_on_c, 12, 62, 92
15, 257065, Note_on_c, 12, 62, 0
15, 257070, Note_on_c, 12, 62, 92
15, 257095, Note_on_c, 12, 62, 0
15, 257100, Note_on_c, 12, 62, 92
15, 257125, Note_on_c, 12, 62, 0
15, 257130, Note_on_c, 12, 62, 92
15, 257155, Note_on_c, 12, 62, 0
15, 257160, Note_on_c, 12, 84, 92
15, 257185, Note_on_c, 12, 84, 0
15, 257190, Note_on_c, 12, 84, 92
15, 257215, Note_on_c, 12, 84, 0
15, 257220, Note_on_c, 12, 84, 92
15, 257245, Note_on_c, 12, 84, 0
15, 257250, Note_on_c, 12, 84, 92
15, 257275, Note_on_c, 12, 84, 0
15, 257280, Note_on_c, 12, 83, 92
15, 257305, Note_on_c, 12, 83, 0
15, 257310, Note_on_c, 12, 83, 92
15, 257335, Note_on_c, 12, 83, 0
15, 257340, Note_on_c, 12, 83, 92
15, 257365, Note_on_c, 12, 83, 0
15, 257370, Note_on_c, 12, 83, 92
15, 257395, Note_on_c, 12, 83, 0
15, 257400, Note_on_c, 12, 71, 92
15, 257425, Note_on_c, 12, 71, 0
15, 257430, Note_on_c, 12, 71, 92
15, 257455, Note_on_c, 12, 71, 0
15, 257460, Note_on_c, 12, 71, 92
15, 257485, Note_on_c, 12, 71, 0
15, 257490, Note_on_c, 12, 71, 92
15, 257515, Note_on_c, 12, 71, 0
15, 257520, Note_on_c, 12, 62, 92
15, 257545, Note_on_c, 12, 62, 0
15, 257550, Note_on_c, 12, 62, 92
15, 257575, Note_on_c, 12, 62, 0
15, 257580, Note_on_c, 12, 62, 92
15, 257605, Note_on_c, 12, 62, 0
15, 257610, Note_on_c, 12, 62, 92
15, 257635, Note_on_c, 12, 62, 0
15, 257640, Note_on_c, 12, 83, 92
15, 257665, Note_on_c, 12, 83, 0
15, 257670, Note_on_c, 12, 83, 92
15, 257695, Note_on_c, 12, 83, 0
15, 257700, Note_on_c, 12, 83, 92
15, 257725, Note_on_c, 12, 83, 0
15, 257730, Note_on_c, 12, 83, 92
15, 257755, Note_on_c, 12, 83, 0
15, 257760, Note_on_c, 12, 85, 92
15, 257785, Note_on_c, 12, 85, 0
15, 257790, Note_on_c, 12, 85, 92
15, 257815, Note_on_c, 12, 85, 0
15, 257820, Note_on_c, 12, 85, 92
15, 257845, Note_on_c, 12, 85, 0
15, 257850, Note_on_c, 12, 85, 92
15, 257875, Note_on_c, 12, 85, 0
15, 257880, Note_on_c, 12, 73, 92
15, 257905, Note_on_c, 12, 73, 0
15, 257910, Note_on_c, 12, 73, 92
15, 257935, Note_on_c, 12, 73, 0
15, 257940, Note_on_c, 12, 73, 92
15, 257965, Note_on_c, 12, 73, 0
15, 257970, Note_on_c, 12, 73, 92
15, 257995, Note_on_c, 12, 73, 0
15, 258000, Note_on_c, 12, 62, 92
15, 258025, Note_on_c, 12, 62, 0
15, 258030, Note_on_c, 12, 62, 92
15, 258055, Note_on_c, 12, 62, 0
15, 258060, Note_on_c, 12, 62, 92
15, 258085, Note_on_c, 12, 62, 0
15, 258090, Note_on_c, 12, 62, 92
15, 258115, Note_on_c, 12, 62, 0
15, 258120, Note_on_c, 12, 86, 92
15, 258145, Note_on_c, 12, 86, 0
15, 258150, Note_on_c, 12, 86, 92
15, 258175, Note_on_c, 12, 86, 0
15, 258180, Note_on_c, 12, 86, 92
15, 258205, Note_on_c, 12, 86, 0
15, 258210, Note_on_c, 12, 86, 92
15, 258235, Note_on_c, 12, 86, 0
15, 258240, Note_on_c, 12, 81, 92
15, 258479, Note_on_c, 12, 81, 0
15, 258480, Note_on_c, 12, 81, 92
15, 258681, Note_on_c, 12, 81, 0
15, 258690, Note_on_c, 12, 77, 92
15, 258711, Note_on_c, 12, 77, 0
15, 258720, Note_on_c, 12, 74, 92
15, 258921, Note_on_c, 12, 74, 0
15, 258930, Note_on_c, 12, 69, 92
15, 258951, Note_on_c, 12, 69, 0
15, 258960, Note_on_c, 12, 65, 92
15, 259124, Note_on_c, 12, 65, 0
15, 259140, Note_on_c, 12, 69, 92
15, 259169, Note_on_c, 12, 69, 0
15, 259170, Note_on_c, 12, 65, 92
15, 259191, Note_on_c, 12, 65, 0
15, 259200, Note_on_c, 12, 62, 92
15, 259319, Note_on_c, 12, 62, 0
15, 259380, Note_on_c, 12, 69, 92
15, 259409, Note_on_c, 12, 69, 0
15, 259410, Note_on_c, 12, 65, 92
15, 259431, Note_on_c, 12, 65, 0
15, 259440, Note_on_c, 12, 62, 92
15, 259559, Note_on_c, 12, 62, 0
15, 259620, Note_on_c, 12, 74, 92
15, 259649, Note_on_c, 12, 74, 0
15, 259650, Note_on_c, 12, 69, 92
15, 259671, Note_on_c, 12, 69, 0
15, 259680, Note_on_c, 12, 65, 92
15, 259799, Note_on_c, 12, 65, 0
15, 259860, Note_on_c, 12, 77, 92
15, 259889, Note_on_c, 12, 77, 0
15, 259890, Note_on_c, 12, 74, 92
15, 259911, Note_on_c, 12, 74, 0
15, 259920, Note_on_c, 12, 69, 92
15, 260039, Note_on_c, 12, 69, 0
15, 260100, Note_on_c, 12, 81, 92
15, 260129, Note_on_c, 12, 81, 0
15, 260130, Note_on_c, 12, 77, 92
15, 260151, Note_on_c, 12, 77, 0
15, 260160, Note_on_c, 12, 62, 92
15, 260160, Note_on_c, 12, 74, 92
15, 260399, Note_on_c, 12, 62, 0
15, 260399, Note_on_c, 12, 74, 0
15, 260430, Note_on_c, 12, 74, 92
15, 260459, Note_on_c, 12, 74, 0
15, 260460, Note_on_c, 12, 76, 92
15, 260489, Note_on_c, 12, 76, 0
15, 260490, Note_on_c, 12, 77, 92
15, 260519, Note_on_c, 12, 77, 0
15, 260520, Note_on_c, 12, 79, 92
15, 260549, Note_on_c, 12, 79, 0
15, 260550, Note_on_c, 12, 81, 92
15, 260579, Note_on_c, 12, 81, 0
15, 260580, Note_on_c, 12, 83, 92
15, 260609, Note_on_c, 12, 83, 0
15, 260610, Note_on_c, 12, 85, 92
15, 260631, Note_on_c, 12, 85, 0
15, 260640, Note_on_c, 12, 86, 104
15, 260699, Note_on_c, 12, 86, 0
15, 260700, Note_on_c, 12, 86, 92
15, 260879, Note_on_c, 12, 86, 0
15, 260910, Note_on_c, 12, 62, 92
15, 260939, Note_on_c, 12, 62, 0
15, 260940, Note_on_c, 12, 64, 92
15, 260969, Note_on_c, 12, 64, 0
15, 260970, Note_on_c, 12, 65, 92
15, 260999, Note_on_c, 12, 65, 0
15, 261000, Note_on_c, 12, 67, 92
15, 261029, Note_on_c, 12, 67, 0
15, 261030, Note_on_c, 12, 69, 92
15, 261059, Note_on_c, 12, 69, 0
15, 261060, Note_on_c, 12, 71, 92
15, 261089, Note_on_c, 12, 71, 0
15, 261090, Note_on_c, 12, 73, 92
15, 261111, Note_on_c, 12, 73, 0
15, 261120, Note_on_c, 12, 74, 92
15, 261120, Note_on_c, 12, 62, 92
15, 261411, Note_on_c, 12, 74, 0
15, 261411, Note_on_c, 12, 62, 0
15, 261420, Note_on_c, 12, 77, 92
15, 261464, Note_on_c, 12, 77, 0
15, 261480, Note_on_c, 12, 76, 92
15, 261524, Note_on_c, 12, 76, 0
15, 261540, Note_on_c, 12, 74, 92
15, 261584, Note_on_c, 12, 74, 0
15, 261600, Note_on_c, 12, 81, 92
15, 261689, Note_on_c, 12, 81, 0
15, 261720, Note_on_c, 12, 79, 92
15, 261809, Note_on_c, 12, 79, 0
15, 261840, Note_on_c, 12, 76, 92
15, 261929, Note_on_c, 12, 76, 0
15, 261960, Note_on_c, 12, 81, 92
15, 261960, Note_on_c, 12, 69, 92
15, 262049, Note_on_c, 12, 81, 0
15, 262049, Note_on_c, 12, 69, 0
15, 262080, Note_on_c, 12, 62, 92
15, 262080, Note_on_c, 12, 74, 92
15, 262199, Note_on_c, 12, 62, 0
15, 262199, Note_on_c, 12, 74, 0
15, 262199, End_track
16, 0, Start_track
16, 0, Title_t, "Viola "
16, 0, MIDI_port, 0
16, 0, Program_c, 13, 48
16, 0, Control_c, 13, 11, 127
16, 0, Control_c, 13, 10, 70
16, 0, Control_c, 13, 7, 96
16, 1890, Note_on_c, 13, 64, 32
16, 1911, Note_on_c, 13, 64, 0
16, 1920, Note_on_c, 13, 57, 32
16, 2159, Note_on_c, 13, 57, 0
16, 3810, Note_on_c, 13, 64, 32
16, 3831, Note_on_c, 13, 64, 0
16, 3840, Note_on_c, 13, 57, 32
16, 4079, Note_on_c, 13, 57, 0
16, 5730, Note_on_c, 13, 64, 50
16, 5751, Note_on_c, 13, 64, 0
16, 5760, Note_on_c, 13, 57, 52
16, 5879, Note_on_c, 13, 57, 0
16, 6540, Note_on_c, 13, 64, 68
16, 6584, Note_on_c, 13, 64, 0
16, 6600, Note_on_c, 13, 64, 69
16, 6659, Note_on_c, 13, 64, 0
16, 6660, Note_on_c, 13, 57, 69
16, 6719, Note_on_c, 13, 57, 0
16, 7020, Note_on_c, 13, 69, 77
16, 7064, Note_on_c, 13, 69, 0
16, 7080, Note_on_c, 13, 69, 78
16, 7139, Note_on_c, 13, 69, 0
16, 7140, Note_on_c, 13, 57, 80
16, 7191, Note_on_c, 13, 57, 0
16, 7200, Note_on_c, 13, 57, 81
16, 7259, Note_on_c, 13, 57, 0
16, 7260, Note_on_c, 13, 69, 83
16, 7311, Note_on_c, 13, 69, 0
16, 7320, Note_on_c, 13, 69, 84
16, 7379, Note_on_c, 13, 69, 0
16, 7380, Note_on_c, 13, 57, 84
16, 7431, Note_on_c, 13, 57, 0
16, 7440, Note_on_c, 13, 57, 86
16, 7499, Note_on_c, 13, 57, 0
16, 7500, Note_on_c, 13, 69, 87
16, 7551, Note_on_c, 13, 69, 0
16, 7560, Note_on_c, 13, 57, 89
16, 7604, Note_on_c, 13, 57, 0
16, 7650, Note_on_c, 13, 74, 92
16, 7671, Note_on_c, 13, 74, 0
16, 7680, Note_on_c, 13, 69, 92
16, 8121, Note_on_c, 13, 69, 0
16, 8130, Note_on_c, 13, 65, 92
16, 8151, Note_on_c, 13, 65, 0
16, 8160, Note_on_c, 13, 62, 92
16, 8361, Note_on_c, 13, 62, 0
16, 8370, Note_on_c, 13, 57, 92
16, 8391, Note_on_c, 13, 57, 0
16, 8400, Note_on_c, 13, 53, 92
16, 8571, Note_on_c, 13, 53, 0
16, 8580, Note_on_c, 13, 57, 92
16, 8609, Note_on_c, 13, 57, 0
16, 8610, Note_on_c, 13, 53, 92
16, 8631, Note_on_c, 13, 53, 0
16, 8640, Note_on_c, 13, 50, 92
16, 8931, Note_on_c, 13, 50, 0
16, 8940, Note_on_c, 13, 65, 92
16, 8984, Note_on_c, 13, 65, 0
16, 9000, Note_on_c, 13, 64, 92
16, 9044, Note_on_c, 13, 64, 0
16, 9060, Note_on_c, 13, 62, 92
16, 9104, Note_on_c, 13, 62, 0
16, 9120, Note_on_c, 13, 69, 92
16, 9209, Note_on_c, 13, 69, 0
16, 9240, Note_on_c, 13, 67, 92
16, 9329, Note_on_c, 13, 67, 0
16, 9360, Note_on_c, 13, 64, 92
16, 9449, Note_on_c, 13, 64, 0
16, 9480, Note_on_c, 13, 69, 92
16, 9569, Note_on_c, 13, 69, 0
16, 9600, Note_on_c, 13, 62, 104
16, 9779, Note_on_c, 13, 62, 0
16, 9840, Note_on_c, 13, 69, 104
16, 9840, Note_on_c, 13, 57, 104
16, 9959, Note_on_c, 13, 57, 0
16, 10019, Note_on_c, 13, 69, 0
16, 10080, Note_on_c, 13, 50, 104
16, 10080, Note_on_c, 13, 62, 104
16, 10259, Note_on_c, 13, 50, 0
16, 10259, Note_on_c, 13, 62, 0
16, 10560, Note_on_c, 13, 67, 104
16, 10560, Note_on_c, 13, 55, 104
16, 10739, Note_on_c, 13, 67, 0
16, 10739, Note_on_c, 13, 55, 0
16, 10800, Note_on_c, 13, 62, 104
16, 10979, Note_on_c, 13, 62, 0
16, 11040, Note_on_c, 13, 55, 92
16, 11144, Note_on_c, 13, 55, 0
16, 11160, Note_on_c, 13, 55, 92
16, 11160, Note_on_c, 13, 67, 92
16, 11519, Note_on_c, 13, 55, 0
16, 11519, Note_on_c, 13, 67, 0
16, 11520, Note_on_c, 13, 55, 92
16, 11520, Note_on_c, 13, 67, 92
16, 12104, Note_on_c, 13, 55, 0
16, 12104, Note_on_c, 13, 67, 0
16, 12120, Note_on_c, 13, 70, 92
16, 12224, Note_on_c, 13, 70, 0
16, 12240, Note_on_c, 13, 70, 92
16, 12344, Note_on_c, 13, 70, 0
16, 12360, Note_on_c, 13, 55, 92
16, 12449, Note_on_c, 13, 55, 0
16, 12480, Note_on_c, 13, 55, 104
16, 12599, Note_on_c, 13, 55, 0
16, 12960, Note_on_c, 13, 52, 44
16, 12960, Note_on_c, 13, 55, 44
16, 13079, Note_on_c, 13, 52, 0
16, 13079, Note_on_c, 13, 55, 0
16, 13440, Note_on_c, 13, 65, 80
16, 13440, Note_on_c, 13, 57, 80
16, 13440, Note_on_c, 13, 74, 80
16, 13559, Note_on_c, 13, 65, 0
16, 13559, Note_on_c, 13, 57, 0
16, 13559, Note_on_c, 13, 74, 0
16, 13920, Note_on_c, 13, 62, 44
16, 13920, Note_on_c, 13, 57, 44
16, 14039, Note_on_c, 13, 62, 0
16, 14039, Note_on_c, 13, 57, 0
16, 14400, Note_on_c, 13, 64, 80
16, 14400, Note_on_c, 13, 61, 80
16, 14519, Note_on_c, 13, 64, 0
16, 14519, Note_on_c, 13, 61, 0
16, 14640, Note_on_c, 13, 58, 92
16, 14699, Note_on_c, 13, 58, 0
16, 14700, Note_on_c, 13, 58, 80
16, 15104, Note_on_c, 13, 58, 0
16, 15120, Note_on_c, 13, 59, 92
16, 15179, Note_on_c, 13, 59, 0
16, 15180, Note_on_c, 13, 59, 80
16, 15584, Note_on_c, 13, 59, 0
16, 15600, Note_on_c, 13, 69, 92
16, 15600, Note_on_c, 13, 57, 92
16, 15659, Note_on_c, 13, 69, 0
16, 15659, Note_on_c, 13, 57, 0
16, 15660, Note_on_c, 13, 69, 80
16, 15660, Note_on_c, 13, 57, 80
16, 16131, Note_on_c, 13, 69, 0
16, 16131, Note_on_c, 13, 57, 0
16, 16140, Note_on_c, 13, 70, 80
16, 16169, Note_on_c, 13, 70, 0
16, 16170, Note_on_c, 13, 69, 80
16, 16199, Note_on_c, 13, 69, 0
16, 16200, Note_on_c, 13, 67, 80
16, 16229, Note_on_c, 13, 67, 0
16, 16230, Note_on_c, 13, 65, 80
16, 16259, Note_on_c, 13, 65, 0
16, 16260, Note_on_c, 13, 64, 80
16, 16289, Note_on_c, 13, 64, 0
16, 16290, Note_on_c, 13, 62, 80
16, 16319, Note_on_c, 13, 62, 0
16, 16320, Note_on_c, 13, 61, 80
16, 16349, Note_on_c, 13, 61, 0
16, 16350, Note_on_c, 13, 62, 75
16, 16379, Note_on_c, 13, 62, 0
16, 16380, Note_on_c, 13, 60, 71
16, 16409, Note_on_c, 13, 60, 0
16, 16410, Note_on_c, 13, 58, 67
16, 16439, Note_on_c, 13, 58, 0
16, 16440, Note_on_c, 13, 57, 62
16, 16469, Note_on_c, 13, 57, 0
16, 16470, Note_on_c, 13, 55, 58
16, 16499, Note_on_c, 13, 55, 0
16, 16500, Note_on_c, 13, 53, 53
16, 16529, Note_on_c, 13, 53, 0
16, 16530, Note_on_c, 13, 52, 49
16, 16551, Note_on_c, 13, 52, 0
16, 16560, Note_on_c, 13, 50, 44
16, 16679, Note_on_c, 13, 50, 0
16, 18210, Note_on_c, 13, 57, 32
16, 18231, Note_on_c, 13, 57, 0
16, 18240, Note_on_c, 13, 50, 32
16, 18479, Note_on_c, 13, 50, 0
16, 20130, Note_on_c, 13, 57, 32
16, 20151, Note_on_c, 13, 57, 0
16, 20160, Note_on_c, 13, 50, 32
16, 20399, Note_on_c, 13, 50, 0
16, 22050, Note_on_c, 13, 57, 50
16, 22071, Note_on_c, 13, 57, 0
16, 22080, Note_on_c, 13, 50, 52
16, 22319, Note_on_c, 13, 50, 0
16, 22860, Note_on_c, 13, 57, 68
16, 22904, Note_on_c, 13, 57, 0
16, 22920, Note_on_c, 13, 57, 69
16, 22979, Note_on_c, 13, 57, 0
16, 22980, Note_on_c, 13, 50, 69
16, 23039, Note_on_c, 13, 50, 0
16, 23340, Note_on_c, 13, 74, 77
16, 23384, Note_on_c, 13, 74, 0
16, 23400, Note_on_c, 13, 74, 78
16, 23459, Note_on_c, 13, 74, 0
16, 23460, Note_on_c, 13, 62, 80
16, 23511, Note_on_c, 13, 62, 0
16, 23520, Note_on_c, 13, 62, 81
16, 23579, Note_on_c, 13, 62, 0
16, 23580, Note_on_c, 13, 50, 83
16, 23631, Note_on_c, 13, 50, 0
16, 23640, Note_on_c, 13, 50, 84
16, 23699, Note_on_c, 13, 50, 0
16, 23700, Note_on_c, 13, 62, 84
16, 23751, Note_on_c, 13, 62, 0
16, 23760, Note_on_c, 13, 50, 86
16, 23819, Note_on_c, 13, 50, 0
16, 23820, Note_on_c, 13, 62, 87
16, 23871, Note_on_c, 13, 62, 0
16, 23880, Note_on_c, 13, 50, 89
16, 23924, Note_on_c, 13, 50, 0
16, 23970, Note_on_c, 13, 70, 92
16, 23991, Note_on_c, 13, 70, 0
16, 24000, Note_on_c, 13, 65, 92
16, 24441, Note_on_c, 13, 65, 0
16, 24450, Note_on_c, 13, 62, 92
16, 24471, Note_on_c, 13, 62, 0
16, 24480, Note_on_c, 13, 58, 92
16, 24681, Note_on_c, 13, 58, 0
16, 24690, Note_on_c, 13, 53, 92
16, 24711, Note_on_c, 13, 53, 0
16, 24720, Note_on_c, 13, 50, 92
16, 24891, Note_on_c, 13, 50, 0
16, 24900, Note_on_c, 13, 65, 92
16, 24929, Note_on_c, 13, 65, 0
16, 24930, Note_on_c, 13, 62, 92
16, 24951, Note_on_c, 13, 62, 0
16, 24960, Note_on_c, 13, 58, 92
16, 25251, Note_on_c, 13, 58, 0
16, 25260, Note_on_c, 13, 62, 92
16, 25304, Note_on_c, 13, 62, 0
16, 25320, Note_on_c, 13, 60, 92
16, 25364, Note_on_c, 13, 60, 0
16, 25380, Note_on_c, 13, 58, 92
16, 25424, Note_on_c, 13, 58, 0
16, 25440, Note_on_c, 13, 65, 92
16, 25529, Note_on_c, 13, 65, 0
16, 25560, Note_on_c, 13, 63, 92
16, 25649, Note_on_c, 13, 63, 0
16, 25680, Note_on_c, 13, 60, 92
16, 25769, Note_on_c, 13, 60, 0
16, 25800, Note_on_c, 13, 65, 92
16, 25889, Note_on_c, 13, 65, 0
16, 25920, Note_on_c, 13, 62, 104
16, 26039, Note_on_c, 13, 62, 0
16, 26220, Note_on_c, 13, 65, 92
16, 26264, Note_on_c, 13, 65, 0
16, 26280, Note_on_c, 13, 63, 92
16, 26324, Note_on_c, 13, 63, 0
16, 26340, Note_on_c, 13, 62, 92
16, 26384, Note_on_c, 13, 62, 0
16, 26400, Note_on_c, 13, 70, 104
16, 26519, Note_on_c, 13, 70, 0
16, 26880, Note_on_c, 13, 64, 104
16, 26999, Note_on_c, 13, 64, 0
16, 27180, Note_on_c, 13, 67, 92
16, 27224, Note_on_c, 13, 67, 0
16, 27240, Note_on_c, 13, 65, 92
16, 27284, Note_on_c, 13, 65, 0
16, 27300, Note_on_c, 13, 64, 92
16, 27344, Note_on_c, 13, 64, 0
16, 27360, Note_on_c, 13, 73, 104
16, 27479, Note_on_c, 13, 73, 0
16, 27840, Note_on_c, 13, 65, 104
16, 27959, Note_on_c, 13, 65, 0
16, 28140, Note_on_c, 13, 69, 92
16, 28184, Note_on_c, 13, 69, 0
16, 28200, Note_on_c, 13, 67, 92
16, 28244, Note_on_c, 13, 67, 0
16, 28260, Note_on_c, 13, 65, 92
16, 28304, Note_on_c, 13, 65, 0
16, 28320, Note_on_c, 13, 74, 104
16, 28439, Note_on_c, 13, 74, 0
16, 28620, Note_on_c, 13, 69, 92
16, 28664, Note_on_c, 13, 69, 0
16, 28680, Note_on_c, 13, 67, 92
16, 28724, Note_on_c, 13, 67, 0
16, 28740, Note_on_c, 13, 66, 92
16, 28784, Note_on_c, 13, 66, 0
16, 28800, Note_on_c, 13, 74, 104
16, 28919, Note_on_c, 13, 74, 0
16, 29100, Note_on_c, 13, 70, 92
16, 29144, Note_on_c, 13, 70, 0
16, 29160, Note_on_c, 13, 69, 92
16, 29204, Note_on_c, 13, 69, 0
16, 29220, Note_on_c, 13, 67, 92
16, 29264, Note_on_c, 13, 67, 0
16, 29280, Note_on_c, 13, 74, 104
16, 29324, Note_on_c, 13, 74, 0
16, 29340, Note_on_c, 13, 58, 92
16, 29384, Note_on_c, 13, 58, 0
16, 29400, Note_on_c, 13, 57, 92
16, 29444, Note_on_c, 13, 57, 0
16, 29460, Note_on_c, 13, 55, 92
16, 29504, Note_on_c, 13, 55, 0
16, 29520, Note_on_c, 13, 59, 104
16, 29520, Note_on_c, 13, 62, 104
16, 29564, Note_on_c, 13, 59, 0
16, 29564, Note_on_c, 13, 62, 0
16, 29580, Note_on_c, 13, 62, 92
16, 29580, Note_on_c, 13, 59, 92
16, 29624, Note_on_c, 13, 62, 0
16, 29624, Note_on_c, 13, 59, 0
16, 29640, Note_on_c, 13, 59, 92
16, 29640, Note_on_c, 13, 62, 92
16, 29684, Note_on_c, 13, 59, 0
16, 29684, Note_on_c, 13, 62, 0
16, 29700, Note_on_c, 13, 59, 92
16, 29700, Note_on_c, 13, 62, 92
16, 29744, Note_on_c, 13, 59, 0
16, 29744, Note_on_c, 13, 62, 0
16, 29760, Note_on_c, 13, 69, 92
16, 29760, Note_on_c, 13, 57, 92
16, 29811, Note_on_c, 13, 69, 0
16, 29811, Note_on_c, 13, 57, 0
16, 29820, Note_on_c, 13, 57, 92
16, 29879, Note_on_c, 13, 57, 0
16, 29880, Note_on_c, 13, 58, 92
16, 29931, Note_on_c, 13, 58, 0
16, 29940, Note_on_c, 13, 57, 92
16, 29999, Note_on_c, 13, 57, 0
16, 30000, Note_on_c, 13, 58, 92
16, 30051, Note_on_c, 13, 58, 0
16, 30060, Note_on_c, 13, 57, 92
16, 30119, Note_on_c, 13, 57, 0
16, 30120, Note_on_c, 13, 58, 92
16, 30171, Note_on_c, 13, 58, 0
16, 30180, Note_on_c, 13, 57, 92
16, 30239, Note_on_c, 13, 57, 0
16, 30240, Note_on_c, 13, 69, 92
16, 30344, Note_on_c, 13, 69, 0
16, 30360, Note_on_c, 13, 70, 92
16, 30449, Note_on_c, 13, 70, 0
16, 30480, Note_on_c, 13, 73, 92
16, 30569, Note_on_c, 13, 73, 0
16, 30600, Note_on_c, 13, 74, 92
16, 30689, Note_on_c, 13, 74, 0
16, 30720, Note_on_c, 13, 76, 92
16, 30809, Note_on_c, 13, 76, 0
16, 30840, Note_on_c, 13, 74, 92
16, 30929, Note_on_c, 13, 74, 0
16, 30960, Note_on_c, 13, 73, 92
16, 31049, Note_on_c, 13, 73, 0
16, 31080, Note_on_c, 13, 74, 92
16, 31169, Note_on_c, 13, 74, 0
16, 31200, Note_on_c, 13, 57, 104
16, 31200, Note_on_c, 13, 67, 104
16, 31200, Note_on_c, 13, 76, 104
16, 31319, Note_on_c, 13, 57, 0
16, 31319, Note_on_c, 13, 67, 0
16, 31379, Note_on_c, 13, 76, 0
16, 31440, Note_on_c, 13, 74, 104
16, 31440, Note_on_c, 13, 65, 104
16, 31440, Note_on_c, 13, 57, 104
16, 31559, Note_on_c, 13, 65, 0
16, 31559, Note_on_c, 13, 57, 0
16, 31619, Note_on_c, 13, 74, 0
16, 31680, Note_on_c, 13, 57, 104
16, 31739, Note_on_c, 13, 57, 0
16, 31740, Note_on_c, 13, 57, 92
16, 32144, Note_on_c, 13, 57, 0
16, 32160, Note_on_c, 13, 55, 92
16, 32249, Note_on_c, 13, 55, 0
16, 32280, Note_on_c, 13, 53, 92
16, 32369, Note_on_c, 13, 53, 0
16, 32400, Note_on_c, 13, 52, 92
16, 32489, Note_on_c, 13, 52, 0
16, 32520, Note_on_c, 13, 50, 92
16, 32609, Note_on_c, 13, 50, 0
16, 32640, Note_on_c, 13, 49, 92
16, 32729, Note_on_c, 13, 49, 0
16, 32760, Note_on_c, 13, 50, 92
16, 32849, Note_on_c, 13, 50, 0
16, 32880, Note_on_c, 13, 52, 92
16, 32969, Note_on_c, 13, 52, 0
16, 33000, Note_on_c, 13, 53, 92
16, 33089, Note_on_c, 13, 53, 0
16, 33120, Note_on_c, 13, 55, 104
16, 33299, Note_on_c, 13, 55, 0
16, 33360, Note_on_c, 13, 67, 104
16, 33360, Note_on_c, 13, 55, 104
16, 33539, Note_on_c, 13, 67, 0
16, 33539, Note_on_c, 13, 55, 0
16, 33600, Note_on_c, 13, 67, 104
16, 33600, Note_on_c, 13, 55, 104
16, 33779, Note_on_c, 13, 67, 0
16, 33779, Note_on_c, 13, 55, 0
16, 33840, Note_on_c, 13, 55, 104
16, 33840, Note_on_c, 13, 67, 104
16, 34019, Note_on_c, 13, 55, 0
16, 34019, Note_on_c, 13, 67, 0
16, 34080, Note_on_c, 13, 55, 104
16, 34080, Note_on_c, 13, 67, 104
16, 34259, Note_on_c, 13, 55, 0
16, 34259, Note_on_c, 13, 67, 0
16, 34320, Note_on_c, 13, 72, 104
16, 34499, Note_on_c, 13, 72, 0
16, 34560, Note_on_c, 13, 72, 92
16, 34611, Note_on_c, 13, 72, 0
16, 34620, Note_on_c, 13, 69, 86
16, 34679, Note_on_c, 13, 69, 0
16, 34680, Note_on_c, 13, 72, 80
16, 34731, Note_on_c, 13, 72, 0
16, 34740, Note_on_c, 13, 69, 74
16, 34799, Note_on_c, 13, 69, 0
16, 34800, Note_on_c, 13, 72, 68
16, 34851, Note_on_c, 13, 72, 0
16, 34860, Note_on_c, 13, 69, 62
16, 34919, Note_on_c, 13, 69, 0
16, 34920, Note_on_c, 13, 72, 56
16, 34971, Note_on_c, 13, 72, 0
16, 34980, Note_on_c, 13, 69, 50
16, 35031, Note_on_c, 13, 69, 0
16, 35040, Note_on_c, 13, 69, 44
16, 35144, Note_on_c, 13, 69, 0
16, 35160, Note_on_c, 13, 57, 44
16, 35160, Note_on_c, 13, 53, 44
16, 35211, Note_on_c, 13, 57, 0
16, 35211, Note_on_c, 13, 53, 0
16, 35220, Note_on_c, 13, 53, 44
16, 35220, Note_on_c, 13, 57, 44
16, 35271, Note_on_c, 13, 53, 0
16, 35271, Note_on_c, 13, 57, 0
16, 35280, Note_on_c, 13, 57, 44
16, 35280, Note_on_c, 13, 53, 44
16, 35399, Note_on_c, 13, 57, 0
16, 35399, Note_on_c, 13, 53, 0
16, 36120, Note_on_c, 13, 53, 44
16, 36171, Note_on_c, 13, 53, 0
16, 36180, Note_on_c, 13, 53, 44
16, 36231, Note_on_c, 13, 53, 0
16, 36240, Note_on_c, 13, 53, 44
16, 36359, Note_on_c, 13, 53, 0
16, 37080, Note_on_c, 13, 53, 44
16, 37080, Note_on_c, 13, 57, 44
16, 37131, Note_on_c, 13, 53, 0
16, 37131, Note_on_c, 13, 57, 0
16, 37140, Note_on_c, 13, 57, 44
16, 37140, Note_on_c, 13, 53, 44
16, 37191, Note_on_c, 13, 57, 0
16, 37191, Note_on_c, 13, 53, 0
16, 37200, Note_on_c, 13, 53, 44
16, 37200, Note_on_c, 13, 57, 44
16, 37319, Note_on_c, 13, 53, 0
16, 37319, Note_on_c, 13, 57, 0
16, 37800, Note_on_c, 13, 57, 44
16, 37971, Note_on_c, 13, 57, 0
16, 37980, Note_on_c, 13, 58, 44
16, 38024, Note_on_c, 13, 58, 0
16, 38040, Note_on_c, 13, 61, 44
16, 38084, Note_on_c, 13, 61, 0
16, 38100, Note_on_c, 13, 62, 44
16, 38144, Note_on_c, 13, 62, 0
16, 38160, Note_on_c, 13, 65, 44
16, 38279, Note_on_c, 13, 65, 0
16, 38400, Note_on_c, 13, 49, 44
16, 38444, Note_on_c, 13, 49, 0
16, 38460, Note_on_c, 13, 50, 44
16, 38504, Note_on_c, 13, 50, 0
16, 38520, Note_on_c, 13, 53, 44
16, 38564, Note_on_c, 13, 53, 0
16, 38580, Note_on_c, 13, 57, 44
16, 38624, Note_on_c, 13, 57, 0
16, 38640, Note_on_c, 13, 58, 44
16, 38759, Note_on_c, 13, 58, 0
16, 38880, Note_on_c, 13, 48, 44
16, 38924, Note_on_c, 13, 48, 0
16, 38940, Note_on_c, 13, 53, 44
16, 38984, Note_on_c, 13, 53, 0
16, 39000, Note_on_c, 13, 57, 44
16, 39044, Note_on_c, 13, 57, 0
16, 39060, Note_on_c, 13, 59, 44
16, 39104, Note_on_c, 13, 59, 0
16, 39120, Note_on_c, 13, 60, 44
16, 39239, Note_on_c, 13, 60, 0
16, 39360, Note_on_c, 13, 51, 44
16, 39404, Note_on_c, 13, 51, 0
16, 39420, Note_on_c, 13, 53, 44
16, 39464, Note_on_c, 13, 53, 0
16, 39480, Note_on_c, 13, 57, 44
16, 39524, Note_on_c, 13, 57, 0
16, 39540, Note_on_c, 13, 60, 44
16, 39584, Note_on_c, 13, 60, 0
16, 39600, Note_on_c, 13, 63, 44
16, 39719, Note_on_c, 13, 63, 0
16, 39840, Note_on_c, 13, 51, 44
16, 39884, Note_on_c, 13, 51, 0
16, 39900, Note_on_c, 13, 50, 45
16, 39944, Note_on_c, 13, 50, 0
16, 39960, Note_on_c, 13, 53, 47
16, 40004, Note_on_c, 13, 53, 0
16, 40020, Note_on_c, 13, 57, 48
16, 40064, Note_on_c, 13, 57, 0
16, 40080, Note_on_c, 13, 58, 50
16, 40199, Note_on_c, 13, 58, 0
16, 40320, Note_on_c, 13, 50, 56
16, 40364, Note_on_c, 13, 50, 0
16, 40380, Note_on_c, 13, 53, 57
16, 40424, Note_on_c, 13, 53, 0
16, 40440, Note_on_c, 13, 57, 59
16, 40484, Note_on_c, 13, 57, 0
16, 40500, Note_on_c, 13, 58, 60
16, 40544, Note_on_c, 13, 58, 0
16, 40560, Note_on_c, 13, 62, 62
16, 40679, Note_on_c, 13, 62, 0
16, 40800, Note_on_c, 13, 48, 68
16, 40844, Note_on_c, 13, 48, 0
16, 40860, Note_on_c, 13, 51, 67
16, 40904, Note_on_c, 13, 51, 0
16, 40920, Note_on_c, 13, 53, 65
16, 40964, Note_on_c, 13, 53, 0
16, 40980, Note_on_c, 13, 57, 64
16, 41024, Note_on_c, 13, 57, 0
16, 41040, Note_on_c, 13, 60, 62
16, 41159, Note_on_c, 13, 60, 0
16, 41280, Note_on_c, 13, 51, 56
16, 41324, Note_on_c, 13, 51, 0
16, 41340, Note_on_c, 13, 53, 55
16, 41384, Note_on_c, 13, 53, 0
16, 41400, Note_on_c, 13, 57, 53
16, 41444, Note_on_c, 13, 57, 0
16, 41460, Note_on_c, 13, 58, 52
16, 41504, Note_on_c, 13, 58, 0
16, 41520, Note_on_c, 13, 60, 50
16, 41564, Note_on_c, 13, 60, 0
16, 41580, Note_on_c, 13, 57, 49
16, 41624, Note_on_c, 13, 57, 0
16, 41640, Note_on_c, 13, 57, 47
16, 41684, Note_on_c, 13, 57, 0
16, 41700, Note_on_c, 13, 57, 46
16, 41744, Note_on_c, 13, 57, 0
16, 41760, Note_on_c, 13, 58, 44
16, 41879, Note_on_c, 13, 58, 0
16, 42060, Note_on_c, 13, 65, 44
16, 42119, Note_on_c, 13, 65, 0
16, 42120, Note_on_c, 13, 70, 44
16, 42179, Note_on_c, 13, 70, 0
16, 42180, Note_on_c, 13, 65, 44
16, 42231, Note_on_c, 13, 65, 0
16, 42240, Note_on_c, 13, 65, 44
16, 42359, Note_on_c, 13, 65, 0
16, 43020, Note_on_c, 13, 62, 44
16, 43079, Note_on_c, 13, 62, 0
16, 43080, Note_on_c, 13, 67, 44
16, 43139, Note_on_c, 13, 67, 0
16, 43140, Note_on_c, 13, 62, 44
16, 43191, Note_on_c, 13, 62, 0
16, 43200, Note_on_c, 13, 62, 44
16, 43319, Note_on_c, 13, 62, 0
16, 43740, Note_on_c, 13, 58, 46
16, 43799, Note_on_c, 13, 58, 0
16, 43800, Note_on_c, 13, 48, 48
16, 43851, Note_on_c, 13, 48, 0
16, 43860, Note_on_c, 13, 50, 50
16, 43919, Note_on_c, 13, 50, 0
16, 43920, Note_on_c, 13, 51, 53
16, 43971, Note_on_c, 13, 51, 0
16, 43980, Note_on_c, 13, 53, 55
16, 44039, Note_on_c, 13, 53, 0
16, 44040, Note_on_c, 13, 55, 57
16, 44091, Note_on_c, 13, 55, 0
16, 44100, Note_on_c, 13, 57, 59
16, 44159, Note_on_c, 13, 57, 0
16, 44160, Note_on_c, 13, 58, 62
16, 44211, Note_on_c, 13, 58, 0
16, 44220, Note_on_c, 13, 60, 64
16, 44279, Note_on_c, 13, 60, 0
16, 44280, Note_on_c, 13, 62, 66
16, 44331, Note_on_c, 13, 62, 0
16, 44340, Note_on_c, 13, 63, 68
16, 44399, Note_on_c, 13, 63, 0
16, 44400, Note_on_c, 13, 65, 71
16, 44451, Note_on_c, 13, 65, 0
16, 44460, Note_on_c, 13, 65, 73
16, 44519, Note_on_c, 13, 65, 0
16, 44520, Note_on_c, 13, 67, 75
16, 44571, Note_on_c, 13, 67, 0
16, 44580, Note_on_c, 13, 68, 77
16, 44639, Note_on_c, 13, 68, 0
16, 44640, Note_on_c, 13, 63, 80
16, 44691, Note_on_c, 13, 63, 0
16, 44700, Note_on_c, 13, 62, 80
16, 44759, Note_on_c, 13, 62, 0
16, 44760, Note_on_c, 13, 60, 80
16, 44811, Note_on_c, 13, 60, 0
16, 44820, Note_on_c, 13, 58, 80
16, 44879, Note_on_c, 13, 58, 0
16, 44880, Note_on_c, 13, 57, 80
16, 44931, Note_on_c, 13, 57, 0
16, 44940, Note_on_c, 13, 55, 80
16, 44999, Note_on_c, 13, 55, 0
16, 45000, Note_on_c, 13, 53, 80
16, 45051, Note_on_c, 13, 53, 0
16, 45060, Note_on_c, 13, 51, 80
16, 45119, Note_on_c, 13, 51, 0
16, 45120, Note_on_c, 13, 53, 80
16, 45239, Note_on_c, 13, 53, 0
16, 45360, Note_on_c, 13, 65, 80
16, 45360, Note_on_c, 13, 60, 80
16, 45360, Note_on_c, 13, 69, 80
16, 45449, Note_on_c, 13, 65, 0
16, 45449, Note_on_c, 13, 60, 0
16, 45449, Note_on_c, 13, 69, 0
16, 46140, Note_on_c, 13, 58, 44
16, 46199, Note_on_c, 13, 58, 0
16, 46200, Note_on_c, 13, 60, 44
16, 46251, Note_on_c, 13, 60, 0
16, 46260, Note_on_c, 13, 62, 44
16, 46319, Note_on_c, 13, 62, 0
16, 46320, Note_on_c, 13, 63, 44
16, 46371, Note_on_c, 13, 63, 0
16, 46380, Note_on_c, 13, 65, 44
16, 46439, Note_on_c, 13, 65, 0
16, 46440, Note_on_c, 13, 67, 44
16, 46491, Note_on_c, 13, 67, 0
16, 46500, Note_on_c, 13, 68, 44
16, 46559, Note_on_c, 13, 68, 0
16, 46560, Note_on_c, 13, 67, 44
16, 46679, Note_on_c, 13, 67, 0
16, 47088, Control_c, 13, 11, 58
16, 47100, Note_on_c, 13, 67, 92
16, 47136, Control_c, 13, 11, 59
16, 47159, Note_on_c, 13, 67, 0
16, 47160, Note_on_c, 13, 69, 92
16, 47184, Control_c, 13, 11, 60
16, 47211, Note_on_c, 13, 69, 0
16, 47220, Note_on_c, 13, 71, 92
16, 47232, Control_c, 13, 11, 61
16, 47279, Note_on_c, 13, 71, 0
16, 47280, Note_on_c, 13, 72, 92
16, 47280, Control_c, 13, 11, 62
16, 47328, Control_c, 13, 11, 63
16, 47331, Note_on_c, 13, 72, 0
16, 47340, Note_on_c, 13, 74, 92
16, 47376, Control_c, 13, 11, 64
16, 47399, Note_on_c, 13, 74, 0
16, 47400, Note_on_c, 13, 75, 92
16, 47424, Control_c, 13, 11, 65
16, 47451, Note_on_c, 13, 75, 0
16, 47460, Note_on_c, 13, 77, 92
16, 47472, Control_c, 13, 11, 66
16, 47519, Note_on_c, 13, 77, 0
16, 47520, Note_on_c, 13, 75, 92
16, 47520, Control_c, 13, 11, 67
16, 47547, Control_c, 13, 11, 69
16, 47573, Control_c, 13, 11, 70
16, 47600, Control_c, 13, 11, 72
16, 47624, Note_on_c, 13, 75, 0
16, 47627, Control_c, 13, 11, 74
16, 47640, Note_on_c, 13, 48, 92
16, 47653, Control_c, 13, 11, 75
16, 47680, Control_c, 13, 11, 77
16, 47707, Control_c, 13, 11, 79
16, 47733, Control_c, 13, 11, 80
16, 47760, Control_c, 13, 11, 82
16, 47787, Control_c, 13, 11, 84
16, 47813, Control_c, 13, 11, 85
16, 47840, Control_c, 13, 11, 87
16, 47864, Note_on_c, 13, 48, 0
16, 47867, Control_c, 13, 11, 89
16, 47880, Note_on_c, 13, 58, 92
16, 47893, Control_c, 13, 11, 90
16, 47920, Control_c, 13, 11, 92
16, 47947, Control_c, 13, 11, 94
16, 47973, Control_c, 13, 11, 95
16, 47999, Note_on_c, 13, 58, 0
16, 48000, Note_on_c, 13, 57, 92
16, 48000, Control_c, 13, 11, 97
16, 48027, Control_c, 13, 11, 99
16, 48051, Note_on_c, 13, 57, 0
16, 48053, Control_c, 13, 11, 100
16, 48060, Note_on_c, 13, 55, 92
16, 48080, Control_c, 13, 11, 102
16, 48107, Control_c, 13, 11, 104
16, 48119, Note_on_c, 13, 55, 0
16, 48120, Note_on_c, 13, 53, 92
16, 48133, Control_c, 13, 11, 105
16, 48160, Control_c, 13, 11, 107
16, 48171, Note_on_c, 13, 53, 0
16, 48180, Note_on_c, 13, 51, 92
16, 48187, Control_c, 13, 11, 109
16, 48213, Control_c, 13, 11, 110
16, 48239, Note_on_c, 13, 51, 0
16, 48240, Note_on_c, 13, 50, 92
16, 48240, Control_c, 13, 11, 112
16, 48267, Control_c, 13, 11, 114
16, 48291, Note_on_c, 13, 50, 0
16, 48293, Control_c, 13, 11, 115
16, 48300, Note_on_c, 13, 48, 92
16, 48320, Control_c, 13, 11, 117
16, 48347, Control_c, 13, 11, 119
16, 48359, Note_on_c, 13, 48, 0
16, 48360, Note_on_c, 13, 58, 92
16, 48373, Control_c, 13, 11, 120
16, 48400, Control_c, 13, 11, 122
16, 48411, Note_on_c, 13, 58, 0
16, 48420, Note_on_c, 13, 57, 92
16, 48427, Control_c, 13, 11, 124
16, 48453, Control_c, 13, 11, 127
16, 48464, Note_on_c, 13, 57, 0
16, 48480, Note_on_c, 13, 58, 92
16, 48569, Note_on_c, 13, 58, 0
16, 48600, Note_on_c, 13, 70, 92
16, 48666, Note_on_c, 13, 70, 0
16, 48690, Note_on_c, 13, 70, 92
16, 48711, Note_on_c, 13, 70, 0
16, 48720, Note_on_c, 13, 58, 92
16, 48839, Note_on_c, 13, 58, 0
16, 48960, Note_on_c, 13, 70, 92
16, 49049, Note_on_c, 13, 70, 0
16, 49080, Note_on_c, 13, 58, 92
16, 49146, Note_on_c, 13, 58, 0
16, 49170, Note_on_c, 13, 58, 92
16, 49191, Note_on_c, 13, 58, 0
16, 49200, Note_on_c, 13, 70, 92
16, 49319, Note_on_c, 13, 70, 0
16, 50400, Note_on_c, 13, 74, 92
16, 50400, Note_on_c, 13, 62, 92
16, 50489, Note_on_c, 13, 74, 0
16, 50489, Note_on_c, 13, 62, 0
16, 50520, Note_on_c, 13, 70, 92
16, 50586, Note_on_c, 13, 70, 0
16, 50610, Note_on_c, 13, 70, 92
16, 50631, Note_on_c, 13, 70, 0
16, 50640, Note_on_c, 13, 58, 92
16, 50759, Note_on_c, 13, 58, 0
16, 50880, Note_on_c, 13, 63, 92
16, 50880, Note_on_c, 13, 75, 92
16, 50969, Note_on_c, 13, 63, 0
16, 50969, Note_on_c, 13, 75, 0
16, 51000, Note_on_c, 13, 58, 92
16, 51066, Note_on_c, 13, 58, 0
16, 51090, Note_on_c, 13, 58, 92
16, 51111, Note_on_c, 13, 58, 0
16, 51120, Note_on_c, 13, 51, 92
16, 51239, Note_on_c, 13, 51, 0
16, 51360, Note_on_c, 13, 63, 44
16, 51599, Note_on_c, 13, 63, 0
16, 51600, Note_on_c, 13, 64, 44
16, 51839, Note_on_c, 13, 64, 0
16, 51840, Note_on_c, 13, 66, 44
16, 52304, Note_on_c, 13, 66, 0
16, 52320, Note_on_c, 13, 59, 32
16, 52409, Note_on_c, 13, 59, 0
16, 52440, Note_on_c, 13, 58, 32
16, 52506, Note_on_c, 13, 58, 0
16, 52530, Note_on_c, 13, 58, 32
16, 52551, Note_on_c, 13, 58, 0
16, 52560, Note_on_c, 13, 59, 32
16, 52679, Note_on_c, 13, 59, 0
16, 52800, Note_on_c, 13, 59, 32
16, 52889, Note_on_c, 13, 59, 0
16, 52920, Note_on_c, 13, 58, 32
16, 52986, Note_on_c, 13, 58, 0
16, 53010, Note_on_c, 13, 58, 32
16, 53031, Note_on_c, 13, 58, 0
16, 53040, Note_on_c, 13, 59, 32
16, 53159, Note_on_c, 13, 59, 0
16, 53280, Note_on_c, 13, 59, 32
16, 53369, Note_on_c, 13, 59, 0
16, 53400, Note_on_c, 13, 58, 32
16, 53466, Note_on_c, 13, 58, 0
16, 53490, Note_on_c, 13, 58, 32
16, 53511, Note_on_c, 13, 58, 0
16, 53520, Note_on_c, 13, 59, 32
16, 53639, Note_on_c, 13, 59, 0
16, 53760, Note_on_c, 13, 59, 32
16, 53849, Note_on_c, 13, 59, 0
16, 53880, Note_on_c, 13, 58, 32
16, 53946, Note_on_c, 13, 58, 0
16, 53970, Note_on_c, 13, 58, 32
16, 53991, Note_on_c, 13, 58, 0
16, 54000, Note_on_c, 13, 59, 32
16, 54089, Note_on_c, 13, 59, 0
16, 54120, Note_on_c, 13, 58, 32
16, 54186, Note_on_c, 13, 58, 0
16, 54210, Note_on_c, 13, 58, 32
16, 54231, Note_on_c, 13, 58, 0
16, 54240, Note_on_c, 13, 66, 32
16, 54299, Note_on_c, 13, 66, 0
16, 54300, Note_on_c, 13, 64, 32
16, 54359, Note_on_c, 13, 64, 0
16, 54360, Note_on_c, 13, 63, 32
16, 54419, Note_on_c, 13, 63, 0
16, 54420, Note_on_c, 13, 61, 32
16, 54479, Note_on_c, 13, 61, 0
16, 54480, Note_on_c, 13, 59, 32
16, 54539, Note_on_c, 13, 59, 0
16, 54540, Note_on_c, 13, 58, 32
16, 54599, Note_on_c, 13, 58, 0
16, 54600, Note_on_c, 13, 56, 32
16, 54659, Note_on_c, 13, 56, 0
16, 54660, Note_on_c, 13, 54, 32
16, 54719, Note_on_c, 13, 54, 0
16, 54720, Note_on_c, 13, 52, 32
16, 54779, Note_on_c, 13, 52, 0
16, 54780, Note_on_c, 13, 51, 32
16, 54839, Note_on_c, 13, 51, 0
16, 54840, Note_on_c, 13, 49, 32
16, 54899, Note_on_c, 13, 49, 0
16, 54900, Note_on_c, 13, 59, 32
16, 54959, Note_on_c, 13, 59, 0
16, 54960, Note_on_c, 13, 58, 32
16, 55019, Note_on_c, 13, 58, 0
16, 55020, Note_on_c, 13, 59, 32
16, 55079, Note_on_c, 13, 59, 0
16, 55080, Note_on_c, 13, 58, 32
16, 55131, Note_on_c, 13, 58, 0
16, 55140, Note_on_c, 13, 58, 32
16, 55259, Note_on_c, 13, 58, 0
16, 55260, Note_on_c, 13, 57, 32
16, 55319, Note_on_c, 13, 57, 0
16, 55320, Note_on_c, 13, 64, 32
16, 55379, Note_on_c, 13, 64, 0
16, 55380, Note_on_c, 13, 65, 32
16, 55439, Note_on_c, 13, 65, 0
16, 55440, Note_on_c, 13, 66, 32
16, 55499, Note_on_c, 13, 66, 0
16, 55500, Note_on_c, 13, 64, 32
16, 55559, Note_on_c, 13, 64, 0
16, 55560, Note_on_c, 13, 65, 32
16, 55619, Note_on_c, 13, 65, 0
16, 55620, Note_on_c, 13, 57, 32
16, 55679, Note_on_c, 13, 57, 0
16, 55680, Note_on_c, 13, 58, 32
16, 55739, Note_on_c, 13, 58, 0
16, 55740, Note_on_c, 13, 56, 32
16, 55799, Note_on_c, 13, 56, 0
16, 55800, Note_on_c, 13, 54, 32
16, 55859, Note_on_c, 13, 54, 0
16, 55860, Note_on_c, 13, 55, 32
16, 55919, Note_on_c, 13, 55, 0
16, 55920, Note_on_c, 13, 58, 32
16, 55979, Note_on_c, 13, 58, 0
16, 55980, Note_on_c, 13, 56, 32
16, 56039, Note_on_c, 13, 56, 0
16, 56040, Note_on_c, 13, 57, 32
16, 56099, Note_on_c, 13, 57, 0
16, 56100, Note_on_c, 13, 48, 32
16, 56151, Note_on_c, 13, 48, 0
16, 56160, Note_on_c, 13, 50, 32
16, 56219, Note_on_c, 13, 50, 0
16, 56220, Note_on_c, 13, 60, 32
16, 56279, Note_on_c, 13, 60, 0
16, 56280, Note_on_c, 13, 57, 32
16, 56339, Note_on_c, 13, 57, 0
16, 56340, Note_on_c, 13, 58, 32
16, 56399, Note_on_c, 13, 58, 0
16, 56400, Note_on_c, 13, 62, 32
16, 56459, Note_on_c, 13, 62, 0
16, 56460, Note_on_c, 13, 59, 32
16, 56519, Note_on_c, 13, 59, 0
16, 56520, Note_on_c, 13, 60, 32
16, 56579, Note_on_c, 13, 60, 0
16, 56580, Note_on_c, 13, 51, 32
16, 56639, Note_on_c, 13, 51, 0
16, 56640, Note_on_c, 13, 63, 32
16, 56699, Note_on_c, 13, 63, 0
16, 56700, Note_on_c, 13, 61, 32
16, 56759, Note_on_c, 13, 61, 0
16, 56760, Note_on_c, 13, 62, 32
16, 56819, Note_on_c, 13, 62, 0
16, 56820, Note_on_c, 13, 53, 32
16, 56879, Note_on_c, 13, 53, 0
16, 56880, Note_on_c, 13, 65, 32
16, 56939, Note_on_c, 13, 65, 0
16, 56940, Note_on_c, 13, 62, 32
16, 56999, Note_on_c, 13, 62, 0
16, 57000, Note_on_c, 13, 63, 32
16, 57059, Note_on_c, 13, 63, 0
16, 57060, Note_on_c, 13, 55, 32
16, 57111, Note_on_c, 13, 55, 0
16, 57120, Note_on_c, 13, 63, 32
16, 57120, Note_on_c, 13, 60, 32
16, 57239, Note_on_c, 13, 63, 0
16, 57239, Note_on_c, 13, 60, 0
16, 57360, Note_on_c, 13, 48, 32
16, 57360, Note_on_c, 13, 60, 32
16, 57393, Note_on_c, 13, 48, 0
16, 57393, Note_on_c, 13, 60, 0
16, 57400, Note_on_c, 13, 48, 32
16, 57400, Note_on_c, 13, 60, 32
16, 57433, Note_on_c, 13, 48, 0
16, 57433, Note_on_c, 13, 60, 0
16, 57440, Note_on_c, 13, 60, 32
16, 57440, Note_on_c, 13, 48, 32
16, 57473, Note_on_c, 13, 60, 0
16, 57473, Note_on_c, 13, 48, 0
16, 57480, Note_on_c, 13, 60, 32
16, 57480, Note_on_c, 13, 48, 32
16, 57513, Note_on_c, 13, 60, 0
16, 57513, Note_on_c, 13, 48, 0
16, 57520, Note_on_c, 13, 48, 32
16, 57520, Note_on_c, 13, 60, 32
16, 57553, Note_on_c, 13, 48, 0
16, 57553, Note_on_c, 13, 60, 0
16, 57560, Note_on_c, 13, 60, 32
16, 57560, Note_on_c, 13, 48, 32
16, 57593, Note_on_c, 13, 60, 0
16, 57593, Note_on_c, 13, 48, 0
16, 57600, Note_on_c, 13, 60, 32
16, 57600, Note_on_c, 13, 48, 32
16, 57719, Note_on_c, 13, 60, 0
16, 57719, Note_on_c, 13, 48, 0
16, 57840, Note_on_c, 13, 53, 32
16, 57840, Note_on_c, 13, 48, 32
16, 57873, Note_on_c, 13, 53, 0
16, 57873, Note_on_c, 13, 48, 0
16, 57880, Note_on_c, 13, 48, 32
16, 57880, Note_on_c, 13, 53, 32
16, 57913, Note_on_c, 13, 48, 0
16, 57913, Note_on_c, 13, 53, 0
16, 57920, Note_on_c, 13, 48, 32
16, 57920, Note_on_c, 13, 53, 32
16, 57953, Note_on_c, 13, 48, 0
16, 57953, Note_on_c, 13, 53, 0
16, 57960, Note_on_c, 13, 48, 32
16, 57960, Note_on_c, 13, 53, 32
16, 57993, Note_on_c, 13, 48, 0
16, 57993, Note_on_c, 13, 53, 0
16, 58000, Note_on_c, 13, 53, 32
16, 58000, Note_on_c, 13, 48, 32
16, 58033, Note_on_c, 13, 53, 0
16, 58033, Note_on_c, 13, 48, 0
16, 58040, Note_on_c, 13, 48, 32
16, 58040, Note_on_c, 13, 53, 32
16, 58073, Note_on_c, 13, 48, 0
16, 58073, Note_on_c, 13, 53, 0
16, 58080, Note_on_c, 13, 53, 32
16, 58080, Note_on_c, 13, 50, 32
16, 58199, Note_on_c, 13, 53, 0
16, 58199, Note_on_c, 13, 50, 0
16, 58320, Note_on_c, 13, 62, 32
16, 58320, Note_on_c, 13, 53, 32
16, 58353, Note_on_c, 13, 62, 0
16, 58353, Note_on_c, 13, 53, 0
16, 58360, Note_on_c, 13, 62, 32
16, 58360, Note_on_c, 13, 53, 32
16, 58393, Note_on_c, 13, 62, 0
16, 58393, Note_on_c, 13, 53, 0
16, 58400, Note_on_c, 13, 53, 32
16, 58400, Note_on_c, 13, 62, 32
16, 58433, Note_on_c, 13, 53, 0
16, 58433, Note_on_c, 13, 62, 0
16, 58440, Note_on_c, 13, 62, 32
16, 58440, Note_on_c, 13, 53, 32
16, 58473, Note_on_c, 13, 62, 0
16, 58473, Note_on_c, 13, 53, 0
16, 58480, Note_on_c, 13, 62, 32
16, 58480, Note_on_c, 13, 53, 32
16, 58513, Note_on_c, 13, 62, 0
16, 58513, Note_on_c, 13, 53, 0
16, 58520, Note_on_c, 13, 62, 32
16, 58520, Note_on_c, 13, 53, 32
16, 58553, Note_on_c, 13, 62, 0
16, 58553, Note_on_c, 13, 53, 0
16, 58560, Note_on_c, 13, 53, 32
16, 58560, Note_on_c, 13, 62, 32
16, 58679, Note_on_c, 13, 53, 0
16, 58679, Note_on_c, 13, 62, 0
16, 58800, Note_on_c, 13, 53, 32
16, 58800, Note_on_c, 13, 50, 32
16, 58833, Note_on_c, 13, 53, 0
16, 58833, Note_on_c, 13, 50, 0
16, 58840, Note_on_c, 13, 53, 32
16, 58840, Note_on_c, 13, 50, 32
16, 58873, Note_on_c, 13, 53, 0
16, 58873, Note_on_c, 13, 50, 0
16, 58880, Note_on_c, 13, 53, 32
16, 58880, Note_on_c, 13, 50, 32
16, 58913, Note_on_c, 13, 53, 0
16, 58913, Note_on_c, 13, 50, 0
16, 58920, Note_on_c, 13, 50, 32
16, 58920, Note_on_c, 13, 53, 32
16, 58953, Note_on_c, 13, 50, 0
16, 58953, Note_on_c, 13, 53, 0
16, 58960, Note_on_c, 13, 50, 32
16, 58960, Note_on_c, 13, 53, 32
16, 58993, Note_on_c, 13, 50, 0
16, 58993, Note_on_c, 13, 53, 0
16, 59000, Note_on_c, 13, 50, 32
16, 59000, Note_on_c, 13, 53, 32
16, 59033, Note_on_c, 13, 50, 0
16, 59033, Note_on_c, 13, 53, 0
16, 59040, Note_on_c, 13, 60, 32
16, 59040, Note_on_c, 13, 51, 32
16, 59159, Note_on_c, 13, 60, 0
16, 59159, Note_on_c, 13, 51, 0
16, 59280, Note_on_c, 13, 51, 35
16, 59280, Note_on_c, 13, 60, 35
16, 59313, Note_on_c, 13, 51, 0
16, 59313, Note_on_c, 13, 60, 0
16, 59320, Note_on_c, 13, 60, 35
16, 59320, Note_on_c, 13, 51, 35
16, 59353, Note_on_c, 13, 60, 0
16, 59353, Note_on_c, 13, 51, 0
16, 59360, Note_on_c, 13, 60, 36
16, 59360, Note_on_c, 13, 51, 36
16, 59393, Note_on_c, 13, 60, 0
16, 59393, Note_on_c, 13, 51, 0
16, 59400, Note_on_c, 13, 60, 36
16, 59400, Note_on_c, 13, 51, 36
16, 59433, Note_on_c, 13, 60, 0
16, 59433, Note_on_c, 13, 51, 0
16, 59440, Note_on_c, 13, 51, 37
16, 59440, Note_on_c, 13, 60, 37
16, 59473, Note_on_c, 13, 51, 0
16, 59473, Note_on_c, 13, 60, 0
16, 59480, Note_on_c, 13, 60, 37
16, 59480, Note_on_c, 13, 51, 37
16, 59513, Note_on_c, 13, 60, 0
16, 59513, Note_on_c, 13, 51, 0
16, 59520, Note_on_c, 13, 60, 38
16, 59520, Note_on_c, 13, 48, 38
16, 59639, Note_on_c, 13, 60, 0
16, 59639, Note_on_c, 13, 48, 0
16, 59760, Note_on_c, 13, 48, 41
16, 59760, Note_on_c, 13, 60, 41
16, 59793, Note_on_c, 13, 48, 0
16, 59793, Note_on_c, 13, 60, 0
16, 59800, Note_on_c, 13, 48, 41
16, 59800, Note_on_c, 13, 60, 41
16, 59833, Note_on_c, 13, 48, 0
16, 59833, Note_on_c, 13, 60, 0
16, 59840, Note_on_c, 13, 48, 42
16, 59840, Note_on_c, 13, 60, 42
16, 59873, Note_on_c, 13, 48, 0
16, 59873, Note_on_c, 13, 60, 0
16, 59880, Note_on_c, 13, 60, 42
16, 59880, Note_on_c, 13, 48, 42
16, 59913, Note_on_c, 13, 60, 0
16, 59913, Note_on_c, 13, 48, 0
16, 59920, Note_on_c, 13, 48, 43
16, 59920, Note_on_c, 13, 60, 43
16, 59953, Note_on_c, 13, 48, 0
16, 59953, Note_on_c, 13, 60, 0
16, 59960, Note_on_c, 13, 48, 43
16, 59960, Note_on_c, 13, 60, 43
16, 59993, Note_on_c, 13, 48, 0
16, 59993, Note_on_c, 13, 60, 0
16, 60000, Note_on_c, 13, 50, 44
16, 60000, Note_on_c, 13, 53, 44
16, 60119, Note_on_c, 13, 50, 0
16, 60119, Note_on_c, 13, 53, 0
16, 60240, Note_on_c, 13, 53, 47
16, 60240, Note_on_c, 13, 62, 47
16, 60273, Note_on_c, 13, 53, 0
16, 60273, Note_on_c, 13, 62, 0
16, 60280, Note_on_c, 13, 53, 47
16, 60280, Note_on_c, 13, 62, 47
16, 60313, Note_on_c, 13, 53, 0
16, 60313, Note_on_c, 13, 62, 0
16, 60320, Note_on_c, 13, 53, 48
16, 60320, Note_on_c, 13, 62, 48
16, 60353, Note_on_c, 13, 53, 0
16, 60353, Note_on_c, 13, 62, 0
16, 60360, Note_on_c, 13, 62, 48
16, 60360, Note_on_c, 13, 53, 48
16, 60393, Note_on_c, 13, 62, 0
16, 60393, Note_on_c, 13, 53, 0
16, 60400, Note_on_c, 13, 62, 49
16, 60400, Note_on_c, 13, 53, 49
16, 60433, Note_on_c, 13, 62, 0
16, 60433, Note_on_c, 13, 53, 0
16, 60440, Note_on_c, 13, 62, 49
16, 60440, Note_on_c, 13, 53, 49
16, 60473, Note_on_c, 13, 62, 0
16, 60473, Note_on_c, 13, 53, 0
16, 60480, Note_on_c, 13, 62, 50
16, 60480, Note_on_c, 13, 53, 50
16, 60599, Note_on_c, 13, 62, 0
16, 60599, Note_on_c, 13, 53, 0
16, 60720, Note_on_c, 13, 53, 53
16, 60720, Note_on_c, 13, 50, 53
16, 60753, Note_on_c, 13, 53, 0
16, 60753, Note_on_c, 13, 50, 0
16, 60760, Note_on_c, 13, 50, 53
16, 60760, Note_on_c, 13, 53, 53
16, 60793, Note_on_c, 13, 50, 0
16, 60793, Note_on_c, 13, 53, 0
16, 60800, Note_on_c, 13, 53, 54
16, 60800, Note_on_c, 13, 50, 54
16, 60833, Note_on_c, 13, 53, 0
16, 60833, Note_on_c, 13, 50, 0
16, 60840, Note_on_c, 13, 50, 54
16, 60840, Note_on_c, 13, 53, 54
16, 60873, Note_on_c, 13, 50, 0
16, 60873, Note_on_c, 13, 53, 0
16, 60880, Note_on_c, 13, 53, 55
16, 60880, Note_on_c, 13, 50, 55
16, 60913, Note_on_c, 13, 53, 0
16, 60913, Note_on_c, 13, 50, 0
16, 60920, Note_on_c, 13, 53, 55
16, 60920, Note_on_c, 13, 50, 55
16, 60953, Note_on_c, 13, 53, 0
16, 60953, Note_on_c, 13, 50, 0
16, 60960, Note_on_c, 13, 51, 56
16, 60960, Note_on_c, 13, 60, 56
16, 61079, Note_on_c, 13, 51, 0
16, 61079, Note_on_c, 13, 60, 0
16, 61200, Note_on_c, 13, 53, 59
16, 61200, Note_on_c, 13, 60, 59
16, 61225, Note_on_c, 13, 53, 0
16, 61225, Note_on_c, 13, 60, 0
16, 61230, Note_on_c, 13, 60, 59
16, 61230, Note_on_c, 13, 53, 59
16, 61255, Note_on_c, 13, 60, 0
16, 61255, Note_on_c, 13, 53, 0
16, 61260, Note_on_c, 13, 60, 59
16, 61260, Note_on_c, 13, 53, 59
16, 61285, Note_on_c, 13, 60, 0
16, 61285, Note_on_c, 13, 53, 0
16, 61290, Note_on_c, 13, 53, 60
16, 61290, Note_on_c, 13, 60, 60
16, 61315, Note_on_c, 13, 53, 0
16, 61315, Note_on_c, 13, 60, 0
16, 61320, Note_on_c, 13, 60, 60
16, 61320, Note_on_c, 13, 53, 60
16, 61345, Note_on_c, 13, 60, 0
16, 61345, Note_on_c, 13, 53, 0
16, 61350, Note_on_c, 13, 53, 60
16, 61350, Note_on_c, 13, 60, 60
16, 61375, Note_on_c, 13, 53, 0
16, 61375, Note_on_c, 13, 60, 0
16, 61380, Note_on_c, 13, 53, 61
16, 61380, Note_on_c, 13, 60, 61
16, 61405, Note_on_c, 13, 53, 0
16, 61405, Note_on_c, 13, 60, 0
16, 61410, Note_on_c, 13, 60, 61
16, 61410, Note_on_c, 13, 53, 61
16, 61435, Note_on_c, 13, 60, 0
16, 61435, Note_on_c, 13, 53, 0
16, 61440, Note_on_c, 13, 53, 62
16, 61440, Note_on_c, 13, 62, 62
16, 61559, Note_on_c, 13, 53, 0
16, 61559, Note_on_c, 13, 62, 0
16, 61680, Note_on_c, 13, 62, 65
16, 61680, Note_on_c, 13, 53, 65
16, 61705, Note_on_c, 13, 62, 0
16, 61705, Note_on_c, 13, 53, 0
16, 61710, Note_on_c, 13, 53, 65
16, 61710, Note_on_c, 13, 62, 65
16, 61735, Note_on_c, 13, 53, 0
16, 61735, Note_on_c, 13, 62, 0
16, 61740, Note_on_c, 13, 62, 65
16, 61740, Note_on_c, 13, 53, 65
16, 61765, Note_on_c, 13, 62, 0
16, 61765, Note_on_c, 13, 53, 0
16, 61770, Note_on_c, 13, 53, 66
16, 61770, Note_on_c, 13, 62, 66
16, 61795, Note_on_c, 13, 53, 0
16, 61795, Note_on_c, 13, 62, 0
16, 61800, Note_on_c, 13, 62, 66
16, 61800, Note_on_c, 13, 53, 66
16, 61825, Note_on_c, 13, 62, 0
16, 61825, Note_on_c, 13, 53, 0
16, 61830, Note_on_c, 13, 53, 66
16, 61830, Note_on_c, 13, 62, 66
16, 61855, Note_on_c, 13, 53, 0
16, 61855, Note_on_c, 13, 62, 0
16, 61860, Note_on_c, 13, 53, 67
16, 61860, Note_on_c, 13, 62, 67
16, 61885, Note_on_c, 13, 53, 0
16, 61885, Note_on_c, 13, 62, 0
16, 61890, Note_on_c, 13, 62, 67
16, 61890, Note_on_c, 13, 53, 67
16, 61915, Note_on_c, 13, 62, 0
16, 61915, Note_on_c, 13, 53, 0
16, 61920, Note_on_c, 13, 60, 68
16, 61920, Note_on_c, 13, 51, 68
16, 61945, Note_on_c, 13, 60, 0
16, 61945, Note_on_c, 13, 51, 0
16, 61950, Note_on_c, 13, 60, 68
16, 61950, Note_on_c, 13, 51, 68
16, 61975, Note_on_c, 13, 60, 0
16, 61975, Note_on_c, 13, 51, 0
16, 61980, Note_on_c, 13, 57, 68
16, 61980, Note_on_c, 13, 48, 68
16, 62005, Note_on_c, 13, 57, 0
16, 62005, Note_on_c, 13, 48, 0
16, 62010, Note_on_c, 13, 48, 69
16, 62010, Note_on_c, 13, 57, 69
16, 62035, Note_on_c, 13, 48, 0
16, 62035, Note_on_c, 13, 57, 0
16, 62040, Note_on_c, 13, 51, 69
16, 62040, Note_on_c, 13, 60, 69
16, 62065, Note_on_c, 13, 51, 0
16, 62065, Note_on_c, 13, 60, 0
16, 62070, Note_on_c, 13, 51, 69
16, 62070, Note_on_c, 13, 60, 69
16, 62095, Note_on_c, 13, 51, 0
16, 62095, Note_on_c, 13, 60, 0
16, 62100, Note_on_c, 13, 48, 70
16, 62100, Note_on_c, 13, 57, 70
16, 62125, Note_on_c, 13, 48, 0
16, 62125, Note_on_c, 13, 57, 0
16, 62130, Note_on_c, 13, 48, 70
16, 62130, Note_on_c, 13, 57, 70
16, 62155, Note_on_c, 13, 48, 0
16, 62155, Note_on_c, 13, 57, 0
16, 62160, Note_on_c, 13, 51, 71
16, 62160, Note_on_c, 13, 60, 71
16, 62185, Note_on_c, 13, 51, 0
16, 62185, Note_on_c, 13, 60, 0
16, 62190, Note_on_c, 13, 60, 71
16, 62190, Note_on_c, 13, 51, 71
16, 62215, Note_on_c, 13, 60, 0
16, 62215, Note_on_c, 13, 51, 0
16, 62220, Note_on_c, 13, 57, 71
16, 62220, Note_on_c, 13, 48, 71
16, 62245, Note_on_c, 13, 57, 0
16, 62245, Note_on_c, 13, 48, 0
16, 62250, Note_on_c, 13, 48, 72
16, 62250, Note_on_c, 13, 57, 72
16, 62275, Note_on_c, 13, 48, 0
16, 62275, Note_on_c, 13, 57, 0
16, 62280, Note_on_c, 13, 53, 72
16, 62280, Note_on_c, 13, 62, 72
16, 62305, Note_on_c, 13, 53, 0
16, 62305, Note_on_c, 13, 62, 0
16, 62310, Note_on_c, 13, 62, 72
16, 62310, Note_on_c, 13, 53, 72
16, 62335, Note_on_c, 13, 62, 0
16, 62335, Note_on_c, 13, 53, 0
16, 62340, Note_on_c, 13, 50, 73
16, 62340, Note_on_c, 13, 65, 73
16, 62365, Note_on_c, 13, 50, 0
16, 62365, Note_on_c, 13, 65, 0
16, 62370, Note_on_c, 13, 50, 73
16, 62370, Note_on_c, 13, 65, 73
16, 62395, Note_on_c, 13, 50, 0
16, 62395, Note_on_c, 13, 65, 0
16, 62400, Note_on_c, 13, 51, 74
16, 62400, Note_on_c, 13, 60, 74
16, 62425, Note_on_c, 13, 51, 0
16, 62425, Note_on_c, 13, 60, 0
16, 62430, Note_on_c, 13, 60, 74
16, 62430, Note_on_c, 13, 51, 74
16, 62455, Note_on_c, 13, 60, 0
16, 62455, Note_on_c, 13, 51, 0
16, 62460, Note_on_c, 13, 57, 74
16, 62460, Note_on_c, 13, 48, 74
16, 62485, Note_on_c, 13, 57, 0
16, 62485, Note_on_c, 13, 48, 0
16, 62490, Note_on_c, 13, 57, 75
16, 62490, Note_on_c, 13, 48, 75
16, 62515, Note_on_c, 13, 57, 0
16, 62515, Note_on_c, 13, 48, 0
16, 62520, Note_on_c, 13, 60, 75
16, 62520, Note_on_c, 13, 51, 75
16, 62545, Note_on_c, 13, 60, 0
16, 62545, Note_on_c, 13, 51, 0
16, 62550, Note_on_c, 13, 51, 75
16, 62550, Note_on_c, 13, 60, 75
16, 62575, Note_on_c, 13, 51, 0
16, 62575, Note_on_c, 13, 60, 0
16, 62580, Note_on_c, 13, 57, 76
16, 62580, Note_on_c, 13, 48, 76
16, 62605, Note_on_c, 13, 57, 0
16, 62605, Note_on_c, 13, 48, 0
16, 62610, Note_on_c, 13, 57, 76
16, 62610, Note_on_c, 13, 48, 76
16, 62635, Note_on_c, 13, 57, 0
16, 62635, Note_on_c, 13, 48, 0
16, 62640, Note_on_c, 13, 51, 77
16, 62640, Note_on_c, 13, 63, 77
16, 62665, Note_on_c, 13, 51, 0
16, 62665, Note_on_c, 13, 63, 0
16, 62670, Note_on_c, 13, 51, 77
16, 62670, Note_on_c, 13, 63, 77
16, 62695, Note_on_c, 13, 51, 0
16, 62695, Note_on_c, 13, 63, 0
16, 62700, Note_on_c, 13, 65, 77
16, 62700, Note_on_c, 13, 48, 77
16, 62700, Note_on_c, 13, 60, 77
16, 62725, Note_on_c, 13, 65, 0
16, 62725, Note_on_c, 13, 48, 0
16, 62725, Note_on_c, 13, 60, 0
16, 62730, Note_on_c, 13, 60, 78
16, 62730, Note_on_c, 13, 65, 78
16, 62730, Note_on_c, 13, 48, 78
16, 62755, Note_on_c, 13, 60, 0
16, 62755, Note_on_c, 13, 65, 0
16, 62755, Note_on_c, 13, 48, 0
16, 62760, Note_on_c, 13, 53, 78
16, 62760, Note_on_c, 13, 65, 78
16, 62760, Note_on_c, 13, 60, 78
16, 62785, Note_on_c, 13, 53, 0
16, 62785, Note_on_c, 13, 65, 0
16, 62785, Note_on_c, 13, 60, 0
16, 62790, Note_on_c, 13, 60, 78
16, 62790, Note_on_c, 13, 65, 78
16, 62790, Note_on_c, 13, 53, 78
16, 62815, Note_on_c, 13, 60, 0
16, 62815, Note_on_c, 13, 65, 0
16, 62815, Note_on_c, 13, 53, 0
16, 62820, Note_on_c, 13, 65, 79
16, 62820, Note_on_c, 13, 62, 79
16, 62820, Note_on_c, 13, 50, 79
16, 62845, Note_on_c, 13, 65, 0
16, 62845, Note_on_c, 13, 62, 0
16, 62845, Note_on_c, 13, 50, 0
16, 62850, Note_on_c, 13, 65, 79
16, 62850, Note_on_c, 13, 50, 79
16, 62850, Note_on_c, 13, 62, 79
16, 62875, Note_on_c, 13, 65, 0
16, 62875, Note_on_c, 13, 50, 0
16, 62875, Note_on_c, 13, 62, 0
16, 62880, Note_on_c, 13, 63, 80
16, 62880, Note_on_c, 13, 65, 80
16, 62905, Note_on_c, 13, 63, 0
16, 62905, Note_on_c, 13, 65, 0
16, 62910, Note_on_c, 13, 65, 80
16, 62935, Note_on_c, 13, 65, 0
16, 62940, Note_on_c, 13, 63, 80
16, 62965, Note_on_c, 13, 63, 0
16, 62970, Note_on_c, 13, 62, 80
16, 62995, Note_on_c, 13, 62, 0
16, 63000, Note_on_c, 13, 60, 80
16, 63025, Note_on_c, 13, 60, 0
16, 63030, Note_on_c, 13, 62, 80
16, 63055, Note_on_c, 13, 62, 0
16, 63060, Note_on_c, 13, 60, 80
16, 63085, Note_on_c, 13, 60, 0
16, 63090, Note_on_c, 13, 58, 80
16, 63115, Note_on_c, 13, 58, 0
16, 63120, Note_on_c, 13, 57, 80
16, 63145, Note_on_c, 13, 57, 0
16, 63150, Note_on_c, 13, 58, 80
16, 63175, Note_on_c, 13, 58, 0
16, 63180, Note_on_c, 13, 60, 80
16, 63205, Note_on_c, 13, 60, 0
16, 63210, Note_on_c, 13, 62, 80
16, 63235, Note_on_c, 13, 62, 0
16, 63240, Note_on_c, 13, 63, 80
16, 63265, Note_on_c, 13, 63, 0
16, 63270, Note_on_c, 13, 65, 80
16, 63295, Note_on_c, 13, 65, 0
16, 63300, Note_on_c, 13, 67, 80
16, 63325, Note_on_c, 13, 67, 0
16, 63330, Note_on_c, 13, 69, 80
16, 63355, Note_on_c, 13, 69, 0
16, 63360, Note_on_c, 13, 70, 80
16, 63479, Note_on_c, 13, 70, 0
16, 63840, Note_on_c, 13, 67, 80
16, 63865, Note_on_c, 13, 67, 0
16, 63870, Note_on_c, 13, 69, 80
16, 63895, Note_on_c, 13, 69, 0
16, 63900, Note_on_c, 13, 67, 80
16, 63925, Note_on_c, 13, 67, 0
16, 63930, Note_on_c, 13, 65, 80
16, 63955, Note_on_c, 13, 65, 0
16, 63960, Note_on_c, 13, 63, 80
16, 63985, Note_on_c, 13, 63, 0
16, 63990, Note_on_c, 13, 65, 80
16, 64015, Note_on_c, 13, 65, 0
16, 64020, Note_on_c, 13, 63, 80
16, 64045, Note_on_c, 13, 63, 0
16, 64050, Note_on_c, 13, 62, 80
16, 64075, Note_on_c, 13, 62, 0
16, 64080, Note_on_c, 13, 60, 80
16, 64105, Note_on_c, 13, 60, 0
16, 64110, Note_on_c, 13, 62, 80
16, 64135, Note_on_c, 13, 62, 0
16, 64140, Note_on_c, 13, 63, 80
16, 64165, Note_on_c, 13, 63, 0
16, 64170, Note_on_c, 13, 65, 80
16, 64195, Note_on_c, 13, 65, 0
16, 64200, Note_on_c, 13, 67, 80
16, 64225, Note_on_c, 13, 67, 0
16, 64230, Note_on_c, 13, 69, 80
16, 64255, Note_on_c, 13, 69, 0
16, 64260, Note_on_c, 13, 70, 80
16, 64285, Note_on_c, 13, 70, 0
16, 64290, Note_on_c, 13, 72, 80
16, 64315, Note_on_c, 13, 72, 0
16, 64320, Note_on_c, 13, 74, 80
16, 64439, Note_on_c, 13, 74, 0
16, 64800, Note_on_c, 13, 70, 80
16, 64825, Note_on_c, 13, 70, 0
16, 64830, Note_on_c, 13, 72, 80
16, 64855, Note_on_c, 13, 72, 0
16, 64860, Note_on_c, 13, 70, 80
16, 64885, Note_on_c, 13, 70, 0
16, 64890, Note_on_c, 13, 68, 80
16, 64915, Note_on_c, 13, 68, 0
16, 64920, Note_on_c, 13, 67, 80
16, 64945, Note_on_c, 13, 67, 0
16, 64950, Note_on_c, 13, 68, 80
16, 64975, Note_on_c, 13, 68, 0
16, 64980, Note_on_c, 13, 67, 80
16, 65005, Note_on_c, 13, 67, 0
16, 65010, Note_on_c, 13, 65, 80
16, 65035, Note_on_c, 13, 65, 0
16, 65040, Note_on_c, 13, 63, 80
16, 65065, Note_on_c, 13, 63, 0
16, 65070, Note_on_c, 13, 65, 80
16, 65095, Note_on_c, 13, 65, 0
16, 65100, Note_on_c, 13, 67, 80
16, 65125, Note_on_c, 13, 67, 0
16, 65130, Note_on_c, 13, 68, 80
16, 65155, Note_on_c, 13, 68, 0
16, 65160, Note_on_c, 13, 70, 80
16, 65185, Note_on_c, 13, 70, 0
16, 65190, Note_on_c, 13, 72, 80
16, 65215, Note_on_c, 13, 72, 0
16, 65220, Note_on_c, 13, 74, 80
16, 65245, Note_on_c, 13, 74, 0
16, 65250, Note_on_c, 13, 75, 80
16, 65275, Note_on_c, 13, 75, 0
16, 65280, Note_on_c, 13, 75, 80
16, 65399, Note_on_c, 13, 75, 0
16, 65520, Note_on_c, 13, 53, 80
16, 65545, Note_on_c, 13, 53, 0
16, 65550, Note_on_c, 13, 55, 80
16, 65575, Note_on_c, 13, 55, 0
16, 65580, Note_on_c, 13, 57, 80
16, 65605, Note_on_c, 13, 57, 0
16, 65610, Note_on_c, 13, 58, 80
16, 65635, Note_on_c, 13, 58, 0
16, 65640, Note_on_c, 13, 60, 80
16, 65665, Note_on_c, 13, 60, 0
16, 65670, Note_on_c, 13, 62, 80
16, 65695, Note_on_c, 13, 62, 0
16, 65700, Note_on_c, 13, 63, 80
16, 65725, Note_on_c, 13, 63, 0
16, 65730, Note_on_c, 13, 65, 80
16, 65755, Note_on_c, 13, 65, 0
16, 65760, Note_on_c, 13, 58, 92
16, 65760, Note_on_c, 13, 62, 92
16, 65864, Note_on_c, 13, 58, 0
16, 65864, Note_on_c, 13, 62, 0
16, 65880, Note_on_c, 13, 65, 44
16, 65999, Note_on_c, 13, 65, 0
16, 66600, Note_on_c, 13, 53, 92
16, 66681, Note_on_c, 13, 53, 0
16, 66690, Note_on_c, 13, 53, 92
16, 66711, Note_on_c, 13, 53, 0
16, 66720, Note_on_c, 13, 55, 92
16, 66809, Note_on_c, 13, 55, 0
16, 66840, Note_on_c, 13, 67, 44
16, 66929, Note_on_c, 13, 67, 0
16, 67560, Note_on_c, 13, 75, 92
16, 67641, Note_on_c, 13, 75, 0
16, 67650, Note_on_c, 13, 75, 92
16, 67671, Note_on_c, 13, 75, 0
16, 67680, Note_on_c, 13, 65, 92
16, 67769, Note_on_c, 13, 65, 0
16, 67800, Note_on_c, 13, 77, 44
16, 67889, Note_on_c, 13, 77, 0
16, 68520, Note_on_c, 13, 68, 92
16, 68601, Note_on_c, 13, 68, 0
16, 68610, Note_on_c, 13, 68, 92
16, 68631, Note_on_c, 13, 68, 0
16, 68640, Note_on_c, 13, 70, 92
16, 68729, Note_on_c, 13, 70, 0
16, 68760, Note_on_c, 13, 58, 44
16, 68849, Note_on_c, 13, 58, 0
16, 70440, Note_on_c, 13, 72, 80
16, 70559, Note_on_c, 13, 72, 0
16, 70560, Note_on_c, 13, 72, 80
16, 70679, Note_on_c, 13, 72, 0
16, 70680, Note_on_c, 13, 70, 80
16, 70739, Note_on_c, 13, 70, 0
16, 70800, Note_on_c, 13, 70, 80
16, 70919, Note_on_c, 13, 70, 0
16, 70920, Note_on_c, 13, 67, 80
16, 70979, Note_on_c, 13, 67, 0
16, 71040, Note_on_c, 13, 67, 80
16, 71159, Note_on_c, 13, 67, 0
16, 71160, Note_on_c, 13, 62, 80
16, 71219, Note_on_c, 13, 62, 0
16, 71280, Note_on_c, 13, 62, 92
16, 71299, Note_on_c, 13, 62, 0
16, 71300, Note_on_c, 13, 63, 92
16, 71319, Note_on_c, 13, 63, 0
16, 71320, Note_on_c, 13, 62, 92
16, 71339, Note_on_c, 13, 62, 0
16, 71340, Note_on_c, 13, 63, 92
16, 71352, Note_on_c, 13, 63, 0
16, 71353, Note_on_c, 13, 62, 92
16, 71366, Note_on_c, 13, 62, 0
16, 71367, Note_on_c, 13, 60, 92
16, 71379, Note_on_c, 13, 60, 0
16, 71380, Note_on_c, 13, 62, 92
16, 71399, Note_on_c, 13, 62, 0
16, 71400, Note_on_c, 13, 63, 92
16, 71459, Note_on_c, 13, 63, 0
16, 71460, Note_on_c, 13, 60, 92
16, 71511, Note_on_c, 13, 60, 0
16, 71520, Note_on_c, 13, 58, 92
16, 71864, Note_on_c, 13, 58, 0
16, 71880, Note_on_c, 13, 58, 92
16, 71961, Note_on_c, 13, 58, 0
16, 71970, Note_on_c, 13, 58, 92
16, 71991, Note_on_c, 13, 58, 0
16, 72000, Note_on_c, 13, 62, 104
16, 72059, Note_on_c, 13, 62, 0
16, 72060, Note_on_c, 13, 62, 92
16, 72344, Note_on_c, 13, 62, 0
16, 72360, Note_on_c, 13, 62, 92
16, 72441, Note_on_c, 13, 62, 0
16, 72450, Note_on_c, 13, 62, 92
16, 72471, Note_on_c, 13, 62, 0
16, 72480, Note_on_c, 13, 65, 104
16, 72539, Note_on_c, 13, 65, 0
16, 72540, Note_on_c, 13, 65, 92
16, 72824, Note_on_c, 13, 65, 0
16, 72840, Note_on_c, 13, 65, 92
16, 72921, Note_on_c, 13, 65, 0
16, 72930, Note_on_c, 13, 65, 92
16, 72951, Note_on_c, 13, 65, 0
16, 72960, Note_on_c, 13, 70, 92
16, 73064, Note_on_c, 13, 70, 0
16, 73080, Note_on_c, 13, 70, 92
16, 73161, Note_on_c, 13, 70, 0
16, 73170, Note_on_c, 13, 70, 92
16, 73191, Note_on_c, 13, 70, 0
16, 73200, Note_on_c, 13, 74, 92
16, 73304, Note_on_c, 13, 74, 0
16, 73320, Note_on_c, 13, 74, 92
16, 73401, Note_on_c, 13, 74, 0
16, 73410, Note_on_c, 13, 74, 92
16, 73431, Note_on_c, 13, 74, 0
16, 73440, Note_on_c, 13, 77, 80
16, 73529, Note_on_c, 13, 77, 0
16, 73560, Note_on_c, 13, 70, 80
16, 73641, Note_on_c, 13, 70, 0
16, 73650, Note_on_c, 13, 70, 80
16, 73671, Note_on_c, 13, 70, 0
16, 73680, Note_on_c, 13, 74, 80
16, 73769, Note_on_c, 13, 74, 0
16, 73800, Note_on_c, 13, 65, 80
16, 73881, Note_on_c, 13, 65, 0
16, 73890, Note_on_c, 13, 65, 80
16, 73911, Note_on_c, 13, 65, 0
16, 73920, Note_on_c, 13, 70, 80
16, 74009, Note_on_c, 13, 70, 0
16, 74040, Note_on_c, 13, 62, 80
16, 74121, Note_on_c, 13, 62, 0
16, 74130, Note_on_c, 13, 62, 80
16, 74151, Note_on_c, 13, 62, 0
16, 74160, Note_on_c, 13, 65, 80
16, 74249, Note_on_c, 13, 65, 0
16, 74280, Note_on_c, 13, 58, 80
16, 74361, Note_on_c, 13, 58, 0
16, 74370, Note_on_c, 13, 58, 80
16, 74391, Note_on_c, 13, 58, 0
16, 74400, Note_on_c, 13, 62, 80
16, 74489, Note_on_c, 13, 62, 0
16, 74520, Note_on_c, 13, 53, 80
16, 74601, Note_on_c, 13, 53, 0
16, 74610, Note_on_c, 13, 53, 80
16, 74631, Note_on_c, 13, 53, 0
16, 74640, Note_on_c, 13, 58, 80
16, 74729, Note_on_c, 13, 58, 0
16, 74760, Note_on_c, 13, 50, 80
16, 74841, Note_on_c, 13, 50, 0
16, 74850, Note_on_c, 13, 50, 80
16, 74871, Note_on_c, 13, 50, 0
16, 74880, Note_on_c, 13, 53, 80
16, 74969, Note_on_c, 13, 53, 0
16, 75000, Note_on_c, 13, 58, 80
16, 75081, Note_on_c, 13, 58, 0
16, 75090, Note_on_c, 13, 58, 80
16, 75111, Note_on_c, 13, 58, 0
16, 75120, Note_on_c, 13, 70, 80
16, 75209, Note_on_c, 13, 70, 0
16, 75240, Note_on_c, 13, 58, 80
16, 75321, Note_on_c, 13, 58, 0
16, 75330, Note_on_c, 13, 58, 80
16, 75351, Note_on_c, 13, 58, 0
16, 75360, Note_on_c, 13, 70, 80
16, 75479, Note_on_c, 13, 70, 0
16, 75810, Control_c, 13, 11, 127
16, 75810, Note_on_c, 13, 70, 80
16, 75831, Note_on_c, 13, 70, 0
16, 75837, Control_c, 13, 11, 124
16, 75840, Note_on_c, 13, 58, 80
16, 75863, Control_c, 13, 11, 120
16, 75890, Control_c, 13, 11, 117
16, 75917, Control_c, 13, 11, 114
16, 75943, Control_c, 13, 11, 110
16, 75970, Control_c, 13, 11, 107
16, 75997, Control_c, 13, 11, 104
16, 76023, Control_c, 13, 11, 100
16, 76050, Control_c, 13, 11, 97
16, 76077, Control_c, 13, 11, 94
16, 76079, Note_on_c, 13, 58, 0
16, 76263, Control_c, 13, 11, 127
16, 76290, Note_on_c, 13, 58, 44
16, 76311, Note_on_c, 13, 58, 0
16, 76320, Note_on_c, 13, 57, 32
16, 76559, Note_on_c, 13, 57, 0
16, 79170, Note_on_c, 13, 64, 32
16, 79191, Note_on_c, 13, 64, 0
16, 79200, Note_on_c, 13, 57, 32
16, 79439, Note_on_c, 13, 57, 0
16, 81090, Note_on_c, 13, 64, 32
16, 81111, Note_on_c, 13, 64, 0
16, 81120, Note_on_c, 13, 57, 32
16, 81344, Note_on_c, 13, 57, 0
16, 81360, Note_on_c, 13, 57, 32
16, 81360, Note_on_c, 13, 54, 32
16, 81479, Note_on_c, 13, 57, 0
16, 81479, Note_on_c, 13, 54, 0
16, 83010, Note_on_c, 13, 57, 32
16, 83031, Note_on_c, 13, 57, 0
16, 83040, Note_on_c, 13, 54, 32
16, 83159, Note_on_c, 13, 54, 0
16, 83280, Note_on_c, 13, 69, 32
16, 83280, Note_on_c, 13, 62, 32
16, 83399, Note_on_c, 13, 69, 0
16, 83399, Note_on_c, 13, 62, 0
16, 84930, Note_on_c, 13, 69, 32
16, 84930, Note_on_c, 13, 66, 32
16, 84951, Note_on_c, 13, 69, 0
16, 84951, Note_on_c, 13, 66, 0
16, 84960, Note_on_c, 13, 54, 32
16, 85079, Note_on_c, 13, 54, 0
16, 85200, Note_on_c, 13, 55, 32
16, 85200, Note_on_c, 13, 50, 32
16, 85319, Note_on_c, 13, 55, 0
16, 85319, Note_on_c, 13, 50, 0
16, 85650, Note_on_c, 13, 74, 32
16, 85671, Note_on_c, 13, 74, 0
16, 85680, Note_on_c, 13, 67, 32
16, 85799, Note_on_c, 13, 67, 0
16, 85890, Note_on_c, 13, 62, 32
16, 85911, Note_on_c, 13, 62, 0
16, 85920, Note_on_c, 13, 58, 32
16, 86024, Note_on_c, 13, 58, 0
16, 86040, Note_on_c, 13, 55, 32
16, 86159, Note_on_c, 13, 55, 0
16, 86280, Note_on_c, 13, 58, 32
16, 86399, Note_on_c, 13, 58, 0
16, 86520, Note_on_c, 13, 62, 32
16, 86639, Note_on_c, 13, 62, 0
16, 86760, Note_on_c, 13, 67, 32
16, 86760, Note_on_c, 13, 55, 32
16, 86879, Note_on_c, 13, 67, 0
16, 86879, Note_on_c, 13, 55, 0
16, 87000, Note_on_c, 13, 55, 32
16, 87119, Note_on_c, 13, 55, 0
16, 87240, Note_on_c, 13, 62, 32
16, 87359, Note_on_c, 13, 62, 0
16, 87480, Note_on_c, 13, 67, 32
16, 87599, Note_on_c, 13, 67, 0
16, 87720, Note_on_c, 13, 74, 32
16, 87839, Note_on_c, 13, 74, 0
16, 87960, Note_on_c, 13, 54, 32
16, 88079, Note_on_c, 13, 54, 0
16, 88200, Note_on_c, 13, 57, 32
16, 88319, Note_on_c, 13, 57, 0
16, 88440, Note_on_c, 13, 60, 32
16, 88559, Note_on_c, 13, 60, 0
16, 88680, Note_on_c, 13, 62, 32
16, 88799, Note_on_c, 13, 62, 0
16, 88920, Note_on_c, 13, 62, 39
16, 89039, Note_on_c, 13, 62, 0
16, 89160, Note_on_c, 13, 69, 54
16, 89279, Note_on_c, 13, 69, 0
16, 89400, Note_on_c, 13, 72, 69
16, 89519, Note_on_c, 13, 72, 0
16, 89700, Note_on_c, 13, 57, 88
16, 89729, Note_on_c, 13, 57, 0
16, 89730, Note_on_c, 13, 54, 90
16, 89751, Note_on_c, 13, 54, 0
16, 89760, Note_on_c, 13, 48, 92
16, 90104, Note_on_c, 13, 48, 0
16, 90120, Note_on_c, 13, 60, 92
16, 90201, Note_on_c, 13, 60, 0
16, 90210, Note_on_c, 13, 60, 92
16, 90231, Note_on_c, 13, 60, 0
16, 90240, Note_on_c, 13, 63, 104
16, 90299, Note_on_c, 13, 63, 0
16, 90300, Note_on_c, 13, 63, 92
16, 90584, Note_on_c, 13, 63, 0
16, 90600, Note_on_c, 13, 57, 92
16, 90681, Note_on_c, 13, 57, 0
16, 90690, Note_on_c, 13, 57, 92
16, 90711, Note_on_c, 13, 57, 0
16, 90720, Note_on_c, 13, 60, 104
16, 90824, Note_on_c, 13, 60, 0
16, 90840, Note_on_c, 13, 54, 92
16, 90921, Note_on_c, 13, 54, 0
16, 90930, Note_on_c, 13, 54, 92
16, 90951, Note_on_c, 13, 54, 0
16, 90960, Note_on_c, 13, 57, 104
16, 91064, Note_on_c, 13, 57, 0
16, 91080, Note_on_c, 13, 48, 92
16, 91161, Note_on_c, 13, 48, 0
16, 91170, Note_on_c, 13, 48, 92
16, 91191, Note_on_c, 13, 48, 0
16, 91200, Note_on_c, 13, 51, 104
16, 91304, Note_on_c, 13, 51, 0
16, 91320, Note_on_c, 13, 57, 92
16, 91401, Note_on_c, 13, 57, 0
16, 91410, Note_on_c, 13, 57, 92
16, 91431, Note_on_c, 13, 57, 0
16, 91440, Note_on_c, 13, 62, 104
16, 91544, Note_on_c, 13, 62, 0
16, 91560, Note_on_c, 13, 50, 92
16, 91641, Note_on_c, 13, 50, 0
16, 91650, Note_on_c, 13, 50, 92
16, 91671, Note_on_c, 13, 50, 0
16, 91680, Note_on_c, 13, 55, 44
16, 91799, Note_on_c, 13, 55, 0
16, 94530, Note_on_c, 13, 74, 44
16, 94551, Note_on_c, 13, 74, 0
16, 94560, Note_on_c, 13, 70, 44
16, 95001, Note_on_c, 13, 70, 0
16, 95010, Note_on_c, 13, 67, 44
16, 95031, Note_on_c, 13, 67, 0
16, 95040, Note_on_c, 13, 62, 44
16, 95241, Note_on_c, 13, 62, 0
16, 95250, Note_on_c, 13, 58, 44
16, 95271, Note_on_c, 13, 58, 0
16, 95280, Note_on_c, 13, 55, 44
16, 95399, Note_on_c, 13, 55, 0
16, 95460, Note_on_c, 13, 62, 44
16, 95489, Note_on_c, 13, 62, 0
16, 95490, Note_on_c, 13, 58, 44
16, 95511, Note_on_c, 13, 58, 0
16, 95520, Note_on_c, 13, 55, 44
16, 95639, Note_on_c, 13, 55, 0
16, 95940, Note_on_c, 13, 62, 44
16, 95969, Note_on_c, 13, 62, 0
16, 95970, Note_on_c, 13, 58, 44
16, 95991, Note_on_c, 13, 58, 0
16, 96000, Note_on_c, 13, 55, 44
16, 96119, Note_on_c, 13, 55, 0
16, 96180, Note_on_c, 13, 65, 44
16, 96209, Note_on_c, 13, 65, 0
16, 96210, Note_on_c, 13, 62, 44
16, 96231, Note_on_c, 13, 62, 0
16, 96240, Note_on_c, 13, 59, 44
16, 96441, Note_on_c, 13, 59, 0
16, 96450, Note_on_c, 13, 68, 44
16, 96471, Note_on_c, 13, 68, 0
16, 96480, Note_on_c, 13, 67, 44
16, 96921, Note_on_c, 13, 67, 0
16, 96930, Note_on_c, 13, 65, 44
16, 96951, Note_on_c, 13, 65, 0
16, 96960, Note_on_c, 13, 62, 44
16, 97161, Note_on_c, 13, 62, 0
16, 97170, Note_on_c, 13, 59, 44
16, 97191, Note_on_c, 13, 59, 0
16, 97200, Note_on_c, 13, 55, 44
16, 97319, Note_on_c, 13, 55, 0
16, 97380, Note_on_c, 13, 53, 44
16, 97409, Note_on_c, 13, 53, 0
16, 97410, Note_on_c, 13, 50, 44
16, 97431, Note_on_c, 13, 50, 0
16, 97440, Note_on_c, 13, 59, 44
16, 97559, Note_on_c, 13, 59, 0
16, 97860, Note_on_c, 13, 65, 59
16, 97889, Note_on_c, 13, 65, 0
16, 97890, Note_on_c, 13, 62, 60
16, 97911, Note_on_c, 13, 62, 0
16, 97920, Note_on_c, 13, 59, 62
16, 98039, Note_on_c, 13, 59, 0
16, 98100, Note_on_c, 13, 53, 68
16, 98129, Note_on_c, 13, 53, 0
16, 98130, Note_on_c, 13, 50, 69
16, 98151, Note_on_c, 13, 50, 0
16, 98160, Note_on_c, 13, 50, 71
16, 98160, Note_on_c, 13, 59, 71
16, 98193, Note_on_c, 13, 50, 0
16, 98193, Note_on_c, 13, 59, 0
16, 98200, Note_on_c, 13, 59, 72
16, 98200, Note_on_c, 13, 50, 72
16, 98233, Note_on_c, 13, 59, 0
16, 98233, Note_on_c, 13, 50, 0
16, 98240, Note_on_c, 13, 59, 74
16, 98240, Note_on_c, 13, 50, 74
16, 98273, Note_on_c, 13, 59, 0
16, 98273, Note_on_c, 13, 50, 0
16, 98280, Note_on_c, 13, 59, 75
16, 98280, Note_on_c, 13, 62, 75
16, 98313, Note_on_c, 13, 59, 0
16, 98313, Note_on_c, 13, 62, 0
16, 98320, Note_on_c, 13, 62, 77
16, 98320, Note_on_c, 13, 59, 77
16, 98353, Note_on_c, 13, 62, 0
16, 98353, Note_on_c, 13, 59, 0
16, 98360, Note_on_c, 13, 59, 78
16, 98360, Note_on_c, 13, 62, 78
16, 98393, Note_on_c, 13, 59, 0
16, 98393, Note_on_c, 13, 62, 0
16, 98400, Note_on_c, 13, 56, 80
16, 98400, Note_on_c, 13, 53, 80
16, 98425, Note_on_c, 13, 56, 0
16, 98425, Note_on_c, 13, 53, 0
16, 98430, Note_on_c, 13, 59, 80
16, 98430, Note_on_c, 13, 68, 80
16, 98455, Note_on_c, 13, 59, 0
16, 98455, Note_on_c, 13, 68, 0
16, 98460, Note_on_c, 13, 59, 80
16, 98460, Note_on_c, 13, 68, 80
16, 98485, Note_on_c, 13, 59, 0
16, 98485, Note_on_c, 13, 68, 0
16, 98490, Note_on_c, 13, 59, 80
16, 98490, Note_on_c, 13, 68, 80
16, 98515, Note_on_c, 13, 59, 0
16, 98515, Note_on_c, 13, 68, 0
16, 98520, Note_on_c, 13, 59, 80
16, 98520, Note_on_c, 13, 68, 80
16, 98545, Note_on_c, 13, 59, 0
16, 98545, Note_on_c, 13, 68, 0
16, 98550, Note_on_c, 13, 68, 80
16, 98550, Note_on_c, 13, 59, 80
16, 98575, Note_on_c, 13, 68, 0
16, 98575, Note_on_c, 13, 59, 0
16, 98580, Note_on_c, 13, 68, 80
16, 98580, Note_on_c, 13, 59, 80
16, 98605, Note_on_c, 13, 68, 0
16, 98605, Note_on_c, 13, 59, 0
16, 98610, Note_on_c, 13, 68, 80
16, 98610, Note_on_c, 13, 59, 80
16, 98635, Note_on_c, 13, 68, 0
16, 98635, Note_on_c, 13, 59, 0
16, 98640, Note_on_c, 13, 68, 80
16, 98640, Note_on_c, 13, 59, 80
16, 98665, Note_on_c, 13, 68, 0
16, 98665, Note_on_c, 13, 59, 0
16, 98670, Note_on_c, 13, 68, 80
16, 98670, Note_on_c, 13, 59, 80
16, 98695, Note_on_c, 13, 68, 0
16, 98695, Note_on_c, 13, 59, 0
16, 98700, Note_on_c, 13, 59, 80
16, 98700, Note_on_c, 13, 68, 80
16, 98725, Note_on_c, 13, 59, 0
16, 98725, Note_on_c, 13, 68, 0
16, 98730, Note_on_c, 13, 59, 80
16, 98730, Note_on_c, 13, 68, 80
16, 98755, Note_on_c, 13, 59, 0
16, 98755, Note_on_c, 13, 68, 0
16, 98760, Note_on_c, 13, 59, 80
16, 98760, Note_on_c, 13, 68, 80
16, 98785, Note_on_c, 13, 59, 0
16, 98785, Note_on_c, 13, 68, 0
16, 98790, Note_on_c, 13, 68, 80
16, 98790, Note_on_c, 13, 59, 80
16, 98815, Note_on_c, 13, 68, 0
16, 98815, Note_on_c, 13, 59, 0
16, 98820, Note_on_c, 13, 59, 80
16, 98820, Note_on_c, 13, 68, 80
16, 98845, Note_on_c, 13, 59, 0
16, 98845, Note_on_c, 13, 68, 0
16, 98850, Note_on_c, 13, 68, 80
16, 98850, Note_on_c, 13, 59, 80
16, 98875, Note_on_c, 13, 68, 0
16, 98875, Note_on_c, 13, 59, 0
16, 98880, Note_on_c, 13, 68, 80
16, 98880, Note_on_c, 13, 59, 80
16, 98905, Note_on_c, 13, 68, 0
16, 98905, Note_on_c, 13, 59, 0
16, 98910, Note_on_c, 13, 59, 80
16, 98910, Note_on_c, 13, 68, 80
16, 98935, Note_on_c, 13, 59, 0
16, 98935, Note_on_c, 13, 68, 0
16, 98940, Note_on_c, 13, 68, 80
16, 98940, Note_on_c, 13, 59, 80
16, 98965, Note_on_c, 13, 68, 0
16, 98965, Note_on_c, 13, 59, 0
16, 98970, Note_on_c, 13, 59, 80
16, 98970, Note_on_c, 13, 68, 80
16, 98995, Note_on_c, 13, 59, 0
16, 98995, Note_on_c, 13, 68, 0
16, 99000, Note_on_c, 13, 59, 80
16, 99000, Note_on_c, 13, 68, 80
16, 99025, Note_on_c, 13, 59, 0
16, 99025, Note_on_c, 13, 68, 0
16, 99030, Note_on_c, 13, 68, 80
16, 99030, Note_on_c, 13, 59, 80
16, 99055, Note_on_c, 13, 68, 0
16, 99055, Note_on_c, 13, 59, 0
16, 99060, Note_on_c, 13, 59, 80
16, 99060, Note_on_c, 13, 68, 80
16, 99085, Note_on_c, 13, 59, 0
16, 99085, Note_on_c, 13, 68, 0
16, 99090, Note_on_c, 13, 68, 80
16, 99090, Note_on_c, 13, 59, 80
16, 99115, Note_on_c, 13, 68, 0
16, 99115, Note_on_c, 13, 59, 0
16, 99120, Note_on_c, 13, 68, 80
16, 99120, Note_on_c, 13, 59, 80
16, 99145, Note_on_c, 13, 68, 0
16, 99145, Note_on_c, 13, 59, 0
16, 99150, Note_on_c, 13, 59, 80
16, 99150, Note_on_c, 13, 68, 80
16, 99175, Note_on_c, 13, 59, 0
16, 99175, Note_on_c, 13, 68, 0
16, 99180, Note_on_c, 13, 68, 80
16, 99180, Note_on_c, 13, 59, 80
16, 99205, Note_on_c, 13, 68, 0
16, 99205, Note_on_c, 13, 59, 0
16, 99210, Note_on_c, 13, 59, 80
16, 99210, Note_on_c, 13, 68, 80
16, 99235, Note_on_c, 13, 59, 0
16, 99235, Note_on_c, 13, 68, 0
16, 99240, Note_on_c, 13, 59, 80
16, 99240, Note_on_c, 13, 68, 80
16, 99265, Note_on_c, 13, 59, 0
16, 99265, Note_on_c, 13, 68, 0
16, 99270, Note_on_c, 13, 59, 80
16, 99270, Note_on_c, 13, 68, 80
16, 99295, Note_on_c, 13, 59, 0
16, 99295, Note_on_c, 13, 68, 0
16, 99300, Note_on_c, 13, 68, 80
16, 99300, Note_on_c, 13, 59, 80
16, 99325, Note_on_c, 13, 68, 0
16, 99325, Note_on_c, 13, 59, 0
16, 99330, Note_on_c, 13, 68, 80
16, 99330, Note_on_c, 13, 59, 80
16, 99355, Note_on_c, 13, 68, 0
16, 99355, Note_on_c, 13, 59, 0
16, 99360, Note_on_c, 13, 65, 92
16, 99464, Note_on_c, 13, 65, 0
16, 99480, Note_on_c, 13, 71, 80
16, 99561, Note_on_c, 13, 71, 0
16, 99570, Note_on_c, 13, 71, 80
16, 99591, Note_on_c, 13, 71, 0
16, 99600, Note_on_c, 13, 74, 92
16, 99704, Note_on_c, 13, 74, 0
16, 99720, Note_on_c, 13, 65, 80
16, 99801, Note_on_c, 13, 65, 0
16, 99810, Note_on_c, 13, 65, 80
16, 99831, Note_on_c, 13, 65, 0
16, 99840, Note_on_c, 13, 68, 92
16, 99944, Note_on_c, 13, 68, 0
16, 99960, Note_on_c, 13, 62, 80
16, 100041, Note_on_c, 13, 62, 0
16, 100050, Note_on_c, 13, 62, 80
16, 100071, Note_on_c, 13, 62, 0
16, 100080, Note_on_c, 13, 67, 92
16, 100184, Note_on_c, 13, 67, 0
16, 100200, Note_on_c, 13, 55, 80
16, 100281, Note_on_c, 13, 55, 0
16, 100290, Note_on_c, 13, 55, 80
16, 100311, Note_on_c, 13, 55, 0
16, 100320, Note_on_c, 13, 48, 44
16, 100439, Note_on_c, 13, 48, 0
16, 102960, Control_c, 13, 11, 67
16, 103200, Control_c, 13, 11, 67
16, 103200, Note_on_c, 13, 60, 80
16, 103223, Control_c, 13, 11, 69
16, 103247, Control_c, 13, 11, 70
16, 103270, Control_c, 13, 11, 72
16, 103293, Control_c, 13, 11, 74
16, 103317, Control_c, 13, 11, 75
16, 103340, Control_c, 13, 11, 77
16, 103363, Control_c, 13, 11, 79
16, 103379, Note_on_c, 13, 60, 0
16, 103387, Control_c, 13, 11, 80
16, 103410, Control_c, 13, 11, 82
16, 103433, Control_c, 13, 11, 84
16, 103440, Note_on_c, 13, 60, 80
16, 103457, Control_c, 13, 11, 85
16, 103480, Control_c, 13, 11, 87
16, 103503, Control_c, 13, 11, 89
16, 103527, Control_c, 13, 11, 90
16, 103550, Control_c, 13, 11, 92
16, 103573, Control_c, 13, 11, 94
16, 103597, Control_c, 13, 11, 95
16, 103619, Note_on_c, 13, 60, 0
16, 103620, Control_c, 13, 11, 97
16, 103643, Control_c, 13, 11, 99
16, 103667, Control_c, 13, 11, 100
16, 103680, Note_on_c, 13, 65, 80
16, 103690, Control_c, 13, 11, 102
16, 103713, Control_c, 13, 11, 104
16, 103737, Control_c, 13, 11, 105
16, 103760, Control_c, 13, 11, 107
16, 103783, Control_c, 13, 11, 109
16, 103807, Control_c, 13, 11, 110
16, 103830, Control_c, 13, 11, 112
16, 103853, Control_c, 13, 11, 114
16, 103859, Note_on_c, 13, 65, 0
16, 103877, Control_c, 13, 11, 115
16, 103900, Control_c, 13, 11, 117
16, 103920, Note_on_c, 13, 62, 80
16, 103923, Control_c, 13, 11, 119
16, 103947, Control_c, 13, 11, 120
16, 103970, Control_c, 13, 11, 122
16, 103993, Control_c, 13, 11, 124
16, 104017, Control_c, 13, 11, 127
16, 104099, Note_on_c, 13, 62, 0
16, 107100, Note_on_c, 13, 62, 80
16, 107144, Note_on_c, 13, 62, 0
16, 107160, Note_on_c, 13, 60, 80
16, 107204, Note_on_c, 13, 60, 0
16, 107220, Note_on_c, 13, 58, 80
16, 107264, Note_on_c, 13, 58, 0
16, 107280, Note_on_c, 13, 57, 80
16, 107324, Note_on_c, 13, 57, 0
16, 107340, Note_on_c, 13, 55, 80
16, 107384, Note_on_c, 13, 55, 0
16, 107400, Note_on_c, 13, 54, 80
16, 107444, Note_on_c, 13, 54, 0
16, 107460, Note_on_c, 13, 55, 80
16, 107504, Note_on_c, 13, 55, 0
16, 107520, Note_on_c, 13, 55, 80
16, 107579, Note_on_c, 13, 55, 0
16, 107580, Note_on_c, 13, 54, 80
16, 107631, Note_on_c, 13, 54, 0
16, 107640, Note_on_c, 13, 54, 80
16, 107684, Note_on_c, 13, 54, 0
16, 107700, Note_on_c, 13, 57, 80
16, 107744, Note_on_c, 13, 57, 0
16, 107760, Note_on_c, 13, 54, 80
16, 107804, Note_on_c, 13, 54, 0
16, 107820, Note_on_c, 13, 57, 80
16, 107864, Note_on_c, 13, 57, 0
16, 107880, Note_on_c, 13, 55, 80
16, 107924, Note_on_c, 13, 55, 0
16, 107940, Note_on_c, 13, 54, 80
16, 107984, Note_on_c, 13, 54, 0
16, 108000, Note_on_c, 13, 57, 80
16, 108059, Note_on_c, 13, 57, 0
16, 108060, Note_on_c, 13, 55, 80
16, 108111, Note_on_c, 13, 55, 0
16, 108120, Note_on_c, 13, 55, 80
16, 108164, Note_on_c, 13, 55, 0
16, 108180, Note_on_c, 13, 58, 80
16, 108224, Note_on_c, 13, 58, 0
16, 108240, Note_on_c, 13, 58, 80
16, 108284, Note_on_c, 13, 58, 0
16, 108300, Note_on_c, 13, 58, 80
16, 108344, Note_on_c, 13, 58, 0
16, 108360, Note_on_c, 13, 57, 80
16, 108404, Note_on_c, 13, 57, 0
16, 108420, Note_on_c, 13, 55, 80
16, 108464, Note_on_c, 13, 55, 0
16, 108480, Note_on_c, 13, 58, 80
16, 108539, Note_on_c, 13, 58, 0
16, 108540, Note_on_c, 13, 57, 80
16, 108591, Note_on_c, 13, 57, 0
16, 108600, Note_on_c, 13, 57, 80
16, 108644, Note_on_c, 13, 57, 0
16, 108660, Note_on_c, 13, 60, 80
16, 108704, Note_on_c, 13, 60, 0
16, 108720, Note_on_c, 13, 57, 80
16, 108764, Note_on_c, 13, 57, 0
16, 108780, Note_on_c, 13, 60, 80
16, 108824, Note_on_c, 13, 60, 0
16, 108840, Note_on_c, 13, 58, 80
16, 108884, Note_on_c, 13, 58, 0
16, 108900, Note_on_c, 13, 57, 80
16, 108944, Note_on_c, 13, 57, 0
16, 108960, Note_on_c, 13, 60, 80
16, 109019, Note_on_c, 13, 60, 0
16, 109020, Note_on_c, 13, 58, 80
16, 109071, Note_on_c, 13, 58, 0
16, 109080, Note_on_c, 13, 58, 80
16, 109124, Note_on_c, 13, 58, 0
16, 109140, Note_on_c, 13, 57, 80
16, 109184, Note_on_c, 13, 57, 0
16, 109200, Note_on_c, 13, 57, 80
16, 109259, Note_on_c, 13, 57, 0
16, 109260, Note_on_c, 13, 55, 80
16, 109311, Note_on_c, 13, 55, 0
16, 109320, Note_on_c, 13, 55, 80
16, 109364, Note_on_c, 13, 55, 0
16, 109380, Note_on_c, 13, 53, 80
16, 109424, Note_on_c, 13, 53, 0
16, 109440, Note_on_c, 13, 53, 80
16, 109499, Note_on_c, 13, 53, 0
16, 109500, Note_on_c, 13, 51, 80
16, 109551, Note_on_c, 13, 51, 0
16, 109560, Note_on_c, 13, 51, 80
16, 109604, Note_on_c, 13, 51, 0
16, 109620, Note_on_c, 13, 50, 80
16, 109664, Note_on_c, 13, 50, 0
16, 109680, Note_on_c, 13, 48, 80
16, 109724, Note_on_c, 13, 48, 0
16, 109740, Note_on_c, 13, 62, 80
16, 109784, Note_on_c, 13, 62, 0
16, 109800, Note_on_c, 13, 60, 80
16, 109844, Note_on_c, 13, 60, 0
16, 109860, Note_on_c, 13, 58, 80
16, 109904, Note_on_c, 13, 58, 0
16, 109920, Note_on_c, 13, 58, 80
16, 109979, Note_on_c, 13, 58, 0
16, 109980, Note_on_c, 13, 57, 80
16, 110031, Note_on_c, 13, 57, 0
16, 110040, Note_on_c, 13, 57, 80
16, 110084, Note_on_c, 13, 57, 0
16, 110100, Note_on_c, 13, 55, 80
16, 110144, Note_on_c, 13, 55, 0
16, 110160, Note_on_c, 13, 55, 80
16, 110219, Note_on_c, 13, 55, 0
16, 110220, Note_on_c, 13, 53, 80
16, 110271, Note_on_c, 13, 53, 0
16, 110280, Note_on_c, 13, 53, 80
16, 110324, Note_on_c, 13, 53, 0
16, 110340, Note_on_c, 13, 57, 80
16, 110384, Note_on_c, 13, 57, 0
16, 110400, Note_on_c, 13, 57, 80
16, 110459, Note_on_c, 13, 57, 0
16, 110460, Note_on_c, 13, 58, 80
16, 110511, Note_on_c, 13, 58, 0
16, 110520, Note_on_c, 13, 58, 80
16, 110564, Note_on_c, 13, 58, 0
16, 110580, Note_on_c, 13, 60, 80
16, 110624, Note_on_c, 13, 60, 0
16, 110640, Note_on_c, 13, 60, 80
16, 110684, Note_on_c, 13, 60, 0
16, 110700, Note_on_c, 13, 53, 80
16, 110744, Note_on_c, 13, 53, 0
16, 110760, Note_on_c, 13, 65, 80
16, 111224, Note_on_c, 13, 65, 0
16, 111240, Note_on_c, 13, 53, 92
16, 111299, Note_on_c, 13, 53, 0
16, 111300, Note_on_c, 13, 53, 80
16, 111704, Note_on_c, 13, 53, 0
16, 111720, Note_on_c, 13, 53, 92
16, 111779, Note_on_c, 13, 53, 0
16, 111780, Note_on_c, 13, 53, 80
16, 111944, Note_on_c, 13, 53, 0
16, 111960, Note_on_c, 13, 65, 92
16, 112019, Note_on_c, 13, 65, 0
16, 112020, Note_on_c, 13, 65, 80
16, 112184, Note_on_c, 13, 65, 0
16, 112200, Note_on_c, 13, 53, 80
16, 112424, Note_on_c, 13, 53, 0
16, 112440, Note_on_c, 13, 65, 92
16, 112499, Note_on_c, 13, 65, 0
16, 112500, Note_on_c, 13, 65, 80
16, 112604, Note_on_c, 13, 65, 0
16, 112620, Note_on_c, 13, 69, 80
16, 112664, Note_on_c, 13, 69, 0
16, 112680, Note_on_c, 13, 67, 80
16, 112724, Note_on_c, 13, 67, 0
16, 112740, Note_on_c, 13, 65, 80
16, 112784, Note_on_c, 13, 65, 0
16, 112800, Note_on_c, 13, 70, 80
16, 112844, Note_on_c, 13, 70, 0
16, 112860, Note_on_c, 13, 62, 80
16, 112904, Note_on_c, 13, 62, 0
16, 112920, Note_on_c, 13, 60, 80
16, 112964, Note_on_c, 13, 60, 0
16, 112980, Note_on_c, 13, 58, 80
16, 113024, Note_on_c, 13, 58, 0
16, 113040, Note_on_c, 13, 63, 80
16, 113084, Note_on_c, 13, 63, 0
16, 113100, Note_on_c, 13, 62, 80
16, 113144, Note_on_c, 13, 62, 0
16, 113160, Note_on_c, 13, 51, 80
16, 113204, Note_on_c, 13, 51, 0
16, 113220, Note_on_c, 13, 50, 80
16, 113264, Note_on_c, 13, 50, 0
16, 113280, Note_on_c, 13, 50, 80
16, 113339, Note_on_c, 13, 50, 0
16, 113340, Note_on_c, 13, 48, 80
16, 113391, Note_on_c, 13, 48, 0
16, 113400, Note_on_c, 13, 48, 80
16, 113444, Note_on_c, 13, 48, 0
16, 113460, Note_on_c, 13, 51, 80
16, 113504, Note_on_c, 13, 51, 0
16, 113520, Note_on_c, 13, 63, 80
16, 113564, Note_on_c, 13, 63, 0
16, 113580, Note_on_c, 13, 51, 80
16, 113624, Note_on_c, 13, 51, 0
16, 113640, Note_on_c, 13, 50, 80
16, 113684, Note_on_c, 13, 50, 0
16, 113700, Note_on_c, 13, 51, 80
16, 113744, Note_on_c, 13, 51, 0
16, 113760, Note_on_c, 13, 51, 80
16, 113819, Note_on_c, 13, 51, 0
16, 113820, Note_on_c, 13, 50, 80
16, 113871, Note_on_c, 13, 50, 0
16, 113880, Note_on_c, 13, 50, 80
16, 113924, Note_on_c, 13, 50, 0
16, 113940, Note_on_c, 13, 53, 80
16, 113984, Note_on_c, 13, 53, 0
16, 114000, Note_on_c, 13, 65, 80
16, 114044, Note_on_c, 13, 65, 0
16, 114060, Note_on_c, 13, 53, 80
16, 114104, Note_on_c, 13, 53, 0
16, 114120, Note_on_c, 13, 51, 80
16, 114164, Note_on_c, 13, 51, 0
16, 114180, Note_on_c, 13, 50, 80
16, 114224, Note_on_c, 13, 50, 0
16, 114240, Note_on_c, 13, 53, 80
16, 114299, Note_on_c, 13, 53, 0
16, 114300, Note_on_c, 13, 51, 80
16, 114351, Note_on_c, 13, 51, 0
16, 114360, Note_on_c, 13, 51, 80
16, 114404, Note_on_c, 13, 51, 0
16, 114420, Note_on_c, 13, 60, 80
16, 114464, Note_on_c, 13, 60, 0
16, 114480, Note_on_c, 13, 60, 80
16, 114524, Note_on_c, 13, 60, 0
16, 114540, Note_on_c, 13, 48, 80
16, 114584, Note_on_c, 13, 48, 0
16, 114600, Note_on_c, 13, 50, 80
16, 114644, Note_on_c, 13, 50, 0
16, 114660, Note_on_c, 13, 51, 80
16, 114704, Note_on_c, 13, 51, 0
16, 114720, Note_on_c, 13, 51, 80
16, 114779, Note_on_c, 13, 51, 0
16, 114780, Note_on_c, 13, 50, 80
16, 114831, Note_on_c, 13, 50, 0
16, 114840, Note_on_c, 13, 50, 80
16, 114884, Note_on_c, 13, 50, 0
16, 114900, Note_on_c, 13, 53, 80
16, 114944, Note_on_c, 13, 53, 0
16, 114960, Note_on_c, 13, 53, 80
16, 115004, Note_on_c, 13, 53, 0
16, 115020, Note_on_c, 13, 50, 80
16, 115064, Note_on_c, 13, 50, 0
16, 115080, Note_on_c, 13, 62, 80
16, 115124, Note_on_c, 13, 62, 0
16, 115140, Note_on_c, 13, 62, 80
16, 115184, Note_on_c, 13, 62, 0
16, 115200, Note_on_c, 13, 55, 80
16, 115259, Note_on_c, 13, 55, 0
16, 115260, Note_on_c, 13, 53, 80
16, 115311, Note_on_c, 13, 53, 0
16, 115320, Note_on_c, 13, 53, 80
16, 115364, Note_on_c, 13, 53, 0
16, 115380, Note_on_c, 13, 55, 80
16, 115424, Note_on_c, 13, 55, 0
16, 115440, Note_on_c, 13, 55, 80
16, 115484, Note_on_c, 13, 55, 0
16, 115500, Note_on_c, 13, 53, 80
16, 115544, Note_on_c, 13, 53, 0
16, 115560, Note_on_c, 13, 50, 80
16, 115604, Note_on_c, 13, 50, 0
16, 115620, Note_on_c, 13, 62, 80
16, 115664, Note_on_c, 13, 62, 0
16, 115680, Note_on_c, 13, 55, 80
16, 115739, Note_on_c, 13, 55, 0
16, 115740, Note_on_c, 13, 53, 80
16, 115791, Note_on_c, 13, 53, 0
16, 115800, Note_on_c, 13, 53, 80
16, 115844, Note_on_c, 13, 53, 0
16, 115860, Note_on_c, 13, 55, 80
16, 115904, Note_on_c, 13, 55, 0
16, 115920, Note_on_c, 13, 55, 80
16, 115964, Note_on_c, 13, 55, 0
16, 115980, Note_on_c, 13, 53, 80
16, 116024, Note_on_c, 13, 53, 0
16, 116040, Note_on_c, 13, 50, 80
16, 116084, Note_on_c, 13, 50, 0
16, 116100, Note_on_c, 13, 62, 80
16, 116144, Note_on_c, 13, 62, 0
16, 116160, Note_on_c, 13, 62, 80
16, 116219, Note_on_c, 13, 62, 0
16, 116220, Note_on_c, 13, 59, 80
16, 116271, Note_on_c, 13, 59, 0
16, 116280, Note_on_c, 13, 59, 80
16, 116324, Note_on_c, 13, 59, 0
16, 116340, Note_on_c, 13, 60, 80
16, 116384, Note_on_c, 13, 60, 0
16, 116400, Note_on_c, 13, 59, 80
16, 116444, Note_on_c, 13, 59, 0
16, 116460, Note_on_c, 13, 62, 80
16, 116504, Note_on_c, 13, 62, 0
16, 116520, Note_on_c, 13, 60, 80
16, 116564, Note_on_c, 13, 60, 0
16, 116580, Note_on_c, 13, 59, 80
16, 116624, Note_on_c, 13, 59, 0
16, 116640, Note_on_c, 13, 62, 80
16, 116699, Note_on_c, 13, 62, 0
16, 116700, Note_on_c, 13, 59, 80
16, 116751, Note_on_c, 13, 59, 0
16, 116760, Note_on_c, 13, 59, 80
16, 116804, Note_on_c, 13, 59, 0
16, 116820, Note_on_c, 13, 60, 80
16, 116864, Note_on_c, 13, 60, 0
16, 116880, Note_on_c, 13, 59, 80
16, 116924, Note_on_c, 13, 59, 0
16, 116940, Note_on_c, 13, 62, 80
16, 116984, Note_on_c, 13, 62, 0
16, 117000, Note_on_c, 13, 61, 80
16, 117044, Note_on_c, 13, 61, 0
16, 117060, Note_on_c, 13, 64, 80
16, 117104, Note_on_c, 13, 64, 0
16, 117120, Note_on_c, 13, 64, 80
16, 117179, Note_on_c, 13, 64, 0
16, 117180, Note_on_c, 13, 57, 80
16, 117231, Note_on_c, 13, 57, 0
16, 117240, Note_on_c, 13, 54, 80
16, 117284, Note_on_c, 13, 54, 0
16, 117300, Note_on_c, 13, 55, 80
16, 117344, Note_on_c, 13, 55, 0
16, 117360, Note_on_c, 13, 54, 80
16, 117404, Note_on_c, 13, 54, 0
16, 117420, Note_on_c, 13, 57, 80
16, 117464, Note_on_c, 13, 57, 0
16, 117480, Note_on_c, 13, 55, 80
16, 117524, Note_on_c, 13, 55, 0
16, 117540, Note_on_c, 13, 54, 80
16, 117584, Note_on_c, 13, 54, 0
16, 117600, Note_on_c, 13, 55, 80
16, 117659, Note_on_c, 13, 55, 0
16, 117660, Note_on_c, 13, 54, 80
16, 117711, Note_on_c, 13, 54, 0
16, 117720, Note_on_c, 13, 54, 80
16, 117764, Note_on_c, 13, 54, 0
16, 117780, Note_on_c, 13, 55, 80
16, 117824, Note_on_c, 13, 55, 0
16, 117840, Note_on_c, 13, 53, 80
16, 117884, Note_on_c, 13, 53, 0
16, 117900, Note_on_c, 13, 57, 80
16, 117944, Note_on_c, 13, 57, 0
16, 117960, Note_on_c, 13, 55, 80
16, 118004, Note_on_c, 13, 55, 0
16, 118020, Note_on_c, 13, 53, 80
16, 118064, Note_on_c, 13, 53, 0
16, 118080, Note_on_c, 13, 53, 80
16, 118139, Note_on_c, 13, 53, 0
16, 118140, Note_on_c, 13, 48, 80
16, 118191, Note_on_c, 13, 48, 0
16, 118200, Note_on_c, 13, 48, 80
16, 118244, Note_on_c, 13, 48, 0
16, 118260, Note_on_c, 13, 50, 80
16, 118304, Note_on_c, 13, 50, 0
16, 118320, Note_on_c, 13, 48, 80
16, 118364, Note_on_c, 13, 48, 0
16, 118380, Note_on_c, 13, 48, 80
16, 118424, Note_on_c, 13, 48, 0
16, 118440, Note_on_c, 13, 48, 80
16, 118484, Note_on_c, 13, 48, 0
16, 118500, Note_on_c, 13, 48, 80
16, 118544, Note_on_c, 13, 48, 0
16, 118560, Note_on_c, 13, 50, 80
16, 118619, Note_on_c, 13, 50, 0
16, 118620, Note_on_c, 13, 48, 80
16, 118671, Note_on_c, 13, 48, 0
16, 118680, Note_on_c, 13, 48, 80
16, 118724, Note_on_c, 13, 48, 0
16, 118740, Note_on_c, 13, 50, 80
16, 118784, Note_on_c, 13, 50, 0
16, 118800, Note_on_c, 13, 48, 80
16, 118844, Note_on_c, 13, 48, 0
16, 118860, Note_on_c, 13, 60, 80
16, 118860, Note_on_c, 13, 48, 80
16, 118904, Note_on_c, 13, 60, 0
16, 118904, Note_on_c, 13, 48, 0
16, 118920, Note_on_c, 13, 60, 80
16, 118920, Note_on_c, 13, 48, 80
16, 118964, Note_on_c, 13, 60, 0
16, 118964, Note_on_c, 13, 48, 0
16, 118980, Note_on_c, 13, 60, 80
16, 118980, Note_on_c, 13, 48, 80
16, 119024, Note_on_c, 13, 60, 0
16, 119024, Note_on_c, 13, 48, 0
16, 119040, Note_on_c, 13, 60, 80
16, 119099, Note_on_c, 13, 60, 0
16, 119100, Note_on_c, 13, 59, 80
16, 119151, Note_on_c, 13, 59, 0
16, 119160, Note_on_c, 13, 59, 80
16, 119204, Note_on_c, 13, 59, 0
16, 119220, Note_on_c, 13, 60, 80
16, 119264, Note_on_c, 13, 60, 0
16, 119280, Note_on_c, 13, 59, 80
16, 119324, Note_on_c, 13, 59, 0
16, 119340, Note_on_c, 13, 62, 80
16, 119384, Note_on_c, 13, 62, 0
16, 119400, Note_on_c, 13, 60, 80
16, 119444, Note_on_c, 13, 60, 0
16, 119460, Note_on_c, 13, 59, 80
16, 119504, Note_on_c, 13, 59, 0
16, 119520, Note_on_c, 13, 60, 80
16, 119579, Note_on_c, 13, 60, 0
16, 119580, Note_on_c, 13, 59, 80
16, 119631, Note_on_c, 13, 59, 0
16, 119640, Note_on_c, 13, 59, 80
16, 119684, Note_on_c, 13, 59, 0
16, 119700, Note_on_c, 13, 60, 80
16, 119744, Note_on_c, 13, 60, 0
16, 119760, Note_on_c, 13, 59, 80
16, 119804, Note_on_c, 13, 59, 0
16, 119820, Note_on_c, 13, 62, 80
16, 119864, Note_on_c, 13, 62, 0
16, 119880, Note_on_c, 13, 60, 80
16, 119924, Note_on_c, 13, 60, 0
16, 119940, Note_on_c, 13, 59, 80
16, 119984, Note_on_c, 13, 59, 0
16, 120000, Note_on_c, 13, 60, 80
16, 120059, Note_on_c, 13, 60, 0
16, 120060, Note_on_c, 13, 59, 80
16, 120111, Note_on_c, 13, 59, 0
16, 120120, Note_on_c, 13, 59, 80
16, 120164, Note_on_c, 13, 59, 0
16, 120180, Note_on_c, 13, 60, 80
16, 120224, Note_on_c, 13, 60, 0
16, 120240, Note_on_c, 13, 59, 80
16, 120284, Note_on_c, 13, 59, 0
16, 120300, Note_on_c, 13, 62, 80
16, 120344, Note_on_c, 13, 62, 0
16, 120360, Note_on_c, 13, 60, 80
16, 120404, Note_on_c, 13, 60, 0
16, 120420, Note_on_c, 13, 59, 80
16, 120464, Note_on_c, 13, 59, 0
16, 120480, Note_on_c, 13, 60, 80
16, 120539, Note_on_c, 13, 60, 0
16, 120540, Note_on_c, 13, 59, 80
16, 120591, Note_on_c, 13, 59, 0
16, 120600, Note_on_c, 13, 59, 80
16, 120644, Note_on_c, 13, 59, 0
16, 120660, Note_on_c, 13, 60, 80
16, 120704, Note_on_c, 13, 60, 0
16, 120720, Note_on_c, 13, 59, 80
16, 120764, Note_on_c, 13, 59, 0
16, 120780, Note_on_c, 13, 62, 80
16, 120824, Note_on_c, 13, 62, 0
16, 120840, Note_on_c, 13, 60, 80
16, 120884, Note_on_c, 13, 60, 0
16, 120900, Note_on_c, 13, 59, 62
16, 120944, Note_on_c, 13, 59, 0
16, 121020, Note_on_c, 13, 59, 44
16, 121064, Note_on_c, 13, 59, 0
16, 121080, Note_on_c, 13, 60, 44
16, 121124, Note_on_c, 13, 60, 0
16, 121140, Note_on_c, 13, 62, 44
16, 121184, Note_on_c, 13, 62, 0
16, 121200, Note_on_c, 13, 62, 44
16, 121244, Note_on_c, 13, 62, 0
16, 121260, Note_on_c, 13, 65, 44
16, 121304, Note_on_c, 13, 65, 0
16, 121320, Note_on_c, 13, 64, 44
16, 121364, Note_on_c, 13, 64, 0
16, 121380, Note_on_c, 13, 62, 44
16, 121424, Note_on_c, 13, 62, 0
16, 121440, Note_on_c, 13, 65, 38
16, 121484, Note_on_c, 13, 65, 0
16, 121500, Note_on_c, 13, 59, 38
16, 121544, Note_on_c, 13, 59, 0
16, 121560, Note_on_c, 13, 60, 38
16, 121604, Note_on_c, 13, 60, 0
16, 121620, Note_on_c, 13, 62, 38
16, 121664, Note_on_c, 13, 62, 0
16, 121680, Note_on_c, 13, 62, 38
16, 121724, Note_on_c, 13, 62, 0
16, 121740, Note_on_c, 13, 65, 38
16, 121784, Note_on_c, 13, 65, 0
16, 121800, Note_on_c, 13, 64, 38
16, 121844, Note_on_c, 13, 64, 0
16, 121860, Note_on_c, 13, 65, 38
16, 121904, Note_on_c, 13, 65, 0
16, 121920, Note_on_c, 13, 64, 38
16, 121964, Note_on_c, 13, 64, 0
16, 121980, Note_on_c, 13, 57, 38
16, 122024, Note_on_c, 13, 57, 0
16, 122040, Note_on_c, 13, 59, 38
16, 122084, Note_on_c, 13, 59, 0
16, 122100, Note_on_c, 13, 60, 38
16, 122144, Note_on_c, 13, 60, 0
16, 122160, Note_on_c, 13, 60, 38
16, 122279, Note_on_c, 13, 60, 0
16, 122460, Note_on_c, 13, 60, 38
16, 122504, Note_on_c, 13, 60, 0
16, 122520, Note_on_c, 13, 62, 38
16, 122564, Note_on_c, 13, 62, 0
16, 122580, Note_on_c, 13, 64, 38
16, 122624, Note_on_c, 13, 64, 0
16, 122640, Note_on_c, 13, 64, 38
16, 122759, Note_on_c, 13, 64, 0
16, 122880, Note_on_c, 13, 65, 38
16, 122924, Note_on_c, 13, 65, 0
16, 122940, Note_on_c, 13, 59, 38
16, 122984, Note_on_c, 13, 59, 0
16, 123000, Note_on_c, 13, 60, 38
16, 123044, Note_on_c, 13, 60, 0
16, 123060, Note_on_c, 13, 62, 38
16, 123104, Note_on_c, 13, 62, 0
16, 123120, Note_on_c, 13, 62, 38
16, 123164, Note_on_c, 13, 62, 0
16, 123180, Note_on_c, 13, 65, 38
16, 123224, Note_on_c, 13, 65, 0
16, 123240, Note_on_c, 13, 64, 38
16, 123284, Note_on_c, 13, 64, 0
16, 123300, Note_on_c, 13, 65, 38
16, 123344, Note_on_c, 13, 65, 0
16, 123360, Note_on_c, 13, 65, 32
16, 123404, Note_on_c, 13, 65, 0
16, 123420, Note_on_c, 13, 59, 32
16, 123464, Note_on_c, 13, 59, 0
16, 123480, Note_on_c, 13, 60, 32
16, 123524, Note_on_c, 13, 60, 0
16, 123540, Note_on_c, 13, 62, 32
16, 123584, Note_on_c, 13, 62, 0
16, 123600, Note_on_c, 13, 62, 32
16, 123644, Note_on_c, 13, 62, 0
16, 123660, Note_on_c, 13, 65, 32
16, 123704, Note_on_c, 13, 65, 0
16, 123720, Note_on_c, 13, 64, 32
16, 123764, Note_on_c, 13, 64, 0
16, 123780, Note_on_c, 13, 59, 32
16, 123824, Note_on_c, 13, 59, 0
16, 123840, Note_on_c, 13, 60, 32
16, 124079, Note_on_c, 13, 60, 0
16, 124800, Note_on_c, 13, 64, 32
16, 124844, Note_on_c, 13, 64, 0
16, 124860, Note_on_c, 13, 52, 32
16, 124919, Note_on_c, 13, 52, 0
16, 124920, Note_on_c, 13, 53, 32
16, 124979, Note_on_c, 13, 53, 0
16, 124980, Note_on_c, 13, 52, 32
16, 125031, Note_on_c, 13, 52, 0
16, 125040, Note_on_c, 13, 52, 32
16, 125091, Note_on_c, 13, 52, 0
16, 125100, Note_on_c, 13, 52, 32
16, 125151, Note_on_c, 13, 52, 0
16, 125160, Note_on_c, 13, 52, 32
16, 125211, Note_on_c, 13, 52, 0
16, 125220, Note_on_c, 13, 52, 32
16, 125271, Note_on_c, 13, 52, 0
16, 125280, Note_on_c, 13, 52, 32
16, 125324, Note_on_c, 13, 52, 0
16, 125340, Note_on_c, 13, 52, 32
16, 125399, Note_on_c, 13, 52, 0
16, 125400, Note_on_c, 13, 53, 32
16, 125459, Note_on_c, 13, 53, 0
16, 125460, Note_on_c, 13, 52, 32
16, 125511, Note_on_c, 13, 52, 0
16, 125520, Note_on_c, 13, 52, 32
16, 125571, Note_on_c, 13, 52, 0
16, 125580, Note_on_c, 13, 52, 32
16, 125631, Note_on_c, 13, 52, 0
16, 125640, Note_on_c, 13, 52, 32
16, 125691, Note_on_c, 13, 52, 0
16, 125700, Note_on_c, 13, 52, 32
16, 125751, Note_on_c, 13, 52, 0
16, 125760, Note_on_c, 13, 52, 32
16, 125811, Note_on_c, 13, 52, 0
16, 125820, Note_on_c, 13, 64, 32
16, 125871, Note_on_c, 13, 64, 0
16, 125880, Note_on_c, 13, 64, 32
16, 125931, Note_on_c, 13, 64, 0
16, 125940, Note_on_c, 13, 64, 32
16, 125991, Note_on_c, 13, 64, 0
16, 126000, Note_on_c, 13, 64, 32
16, 126051, Note_on_c, 13, 64, 0
16, 126060, Note_on_c, 13, 64, 32
16, 126111, Note_on_c, 13, 64, 0
16, 126120, Note_on_c, 13, 64, 32
16, 126171, Note_on_c, 13, 64, 0
16, 126180, Note_on_c, 13, 64, 32
16, 126231, Note_on_c, 13, 64, 0
16, 126240, Note_on_c, 13, 64, 32
16, 126291, Note_on_c, 13, 64, 0
16, 126300, Note_on_c, 13, 64, 32
16, 126351, Note_on_c, 13, 64, 0
16, 126360, Note_on_c, 13, 64, 32
16, 126411, Note_on_c, 13, 64, 0
16, 126420, Note_on_c, 13, 64, 32
16, 126471, Note_on_c, 13, 64, 0
16, 126480, Note_on_c, 13, 64, 32
16, 126531, Note_on_c, 13, 64, 0
16, 126540, Note_on_c, 13, 64, 32
16, 126591, Note_on_c, 13, 64, 0
16, 126600, Note_on_c, 13, 64, 32
16, 126651, Note_on_c, 13, 64, 0
16, 126660, Note_on_c, 13, 64, 32
16, 126711, Note_on_c, 13, 64, 0
16, 126720, Note_on_c, 13, 64, 32
16, 126771, Note_on_c, 13, 64, 0
16, 126780, Note_on_c, 13, 52, 32
16, 126831, Note_on_c, 13, 52, 0
16, 126840, Note_on_c, 13, 52, 33
16, 126891, Note_on_c, 13, 52, 0
16, 126900, Note_on_c, 13, 52, 34
16, 126951, Note_on_c, 13, 52, 0
16, 126960, Note_on_c, 13, 52, 35
16, 127011, Note_on_c, 13, 52, 0
16, 127020, Note_on_c, 13, 52, 36
16, 127071, Note_on_c, 13, 52, 0
16, 127080, Note_on_c, 13, 52, 37
16, 127131, Note_on_c, 13, 52, 0
16, 127140, Note_on_c, 13, 52, 38
16, 127191, Note_on_c, 13, 52, 0
16, 127200, Note_on_c, 13, 52, 39
16, 127251, Note_on_c, 13, 52, 0
16, 127260, Note_on_c, 13, 52, 40
16, 127311, Note_on_c, 13, 52, 0
16, 127320, Note_on_c, 13, 52, 41
16, 127371, Note_on_c, 13, 52, 0
16, 127380, Note_on_c, 13, 52, 41
16, 127431, Note_on_c, 13, 52, 0
16, 127440, Note_on_c, 13, 52, 42
16, 127491, Note_on_c, 13, 52, 0
16, 127500, Note_on_c, 13, 62, 43
16, 127551, Note_on_c, 13, 62, 0
16, 127560, Note_on_c, 13, 60, 44
16, 127611, Note_on_c, 13, 60, 0
16, 127620, Note_on_c, 13, 59, 45
16, 127671, Note_on_c, 13, 59, 0
16, 127680, Note_on_c, 13, 57, 46
16, 127799, Note_on_c, 13, 57, 0
16, 131040, Control_c, 13, 11, 127
16, 131100, Note_on_c, 13, 53, 32
16, 131144, Note_on_c, 13, 53, 0
16, 131160, Note_on_c, 13, 52, 32
16, 131204, Note_on_c, 13, 52, 0
16, 131220, Note_on_c, 13, 50, 32
16, 131264, Note_on_c, 13, 50, 0
16, 131280, Note_on_c, 13, 48, 32
16, 131399, Note_on_c, 13, 48, 0
16, 131760, Note_on_c, 13, 57, 32
16, 131879, Note_on_c, 13, 57, 0
16, 132240, Note_on_c, 13, 60, 32
16, 132359, Note_on_c, 13, 60, 0
16, 132720, Note_on_c, 13, 62, 32
16, 132839, Note_on_c, 13, 62, 0
16, 133200, Note_on_c, 13, 56, 32
16, 133304, Note_on_c, 13, 56, 0
16, 133320, Note_on_c, 13, 50, 38
16, 133439, Note_on_c, 13, 50, 0
16, 133440, Note_on_c, 13, 50, 38
16, 133499, Note_on_c, 13, 50, 0
16, 133500, Note_on_c, 13, 48, 38
16, 133544, Note_on_c, 13, 48, 0
16, 133560, Note_on_c, 13, 52, 38
16, 133604, Note_on_c, 13, 52, 0
16, 133620, Note_on_c, 13, 56, 38
16, 133664, Note_on_c, 13, 56, 0
16, 133680, Note_on_c, 13, 57, 38
16, 133799, Note_on_c, 13, 57, 0
16, 133920, Note_on_c, 13, 57, 38
16, 133979, Note_on_c, 13, 57, 0
16, 133980, Note_on_c, 13, 48, 38
16, 134024, Note_on_c, 13, 48, 0
16, 134040, Note_on_c, 13, 53, 38
16, 134084, Note_on_c, 13, 53, 0
16, 134100, Note_on_c, 13, 55, 38
16, 134144, Note_on_c, 13, 55, 0
16, 134160, Note_on_c, 13, 57, 38
16, 134279, Note_on_c, 13, 57, 0
16, 134400, Note_on_c, 13, 48, 38
16, 134459, Note_on_c, 13, 48, 0
16, 134460, Note_on_c, 13, 52, 38
16, 134504, Note_on_c, 13, 52, 0
16, 134520, Note_on_c, 13, 55, 38
16, 134564, Note_on_c, 13, 55, 0
16, 134580, Note_on_c, 13, 57, 38
16, 134624, Note_on_c, 13, 57, 0
16, 134640, Note_on_c, 13, 58, 38
16, 134759, Note_on_c, 13, 58, 0
16, 134880, Note_on_c, 13, 58, 38
16, 134939, Note_on_c, 13, 58, 0
16, 134940, Note_on_c, 13, 55, 38
16, 134984, Note_on_c, 13, 55, 0
16, 135000, Note_on_c, 13, 52, 38
16, 135044, Note_on_c, 13, 52, 0
16, 135060, Note_on_c, 13, 50, 38
16, 135104, Note_on_c, 13, 50, 0
16, 135120, Note_on_c, 13, 48, 38
16, 135239, Note_on_c, 13, 48, 0
16, 135360, Control_c, 13, 11, 87
16, 135396, Control_c, 13, 11, 88
16, 135432, Control_c, 13, 11, 89
16, 135468, Control_c, 13, 11, 90
16, 135480, Note_on_c, 13, 60, 68
16, 135504, Control_c, 13, 11, 91
16, 135540, Control_c, 13, 11, 92
16, 135576, Control_c, 13, 11, 93
16, 135612, Control_c, 13, 11, 94
16, 135648, Control_c, 13, 11, 95
16, 135684, Control_c, 13, 11, 96
16, 135719, Note_on_c, 13, 60, 0
16, 135720, Note_on_c, 13, 53, 68
16, 135720, Control_c, 13, 11, 97
16, 135756, Control_c, 13, 11, 98
16, 135792, Control_c, 13, 11, 99
16, 135828, Control_c, 13, 11, 100
16, 135839, Note_on_c, 13, 53, 0
16, 135864, Control_c, 13, 11, 101
16, 135900, Control_c, 13, 11, 102
16, 135936, Control_c, 13, 11, 103
16, 135960, Note_on_c, 13, 57, 68
16, 135972, Control_c, 13, 11, 104
16, 136008, Control_c, 13, 11, 105
16, 136044, Control_c, 13, 11, 106
16, 136080, Control_c, 13, 11, 107
16, 136116, Control_c, 13, 11, 108
16, 136152, Control_c, 13, 11, 109
16, 136188, Control_c, 13, 11, 110
16, 136199, Note_on_c, 13, 57, 0
16, 136200, Note_on_c, 13, 48, 68
16, 136224, Control_c, 13, 11, 111
16, 136260, Control_c, 13, 11, 112
16, 136296, Control_c, 13, 11, 113
16, 136319, Note_on_c, 13, 48, 0
16, 136332, Control_c, 13, 11, 114
16, 136368, Control_c, 13, 11, 115
16, 136404, Control_c, 13, 11, 116
16, 136440, Control_c, 13, 11, 117
16, 136440, Note_on_c, 13, 70, 68
16, 136476, Control_c, 13, 11, 118
16, 136512, Control_c, 13, 11, 119
16, 136548, Control_c, 13, 11, 120
16, 136584, Control_c, 13, 11, 121
16, 136620, Control_c, 13, 11, 122
16, 136656, Control_c, 13, 11, 123
16, 136679, Note_on_c, 13, 70, 0
16, 136680, Note_on_c, 13, 64, 68
16, 136692, Control_c, 13, 11, 124
16, 136728, Control_c, 13, 11, 125
16, 136764, Control_c, 13, 11, 126
16, 136799, Note_on_c, 13, 64, 0
16, 136920, Note_on_c, 13, 58, 68
16, 136920, Control_c, 13, 11, 127
16, 136940, Control_c, 13, 11, 125
16, 136960, Control_c, 13, 11, 123
16, 136980, Control_c, 13, 11, 120
16, 137000, Control_c, 13, 11, 118
16, 137020, Control_c, 13, 11, 116
16, 137040, Control_c, 13, 11, 114
16, 137060, Control_c, 13, 11, 111
16, 137080, Control_c, 13, 11, 109
16, 137100, Control_c, 13, 11, 107
16, 137120, Control_c, 13, 11, 105
16, 137140, Control_c, 13, 11, 103
16, 137159, Note_on_c, 13, 58, 0
16, 137160, Control_c, 13, 11, 100
16, 137160, Note_on_c, 13, 48, 68
16, 137180, Control_c, 13, 11, 98
16, 137200, Control_c, 13, 11, 96
16, 137220, Control_c, 13, 11, 94
16, 137240, Control_c, 13, 11, 91
16, 137260, Control_c, 13, 11, 87
16, 137264, Note_on_c, 13, 48, 0
16, 137280, Note_on_c, 13, 48, 68
16, 137324, Note_on_c, 13, 48, 0
16, 137340, Note_on_c, 13, 53, 68
16, 137384, Note_on_c, 13, 53, 0
16, 137400, Note_on_c, 13, 52, 68
16, 137444, Note_on_c, 13, 52, 0
16, 137460, Note_on_c, 13, 50, 68
16, 137504, Note_on_c, 13, 50, 0
16, 137520, Note_on_c, 13, 48, 68
16, 137564, Note_on_c, 13, 48, 0
16, 137580, Note_on_c, 13, 48, 68
16, 137624, Note_on_c, 13, 48, 0
16, 137640, Note_on_c, 13, 48, 68
16, 137684, Note_on_c, 13, 48, 0
16, 137700, Note_on_c, 13, 48, 68
16, 137744, Note_on_c, 13, 48, 0
16, 137760, Note_on_c, 13, 48, 68
16, 137804, Note_on_c, 13, 48, 0
16, 137820, Note_on_c, 13, 53, 68
16, 137864, Note_on_c, 13, 53, 0
16, 137880, Note_on_c, 13, 52, 68
16, 137924, Note_on_c, 13, 52, 0
16, 137940, Note_on_c, 13, 50, 68
16, 137984, Note_on_c, 13, 50, 0
16, 138000, Note_on_c, 13, 48, 68
16, 138044, Note_on_c, 13, 48, 0
16, 138060, Note_on_c, 13, 48, 68
16, 138104, Note_on_c, 13, 48, 0
16, 138120, Note_on_c, 13, 48, 68
16, 138164, Note_on_c, 13, 48, 0
16, 138180, Note_on_c, 13, 48, 68
16, 138224, Note_on_c, 13, 48, 0
16, 138240, Note_on_c, 13, 48, 68
16, 138284, Note_on_c, 13, 48, 0
16, 138300, Note_on_c, 13, 55, 68
16, 138344, Note_on_c, 13, 55, 0
16, 138360, Note_on_c, 13, 52, 68
16, 138404, Note_on_c, 13, 52, 0
16, 138420, Note_on_c, 13, 50, 68
16, 138464, Note_on_c, 13, 50, 0
16, 138480, Note_on_c, 13, 48, 68
16, 138524, Note_on_c, 13, 48, 0
16, 138540, Note_on_c, 13, 48, 68
16, 138584, Note_on_c, 13, 48, 0
16, 138600, Note_on_c, 13, 48, 68
16, 138644, Note_on_c, 13, 48, 0
16, 138660, Note_on_c, 13, 48, 68
16, 138704, Note_on_c, 13, 48, 0
16, 138720, Note_on_c, 13, 48, 68
16, 138764, Note_on_c, 13, 48, 0
16, 138780, Note_on_c, 13, 55, 68
16, 138824, Note_on_c, 13, 55, 0
16, 138840, Note_on_c, 13, 52, 68
16, 138884, Note_on_c, 13, 52, 0
16, 138900, Note_on_c, 13, 50, 68
16, 138944, Note_on_c, 13, 50, 0
16, 138960, Note_on_c, 13, 48, 68
16, 139004, Note_on_c, 13, 48, 0
16, 139020, Note_on_c, 13, 48, 68
16, 139064, Note_on_c, 13, 48, 0
16, 139080, Note_on_c, 13, 48, 68
16, 139124, Note_on_c, 13, 48, 0
16, 139140, Note_on_c, 13, 48, 68
16, 139184, Note_on_c, 13, 48, 0
16, 139200, Note_on_c, 13, 48, 68
16, 139244, Note_on_c, 13, 48, 0
16, 139260, Note_on_c, 13, 53, 68
16, 139304, Note_on_c, 13, 53, 0
16, 139320, Note_on_c, 13, 52, 68
16, 139364, Note_on_c, 13, 52, 0
16, 139380, Note_on_c, 13, 50, 68
16, 139424, Note_on_c, 13, 50, 0
16, 139440, Note_on_c, 13, 48, 68
16, 139484, Note_on_c, 13, 48, 0
16, 139500, Note_on_c, 13, 53, 68
16, 139500, Note_on_c, 13, 57, 68
16, 139544, Note_on_c, 13, 53, 0
16, 139544, Note_on_c, 13, 57, 0
16, 139560, Note_on_c, 13, 58, 68
16, 139560, Note_on_c, 13, 55, 68
16, 139604, Note_on_c, 13, 58, 0
16, 139604, Note_on_c, 13, 55, 0
16, 139620, Note_on_c, 13, 57, 68
16, 139620, Note_on_c, 13, 60, 68
16, 139664, Note_on_c, 13, 57, 0
16, 139664, Note_on_c, 13, 60, 0
16, 139680, Note_on_c, 13, 57, 68
16, 139680, Note_on_c, 13, 60, 68
16, 139971, Note_on_c, 13, 57, 0
16, 139971, Note_on_c, 13, 60, 0
16, 139980, Note_on_c, 13, 53, 68
16, 139980, Note_on_c, 13, 57, 68
16, 140024, Note_on_c, 13, 53, 0
16, 140024, Note_on_c, 13, 57, 0
16, 140040, Note_on_c, 13, 58, 68
16, 140040, Note_on_c, 13, 55, 68
16, 140084, Note_on_c, 13, 58, 0
16, 140084, Note_on_c, 13, 55, 0
16, 140100, Note_on_c, 13, 60, 68
16, 140100, Note_on_c, 13, 57, 68
16, 140144, Note_on_c, 13, 60, 0
16, 140144, Note_on_c, 13, 57, 0
16, 140160, Note_on_c, 13, 67, 68
16, 140160, Note_on_c, 13, 58, 68
16, 140451, Note_on_c, 13, 67, 0
16, 140451, Note_on_c, 13, 58, 0
16, 140460, Note_on_c, 13, 64, 68
16, 140460, Note_on_c, 13, 55, 68
16, 140504, Note_on_c, 13, 64, 0
16, 140504, Note_on_c, 13, 55, 0
16, 140520, Note_on_c, 13, 57, 68
16, 140520, Note_on_c, 13, 65, 68
16, 140564, Note_on_c, 13, 57, 0
16, 140564, Note_on_c, 13, 65, 0
16, 140580, Note_on_c, 13, 58, 68
16, 140580, Note_on_c, 13, 67, 68
16, 140624, Note_on_c, 13, 58, 0
16, 140624, Note_on_c, 13, 67, 0
16, 140640, Note_on_c, 13, 58, 68
16, 140640, Note_on_c, 13, 67, 68
16, 140931, Note_on_c, 13, 58, 0
16, 140931, Note_on_c, 13, 67, 0
16, 140940, Note_on_c, 13, 55, 68
16, 140940, Note_on_c, 13, 52, 68
16, 140984, Note_on_c, 13, 55, 0
16, 140984, Note_on_c, 13, 52, 0
16, 141000, Note_on_c, 13, 57, 68
16, 141000, Note_on_c, 13, 53, 68
16, 141044, Note_on_c, 13, 57, 0
16, 141044, Note_on_c, 13, 53, 0
16, 141060, Note_on_c, 13, 55, 68
16, 141060, Note_on_c, 13, 58, 68
16, 141104, Note_on_c, 13, 55, 0
16, 141104, Note_on_c, 13, 58, 0
16, 141118, Control_c, 13, 11, 67
16, 141120, Control_c, 13, 11, 67
16, 141120, Note_on_c, 13, 58, 80
16, 141120, Note_on_c, 13, 67, 80
16, 141140, Control_c, 13, 11, 68
16, 141160, Control_c, 13, 11, 70
16, 141180, Control_c, 13, 11, 71
16, 141200, Control_c, 13, 11, 72
16, 141220, Control_c, 13, 11, 73
16, 141240, Control_c, 13, 11, 75
16, 141260, Control_c, 13, 11, 76
16, 141280, Control_c, 13, 11, 77
16, 141300, Control_c, 13, 11, 78
16, 141320, Control_c, 13, 11, 80
16, 141340, Control_c, 13, 11, 81
16, 141360, Control_c, 13, 11, 82
16, 141380, Control_c, 13, 11, 83
16, 141400, Control_c, 13, 11, 85
16, 141411, Note_on_c, 13, 58, 0
16, 141411, Note_on_c, 13, 67, 0
16, 141420, Note_on_c, 13, 64, 80
16, 141420, Note_on_c, 13, 55, 80
16, 141420, Control_c, 13, 11, 86
16, 141440, Control_c, 13, 11, 87
16, 141460, Control_c, 13, 11, 88
16, 141464, Note_on_c, 13, 64, 0
16, 141464, Note_on_c, 13, 55, 0
16, 141480, Control_c, 13, 11, 90
16, 141480, Note_on_c, 13, 57, 80
16, 141480, Note_on_c, 13, 65, 80
16, 141500, Control_c, 13, 11, 91
16, 141520, Control_c, 13, 11, 92
16, 141524, Note_on_c, 13, 57, 0
16, 141524, Note_on_c, 13, 65, 0
16, 141540, Control_c, 13, 11, 93
16, 141540, Note_on_c, 13, 58, 80
16, 141540, Note_on_c, 13, 67, 80
16, 141560, Control_c, 13, 11, 95
16, 141580, Control_c, 13, 11, 96
16, 141584, Note_on_c, 13, 58, 0
16, 141584, Note_on_c, 13, 67, 0
16, 141600, Note_on_c, 13, 58, 80
16, 141600, Note_on_c, 13, 55, 80
16, 141600, Control_c, 13, 11, 97
16, 141620, Control_c, 13, 11, 98
16, 141640, Control_c, 13, 11, 100
16, 141660, Control_c, 13, 11, 101
16, 141680, Control_c, 13, 11, 102
16, 141700, Control_c, 13, 11, 103
16, 141720, Control_c, 13, 11, 105
16, 141740, Control_c, 13, 11, 106
16, 141760, Control_c, 13, 11, 107
16, 141780, Control_c, 13, 11, 108
16, 141800, Control_c, 13, 11, 110
16, 141820, Control_c, 13, 11, 111
16, 141840, Control_c, 13, 11, 112
16, 141860, Control_c, 13, 11, 113
16, 141880, Control_c, 13, 11, 115
16, 141891, Note_on_c, 13, 58, 0
16, 141891, Note_on_c, 13, 55, 0
16, 141900, Note_on_c, 13, 52, 80
16, 141900, Note_on_c, 13, 55, 80
16, 141900, Control_c, 13, 11, 116
16, 141920, Control_c, 13, 11, 117
16, 141940, Control_c, 13, 11, 118
16, 141944, Note_on_c, 13, 52, 0
16, 141944, Note_on_c, 13, 55, 0
16, 141960, Control_c, 13, 11, 120
16, 141960, Note_on_c, 13, 53, 80
16, 141960, Note_on_c, 13, 57, 80
16, 141980, Control_c, 13, 11, 121
16, 142000, Control_c, 13, 11, 122
16, 142004, Note_on_c, 13, 53, 0
16, 142004, Note_on_c, 13, 57, 0
16, 142020, Control_c, 13, 11, 123
16, 142020, Note_on_c, 13, 55, 80
16, 142020, Note_on_c, 13, 58, 80
16, 142040, Control_c, 13, 11, 125
16, 142060, Control_c, 13, 11, 127
16, 142064, Note_on_c, 13, 55, 0
16, 142064, Note_on_c, 13, 58, 0
16, 142080, Note_on_c, 13, 58, 80
16, 142080, Note_on_c, 13, 55, 80
16, 142124, Note_on_c, 13, 58, 0
16, 142124, Note_on_c, 13, 55, 0
16, 142140, Note_on_c, 13, 67, 80
16, 142184, Note_on_c, 13, 67, 0
16, 142200, Note_on_c, 13, 65, 80
16, 142244, Note_on_c, 13, 65, 0
16, 142260, Note_on_c, 13, 64, 80
16, 142304, Note_on_c, 13, 64, 0
16, 142320, Note_on_c, 13, 61, 80
16, 142364, Note_on_c, 13, 61, 0
16, 142380, Note_on_c, 13, 64, 80
16, 142424, Note_on_c, 13, 64, 0
16, 142440, Note_on_c, 13, 62, 80
16, 142484, Note_on_c, 13, 62, 0
16, 142500, Note_on_c, 13, 61, 80
16, 142544, Note_on_c, 13, 61, 0
16, 142560, Note_on_c, 13, 55, 80
16, 142604, Note_on_c, 13, 55, 0
16, 142620, Note_on_c, 13, 70, 80
16, 142664, Note_on_c, 13, 70, 0
16, 142680, Note_on_c, 13, 69, 80
16, 142724, Note_on_c, 13, 69, 0
16, 142740, Note_on_c, 13, 67, 80
16, 142784, Note_on_c, 13, 67, 0
16, 142800, Note_on_c, 13, 64, 80
16, 142844, Note_on_c, 13, 64, 0
16, 142860, Note_on_c, 13, 67, 80
16, 142904, Note_on_c, 13, 67, 0
16, 142920, Note_on_c, 13, 65, 80
16, 142964, Note_on_c, 13, 65, 0
16, 142980, Note_on_c, 13, 64, 80
16, 143024, Note_on_c, 13, 64, 0
16, 143040, Note_on_c, 13, 61, 80
16, 143084, Note_on_c, 13, 61, 0
16, 143100, Note_on_c, 13, 64, 80
16, 143144, Note_on_c, 13, 64, 0
16, 143160, Note_on_c, 13, 62, 80
16, 143204, Note_on_c, 13, 62, 0
16, 143220, Note_on_c, 13, 61, 80
16, 143264, Note_on_c, 13, 61, 0
16, 143280, Note_on_c, 13, 55, 80
16, 143324, Note_on_c, 13, 55, 0
16, 143340, Note_on_c, 13, 58, 80
16, 143384, Note_on_c, 13, 58, 0
16, 143400, Note_on_c, 13, 57, 80
16, 143444, Note_on_c, 13, 57, 0
16, 143460, Note_on_c, 13, 55, 80
16, 143504, Note_on_c, 13, 55, 0
16, 143520, Note_on_c, 13, 52, 80
16, 143564, Note_on_c, 13, 52, 0
16, 143580, Note_on_c, 13, 53, 80
16, 143624, Note_on_c, 13, 53, 0
16, 143640, Note_on_c, 13, 52, 80
16, 143684, Note_on_c, 13, 52, 0
16, 143700, Note_on_c, 13, 50, 80
16, 143744, Note_on_c, 13, 50, 0
16, 143760, Note_on_c, 13, 49, 80
16, 143804, Note_on_c, 13, 49, 0
16, 143820, Note_on_c, 13, 58, 80
16, 143864, Note_on_c, 13, 58, 0
16, 143880, Note_on_c, 13, 57, 80
16, 143924, Note_on_c, 13, 57, 0
16, 143940, Note_on_c, 13, 55, 80
16, 143984, Note_on_c, 13, 55, 0
16, 144000, Note_on_c, 13, 54, 92
16, 144000, Note_on_c, 13, 57, 92
16, 144000, Note_on_c, 13, 62, 92
16, 144239, Note_on_c, 13, 54, 0
16, 144239, Note_on_c, 13, 57, 0
16, 144239, Note_on_c, 13, 62, 0
16, 144930, Note_on_c, 13, 69, 92
16, 144951, Note_on_c, 13, 69, 0
16, 144960, Note_on_c, 13, 62, 92
16, 145199, Note_on_c, 13, 62, 0
16, 145410, Note_on_c, 13, 62, 92
16, 145431, Note_on_c, 13, 62, 0
16, 145440, Note_on_c, 13, 57, 92
16, 145679, Note_on_c, 13, 57, 0
16, 145920, Note_on_c, 13, 50, 92
16, 145920, Note_on_c, 13, 62, 92
16, 145920, Note_on_c, 13, 57, 92
16, 146159, Note_on_c, 13, 50, 0
16, 146159, Note_on_c, 13, 62, 0
16, 146159, Note_on_c, 13, 57, 0
16, 146850, Note_on_c, 13, 62, 92
16, 146871, Note_on_c, 13, 62, 0
16, 146880, Note_on_c, 13, 57, 92
16, 147119, Note_on_c, 13, 57, 0
16, 147330, Note_on_c, 13, 57, 92
16, 147351, Note_on_c, 13, 57, 0
16, 147360, Note_on_c, 13, 50, 92
16, 147599, Note_on_c, 13, 50, 0
16, 147840, Note_on_c, 13, 62, 92
16, 147840, Note_on_c, 13, 50, 92
16, 147840, Note_on_c, 13, 57, 92
16, 147959, Note_on_c, 13, 62, 0
16, 147959, Note_on_c, 13, 50, 0
16, 147959, Note_on_c, 13, 57, 0
16, 148050, Note_on_c, 13, 57, 92
16, 148071, Note_on_c, 13, 57, 0
16, 148080, Note_on_c, 13, 50, 92
16, 148199, Note_on_c, 13, 50, 0
16, 148290, Note_on_c, 13, 57, 92
16, 148311, Note_on_c, 13, 57, 0
16, 148320, Note_on_c, 13, 50, 92
16, 148439, Note_on_c, 13, 50, 0
16, 148800, Note_on_c, 13, 50, 92
16, 148800, Note_on_c, 13, 57, 92
16, 148800, Note_on_c, 13, 62, 92
16, 148851, Note_on_c, 13, 50, 0
16, 148851, Note_on_c, 13, 57, 0
16, 148851, Note_on_c, 13, 62, 0
16, 148860, Note_on_c, 13, 57, 92
16, 148904, Note_on_c, 13, 57, 0
16, 148920, Note_on_c, 13, 57, 92
16, 148979, Note_on_c, 13, 57, 0
16, 148980, Note_on_c, 13, 50, 92
16, 149039, Note_on_c, 13, 50, 0
16, 149100, Note_on_c, 13, 50, 92
16, 149144, Note_on_c, 13, 50, 0
16, 149160, Note_on_c, 13, 50, 92
16, 149219, Note_on_c, 13, 50, 0
16, 149220, Note_on_c, 13, 57, 92
16, 149279, Note_on_c, 13, 57, 0
16, 149340, Note_on_c, 13, 57, 92
16, 149384, Note_on_c, 13, 57, 0
16, 149400, Note_on_c, 13, 57, 92
16, 149459, Note_on_c, 13, 57, 0
16, 149460, Note_on_c, 13, 50, 92
16, 149519, Note_on_c, 13, 50, 0
16, 149760, Note_on_c, 13, 74, 92
16, 149760, Note_on_c, 13, 62, 92
16, 149811, Note_on_c, 13, 74, 0
16, 149811, Note_on_c, 13, 62, 0
16, 149820, Note_on_c, 13, 62, 92
16, 149864, Note_on_c, 13, 62, 0
16, 149880, Note_on_c, 13, 62, 92
16, 149939, Note_on_c, 13, 62, 0
16, 149940, Note_on_c, 13, 50, 92
16, 149991, Note_on_c, 13, 50, 0
16, 150000, Note_on_c, 13, 62, 92
16, 150059, Note_on_c, 13, 62, 0
16, 150060, Note_on_c, 13, 50, 92
16, 150111, Note_on_c, 13, 50, 0
16, 150120, Note_on_c, 13, 50, 92
16, 150179, Note_on_c, 13, 50, 0
16, 150180, Note_on_c, 13, 62, 92
16, 150231, Note_on_c, 13, 62, 0
16, 150240, Note_on_c, 13, 50, 92
16, 150299, Note_on_c, 13, 50, 0
16, 150300, Note_on_c, 13, 62, 92
16, 150351, Note_on_c, 13, 62, 0
16, 150360, Note_on_c, 13, 62, 92
16, 150419, Note_on_c, 13, 62, 0
16, 150420, Note_on_c, 13, 50, 92
16, 150471, Note_on_c, 13, 50, 0
16, 150480, Note_on_c, 13, 62, 92
16, 150539, Note_on_c, 13, 62, 0
16, 150540, Note_on_c, 13, 50, 92
16, 150591, Note_on_c, 13, 50, 0
16, 150600, Note_on_c, 13, 50, 92
16, 150644, Note_on_c, 13, 50, 0
16, 150690, Note_on_c, 13, 62, 92
16, 150711, Note_on_c, 13, 62, 0
16, 150720, Note_on_c, 13, 57, 92
16, 151161, Note_on_c, 13, 57, 0
16, 151170, Note_on_c, 13, 53, 92
16, 151191, Note_on_c, 13, 53, 0
16, 151200, Note_on_c, 13, 50, 92
16, 151401, Note_on_c, 13, 50, 0
16, 151410, Note_on_c, 13, 57, 92
16, 151431, Note_on_c, 13, 57, 0
16, 151440, Note_on_c, 13, 53, 92
16, 151604, Note_on_c, 13, 53, 0
16, 151620, Note_on_c, 13, 57, 92
16, 151649, Note_on_c, 13, 57, 0
16, 151650, Note_on_c, 13, 53, 92
16, 151671, Note_on_c, 13, 53, 0
16, 151680, Note_on_c, 13, 53, 92
16, 151705, Note_on_c, 13, 53, 0
16, 151710, Note_on_c, 13, 53, 92
16, 151735, Note_on_c, 13, 53, 0
16, 151740, Note_on_c, 13, 53, 92
16, 151765, Note_on_c, 13, 53, 0
16, 151770, Note_on_c, 13, 53, 92
16, 151795, Note_on_c, 13, 53, 0
16, 151800, Note_on_c, 13, 53, 92
16, 151825, Note_on_c, 13, 53, 0
16, 151830, Note_on_c, 13, 53, 92
16, 151855, Note_on_c, 13, 53, 0
16, 151860, Note_on_c, 13, 53, 92
16, 151885, Note_on_c, 13, 53, 0
16, 151890, Note_on_c, 13, 53, 92
16, 151915, Note_on_c, 13, 53, 0
16, 151920, Note_on_c, 13, 53, 92
16, 151945, Note_on_c, 13, 53, 0
16, 151950, Note_on_c, 13, 53, 92
16, 151975, Note_on_c, 13, 53, 0
16, 151980, Note_on_c, 13, 53, 92
16, 152005, Note_on_c, 13, 53, 0
16, 152010, Note_on_c, 13, 53, 92
16, 152035, Note_on_c, 13, 53, 0
16, 152040, Note_on_c, 13, 53, 92
16, 152065, Note_on_c, 13, 53, 0
16, 152070, Note_on_c, 13, 53, 92
16, 152095, Note_on_c, 13, 53, 0
16, 152100, Note_on_c, 13, 53, 92
16, 152125, Note_on_c, 13, 53, 0
16, 152130, Note_on_c, 13, 53, 92
16, 152155, Note_on_c, 13, 53, 0
16, 152160, Note_on_c, 13, 53, 92
16, 152185, Note_on_c, 13, 53, 0
16, 152190, Note_on_c, 13, 53, 92
16, 152215, Note_on_c, 13, 53, 0
16, 152220, Note_on_c, 13, 53, 92
16, 152245, Note_on_c, 13, 53, 0
16, 152250, Note_on_c, 13, 53, 92
16, 152275, Note_on_c, 13, 53, 0
16, 152280, Note_on_c, 13, 53, 92
16, 152305, Note_on_c, 13, 53, 0
16, 152310, Note_on_c, 13, 53, 92
16, 152335, Note_on_c, 13, 53, 0
16, 152340, Note_on_c, 13, 53, 92
16, 152365, Note_on_c, 13, 53, 0
16, 152370, Note_on_c, 13, 53, 92
16, 152395, Note_on_c, 13, 53, 0
16, 152400, Note_on_c, 13, 53, 92
16, 152425, Note_on_c, 13, 53, 0
16, 152430, Note_on_c, 13, 53, 92
16, 152455, Note_on_c, 13, 53, 0
16, 152460, Note_on_c, 13, 53, 92
16, 152485, Note_on_c, 13, 53, 0
16, 152490, Note_on_c, 13, 53, 92
16, 152515, Note_on_c, 13, 53, 0
16, 152520, Note_on_c, 13, 53, 92
16, 152545, Note_on_c, 13, 53, 0
16, 152550, Note_on_c, 13, 53, 92
16, 152575, Note_on_c, 13, 53, 0
16, 152580, Note_on_c, 13, 53, 92
16, 152605, Note_on_c, 13, 53, 0
16, 152610, Note_on_c, 13, 53, 92
16, 152635, Note_on_c, 13, 53, 0
16, 152640, Note_on_c, 13, 62, 92
16, 152640, Note_on_c, 13, 50, 92
16, 152931, Note_on_c, 13, 62, 0
16, 152931, Note_on_c, 13, 50, 0
16, 152940, Note_on_c, 13, 53, 92
16, 152984, Note_on_c, 13, 53, 0
16, 153000, Note_on_c, 13, 52, 92
16, 153044, Note_on_c, 13, 52, 0
16, 153060, Note_on_c, 13, 50, 92
16, 153104, Note_on_c, 13, 50, 0
16, 153120, Note_on_c, 13, 57, 92
16, 153209, Note_on_c, 13, 57, 0
16, 153240, Note_on_c, 13, 55, 92
16, 153329, Note_on_c, 13, 55, 0
16, 153360, Note_on_c, 13, 52, 92
16, 153449, Note_on_c, 13, 52, 0
16, 153480, Note_on_c, 13, 57, 92
16, 153569, Note_on_c, 13, 57, 0
16, 153600, Note_on_c, 13, 62, 92
16, 153600, Note_on_c, 13, 50, 92
16, 153625, Note_on_c, 13, 62, 0
16, 153625, Note_on_c, 13, 50, 0
16, 153630, Note_on_c, 13, 50, 92
16, 153630, Note_on_c, 13, 62, 92
16, 153655, Note_on_c, 13, 50, 0
16, 153655, Note_on_c, 13, 62, 0
16, 153660, Note_on_c, 13, 50, 92
16, 153660, Note_on_c, 13, 62, 92
16, 153685, Note_on_c, 13, 50, 0
16, 153685, Note_on_c, 13, 62, 0
16, 153690, Note_on_c, 13, 50, 92
16, 153690, Note_on_c, 13, 62, 92
16, 153715, Note_on_c, 13, 50, 0
16, 153715, Note_on_c, 13, 62, 0
16, 153720, Note_on_c, 13, 50, 92
16, 153720, Note_on_c, 13, 62, 92
16, 153745, Note_on_c, 13, 50, 0
16, 153745, Note_on_c, 13, 62, 0
16, 153750, Note_on_c, 13, 50, 92
16, 153750, Note_on_c, 13, 62, 92
16, 153775, Note_on_c, 13, 50, 0
16, 153775, Note_on_c, 13, 62, 0
16, 153780, Note_on_c, 13, 50, 92
16, 153780, Note_on_c, 13, 62, 92
16, 153805, Note_on_c, 13, 50, 0
16, 153805, Note_on_c, 13, 62, 0
16, 153810, Note_on_c, 13, 62, 92
16, 153810, Note_on_c, 13, 50, 92
16, 153835, Note_on_c, 13, 62, 0
16, 153835, Note_on_c, 13, 50, 0
16, 153840, Note_on_c, 13, 62, 92
16, 153840, Note_on_c, 13, 50, 92
16, 153865, Note_on_c, 13, 62, 0
16, 153865, Note_on_c, 13, 50, 0
16, 153870, Note_on_c, 13, 62, 92
16, 153870, Note_on_c, 13, 50, 92
16, 153895, Note_on_c, 13, 62, 0
16, 153895, Note_on_c, 13, 50, 0
16, 153900, Note_on_c, 13, 50, 92
16, 153900, Note_on_c, 13, 62, 92
16, 153925, Note_on_c, 13, 50, 0
16, 153925, Note_on_c, 13, 62, 0
16, 153930, Note_on_c, 13, 62, 92
16, 153930, Note_on_c, 13, 50, 92
16, 153955, Note_on_c, 13, 62, 0
16, 153955, Note_on_c, 13, 50, 0
16, 153960, Note_on_c, 13, 50, 92
16, 153960, Note_on_c, 13, 62, 92
16, 153985, Note_on_c, 13, 50, 0
16, 153985, Note_on_c, 13, 62, 0
16, 153990, Note_on_c, 13, 62, 92
16, 153990, Note_on_c, 13, 50, 92
16, 154015, Note_on_c, 13, 62, 0
16, 154015, Note_on_c, 13, 50, 0
16, 154020, Note_on_c, 13, 50, 92
16, 154020, Note_on_c, 13, 62, 92
16, 154045, Note_on_c, 13, 50, 0
16, 154045, Note_on_c, 13, 62, 0
16, 154050, Note_on_c, 13, 50, 92
16, 154050, Note_on_c, 13, 62, 92
16, 154075, Note_on_c, 13, 50, 0
16, 154075, Note_on_c, 13, 62, 0
16, 154080, Note_on_c, 13, 50, 92
16, 154080, Note_on_c, 13, 62, 92
16, 154105, Note_on_c, 13, 50, 0
16, 154105, Note_on_c, 13, 62, 0
16, 154110, Note_on_c, 13, 62, 92
16, 154110, Note_on_c, 13, 50, 92
16, 154135, Note_on_c, 13, 62, 0
16, 154135, Note_on_c, 13, 50, 0
16, 154140, Note_on_c, 13, 50, 92
16, 154140, Note_on_c, 13, 62, 92
16, 154165, Note_on_c, 13, 50, 0
16, 154165, Note_on_c, 13, 62, 0
16, 154170, Note_on_c, 13, 62, 92
16, 154170, Note_on_c, 13, 50, 92
16, 154195, Note_on_c, 13, 62, 0
16, 154195, Note_on_c, 13, 50, 0
16, 154200, Note_on_c, 13, 62, 92
16, 154200, Note_on_c, 13, 50, 92
16, 154225, Note_on_c, 13, 62, 0
16, 154225, Note_on_c, 13, 50, 0
16, 154230, Note_on_c, 13, 50, 92
16, 154230, Note_on_c, 13, 62, 92
16, 154255, Note_on_c, 13, 50, 0
16, 154255, Note_on_c, 13, 62, 0
16, 154260, Note_on_c, 13, 62, 92
16, 154260, Note_on_c, 13, 50, 92
16, 154285, Note_on_c, 13, 62, 0
16, 154285, Note_on_c, 13, 50, 0
16, 154290, Note_on_c, 13, 50, 92
16, 154290, Note_on_c, 13, 62, 92
16, 154315, Note_on_c, 13, 50, 0
16, 154315, Note_on_c, 13, 62, 0
16, 154320, Note_on_c, 13, 50, 92
16, 154320, Note_on_c, 13, 62, 92
16, 154345, Note_on_c, 13, 50, 0
16, 154345, Note_on_c, 13, 62, 0
16, 154350, Note_on_c, 13, 62, 92
16, 154350, Note_on_c, 13, 50, 92
16, 154375, Note_on_c, 13, 62, 0
16, 154375, Note_on_c, 13, 50, 0
16, 154380, Note_on_c, 13, 50, 92
16, 154380, Note_on_c, 13, 62, 92
16, 154405, Note_on_c, 13, 50, 0
16, 154405, Note_on_c, 13, 62, 0
16, 154410, Note_on_c, 13, 50, 92
16, 154410, Note_on_c, 13, 62, 92
16, 154435, Note_on_c, 13, 50, 0
16, 154435, Note_on_c, 13, 62, 0
16, 154440, Note_on_c, 13, 50, 92
16, 154440, Note_on_c, 13, 62, 92
16, 154465, Note_on_c, 13, 50, 0
16, 154465, Note_on_c, 13, 62, 0
16, 154470, Note_on_c, 13, 62, 92
16, 154470, Note_on_c, 13, 50, 92
16, 154495, Note_on_c, 13, 62, 0
16, 154495, Note_on_c, 13, 50, 0
16, 154500, Note_on_c, 13, 50, 92
16, 154500, Note_on_c, 13, 62, 92
16, 154525, Note_on_c, 13, 50, 0
16, 154525, Note_on_c, 13, 62, 0
16, 154530, Note_on_c, 13, 62, 92
16, 154530, Note_on_c, 13, 50, 92
16, 154555, Note_on_c, 13, 62, 0
16, 154555, Note_on_c, 13, 50, 0
16, 154560, Note_on_c, 13, 50, 80
16, 154739, Note_on_c, 13, 50, 0
16, 154800, Note_on_c, 13, 51, 80
16, 154979, Note_on_c, 13, 51, 0
16, 155040, Note_on_c, 13, 54, 80
16, 155065, Note_on_c, 13, 54, 0
16, 155070, Note_on_c, 13, 54, 80
16, 155095, Note_on_c, 13, 54, 0
16, 155100, Note_on_c, 13, 54, 80
16, 155125, Note_on_c, 13, 54, 0
16, 155130, Note_on_c, 13, 54, 80
16, 155155, Note_on_c, 13, 54, 0
16, 155160, Note_on_c, 13, 54, 80
16, 155185, Note_on_c, 13, 54, 0
16, 155190, Note_on_c, 13, 54, 80
16, 155215, Note_on_c, 13, 54, 0
16, 155220, Note_on_c, 13, 54, 80
16, 155245, Note_on_c, 13, 54, 0
16, 155250, Note_on_c, 13, 54, 80
16, 155275, Note_on_c, 13, 54, 0
16, 155280, Note_on_c, 13, 54, 80
16, 155305, Note_on_c, 13, 54, 0
16, 155310, Note_on_c, 13, 54, 80
16, 155335, Note_on_c, 13, 54, 0
16, 155340, Note_on_c, 13, 54, 80
16, 155365, Note_on_c, 13, 54, 0
16, 155370, Note_on_c, 13, 54, 80
16, 155395, Note_on_c, 13, 54, 0
16, 155400, Note_on_c, 13, 54, 80
16, 155425, Note_on_c, 13, 54, 0
16, 155430, Note_on_c, 13, 54, 80
16, 155455, Note_on_c, 13, 54, 0
16, 155460, Note_on_c, 13, 54, 80
16, 155485, Note_on_c, 13, 54, 0
16, 155490, Note_on_c, 13, 54, 80
16, 155515, Note_on_c, 13, 54, 0
16, 155520, Note_on_c, 13, 58, 80
16, 155699, Note_on_c, 13, 58, 0
16, 155760, Note_on_c, 13, 48, 80
16, 155760, Note_on_c, 13, 60, 80
16, 155939, Note_on_c, 13, 48, 0
16, 155939, Note_on_c, 13, 60, 0
16, 156000, Note_on_c, 13, 58, 80
16, 156025, Note_on_c, 13, 58, 0
16, 156030, Note_on_c, 13, 58, 80
16, 156055, Note_on_c, 13, 58, 0
16, 156060, Note_on_c, 13, 58, 80
16, 156085, Note_on_c, 13, 58, 0
16, 156090, Note_on_c, 13, 58, 80
16, 156115, Note_on_c, 13, 58, 0
16, 156120, Note_on_c, 13, 55, 80
16, 156120, Note_on_c, 13, 51, 80
16, 156145, Note_on_c, 13, 55, 0
16, 156145, Note_on_c, 13, 51, 0
16, 156150, Note_on_c, 13, 55, 80
16, 156150, Note_on_c, 13, 51, 80
16, 156175, Note_on_c, 13, 55, 0
16, 156175, Note_on_c, 13, 51, 0
16, 156180, Note_on_c, 13, 55, 80
16, 156180, Note_on_c, 13, 51, 80
16, 156205, Note_on_c, 13, 55, 0
16, 156205, Note_on_c, 13, 51, 0
16, 156210, Note_on_c, 13, 55, 80
16, 156210, Note_on_c, 13, 51, 80
16, 156235, Note_on_c, 13, 55, 0
16, 156235, Note_on_c, 13, 51, 0
16, 156240, Note_on_c, 13, 55, 80
16, 156240, Note_on_c, 13, 51, 80
16, 156265, Note_on_c, 13, 55, 0
16, 156265, Note_on_c, 13, 51, 0
16, 156270, Note_on_c, 13, 55, 80
16, 156270, Note_on_c, 13, 51, 80
16, 156295, Note_on_c, 13, 55, 0
16, 156295, Note_on_c, 13, 51, 0
16, 156300, Note_on_c, 13, 51, 80
16, 156300, Note_on_c, 13, 55, 80
16, 156325, Note_on_c, 13, 51, 0
16, 156325, Note_on_c, 13, 55, 0
16, 156330, Note_on_c, 13, 51, 80
16, 156330, Note_on_c, 13, 55, 80
16, 156355, Note_on_c, 13, 51, 0
16, 156355, Note_on_c, 13, 55, 0
16, 156360, Note_on_c, 13, 51, 80
16, 156360, Note_on_c, 13, 55, 80
16, 156385, Note_on_c, 13, 51, 0
16, 156385, Note_on_c, 13, 55, 0
16, 156390, Note_on_c, 13, 55, 80
16, 156390, Note_on_c, 13, 51, 80
16, 156415, Note_on_c, 13, 55, 0
16, 156415, Note_on_c, 13, 51, 0
16, 156420, Note_on_c, 13, 51, 80
16, 156420, Note_on_c, 13, 55, 80
16, 156445, Note_on_c, 13, 51, 0
16, 156445, Note_on_c, 13, 55, 0
16, 156450, Note_on_c, 13, 55, 80
16, 156450, Note_on_c, 13, 51, 80
16, 156475, Note_on_c, 13, 55, 0
16, 156475, Note_on_c, 13, 51, 0
16, 156480, Note_on_c, 13, 49, 92
16, 156505, Note_on_c, 13, 49, 0
16, 156510, Note_on_c, 13, 49, 80
16, 156535, Note_on_c, 13, 49, 0
16, 156540, Note_on_c, 13, 49, 80
16, 156565, Note_on_c, 13, 49, 0
16, 156570, Note_on_c, 13, 49, 80
16, 156595, Note_on_c, 13, 49, 0
16, 156600, Note_on_c, 13, 58, 92
16, 156659, Note_on_c, 13, 58, 0
16, 156660, Note_on_c, 13, 58, 80
16, 156824, Note_on_c, 13, 58, 0
16, 156840, Note_on_c, 13, 57, 80
16, 156929, Note_on_c, 13, 57, 0
16, 156960, Note_on_c, 13, 55, 80
16, 157049, Note_on_c, 13, 55, 0
16, 157080, Note_on_c, 13, 53, 80
16, 157169, Note_on_c, 13, 53, 0
16, 157200, Note_on_c, 13, 51, 80
16, 157289, Note_on_c, 13, 51, 0
16, 157320, Note_on_c, 13, 50, 80
16, 157409, Note_on_c, 13, 50, 0
16, 157440, Note_on_c, 13, 49, 80
16, 157649, Note_on_c, 13, 49, 0
16, 157680, Note_on_c, 13, 48, 80
16, 157889, Note_on_c, 13, 48, 0
16, 158280, Note_on_c, 13, 50, 80
16, 158319, Note_on_c, 13, 50, 0
16, 158320, Note_on_c, 13, 52, 80
16, 158359, Note_on_c, 13, 52, 0
16, 158360, Note_on_c, 13, 54, 80
16, 158393, Note_on_c, 13, 54, 0
16, 158400, Note_on_c, 13, 55, 92
16, 158459, Note_on_c, 13, 55, 0
16, 158460, Note_on_c, 13, 55, 80
16, 158744, Note_on_c, 13, 55, 0
16, 158760, Note_on_c, 13, 53, 80
16, 158849, Note_on_c, 13, 53, 0
16, 158880, Note_on_c, 13, 52, 80
16, 158969, Note_on_c, 13, 52, 0
16, 159000, Note_on_c, 13, 50, 80
16, 159089, Note_on_c, 13, 50, 0
16, 159120, Note_on_c, 13, 49, 80
16, 159209, Note_on_c, 13, 49, 0
16, 159240, Note_on_c, 13, 58, 80
16, 159329, Note_on_c, 13, 58, 0
16, 159360, Note_on_c, 13, 57, 80
16, 159569, Note_on_c, 13, 57, 0
16, 159600, Note_on_c, 13, 56, 80
16, 159809, Note_on_c, 13, 56, 0
16, 160200, Note_on_c, 13, 59, 80
16, 160239, Note_on_c, 13, 59, 0
16, 160240, Note_on_c, 13, 61, 80
16, 160279, Note_on_c, 13, 61, 0
16, 160280, Note_on_c, 13, 62, 80
16, 160313, Note_on_c, 13, 62, 0
16, 160320, Note_on_c, 13, 64, 92
16, 160320, Note_on_c, 13, 52, 92
16, 160379, Note_on_c, 13, 64, 0
16, 160379, Note_on_c, 13, 52, 0
16, 160380, Note_on_c, 13, 52, 80
16, 160380, Note_on_c, 13, 64, 80
16, 160664, Note_on_c, 13, 52, 0
16, 160664, Note_on_c, 13, 64, 0
16, 160680, Note_on_c, 13, 62, 80
16, 160680, Note_on_c, 13, 50, 80
16, 160769, Note_on_c, 13, 62, 0
16, 160769, Note_on_c, 13, 50, 0
16, 160800, Note_on_c, 13, 61, 80
16, 160800, Note_on_c, 13, 49, 80
16, 160889, Note_on_c, 13, 61, 0
16, 160889, Note_on_c, 13, 49, 0
16, 160920, Note_on_c, 13, 58, 80
16, 161009, Note_on_c, 13, 58, 0
16, 161040, Note_on_c, 13, 57, 80
16, 161129, Note_on_c, 13, 57, 0
16, 161160, Note_on_c, 13, 55, 80
16, 161249, Note_on_c, 13, 55, 0
16, 161280, Note_on_c, 13, 52, 92
16, 161280, Note_on_c, 13, 55, 92
16, 161305, Note_on_c, 13, 52, 0
16, 161305, Note_on_c, 13, 55, 0
16, 161310, Note_on_c, 13, 55, 79
16, 161310, Note_on_c, 13, 52, 79
16, 161335, Note_on_c, 13, 55, 0
16, 161335, Note_on_c, 13, 52, 0
16, 161340, Note_on_c, 13, 55, 78
16, 161340, Note_on_c, 13, 52, 78
16, 161365, Note_on_c, 13, 55, 0
16, 161365, Note_on_c, 13, 52, 0
16, 161370, Note_on_c, 13, 52, 77
16, 161370, Note_on_c, 13, 55, 77
16, 161395, Note_on_c, 13, 52, 0
16, 161395, Note_on_c, 13, 55, 0
16, 161400, Note_on_c, 13, 55, 76
16, 161400, Note_on_c, 13, 52, 76
16, 161425, Note_on_c, 13, 55, 0
16, 161425, Note_on_c, 13, 52, 0
16, 161430, Note_on_c, 13, 55, 75
16, 161430, Note_on_c, 13, 52, 75
16, 161455, Note_on_c, 13, 55, 0
16, 161455, Note_on_c, 13, 52, 0
16, 161460, Note_on_c, 13, 52, 74
16, 161460, Note_on_c, 13, 55, 74
16, 161485, Note_on_c, 13, 52, 0
16, 161485, Note_on_c, 13, 55, 0
16, 161490, Note_on_c, 13, 55, 73
16, 161490, Note_on_c, 13, 52, 73
16, 161515, Note_on_c, 13, 55, 0
16, 161515, Note_on_c, 13, 52, 0
16, 161520, Note_on_c, 13, 52, 71
16, 161520, Note_on_c, 13, 55, 71
16, 161545, Note_on_c, 13, 52, 0
16, 161545, Note_on_c, 13, 55, 0
16, 161550, Note_on_c, 13, 52, 70
16, 161550, Note_on_c, 13, 55, 70
16, 161575, Note_on_c, 13, 52, 0
16, 161575, Note_on_c, 13, 55, 0
16, 161580, Note_on_c, 13, 55, 69
16, 161580, Note_on_c, 13, 52, 69
16, 161605, Note_on_c, 13, 55, 0
16, 161605, Note_on_c, 13, 52, 0
16, 161610, Note_on_c, 13, 55, 68
16, 161610, Note_on_c, 13, 52, 68
16, 161635, Note_on_c, 13, 55, 0
16, 161635, Note_on_c, 13, 52, 0
16, 161640, Note_on_c, 13, 52, 67
16, 161640, Note_on_c, 13, 55, 67
16, 161665, Note_on_c, 13, 52, 0
16, 161665, Note_on_c, 13, 55, 0
16, 161670, Note_on_c, 13, 52, 66
16, 161670, Note_on_c, 13, 55, 66
16, 161695, Note_on_c, 13, 52, 0
16, 161695, Note_on_c, 13, 55, 0
16, 161700, Note_on_c, 13, 52, 65
16, 161700, Note_on_c, 13, 55, 65
16, 161725, Note_on_c, 13, 52, 0
16, 161725, Note_on_c, 13, 55, 0
16, 161730, Note_on_c, 13, 55, 64
16, 161730, Note_on_c, 13, 52, 64
16, 161755, Note_on_c, 13, 55, 0
16, 161755, Note_on_c, 13, 52, 0
16, 161760, Note_on_c, 13, 52, 62
16, 161760, Note_on_c, 13, 55, 62
16, 161785, Note_on_c, 13, 52, 0
16, 161785, Note_on_c, 13, 55, 0
16, 161790, Note_on_c, 13, 52, 61
16, 161790, Note_on_c, 13, 55, 61
16, 161815, Note_on_c, 13, 52, 0
16, 161815, Note_on_c, 13, 55, 0
16, 161820, Note_on_c, 13, 52, 60
16, 161820, Note_on_c, 13, 55, 60
16, 161845, Note_on_c, 13, 52, 0
16, 161845, Note_on_c, 13, 55, 0
16, 161850, Note_on_c, 13, 55, 59
16, 161850, Note_on_c, 13, 52, 59
16, 161875, Note_on_c, 13, 55, 0
16, 161875, Note_on_c, 13, 52, 0
16, 161880, Note_on_c, 13, 55, 58
16, 161880, Note_on_c, 13, 52, 58
16, 161905, Note_on_c, 13, 55, 0
16, 161905, Note_on_c, 13, 52, 0
16, 161910, Note_on_c, 13, 52, 57
16, 161910, Note_on_c, 13, 55, 57
16, 161935, Note_on_c, 13, 52, 0
16, 161935, Note_on_c, 13, 55, 0
16, 161940, Note_on_c, 13, 52, 56
16, 161940, Note_on_c, 13, 55, 56
16, 161965, Note_on_c, 13, 52, 0
16, 161965, Note_on_c, 13, 55, 0
16, 161970, Note_on_c, 13, 55, 55
16, 161970, Note_on_c, 13, 52, 55
16, 161995, Note_on_c, 13, 55, 0
16, 161995, Note_on_c, 13, 52, 0
16, 162000, Note_on_c, 13, 55, 53
16, 162000, Note_on_c, 13, 52, 53
16, 162025, Note_on_c, 13, 55, 0
16, 162025, Note_on_c, 13, 52, 0
16, 162030, Note_on_c, 13, 55, 52
16, 162030, Note_on_c, 13, 52, 52
16, 162055, Note_on_c, 13, 55, 0
16, 162055, Note_on_c, 13, 52, 0
16, 162060, Note_on_c, 13, 52, 51
16, 162060, Note_on_c, 13, 55, 51
16, 162085, Note_on_c, 13, 52, 0
16, 162085, Note_on_c, 13, 55, 0
16, 162090, Note_on_c, 13, 55, 50
16, 162090, Note_on_c, 13, 52, 50
16, 162115, Note_on_c, 13, 55, 0
16, 162115, Note_on_c, 13, 52, 0
16, 162120, Note_on_c, 13, 52, 49
16, 162120, Note_on_c, 13, 55, 49
16, 162145, Note_on_c, 13, 52, 0
16, 162145, Note_on_c, 13, 55, 0
16, 162150, Note_on_c, 13, 55, 48
16, 162150, Note_on_c, 13, 52, 48
16, 162175, Note_on_c, 13, 55, 0
16, 162175, Note_on_c, 13, 52, 0
16, 162180, Note_on_c, 13, 55, 47
16, 162180, Note_on_c, 13, 52, 47
16, 162205, Note_on_c, 13, 55, 0
16, 162205, Note_on_c, 13, 52, 0
16, 162210, Note_on_c, 13, 55, 46
16, 162210, Note_on_c, 13, 52, 46
16, 162235, Note_on_c, 13, 55, 0
16, 162235, Note_on_c, 13, 52, 0
16, 162240, Note_on_c, 13, 52, 44
16, 162240, Note_on_c, 13, 55, 44
16, 162344, Note_on_c, 13, 52, 0
16, 162344, Note_on_c, 13, 55, 0
16, 162360, Note_on_c, 13, 55, 44
16, 162411, Note_on_c, 13, 55, 0
16, 162420, Note_on_c, 13, 55, 44
16, 162471, Note_on_c, 13, 55, 0
16, 162480, Note_on_c, 13, 55, 44
16, 162599, Note_on_c, 13, 55, 0
16, 163320, Note_on_c, 13, 50, 44
16, 163371, Note_on_c, 13, 50, 0
16, 163380, Note_on_c, 13, 50, 44
16, 163431, Note_on_c, 13, 50, 0
16, 163440, Note_on_c, 13, 50, 44
16, 163559, Note_on_c, 13, 50, 0
16, 164280, Note_on_c, 13, 57, 44
16, 164331, Note_on_c, 13, 57, 0
16, 164340, Note_on_c, 13, 57, 44
16, 164391, Note_on_c, 13, 57, 0
16, 164400, Note_on_c, 13, 57, 44
16, 164519, Note_on_c, 13, 57, 0
16, 165000, Note_on_c, 13, 49, 44
16, 165171, Note_on_c, 13, 49, 0
16, 165180, Note_on_c, 13, 50, 44
16, 165224, Note_on_c, 13, 50, 0
16, 165240, Note_on_c, 13, 53, 44
16, 165284, Note_on_c, 13, 53, 0
16, 165300, Note_on_c, 13, 54, 44
16, 165344, Note_on_c, 13, 54, 0
16, 165360, Note_on_c, 13, 57, 44
16, 165479, Note_on_c, 13, 57, 0
16, 165600, Note_on_c, 13, 53, 44
16, 165644, Note_on_c, 13, 53, 0
16, 165660, Note_on_c, 13, 54, 44
16, 165704, Note_on_c, 13, 54, 0
16, 165720, Note_on_c, 13, 57, 44
16, 165764, Note_on_c, 13, 57, 0
16, 165780, Note_on_c, 13, 61, 44
16, 165824, Note_on_c, 13, 61, 0
16, 165840, Note_on_c, 13, 62, 44
16, 165959, Note_on_c, 13, 62, 0
16, 166080, Note_on_c, 13, 52, 44
16, 166124, Note_on_c, 13, 52, 0
16, 166140, Note_on_c, 13, 55, 44
16, 166184, Note_on_c, 13, 55, 0
16, 166200, Note_on_c, 13, 57, 44
16, 166244, Note_on_c, 13, 57, 0
16, 166260, Note_on_c, 13, 61, 44
16, 166304, Note_on_c, 13, 61, 0
16, 166320, Note_on_c, 13, 64, 44
16, 166439, Note_on_c, 13, 64, 0
16, 166560, Note_on_c, 13, 55, 44
16, 166604, Note_on_c, 13, 55, 0
16, 166620, Note_on_c, 13, 49, 44
16, 166664, Note_on_c, 13, 49, 0
16, 166680, Note_on_c, 13, 52, 44
16, 166724, Note_on_c, 13, 52, 0
16, 166740, Note_on_c, 13, 54, 44
16, 166784, Note_on_c, 13, 54, 0
16, 166800, Note_on_c, 13, 55, 44
16, 166919, Note_on_c, 13, 55, 0
16, 167040, Control_c, 13, 11, 87
16, 167160, Note_on_c, 13, 54, 68
16, 167160, Control_c, 13, 11, 87
16, 167185, Control_c, 13, 11, 89
16, 167210, Control_c, 13, 11, 90
16, 167235, Control_c, 13, 11, 92
16, 167260, Control_c, 13, 11, 94
16, 167285, Control_c, 13, 11, 95
16, 167310, Control_c, 13, 11, 97
16, 167335, Control_c, 13, 11, 99
16, 167360, Control_c, 13, 11, 100
16, 167385, Control_c, 13, 11, 102
16, 167399, Note_on_c, 13, 54, 0
16, 167400, Note_on_c, 13, 59, 68
16, 167410, Control_c, 13, 11, 104
16, 167435, Control_c, 13, 11, 105
16, 167459, Note_on_c, 13, 59, 0
16, 167460, Control_c, 13, 11, 107
16, 167460, Note_on_c, 13, 57, 68
16, 167485, Control_c, 13, 11, 109
16, 167510, Control_c, 13, 11, 110
16, 167519, Note_on_c, 13, 57, 0
16, 167535, Control_c, 13, 11, 112
16, 167560, Control_c, 13, 11, 114
16, 167585, Control_c, 13, 11, 115
16, 167610, Control_c, 13, 11, 117
16, 167635, Control_c, 13, 11, 119
16, 167640, Note_on_c, 13, 57, 68
16, 167660, Control_c, 13, 11, 120
16, 167685, Control_c, 13, 11, 122
16, 167710, Control_c, 13, 11, 124
16, 167735, Control_c, 13, 11, 125
16, 167760, Control_c, 13, 11, 127
16, 167780, Control_c, 13, 11, 124
16, 167800, Control_c, 13, 11, 120
16, 167820, Control_c, 13, 11, 117
16, 167840, Control_c, 13, 11, 114
16, 167860, Control_c, 13, 11, 110
16, 167879, Note_on_c, 13, 57, 0
16, 167880, Control_c, 13, 11, 107
16, 167880, Note_on_c, 13, 64, 68
16, 167900, Control_c, 13, 11, 104
16, 167920, Control_c, 13, 11, 100
16, 167939, Note_on_c, 13, 64, 0
16, 167940, Note_on_c, 13, 62, 68
16, 167940, Control_c, 13, 11, 97
16, 167960, Control_c, 13, 11, 94
16, 167980, Control_c, 13, 11, 90
16, 167991, Note_on_c, 13, 62, 0
16, 168000, Control_c, 13, 11, 87
16, 168000, Note_on_c, 13, 50, 68
16, 168040, Control_c, 13, 11, 89
16, 168044, Note_on_c, 13, 50, 0
16, 168060, Note_on_c, 13, 53, 68
16, 168080, Control_c, 13, 11, 90
16, 168104, Note_on_c, 13, 53, 0
16, 168120, Note_on_c, 13, 56, 68
16, 168120, Control_c, 13, 11, 92
16, 168160, Control_c, 13, 11, 94
16, 168164, Note_on_c, 13, 56, 0
16, 168180, Note_on_c, 13, 57, 68
16, 168200, Control_c, 13, 11, 95
16, 168224, Note_on_c, 13, 57, 0
16, 168240, Control_c, 13, 11, 97
16, 168240, Note_on_c, 13, 57, 68
16, 168280, Control_c, 13, 11, 99
16, 168320, Control_c, 13, 11, 100
16, 168359, Note_on_c, 13, 57, 0
16, 168360, Control_c, 13, 11, 102
16, 168400, Control_c, 13, 11, 104
16, 168440, Control_c, 13, 11, 105
16, 168480, Control_c, 13, 11, 107
16, 168480, Note_on_c, 13, 53, 68
16, 168520, Control_c, 13, 11, 109
16, 168524, Note_on_c, 13, 53, 0
16, 168540, Note_on_c, 13, 57, 68
16, 168560, Control_c, 13, 11, 110
16, 168584, Note_on_c, 13, 57, 0
16, 168600, Control_c, 13, 11, 112
16, 168600, Note_on_c, 13, 61, 68
16, 168640, Control_c, 13, 11, 114
16, 168644, Note_on_c, 13, 61, 0
16, 168660, Note_on_c, 13, 62, 68
16, 168680, Control_c, 13, 11, 115
16, 168704, Note_on_c, 13, 62, 0
16, 168720, Control_c, 13, 11, 117
16, 168720, Note_on_c, 13, 62, 68
16, 168760, Control_c, 13, 11, 119
16, 168800, Control_c, 13, 11, 120
16, 168839, Note_on_c, 13, 62, 0
16, 168840, Control_c, 13, 11, 122
16, 168880, Control_c, 13, 11, 124
16, 168920, Control_c, 13, 11, 127
16, 168960, Note_on_c, 13, 55, 68
16, 169004, Note_on_c, 13, 55, 0
16, 169020, Note_on_c, 13, 61, 67
16, 169064, Note_on_c, 13, 61, 0
16, 169080, Note_on_c, 13, 64, 65
16, 169124, Note_on_c, 13, 64, 0
16, 169140, Note_on_c, 13, 65, 64
16, 169184, Note_on_c, 13, 65, 0
16, 169200, Note_on_c, 13, 67, 62
16, 169319, Note_on_c, 13, 67, 0
16, 169440, Note_on_c, 13, 55, 56
16, 169484, Note_on_c, 13, 55, 0
16, 169500, Note_on_c, 13, 49, 55
16, 169544, Note_on_c, 13, 49, 0
16, 169560, Note_on_c, 13, 52, 53
16, 169604, Note_on_c, 13, 52, 0
16, 169620, Note_on_c, 13, 55, 52
16, 169664, Note_on_c, 13, 55, 0
16, 169680, Note_on_c, 13, 55, 50
16, 169724, Note_on_c, 13, 55, 0
16, 169740, Note_on_c, 13, 61, 49
16, 169784, Note_on_c, 13, 61, 0
16, 169800, Note_on_c, 13, 64, 47
16, 169844, Note_on_c, 13, 64, 0
16, 169860, Note_on_c, 13, 55, 46
16, 169904, Note_on_c, 13, 55, 0
16, 169920, Note_on_c, 13, 53, 44
16, 169971, Note_on_c, 13, 53, 0
16, 169980, Note_on_c, 13, 69, 44
16, 170039, Note_on_c, 13, 69, 0
16, 170040, Note_on_c, 13, 73, 44
16, 170099, Note_on_c, 13, 73, 0
16, 170100, Note_on_c, 13, 69, 44
16, 170159, Note_on_c, 13, 69, 0
16, 170160, Note_on_c, 13, 74, 44
16, 170279, Note_on_c, 13, 74, 0
16, 170940, Note_on_c, 13, 58, 44
16, 170999, Note_on_c, 13, 58, 0
16, 171000, Note_on_c, 13, 64, 44
16, 171059, Note_on_c, 13, 64, 0
16, 171060, Note_on_c, 13, 58, 44
16, 171119, Note_on_c, 13, 58, 0
16, 171120, Note_on_c, 13, 65, 44
16, 171239, Note_on_c, 13, 65, 0
16, 171900, Note_on_c, 13, 50, 46
16, 171959, Note_on_c, 13, 50, 0
16, 171960, Note_on_c, 13, 52, 48
16, 172011, Note_on_c, 13, 52, 0
16, 172020, Note_on_c, 13, 54, 50
16, 172079, Note_on_c, 13, 54, 0
16, 172080, Note_on_c, 13, 55, 53
16, 172131, Note_on_c, 13, 55, 0
16, 172140, Note_on_c, 13, 57, 55
16, 172199, Note_on_c, 13, 57, 0
16, 172200, Note_on_c, 13, 58, 57
16, 172251, Note_on_c, 13, 58, 0
16, 172260, Note_on_c, 13, 60, 59
16, 172319, Note_on_c, 13, 60, 0
16, 172320, Note_on_c, 13, 62, 62
16, 172371, Note_on_c, 13, 62, 0
16, 172380, Note_on_c, 13, 64, 64
16, 172439, Note_on_c, 13, 64, 0
16, 172440, Note_on_c, 13, 66, 66
16, 172491, Note_on_c, 13, 66, 0
16, 172500, Note_on_c, 13, 67, 68
16, 172559, Note_on_c, 13, 67, 0
16, 172560, Note_on_c, 13, 69, 71
16, 172611, Note_on_c, 13, 69, 0
16, 172620, Note_on_c, 13, 57, 73
16, 172679, Note_on_c, 13, 57, 0
16, 172680, Note_on_c, 13, 58, 75
16, 172731, Note_on_c, 13, 58, 0
16, 172740, Note_on_c, 13, 60, 77
16, 172799, Note_on_c, 13, 60, 0
16, 172800, Note_on_c, 13, 55, 80
16, 172851, Note_on_c, 13, 55, 0
16, 172860, Note_on_c, 13, 53, 80
16, 172919, Note_on_c, 13, 53, 0
16, 172920, Note_on_c, 13, 52, 80
16, 172971, Note_on_c, 13, 52, 0
16, 172980, Note_on_c, 13, 50, 80
16, 173039, Note_on_c, 13, 50, 0
16, 173040, Note_on_c, 13, 48, 80
16, 173091, Note_on_c, 13, 48, 0
16, 173100, Note_on_c, 13, 58, 80
16, 173159, Note_on_c, 13, 58, 0
16, 173160, Note_on_c, 13, 57, 80
16, 173211, Note_on_c, 13, 57, 0
16, 173220, Note_on_c, 13, 55, 80
16, 173279, Note_on_c, 13, 55, 0
16, 173280, Note_on_c, 13, 53, 80
16, 173331, Note_on_c, 13, 53, 0
16, 173340, Note_on_c, 13, 57, 80
16, 173384, Note_on_c, 13, 57, 0
16, 173400, Note_on_c, 13, 62, 92
16, 173444, Note_on_c, 13, 62, 0
16, 173460, Note_on_c, 13, 65, 80
16, 173504, Note_on_c, 13, 65, 0
16, 173520, Note_on_c, 13, 61, 80
16, 173564, Note_on_c, 13, 61, 0
16, 173580, Note_on_c, 13, 64, 80
16, 173624, Note_on_c, 13, 64, 0
16, 173640, Note_on_c, 13, 67, 92
16, 173684, Note_on_c, 13, 67, 0
16, 173700, Note_on_c, 13, 73, 80
16, 173744, Note_on_c, 13, 73, 0
16, 173760, Note_on_c, 13, 55, 44
16, 173811, Note_on_c, 13, 55, 0
16, 173820, Note_on_c, 13, 57, 45
16, 173879, Note_on_c, 13, 57, 0
16, 173880, Note_on_c, 13, 58, 46
16, 173931, Note_on_c, 13, 58, 0
16, 173940, Note_on_c, 13, 60, 47
16, 173999, Note_on_c, 13, 60, 0
16, 174000, Note_on_c, 13, 62, 48
16, 174051, Note_on_c, 13, 62, 0
16, 174060, Note_on_c, 13, 64, 49
16, 174119, Note_on_c, 13, 64, 0
16, 174120, Note_on_c, 13, 66, 50
16, 174171, Note_on_c, 13, 66, 0
16, 174180, Note_on_c, 13, 67, 51
16, 174239, Note_on_c, 13, 67, 0
16, 174240, Note_on_c, 13, 69, 53
16, 174291, Note_on_c, 13, 69, 0
16, 174300, Note_on_c, 13, 70, 54
16, 174359, Note_on_c, 13, 70, 0
16, 174360, Note_on_c, 13, 72, 55
16, 174411, Note_on_c, 13, 72, 0
16, 174420, Note_on_c, 13, 51, 56
16, 174479, Note_on_c, 13, 51, 0
16, 174480, Note_on_c, 13, 50, 57
16, 174531, Note_on_c, 13, 50, 0
16, 174540, Note_on_c, 13, 48, 58
16, 174599, Note_on_c, 13, 48, 0
16, 174600, Note_on_c, 13, 58, 59
16, 174651, Note_on_c, 13, 58, 0
16, 174660, Note_on_c, 13, 57, 60
16, 174719, Note_on_c, 13, 57, 0
16, 174720, Note_on_c, 13, 55, 62
16, 174839, Note_on_c, 13, 55, 0
16, 175260, Note_on_c, 13, 58, 72
16, 175319, Note_on_c, 13, 58, 0
16, 175320, Note_on_c, 13, 60, 73
16, 175371, Note_on_c, 13, 60, 0
16, 175380, Note_on_c, 13, 62, 74
16, 175439, Note_on_c, 13, 62, 0
16, 175440, Note_on_c, 13, 63, 75
16, 175491, Note_on_c, 13, 63, 0
16, 175500, Note_on_c, 13, 65, 76
16, 175559, Note_on_c, 13, 65, 0
16, 175560, Note_on_c, 13, 67, 77
16, 175611, Note_on_c, 13, 67, 0
16, 175620, Note_on_c, 13, 68, 78
16, 175679, Note_on_c, 13, 68, 0
16, 175680, Note_on_c, 13, 67, 80
16, 175731, Note_on_c, 13, 67, 0
16, 175740, Note_on_c, 13, 55, 80
16, 175799, Note_on_c, 13, 55, 0
16, 175800, Note_on_c, 13, 56, 80
16, 175851, Note_on_c, 13, 56, 0
16, 175860, Note_on_c, 13, 58, 80
16, 175919, Note_on_c, 13, 58, 0
16, 175920, Note_on_c, 13, 60, 80
16, 175971, Note_on_c, 13, 60, 0
16, 175980, Note_on_c, 13, 62, 80
16, 176039, Note_on_c, 13, 62, 0
16, 176040, Note_on_c, 13, 64, 80
16, 176091, Note_on_c, 13, 64, 0
16, 176100, Note_on_c, 13, 65, 80
16, 176159, Note_on_c, 13, 65, 0
16, 176160, Note_on_c, 13, 67, 80
16, 176211, Note_on_c, 13, 67, 0
16, 176220, Note_on_c, 13, 67, 80
16, 176279, Note_on_c, 13, 67, 0
16, 176280, Note_on_c, 13, 69, 80
16, 176331, Note_on_c, 13, 69, 0
16, 176340, Note_on_c, 13, 70, 80
16, 176399, Note_on_c, 13, 70, 0
16, 176400, Note_on_c, 13, 69, 80
16, 176451, Note_on_c, 13, 69, 0
16, 176460, Note_on_c, 13, 67, 80
16, 176519, Note_on_c, 13, 67, 0
16, 176520, Note_on_c, 13, 65, 80
16, 176571, Note_on_c, 13, 65, 0
16, 176580, Note_on_c, 13, 64, 80
16, 176624, Note_on_c, 13, 64, 0
16, 176640, Note_on_c, 13, 57, 92
16, 176729, Note_on_c, 13, 57, 0
16, 176760, Note_on_c, 13, 68, 92
16, 176841, Note_on_c, 13, 68, 0
16, 176850, Note_on_c, 13, 68, 92
16, 176871, Note_on_c, 13, 68, 0
16, 176880, Note_on_c, 13, 69, 92
16, 176999, Note_on_c, 13, 69, 0
16, 177120, Note_on_c, 13, 58, 92
16, 177224, Note_on_c, 13, 58, 0
16, 177240, Note_on_c, 13, 69, 92
16, 177321, Note_on_c, 13, 69, 0
16, 177330, Note_on_c, 13, 69, 92
16, 177351, Note_on_c, 13, 69, 0
16, 177360, Note_on_c, 13, 70, 92
16, 177479, Note_on_c, 13, 70, 0
16, 178560, Note_on_c, 13, 50, 92
16, 178560, Note_on_c, 13, 62, 92
16, 178664, Note_on_c, 13, 50, 0
16, 178664, Note_on_c, 13, 62, 0
16, 178680, Note_on_c, 13, 61, 92
16, 178761, Note_on_c, 13, 61, 0
16, 178770, Note_on_c, 13, 61, 92
16, 178791, Note_on_c, 13, 61, 0
16, 178800, Note_on_c, 13, 50, 92
16, 178800, Note_on_c, 13, 62, 92
16, 178919, Note_on_c, 13, 50, 0
16, 178919, Note_on_c, 13, 62, 0
16, 179040, Note_on_c, 13, 51, 92
16, 179144, Note_on_c, 13, 51, 0
16, 179160, Note_on_c, 13, 50, 92
16, 179241, Note_on_c, 13, 50, 0
16, 179250, Note_on_c, 13, 50, 92
16, 179271, Note_on_c, 13, 50, 0
16, 179280, Note_on_c, 13, 51, 92
16, 179399, Note_on_c, 13, 51, 0
16, 180480, Note_on_c, 13, 51, 32
16, 180569, Note_on_c, 13, 51, 0
16, 180600, Note_on_c, 13, 50, 32
16, 180674, Note_on_c, 13, 50, 0
16, 180690, Note_on_c, 13, 50, 32
16, 180711, Note_on_c, 13, 50, 0
16, 180720, Note_on_c, 13, 51, 32
16, 180839, Note_on_c, 13, 51, 0
16, 180960, Note_on_c, 13, 51, 32
16, 181049, Note_on_c, 13, 51, 0
16, 181080, Note_on_c, 13, 50, 32
16, 181154, Note_on_c, 13, 50, 0
16, 181170, Note_on_c, 13, 50, 32
16, 181191, Note_on_c, 13, 50, 0
16, 181200, Note_on_c, 13, 51, 32
16, 181319, Note_on_c, 13, 51, 0
16, 181440, Note_on_c, 13, 51, 32
16, 181529, Note_on_c, 13, 51, 0
16, 181560, Note_on_c, 13, 50, 32
16, 181634, Note_on_c, 13, 50, 0
16, 181650, Note_on_c, 13, 50, 32
16, 181671, Note_on_c, 13, 50, 0
16, 181680, Note_on_c, 13, 51, 32
16, 181799, Note_on_c, 13, 51, 0
16, 181920, Note_on_c, 13, 51, 32
16, 182009, Note_on_c, 13, 51, 0
16, 182040, Note_on_c, 13, 50, 32
16, 182114, Note_on_c, 13, 50, 0
16, 182130, Note_on_c, 13, 50, 32
16, 182151, Note_on_c, 13, 50, 0
16, 182160, Note_on_c, 13, 51, 32
16, 182249, Note_on_c, 13, 51, 0
16, 182280, Note_on_c, 13, 50, 32
16, 182354, Note_on_c, 13, 50, 0
16, 182370, Note_on_c, 13, 50, 32
16, 182391, Note_on_c, 13, 50, 0
16, 182400, Note_on_c, 13, 58, 32
16, 182519, Note_on_c, 13, 58, 0
16, 182820, Note_on_c, 13, 58, 32
16, 182879, Note_on_c, 13, 58, 0
16, 182880, Note_on_c, 13, 56, 32
16, 182939, Note_on_c, 13, 56, 0
16, 182940, Note_on_c, 13, 55, 32
16, 182999, Note_on_c, 13, 55, 0
16, 183000, Note_on_c, 13, 53, 32
16, 183059, Note_on_c, 13, 53, 0
16, 183060, Note_on_c, 13, 51, 32
16, 183119, Note_on_c, 13, 51, 0
16, 183120, Note_on_c, 13, 50, 32
16, 183179, Note_on_c, 13, 50, 0
16, 183180, Note_on_c, 13, 49, 32
16, 183239, Note_on_c, 13, 49, 0
16, 183240, Note_on_c, 13, 50, 32
16, 183291, Note_on_c, 13, 50, 0
16, 183300, Note_on_c, 13, 50, 32
16, 183411, Note_on_c, 13, 50, 0
16, 183420, Note_on_c, 13, 49, 32
16, 183479, Note_on_c, 13, 49, 0
16, 183480, Note_on_c, 13, 56, 32
16, 183539, Note_on_c, 13, 56, 0
16, 183540, Note_on_c, 13, 57, 32
16, 183599, Note_on_c, 13, 57, 0
16, 183600, Note_on_c, 13, 58, 32
16, 183659, Note_on_c, 13, 58, 0
16, 183660, Note_on_c, 13, 56, 32
16, 183719, Note_on_c, 13, 56, 0
16, 183720, Note_on_c, 13, 57, 32
16, 183779, Note_on_c, 13, 57, 0
16, 183780, Note_on_c, 13, 49, 32
16, 183839, Note_on_c, 13, 49, 0
16, 183840, Note_on_c, 13, 50, 32
16, 183899, Note_on_c, 13, 50, 0
16, 183900, Note_on_c, 13, 60, 32
16, 183959, Note_on_c, 13, 60, 0
16, 183960, Note_on_c, 13, 57, 32
16, 184019, Note_on_c, 13, 57, 0
16, 184020, Note_on_c, 13, 58, 32
16, 184079, Note_on_c, 13, 58, 0
16, 184080, Note_on_c, 13, 62, 32
16, 184139, Note_on_c, 13, 62, 0
16, 184140, Note_on_c, 13, 59, 32
16, 184199, Note_on_c, 13, 59, 0
16, 184200, Note_on_c, 13, 61, 32
16, 184259, Note_on_c, 13, 61, 0
16, 184260, Note_on_c, 13, 52, 32
16, 184311, Note_on_c, 13, 52, 0
16, 184320, Note_on_c, 13, 53, 32
16, 184379, Note_on_c, 13, 53, 0
16, 184380, Note_on_c, 13, 52, 32
16, 184439, Note_on_c, 13, 52, 0
16, 184440, Note_on_c, 13, 49, 32
16, 184499, Note_on_c, 13, 49, 0
16, 184500, Note_on_c, 13, 50, 32
16, 184559, Note_on_c, 13, 50, 0
16, 184560, Note_on_c, 13, 53, 32
16, 184619, Note_on_c, 13, 53, 0
16, 184620, Note_on_c, 13, 50, 32
16, 184679, Note_on_c, 13, 50, 0
16, 184680, Note_on_c, 13, 52, 32
16, 184739, Note_on_c, 13, 52, 0
16, 184740, Note_on_c, 13, 55, 32
16, 184859, Note_on_c, 13, 55, 0
16, 184860, Note_on_c, 13, 52, 32
16, 184919, Note_on_c, 13, 52, 0
16, 184920, Note_on_c, 13, 54, 32
16, 184979, Note_on_c, 13, 54, 0
16, 184980, Note_on_c, 13, 57, 32
16, 185099, Note_on_c, 13, 57, 0
16, 185100, Note_on_c, 13, 54, 32
16, 185159, Note_on_c, 13, 54, 0
16, 185160, Note_on_c, 13, 55, 32
16, 185219, Note_on_c, 13, 55, 0
16, 185220, Note_on_c, 13, 58, 32
16, 185271, Note_on_c, 13, 58, 0
16, 185280, Note_on_c, 13, 55, 32
16, 185399, Note_on_c, 13, 55, 0
16, 185520, Note_on_c, 13, 55, 32
16, 185553, Note_on_c, 13, 55, 0
16, 185560, Note_on_c, 13, 55, 32
16, 185593, Note_on_c, 13, 55, 0
16, 185600, Note_on_c, 13, 55, 32
16, 185633, Note_on_c, 13, 55, 0
16, 185640, Note_on_c, 13, 55, 32
16, 185673, Note_on_c, 13, 55, 0
16, 185680, Note_on_c, 13, 55, 32
16, 185713, Note_on_c, 13, 55, 0
16, 185720, Note_on_c, 13, 55, 32
16, 185753, Note_on_c, 13, 55, 0
16, 185760, Note_on_c, 13, 49, 32
16, 185879, Note_on_c, 13, 49, 0
16, 186000, Note_on_c, 13, 49, 32
16, 186033, Note_on_c, 13, 49, 0
16, 186040, Note_on_c, 13, 49, 32
16, 186073, Note_on_c, 13, 49, 0
16, 186080, Note_on_c, 13, 49, 32
16, 186113, Note_on_c, 13, 49, 0
16, 186120, Note_on_c, 13, 49, 32
16, 186153, Note_on_c, 13, 49, 0
16, 186160, Note_on_c, 13, 49, 32
16, 186193, Note_on_c, 13, 49, 0
16, 186200, Note_on_c, 13, 49, 32
16, 186233, Note_on_c, 13, 49, 0
16, 186240, Note_on_c, 13, 69, 32
16, 186359, Note_on_c, 13, 69, 0
16, 186480, Note_on_c, 13, 69, 32
16, 186513, Note_on_c, 13, 69, 0
16, 186520, Note_on_c, 13, 69, 32
16, 186553, Note_on_c, 13, 69, 0
16, 186560, Note_on_c, 13, 69, 32
16, 186593, Note_on_c, 13, 69, 0
16, 186600, Note_on_c, 13, 69, 32
16, 186633, Note_on_c, 13, 69, 0
16, 186640, Note_on_c, 13, 69, 32
16, 186673, Note_on_c, 13, 69, 0
16, 186680, Note_on_c, 13, 69, 32
16, 186713, Note_on_c, 13, 69, 0
16, 186720, Note_on_c, 13, 50, 32
16, 186839, Note_on_c, 13, 50, 0
16, 186960, Note_on_c, 13, 50, 32
16, 186993, Note_on_c, 13, 50, 0
16, 187000, Note_on_c, 13, 50, 32
16, 187033, Note_on_c, 13, 50, 0
16, 187040, Note_on_c, 13, 50, 32
16, 187073, Note_on_c, 13, 50, 0
16, 187080, Note_on_c, 13, 50, 32
16, 187113, Note_on_c, 13, 50, 0
16, 187120, Note_on_c, 13, 50, 32
16, 187153, Note_on_c, 13, 50, 0
16, 187160, Note_on_c, 13, 50, 32
16, 187193, Note_on_c, 13, 50, 0
16, 187200, Note_on_c, 13, 49, 32
16, 187319, Note_on_c, 13, 49, 0
16, 187440, Note_on_c, 13, 49, 34
16, 187473, Note_on_c, 13, 49, 0
16, 187480, Note_on_c, 13, 49, 34
16, 187513, Note_on_c, 13, 49, 0
16, 187520, Note_on_c, 13, 49, 35
16, 187553, Note_on_c, 13, 49, 0
16, 187560, Note_on_c, 13, 49, 35
16, 187593, Note_on_c, 13, 49, 0
16, 187600, Note_on_c, 13, 49, 36
16, 187633, Note_on_c, 13, 49, 0
16, 187640, Note_on_c, 13, 49, 36
16, 187673, Note_on_c, 13, 49, 0
16, 187680, Note_on_c, 13, 55, 36
16, 187799, Note_on_c, 13, 55, 0
16, 187920, Note_on_c, 13, 55, 39
16, 187953, Note_on_c, 13, 55, 0
16, 187960, Note_on_c, 13, 55, 39
16, 187993, Note_on_c, 13, 55, 0
16, 188000, Note_on_c, 13, 55, 40
16, 188033, Note_on_c, 13, 55, 0
16, 188040, Note_on_c, 13, 55, 40
16, 188073, Note_on_c, 13, 55, 0
16, 188080, Note_on_c, 13, 55, 40
16, 188113, Note_on_c, 13, 55, 0
16, 188120, Note_on_c, 13, 55, 41
16, 188153, Note_on_c, 13, 55, 0
16, 188160, Note_on_c, 13, 54, 41
16, 188279, Note_on_c, 13, 54, 0
16, 188400, Note_on_c, 13, 54, 44
16, 188433, Note_on_c, 13, 54, 0
16, 188440, Note_on_c, 13, 54, 44
16, 188473, Note_on_c, 13, 54, 0
16, 188480, Note_on_c, 13, 54, 44
16, 188513, Note_on_c, 13, 54, 0
16, 188520, Note_on_c, 13, 54, 45
16, 188553, Note_on_c, 13, 54, 0
16, 188560, Note_on_c, 13, 54, 45
16, 188593, Note_on_c, 13, 54, 0
16, 188600, Note_on_c, 13, 54, 46
16, 188633, Note_on_c, 13, 54, 0
16, 188640, Note_on_c, 13, 62, 46
16, 188759, Note_on_c, 13, 62, 0
16, 188880, Note_on_c, 13, 62, 48
16, 188913, Note_on_c, 13, 62, 0
16, 188920, Note_on_c, 13, 62, 49
16, 188953, Note_on_c, 13, 62, 0
16, 188960, Note_on_c, 13, 62, 49
16, 188993, Note_on_c, 13, 62, 0
16, 189000, Note_on_c, 13, 62, 50
16, 189033, Note_on_c, 13, 62, 0
16, 189040, Note_on_c, 13, 62, 50
16, 189073, Note_on_c, 13, 62, 0
16, 189080, Note_on_c, 13, 62, 50
16, 189113, Note_on_c, 13, 62, 0
16, 189120, Note_on_c, 13, 55, 51
16, 189153, Note_on_c, 13, 55, 0
16, 189160, Note_on_c, 13, 55, 51
16, 189193, Note_on_c, 13, 55, 0
16, 189200, Note_on_c, 13, 55, 52
16, 189233, Note_on_c, 13, 55, 0
16, 189240, Note_on_c, 13, 55, 52
16, 189273, Note_on_c, 13, 55, 0
16, 189280, Note_on_c, 13, 55, 52
16, 189313, Note_on_c, 13, 55, 0
16, 189320, Note_on_c, 13, 55, 53
16, 189353, Note_on_c, 13, 55, 0
16, 189360, Note_on_c, 13, 49, 53
16, 189393, Note_on_c, 13, 49, 0
16, 189400, Note_on_c, 13, 49, 54
16, 189433, Note_on_c, 13, 49, 0
16, 189440, Note_on_c, 13, 49, 54
16, 189473, Note_on_c, 13, 49, 0
16, 189480, Note_on_c, 13, 49, 54
16, 189513, Note_on_c, 13, 49, 0
16, 189520, Note_on_c, 13, 49, 55
16, 189553, Note_on_c, 13, 49, 0
16, 189560, Note_on_c, 13, 49, 55
16, 189593, Note_on_c, 13, 49, 0
16, 189600, Note_on_c, 13, 69, 56
16, 189633, Note_on_c, 13, 69, 0
16, 189640, Note_on_c, 13, 69, 56
16, 189673, Note_on_c, 13, 69, 0
16, 189680, Note_on_c, 13, 69, 56
16, 189713, Note_on_c, 13, 69, 0
16, 189720, Note_on_c, 13, 69, 57
16, 189753, Note_on_c, 13, 69, 0
16, 189760, Note_on_c, 13, 69, 57
16, 189793, Note_on_c, 13, 69, 0
16, 189800, Note_on_c, 13, 69, 58
16, 189833, Note_on_c, 13, 69, 0
16, 189840, Note_on_c, 13, 50, 58
16, 189873, Note_on_c, 13, 50, 0
16, 189880, Note_on_c, 13, 50, 58
16, 189913, Note_on_c, 13, 50, 0
16, 189920, Note_on_c, 13, 50, 59
16, 189953, Note_on_c, 13, 50, 0
16, 189960, Note_on_c, 13, 50, 59
16, 189993, Note_on_c, 13, 50, 0
16, 190000, Note_on_c, 13, 50, 60
16, 190033, Note_on_c, 13, 50, 0
16, 190040, Note_on_c, 13, 50, 60
16, 190073, Note_on_c, 13, 50, 0
16, 190080, Note_on_c, 13, 49, 60
16, 190105, Note_on_c, 13, 49, 0
16, 190110, Note_on_c, 13, 49, 61
16, 190135, Note_on_c, 13, 49, 0
16, 190140, Note_on_c, 13, 49, 61
16, 190165, Note_on_c, 13, 49, 0
16, 190170, Note_on_c, 13, 49, 61
16, 190195, Note_on_c, 13, 49, 0
16, 190200, Note_on_c, 13, 49, 62
16, 190225, Note_on_c, 13, 49, 0
16, 190230, Note_on_c, 13, 49, 62
16, 190255, Note_on_c, 13, 49, 0
16, 190260, Note_on_c, 13, 49, 62
16, 190285, Note_on_c, 13, 49, 0
16, 190290, Note_on_c, 13, 49, 62
16, 190315, Note_on_c, 13, 49, 0
16, 190320, Note_on_c, 13, 55, 63
16, 190345, Note_on_c, 13, 55, 0
16, 190350, Note_on_c, 13, 55, 63
16, 190375, Note_on_c, 13, 55, 0
16, 190380, Note_on_c, 13, 55, 63
16, 190405, Note_on_c, 13, 55, 0
16, 190410, Note_on_c, 13, 55, 64
16, 190435, Note_on_c, 13, 55, 0
16, 190440, Note_on_c, 13, 55, 64
16, 190465, Note_on_c, 13, 55, 0
16, 190470, Note_on_c, 13, 55, 64
16, 190495, Note_on_c, 13, 55, 0
16, 190500, Note_on_c, 13, 55, 65
16, 190525, Note_on_c, 13, 55, 0
16, 190530, Note_on_c, 13, 55, 65
16, 190555, Note_on_c, 13, 55, 0
16, 190560, Note_on_c, 13, 53, 65
16, 190585, Note_on_c, 13, 53, 0
16, 190590, Note_on_c, 13, 53, 65
16, 190615, Note_on_c, 13, 53, 0
16, 190620, Note_on_c, 13, 53, 66
16, 190645, Note_on_c, 13, 53, 0
16, 190650, Note_on_c, 13, 53, 66
16, 190675, Note_on_c, 13, 53, 0
16, 190680, Note_on_c, 13, 53, 66
16, 190705, Note_on_c, 13, 53, 0
16, 190710, Note_on_c, 13, 53, 67
16, 190735, Note_on_c, 13, 53, 0
16, 190740, Note_on_c, 13, 53, 67
16, 190765, Note_on_c, 13, 53, 0
16, 190770, Note_on_c, 13, 53, 67
16, 190795, Note_on_c, 13, 53, 0
16, 190800, Note_on_c, 13, 62, 68
16, 190825, Note_on_c, 13, 62, 0
16, 190830, Note_on_c, 13, 62, 68
16, 190855, Note_on_c, 13, 62, 0
16, 190860, Note_on_c, 13, 62, 68
16, 190885, Note_on_c, 13, 62, 0
16, 190890, Note_on_c, 13, 62, 68
16, 190915, Note_on_c, 13, 62, 0
16, 190920, Note_on_c, 13, 65, 69
16, 190945, Note_on_c, 13, 65, 0
16, 190950, Note_on_c, 13, 65, 69
16, 190975, Note_on_c, 13, 65, 0
16, 190980, Note_on_c, 13, 69, 69
16, 191005, Note_on_c, 13, 69, 0
16, 191010, Note_on_c, 13, 69, 70
16, 191035, Note_on_c, 13, 69, 0
16, 191040, Note_on_c, 13, 67, 70
16, 191065, Note_on_c, 13, 67, 0
16, 191070, Note_on_c, 13, 67, 70
16, 191095, Note_on_c, 13, 67, 0
16, 191100, Note_on_c, 13, 64, 71
16, 191125, Note_on_c, 13, 64, 0
16, 191130, Note_on_c, 13, 64, 71
16, 191155, Note_on_c, 13, 64, 0
16, 191160, Note_on_c, 13, 55, 71
16, 191185, Note_on_c, 13, 55, 0
16, 191190, Note_on_c, 13, 55, 71
16, 191215, Note_on_c, 13, 55, 0
16, 191220, Note_on_c, 13, 64, 72
16, 191245, Note_on_c, 13, 64, 0
16, 191250, Note_on_c, 13, 64, 72
16, 191275, Note_on_c, 13, 64, 0
16, 191280, Note_on_c, 13, 55, 72
16, 191305, Note_on_c, 13, 55, 0
16, 191310, Note_on_c, 13, 55, 73
16, 191335, Note_on_c, 13, 55, 0
16, 191340, Note_on_c, 13, 64, 73
16, 191365, Note_on_c, 13, 64, 0
16, 191370, Note_on_c, 13, 64, 73
16, 191395, Note_on_c, 13, 64, 0
16, 191400, Note_on_c, 13, 55, 74
16, 191425, Note_on_c, 13, 55, 0
16, 191430, Note_on_c, 13, 55, 74
16, 191455, Note_on_c, 13, 55, 0
16, 191460, Note_on_c, 13, 53, 74
16, 191485, Note_on_c, 13, 53, 0
16, 191490, Note_on_c, 13, 53, 74
16, 191515, Note_on_c, 13, 53, 0
16, 191520, Note_on_c, 13, 55, 75
16, 191545, Note_on_c, 13, 55, 0
16, 191550, Note_on_c, 13, 55, 75
16, 191575, Note_on_c, 13, 55, 0
16, 191580, Note_on_c, 13, 64, 75
16, 191605, Note_on_c, 13, 64, 0
16, 191610, Note_on_c, 13, 64, 76
16, 191635, Note_on_c, 13, 64, 0
16, 191640, Note_on_c, 13, 55, 76
16, 191665, Note_on_c, 13, 55, 0
16, 191670, Note_on_c, 13, 55, 76
16, 191695, Note_on_c, 13, 55, 0
16, 191700, Note_on_c, 13, 67, 77
16, 191725, Note_on_c, 13, 67, 0
16, 191730, Note_on_c, 13, 67, 77
16, 191755, Note_on_c, 13, 67, 0
16, 191760, Note_on_c, 13, 55, 77
16, 191785, Note_on_c, 13, 55, 0
16, 191790, Note_on_c, 13, 55, 77
16, 191815, Note_on_c, 13, 55, 0
16, 191820, Note_on_c, 13, 67, 78
16, 191845, Note_on_c, 13, 67, 0
16, 191850, Note_on_c, 13, 67, 78
16, 191875, Note_on_c, 13, 67, 0
16, 191880, Note_on_c, 13, 55, 78
16, 191905, Note_on_c, 13, 55, 0
16, 191910, Note_on_c, 13, 55, 79
16, 191935, Note_on_c, 13, 55, 0
16, 191940, Note_on_c, 13, 53, 79
16, 191965, Note_on_c, 13, 53, 0
16, 191970, Note_on_c, 13, 53, 79
16, 191995, Note_on_c, 13, 53, 0
16, 192000, Note_on_c, 13, 65, 80
16, 192025, Note_on_c, 13, 65, 0
16, 192030, Note_on_c, 13, 65, 80
16, 192055, Note_on_c, 13, 65, 0
16, 192060, Note_on_c, 13, 67, 80
16, 192085, Note_on_c, 13, 67, 0
16, 192090, Note_on_c, 13, 67, 80
16, 192115, Note_on_c, 13, 67, 0
16, 192120, Note_on_c, 13, 52, 92
16, 192120, Note_on_c, 13, 55, 92
16, 192145, Note_on_c, 13, 52, 0
16, 192145, Note_on_c, 13, 55, 0
16, 192150, Note_on_c, 13, 52, 80
16, 192150, Note_on_c, 13, 55, 80
16, 192175, Note_on_c, 13, 52, 0
16, 192175, Note_on_c, 13, 55, 0
16, 192180, Note_on_c, 13, 52, 80
16, 192180, Note_on_c, 13, 55, 80
16, 192205, Note_on_c, 13, 52, 0
16, 192205, Note_on_c, 13, 55, 0
16, 192210, Note_on_c, 13, 52, 80
16, 192210, Note_on_c, 13, 55, 80
16, 192235, Note_on_c, 13, 52, 0
16, 192235, Note_on_c, 13, 55, 0
16, 192240, Note_on_c, 13, 52, 80
16, 192240, Note_on_c, 13, 55, 80
16, 192265, Note_on_c, 13, 52, 0
16, 192265, Note_on_c, 13, 55, 0
16, 192270, Note_on_c, 13, 55, 80
16, 192270, Note_on_c, 13, 52, 80
16, 192295, Note_on_c, 13, 55, 0
16, 192295, Note_on_c, 13, 52, 0
16, 192300, Note_on_c, 13, 55, 80
16, 192300, Note_on_c, 13, 52, 80
16, 192325, Note_on_c, 13, 55, 0
16, 192325, Note_on_c, 13, 52, 0
16, 192330, Note_on_c, 13, 52, 80
16, 192330, Note_on_c, 13, 55, 80
16, 192355, Note_on_c, 13, 52, 0
16, 192355, Note_on_c, 13, 55, 0
16, 192360, Note_on_c, 13, 67, 80
16, 192385, Note_on_c, 13, 67, 0
16, 192390, Note_on_c, 13, 67, 80
16, 192415, Note_on_c, 13, 67, 0
16, 192420, Note_on_c, 13, 67, 80
16, 192445, Note_on_c, 13, 67, 0
16, 192450, Note_on_c, 13, 67, 80
16, 192475, Note_on_c, 13, 67, 0
16, 192480, Note_on_c, 13, 67, 80
16, 192505, Note_on_c, 13, 67, 0
16, 192510, Note_on_c, 13, 67, 80
16, 192535, Note_on_c, 13, 67, 0
16, 192540, Note_on_c, 13, 69, 80
16, 192565, Note_on_c, 13, 69, 0
16, 192570, Note_on_c, 13, 69, 80
16, 192595, Note_on_c, 13, 69, 0
16, 192600, Note_on_c, 13, 53, 92
16, 192600, Note_on_c, 13, 57, 92
16, 192625, Note_on_c, 13, 53, 0
16, 192625, Note_on_c, 13, 57, 0
16, 192630, Note_on_c, 13, 53, 80
16, 192630, Note_on_c, 13, 57, 80
16, 192655, Note_on_c, 13, 53, 0
16, 192655, Note_on_c, 13, 57, 0
16, 192660, Note_on_c, 13, 57, 80
16, 192660, Note_on_c, 13, 53, 80
16, 192685, Note_on_c, 13, 57, 0
16, 192685, Note_on_c, 13, 53, 0
16, 192690, Note_on_c, 13, 57, 80
16, 192690, Note_on_c, 13, 53, 80
16, 192715, Note_on_c, 13, 57, 0
16, 192715, Note_on_c, 13, 53, 0
16, 192720, Note_on_c, 13, 53, 80
16, 192720, Note_on_c, 13, 57, 80
16, 192745, Note_on_c, 13, 53, 0
16, 192745, Note_on_c, 13, 57, 0
16, 192750, Note_on_c, 13, 57, 80
16, 192750, Note_on_c, 13, 53, 80
16, 192775, Note_on_c, 13, 57, 0
16, 192775, Note_on_c, 13, 53, 0
16, 192780, Note_on_c, 13, 57, 80
16, 192780, Note_on_c, 13, 53, 80
16, 192805, Note_on_c, 13, 57, 0
16, 192805, Note_on_c, 13, 53, 0
16, 192810, Note_on_c, 13, 53, 80
16, 192810, Note_on_c, 13, 57, 80
16, 192835, Note_on_c, 13, 53, 0
16, 192835, Note_on_c, 13, 57, 0
16, 192840, Note_on_c, 13, 69, 80
16, 192865, Note_on_c, 13, 69, 0
16, 192870, Note_on_c, 13, 69, 80
16, 192895, Note_on_c, 13, 69, 0
16, 192900, Note_on_c, 13, 69, 80
16, 192925, Note_on_c, 13, 69, 0
16, 192930, Note_on_c, 13, 69, 80
16, 192955, Note_on_c, 13, 69, 0
16, 192960, Note_on_c, 13, 69, 80
16, 192985, Note_on_c, 13, 69, 0
16, 192990, Note_on_c, 13, 69, 80
16, 193015, Note_on_c, 13, 69, 0
16, 193020, Note_on_c, 13, 70, 80
16, 193045, Note_on_c, 13, 70, 0
16, 193050, Note_on_c, 13, 70, 80
16, 193075, Note_on_c, 13, 70, 0
16, 193080, Note_on_c, 13, 55, 92
16, 193105, Note_on_c, 13, 55, 0
16, 193110, Note_on_c, 13, 55, 80
16, 193135, Note_on_c, 13, 55, 0
16, 193140, Note_on_c, 13, 55, 80
16, 193165, Note_on_c, 13, 55, 0
16, 193170, Note_on_c, 13, 55, 80
16, 193195, Note_on_c, 13, 55, 0
16, 193200, Note_on_c, 13, 55, 80
16, 193225, Note_on_c, 13, 55, 0
16, 193230, Note_on_c, 13, 55, 80
16, 193255, Note_on_c, 13, 55, 0
16, 193260, Note_on_c, 13, 55, 80
16, 193285, Note_on_c, 13, 55, 0
16, 193290, Note_on_c, 13, 55, 80
16, 193315, Note_on_c, 13, 55, 0
16, 193320, Note_on_c, 13, 70, 80
16, 193345, Note_on_c, 13, 70, 0
16, 193350, Note_on_c, 13, 70, 80
16, 193375, Note_on_c, 13, 70, 0
16, 193380, Note_on_c, 13, 70, 80
16, 193405, Note_on_c, 13, 70, 0
16, 193410, Note_on_c, 13, 70, 80
16, 193435, Note_on_c, 13, 70, 0
16, 193440, Note_on_c, 13, 70, 80
16, 193465, Note_on_c, 13, 70, 0
16, 193470, Note_on_c, 13, 70, 80
16, 193495, Note_on_c, 13, 70, 0
16, 193500, Note_on_c, 13, 72, 80
16, 193525, Note_on_c, 13, 72, 0
16, 193530, Note_on_c, 13, 72, 80
16, 193555, Note_on_c, 13, 72, 0
16, 193560, Note_on_c, 13, 57, 92
16, 193585, Note_on_c, 13, 57, 0
16, 193590, Note_on_c, 13, 57, 80
16, 193615, Note_on_c, 13, 57, 0
16, 193620, Note_on_c, 13, 57, 80
16, 193645, Note_on_c, 13, 57, 0
16, 193650, Note_on_c, 13, 57, 80
16, 193675, Note_on_c, 13, 57, 0
16, 193680, Note_on_c, 13, 57, 80
16, 193705, Note_on_c, 13, 57, 0
16, 193710, Note_on_c, 13, 57, 80
16, 193735, Note_on_c, 13, 57, 0
16, 193740, Note_on_c, 13, 57, 80
16, 193765, Note_on_c, 13, 57, 0
16, 193770, Note_on_c, 13, 57, 80
16, 193795, Note_on_c, 13, 57, 0
16, 193800, Note_on_c, 13, 72, 80
16, 193825, Note_on_c, 13, 72, 0
16, 193830, Note_on_c, 13, 72, 80
16, 193855, Note_on_c, 13, 72, 0
16, 193860, Note_on_c, 13, 72, 80
16, 193885, Note_on_c, 13, 72, 0
16, 193890, Note_on_c, 13, 72, 80
16, 193915, Note_on_c, 13, 72, 0
16, 193920, Note_on_c, 13, 72, 80
16, 193945, Note_on_c, 13, 72, 0
16, 193950, Note_on_c, 13, 72, 80
16, 193975, Note_on_c, 13, 72, 0
16, 193980, Note_on_c, 13, 74, 80
16, 194005, Note_on_c, 13, 74, 0
16, 194010, Note_on_c, 13, 74, 80
16, 194035, Note_on_c, 13, 74, 0
16, 194040, Note_on_c, 13, 58, 92
16, 194065, Note_on_c, 13, 58, 0
16, 194070, Note_on_c, 13, 58, 80
16, 194095, Note_on_c, 13, 58, 0
16, 194100, Note_on_c, 13, 58, 80
16, 194125, Note_on_c, 13, 58, 0
16, 194130, Note_on_c, 13, 58, 80
16, 194155, Note_on_c, 13, 58, 0
16, 194160, Note_on_c, 13, 58, 80
16, 194185, Note_on_c, 13, 58, 0
16, 194190, Note_on_c, 13, 58, 80
16, 194215, Note_on_c, 13, 58, 0
16, 194220, Note_on_c, 13, 58, 80
16, 194245, Note_on_c, 13, 58, 0
16, 194250, Note_on_c, 13, 58, 80
16, 194275, Note_on_c, 13, 58, 0
16, 194280, Note_on_c, 13, 74, 80
16, 194305, Note_on_c, 13, 74, 0
16, 194310, Note_on_c, 13, 74, 80
16, 194335, Note_on_c, 13, 74, 0
16, 194340, Note_on_c, 13, 74, 80
16, 194365, Note_on_c, 13, 74, 0
16, 194370, Note_on_c, 13, 74, 80
16, 194395, Note_on_c, 13, 74, 0
16, 194400, Note_on_c, 13, 74, 80
16, 194425, Note_on_c, 13, 74, 0
16, 194430, Note_on_c, 13, 74, 80
16, 194455, Note_on_c, 13, 74, 0
16, 194460, Note_on_c, 13, 76, 80
16, 194485, Note_on_c, 13, 76, 0
16, 194490, Note_on_c, 13, 76, 80
16, 194515, Note_on_c, 13, 76, 0
16, 194520, Note_on_c, 13, 55, 92
16, 194520, Note_on_c, 13, 52, 92
16, 194545, Note_on_c, 13, 55, 0
16, 194545, Note_on_c, 13, 52, 0
16, 194550, Note_on_c, 13, 55, 80
16, 194550, Note_on_c, 13, 52, 80
16, 194575, Note_on_c, 13, 55, 0
16, 194575, Note_on_c, 13, 52, 0
16, 194580, Note_on_c, 13, 52, 80
16, 194580, Note_on_c, 13, 55, 80
16, 194605, Note_on_c, 13, 52, 0
16, 194605, Note_on_c, 13, 55, 0
16, 194610, Note_on_c, 13, 55, 80
16, 194610, Note_on_c, 13, 52, 80
16, 194635, Note_on_c, 13, 55, 0
16, 194635, Note_on_c, 13, 52, 0
16, 194640, Note_on_c, 13, 52, 80
16, 194640, Note_on_c, 13, 55, 80
16, 194665, Note_on_c, 13, 52, 0
16, 194665, Note_on_c, 13, 55, 0
16, 194670, Note_on_c, 13, 55, 80
16, 194670, Note_on_c, 13, 52, 80
16, 194695, Note_on_c, 13, 55, 0
16, 194695, Note_on_c, 13, 52, 0
16, 194700, Note_on_c, 13, 52, 80
16, 194700, Note_on_c, 13, 55, 80
16, 194725, Note_on_c, 13, 52, 0
16, 194725, Note_on_c, 13, 55, 0
16, 194730, Note_on_c, 13, 55, 80
16, 194730, Note_on_c, 13, 52, 80
16, 194755, Note_on_c, 13, 55, 0
16, 194755, Note_on_c, 13, 52, 0
16, 194760, Note_on_c, 13, 55, 80
16, 194760, Note_on_c, 13, 52, 80
16, 194785, Note_on_c, 13, 55, 0
16, 194785, Note_on_c, 13, 52, 0
16, 194790, Note_on_c, 13, 55, 80
16, 194790, Note_on_c, 13, 52, 80
16, 194815, Note_on_c, 13, 55, 0
16, 194815, Note_on_c, 13, 52, 0
16, 194820, Note_on_c, 13, 52, 80
16, 194820, Note_on_c, 13, 55, 80
16, 194845, Note_on_c, 13, 52, 0
16, 194845, Note_on_c, 13, 55, 0
16, 194850, Note_on_c, 13, 52, 80
16, 194850, Note_on_c, 13, 55, 80
16, 194875, Note_on_c, 13, 52, 0
16, 194875, Note_on_c, 13, 55, 0
16, 194880, Note_on_c, 13, 53, 92
16, 194880, Note_on_c, 13, 57, 92
16, 194984, Note_on_c, 13, 53, 0
16, 194984, Note_on_c, 13, 57, 0
16, 195000, Note_on_c, 13, 69, 44
16, 195000, Note_on_c, 13, 65, 44
16, 195119, Note_on_c, 13, 69, 0
16, 195119, Note_on_c, 13, 65, 0
16, 195720, Note_on_c, 13, 69, 92
16, 195801, Note_on_c, 13, 69, 0
16, 195810, Note_on_c, 13, 57, 92
16, 195831, Note_on_c, 13, 57, 0
16, 195840, Note_on_c, 13, 58, 92
16, 195929, Note_on_c, 13, 58, 0
16, 195960, Note_on_c, 13, 70, 44
16, 196049, Note_on_c, 13, 70, 0
16, 196680, Note_on_c, 13, 58, 92
16, 196761, Note_on_c, 13, 58, 0
16, 196770, Note_on_c, 13, 58, 92
16, 196791, Note_on_c, 13, 58, 0
16, 196800, Note_on_c, 13, 60, 92
16, 196889, Note_on_c, 13, 60, 0
16, 196920, Note_on_c, 13, 48, 44
16, 197009, Note_on_c, 13, 48, 0
16, 197640, Note_on_c, 13, 48, 92
16, 197640, Note_on_c, 13, 60, 92
16, 197721, Note_on_c, 13, 48, 0
16, 197721, Note_on_c, 13, 60, 0
16, 197730, Note_on_c, 13, 48, 92
16, 197730, Note_on_c, 13, 60, 92
16, 197751, Note_on_c, 13, 48, 0
16, 197751, Note_on_c, 13, 60, 0
16, 197760, Note_on_c, 13, 62, 92
16, 197760, Note_on_c, 13, 50, 92
16, 197849, Note_on_c, 13, 62, 0
16, 197849, Note_on_c, 13, 50, 0
16, 197880, Note_on_c, 13, 50, 44
16, 197969, Note_on_c, 13, 50, 0
16, 199560, Note_on_c, 13, 49, 92
16, 199664, Note_on_c, 13, 49, 0
16, 199680, Note_on_c, 13, 50, 80
16, 199799, Note_on_c, 13, 50, 0
16, 199800, Note_on_c, 13, 51, 80
16, 199859, Note_on_c, 13, 51, 0
16, 199920, Note_on_c, 13, 49, 80
16, 200039, Note_on_c, 13, 49, 0
16, 200040, Note_on_c, 13, 50, 80
16, 200099, Note_on_c, 13, 50, 0
16, 200160, Note_on_c, 13, 50, 80
16, 200279, Note_on_c, 13, 50, 0
16, 200280, Note_on_c, 13, 51, 80
16, 200339, Note_on_c, 13, 51, 0
16, 200400, Note_on_c, 13, 53, 92
16, 200419, Note_on_c, 13, 53, 0
16, 200420, Note_on_c, 13, 55, 92
16, 200439, Note_on_c, 13, 55, 0
16, 200440, Note_on_c, 13, 53, 92
16, 200459, Note_on_c, 13, 53, 0
16, 200460, Note_on_c, 13, 55, 92
16, 200472, Note_on_c, 13, 55, 0
16, 200474, Note_on_c, 13, 53, 92
16, 200487, Note_on_c, 13, 53, 0
16, 200487, Note_on_c, 13, 52, 92
16, 200499, Note_on_c, 13, 52, 0
16, 200500, Note_on_c, 13, 53, 92
16, 200519, Note_on_c, 13, 53, 0
16, 200520, Note_on_c, 13, 55, 92
16, 200579, Note_on_c, 13, 55, 0
16, 200580, Note_on_c, 13, 52, 92
16, 200631, Note_on_c, 13, 52, 0
16, 200640, Note_on_c, 13, 62, 92
16, 200640, Note_on_c, 13, 50, 92
16, 200744, Note_on_c, 13, 62, 0
16, 200744, Note_on_c, 13, 50, 0
16, 200760, Note_on_c, 13, 50, 92
16, 200841, Note_on_c, 13, 50, 0
16, 200850, Note_on_c, 13, 50, 92
16, 200871, Note_on_c, 13, 50, 0
16, 200880, Note_on_c, 13, 53, 104
16, 200939, Note_on_c, 13, 53, 0
16, 200940, Note_on_c, 13, 53, 92
16, 201224, Note_on_c, 13, 53, 0
16, 201240, Note_on_c, 13, 53, 92
16, 201321, Note_on_c, 13, 53, 0
16, 201330, Note_on_c, 13, 53, 92
16, 201351, Note_on_c, 13, 53, 0
16, 201360, Note_on_c, 13, 57, 104
16, 201419, Note_on_c, 13, 57, 0
16, 201420, Note_on_c, 13, 57, 92
16, 201704, Note_on_c, 13, 57, 0
16, 201720, Note_on_c, 13, 57, 92
16, 201801, Note_on_c, 13, 57, 0
16, 201810, Note_on_c, 13, 57, 92
16, 201831, Note_on_c, 13, 57, 0
16, 201840, Note_on_c, 13, 62, 104
16, 201899, Note_on_c, 13, 62, 0
16, 201900, Note_on_c, 13, 62, 92
16, 202184, Note_on_c, 13, 62, 0
16, 202200, Note_on_c, 13, 62, 92
16, 202281, Note_on_c, 13, 62, 0
16, 202290, Note_on_c, 13, 62, 92
16, 202311, Note_on_c, 13, 62, 0
16, 202320, Note_on_c, 13, 65, 92
16, 202424, Note_on_c, 13, 65, 0
16, 202440, Note_on_c, 13, 65, 92
16, 202521, Note_on_c, 13, 65, 0
16, 202530, Note_on_c, 13, 65, 92
16, 202551, Note_on_c, 13, 65, 0
16, 202560, Note_on_c, 13, 69, 80
16, 202649, Note_on_c, 13, 69, 0
16, 202680, Note_on_c, 13, 74, 80
16, 202761, Note_on_c, 13, 74, 0
16, 202770, Note_on_c, 13, 74, 80
16, 202791, Note_on_c, 13, 74, 0
16, 202800, Note_on_c, 13, 77, 80
16, 202889, Note_on_c, 13, 77, 0
16, 202920, Note_on_c, 13, 69, 80
16, 203001, Note_on_c, 13, 69, 0
16, 203010, Note_on_c, 13, 69, 80
16, 203031, Note_on_c, 13, 69, 0
16, 203040, Note_on_c, 13, 74, 80
16, 203129, Note_on_c, 13, 74, 0
16, 203160, Note_on_c, 13, 65, 80
16, 203241, Note_on_c, 13, 65, 0
16, 203250, Note_on_c, 13, 65, 80
16, 203271, Note_on_c, 13, 65, 0
16, 203280, Note_on_c, 13, 69, 80
16, 203369, Note_on_c, 13, 69, 0
16, 203400, Note_on_c, 13, 62, 80
16, 203481, Note_on_c, 13, 62, 0
16, 203490, Note_on_c, 13, 62, 80
16, 203511, Note_on_c, 13, 62, 0
16, 203520, Note_on_c, 13, 65, 80
16, 203609, Note_on_c, 13, 65, 0
16, 203640, Note_on_c, 13, 57, 80
16, 203721, Note_on_c, 13, 57, 0
16, 203730, Note_on_c, 13, 57, 80
16, 203751, Note_on_c, 13, 57, 0
16, 203760, Note_on_c, 13, 62, 80
16, 203849, Note_on_c, 13, 62, 0
16, 203880, Note_on_c, 13, 53, 80
16, 203961, Note_on_c, 13, 53, 0
16, 203970, Note_on_c, 13, 53, 80
16, 203991, Note_on_c, 13, 53, 0
16, 204000, Note_on_c, 13, 57, 80
16, 204089, Note_on_c, 13, 57, 0
16, 204120, Note_on_c, 13, 50, 80
16, 204201, Note_on_c, 13, 50, 0
16, 204210, Note_on_c, 13, 50, 80
16, 204231, Note_on_c, 13, 50, 0
16, 204240, Note_on_c, 13, 74, 80
16, 204329, Note_on_c, 13, 74, 0
16, 204360, Note_on_c, 13, 50, 80
16, 204441, Note_on_c, 13, 50, 0
16, 204450, Note_on_c, 13, 50, 53
16, 204471, Note_on_c, 13, 50, 0
16, 204480, Note_on_c, 13, 53, 44
16, 204480, Note_on_c, 13, 57, 44
16, 204513, Note_on_c, 13, 53, 0
16, 204513, Note_on_c, 13, 57, 0
16, 204520, Note_on_c, 13, 53, 44
16, 204520, Note_on_c, 13, 57, 44
16, 204553, Note_on_c, 13, 53, 0
16, 204553, Note_on_c, 13, 57, 0
16, 204560, Note_on_c, 13, 53, 44
16, 204560, Note_on_c, 13, 57, 44
16, 204593, Note_on_c, 13, 53, 0
16, 204593, Note_on_c, 13, 57, 0
16, 204600, Note_on_c, 13, 53, 44
16, 204600, Note_on_c, 13, 57, 44
16, 204633, Note_on_c, 13, 53, 0
16, 204633, Note_on_c, 13, 57, 0
16, 204640, Note_on_c, 13, 57, 44
16, 204640, Note_on_c, 13, 53, 44
16, 204673, Note_on_c, 13, 57, 0
16, 204673, Note_on_c, 13, 53, 0
16, 204680, Note_on_c, 13, 57, 44
16, 204680, Note_on_c, 13, 53, 44
16, 204713, Note_on_c, 13, 57, 0
16, 204713, Note_on_c, 13, 53, 0
16, 204720, Note_on_c, 13, 57, 44
16, 204720, Note_on_c, 13, 53, 44
16, 204753, Note_on_c, 13, 57, 0
16, 204753, Note_on_c, 13, 53, 0
16, 204760, Note_on_c, 13, 57, 44
16, 204760, Note_on_c, 13, 53, 44
16, 204793, Note_on_c, 13, 57, 0
16, 204793, Note_on_c, 13, 53, 0
16, 204800, Note_on_c, 13, 53, 44
16, 204800, Note_on_c, 13, 57, 44
16, 204833, Note_on_c, 13, 53, 0
16, 204833, Note_on_c, 13, 57, 0
16, 204840, Note_on_c, 13, 53, 44
16, 204840, Note_on_c, 13, 57, 44
16, 204873, Note_on_c, 13, 53, 0
16, 204873, Note_on_c, 13, 57, 0
16, 204880, Note_on_c, 13, 57, 44
16, 204880, Note_on_c, 13, 53, 44
16, 204913, Note_on_c, 13, 57, 0
16, 204913, Note_on_c, 13, 53, 0
16, 204920, Note_on_c, 13, 53, 44
16, 204920, Note_on_c, 13, 57, 44
16, 204953, Note_on_c, 13, 53, 0
16, 204953, Note_on_c, 13, 57, 0
16, 204960, Note_on_c, 13, 53, 44
16, 204960, Note_on_c, 13, 57, 44
16, 204993, Note_on_c, 13, 53, 0
16, 204993, Note_on_c, 13, 57, 0
16, 205000, Note_on_c, 13, 57, 44
16, 205000, Note_on_c, 13, 53, 44
16, 205033, Note_on_c, 13, 57, 0
16, 205033, Note_on_c, 13, 53, 0
16, 205040, Note_on_c, 13, 57, 44
16, 205040, Note_on_c, 13, 53, 44
16, 205073, Note_on_c, 13, 57, 0
16, 205073, Note_on_c, 13, 53, 0
16, 205080, Note_on_c, 13, 57, 44
16, 205080, Note_on_c, 13, 53, 44
16, 205113, Note_on_c, 13, 57, 0
16, 205113, Note_on_c, 13, 53, 0
16, 205120, Note_on_c, 13, 53, 44
16, 205120, Note_on_c, 13, 57, 44
16, 205153, Note_on_c, 13, 53, 0
16, 205153, Note_on_c, 13, 57, 0
16, 205160, Note_on_c, 13, 57, 44
16, 205160, Note_on_c, 13, 53, 44
16, 205193, Note_on_c, 13, 57, 0
16, 205193, Note_on_c, 13, 53, 0
16, 205200, Note_on_c, 13, 53, 44
16, 205200, Note_on_c, 13, 57, 44
16, 205233, Note_on_c, 13, 53, 0
16, 205233, Note_on_c, 13, 57, 0
16, 205240, Note_on_c, 13, 53, 44
16, 205240, Note_on_c, 13, 57, 44
16, 205273, Note_on_c, 13, 53, 0
16, 205273, Note_on_c, 13, 57, 0
16, 205280, Note_on_c, 13, 53, 44
16, 205280, Note_on_c, 13, 57, 44
16, 205313, Note_on_c, 13, 53, 0
16, 205313, Note_on_c, 13, 57, 0
16, 205320, Note_on_c, 13, 53, 44
16, 205320, Note_on_c, 13, 57, 44
16, 205353, Note_on_c, 13, 53, 0
16, 205353, Note_on_c, 13, 57, 0
16, 205360, Note_on_c, 13, 53, 44
16, 205360, Note_on_c, 13, 57, 44
16, 205393, Note_on_c, 13, 53, 0
16, 205393, Note_on_c, 13, 57, 0
16, 205400, Note_on_c, 13, 53, 44
16, 205400, Note_on_c, 13, 57, 44
16, 205433, Note_on_c, 13, 53, 0
16, 205433, Note_on_c, 13, 57, 0
16, 205440, Note_on_c, 13, 53, 44
16, 205440, Note_on_c, 13, 57, 44
16, 205473, Note_on_c, 13, 53, 0
16, 205473, Note_on_c, 13, 57, 0
16, 205480, Note_on_c, 13, 57, 44
16, 205480, Note_on_c, 13, 53, 44
16, 205513, Note_on_c, 13, 57, 0
16, 205513, Note_on_c, 13, 53, 0
16, 205520, Note_on_c, 13, 57, 44
16, 205520, Note_on_c, 13, 53, 44
16, 205553, Note_on_c, 13, 57, 0
16, 205553, Note_on_c, 13, 53, 0
16, 205560, Note_on_c, 13, 53, 44
16, 205560, Note_on_c, 13, 57, 44
16, 205593, Note_on_c, 13, 53, 0
16, 205593, Note_on_c, 13, 57, 0
16, 205600, Note_on_c, 13, 53, 44
16, 205600, Note_on_c, 13, 57, 44
16, 205633, Note_on_c, 13, 53, 0
16, 205633, Note_on_c, 13, 57, 0
16, 205640, Note_on_c, 13, 57, 44
16, 205640, Note_on_c, 13, 53, 44
16, 205673, Note_on_c, 13, 57, 0
16, 205673, Note_on_c, 13, 53, 0
16, 205680, Note_on_c, 13, 53, 44
16, 205680, Note_on_c, 13, 57, 44
16, 205713, Note_on_c, 13, 53, 0
16, 205713, Note_on_c, 13, 57, 0
16, 205720, Note_on_c, 13, 53, 44
16, 205720, Note_on_c, 13, 57, 44
16, 205753, Note_on_c, 13, 53, 0
16, 205753, Note_on_c, 13, 57, 0
16, 205760, Note_on_c, 13, 57, 44
16, 205760, Note_on_c, 13, 53, 44
16, 205793, Note_on_c, 13, 57, 0
16, 205793, Note_on_c, 13, 53, 0
16, 205800, Note_on_c, 13, 53, 44
16, 205800, Note_on_c, 13, 57, 44
16, 205833, Note_on_c, 13, 53, 0
16, 205833, Note_on_c, 13, 57, 0
16, 205840, Note_on_c, 13, 57, 44
16, 205840, Note_on_c, 13, 53, 44
16, 205873, Note_on_c, 13, 57, 0
16, 205873, Note_on_c, 13, 53, 0
16, 205880, Note_on_c, 13, 53, 44
16, 205880, Note_on_c, 13, 57, 44
16, 205913, Note_on_c, 13, 53, 0
16, 205913, Note_on_c, 13, 57, 0
16, 205920, Note_on_c, 13, 53, 44
16, 205920, Note_on_c, 13, 57, 44
16, 205953, Note_on_c, 13, 53, 0
16, 205953, Note_on_c, 13, 57, 0
16, 205960, Note_on_c, 13, 53, 44
16, 205960, Note_on_c, 13, 57, 44
16, 205993, Note_on_c, 13, 53, 0
16, 205993, Note_on_c, 13, 57, 0
16, 206000, Note_on_c, 13, 53, 44
16, 206000, Note_on_c, 13, 57, 44
16, 206033, Note_on_c, 13, 53, 0
16, 206033, Note_on_c, 13, 57, 0
16, 206040, Note_on_c, 13, 53, 44
16, 206040, Note_on_c, 13, 57, 44
16, 206073, Note_on_c, 13, 53, 0
16, 206073, Note_on_c, 13, 57, 0
16, 206080, Note_on_c, 13, 57, 44
16, 206080, Note_on_c, 13, 53, 44
16, 206113, Note_on_c, 13, 57, 0
16, 206113, Note_on_c, 13, 53, 0
16, 206120, Note_on_c, 13, 53, 44
16, 206120, Note_on_c, 13, 57, 44
16, 206153, Note_on_c, 13, 53, 0
16, 206153, Note_on_c, 13, 57, 0
16, 206160, Note_on_c, 13, 55, 44
16, 206160, Note_on_c, 13, 58, 44
16, 206193, Note_on_c, 13, 55, 0
16, 206193, Note_on_c, 13, 58, 0
16, 206200, Note_on_c, 13, 58, 44
16, 206200, Note_on_c, 13, 55, 44
16, 206233, Note_on_c, 13, 58, 0
16, 206233, Note_on_c, 13, 55, 0
16, 206240, Note_on_c, 13, 58, 44
16, 206240, Note_on_c, 13, 55, 44
16, 206273, Note_on_c, 13, 58, 0
16, 206273, Note_on_c, 13, 55, 0
16, 206280, Note_on_c, 13, 58, 44
16, 206280, Note_on_c, 13, 55, 44
16, 206313, Note_on_c, 13, 58, 0
16, 206313, Note_on_c, 13, 55, 0
16, 206320, Note_on_c, 13, 55, 44
16, 206320, Note_on_c, 13, 58, 44
16, 206353, Note_on_c, 13, 55, 0
16, 206353, Note_on_c, 13, 58, 0
16, 206360, Note_on_c, 13, 58, 44
16, 206360, Note_on_c, 13, 55, 44
16, 206393, Note_on_c, 13, 58, 0
16, 206393, Note_on_c, 13, 55, 0
16, 206400, Note_on_c, 13, 64, 44
16, 206400, Note_on_c, 13, 61, 44
16, 206433, Note_on_c, 13, 64, 0
16, 206433, Note_on_c, 13, 61, 0
16, 206440, Note_on_c, 13, 64, 44
16, 206440, Note_on_c, 13, 61, 44
16, 206473, Note_on_c, 13, 64, 0
16, 206473, Note_on_c, 13, 61, 0
16, 206480, Note_on_c, 13, 61, 44
16, 206480, Note_on_c, 13, 64, 44
16, 206513, Note_on_c, 13, 61, 0
16, 206513, Note_on_c, 13, 64, 0
16, 206520, Note_on_c, 13, 64, 44
16, 206520, Note_on_c, 13, 61, 44
16, 206553, Note_on_c, 13, 64, 0
16, 206553, Note_on_c, 13, 61, 0
16, 206560, Note_on_c, 13, 61, 44
16, 206560, Note_on_c, 13, 64, 44
16, 206593, Note_on_c, 13, 61, 0
16, 206593, Note_on_c, 13, 64, 0
16, 206600, Note_on_c, 13, 61, 44
16, 206600, Note_on_c, 13, 64, 44
16, 206633, Note_on_c, 13, 61, 0
16, 206633, Note_on_c, 13, 64, 0
16, 206640, Note_on_c, 13, 61, 44
16, 206640, Note_on_c, 13, 64, 44
16, 206673, Note_on_c, 13, 61, 0
16, 206673, Note_on_c, 13, 64, 0
16, 206680, Note_on_c, 13, 64, 44
16, 206680, Note_on_c, 13, 61, 44
16, 206713, Note_on_c, 13, 64, 0
16, 206713, Note_on_c, 13, 61, 0
16, 206720, Note_on_c, 13, 61, 44
16, 206720, Note_on_c, 13, 64, 44
16, 206753, Note_on_c, 13, 61, 0
16, 206753, Note_on_c, 13, 64, 0
16, 206760, Note_on_c, 13, 61, 44
16, 206760, Note_on_c, 13, 64, 44
16, 206793, Note_on_c, 13, 61, 0
16, 206793, Note_on_c, 13, 64, 0
16, 206800, Note_on_c, 13, 61, 44
16, 206800, Note_on_c, 13, 64, 44
16, 206833, Note_on_c, 13, 61, 0
16, 206833, Note_on_c, 13, 64, 0
16, 206840, Note_on_c, 13, 64, 44
16, 206840, Note_on_c, 13, 61, 44
16, 206873, Note_on_c, 13, 64, 0
16, 206873, Note_on_c, 13, 61, 0
16, 206880, Note_on_c, 13, 64, 44
16, 206880, Note_on_c, 13, 61, 44
16, 206913, Note_on_c, 13, 64, 0
16, 206913, Note_on_c, 13, 61, 0
16, 206920, Note_on_c, 13, 61, 44
16, 206920, Note_on_c, 13, 64, 44
16, 206953, Note_on_c, 13, 61, 0
16, 206953, Note_on_c, 13, 64, 0
16, 206960, Note_on_c, 13, 64, 44
16, 206960, Note_on_c, 13, 61, 44
16, 206993, Note_on_c, 13, 64, 0
16, 206993, Note_on_c, 13, 61, 0
16, 207000, Note_on_c, 13, 61, 44
16, 207000, Note_on_c, 13, 64, 44
16, 207033, Note_on_c, 13, 61, 0
16, 207033, Note_on_c, 13, 64, 0
16, 207040, Note_on_c, 13, 64, 44
16, 207040, Note_on_c, 13, 61, 44
16, 207073, Note_on_c, 13, 64, 0
16, 207073, Note_on_c, 13, 61, 0
16, 207080, Note_on_c, 13, 64, 44
16, 207080, Note_on_c, 13, 61, 44
16, 207113, Note_on_c, 13, 64, 0
16, 207113, Note_on_c, 13, 61, 0
16, 207120, Note_on_c, 13, 64, 44
16, 207120, Note_on_c, 13, 61, 44
16, 207153, Note_on_c, 13, 64, 0
16, 207153, Note_on_c, 13, 61, 0
16, 207160, Note_on_c, 13, 61, 44
16, 207160, Note_on_c, 13, 64, 44
16, 207193, Note_on_c, 13, 61, 0
16, 207193, Note_on_c, 13, 64, 0
16, 207200, Note_on_c, 13, 61, 44
16, 207200, Note_on_c, 13, 64, 44
16, 207233, Note_on_c, 13, 61, 0
16, 207233, Note_on_c, 13, 64, 0
16, 207240, Note_on_c, 13, 64, 44
16, 207240, Note_on_c, 13, 61, 44
16, 207273, Note_on_c, 13, 64, 0
16, 207273, Note_on_c, 13, 61, 0
16, 207280, Note_on_c, 13, 64, 44
16, 207280, Note_on_c, 13, 61, 44
16, 207313, Note_on_c, 13, 64, 0
16, 207313, Note_on_c, 13, 61, 0
16, 207320, Note_on_c, 13, 64, 44
16, 207320, Note_on_c, 13, 61, 44
16, 207353, Note_on_c, 13, 64, 0
16, 207353, Note_on_c, 13, 61, 0
16, 207360, Note_on_c, 13, 61, 44
16, 207360, Note_on_c, 13, 64, 44
16, 207393, Note_on_c, 13, 61, 0
16, 207393, Note_on_c, 13, 64, 0
16, 207400, Note_on_c, 13, 64, 44
16, 207400, Note_on_c, 13, 61, 44
16, 207433, Note_on_c, 13, 64, 0
16, 207433, Note_on_c, 13, 61, 0
16, 207440, Note_on_c, 13, 64, 44
16, 207440, Note_on_c, 13, 61, 44
16, 207473, Note_on_c, 13, 64, 0
16, 207473, Note_on_c, 13, 61, 0
16, 207480, Note_on_c, 13, 64, 44
16, 207480, Note_on_c, 13, 61, 44
16, 207513, Note_on_c, 13, 64, 0
16, 207513, Note_on_c, 13, 61, 0
16, 207520, Note_on_c, 13, 61, 44
16, 207520, Note_on_c, 13, 64, 44
16, 207553, Note_on_c, 13, 61, 0
16, 207553, Note_on_c, 13, 64, 0
16, 207560, Note_on_c, 13, 61, 44
16, 207560, Note_on_c, 13, 64, 44
16, 207593, Note_on_c, 13, 61, 0
16, 207593, Note_on_c, 13, 64, 0
16, 207600, Note_on_c, 13, 64, 44
16, 207600, Note_on_c, 13, 61, 44
16, 207633, Note_on_c, 13, 64, 0
16, 207633, Note_on_c, 13, 61, 0
16, 207640, Note_on_c, 13, 64, 44
16, 207640, Note_on_c, 13, 61, 44
16, 207673, Note_on_c, 13, 64, 0
16, 207673, Note_on_c, 13, 61, 0
16, 207680, Note_on_c, 13, 61, 44
16, 207680, Note_on_c, 13, 64, 44
16, 207713, Note_on_c, 13, 61, 0
16, 207713, Note_on_c, 13, 64, 0
16, 207720, Note_on_c, 13, 64, 44
16, 207720, Note_on_c, 13, 61, 44
16, 207753, Note_on_c, 13, 64, 0
16, 207753, Note_on_c, 13, 61, 0
16, 207760, Note_on_c, 13, 64, 44
16, 207760, Note_on_c, 13, 61, 44
16, 207793, Note_on_c, 13, 64, 0
16, 207793, Note_on_c, 13, 61, 0
16, 207800, Note_on_c, 13, 61, 44
16, 207800, Note_on_c, 13, 64, 44
16, 207833, Note_on_c, 13, 61, 0
16, 207833, Note_on_c, 13, 64, 0
16, 207840, Note_on_c, 13, 61, 44
16, 207840, Note_on_c, 13, 64, 44
16, 207873, Note_on_c, 13, 61, 0
16, 207873, Note_on_c, 13, 64, 0
16, 207880, Note_on_c, 13, 61, 44
16, 207880, Note_on_c, 13, 64, 44
16, 207913, Note_on_c, 13, 61, 0
16, 207913, Note_on_c, 13, 64, 0
16, 207920, Note_on_c, 13, 61, 44
16, 207920, Note_on_c, 13, 64, 44
16, 207953, Note_on_c, 13, 61, 0
16, 207953, Note_on_c, 13, 64, 0
16, 207960, Note_on_c, 13, 61, 44
16, 207960, Note_on_c, 13, 64, 44
16, 207993, Note_on_c, 13, 61, 0
16, 207993, Note_on_c, 13, 64, 0
16, 208000, Note_on_c, 13, 64, 44
16, 208000, Note_on_c, 13, 61, 44
16, 208033, Note_on_c, 13, 64, 0
16, 208033, Note_on_c, 13, 61, 0
16, 208040, Note_on_c, 13, 61, 44
16, 208040, Note_on_c, 13, 64, 44
16, 208073, Note_on_c, 13, 61, 0
16, 208073, Note_on_c, 13, 64, 0
16, 208080, Note_on_c, 13, 63, 44
16, 208080, Note_on_c, 13, 60, 44
16, 208113, Note_on_c, 13, 63, 0
16, 208113, Note_on_c, 13, 60, 0
16, 208120, Note_on_c, 13, 63, 44
16, 208120, Note_on_c, 13, 60, 44
16, 208153, Note_on_c, 13, 63, 0
16, 208153, Note_on_c, 13, 60, 0
16, 208160, Note_on_c, 13, 60, 44
16, 208160, Note_on_c, 13, 63, 44
16, 208193, Note_on_c, 13, 60, 0
16, 208193, Note_on_c, 13, 63, 0
16, 208200, Note_on_c, 13, 63, 44
16, 208200, Note_on_c, 13, 60, 44
16, 208233, Note_on_c, 13, 63, 0
16, 208233, Note_on_c, 13, 60, 0
16, 208240, Note_on_c, 13, 63, 44
16, 208240, Note_on_c, 13, 60, 44
16, 208273, Note_on_c, 13, 63, 0
16, 208273, Note_on_c, 13, 60, 0
16, 208280, Note_on_c, 13, 60, 44
16, 208280, Note_on_c, 13, 63, 44
16, 208313, Note_on_c, 13, 60, 0
16, 208313, Note_on_c, 13, 63, 0
16, 208320, Note_on_c, 13, 63, 44
16, 208320, Note_on_c, 13, 60, 44
16, 208353, Note_on_c, 13, 63, 0
16, 208353, Note_on_c, 13, 60, 0
16, 208360, Note_on_c, 13, 60, 44
16, 208360, Note_on_c, 13, 63, 44
16, 208393, Note_on_c, 13, 60, 0
16, 208393, Note_on_c, 13, 63, 0
16, 208400, Note_on_c, 13, 63, 44
16, 208400, Note_on_c, 13, 60, 44
16, 208433, Note_on_c, 13, 63, 0
16, 208433, Note_on_c, 13, 60, 0
16, 208440, Note_on_c, 13, 60, 44
16, 208440, Note_on_c, 13, 63, 44
16, 208473, Note_on_c, 13, 60, 0
16, 208473, Note_on_c, 13, 63, 0
16, 208480, Note_on_c, 13, 60, 44
16, 208480, Note_on_c, 13, 63, 44
16, 208513, Note_on_c, 13, 60, 0
16, 208513, Note_on_c, 13, 63, 0
16, 208520, Note_on_c, 13, 60, 44
16, 208520, Note_on_c, 13, 63, 44
16, 208553, Note_on_c, 13, 60, 0
16, 208553, Note_on_c, 13, 63, 0
16, 208560, Note_on_c, 13, 60, 44
16, 208560, Note_on_c, 13, 63, 44
16, 208593, Note_on_c, 13, 60, 0
16, 208593, Note_on_c, 13, 63, 0
16, 208600, Note_on_c, 13, 60, 44
16, 208600, Note_on_c, 13, 63, 44
16, 208633, Note_on_c, 13, 60, 0
16, 208633, Note_on_c, 13, 63, 0
16, 208640, Note_on_c, 13, 63, 44
16, 208640, Note_on_c, 13, 60, 44
16, 208673, Note_on_c, 13, 63, 0
16, 208673, Note_on_c, 13, 60, 0
16, 208680, Note_on_c, 13, 60, 44
16, 208680, Note_on_c, 13, 63, 44
16, 208713, Note_on_c, 13, 60, 0
16, 208713, Note_on_c, 13, 63, 0
16, 208720, Note_on_c, 13, 60, 44
16, 208720, Note_on_c, 13, 63, 44
16, 208753, Note_on_c, 13, 60, 0
16, 208753, Note_on_c, 13, 63, 0
16, 208760, Note_on_c, 13, 60, 44
16, 208760, Note_on_c, 13, 63, 44
16, 208793, Note_on_c, 13, 60, 0
16, 208793, Note_on_c, 13, 63, 0
16, 208800, Note_on_c, 13, 63, 44
16, 208800, Note_on_c, 13, 60, 44
16, 208833, Note_on_c, 13, 63, 0
16, 208833, Note_on_c, 13, 60, 0
16, 208840, Note_on_c, 13, 60, 44
16, 208840, Note_on_c, 13, 63, 44
16, 208873, Note_on_c, 13, 60, 0
16, 208873, Note_on_c, 13, 63, 0
16, 208880, Note_on_c, 13, 63, 44
16, 208880, Note_on_c, 13, 60, 44
16, 208913, Note_on_c, 13, 63, 0
16, 208913, Note_on_c, 13, 60, 0
16, 208920, Note_on_c, 13, 63, 44
16, 208920, Note_on_c, 13, 60, 44
16, 208953, Note_on_c, 13, 63, 0
16, 208953, Note_on_c, 13, 60, 0
16, 208960, Note_on_c, 13, 63, 44
16, 208960, Note_on_c, 13, 60, 44
16, 208993, Note_on_c, 13, 63, 0
16, 208993, Note_on_c, 13, 60, 0
16, 209000, Note_on_c, 13, 63, 44
16, 209000, Note_on_c, 13, 60, 44
16, 209033, Note_on_c, 13, 63, 0
16, 209033, Note_on_c, 13, 60, 0
16, 209040, Note_on_c, 13, 63, 44
16, 209040, Note_on_c, 13, 60, 44
16, 209073, Note_on_c, 13, 63, 0
16, 209073, Note_on_c, 13, 60, 0
16, 209080, Note_on_c, 13, 60, 44
16, 209080, Note_on_c, 13, 63, 44
16, 209113, Note_on_c, 13, 60, 0
16, 209113, Note_on_c, 13, 63, 0
16, 209120, Note_on_c, 13, 63, 44
16, 209120, Note_on_c, 13, 60, 44
16, 209153, Note_on_c, 13, 63, 0
16, 209153, Note_on_c, 13, 60, 0
16, 209160, Note_on_c, 13, 60, 44
16, 209160, Note_on_c, 13, 63, 44
16, 209193, Note_on_c, 13, 60, 0
16, 209193, Note_on_c, 13, 63, 0
16, 209200, Note_on_c, 13, 60, 44
16, 209200, Note_on_c, 13, 63, 44
16, 209233, Note_on_c, 13, 60, 0
16, 209233, Note_on_c, 13, 63, 0
16, 209240, Note_on_c, 13, 60, 44
16, 209240, Note_on_c, 13, 63, 44
16, 209273, Note_on_c, 13, 60, 0
16, 209273, Note_on_c, 13, 63, 0
16, 209280, Note_on_c, 13, 63, 44
16, 209280, Note_on_c, 13, 60, 44
16, 209313, Note_on_c, 13, 63, 0
16, 209313, Note_on_c, 13, 60, 0
16, 209320, Note_on_c, 13, 63, 44
16, 209320, Note_on_c, 13, 60, 44
16, 209353, Note_on_c, 13, 63, 0
16, 209353, Note_on_c, 13, 60, 0
16, 209360, Note_on_c, 13, 63, 44
16, 209360, Note_on_c, 13, 60, 44
16, 209393, Note_on_c, 13, 63, 0
16, 209393, Note_on_c, 13, 60, 0
16, 209400, Note_on_c, 13, 60, 44
16, 209400, Note_on_c, 13, 63, 44
16, 209433, Note_on_c, 13, 60, 0
16, 209433, Note_on_c, 13, 63, 0
16, 209440, Note_on_c, 13, 60, 44
16, 209440, Note_on_c, 13, 63, 44
16, 209473, Note_on_c, 13, 60, 0
16, 209473, Note_on_c, 13, 63, 0
16, 209480, Note_on_c, 13, 60, 44
16, 209480, Note_on_c, 13, 63, 44
16, 209513, Note_on_c, 13, 60, 0
16, 209513, Note_on_c, 13, 63, 0
16, 209520, Note_on_c, 13, 63, 44
16, 209520, Note_on_c, 13, 60, 44
16, 209553, Note_on_c, 13, 63, 0
16, 209553, Note_on_c, 13, 60, 0
16, 209560, Note_on_c, 13, 63, 44
16, 209560, Note_on_c, 13, 60, 44
16, 209593, Note_on_c, 13, 63, 0
16, 209593, Note_on_c, 13, 60, 0
16, 209600, Note_on_c, 13, 63, 44
16, 209600, Note_on_c, 13, 60, 44
16, 209633, Note_on_c, 13, 63, 0
16, 209633, Note_on_c, 13, 60, 0
16, 209640, Note_on_c, 13, 60, 44
16, 209640, Note_on_c, 13, 63, 44
16, 209673, Note_on_c, 13, 60, 0
16, 209673, Note_on_c, 13, 63, 0
16, 209680, Note_on_c, 13, 63, 44
16, 209680, Note_on_c, 13, 60, 44
16, 209713, Note_on_c, 13, 63, 0
16, 209713, Note_on_c, 13, 60, 0
16, 209720, Note_on_c, 13, 60, 44
16, 209720, Note_on_c, 13, 63, 44
16, 209753, Note_on_c, 13, 60, 0
16, 209753, Note_on_c, 13, 63, 0
16, 209760, Note_on_c, 13, 60, 44
16, 209760, Note_on_c, 13, 63, 44
16, 209793, Note_on_c, 13, 60, 0
16, 209793, Note_on_c, 13, 63, 0
16, 209800, Note_on_c, 13, 60, 44
16, 209800, Note_on_c, 13, 63, 44
16, 209833, Note_on_c, 13, 60, 0
16, 209833, Note_on_c, 13, 63, 0
16, 209840, Note_on_c, 13, 63, 44
16, 209840, Note_on_c, 13, 60, 44
16, 209873, Note_on_c, 13, 63, 0
16, 209873, Note_on_c, 13, 60, 0
16, 209880, Note_on_c, 13, 60, 44
16, 209880, Note_on_c, 13, 63, 44
16, 209913, Note_on_c, 13, 60, 0
16, 209913, Note_on_c, 13, 63, 0
16, 209920, Note_on_c, 13, 63, 44
16, 209920, Note_on_c, 13, 60, 44
16, 209953, Note_on_c, 13, 63, 0
16, 209953, Note_on_c, 13, 60, 0
16, 209960, Note_on_c, 13, 60, 44
16, 209960, Note_on_c, 13, 63, 44
16, 209993, Note_on_c, 13, 60, 0
16, 209993, Note_on_c, 13, 63, 0
16, 210000, Note_on_c, 13, 57, 44
16, 210000, Note_on_c, 13, 54, 44
16, 210033, Note_on_c, 13, 57, 0
16, 210033, Note_on_c, 13, 54, 0
16, 210040, Note_on_c, 13, 54, 44
16, 210040, Note_on_c, 13, 57, 44
16, 210073, Note_on_c, 13, 54, 0
16, 210073, Note_on_c, 13, 57, 0
16, 210080, Note_on_c, 13, 57, 44
16, 210080, Note_on_c, 13, 54, 44
16, 210113, Note_on_c, 13, 57, 0
16, 210113, Note_on_c, 13, 54, 0
16, 210120, Note_on_c, 13, 57, 44
16, 210120, Note_on_c, 13, 54, 44
16, 210153, Note_on_c, 13, 57, 0
16, 210153, Note_on_c, 13, 54, 0
16, 210160, Note_on_c, 13, 54, 44
16, 210160, Note_on_c, 13, 57, 44
16, 210193, Note_on_c, 13, 54, 0
16, 210193, Note_on_c, 13, 57, 0
16, 210200, Note_on_c, 13, 54, 44
16, 210200, Note_on_c, 13, 57, 44
16, 210233, Note_on_c, 13, 54, 0
16, 210233, Note_on_c, 13, 57, 0
16, 210240, Note_on_c, 13, 57, 44
16, 210240, Note_on_c, 13, 54, 44
16, 210273, Note_on_c, 13, 57, 0
16, 210273, Note_on_c, 13, 54, 0
16, 210280, Note_on_c, 13, 57, 44
16, 210280, Note_on_c, 13, 54, 44
16, 210313, Note_on_c, 13, 57, 0
16, 210313, Note_on_c, 13, 54, 0
16, 210320, Note_on_c, 13, 54, 44
16, 210320, Note_on_c, 13, 57, 44
16, 210353, Note_on_c, 13, 54, 0
16, 210353, Note_on_c, 13, 57, 0
16, 210360, Note_on_c, 13, 54, 44
16, 210360, Note_on_c, 13, 57, 44
16, 210393, Note_on_c, 13, 54, 0
16, 210393, Note_on_c, 13, 57, 0
16, 210400, Note_on_c, 13, 54, 45
16, 210400, Note_on_c, 13, 57, 45
16, 210433, Note_on_c, 13, 54, 0
16, 210433, Note_on_c, 13, 57, 0
16, 210440, Note_on_c, 13, 57, 45
16, 210440, Note_on_c, 13, 54, 45
16, 210473, Note_on_c, 13, 57, 0
16, 210473, Note_on_c, 13, 54, 0
16, 210480, Note_on_c, 13, 57, 45
16, 210480, Note_on_c, 13, 54, 45
16, 210513, Note_on_c, 13, 57, 0
16, 210513, Note_on_c, 13, 54, 0
16, 210520, Note_on_c, 13, 54, 46
16, 210520, Note_on_c, 13, 57, 46
16, 210553, Note_on_c, 13, 54, 0
16, 210553, Note_on_c, 13, 57, 0
16, 210560, Note_on_c, 13, 54, 46
16, 210560, Note_on_c, 13, 57, 46
16, 210593, Note_on_c, 13, 54, 0
16, 210593, Note_on_c, 13, 57, 0
16, 210600, Note_on_c, 13, 57, 46
16, 210600, Note_on_c, 13, 54, 46
16, 210633, Note_on_c, 13, 57, 0
16, 210633, Note_on_c, 13, 54, 0
16, 210640, Note_on_c, 13, 54, 46
16, 210640, Note_on_c, 13, 57, 46
16, 210673, Note_on_c, 13, 54, 0
16, 210673, Note_on_c, 13, 57, 0
16, 210680, Note_on_c, 13, 57, 47
16, 210680, Note_on_c, 13, 54, 47
16, 210713, Note_on_c, 13, 57, 0
16, 210713, Note_on_c, 13, 54, 0
16, 210720, Note_on_c, 13, 54, 47
16, 210720, Note_on_c, 13, 57, 47
16, 210753, Note_on_c, 13, 54, 0
16, 210753, Note_on_c, 13, 57, 0
16, 210760, Note_on_c, 13, 54, 47
16, 210760, Note_on_c, 13, 57, 47
16, 210793, Note_on_c, 13, 54, 0
16, 210793, Note_on_c, 13, 57, 0
16, 210800, Note_on_c, 13, 54, 48
16, 210800, Note_on_c, 13, 57, 48
16, 210833, Note_on_c, 13, 54, 0
16, 210833, Note_on_c, 13, 57, 0
16, 210840, Note_on_c, 13, 54, 48
16, 210840, Note_on_c, 13, 57, 48
16, 210873, Note_on_c, 13, 54, 0
16, 210873, Note_on_c, 13, 57, 0
16, 210880, Note_on_c, 13, 57, 48
16, 210880, Note_on_c, 13, 54, 48
16, 210913, Note_on_c, 13, 57, 0
16, 210913, Note_on_c, 13, 54, 0
16, 210920, Note_on_c, 13, 54, 48
16, 210920, Note_on_c, 13, 57, 48
16, 210953, Note_on_c, 13, 54, 0
16, 210953, Note_on_c, 13, 57, 0
16, 210960, Note_on_c, 13, 53, 49
16, 210960, Note_on_c, 13, 56, 49
16, 210993, Note_on_c, 13, 53, 0
16, 210993, Note_on_c, 13, 56, 0
16, 211000, Note_on_c, 13, 53, 49
16, 211000, Note_on_c, 13, 56, 49
16, 211033, Note_on_c, 13, 53, 0
16, 211033, Note_on_c, 13, 56, 0
16, 211040, Note_on_c, 13, 53, 49
16, 211040, Note_on_c, 13, 56, 49
16, 211073, Note_on_c, 13, 53, 0
16, 211073, Note_on_c, 13, 56, 0
16, 211080, Note_on_c, 13, 53, 50
16, 211080, Note_on_c, 13, 55, 50
16, 211113, Note_on_c, 13, 53, 0
16, 211113, Note_on_c, 13, 55, 0
16, 211120, Note_on_c, 13, 53, 50
16, 211120, Note_on_c, 13, 55, 50
16, 211153, Note_on_c, 13, 53, 0
16, 211153, Note_on_c, 13, 55, 0
16, 211160, Note_on_c, 13, 55, 50
16, 211160, Note_on_c, 13, 53, 50
16, 211193, Note_on_c, 13, 55, 0
16, 211193, Note_on_c, 13, 53, 0
16, 211200, Note_on_c, 13, 53, 50
16, 211200, Note_on_c, 13, 55, 50
16, 211233, Note_on_c, 13, 53, 0
16, 211233, Note_on_c, 13, 55, 0
16, 211240, Note_on_c, 13, 55, 51
16, 211240, Note_on_c, 13, 53, 51
16, 211273, Note_on_c, 13, 55, 0
16, 211273, Note_on_c, 13, 53, 0
16, 211280, Note_on_c, 13, 55, 51
16, 211280, Note_on_c, 13, 53, 51
16, 211313, Note_on_c, 13, 55, 0
16, 211313, Note_on_c, 13, 53, 0
16, 211320, Note_on_c, 13, 53, 51
16, 211320, Note_on_c, 13, 55, 51
16, 211353, Note_on_c, 13, 53, 0
16, 211353, Note_on_c, 13, 55, 0
16, 211360, Note_on_c, 13, 53, 52
16, 211360, Note_on_c, 13, 55, 52
16, 211393, Note_on_c, 13, 53, 0
16, 211393, Note_on_c, 13, 55, 0
16, 211400, Note_on_c, 13, 53, 52
16, 211400, Note_on_c, 13, 55, 52
16, 211433, Note_on_c, 13, 53, 0
16, 211433, Note_on_c, 13, 55, 0
16, 211440, Note_on_c, 13, 53, 52
16, 211440, Note_on_c, 13, 55, 52
16, 211473, Note_on_c, 13, 53, 0
16, 211473, Note_on_c, 13, 55, 0
16, 211480, Note_on_c, 13, 55, 52
16, 211480, Note_on_c, 13, 53, 52
16, 211513, Note_on_c, 13, 55, 0
16, 211513, Note_on_c, 13, 53, 0
16, 211520, Note_on_c, 13, 55, 53
16, 211520, Note_on_c, 13, 53, 53
16, 211553, Note_on_c, 13, 55, 0
16, 211553, Note_on_c, 13, 53, 0
16, 211560, Note_on_c, 13, 53, 53
16, 211560, Note_on_c, 13, 55, 53
16, 211593, Note_on_c, 13, 53, 0
16, 211593, Note_on_c, 13, 55, 0
16, 211600, Note_on_c, 13, 53, 53
16, 211600, Note_on_c, 13, 55, 53
16, 211633, Note_on_c, 13, 53, 0
16, 211633, Note_on_c, 13, 55, 0
16, 211640, Note_on_c, 13, 53, 54
16, 211640, Note_on_c, 13, 55, 54
16, 211673, Note_on_c, 13, 53, 0
16, 211673, Note_on_c, 13, 55, 0
16, 211680, Note_on_c, 13, 55, 54
16, 211680, Note_on_c, 13, 53, 54
16, 211713, Note_on_c, 13, 55, 0
16, 211713, Note_on_c, 13, 53, 0
16, 211720, Note_on_c, 13, 53, 54
16, 211720, Note_on_c, 13, 55, 54
16, 211753, Note_on_c, 13, 53, 0
16, 211753, Note_on_c, 13, 55, 0
16, 211760, Note_on_c, 13, 55, 54
16, 211760, Note_on_c, 13, 53, 54
16, 211793, Note_on_c, 13, 55, 0
16, 211793, Note_on_c, 13, 53, 0
16, 211800, Note_on_c, 13, 53, 55
16, 211800, Note_on_c, 13, 55, 55
16, 211833, Note_on_c, 13, 53, 0
16, 211833, Note_on_c, 13, 55, 0
16, 211840, Note_on_c, 13, 53, 55
16, 211840, Note_on_c, 13, 55, 55
16, 211873, Note_on_c, 13, 53, 0
16, 211873, Note_on_c, 13, 55, 0
16, 211880, Note_on_c, 13, 53, 55
16, 211880, Note_on_c, 13, 55, 55
16, 211913, Note_on_c, 13, 53, 0
16, 211913, Note_on_c, 13, 55, 0
16, 211920, Note_on_c, 13, 52, 56
16, 211920, Note_on_c, 13, 55, 56
16, 211953, Note_on_c, 13, 52, 0
16, 211953, Note_on_c, 13, 55, 0
16, 211960, Note_on_c, 13, 55, 56
16, 211960, Note_on_c, 13, 52, 56
16, 211993, Note_on_c, 13, 55, 0
16, 211993, Note_on_c, 13, 52, 0
16, 212000, Note_on_c, 13, 52, 56
16, 212000, Note_on_c, 13, 55, 56
16, 212033, Note_on_c, 13, 52, 0
16, 212033, Note_on_c, 13, 55, 0
16, 212040, Note_on_c, 13, 52, 56
16, 212040, Note_on_c, 13, 55, 56
16, 212073, Note_on_c, 13, 52, 0
16, 212073, Note_on_c, 13, 55, 0
16, 212080, Note_on_c, 13, 55, 57
16, 212080, Note_on_c, 13, 52, 57
16, 212113, Note_on_c, 13, 55, 0
16, 212113, Note_on_c, 13, 52, 0
16, 212120, Note_on_c, 13, 52, 57
16, 212120, Note_on_c, 13, 55, 57
16, 212153, Note_on_c, 13, 52, 0
16, 212153, Note_on_c, 13, 55, 0
16, 212160, Note_on_c, 13, 52, 57
16, 212160, Note_on_c, 13, 55, 57
16, 212193, Note_on_c, 13, 52, 0
16, 212193, Note_on_c, 13, 55, 0
16, 212200, Note_on_c, 13, 52, 58
16, 212200, Note_on_c, 13, 55, 58
16, 212233, Note_on_c, 13, 52, 0
16, 212233, Note_on_c, 13, 55, 0
16, 212240, Note_on_c, 13, 55, 58
16, 212240, Note_on_c, 13, 52, 58
16, 212273, Note_on_c, 13, 55, 0
16, 212273, Note_on_c, 13, 52, 0
16, 212280, Note_on_c, 13, 52, 58
16, 212280, Note_on_c, 13, 55, 58
16, 212313, Note_on_c, 13, 52, 0
16, 212313, Note_on_c, 13, 55, 0
16, 212320, Note_on_c, 13, 55, 58
16, 212320, Note_on_c, 13, 52, 58
16, 212353, Note_on_c, 13, 55, 0
16, 212353, Note_on_c, 13, 52, 0
16, 212360, Note_on_c, 13, 55, 59
16, 212360, Note_on_c, 13, 52, 59
16, 212393, Note_on_c, 13, 55, 0
16, 212393, Note_on_c, 13, 52, 0
16, 212400, Note_on_c, 13, 55, 59
16, 212400, Note_on_c, 13, 52, 59
16, 212433, Note_on_c, 13, 55, 0
16, 212433, Note_on_c, 13, 52, 0
16, 212440, Note_on_c, 13, 52, 59
16, 212440, Note_on_c, 13, 55, 59
16, 212473, Note_on_c, 13, 52, 0
16, 212473, Note_on_c, 13, 55, 0
16, 212480, Note_on_c, 13, 52, 60
16, 212480, Note_on_c, 13, 55, 60
16, 212513, Note_on_c, 13, 52, 0
16, 212513, Note_on_c, 13, 55, 0
16, 212520, Note_on_c, 13, 55, 60
16, 212520, Note_on_c, 13, 52, 60
16, 212553, Note_on_c, 13, 55, 0
16, 212553, Note_on_c, 13, 52, 0
16, 212560, Note_on_c, 13, 52, 60
16, 212560, Note_on_c, 13, 55, 60
16, 212593, Note_on_c, 13, 52, 0
16, 212593, Note_on_c, 13, 55, 0
16, 212600, Note_on_c, 13, 55, 60
16, 212600, Note_on_c, 13, 52, 60
16, 212633, Note_on_c, 13, 55, 0
16, 212633, Note_on_c, 13, 52, 0
16, 212640, Note_on_c, 13, 55, 61
16, 212640, Note_on_c, 13, 52, 61
16, 212673, Note_on_c, 13, 55, 0
16, 212673, Note_on_c, 13, 52, 0
16, 212680, Note_on_c, 13, 52, 61
16, 212680, Note_on_c, 13, 55, 61
16, 212713, Note_on_c, 13, 52, 0
16, 212713, Note_on_c, 13, 55, 0
16, 212720, Note_on_c, 13, 52, 61
16, 212720, Note_on_c, 13, 55, 61
16, 212753, Note_on_c, 13, 52, 0
16, 212753, Note_on_c, 13, 55, 0
16, 212760, Note_on_c, 13, 55, 62
16, 212760, Note_on_c, 13, 52, 62
16, 212793, Note_on_c, 13, 55, 0
16, 212793, Note_on_c, 13, 52, 0
16, 212800, Note_on_c, 13, 55, 62
16, 212800, Note_on_c, 13, 52, 62
16, 212833, Note_on_c, 13, 55, 0
16, 212833, Note_on_c, 13, 52, 0
16, 212840, Note_on_c, 13, 55, 62
16, 212840, Note_on_c, 13, 52, 62
16, 212873, Note_on_c, 13, 55, 0
16, 212873, Note_on_c, 13, 52, 0
16, 212880, Note_on_c, 13, 52, 62
16, 212880, Note_on_c, 13, 55, 62
16, 212913, Note_on_c, 13, 52, 0
16, 212913, Note_on_c, 13, 55, 0
16, 212920, Note_on_c, 13, 55, 63
16, 212920, Note_on_c, 13, 52, 63
16, 212953, Note_on_c, 13, 55, 0
16, 212953, Note_on_c, 13, 52, 0
16, 212960, Note_on_c, 13, 55, 63
16, 212960, Note_on_c, 13, 52, 63
16, 212993, Note_on_c, 13, 55, 0
16, 212993, Note_on_c, 13, 52, 0
16, 213000, Note_on_c, 13, 52, 63
16, 213000, Note_on_c, 13, 55, 63
16, 213033, Note_on_c, 13, 52, 0
16, 213033, Note_on_c, 13, 55, 0
16, 213040, Note_on_c, 13, 52, 64
16, 213040, Note_on_c, 13, 55, 64
16, 213073, Note_on_c, 13, 52, 0
16, 213073, Note_on_c, 13, 55, 0
16, 213080, Note_on_c, 13, 55, 64
16, 213080, Note_on_c, 13, 52, 64
16, 213113, Note_on_c, 13, 55, 0
16, 213113, Note_on_c, 13, 52, 0
16, 213120, Note_on_c, 13, 55, 64
16, 213120, Note_on_c, 13, 52, 64
16, 213153, Note_on_c, 13, 55, 0
16, 213153, Note_on_c, 13, 52, 0
16, 213160, Note_on_c, 13, 55, 64
16, 213160, Note_on_c, 13, 52, 64
16, 213193, Note_on_c, 13, 55, 0
16, 213193, Note_on_c, 13, 52, 0
16, 213200, Note_on_c, 13, 55, 65
16, 213200, Note_on_c, 13, 52, 65
16, 213233, Note_on_c, 13, 55, 0
16, 213233, Note_on_c, 13, 52, 0
16, 213240, Note_on_c, 13, 55, 65
16, 213240, Note_on_c, 13, 52, 65
16, 213273, Note_on_c, 13, 55, 0
16, 213273, Note_on_c, 13, 52, 0
16, 213280, Note_on_c, 13, 55, 65
16, 213280, Note_on_c, 13, 52, 65
16, 213313, Note_on_c, 13, 55, 0
16, 213313, Note_on_c, 13, 52, 0
16, 213320, Note_on_c, 13, 52, 66
16, 213320, Note_on_c, 13, 55, 66
16, 213353, Note_on_c, 13, 52, 0
16, 213353, Note_on_c, 13, 55, 0
16, 213360, Note_on_c, 13, 52, 66
16, 213360, Note_on_c, 13, 55, 66
16, 213393, Note_on_c, 13, 52, 0
16, 213393, Note_on_c, 13, 55, 0
16, 213400, Note_on_c, 13, 52, 66
16, 213400, Note_on_c, 13, 55, 66
16, 213433, Note_on_c, 13, 52, 0
16, 213433, Note_on_c, 13, 55, 0
16, 213440, Note_on_c, 13, 52, 66
16, 213440, Note_on_c, 13, 55, 66
16, 213473, Note_on_c, 13, 52, 0
16, 213473, Note_on_c, 13, 55, 0
16, 213480, Note_on_c, 13, 55, 67
16, 213480, Note_on_c, 13, 52, 67
16, 213513, Note_on_c, 13, 55, 0
16, 213513, Note_on_c, 13, 52, 0
16, 213520, Note_on_c, 13, 55, 67
16, 213520, Note_on_c, 13, 52, 67
16, 213553, Note_on_c, 13, 55, 0
16, 213553, Note_on_c, 13, 52, 0
16, 213560, Note_on_c, 13, 52, 67
16, 213560, Note_on_c, 13, 55, 67
16, 213593, Note_on_c, 13, 52, 0
16, 213593, Note_on_c, 13, 55, 0
16, 213600, Note_on_c, 13, 52, 68
16, 213600, Note_on_c, 13, 55, 68
16, 213633, Note_on_c, 13, 52, 0
16, 213633, Note_on_c, 13, 55, 0
16, 213640, Note_on_c, 13, 52, 68
16, 213640, Note_on_c, 13, 55, 68
16, 213673, Note_on_c, 13, 52, 0
16, 213673, Note_on_c, 13, 55, 0
16, 213680, Note_on_c, 13, 55, 68
16, 213680, Note_on_c, 13, 52, 68
16, 213713, Note_on_c, 13, 55, 0
16, 213713, Note_on_c, 13, 52, 0
16, 213720, Note_on_c, 13, 52, 68
16, 213720, Note_on_c, 13, 55, 68
16, 213753, Note_on_c, 13, 52, 0
16, 213753, Note_on_c, 13, 55, 0
16, 213760, Note_on_c, 13, 55, 69
16, 213760, Note_on_c, 13, 52, 69
16, 213793, Note_on_c, 13, 55, 0
16, 213793, Note_on_c, 13, 52, 0
16, 213800, Note_on_c, 13, 55, 69
16, 213800, Note_on_c, 13, 52, 69
16, 213833, Note_on_c, 13, 55, 0
16, 213833, Note_on_c, 13, 52, 0
16, 213840, Note_on_c, 13, 52, 69
16, 213840, Note_on_c, 13, 55, 69
16, 213873, Note_on_c, 13, 52, 0
16, 213873, Note_on_c, 13, 55, 0
16, 213880, Note_on_c, 13, 52, 70
16, 213880, Note_on_c, 13, 55, 70
16, 213913, Note_on_c, 13, 52, 0
16, 213913, Note_on_c, 13, 55, 0
16, 213920, Note_on_c, 13, 55, 70
16, 213920, Note_on_c, 13, 52, 70
16, 213953, Note_on_c, 13, 55, 0
16, 213953, Note_on_c, 13, 52, 0
16, 213960, Note_on_c, 13, 55, 70
16, 213960, Note_on_c, 13, 52, 70
16, 213993, Note_on_c, 13, 55, 0
16, 213993, Note_on_c, 13, 52, 0
16, 214000, Note_on_c, 13, 55, 70
16, 214000, Note_on_c, 13, 52, 70
16, 214033, Note_on_c, 13, 55, 0
16, 214033, Note_on_c, 13, 52, 0
16, 214040, Note_on_c, 13, 52, 71
16, 214040, Note_on_c, 13, 55, 71
16, 214073, Note_on_c, 13, 52, 0
16, 214073, Note_on_c, 13, 55, 0
16, 214080, Note_on_c, 13, 52, 71
16, 214080, Note_on_c, 13, 55, 71
16, 214113, Note_on_c, 13, 52, 0
16, 214113, Note_on_c, 13, 55, 0
16, 214120, Note_on_c, 13, 55, 71
16, 214120, Note_on_c, 13, 52, 71
16, 214153, Note_on_c, 13, 55, 0
16, 214153, Note_on_c, 13, 52, 0
16, 214160, Note_on_c, 13, 52, 72
16, 214160, Note_on_c, 13, 55, 72
16, 214193, Note_on_c, 13, 52, 0
16, 214193, Note_on_c, 13, 55, 0
16, 214200, Note_on_c, 13, 52, 72
16, 214200, Note_on_c, 13, 55, 72
16, 214233, Note_on_c, 13, 52, 0
16, 214233, Note_on_c, 13, 55, 0
16, 214240, Note_on_c, 13, 55, 72
16, 214240, Note_on_c, 13, 52, 72
16, 214273, Note_on_c, 13, 55, 0
16, 214273, Note_on_c, 13, 52, 0
16, 214280, Note_on_c, 13, 55, 72
16, 214280, Note_on_c, 13, 52, 72
16, 214313, Note_on_c, 13, 55, 0
16, 214313, Note_on_c, 13, 52, 0
16, 214320, Note_on_c, 13, 52, 73
16, 214320, Note_on_c, 13, 55, 73
16, 214353, Note_on_c, 13, 52, 0
16, 214353, Note_on_c, 13, 55, 0
16, 214360, Note_on_c, 13, 52, 73
16, 214360, Note_on_c, 13, 55, 73
16, 214393, Note_on_c, 13, 52, 0
16, 214393, Note_on_c, 13, 55, 0
16, 214400, Note_on_c, 13, 55, 73
16, 214400, Note_on_c, 13, 52, 73
16, 214433, Note_on_c, 13, 55, 0
16, 214433, Note_on_c, 13, 52, 0
16, 214440, Note_on_c, 13, 52, 74
16, 214440, Note_on_c, 13, 55, 74
16, 214473, Note_on_c, 13, 52, 0
16, 214473, Note_on_c, 13, 55, 0
16, 214480, Note_on_c, 13, 52, 74
16, 214480, Note_on_c, 13, 55, 74
16, 214513, Note_on_c, 13, 52, 0
16, 214513, Note_on_c, 13, 55, 0
16, 214520, Note_on_c, 13, 55, 74
16, 214520, Note_on_c, 13, 52, 74
16, 214553, Note_on_c, 13, 55, 0
16, 214553, Note_on_c, 13, 52, 0
16, 214560, Note_on_c, 13, 55, 74
16, 214560, Note_on_c, 13, 52, 74
16, 214593, Note_on_c, 13, 55, 0
16, 214593, Note_on_c, 13, 52, 0
16, 214600, Note_on_c, 13, 55, 75
16, 214600, Note_on_c, 13, 52, 75
16, 214633, Note_on_c, 13, 55, 0
16, 214633, Note_on_c, 13, 52, 0
16, 214640, Note_on_c, 13, 52, 75
16, 214640, Note_on_c, 13, 55, 75
16, 214673, Note_on_c, 13, 52, 0
16, 214673, Note_on_c, 13, 55, 0
16, 214680, Note_on_c, 13, 52, 75
16, 214680, Note_on_c, 13, 55, 75
16, 214713, Note_on_c, 13, 52, 0
16, 214713, Note_on_c, 13, 55, 0
16, 214720, Note_on_c, 13, 52, 76
16, 214720, Note_on_c, 13, 55, 76
16, 214753, Note_on_c, 13, 52, 0
16, 214753, Note_on_c, 13, 55, 0
16, 214760, Note_on_c, 13, 52, 76
16, 214760, Note_on_c, 13, 55, 76
16, 214793, Note_on_c, 13, 52, 0
16, 214793, Note_on_c, 13, 55, 0
16, 214800, Note_on_c, 13, 55, 76
16, 214800, Note_on_c, 13, 52, 76
16, 214833, Note_on_c, 13, 55, 0
16, 214833, Note_on_c, 13, 52, 0
16, 214840, Note_on_c, 13, 52, 76
16, 214840, Note_on_c, 13, 55, 76
16, 214873, Note_on_c, 13, 52, 0
16, 214873, Note_on_c, 13, 55, 0
16, 214880, Note_on_c, 13, 52, 77
16, 214880, Note_on_c, 13, 55, 77
16, 214913, Note_on_c, 13, 52, 0
16, 214913, Note_on_c, 13, 55, 0
16, 214920, Note_on_c, 13, 55, 77
16, 214920, Note_on_c, 13, 52, 77
16, 214953, Note_on_c, 13, 55, 0
16, 214953, Note_on_c, 13, 52, 0
16, 214960, Note_on_c, 13, 55, 77
16, 214960, Note_on_c, 13, 52, 77
16, 214993, Note_on_c, 13, 55, 0
16, 214993, Note_on_c, 13, 52, 0
16, 215000, Note_on_c, 13, 52, 78
16, 215000, Note_on_c, 13, 55, 78
16, 215033, Note_on_c, 13, 52, 0
16, 215033, Note_on_c, 13, 55, 0
16, 215040, Note_on_c, 13, 52, 78
16, 215040, Note_on_c, 13, 55, 78
16, 215073, Note_on_c, 13, 52, 0
16, 215073, Note_on_c, 13, 55, 0
16, 215080, Note_on_c, 13, 52, 78
16, 215080, Note_on_c, 13, 55, 78
16, 215113, Note_on_c, 13, 52, 0
16, 215113, Note_on_c, 13, 55, 0
16, 215120, Note_on_c, 13, 52, 78
16, 215120, Note_on_c, 13, 55, 78
16, 215153, Note_on_c, 13, 52, 0
16, 215153, Note_on_c, 13, 55, 0
16, 215160, Note_on_c, 13, 55, 79
16, 215160, Note_on_c, 13, 52, 79
16, 215193, Note_on_c, 13, 55, 0
16, 215193, Note_on_c, 13, 52, 0
16, 215200, Note_on_c, 13, 52, 79
16, 215200, Note_on_c, 13, 55, 79
16, 215233, Note_on_c, 13, 52, 0
16, 215233, Note_on_c, 13, 55, 0
16, 215240, Note_on_c, 13, 55, 79
16, 215240, Note_on_c, 13, 52, 79
16, 215273, Note_on_c, 13, 55, 0
16, 215273, Note_on_c, 13, 52, 0
16, 215280, Note_on_c, 13, 52, 80
16, 215280, Note_on_c, 13, 55, 80
16, 215313, Note_on_c, 13, 52, 0
16, 215313, Note_on_c, 13, 55, 0
16, 215320, Note_on_c, 13, 52, 80
16, 215320, Note_on_c, 13, 55, 80
16, 215353, Note_on_c, 13, 52, 0
16, 215353, Note_on_c, 13, 55, 0
16, 215360, Note_on_c, 13, 55, 80
16, 215360, Note_on_c, 13, 52, 80
16, 215393, Note_on_c, 13, 55, 0
16, 215393, Note_on_c, 13, 52, 0
16, 215400, Note_on_c, 13, 55, 80
16, 215400, Note_on_c, 13, 52, 80
16, 215433, Note_on_c, 13, 55, 0
16, 215433, Note_on_c, 13, 52, 0
16, 215440, Note_on_c, 13, 52, 81
16, 215440, Note_on_c, 13, 55, 81
16, 215473, Note_on_c, 13, 52, 0
16, 215473, Note_on_c, 13, 55, 0
16, 215480, Note_on_c, 13, 55, 81
16, 215480, Note_on_c, 13, 52, 81
16, 215513, Note_on_c, 13, 55, 0
16, 215513, Note_on_c, 13, 52, 0
16, 215520, Note_on_c, 13, 55, 81
16, 215520, Note_on_c, 13, 52, 81
16, 215553, Note_on_c, 13, 55, 0
16, 215553, Note_on_c, 13, 52, 0
16, 215560, Note_on_c, 13, 52, 82
16, 215560, Note_on_c, 13, 55, 82
16, 215593, Note_on_c, 13, 52, 0
16, 215593, Note_on_c, 13, 55, 0
16, 215600, Note_on_c, 13, 55, 82
16, 215600, Note_on_c, 13, 52, 82
16, 215633, Note_on_c, 13, 55, 0
16, 215633, Note_on_c, 13, 52, 0
16, 215640, Note_on_c, 13, 52, 82
16, 215640, Note_on_c, 13, 55, 82
16, 215673, Note_on_c, 13, 52, 0
16, 215673, Note_on_c, 13, 55, 0
16, 215680, Note_on_c, 13, 55, 82
16, 215680, Note_on_c, 13, 52, 82
16, 215713, Note_on_c, 13, 55, 0
16, 215713, Note_on_c, 13, 52, 0
16, 215720, Note_on_c, 13, 52, 83
16, 215720, Note_on_c, 13, 55, 83
16, 215753, Note_on_c, 13, 52, 0
16, 215753, Note_on_c, 13, 55, 0
16, 215760, Note_on_c, 13, 55, 83
16, 215760, Note_on_c, 13, 52, 83
16, 215793, Note_on_c, 13, 55, 0
16, 215793, Note_on_c, 13, 52, 0
16, 215800, Note_on_c, 13, 55, 83
16, 215800, Note_on_c, 13, 52, 83
16, 215833, Note_on_c, 13, 55, 0
16, 215833, Note_on_c, 13, 52, 0
16, 215840, Note_on_c, 13, 52, 84
16, 215840, Note_on_c, 13, 55, 84
16, 215873, Note_on_c, 13, 52, 0
16, 215873, Note_on_c, 13, 55, 0
16, 215880, Note_on_c, 13, 52, 84
16, 215880, Note_on_c, 13, 55, 84
16, 215913, Note_on_c, 13, 52, 0
16, 215913, Note_on_c, 13, 55, 0
16, 215920, Note_on_c, 13, 55, 84
16, 215920, Note_on_c, 13, 52, 84
16, 215953, Note_on_c, 13, 55, 0
16, 215953, Note_on_c, 13, 52, 0
16, 215960, Note_on_c, 13, 52, 84
16, 215960, Note_on_c, 13, 55, 84
16, 215993, Note_on_c, 13, 52, 0
16, 215993, Note_on_c, 13, 55, 0
16, 216000, Note_on_c, 13, 55, 85
16, 216000, Note_on_c, 13, 52, 85
16, 216033, Note_on_c, 13, 55, 0
16, 216033, Note_on_c, 13, 52, 0
16, 216040, Note_on_c, 13, 55, 85
16, 216040, Note_on_c, 13, 52, 85
16, 216073, Note_on_c, 13, 55, 0
16, 216073, Note_on_c, 13, 52, 0
16, 216080, Note_on_c, 13, 52, 85
16, 216080, Note_on_c, 13, 55, 85
16, 216113, Note_on_c, 13, 52, 0
16, 216113, Note_on_c, 13, 55, 0
16, 216120, Note_on_c, 13, 64, 86
16, 216120, Note_on_c, 13, 61, 86
16, 216153, Note_on_c, 13, 64, 0
16, 216153, Note_on_c, 13, 61, 0
16, 216160, Note_on_c, 13, 61, 86
16, 216160, Note_on_c, 13, 64, 86
16, 216193, Note_on_c, 13, 61, 0
16, 216193, Note_on_c, 13, 64, 0
16, 216200, Note_on_c, 13, 64, 86
16, 216200, Note_on_c, 13, 61, 86
16, 216233, Note_on_c, 13, 64, 0
16, 216233, Note_on_c, 13, 61, 0
16, 216240, Note_on_c, 13, 64, 86
16, 216240, Note_on_c, 13, 61, 86
16, 216273, Note_on_c, 13, 64, 0
16, 216273, Note_on_c, 13, 61, 0
16, 216280, Note_on_c, 13, 61, 87
16, 216280, Note_on_c, 13, 64, 87
16, 216313, Note_on_c, 13, 61, 0
16, 216313, Note_on_c, 13, 64, 0
16, 216320, Note_on_c, 13, 61, 87
16, 216320, Note_on_c, 13, 64, 87
16, 216353, Note_on_c, 13, 61, 0
16, 216353, Note_on_c, 13, 64, 0
16, 216360, Note_on_c, 13, 64, 87
16, 216360, Note_on_c, 13, 61, 87
16, 216393, Note_on_c, 13, 64, 0
16, 216393, Note_on_c, 13, 61, 0
16, 216400, Note_on_c, 13, 61, 88
16, 216400, Note_on_c, 13, 64, 88
16, 216433, Note_on_c, 13, 61, 0
16, 216433, Note_on_c, 13, 64, 0
16, 216440, Note_on_c, 13, 61, 88
16, 216440, Note_on_c, 13, 64, 88
16, 216473, Note_on_c, 13, 61, 0
16, 216473, Note_on_c, 13, 64, 0
16, 216480, Note_on_c, 13, 61, 88
16, 216480, Note_on_c, 13, 64, 88
16, 216505, Note_on_c, 13, 61, 0
16, 216505, Note_on_c, 13, 64, 0
16, 216510, Note_on_c, 13, 70, 88
16, 216510, Note_on_c, 13, 67, 88
16, 216535, Note_on_c, 13, 70, 0
16, 216535, Note_on_c, 13, 67, 0
16, 216540, Note_on_c, 13, 67, 89
16, 216540, Note_on_c, 13, 70, 89
16, 216565, Note_on_c, 13, 67, 0
16, 216565, Note_on_c, 13, 70, 0
16, 216570, Note_on_c, 13, 70, 89
16, 216570, Note_on_c, 13, 67, 89
16, 216595, Note_on_c, 13, 70, 0
16, 216595, Note_on_c, 13, 67, 0
16, 216600, Note_on_c, 13, 70, 89
16, 216600, Note_on_c, 13, 67, 89
16, 216625, Note_on_c, 13, 70, 0
16, 216625, Note_on_c, 13, 67, 0
16, 216630, Note_on_c, 13, 67, 89
16, 216630, Note_on_c, 13, 70, 89
16, 216655, Note_on_c, 13, 67, 0
16, 216655, Note_on_c, 13, 70, 0
16, 216660, Note_on_c, 13, 67, 89
16, 216660, Note_on_c, 13, 70, 89
16, 216685, Note_on_c, 13, 67, 0
16, 216685, Note_on_c, 13, 70, 0
16, 216690, Note_on_c, 13, 67, 90
16, 216690, Note_on_c, 13, 70, 90
16, 216715, Note_on_c, 13, 67, 0
16, 216715, Note_on_c, 13, 70, 0
16, 216720, Note_on_c, 13, 67, 90
16, 216720, Note_on_c, 13, 70, 90
16, 216745, Note_on_c, 13, 67, 0
16, 216745, Note_on_c, 13, 70, 0
16, 216750, Note_on_c, 13, 70, 90
16, 216750, Note_on_c, 13, 67, 90
16, 216775, Note_on_c, 13, 70, 0
16, 216775, Note_on_c, 13, 67, 0
16, 216780, Note_on_c, 13, 70, 90
16, 216780, Note_on_c, 13, 67, 90
16, 216805, Note_on_c, 13, 70, 0
16, 216805, Note_on_c, 13, 67, 0
16, 216810, Note_on_c, 13, 70, 90
16, 216810, Note_on_c, 13, 67, 90
16, 216835, Note_on_c, 13, 70, 0
16, 216835, Note_on_c, 13, 67, 0
16, 216840, Note_on_c, 13, 70, 91
16, 216840, Note_on_c, 13, 67, 91
16, 216865, Note_on_c, 13, 70, 0
16, 216865, Note_on_c, 13, 67, 0
16, 216870, Note_on_c, 13, 67, 91
16, 216870, Note_on_c, 13, 70, 91
16, 216895, Note_on_c, 13, 67, 0
16, 216895, Note_on_c, 13, 70, 0
16, 216900, Note_on_c, 13, 67, 91
16, 216900, Note_on_c, 13, 70, 91
16, 216925, Note_on_c, 13, 67, 0
16, 216925, Note_on_c, 13, 70, 0
16, 216930, Note_on_c, 13, 67, 91
16, 216930, Note_on_c, 13, 70, 91
16, 216955, Note_on_c, 13, 67, 0
16, 216955, Note_on_c, 13, 70, 0
16, 216960, Note_on_c, 13, 57, 92
16, 217064, Note_on_c, 13, 57, 0
16, 217080, Note_on_c, 13, 59, 92
16, 217319, Note_on_c, 13, 59, 0
16, 217320, Note_on_c, 13, 61, 92
16, 217379, Note_on_c, 13, 61, 0
16, 217380, Note_on_c, 13, 62, 92
16, 217439, Note_on_c, 13, 62, 0
16, 217440, Note_on_c, 13, 64, 92
16, 217491, Note_on_c, 13, 64, 0
16, 217500, Note_on_c, 13, 65, 92
16, 217559, Note_on_c, 13, 65, 0
16, 217560, Note_on_c, 13, 67, 92
16, 217611, Note_on_c, 13, 67, 0
16, 217620, Note_on_c, 13, 69, 92
16, 217731, Note_on_c, 13, 69, 0
16, 217740, Note_on_c, 13, 67, 92
16, 217799, Note_on_c, 13, 67, 0
16, 217800, Note_on_c, 13, 65, 92
16, 217851, Note_on_c, 13, 65, 0
16, 217860, Note_on_c, 13, 64, 92
16, 217919, Note_on_c, 13, 64, 0
16, 217920, Note_on_c, 13, 74, 92
16, 217971, Note_on_c, 13, 74, 0
16, 217980, Note_on_c, 13, 72, 92
16, 218039, Note_on_c, 13, 72, 0
16, 218040, Note_on_c, 13, 70, 92
16, 218091, Note_on_c, 13, 70, 0
16, 218100, Note_on_c, 13, 69, 92
16, 218159, Note_on_c, 13, 69, 0
16, 218160, Note_on_c, 13, 67, 92
16, 218211, Note_on_c, 13, 67, 0
16, 218220, Note_on_c, 13, 65, 92
16, 218279, Note_on_c, 13, 65, 0
16, 218280, Note_on_c, 13, 64, 92
16, 218331, Note_on_c, 13, 64, 0
16, 218340, Note_on_c, 13, 62, 92
16, 218391, Note_on_c, 13, 62, 0
16, 218400, Note_on_c, 13, 55, 92
16, 218504, Note_on_c, 13, 55, 0
16, 218520, Note_on_c, 13, 70, 92
16, 218639, Note_on_c, 13, 70, 0
16, 218760, Note_on_c, 13, 67, 92
16, 218864, Note_on_c, 13, 67, 0
16, 218878, Control_c, 13, 11, 67
16, 218880, Note_on_c, 13, 69, 80
16, 218880, Control_c, 13, 11, 67
16, 218928, Control_c, 13, 11, 68
16, 218976, Control_c, 13, 11, 69
16, 219024, Control_c, 13, 11, 70
16, 219072, Control_c, 13, 11, 71
16, 219120, Control_c, 13, 11, 72
16, 219168, Control_c, 13, 11, 73
16, 219216, Control_c, 13, 11, 74
16, 219239, Note_on_c, 13, 69, 0
16, 219240, Note_on_c, 13, 68, 80
16, 219264, Control_c, 13, 11, 75
16, 219312, Control_c, 13, 11, 76
16, 219359, Note_on_c, 13, 68, 0
16, 219360, Note_on_c, 13, 67, 80
16, 219360, Control_c, 13, 11, 77
16, 219408, Control_c, 13, 11, 78
16, 219411, Note_on_c, 13, 67, 0
16, 219420, Note_on_c, 13, 65, 80
16, 219456, Control_c, 13, 11, 79
16, 219479, Note_on_c, 13, 65, 0
16, 219480, Note_on_c, 13, 64, 80
16, 219504, Control_c, 13, 11, 80
16, 219531, Note_on_c, 13, 64, 0
16, 219540, Note_on_c, 13, 62, 80
16, 219552, Control_c, 13, 11, 81
16, 219599, Note_on_c, 13, 62, 0
16, 219600, Control_c, 13, 11, 82
16, 219600, Note_on_c, 13, 61, 80
16, 219648, Control_c, 13, 11, 83
16, 219651, Note_on_c, 13, 61, 0
16, 219660, Note_on_c, 13, 58, 80
16, 219696, Control_c, 13, 11, 84
16, 219719, Note_on_c, 13, 58, 0
16, 219720, Note_on_c, 13, 57, 80
16, 219744, Control_c, 13, 11, 85
16, 219771, Note_on_c, 13, 57, 0
16, 219780, Note_on_c, 13, 55, 80
16, 219792, Control_c, 13, 11, 86
16, 219839, Note_on_c, 13, 55, 0
16, 219840, Control_c, 13, 11, 87
16, 219840, Note_on_c, 13, 53, 80
16, 219888, Control_c, 13, 11, 88
16, 219936, Control_c, 13, 11, 89
16, 219944, Note_on_c, 13, 53, 0
16, 219960, Note_on_c, 13, 53, 80
16, 219984, Control_c, 13, 11, 90
16, 220032, Control_c, 13, 11, 91
16, 220080, Control_c, 13, 11, 92
16, 220128, Control_c, 13, 11, 93
16, 220131, Note_on_c, 13, 53, 0
16, 220140, Note_on_c, 13, 55, 80
16, 220176, Control_c, 13, 11, 94
16, 220199, Note_on_c, 13, 55, 0
16, 220200, Note_on_c, 13, 53, 80
16, 220200, Note_on_c, 13, 57, 80
16, 220224, Control_c, 13, 11, 95
16, 220251, Note_on_c, 13, 53, 0
16, 220251, Note_on_c, 13, 57, 0
16, 220260, Note_on_c, 13, 55, 80
16, 220260, Note_on_c, 13, 58, 80
16, 220272, Control_c, 13, 11, 96
16, 220319, Note_on_c, 13, 55, 0
16, 220319, Note_on_c, 13, 58, 0
16, 220320, Note_on_c, 13, 60, 80
16, 220320, Control_c, 13, 11, 97
16, 220320, Note_on_c, 13, 57, 80
16, 220368, Control_c, 13, 11, 98
16, 220371, Note_on_c, 13, 60, 0
16, 220371, Note_on_c, 13, 57, 0
16, 220380, Note_on_c, 13, 58, 80
16, 220380, Note_on_c, 13, 62, 80
16, 220416, Control_c, 13, 11, 99
16, 220439, Note_on_c, 13, 58, 0
16, 220439, Note_on_c, 13, 62, 0
16, 220440, Note_on_c, 13, 63, 80
16, 220440, Note_on_c, 13, 60, 80
16, 220464, Control_c, 13, 11, 100
16, 220491, Note_on_c, 13, 63, 0
16, 220491, Note_on_c, 13, 60, 0
16, 220500, Note_on_c, 13, 62, 80
16, 220500, Note_on_c, 13, 65, 80
16, 220512, Control_c, 13, 11, 101
16, 220559, Note_on_c, 13, 62, 0
16, 220559, Note_on_c, 13, 65, 0
16, 220560, Note_on_c, 13, 63, 80
16, 220560, Note_on_c, 13, 67, 80
16, 220560, Control_c, 13, 11, 102
16, 220608, Control_c, 13, 11, 103
16, 220611, Note_on_c, 13, 63, 0
16, 220611, Note_on_c, 13, 67, 0
16, 220620, Note_on_c, 13, 69, 80
16, 220620, Note_on_c, 13, 65, 80
16, 220656, Control_c, 13, 11, 104
16, 220679, Note_on_c, 13, 69, 0
16, 220679, Note_on_c, 13, 65, 0
16, 220680, Note_on_c, 13, 67, 80
16, 220680, Note_on_c, 13, 70, 80
16, 220704, Control_c, 13, 11, 105
16, 220731, Note_on_c, 13, 67, 0
16, 220731, Note_on_c, 13, 70, 0
16, 220740, Note_on_c, 13, 72, 80
16, 220740, Note_on_c, 13, 69, 80
16, 220752, Control_c, 13, 11, 106
16, 220791, Note_on_c, 13, 72, 0
16, 220791, Note_on_c, 13, 69, 0
16, 220800, Note_on_c, 13, 62, 80
16, 220800, Control_c, 13, 11, 107
16, 220848, Control_c, 13, 11, 108
16, 220896, Control_c, 13, 11, 109
16, 220944, Control_c, 13, 11, 110
16, 220992, Control_c, 13, 11, 111
16, 221040, Control_c, 13, 11, 112
16, 221088, Control_c, 13, 11, 113
16, 221136, Control_c, 13, 11, 114
16, 221159, Note_on_c, 13, 62, 0
16, 221160, Note_on_c, 13, 61, 80
16, 221184, Control_c, 13, 11, 115
16, 221232, Control_c, 13, 11, 116
16, 221279, Note_on_c, 13, 61, 0
16, 221280, Note_on_c, 13, 60, 80
16, 221280, Control_c, 13, 11, 117
16, 221328, Control_c, 13, 11, 118
16, 221331, Note_on_c, 13, 60, 0
16, 221340, Note_on_c, 13, 58, 80
16, 221376, Control_c, 13, 11, 119
16, 221399, Note_on_c, 13, 58, 0
16, 221400, Note_on_c, 13, 57, 80
16, 221424, Control_c, 13, 11, 120
16, 221451, Note_on_c, 13, 57, 0
16, 221460, Note_on_c, 13, 55, 80
16, 221472, Control_c, 13, 11, 121
16, 221519, Note_on_c, 13, 55, 0
16, 221520, Control_c, 13, 11, 122
16, 221520, Note_on_c, 13, 54, 80
16, 221568, Control_c, 13, 11, 123
16, 221571, Note_on_c, 13, 54, 0
16, 221580, Note_on_c, 13, 51, 80
16, 221616, Control_c, 13, 11, 124
16, 221639, Note_on_c, 13, 51, 0
16, 221640, Note_on_c, 13, 50, 80
16, 221664, Control_c, 13, 11, 125
16, 221691, Note_on_c, 13, 50, 0
16, 221700, Note_on_c, 13, 48, 80
16, 221712, Control_c, 13, 11, 127
16, 221751, Note_on_c, 13, 48, 0
16, 221760, Note_on_c, 13, 58, 80
16, 221864, Note_on_c, 13, 58, 0
16, 221880, Note_on_c, 13, 58, 80
16, 222104, Note_on_c, 13, 58, 0
16, 222120, Note_on_c, 13, 57, 80
16, 222201, Note_on_c, 13, 57, 0
16, 222210, Note_on_c, 13, 57, 80
16, 222231, Note_on_c, 13, 57, 0
16, 222240, Note_on_c, 13, 57, 80
16, 222344, Note_on_c, 13, 57, 0
16, 222360, Note_on_c, 13, 58, 80
16, 222584, Note_on_c, 13, 58, 0
16, 222600, Note_on_c, 13, 58, 80
16, 222681, Note_on_c, 13, 58, 0
16, 222690, Note_on_c, 13, 58, 80
16, 222711, Note_on_c, 13, 58, 0
16, 222720, Note_on_c, 13, 58, 80
16, 222824, Note_on_c, 13, 58, 0
16, 222840, Note_on_c, 13, 57, 80
16, 223064, Note_on_c, 13, 57, 0
16, 223080, Note_on_c, 13, 56, 80
16, 223161, Note_on_c, 13, 56, 0
16, 223170, Note_on_c, 13, 56, 80
16, 223191, Note_on_c, 13, 56, 0
16, 223200, Note_on_c, 13, 56, 80
16, 223304, Note_on_c, 13, 56, 0
16, 223320, Note_on_c, 13, 57, 80
16, 223544, Note_on_c, 13, 57, 0
16, 223560, Note_on_c, 13, 57, 80
16, 223641, Note_on_c, 13, 57, 0
16, 223650, Note_on_c, 13, 57, 80
16, 223671, Note_on_c, 13, 57, 0
16, 223680, Note_on_c, 13, 57, 80
16, 223784, Note_on_c, 13, 57, 0
16, 223800, Note_on_c, 13, 58, 80
16, 223881, Note_on_c, 13, 58, 0
16, 223890, Note_on_c, 13, 58, 80
16, 223911, Note_on_c, 13, 58, 0
16, 223920, Note_on_c, 13, 58, 80
16, 224024, Note_on_c, 13, 58, 0
16, 224040, Note_on_c, 13, 59, 80
16, 224121, Note_on_c, 13, 59, 0
16, 224130, Note_on_c, 13, 59, 80
16, 224151, Note_on_c, 13, 59, 0
16, 224160, Note_on_c, 13, 59, 80
16, 224264, Note_on_c, 13, 59, 0
16, 224280, Note_on_c, 13, 60, 80
16, 224280, Note_on_c, 13, 48, 80
16, 224361, Note_on_c, 13, 60, 0
16, 224361, Note_on_c, 13, 48, 0
16, 224370, Note_on_c, 13, 48, 80
16, 224370, Note_on_c, 13, 60, 80
16, 224391, Note_on_c, 13, 48, 0
16, 224391, Note_on_c, 13, 60, 0
16, 224400, Note_on_c, 13, 61, 80
16, 224504, Note_on_c, 13, 61, 0
16, 224520, Note_on_c, 13, 57, 80
16, 224601, Note_on_c, 13, 57, 0
16, 224610, Note_on_c, 13, 57, 80
16, 224631, Note_on_c, 13, 57, 0
16, 224640, Note_on_c, 13, 57, 44
16, 225119, Note_on_c, 13, 57, 0
16, 225120, Note_on_c, 13, 57, 44
16, 225599, Note_on_c, 13, 57, 0
16, 225600, Note_on_c, 13, 57, 44
16, 226079, Note_on_c, 13, 57, 0
16, 226080, Note_on_c, 13, 57, 44
16, 226559, Note_on_c, 13, 57, 0
16, 226560, Note_on_c, 13, 57, 44
16, 227039, Note_on_c, 13, 57, 0
16, 227040, Note_on_c, 13, 57, 44
16, 227519, Note_on_c, 13, 57, 0
16, 227520, Note_on_c, 13, 57, 44
16, 227999, Note_on_c, 13, 57, 0
16, 228000, Note_on_c, 13, 57, 44
16, 228464, Note_on_c, 13, 57, 0
16, 228480, Note_on_c, 13, 50, 44
16, 228771, Note_on_c, 13, 50, 0
16, 228780, Note_on_c, 13, 53, 44
16, 228824, Note_on_c, 13, 53, 0
16, 228840, Note_on_c, 13, 52, 44
16, 228884, Note_on_c, 13, 52, 0
16, 228900, Note_on_c, 13, 50, 44
16, 228944, Note_on_c, 13, 50, 0
16, 228960, Note_on_c, 13, 57, 44
16, 229049, Note_on_c, 13, 57, 0
16, 229080, Note_on_c, 13, 55, 44
16, 229169, Note_on_c, 13, 55, 0
16, 229200, Note_on_c, 13, 52, 44
16, 229289, Note_on_c, 13, 52, 0
16, 229320, Note_on_c, 13, 57, 44
16, 229439, Note_on_c, 13, 57, 0
16, 229440, Note_on_c, 13, 57, 44
16, 229559, Note_on_c, 13, 57, 0
16, 229560, Note_on_c, 13, 53, 44
16, 229649, Note_on_c, 13, 53, 0
16, 229680, Note_on_c, 13, 50, 44
16, 229769, Note_on_c, 13, 50, 0
16, 229800, Note_on_c, 13, 57, 44
16, 229919, Note_on_c, 13, 57, 0
16, 229920, Note_on_c, 13, 57, 44
16, 230024, Note_on_c, 13, 57, 0
16, 230040, Note_on_c, 13, 52, 44
16, 230129, Note_on_c, 13, 52, 0
16, 230160, Note_on_c, 13, 49, 44
16, 230249, Note_on_c, 13, 49, 0
16, 230280, Note_on_c, 13, 57, 44
16, 230399, Note_on_c, 13, 57, 0
16, 230400, Note_on_c, 13, 57, 44
16, 230504, Note_on_c, 13, 57, 0
16, 230520, Note_on_c, 13, 53, 45
16, 230609, Note_on_c, 13, 53, 0
16, 230640, Note_on_c, 13, 50, 46
16, 230729, Note_on_c, 13, 50, 0
16, 230760, Note_on_c, 13, 57, 47
16, 230879, Note_on_c, 13, 57, 0
16, 230880, Note_on_c, 13, 57, 48
16, 230984, Note_on_c, 13, 57, 0
16, 231000, Note_on_c, 13, 55, 49
16, 231089, Note_on_c, 13, 55, 0
16, 231120, Note_on_c, 13, 52, 50
16, 231209, Note_on_c, 13, 52, 0
16, 231240, Note_on_c, 13, 57, 52
16, 231359, Note_on_c, 13, 57, 0
16, 231360, Note_on_c, 13, 57, 53
16, 231464, Note_on_c, 13, 57, 0
16, 231480, Note_on_c, 13, 53, 54
16, 231569, Note_on_c, 13, 53, 0
16, 231600, Note_on_c, 13, 50, 55
16, 231689, Note_on_c, 13, 50, 0
16, 231720, Note_on_c, 13, 57, 56
16, 231839, Note_on_c, 13, 57, 0
16, 231840, Note_on_c, 13, 57, 57
16, 231944, Note_on_c, 13, 57, 0
16, 231960, Note_on_c, 13, 53, 59
16, 232049, Note_on_c, 13, 53, 0
16, 232080, Note_on_c, 13, 50, 60
16, 232169, Note_on_c, 13, 50, 0
16, 232200, Note_on_c, 13, 58, 61
16, 232319, Note_on_c, 13, 58, 0
16, 232320, Note_on_c, 13, 58, 62
16, 232424, Note_on_c, 13, 58, 0
16, 232440, Note_on_c, 13, 55, 63
16, 232529, Note_on_c, 13, 55, 0
16, 232560, Note_on_c, 13, 52, 64
16, 232649, Note_on_c, 13, 52, 0
16, 232680, Note_on_c, 13, 61, 66
16, 232799, Note_on_c, 13, 61, 0
16, 232800, Note_on_c, 13, 61, 67
16, 232904, Note_on_c, 13, 61, 0
16, 232920, Note_on_c, 13, 57, 68
16, 233009, Note_on_c, 13, 57, 0
16, 233040, Note_on_c, 13, 53, 69
16, 233129, Note_on_c, 13, 53, 0
16, 233160, Note_on_c, 13, 62, 70
16, 233279, Note_on_c, 13, 62, 0
16, 233280, Note_on_c, 13, 62, 71
16, 233384, Note_on_c, 13, 62, 0
16, 233400, Note_on_c, 13, 58, 73
16, 233489, Note_on_c, 13, 58, 0
16, 233520, Note_on_c, 13, 55, 74
16, 233609, Note_on_c, 13, 55, 0
16, 233640, Note_on_c, 13, 63, 75
16, 233759, Note_on_c, 13, 63, 0
16, 233760, Note_on_c, 13, 63, 76
16, 233864, Note_on_c, 13, 63, 0
16, 233880, Note_on_c, 13, 60, 77
16, 233969, Note_on_c, 13, 60, 0
16, 234000, Note_on_c, 13, 57, 78
16, 234089, Note_on_c, 13, 57, 0
16, 234120, Note_on_c, 13, 66, 80
16, 234239, Note_on_c, 13, 66, 0
16, 234240, Note_on_c, 13, 66, 80
16, 234344, Note_on_c, 13, 66, 0
16, 234360, Note_on_c, 13, 62, 80
16, 234449, Note_on_c, 13, 62, 0
16, 234480, Note_on_c, 13, 58, 80
16, 234569, Note_on_c, 13, 58, 0
16, 234600, Note_on_c, 13, 68, 92
16, 234719, Note_on_c, 13, 68, 0
16, 234720, Note_on_c, 13, 68, 92
16, 234824, Note_on_c, 13, 68, 0
16, 234840, Note_on_c, 13, 62, 92
16, 234929, Note_on_c, 13, 62, 0
16, 234960, Note_on_c, 13, 58, 92
16, 235049, Note_on_c, 13, 58, 0
16, 235080, Note_on_c, 13, 56, 92
16, 235199, Note_on_c, 13, 56, 0
16, 235200, Note_on_c, 13, 56, 83
16, 235304, Note_on_c, 13, 56, 0
16, 235320, Note_on_c, 13, 62, 73
16, 235409, Note_on_c, 13, 62, 0
16, 235440, Note_on_c, 13, 58, 64
16, 235529, Note_on_c, 13, 58, 0
16, 235560, Note_on_c, 13, 55, 54
16, 235679, Note_on_c, 13, 55, 0
16, 235680, Note_on_c, 13, 55, 44
16, 235784, Note_on_c, 13, 55, 0
16, 235800, Note_on_c, 13, 51, 38
16, 235889, Note_on_c, 13, 51, 0
16, 235920, Note_on_c, 13, 58, 38
16, 236009, Note_on_c, 13, 58, 0
16, 236040, Note_on_c, 13, 55, 38
16, 236159, Note_on_c, 13, 55, 0
16, 236160, Note_on_c, 13, 55, 32
16, 236264, Note_on_c, 13, 55, 0
16, 236280, Note_on_c, 13, 50, 32
16, 236369, Note_on_c, 13, 50, 0
16, 236400, Note_on_c, 13, 58, 32
16, 236489, Note_on_c, 13, 58, 0
16, 236520, Note_on_c, 13, 55, 32
16, 236639, Note_on_c, 13, 55, 0
16, 236640, Note_on_c, 13, 55, 32
16, 236744, Note_on_c, 13, 55, 0
16, 236760, Note_on_c, 13, 50, 32
16, 236849, Note_on_c, 13, 50, 0
16, 236880, Note_on_c, 13, 57, 32
16, 236969, Note_on_c, 13, 57, 0
16, 237000, Note_on_c, 13, 57, 32
16, 237025, Note_on_c, 13, 57, 0
16, 237030, Note_on_c, 13, 57, 33
16, 237055, Note_on_c, 13, 57, 0
16, 237060, Note_on_c, 13, 57, 34
16, 237085, Note_on_c, 13, 57, 0
16, 237090, Note_on_c, 13, 57, 36
16, 237115, Note_on_c, 13, 57, 0
16, 237120, Note_on_c, 13, 69, 37
16, 237120, Note_on_c, 13, 57, 37
16, 237145, Note_on_c, 13, 69, 0
16, 237145, Note_on_c, 13, 57, 0
16, 237150, Note_on_c, 13, 57, 38
16, 237150, Note_on_c, 13, 69, 38
16, 237175, Note_on_c, 13, 57, 0
16, 237175, Note_on_c, 13, 69, 0
16, 237180, Note_on_c, 13, 57, 40
16, 237180, Note_on_c, 13, 69, 40
16, 237205, Note_on_c, 13, 57, 0
16, 237205, Note_on_c, 13, 69, 0
16, 237210, Note_on_c, 13, 57, 41
16, 237210, Note_on_c, 13, 69, 41
16, 237235, Note_on_c, 13, 57, 0
16, 237235, Note_on_c, 13, 69, 0
16, 237240, Note_on_c, 13, 57, 42
16, 237240, Note_on_c, 13, 69, 42
16, 237265, Note_on_c, 13, 57, 0
16, 237265, Note_on_c, 13, 69, 0
16, 237270, Note_on_c, 13, 69, 44
16, 237270, Note_on_c, 13, 57, 44
16, 237295, Note_on_c, 13, 69, 0
16, 237295, Note_on_c, 13, 57, 0
16, 237300, Note_on_c, 13, 57, 45
16, 237300, Note_on_c, 13, 69, 45
16, 237325, Note_on_c, 13, 57, 0
16, 237325, Note_on_c, 13, 69, 0
16, 237330, Note_on_c, 13, 57, 46
16, 237330, Note_on_c, 13, 69, 46
16, 237355, Note_on_c, 13, 57, 0
16, 237355, Note_on_c, 13, 69, 0
16, 237360, Note_on_c, 13, 57, 48
16, 237360, Note_on_c, 13, 69, 48
16, 237385, Note_on_c, 13, 57, 0
16, 237385, Note_on_c, 13, 69, 0
16, 237390, Note_on_c, 13, 57, 49
16, 237390, Note_on_c, 13, 69, 49
16, 237415, Note_on_c, 13, 57, 0
16, 237415, Note_on_c, 13, 69, 0
16, 237420, Note_on_c, 13, 57, 50
16, 237420, Note_on_c, 13, 69, 50
16, 237445, Note_on_c, 13, 57, 0
16, 237445, Note_on_c, 13, 69, 0
16, 237450, Note_on_c, 13, 69, 52
16, 237450, Note_on_c, 13, 57, 52
16, 237475, Note_on_c, 13, 69, 0
16, 237475, Note_on_c, 13, 57, 0
16, 237480, Note_on_c, 13, 57, 53
16, 237480, Note_on_c, 13, 69, 53
16, 237505, Note_on_c, 13, 57, 0
16, 237505, Note_on_c, 13, 69, 0
16, 237510, Note_on_c, 13, 69, 54
16, 237510, Note_on_c, 13, 57, 54
16, 237535, Note_on_c, 13, 69, 0
16, 237535, Note_on_c, 13, 57, 0
16, 237540, Note_on_c, 13, 57, 56
16, 237540, Note_on_c, 13, 69, 56
16, 237565, Note_on_c, 13, 57, 0
16, 237565, Note_on_c, 13, 69, 0
16, 237570, Note_on_c, 13, 69, 57
16, 237570, Note_on_c, 13, 57, 57
16, 237595, Note_on_c, 13, 69, 0
16, 237595, Note_on_c, 13, 57, 0
16, 237600, Note_on_c, 13, 67, 58
16, 237625, Note_on_c, 13, 67, 0
16, 237630, Note_on_c, 13, 67, 60
16, 237655, Note_on_c, 13, 67, 0
16, 237660, Note_on_c, 13, 65, 61
16, 237685, Note_on_c, 13, 65, 0
16, 237690, Note_on_c, 13, 65, 62
16, 237715, Note_on_c, 13, 65, 0
16, 237720, Note_on_c, 13, 64, 64
16, 237745, Note_on_c, 13, 64, 0
16, 237750, Note_on_c, 13, 64, 65
16, 237775, Note_on_c, 13, 64, 0
16, 237780, Note_on_c, 13, 62, 66
16, 237805, Note_on_c, 13, 62, 0
16, 237810, Note_on_c, 13, 62, 68
16, 237835, Note_on_c, 13, 62, 0
16, 237840, Note_on_c, 13, 61, 69
16, 237865, Note_on_c, 13, 61, 0
16, 237870, Note_on_c, 13, 61, 70
16, 237895, Note_on_c, 13, 61, 0
16, 237900, Note_on_c, 13, 58, 72
16, 237925, Note_on_c, 13, 58, 0
16, 237930, Note_on_c, 13, 58, 73
16, 237955, Note_on_c, 13, 58, 0
16, 237960, Note_on_c, 13, 57, 74
16, 237985, Note_on_c, 13, 57, 0
16, 237990, Note_on_c, 13, 57, 76
16, 238015, Note_on_c, 13, 57, 0
16, 238020, Note_on_c, 13, 55, 77
16, 238045, Note_on_c, 13, 55, 0
16, 238050, Note_on_c, 13, 55, 78
16, 238075, Note_on_c, 13, 55, 0
16, 238080, Note_on_c, 13, 53, 80
16, 238199, Note_on_c, 13, 53, 0
16, 238680, Note_on_c, 13, 58, 44
16, 238799, Note_on_c, 13, 58, 0
16, 238920, Note_on_c, 13, 57, 44
16, 238920, Note_on_c, 13, 69, 44
16, 239024, Note_on_c, 13, 57, 0
16, 239024, Note_on_c, 13, 69, 0
16, 239040, Note_on_c, 13, 69, 44
16, 239384, Note_on_c, 13, 69, 0
16, 239400, Note_on_c, 13, 68, 50
16, 239519, Note_on_c, 13, 68, 0
16, 239520, Note_on_c, 13, 67, 53
16, 239571, Note_on_c, 13, 67, 0
16, 239580, Note_on_c, 13, 65, 54
16, 239639, Note_on_c, 13, 65, 0
16, 239640, Note_on_c, 13, 64, 55
16, 239691, Note_on_c, 13, 64, 0
16, 239700, Note_on_c, 13, 62, 56
16, 239759, Note_on_c, 13, 62, 0
16, 239760, Note_on_c, 13, 61, 57
16, 239811, Note_on_c, 13, 61, 0
16, 239820, Note_on_c, 13, 58, 58
16, 239879, Note_on_c, 13, 58, 0
16, 239880, Note_on_c, 13, 57, 59
16, 239931, Note_on_c, 13, 57, 0
16, 239940, Note_on_c, 13, 55, 60
16, 239999, Note_on_c, 13, 55, 0
16, 240000, Note_on_c, 13, 53, 62
16, 240051, Note_on_c, 13, 53, 0
16, 240060, Note_on_c, 13, 52, 63
16, 240119, Note_on_c, 13, 52, 0
16, 240120, Note_on_c, 13, 50, 64
16, 240171, Note_on_c, 13, 50, 0
16, 240180, Note_on_c, 13, 48, 65
16, 240239, Note_on_c, 13, 48, 0
16, 240240, Note_on_c, 13, 59, 66
16, 240291, Note_on_c, 13, 59, 0
16, 240300, Note_on_c, 13, 59, 67
16, 240359, Note_on_c, 13, 59, 0
16, 240360, Note_on_c, 13, 61, 68
16, 240411, Note_on_c, 13, 61, 0
16, 240420, Note_on_c, 13, 62, 69
16, 240479, Note_on_c, 13, 62, 0
16, 240480, Note_on_c, 13, 64, 71
16, 240531, Note_on_c, 13, 64, 0
16, 240540, Note_on_c, 13, 62, 72
16, 240599, Note_on_c, 13, 62, 0
16, 240600, Note_on_c, 13, 61, 73
16, 240651, Note_on_c, 13, 61, 0
16, 240660, Note_on_c, 13, 58, 74
16, 240719, Note_on_c, 13, 58, 0
16, 240720, Note_on_c, 13, 57, 75
16, 240771, Note_on_c, 13, 57, 0
16, 240780, Note_on_c, 13, 55, 76
16, 240839, Note_on_c, 13, 55, 0
16, 240840, Note_on_c, 13, 53, 77
16, 240891, Note_on_c, 13, 53, 0
16, 240900, Note_on_c, 13, 52, 78
16, 240959, Note_on_c, 13, 52, 0
16, 240960, Note_on_c, 13, 65, 80
16, 241011, Note_on_c, 13, 65, 0
16, 241020, Note_on_c, 13, 64, 80
16, 241079, Note_on_c, 13, 64, 0
16, 241080, Note_on_c, 13, 62, 80
16, 241131, Note_on_c, 13, 62, 0
16, 241140, Note_on_c, 13, 60, 80
16, 241199, Note_on_c, 13, 60, 0
16, 241200, Note_on_c, 13, 58, 80
16, 241251, Note_on_c, 13, 58, 0
16, 241260, Note_on_c, 13, 57, 80
16, 241319, Note_on_c, 13, 57, 0
16, 241320, Note_on_c, 13, 55, 80
16, 241371, Note_on_c, 13, 55, 0
16, 241380, Note_on_c, 13, 53, 80
16, 241439, Note_on_c, 13, 53, 0
16, 241440, Note_on_c, 13, 52, 80
16, 241544, Note_on_c, 13, 52, 0
16, 241560, Note_on_c, 13, 74, 80
16, 241560, Note_on_c, 13, 64, 80
16, 241649, Note_on_c, 13, 74, 0
16, 241649, Note_on_c, 13, 64, 0
16, 241800, Note_on_c, 13, 73, 80
16, 241800, Note_on_c, 13, 64, 80
16, 241889, Note_on_c, 13, 73, 0
16, 241889, Note_on_c, 13, 64, 0
16, 241920, Note_on_c, 13, 64, 44
16, 241920, Note_on_c, 13, 73, 44
16, 242039, Note_on_c, 13, 64, 0
16, 242039, Note_on_c, 13, 73, 0
16, 243840, Note_on_c, 13, 55, 44
16, 244139, Note_on_c, 13, 55, 0
16, 244140, Note_on_c, 13, 58, 44
16, 244191, Note_on_c, 13, 58, 0
16, 244200, Note_on_c, 13, 57, 44
16, 244244, Note_on_c, 13, 57, 0
16, 244260, Note_on_c, 13, 55, 44
16, 244304, Note_on_c, 13, 55, 0
16, 244320, Note_on_c, 13, 55, 44
16, 244611, Note_on_c, 13, 55, 0
16, 244620, Note_on_c, 13, 64, 44
16, 244620, Note_on_c, 13, 52, 44
16, 244671, Note_on_c, 13, 64, 0
16, 244671, Note_on_c, 13, 52, 0
16, 244680, Note_on_c, 13, 52, 44
16, 244680, Note_on_c, 13, 64, 44
16, 244731, Note_on_c, 13, 52, 0
16, 244731, Note_on_c, 13, 64, 0
16, 244740, Note_on_c, 13, 64, 44
16, 244740, Note_on_c, 13, 52, 44
16, 244784, Note_on_c, 13, 64, 0
16, 244784, Note_on_c, 13, 52, 0
16, 244800, Note_on_c, 13, 62, 44
16, 244800, Note_on_c, 13, 50, 44
16, 244979, Note_on_c, 13, 62, 0
16, 244979, Note_on_c, 13, 50, 0
16, 245040, Note_on_c, 13, 55, 44
16, 245040, Note_on_c, 13, 52, 44
16, 245219, Note_on_c, 13, 55, 0
16, 245219, Note_on_c, 13, 52, 0
16, 245280, Note_on_c, 13, 52, 44
16, 245280, Note_on_c, 13, 55, 44
16, 245459, Note_on_c, 13, 52, 0
16, 245459, Note_on_c, 13, 55, 0
16, 245520, Note_on_c, 13, 52, 44
16, 245520, Note_on_c, 13, 55, 44
16, 245699, Note_on_c, 13, 52, 0
16, 245699, Note_on_c, 13, 55, 0
16, 245760, Note_on_c, 13, 50, 32
16, 245785, Note_on_c, 13, 50, 0
16, 245790, Note_on_c, 13, 50, 32
16, 245815, Note_on_c, 13, 50, 0
16, 245820, Note_on_c, 13, 50, 32
16, 245845, Note_on_c, 13, 50, 0
16, 245850, Note_on_c, 13, 50, 32
16, 245875, Note_on_c, 13, 50, 0
16, 245880, Note_on_c, 13, 49, 32
16, 245905, Note_on_c, 13, 49, 0
16, 245910, Note_on_c, 13, 49, 32
16, 245935, Note_on_c, 13, 49, 0
16, 245940, Note_on_c, 13, 49, 32
16, 245965, Note_on_c, 13, 49, 0
16, 245970, Note_on_c, 13, 49, 32
16, 245995, Note_on_c, 13, 49, 0
16, 246000, Note_on_c, 13, 48, 32
16, 246025, Note_on_c, 13, 48, 0
16, 246030, Note_on_c, 13, 48, 32
16, 246055, Note_on_c, 13, 48, 0
16, 246060, Note_on_c, 13, 48, 32
16, 246085, Note_on_c, 13, 48, 0
16, 246090, Note_on_c, 13, 48, 32
16, 246115, Note_on_c, 13, 48, 0
16, 246120, Note_on_c, 13, 59, 32
16, 246145, Note_on_c, 13, 59, 0
16, 246150, Note_on_c, 13, 59, 32
16, 246175, Note_on_c, 13, 59, 0
16, 246180, Note_on_c, 13, 59, 32
16, 246205, Note_on_c, 13, 59, 0
16, 246210, Note_on_c, 13, 59, 32
16, 246235, Note_on_c, 13, 59, 0
16, 246240, Note_on_c, 13, 58, 32
16, 246265, Note_on_c, 13, 58, 0
16, 246270, Note_on_c, 13, 58, 32
16, 246295, Note_on_c, 13, 58, 0
16, 246300, Note_on_c, 13, 58, 32
16, 246325, Note_on_c, 13, 58, 0
16, 246330, Note_on_c, 13, 58, 32
16, 246355, Note_on_c, 13, 58, 0
16, 246360, Note_on_c, 13, 57, 32
16, 246385, Note_on_c, 13, 57, 0
16, 246390, Note_on_c, 13, 57, 32
16, 246415, Note_on_c, 13, 57, 0
16, 246420, Note_on_c, 13, 57, 32
16, 246445, Note_on_c, 13, 57, 0
16, 246450, Note_on_c, 13, 57, 32
16, 246475, Note_on_c, 13, 57, 0
16, 246480, Note_on_c, 13, 59, 32
16, 246505, Note_on_c, 13, 59, 0
16, 246510, Note_on_c, 13, 59, 32
16, 246535, Note_on_c, 13, 59, 0
16, 246540, Note_on_c, 13, 59, 32
16, 246565, Note_on_c, 13, 59, 0
16, 246570, Note_on_c, 13, 59, 32
16, 246595, Note_on_c, 13, 59, 0
16, 246600, Note_on_c, 13, 61, 32
16, 246625, Note_on_c, 13, 61, 0
16, 246630, Note_on_c, 13, 61, 32
16, 246655, Note_on_c, 13, 61, 0
16, 246660, Note_on_c, 13, 61, 32
16, 246685, Note_on_c, 13, 61, 0
16, 246690, Note_on_c, 13, 61, 32
16, 246715, Note_on_c, 13, 61, 0
16, 246720, Note_on_c, 13, 50, 32
16, 246745, Note_on_c, 13, 50, 0
16, 246750, Note_on_c, 13, 50, 32
16, 246775, Note_on_c, 13, 50, 0
16, 246780, Note_on_c, 13, 50, 32
16, 246805, Note_on_c, 13, 50, 0
16, 246810, Note_on_c, 13, 50, 32
16, 246835, Note_on_c, 13, 50, 0
16, 246840, Note_on_c, 13, 49, 32
16, 246865, Note_on_c, 13, 49, 0
16, 246870, Note_on_c, 13, 49, 32
16, 246895, Note_on_c, 13, 49, 0
16, 246900, Note_on_c, 13, 49, 32
16, 246925, Note_on_c, 13, 49, 0
16, 246930, Note_on_c, 13, 49, 32
16, 246955, Note_on_c, 13, 49, 0
16, 246960, Note_on_c, 13, 48, 32
16, 246985, Note_on_c, 13, 48, 0
16, 246990, Note_on_c, 13, 48, 32
16, 247015, Note_on_c, 13, 48, 0
16, 247020, Note_on_c, 13, 48, 32
16, 247045, Note_on_c, 13, 48, 0
16, 247050, Note_on_c, 13, 48, 32
16, 247075, Note_on_c, 13, 48, 0
16, 247080, Note_on_c, 13, 59, 32
16, 247105, Note_on_c, 13, 59, 0
16, 247110, Note_on_c, 13, 59, 32
16, 247135, Note_on_c, 13, 59, 0
16, 247140, Note_on_c, 13, 59, 32
16, 247165, Note_on_c, 13, 59, 0
16, 247170, Note_on_c, 13, 59, 32
16, 247195, Note_on_c, 13, 59, 0
16, 247200, Note_on_c, 13, 58, 32
16, 247225, Note_on_c, 13, 58, 0
16, 247230, Note_on_c, 13, 58, 32
16, 247255, Note_on_c, 13, 58, 0
16, 247260, Note_on_c, 13, 58, 32
16, 247285, Note_on_c, 13, 58, 0
16, 247290, Note_on_c, 13, 58, 32
16, 247315, Note_on_c, 13, 58, 0
16, 247320, Note_on_c, 13, 57, 32
16, 247345, Note_on_c, 13, 57, 0
16, 247350, Note_on_c, 13, 57, 32
16, 247375, Note_on_c, 13, 57, 0
16, 247380, Note_on_c, 13, 57, 32
16, 247405, Note_on_c, 13, 57, 0
16, 247410, Note_on_c, 13, 57, 32
16, 247435, Note_on_c, 13, 57, 0
16, 247440, Note_on_c, 13, 59, 32
16, 247465, Note_on_c, 13, 59, 0
16, 247470, Note_on_c, 13, 59, 32
16, 247495, Note_on_c, 13, 59, 0
16, 247500, Note_on_c, 13, 59, 32
16, 247525, Note_on_c, 13, 59, 0
16, 247530, Note_on_c, 13, 59, 32
16, 247555, Note_on_c, 13, 59, 0
16, 247560, Note_on_c, 13, 61, 32
16, 247585, Note_on_c, 13, 61, 0
16, 247590, Note_on_c, 13, 61, 32
16, 247615, Note_on_c, 13, 61, 0
16, 247620, Note_on_c, 13, 61, 32
16, 247645, Note_on_c, 13, 61, 0
16, 247650, Note_on_c, 13, 61, 32
16, 247675, Note_on_c, 13, 61, 0
16, 247680, Note_on_c, 13, 50, 32
16, 247705, Note_on_c, 13, 50, 0
16, 247710, Note_on_c, 13, 50, 32
16, 247735, Note_on_c, 13, 50, 0
16, 247740, Note_on_c, 13, 50, 32
16, 247765, Note_on_c, 13, 50, 0
16, 247770, Note_on_c, 13, 50, 32
16, 247795, Note_on_c, 13, 50, 0
16, 247800, Note_on_c, 13, 49, 32
16, 247825, Note_on_c, 13, 49, 0
16, 247830, Note_on_c, 13, 49, 32
16, 247855, Note_on_c, 13, 49, 0
16, 247860, Note_on_c, 13, 49, 32
16, 247885, Note_on_c, 13, 49, 0
16, 247890, Note_on_c, 13, 49, 32
16, 247915, Note_on_c, 13, 49, 0
16, 247920, Note_on_c, 13, 48, 32
16, 247945, Note_on_c, 13, 48, 0
16, 247950, Note_on_c, 13, 48, 32
16, 247975, Note_on_c, 13, 48, 0
16, 247980, Note_on_c, 13, 48, 32
16, 248005, Note_on_c, 13, 48, 0
16, 248010, Note_on_c, 13, 48, 32
16, 248035, Note_on_c, 13, 48, 0
16, 248040, Note_on_c, 13, 59, 32
16, 248065, Note_on_c, 13, 59, 0
16, 248070, Note_on_c, 13, 59, 32
16, 248095, Note_on_c, 13, 59, 0
16, 248100, Note_on_c, 13, 59, 32
16, 248125, Note_on_c, 13, 59, 0
16, 248130, Note_on_c, 13, 59, 32
16, 248155, Note_on_c, 13, 59, 0
16, 248160, Note_on_c, 13, 58, 32
16, 248185, Note_on_c, 13, 58, 0
16, 248190, Note_on_c, 13, 58, 32
16, 248215, Note_on_c, 13, 58, 0
16, 248220, Note_on_c, 13, 58, 32
16, 248245, Note_on_c, 13, 58, 0
16, 248250, Note_on_c, 13, 58, 32
16, 248275, Note_on_c, 13, 58, 0
16, 248280, Note_on_c, 13, 57, 32
16, 248305, Note_on_c, 13, 57, 0
16, 248310, Note_on_c, 13, 57, 32
16, 248335, Note_on_c, 13, 57, 0
16, 248340, Note_on_c, 13, 57, 32
16, 248365, Note_on_c, 13, 57, 0
16, 248370, Note_on_c, 13, 57, 32
16, 248395, Note_on_c, 13, 57, 0
16, 248400, Note_on_c, 13, 59, 32
16, 248425, Note_on_c, 13, 59, 0
16, 248430, Note_on_c, 13, 59, 32
16, 248455, Note_on_c, 13, 59, 0
16, 248460, Note_on_c, 13, 59, 32
16, 248485, Note_on_c, 13, 59, 0
16, 248490, Note_on_c, 13, 59, 32
16, 248515, Note_on_c, 13, 59, 0
16, 248520, Note_on_c, 13, 61, 32
16, 248545, Note_on_c, 13, 61, 0
16, 248550, Note_on_c, 13, 61, 32
16, 248575, Note_on_c, 13, 61, 0
16, 248580, Note_on_c, 13, 61, 32
16, 248605, Note_on_c, 13, 61, 0
16, 248610, Note_on_c, 13, 61, 32
16, 248635, Note_on_c, 13, 61, 0
16, 248640, Note_on_c, 13, 50, 32
16, 248665, Note_on_c, 13, 50, 0
16, 248670, Note_on_c, 13, 50, 32
16, 248695, Note_on_c, 13, 50, 0
16, 248700, Note_on_c, 13, 50, 32
16, 248725, Note_on_c, 13, 50, 0
16, 248730, Note_on_c, 13, 50, 32
16, 248755, Note_on_c, 13, 50, 0
16, 248760, Note_on_c, 13, 49, 32
16, 248785, Note_on_c, 13, 49, 0
16, 248790, Note_on_c, 13, 49, 32
16, 248815, Note_on_c, 13, 49, 0
16, 248820, Note_on_c, 13, 49, 32
16, 248845, Note_on_c, 13, 49, 0
16, 248850, Note_on_c, 13, 49, 32
16, 248875, Note_on_c, 13, 49, 0
16, 248880, Note_on_c, 13, 48, 32
16, 248905, Note_on_c, 13, 48, 0
16, 248910, Note_on_c, 13, 48, 32
16, 248935, Note_on_c, 13, 48, 0
16, 248940, Note_on_c, 13, 48, 32
16, 248965, Note_on_c, 13, 48, 0
16, 248970, Note_on_c, 13, 48, 32
16, 248995, Note_on_c, 13, 48, 0
16, 249000, Note_on_c, 13, 59, 32
16, 249025, Note_on_c, 13, 59, 0
16, 249030, Note_on_c, 13, 59, 32
16, 249055, Note_on_c, 13, 59, 0
16, 249060, Note_on_c, 13, 59, 32
16, 249085, Note_on_c, 13, 59, 0
16, 249090, Note_on_c, 13, 59, 32
16, 249115, Note_on_c, 13, 59, 0
16, 249120, Note_on_c, 13, 58, 32
16, 249145, Note_on_c, 13, 58, 0
16, 249150, Note_on_c, 13, 58, 32
16, 249175, Note_on_c, 13, 58, 0
16, 249180, Note_on_c, 13, 58, 32
16, 249205, Note_on_c, 13, 58, 0
16, 249210, Note_on_c, 13, 58, 32
16, 249235, Note_on_c, 13, 58, 0
16, 249240, Note_on_c, 13, 57, 32
16, 249265, Note_on_c, 13, 57, 0
16, 249270, Note_on_c, 13, 57, 32
16, 249295, Note_on_c, 13, 57, 0
16, 249300, Note_on_c, 13, 57, 32
16, 249325, Note_on_c, 13, 57, 0
16, 249330, Note_on_c, 13, 57, 32
16, 249355, Note_on_c, 13, 57, 0
16, 249360, Note_on_c, 13, 59, 32
16, 249385, Note_on_c, 13, 59, 0
16, 249390, Note_on_c, 13, 59, 32
16, 249415, Note_on_c, 13, 59, 0
16, 249420, Note_on_c, 13, 59, 32
16, 249445, Note_on_c, 13, 59, 0
16, 249450, Note_on_c, 13, 59, 32
16, 249475, Note_on_c, 13, 59, 0
16, 249480, Note_on_c, 13, 61, 32
16, 249505, Note_on_c, 13, 61, 0
16, 249510, Note_on_c, 13, 61, 32
16, 249535, Note_on_c, 13, 61, 0
16, 249540, Note_on_c, 13, 61, 32
16, 249565, Note_on_c, 13, 61, 0
16, 249570, Note_on_c, 13, 61, 32
16, 249595, Note_on_c, 13, 61, 0
16, 249600, Note_on_c, 13, 50, 32
16, 249625, Note_on_c, 13, 50, 0
16, 249630, Note_on_c, 13, 50, 32
16, 249655, Note_on_c, 13, 50, 0
16, 249660, Note_on_c, 13, 50, 33
16, 249685, Note_on_c, 13, 50, 0
16, 249690, Note_on_c, 13, 50, 33
16, 249715, Note_on_c, 13, 50, 0
16, 249720, Note_on_c, 13, 49, 34
16, 249745, Note_on_c, 13, 49, 0
16, 249750, Note_on_c, 13, 49, 34
16, 249775, Note_on_c, 13, 49, 0
16, 249780, Note_on_c, 13, 49, 35
16, 249805, Note_on_c, 13, 49, 0
16, 249810, Note_on_c, 13, 49, 35
16, 249835, Note_on_c, 13, 49, 0
16, 249840, Note_on_c, 13, 48, 36
16, 249865, Note_on_c, 13, 48, 0
16, 249870, Note_on_c, 13, 48, 36
16, 249895, Note_on_c, 13, 48, 0
16, 249900, Note_on_c, 13, 48, 37
16, 249925, Note_on_c, 13, 48, 0
16, 249930, Note_on_c, 13, 48, 37
16, 249955, Note_on_c, 13, 48, 0
16, 249960, Note_on_c, 13, 59, 38
16, 249985, Note_on_c, 13, 59, 0
16, 249990, Note_on_c, 13, 59, 38
16, 250015, Note_on_c, 13, 59, 0
16, 250020, Note_on_c, 13, 59, 39
16, 250045, Note_on_c, 13, 59, 0
16, 250050, Note_on_c, 13, 59, 39
16, 250075, Note_on_c, 13, 59, 0
16, 250080, Note_on_c, 13, 58, 40
16, 250105, Note_on_c, 13, 58, 0
16, 250110, Note_on_c, 13, 58, 40
16, 250135, Note_on_c, 13, 58, 0
16, 250140, Note_on_c, 13, 58, 41
16, 250165, Note_on_c, 13, 58, 0
16, 250170, Note_on_c, 13, 58, 41
16, 250195, Note_on_c, 13, 58, 0
16, 250200, Note_on_c, 13, 57, 42
16, 250225, Note_on_c, 13, 57, 0
16, 250230, Note_on_c, 13, 57, 42
16, 250255, Note_on_c, 13, 57, 0
16, 250260, Note_on_c, 13, 57, 43
16, 250285, Note_on_c, 13, 57, 0
16, 250290, Note_on_c, 13, 57, 43
16, 250315, Note_on_c, 13, 57, 0
16, 250320, Note_on_c, 13, 59, 44
16, 250345, Note_on_c, 13, 59, 0
16, 250350, Note_on_c, 13, 59, 44
16, 250375, Note_on_c, 13, 59, 0
16, 250380, Note_on_c, 13, 59, 45
16, 250405, Note_on_c, 13, 59, 0
16, 250410, Note_on_c, 13, 59, 45
16, 250435, Note_on_c, 13, 59, 0
16, 250440, Note_on_c, 13, 61, 46
16, 250465, Note_on_c, 13, 61, 0
16, 250470, Note_on_c, 13, 61, 46
16, 250495, Note_on_c, 13, 61, 0
16, 250500, Note_on_c, 13, 61, 47
16, 250525, Note_on_c, 13, 61, 0
16, 250530, Note_on_c, 13, 61, 47
16, 250555, Note_on_c, 13, 61, 0
16, 250560, Note_on_c, 13, 50, 48
16, 250585, Note_on_c, 13, 50, 0
16, 250590, Note_on_c, 13, 50, 48
16, 250615, Note_on_c, 13, 50, 0
16, 250620, Note_on_c, 13, 50, 49
16, 250645, Note_on_c, 13, 50, 0
16, 250650, Note_on_c, 13, 50, 49
16, 250675, Note_on_c, 13, 50, 0
16, 250680, Note_on_c, 13, 49, 50
16, 250705, Note_on_c, 13, 49, 0
16, 250710, Note_on_c, 13, 49, 50
16, 250735, Note_on_c, 13, 49, 0
16, 250740, Note_on_c, 13, 49, 51
16, 250765, Note_on_c, 13, 49, 0
16, 250770, Note_on_c, 13, 49, 51
16, 250795, Note_on_c, 13, 49, 0
16, 250800, Note_on_c, 13, 48, 52
16, 250825, Note_on_c, 13, 48, 0
16, 250830, Note_on_c, 13, 48, 52
16, 250855, Note_on_c, 13, 48, 0
16, 250860, Note_on_c, 13, 48, 53
16, 250885, Note_on_c, 13, 48, 0
16, 250890, Note_on_c, 13, 48, 53
16, 250915, Note_on_c, 13, 48, 0
16, 250920, Note_on_c, 13, 59, 54
16, 250945, Note_on_c, 13, 59, 0
16, 250950, Note_on_c, 13, 59, 54
16, 250975, Note_on_c, 13, 59, 0
16, 250980, Note_on_c, 13, 59, 55
16, 251005, Note_on_c, 13, 59, 0
16, 251010, Note_on_c, 13, 59, 55
16, 251035, Note_on_c, 13, 59, 0
16, 251040, Note_on_c, 13, 58, 56
16, 251065, Note_on_c, 13, 58, 0
16, 251070, Note_on_c, 13, 58, 56
16, 251095, Note_on_c, 13, 58, 0
16, 251100, Note_on_c, 13, 58, 57
16, 251125, Note_on_c, 13, 58, 0
16, 251130, Note_on_c, 13, 58, 57
16, 251155, Note_on_c, 13, 58, 0
16, 251160, Note_on_c, 13, 57, 58
16, 251185, Note_on_c, 13, 57, 0
16, 251190, Note_on_c, 13, 57, 58
16, 251215, Note_on_c, 13, 57, 0
16, 251220, Note_on_c, 13, 57, 59
16, 251245, Note_on_c, 13, 57, 0
16, 251250, Note_on_c, 13, 57, 59
16, 251275, Note_on_c, 13, 57, 0
16, 251280, Note_on_c, 13, 59, 60
16, 251305, Note_on_c, 13, 59, 0
16, 251310, Note_on_c, 13, 59, 60
16, 251335, Note_on_c, 13, 59, 0
16, 251340, Note_on_c, 13, 59, 61
16, 251365, Note_on_c, 13, 59, 0
16, 251370, Note_on_c, 13, 59, 61
16, 251395, Note_on_c, 13, 59, 0
16, 251400, Note_on_c, 13, 61, 62
16, 251425, Note_on_c, 13, 61, 0
16, 251430, Note_on_c, 13, 61, 62
16, 251455, Note_on_c, 13, 61, 0
16, 251460, Note_on_c, 13, 61, 63
16, 251485, Note_on_c, 13, 61, 0
16, 251490, Note_on_c, 13, 61, 63
16, 251515, Note_on_c, 13, 61, 0
16, 251520, Note_on_c, 13, 50, 64
16, 251545, Note_on_c, 13, 50, 0
16, 251550, Note_on_c, 13, 62, 64
16, 251575, Note_on_c, 13, 62, 0
16, 251580, Note_on_c, 13, 62, 65
16, 251605, Note_on_c, 13, 62, 0
16, 251610, Note_on_c, 13, 62, 65
16, 251635, Note_on_c, 13, 62, 0
16, 251640, Note_on_c, 13, 61, 66
16, 251665, Note_on_c, 13, 61, 0
16, 251670, Note_on_c, 13, 61, 66
16, 251695, Note_on_c, 13, 61, 0
16, 251700, Note_on_c, 13, 61, 67
16, 251725, Note_on_c, 13, 61, 0
16, 251730, Note_on_c, 13, 61, 67
16, 251755, Note_on_c, 13, 61, 0
16, 251760, Note_on_c, 13, 60, 68
16, 251785, Note_on_c, 13, 60, 0
16, 251790, Note_on_c, 13, 60, 68
16, 251815, Note_on_c, 13, 60, 0
16, 251820, Note_on_c, 13, 60, 69
16, 251845, Note_on_c, 13, 60, 0
16, 251850, Note_on_c, 13, 60, 69
16, 251875, Note_on_c, 13, 60, 0
16, 251880, Note_on_c, 13, 59, 70
16, 251905, Note_on_c, 13, 59, 0
16, 251910, Note_on_c, 13, 59, 70
16, 251935, Note_on_c, 13, 59, 0
16, 251940, Note_on_c, 13, 59, 71
16, 251965, Note_on_c, 13, 59, 0
16, 251970, Note_on_c, 13, 59, 71
16, 251995, Note_on_c, 13, 59, 0
16, 252000, Note_on_c, 13, 58, 72
16, 252025, Note_on_c, 13, 58, 0
16, 252030, Note_on_c, 13, 58, 72
16, 252055, Note_on_c, 13, 58, 0
16, 252060, Note_on_c, 13, 58, 73
16, 252085, Note_on_c, 13, 58, 0
16, 252090, Note_on_c, 13, 58, 73
16, 252115, Note_on_c, 13, 58, 0
16, 252120, Note_on_c, 13, 57, 74
16, 252145, Note_on_c, 13, 57, 0
16, 252150, Note_on_c, 13, 57, 74
16, 252175, Note_on_c, 13, 57, 0
16, 252180, Note_on_c, 13, 57, 75
16, 252205, Note_on_c, 13, 57, 0
16, 252210, Note_on_c, 13, 57, 75
16, 252235, Note_on_c, 13, 57, 0
16, 252240, Note_on_c, 13, 59, 76
16, 252265, Note_on_c, 13, 59, 0
16, 252270, Note_on_c, 13, 59, 76
16, 252295, Note_on_c, 13, 59, 0
16, 252300, Note_on_c, 13, 59, 77
16, 252325, Note_on_c, 13, 59, 0
16, 252330, Note_on_c, 13, 59, 77
16, 252355, Note_on_c, 13, 59, 0
16, 252360, Note_on_c, 13, 61, 78
16, 252385, Note_on_c, 13, 61, 0
16, 252390, Note_on_c, 13, 61, 78
16, 252415, Note_on_c, 13, 61, 0
16, 252420, Note_on_c, 13, 61, 79
16, 252445, Note_on_c, 13, 61, 0
16, 252450, Note_on_c, 13, 61, 79
16, 252475, Note_on_c, 13, 61, 0
16, 252480, Note_on_c, 13, 62, 80
16, 252505, Note_on_c, 13, 62, 0
16, 252510, Note_on_c, 13, 62, 80
16, 252535, Note_on_c, 13, 62, 0
16, 252540, Note_on_c, 13, 62, 80
16, 252565, Note_on_c, 13, 62, 0
16, 252570, Note_on_c, 13, 62, 80
16, 252595, Note_on_c, 13, 62, 0
16, 252600, Note_on_c, 13, 57, 80
16, 252625, Note_on_c, 13, 57, 0
16, 252630, Note_on_c, 13, 57, 80
16, 252655, Note_on_c, 13, 57, 0
16, 252660, Note_on_c, 13, 57, 80
16, 252685, Note_on_c, 13, 57, 0
16, 252690, Note_on_c, 13, 57, 80
16, 252715, Note_on_c, 13, 57, 0
16, 252720, Note_on_c, 13, 58, 86
16, 252745, Note_on_c, 13, 58, 0
16, 252750, Note_on_c, 13, 58, 86
16, 252775, Note_on_c, 13, 58, 0
16, 252780, Note_on_c, 13, 58, 86
16, 252805, Note_on_c, 13, 58, 0
16, 252810, Note_on_c, 13, 58, 86
16, 252835, Note_on_c, 13, 58, 0
16, 252840, Note_on_c, 13, 57, 86
16, 252865, Note_on_c, 13, 57, 0
16, 252870, Note_on_c, 13, 57, 86
16, 252895, Note_on_c, 13, 57, 0
16, 252900, Note_on_c, 13, 57, 86
16, 252925, Note_on_c, 13, 57, 0
16, 252930, Note_on_c, 13, 57, 86
16, 252955, Note_on_c, 13, 57, 0
16, 252960, Note_on_c, 13, 55, 86
16, 252985, Note_on_c, 13, 55, 0
16, 252990, Note_on_c, 13, 55, 86
16, 253015, Note_on_c, 13, 55, 0
16, 253020, Note_on_c, 13, 55, 86
16, 253045, Note_on_c, 13, 55, 0
16, 253050, Note_on_c, 13, 55, 86
16, 253075, Note_on_c, 13, 55, 0
16, 253080, Note_on_c, 13, 58, 86
16, 253105, Note_on_c, 13, 58, 0
16, 253110, Note_on_c, 13, 58, 86
16, 253135, Note_on_c, 13, 58, 0
16, 253140, Note_on_c, 13, 58, 86
16, 253165, Note_on_c, 13, 58, 0
16, 253170, Note_on_c, 13, 58, 86
16, 253195, Note_on_c, 13, 58, 0
16, 253200, Note_on_c, 13, 57, 86
16, 253225, Note_on_c, 13, 57, 0
16, 253230, Note_on_c, 13, 57, 86
16, 253255, Note_on_c, 13, 57, 0
16, 253260, Note_on_c, 13, 57, 86
16, 253285, Note_on_c, 13, 57, 0
16, 253290, Note_on_c, 13, 57, 86
16, 253315, Note_on_c, 13, 57, 0
16, 253320, Note_on_c, 13, 61, 86
16, 253345, Note_on_c, 13, 61, 0
16, 253350, Note_on_c, 13, 61, 86
16, 253375, Note_on_c, 13, 61, 0
16, 253380, Note_on_c, 13, 61, 86
16, 253405, Note_on_c, 13, 61, 0
16, 253410, Note_on_c, 13, 61, 86
16, 253435, Note_on_c, 13, 61, 0
16, 253440, Note_on_c, 13, 62, 86
16, 253465, Note_on_c, 13, 62, 0
16, 253470, Note_on_c, 13, 62, 86
16, 253495, Note_on_c, 13, 62, 0
16, 253500, Note_on_c, 13, 62, 86
16, 253525, Note_on_c, 13, 62, 0
16, 253530, Note_on_c, 13, 62, 86
16, 253555, Note_on_c, 13, 62, 0
16, 253560, Note_on_c, 13, 57, 86
16, 253585, Note_on_c, 13, 57, 0
16, 253590, Note_on_c, 13, 57, 86
16, 253615, Note_on_c, 13, 57, 0
16, 253620, Note_on_c, 13, 57, 86
16, 253645, Note_on_c, 13, 57, 0
16, 253650, Note_on_c, 13, 57, 86
16, 253675, Note_on_c, 13, 57, 0
16, 253680, Note_on_c, 13, 58, 86
16, 253705, Note_on_c, 13, 58, 0
16, 253710, Note_on_c, 13, 58, 86
16, 253735, Note_on_c, 13, 58, 0
16, 253740, Note_on_c, 13, 58, 86
16, 253765, Note_on_c, 13, 58, 0
16, 253770, Note_on_c, 13, 58, 86
16, 253795, Note_on_c, 13, 58, 0
16, 253800, Note_on_c, 13, 57, 86
16, 253825, Note_on_c, 13, 57, 0
16, 253830, Note_on_c, 13, 57, 86
16, 253855, Note_on_c, 13, 57, 0
16, 253860, Note_on_c, 13, 57, 86
16, 253885, Note_on_c, 13, 57, 0
16, 253890, Note_on_c, 13, 57, 86
16, 253915, Note_on_c, 13, 57, 0
16, 253920, Note_on_c, 13, 55, 86
16, 253945, Note_on_c, 13, 55, 0
16, 253950, Note_on_c, 13, 55, 86
16, 253975, Note_on_c, 13, 55, 0
16, 253980, Note_on_c, 13, 55, 86
16, 254005, Note_on_c, 13, 55, 0
16, 254010, Note_on_c, 13, 55, 86
16, 254035, Note_on_c, 13, 55, 0
16, 254040, Note_on_c, 13, 58, 86
16, 254065, Note_on_c, 13, 58, 0
16, 254070, Note_on_c, 13, 58, 86
16, 254095, Note_on_c, 13, 58, 0
16, 254100, Note_on_c, 13, 58, 86
16, 254125, Note_on_c, 13, 58, 0
16, 254130, Note_on_c, 13, 58, 86
16, 254155, Note_on_c, 13, 58, 0
16, 254160, Note_on_c, 13, 57, 86
16, 254185, Note_on_c, 13, 57, 0
16, 254190, Note_on_c, 13, 57, 86
16, 254215, Note_on_c, 13, 57, 0
16, 254220, Note_on_c, 13, 57, 86
16, 254245, Note_on_c, 13, 57, 0
16, 254250, Note_on_c, 13, 57, 86
16, 254275, Note_on_c, 13, 57, 0
16, 254280, Note_on_c, 13, 73, 86
16, 254305, Note_on_c, 13, 73, 0
16, 254310, Note_on_c, 13, 73, 86
16, 254335, Note_on_c, 13, 73, 0
16, 254340, Note_on_c, 13, 73, 86
16, 254365, Note_on_c, 13, 73, 0
16, 254370, Note_on_c, 13, 73, 86
16, 254395, Note_on_c, 13, 73, 0
16, 254400, Note_on_c, 13, 72, 92
16, 254425, Note_on_c, 13, 72, 0
16, 254430, Note_on_c, 13, 72, 92
16, 254455, Note_on_c, 13, 72, 0
16, 254460, Note_on_c, 13, 72, 92
16, 254485, Note_on_c, 13, 72, 0
16, 254490, Note_on_c, 13, 72, 92
16, 254515, Note_on_c, 13, 72, 0
16, 254520, Note_on_c, 13, 60, 92
16, 254545, Note_on_c, 13, 60, 0
16, 254550, Note_on_c, 13, 60, 92
16, 254575, Note_on_c, 13, 60, 0
16, 254580, Note_on_c, 13, 60, 92
16, 254605, Note_on_c, 13, 60, 0
16, 254610, Note_on_c, 13, 60, 92
16, 254635, Note_on_c, 13, 60, 0
16, 254640, Note_on_c, 13, 50, 92
16, 254665, Note_on_c, 13, 50, 0
16, 254670, Note_on_c, 13, 50, 92
16, 254695, Note_on_c, 13, 50, 0
16, 254700, Note_on_c, 13, 50, 92
16, 254725, Note_on_c, 13, 50, 0
16, 254730, Note_on_c, 13, 50, 92
16, 254755, Note_on_c, 13, 50, 0
16, 254760, Note_on_c, 13, 72, 92
16, 254785, Note_on_c, 13, 72, 0
16, 254790, Note_on_c, 13, 72, 92
16, 254815, Note_on_c, 13, 72, 0
16, 254820, Note_on_c, 13, 72, 92
16, 254845, Note_on_c, 13, 72, 0
16, 254850, Note_on_c, 13, 72, 92
16, 254875, Note_on_c, 13, 72, 0
16, 254880, Note_on_c, 13, 72, 92
16, 254905, Note_on_c, 13, 72, 0
16, 254910, Note_on_c, 13, 72, 92
16, 254935, Note_on_c, 13, 72, 0
16, 254940, Note_on_c, 13, 72, 92
16, 254965, Note_on_c, 13, 72, 0
16, 254970, Note_on_c, 13, 72, 92
16, 254995, Note_on_c, 13, 72, 0
16, 255000, Note_on_c, 13, 60, 92
16, 255025, Note_on_c, 13, 60, 0
16, 255030, Note_on_c, 13, 60, 92
16, 255055, Note_on_c, 13, 60, 0
16, 255060, Note_on_c, 13, 60, 92
16, 255085, Note_on_c, 13, 60, 0
16, 255090, Note_on_c, 13, 60, 92
16, 255115, Note_on_c, 13, 60, 0
16, 255120, Note_on_c, 13, 50, 92
16, 255145, Note_on_c, 13, 50, 0
16, 255150, Note_on_c, 13, 50, 92
16, 255175, Note_on_c, 13, 50, 0
16, 255180, Note_on_c, 13, 50, 92
16, 255205, Note_on_c, 13, 50, 0
16, 255210, Note_on_c, 13, 50, 92
16, 255235, Note_on_c, 13, 50, 0
16, 255240, Note_on_c, 13, 72, 92
16, 255265, Note_on_c, 13, 72, 0
16, 255270, Note_on_c, 13, 72, 92
16, 255295, Note_on_c, 13, 72, 0
16, 255300, Note_on_c, 13, 72, 92
16, 255325, Note_on_c, 13, 72, 0
16, 255330, Note_on_c, 13, 72, 92
16, 255355, Note_on_c, 13, 72, 0
16, 255360, Note_on_c, 13, 71, 92
16, 255385, Note_on_c, 13, 71, 0
16, 255390, Note_on_c, 13, 71, 92
16, 255415, Note_on_c, 13, 71, 0
16, 255420, Note_on_c, 13, 71, 92
16, 255445, Note_on_c, 13, 71, 0
16, 255450, Note_on_c, 13, 71, 92
16, 255475, Note_on_c, 13, 71, 0
16, 255480, Note_on_c, 13, 59, 92
16, 255505, Note_on_c, 13, 59, 0
16, 255510, Note_on_c, 13, 59, 92
16, 255535, Note_on_c, 13, 59, 0
16, 255540, Note_on_c, 13, 59, 92
16, 255565, Note_on_c, 13, 59, 0
16, 255570, Note_on_c, 13, 59, 92
16, 255595, Note_on_c, 13, 59, 0
16, 255600, Note_on_c, 13, 50, 92
16, 255625, Note_on_c, 13, 50, 0
16, 255630, Note_on_c, 13, 50, 92
16, 255655, Note_on_c, 13, 50, 0
16, 255660, Note_on_c, 13, 50, 92
16, 255685, Note_on_c, 13, 50, 0
16, 255690, Note_on_c, 13, 50, 92
16, 255715, Note_on_c, 13, 50, 0
16, 255720, Note_on_c, 13, 71, 92
16, 255745, Note_on_c, 13, 71, 0
16, 255750, Note_on_c, 13, 71, 92
16, 255775, Note_on_c, 13, 71, 0
16, 255780, Note_on_c, 13, 71, 92
16, 255805, Note_on_c, 13, 71, 0
16, 255810, Note_on_c, 13, 71, 92
16, 255835, Note_on_c, 13, 71, 0
16, 255840, Note_on_c, 13, 73, 92
16, 255865, Note_on_c, 13, 73, 0
16, 255870, Note_on_c, 13, 73, 92
16, 255895, Note_on_c, 13, 73, 0
16, 255900, Note_on_c, 13, 73, 92
16, 255925, Note_on_c, 13, 73, 0
16, 255930, Note_on_c, 13, 73, 92
16, 255955, Note_on_c, 13, 73, 0
16, 255960, Note_on_c, 13, 61, 92
16, 255985, Note_on_c, 13, 61, 0
16, 255990, Note_on_c, 13, 61, 92
16, 256015, Note_on_c, 13, 61, 0
16, 256020, Note_on_c, 13, 61, 92
16, 256045, Note_on_c, 13, 61, 0
16, 256050, Note_on_c, 13, 61, 92
16, 256075, Note_on_c, 13, 61, 0
16, 256080, Note_on_c, 13, 50, 92
16, 256105, Note_on_c, 13, 50, 0
16, 256110, Note_on_c, 13, 50, 92
16, 256135, Note_on_c, 13, 50, 0
16, 256140, Note_on_c, 13, 50, 92
16, 256165, Note_on_c, 13, 50, 0
16, 256170, Note_on_c, 13, 50, 92
16, 256195, Note_on_c, 13, 50, 0
16, 256200, Note_on_c, 13, 73, 92
16, 256225, Note_on_c, 13, 73, 0
16, 256230, Note_on_c, 13, 73, 92
16, 256255, Note_on_c, 13, 73, 0
16, 256260, Note_on_c, 13, 73, 92
16, 256285, Note_on_c, 13, 73, 0
16, 256290, Note_on_c, 13, 73, 92
16, 256315, Note_on_c, 13, 73, 0
16, 256320, Note_on_c, 13, 72, 92
16, 256345, Note_on_c, 13, 72, 0
16, 256350, Note_on_c, 13, 72, 92
16, 256375, Note_on_c, 13, 72, 0
16, 256380, Note_on_c, 13, 72, 92
16, 256405, Note_on_c, 13, 72, 0
16, 256410, Note_on_c, 13, 72, 92
16, 256435, Note_on_c, 13, 72, 0
16, 256440, Note_on_c, 13, 60, 92
16, 256465, Note_on_c, 13, 60, 0
16, 256470, Note_on_c, 13, 60, 92
16, 256495, Note_on_c, 13, 60, 0
16, 256500, Note_on_c, 13, 60, 92
16, 256525, Note_on_c, 13, 60, 0
16, 256530, Note_on_c, 13, 60, 92
16, 256555, Note_on_c, 13, 60, 0
16, 256560, Note_on_c, 13, 50, 92
16, 256585, Note_on_c, 13, 50, 0
16, 256590, Note_on_c, 13, 50, 92
16, 256615, Note_on_c, 13, 50, 0
16, 256620, Note_on_c, 13, 50, 92
16, 256645, Note_on_c, 13, 50, 0
16, 256650, Note_on_c, 13, 50, 92
16, 256675, Note_on_c, 13, 50, 0
16, 256680, Note_on_c, 13, 72, 92
16, 256705, Note_on_c, 13, 72, 0
16, 256710, Note_on_c, 13, 72, 92
16, 256735, Note_on_c, 13, 72, 0
16, 256740, Note_on_c, 13, 72, 92
16, 256765, Note_on_c, 13, 72, 0
16, 256770, Note_on_c, 13, 72, 92
16, 256795, Note_on_c, 13, 72, 0
16, 256800, Note_on_c, 13, 72, 92
16, 256825, Note_on_c, 13, 72, 0
16, 256830, Note_on_c, 13, 72, 92
16, 256855, Note_on_c, 13, 72, 0
16, 256860, Note_on_c, 13, 72, 92
16, 256885, Note_on_c, 13, 72, 0
16, 256890, Note_on_c, 13, 72, 92
16, 256915, Note_on_c, 13, 72, 0
16, 256920, Note_on_c, 13, 60, 92
16, 256945, Note_on_c, 13, 60, 0
16, 256950, Note_on_c, 13, 60, 92
16, 256975, Note_on_c, 13, 60, 0
16, 256980, Note_on_c, 13, 60, 92
16, 257005, Note_on_c, 13, 60, 0
16, 257010, Note_on_c, 13, 60, 92
16, 257035, Note_on_c, 13, 60, 0
16, 257040, Note_on_c, 13, 50, 92
16, 257065, Note_on_c, 13, 50, 0
16, 257070, Note_on_c, 13, 50, 92
16, 257095, Note_on_c, 13, 50, 0
16, 257100, Note_on_c, 13, 50, 92
16, 257125, Note_on_c, 13, 50, 0
16, 257130, Note_on_c, 13, 50, 92
16, 257155, Note_on_c, 13, 50, 0
16, 257160, Note_on_c, 13, 72, 92
16, 257185, Note_on_c, 13, 72, 0
16, 257190, Note_on_c, 13, 72, 92
16, 257215, Note_on_c, 13, 72, 0
16, 257220, Note_on_c, 13, 72, 92
16, 257245, Note_on_c, 13, 72, 0
16, 257250, Note_on_c, 13, 72, 92
16, 257275, Note_on_c, 13, 72, 0
16, 257280, Note_on_c, 13, 71, 92
16, 257305, Note_on_c, 13, 71, 0
16, 257310, Note_on_c, 13, 71, 92
16, 257335, Note_on_c, 13, 71, 0
16, 257340, Note_on_c, 13, 71, 92
16, 257365, Note_on_c, 13, 71, 0
16, 257370, Note_on_c, 13, 71, 92
16, 257395, Note_on_c, 13, 71, 0
16, 257400, Note_on_c, 13, 59, 92
16, 257425, Note_on_c, 13, 59, 0
16, 257430, Note_on_c, 13, 59, 92
16, 257455, Note_on_c, 13, 59, 0
16, 257460, Note_on_c, 13, 59, 92
16, 257485, Note_on_c, 13, 59, 0
16, 257490, Note_on_c, 13, 59, 92
16, 257515, Note_on_c, 13, 59, 0
16, 257520, Note_on_c, 13, 50, 92
16, 257545, Note_on_c, 13, 50, 0
16, 257550, Note_on_c, 13, 50, 92
16, 257575, Note_on_c, 13, 50, 0
16, 257580, Note_on_c, 13, 50, 92
16, 257605, Note_on_c, 13, 50, 0
16, 257610, Note_on_c, 13, 50, 92
16, 257635, Note_on_c, 13, 50, 0
16, 257640, Note_on_c, 13, 71, 92
16, 257665, Note_on_c, 13, 71, 0
16, 257670, Note_on_c, 13, 71, 92
16, 257695, Note_on_c, 13, 71, 0
16, 257700, Note_on_c, 13, 71, 92
16, 257725, Note_on_c, 13, 71, 0
16, 257730, Note_on_c, 13, 71, 92
16, 257755, Note_on_c, 13, 71, 0
16, 257760, Note_on_c, 13, 73, 92
16, 257785, Note_on_c, 13, 73, 0
16, 257790, Note_on_c, 13, 73, 92
16, 257815, Note_on_c, 13, 73, 0
16, 257820, Note_on_c, 13, 73, 92
16, 257845, Note_on_c, 13, 73, 0
16, 257850, Note_on_c, 13, 73, 92
16, 257875, Note_on_c, 13, 73, 0
16, 257880, Note_on_c, 13, 61, 92
16, 257905, Note_on_c, 13, 61, 0
16, 257910, Note_on_c, 13, 61, 92
16, 257935, Note_on_c, 13, 61, 0
16, 257940, Note_on_c, 13, 61, 92
16, 257965, Note_on_c, 13, 61, 0
16, 257970, Note_on_c, 13, 61, 92
16, 257995, Note_on_c, 13, 61, 0
16, 258000, Note_on_c, 13, 50, 92
16, 258025, Note_on_c, 13, 50, 0
16, 258030, Note_on_c, 13, 50, 92
16, 258055, Note_on_c, 13, 50, 0
16, 258060, Note_on_c, 13, 50, 92
16, 258085, Note_on_c, 13, 50, 0
16, 258090, Note_on_c, 13, 50, 92
16, 258115, Note_on_c, 13, 50, 0
16, 258120, Note_on_c, 13, 74, 92
16, 258145, Note_on_c, 13, 74, 0
16, 258150, Note_on_c, 13, 74, 92
16, 258175, Note_on_c, 13, 74, 0
16, 258180, Note_on_c, 13, 74, 92
16, 258205, Note_on_c, 13, 74, 0
16, 258210, Note_on_c, 13, 74, 92
16, 258235, Note_on_c, 13, 74, 0
16, 258240, Note_on_c, 13, 69, 92
16, 258479, Note_on_c, 13, 69, 0
16, 258480, Note_on_c, 13, 69, 92
16, 258681, Note_on_c, 13, 69, 0
16, 258690, Note_on_c, 13, 65, 92
16, 258711, Note_on_c, 13, 65, 0
16, 258720, Note_on_c, 13, 62, 92
16, 258921, Note_on_c, 13, 62, 0
16, 258930, Note_on_c, 13, 57, 92
16, 258951, Note_on_c, 13, 57, 0
16, 258960, Note_on_c, 13, 53, 92
16, 259124, Note_on_c, 13, 53, 0
16, 259140, Note_on_c, 13, 57, 92
16, 259169, Note_on_c, 13, 57, 0
16, 259170, Note_on_c, 13, 53, 92
16, 259191, Note_on_c, 13, 53, 0
16, 259200, Note_on_c, 13, 50, 92
16, 259319, Note_on_c, 13, 50, 0
16, 259380, Note_on_c, 13, 57, 92
16, 259409, Note_on_c, 13, 57, 0
16, 259410, Note_on_c, 13, 53, 92
16, 259431, Note_on_c, 13, 53, 0
16, 259440, Note_on_c, 13, 50, 92
16, 259559, Note_on_c, 13, 50, 0
16, 259620, Note_on_c, 13, 62, 92
16, 259649, Note_on_c, 13, 62, 0
16, 259650, Note_on_c, 13, 57, 92
16, 259671, Note_on_c, 13, 57, 0
16, 259680, Note_on_c, 13, 53, 92
16, 259799, Note_on_c, 13, 53, 0
16, 259860, Note_on_c, 13, 65, 92
16, 259889, Note_on_c, 13, 65, 0
16, 259890, Note_on_c, 13, 62, 92
16, 259911, Note_on_c, 13, 62, 0
16, 259920, Note_on_c, 13, 57, 92
16, 260039, Note_on_c, 13, 57, 0
16, 260100, Note_on_c, 13, 69, 92
16, 260129, Note_on_c, 13, 69, 0
16, 260130, Note_on_c, 13, 65, 92
16, 260151, Note_on_c, 13, 65, 0
16, 260160, Note_on_c, 13, 62, 92
16, 260399, Note_on_c, 13, 62, 0
16, 260430, Note_on_c, 13, 62, 92
16, 260459, Note_on_c, 13, 62, 0
16, 260460, Note_on_c, 13, 64, 92
16, 260489, Note_on_c, 13, 64, 0
16, 260490, Note_on_c, 13, 65, 92
16, 260519, Note_on_c, 13, 65, 0
16, 260520, Note_on_c, 13, 67, 92
16, 260549, Note_on_c, 13, 67, 0
16, 260550, Note_on_c, 13, 69, 92
16, 260579, Note_on_c, 13, 69, 0
16, 260580, Note_on_c, 13, 71, 92
16, 260609, Note_on_c, 13, 71, 0
16, 260610, Note_on_c, 13, 73, 92
16, 260631, Note_on_c, 13, 73, 0
16, 260640, Note_on_c, 13, 74, 104
16, 260699, Note_on_c, 13, 74, 0
16, 260700, Note_on_c, 13, 74, 92
16, 260879, Note_on_c, 13, 74, 0
16, 260910, Note_on_c, 13, 50, 92
16, 260939, Note_on_c, 13, 50, 0
16, 260940, Note_on_c, 13, 52, 92
16, 260969, Note_on_c, 13, 52, 0
16, 260970, Note_on_c, 13, 53, 92
16, 260999, Note_on_c, 13, 53, 0
16, 261000, Note_on_c, 13, 55, 92
16, 261029, Note_on_c, 13, 55, 0
16, 261030, Note_on_c, 13, 57, 92
16, 261059, Note_on_c, 13, 57, 0
16, 261060, Note_on_c, 13, 59, 92
16, 261089, Note_on_c, 13, 59, 0
16, 261090, Note_on_c, 13, 61, 92
16, 261111, Note_on_c, 13, 61, 0
16, 261120, Note_on_c, 13, 62, 92
16, 261411, Note_on_c, 13, 62, 0
16, 261420, Note_on_c, 13, 65, 92
16, 261464, Note_on_c, 13, 65, 0
16, 261480, Note_on_c, 13, 64, 92
16, 261524, Note_on_c, 13, 64, 0
16, 261540, Note_on_c, 13, 62, 92
16, 261584, Note_on_c, 13, 62, 0
16, 261600, Note_on_c, 13, 69, 92
16, 261689, Note_on_c, 13, 69, 0
16, 261720, Note_on_c, 13, 67, 92
16, 261809, Note_on_c, 13, 67, 0
16, 261840, Note_on_c, 13, 64, 92
16, 261929, Note_on_c, 13, 64, 0
16, 261960, Note_on_c, 13, 69, 92
16, 262049, Note_on_c, 13, 69, 0
16, 262080, Note_on_c, 13, 62, 92
16, 262080, Note_on_c, 13, 50, 92
16, 262199, Note_on_c, 13, 62, 0
16, 262199, Note_on_c, 13, 50, 0
16, 262199, End_track
17, 0, Start_track
17, 0, Title_t, "Cello"
17, 0, MIDI_port, 0
17, 0, Program_c, 14, 48
17, 0, Control_c, 14, 7, 96
17, 0, Control_c, 14, 10, 90
17, 0, Control_c, 14, 11, 127
17, 0, Note_on_c, 14, 52, 32
17, 0, Note_on_c, 14, 45, 32
17, 33, Note_on_c, 14, 52, 0
17, 33, Note_on_c, 14, 45, 0
17, 40, Note_on_c, 14, 45, 32
17, 40, Note_on_c, 14, 52, 32
17, 73, Note_on_c, 14, 45, 0
17, 73, Note_on_c, 14, 52, 0
17, 80, Note_on_c, 14, 52, 32
17, 80, Note_on_c, 14, 45, 32
17, 113, Note_on_c, 14, 52, 0
17, 113, Note_on_c, 14, 45, 0
17, 120, Note_on_c, 14, 52, 32
17, 120, Note_on_c, 14, 45, 32
17, 153, Note_on_c, 14, 52, 0
17, 153, Note_on_c, 14, 45, 0
17, 160, Note_on_c, 14, 52, 32
17, 160, Note_on_c, 14, 45, 32
17, 193, Note_on_c, 14, 52, 0
17, 193, Note_on_c, 14, 45, 0
17, 200, Note_on_c, 14, 45, 32
17, 200, Note_on_c, 14, 52, 32
17, 233, Note_on_c, 14, 45, 0
17, 233, Note_on_c, 14, 52, 0
17, 240, Note_on_c, 14, 45, 32
17, 240, Note_on_c, 14, 52, 32
17, 273, Note_on_c, 14, 45, 0
17, 273, Note_on_c, 14, 52, 0
17, 280, Note_on_c, 14, 52, 32
17, 280, Note_on_c, 14, 45, 32
17, 313, Note_on_c, 14, 52, 0
17, 313, Note_on_c, 14, 45, 0
17, 320, Note_on_c, 14, 45, 32
17, 320, Note_on_c, 14, 52, 32
17, 353, Note_on_c, 14, 45, 0
17, 353, Note_on_c, 14, 52, 0
17, 360, Note_on_c, 14, 45, 32
17, 360, Note_on_c, 14, 52, 32
17, 393, Note_on_c, 14, 45, 0
17, 393, Note_on_c, 14, 52, 0
17, 400, Note_on_c, 14, 52, 32
17, 400, Note_on_c, 14, 45, 32
17, 433, Note_on_c, 14, 52, 0
17, 433, Note_on_c, 14, 45, 0
17, 440, Note_on_c, 14, 45, 32
17, 440, Note_on_c, 14, 52, 32
17, 473, Note_on_c, 14, 45, 0
17, 473, Note_on_c, 14, 52, 0
17, 480, Note_on_c, 14, 45, 32
17, 480, Note_on_c, 14, 52, 32
17, 513, Note_on_c, 14, 45, 0
17, 513, Note_on_c, 14, 52, 0
17, 520, Note_on_c, 14, 45, 32
17, 520, Note_on_c, 14, 52, 32
17, 553, Note_on_c, 14, 45, 0
17, 553, Note_on_c, 14, 52, 0
17, 560, Note_on_c, 14, 52, 32
17, 560, Note_on_c, 14, 45, 32
17, 593, Note_on_c, 14, 52, 0
17, 593, Note_on_c, 14, 45, 0
17, 600, Note_on_c, 14, 52, 32
17, 600, Note_on_c, 14, 45, 32
17, 633, Note_on_c, 14, 52, 0
17, 633, Note_on_c, 14, 45, 0
17, 640, Note_on_c, 14, 45, 32
17, 640, Note_on_c, 14, 52, 32
17, 673, Note_on_c, 14, 45, 0
17, 673, Note_on_c, 14, 52, 0
17, 680, Note_on_c, 14, 52, 32
17, 680, Note_on_c, 14, 45, 32
17, 713, Note_on_c, 14, 52, 0
17, 713, Note_on_c, 14, 45, 0
17, 720, Note_on_c, 14, 45, 32
17, 720, Note_on_c, 14, 52, 32
17, 753, Note_on_c, 14, 45, 0
17, 753, Note_on_c, 14, 52, 0
17, 760, Note_on_c, 14, 45, 32
17, 760, Note_on_c, 14, 52, 32
17, 793, Note_on_c, 14, 45, 0
17, 793, Note_on_c, 14, 52, 0
17, 800, Note_on_c, 14, 45, 32
17, 800, Note_on_c, 14, 52, 32
17, 833, Note_on_c, 14, 45, 0
17, 833, Note_on_c, 14, 52, 0
17, 840, Note_on_c, 14, 45, 32
17, 840, Note_on_c, 14, 52, 32
17, 873, Note_on_c, 14, 45, 0
17, 873, Note_on_c, 14, 52, 0
17, 880, Note_on_c, 14, 45, 32
17, 880, Note_on_c, 14, 52, 32
17, 913, Note_on_c, 14, 45, 0
17, 913, Note_on_c, 14, 52, 0
17, 920, Note_on_c, 14, 52, 32
17, 920, Note_on_c, 14, 45, 32
17, 953, Note_on_c, 14, 52, 0
17, 953, Note_on_c, 14, 45, 0
17, 960, Note_on_c, 14, 45, 32
17, 960, Note_on_c, 14, 52, 32
17, 993, Note_on_c, 14, 45, 0
17, 993, Note_on_c, 14, 52, 0
17, 1000, Note_on_c, 14, 45, 32
17, 1000, Note_on_c, 14, 52, 32
17, 1033, Note_on_c, 14, 45, 0
17, 1033, Note_on_c, 14, 52, 0
17, 1040, Note_on_c, 14, 52, 32
17, 1040, Note_on_c, 14, 45, 32
17, 1073, Note_on_c, 14, 52, 0
17, 1073, Note_on_c, 14, 45, 0
17, 1080, Note_on_c, 14, 45, 32
17, 1080, Note_on_c, 14, 52, 32
17, 1113, Note_on_c, 14, 45, 0
17, 1113, Note_on_c, 14, 52, 0
17, 1120, Note_on_c, 14, 45, 32
17, 1120, Note_on_c, 14, 52, 32
17, 1153, Note_on_c, 14, 45, 0
17, 1153, Note_on_c, 14, 52, 0
17, 1160, Note_on_c, 14, 45, 32
17, 1160, Note_on_c, 14, 52, 32
17, 1193, Note_on_c, 14, 45, 0
17, 1193, Note_on_c, 14, 52, 0
17, 1200, Note_on_c, 14, 45, 32
17, 1200, Note_on_c, 14, 52, 32
17, 1233, Note_on_c, 14, 45, 0
17, 1233, Note_on_c, 14, 52, 0
17, 1240, Note_on_c, 14, 45, 32
17, 1240, Note_on_c, 14, 52, 32
17, 1273, Note_on_c, 14, 45, 0
17, 1273, Note_on_c, 14, 52, 0
17, 1280, Note_on_c, 14, 52, 32
17, 1280, Note_on_c, 14, 45, 32
17, 1313, Note_on_c, 14, 52, 0
17, 1313, Note_on_c, 14, 45, 0
17, 1320, Note_on_c, 14, 45, 32
17, 1320, Note_on_c, 14, 52, 32
17, 1353, Note_on_c, 14, 45, 0
17, 1353, Note_on_c, 14, 52, 0
17, 1360, Note_on_c, 14, 52, 32
17, 1360, Note_on_c, 14, 45, 32
17, 1393, Note_on_c, 14, 52, 0
17, 1393, Note_on_c, 14, 45, 0
17, 1400, Note_on_c, 14, 45, 32
17, 1400, Note_on_c, 14, 52, 32
17, 1433, Note_on_c, 14, 45, 0
17, 1433, Note_on_c, 14, 52, 0
17, 1440, Note_on_c, 14, 45, 32
17, 1440, Note_on_c, 14, 52, 32
17, 1473, Note_on_c, 14, 45, 0
17, 1473, Note_on_c, 14, 52, 0
17, 1480, Note_on_c, 14, 52, 32
17, 1480, Note_on_c, 14, 45, 32
17, 1513, Note_on_c, 14, 52, 0
17, 1513, Note_on_c, 14, 45, 0
17, 1520, Note_on_c, 14, 52, 32
17, 1520, Note_on_c, 14, 45, 32
17, 1553, Note_on_c, 14, 52, 0
17, 1553, Note_on_c, 14, 45, 0
17, 1560, Note_on_c, 14, 45, 32
17, 1560, Note_on_c, 14, 52, 32
17, 1593, Note_on_c, 14, 45, 0
17, 1593, Note_on_c, 14, 52, 0
17, 1600, Note_on_c, 14, 45, 32
17, 1600, Note_on_c, 14, 52, 32
17, 1633, Note_on_c, 14, 45, 0
17, 1633, Note_on_c, 14, 52, 0
17, 1640, Note_on_c, 14, 45, 32
17, 1640, Note_on_c, 14, 52, 32
17, 1673, Note_on_c, 14, 45, 0
17, 1673, Note_on_c, 14, 52, 0
17, 1680, Note_on_c, 14, 45, 32
17, 1680, Note_on_c, 14, 52, 32
17, 1713, Note_on_c, 14, 45, 0
17, 1713, Note_on_c, 14, 52, 0
17, 1720, Note_on_c, 14, 45, 32
17, 1720, Note_on_c, 14, 52, 32
17, 1753, Note_on_c, 14, 45, 0
17, 1753, Note_on_c, 14, 52, 0
17, 1760, Note_on_c, 14, 45, 32
17, 1760, Note_on_c, 14, 52, 32
17, 1793, Note_on_c, 14, 45, 0
17, 1793, Note_on_c, 14, 52, 0
17, 1800, Note_on_c, 14, 45, 32
17, 1800, Note_on_c, 14, 52, 32
17, 1833, Note_on_c, 14, 45, 0
17, 1833, Note_on_c, 14, 52, 0
17, 1840, Note_on_c, 14, 45, 32
17, 1840, Note_on_c, 14, 52, 32
17, 1873, Note_on_c, 14, 45, 0
17, 1873, Note_on_c, 14, 52, 0
17, 1880, Note_on_c, 14, 52, 32
17, 1880, Note_on_c, 14, 45, 32
17, 1913, Note_on_c, 14, 52, 0
17, 1913, Note_on_c, 14, 45, 0
17, 1920, Note_on_c, 14, 45, 32
17, 1920, Note_on_c, 14, 52, 32
17, 1953, Note_on_c, 14, 45, 0
17, 1953, Note_on_c, 14, 52, 0
17, 1960, Note_on_c, 14, 52, 32
17, 1960, Note_on_c, 14, 45, 32
17, 1993, Note_on_c, 14, 52, 0
17, 1993, Note_on_c, 14, 45, 0
17, 2000, Note_on_c, 14, 52, 32
17, 2000, Note_on_c, 14, 45, 32
17, 2033, Note_on_c, 14, 52, 0
17, 2033, Note_on_c, 14, 45, 0
17, 2040, Note_on_c, 14, 45, 32
17, 2040, Note_on_c, 14, 52, 32
17, 2073, Note_on_c, 14, 45, 0
17, 2073, Note_on_c, 14, 52, 0
17, 2080, Note_on_c, 14, 45, 32
17, 2080, Note_on_c, 14, 52, 32
17, 2113, Note_on_c, 14, 45, 0
17, 2113, Note_on_c, 14, 52, 0
17, 2120, Note_on_c, 14, 45, 32
17, 2120, Note_on_c, 14, 52, 32
17, 2153, Note_on_c, 14, 45, 0
17, 2153, Note_on_c, 14, 52, 0
17, 2160, Note_on_c, 14, 52, 32
17, 2160, Note_on_c, 14, 45, 32
17, 2193, Note_on_c, 14, 52, 0
17, 2193, Note_on_c, 14, 45, 0
17, 2200, Note_on_c, 14, 45, 32
17, 2200, Note_on_c, 14, 52, 32
17, 2233, Note_on_c, 14, 45, 0
17, 2233, Note_on_c, 14, 52, 0
17, 2240, Note_on_c, 14, 52, 32
17, 2240, Note_on_c, 14, 45, 32
17, 2273, Note_on_c, 14, 52, 0
17, 2273, Note_on_c, 14, 45, 0
17, 2280, Note_on_c, 14, 45, 32
17, 2280, Note_on_c, 14, 52, 32
17, 2313, Note_on_c, 14, 45, 0
17, 2313, Note_on_c, 14, 52, 0
17, 2320, Note_on_c, 14, 45, 32
17, 2320, Note_on_c, 14, 52, 32
17, 2353, Note_on_c, 14, 45, 0
17, 2353, Note_on_c, 14, 52, 0
17, 2360, Note_on_c, 14, 45, 32
17, 2360, Note_on_c, 14, 52, 32
17, 2393, Note_on_c, 14, 45, 0
17, 2393, Note_on_c, 14, 52, 0
17, 2400, Note_on_c, 14, 52, 32
17, 2400, Note_on_c, 14, 45, 32
17, 2433, Note_on_c, 14, 52, 0
17, 2433, Note_on_c, 14, 45, 0
17, 2440, Note_on_c, 14, 45, 32
17, 2440, Note_on_c, 14, 52, 32
17, 2473, Note_on_c, 14, 45, 0
17, 2473, Note_on_c, 14, 52, 0
17, 2480, Note_on_c, 14, 52, 32
17, 2480, Note_on_c, 14, 45, 32
17, 2513, Note_on_c, 14, 52, 0
17, 2513, Note_on_c, 14, 45, 0
17, 2520, Note_on_c, 14, 52, 32
17, 2520, Note_on_c, 14, 45, 32
17, 2553, Note_on_c, 14, 52, 0
17, 2553, Note_on_c, 14, 45, 0
17, 2560, Note_on_c, 14, 45, 32
17, 2560, Note_on_c, 14, 52, 32
17, 2593, Note_on_c, 14, 45, 0
17, 2593, Note_on_c, 14, 52, 0
17, 2600, Note_on_c, 14, 45, 32
17, 2600, Note_on_c, 14, 52, 32
17, 2633, Note_on_c, 14, 45, 0
17, 2633, Note_on_c, 14, 52, 0
17, 2640, Note_on_c, 14, 52, 32
17, 2640, Note_on_c, 14, 45, 32
17, 2673, Note_on_c, 14, 52, 0
17, 2673, Note_on_c, 14, 45, 0
17, 2680, Note_on_c, 14, 52, 32
17, 2680, Note_on_c, 14, 45, 32
17, 2713, Note_on_c, 14, 52, 0
17, 2713, Note_on_c, 14, 45, 0
17, 2720, Note_on_c, 14, 52, 32
17, 2720, Note_on_c, 14, 45, 32
17, 2753, Note_on_c, 14, 52, 0
17, 2753, Note_on_c, 14, 45, 0
17, 2760, Note_on_c, 14, 45, 32
17, 2760, Note_on_c, 14, 52, 32
17, 2793, Note_on_c, 14, 45, 0
17, 2793, Note_on_c, 14, 52, 0
17, 2800, Note_on_c, 14, 52, 32
17, 2800, Note_on_c, 14, 45, 32
17, 2833, Note_on_c, 14, 52, 0
17, 2833, Note_on_c, 14, 45, 0
17, 2840, Note_on_c, 14, 52, 32
17, 2840, Note_on_c, 14, 45, 32
17, 2873, Note_on_c, 14, 52, 0
17, 2873, Note_on_c, 14, 45, 0
17, 2880, Note_on_c, 14, 45, 32
17, 2880, Note_on_c, 14, 52, 32
17, 2913, Note_on_c, 14, 45, 0
17, 2913, Note_on_c, 14, 52, 0
17, 2920, Note_on_c, 14, 45, 32
17, 2920, Note_on_c, 14, 52, 32
17, 2953, Note_on_c, 14, 45, 0
17, 2953, Note_on_c, 14, 52, 0
17, 2960, Note_on_c, 14, 45, 32
17, 2960, Note_on_c, 14, 52, 32
17, 2993, Note_on_c, 14, 45, 0
17, 2993, Note_on_c, 14, 52, 0
17, 3000, Note_on_c, 14, 52, 32
17, 3000, Note_on_c, 14, 45, 32
17, 3033, Note_on_c, 14, 52, 0
17, 3033, Note_on_c, 14, 45, 0
17, 3040, Note_on_c, 14, 52, 32
17, 3040, Note_on_c, 14, 45, 32
17, 3073, Note_on_c, 14, 52, 0
17, 3073, Note_on_c, 14, 45, 0
17, 3080, Note_on_c, 14, 52, 32
17, 3080, Note_on_c, 14, 45, 32
17, 3113, Note_on_c, 14, 52, 0
17, 3113, Note_on_c, 14, 45, 0
17, 3120, Note_on_c, 14, 45, 32
17, 3120, Note_on_c, 14, 52, 32
17, 3153, Note_on_c, 14, 45, 0
17, 3153, Note_on_c, 14, 52, 0
17, 3160, Note_on_c, 14, 45, 32
17, 3160, Note_on_c, 14, 52, 32
17, 3193, Note_on_c, 14, 45, 0
17, 3193, Note_on_c, 14, 52, 0
17, 3200, Note_on_c, 14, 52, 32
17, 3200, Note_on_c, 14, 45, 32
17, 3233, Note_on_c, 14, 52, 0
17, 3233, Note_on_c, 14, 45, 0
17, 3240, Note_on_c, 14, 52, 32
17, 3240, Note_on_c, 14, 45, 32
17, 3273, Note_on_c, 14, 52, 0
17, 3273, Note_on_c, 14, 45, 0
17, 3280, Note_on_c, 14, 45, 32
17, 3280, Note_on_c, 14, 52, 32
17, 3313, Note_on_c, 14, 45, 0
17, 3313, Note_on_c, 14, 52, 0
17, 3320, Note_on_c, 14, 45, 32
17, 3320, Note_on_c, 14, 52, 32
17, 3353, Note_on_c, 14, 45, 0
17, 3353, Note_on_c, 14, 52, 0
17, 3360, Note_on_c, 14, 45, 32
17, 3360, Note_on_c, 14, 52, 32
17, 3393, Note_on_c, 14, 45, 0
17, 3393, Note_on_c, 14, 52, 0
17, 3400, Note_on_c, 14, 45, 32
17, 3400, Note_on_c, 14, 52, 32
17, 3433, Note_on_c, 14, 45, 0
17, 3433, Note_on_c, 14, 52, 0
17, 3440, Note_on_c, 14, 45, 32
17, 3440, Note_on_c, 14, 52, 32
17, 3473, Note_on_c, 14, 45, 0
17, 3473, Note_on_c, 14, 52, 0
17, 3480, Note_on_c, 14, 52, 32
17, 3480, Note_on_c, 14, 45, 32
17, 3513, Note_on_c, 14, 52, 0
17, 3513, Note_on_c, 14, 45, 0
17, 3520, Note_on_c, 14, 52, 32
17, 3520, Note_on_c, 14, 45, 32
17, 3553, Note_on_c, 14, 52, 0
17, 3553, Note_on_c, 14, 45, 0
17, 3560, Note_on_c, 14, 52, 32
17, 3560, Note_on_c, 14, 45, 32
17, 3593, Note_on_c, 14, 52, 0
17, 3593, Note_on_c, 14, 45, 0
17, 3600, Note_on_c, 14, 45, 32
17, 3600, Note_on_c, 14, 52, 32
17, 3633, Note_on_c, 14, 45, 0
17, 3633, Note_on_c, 14, 52, 0
17, 3640, Note_on_c, 14, 52, 32
17, 3640, Note_on_c, 14, 45, 32
17, 3673, Note_on_c, 14, 52, 0
17, 3673, Note_on_c, 14, 45, 0
17, 3680, Note_on_c, 14, 45, 32
17, 3680, Note_on_c, 14, 52, 32
17, 3713, Note_on_c, 14, 45, 0
17, 3713, Note_on_c, 14, 52, 0
17, 3720, Note_on_c, 14, 45, 32
17, 3720, Note_on_c, 14, 52, 32
17, 3753, Note_on_c, 14, 45, 0
17, 3753, Note_on_c, 14, 52, 0
17, 3760, Note_on_c, 14, 52, 32
17, 3760, Note_on_c, 14, 45, 32
17, 3793, Note_on_c, 14, 52, 0
17, 3793, Note_on_c, 14, 45, 0
17, 3800, Note_on_c, 14, 52, 32
17, 3800, Note_on_c, 14, 45, 32
17, 3833, Note_on_c, 14, 52, 0
17, 3833, Note_on_c, 14, 45, 0
17, 3840, Note_on_c, 14, 45, 32
17, 3840, Note_on_c, 14, 52, 32
17, 3873, Note_on_c, 14, 45, 0
17, 3873, Note_on_c, 14, 52, 0
17, 3880, Note_on_c, 14, 52, 32
17, 3880, Note_on_c, 14, 45, 32
17, 3913, Note_on_c, 14, 52, 0
17, 3913, Note_on_c, 14, 45, 0
17, 3920, Note_on_c, 14, 52, 32
17, 3920, Note_on_c, 14, 45, 32
17, 3953, Note_on_c, 14, 52, 0
17, 3953, Note_on_c, 14, 45, 0
17, 3960, Note_on_c, 14, 45, 32
17, 3960, Note_on_c, 14, 52, 32
17, 3993, Note_on_c, 14, 45, 0
17, 3993, Note_on_c, 14, 52, 0
17, 4000, Note_on_c, 14, 52, 32
17, 4000, Note_on_c, 14, 45, 32
17, 4033, Note_on_c, 14, 52, 0
17, 4033, Note_on_c, 14, 45, 0
17, 4040, Note_on_c, 14, 45, 32
17, 4040, Note_on_c, 14, 52, 32
17, 4073, Note_on_c, 14, 45, 0
17, 4073, Note_on_c, 14, 52, 0
17, 4080, Note_on_c, 14, 45, 32
17, 4080, Note_on_c, 14, 52, 32
17, 4113, Note_on_c, 14, 45, 0
17, 4113, Note_on_c, 14, 52, 0
17, 4120, Note_on_c, 14, 52, 32
17, 4120, Note_on_c, 14, 45, 32
17, 4153, Note_on_c, 14, 52, 0
17, 4153, Note_on_c, 14, 45, 0
17, 4160, Note_on_c, 14, 52, 32
17, 4160, Note_on_c, 14, 45, 32
17, 4193, Note_on_c, 14, 52, 0
17, 4193, Note_on_c, 14, 45, 0
17, 4200, Note_on_c, 14, 52, 32
17, 4200, Note_on_c, 14, 45, 32
17, 4233, Note_on_c, 14, 52, 0
17, 4233, Note_on_c, 14, 45, 0
17, 4240, Note_on_c, 14, 45, 32
17, 4240, Note_on_c, 14, 52, 32
17, 4273, Note_on_c, 14, 45, 0
17, 4273, Note_on_c, 14, 52, 0
17, 4280, Note_on_c, 14, 52, 32
17, 4280, Note_on_c, 14, 45, 32
17, 4313, Note_on_c, 14, 52, 0
17, 4313, Note_on_c, 14, 45, 0
17, 4320, Note_on_c, 14, 45, 32
17, 4320, Note_on_c, 14, 52, 32
17, 4353, Note_on_c, 14, 45, 0
17, 4353, Note_on_c, 14, 52, 0
17, 4360, Note_on_c, 14, 52, 32
17, 4360, Note_on_c, 14, 45, 32
17, 4393, Note_on_c, 14, 52, 0
17, 4393, Note_on_c, 14, 45, 0
17, 4400, Note_on_c, 14, 52, 32
17, 4400, Note_on_c, 14, 45, 32
17, 4433, Note_on_c, 14, 52, 0
17, 4433, Note_on_c, 14, 45, 0
17, 4440, Note_on_c, 14, 52, 32
17, 4440, Note_on_c, 14, 45, 32
17, 4473, Note_on_c, 14, 52, 0
17, 4473, Note_on_c, 14, 45, 0
17, 4480, Note_on_c, 14, 45, 32
17, 4480, Note_on_c, 14, 52, 32
17, 4513, Note_on_c, 14, 45, 0
17, 4513, Note_on_c, 14, 52, 0
17, 4520, Note_on_c, 14, 52, 32
17, 4520, Note_on_c, 14, 45, 32
17, 4553, Note_on_c, 14, 52, 0
17, 4553, Note_on_c, 14, 45, 0
17, 4560, Note_on_c, 14, 45, 32
17, 4560, Note_on_c, 14, 52, 32
17, 4593, Note_on_c, 14, 45, 0
17, 4593, Note_on_c, 14, 52, 0
17, 4600, Note_on_c, 14, 52, 32
17, 4600, Note_on_c, 14, 45, 32
17, 4633, Note_on_c, 14, 52, 0
17, 4633, Note_on_c, 14, 45, 0
17, 4640, Note_on_c, 14, 52, 32
17, 4640, Note_on_c, 14, 45, 32
17, 4673, Note_on_c, 14, 52, 0
17, 4673, Note_on_c, 14, 45, 0
17, 4680, Note_on_c, 14, 45, 32
17, 4680, Note_on_c, 14, 52, 32
17, 4713, Note_on_c, 14, 45, 0
17, 4713, Note_on_c, 14, 52, 0
17, 4720, Note_on_c, 14, 52, 32
17, 4720, Note_on_c, 14, 45, 32
17, 4753, Note_on_c, 14, 52, 0
17, 4753, Note_on_c, 14, 45, 0
17, 4760, Note_on_c, 14, 45, 32
17, 4760, Note_on_c, 14, 52, 32
17, 4793, Note_on_c, 14, 45, 0
17, 4793, Note_on_c, 14, 52, 0
17, 4800, Note_on_c, 14, 52, 32
17, 4800, Note_on_c, 14, 45, 32
17, 4833, Note_on_c, 14, 52, 0
17, 4833, Note_on_c, 14, 45, 0
17, 4840, Note_on_c, 14, 52, 32
17, 4840, Note_on_c, 14, 45, 32
17, 4873, Note_on_c, 14, 52, 0
17, 4873, Note_on_c, 14, 45, 0
17, 4880, Note_on_c, 14, 52, 34
17, 4880, Note_on_c, 14, 45, 34
17, 4913, Note_on_c, 14, 52, 0
17, 4913, Note_on_c, 14, 45, 0
17, 4920, Note_on_c, 14, 52, 34
17, 4920, Note_on_c, 14, 45, 34
17, 4953, Note_on_c, 14, 52, 0
17, 4953, Note_on_c, 14, 45, 0
17, 4960, Note_on_c, 14, 45, 35
17, 4960, Note_on_c, 14, 52, 35
17, 4993, Note_on_c, 14, 45, 0
17, 4993, Note_on_c, 14, 52, 0
17, 5000, Note_on_c, 14, 52, 35
17, 5000, Note_on_c, 14, 45, 35
17, 5033, Note_on_c, 14, 52, 0
17, 5033, Note_on_c, 14, 45, 0
17, 5040, Note_on_c, 14, 52, 37
17, 5040, Note_on_c, 14, 45, 37
17, 5073, Note_on_c, 14, 52, 0
17, 5073, Note_on_c, 14, 45, 0
17, 5080, Note_on_c, 14, 45, 37
17, 5080, Note_on_c, 14, 52, 37
17, 5113, Note_on_c, 14, 45, 0
17, 5113, Note_on_c, 14, 52, 0
17, 5120, Note_on_c, 14, 52, 38
17, 5120, Note_on_c, 14, 45, 38
17, 5153, Note_on_c, 14, 52, 0
17, 5153, Note_on_c, 14, 45, 0
17, 5160, Note_on_c, 14, 45, 40
17, 5160, Note_on_c, 14, 52, 40
17, 5193, Note_on_c, 14, 45, 0
17, 5193, Note_on_c, 14, 52, 0
17, 5200, Note_on_c, 14, 45, 40
17, 5200, Note_on_c, 14, 52, 40
17, 5233, Note_on_c, 14, 45, 0
17, 5233, Note_on_c, 14, 52, 0
17, 5240, Note_on_c, 14, 45, 41
17, 5240, Note_on_c, 14, 52, 41
17, 5273, Note_on_c, 14, 45, 0
17, 5273, Note_on_c, 14, 52, 0
17, 5280, Note_on_c, 14, 45, 41
17, 5280, Note_on_c, 14, 52, 41
17, 5313, Note_on_c, 14, 45, 0
17, 5313, Note_on_c, 14, 52, 0
17, 5320, Note_on_c, 14, 52, 43
17, 5320, Note_on_c, 14, 45, 43
17, 5353, Note_on_c, 14, 52, 0
17, 5353, Note_on_c, 14, 45, 0
17, 5360, Note_on_c, 14, 52, 43
17, 5360, Note_on_c, 14, 45, 43
17, 5393, Note_on_c, 14, 52, 0
17, 5393, Note_on_c, 14, 45, 0
17, 5400, Note_on_c, 14, 52, 44
17, 5400, Note_on_c, 14, 45, 44
17, 5433, Note_on_c, 14, 52, 0
17, 5433, Note_on_c, 14, 45, 0
17, 5440, Note_on_c, 14, 45, 44
17, 5440, Note_on_c, 14, 52, 44
17, 5473, Note_on_c, 14, 45, 0
17, 5473, Note_on_c, 14, 52, 0
17, 5480, Note_on_c, 14, 52, 46
17, 5480, Note_on_c, 14, 45, 46
17, 5513, Note_on_c, 14, 52, 0
17, 5513, Note_on_c, 14, 45, 0
17, 5520, Note_on_c, 14, 45, 47
17, 5520, Note_on_c, 14, 52, 47
17, 5553, Note_on_c, 14, 45, 0
17, 5553, Note_on_c, 14, 52, 0
17, 5560, Note_on_c, 14, 45, 47
17, 5560, Note_on_c, 14, 52, 47
17, 5593, Note_on_c, 14, 45, 0
17, 5593, Note_on_c, 14, 52, 0
17, 5600, Note_on_c, 14, 45, 49
17, 5600, Note_on_c, 14, 52, 49
17, 5633, Note_on_c, 14, 45, 0
17, 5633, Note_on_c, 14, 52, 0
17, 5640, Note_on_c, 14, 45, 49
17, 5640, Note_on_c, 14, 52, 49
17, 5673, Note_on_c, 14, 45, 0
17, 5673, Note_on_c, 14, 52, 0
17, 5680, Note_on_c, 14, 45, 50
17, 5680, Note_on_c, 14, 52, 50
17, 5713, Note_on_c, 14, 45, 0
17, 5713, Note_on_c, 14, 52, 0
17, 5720, Note_on_c, 14, 52, 50
17, 5720, Note_on_c, 14, 45, 50
17, 5753, Note_on_c, 14, 52, 0
17, 5753, Note_on_c, 14, 45, 0
17, 5760, Note_on_c, 14, 52, 52
17, 5760, Note_on_c, 14, 45, 52
17, 5793, Note_on_c, 14, 52, 0
17, 5793, Note_on_c, 14, 45, 0
17, 5800, Note_on_c, 14, 45, 52
17, 5800, Note_on_c, 14, 52, 52
17, 5833, Note_on_c, 14, 45, 0
17, 5833, Note_on_c, 14, 52, 0
17, 5840, Note_on_c, 14, 52, 53
17, 5840, Note_on_c, 14, 45, 53
17, 5873, Note_on_c, 14, 52, 0
17, 5873, Note_on_c, 14, 45, 0
17, 5880, Note_on_c, 14, 52, 55
17, 5880, Note_on_c, 14, 45, 55
17, 5913, Note_on_c, 14, 52, 0
17, 5913, Note_on_c, 14, 45, 0
17, 5920, Note_on_c, 14, 45, 55
17, 5920, Note_on_c, 14, 52, 55
17, 5953, Note_on_c, 14, 45, 0
17, 5953, Note_on_c, 14, 52, 0
17, 5960, Note_on_c, 14, 52, 56
17, 5960, Note_on_c, 14, 45, 56
17, 5993, Note_on_c, 14, 52, 0
17, 5993, Note_on_c, 14, 45, 0
17, 6000, Note_on_c, 14, 52, 56
17, 6000, Note_on_c, 14, 45, 56
17, 6033, Note_on_c, 14, 52, 0
17, 6033, Note_on_c, 14, 45, 0
17, 6040, Note_on_c, 14, 45, 58
17, 6040, Note_on_c, 14, 52, 58
17, 6073, Note_on_c, 14, 45, 0
17, 6073, Note_on_c, 14, 52, 0
17, 6080, Note_on_c, 14, 52, 58
17, 6080, Note_on_c, 14, 45, 58
17, 6113, Note_on_c, 14, 52, 0
17, 6113, Note_on_c, 14, 45, 0
17, 6120, Note_on_c, 14, 52, 59
17, 6120, Note_on_c, 14, 45, 59
17, 6153, Note_on_c, 14, 52, 0
17, 6153, Note_on_c, 14, 45, 0
17, 6160, Note_on_c, 14, 52, 59
17, 6160, Note_on_c, 14, 45, 59
17, 6193, Note_on_c, 14, 52, 0
17, 6193, Note_on_c, 14, 45, 0
17, 6200, Note_on_c, 14, 52, 61
17, 6200, Note_on_c, 14, 45, 61
17, 6233, Note_on_c, 14, 52, 0
17, 6233, Note_on_c, 14, 45, 0
17, 6240, Note_on_c, 14, 45, 62
17, 6240, Note_on_c, 14, 52, 62
17, 6273, Note_on_c, 14, 45, 0
17, 6273, Note_on_c, 14, 52, 0
17, 6280, Note_on_c, 14, 52, 62
17, 6280, Note_on_c, 14, 45, 62
17, 6313, Note_on_c, 14, 52, 0
17, 6313, Note_on_c, 14, 45, 0
17, 6320, Note_on_c, 14, 45, 64
17, 6320, Note_on_c, 14, 52, 64
17, 6353, Note_on_c, 14, 45, 0
17, 6353, Note_on_c, 14, 52, 0
17, 6360, Note_on_c, 14, 45, 64
17, 6360, Note_on_c, 14, 52, 64
17, 6393, Note_on_c, 14, 45, 0
17, 6393, Note_on_c, 14, 52, 0
17, 6400, Note_on_c, 14, 45, 65
17, 6400, Note_on_c, 14, 52, 65
17, 6433, Note_on_c, 14, 45, 0
17, 6433, Note_on_c, 14, 52, 0
17, 6440, Note_on_c, 14, 52, 65
17, 6440, Note_on_c, 14, 45, 65
17, 6473, Note_on_c, 14, 52, 0
17, 6473, Note_on_c, 14, 45, 0
17, 6480, Note_on_c, 14, 52, 67
17, 6480, Note_on_c, 14, 45, 67
17, 6513, Note_on_c, 14, 52, 0
17, 6513, Note_on_c, 14, 45, 0
17, 6520, Note_on_c, 14, 52, 67
17, 6520, Note_on_c, 14, 45, 67
17, 6553, Note_on_c, 14, 52, 0
17, 6553, Note_on_c, 14, 45, 0
17, 6560, Note_on_c, 14, 52, 68
17, 6560, Note_on_c, 14, 45, 68
17, 6593, Note_on_c, 14, 52, 0
17, 6593, Note_on_c, 14, 45, 0
17, 6600, Note_on_c, 14, 45, 69
17, 6600, Note_on_c, 14, 57, 69
17, 6633, Note_on_c, 14, 45, 0
17, 6633, Note_on_c, 14, 57, 0
17, 6640, Note_on_c, 14, 57, 69
17, 6640, Note_on_c, 14, 45, 69
17, 6673, Note_on_c, 14, 57, 0
17, 6673, Note_on_c, 14, 45, 0
17, 6680, Note_on_c, 14, 57, 71
17, 6680, Note_on_c, 14, 45, 71
17, 6713, Note_on_c, 14, 57, 0
17, 6713, Note_on_c, 14, 45, 0
17, 6720, Note_on_c, 14, 45, 71
17, 6720, Note_on_c, 14, 57, 71
17, 6753, Note_on_c, 14, 45, 0
17, 6753, Note_on_c, 14, 57, 0
17, 6760, Note_on_c, 14, 45, 72
17, 6760, Note_on_c, 14, 57, 72
17, 6793, Note_on_c, 14, 45, 0
17, 6793, Note_on_c, 14, 57, 0
17, 6800, Note_on_c, 14, 57, 72
17, 6800, Note_on_c, 14, 45, 72
17, 6833, Note_on_c, 14, 57, 0
17, 6833, Note_on_c, 14, 45, 0
17, 6840, Note_on_c, 14, 45, 74
17, 6840, Note_on_c, 14, 57, 74
17, 6873, Note_on_c, 14, 45, 0
17, 6873, Note_on_c, 14, 57, 0
17, 6880, Note_on_c, 14, 57, 74
17, 6880, Note_on_c, 14, 45, 74
17, 6913, Note_on_c, 14, 57, 0
17, 6913, Note_on_c, 14, 45, 0
17, 6920, Note_on_c, 14, 45, 75
17, 6920, Note_on_c, 14, 57, 75
17, 6953, Note_on_c, 14, 45, 0
17, 6953, Note_on_c, 14, 57, 0
17, 6960, Note_on_c, 14, 45, 77
17, 6960, Note_on_c, 14, 57, 77
17, 6993, Note_on_c, 14, 45, 0
17, 6993, Note_on_c, 14, 57, 0
17, 7000, Note_on_c, 14, 45, 77
17, 7000, Note_on_c, 14, 57, 77
17, 7033, Note_on_c, 14, 45, 0
17, 7033, Note_on_c, 14, 57, 0
17, 7040, Note_on_c, 14, 45, 78
17, 7040, Note_on_c, 14, 57, 78
17, 7073, Note_on_c, 14, 45, 0
17, 7073, Note_on_c, 14, 57, 0
17, 7080, Note_on_c, 14, 57, 78
17, 7080, Note_on_c, 14, 45, 78
17, 7113, Note_on_c, 14, 57, 0
17, 7113, Note_on_c, 14, 45, 0
17, 7120, Note_on_c, 14, 45, 80
17, 7120, Note_on_c, 14, 57, 80
17, 7153, Note_on_c, 14, 45, 0
17, 7153, Note_on_c, 14, 57, 0
17, 7160, Note_on_c, 14, 45, 80
17, 7160, Note_on_c, 14, 57, 80
17, 7193, Note_on_c, 14, 45, 0
17, 7193, Note_on_c, 14, 57, 0
17, 7200, Note_on_c, 14, 45, 81
17, 7200, Note_on_c, 14, 57, 81
17, 7233, Note_on_c, 14, 45, 0
17, 7233, Note_on_c, 14, 57, 0
17, 7240, Note_on_c, 14, 57, 81
17, 7240, Note_on_c, 14, 45, 81
17, 7273, Note_on_c, 14, 57, 0
17, 7273, Note_on_c, 14, 45, 0
17, 7280, Note_on_c, 14, 57, 83
17, 7280, Note_on_c, 14, 45, 83
17, 7313, Note_on_c, 14, 57, 0
17, 7313, Note_on_c, 14, 45, 0
17, 7320, Note_on_c, 14, 57, 84
17, 7320, Note_on_c, 14, 45, 84
17, 7353, Note_on_c, 14, 57, 0
17, 7353, Note_on_c, 14, 45, 0
17, 7360, Note_on_c, 14, 57, 84
17, 7360, Note_on_c, 14, 45, 84
17, 7393, Note_on_c, 14, 57, 0
17, 7393, Note_on_c, 14, 45, 0
17, 7400, Note_on_c, 14, 57, 86
17, 7400, Note_on_c, 14, 45, 86
17, 7433, Note_on_c, 14, 57, 0
17, 7433, Note_on_c, 14, 45, 0
17, 7440, Note_on_c, 14, 45, 86
17, 7440, Note_on_c, 14, 57, 86
17, 7473, Note_on_c, 14, 45, 0
17, 7473, Note_on_c, 14, 57, 0
17, 7480, Note_on_c, 14, 57, 87
17, 7480, Note_on_c, 14, 45, 87
17, 7513, Note_on_c, 14, 57, 0
17, 7513, Note_on_c, 14, 45, 0
17, 7520, Note_on_c, 14, 57, 87
17, 7520, Note_on_c, 14, 45, 87
17, 7553, Note_on_c, 14, 57, 0
17, 7553, Note_on_c, 14, 45, 0
17, 7560, Note_on_c, 14, 45, 89
17, 7560, Note_on_c, 14, 57, 89
17, 7619, Note_on_c, 14, 45, 0
17, 7619, Note_on_c, 14, 57, 0
17, 7650, Note_on_c, 14, 62, 92
17, 7671, Note_on_c, 14, 62, 0
17, 7680, Note_on_c, 14, 57, 92
17, 8121, Note_on_c, 14, 57, 0
17, 8130, Note_on_c, 14, 53, 92
17, 8151, Note_on_c, 14, 53, 0
17, 8160, Note_on_c, 14, 50, 92
17, 8361, Note_on_c, 14, 50, 0
17, 8370, Note_on_c, 14, 45, 92
17, 8391, Note_on_c, 14, 45, 0
17, 8400, Note_on_c, 14, 41, 92
17, 8571, Note_on_c, 14, 41, 0
17, 8580, Note_on_c, 14, 45, 92
17, 8609, Note_on_c, 14, 45, 0
17, 8610, Note_on_c, 14, 41, 92
17, 8631, Note_on_c, 14, 41, 0
17, 8640, Note_on_c, 14, 38, 92
17, 8931, Note_on_c, 14, 38, 0
17, 8940, Note_on_c, 14, 53, 92
17, 8984, Note_on_c, 14, 53, 0
17, 9000, Note_on_c, 14, 52, 92
17, 9044, Note_on_c, 14, 52, 0
17, 9060, Note_on_c, 14, 50, 92
17, 9104, Note_on_c, 14, 50, 0
17, 9120, Note_on_c, 14, 57, 92
17, 9209, Note_on_c, 14, 57, 0
17, 9240, Note_on_c, 14, 55, 92
17, 9329, Note_on_c, 14, 55, 0
17, 9360, Note_on_c, 14, 52, 92
17, 9449, Note_on_c, 14, 52, 0
17, 9480, Note_on_c, 14, 57, 92
17, 9569, Note_on_c, 14, 57, 0
17, 9600, Note_on_c, 14, 62, 104
17, 9779, Note_on_c, 14, 62, 0
17, 9840, Note_on_c, 14, 57, 104
17, 10019, Note_on_c, 14, 57, 0
17, 10080, Note_on_c, 14, 50, 104
17, 10259, Note_on_c, 14, 50, 0
17, 10560, Note_on_c, 14, 55, 104
17, 10739, Note_on_c, 14, 55, 0
17, 10800, Note_on_c, 14, 50, 104
17, 10979, Note_on_c, 14, 50, 0
17, 11040, Note_on_c, 14, 43, 92
17, 11144, Note_on_c, 14, 43, 0
17, 11160, Note_on_c, 14, 51, 92
17, 11519, Note_on_c, 14, 51, 0
17, 11520, Note_on_c, 14, 51, 92
17, 12104, Note_on_c, 14, 51, 0
17, 12120, Note_on_c, 14, 51, 92
17, 12224, Note_on_c, 14, 51, 0
17, 12240, Note_on_c, 14, 51, 92
17, 12344, Note_on_c, 14, 51, 0
17, 12360, Note_on_c, 14, 51, 92
17, 12449, Note_on_c, 14, 51, 0
17, 12480, Note_on_c, 14, 52, 104
17, 12599, Note_on_c, 14, 52, 0
17, 12960, Note_on_c, 14, 45, 44
17, 13079, Note_on_c, 14, 45, 0
17, 13440, Note_on_c, 14, 45, 80
17, 13559, Note_on_c, 14, 45, 0
17, 13920, Note_on_c, 14, 45, 44
17, 14039, Note_on_c, 14, 45, 0
17, 14400, Note_on_c, 14, 45, 80
17, 14519, Note_on_c, 14, 45, 0
17, 14640, Note_on_c, 14, 55, 92
17, 14699, Note_on_c, 14, 55, 0
17, 14700, Note_on_c, 14, 55, 80
17, 15104, Note_on_c, 14, 55, 0
17, 15120, Note_on_c, 14, 56, 92
17, 15179, Note_on_c, 14, 56, 0
17, 15180, Note_on_c, 14, 56, 80
17, 15584, Note_on_c, 14, 56, 0
17, 15600, Note_on_c, 14, 57, 92
17, 15659, Note_on_c, 14, 57, 0
17, 15660, Note_on_c, 14, 57, 80
17, 16113, Note_on_c, 14, 57, 0
17, 16120, Note_on_c, 14, 50, 80
17, 16120, Note_on_c, 14, 57, 80
17, 16153, Note_on_c, 14, 50, 0
17, 16153, Note_on_c, 14, 57, 0
17, 16160, Note_on_c, 14, 50, 80
17, 16160, Note_on_c, 14, 57, 80
17, 16193, Note_on_c, 14, 50, 0
17, 16193, Note_on_c, 14, 57, 0
17, 16200, Note_on_c, 14, 57, 80
17, 16200, Note_on_c, 14, 50, 80
17, 16233, Note_on_c, 14, 57, 0
17, 16233, Note_on_c, 14, 50, 0
17, 16240, Note_on_c, 14, 50, 80
17, 16240, Note_on_c, 14, 57, 80
17, 16273, Note_on_c, 14, 50, 0
17, 16273, Note_on_c, 14, 57, 0
17, 16280, Note_on_c, 14, 50, 80
17, 16280, Note_on_c, 14, 57, 80
17, 16313, Note_on_c, 14, 50, 0
17, 16313, Note_on_c, 14, 57, 0
17, 16320, Note_on_c, 14, 50, 80
17, 16320, Note_on_c, 14, 57, 80
17, 16353, Note_on_c, 14, 50, 0
17, 16353, Note_on_c, 14, 57, 0
17, 16360, Note_on_c, 14, 57, 74
17, 16360, Note_on_c, 14, 50, 74
17, 16393, Note_on_c, 14, 57, 0
17, 16393, Note_on_c, 14, 50, 0
17, 16400, Note_on_c, 14, 50, 68
17, 16400, Note_on_c, 14, 57, 68
17, 16433, Note_on_c, 14, 50, 0
17, 16433, Note_on_c, 14, 57, 0
17, 16440, Note_on_c, 14, 50, 62
17, 16440, Note_on_c, 14, 57, 62
17, 16473, Note_on_c, 14, 50, 0
17, 16473, Note_on_c, 14, 57, 0
17, 16480, Note_on_c, 14, 50, 56
17, 16480, Note_on_c, 14, 57, 56
17, 16513, Note_on_c, 14, 50, 0
17, 16513, Note_on_c, 14, 57, 0
17, 16520, Note_on_c, 14, 57, 50
17, 16520, Note_on_c, 14, 50, 50
17, 16553, Note_on_c, 14, 57, 0
17, 16553, Note_on_c, 14, 50, 0
17, 16560, Note_on_c, 14, 50, 44
17, 16560, Note_on_c, 14, 57, 44
17, 16593, Note_on_c, 14, 50, 0
17, 16593, Note_on_c, 14, 57, 0
17, 16600, Note_on_c, 14, 50, 44
17, 16600, Note_on_c, 14, 57, 44
17, 16633, Note_on_c, 14, 50, 0
17, 16633, Note_on_c, 14, 57, 0
17, 16640, Note_on_c, 14, 50, 44
17, 16640, Note_on_c, 14, 57, 44
17, 16673, Note_on_c, 14, 50, 0
17, 16673, Note_on_c, 14, 57, 0
17, 16680, Note_on_c, 14, 50, 44
17, 16680, Note_on_c, 14, 57, 44
17, 16713, Note_on_c, 14, 50, 0
17, 16713, Note_on_c, 14, 57, 0
17, 16720, Note_on_c, 14, 50, 44
17, 16720, Note_on_c, 14, 57, 44
17, 16753, Note_on_c, 14, 50, 0
17, 16753, Note_on_c, 14, 57, 0
17, 16760, Note_on_c, 14, 57, 44
17, 16760, Note_on_c, 14, 50, 44
17, 16793, Note_on_c, 14, 57, 0
17, 16793, Note_on_c, 14, 50, 0
17, 16800, Note_on_c, 14, 57, 32
17, 16800, Note_on_c, 14, 50, 32
17, 16833, Note_on_c, 14, 57, 0
17, 16833, Note_on_c, 14, 50, 0
17, 16840, Note_on_c, 14, 50, 32
17, 16840, Note_on_c, 14, 57, 32
17, 16873, Note_on_c, 14, 50, 0
17, 16873, Note_on_c, 14, 57, 0
17, 16880, Note_on_c, 14, 57, 32
17, 16880, Note_on_c, 14, 50, 32
17, 16913, Note_on_c, 14, 57, 0
17, 16913, Note_on_c, 14, 50, 0
17, 16920, Note_on_c, 14, 57, 32
17, 16920, Note_on_c, 14, 50, 32
17, 16953, Note_on_c, 14, 57, 0
17, 16953, Note_on_c, 14, 50, 0
17, 16960, Note_on_c, 14, 57, 32
17, 16960, Note_on_c, 14, 50, 32
17, 16993, Note_on_c, 14, 57, 0
17, 16993, Note_on_c, 14, 50, 0
17, 17000, Note_on_c, 14, 50, 32
17, 17000, Note_on_c, 14, 57, 32
17, 17033, Note_on_c, 14, 50, 0
17, 17033, Note_on_c, 14, 57, 0
17, 17040, Note_on_c, 14, 50, 32
17, 17040, Note_on_c, 14, 57, 32
17, 17073, Note_on_c, 14, 50, 0
17, 17073, Note_on_c, 14, 57, 0
17, 17080, Note_on_c, 14, 57, 32
17, 17080, Note_on_c, 14, 50, 32
17, 17113, Note_on_c, 14, 57, 0
17, 17113, Note_on_c, 14, 50, 0
17, 17120, Note_on_c, 14, 50, 32
17, 17120, Note_on_c, 14, 57, 32
17, 17153, Note_on_c, 14, 50, 0
17, 17153, Note_on_c, 14, 57, 0
17, 17160, Note_on_c, 14, 50, 32
17, 17160, Note_on_c, 14, 57, 32
17, 17193, Note_on_c, 14, 50, 0
17, 17193, Note_on_c, 14, 57, 0
17, 17200, Note_on_c, 14, 57, 32
17, 17200, Note_on_c, 14, 50, 32
17, 17233, Note_on_c, 14, 57, 0
17, 17233, Note_on_c, 14, 50, 0
17, 17240, Note_on_c, 14, 50, 32
17, 17240, Note_on_c, 14, 57, 32
17, 17273, Note_on_c, 14, 50, 0
17, 17273, Note_on_c, 14, 57, 0
17, 17280, Note_on_c, 14, 57, 32
17, 17280, Note_on_c, 14, 50, 32
17, 17313, Note_on_c, 14, 57, 0
17, 17313, Note_on_c, 14, 50, 0
17, 17320, Note_on_c, 14, 50, 32
17, 17320, Note_on_c, 14, 57, 32
17, 17353, Note_on_c, 14, 50, 0
17, 17353, Note_on_c, 14, 57, 0
17, 17360, Note_on_c, 14, 50, 32
17, 17360, Note_on_c, 14, 57, 32
17, 17393, Note_on_c, 14, 50, 0
17, 17393, Note_on_c, 14, 57, 0
17, 17400, Note_on_c, 14, 50, 32
17, 17400, Note_on_c, 14, 57, 32
17, 17433, Note_on_c, 14, 50, 0
17, 17433, Note_on_c, 14, 57, 0
17, 17440, Note_on_c, 14, 50, 32
17, 17440, Note_on_c, 14, 57, 32
17, 17473, Note_on_c, 14, 50, 0
17, 17473, Note_on_c, 14, 57, 0
17, 17480, Note_on_c, 14, 57, 32
17, 17480, Note_on_c, 14, 50, 32
17, 17513, Note_on_c, 14, 57, 0
17, 17513, Note_on_c, 14, 50, 0
17, 17520, Note_on_c, 14, 57, 32
17, 17520, Note_on_c, 14, 50, 32
17, 17553, Note_on_c, 14, 57, 0
17, 17553, Note_on_c, 14, 50, 0
17, 17560, Note_on_c, 14, 50, 32
17, 17560, Note_on_c, 14, 57, 32
17, 17593, Note_on_c, 14, 50, 0
17, 17593, Note_on_c, 14, 57, 0
17, 17600, Note_on_c, 14, 57, 32
17, 17600, Note_on_c, 14, 50, 32
17, 17633, Note_on_c, 14, 57, 0
17, 17633, Note_on_c, 14, 50, 0
17, 17640, Note_on_c, 14, 57, 32
17, 17640, Note_on_c, 14, 50, 32
17, 17673, Note_on_c, 14, 57, 0
17, 17673, Note_on_c, 14, 50, 0
17, 17680, Note_on_c, 14, 50, 32
17, 17680, Note_on_c, 14, 57, 32
17, 17713, Note_on_c, 14, 50, 0
17, 17713, Note_on_c, 14, 57, 0
17, 17720, Note_on_c, 14, 57, 32
17, 17720, Note_on_c, 14, 50, 32
17, 17753, Note_on_c, 14, 57, 0
17, 17753, Note_on_c, 14, 50, 0
17, 17760, Note_on_c, 14, 50, 32
17, 17760, Note_on_c, 14, 57, 32
17, 17793, Note_on_c, 14, 50, 0
17, 17793, Note_on_c, 14, 57, 0
17, 17800, Note_on_c, 14, 57, 32
17, 17800, Note_on_c, 14, 50, 32
17, 17833, Note_on_c, 14, 57, 0
17, 17833, Note_on_c, 14, 50, 0
17, 17840, Note_on_c, 14, 50, 32
17, 17840, Note_on_c, 14, 57, 32
17, 17873, Note_on_c, 14, 50, 0
17, 17873, Note_on_c, 14, 57, 0
17, 17880, Note_on_c, 14, 57, 32
17, 17880, Note_on_c, 14, 50, 32
17, 17913, Note_on_c, 14, 57, 0
17, 17913, Note_on_c, 14, 50, 0
17, 17920, Note_on_c, 14, 57, 32
17, 17920, Note_on_c, 14, 50, 32
17, 17953, Note_on_c, 14, 57, 0
17, 17953, Note_on_c, 14, 50, 0
17, 17960, Note_on_c, 14, 50, 32
17, 17960, Note_on_c, 14, 57, 32
17, 17993, Note_on_c, 14, 50, 0
17, 17993, Note_on_c, 14, 57, 0
17, 18000, Note_on_c, 14, 50, 32
17, 18000, Note_on_c, 14, 57, 32
17, 18033, Note_on_c, 14, 50, 0
17, 18033, Note_on_c, 14, 57, 0
17, 18040, Note_on_c, 14, 57, 32
17, 18040, Note_on_c, 14, 50, 32
17, 18073, Note_on_c, 14, 57, 0
17, 18073, Note_on_c, 14, 50, 0
17, 18080, Note_on_c, 14, 50, 32
17, 18080, Note_on_c, 14, 57, 32
17, 18113, Note_on_c, 14, 50, 0
17, 18113, Note_on_c, 14, 57, 0
17, 18120, Note_on_c, 14, 57, 32
17, 18120, Note_on_c, 14, 50, 32
17, 18153, Note_on_c, 14, 57, 0
17, 18153, Note_on_c, 14, 50, 0
17, 18160, Note_on_c, 14, 50, 32
17, 18160, Note_on_c, 14, 57, 32
17, 18193, Note_on_c, 14, 50, 0
17, 18193, Note_on_c, 14, 57, 0
17, 18200, Note_on_c, 14, 50, 32
17, 18200, Note_on_c, 14, 57, 32
17, 18233, Note_on_c, 14, 50, 0
17, 18233, Note_on_c, 14, 57, 0
17, 18240, Note_on_c, 14, 57, 32
17, 18240, Note_on_c, 14, 50, 32
17, 18273, Note_on_c, 14, 57, 0
17, 18273, Note_on_c, 14, 50, 0
17, 18280, Note_on_c, 14, 50, 32
17, 18280, Note_on_c, 14, 57, 32
17, 18313, Note_on_c, 14, 50, 0
17, 18313, Note_on_c, 14, 57, 0
17, 18320, Note_on_c, 14, 50, 32
17, 18320, Note_on_c, 14, 57, 32
17, 18353, Note_on_c, 14, 50, 0
17, 18353, Note_on_c, 14, 57, 0
17, 18360, Note_on_c, 14, 50, 32
17, 18360, Note_on_c, 14, 57, 32
17, 18393, Note_on_c, 14, 50, 0
17, 18393, Note_on_c, 14, 57, 0
17, 18400, Note_on_c, 14, 57, 32
17, 18400, Note_on_c, 14, 50, 32
17, 18433, Note_on_c, 14, 57, 0
17, 18433, Note_on_c, 14, 50, 0
17, 18440, Note_on_c, 14, 57, 32
17, 18440, Note_on_c, 14, 50, 32
17, 18473, Note_on_c, 14, 57, 0
17, 18473, Note_on_c, 14, 50, 0
17, 18480, Note_on_c, 14, 57, 32
17, 18480, Note_on_c, 14, 50, 32
17, 18513, Note_on_c, 14, 57, 0
17, 18513, Note_on_c, 14, 50, 0
17, 18520, Note_on_c, 14, 57, 32
17, 18520, Note_on_c, 14, 50, 32
17, 18553, Note_on_c, 14, 57, 0
17, 18553, Note_on_c, 14, 50, 0
17, 18560, Note_on_c, 14, 50, 32
17, 18560, Note_on_c, 14, 57, 32
17, 18593, Note_on_c, 14, 50, 0
17, 18593, Note_on_c, 14, 57, 0
17, 18600, Note_on_c, 14, 57, 32
17, 18600, Note_on_c, 14, 50, 32
17, 18633, Note_on_c, 14, 57, 0
17, 18633, Note_on_c, 14, 50, 0
17, 18640, Note_on_c, 14, 50, 32
17, 18640, Note_on_c, 14, 57, 32
17, 18673, Note_on_c, 14, 50, 0
17, 18673, Note_on_c, 14, 57, 0
17, 18680, Note_on_c, 14, 57, 32
17, 18680, Note_on_c, 14, 50, 32
17, 18713, Note_on_c, 14, 57, 0
17, 18713, Note_on_c, 14, 50, 0
17, 18720, Note_on_c, 14, 57, 32
17, 18720, Note_on_c, 14, 50, 32
17, 18753, Note_on_c, 14, 57, 0
17, 18753, Note_on_c, 14, 50, 0
17, 18760, Note_on_c, 14, 57, 32
17, 18760, Note_on_c, 14, 50, 32
17, 18793, Note_on_c, 14, 57, 0
17, 18793, Note_on_c, 14, 50, 0
17, 18800, Note_on_c, 14, 57, 32
17, 18800, Note_on_c, 14, 50, 32
17, 18833, Note_on_c, 14, 57, 0
17, 18833, Note_on_c, 14, 50, 0
17, 18840, Note_on_c, 14, 50, 32
17, 18840, Note_on_c, 14, 57, 32
17, 18873, Note_on_c, 14, 50, 0
17, 18873, Note_on_c, 14, 57, 0
17, 18880, Note_on_c, 14, 50, 32
17, 18880, Note_on_c, 14, 57, 32
17, 18913, Note_on_c, 14, 50, 0
17, 18913, Note_on_c, 14, 57, 0
17, 18920, Note_on_c, 14, 57, 32
17, 18920, Note_on_c, 14, 50, 32
17, 18953, Note_on_c, 14, 57, 0
17, 18953, Note_on_c, 14, 50, 0
17, 18960, Note_on_c, 14, 57, 32
17, 18960, Note_on_c, 14, 50, 32
17, 18993, Note_on_c, 14, 57, 0
17, 18993, Note_on_c, 14, 50, 0
17, 19000, Note_on_c, 14, 57, 32
17, 19000, Note_on_c, 14, 50, 32
17, 19033, Note_on_c, 14, 57, 0
17, 19033, Note_on_c, 14, 50, 0
17, 19040, Note_on_c, 14, 57, 32
17, 19040, Note_on_c, 14, 50, 32
17, 19073, Note_on_c, 14, 57, 0
17, 19073, Note_on_c, 14, 50, 0
17, 19080, Note_on_c, 14, 57, 32
17, 19080, Note_on_c, 14, 50, 32
17, 19113, Note_on_c, 14, 57, 0
17, 19113, Note_on_c, 14, 50, 0
17, 19120, Note_on_c, 14, 57, 32
17, 19120, Note_on_c, 14, 50, 32
17, 19153, Note_on_c, 14, 57, 0
17, 19153, Note_on_c, 14, 50, 0
17, 19160, Note_on_c, 14, 50, 32
17, 19160, Note_on_c, 14, 57, 32
17, 19193, Note_on_c, 14, 50, 0
17, 19193, Note_on_c, 14, 57, 0
17, 19200, Note_on_c, 14, 50, 32
17, 19200, Note_on_c, 14, 57, 32
17, 19233, Note_on_c, 14, 50, 0
17, 19233, Note_on_c, 14, 57, 0
17, 19240, Note_on_c, 14, 57, 32
17, 19240, Note_on_c, 14, 50, 32
17, 19273, Note_on_c, 14, 57, 0
17, 19273, Note_on_c, 14, 50, 0
17, 19280, Note_on_c, 14, 50, 32
17, 19280, Note_on_c, 14, 57, 32
17, 19313, Note_on_c, 14, 50, 0
17, 19313, Note_on_c, 14, 57, 0
17, 19320, Note_on_c, 14, 50, 32
17, 19320, Note_on_c, 14, 57, 32
17, 19353, Note_on_c, 14, 50, 0
17, 19353, Note_on_c, 14, 57, 0
17, 19360, Note_on_c, 14, 50, 32
17, 19360, Note_on_c, 14, 57, 32
17, 19393, Note_on_c, 14, 50, 0
17, 19393, Note_on_c, 14, 57, 0
17, 19400, Note_on_c, 14, 50, 32
17, 19400, Note_on_c, 14, 57, 32
17, 19433, Note_on_c, 14, 50, 0
17, 19433, Note_on_c, 14, 57, 0
17, 19440, Note_on_c, 14, 57, 32
17, 19440, Note_on_c, 14, 50, 32
17, 19473, Note_on_c, 14, 57, 0
17, 19473, Note_on_c, 14, 50, 0
17, 19480, Note_on_c, 14, 50, 32
17, 19480, Note_on_c, 14, 57, 32
17, 19513, Note_on_c, 14, 50, 0
17, 19513, Note_on_c, 14, 57, 0
17, 19520, Note_on_c, 14, 50, 32
17, 19520, Note_on_c, 14, 57, 32
17, 19553, Note_on_c, 14, 50, 0
17, 19553, Note_on_c, 14, 57, 0
17, 19560, Note_on_c, 14, 50, 32
17, 19560, Note_on_c, 14, 57, 32
17, 19593, Note_on_c, 14, 50, 0
17, 19593, Note_on_c, 14, 57, 0
17, 19600, Note_on_c, 14, 50, 32
17, 19600, Note_on_c, 14, 57, 32
17, 19633, Note_on_c, 14, 50, 0
17, 19633, Note_on_c, 14, 57, 0
17, 19640, Note_on_c, 14, 50, 32
17, 19640, Note_on_c, 14, 57, 32
17, 19673, Note_on_c, 14, 50, 0
17, 19673, Note_on_c, 14, 57, 0
17, 19680, Note_on_c, 14, 50, 32
17, 19680, Note_on_c, 14, 57, 32
17, 19713, Note_on_c, 14, 50, 0
17, 19713, Note_on_c, 14, 57, 0
17, 19720, Note_on_c, 14, 57, 32
17, 19720, Note_on_c, 14, 50, 32
17, 19753, Note_on_c, 14, 57, 0
17, 19753, Note_on_c, 14, 50, 0
17, 19760, Note_on_c, 14, 50, 32
17, 19760, Note_on_c, 14, 57, 32
17, 19793, Note_on_c, 14, 50, 0
17, 19793, Note_on_c, 14, 57, 0
17, 19800, Note_on_c, 14, 50, 32
17, 19800, Note_on_c, 14, 57, 32
17, 19833, Note_on_c, 14, 50, 0
17, 19833, Note_on_c, 14, 57, 0
17, 19840, Note_on_c, 14, 50, 32
17, 19840, Note_on_c, 14, 57, 32
17, 19873, Note_on_c, 14, 50, 0
17, 19873, Note_on_c, 14, 57, 0
17, 19880, Note_on_c, 14, 57, 32
17, 19880, Note_on_c, 14, 50, 32
17, 19913, Note_on_c, 14, 57, 0
17, 19913, Note_on_c, 14, 50, 0
17, 19920, Note_on_c, 14, 57, 32
17, 19920, Note_on_c, 14, 50, 32
17, 19953, Note_on_c, 14, 57, 0
17, 19953, Note_on_c, 14, 50, 0
17, 19960, Note_on_c, 14, 57, 32
17, 19960, Note_on_c, 14, 50, 32
17, 19993, Note_on_c, 14, 57, 0
17, 19993, Note_on_c, 14, 50, 0
17, 20000, Note_on_c, 14, 50, 32
17, 20000, Note_on_c, 14, 57, 32
17, 20033, Note_on_c, 14, 50, 0
17, 20033, Note_on_c, 14, 57, 0
17, 20040, Note_on_c, 14, 50, 32
17, 20040, Note_on_c, 14, 57, 32
17, 20073, Note_on_c, 14, 50, 0
17, 20073, Note_on_c, 14, 57, 0
17, 20080, Note_on_c, 14, 50, 32
17, 20080, Note_on_c, 14, 57, 32
17, 20113, Note_on_c, 14, 50, 0
17, 20113, Note_on_c, 14, 57, 0
17, 20120, Note_on_c, 14, 57, 32
17, 20120, Note_on_c, 14, 50, 32
17, 20153, Note_on_c, 14, 57, 0
17, 20153, Note_on_c, 14, 50, 0
17, 20160, Note_on_c, 14, 57, 32
17, 20160, Note_on_c, 14, 50, 32
17, 20193, Note_on_c, 14, 57, 0
17, 20193, Note_on_c, 14, 50, 0
17, 20200, Note_on_c, 14, 50, 32
17, 20200, Note_on_c, 14, 57, 32
17, 20233, Note_on_c, 14, 50, 0
17, 20233, Note_on_c, 14, 57, 0
17, 20240, Note_on_c, 14, 57, 32
17, 20240, Note_on_c, 14, 50, 32
17, 20273, Note_on_c, 14, 57, 0
17, 20273, Note_on_c, 14, 50, 0
17, 20280, Note_on_c, 14, 57, 32
17, 20280, Note_on_c, 14, 50, 32
17, 20313, Note_on_c, 14, 57, 0
17, 20313, Note_on_c, 14, 50, 0
17, 20320, Note_on_c, 14, 57, 32
17, 20320, Note_on_c, 14, 50, 32
17, 20353, Note_on_c, 14, 57, 0
17, 20353, Note_on_c, 14, 50, 0
17, 20360, Note_on_c, 14, 57, 32
17, 20360, Note_on_c, 14, 50, 32
17, 20393, Note_on_c, 14, 57, 0
17, 20393, Note_on_c, 14, 50, 0
17, 20400, Note_on_c, 14, 50, 32
17, 20400, Note_on_c, 14, 57, 32
17, 20433, Note_on_c, 14, 50, 0
17, 20433, Note_on_c, 14, 57, 0
17, 20440, Note_on_c, 14, 57, 32
17, 20440, Note_on_c, 14, 50, 32
17, 20473, Note_on_c, 14, 57, 0
17, 20473, Note_on_c, 14, 50, 0
17, 20480, Note_on_c, 14, 57, 32
17, 20480, Note_on_c, 14, 50, 32
17, 20513, Note_on_c, 14, 57, 0
17, 20513, Note_on_c, 14, 50, 0
17, 20520, Note_on_c, 14, 50, 32
17, 20520, Note_on_c, 14, 57, 32
17, 20553, Note_on_c, 14, 50, 0
17, 20553, Note_on_c, 14, 57, 0
17, 20560, Note_on_c, 14, 50, 32
17, 20560, Note_on_c, 14, 57, 32
17, 20593, Note_on_c, 14, 50, 0
17, 20593, Note_on_c, 14, 57, 0
17, 20600, Note_on_c, 14, 50, 32
17, 20600, Note_on_c, 14, 57, 32
17, 20633, Note_on_c, 14, 50, 0
17, 20633, Note_on_c, 14, 57, 0
17, 20640, Note_on_c, 14, 57, 32
17, 20640, Note_on_c, 14, 50, 32
17, 20673, Note_on_c, 14, 57, 0
17, 20673, Note_on_c, 14, 50, 0
17, 20680, Note_on_c, 14, 50, 32
17, 20680, Note_on_c, 14, 57, 32
17, 20713, Note_on_c, 14, 50, 0
17, 20713, Note_on_c, 14, 57, 0
17, 20720, Note_on_c, 14, 57, 32
17, 20720, Note_on_c, 14, 50, 32
17, 20753, Note_on_c, 14, 57, 0
17, 20753, Note_on_c, 14, 50, 0
17, 20760, Note_on_c, 14, 50, 32
17, 20760, Note_on_c, 14, 57, 32
17, 20793, Note_on_c, 14, 50, 0
17, 20793, Note_on_c, 14, 57, 0
17, 20800, Note_on_c, 14, 50, 32
17, 20800, Note_on_c, 14, 57, 32
17, 20833, Note_on_c, 14, 50, 0
17, 20833, Note_on_c, 14, 57, 0
17, 20840, Note_on_c, 14, 50, 32
17, 20840, Note_on_c, 14, 57, 32
17, 20873, Note_on_c, 14, 50, 0
17, 20873, Note_on_c, 14, 57, 0
17, 20880, Note_on_c, 14, 57, 32
17, 20880, Note_on_c, 14, 50, 32
17, 20913, Note_on_c, 14, 57, 0
17, 20913, Note_on_c, 14, 50, 0
17, 20920, Note_on_c, 14, 57, 32
17, 20920, Note_on_c, 14, 50, 32
17, 20953, Note_on_c, 14, 57, 0
17, 20953, Note_on_c, 14, 50, 0
17, 20960, Note_on_c, 14, 50, 32
17, 20960, Note_on_c, 14, 57, 32
17, 20993, Note_on_c, 14, 50, 0
17, 20993, Note_on_c, 14, 57, 0
17, 21000, Note_on_c, 14, 50, 32
17, 21000, Note_on_c, 14, 57, 32
17, 21033, Note_on_c, 14, 50, 0
17, 21033, Note_on_c, 14, 57, 0
17, 21040, Note_on_c, 14, 50, 32
17, 21040, Note_on_c, 14, 57, 32
17, 21073, Note_on_c, 14, 50, 0
17, 21073, Note_on_c, 14, 57, 0
17, 21080, Note_on_c, 14, 50, 32
17, 21080, Note_on_c, 14, 57, 32
17, 21113, Note_on_c, 14, 50, 0
17, 21113, Note_on_c, 14, 57, 0
17, 21120, Note_on_c, 14, 57, 32
17, 21120, Note_on_c, 14, 50, 32
17, 21153, Note_on_c, 14, 57, 0
17, 21153, Note_on_c, 14, 50, 0
17, 21160, Note_on_c, 14, 57, 32
17, 21160, Note_on_c, 14, 50, 32
17, 21193, Note_on_c, 14, 57, 0
17, 21193, Note_on_c, 14, 50, 0
17, 21200, Note_on_c, 14, 50, 34
17, 21200, Note_on_c, 14, 57, 34
17, 21233, Note_on_c, 14, 50, 0
17, 21233, Note_on_c, 14, 57, 0
17, 21240, Note_on_c, 14, 57, 34
17, 21240, Note_on_c, 14, 50, 34
17, 21273, Note_on_c, 14, 57, 0
17, 21273, Note_on_c, 14, 50, 0
17, 21280, Note_on_c, 14, 50, 35
17, 21280, Note_on_c, 14, 57, 35
17, 21313, Note_on_c, 14, 50, 0
17, 21313, Note_on_c, 14, 57, 0
17, 21320, Note_on_c, 14, 50, 35
17, 21320, Note_on_c, 14, 57, 35
17, 21353, Note_on_c, 14, 50, 0
17, 21353, Note_on_c, 14, 57, 0
17, 21360, Note_on_c, 14, 50, 37
17, 21360, Note_on_c, 14, 57, 37
17, 21393, Note_on_c, 14, 50, 0
17, 21393, Note_on_c, 14, 57, 0
17, 21400, Note_on_c, 14, 57, 37
17, 21400, Note_on_c, 14, 50, 37
17, 21433, Note_on_c, 14, 57, 0
17, 21433, Note_on_c, 14, 50, 0
17, 21440, Note_on_c, 14, 50, 38
17, 21440, Note_on_c, 14, 57, 38
17, 21473, Note_on_c, 14, 50, 0
17, 21473, Note_on_c, 14, 57, 0
17, 21480, Note_on_c, 14, 57, 40
17, 21480, Note_on_c, 14, 50, 40
17, 21513, Note_on_c, 14, 57, 0
17, 21513, Note_on_c, 14, 50, 0
17, 21520, Note_on_c, 14, 57, 40
17, 21520, Note_on_c, 14, 50, 40
17, 21553, Note_on_c, 14, 57, 0
17, 21553, Note_on_c, 14, 50, 0
17, 21560, Note_on_c, 14, 57, 41
17, 21560, Note_on_c, 14, 50, 41
17, 21593, Note_on_c, 14, 57, 0
17, 21593, Note_on_c, 14, 50, 0
17, 21600, Note_on_c, 14, 57, 41
17, 21600, Note_on_c, 14, 50, 41
17, 21633, Note_on_c, 14, 57, 0
17, 21633, Note_on_c, 14, 50, 0
17, 21640, Note_on_c, 14, 57, 43
17, 21640, Note_on_c, 14, 50, 43
17, 21673, Note_on_c, 14, 57, 0
17, 21673, Note_on_c, 14, 50, 0
17, 21680, Note_on_c, 14, 57, 43
17, 21680, Note_on_c, 14, 50, 43
17, 21713, Note_on_c, 14, 57, 0
17, 21713, Note_on_c, 14, 50, 0
17, 21720, Note_on_c, 14, 50, 44
17, 21720, Note_on_c, 14, 57, 44
17, 21753, Note_on_c, 14, 50, 0
17, 21753, Note_on_c, 14, 57, 0
17, 21760, Note_on_c, 14, 50, 44
17, 21760, Note_on_c, 14, 57, 44
17, 21793, Note_on_c, 14, 50, 0
17, 21793, Note_on_c, 14, 57, 0
17, 21800, Note_on_c, 14, 50, 46
17, 21800, Note_on_c, 14, 57, 46
17, 21833, Note_on_c, 14, 50, 0
17, 21833, Note_on_c, 14, 57, 0
17, 21840, Note_on_c, 14, 50, 47
17, 21840, Note_on_c, 14, 57, 47
17, 21873, Note_on_c, 14, 50, 0
17, 21873, Note_on_c, 14, 57, 0
17, 21880, Note_on_c, 14, 57, 47
17, 21880, Note_on_c, 14, 50, 47
17, 21913, Note_on_c, 14, 57, 0
17, 21913, Note_on_c, 14, 50, 0
17, 21920, Note_on_c, 14, 57, 49
17, 21920, Note_on_c, 14, 50, 49
17, 21953, Note_on_c, 14, 57, 0
17, 21953, Note_on_c, 14, 50, 0
17, 21960, Note_on_c, 14, 57, 49
17, 21960, Note_on_c, 14, 50, 49
17, 21993, Note_on_c, 14, 57, 0
17, 21993, Note_on_c, 14, 50, 0
17, 22000, Note_on_c, 14, 50, 50
17, 22000, Note_on_c, 14, 57, 50
17, 22033, Note_on_c, 14, 50, 0
17, 22033, Note_on_c, 14, 57, 0
17, 22040, Note_on_c, 14, 57, 50
17, 22040, Note_on_c, 14, 50, 50
17, 22073, Note_on_c, 14, 57, 0
17, 22073, Note_on_c, 14, 50, 0
17, 22080, Note_on_c, 14, 57, 52
17, 22080, Note_on_c, 14, 50, 52
17, 22113, Note_on_c, 14, 57, 0
17, 22113, Note_on_c, 14, 50, 0
17, 22120, Note_on_c, 14, 50, 52
17, 22120, Note_on_c, 14, 57, 52
17, 22153, Note_on_c, 14, 50, 0
17, 22153, Note_on_c, 14, 57, 0
17, 22160, Note_on_c, 14, 50, 53
17, 22160, Note_on_c, 14, 57, 53
17, 22193, Note_on_c, 14, 50, 0
17, 22193, Note_on_c, 14, 57, 0
17, 22200, Note_on_c, 14, 57, 55
17, 22200, Note_on_c, 14, 50, 55
17, 22233, Note_on_c, 14, 57, 0
17, 22233, Note_on_c, 14, 50, 0
17, 22240, Note_on_c, 14, 50, 55
17, 22240, Note_on_c, 14, 57, 55
17, 22273, Note_on_c, 14, 50, 0
17, 22273, Note_on_c, 14, 57, 0
17, 22280, Note_on_c, 14, 50, 56
17, 22280, Note_on_c, 14, 57, 56
17, 22313, Note_on_c, 14, 50, 0
17, 22313, Note_on_c, 14, 57, 0
17, 22320, Note_on_c, 14, 50, 56
17, 22320, Note_on_c, 14, 57, 56
17, 22353, Note_on_c, 14, 50, 0
17, 22353, Note_on_c, 14, 57, 0
17, 22360, Note_on_c, 14, 50, 58
17, 22360, Note_on_c, 14, 57, 58
17, 22393, Note_on_c, 14, 50, 0
17, 22393, Note_on_c, 14, 57, 0
17, 22400, Note_on_c, 14, 50, 58
17, 22400, Note_on_c, 14, 57, 58
17, 22433, Note_on_c, 14, 50, 0
17, 22433, Note_on_c, 14, 57, 0
17, 22440, Note_on_c, 14, 50, 59
17, 22440, Note_on_c, 14, 57, 59
17, 22473, Note_on_c, 14, 50, 0
17, 22473, Note_on_c, 14, 57, 0
17, 22480, Note_on_c, 14, 57, 59
17, 22480, Note_on_c, 14, 50, 59
17, 22513, Note_on_c, 14, 57, 0
17, 22513, Note_on_c, 14, 50, 0
17, 22520, Note_on_c, 14, 57, 61
17, 22520, Note_on_c, 14, 50, 61
17, 22553, Note_on_c, 14, 57, 0
17, 22553, Note_on_c, 14, 50, 0
17, 22560, Note_on_c, 14, 50, 62
17, 22560, Note_on_c, 14, 57, 62
17, 22593, Note_on_c, 14, 50, 0
17, 22593, Note_on_c, 14, 57, 0
17, 22600, Note_on_c, 14, 50, 62
17, 22600, Note_on_c, 14, 57, 62
17, 22633, Note_on_c, 14, 50, 0
17, 22633, Note_on_c, 14, 57, 0
17, 22640, Note_on_c, 14, 57, 64
17, 22640, Note_on_c, 14, 50, 64
17, 22673, Note_on_c, 14, 57, 0
17, 22673, Note_on_c, 14, 50, 0
17, 22680, Note_on_c, 14, 50, 64
17, 22680, Note_on_c, 14, 57, 64
17, 22713, Note_on_c, 14, 50, 0
17, 22713, Note_on_c, 14, 57, 0
17, 22720, Note_on_c, 14, 50, 65
17, 22720, Note_on_c, 14, 57, 65
17, 22753, Note_on_c, 14, 50, 0
17, 22753, Note_on_c, 14, 57, 0
17, 22760, Note_on_c, 14, 57, 65
17, 22760, Note_on_c, 14, 50, 65
17, 22793, Note_on_c, 14, 57, 0
17, 22793, Note_on_c, 14, 50, 0
17, 22800, Note_on_c, 14, 57, 67
17, 22800, Note_on_c, 14, 50, 67
17, 22833, Note_on_c, 14, 57, 0
17, 22833, Note_on_c, 14, 50, 0
17, 22840, Note_on_c, 14, 50, 67
17, 22840, Note_on_c, 14, 57, 67
17, 22873, Note_on_c, 14, 50, 0
17, 22873, Note_on_c, 14, 57, 0
17, 22880, Note_on_c, 14, 50, 68
17, 22880, Note_on_c, 14, 57, 68
17, 22913, Note_on_c, 14, 50, 0
17, 22913, Note_on_c, 14, 57, 0
17, 22920, Note_on_c, 14, 50, 69
17, 22920, Note_on_c, 14, 62, 69
17, 22953, Note_on_c, 14, 50, 0
17, 22953, Note_on_c, 14, 62, 0
17, 22960, Note_on_c, 14, 50, 69
17, 22960, Note_on_c, 14, 62, 69
17, 22993, Note_on_c, 14, 50, 0
17, 22993, Note_on_c, 14, 62, 0
17, 23000, Note_on_c, 14, 50, 71
17, 23000, Note_on_c, 14, 62, 71
17, 23033, Note_on_c, 14, 50, 0
17, 23033, Note_on_c, 14, 62, 0
17, 23040, Note_on_c, 14, 50, 71
17, 23040, Note_on_c, 14, 62, 71
17, 23073, Note_on_c, 14, 50, 0
17, 23073, Note_on_c, 14, 62, 0
17, 23080, Note_on_c, 14, 50, 72
17, 23080, Note_on_c, 14, 62, 72
17, 23113, Note_on_c, 14, 50, 0
17, 23113, Note_on_c, 14, 62, 0
17, 23120, Note_on_c, 14, 62, 72
17, 23120, Note_on_c, 14, 50, 72
17, 23153, Note_on_c, 14, 62, 0
17, 23153, Note_on_c, 14, 50, 0
17, 23160, Note_on_c, 14, 62, 74
17, 23160, Note_on_c, 14, 50, 74
17, 23193, Note_on_c, 14, 62, 0
17, 23193, Note_on_c, 14, 50, 0
17, 23200, Note_on_c, 14, 50, 74
17, 23200, Note_on_c, 14, 62, 74
17, 23233, Note_on_c, 14, 50, 0
17, 23233, Note_on_c, 14, 62, 0
17, 23240, Note_on_c, 14, 62, 75
17, 23240, Note_on_c, 14, 50, 75
17, 23273, Note_on_c, 14, 62, 0
17, 23273, Note_on_c, 14, 50, 0
17, 23280, Note_on_c, 14, 50, 77
17, 23280, Note_on_c, 14, 62, 77
17, 23313, Note_on_c, 14, 50, 0
17, 23313, Note_on_c, 14, 62, 0
17, 23320, Note_on_c, 14, 62, 77
17, 23320, Note_on_c, 14, 50, 77
17, 23353, Note_on_c, 14, 62, 0
17, 23353, Note_on_c, 14, 50, 0
17, 23360, Note_on_c, 14, 50, 78
17, 23360, Note_on_c, 14, 62, 78
17, 23393, Note_on_c, 14, 50, 0
17, 23393, Note_on_c, 14, 62, 0
17, 23400, Note_on_c, 14, 62, 78
17, 23400, Note_on_c, 14, 50, 78
17, 23433, Note_on_c, 14, 62, 0
17, 23433, Note_on_c, 14, 50, 0
17, 23440, Note_on_c, 14, 50, 80
17, 23440, Note_on_c, 14, 62, 80
17, 23473, Note_on_c, 14, 50, 0
17, 23473, Note_on_c, 14, 62, 0
17, 23480, Note_on_c, 14, 62, 80
17, 23480, Note_on_c, 14, 50, 80
17, 23513, Note_on_c, 14, 62, 0
17, 23513, Note_on_c, 14, 50, 0
17, 23520, Note_on_c, 14, 62, 81
17, 23520, Note_on_c, 14, 50, 81
17, 23553, Note_on_c, 14, 62, 0
17, 23553, Note_on_c, 14, 50, 0
17, 23560, Note_on_c, 14, 62, 81
17, 23560, Note_on_c, 14, 50, 81
17, 23593, Note_on_c, 14, 62, 0
17, 23593, Note_on_c, 14, 50, 0
17, 23600, Note_on_c, 14, 62, 83
17, 23600, Note_on_c, 14, 50, 83
17, 23633, Note_on_c, 14, 62, 0
17, 23633, Note_on_c, 14, 50, 0
17, 23640, Note_on_c, 14, 50, 84
17, 23640, Note_on_c, 14, 62, 84
17, 23673, Note_on_c, 14, 50, 0
17, 23673, Note_on_c, 14, 62, 0
17, 23680, Note_on_c, 14, 62, 84
17, 23680, Note_on_c, 14, 50, 84
17, 23713, Note_on_c, 14, 62, 0
17, 23713, Note_on_c, 14, 50, 0
17, 23720, Note_on_c, 14, 62, 86
17, 23720, Note_on_c, 14, 50, 86
17, 23753, Note_on_c, 14, 62, 0
17, 23753, Note_on_c, 14, 50, 0
17, 23760, Note_on_c, 14, 62, 86
17, 23760, Note_on_c, 14, 50, 86
17, 23793, Note_on_c, 14, 62, 0
17, 23793, Note_on_c, 14, 50, 0
17, 23800, Note_on_c, 14, 62, 87
17, 23800, Note_on_c, 14, 50, 87
17, 23833, Note_on_c, 14, 62, 0
17, 23833, Note_on_c, 14, 50, 0
17, 23840, Note_on_c, 14, 50, 87
17, 23840, Note_on_c, 14, 62, 87
17, 23873, Note_on_c, 14, 50, 0
17, 23873, Note_on_c, 14, 62, 0
17, 23880, Note_on_c, 14, 62, 89
17, 23880, Note_on_c, 14, 50, 89
17, 23939, Note_on_c, 14, 62, 0
17, 23939, Note_on_c, 14, 50, 0
17, 23970, Note_on_c, 14, 58, 92
17, 23991, Note_on_c, 14, 58, 0
17, 24000, Note_on_c, 14, 53, 92
17, 24441, Note_on_c, 14, 53, 0
17, 24450, Note_on_c, 14, 50, 92
17, 24471, Note_on_c, 14, 50, 0
17, 24480, Note_on_c, 14, 46, 92
17, 24681, Note_on_c, 14, 46, 0
17, 24690, Note_on_c, 14, 41, 92
17, 24711, Note_on_c, 14, 41, 0
17, 24720, Note_on_c, 14, 38, 92
17, 24891, Note_on_c, 14, 38, 0
17, 24900, Note_on_c, 14, 41, 92
17, 24929, Note_on_c, 14, 41, 0
17, 24930, Note_on_c, 14, 38, 92
17, 24951, Note_on_c, 14, 38, 0
17, 24960, Note_on_c, 14, 46, 92
17, 25251, Note_on_c, 14, 46, 0
17, 25260, Note_on_c, 14, 50, 92
17, 25304, Note_on_c, 14, 50, 0
17, 25320, Note_on_c, 14, 48, 92
17, 25364, Note_on_c, 14, 48, 0
17, 25380, Note_on_c, 14, 46, 92
17, 25424, Note_on_c, 14, 46, 0
17, 25440, Note_on_c, 14, 53, 92
17, 25529, Note_on_c, 14, 53, 0
17, 25560, Note_on_c, 14, 51, 92
17, 25649, Note_on_c, 14, 51, 0
17, 25680, Note_on_c, 14, 48, 92
17, 25769, Note_on_c, 14, 48, 0
17, 25800, Note_on_c, 14, 53, 92
17, 25889, Note_on_c, 14, 53, 0
17, 25920, Note_on_c, 14, 50, 104
17, 26039, Note_on_c, 14, 50, 0
17, 26220, Note_on_c, 14, 53, 92
17, 26264, Note_on_c, 14, 53, 0
17, 26280, Note_on_c, 14, 51, 92
17, 26324, Note_on_c, 14, 51, 0
17, 26340, Note_on_c, 14, 50, 92
17, 26384, Note_on_c, 14, 50, 0
17, 26400, Note_on_c, 14, 58, 104
17, 26519, Note_on_c, 14, 58, 0
17, 26880, Note_on_c, 14, 52, 104
17, 26999, Note_on_c, 14, 52, 0
17, 27180, Note_on_c, 14, 55, 92
17, 27224, Note_on_c, 14, 55, 0
17, 27240, Note_on_c, 14, 53, 92
17, 27284, Note_on_c, 14, 53, 0
17, 27300, Note_on_c, 14, 52, 92
17, 27344, Note_on_c, 14, 52, 0
17, 27360, Note_on_c, 14, 61, 104
17, 27479, Note_on_c, 14, 61, 0
17, 27840, Note_on_c, 14, 53, 104
17, 27959, Note_on_c, 14, 53, 0
17, 28140, Note_on_c, 14, 57, 92
17, 28184, Note_on_c, 14, 57, 0
17, 28200, Note_on_c, 14, 55, 92
17, 28244, Note_on_c, 14, 55, 0
17, 28260, Note_on_c, 14, 53, 92
17, 28304, Note_on_c, 14, 53, 0
17, 28320, Note_on_c, 14, 62, 104
17, 28439, Note_on_c, 14, 62, 0
17, 28620, Note_on_c, 14, 57, 92
17, 28664, Note_on_c, 14, 57, 0
17, 28680, Note_on_c, 14, 55, 92
17, 28724, Note_on_c, 14, 55, 0
17, 28740, Note_on_c, 14, 54, 92
17, 28784, Note_on_c, 14, 54, 0
17, 28800, Note_on_c, 14, 62, 104
17, 28919, Note_on_c, 14, 62, 0
17, 29100, Note_on_c, 14, 58, 92
17, 29144, Note_on_c, 14, 58, 0
17, 29160, Note_on_c, 14, 57, 92
17, 29204, Note_on_c, 14, 57, 0
17, 29220, Note_on_c, 14, 55, 92
17, 29264, Note_on_c, 14, 55, 0
17, 29280, Note_on_c, 14, 62, 104
17, 29324, Note_on_c, 14, 62, 0
17, 29340, Note_on_c, 14, 46, 92
17, 29384, Note_on_c, 14, 46, 0
17, 29400, Note_on_c, 14, 45, 92
17, 29444, Note_on_c, 14, 45, 0
17, 29460, Note_on_c, 14, 43, 92
17, 29504, Note_on_c, 14, 43, 0
17, 29520, Note_on_c, 14, 44, 104
17, 29564, Note_on_c, 14, 44, 0
17, 29580, Note_on_c, 14, 56, 92
17, 29624, Note_on_c, 14, 56, 0
17, 29640, Note_on_c, 14, 56, 92
17, 29684, Note_on_c, 14, 56, 0
17, 29700, Note_on_c, 14, 56, 92
17, 29744, Note_on_c, 14, 56, 0
17, 29760, Note_on_c, 14, 45, 104
17, 29819, Note_on_c, 14, 45, 0
17, 29820, Note_on_c, 14, 45, 92
17, 30224, Note_on_c, 14, 45, 0
17, 30240, Note_on_c, 14, 49, 92
17, 30329, Note_on_c, 14, 49, 0
17, 30360, Note_on_c, 14, 50, 92
17, 30449, Note_on_c, 14, 50, 0
17, 30480, Note_on_c, 14, 52, 92
17, 30569, Note_on_c, 14, 52, 0
17, 30600, Note_on_c, 14, 53, 92
17, 30689, Note_on_c, 14, 53, 0
17, 30720, Note_on_c, 14, 55, 92
17, 30809, Note_on_c, 14, 55, 0
17, 30840, Note_on_c, 14, 53, 92
17, 30929, Note_on_c, 14, 53, 0
17, 30960, Note_on_c, 14, 52, 92
17, 31049, Note_on_c, 14, 52, 0
17, 31080, Note_on_c, 14, 50, 92
17, 31169, Note_on_c, 14, 50, 0
17, 31200, Note_on_c, 14, 49, 104
17, 31379, Note_on_c, 14, 49, 0
17, 31440, Note_on_c, 14, 50, 104
17, 31619, Note_on_c, 14, 50, 0
17, 31680, Note_on_c, 14, 45, 104
17, 31731, Note_on_c, 14, 45, 0
17, 31740, Note_on_c, 14, 57, 92
17, 31799, Note_on_c, 14, 57, 0
17, 31800, Note_on_c, 14, 58, 92
17, 31851, Note_on_c, 14, 58, 0
17, 31860, Note_on_c, 14, 57, 92
17, 31919, Note_on_c, 14, 57, 0
17, 31920, Note_on_c, 14, 58, 92
17, 31971, Note_on_c, 14, 58, 0
17, 31980, Note_on_c, 14, 57, 92
17, 32039, Note_on_c, 14, 57, 0
17, 32040, Note_on_c, 14, 58, 92
17, 32091, Note_on_c, 14, 58, 0
17, 32100, Note_on_c, 14, 57, 92
17, 32159, Note_on_c, 14, 57, 0
17, 32160, Note_on_c, 14, 55, 92
17, 32211, Note_on_c, 14, 55, 0
17, 32220, Note_on_c, 14, 45, 92
17, 32279, Note_on_c, 14, 45, 0
17, 32280, Note_on_c, 14, 53, 92
17, 32331, Note_on_c, 14, 53, 0
17, 32340, Note_on_c, 14, 45, 92
17, 32399, Note_on_c, 14, 45, 0
17, 32400, Note_on_c, 14, 52, 92
17, 32451, Note_on_c, 14, 52, 0
17, 32460, Note_on_c, 14, 45, 92
17, 32519, Note_on_c, 14, 45, 0
17, 32520, Note_on_c, 14, 50, 92
17, 32571, Note_on_c, 14, 50, 0
17, 32580, Note_on_c, 14, 45, 92
17, 32639, Note_on_c, 14, 45, 0
17, 32640, Note_on_c, 14, 49, 92
17, 32691, Note_on_c, 14, 49, 0
17, 32700, Note_on_c, 14, 45, 92
17, 32759, Note_on_c, 14, 45, 0
17, 32760, Note_on_c, 14, 50, 92
17, 32811, Note_on_c, 14, 50, 0
17, 32820, Note_on_c, 14, 45, 92
17, 32879, Note_on_c, 14, 45, 0
17, 32880, Note_on_c, 14, 52, 92
17, 32931, Note_on_c, 14, 52, 0
17, 32940, Note_on_c, 14, 45, 92
17, 32999, Note_on_c, 14, 45, 0
17, 33000, Note_on_c, 14, 53, 92
17, 33051, Note_on_c, 14, 53, 0
17, 33060, Note_on_c, 14, 45, 92
17, 33119, Note_on_c, 14, 45, 0
17, 33120, Note_on_c, 14, 55, 104
17, 33299, Note_on_c, 14, 55, 0
17, 33360, Note_on_c, 14, 53, 104
17, 33539, Note_on_c, 14, 53, 0
17, 33600, Note_on_c, 14, 52, 104
17, 33779, Note_on_c, 14, 52, 0
17, 33840, Note_on_c, 14, 49, 104
17, 34019, Note_on_c, 14, 49, 0
17, 34080, Note_on_c, 14, 48, 104
17, 34259, Note_on_c, 14, 48, 0
17, 34320, Note_on_c, 14, 42, 104
17, 34499, Note_on_c, 14, 42, 0
17, 34560, Note_on_c, 14, 41, 92
17, 34560, Control_c, 14, 11, 127
17, 34587, Control_c, 14, 11, 123
17, 34613, Control_c, 14, 11, 118
17, 34640, Control_c, 14, 11, 114
17, 34667, Control_c, 14, 11, 109
17, 34693, Control_c, 14, 11, 105
17, 34720, Control_c, 14, 11, 100
17, 34739, Note_on_c, 14, 41, 0
17, 34747, Control_c, 14, 11, 96
17, 34773, Control_c, 14, 11, 91
17, 34800, Control_c, 14, 11, 87
17, 34800, Note_on_c, 14, 41, 92
17, 34827, Control_c, 14, 11, 83
17, 34853, Control_c, 14, 11, 78
17, 34880, Control_c, 14, 11, 74
17, 34907, Control_c, 14, 11, 69
17, 34933, Control_c, 14, 11, 65
17, 34960, Control_c, 14, 11, 60
17, 34979, Note_on_c, 14, 41, 0
17, 35038, Control_c, 14, 11, 127
17, 35040, Note_on_c, 14, 41, 44
17, 35144, Note_on_c, 14, 41, 0
17, 35160, Note_on_c, 14, 53, 44
17, 35211, Note_on_c, 14, 53, 0
17, 35220, Note_on_c, 14, 53, 44
17, 35271, Note_on_c, 14, 53, 0
17, 35280, Note_on_c, 14, 53, 44
17, 35399, Note_on_c, 14, 53, 0
17, 36120, Note_on_c, 14, 53, 44
17, 36171, Note_on_c, 14, 53, 0
17, 36180, Note_on_c, 14, 53, 44
17, 36231, Note_on_c, 14, 53, 0
17, 36240, Note_on_c, 14, 53, 44
17, 36359, Note_on_c, 14, 53, 0
17, 37080, Note_on_c, 14, 53, 44
17, 37131, Note_on_c, 14, 53, 0
17, 37140, Note_on_c, 14, 53, 44
17, 37191, Note_on_c, 14, 53, 0
17, 37200, Note_on_c, 14, 53, 44
17, 37319, Note_on_c, 14, 53, 0
17, 37800, Note_on_c, 14, 45, 44
17, 37971, Note_on_c, 14, 45, 0
17, 37980, Note_on_c, 14, 46, 44
17, 38024, Note_on_c, 14, 46, 0
17, 38040, Note_on_c, 14, 49, 44
17, 38084, Note_on_c, 14, 49, 0
17, 38100, Note_on_c, 14, 50, 44
17, 38144, Note_on_c, 14, 50, 0
17, 38160, Note_on_c, 14, 53, 44
17, 38279, Note_on_c, 14, 53, 0
17, 38400, Note_on_c, 14, 49, 44
17, 38444, Note_on_c, 14, 49, 0
17, 38460, Note_on_c, 14, 50, 44
17, 38504, Note_on_c, 14, 50, 0
17, 38520, Note_on_c, 14, 53, 44
17, 38564, Note_on_c, 14, 53, 0
17, 38580, Note_on_c, 14, 57, 44
17, 38624, Note_on_c, 14, 57, 0
17, 38640, Note_on_c, 14, 58, 44
17, 38759, Note_on_c, 14, 58, 0
17, 38880, Note_on_c, 14, 48, 44
17, 38924, Note_on_c, 14, 48, 0
17, 38940, Note_on_c, 14, 53, 44
17, 38984, Note_on_c, 14, 53, 0
17, 39000, Note_on_c, 14, 57, 44
17, 39044, Note_on_c, 14, 57, 0
17, 39060, Note_on_c, 14, 59, 44
17, 39104, Note_on_c, 14, 59, 0
17, 39120, Note_on_c, 14, 60, 44
17, 39239, Note_on_c, 14, 60, 0
17, 39360, Note_on_c, 14, 51, 44
17, 39404, Note_on_c, 14, 51, 0
17, 39420, Note_on_c, 14, 53, 44
17, 39464, Note_on_c, 14, 53, 0
17, 39480, Note_on_c, 14, 57, 44
17, 39524, Note_on_c, 14, 57, 0
17, 39540, Note_on_c, 14, 60, 44
17, 39584, Note_on_c, 14, 60, 0
17, 39600, Note_on_c, 14, 63, 44
17, 39719, Note_on_c, 14, 63, 0
17, 40080, Note_on_c, 14, 50, 50
17, 40124, Note_on_c, 14, 50, 0
17, 40140, Note_on_c, 14, 53, 51
17, 40184, Note_on_c, 14, 53, 0
17, 40200, Note_on_c, 14, 57, 53
17, 40244, Note_on_c, 14, 57, 0
17, 40260, Note_on_c, 14, 58, 54
17, 40304, Note_on_c, 14, 58, 0
17, 40320, Note_on_c, 14, 62, 56
17, 40439, Note_on_c, 14, 62, 0
17, 40560, Note_on_c, 14, 50, 62
17, 40604, Note_on_c, 14, 50, 0
17, 40620, Note_on_c, 14, 53, 63
17, 40664, Note_on_c, 14, 53, 0
17, 40680, Note_on_c, 14, 57, 65
17, 40724, Note_on_c, 14, 57, 0
17, 40740, Note_on_c, 14, 58, 66
17, 40784, Note_on_c, 14, 58, 0
17, 40800, Note_on_c, 14, 60, 68
17, 40919, Note_on_c, 14, 60, 0
17, 41040, Note_on_c, 14, 48, 62
17, 41084, Note_on_c, 14, 48, 0
17, 41100, Note_on_c, 14, 51, 61
17, 41144, Note_on_c, 14, 51, 0
17, 41160, Note_on_c, 14, 53, 59
17, 41204, Note_on_c, 14, 53, 0
17, 41220, Note_on_c, 14, 57, 58
17, 41264, Note_on_c, 14, 57, 0
17, 41280, Note_on_c, 14, 60, 56
17, 41399, Note_on_c, 14, 60, 0
17, 41520, Note_on_c, 14, 51, 50
17, 41564, Note_on_c, 14, 51, 0
17, 41580, Note_on_c, 14, 57, 49
17, 41624, Note_on_c, 14, 57, 0
17, 41640, Note_on_c, 14, 60, 47
17, 41684, Note_on_c, 14, 60, 0
17, 41700, Note_on_c, 14, 63, 46
17, 41744, Note_on_c, 14, 63, 0
17, 41760, Note_on_c, 14, 62, 44
17, 41879, Note_on_c, 14, 62, 0
17, 43740, Note_on_c, 14, 46, 46
17, 43799, Note_on_c, 14, 46, 0
17, 43800, Note_on_c, 14, 48, 48
17, 43851, Note_on_c, 14, 48, 0
17, 43860, Note_on_c, 14, 50, 50
17, 43919, Note_on_c, 14, 50, 0
17, 43920, Note_on_c, 14, 51, 53
17, 43971, Note_on_c, 14, 51, 0
17, 43980, Note_on_c, 14, 53, 55
17, 44039, Note_on_c, 14, 53, 0
17, 44040, Note_on_c, 14, 55, 57
17, 44091, Note_on_c, 14, 55, 0
17, 44100, Note_on_c, 14, 57, 59
17, 44159, Note_on_c, 14, 57, 0
17, 44160, Note_on_c, 14, 58, 62
17, 44211, Note_on_c, 14, 58, 0
17, 44220, Note_on_c, 14, 60, 64
17, 44279, Note_on_c, 14, 60, 0
17, 44280, Note_on_c, 14, 62, 66
17, 44331, Note_on_c, 14, 62, 0
17, 44340, Note_on_c, 14, 63, 68
17, 44399, Note_on_c, 14, 63, 0
17, 44400, Note_on_c, 14, 65, 71
17, 44451, Note_on_c, 14, 65, 0
17, 44460, Note_on_c, 14, 65, 73
17, 44519, Note_on_c, 14, 65, 0
17, 44520, Note_on_c, 14, 67, 75
17, 44571, Note_on_c, 14, 67, 0
17, 44580, Note_on_c, 14, 68, 77
17, 44639, Note_on_c, 14, 68, 0
17, 44640, Note_on_c, 14, 63, 80
17, 44691, Note_on_c, 14, 63, 0
17, 44700, Note_on_c, 14, 62, 80
17, 44759, Note_on_c, 14, 62, 0
17, 44760, Note_on_c, 14, 60, 80
17, 44811, Note_on_c, 14, 60, 0
17, 44820, Note_on_c, 14, 58, 80
17, 44879, Note_on_c, 14, 58, 0
17, 44880, Note_on_c, 14, 57, 80
17, 44931, Note_on_c, 14, 57, 0
17, 44940, Note_on_c, 14, 55, 80
17, 44999, Note_on_c, 14, 55, 0
17, 45000, Note_on_c, 14, 53, 80
17, 45051, Note_on_c, 14, 53, 0
17, 45060, Note_on_c, 14, 51, 80
17, 45119, Note_on_c, 14, 51, 0
17, 45120, Note_on_c, 14, 53, 80
17, 45239, Note_on_c, 14, 53, 0
17, 45360, Note_on_c, 14, 65, 80
17, 45449, Note_on_c, 14, 65, 0
17, 46620, Note_on_c, 14, 55, 45
17, 46679, Note_on_c, 14, 55, 0
17, 46680, Note_on_c, 14, 56, 46
17, 46731, Note_on_c, 14, 56, 0
17, 46740, Note_on_c, 14, 58, 47
17, 46799, Note_on_c, 14, 58, 0
17, 46800, Note_on_c, 14, 60, 48
17, 46851, Note_on_c, 14, 60, 0
17, 46860, Note_on_c, 14, 62, 49
17, 46919, Note_on_c, 14, 62, 0
17, 46920, Note_on_c, 14, 63, 50
17, 46971, Note_on_c, 14, 63, 0
17, 46980, Note_on_c, 14, 65, 51
17, 47039, Note_on_c, 14, 65, 0
17, 47040, Note_on_c, 14, 67, 52
17, 47159, Note_on_c, 14, 67, 0
17, 47518, Control_c, 14, 11, 67
17, 47520, Note_on_c, 14, 60, 92
17, 47547, Control_c, 14, 11, 69
17, 47573, Control_c, 14, 11, 70
17, 47600, Control_c, 14, 11, 72
17, 47627, Control_c, 14, 11, 74
17, 47653, Control_c, 14, 11, 75
17, 47680, Control_c, 14, 11, 77
17, 47707, Control_c, 14, 11, 79
17, 47733, Control_c, 14, 11, 80
17, 47760, Control_c, 14, 11, 82
17, 47787, Control_c, 14, 11, 84
17, 47813, Control_c, 14, 11, 85
17, 47840, Control_c, 14, 11, 87
17, 47864, Note_on_c, 14, 60, 0
17, 47867, Control_c, 14, 11, 89
17, 47880, Note_on_c, 14, 58, 92
17, 47893, Control_c, 14, 11, 90
17, 47920, Control_c, 14, 11, 92
17, 47947, Control_c, 14, 11, 94
17, 47973, Control_c, 14, 11, 95
17, 47999, Note_on_c, 14, 58, 0
17, 48000, Note_on_c, 14, 57, 92
17, 48000, Control_c, 14, 11, 97
17, 48027, Control_c, 14, 11, 99
17, 48051, Note_on_c, 14, 57, 0
17, 48053, Control_c, 14, 11, 100
17, 48060, Note_on_c, 14, 55, 92
17, 48080, Control_c, 14, 11, 102
17, 48107, Control_c, 14, 11, 104
17, 48119, Note_on_c, 14, 55, 0
17, 48120, Note_on_c, 14, 53, 92
17, 48133, Control_c, 14, 11, 105
17, 48160, Control_c, 14, 11, 107
17, 48171, Note_on_c, 14, 53, 0
17, 48180, Note_on_c, 14, 51, 92
17, 48187, Control_c, 14, 11, 109
17, 48213, Control_c, 14, 11, 110
17, 48239, Note_on_c, 14, 51, 0
17, 48240, Control_c, 14, 11, 112
17, 48240, Note_on_c, 14, 50, 92
17, 48267, Control_c, 14, 11, 114
17, 48291, Note_on_c, 14, 50, 0
17, 48293, Control_c, 14, 11, 115
17, 48300, Note_on_c, 14, 48, 92
17, 48320, Control_c, 14, 11, 117
17, 48347, Control_c, 14, 11, 119
17, 48359, Note_on_c, 14, 48, 0
17, 48360, Note_on_c, 14, 46, 92
17, 48373, Control_c, 14, 11, 120
17, 48400, Control_c, 14, 11, 122
17, 48411, Note_on_c, 14, 46, 0
17, 48420, Note_on_c, 14, 45, 92
17, 48427, Control_c, 14, 11, 124
17, 48453, Control_c, 14, 11, 127
17, 48464, Note_on_c, 14, 45, 0
17, 48480, Note_on_c, 14, 50, 92
17, 48569, Note_on_c, 14, 50, 0
17, 48600, Note_on_c, 14, 50, 92
17, 48666, Note_on_c, 14, 50, 0
17, 48690, Note_on_c, 14, 50, 92
17, 48711, Note_on_c, 14, 50, 0
17, 48720, Note_on_c, 14, 50, 92
17, 48839, Note_on_c, 14, 50, 0
17, 48960, Note_on_c, 14, 51, 92
17, 49049, Note_on_c, 14, 51, 0
17, 49080, Note_on_c, 14, 50, 92
17, 49146, Note_on_c, 14, 50, 0
17, 49170, Note_on_c, 14, 50, 92
17, 49191, Note_on_c, 14, 50, 0
17, 49200, Note_on_c, 14, 51, 92
17, 49319, Note_on_c, 14, 51, 0
17, 50400, Note_on_c, 14, 50, 92
17, 50489, Note_on_c, 14, 50, 0
17, 50520, Note_on_c, 14, 50, 92
17, 50586, Note_on_c, 14, 50, 0
17, 50610, Note_on_c, 14, 50, 92
17, 50631, Note_on_c, 14, 50, 0
17, 50640, Note_on_c, 14, 50, 92
17, 50759, Note_on_c, 14, 50, 0
17, 50880, Note_on_c, 14, 51, 92
17, 50969, Note_on_c, 14, 51, 0
17, 51000, Note_on_c, 14, 50, 92
17, 51066, Note_on_c, 14, 50, 0
17, 51090, Note_on_c, 14, 50, 92
17, 51111, Note_on_c, 14, 50, 0
17, 51120, Note_on_c, 14, 51, 92
17, 51239, Note_on_c, 14, 51, 0
17, 52560, Note_on_c, 14, 47, 32
17, 52649, Note_on_c, 14, 47, 0
17, 52680, Note_on_c, 14, 46, 32
17, 52746, Note_on_c, 14, 46, 0
17, 52770, Note_on_c, 14, 46, 32
17, 52791, Note_on_c, 14, 46, 0
17, 52800, Note_on_c, 14, 47, 32
17, 52919, Note_on_c, 14, 47, 0
17, 53040, Note_on_c, 14, 47, 32
17, 53129, Note_on_c, 14, 47, 0
17, 53160, Note_on_c, 14, 47, 32
17, 53226, Note_on_c, 14, 47, 0
17, 53250, Note_on_c, 14, 47, 32
17, 53271, Note_on_c, 14, 47, 0
17, 53280, Note_on_c, 14, 47, 32
17, 53399, Note_on_c, 14, 47, 0
17, 53520, Note_on_c, 14, 47, 32
17, 53609, Note_on_c, 14, 47, 0
17, 53640, Note_on_c, 14, 46, 32
17, 53706, Note_on_c, 14, 46, 0
17, 53730, Note_on_c, 14, 46, 32
17, 53751, Note_on_c, 14, 46, 0
17, 53760, Note_on_c, 14, 47, 32
17, 53849, Note_on_c, 14, 47, 0
17, 53880, Note_on_c, 14, 46, 32
17, 53946, Note_on_c, 14, 46, 0
17, 53970, Note_on_c, 14, 46, 32
17, 53991, Note_on_c, 14, 46, 0
17, 54000, Note_on_c, 14, 47, 32
17, 54089, Note_on_c, 14, 47, 0
17, 54120, Note_on_c, 14, 46, 32
17, 54186, Note_on_c, 14, 46, 0
17, 54210, Note_on_c, 14, 46, 32
17, 54231, Note_on_c, 14, 46, 0
17, 54240, Note_on_c, 14, 54, 32
17, 54299, Note_on_c, 14, 54, 0
17, 54300, Note_on_c, 14, 64, 32
17, 54359, Note_on_c, 14, 64, 0
17, 54360, Note_on_c, 14, 63, 32
17, 54419, Note_on_c, 14, 63, 0
17, 54420, Note_on_c, 14, 61, 32
17, 54479, Note_on_c, 14, 61, 0
17, 54480, Note_on_c, 14, 59, 32
17, 54539, Note_on_c, 14, 59, 0
17, 54540, Note_on_c, 14, 58, 32
17, 54599, Note_on_c, 14, 58, 0
17, 54600, Note_on_c, 14, 56, 32
17, 54659, Note_on_c, 14, 56, 0
17, 54660, Note_on_c, 14, 54, 32
17, 54719, Note_on_c, 14, 54, 0
17, 54720, Note_on_c, 14, 52, 32
17, 54779, Note_on_c, 14, 52, 0
17, 54780, Note_on_c, 14, 51, 32
17, 54839, Note_on_c, 14, 51, 0
17, 54840, Note_on_c, 14, 49, 32
17, 54899, Note_on_c, 14, 49, 0
17, 54900, Note_on_c, 14, 47, 32
17, 54959, Note_on_c, 14, 47, 0
17, 54960, Note_on_c, 14, 46, 32
17, 55019, Note_on_c, 14, 46, 0
17, 55020, Note_on_c, 14, 47, 32
17, 55079, Note_on_c, 14, 47, 0
17, 55080, Note_on_c, 14, 46, 32
17, 55131, Note_on_c, 14, 46, 0
17, 55140, Note_on_c, 14, 46, 32
17, 55259, Note_on_c, 14, 46, 0
17, 55260, Note_on_c, 14, 45, 32
17, 55319, Note_on_c, 14, 45, 0
17, 55320, Note_on_c, 14, 52, 32
17, 55379, Note_on_c, 14, 52, 0
17, 55380, Note_on_c, 14, 53, 32
17, 55439, Note_on_c, 14, 53, 0
17, 55440, Note_on_c, 14, 54, 32
17, 55499, Note_on_c, 14, 54, 0
17, 55500, Note_on_c, 14, 52, 32
17, 55559, Note_on_c, 14, 52, 0
17, 55560, Note_on_c, 14, 53, 32
17, 55619, Note_on_c, 14, 53, 0
17, 55620, Note_on_c, 14, 45, 32
17, 55679, Note_on_c, 14, 45, 0
17, 55680, Note_on_c, 14, 46, 32
17, 55739, Note_on_c, 14, 46, 0
17, 55740, Note_on_c, 14, 56, 32
17, 55799, Note_on_c, 14, 56, 0
17, 55800, Note_on_c, 14, 54, 32
17, 55859, Note_on_c, 14, 54, 0
17, 55860, Note_on_c, 14, 55, 32
17, 55919, Note_on_c, 14, 55, 0
17, 55920, Note_on_c, 14, 58, 32
17, 55979, Note_on_c, 14, 58, 0
17, 55980, Note_on_c, 14, 56, 32
17, 56039, Note_on_c, 14, 56, 0
17, 56040, Note_on_c, 14, 57, 32
17, 56099, Note_on_c, 14, 57, 0
17, 56100, Note_on_c, 14, 48, 32
17, 56151, Note_on_c, 14, 48, 0
17, 56160, Note_on_c, 14, 50, 32
17, 56219, Note_on_c, 14, 50, 0
17, 56220, Note_on_c, 14, 60, 32
17, 56279, Note_on_c, 14, 60, 0
17, 56280, Note_on_c, 14, 57, 32
17, 56339, Note_on_c, 14, 57, 0
17, 56340, Note_on_c, 14, 58, 32
17, 56399, Note_on_c, 14, 58, 0
17, 56400, Note_on_c, 14, 62, 32
17, 56459, Note_on_c, 14, 62, 0
17, 56460, Note_on_c, 14, 59, 32
17, 56519, Note_on_c, 14, 59, 0
17, 56520, Note_on_c, 14, 60, 32
17, 56579, Note_on_c, 14, 60, 0
17, 56580, Note_on_c, 14, 51, 32
17, 56639, Note_on_c, 14, 51, 0
17, 56640, Note_on_c, 14, 63, 32
17, 56699, Note_on_c, 14, 63, 0
17, 56700, Note_on_c, 14, 61, 32
17, 56759, Note_on_c, 14, 61, 0
17, 56760, Note_on_c, 14, 62, 32
17, 56819, Note_on_c, 14, 62, 0
17, 56820, Note_on_c, 14, 53, 32
17, 56879, Note_on_c, 14, 53, 0
17, 56880, Note_on_c, 14, 65, 32
17, 56939, Note_on_c, 14, 65, 0
17, 56940, Note_on_c, 14, 62, 32
17, 56999, Note_on_c, 14, 62, 0
17, 57000, Note_on_c, 14, 63, 32
17, 57059, Note_on_c, 14, 63, 0
17, 57060, Note_on_c, 14, 55, 32
17, 57111, Note_on_c, 14, 55, 0
17, 57120, Note_on_c, 14, 54, 32
17, 57239, Note_on_c, 14, 54, 0
17, 57240, Note_on_c, 14, 53, 32
17, 57479, Note_on_c, 14, 53, 0
17, 57480, Note_on_c, 14, 57, 32
17, 57599, Note_on_c, 14, 57, 0
17, 57720, Note_on_c, 14, 45, 32
17, 57959, Note_on_c, 14, 45, 0
17, 57960, Note_on_c, 14, 53, 32
17, 58079, Note_on_c, 14, 53, 0
17, 58200, Note_on_c, 14, 53, 32
17, 58439, Note_on_c, 14, 53, 0
17, 58440, Note_on_c, 14, 58, 32
17, 58559, Note_on_c, 14, 58, 0
17, 58680, Note_on_c, 14, 58, 32
17, 58919, Note_on_c, 14, 58, 0
17, 58920, Note_on_c, 14, 65, 32
17, 59039, Note_on_c, 14, 65, 0
17, 59040, Control_c, 14, 11, 47
17, 59088, Control_c, 14, 11, 48
17, 59136, Control_c, 14, 11, 49
17, 59160, Note_on_c, 14, 41, 80
17, 59184, Control_c, 14, 11, 50
17, 59232, Control_c, 14, 11, 51
17, 59280, Control_c, 14, 11, 52
17, 59328, Control_c, 14, 11, 53
17, 59376, Control_c, 14, 11, 54
17, 59399, Note_on_c, 14, 41, 0
17, 59400, Note_on_c, 14, 45, 80
17, 59424, Control_c, 14, 11, 55
17, 59472, Control_c, 14, 11, 56
17, 59519, Note_on_c, 14, 45, 0
17, 59520, Control_c, 14, 11, 57
17, 59568, Control_c, 14, 11, 58
17, 59616, Control_c, 14, 11, 59
17, 59640, Note_on_c, 14, 45, 80
17, 59664, Control_c, 14, 11, 60
17, 59712, Control_c, 14, 11, 61
17, 59760, Control_c, 14, 11, 62
17, 59808, Control_c, 14, 11, 63
17, 59856, Control_c, 14, 11, 64
17, 59879, Note_on_c, 14, 45, 0
17, 59880, Note_on_c, 14, 53, 80
17, 59904, Control_c, 14, 11, 65
17, 59952, Control_c, 14, 11, 66
17, 59999, Note_on_c, 14, 53, 0
17, 60000, Control_c, 14, 11, 67
17, 60048, Control_c, 14, 11, 68
17, 60096, Control_c, 14, 11, 69
17, 60120, Note_on_c, 14, 53, 80
17, 60144, Control_c, 14, 11, 70
17, 60192, Control_c, 14, 11, 71
17, 60240, Control_c, 14, 11, 72
17, 60288, Control_c, 14, 11, 73
17, 60336, Control_c, 14, 11, 74
17, 60359, Note_on_c, 14, 53, 0
17, 60360, Note_on_c, 14, 58, 80
17, 60384, Control_c, 14, 11, 75
17, 60432, Control_c, 14, 11, 76
17, 60479, Note_on_c, 14, 58, 0
17, 60480, Control_c, 14, 11, 77
17, 60528, Control_c, 14, 11, 78
17, 60576, Control_c, 14, 11, 79
17, 60600, Note_on_c, 14, 58, 80
17, 60624, Control_c, 14, 11, 80
17, 60672, Control_c, 14, 11, 81
17, 60720, Control_c, 14, 11, 82
17, 60768, Control_c, 14, 11, 83
17, 60816, Control_c, 14, 11, 84
17, 60839, Note_on_c, 14, 58, 0
17, 60840, Note_on_c, 14, 65, 80
17, 60864, Control_c, 14, 11, 85
17, 60912, Control_c, 14, 11, 86
17, 60959, Note_on_c, 14, 65, 0
17, 60960, Control_c, 14, 11, 87
17, 61008, Control_c, 14, 11, 88
17, 61056, Control_c, 14, 11, 89
17, 61080, Note_on_c, 14, 41, 80
17, 61104, Control_c, 14, 11, 90
17, 61139, Note_on_c, 14, 41, 0
17, 61140, Note_on_c, 14, 48, 80
17, 61152, Control_c, 14, 11, 91
17, 61199, Note_on_c, 14, 48, 0
17, 61200, Control_c, 14, 11, 92
17, 61248, Control_c, 14, 11, 93
17, 61296, Control_c, 14, 11, 94
17, 61320, Note_on_c, 14, 53, 80
17, 61344, Control_c, 14, 11, 95
17, 61379, Note_on_c, 14, 53, 0
17, 61380, Note_on_c, 14, 60, 80
17, 61392, Control_c, 14, 11, 96
17, 61439, Note_on_c, 14, 60, 0
17, 61440, Control_c, 14, 11, 97
17, 61488, Control_c, 14, 11, 98
17, 61536, Control_c, 14, 11, 99
17, 61560, Note_on_c, 14, 41, 80
17, 61584, Control_c, 14, 11, 100
17, 61619, Note_on_c, 14, 41, 0
17, 61620, Note_on_c, 14, 50, 80
17, 61632, Control_c, 14, 11, 101
17, 61679, Note_on_c, 14, 50, 0
17, 61680, Control_c, 14, 11, 102
17, 61728, Control_c, 14, 11, 103
17, 61776, Control_c, 14, 11, 104
17, 61800, Note_on_c, 14, 53, 80
17, 61824, Control_c, 14, 11, 105
17, 61859, Note_on_c, 14, 53, 0
17, 61860, Note_on_c, 14, 62, 80
17, 61872, Control_c, 14, 11, 106
17, 61911, Note_on_c, 14, 62, 0
17, 61920, Control_c, 14, 11, 107
17, 61920, Note_on_c, 14, 41, 80
17, 61968, Control_c, 14, 11, 108
17, 61979, Note_on_c, 14, 41, 0
17, 61980, Note_on_c, 14, 51, 80
17, 62016, Control_c, 14, 11, 109
17, 62039, Note_on_c, 14, 51, 0
17, 62040, Note_on_c, 14, 41, 80
17, 62064, Control_c, 14, 11, 110
17, 62099, Note_on_c, 14, 41, 0
17, 62100, Note_on_c, 14, 51, 80
17, 62112, Control_c, 14, 11, 111
17, 62159, Note_on_c, 14, 51, 0
17, 62160, Control_c, 14, 11, 112
17, 62160, Note_on_c, 14, 41, 80
17, 62208, Control_c, 14, 11, 113
17, 62219, Note_on_c, 14, 41, 0
17, 62220, Note_on_c, 14, 51, 80
17, 62256, Control_c, 14, 11, 114
17, 62279, Note_on_c, 14, 51, 0
17, 62280, Note_on_c, 14, 41, 80
17, 62304, Control_c, 14, 11, 115
17, 62339, Note_on_c, 14, 41, 0
17, 62340, Note_on_c, 14, 50, 80
17, 62352, Control_c, 14, 11, 116
17, 62391, Note_on_c, 14, 50, 0
17, 62400, Control_c, 14, 11, 117
17, 62400, Note_on_c, 14, 41, 80
17, 62448, Control_c, 14, 11, 118
17, 62459, Note_on_c, 14, 41, 0
17, 62460, Note_on_c, 14, 51, 80
17, 62496, Control_c, 14, 11, 119
17, 62519, Note_on_c, 14, 51, 0
17, 62520, Note_on_c, 14, 41, 80
17, 62544, Control_c, 14, 11, 120
17, 62579, Note_on_c, 14, 41, 0
17, 62580, Note_on_c, 14, 48, 80
17, 62592, Control_c, 14, 11, 121
17, 62639, Note_on_c, 14, 48, 0
17, 62640, Note_on_c, 14, 41, 80
17, 62640, Control_c, 14, 11, 122
17, 62688, Control_c, 14, 11, 123
17, 62699, Note_on_c, 14, 41, 0
17, 62700, Note_on_c, 14, 45, 80
17, 62736, Control_c, 14, 11, 124
17, 62759, Note_on_c, 14, 45, 0
17, 62760, Note_on_c, 14, 41, 80
17, 62784, Control_c, 14, 11, 125
17, 62819, Note_on_c, 14, 41, 0
17, 62820, Note_on_c, 14, 46, 80
17, 62832, Control_c, 14, 11, 127
17, 62879, Note_on_c, 14, 46, 0
17, 62880, Note_on_c, 14, 46, 80
17, 62931, Note_on_c, 14, 46, 0
17, 62940, Note_on_c, 14, 48, 80
17, 62984, Note_on_c, 14, 48, 0
17, 63000, Note_on_c, 14, 63, 92
17, 63059, Note_on_c, 14, 63, 0
17, 63060, Note_on_c, 14, 63, 80
17, 63224, Note_on_c, 14, 63, 0
17, 63240, Note_on_c, 14, 48, 80
17, 63359, Note_on_c, 14, 48, 0
17, 63360, Note_on_c, 14, 48, 80
17, 63411, Note_on_c, 14, 48, 0
17, 63420, Note_on_c, 14, 50, 80
17, 63464, Note_on_c, 14, 50, 0
17, 63480, Note_on_c, 14, 65, 92
17, 63539, Note_on_c, 14, 65, 0
17, 63540, Note_on_c, 14, 65, 80
17, 63704, Note_on_c, 14, 65, 0
17, 63720, Note_on_c, 14, 50, 80
17, 63839, Note_on_c, 14, 50, 0
17, 63840, Note_on_c, 14, 50, 80
17, 63891, Note_on_c, 14, 50, 0
17, 63900, Note_on_c, 14, 51, 80
17, 63944, Note_on_c, 14, 51, 0
17, 63960, Note_on_c, 14, 67, 92
17, 64019, Note_on_c, 14, 67, 0
17, 64020, Note_on_c, 14, 67, 80
17, 64184, Note_on_c, 14, 67, 0
17, 64200, Note_on_c, 14, 51, 80
17, 64319, Note_on_c, 14, 51, 0
17, 64320, Note_on_c, 14, 51, 80
17, 64371, Note_on_c, 14, 51, 0
17, 64380, Note_on_c, 14, 53, 80
17, 64424, Note_on_c, 14, 53, 0
17, 64440, Note_on_c, 14, 68, 92
17, 64499, Note_on_c, 14, 68, 0
17, 64500, Note_on_c, 14, 68, 80
17, 64664, Note_on_c, 14, 68, 0
17, 64680, Note_on_c, 14, 41, 80
17, 64799, Note_on_c, 14, 41, 0
17, 64800, Note_on_c, 14, 41, 80
17, 64851, Note_on_c, 14, 41, 0
17, 64860, Note_on_c, 14, 43, 80
17, 64904, Note_on_c, 14, 43, 0
17, 64920, Note_on_c, 14, 58, 92
17, 64979, Note_on_c, 14, 58, 0
17, 64980, Note_on_c, 14, 58, 80
17, 65144, Note_on_c, 14, 58, 0
17, 65160, Note_on_c, 14, 43, 80
17, 65279, Note_on_c, 14, 43, 0
17, 65280, Note_on_c, 14, 43, 80
17, 65331, Note_on_c, 14, 43, 0
17, 65340, Note_on_c, 14, 45, 80
17, 65384, Note_on_c, 14, 45, 0
17, 65400, Note_on_c, 14, 60, 92
17, 65459, Note_on_c, 14, 60, 0
17, 65460, Note_on_c, 14, 60, 80
17, 65624, Note_on_c, 14, 60, 0
17, 65640, Note_on_c, 14, 63, 80
17, 65691, Note_on_c, 14, 63, 0
17, 65700, Note_on_c, 14, 51, 80
17, 65751, Note_on_c, 14, 51, 0
17, 65760, Note_on_c, 14, 62, 92
17, 65864, Note_on_c, 14, 62, 0
17, 65880, Note_on_c, 14, 50, 44
17, 65999, Note_on_c, 14, 50, 0
17, 66600, Note_on_c, 14, 62, 92
17, 66681, Note_on_c, 14, 62, 0
17, 66690, Note_on_c, 14, 62, 92
17, 66711, Note_on_c, 14, 62, 0
17, 66720, Note_on_c, 14, 63, 92
17, 66809, Note_on_c, 14, 63, 0
17, 66840, Note_on_c, 14, 51, 44
17, 66929, Note_on_c, 14, 51, 0
17, 67560, Note_on_c, 14, 63, 92
17, 67641, Note_on_c, 14, 63, 0
17, 67650, Note_on_c, 14, 63, 92
17, 67671, Note_on_c, 14, 63, 0
17, 67680, Note_on_c, 14, 65, 92
17, 67769, Note_on_c, 14, 65, 0
17, 67800, Note_on_c, 14, 53, 44
17, 67889, Note_on_c, 14, 53, 0
17, 68520, Note_on_c, 14, 65, 92
17, 68601, Note_on_c, 14, 65, 0
17, 68610, Note_on_c, 14, 65, 92
17, 68631, Note_on_c, 14, 65, 0
17, 68640, Note_on_c, 14, 67, 92
17, 68729, Note_on_c, 14, 67, 0
17, 68760, Note_on_c, 14, 55, 44
17, 68849, Note_on_c, 14, 55, 0
17, 70440, Note_on_c, 14, 53, 80
17, 70559, Note_on_c, 14, 53, 0
17, 70560, Note_on_c, 14, 54, 80
17, 70679, Note_on_c, 14, 54, 0
17, 70680, Note_on_c, 14, 53, 80
17, 70739, Note_on_c, 14, 53, 0
17, 70800, Note_on_c, 14, 53, 80
17, 70919, Note_on_c, 14, 53, 0
17, 70920, Note_on_c, 14, 52, 80
17, 70979, Note_on_c, 14, 52, 0
17, 71040, Note_on_c, 14, 52, 80
17, 71159, Note_on_c, 14, 52, 0
17, 71160, Note_on_c, 14, 53, 80
17, 71219, Note_on_c, 14, 53, 0
17, 71280, Note_on_c, 14, 62, 92
17, 71299, Note_on_c, 14, 62, 0
17, 71300, Note_on_c, 14, 63, 92
17, 71319, Note_on_c, 14, 63, 0
17, 71320, Note_on_c, 14, 62, 92
17, 71339, Note_on_c, 14, 62, 0
17, 71340, Note_on_c, 14, 63, 92
17, 71352, Note_on_c, 14, 63, 0
17, 71353, Note_on_c, 14, 62, 92
17, 71366, Note_on_c, 14, 62, 0
17, 71367, Note_on_c, 14, 60, 92
17, 71379, Note_on_c, 14, 60, 0
17, 71380, Note_on_c, 14, 62, 92
17, 71399, Note_on_c, 14, 62, 0
17, 71400, Note_on_c, 14, 63, 92
17, 71459, Note_on_c, 14, 63, 0
17, 71460, Note_on_c, 14, 60, 92
17, 71511, Note_on_c, 14, 60, 0
17, 71520, Note_on_c, 14, 46, 92
17, 71864, Note_on_c, 14, 46, 0
17, 71880, Note_on_c, 14, 46, 92
17, 71961, Note_on_c, 14, 46, 0
17, 71970, Note_on_c, 14, 46, 92
17, 71991, Note_on_c, 14, 46, 0
17, 72000, Note_on_c, 14, 50, 104
17, 72059, Note_on_c, 14, 50, 0
17, 72060, Note_on_c, 14, 50, 92
17, 72344, Note_on_c, 14, 50, 0
17, 72360, Note_on_c, 14, 50, 92
17, 72441, Note_on_c, 14, 50, 0
17, 72450, Note_on_c, 14, 50, 92
17, 72471, Note_on_c, 14, 50, 0
17, 72480, Note_on_c, 14, 53, 104
17, 72539, Note_on_c, 14, 53, 0
17, 72540, Note_on_c, 14, 53, 92
17, 72824, Note_on_c, 14, 53, 0
17, 72840, Note_on_c, 14, 53, 92
17, 72921, Note_on_c, 14, 53, 0
17, 72930, Note_on_c, 14, 53, 92
17, 72951, Note_on_c, 14, 53, 0
17, 72960, Note_on_c, 14, 58, 92
17, 73064, Note_on_c, 14, 58, 0
17, 73080, Note_on_c, 14, 58, 92
17, 73161, Note_on_c, 14, 58, 0
17, 73170, Note_on_c, 14, 58, 92
17, 73191, Note_on_c, 14, 58, 0
17, 73200, Note_on_c, 14, 62, 92
17, 73304, Note_on_c, 14, 62, 0
17, 73320, Note_on_c, 14, 62, 92
17, 73401, Note_on_c, 14, 62, 0
17, 73410, Note_on_c, 14, 62, 92
17, 73431, Note_on_c, 14, 62, 0
17, 73440, Note_on_c, 14, 65, 80
17, 73529, Note_on_c, 14, 65, 0
17, 73560, Note_on_c, 14, 58, 80
17, 73641, Note_on_c, 14, 58, 0
17, 73650, Note_on_c, 14, 58, 80
17, 73671, Note_on_c, 14, 58, 0
17, 73680, Note_on_c, 14, 62, 80
17, 73769, Note_on_c, 14, 62, 0
17, 73800, Note_on_c, 14, 53, 80
17, 73881, Note_on_c, 14, 53, 0
17, 73890, Note_on_c, 14, 53, 80
17, 73911, Note_on_c, 14, 53, 0
17, 73920, Note_on_c, 14, 58, 80
17, 74009, Note_on_c, 14, 58, 0
17, 74040, Note_on_c, 14, 50, 80
17, 74121, Note_on_c, 14, 50, 0
17, 74130, Note_on_c, 14, 50, 80
17, 74151, Note_on_c, 14, 50, 0
17, 74160, Note_on_c, 14, 53, 80
17, 74249, Note_on_c, 14, 53, 0
17, 74280, Note_on_c, 14, 46, 80
17, 74361, Note_on_c, 14, 46, 0
17, 74370, Note_on_c, 14, 46, 80
17, 74391, Note_on_c, 14, 46, 0
17, 74400, Note_on_c, 14, 50, 80
17, 74489, Note_on_c, 14, 50, 0
17, 74520, Note_on_c, 14, 41, 80
17, 74601, Note_on_c, 14, 41, 0
17, 74610, Note_on_c, 14, 41, 80
17, 74631, Note_on_c, 14, 41, 0
17, 74640, Note_on_c, 14, 46, 80
17, 74729, Note_on_c, 14, 46, 0
17, 74760, Note_on_c, 14, 38, 80
17, 74841, Note_on_c, 14, 38, 0
17, 74850, Note_on_c, 14, 38, 80
17, 74871, Note_on_c, 14, 38, 0
17, 74880, Note_on_c, 14, 41, 80
17, 74969, Note_on_c, 14, 41, 0
17, 75000, Note_on_c, 14, 46, 80
17, 75081, Note_on_c, 14, 46, 0
17, 75090, Note_on_c, 14, 46, 80
17, 75111, Note_on_c, 14, 46, 0
17, 75120, Note_on_c, 14, 58, 80
17, 75209, Note_on_c, 14, 58, 0
17, 75240, Note_on_c, 14, 46, 80
17, 75321, Note_on_c, 14, 46, 0
17, 75330, Note_on_c, 14, 46, 80
17, 75351, Note_on_c, 14, 46, 0
17, 75360, Note_on_c, 14, 58, 80
17, 75479, Note_on_c, 14, 58, 0
17, 75810, Control_c, 14, 11, 127
17, 75810, Note_on_c, 14, 58, 80
17, 75831, Note_on_c, 14, 58, 0
17, 75837, Control_c, 14, 11, 124
17, 75840, Note_on_c, 14, 46, 80
17, 75863, Control_c, 14, 11, 120
17, 75890, Control_c, 14, 11, 117
17, 75917, Control_c, 14, 11, 114
17, 75943, Control_c, 14, 11, 110
17, 75970, Control_c, 14, 11, 107
17, 75997, Control_c, 14, 11, 104
17, 76023, Control_c, 14, 11, 100
17, 76050, Control_c, 14, 11, 97
17, 76077, Control_c, 14, 11, 94
17, 76079, Note_on_c, 14, 46, 0
17, 76263, Control_c, 14, 11, 127
17, 76290, Note_on_c, 14, 46, 44
17, 76311, Note_on_c, 14, 46, 0
17, 76320, Note_on_c, 14, 45, 32
17, 76559, Note_on_c, 14, 45, 0
17, 77280, Note_on_c, 14, 52, 32
17, 77280, Note_on_c, 14, 45, 32
17, 77313, Note_on_c, 14, 52, 0
17, 77313, Note_on_c, 14, 45, 0
17, 77320, Note_on_c, 14, 45, 32
17, 77320, Note_on_c, 14, 52, 32
17, 77353, Note_on_c, 14, 45, 0
17, 77353, Note_on_c, 14, 52, 0
17, 77360, Note_on_c, 14, 45, 32
17, 77360, Note_on_c, 14, 52, 32
17, 77393, Note_on_c, 14, 45, 0
17, 77393, Note_on_c, 14, 52, 0
17, 77400, Note_on_c, 14, 45, 32
17, 77400, Note_on_c, 14, 52, 32
17, 77433, Note_on_c, 14, 45, 0
17, 77433, Note_on_c, 14, 52, 0
17, 77440, Note_on_c, 14, 52, 32
17, 77440, Note_on_c, 14, 45, 32
17, 77473, Note_on_c, 14, 52, 0
17, 77473, Note_on_c, 14, 45, 0
17, 77480, Note_on_c, 14, 45, 32
17, 77480, Note_on_c, 14, 52, 32
17, 77513, Note_on_c, 14, 45, 0
17, 77513, Note_on_c, 14, 52, 0
17, 77520, Note_on_c, 14, 45, 32
17, 77520, Note_on_c, 14, 52, 32
17, 77553, Note_on_c, 14, 45, 0
17, 77553, Note_on_c, 14, 52, 0
17, 77560, Note_on_c, 14, 45, 32
17, 77560, Note_on_c, 14, 52, 32
17, 77593, Note_on_c, 14, 45, 0
17, 77593, Note_on_c, 14, 52, 0
17, 77600, Note_on_c, 14, 52, 32
17, 77600, Note_on_c, 14, 45, 32
17, 77633, Note_on_c, 14, 52, 0
17, 77633, Note_on_c, 14, 45, 0
17, 77640, Note_on_c, 14, 52, 32
17, 77640, Note_on_c, 14, 45, 32
17, 77673, Note_on_c, 14, 52, 0
17, 77673, Note_on_c, 14, 45, 0
17, 77680, Note_on_c, 14, 52, 32
17, 77680, Note_on_c, 14, 45, 32
17, 77713, Note_on_c, 14, 52, 0
17, 77713, Note_on_c, 14, 45, 0
17, 77720, Note_on_c, 14, 45, 32
17, 77720, Note_on_c, 14, 52, 32
17, 77753, Note_on_c, 14, 45, 0
17, 77753, Note_on_c, 14, 52, 0
17, 77760, Note_on_c, 14, 45, 32
17, 77760, Note_on_c, 14, 52, 32
17, 77793, Note_on_c, 14, 45, 0
17, 77793, Note_on_c, 14, 52, 0
17, 77800, Note_on_c, 14, 45, 32
17, 77800, Note_on_c, 14, 52, 32
17, 77833, Note_on_c, 14, 45, 0
17, 77833, Note_on_c, 14, 52, 0
17, 77840, Note_on_c, 14, 45, 32
17, 77840, Note_on_c, 14, 52, 32
17, 77873, Note_on_c, 14, 45, 0
17, 77873, Note_on_c, 14, 52, 0
17, 77880, Note_on_c, 14, 52, 32
17, 77880, Note_on_c, 14, 45, 32
17, 77913, Note_on_c, 14, 52, 0
17, 77913, Note_on_c, 14, 45, 0
17, 77920, Note_on_c, 14, 52, 32
17, 77920, Note_on_c, 14, 45, 32
17, 77953, Note_on_c, 14, 52, 0
17, 77953, Note_on_c, 14, 45, 0
17, 77960, Note_on_c, 14, 52, 32
17, 77960, Note_on_c, 14, 45, 32
17, 77993, Note_on_c, 14, 52, 0
17, 77993, Note_on_c, 14, 45, 0
17, 78000, Note_on_c, 14, 45, 32
17, 78000, Note_on_c, 14, 52, 32
17, 78033, Note_on_c, 14, 45, 0
17, 78033, Note_on_c, 14, 52, 0
17, 78040, Note_on_c, 14, 45, 32
17, 78040, Note_on_c, 14, 52, 32
17, 78073, Note_on_c, 14, 45, 0
17, 78073, Note_on_c, 14, 52, 0
17, 78080, Note_on_c, 14, 52, 32
17, 78080, Note_on_c, 14, 45, 32
17, 78113, Note_on_c, 14, 52, 0
17, 78113, Note_on_c, 14, 45, 0
17, 78120, Note_on_c, 14, 52, 32
17, 78120, Note_on_c, 14, 45, 32
17, 78153, Note_on_c, 14, 52, 0
17, 78153, Note_on_c, 14, 45, 0
17, 78160, Note_on_c, 14, 52, 32
17, 78160, Note_on_c, 14, 45, 32
17, 78193, Note_on_c, 14, 52, 0
17, 78193, Note_on_c, 14, 45, 0
17, 78200, Note_on_c, 14, 52, 32
17, 78200, Note_on_c, 14, 45, 32
17, 78233, Note_on_c, 14, 52, 0
17, 78233, Note_on_c, 14, 45, 0
17, 78240, Note_on_c, 14, 52, 32
17, 78240, Note_on_c, 14, 45, 32
17, 78273, Note_on_c, 14, 52, 0
17, 78273, Note_on_c, 14, 45, 0
17, 78280, Note_on_c, 14, 45, 32
17, 78280, Note_on_c, 14, 52, 32
17, 78313, Note_on_c, 14, 45, 0
17, 78313, Note_on_c, 14, 52, 0
17, 78320, Note_on_c, 14, 52, 32
17, 78320, Note_on_c, 14, 45, 32
17, 78353, Note_on_c, 14, 52, 0
17, 78353, Note_on_c, 14, 45, 0
17, 78360, Note_on_c, 14, 45, 32
17, 78360, Note_on_c, 14, 52, 32
17, 78393, Note_on_c, 14, 45, 0
17, 78393, Note_on_c, 14, 52, 0
17, 78400, Note_on_c, 14, 45, 32
17, 78400, Note_on_c, 14, 52, 32
17, 78433, Note_on_c, 14, 45, 0
17, 78433, Note_on_c, 14, 52, 0
17, 78440, Note_on_c, 14, 45, 32
17, 78440, Note_on_c, 14, 52, 32
17, 78473, Note_on_c, 14, 45, 0
17, 78473, Note_on_c, 14, 52, 0
17, 78480, Note_on_c, 14, 45, 32
17, 78480, Note_on_c, 14, 52, 32
17, 78513, Note_on_c, 14, 45, 0
17, 78513, Note_on_c, 14, 52, 0
17, 78520, Note_on_c, 14, 52, 32
17, 78520, Note_on_c, 14, 45, 32
17, 78553, Note_on_c, 14, 52, 0
17, 78553, Note_on_c, 14, 45, 0
17, 78560, Note_on_c, 14, 45, 32
17, 78560, Note_on_c, 14, 52, 32
17, 78593, Note_on_c, 14, 45, 0
17, 78593, Note_on_c, 14, 52, 0
17, 78600, Note_on_c, 14, 52, 32
17, 78600, Note_on_c, 14, 45, 32
17, 78633, Note_on_c, 14, 52, 0
17, 78633, Note_on_c, 14, 45, 0
17, 78640, Note_on_c, 14, 45, 32
17, 78640, Note_on_c, 14, 52, 32
17, 78673, Note_on_c, 14, 45, 0
17, 78673, Note_on_c, 14, 52, 0
17, 78680, Note_on_c, 14, 52, 32
17, 78680, Note_on_c, 14, 45, 32
17, 78713, Note_on_c, 14, 52, 0
17, 78713, Note_on_c, 14, 45, 0
17, 78720, Note_on_c, 14, 45, 32
17, 78720, Note_on_c, 14, 52, 32
17, 78753, Note_on_c, 14, 45, 0
17, 78753, Note_on_c, 14, 52, 0
17, 78760, Note_on_c, 14, 52, 32
17, 78760, Note_on_c, 14, 45, 32
17, 78793, Note_on_c, 14, 52, 0
17, 78793, Note_on_c, 14, 45, 0
17, 78800, Note_on_c, 14, 52, 32
17, 78800, Note_on_c, 14, 45, 32
17, 78833, Note_on_c, 14, 52, 0
17, 78833, Note_on_c, 14, 45, 0
17, 78840, Note_on_c, 14, 45, 32
17, 78840, Note_on_c, 14, 52, 32
17, 78873, Note_on_c, 14, 45, 0
17, 78873, Note_on_c, 14, 52, 0
17, 78880, Note_on_c, 14, 45, 32
17, 78880, Note_on_c, 14, 52, 32
17, 78913, Note_on_c, 14, 45, 0
17, 78913, Note_on_c, 14, 52, 0
17, 78920, Note_on_c, 14, 45, 32
17, 78920, Note_on_c, 14, 52, 32
17, 78953, Note_on_c, 14, 45, 0
17, 78953, Note_on_c, 14, 52, 0
17, 78960, Note_on_c, 14, 45, 32
17, 78960, Note_on_c, 14, 52, 32
17, 78993, Note_on_c, 14, 45, 0
17, 78993, Note_on_c, 14, 52, 0
17, 79000, Note_on_c, 14, 45, 32
17, 79000, Note_on_c, 14, 52, 32
17, 79033, Note_on_c, 14, 45, 0
17, 79033, Note_on_c, 14, 52, 0
17, 79040, Note_on_c, 14, 45, 32
17, 79040, Note_on_c, 14, 52, 32
17, 79073, Note_on_c, 14, 45, 0
17, 79073, Note_on_c, 14, 52, 0
17, 79080, Note_on_c, 14, 45, 32
17, 79080, Note_on_c, 14, 52, 32
17, 79113, Note_on_c, 14, 45, 0
17, 79113, Note_on_c, 14, 52, 0
17, 79120, Note_on_c, 14, 45, 32
17, 79120, Note_on_c, 14, 52, 32
17, 79153, Note_on_c, 14, 45, 0
17, 79153, Note_on_c, 14, 52, 0
17, 79160, Note_on_c, 14, 45, 32
17, 79160, Note_on_c, 14, 52, 32
17, 79193, Note_on_c, 14, 45, 0
17, 79193, Note_on_c, 14, 52, 0
17, 79200, Note_on_c, 14, 52, 32
17, 79200, Note_on_c, 14, 45, 32
17, 79233, Note_on_c, 14, 52, 0
17, 79233, Note_on_c, 14, 45, 0
17, 79240, Note_on_c, 14, 45, 32
17, 79240, Note_on_c, 14, 52, 32
17, 79273, Note_on_c, 14, 45, 0
17, 79273, Note_on_c, 14, 52, 0
17, 79280, Note_on_c, 14, 52, 32
17, 79280, Note_on_c, 14, 45, 32
17, 79313, Note_on_c, 14, 52, 0
17, 79313, Note_on_c, 14, 45, 0
17, 79320, Note_on_c, 14, 52, 32
17, 79320, Note_on_c, 14, 45, 32
17, 79353, Note_on_c, 14, 52, 0
17, 79353, Note_on_c, 14, 45, 0
17, 79360, Note_on_c, 14, 52, 32
17, 79360, Note_on_c, 14, 45, 32
17, 79393, Note_on_c, 14, 52, 0
17, 79393, Note_on_c, 14, 45, 0
17, 79400, Note_on_c, 14, 45, 32
17, 79400, Note_on_c, 14, 52, 32
17, 79433, Note_on_c, 14, 45, 0
17, 79433, Note_on_c, 14, 52, 0
17, 79440, Note_on_c, 14, 52, 32
17, 79440, Note_on_c, 14, 45, 32
17, 79473, Note_on_c, 14, 52, 0
17, 79473, Note_on_c, 14, 45, 0
17, 79480, Note_on_c, 14, 45, 32
17, 79480, Note_on_c, 14, 52, 32
17, 79513, Note_on_c, 14, 45, 0
17, 79513, Note_on_c, 14, 52, 0
17, 79520, Note_on_c, 14, 45, 32
17, 79520, Note_on_c, 14, 52, 32
17, 79553, Note_on_c, 14, 45, 0
17, 79553, Note_on_c, 14, 52, 0
17, 79560, Note_on_c, 14, 45, 32
17, 79560, Note_on_c, 14, 52, 32
17, 79593, Note_on_c, 14, 45, 0
17, 79593, Note_on_c, 14, 52, 0
17, 79600, Note_on_c, 14, 52, 32
17, 79600, Note_on_c, 14, 45, 32
17, 79633, Note_on_c, 14, 52, 0
17, 79633, Note_on_c, 14, 45, 0
17, 79640, Note_on_c, 14, 45, 32
17, 79640, Note_on_c, 14, 52, 32
17, 79673, Note_on_c, 14, 45, 0
17, 79673, Note_on_c, 14, 52, 0
17, 79680, Note_on_c, 14, 52, 32
17, 79680, Note_on_c, 14, 45, 32
17, 79713, Note_on_c, 14, 52, 0
17, 79713, Note_on_c, 14, 45, 0
17, 79720, Note_on_c, 14, 52, 32
17, 79720, Note_on_c, 14, 45, 32
17, 79753, Note_on_c, 14, 52, 0
17, 79753, Note_on_c, 14, 45, 0
17, 79760, Note_on_c, 14, 45, 32
17, 79760, Note_on_c, 14, 52, 32
17, 79793, Note_on_c, 14, 45, 0
17, 79793, Note_on_c, 14, 52, 0
17, 79800, Note_on_c, 14, 45, 32
17, 79800, Note_on_c, 14, 52, 32
17, 79833, Note_on_c, 14, 45, 0
17, 79833, Note_on_c, 14, 52, 0
17, 79840, Note_on_c, 14, 52, 32
17, 79840, Note_on_c, 14, 45, 32
17, 79873, Note_on_c, 14, 52, 0
17, 79873, Note_on_c, 14, 45, 0
17, 79880, Note_on_c, 14, 45, 32
17, 79880, Note_on_c, 14, 52, 32
17, 79913, Note_on_c, 14, 45, 0
17, 79913, Note_on_c, 14, 52, 0
17, 79920, Note_on_c, 14, 52, 32
17, 79920, Note_on_c, 14, 45, 32
17, 79953, Note_on_c, 14, 52, 0
17, 79953, Note_on_c, 14, 45, 0
17, 79960, Note_on_c, 14, 45, 32
17, 79960, Note_on_c, 14, 52, 32
17, 79993, Note_on_c, 14, 45, 0
17, 79993, Note_on_c, 14, 52, 0
17, 80000, Note_on_c, 14, 45, 32
17, 80000, Note_on_c, 14, 52, 32
17, 80033, Note_on_c, 14, 45, 0
17, 80033, Note_on_c, 14, 52, 0
17, 80040, Note_on_c, 14, 45, 32
17, 80040, Note_on_c, 14, 52, 32
17, 80073, Note_on_c, 14, 45, 0
17, 80073, Note_on_c, 14, 52, 0
17, 80080, Note_on_c, 14, 52, 32
17, 80080, Note_on_c, 14, 45, 32
17, 80113, Note_on_c, 14, 52, 0
17, 80113, Note_on_c, 14, 45, 0
17, 80120, Note_on_c, 14, 45, 32
17, 80120, Note_on_c, 14, 52, 32
17, 80153, Note_on_c, 14, 45, 0
17, 80153, Note_on_c, 14, 52, 0
17, 80160, Note_on_c, 14, 52, 32
17, 80160, Note_on_c, 14, 45, 32
17, 80193, Note_on_c, 14, 52, 0
17, 80193, Note_on_c, 14, 45, 0
17, 80200, Note_on_c, 14, 45, 32
17, 80200, Note_on_c, 14, 52, 32
17, 80233, Note_on_c, 14, 45, 0
17, 80233, Note_on_c, 14, 52, 0
17, 80240, Note_on_c, 14, 45, 32
17, 80240, Note_on_c, 14, 52, 32
17, 80273, Note_on_c, 14, 45, 0
17, 80273, Note_on_c, 14, 52, 0
17, 80280, Note_on_c, 14, 52, 32
17, 80280, Note_on_c, 14, 45, 32
17, 80313, Note_on_c, 14, 52, 0
17, 80313, Note_on_c, 14, 45, 0
17, 80320, Note_on_c, 14, 45, 32
17, 80320, Note_on_c, 14, 52, 32
17, 80353, Note_on_c, 14, 45, 0
17, 80353, Note_on_c, 14, 52, 0
17, 80360, Note_on_c, 14, 45, 32
17, 80360, Note_on_c, 14, 52, 32
17, 80393, Note_on_c, 14, 45, 0
17, 80393, Note_on_c, 14, 52, 0
17, 80400, Note_on_c, 14, 45, 32
17, 80400, Note_on_c, 14, 52, 32
17, 80433, Note_on_c, 14, 45, 0
17, 80433, Note_on_c, 14, 52, 0
17, 80440, Note_on_c, 14, 45, 32
17, 80440, Note_on_c, 14, 52, 32
17, 80473, Note_on_c, 14, 45, 0
17, 80473, Note_on_c, 14, 52, 0
17, 80480, Note_on_c, 14, 45, 32
17, 80480, Note_on_c, 14, 52, 32
17, 80513, Note_on_c, 14, 45, 0
17, 80513, Note_on_c, 14, 52, 0
17, 80520, Note_on_c, 14, 52, 32
17, 80520, Note_on_c, 14, 45, 32
17, 80553, Note_on_c, 14, 52, 0
17, 80553, Note_on_c, 14, 45, 0
17, 80560, Note_on_c, 14, 52, 32
17, 80560, Note_on_c, 14, 45, 32
17, 80593, Note_on_c, 14, 52, 0
17, 80593, Note_on_c, 14, 45, 0
17, 80600, Note_on_c, 14, 52, 32
17, 80600, Note_on_c, 14, 45, 32
17, 80633, Note_on_c, 14, 52, 0
17, 80633, Note_on_c, 14, 45, 0
17, 80640, Note_on_c, 14, 52, 32
17, 80640, Note_on_c, 14, 45, 32
17, 80673, Note_on_c, 14, 52, 0
17, 80673, Note_on_c, 14, 45, 0
17, 80680, Note_on_c, 14, 45, 32
17, 80680, Note_on_c, 14, 52, 32
17, 80713, Note_on_c, 14, 45, 0
17, 80713, Note_on_c, 14, 52, 0
17, 80720, Note_on_c, 14, 45, 32
17, 80720, Note_on_c, 14, 52, 32
17, 80753, Note_on_c, 14, 45, 0
17, 80753, Note_on_c, 14, 52, 0
17, 80760, Note_on_c, 14, 45, 32
17, 80760, Note_on_c, 14, 52, 32
17, 80793, Note_on_c, 14, 45, 0
17, 80793, Note_on_c, 14, 52, 0
17, 80800, Note_on_c, 14, 45, 32
17, 80800, Note_on_c, 14, 52, 32
17, 80833, Note_on_c, 14, 45, 0
17, 80833, Note_on_c, 14, 52, 0
17, 80840, Note_on_c, 14, 45, 32
17, 80840, Note_on_c, 14, 52, 32
17, 80873, Note_on_c, 14, 45, 0
17, 80873, Note_on_c, 14, 52, 0
17, 80880, Note_on_c, 14, 52, 32
17, 80880, Note_on_c, 14, 45, 32
17, 80913, Note_on_c, 14, 52, 0
17, 80913, Note_on_c, 14, 45, 0
17, 80920, Note_on_c, 14, 45, 32
17, 80920, Note_on_c, 14, 52, 32
17, 80953, Note_on_c, 14, 45, 0
17, 80953, Note_on_c, 14, 52, 0
17, 80960, Note_on_c, 14, 45, 32
17, 80960, Note_on_c, 14, 52, 32
17, 80993, Note_on_c, 14, 45, 0
17, 80993, Note_on_c, 14, 52, 0
17, 81000, Note_on_c, 14, 45, 32
17, 81000, Note_on_c, 14, 52, 32
17, 81033, Note_on_c, 14, 45, 0
17, 81033, Note_on_c, 14, 52, 0
17, 81040, Note_on_c, 14, 52, 32
17, 81040, Note_on_c, 14, 45, 32
17, 81073, Note_on_c, 14, 52, 0
17, 81073, Note_on_c, 14, 45, 0
17, 81080, Note_on_c, 14, 52, 32
17, 81080, Note_on_c, 14, 45, 32
17, 81113, Note_on_c, 14, 52, 0
17, 81113, Note_on_c, 14, 45, 0
17, 81120, Note_on_c, 14, 45, 32
17, 81120, Note_on_c, 14, 52, 32
17, 81153, Note_on_c, 14, 45, 0
17, 81153, Note_on_c, 14, 52, 0
17, 81160, Note_on_c, 14, 45, 32
17, 81160, Note_on_c, 14, 57, 32
17, 81193, Note_on_c, 14, 45, 0
17, 81193, Note_on_c, 14, 57, 0
17, 81200, Note_on_c, 14, 45, 32
17, 81200, Note_on_c, 14, 57, 32
17, 81233, Note_on_c, 14, 45, 0
17, 81233, Note_on_c, 14, 57, 0
17, 81240, Note_on_c, 14, 57, 32
17, 81240, Note_on_c, 14, 45, 32
17, 81273, Note_on_c, 14, 57, 0
17, 81273, Note_on_c, 14, 45, 0
17, 81280, Note_on_c, 14, 57, 32
17, 81280, Note_on_c, 14, 45, 32
17, 81313, Note_on_c, 14, 57, 0
17, 81313, Note_on_c, 14, 45, 0
17, 81320, Note_on_c, 14, 57, 32
17, 81320, Note_on_c, 14, 45, 32
17, 81353, Note_on_c, 14, 57, 0
17, 81353, Note_on_c, 14, 45, 0
17, 81360, Note_on_c, 14, 57, 32
17, 81360, Note_on_c, 14, 50, 32
17, 81393, Note_on_c, 14, 57, 0
17, 81393, Note_on_c, 14, 50, 0
17, 81400, Note_on_c, 14, 50, 32
17, 81400, Note_on_c, 14, 57, 32
17, 81433, Note_on_c, 14, 50, 0
17, 81433, Note_on_c, 14, 57, 0
17, 81440, Note_on_c, 14, 50, 32
17, 81440, Note_on_c, 14, 57, 32
17, 81473, Note_on_c, 14, 50, 0
17, 81473, Note_on_c, 14, 57, 0
17, 81480, Note_on_c, 14, 50, 32
17, 81480, Note_on_c, 14, 57, 32
17, 81513, Note_on_c, 14, 50, 0
17, 81513, Note_on_c, 14, 57, 0
17, 81520, Note_on_c, 14, 50, 32
17, 81520, Note_on_c, 14, 57, 32
17, 81553, Note_on_c, 14, 50, 0
17, 81553, Note_on_c, 14, 57, 0
17, 81560, Note_on_c, 14, 57, 32
17, 81560, Note_on_c, 14, 50, 32
17, 81593, Note_on_c, 14, 57, 0
17, 81593, Note_on_c, 14, 50, 0
17, 81600, Note_on_c, 14, 50, 32
17, 81600, Note_on_c, 14, 57, 32
17, 81633, Note_on_c, 14, 50, 0
17, 81633, Note_on_c, 14, 57, 0
17, 81640, Note_on_c, 14, 57, 32
17, 81640, Note_on_c, 14, 50, 32
17, 81673, Note_on_c, 14, 57, 0
17, 81673, Note_on_c, 14, 50, 0
17, 81680, Note_on_c, 14, 57, 32
17, 81680, Note_on_c, 14, 50, 32
17, 81713, Note_on_c, 14, 57, 0
17, 81713, Note_on_c, 14, 50, 0
17, 81720, Note_on_c, 14, 57, 32
17, 81720, Note_on_c, 14, 50, 32
17, 81753, Note_on_c, 14, 57, 0
17, 81753, Note_on_c, 14, 50, 0
17, 81760, Note_on_c, 14, 50, 32
17, 81760, Note_on_c, 14, 57, 32
17, 81793, Note_on_c, 14, 50, 0
17, 81793, Note_on_c, 14, 57, 0
17, 81800, Note_on_c, 14, 50, 32
17, 81800, Note_on_c, 14, 57, 32
17, 81833, Note_on_c, 14, 50, 0
17, 81833, Note_on_c, 14, 57, 0
17, 81840, Note_on_c, 14, 50, 32
17, 81840, Note_on_c, 14, 57, 32
17, 81873, Note_on_c, 14, 50, 0
17, 81873, Note_on_c, 14, 57, 0
17, 81880, Note_on_c, 14, 50, 32
17, 81880, Note_on_c, 14, 57, 32
17, 81913, Note_on_c, 14, 50, 0
17, 81913, Note_on_c, 14, 57, 0
17, 81920, Note_on_c, 14, 57, 32
17, 81920, Note_on_c, 14, 50, 32
17, 81953, Note_on_c, 14, 57, 0
17, 81953, Note_on_c, 14, 50, 0
17, 81960, Note_on_c, 14, 50, 32
17, 81960, Note_on_c, 14, 57, 32
17, 81993, Note_on_c, 14, 50, 0
17, 81993, Note_on_c, 14, 57, 0
17, 82000, Note_on_c, 14, 50, 32
17, 82000, Note_on_c, 14, 57, 32
17, 82033, Note_on_c, 14, 50, 0
17, 82033, Note_on_c, 14, 57, 0
17, 82040, Note_on_c, 14, 57, 32
17, 82040, Note_on_c, 14, 50, 32
17, 82073, Note_on_c, 14, 57, 0
17, 82073, Note_on_c, 14, 50, 0
17, 82080, Note_on_c, 14, 50, 32
17, 82080, Note_on_c, 14, 57, 32
17, 82113, Note_on_c, 14, 50, 0
17, 82113, Note_on_c, 14, 57, 0
17, 82120, Note_on_c, 14, 50, 32
17, 82120, Note_on_c, 14, 57, 32
17, 82153, Note_on_c, 14, 50, 0
17, 82153, Note_on_c, 14, 57, 0
17, 82160, Note_on_c, 14, 57, 32
17, 82160, Note_on_c, 14, 50, 32
17, 82193, Note_on_c, 14, 57, 0
17, 82193, Note_on_c, 14, 50, 0
17, 82200, Note_on_c, 14, 50, 32
17, 82200, Note_on_c, 14, 57, 32
17, 82233, Note_on_c, 14, 50, 0
17, 82233, Note_on_c, 14, 57, 0
17, 82240, Note_on_c, 14, 50, 32
17, 82240, Note_on_c, 14, 57, 32
17, 82273, Note_on_c, 14, 50, 0
17, 82273, Note_on_c, 14, 57, 0
17, 82280, Note_on_c, 14, 50, 32
17, 82280, Note_on_c, 14, 57, 32
17, 82313, Note_on_c, 14, 50, 0
17, 82313, Note_on_c, 14, 57, 0
17, 82320, Note_on_c, 14, 57, 32
17, 82320, Note_on_c, 14, 50, 32
17, 82353, Note_on_c, 14, 57, 0
17, 82353, Note_on_c, 14, 50, 0
17, 82360, Note_on_c, 14, 57, 32
17, 82360, Note_on_c, 14, 50, 32
17, 82393, Note_on_c, 14, 57, 0
17, 82393, Note_on_c, 14, 50, 0
17, 82400, Note_on_c, 14, 50, 32
17, 82400, Note_on_c, 14, 57, 32
17, 82433, Note_on_c, 14, 50, 0
17, 82433, Note_on_c, 14, 57, 0
17, 82440, Note_on_c, 14, 50, 32
17, 82440, Note_on_c, 14, 57, 32
17, 82473, Note_on_c, 14, 50, 0
17, 82473, Note_on_c, 14, 57, 0
17, 82480, Note_on_c, 14, 50, 32
17, 82480, Note_on_c, 14, 57, 32
17, 82513, Note_on_c, 14, 50, 0
17, 82513, Note_on_c, 14, 57, 0
17, 82520, Note_on_c, 14, 57, 32
17, 82520, Note_on_c, 14, 50, 32
17, 82553, Note_on_c, 14, 57, 0
17, 82553, Note_on_c, 14, 50, 0
17, 82560, Note_on_c, 14, 50, 32
17, 82560, Note_on_c, 14, 57, 32
17, 82593, Note_on_c, 14, 50, 0
17, 82593, Note_on_c, 14, 57, 0
17, 82600, Note_on_c, 14, 50, 32
17, 82600, Note_on_c, 14, 57, 32
17, 82633, Note_on_c, 14, 50, 0
17, 82633, Note_on_c, 14, 57, 0
17, 82640, Note_on_c, 14, 50, 32
17, 82640, Note_on_c, 14, 57, 32
17, 82673, Note_on_c, 14, 50, 0
17, 82673, Note_on_c, 14, 57, 0
17, 82680, Note_on_c, 14, 57, 32
17, 82680, Note_on_c, 14, 50, 32
17, 82713, Note_on_c, 14, 57, 0
17, 82713, Note_on_c, 14, 50, 0
17, 82720, Note_on_c, 14, 50, 32
17, 82720, Note_on_c, 14, 57, 32
17, 82753, Note_on_c, 14, 50, 0
17, 82753, Note_on_c, 14, 57, 0
17, 82760, Note_on_c, 14, 57, 32
17, 82760, Note_on_c, 14, 50, 32
17, 82793, Note_on_c, 14, 57, 0
17, 82793, Note_on_c, 14, 50, 0
17, 82800, Note_on_c, 14, 50, 32
17, 82800, Note_on_c, 14, 57, 32
17, 82833, Note_on_c, 14, 50, 0
17, 82833, Note_on_c, 14, 57, 0
17, 82840, Note_on_c, 14, 57, 32
17, 82840, Note_on_c, 14, 50, 32
17, 82873, Note_on_c, 14, 57, 0
17, 82873, Note_on_c, 14, 50, 0
17, 82880, Note_on_c, 14, 57, 32
17, 82880, Note_on_c, 14, 50, 32
17, 82913, Note_on_c, 14, 57, 0
17, 82913, Note_on_c, 14, 50, 0
17, 82920, Note_on_c, 14, 57, 32
17, 82920, Note_on_c, 14, 50, 32
17, 82953, Note_on_c, 14, 57, 0
17, 82953, Note_on_c, 14, 50, 0
17, 82960, Note_on_c, 14, 50, 32
17, 82960, Note_on_c, 14, 57, 32
17, 82993, Note_on_c, 14, 50, 0
17, 82993, Note_on_c, 14, 57, 0
17, 83000, Note_on_c, 14, 57, 32
17, 83000, Note_on_c, 14, 50, 32
17, 83033, Note_on_c, 14, 57, 0
17, 83033, Note_on_c, 14, 50, 0
17, 83040, Note_on_c, 14, 50, 32
17, 83040, Note_on_c, 14, 57, 32
17, 83073, Note_on_c, 14, 50, 0
17, 83073, Note_on_c, 14, 57, 0
17, 83080, Note_on_c, 14, 50, 32
17, 83080, Note_on_c, 14, 57, 32
17, 83113, Note_on_c, 14, 50, 0
17, 83113, Note_on_c, 14, 57, 0
17, 83120, Note_on_c, 14, 50, 32
17, 83120, Note_on_c, 14, 57, 32
17, 83153, Note_on_c, 14, 50, 0
17, 83153, Note_on_c, 14, 57, 0
17, 83160, Note_on_c, 14, 57, 32
17, 83160, Note_on_c, 14, 50, 32
17, 83193, Note_on_c, 14, 57, 0
17, 83193, Note_on_c, 14, 50, 0
17, 83200, Note_on_c, 14, 57, 32
17, 83200, Note_on_c, 14, 50, 32
17, 83233, Note_on_c, 14, 57, 0
17, 83233, Note_on_c, 14, 50, 0
17, 83240, Note_on_c, 14, 50, 32
17, 83240, Note_on_c, 14, 57, 32
17, 83273, Note_on_c, 14, 50, 0
17, 83273, Note_on_c, 14, 57, 0
17, 83280, Note_on_c, 14, 57, 32
17, 83280, Note_on_c, 14, 50, 32
17, 83313, Note_on_c, 14, 57, 0
17, 83313, Note_on_c, 14, 50, 0
17, 83320, Note_on_c, 14, 50, 32
17, 83320, Note_on_c, 14, 57, 32
17, 83353, Note_on_c, 14, 50, 0
17, 83353, Note_on_c, 14, 57, 0
17, 83360, Note_on_c, 14, 57, 32
17, 83360, Note_on_c, 14, 50, 32
17, 83393, Note_on_c, 14, 57, 0
17, 83393, Note_on_c, 14, 50, 0
17, 83400, Note_on_c, 14, 57, 32
17, 83400, Note_on_c, 14, 50, 32
17, 83433, Note_on_c, 14, 57, 0
17, 83433, Note_on_c, 14, 50, 0
17, 83440, Note_on_c, 14, 50, 32
17, 83440, Note_on_c, 14, 57, 32
17, 83473, Note_on_c, 14, 50, 0
17, 83473, Note_on_c, 14, 57, 0
17, 83480, Note_on_c, 14, 57, 32
17, 83480, Note_on_c, 14, 50, 32
17, 83513, Note_on_c, 14, 57, 0
17, 83513, Note_on_c, 14, 50, 0
17, 83520, Note_on_c, 14, 57, 32
17, 83520, Note_on_c, 14, 50, 32
17, 83553, Note_on_c, 14, 57, 0
17, 83553, Note_on_c, 14, 50, 0
17, 83560, Note_on_c, 14, 57, 32
17, 83560, Note_on_c, 14, 50, 32
17, 83593, Note_on_c, 14, 57, 0
17, 83593, Note_on_c, 14, 50, 0
17, 83600, Note_on_c, 14, 50, 32
17, 83600, Note_on_c, 14, 57, 32
17, 83633, Note_on_c, 14, 50, 0
17, 83633, Note_on_c, 14, 57, 0
17, 83640, Note_on_c, 14, 50, 32
17, 83640, Note_on_c, 14, 57, 32
17, 83673, Note_on_c, 14, 50, 0
17, 83673, Note_on_c, 14, 57, 0
17, 83680, Note_on_c, 14, 50, 32
17, 83680, Note_on_c, 14, 57, 32
17, 83713, Note_on_c, 14, 50, 0
17, 83713, Note_on_c, 14, 57, 0
17, 83720, Note_on_c, 14, 57, 32
17, 83720, Note_on_c, 14, 50, 32
17, 83753, Note_on_c, 14, 57, 0
17, 83753, Note_on_c, 14, 50, 0
17, 83760, Note_on_c, 14, 50, 32
17, 83760, Note_on_c, 14, 57, 32
17, 83793, Note_on_c, 14, 50, 0
17, 83793, Note_on_c, 14, 57, 0
17, 83800, Note_on_c, 14, 57, 32
17, 83800, Note_on_c, 14, 50, 32
17, 83833, Note_on_c, 14, 57, 0
17, 83833, Note_on_c, 14, 50, 0
17, 83840, Note_on_c, 14, 50, 32
17, 83840, Note_on_c, 14, 57, 32
17, 83873, Note_on_c, 14, 50, 0
17, 83873, Note_on_c, 14, 57, 0
17, 83880, Note_on_c, 14, 50, 32
17, 83880, Note_on_c, 14, 57, 32
17, 83913, Note_on_c, 14, 50, 0
17, 83913, Note_on_c, 14, 57, 0
17, 83920, Note_on_c, 14, 50, 32
17, 83920, Note_on_c, 14, 57, 32
17, 83953, Note_on_c, 14, 50, 0
17, 83953, Note_on_c, 14, 57, 0
17, 83960, Note_on_c, 14, 50, 32
17, 83960, Note_on_c, 14, 57, 32
17, 83993, Note_on_c, 14, 50, 0
17, 83993, Note_on_c, 14, 57, 0
17, 84000, Note_on_c, 14, 50, 32
17, 84000, Note_on_c, 14, 57, 32
17, 84033, Note_on_c, 14, 50, 0
17, 84033, Note_on_c, 14, 57, 0
17, 84040, Note_on_c, 14, 57, 32
17, 84040, Note_on_c, 14, 50, 32
17, 84073, Note_on_c, 14, 57, 0
17, 84073, Note_on_c, 14, 50, 0
17, 84080, Note_on_c, 14, 50, 32
17, 84080, Note_on_c, 14, 57, 32
17, 84113, Note_on_c, 14, 50, 0
17, 84113, Note_on_c, 14, 57, 0
17, 84120, Note_on_c, 14, 57, 32
17, 84120, Note_on_c, 14, 50, 32
17, 84153, Note_on_c, 14, 57, 0
17, 84153, Note_on_c, 14, 50, 0
17, 84160, Note_on_c, 14, 50, 32
17, 84160, Note_on_c, 14, 57, 32
17, 84193, Note_on_c, 14, 50, 0
17, 84193, Note_on_c, 14, 57, 0
17, 84200, Note_on_c, 14, 50, 32
17, 84200, Note_on_c, 14, 57, 32
17, 84233, Note_on_c, 14, 50, 0
17, 84233, Note_on_c, 14, 57, 0
17, 84240, Note_on_c, 14, 57, 32
17, 84240, Note_on_c, 14, 50, 32
17, 84273, Note_on_c, 14, 57, 0
17, 84273, Note_on_c, 14, 50, 0
17, 84280, Note_on_c, 14, 57, 32
17, 84280, Note_on_c, 14, 50, 32
17, 84313, Note_on_c, 14, 57, 0
17, 84313, Note_on_c, 14, 50, 0
17, 84320, Note_on_c, 14, 57, 32
17, 84320, Note_on_c, 14, 50, 32
17, 84353, Note_on_c, 14, 57, 0
17, 84353, Note_on_c, 14, 50, 0
17, 84360, Note_on_c, 14, 57, 32
17, 84360, Note_on_c, 14, 50, 32
17, 84393, Note_on_c, 14, 57, 0
17, 84393, Note_on_c, 14, 50, 0
17, 84400, Note_on_c, 14, 50, 32
17, 84400, Note_on_c, 14, 57, 32
17, 84433, Note_on_c, 14, 50, 0
17, 84433, Note_on_c, 14, 57, 0
17, 84440, Note_on_c, 14, 50, 32
17, 84440, Note_on_c, 14, 57, 32
17, 84473, Note_on_c, 14, 50, 0
17, 84473, Note_on_c, 14, 57, 0
17, 84480, Note_on_c, 14, 50, 32
17, 84480, Note_on_c, 14, 57, 32
17, 84513, Note_on_c, 14, 50, 0
17, 84513, Note_on_c, 14, 57, 0
17, 84520, Note_on_c, 14, 50, 32
17, 84520, Note_on_c, 14, 57, 32
17, 84553, Note_on_c, 14, 50, 0
17, 84553, Note_on_c, 14, 57, 0
17, 84560, Note_on_c, 14, 57, 32
17, 84560, Note_on_c, 14, 50, 32
17, 84593, Note_on_c, 14, 57, 0
17, 84593, Note_on_c, 14, 50, 0
17, 84600, Note_on_c, 14, 57, 32
17, 84600, Note_on_c, 14, 50, 32
17, 84633, Note_on_c, 14, 57, 0
17, 84633, Note_on_c, 14, 50, 0
17, 84640, Note_on_c, 14, 50, 32
17, 84640, Note_on_c, 14, 57, 32
17, 84673, Note_on_c, 14, 50, 0
17, 84673, Note_on_c, 14, 57, 0
17, 84680, Note_on_c, 14, 57, 32
17, 84680, Note_on_c, 14, 50, 32
17, 84713, Note_on_c, 14, 57, 0
17, 84713, Note_on_c, 14, 50, 0
17, 84720, Note_on_c, 14, 57, 32
17, 84720, Note_on_c, 14, 50, 32
17, 84753, Note_on_c, 14, 57, 0
17, 84753, Note_on_c, 14, 50, 0
17, 84760, Note_on_c, 14, 50, 32
17, 84760, Note_on_c, 14, 57, 32
17, 84793, Note_on_c, 14, 50, 0
17, 84793, Note_on_c, 14, 57, 0
17, 84800, Note_on_c, 14, 50, 32
17, 84800, Note_on_c, 14, 57, 32
17, 84833, Note_on_c, 14, 50, 0
17, 84833, Note_on_c, 14, 57, 0
17, 84840, Note_on_c, 14, 57, 32
17, 84840, Note_on_c, 14, 50, 32
17, 84873, Note_on_c, 14, 57, 0
17, 84873, Note_on_c, 14, 50, 0
17, 84880, Note_on_c, 14, 57, 32
17, 84880, Note_on_c, 14, 50, 32
17, 84913, Note_on_c, 14, 57, 0
17, 84913, Note_on_c, 14, 50, 0
17, 84920, Note_on_c, 14, 50, 32
17, 84920, Note_on_c, 14, 57, 32
17, 84953, Note_on_c, 14, 50, 0
17, 84953, Note_on_c, 14, 57, 0
17, 84960, Note_on_c, 14, 50, 32
17, 84960, Note_on_c, 14, 57, 32
17, 84993, Note_on_c, 14, 50, 0
17, 84993, Note_on_c, 14, 57, 0
17, 85000, Note_on_c, 14, 50, 32
17, 85000, Note_on_c, 14, 57, 32
17, 85033, Note_on_c, 14, 50, 0
17, 85033, Note_on_c, 14, 57, 0
17, 85040, Note_on_c, 14, 50, 32
17, 85040, Note_on_c, 14, 57, 32
17, 85073, Note_on_c, 14, 50, 0
17, 85073, Note_on_c, 14, 57, 0
17, 85080, Note_on_c, 14, 50, 32
17, 85080, Note_on_c, 14, 57, 32
17, 85113, Note_on_c, 14, 50, 0
17, 85113, Note_on_c, 14, 57, 0
17, 85120, Note_on_c, 14, 57, 32
17, 85120, Note_on_c, 14, 50, 32
17, 85153, Note_on_c, 14, 57, 0
17, 85153, Note_on_c, 14, 50, 0
17, 85160, Note_on_c, 14, 57, 32
17, 85160, Note_on_c, 14, 50, 32
17, 85193, Note_on_c, 14, 57, 0
17, 85193, Note_on_c, 14, 50, 0
17, 85200, Note_on_c, 14, 50, 32
17, 85200, Note_on_c, 14, 58, 32
17, 85233, Note_on_c, 14, 50, 0
17, 85233, Note_on_c, 14, 58, 0
17, 85240, Note_on_c, 14, 58, 32
17, 85240, Note_on_c, 14, 50, 32
17, 85273, Note_on_c, 14, 58, 0
17, 85273, Note_on_c, 14, 50, 0
17, 85280, Note_on_c, 14, 50, 32
17, 85280, Note_on_c, 14, 58, 32
17, 85313, Note_on_c, 14, 50, 0
17, 85313, Note_on_c, 14, 58, 0
17, 85320, Note_on_c, 14, 50, 32
17, 85320, Note_on_c, 14, 58, 32
17, 85353, Note_on_c, 14, 50, 0
17, 85353, Note_on_c, 14, 58, 0
17, 85360, Note_on_c, 14, 58, 32
17, 85360, Note_on_c, 14, 50, 32
17, 85393, Note_on_c, 14, 58, 0
17, 85393, Note_on_c, 14, 50, 0
17, 85400, Note_on_c, 14, 50, 32
17, 85400, Note_on_c, 14, 58, 32
17, 85433, Note_on_c, 14, 50, 0
17, 85433, Note_on_c, 14, 58, 0
17, 85440, Note_on_c, 14, 50, 32
17, 85440, Note_on_c, 14, 58, 32
17, 85473, Note_on_c, 14, 50, 0
17, 85473, Note_on_c, 14, 58, 0
17, 85480, Note_on_c, 14, 58, 32
17, 85480, Note_on_c, 14, 50, 32
17, 85513, Note_on_c, 14, 58, 0
17, 85513, Note_on_c, 14, 50, 0
17, 85520, Note_on_c, 14, 50, 32
17, 85520, Note_on_c, 14, 58, 32
17, 85553, Note_on_c, 14, 50, 0
17, 85553, Note_on_c, 14, 58, 0
17, 85560, Note_on_c, 14, 58, 32
17, 85560, Note_on_c, 14, 50, 32
17, 85593, Note_on_c, 14, 58, 0
17, 85593, Note_on_c, 14, 50, 0
17, 85600, Note_on_c, 14, 58, 32
17, 85600, Note_on_c, 14, 50, 32
17, 85633, Note_on_c, 14, 58, 0
17, 85633, Note_on_c, 14, 50, 0
17, 85640, Note_on_c, 14, 58, 32
17, 85640, Note_on_c, 14, 50, 32
17, 85673, Note_on_c, 14, 58, 0
17, 85673, Note_on_c, 14, 50, 0
17, 85680, Note_on_c, 14, 50, 32
17, 85680, Note_on_c, 14, 58, 32
17, 85713, Note_on_c, 14, 50, 0
17, 85713, Note_on_c, 14, 58, 0
17, 85720, Note_on_c, 14, 50, 32
17, 85720, Note_on_c, 14, 58, 32
17, 85753, Note_on_c, 14, 50, 0
17, 85753, Note_on_c, 14, 58, 0
17, 85760, Note_on_c, 14, 50, 32
17, 85760, Note_on_c, 14, 58, 32
17, 85793, Note_on_c, 14, 50, 0
17, 85793, Note_on_c, 14, 58, 0
17, 85800, Note_on_c, 14, 58, 32
17, 85800, Note_on_c, 14, 50, 32
17, 85833, Note_on_c, 14, 58, 0
17, 85833, Note_on_c, 14, 50, 0
17, 85840, Note_on_c, 14, 58, 32
17, 85840, Note_on_c, 14, 50, 32
17, 85873, Note_on_c, 14, 58, 0
17, 85873, Note_on_c, 14, 50, 0
17, 85880, Note_on_c, 14, 50, 32
17, 85880, Note_on_c, 14, 58, 32
17, 85913, Note_on_c, 14, 50, 0
17, 85913, Note_on_c, 14, 58, 0
17, 85920, Note_on_c, 14, 58, 32
17, 85920, Note_on_c, 14, 50, 32
17, 85953, Note_on_c, 14, 58, 0
17, 85953, Note_on_c, 14, 50, 0
17, 85960, Note_on_c, 14, 58, 32
17, 85960, Note_on_c, 14, 50, 32
17, 85993, Note_on_c, 14, 58, 0
17, 85993, Note_on_c, 14, 50, 0
17, 86000, Note_on_c, 14, 50, 32
17, 86000, Note_on_c, 14, 58, 32
17, 86033, Note_on_c, 14, 50, 0
17, 86033, Note_on_c, 14, 58, 0
17, 86040, Note_on_c, 14, 58, 32
17, 86040, Note_on_c, 14, 50, 32
17, 86073, Note_on_c, 14, 58, 0
17, 86073, Note_on_c, 14, 50, 0
17, 86080, Note_on_c, 14, 58, 32
17, 86080, Note_on_c, 14, 50, 32
17, 86113, Note_on_c, 14, 58, 0
17, 86113, Note_on_c, 14, 50, 0
17, 86120, Note_on_c, 14, 50, 32
17, 86120, Note_on_c, 14, 58, 32
17, 86153, Note_on_c, 14, 50, 0
17, 86153, Note_on_c, 14, 58, 0
17, 86160, Note_on_c, 14, 50, 32
17, 86160, Note_on_c, 14, 58, 32
17, 86193, Note_on_c, 14, 50, 0
17, 86193, Note_on_c, 14, 58, 0
17, 86200, Note_on_c, 14, 58, 32
17, 86200, Note_on_c, 14, 50, 32
17, 86233, Note_on_c, 14, 58, 0
17, 86233, Note_on_c, 14, 50, 0
17, 86240, Note_on_c, 14, 58, 32
17, 86240, Note_on_c, 14, 50, 32
17, 86273, Note_on_c, 14, 58, 0
17, 86273, Note_on_c, 14, 50, 0
17, 86280, Note_on_c, 14, 50, 32
17, 86280, Note_on_c, 14, 58, 32
17, 86313, Note_on_c, 14, 50, 0
17, 86313, Note_on_c, 14, 58, 0
17, 86320, Note_on_c, 14, 50, 32
17, 86320, Note_on_c, 14, 58, 32
17, 86353, Note_on_c, 14, 50, 0
17, 86353, Note_on_c, 14, 58, 0
17, 86360, Note_on_c, 14, 50, 32
17, 86360, Note_on_c, 14, 58, 32
17, 86393, Note_on_c, 14, 50, 0
17, 86393, Note_on_c, 14, 58, 0
17, 86400, Note_on_c, 14, 58, 32
17, 86400, Note_on_c, 14, 50, 32
17, 86433, Note_on_c, 14, 58, 0
17, 86433, Note_on_c, 14, 50, 0
17, 86440, Note_on_c, 14, 50, 32
17, 86440, Note_on_c, 14, 58, 32
17, 86473, Note_on_c, 14, 50, 0
17, 86473, Note_on_c, 14, 58, 0
17, 86480, Note_on_c, 14, 50, 32
17, 86480, Note_on_c, 14, 58, 32
17, 86513, Note_on_c, 14, 50, 0
17, 86513, Note_on_c, 14, 58, 0
17, 86520, Note_on_c, 14, 50, 32
17, 86520, Note_on_c, 14, 58, 32
17, 86553, Note_on_c, 14, 50, 0
17, 86553, Note_on_c, 14, 58, 0
17, 86560, Note_on_c, 14, 50, 32
17, 86560, Note_on_c, 14, 58, 32
17, 86593, Note_on_c, 14, 50, 0
17, 86593, Note_on_c, 14, 58, 0
17, 86600, Note_on_c, 14, 58, 32
17, 86600, Note_on_c, 14, 50, 32
17, 86633, Note_on_c, 14, 58, 0
17, 86633, Note_on_c, 14, 50, 0
17, 86640, Note_on_c, 14, 50, 32
17, 86640, Note_on_c, 14, 58, 32
17, 86673, Note_on_c, 14, 50, 0
17, 86673, Note_on_c, 14, 58, 0
17, 86680, Note_on_c, 14, 50, 32
17, 86680, Note_on_c, 14, 58, 32
17, 86713, Note_on_c, 14, 50, 0
17, 86713, Note_on_c, 14, 58, 0
17, 86720, Note_on_c, 14, 50, 32
17, 86720, Note_on_c, 14, 58, 32
17, 86753, Note_on_c, 14, 50, 0
17, 86753, Note_on_c, 14, 58, 0
17, 86760, Note_on_c, 14, 50, 32
17, 86760, Note_on_c, 14, 58, 32
17, 86793, Note_on_c, 14, 50, 0
17, 86793, Note_on_c, 14, 58, 0
17, 86800, Note_on_c, 14, 58, 32
17, 86800, Note_on_c, 14, 50, 32
17, 86833, Note_on_c, 14, 58, 0
17, 86833, Note_on_c, 14, 50, 0
17, 86840, Note_on_c, 14, 58, 32
17, 86840, Note_on_c, 14, 50, 32
17, 86873, Note_on_c, 14, 58, 0
17, 86873, Note_on_c, 14, 50, 0
17, 86880, Note_on_c, 14, 58, 32
17, 86880, Note_on_c, 14, 50, 32
17, 86913, Note_on_c, 14, 58, 0
17, 86913, Note_on_c, 14, 50, 0
17, 86920, Note_on_c, 14, 58, 32
17, 86920, Note_on_c, 14, 50, 32
17, 86953, Note_on_c, 14, 58, 0
17, 86953, Note_on_c, 14, 50, 0
17, 86960, Note_on_c, 14, 58, 32
17, 86960, Note_on_c, 14, 50, 32
17, 86993, Note_on_c, 14, 58, 0
17, 86993, Note_on_c, 14, 50, 0
17, 87000, Note_on_c, 14, 58, 32
17, 87000, Note_on_c, 14, 50, 32
17, 87033, Note_on_c, 14, 58, 0
17, 87033, Note_on_c, 14, 50, 0
17, 87040, Note_on_c, 14, 58, 32
17, 87040, Note_on_c, 14, 50, 32
17, 87073, Note_on_c, 14, 58, 0
17, 87073, Note_on_c, 14, 50, 0
17, 87080, Note_on_c, 14, 50, 32
17, 87080, Note_on_c, 14, 58, 32
17, 87113, Note_on_c, 14, 50, 0
17, 87113, Note_on_c, 14, 58, 0
17, 87120, Note_on_c, 14, 58, 32
17, 87120, Note_on_c, 14, 50, 32
17, 87153, Note_on_c, 14, 58, 0
17, 87153, Note_on_c, 14, 50, 0
17, 87160, Note_on_c, 14, 50, 32
17, 87160, Note_on_c, 14, 58, 32
17, 87193, Note_on_c, 14, 50, 0
17, 87193, Note_on_c, 14, 58, 0
17, 87200, Note_on_c, 14, 58, 32
17, 87200, Note_on_c, 14, 50, 32
17, 87233, Note_on_c, 14, 58, 0
17, 87233, Note_on_c, 14, 50, 0
17, 87240, Note_on_c, 14, 58, 32
17, 87240, Note_on_c, 14, 50, 32
17, 87273, Note_on_c, 14, 58, 0
17, 87273, Note_on_c, 14, 50, 0
17, 87280, Note_on_c, 14, 58, 32
17, 87280, Note_on_c, 14, 50, 32
17, 87313, Note_on_c, 14, 58, 0
17, 87313, Note_on_c, 14, 50, 0
17, 87320, Note_on_c, 14, 58, 32
17, 87320, Note_on_c, 14, 50, 32
17, 87353, Note_on_c, 14, 58, 0
17, 87353, Note_on_c, 14, 50, 0
17, 87360, Note_on_c, 14, 50, 32
17, 87360, Note_on_c, 14, 58, 32
17, 87393, Note_on_c, 14, 50, 0
17, 87393, Note_on_c, 14, 58, 0
17, 87400, Note_on_c, 14, 50, 32
17, 87400, Note_on_c, 14, 58, 32
17, 87433, Note_on_c, 14, 50, 0
17, 87433, Note_on_c, 14, 58, 0
17, 87440, Note_on_c, 14, 50, 32
17, 87440, Note_on_c, 14, 58, 32
17, 87473, Note_on_c, 14, 50, 0
17, 87473, Note_on_c, 14, 58, 0
17, 87480, Note_on_c, 14, 58, 32
17, 87480, Note_on_c, 14, 50, 32
17, 87513, Note_on_c, 14, 58, 0
17, 87513, Note_on_c, 14, 50, 0
17, 87520, Note_on_c, 14, 50, 32
17, 87520, Note_on_c, 14, 58, 32
17, 87553, Note_on_c, 14, 50, 0
17, 87553, Note_on_c, 14, 58, 0
17, 87560, Note_on_c, 14, 58, 32
17, 87560, Note_on_c, 14, 50, 32
17, 87593, Note_on_c, 14, 58, 0
17, 87593, Note_on_c, 14, 50, 0
17, 87600, Note_on_c, 14, 50, 32
17, 87600, Note_on_c, 14, 58, 32
17, 87633, Note_on_c, 14, 50, 0
17, 87633, Note_on_c, 14, 58, 0
17, 87640, Note_on_c, 14, 58, 32
17, 87640, Note_on_c, 14, 50, 32
17, 87673, Note_on_c, 14, 58, 0
17, 87673, Note_on_c, 14, 50, 0
17, 87680, Note_on_c, 14, 58, 32
17, 87680, Note_on_c, 14, 50, 32
17, 87713, Note_on_c, 14, 58, 0
17, 87713, Note_on_c, 14, 50, 0
17, 87720, Note_on_c, 14, 50, 32
17, 87720, Note_on_c, 14, 58, 32
17, 87753, Note_on_c, 14, 50, 0
17, 87753, Note_on_c, 14, 58, 0
17, 87760, Note_on_c, 14, 58, 32
17, 87760, Note_on_c, 14, 50, 32
17, 87793, Note_on_c, 14, 58, 0
17, 87793, Note_on_c, 14, 50, 0
17, 87800, Note_on_c, 14, 58, 32
17, 87800, Note_on_c, 14, 50, 32
17, 87833, Note_on_c, 14, 58, 0
17, 87833, Note_on_c, 14, 50, 0
17, 87840, Note_on_c, 14, 57, 32
17, 87840, Note_on_c, 14, 50, 32
17, 87873, Note_on_c, 14, 57, 0
17, 87873, Note_on_c, 14, 50, 0
17, 87880, Note_on_c, 14, 50, 32
17, 87880, Note_on_c, 14, 57, 32
17, 87913, Note_on_c, 14, 50, 0
17, 87913, Note_on_c, 14, 57, 0
17, 87920, Note_on_c, 14, 50, 32
17, 87920, Note_on_c, 14, 57, 32
17, 87953, Note_on_c, 14, 50, 0
17, 87953, Note_on_c, 14, 57, 0
17, 87960, Note_on_c, 14, 50, 32
17, 87960, Note_on_c, 14, 57, 32
17, 87993, Note_on_c, 14, 50, 0
17, 87993, Note_on_c, 14, 57, 0
17, 88000, Note_on_c, 14, 50, 32
17, 88000, Note_on_c, 14, 57, 32
17, 88033, Note_on_c, 14, 50, 0
17, 88033, Note_on_c, 14, 57, 0
17, 88040, Note_on_c, 14, 57, 32
17, 88040, Note_on_c, 14, 50, 32
17, 88073, Note_on_c, 14, 57, 0
17, 88073, Note_on_c, 14, 50, 0
17, 88080, Note_on_c, 14, 50, 32
17, 88080, Note_on_c, 14, 57, 32
17, 88113, Note_on_c, 14, 50, 0
17, 88113, Note_on_c, 14, 57, 0
17, 88120, Note_on_c, 14, 50, 32
17, 88120, Note_on_c, 14, 57, 32
17, 88153, Note_on_c, 14, 50, 0
17, 88153, Note_on_c, 14, 57, 0
17, 88160, Note_on_c, 14, 50, 32
17, 88160, Note_on_c, 14, 57, 32
17, 88193, Note_on_c, 14, 50, 0
17, 88193, Note_on_c, 14, 57, 0
17, 88200, Note_on_c, 14, 57, 32
17, 88200, Note_on_c, 14, 50, 32
17, 88233, Note_on_c, 14, 57, 0
17, 88233, Note_on_c, 14, 50, 0
17, 88240, Note_on_c, 14, 57, 32
17, 88240, Note_on_c, 14, 50, 32
17, 88273, Note_on_c, 14, 57, 0
17, 88273, Note_on_c, 14, 50, 0
17, 88280, Note_on_c, 14, 57, 32
17, 88280, Note_on_c, 14, 50, 32
17, 88313, Note_on_c, 14, 57, 0
17, 88313, Note_on_c, 14, 50, 0
17, 88320, Note_on_c, 14, 50, 32
17, 88320, Note_on_c, 14, 57, 32
17, 88353, Note_on_c, 14, 50, 0
17, 88353, Note_on_c, 14, 57, 0
17, 88360, Note_on_c, 14, 57, 32
17, 88360, Note_on_c, 14, 50, 32
17, 88393, Note_on_c, 14, 57, 0
17, 88393, Note_on_c, 14, 50, 0
17, 88400, Note_on_c, 14, 50, 32
17, 88400, Note_on_c, 14, 57, 32
17, 88433, Note_on_c, 14, 50, 0
17, 88433, Note_on_c, 14, 57, 0
17, 88440, Note_on_c, 14, 57, 32
17, 88440, Note_on_c, 14, 50, 32
17, 88473, Note_on_c, 14, 57, 0
17, 88473, Note_on_c, 14, 50, 0
17, 88480, Note_on_c, 14, 50, 32
17, 88480, Note_on_c, 14, 57, 32
17, 88513, Note_on_c, 14, 50, 0
17, 88513, Note_on_c, 14, 57, 0
17, 88520, Note_on_c, 14, 57, 32
17, 88520, Note_on_c, 14, 50, 32
17, 88553, Note_on_c, 14, 57, 0
17, 88553, Note_on_c, 14, 50, 0
17, 88560, Note_on_c, 14, 50, 32
17, 88560, Note_on_c, 14, 57, 32
17, 88593, Note_on_c, 14, 50, 0
17, 88593, Note_on_c, 14, 57, 0
17, 88600, Note_on_c, 14, 50, 32
17, 88600, Note_on_c, 14, 57, 32
17, 88633, Note_on_c, 14, 50, 0
17, 88633, Note_on_c, 14, 57, 0
17, 88640, Note_on_c, 14, 50, 32
17, 88640, Note_on_c, 14, 57, 32
17, 88673, Note_on_c, 14, 50, 0
17, 88673, Note_on_c, 14, 57, 0
17, 88680, Note_on_c, 14, 50, 32
17, 88680, Note_on_c, 14, 57, 32
17, 88713, Note_on_c, 14, 50, 0
17, 88713, Note_on_c, 14, 57, 0
17, 88720, Note_on_c, 14, 57, 32
17, 88720, Note_on_c, 14, 50, 32
17, 88753, Note_on_c, 14, 57, 0
17, 88753, Note_on_c, 14, 50, 0
17, 88760, Note_on_c, 14, 57, 32
17, 88760, Note_on_c, 14, 50, 32
17, 88793, Note_on_c, 14, 57, 0
17, 88793, Note_on_c, 14, 50, 0
17, 88800, Note_on_c, 14, 54, 32
17, 88800, Note_on_c, 14, 57, 32
17, 88833, Note_on_c, 14, 54, 0
17, 88833, Note_on_c, 14, 57, 0
17, 88840, Note_on_c, 14, 57, 34
17, 88840, Note_on_c, 14, 54, 34
17, 88873, Note_on_c, 14, 57, 0
17, 88873, Note_on_c, 14, 54, 0
17, 88880, Note_on_c, 14, 57, 37
17, 88880, Note_on_c, 14, 54, 37
17, 88913, Note_on_c, 14, 57, 0
17, 88913, Note_on_c, 14, 54, 0
17, 88920, Note_on_c, 14, 57, 39
17, 88920, Note_on_c, 14, 54, 39
17, 88953, Note_on_c, 14, 57, 0
17, 88953, Note_on_c, 14, 54, 0
17, 88960, Note_on_c, 14, 54, 42
17, 88960, Note_on_c, 14, 57, 42
17, 88993, Note_on_c, 14, 54, 0
17, 88993, Note_on_c, 14, 57, 0
17, 89000, Note_on_c, 14, 54, 44
17, 89000, Note_on_c, 14, 57, 44
17, 89033, Note_on_c, 14, 54, 0
17, 89033, Note_on_c, 14, 57, 0
17, 89040, Note_on_c, 14, 54, 47
17, 89040, Note_on_c, 14, 57, 47
17, 89073, Note_on_c, 14, 54, 0
17, 89073, Note_on_c, 14, 57, 0
17, 89080, Note_on_c, 14, 57, 49
17, 89080, Note_on_c, 14, 54, 49
17, 89113, Note_on_c, 14, 57, 0
17, 89113, Note_on_c, 14, 54, 0
17, 89120, Note_on_c, 14, 54, 52
17, 89120, Note_on_c, 14, 57, 52
17, 89153, Note_on_c, 14, 54, 0
17, 89153, Note_on_c, 14, 57, 0
17, 89160, Note_on_c, 14, 54, 54
17, 89160, Note_on_c, 14, 57, 54
17, 89193, Note_on_c, 14, 54, 0
17, 89193, Note_on_c, 14, 57, 0
17, 89200, Note_on_c, 14, 57, 57
17, 89200, Note_on_c, 14, 54, 57
17, 89233, Note_on_c, 14, 57, 0
17, 89233, Note_on_c, 14, 54, 0
17, 89240, Note_on_c, 14, 54, 59
17, 89240, Note_on_c, 14, 57, 59
17, 89273, Note_on_c, 14, 54, 0
17, 89273, Note_on_c, 14, 57, 0
17, 89280, Note_on_c, 14, 57, 62
17, 89280, Note_on_c, 14, 54, 62
17, 89313, Note_on_c, 14, 57, 0
17, 89313, Note_on_c, 14, 54, 0
17, 89320, Note_on_c, 14, 54, 64
17, 89320, Note_on_c, 14, 57, 64
17, 89353, Note_on_c, 14, 54, 0
17, 89353, Note_on_c, 14, 57, 0
17, 89360, Note_on_c, 14, 57, 67
17, 89360, Note_on_c, 14, 54, 67
17, 89393, Note_on_c, 14, 57, 0
17, 89393, Note_on_c, 14, 54, 0
17, 89400, Note_on_c, 14, 54, 69
17, 89400, Note_on_c, 14, 57, 69
17, 89433, Note_on_c, 14, 54, 0
17, 89433, Note_on_c, 14, 57, 0
17, 89440, Note_on_c, 14, 57, 72
17, 89440, Note_on_c, 14, 54, 72
17, 89473, Note_on_c, 14, 57, 0
17, 89473, Note_on_c, 14, 54, 0
17, 89480, Note_on_c, 14, 54, 74
17, 89480, Note_on_c, 14, 57, 74
17, 89513, Note_on_c, 14, 54, 0
17, 89513, Note_on_c, 14, 57, 0
17, 89520, Note_on_c, 14, 57, 77
17, 89520, Note_on_c, 14, 54, 77
17, 89553, Note_on_c, 14, 57, 0
17, 89553, Note_on_c, 14, 54, 0
17, 89560, Note_on_c, 14, 57, 79
17, 89560, Note_on_c, 14, 54, 79
17, 89593, Note_on_c, 14, 57, 0
17, 89593, Note_on_c, 14, 54, 0
17, 89600, Note_on_c, 14, 57, 82
17, 89600, Note_on_c, 14, 54, 82
17, 89633, Note_on_c, 14, 57, 0
17, 89633, Note_on_c, 14, 54, 0
17, 89640, Note_on_c, 14, 57, 84
17, 89640, Note_on_c, 14, 54, 84
17, 89673, Note_on_c, 14, 57, 0
17, 89673, Note_on_c, 14, 54, 0
17, 89680, Note_on_c, 14, 57, 87
17, 89680, Note_on_c, 14, 54, 87
17, 89713, Note_on_c, 14, 57, 0
17, 89713, Note_on_c, 14, 54, 0
17, 89720, Note_on_c, 14, 54, 89
17, 89720, Note_on_c, 14, 57, 89
17, 89753, Note_on_c, 14, 54, 0
17, 89753, Note_on_c, 14, 57, 0
17, 89760, Note_on_c, 14, 57, 92
17, 89760, Note_on_c, 14, 54, 92
17, 89785, Note_on_c, 14, 57, 0
17, 89785, Note_on_c, 14, 54, 0
17, 89790, Note_on_c, 14, 57, 92
17, 89790, Note_on_c, 14, 54, 92
17, 89815, Note_on_c, 14, 57, 0
17, 89815, Note_on_c, 14, 54, 0
17, 89820, Note_on_c, 14, 57, 92
17, 89820, Note_on_c, 14, 54, 92
17, 89845, Note_on_c, 14, 57, 0
17, 89845, Note_on_c, 14, 54, 0
17, 89850, Note_on_c, 14, 54, 92
17, 89850, Note_on_c, 14, 57, 92
17, 89875, Note_on_c, 14, 54, 0
17, 89875, Note_on_c, 14, 57, 0
17, 89880, Note_on_c, 14, 54, 92
17, 89880, Note_on_c, 14, 57, 92
17, 89905, Note_on_c, 14, 54, 0
17, 89905, Note_on_c, 14, 57, 0
17, 89910, Note_on_c, 14, 57, 92
17, 89910, Note_on_c, 14, 54, 92
17, 89935, Note_on_c, 14, 57, 0
17, 89935, Note_on_c, 14, 54, 0
17, 89940, Note_on_c, 14, 57, 92
17, 89940, Note_on_c, 14, 54, 92
17, 89965, Note_on_c, 14, 57, 0
17, 89965, Note_on_c, 14, 54, 0
17, 89970, Note_on_c, 14, 54, 92
17, 89970, Note_on_c, 14, 57, 92
17, 89995, Note_on_c, 14, 54, 0
17, 89995, Note_on_c, 14, 57, 0
17, 90000, Note_on_c, 14, 54, 92
17, 90000, Note_on_c, 14, 57, 92
17, 90025, Note_on_c, 14, 54, 0
17, 90025, Note_on_c, 14, 57, 0
17, 90030, Note_on_c, 14, 57, 92
17, 90030, Note_on_c, 14, 54, 92
17, 90055, Note_on_c, 14, 57, 0
17, 90055, Note_on_c, 14, 54, 0
17, 90060, Note_on_c, 14, 57, 92
17, 90060, Note_on_c, 14, 54, 92
17, 90085, Note_on_c, 14, 57, 0
17, 90085, Note_on_c, 14, 54, 0
17, 90090, Note_on_c, 14, 57, 92
17, 90090, Note_on_c, 14, 54, 92
17, 90115, Note_on_c, 14, 57, 0
17, 90115, Note_on_c, 14, 54, 0
17, 90120, Note_on_c, 14, 57, 92
17, 90120, Note_on_c, 14, 54, 92
17, 90145, Note_on_c, 14, 57, 0
17, 90145, Note_on_c, 14, 54, 0
17, 90150, Note_on_c, 14, 54, 92
17, 90150, Note_on_c, 14, 57, 92
17, 90175, Note_on_c, 14, 54, 0
17, 90175, Note_on_c, 14, 57, 0
17, 90180, Note_on_c, 14, 54, 92
17, 90180, Note_on_c, 14, 57, 92
17, 90205, Note_on_c, 14, 54, 0
17, 90205, Note_on_c, 14, 57, 0
17, 90210, Note_on_c, 14, 57, 92
17, 90210, Note_on_c, 14, 54, 92
17, 90235, Note_on_c, 14, 57, 0
17, 90235, Note_on_c, 14, 54, 0
17, 90240, Note_on_c, 14, 63, 104
17, 90299, Note_on_c, 14, 63, 0
17, 90300, Note_on_c, 14, 63, 92
17, 90584, Note_on_c, 14, 63, 0
17, 90600, Note_on_c, 14, 57, 92
17, 90681, Note_on_c, 14, 57, 0
17, 90690, Note_on_c, 14, 57, 92
17, 90711, Note_on_c, 14, 57, 0
17, 90720, Note_on_c, 14, 60, 104
17, 90824, Note_on_c, 14, 60, 0
17, 90840, Note_on_c, 14, 54, 92
17, 90921, Note_on_c, 14, 54, 0
17, 90930, Note_on_c, 14, 54, 92
17, 90951, Note_on_c, 14, 54, 0
17, 90960, Note_on_c, 14, 57, 104
17, 91064, Note_on_c, 14, 57, 0
17, 91080, Note_on_c, 14, 48, 92
17, 91161, Note_on_c, 14, 48, 0
17, 91170, Note_on_c, 14, 48, 92
17, 91191, Note_on_c, 14, 48, 0
17, 91200, Note_on_c, 14, 51, 104
17, 91304, Note_on_c, 14, 51, 0
17, 91320, Note_on_c, 14, 45, 92
17, 91401, Note_on_c, 14, 45, 0
17, 91410, Note_on_c, 14, 45, 92
17, 91431, Note_on_c, 14, 45, 0
17, 91440, Note_on_c, 14, 50, 104
17, 91544, Note_on_c, 14, 50, 0
17, 91560, Note_on_c, 14, 50, 92
17, 91641, Note_on_c, 14, 50, 0
17, 91650, Note_on_c, 14, 50, 92
17, 91671, Note_on_c, 14, 50, 0
17, 91680, Note_on_c, 14, 43, 44
17, 91799, Note_on_c, 14, 43, 0
17, 94560, Note_on_c, 14, 55, 44
17, 94560, Note_on_c, 14, 43, 44
17, 94593, Note_on_c, 14, 55, 0
17, 94593, Note_on_c, 14, 43, 0
17, 94600, Note_on_c, 14, 43, 44
17, 94600, Note_on_c, 14, 55, 44
17, 94633, Note_on_c, 14, 43, 0
17, 94633, Note_on_c, 14, 55, 0
17, 94640, Note_on_c, 14, 43, 44
17, 94640, Note_on_c, 14, 55, 44
17, 94673, Note_on_c, 14, 43, 0
17, 94673, Note_on_c, 14, 55, 0
17, 94680, Note_on_c, 14, 55, 44
17, 94680, Note_on_c, 14, 43, 44
17, 94713, Note_on_c, 14, 55, 0
17, 94713, Note_on_c, 14, 43, 0
17, 94720, Note_on_c, 14, 55, 44
17, 94720, Note_on_c, 14, 43, 44
17, 94753, Note_on_c, 14, 55, 0
17, 94753, Note_on_c, 14, 43, 0
17, 94760, Note_on_c, 14, 55, 44
17, 94760, Note_on_c, 14, 43, 44
17, 94793, Note_on_c, 14, 55, 0
17, 94793, Note_on_c, 14, 43, 0
17, 94800, Note_on_c, 14, 43, 44
17, 94800, Note_on_c, 14, 55, 44
17, 94833, Note_on_c, 14, 43, 0
17, 94833, Note_on_c, 14, 55, 0
17, 94840, Note_on_c, 14, 43, 44
17, 94840, Note_on_c, 14, 55, 44
17, 94873, Note_on_c, 14, 43, 0
17, 94873, Note_on_c, 14, 55, 0
17, 94880, Note_on_c, 14, 43, 44
17, 94880, Note_on_c, 14, 55, 44
17, 94913, Note_on_c, 14, 43, 0
17, 94913, Note_on_c, 14, 55, 0
17, 94920, Note_on_c, 14, 55, 44
17, 94920, Note_on_c, 14, 43, 44
17, 94953, Note_on_c, 14, 55, 0
17, 94953, Note_on_c, 14, 43, 0
17, 94960, Note_on_c, 14, 55, 44
17, 94960, Note_on_c, 14, 43, 44
17, 94993, Note_on_c, 14, 55, 0
17, 94993, Note_on_c, 14, 43, 0
17, 95000, Note_on_c, 14, 55, 44
17, 95000, Note_on_c, 14, 43, 44
17, 95033, Note_on_c, 14, 55, 0
17, 95033, Note_on_c, 14, 43, 0
17, 95040, Note_on_c, 14, 43, 44
17, 95040, Note_on_c, 14, 55, 44
17, 95073, Note_on_c, 14, 43, 0
17, 95073, Note_on_c, 14, 55, 0
17, 95080, Note_on_c, 14, 55, 44
17, 95080, Note_on_c, 14, 43, 44
17, 95113, Note_on_c, 14, 55, 0
17, 95113, Note_on_c, 14, 43, 0
17, 95120, Note_on_c, 14, 43, 44
17, 95120, Note_on_c, 14, 55, 44
17, 95153, Note_on_c, 14, 43, 0
17, 95153, Note_on_c, 14, 55, 0
17, 95160, Note_on_c, 14, 43, 44
17, 95160, Note_on_c, 14, 55, 44
17, 95193, Note_on_c, 14, 43, 0
17, 95193, Note_on_c, 14, 55, 0
17, 95200, Note_on_c, 14, 55, 44
17, 95200, Note_on_c, 14, 43, 44
17, 95233, Note_on_c, 14, 55, 0
17, 95233, Note_on_c, 14, 43, 0
17, 95240, Note_on_c, 14, 43, 44
17, 95240, Note_on_c, 14, 55, 44
17, 95273, Note_on_c, 14, 43, 0
17, 95273, Note_on_c, 14, 55, 0
17, 95280, Note_on_c, 14, 55, 44
17, 95280, Note_on_c, 14, 43, 44
17, 95313, Note_on_c, 14, 55, 0
17, 95313, Note_on_c, 14, 43, 0
17, 95320, Note_on_c, 14, 55, 44
17, 95320, Note_on_c, 14, 43, 44
17, 95353, Note_on_c, 14, 55, 0
17, 95353, Note_on_c, 14, 43, 0
17, 95360, Note_on_c, 14, 43, 44
17, 95360, Note_on_c, 14, 55, 44
17, 95393, Note_on_c, 14, 43, 0
17, 95393, Note_on_c, 14, 55, 0
17, 95400, Note_on_c, 14, 55, 44
17, 95400, Note_on_c, 14, 43, 44
17, 95433, Note_on_c, 14, 55, 0
17, 95433, Note_on_c, 14, 43, 0
17, 95440, Note_on_c, 14, 55, 44
17, 95440, Note_on_c, 14, 43, 44
17, 95473, Note_on_c, 14, 55, 0
17, 95473, Note_on_c, 14, 43, 0
17, 95480, Note_on_c, 14, 55, 44
17, 95480, Note_on_c, 14, 43, 44
17, 95513, Note_on_c, 14, 55, 0
17, 95513, Note_on_c, 14, 43, 0
17, 95520, Note_on_c, 14, 55, 44
17, 95520, Note_on_c, 14, 43, 44
17, 95553, Note_on_c, 14, 55, 0
17, 95553, Note_on_c, 14, 43, 0
17, 95560, Note_on_c, 14, 55, 44
17, 95560, Note_on_c, 14, 43, 44
17, 95593, Note_on_c, 14, 55, 0
17, 95593, Note_on_c, 14, 43, 0
17, 95600, Note_on_c, 14, 55, 44
17, 95600, Note_on_c, 14, 43, 44
17, 95633, Note_on_c, 14, 55, 0
17, 95633, Note_on_c, 14, 43, 0
17, 95640, Note_on_c, 14, 55, 44
17, 95640, Note_on_c, 14, 43, 44
17, 95673, Note_on_c, 14, 55, 0
17, 95673, Note_on_c, 14, 43, 0
17, 95680, Note_on_c, 14, 43, 44
17, 95680, Note_on_c, 14, 55, 44
17, 95713, Note_on_c, 14, 43, 0
17, 95713, Note_on_c, 14, 55, 0
17, 95720, Note_on_c, 14, 55, 44
17, 95720, Note_on_c, 14, 43, 44
17, 95753, Note_on_c, 14, 55, 0
17, 95753, Note_on_c, 14, 43, 0
17, 95760, Note_on_c, 14, 55, 44
17, 95760, Note_on_c, 14, 43, 44
17, 95793, Note_on_c, 14, 55, 0
17, 95793, Note_on_c, 14, 43, 0
17, 95800, Note_on_c, 14, 43, 44
17, 95800, Note_on_c, 14, 55, 44
17, 95833, Note_on_c, 14, 43, 0
17, 95833, Note_on_c, 14, 55, 0
17, 95840, Note_on_c, 14, 55, 44
17, 95840, Note_on_c, 14, 43, 44
17, 95873, Note_on_c, 14, 55, 0
17, 95873, Note_on_c, 14, 43, 0
17, 95880, Note_on_c, 14, 43, 44
17, 95880, Note_on_c, 14, 55, 44
17, 95913, Note_on_c, 14, 43, 0
17, 95913, Note_on_c, 14, 55, 0
17, 95920, Note_on_c, 14, 55, 44
17, 95920, Note_on_c, 14, 43, 44
17, 95953, Note_on_c, 14, 55, 0
17, 95953, Note_on_c, 14, 43, 0
17, 95960, Note_on_c, 14, 43, 44
17, 95960, Note_on_c, 14, 55, 44
17, 95993, Note_on_c, 14, 43, 0
17, 95993, Note_on_c, 14, 55, 0
17, 96000, Note_on_c, 14, 43, 44
17, 96000, Note_on_c, 14, 55, 44
17, 96033, Note_on_c, 14, 43, 0
17, 96033, Note_on_c, 14, 55, 0
17, 96040, Note_on_c, 14, 43, 44
17, 96040, Note_on_c, 14, 55, 44
17, 96073, Note_on_c, 14, 43, 0
17, 96073, Note_on_c, 14, 55, 0
17, 96080, Note_on_c, 14, 55, 44
17, 96080, Note_on_c, 14, 43, 44
17, 96113, Note_on_c, 14, 55, 0
17, 96113, Note_on_c, 14, 43, 0
17, 96120, Note_on_c, 14, 43, 44
17, 96120, Note_on_c, 14, 55, 44
17, 96153, Note_on_c, 14, 43, 0
17, 96153, Note_on_c, 14, 55, 0
17, 96160, Note_on_c, 14, 43, 44
17, 96160, Note_on_c, 14, 55, 44
17, 96193, Note_on_c, 14, 43, 0
17, 96193, Note_on_c, 14, 55, 0
17, 96200, Note_on_c, 14, 43, 44
17, 96200, Note_on_c, 14, 55, 44
17, 96233, Note_on_c, 14, 43, 0
17, 96233, Note_on_c, 14, 55, 0
17, 96240, Note_on_c, 14, 50, 44
17, 96240, Note_on_c, 14, 43, 44
17, 96273, Note_on_c, 14, 50, 0
17, 96273, Note_on_c, 14, 43, 0
17, 96280, Note_on_c, 14, 50, 44
17, 96280, Note_on_c, 14, 43, 44
17, 96313, Note_on_c, 14, 50, 0
17, 96313, Note_on_c, 14, 43, 0
17, 96320, Note_on_c, 14, 43, 44
17, 96320, Note_on_c, 14, 50, 44
17, 96353, Note_on_c, 14, 43, 0
17, 96353, Note_on_c, 14, 50, 0
17, 96360, Note_on_c, 14, 50, 44
17, 96360, Note_on_c, 14, 43, 44
17, 96393, Note_on_c, 14, 50, 0
17, 96393, Note_on_c, 14, 43, 0
17, 96400, Note_on_c, 14, 50, 44
17, 96400, Note_on_c, 14, 43, 44
17, 96433, Note_on_c, 14, 50, 0
17, 96433, Note_on_c, 14, 43, 0
17, 96440, Note_on_c, 14, 50, 44
17, 96440, Note_on_c, 14, 43, 44
17, 96473, Note_on_c, 14, 50, 0
17, 96473, Note_on_c, 14, 43, 0
17, 96480, Note_on_c, 14, 50, 44
17, 96480, Note_on_c, 14, 43, 44
17, 96513, Note_on_c, 14, 50, 0
17, 96513, Note_on_c, 14, 43, 0
17, 96520, Note_on_c, 14, 43, 44
17, 96520, Note_on_c, 14, 50, 44
17, 96553, Note_on_c, 14, 43, 0
17, 96553, Note_on_c, 14, 50, 0
17, 96560, Note_on_c, 14, 43, 44
17, 96560, Note_on_c, 14, 50, 44
17, 96593, Note_on_c, 14, 43, 0
17, 96593, Note_on_c, 14, 50, 0
17, 96600, Note_on_c, 14, 43, 44
17, 96600, Note_on_c, 14, 50, 44
17, 96633, Note_on_c, 14, 43, 0
17, 96633, Note_on_c, 14, 50, 0
17, 96640, Note_on_c, 14, 43, 44
17, 96640, Note_on_c, 14, 50, 44
17, 96673, Note_on_c, 14, 43, 0
17, 96673, Note_on_c, 14, 50, 0
17, 96680, Note_on_c, 14, 43, 44
17, 96680, Note_on_c, 14, 50, 44
17, 96713, Note_on_c, 14, 43, 0
17, 96713, Note_on_c, 14, 50, 0
17, 96720, Note_on_c, 14, 50, 44
17, 96720, Note_on_c, 14, 43, 44
17, 96753, Note_on_c, 14, 50, 0
17, 96753, Note_on_c, 14, 43, 0
17, 96760, Note_on_c, 14, 50, 44
17, 96760, Note_on_c, 14, 43, 44
17, 96793, Note_on_c, 14, 50, 0
17, 96793, Note_on_c, 14, 43, 0
17, 96800, Note_on_c, 14, 50, 44
17, 96800, Note_on_c, 14, 43, 44
17, 96833, Note_on_c, 14, 50, 0
17, 96833, Note_on_c, 14, 43, 0
17, 96840, Note_on_c, 14, 43, 44
17, 96840, Note_on_c, 14, 50, 44
17, 96873, Note_on_c, 14, 43, 0
17, 96873, Note_on_c, 14, 50, 0
17, 96880, Note_on_c, 14, 43, 44
17, 96880, Note_on_c, 14, 50, 44
17, 96913, Note_on_c, 14, 43, 0
17, 96913, Note_on_c, 14, 50, 0
17, 96920, Note_on_c, 14, 50, 44
17, 96920, Note_on_c, 14, 43, 44
17, 96953, Note_on_c, 14, 50, 0
17, 96953, Note_on_c, 14, 43, 0
17, 96960, Note_on_c, 14, 43, 44
17, 96960, Note_on_c, 14, 50, 44
17, 96993, Note_on_c, 14, 43, 0
17, 96993, Note_on_c, 14, 50, 0
17, 97000, Note_on_c, 14, 43, 44
17, 97000, Note_on_c, 14, 50, 44
17, 97033, Note_on_c, 14, 43, 0
17, 97033, Note_on_c, 14, 50, 0
17, 97040, Note_on_c, 14, 43, 44
17, 97040, Note_on_c, 14, 50, 44
17, 97073, Note_on_c, 14, 43, 0
17, 97073, Note_on_c, 14, 50, 0
17, 97080, Note_on_c, 14, 43, 44
17, 97080, Note_on_c, 14, 50, 44
17, 97113, Note_on_c, 14, 43, 0
17, 97113, Note_on_c, 14, 50, 0
17, 97120, Note_on_c, 14, 43, 44
17, 97120, Note_on_c, 14, 50, 44
17, 97153, Note_on_c, 14, 43, 0
17, 97153, Note_on_c, 14, 50, 0
17, 97160, Note_on_c, 14, 50, 44
17, 97160, Note_on_c, 14, 43, 44
17, 97193, Note_on_c, 14, 50, 0
17, 97193, Note_on_c, 14, 43, 0
17, 97200, Note_on_c, 14, 43, 44
17, 97200, Note_on_c, 14, 50, 44
17, 97233, Note_on_c, 14, 43, 0
17, 97233, Note_on_c, 14, 50, 0
17, 97240, Note_on_c, 14, 43, 44
17, 97240, Note_on_c, 14, 50, 44
17, 97273, Note_on_c, 14, 43, 0
17, 97273, Note_on_c, 14, 50, 0
17, 97280, Note_on_c, 14, 43, 44
17, 97280, Note_on_c, 14, 50, 44
17, 97313, Note_on_c, 14, 43, 0
17, 97313, Note_on_c, 14, 50, 0
17, 97320, Note_on_c, 14, 50, 44
17, 97320, Note_on_c, 14, 43, 44
17, 97353, Note_on_c, 14, 50, 0
17, 97353, Note_on_c, 14, 43, 0
17, 97360, Note_on_c, 14, 43, 44
17, 97360, Note_on_c, 14, 50, 44
17, 97393, Note_on_c, 14, 43, 0
17, 97393, Note_on_c, 14, 50, 0
17, 97400, Note_on_c, 14, 43, 44
17, 97400, Note_on_c, 14, 50, 44
17, 97433, Note_on_c, 14, 43, 0
17, 97433, Note_on_c, 14, 50, 0
17, 97440, Note_on_c, 14, 53, 44
17, 97440, Note_on_c, 14, 43, 44
17, 97473, Note_on_c, 14, 53, 0
17, 97473, Note_on_c, 14, 43, 0
17, 97480, Note_on_c, 14, 43, 45
17, 97480, Note_on_c, 14, 53, 45
17, 97513, Note_on_c, 14, 43, 0
17, 97513, Note_on_c, 14, 53, 0
17, 97520, Note_on_c, 14, 53, 47
17, 97520, Note_on_c, 14, 43, 47
17, 97553, Note_on_c, 14, 53, 0
17, 97553, Note_on_c, 14, 43, 0
17, 97560, Note_on_c, 14, 53, 48
17, 97560, Note_on_c, 14, 43, 48
17, 97593, Note_on_c, 14, 53, 0
17, 97593, Note_on_c, 14, 43, 0
17, 97600, Note_on_c, 14, 43, 50
17, 97600, Note_on_c, 14, 53, 50
17, 97633, Note_on_c, 14, 43, 0
17, 97633, Note_on_c, 14, 53, 0
17, 97640, Note_on_c, 14, 53, 51
17, 97640, Note_on_c, 14, 43, 51
17, 97673, Note_on_c, 14, 53, 0
17, 97673, Note_on_c, 14, 43, 0
17, 97680, Note_on_c, 14, 43, 53
17, 97680, Note_on_c, 14, 53, 53
17, 97713, Note_on_c, 14, 43, 0
17, 97713, Note_on_c, 14, 53, 0
17, 97720, Note_on_c, 14, 43, 54
17, 97720, Note_on_c, 14, 53, 54
17, 97753, Note_on_c, 14, 43, 0
17, 97753, Note_on_c, 14, 53, 0
17, 97760, Note_on_c, 14, 43, 56
17, 97760, Note_on_c, 14, 53, 56
17, 97793, Note_on_c, 14, 43, 0
17, 97793, Note_on_c, 14, 53, 0
17, 97800, Note_on_c, 14, 53, 57
17, 97800, Note_on_c, 14, 43, 57
17, 97833, Note_on_c, 14, 53, 0
17, 97833, Note_on_c, 14, 43, 0
17, 97840, Note_on_c, 14, 43, 59
17, 97840, Note_on_c, 14, 53, 59
17, 97873, Note_on_c, 14, 43, 0
17, 97873, Note_on_c, 14, 53, 0
17, 97880, Note_on_c, 14, 53, 60
17, 97880, Note_on_c, 14, 43, 60
17, 97913, Note_on_c, 14, 53, 0
17, 97913, Note_on_c, 14, 43, 0
17, 97920, Note_on_c, 14, 43, 62
17, 97920, Note_on_c, 14, 53, 62
17, 97953, Note_on_c, 14, 43, 0
17, 97953, Note_on_c, 14, 53, 0
17, 97960, Note_on_c, 14, 53, 63
17, 97960, Note_on_c, 14, 43, 63
17, 97993, Note_on_c, 14, 53, 0
17, 97993, Note_on_c, 14, 43, 0
17, 98000, Note_on_c, 14, 43, 65
17, 98000, Note_on_c, 14, 53, 65
17, 98033, Note_on_c, 14, 43, 0
17, 98033, Note_on_c, 14, 53, 0
17, 98040, Note_on_c, 14, 53, 66
17, 98040, Note_on_c, 14, 43, 66
17, 98073, Note_on_c, 14, 53, 0
17, 98073, Note_on_c, 14, 43, 0
17, 98080, Note_on_c, 14, 43, 68
17, 98080, Note_on_c, 14, 53, 68
17, 98113, Note_on_c, 14, 43, 0
17, 98113, Note_on_c, 14, 53, 0
17, 98120, Note_on_c, 14, 53, 69
17, 98120, Note_on_c, 14, 43, 69
17, 98153, Note_on_c, 14, 53, 0
17, 98153, Note_on_c, 14, 43, 0
17, 98160, Note_on_c, 14, 43, 71
17, 98160, Note_on_c, 14, 53, 71
17, 98193, Note_on_c, 14, 43, 0
17, 98193, Note_on_c, 14, 53, 0
17, 98200, Note_on_c, 14, 53, 72
17, 98200, Note_on_c, 14, 43, 72
17, 98233, Note_on_c, 14, 53, 0
17, 98233, Note_on_c, 14, 43, 0
17, 98240, Note_on_c, 14, 53, 74
17, 98240, Note_on_c, 14, 43, 74
17, 98273, Note_on_c, 14, 53, 0
17, 98273, Note_on_c, 14, 43, 0
17, 98280, Note_on_c, 14, 43, 75
17, 98280, Note_on_c, 14, 53, 75
17, 98313, Note_on_c, 14, 43, 0
17, 98313, Note_on_c, 14, 53, 0
17, 98320, Note_on_c, 14, 43, 77
17, 98320, Note_on_c, 14, 53, 77
17, 98353, Note_on_c, 14, 43, 0
17, 98353, Note_on_c, 14, 53, 0
17, 98360, Note_on_c, 14, 53, 78
17, 98360, Note_on_c, 14, 43, 78
17, 98393, Note_on_c, 14, 53, 0
17, 98393, Note_on_c, 14, 43, 0
17, 98400, Note_on_c, 14, 47, 80
17, 98504, Note_on_c, 14, 47, 0
17, 98520, Note_on_c, 14, 53, 80
17, 98744, Note_on_c, 14, 53, 0
17, 98760, Note_on_c, 14, 53, 80
17, 98841, Note_on_c, 14, 53, 0
17, 98850, Note_on_c, 14, 53, 80
17, 98871, Note_on_c, 14, 53, 0
17, 98880, Note_on_c, 14, 56, 92
17, 98940, Control_c, 14, 11, 107
17, 99224, Note_on_c, 14, 56, 0
17, 99240, Note_on_c, 14, 50, 92
17, 99321, Note_on_c, 14, 50, 0
17, 99330, Note_on_c, 14, 50, 92
17, 99351, Note_on_c, 14, 50, 0
17, 99358, Control_c, 14, 11, 127
17, 99360, Note_on_c, 14, 53, 92
17, 99464, Note_on_c, 14, 53, 0
17, 99480, Note_on_c, 14, 59, 92
17, 99561, Note_on_c, 14, 59, 0
17, 99570, Note_on_c, 14, 59, 92
17, 99591, Note_on_c, 14, 59, 0
17, 99598, Control_c, 14, 11, 127
17, 99600, Note_on_c, 14, 62, 92
17, 99704, Note_on_c, 14, 62, 0
17, 99720, Note_on_c, 14, 53, 80
17, 99801, Note_on_c, 14, 53, 0
17, 99810, Note_on_c, 14, 53, 80
17, 99831, Note_on_c, 14, 53, 0
17, 99840, Note_on_c, 14, 56, 92
17, 99944, Note_on_c, 14, 56, 0
17, 99960, Note_on_c, 14, 50, 80
17, 100041, Note_on_c, 14, 50, 0
17, 100050, Note_on_c, 14, 50, 80
17, 100071, Note_on_c, 14, 50, 0
17, 100080, Note_on_c, 14, 55, 92
17, 100184, Note_on_c, 14, 55, 0
17, 100200, Note_on_c, 14, 43, 80
17, 100281, Note_on_c, 14, 43, 0
17, 100290, Note_on_c, 14, 43, 80
17, 100311, Note_on_c, 14, 43, 0
17, 100320, Note_on_c, 14, 48, 44
17, 100439, Note_on_c, 14, 48, 0
17, 102960, Control_c, 14, 11, 67
17, 103200, Control_c, 14, 11, 67
17, 103200, Note_on_c, 14, 54, 80
17, 103223, Control_c, 14, 11, 69
17, 103247, Control_c, 14, 11, 70
17, 103270, Control_c, 14, 11, 72
17, 103293, Control_c, 14, 11, 74
17, 103317, Control_c, 14, 11, 75
17, 103340, Control_c, 14, 11, 77
17, 103363, Control_c, 14, 11, 79
17, 103379, Note_on_c, 14, 54, 0
17, 103387, Control_c, 14, 11, 80
17, 103410, Control_c, 14, 11, 82
17, 103433, Control_c, 14, 11, 84
17, 103440, Note_on_c, 14, 56, 80
17, 103457, Control_c, 14, 11, 85
17, 103480, Control_c, 14, 11, 87
17, 103503, Control_c, 14, 11, 89
17, 103527, Control_c, 14, 11, 90
17, 103550, Control_c, 14, 11, 92
17, 103573, Control_c, 14, 11, 94
17, 103597, Control_c, 14, 11, 95
17, 103619, Note_on_c, 14, 56, 0
17, 103620, Control_c, 14, 11, 97
17, 103643, Control_c, 14, 11, 99
17, 103667, Control_c, 14, 11, 100
17, 103680, Note_on_c, 14, 55, 80
17, 103690, Control_c, 14, 11, 102
17, 103713, Control_c, 14, 11, 104
17, 103737, Control_c, 14, 11, 105
17, 103760, Control_c, 14, 11, 107
17, 103783, Control_c, 14, 11, 109
17, 103807, Control_c, 14, 11, 110
17, 103830, Control_c, 14, 11, 112
17, 103853, Control_c, 14, 11, 114
17, 103859, Note_on_c, 14, 55, 0
17, 103877, Control_c, 14, 11, 115
17, 103900, Control_c, 14, 11, 117
17, 103920, Note_on_c, 14, 67, 80
17, 103923, Control_c, 14, 11, 119
17, 103947, Control_c, 14, 11, 120
17, 103970, Control_c, 14, 11, 122
17, 103993, Control_c, 14, 11, 124
17, 104017, Control_c, 14, 11, 127
17, 104099, Note_on_c, 14, 67, 0
17, 104160, Note_on_c, 14, 48, 80
17, 104451, Note_on_c, 14, 48, 0
17, 104460, Note_on_c, 14, 51, 80
17, 104504, Note_on_c, 14, 51, 0
17, 104520, Note_on_c, 14, 50, 80
17, 104564, Note_on_c, 14, 50, 0
17, 104580, Note_on_c, 14, 48, 80
17, 104624, Note_on_c, 14, 48, 0
17, 104640, Note_on_c, 14, 55, 80
17, 104729, Note_on_c, 14, 55, 0
17, 104760, Note_on_c, 14, 53, 80
17, 104849, Note_on_c, 14, 53, 0
17, 104880, Note_on_c, 14, 50, 80
17, 104969, Note_on_c, 14, 50, 0
17, 105000, Note_on_c, 14, 55, 80
17, 105224, Note_on_c, 14, 55, 0
17, 105240, Note_on_c, 14, 51, 80
17, 105329, Note_on_c, 14, 51, 0
17, 105360, Note_on_c, 14, 48, 80
17, 105449, Note_on_c, 14, 48, 0
17, 105480, Note_on_c, 14, 55, 80
17, 105704, Note_on_c, 14, 55, 0
17, 105720, Note_on_c, 14, 50, 80
17, 105809, Note_on_c, 14, 50, 0
17, 105840, Note_on_c, 14, 47, 80
17, 105929, Note_on_c, 14, 47, 0
17, 105960, Note_on_c, 14, 55, 80
17, 106184, Note_on_c, 14, 55, 0
17, 106200, Note_on_c, 14, 53, 80
17, 106289, Note_on_c, 14, 53, 0
17, 106320, Note_on_c, 14, 51, 80
17, 106409, Note_on_c, 14, 51, 0
17, 106440, Note_on_c, 14, 50, 80
17, 106529, Note_on_c, 14, 50, 0
17, 106560, Note_on_c, 14, 48, 80
17, 106649, Note_on_c, 14, 48, 0
17, 106680, Note_on_c, 14, 49, 80
17, 106769, Note_on_c, 14, 49, 0
17, 106800, Note_on_c, 14, 50, 80
17, 106889, Note_on_c, 14, 50, 0
17, 106920, Note_on_c, 14, 50, 80
17, 107384, Note_on_c, 14, 50, 0
17, 107400, Note_on_c, 14, 38, 92
17, 107460, Control_c, 14, 11, 107
17, 107864, Note_on_c, 14, 38, 0
17, 107878, Control_c, 14, 11, 127
17, 107880, Note_on_c, 14, 38, 92
17, 107940, Control_c, 14, 11, 107
17, 108104, Note_on_c, 14, 38, 0
17, 108118, Control_c, 14, 11, 127
17, 108120, Note_on_c, 14, 62, 92
17, 108180, Control_c, 14, 11, 107
17, 108344, Note_on_c, 14, 62, 0
17, 108358, Control_c, 14, 11, 127
17, 108360, Note_on_c, 14, 38, 80
17, 108584, Note_on_c, 14, 38, 0
17, 108600, Note_on_c, 14, 62, 80
17, 108824, Note_on_c, 14, 62, 0
17, 108840, Note_on_c, 14, 38, 80
17, 109064, Note_on_c, 14, 38, 0
17, 109080, Note_on_c, 14, 43, 80
17, 109304, Note_on_c, 14, 43, 0
17, 109320, Note_on_c, 14, 55, 80
17, 109544, Note_on_c, 14, 55, 0
17, 109560, Note_on_c, 14, 60, 80
17, 109784, Note_on_c, 14, 60, 0
17, 109800, Note_on_c, 14, 48, 80
17, 110024, Note_on_c, 14, 48, 0
17, 110040, Note_on_c, 14, 41, 80
17, 110264, Note_on_c, 14, 41, 0
17, 110280, Note_on_c, 14, 53, 80
17, 110504, Note_on_c, 14, 53, 0
17, 110520, Note_on_c, 14, 53, 80
17, 110691, Note_on_c, 14, 53, 0
17, 110700, Note_on_c, 14, 57, 80
17, 110744, Note_on_c, 14, 57, 0
17, 110760, Note_on_c, 14, 55, 80
17, 110804, Note_on_c, 14, 55, 0
17, 110820, Note_on_c, 14, 53, 80
17, 110864, Note_on_c, 14, 53, 0
17, 110880, Note_on_c, 14, 58, 80
17, 110999, Note_on_c, 14, 58, 0
17, 112860, Note_on_c, 14, 53, 80
17, 112904, Note_on_c, 14, 53, 0
17, 112920, Note_on_c, 14, 51, 80
17, 112964, Note_on_c, 14, 51, 0
17, 112980, Note_on_c, 14, 50, 80
17, 113024, Note_on_c, 14, 50, 0
17, 113040, Note_on_c, 14, 48, 80
17, 113084, Note_on_c, 14, 48, 0
17, 113100, Note_on_c, 14, 46, 80
17, 113144, Note_on_c, 14, 46, 0
17, 113160, Note_on_c, 14, 45, 80
17, 113204, Note_on_c, 14, 45, 0
17, 113220, Note_on_c, 14, 46, 80
17, 113264, Note_on_c, 14, 46, 0
17, 113280, Note_on_c, 14, 46, 80
17, 113339, Note_on_c, 14, 46, 0
17, 113340, Note_on_c, 14, 45, 80
17, 113391, Note_on_c, 14, 45, 0
17, 113400, Note_on_c, 14, 45, 80
17, 113444, Note_on_c, 14, 45, 0
17, 113460, Note_on_c, 14, 48, 80
17, 113504, Note_on_c, 14, 48, 0
17, 113520, Note_on_c, 14, 45, 80
17, 113564, Note_on_c, 14, 45, 0
17, 113580, Note_on_c, 14, 48, 80
17, 113624, Note_on_c, 14, 48, 0
17, 113640, Note_on_c, 14, 46, 80
17, 113684, Note_on_c, 14, 46, 0
17, 113700, Note_on_c, 14, 45, 80
17, 113744, Note_on_c, 14, 45, 0
17, 113760, Note_on_c, 14, 48, 80
17, 113819, Note_on_c, 14, 48, 0
17, 113820, Note_on_c, 14, 46, 80
17, 113871, Note_on_c, 14, 46, 0
17, 113880, Note_on_c, 14, 46, 80
17, 113924, Note_on_c, 14, 46, 0
17, 113940, Note_on_c, 14, 50, 80
17, 113984, Note_on_c, 14, 50, 0
17, 114000, Note_on_c, 14, 50, 80
17, 114044, Note_on_c, 14, 50, 0
17, 114060, Note_on_c, 14, 50, 80
17, 114104, Note_on_c, 14, 50, 0
17, 114120, Note_on_c, 14, 48, 80
17, 114164, Note_on_c, 14, 48, 0
17, 114180, Note_on_c, 14, 46, 80
17, 114224, Note_on_c, 14, 46, 0
17, 114240, Note_on_c, 14, 50, 80
17, 114299, Note_on_c, 14, 50, 0
17, 114300, Note_on_c, 14, 48, 80
17, 114351, Note_on_c, 14, 48, 0
17, 114360, Note_on_c, 14, 48, 80
17, 114404, Note_on_c, 14, 48, 0
17, 114420, Note_on_c, 14, 51, 80
17, 114464, Note_on_c, 14, 51, 0
17, 114480, Note_on_c, 14, 51, 80
17, 114524, Note_on_c, 14, 51, 0
17, 114540, Note_on_c, 14, 51, 80
17, 114584, Note_on_c, 14, 51, 0
17, 114600, Note_on_c, 14, 50, 80
17, 114644, Note_on_c, 14, 50, 0
17, 114660, Note_on_c, 14, 48, 80
17, 114704, Note_on_c, 14, 48, 0
17, 114720, Note_on_c, 14, 48, 80
17, 114779, Note_on_c, 14, 48, 0
17, 114780, Note_on_c, 14, 46, 80
17, 114831, Note_on_c, 14, 46, 0
17, 114840, Note_on_c, 14, 46, 80
17, 114884, Note_on_c, 14, 46, 0
17, 114900, Note_on_c, 14, 50, 80
17, 114944, Note_on_c, 14, 50, 0
17, 114960, Note_on_c, 14, 50, 80
17, 115004, Note_on_c, 14, 50, 0
17, 115020, Note_on_c, 14, 50, 80
17, 115064, Note_on_c, 14, 50, 0
17, 115080, Note_on_c, 14, 48, 80
17, 115124, Note_on_c, 14, 48, 0
17, 115140, Note_on_c, 14, 46, 80
17, 115184, Note_on_c, 14, 46, 0
17, 115200, Note_on_c, 14, 46, 80
17, 115259, Note_on_c, 14, 46, 0
17, 115260, Note_on_c, 14, 45, 80
17, 115311, Note_on_c, 14, 45, 0
17, 115320, Note_on_c, 14, 45, 80
17, 115364, Note_on_c, 14, 45, 0
17, 115380, Note_on_c, 14, 46, 80
17, 115424, Note_on_c, 14, 46, 0
17, 115440, Note_on_c, 14, 45, 80
17, 115484, Note_on_c, 14, 45, 0
17, 115500, Note_on_c, 14, 50, 80
17, 115544, Note_on_c, 14, 50, 0
17, 115560, Note_on_c, 14, 46, 80
17, 115604, Note_on_c, 14, 46, 0
17, 115620, Note_on_c, 14, 45, 80
17, 115664, Note_on_c, 14, 45, 0
17, 115680, Note_on_c, 14, 46, 80
17, 115739, Note_on_c, 14, 46, 0
17, 115740, Note_on_c, 14, 45, 80
17, 115791, Note_on_c, 14, 45, 0
17, 115800, Note_on_c, 14, 45, 80
17, 115844, Note_on_c, 14, 45, 0
17, 115860, Note_on_c, 14, 46, 80
17, 115904, Note_on_c, 14, 46, 0
17, 115920, Note_on_c, 14, 45, 80
17, 115964, Note_on_c, 14, 45, 0
17, 115980, Note_on_c, 14, 50, 80
17, 116024, Note_on_c, 14, 50, 0
17, 116040, Note_on_c, 14, 46, 80
17, 116084, Note_on_c, 14, 46, 0
17, 116100, Note_on_c, 14, 45, 80
17, 116144, Note_on_c, 14, 45, 0
17, 116160, Note_on_c, 14, 45, 80
17, 116219, Note_on_c, 14, 45, 0
17, 116220, Note_on_c, 14, 44, 80
17, 116271, Note_on_c, 14, 44, 0
17, 116280, Note_on_c, 14, 44, 80
17, 116324, Note_on_c, 14, 44, 0
17, 116340, Note_on_c, 14, 45, 80
17, 116384, Note_on_c, 14, 45, 0
17, 116400, Note_on_c, 14, 44, 80
17, 116444, Note_on_c, 14, 44, 0
17, 116460, Note_on_c, 14, 47, 80
17, 116504, Note_on_c, 14, 47, 0
17, 116520, Note_on_c, 14, 45, 80
17, 116564, Note_on_c, 14, 45, 0
17, 116580, Note_on_c, 14, 44, 80
17, 116624, Note_on_c, 14, 44, 0
17, 116640, Note_on_c, 14, 45, 80
17, 116699, Note_on_c, 14, 45, 0
17, 116700, Note_on_c, 14, 44, 80
17, 116751, Note_on_c, 14, 44, 0
17, 116760, Note_on_c, 14, 44, 80
17, 116804, Note_on_c, 14, 44, 0
17, 116820, Note_on_c, 14, 45, 80
17, 116864, Note_on_c, 14, 45, 0
17, 116880, Note_on_c, 14, 44, 80
17, 116924, Note_on_c, 14, 44, 0
17, 116940, Note_on_c, 14, 47, 80
17, 116984, Note_on_c, 14, 47, 0
17, 117000, Note_on_c, 14, 45, 80
17, 117044, Note_on_c, 14, 45, 0
17, 117060, Note_on_c, 14, 43, 80
17, 117104, Note_on_c, 14, 43, 0
17, 117120, Note_on_c, 14, 43, 80
17, 117179, Note_on_c, 14, 43, 0
17, 117180, Note_on_c, 14, 42, 80
17, 117231, Note_on_c, 14, 42, 0
17, 117240, Note_on_c, 14, 42, 80
17, 117284, Note_on_c, 14, 42, 0
17, 117300, Note_on_c, 14, 43, 80
17, 117344, Note_on_c, 14, 43, 0
17, 117360, Note_on_c, 14, 42, 80
17, 117404, Note_on_c, 14, 42, 0
17, 117420, Note_on_c, 14, 45, 80
17, 117464, Note_on_c, 14, 45, 0
17, 117480, Note_on_c, 14, 43, 80
17, 117524, Note_on_c, 14, 43, 0
17, 117540, Note_on_c, 14, 42, 80
17, 117584, Note_on_c, 14, 42, 0
17, 117600, Note_on_c, 14, 43, 80
17, 117659, Note_on_c, 14, 43, 0
17, 117660, Note_on_c, 14, 42, 80
17, 117711, Note_on_c, 14, 42, 0
17, 117720, Note_on_c, 14, 42, 80
17, 117764, Note_on_c, 14, 42, 0
17, 117780, Note_on_c, 14, 43, 80
17, 117824, Note_on_c, 14, 43, 0
17, 117840, Note_on_c, 14, 41, 80
17, 117884, Note_on_c, 14, 41, 0
17, 117900, Note_on_c, 14, 45, 80
17, 117944, Note_on_c, 14, 45, 0
17, 117960, Note_on_c, 14, 43, 80
17, 118004, Note_on_c, 14, 43, 0
17, 118020, Note_on_c, 14, 41, 80
17, 118064, Note_on_c, 14, 41, 0
17, 118080, Note_on_c, 14, 53, 80
17, 118139, Note_on_c, 14, 53, 0
17, 118140, Note_on_c, 14, 52, 80
17, 118191, Note_on_c, 14, 52, 0
17, 118200, Note_on_c, 14, 52, 80
17, 118244, Note_on_c, 14, 52, 0
17, 118260, Note_on_c, 14, 53, 80
17, 118304, Note_on_c, 14, 53, 0
17, 118320, Note_on_c, 14, 52, 80
17, 118364, Note_on_c, 14, 52, 0
17, 118380, Note_on_c, 14, 57, 80
17, 118424, Note_on_c, 14, 57, 0
17, 118440, Note_on_c, 14, 53, 80
17, 118484, Note_on_c, 14, 53, 0
17, 118500, Note_on_c, 14, 52, 80
17, 118544, Note_on_c, 14, 52, 0
17, 118560, Note_on_c, 14, 53, 80
17, 118619, Note_on_c, 14, 53, 0
17, 118620, Note_on_c, 14, 52, 80
17, 118671, Note_on_c, 14, 52, 0
17, 118680, Note_on_c, 14, 52, 80
17, 118724, Note_on_c, 14, 52, 0
17, 118740, Note_on_c, 14, 53, 80
17, 118784, Note_on_c, 14, 53, 0
17, 118800, Note_on_c, 14, 52, 80
17, 118844, Note_on_c, 14, 52, 0
17, 118860, Note_on_c, 14, 57, 80
17, 118904, Note_on_c, 14, 57, 0
17, 118920, Note_on_c, 14, 53, 80
17, 118964, Note_on_c, 14, 53, 0
17, 118980, Note_on_c, 14, 52, 80
17, 119024, Note_on_c, 14, 52, 0
17, 119040, Note_on_c, 14, 52, 80
17, 119099, Note_on_c, 14, 52, 0
17, 119100, Note_on_c, 14, 50, 80
17, 119151, Note_on_c, 14, 50, 0
17, 119160, Note_on_c, 14, 50, 80
17, 119204, Note_on_c, 14, 50, 0
17, 119220, Note_on_c, 14, 52, 80
17, 119264, Note_on_c, 14, 52, 0
17, 119280, Note_on_c, 14, 50, 80
17, 119324, Note_on_c, 14, 50, 0
17, 119340, Note_on_c, 14, 53, 80
17, 119384, Note_on_c, 14, 53, 0
17, 119400, Note_on_c, 14, 52, 80
17, 119444, Note_on_c, 14, 52, 0
17, 119460, Note_on_c, 14, 50, 80
17, 119504, Note_on_c, 14, 50, 0
17, 119520, Note_on_c, 14, 52, 80
17, 119579, Note_on_c, 14, 52, 0
17, 119580, Note_on_c, 14, 50, 80
17, 119631, Note_on_c, 14, 50, 0
17, 119640, Note_on_c, 14, 50, 80
17, 119684, Note_on_c, 14, 50, 0
17, 119700, Note_on_c, 14, 52, 80
17, 119744, Note_on_c, 14, 52, 0
17, 119760, Note_on_c, 14, 50, 80
17, 119804, Note_on_c, 14, 50, 0
17, 119820, Note_on_c, 14, 53, 80
17, 119864, Note_on_c, 14, 53, 0
17, 119880, Note_on_c, 14, 52, 80
17, 119924, Note_on_c, 14, 52, 0
17, 119940, Note_on_c, 14, 50, 80
17, 119984, Note_on_c, 14, 50, 0
17, 120000, Note_on_c, 14, 52, 80
17, 120059, Note_on_c, 14, 52, 0
17, 120060, Note_on_c, 14, 50, 80
17, 120111, Note_on_c, 14, 50, 0
17, 120120, Note_on_c, 14, 50, 80
17, 120164, Note_on_c, 14, 50, 0
17, 120180, Note_on_c, 14, 52, 80
17, 120224, Note_on_c, 14, 52, 0
17, 120240, Note_on_c, 14, 50, 80
17, 120284, Note_on_c, 14, 50, 0
17, 120300, Note_on_c, 14, 53, 80
17, 120344, Note_on_c, 14, 53, 0
17, 120360, Note_on_c, 14, 52, 80
17, 120404, Note_on_c, 14, 52, 0
17, 120420, Note_on_c, 14, 50, 80
17, 120464, Note_on_c, 14, 50, 0
17, 120480, Note_on_c, 14, 52, 80
17, 120539, Note_on_c, 14, 52, 0
17, 120540, Note_on_c, 14, 50, 80
17, 120591, Note_on_c, 14, 50, 0
17, 120600, Note_on_c, 14, 50, 80
17, 120644, Note_on_c, 14, 50, 0
17, 120660, Note_on_c, 14, 52, 80
17, 120704, Note_on_c, 14, 52, 0
17, 120720, Note_on_c, 14, 50, 80
17, 120764, Note_on_c, 14, 50, 0
17, 120780, Note_on_c, 14, 53, 80
17, 120824, Note_on_c, 14, 53, 0
17, 120840, Note_on_c, 14, 52, 80
17, 120884, Note_on_c, 14, 52, 0
17, 120900, Note_on_c, 14, 50, 62
17, 120944, Note_on_c, 14, 50, 0
17, 120960, Note_on_c, 14, 50, 44
17, 121004, Note_on_c, 14, 50, 0
17, 121020, Note_on_c, 14, 53, 44
17, 121064, Note_on_c, 14, 53, 0
17, 121080, Note_on_c, 14, 52, 44
17, 121124, Note_on_c, 14, 52, 0
17, 121140, Note_on_c, 14, 50, 44
17, 121184, Note_on_c, 14, 50, 0
17, 121200, Note_on_c, 14, 48, 44
17, 121244, Note_on_c, 14, 48, 0
17, 121260, Note_on_c, 14, 47, 44
17, 121304, Note_on_c, 14, 47, 0
17, 121320, Note_on_c, 14, 48, 44
17, 121364, Note_on_c, 14, 48, 0
17, 121380, Note_on_c, 14, 50, 44
17, 121424, Note_on_c, 14, 50, 0
17, 121440, Note_on_c, 14, 50, 38
17, 121484, Note_on_c, 14, 50, 0
17, 121500, Note_on_c, 14, 53, 38
17, 121544, Note_on_c, 14, 53, 0
17, 121560, Note_on_c, 14, 52, 38
17, 121604, Note_on_c, 14, 52, 0
17, 121620, Note_on_c, 14, 50, 38
17, 121664, Note_on_c, 14, 50, 0
17, 121680, Note_on_c, 14, 48, 38
17, 121724, Note_on_c, 14, 48, 0
17, 121740, Note_on_c, 14, 47, 38
17, 121784, Note_on_c, 14, 47, 0
17, 121800, Note_on_c, 14, 48, 38
17, 121844, Note_on_c, 14, 48, 0
17, 121860, Note_on_c, 14, 50, 38
17, 121904, Note_on_c, 14, 50, 0
17, 121920, Note_on_c, 14, 52, 38
17, 121964, Note_on_c, 14, 52, 0
17, 121980, Note_on_c, 14, 57, 38
17, 122024, Note_on_c, 14, 57, 0
17, 122040, Note_on_c, 14, 59, 38
17, 122084, Note_on_c, 14, 59, 0
17, 122100, Note_on_c, 14, 60, 38
17, 122144, Note_on_c, 14, 60, 0
17, 122160, Note_on_c, 14, 60, 38
17, 122279, Note_on_c, 14, 60, 0
17, 122460, Note_on_c, 14, 60, 38
17, 122504, Note_on_c, 14, 60, 0
17, 122520, Note_on_c, 14, 62, 38
17, 122564, Note_on_c, 14, 62, 0
17, 122580, Note_on_c, 14, 64, 38
17, 122624, Note_on_c, 14, 64, 0
17, 122640, Note_on_c, 14, 64, 38
17, 122759, Note_on_c, 14, 64, 0
17, 122940, Note_on_c, 14, 53, 38
17, 122984, Note_on_c, 14, 53, 0
17, 123000, Note_on_c, 14, 52, 38
17, 123044, Note_on_c, 14, 52, 0
17, 123060, Note_on_c, 14, 50, 38
17, 123104, Note_on_c, 14, 50, 0
17, 123120, Note_on_c, 14, 48, 38
17, 123164, Note_on_c, 14, 48, 0
17, 123180, Note_on_c, 14, 47, 38
17, 123224, Note_on_c, 14, 47, 0
17, 123240, Note_on_c, 14, 48, 38
17, 123284, Note_on_c, 14, 48, 0
17, 123300, Note_on_c, 14, 50, 38
17, 123344, Note_on_c, 14, 50, 0
17, 123360, Note_on_c, 14, 50, 32
17, 123404, Note_on_c, 14, 50, 0
17, 123420, Note_on_c, 14, 53, 32
17, 123464, Note_on_c, 14, 53, 0
17, 123480, Note_on_c, 14, 52, 32
17, 123524, Note_on_c, 14, 52, 0
17, 123540, Note_on_c, 14, 50, 32
17, 123584, Note_on_c, 14, 50, 0
17, 123600, Note_on_c, 14, 48, 32
17, 123644, Note_on_c, 14, 48, 0
17, 123660, Note_on_c, 14, 47, 32
17, 123704, Note_on_c, 14, 47, 0
17, 123720, Note_on_c, 14, 48, 32
17, 123764, Note_on_c, 14, 48, 0
17, 123780, Note_on_c, 14, 50, 32
17, 123824, Note_on_c, 14, 50, 0
17, 123840, Note_on_c, 14, 60, 32
17, 123944, Note_on_c, 14, 60, 0
17, 123960, Note_on_c, 14, 52, 32
17, 124049, Note_on_c, 14, 52, 0
17, 124080, Note_on_c, 14, 40, 32
17, 124169, Note_on_c, 14, 40, 0
17, 124200, Note_on_c, 14, 60, 32
17, 124424, Note_on_c, 14, 60, 0
17, 124440, Note_on_c, 14, 52, 32
17, 124529, Note_on_c, 14, 52, 0
17, 124560, Note_on_c, 14, 40, 32
17, 124649, Note_on_c, 14, 40, 0
17, 124680, Note_on_c, 14, 60, 32
17, 124769, Note_on_c, 14, 60, 0
17, 124800, Note_on_c, 14, 59, 32
17, 124889, Note_on_c, 14, 59, 0
17, 124920, Note_on_c, 14, 52, 32
17, 125009, Note_on_c, 14, 52, 0
17, 125040, Note_on_c, 14, 40, 32
17, 125129, Note_on_c, 14, 40, 0
17, 125160, Note_on_c, 14, 59, 32
17, 125384, Note_on_c, 14, 59, 0
17, 125400, Note_on_c, 14, 52, 32
17, 125489, Note_on_c, 14, 52, 0
17, 125520, Note_on_c, 14, 40, 32
17, 125609, Note_on_c, 14, 40, 0
17, 125640, Note_on_c, 14, 59, 32
17, 125729, Note_on_c, 14, 59, 0
17, 125760, Note_on_c, 14, 60, 32
17, 125849, Note_on_c, 14, 60, 0
17, 125880, Note_on_c, 14, 52, 32
17, 125969, Note_on_c, 14, 52, 0
17, 126000, Note_on_c, 14, 40, 32
17, 126089, Note_on_c, 14, 40, 0
17, 126120, Note_on_c, 14, 60, 32
17, 126344, Note_on_c, 14, 60, 0
17, 126360, Note_on_c, 14, 52, 32
17, 126449, Note_on_c, 14, 52, 0
17, 126480, Note_on_c, 14, 40, 32
17, 126569, Note_on_c, 14, 40, 0
17, 126600, Note_on_c, 14, 60, 32
17, 126689, Note_on_c, 14, 60, 0
17, 126720, Note_on_c, 14, 59, 32
17, 126809, Note_on_c, 14, 59, 0
17, 126840, Note_on_c, 14, 52, 33
17, 126929, Note_on_c, 14, 52, 0
17, 126960, Note_on_c, 14, 40, 35
17, 127049, Note_on_c, 14, 40, 0
17, 127080, Note_on_c, 14, 59, 37
17, 127304, Note_on_c, 14, 59, 0
17, 127320, Note_on_c, 14, 52, 41
17, 127409, Note_on_c, 14, 52, 0
17, 127440, Note_on_c, 14, 40, 42
17, 127529, Note_on_c, 14, 40, 0
17, 127560, Note_on_c, 14, 64, 44
17, 127649, Note_on_c, 14, 64, 0
17, 127680, Note_on_c, 14, 65, 46
17, 127799, Note_on_c, 14, 65, 0
17, 127860, Note_on_c, 14, 53, 49
17, 127911, Note_on_c, 14, 53, 0
17, 127920, Note_on_c, 14, 60, 50
17, 128039, Note_on_c, 14, 60, 0
17, 128100, Note_on_c, 14, 48, 52
17, 128151, Note_on_c, 14, 48, 0
17, 128160, Note_on_c, 14, 50, 53
17, 128279, Note_on_c, 14, 50, 0
17, 128340, Note_on_c, 14, 50, 56
17, 128391, Note_on_c, 14, 50, 0
17, 128400, Note_on_c, 14, 57, 57
17, 128519, Note_on_c, 14, 57, 0
17, 128580, Note_on_c, 14, 57, 59
17, 128631, Note_on_c, 14, 57, 0
17, 128640, Note_on_c, 14, 62, 60
17, 128759, Note_on_c, 14, 62, 0
17, 128820, Note_on_c, 14, 62, 63
17, 128871, Note_on_c, 14, 62, 0
17, 128880, Note_on_c, 14, 65, 64
17, 128999, Note_on_c, 14, 65, 0
17, 129060, Note_on_c, 14, 65, 67
17, 129111, Note_on_c, 14, 65, 0
17, 129120, Note_on_c, 14, 67, 68
17, 129239, Note_on_c, 14, 67, 0
17, 129300, Note_on_c, 14, 67, 68
17, 129351, Note_on_c, 14, 67, 0
17, 129360, Note_on_c, 14, 69, 68
17, 129464, Note_on_c, 14, 69, 0
17, 129480, Note_on_c, 14, 45, 50
17, 129599, Note_on_c, 14, 45, 0
17, 129660, Note_on_c, 14, 45, 32
17, 129704, Note_on_c, 14, 45, 0
17, 129720, Note_on_c, 14, 43, 32
17, 129764, Note_on_c, 14, 43, 0
17, 129780, Note_on_c, 14, 41, 32
17, 129824, Note_on_c, 14, 41, 0
17, 129840, Note_on_c, 14, 40, 32
17, 129959, Note_on_c, 14, 40, 0
17, 130140, Note_on_c, 14, 45, 32
17, 130184, Note_on_c, 14, 45, 0
17, 130200, Note_on_c, 14, 43, 32
17, 130244, Note_on_c, 14, 43, 0
17, 130260, Note_on_c, 14, 41, 32
17, 130304, Note_on_c, 14, 41, 0
17, 130320, Note_on_c, 14, 40, 32
17, 130439, Note_on_c, 14, 40, 0
17, 130620, Note_on_c, 14, 45, 32
17, 130664, Note_on_c, 14, 45, 0
17, 130680, Note_on_c, 14, 43, 32
17, 130724, Note_on_c, 14, 43, 0
17, 130740, Note_on_c, 14, 41, 32
17, 130784, Note_on_c, 14, 41, 0
17, 130800, Note_on_c, 14, 40, 32
17, 130919, Note_on_c, 14, 40, 0
17, 131100, Note_on_c, 14, 41, 32
17, 131144, Note_on_c, 14, 41, 0
17, 131160, Note_on_c, 14, 40, 32
17, 131204, Note_on_c, 14, 40, 0
17, 131220, Note_on_c, 14, 38, 32
17, 131264, Note_on_c, 14, 38, 0
17, 131280, Note_on_c, 14, 36, 32
17, 131399, Note_on_c, 14, 36, 0
17, 131520, Program_c, 14, 45
17, 131880, Note_on_c, 14, 57, 28
17, 131999, Note_on_c, 14, 57, 0
17, 132360, Note_on_c, 14, 48, 28
17, 132479, Note_on_c, 14, 48, 0
17, 132840, Note_on_c, 14, 47, 28
17, 132959, Note_on_c, 14, 47, 0
17, 133320, Note_on_c, 14, 57, 32
17, 133409, Note_on_c, 14, 57, 0
17, 133438, Program_c, 14, 48
17, 133440, Note_on_c, 14, 45, 38
17, 133784, Note_on_c, 14, 45, 0
17, 133800, Note_on_c, 14, 50, 44
17, 133904, Note_on_c, 14, 50, 0
17, 133920, Note_on_c, 14, 48, 38
17, 134264, Note_on_c, 14, 48, 0
17, 134280, Note_on_c, 14, 53, 44
17, 134384, Note_on_c, 14, 53, 0
17, 134400, Note_on_c, 14, 52, 38
17, 134744, Note_on_c, 14, 52, 0
17, 134760, Note_on_c, 14, 58, 44
17, 134864, Note_on_c, 14, 58, 0
17, 134880, Note_on_c, 14, 55, 38
17, 135224, Note_on_c, 14, 55, 0
17, 135240, Note_on_c, 14, 62, 44
17, 135344, Note_on_c, 14, 62, 0
17, 135360, Note_on_c, 14, 60, 44
17, 135404, Note_on_c, 14, 60, 0
17, 135420, Note_on_c, 14, 48, 45
17, 135464, Note_on_c, 14, 48, 0
17, 135480, Note_on_c, 14, 53, 46
17, 135524, Note_on_c, 14, 53, 0
17, 135540, Note_on_c, 14, 57, 47
17, 135584, Note_on_c, 14, 57, 0
17, 135600, Note_on_c, 14, 60, 48
17, 135719, Note_on_c, 14, 60, 0
17, 135840, Note_on_c, 14, 45, 52
17, 135884, Note_on_c, 14, 45, 0
17, 135900, Note_on_c, 14, 48, 53
17, 135944, Note_on_c, 14, 48, 0
17, 135960, Note_on_c, 14, 50, 54
17, 136004, Note_on_c, 14, 50, 0
17, 136020, Note_on_c, 14, 52, 55
17, 136064, Note_on_c, 14, 52, 0
17, 136080, Note_on_c, 14, 53, 56
17, 136199, Note_on_c, 14, 53, 0
17, 136320, Note_on_c, 14, 43, 60
17, 136364, Note_on_c, 14, 43, 0
17, 136380, Note_on_c, 14, 46, 61
17, 136424, Note_on_c, 14, 46, 0
17, 136440, Note_on_c, 14, 48, 62
17, 136484, Note_on_c, 14, 48, 0
17, 136500, Note_on_c, 14, 52, 63
17, 136544, Note_on_c, 14, 52, 0
17, 136560, Note_on_c, 14, 55, 64
17, 136679, Note_on_c, 14, 55, 0
17, 136800, Note_on_c, 14, 46, 68
17, 136844, Note_on_c, 14, 46, 0
17, 136860, Note_on_c, 14, 48, 65
17, 136904, Note_on_c, 14, 48, 0
17, 136920, Note_on_c, 14, 52, 62
17, 136964, Note_on_c, 14, 52, 0
17, 136980, Note_on_c, 14, 55, 59
17, 137024, Note_on_c, 14, 55, 0
17, 137040, Note_on_c, 14, 58, 56
17, 137159, Note_on_c, 14, 58, 0
17, 137280, Note_on_c, 14, 57, 44
17, 137369, Note_on_c, 14, 57, 0
17, 137400, Note_on_c, 14, 48, 44
17, 137489, Note_on_c, 14, 48, 0
17, 137520, Note_on_c, 14, 36, 44
17, 137609, Note_on_c, 14, 36, 0
17, 137640, Note_on_c, 14, 57, 44
17, 137864, Note_on_c, 14, 57, 0
17, 137880, Note_on_c, 14, 48, 44
17, 137969, Note_on_c, 14, 48, 0
17, 138000, Note_on_c, 14, 36, 44
17, 138089, Note_on_c, 14, 36, 0
17, 138120, Note_on_c, 14, 57, 44
17, 138209, Note_on_c, 14, 57, 0
17, 138240, Note_on_c, 14, 55, 44
17, 138329, Note_on_c, 14, 55, 0
17, 138360, Note_on_c, 14, 48, 44
17, 138449, Note_on_c, 14, 48, 0
17, 138480, Note_on_c, 14, 36, 44
17, 138569, Note_on_c, 14, 36, 0
17, 138600, Note_on_c, 14, 55, 44
17, 138824, Note_on_c, 14, 55, 0
17, 138840, Note_on_c, 14, 48, 44
17, 138929, Note_on_c, 14, 48, 0
17, 138960, Note_on_c, 14, 36, 44
17, 139049, Note_on_c, 14, 36, 0
17, 139080, Note_on_c, 14, 55, 44
17, 139169, Note_on_c, 14, 55, 0
17, 139200, Note_on_c, 14, 57, 44
17, 139289, Note_on_c, 14, 57, 0
17, 139320, Note_on_c, 14, 48, 44
17, 139409, Note_on_c, 14, 48, 0
17, 139440, Note_on_c, 14, 36, 44
17, 139529, Note_on_c, 14, 36, 0
17, 139560, Note_on_c, 14, 57, 44
17, 139784, Note_on_c, 14, 57, 0
17, 139800, Note_on_c, 14, 48, 44
17, 139889, Note_on_c, 14, 48, 0
17, 139920, Note_on_c, 14, 36, 44
17, 140009, Note_on_c, 14, 36, 0
17, 140040, Note_on_c, 14, 57, 44
17, 140129, Note_on_c, 14, 57, 0
17, 140160, Note_on_c, 14, 55, 44
17, 140249, Note_on_c, 14, 55, 0
17, 140280, Note_on_c, 14, 52, 44
17, 140369, Note_on_c, 14, 52, 0
17, 140400, Note_on_c, 14, 36, 44
17, 140489, Note_on_c, 14, 36, 0
17, 140520, Note_on_c, 14, 55, 44
17, 140744, Note_on_c, 14, 55, 0
17, 140760, Note_on_c, 14, 48, 44
17, 140849, Note_on_c, 14, 48, 0
17, 140880, Note_on_c, 14, 36, 44
17, 140969, Note_on_c, 14, 36, 0
17, 141000, Note_on_c, 14, 58, 44
17, 141224, Note_on_c, 14, 58, 0
17, 141240, Note_on_c, 14, 49, 48
17, 141329, Note_on_c, 14, 49, 0
17, 141360, Note_on_c, 14, 37, 53
17, 141449, Note_on_c, 14, 37, 0
17, 141480, Note_on_c, 14, 58, 57
17, 141704, Note_on_c, 14, 58, 0
17, 141720, Note_on_c, 14, 49, 66
17, 141809, Note_on_c, 14, 49, 0
17, 141840, Note_on_c, 14, 37, 71
17, 141929, Note_on_c, 14, 37, 0
17, 141960, Note_on_c, 14, 58, 75
17, 142049, Note_on_c, 14, 58, 0
17, 142080, Note_on_c, 14, 49, 80
17, 142124, Note_on_c, 14, 49, 0
17, 142140, Note_on_c, 14, 67, 80
17, 142184, Note_on_c, 14, 67, 0
17, 142200, Note_on_c, 14, 65, 80
17, 142244, Note_on_c, 14, 65, 0
17, 142260, Note_on_c, 14, 64, 80
17, 142304, Note_on_c, 14, 64, 0
17, 142320, Note_on_c, 14, 61, 80
17, 142364, Note_on_c, 14, 61, 0
17, 142380, Note_on_c, 14, 64, 80
17, 142424, Note_on_c, 14, 64, 0
17, 142440, Note_on_c, 14, 62, 80
17, 142484, Note_on_c, 14, 62, 0
17, 142500, Note_on_c, 14, 61, 80
17, 142544, Note_on_c, 14, 61, 0
17, 142560, Note_on_c, 14, 55, 80
17, 142604, Note_on_c, 14, 55, 0
17, 142620, Note_on_c, 14, 58, 80
17, 142664, Note_on_c, 14, 58, 0
17, 142680, Note_on_c, 14, 57, 80
17, 142724, Note_on_c, 14, 57, 0
17, 142740, Note_on_c, 14, 55, 80
17, 142784, Note_on_c, 14, 55, 0
17, 142800, Note_on_c, 14, 52, 80
17, 142844, Note_on_c, 14, 52, 0
17, 142860, Note_on_c, 14, 55, 80
17, 142904, Note_on_c, 14, 55, 0
17, 142920, Note_on_c, 14, 53, 80
17, 142964, Note_on_c, 14, 53, 0
17, 142980, Note_on_c, 14, 52, 80
17, 143024, Note_on_c, 14, 52, 0
17, 143040, Note_on_c, 14, 49, 80
17, 143084, Note_on_c, 14, 49, 0
17, 143100, Note_on_c, 14, 52, 80
17, 143144, Note_on_c, 14, 52, 0
17, 143160, Note_on_c, 14, 50, 80
17, 143204, Note_on_c, 14, 50, 0
17, 143220, Note_on_c, 14, 49, 80
17, 143264, Note_on_c, 14, 49, 0
17, 143280, Note_on_c, 14, 43, 80
17, 143324, Note_on_c, 14, 43, 0
17, 143340, Note_on_c, 14, 58, 80
17, 143384, Note_on_c, 14, 58, 0
17, 143400, Note_on_c, 14, 57, 80
17, 143444, Note_on_c, 14, 57, 0
17, 143460, Note_on_c, 14, 55, 80
17, 143504, Note_on_c, 14, 55, 0
17, 143520, Note_on_c, 14, 52, 80
17, 143564, Note_on_c, 14, 52, 0
17, 143580, Note_on_c, 14, 53, 80
17, 143624, Note_on_c, 14, 53, 0
17, 143640, Note_on_c, 14, 52, 80
17, 143684, Note_on_c, 14, 52, 0
17, 143700, Note_on_c, 14, 50, 80
17, 143744, Note_on_c, 14, 50, 0
17, 143760, Note_on_c, 14, 49, 80
17, 143804, Note_on_c, 14, 49, 0
17, 143820, Note_on_c, 14, 46, 80
17, 143864, Note_on_c, 14, 46, 0
17, 143880, Note_on_c, 14, 45, 80
17, 143924, Note_on_c, 14, 45, 0
17, 143940, Note_on_c, 14, 43, 80
17, 143984, Note_on_c, 14, 43, 0
17, 144000, Note_on_c, 14, 42, 92
17, 144025, Note_on_c, 14, 42, 0
17, 144030, Note_on_c, 14, 42, 92
17, 144055, Note_on_c, 14, 42, 0
17, 144060, Note_on_c, 14, 42, 92
17, 144085, Note_on_c, 14, 42, 0
17, 144090, Note_on_c, 14, 42, 92
17, 144115, Note_on_c, 14, 42, 0
17, 144120, Note_on_c, 14, 42, 92
17, 144145, Note_on_c, 14, 42, 0
17, 144150, Note_on_c, 14, 42, 92
17, 144175, Note_on_c, 14, 42, 0
17, 144180, Note_on_c, 14, 42, 92
17, 144205, Note_on_c, 14, 42, 0
17, 144210, Note_on_c, 14, 42, 92
17, 144235, Note_on_c, 14, 42, 0
17, 144240, Note_on_c, 14, 42, 92
17, 144265, Note_on_c, 14, 42, 0
17, 144270, Note_on_c, 14, 42, 92
17, 144295, Note_on_c, 14, 42, 0
17, 144300, Note_on_c, 14, 42, 92
17, 144325, Note_on_c, 14, 42, 0
17, 144330, Note_on_c, 14, 42, 92
17, 144355, Note_on_c, 14, 42, 0
17, 144360, Note_on_c, 14, 42, 92
17, 144385, Note_on_c, 14, 42, 0
17, 144390, Note_on_c, 14, 42, 92
17, 144415, Note_on_c, 14, 42, 0
17, 144420, Note_on_c, 14, 42, 92
17, 144445, Note_on_c, 14, 42, 0
17, 144450, Note_on_c, 14, 42, 92
17, 144475, Note_on_c, 14, 42, 0
17, 144480, Note_on_c, 14, 54, 92
17, 144505, Note_on_c, 14, 54, 0
17, 144510, Note_on_c, 14, 54, 92
17, 144535, Note_on_c, 14, 54, 0
17, 144540, Note_on_c, 14, 54, 92
17, 144565, Note_on_c, 14, 54, 0
17, 144570, Note_on_c, 14, 54, 92
17, 144595, Note_on_c, 14, 54, 0
17, 144600, Note_on_c, 14, 54, 92
17, 144625, Note_on_c, 14, 54, 0
17, 144630, Note_on_c, 14, 54, 92
17, 144655, Note_on_c, 14, 54, 0
17, 144660, Note_on_c, 14, 54, 92
17, 144685, Note_on_c, 14, 54, 0
17, 144690, Note_on_c, 14, 54, 92
17, 144715, Note_on_c, 14, 54, 0
17, 144720, Note_on_c, 14, 54, 92
17, 144745, Note_on_c, 14, 54, 0
17, 144750, Note_on_c, 14, 54, 92
17, 144775, Note_on_c, 14, 54, 0
17, 144780, Note_on_c, 14, 54, 92
17, 144805, Note_on_c, 14, 54, 0
17, 144810, Note_on_c, 14, 54, 92
17, 144835, Note_on_c, 14, 54, 0
17, 144840, Note_on_c, 14, 54, 92
17, 144865, Note_on_c, 14, 54, 0
17, 144870, Note_on_c, 14, 54, 92
17, 144895, Note_on_c, 14, 54, 0
17, 144900, Note_on_c, 14, 54, 92
17, 144925, Note_on_c, 14, 54, 0
17, 144930, Note_on_c, 14, 54, 92
17, 144955, Note_on_c, 14, 54, 0
17, 144960, Note_on_c, 14, 66, 92
17, 144985, Note_on_c, 14, 66, 0
17, 144990, Note_on_c, 14, 66, 92
17, 145015, Note_on_c, 14, 66, 0
17, 145020, Note_on_c, 14, 66, 92
17, 145045, Note_on_c, 14, 66, 0
17, 145050, Note_on_c, 14, 66, 92
17, 145075, Note_on_c, 14, 66, 0
17, 145080, Note_on_c, 14, 66, 92
17, 145105, Note_on_c, 14, 66, 0
17, 145110, Note_on_c, 14, 66, 92
17, 145135, Note_on_c, 14, 66, 0
17, 145140, Note_on_c, 14, 66, 92
17, 145165, Note_on_c, 14, 66, 0
17, 145170, Note_on_c, 14, 66, 92
17, 145195, Note_on_c, 14, 66, 0
17, 145200, Note_on_c, 14, 66, 92
17, 145225, Note_on_c, 14, 66, 0
17, 145230, Note_on_c, 14, 66, 92
17, 145255, Note_on_c, 14, 66, 0
17, 145260, Note_on_c, 14, 66, 92
17, 145285, Note_on_c, 14, 66, 0
17, 145290, Note_on_c, 14, 66, 92
17, 145315, Note_on_c, 14, 66, 0
17, 145320, Note_on_c, 14, 66, 92
17, 145345, Note_on_c, 14, 66, 0
17, 145350, Note_on_c, 14, 66, 92
17, 145375, Note_on_c, 14, 66, 0
17, 145380, Note_on_c, 14, 66, 92
17, 145405, Note_on_c, 14, 66, 0
17, 145410, Note_on_c, 14, 66, 92
17, 145435, Note_on_c, 14, 66, 0
17, 145440, Note_on_c, 14, 54, 92
17, 145465, Note_on_c, 14, 54, 0
17, 145470, Note_on_c, 14, 54, 92
17, 145495, Note_on_c, 14, 54, 0
17, 145500, Note_on_c, 14, 54, 92
17, 145525, Note_on_c, 14, 54, 0
17, 145530, Note_on_c, 14, 54, 92
17, 145555, Note_on_c, 14, 54, 0
17, 145560, Note_on_c, 14, 54, 92
17, 145585, Note_on_c, 14, 54, 0
17, 145590, Note_on_c, 14, 54, 92
17, 145615, Note_on_c, 14, 54, 0
17, 145620, Note_on_c, 14, 54, 92
17, 145645, Note_on_c, 14, 54, 0
17, 145650, Note_on_c, 14, 54, 92
17, 145675, Note_on_c, 14, 54, 0
17, 145680, Note_on_c, 14, 54, 92
17, 145705, Note_on_c, 14, 54, 0
17, 145710, Note_on_c, 14, 54, 92
17, 145735, Note_on_c, 14, 54, 0
17, 145740, Note_on_c, 14, 54, 92
17, 145765, Note_on_c, 14, 54, 0
17, 145770, Note_on_c, 14, 54, 92
17, 145795, Note_on_c, 14, 54, 0
17, 145800, Note_on_c, 14, 54, 92
17, 145825, Note_on_c, 14, 54, 0
17, 145830, Note_on_c, 14, 54, 92
17, 145855, Note_on_c, 14, 54, 0
17, 145860, Note_on_c, 14, 54, 92
17, 145885, Note_on_c, 14, 54, 0
17, 145890, Note_on_c, 14, 54, 92
17, 145915, Note_on_c, 14, 54, 0
17, 145920, Note_on_c, 14, 42, 92
17, 145945, Note_on_c, 14, 42, 0
17, 145950, Note_on_c, 14, 42, 92
17, 145975, Note_on_c, 14, 42, 0
17, 145980, Note_on_c, 14, 42, 92
17, 146005, Note_on_c, 14, 42, 0
17, 146010, Note_on_c, 14, 42, 92
17, 146035, Note_on_c, 14, 42, 0
17, 146040, Note_on_c, 14, 42, 92
17, 146065, Note_on_c, 14, 42, 0
17, 146070, Note_on_c, 14, 42, 92
17, 146095, Note_on_c, 14, 42, 0
17, 146100, Note_on_c, 14, 42, 92
17, 146125, Note_on_c, 14, 42, 0
17, 146130, Note_on_c, 14, 42, 92
17, 146155, Note_on_c, 14, 42, 0
17, 146160, Note_on_c, 14, 42, 92
17, 146185, Note_on_c, 14, 42, 0
17, 146190, Note_on_c, 14, 42, 92
17, 146215, Note_on_c, 14, 42, 0
17, 146220, Note_on_c, 14, 42, 92
17, 146245, Note_on_c, 14, 42, 0
17, 146250, Note_on_c, 14, 42, 92
17, 146275, Note_on_c, 14, 42, 0
17, 146280, Note_on_c, 14, 42, 92
17, 146305, Note_on_c, 14, 42, 0
17, 146310, Note_on_c, 14, 42, 92
17, 146335, Note_on_c, 14, 42, 0
17, 146340, Note_on_c, 14, 42, 92
17, 146365, Note_on_c, 14, 42, 0
17, 146370, Note_on_c, 14, 42, 92
17, 146395, Note_on_c, 14, 42, 0
17, 146400, Note_on_c, 14, 54, 92
17, 146425, Note_on_c, 14, 54, 0
17, 146430, Note_on_c, 14, 54, 92
17, 146455, Note_on_c, 14, 54, 0
17, 146460, Note_on_c, 14, 54, 92
17, 146485, Note_on_c, 14, 54, 0
17, 146490, Note_on_c, 14, 54, 92
17, 146515, Note_on_c, 14, 54, 0
17, 146520, Note_on_c, 14, 54, 92
17, 146545, Note_on_c, 14, 54, 0
17, 146550, Note_on_c, 14, 54, 92
17, 146575, Note_on_c, 14, 54, 0
17, 146580, Note_on_c, 14, 54, 92
17, 146605, Note_on_c, 14, 54, 0
17, 146610, Note_on_c, 14, 54, 92
17, 146635, Note_on_c, 14, 54, 0
17, 146640, Note_on_c, 14, 54, 92
17, 146665, Note_on_c, 14, 54, 0
17, 146670, Note_on_c, 14, 54, 92
17, 146695, Note_on_c, 14, 54, 0
17, 146700, Note_on_c, 14, 54, 92
17, 146725, Note_on_c, 14, 54, 0
17, 146730, Note_on_c, 14, 54, 92
17, 146755, Note_on_c, 14, 54, 0
17, 146760, Note_on_c, 14, 54, 92
17, 146785, Note_on_c, 14, 54, 0
17, 146790, Note_on_c, 14, 54, 92
17, 146815, Note_on_c, 14, 54, 0
17, 146820, Note_on_c, 14, 54, 92
17, 146845, Note_on_c, 14, 54, 0
17, 146850, Note_on_c, 14, 54, 92
17, 146875, Note_on_c, 14, 54, 0
17, 146880, Note_on_c, 14, 66, 92
17, 146905, Note_on_c, 14, 66, 0
17, 146910, Note_on_c, 14, 66, 92
17, 146935, Note_on_c, 14, 66, 0
17, 146940, Note_on_c, 14, 66, 92
17, 146965, Note_on_c, 14, 66, 0
17, 146970, Note_on_c, 14, 66, 92
17, 146995, Note_on_c, 14, 66, 0
17, 147000, Note_on_c, 14, 66, 92
17, 147025, Note_on_c, 14, 66, 0
17, 147030, Note_on_c, 14, 66, 92
17, 147055, Note_on_c, 14, 66, 0
17, 147060, Note_on_c, 14, 66, 92
17, 147085, Note_on_c, 14, 66, 0
17, 147090, Note_on_c, 14, 66, 92
17, 147115, Note_on_c, 14, 66, 0
17, 147120, Note_on_c, 14, 66, 92
17, 147145, Note_on_c, 14, 66, 0
17, 147150, Note_on_c, 14, 66, 92
17, 147175, Note_on_c, 14, 66, 0
17, 147180, Note_on_c, 14, 66, 92
17, 147205, Note_on_c, 14, 66, 0
17, 147210, Note_on_c, 14, 66, 92
17, 147235, Note_on_c, 14, 66, 0
17, 147240, Note_on_c, 14, 66, 92
17, 147265, Note_on_c, 14, 66, 0
17, 147270, Note_on_c, 14, 66, 92
17, 147295, Note_on_c, 14, 66, 0
17, 147300, Note_on_c, 14, 66, 92
17, 147325, Note_on_c, 14, 66, 0
17, 147330, Note_on_c, 14, 66, 92
17, 147355, Note_on_c, 14, 66, 0
17, 147360, Note_on_c, 14, 54, 92
17, 147385, Note_on_c, 14, 54, 0
17, 147390, Note_on_c, 14, 54, 92
17, 147415, Note_on_c, 14, 54, 0
17, 147420, Note_on_c, 14, 54, 92
17, 147445, Note_on_c, 14, 54, 0
17, 147450, Note_on_c, 14, 54, 92
17, 147475, Note_on_c, 14, 54, 0
17, 147480, Note_on_c, 14, 54, 92
17, 147505, Note_on_c, 14, 54, 0
17, 147510, Note_on_c, 14, 54, 92
17, 147535, Note_on_c, 14, 54, 0
17, 147540, Note_on_c, 14, 54, 92
17, 147565, Note_on_c, 14, 54, 0
17, 147570, Note_on_c, 14, 54, 92
17, 147595, Note_on_c, 14, 54, 0
17, 147600, Note_on_c, 14, 54, 92
17, 147625, Note_on_c, 14, 54, 0
17, 147630, Note_on_c, 14, 54, 92
17, 147655, Note_on_c, 14, 54, 0
17, 147660, Note_on_c, 14, 54, 92
17, 147685, Note_on_c, 14, 54, 0
17, 147690, Note_on_c, 14, 54, 92
17, 147715, Note_on_c, 14, 54, 0
17, 147720, Note_on_c, 14, 54, 92
17, 147745, Note_on_c, 14, 54, 0
17, 147750, Note_on_c, 14, 54, 92
17, 147775, Note_on_c, 14, 54, 0
17, 147780, Note_on_c, 14, 54, 92
17, 147805, Note_on_c, 14, 54, 0
17, 147810, Note_on_c, 14, 54, 92
17, 147835, Note_on_c, 14, 54, 0
17, 147840, Note_on_c, 14, 42, 92
17, 147865, Note_on_c, 14, 42, 0
17, 147870, Note_on_c, 14, 42, 92
17, 147895, Note_on_c, 14, 42, 0
17, 147900, Note_on_c, 14, 42, 92
17, 147925, Note_on_c, 14, 42, 0
17, 147930, Note_on_c, 14, 42, 92
17, 147955, Note_on_c, 14, 42, 0
17, 147960, Note_on_c, 14, 42, 92
17, 147985, Note_on_c, 14, 42, 0
17, 147990, Note_on_c, 14, 42, 92
17, 148015, Note_on_c, 14, 42, 0
17, 148020, Note_on_c, 14, 42, 92
17, 148045, Note_on_c, 14, 42, 0
17, 148050, Note_on_c, 14, 42, 92
17, 148075, Note_on_c, 14, 42, 0
17, 148080, Note_on_c, 14, 54, 92
17, 148105, Note_on_c, 14, 54, 0
17, 148110, Note_on_c, 14, 54, 92
17, 148135, Note_on_c, 14, 54, 0
17, 148140, Note_on_c, 14, 54, 92
17, 148165, Note_on_c, 14, 54, 0
17, 148170, Note_on_c, 14, 54, 92
17, 148195, Note_on_c, 14, 54, 0
17, 148200, Note_on_c, 14, 54, 92
17, 148225, Note_on_c, 14, 54, 0
17, 148230, Note_on_c, 14, 54, 92
17, 148255, Note_on_c, 14, 54, 0
17, 148260, Note_on_c, 14, 54, 92
17, 148285, Note_on_c, 14, 54, 0
17, 148290, Note_on_c, 14, 54, 92
17, 148315, Note_on_c, 14, 54, 0
17, 148320, Note_on_c, 14, 66, 92
17, 148345, Note_on_c, 14, 66, 0
17, 148350, Note_on_c, 14, 66, 92
17, 148375, Note_on_c, 14, 66, 0
17, 148380, Note_on_c, 14, 66, 92
17, 148405, Note_on_c, 14, 66, 0
17, 148410, Note_on_c, 14, 66, 92
17, 148435, Note_on_c, 14, 66, 0
17, 148440, Note_on_c, 14, 66, 92
17, 148465, Note_on_c, 14, 66, 0
17, 148470, Note_on_c, 14, 66, 92
17, 148495, Note_on_c, 14, 66, 0
17, 148500, Note_on_c, 14, 66, 92
17, 148525, Note_on_c, 14, 66, 0
17, 148530, Note_on_c, 14, 66, 92
17, 148555, Note_on_c, 14, 66, 0
17, 148560, Note_on_c, 14, 54, 92
17, 148585, Note_on_c, 14, 54, 0
17, 148590, Note_on_c, 14, 54, 92
17, 148615, Note_on_c, 14, 54, 0
17, 148620, Note_on_c, 14, 54, 92
17, 148645, Note_on_c, 14, 54, 0
17, 148650, Note_on_c, 14, 54, 92
17, 148675, Note_on_c, 14, 54, 0
17, 148680, Note_on_c, 14, 54, 92
17, 148705, Note_on_c, 14, 54, 0
17, 148710, Note_on_c, 14, 54, 92
17, 148735, Note_on_c, 14, 54, 0
17, 148740, Note_on_c, 14, 54, 92
17, 148765, Note_on_c, 14, 54, 0
17, 148770, Note_on_c, 14, 54, 92
17, 148795, Note_on_c, 14, 54, 0
17, 148800, Note_on_c, 14, 42, 92
17, 148825, Note_on_c, 14, 42, 0
17, 148830, Note_on_c, 14, 42, 92
17, 148855, Note_on_c, 14, 42, 0
17, 148860, Note_on_c, 14, 42, 92
17, 148885, Note_on_c, 14, 42, 0
17, 148890, Note_on_c, 14, 42, 92
17, 148915, Note_on_c, 14, 42, 0
17, 148920, Note_on_c, 14, 42, 92
17, 148945, Note_on_c, 14, 42, 0
17, 148950, Note_on_c, 14, 42, 92
17, 148975, Note_on_c, 14, 42, 0
17, 148980, Note_on_c, 14, 42, 92
17, 149005, Note_on_c, 14, 42, 0
17, 149010, Note_on_c, 14, 42, 92
17, 149035, Note_on_c, 14, 42, 0
17, 149040, Note_on_c, 14, 54, 92
17, 149065, Note_on_c, 14, 54, 0
17, 149070, Note_on_c, 14, 54, 92
17, 149095, Note_on_c, 14, 54, 0
17, 149100, Note_on_c, 14, 54, 92
17, 149125, Note_on_c, 14, 54, 0
17, 149130, Note_on_c, 14, 54, 92
17, 149155, Note_on_c, 14, 54, 0
17, 149160, Note_on_c, 14, 54, 92
17, 149185, Note_on_c, 14, 54, 0
17, 149190, Note_on_c, 14, 54, 92
17, 149215, Note_on_c, 14, 54, 0
17, 149220, Note_on_c, 14, 54, 92
17, 149245, Note_on_c, 14, 54, 0
17, 149250, Note_on_c, 14, 54, 92
17, 149275, Note_on_c, 14, 54, 0
17, 149280, Note_on_c, 14, 66, 92
17, 149305, Note_on_c, 14, 66, 0
17, 149310, Note_on_c, 14, 66, 92
17, 149335, Note_on_c, 14, 66, 0
17, 149340, Note_on_c, 14, 66, 92
17, 149365, Note_on_c, 14, 66, 0
17, 149370, Note_on_c, 14, 66, 92
17, 149395, Note_on_c, 14, 66, 0
17, 149400, Note_on_c, 14, 66, 92
17, 149425, Note_on_c, 14, 66, 0
17, 149430, Note_on_c, 14, 66, 92
17, 149455, Note_on_c, 14, 66, 0
17, 149460, Note_on_c, 14, 66, 92
17, 149485, Note_on_c, 14, 66, 0
17, 149490, Note_on_c, 14, 66, 92
17, 149515, Note_on_c, 14, 66, 0
17, 149520, Note_on_c, 14, 54, 92
17, 149545, Note_on_c, 14, 54, 0
17, 149550, Note_on_c, 14, 54, 92
17, 149575, Note_on_c, 14, 54, 0
17, 149580, Note_on_c, 14, 54, 92
17, 149605, Note_on_c, 14, 54, 0
17, 149610, Note_on_c, 14, 54, 92
17, 149635, Note_on_c, 14, 54, 0
17, 149640, Note_on_c, 14, 53, 92
17, 149665, Note_on_c, 14, 53, 0
17, 149670, Note_on_c, 14, 53, 92
17, 149695, Note_on_c, 14, 53, 0
17, 149700, Note_on_c, 14, 53, 92
17, 149725, Note_on_c, 14, 53, 0
17, 149730, Note_on_c, 14, 53, 92
17, 149755, Note_on_c, 14, 53, 0
17, 149760, Note_on_c, 14, 46, 92
17, 149785, Note_on_c, 14, 46, 0
17, 149790, Note_on_c, 14, 46, 92
17, 149815, Note_on_c, 14, 46, 0
17, 149820, Note_on_c, 14, 46, 92
17, 149845, Note_on_c, 14, 46, 0
17, 149850, Note_on_c, 14, 46, 92
17, 149875, Note_on_c, 14, 46, 0
17, 149880, Note_on_c, 14, 46, 92
17, 149905, Note_on_c, 14, 46, 0
17, 149910, Note_on_c, 14, 46, 92
17, 149935, Note_on_c, 14, 46, 0
17, 149940, Note_on_c, 14, 46, 92
17, 149965, Note_on_c, 14, 46, 0
17, 149970, Note_on_c, 14, 46, 92
17, 149995, Note_on_c, 14, 46, 0
17, 150000, Note_on_c, 14, 46, 92
17, 150025, Note_on_c, 14, 46, 0
17, 150030, Note_on_c, 14, 46, 92
17, 150055, Note_on_c, 14, 46, 0
17, 150060, Note_on_c, 14, 46, 92
17, 150085, Note_on_c, 14, 46, 0
17, 150090, Note_on_c, 14, 46, 92
17, 150115, Note_on_c, 14, 46, 0
17, 150120, Note_on_c, 14, 46, 92
17, 150145, Note_on_c, 14, 46, 0
17, 150150, Note_on_c, 14, 46, 92
17, 150175, Note_on_c, 14, 46, 0
17, 150180, Note_on_c, 14, 46, 92
17, 150205, Note_on_c, 14, 46, 0
17, 150210, Note_on_c, 14, 46, 92
17, 150235, Note_on_c, 14, 46, 0
17, 150240, Note_on_c, 14, 46, 92
17, 150265, Note_on_c, 14, 46, 0
17, 150270, Note_on_c, 14, 46, 92
17, 150295, Note_on_c, 14, 46, 0
17, 150300, Note_on_c, 14, 46, 92
17, 150325, Note_on_c, 14, 46, 0
17, 150330, Note_on_c, 14, 46, 92
17, 150355, Note_on_c, 14, 46, 0
17, 150360, Note_on_c, 14, 46, 92
17, 150385, Note_on_c, 14, 46, 0
17, 150390, Note_on_c, 14, 46, 92
17, 150415, Note_on_c, 14, 46, 0
17, 150420, Note_on_c, 14, 46, 92
17, 150445, Note_on_c, 14, 46, 0
17, 150450, Note_on_c, 14, 46, 92
17, 150475, Note_on_c, 14, 46, 0
17, 150480, Note_on_c, 14, 46, 92
17, 150505, Note_on_c, 14, 46, 0
17, 150510, Note_on_c, 14, 46, 92
17, 150535, Note_on_c, 14, 46, 0
17, 150540, Note_on_c, 14, 46, 92
17, 150565, Note_on_c, 14, 46, 0
17, 150570, Note_on_c, 14, 46, 92
17, 150595, Note_on_c, 14, 46, 0
17, 150600, Note_on_c, 14, 46, 92
17, 150625, Note_on_c, 14, 46, 0
17, 150630, Note_on_c, 14, 46, 92
17, 150655, Note_on_c, 14, 46, 0
17, 150660, Note_on_c, 14, 46, 92
17, 150685, Note_on_c, 14, 46, 0
17, 150690, Note_on_c, 14, 41, 92
17, 150715, Note_on_c, 14, 41, 0
17, 150720, Note_on_c, 14, 41, 92
17, 150921, Note_on_c, 14, 41, 0
17, 150930, Note_on_c, 14, 41, 92
17, 150951, Note_on_c, 14, 41, 0
17, 150960, Note_on_c, 14, 45, 104
17, 151019, Note_on_c, 14, 45, 0
17, 151020, Note_on_c, 14, 45, 92
17, 151401, Note_on_c, 14, 45, 0
17, 151410, Note_on_c, 14, 45, 92
17, 151431, Note_on_c, 14, 45, 0
17, 151440, Note_on_c, 14, 50, 104
17, 151499, Note_on_c, 14, 50, 0
17, 151500, Note_on_c, 14, 50, 92
17, 151881, Note_on_c, 14, 50, 0
17, 151890, Note_on_c, 14, 50, 92
17, 151911, Note_on_c, 14, 50, 0
17, 151920, Note_on_c, 14, 53, 104
17, 151979, Note_on_c, 14, 53, 0
17, 151980, Note_on_c, 14, 53, 92
17, 152264, Note_on_c, 14, 53, 0
17, 152280, Note_on_c, 14, 57, 92
17, 152369, Note_on_c, 14, 57, 0
17, 152400, Note_on_c, 14, 62, 92
17, 152489, Note_on_c, 14, 62, 0
17, 152520, Note_on_c, 14, 60, 92
17, 152609, Note_on_c, 14, 60, 0
17, 152640, Note_on_c, 14, 60, 92
17, 152759, Note_on_c, 14, 60, 0
17, 152760, Note_on_c, 14, 58, 92
17, 152864, Note_on_c, 14, 58, 0
17, 152880, Note_on_c, 14, 57, 92
17, 152969, Note_on_c, 14, 57, 0
17, 153000, Note_on_c, 14, 55, 92
17, 153089, Note_on_c, 14, 55, 0
17, 153120, Note_on_c, 14, 53, 92
17, 153209, Note_on_c, 14, 53, 0
17, 153240, Note_on_c, 14, 55, 92
17, 153329, Note_on_c, 14, 55, 0
17, 153360, Note_on_c, 14, 57, 92
17, 153449, Note_on_c, 14, 57, 0
17, 153480, Note_on_c, 14, 59, 104
17, 153539, Note_on_c, 14, 59, 0
17, 153540, Note_on_c, 14, 60, 92
17, 153591, Note_on_c, 14, 60, 0
17, 153600, Note_on_c, 14, 60, 92
17, 153719, Note_on_c, 14, 60, 0
17, 153720, Note_on_c, 14, 58, 92
17, 153824, Note_on_c, 14, 58, 0
17, 153840, Note_on_c, 14, 57, 92
17, 153929, Note_on_c, 14, 57, 0
17, 153960, Note_on_c, 14, 55, 92
17, 154049, Note_on_c, 14, 55, 0
17, 154080, Note_on_c, 14, 54, 92
17, 154169, Note_on_c, 14, 54, 0
17, 154200, Note_on_c, 14, 55, 92
17, 154289, Note_on_c, 14, 55, 0
17, 154320, Note_on_c, 14, 57, 92
17, 154409, Note_on_c, 14, 57, 0
17, 154440, Note_on_c, 14, 57, 104
17, 154479, Note_on_c, 14, 57, 0
17, 154480, Note_on_c, 14, 59, 92
17, 154519, Note_on_c, 14, 59, 0
17, 154520, Note_on_c, 14, 60, 92
17, 154553, Note_on_c, 14, 60, 0
17, 154560, Note_on_c, 14, 60, 80
17, 155024, Note_on_c, 14, 60, 0
17, 155040, Note_on_c, 14, 60, 80
17, 155219, Note_on_c, 14, 60, 0
17, 155280, Note_on_c, 14, 57, 80
17, 155459, Note_on_c, 14, 57, 0
17, 155520, Note_on_c, 14, 55, 80
17, 155984, Note_on_c, 14, 55, 0
17, 156000, Note_on_c, 14, 43, 80
17, 156025, Note_on_c, 14, 43, 0
17, 156030, Note_on_c, 14, 43, 80
17, 156055, Note_on_c, 14, 43, 0
17, 156060, Note_on_c, 14, 43, 80
17, 156085, Note_on_c, 14, 43, 0
17, 156090, Note_on_c, 14, 43, 80
17, 156115, Note_on_c, 14, 43, 0
17, 156120, Note_on_c, 14, 51, 80
17, 156145, Note_on_c, 14, 51, 0
17, 156150, Note_on_c, 14, 51, 80
17, 156175, Note_on_c, 14, 51, 0
17, 156180, Note_on_c, 14, 51, 80
17, 156205, Note_on_c, 14, 51, 0
17, 156210, Note_on_c, 14, 51, 80
17, 156235, Note_on_c, 14, 51, 0
17, 156240, Note_on_c, 14, 51, 80
17, 156265, Note_on_c, 14, 51, 0
17, 156270, Note_on_c, 14, 51, 80
17, 156295, Note_on_c, 14, 51, 0
17, 156300, Note_on_c, 14, 51, 80
17, 156325, Note_on_c, 14, 51, 0
17, 156330, Note_on_c, 14, 51, 80
17, 156355, Note_on_c, 14, 51, 0
17, 156360, Note_on_c, 14, 63, 80
17, 156385, Note_on_c, 14, 63, 0
17, 156390, Note_on_c, 14, 63, 80
17, 156415, Note_on_c, 14, 63, 0
17, 156420, Note_on_c, 14, 63, 80
17, 156445, Note_on_c, 14, 63, 0
17, 156450, Note_on_c, 14, 63, 80
17, 156475, Note_on_c, 14, 63, 0
17, 156480, Note_on_c, 14, 49, 92
17, 156505, Note_on_c, 14, 49, 0
17, 156510, Note_on_c, 14, 49, 80
17, 156535, Note_on_c, 14, 49, 0
17, 156540, Note_on_c, 14, 49, 80
17, 156565, Note_on_c, 14, 49, 0
17, 156570, Note_on_c, 14, 49, 80
17, 156595, Note_on_c, 14, 49, 0
17, 156600, Note_on_c, 14, 50, 80
17, 156625, Note_on_c, 14, 50, 0
17, 156630, Note_on_c, 14, 50, 80
17, 156655, Note_on_c, 14, 50, 0
17, 156660, Note_on_c, 14, 50, 80
17, 156685, Note_on_c, 14, 50, 0
17, 156690, Note_on_c, 14, 50, 80
17, 156715, Note_on_c, 14, 50, 0
17, 156720, Note_on_c, 14, 50, 80
17, 156745, Note_on_c, 14, 50, 0
17, 156750, Note_on_c, 14, 50, 80
17, 156775, Note_on_c, 14, 50, 0
17, 156780, Note_on_c, 14, 50, 80
17, 156805, Note_on_c, 14, 50, 0
17, 156810, Note_on_c, 14, 50, 80
17, 156835, Note_on_c, 14, 50, 0
17, 156840, Note_on_c, 14, 50, 80
17, 156865, Note_on_c, 14, 50, 0
17, 156870, Note_on_c, 14, 50, 80
17, 156895, Note_on_c, 14, 50, 0
17, 156900, Note_on_c, 14, 50, 80
17, 156925, Note_on_c, 14, 50, 0
17, 156930, Note_on_c, 14, 50, 80
17, 156955, Note_on_c, 14, 50, 0
17, 156960, Note_on_c, 14, 50, 80
17, 156985, Note_on_c, 14, 50, 0
17, 156990, Note_on_c, 14, 50, 80
17, 157015, Note_on_c, 14, 50, 0
17, 157020, Note_on_c, 14, 50, 80
17, 157045, Note_on_c, 14, 50, 0
17, 157050, Note_on_c, 14, 50, 80
17, 157075, Note_on_c, 14, 50, 0
17, 157080, Note_on_c, 14, 50, 80
17, 157105, Note_on_c, 14, 50, 0
17, 157110, Note_on_c, 14, 50, 80
17, 157135, Note_on_c, 14, 50, 0
17, 157140, Note_on_c, 14, 50, 80
17, 157165, Note_on_c, 14, 50, 0
17, 157170, Note_on_c, 14, 50, 80
17, 157195, Note_on_c, 14, 50, 0
17, 157200, Note_on_c, 14, 50, 80
17, 157225, Note_on_c, 14, 50, 0
17, 157230, Note_on_c, 14, 50, 80
17, 157255, Note_on_c, 14, 50, 0
17, 157260, Note_on_c, 14, 50, 80
17, 157285, Note_on_c, 14, 50, 0
17, 157290, Note_on_c, 14, 50, 80
17, 157315, Note_on_c, 14, 50, 0
17, 157320, Note_on_c, 14, 50, 80
17, 157345, Note_on_c, 14, 50, 0
17, 157350, Note_on_c, 14, 50, 80
17, 157375, Note_on_c, 14, 50, 0
17, 157380, Note_on_c, 14, 50, 80
17, 157405, Note_on_c, 14, 50, 0
17, 157410, Note_on_c, 14, 50, 80
17, 157435, Note_on_c, 14, 50, 0
17, 157440, Note_on_c, 14, 50, 92
17, 157465, Note_on_c, 14, 50, 0
17, 157470, Note_on_c, 14, 50, 80
17, 157495, Note_on_c, 14, 50, 0
17, 157500, Note_on_c, 14, 50, 80
17, 157525, Note_on_c, 14, 50, 0
17, 157530, Note_on_c, 14, 50, 80
17, 157555, Note_on_c, 14, 50, 0
17, 157560, Note_on_c, 14, 61, 80
17, 157585, Note_on_c, 14, 61, 0
17, 157590, Note_on_c, 14, 61, 80
17, 157615, Note_on_c, 14, 61, 0
17, 157620, Note_on_c, 14, 61, 80
17, 157645, Note_on_c, 14, 61, 0
17, 157650, Note_on_c, 14, 61, 80
17, 157675, Note_on_c, 14, 61, 0
17, 157680, Note_on_c, 14, 62, 80
17, 157705, Note_on_c, 14, 62, 0
17, 157710, Note_on_c, 14, 62, 80
17, 157735, Note_on_c, 14, 62, 0
17, 157740, Note_on_c, 14, 62, 80
17, 157765, Note_on_c, 14, 62, 0
17, 157770, Note_on_c, 14, 62, 80
17, 157795, Note_on_c, 14, 62, 0
17, 157800, Note_on_c, 14, 64, 80
17, 157825, Note_on_c, 14, 64, 0
17, 157830, Note_on_c, 14, 64, 80
17, 157855, Note_on_c, 14, 64, 0
17, 157860, Note_on_c, 14, 64, 80
17, 157885, Note_on_c, 14, 64, 0
17, 157890, Note_on_c, 14, 64, 80
17, 157915, Note_on_c, 14, 64, 0
17, 157920, Note_on_c, 14, 66, 80
17, 157945, Note_on_c, 14, 66, 0
17, 157950, Note_on_c, 14, 66, 80
17, 157975, Note_on_c, 14, 66, 0
17, 157980, Note_on_c, 14, 66, 80
17, 158005, Note_on_c, 14, 66, 0
17, 158010, Note_on_c, 14, 66, 80
17, 158035, Note_on_c, 14, 66, 0
17, 158040, Note_on_c, 14, 67, 80
17, 158065, Note_on_c, 14, 67, 0
17, 158070, Note_on_c, 14, 67, 80
17, 158095, Note_on_c, 14, 67, 0
17, 158100, Note_on_c, 14, 67, 80
17, 158125, Note_on_c, 14, 67, 0
17, 158130, Note_on_c, 14, 67, 80
17, 158155, Note_on_c, 14, 67, 0
17, 158160, Note_on_c, 14, 69, 80
17, 158185, Note_on_c, 14, 69, 0
17, 158190, Note_on_c, 14, 69, 80
17, 158215, Note_on_c, 14, 69, 0
17, 158220, Note_on_c, 14, 69, 80
17, 158245, Note_on_c, 14, 69, 0
17, 158250, Note_on_c, 14, 69, 80
17, 158275, Note_on_c, 14, 69, 0
17, 158280, Note_on_c, 14, 69, 80
17, 158305, Note_on_c, 14, 69, 0
17, 158310, Note_on_c, 14, 69, 80
17, 158335, Note_on_c, 14, 69, 0
17, 158340, Note_on_c, 14, 69, 80
17, 158365, Note_on_c, 14, 69, 0
17, 158370, Note_on_c, 14, 69, 80
17, 158395, Note_on_c, 14, 69, 0
17, 158400, Note_on_c, 14, 50, 92
17, 158425, Note_on_c, 14, 50, 0
17, 158430, Note_on_c, 14, 50, 80
17, 158455, Note_on_c, 14, 50, 0
17, 158460, Note_on_c, 14, 50, 80
17, 158485, Note_on_c, 14, 50, 0
17, 158490, Note_on_c, 14, 50, 80
17, 158515, Note_on_c, 14, 50, 0
17, 158520, Note_on_c, 14, 59, 80
17, 158545, Note_on_c, 14, 59, 0
17, 158550, Note_on_c, 14, 59, 80
17, 158575, Note_on_c, 14, 59, 0
17, 158580, Note_on_c, 14, 59, 80
17, 158605, Note_on_c, 14, 59, 0
17, 158610, Note_on_c, 14, 59, 80
17, 158635, Note_on_c, 14, 59, 0
17, 158640, Note_on_c, 14, 61, 80
17, 158665, Note_on_c, 14, 61, 0
17, 158670, Note_on_c, 14, 61, 80
17, 158695, Note_on_c, 14, 61, 0
17, 158700, Note_on_c, 14, 61, 80
17, 158725, Note_on_c, 14, 61, 0
17, 158730, Note_on_c, 14, 61, 80
17, 158755, Note_on_c, 14, 61, 0
17, 158760, Note_on_c, 14, 62, 80
17, 158785, Note_on_c, 14, 62, 0
17, 158790, Note_on_c, 14, 62, 80
17, 158815, Note_on_c, 14, 62, 0
17, 158820, Note_on_c, 14, 62, 80
17, 158845, Note_on_c, 14, 62, 0
17, 158850, Note_on_c, 14, 62, 80
17, 158875, Note_on_c, 14, 62, 0
17, 158880, Note_on_c, 14, 64, 80
17, 158905, Note_on_c, 14, 64, 0
17, 158910, Note_on_c, 14, 64, 80
17, 158935, Note_on_c, 14, 64, 0
17, 158940, Note_on_c, 14, 64, 80
17, 158965, Note_on_c, 14, 64, 0
17, 158970, Note_on_c, 14, 64, 80
17, 158995, Note_on_c, 14, 64, 0
17, 159000, Note_on_c, 14, 65, 80
17, 159025, Note_on_c, 14, 65, 0
17, 159030, Note_on_c, 14, 65, 80
17, 159055, Note_on_c, 14, 65, 0
17, 159060, Note_on_c, 14, 65, 80
17, 159085, Note_on_c, 14, 65, 0
17, 159090, Note_on_c, 14, 65, 80
17, 159115, Note_on_c, 14, 65, 0
17, 159120, Note_on_c, 14, 67, 80
17, 159145, Note_on_c, 14, 67, 0
17, 159150, Note_on_c, 14, 67, 80
17, 159175, Note_on_c, 14, 67, 0
17, 159180, Note_on_c, 14, 67, 80
17, 159205, Note_on_c, 14, 67, 0
17, 159210, Note_on_c, 14, 67, 80
17, 159235, Note_on_c, 14, 67, 0
17, 159240, Note_on_c, 14, 67, 80
17, 159265, Note_on_c, 14, 67, 0
17, 159270, Note_on_c, 14, 67, 80
17, 159295, Note_on_c, 14, 67, 0
17, 159300, Note_on_c, 14, 67, 80
17, 159325, Note_on_c, 14, 67, 0
17, 159330, Note_on_c, 14, 67, 80
17, 159355, Note_on_c, 14, 67, 0
17, 159360, Note_on_c, 14, 50, 92
17, 159385, Note_on_c, 14, 50, 0
17, 159390, Note_on_c, 14, 50, 80
17, 159415, Note_on_c, 14, 50, 0
17, 159420, Note_on_c, 14, 50, 80
17, 159445, Note_on_c, 14, 50, 0
17, 159450, Note_on_c, 14, 50, 80
17, 159475, Note_on_c, 14, 50, 0
17, 159480, Note_on_c, 14, 57, 80
17, 159505, Note_on_c, 14, 57, 0
17, 159510, Note_on_c, 14, 57, 80
17, 159535, Note_on_c, 14, 57, 0
17, 159540, Note_on_c, 14, 57, 80
17, 159565, Note_on_c, 14, 57, 0
17, 159570, Note_on_c, 14, 57, 80
17, 159595, Note_on_c, 14, 57, 0
17, 159600, Note_on_c, 14, 59, 80
17, 159625, Note_on_c, 14, 59, 0
17, 159630, Note_on_c, 14, 59, 80
17, 159655, Note_on_c, 14, 59, 0
17, 159660, Note_on_c, 14, 59, 80
17, 159685, Note_on_c, 14, 59, 0
17, 159690, Note_on_c, 14, 59, 80
17, 159715, Note_on_c, 14, 59, 0
17, 159720, Note_on_c, 14, 61, 80
17, 159745, Note_on_c, 14, 61, 0
17, 159750, Note_on_c, 14, 61, 80
17, 159775, Note_on_c, 14, 61, 0
17, 159780, Note_on_c, 14, 61, 80
17, 159805, Note_on_c, 14, 61, 0
17, 159810, Note_on_c, 14, 61, 80
17, 159835, Note_on_c, 14, 61, 0
17, 159840, Note_on_c, 14, 62, 80
17, 159865, Note_on_c, 14, 62, 0
17, 159870, Note_on_c, 14, 62, 80
17, 159895, Note_on_c, 14, 62, 0
17, 159900, Note_on_c, 14, 62, 80
17, 159925, Note_on_c, 14, 62, 0
17, 159930, Note_on_c, 14, 62, 80
17, 159955, Note_on_c, 14, 62, 0
17, 159960, Note_on_c, 14, 64, 80
17, 159985, Note_on_c, 14, 64, 0
17, 159990, Note_on_c, 14, 64, 80
17, 160015, Note_on_c, 14, 64, 0
17, 160020, Note_on_c, 14, 64, 80
17, 160045, Note_on_c, 14, 64, 0
17, 160050, Note_on_c, 14, 64, 80
17, 160075, Note_on_c, 14, 64, 0
17, 160080, Note_on_c, 14, 65, 80
17, 160105, Note_on_c, 14, 65, 0
17, 160110, Note_on_c, 14, 65, 80
17, 160135, Note_on_c, 14, 65, 0
17, 160140, Note_on_c, 14, 65, 80
17, 160165, Note_on_c, 14, 65, 0
17, 160170, Note_on_c, 14, 65, 80
17, 160195, Note_on_c, 14, 65, 0
17, 160200, Note_on_c, 14, 65, 80
17, 160225, Note_on_c, 14, 65, 0
17, 160230, Note_on_c, 14, 65, 80
17, 160255, Note_on_c, 14, 65, 0
17, 160260, Note_on_c, 14, 65, 80
17, 160285, Note_on_c, 14, 65, 0
17, 160290, Note_on_c, 14, 65, 80
17, 160315, Note_on_c, 14, 65, 0
17, 160320, Note_on_c, 14, 47, 92
17, 160345, Note_on_c, 14, 47, 0
17, 160350, Note_on_c, 14, 47, 80
17, 160375, Note_on_c, 14, 47, 0
17, 160380, Note_on_c, 14, 47, 80
17, 160405, Note_on_c, 14, 47, 0
17, 160410, Note_on_c, 14, 47, 80
17, 160435, Note_on_c, 14, 47, 0
17, 160440, Note_on_c, 14, 56, 80
17, 160465, Note_on_c, 14, 56, 0
17, 160470, Note_on_c, 14, 56, 80
17, 160495, Note_on_c, 14, 56, 0
17, 160500, Note_on_c, 14, 56, 80
17, 160525, Note_on_c, 14, 56, 0
17, 160530, Note_on_c, 14, 56, 80
17, 160555, Note_on_c, 14, 56, 0
17, 160560, Note_on_c, 14, 57, 80
17, 160585, Note_on_c, 14, 57, 0
17, 160590, Note_on_c, 14, 57, 80
17, 160615, Note_on_c, 14, 57, 0
17, 160620, Note_on_c, 14, 57, 80
17, 160645, Note_on_c, 14, 57, 0
17, 160650, Note_on_c, 14, 57, 80
17, 160675, Note_on_c, 14, 57, 0
17, 160680, Note_on_c, 14, 59, 80
17, 160705, Note_on_c, 14, 59, 0
17, 160710, Note_on_c, 14, 59, 80
17, 160735, Note_on_c, 14, 59, 0
17, 160740, Note_on_c, 14, 59, 80
17, 160765, Note_on_c, 14, 59, 0
17, 160770, Note_on_c, 14, 59, 80
17, 160795, Note_on_c, 14, 59, 0
17, 160800, Note_on_c, 14, 61, 80
17, 160825, Note_on_c, 14, 61, 0
17, 160830, Note_on_c, 14, 61, 80
17, 160855, Note_on_c, 14, 61, 0
17, 160860, Note_on_c, 14, 61, 80
17, 160885, Note_on_c, 14, 61, 0
17, 160890, Note_on_c, 14, 61, 80
17, 160915, Note_on_c, 14, 61, 0
17, 160920, Note_on_c, 14, 62, 80
17, 160945, Note_on_c, 14, 62, 0
17, 160950, Note_on_c, 14, 62, 80
17, 160975, Note_on_c, 14, 62, 0
17, 160980, Note_on_c, 14, 62, 80
17, 161005, Note_on_c, 14, 62, 0
17, 161010, Note_on_c, 14, 62, 80
17, 161035, Note_on_c, 14, 62, 0
17, 161040, Note_on_c, 14, 64, 80
17, 161065, Note_on_c, 14, 64, 0
17, 161070, Note_on_c, 14, 64, 80
17, 161095, Note_on_c, 14, 64, 0
17, 161100, Note_on_c, 14, 64, 80
17, 161125, Note_on_c, 14, 64, 0
17, 161130, Note_on_c, 14, 64, 80
17, 161155, Note_on_c, 14, 64, 0
17, 161160, Note_on_c, 14, 64, 80
17, 161185, Note_on_c, 14, 64, 0
17, 161190, Note_on_c, 14, 64, 80
17, 161215, Note_on_c, 14, 64, 0
17, 161220, Note_on_c, 14, 64, 80
17, 161245, Note_on_c, 14, 64, 0
17, 161250, Note_on_c, 14, 64, 80
17, 161275, Note_on_c, 14, 64, 0
17, 161280, Note_on_c, 14, 47, 92
17, 161305, Note_on_c, 14, 47, 0
17, 161310, Note_on_c, 14, 47, 79
17, 161335, Note_on_c, 14, 47, 0
17, 161340, Note_on_c, 14, 47, 78
17, 161365, Note_on_c, 14, 47, 0
17, 161370, Note_on_c, 14, 47, 77
17, 161395, Note_on_c, 14, 47, 0
17, 161400, Note_on_c, 14, 55, 76
17, 161425, Note_on_c, 14, 55, 0
17, 161430, Note_on_c, 14, 55, 75
17, 161455, Note_on_c, 14, 55, 0
17, 161460, Note_on_c, 14, 55, 74
17, 161485, Note_on_c, 14, 55, 0
17, 161490, Note_on_c, 14, 55, 73
17, 161515, Note_on_c, 14, 55, 0
17, 161520, Note_on_c, 14, 57, 71
17, 161545, Note_on_c, 14, 57, 0
17, 161550, Note_on_c, 14, 57, 70
17, 161575, Note_on_c, 14, 57, 0
17, 161580, Note_on_c, 14, 57, 69
17, 161605, Note_on_c, 14, 57, 0
17, 161610, Note_on_c, 14, 57, 68
17, 161635, Note_on_c, 14, 57, 0
17, 161640, Note_on_c, 14, 59, 67
17, 161665, Note_on_c, 14, 59, 0
17, 161670, Note_on_c, 14, 59, 66
17, 161695, Note_on_c, 14, 59, 0
17, 161700, Note_on_c, 14, 59, 65
17, 161725, Note_on_c, 14, 59, 0
17, 161730, Note_on_c, 14, 59, 64
17, 161755, Note_on_c, 14, 59, 0
17, 161760, Note_on_c, 14, 61, 62
17, 161785, Note_on_c, 14, 61, 0
17, 161790, Note_on_c, 14, 61, 61
17, 161815, Note_on_c, 14, 61, 0
17, 161820, Note_on_c, 14, 61, 60
17, 161845, Note_on_c, 14, 61, 0
17, 161850, Note_on_c, 14, 61, 59
17, 161875, Note_on_c, 14, 61, 0
17, 161880, Note_on_c, 14, 62, 58
17, 161905, Note_on_c, 14, 62, 0
17, 161910, Note_on_c, 14, 62, 57
17, 161935, Note_on_c, 14, 62, 0
17, 161940, Note_on_c, 14, 62, 56
17, 161965, Note_on_c, 14, 62, 0
17, 161970, Note_on_c, 14, 62, 55
17, 161995, Note_on_c, 14, 62, 0
17, 162000, Note_on_c, 14, 64, 53
17, 162025, Note_on_c, 14, 64, 0
17, 162030, Note_on_c, 14, 64, 52
17, 162055, Note_on_c, 14, 64, 0
17, 162060, Note_on_c, 14, 64, 51
17, 162085, Note_on_c, 14, 64, 0
17, 162090, Note_on_c, 14, 64, 50
17, 162115, Note_on_c, 14, 64, 0
17, 162120, Note_on_c, 14, 64, 49
17, 162145, Note_on_c, 14, 64, 0
17, 162150, Note_on_c, 14, 64, 48
17, 162175, Note_on_c, 14, 64, 0
17, 162180, Note_on_c, 14, 64, 47
17, 162205, Note_on_c, 14, 64, 0
17, 162210, Note_on_c, 14, 64, 46
17, 162235, Note_on_c, 14, 64, 0
17, 162240, Note_on_c, 14, 49, 44
17, 162344, Note_on_c, 14, 49, 0
17, 162360, Note_on_c, 14, 57, 44
17, 162411, Note_on_c, 14, 57, 0
17, 162420, Note_on_c, 14, 57, 44
17, 162471, Note_on_c, 14, 57, 0
17, 162480, Note_on_c, 14, 57, 44
17, 162599, Note_on_c, 14, 57, 0
17, 163320, Note_on_c, 14, 45, 44
17, 163371, Note_on_c, 14, 45, 0
17, 163380, Note_on_c, 14, 45, 44
17, 163431, Note_on_c, 14, 45, 0
17, 163440, Note_on_c, 14, 45, 44
17, 163559, Note_on_c, 14, 45, 0
17, 164280, Note_on_c, 14, 57, 44
17, 164331, Note_on_c, 14, 57, 0
17, 164340, Note_on_c, 14, 57, 44
17, 164391, Note_on_c, 14, 57, 0
17, 164400, Note_on_c, 14, 57, 44
17, 164519, Note_on_c, 14, 57, 0
17, 165000, Note_on_c, 14, 49, 44
17, 165171, Note_on_c, 14, 49, 0
17, 165180, Note_on_c, 14, 50, 44
17, 165224, Note_on_c, 14, 50, 0
17, 165240, Note_on_c, 14, 53, 44
17, 165284, Note_on_c, 14, 53, 0
17, 165300, Note_on_c, 14, 54, 44
17, 165344, Note_on_c, 14, 54, 0
17, 165360, Note_on_c, 14, 57, 44
17, 165479, Note_on_c, 14, 57, 0
17, 165600, Note_on_c, 14, 53, 44
17, 165644, Note_on_c, 14, 53, 0
17, 165660, Note_on_c, 14, 54, 44
17, 165704, Note_on_c, 14, 54, 0
17, 165720, Note_on_c, 14, 57, 44
17, 165764, Note_on_c, 14, 57, 0
17, 165780, Note_on_c, 14, 61, 44
17, 165824, Note_on_c, 14, 61, 0
17, 165840, Note_on_c, 14, 62, 44
17, 165959, Note_on_c, 14, 62, 0
17, 166080, Note_on_c, 14, 52, 44
17, 166124, Note_on_c, 14, 52, 0
17, 166140, Note_on_c, 14, 55, 44
17, 166184, Note_on_c, 14, 55, 0
17, 166200, Note_on_c, 14, 57, 44
17, 166244, Note_on_c, 14, 57, 0
17, 166260, Note_on_c, 14, 61, 44
17, 166304, Note_on_c, 14, 61, 0
17, 166320, Note_on_c, 14, 64, 44
17, 166439, Note_on_c, 14, 64, 0
17, 166560, Note_on_c, 14, 43, 44
17, 166604, Note_on_c, 14, 43, 0
17, 166620, Note_on_c, 14, 49, 44
17, 166664, Note_on_c, 14, 49, 0
17, 166680, Note_on_c, 14, 52, 44
17, 166724, Note_on_c, 14, 52, 0
17, 166740, Note_on_c, 14, 54, 44
17, 166784, Note_on_c, 14, 54, 0
17, 166800, Note_on_c, 14, 55, 44
17, 166919, Note_on_c, 14, 55, 0
17, 167040, Note_on_c, 14, 50, 44
17, 167084, Note_on_c, 14, 50, 0
17, 167100, Note_on_c, 14, 54, 44
17, 167144, Note_on_c, 14, 54, 0
17, 167160, Note_on_c, 14, 56, 44
17, 167204, Note_on_c, 14, 56, 0
17, 167220, Note_on_c, 14, 57, 44
17, 167264, Note_on_c, 14, 57, 0
17, 167280, Note_on_c, 14, 57, 44
17, 167399, Note_on_c, 14, 57, 0
17, 167520, Note_on_c, 14, 54, 44
17, 167564, Note_on_c, 14, 54, 0
17, 167580, Note_on_c, 14, 57, 44
17, 167624, Note_on_c, 14, 57, 0
17, 167640, Note_on_c, 14, 61, 44
17, 167684, Note_on_c, 14, 61, 0
17, 167700, Note_on_c, 14, 62, 44
17, 167744, Note_on_c, 14, 62, 0
17, 167760, Note_on_c, 14, 62, 44
17, 167879, Note_on_c, 14, 62, 0
17, 168240, Note_on_c, 14, 50, 44
17, 168284, Note_on_c, 14, 50, 0
17, 168300, Note_on_c, 14, 53, 46
17, 168344, Note_on_c, 14, 53, 0
17, 168360, Note_on_c, 14, 56, 48
17, 168404, Note_on_c, 14, 56, 0
17, 168420, Note_on_c, 14, 57, 50
17, 168464, Note_on_c, 14, 57, 0
17, 168480, Note_on_c, 14, 57, 52
17, 168599, Note_on_c, 14, 57, 0
17, 168720, Note_on_c, 14, 53, 60
17, 168764, Note_on_c, 14, 53, 0
17, 168780, Note_on_c, 14, 57, 62
17, 168824, Note_on_c, 14, 57, 0
17, 168840, Note_on_c, 14, 61, 64
17, 168884, Note_on_c, 14, 61, 0
17, 168900, Note_on_c, 14, 62, 66
17, 168944, Note_on_c, 14, 62, 0
17, 168960, Note_on_c, 14, 52, 68
17, 169079, Note_on_c, 14, 52, 0
17, 169200, Note_on_c, 14, 52, 62
17, 169244, Note_on_c, 14, 52, 0
17, 169260, Note_on_c, 14, 55, 61
17, 169304, Note_on_c, 14, 55, 0
17, 169320, Note_on_c, 14, 57, 59
17, 169364, Note_on_c, 14, 57, 0
17, 169380, Note_on_c, 14, 61, 58
17, 169424, Note_on_c, 14, 61, 0
17, 169440, Note_on_c, 14, 64, 56
17, 169559, Note_on_c, 14, 64, 0
17, 169680, Note_on_c, 14, 43, 50
17, 169724, Note_on_c, 14, 43, 0
17, 169740, Note_on_c, 14, 49, 49
17, 169784, Note_on_c, 14, 49, 0
17, 169800, Note_on_c, 14, 52, 47
17, 169844, Note_on_c, 14, 52, 0
17, 169860, Note_on_c, 14, 55, 46
17, 169904, Note_on_c, 14, 55, 0
17, 169920, Note_on_c, 14, 53, 44
17, 170039, Note_on_c, 14, 53, 0
17, 171900, Note_on_c, 14, 50, 46
17, 171959, Note_on_c, 14, 50, 0
17, 171960, Note_on_c, 14, 52, 48
17, 172011, Note_on_c, 14, 52, 0
17, 172020, Note_on_c, 14, 54, 50
17, 172079, Note_on_c, 14, 54, 0
17, 172080, Note_on_c, 14, 55, 53
17, 172131, Note_on_c, 14, 55, 0
17, 172140, Note_on_c, 14, 57, 55
17, 172199, Note_on_c, 14, 57, 0
17, 172200, Note_on_c, 14, 58, 57
17, 172251, Note_on_c, 14, 58, 0
17, 172260, Note_on_c, 14, 60, 59
17, 172319, Note_on_c, 14, 60, 0
17, 172320, Note_on_c, 14, 62, 62
17, 172371, Note_on_c, 14, 62, 0
17, 172380, Note_on_c, 14, 64, 64
17, 172439, Note_on_c, 14, 64, 0
17, 172440, Note_on_c, 14, 66, 66
17, 172491, Note_on_c, 14, 66, 0
17, 172500, Note_on_c, 14, 67, 68
17, 172559, Note_on_c, 14, 67, 0
17, 172560, Note_on_c, 14, 69, 71
17, 172611, Note_on_c, 14, 69, 0
17, 172620, Note_on_c, 14, 57, 73
17, 172679, Note_on_c, 14, 57, 0
17, 172680, Note_on_c, 14, 58, 75
17, 172731, Note_on_c, 14, 58, 0
17, 172740, Note_on_c, 14, 60, 77
17, 172799, Note_on_c, 14, 60, 0
17, 172800, Note_on_c, 14, 55, 80
17, 172851, Note_on_c, 14, 55, 0
17, 172860, Note_on_c, 14, 53, 80
17, 172919, Note_on_c, 14, 53, 0
17, 172920, Note_on_c, 14, 52, 80
17, 172971, Note_on_c, 14, 52, 0
17, 172980, Note_on_c, 14, 50, 80
17, 173039, Note_on_c, 14, 50, 0
17, 173040, Note_on_c, 14, 48, 80
17, 173091, Note_on_c, 14, 48, 0
17, 173100, Note_on_c, 14, 46, 80
17, 173159, Note_on_c, 14, 46, 0
17, 173160, Note_on_c, 14, 45, 80
17, 173211, Note_on_c, 14, 45, 0
17, 173220, Note_on_c, 14, 43, 80
17, 173279, Note_on_c, 14, 43, 0
17, 173280, Note_on_c, 14, 45, 80
17, 173399, Note_on_c, 14, 45, 0
17, 173520, Note_on_c, 14, 57, 80
17, 173609, Note_on_c, 14, 57, 0
17, 173760, Note_on_c, 14, 43, 44
17, 173811, Note_on_c, 14, 43, 0
17, 173820, Note_on_c, 14, 45, 45
17, 173879, Note_on_c, 14, 45, 0
17, 173880, Note_on_c, 14, 46, 46
17, 173931, Note_on_c, 14, 46, 0
17, 173940, Note_on_c, 14, 48, 47
17, 173999, Note_on_c, 14, 48, 0
17, 174000, Note_on_c, 14, 50, 48
17, 174051, Note_on_c, 14, 50, 0
17, 174060, Note_on_c, 14, 52, 49
17, 174119, Note_on_c, 14, 52, 0
17, 174120, Note_on_c, 14, 54, 50
17, 174171, Note_on_c, 14, 54, 0
17, 174180, Note_on_c, 14, 55, 51
17, 174239, Note_on_c, 14, 55, 0
17, 174240, Note_on_c, 14, 57, 53
17, 174291, Note_on_c, 14, 57, 0
17, 174300, Note_on_c, 14, 58, 54
17, 174359, Note_on_c, 14, 58, 0
17, 174360, Note_on_c, 14, 60, 55
17, 174411, Note_on_c, 14, 60, 0
17, 174420, Note_on_c, 14, 60, 56
17, 174479, Note_on_c, 14, 60, 0
17, 174480, Note_on_c, 14, 62, 57
17, 174531, Note_on_c, 14, 62, 0
17, 174540, Note_on_c, 14, 62, 58
17, 174599, Note_on_c, 14, 62, 0
17, 174600, Note_on_c, 14, 64, 59
17, 174651, Note_on_c, 14, 64, 0
17, 174660, Note_on_c, 14, 66, 60
17, 174719, Note_on_c, 14, 66, 0
17, 174720, Note_on_c, 14, 67, 62
17, 174771, Note_on_c, 14, 67, 0
17, 174780, Note_on_c, 14, 46, 63
17, 174839, Note_on_c, 14, 46, 0
17, 174840, Note_on_c, 14, 48, 64
17, 174891, Note_on_c, 14, 48, 0
17, 174900, Note_on_c, 14, 50, 65
17, 174959, Note_on_c, 14, 50, 0
17, 174960, Note_on_c, 14, 51, 66
17, 175011, Note_on_c, 14, 51, 0
17, 175020, Note_on_c, 14, 53, 67
17, 175079, Note_on_c, 14, 53, 0
17, 175080, Note_on_c, 14, 55, 68
17, 175131, Note_on_c, 14, 55, 0
17, 175140, Note_on_c, 14, 57, 69
17, 175199, Note_on_c, 14, 57, 0
17, 175200, Note_on_c, 14, 58, 71
17, 175319, Note_on_c, 14, 58, 0
17, 175740, Note_on_c, 14, 55, 80
17, 175799, Note_on_c, 14, 55, 0
17, 175800, Note_on_c, 14, 56, 80
17, 175851, Note_on_c, 14, 56, 0
17, 175860, Note_on_c, 14, 58, 80
17, 175919, Note_on_c, 14, 58, 0
17, 175920, Note_on_c, 14, 60, 80
17, 175971, Note_on_c, 14, 60, 0
17, 175980, Note_on_c, 14, 62, 80
17, 176039, Note_on_c, 14, 62, 0
17, 176040, Note_on_c, 14, 64, 80
17, 176091, Note_on_c, 14, 64, 0
17, 176100, Note_on_c, 14, 65, 80
17, 176159, Note_on_c, 14, 65, 0
17, 176160, Note_on_c, 14, 67, 80
17, 176211, Note_on_c, 14, 67, 0
17, 176220, Note_on_c, 14, 67, 80
17, 176279, Note_on_c, 14, 67, 0
17, 176280, Note_on_c, 14, 69, 80
17, 176331, Note_on_c, 14, 69, 0
17, 176340, Note_on_c, 14, 55, 80
17, 176399, Note_on_c, 14, 55, 0
17, 176400, Note_on_c, 14, 53, 80
17, 176451, Note_on_c, 14, 53, 0
17, 176460, Note_on_c, 14, 52, 80
17, 176519, Note_on_c, 14, 52, 0
17, 176520, Note_on_c, 14, 50, 80
17, 176571, Note_on_c, 14, 50, 0
17, 176580, Note_on_c, 14, 49, 80
17, 176624, Note_on_c, 14, 49, 0
17, 176640, Note_on_c, 14, 53, 92
17, 176729, Note_on_c, 14, 53, 0
17, 176760, Note_on_c, 14, 53, 92
17, 176841, Note_on_c, 14, 53, 0
17, 176850, Note_on_c, 14, 53, 92
17, 176871, Note_on_c, 14, 53, 0
17, 176880, Note_on_c, 14, 54, 92
17, 176999, Note_on_c, 14, 54, 0
17, 177120, Note_on_c, 14, 55, 92
17, 177224, Note_on_c, 14, 55, 0
17, 177240, Note_on_c, 14, 54, 92
17, 177321, Note_on_c, 14, 54, 0
17, 177330, Note_on_c, 14, 54, 92
17, 177351, Note_on_c, 14, 54, 0
17, 177360, Note_on_c, 14, 55, 92
17, 177479, Note_on_c, 14, 55, 0
17, 178560, Note_on_c, 14, 38, 92
17, 178664, Note_on_c, 14, 38, 0
17, 178680, Note_on_c, 14, 37, 92
17, 178761, Note_on_c, 14, 37, 0
17, 178770, Note_on_c, 14, 37, 92
17, 178791, Note_on_c, 14, 37, 0
17, 178800, Note_on_c, 14, 38, 92
17, 178919, Note_on_c, 14, 38, 0
17, 179040, Note_on_c, 14, 39, 92
17, 179144, Note_on_c, 14, 39, 0
17, 179160, Note_on_c, 14, 38, 92
17, 179241, Note_on_c, 14, 38, 0
17, 179250, Note_on_c, 14, 38, 92
17, 179271, Note_on_c, 14, 38, 0
17, 179280, Note_on_c, 14, 39, 92
17, 179399, Note_on_c, 14, 39, 0
17, 180720, Note_on_c, 14, 39, 32
17, 180809, Note_on_c, 14, 39, 0
17, 180840, Note_on_c, 14, 38, 32
17, 180914, Note_on_c, 14, 38, 0
17, 180930, Note_on_c, 14, 38, 32
17, 180951, Note_on_c, 14, 38, 0
17, 180960, Note_on_c, 14, 39, 32
17, 181079, Note_on_c, 14, 39, 0
17, 181200, Note_on_c, 14, 39, 32
17, 181289, Note_on_c, 14, 39, 0
17, 181320, Note_on_c, 14, 38, 32
17, 181394, Note_on_c, 14, 38, 0
17, 181410, Note_on_c, 14, 38, 32
17, 181431, Note_on_c, 14, 38, 0
17, 181440, Note_on_c, 14, 39, 32
17, 181559, Note_on_c, 14, 39, 0
17, 181680, Note_on_c, 14, 39, 32
17, 181769, Note_on_c, 14, 39, 0
17, 181800, Note_on_c, 14, 38, 32
17, 181874, Note_on_c, 14, 38, 0
17, 181890, Note_on_c, 14, 38, 32
17, 181911, Note_on_c, 14, 38, 0
17, 181920, Note_on_c, 14, 39, 32
17, 182009, Note_on_c, 14, 39, 0
17, 182040, Note_on_c, 14, 38, 32
17, 182114, Note_on_c, 14, 38, 0
17, 182130, Note_on_c, 14, 38, 32
17, 182151, Note_on_c, 14, 38, 0
17, 182160, Note_on_c, 14, 39, 32
17, 182249, Note_on_c, 14, 39, 0
17, 182280, Note_on_c, 14, 38, 32
17, 182354, Note_on_c, 14, 38, 0
17, 182370, Note_on_c, 14, 38, 32
17, 182391, Note_on_c, 14, 38, 0
17, 182400, Note_on_c, 14, 46, 32
17, 182519, Note_on_c, 14, 46, 0
17, 182820, Note_on_c, 14, 46, 32
17, 182879, Note_on_c, 14, 46, 0
17, 182880, Note_on_c, 14, 44, 32
17, 182939, Note_on_c, 14, 44, 0
17, 182940, Note_on_c, 14, 43, 32
17, 182999, Note_on_c, 14, 43, 0
17, 183000, Note_on_c, 14, 41, 32
17, 183059, Note_on_c, 14, 41, 0
17, 183060, Note_on_c, 14, 39, 32
17, 183119, Note_on_c, 14, 39, 0
17, 183120, Note_on_c, 14, 38, 32
17, 183179, Note_on_c, 14, 38, 0
17, 183180, Note_on_c, 14, 37, 32
17, 183239, Note_on_c, 14, 37, 0
17, 183240, Note_on_c, 14, 38, 32
17, 183291, Note_on_c, 14, 38, 0
17, 183300, Note_on_c, 14, 38, 32
17, 183411, Note_on_c, 14, 38, 0
17, 183420, Note_on_c, 14, 37, 32
17, 183479, Note_on_c, 14, 37, 0
17, 183480, Note_on_c, 14, 44, 32
17, 183539, Note_on_c, 14, 44, 0
17, 183540, Note_on_c, 14, 45, 32
17, 183599, Note_on_c, 14, 45, 0
17, 183600, Note_on_c, 14, 46, 32
17, 183659, Note_on_c, 14, 46, 0
17, 183660, Note_on_c, 14, 44, 32
17, 183719, Note_on_c, 14, 44, 0
17, 183720, Note_on_c, 14, 45, 32
17, 183779, Note_on_c, 14, 45, 0
17, 183780, Note_on_c, 14, 37, 32
17, 183839, Note_on_c, 14, 37, 0
17, 183840, Note_on_c, 14, 38, 32
17, 183899, Note_on_c, 14, 38, 0
17, 183900, Note_on_c, 14, 48, 32
17, 183959, Note_on_c, 14, 48, 0
17, 183960, Note_on_c, 14, 45, 32
17, 184019, Note_on_c, 14, 45, 0
17, 184020, Note_on_c, 14, 46, 32
17, 184079, Note_on_c, 14, 46, 0
17, 184080, Note_on_c, 14, 50, 32
17, 184139, Note_on_c, 14, 50, 0
17, 184140, Note_on_c, 14, 47, 32
17, 184199, Note_on_c, 14, 47, 0
17, 184200, Note_on_c, 14, 49, 32
17, 184259, Note_on_c, 14, 49, 0
17, 184260, Note_on_c, 14, 40, 32
17, 184311, Note_on_c, 14, 40, 0
17, 184320, Note_on_c, 14, 41, 32
17, 184379, Note_on_c, 14, 41, 0
17, 184380, Note_on_c, 14, 52, 32
17, 184439, Note_on_c, 14, 52, 0
17, 184440, Note_on_c, 14, 49, 32
17, 184499, Note_on_c, 14, 49, 0
17, 184500, Note_on_c, 14, 50, 32
17, 184559, Note_on_c, 14, 50, 0
17, 184560, Note_on_c, 14, 53, 32
17, 184619, Note_on_c, 14, 53, 0
17, 184620, Note_on_c, 14, 50, 32
17, 184679, Note_on_c, 14, 50, 0
17, 184680, Note_on_c, 14, 52, 32
17, 184739, Note_on_c, 14, 52, 0
17, 184740, Note_on_c, 14, 43, 32
17, 184799, Note_on_c, 14, 43, 0
17, 184800, Note_on_c, 14, 55, 32
17, 184859, Note_on_c, 14, 55, 0
17, 184860, Note_on_c, 14, 52, 32
17, 184919, Note_on_c, 14, 52, 0
17, 184920, Note_on_c, 14, 54, 32
17, 184979, Note_on_c, 14, 54, 0
17, 184980, Note_on_c, 14, 45, 32
17, 185039, Note_on_c, 14, 45, 0
17, 185040, Note_on_c, 14, 57, 32
17, 185099, Note_on_c, 14, 57, 0
17, 185100, Note_on_c, 14, 54, 32
17, 185159, Note_on_c, 14, 54, 0
17, 185160, Note_on_c, 14, 55, 32
17, 185219, Note_on_c, 14, 55, 0
17, 185220, Note_on_c, 14, 46, 32
17, 185271, Note_on_c, 14, 46, 0
17, 185400, Note_on_c, 14, 37, 32
17, 185639, Note_on_c, 14, 37, 0
17, 185640, Note_on_c, 14, 43, 32
17, 185759, Note_on_c, 14, 43, 0
17, 185880, Note_on_c, 14, 43, 32
17, 186119, Note_on_c, 14, 43, 0
17, 186120, Note_on_c, 14, 49, 32
17, 186239, Note_on_c, 14, 49, 0
17, 186360, Note_on_c, 14, 54, 32
17, 186599, Note_on_c, 14, 54, 0
17, 186600, Note_on_c, 14, 62, 32
17, 186719, Note_on_c, 14, 62, 0
17, 186840, Note_on_c, 14, 62, 32
17, 187079, Note_on_c, 14, 62, 0
17, 187080, Note_on_c, 14, 66, 32
17, 187199, Note_on_c, 14, 66, 0
17, 187320, Note_on_c, 14, 37, 33
17, 187559, Note_on_c, 14, 37, 0
17, 187560, Note_on_c, 14, 43, 35
17, 187679, Note_on_c, 14, 43, 0
17, 187800, Note_on_c, 14, 43, 38
17, 188039, Note_on_c, 14, 43, 0
17, 188040, Note_on_c, 14, 49, 40
17, 188159, Note_on_c, 14, 49, 0
17, 188280, Note_on_c, 14, 54, 42
17, 188519, Note_on_c, 14, 54, 0
17, 188520, Note_on_c, 14, 62, 45
17, 188639, Note_on_c, 14, 62, 0
17, 188760, Note_on_c, 14, 62, 47
17, 188999, Note_on_c, 14, 62, 0
17, 189000, Note_on_c, 14, 66, 50
17, 189119, Note_on_c, 14, 66, 0
17, 189240, Note_on_c, 14, 37, 52
17, 189299, Note_on_c, 14, 37, 0
17, 189300, Note_on_c, 14, 43, 53
17, 189359, Note_on_c, 14, 43, 0
17, 189480, Note_on_c, 14, 43, 54
17, 189539, Note_on_c, 14, 43, 0
17, 189540, Note_on_c, 14, 49, 55
17, 189599, Note_on_c, 14, 49, 0
17, 189720, Note_on_c, 14, 54, 57
17, 189779, Note_on_c, 14, 54, 0
17, 189780, Note_on_c, 14, 62, 57
17, 189839, Note_on_c, 14, 62, 0
17, 189960, Note_on_c, 14, 62, 59
17, 190019, Note_on_c, 14, 62, 0
17, 190020, Note_on_c, 14, 66, 60
17, 190079, Note_on_c, 14, 66, 0
17, 190200, Note_on_c, 14, 37, 62
17, 190259, Note_on_c, 14, 37, 0
17, 190260, Note_on_c, 14, 43, 62
17, 190319, Note_on_c, 14, 43, 0
17, 190440, Note_on_c, 14, 43, 64
17, 190499, Note_on_c, 14, 43, 0
17, 190500, Note_on_c, 14, 49, 65
17, 190559, Note_on_c, 14, 49, 0
17, 190680, Note_on_c, 14, 53, 66
17, 190739, Note_on_c, 14, 53, 0
17, 190740, Note_on_c, 14, 62, 67
17, 190799, Note_on_c, 14, 62, 0
17, 190920, Note_on_c, 14, 62, 69
17, 190979, Note_on_c, 14, 62, 0
17, 190980, Note_on_c, 14, 65, 69
17, 191031, Note_on_c, 14, 65, 0
17, 191040, Note_on_c, 14, 57, 70
17, 191099, Note_on_c, 14, 57, 0
17, 191100, Note_on_c, 14, 67, 71
17, 191159, Note_on_c, 14, 67, 0
17, 191160, Note_on_c, 14, 57, 71
17, 191219, Note_on_c, 14, 57, 0
17, 191220, Note_on_c, 14, 67, 72
17, 191279, Note_on_c, 14, 67, 0
17, 191280, Note_on_c, 14, 57, 72
17, 191339, Note_on_c, 14, 57, 0
17, 191340, Note_on_c, 14, 67, 73
17, 191399, Note_on_c, 14, 67, 0
17, 191400, Note_on_c, 14, 57, 74
17, 191459, Note_on_c, 14, 57, 0
17, 191460, Note_on_c, 14, 65, 74
17, 191511, Note_on_c, 14, 65, 0
17, 191520, Note_on_c, 14, 57, 75
17, 191579, Note_on_c, 14, 57, 0
17, 191580, Note_on_c, 14, 67, 75
17, 191639, Note_on_c, 14, 67, 0
17, 191640, Note_on_c, 14, 57, 76
17, 191699, Note_on_c, 14, 57, 0
17, 191700, Note_on_c, 14, 64, 77
17, 191759, Note_on_c, 14, 64, 0
17, 191760, Note_on_c, 14, 57, 77
17, 191819, Note_on_c, 14, 57, 0
17, 191820, Note_on_c, 14, 61, 78
17, 191879, Note_on_c, 14, 61, 0
17, 191880, Note_on_c, 14, 57, 78
17, 191939, Note_on_c, 14, 57, 0
17, 191940, Note_on_c, 14, 62, 79
17, 191991, Note_on_c, 14, 62, 0
17, 192000, Note_on_c, 14, 50, 80
17, 192051, Note_on_c, 14, 50, 0
17, 192060, Note_on_c, 14, 52, 80
17, 192104, Note_on_c, 14, 52, 0
17, 192120, Note_on_c, 14, 67, 92
17, 192179, Note_on_c, 14, 67, 0
17, 192180, Note_on_c, 14, 67, 80
17, 192344, Note_on_c, 14, 67, 0
17, 192360, Note_on_c, 14, 52, 80
17, 192524, Note_on_c, 14, 52, 0
17, 192540, Note_on_c, 14, 53, 80
17, 192584, Note_on_c, 14, 53, 0
17, 192600, Note_on_c, 14, 69, 92
17, 192659, Note_on_c, 14, 69, 0
17, 192660, Note_on_c, 14, 69, 80
17, 192824, Note_on_c, 14, 69, 0
17, 192840, Note_on_c, 14, 41, 80
17, 193004, Note_on_c, 14, 41, 0
17, 193020, Note_on_c, 14, 43, 80
17, 193064, Note_on_c, 14, 43, 0
17, 193080, Note_on_c, 14, 58, 92
17, 193139, Note_on_c, 14, 58, 0
17, 193140, Note_on_c, 14, 58, 80
17, 193304, Note_on_c, 14, 58, 0
17, 193320, Note_on_c, 14, 43, 80
17, 193484, Note_on_c, 14, 43, 0
17, 193500, Note_on_c, 14, 45, 80
17, 193544, Note_on_c, 14, 45, 0
17, 193560, Note_on_c, 14, 60, 92
17, 193619, Note_on_c, 14, 60, 0
17, 193620, Note_on_c, 14, 60, 80
17, 193784, Note_on_c, 14, 60, 0
17, 193800, Note_on_c, 14, 45, 80
17, 193964, Note_on_c, 14, 45, 0
17, 193980, Note_on_c, 14, 46, 80
17, 194024, Note_on_c, 14, 46, 0
17, 194040, Note_on_c, 14, 62, 92
17, 194099, Note_on_c, 14, 62, 0
17, 194100, Note_on_c, 14, 62, 80
17, 194264, Note_on_c, 14, 62, 0
17, 194280, Note_on_c, 14, 47, 80
17, 194444, Note_on_c, 14, 47, 0
17, 194460, Note_on_c, 14, 49, 80
17, 194504, Note_on_c, 14, 49, 0
17, 194520, Note_on_c, 14, 64, 92
17, 194624, Note_on_c, 14, 64, 0
17, 194640, Note_on_c, 14, 67, 80
17, 194804, Note_on_c, 14, 67, 0
17, 194820, Note_on_c, 14, 55, 80
17, 194871, Note_on_c, 14, 55, 0
17, 194880, Note_on_c, 14, 53, 92
17, 194984, Note_on_c, 14, 53, 0
17, 195000, Note_on_c, 14, 41, 44
17, 195119, Note_on_c, 14, 41, 0
17, 195720, Note_on_c, 14, 53, 92
17, 195801, Note_on_c, 14, 53, 0
17, 195810, Note_on_c, 14, 53, 92
17, 195831, Note_on_c, 14, 53, 0
17, 195840, Note_on_c, 14, 55, 92
17, 195929, Note_on_c, 14, 55, 0
17, 195960, Note_on_c, 14, 43, 44
17, 196049, Note_on_c, 14, 43, 0
17, 196680, Note_on_c, 14, 55, 92
17, 196761, Note_on_c, 14, 55, 0
17, 196770, Note_on_c, 14, 55, 92
17, 196791, Note_on_c, 14, 55, 0
17, 196800, Note_on_c, 14, 57, 92
17, 196889, Note_on_c, 14, 57, 0
17, 196920, Note_on_c, 14, 45, 44
17, 197009, Note_on_c, 14, 45, 0
17, 197640, Note_on_c, 14, 57, 92
17, 197721, Note_on_c, 14, 57, 0
17, 197730, Note_on_c, 14, 57, 92
17, 197751, Note_on_c, 14, 57, 0
17, 197760, Note_on_c, 14, 58, 92
17, 197849, Note_on_c, 14, 58, 0
17, 197880, Note_on_c, 14, 46, 44
17, 197969, Note_on_c, 14, 46, 0
17, 199560, Note_on_c, 14, 61, 92
17, 199664, Note_on_c, 14, 61, 0
17, 199680, Note_on_c, 14, 62, 80
17, 199799, Note_on_c, 14, 62, 0
17, 199800, Note_on_c, 14, 63, 80
17, 199859, Note_on_c, 14, 63, 0
17, 199920, Note_on_c, 14, 61, 80
17, 200039, Note_on_c, 14, 61, 0
17, 200040, Note_on_c, 14, 62, 80
17, 200099, Note_on_c, 14, 62, 0
17, 200160, Note_on_c, 14, 62, 80
17, 200279, Note_on_c, 14, 62, 0
17, 200280, Note_on_c, 14, 63, 80
17, 200339, Note_on_c, 14, 63, 0
17, 200400, Note_on_c, 14, 65, 92
17, 200419, Note_on_c, 14, 65, 0
17, 200420, Note_on_c, 14, 67, 92
17, 200439, Note_on_c, 14, 67, 0
17, 200440, Note_on_c, 14, 65, 92
17, 200459, Note_on_c, 14, 65, 0
17, 200460, Note_on_c, 14, 67, 92
17, 200472, Note_on_c, 14, 67, 0
17, 200474, Note_on_c, 14, 65, 92
17, 200487, Note_on_c, 14, 65, 0
17, 200487, Note_on_c, 14, 64, 92
17, 200499, Note_on_c, 14, 64, 0
17, 200500, Note_on_c, 14, 65, 92
17, 200519, Note_on_c, 14, 65, 0
17, 200520, Note_on_c, 14, 67, 92
17, 200579, Note_on_c, 14, 67, 0
17, 200580, Note_on_c, 14, 64, 92
17, 200631, Note_on_c, 14, 64, 0
17, 200640, Note_on_c, 14, 50, 92
17, 200984, Note_on_c, 14, 50, 0
17, 201000, Note_on_c, 14, 50, 92
17, 201081, Note_on_c, 14, 50, 0
17, 201090, Note_on_c, 14, 50, 92
17, 201111, Note_on_c, 14, 50, 0
17, 201120, Note_on_c, 14, 53, 104
17, 201179, Note_on_c, 14, 53, 0
17, 201180, Note_on_c, 14, 53, 92
17, 201464, Note_on_c, 14, 53, 0
17, 201480, Note_on_c, 14, 53, 92
17, 201561, Note_on_c, 14, 53, 0
17, 201570, Note_on_c, 14, 53, 92
17, 201591, Note_on_c, 14, 53, 0
17, 201600, Note_on_c, 14, 57, 104
17, 201659, Note_on_c, 14, 57, 0
17, 201660, Note_on_c, 14, 57, 92
17, 201944, Note_on_c, 14, 57, 0
17, 201960, Note_on_c, 14, 57, 92
17, 202041, Note_on_c, 14, 57, 0
17, 202050, Note_on_c, 14, 57, 92
17, 202071, Note_on_c, 14, 57, 0
17, 202080, Note_on_c, 14, 62, 92
17, 202184, Note_on_c, 14, 62, 0
17, 202200, Note_on_c, 14, 62, 92
17, 202281, Note_on_c, 14, 62, 0
17, 202290, Note_on_c, 14, 62, 92
17, 202311, Note_on_c, 14, 62, 0
17, 202320, Note_on_c, 14, 65, 92
17, 202424, Note_on_c, 14, 65, 0
17, 202440, Note_on_c, 14, 65, 92
17, 202521, Note_on_c, 14, 65, 0
17, 202530, Note_on_c, 14, 65, 92
17, 202551, Note_on_c, 14, 65, 0
17, 202560, Note_on_c, 14, 69, 80
17, 202649, Note_on_c, 14, 69, 0
17, 202680, Note_on_c, 14, 62, 80
17, 202761, Note_on_c, 14, 62, 0
17, 202770, Note_on_c, 14, 62, 80
17, 202791, Note_on_c, 14, 62, 0
17, 202800, Note_on_c, 14, 65, 80
17, 202889, Note_on_c, 14, 65, 0
17, 202920, Note_on_c, 14, 57, 80
17, 203001, Note_on_c, 14, 57, 0
17, 203010, Note_on_c, 14, 57, 80
17, 203031, Note_on_c, 14, 57, 0
17, 203040, Note_on_c, 14, 62, 80
17, 203129, Note_on_c, 14, 62, 0
17, 203160, Note_on_c, 14, 53, 80
17, 203241, Note_on_c, 14, 53, 0
17, 203250, Note_on_c, 14, 53, 80
17, 203271, Note_on_c, 14, 53, 0
17, 203280, Note_on_c, 14, 57, 80
17, 203369, Note_on_c, 14, 57, 0
17, 203400, Note_on_c, 14, 50, 80
17, 203481, Note_on_c, 14, 50, 0
17, 203490, Note_on_c, 14, 50, 80
17, 203511, Note_on_c, 14, 50, 0
17, 203520, Note_on_c, 14, 53, 80
17, 203609, Note_on_c, 14, 53, 0
17, 203640, Note_on_c, 14, 45, 80
17, 203721, Note_on_c, 14, 45, 0
17, 203730, Note_on_c, 14, 45, 80
17, 203751, Note_on_c, 14, 45, 0
17, 203760, Note_on_c, 14, 50, 80
17, 203849, Note_on_c, 14, 50, 0
17, 203880, Note_on_c, 14, 41, 80
17, 203961, Note_on_c, 14, 41, 0
17, 203970, Note_on_c, 14, 41, 80
17, 203991, Note_on_c, 14, 41, 0
17, 204000, Note_on_c, 14, 45, 80
17, 204089, Note_on_c, 14, 45, 0
17, 204120, Note_on_c, 14, 38, 80
17, 204201, Note_on_c, 14, 38, 0
17, 204210, Note_on_c, 14, 38, 80
17, 204231, Note_on_c, 14, 38, 0
17, 204240, Note_on_c, 14, 62, 80
17, 204329, Note_on_c, 14, 62, 0
17, 204360, Note_on_c, 14, 38, 80
17, 204441, Note_on_c, 14, 38, 0
17, 204450, Note_on_c, 14, 38, 53
17, 204471, Note_on_c, 14, 38, 0
17, 204480, Note_on_c, 14, 50, 44
17, 204584, Note_on_c, 14, 50, 0
17, 204600, Note_on_c, 14, 50, 44
17, 204719, Note_on_c, 14, 50, 0
17, 204838, Program_c, 14, 45
17, 204840, Note_on_c, 14, 53, 38
17, 204959, Note_on_c, 14, 53, 0
17, 205080, Note_on_c, 14, 57, 38
17, 205199, Note_on_c, 14, 57, 0
17, 205320, Note_on_c, 14, 62, 38
17, 205439, Note_on_c, 14, 62, 0
17, 205560, Note_on_c, 14, 65, 38
17, 205679, Note_on_c, 14, 65, 0
17, 205800, Note_on_c, 14, 69, 38
17, 205919, Note_on_c, 14, 69, 0
17, 206040, Note_on_c, 14, 69, 38
17, 206159, Note_on_c, 14, 69, 0
17, 206280, Note_on_c, 14, 69, 38
17, 206399, Note_on_c, 14, 69, 0
17, 206520, Note_on_c, 14, 52, 38
17, 206639, Note_on_c, 14, 52, 0
17, 206760, Note_on_c, 14, 55, 38
17, 206879, Note_on_c, 14, 55, 0
17, 207000, Note_on_c, 14, 58, 38
17, 207119, Note_on_c, 14, 58, 0
17, 207240, Note_on_c, 14, 61, 38
17, 207359, Note_on_c, 14, 61, 0
17, 207480, Note_on_c, 14, 64, 38
17, 207599, Note_on_c, 14, 64, 0
17, 207720, Note_on_c, 14, 67, 38
17, 207839, Note_on_c, 14, 67, 0
17, 207960, Note_on_c, 14, 69, 38
17, 208079, Note_on_c, 14, 69, 0
17, 208200, Note_on_c, 14, 50, 38
17, 208319, Note_on_c, 14, 50, 0
17, 208440, Note_on_c, 14, 42, 38
17, 208559, Note_on_c, 14, 42, 0
17, 208680, Note_on_c, 14, 45, 38
17, 208799, Note_on_c, 14, 45, 0
17, 208920, Note_on_c, 14, 48, 38
17, 209039, Note_on_c, 14, 48, 0
17, 209160, Note_on_c, 14, 51, 38
17, 209279, Note_on_c, 14, 51, 0
17, 209400, Note_on_c, 14, 57, 38
17, 209519, Note_on_c, 14, 57, 0
17, 209640, Note_on_c, 14, 60, 38
17, 209759, Note_on_c, 14, 60, 0
17, 209880, Note_on_c, 14, 63, 38
17, 209999, Note_on_c, 14, 63, 0
17, 210120, Note_on_c, 14, 66, 38
17, 210239, Note_on_c, 14, 66, 0
17, 210360, Note_on_c, 14, 42, 38
17, 210479, Note_on_c, 14, 42, 0
17, 210600, Note_on_c, 14, 45, 40
17, 210719, Note_on_c, 14, 45, 0
17, 210840, Note_on_c, 14, 50, 42
17, 210959, Note_on_c, 14, 50, 0
17, 211080, Note_on_c, 14, 55, 44
17, 211199, Note_on_c, 14, 55, 0
17, 211320, Note_on_c, 14, 47, 45
17, 211439, Note_on_c, 14, 47, 0
17, 211560, Note_on_c, 14, 50, 47
17, 211679, Note_on_c, 14, 50, 0
17, 211800, Note_on_c, 14, 55, 49
17, 211919, Note_on_c, 14, 55, 0
17, 211920, Note_on_c, 14, 58, 50
17, 212039, Note_on_c, 14, 58, 0
17, 212040, Note_on_c, 14, 48, 50
17, 212159, Note_on_c, 14, 48, 0
17, 212280, Note_on_c, 14, 48, 52
17, 212399, Note_on_c, 14, 48, 0
17, 212520, Note_on_c, 14, 52, 54
17, 212639, Note_on_c, 14, 52, 0
17, 212760, Note_on_c, 14, 55, 56
17, 212879, Note_on_c, 14, 55, 0
17, 213000, Note_on_c, 14, 58, 57
17, 213119, Note_on_c, 14, 58, 0
17, 213240, Note_on_c, 14, 49, 59
17, 213359, Note_on_c, 14, 49, 0
17, 213480, Note_on_c, 14, 52, 61
17, 213599, Note_on_c, 14, 52, 0
17, 213720, Note_on_c, 14, 55, 62
17, 213839, Note_on_c, 14, 55, 0
17, 213960, Note_on_c, 14, 58, 64
17, 214079, Note_on_c, 14, 58, 0
17, 214200, Note_on_c, 14, 52, 66
17, 214319, Note_on_c, 14, 52, 0
17, 214440, Note_on_c, 14, 55, 68
17, 214559, Note_on_c, 14, 55, 0
17, 214680, Note_on_c, 14, 58, 69
17, 214799, Note_on_c, 14, 58, 0
17, 214920, Note_on_c, 14, 61, 71
17, 215039, Note_on_c, 14, 61, 0
17, 215160, Note_on_c, 14, 55, 73
17, 215279, Note_on_c, 14, 55, 0
17, 215400, Note_on_c, 14, 58, 74
17, 215519, Note_on_c, 14, 58, 0
17, 215640, Note_on_c, 14, 61, 76
17, 215759, Note_on_c, 14, 61, 0
17, 215880, Note_on_c, 14, 64, 78
17, 215999, Note_on_c, 14, 64, 0
17, 216120, Note_on_c, 14, 58, 80
17, 216239, Note_on_c, 14, 58, 0
17, 216360, Note_on_c, 14, 61, 81
17, 216479, Note_on_c, 14, 61, 0
17, 216600, Note_on_c, 14, 64, 83
17, 216719, Note_on_c, 14, 64, 0
17, 216840, Note_on_c, 14, 67, 85
17, 216944, Note_on_c, 14, 67, 0
17, 216958, Program_c, 14, 48
17, 216960, Note_on_c, 14, 57, 92
17, 217064, Note_on_c, 14, 57, 0
17, 217080, Note_on_c, 14, 59, 92
17, 217319, Note_on_c, 14, 59, 0
17, 217320, Note_on_c, 14, 61, 92
17, 217379, Note_on_c, 14, 61, 0
17, 217380, Note_on_c, 14, 62, 92
17, 217439, Note_on_c, 14, 62, 0
17, 217440, Note_on_c, 14, 64, 92
17, 217491, Note_on_c, 14, 64, 0
17, 217500, Note_on_c, 14, 65, 92
17, 217559, Note_on_c, 14, 65, 0
17, 217560, Note_on_c, 14, 67, 92
17, 217611, Note_on_c, 14, 67, 0
17, 217620, Note_on_c, 14, 69, 92
17, 217731, Note_on_c, 14, 69, 0
17, 217740, Note_on_c, 14, 55, 92
17, 217799, Note_on_c, 14, 55, 0
17, 217800, Note_on_c, 14, 53, 92
17, 217851, Note_on_c, 14, 53, 0
17, 217860, Note_on_c, 14, 52, 92
17, 217919, Note_on_c, 14, 52, 0
17, 217920, Note_on_c, 14, 62, 92
17, 217971, Note_on_c, 14, 62, 0
17, 217980, Note_on_c, 14, 60, 92
17, 218039, Note_on_c, 14, 60, 0
17, 218040, Note_on_c, 14, 58, 92
17, 218091, Note_on_c, 14, 58, 0
17, 218100, Note_on_c, 14, 57, 92
17, 218159, Note_on_c, 14, 57, 0
17, 218160, Note_on_c, 14, 55, 92
17, 218211, Note_on_c, 14, 55, 0
17, 218220, Note_on_c, 14, 53, 92
17, 218279, Note_on_c, 14, 53, 0
17, 218280, Note_on_c, 14, 52, 92
17, 218331, Note_on_c, 14, 52, 0
17, 218340, Note_on_c, 14, 50, 92
17, 218391, Note_on_c, 14, 50, 0
17, 218400, Note_on_c, 14, 55, 92
17, 218519, Note_on_c, 14, 55, 0
17, 218640, Note_on_c, 14, 58, 92
17, 218744, Note_on_c, 14, 58, 0
17, 218760, Note_on_c, 14, 57, 92
17, 218864, Note_on_c, 14, 57, 0
17, 218878, Control_c, 14, 11, 67
17, 218880, Note_on_c, 14, 41, 80
17, 218880, Control_c, 14, 11, 67
17, 218928, Control_c, 14, 11, 68
17, 218976, Control_c, 14, 11, 69
17, 219024, Control_c, 14, 11, 70
17, 219072, Control_c, 14, 11, 71
17, 219120, Control_c, 14, 11, 72
17, 219168, Control_c, 14, 11, 73
17, 219216, Control_c, 14, 11, 74
17, 219239, Note_on_c, 14, 41, 0
17, 219240, Note_on_c, 14, 65, 80
17, 219264, Control_c, 14, 11, 75
17, 219312, Control_c, 14, 11, 76
17, 219359, Note_on_c, 14, 65, 0
17, 219360, Control_c, 14, 11, 77
17, 219360, Note_on_c, 14, 64, 80
17, 219408, Control_c, 14, 11, 78
17, 219411, Note_on_c, 14, 64, 0
17, 219420, Note_on_c, 14, 62, 80
17, 219456, Control_c, 14, 11, 79
17, 219479, Note_on_c, 14, 62, 0
17, 219480, Note_on_c, 14, 61, 80
17, 219504, Control_c, 14, 11, 80
17, 219531, Note_on_c, 14, 61, 0
17, 219540, Note_on_c, 14, 58, 80
17, 219552, Control_c, 14, 11, 81
17, 219599, Note_on_c, 14, 58, 0
17, 219600, Control_c, 14, 11, 82
17, 219600, Note_on_c, 14, 57, 80
17, 219648, Control_c, 14, 11, 83
17, 219651, Note_on_c, 14, 57, 0
17, 219660, Note_on_c, 14, 55, 80
17, 219696, Control_c, 14, 11, 84
17, 219719, Note_on_c, 14, 55, 0
17, 219720, Note_on_c, 14, 53, 80
17, 219744, Control_c, 14, 11, 85
17, 219771, Note_on_c, 14, 53, 0
17, 219780, Note_on_c, 14, 52, 80
17, 219792, Control_c, 14, 11, 86
17, 219839, Note_on_c, 14, 52, 0
17, 219840, Control_c, 14, 11, 87
17, 219840, Note_on_c, 14, 50, 80
17, 219888, Control_c, 14, 11, 88
17, 219936, Control_c, 14, 11, 89
17, 219959, Note_on_c, 14, 50, 0
17, 219984, Control_c, 14, 11, 90
17, 220032, Control_c, 14, 11, 91
17, 220752, Control_c, 14, 11, 106
17, 220800, Note_on_c, 14, 46, 80
17, 220800, Control_c, 14, 11, 107
17, 220848, Control_c, 14, 11, 108
17, 220896, Control_c, 14, 11, 109
17, 220944, Control_c, 14, 11, 110
17, 220992, Control_c, 14, 11, 111
17, 221040, Control_c, 14, 11, 112
17, 221088, Control_c, 14, 11, 113
17, 221136, Control_c, 14, 11, 114
17, 221159, Note_on_c, 14, 46, 0
17, 221160, Note_on_c, 14, 58, 80
17, 221184, Control_c, 14, 11, 115
17, 221232, Control_c, 14, 11, 116
17, 221279, Note_on_c, 14, 58, 0
17, 221280, Control_c, 14, 11, 117
17, 221280, Note_on_c, 14, 57, 80
17, 221328, Control_c, 14, 11, 118
17, 221331, Note_on_c, 14, 57, 0
17, 221340, Note_on_c, 14, 55, 80
17, 221376, Control_c, 14, 11, 119
17, 221399, Note_on_c, 14, 55, 0
17, 221400, Note_on_c, 14, 54, 80
17, 221424, Control_c, 14, 11, 120
17, 221451, Note_on_c, 14, 54, 0
17, 221460, Note_on_c, 14, 51, 80
17, 221472, Control_c, 14, 11, 121
17, 221519, Note_on_c, 14, 51, 0
17, 221520, Note_on_c, 14, 50, 80
17, 221520, Control_c, 14, 11, 122
17, 221568, Control_c, 14, 11, 123
17, 221571, Note_on_c, 14, 50, 0
17, 221580, Note_on_c, 14, 48, 80
17, 221616, Control_c, 14, 11, 124
17, 221639, Note_on_c, 14, 48, 0
17, 221640, Note_on_c, 14, 46, 80
17, 221664, Control_c, 14, 11, 125
17, 221691, Note_on_c, 14, 46, 0
17, 221700, Note_on_c, 14, 45, 80
17, 221712, Control_c, 14, 11, 127
17, 221751, Note_on_c, 14, 45, 0
17, 221760, Note_on_c, 14, 43, 80
17, 221864, Note_on_c, 14, 43, 0
17, 221880, Note_on_c, 14, 55, 80
17, 222104, Note_on_c, 14, 55, 0
17, 222120, Note_on_c, 14, 54, 80
17, 222201, Note_on_c, 14, 54, 0
17, 222210, Note_on_c, 14, 54, 80
17, 222231, Note_on_c, 14, 54, 0
17, 222240, Note_on_c, 14, 54, 80
17, 222344, Note_on_c, 14, 54, 0
17, 222360, Note_on_c, 14, 55, 80
17, 222584, Note_on_c, 14, 55, 0
17, 222600, Note_on_c, 14, 55, 80
17, 222681, Note_on_c, 14, 55, 0
17, 222690, Note_on_c, 14, 55, 80
17, 222711, Note_on_c, 14, 55, 0
17, 222720, Note_on_c, 14, 55, 80
17, 222824, Note_on_c, 14, 55, 0
17, 222840, Note_on_c, 14, 57, 80
17, 223064, Note_on_c, 14, 57, 0
17, 223080, Note_on_c, 14, 56, 80
17, 223161, Note_on_c, 14, 56, 0
17, 223170, Note_on_c, 14, 56, 80
17, 223191, Note_on_c, 14, 56, 0
17, 223200, Note_on_c, 14, 56, 80
17, 223304, Note_on_c, 14, 56, 0
17, 223320, Note_on_c, 14, 57, 80
17, 223544, Note_on_c, 14, 57, 0
17, 223560, Note_on_c, 14, 57, 80
17, 223641, Note_on_c, 14, 57, 0
17, 223650, Note_on_c, 14, 57, 80
17, 223671, Note_on_c, 14, 57, 0
17, 223680, Note_on_c, 14, 57, 80
17, 223784, Note_on_c, 14, 57, 0
17, 223800, Note_on_c, 14, 58, 80
17, 223881, Note_on_c, 14, 58, 0
17, 223890, Note_on_c, 14, 58, 80
17, 223911, Note_on_c, 14, 58, 0
17, 223920, Note_on_c, 14, 58, 80
17, 224024, Note_on_c, 14, 58, 0
17, 224040, Note_on_c, 14, 59, 80
17, 224121, Note_on_c, 14, 59, 0
17, 224130, Note_on_c, 14, 59, 80
17, 224151, Note_on_c, 14, 59, 0
17, 224160, Note_on_c, 14, 59, 80
17, 224264, Note_on_c, 14, 59, 0
17, 224280, Note_on_c, 14, 60, 80
17, 224361, Note_on_c, 14, 60, 0
17, 224370, Note_on_c, 14, 60, 80
17, 224391, Note_on_c, 14, 60, 0
17, 224400, Note_on_c, 14, 61, 80
17, 224504, Note_on_c, 14, 61, 0
17, 224520, Note_on_c, 14, 57, 80
17, 224601, Note_on_c, 14, 57, 0
17, 224610, Note_on_c, 14, 57, 80
17, 224631, Note_on_c, 14, 57, 0
17, 224640, Note_on_c, 14, 57, 44
17, 225119, Note_on_c, 14, 57, 0
17, 225120, Note_on_c, 14, 57, 44
17, 225599, Note_on_c, 14, 57, 0
17, 225600, Note_on_c, 14, 57, 44
17, 226079, Note_on_c, 14, 57, 0
17, 226080, Note_on_c, 14, 57, 44
17, 226559, Note_on_c, 14, 57, 0
17, 226560, Note_on_c, 14, 57, 44
17, 227039, Note_on_c, 14, 57, 0
17, 227040, Note_on_c, 14, 57, 44
17, 227519, Note_on_c, 14, 57, 0
17, 227520, Note_on_c, 14, 57, 44
17, 227999, Note_on_c, 14, 57, 0
17, 228000, Note_on_c, 14, 57, 44
17, 228464, Note_on_c, 14, 57, 0
17, 228480, Note_on_c, 14, 50, 44
17, 228771, Note_on_c, 14, 50, 0
17, 228780, Note_on_c, 14, 53, 44
17, 228824, Note_on_c, 14, 53, 0
17, 228840, Note_on_c, 14, 52, 44
17, 228884, Note_on_c, 14, 52, 0
17, 228900, Note_on_c, 14, 50, 44
17, 228944, Note_on_c, 14, 50, 0
17, 228960, Note_on_c, 14, 57, 44
17, 229049, Note_on_c, 14, 57, 0
17, 229080, Note_on_c, 14, 55, 44
17, 229169, Note_on_c, 14, 55, 0
17, 229200, Note_on_c, 14, 52, 44
17, 229289, Note_on_c, 14, 52, 0
17, 229320, Note_on_c, 14, 57, 44
17, 229439, Note_on_c, 14, 57, 0
17, 229440, Note_on_c, 14, 57, 44
17, 229559, Note_on_c, 14, 57, 0
17, 229560, Note_on_c, 14, 53, 44
17, 229649, Note_on_c, 14, 53, 0
17, 229680, Note_on_c, 14, 50, 44
17, 229769, Note_on_c, 14, 50, 0
17, 229800, Note_on_c, 14, 57, 44
17, 229919, Note_on_c, 14, 57, 0
17, 229920, Note_on_c, 14, 57, 44
17, 230024, Note_on_c, 14, 57, 0
17, 230040, Note_on_c, 14, 52, 44
17, 230129, Note_on_c, 14, 52, 0
17, 230160, Note_on_c, 14, 49, 44
17, 230249, Note_on_c, 14, 49, 0
17, 230280, Note_on_c, 14, 57, 44
17, 230399, Note_on_c, 14, 57, 0
17, 230400, Note_on_c, 14, 57, 44
17, 230504, Note_on_c, 14, 57, 0
17, 230520, Note_on_c, 14, 53, 45
17, 230609, Note_on_c, 14, 53, 0
17, 230640, Note_on_c, 14, 50, 46
17, 230729, Note_on_c, 14, 50, 0
17, 230760, Note_on_c, 14, 57, 47
17, 230879, Note_on_c, 14, 57, 0
17, 230880, Note_on_c, 14, 57, 48
17, 230984, Note_on_c, 14, 57, 0
17, 231000, Note_on_c, 14, 55, 49
17, 231089, Note_on_c, 14, 55, 0
17, 231120, Note_on_c, 14, 52, 50
17, 231209, Note_on_c, 14, 52, 0
17, 231240, Note_on_c, 14, 57, 52
17, 231359, Note_on_c, 14, 57, 0
17, 231360, Note_on_c, 14, 57, 53
17, 231464, Note_on_c, 14, 57, 0
17, 231480, Note_on_c, 14, 53, 54
17, 231569, Note_on_c, 14, 53, 0
17, 231600, Note_on_c, 14, 50, 55
17, 231689, Note_on_c, 14, 50, 0
17, 231720, Note_on_c, 14, 57, 56
17, 231839, Note_on_c, 14, 57, 0
17, 231840, Note_on_c, 14, 57, 57
17, 231944, Note_on_c, 14, 57, 0
17, 231960, Note_on_c, 14, 53, 59
17, 232049, Note_on_c, 14, 53, 0
17, 232080, Note_on_c, 14, 50, 60
17, 232169, Note_on_c, 14, 50, 0
17, 232200, Note_on_c, 14, 58, 61
17, 232319, Note_on_c, 14, 58, 0
17, 232320, Note_on_c, 14, 58, 62
17, 232424, Note_on_c, 14, 58, 0
17, 232440, Note_on_c, 14, 55, 63
17, 232529, Note_on_c, 14, 55, 0
17, 232560, Note_on_c, 14, 52, 64
17, 232649, Note_on_c, 14, 52, 0
17, 232680, Note_on_c, 14, 61, 66
17, 232799, Note_on_c, 14, 61, 0
17, 232800, Note_on_c, 14, 61, 67
17, 232904, Note_on_c, 14, 61, 0
17, 232920, Note_on_c, 14, 57, 68
17, 233009, Note_on_c, 14, 57, 0
17, 233040, Note_on_c, 14, 53, 69
17, 233129, Note_on_c, 14, 53, 0
17, 233160, Note_on_c, 14, 62, 70
17, 233279, Note_on_c, 14, 62, 0
17, 233280, Note_on_c, 14, 50, 71
17, 233384, Note_on_c, 14, 50, 0
17, 233400, Note_on_c, 14, 46, 73
17, 233489, Note_on_c, 14, 46, 0
17, 233520, Note_on_c, 14, 43, 74
17, 233609, Note_on_c, 14, 43, 0
17, 233640, Note_on_c, 14, 51, 75
17, 233759, Note_on_c, 14, 51, 0
17, 233760, Note_on_c, 14, 51, 76
17, 233864, Note_on_c, 14, 51, 0
17, 233880, Note_on_c, 14, 48, 77
17, 233969, Note_on_c, 14, 48, 0
17, 234000, Note_on_c, 14, 45, 78
17, 234089, Note_on_c, 14, 45, 0
17, 234120, Note_on_c, 14, 54, 80
17, 234239, Note_on_c, 14, 54, 0
17, 234240, Note_on_c, 14, 54, 80
17, 234344, Note_on_c, 14, 54, 0
17, 234360, Note_on_c, 14, 50, 80
17, 234449, Note_on_c, 14, 50, 0
17, 234480, Note_on_c, 14, 46, 80
17, 234569, Note_on_c, 14, 46, 0
17, 234600, Note_on_c, 14, 56, 92
17, 234719, Note_on_c, 14, 56, 0
17, 234720, Note_on_c, 14, 56, 92
17, 234824, Note_on_c, 14, 56, 0
17, 234840, Note_on_c, 14, 50, 92
17, 234929, Note_on_c, 14, 50, 0
17, 234960, Note_on_c, 14, 46, 92
17, 235049, Note_on_c, 14, 46, 0
17, 235080, Note_on_c, 14, 56, 92
17, 235199, Note_on_c, 14, 56, 0
17, 235200, Note_on_c, 14, 56, 83
17, 235304, Note_on_c, 14, 56, 0
17, 235320, Note_on_c, 14, 50, 73
17, 235409, Note_on_c, 14, 50, 0
17, 235440, Note_on_c, 14, 46, 64
17, 235529, Note_on_c, 14, 46, 0
17, 235560, Note_on_c, 14, 55, 54
17, 235679, Note_on_c, 14, 55, 0
17, 235680, Note_on_c, 14, 55, 44
17, 235784, Note_on_c, 14, 55, 0
17, 235800, Note_on_c, 14, 51, 38
17, 235889, Note_on_c, 14, 51, 0
17, 235920, Note_on_c, 14, 46, 38
17, 236009, Note_on_c, 14, 46, 0
17, 236040, Note_on_c, 14, 55, 38
17, 236159, Note_on_c, 14, 55, 0
17, 236160, Note_on_c, 14, 55, 32
17, 236264, Note_on_c, 14, 55, 0
17, 236280, Note_on_c, 14, 50, 32
17, 236369, Note_on_c, 14, 50, 0
17, 236400, Note_on_c, 14, 46, 32
17, 236489, Note_on_c, 14, 46, 0
17, 236520, Note_on_c, 14, 55, 32
17, 236639, Note_on_c, 14, 55, 0
17, 236640, Note_on_c, 14, 55, 32
17, 236744, Note_on_c, 14, 55, 0
17, 236760, Note_on_c, 14, 50, 32
17, 236849, Note_on_c, 14, 50, 0
17, 236880, Note_on_c, 14, 45, 32
17, 236969, Note_on_c, 14, 45, 0
17, 237000, Note_on_c, 14, 53, 32
17, 237025, Note_on_c, 14, 53, 0
17, 237030, Note_on_c, 14, 53, 33
17, 237055, Note_on_c, 14, 53, 0
17, 237060, Note_on_c, 14, 53, 34
17, 237085, Note_on_c, 14, 53, 0
17, 237090, Note_on_c, 14, 53, 36
17, 237115, Note_on_c, 14, 53, 0
17, 237120, Note_on_c, 14, 53, 37
17, 237145, Note_on_c, 14, 53, 0
17, 237150, Note_on_c, 14, 53, 38
17, 237175, Note_on_c, 14, 53, 0
17, 237180, Note_on_c, 14, 53, 40
17, 237205, Note_on_c, 14, 53, 0
17, 237210, Note_on_c, 14, 53, 41
17, 237235, Note_on_c, 14, 53, 0
17, 237240, Note_on_c, 14, 53, 42
17, 237265, Note_on_c, 14, 53, 0
17, 237270, Note_on_c, 14, 53, 44
17, 237295, Note_on_c, 14, 53, 0
17, 237300, Note_on_c, 14, 53, 45
17, 237325, Note_on_c, 14, 53, 0
17, 237330, Note_on_c, 14, 53, 46
17, 237355, Note_on_c, 14, 53, 0
17, 237360, Note_on_c, 14, 53, 48
17, 237385, Note_on_c, 14, 53, 0
17, 237390, Note_on_c, 14, 53, 49
17, 237415, Note_on_c, 14, 53, 0
17, 237420, Note_on_c, 14, 53, 50
17, 237445, Note_on_c, 14, 53, 0
17, 237450, Note_on_c, 14, 53, 52
17, 237475, Note_on_c, 14, 53, 0
17, 237480, Note_on_c, 14, 53, 53
17, 237505, Note_on_c, 14, 53, 0
17, 237510, Note_on_c, 14, 53, 54
17, 237535, Note_on_c, 14, 53, 0
17, 237540, Note_on_c, 14, 53, 56
17, 237565, Note_on_c, 14, 53, 0
17, 237570, Note_on_c, 14, 53, 57
17, 237595, Note_on_c, 14, 53, 0
17, 237600, Note_on_c, 14, 52, 58
17, 237625, Note_on_c, 14, 52, 0
17, 237630, Note_on_c, 14, 52, 60
17, 237655, Note_on_c, 14, 52, 0
17, 237660, Note_on_c, 14, 52, 61
17, 237685, Note_on_c, 14, 52, 0
17, 237690, Note_on_c, 14, 52, 62
17, 237715, Note_on_c, 14, 52, 0
17, 237720, Note_on_c, 14, 52, 64
17, 237745, Note_on_c, 14, 52, 0
17, 237750, Note_on_c, 14, 52, 65
17, 237775, Note_on_c, 14, 52, 0
17, 237780, Note_on_c, 14, 52, 66
17, 237805, Note_on_c, 14, 52, 0
17, 237810, Note_on_c, 14, 52, 68
17, 237835, Note_on_c, 14, 52, 0
17, 237840, Note_on_c, 14, 52, 69
17, 237865, Note_on_c, 14, 52, 0
17, 237870, Note_on_c, 14, 52, 70
17, 237895, Note_on_c, 14, 52, 0
17, 237900, Note_on_c, 14, 52, 72
17, 237925, Note_on_c, 14, 52, 0
17, 237930, Note_on_c, 14, 52, 73
17, 237955, Note_on_c, 14, 52, 0
17, 237960, Note_on_c, 14, 52, 74
17, 237985, Note_on_c, 14, 52, 0
17, 237990, Note_on_c, 14, 52, 76
17, 238015, Note_on_c, 14, 52, 0
17, 238020, Note_on_c, 14, 52, 77
17, 238045, Note_on_c, 14, 52, 0
17, 238050, Note_on_c, 14, 52, 78
17, 238075, Note_on_c, 14, 52, 0
17, 238080, Note_on_c, 14, 50, 80
17, 238199, Note_on_c, 14, 50, 0
17, 238680, Note_on_c, 14, 58, 44
17, 238799, Note_on_c, 14, 58, 0
17, 238920, Note_on_c, 14, 57, 44
17, 239024, Note_on_c, 14, 57, 0
17, 239040, Note_on_c, 14, 69, 44
17, 239384, Note_on_c, 14, 69, 0
17, 239400, Note_on_c, 14, 68, 50
17, 239519, Note_on_c, 14, 68, 0
17, 239520, Note_on_c, 14, 67, 53
17, 239571, Note_on_c, 14, 67, 0
17, 239580, Note_on_c, 14, 65, 54
17, 239639, Note_on_c, 14, 65, 0
17, 239640, Note_on_c, 14, 64, 55
17, 239691, Note_on_c, 14, 64, 0
17, 239700, Note_on_c, 14, 62, 56
17, 239759, Note_on_c, 14, 62, 0
17, 239760, Note_on_c, 14, 61, 57
17, 239811, Note_on_c, 14, 61, 0
17, 239820, Note_on_c, 14, 58, 58
17, 239879, Note_on_c, 14, 58, 0
17, 239880, Note_on_c, 14, 57, 59
17, 239931, Note_on_c, 14, 57, 0
17, 239940, Note_on_c, 14, 55, 60
17, 239999, Note_on_c, 14, 55, 0
17, 240000, Note_on_c, 14, 53, 62
17, 240051, Note_on_c, 14, 53, 0
17, 240060, Note_on_c, 14, 52, 63
17, 240119, Note_on_c, 14, 52, 0
17, 240120, Note_on_c, 14, 50, 64
17, 240171, Note_on_c, 14, 50, 0
17, 240180, Note_on_c, 14, 48, 65
17, 240239, Note_on_c, 14, 48, 0
17, 240240, Note_on_c, 14, 47, 66
17, 240291, Note_on_c, 14, 47, 0
17, 240300, Note_on_c, 14, 59, 67
17, 240359, Note_on_c, 14, 59, 0
17, 240360, Note_on_c, 14, 61, 68
17, 240411, Note_on_c, 14, 61, 0
17, 240420, Note_on_c, 14, 62, 69
17, 240479, Note_on_c, 14, 62, 0
17, 240480, Note_on_c, 14, 64, 71
17, 240531, Note_on_c, 14, 64, 0
17, 240540, Note_on_c, 14, 62, 72
17, 240599, Note_on_c, 14, 62, 0
17, 240600, Note_on_c, 14, 61, 73
17, 240651, Note_on_c, 14, 61, 0
17, 240660, Note_on_c, 14, 58, 74
17, 240719, Note_on_c, 14, 58, 0
17, 240720, Note_on_c, 14, 57, 75
17, 240771, Note_on_c, 14, 57, 0
17, 240780, Note_on_c, 14, 55, 76
17, 240839, Note_on_c, 14, 55, 0
17, 240840, Note_on_c, 14, 53, 77
17, 240891, Note_on_c, 14, 53, 0
17, 240900, Note_on_c, 14, 52, 78
17, 240959, Note_on_c, 14, 52, 0
17, 240960, Note_on_c, 14, 50, 80
17, 241011, Note_on_c, 14, 50, 0
17, 241020, Note_on_c, 14, 48, 80
17, 241079, Note_on_c, 14, 48, 0
17, 241080, Note_on_c, 14, 46, 80
17, 241131, Note_on_c, 14, 46, 0
17, 241140, Note_on_c, 14, 45, 80
17, 241199, Note_on_c, 14, 45, 0
17, 241200, Note_on_c, 14, 43, 80
17, 241251, Note_on_c, 14, 43, 0
17, 241260, Note_on_c, 14, 41, 80
17, 241319, Note_on_c, 14, 41, 0
17, 241320, Note_on_c, 14, 52, 80
17, 241371, Note_on_c, 14, 52, 0
17, 241380, Note_on_c, 14, 50, 80
17, 241439, Note_on_c, 14, 50, 0
17, 241440, Note_on_c, 14, 58, 80
17, 241491, Note_on_c, 14, 58, 0
17, 241500, Note_on_c, 14, 57, 80
17, 241559, Note_on_c, 14, 57, 0
17, 241560, Note_on_c, 14, 55, 80
17, 241611, Note_on_c, 14, 55, 0
17, 241620, Note_on_c, 14, 57, 80
17, 241679, Note_on_c, 14, 57, 0
17, 241680, Note_on_c, 14, 58, 80
17, 241731, Note_on_c, 14, 58, 0
17, 241740, Note_on_c, 14, 55, 80
17, 241799, Note_on_c, 14, 55, 0
17, 241800, Note_on_c, 14, 57, 80
17, 241851, Note_on_c, 14, 57, 0
17, 241860, Note_on_c, 14, 67, 80
17, 241911, Note_on_c, 14, 67, 0
17, 241920, Note_on_c, 14, 67, 44
17, 242039, Note_on_c, 14, 67, 0
17, 243840, Note_on_c, 14, 52, 44
17, 244139, Note_on_c, 14, 52, 0
17, 244140, Note_on_c, 14, 55, 44
17, 244191, Note_on_c, 14, 55, 0
17, 244200, Note_on_c, 14, 53, 44
17, 244244, Note_on_c, 14, 53, 0
17, 244260, Note_on_c, 14, 52, 44
17, 244304, Note_on_c, 14, 52, 0
17, 244320, Note_on_c, 14, 52, 44
17, 244611, Note_on_c, 14, 52, 0
17, 244620, Note_on_c, 14, 49, 44
17, 244671, Note_on_c, 14, 49, 0
17, 244680, Note_on_c, 14, 49, 44
17, 244731, Note_on_c, 14, 49, 0
17, 244740, Note_on_c, 14, 49, 44
17, 244784, Note_on_c, 14, 49, 0
17, 244800, Note_on_c, 14, 44, 44
17, 244979, Note_on_c, 14, 44, 0
17, 245040, Note_on_c, 14, 46, 44
17, 245219, Note_on_c, 14, 46, 0
17, 245280, Note_on_c, 14, 45, 44
17, 245459, Note_on_c, 14, 45, 0
17, 245520, Note_on_c, 14, 45, 44
17, 245699, Note_on_c, 14, 45, 0
17, 245760, Note_on_c, 14, 50, 32
17, 245785, Note_on_c, 14, 50, 0
17, 245790, Note_on_c, 14, 50, 32
17, 245815, Note_on_c, 14, 50, 0
17, 245820, Note_on_c, 14, 50, 32
17, 245845, Note_on_c, 14, 50, 0
17, 245850, Note_on_c, 14, 50, 32
17, 245875, Note_on_c, 14, 50, 0
17, 245880, Note_on_c, 14, 49, 32
17, 245905, Note_on_c, 14, 49, 0
17, 245910, Note_on_c, 14, 49, 32
17, 245935, Note_on_c, 14, 49, 0
17, 245940, Note_on_c, 14, 49, 32
17, 245965, Note_on_c, 14, 49, 0
17, 245970, Note_on_c, 14, 49, 32
17, 245995, Note_on_c, 14, 49, 0
17, 246000, Note_on_c, 14, 48, 32
17, 246025, Note_on_c, 14, 48, 0
17, 246030, Note_on_c, 14, 48, 32
17, 246055, Note_on_c, 14, 48, 0
17, 246060, Note_on_c, 14, 48, 32
17, 246085, Note_on_c, 14, 48, 0
17, 246090, Note_on_c, 14, 48, 32
17, 246115, Note_on_c, 14, 48, 0
17, 246120, Note_on_c, 14, 47, 32
17, 246145, Note_on_c, 14, 47, 0
17, 246150, Note_on_c, 14, 47, 32
17, 246175, Note_on_c, 14, 47, 0
17, 246180, Note_on_c, 14, 47, 32
17, 246205, Note_on_c, 14, 47, 0
17, 246210, Note_on_c, 14, 47, 32
17, 246235, Note_on_c, 14, 47, 0
17, 246240, Note_on_c, 14, 46, 32
17, 246265, Note_on_c, 14, 46, 0
17, 246270, Note_on_c, 14, 46, 32
17, 246295, Note_on_c, 14, 46, 0
17, 246300, Note_on_c, 14, 46, 32
17, 246325, Note_on_c, 14, 46, 0
17, 246330, Note_on_c, 14, 46, 32
17, 246355, Note_on_c, 14, 46, 0
17, 246360, Note_on_c, 14, 45, 32
17, 246385, Note_on_c, 14, 45, 0
17, 246390, Note_on_c, 14, 45, 32
17, 246415, Note_on_c, 14, 45, 0
17, 246420, Note_on_c, 14, 45, 32
17, 246445, Note_on_c, 14, 45, 0
17, 246450, Note_on_c, 14, 45, 32
17, 246475, Note_on_c, 14, 45, 0
17, 246480, Note_on_c, 14, 47, 32
17, 246505, Note_on_c, 14, 47, 0
17, 246510, Note_on_c, 14, 47, 32
17, 246535, Note_on_c, 14, 47, 0
17, 246540, Note_on_c, 14, 47, 32
17, 246565, Note_on_c, 14, 47, 0
17, 246570, Note_on_c, 14, 47, 32
17, 246595, Note_on_c, 14, 47, 0
17, 246600, Note_on_c, 14, 49, 32
17, 246625, Note_on_c, 14, 49, 0
17, 246630, Note_on_c, 14, 49, 32
17, 246655, Note_on_c, 14, 49, 0
17, 246660, Note_on_c, 14, 49, 32
17, 246685, Note_on_c, 14, 49, 0
17, 246690, Note_on_c, 14, 49, 32
17, 246715, Note_on_c, 14, 49, 0
17, 246720, Note_on_c, 14, 50, 32
17, 246745, Note_on_c, 14, 50, 0
17, 246750, Note_on_c, 14, 50, 32
17, 246775, Note_on_c, 14, 50, 0
17, 246780, Note_on_c, 14, 50, 32
17, 246805, Note_on_c, 14, 50, 0
17, 246810, Note_on_c, 14, 50, 32
17, 246835, Note_on_c, 14, 50, 0
17, 246840, Note_on_c, 14, 49, 32
17, 246865, Note_on_c, 14, 49, 0
17, 246870, Note_on_c, 14, 49, 32
17, 246895, Note_on_c, 14, 49, 0
17, 246900, Note_on_c, 14, 49, 32
17, 246925, Note_on_c, 14, 49, 0
17, 246930, Note_on_c, 14, 49, 32
17, 246955, Note_on_c, 14, 49, 0
17, 246960, Note_on_c, 14, 48, 32
17, 246985, Note_on_c, 14, 48, 0
17, 246990, Note_on_c, 14, 48, 32
17, 247015, Note_on_c, 14, 48, 0
17, 247020, Note_on_c, 14, 48, 32
17, 247045, Note_on_c, 14, 48, 0
17, 247050, Note_on_c, 14, 48, 32
17, 247075, Note_on_c, 14, 48, 0
17, 247080, Note_on_c, 14, 47, 32
17, 247105, Note_on_c, 14, 47, 0
17, 247110, Note_on_c, 14, 47, 32
17, 247135, Note_on_c, 14, 47, 0
17, 247140, Note_on_c, 14, 47, 32
17, 247165, Note_on_c, 14, 47, 0
17, 247170, Note_on_c, 14, 47, 32
17, 247195, Note_on_c, 14, 47, 0
17, 247200, Note_on_c, 14, 46, 32
17, 247225, Note_on_c, 14, 46, 0
17, 247230, Note_on_c, 14, 46, 32
17, 247255, Note_on_c, 14, 46, 0
17, 247260, Note_on_c, 14, 46, 32
17, 247285, Note_on_c, 14, 46, 0
17, 247290, Note_on_c, 14, 46, 32
17, 247315, Note_on_c, 14, 46, 0
17, 247320, Note_on_c, 14, 45, 32
17, 247345, Note_on_c, 14, 45, 0
17, 247350, Note_on_c, 14, 45, 32
17, 247375, Note_on_c, 14, 45, 0
17, 247380, Note_on_c, 14, 45, 32
17, 247405, Note_on_c, 14, 45, 0
17, 247410, Note_on_c, 14, 45, 32
17, 247435, Note_on_c, 14, 45, 0
17, 247440, Note_on_c, 14, 47, 32
17, 247465, Note_on_c, 14, 47, 0
17, 247470, Note_on_c, 14, 47, 32
17, 247495, Note_on_c, 14, 47, 0
17, 247500, Note_on_c, 14, 47, 32
17, 247525, Note_on_c, 14, 47, 0
17, 247530, Note_on_c, 14, 47, 32
17, 247555, Note_on_c, 14, 47, 0
17, 247560, Note_on_c, 14, 49, 32
17, 247585, Note_on_c, 14, 49, 0
17, 247590, Note_on_c, 14, 49, 32
17, 247615, Note_on_c, 14, 49, 0
17, 247620, Note_on_c, 14, 49, 32
17, 247645, Note_on_c, 14, 49, 0
17, 247650, Note_on_c, 14, 49, 32
17, 247675, Note_on_c, 14, 49, 0
17, 247680, Note_on_c, 14, 50, 32
17, 247705, Note_on_c, 14, 50, 0
17, 247710, Note_on_c, 14, 50, 32
17, 247735, Note_on_c, 14, 50, 0
17, 247740, Note_on_c, 14, 50, 32
17, 247765, Note_on_c, 14, 50, 0
17, 247770, Note_on_c, 14, 50, 32
17, 247795, Note_on_c, 14, 50, 0
17, 247800, Note_on_c, 14, 49, 32
17, 247825, Note_on_c, 14, 49, 0
17, 247830, Note_on_c, 14, 49, 32
17, 247855, Note_on_c, 14, 49, 0
17, 247860, Note_on_c, 14, 49, 32
17, 247885, Note_on_c, 14, 49, 0
17, 247890, Note_on_c, 14, 49, 32
17, 247915, Note_on_c, 14, 49, 0
17, 247920, Note_on_c, 14, 48, 32
17, 247945, Note_on_c, 14, 48, 0
17, 247950, Note_on_c, 14, 48, 32
17, 247975, Note_on_c, 14, 48, 0
17, 247980, Note_on_c, 14, 48, 32
17, 248005, Note_on_c, 14, 48, 0
17, 248010, Note_on_c, 14, 48, 32
17, 248035, Note_on_c, 14, 48, 0
17, 248040, Note_on_c, 14, 47, 32
17, 248065, Note_on_c, 14, 47, 0
17, 248070, Note_on_c, 14, 47, 32
17, 248095, Note_on_c, 14, 47, 0
17, 248100, Note_on_c, 14, 47, 32
17, 248125, Note_on_c, 14, 47, 0
17, 248130, Note_on_c, 14, 47, 32
17, 248155, Note_on_c, 14, 47, 0
17, 248160, Note_on_c, 14, 46, 32
17, 248185, Note_on_c, 14, 46, 0
17, 248190, Note_on_c, 14, 46, 32
17, 248215, Note_on_c, 14, 46, 0
17, 248220, Note_on_c, 14, 46, 32
17, 248245, Note_on_c, 14, 46, 0
17, 248250, Note_on_c, 14, 46, 32
17, 248275, Note_on_c, 14, 46, 0
17, 248280, Note_on_c, 14, 45, 32
17, 248305, Note_on_c, 14, 45, 0
17, 248310, Note_on_c, 14, 45, 32
17, 248335, Note_on_c, 14, 45, 0
17, 248340, Note_on_c, 14, 45, 32
17, 248365, Note_on_c, 14, 45, 0
17, 248370, Note_on_c, 14, 45, 32
17, 248395, Note_on_c, 14, 45, 0
17, 248400, Note_on_c, 14, 47, 32
17, 248425, Note_on_c, 14, 47, 0
17, 248430, Note_on_c, 14, 47, 32
17, 248455, Note_on_c, 14, 47, 0
17, 248460, Note_on_c, 14, 47, 32
17, 248485, Note_on_c, 14, 47, 0
17, 248490, Note_on_c, 14, 47, 32
17, 248515, Note_on_c, 14, 47, 0
17, 248520, Note_on_c, 14, 49, 32
17, 248545, Note_on_c, 14, 49, 0
17, 248550, Note_on_c, 14, 49, 32
17, 248575, Note_on_c, 14, 49, 0
17, 248580, Note_on_c, 14, 49, 32
17, 248605, Note_on_c, 14, 49, 0
17, 248610, Note_on_c, 14, 49, 32
17, 248635, Note_on_c, 14, 49, 0
17, 248640, Note_on_c, 14, 50, 32
17, 248665, Note_on_c, 14, 50, 0
17, 248670, Note_on_c, 14, 50, 32
17, 248695, Note_on_c, 14, 50, 0
17, 248700, Note_on_c, 14, 50, 32
17, 248725, Note_on_c, 14, 50, 0
17, 248730, Note_on_c, 14, 50, 32
17, 248755, Note_on_c, 14, 50, 0
17, 248760, Note_on_c, 14, 49, 32
17, 248785, Note_on_c, 14, 49, 0
17, 248790, Note_on_c, 14, 49, 32
17, 248815, Note_on_c, 14, 49, 0
17, 248820, Note_on_c, 14, 49, 32
17, 248845, Note_on_c, 14, 49, 0
17, 248850, Note_on_c, 14, 49, 32
17, 248875, Note_on_c, 14, 49, 0
17, 248880, Note_on_c, 14, 48, 32
17, 248905, Note_on_c, 14, 48, 0
17, 248910, Note_on_c, 14, 48, 32
17, 248935, Note_on_c, 14, 48, 0
17, 248940, Note_on_c, 14, 48, 32
17, 248965, Note_on_c, 14, 48, 0
17, 248970, Note_on_c, 14, 48, 32
17, 248995, Note_on_c, 14, 48, 0
17, 249000, Note_on_c, 14, 47, 32
17, 249025, Note_on_c, 14, 47, 0
17, 249030, Note_on_c, 14, 47, 32
17, 249055, Note_on_c, 14, 47, 0
17, 249060, Note_on_c, 14, 47, 32
17, 249085, Note_on_c, 14, 47, 0
17, 249090, Note_on_c, 14, 47, 32
17, 249115, Note_on_c, 14, 47, 0
17, 249120, Note_on_c, 14, 46, 32
17, 249145, Note_on_c, 14, 46, 0
17, 249150, Note_on_c, 14, 46, 32
17, 249175, Note_on_c, 14, 46, 0
17, 249180, Note_on_c, 14, 46, 32
17, 249205, Note_on_c, 14, 46, 0
17, 249210, Note_on_c, 14, 46, 32
17, 249235, Note_on_c, 14, 46, 0
17, 249240, Note_on_c, 14, 45, 32
17, 249265, Note_on_c, 14, 45, 0
17, 249270, Note_on_c, 14, 45, 32
17, 249295, Note_on_c, 14, 45, 0
17, 249300, Note_on_c, 14, 45, 32
17, 249325, Note_on_c, 14, 45, 0
17, 249330, Note_on_c, 14, 45, 32
17, 249355, Note_on_c, 14, 45, 0
17, 249360, Note_on_c, 14, 47, 32
17, 249385, Note_on_c, 14, 47, 0
17, 249390, Note_on_c, 14, 47, 32
17, 249415, Note_on_c, 14, 47, 0
17, 249420, Note_on_c, 14, 47, 32
17, 249445, Note_on_c, 14, 47, 0
17, 249450, Note_on_c, 14, 47, 32
17, 249475, Note_on_c, 14, 47, 0
17, 249480, Note_on_c, 14, 49, 32
17, 249505, Note_on_c, 14, 49, 0
17, 249510, Note_on_c, 14, 49, 32
17, 249535, Note_on_c, 14, 49, 0
17, 249540, Note_on_c, 14, 49, 32
17, 249565, Note_on_c, 14, 49, 0
17, 249570, Note_on_c, 14, 49, 32
17, 249595, Note_on_c, 14, 49, 0
17, 249600, Note_on_c, 14, 50, 32
17, 249625, Note_on_c, 14, 50, 0
17, 249630, Note_on_c, 14, 50, 32
17, 249655, Note_on_c, 14, 50, 0
17, 249660, Note_on_c, 14, 50, 33
17, 249685, Note_on_c, 14, 50, 0
17, 249690, Note_on_c, 14, 50, 33
17, 249715, Note_on_c, 14, 50, 0
17, 249720, Note_on_c, 14, 49, 34
17, 249745, Note_on_c, 14, 49, 0
17, 249750, Note_on_c, 14, 49, 34
17, 249775, Note_on_c, 14, 49, 0
17, 249780, Note_on_c, 14, 49, 35
17, 249805, Note_on_c, 14, 49, 0
17, 249810, Note_on_c, 14, 49, 35
17, 249835, Note_on_c, 14, 49, 0
17, 249840, Note_on_c, 14, 48, 36
17, 249865, Note_on_c, 14, 48, 0
17, 249870, Note_on_c, 14, 48, 36
17, 249895, Note_on_c, 14, 48, 0
17, 249900, Note_on_c, 14, 48, 37
17, 249925, Note_on_c, 14, 48, 0
17, 249930, Note_on_c, 14, 48, 37
17, 249955, Note_on_c, 14, 48, 0
17, 249960, Note_on_c, 14, 47, 38
17, 249985, Note_on_c, 14, 47, 0
17, 249990, Note_on_c, 14, 47, 38
17, 250015, Note_on_c, 14, 47, 0
17, 250020, Note_on_c, 14, 47, 39
17, 250045, Note_on_c, 14, 47, 0
17, 250050, Note_on_c, 14, 47, 39
17, 250075, Note_on_c, 14, 47, 0
17, 250080, Note_on_c, 14, 46, 40
17, 250105, Note_on_c, 14, 46, 0
17, 250110, Note_on_c, 14, 46, 40
17, 250135, Note_on_c, 14, 46, 0
17, 250140, Note_on_c, 14, 46, 41
17, 250165, Note_on_c, 14, 46, 0
17, 250170, Note_on_c, 14, 46, 41
17, 250195, Note_on_c, 14, 46, 0
17, 250200, Note_on_c, 14, 45, 42
17, 250225, Note_on_c, 14, 45, 0
17, 250230, Note_on_c, 14, 45, 42
17, 250255, Note_on_c, 14, 45, 0
17, 250260, Note_on_c, 14, 45, 43
17, 250285, Note_on_c, 14, 45, 0
17, 250290, Note_on_c, 14, 45, 43
17, 250315, Note_on_c, 14, 45, 0
17, 250320, Note_on_c, 14, 47, 44
17, 250345, Note_on_c, 14, 47, 0
17, 250350, Note_on_c, 14, 47, 44
17, 250375, Note_on_c, 14, 47, 0
17, 250380, Note_on_c, 14, 47, 45
17, 250405, Note_on_c, 14, 47, 0
17, 250410, Note_on_c, 14, 47, 45
17, 250435, Note_on_c, 14, 47, 0
17, 250440, Note_on_c, 14, 49, 46
17, 250465, Note_on_c, 14, 49, 0
17, 250470, Note_on_c, 14, 49, 46
17, 250495, Note_on_c, 14, 49, 0
17, 250500, Note_on_c, 14, 49, 47
17, 250525, Note_on_c, 14, 49, 0
17, 250530, Note_on_c, 14, 49, 47
17, 250555, Note_on_c, 14, 49, 0
17, 250560, Note_on_c, 14, 50, 48
17, 250585, Note_on_c, 14, 50, 0
17, 250590, Note_on_c, 14, 50, 48
17, 250615, Note_on_c, 14, 50, 0
17, 250620, Note_on_c, 14, 50, 49
17, 250645, Note_on_c, 14, 50, 0
17, 250650, Note_on_c, 14, 50, 49
17, 250675, Note_on_c, 14, 50, 0
17, 250680, Note_on_c, 14, 49, 50
17, 250705, Note_on_c, 14, 49, 0
17, 250710, Note_on_c, 14, 49, 50
17, 250735, Note_on_c, 14, 49, 0
17, 250740, Note_on_c, 14, 49, 51
17, 250765, Note_on_c, 14, 49, 0
17, 250770, Note_on_c, 14, 49, 51
17, 250795, Note_on_c, 14, 49, 0
17, 250800, Note_on_c, 14, 48, 52
17, 250825, Note_on_c, 14, 48, 0
17, 250830, Note_on_c, 14, 48, 52
17, 250855, Note_on_c, 14, 48, 0
17, 250860, Note_on_c, 14, 48, 53
17, 250885, Note_on_c, 14, 48, 0
17, 250890, Note_on_c, 14, 48, 53
17, 250915, Note_on_c, 14, 48, 0
17, 250920, Note_on_c, 14, 47, 54
17, 250945, Note_on_c, 14, 47, 0
17, 250950, Note_on_c, 14, 47, 54
17, 250975, Note_on_c, 14, 47, 0
17, 250980, Note_on_c, 14, 47, 55
17, 251005, Note_on_c, 14, 47, 0
17, 251010, Note_on_c, 14, 47, 55
17, 251035, Note_on_c, 14, 47, 0
17, 251040, Note_on_c, 14, 46, 56
17, 251065, Note_on_c, 14, 46, 0
17, 251070, Note_on_c, 14, 46, 56
17, 251095, Note_on_c, 14, 46, 0
17, 251100, Note_on_c, 14, 46, 57
17, 251125, Note_on_c, 14, 46, 0
17, 251130, Note_on_c, 14, 46, 57
17, 251155, Note_on_c, 14, 46, 0
17, 251160, Note_on_c, 14, 45, 58
17, 251185, Note_on_c, 14, 45, 0
17, 251190, Note_on_c, 14, 45, 58
17, 251215, Note_on_c, 14, 45, 0
17, 251220, Note_on_c, 14, 45, 59
17, 251245, Note_on_c, 14, 45, 0
17, 251250, Note_on_c, 14, 45, 59
17, 251275, Note_on_c, 14, 45, 0
17, 251280, Note_on_c, 14, 47, 60
17, 251305, Note_on_c, 14, 47, 0
17, 251310, Note_on_c, 14, 47, 60
17, 251335, Note_on_c, 14, 47, 0
17, 251340, Note_on_c, 14, 47, 61
17, 251365, Note_on_c, 14, 47, 0
17, 251370, Note_on_c, 14, 47, 61
17, 251395, Note_on_c, 14, 47, 0
17, 251400, Note_on_c, 14, 49, 62
17, 251425, Note_on_c, 14, 49, 0
17, 251430, Note_on_c, 14, 49, 62
17, 251455, Note_on_c, 14, 49, 0
17, 251460, Note_on_c, 14, 49, 63
17, 251485, Note_on_c, 14, 49, 0
17, 251490, Note_on_c, 14, 49, 63
17, 251515, Note_on_c, 14, 49, 0
17, 251520, Note_on_c, 14, 50, 64
17, 251545, Note_on_c, 14, 50, 0
17, 251550, Note_on_c, 14, 50, 64
17, 251575, Note_on_c, 14, 50, 0
17, 251580, Note_on_c, 14, 50, 65
17, 251605, Note_on_c, 14, 50, 0
17, 251610, Note_on_c, 14, 50, 65
17, 251635, Note_on_c, 14, 50, 0
17, 251640, Note_on_c, 14, 49, 66
17, 251665, Note_on_c, 14, 49, 0
17, 251670, Note_on_c, 14, 49, 66
17, 251695, Note_on_c, 14, 49, 0
17, 251700, Note_on_c, 14, 49, 67
17, 251725, Note_on_c, 14, 49, 0
17, 251730, Note_on_c, 14, 49, 67
17, 251755, Note_on_c, 14, 49, 0
17, 251760, Note_on_c, 14, 48, 68
17, 251785, Note_on_c, 14, 48, 0
17, 251790, Note_on_c, 14, 48, 68
17, 251815, Note_on_c, 14, 48, 0
17, 251820, Note_on_c, 14, 48, 69
17, 251845, Note_on_c, 14, 48, 0
17, 251850, Note_on_c, 14, 48, 69
17, 251875, Note_on_c, 14, 48, 0
17, 251880, Note_on_c, 14, 47, 70
17, 251905, Note_on_c, 14, 47, 0
17, 251910, Note_on_c, 14, 47, 70
17, 251935, Note_on_c, 14, 47, 0
17, 251940, Note_on_c, 14, 47, 71
17, 251965, Note_on_c, 14, 47, 0
17, 251970, Note_on_c, 14, 47, 71
17, 251995, Note_on_c, 14, 47, 0
17, 252000, Note_on_c, 14, 46, 72
17, 252025, Note_on_c, 14, 46, 0
17, 252030, Note_on_c, 14, 46, 72
17, 252055, Note_on_c, 14, 46, 0
17, 252060, Note_on_c, 14, 46, 73
17, 252085, Note_on_c, 14, 46, 0
17, 252090, Note_on_c, 14, 46, 73
17, 252115, Note_on_c, 14, 46, 0
17, 252120, Note_on_c, 14, 45, 74
17, 252145, Note_on_c, 14, 45, 0
17, 252150, Note_on_c, 14, 45, 74
17, 252175, Note_on_c, 14, 45, 0
17, 252180, Note_on_c, 14, 45, 75
17, 252205, Note_on_c, 14, 45, 0
17, 252210, Note_on_c, 14, 45, 75
17, 252235, Note_on_c, 14, 45, 0
17, 252240, Note_on_c, 14, 47, 76
17, 252265, Note_on_c, 14, 47, 0
17, 252270, Note_on_c, 14, 47, 76
17, 252295, Note_on_c, 14, 47, 0
17, 252300, Note_on_c, 14, 47, 77
17, 252325, Note_on_c, 14, 47, 0
17, 252330, Note_on_c, 14, 47, 77
17, 252355, Note_on_c, 14, 47, 0
17, 252360, Note_on_c, 14, 49, 78
17, 252385, Note_on_c, 14, 49, 0
17, 252390, Note_on_c, 14, 49, 78
17, 252415, Note_on_c, 14, 49, 0
17, 252420, Note_on_c, 14, 49, 79
17, 252445, Note_on_c, 14, 49, 0
17, 252450, Note_on_c, 14, 49, 79
17, 252475, Note_on_c, 14, 49, 0
17, 252480, Note_on_c, 14, 50, 80
17, 252505, Note_on_c, 14, 50, 0
17, 252510, Note_on_c, 14, 50, 80
17, 252535, Note_on_c, 14, 50, 0
17, 252540, Note_on_c, 14, 50, 80
17, 252565, Note_on_c, 14, 50, 0
17, 252570, Note_on_c, 14, 50, 80
17, 252595, Note_on_c, 14, 50, 0
17, 252600, Note_on_c, 14, 45, 80
17, 252625, Note_on_c, 14, 45, 0
17, 252630, Note_on_c, 14, 45, 80
17, 252655, Note_on_c, 14, 45, 0
17, 252660, Note_on_c, 14, 45, 80
17, 252685, Note_on_c, 14, 45, 0
17, 252690, Note_on_c, 14, 45, 80
17, 252715, Note_on_c, 14, 45, 0
17, 252720, Note_on_c, 14, 46, 86
17, 252745, Note_on_c, 14, 46, 0
17, 252750, Note_on_c, 14, 46, 86
17, 252775, Note_on_c, 14, 46, 0
17, 252780, Note_on_c, 14, 46, 86
17, 252805, Note_on_c, 14, 46, 0
17, 252810, Note_on_c, 14, 46, 86
17, 252835, Note_on_c, 14, 46, 0
17, 252840, Note_on_c, 14, 45, 86
17, 252865, Note_on_c, 14, 45, 0
17, 252870, Note_on_c, 14, 45, 86
17, 252895, Note_on_c, 14, 45, 0
17, 252900, Note_on_c, 14, 45, 86
17, 252925, Note_on_c, 14, 45, 0
17, 252930, Note_on_c, 14, 45, 86
17, 252955, Note_on_c, 14, 45, 0
17, 252960, Note_on_c, 14, 43, 86
17, 252985, Note_on_c, 14, 43, 0
17, 252990, Note_on_c, 14, 43, 86
17, 253015, Note_on_c, 14, 43, 0
17, 253020, Note_on_c, 14, 43, 86
17, 253045, Note_on_c, 14, 43, 0
17, 253050, Note_on_c, 14, 43, 86
17, 253075, Note_on_c, 14, 43, 0
17, 253080, Note_on_c, 14, 46, 86
17, 253105, Note_on_c, 14, 46, 0
17, 253110, Note_on_c, 14, 46, 86
17, 253135, Note_on_c, 14, 46, 0
17, 253140, Note_on_c, 14, 46, 86
17, 253165, Note_on_c, 14, 46, 0
17, 253170, Note_on_c, 14, 46, 86
17, 253195, Note_on_c, 14, 46, 0
17, 253200, Note_on_c, 14, 45, 86
17, 253225, Note_on_c, 14, 45, 0
17, 253230, Note_on_c, 14, 45, 86
17, 253255, Note_on_c, 14, 45, 0
17, 253260, Note_on_c, 14, 45, 86
17, 253285, Note_on_c, 14, 45, 0
17, 253290, Note_on_c, 14, 45, 86
17, 253315, Note_on_c, 14, 45, 0
17, 253320, Note_on_c, 14, 49, 86
17, 253345, Note_on_c, 14, 49, 0
17, 253350, Note_on_c, 14, 49, 86
17, 253375, Note_on_c, 14, 49, 0
17, 253380, Note_on_c, 14, 49, 86
17, 253405, Note_on_c, 14, 49, 0
17, 253410, Note_on_c, 14, 49, 86
17, 253435, Note_on_c, 14, 49, 0
17, 253440, Note_on_c, 14, 50, 86
17, 253465, Note_on_c, 14, 50, 0
17, 253470, Note_on_c, 14, 50, 86
17, 253495, Note_on_c, 14, 50, 0
17, 253500, Note_on_c, 14, 50, 86
17, 253525, Note_on_c, 14, 50, 0
17, 253530, Note_on_c, 14, 50, 86
17, 253555, Note_on_c, 14, 50, 0
17, 253560, Note_on_c, 14, 45, 86
17, 253585, Note_on_c, 14, 45, 0
17, 253590, Note_on_c, 14, 45, 86
17, 253615, Note_on_c, 14, 45, 0
17, 253620, Note_on_c, 14, 45, 86
17, 253645, Note_on_c, 14, 45, 0
17, 253650, Note_on_c, 14, 45, 86
17, 253675, Note_on_c, 14, 45, 0
17, 253680, Note_on_c, 14, 46, 86
17, 253705, Note_on_c, 14, 46, 0
17, 253710, Note_on_c, 14, 46, 86
17, 253735, Note_on_c, 14, 46, 0
17, 253740, Note_on_c, 14, 46, 86
17, 253765, Note_on_c, 14, 46, 0
17, 253770, Note_on_c, 14, 46, 86
17, 253795, Note_on_c, 14, 46, 0
17, 253800, Note_on_c, 14, 45, 86
17, 253825, Note_on_c, 14, 45, 0
17, 253830, Note_on_c, 14, 45, 86
17, 253855, Note_on_c, 14, 45, 0
17, 253860, Note_on_c, 14, 45, 86
17, 253885, Note_on_c, 14, 45, 0
17, 253890, Note_on_c, 14, 45, 86
17, 253915, Note_on_c, 14, 45, 0
17, 253920, Note_on_c, 14, 43, 86
17, 253945, Note_on_c, 14, 43, 0
17, 253950, Note_on_c, 14, 43, 86
17, 253975, Note_on_c, 14, 43, 0
17, 253980, Note_on_c, 14, 43, 86
17, 254005, Note_on_c, 14, 43, 0
17, 254010, Note_on_c, 14, 43, 86
17, 254035, Note_on_c, 14, 43, 0
17, 254040, Note_on_c, 14, 46, 86
17, 254065, Note_on_c, 14, 46, 0
17, 254070, Note_on_c, 14, 46, 86
17, 254095, Note_on_c, 14, 46, 0
17, 254100, Note_on_c, 14, 46, 86
17, 254125, Note_on_c, 14, 46, 0
17, 254130, Note_on_c, 14, 46, 86
17, 254155, Note_on_c, 14, 46, 0
17, 254160, Note_on_c, 14, 45, 86
17, 254185, Note_on_c, 14, 45, 0
17, 254190, Note_on_c, 14, 45, 86
17, 254215, Note_on_c, 14, 45, 0
17, 254220, Note_on_c, 14, 45, 86
17, 254245, Note_on_c, 14, 45, 0
17, 254250, Note_on_c, 14, 45, 86
17, 254275, Note_on_c, 14, 45, 0
17, 254280, Note_on_c, 14, 61, 86
17, 254305, Note_on_c, 14, 61, 0
17, 254310, Note_on_c, 14, 61, 86
17, 254335, Note_on_c, 14, 61, 0
17, 254340, Note_on_c, 14, 61, 86
17, 254365, Note_on_c, 14, 61, 0
17, 254370, Note_on_c, 14, 61, 86
17, 254395, Note_on_c, 14, 61, 0
17, 254400, Note_on_c, 14, 60, 92
17, 254425, Note_on_c, 14, 60, 0
17, 254430, Note_on_c, 14, 60, 92
17, 254455, Note_on_c, 14, 60, 0
17, 254460, Note_on_c, 14, 60, 92
17, 254485, Note_on_c, 14, 60, 0
17, 254490, Note_on_c, 14, 60, 92
17, 254515, Note_on_c, 14, 60, 0
17, 254520, Note_on_c, 14, 48, 92
17, 254545, Note_on_c, 14, 48, 0
17, 254550, Note_on_c, 14, 48, 92
17, 254575, Note_on_c, 14, 48, 0
17, 254580, Note_on_c, 14, 48, 92
17, 254605, Note_on_c, 14, 48, 0
17, 254610, Note_on_c, 14, 48, 92
17, 254635, Note_on_c, 14, 48, 0
17, 254640, Note_on_c, 14, 38, 92
17, 254665, Note_on_c, 14, 38, 0
17, 254670, Note_on_c, 14, 38, 92
17, 254695, Note_on_c, 14, 38, 0
17, 254700, Note_on_c, 14, 38, 92
17, 254725, Note_on_c, 14, 38, 0
17, 254730, Note_on_c, 14, 38, 92
17, 254755, Note_on_c, 14, 38, 0
17, 254760, Note_on_c, 14, 60, 92
17, 254785, Note_on_c, 14, 60, 0
17, 254790, Note_on_c, 14, 60, 92
17, 254815, Note_on_c, 14, 60, 0
17, 254820, Note_on_c, 14, 60, 92
17, 254845, Note_on_c, 14, 60, 0
17, 254850, Note_on_c, 14, 60, 92
17, 254875, Note_on_c, 14, 60, 0
17, 254880, Note_on_c, 14, 60, 92
17, 254905, Note_on_c, 14, 60, 0
17, 254910, Note_on_c, 14, 60, 92
17, 254935, Note_on_c, 14, 60, 0
17, 254940, Note_on_c, 14, 60, 92
17, 254965, Note_on_c, 14, 60, 0
17, 254970, Note_on_c, 14, 60, 92
17, 254995, Note_on_c, 14, 60, 0
17, 255000, Note_on_c, 14, 48, 92
17, 255025, Note_on_c, 14, 48, 0
17, 255030, Note_on_c, 14, 48, 92
17, 255055, Note_on_c, 14, 48, 0
17, 255060, Note_on_c, 14, 48, 92
17, 255085, Note_on_c, 14, 48, 0
17, 255090, Note_on_c, 14, 48, 92
17, 255115, Note_on_c, 14, 48, 0
17, 255120, Note_on_c, 14, 38, 92
17, 255145, Note_on_c, 14, 38, 0
17, 255150, Note_on_c, 14, 38, 92
17, 255175, Note_on_c, 14, 38, 0
17, 255180, Note_on_c, 14, 38, 92
17, 255205, Note_on_c, 14, 38, 0
17, 255210, Note_on_c, 14, 38, 92
17, 255235, Note_on_c, 14, 38, 0
17, 255240, Note_on_c, 14, 60, 92
17, 255265, Note_on_c, 14, 60, 0
17, 255270, Note_on_c, 14, 60, 92
17, 255295, Note_on_c, 14, 60, 0
17, 255300, Note_on_c, 14, 60, 92
17, 255325, Note_on_c, 14, 60, 0
17, 255330, Note_on_c, 14, 60, 92
17, 255355, Note_on_c, 14, 60, 0
17, 255360, Note_on_c, 14, 59, 92
17, 255385, Note_on_c, 14, 59, 0
17, 255390, Note_on_c, 14, 59, 92
17, 255415, Note_on_c, 14, 59, 0
17, 255420, Note_on_c, 14, 59, 92
17, 255445, Note_on_c, 14, 59, 0
17, 255450, Note_on_c, 14, 59, 92
17, 255475, Note_on_c, 14, 59, 0
17, 255480, Note_on_c, 14, 47, 92
17, 255505, Note_on_c, 14, 47, 0
17, 255510, Note_on_c, 14, 47, 92
17, 255535, Note_on_c, 14, 47, 0
17, 255540, Note_on_c, 14, 47, 92
17, 255565, Note_on_c, 14, 47, 0
17, 255570, Note_on_c, 14, 47, 92
17, 255595, Note_on_c, 14, 47, 0
17, 255600, Note_on_c, 14, 38, 92
17, 255625, Note_on_c, 14, 38, 0
17, 255630, Note_on_c, 14, 38, 92
17, 255655, Note_on_c, 14, 38, 0
17, 255660, Note_on_c, 14, 38, 92
17, 255685, Note_on_c, 14, 38, 0
17, 255690, Note_on_c, 14, 38, 92
17, 255715, Note_on_c, 14, 38, 0
17, 255720, Note_on_c, 14, 59, 92
17, 255745, Note_on_c, 14, 59, 0
17, 255750, Note_on_c, 14, 59, 92
17, 255775, Note_on_c, 14, 59, 0
17, 255780, Note_on_c, 14, 59, 92
17, 255805, Note_on_c, 14, 59, 0
17, 255810, Note_on_c, 14, 59, 92
17, 255835, Note_on_c, 14, 59, 0
17, 255840, Note_on_c, 14, 61, 92
17, 255865, Note_on_c, 14, 61, 0
17, 255870, Note_on_c, 14, 61, 92
17, 255895, Note_on_c, 14, 61, 0
17, 255900, Note_on_c, 14, 61, 92
17, 255925, Note_on_c, 14, 61, 0
17, 255930, Note_on_c, 14, 61, 92
17, 255955, Note_on_c, 14, 61, 0
17, 255960, Note_on_c, 14, 49, 92
17, 255985, Note_on_c, 14, 49, 0
17, 255990, Note_on_c, 14, 49, 92
17, 256015, Note_on_c, 14, 49, 0
17, 256020, Note_on_c, 14, 49, 92
17, 256045, Note_on_c, 14, 49, 0
17, 256050, Note_on_c, 14, 49, 92
17, 256075, Note_on_c, 14, 49, 0
17, 256080, Note_on_c, 14, 38, 92
17, 256105, Note_on_c, 14, 38, 0
17, 256110, Note_on_c, 14, 38, 92
17, 256135, Note_on_c, 14, 38, 0
17, 256140, Note_on_c, 14, 38, 92
17, 256165, Note_on_c, 14, 38, 0
17, 256170, Note_on_c, 14, 38, 92
17, 256195, Note_on_c, 14, 38, 0
17, 256200, Note_on_c, 14, 61, 92
17, 256225, Note_on_c, 14, 61, 0
17, 256230, Note_on_c, 14, 61, 92
17, 256255, Note_on_c, 14, 61, 0
17, 256260, Note_on_c, 14, 61, 92
17, 256285, Note_on_c, 14, 61, 0
17, 256290, Note_on_c, 14, 61, 92
17, 256315, Note_on_c, 14, 61, 0
17, 256320, Note_on_c, 14, 60, 92
17, 256345, Note_on_c, 14, 60, 0
17, 256350, Note_on_c, 14, 60, 92
17, 256375, Note_on_c, 14, 60, 0
17, 256380, Note_on_c, 14, 60, 92
17, 256405, Note_on_c, 14, 60, 0
17, 256410, Note_on_c, 14, 60, 92
17, 256435, Note_on_c, 14, 60, 0
17, 256440, Note_on_c, 14, 48, 92
17, 256465, Note_on_c, 14, 48, 0
17, 256470, Note_on_c, 14, 48, 92
17, 256495, Note_on_c, 14, 48, 0
17, 256500, Note_on_c, 14, 48, 92
17, 256525, Note_on_c, 14, 48, 0
17, 256530, Note_on_c, 14, 48, 92
17, 256555, Note_on_c, 14, 48, 0
17, 256560, Note_on_c, 14, 38, 92
17, 256585, Note_on_c, 14, 38, 0
17, 256590, Note_on_c, 14, 38, 92
17, 256615, Note_on_c, 14, 38, 0
17, 256620, Note_on_c, 14, 38, 92
17, 256645, Note_on_c, 14, 38, 0
17, 256650, Note_on_c, 14, 38, 92
17, 256675, Note_on_c, 14, 38, 0
17, 256680, Note_on_c, 14, 60, 92
17, 256705, Note_on_c, 14, 60, 0
17, 256710, Note_on_c, 14, 60, 92
17, 256735, Note_on_c, 14, 60, 0
17, 256740, Note_on_c, 14, 60, 92
17, 256765, Note_on_c, 14, 60, 0
17, 256770, Note_on_c, 14, 60, 92
17, 256795, Note_on_c, 14, 60, 0
17, 256800, Note_on_c, 14, 60, 92
17, 256825, Note_on_c, 14, 60, 0
17, 256830, Note_on_c, 14, 60, 92
17, 256855, Note_on_c, 14, 60, 0
17, 256860, Note_on_c, 14, 60, 92
17, 256885, Note_on_c, 14, 60, 0
17, 256890, Note_on_c, 14, 60, 92
17, 256915, Note_on_c, 14, 60, 0
17, 256920, Note_on_c, 14, 48, 92
17, 256945, Note_on_c, 14, 48, 0
17, 256950, Note_on_c, 14, 48, 92
17, 256975, Note_on_c, 14, 48, 0
17, 256980, Note_on_c, 14, 48, 92
17, 257005, Note_on_c, 14, 48, 0
17, 257010, Note_on_c, 14, 48, 92
17, 257035, Note_on_c, 14, 48, 0
17, 257040, Note_on_c, 14, 38, 92
17, 257065, Note_on_c, 14, 38, 0
17, 257070, Note_on_c, 14, 38, 92
17, 257095, Note_on_c, 14, 38, 0
17, 257100, Note_on_c, 14, 38, 92
17, 257125, Note_on_c, 14, 38, 0
17, 257130, Note_on_c, 14, 38, 92
17, 257155, Note_on_c, 14, 38, 0
17, 257160, Note_on_c, 14, 60, 92
17, 257185, Note_on_c, 14, 60, 0
17, 257190, Note_on_c, 14, 60, 92
17, 257215, Note_on_c, 14, 60, 0
17, 257220, Note_on_c, 14, 60, 92
17, 257245, Note_on_c, 14, 60, 0
17, 257250, Note_on_c, 14, 60, 92
17, 257275, Note_on_c, 14, 60, 0
17, 257280, Note_on_c, 14, 59, 92
17, 257305, Note_on_c, 14, 59, 0
17, 257310, Note_on_c, 14, 59, 92
17, 257335, Note_on_c, 14, 59, 0
17, 257340, Note_on_c, 14, 59, 92
17, 257365, Note_on_c, 14, 59, 0
17, 257370, Note_on_c, 14, 59, 92
17, 257395, Note_on_c, 14, 59, 0
17, 257400, Note_on_c, 14, 47, 92
17, 257425, Note_on_c, 14, 47, 0
17, 257430, Note_on_c, 14, 47, 92
17, 257455, Note_on_c, 14, 47, 0
17, 257460, Note_on_c, 14, 47, 92
17, 257485, Note_on_c, 14, 47, 0
17, 257490, Note_on_c, 14, 47, 92
17, 257515, Note_on_c, 14, 47, 0
17, 257520, Note_on_c, 14, 38, 92
17, 257545, Note_on_c, 14, 38, 0
17, 257550, Note_on_c, 14, 38, 92
17, 257575, Note_on_c, 14, 38, 0
17, 257580, Note_on_c, 14, 38, 92
17, 257605, Note_on_c, 14, 38, 0
17, 257610, Note_on_c, 14, 38, 92
17, 257635, Note_on_c, 14, 38, 0
17, 257640, Note_on_c, 14, 59, 92
17, 257665, Note_on_c, 14, 59, 0
17, 257670, Note_on_c, 14, 59, 92
17, 257695, Note_on_c, 14, 59, 0
17, 257700, Note_on_c, 14, 59, 92
17, 257725, Note_on_c, 14, 59, 0
17, 257730, Note_on_c, 14, 59, 92
17, 257755, Note_on_c, 14, 59, 0
17, 257760, Note_on_c, 14, 61, 92
17, 257785, Note_on_c, 14, 61, 0
17, 257790, Note_on_c, 14, 61, 92
17, 257815, Note_on_c, 14, 61, 0
17, 257820, Note_on_c, 14, 61, 92
17, 257845, Note_on_c, 14, 61, 0
17, 257850, Note_on_c, 14, 61, 92
17, 257875, Note_on_c, 14, 61, 0
17, 257880, Note_on_c, 14, 49, 92
17, 257905, Note_on_c, 14, 49, 0
17, 257910, Note_on_c, 14, 49, 92
17, 257935, Note_on_c, 14, 49, 0
17, 257940, Note_on_c, 14, 49, 92
17, 257965, Note_on_c, 14, 49, 0
17, 257970, Note_on_c, 14, 49, 92
17, 257995, Note_on_c, 14, 49, 0
17, 258000, Note_on_c, 14, 38, 92
17, 258025, Note_on_c, 14, 38, 0
17, 258030, Note_on_c, 14, 38, 92
17, 258055, Note_on_c, 14, 38, 0
17, 258060, Note_on_c, 14, 38, 92
17, 258085, Note_on_c, 14, 38, 0
17, 258090, Note_on_c, 14, 38, 92
17, 258115, Note_on_c, 14, 38, 0
17, 258120, Note_on_c, 14, 62, 92
17, 258145, Note_on_c, 14, 62, 0
17, 258150, Note_on_c, 14, 62, 92
17, 258175, Note_on_c, 14, 62, 0
17, 258180, Note_on_c, 14, 62, 92
17, 258205, Note_on_c, 14, 62, 0
17, 258210, Note_on_c, 14, 62, 92
17, 258235, Note_on_c, 14, 62, 0
17, 258240, Note_on_c, 14, 57, 92
17, 258479, Note_on_c, 14, 57, 0
17, 258480, Note_on_c, 14, 57, 92
17, 258681, Note_on_c, 14, 57, 0
17, 258690, Note_on_c, 14, 53, 92
17, 258711, Note_on_c, 14, 53, 0
17, 258720, Note_on_c, 14, 50, 92
17, 258921, Note_on_c, 14, 50, 0
17, 258930, Note_on_c, 14, 45, 92
17, 258951, Note_on_c, 14, 45, 0
17, 258960, Note_on_c, 14, 41, 92
17, 259124, Note_on_c, 14, 41, 0
17, 259140, Note_on_c, 14, 45, 92
17, 259169, Note_on_c, 14, 45, 0
17, 259170, Note_on_c, 14, 41, 92
17, 259191, Note_on_c, 14, 41, 0
17, 259200, Note_on_c, 14, 38, 92
17, 259319, Note_on_c, 14, 38, 0
17, 259380, Note_on_c, 14, 45, 92
17, 259409, Note_on_c, 14, 45, 0
17, 259410, Note_on_c, 14, 41, 92
17, 259431, Note_on_c, 14, 41, 0
17, 259440, Note_on_c, 14, 38, 92
17, 259559, Note_on_c, 14, 38, 0
17, 259620, Note_on_c, 14, 50, 92
17, 259649, Note_on_c, 14, 50, 0
17, 259650, Note_on_c, 14, 45, 92
17, 259671, Note_on_c, 14, 45, 0
17, 259680, Note_on_c, 14, 41, 92
17, 259799, Note_on_c, 14, 41, 0
17, 259860, Note_on_c, 14, 53, 92
17, 259889, Note_on_c, 14, 53, 0
17, 259890, Note_on_c, 14, 50, 92
17, 259911, Note_on_c, 14, 50, 0
17, 259920, Note_on_c, 14, 45, 92
17, 260039, Note_on_c, 14, 45, 0
17, 260100, Note_on_c, 14, 57, 92
17, 260129, Note_on_c, 14, 57, 0
17, 260130, Note_on_c, 14, 53, 92
17, 260151, Note_on_c, 14, 53, 0
17, 260160, Note_on_c, 14, 50, 92
17, 260399, Note_on_c, 14, 50, 0
17, 260430, Note_on_c, 14, 50, 92
17, 260459, Note_on_c, 14, 50, 0
17, 260460, Note_on_c, 14, 52, 92
17, 260489, Note_on_c, 14, 52, 0
17, 260490, Note_on_c, 14, 53, 92
17, 260519, Note_on_c, 14, 53, 0
17, 260520, Note_on_c, 14, 55, 92
17, 260549, Note_on_c, 14, 55, 0
17, 260550, Note_on_c, 14, 57, 92
17, 260579, Note_on_c, 14, 57, 0
17, 260580, Note_on_c, 14, 59, 92
17, 260609, Note_on_c, 14, 59, 0
17, 260610, Note_on_c, 14, 61, 92
17, 260631, Note_on_c, 14, 61, 0
17, 260640, Note_on_c, 14, 62, 104
17, 260699, Note_on_c, 14, 62, 0
17, 260700, Note_on_c, 14, 62, 92
17, 260879, Note_on_c, 14, 62, 0
17, 260910, Note_on_c, 14, 38, 92
17, 260939, Note_on_c, 14, 38, 0
17, 260940, Note_on_c, 14, 40, 92
17, 260969, Note_on_c, 14, 40, 0
17, 260970, Note_on_c, 14, 41, 92
17, 260999, Note_on_c, 14, 41, 0
17, 261000, Note_on_c, 14, 43, 92
17, 261029, Note_on_c, 14, 43, 0
17, 261030, Note_on_c, 14, 45, 92
17, 261059, Note_on_c, 14, 45, 0
17, 261060, Note_on_c, 14, 47, 92
17, 261089, Note_on_c, 14, 47, 0
17, 261090, Note_on_c, 14, 49, 92
17, 261111, Note_on_c, 14, 49, 0
17, 261120, Note_on_c, 14, 50, 92
17, 261411, Note_on_c, 14, 50, 0
17, 261420, Note_on_c, 14, 53, 92
17, 261464, Note_on_c, 14, 53, 0
17, 261480, Note_on_c, 14, 52, 92
17, 261524, Note_on_c, 14, 52, 0
17, 261540, Note_on_c, 14, 50, 92
17, 261584, Note_on_c, 14, 50, 0
17, 261600, Note_on_c, 14, 57, 92
17, 261689, Note_on_c, 14, 57, 0
17, 261720, Note_on_c, 14, 55, 92
17, 261809, Note_on_c, 14, 55, 0
17, 261840, Note_on_c, 14, 52, 92
17, 261929, Note_on_c, 14, 52, 0
17, 261960, Note_on_c, 14, 57, 92
17, 262049, Note_on_c, 14, 57, 0
17, 262080, Note_on_c, 14, 50, 92
17, 262199, Note_on_c, 14, 50, 0
17, 262199, End_track
18, 0, Start_track
18, 0, Title_t, "Contrabass"
18, 0, MIDI_port, 0
18, 0, Program_c, 15, 48
18, 0, Control_c, 15, 7, 88
18, 0, Control_c, 15, 10, 100
18, 0, Control_c, 15, 11, 127
18, 1890, Note_on_c, 15, 40, 32
18, 1911, Note_on_c, 15, 40, 0
18, 1920, Note_on_c, 15, 33, 32
18, 2159, Note_on_c, 15, 33, 0
18, 3810, Note_on_c, 15, 40, 32
18, 3831, Note_on_c, 15, 40, 0
18, 3840, Note_on_c, 15, 33, 32
18, 4079, Note_on_c, 15, 33, 0
18, 5730, Note_on_c, 15, 40, 50
18, 5751, Note_on_c, 15, 40, 0
18, 5760, Note_on_c, 15, 33, 52
18, 5879, Note_on_c, 15, 33, 0
18, 6540, Note_on_c, 15, 40, 68
18, 6584, Note_on_c, 15, 40, 0
18, 6600, Note_on_c, 15, 40, 69
18, 6659, Note_on_c, 15, 40, 0
18, 6660, Note_on_c, 15, 33, 69
18, 6719, Note_on_c, 15, 33, 0
18, 7650, Note_on_c, 15, 50, 92
18, 7671, Note_on_c, 15, 50, 0
18, 7680, Note_on_c, 15, 45, 92
18, 8121, Note_on_c, 15, 45, 0
18, 8130, Note_on_c, 15, 41, 92
18, 8151, Note_on_c, 15, 41, 0
18, 8160, Note_on_c, 15, 38, 92
18, 8361, Note_on_c, 15, 38, 0
18, 8370, Note_on_c, 15, 33, 92
18, 8391, Note_on_c, 15, 33, 0
18, 8400, Note_on_c, 15, 29, 92
18, 8571, Note_on_c, 15, 29, 0
18, 8580, Note_on_c, 15, 33, 92
18, 8609, Note_on_c, 15, 33, 0
18, 8610, Note_on_c, 15, 29, 92
18, 8631, Note_on_c, 15, 29, 0
18, 8640, Note_on_c, 15, 38, 92
18, 8931, Note_on_c, 15, 38, 0
18, 8940, Note_on_c, 15, 41, 92
18, 8984, Note_on_c, 15, 41, 0
18, 9000, Note_on_c, 15, 40, 92
18, 9044, Note_on_c, 15, 40, 0
18, 9060, Note_on_c, 15, 38, 92
18, 9104, Note_on_c, 15, 38, 0
18, 9120, Note_on_c, 15, 45, 92
18, 9209, Note_on_c, 15, 45, 0
18, 9240, Note_on_c, 15, 43, 92
18, 9329, Note_on_c, 15, 43, 0
18, 9360, Note_on_c, 15, 40, 92
18, 9449, Note_on_c, 15, 40, 0
18, 9480, Note_on_c, 15, 45, 92
18, 9569, Note_on_c, 15, 45, 0
18, 9600, Note_on_c, 15, 50, 104
18, 9779, Note_on_c, 15, 50, 0
18, 9840, Note_on_c, 15, 45, 104
18, 10019, Note_on_c, 15, 45, 0
18, 10080, Note_on_c, 15, 38, 104
18, 10259, Note_on_c, 15, 38, 0
18, 10560, Note_on_c, 15, 43, 104
18, 10739, Note_on_c, 15, 43, 0
18, 10800, Note_on_c, 15, 38, 104
18, 10979, Note_on_c, 15, 38, 0
18, 11040, Note_on_c, 15, 31, 92
18, 11144, Note_on_c, 15, 31, 0
18, 11160, Note_on_c, 15, 39, 92
18, 11519, Note_on_c, 15, 39, 0
18, 11520, Note_on_c, 15, 39, 92
18, 12104, Note_on_c, 15, 39, 0
18, 12120, Note_on_c, 15, 39, 92
18, 12224, Note_on_c, 15, 39, 0
18, 12240, Note_on_c, 15, 39, 92
18, 12344, Note_on_c, 15, 39, 0
18, 12360, Note_on_c, 15, 39, 92
18, 12449, Note_on_c, 15, 39, 0
18, 12480, Note_on_c, 15, 40, 104
18, 12599, Note_on_c, 15, 40, 0
18, 12960, Note_on_c, 15, 33, 44
18, 13079, Note_on_c, 15, 33, 0
18, 13440, Note_on_c, 15, 33, 80
18, 13559, Note_on_c, 15, 33, 0
18, 13920, Note_on_c, 15, 33, 44
18, 14039, Note_on_c, 15, 33, 0
18, 14400, Note_on_c, 15, 33, 80
18, 14519, Note_on_c, 15, 33, 0
18, 14640, Note_on_c, 15, 43, 92
18, 14699, Note_on_c, 15, 43, 0
18, 14700, Note_on_c, 15, 43, 80
18, 15104, Note_on_c, 15, 43, 0
18, 15120, Note_on_c, 15, 44, 92
18, 15179, Note_on_c, 15, 44, 0
18, 15180, Note_on_c, 15, 44, 80
18, 15584, Note_on_c, 15, 44, 0
18, 15600, Note_on_c, 15, 45, 92
18, 15659, Note_on_c, 15, 45, 0
18, 15660, Note_on_c, 15, 45, 80
18, 16064, Note_on_c, 15, 45, 0
18, 16080, Note_on_c, 15, 33, 92
18, 16199, Note_on_c, 15, 33, 0
18, 16320, Note_on_c, 15, 38, 80
18, 16320, Control_c, 15, 11, 127
18, 16333, Control_c, 15, 11, 124
18, 16347, Control_c, 15, 11, 120
18, 16360, Control_c, 15, 11, 117
18, 16373, Control_c, 15, 11, 114
18, 16387, Control_c, 15, 11, 110
18, 16400, Control_c, 15, 11, 107
18, 16413, Control_c, 15, 11, 104
18, 16427, Control_c, 15, 11, 100
18, 16440, Control_c, 15, 11, 97
18, 16453, Control_c, 15, 11, 94
18, 16467, Control_c, 15, 11, 90
18, 16480, Control_c, 15, 11, 87
18, 16493, Control_c, 15, 11, 84
18, 16507, Control_c, 15, 11, 80
18, 16520, Control_c, 15, 11, 77
18, 16533, Control_c, 15, 11, 74
18, 16547, Control_c, 15, 11, 70
18, 16559, Note_on_c, 15, 38, 0
18, 16560, Control_c, 15, 11, 67
18, 17760, Control_c, 15, 11, 127
18, 18210, Note_on_c, 15, 45, 32
18, 18231, Note_on_c, 15, 45, 0
18, 18240, Note_on_c, 15, 38, 32
18, 18479, Note_on_c, 15, 38, 0
18, 20130, Note_on_c, 15, 45, 32
18, 20151, Note_on_c, 15, 45, 0
18, 20160, Note_on_c, 15, 38, 32
18, 20399, Note_on_c, 15, 38, 0
18, 22050, Note_on_c, 15, 45, 50
18, 22071, Note_on_c, 15, 45, 0
18, 22080, Note_on_c, 15, 38, 52
18, 22319, Note_on_c, 15, 38, 0
18, 22860, Note_on_c, 15, 45, 68
18, 22904, Note_on_c, 15, 45, 0
18, 22920, Note_on_c, 15, 45, 69
18, 22979, Note_on_c, 15, 45, 0
18, 22980, Note_on_c, 15, 38, 69
18, 23039, Note_on_c, 15, 38, 0
18, 23970, Note_on_c, 15, 46, 92
18, 23991, Note_on_c, 15, 46, 0
18, 24000, Note_on_c, 15, 41, 92
18, 24441, Note_on_c, 15, 41, 0
18, 24450, Note_on_c, 15, 38, 92
18, 24471, Note_on_c, 15, 38, 0
18, 24480, Note_on_c, 15, 34, 92
18, 24681, Note_on_c, 15, 34, 0
18, 24690, Note_on_c, 15, 29, 92
18, 24711, Note_on_c, 15, 29, 0
18, 24720, Note_on_c, 15, 26, 92
18, 24891, Note_on_c, 15, 26, 0
18, 24900, Note_on_c, 15, 29, 92
18, 24929, Note_on_c, 15, 29, 0
18, 24930, Note_on_c, 15, 26, 92
18, 24951, Note_on_c, 15, 26, 0
18, 24960, Note_on_c, 15, 34, 92
18, 25251, Note_on_c, 15, 34, 0
18, 25260, Note_on_c, 15, 38, 92
18, 25304, Note_on_c, 15, 38, 0
18, 25320, Note_on_c, 15, 36, 92
18, 25364, Note_on_c, 15, 36, 0
18, 25380, Note_on_c, 15, 34, 92
18, 25424, Note_on_c, 15, 34, 0
18, 25440, Note_on_c, 15, 41, 92
18, 25529, Note_on_c, 15, 41, 0
18, 25560, Note_on_c, 15, 39, 92
18, 25649, Note_on_c, 15, 39, 0
18, 25680, Note_on_c, 15, 36, 92
18, 25769, Note_on_c, 15, 36, 0
18, 25800, Note_on_c, 15, 41, 92
18, 25889, Note_on_c, 15, 41, 0
18, 25920, Note_on_c, 15, 38, 104
18, 26039, Note_on_c, 15, 38, 0
18, 26220, Note_on_c, 15, 41, 92
18, 26264, Note_on_c, 15, 41, 0
18, 26280, Note_on_c, 15, 39, 92
18, 26324, Note_on_c, 15, 39, 0
18, 26340, Note_on_c, 15, 38, 92
18, 26384, Note_on_c, 15, 38, 0
18, 26400, Note_on_c, 15, 46, 104
18, 26519, Note_on_c, 15, 46, 0
18, 26880, Note_on_c, 15, 40, 104
18, 26999, Note_on_c, 15, 40, 0
18, 27180, Note_on_c, 15, 43, 92
18, 27224, Note_on_c, 15, 43, 0
18, 27240, Note_on_c, 15, 41, 92
18, 27284, Note_on_c, 15, 41, 0
18, 27300, Note_on_c, 15, 40, 92
18, 27344, Note_on_c, 15, 40, 0
18, 27360, Note_on_c, 15, 49, 104
18, 27479, Note_on_c, 15, 49, 0
18, 27840, Note_on_c, 15, 41, 104
18, 27959, Note_on_c, 15, 41, 0
18, 28140, Note_on_c, 15, 45, 92
18, 28184, Note_on_c, 15, 45, 0
18, 28200, Note_on_c, 15, 43, 92
18, 28244, Note_on_c, 15, 43, 0
18, 28260, Note_on_c, 15, 41, 92
18, 28304, Note_on_c, 15, 41, 0
18, 28320, Note_on_c, 15, 50, 104
18, 28439, Note_on_c, 15, 50, 0
18, 28620, Note_on_c, 15, 45, 92
18, 28664, Note_on_c, 15, 45, 0
18, 28680, Note_on_c, 15, 43, 92
18, 28724, Note_on_c, 15, 43, 0
18, 28740, Note_on_c, 15, 42, 92
18, 28784, Note_on_c, 15, 42, 0
18, 28800, Note_on_c, 15, 50, 104
18, 28919, Note_on_c, 15, 50, 0
18, 29100, Note_on_c, 15, 46, 92
18, 29144, Note_on_c, 15, 46, 0
18, 29160, Note_on_c, 15, 45, 92
18, 29204, Note_on_c, 15, 45, 0
18, 29220, Note_on_c, 15, 43, 92
18, 29264, Note_on_c, 15, 43, 0
18, 29280, Note_on_c, 15, 50, 104
18, 29324, Note_on_c, 15, 50, 0
18, 29340, Note_on_c, 15, 34, 92
18, 29384, Note_on_c, 15, 34, 0
18, 29400, Note_on_c, 15, 33, 92
18, 29444, Note_on_c, 15, 33, 0
18, 29460, Note_on_c, 15, 31, 92
18, 29504, Note_on_c, 15, 31, 0
18, 29520, Note_on_c, 15, 32, 104
18, 29564, Note_on_c, 15, 32, 0
18, 29580, Note_on_c, 15, 44, 92
18, 29624, Note_on_c, 15, 44, 0
18, 29640, Note_on_c, 15, 44, 92
18, 29684, Note_on_c, 15, 44, 0
18, 29700, Note_on_c, 15, 44, 92
18, 29744, Note_on_c, 15, 44, 0
18, 29760, Note_on_c, 15, 33, 104
18, 29819, Note_on_c, 15, 33, 0
18, 29820, Note_on_c, 15, 33, 92
18, 30224, Note_on_c, 15, 33, 0
18, 30240, Note_on_c, 15, 37, 92
18, 30329, Note_on_c, 15, 37, 0
18, 30360, Note_on_c, 15, 38, 92
18, 30449, Note_on_c, 15, 38, 0
18, 30480, Note_on_c, 15, 40, 92
18, 30569, Note_on_c, 15, 40, 0
18, 30600, Note_on_c, 15, 41, 92
18, 30689, Note_on_c, 15, 41, 0
18, 30720, Note_on_c, 15, 43, 92
18, 30809, Note_on_c, 15, 43, 0
18, 30840, Note_on_c, 15, 41, 92
18, 30929, Note_on_c, 15, 41, 0
18, 30960, Note_on_c, 15, 40, 92
18, 31049, Note_on_c, 15, 40, 0
18, 31080, Note_on_c, 15, 38, 92
18, 31169, Note_on_c, 15, 38, 0
18, 31200, Note_on_c, 15, 37, 104
18, 31379, Note_on_c, 15, 37, 0
18, 31440, Note_on_c, 15, 38, 104
18, 31619, Note_on_c, 15, 38, 0
18, 31680, Note_on_c, 15, 33, 104
18, 31731, Note_on_c, 15, 33, 0
18, 31740, Note_on_c, 15, 45, 92
18, 31799, Note_on_c, 15, 45, 0
18, 31800, Note_on_c, 15, 46, 92
18, 31851, Note_on_c, 15, 46, 0
18, 31860, Note_on_c, 15, 45, 92
18, 31919, Note_on_c, 15, 45, 0
18, 31920, Note_on_c, 15, 46, 92
18, 31971, Note_on_c, 15, 46, 0
18, 31980, Note_on_c, 15, 45, 92
18, 32039, Note_on_c, 15, 45, 0
18, 32040, Note_on_c, 15, 46, 92
18, 32091, Note_on_c, 15, 46, 0
18, 32100, Note_on_c, 15, 45, 92
18, 32159, Note_on_c, 15, 45, 0
18, 32160, Note_on_c, 15, 43, 92
18, 32211, Note_on_c, 15, 43, 0
18, 32220, Note_on_c, 15, 33, 92
18, 32279, Note_on_c, 15, 33, 0
18, 32280, Note_on_c, 15, 41, 92
18, 32331, Note_on_c, 15, 41, 0
18, 32340, Note_on_c, 15, 33, 92
18, 32399, Note_on_c, 15, 33, 0
18, 32400, Note_on_c, 15, 40, 92
18, 32451, Note_on_c, 15, 40, 0
18, 32460, Note_on_c, 15, 33, 92
18, 32519, Note_on_c, 15, 33, 0
18, 32520, Note_on_c, 15, 38, 92
18, 32571, Note_on_c, 15, 38, 0
18, 32580, Note_on_c, 15, 33, 92
18, 32639, Note_on_c, 15, 33, 0
18, 32640, Note_on_c, 15, 37, 92
18, 32691, Note_on_c, 15, 37, 0
18, 32700, Note_on_c, 15, 33, 92
18, 32759, Note_on_c, 15, 33, 0
18, 32760, Note_on_c, 15, 38, 92
18, 32811, Note_on_c, 15, 38, 0
18, 32820, Note_on_c, 15, 33, 92
18, 32879, Note_on_c, 15, 33, 0
18, 32880, Note_on_c, 15, 40, 92
18, 32931, Note_on_c, 15, 40, 0
18, 32940, Note_on_c, 15, 33, 92
18, 32999, Note_on_c, 15, 33, 0
18, 33000, Note_on_c, 15, 41, 92
18, 33051, Note_on_c, 15, 41, 0
18, 33060, Note_on_c, 15, 33, 92
18, 33119, Note_on_c, 15, 33, 0
18, 33120, Note_on_c, 15, 43, 104
18, 33299, Note_on_c, 15, 43, 0
18, 33360, Note_on_c, 15, 41, 104
18, 33539, Note_on_c, 15, 41, 0
18, 33600, Note_on_c, 15, 40, 104
18, 33779, Note_on_c, 15, 40, 0
18, 33840, Note_on_c, 15, 37, 104
18, 34019, Note_on_c, 15, 37, 0
18, 34080, Note_on_c, 15, 36, 104
18, 34259, Note_on_c, 15, 36, 0
18, 34320, Note_on_c, 15, 30, 104
18, 34499, Note_on_c, 15, 30, 0
18, 34560, Control_c, 15, 11, 127
18, 34560, Note_on_c, 15, 29, 92
18, 34587, Control_c, 15, 11, 123
18, 34613, Control_c, 15, 11, 118
18, 34640, Control_c, 15, 11, 114
18, 34667, Control_c, 15, 11, 109
18, 34693, Control_c, 15, 11, 105
18, 34720, Control_c, 15, 11, 100
18, 34739, Note_on_c, 15, 29, 0
18, 34747, Control_c, 15, 11, 96
18, 34773, Control_c, 15, 11, 91
18, 34800, Note_on_c, 15, 29, 92
18, 34800, Control_c, 15, 11, 87
18, 34827, Control_c, 15, 11, 83
18, 34853, Control_c, 15, 11, 78
18, 34880, Control_c, 15, 11, 74
18, 34907, Control_c, 15, 11, 69
18, 34933, Control_c, 15, 11, 65
18, 34960, Control_c, 15, 11, 60
18, 34979, Note_on_c, 15, 29, 0
18, 35038, Control_c, 15, 11, 127
18, 35040, Note_on_c, 15, 29, 44
18, 35144, Note_on_c, 15, 29, 0
18, 35160, Note_on_c, 15, 41, 44
18, 35211, Note_on_c, 15, 41, 0
18, 35220, Note_on_c, 15, 41, 44
18, 35271, Note_on_c, 15, 41, 0
18, 35280, Note_on_c, 15, 41, 44
18, 35399, Note_on_c, 15, 41, 0
18, 36120, Note_on_c, 15, 41, 44
18, 36171, Note_on_c, 15, 41, 0
18, 36180, Note_on_c, 15, 41, 44
18, 36231, Note_on_c, 15, 41, 0
18, 36240, Note_on_c, 15, 41, 44
18, 36359, Note_on_c, 15, 41, 0
18, 37080, Note_on_c, 15, 41, 44
18, 37131, Note_on_c, 15, 41, 0
18, 37140, Note_on_c, 15, 41, 44
18, 37191, Note_on_c, 15, 41, 0
18, 37200, Note_on_c, 15, 41, 44
18, 37319, Note_on_c, 15, 41, 0
18, 37800, Note_on_c, 15, 33, 44
18, 37971, Note_on_c, 15, 33, 0
18, 37980, Note_on_c, 15, 34, 44
18, 38024, Note_on_c, 15, 34, 0
18, 38040, Note_on_c, 15, 37, 44
18, 38084, Note_on_c, 15, 37, 0
18, 38100, Note_on_c, 15, 38, 44
18, 38144, Note_on_c, 15, 38, 0
18, 38160, Note_on_c, 15, 41, 44
18, 38279, Note_on_c, 15, 41, 0
18, 38400, Note_on_c, 15, 37, 44
18, 38444, Note_on_c, 15, 37, 0
18, 38460, Note_on_c, 15, 38, 44
18, 38504, Note_on_c, 15, 38, 0
18, 38520, Note_on_c, 15, 41, 44
18, 38564, Note_on_c, 15, 41, 0
18, 38580, Note_on_c, 15, 45, 44
18, 38624, Note_on_c, 15, 45, 0
18, 38640, Note_on_c, 15, 46, 44
18, 38759, Note_on_c, 15, 46, 0
18, 38880, Note_on_c, 15, 36, 44
18, 38924, Note_on_c, 15, 36, 0
18, 38940, Note_on_c, 15, 41, 44
18, 38984, Note_on_c, 15, 41, 0
18, 39000, Note_on_c, 15, 45, 44
18, 39044, Note_on_c, 15, 45, 0
18, 39060, Note_on_c, 15, 47, 44
18, 39104, Note_on_c, 15, 47, 0
18, 39120, Note_on_c, 15, 48, 44
18, 39239, Note_on_c, 15, 48, 0
18, 39360, Note_on_c, 15, 39, 44
18, 39404, Note_on_c, 15, 39, 0
18, 39420, Note_on_c, 15, 41, 44
18, 39464, Note_on_c, 15, 41, 0
18, 39480, Note_on_c, 15, 45, 44
18, 39524, Note_on_c, 15, 45, 0
18, 39540, Note_on_c, 15, 48, 44
18, 39584, Note_on_c, 15, 48, 0
18, 39600, Note_on_c, 15, 51, 44
18, 39719, Note_on_c, 15, 51, 0
18, 40080, Note_on_c, 15, 38, 50
18, 40124, Note_on_c, 15, 38, 0
18, 40140, Note_on_c, 15, 41, 51
18, 40184, Note_on_c, 15, 41, 0
18, 40200, Note_on_c, 15, 45, 53
18, 40244, Note_on_c, 15, 45, 0
18, 40260, Note_on_c, 15, 46, 54
18, 40304, Note_on_c, 15, 46, 0
18, 40320, Note_on_c, 15, 50, 56
18, 40439, Note_on_c, 15, 50, 0
18, 40560, Note_on_c, 15, 38, 62
18, 40604, Note_on_c, 15, 38, 0
18, 40620, Note_on_c, 15, 41, 63
18, 40664, Note_on_c, 15, 41, 0
18, 40680, Note_on_c, 15, 45, 65
18, 40724, Note_on_c, 15, 45, 0
18, 40740, Note_on_c, 15, 46, 66
18, 40784, Note_on_c, 15, 46, 0
18, 40800, Note_on_c, 15, 48, 68
18, 40919, Note_on_c, 15, 48, 0
18, 41040, Note_on_c, 15, 36, 62
18, 41084, Note_on_c, 15, 36, 0
18, 41100, Note_on_c, 15, 39, 61
18, 41144, Note_on_c, 15, 39, 0
18, 41160, Note_on_c, 15, 41, 59
18, 41204, Note_on_c, 15, 41, 0
18, 41220, Note_on_c, 15, 45, 58
18, 41264, Note_on_c, 15, 45, 0
18, 41280, Note_on_c, 15, 48, 56
18, 41399, Note_on_c, 15, 48, 0
18, 41520, Note_on_c, 15, 39, 50
18, 41564, Note_on_c, 15, 39, 0
18, 41580, Note_on_c, 15, 45, 49
18, 41624, Note_on_c, 15, 45, 0
18, 41640, Note_on_c, 15, 48, 47
18, 41684, Note_on_c, 15, 48, 0
18, 41700, Note_on_c, 15, 51, 46
18, 41744, Note_on_c, 15, 51, 0
18, 41760, Note_on_c, 15, 50, 44
18, 41879, Note_on_c, 15, 50, 0
18, 43440, Control_c, 15, 11, 67
18, 43680, Note_on_c, 15, 31, 80
18, 43680, Control_c, 15, 11, 67
18, 43707, Control_c, 15, 11, 69
18, 43733, Control_c, 15, 11, 70
18, 43760, Control_c, 15, 11, 72
18, 43787, Control_c, 15, 11, 74
18, 43813, Control_c, 15, 11, 75
18, 43840, Control_c, 15, 11, 77
18, 43867, Control_c, 15, 11, 79
18, 43893, Control_c, 15, 11, 80
18, 43920, Control_c, 15, 11, 82
18, 43947, Control_c, 15, 11, 84
18, 43973, Control_c, 15, 11, 85
18, 44000, Control_c, 15, 11, 87
18, 44027, Control_c, 15, 11, 89
18, 44039, Note_on_c, 15, 31, 0
18, 44040, Note_on_c, 15, 41, 80
18, 44053, Control_c, 15, 11, 90
18, 44080, Control_c, 15, 11, 92
18, 44107, Control_c, 15, 11, 94
18, 44133, Control_c, 15, 11, 95
18, 44159, Note_on_c, 15, 41, 0
18, 44160, Control_c, 15, 11, 97
18, 44160, Note_on_c, 15, 41, 80
18, 44187, Control_c, 15, 11, 99
18, 44211, Note_on_c, 15, 41, 0
18, 44213, Control_c, 15, 11, 100
18, 44220, Note_on_c, 15, 39, 80
18, 44240, Control_c, 15, 11, 102
18, 44267, Control_c, 15, 11, 104
18, 44279, Note_on_c, 15, 39, 0
18, 44280, Note_on_c, 15, 38, 80
18, 44293, Control_c, 15, 11, 105
18, 44320, Control_c, 15, 11, 107
18, 44331, Note_on_c, 15, 38, 0
18, 44340, Note_on_c, 15, 48, 80
18, 44347, Control_c, 15, 11, 109
18, 44373, Control_c, 15, 11, 110
18, 44399, Note_on_c, 15, 48, 0
18, 44400, Note_on_c, 15, 46, 80
18, 44400, Control_c, 15, 11, 112
18, 44427, Control_c, 15, 11, 114
18, 44451, Note_on_c, 15, 46, 0
18, 44453, Control_c, 15, 11, 115
18, 44460, Note_on_c, 15, 56, 80
18, 44480, Control_c, 15, 11, 117
18, 44507, Control_c, 15, 11, 119
18, 44519, Note_on_c, 15, 56, 0
18, 44520, Note_on_c, 15, 55, 80
18, 44533, Control_c, 15, 11, 120
18, 44560, Control_c, 15, 11, 122
18, 44571, Note_on_c, 15, 55, 0
18, 44580, Note_on_c, 15, 53, 80
18, 44587, Control_c, 15, 11, 124
18, 44613, Control_c, 15, 11, 127
18, 44639, Note_on_c, 15, 53, 0
18, 44640, Note_on_c, 15, 51, 80
18, 44691, Note_on_c, 15, 51, 0
18, 44700, Note_on_c, 15, 50, 80
18, 44759, Note_on_c, 15, 50, 0
18, 44760, Note_on_c, 15, 48, 80
18, 44811, Note_on_c, 15, 48, 0
18, 44820, Note_on_c, 15, 46, 80
18, 44879, Note_on_c, 15, 46, 0
18, 44880, Note_on_c, 15, 45, 80
18, 44931, Note_on_c, 15, 45, 0
18, 44940, Note_on_c, 15, 43, 80
18, 44999, Note_on_c, 15, 43, 0
18, 45000, Note_on_c, 15, 41, 80
18, 45051, Note_on_c, 15, 41, 0
18, 45060, Note_on_c, 15, 39, 80
18, 45119, Note_on_c, 15, 39, 0
18, 45120, Note_on_c, 15, 41, 80
18, 45239, Note_on_c, 15, 41, 0
18, 45360, Note_on_c, 15, 53, 80
18, 45449, Note_on_c, 15, 53, 0
18, 47280, Control_c, 15, 11, 67
18, 47520, Note_on_c, 15, 48, 92
18, 47547, Control_c, 15, 11, 69
18, 47573, Control_c, 15, 11, 70
18, 47600, Control_c, 15, 11, 72
18, 47627, Control_c, 15, 11, 74
18, 47653, Control_c, 15, 11, 75
18, 47680, Control_c, 15, 11, 77
18, 47707, Control_c, 15, 11, 79
18, 47733, Control_c, 15, 11, 80
18, 47760, Control_c, 15, 11, 82
18, 47787, Control_c, 15, 11, 84
18, 47813, Control_c, 15, 11, 85
18, 47840, Control_c, 15, 11, 87
18, 47864, Note_on_c, 15, 48, 0
18, 47867, Control_c, 15, 11, 89
18, 47880, Note_on_c, 15, 46, 92
18, 47893, Control_c, 15, 11, 90
18, 47920, Control_c, 15, 11, 92
18, 47947, Control_c, 15, 11, 94
18, 47973, Control_c, 15, 11, 95
18, 47999, Note_on_c, 15, 46, 0
18, 48000, Note_on_c, 15, 45, 92
18, 48000, Control_c, 15, 11, 97
18, 48027, Control_c, 15, 11, 99
18, 48051, Note_on_c, 15, 45, 0
18, 48053, Control_c, 15, 11, 100
18, 48060, Note_on_c, 15, 43, 92
18, 48080, Control_c, 15, 11, 102
18, 48107, Control_c, 15, 11, 104
18, 48119, Note_on_c, 15, 43, 0
18, 48120, Note_on_c, 15, 41, 92
18, 48133, Control_c, 15, 11, 105
18, 48160, Control_c, 15, 11, 107
18, 48171, Note_on_c, 15, 41, 0
18, 48180, Note_on_c, 15, 39, 92
18, 48187, Control_c, 15, 11, 109
18, 48213, Control_c, 15, 11, 110
18, 48239, Note_on_c, 15, 39, 0
18, 48240, Note_on_c, 15, 38, 92
18, 48240, Control_c, 15, 11, 112
18, 48267, Control_c, 15, 11, 114
18, 48291, Note_on_c, 15, 38, 0
18, 48293, Control_c, 15, 11, 115
18, 48300, Note_on_c, 15, 36, 92
18, 48320, Control_c, 15, 11, 117
18, 48347, Control_c, 15, 11, 119
18, 48359, Note_on_c, 15, 36, 0
18, 48360, Note_on_c, 15, 34, 92
18, 48373, Control_c, 15, 11, 120
18, 48400, Control_c, 15, 11, 122
18, 48411, Note_on_c, 15, 34, 0
18, 48420, Note_on_c, 15, 33, 92
18, 48427, Control_c, 15, 11, 124
18, 48453, Control_c, 15, 11, 127
18, 48464, Note_on_c, 15, 33, 0
18, 48480, Note_on_c, 15, 38, 92
18, 48569, Note_on_c, 15, 38, 0
18, 48600, Note_on_c, 15, 38, 92
18, 48666, Note_on_c, 15, 38, 0
18, 48690, Note_on_c, 15, 38, 92
18, 48711, Note_on_c, 15, 38, 0
18, 48720, Note_on_c, 15, 38, 92
18, 48839, Note_on_c, 15, 38, 0
18, 48960, Note_on_c, 15, 39, 92
18, 49049, Note_on_c, 15, 39, 0
18, 49080, Note_on_c, 15, 38, 92
18, 49146, Note_on_c, 15, 38, 0
18, 49170, Note_on_c, 15, 38, 92
18, 49191, Note_on_c, 15, 38, 0
18, 49200, Note_on_c, 15, 39, 92
18, 49319, Note_on_c, 15, 39, 0
18, 50400, Note_on_c, 15, 38, 92
18, 50489, Note_on_c, 15, 38, 0
18, 50520, Note_on_c, 15, 38, 92
18, 50586, Note_on_c, 15, 38, 0
18, 50610, Note_on_c, 15, 38, 92
18, 50631, Note_on_c, 15, 38, 0
18, 50640, Note_on_c, 15, 38, 92
18, 50759, Note_on_c, 15, 38, 0
18, 50880, Note_on_c, 15, 39, 92
18, 50969, Note_on_c, 15, 39, 0
18, 51000, Note_on_c, 15, 38, 92
18, 51066, Note_on_c, 15, 38, 0
18, 51090, Note_on_c, 15, 38, 92
18, 51111, Note_on_c, 15, 38, 0
18, 51120, Note_on_c, 15, 39, 92
18, 51239, Note_on_c, 15, 39, 0
18, 52320, Program_c, 15, 45
18, 52800, Note_on_c, 15, 35, 28
18, 52919, Note_on_c, 15, 35, 0
18, 53280, Note_on_c, 15, 35, 28
18, 53399, Note_on_c, 15, 35, 0
18, 53760, Note_on_c, 15, 35, 28
18, 53879, Note_on_c, 15, 35, 0
18, 54000, Note_on_c, 15, 35, 28
18, 54119, Note_on_c, 15, 35, 0
18, 54120, Note_on_c, 15, 34, 28
18, 54239, Note_on_c, 15, 34, 0
18, 54240, Note_on_c, 15, 42, 28
18, 54359, Note_on_c, 15, 42, 0
18, 55080, Note_on_c, 15, 34, 28
18, 55199, Note_on_c, 15, 34, 0
18, 55320, Note_on_c, 15, 33, 28
18, 55439, Note_on_c, 15, 33, 0
18, 55560, Note_on_c, 15, 33, 28
18, 55679, Note_on_c, 15, 33, 0
18, 55800, Note_on_c, 15, 34, 28
18, 55919, Note_on_c, 15, 34, 0
18, 56040, Note_on_c, 15, 35, 28
18, 56159, Note_on_c, 15, 35, 0
18, 56280, Note_on_c, 15, 38, 28
18, 56399, Note_on_c, 15, 38, 0
18, 56520, Note_on_c, 15, 39, 28
18, 56639, Note_on_c, 15, 39, 0
18, 56760, Note_on_c, 15, 41, 28
18, 56879, Note_on_c, 15, 41, 0
18, 57000, Note_on_c, 15, 43, 28
18, 57119, Note_on_c, 15, 43, 0
18, 57180, Program_c, 15, 48
18, 57240, Note_on_c, 15, 29, 32
18, 57479, Note_on_c, 15, 29, 0
18, 57480, Note_on_c, 15, 33, 32
18, 57599, Note_on_c, 15, 33, 0
18, 57720, Note_on_c, 15, 33, 32
18, 57959, Note_on_c, 15, 33, 0
18, 57960, Note_on_c, 15, 41, 32
18, 58079, Note_on_c, 15, 41, 0
18, 58200, Note_on_c, 15, 41, 32
18, 58439, Note_on_c, 15, 41, 0
18, 58440, Note_on_c, 15, 46, 32
18, 58559, Note_on_c, 15, 46, 0
18, 58680, Note_on_c, 15, 46, 32
18, 58919, Note_on_c, 15, 46, 0
18, 58920, Note_on_c, 15, 53, 32
18, 59039, Note_on_c, 15, 53, 0
18, 59040, Control_c, 15, 11, 47
18, 59088, Control_c, 15, 11, 48
18, 59136, Control_c, 15, 11, 49
18, 59160, Note_on_c, 15, 29, 80
18, 59184, Control_c, 15, 11, 50
18, 59232, Control_c, 15, 11, 51
18, 59280, Control_c, 15, 11, 52
18, 59328, Control_c, 15, 11, 53
18, 59376, Control_c, 15, 11, 54
18, 59399, Note_on_c, 15, 29, 0
18, 59400, Note_on_c, 15, 33, 80
18, 59424, Control_c, 15, 11, 55
18, 59472, Control_c, 15, 11, 56
18, 59519, Note_on_c, 15, 33, 0
18, 59520, Control_c, 15, 11, 57
18, 59568, Control_c, 15, 11, 58
18, 59616, Control_c, 15, 11, 59
18, 59640, Note_on_c, 15, 33, 80
18, 59664, Control_c, 15, 11, 60
18, 59712, Control_c, 15, 11, 61
18, 59760, Control_c, 15, 11, 62
18, 59808, Control_c, 15, 11, 63
18, 59856, Control_c, 15, 11, 64
18, 59879, Note_on_c, 15, 33, 0
18, 59880, Note_on_c, 15, 41, 80
18, 59904, Control_c, 15, 11, 65
18, 59952, Control_c, 15, 11, 66
18, 59999, Note_on_c, 15, 41, 0
18, 60000, Control_c, 15, 11, 67
18, 60048, Control_c, 15, 11, 68
18, 60096, Control_c, 15, 11, 69
18, 60120, Note_on_c, 15, 41, 80
18, 60144, Control_c, 15, 11, 70
18, 60192, Control_c, 15, 11, 71
18, 60240, Control_c, 15, 11, 72
18, 60288, Control_c, 15, 11, 73
18, 60336, Control_c, 15, 11, 74
18, 60359, Note_on_c, 15, 41, 0
18, 60360, Note_on_c, 15, 46, 80
18, 60384, Control_c, 15, 11, 75
18, 60432, Control_c, 15, 11, 76
18, 60479, Note_on_c, 15, 46, 0
18, 60480, Control_c, 15, 11, 77
18, 60528, Control_c, 15, 11, 78
18, 60576, Control_c, 15, 11, 79
18, 60600, Note_on_c, 15, 46, 80
18, 60624, Control_c, 15, 11, 80
18, 60672, Control_c, 15, 11, 81
18, 60720, Control_c, 15, 11, 82
18, 60768, Control_c, 15, 11, 83
18, 60816, Control_c, 15, 11, 84
18, 60839, Note_on_c, 15, 46, 0
18, 60840, Note_on_c, 15, 53, 80
18, 60864, Control_c, 15, 11, 85
18, 60912, Control_c, 15, 11, 86
18, 60959, Note_on_c, 15, 53, 0
18, 60960, Control_c, 15, 11, 87
18, 61008, Control_c, 15, 11, 88
18, 61056, Control_c, 15, 11, 89
18, 61080, Note_on_c, 15, 29, 80
18, 61104, Control_c, 15, 11, 90
18, 61139, Note_on_c, 15, 29, 0
18, 61140, Note_on_c, 15, 36, 80
18, 61152, Control_c, 15, 11, 91
18, 61199, Note_on_c, 15, 36, 0
18, 61200, Control_c, 15, 11, 92
18, 61248, Control_c, 15, 11, 93
18, 61296, Control_c, 15, 11, 94
18, 61320, Note_on_c, 15, 41, 80
18, 61344, Control_c, 15, 11, 95
18, 61379, Note_on_c, 15, 41, 0
18, 61380, Note_on_c, 15, 48, 80
18, 61392, Control_c, 15, 11, 96
18, 61439, Note_on_c, 15, 48, 0
18, 61440, Control_c, 15, 11, 97
18, 61488, Control_c, 15, 11, 98
18, 61536, Control_c, 15, 11, 99
18, 61560, Note_on_c, 15, 29, 80
18, 61584, Control_c, 15, 11, 100
18, 61619, Note_on_c, 15, 29, 0
18, 61620, Note_on_c, 15, 38, 80
18, 61632, Control_c, 15, 11, 101
18, 61679, Note_on_c, 15, 38, 0
18, 61680, Control_c, 15, 11, 102
18, 61728, Control_c, 15, 11, 103
18, 61776, Control_c, 15, 11, 104
18, 61800, Note_on_c, 15, 41, 80
18, 61824, Control_c, 15, 11, 105
18, 61859, Note_on_c, 15, 41, 0
18, 61860, Note_on_c, 15, 50, 80
18, 61872, Control_c, 15, 11, 106
18, 61911, Note_on_c, 15, 50, 0
18, 61920, Note_on_c, 15, 29, 80
18, 61920, Control_c, 15, 11, 107
18, 61968, Control_c, 15, 11, 108
18, 61979, Note_on_c, 15, 29, 0
18, 61980, Note_on_c, 15, 39, 80
18, 62016, Control_c, 15, 11, 109
18, 62039, Note_on_c, 15, 39, 0
18, 62040, Note_on_c, 15, 29, 80
18, 62064, Control_c, 15, 11, 110
18, 62099, Note_on_c, 15, 29, 0
18, 62100, Note_on_c, 15, 39, 80
18, 62112, Control_c, 15, 11, 111
18, 62159, Note_on_c, 15, 39, 0
18, 62160, Note_on_c, 15, 29, 80
18, 62160, Control_c, 15, 11, 112
18, 62208, Control_c, 15, 11, 113
18, 62219, Note_on_c, 15, 29, 0
18, 62220, Note_on_c, 15, 39, 80
18, 62256, Control_c, 15, 11, 114
18, 62279, Note_on_c, 15, 39, 0
18, 62280, Note_on_c, 15, 29, 80
18, 62304, Control_c, 15, 11, 115
18, 62339, Note_on_c, 15, 29, 0
18, 62340, Note_on_c, 15, 38, 80
18, 62352, Control_c, 15, 11, 116
18, 62391, Note_on_c, 15, 38, 0
18, 62400, Control_c, 15, 11, 117
18, 62400, Note_on_c, 15, 29, 80
18, 62448, Control_c, 15, 11, 118
18, 62459, Note_on_c, 15, 29, 0
18, 62460, Note_on_c, 15, 39, 80
18, 62496, Control_c, 15, 11, 119
18, 62519, Note_on_c, 15, 39, 0
18, 62520, Note_on_c, 15, 29, 80
18, 62544, Control_c, 15, 11, 120
18, 62579, Note_on_c, 15, 29, 0
18, 62580, Note_on_c, 15, 36, 80
18, 62592, Control_c, 15, 11, 121
18, 62639, Note_on_c, 15, 36, 0
18, 62640, Note_on_c, 15, 29, 80
18, 62640, Control_c, 15, 11, 122
18, 62688, Control_c, 15, 11, 123
18, 62699, Note_on_c, 15, 29, 0
18, 62700, Note_on_c, 15, 33, 80
18, 62736, Control_c, 15, 11, 124
18, 62759, Note_on_c, 15, 33, 0
18, 62760, Note_on_c, 15, 29, 80
18, 62784, Control_c, 15, 11, 125
18, 62819, Note_on_c, 15, 29, 0
18, 62820, Note_on_c, 15, 34, 80
18, 62832, Control_c, 15, 11, 127
18, 62879, Note_on_c, 15, 34, 0
18, 62880, Note_on_c, 15, 34, 80
18, 62931, Note_on_c, 15, 34, 0
18, 62940, Note_on_c, 15, 36, 80
18, 62984, Note_on_c, 15, 36, 0
18, 63000, Note_on_c, 15, 51, 92
18, 63059, Note_on_c, 15, 51, 0
18, 63060, Note_on_c, 15, 51, 80
18, 63224, Note_on_c, 15, 51, 0
18, 63240, Note_on_c, 15, 36, 80
18, 63359, Note_on_c, 15, 36, 0
18, 63360, Note_on_c, 15, 36, 80
18, 63411, Note_on_c, 15, 36, 0
18, 63420, Note_on_c, 15, 38, 80
18, 63464, Note_on_c, 15, 38, 0
18, 63480, Note_on_c, 15, 53, 92
18, 63539, Note_on_c, 15, 53, 0
18, 63540, Note_on_c, 15, 53, 80
18, 63704, Note_on_c, 15, 53, 0
18, 63720, Note_on_c, 15, 38, 80
18, 63839, Note_on_c, 15, 38, 0
18, 63840, Note_on_c, 15, 38, 80
18, 63891, Note_on_c, 15, 38, 0
18, 63900, Note_on_c, 15, 39, 80
18, 63944, Note_on_c, 15, 39, 0
18, 63960, Note_on_c, 15, 55, 92
18, 64019, Note_on_c, 15, 55, 0
18, 64020, Note_on_c, 15, 55, 80
18, 64184, Note_on_c, 15, 55, 0
18, 64200, Note_on_c, 15, 39, 80
18, 64319, Note_on_c, 15, 39, 0
18, 64320, Note_on_c, 15, 39, 80
18, 64371, Note_on_c, 15, 39, 0
18, 64380, Note_on_c, 15, 41, 80
18, 64424, Note_on_c, 15, 41, 0
18, 64440, Note_on_c, 15, 56, 92
18, 64499, Note_on_c, 15, 56, 0
18, 64500, Note_on_c, 15, 56, 80
18, 64664, Note_on_c, 15, 56, 0
18, 64680, Note_on_c, 15, 29, 80
18, 64799, Note_on_c, 15, 29, 0
18, 64800, Note_on_c, 15, 29, 80
18, 64851, Note_on_c, 15, 29, 0
18, 64860, Note_on_c, 15, 31, 80
18, 64904, Note_on_c, 15, 31, 0
18, 64920, Note_on_c, 15, 46, 92
18, 64979, Note_on_c, 15, 46, 0
18, 64980, Note_on_c, 15, 46, 80
18, 65144, Note_on_c, 15, 46, 0
18, 65160, Note_on_c, 15, 31, 80
18, 65279, Note_on_c, 15, 31, 0
18, 65280, Note_on_c, 15, 31, 80
18, 65331, Note_on_c, 15, 31, 0
18, 65340, Note_on_c, 15, 33, 80
18, 65384, Note_on_c, 15, 33, 0
18, 65400, Note_on_c, 15, 48, 92
18, 65459, Note_on_c, 15, 48, 0
18, 65460, Note_on_c, 15, 48, 80
18, 65624, Note_on_c, 15, 48, 0
18, 65640, Note_on_c, 15, 51, 80
18, 65691, Note_on_c, 15, 51, 0
18, 65700, Note_on_c, 15, 39, 80
18, 65751, Note_on_c, 15, 39, 0
18, 65760, Note_on_c, 15, 50, 92
18, 65864, Note_on_c, 15, 50, 0
18, 65880, Note_on_c, 15, 38, 44
18, 65999, Note_on_c, 15, 38, 0
18, 66600, Note_on_c, 15, 50, 92
18, 66681, Note_on_c, 15, 50, 0
18, 66690, Note_on_c, 15, 50, 92
18, 66711, Note_on_c, 15, 50, 0
18, 66720, Note_on_c, 15, 51, 92
18, 66809, Note_on_c, 15, 51, 0
18, 66840, Note_on_c, 15, 39, 44
18, 66929, Note_on_c, 15, 39, 0
18, 67560, Note_on_c, 15, 51, 92
18, 67641, Note_on_c, 15, 51, 0
18, 67650, Note_on_c, 15, 51, 92
18, 67671, Note_on_c, 15, 51, 0
18, 67680, Note_on_c, 15, 53, 92
18, 67769, Note_on_c, 15, 53, 0
18, 67800, Note_on_c, 15, 41, 44
18, 67889, Note_on_c, 15, 41, 0
18, 68520, Note_on_c, 15, 53, 92
18, 68601, Note_on_c, 15, 53, 0
18, 68610, Note_on_c, 15, 53, 92
18, 68631, Note_on_c, 15, 53, 0
18, 68640, Note_on_c, 15, 55, 92
18, 68729, Note_on_c, 15, 55, 0
18, 68760, Note_on_c, 15, 43, 44
18, 68849, Note_on_c, 15, 43, 0
18, 70440, Note_on_c, 15, 41, 80
18, 70559, Note_on_c, 15, 41, 0
18, 70560, Note_on_c, 15, 42, 80
18, 70679, Note_on_c, 15, 42, 0
18, 70680, Note_on_c, 15, 41, 80
18, 70739, Note_on_c, 15, 41, 0
18, 70800, Note_on_c, 15, 41, 80
18, 70919, Note_on_c, 15, 41, 0
18, 70920, Note_on_c, 15, 40, 80
18, 70979, Note_on_c, 15, 40, 0
18, 71040, Note_on_c, 15, 40, 80
18, 71159, Note_on_c, 15, 40, 0
18, 71160, Note_on_c, 15, 41, 80
18, 71219, Note_on_c, 15, 41, 0
18, 71280, Note_on_c, 15, 41, 92
18, 71384, Note_on_c, 15, 41, 0
18, 71400, Note_on_c, 15, 41, 92
18, 71504, Note_on_c, 15, 41, 0
18, 71520, Note_on_c, 15, 34, 92
18, 71864, Note_on_c, 15, 34, 0
18, 71880, Note_on_c, 15, 34, 92
18, 71961, Note_on_c, 15, 34, 0
18, 71970, Note_on_c, 15, 34, 92
18, 71991, Note_on_c, 15, 34, 0
18, 72000, Note_on_c, 15, 38, 104
18, 72059, Note_on_c, 15, 38, 0
18, 72060, Note_on_c, 15, 38, 92
18, 72344, Note_on_c, 15, 38, 0
18, 72360, Note_on_c, 15, 38, 92
18, 72441, Note_on_c, 15, 38, 0
18, 72450, Note_on_c, 15, 38, 92
18, 72471, Note_on_c, 15, 38, 0
18, 72480, Note_on_c, 15, 41, 104
18, 72539, Note_on_c, 15, 41, 0
18, 72540, Note_on_c, 15, 41, 92
18, 72824, Note_on_c, 15, 41, 0
18, 72840, Note_on_c, 15, 41, 92
18, 72921, Note_on_c, 15, 41, 0
18, 72930, Note_on_c, 15, 41, 92
18, 72951, Note_on_c, 15, 41, 0
18, 72960, Note_on_c, 15, 46, 92
18, 73064, Note_on_c, 15, 46, 0
18, 73080, Note_on_c, 15, 46, 92
18, 73161, Note_on_c, 15, 46, 0
18, 73170, Note_on_c, 15, 46, 92
18, 73191, Note_on_c, 15, 46, 0
18, 73200, Note_on_c, 15, 50, 92
18, 73304, Note_on_c, 15, 50, 0
18, 73320, Note_on_c, 15, 50, 92
18, 73401, Note_on_c, 15, 50, 0
18, 73410, Note_on_c, 15, 50, 92
18, 73431, Note_on_c, 15, 50, 0
18, 73440, Note_on_c, 15, 53, 80
18, 73529, Note_on_c, 15, 53, 0
18, 73560, Note_on_c, 15, 46, 80
18, 73641, Note_on_c, 15, 46, 0
18, 73650, Note_on_c, 15, 46, 80
18, 73671, Note_on_c, 15, 46, 0
18, 73680, Note_on_c, 15, 50, 80
18, 73769, Note_on_c, 15, 50, 0
18, 73800, Note_on_c, 15, 41, 80
18, 73881, Note_on_c, 15, 41, 0
18, 73890, Note_on_c, 15, 41, 80
18, 73911, Note_on_c, 15, 41, 0
18, 73920, Note_on_c, 15, 46, 80
18, 74009, Note_on_c, 15, 46, 0
18, 74040, Note_on_c, 15, 38, 80
18, 74121, Note_on_c, 15, 38, 0
18, 74130, Note_on_c, 15, 38, 80
18, 74151, Note_on_c, 15, 38, 0
18, 74160, Note_on_c, 15, 41, 80
18, 74249, Note_on_c, 15, 41, 0
18, 74280, Note_on_c, 15, 34, 80
18, 74361, Note_on_c, 15, 34, 0
18, 74370, Note_on_c, 15, 34, 80
18, 74391, Note_on_c, 15, 34, 0
18, 74400, Note_on_c, 15, 38, 80
18, 74489, Note_on_c, 15, 38, 0
18, 74520, Note_on_c, 15, 29, 80
18, 74601, Note_on_c, 15, 29, 0
18, 74610, Note_on_c, 15, 29, 80
18, 74631, Note_on_c, 15, 29, 0
18, 74640, Note_on_c, 15, 34, 80
18, 74729, Note_on_c, 15, 34, 0
18, 74760, Note_on_c, 15, 26, 80
18, 74841, Note_on_c, 15, 26, 0
18, 74850, Note_on_c, 15, 26, 80
18, 74871, Note_on_c, 15, 26, 0
18, 74880, Note_on_c, 15, 29, 80
18, 74969, Note_on_c, 15, 29, 0
18, 75000, Note_on_c, 15, 34, 80
18, 75081, Note_on_c, 15, 34, 0
18, 75090, Note_on_c, 15, 34, 80
18, 75111, Note_on_c, 15, 34, 0
18, 75120, Note_on_c, 15, 46, 80
18, 75209, Note_on_c, 15, 46, 0
18, 75240, Note_on_c, 15, 34, 80
18, 75321, Note_on_c, 15, 34, 0
18, 75330, Note_on_c, 15, 34, 80
18, 75351, Note_on_c, 15, 34, 0
18, 75360, Note_on_c, 15, 46, 80
18, 75479, Note_on_c, 15, 46, 0
18, 75810, Control_c, 15, 11, 127
18, 75810, Note_on_c, 15, 46, 80
18, 75831, Note_on_c, 15, 46, 0
18, 75837, Control_c, 15, 11, 124
18, 75840, Note_on_c, 15, 34, 80
18, 75863, Control_c, 15, 11, 120
18, 75890, Control_c, 15, 11, 117
18, 75917, Control_c, 15, 11, 114
18, 75943, Control_c, 15, 11, 110
18, 75970, Control_c, 15, 11, 107
18, 75997, Control_c, 15, 11, 104
18, 76023, Control_c, 15, 11, 100
18, 76050, Control_c, 15, 11, 97
18, 76077, Control_c, 15, 11, 94
18, 76079, Note_on_c, 15, 34, 0
18, 76263, Control_c, 15, 11, 127
18, 76290, Note_on_c, 15, 34, 44
18, 76311, Note_on_c, 15, 34, 0
18, 76320, Note_on_c, 15, 33, 32
18, 76559, Note_on_c, 15, 33, 0
18, 79170, Note_on_c, 15, 40, 32
18, 79191, Note_on_c, 15, 40, 0
18, 79200, Note_on_c, 15, 33, 32
18, 79439, Note_on_c, 15, 33, 0
18, 81090, Note_on_c, 15, 40, 32
18, 81111, Note_on_c, 15, 40, 0
18, 81120, Note_on_c, 15, 33, 32
18, 81344, Note_on_c, 15, 33, 0
18, 81360, Note_on_c, 15, 42, 32
18, 81479, Note_on_c, 15, 42, 0
18, 83010, Note_on_c, 15, 45, 32
18, 83031, Note_on_c, 15, 45, 0
18, 83040, Note_on_c, 15, 30, 32
18, 83159, Note_on_c, 15, 30, 0
18, 83280, Note_on_c, 15, 54, 32
18, 83399, Note_on_c, 15, 54, 0
18, 84930, Note_on_c, 15, 45, 32
18, 84951, Note_on_c, 15, 45, 0
18, 84960, Note_on_c, 15, 30, 32
18, 85079, Note_on_c, 15, 30, 0
18, 85200, Note_on_c, 15, 31, 32
18, 85319, Note_on_c, 15, 31, 0
18, 85860, Note_on_c, 15, 38, 32
18, 85889, Note_on_c, 15, 38, 0
18, 85890, Note_on_c, 15, 34, 32
18, 85911, Note_on_c, 15, 34, 0
18, 85920, Note_on_c, 15, 31, 32
18, 86039, Note_on_c, 15, 31, 0
18, 86820, Note_on_c, 15, 38, 32
18, 86849, Note_on_c, 15, 38, 0
18, 86850, Note_on_c, 15, 34, 32
18, 86871, Note_on_c, 15, 34, 0
18, 86880, Note_on_c, 15, 31, 32
18, 86999, Note_on_c, 15, 31, 0
18, 87780, Note_on_c, 15, 46, 32
18, 87809, Note_on_c, 15, 46, 0
18, 87810, Note_on_c, 15, 43, 32
18, 87831, Note_on_c, 15, 43, 0
18, 87840, Note_on_c, 15, 38, 32
18, 87959, Note_on_c, 15, 38, 0
18, 88740, Note_on_c, 15, 36, 32
18, 88769, Note_on_c, 15, 36, 0
18, 88770, Note_on_c, 15, 33, 32
18, 88791, Note_on_c, 15, 33, 0
18, 88800, Note_on_c, 15, 30, 32
18, 88919, Note_on_c, 15, 30, 0
18, 89700, Note_on_c, 15, 45, 88
18, 89729, Note_on_c, 15, 45, 0
18, 89730, Note_on_c, 15, 42, 90
18, 89751, Note_on_c, 15, 42, 0
18, 89760, Note_on_c, 15, 36, 92
18, 90104, Note_on_c, 15, 36, 0
18, 90120, Note_on_c, 15, 48, 92
18, 90201, Note_on_c, 15, 48, 0
18, 90210, Note_on_c, 15, 48, 92
18, 90231, Note_on_c, 15, 48, 0
18, 90240, Note_on_c, 15, 51, 104
18, 90299, Note_on_c, 15, 51, 0
18, 90300, Note_on_c, 15, 51, 92
18, 90584, Note_on_c, 15, 51, 0
18, 90600, Note_on_c, 15, 45, 92
18, 90681, Note_on_c, 15, 45, 0
18, 90690, Note_on_c, 15, 45, 92
18, 90711, Note_on_c, 15, 45, 0
18, 90720, Note_on_c, 15, 48, 104
18, 90824, Note_on_c, 15, 48, 0
18, 90840, Note_on_c, 15, 42, 92
18, 90921, Note_on_c, 15, 42, 0
18, 90930, Note_on_c, 15, 42, 92
18, 90951, Note_on_c, 15, 42, 0
18, 90960, Note_on_c, 15, 45, 104
18, 91064, Note_on_c, 15, 45, 0
18, 91080, Note_on_c, 15, 36, 92
18, 91161, Note_on_c, 15, 36, 0
18, 91170, Note_on_c, 15, 36, 92
18, 91191, Note_on_c, 15, 36, 0
18, 91200, Note_on_c, 15, 39, 104
18, 91304, Note_on_c, 15, 39, 0
18, 91320, Note_on_c, 15, 33, 92
18, 91401, Note_on_c, 15, 33, 0
18, 91410, Note_on_c, 15, 33, 92
18, 91431, Note_on_c, 15, 33, 0
18, 91440, Note_on_c, 15, 38, 104
18, 91544, Note_on_c, 15, 38, 0
18, 91560, Note_on_c, 15, 38, 92
18, 91641, Note_on_c, 15, 38, 0
18, 91650, Note_on_c, 15, 38, 92
18, 91671, Note_on_c, 15, 38, 0
18, 91680, Note_on_c, 15, 31, 44
18, 91799, Note_on_c, 15, 31, 0
18, 94560, Program_c, 15, 45
18, 94680, Note_on_c, 15, 31, 38
18, 94799, Note_on_c, 15, 31, 0
18, 94920, Note_on_c, 15, 34, 38
18, 95039, Note_on_c, 15, 34, 0
18, 95160, Note_on_c, 15, 38, 38
18, 95279, Note_on_c, 15, 38, 0
18, 95400, Note_on_c, 15, 43, 38
18, 95519, Note_on_c, 15, 43, 0
18, 95640, Note_on_c, 15, 43, 38
18, 95759, Note_on_c, 15, 43, 0
18, 95880, Note_on_c, 15, 46, 38
18, 95999, Note_on_c, 15, 46, 0
18, 96120, Note_on_c, 15, 50, 38
18, 96239, Note_on_c, 15, 50, 0
18, 96360, Note_on_c, 15, 55, 38
18, 96479, Note_on_c, 15, 55, 0
18, 96600, Note_on_c, 15, 31, 38
18, 96719, Note_on_c, 15, 31, 0
18, 96840, Note_on_c, 15, 35, 38
18, 96959, Note_on_c, 15, 35, 0
18, 97080, Note_on_c, 15, 38, 38
18, 97199, Note_on_c, 15, 38, 0
18, 97320, Note_on_c, 15, 43, 38
18, 97439, Note_on_c, 15, 43, 0
18, 97560, Note_on_c, 15, 43, 42
18, 97679, Note_on_c, 15, 43, 0
18, 97800, Note_on_c, 15, 47, 51
18, 97919, Note_on_c, 15, 47, 0
18, 98040, Note_on_c, 15, 50, 60
18, 98159, Note_on_c, 15, 50, 0
18, 98278, Program_c, 15, 48
18, 98280, Note_on_c, 15, 53, 75
18, 98331, Note_on_c, 15, 53, 0
18, 98340, Note_on_c, 15, 41, 77
18, 98369, Note_on_c, 15, 41, 0
18, 98370, Note_on_c, 15, 38, 78
18, 98391, Note_on_c, 15, 38, 0
18, 98400, Note_on_c, 15, 35, 80
18, 98504, Note_on_c, 15, 35, 0
18, 98520, Note_on_c, 15, 41, 80
18, 98744, Note_on_c, 15, 41, 0
18, 98760, Note_on_c, 15, 41, 80
18, 98841, Note_on_c, 15, 41, 0
18, 98850, Note_on_c, 15, 41, 80
18, 98871, Note_on_c, 15, 41, 0
18, 98880, Note_on_c, 15, 44, 92
18, 98940, Control_c, 15, 11, 107
18, 99224, Note_on_c, 15, 44, 0
18, 99240, Note_on_c, 15, 38, 92
18, 99321, Note_on_c, 15, 38, 0
18, 99330, Note_on_c, 15, 38, 92
18, 99351, Note_on_c, 15, 38, 0
18, 99358, Control_c, 15, 11, 127
18, 99360, Note_on_c, 15, 41, 92
18, 99464, Note_on_c, 15, 41, 0
18, 99480, Note_on_c, 15, 47, 92
18, 99561, Note_on_c, 15, 47, 0
18, 99570, Note_on_c, 15, 47, 92
18, 99591, Note_on_c, 15, 47, 0
18, 99598, Control_c, 15, 11, 127
18, 99600, Note_on_c, 15, 50, 92
18, 99704, Note_on_c, 15, 50, 0
18, 99720, Note_on_c, 15, 41, 80
18, 99801, Note_on_c, 15, 41, 0
18, 99810, Note_on_c, 15, 41, 80
18, 99831, Note_on_c, 15, 41, 0
18, 99840, Note_on_c, 15, 44, 92
18, 99944, Note_on_c, 15, 44, 0
18, 99960, Note_on_c, 15, 38, 80
18, 100041, Note_on_c, 15, 38, 0
18, 100050, Note_on_c, 15, 38, 80
18, 100071, Note_on_c, 15, 38, 0
18, 100080, Note_on_c, 15, 43, 92
18, 100184, Note_on_c, 15, 43, 0
18, 100200, Note_on_c, 15, 31, 80
18, 100281, Note_on_c, 15, 31, 0
18, 100290, Note_on_c, 15, 31, 80
18, 100311, Note_on_c, 15, 31, 0
18, 100320, Note_on_c, 15, 36, 44
18, 100439, Note_on_c, 15, 36, 0
18, 102960, Control_c, 15, 11, 67
18, 103200, Control_c, 15, 11, 67
18, 103200, Note_on_c, 15, 42, 80
18, 103223, Control_c, 15, 11, 69
18, 103247, Control_c, 15, 11, 70
18, 103270, Control_c, 15, 11, 72
18, 103293, Control_c, 15, 11, 74
18, 103317, Control_c, 15, 11, 75
18, 103340, Control_c, 15, 11, 77
18, 103363, Control_c, 15, 11, 79
18, 103379, Note_on_c, 15, 42, 0
18, 103387, Control_c, 15, 11, 80
18, 103410, Control_c, 15, 11, 82
18, 103433, Control_c, 15, 11, 84
18, 103440, Note_on_c, 15, 44, 80
18, 103457, Control_c, 15, 11, 85
18, 103480, Control_c, 15, 11, 87
18, 103503, Control_c, 15, 11, 89
18, 103527, Control_c, 15, 11, 90
18, 103550, Control_c, 15, 11, 92
18, 103573, Control_c, 15, 11, 94
18, 103597, Control_c, 15, 11, 95
18, 103619, Note_on_c, 15, 44, 0
18, 103620, Control_c, 15, 11, 97
18, 103643, Control_c, 15, 11, 99
18, 103667, Control_c, 15, 11, 100
18, 103680, Note_on_c, 15, 43, 80
18, 103690, Control_c, 15, 11, 102
18, 103713, Control_c, 15, 11, 104
18, 103737, Control_c, 15, 11, 105
18, 103760, Control_c, 15, 11, 107
18, 103783, Control_c, 15, 11, 109
18, 103807, Control_c, 15, 11, 110
18, 103830, Control_c, 15, 11, 112
18, 103853, Control_c, 15, 11, 114
18, 103859, Note_on_c, 15, 43, 0
18, 103877, Control_c, 15, 11, 115
18, 103900, Control_c, 15, 11, 117
18, 103920, Note_on_c, 15, 55, 80
18, 103923, Control_c, 15, 11, 119
18, 103947, Control_c, 15, 11, 120
18, 103970, Control_c, 15, 11, 122
18, 103993, Control_c, 15, 11, 124
18, 104017, Control_c, 15, 11, 127
18, 104099, Note_on_c, 15, 55, 0
18, 104160, Note_on_c, 15, 36, 80
18, 104451, Note_on_c, 15, 36, 0
18, 104460, Note_on_c, 15, 39, 80
18, 104504, Note_on_c, 15, 39, 0
18, 104520, Note_on_c, 15, 38, 80
18, 104564, Note_on_c, 15, 38, 0
18, 104580, Note_on_c, 15, 36, 80
18, 104624, Note_on_c, 15, 36, 0
18, 104640, Note_on_c, 15, 43, 80
18, 104729, Note_on_c, 15, 43, 0
18, 104760, Note_on_c, 15, 41, 80
18, 104849, Note_on_c, 15, 41, 0
18, 104880, Note_on_c, 15, 38, 80
18, 104969, Note_on_c, 15, 38, 0
18, 105000, Note_on_c, 15, 43, 80
18, 105224, Note_on_c, 15, 43, 0
18, 105240, Note_on_c, 15, 39, 80
18, 105329, Note_on_c, 15, 39, 0
18, 105360, Note_on_c, 15, 36, 80
18, 105449, Note_on_c, 15, 36, 0
18, 105480, Note_on_c, 15, 43, 80
18, 105704, Note_on_c, 15, 43, 0
18, 105720, Note_on_c, 15, 38, 80
18, 105809, Note_on_c, 15, 38, 0
18, 105840, Note_on_c, 15, 35, 80
18, 105929, Note_on_c, 15, 35, 0
18, 105960, Note_on_c, 15, 43, 80
18, 106184, Note_on_c, 15, 43, 0
18, 106200, Note_on_c, 15, 41, 80
18, 106289, Note_on_c, 15, 41, 0
18, 106320, Note_on_c, 15, 39, 80
18, 106409, Note_on_c, 15, 39, 0
18, 106440, Note_on_c, 15, 38, 80
18, 106529, Note_on_c, 15, 38, 0
18, 106560, Note_on_c, 15, 36, 80
18, 106649, Note_on_c, 15, 36, 0
18, 106680, Note_on_c, 15, 37, 80
18, 106769, Note_on_c, 15, 37, 0
18, 106800, Note_on_c, 15, 38, 80
18, 106889, Note_on_c, 15, 38, 0
18, 106920, Note_on_c, 15, 38, 80
18, 107384, Note_on_c, 15, 38, 0
18, 107400, Note_on_c, 15, 26, 92
18, 107460, Control_c, 15, 11, 107
18, 107864, Note_on_c, 15, 26, 0
18, 107878, Control_c, 15, 11, 127
18, 107880, Note_on_c, 15, 26, 92
18, 107940, Control_c, 15, 11, 107
18, 108104, Note_on_c, 15, 26, 0
18, 108118, Control_c, 15, 11, 127
18, 108120, Note_on_c, 15, 50, 92
18, 108180, Control_c, 15, 11, 107
18, 108344, Note_on_c, 15, 50, 0
18, 108358, Control_c, 15, 11, 127
18, 108360, Note_on_c, 15, 26, 80
18, 108584, Note_on_c, 15, 26, 0
18, 108600, Note_on_c, 15, 50, 80
18, 108824, Note_on_c, 15, 50, 0
18, 108840, Note_on_c, 15, 26, 80
18, 109064, Note_on_c, 15, 26, 0
18, 109080, Note_on_c, 15, 31, 80
18, 109304, Note_on_c, 15, 31, 0
18, 109320, Note_on_c, 15, 43, 80
18, 109544, Note_on_c, 15, 43, 0
18, 109560, Note_on_c, 15, 48, 80
18, 109784, Note_on_c, 15, 48, 0
18, 109800, Note_on_c, 15, 36, 80
18, 110024, Note_on_c, 15, 36, 0
18, 110040, Note_on_c, 15, 29, 80
18, 110264, Note_on_c, 15, 29, 0
18, 110280, Note_on_c, 15, 41, 80
18, 110504, Note_on_c, 15, 41, 0
18, 110520, Note_on_c, 15, 41, 80
18, 110691, Note_on_c, 15, 41, 0
18, 110700, Note_on_c, 15, 45, 80
18, 110744, Note_on_c, 15, 45, 0
18, 110760, Note_on_c, 15, 43, 80
18, 110804, Note_on_c, 15, 43, 0
18, 110820, Note_on_c, 15, 41, 80
18, 110864, Note_on_c, 15, 41, 0
18, 110880, Note_on_c, 15, 46, 80
18, 110999, Note_on_c, 15, 46, 0
18, 112860, Note_on_c, 15, 41, 80
18, 112904, Note_on_c, 15, 41, 0
18, 112920, Note_on_c, 15, 39, 80
18, 112964, Note_on_c, 15, 39, 0
18, 112980, Note_on_c, 15, 38, 80
18, 113024, Note_on_c, 15, 38, 0
18, 113040, Note_on_c, 15, 36, 80
18, 113084, Note_on_c, 15, 36, 0
18, 113100, Note_on_c, 15, 34, 80
18, 113144, Note_on_c, 15, 34, 0
18, 113160, Note_on_c, 15, 33, 80
18, 113204, Note_on_c, 15, 33, 0
18, 113220, Note_on_c, 15, 34, 80
18, 113264, Note_on_c, 15, 34, 0
18, 113280, Note_on_c, 15, 34, 80
18, 113339, Note_on_c, 15, 34, 0
18, 113340, Note_on_c, 15, 33, 80
18, 113391, Note_on_c, 15, 33, 0
18, 113400, Note_on_c, 15, 33, 80
18, 113444, Note_on_c, 15, 33, 0
18, 113460, Note_on_c, 15, 36, 80
18, 113504, Note_on_c, 15, 36, 0
18, 113520, Note_on_c, 15, 33, 80
18, 113564, Note_on_c, 15, 33, 0
18, 113580, Note_on_c, 15, 36, 80
18, 113624, Note_on_c, 15, 36, 0
18, 113640, Note_on_c, 15, 34, 80
18, 113684, Note_on_c, 15, 34, 0
18, 113700, Note_on_c, 15, 33, 80
18, 113744, Note_on_c, 15, 33, 0
18, 113760, Note_on_c, 15, 36, 80
18, 113819, Note_on_c, 15, 36, 0
18, 113820, Note_on_c, 15, 34, 80
18, 113871, Note_on_c, 15, 34, 0
18, 113880, Note_on_c, 15, 34, 80
18, 113924, Note_on_c, 15, 34, 0
18, 113940, Note_on_c, 15, 38, 80
18, 113984, Note_on_c, 15, 38, 0
18, 114000, Note_on_c, 15, 38, 80
18, 114044, Note_on_c, 15, 38, 0
18, 114060, Note_on_c, 15, 38, 80
18, 114104, Note_on_c, 15, 38, 0
18, 114120, Note_on_c, 15, 36, 80
18, 114164, Note_on_c, 15, 36, 0
18, 114180, Note_on_c, 15, 34, 80
18, 114224, Note_on_c, 15, 34, 0
18, 114240, Note_on_c, 15, 38, 80
18, 114299, Note_on_c, 15, 38, 0
18, 114300, Note_on_c, 15, 36, 80
18, 114351, Note_on_c, 15, 36, 0
18, 114360, Note_on_c, 15, 36, 80
18, 114404, Note_on_c, 15, 36, 0
18, 114420, Note_on_c, 15, 39, 80
18, 114464, Note_on_c, 15, 39, 0
18, 114480, Note_on_c, 15, 39, 80
18, 114524, Note_on_c, 15, 39, 0
18, 114540, Note_on_c, 15, 39, 80
18, 114584, Note_on_c, 15, 39, 0
18, 114600, Note_on_c, 15, 38, 80
18, 114644, Note_on_c, 15, 38, 0
18, 114660, Note_on_c, 15, 36, 80
18, 114704, Note_on_c, 15, 36, 0
18, 114720, Note_on_c, 15, 36, 80
18, 114779, Note_on_c, 15, 36, 0
18, 114780, Note_on_c, 15, 34, 80
18, 114831, Note_on_c, 15, 34, 0
18, 114840, Note_on_c, 15, 34, 80
18, 114884, Note_on_c, 15, 34, 0
18, 114900, Note_on_c, 15, 38, 80
18, 114944, Note_on_c, 15, 38, 0
18, 114960, Note_on_c, 15, 38, 80
18, 115004, Note_on_c, 15, 38, 0
18, 115020, Note_on_c, 15, 38, 80
18, 115064, Note_on_c, 15, 38, 0
18, 115080, Note_on_c, 15, 36, 80
18, 115124, Note_on_c, 15, 36, 0
18, 115140, Note_on_c, 15, 34, 80
18, 115184, Note_on_c, 15, 34, 0
18, 115200, Note_on_c, 15, 34, 80
18, 115259, Note_on_c, 15, 34, 0
18, 115260, Note_on_c, 15, 33, 80
18, 115311, Note_on_c, 15, 33, 0
18, 115320, Note_on_c, 15, 33, 80
18, 115364, Note_on_c, 15, 33, 0
18, 115380, Note_on_c, 15, 34, 80
18, 115424, Note_on_c, 15, 34, 0
18, 115440, Note_on_c, 15, 33, 80
18, 115484, Note_on_c, 15, 33, 0
18, 115500, Note_on_c, 15, 38, 80
18, 115544, Note_on_c, 15, 38, 0
18, 115560, Note_on_c, 15, 34, 80
18, 115604, Note_on_c, 15, 34, 0
18, 115620, Note_on_c, 15, 33, 80
18, 115664, Note_on_c, 15, 33, 0
18, 115680, Note_on_c, 15, 34, 80
18, 115739, Note_on_c, 15, 34, 0
18, 115740, Note_on_c, 15, 33, 80
18, 115791, Note_on_c, 15, 33, 0
18, 115800, Note_on_c, 15, 33, 80
18, 115844, Note_on_c, 15, 33, 0
18, 115860, Note_on_c, 15, 34, 80
18, 115904, Note_on_c, 15, 34, 0
18, 115920, Note_on_c, 15, 33, 80
18, 115964, Note_on_c, 15, 33, 0
18, 115980, Note_on_c, 15, 38, 80
18, 116024, Note_on_c, 15, 38, 0
18, 116040, Note_on_c, 15, 34, 80
18, 116084, Note_on_c, 15, 34, 0
18, 116100, Note_on_c, 15, 33, 80
18, 116144, Note_on_c, 15, 33, 0
18, 116160, Note_on_c, 15, 33, 80
18, 116219, Note_on_c, 15, 33, 0
18, 116220, Note_on_c, 15, 32, 80
18, 116271, Note_on_c, 15, 32, 0
18, 116280, Note_on_c, 15, 32, 80
18, 116324, Note_on_c, 15, 32, 0
18, 116340, Note_on_c, 15, 33, 80
18, 116384, Note_on_c, 15, 33, 0
18, 116400, Note_on_c, 15, 32, 80
18, 116444, Note_on_c, 15, 32, 0
18, 116460, Note_on_c, 15, 35, 80
18, 116504, Note_on_c, 15, 35, 0
18, 116520, Note_on_c, 15, 33, 80
18, 116564, Note_on_c, 15, 33, 0
18, 116580, Note_on_c, 15, 32, 80
18, 116624, Note_on_c, 15, 32, 0
18, 116640, Note_on_c, 15, 33, 80
18, 116699, Note_on_c, 15, 33, 0
18, 116700, Note_on_c, 15, 32, 80
18, 116751, Note_on_c, 15, 32, 0
18, 116760, Note_on_c, 15, 32, 80
18, 116804, Note_on_c, 15, 32, 0
18, 116820, Note_on_c, 15, 33, 80
18, 116864, Note_on_c, 15, 33, 0
18, 116880, Note_on_c, 15, 32, 80
18, 116924, Note_on_c, 15, 32, 0
18, 116940, Note_on_c, 15, 35, 80
18, 116984, Note_on_c, 15, 35, 0
18, 117000, Note_on_c, 15, 33, 80
18, 117044, Note_on_c, 15, 33, 0
18, 117060, Note_on_c, 15, 31, 80
18, 117104, Note_on_c, 15, 31, 0
18, 117120, Note_on_c, 15, 31, 80
18, 117179, Note_on_c, 15, 31, 0
18, 117180, Note_on_c, 15, 30, 80
18, 117231, Note_on_c, 15, 30, 0
18, 117240, Note_on_c, 15, 30, 80
18, 117284, Note_on_c, 15, 30, 0
18, 117300, Note_on_c, 15, 31, 80
18, 117344, Note_on_c, 15, 31, 0
18, 117360, Note_on_c, 15, 30, 80
18, 117404, Note_on_c, 15, 30, 0
18, 117420, Note_on_c, 15, 33, 80
18, 117464, Note_on_c, 15, 33, 0
18, 117480, Note_on_c, 15, 31, 80
18, 117524, Note_on_c, 15, 31, 0
18, 117540, Note_on_c, 15, 30, 80
18, 117584, Note_on_c, 15, 30, 0
18, 117600, Note_on_c, 15, 31, 80
18, 117659, Note_on_c, 15, 31, 0
18, 117660, Note_on_c, 15, 30, 80
18, 117711, Note_on_c, 15, 30, 0
18, 117720, Note_on_c, 15, 30, 80
18, 117764, Note_on_c, 15, 30, 0
18, 117780, Note_on_c, 15, 31, 80
18, 117824, Note_on_c, 15, 31, 0
18, 117840, Note_on_c, 15, 29, 80
18, 117884, Note_on_c, 15, 29, 0
18, 117900, Note_on_c, 15, 33, 80
18, 117944, Note_on_c, 15, 33, 0
18, 117960, Note_on_c, 15, 31, 80
18, 118004, Note_on_c, 15, 31, 0
18, 118020, Note_on_c, 15, 29, 80
18, 118064, Note_on_c, 15, 29, 0
18, 118080, Note_on_c, 15, 41, 80
18, 118139, Note_on_c, 15, 41, 0
18, 118140, Note_on_c, 15, 40, 80
18, 118191, Note_on_c, 15, 40, 0
18, 118200, Note_on_c, 15, 40, 80
18, 118244, Note_on_c, 15, 40, 0
18, 118260, Note_on_c, 15, 41, 80
18, 118304, Note_on_c, 15, 41, 0
18, 118320, Note_on_c, 15, 40, 80
18, 118364, Note_on_c, 15, 40, 0
18, 118380, Note_on_c, 15, 45, 80
18, 118424, Note_on_c, 15, 45, 0
18, 118440, Note_on_c, 15, 41, 80
18, 118484, Note_on_c, 15, 41, 0
18, 118500, Note_on_c, 15, 40, 80
18, 118544, Note_on_c, 15, 40, 0
18, 118560, Note_on_c, 15, 41, 80
18, 118619, Note_on_c, 15, 41, 0
18, 118620, Note_on_c, 15, 40, 80
18, 118671, Note_on_c, 15, 40, 0
18, 118680, Note_on_c, 15, 40, 80
18, 118724, Note_on_c, 15, 40, 0
18, 118740, Note_on_c, 15, 41, 80
18, 118784, Note_on_c, 15, 41, 0
18, 118800, Note_on_c, 15, 40, 80
18, 118844, Note_on_c, 15, 40, 0
18, 118860, Note_on_c, 15, 45, 80
18, 118904, Note_on_c, 15, 45, 0
18, 118920, Note_on_c, 15, 41, 80
18, 118964, Note_on_c, 15, 41, 0
18, 118980, Note_on_c, 15, 40, 80
18, 119024, Note_on_c, 15, 40, 0
18, 119040, Note_on_c, 15, 40, 80
18, 119099, Note_on_c, 15, 40, 0
18, 119100, Note_on_c, 15, 38, 80
18, 119151, Note_on_c, 15, 38, 0
18, 119160, Note_on_c, 15, 38, 80
18, 119204, Note_on_c, 15, 38, 0
18, 119220, Note_on_c, 15, 40, 80
18, 119264, Note_on_c, 15, 40, 0
18, 119280, Note_on_c, 15, 38, 80
18, 119324, Note_on_c, 15, 38, 0
18, 119340, Note_on_c, 15, 41, 80
18, 119384, Note_on_c, 15, 41, 0
18, 119400, Note_on_c, 15, 40, 80
18, 119444, Note_on_c, 15, 40, 0
18, 119460, Note_on_c, 15, 38, 80
18, 119504, Note_on_c, 15, 38, 0
18, 119520, Note_on_c, 15, 40, 80
18, 119579, Note_on_c, 15, 40, 0
18, 119580, Note_on_c, 15, 38, 80
18, 119631, Note_on_c, 15, 38, 0
18, 119640, Note_on_c, 15, 38, 80
18, 119684, Note_on_c, 15, 38, 0
18, 119700, Note_on_c, 15, 40, 80
18, 119744, Note_on_c, 15, 40, 0
18, 119760, Note_on_c, 15, 38, 80
18, 119804, Note_on_c, 15, 38, 0
18, 119820, Note_on_c, 15, 41, 80
18, 119864, Note_on_c, 15, 41, 0
18, 119880, Note_on_c, 15, 40, 80
18, 119924, Note_on_c, 15, 40, 0
18, 119940, Note_on_c, 15, 38, 80
18, 119984, Note_on_c, 15, 38, 0
18, 120000, Note_on_c, 15, 40, 80
18, 120059, Note_on_c, 15, 40, 0
18, 120060, Note_on_c, 15, 38, 80
18, 120111, Note_on_c, 15, 38, 0
18, 120120, Note_on_c, 15, 38, 80
18, 120164, Note_on_c, 15, 38, 0
18, 120180, Note_on_c, 15, 40, 80
18, 120224, Note_on_c, 15, 40, 0
18, 120240, Note_on_c, 15, 38, 80
18, 120284, Note_on_c, 15, 38, 0
18, 120300, Note_on_c, 15, 41, 80
18, 120344, Note_on_c, 15, 41, 0
18, 120360, Note_on_c, 15, 40, 80
18, 120404, Note_on_c, 15, 40, 0
18, 120420, Note_on_c, 15, 38, 80
18, 120464, Note_on_c, 15, 38, 0
18, 120480, Note_on_c, 15, 40, 80
18, 120539, Note_on_c, 15, 40, 0
18, 120540, Note_on_c, 15, 38, 80
18, 120591, Note_on_c, 15, 38, 0
18, 120600, Note_on_c, 15, 38, 80
18, 120644, Note_on_c, 15, 38, 0
18, 120660, Note_on_c, 15, 40, 80
18, 120704, Note_on_c, 15, 40, 0
18, 120720, Note_on_c, 15, 38, 80
18, 120764, Note_on_c, 15, 38, 0
18, 120780, Note_on_c, 15, 41, 80
18, 120824, Note_on_c, 15, 41, 0
18, 120840, Note_on_c, 15, 40, 80
18, 120884, Note_on_c, 15, 40, 0
18, 120900, Note_on_c, 15, 38, 62
18, 120944, Note_on_c, 15, 38, 0
18, 120960, Note_on_c, 15, 38, 44
18, 121004, Note_on_c, 15, 38, 0
18, 121020, Note_on_c, 15, 41, 44
18, 121064, Note_on_c, 15, 41, 0
18, 121080, Note_on_c, 15, 40, 44
18, 121124, Note_on_c, 15, 40, 0
18, 121140, Note_on_c, 15, 38, 44
18, 121184, Note_on_c, 15, 38, 0
18, 121200, Note_on_c, 15, 36, 44
18, 121244, Note_on_c, 15, 36, 0
18, 121260, Note_on_c, 15, 35, 44
18, 121304, Note_on_c, 15, 35, 0
18, 121320, Note_on_c, 15, 36, 44
18, 121364, Note_on_c, 15, 36, 0
18, 121380, Note_on_c, 15, 38, 44
18, 121424, Note_on_c, 15, 38, 0
18, 121440, Note_on_c, 15, 38, 38
18, 121484, Note_on_c, 15, 38, 0
18, 121500, Note_on_c, 15, 41, 38
18, 121544, Note_on_c, 15, 41, 0
18, 121560, Note_on_c, 15, 40, 38
18, 121604, Note_on_c, 15, 40, 0
18, 121620, Note_on_c, 15, 38, 38
18, 121664, Note_on_c, 15, 38, 0
18, 121680, Note_on_c, 15, 36, 38
18, 121724, Note_on_c, 15, 36, 0
18, 121740, Note_on_c, 15, 35, 38
18, 121784, Note_on_c, 15, 35, 0
18, 121800, Note_on_c, 15, 36, 38
18, 121844, Note_on_c, 15, 36, 0
18, 121860, Note_on_c, 15, 38, 38
18, 121904, Note_on_c, 15, 38, 0
18, 121920, Note_on_c, 15, 40, 38
18, 121964, Note_on_c, 15, 40, 0
18, 121980, Note_on_c, 15, 45, 38
18, 122024, Note_on_c, 15, 45, 0
18, 122040, Note_on_c, 15, 47, 38
18, 122084, Note_on_c, 15, 47, 0
18, 122100, Note_on_c, 15, 48, 38
18, 122144, Note_on_c, 15, 48, 0
18, 122160, Note_on_c, 15, 48, 38
18, 122279, Note_on_c, 15, 48, 0
18, 122460, Note_on_c, 15, 48, 38
18, 122504, Note_on_c, 15, 48, 0
18, 122520, Note_on_c, 15, 50, 38
18, 122564, Note_on_c, 15, 50, 0
18, 122580, Note_on_c, 15, 52, 38
18, 122624, Note_on_c, 15, 52, 0
18, 122640, Note_on_c, 15, 52, 38
18, 122759, Note_on_c, 15, 52, 0
18, 122940, Note_on_c, 15, 41, 38
18, 122984, Note_on_c, 15, 41, 0
18, 123000, Note_on_c, 15, 40, 38
18, 123044, Note_on_c, 15, 40, 0
18, 123060, Note_on_c, 15, 38, 38
18, 123104, Note_on_c, 15, 38, 0
18, 123120, Note_on_c, 15, 36, 38
18, 123164, Note_on_c, 15, 36, 0
18, 123180, Note_on_c, 15, 35, 38
18, 123224, Note_on_c, 15, 35, 0
18, 123240, Note_on_c, 15, 36, 38
18, 123284, Note_on_c, 15, 36, 0
18, 123300, Note_on_c, 15, 38, 38
18, 123344, Note_on_c, 15, 38, 0
18, 123360, Note_on_c, 15, 38, 32
18, 123404, Note_on_c, 15, 38, 0
18, 123420, Note_on_c, 15, 41, 32
18, 123464, Note_on_c, 15, 41, 0
18, 123480, Note_on_c, 15, 40, 32
18, 123524, Note_on_c, 15, 40, 0
18, 123540, Note_on_c, 15, 38, 32
18, 123584, Note_on_c, 15, 38, 0
18, 123600, Note_on_c, 15, 36, 32
18, 123644, Note_on_c, 15, 36, 0
18, 123660, Note_on_c, 15, 35, 32
18, 123704, Note_on_c, 15, 35, 0
18, 123720, Note_on_c, 15, 36, 32
18, 123764, Note_on_c, 15, 36, 0
18, 123780, Note_on_c, 15, 38, 32
18, 123824, Note_on_c, 15, 38, 0
18, 123840, Note_on_c, 15, 40, 32
18, 123959, Note_on_c, 15, 40, 0
18, 127200, Program_c, 15, 45
18, 127320, Note_on_c, 15, 40, 36
18, 127439, Note_on_c, 15, 40, 0
18, 127440, Note_on_c, 15, 28, 37
18, 127559, Note_on_c, 15, 28, 0
18, 127560, Note_on_c, 15, 52, 39
18, 127679, Note_on_c, 15, 52, 0
18, 127680, Note_on_c, 15, 53, 40
18, 127799, Note_on_c, 15, 53, 0
18, 127920, Note_on_c, 15, 36, 44
18, 128039, Note_on_c, 15, 36, 0
18, 128160, Note_on_c, 15, 38, 47
18, 128279, Note_on_c, 15, 38, 0
18, 128400, Note_on_c, 15, 45, 50
18, 128519, Note_on_c, 15, 45, 0
18, 128640, Note_on_c, 15, 50, 53
18, 128759, Note_on_c, 15, 50, 0
18, 128880, Note_on_c, 15, 53, 56
18, 128999, Note_on_c, 15, 53, 0
18, 129120, Note_on_c, 15, 55, 60
18, 129239, Note_on_c, 15, 55, 0
18, 129360, Note_on_c, 15, 57, 60
18, 129479, Note_on_c, 15, 57, 0
18, 129480, Note_on_c, 15, 33, 44
18, 129599, Note_on_c, 15, 33, 0
18, 131880, Note_on_c, 15, 45, 28
18, 131999, Note_on_c, 15, 45, 0
18, 132360, Note_on_c, 15, 36, 28
18, 132479, Note_on_c, 15, 36, 0
18, 132840, Note_on_c, 15, 35, 28
18, 132959, Note_on_c, 15, 35, 0
18, 133320, Note_on_c, 15, 45, 32
18, 133409, Note_on_c, 15, 45, 0
18, 133438, Program_c, 15, 48
18, 133440, Note_on_c, 15, 33, 38
18, 133784, Note_on_c, 15, 33, 0
18, 133800, Note_on_c, 15, 38, 44
18, 133904, Note_on_c, 15, 38, 0
18, 133920, Note_on_c, 15, 36, 38
18, 134264, Note_on_c, 15, 36, 0
18, 134280, Note_on_c, 15, 41, 44
18, 134384, Note_on_c, 15, 41, 0
18, 134400, Note_on_c, 15, 40, 38
18, 134744, Note_on_c, 15, 40, 0
18, 134760, Note_on_c, 15, 46, 44
18, 134864, Note_on_c, 15, 46, 0
18, 134880, Note_on_c, 15, 43, 38
18, 135224, Note_on_c, 15, 43, 0
18, 135240, Note_on_c, 15, 50, 44
18, 135344, Note_on_c, 15, 50, 0
18, 135360, Note_on_c, 15, 48, 44
18, 135404, Note_on_c, 15, 48, 0
18, 135420, Note_on_c, 15, 36, 45
18, 135464, Note_on_c, 15, 36, 0
18, 135480, Note_on_c, 15, 41, 46
18, 135524, Note_on_c, 15, 41, 0
18, 135540, Note_on_c, 15, 45, 47
18, 135584, Note_on_c, 15, 45, 0
18, 135600, Note_on_c, 15, 48, 48
18, 135719, Note_on_c, 15, 48, 0
18, 135840, Note_on_c, 15, 33, 52
18, 135884, Note_on_c, 15, 33, 0
18, 135900, Note_on_c, 15, 36, 53
18, 135944, Note_on_c, 15, 36, 0
18, 135960, Note_on_c, 15, 38, 54
18, 136004, Note_on_c, 15, 38, 0
18, 136020, Note_on_c, 15, 40, 55
18, 136064, Note_on_c, 15, 40, 0
18, 136080, Note_on_c, 15, 41, 56
18, 136199, Note_on_c, 15, 41, 0
18, 136320, Note_on_c, 15, 31, 60
18, 136364, Note_on_c, 15, 31, 0
18, 136380, Note_on_c, 15, 34, 61
18, 136424, Note_on_c, 15, 34, 0
18, 136440, Note_on_c, 15, 36, 62
18, 136484, Note_on_c, 15, 36, 0
18, 136500, Note_on_c, 15, 40, 63
18, 136544, Note_on_c, 15, 40, 0
18, 136560, Note_on_c, 15, 43, 64
18, 136679, Note_on_c, 15, 43, 0
18, 136800, Note_on_c, 15, 34, 68
18, 136844, Note_on_c, 15, 34, 0
18, 136860, Note_on_c, 15, 36, 65
18, 136904, Note_on_c, 15, 36, 0
18, 136920, Note_on_c, 15, 40, 62
18, 136964, Note_on_c, 15, 40, 0
18, 136980, Note_on_c, 15, 43, 59
18, 137024, Note_on_c, 15, 43, 0
18, 137040, Note_on_c, 15, 46, 56
18, 137159, Note_on_c, 15, 46, 0
18, 142080, Note_on_c, 15, 37, 80
18, 142124, Note_on_c, 15, 37, 0
18, 142140, Note_on_c, 15, 55, 80
18, 142184, Note_on_c, 15, 55, 0
18, 142200, Note_on_c, 15, 53, 80
18, 142244, Note_on_c, 15, 53, 0
18, 142260, Note_on_c, 15, 52, 80
18, 142304, Note_on_c, 15, 52, 0
18, 142320, Note_on_c, 15, 49, 80
18, 142364, Note_on_c, 15, 49, 0
18, 142380, Note_on_c, 15, 52, 80
18, 142424, Note_on_c, 15, 52, 0
18, 142440, Note_on_c, 15, 50, 80
18, 142484, Note_on_c, 15, 50, 0
18, 142500, Note_on_c, 15, 49, 80
18, 142544, Note_on_c, 15, 49, 0
18, 142560, Note_on_c, 15, 43, 80
18, 142604, Note_on_c, 15, 43, 0
18, 142620, Note_on_c, 15, 46, 80
18, 142664, Note_on_c, 15, 46, 0
18, 142680, Note_on_c, 15, 45, 80
18, 142724, Note_on_c, 15, 45, 0
18, 142740, Note_on_c, 15, 43, 80
18, 142784, Note_on_c, 15, 43, 0
18, 142800, Note_on_c, 15, 40, 80
18, 142844, Note_on_c, 15, 40, 0
18, 142860, Note_on_c, 15, 43, 80
18, 142904, Note_on_c, 15, 43, 0
18, 142920, Note_on_c, 15, 41, 80
18, 142964, Note_on_c, 15, 41, 0
18, 142980, Note_on_c, 15, 40, 80
18, 143024, Note_on_c, 15, 40, 0
18, 143040, Note_on_c, 15, 37, 80
18, 143084, Note_on_c, 15, 37, 0
18, 143100, Note_on_c, 15, 40, 80
18, 143144, Note_on_c, 15, 40, 0
18, 143160, Note_on_c, 15, 38, 80
18, 143204, Note_on_c, 15, 38, 0
18, 143220, Note_on_c, 15, 37, 80
18, 143264, Note_on_c, 15, 37, 0
18, 143280, Note_on_c, 15, 31, 80
18, 143324, Note_on_c, 15, 31, 0
18, 143340, Note_on_c, 15, 46, 80
18, 143384, Note_on_c, 15, 46, 0
18, 143400, Note_on_c, 15, 45, 80
18, 143444, Note_on_c, 15, 45, 0
18, 143460, Note_on_c, 15, 43, 80
18, 143504, Note_on_c, 15, 43, 0
18, 143520, Note_on_c, 15, 40, 80
18, 143564, Note_on_c, 15, 40, 0
18, 143580, Note_on_c, 15, 41, 80
18, 143624, Note_on_c, 15, 41, 0
18, 143640, Note_on_c, 15, 40, 80
18, 143684, Note_on_c, 15, 40, 0
18, 143700, Note_on_c, 15, 38, 80
18, 143744, Note_on_c, 15, 38, 0
18, 143760, Note_on_c, 15, 37, 80
18, 143804, Note_on_c, 15, 37, 0
18, 143820, Note_on_c, 15, 34, 80
18, 143864, Note_on_c, 15, 34, 0
18, 143880, Note_on_c, 15, 33, 80
18, 143924, Note_on_c, 15, 33, 0
18, 143940, Note_on_c, 15, 31, 80
18, 143984, Note_on_c, 15, 31, 0
18, 144000, Note_on_c, 15, 30, 92
18, 144025, Note_on_c, 15, 30, 0
18, 144030, Note_on_c, 15, 30, 92
18, 144055, Note_on_c, 15, 30, 0
18, 144060, Note_on_c, 15, 30, 92
18, 144085, Note_on_c, 15, 30, 0
18, 144090, Note_on_c, 15, 30, 92
18, 144115, Note_on_c, 15, 30, 0
18, 144120, Note_on_c, 15, 30, 92
18, 144145, Note_on_c, 15, 30, 0
18, 144150, Note_on_c, 15, 30, 92
18, 144175, Note_on_c, 15, 30, 0
18, 144180, Note_on_c, 15, 30, 92
18, 144205, Note_on_c, 15, 30, 0
18, 144210, Note_on_c, 15, 30, 92
18, 144235, Note_on_c, 15, 30, 0
18, 144240, Note_on_c, 15, 30, 92
18, 144265, Note_on_c, 15, 30, 0
18, 144270, Note_on_c, 15, 30, 92
18, 144295, Note_on_c, 15, 30, 0
18, 144300, Note_on_c, 15, 30, 92
18, 144325, Note_on_c, 15, 30, 0
18, 144330, Note_on_c, 15, 30, 92
18, 144355, Note_on_c, 15, 30, 0
18, 144360, Note_on_c, 15, 30, 92
18, 144385, Note_on_c, 15, 30, 0
18, 144390, Note_on_c, 15, 30, 92
18, 144415, Note_on_c, 15, 30, 0
18, 144420, Note_on_c, 15, 30, 92
18, 144445, Note_on_c, 15, 30, 0
18, 144450, Note_on_c, 15, 30, 92
18, 144475, Note_on_c, 15, 30, 0
18, 144480, Note_on_c, 15, 42, 92
18, 144505, Note_on_c, 15, 42, 0
18, 144510, Note_on_c, 15, 42, 92
18, 144535, Note_on_c, 15, 42, 0
18, 144540, Note_on_c, 15, 42, 92
18, 144565, Note_on_c, 15, 42, 0
18, 144570, Note_on_c, 15, 42, 92
18, 144595, Note_on_c, 15, 42, 0
18, 144600, Note_on_c, 15, 42, 92
18, 144625, Note_on_c, 15, 42, 0
18, 144630, Note_on_c, 15, 42, 92
18, 144655, Note_on_c, 15, 42, 0
18, 144660, Note_on_c, 15, 42, 92
18, 144685, Note_on_c, 15, 42, 0
18, 144690, Note_on_c, 15, 42, 92
18, 144715, Note_on_c, 15, 42, 0
18, 144720, Note_on_c, 15, 42, 92
18, 144745, Note_on_c, 15, 42, 0
18, 144750, Note_on_c, 15, 42, 92
18, 144775, Note_on_c, 15, 42, 0
18, 144780, Note_on_c, 15, 42, 92
18, 144805, Note_on_c, 15, 42, 0
18, 144810, Note_on_c, 15, 42, 92
18, 144835, Note_on_c, 15, 42, 0
18, 144840, Note_on_c, 15, 42, 92
18, 144865, Note_on_c, 15, 42, 0
18, 144870, Note_on_c, 15, 42, 92
18, 144895, Note_on_c, 15, 42, 0
18, 144900, Note_on_c, 15, 42, 92
18, 144925, Note_on_c, 15, 42, 0
18, 144930, Note_on_c, 15, 42, 92
18, 144955, Note_on_c, 15, 42, 0
18, 144960, Note_on_c, 15, 54, 92
18, 144985, Note_on_c, 15, 54, 0
18, 144990, Note_on_c, 15, 54, 92
18, 145015, Note_on_c, 15, 54, 0
18, 145020, Note_on_c, 15, 54, 92
18, 145045, Note_on_c, 15, 54, 0
18, 145050, Note_on_c, 15, 54, 92
18, 145075, Note_on_c, 15, 54, 0
18, 145080, Note_on_c, 15, 54, 92
18, 145105, Note_on_c, 15, 54, 0
18, 145110, Note_on_c, 15, 54, 92
18, 145135, Note_on_c, 15, 54, 0
18, 145140, Note_on_c, 15, 54, 92
18, 145165, Note_on_c, 15, 54, 0
18, 145170, Note_on_c, 15, 54, 92
18, 145195, Note_on_c, 15, 54, 0
18, 145200, Note_on_c, 15, 54, 92
18, 145225, Note_on_c, 15, 54, 0
18, 145230, Note_on_c, 15, 54, 92
18, 145255, Note_on_c, 15, 54, 0
18, 145260, Note_on_c, 15, 54, 92
18, 145285, Note_on_c, 15, 54, 0
18, 145290, Note_on_c, 15, 54, 92
18, 145315, Note_on_c, 15, 54, 0
18, 145320, Note_on_c, 15, 54, 92
18, 145345, Note_on_c, 15, 54, 0
18, 145350, Note_on_c, 15, 54, 92
18, 145375, Note_on_c, 15, 54, 0
18, 145380, Note_on_c, 15, 54, 92
18, 145405, Note_on_c, 15, 54, 0
18, 145410, Note_on_c, 15, 54, 92
18, 145435, Note_on_c, 15, 54, 0
18, 145440, Note_on_c, 15, 42, 92
18, 145465, Note_on_c, 15, 42, 0
18, 145470, Note_on_c, 15, 42, 92
18, 145495, Note_on_c, 15, 42, 0
18, 145500, Note_on_c, 15, 42, 92
18, 145525, Note_on_c, 15, 42, 0
18, 145530, Note_on_c, 15, 42, 92
18, 145555, Note_on_c, 15, 42, 0
18, 145560, Note_on_c, 15, 42, 92
18, 145585, Note_on_c, 15, 42, 0
18, 145590, Note_on_c, 15, 42, 92
18, 145615, Note_on_c, 15, 42, 0
18, 145620, Note_on_c, 15, 42, 92
18, 145645, Note_on_c, 15, 42, 0
18, 145650, Note_on_c, 15, 42, 92
18, 145675, Note_on_c, 15, 42, 0
18, 145680, Note_on_c, 15, 42, 92
18, 145705, Note_on_c, 15, 42, 0
18, 145710, Note_on_c, 15, 42, 92
18, 145735, Note_on_c, 15, 42, 0
18, 145740, Note_on_c, 15, 42, 92
18, 145765, Note_on_c, 15, 42, 0
18, 145770, Note_on_c, 15, 42, 92
18, 145795, Note_on_c, 15, 42, 0
18, 145800, Note_on_c, 15, 42, 92
18, 145825, Note_on_c, 15, 42, 0
18, 145830, Note_on_c, 15, 42, 92
18, 145855, Note_on_c, 15, 42, 0
18, 145860, Note_on_c, 15, 42, 92
18, 145885, Note_on_c, 15, 42, 0
18, 145890, Note_on_c, 15, 42, 92
18, 145915, Note_on_c, 15, 42, 0
18, 145920, Note_on_c, 15, 30, 92
18, 145945, Note_on_c, 15, 30, 0
18, 145950, Note_on_c, 15, 30, 92
18, 145975, Note_on_c, 15, 30, 0
18, 145980, Note_on_c, 15, 30, 92
18, 146005, Note_on_c, 15, 30, 0
18, 146010, Note_on_c, 15, 30, 92
18, 146035, Note_on_c, 15, 30, 0
18, 146040, Note_on_c, 15, 30, 92
18, 146065, Note_on_c, 15, 30, 0
18, 146070, Note_on_c, 15, 30, 92
18, 146095, Note_on_c, 15, 30, 0
18, 146100, Note_on_c, 15, 30, 92
18, 146125, Note_on_c, 15, 30, 0
18, 146130, Note_on_c, 15, 30, 92
18, 146155, Note_on_c, 15, 30, 0
18, 146160, Note_on_c, 15, 30, 92
18, 146185, Note_on_c, 15, 30, 0
18, 146190, Note_on_c, 15, 30, 92
18, 146215, Note_on_c, 15, 30, 0
18, 146220, Note_on_c, 15, 30, 92
18, 146245, Note_on_c, 15, 30, 0
18, 146250, Note_on_c, 15, 30, 92
18, 146275, Note_on_c, 15, 30, 0
18, 146280, Note_on_c, 15, 30, 92
18, 146305, Note_on_c, 15, 30, 0
18, 146310, Note_on_c, 15, 30, 92
18, 146335, Note_on_c, 15, 30, 0
18, 146340, Note_on_c, 15, 30, 92
18, 146365, Note_on_c, 15, 30, 0
18, 146370, Note_on_c, 15, 30, 92
18, 146395, Note_on_c, 15, 30, 0
18, 146400, Note_on_c, 15, 42, 92
18, 146425, Note_on_c, 15, 42, 0
18, 146430, Note_on_c, 15, 42, 92
18, 146455, Note_on_c, 15, 42, 0
18, 146460, Note_on_c, 15, 42, 92
18, 146485, Note_on_c, 15, 42, 0
18, 146490, Note_on_c, 15, 42, 92
18, 146515, Note_on_c, 15, 42, 0
18, 146520, Note_on_c, 15, 42, 92
18, 146545, Note_on_c, 15, 42, 0
18, 146550, Note_on_c, 15, 42, 92
18, 146575, Note_on_c, 15, 42, 0
18, 146580, Note_on_c, 15, 42, 92
18, 146605, Note_on_c, 15, 42, 0
18, 146610, Note_on_c, 15, 42, 92
18, 146635, Note_on_c, 15, 42, 0
18, 146640, Note_on_c, 15, 42, 92
18, 146665, Note_on_c, 15, 42, 0
18, 146670, Note_on_c, 15, 42, 92
18, 146695, Note_on_c, 15, 42, 0
18, 146700, Note_on_c, 15, 42, 92
18, 146725, Note_on_c, 15, 42, 0
18, 146730, Note_on_c, 15, 42, 92
18, 146755, Note_on_c, 15, 42, 0
18, 146760, Note_on_c, 15, 42, 92
18, 146785, Note_on_c, 15, 42, 0
18, 146790, Note_on_c, 15, 42, 92
18, 146815, Note_on_c, 15, 42, 0
18, 146820, Note_on_c, 15, 42, 92
18, 146845, Note_on_c, 15, 42, 0
18, 146850, Note_on_c, 15, 42, 92
18, 146875, Note_on_c, 15, 42, 0
18, 146880, Note_on_c, 15, 54, 92
18, 146905, Note_on_c, 15, 54, 0
18, 146910, Note_on_c, 15, 54, 92
18, 146935, Note_on_c, 15, 54, 0
18, 146940, Note_on_c, 15, 54, 92
18, 146965, Note_on_c, 15, 54, 0
18, 146970, Note_on_c, 15, 54, 92
18, 146995, Note_on_c, 15, 54, 0
18, 147000, Note_on_c, 15, 54, 92
18, 147025, Note_on_c, 15, 54, 0
18, 147030, Note_on_c, 15, 54, 92
18, 147055, Note_on_c, 15, 54, 0
18, 147060, Note_on_c, 15, 54, 92
18, 147085, Note_on_c, 15, 54, 0
18, 147090, Note_on_c, 15, 54, 92
18, 147115, Note_on_c, 15, 54, 0
18, 147120, Note_on_c, 15, 54, 92
18, 147145, Note_on_c, 15, 54, 0
18, 147150, Note_on_c, 15, 54, 92
18, 147175, Note_on_c, 15, 54, 0
18, 147180, Note_on_c, 15, 54, 92
18, 147205, Note_on_c, 15, 54, 0
18, 147210, Note_on_c, 15, 54, 92
18, 147235, Note_on_c, 15, 54, 0
18, 147240, Note_on_c, 15, 54, 92
18, 147265, Note_on_c, 15, 54, 0
18, 147270, Note_on_c, 15, 54, 92
18, 147295, Note_on_c, 15, 54, 0
18, 147300, Note_on_c, 15, 54, 92
18, 147325, Note_on_c, 15, 54, 0
18, 147330, Note_on_c, 15, 54, 92
18, 147355, Note_on_c, 15, 54, 0
18, 147360, Note_on_c, 15, 42, 92
18, 147385, Note_on_c, 15, 42, 0
18, 147390, Note_on_c, 15, 42, 92
18, 147415, Note_on_c, 15, 42, 0
18, 147420, Note_on_c, 15, 42, 92
18, 147445, Note_on_c, 15, 42, 0
18, 147450, Note_on_c, 15, 42, 92
18, 147475, Note_on_c, 15, 42, 0
18, 147480, Note_on_c, 15, 42, 92
18, 147505, Note_on_c, 15, 42, 0
18, 147510, Note_on_c, 15, 42, 92
18, 147535, Note_on_c, 15, 42, 0
18, 147540, Note_on_c, 15, 42, 92
18, 147565, Note_on_c, 15, 42, 0
18, 147570, Note_on_c, 15, 42, 92
18, 147595, Note_on_c, 15, 42, 0
18, 147600, Note_on_c, 15, 42, 92
18, 147625, Note_on_c, 15, 42, 0
18, 147630, Note_on_c, 15, 42, 92
18, 147655, Note_on_c, 15, 42, 0
18, 147660, Note_on_c, 15, 42, 92
18, 147685, Note_on_c, 15, 42, 0
18, 147690, Note_on_c, 15, 42, 92
18, 147715, Note_on_c, 15, 42, 0
18, 147720, Note_on_c, 15, 42, 92
18, 147745, Note_on_c, 15, 42, 0
18, 147750, Note_on_c, 15, 42, 92
18, 147775, Note_on_c, 15, 42, 0
18, 147780, Note_on_c, 15, 42, 92
18, 147805, Note_on_c, 15, 42, 0
18, 147810, Note_on_c, 15, 42, 92
18, 147835, Note_on_c, 15, 42, 0
18, 147840, Note_on_c, 15, 30, 92
18, 147865, Note_on_c, 15, 30, 0
18, 147870, Note_on_c, 15, 30, 92
18, 147895, Note_on_c, 15, 30, 0
18, 147900, Note_on_c, 15, 30, 92
18, 147925, Note_on_c, 15, 30, 0
18, 147930, Note_on_c, 15, 30, 92
18, 147955, Note_on_c, 15, 30, 0
18, 147960, Note_on_c, 15, 30, 92
18, 147985, Note_on_c, 15, 30, 0
18, 147990, Note_on_c, 15, 30, 92
18, 148015, Note_on_c, 15, 30, 0
18, 148020, Note_on_c, 15, 30, 92
18, 148045, Note_on_c, 15, 30, 0
18, 148050, Note_on_c, 15, 30, 92
18, 148075, Note_on_c, 15, 30, 0
18, 148080, Note_on_c, 15, 42, 92
18, 148105, Note_on_c, 15, 42, 0
18, 148110, Note_on_c, 15, 42, 92
18, 148135, Note_on_c, 15, 42, 0
18, 148140, Note_on_c, 15, 42, 92
18, 148165, Note_on_c, 15, 42, 0
18, 148170, Note_on_c, 15, 42, 92
18, 148195, Note_on_c, 15, 42, 0
18, 148200, Note_on_c, 15, 42, 92
18, 148225, Note_on_c, 15, 42, 0
18, 148230, Note_on_c, 15, 42, 92
18, 148255, Note_on_c, 15, 42, 0
18, 148260, Note_on_c, 15, 42, 92
18, 148285, Note_on_c, 15, 42, 0
18, 148290, Note_on_c, 15, 42, 92
18, 148315, Note_on_c, 15, 42, 0
18, 148320, Note_on_c, 15, 54, 92
18, 148345, Note_on_c, 15, 54, 0
18, 148350, Note_on_c, 15, 54, 92
18, 148375, Note_on_c, 15, 54, 0
18, 148380, Note_on_c, 15, 54, 92
18, 148405, Note_on_c, 15, 54, 0
18, 148410, Note_on_c, 15, 54, 92
18, 148435, Note_on_c, 15, 54, 0
18, 148440, Note_on_c, 15, 54, 92
18, 148465, Note_on_c, 15, 54, 0
18, 148470, Note_on_c, 15, 54, 92
18, 148495, Note_on_c, 15, 54, 0
18, 148500, Note_on_c, 15, 54, 92
18, 148525, Note_on_c, 15, 54, 0
18, 148530, Note_on_c, 15, 54, 92
18, 148555, Note_on_c, 15, 54, 0
18, 148560, Note_on_c, 15, 42, 92
18, 148585, Note_on_c, 15, 42, 0
18, 148590, Note_on_c, 15, 42, 92
18, 148615, Note_on_c, 15, 42, 0
18, 148620, Note_on_c, 15, 42, 92
18, 148645, Note_on_c, 15, 42, 0
18, 148650, Note_on_c, 15, 42, 92
18, 148675, Note_on_c, 15, 42, 0
18, 148680, Note_on_c, 15, 42, 92
18, 148705, Note_on_c, 15, 42, 0
18, 148710, Note_on_c, 15, 42, 92
18, 148735, Note_on_c, 15, 42, 0
18, 148740, Note_on_c, 15, 42, 92
18, 148765, Note_on_c, 15, 42, 0
18, 148770, Note_on_c, 15, 42, 92
18, 148795, Note_on_c, 15, 42, 0
18, 148800, Note_on_c, 15, 30, 92
18, 148825, Note_on_c, 15, 30, 0
18, 148830, Note_on_c, 15, 30, 92
18, 148855, Note_on_c, 15, 30, 0
18, 148860, Note_on_c, 15, 30, 92
18, 148885, Note_on_c, 15, 30, 0
18, 148890, Note_on_c, 15, 30, 92
18, 148915, Note_on_c, 15, 30, 0
18, 148920, Note_on_c, 15, 30, 92
18, 148945, Note_on_c, 15, 30, 0
18, 148950, Note_on_c, 15, 30, 92
18, 148975, Note_on_c, 15, 30, 0
18, 148980, Note_on_c, 15, 30, 92
18, 149005, Note_on_c, 15, 30, 0
18, 149010, Note_on_c, 15, 30, 92
18, 149035, Note_on_c, 15, 30, 0
18, 149040, Note_on_c, 15, 42, 92
18, 149065, Note_on_c, 15, 42, 0
18, 149070, Note_on_c, 15, 42, 92
18, 149095, Note_on_c, 15, 42, 0
18, 149100, Note_on_c, 15, 42, 92
18, 149125, Note_on_c, 15, 42, 0
18, 149130, Note_on_c, 15, 42, 92
18, 149155, Note_on_c, 15, 42, 0
18, 149160, Note_on_c, 15, 42, 92
18, 149185, Note_on_c, 15, 42, 0
18, 149190, Note_on_c, 15, 42, 92
18, 149215, Note_on_c, 15, 42, 0
18, 149220, Note_on_c, 15, 42, 92
18, 149245, Note_on_c, 15, 42, 0
18, 149250, Note_on_c, 15, 42, 92
18, 149275, Note_on_c, 15, 42, 0
18, 149280, Note_on_c, 15, 54, 92
18, 149305, Note_on_c, 15, 54, 0
18, 149310, Note_on_c, 15, 54, 92
18, 149335, Note_on_c, 15, 54, 0
18, 149340, Note_on_c, 15, 54, 92
18, 149365, Note_on_c, 15, 54, 0
18, 149370, Note_on_c, 15, 54, 92
18, 149395, Note_on_c, 15, 54, 0
18, 149400, Note_on_c, 15, 54, 92
18, 149425, Note_on_c, 15, 54, 0
18, 149430, Note_on_c, 15, 54, 92
18, 149455, Note_on_c, 15, 54, 0
18, 149460, Note_on_c, 15, 54, 92
18, 149485, Note_on_c, 15, 54, 0
18, 149490, Note_on_c, 15, 54, 92
18, 149515, Note_on_c, 15, 54, 0
18, 149520, Note_on_c, 15, 42, 92
18, 149545, Note_on_c, 15, 42, 0
18, 149550, Note_on_c, 15, 42, 92
18, 149575, Note_on_c, 15, 42, 0
18, 149580, Note_on_c, 15, 42, 92
18, 149605, Note_on_c, 15, 42, 0
18, 149610, Note_on_c, 15, 42, 92
18, 149635, Note_on_c, 15, 42, 0
18, 149640, Note_on_c, 15, 41, 92
18, 149665, Note_on_c, 15, 41, 0
18, 149670, Note_on_c, 15, 41, 92
18, 149695, Note_on_c, 15, 41, 0
18, 149700, Note_on_c, 15, 41, 92
18, 149725, Note_on_c, 15, 41, 0
18, 149730, Note_on_c, 15, 41, 92
18, 149755, Note_on_c, 15, 41, 0
18, 149760, Note_on_c, 15, 34, 92
18, 149785, Note_on_c, 15, 34, 0
18, 149790, Note_on_c, 15, 34, 92
18, 149815, Note_on_c, 15, 34, 0
18, 149820, Note_on_c, 15, 34, 92
18, 149845, Note_on_c, 15, 34, 0
18, 149850, Note_on_c, 15, 34, 92
18, 149875, Note_on_c, 15, 34, 0
18, 149880, Note_on_c, 15, 34, 92
18, 149905, Note_on_c, 15, 34, 0
18, 149910, Note_on_c, 15, 34, 92
18, 149935, Note_on_c, 15, 34, 0
18, 149940, Note_on_c, 15, 34, 92
18, 149965, Note_on_c, 15, 34, 0
18, 149970, Note_on_c, 15, 34, 92
18, 149995, Note_on_c, 15, 34, 0
18, 150000, Note_on_c, 15, 34, 92
18, 150025, Note_on_c, 15, 34, 0
18, 150030, Note_on_c, 15, 34, 92
18, 150055, Note_on_c, 15, 34, 0
18, 150060, Note_on_c, 15, 34, 92
18, 150085, Note_on_c, 15, 34, 0
18, 150090, Note_on_c, 15, 34, 92
18, 150115, Note_on_c, 15, 34, 0
18, 150120, Note_on_c, 15, 34, 92
18, 150145, Note_on_c, 15, 34, 0
18, 150150, Note_on_c, 15, 34, 92
18, 150175, Note_on_c, 15, 34, 0
18, 150180, Note_on_c, 15, 34, 92
18, 150205, Note_on_c, 15, 34, 0
18, 150210, Note_on_c, 15, 34, 92
18, 150235, Note_on_c, 15, 34, 0
18, 150240, Note_on_c, 15, 34, 92
18, 150265, Note_on_c, 15, 34, 0
18, 150270, Note_on_c, 15, 34, 92
18, 150295, Note_on_c, 15, 34, 0
18, 150300, Note_on_c, 15, 34, 92
18, 150325, Note_on_c, 15, 34, 0
18, 150330, Note_on_c, 15, 34, 92
18, 150355, Note_on_c, 15, 34, 0
18, 150360, Note_on_c, 15, 34, 92
18, 150385, Note_on_c, 15, 34, 0
18, 150390, Note_on_c, 15, 34, 92
18, 150415, Note_on_c, 15, 34, 0
18, 150420, Note_on_c, 15, 34, 92
18, 150445, Note_on_c, 15, 34, 0
18, 150450, Note_on_c, 15, 34, 92
18, 150475, Note_on_c, 15, 34, 0
18, 150480, Note_on_c, 15, 34, 92
18, 150505, Note_on_c, 15, 34, 0
18, 150510, Note_on_c, 15, 34, 92
18, 150535, Note_on_c, 15, 34, 0
18, 150540, Note_on_c, 15, 34, 92
18, 150565, Note_on_c, 15, 34, 0
18, 150570, Note_on_c, 15, 34, 92
18, 150595, Note_on_c, 15, 34, 0
18, 150600, Note_on_c, 15, 34, 92
18, 150625, Note_on_c, 15, 34, 0
18, 150630, Note_on_c, 15, 34, 92
18, 150655, Note_on_c, 15, 34, 0
18, 150660, Note_on_c, 15, 34, 92
18, 150685, Note_on_c, 15, 34, 0
18, 150690, Note_on_c, 15, 29, 92
18, 150715, Note_on_c, 15, 29, 0
18, 150720, Note_on_c, 15, 29, 92
18, 150921, Note_on_c, 15, 29, 0
18, 150930, Note_on_c, 15, 29, 92
18, 150951, Note_on_c, 15, 29, 0
18, 150960, Note_on_c, 15, 33, 104
18, 151019, Note_on_c, 15, 33, 0
18, 151020, Note_on_c, 15, 33, 92
18, 151401, Note_on_c, 15, 33, 0
18, 151410, Note_on_c, 15, 33, 92
18, 151431, Note_on_c, 15, 33, 0
18, 151440, Note_on_c, 15, 38, 104
18, 151499, Note_on_c, 15, 38, 0
18, 151500, Note_on_c, 15, 38, 92
18, 151881, Note_on_c, 15, 38, 0
18, 151890, Note_on_c, 15, 38, 92
18, 151911, Note_on_c, 15, 38, 0
18, 151920, Note_on_c, 15, 41, 104
18, 151979, Note_on_c, 15, 41, 0
18, 151980, Note_on_c, 15, 41, 92
18, 152264, Note_on_c, 15, 41, 0
18, 152280, Note_on_c, 15, 45, 92
18, 152369, Note_on_c, 15, 45, 0
18, 152400, Note_on_c, 15, 50, 92
18, 152489, Note_on_c, 15, 50, 0
18, 152520, Note_on_c, 15, 48, 92
18, 152609, Note_on_c, 15, 48, 0
18, 152640, Note_on_c, 15, 48, 92
18, 152759, Note_on_c, 15, 48, 0
18, 152760, Note_on_c, 15, 46, 92
18, 152864, Note_on_c, 15, 46, 0
18, 152880, Note_on_c, 15, 45, 92
18, 152969, Note_on_c, 15, 45, 0
18, 153000, Note_on_c, 15, 43, 92
18, 153089, Note_on_c, 15, 43, 0
18, 153120, Note_on_c, 15, 41, 92
18, 153209, Note_on_c, 15, 41, 0
18, 153240, Note_on_c, 15, 43, 92
18, 153329, Note_on_c, 15, 43, 0
18, 153360, Note_on_c, 15, 45, 92
18, 153449, Note_on_c, 15, 45, 0
18, 153480, Note_on_c, 15, 47, 104
18, 153539, Note_on_c, 15, 47, 0
18, 153540, Note_on_c, 15, 48, 92
18, 153591, Note_on_c, 15, 48, 0
18, 153600, Note_on_c, 15, 48, 92
18, 153719, Note_on_c, 15, 48, 0
18, 153720, Note_on_c, 15, 46, 92
18, 153824, Note_on_c, 15, 46, 0
18, 153840, Note_on_c, 15, 45, 92
18, 153929, Note_on_c, 15, 45, 0
18, 153960, Note_on_c, 15, 43, 92
18, 154049, Note_on_c, 15, 43, 0
18, 154080, Note_on_c, 15, 42, 92
18, 154169, Note_on_c, 15, 42, 0
18, 154200, Note_on_c, 15, 43, 92
18, 154289, Note_on_c, 15, 43, 0
18, 154320, Note_on_c, 15, 45, 92
18, 154409, Note_on_c, 15, 45, 0
18, 154440, Note_on_c, 15, 45, 104
18, 154479, Note_on_c, 15, 45, 0
18, 154480, Note_on_c, 15, 47, 92
18, 154519, Note_on_c, 15, 47, 0
18, 154520, Note_on_c, 15, 48, 92
18, 154553, Note_on_c, 15, 48, 0
18, 154560, Note_on_c, 15, 48, 80
18, 155024, Note_on_c, 15, 48, 0
18, 155040, Note_on_c, 15, 48, 80
18, 155219, Note_on_c, 15, 48, 0
18, 155280, Note_on_c, 15, 45, 80
18, 155459, Note_on_c, 15, 45, 0
18, 155520, Note_on_c, 15, 43, 80
18, 155984, Note_on_c, 15, 43, 0
18, 156000, Note_on_c, 15, 31, 80
18, 156025, Note_on_c, 15, 31, 0
18, 156030, Note_on_c, 15, 31, 80
18, 156055, Note_on_c, 15, 31, 0
18, 156060, Note_on_c, 15, 31, 80
18, 156085, Note_on_c, 15, 31, 0
18, 156090, Note_on_c, 15, 31, 80
18, 156115, Note_on_c, 15, 31, 0
18, 156120, Note_on_c, 15, 39, 80
18, 156145, Note_on_c, 15, 39, 0
18, 156150, Note_on_c, 15, 39, 80
18, 156175, Note_on_c, 15, 39, 0
18, 156180, Note_on_c, 15, 39, 80
18, 156205, Note_on_c, 15, 39, 0
18, 156210, Note_on_c, 15, 39, 80
18, 156235, Note_on_c, 15, 39, 0
18, 156240, Note_on_c, 15, 39, 80
18, 156265, Note_on_c, 15, 39, 0
18, 156270, Note_on_c, 15, 39, 80
18, 156295, Note_on_c, 15, 39, 0
18, 156300, Note_on_c, 15, 39, 80
18, 156325, Note_on_c, 15, 39, 0
18, 156330, Note_on_c, 15, 39, 80
18, 156355, Note_on_c, 15, 39, 0
18, 156360, Note_on_c, 15, 51, 80
18, 156385, Note_on_c, 15, 51, 0
18, 156390, Note_on_c, 15, 51, 80
18, 156415, Note_on_c, 15, 51, 0
18, 156420, Note_on_c, 15, 51, 80
18, 156445, Note_on_c, 15, 51, 0
18, 156450, Note_on_c, 15, 51, 80
18, 156475, Note_on_c, 15, 51, 0
18, 156480, Note_on_c, 15, 37, 92
18, 156505, Note_on_c, 15, 37, 0
18, 156510, Note_on_c, 15, 37, 80
18, 156535, Note_on_c, 15, 37, 0
18, 156540, Note_on_c, 15, 37, 80
18, 156565, Note_on_c, 15, 37, 0
18, 156570, Note_on_c, 15, 37, 80
18, 156595, Note_on_c, 15, 37, 0
18, 156600, Note_on_c, 15, 38, 80
18, 156625, Note_on_c, 15, 38, 0
18, 156630, Note_on_c, 15, 38, 80
18, 156655, Note_on_c, 15, 38, 0
18, 156660, Note_on_c, 15, 38, 80
18, 156685, Note_on_c, 15, 38, 0
18, 156690, Note_on_c, 15, 38, 80
18, 156715, Note_on_c, 15, 38, 0
18, 156720, Note_on_c, 15, 38, 80
18, 156745, Note_on_c, 15, 38, 0
18, 156750, Note_on_c, 15, 38, 80
18, 156775, Note_on_c, 15, 38, 0
18, 156780, Note_on_c, 15, 38, 80
18, 156805, Note_on_c, 15, 38, 0
18, 156810, Note_on_c, 15, 38, 80
18, 156835, Note_on_c, 15, 38, 0
18, 156840, Note_on_c, 15, 38, 80
18, 156865, Note_on_c, 15, 38, 0
18, 156870, Note_on_c, 15, 38, 80
18, 156895, Note_on_c, 15, 38, 0
18, 156900, Note_on_c, 15, 38, 80
18, 156925, Note_on_c, 15, 38, 0
18, 156930, Note_on_c, 15, 38, 80
18, 156955, Note_on_c, 15, 38, 0
18, 156960, Note_on_c, 15, 38, 80
18, 156985, Note_on_c, 15, 38, 0
18, 156990, Note_on_c, 15, 38, 80
18, 157015, Note_on_c, 15, 38, 0
18, 157020, Note_on_c, 15, 38, 80
18, 157045, Note_on_c, 15, 38, 0
18, 157050, Note_on_c, 15, 38, 80
18, 157075, Note_on_c, 15, 38, 0
18, 157080, Note_on_c, 15, 38, 80
18, 157105, Note_on_c, 15, 38, 0
18, 157110, Note_on_c, 15, 38, 80
18, 157135, Note_on_c, 15, 38, 0
18, 157140, Note_on_c, 15, 38, 80
18, 157165, Note_on_c, 15, 38, 0
18, 157170, Note_on_c, 15, 38, 80
18, 157195, Note_on_c, 15, 38, 0
18, 157200, Note_on_c, 15, 38, 80
18, 157225, Note_on_c, 15, 38, 0
18, 157230, Note_on_c, 15, 38, 80
18, 157255, Note_on_c, 15, 38, 0
18, 157260, Note_on_c, 15, 38, 80
18, 157285, Note_on_c, 15, 38, 0
18, 157290, Note_on_c, 15, 38, 80
18, 157315, Note_on_c, 15, 38, 0
18, 157320, Note_on_c, 15, 38, 80
18, 157345, Note_on_c, 15, 38, 0
18, 157350, Note_on_c, 15, 38, 80
18, 157375, Note_on_c, 15, 38, 0
18, 157380, Note_on_c, 15, 38, 80
18, 157405, Note_on_c, 15, 38, 0
18, 157410, Note_on_c, 15, 38, 80
18, 157435, Note_on_c, 15, 38, 0
18, 157440, Note_on_c, 15, 38, 92
18, 157465, Note_on_c, 15, 38, 0
18, 157470, Note_on_c, 15, 38, 80
18, 157495, Note_on_c, 15, 38, 0
18, 157500, Note_on_c, 15, 38, 80
18, 157525, Note_on_c, 15, 38, 0
18, 157530, Note_on_c, 15, 38, 80
18, 157555, Note_on_c, 15, 38, 0
18, 157560, Note_on_c, 15, 38, 80
18, 157585, Note_on_c, 15, 38, 0
18, 157590, Note_on_c, 15, 38, 80
18, 157615, Note_on_c, 15, 38, 0
18, 157620, Note_on_c, 15, 38, 80
18, 157645, Note_on_c, 15, 38, 0
18, 157650, Note_on_c, 15, 38, 80
18, 157675, Note_on_c, 15, 38, 0
18, 157680, Note_on_c, 15, 38, 80
18, 157705, Note_on_c, 15, 38, 0
18, 157710, Note_on_c, 15, 38, 80
18, 157735, Note_on_c, 15, 38, 0
18, 157740, Note_on_c, 15, 38, 80
18, 157765, Note_on_c, 15, 38, 0
18, 157770, Note_on_c, 15, 38, 80
18, 157795, Note_on_c, 15, 38, 0
18, 157800, Note_on_c, 15, 38, 80
18, 157825, Note_on_c, 15, 38, 0
18, 157830, Note_on_c, 15, 38, 80
18, 157855, Note_on_c, 15, 38, 0
18, 157860, Note_on_c, 15, 38, 80
18, 157885, Note_on_c, 15, 38, 0
18, 157890, Note_on_c, 15, 38, 80
18, 157915, Note_on_c, 15, 38, 0
18, 157920, Note_on_c, 15, 38, 80
18, 157945, Note_on_c, 15, 38, 0
18, 157950, Note_on_c, 15, 38, 80
18, 157975, Note_on_c, 15, 38, 0
18, 157980, Note_on_c, 15, 38, 80
18, 158005, Note_on_c, 15, 38, 0
18, 158010, Note_on_c, 15, 38, 80
18, 158035, Note_on_c, 15, 38, 0
18, 158040, Note_on_c, 15, 38, 80
18, 158065, Note_on_c, 15, 38, 0
18, 158070, Note_on_c, 15, 38, 80
18, 158095, Note_on_c, 15, 38, 0
18, 158100, Note_on_c, 15, 38, 80
18, 158125, Note_on_c, 15, 38, 0
18, 158130, Note_on_c, 15, 38, 80
18, 158155, Note_on_c, 15, 38, 0
18, 158160, Note_on_c, 15, 38, 80
18, 158185, Note_on_c, 15, 38, 0
18, 158190, Note_on_c, 15, 38, 80
18, 158215, Note_on_c, 15, 38, 0
18, 158220, Note_on_c, 15, 38, 80
18, 158245, Note_on_c, 15, 38, 0
18, 158250, Note_on_c, 15, 38, 80
18, 158275, Note_on_c, 15, 38, 0
18, 158280, Note_on_c, 15, 38, 80
18, 158305, Note_on_c, 15, 38, 0
18, 158310, Note_on_c, 15, 38, 80
18, 158335, Note_on_c, 15, 38, 0
18, 158340, Note_on_c, 15, 38, 80
18, 158365, Note_on_c, 15, 38, 0
18, 158370, Note_on_c, 15, 38, 80
18, 158395, Note_on_c, 15, 38, 0
18, 158400, Note_on_c, 15, 38, 92
18, 158425, Note_on_c, 15, 38, 0
18, 158430, Note_on_c, 15, 38, 80
18, 158455, Note_on_c, 15, 38, 0
18, 158460, Note_on_c, 15, 38, 80
18, 158485, Note_on_c, 15, 38, 0
18, 158490, Note_on_c, 15, 38, 80
18, 158515, Note_on_c, 15, 38, 0
18, 158520, Note_on_c, 15, 38, 80
18, 158545, Note_on_c, 15, 38, 0
18, 158550, Note_on_c, 15, 38, 80
18, 158575, Note_on_c, 15, 38, 0
18, 158580, Note_on_c, 15, 38, 80
18, 158605, Note_on_c, 15, 38, 0
18, 158610, Note_on_c, 15, 38, 80
18, 158635, Note_on_c, 15, 38, 0
18, 158640, Note_on_c, 15, 38, 80
18, 158665, Note_on_c, 15, 38, 0
18, 158670, Note_on_c, 15, 38, 80
18, 158695, Note_on_c, 15, 38, 0
18, 158700, Note_on_c, 15, 38, 80
18, 158725, Note_on_c, 15, 38, 0
18, 158730, Note_on_c, 15, 38, 80
18, 158755, Note_on_c, 15, 38, 0
18, 158760, Note_on_c, 15, 38, 80
18, 158785, Note_on_c, 15, 38, 0
18, 158790, Note_on_c, 15, 38, 80
18, 158815, Note_on_c, 15, 38, 0
18, 158820, Note_on_c, 15, 38, 80
18, 158845, Note_on_c, 15, 38, 0
18, 158850, Note_on_c, 15, 38, 80
18, 158875, Note_on_c, 15, 38, 0
18, 158880, Note_on_c, 15, 38, 80
18, 158905, Note_on_c, 15, 38, 0
18, 158910, Note_on_c, 15, 38, 80
18, 158935, Note_on_c, 15, 38, 0
18, 158940, Note_on_c, 15, 38, 80
18, 158965, Note_on_c, 15, 38, 0
18, 158970, Note_on_c, 15, 38, 80
18, 158995, Note_on_c, 15, 38, 0
18, 159000, Note_on_c, 15, 38, 80
18, 159025, Note_on_c, 15, 38, 0
18, 159030, Note_on_c, 15, 38, 80
18, 159055, Note_on_c, 15, 38, 0
18, 159060, Note_on_c, 15, 38, 80
18, 159085, Note_on_c, 15, 38, 0
18, 159090, Note_on_c, 15, 38, 80
18, 159115, Note_on_c, 15, 38, 0
18, 159120, Note_on_c, 15, 38, 80
18, 159145, Note_on_c, 15, 38, 0
18, 159150, Note_on_c, 15, 38, 80
18, 159175, Note_on_c, 15, 38, 0
18, 159180, Note_on_c, 15, 38, 80
18, 159205, Note_on_c, 15, 38, 0
18, 159210, Note_on_c, 15, 38, 80
18, 159235, Note_on_c, 15, 38, 0
18, 159240, Note_on_c, 15, 38, 80
18, 159265, Note_on_c, 15, 38, 0
18, 159270, Note_on_c, 15, 38, 80
18, 159295, Note_on_c, 15, 38, 0
18, 159300, Note_on_c, 15, 38, 80
18, 159325, Note_on_c, 15, 38, 0
18, 159330, Note_on_c, 15, 38, 80
18, 159355, Note_on_c, 15, 38, 0
18, 159360, Note_on_c, 15, 38, 92
18, 159385, Note_on_c, 15, 38, 0
18, 159390, Note_on_c, 15, 38, 80
18, 159415, Note_on_c, 15, 38, 0
18, 159420, Note_on_c, 15, 38, 80
18, 159445, Note_on_c, 15, 38, 0
18, 159450, Note_on_c, 15, 38, 80
18, 159475, Note_on_c, 15, 38, 0
18, 159480, Note_on_c, 15, 38, 80
18, 159505, Note_on_c, 15, 38, 0
18, 159510, Note_on_c, 15, 38, 80
18, 159535, Note_on_c, 15, 38, 0
18, 159540, Note_on_c, 15, 38, 80
18, 159565, Note_on_c, 15, 38, 0
18, 159570, Note_on_c, 15, 38, 80
18, 159595, Note_on_c, 15, 38, 0
18, 159600, Note_on_c, 15, 38, 80
18, 159625, Note_on_c, 15, 38, 0
18, 159630, Note_on_c, 15, 38, 80
18, 159655, Note_on_c, 15, 38, 0
18, 159660, Note_on_c, 15, 38, 80
18, 159685, Note_on_c, 15, 38, 0
18, 159690, Note_on_c, 15, 38, 80
18, 159715, Note_on_c, 15, 38, 0
18, 159720, Note_on_c, 15, 38, 80
18, 159745, Note_on_c, 15, 38, 0
18, 159750, Note_on_c, 15, 38, 80
18, 159775, Note_on_c, 15, 38, 0
18, 159780, Note_on_c, 15, 38, 80
18, 159805, Note_on_c, 15, 38, 0
18, 159810, Note_on_c, 15, 38, 80
18, 159835, Note_on_c, 15, 38, 0
18, 159840, Note_on_c, 15, 38, 80
18, 159865, Note_on_c, 15, 38, 0
18, 159870, Note_on_c, 15, 38, 80
18, 159895, Note_on_c, 15, 38, 0
18, 159900, Note_on_c, 15, 38, 80
18, 159925, Note_on_c, 15, 38, 0
18, 159930, Note_on_c, 15, 38, 80
18, 159955, Note_on_c, 15, 38, 0
18, 159960, Note_on_c, 15, 38, 80
18, 159985, Note_on_c, 15, 38, 0
18, 159990, Note_on_c, 15, 38, 80
18, 160015, Note_on_c, 15, 38, 0
18, 160020, Note_on_c, 15, 38, 80
18, 160045, Note_on_c, 15, 38, 0
18, 160050, Note_on_c, 15, 38, 80
18, 160075, Note_on_c, 15, 38, 0
18, 160080, Note_on_c, 15, 38, 80
18, 160105, Note_on_c, 15, 38, 0
18, 160110, Note_on_c, 15, 38, 80
18, 160135, Note_on_c, 15, 38, 0
18, 160140, Note_on_c, 15, 38, 80
18, 160165, Note_on_c, 15, 38, 0
18, 160170, Note_on_c, 15, 38, 80
18, 160195, Note_on_c, 15, 38, 0
18, 160200, Note_on_c, 15, 38, 80
18, 160225, Note_on_c, 15, 38, 0
18, 160230, Note_on_c, 15, 38, 80
18, 160255, Note_on_c, 15, 38, 0
18, 160260, Note_on_c, 15, 38, 80
18, 160285, Note_on_c, 15, 38, 0
18, 160290, Note_on_c, 15, 38, 80
18, 160315, Note_on_c, 15, 38, 0
18, 160320, Note_on_c, 15, 38, 92
18, 160345, Note_on_c, 15, 38, 0
18, 160350, Note_on_c, 15, 38, 80
18, 160375, Note_on_c, 15, 38, 0
18, 160380, Note_on_c, 15, 38, 80
18, 160405, Note_on_c, 15, 38, 0
18, 160410, Note_on_c, 15, 38, 80
18, 160435, Note_on_c, 15, 38, 0
18, 160440, Note_on_c, 15, 38, 80
18, 160465, Note_on_c, 15, 38, 0
18, 160470, Note_on_c, 15, 38, 80
18, 160495, Note_on_c, 15, 38, 0
18, 160500, Note_on_c, 15, 38, 80
18, 160525, Note_on_c, 15, 38, 0
18, 160530, Note_on_c, 15, 38, 80
18, 160555, Note_on_c, 15, 38, 0
18, 160560, Note_on_c, 15, 38, 80
18, 160585, Note_on_c, 15, 38, 0
18, 160590, Note_on_c, 15, 38, 80
18, 160615, Note_on_c, 15, 38, 0
18, 160620, Note_on_c, 15, 38, 80
18, 160645, Note_on_c, 15, 38, 0
18, 160650, Note_on_c, 15, 38, 80
18, 160675, Note_on_c, 15, 38, 0
18, 160680, Note_on_c, 15, 38, 80
18, 160705, Note_on_c, 15, 38, 0
18, 160710, Note_on_c, 15, 38, 80
18, 160735, Note_on_c, 15, 38, 0
18, 160740, Note_on_c, 15, 38, 80
18, 160765, Note_on_c, 15, 38, 0
18, 160770, Note_on_c, 15, 38, 80
18, 160795, Note_on_c, 15, 38, 0
18, 160800, Note_on_c, 15, 38, 80
18, 160825, Note_on_c, 15, 38, 0
18, 160830, Note_on_c, 15, 38, 80
18, 160855, Note_on_c, 15, 38, 0
18, 160860, Note_on_c, 15, 38, 80
18, 160885, Note_on_c, 15, 38, 0
18, 160890, Note_on_c, 15, 38, 80
18, 160915, Note_on_c, 15, 38, 0
18, 160920, Note_on_c, 15, 38, 80
18, 160945, Note_on_c, 15, 38, 0
18, 160950, Note_on_c, 15, 38, 80
18, 160975, Note_on_c, 15, 38, 0
18, 160980, Note_on_c, 15, 38, 80
18, 161005, Note_on_c, 15, 38, 0
18, 161010, Note_on_c, 15, 38, 80
18, 161035, Note_on_c, 15, 38, 0
18, 161040, Note_on_c, 15, 38, 80
18, 161065, Note_on_c, 15, 38, 0
18, 161070, Note_on_c, 15, 38, 80
18, 161095, Note_on_c, 15, 38, 0
18, 161100, Note_on_c, 15, 38, 80
18, 161125, Note_on_c, 15, 38, 0
18, 161130, Note_on_c, 15, 38, 80
18, 161155, Note_on_c, 15, 38, 0
18, 161160, Note_on_c, 15, 38, 80
18, 161185, Note_on_c, 15, 38, 0
18, 161190, Note_on_c, 15, 38, 80
18, 161215, Note_on_c, 15, 38, 0
18, 161220, Note_on_c, 15, 38, 80
18, 161245, Note_on_c, 15, 38, 0
18, 161250, Note_on_c, 15, 38, 80
18, 161275, Note_on_c, 15, 38, 0
18, 161280, Note_on_c, 15, 38, 92
18, 161305, Note_on_c, 15, 38, 0
18, 161310, Note_on_c, 15, 38, 79
18, 161335, Note_on_c, 15, 38, 0
18, 161340, Note_on_c, 15, 38, 78
18, 161365, Note_on_c, 15, 38, 0
18, 161370, Note_on_c, 15, 38, 77
18, 161395, Note_on_c, 15, 38, 0
18, 161400, Note_on_c, 15, 38, 76
18, 161425, Note_on_c, 15, 38, 0
18, 161430, Note_on_c, 15, 38, 75
18, 161455, Note_on_c, 15, 38, 0
18, 161460, Note_on_c, 15, 38, 74
18, 161485, Note_on_c, 15, 38, 0
18, 161490, Note_on_c, 15, 38, 73
18, 161515, Note_on_c, 15, 38, 0
18, 161520, Note_on_c, 15, 38, 71
18, 161545, Note_on_c, 15, 38, 0
18, 161550, Note_on_c, 15, 38, 70
18, 161575, Note_on_c, 15, 38, 0
18, 161580, Note_on_c, 15, 38, 69
18, 161605, Note_on_c, 15, 38, 0
18, 161610, Note_on_c, 15, 38, 68
18, 161635, Note_on_c, 15, 38, 0
18, 161640, Note_on_c, 15, 38, 67
18, 161665, Note_on_c, 15, 38, 0
18, 161670, Note_on_c, 15, 38, 66
18, 161695, Note_on_c, 15, 38, 0
18, 161700, Note_on_c, 15, 38, 65
18, 161725, Note_on_c, 15, 38, 0
18, 161730, Note_on_c, 15, 38, 64
18, 161755, Note_on_c, 15, 38, 0
18, 161760, Note_on_c, 15, 38, 62
18, 161785, Note_on_c, 15, 38, 0
18, 161790, Note_on_c, 15, 38, 61
18, 161815, Note_on_c, 15, 38, 0
18, 161820, Note_on_c, 15, 38, 60
18, 161845, Note_on_c, 15, 38, 0
18, 161850, Note_on_c, 15, 38, 59
18, 161875, Note_on_c, 15, 38, 0
18, 161880, Note_on_c, 15, 38, 58
18, 161905, Note_on_c, 15, 38, 0
18, 161910, Note_on_c, 15, 38, 57
18, 161935, Note_on_c, 15, 38, 0
18, 161940, Note_on_c, 15, 38, 56
18, 161965, Note_on_c, 15, 38, 0
18, 161970, Note_on_c, 15, 38, 55
18, 161995, Note_on_c, 15, 38, 0
18, 162000, Note_on_c, 15, 38, 53
18, 162025, Note_on_c, 15, 38, 0
18, 162030, Note_on_c, 15, 38, 52
18, 162055, Note_on_c, 15, 38, 0
18, 162060, Note_on_c, 15, 38, 51
18, 162085, Note_on_c, 15, 38, 0
18, 162090, Note_on_c, 15, 38, 50
18, 162115, Note_on_c, 15, 38, 0
18, 162120, Note_on_c, 15, 38, 49
18, 162145, Note_on_c, 15, 38, 0
18, 162150, Note_on_c, 15, 38, 48
18, 162175, Note_on_c, 15, 38, 0
18, 162180, Note_on_c, 15, 38, 47
18, 162205, Note_on_c, 15, 38, 0
18, 162210, Note_on_c, 15, 38, 46
18, 162235, Note_on_c, 15, 38, 0
18, 162240, Note_on_c, 15, 37, 44
18, 162344, Note_on_c, 15, 37, 0
18, 162360, Note_on_c, 15, 45, 44
18, 162411, Note_on_c, 15, 45, 0
18, 162420, Note_on_c, 15, 45, 44
18, 162471, Note_on_c, 15, 45, 0
18, 162480, Note_on_c, 15, 45, 44
18, 162599, Note_on_c, 15, 45, 0
18, 163320, Note_on_c, 15, 33, 44
18, 163371, Note_on_c, 15, 33, 0
18, 163380, Note_on_c, 15, 33, 44
18, 163431, Note_on_c, 15, 33, 0
18, 163440, Note_on_c, 15, 33, 44
18, 163559, Note_on_c, 15, 33, 0
18, 164280, Note_on_c, 15, 45, 44
18, 164331, Note_on_c, 15, 45, 0
18, 164340, Note_on_c, 15, 45, 44
18, 164391, Note_on_c, 15, 45, 0
18, 164400, Note_on_c, 15, 45, 44
18, 164519, Note_on_c, 15, 45, 0
18, 165000, Note_on_c, 15, 37, 44
18, 165171, Note_on_c, 15, 37, 0
18, 165180, Note_on_c, 15, 38, 44
18, 165224, Note_on_c, 15, 38, 0
18, 165240, Note_on_c, 15, 41, 44
18, 165284, Note_on_c, 15, 41, 0
18, 165300, Note_on_c, 15, 42, 44
18, 165344, Note_on_c, 15, 42, 0
18, 165360, Note_on_c, 15, 45, 44
18, 165479, Note_on_c, 15, 45, 0
18, 165600, Note_on_c, 15, 41, 44
18, 165644, Note_on_c, 15, 41, 0
18, 165660, Note_on_c, 15, 42, 44
18, 165704, Note_on_c, 15, 42, 0
18, 165720, Note_on_c, 15, 45, 44
18, 165764, Note_on_c, 15, 45, 0
18, 165780, Note_on_c, 15, 49, 44
18, 165824, Note_on_c, 15, 49, 0
18, 165840, Note_on_c, 15, 50, 44
18, 165959, Note_on_c, 15, 50, 0
18, 166080, Note_on_c, 15, 40, 44
18, 166124, Note_on_c, 15, 40, 0
18, 166140, Note_on_c, 15, 43, 44
18, 166184, Note_on_c, 15, 43, 0
18, 166200, Note_on_c, 15, 45, 44
18, 166244, Note_on_c, 15, 45, 0
18, 166260, Note_on_c, 15, 49, 44
18, 166304, Note_on_c, 15, 49, 0
18, 166320, Note_on_c, 15, 52, 44
18, 166439, Note_on_c, 15, 52, 0
18, 166560, Note_on_c, 15, 31, 44
18, 166604, Note_on_c, 15, 31, 0
18, 166620, Note_on_c, 15, 37, 44
18, 166664, Note_on_c, 15, 37, 0
18, 166680, Note_on_c, 15, 40, 44
18, 166724, Note_on_c, 15, 40, 0
18, 166740, Note_on_c, 15, 42, 44
18, 166784, Note_on_c, 15, 42, 0
18, 166800, Note_on_c, 15, 43, 44
18, 166919, Note_on_c, 15, 43, 0
18, 167040, Note_on_c, 15, 38, 44
18, 167084, Note_on_c, 15, 38, 0
18, 167100, Note_on_c, 15, 42, 44
18, 167144, Note_on_c, 15, 42, 0
18, 167160, Note_on_c, 15, 44, 44
18, 167204, Note_on_c, 15, 44, 0
18, 167220, Note_on_c, 15, 45, 44
18, 167264, Note_on_c, 15, 45, 0
18, 167280, Note_on_c, 15, 45, 44
18, 167399, Note_on_c, 15, 45, 0
18, 167520, Note_on_c, 15, 42, 44
18, 167564, Note_on_c, 15, 42, 0
18, 167580, Note_on_c, 15, 45, 44
18, 167624, Note_on_c, 15, 45, 0
18, 167640, Note_on_c, 15, 49, 44
18, 167684, Note_on_c, 15, 49, 0
18, 167700, Note_on_c, 15, 50, 44
18, 167744, Note_on_c, 15, 50, 0
18, 167760, Note_on_c, 15, 50, 44
18, 167879, Note_on_c, 15, 50, 0
18, 168240, Note_on_c, 15, 38, 44
18, 168284, Note_on_c, 15, 38, 0
18, 168300, Note_on_c, 15, 41, 46
18, 168344, Note_on_c, 15, 41, 0
18, 168360, Note_on_c, 15, 44, 48
18, 168404, Note_on_c, 15, 44, 0
18, 168420, Note_on_c, 15, 45, 50
18, 168464, Note_on_c, 15, 45, 0
18, 168480, Note_on_c, 15, 45, 52
18, 168599, Note_on_c, 15, 45, 0
18, 168720, Note_on_c, 15, 41, 60
18, 168764, Note_on_c, 15, 41, 0
18, 168780, Note_on_c, 15, 45, 62
18, 168824, Note_on_c, 15, 45, 0
18, 168840, Note_on_c, 15, 49, 64
18, 168884, Note_on_c, 15, 49, 0
18, 168900, Note_on_c, 15, 50, 66
18, 168944, Note_on_c, 15, 50, 0
18, 168960, Note_on_c, 15, 40, 68
18, 169079, Note_on_c, 15, 40, 0
18, 169200, Note_on_c, 15, 40, 62
18, 169244, Note_on_c, 15, 40, 0
18, 169260, Note_on_c, 15, 43, 61
18, 169304, Note_on_c, 15, 43, 0
18, 169320, Note_on_c, 15, 45, 59
18, 169364, Note_on_c, 15, 45, 0
18, 169380, Note_on_c, 15, 49, 58
18, 169424, Note_on_c, 15, 49, 0
18, 169440, Note_on_c, 15, 52, 56
18, 169559, Note_on_c, 15, 52, 0
18, 169680, Note_on_c, 15, 31, 50
18, 169724, Note_on_c, 15, 31, 0
18, 169740, Note_on_c, 15, 37, 49
18, 169784, Note_on_c, 15, 37, 0
18, 169800, Note_on_c, 15, 40, 47
18, 169844, Note_on_c, 15, 40, 0
18, 169860, Note_on_c, 15, 43, 46
18, 169904, Note_on_c, 15, 43, 0
18, 169920, Note_on_c, 15, 41, 44
18, 170039, Note_on_c, 15, 41, 0
18, 171600, Control_c, 15, 11, 67
18, 171840, Control_c, 15, 11, 67
18, 171840, Note_on_c, 15, 34, 80
18, 171860, Control_c, 15, 11, 68
18, 171880, Control_c, 15, 11, 70
18, 171900, Control_c, 15, 11, 71
18, 171920, Control_c, 15, 11, 72
18, 171940, Control_c, 15, 11, 73
18, 171960, Control_c, 15, 11, 75
18, 171980, Control_c, 15, 11, 76
18, 172000, Control_c, 15, 11, 77
18, 172020, Control_c, 15, 11, 78
18, 172040, Control_c, 15, 11, 80
18, 172060, Control_c, 15, 11, 81
18, 172080, Control_c, 15, 11, 82
18, 172100, Control_c, 15, 11, 83
18, 172120, Control_c, 15, 11, 85
18, 172140, Control_c, 15, 11, 86
18, 172160, Control_c, 15, 11, 87
18, 172180, Control_c, 15, 11, 88
18, 172200, Control_c, 15, 11, 90
18, 172220, Control_c, 15, 11, 91
18, 172240, Control_c, 15, 11, 92
18, 172260, Control_c, 15, 11, 93
18, 172280, Control_c, 15, 11, 95
18, 172300, Control_c, 15, 11, 96
18, 172319, Note_on_c, 15, 34, 0
18, 172320, Note_on_c, 15, 45, 80
18, 172320, Control_c, 15, 11, 97
18, 172340, Control_c, 15, 11, 98
18, 172360, Control_c, 15, 11, 100
18, 172379, Note_on_c, 15, 45, 0
18, 172380, Control_c, 15, 11, 101
18, 172380, Note_on_c, 15, 43, 80
18, 172400, Control_c, 15, 11, 102
18, 172420, Control_c, 15, 11, 103
18, 172439, Note_on_c, 15, 43, 0
18, 172440, Control_c, 15, 11, 105
18, 172440, Note_on_c, 15, 42, 80
18, 172460, Control_c, 15, 11, 106
18, 172480, Control_c, 15, 11, 107
18, 172491, Note_on_c, 15, 42, 0
18, 172500, Note_on_c, 15, 39, 80
18, 172500, Control_c, 15, 11, 108
18, 172520, Control_c, 15, 11, 110
18, 172540, Control_c, 15, 11, 111
18, 172559, Note_on_c, 15, 39, 0
18, 172560, Note_on_c, 15, 38, 80
18, 172560, Control_c, 15, 11, 112
18, 172580, Control_c, 15, 11, 113
18, 172600, Control_c, 15, 11, 115
18, 172611, Note_on_c, 15, 38, 0
18, 172620, Note_on_c, 15, 36, 80
18, 172620, Control_c, 15, 11, 116
18, 172640, Control_c, 15, 11, 117
18, 172660, Control_c, 15, 11, 118
18, 172679, Note_on_c, 15, 36, 0
18, 172680, Note_on_c, 15, 34, 80
18, 172680, Control_c, 15, 11, 120
18, 172700, Control_c, 15, 11, 121
18, 172720, Control_c, 15, 11, 122
18, 172731, Note_on_c, 15, 34, 0
18, 172740, Note_on_c, 15, 33, 80
18, 172740, Control_c, 15, 11, 123
18, 172760, Control_c, 15, 11, 125
18, 172780, Control_c, 15, 11, 127
18, 172799, Note_on_c, 15, 33, 0
18, 172800, Note_on_c, 15, 43, 80
18, 172851, Note_on_c, 15, 43, 0
18, 172860, Note_on_c, 15, 41, 80
18, 172919, Note_on_c, 15, 41, 0
18, 172920, Note_on_c, 15, 40, 80
18, 172971, Note_on_c, 15, 40, 0
18, 172980, Note_on_c, 15, 38, 80
18, 173039, Note_on_c, 15, 38, 0
18, 173040, Note_on_c, 15, 36, 80
18, 173091, Note_on_c, 15, 36, 0
18, 173100, Note_on_c, 15, 34, 80
18, 173159, Note_on_c, 15, 34, 0
18, 173160, Note_on_c, 15, 33, 80
18, 173211, Note_on_c, 15, 33, 0
18, 173220, Note_on_c, 15, 31, 80
18, 173279, Note_on_c, 15, 31, 0
18, 173280, Note_on_c, 15, 33, 80
18, 173399, Note_on_c, 15, 33, 0
18, 173520, Note_on_c, 15, 45, 80
18, 173609, Note_on_c, 15, 45, 0
18, 173758, Control_c, 15, 11, 67
18, 173760, Control_c, 15, 11, 67
18, 173760, Note_on_c, 15, 34, 80
18, 173792, Control_c, 15, 11, 68
18, 173824, Control_c, 15, 11, 69
18, 173856, Control_c, 15, 11, 70
18, 173888, Control_c, 15, 11, 71
18, 173920, Control_c, 15, 11, 72
18, 173952, Control_c, 15, 11, 73
18, 173984, Control_c, 15, 11, 74
18, 174016, Control_c, 15, 11, 75
18, 174048, Control_c, 15, 11, 76
18, 174080, Control_c, 15, 11, 77
18, 174112, Control_c, 15, 11, 78
18, 174144, Control_c, 15, 11, 79
18, 174176, Control_c, 15, 11, 80
18, 174208, Control_c, 15, 11, 81
18, 174239, Note_on_c, 15, 34, 0
18, 174240, Note_on_c, 15, 45, 80
18, 174240, Control_c, 15, 11, 82
18, 174272, Control_c, 15, 11, 83
18, 174299, Note_on_c, 15, 45, 0
18, 174300, Note_on_c, 15, 43, 80
18, 174304, Control_c, 15, 11, 84
18, 174336, Control_c, 15, 11, 85
18, 174359, Note_on_c, 15, 43, 0
18, 174360, Note_on_c, 15, 42, 80
18, 174368, Control_c, 15, 11, 86
18, 174400, Control_c, 15, 11, 87
18, 174411, Note_on_c, 15, 42, 0
18, 174420, Note_on_c, 15, 39, 80
18, 174432, Control_c, 15, 11, 88
18, 174464, Control_c, 15, 11, 89
18, 174479, Note_on_c, 15, 39, 0
18, 174480, Note_on_c, 15, 38, 80
18, 174496, Control_c, 15, 11, 90
18, 174528, Control_c, 15, 11, 91
18, 174531, Note_on_c, 15, 38, 0
18, 174540, Note_on_c, 15, 36, 80
18, 174560, Control_c, 15, 11, 92
18, 174592, Control_c, 15, 11, 93
18, 174599, Note_on_c, 15, 36, 0
18, 174600, Note_on_c, 15, 34, 80
18, 174624, Control_c, 15, 11, 94
18, 174651, Note_on_c, 15, 34, 0
18, 174656, Control_c, 15, 11, 95
18, 174660, Note_on_c, 15, 33, 80
18, 174688, Control_c, 15, 11, 96
18, 174719, Note_on_c, 15, 33, 0
18, 174720, Control_c, 15, 11, 97
18, 174720, Note_on_c, 15, 31, 80
18, 174752, Control_c, 15, 11, 98
18, 174784, Control_c, 15, 11, 99
18, 174816, Control_c, 15, 11, 100
18, 174839, Note_on_c, 15, 31, 0
18, 175648, Control_c, 15, 11, 127
18, 175680, Note_on_c, 15, 51, 80
18, 176024, Note_on_c, 15, 51, 0
18, 176040, Note_on_c, 15, 50, 80
18, 176159, Note_on_c, 15, 50, 0
18, 176160, Note_on_c, 15, 49, 80
18, 176211, Note_on_c, 15, 49, 0
18, 176220, Note_on_c, 15, 46, 80
18, 176279, Note_on_c, 15, 46, 0
18, 176280, Note_on_c, 15, 45, 80
18, 176331, Note_on_c, 15, 45, 0
18, 176340, Note_on_c, 15, 43, 80
18, 176399, Note_on_c, 15, 43, 0
18, 176400, Note_on_c, 15, 41, 80
18, 176451, Note_on_c, 15, 41, 0
18, 176460, Note_on_c, 15, 40, 80
18, 176519, Note_on_c, 15, 40, 0
18, 176520, Note_on_c, 15, 38, 80
18, 176571, Note_on_c, 15, 38, 0
18, 176580, Note_on_c, 15, 37, 80
18, 176624, Note_on_c, 15, 37, 0
18, 176640, Note_on_c, 15, 41, 92
18, 176729, Note_on_c, 15, 41, 0
18, 176760, Note_on_c, 15, 41, 92
18, 176841, Note_on_c, 15, 41, 0
18, 176850, Note_on_c, 15, 41, 92
18, 176871, Note_on_c, 15, 41, 0
18, 176880, Note_on_c, 15, 42, 92
18, 176999, Note_on_c, 15, 42, 0
18, 177120, Note_on_c, 15, 43, 92
18, 177224, Note_on_c, 15, 43, 0
18, 177240, Note_on_c, 15, 42, 92
18, 177321, Note_on_c, 15, 42, 0
18, 177330, Note_on_c, 15, 42, 92
18, 177351, Note_on_c, 15, 42, 0
18, 177360, Note_on_c, 15, 43, 92
18, 177479, Note_on_c, 15, 43, 0
18, 178560, Note_on_c, 15, 38, 92
18, 178664, Note_on_c, 15, 38, 0
18, 178680, Note_on_c, 15, 37, 92
18, 178761, Note_on_c, 15, 37, 0
18, 178770, Note_on_c, 15, 37, 92
18, 178791, Note_on_c, 15, 37, 0
18, 178800, Note_on_c, 15, 38, 92
18, 178919, Note_on_c, 15, 38, 0
18, 179040, Note_on_c, 15, 39, 92
18, 179144, Note_on_c, 15, 39, 0
18, 179160, Note_on_c, 15, 38, 92
18, 179241, Note_on_c, 15, 38, 0
18, 179250, Note_on_c, 15, 38, 92
18, 179271, Note_on_c, 15, 38, 0
18, 179280, Note_on_c, 15, 39, 92
18, 179399, Note_on_c, 15, 39, 0
18, 180480, Program_c, 15, 45
18, 180960, Note_on_c, 15, 39, 28
18, 181079, Note_on_c, 15, 39, 0
18, 181440, Note_on_c, 15, 39, 28
18, 181559, Note_on_c, 15, 39, 0
18, 181920, Note_on_c, 15, 39, 28
18, 182039, Note_on_c, 15, 39, 0
18, 182160, Note_on_c, 15, 39, 28
18, 182279, Note_on_c, 15, 39, 0
18, 182280, Note_on_c, 15, 38, 28
18, 182399, Note_on_c, 15, 38, 0
18, 182400, Note_on_c, 15, 46, 28
18, 182519, Note_on_c, 15, 46, 0
18, 183240, Note_on_c, 15, 38, 28
18, 183359, Note_on_c, 15, 38, 0
18, 183480, Note_on_c, 15, 37, 28
18, 183599, Note_on_c, 15, 37, 0
18, 183720, Note_on_c, 15, 37, 28
18, 183839, Note_on_c, 15, 37, 0
18, 183960, Note_on_c, 15, 38, 28
18, 184079, Note_on_c, 15, 38, 0
18, 184200, Note_on_c, 15, 40, 28
18, 184319, Note_on_c, 15, 40, 0
18, 184440, Note_on_c, 15, 41, 28
18, 184559, Note_on_c, 15, 41, 0
18, 184680, Note_on_c, 15, 43, 28
18, 184799, Note_on_c, 15, 43, 0
18, 184920, Note_on_c, 15, 45, 28
18, 185039, Note_on_c, 15, 45, 0
18, 185160, Note_on_c, 15, 46, 28
18, 185264, Note_on_c, 15, 46, 0
18, 185280, Program_c, 15, 48
18, 185400, Note_on_c, 15, 37, 32
18, 185639, Note_on_c, 15, 37, 0
18, 185640, Note_on_c, 15, 43, 32
18, 185759, Note_on_c, 15, 43, 0
18, 185880, Note_on_c, 15, 31, 32
18, 186119, Note_on_c, 15, 31, 0
18, 186120, Note_on_c, 15, 37, 32
18, 186239, Note_on_c, 15, 37, 0
18, 186360, Note_on_c, 15, 42, 32
18, 186599, Note_on_c, 15, 42, 0
18, 186600, Note_on_c, 15, 50, 32
18, 186719, Note_on_c, 15, 50, 0
18, 186840, Note_on_c, 15, 50, 32
18, 187079, Note_on_c, 15, 50, 0
18, 187080, Note_on_c, 15, 54, 32
18, 187199, Note_on_c, 15, 54, 0
18, 187320, Note_on_c, 15, 25, 33
18, 187559, Note_on_c, 15, 25, 0
18, 187560, Note_on_c, 15, 31, 35
18, 187679, Note_on_c, 15, 31, 0
18, 187800, Note_on_c, 15, 31, 38
18, 188039, Note_on_c, 15, 31, 0
18, 188040, Note_on_c, 15, 37, 40
18, 188159, Note_on_c, 15, 37, 0
18, 188280, Note_on_c, 15, 42, 42
18, 188519, Note_on_c, 15, 42, 0
18, 188520, Note_on_c, 15, 50, 45
18, 188639, Note_on_c, 15, 50, 0
18, 188760, Note_on_c, 15, 50, 47
18, 188999, Note_on_c, 15, 50, 0
18, 189000, Note_on_c, 15, 54, 50
18, 189119, Note_on_c, 15, 54, 0
18, 189240, Note_on_c, 15, 25, 52
18, 189299, Note_on_c, 15, 25, 0
18, 189300, Note_on_c, 15, 31, 53
18, 189359, Note_on_c, 15, 31, 0
18, 189480, Note_on_c, 15, 31, 54
18, 189539, Note_on_c, 15, 31, 0
18, 189540, Note_on_c, 15, 37, 55
18, 189599, Note_on_c, 15, 37, 0
18, 189720, Note_on_c, 15, 42, 57
18, 189779, Note_on_c, 15, 42, 0
18, 189780, Note_on_c, 15, 50, 57
18, 189839, Note_on_c, 15, 50, 0
18, 189960, Note_on_c, 15, 50, 59
18, 190019, Note_on_c, 15, 50, 0
18, 190020, Note_on_c, 15, 54, 60
18, 190079, Note_on_c, 15, 54, 0
18, 190200, Note_on_c, 15, 25, 62
18, 190259, Note_on_c, 15, 25, 0
18, 190260, Note_on_c, 15, 31, 62
18, 190319, Note_on_c, 15, 31, 0
18, 190440, Note_on_c, 15, 31, 64
18, 190499, Note_on_c, 15, 31, 0
18, 190500, Note_on_c, 15, 37, 65
18, 190559, Note_on_c, 15, 37, 0
18, 190680, Note_on_c, 15, 41, 66
18, 190739, Note_on_c, 15, 41, 0
18, 190740, Note_on_c, 15, 50, 67
18, 190799, Note_on_c, 15, 50, 0
18, 190920, Note_on_c, 15, 50, 69
18, 190979, Note_on_c, 15, 50, 0
18, 190980, Note_on_c, 15, 53, 69
18, 191031, Note_on_c, 15, 53, 0
18, 191040, Note_on_c, 15, 33, 70
18, 191099, Note_on_c, 15, 33, 0
18, 191100, Note_on_c, 15, 43, 71
18, 191159, Note_on_c, 15, 43, 0
18, 191160, Note_on_c, 15, 33, 71
18, 191219, Note_on_c, 15, 33, 0
18, 191220, Note_on_c, 15, 43, 72
18, 191279, Note_on_c, 15, 43, 0
18, 191280, Note_on_c, 15, 33, 72
18, 191339, Note_on_c, 15, 33, 0
18, 191340, Note_on_c, 15, 43, 73
18, 191399, Note_on_c, 15, 43, 0
18, 191400, Note_on_c, 15, 33, 74
18, 191459, Note_on_c, 15, 33, 0
18, 191460, Note_on_c, 15, 41, 74
18, 191511, Note_on_c, 15, 41, 0
18, 191520, Note_on_c, 15, 33, 75
18, 191579, Note_on_c, 15, 33, 0
18, 191580, Note_on_c, 15, 43, 75
18, 191639, Note_on_c, 15, 43, 0
18, 191640, Note_on_c, 15, 33, 76
18, 191699, Note_on_c, 15, 33, 0
18, 191700, Note_on_c, 15, 40, 77
18, 191759, Note_on_c, 15, 40, 0
18, 191760, Note_on_c, 15, 33, 77
18, 191819, Note_on_c, 15, 33, 0
18, 191820, Note_on_c, 15, 37, 78
18, 191879, Note_on_c, 15, 37, 0
18, 191880, Note_on_c, 15, 33, 78
18, 191939, Note_on_c, 15, 33, 0
18, 191940, Note_on_c, 15, 38, 79
18, 192051, Note_on_c, 15, 38, 0
18, 192060, Note_on_c, 15, 40, 80
18, 192104, Note_on_c, 15, 40, 0
18, 192120, Note_on_c, 15, 55, 92
18, 192179, Note_on_c, 15, 55, 0
18, 192180, Note_on_c, 15, 55, 80
18, 192344, Note_on_c, 15, 55, 0
18, 192360, Note_on_c, 15, 40, 80
18, 192524, Note_on_c, 15, 40, 0
18, 192540, Note_on_c, 15, 41, 80
18, 192584, Note_on_c, 15, 41, 0
18, 192600, Note_on_c, 15, 57, 92
18, 192659, Note_on_c, 15, 57, 0
18, 192660, Note_on_c, 15, 57, 80
18, 192824, Note_on_c, 15, 57, 0
18, 192840, Note_on_c, 15, 29, 80
18, 193004, Note_on_c, 15, 29, 0
18, 193020, Note_on_c, 15, 31, 80
18, 193064, Note_on_c, 15, 31, 0
18, 193080, Note_on_c, 15, 46, 92
18, 193139, Note_on_c, 15, 46, 0
18, 193140, Note_on_c, 15, 46, 80
18, 193304, Note_on_c, 15, 46, 0
18, 193320, Note_on_c, 15, 31, 80
18, 193484, Note_on_c, 15, 31, 0
18, 193500, Note_on_c, 15, 33, 80
18, 193544, Note_on_c, 15, 33, 0
18, 193560, Note_on_c, 15, 48, 92
18, 193619, Note_on_c, 15, 48, 0
18, 193620, Note_on_c, 15, 48, 80
18, 193784, Note_on_c, 15, 48, 0
18, 193800, Note_on_c, 15, 33, 80
18, 193964, Note_on_c, 15, 33, 0
18, 193980, Note_on_c, 15, 34, 80
18, 194024, Note_on_c, 15, 34, 0
18, 194040, Note_on_c, 15, 50, 92
18, 194099, Note_on_c, 15, 50, 0
18, 194100, Note_on_c, 15, 50, 80
18, 194264, Note_on_c, 15, 50, 0
18, 194280, Note_on_c, 15, 35, 80
18, 194444, Note_on_c, 15, 35, 0
18, 194460, Note_on_c, 15, 37, 80
18, 194504, Note_on_c, 15, 37, 0
18, 194520, Note_on_c, 15, 52, 92
18, 194624, Note_on_c, 15, 52, 0
18, 194640, Note_on_c, 15, 55, 80
18, 194804, Note_on_c, 15, 55, 0
18, 194820, Note_on_c, 15, 43, 80
18, 194871, Note_on_c, 15, 43, 0
18, 194880, Note_on_c, 15, 41, 92
18, 194984, Note_on_c, 15, 41, 0
18, 195000, Note_on_c, 15, 29, 44
18, 195119, Note_on_c, 15, 29, 0
18, 195720, Note_on_c, 15, 41, 92
18, 195801, Note_on_c, 15, 41, 0
18, 195810, Note_on_c, 15, 41, 92
18, 195831, Note_on_c, 15, 41, 0
18, 195840, Note_on_c, 15, 43, 92
18, 195929, Note_on_c, 15, 43, 0
18, 195960, Note_on_c, 15, 31, 44
18, 196049, Note_on_c, 15, 31, 0
18, 196680, Note_on_c, 15, 43, 92
18, 196761, Note_on_c, 15, 43, 0
18, 196770, Note_on_c, 15, 43, 92
18, 196791, Note_on_c, 15, 43, 0
18, 196800, Note_on_c, 15, 45, 92
18, 196889, Note_on_c, 15, 45, 0
18, 196920, Note_on_c, 15, 33, 44
18, 197009, Note_on_c, 15, 33, 0
18, 197640, Note_on_c, 15, 45, 92
18, 197721, Note_on_c, 15, 45, 0
18, 197730, Note_on_c, 15, 45, 92
18, 197751, Note_on_c, 15, 45, 0
18, 197760, Note_on_c, 15, 46, 92
18, 197849, Note_on_c, 15, 46, 0
18, 197880, Note_on_c, 15, 34, 44
18, 197969, Note_on_c, 15, 34, 0
18, 199560, Note_on_c, 15, 45, 92
18, 199664, Note_on_c, 15, 45, 0
18, 199680, Note_on_c, 15, 46, 80
18, 199799, Note_on_c, 15, 46, 0
18, 199800, Note_on_c, 15, 46, 80
18, 199859, Note_on_c, 15, 46, 0
18, 199920, Note_on_c, 15, 45, 80
18, 200039, Note_on_c, 15, 45, 0
18, 200040, Note_on_c, 15, 45, 80
18, 200099, Note_on_c, 15, 45, 0
18, 200160, Note_on_c, 15, 43, 80
18, 200279, Note_on_c, 15, 43, 0
18, 200280, Note_on_c, 15, 43, 80
18, 200339, Note_on_c, 15, 43, 0
18, 200400, Note_on_c, 15, 45, 92
18, 200519, Note_on_c, 15, 45, 0
18, 200520, Note_on_c, 15, 45, 92
18, 200579, Note_on_c, 15, 45, 0
18, 200640, Note_on_c, 15, 38, 92
18, 200984, Note_on_c, 15, 38, 0
18, 201000, Note_on_c, 15, 38, 92
18, 201081, Note_on_c, 15, 38, 0
18, 201090, Note_on_c, 15, 38, 92
18, 201111, Note_on_c, 15, 38, 0
18, 201120, Note_on_c, 15, 41, 104
18, 201179, Note_on_c, 15, 41, 0
18, 201180, Note_on_c, 15, 41, 92
18, 201464, Note_on_c, 15, 41, 0
18, 201480, Note_on_c, 15, 41, 92
18, 201561, Note_on_c, 15, 41, 0
18, 201570, Note_on_c, 15, 41, 92
18, 201591, Note_on_c, 15, 41, 0
18, 201600, Note_on_c, 15, 45, 104
18, 201659, Note_on_c, 15, 45, 0
18, 201660, Note_on_c, 15, 45, 92
18, 201944, Note_on_c, 15, 45, 0
18, 201960, Note_on_c, 15, 45, 92
18, 202041, Note_on_c, 15, 45, 0
18, 202050, Note_on_c, 15, 45, 92
18, 202071, Note_on_c, 15, 45, 0
18, 202080, Note_on_c, 15, 50, 92
18, 202184, Note_on_c, 15, 50, 0
18, 202200, Note_on_c, 15, 50, 92
18, 202281, Note_on_c, 15, 50, 0
18, 202290, Note_on_c, 15, 50, 92
18, 202311, Note_on_c, 15, 50, 0
18, 202320, Note_on_c, 15, 53, 92
18, 202424, Note_on_c, 15, 53, 0
18, 202440, Note_on_c, 15, 53, 92
18, 202521, Note_on_c, 15, 53, 0
18, 202530, Note_on_c, 15, 53, 92
18, 202551, Note_on_c, 15, 53, 0
18, 202560, Note_on_c, 15, 57, 80
18, 202649, Note_on_c, 15, 57, 0
18, 202680, Note_on_c, 15, 50, 80
18, 202761, Note_on_c, 15, 50, 0
18, 202770, Note_on_c, 15, 50, 80
18, 202791, Note_on_c, 15, 50, 0
18, 202800, Note_on_c, 15, 53, 80
18, 202889, Note_on_c, 15, 53, 0
18, 202920, Note_on_c, 15, 45, 80
18, 203001, Note_on_c, 15, 45, 0
18, 203010, Note_on_c, 15, 45, 80
18, 203031, Note_on_c, 15, 45, 0
18, 203040, Note_on_c, 15, 50, 80
18, 203129, Note_on_c, 15, 50, 0
18, 203160, Note_on_c, 15, 41, 80
18, 203241, Note_on_c, 15, 41, 0
18, 203250, Note_on_c, 15, 41, 80
18, 203271, Note_on_c, 15, 41, 0
18, 203280, Note_on_c, 15, 45, 80
18, 203369, Note_on_c, 15, 45, 0
18, 203400, Note_on_c, 15, 38, 80
18, 203481, Note_on_c, 15, 38, 0
18, 203490, Note_on_c, 15, 38, 80
18, 203511, Note_on_c, 15, 38, 0
18, 203520, Note_on_c, 15, 41, 80
18, 203609, Note_on_c, 15, 41, 0
18, 203640, Note_on_c, 15, 33, 80
18, 203721, Note_on_c, 15, 33, 0
18, 203730, Note_on_c, 15, 33, 80
18, 203751, Note_on_c, 15, 33, 0
18, 203760, Note_on_c, 15, 38, 80
18, 203849, Note_on_c, 15, 38, 0
18, 203880, Note_on_c, 15, 29, 80
18, 203961, Note_on_c, 15, 29, 0
18, 203970, Note_on_c, 15, 29, 80
18, 203991, Note_on_c, 15, 29, 0
18, 204000, Note_on_c, 15, 33, 80
18, 204089, Note_on_c, 15, 33, 0
18, 204120, Note_on_c, 15, 26, 80
18, 204201, Note_on_c, 15, 26, 0
18, 204210, Note_on_c, 15, 26, 80
18, 204231, Note_on_c, 15, 26, 0
18, 204240, Note_on_c, 15, 50, 80
18, 204329, Note_on_c, 15, 50, 0
18, 204360, Note_on_c, 15, 26, 80
18, 204441, Note_on_c, 15, 26, 0
18, 204450, Note_on_c, 15, 26, 53
18, 204471, Note_on_c, 15, 26, 0
18, 204480, Note_on_c, 15, 38, 44
18, 204584, Note_on_c, 15, 38, 0
18, 204600, Note_on_c, 15, 38, 44
18, 204719, Note_on_c, 15, 38, 0
18, 204838, Program_c, 15, 45
18, 204840, Note_on_c, 15, 41, 38
18, 204959, Note_on_c, 15, 41, 0
18, 205080, Note_on_c, 15, 45, 38
18, 205199, Note_on_c, 15, 45, 0
18, 205320, Note_on_c, 15, 50, 38
18, 205439, Note_on_c, 15, 50, 0
18, 205560, Note_on_c, 15, 53, 38
18, 205679, Note_on_c, 15, 53, 0
18, 205800, Note_on_c, 15, 57, 38
18, 205919, Note_on_c, 15, 57, 0
18, 206040, Note_on_c, 15, 57, 38
18, 206159, Note_on_c, 15, 57, 0
18, 206280, Note_on_c, 15, 57, 38
18, 206399, Note_on_c, 15, 57, 0
18, 206520, Note_on_c, 15, 40, 38
18, 206639, Note_on_c, 15, 40, 0
18, 206760, Note_on_c, 15, 43, 38
18, 206879, Note_on_c, 15, 43, 0
18, 207000, Note_on_c, 15, 46, 38
18, 207119, Note_on_c, 15, 46, 0
18, 207240, Note_on_c, 15, 49, 38
18, 207359, Note_on_c, 15, 49, 0
18, 207480, Note_on_c, 15, 52, 38
18, 207599, Note_on_c, 15, 52, 0
18, 207720, Note_on_c, 15, 55, 38
18, 207839, Note_on_c, 15, 55, 0
18, 207960, Note_on_c, 15, 57, 38
18, 208079, Note_on_c, 15, 57, 0
18, 208200, Note_on_c, 15, 38, 38
18, 208319, Note_on_c, 15, 38, 0
18, 208440, Note_on_c, 15, 30, 38
18, 208559, Note_on_c, 15, 30, 0
18, 208680, Note_on_c, 15, 33, 38
18, 208799, Note_on_c, 15, 33, 0
18, 208920, Note_on_c, 15, 36, 38
18, 209039, Note_on_c, 15, 36, 0
18, 209160, Note_on_c, 15, 39, 38
18, 209279, Note_on_c, 15, 39, 0
18, 209400, Note_on_c, 15, 45, 38
18, 209519, Note_on_c, 15, 45, 0
18, 209640, Note_on_c, 15, 48, 38
18, 209759, Note_on_c, 15, 48, 0
18, 209880, Note_on_c, 15, 51, 38
18, 209999, Note_on_c, 15, 51, 0
18, 210120, Note_on_c, 15, 54, 38
18, 210239, Note_on_c, 15, 54, 0
18, 210360, Note_on_c, 15, 30, 38
18, 210479, Note_on_c, 15, 30, 0
18, 210600, Note_on_c, 15, 33, 40
18, 210719, Note_on_c, 15, 33, 0
18, 210840, Note_on_c, 15, 38, 42
18, 210959, Note_on_c, 15, 38, 0
18, 211080, Note_on_c, 15, 43, 44
18, 211199, Note_on_c, 15, 43, 0
18, 211320, Note_on_c, 15, 35, 45
18, 211439, Note_on_c, 15, 35, 0
18, 211560, Note_on_c, 15, 38, 47
18, 211679, Note_on_c, 15, 38, 0
18, 211800, Note_on_c, 15, 43, 49
18, 211919, Note_on_c, 15, 43, 0
18, 211920, Note_on_c, 15, 46, 50
18, 212039, Note_on_c, 15, 46, 0
18, 212040, Note_on_c, 15, 36, 50
18, 212159, Note_on_c, 15, 36, 0
18, 212280, Note_on_c, 15, 36, 52
18, 212399, Note_on_c, 15, 36, 0
18, 212520, Note_on_c, 15, 40, 54
18, 212639, Note_on_c, 15, 40, 0
18, 212760, Note_on_c, 15, 43, 56
18, 212879, Note_on_c, 15, 43, 0
18, 213000, Note_on_c, 15, 46, 57
18, 213119, Note_on_c, 15, 46, 0
18, 213240, Note_on_c, 15, 37, 59
18, 213359, Note_on_c, 15, 37, 0
18, 213480, Note_on_c, 15, 40, 61
18, 213599, Note_on_c, 15, 40, 0
18, 213720, Note_on_c, 15, 43, 62
18, 213839, Note_on_c, 15, 43, 0
18, 213960, Note_on_c, 15, 46, 64
18, 214079, Note_on_c, 15, 46, 0
18, 214200, Note_on_c, 15, 40, 66
18, 214319, Note_on_c, 15, 40, 0
18, 214440, Note_on_c, 15, 43, 68
18, 214559, Note_on_c, 15, 43, 0
18, 214680, Note_on_c, 15, 46, 69
18, 214799, Note_on_c, 15, 46, 0
18, 214920, Note_on_c, 15, 49, 71
18, 215039, Note_on_c, 15, 49, 0
18, 215160, Note_on_c, 15, 43, 73
18, 215279, Note_on_c, 15, 43, 0
18, 215400, Note_on_c, 15, 46, 74
18, 215519, Note_on_c, 15, 46, 0
18, 215640, Note_on_c, 15, 49, 76
18, 215759, Note_on_c, 15, 49, 0
18, 215880, Note_on_c, 15, 52, 78
18, 215999, Note_on_c, 15, 52, 0
18, 216120, Note_on_c, 15, 46, 80
18, 216239, Note_on_c, 15, 46, 0
18, 216360, Note_on_c, 15, 49, 81
18, 216479, Note_on_c, 15, 49, 0
18, 216600, Note_on_c, 15, 52, 83
18, 216719, Note_on_c, 15, 52, 0
18, 216840, Note_on_c, 15, 55, 85
18, 216944, Note_on_c, 15, 55, 0
18, 216958, Program_c, 15, 48
18, 216960, Note_on_c, 15, 29, 92
18, 217304, Note_on_c, 15, 29, 0
18, 217320, Note_on_c, 15, 41, 92
18, 217439, Note_on_c, 15, 41, 0
18, 217440, Note_on_c, 15, 40, 92
18, 217491, Note_on_c, 15, 40, 0
18, 217500, Note_on_c, 15, 50, 92
18, 217559, Note_on_c, 15, 50, 0
18, 217560, Note_on_c, 15, 49, 92
18, 217611, Note_on_c, 15, 49, 0
18, 217620, Note_on_c, 15, 46, 92
18, 217679, Note_on_c, 15, 46, 0
18, 217680, Note_on_c, 15, 45, 92
18, 217731, Note_on_c, 15, 45, 0
18, 217740, Note_on_c, 15, 43, 92
18, 217799, Note_on_c, 15, 43, 0
18, 217800, Note_on_c, 15, 41, 92
18, 217851, Note_on_c, 15, 41, 0
18, 217860, Note_on_c, 15, 40, 92
18, 217919, Note_on_c, 15, 40, 0
18, 217920, Note_on_c, 15, 50, 92
18, 217971, Note_on_c, 15, 50, 0
18, 217980, Note_on_c, 15, 48, 92
18, 218039, Note_on_c, 15, 48, 0
18, 218040, Note_on_c, 15, 46, 92
18, 218091, Note_on_c, 15, 46, 0
18, 218100, Note_on_c, 15, 45, 92
18, 218159, Note_on_c, 15, 45, 0
18, 218160, Note_on_c, 15, 43, 92
18, 218211, Note_on_c, 15, 43, 0
18, 218220, Note_on_c, 15, 41, 92
18, 218279, Note_on_c, 15, 41, 0
18, 218280, Note_on_c, 15, 40, 92
18, 218331, Note_on_c, 15, 40, 0
18, 218340, Note_on_c, 15, 38, 92
18, 218391, Note_on_c, 15, 38, 0
18, 218400, Note_on_c, 15, 43, 92
18, 218519, Note_on_c, 15, 43, 0
18, 218640, Note_on_c, 15, 46, 92
18, 218744, Note_on_c, 15, 46, 0
18, 218760, Note_on_c, 15, 45, 92
18, 218864, Note_on_c, 15, 45, 0
18, 218878, Control_c, 15, 11, 67
18, 218880, Note_on_c, 15, 29, 80
18, 218880, Control_c, 15, 11, 67
18, 218928, Control_c, 15, 11, 68
18, 218976, Control_c, 15, 11, 69
18, 219024, Control_c, 15, 11, 70
18, 219072, Control_c, 15, 11, 71
18, 219120, Control_c, 15, 11, 72
18, 219168, Control_c, 15, 11, 73
18, 219216, Control_c, 15, 11, 74
18, 219239, Note_on_c, 15, 29, 0
18, 219240, Note_on_c, 15, 53, 80
18, 219264, Control_c, 15, 11, 75
18, 219312, Control_c, 15, 11, 76
18, 219359, Note_on_c, 15, 53, 0
18, 219360, Control_c, 15, 11, 77
18, 219360, Note_on_c, 15, 52, 80
18, 219408, Control_c, 15, 11, 78
18, 219411, Note_on_c, 15, 52, 0
18, 219420, Note_on_c, 15, 50, 80
18, 219456, Control_c, 15, 11, 79
18, 219479, Note_on_c, 15, 50, 0
18, 219480, Note_on_c, 15, 49, 80
18, 219504, Control_c, 15, 11, 80
18, 219531, Note_on_c, 15, 49, 0
18, 219540, Note_on_c, 15, 46, 80
18, 219552, Control_c, 15, 11, 81
18, 219599, Note_on_c, 15, 46, 0
18, 219600, Control_c, 15, 11, 82
18, 219600, Note_on_c, 15, 45, 80
18, 219648, Control_c, 15, 11, 83
18, 219651, Note_on_c, 15, 45, 0
18, 219660, Note_on_c, 15, 43, 80
18, 219696, Control_c, 15, 11, 84
18, 219719, Note_on_c, 15, 43, 0
18, 219720, Note_on_c, 15, 41, 80
18, 219744, Control_c, 15, 11, 85
18, 219771, Note_on_c, 15, 41, 0
18, 219780, Note_on_c, 15, 40, 80
18, 219792, Control_c, 15, 11, 86
18, 219839, Note_on_c, 15, 40, 0
18, 219840, Note_on_c, 15, 38, 80
18, 219840, Control_c, 15, 11, 87
18, 219888, Control_c, 15, 11, 88
18, 219936, Control_c, 15, 11, 89
18, 219959, Note_on_c, 15, 38, 0
18, 219984, Control_c, 15, 11, 90
18, 220032, Control_c, 15, 11, 91
18, 220752, Control_c, 15, 11, 106
18, 220800, Note_on_c, 15, 34, 80
18, 220800, Control_c, 15, 11, 107
18, 220848, Control_c, 15, 11, 108
18, 220896, Control_c, 15, 11, 109
18, 220944, Control_c, 15, 11, 110
18, 220992, Control_c, 15, 11, 111
18, 221040, Control_c, 15, 11, 112
18, 221088, Control_c, 15, 11, 113
18, 221136, Control_c, 15, 11, 114
18, 221159, Note_on_c, 15, 34, 0
18, 221160, Note_on_c, 15, 46, 80
18, 221184, Control_c, 15, 11, 115
18, 221232, Control_c, 15, 11, 116
18, 221279, Note_on_c, 15, 46, 0
18, 221280, Control_c, 15, 11, 117
18, 221280, Note_on_c, 15, 45, 80
18, 221328, Control_c, 15, 11, 118
18, 221331, Note_on_c, 15, 45, 0
18, 221340, Note_on_c, 15, 43, 80
18, 221376, Control_c, 15, 11, 119
18, 221399, Note_on_c, 15, 43, 0
18, 221400, Note_on_c, 15, 42, 80
18, 221424, Control_c, 15, 11, 120
18, 221451, Note_on_c, 15, 42, 0
18, 221460, Note_on_c, 15, 39, 80
18, 221472, Control_c, 15, 11, 121
18, 221519, Note_on_c, 15, 39, 0
18, 221520, Note_on_c, 15, 38, 80
18, 221520, Control_c, 15, 11, 122
18, 221568, Control_c, 15, 11, 123
18, 221571, Note_on_c, 15, 38, 0
18, 221580, Note_on_c, 15, 36, 80
18, 221616, Control_c, 15, 11, 124
18, 221639, Note_on_c, 15, 36, 0
18, 221640, Note_on_c, 15, 34, 80
18, 221664, Control_c, 15, 11, 125
18, 221691, Note_on_c, 15, 34, 0
18, 221700, Note_on_c, 15, 33, 80
18, 221712, Control_c, 15, 11, 127
18, 221751, Note_on_c, 15, 33, 0
18, 221760, Note_on_c, 15, 31, 80
18, 221864, Note_on_c, 15, 31, 0
18, 221880, Note_on_c, 15, 43, 80
18, 222104, Note_on_c, 15, 43, 0
18, 222120, Note_on_c, 15, 42, 80
18, 222201, Note_on_c, 15, 42, 0
18, 222210, Note_on_c, 15, 42, 80
18, 222231, Note_on_c, 15, 42, 0
18, 222240, Note_on_c, 15, 42, 80
18, 222344, Note_on_c, 15, 42, 0
18, 222360, Note_on_c, 15, 43, 80
18, 222584, Note_on_c, 15, 43, 0
18, 222600, Note_on_c, 15, 43, 80
18, 222681, Note_on_c, 15, 43, 0
18, 222690, Note_on_c, 15, 43, 80
18, 222711, Note_on_c, 15, 43, 0
18, 222720, Note_on_c, 15, 43, 80
18, 222824, Note_on_c, 15, 43, 0
18, 222840, Note_on_c, 15, 45, 80
18, 223064, Note_on_c, 15, 45, 0
18, 223080, Note_on_c, 15, 44, 80
18, 223161, Note_on_c, 15, 44, 0
18, 223170, Note_on_c, 15, 44, 80
18, 223191, Note_on_c, 15, 44, 0
18, 223200, Note_on_c, 15, 44, 80
18, 223304, Note_on_c, 15, 44, 0
18, 223320, Note_on_c, 15, 45, 80
18, 223544, Note_on_c, 15, 45, 0
18, 223560, Note_on_c, 15, 45, 80
18, 223641, Note_on_c, 15, 45, 0
18, 223650, Note_on_c, 15, 45, 80
18, 223671, Note_on_c, 15, 45, 0
18, 223680, Note_on_c, 15, 45, 80
18, 223784, Note_on_c, 15, 45, 0
18, 223800, Note_on_c, 15, 46, 80
18, 223881, Note_on_c, 15, 46, 0
18, 223890, Note_on_c, 15, 46, 80
18, 223911, Note_on_c, 15, 46, 0
18, 223920, Note_on_c, 15, 46, 80
18, 224024, Note_on_c, 15, 46, 0
18, 224040, Note_on_c, 15, 47, 80
18, 224121, Note_on_c, 15, 47, 0
18, 224130, Note_on_c, 15, 47, 80
18, 224151, Note_on_c, 15, 47, 0
18, 224160, Note_on_c, 15, 47, 80
18, 224264, Note_on_c, 15, 47, 0
18, 224280, Note_on_c, 15, 48, 80
18, 224361, Note_on_c, 15, 48, 0
18, 224370, Note_on_c, 15, 48, 80
18, 224391, Note_on_c, 15, 48, 0
18, 224400, Note_on_c, 15, 49, 80
18, 224504, Note_on_c, 15, 49, 0
18, 224520, Note_on_c, 15, 45, 80
18, 224601, Note_on_c, 15, 45, 0
18, 224610, Note_on_c, 15, 45, 80
18, 224631, Note_on_c, 15, 45, 0
18, 224640, Note_on_c, 15, 45, 44
18, 225119, Note_on_c, 15, 45, 0
18, 225120, Note_on_c, 15, 45, 44
18, 225599, Note_on_c, 15, 45, 0
18, 225600, Note_on_c, 15, 45, 44
18, 226079, Note_on_c, 15, 45, 0
18, 226080, Note_on_c, 15, 45, 44
18, 226559, Note_on_c, 15, 45, 0
18, 226560, Note_on_c, 15, 45, 44
18, 227039, Note_on_c, 15, 45, 0
18, 227040, Note_on_c, 15, 45, 44
18, 227519, Note_on_c, 15, 45, 0
18, 227520, Note_on_c, 15, 45, 44
18, 227999, Note_on_c, 15, 45, 0
18, 228000, Note_on_c, 15, 45, 44
18, 228464, Note_on_c, 15, 45, 0
18, 228480, Note_on_c, 15, 38, 44
18, 228771, Note_on_c, 15, 38, 0
18, 228780, Note_on_c, 15, 41, 44
18, 228824, Note_on_c, 15, 41, 0
18, 228840, Note_on_c, 15, 40, 44
18, 228884, Note_on_c, 15, 40, 0
18, 228900, Note_on_c, 15, 38, 44
18, 228944, Note_on_c, 15, 38, 0
18, 228960, Note_on_c, 15, 45, 44
18, 229049, Note_on_c, 15, 45, 0
18, 229080, Note_on_c, 15, 43, 44
18, 229169, Note_on_c, 15, 43, 0
18, 229200, Note_on_c, 15, 40, 44
18, 229289, Note_on_c, 15, 40, 0
18, 229320, Note_on_c, 15, 45, 44
18, 229439, Note_on_c, 15, 45, 0
18, 229440, Note_on_c, 15, 45, 44
18, 229559, Note_on_c, 15, 45, 0
18, 229560, Note_on_c, 15, 41, 44
18, 229649, Note_on_c, 15, 41, 0
18, 229680, Note_on_c, 15, 38, 44
18, 229769, Note_on_c, 15, 38, 0
18, 229800, Note_on_c, 15, 45, 44
18, 229919, Note_on_c, 15, 45, 0
18, 229920, Note_on_c, 15, 45, 44
18, 230024, Note_on_c, 15, 45, 0
18, 230040, Note_on_c, 15, 40, 44
18, 230129, Note_on_c, 15, 40, 0
18, 230160, Note_on_c, 15, 37, 44
18, 230249, Note_on_c, 15, 37, 0
18, 230280, Note_on_c, 15, 45, 44
18, 230399, Note_on_c, 15, 45, 0
18, 230400, Note_on_c, 15, 45, 44
18, 230504, Note_on_c, 15, 45, 0
18, 230520, Note_on_c, 15, 41, 45
18, 230609, Note_on_c, 15, 41, 0
18, 230640, Note_on_c, 15, 38, 46
18, 230729, Note_on_c, 15, 38, 0
18, 230760, Note_on_c, 15, 45, 47
18, 230879, Note_on_c, 15, 45, 0
18, 230880, Note_on_c, 15, 45, 48
18, 230984, Note_on_c, 15, 45, 0
18, 231000, Note_on_c, 15, 43, 49
18, 231089, Note_on_c, 15, 43, 0
18, 231120, Note_on_c, 15, 40, 50
18, 231209, Note_on_c, 15, 40, 0
18, 231240, Note_on_c, 15, 45, 52
18, 231359, Note_on_c, 15, 45, 0
18, 231360, Note_on_c, 15, 45, 53
18, 231464, Note_on_c, 15, 45, 0
18, 231480, Note_on_c, 15, 41, 54
18, 231569, Note_on_c, 15, 41, 0
18, 231600, Note_on_c, 15, 38, 55
18, 231689, Note_on_c, 15, 38, 0
18, 231720, Note_on_c, 15, 45, 56
18, 231839, Note_on_c, 15, 45, 0
18, 231840, Note_on_c, 15, 45, 57
18, 231944, Note_on_c, 15, 45, 0
18, 231960, Note_on_c, 15, 41, 59
18, 232049, Note_on_c, 15, 41, 0
18, 232080, Note_on_c, 15, 38, 60
18, 232169, Note_on_c, 15, 38, 0
18, 232200, Note_on_c, 15, 46, 61
18, 232319, Note_on_c, 15, 46, 0
18, 232320, Note_on_c, 15, 46, 62
18, 232424, Note_on_c, 15, 46, 0
18, 232440, Note_on_c, 15, 43, 63
18, 232529, Note_on_c, 15, 43, 0
18, 232560, Note_on_c, 15, 40, 64
18, 232649, Note_on_c, 15, 40, 0
18, 232680, Note_on_c, 15, 49, 66
18, 232799, Note_on_c, 15, 49, 0
18, 232800, Note_on_c, 15, 49, 67
18, 232904, Note_on_c, 15, 49, 0
18, 232920, Note_on_c, 15, 45, 68
18, 233009, Note_on_c, 15, 45, 0
18, 233040, Note_on_c, 15, 41, 69
18, 233129, Note_on_c, 15, 41, 0
18, 233160, Note_on_c, 15, 50, 70
18, 233279, Note_on_c, 15, 50, 0
18, 233280, Note_on_c, 15, 38, 71
18, 233384, Note_on_c, 15, 38, 0
18, 233400, Note_on_c, 15, 34, 73
18, 233489, Note_on_c, 15, 34, 0
18, 233520, Note_on_c, 15, 31, 74
18, 233609, Note_on_c, 15, 31, 0
18, 233640, Note_on_c, 15, 39, 75
18, 233759, Note_on_c, 15, 39, 0
18, 233760, Note_on_c, 15, 39, 76
18, 233864, Note_on_c, 15, 39, 0
18, 233880, Note_on_c, 15, 36, 77
18, 233969, Note_on_c, 15, 36, 0
18, 234000, Note_on_c, 15, 33, 78
18, 234089, Note_on_c, 15, 33, 0
18, 234120, Note_on_c, 15, 42, 80
18, 234239, Note_on_c, 15, 42, 0
18, 234240, Note_on_c, 15, 42, 80
18, 234344, Note_on_c, 15, 42, 0
18, 234360, Note_on_c, 15, 38, 80
18, 234449, Note_on_c, 15, 38, 0
18, 234480, Note_on_c, 15, 34, 80
18, 234569, Note_on_c, 15, 34, 0
18, 234600, Note_on_c, 15, 44, 92
18, 234719, Note_on_c, 15, 44, 0
18, 234720, Note_on_c, 15, 44, 92
18, 234824, Note_on_c, 15, 44, 0
18, 234840, Note_on_c, 15, 38, 92
18, 234929, Note_on_c, 15, 38, 0
18, 234960, Note_on_c, 15, 34, 92
18, 235049, Note_on_c, 15, 34, 0
18, 235080, Note_on_c, 15, 44, 92
18, 235199, Note_on_c, 15, 44, 0
18, 235200, Note_on_c, 15, 44, 83
18, 235304, Note_on_c, 15, 44, 0
18, 235320, Note_on_c, 15, 38, 73
18, 235409, Note_on_c, 15, 38, 0
18, 235440, Note_on_c, 15, 34, 64
18, 235529, Note_on_c, 15, 34, 0
18, 235560, Note_on_c, 15, 43, 54
18, 235679, Note_on_c, 15, 43, 0
18, 235680, Note_on_c, 15, 43, 44
18, 235784, Note_on_c, 15, 43, 0
18, 235800, Note_on_c, 15, 39, 38
18, 235889, Note_on_c, 15, 39, 0
18, 235920, Note_on_c, 15, 34, 38
18, 236009, Note_on_c, 15, 34, 0
18, 236040, Note_on_c, 15, 43, 38
18, 236159, Note_on_c, 15, 43, 0
18, 236160, Note_on_c, 15, 43, 32
18, 236264, Note_on_c, 15, 43, 0
18, 236280, Note_on_c, 15, 38, 32
18, 236369, Note_on_c, 15, 38, 0
18, 236400, Note_on_c, 15, 34, 32
18, 236489, Note_on_c, 15, 34, 0
18, 236520, Note_on_c, 15, 43, 32
18, 236639, Note_on_c, 15, 43, 0
18, 236640, Note_on_c, 15, 43, 32
18, 236744, Note_on_c, 15, 43, 0
18, 236760, Note_on_c, 15, 38, 32
18, 236849, Note_on_c, 15, 38, 0
18, 236880, Note_on_c, 15, 33, 32
18, 236969, Note_on_c, 15, 33, 0
18, 237000, Note_on_c, 15, 41, 32
18, 237025, Note_on_c, 15, 41, 0
18, 237030, Note_on_c, 15, 41, 33
18, 237055, Note_on_c, 15, 41, 0
18, 237060, Note_on_c, 15, 41, 34
18, 237085, Note_on_c, 15, 41, 0
18, 237090, Note_on_c, 15, 41, 36
18, 237115, Note_on_c, 15, 41, 0
18, 237120, Note_on_c, 15, 41, 37
18, 237145, Note_on_c, 15, 41, 0
18, 237150, Note_on_c, 15, 41, 38
18, 237175, Note_on_c, 15, 41, 0
18, 237180, Note_on_c, 15, 41, 40
18, 237205, Note_on_c, 15, 41, 0
18, 237210, Note_on_c, 15, 41, 41
18, 237235, Note_on_c, 15, 41, 0
18, 237240, Note_on_c, 15, 41, 42
18, 237265, Note_on_c, 15, 41, 0
18, 237270, Note_on_c, 15, 41, 44
18, 237295, Note_on_c, 15, 41, 0
18, 237300, Note_on_c, 15, 41, 45
18, 237325, Note_on_c, 15, 41, 0
18, 237330, Note_on_c, 15, 41, 46
18, 237355, Note_on_c, 15, 41, 0
18, 237360, Note_on_c, 15, 41, 48
18, 237385, Note_on_c, 15, 41, 0
18, 237390, Note_on_c, 15, 41, 49
18, 237415, Note_on_c, 15, 41, 0
18, 237420, Note_on_c, 15, 41, 50
18, 237445, Note_on_c, 15, 41, 0
18, 237450, Note_on_c, 15, 41, 52
18, 237475, Note_on_c, 15, 41, 0
18, 237480, Note_on_c, 15, 41, 53
18, 237505, Note_on_c, 15, 41, 0
18, 237510, Note_on_c, 15, 41, 54
18, 237535, Note_on_c, 15, 41, 0
18, 237540, Note_on_c, 15, 41, 56
18, 237565, Note_on_c, 15, 41, 0
18, 237570, Note_on_c, 15, 41, 57
18, 237595, Note_on_c, 15, 41, 0
18, 237600, Note_on_c, 15, 40, 58
18, 237625, Note_on_c, 15, 40, 0
18, 237630, Note_on_c, 15, 40, 60
18, 237655, Note_on_c, 15, 40, 0
18, 237660, Note_on_c, 15, 40, 61
18, 237685, Note_on_c, 15, 40, 0
18, 237690, Note_on_c, 15, 40, 62
18, 237715, Note_on_c, 15, 40, 0
18, 237720, Note_on_c, 15, 40, 64
18, 237745, Note_on_c, 15, 40, 0
18, 237750, Note_on_c, 15, 40, 65
18, 237775, Note_on_c, 15, 40, 0
18, 237780, Note_on_c, 15, 40, 66
18, 237805, Note_on_c, 15, 40, 0
18, 237810, Note_on_c, 15, 40, 68
18, 237835, Note_on_c, 15, 40, 0
18, 237840, Note_on_c, 15, 40, 69
18, 237865, Note_on_c, 15, 40, 0
18, 237870, Note_on_c, 15, 40, 70
18, 237895, Note_on_c, 15, 40, 0
18, 237900, Note_on_c, 15, 40, 72
18, 237925, Note_on_c, 15, 40, 0
18, 237930, Note_on_c, 15, 40, 73
18, 237955, Note_on_c, 15, 40, 0
18, 237960, Note_on_c, 15, 40, 74
18, 237985, Note_on_c, 15, 40, 0
18, 237990, Note_on_c, 15, 40, 76
18, 238015, Note_on_c, 15, 40, 0
18, 238020, Note_on_c, 15, 40, 77
18, 238045, Note_on_c, 15, 40, 0
18, 238050, Note_on_c, 15, 40, 78
18, 238075, Note_on_c, 15, 40, 0
18, 238080, Note_on_c, 15, 38, 80
18, 238199, Note_on_c, 15, 38, 0
18, 238680, Note_on_c, 15, 46, 44
18, 238799, Note_on_c, 15, 46, 0
18, 238920, Note_on_c, 15, 45, 44
18, 239024, Note_on_c, 15, 45, 0
18, 239040, Note_on_c, 15, 57, 44
18, 239384, Note_on_c, 15, 57, 0
18, 239400, Note_on_c, 15, 56, 50
18, 239519, Note_on_c, 15, 56, 0
18, 239520, Note_on_c, 15, 55, 53
18, 239571, Note_on_c, 15, 55, 0
18, 239580, Note_on_c, 15, 53, 54
18, 239639, Note_on_c, 15, 53, 0
18, 239640, Note_on_c, 15, 52, 55
18, 239691, Note_on_c, 15, 52, 0
18, 239700, Note_on_c, 15, 50, 56
18, 239759, Note_on_c, 15, 50, 0
18, 239760, Note_on_c, 15, 49, 57
18, 239811, Note_on_c, 15, 49, 0
18, 239820, Note_on_c, 15, 46, 58
18, 239879, Note_on_c, 15, 46, 0
18, 239880, Note_on_c, 15, 45, 59
18, 239931, Note_on_c, 15, 45, 0
18, 239940, Note_on_c, 15, 43, 60
18, 239999, Note_on_c, 15, 43, 0
18, 240000, Note_on_c, 15, 41, 62
18, 240051, Note_on_c, 15, 41, 0
18, 240060, Note_on_c, 15, 40, 63
18, 240119, Note_on_c, 15, 40, 0
18, 240120, Note_on_c, 15, 38, 64
18, 240171, Note_on_c, 15, 38, 0
18, 240180, Note_on_c, 15, 36, 65
18, 240239, Note_on_c, 15, 36, 0
18, 240240, Note_on_c, 15, 35, 66
18, 240291, Note_on_c, 15, 35, 0
18, 240300, Note_on_c, 15, 47, 67
18, 240359, Note_on_c, 15, 47, 0
18, 240360, Note_on_c, 15, 49, 68
18, 240411, Note_on_c, 15, 49, 0
18, 240420, Note_on_c, 15, 50, 69
18, 240479, Note_on_c, 15, 50, 0
18, 240480, Note_on_c, 15, 52, 71
18, 240531, Note_on_c, 15, 52, 0
18, 240540, Note_on_c, 15, 50, 72
18, 240599, Note_on_c, 15, 50, 0
18, 240600, Note_on_c, 15, 49, 73
18, 240651, Note_on_c, 15, 49, 0
18, 240660, Note_on_c, 15, 46, 74
18, 240719, Note_on_c, 15, 46, 0
18, 240720, Note_on_c, 15, 45, 75
18, 240771, Note_on_c, 15, 45, 0
18, 240780, Note_on_c, 15, 43, 76
18, 240839, Note_on_c, 15, 43, 0
18, 240840, Note_on_c, 15, 41, 77
18, 240891, Note_on_c, 15, 41, 0
18, 240900, Note_on_c, 15, 40, 78
18, 240959, Note_on_c, 15, 40, 0
18, 240960, Note_on_c, 15, 38, 80
18, 241011, Note_on_c, 15, 38, 0
18, 241020, Note_on_c, 15, 36, 80
18, 241079, Note_on_c, 15, 36, 0
18, 241080, Note_on_c, 15, 34, 80
18, 241131, Note_on_c, 15, 34, 0
18, 241140, Note_on_c, 15, 33, 80
18, 241199, Note_on_c, 15, 33, 0
18, 241200, Note_on_c, 15, 31, 80
18, 241251, Note_on_c, 15, 31, 0
18, 241260, Note_on_c, 15, 29, 80
18, 241319, Note_on_c, 15, 29, 0
18, 241320, Note_on_c, 15, 40, 80
18, 241371, Note_on_c, 15, 40, 0
18, 241380, Note_on_c, 15, 38, 80
18, 241439, Note_on_c, 15, 38, 0
18, 241440, Note_on_c, 15, 46, 80
18, 241491, Note_on_c, 15, 46, 0
18, 241500, Note_on_c, 15, 45, 80
18, 241559, Note_on_c, 15, 45, 0
18, 241560, Note_on_c, 15, 43, 80
18, 241611, Note_on_c, 15, 43, 0
18, 241620, Note_on_c, 15, 45, 80
18, 241679, Note_on_c, 15, 45, 0
18, 241680, Note_on_c, 15, 46, 80
18, 241731, Note_on_c, 15, 46, 0
18, 241740, Note_on_c, 15, 43, 80
18, 241799, Note_on_c, 15, 43, 0
18, 241800, Note_on_c, 15, 45, 80
18, 241851, Note_on_c, 15, 45, 0
18, 241860, Note_on_c, 15, 55, 80
18, 241911, Note_on_c, 15, 55, 0
18, 241920, Note_on_c, 15, 55, 44
18, 242039, Note_on_c, 15, 55, 0
18, 243840, Note_on_c, 15, 40, 44
18, 244139, Note_on_c, 15, 40, 0
18, 244140, Note_on_c, 15, 43, 44
18, 244191, Note_on_c, 15, 43, 0
18, 244200, Note_on_c, 15, 41, 44
18, 244244, Note_on_c, 15, 41, 0
18, 244260, Note_on_c, 15, 40, 44
18, 244304, Note_on_c, 15, 40, 0
18, 244320, Note_on_c, 15, 40, 44
18, 244611, Note_on_c, 15, 40, 0
18, 244620, Note_on_c, 15, 37, 44
18, 244671, Note_on_c, 15, 37, 0
18, 244680, Note_on_c, 15, 37, 44
18, 244731, Note_on_c, 15, 37, 0
18, 244740, Note_on_c, 15, 37, 44
18, 244784, Note_on_c, 15, 37, 0
18, 244800, Note_on_c, 15, 32, 44
18, 244979, Note_on_c, 15, 32, 0
18, 245040, Note_on_c, 15, 34, 44
18, 245219, Note_on_c, 15, 34, 0
18, 245280, Note_on_c, 15, 33, 44
18, 245459, Note_on_c, 15, 33, 0
18, 245520, Note_on_c, 15, 33, 44
18, 245699, Note_on_c, 15, 33, 0
18, 245760, Note_on_c, 15, 38, 32
18, 245879, Note_on_c, 15, 38, 0
18, 245880, Note_on_c, 15, 37, 32
18, 245999, Note_on_c, 15, 37, 0
18, 246000, Note_on_c, 15, 36, 32
18, 246119, Note_on_c, 15, 36, 0
18, 246120, Note_on_c, 15, 35, 32
18, 246239, Note_on_c, 15, 35, 0
18, 246240, Note_on_c, 15, 34, 32
18, 246359, Note_on_c, 15, 34, 0
18, 246360, Note_on_c, 15, 33, 32
18, 246479, Note_on_c, 15, 33, 0
18, 246480, Note_on_c, 15, 35, 32
18, 246599, Note_on_c, 15, 35, 0
18, 246600, Note_on_c, 15, 37, 32
18, 246704, Note_on_c, 15, 37, 0
18, 246720, Note_on_c, 15, 38, 32
18, 246839, Note_on_c, 15, 38, 0
18, 246840, Note_on_c, 15, 37, 32
18, 246959, Note_on_c, 15, 37, 0
18, 246960, Note_on_c, 15, 36, 32
18, 247079, Note_on_c, 15, 36, 0
18, 247080, Note_on_c, 15, 35, 32
18, 247199, Note_on_c, 15, 35, 0
18, 247200, Note_on_c, 15, 34, 32
18, 247319, Note_on_c, 15, 34, 0
18, 247320, Note_on_c, 15, 33, 32
18, 247439, Note_on_c, 15, 33, 0
18, 247440, Note_on_c, 15, 35, 32
18, 247559, Note_on_c, 15, 35, 0
18, 247560, Note_on_c, 15, 37, 32
18, 247664, Note_on_c, 15, 37, 0
18, 247680, Note_on_c, 15, 38, 32
18, 247799, Note_on_c, 15, 38, 0
18, 247800, Note_on_c, 15, 37, 32
18, 247919, Note_on_c, 15, 37, 0
18, 247920, Note_on_c, 15, 36, 32
18, 248039, Note_on_c, 15, 36, 0
18, 248040, Note_on_c, 15, 35, 32
18, 248159, Note_on_c, 15, 35, 0
18, 248160, Note_on_c, 15, 34, 32
18, 248279, Note_on_c, 15, 34, 0
18, 248280, Note_on_c, 15, 33, 32
18, 248399, Note_on_c, 15, 33, 0
18, 248400, Note_on_c, 15, 35, 32
18, 248519, Note_on_c, 15, 35, 0
18, 248520, Note_on_c, 15, 37, 32
18, 248624, Note_on_c, 15, 37, 0
18, 248640, Note_on_c, 15, 38, 32
18, 248759, Note_on_c, 15, 38, 0
18, 248760, Note_on_c, 15, 37, 32
18, 248879, Note_on_c, 15, 37, 0
18, 248880, Note_on_c, 15, 36, 32
18, 248999, Note_on_c, 15, 36, 0
18, 249000, Note_on_c, 15, 35, 32
18, 249119, Note_on_c, 15, 35, 0
18, 249120, Note_on_c, 15, 34, 32
18, 249239, Note_on_c, 15, 34, 0
18, 249240, Note_on_c, 15, 33, 32
18, 249359, Note_on_c, 15, 33, 0
18, 249360, Note_on_c, 15, 35, 32
18, 249479, Note_on_c, 15, 35, 0
18, 249480, Note_on_c, 15, 37, 32
18, 249584, Note_on_c, 15, 37, 0
18, 249600, Note_on_c, 15, 38, 32
18, 249719, Note_on_c, 15, 38, 0
18, 249720, Note_on_c, 15, 37, 34
18, 249839, Note_on_c, 15, 37, 0
18, 249840, Note_on_c, 15, 36, 36
18, 249959, Note_on_c, 15, 36, 0
18, 249960, Note_on_c, 15, 35, 38
18, 250079, Note_on_c, 15, 35, 0
18, 250080, Note_on_c, 15, 34, 40
18, 250199, Note_on_c, 15, 34, 0
18, 250200, Note_on_c, 15, 33, 42
18, 250319, Note_on_c, 15, 33, 0
18, 250320, Note_on_c, 15, 35, 44
18, 250439, Note_on_c, 15, 35, 0
18, 250440, Note_on_c, 15, 37, 46
18, 250544, Note_on_c, 15, 37, 0
18, 250560, Note_on_c, 15, 38, 48
18, 250679, Note_on_c, 15, 38, 0
18, 250680, Note_on_c, 15, 37, 50
18, 250799, Note_on_c, 15, 37, 0
18, 250800, Note_on_c, 15, 36, 52
18, 250919, Note_on_c, 15, 36, 0
18, 250920, Note_on_c, 15, 35, 54
18, 251039, Note_on_c, 15, 35, 0
18, 251040, Note_on_c, 15, 34, 56
18, 251159, Note_on_c, 15, 34, 0
18, 251160, Note_on_c, 15, 33, 58
18, 251279, Note_on_c, 15, 33, 0
18, 251280, Note_on_c, 15, 35, 60
18, 251399, Note_on_c, 15, 35, 0
18, 251400, Note_on_c, 15, 37, 62
18, 251504, Note_on_c, 15, 37, 0
18, 251520, Note_on_c, 15, 38, 64
18, 251639, Note_on_c, 15, 38, 0
18, 251640, Note_on_c, 15, 37, 66
18, 251759, Note_on_c, 15, 37, 0
18, 251760, Note_on_c, 15, 36, 68
18, 251879, Note_on_c, 15, 36, 0
18, 251880, Note_on_c, 15, 35, 70
18, 251999, Note_on_c, 15, 35, 0
18, 252000, Note_on_c, 15, 34, 72
18, 252119, Note_on_c, 15, 34, 0
18, 252120, Note_on_c, 15, 33, 74
18, 252239, Note_on_c, 15, 33, 0
18, 252240, Note_on_c, 15, 35, 76
18, 252359, Note_on_c, 15, 35, 0
18, 252360, Note_on_c, 15, 37, 78
18, 252464, Note_on_c, 15, 37, 0
18, 252480, Note_on_c, 15, 38, 80
18, 252599, Note_on_c, 15, 38, 0
18, 252600, Note_on_c, 15, 33, 80
18, 252719, Note_on_c, 15, 33, 0
18, 252720, Note_on_c, 15, 34, 86
18, 252839, Note_on_c, 15, 34, 0
18, 252840, Note_on_c, 15, 33, 86
18, 252944, Note_on_c, 15, 33, 0
18, 252960, Note_on_c, 15, 31, 86
18, 253079, Note_on_c, 15, 31, 0
18, 253080, Note_on_c, 15, 34, 86
18, 253199, Note_on_c, 15, 34, 0
18, 253200, Note_on_c, 15, 33, 86
18, 253319, Note_on_c, 15, 33, 0
18, 253320, Note_on_c, 15, 37, 86
18, 253424, Note_on_c, 15, 37, 0
18, 253440, Note_on_c, 15, 38, 86
18, 253559, Note_on_c, 15, 38, 0
18, 253560, Note_on_c, 15, 33, 86
18, 253679, Note_on_c, 15, 33, 0
18, 253680, Note_on_c, 15, 34, 86
18, 253799, Note_on_c, 15, 34, 0
18, 253800, Note_on_c, 15, 33, 86
18, 253904, Note_on_c, 15, 33, 0
18, 253920, Note_on_c, 15, 31, 86
18, 254039, Note_on_c, 15, 31, 0
18, 254040, Note_on_c, 15, 34, 86
18, 254159, Note_on_c, 15, 34, 0
18, 254160, Note_on_c, 15, 33, 86
18, 254279, Note_on_c, 15, 33, 0
18, 254280, Note_on_c, 15, 49, 86
18, 254384, Note_on_c, 15, 49, 0
18, 254400, Note_on_c, 15, 48, 92
18, 254489, Note_on_c, 15, 48, 0
18, 254520, Note_on_c, 15, 36, 92
18, 254609, Note_on_c, 15, 36, 0
18, 254640, Note_on_c, 15, 26, 92
18, 254729, Note_on_c, 15, 26, 0
18, 254760, Note_on_c, 15, 48, 92
18, 254849, Note_on_c, 15, 48, 0
18, 254880, Note_on_c, 15, 48, 92
18, 254969, Note_on_c, 15, 48, 0
18, 255000, Note_on_c, 15, 36, 92
18, 255089, Note_on_c, 15, 36, 0
18, 255120, Note_on_c, 15, 26, 92
18, 255209, Note_on_c, 15, 26, 0
18, 255240, Note_on_c, 15, 48, 92
18, 255329, Note_on_c, 15, 48, 0
18, 255360, Note_on_c, 15, 47, 92
18, 255449, Note_on_c, 15, 47, 0
18, 255480, Note_on_c, 15, 35, 92
18, 255569, Note_on_c, 15, 35, 0
18, 255600, Note_on_c, 15, 26, 92
18, 255689, Note_on_c, 15, 26, 0
18, 255720, Note_on_c, 15, 47, 92
18, 255809, Note_on_c, 15, 47, 0
18, 255840, Note_on_c, 15, 49, 92
18, 255929, Note_on_c, 15, 49, 0
18, 255960, Note_on_c, 15, 37, 92
18, 256049, Note_on_c, 15, 37, 0
18, 256080, Note_on_c, 15, 26, 92
18, 256169, Note_on_c, 15, 26, 0
18, 256200, Note_on_c, 15, 49, 92
18, 256289, Note_on_c, 15, 49, 0
18, 256320, Note_on_c, 15, 48, 92
18, 256409, Note_on_c, 15, 48, 0
18, 256440, Note_on_c, 15, 36, 92
18, 256529, Note_on_c, 15, 36, 0
18, 256560, Note_on_c, 15, 26, 92
18, 256649, Note_on_c, 15, 26, 0
18, 256680, Note_on_c, 15, 48, 92
18, 256769, Note_on_c, 15, 48, 0
18, 256800, Note_on_c, 15, 48, 92
18, 256889, Note_on_c, 15, 48, 0
18, 256920, Note_on_c, 15, 36, 92
18, 257009, Note_on_c, 15, 36, 0
18, 257040, Note_on_c, 15, 26, 92
18, 257129, Note_on_c, 15, 26, 0
18, 257160, Note_on_c, 15, 48, 92
18, 257249, Note_on_c, 15, 48, 0
18, 257280, Note_on_c, 15, 47, 92
18, 257369, Note_on_c, 15, 47, 0
18, 257400, Note_on_c, 15, 35, 92
18, 257489, Note_on_c, 15, 35, 0
18, 257520, Note_on_c, 15, 26, 92
18, 257609, Note_on_c, 15, 26, 0
18, 257640, Note_on_c, 15, 47, 92
18, 257729, Note_on_c, 15, 47, 0
18, 257760, Note_on_c, 15, 49, 92
18, 257849, Note_on_c, 15, 49, 0
18, 257880, Note_on_c, 15, 37, 92
18, 257969, Note_on_c, 15, 37, 0
18, 258000, Note_on_c, 15, 26, 92
18, 258089, Note_on_c, 15, 26, 0
18, 258120, Note_on_c, 15, 50, 92
18, 258209, Note_on_c, 15, 50, 0
18, 258240, Note_on_c, 15, 45, 92
18, 258479, Note_on_c, 15, 45, 0
18, 258480, Note_on_c, 15, 45, 92
18, 258681, Note_on_c, 15, 45, 0
18, 258690, Note_on_c, 15, 41, 92
18, 258711, Note_on_c, 15, 41, 0
18, 258720, Note_on_c, 15, 38, 92
18, 258921, Note_on_c, 15, 38, 0
18, 258930, Note_on_c, 15, 33, 92
18, 258951, Note_on_c, 15, 33, 0
18, 258960, Note_on_c, 15, 29, 92
18, 259124, Note_on_c, 15, 29, 0
18, 259140, Note_on_c, 15, 33, 92
18, 259169, Note_on_c, 15, 33, 0
18, 259170, Note_on_c, 15, 29, 92
18, 259191, Note_on_c, 15, 29, 0
18, 259200, Note_on_c, 15, 26, 92
18, 259319, Note_on_c, 15, 26, 0
18, 259380, Note_on_c, 15, 33, 92
18, 259409, Note_on_c, 15, 33, 0
18, 259410, Note_on_c, 15, 29, 92
18, 259431, Note_on_c, 15, 29, 0
18, 259440, Note_on_c, 15, 26, 92
18, 259559, Note_on_c, 15, 26, 0
18, 259620, Note_on_c, 15, 38, 92
18, 259649, Note_on_c, 15, 38, 0
18, 259650, Note_on_c, 15, 33, 92
18, 259671, Note_on_c, 15, 33, 0
18, 259680, Note_on_c, 15, 29, 92
18, 259799, Note_on_c, 15, 29, 0
18, 259860, Note_on_c, 15, 41, 92
18, 259889, Note_on_c, 15, 41, 0
18, 259890, Note_on_c, 15, 38, 92
18, 259911, Note_on_c, 15, 38, 0
18, 259920, Note_on_c, 15, 33, 92
18, 260039, Note_on_c, 15, 33, 0
18, 260100, Note_on_c, 15, 45, 92
18, 260129, Note_on_c, 15, 45, 0
18, 260130, Note_on_c, 15, 41, 92
18, 260151, Note_on_c, 15, 41, 0
18, 260160, Note_on_c, 15, 38, 92
18, 260399, Note_on_c, 15, 38, 0
18, 260430, Note_on_c, 15, 38, 92
18, 260459, Note_on_c, 15, 38, 0
18, 260460, Note_on_c, 15, 40, 92
18, 260489, Note_on_c, 15, 40, 0
18, 260490, Note_on_c, 15, 41, 92
18, 260519, Note_on_c, 15, 41, 0
18, 260520, Note_on_c, 15, 43, 92
18, 260549, Note_on_c, 15, 43, 0
18, 260550, Note_on_c, 15, 45, 92
18, 260579, Note_on_c, 15, 45, 0
18, 260580, Note_on_c, 15, 47, 92
18, 260609, Note_on_c, 15, 47, 0
18, 260610, Note_on_c, 15, 49, 92
18, 260631, Note_on_c, 15, 49, 0
18, 260640, Note_on_c, 15, 50, 104
18, 260699, Note_on_c, 15, 50, 0
18, 260700, Note_on_c, 15, 50, 92
18, 260879, Note_on_c, 15, 50, 0
18, 260910, Note_on_c, 15, 38, 92
18, 260939, Note_on_c, 15, 38, 0
18, 260940, Note_on_c, 15, 40, 92
18, 260969, Note_on_c, 15, 40, 0
18, 260970, Note_on_c, 15, 41, 92
18, 260999, Note_on_c, 15, 41, 0
18, 261000, Note_on_c, 15, 43, 92
18, 261029, Note_on_c, 15, 43, 0
18, 261030, Note_on_c, 15, 45, 92
18, 261059, Note_on_c, 15, 45, 0
18, 261060, Note_on_c, 15, 47, 92
18, 261089, Note_on_c, 15, 47, 0
18, 261090, Note_on_c, 15, 49, 92
18, 261111, Note_on_c, 15, 49, 0
18, 261120, Note_on_c, 15, 38, 92
18, 261411, Note_on_c, 15, 38, 0
18, 261420, Note_on_c, 15, 41, 92
18, 261464, Note_on_c, 15, 41, 0
18, 261480, Note_on_c, 15, 40, 92
18, 261524, Note_on_c, 15, 40, 0
18, 261540, Note_on_c, 15, 38, 92
18, 261584, Note_on_c, 15, 38, 0
18, 261600, Note_on_c, 15, 45, 92
18, 261689, Note_on_c, 15, 45, 0
18, 261720, Note_on_c, 15, 43, 92
18, 261809, Note_on_c, 15, 43, 0
18, 261840, Note_on_c, 15, 40, 92
18, 261929, Note_on_c, 15, 40, 0
18, 261960, Note_on_c, 15, 45, 92
18, 262049, Note_on_c, 15, 45, 0
18, 262080, Note_on_c, 15, 38, 92
18, 262199, Note_on_c, 15, 38, 0
18, 262199, End_track
19, 0, Start_track
19, 0, Title_t, "Ludwig van Beethoven - Symphony No. 9 in D minor, Op.125 - 1. Allegro ma non troppo, un poco maestoso"
19, 0, MIDI_port, 0
19, 0, End_track
0, 0, End_of_file
