G75*
G70*
%OFA0B0*%
%FSLAX24Y24*%
%IPPOS*%
%LPD*%
%AMOC8*
5,1,8,0,0,1.08239X$1,22.5*
%
%ADD10C,0.0040*%
%ADD11R,0.2677X0.0276*%
%ADD12R,0.2677X0.2205*%
%ADD13C,0.0640*%
%ADD14C,0.0010*%
%ADD15C,0.0886*%
%ADD16C,0.0320*%
D10*
X005356Y012173D02*
X005740Y012173D01*
X005817Y012249D01*
X005817Y012403D01*
X005740Y012479D01*
X005356Y012479D01*
X005740Y012633D02*
X005817Y012710D01*
X005817Y012863D01*
X005740Y012940D01*
X005663Y012940D01*
X005587Y012863D01*
X005587Y012710D01*
X005510Y012633D01*
X005433Y012633D01*
X005356Y012710D01*
X005356Y012863D01*
X005433Y012940D01*
X005280Y012786D02*
X005894Y012786D01*
X005510Y013093D02*
X005356Y013247D01*
X005817Y013247D01*
X005817Y013400D02*
X005817Y013093D01*
X001693Y008336D02*
X001616Y008259D01*
X001616Y008106D01*
X001693Y008029D01*
X002000Y008029D01*
X002077Y008106D01*
X002077Y008259D01*
X002000Y008336D01*
X002077Y008489D02*
X001616Y008489D01*
X001616Y008720D01*
X001693Y008796D01*
X001847Y008796D01*
X001923Y008720D01*
X001923Y008489D01*
X001923Y008643D02*
X002077Y008796D01*
X001616Y009257D02*
X001616Y008950D01*
X002077Y008950D01*
X002077Y009257D01*
X001847Y009103D02*
X001847Y008950D01*
X001616Y009717D02*
X001616Y009410D01*
X002077Y009410D01*
X002077Y009717D01*
X001847Y009564D02*
X001847Y009410D01*
X002153Y009870D02*
X002153Y010177D01*
X001693Y010638D02*
X001616Y010561D01*
X001616Y010407D01*
X001693Y010331D01*
X001770Y010331D01*
X001847Y010407D01*
X001847Y010561D01*
X001923Y010638D01*
X002000Y010638D01*
X002077Y010561D01*
X002077Y010407D01*
X002000Y010331D01*
X002077Y010791D02*
X001616Y010791D01*
X001770Y010945D01*
X001616Y011098D01*
X002077Y011098D01*
X001616Y011251D02*
X002077Y011251D01*
X002077Y011482D01*
X002000Y011558D01*
X001693Y011558D01*
X001616Y011482D01*
X001616Y011251D01*
X002153Y011712D02*
X002153Y012019D01*
X001616Y012172D02*
X001616Y012479D01*
X001693Y012479D01*
X002000Y012172D01*
X002077Y012172D01*
X001616Y012633D02*
X002077Y012939D01*
X002077Y012633D02*
X001616Y012939D01*
X002000Y013093D02*
X002077Y013170D01*
X002077Y013323D01*
X002000Y013400D01*
X001693Y013400D01*
X001616Y013323D01*
X001616Y013170D01*
X001693Y013093D01*
X001770Y013093D01*
X001847Y013170D01*
X001847Y013400D01*
X013356Y012173D02*
X013740Y012173D01*
X013817Y012249D01*
X013817Y012403D01*
X013740Y012479D01*
X013356Y012479D01*
X013740Y012633D02*
X013817Y012710D01*
X013817Y012863D01*
X013740Y012940D01*
X013663Y012940D01*
X013587Y012863D01*
X013587Y012710D01*
X013510Y012633D01*
X013433Y012633D01*
X013356Y012710D01*
X013356Y012863D01*
X013433Y012940D01*
X013280Y012786D02*
X013894Y012786D01*
X013817Y013400D02*
X013817Y013093D01*
X013510Y013400D01*
X013433Y013400D01*
X013356Y013323D01*
X013356Y013170D01*
X013433Y013093D01*
X009693Y008336D02*
X009616Y008259D01*
X009616Y008106D01*
X009693Y008029D01*
X010000Y008029D01*
X010077Y008106D01*
X010077Y008259D01*
X010000Y008336D01*
X010077Y008489D02*
X009616Y008489D01*
X009616Y008720D01*
X009693Y008796D01*
X009847Y008796D01*
X009923Y008720D01*
X009923Y008489D01*
X009923Y008643D02*
X010077Y008796D01*
X009616Y009257D02*
X009616Y008950D01*
X010077Y008950D01*
X010077Y009257D01*
X009847Y009103D02*
X009847Y008950D01*
X009616Y009717D02*
X009616Y009410D01*
X010077Y009410D01*
X010077Y009717D01*
X009847Y009564D02*
X009847Y009410D01*
X010153Y009870D02*
X010153Y010177D01*
X009693Y010638D02*
X009616Y010561D01*
X009616Y010407D01*
X009693Y010331D01*
X009770Y010331D01*
X009847Y010407D01*
X009847Y010561D01*
X009923Y010638D01*
X010000Y010638D01*
X010077Y010561D01*
X010077Y010407D01*
X010000Y010331D01*
X010077Y010791D02*
X009616Y010791D01*
X009770Y010945D01*
X009616Y011098D01*
X010077Y011098D01*
X009616Y011251D02*
X010077Y011251D01*
X010077Y011482D01*
X010000Y011558D01*
X009693Y011558D01*
X009616Y011482D01*
X009616Y011251D01*
X010153Y011712D02*
X010153Y012019D01*
X009616Y012172D02*
X009616Y012479D01*
X009693Y012479D01*
X010000Y012172D01*
X010077Y012172D01*
X009616Y012633D02*
X010077Y012939D01*
X010077Y012633D02*
X009616Y012939D01*
X010000Y013093D02*
X010077Y013170D01*
X010077Y013323D01*
X010000Y013400D01*
X009693Y013400D01*
X009616Y013323D01*
X009616Y013170D01*
X009693Y013093D01*
X009770Y013093D01*
X009847Y013170D01*
X009847Y013400D01*
D11*
X003762Y013278D03*
X003762Y010246D03*
X011762Y013278D03*
X011762Y010246D03*
D12*
X003762Y011762D03*
X011762Y011762D03*
D13*
X004582Y005762D02*
X003942Y005762D01*
X003942Y004762D02*
X004582Y004762D01*
X004582Y003762D02*
X003942Y003762D01*
D14*
X003872Y005762D02*
X003874Y005801D01*
X003880Y005839D01*
X003889Y005877D01*
X003903Y005913D01*
X003919Y005949D01*
X003940Y005982D01*
X003963Y006013D01*
X003990Y006041D01*
X004019Y006067D01*
X004050Y006090D01*
X004084Y006109D01*
X004120Y006125D01*
X004156Y006137D01*
X004194Y006146D01*
X004233Y006151D01*
X004272Y006152D01*
X004310Y006149D01*
X004349Y006142D01*
X004386Y006132D01*
X004422Y006117D01*
X004457Y006100D01*
X004490Y006079D01*
X004520Y006054D01*
X004548Y006027D01*
X004573Y005997D01*
X004595Y005965D01*
X004613Y005931D01*
X004628Y005895D01*
X004640Y005858D01*
X004648Y005820D01*
X004652Y005781D01*
X004652Y005743D01*
X004648Y005704D01*
X004640Y005666D01*
X004628Y005629D01*
X004613Y005593D01*
X004595Y005559D01*
X004573Y005527D01*
X004548Y005497D01*
X004520Y005470D01*
X004490Y005445D01*
X004457Y005424D01*
X004422Y005407D01*
X004386Y005392D01*
X004349Y005382D01*
X004310Y005375D01*
X004272Y005372D01*
X004233Y005373D01*
X004194Y005378D01*
X004156Y005387D01*
X004120Y005399D01*
X004084Y005415D01*
X004050Y005434D01*
X004019Y005457D01*
X003990Y005483D01*
X003963Y005511D01*
X003940Y005542D01*
X003919Y005575D01*
X003903Y005611D01*
X003889Y005647D01*
X003880Y005685D01*
X003874Y005723D01*
X003872Y005762D01*
X003862Y005362D02*
X004662Y006162D01*
X003872Y004762D02*
X003874Y004801D01*
X003880Y004839D01*
X003889Y004877D01*
X003903Y004913D01*
X003919Y004949D01*
X003940Y004982D01*
X003963Y005013D01*
X003990Y005041D01*
X004019Y005067D01*
X004050Y005090D01*
X004084Y005109D01*
X004120Y005125D01*
X004156Y005137D01*
X004194Y005146D01*
X004233Y005151D01*
X004272Y005152D01*
X004310Y005149D01*
X004349Y005142D01*
X004386Y005132D01*
X004422Y005117D01*
X004457Y005100D01*
X004490Y005079D01*
X004520Y005054D01*
X004548Y005027D01*
X004573Y004997D01*
X004595Y004965D01*
X004613Y004931D01*
X004628Y004895D01*
X004640Y004858D01*
X004648Y004820D01*
X004652Y004781D01*
X004652Y004743D01*
X004648Y004704D01*
X004640Y004666D01*
X004628Y004629D01*
X004613Y004593D01*
X004595Y004559D01*
X004573Y004527D01*
X004548Y004497D01*
X004520Y004470D01*
X004490Y004445D01*
X004457Y004424D01*
X004422Y004407D01*
X004386Y004392D01*
X004349Y004382D01*
X004310Y004375D01*
X004272Y004372D01*
X004233Y004373D01*
X004194Y004378D01*
X004156Y004387D01*
X004120Y004399D01*
X004084Y004415D01*
X004050Y004434D01*
X004019Y004457D01*
X003990Y004483D01*
X003963Y004511D01*
X003940Y004542D01*
X003919Y004575D01*
X003903Y004611D01*
X003889Y004647D01*
X003880Y004685D01*
X003874Y004723D01*
X003872Y004762D01*
X003862Y004362D02*
X004662Y005162D01*
X003872Y003762D02*
X003874Y003801D01*
X003880Y003839D01*
X003889Y003877D01*
X003903Y003913D01*
X003919Y003949D01*
X003940Y003982D01*
X003963Y004013D01*
X003990Y004041D01*
X004019Y004067D01*
X004050Y004090D01*
X004084Y004109D01*
X004120Y004125D01*
X004156Y004137D01*
X004194Y004146D01*
X004233Y004151D01*
X004272Y004152D01*
X004310Y004149D01*
X004349Y004142D01*
X004386Y004132D01*
X004422Y004117D01*
X004457Y004100D01*
X004490Y004079D01*
X004520Y004054D01*
X004548Y004027D01*
X004573Y003997D01*
X004595Y003965D01*
X004613Y003931D01*
X004628Y003895D01*
X004640Y003858D01*
X004648Y003820D01*
X004652Y003781D01*
X004652Y003743D01*
X004648Y003704D01*
X004640Y003666D01*
X004628Y003629D01*
X004613Y003593D01*
X004595Y003559D01*
X004573Y003527D01*
X004548Y003497D01*
X004520Y003470D01*
X004490Y003445D01*
X004457Y003424D01*
X004422Y003407D01*
X004386Y003392D01*
X004349Y003382D01*
X004310Y003375D01*
X004272Y003372D01*
X004233Y003373D01*
X004194Y003378D01*
X004156Y003387D01*
X004120Y003399D01*
X004084Y003415D01*
X004050Y003434D01*
X004019Y003457D01*
X003990Y003483D01*
X003963Y003511D01*
X003940Y003542D01*
X003919Y003575D01*
X003903Y003611D01*
X003889Y003647D01*
X003880Y003685D01*
X003874Y003723D01*
X003872Y003762D01*
X003862Y003362D02*
X004662Y004162D01*
X009772Y004762D02*
X009774Y004801D01*
X009780Y004839D01*
X009789Y004877D01*
X009803Y004913D01*
X009819Y004949D01*
X009840Y004982D01*
X009863Y005013D01*
X009890Y005041D01*
X009919Y005067D01*
X009950Y005090D01*
X009984Y005109D01*
X010020Y005125D01*
X010056Y005137D01*
X010094Y005146D01*
X010133Y005151D01*
X010172Y005152D01*
X010210Y005149D01*
X010249Y005142D01*
X010286Y005132D01*
X010322Y005117D01*
X010357Y005100D01*
X010390Y005079D01*
X010420Y005054D01*
X010448Y005027D01*
X010473Y004997D01*
X010495Y004965D01*
X010513Y004931D01*
X010528Y004895D01*
X010540Y004858D01*
X010548Y004820D01*
X010552Y004781D01*
X010552Y004743D01*
X010548Y004704D01*
X010540Y004666D01*
X010528Y004629D01*
X010513Y004593D01*
X010495Y004559D01*
X010473Y004527D01*
X010448Y004497D01*
X010420Y004470D01*
X010390Y004445D01*
X010357Y004424D01*
X010322Y004407D01*
X010286Y004392D01*
X010249Y004382D01*
X010210Y004375D01*
X010172Y004372D01*
X010133Y004373D01*
X010094Y004378D01*
X010056Y004387D01*
X010020Y004399D01*
X009984Y004415D01*
X009950Y004434D01*
X009919Y004457D01*
X009890Y004483D01*
X009863Y004511D01*
X009840Y004542D01*
X009819Y004575D01*
X009803Y004611D01*
X009789Y004647D01*
X009780Y004685D01*
X009774Y004723D01*
X009772Y004762D01*
X009762Y004362D02*
X010562Y005162D01*
X013262Y001362D02*
X013262Y001762D01*
X012862Y002162D01*
X013662Y002162D01*
X013262Y001762D01*
X002262Y001362D02*
X002262Y001762D01*
X001862Y002162D01*
X002662Y002162D01*
X002262Y001762D01*
D15*
X013262Y001762D03*
X002262Y001762D03*
D16*
X014982Y014982D02*
X014982Y000542D01*
X000542Y000542D01*
X000542Y014982D01*
X014982Y014982D01*
X011092Y004577D02*
X011092Y004947D01*
X010950Y005289D01*
X010689Y005550D01*
X010347Y005692D01*
X009977Y005692D01*
X009635Y005550D01*
X009374Y005289D01*
X009232Y004947D01*
X009232Y004577D01*
X009374Y004235D01*
X009635Y003974D01*
X009977Y003832D01*
X010347Y003832D01*
X010689Y003974D01*
X010950Y004235D01*
X011092Y004577D01*
X002649Y002341D02*
X002398Y002445D01*
X002126Y002445D01*
X001875Y002341D01*
X001683Y002149D01*
X001579Y001898D01*
X001579Y001626D01*
X001683Y001375D01*
X001875Y001183D01*
X002126Y001079D01*
X002398Y001079D01*
X002649Y001183D01*
X002788Y001322D01*
X006174Y001322D01*
X006350Y001322D01*
X006511Y001389D01*
X006635Y001513D01*
X006702Y001674D01*
X006702Y004674D01*
X006702Y004850D01*
X006635Y005011D01*
X006511Y005135D01*
X006350Y005202D01*
X004991Y005202D01*
X004931Y005262D01*
X005091Y005422D01*
X005182Y005643D01*
X005182Y005881D01*
X005091Y006102D01*
X004922Y006271D01*
X004701Y006362D01*
X003823Y006362D01*
X003602Y006271D01*
X003433Y006102D01*
X003342Y005881D01*
X003342Y005643D01*
X003433Y005422D01*
X003594Y005262D01*
X003433Y005102D01*
X003342Y004881D01*
X003342Y004643D01*
X003433Y004422D01*
X003594Y004262D01*
X003534Y004202D01*
X002702Y004202D01*
X002702Y007322D01*
X003674Y007322D01*
X003850Y007322D01*
X004011Y007389D01*
X004135Y007513D01*
X004202Y007674D01*
X004202Y008822D01*
X009150Y008822D01*
X009150Y007706D01*
X009153Y007679D01*
X009158Y007652D01*
X009166Y007625D01*
X009177Y007600D01*
X009190Y007576D01*
X009205Y007553D01*
X009222Y007532D01*
X009242Y007512D01*
X009263Y007495D01*
X009286Y007479D01*
X009310Y007467D01*
X009336Y007456D01*
X009362Y007448D01*
X009389Y007443D01*
X009416Y007440D01*
X010277Y007440D01*
X010304Y007443D01*
X010331Y007448D01*
X010358Y007456D01*
X010383Y007467D01*
X010407Y007479D01*
X010430Y007495D01*
X010452Y007512D01*
X010471Y007532D01*
X010488Y007553D01*
X010504Y007576D01*
X010517Y007600D01*
X010527Y007625D01*
X010535Y007652D01*
X010541Y007679D01*
X010543Y007706D01*
X010543Y008822D01*
X011674Y008822D01*
X011850Y008822D01*
X012011Y008889D01*
X012135Y009013D01*
X012202Y009174D01*
X012202Y009829D01*
X013156Y009829D01*
X013259Y009871D01*
X013338Y009950D01*
X013381Y010053D01*
X013381Y010440D01*
X013347Y010522D01*
X013381Y010604D01*
X013381Y011774D01*
X014017Y011774D01*
X014045Y011777D01*
X014072Y011782D01*
X014098Y011790D01*
X014123Y011800D01*
X014148Y011813D01*
X014170Y011829D01*
X014192Y011846D01*
X014211Y011866D01*
X014229Y011887D01*
X014244Y011910D01*
X014257Y011934D01*
X014267Y011959D01*
X014275Y011986D01*
X014281Y012013D01*
X014283Y012040D01*
X014283Y013714D01*
X014281Y013741D01*
X014275Y013768D01*
X014267Y013795D01*
X014257Y013820D01*
X014244Y013844D01*
X014229Y013867D01*
X014211Y013889D01*
X014192Y013908D01*
X014170Y013925D01*
X014148Y013941D01*
X014123Y013954D01*
X014098Y013964D01*
X014072Y013972D01*
X014045Y013978D01*
X014017Y013980D01*
X013156Y013980D01*
X013129Y013978D01*
X013102Y013972D01*
X013076Y013964D01*
X013050Y013954D01*
X013026Y013941D01*
X013003Y013925D01*
X012982Y013908D01*
X012962Y013889D01*
X012945Y013867D01*
X012930Y013844D01*
X012917Y013820D01*
X012906Y013795D01*
X012898Y013768D01*
X012893Y013741D01*
X012890Y013714D01*
X012890Y013676D01*
X011762Y013676D01*
X011762Y013278D01*
X011762Y013278D01*
X011762Y013676D01*
X010543Y013676D01*
X010543Y013714D01*
X010541Y013741D01*
X010535Y013768D01*
X010527Y013795D01*
X010517Y013820D01*
X010504Y013844D01*
X010488Y013867D01*
X010471Y013889D01*
X010452Y013908D01*
X010430Y013925D01*
X010407Y013941D01*
X010383Y013954D01*
X010358Y013964D01*
X010331Y013972D01*
X010304Y013978D01*
X010277Y013980D01*
X009416Y013980D01*
X009389Y013978D01*
X009362Y013972D01*
X009336Y013964D01*
X009310Y013954D01*
X009286Y013941D01*
X009263Y013925D01*
X009242Y013908D01*
X009222Y013889D01*
X009205Y013867D01*
X009190Y013844D01*
X009177Y013820D01*
X009166Y013795D01*
X009158Y013768D01*
X009153Y013741D01*
X009150Y013714D01*
X009150Y009702D01*
X004202Y009702D01*
X004202Y009829D01*
X005156Y009829D01*
X005259Y009871D01*
X005338Y009950D01*
X005381Y010053D01*
X005381Y010440D01*
X005347Y010522D01*
X005381Y010604D01*
X005381Y011774D01*
X006017Y011774D01*
X006045Y011777D01*
X006072Y011782D01*
X006098Y011790D01*
X006123Y011800D01*
X006148Y011813D01*
X006170Y011829D01*
X006192Y011846D01*
X006211Y011866D01*
X006229Y011887D01*
X006244Y011910D01*
X006257Y011934D01*
X006267Y011959D01*
X006275Y011986D01*
X006281Y012013D01*
X006283Y012040D01*
X006283Y013714D01*
X006281Y013741D01*
X006275Y013768D01*
X006267Y013795D01*
X006257Y013820D01*
X006244Y013844D01*
X006229Y013867D01*
X006211Y013889D01*
X006192Y013908D01*
X006170Y013925D01*
X006148Y013941D01*
X006123Y013954D01*
X006098Y013964D01*
X006072Y013972D01*
X006045Y013978D01*
X006017Y013980D01*
X005156Y013980D01*
X005129Y013978D01*
X005102Y013972D01*
X005076Y013964D01*
X005050Y013954D01*
X005026Y013941D01*
X005003Y013925D01*
X004982Y013908D01*
X004962Y013889D01*
X004945Y013867D01*
X004930Y013844D01*
X004917Y013820D01*
X004906Y013795D01*
X004898Y013768D01*
X004893Y013741D01*
X004890Y013714D01*
X004890Y013676D01*
X003762Y013676D01*
X003762Y013278D01*
X003762Y013278D01*
X003762Y013676D01*
X002543Y013676D01*
X002543Y013714D01*
X002541Y013741D01*
X002535Y013768D01*
X002527Y013795D01*
X002517Y013820D01*
X002504Y013844D01*
X002488Y013867D01*
X002471Y013889D01*
X002452Y013908D01*
X002430Y013925D01*
X002407Y013941D01*
X002383Y013954D01*
X002358Y013964D01*
X002331Y013972D01*
X002304Y013978D01*
X002277Y013980D01*
X001416Y013980D01*
X001389Y013978D01*
X001362Y013972D01*
X001336Y013964D01*
X001310Y013954D01*
X001286Y013941D01*
X001263Y013925D01*
X001242Y013908D01*
X001222Y013889D01*
X001205Y013867D01*
X001190Y013844D01*
X001177Y013820D01*
X001166Y013795D01*
X001158Y013768D01*
X001153Y013741D01*
X001150Y013714D01*
X001150Y007706D01*
X001153Y007679D01*
X001158Y007652D01*
X001166Y007625D01*
X001177Y007600D01*
X001190Y007576D01*
X001205Y007553D01*
X001222Y007532D01*
X001242Y007512D01*
X001263Y007495D01*
X001286Y007479D01*
X001310Y007467D01*
X001336Y007456D01*
X001362Y007448D01*
X001389Y007443D01*
X001416Y007440D01*
X001822Y007440D01*
X001822Y003674D01*
X001889Y003513D01*
X002013Y003389D01*
X002174Y003322D01*
X002350Y003322D01*
X003534Y003322D01*
X003602Y003253D01*
X003823Y003162D01*
X004701Y003162D01*
X004922Y003253D01*
X005091Y003422D01*
X005182Y003643D01*
X005182Y003881D01*
X005091Y004102D01*
X004931Y004262D01*
X004991Y004322D01*
X005822Y004322D01*
X005822Y002202D01*
X002788Y002202D01*
X002649Y002341D01*
X000542Y000581D02*
X014982Y000581D01*
X014982Y000899D02*
X000542Y000899D01*
X000542Y001218D02*
X001841Y001218D01*
X002683Y001218D02*
X014982Y001218D01*
X001616Y001536D02*
X000542Y001536D01*
X006645Y001536D02*
X014982Y001536D01*
X001579Y001855D02*
X000542Y001855D01*
X006702Y001855D02*
X014982Y001855D01*
X001708Y002173D02*
X000542Y002173D01*
X006702Y002173D02*
X014982Y002173D01*
X005822Y002492D02*
X000542Y002492D01*
X006702Y002492D02*
X014982Y002492D01*
X005822Y002810D02*
X000542Y002810D01*
X006702Y002810D02*
X014982Y002810D01*
X005822Y003129D02*
X000542Y003129D01*
X006702Y003129D02*
X014982Y003129D01*
X001954Y003447D02*
X000542Y003447D01*
X005101Y003447D02*
X005822Y003447D01*
X006702Y003447D02*
X014982Y003447D01*
X001822Y003766D02*
X000542Y003766D01*
X005182Y003766D02*
X005822Y003766D01*
X006702Y003766D02*
X014982Y003766D01*
X001822Y004085D02*
X000542Y004085D01*
X005098Y004085D02*
X005822Y004085D01*
X006702Y004085D02*
X009524Y004085D01*
X010800Y004085D02*
X014982Y004085D01*
X001822Y004403D02*
X000542Y004403D01*
X002702Y004403D02*
X003452Y004403D01*
X006702Y004403D02*
X009304Y004403D01*
X011020Y004403D02*
X014982Y004403D01*
X001822Y004722D02*
X000542Y004722D01*
X002702Y004722D02*
X003342Y004722D01*
X006702Y004722D02*
X009232Y004722D01*
X011092Y004722D02*
X014982Y004722D01*
X001822Y005040D02*
X000542Y005040D01*
X002702Y005040D02*
X003408Y005040D01*
X006606Y005040D02*
X009271Y005040D01*
X011053Y005040D02*
X014982Y005040D01*
X001822Y005359D02*
X000542Y005359D01*
X002702Y005359D02*
X003497Y005359D01*
X005027Y005359D02*
X009444Y005359D01*
X010881Y005359D02*
X014982Y005359D01*
X001822Y005677D02*
X000542Y005677D01*
X002702Y005677D02*
X003342Y005677D01*
X005182Y005677D02*
X009941Y005677D01*
X010383Y005677D02*
X014982Y005677D01*
X001822Y005996D02*
X000542Y005996D01*
X002702Y005996D02*
X003389Y005996D01*
X005135Y005996D02*
X014982Y005996D01*
X001822Y006314D02*
X000542Y006314D01*
X002702Y006314D02*
X003708Y006314D01*
X004816Y006314D02*
X014982Y006314D01*
X001822Y006633D02*
X000542Y006633D01*
X002702Y006633D02*
X014982Y006633D01*
X001822Y006951D02*
X000542Y006951D01*
X002702Y006951D02*
X014982Y006951D01*
X001822Y007270D02*
X000542Y007270D01*
X002702Y007270D02*
X014982Y007270D01*
X001183Y007589D02*
X000542Y007589D01*
X004166Y007589D02*
X009183Y007589D01*
X010511Y007589D02*
X014982Y007589D01*
X001150Y007907D02*
X000542Y007907D01*
X004202Y007907D02*
X009150Y007907D01*
X010543Y007907D02*
X014982Y007907D01*
X001150Y008226D02*
X000542Y008226D01*
X004202Y008226D02*
X009150Y008226D01*
X010543Y008226D02*
X014982Y008226D01*
X001150Y008544D02*
X000542Y008544D01*
X004202Y008544D02*
X009150Y008544D01*
X010543Y008544D02*
X014982Y008544D01*
X001150Y008863D02*
X000542Y008863D01*
X011948Y008863D02*
X014982Y008863D01*
X001150Y009181D02*
X000542Y009181D01*
X012202Y009181D02*
X014982Y009181D01*
X001150Y009500D02*
X000542Y009500D01*
X012202Y009500D02*
X014982Y009500D01*
X001150Y009818D02*
X000542Y009818D01*
X004202Y009818D02*
X009150Y009818D01*
X012202Y009818D02*
X014982Y009818D01*
X001150Y010137D02*
X000542Y010137D01*
X005381Y010137D02*
X009150Y010137D01*
X013381Y010137D02*
X014982Y010137D01*
X001150Y010455D02*
X000542Y010455D01*
X005374Y010455D02*
X009150Y010455D01*
X013374Y010455D02*
X014982Y010455D01*
X001150Y010774D02*
X000542Y010774D01*
X005381Y010774D02*
X009150Y010774D01*
X013381Y010774D02*
X014982Y010774D01*
X001150Y011093D02*
X000542Y011093D01*
X005381Y011093D02*
X009150Y011093D01*
X013381Y011093D02*
X014982Y011093D01*
X001150Y011411D02*
X000542Y011411D01*
X005381Y011411D02*
X009150Y011411D01*
X013381Y011411D02*
X014982Y011411D01*
X001150Y011730D02*
X000542Y011730D01*
X005381Y011730D02*
X009150Y011730D01*
X013381Y011730D02*
X014982Y011730D01*
X001150Y012048D02*
X000542Y012048D01*
X006283Y012048D02*
X009150Y012048D01*
X014283Y012048D02*
X014982Y012048D01*
X001150Y012367D02*
X000542Y012367D01*
X006283Y012367D02*
X009150Y012367D01*
X014283Y012367D02*
X014982Y012367D01*
X001150Y012685D02*
X000542Y012685D01*
X006283Y012685D02*
X009150Y012685D01*
X014283Y012685D02*
X014982Y012685D01*
X001150Y013004D02*
X000542Y013004D01*
X006283Y013004D02*
X009150Y013004D01*
X014283Y013004D02*
X014982Y013004D01*
X001150Y013322D02*
X000542Y013322D01*
X003762Y013322D02*
X003762Y013322D01*
X006283Y013322D02*
X009150Y013322D01*
X011762Y013322D02*
X011762Y013322D01*
X014283Y013322D02*
X014982Y013322D01*
X001150Y013641D02*
X000542Y013641D01*
X003762Y013641D02*
X003762Y013641D01*
X006283Y013641D02*
X009150Y013641D01*
X011762Y013641D02*
X011762Y013641D01*
X014283Y013641D02*
X014982Y013641D01*
X001324Y013959D02*
X000542Y013959D01*
X002370Y013959D02*
X005064Y013959D01*
X006110Y013959D02*
X009324Y013959D01*
X010370Y013959D02*
X013064Y013959D01*
X014110Y013959D02*
X014982Y013959D01*
X014982Y014278D02*
X000542Y014278D01*
X000542Y014596D02*
X014982Y014596D01*
X014982Y014915D02*
X000542Y014915D01*
X002262Y001762D02*
X006262Y001762D01*
X006262Y004762D01*
X004262Y004762D01*
X004262Y003762D02*
X002262Y003762D01*
X002262Y007762D01*
X003762Y007762D01*
X003762Y009262D01*
X003762Y010246D01*
X003762Y009262D02*
X011762Y009262D01*
X011762Y010246D01*
M02*
