%
M48
M72
T01C0.0260
T02C0.0315
T03C0.0320
T04C0.0354
T05C0.0400
T06C0.0472
%
T01
X3608Y20873
X4395Y20873
X5183Y20873
X5970Y20873
X6757Y20873
X7545Y20873
X8332Y20873
X9120Y20873
X9907Y20873
X10694Y20873
X10694Y29534
X9907Y29534
X9120Y29534
X8332Y29534
X7545Y29534
X6757Y29534
X5970Y29534
X5183Y29534
X4395Y29534
X3608Y29534
T02
X11151Y5704
X11901Y5954
X11901Y7204
X13401Y5954
X15651Y8454
X16901Y5954
X19401Y3954
X20151Y3204
X20651Y4204
X20651Y4954
X19651Y5204
X21651Y3954
X21151Y3204
X22151Y4704
X22651Y6704
X24401Y5454
X25401Y4954
X25901Y1954
X24901Y8704
X26651Y10704
X27401Y10454
X25651Y13454
X24651Y13704
X23401Y14704
X22901Y14204
X23401Y16454
X23401Y17954
X24151Y17954
X24901Y17954
X25651Y17954
X26401Y17954
X26401Y17204
X26901Y16704
X27651Y16704
X24901Y21204
X24151Y21204
X23401Y21204
X22651Y21204
X22151Y21704
X22151Y22454
X21401Y22454
X21401Y21704
X20651Y21704
X19901Y21704
X19151Y21704
X16401Y18954
X16901Y18454
X17401Y17954
X18151Y17954
X18901Y17954
X19651Y17954
X20401Y17954
X21151Y17954
X21901Y17954
X22651Y17954
X18651Y16704
X20151Y13954
X15651Y18954
X14901Y18954
X14151Y18954
X13401Y18954
X10901Y15454
X12151Y14454
X13151Y14954
X13151Y13954
X13651Y12954
X11901Y12704
X12401Y10454
X9547Y11454
X9401Y15454
X7901Y15454
X5151Y15204
X5151Y11704
X5151Y8704
X5151Y5704
X6651Y3204
X5151Y2704
X9401Y4454
X2515Y23668
X4937Y26089
X12901Y28204
X12901Y22454
X22401Y25704
X23151Y25704
X23901Y25704
X24651Y25704
X25401Y25704
X25401Y26454
X24651Y26454
X26151Y26454
X26151Y25704
T03
X25651Y7204
X24901Y6704
X25651Y6204
T04
X28151Y2587
X28151Y4320
T05
X1651Y1704
X1651Y2704
X1651Y3704
X1651Y4704
X1651Y5704
X1651Y6704
X1651Y7704
X1651Y8704
X1651Y9704
X1651Y10704
X1651Y11704
X1651Y12704
X5901Y1454
X6901Y1454
X7901Y1454
X8901Y1454
X9901Y1454
X10901Y1454
X11901Y1454
X12901Y1454
X17651Y1454
X18651Y1454
X19651Y1454
X20651Y1454
X21651Y1454
X22651Y1454
X23651Y1454
X24651Y1454
X29151Y6954
X29151Y7954
X29151Y8954
X29151Y9954
X29151Y10954
X29151Y11954
X29151Y12954
X29151Y13954
X27901Y18704
X27901Y19704
X27901Y20704
T06
X28401Y28709
X28401Y27331
X28401Y25954
M30
