G75*
G70*
%OFA0B0*%
%FSLAX24Y24*%
%IPPOS*%
%LPD*%
%AMOC8*
5,1,8,0,0,1.08239X$1,22.5*
%
%ADD10R,0.0277X0.0946*%
%ADD11R,0.0592X0.0710*%
%ADD12R,0.0671X0.0671*%
%ADD13R,0.0552X0.0395*%
%ADD14C,0.0720*%
%ADD15R,0.0710X0.0592*%
%ADD16R,0.1143X0.1084*%
%ADD17R,0.0380X0.0680*%
%ADD18R,0.0470X0.0352*%
%ADD19R,0.0880X0.2080*%
%ADD20R,0.0356X0.0749*%
%ADD21R,0.0395X0.0552*%
%ADD22R,0.0474X0.0631*%
%ADD23R,0.0592X0.0592*%
%ADD24R,0.0552X0.0572*%
%ADD25C,0.1480*%
D10*
G36*
X005912Y005264D02*
X006108Y005460D01*
X006776Y004792D01*
X006580Y004596D01*
X005912Y005264D01*
G37*
G36*
X006265Y005617D02*
X006461Y005813D01*
X007129Y005145D01*
X006933Y004949D01*
X006265Y005617D01*
G37*
G36*
X006619Y005971D02*
X006815Y006167D01*
X007483Y005499D01*
X007287Y005303D01*
X006619Y005971D01*
G37*
G36*
X006972Y006324D02*
X007168Y006520D01*
X007836Y005852D01*
X007640Y005656D01*
X006972Y006324D01*
G37*
G36*
X005216Y008080D02*
X005412Y008276D01*
X006080Y007608D01*
X005884Y007412D01*
X005216Y008080D01*
G37*
G36*
X004865Y007730D02*
X005061Y007926D01*
X005729Y007258D01*
X005533Y007062D01*
X004865Y007730D01*
G37*
G36*
X004512Y007376D02*
X004708Y007572D01*
X005376Y006904D01*
X005180Y006708D01*
X004512Y007376D01*
G37*
G36*
X004158Y007023D02*
X004354Y007219D01*
X005022Y006551D01*
X004826Y006355D01*
X004158Y007023D01*
G37*
D11*
G36*
X008984Y007679D02*
X009403Y008098D01*
X009904Y007597D01*
X009485Y007178D01*
X008984Y007679D01*
G37*
G36*
X009541Y008236D02*
X009960Y008655D01*
X010461Y008154D01*
X010042Y007735D01*
X009541Y008236D01*
G37*
D12*
X011428Y008633D03*
X011428Y010011D03*
D13*
X012283Y010012D03*
X012283Y009303D03*
X010623Y009277D03*
X010623Y008568D03*
X005753Y009678D03*
X005753Y010387D03*
D14*
X005608Y003787D02*
X005608Y003147D01*
X006608Y003147D02*
X006608Y003787D01*
X007608Y003787D02*
X007608Y003147D01*
X008608Y003147D02*
X008608Y003787D01*
X009608Y003787D02*
X009608Y003147D01*
X010608Y003147D02*
X010608Y003787D01*
D15*
X013163Y009219D03*
X013163Y010006D03*
D16*
X012693Y007755D03*
X012693Y005259D03*
D17*
G36*
X008407Y008292D02*
X008675Y008560D01*
X009155Y008080D01*
X008887Y007812D01*
X008407Y008292D01*
G37*
G36*
X007347Y007232D02*
X007615Y007500D01*
X008095Y007020D01*
X007827Y006752D01*
X007347Y007232D01*
G37*
G36*
X005932Y008646D02*
X006200Y008914D01*
X006680Y008434D01*
X006412Y008166D01*
X005932Y008646D01*
G37*
G36*
X006993Y009707D02*
X007261Y009975D01*
X007741Y009495D01*
X007473Y009227D01*
X006993Y009707D01*
G37*
D18*
X006791Y010803D03*
X006791Y011177D03*
X006791Y011551D03*
X007815Y011551D03*
X007815Y011177D03*
X007815Y010803D03*
X009371Y010803D03*
X009371Y011177D03*
X009371Y011551D03*
X010395Y011551D03*
X010395Y011177D03*
X010395Y010803D03*
D19*
X010492Y013337D03*
X009274Y013337D03*
X007912Y013347D03*
X006694Y013347D03*
X005352Y013347D03*
X004134Y013347D03*
X011834Y013337D03*
X013052Y013337D03*
D20*
G36*
X005143Y008230D02*
X004891Y007978D01*
X004363Y008506D01*
X004615Y008758D01*
X005143Y008230D01*
G37*
G36*
X004809Y007896D02*
X004557Y007644D01*
X004029Y008172D01*
X004281Y008424D01*
X004809Y007896D01*
G37*
G36*
X004475Y007562D02*
X004223Y007310D01*
X003695Y007838D01*
X003947Y008090D01*
X004475Y007562D01*
G37*
D21*
X004329Y009657D03*
X005037Y009657D03*
D22*
X008229Y009784D03*
X008977Y009784D03*
X008603Y010650D03*
D23*
X012843Y011689D03*
D24*
X013237Y010695D03*
X012449Y010695D03*
D25*
X003883Y003177D03*
M02*
