G75*
G70*
%OFA0B0*%
%FSLAX24Y24*%
%IPPOS*%
%LPD*%
%AMOC8*
5,1,8,0,0,1.08239X$1,22.5*
%
%ADD10R,0.0197X0.0866*%
%ADD11R,0.0512X0.0630*%
%ADD12R,0.0591X0.0591*%
%ADD13R,0.0472X0.0315*%
%ADD14R,0.0630X0.0512*%
%ADD15R,0.1063X0.1004*%
%ADD16R,0.0300X0.0600*%
%ADD17R,0.0390X0.0272*%
%ADD18R,0.0800X0.2000*%
%ADD19R,0.0276X0.0669*%
%ADD20R,0.0315X0.0472*%
%ADD21R,0.0394X0.0551*%
%ADD22R,0.0512X0.0512*%
%ADD23R,0.0472X0.0492*%
D10*
G36*
X005969Y005264D02*
X006108Y005403D01*
X006719Y004792D01*
X006580Y004653D01*
X005969Y005264D01*
G37*
G36*
X006322Y005617D02*
X006461Y005756D01*
X007072Y005145D01*
X006933Y005006D01*
X006322Y005617D01*
G37*
G36*
X006676Y005971D02*
X006815Y006110D01*
X007426Y005499D01*
X007287Y005360D01*
X006676Y005971D01*
G37*
G36*
X007029Y006324D02*
X007168Y006463D01*
X007779Y005852D01*
X007640Y005713D01*
X007029Y006324D01*
G37*
G36*
X005273Y008080D02*
X005412Y008219D01*
X006023Y007608D01*
X005884Y007469D01*
X005273Y008080D01*
G37*
G36*
X004922Y007730D02*
X005061Y007869D01*
X005672Y007258D01*
X005533Y007119D01*
X004922Y007730D01*
G37*
G36*
X004569Y007376D02*
X004708Y007515D01*
X005319Y006904D01*
X005180Y006765D01*
X004569Y007376D01*
G37*
G36*
X004215Y007023D02*
X004354Y007162D01*
X004965Y006551D01*
X004826Y006412D01*
X004215Y007023D01*
G37*
D11*
G36*
X009041Y007679D02*
X009403Y008041D01*
X009847Y007597D01*
X009485Y007235D01*
X009041Y007679D01*
G37*
G36*
X009598Y008236D02*
X009960Y008598D01*
X010404Y008154D01*
X010042Y007792D01*
X009598Y008236D01*
G37*
D12*
X011428Y008633D03*
X011428Y010011D03*
D13*
X012283Y010012D03*
X012283Y009303D03*
X010623Y009277D03*
X010623Y008568D03*
X005753Y009678D03*
X005753Y010387D03*
D14*
X013163Y010006D03*
X013163Y009219D03*
D15*
X012693Y007755D03*
X012693Y005259D03*
D16*
G36*
X008463Y008292D02*
X008675Y008504D01*
X009099Y008080D01*
X008887Y007868D01*
X008463Y008292D01*
G37*
G36*
X007403Y007232D02*
X007615Y007444D01*
X008039Y007020D01*
X007827Y006808D01*
X007403Y007232D01*
G37*
G36*
X005988Y008646D02*
X006200Y008858D01*
X006624Y008434D01*
X006412Y008222D01*
X005988Y008646D01*
G37*
G36*
X007049Y009707D02*
X007261Y009919D01*
X007685Y009495D01*
X007473Y009283D01*
X007049Y009707D01*
G37*
D17*
X006791Y010803D03*
X006791Y011177D03*
X006791Y011551D03*
X007815Y011551D03*
X007815Y011177D03*
X007815Y010803D03*
X009371Y010803D03*
X009371Y011177D03*
X009371Y011551D03*
X010395Y011551D03*
X010395Y011177D03*
X010395Y010803D03*
D18*
X010492Y013337D03*
X009274Y013337D03*
X007912Y013347D03*
X006694Y013347D03*
X005352Y013347D03*
X004134Y013347D03*
X011834Y013337D03*
X013052Y013337D03*
D19*
G36*
X005086Y008230D02*
X004891Y008035D01*
X004420Y008506D01*
X004615Y008701D01*
X005086Y008230D01*
G37*
G36*
X004752Y007896D02*
X004557Y007701D01*
X004086Y008172D01*
X004281Y008367D01*
X004752Y007896D01*
G37*
G36*
X004418Y007562D02*
X004223Y007367D01*
X003752Y007838D01*
X003947Y008033D01*
X004418Y007562D01*
G37*
D20*
X004329Y009657D03*
X005037Y009657D03*
D21*
X008229Y009784D03*
X008977Y009784D03*
X008603Y010650D03*
D22*
X012843Y011689D03*
D23*
X013237Y010695D03*
X012449Y010695D03*
M02*
