%
M48
M72
T01C0.0118
T02C0.0130
T03C0.0140
T04C0.0150
T05C0.0315
T06C0.0354
T07C0.0394
T08C0.0400
T09C0.0450
T10C0.0630
T11C0.1200
%
T01
X4090Y12259
T02
X2860Y2745
X3820Y4265
X30420Y7185
X27980Y5545
X11700Y19155
X12850Y19105
X9550Y18105
X17900Y18505
X17000Y15955
X21050Y15905
X21650Y14805
X15250Y16655
X12250Y14655
X10050Y15555
X10950Y13605
X10350Y13105
X6300Y1705
X6450Y15605
X4500Y16555
X20300Y15005
X20050Y16555
X25600Y16855
X31350Y15955
X32450Y15755
X33600Y15605
X32200Y18055
X27050Y15455
X4550Y18005
X15200Y19155
X16750Y15605
X13600Y15755
X2383Y14891
X2850Y18605
X1000Y20205
X1900Y705
X32500Y705
X28800Y1105
X17100Y12805
X18500Y12355
X4950Y4105
X18800Y7405
X19198Y6885
X19950Y5705
X16700Y17455
X16700Y16955
X19500Y11105
X19900Y10205
X2800Y16005
X4526Y13206
X19750Y12455
X21300Y12705
X16600Y5955
X18050Y5355
X16750Y4755
X20150Y3655
X20000Y3099
X14350Y13905
X17350Y9755
X6100Y11955
X6800Y11955
X8400Y9655
X9150Y11055
X11400Y6005
X12300Y5305
X5100Y12355
X6450Y8755
X8850Y6655
X10750Y4955
X12400Y4155
X13000Y3455
X14450Y5905
X16100Y5655
X16100Y6705
X17950Y7455
X20750Y7455
X19550Y4505
X29650Y14505
X29250Y15305
X28050Y14755
X29150Y13405
X29300Y12455
X29150Y11505
X30400Y11705
X34253Y4614
X33650Y14205
X22750Y12505
X22050Y9105
X22746Y6762
X26800Y7705
X25400Y7605
X25150Y8655
X19100Y18405
X19500Y20905
X19300Y21855
X10440Y20065
X24250Y7655
X27750Y9055
X27650Y6755
X29270Y6385
X28720Y5585
X26174Y4684
X16050Y12505
X17800Y11755
X9790Y19615
X22050Y6605
X26900Y8305
X17700Y3705
X18400Y2805
X16450Y2955
X23550Y5105
X23550Y4005
X32366Y6660
X18792Y19391
X31746Y11264
X23800Y13755
X22500Y17555
X32000Y1705
X29450Y3205
X30200Y2155
X33700Y19105
X34000Y20155
X30550Y15155
X12100Y21355
X11750Y22205
X23600Y16855
X18350Y10205
X30866Y8860
X10950Y12805
X7700Y15155
X21150Y13705
X14200Y3255
X11150Y1105
X13650Y4105
X9900Y4505
X4504Y17066
X3602Y15717
X6000Y4855
X6000Y5605
X7000Y5556
X2450Y7305
X3350Y9305
X11350Y2155
X9850Y2355
X11200Y9405
X9450Y8455
X6650Y9555
X8250Y8505
X4000Y6555
X3000Y5605
X4000Y7605
X4100Y5355
X8500Y11105
X5900Y10955
X11100Y8755
X10150Y8455
X13650Y7255
X14400Y7155
X14600Y7755
X20750Y3555
X20950Y3055
X28596Y6102
X23750Y2055
X22650Y1955
X22804Y3630
X27000Y18205
X27200Y16605
X28800Y21205
X27600Y20655
X23300Y21405
X24850Y20455
X5450Y3105
X4618Y9283
X19182Y6105
X31826Y3856
X24361Y3789
X17305Y2923
X16708Y3596
X17233Y6033
X27750Y5036
X26275Y3505
X27847Y2310
X27004Y2845
X25337Y1856
X15150Y2155
X12783Y8162
X6782Y6535
X5918Y6437
X12016Y8578
X14700Y21585
X30900Y9505
X27820Y12425
X28700Y12425
X14700Y22185
X24300Y22185
X24820Y21665
X29820Y20825
X30660Y21145
X33500Y9265
X27460Y9865
X27460Y8665
X32220Y9505
X26060Y9465
X26780Y11105
X26300Y12225
X26140Y13505
X26780Y14945
X29260Y13905
X32420Y10665
X26700Y2145
X24340Y11065
X26940Y10785
X24140Y7305
X27620Y6385
X25744Y8523
X22740Y16585
X22660Y20665
X16380Y17545
X19860Y20305
X26500Y20345
X23460Y13385
X15420Y14545
X21060Y9945
X21660Y10745
X18229Y14668
X3100Y4695
X4740Y6385
X5820Y10025
X5617Y6589
X8060Y8785
X7420Y3905
X5500Y15734
X12934Y10707
X16820Y5385
X17700Y1665
X16020Y4425
X19860Y4705
X19500Y5705
X13220Y13945
X13857Y11218
X14100Y9185
X14980Y6545
X17940Y6545
X17060Y7065
X30510Y1215
X30500Y505
X19740Y7625
X5140Y18025
X5740Y18025
X24580Y14945
X22980Y16905
X17930Y16745
X5860Y18785
X5220Y18785
X28380Y7025
X29500Y5061
X29500Y4125
X18820Y905
X24300Y4905
X23711Y4449
X22780Y4585
X20740Y5185
X19100Y12465
X15860Y1945
X25180Y12065
X23660Y12865
X18620Y16465
X1340Y3865
X14180Y6585
X14980Y7385
X23900Y8385
X22240Y7665
X22180Y7105
X20400Y2865
X22260Y8665
X16180Y7665
X21780Y8785
X16540Y9145
X21420Y8745
X18180Y8745
X14980Y9425
X17360Y10145
X18740Y10505
X14980Y6985
X18150Y11465
X13740Y10625
X13300Y7105
X8220Y13305
X9140Y17105
X7820Y17105
X14770Y5585
X8300Y13745
X20220Y11385
X15535Y12072
X12406Y11154
X11780Y10665
X11220Y10665
X9094Y9951
X7260Y9945
X5220Y13905
X14420Y3825
X23980Y8825
X24780Y8025
X28380Y8545
X30660Y9985
X31260Y20185
X18220Y18105
X12780Y16945
X8220Y16305
X14420Y1745
X4910Y9065
X7260Y13505
X8220Y14465
X16260Y8945
X18180Y9105
X15860Y8225
X18860Y8795
X13740Y9545
X7580Y11185
X13780Y8225
X8820Y10185
X24490Y6485
X17700Y4745
X5890Y15516
X5740Y11985
X6180Y9305
X16100Y3545
X25020Y6305
X17660Y2995
X8340Y17625
X20870Y11365
X24980Y9905
X18500Y5305
X19020Y4019
X19020Y3305
X21260Y10705
X18180Y9585
X9100Y12305
X11300Y12225
X10300Y10105
X11540Y3745
X13700Y2225
X12740Y6945
X11180Y5385
X11660Y7065
X10860Y7705
X29180Y10105
X30260Y9385
X33100Y18345
X29820Y21545
X23740Y19865
X9140Y15745
X8780Y15385
X9580Y4605
X23500Y18505
X22180Y13025
X16700Y11225
X13540Y8985
X29420Y9625
X28460Y11745
X16180Y14385
X14420Y12385
X13290Y10647
X13383Y11331
X28060Y9945
X26180Y12945
X22660Y14865
X14340Y7505
X29180Y8825
X28620Y10905
X27480Y10755
X26180Y12585
X24340Y15185
X23940Y15585
X21700Y15545
X18180Y15585
X16180Y13785
X14700Y11625
X14487Y10356
X13060Y9585
X12500Y8665
X11060Y10105
X24660Y10425
X16540Y7665
X16020Y7145
X10780Y5785
X12820Y12905
X11140Y14585
X7816Y5498
X12221Y10335
X11516Y10070
X12265Y8361
X12062Y7522
X10113Y7701
X7892Y3820
X4020Y9705
X3100Y2265
X2069Y12723
X2344Y10208
X4079Y4017
X3900Y5025
X3857Y10500
X2380Y6745
X1832Y7815
X8285Y5195
X5100Y5625
X5080Y8495
X3940Y3505
X2620Y4785
X32260Y18985
X18460Y18705
X9860Y12025
X9860Y10385
X3340Y16585
X3340Y15385
X5260Y17385
X5740Y17385
X3580Y16305
X8740Y16065
X4760Y16025
X9700Y14825
X9420Y13705
X6780Y14825
X7500Y14875
X1900Y17385
X9380Y17345
X25860Y5465
X26860Y6785
X18900Y1665
X27340Y2145
X28447Y4658
X33100Y18705
X28580Y20545
X28380Y7945
X29980Y16305
X27940Y16305
X27870Y8305
X28180Y14185
X28860Y14185
X30300Y15625
X27980Y18265
X26627Y13581
X27850Y15245
X27500Y15665
X26380Y13825
X33580Y4545
X29340Y7825
X29500Y7305
X23620Y9585
X22540Y3385
X22460Y2745
X24020Y2865
X25620Y4809
X24751Y1911
X24300Y5265
X15420Y15345
X16140Y4025
X17140Y7465
X19460Y2865
X20740Y6185
X13700Y15065
X13700Y14305
X14420Y12025
X15660Y9905
X15540Y15865
X18740Y14185
X17180Y14225
X24900Y9025
X25984Y8261
X16020Y4785
X32580Y5145
X28140Y1545
X27660Y1545
X26373Y2622
X28147Y7312
X25740Y2385
X22460Y2385
X22180Y3025
X22020Y3905
X20980Y4945
X24420Y9305
X25100Y7225
X23740Y6545
X22020Y4825
X25940Y6545
X22020Y4265
X27066Y2356
X21900Y2585
X25340Y10825
X27900Y7065
X32100Y5185
X28140Y1905
X12780Y20985
X15780Y20065
X11220Y19825
X17660Y20825
X13350Y19755
X17660Y19525
X17980Y20245
X12030Y18245
X16380Y18705
X15580Y21855
X5560Y21145
X16530Y20715
X24100Y10585
X26300Y15385
X25860Y15985
X27380Y17705
X22900Y13065
X22994Y16344
X24050Y16495
X24820Y17265
X21940Y11225
X21940Y12065
X21940Y12785
X23740Y19505
X23180Y12585
X27688Y16553
X28220Y10615
X29020Y16785
X27060Y17545
X25740Y18105
X25580Y20185
X21260Y19545
X21980Y19545
X23740Y5585
X24700Y3785
X25780Y3785
X27660Y4545
T03
X14000Y19705
T04
X16264Y19705
X16736Y19705
T05
X22614Y11671
X25034Y14091
T06
X32370Y10172
X32370Y8794
X9409Y21105
X10591Y21105
T07
X1917Y10796
X1917Y9614
X23500Y3205
X24500Y3205
X25500Y3205
T08
X21062Y17583
X21062Y14827
X21862Y21183
X21862Y18427
X20212Y21183
X20212Y18427
X22000Y1205
X23000Y1205
X24000Y1205
X25000Y1205
X26000Y1205
X27000Y1205
T09
X15300Y1205
X16300Y1205
X17300Y1205
X18300Y1205
X19300Y1205
X20300Y1205
T10
X1500Y19205
T11
X7650Y1655
X1500Y21205
X33500Y21205
X33500Y1705
M30
