G75*
%MOIN*%
%OFA0B0*%
%FSLAX24Y24*%
%IPPOS*%
%LPD*%
%AMOC8*
5,1,8,0,0,1.08239X$1,22.5*
%
%ADD10C,0.0000*%
D10*
X001624Y000205D02*
X033178Y000205D01*
X033249Y000207D01*
X033320Y000213D01*
X033391Y000222D01*
X033460Y000236D01*
X033530Y000253D01*
X033598Y000274D01*
X033664Y000298D01*
X033730Y000326D01*
X033793Y000358D01*
X033855Y000393D01*
X033915Y000431D01*
X033973Y000473D01*
X034029Y000518D01*
X034082Y000565D01*
X034132Y000615D01*
X034179Y000668D01*
X034224Y000724D01*
X034266Y000782D01*
X034304Y000842D01*
X034339Y000904D01*
X034371Y000967D01*
X034399Y001033D01*
X034423Y001099D01*
X034444Y001167D01*
X034461Y001237D01*
X034475Y001306D01*
X034484Y001377D01*
X034490Y001448D01*
X034492Y001519D01*
X034492Y021156D01*
X032900Y021205D02*
X032902Y021254D01*
X032908Y021302D01*
X032918Y021350D01*
X032932Y021397D01*
X032949Y021443D01*
X032970Y021487D01*
X032995Y021529D01*
X033023Y021569D01*
X033055Y021607D01*
X033089Y021642D01*
X033126Y021674D01*
X033165Y021703D01*
X033207Y021729D01*
X033251Y021751D01*
X033296Y021769D01*
X033343Y021784D01*
X033390Y021795D01*
X033439Y021802D01*
X033488Y021805D01*
X033537Y021804D01*
X033585Y021799D01*
X033634Y021790D01*
X033681Y021777D01*
X033727Y021760D01*
X033771Y021740D01*
X033814Y021716D01*
X033855Y021689D01*
X033893Y021658D01*
X033929Y021625D01*
X033961Y021589D01*
X033991Y021550D01*
X034018Y021509D01*
X034041Y021465D01*
X034060Y021420D01*
X034076Y021374D01*
X034088Y021327D01*
X034096Y021278D01*
X034100Y021229D01*
X034100Y021181D01*
X034096Y021132D01*
X034088Y021083D01*
X034076Y021036D01*
X034060Y020990D01*
X034041Y020945D01*
X034018Y020901D01*
X033991Y020860D01*
X033961Y020821D01*
X033929Y020785D01*
X033893Y020752D01*
X033855Y020721D01*
X033814Y020694D01*
X033771Y020670D01*
X033727Y020650D01*
X033681Y020633D01*
X033634Y020620D01*
X033585Y020611D01*
X033537Y020606D01*
X033488Y020605D01*
X033439Y020608D01*
X033390Y020615D01*
X033343Y020626D01*
X033296Y020641D01*
X033251Y020659D01*
X033207Y020681D01*
X033165Y020707D01*
X033126Y020736D01*
X033089Y020768D01*
X033055Y020803D01*
X033023Y020841D01*
X032995Y020881D01*
X032970Y020923D01*
X032949Y020967D01*
X032932Y021013D01*
X032918Y021060D01*
X032908Y021108D01*
X032902Y021156D01*
X032900Y021205D01*
X033073Y022575D02*
X033147Y022573D01*
X033221Y022567D01*
X033295Y022558D01*
X033368Y022544D01*
X033440Y022527D01*
X033511Y022506D01*
X033582Y022481D01*
X033650Y022452D01*
X033717Y022420D01*
X033783Y022385D01*
X033846Y022346D01*
X033907Y022304D01*
X033966Y022259D01*
X034022Y022211D01*
X034076Y022159D01*
X034128Y022105D01*
X034176Y022049D01*
X034221Y021990D01*
X034263Y021929D01*
X034302Y021866D01*
X034337Y021800D01*
X034369Y021733D01*
X034398Y021665D01*
X034423Y021594D01*
X034444Y021523D01*
X034461Y021451D01*
X034475Y021378D01*
X034484Y021304D01*
X034490Y021230D01*
X034492Y021156D01*
X033073Y022575D02*
X001617Y022575D01*
X001552Y022573D01*
X001487Y022567D01*
X001423Y022558D01*
X001359Y022545D01*
X001297Y022528D01*
X001235Y022508D01*
X001175Y022484D01*
X001116Y022456D01*
X001059Y022425D01*
X001003Y022391D01*
X000950Y022354D01*
X000899Y022314D01*
X000850Y022270D01*
X000805Y022225D01*
X000761Y022176D01*
X000721Y022125D01*
X000684Y022072D01*
X000650Y022017D01*
X000619Y021959D01*
X000591Y021900D01*
X000567Y021840D01*
X000547Y021778D01*
X000530Y021716D01*
X000517Y021652D01*
X000508Y021588D01*
X000502Y021523D01*
X000500Y021458D01*
X000500Y001329D01*
X000502Y001264D01*
X000508Y001199D01*
X000517Y001134D01*
X000530Y001070D01*
X000547Y001007D01*
X000568Y000945D01*
X000592Y000884D01*
X000620Y000825D01*
X000651Y000767D01*
X000685Y000711D01*
X000722Y000658D01*
X000763Y000607D01*
X000806Y000558D01*
X000853Y000511D01*
X000902Y000468D01*
X000953Y000427D01*
X001006Y000390D01*
X001062Y000356D01*
X001120Y000325D01*
X001179Y000297D01*
X001240Y000273D01*
X001302Y000252D01*
X001365Y000235D01*
X001429Y000222D01*
X001494Y000213D01*
X001559Y000207D01*
X001624Y000205D01*
X007050Y001655D02*
X007052Y001704D01*
X007058Y001752D01*
X007068Y001800D01*
X007082Y001847D01*
X007099Y001893D01*
X007120Y001937D01*
X007145Y001979D01*
X007173Y002019D01*
X007205Y002057D01*
X007239Y002092D01*
X007276Y002124D01*
X007315Y002153D01*
X007357Y002179D01*
X007401Y002201D01*
X007446Y002219D01*
X007493Y002234D01*
X007540Y002245D01*
X007589Y002252D01*
X007638Y002255D01*
X007687Y002254D01*
X007735Y002249D01*
X007784Y002240D01*
X007831Y002227D01*
X007877Y002210D01*
X007921Y002190D01*
X007964Y002166D01*
X008005Y002139D01*
X008043Y002108D01*
X008079Y002075D01*
X008111Y002039D01*
X008141Y002000D01*
X008168Y001959D01*
X008191Y001915D01*
X008210Y001870D01*
X008226Y001824D01*
X008238Y001777D01*
X008246Y001728D01*
X008250Y001679D01*
X008250Y001631D01*
X008246Y001582D01*
X008238Y001533D01*
X008226Y001486D01*
X008210Y001440D01*
X008191Y001395D01*
X008168Y001351D01*
X008141Y001310D01*
X008111Y001271D01*
X008079Y001235D01*
X008043Y001202D01*
X008005Y001171D01*
X007964Y001144D01*
X007921Y001120D01*
X007877Y001100D01*
X007831Y001083D01*
X007784Y001070D01*
X007735Y001061D01*
X007687Y001056D01*
X007638Y001055D01*
X007589Y001058D01*
X007540Y001065D01*
X007493Y001076D01*
X007446Y001091D01*
X007401Y001109D01*
X007357Y001131D01*
X007315Y001157D01*
X007276Y001186D01*
X007239Y001218D01*
X007205Y001253D01*
X007173Y001291D01*
X007145Y001331D01*
X007120Y001373D01*
X007099Y001417D01*
X007082Y001463D01*
X007068Y001510D01*
X007058Y001558D01*
X007052Y001606D01*
X007050Y001655D01*
X001720Y009614D02*
X001722Y009641D01*
X001728Y009668D01*
X001737Y009694D01*
X001750Y009718D01*
X001766Y009741D01*
X001785Y009760D01*
X001807Y009777D01*
X001831Y009791D01*
X001856Y009801D01*
X001883Y009808D01*
X001910Y009811D01*
X001938Y009810D01*
X001965Y009805D01*
X001991Y009797D01*
X002015Y009785D01*
X002038Y009769D01*
X002059Y009751D01*
X002076Y009730D01*
X002091Y009706D01*
X002102Y009681D01*
X002110Y009655D01*
X002114Y009628D01*
X002114Y009600D01*
X002110Y009573D01*
X002102Y009547D01*
X002091Y009522D01*
X002076Y009498D01*
X002059Y009477D01*
X002038Y009459D01*
X002016Y009443D01*
X001991Y009431D01*
X001965Y009423D01*
X001938Y009418D01*
X001910Y009417D01*
X001883Y009420D01*
X001856Y009427D01*
X001831Y009437D01*
X001807Y009451D01*
X001785Y009468D01*
X001766Y009487D01*
X001750Y009510D01*
X001737Y009534D01*
X001728Y009560D01*
X001722Y009587D01*
X001720Y009614D01*
X001720Y010796D02*
X001722Y010823D01*
X001728Y010850D01*
X001737Y010876D01*
X001750Y010900D01*
X001766Y010923D01*
X001785Y010942D01*
X001807Y010959D01*
X001831Y010973D01*
X001856Y010983D01*
X001883Y010990D01*
X001910Y010993D01*
X001938Y010992D01*
X001965Y010987D01*
X001991Y010979D01*
X002015Y010967D01*
X002038Y010951D01*
X002059Y010933D01*
X002076Y010912D01*
X002091Y010888D01*
X002102Y010863D01*
X002110Y010837D01*
X002114Y010810D01*
X002114Y010782D01*
X002110Y010755D01*
X002102Y010729D01*
X002091Y010704D01*
X002076Y010680D01*
X002059Y010659D01*
X002038Y010641D01*
X002016Y010625D01*
X001991Y010613D01*
X001965Y010605D01*
X001938Y010600D01*
X001910Y010599D01*
X001883Y010602D01*
X001856Y010609D01*
X001831Y010619D01*
X001807Y010633D01*
X001785Y010650D01*
X001766Y010669D01*
X001750Y010692D01*
X001737Y010716D01*
X001728Y010742D01*
X001722Y010769D01*
X001720Y010796D01*
X000900Y021205D02*
X000902Y021254D01*
X000908Y021302D01*
X000918Y021350D01*
X000932Y021397D01*
X000949Y021443D01*
X000970Y021487D01*
X000995Y021529D01*
X001023Y021569D01*
X001055Y021607D01*
X001089Y021642D01*
X001126Y021674D01*
X001165Y021703D01*
X001207Y021729D01*
X001251Y021751D01*
X001296Y021769D01*
X001343Y021784D01*
X001390Y021795D01*
X001439Y021802D01*
X001488Y021805D01*
X001537Y021804D01*
X001585Y021799D01*
X001634Y021790D01*
X001681Y021777D01*
X001727Y021760D01*
X001771Y021740D01*
X001814Y021716D01*
X001855Y021689D01*
X001893Y021658D01*
X001929Y021625D01*
X001961Y021589D01*
X001991Y021550D01*
X002018Y021509D01*
X002041Y021465D01*
X002060Y021420D01*
X002076Y021374D01*
X002088Y021327D01*
X002096Y021278D01*
X002100Y021229D01*
X002100Y021181D01*
X002096Y021132D01*
X002088Y021083D01*
X002076Y021036D01*
X002060Y020990D01*
X002041Y020945D01*
X002018Y020901D01*
X001991Y020860D01*
X001961Y020821D01*
X001929Y020785D01*
X001893Y020752D01*
X001855Y020721D01*
X001814Y020694D01*
X001771Y020670D01*
X001727Y020650D01*
X001681Y020633D01*
X001634Y020620D01*
X001585Y020611D01*
X001537Y020606D01*
X001488Y020605D01*
X001439Y020608D01*
X001390Y020615D01*
X001343Y020626D01*
X001296Y020641D01*
X001251Y020659D01*
X001207Y020681D01*
X001165Y020707D01*
X001126Y020736D01*
X001089Y020768D01*
X001055Y020803D01*
X001023Y020841D01*
X000995Y020881D01*
X000970Y020923D01*
X000949Y020967D01*
X000932Y021013D01*
X000918Y021060D01*
X000908Y021108D01*
X000902Y021156D01*
X000900Y021205D01*
X009232Y021105D02*
X009234Y021131D01*
X009240Y021157D01*
X009250Y021182D01*
X009263Y021205D01*
X009279Y021225D01*
X009299Y021243D01*
X009321Y021258D01*
X009344Y021270D01*
X009370Y021278D01*
X009396Y021282D01*
X009422Y021282D01*
X009448Y021278D01*
X009474Y021270D01*
X009498Y021258D01*
X009519Y021243D01*
X009539Y021225D01*
X009555Y021205D01*
X009568Y021182D01*
X009578Y021157D01*
X009584Y021131D01*
X009586Y021105D01*
X009584Y021079D01*
X009578Y021053D01*
X009568Y021028D01*
X009555Y021005D01*
X009539Y020985D01*
X009519Y020967D01*
X009497Y020952D01*
X009474Y020940D01*
X009448Y020932D01*
X009422Y020928D01*
X009396Y020928D01*
X009370Y020932D01*
X009344Y020940D01*
X009320Y020952D01*
X009299Y020967D01*
X009279Y020985D01*
X009263Y021005D01*
X009250Y021028D01*
X009240Y021053D01*
X009234Y021079D01*
X009232Y021105D01*
X010414Y021105D02*
X010416Y021131D01*
X010422Y021157D01*
X010432Y021182D01*
X010445Y021205D01*
X010461Y021225D01*
X010481Y021243D01*
X010503Y021258D01*
X010526Y021270D01*
X010552Y021278D01*
X010578Y021282D01*
X010604Y021282D01*
X010630Y021278D01*
X010656Y021270D01*
X010680Y021258D01*
X010701Y021243D01*
X010721Y021225D01*
X010737Y021205D01*
X010750Y021182D01*
X010760Y021157D01*
X010766Y021131D01*
X010768Y021105D01*
X010766Y021079D01*
X010760Y021053D01*
X010750Y021028D01*
X010737Y021005D01*
X010721Y020985D01*
X010701Y020967D01*
X010679Y020952D01*
X010656Y020940D01*
X010630Y020932D01*
X010604Y020928D01*
X010578Y020928D01*
X010552Y020932D01*
X010526Y020940D01*
X010502Y020952D01*
X010481Y020967D01*
X010461Y020985D01*
X010445Y021005D01*
X010432Y021028D01*
X010422Y021053D01*
X010416Y021079D01*
X010414Y021105D01*
X024877Y014091D02*
X024879Y014116D01*
X024885Y014140D01*
X024894Y014162D01*
X024907Y014183D01*
X024923Y014202D01*
X024942Y014218D01*
X024963Y014231D01*
X024985Y014240D01*
X025009Y014246D01*
X025034Y014248D01*
X025059Y014246D01*
X025083Y014240D01*
X025105Y014231D01*
X025126Y014218D01*
X025145Y014202D01*
X025161Y014183D01*
X025174Y014162D01*
X025183Y014140D01*
X025189Y014116D01*
X025191Y014091D01*
X025189Y014066D01*
X025183Y014042D01*
X025174Y014020D01*
X025161Y013999D01*
X025145Y013980D01*
X025126Y013964D01*
X025105Y013951D01*
X025083Y013942D01*
X025059Y013936D01*
X025034Y013934D01*
X025009Y013936D01*
X024985Y013942D01*
X024963Y013951D01*
X024942Y013964D01*
X024923Y013980D01*
X024907Y013999D01*
X024894Y014020D01*
X024885Y014042D01*
X024879Y014066D01*
X024877Y014091D01*
X022457Y011671D02*
X022459Y011696D01*
X022465Y011720D01*
X022474Y011742D01*
X022487Y011763D01*
X022503Y011782D01*
X022522Y011798D01*
X022543Y011811D01*
X022565Y011820D01*
X022589Y011826D01*
X022614Y011828D01*
X022639Y011826D01*
X022663Y011820D01*
X022685Y011811D01*
X022706Y011798D01*
X022725Y011782D01*
X022741Y011763D01*
X022754Y011742D01*
X022763Y011720D01*
X022769Y011696D01*
X022771Y011671D01*
X022769Y011646D01*
X022763Y011622D01*
X022754Y011600D01*
X022741Y011579D01*
X022725Y011560D01*
X022706Y011544D01*
X022685Y011531D01*
X022663Y011522D01*
X022639Y011516D01*
X022614Y011514D01*
X022589Y011516D01*
X022565Y011522D01*
X022543Y011531D01*
X022522Y011544D01*
X022503Y011560D01*
X022487Y011579D01*
X022474Y011600D01*
X022465Y011622D01*
X022459Y011646D01*
X022457Y011671D01*
X032193Y010172D02*
X032195Y010198D01*
X032201Y010224D01*
X032211Y010249D01*
X032224Y010272D01*
X032240Y010292D01*
X032260Y010310D01*
X032282Y010325D01*
X032305Y010337D01*
X032331Y010345D01*
X032357Y010349D01*
X032383Y010349D01*
X032409Y010345D01*
X032435Y010337D01*
X032459Y010325D01*
X032480Y010310D01*
X032500Y010292D01*
X032516Y010272D01*
X032529Y010249D01*
X032539Y010224D01*
X032545Y010198D01*
X032547Y010172D01*
X032545Y010146D01*
X032539Y010120D01*
X032529Y010095D01*
X032516Y010072D01*
X032500Y010052D01*
X032480Y010034D01*
X032458Y010019D01*
X032435Y010007D01*
X032409Y009999D01*
X032383Y009995D01*
X032357Y009995D01*
X032331Y009999D01*
X032305Y010007D01*
X032281Y010019D01*
X032260Y010034D01*
X032240Y010052D01*
X032224Y010072D01*
X032211Y010095D01*
X032201Y010120D01*
X032195Y010146D01*
X032193Y010172D01*
X032193Y008794D02*
X032195Y008820D01*
X032201Y008846D01*
X032211Y008871D01*
X032224Y008894D01*
X032240Y008914D01*
X032260Y008932D01*
X032282Y008947D01*
X032305Y008959D01*
X032331Y008967D01*
X032357Y008971D01*
X032383Y008971D01*
X032409Y008967D01*
X032435Y008959D01*
X032459Y008947D01*
X032480Y008932D01*
X032500Y008914D01*
X032516Y008894D01*
X032529Y008871D01*
X032539Y008846D01*
X032545Y008820D01*
X032547Y008794D01*
X032545Y008768D01*
X032539Y008742D01*
X032529Y008717D01*
X032516Y008694D01*
X032500Y008674D01*
X032480Y008656D01*
X032458Y008641D01*
X032435Y008629D01*
X032409Y008621D01*
X032383Y008617D01*
X032357Y008617D01*
X032331Y008621D01*
X032305Y008629D01*
X032281Y008641D01*
X032260Y008656D01*
X032240Y008674D01*
X032224Y008694D01*
X032211Y008717D01*
X032201Y008742D01*
X032195Y008768D01*
X032193Y008794D01*
X032900Y001705D02*
X032902Y001754D01*
X032908Y001802D01*
X032918Y001850D01*
X032932Y001897D01*
X032949Y001943D01*
X032970Y001987D01*
X032995Y002029D01*
X033023Y002069D01*
X033055Y002107D01*
X033089Y002142D01*
X033126Y002174D01*
X033165Y002203D01*
X033207Y002229D01*
X033251Y002251D01*
X033296Y002269D01*
X033343Y002284D01*
X033390Y002295D01*
X033439Y002302D01*
X033488Y002305D01*
X033537Y002304D01*
X033585Y002299D01*
X033634Y002290D01*
X033681Y002277D01*
X033727Y002260D01*
X033771Y002240D01*
X033814Y002216D01*
X033855Y002189D01*
X033893Y002158D01*
X033929Y002125D01*
X033961Y002089D01*
X033991Y002050D01*
X034018Y002009D01*
X034041Y001965D01*
X034060Y001920D01*
X034076Y001874D01*
X034088Y001827D01*
X034096Y001778D01*
X034100Y001729D01*
X034100Y001681D01*
X034096Y001632D01*
X034088Y001583D01*
X034076Y001536D01*
X034060Y001490D01*
X034041Y001445D01*
X034018Y001401D01*
X033991Y001360D01*
X033961Y001321D01*
X033929Y001285D01*
X033893Y001252D01*
X033855Y001221D01*
X033814Y001194D01*
X033771Y001170D01*
X033727Y001150D01*
X033681Y001133D01*
X033634Y001120D01*
X033585Y001111D01*
X033537Y001106D01*
X033488Y001105D01*
X033439Y001108D01*
X033390Y001115D01*
X033343Y001126D01*
X033296Y001141D01*
X033251Y001159D01*
X033207Y001181D01*
X033165Y001207D01*
X033126Y001236D01*
X033089Y001268D01*
X033055Y001303D01*
X033023Y001341D01*
X032995Y001381D01*
X032970Y001423D01*
X032949Y001467D01*
X032932Y001513D01*
X032918Y001560D01*
X032908Y001608D01*
X032902Y001656D01*
X032900Y001705D01*
M02*
