G75*
%MOIN*%
%OFA0B0*%
%FSLAX25Y25*%
%IPPOS*%
%LPD*%
%AMOC8*
5,1,8,0,0,1.08239X$1,22.5*
%
%ADD10R,0.03150X0.04724*%
%ADD11C,0.06000*%
%ADD12R,0.16000X0.16000*%
%ADD13R,0.20000X0.20000*%
%ADD14OC8,0.06600*%
%ADD15C,0.01000*%
%ADD16C,0.01600*%
%ADD17R,0.07500X0.07500*%
D10*
X0038257Y0105582D03*
X0045343Y0105582D03*
D11*
X0056800Y0108582D02*
X0056800Y0102582D01*
X0066800Y0102582D02*
X0066800Y0108582D01*
X0076800Y0108582D02*
X0076800Y0102582D01*
X0086800Y0102582D02*
X0086800Y0108582D01*
X0096800Y0108582D02*
X0096800Y0102582D01*
X0106800Y0102582D02*
X0106800Y0108582D01*
D12*
X0066800Y0055582D03*
D13*
X0116800Y0055582D03*
X0016800Y0055582D03*
D14*
X0022050Y0038582D03*
X0022050Y0028582D03*
X0019300Y0075582D03*
X0019300Y0085582D03*
X0116800Y0085582D03*
X0116800Y0075582D03*
D15*
X0076800Y0098582D02*
X0074800Y0096582D01*
X0048300Y0096582D01*
X0045050Y0099832D01*
X0044800Y0099582D01*
X0032800Y0099582D01*
X0023800Y0090582D01*
X0023800Y0068332D01*
X0016800Y0061332D01*
X0016800Y0055582D01*
X0045050Y0099832D02*
X0045050Y0105289D01*
X0045343Y0105582D01*
X0076800Y0105582D02*
X0076800Y0098582D01*
D16*
X0099727Y0022683D02*
X0023409Y0022683D01*
X0099727Y0022683D01*
X0102224Y0023591D02*
X0096614Y0021549D01*
X0091129Y0020582D01*
X0029824Y0020582D01*
X0025920Y0021473D01*
X0021998Y0023362D01*
X0021847Y0023482D01*
X0022050Y0023482D01*
X0024162Y0023482D01*
X0027150Y0026470D01*
X0027150Y0028582D01*
X0022050Y0028582D01*
X0022050Y0023482D01*
X0022050Y0028582D01*
X0022050Y0028582D01*
X0022050Y0023482D01*
X0024162Y0023482D01*
X0027150Y0026470D01*
X0027150Y0028582D01*
X0022050Y0028582D01*
X0022050Y0028582D01*
X0022050Y0023482D01*
X0021847Y0023482D01*
X0021998Y0023362D01*
X0025920Y0021473D01*
X0030165Y0020505D01*
X0032342Y0020382D01*
X0087749Y0020382D01*
X0090734Y0020513D01*
X0096614Y0021549D01*
X0102224Y0023591D01*
X0107394Y0026577D01*
X0111968Y0030414D01*
X0115806Y0034988D01*
X0118791Y0040158D01*
X0120110Y0043782D01*
X0106054Y0043782D01*
X0105000Y0044837D01*
X0105000Y0066328D01*
X0106054Y0067382D01*
X0122000Y0067382D01*
X0122000Y0101417D01*
X0121921Y0102629D01*
X0121293Y0104971D01*
X0120081Y0107070D01*
X0118367Y0108785D01*
X0116267Y0109997D01*
X0113926Y0110624D01*
X0112713Y0110704D01*
X0111117Y0110704D01*
X0111600Y0109537D01*
X0111600Y0101628D01*
X0110869Y0099863D01*
X0109519Y0098513D01*
X0107755Y0097782D01*
X0105845Y0097782D01*
X0104081Y0098513D01*
X0102731Y0099863D01*
X0102000Y0101628D01*
X0102000Y0109537D01*
X0102483Y0110704D01*
X0101117Y0110704D01*
X0101600Y0109537D01*
X0101600Y0101628D01*
X0100869Y0099863D01*
X0099519Y0098513D01*
X0097755Y0097782D01*
X0095845Y0097782D01*
X0094081Y0098513D01*
X0092731Y0099863D01*
X0092000Y0101628D01*
X0092000Y0109537D01*
X0092483Y0110704D01*
X0091117Y0110704D01*
X0091600Y0109537D01*
X0091600Y0101628D01*
X0090869Y0099863D01*
X0089519Y0098513D01*
X0087755Y0097782D01*
X0085845Y0097782D01*
X0084081Y0098513D01*
X0082731Y0099863D01*
X0082000Y0101628D01*
X0082000Y0109537D01*
X0082483Y0110704D01*
X0081117Y0110704D01*
X0081600Y0109537D01*
X0081600Y0101628D01*
X0080869Y0099863D01*
X0079519Y0098513D01*
X0079100Y0098340D01*
X0079100Y0097630D01*
X0077100Y0095630D01*
X0075753Y0094282D01*
X0047347Y0094282D01*
X0044347Y0097282D01*
X0033753Y0097282D01*
X0026100Y0089630D01*
X0026100Y0067382D01*
X0027546Y0067382D01*
X0028600Y0066328D01*
X0028600Y0044837D01*
X0027546Y0043782D01*
X0012899Y0043782D01*
X0012899Y0039825D01*
X0013021Y0037648D01*
X0013990Y0033404D01*
X0015879Y0029481D01*
X0016950Y0028138D01*
X0016950Y0028582D01*
X0022050Y0028582D01*
X0022050Y0028582D01*
X0022050Y0028582D01*
X0022050Y0028582D01*
X0016950Y0028582D01*
X0016950Y0028138D01*
X0015879Y0029481D01*
X0013990Y0033404D01*
X0013021Y0037648D01*
X0012899Y0039825D01*
X0012899Y0043782D01*
X0027546Y0043782D01*
X0028600Y0044837D01*
X0028600Y0066328D01*
X0027546Y0067382D01*
X0026100Y0067382D01*
X0026100Y0089630D01*
X0033753Y0097282D01*
X0044347Y0097282D01*
X0047347Y0094282D01*
X0075753Y0094282D01*
X0077100Y0095630D01*
X0079100Y0097630D01*
X0079100Y0098340D01*
X0079519Y0098513D01*
X0080869Y0099863D01*
X0081600Y0101628D01*
X0081600Y0109537D01*
X0081117Y0110704D01*
X0082483Y0110704D01*
X0082000Y0109537D01*
X0082000Y0101628D01*
X0082731Y0099863D01*
X0084081Y0098513D01*
X0085845Y0097782D01*
X0087755Y0097782D01*
X0089519Y0098513D01*
X0090869Y0099863D01*
X0091600Y0101628D01*
X0091600Y0109537D01*
X0091117Y0110704D01*
X0092483Y0110704D01*
X0092000Y0109537D01*
X0092000Y0101628D01*
X0092731Y0099863D01*
X0094081Y0098513D01*
X0095845Y0097782D01*
X0097755Y0097782D01*
X0099519Y0098513D01*
X0100869Y0099863D01*
X0101600Y0101628D01*
X0101600Y0109537D01*
X0101117Y0110704D01*
X0102483Y0110704D01*
X0102000Y0109537D01*
X0102000Y0101628D01*
X0102731Y0099863D01*
X0104081Y0098513D01*
X0105845Y0097782D01*
X0107755Y0097782D01*
X0109519Y0098513D01*
X0110869Y0099863D01*
X0111600Y0101628D01*
X0111600Y0109537D01*
X0111117Y0110704D01*
X0112713Y0110704D01*
X0113926Y0110624D01*
X0116267Y0109997D01*
X0118367Y0108785D01*
X0120081Y0107070D01*
X0121293Y0104971D01*
X0121921Y0102629D01*
X0122000Y0101417D01*
X0122000Y0067382D01*
X0106054Y0067382D01*
X0105000Y0066328D01*
X0105000Y0044837D01*
X0106054Y0043782D01*
X0120110Y0043782D01*
X0118791Y0040158D01*
X0115806Y0034988D01*
X0111968Y0030414D01*
X0107394Y0026577D01*
X0102224Y0023591D01*
X0103419Y0024281D02*
X0024961Y0024281D01*
X0103419Y0024281D01*
X0106187Y0025880D02*
X0026560Y0025880D01*
X0106187Y0025880D01*
X0108469Y0027478D02*
X0027150Y0027478D01*
X0108469Y0027478D01*
X0110374Y0029077D02*
X0027150Y0029077D01*
X0110374Y0029077D01*
X0112187Y0030675D02*
X0027150Y0030675D01*
X0112187Y0030675D01*
X0113528Y0032274D02*
X0025571Y0032274D01*
X0113528Y0032274D01*
X0114870Y0033872D02*
X0024552Y0033872D01*
X0114870Y0033872D01*
X0116084Y0035471D02*
X0026151Y0035471D01*
X0116084Y0035471D01*
X0117007Y0037069D02*
X0027150Y0037069D01*
X0117007Y0037069D01*
X0117930Y0038668D02*
X0027150Y0038668D01*
X0117930Y0038668D01*
X0118830Y0040266D02*
X0027150Y0040266D01*
X0118830Y0040266D01*
X0119412Y0041865D02*
X0025980Y0041865D01*
X0119412Y0041865D01*
X0119994Y0043463D02*
X0024382Y0043463D01*
X0119994Y0043463D01*
X0105000Y0045062D02*
X0028600Y0045062D01*
X0105000Y0045062D01*
X0105000Y0046660D02*
X0076346Y0046660D01*
X0105000Y0046660D01*
X0105000Y0048259D02*
X0076600Y0048259D01*
X0105000Y0048259D01*
X0105000Y0049857D02*
X0076600Y0049857D01*
X0105000Y0049857D01*
X0105000Y0051456D02*
X0076600Y0051456D01*
X0105000Y0051456D01*
X0105000Y0053054D02*
X0076600Y0053054D01*
X0105000Y0053054D01*
X0105000Y0054653D02*
X0076600Y0054653D01*
X0105000Y0054653D01*
X0105000Y0056251D02*
X0067600Y0056251D01*
X0105000Y0056251D01*
X0105000Y0057850D02*
X0076600Y0057850D01*
X0105000Y0057850D01*
X0105000Y0059448D02*
X0076600Y0059448D01*
X0105000Y0059448D01*
X0105000Y0061047D02*
X0076600Y0061047D01*
X0105000Y0061047D01*
X0105000Y0062645D02*
X0076600Y0062645D01*
X0105000Y0062645D01*
X0105000Y0064244D02*
X0076486Y0064244D01*
X0105000Y0064244D01*
X0105000Y0065842D02*
X0028600Y0065842D01*
X0105000Y0065842D01*
X0111700Y0073470D02*
X0114688Y0070482D01*
X0116800Y0070482D01*
X0118912Y0070482D01*
X0121900Y0073470D01*
X0121900Y0075582D01*
X0116800Y0075582D01*
X0116800Y0070482D01*
X0116800Y0075582D01*
X0116800Y0075582D01*
X0116800Y0070482D01*
X0118912Y0070482D01*
X0121900Y0073470D01*
X0121900Y0075582D01*
X0116800Y0075582D01*
X0116800Y0075582D01*
X0116800Y0070482D01*
X0114688Y0070482D01*
X0111700Y0073470D01*
X0111700Y0075582D01*
X0116800Y0075582D01*
X0116800Y0075582D01*
X0116800Y0075582D01*
X0116800Y0075582D01*
X0111700Y0075582D01*
X0111700Y0073470D01*
X0111700Y0073835D02*
X0026100Y0073835D01*
X0111700Y0073835D01*
X0112933Y0072237D02*
X0026100Y0072237D01*
X0112933Y0072237D01*
X0114532Y0070638D02*
X0026100Y0070638D01*
X0114532Y0070638D01*
X0116800Y0070638D02*
X0116800Y0070638D01*
X0116800Y0070638D01*
X0116800Y0072237D02*
X0116800Y0072237D01*
X0116800Y0072237D01*
X0116800Y0073835D02*
X0116800Y0073835D01*
X0116800Y0073835D01*
X0116800Y0075434D02*
X0116800Y0075434D01*
X0116800Y0075434D01*
X0116800Y0075582D02*
X0116800Y0075582D01*
X0111700Y0075582D01*
X0111700Y0077695D01*
X0114588Y0080582D01*
X0111700Y0083470D01*
X0111700Y0087695D01*
X0114688Y0090682D01*
X0118912Y0090682D01*
X0121900Y0087695D01*
X0121900Y0083470D01*
X0119012Y0080582D01*
X0121900Y0077695D01*
X0121900Y0075582D01*
X0116800Y0075582D01*
X0111700Y0075582D01*
X0111700Y0077695D01*
X0114588Y0080582D01*
X0111700Y0083470D01*
X0111700Y0087695D01*
X0114688Y0090682D01*
X0118912Y0090682D01*
X0121900Y0087695D01*
X0121900Y0083470D01*
X0119012Y0080582D01*
X0121900Y0077695D01*
X0121900Y0075582D01*
X0116800Y0075582D01*
X0120667Y0072237D02*
X0122000Y0072237D01*
X0120667Y0072237D01*
X0121900Y0073835D02*
X0122000Y0073835D01*
X0121900Y0073835D01*
X0121900Y0075434D02*
X0122000Y0075434D01*
X0121900Y0075434D01*
X0121900Y0077032D02*
X0122000Y0077032D01*
X0121900Y0077032D01*
X0122000Y0078631D02*
X0120964Y0078631D01*
X0122000Y0078631D01*
X0122000Y0080229D02*
X0119366Y0080229D01*
X0122000Y0080229D01*
X0122000Y0081828D02*
X0120258Y0081828D01*
X0122000Y0081828D01*
X0122000Y0083426D02*
X0121856Y0083426D01*
X0122000Y0083426D01*
X0122000Y0085025D02*
X0121900Y0085025D01*
X0122000Y0085025D01*
X0122000Y0086623D02*
X0121900Y0086623D01*
X0122000Y0086623D01*
X0122000Y0088222D02*
X0121373Y0088222D01*
X0122000Y0088222D01*
X0122000Y0089820D02*
X0119775Y0089820D01*
X0122000Y0089820D01*
X0122000Y0091419D02*
X0027889Y0091419D01*
X0122000Y0091419D01*
X0122000Y0093017D02*
X0029487Y0093017D01*
X0122000Y0093017D01*
X0122000Y0094616D02*
X0076086Y0094616D01*
X0122000Y0094616D01*
X0122000Y0096214D02*
X0077684Y0096214D01*
X0122000Y0096214D01*
X0122000Y0097813D02*
X0107828Y0097813D01*
X0122000Y0097813D01*
X0122000Y0099411D02*
X0110417Y0099411D01*
X0122000Y0099411D01*
X0122000Y0101010D02*
X0111344Y0101010D01*
X0122000Y0101010D01*
X0121922Y0102608D02*
X0111600Y0102608D01*
X0121922Y0102608D01*
X0121498Y0104207D02*
X0111600Y0104207D01*
X0121498Y0104207D01*
X0120811Y0105805D02*
X0111600Y0105805D01*
X0120811Y0105805D01*
X0119748Y0107404D02*
X0111600Y0107404D01*
X0119748Y0107404D01*
X0117990Y0109002D02*
X0111600Y0109002D01*
X0117990Y0109002D01*
X0114013Y0110601D02*
X0111159Y0110601D01*
X0114013Y0110601D01*
X0103183Y0099411D02*
X0100417Y0099411D01*
X0103183Y0099411D01*
X0102256Y0101010D02*
X0101344Y0101010D01*
X0102256Y0101010D01*
X0102000Y0102608D02*
X0101600Y0102608D01*
X0102000Y0102608D01*
X0102000Y0104207D02*
X0101600Y0104207D01*
X0102000Y0104207D01*
X0102000Y0105805D02*
X0101600Y0105805D01*
X0102000Y0105805D01*
X0102000Y0107404D02*
X0101600Y0107404D01*
X0102000Y0107404D01*
X0102000Y0109002D02*
X0101600Y0109002D01*
X0102000Y0109002D01*
X0102441Y0110601D02*
X0101159Y0110601D01*
X0102441Y0110601D01*
X0092441Y0110601D02*
X0091159Y0110601D01*
X0092441Y0110601D01*
X0092000Y0109002D02*
X0091600Y0109002D01*
X0092000Y0109002D01*
X0092000Y0107404D02*
X0091600Y0107404D01*
X0092000Y0107404D01*
X0092000Y0105805D02*
X0091600Y0105805D01*
X0092000Y0105805D01*
X0092000Y0104207D02*
X0091600Y0104207D01*
X0092000Y0104207D01*
X0092000Y0102608D02*
X0091600Y0102608D01*
X0092000Y0102608D01*
X0092256Y0101010D02*
X0091344Y0101010D01*
X0092256Y0101010D01*
X0093183Y0099411D02*
X0090417Y0099411D01*
X0093183Y0099411D01*
X0095772Y0097813D02*
X0087828Y0097813D01*
X0095772Y0097813D01*
X0097828Y0097813D02*
X0105772Y0097813D01*
X0097828Y0097813D01*
X0085772Y0097813D02*
X0079100Y0097813D01*
X0085772Y0097813D01*
X0083183Y0099411D02*
X0080417Y0099411D01*
X0083183Y0099411D01*
X0082256Y0101010D02*
X0081344Y0101010D01*
X0082256Y0101010D01*
X0082000Y0102608D02*
X0081600Y0102608D01*
X0082000Y0102608D01*
X0082000Y0104207D02*
X0081600Y0104207D01*
X0082000Y0104207D01*
X0082000Y0105805D02*
X0081600Y0105805D01*
X0082000Y0105805D01*
X0082000Y0107404D02*
X0081600Y0107404D01*
X0082000Y0107404D01*
X0082000Y0109002D02*
X0081600Y0109002D01*
X0082000Y0109002D01*
X0082441Y0110601D02*
X0081159Y0110601D01*
X0082441Y0110601D01*
X0063712Y0098882D02*
X0059874Y0098882D01*
X0059927Y0098921D01*
X0060461Y0099455D01*
X0060905Y0100067D01*
X0061248Y0100740D01*
X0061482Y0101458D01*
X0061600Y0102205D01*
X0061600Y0105382D01*
X0057000Y0105382D01*
X0057000Y0105782D01*
X0061600Y0105782D01*
X0061600Y0108960D01*
X0061482Y0109706D01*
X0061248Y0110425D01*
X0061106Y0110704D01*
X0062483Y0110704D01*
X0062000Y0109537D01*
X0062000Y0101628D01*
X0062731Y0099863D01*
X0063712Y0098882D01*
X0059874Y0098882D01*
X0059927Y0098921D01*
X0060461Y0099455D01*
X0060905Y0100067D01*
X0061248Y0100740D01*
X0061482Y0101458D01*
X0061600Y0102205D01*
X0061600Y0105382D01*
X0057000Y0105382D01*
X0057000Y0105782D01*
X0061600Y0105782D01*
X0061600Y0108960D01*
X0061482Y0109706D01*
X0061248Y0110425D01*
X0061106Y0110704D01*
X0062483Y0110704D01*
X0062000Y0109537D01*
X0062000Y0101628D01*
X0062731Y0099863D01*
X0063712Y0098882D01*
X0063183Y0099411D02*
X0060417Y0099411D01*
X0063183Y0099411D01*
X0062256Y0101010D02*
X0061336Y0101010D01*
X0062256Y0101010D01*
X0062000Y0102608D02*
X0061600Y0102608D01*
X0062000Y0102608D01*
X0062000Y0104207D02*
X0061600Y0104207D01*
X0062000Y0104207D01*
X0062000Y0105805D02*
X0061600Y0105805D01*
X0062000Y0105805D01*
X0062000Y0107404D02*
X0061600Y0107404D01*
X0062000Y0107404D01*
X0062000Y0109002D02*
X0061593Y0109002D01*
X0062000Y0109002D01*
X0062441Y0110601D02*
X0061159Y0110601D01*
X0062441Y0110601D01*
X0056600Y0105782D02*
X0056600Y0105382D01*
X0052000Y0105382D01*
X0052000Y0102205D01*
X0052118Y0101458D01*
X0052352Y0100740D01*
X0052695Y0100067D01*
X0053139Y0099455D01*
X0053673Y0098921D01*
X0053726Y0098882D01*
X0049253Y0098882D01*
X0047350Y0100785D01*
X0047350Y0101420D01*
X0047664Y0101420D01*
X0048718Y0102475D01*
X0048718Y0108690D01*
X0047664Y0109745D01*
X0043023Y0109745D01*
X0041969Y0108690D01*
X0041969Y0102475D01*
X0042561Y0101882D01*
X0041039Y0101882D01*
X0041272Y0102115D01*
X0041509Y0102525D01*
X0041631Y0102983D01*
X0041631Y0105582D01*
X0038257Y0105582D01*
X0038257Y0105582D01*
X0038257Y0105582D01*
X0041631Y0105582D01*
X0041631Y0102983D01*
X0041509Y0102525D01*
X0041272Y0102115D01*
X0041039Y0101882D01*
X0042561Y0101882D01*
X0041969Y0102475D01*
X0041969Y0108690D01*
X0043023Y0109745D01*
X0047664Y0109745D01*
X0048718Y0108690D01*
X0048718Y0102475D01*
X0047664Y0101420D01*
X0047350Y0101420D01*
X0047350Y0100785D01*
X0049253Y0098882D01*
X0053726Y0098882D01*
X0053673Y0098921D01*
X0053139Y0099455D01*
X0052695Y0100067D01*
X0052352Y0100740D01*
X0052118Y0101458D01*
X0052000Y0102205D01*
X0052000Y0105382D01*
X0056600Y0105382D01*
X0056600Y0105782D01*
X0052000Y0105782D01*
X0052000Y0108960D01*
X0052118Y0109706D01*
X0052352Y0110425D01*
X0052494Y0110704D01*
X0039260Y0110704D01*
X0036676Y0110577D01*
X0031608Y0109569D01*
X0026834Y0107591D01*
X0022537Y0104720D01*
X0018883Y0101066D01*
X0016012Y0096769D01*
X0014034Y0091995D01*
X0013026Y0086927D01*
X0012899Y0084343D01*
X0012899Y0067382D01*
X0019597Y0067382D01*
X0021500Y0069285D01*
X0021500Y0070570D01*
X0021412Y0070482D01*
X0017188Y0070482D01*
X0014200Y0073470D01*
X0014200Y0077695D01*
X0017088Y0080582D01*
X0014200Y0083470D01*
X0014200Y0085582D01*
X0019300Y0085582D01*
X0019300Y0085582D01*
X0014200Y0085582D01*
X0014200Y0083470D01*
X0017088Y0080582D01*
X0014200Y0077695D01*
X0014200Y0073470D01*
X0017188Y0070482D01*
X0021412Y0070482D01*
X0021500Y0070570D01*
X0021500Y0069285D01*
X0019597Y0067382D01*
X0012899Y0067382D01*
X0012899Y0084343D01*
X0013026Y0086927D01*
X0014034Y0091995D01*
X0016012Y0096769D01*
X0018883Y0101066D01*
X0022537Y0104720D01*
X0026834Y0107591D01*
X0031608Y0109569D01*
X0036676Y0110577D01*
X0039260Y0110704D01*
X0052494Y0110704D01*
X0052352Y0110425D01*
X0052118Y0109706D01*
X0052000Y0108960D01*
X0052000Y0105782D01*
X0056600Y0105782D01*
X0052441Y0110601D02*
X0037166Y0110601D01*
X0052441Y0110601D01*
X0052007Y0109002D02*
X0048406Y0109002D01*
X0052007Y0109002D01*
X0052000Y0107404D02*
X0048718Y0107404D01*
X0052000Y0107404D01*
X0052000Y0105805D02*
X0048718Y0105805D01*
X0052000Y0105805D01*
X0052000Y0104207D02*
X0048718Y0104207D01*
X0052000Y0104207D01*
X0052000Y0102608D02*
X0048718Y0102608D01*
X0052000Y0102608D01*
X0052264Y0101010D02*
X0047350Y0101010D01*
X0052264Y0101010D01*
X0053183Y0099411D02*
X0048724Y0099411D01*
X0053183Y0099411D01*
X0047014Y0094616D02*
X0031086Y0094616D01*
X0047014Y0094616D01*
X0045416Y0096214D02*
X0032684Y0096214D01*
X0045416Y0096214D01*
X0041969Y0102608D02*
X0041531Y0102608D01*
X0041969Y0102608D01*
X0041969Y0104207D02*
X0041631Y0104207D01*
X0041969Y0104207D01*
X0041631Y0105582D02*
X0041631Y0108182D01*
X0041509Y0108639D01*
X0041272Y0109050D01*
X0040937Y0109385D01*
X0040526Y0109622D01*
X0040068Y0109745D01*
X0038257Y0109745D01*
X0038257Y0105583D01*
X0038257Y0105583D01*
X0038257Y0105583D01*
X0038257Y0109745D01*
X0040068Y0109745D01*
X0040526Y0109622D01*
X0040937Y0109385D01*
X0041272Y0109050D01*
X0041509Y0108639D01*
X0041631Y0108182D01*
X0041631Y0105582D01*
X0038257Y0105582D01*
X0041631Y0105582D01*
X0041631Y0105805D02*
X0041969Y0105805D01*
X0041631Y0105805D01*
X0041631Y0107404D02*
X0041969Y0107404D01*
X0041631Y0107404D01*
X0041299Y0109002D02*
X0042281Y0109002D01*
X0041299Y0109002D01*
X0038257Y0109002D02*
X0038257Y0109002D01*
X0038257Y0109002D01*
X0038257Y0109745D02*
X0036445Y0109745D01*
X0035987Y0109622D01*
X0035577Y0109385D01*
X0035242Y0109050D01*
X0035005Y0108639D01*
X0034882Y0108182D01*
X0034882Y0105582D01*
X0034882Y0102983D01*
X0035005Y0102525D01*
X0035242Y0102115D01*
X0035474Y0101882D01*
X0031847Y0101882D01*
X0030500Y0100535D01*
X0021500Y0091535D01*
X0021500Y0090595D01*
X0021412Y0090682D01*
X0019300Y0090682D01*
X0017188Y0090682D01*
X0014200Y0087695D01*
X0014200Y0085582D01*
X0019300Y0085582D01*
X0019300Y0085582D01*
X0014200Y0085582D01*
X0014200Y0087695D01*
X0017188Y0090682D01*
X0019300Y0090682D01*
X0019300Y0085583D01*
X0019300Y0085583D01*
X0019300Y0090682D01*
X0019300Y0085583D01*
X0019300Y0085583D01*
X0019300Y0090682D01*
X0021412Y0090682D01*
X0021500Y0090595D01*
X0021500Y0091535D01*
X0030500Y0100535D01*
X0031847Y0101882D01*
X0035474Y0101882D01*
X0035242Y0102115D01*
X0035005Y0102525D01*
X0034882Y0102983D01*
X0034882Y0105582D01*
X0038257Y0105582D01*
X0038257Y0105582D01*
X0034882Y0105582D01*
X0038257Y0105582D01*
X0038257Y0105582D01*
X0034882Y0105582D01*
X0034882Y0108182D01*
X0035005Y0108639D01*
X0035242Y0109050D01*
X0035577Y0109385D01*
X0035987Y0109622D01*
X0036445Y0109745D01*
X0038257Y0109745D01*
X0038257Y0105583D01*
X0038257Y0109745D01*
X0038257Y0107404D02*
X0038257Y0107404D01*
X0038257Y0107404D01*
X0038257Y0105805D02*
X0038257Y0105805D01*
X0038257Y0105805D01*
X0034882Y0105805D02*
X0024161Y0105805D01*
X0034882Y0105805D01*
X0034882Y0107404D02*
X0026553Y0107404D01*
X0034882Y0107404D01*
X0035214Y0109002D02*
X0030241Y0109002D01*
X0035214Y0109002D01*
X0034882Y0104207D02*
X0022023Y0104207D01*
X0034882Y0104207D01*
X0034982Y0102608D02*
X0020425Y0102608D01*
X0034982Y0102608D01*
X0030975Y0101010D02*
X0018845Y0101010D01*
X0030975Y0101010D01*
X0029376Y0099411D02*
X0017777Y0099411D01*
X0029376Y0099411D01*
X0027778Y0097813D02*
X0016709Y0097813D01*
X0027778Y0097813D01*
X0026179Y0096214D02*
X0015782Y0096214D01*
X0026179Y0096214D01*
X0024581Y0094616D02*
X0015120Y0094616D01*
X0024581Y0094616D01*
X0022982Y0093017D02*
X0014458Y0093017D01*
X0022982Y0093017D01*
X0021500Y0091419D02*
X0013920Y0091419D01*
X0021500Y0091419D01*
X0019300Y0089820D02*
X0019300Y0089820D01*
X0019300Y0089820D01*
X0019300Y0088222D02*
X0019300Y0088222D01*
X0019300Y0088222D01*
X0019300Y0086623D02*
X0019300Y0086623D01*
X0019300Y0086623D01*
X0016325Y0089820D02*
X0013602Y0089820D01*
X0016325Y0089820D01*
X0014727Y0088222D02*
X0013284Y0088222D01*
X0014727Y0088222D01*
X0014200Y0086623D02*
X0013011Y0086623D01*
X0014200Y0086623D01*
X0014200Y0085025D02*
X0012933Y0085025D01*
X0014200Y0085025D01*
X0014244Y0083426D02*
X0012899Y0083426D01*
X0014244Y0083426D01*
X0012899Y0081828D02*
X0015842Y0081828D01*
X0012899Y0081828D01*
X0012899Y0080229D02*
X0016734Y0080229D01*
X0012899Y0080229D01*
X0012899Y0078631D02*
X0015136Y0078631D01*
X0012899Y0078631D01*
X0012899Y0077032D02*
X0014200Y0077032D01*
X0012899Y0077032D01*
X0012899Y0075434D02*
X0014200Y0075434D01*
X0012899Y0075434D01*
X0012899Y0073835D02*
X0014200Y0073835D01*
X0012899Y0073835D01*
X0012899Y0072237D02*
X0015433Y0072237D01*
X0012899Y0072237D01*
X0012899Y0070638D02*
X0017032Y0070638D01*
X0012899Y0070638D01*
X0012899Y0069039D02*
X0021254Y0069039D01*
X0012899Y0069039D01*
X0012899Y0067441D02*
X0019656Y0067441D01*
X0012899Y0067441D01*
X0026100Y0067441D02*
X0122000Y0067441D01*
X0026100Y0067441D01*
X0026100Y0069039D02*
X0122000Y0069039D01*
X0026100Y0069039D01*
X0028600Y0064244D02*
X0057114Y0064244D01*
X0028600Y0064244D01*
X0028600Y0062645D02*
X0057000Y0062645D01*
X0028600Y0062645D01*
X0028600Y0061047D02*
X0057000Y0061047D01*
X0028600Y0061047D01*
X0028600Y0059448D02*
X0057000Y0059448D01*
X0028600Y0059448D01*
X0028600Y0057850D02*
X0057000Y0057850D01*
X0028600Y0057850D01*
X0028600Y0056251D02*
X0066000Y0056251D01*
X0028600Y0056251D01*
X0028600Y0054653D02*
X0057000Y0054653D01*
X0028600Y0054653D01*
X0028600Y0053054D02*
X0057000Y0053054D01*
X0028600Y0053054D01*
X0028600Y0051456D02*
X0057000Y0051456D01*
X0028600Y0051456D01*
X0028600Y0049857D02*
X0057000Y0049857D01*
X0028600Y0049857D01*
X0028600Y0048259D02*
X0057000Y0048259D01*
X0028600Y0048259D01*
X0028600Y0046660D02*
X0057254Y0046660D01*
X0028600Y0046660D01*
X0024162Y0043682D02*
X0019938Y0043682D01*
X0016950Y0040695D01*
X0016950Y0036470D01*
X0019838Y0033582D01*
X0016950Y0030695D01*
X0016950Y0028582D01*
X0022050Y0028582D01*
X0022050Y0028582D01*
X0027150Y0028582D01*
X0027150Y0030695D01*
X0024262Y0033582D01*
X0027150Y0036470D01*
X0027150Y0040695D01*
X0024162Y0043682D01*
X0019938Y0043682D01*
X0016950Y0040695D01*
X0016950Y0036470D01*
X0019838Y0033582D01*
X0016950Y0030695D01*
X0016950Y0028582D01*
X0022050Y0028582D01*
X0027150Y0028582D01*
X0027150Y0030695D01*
X0024262Y0033582D01*
X0027150Y0036470D01*
X0027150Y0040695D01*
X0024162Y0043682D01*
X0019718Y0043463D02*
X0012899Y0043463D01*
X0019718Y0043463D01*
X0018120Y0041865D02*
X0012899Y0041865D01*
X0018120Y0041865D01*
X0016950Y0040266D02*
X0012899Y0040266D01*
X0016950Y0040266D01*
X0016950Y0038668D02*
X0012964Y0038668D01*
X0016950Y0038668D01*
X0016950Y0037069D02*
X0013154Y0037069D01*
X0016950Y0037069D01*
X0017949Y0035471D02*
X0013518Y0035471D01*
X0017949Y0035471D01*
X0019548Y0033872D02*
X0013883Y0033872D01*
X0019548Y0033872D01*
X0018529Y0032274D02*
X0014534Y0032274D01*
X0018529Y0032274D01*
X0016950Y0030675D02*
X0015304Y0030675D01*
X0016950Y0030675D01*
X0016950Y0029077D02*
X0016202Y0029077D01*
X0016950Y0029077D01*
X0022050Y0027478D02*
X0022050Y0027478D01*
X0022050Y0027478D01*
X0022050Y0025880D02*
X0022050Y0025880D01*
X0022050Y0025880D01*
X0022050Y0024281D02*
X0022050Y0024281D01*
X0022050Y0024281D01*
X0027626Y0021084D02*
X0093975Y0021084D01*
X0027626Y0021084D01*
X0057360Y0046477D02*
X0057695Y0046142D01*
X0058105Y0045905D01*
X0058563Y0045782D01*
X0066000Y0045782D01*
X0066000Y0054782D01*
X0067600Y0054782D01*
X0067600Y0045782D01*
X0075037Y0045782D01*
X0075495Y0045905D01*
X0075905Y0046142D01*
X0076240Y0046477D01*
X0076477Y0046888D01*
X0076600Y0047345D01*
X0076600Y0054782D01*
X0067600Y0054782D01*
X0067600Y0045782D01*
X0075037Y0045782D01*
X0075495Y0045905D01*
X0075905Y0046142D01*
X0076240Y0046477D01*
X0076477Y0046888D01*
X0076600Y0047345D01*
X0076600Y0054782D01*
X0067600Y0054782D01*
X0066000Y0054782D01*
X0066000Y0045782D01*
X0058563Y0045782D01*
X0058105Y0045905D01*
X0057695Y0046142D01*
X0057360Y0046477D01*
X0057123Y0046888D01*
X0057000Y0047345D01*
X0057000Y0054782D01*
X0066000Y0054782D01*
X0066000Y0056382D01*
X0057000Y0056382D01*
X0057000Y0063819D01*
X0057123Y0064277D01*
X0057360Y0064688D01*
X0057695Y0065023D01*
X0058105Y0065260D01*
X0058563Y0065382D01*
X0066000Y0065382D01*
X0066000Y0056382D01*
X0066000Y0054782D01*
X0057000Y0054782D01*
X0057000Y0047345D01*
X0057123Y0046888D01*
X0057360Y0046477D01*
X0066000Y0046660D02*
X0067600Y0046660D01*
X0066000Y0046660D01*
X0066000Y0048259D02*
X0067600Y0048259D01*
X0066000Y0048259D01*
X0066000Y0049857D02*
X0067600Y0049857D01*
X0066000Y0049857D01*
X0066000Y0051456D02*
X0067600Y0051456D01*
X0066000Y0051456D01*
X0066000Y0053054D02*
X0067600Y0053054D01*
X0066000Y0053054D01*
X0066000Y0054653D02*
X0067600Y0054653D01*
X0066000Y0054653D01*
X0067600Y0054782D02*
X0067600Y0056382D01*
X0076600Y0056382D01*
X0076600Y0063819D01*
X0076477Y0064277D01*
X0076240Y0064688D01*
X0075905Y0065023D01*
X0075495Y0065260D01*
X0075037Y0065382D01*
X0067600Y0065382D01*
X0067600Y0056382D01*
X0076600Y0056382D01*
X0076600Y0063819D01*
X0076477Y0064277D01*
X0076240Y0064688D01*
X0075905Y0065023D01*
X0075495Y0065260D01*
X0075037Y0065382D01*
X0067600Y0065382D01*
X0067600Y0056382D01*
X0067600Y0054782D01*
X0067600Y0056382D02*
X0066000Y0056382D01*
X0057000Y0056382D01*
X0057000Y0063819D01*
X0057123Y0064277D01*
X0057360Y0064688D01*
X0057695Y0065023D01*
X0058105Y0065260D01*
X0058563Y0065382D01*
X0066000Y0065382D01*
X0066000Y0056382D01*
X0067600Y0056382D01*
X0067600Y0057850D02*
X0066000Y0057850D01*
X0067600Y0057850D01*
X0067600Y0059448D02*
X0066000Y0059448D01*
X0067600Y0059448D01*
X0067600Y0061047D02*
X0066000Y0061047D01*
X0067600Y0061047D01*
X0067600Y0062645D02*
X0066000Y0062645D01*
X0067600Y0062645D01*
X0067600Y0064244D02*
X0066000Y0064244D01*
X0067600Y0064244D01*
X0026100Y0075434D02*
X0111700Y0075434D01*
X0026100Y0075434D01*
X0026100Y0077032D02*
X0111700Y0077032D01*
X0026100Y0077032D01*
X0026100Y0078631D02*
X0112636Y0078631D01*
X0026100Y0078631D01*
X0026100Y0080229D02*
X0114234Y0080229D01*
X0026100Y0080229D01*
X0026100Y0081828D02*
X0113342Y0081828D01*
X0026100Y0081828D01*
X0026100Y0083426D02*
X0111744Y0083426D01*
X0026100Y0083426D01*
X0026100Y0085025D02*
X0111700Y0085025D01*
X0026100Y0085025D01*
X0026100Y0086623D02*
X0111700Y0086623D01*
X0026100Y0086623D01*
X0026100Y0088222D02*
X0112227Y0088222D01*
X0026100Y0088222D01*
X0026290Y0089820D02*
X0113825Y0089820D01*
X0026290Y0089820D01*
X0119068Y0070638D02*
X0122000Y0070638D01*
X0119068Y0070638D01*
D17*
X0113300Y0035832D03*
M02*
