G75*
%MOIN*%
%OFA0B0*%
%FSLAX25Y25*%
%IPPOS*%
%LPD*%
%AMOC8*
5,1,8,0,0,1.08239X$1,22.5*
%
%ADD10C,0.00000*%
%ADD11C,0.06000*%
%ADD12R,0.05512X0.04724*%
%ADD13C,0.00679*%
%ADD14R,0.10236X0.10236*%
%ADD15OC8,0.06600*%
%ADD16C,0.01000*%
%ADD17C,0.01600*%
%ADD18C,0.07500*%
D10*
X0032342Y0015582D02*
X0087749Y0015582D01*
X0087749Y0015583D02*
X0088693Y0015594D01*
X0089636Y0015629D01*
X0090578Y0015686D01*
X0091518Y0015765D01*
X0092456Y0015868D01*
X0093391Y0015993D01*
X0094324Y0016140D01*
X0095252Y0016311D01*
X0096176Y0016503D01*
X0097095Y0016718D01*
X0098008Y0016955D01*
X0098915Y0017214D01*
X0099816Y0017494D01*
X0100710Y0017797D01*
X0101597Y0018121D01*
X0102475Y0018466D01*
X0103345Y0018832D01*
X0104205Y0019220D01*
X0105056Y0019628D01*
X0105897Y0020056D01*
X0106727Y0020505D01*
X0107546Y0020973D01*
X0108354Y0021461D01*
X0109149Y0021969D01*
X0109932Y0022496D01*
X0110703Y0023041D01*
X0111459Y0023605D01*
X0112202Y0024187D01*
X0112931Y0024787D01*
X0113645Y0025404D01*
X0114343Y0026038D01*
X0115027Y0026689D01*
X0115694Y0027356D01*
X0116345Y0028040D01*
X0116979Y0028738D01*
X0117596Y0029452D01*
X0118196Y0030181D01*
X0118778Y0030924D01*
X0119342Y0031680D01*
X0119887Y0032451D01*
X0120414Y0033234D01*
X0120922Y0034029D01*
X0121410Y0034837D01*
X0121878Y0035656D01*
X0122327Y0036486D01*
X0122755Y0037327D01*
X0123163Y0038178D01*
X0123551Y0039038D01*
X0123917Y0039908D01*
X0124262Y0040786D01*
X0124586Y0041673D01*
X0124889Y0042567D01*
X0125169Y0043468D01*
X0125428Y0044375D01*
X0125665Y0045288D01*
X0125880Y0046207D01*
X0126072Y0047131D01*
X0126243Y0048059D01*
X0126390Y0048992D01*
X0126515Y0049927D01*
X0126618Y0050865D01*
X0126697Y0051805D01*
X0126754Y0052747D01*
X0126789Y0053690D01*
X0126800Y0054634D01*
X0126800Y0101417D01*
X0126796Y0101757D01*
X0126784Y0102098D01*
X0126763Y0102437D01*
X0126734Y0102777D01*
X0126697Y0103115D01*
X0126652Y0103452D01*
X0126599Y0103789D01*
X0126538Y0104123D01*
X0126468Y0104457D01*
X0126391Y0104788D01*
X0126305Y0105118D01*
X0126212Y0105445D01*
X0126111Y0105770D01*
X0126001Y0106093D01*
X0125885Y0106412D01*
X0125760Y0106729D01*
X0125628Y0107043D01*
X0125488Y0107353D01*
X0125341Y0107660D01*
X0125186Y0107964D01*
X0125025Y0108263D01*
X0124856Y0108559D01*
X0124679Y0108850D01*
X0124496Y0109137D01*
X0124306Y0109419D01*
X0124110Y0109697D01*
X0123906Y0109970D01*
X0123696Y0110238D01*
X0123480Y0110501D01*
X0123257Y0110758D01*
X0123028Y0111010D01*
X0122794Y0111257D01*
X0122553Y0111498D01*
X0122306Y0111732D01*
X0122054Y0111961D01*
X0121797Y0112184D01*
X0121534Y0112400D01*
X0121266Y0112610D01*
X0120993Y0112814D01*
X0120715Y0113010D01*
X0120433Y0113200D01*
X0120146Y0113383D01*
X0119855Y0113560D01*
X0119559Y0113729D01*
X0119260Y0113890D01*
X0118956Y0114045D01*
X0118649Y0114192D01*
X0118339Y0114332D01*
X0118025Y0114464D01*
X0117708Y0114589D01*
X0117389Y0114705D01*
X0117066Y0114815D01*
X0116741Y0114916D01*
X0116414Y0115009D01*
X0116084Y0115095D01*
X0115753Y0115172D01*
X0115419Y0115242D01*
X0115085Y0115303D01*
X0114748Y0115356D01*
X0114411Y0115401D01*
X0114073Y0115438D01*
X0113733Y0115467D01*
X0113394Y0115488D01*
X0113053Y0115500D01*
X0112713Y0115504D01*
X0039260Y0115504D01*
X0038507Y0115495D01*
X0037755Y0115468D01*
X0037003Y0115422D01*
X0036253Y0115359D01*
X0035504Y0115277D01*
X0034758Y0115177D01*
X0034014Y0115059D01*
X0033273Y0114923D01*
X0032536Y0114770D01*
X0031803Y0114599D01*
X0031074Y0114409D01*
X0030350Y0114203D01*
X0029631Y0113979D01*
X0028917Y0113738D01*
X0028210Y0113479D01*
X0027509Y0113204D01*
X0026815Y0112911D01*
X0026129Y0112602D01*
X0025450Y0112277D01*
X0024779Y0111935D01*
X0024116Y0111577D01*
X0023463Y0111203D01*
X0022818Y0110813D01*
X0022183Y0110408D01*
X0021559Y0109988D01*
X0020944Y0109553D01*
X0020340Y0109103D01*
X0019747Y0108638D01*
X0019166Y0108160D01*
X0018596Y0107667D01*
X0018039Y0107161D01*
X0017494Y0106642D01*
X0016961Y0106109D01*
X0016442Y0105564D01*
X0015936Y0105007D01*
X0015443Y0104437D01*
X0014965Y0103856D01*
X0014500Y0103263D01*
X0014050Y0102659D01*
X0013615Y0102044D01*
X0013195Y0101420D01*
X0012790Y0100785D01*
X0012400Y0100140D01*
X0012026Y0099487D01*
X0011668Y0098824D01*
X0011326Y0098153D01*
X0011001Y0097474D01*
X0010692Y0096788D01*
X0010399Y0096094D01*
X0010124Y0095393D01*
X0009865Y0094686D01*
X0009624Y0093972D01*
X0009400Y0093253D01*
X0009194Y0092529D01*
X0009004Y0091800D01*
X0008833Y0091067D01*
X0008680Y0090330D01*
X0008544Y0089589D01*
X0008426Y0088845D01*
X0008326Y0088099D01*
X0008244Y0087350D01*
X0008181Y0086600D01*
X0008135Y0085848D01*
X0008108Y0085096D01*
X0008099Y0084343D01*
X0008099Y0039825D01*
X0008106Y0039230D01*
X0008128Y0038635D01*
X0008165Y0038042D01*
X0008216Y0037449D01*
X0008281Y0036857D01*
X0008361Y0036268D01*
X0008456Y0035680D01*
X0008565Y0035095D01*
X0008688Y0034513D01*
X0008826Y0033934D01*
X0008977Y0033359D01*
X0009143Y0032788D01*
X0009323Y0032220D01*
X0009516Y0031658D01*
X0009723Y0031100D01*
X0009944Y0030548D01*
X0010179Y0030001D01*
X0010427Y0029460D01*
X0010688Y0028925D01*
X0010962Y0028397D01*
X0011248Y0027876D01*
X0011548Y0027362D01*
X0011860Y0026855D01*
X0012185Y0026356D01*
X0012521Y0025866D01*
X0012870Y0025383D01*
X0013230Y0024910D01*
X0013602Y0024445D01*
X0013985Y0023990D01*
X0014379Y0023544D01*
X0014784Y0023108D01*
X0015200Y0022683D01*
X0015625Y0022267D01*
X0016061Y0021862D01*
X0016507Y0021468D01*
X0016962Y0021085D01*
X0017427Y0020713D01*
X0017900Y0020353D01*
X0018383Y0020004D01*
X0018873Y0019668D01*
X0019372Y0019343D01*
X0019879Y0019031D01*
X0020393Y0018731D01*
X0020914Y0018445D01*
X0021442Y0018171D01*
X0021977Y0017910D01*
X0022518Y0017662D01*
X0023065Y0017427D01*
X0023617Y0017206D01*
X0024175Y0016999D01*
X0024737Y0016806D01*
X0025305Y0016626D01*
X0025876Y0016460D01*
X0026451Y0016309D01*
X0027030Y0016171D01*
X0027612Y0016048D01*
X0028197Y0015939D01*
X0028785Y0015844D01*
X0029374Y0015764D01*
X0029966Y0015699D01*
X0030559Y0015648D01*
X0031152Y0015611D01*
X0031747Y0015589D01*
X0032342Y0015582D01*
D11*
X0056800Y0102582D02*
X0056800Y0108582D01*
X0066800Y0108582D02*
X0066800Y0102582D01*
X0076800Y0102582D02*
X0076800Y0108582D01*
X0086800Y0108582D02*
X0086800Y0102582D01*
X0096800Y0102582D02*
X0096800Y0108582D01*
X0106800Y0108582D02*
X0106800Y0102582D01*
D12*
X0081800Y0061488D03*
X0081800Y0049677D03*
X0066800Y0049677D03*
X0066800Y0061488D03*
X0051800Y0061488D03*
X0051800Y0049677D03*
D13*
X0057749Y0076472D02*
X0057749Y0078944D01*
X0057977Y0078944D01*
X0057977Y0076472D01*
X0057749Y0076472D01*
X0057749Y0077150D02*
X0057977Y0077150D01*
X0057977Y0077828D02*
X0057749Y0077828D01*
X0057749Y0078506D02*
X0057977Y0078506D01*
X0059717Y0078944D02*
X0059717Y0076472D01*
X0059717Y0078944D02*
X0059945Y0078944D01*
X0059945Y0076472D01*
X0059717Y0076472D01*
X0059717Y0077150D02*
X0059945Y0077150D01*
X0059945Y0077828D02*
X0059717Y0077828D01*
X0059717Y0078506D02*
X0059945Y0078506D01*
X0061686Y0078944D02*
X0061686Y0076472D01*
X0061686Y0078944D02*
X0061914Y0078944D01*
X0061914Y0076472D01*
X0061686Y0076472D01*
X0061686Y0077150D02*
X0061914Y0077150D01*
X0061914Y0077828D02*
X0061686Y0077828D01*
X0061686Y0078506D02*
X0061914Y0078506D01*
X0063655Y0078944D02*
X0063655Y0076472D01*
X0063655Y0078944D02*
X0063883Y0078944D01*
X0063883Y0076472D01*
X0063655Y0076472D01*
X0063655Y0077150D02*
X0063883Y0077150D01*
X0063883Y0077828D02*
X0063655Y0077828D01*
X0063655Y0078506D02*
X0063883Y0078506D01*
X0065623Y0078944D02*
X0065623Y0076472D01*
X0065623Y0078944D02*
X0065851Y0078944D01*
X0065851Y0076472D01*
X0065623Y0076472D01*
X0065623Y0077150D02*
X0065851Y0077150D01*
X0065851Y0077828D02*
X0065623Y0077828D01*
X0065623Y0078506D02*
X0065851Y0078506D01*
X0068438Y0081531D02*
X0068438Y0081759D01*
X0070910Y0081759D01*
X0070910Y0081531D01*
X0068438Y0081531D01*
X0068438Y0083500D02*
X0068438Y0083728D01*
X0070910Y0083728D01*
X0070910Y0083500D01*
X0068438Y0083500D01*
X0068438Y0085468D02*
X0068438Y0085696D01*
X0070910Y0085696D01*
X0070910Y0085468D01*
X0068438Y0085468D01*
X0068438Y0087437D02*
X0068438Y0087665D01*
X0070910Y0087665D01*
X0070910Y0087437D01*
X0068438Y0087437D01*
X0068438Y0089405D02*
X0068438Y0089633D01*
X0070910Y0089633D01*
X0070910Y0089405D01*
X0068438Y0089405D01*
X0065623Y0092220D02*
X0065623Y0094692D01*
X0065851Y0094692D01*
X0065851Y0092220D01*
X0065623Y0092220D01*
X0065623Y0092898D02*
X0065851Y0092898D01*
X0065851Y0093576D02*
X0065623Y0093576D01*
X0065623Y0094254D02*
X0065851Y0094254D01*
X0063655Y0094692D02*
X0063655Y0092220D01*
X0063655Y0094692D02*
X0063883Y0094692D01*
X0063883Y0092220D01*
X0063655Y0092220D01*
X0063655Y0092898D02*
X0063883Y0092898D01*
X0063883Y0093576D02*
X0063655Y0093576D01*
X0063655Y0094254D02*
X0063883Y0094254D01*
X0061686Y0094692D02*
X0061686Y0092220D01*
X0061686Y0094692D02*
X0061914Y0094692D01*
X0061914Y0092220D01*
X0061686Y0092220D01*
X0061686Y0092898D02*
X0061914Y0092898D01*
X0061914Y0093576D02*
X0061686Y0093576D01*
X0061686Y0094254D02*
X0061914Y0094254D01*
X0059717Y0094692D02*
X0059717Y0092220D01*
X0059717Y0094692D02*
X0059945Y0094692D01*
X0059945Y0092220D01*
X0059717Y0092220D01*
X0059717Y0092898D02*
X0059945Y0092898D01*
X0059945Y0093576D02*
X0059717Y0093576D01*
X0059717Y0094254D02*
X0059945Y0094254D01*
X0057749Y0094692D02*
X0057749Y0092220D01*
X0057749Y0094692D02*
X0057977Y0094692D01*
X0057977Y0092220D01*
X0057749Y0092220D01*
X0057749Y0092898D02*
X0057977Y0092898D01*
X0057977Y0093576D02*
X0057749Y0093576D01*
X0057749Y0094254D02*
X0057977Y0094254D01*
X0052690Y0089633D02*
X0052690Y0089405D01*
X0052690Y0089633D02*
X0055162Y0089633D01*
X0055162Y0089405D01*
X0052690Y0089405D01*
X0052690Y0087665D02*
X0052690Y0087437D01*
X0052690Y0087665D02*
X0055162Y0087665D01*
X0055162Y0087437D01*
X0052690Y0087437D01*
X0052690Y0085696D02*
X0052690Y0085468D01*
X0052690Y0085696D02*
X0055162Y0085696D01*
X0055162Y0085468D01*
X0052690Y0085468D01*
X0052690Y0083728D02*
X0052690Y0083500D01*
X0052690Y0083728D02*
X0055162Y0083728D01*
X0055162Y0083500D01*
X0052690Y0083500D01*
X0052690Y0081759D02*
X0052690Y0081531D01*
X0052690Y0081759D02*
X0055162Y0081759D01*
X0055162Y0081531D01*
X0052690Y0081531D01*
D14*
X0061800Y0085582D03*
D15*
X0019300Y0085582D03*
X0019300Y0075582D03*
X0022050Y0038582D03*
X0022050Y0028582D03*
X0116800Y0075582D03*
X0116800Y0085582D03*
D16*
X0114116Y0085582D01*
X0110163Y0083945D02*
X0090382Y0064165D01*
X0083920Y0061488D02*
X0081800Y0061488D01*
X0081798Y0061665D01*
X0081791Y0061843D01*
X0081781Y0062020D01*
X0081766Y0062197D01*
X0081746Y0062373D01*
X0081723Y0062549D01*
X0081695Y0062724D01*
X0081663Y0062899D01*
X0081627Y0063073D01*
X0081587Y0063246D01*
X0081542Y0063417D01*
X0081493Y0063588D01*
X0081441Y0063757D01*
X0081384Y0063926D01*
X0081323Y0064092D01*
X0081258Y0064257D01*
X0081189Y0064421D01*
X0081116Y0064583D01*
X0081039Y0064743D01*
X0080959Y0064901D01*
X0080874Y0065057D01*
X0080786Y0065211D01*
X0080694Y0065363D01*
X0080599Y0065513D01*
X0080500Y0065660D01*
X0080397Y0065805D01*
X0080291Y0065947D01*
X0080182Y0066087D01*
X0080069Y0066224D01*
X0079953Y0066358D01*
X0079834Y0066489D01*
X0079711Y0066618D01*
X0079586Y0066743D01*
X0079457Y0066866D01*
X0079326Y0066985D01*
X0079192Y0067101D01*
X0079055Y0067214D01*
X0078915Y0067323D01*
X0078773Y0067429D01*
X0078628Y0067532D01*
X0078481Y0067631D01*
X0078331Y0067726D01*
X0078179Y0067818D01*
X0078025Y0067906D01*
X0077869Y0067991D01*
X0077711Y0068071D01*
X0077551Y0068148D01*
X0077389Y0068221D01*
X0077225Y0068290D01*
X0077060Y0068355D01*
X0076894Y0068416D01*
X0076725Y0068473D01*
X0076556Y0068525D01*
X0076385Y0068574D01*
X0076214Y0068619D01*
X0076041Y0068659D01*
X0075867Y0068695D01*
X0075692Y0068727D01*
X0075517Y0068755D01*
X0075341Y0068778D01*
X0075165Y0068798D01*
X0074988Y0068813D01*
X0074811Y0068823D01*
X0074633Y0068830D01*
X0074456Y0068832D01*
X0066550Y0068832D01*
X0060857Y0067431D02*
X0060777Y0067513D01*
X0060701Y0067598D01*
X0060626Y0067686D01*
X0060555Y0067775D01*
X0060487Y0067867D01*
X0060422Y0067962D01*
X0060360Y0068058D01*
X0060301Y0068156D01*
X0060245Y0068256D01*
X0060193Y0068358D01*
X0060144Y0068462D01*
X0060098Y0068567D01*
X0060056Y0068673D01*
X0060018Y0068781D01*
X0059983Y0068890D01*
X0059951Y0069000D01*
X0059923Y0069111D01*
X0059899Y0069223D01*
X0059879Y0069336D01*
X0059862Y0069449D01*
X0059849Y0069563D01*
X0059839Y0069677D01*
X0059834Y0069791D01*
X0059832Y0069906D01*
X0059831Y0069906D02*
X0059831Y0077708D01*
X0057863Y0077708D02*
X0051800Y0071645D01*
X0021050Y0071645D01*
X0019300Y0075582D01*
X0046800Y0085582D02*
X0046800Y0100582D01*
X0051800Y0105582D01*
X0056800Y0105582D01*
X0066800Y0105582D02*
X0066800Y0100582D01*
X0073998Y0093384D01*
X0074300Y0092655D02*
X0074300Y0091272D01*
X0074032Y0089948D02*
X0073862Y0089546D01*
X0074300Y0092655D02*
X0074298Y0092717D01*
X0074292Y0092779D01*
X0074283Y0092841D01*
X0074270Y0092902D01*
X0074253Y0092962D01*
X0074233Y0093021D01*
X0074209Y0093078D01*
X0074182Y0093134D01*
X0074151Y0093188D01*
X0074117Y0093241D01*
X0074081Y0093291D01*
X0074041Y0093339D01*
X0073998Y0093384D01*
X0083448Y0087229D02*
X0083638Y0087424D01*
X0083823Y0087624D01*
X0084004Y0087827D01*
X0084180Y0088035D01*
X0084351Y0088248D01*
X0084517Y0088464D01*
X0084678Y0088684D01*
X0084833Y0088907D01*
X0084983Y0089135D01*
X0085128Y0089366D01*
X0085267Y0089600D01*
X0085400Y0089838D01*
X0085528Y0090078D01*
X0085650Y0090322D01*
X0085766Y0090568D01*
X0085876Y0090817D01*
X0085980Y0091069D01*
X0086078Y0091323D01*
X0086170Y0091579D01*
X0086257Y0091838D01*
X0086336Y0092098D01*
X0086410Y0092361D01*
X0086477Y0092625D01*
X0086538Y0092890D01*
X0086593Y0093157D01*
X0086642Y0093425D01*
X0086683Y0093694D01*
X0086719Y0093964D01*
X0086748Y0094235D01*
X0086771Y0094506D01*
X0086787Y0094778D01*
X0086797Y0095051D01*
X0086800Y0095323D01*
X0086800Y0105582D01*
X0096800Y0103049D02*
X0096884Y0102815D01*
X0096962Y0102579D01*
X0097034Y0102342D01*
X0097101Y0102102D01*
X0097161Y0101861D01*
X0097216Y0101618D01*
X0097265Y0101375D01*
X0097307Y0101130D01*
X0097344Y0100884D01*
X0097375Y0100637D01*
X0097399Y0100390D01*
X0097418Y0100142D01*
X0097430Y0099894D01*
X0097436Y0099645D01*
X0097436Y0099396D01*
X0097430Y0099148D01*
X0097418Y0098900D01*
X0097400Y0098652D01*
X0097376Y0098404D01*
X0097346Y0098158D01*
X0097309Y0097912D01*
X0097267Y0097667D01*
X0097219Y0097423D01*
X0097164Y0097180D01*
X0097104Y0096939D01*
X0097038Y0096699D01*
X0096966Y0096461D01*
X0096888Y0096225D01*
X0096805Y0095991D01*
X0096715Y0095759D01*
X0096620Y0095529D01*
X0096520Y0095302D01*
X0092315Y0086097D01*
X0104729Y0088511D02*
X0104909Y0088784D01*
X0105083Y0089061D01*
X0105250Y0089343D01*
X0105411Y0089629D01*
X0105564Y0089918D01*
X0105710Y0090211D01*
X0105848Y0090508D01*
X0105980Y0090808D01*
X0106104Y0091111D01*
X0106220Y0091417D01*
X0106329Y0091726D01*
X0106431Y0092037D01*
X0106524Y0092351D01*
X0106610Y0092667D01*
X0106688Y0092985D01*
X0106759Y0093305D01*
X0106821Y0093626D01*
X0106876Y0093949D01*
X0106922Y0094274D01*
X0106961Y0094599D01*
X0106992Y0094925D01*
X0107014Y0095251D01*
X0107029Y0095579D01*
X0107036Y0095906D01*
X0107034Y0096233D01*
X0107025Y0096561D01*
X0107007Y0096888D01*
X0106982Y0097214D01*
X0106948Y0097540D01*
X0106907Y0097865D01*
X0106857Y0098189D01*
X0106800Y0098511D01*
X0106800Y0105582D01*
X0096800Y0105582D02*
X0096800Y0103050D01*
X0092314Y0086097D02*
X0092047Y0085836D01*
X0091774Y0085582D01*
X0091495Y0085335D01*
X0091209Y0085095D01*
X0090918Y0084862D01*
X0090621Y0084636D01*
X0090319Y0084418D01*
X0090011Y0084206D01*
X0089698Y0084003D01*
X0089381Y0083807D01*
X0089059Y0083620D01*
X0088732Y0083440D01*
X0088401Y0083268D01*
X0088065Y0083104D01*
X0087726Y0082949D01*
X0087383Y0082802D01*
X0087037Y0082663D01*
X0086687Y0082533D01*
X0086335Y0082412D01*
X0085979Y0082299D01*
X0085621Y0082196D01*
X0085260Y0082100D01*
X0084897Y0082014D01*
X0084532Y0081937D01*
X0084165Y0081869D01*
X0083797Y0081810D01*
X0083428Y0081759D01*
X0083057Y0081718D01*
X0082685Y0081686D01*
X0082313Y0081663D01*
X0081940Y0081650D01*
X0081567Y0081645D01*
X0069674Y0081645D01*
X0069674Y0083614D02*
X0074717Y0083614D01*
X0069930Y0085582D02*
X0069674Y0085582D01*
X0069674Y0087551D02*
X0070852Y0087551D01*
X0070964Y0087553D01*
X0071077Y0087559D01*
X0071189Y0087568D01*
X0071301Y0087582D01*
X0071412Y0087599D01*
X0071522Y0087620D01*
X0071632Y0087645D01*
X0071741Y0087674D01*
X0071848Y0087707D01*
X0071955Y0087743D01*
X0072060Y0087783D01*
X0072164Y0087826D01*
X0072266Y0087873D01*
X0072367Y0087923D01*
X0072466Y0087977D01*
X0072562Y0088034D01*
X0072657Y0088095D01*
X0072750Y0088159D01*
X0072840Y0088226D01*
X0072928Y0088296D01*
X0073014Y0088369D01*
X0073097Y0088445D01*
X0073177Y0088523D01*
X0073255Y0088605D01*
X0073330Y0088689D01*
X0073402Y0088775D01*
X0073470Y0088864D01*
X0073536Y0088956D01*
X0073599Y0089049D01*
X0073658Y0089145D01*
X0073714Y0089242D01*
X0073766Y0089342D01*
X0073816Y0089443D01*
X0073861Y0089546D01*
X0074032Y0089948D02*
X0074074Y0090053D01*
X0074113Y0090160D01*
X0074148Y0090267D01*
X0074180Y0090376D01*
X0074208Y0090486D01*
X0074232Y0090597D01*
X0074253Y0090708D01*
X0074270Y0090820D01*
X0074283Y0090933D01*
X0074292Y0091046D01*
X0074298Y0091159D01*
X0074300Y0091272D01*
X0077550Y0093202D02*
X0077550Y0102832D01*
X0076800Y0103582D01*
X0083447Y0087230D02*
X0083237Y0087025D01*
X0083022Y0086825D01*
X0082802Y0086630D01*
X0082578Y0086440D01*
X0082349Y0086255D01*
X0082116Y0086077D01*
X0081878Y0085903D01*
X0081637Y0085736D01*
X0081392Y0085574D01*
X0081143Y0085418D01*
X0080890Y0085268D01*
X0080634Y0085124D01*
X0080374Y0084986D01*
X0080112Y0084855D01*
X0079846Y0084730D01*
X0079577Y0084611D01*
X0079306Y0084498D01*
X0079031Y0084392D01*
X0078755Y0084293D01*
X0078476Y0084200D01*
X0078195Y0084114D01*
X0077912Y0084035D01*
X0077628Y0083962D01*
X0077341Y0083896D01*
X0077053Y0083837D01*
X0076764Y0083785D01*
X0076474Y0083740D01*
X0076183Y0083701D01*
X0075891Y0083670D01*
X0075598Y0083645D01*
X0075304Y0083628D01*
X0075011Y0083617D01*
X0074717Y0083614D01*
X0079228Y0077708D02*
X0065737Y0077708D01*
X0061800Y0077708D02*
X0061800Y0073582D01*
X0061802Y0073446D01*
X0061808Y0073311D01*
X0061817Y0073176D01*
X0061831Y0073041D01*
X0061848Y0072906D01*
X0061870Y0072772D01*
X0061895Y0072639D01*
X0061923Y0072506D01*
X0061956Y0072374D01*
X0061992Y0072244D01*
X0062032Y0072114D01*
X0062076Y0071986D01*
X0062124Y0071859D01*
X0062175Y0071733D01*
X0062229Y0071609D01*
X0062287Y0071486D01*
X0062349Y0071365D01*
X0062414Y0071246D01*
X0062482Y0071129D01*
X0062554Y0071014D01*
X0062629Y0070901D01*
X0062707Y0070790D01*
X0062788Y0070681D01*
X0062873Y0070575D01*
X0062960Y0070471D01*
X0063050Y0070370D01*
X0063144Y0070272D01*
X0063240Y0070176D01*
X0063338Y0070082D01*
X0063439Y0069992D01*
X0063543Y0069905D01*
X0063649Y0069820D01*
X0063758Y0069739D01*
X0063869Y0069661D01*
X0063982Y0069586D01*
X0064097Y0069514D01*
X0064214Y0069446D01*
X0064333Y0069381D01*
X0064454Y0069319D01*
X0064577Y0069261D01*
X0064701Y0069207D01*
X0064827Y0069156D01*
X0064954Y0069108D01*
X0065082Y0069064D01*
X0065212Y0069024D01*
X0065342Y0068988D01*
X0065474Y0068955D01*
X0065607Y0068927D01*
X0065740Y0068902D01*
X0065874Y0068880D01*
X0066009Y0068863D01*
X0066144Y0068849D01*
X0066279Y0068840D01*
X0066414Y0068834D01*
X0066550Y0068832D01*
X0060857Y0067431D02*
X0066800Y0060582D01*
X0064300Y0060582D01*
X0066800Y0061488D02*
X0060857Y0067431D01*
X0051800Y0071645D02*
X0051800Y0061488D01*
X0059300Y0055582D02*
X0059300Y0043082D01*
X0059298Y0042984D01*
X0059292Y0042886D01*
X0059283Y0042788D01*
X0059269Y0042691D01*
X0059252Y0042594D01*
X0059231Y0042498D01*
X0059206Y0042403D01*
X0059178Y0042309D01*
X0059145Y0042217D01*
X0059110Y0042125D01*
X0059070Y0042035D01*
X0059028Y0041947D01*
X0058981Y0041860D01*
X0058932Y0041776D01*
X0058879Y0041693D01*
X0058823Y0041613D01*
X0058763Y0041534D01*
X0058701Y0041458D01*
X0058636Y0041385D01*
X0058568Y0041314D01*
X0058497Y0041246D01*
X0058424Y0041181D01*
X0058348Y0041119D01*
X0058269Y0041059D01*
X0058189Y0041003D01*
X0058106Y0040950D01*
X0058022Y0040901D01*
X0057935Y0040854D01*
X0057847Y0040812D01*
X0057757Y0040772D01*
X0057665Y0040737D01*
X0057573Y0040704D01*
X0057479Y0040676D01*
X0057384Y0040651D01*
X0057288Y0040630D01*
X0057191Y0040613D01*
X0057094Y0040599D01*
X0056996Y0040590D01*
X0056898Y0040584D01*
X0056800Y0040582D01*
X0024050Y0040582D01*
X0023963Y0040580D01*
X0023876Y0040574D01*
X0023789Y0040565D01*
X0023703Y0040552D01*
X0023617Y0040535D01*
X0023532Y0040514D01*
X0023449Y0040489D01*
X0023366Y0040461D01*
X0023285Y0040430D01*
X0023205Y0040395D01*
X0023127Y0040356D01*
X0023050Y0040314D01*
X0022975Y0040269D01*
X0022903Y0040220D01*
X0022832Y0040169D01*
X0022764Y0040114D01*
X0022699Y0040057D01*
X0022636Y0039996D01*
X0022575Y0039933D01*
X0022518Y0039868D01*
X0022463Y0039800D01*
X0022412Y0039729D01*
X0022363Y0039657D01*
X0022318Y0039582D01*
X0022276Y0039505D01*
X0022237Y0039427D01*
X0022202Y0039347D01*
X0022171Y0039266D01*
X0022143Y0039183D01*
X0022118Y0039100D01*
X0022097Y0039015D01*
X0022080Y0038929D01*
X0022067Y0038843D01*
X0022058Y0038756D01*
X0022052Y0038669D01*
X0022050Y0038582D01*
X0024800Y0037082D01*
X0059300Y0055582D02*
X0059302Y0055722D01*
X0059308Y0055862D01*
X0059318Y0056002D01*
X0059331Y0056142D01*
X0059349Y0056281D01*
X0059371Y0056420D01*
X0059396Y0056557D01*
X0059425Y0056695D01*
X0059458Y0056831D01*
X0059495Y0056966D01*
X0059536Y0057100D01*
X0059581Y0057233D01*
X0059629Y0057365D01*
X0059681Y0057495D01*
X0059736Y0057624D01*
X0059795Y0057751D01*
X0059858Y0057877D01*
X0059924Y0058001D01*
X0059993Y0058122D01*
X0060066Y0058242D01*
X0060143Y0058360D01*
X0060222Y0058475D01*
X0060305Y0058589D01*
X0060391Y0058699D01*
X0060480Y0058808D01*
X0060572Y0058914D01*
X0060667Y0059017D01*
X0060764Y0059118D01*
X0060865Y0059215D01*
X0060968Y0059310D01*
X0061074Y0059402D01*
X0061183Y0059491D01*
X0061293Y0059577D01*
X0061407Y0059660D01*
X0061522Y0059739D01*
X0061640Y0059816D01*
X0061760Y0059889D01*
X0061881Y0059958D01*
X0062005Y0060024D01*
X0062131Y0060087D01*
X0062258Y0060146D01*
X0062387Y0060201D01*
X0062517Y0060253D01*
X0062649Y0060301D01*
X0062782Y0060346D01*
X0062916Y0060387D01*
X0063051Y0060424D01*
X0063187Y0060457D01*
X0063325Y0060486D01*
X0063462Y0060511D01*
X0063601Y0060533D01*
X0063740Y0060551D01*
X0063880Y0060564D01*
X0064020Y0060574D01*
X0064160Y0060580D01*
X0064300Y0060582D01*
X0083920Y0061488D02*
X0084137Y0061491D01*
X0084355Y0061498D01*
X0084572Y0061511D01*
X0084789Y0061529D01*
X0085005Y0061553D01*
X0085221Y0061581D01*
X0085436Y0061615D01*
X0085650Y0061653D01*
X0085863Y0061697D01*
X0086075Y0061746D01*
X0086285Y0061799D01*
X0086495Y0061858D01*
X0086703Y0061922D01*
X0086909Y0061991D01*
X0087114Y0062064D01*
X0087317Y0062143D01*
X0087518Y0062226D01*
X0087716Y0062314D01*
X0087913Y0062407D01*
X0088108Y0062504D01*
X0088300Y0062606D01*
X0088489Y0062712D01*
X0088677Y0062823D01*
X0088861Y0062939D01*
X0089042Y0063059D01*
X0089221Y0063183D01*
X0089397Y0063311D01*
X0089569Y0063443D01*
X0089739Y0063580D01*
X0089905Y0063720D01*
X0090067Y0063865D01*
X0090227Y0064013D01*
X0090382Y0064165D01*
X0110163Y0083945D02*
X0110268Y0084047D01*
X0110376Y0084146D01*
X0110486Y0084243D01*
X0110598Y0084336D01*
X0110713Y0084427D01*
X0110830Y0084514D01*
X0110950Y0084599D01*
X0111071Y0084680D01*
X0111195Y0084758D01*
X0111321Y0084833D01*
X0111449Y0084905D01*
X0111578Y0084973D01*
X0111709Y0085037D01*
X0111842Y0085099D01*
X0111977Y0085156D01*
X0112113Y0085211D01*
X0112250Y0085261D01*
X0112389Y0085308D01*
X0112528Y0085352D01*
X0112669Y0085392D01*
X0112811Y0085428D01*
X0112954Y0085460D01*
X0113097Y0085488D01*
X0113242Y0085513D01*
X0113386Y0085534D01*
X0113532Y0085551D01*
X0113677Y0085565D01*
X0113823Y0085574D01*
X0113970Y0085580D01*
X0114116Y0085582D01*
X0104729Y0088511D02*
X0104319Y0088101D01*
X0104318Y0088101D02*
X0103695Y0087493D01*
X0103057Y0086900D01*
X0102405Y0086323D01*
X0101738Y0085762D01*
X0101058Y0085218D01*
X0100365Y0084691D01*
X0099659Y0084181D01*
X0098941Y0083688D01*
X0098211Y0083213D01*
X0097470Y0082756D01*
X0096718Y0082318D01*
X0095955Y0081898D01*
X0095182Y0081497D01*
X0094399Y0081115D01*
X0093607Y0080752D01*
X0092807Y0080409D01*
X0091998Y0080086D01*
X0091182Y0079782D01*
X0090358Y0079499D01*
X0089528Y0079236D01*
X0088692Y0078993D01*
X0087850Y0078771D01*
X0087002Y0078570D01*
X0086150Y0078390D01*
X0085294Y0078230D01*
X0084434Y0078092D01*
X0083572Y0077975D01*
X0082706Y0077879D01*
X0081838Y0077804D01*
X0080969Y0077751D01*
X0080099Y0077719D01*
X0079228Y0077708D01*
X0069930Y0085582D02*
X0070114Y0085584D01*
X0070298Y0085591D01*
X0070482Y0085602D01*
X0070665Y0085618D01*
X0070848Y0085638D01*
X0071031Y0085662D01*
X0071213Y0085691D01*
X0071394Y0085724D01*
X0071574Y0085762D01*
X0071754Y0085803D01*
X0071932Y0085850D01*
X0072109Y0085900D01*
X0072285Y0085955D01*
X0072459Y0086014D01*
X0072632Y0086077D01*
X0072803Y0086145D01*
X0072973Y0086216D01*
X0073141Y0086292D01*
X0073307Y0086371D01*
X0073471Y0086455D01*
X0073633Y0086542D01*
X0073793Y0086634D01*
X0073951Y0086729D01*
X0074106Y0086828D01*
X0074259Y0086931D01*
X0074409Y0087037D01*
X0074557Y0087147D01*
X0074702Y0087261D01*
X0074844Y0087378D01*
X0074983Y0087498D01*
X0075119Y0087622D01*
X0075253Y0087749D01*
X0075383Y0087879D01*
X0075510Y0088013D01*
X0075634Y0088149D01*
X0075754Y0088288D01*
X0075871Y0088430D01*
X0075985Y0088575D01*
X0076095Y0088723D01*
X0076201Y0088873D01*
X0076304Y0089026D01*
X0076403Y0089181D01*
X0076498Y0089339D01*
X0076590Y0089499D01*
X0076677Y0089661D01*
X0076761Y0089825D01*
X0076840Y0089991D01*
X0076916Y0090159D01*
X0076987Y0090329D01*
X0077055Y0090500D01*
X0077118Y0090673D01*
X0077177Y0090847D01*
X0077232Y0091023D01*
X0077282Y0091200D01*
X0077329Y0091378D01*
X0077370Y0091558D01*
X0077408Y0091738D01*
X0077441Y0091919D01*
X0077470Y0092101D01*
X0077494Y0092284D01*
X0077514Y0092467D01*
X0077530Y0092650D01*
X0077541Y0092834D01*
X0077548Y0093018D01*
X0077550Y0093202D01*
X0053926Y0085582D02*
X0046800Y0085582D01*
D17*
X0023409Y0022683D02*
X0099727Y0022683D01*
X0102224Y0023591D02*
X0096614Y0021549D01*
X0090734Y0020513D01*
X0087749Y0020382D01*
X0032342Y0020382D01*
X0030165Y0020505D01*
X0025920Y0021473D01*
X0021998Y0023362D01*
X0021847Y0023482D01*
X0022050Y0023482D01*
X0024162Y0023482D01*
X0027150Y0026470D01*
X0027150Y0028582D01*
X0022050Y0028582D01*
X0022050Y0023482D01*
X0022050Y0028582D01*
X0022050Y0028582D01*
X0022050Y0028582D01*
X0016950Y0028582D01*
X0016950Y0028138D01*
X0015879Y0029481D01*
X0013990Y0033404D01*
X0013021Y0037648D01*
X0012899Y0039825D01*
X0012899Y0084343D01*
X0013026Y0086927D01*
X0014034Y0091995D01*
X0016012Y0096769D01*
X0018883Y0101066D01*
X0022537Y0104720D01*
X0026834Y0107591D01*
X0031608Y0109569D01*
X0036676Y0110577D01*
X0039260Y0110704D01*
X0052494Y0110704D01*
X0052352Y0110425D01*
X0052118Y0109706D01*
X0052000Y0108960D01*
X0052000Y0105782D01*
X0056600Y0105782D01*
X0056600Y0105382D01*
X0057000Y0105382D01*
X0057000Y0097782D01*
X0057178Y0097782D01*
X0057924Y0097901D01*
X0058643Y0098134D01*
X0059316Y0098477D01*
X0059927Y0098921D01*
X0060461Y0099455D01*
X0060905Y0100067D01*
X0061248Y0100740D01*
X0061482Y0101458D01*
X0061600Y0102205D01*
X0061600Y0105382D01*
X0057000Y0105382D01*
X0057000Y0105782D01*
X0061600Y0105782D01*
X0061600Y0108960D01*
X0061482Y0109706D01*
X0061248Y0110425D01*
X0061106Y0110704D01*
X0062483Y0110704D01*
X0062000Y0109537D01*
X0062000Y0101628D01*
X0062731Y0099863D01*
X0064081Y0098513D01*
X0065845Y0097782D01*
X0066347Y0097782D01*
X0071698Y0092432D01*
X0071698Y0092432D01*
X0072000Y0092130D01*
X0072000Y0091568D01*
X0071795Y0091772D01*
X0068392Y0091772D01*
X0067990Y0092174D01*
X0067990Y0095578D01*
X0066736Y0096831D01*
X0056864Y0096831D01*
X0055610Y0095578D01*
X0055610Y0092174D01*
X0055208Y0091772D01*
X0051805Y0091772D01*
X0050551Y0090519D01*
X0050551Y0086551D01*
X0050673Y0086430D01*
X0050551Y0085977D01*
X0050551Y0085582D01*
X0050551Y0085188D01*
X0050673Y0084735D01*
X0050551Y0084613D01*
X0050551Y0080646D01*
X0051805Y0079393D01*
X0055208Y0079393D01*
X0055610Y0078990D01*
X0055610Y0078708D01*
X0050847Y0073945D01*
X0024400Y0073945D01*
X0024400Y0077695D01*
X0021512Y0080582D01*
X0024400Y0083470D01*
X0024400Y0085582D01*
X0019300Y0085582D01*
X0019300Y0085582D01*
X0014200Y0085582D01*
X0014200Y0083470D01*
X0017088Y0080582D01*
X0014200Y0077695D01*
X0014200Y0073470D01*
X0017188Y0070482D01*
X0018960Y0070482D01*
X0019122Y0070321D01*
X0019335Y0069841D01*
X0019769Y0069674D01*
X0020097Y0069345D01*
X0020623Y0069345D01*
X0021114Y0069157D01*
X0021538Y0069345D01*
X0049500Y0069345D01*
X0049500Y0065650D01*
X0048298Y0065650D01*
X0047244Y0064596D01*
X0047244Y0058380D01*
X0048298Y0057326D01*
X0055301Y0057326D01*
X0056356Y0058380D01*
X0056356Y0064596D01*
X0055301Y0065650D01*
X0054100Y0065650D01*
X0054100Y0070693D01*
X0057531Y0074124D01*
X0057531Y0068753D01*
X0058415Y0066621D01*
X0059146Y0065889D01*
X0059173Y0065862D01*
X0062047Y0062551D01*
X0060165Y0061771D01*
X0060165Y0061771D01*
X0058111Y0059718D01*
X0058111Y0059717D01*
X0057000Y0057034D01*
X0057000Y0043082D01*
X0056996Y0043043D01*
X0056966Y0042971D01*
X0056911Y0042916D01*
X0056839Y0042886D01*
X0056800Y0042882D01*
X0024962Y0042882D01*
X0024162Y0043682D01*
X0019938Y0043682D01*
X0016950Y0040695D01*
X0016950Y0036470D01*
X0019838Y0033582D01*
X0016950Y0030695D01*
X0016950Y0028582D01*
X0022050Y0028582D01*
X0022050Y0028582D01*
X0027150Y0028582D01*
X0027150Y0030695D01*
X0024262Y0033582D01*
X0025601Y0034920D01*
X0026363Y0035145D01*
X0027009Y0036329D01*
X0027150Y0036470D01*
X0027150Y0036588D01*
X0027275Y0036817D01*
X0027150Y0037244D01*
X0027150Y0038282D01*
X0055847Y0038282D01*
X0057755Y0038282D01*
X0057755Y0038282D01*
X0059519Y0039013D01*
X0060869Y0040363D01*
X0060869Y0040363D01*
X0061600Y0042128D01*
X0061600Y0055582D01*
X0061652Y0056109D01*
X0062055Y0057082D01*
X0062798Y0057826D01*
X0063298Y0057326D01*
X0070301Y0057326D01*
X0071356Y0058380D01*
X0071356Y0064596D01*
X0070301Y0065650D01*
X0065890Y0065650D01*
X0064910Y0066631D01*
X0065148Y0066532D01*
X0074456Y0066532D01*
X0075245Y0066470D01*
X0076746Y0065983D01*
X0077838Y0065189D01*
X0077244Y0064596D01*
X0077244Y0058380D01*
X0078298Y0057326D01*
X0085301Y0057326D01*
X0086356Y0058380D01*
X0086356Y0059437D01*
X0088335Y0059967D01*
X0088335Y0059967D01*
X0090944Y0061474D01*
X0092009Y0062538D01*
X0092682Y0063212D01*
X0111115Y0081645D01*
X0111115Y0081645D01*
X0111789Y0082319D01*
X0112288Y0082728D01*
X0112397Y0082773D01*
X0114588Y0080582D01*
X0111700Y0077695D01*
X0111700Y0075582D01*
X0111700Y0073470D01*
X0114688Y0070482D01*
X0116800Y0070482D01*
X0118912Y0070482D01*
X0121900Y0073470D01*
X0121900Y0075582D01*
X0116800Y0075582D01*
X0116800Y0070482D01*
X0116800Y0075582D01*
X0116800Y0075582D01*
X0116800Y0075582D01*
X0111700Y0075582D01*
X0116800Y0075582D01*
X0116800Y0075582D01*
X0121900Y0075582D01*
X0121900Y0077695D01*
X0119012Y0080582D01*
X0121900Y0083470D01*
X0121900Y0087695D01*
X0118912Y0090682D01*
X0114688Y0090682D01*
X0111700Y0087695D01*
X0111700Y0087532D01*
X0109646Y0086681D01*
X0108536Y0085571D01*
X0107873Y0084908D01*
X0089430Y0066465D01*
X0088756Y0065791D01*
X0088083Y0065201D01*
X0086537Y0064309D01*
X0086356Y0064260D01*
X0086356Y0064596D01*
X0085301Y0065650D01*
X0083244Y0065650D01*
X0083156Y0065921D01*
X0081360Y0068393D01*
X0078889Y0070188D01*
X0078889Y0070188D01*
X0075983Y0071132D01*
X0066550Y0071132D01*
X0066072Y0071179D01*
X0065189Y0071545D01*
X0064513Y0072221D01*
X0064147Y0073104D01*
X0064100Y0073582D01*
X0064100Y0074334D01*
X0066736Y0074334D01*
X0067811Y0075408D01*
X0082950Y0075408D01*
X0090249Y0076860D01*
X0097125Y0079709D01*
X0103314Y0083843D01*
X0105855Y0086385D01*
X0106096Y0086431D01*
X0106509Y0087039D01*
X0106609Y0087138D01*
X0107029Y0087559D01*
X0107029Y0087804D01*
X0107789Y0088922D01*
X0109143Y0092812D01*
X0109445Y0096919D01*
X0109445Y0096919D01*
X0109169Y0098368D01*
X0109519Y0098513D01*
X0110869Y0099863D01*
X0111600Y0101628D01*
X0111600Y0109537D01*
X0111117Y0110704D01*
X0112713Y0110704D01*
X0113926Y0110624D01*
X0116267Y0109997D01*
X0118367Y0108785D01*
X0120081Y0107070D01*
X0121293Y0104971D01*
X0121921Y0102629D01*
X0122000Y0101417D01*
X0122000Y0054634D01*
X0121870Y0051648D01*
X0120833Y0045769D01*
X0118791Y0040158D01*
X0115806Y0034988D01*
X0111968Y0030414D01*
X0107394Y0026577D01*
X0102224Y0023591D01*
X0103419Y0024281D02*
X0024961Y0024281D01*
X0026560Y0025880D02*
X0106187Y0025880D01*
X0108469Y0027478D02*
X0027150Y0027478D01*
X0027150Y0029077D02*
X0110374Y0029077D01*
X0112187Y0030675D02*
X0027150Y0030675D01*
X0025571Y0032274D02*
X0113528Y0032274D01*
X0114870Y0033872D02*
X0024552Y0033872D01*
X0026541Y0035471D02*
X0116084Y0035471D01*
X0117007Y0037069D02*
X0027201Y0037069D01*
X0024382Y0043463D02*
X0057000Y0043463D01*
X0057000Y0045062D02*
X0012899Y0045062D01*
X0012899Y0046660D02*
X0047356Y0046660D01*
X0047367Y0046620D02*
X0047604Y0046209D01*
X0047939Y0045874D01*
X0048349Y0045637D01*
X0048807Y0045515D01*
X0051419Y0045515D01*
X0051419Y0049296D01*
X0047244Y0049296D01*
X0047244Y0047078D01*
X0047367Y0046620D01*
X0047244Y0048259D02*
X0012899Y0048259D01*
X0012899Y0049857D02*
X0051419Y0049857D01*
X0051419Y0050058D02*
X0051419Y0049296D01*
X0052181Y0049296D01*
X0052181Y0050058D01*
X0051419Y0050058D01*
X0051419Y0053839D01*
X0048807Y0053839D01*
X0048349Y0053716D01*
X0047939Y0053479D01*
X0047604Y0053144D01*
X0047367Y0052734D01*
X0047244Y0052276D01*
X0047244Y0050058D01*
X0051419Y0050058D01*
X0052181Y0050058D02*
X0052181Y0053839D01*
X0054793Y0053839D01*
X0055251Y0053716D01*
X0055661Y0053479D01*
X0055996Y0053144D01*
X0056233Y0052734D01*
X0056356Y0052276D01*
X0056356Y0050058D01*
X0052181Y0050058D01*
X0052181Y0049857D02*
X0057000Y0049857D01*
X0056356Y0049296D02*
X0056356Y0047078D01*
X0056233Y0046620D01*
X0055996Y0046209D01*
X0055661Y0045874D01*
X0055251Y0045637D01*
X0054793Y0045515D01*
X0052181Y0045515D01*
X0052181Y0049296D01*
X0056356Y0049296D01*
X0056356Y0048259D02*
X0057000Y0048259D01*
X0057000Y0046660D02*
X0056244Y0046660D01*
X0052181Y0046660D02*
X0051419Y0046660D01*
X0051419Y0048259D02*
X0052181Y0048259D01*
X0052181Y0051456D02*
X0051419Y0051456D01*
X0051419Y0053054D02*
X0052181Y0053054D01*
X0056048Y0053054D02*
X0057000Y0053054D01*
X0057000Y0051456D02*
X0056356Y0051456D01*
X0057000Y0054653D02*
X0012899Y0054653D01*
X0012899Y0053054D02*
X0047552Y0053054D01*
X0047244Y0051456D02*
X0012899Y0051456D01*
X0012899Y0056251D02*
X0057000Y0056251D01*
X0057338Y0057850D02*
X0055826Y0057850D01*
X0056356Y0059448D02*
X0058000Y0059448D01*
X0059441Y0061047D02*
X0056356Y0061047D01*
X0056356Y0062645D02*
X0061964Y0062645D01*
X0060577Y0064244D02*
X0056356Y0064244D01*
X0054100Y0065842D02*
X0059190Y0065842D01*
X0058415Y0066621D02*
X0058415Y0066621D01*
X0058075Y0067441D02*
X0054100Y0067441D01*
X0054100Y0069039D02*
X0057531Y0069039D01*
X0057531Y0070638D02*
X0054100Y0070638D01*
X0055644Y0072237D02*
X0057531Y0072237D01*
X0057531Y0073835D02*
X0057242Y0073835D01*
X0053934Y0077032D02*
X0024400Y0077032D01*
X0024400Y0075434D02*
X0052335Y0075434D01*
X0055532Y0078631D02*
X0023464Y0078631D01*
X0021866Y0080229D02*
X0050968Y0080229D01*
X0050551Y0081828D02*
X0022758Y0081828D01*
X0024356Y0083426D02*
X0050551Y0083426D01*
X0050595Y0085025D02*
X0024400Y0085025D01*
X0024400Y0085582D02*
X0024400Y0087695D01*
X0021412Y0090682D01*
X0019300Y0090682D01*
X0017188Y0090682D01*
X0014200Y0087695D01*
X0014200Y0085582D01*
X0019300Y0085582D01*
X0019300Y0085582D01*
X0024400Y0085582D01*
X0024400Y0086623D02*
X0050551Y0086623D01*
X0050551Y0085582D02*
X0051520Y0085582D01*
X0050551Y0085582D01*
X0051520Y0085582D02*
X0051520Y0085582D01*
X0051520Y0085582D01*
X0050551Y0088222D02*
X0023873Y0088222D01*
X0022275Y0089820D02*
X0050551Y0089820D01*
X0051451Y0091419D02*
X0013920Y0091419D01*
X0013602Y0089820D02*
X0016325Y0089820D01*
X0014727Y0088222D02*
X0013284Y0088222D01*
X0013011Y0086623D02*
X0014200Y0086623D01*
X0014200Y0085025D02*
X0012933Y0085025D01*
X0012899Y0083426D02*
X0014244Y0083426D01*
X0012899Y0081828D02*
X0015842Y0081828D01*
X0016734Y0080229D02*
X0012899Y0080229D01*
X0012899Y0078631D02*
X0015136Y0078631D01*
X0014200Y0077032D02*
X0012899Y0077032D01*
X0012899Y0075434D02*
X0014200Y0075434D01*
X0014200Y0073835D02*
X0012899Y0073835D01*
X0012899Y0072237D02*
X0015433Y0072237D01*
X0017032Y0070638D02*
X0012899Y0070638D01*
X0012899Y0069039D02*
X0049500Y0069039D01*
X0049500Y0067441D02*
X0012899Y0067441D01*
X0012899Y0065842D02*
X0049500Y0065842D01*
X0047244Y0064244D02*
X0012899Y0064244D01*
X0012899Y0062645D02*
X0047244Y0062645D01*
X0047244Y0061047D02*
X0012899Y0061047D01*
X0012899Y0059448D02*
X0047244Y0059448D01*
X0047774Y0057850D02*
X0012899Y0057850D01*
X0012899Y0043463D02*
X0019718Y0043463D01*
X0018120Y0041865D02*
X0012899Y0041865D01*
X0012899Y0040266D02*
X0016950Y0040266D01*
X0016950Y0038668D02*
X0012964Y0038668D01*
X0013154Y0037069D02*
X0016950Y0037069D01*
X0017949Y0035471D02*
X0013518Y0035471D01*
X0013883Y0033872D02*
X0019548Y0033872D01*
X0018529Y0032274D02*
X0014534Y0032274D01*
X0015304Y0030675D02*
X0016950Y0030675D01*
X0016950Y0029077D02*
X0016202Y0029077D01*
X0022050Y0027478D02*
X0022050Y0027478D01*
X0022050Y0025880D02*
X0022050Y0025880D01*
X0022050Y0024281D02*
X0022050Y0024281D01*
X0027626Y0021084D02*
X0093975Y0021084D01*
X0117930Y0038668D02*
X0058685Y0038668D01*
X0060772Y0040266D02*
X0118830Y0040266D01*
X0119412Y0041865D02*
X0061491Y0041865D01*
X0061600Y0043463D02*
X0119994Y0043463D01*
X0120576Y0045062D02*
X0061600Y0045062D01*
X0062604Y0046209D02*
X0062939Y0045874D01*
X0063349Y0045637D01*
X0063807Y0045515D01*
X0066419Y0045515D01*
X0066419Y0049296D01*
X0062244Y0049296D01*
X0062244Y0047078D01*
X0062367Y0046620D01*
X0062604Y0046209D01*
X0062356Y0046660D02*
X0061600Y0046660D01*
X0061600Y0048259D02*
X0062244Y0048259D01*
X0061600Y0049857D02*
X0066419Y0049857D01*
X0066419Y0050058D02*
X0066419Y0049296D01*
X0067181Y0049296D01*
X0067181Y0050058D01*
X0066419Y0050058D01*
X0066419Y0053839D01*
X0063807Y0053839D01*
X0063349Y0053716D01*
X0062939Y0053479D01*
X0062604Y0053144D01*
X0062367Y0052734D01*
X0062244Y0052276D01*
X0062244Y0050058D01*
X0066419Y0050058D01*
X0067181Y0050058D02*
X0067181Y0053839D01*
X0069793Y0053839D01*
X0070251Y0053716D01*
X0070661Y0053479D01*
X0070996Y0053144D01*
X0071233Y0052734D01*
X0071356Y0052276D01*
X0071356Y0050058D01*
X0067181Y0050058D01*
X0067181Y0049857D02*
X0081419Y0049857D01*
X0081419Y0050058D02*
X0081419Y0049296D01*
X0077244Y0049296D01*
X0077244Y0047078D01*
X0077367Y0046620D01*
X0077604Y0046209D01*
X0077939Y0045874D01*
X0078349Y0045637D01*
X0078807Y0045515D01*
X0081419Y0045515D01*
X0081419Y0049296D01*
X0082181Y0049296D01*
X0082181Y0050058D01*
X0081419Y0050058D01*
X0081419Y0053839D01*
X0078807Y0053839D01*
X0078349Y0053716D01*
X0077939Y0053479D01*
X0077604Y0053144D01*
X0077367Y0052734D01*
X0077244Y0052276D01*
X0077244Y0050058D01*
X0081419Y0050058D01*
X0082181Y0050058D02*
X0082181Y0053839D01*
X0084793Y0053839D01*
X0085251Y0053716D01*
X0085661Y0053479D01*
X0085996Y0053144D01*
X0086233Y0052734D01*
X0086356Y0052276D01*
X0086356Y0050058D01*
X0082181Y0050058D01*
X0082181Y0049857D02*
X0121554Y0049857D01*
X0121836Y0051456D02*
X0086356Y0051456D01*
X0086048Y0053054D02*
X0121931Y0053054D01*
X0122000Y0054653D02*
X0061600Y0054653D01*
X0061600Y0053054D02*
X0062552Y0053054D01*
X0062244Y0051456D02*
X0061600Y0051456D01*
X0066419Y0051456D02*
X0067181Y0051456D01*
X0067181Y0053054D02*
X0066419Y0053054D01*
X0067181Y0049296D02*
X0071356Y0049296D01*
X0071356Y0047078D01*
X0071233Y0046620D01*
X0070996Y0046209D01*
X0070661Y0045874D01*
X0070251Y0045637D01*
X0069793Y0045515D01*
X0067181Y0045515D01*
X0067181Y0049296D01*
X0067181Y0048259D02*
X0066419Y0048259D01*
X0066419Y0046660D02*
X0067181Y0046660D01*
X0071244Y0046660D02*
X0077356Y0046660D01*
X0077244Y0048259D02*
X0071356Y0048259D01*
X0071356Y0051456D02*
X0077244Y0051456D01*
X0077552Y0053054D02*
X0071048Y0053054D01*
X0070826Y0057850D02*
X0077774Y0057850D01*
X0077244Y0059448D02*
X0071356Y0059448D01*
X0071356Y0061047D02*
X0077244Y0061047D01*
X0077244Y0062645D02*
X0071356Y0062645D01*
X0071356Y0064244D02*
X0077244Y0064244D01*
X0076939Y0065842D02*
X0065698Y0065842D01*
X0064507Y0072237D02*
X0095201Y0072237D01*
X0096800Y0073835D02*
X0064100Y0073835D01*
X0077505Y0070638D02*
X0093603Y0070638D01*
X0092004Y0069039D02*
X0080470Y0069039D01*
X0081360Y0068393D02*
X0081360Y0068393D01*
X0082052Y0067441D02*
X0090406Y0067441D01*
X0088807Y0065842D02*
X0083181Y0065842D01*
X0086398Y0059448D02*
X0122000Y0059448D01*
X0122000Y0057850D02*
X0085826Y0057850D01*
X0090205Y0061047D02*
X0122000Y0061047D01*
X0122000Y0062645D02*
X0092116Y0062645D01*
X0090944Y0061474D02*
X0090944Y0061474D01*
X0093714Y0064244D02*
X0122000Y0064244D01*
X0122000Y0065842D02*
X0095313Y0065842D01*
X0096911Y0067441D02*
X0122000Y0067441D01*
X0122000Y0069039D02*
X0098510Y0069039D01*
X0100108Y0070638D02*
X0114532Y0070638D01*
X0112933Y0072237D02*
X0101707Y0072237D01*
X0103305Y0073835D02*
X0111700Y0073835D01*
X0111700Y0075434D02*
X0104904Y0075434D01*
X0106502Y0077032D02*
X0111700Y0077032D01*
X0112636Y0078631D02*
X0108101Y0078631D01*
X0109699Y0080229D02*
X0114234Y0080229D01*
X0113342Y0081828D02*
X0111298Y0081828D01*
X0107990Y0085025D02*
X0104495Y0085025D01*
X0102689Y0083426D02*
X0106391Y0083426D01*
X0104793Y0081828D02*
X0100297Y0081828D01*
X0097904Y0080229D02*
X0103194Y0080229D01*
X0101595Y0078631D02*
X0094523Y0078631D01*
X0090664Y0077032D02*
X0099997Y0077032D01*
X0098398Y0075434D02*
X0083076Y0075434D01*
X0071113Y0093017D02*
X0067990Y0093017D01*
X0067990Y0094616D02*
X0069514Y0094616D01*
X0067916Y0096214D02*
X0067353Y0096214D01*
X0065772Y0097813D02*
X0057369Y0097813D01*
X0057000Y0097813D02*
X0056600Y0097813D01*
X0056600Y0097782D02*
X0056600Y0105382D01*
X0052000Y0105382D01*
X0052000Y0102205D01*
X0052118Y0101458D01*
X0052352Y0100740D01*
X0052695Y0100067D01*
X0053139Y0099455D01*
X0053673Y0098921D01*
X0054284Y0098477D01*
X0054957Y0098134D01*
X0055676Y0097901D01*
X0056422Y0097782D01*
X0056600Y0097782D01*
X0056231Y0097813D02*
X0016709Y0097813D01*
X0015782Y0096214D02*
X0056247Y0096214D01*
X0055610Y0094616D02*
X0015120Y0094616D01*
X0014458Y0093017D02*
X0055610Y0093017D01*
X0056600Y0099411D02*
X0057000Y0099411D01*
X0057000Y0101010D02*
X0056600Y0101010D01*
X0056600Y0102608D02*
X0057000Y0102608D01*
X0057000Y0104207D02*
X0056600Y0104207D01*
X0052264Y0101010D02*
X0018845Y0101010D01*
X0017777Y0099411D02*
X0053183Y0099411D01*
X0052000Y0102608D02*
X0020425Y0102608D01*
X0022023Y0104207D02*
X0052000Y0104207D01*
X0052000Y0105805D02*
X0024161Y0105805D01*
X0026553Y0107404D02*
X0052000Y0107404D01*
X0052007Y0109002D02*
X0030241Y0109002D01*
X0037166Y0110601D02*
X0052441Y0110601D01*
X0061159Y0110601D02*
X0062441Y0110601D01*
X0062000Y0109002D02*
X0061593Y0109002D01*
X0061600Y0107404D02*
X0062000Y0107404D01*
X0062000Y0105805D02*
X0061600Y0105805D01*
X0061600Y0104207D02*
X0062000Y0104207D01*
X0062000Y0102608D02*
X0061600Y0102608D01*
X0061336Y0101010D02*
X0062256Y0101010D01*
X0063183Y0099411D02*
X0060417Y0099411D01*
X0019300Y0090682D02*
X0019300Y0085583D01*
X0019300Y0090682D01*
X0019300Y0089820D02*
X0019300Y0089820D01*
X0019300Y0088222D02*
X0019300Y0088222D01*
X0019300Y0086623D02*
X0019300Y0086623D01*
X0019300Y0085583D02*
X0019300Y0085583D01*
X0061711Y0056251D02*
X0122000Y0056251D01*
X0121272Y0048259D02*
X0086356Y0048259D01*
X0086356Y0049296D02*
X0086356Y0047078D01*
X0086233Y0046620D01*
X0085996Y0046209D01*
X0085661Y0045874D01*
X0085251Y0045637D01*
X0084793Y0045515D01*
X0082181Y0045515D01*
X0082181Y0049296D01*
X0086356Y0049296D01*
X0086244Y0046660D02*
X0120990Y0046660D01*
X0122000Y0070638D02*
X0119068Y0070638D01*
X0120667Y0072237D02*
X0122000Y0072237D01*
X0122000Y0073835D02*
X0121900Y0073835D01*
X0121900Y0075434D02*
X0122000Y0075434D01*
X0122000Y0077032D02*
X0121900Y0077032D01*
X0122000Y0078631D02*
X0120964Y0078631D01*
X0122000Y0080229D02*
X0119366Y0080229D01*
X0120258Y0081828D02*
X0122000Y0081828D01*
X0122000Y0083426D02*
X0121856Y0083426D01*
X0121900Y0085025D02*
X0122000Y0085025D01*
X0122000Y0086623D02*
X0121900Y0086623D01*
X0122000Y0088222D02*
X0121373Y0088222D01*
X0122000Y0089820D02*
X0119775Y0089820D01*
X0122000Y0091419D02*
X0108658Y0091419D01*
X0109143Y0092812D02*
X0109143Y0092812D01*
X0109158Y0093017D02*
X0122000Y0093017D01*
X0122000Y0094616D02*
X0109276Y0094616D01*
X0109393Y0096214D02*
X0122000Y0096214D01*
X0122000Y0097813D02*
X0109275Y0097813D01*
X0110417Y0099411D02*
X0122000Y0099411D01*
X0122000Y0101010D02*
X0111344Y0101010D01*
X0111600Y0102608D02*
X0121922Y0102608D01*
X0121498Y0104207D02*
X0111600Y0104207D01*
X0111600Y0105805D02*
X0120811Y0105805D01*
X0119748Y0107404D02*
X0111600Y0107404D01*
X0111600Y0109002D02*
X0117990Y0109002D01*
X0114013Y0110601D02*
X0111159Y0110601D01*
X0113825Y0089820D02*
X0108102Y0089820D01*
X0107789Y0088922D02*
X0107789Y0088922D01*
X0107313Y0088222D02*
X0112227Y0088222D01*
X0109646Y0086681D02*
X0109646Y0086681D01*
X0109588Y0086623D02*
X0106227Y0086623D01*
X0108536Y0085571D02*
X0108536Y0085571D01*
X0116800Y0075434D02*
X0116800Y0075434D01*
X0116800Y0073835D02*
X0116800Y0073835D01*
X0116800Y0072237D02*
X0116800Y0072237D01*
X0116800Y0070638D02*
X0116800Y0070638D01*
X0082181Y0053054D02*
X0081419Y0053054D01*
X0081419Y0051456D02*
X0082181Y0051456D01*
X0082181Y0048259D02*
X0081419Y0048259D01*
X0081419Y0046660D02*
X0082181Y0046660D01*
D18*
X0113300Y0035832D03*
M02*
