G75*
%MOIN*%
%OFA0B0*%
%FSLAX25Y25*%
%IPPOS*%
%LPD*%
%AMOC8*
5,1,8,0,0,1.08239X$1,22.5*
%
%ADD10C,0.00000*%
%ADD11R,0.05512X0.04724*%
%ADD12C,0.00679*%
D10*
X0032342Y0015582D02*
X0087749Y0015582D01*
X0087749Y0015583D02*
X0088693Y0015594D01*
X0089636Y0015629D01*
X0090578Y0015686D01*
X0091518Y0015765D01*
X0092456Y0015868D01*
X0093391Y0015993D01*
X0094324Y0016140D01*
X0095252Y0016311D01*
X0096176Y0016503D01*
X0097095Y0016718D01*
X0098008Y0016955D01*
X0098915Y0017214D01*
X0099816Y0017494D01*
X0100710Y0017797D01*
X0101597Y0018121D01*
X0102475Y0018466D01*
X0103345Y0018832D01*
X0104205Y0019220D01*
X0105056Y0019628D01*
X0105897Y0020056D01*
X0106727Y0020505D01*
X0107546Y0020973D01*
X0108354Y0021461D01*
X0109149Y0021969D01*
X0109932Y0022496D01*
X0110703Y0023041D01*
X0111459Y0023605D01*
X0112202Y0024187D01*
X0112931Y0024787D01*
X0113645Y0025404D01*
X0114343Y0026038D01*
X0115027Y0026689D01*
X0115694Y0027356D01*
X0116345Y0028040D01*
X0116979Y0028738D01*
X0117596Y0029452D01*
X0118196Y0030181D01*
X0118778Y0030924D01*
X0119342Y0031680D01*
X0119887Y0032451D01*
X0120414Y0033234D01*
X0120922Y0034029D01*
X0121410Y0034837D01*
X0121878Y0035656D01*
X0122327Y0036486D01*
X0122755Y0037327D01*
X0123163Y0038178D01*
X0123551Y0039038D01*
X0123917Y0039908D01*
X0124262Y0040786D01*
X0124586Y0041673D01*
X0124889Y0042567D01*
X0125169Y0043468D01*
X0125428Y0044375D01*
X0125665Y0045288D01*
X0125880Y0046207D01*
X0126072Y0047131D01*
X0126243Y0048059D01*
X0126390Y0048992D01*
X0126515Y0049927D01*
X0126618Y0050865D01*
X0126697Y0051805D01*
X0126754Y0052747D01*
X0126789Y0053690D01*
X0126800Y0054634D01*
X0126800Y0101417D01*
X0126796Y0101757D01*
X0126784Y0102098D01*
X0126763Y0102437D01*
X0126734Y0102777D01*
X0126697Y0103115D01*
X0126652Y0103452D01*
X0126599Y0103789D01*
X0126538Y0104123D01*
X0126468Y0104457D01*
X0126391Y0104788D01*
X0126305Y0105118D01*
X0126212Y0105445D01*
X0126111Y0105770D01*
X0126001Y0106093D01*
X0125885Y0106412D01*
X0125760Y0106729D01*
X0125628Y0107043D01*
X0125488Y0107353D01*
X0125341Y0107660D01*
X0125186Y0107964D01*
X0125025Y0108263D01*
X0124856Y0108559D01*
X0124679Y0108850D01*
X0124496Y0109137D01*
X0124306Y0109419D01*
X0124110Y0109697D01*
X0123906Y0109970D01*
X0123696Y0110238D01*
X0123480Y0110501D01*
X0123257Y0110758D01*
X0123028Y0111010D01*
X0122794Y0111257D01*
X0122553Y0111498D01*
X0122306Y0111732D01*
X0122054Y0111961D01*
X0121797Y0112184D01*
X0121534Y0112400D01*
X0121266Y0112610D01*
X0120993Y0112814D01*
X0120715Y0113010D01*
X0120433Y0113200D01*
X0120146Y0113383D01*
X0119855Y0113560D01*
X0119559Y0113729D01*
X0119260Y0113890D01*
X0118956Y0114045D01*
X0118649Y0114192D01*
X0118339Y0114332D01*
X0118025Y0114464D01*
X0117708Y0114589D01*
X0117389Y0114705D01*
X0117066Y0114815D01*
X0116741Y0114916D01*
X0116414Y0115009D01*
X0116084Y0115095D01*
X0115753Y0115172D01*
X0115419Y0115242D01*
X0115085Y0115303D01*
X0114748Y0115356D01*
X0114411Y0115401D01*
X0114073Y0115438D01*
X0113733Y0115467D01*
X0113394Y0115488D01*
X0113053Y0115500D01*
X0112713Y0115504D01*
X0039260Y0115504D01*
X0038507Y0115495D01*
X0037755Y0115468D01*
X0037003Y0115422D01*
X0036253Y0115359D01*
X0035504Y0115277D01*
X0034758Y0115177D01*
X0034014Y0115059D01*
X0033273Y0114923D01*
X0032536Y0114770D01*
X0031803Y0114599D01*
X0031074Y0114409D01*
X0030350Y0114203D01*
X0029631Y0113979D01*
X0028917Y0113738D01*
X0028210Y0113479D01*
X0027509Y0113204D01*
X0026815Y0112911D01*
X0026129Y0112602D01*
X0025450Y0112277D01*
X0024779Y0111935D01*
X0024116Y0111577D01*
X0023463Y0111203D01*
X0022818Y0110813D01*
X0022183Y0110408D01*
X0021559Y0109988D01*
X0020944Y0109553D01*
X0020340Y0109103D01*
X0019747Y0108638D01*
X0019166Y0108160D01*
X0018596Y0107667D01*
X0018039Y0107161D01*
X0017494Y0106642D01*
X0016961Y0106109D01*
X0016442Y0105564D01*
X0015936Y0105007D01*
X0015443Y0104437D01*
X0014965Y0103856D01*
X0014500Y0103263D01*
X0014050Y0102659D01*
X0013615Y0102044D01*
X0013195Y0101420D01*
X0012790Y0100785D01*
X0012400Y0100140D01*
X0012026Y0099487D01*
X0011668Y0098824D01*
X0011326Y0098153D01*
X0011001Y0097474D01*
X0010692Y0096788D01*
X0010399Y0096094D01*
X0010124Y0095393D01*
X0009865Y0094686D01*
X0009624Y0093972D01*
X0009400Y0093253D01*
X0009194Y0092529D01*
X0009004Y0091800D01*
X0008833Y0091067D01*
X0008680Y0090330D01*
X0008544Y0089589D01*
X0008426Y0088845D01*
X0008326Y0088099D01*
X0008244Y0087350D01*
X0008181Y0086600D01*
X0008135Y0085848D01*
X0008108Y0085096D01*
X0008099Y0084343D01*
X0008099Y0039825D01*
X0008106Y0039230D01*
X0008128Y0038635D01*
X0008165Y0038042D01*
X0008216Y0037449D01*
X0008281Y0036857D01*
X0008361Y0036268D01*
X0008456Y0035680D01*
X0008565Y0035095D01*
X0008688Y0034513D01*
X0008826Y0033934D01*
X0008977Y0033359D01*
X0009143Y0032788D01*
X0009323Y0032220D01*
X0009516Y0031658D01*
X0009723Y0031100D01*
X0009944Y0030548D01*
X0010179Y0030001D01*
X0010427Y0029460D01*
X0010688Y0028925D01*
X0010962Y0028397D01*
X0011248Y0027876D01*
X0011548Y0027362D01*
X0011860Y0026855D01*
X0012185Y0026356D01*
X0012521Y0025866D01*
X0012870Y0025383D01*
X0013230Y0024910D01*
X0013602Y0024445D01*
X0013985Y0023990D01*
X0014379Y0023544D01*
X0014784Y0023108D01*
X0015200Y0022683D01*
X0015625Y0022267D01*
X0016061Y0021862D01*
X0016507Y0021468D01*
X0016962Y0021085D01*
X0017427Y0020713D01*
X0017900Y0020353D01*
X0018383Y0020004D01*
X0018873Y0019668D01*
X0019372Y0019343D01*
X0019879Y0019031D01*
X0020393Y0018731D01*
X0020914Y0018445D01*
X0021442Y0018171D01*
X0021977Y0017910D01*
X0022518Y0017662D01*
X0023065Y0017427D01*
X0023617Y0017206D01*
X0024175Y0016999D01*
X0024737Y0016806D01*
X0025305Y0016626D01*
X0025876Y0016460D01*
X0026451Y0016309D01*
X0027030Y0016171D01*
X0027612Y0016048D01*
X0028197Y0015939D01*
X0028785Y0015844D01*
X0029374Y0015764D01*
X0029966Y0015699D01*
X0030559Y0015648D01*
X0031152Y0015611D01*
X0031747Y0015589D01*
X0032342Y0015582D01*
D11*
X0051800Y0049677D03*
X0051800Y0061488D03*
X0066800Y0061488D03*
X0066800Y0049677D03*
X0081800Y0049677D03*
X0081800Y0061488D03*
D12*
X0065623Y0076472D02*
X0065623Y0078944D01*
X0065851Y0078944D01*
X0065851Y0076472D01*
X0065623Y0076472D01*
X0065623Y0077150D02*
X0065851Y0077150D01*
X0065851Y0077828D02*
X0065623Y0077828D01*
X0065623Y0078506D02*
X0065851Y0078506D01*
X0063655Y0078944D02*
X0063655Y0076472D01*
X0063655Y0078944D02*
X0063883Y0078944D01*
X0063883Y0076472D01*
X0063655Y0076472D01*
X0063655Y0077150D02*
X0063883Y0077150D01*
X0063883Y0077828D02*
X0063655Y0077828D01*
X0063655Y0078506D02*
X0063883Y0078506D01*
X0061686Y0078944D02*
X0061686Y0076472D01*
X0061686Y0078944D02*
X0061914Y0078944D01*
X0061914Y0076472D01*
X0061686Y0076472D01*
X0061686Y0077150D02*
X0061914Y0077150D01*
X0061914Y0077828D02*
X0061686Y0077828D01*
X0061686Y0078506D02*
X0061914Y0078506D01*
X0059717Y0078944D02*
X0059717Y0076472D01*
X0059717Y0078944D02*
X0059945Y0078944D01*
X0059945Y0076472D01*
X0059717Y0076472D01*
X0059717Y0077150D02*
X0059945Y0077150D01*
X0059945Y0077828D02*
X0059717Y0077828D01*
X0059717Y0078506D02*
X0059945Y0078506D01*
X0057749Y0078944D02*
X0057749Y0076472D01*
X0057749Y0078944D02*
X0057977Y0078944D01*
X0057977Y0076472D01*
X0057749Y0076472D01*
X0057749Y0077150D02*
X0057977Y0077150D01*
X0057977Y0077828D02*
X0057749Y0077828D01*
X0057749Y0078506D02*
X0057977Y0078506D01*
X0052690Y0081531D02*
X0052690Y0081759D01*
X0055162Y0081759D01*
X0055162Y0081531D01*
X0052690Y0081531D01*
X0052690Y0083500D02*
X0052690Y0083728D01*
X0055162Y0083728D01*
X0055162Y0083500D01*
X0052690Y0083500D01*
X0052690Y0085468D02*
X0052690Y0085696D01*
X0055162Y0085696D01*
X0055162Y0085468D01*
X0052690Y0085468D01*
X0052690Y0087437D02*
X0052690Y0087665D01*
X0055162Y0087665D01*
X0055162Y0087437D01*
X0052690Y0087437D01*
X0052690Y0089405D02*
X0052690Y0089633D01*
X0055162Y0089633D01*
X0055162Y0089405D01*
X0052690Y0089405D01*
X0057749Y0092220D02*
X0057749Y0094692D01*
X0057977Y0094692D01*
X0057977Y0092220D01*
X0057749Y0092220D01*
X0057749Y0092898D02*
X0057977Y0092898D01*
X0057977Y0093576D02*
X0057749Y0093576D01*
X0057749Y0094254D02*
X0057977Y0094254D01*
X0059717Y0094692D02*
X0059717Y0092220D01*
X0059717Y0094692D02*
X0059945Y0094692D01*
X0059945Y0092220D01*
X0059717Y0092220D01*
X0059717Y0092898D02*
X0059945Y0092898D01*
X0059945Y0093576D02*
X0059717Y0093576D01*
X0059717Y0094254D02*
X0059945Y0094254D01*
X0061686Y0094692D02*
X0061686Y0092220D01*
X0061686Y0094692D02*
X0061914Y0094692D01*
X0061914Y0092220D01*
X0061686Y0092220D01*
X0061686Y0092898D02*
X0061914Y0092898D01*
X0061914Y0093576D02*
X0061686Y0093576D01*
X0061686Y0094254D02*
X0061914Y0094254D01*
X0063655Y0094692D02*
X0063655Y0092220D01*
X0063655Y0094692D02*
X0063883Y0094692D01*
X0063883Y0092220D01*
X0063655Y0092220D01*
X0063655Y0092898D02*
X0063883Y0092898D01*
X0063883Y0093576D02*
X0063655Y0093576D01*
X0063655Y0094254D02*
X0063883Y0094254D01*
X0065623Y0094692D02*
X0065623Y0092220D01*
X0065623Y0094692D02*
X0065851Y0094692D01*
X0065851Y0092220D01*
X0065623Y0092220D01*
X0065623Y0092898D02*
X0065851Y0092898D01*
X0065851Y0093576D02*
X0065623Y0093576D01*
X0065623Y0094254D02*
X0065851Y0094254D01*
X0068438Y0089633D02*
X0068438Y0089405D01*
X0068438Y0089633D02*
X0070910Y0089633D01*
X0070910Y0089405D01*
X0068438Y0089405D01*
X0068438Y0087665D02*
X0068438Y0087437D01*
X0068438Y0087665D02*
X0070910Y0087665D01*
X0070910Y0087437D01*
X0068438Y0087437D01*
X0068438Y0085696D02*
X0068438Y0085468D01*
X0068438Y0085696D02*
X0070910Y0085696D01*
X0070910Y0085468D01*
X0068438Y0085468D01*
X0068438Y0083728D02*
X0068438Y0083500D01*
X0068438Y0083728D02*
X0070910Y0083728D01*
X0070910Y0083500D01*
X0068438Y0083500D01*
X0068438Y0081759D02*
X0068438Y0081531D01*
X0068438Y0081759D02*
X0070910Y0081759D01*
X0070910Y0081531D01*
X0068438Y0081531D01*
M02*
