G75*
%MOIN*%
%OFA0B0*%
%FSLAX25Y25*%
%IPPOS*%
%LPD*%
%AMOC8*
5,1,8,0,0,1.08239X$1,22.5*
%
%ADD10C,0.00600*%
%ADD11C,0.00500*%
D10*
X0040619Y0103220D02*
X0042981Y0103220D01*
X0042981Y0107945D02*
X0040619Y0107945D01*
D11*
X0026800Y0045582D02*
X0026800Y0036582D01*
X0046800Y0015582D01*
X0085800Y0015582D01*
X0106800Y0037582D01*
X0106800Y0045582D01*
X0126800Y0045582D01*
X0126800Y0065582D01*
X0106800Y0065582D01*
X0106800Y0093582D01*
X0087800Y0093582D01*
X0078800Y0081582D01*
X0053800Y0081582D01*
X0043800Y0093582D01*
X0026800Y0093582D01*
X0026800Y0065582D01*
X0006800Y0065582D01*
X0006800Y0045582D01*
X0026800Y0045582D01*
X0013194Y0056582D02*
X0013196Y0056702D01*
X0013202Y0056822D01*
X0013212Y0056941D01*
X0013226Y0057060D01*
X0013244Y0057179D01*
X0013265Y0057297D01*
X0013291Y0057414D01*
X0013321Y0057530D01*
X0013354Y0057645D01*
X0013391Y0057759D01*
X0013432Y0057871D01*
X0013477Y0057983D01*
X0013526Y0058092D01*
X0013578Y0058200D01*
X0013633Y0058307D01*
X0013692Y0058411D01*
X0013755Y0058513D01*
X0013821Y0058613D01*
X0013890Y0058711D01*
X0013962Y0058807D01*
X0014038Y0058900D01*
X0014116Y0058990D01*
X0014198Y0059078D01*
X0014282Y0059163D01*
X0014369Y0059246D01*
X0014459Y0059325D01*
X0014552Y0059401D01*
X0014647Y0059474D01*
X0014744Y0059544D01*
X0014844Y0059611D01*
X0014945Y0059674D01*
X0015049Y0059734D01*
X0015155Y0059791D01*
X0015262Y0059844D01*
X0015372Y0059893D01*
X0015483Y0059939D01*
X0015595Y0059981D01*
X0015709Y0060019D01*
X0015823Y0060053D01*
X0015939Y0060084D01*
X0016056Y0060110D01*
X0016174Y0060133D01*
X0016292Y0060152D01*
X0016411Y0060167D01*
X0016531Y0060178D01*
X0016650Y0060185D01*
X0016770Y0060188D01*
X0016890Y0060187D01*
X0017010Y0060182D01*
X0017129Y0060173D01*
X0017248Y0060160D01*
X0017367Y0060143D01*
X0017485Y0060122D01*
X0017602Y0060098D01*
X0017719Y0060069D01*
X0017834Y0060037D01*
X0017948Y0060000D01*
X0018061Y0059960D01*
X0018173Y0059916D01*
X0018283Y0059869D01*
X0018392Y0059818D01*
X0018498Y0059763D01*
X0018603Y0059705D01*
X0018706Y0059643D01*
X0018807Y0059578D01*
X0018905Y0059510D01*
X0019001Y0059438D01*
X0019095Y0059364D01*
X0019186Y0059286D01*
X0019275Y0059205D01*
X0019360Y0059121D01*
X0019443Y0059035D01*
X0019523Y0058945D01*
X0019601Y0058854D01*
X0019674Y0058759D01*
X0019745Y0058663D01*
X0019813Y0058564D01*
X0019877Y0058462D01*
X0019938Y0058359D01*
X0019995Y0058254D01*
X0020049Y0058147D01*
X0020099Y0058038D01*
X0020146Y0057927D01*
X0020189Y0057815D01*
X0020228Y0057702D01*
X0020263Y0057587D01*
X0020294Y0057472D01*
X0020322Y0057355D01*
X0020346Y0057238D01*
X0020366Y0057119D01*
X0020382Y0057001D01*
X0020394Y0056881D01*
X0020402Y0056762D01*
X0020406Y0056642D01*
X0020406Y0056522D01*
X0020402Y0056402D01*
X0020394Y0056283D01*
X0020382Y0056163D01*
X0020366Y0056045D01*
X0020346Y0055926D01*
X0020322Y0055809D01*
X0020294Y0055692D01*
X0020263Y0055577D01*
X0020228Y0055462D01*
X0020189Y0055349D01*
X0020146Y0055237D01*
X0020099Y0055126D01*
X0020049Y0055017D01*
X0019995Y0054910D01*
X0019938Y0054805D01*
X0019877Y0054702D01*
X0019813Y0054600D01*
X0019745Y0054501D01*
X0019674Y0054405D01*
X0019601Y0054310D01*
X0019523Y0054219D01*
X0019443Y0054129D01*
X0019360Y0054043D01*
X0019275Y0053959D01*
X0019186Y0053878D01*
X0019095Y0053800D01*
X0019001Y0053726D01*
X0018905Y0053654D01*
X0018807Y0053586D01*
X0018706Y0053521D01*
X0018603Y0053459D01*
X0018498Y0053401D01*
X0018392Y0053346D01*
X0018283Y0053295D01*
X0018173Y0053248D01*
X0018061Y0053204D01*
X0017948Y0053164D01*
X0017834Y0053127D01*
X0017719Y0053095D01*
X0017602Y0053066D01*
X0017485Y0053042D01*
X0017367Y0053021D01*
X0017248Y0053004D01*
X0017129Y0052991D01*
X0017010Y0052982D01*
X0016890Y0052977D01*
X0016770Y0052976D01*
X0016650Y0052979D01*
X0016531Y0052986D01*
X0016411Y0052997D01*
X0016292Y0053012D01*
X0016174Y0053031D01*
X0016056Y0053054D01*
X0015939Y0053080D01*
X0015823Y0053111D01*
X0015709Y0053145D01*
X0015595Y0053183D01*
X0015483Y0053225D01*
X0015372Y0053271D01*
X0015262Y0053320D01*
X0015155Y0053373D01*
X0015049Y0053430D01*
X0014945Y0053490D01*
X0014844Y0053553D01*
X0014744Y0053620D01*
X0014647Y0053690D01*
X0014552Y0053763D01*
X0014459Y0053839D01*
X0014369Y0053918D01*
X0014282Y0054001D01*
X0014198Y0054086D01*
X0014116Y0054174D01*
X0014038Y0054264D01*
X0013962Y0054357D01*
X0013890Y0054453D01*
X0013821Y0054551D01*
X0013755Y0054651D01*
X0013692Y0054753D01*
X0013633Y0054857D01*
X0013578Y0054964D01*
X0013526Y0055072D01*
X0013477Y0055181D01*
X0013432Y0055293D01*
X0013391Y0055405D01*
X0013354Y0055519D01*
X0013321Y0055634D01*
X0013291Y0055750D01*
X0013265Y0055867D01*
X0013244Y0055985D01*
X0013226Y0056104D01*
X0013212Y0056223D01*
X0013202Y0056342D01*
X0013196Y0056462D01*
X0013194Y0056582D01*
X0114194Y0055582D02*
X0114196Y0055702D01*
X0114202Y0055822D01*
X0114212Y0055941D01*
X0114226Y0056060D01*
X0114244Y0056179D01*
X0114265Y0056297D01*
X0114291Y0056414D01*
X0114321Y0056530D01*
X0114354Y0056645D01*
X0114391Y0056759D01*
X0114432Y0056871D01*
X0114477Y0056983D01*
X0114526Y0057092D01*
X0114578Y0057200D01*
X0114633Y0057307D01*
X0114692Y0057411D01*
X0114755Y0057513D01*
X0114821Y0057613D01*
X0114890Y0057711D01*
X0114962Y0057807D01*
X0115038Y0057900D01*
X0115116Y0057990D01*
X0115198Y0058078D01*
X0115282Y0058163D01*
X0115369Y0058246D01*
X0115459Y0058325D01*
X0115552Y0058401D01*
X0115647Y0058474D01*
X0115744Y0058544D01*
X0115844Y0058611D01*
X0115945Y0058674D01*
X0116049Y0058734D01*
X0116155Y0058791D01*
X0116262Y0058844D01*
X0116372Y0058893D01*
X0116483Y0058939D01*
X0116595Y0058981D01*
X0116709Y0059019D01*
X0116823Y0059053D01*
X0116939Y0059084D01*
X0117056Y0059110D01*
X0117174Y0059133D01*
X0117292Y0059152D01*
X0117411Y0059167D01*
X0117531Y0059178D01*
X0117650Y0059185D01*
X0117770Y0059188D01*
X0117890Y0059187D01*
X0118010Y0059182D01*
X0118129Y0059173D01*
X0118248Y0059160D01*
X0118367Y0059143D01*
X0118485Y0059122D01*
X0118602Y0059098D01*
X0118719Y0059069D01*
X0118834Y0059037D01*
X0118948Y0059000D01*
X0119061Y0058960D01*
X0119173Y0058916D01*
X0119283Y0058869D01*
X0119392Y0058818D01*
X0119498Y0058763D01*
X0119603Y0058705D01*
X0119706Y0058643D01*
X0119807Y0058578D01*
X0119905Y0058510D01*
X0120001Y0058438D01*
X0120095Y0058364D01*
X0120186Y0058286D01*
X0120275Y0058205D01*
X0120360Y0058121D01*
X0120443Y0058035D01*
X0120523Y0057945D01*
X0120601Y0057854D01*
X0120674Y0057759D01*
X0120745Y0057663D01*
X0120813Y0057564D01*
X0120877Y0057462D01*
X0120938Y0057359D01*
X0120995Y0057254D01*
X0121049Y0057147D01*
X0121099Y0057038D01*
X0121146Y0056927D01*
X0121189Y0056815D01*
X0121228Y0056702D01*
X0121263Y0056587D01*
X0121294Y0056472D01*
X0121322Y0056355D01*
X0121346Y0056238D01*
X0121366Y0056119D01*
X0121382Y0056001D01*
X0121394Y0055881D01*
X0121402Y0055762D01*
X0121406Y0055642D01*
X0121406Y0055522D01*
X0121402Y0055402D01*
X0121394Y0055283D01*
X0121382Y0055163D01*
X0121366Y0055045D01*
X0121346Y0054926D01*
X0121322Y0054809D01*
X0121294Y0054692D01*
X0121263Y0054577D01*
X0121228Y0054462D01*
X0121189Y0054349D01*
X0121146Y0054237D01*
X0121099Y0054126D01*
X0121049Y0054017D01*
X0120995Y0053910D01*
X0120938Y0053805D01*
X0120877Y0053702D01*
X0120813Y0053600D01*
X0120745Y0053501D01*
X0120674Y0053405D01*
X0120601Y0053310D01*
X0120523Y0053219D01*
X0120443Y0053129D01*
X0120360Y0053043D01*
X0120275Y0052959D01*
X0120186Y0052878D01*
X0120095Y0052800D01*
X0120001Y0052726D01*
X0119905Y0052654D01*
X0119807Y0052586D01*
X0119706Y0052521D01*
X0119603Y0052459D01*
X0119498Y0052401D01*
X0119392Y0052346D01*
X0119283Y0052295D01*
X0119173Y0052248D01*
X0119061Y0052204D01*
X0118948Y0052164D01*
X0118834Y0052127D01*
X0118719Y0052095D01*
X0118602Y0052066D01*
X0118485Y0052042D01*
X0118367Y0052021D01*
X0118248Y0052004D01*
X0118129Y0051991D01*
X0118010Y0051982D01*
X0117890Y0051977D01*
X0117770Y0051976D01*
X0117650Y0051979D01*
X0117531Y0051986D01*
X0117411Y0051997D01*
X0117292Y0052012D01*
X0117174Y0052031D01*
X0117056Y0052054D01*
X0116939Y0052080D01*
X0116823Y0052111D01*
X0116709Y0052145D01*
X0116595Y0052183D01*
X0116483Y0052225D01*
X0116372Y0052271D01*
X0116262Y0052320D01*
X0116155Y0052373D01*
X0116049Y0052430D01*
X0115945Y0052490D01*
X0115844Y0052553D01*
X0115744Y0052620D01*
X0115647Y0052690D01*
X0115552Y0052763D01*
X0115459Y0052839D01*
X0115369Y0052918D01*
X0115282Y0053001D01*
X0115198Y0053086D01*
X0115116Y0053174D01*
X0115038Y0053264D01*
X0114962Y0053357D01*
X0114890Y0053453D01*
X0114821Y0053551D01*
X0114755Y0053651D01*
X0114692Y0053753D01*
X0114633Y0053857D01*
X0114578Y0053964D01*
X0114526Y0054072D01*
X0114477Y0054181D01*
X0114432Y0054293D01*
X0114391Y0054405D01*
X0114354Y0054519D01*
X0114321Y0054634D01*
X0114291Y0054750D01*
X0114265Y0054867D01*
X0114244Y0054985D01*
X0114226Y0055104D01*
X0114212Y0055223D01*
X0114202Y0055342D01*
X0114196Y0055462D01*
X0114194Y0055582D01*
M02*
